<?xml version="1.0" encoding="UTF-8" standalone="no"?>
<!DOCTYPE svg PUBLIC "-//W3C//DTD SVG 1.1//EN"
 "http://www.w3.org/Graphics/SVG/1.1/DTD/svg11.dtd">
<!-- Generated by graphviz version 12.1.1 (0)
 -->
<!-- Title: boards/adafruit&#45;clue/include/board.h Pages: 1 -->
<svg width="170pt" height="98pt"
 viewBox="0.00 0.00 169.50 98.25" xmlns="http://www.w3.org/2000/svg" xmlns:xlink="http://www.w3.org/1999/xlink">
<g id="graph0" class="graph" transform="scale(1 1) rotate(0) translate(4 94.25)">
<title>boards/adafruit&#45;clue/include/board.h</title>
<!-- Node1 -->
<g id="Node000001" class="node">
<title>Node1</title>
<g id="a_Node000001"><a xlink:title="Board specific configuration for the Adafruit Clue board.">
<polygon fill="#999999" stroke="#666666" points="123.25,-90.25 9,-90.25 9,-56.75 123.25,-56.75 123.25,-90.25"/>
<text text-anchor="start" x="17" y="-76.75" font-family="Helvetica,sans-Serif" font-size="10.00">boards/adafruit&#45;clue</text>
<text text-anchor="middle" x="66.12" y="-64" font-family="Helvetica,sans-Serif" font-size="10.00">/include/board.h</text>
</a>
</g>
</g>
<!-- Node2 -->
<g id="Node000002" class="node">
<title>Node2</title>
<g id="a_Node000002"><a xlink:title=" ">
<polygon fill="#e0e0e0" stroke="#999999" points="42.25,-20.75 0,-20.75 0,0 42.25,0 42.25,-20.75"/>
<text text-anchor="middle" x="21.12" y="-7.25" font-family="Helvetica,sans-Serif" font-size="10.00">cpu.h</text>
</a>
</g>
</g>
<!-- Node1&#45;&gt;Node2 -->
<g id="edge1_Node000001_Node000002" class="edge">
<title>Node1&#45;&gt;Node2</title>
<g id="a_edge1_Node000001_Node000002"><a xlink:title=" ">
<path fill="none" stroke="#63b8ff" d="M54.3,-56.44C48.39,-48.41 41.19,-38.63 35.02,-30.24"/>
<polygon fill="#63b8ff" stroke="#63b8ff" points="38.02,-28.41 29.27,-22.44 32.38,-32.56 38.02,-28.41"/>
</a>
</g>
</g>
<!-- Node3 -->
<g id="Node000003" class="node">
<title>Node3</title>
<g id="a_Node000003"><a xlink:title=" ">
<polygon fill="#e0e0e0" stroke="#999999" points="161.5,-20.75 60.75,-20.75 60.75,0 161.5,0 161.5,-20.75"/>
<text text-anchor="middle" x="111.12" y="-7.25" font-family="Helvetica,sans-Serif" font-size="10.00">board_common.h</text>
</a>
</g>
</g>
<!-- Node1&#45;&gt;Node3 -->
<g id="edge2_Node000001_Node000003" class="edge">
<title>Node1&#45;&gt;Node3</title>
<g id="a_edge2_Node000001_Node000003"><a xlink:title=" ">
<path fill="none" stroke="#63b8ff" d="M77.95,-56.44C83.86,-48.41 91.06,-38.63 97.23,-30.24"/>
<polygon fill="#63b8ff" stroke="#63b8ff" points="99.87,-32.56 102.98,-22.44 94.23,-28.41 99.87,-32.56"/>
</a>
</g>
</g>
</g>
</svg>
