<?xml version="1.0" encoding="UTF-8" standalone="no"?>
<!DOCTYPE svg PUBLIC "-//W3C//DTD SVG 1.1//EN"
 "http://www.w3.org/Graphics/SVG/1.1/DTD/svg11.dtd">
<!-- Generated by graphviz version 12.1.1 (0)
 -->
<!-- Title: sys/include/hashes/aes128_cmac.h Pages: 1 -->
<svg width="376pt" height="382pt"
 viewBox="0.00 0.00 376.38 382.00" xmlns="http://www.w3.org/2000/svg" xmlns:xlink="http://www.w3.org/1999/xlink">
<g id="graph0" class="graph" transform="scale(1 1) rotate(0) translate(4 378)">
<title>sys/include/hashes/aes128_cmac.h</title>
<!-- Node1 -->
<g id="Node000001" class="node">
<title>Node1</title>
<g id="a_Node000001"><a xlink:title="AES128_CMAC interface definition.">
<polygon fill="#999999" stroke="#666666" points="245.5,-374 137.25,-374 137.25,-340.5 245.5,-340.5 245.5,-374"/>
<text text-anchor="start" x="145.25" y="-360.5" font-family="Helvetica,sans-Serif" font-size="10.00">sys/include/hashes</text>
<text text-anchor="middle" x="191.38" y="-347.75" font-family="Helvetica,sans-Serif" font-size="10.00">/aes128_cmac.h</text>
</a>
</g>
</g>
<!-- Node2 -->
<g id="Node000002" class="node">
<title>Node2</title>
<g id="a_Node000002"><a xlink:href="stdio_8h.html" target="_top" xlink:title="stdio wrapper to extend the C libs stdio">
<polygon fill="white" stroke="#666666" points="182.88,-304.5 133.88,-304.5 133.88,-283.75 182.88,-283.75 182.88,-304.5"/>
<text text-anchor="middle" x="158.38" y="-291" font-family="Helvetica,sans-Serif" font-size="10.00">stdio.h</text>
</a>
</g>
</g>
<!-- Node1&#45;&gt;Node2 -->
<g id="edge1_Node000001_Node000002" class="edge">
<title>Node1&#45;&gt;Node2</title>
<g id="a_edge1_Node000001_Node000002"><a xlink:title=" ">
<path fill="none" stroke="#63b8ff" d="M182.7,-340.19C178.56,-332.51 173.55,-323.23 169.16,-315.09"/>
<polygon fill="#63b8ff" stroke="#63b8ff" points="172.24,-313.44 164.41,-306.3 166.08,-316.76 172.24,-313.44"/>
</a>
</g>
</g>
<!-- Node14 -->
<g id="Node000014" class="node">
<title>Node14</title>
<g id="a_Node000014"><a xlink:href="ciphers_8h.html" target="_top" xlink:title="Headers for the packet encryption class.">
<polygon fill="white" stroke="#666666" points="368.38,-191 274.38,-191 274.38,-170.25 368.38,-170.25 368.38,-191"/>
<text text-anchor="middle" x="321.38" y="-177.5" font-family="Helvetica,sans-Serif" font-size="10.00">crypto/ciphers.h</text>
</a>
</g>
</g>
<!-- Node1&#45;&gt;Node14 -->
<g id="edge17_Node000001_Node000014" class="edge">
<title>Node1&#45;&gt;Node14</title>
<g id="a_edge17_Node000001_Node000014"><a xlink:title=" ">
<path fill="none" stroke="#63b8ff" d="M203.37,-340.13C227.51,-307.71 281.84,-234.73 307.48,-200.29"/>
<polygon fill="#63b8ff" stroke="#63b8ff" points="310.11,-202.62 313.27,-192.51 304.49,-198.44 310.11,-202.62"/>
</a>
</g>
</g>
<!-- Node3 -->
<g id="Node000003" class="node">
<title>Node3</title>
<g id="a_Node000003"><a xlink:href="flash__utils_8h.html" target="_top" xlink:title="Utility functions, macros, and types for read&#45;only memory.">
<polygon fill="white" stroke="#666666" points="196,-247.75 120.75,-247.75 120.75,-227 196,-227 196,-247.75"/>
<text text-anchor="middle" x="158.38" y="-234.25" font-family="Helvetica,sans-Serif" font-size="10.00">flash_utils.h</text>
</a>
</g>
</g>
<!-- Node2&#45;&gt;Node3 -->
<g id="edge2_Node000002_Node000003" class="edge">
<title>Node2&#45;&gt;Node3</title>
<g id="a_edge2_Node000002_Node000003"><a xlink:title=" ">
<path fill="none" stroke="#63b8ff" d="M153.06,-283.34C151.79,-276.72 151.36,-267.72 151.78,-259.52"/>
<polygon fill="#63b8ff" stroke="#63b8ff" points="155.26,-259.91 152.91,-249.58 148.3,-259.13 155.26,-259.91"/>
</a>
</g>
</g>
<!-- Node3&#45;&gt;Node2 -->
<g id="edge3_Node000003_Node000002" class="edge">
<title>Node3&#45;&gt;Node2</title>
<g id="a_edge3_Node000003_Node000002"><a xlink:title=" ">
<path fill="none" stroke="#63b8ff" d="M163.67,-248.08C164.97,-254.75 165.4,-263.88 164.96,-272.17"/>
<polygon fill="#63b8ff" stroke="#63b8ff" points="161.51,-271.5 163.86,-281.83 168.47,-272.29 161.51,-271.5"/>
</a>
</g>
</g>
<!-- Node4 -->
<g id="Node000004" class="node">
<title>Node4</title>
<g id="a_Node000004"><a xlink:title=" ">
<polygon fill="#e0e0e0" stroke="#999999" points="56.75,-191 4,-191 4,-170.25 56.75,-170.25 56.75,-191"/>
<text text-anchor="middle" x="30.38" y="-177.5" font-family="Helvetica,sans-Serif" font-size="10.00">string.h</text>
</a>
</g>
</g>
<!-- Node3&#45;&gt;Node4 -->
<g id="edge4_Node000003_Node000004" class="edge">
<title>Node3&#45;&gt;Node4</title>
<g id="a_edge4_Node000003_Node000004"><a xlink:title=" ">
<path fill="none" stroke="#63b8ff" d="M135.49,-226.59C115.47,-218.02 86.14,-205.48 63.54,-195.81"/>
<polygon fill="#63b8ff" stroke="#63b8ff" points="65.02,-192.64 54.45,-191.92 62.27,-199.07 65.02,-192.64"/>
</a>
</g>
</g>
<!-- Node5 -->
<g id="Node000005" class="node">
<title>Node5</title>
<g id="a_Node000005"><a xlink:title=" ">
<polygon fill="#e0e0e0" stroke="#999999" points="142.25,-191 74.5,-191 74.5,-170.25 142.25,-170.25 142.25,-191"/>
<text text-anchor="middle" x="108.38" y="-177.5" font-family="Helvetica,sans-Serif" font-size="10.00">cpu_conf.h</text>
</a>
</g>
</g>
<!-- Node3&#45;&gt;Node5 -->
<g id="edge5_Node000003_Node000005" class="edge">
<title>Node3&#45;&gt;Node5</title>
<g id="a_edge5_Node000003_Node000005"><a xlink:title=" ">
<path fill="none" stroke="#63b8ff" d="M149.44,-226.59C142.61,-219.11 133.01,-208.61 124.82,-199.63"/>
<polygon fill="#63b8ff" stroke="#63b8ff" points="127.59,-197.47 118.26,-192.45 122.42,-202.19 127.59,-197.47"/>
</a>
</g>
</g>
<!-- Node6 -->
<g id="Node000006" class="node">
<title>Node6</title>
<g id="a_Node000006"><a xlink:href="kernel__defines_8h.html" target="_top" xlink:title="Common macros and compiler attributes/pragmas configuration.">
<polygon fill="white" stroke="#666666" points="256.5,-191 160.25,-191 160.25,-170.25 256.5,-170.25 256.5,-191"/>
<text text-anchor="middle" x="208.38" y="-177.5" font-family="Helvetica,sans-Serif" font-size="10.00">kernel_defines.h</text>
</a>
</g>
</g>
<!-- Node3&#45;&gt;Node6 -->
<g id="edge6_Node000003_Node000006" class="edge">
<title>Node3&#45;&gt;Node6</title>
<g id="a_edge6_Node000003_Node000006"><a xlink:title=" ">
<path fill="none" stroke="#63b8ff" d="M167.31,-226.59C174.14,-219.11 183.74,-208.61 191.93,-199.63"/>
<polygon fill="#63b8ff" stroke="#63b8ff" points="194.33,-202.19 198.49,-192.45 189.16,-197.47 194.33,-202.19"/>
</a>
</g>
</g>
<!-- Node7 -->
<g id="Node000007" class="node">
<title>Node7</title>
<g id="a_Node000007"><a xlink:href="modules_8h.html" target="_top" xlink:title="Common macros and compiler attributes/pragmas configuration.">
<polygon fill="white" stroke="#666666" points="341.88,-134.25 274.88,-134.25 274.88,-113.5 341.88,-113.5 341.88,-134.25"/>
<text text-anchor="middle" x="308.38" y="-120.75" font-family="Helvetica,sans-Serif" font-size="10.00">modules.h</text>
</a>
</g>
</g>
<!-- Node6&#45;&gt;Node7 -->
<g id="edge7_Node000006_Node000007" class="edge">
<title>Node6&#45;&gt;Node7</title>
<g id="a_edge7_Node000006_Node000007"><a xlink:title=" ">
<path fill="none" stroke="#63b8ff" d="M226.25,-169.84C241.47,-161.51 263.57,-149.41 281.01,-139.86"/>
<polygon fill="#63b8ff" stroke="#63b8ff" points="282.23,-143.18 289.32,-135.31 278.87,-137.04 282.23,-143.18"/>
</a>
</g>
</g>
<!-- Node8 -->
<g id="Node000008" class="node">
<title>Node8</title>
<g id="a_Node000008"><a xlink:href="riot__version_8h.html" target="_top" xlink:title="Common macros and compiler attributes/pragmas configuration.">
<polygon fill="white" stroke="#666666" points="82.75,-77.5 0,-77.5 0,-56.75 82.75,-56.75 82.75,-77.5"/>
<text text-anchor="middle" x="41.38" y="-64" font-family="Helvetica,sans-Serif" font-size="10.00">riot_version.h</text>
</a>
</g>
</g>
<!-- Node6&#45;&gt;Node8 -->
<g id="edge8_Node000006_Node000008" class="edge">
<title>Node6&#45;&gt;Node8</title>
<g id="a_edge8_Node000006_Node000008"><a xlink:title=" ">
<path fill="none" stroke="#63b8ff" d="M159.78,-169.78C122.58,-161.33 75.36,-148.31 61.38,-134.25 49.47,-122.28 44.61,-103.48 42.65,-88.98"/>
<polygon fill="#63b8ff" stroke="#63b8ff" points="46.14,-88.76 41.71,-79.13 39.17,-89.42 46.14,-88.76"/>
</a>
</g>
</g>
<!-- Node10 -->
<g id="Node000010" class="node">
<title>Node10</title>
<g id="a_Node000010"><a xlink:href="compiler__hints_8h.html" target="_top" xlink:title="Common macros and compiler attributes/pragmas configuration.">
<polygon fill="white" stroke="#666666" points="167.88,-134.25 70.88,-134.25 70.88,-113.5 167.88,-113.5 167.88,-134.25"/>
<text text-anchor="middle" x="119.38" y="-120.75" font-family="Helvetica,sans-Serif" font-size="10.00">compiler_hints.h</text>
</a>
</g>
</g>
<!-- Node6&#45;&gt;Node10 -->
<g id="edge10_Node000006_Node000010" class="edge">
<title>Node6&#45;&gt;Node10</title>
<g id="a_edge10_Node000006_Node000010"><a xlink:title=" ">
<path fill="none" stroke="#63b8ff" d="M192.46,-169.84C179.17,-161.66 159.99,-149.86 144.61,-140.4"/>
<polygon fill="#63b8ff" stroke="#63b8ff" points="146.79,-137.63 136.44,-135.37 143.12,-143.59 146.79,-137.63"/>
</a>
</g>
</g>
<!-- Node12 -->
<g id="Node000012" class="node">
<title>Node12</title>
<g id="a_Node000012"><a xlink:href="container_8h.html" target="_top" xlink:title="Common macros and compiler attributes/pragmas configuration.">
<polygon fill="white" stroke="#666666" points="256.75,-134.25 186,-134.25 186,-113.5 256.75,-113.5 256.75,-134.25"/>
<text text-anchor="middle" x="221.38" y="-120.75" font-family="Helvetica,sans-Serif" font-size="10.00">container.h</text>
</a>
</g>
</g>
<!-- Node6&#45;&gt;Node12 -->
<g id="edge14_Node000006_Node000012" class="edge">
<title>Node6&#45;&gt;Node12</title>
<g id="a_edge14_Node000006_Node000012"><a xlink:title=" ">
<path fill="none" stroke="#63b8ff" d="M210.7,-169.84C212.29,-163.14 214.46,-154.01 216.42,-145.73"/>
<polygon fill="#63b8ff" stroke="#63b8ff" points="219.82,-146.59 218.72,-136.05 213.01,-144.97 219.82,-146.59"/>
</a>
</g>
</g>
<!-- Node9 -->
<g id="Node000009" class="node">
<title>Node9</title>
<g id="a_Node000009"><a xlink:title=" ">
<polygon fill="#e0e0e0" stroke="#999999" points="192.75,-20.75 140,-20.75 140,0 192.75,0 192.75,-20.75"/>
<text text-anchor="middle" x="166.38" y="-7.25" font-family="Helvetica,sans-Serif" font-size="10.00">stdint.h</text>
</a>
</g>
</g>
<!-- Node8&#45;&gt;Node9 -->
<g id="edge9_Node000008_Node000009" class="edge">
<title>Node8&#45;&gt;Node9</title>
<g id="a_edge9_Node000008_Node000009"><a xlink:title=" ">
<path fill="none" stroke="#63b8ff" d="M63.72,-56.34C83.19,-47.81 111.66,-35.34 133.68,-25.69"/>
<polygon fill="#63b8ff" stroke="#63b8ff" points="135.08,-28.9 142.83,-21.69 132.27,-22.49 135.08,-28.9"/>
</a>
</g>
</g>
<!-- Node10&#45;&gt;Node9 -->
<g id="edge13_Node000010_Node000009" class="edge">
<title>Node10&#45;&gt;Node9</title>
<g id="a_edge13_Node000010_Node000009"><a xlink:title=" ">
<path fill="none" stroke="#63b8ff" d="M119.27,-113.01C119.47,-99.68 121.1,-75.43 129.38,-56.75 133.81,-46.73 141.08,-37.1 148,-29.31"/>
<polygon fill="#63b8ff" stroke="#63b8ff" points="150.4,-31.87 154.73,-22.2 145.32,-27.05 150.4,-31.87"/>
</a>
</g>
</g>
<!-- Node11 -->
<g id="Node000011" class="node">
<title>Node11</title>
<g id="a_Node000011"><a xlink:href="assert_8h.html" target="_top" xlink:title="POSIX.1&#45;2008 compliant version of the assert macro.">
<polygon fill="white" stroke="#666666" points="193.88,-77.5 138.88,-77.5 138.88,-56.75 193.88,-56.75 193.88,-77.5"/>
<text text-anchor="middle" x="166.38" y="-64" font-family="Helvetica,sans-Serif" font-size="10.00">assert.h</text>
</a>
</g>
</g>
<!-- Node10&#45;&gt;Node11 -->
<g id="edge11_Node000010_Node000011" class="edge">
<title>Node10&#45;&gt;Node11</title>
<g id="a_edge11_Node000010_Node000011"><a xlink:title=" ">
<path fill="none" stroke="#63b8ff" d="M127.78,-113.09C134.13,-105.69 143.03,-95.32 150.68,-86.41"/>
<polygon fill="#63b8ff" stroke="#63b8ff" points="153.2,-88.84 157.06,-78.98 147.89,-84.28 153.2,-88.84"/>
</a>
</g>
</g>
<!-- Node11&#45;&gt;Node9 -->
<g id="edge12_Node000011_Node000009" class="edge">
<title>Node11&#45;&gt;Node9</title>
<g id="a_edge12_Node000011_Node000009"><a xlink:title=" ">
<path fill="none" stroke="#63b8ff" d="M166.38,-56.34C166.38,-49.72 166.38,-40.72 166.38,-32.52"/>
<polygon fill="#63b8ff" stroke="#63b8ff" points="169.88,-32.59 166.38,-22.59 162.88,-32.59 169.88,-32.59"/>
</a>
</g>
</g>
<!-- Node12&#45;&gt;Node9 -->
<g id="edge16_Node000012_Node000009" class="edge">
<title>Node12&#45;&gt;Node9</title>
<g id="a_edge16_Node000012_Node000009"><a xlink:title=" ">
<path fill="none" stroke="#63b8ff" d="M219.79,-113.01C217.37,-99.69 211.99,-75.44 202.38,-56.75 197.35,-46.98 190.06,-37.29 183.35,-29.38"/>
<polygon fill="#63b8ff" stroke="#63b8ff" points="186.18,-27.3 176.92,-22.16 180.95,-31.95 186.18,-27.3"/>
</a>
</g>
</g>
<!-- Node13 -->
<g id="Node000013" class="node">
<title>Node13</title>
<g id="a_Node000013"><a xlink:title=" ">
<polygon fill="#e0e0e0" stroke="#999999" points="305.88,-77.5 250.88,-77.5 250.88,-56.75 305.88,-56.75 305.88,-77.5"/>
<text text-anchor="middle" x="278.38" y="-64" font-family="Helvetica,sans-Serif" font-size="10.00">stddef.h</text>
</a>
</g>
</g>
<!-- Node12&#45;&gt;Node13 -->
<g id="edge15_Node000012_Node000013" class="edge">
<title>Node12&#45;&gt;Node13</title>
<g id="a_edge15_Node000012_Node000013"><a xlink:title=" ">
<path fill="none" stroke="#63b8ff" d="M231.57,-113.09C239.51,-105.46 250.74,-94.67 260.21,-85.57"/>
<polygon fill="#63b8ff" stroke="#63b8ff" points="262.39,-88.33 267.18,-78.88 257.54,-83.28 262.39,-88.33"/>
</a>
</g>
</g>
<!-- Node14&#45;&gt;Node7 -->
<g id="edge19_Node000014_Node000007" class="edge">
<title>Node14&#45;&gt;Node7</title>
<g id="a_edge19_Node000014_Node000007"><a xlink:title=" ">
<path fill="none" stroke="#63b8ff" d="M319.05,-169.84C317.46,-163.14 315.29,-154.01 313.33,-145.73"/>
<polygon fill="#63b8ff" stroke="#63b8ff" points="316.74,-144.97 311.03,-136.05 309.93,-146.59 316.74,-144.97"/>
</a>
</g>
</g>
<!-- Node14&#45;&gt;Node9 -->
<g id="edge18_Node000014_Node000009" class="edge">
<title>Node14&#45;&gt;Node9</title>
<g id="a_edge18_Node000014_Node000009"><a xlink:title=" ">
<path fill="none" stroke="#63b8ff" d="M330.16,-170.05C337.44,-161.42 347.24,-148 351.38,-134.25 362.31,-97.88 345.6,-79.75 315.38,-56.75 282.8,-31.95 236.63,-20.62 204.35,-15.49"/>
<polygon fill="#63b8ff" stroke="#63b8ff" points="205.03,-12.05 194.64,-14.09 204.03,-18.98 205.03,-12.05"/>
</a>
</g>
</g>
</g>
</svg>
