<?xml version="1.0" encoding="UTF-8" standalone="no"?>
<!DOCTYPE svg PUBLIC "-//W3C//DTD SVG 1.1//EN"
 "http://www.w3.org/Graphics/SVG/1.1/DTD/svg11.dtd">
<!-- Generated by graphviz version 12.1.1 (0)
 -->
<!-- Title: sys/include/crypto/aes.h Pages: 1 -->
<svg width="156pt" height="155pt"
 viewBox="0.00 0.00 156.38 155.00" xmlns="http://www.w3.org/2000/svg" xmlns:xlink="http://www.w3.org/1999/xlink">
<g id="graph0" class="graph" transform="scale(1 1) rotate(0) translate(4 151)">
<title>sys/include/crypto/aes.h</title>
<!-- Node1 -->
<g id="Node000001" class="node">
<title>Node1</title>
<g id="a_Node000001"><a xlink:title="Headers for the implementation of the AES cipher&#45;algorithm.">
<polygon fill="#999999" stroke="#666666" points="115.62,-147 11.12,-147 11.12,-113.5 115.62,-113.5 115.62,-147"/>
<text text-anchor="start" x="19.12" y="-133.5" font-family="Helvetica,sans-Serif" font-size="10.00">sys/include/crypto</text>
<text text-anchor="middle" x="63.38" y="-120.75" font-family="Helvetica,sans-Serif" font-size="10.00">/aes.h</text>
</a>
</g>
</g>
<!-- Node2 -->
<g id="Node000002" class="node">
<title>Node2</title>
<g id="a_Node000002"><a xlink:title=" ">
<polygon fill="#e0e0e0" stroke="#999999" points="52.75,-20.75 0,-20.75 0,0 52.75,0 52.75,-20.75"/>
<text text-anchor="middle" x="26.38" y="-7.25" font-family="Helvetica,sans-Serif" font-size="10.00">stdint.h</text>
</a>
</g>
</g>
<!-- Node1&#45;&gt;Node2 -->
<g id="edge1_Node000001_Node000002" class="edge">
<title>Node1&#45;&gt;Node2</title>
<g id="a_edge1_Node000001_Node000002"><a xlink:title=" ">
<path fill="none" stroke="#63b8ff" d="M57.47,-113.01C53.84,-102.85 49.17,-89.47 45.38,-77.5 40.56,-62.32 35.6,-45 31.96,-31.9"/>
<polygon fill="#63b8ff" stroke="#63b8ff" points="35.35,-31.02 29.32,-22.3 28.6,-32.87 35.35,-31.02"/>
</a>
</g>
</g>
<!-- Node3 -->
<g id="Node000003" class="node">
<title>Node3</title>
<g id="a_Node000003"><a xlink:href="ciphers_8h.html" target="_top" xlink:title="Headers for the packet encryption class.">
<polygon fill="white" stroke="#666666" points="148.38,-77.5 54.37,-77.5 54.37,-56.75 148.38,-56.75 148.38,-77.5"/>
<text text-anchor="middle" x="101.38" y="-64" font-family="Helvetica,sans-Serif" font-size="10.00">crypto/ciphers.h</text>
</a>
</g>
</g>
<!-- Node1&#45;&gt;Node3 -->
<g id="edge2_Node000001_Node000003" class="edge">
<title>Node1&#45;&gt;Node3</title>
<g id="a_edge2_Node000001_Node000003"><a xlink:title=" ">
<path fill="none" stroke="#63b8ff" d="M73.36,-113.19C78.24,-105.33 84.17,-95.81 89.3,-87.54"/>
<polygon fill="#63b8ff" stroke="#63b8ff" points="92.15,-89.59 94.46,-79.25 86.21,-85.9 92.15,-89.59"/>
</a>
</g>
</g>
<!-- Node3&#45;&gt;Node2 -->
<g id="edge3_Node000003_Node000002" class="edge">
<title>Node3&#45;&gt;Node2</title>
<g id="a_edge3_Node000003_Node000002"><a xlink:title=" ">
<path fill="none" stroke="#63b8ff" d="M87.97,-56.34C77.09,-48.4 61.52,-37.03 48.76,-27.71"/>
<polygon fill="#63b8ff" stroke="#63b8ff" points="51.03,-25.04 40.89,-21.97 46.9,-30.69 51.03,-25.04"/>
</a>
</g>
</g>
<!-- Node4 -->
<g id="Node000004" class="node">
<title>Node4</title>
<g id="a_Node000004"><a xlink:href="modules_8h.html" target="_top" xlink:title="Common macros and compiler attributes/pragmas configuration.">
<polygon fill="white" stroke="#666666" points="137.88,-20.75 70.88,-20.75 70.88,0 137.88,0 137.88,-20.75"/>
<text text-anchor="middle" x="104.38" y="-7.25" font-family="Helvetica,sans-Serif" font-size="10.00">modules.h</text>
</a>
</g>
</g>
<!-- Node3&#45;&gt;Node4 -->
<g id="edge4_Node000003_Node000004" class="edge">
<title>Node3&#45;&gt;Node4</title>
<g id="a_edge4_Node000003_Node000004"><a xlink:title=" ">
<path fill="none" stroke="#63b8ff" d="M101.91,-56.34C102.27,-49.72 102.77,-40.72 103.22,-32.52"/>
<polygon fill="#63b8ff" stroke="#63b8ff" points="106.71,-32.77 103.76,-22.59 99.72,-32.38 106.71,-32.77"/>
</a>
</g>
</g>
</g>
</svg>
