<?xml version="1.0" encoding="UTF-8" standalone="no"?>
<!DOCTYPE svg PUBLIC "-//W3C//DTD SVG 1.1//EN"
 "http://www.w3.org/Graphics/SVG/1.1/DTD/svg11.dtd">
<!-- Generated by graphviz version 12.1.1 (0)
 -->
<!-- Title: boards/alientek&#45;pandora/include/board.h Pages: 1 -->
<svg width="760pt" height="325pt"
 viewBox="0.00 0.00 760.38 325.25" xmlns="http://www.w3.org/2000/svg" xmlns:xlink="http://www.w3.org/1999/xlink">
<g id="graph0" class="graph" transform="scale(1 1) rotate(0) translate(4 321.25)">
<title>boards/alientek&#45;pandora/include/board.h</title>
<!-- Node1 -->
<g id="Node000001" class="node">
<title>Node1</title>
<g id="a_Node000001"><a xlink:title="Board specific definitions for the Alientek Pandora board.">
<polygon fill="#999999" stroke="#666666" points="135.25,-317.25 0,-317.25 0,-283.75 135.25,-283.75 135.25,-317.25"/>
<text text-anchor="start" x="8" y="-303.75" font-family="Helvetica,sans-Serif" font-size="10.00">boards/alientek&#45;pandora</text>
<text text-anchor="middle" x="67.62" y="-291" font-family="Helvetica,sans-Serif" font-size="10.00">/include/board.h</text>
</a>
</g>
</g>
<!-- Node2 -->
<g id="Node000002" class="node">
<title>Node2</title>
<g id="a_Node000002"><a xlink:title=" ">
<polygon fill="#e0e0e0" stroke="#999999" points="235,-20.75 182.25,-20.75 182.25,0 235,0 235,-20.75"/>
<text text-anchor="middle" x="208.62" y="-7.25" font-family="Helvetica,sans-Serif" font-size="10.00">stdint.h</text>
</a>
</g>
</g>
<!-- Node1&#45;&gt;Node2 -->
<g id="edge1_Node000001_Node000002" class="edge">
<title>Node1&#45;&gt;Node2</title>
<g id="a_edge1_Node000001_Node000002"><a xlink:title=" ">
<path fill="none" stroke="#63b8ff" d="M51.65,-283.53C32.12,-262.22 1.62,-222.43 1.62,-181.62 1.62,-181.62 1.62,-181.62 1.62,-122.88 1.62,-46.91 111.01,-22.47 170.75,-14.78"/>
<polygon fill="#63b8ff" stroke="#63b8ff" points="170.96,-18.28 180.48,-13.64 170.14,-11.33 170.96,-18.28"/>
</a>
</g>
</g>
<!-- Node3 -->
<g id="Node000003" class="node">
<title>Node3</title>
<g id="a_Node000003"><a xlink:title=" ">
<polygon fill="#e0e0e0" stroke="#999999" points="88.75,-247.75 46.5,-247.75 46.5,-227 88.75,-227 88.75,-247.75"/>
<text text-anchor="middle" x="67.62" y="-234.25" font-family="Helvetica,sans-Serif" font-size="10.00">cpu.h</text>
</a>
</g>
</g>
<!-- Node1&#45;&gt;Node3 -->
<g id="edge2_Node000001_Node000003" class="edge">
<title>Node1&#45;&gt;Node3</title>
<g id="a_edge2_Node000001_Node000003"><a xlink:title=" ">
<path fill="none" stroke="#63b8ff" d="M67.62,-283.44C67.62,-276.1 67.62,-267.32 67.62,-259.46"/>
<polygon fill="#63b8ff" stroke="#63b8ff" points="71.13,-259.73 67.63,-249.73 64.13,-259.73 71.13,-259.73"/>
</a>
</g>
</g>
<!-- Node4 -->
<g id="Node000004" class="node">
<title>Node4</title>
<g id="a_Node000004"><a xlink:href="stm32__leds_8h.html" target="_top" xlink:title="Common LED macros.">
<polygon fill="white" stroke="#666666" points="257.25,-247.75 176,-247.75 176,-227 257.25,-227 257.25,-247.75"/>
<text text-anchor="middle" x="216.62" y="-234.25" font-family="Helvetica,sans-Serif" font-size="10.00">stm32_leds.h</text>
</a>
</g>
</g>
<!-- Node1&#45;&gt;Node4 -->
<g id="edge3_Node000001_Node000004" class="edge">
<title>Node1&#45;&gt;Node4</title>
<g id="a_edge3_Node000001_Node000004"><a xlink:title=" ">
<path fill="none" stroke="#63b8ff" d="M107.16,-283.28C130.58,-273.68 159.95,-261.63 182.37,-252.43"/>
<polygon fill="#63b8ff" stroke="#63b8ff" points="183.44,-255.77 191.36,-248.74 180.78,-249.3 183.44,-255.77"/>
</a>
</g>
</g>
<!-- Node5 -->
<g id="Node000005" class="node">
<title>Node5</title>
<g id="a_Node000005"><a xlink:href="gpio__ll_8h.html" target="_top" xlink:title="Peripheral GPIO Low&#45;Level API.">
<polygon fill="white" stroke="#666666" points="514.12,-134.25 423.12,-134.25 423.12,-113.5 514.12,-113.5 514.12,-134.25"/>
<text text-anchor="middle" x="468.62" y="-120.75" font-family="Helvetica,sans-Serif" font-size="10.00">periph/gpio_ll.h</text>
</a>
</g>
</g>
<!-- Node4&#45;&gt;Node5 -->
<g id="edge4_Node000004_Node000005" class="edge">
<title>Node4&#45;&gt;Node5</title>
<g id="a_edge4_Node000004_Node000005"><a xlink:title=" ">
<path fill="none" stroke="#63b8ff" d="M238.55,-226.68C283.04,-206.99 384.13,-162.26 436.24,-139.21"/>
<polygon fill="#63b8ff" stroke="#63b8ff" points="437.46,-142.49 445.19,-135.24 434.63,-136.09 437.46,-142.49"/>
</a>
</g>
</g>
<!-- Node16 -->
<g id="Node000016" class="node">
<title>Node16</title>
<g id="a_Node000016"><a xlink:href="kernel__defines_8h.html" target="_top" xlink:title="Common macros and compiler attributes/pragmas configuration.">
<polygon fill="white" stroke="#666666" points="264.75,-191 168.5,-191 168.5,-170.25 264.75,-170.25 264.75,-191"/>
<text text-anchor="middle" x="216.62" y="-177.5" font-family="Helvetica,sans-Serif" font-size="10.00">kernel_defines.h</text>
</a>
</g>
</g>
<!-- Node4&#45;&gt;Node16 -->
<g id="edge20_Node000004_Node000016" class="edge">
<title>Node4&#45;&gt;Node16</title>
<g id="a_edge20_Node000004_Node000016"><a xlink:title=" ">
<path fill="none" stroke="#63b8ff" d="M216.62,-226.59C216.62,-219.97 216.62,-210.97 216.62,-202.77"/>
<polygon fill="#63b8ff" stroke="#63b8ff" points="220.13,-202.84 216.63,-192.84 213.13,-202.84 220.13,-202.84"/>
</a>
</g>
</g>
<!-- Node5&#45;&gt;Node2 -->
<g id="edge8_Node000005_Node000002" class="edge">
<title>Node5&#45;&gt;Node2</title>
<g id="a_edge8_Node000005_Node000002"><a xlink:title=" ">
<path fill="none" stroke="#63b8ff" d="M437.84,-113.05C412.24,-104.56 375.05,-91.48 343.62,-77.5 325.69,-69.52 322.17,-65.56 304.62,-56.75 283.42,-46.1 259.26,-34.69 240.49,-25.97"/>
<polygon fill="#63b8ff" stroke="#63b8ff" points="242.04,-22.83 231.49,-21.81 239.1,-29.19 242.04,-22.83"/>
</a>
</g>
</g>
<!-- Node6 -->
<g id="Node000006" class="node">
<title>Node6</title>
<g id="a_Node000006"><a xlink:href="assert_8h.html" target="_top" xlink:title="POSIX.1&#45;2008 compliant version of the assert macro.">
<polygon fill="white" stroke="#666666" points="295.12,-77.5 240.12,-77.5 240.12,-56.75 295.12,-56.75 295.12,-77.5"/>
<text text-anchor="middle" x="267.62" y="-64" font-family="Helvetica,sans-Serif" font-size="10.00">assert.h</text>
</a>
</g>
</g>
<!-- Node5&#45;&gt;Node6 -->
<g id="edge5_Node000005_Node000006" class="edge">
<title>Node5&#45;&gt;Node6</title>
<g id="a_edge5_Node000005_Node000006"><a xlink:title=" ">
<path fill="none" stroke="#63b8ff" d="M432.69,-113.09C397.08,-103.39 342.71,-88.58 306.2,-78.63"/>
<polygon fill="#63b8ff" stroke="#63b8ff" points="307.52,-75.36 296.95,-76.11 305.68,-82.12 307.52,-75.36"/>
</a>
</g>
</g>
<!-- Node7 -->
<g id="Node000007" class="node">
<title>Node7</title>
<g id="a_Node000007"><a xlink:title=" ">
<polygon fill="#e0e0e0" stroke="#999999" points="413.12,-77.5 352.12,-77.5 352.12,-56.75 413.12,-56.75 413.12,-77.5"/>
<text text-anchor="middle" x="382.62" y="-64" font-family="Helvetica,sans-Serif" font-size="10.00">stdbool.h</text>
</a>
</g>
</g>
<!-- Node5&#45;&gt;Node7 -->
<g id="edge7_Node000005_Node000007" class="edge">
<title>Node5&#45;&gt;Node7</title>
<g id="a_edge7_Node000005_Node000007"><a xlink:title=" ">
<path fill="none" stroke="#63b8ff" d="M453.25,-113.09C440.53,-104.99 422.22,-93.33 407.43,-83.92"/>
<polygon fill="#63b8ff" stroke="#63b8ff" points="409.46,-81.06 399.14,-78.64 405.7,-86.96 409.46,-81.06"/>
</a>
</g>
</g>
<!-- Node8 -->
<g id="Node000008" class="node">
<title>Node8</title>
<g id="a_Node000008"><a xlink:href="architecture_8h.html" target="_top" xlink:title="Platform&#45;independent access to architecture details.">
<polygon fill="white" stroke="#666666" points="514.38,-77.5 430.88,-77.5 430.88,-56.75 514.38,-56.75 514.38,-77.5"/>
<text text-anchor="middle" x="472.62" y="-64" font-family="Helvetica,sans-Serif" font-size="10.00">architecture.h</text>
</a>
</g>
</g>
<!-- Node5&#45;&gt;Node8 -->
<g id="edge9_Node000005_Node000008" class="edge">
<title>Node5&#45;&gt;Node8</title>
<g id="a_edge9_Node000005_Node000008"><a xlink:title=" ">
<path fill="none" stroke="#63b8ff" d="M469.34,-113.09C469.82,-106.47 470.48,-97.47 471.08,-89.27"/>
<polygon fill="#63b8ff" stroke="#63b8ff" points="474.57,-89.57 471.81,-79.34 467.59,-89.06 474.57,-89.57"/>
</a>
</g>
</g>
<!-- Node12 -->
<g id="Node000012" class="node">
<title>Node12</title>
<g id="a_Node000012"><a xlink:href="drivers_2include_2periph_2gpio_8h.html" target="_top" xlink:title="Low&#45;level GPIO peripheral driver interface definitions.">
<polygon fill="white" stroke="#666666" points="612.5,-77.5 532.75,-77.5 532.75,-56.75 612.5,-56.75 612.5,-77.5"/>
<text text-anchor="middle" x="572.62" y="-64" font-family="Helvetica,sans-Serif" font-size="10.00">periph/gpio.h</text>
</a>
</g>
</g>
<!-- Node5&#45;&gt;Node12 -->
<g id="edge14_Node000005_Node000012" class="edge">
<title>Node5&#45;&gt;Node12</title>
<g id="a_edge14_Node000005_Node000012"><a xlink:title=" ">
<path fill="none" stroke="#63b8ff" d="M487.22,-113.09C503.04,-104.76 526.02,-92.66 544.16,-83.11"/>
<polygon fill="#63b8ff" stroke="#63b8ff" points="545.64,-86.29 552.85,-78.53 542.37,-80.09 545.64,-86.29"/>
</a>
</g>
</g>
<!-- Node13 -->
<g id="Node000013" class="node">
<title>Node13</title>
<g id="a_Node000013"><a xlink:title=" ">
<polygon fill="#e0e0e0" stroke="#999999" points="711.75,-20.75 633.5,-20.75 633.5,0 711.75,0 711.75,-20.75"/>
<text text-anchor="middle" x="672.62" y="-7.25" font-family="Helvetica,sans-Serif" font-size="10.00">periph_cpu.h</text>
</a>
</g>
</g>
<!-- Node5&#45;&gt;Node13 -->
<g id="edge18_Node000005_Node000013" class="edge">
<title>Node5&#45;&gt;Node13</title>
<g id="a_edge18_Node000005_Node000013"><a xlink:title=" ">
<path fill="none" stroke="#63b8ff" d="M514.35,-116.94C546.57,-111.03 589.52,-99.51 621.62,-77.5 639.14,-65.49 653.3,-45.58 662.22,-30.74"/>
<polygon fill="#63b8ff" stroke="#63b8ff" points="665.1,-32.75 667.01,-22.33 659.02,-29.29 665.1,-32.75"/>
</a>
</g>
</g>
<!-- Node15 -->
<g id="Node000015" class="node">
<title>Node15</title>
<g id="a_Node000015"><a xlink:title=" ">
<polygon fill="#e0e0e0" stroke="#999999" points="752.38,-77.5 668.88,-77.5 668.88,-56.75 752.38,-56.75 752.38,-77.5"/>
<text text-anchor="middle" x="710.62" y="-64" font-family="Helvetica,sans-Serif" font-size="10.00">gpio_ll_arch.h</text>
</a>
</g>
</g>
<!-- Node5&#45;&gt;Node15 -->
<g id="edge19_Node000005_Node000015" class="edge">
<title>Node5&#45;&gt;Node15</title>
<g id="a_edge19_Node000005_Node000015"><a xlink:title=" ">
<path fill="none" stroke="#63b8ff" d="M512.17,-113.02C552.98,-103.79 614.07,-89.97 657.68,-80.1"/>
<polygon fill="#63b8ff" stroke="#63b8ff" points="658.19,-83.58 667.17,-77.96 656.64,-76.75 658.19,-83.58"/>
</a>
</g>
</g>
<!-- Node6&#45;&gt;Node2 -->
<g id="edge6_Node000006_Node000002" class="edge">
<title>Node6&#45;&gt;Node2</title>
<g id="a_edge6_Node000006_Node000002"><a xlink:title=" ">
<path fill="none" stroke="#63b8ff" d="M257.08,-56.34C248.85,-48.71 237.23,-37.92 227.42,-28.82"/>
<polygon fill="#63b8ff" stroke="#63b8ff" points="229.9,-26.34 220.19,-22.11 225.14,-31.48 229.9,-26.34"/>
</a>
</g>
</g>
<!-- Node8&#45;&gt;Node2 -->
<g id="edge10_Node000008_Node000002" class="edge">
<title>Node8&#45;&gt;Node2</title>
<g id="a_edge10_Node000008_Node000002"><a xlink:title=" ">
<path fill="none" stroke="#63b8ff" d="M430.83,-58.11C379.35,-48.19 293.78,-31.53 246.26,-20.99"/>
<polygon fill="#63b8ff" stroke="#63b8ff" points="247.32,-17.64 236.79,-18.85 245.78,-24.47 247.32,-17.64"/>
</a>
</g>
</g>
<!-- Node9 -->
<g id="Node000009" class="node">
<title>Node9</title>
<g id="a_Node000009"><a xlink:href="inttypes_8h.html" target="_top" xlink:title="Adds include for missing inttype definitions.">
<polygon fill="white" stroke="#666666" points="318,-20.75 253.25,-20.75 253.25,0 318,0 318,-20.75"/>
<text text-anchor="middle" x="285.62" y="-7.25" font-family="Helvetica,sans-Serif" font-size="10.00">inttypes.h</text>
</a>
</g>
</g>
<!-- Node8&#45;&gt;Node9 -->
<g id="edge11_Node000008_Node000009" class="edge">
<title>Node8&#45;&gt;Node9</title>
<g id="a_edge11_Node000008_Node000009"><a xlink:title=" ">
<path fill="none" stroke="#63b8ff" d="M439.19,-56.34C408.52,-47.36 362.88,-34 329.33,-24.17"/>
<polygon fill="#63b8ff" stroke="#63b8ff" points="330.49,-20.86 319.91,-21.41 328.52,-27.58 330.49,-20.86"/>
</a>
</g>
</g>
<!-- Node10 -->
<g id="Node000010" class="node">
<title>Node10</title>
<g id="a_Node000010"><a xlink:title=" ">
<polygon fill="#e0e0e0" stroke="#999999" points="516,-20.75 463.25,-20.75 463.25,0 516,0 516,-20.75"/>
<text text-anchor="middle" x="489.62" y="-7.25" font-family="Helvetica,sans-Serif" font-size="10.00">limits.h</text>
</a>
</g>
</g>
<!-- Node8&#45;&gt;Node10 -->
<g id="edge12_Node000008_Node000010" class="edge">
<title>Node8&#45;&gt;Node10</title>
<g id="a_edge12_Node000008_Node000010"><a xlink:title=" ">
<path fill="none" stroke="#63b8ff" d="M475.66,-56.34C477.77,-49.56 480.64,-40.3 483.24,-31.94"/>
<polygon fill="#63b8ff" stroke="#63b8ff" points="486.54,-33.11 486.16,-22.52 479.86,-31.04 486.54,-33.11"/>
</a>
</g>
</g>
<!-- Node11 -->
<g id="Node000011" class="node">
<title>Node11</title>
<g id="a_Node000011"><a xlink:title=" ">
<polygon fill="#e0e0e0" stroke="#999999" points="445.5,-20.75 335.75,-20.75 335.75,0 445.5,0 445.5,-20.75"/>
<text text-anchor="middle" x="390.62" y="-7.25" font-family="Helvetica,sans-Serif" font-size="10.00">architecture_arch.h</text>
</a>
</g>
</g>
<!-- Node8&#45;&gt;Node11 -->
<g id="edge13_Node000008_Node000011" class="edge">
<title>Node8&#45;&gt;Node11</title>
<g id="a_edge13_Node000008_Node000011"><a xlink:title=" ">
<path fill="none" stroke="#63b8ff" d="M457.97,-56.34C445.95,-48.32 428.71,-36.81 414.69,-27.44"/>
<polygon fill="#63b8ff" stroke="#63b8ff" points="416.68,-24.56 406.42,-21.92 412.79,-30.38 416.68,-24.56"/>
</a>
</g>
</g>
<!-- Node12&#45;&gt;Node10 -->
<g id="edge15_Node000012_Node000010" class="edge">
<title>Node12&#45;&gt;Node10</title>
<g id="a_edge15_Node000012_Node000010"><a xlink:title=" ">
<path fill="none" stroke="#63b8ff" d="M557.79,-56.34C545.51,-48.24 527.84,-36.58 513.57,-27.17"/>
<polygon fill="#63b8ff" stroke="#63b8ff" points="515.87,-24.5 505.6,-21.91 512.02,-30.34 515.87,-24.5"/>
</a>
</g>
</g>
<!-- Node12&#45;&gt;Node13 -->
<g id="edge16_Node000012_Node000013" class="edge">
<title>Node12&#45;&gt;Node13</title>
<g id="a_edge16_Node000012_Node000013"><a xlink:title=" ">
<path fill="none" stroke="#63b8ff" d="M590.5,-56.34C605.72,-48.01 627.82,-35.91 645.26,-26.36"/>
<polygon fill="#63b8ff" stroke="#63b8ff" points="646.48,-29.68 653.57,-21.81 643.12,-23.54 646.48,-29.68"/>
</a>
</g>
</g>
<!-- Node14 -->
<g id="Node000014" class="node">
<title>Node14</title>
<g id="a_Node000014"><a xlink:title=" ">
<polygon fill="#e0e0e0" stroke="#999999" points="615.25,-20.75 534,-20.75 534,0 615.25,0 615.25,-20.75"/>
<text text-anchor="middle" x="574.62" y="-7.25" font-family="Helvetica,sans-Serif" font-size="10.00">periph_conf.h</text>
</a>
</g>
</g>
<!-- Node12&#45;&gt;Node14 -->
<g id="edge17_Node000012_Node000014" class="edge">
<title>Node12&#45;&gt;Node14</title>
<g id="a_edge17_Node000012_Node000014"><a xlink:title=" ">
<path fill="none" stroke="#63b8ff" d="M572.98,-56.34C573.22,-49.72 573.55,-40.72 573.85,-32.52"/>
<polygon fill="#63b8ff" stroke="#63b8ff" points="577.35,-32.71 574.22,-22.59 570.35,-32.46 577.35,-32.71"/>
</a>
</g>
</g>
<!-- Node17 -->
<g id="Node000017" class="node">
<title>Node17</title>
<g id="a_Node000017"><a xlink:href="modules_8h.html" target="_top" xlink:title="Common macros and compiler attributes/pragmas configuration.">
<polygon fill="white" stroke="#666666" points="401.12,-134.25 334.12,-134.25 334.12,-113.5 401.12,-113.5 401.12,-134.25"/>
<text text-anchor="middle" x="367.62" y="-120.75" font-family="Helvetica,sans-Serif" font-size="10.00">modules.h</text>
</a>
</g>
</g>
<!-- Node16&#45;&gt;Node17 -->
<g id="edge21_Node000016_Node000017" class="edge">
<title>Node16&#45;&gt;Node17</title>
<g id="a_edge21_Node000016_Node000017"><a xlink:title=" ">
<path fill="none" stroke="#63b8ff" d="M243.62,-169.84C267.7,-161.11 303.2,-148.23 330.05,-138.5"/>
<polygon fill="#63b8ff" stroke="#63b8ff" points="330.98,-141.89 339.19,-135.19 328.59,-135.3 330.98,-141.89"/>
</a>
</g>
</g>
<!-- Node18 -->
<g id="Node000018" class="node">
<title>Node18</title>
<g id="a_Node000018"><a xlink:href="riot__version_8h.html" target="_top" xlink:title="Common macros and compiler attributes/pragmas configuration.">
<polygon fill="white" stroke="#666666" points="112,-134.25 29.25,-134.25 29.25,-113.5 112,-113.5 112,-134.25"/>
<text text-anchor="middle" x="70.62" y="-120.75" font-family="Helvetica,sans-Serif" font-size="10.00">riot_version.h</text>
</a>
</g>
</g>
<!-- Node16&#45;&gt;Node18 -->
<g id="edge22_Node000016_Node000018" class="edge">
<title>Node16&#45;&gt;Node18</title>
<g id="a_edge22_Node000016_Node000018"><a xlink:title=" ">
<path fill="none" stroke="#63b8ff" d="M190.52,-169.84C167.27,-161.12 133.01,-148.27 107.06,-138.54"/>
<polygon fill="#63b8ff" stroke="#63b8ff" points="108.51,-135.34 97.92,-135.11 106.05,-141.9 108.51,-135.34"/>
</a>
</g>
</g>
<!-- Node19 -->
<g id="Node000019" class="node">
<title>Node19</title>
<g id="a_Node000019"><a xlink:href="compiler__hints_8h.html" target="_top" xlink:title="Common macros and compiler attributes/pragmas configuration.">
<polygon fill="white" stroke="#666666" points="316.12,-134.25 219.12,-134.25 219.12,-113.5 316.12,-113.5 316.12,-134.25"/>
<text text-anchor="middle" x="267.62" y="-120.75" font-family="Helvetica,sans-Serif" font-size="10.00">compiler_hints.h</text>
</a>
</g>
</g>
<!-- Node16&#45;&gt;Node19 -->
<g id="edge24_Node000016_Node000019" class="edge">
<title>Node16&#45;&gt;Node19</title>
<g id="a_edge24_Node000016_Node000019"><a xlink:title=" ">
<path fill="none" stroke="#63b8ff" d="M225.74,-169.84C232.71,-162.36 242.49,-151.86 250.86,-142.88"/>
<polygon fill="#63b8ff" stroke="#63b8ff" points="253.3,-145.39 257.55,-135.69 248.18,-140.62 253.3,-145.39"/>
</a>
</g>
</g>
<!-- Node20 -->
<g id="Node000020" class="node">
<title>Node20</title>
<g id="a_Node000020"><a xlink:href="container_8h.html" target="_top" xlink:title="Common macros and compiler attributes/pragmas configuration.">
<polygon fill="white" stroke="#666666" points="201,-134.25 130.25,-134.25 130.25,-113.5 201,-113.5 201,-134.25"/>
<text text-anchor="middle" x="165.62" y="-120.75" font-family="Helvetica,sans-Serif" font-size="10.00">container.h</text>
</a>
</g>
</g>
<!-- Node16&#45;&gt;Node20 -->
<g id="edge27_Node000016_Node000020" class="edge">
<title>Node16&#45;&gt;Node20</title>
<g id="a_edge27_Node000016_Node000020"><a xlink:title=" ">
<path fill="none" stroke="#63b8ff" d="M207.51,-169.84C200.54,-162.36 190.76,-151.86 182.39,-142.88"/>
<polygon fill="#63b8ff" stroke="#63b8ff" points="185.07,-140.62 175.7,-135.69 179.95,-145.39 185.07,-140.62"/>
</a>
</g>
</g>
<!-- Node18&#45;&gt;Node2 -->
<g id="edge23_Node000018_Node000002" class="edge">
<title>Node18&#45;&gt;Node2</title>
<g id="a_edge23_Node000018_Node000002"><a xlink:title=" ">
<path fill="none" stroke="#63b8ff" d="M69.23,-113.11C67.78,-99.01 67.32,-72.87 80.62,-56.75 102.69,-30.02 141.61,-19.03 170.76,-14.51"/>
<polygon fill="#63b8ff" stroke="#63b8ff" points="170.85,-18.03 180.29,-13.24 169.92,-11.1 170.85,-18.03"/>
</a>
</g>
</g>
<!-- Node19&#45;&gt;Node2 -->
<g id="edge26_Node000019_Node000002" class="edge">
<title>Node19&#45;&gt;Node2</title>
<g id="a_edge26_Node000019_Node000002"><a xlink:title=" ">
<path fill="none" stroke="#63b8ff" d="M258.27,-113.13C250.3,-104.38 238.99,-90.89 231.62,-77.5 223.73,-63.15 217.78,-45.58 213.91,-32.17"/>
<polygon fill="#63b8ff" stroke="#63b8ff" points="217.33,-31.42 211.34,-22.68 210.57,-33.25 217.33,-31.42"/>
</a>
</g>
</g>
<!-- Node19&#45;&gt;Node6 -->
<g id="edge25_Node000019_Node000006" class="edge">
<title>Node19&#45;&gt;Node6</title>
<g id="a_edge25_Node000019_Node000006"><a xlink:title=" ">
<path fill="none" stroke="#63b8ff" d="M267.62,-113.09C267.62,-106.47 267.62,-97.47 267.62,-89.27"/>
<polygon fill="#63b8ff" stroke="#63b8ff" points="271.13,-89.34 267.63,-79.34 264.13,-89.34 271.13,-89.34"/>
</a>
</g>
</g>
<!-- Node20&#45;&gt;Node2 -->
<g id="edge29_Node000020_Node000002" class="edge">
<title>Node20&#45;&gt;Node2</title>
<g id="a_edge29_Node000020_Node000002"><a xlink:title=" ">
<path fill="none" stroke="#63b8ff" d="M169.29,-113.37C176.24,-95.36 191.46,-55.89 200.8,-31.68"/>
<polygon fill="#63b8ff" stroke="#63b8ff" points="203.97,-33.18 204.3,-22.59 197.44,-30.66 203.97,-33.18"/>
</a>
</g>
</g>
<!-- Node21 -->
<g id="Node000021" class="node">
<title>Node21</title>
<g id="a_Node000021"><a xlink:title=" ">
<polygon fill="#e0e0e0" stroke="#999999" points="145.12,-77.5 90.12,-77.5 90.12,-56.75 145.12,-56.75 145.12,-77.5"/>
<text text-anchor="middle" x="117.62" y="-64" font-family="Helvetica,sans-Serif" font-size="10.00">stddef.h</text>
</a>
</g>
</g>
<!-- Node20&#45;&gt;Node21 -->
<g id="edge28_Node000020_Node000021" class="edge">
<title>Node20&#45;&gt;Node21</title>
<g id="a_edge28_Node000020_Node000021"><a xlink:title=" ">
<path fill="none" stroke="#63b8ff" d="M157.04,-113.09C150.56,-105.69 141.47,-95.32 133.65,-86.41"/>
<polygon fill="#63b8ff" stroke="#63b8ff" points="136.35,-84.18 127.13,-78.97 131.09,-88.79 136.35,-84.18"/>
</a>
</g>
</g>
</g>
</svg>
