<?xml version="1.0" encoding="UTF-8" standalone="no"?>
<!DOCTYPE svg PUBLIC "-//W3C//DTD SVG 1.1//EN"
 "http://www.w3.org/Graphics/SVG/1.1/DTD/svg11.dtd">
<!-- Generated by graphviz version 12.1.1 (0)
 -->
<!-- Title: sys/include/analog_util.h Pages: 1 -->
<svg width="328pt" height="155pt"
 viewBox="0.00 0.00 328.00 155.00" xmlns="http://www.w3.org/2000/svg" xmlns:xlink="http://www.w3.org/1999/xlink">
<g id="graph0" class="graph" transform="scale(1 1) rotate(0) translate(4 151)">
<title>sys/include/analog_util.h</title>
<!-- Node1 -->
<g id="Node000001" class="node">
<title>Node1</title>
<g id="a_Node000001"><a xlink:title="Analog utility function interfaces.">
<polygon fill="#999999" stroke="#666666" points="115.75,-147 9,-147 9,-113.5 115.75,-113.5 115.75,-147"/>
<text text-anchor="start" x="17" y="-133.5" font-family="Helvetica,sans-Serif" font-size="10.00">sys/include/analog</text>
<text text-anchor="middle" x="62.38" y="-120.75" font-family="Helvetica,sans-Serif" font-size="10.00">_util.h</text>
</a>
</g>
</g>
<!-- Node2 -->
<g id="Node000002" class="node">
<title>Node2</title>
<g id="a_Node000002"><a xlink:title=" ">
<polygon fill="#e0e0e0" stroke="#999999" points="52.75,-20.75 0,-20.75 0,0 52.75,0 52.75,-20.75"/>
<text text-anchor="middle" x="26.38" y="-7.25" font-family="Helvetica,sans-Serif" font-size="10.00">stdint.h</text>
</a>
</g>
</g>
<!-- Node1&#45;&gt;Node2 -->
<g id="edge1_Node000001_Node000002" class="edge">
<title>Node1&#45;&gt;Node2</title>
<g id="a_edge1_Node000001_Node000002"><a xlink:title=" ">
<path fill="none" stroke="#63b8ff" d="M57.52,-113.35C51.11,-92.37 39.81,-55.37 32.73,-32.18"/>
<polygon fill="#63b8ff" stroke="#63b8ff" points="36.08,-31.17 29.81,-22.63 29.39,-33.22 36.08,-31.17"/>
</a>
</g>
</g>
<!-- Node3 -->
<g id="Node000003" class="node">
<title>Node3</title>
<g id="a_Node000003"><a xlink:href="adc_8h.html" target="_top" xlink:title="Low&#45;level ADC peripheral driver interface definitions.">
<polygon fill="white" stroke="#666666" points="135.38,-77.5 59.38,-77.5 59.38,-56.75 135.38,-56.75 135.38,-77.5"/>
<text text-anchor="middle" x="97.38" y="-64" font-family="Helvetica,sans-Serif" font-size="10.00">periph/adc.h</text>
</a>
</g>
</g>
<!-- Node1&#45;&gt;Node3 -->
<g id="edge2_Node000001_Node000003" class="edge">
<title>Node1&#45;&gt;Node3</title>
<g id="a_edge2_Node000001_Node000003"><a xlink:title=" ">
<path fill="none" stroke="#63b8ff" d="M71.57,-113.19C76.02,-105.42 81.4,-96.02 86.1,-87.82"/>
<polygon fill="#63b8ff" stroke="#63b8ff" points="89.06,-89.7 90.99,-79.28 82.98,-86.22 89.06,-89.7"/>
</a>
</g>
</g>
<!-- Node3&#45;&gt;Node2 -->
<g id="edge4_Node000003_Node000002" class="edge">
<title>Node3&#45;&gt;Node2</title>
<g id="a_edge4_Node000003_Node000002"><a xlink:title=" ">
<path fill="none" stroke="#63b8ff" d="M84.68,-56.34C74.48,-48.47 59.93,-37.25 47.92,-27.99"/>
<polygon fill="#63b8ff" stroke="#63b8ff" points="50.21,-25.34 40.16,-22 45.94,-30.88 50.21,-25.34"/>
</a>
</g>
</g>
<!-- Node4 -->
<g id="Node000004" class="node">
<title>Node4</title>
<g id="a_Node000004"><a xlink:title=" ">
<polygon fill="#e0e0e0" stroke="#999999" points="123.75,-20.75 71,-20.75 71,0 123.75,0 123.75,-20.75"/>
<text text-anchor="middle" x="97.38" y="-7.25" font-family="Helvetica,sans-Serif" font-size="10.00">limits.h</text>
</a>
</g>
</g>
<!-- Node3&#45;&gt;Node4 -->
<g id="edge3_Node000003_Node000004" class="edge">
<title>Node3&#45;&gt;Node4</title>
<g id="a_edge3_Node000003_Node000004"><a xlink:title=" ">
<path fill="none" stroke="#63b8ff" d="M97.38,-56.34C97.38,-49.72 97.38,-40.72 97.38,-32.52"/>
<polygon fill="#63b8ff" stroke="#63b8ff" points="100.88,-32.59 97.38,-22.59 93.88,-32.59 100.88,-32.59"/>
</a>
</g>
</g>
<!-- Node5 -->
<g id="Node000005" class="node">
<title>Node5</title>
<g id="a_Node000005"><a xlink:title=" ">
<polygon fill="#e0e0e0" stroke="#999999" points="220.5,-20.75 142.25,-20.75 142.25,0 220.5,0 220.5,-20.75"/>
<text text-anchor="middle" x="181.38" y="-7.25" font-family="Helvetica,sans-Serif" font-size="10.00">periph_cpu.h</text>
</a>
</g>
</g>
<!-- Node3&#45;&gt;Node5 -->
<g id="edge5_Node000003_Node000005" class="edge">
<title>Node3&#45;&gt;Node5</title>
<g id="a_edge5_Node000003_Node000005"><a xlink:title=" ">
<path fill="none" stroke="#63b8ff" d="M112.39,-56.34C124.82,-48.24 142.7,-36.58 157.15,-27.17"/>
<polygon fill="#63b8ff" stroke="#63b8ff" points="158.75,-30.3 165.22,-21.9 154.93,-24.43 158.75,-30.3"/>
</a>
</g>
</g>
<!-- Node6 -->
<g id="Node000006" class="node">
<title>Node6</title>
<g id="a_Node000006"><a xlink:title=" ">
<polygon fill="#e0e0e0" stroke="#999999" points="320,-20.75 238.75,-20.75 238.75,0 320,0 320,-20.75"/>
<text text-anchor="middle" x="279.38" y="-7.25" font-family="Helvetica,sans-Serif" font-size="10.00">periph_conf.h</text>
</a>
</g>
</g>
<!-- Node3&#45;&gt;Node6 -->
<g id="edge6_Node000003_Node000006" class="edge">
<title>Node3&#45;&gt;Node6</title>
<g id="a_edge6_Node000003_Node000006"><a xlink:title=" ">
<path fill="none" stroke="#63b8ff" d="M129.91,-56.34C159.46,-47.45 203.25,-34.27 235.81,-24.48"/>
<polygon fill="#63b8ff" stroke="#63b8ff" points="236.8,-27.84 245.36,-21.61 234.78,-21.14 236.8,-27.84"/>
</a>
</g>
</g>
</g>
</svg>
