<?xml version="1.0" encoding="UTF-8" standalone="no"?>
<!DOCTYPE svg PUBLIC "-//W3C//DTD SVG 1.1//EN"
 "http://www.w3.org/Graphics/SVG/1.1/DTD/svg11.dtd">
<!-- Generated by graphviz version 12.1.1 (0)
 -->
<!-- Title: drivers/apds99xx/include/apds99xx_params.h Pages: 1 -->
<svg width="575pt" height="212pt"
 viewBox="0.00 0.00 575.38 211.75" xmlns="http://www.w3.org/2000/svg" xmlns:xlink="http://www.w3.org/1999/xlink">
<g id="graph0" class="graph" transform="scale(1 1) rotate(0) translate(4 207.75)">
<title>drivers/apds99xx/include/apds99xx_params.h</title>
<!-- Node1 -->
<g id="Node000001" class="node">
<title>Node1</title>
<g id="a_Node000001"><a xlink:title="Default configuration for Broadcom APDS99XX proximity and ambient light sensor.">
<polygon fill="#999999" stroke="#666666" points="285.75,-203.75 147.5,-203.75 147.5,-170.25 285.75,-170.25 285.75,-203.75"/>
<text text-anchor="start" x="155.5" y="-190.25" font-family="Helvetica,sans-Serif" font-size="10.00">drivers/apds99xx/include</text>
<text text-anchor="middle" x="216.62" y="-177.5" font-family="Helvetica,sans-Serif" font-size="10.00">/apds99xx_params.h</text>
</a>
</g>
</g>
<!-- Node2 -->
<g id="Node000002" class="node">
<title>Node2</title>
<g id="a_Node000002"><a xlink:title=" ">
<polygon fill="#e0e0e0" stroke="#999999" points="162,-134.25 109.25,-134.25 109.25,-113.5 162,-113.5 162,-134.25"/>
<text text-anchor="middle" x="135.62" y="-120.75" font-family="Helvetica,sans-Serif" font-size="10.00">board.h</text>
</a>
</g>
</g>
<!-- Node1&#45;&gt;Node2 -->
<g id="edge1_Node000001_Node000002" class="edge">
<title>Node1&#45;&gt;Node2</title>
<g id="a_edge1_Node000001_Node000002"><a xlink:title=" ">
<path fill="none" stroke="#63b8ff" d="M195.34,-169.94C183.77,-161.21 169.47,-150.42 157.77,-141.59"/>
<polygon fill="#63b8ff" stroke="#63b8ff" points="159.97,-138.86 149.88,-135.63 155.75,-144.45 159.97,-138.86"/>
</a>
</g>
</g>
<!-- Node3 -->
<g id="Node000003" class="node">
<title>Node3</title>
<g id="a_Node000003"><a xlink:href="apds99xx_8h.html" target="_top" xlink:title=" ">
<polygon fill="white" stroke="#666666" points="252.75,-134.25 180.5,-134.25 180.5,-113.5 252.75,-113.5 252.75,-134.25"/>
<text text-anchor="middle" x="216.62" y="-120.75" font-family="Helvetica,sans-Serif" font-size="10.00">apds99xx.h</text>
</a>
</g>
</g>
<!-- Node1&#45;&gt;Node3 -->
<g id="edge2_Node000001_Node000003" class="edge">
<title>Node1&#45;&gt;Node3</title>
<g id="a_edge2_Node000001_Node000003"><a xlink:title=" ">
<path fill="none" stroke="#63b8ff" d="M216.62,-169.94C216.62,-162.6 216.62,-153.82 216.62,-145.96"/>
<polygon fill="#63b8ff" stroke="#63b8ff" points="220.13,-146.23 216.63,-136.23 213.13,-146.23 220.13,-146.23"/>
</a>
</g>
</g>
<!-- Node12 -->
<g id="Node000012" class="node">
<title>Node12</title>
<g id="a_Node000012"><a xlink:href="saul__reg_8h.html" target="_top" xlink:title="SAUL registry interface definition.">
<polygon fill="white" stroke="#666666" points="377.75,-134.25 311.5,-134.25 311.5,-113.5 377.75,-113.5 377.75,-134.25"/>
<text text-anchor="middle" x="344.62" y="-120.75" font-family="Helvetica,sans-Serif" font-size="10.00">saul_reg.h</text>
</a>
</g>
</g>
<!-- Node1&#45;&gt;Node12 -->
<g id="edge15_Node000001_Node000012" class="edge">
<title>Node1&#45;&gt;Node12</title>
<g id="a_edge15_Node000001_Node000012"><a xlink:title=" ">
<path fill="none" stroke="#63b8ff" d="M250.59,-169.78C270.25,-160.39 294.79,-148.67 313.87,-139.56"/>
<polygon fill="#63b8ff" stroke="#63b8ff" points="315.24,-142.78 322.76,-135.32 312.23,-136.47 315.24,-142.78"/>
</a>
</g>
</g>
<!-- Node4 -->
<g id="Node000004" class="node">
<title>Node4</title>
<g id="a_Node000004"><a xlink:title=" ">
<polygon fill="#e0e0e0" stroke="#999999" points="162.12,-77.5 101.12,-77.5 101.12,-56.75 162.12,-56.75 162.12,-77.5"/>
<text text-anchor="middle" x="131.62" y="-64" font-family="Helvetica,sans-Serif" font-size="10.00">stdbool.h</text>
</a>
</g>
</g>
<!-- Node3&#45;&gt;Node4 -->
<g id="edge3_Node000003_Node000004" class="edge">
<title>Node3&#45;&gt;Node4</title>
<g id="a_edge3_Node000003_Node000004"><a xlink:title=" ">
<path fill="none" stroke="#63b8ff" d="M201.43,-113.09C188.86,-104.99 170.76,-93.33 156.14,-83.92"/>
<polygon fill="#63b8ff" stroke="#63b8ff" points="158.26,-81.12 147.96,-78.65 154.47,-87.01 158.26,-81.12"/>
</a>
</g>
</g>
<!-- Node5 -->
<g id="Node000005" class="node">
<title>Node5</title>
<g id="a_Node000005"><a xlink:title=" ">
<polygon fill="#e0e0e0" stroke="#999999" points="320,-20.75 267.25,-20.75 267.25,0 320,0 320,-20.75"/>
<text text-anchor="middle" x="293.62" y="-7.25" font-family="Helvetica,sans-Serif" font-size="10.00">stdint.h</text>
</a>
</g>
</g>
<!-- Node3&#45;&gt;Node5 -->
<g id="edge4_Node000003_Node000005" class="edge">
<title>Node3&#45;&gt;Node5</title>
<g id="a_edge4_Node000003_Node000005"><a xlink:title=" ">
<path fill="none" stroke="#63b8ff" d="M228.76,-113.05C238.79,-104.46 252.91,-91.24 262.62,-77.5 272.7,-63.25 280.9,-45.2 286.34,-31.56"/>
<polygon fill="#63b8ff" stroke="#63b8ff" points="289.56,-32.92 289.84,-22.33 283.02,-30.44 289.56,-32.92"/>
</a>
</g>
</g>
<!-- Node6 -->
<g id="Node000006" class="node">
<title>Node6</title>
<g id="a_Node000006"><a xlink:href="drivers_2include_2periph_2gpio_8h.html" target="_top" xlink:title="Low&#45;level GPIO peripheral driver interface definitions.">
<polygon fill="white" stroke="#666666" points="83.5,-77.5 3.75,-77.5 3.75,-56.75 83.5,-56.75 83.5,-77.5"/>
<text text-anchor="middle" x="43.62" y="-64" font-family="Helvetica,sans-Serif" font-size="10.00">periph/gpio.h</text>
</a>
</g>
</g>
<!-- Node3&#45;&gt;Node6 -->
<g id="edge5_Node000003_Node000006" class="edge">
<title>Node3&#45;&gt;Node6</title>
<g id="a_edge5_Node000003_Node000006"><a xlink:title=" ">
<path fill="none" stroke="#63b8ff" d="M185.7,-113.09C157.74,-104.24 116.35,-91.14 85.44,-81.36"/>
<polygon fill="#63b8ff" stroke="#63b8ff" points="86.61,-78.06 76.02,-78.38 84.5,-84.73 86.61,-78.06"/>
</a>
</g>
</g>
<!-- Node10 -->
<g id="Node000010" class="node">
<title>Node10</title>
<g id="a_Node000010"><a xlink:href="i2c_8h.html" target="_top" xlink:title="Low&#45;level I2C peripheral driver interface definition.">
<polygon fill="white" stroke="#666666" points="253.12,-77.5 180.12,-77.5 180.12,-56.75 253.12,-56.75 253.12,-77.5"/>
<text text-anchor="middle" x="216.62" y="-64" font-family="Helvetica,sans-Serif" font-size="10.00">periph/i2c.h</text>
</a>
</g>
</g>
<!-- Node3&#45;&gt;Node10 -->
<g id="edge9_Node000003_Node000010" class="edge">
<title>Node3&#45;&gt;Node10</title>
<g id="a_edge9_Node000003_Node000010"><a xlink:title=" ">
<path fill="none" stroke="#63b8ff" d="M216.62,-113.09C216.62,-106.47 216.62,-97.47 216.62,-89.27"/>
<polygon fill="#63b8ff" stroke="#63b8ff" points="220.13,-89.34 216.63,-79.34 213.13,-89.34 220.13,-89.34"/>
</a>
</g>
</g>
<!-- Node7 -->
<g id="Node000007" class="node">
<title>Node7</title>
<g id="a_Node000007"><a xlink:title=" ">
<polygon fill="#e0e0e0" stroke="#999999" points="152,-20.75 99.25,-20.75 99.25,0 152,0 152,-20.75"/>
<text text-anchor="middle" x="125.62" y="-7.25" font-family="Helvetica,sans-Serif" font-size="10.00">limits.h</text>
</a>
</g>
</g>
<!-- Node6&#45;&gt;Node7 -->
<g id="edge6_Node000006_Node000007" class="edge">
<title>Node6&#45;&gt;Node7</title>
<g id="a_edge6_Node000006_Node000007"><a xlink:title=" ">
<path fill="none" stroke="#63b8ff" d="M58.28,-56.34C70.3,-48.32 87.54,-36.81 101.56,-27.44"/>
<polygon fill="#63b8ff" stroke="#63b8ff" points="103.46,-30.38 109.83,-21.92 99.57,-24.56 103.46,-30.38"/>
</a>
</g>
</g>
<!-- Node8 -->
<g id="Node000008" class="node">
<title>Node8</title>
<g id="a_Node000008"><a xlink:title=" ">
<polygon fill="#e0e0e0" stroke="#999999" points="248.75,-20.75 170.5,-20.75 170.5,0 248.75,0 248.75,-20.75"/>
<text text-anchor="middle" x="209.62" y="-7.25" font-family="Helvetica,sans-Serif" font-size="10.00">periph_cpu.h</text>
</a>
</g>
</g>
<!-- Node6&#45;&gt;Node8 -->
<g id="edge7_Node000006_Node000008" class="edge">
<title>Node6&#45;&gt;Node8</title>
<g id="a_edge7_Node000006_Node000008"><a xlink:title=" ">
<path fill="none" stroke="#63b8ff" d="M73.3,-56.34C100.01,-47.53 139.5,-34.5 169.11,-24.74"/>
<polygon fill="#63b8ff" stroke="#63b8ff" points="170.09,-28.1 178.49,-21.64 167.89,-21.45 170.09,-28.1"/>
</a>
</g>
</g>
<!-- Node9 -->
<g id="Node000009" class="node">
<title>Node9</title>
<g id="a_Node000009"><a xlink:title=" ">
<polygon fill="#e0e0e0" stroke="#999999" points="81.25,-20.75 0,-20.75 0,0 81.25,0 81.25,-20.75"/>
<text text-anchor="middle" x="40.62" y="-7.25" font-family="Helvetica,sans-Serif" font-size="10.00">periph_conf.h</text>
</a>
</g>
</g>
<!-- Node6&#45;&gt;Node9 -->
<g id="edge8_Node000006_Node000009" class="edge">
<title>Node6&#45;&gt;Node9</title>
<g id="a_edge8_Node000006_Node000009"><a xlink:title=" ">
<path fill="none" stroke="#63b8ff" d="M43.09,-56.34C42.73,-49.72 42.23,-40.72 41.78,-32.52"/>
<polygon fill="#63b8ff" stroke="#63b8ff" points="45.28,-32.38 41.24,-22.59 38.29,-32.77 45.28,-32.38"/>
</a>
</g>
</g>
<!-- Node10&#45;&gt;Node5 -->
<g id="edge10_Node000010_Node000005" class="edge">
<title>Node10&#45;&gt;Node5</title>
<g id="a_edge10_Node000010_Node000005"><a xlink:title=" ">
<path fill="none" stroke="#63b8ff" d="M230.39,-56.34C241.56,-48.4 257.54,-37.03 270.65,-27.71"/>
<polygon fill="#63b8ff" stroke="#63b8ff" points="272.62,-30.6 278.74,-21.96 268.57,-24.9 272.62,-30.6"/>
</a>
</g>
</g>
<!-- Node10&#45;&gt;Node7 -->
<g id="edge12_Node000010_Node000007" class="edge">
<title>Node10&#45;&gt;Node7</title>
<g id="a_edge12_Node000010_Node000007"><a xlink:title=" ">
<path fill="none" stroke="#63b8ff" d="M200.36,-56.34C186.77,-48.16 167.15,-36.36 151.42,-26.9"/>
<polygon fill="#63b8ff" stroke="#63b8ff" points="153.42,-24.02 143.05,-21.86 149.81,-30.01 153.42,-24.02"/>
</a>
</g>
</g>
<!-- Node10&#45;&gt;Node8 -->
<g id="edge14_Node000010_Node000008" class="edge">
<title>Node10&#45;&gt;Node8</title>
<g id="a_edge14_Node000010_Node000008"><a xlink:title=" ">
<path fill="none" stroke="#63b8ff" d="M215.37,-56.34C214.52,-49.64 213.35,-40.51 212.29,-32.23"/>
<polygon fill="#63b8ff" stroke="#63b8ff" points="215.8,-32.06 211.06,-22.58 208.85,-32.94 215.8,-32.06"/>
</a>
</g>
</g>
<!-- Node10&#45;&gt;Node9 -->
<g id="edge13_Node000010_Node000009" class="edge">
<title>Node10&#45;&gt;Node9</title>
<g id="a_edge13_Node000010_Node000009"><a xlink:title=" ">
<path fill="none" stroke="#63b8ff" d="M185.16,-56.34C156.59,-47.45 114.24,-34.27 82.76,-24.48"/>
<polygon fill="#63b8ff" stroke="#63b8ff" points="84.15,-21.25 73.56,-21.62 82.07,-27.93 84.15,-21.25"/>
</a>
</g>
</g>
<!-- Node11 -->
<g id="Node000011" class="node">
<title>Node11</title>
<g id="a_Node000011"><a xlink:title=" ">
<polygon fill="#e0e0e0" stroke="#999999" points="393.12,-20.75 338.12,-20.75 338.12,0 393.12,0 393.12,-20.75"/>
<text text-anchor="middle" x="365.62" y="-7.25" font-family="Helvetica,sans-Serif" font-size="10.00">stddef.h</text>
</a>
</g>
</g>
<!-- Node10&#45;&gt;Node11 -->
<g id="edge11_Node000010_Node000011" class="edge">
<title>Node10&#45;&gt;Node11</title>
<g id="a_edge11_Node000010_Node000011"><a xlink:title=" ">
<path fill="none" stroke="#63b8ff" d="M243.26,-56.34C266.92,-47.64 301.74,-34.85 328.2,-25.13"/>
<polygon fill="#63b8ff" stroke="#63b8ff" points="329.37,-28.43 337.55,-21.69 326.95,-21.86 329.37,-28.43"/>
</a>
</g>
</g>
<!-- Node12&#45;&gt;Node5 -->
<g id="edge16_Node000012_Node000005" class="edge">
<title>Node12&#45;&gt;Node5</title>
<g id="a_edge16_Node000012_Node000005"><a xlink:title=" ">
<path fill="none" stroke="#63b8ff" d="M340.28,-113.37C332,-95.27 313.82,-55.53 302.76,-31.35"/>
<polygon fill="#63b8ff" stroke="#63b8ff" points="306.08,-30.19 298.74,-22.55 299.71,-33.1 306.08,-30.19"/>
</a>
</g>
</g>
<!-- Node13 -->
<g id="Node000013" class="node">
<title>Node13</title>
<g id="a_Node000013"><a xlink:title=" ">
<polygon fill="#e0e0e0" stroke="#999999" points="393.25,-77.5 348,-77.5 348,-56.75 393.25,-56.75 393.25,-77.5"/>
<text text-anchor="middle" x="370.62" y="-64" font-family="Helvetica,sans-Serif" font-size="10.00">saul.h</text>
</a>
</g>
</g>
<!-- Node12&#45;&gt;Node13 -->
<g id="edge17_Node000012_Node000013" class="edge">
<title>Node12&#45;&gt;Node13</title>
<g id="a_edge17_Node000012_Node000013"><a xlink:title=" ">
<path fill="none" stroke="#63b8ff" d="M349.27,-113.09C352.56,-106.16 357.09,-96.62 361.13,-88.11"/>
<polygon fill="#63b8ff" stroke="#63b8ff" points="364.24,-89.73 365.37,-79.2 357.92,-86.73 364.24,-89.73"/>
</a>
</g>
</g>
<!-- Node14 -->
<g id="Node000014" class="node">
<title>Node14</title>
<g id="a_Node000014"><a xlink:href="phydat_8h.html" target="_top" xlink:title="Generic data container for physical data interface.">
<polygon fill="white" stroke="#666666" points="470,-77.5 411.25,-77.5 411.25,-56.75 470,-56.75 470,-77.5"/>
<text text-anchor="middle" x="440.62" y="-64" font-family="Helvetica,sans-Serif" font-size="10.00">phydat.h</text>
</a>
</g>
</g>
<!-- Node12&#45;&gt;Node14 -->
<g id="edge18_Node000012_Node000014" class="edge">
<title>Node12&#45;&gt;Node14</title>
<g id="a_edge18_Node000012_Node000014"><a xlink:title=" ">
<path fill="none" stroke="#63b8ff" d="M361.79,-113.09C376.26,-104.83 397.21,-92.88 413.88,-83.38"/>
<polygon fill="#63b8ff" stroke="#63b8ff" points="415.34,-86.57 422.3,-78.58 411.88,-80.49 415.34,-86.57"/>
</a>
</g>
</g>
<!-- Node14&#45;&gt;Node5 -->
<g id="edge20_Node000014_Node000005" class="edge">
<title>Node14&#45;&gt;Node5</title>
<g id="a_edge20_Node000014_Node000005"><a xlink:title=" ">
<path fill="none" stroke="#63b8ff" d="M414.34,-56.34C390.93,-47.62 356.44,-34.77 330.31,-25.04"/>
<polygon fill="#63b8ff" stroke="#63b8ff" points="331.69,-21.82 321.1,-21.61 329.25,-28.38 331.69,-21.82"/>
</a>
</g>
</g>
<!-- Node14&#45;&gt;Node11 -->
<g id="edge19_Node000014_Node000011" class="edge">
<title>Node14&#45;&gt;Node11</title>
<g id="a_edge19_Node000014_Node000011"><a xlink:title=" ">
<path fill="none" stroke="#63b8ff" d="M427.22,-56.34C416.34,-48.4 400.77,-37.03 388.01,-27.71"/>
<polygon fill="#63b8ff" stroke="#63b8ff" points="390.28,-25.04 380.14,-21.97 386.15,-30.69 390.28,-25.04"/>
</a>
</g>
</g>
<!-- Node15 -->
<g id="Node000015" class="node">
<title>Node15</title>
<g id="a_Node000015"><a xlink:title=" ">
<polygon fill="#e0e0e0" stroke="#999999" points="567.38,-20.75 495.88,-20.75 495.88,0 567.38,0 567.38,-20.75"/>
<text text-anchor="middle" x="531.62" y="-7.25" font-family="Helvetica,sans-Serif" font-size="10.00">sys/types.h</text>
</a>
</g>
</g>
<!-- Node14&#45;&gt;Node15 -->
<g id="edge21_Node000014_Node000015" class="edge">
<title>Node14&#45;&gt;Node15</title>
<g id="a_edge21_Node000014_Node000015"><a xlink:title=" ">
<path fill="none" stroke="#63b8ff" d="M456.89,-56.34C470.48,-48.16 490.1,-36.36 505.83,-26.9"/>
<polygon fill="#63b8ff" stroke="#63b8ff" points="507.44,-30.01 514.2,-21.86 503.83,-24.02 507.44,-30.01"/>
</a>
</g>
</g>
<!-- Node16 -->
<g id="Node000016" class="node">
<title>Node16</title>
<g id="a_Node000016"><a xlink:href="modules_8h.html" target="_top" xlink:title="Common macros and compiler attributes/pragmas configuration.">
<polygon fill="white" stroke="#666666" points="478.12,-20.75 411.12,-20.75 411.12,0 478.12,0 478.12,-20.75"/>
<text text-anchor="middle" x="444.62" y="-7.25" font-family="Helvetica,sans-Serif" font-size="10.00">modules.h</text>
</a>
</g>
</g>
<!-- Node14&#45;&gt;Node16 -->
<g id="edge22_Node000014_Node000016" class="edge">
<title>Node14&#45;&gt;Node16</title>
<g id="a_edge22_Node000014_Node000016"><a xlink:title=" ">
<path fill="none" stroke="#63b8ff" d="M441.34,-56.34C441.82,-49.72 442.48,-40.72 443.08,-32.52"/>
<polygon fill="#63b8ff" stroke="#63b8ff" points="446.57,-32.82 443.81,-22.59 439.59,-32.31 446.57,-32.82"/>
</a>
</g>
</g>
</g>
</svg>
