<?xml version="1.0" encoding="UTF-8" standalone="no"?>
<!DOCTYPE svg PUBLIC "-//W3C//DTD SVG 1.1//EN"
 "http://www.w3.org/Graphics/SVG/1.1/DTD/svg11.dtd">
<!-- Generated by graphviz version 12.1.1 (0)
 -->
<!-- Title: sys/arduino/include/arduino_board.h Pages: 1 -->
<svg width="422pt" height="212pt"
 viewBox="0.00 0.00 422.12 211.75" xmlns="http://www.w3.org/2000/svg" xmlns:xlink="http://www.w3.org/1999/xlink">
<g id="graph0" class="graph" transform="scale(1 1) rotate(0) translate(4 207.75)">
<title>sys/arduino/include/arduino_board.h</title>
<!-- Node1 -->
<g id="Node000001" class="node">
<title>Node1</title>
<g id="a_Node000001"><a xlink:title="Configuration of the Arduino API for Arduino Atmega boards.">
<polygon fill="#999999" stroke="#666666" points="260.38,-203.75 149.88,-203.75 149.88,-170.25 260.38,-170.25 260.38,-203.75"/>
<text text-anchor="start" x="157.88" y="-190.25" font-family="Helvetica,sans-Serif" font-size="10.00">sys/arduino/include</text>
<text text-anchor="middle" x="205.12" y="-177.5" font-family="Helvetica,sans-Serif" font-size="10.00">/arduino_board.h</text>
</a>
</g>
</g>
<!-- Node2 -->
<g id="Node000002" class="node">
<title>Node2</title>
<g id="a_Node000002"><a xlink:href="arduino__board__analog_8h.html" target="_top" xlink:title="Arduino analog pin map.">
<polygon fill="white" stroke="#666666" points="271.62,-134.25 138.62,-134.25 138.62,-113.5 271.62,-113.5 271.62,-134.25"/>
<text text-anchor="middle" x="205.12" y="-120.75" font-family="Helvetica,sans-Serif" font-size="10.00">arduino_board_analog.h</text>
</a>
</g>
</g>
<!-- Node1&#45;&gt;Node2 -->
<g id="edge1_Node000001_Node000002" class="edge">
<title>Node1&#45;&gt;Node2</title>
<g id="a_edge1_Node000001_Node000002"><a xlink:title=" ">
<path fill="none" stroke="#63b8ff" d="M205.12,-169.94C205.12,-162.6 205.12,-153.82 205.12,-145.96"/>
<polygon fill="#63b8ff" stroke="#63b8ff" points="208.63,-146.23 205.13,-136.23 201.63,-146.23 208.63,-146.23"/>
</a>
</g>
</g>
<!-- Node9 -->
<g id="Node000009" class="node">
<title>Node9</title>
<g id="a_Node000009"><a xlink:href="arduino__board__pins_8h.html" target="_top" xlink:title="Arduino digital pin map.">
<polygon fill="white" stroke="#666666" points="120.25,-134.25 0,-134.25 0,-113.5 120.25,-113.5 120.25,-134.25"/>
<text text-anchor="middle" x="60.12" y="-120.75" font-family="Helvetica,sans-Serif" font-size="10.00">arduino_board_pins.h</text>
</a>
</g>
</g>
<!-- Node1&#45;&gt;Node9 -->
<g id="edge8_Node000001_Node000009" class="edge">
<title>Node1&#45;&gt;Node9</title>
<g id="a_edge8_Node000001_Node000009"><a xlink:title=" ">
<path fill="none" stroke="#63b8ff" d="M166.65,-169.78C143.97,-160.22 115.54,-148.24 93.76,-139.05"/>
<polygon fill="#63b8ff" stroke="#63b8ff" points="95.32,-135.91 84.74,-135.25 92.6,-142.36 95.32,-135.91"/>
</a>
</g>
</g>
<!-- Node11 -->
<g id="Node000011" class="node">
<title>Node11</title>
<g id="a_Node000011"><a xlink:href="arduino__board__pwm_8h.html" target="_top" xlink:title="Mapping of Arduino digital pin numbers to PWM settings.">
<polygon fill="white" stroke="#666666" points="414.12,-134.25 290.12,-134.25 290.12,-113.5 414.12,-113.5 414.12,-134.25"/>
<text text-anchor="middle" x="352.12" y="-120.75" font-family="Helvetica,sans-Serif" font-size="10.00">arduino_board_pwm.h</text>
</a>
</g>
</g>
<!-- Node1&#45;&gt;Node11 -->
<g id="edge14_Node000001_Node000011" class="edge">
<title>Node1&#45;&gt;Node11</title>
<g id="a_edge14_Node000001_Node000011"><a xlink:title=" ">
<path fill="none" stroke="#63b8ff" d="M244.13,-169.78C267.13,-160.22 295.94,-148.24 318.03,-139.05"/>
<polygon fill="#63b8ff" stroke="#63b8ff" points="319.29,-142.32 327.18,-135.25 316.61,-135.85 319.29,-142.32"/>
</a>
</g>
</g>
<!-- Node3 -->
<g id="Node000003" class="node">
<title>Node3</title>
<g id="a_Node000003"><a xlink:href="adc_8h.html" target="_top" xlink:title="Low&#45;level ADC peripheral driver interface definitions.">
<polygon fill="white" stroke="#666666" points="186.12,-77.5 110.12,-77.5 110.12,-56.75 186.12,-56.75 186.12,-77.5"/>
<text text-anchor="middle" x="148.12" y="-64" font-family="Helvetica,sans-Serif" font-size="10.00">periph/adc.h</text>
</a>
</g>
</g>
<!-- Node2&#45;&gt;Node3 -->
<g id="edge2_Node000002_Node000003" class="edge">
<title>Node2&#45;&gt;Node3</title>
<g id="a_edge2_Node000002_Node000003"><a xlink:title=" ">
<path fill="none" stroke="#63b8ff" d="M194.93,-113.09C186.99,-105.46 175.76,-94.67 166.29,-85.57"/>
<polygon fill="#63b8ff" stroke="#63b8ff" points="168.96,-83.28 159.32,-78.88 164.11,-88.33 168.96,-83.28"/>
</a>
</g>
</g>
<!-- Node8 -->
<g id="Node000008" class="node">
<title>Node8</title>
<g id="a_Node000008"><a xlink:title=" ">
<polygon fill="#e0e0e0" stroke="#999999" points="302,-77.5 204.25,-77.5 204.25,-56.75 302,-56.75 302,-77.5"/>
<text text-anchor="middle" x="253.12" y="-64" font-family="Helvetica,sans-Serif" font-size="10.00">arduino_iomap.h</text>
</a>
</g>
</g>
<!-- Node2&#45;&gt;Node8 -->
<g id="edge7_Node000002_Node000008" class="edge">
<title>Node2&#45;&gt;Node8</title>
<g id="a_edge7_Node000002_Node000008"><a xlink:title=" ">
<path fill="none" stroke="#63b8ff" d="M213.71,-113.09C220.19,-105.69 229.28,-95.32 237.1,-86.41"/>
<polygon fill="#63b8ff" stroke="#63b8ff" points="239.66,-88.79 243.62,-78.97 234.4,-84.18 239.66,-88.79"/>
</a>
</g>
</g>
<!-- Node4 -->
<g id="Node000004" class="node">
<title>Node4</title>
<g id="a_Node000004"><a xlink:title=" ">
<polygon fill="#e0e0e0" stroke="#999999" points="260.5,-20.75 207.75,-20.75 207.75,0 260.5,0 260.5,-20.75"/>
<text text-anchor="middle" x="234.12" y="-7.25" font-family="Helvetica,sans-Serif" font-size="10.00">limits.h</text>
</a>
</g>
</g>
<!-- Node3&#45;&gt;Node4 -->
<g id="edge3_Node000003_Node000004" class="edge">
<title>Node3&#45;&gt;Node4</title>
<g id="a_edge3_Node000003_Node000004"><a xlink:title=" ">
<path fill="none" stroke="#63b8ff" d="M163.5,-56.34C176.22,-48.24 194.53,-36.58 209.32,-27.17"/>
<polygon fill="#63b8ff" stroke="#63b8ff" points="211.05,-30.21 217.61,-21.89 207.29,-24.31 211.05,-30.21"/>
</a>
</g>
</g>
<!-- Node5 -->
<g id="Node000005" class="node">
<title>Node5</title>
<g id="a_Node000005"><a xlink:title=" ">
<polygon fill="#e0e0e0" stroke="#999999" points="359.5,-20.75 306.75,-20.75 306.75,0 359.5,0 359.5,-20.75"/>
<text text-anchor="middle" x="333.12" y="-7.25" font-family="Helvetica,sans-Serif" font-size="10.00">stdint.h</text>
</a>
</g>
</g>
<!-- Node3&#45;&gt;Node5 -->
<g id="edge4_Node000003_Node000005" class="edge">
<title>Node3&#45;&gt;Node5</title>
<g id="a_edge4_Node000003_Node000005"><a xlink:title=" ">
<path fill="none" stroke="#63b8ff" d="M181.2,-56.34C213.32,-46.83 262.02,-32.42 295.58,-22.49"/>
<polygon fill="#63b8ff" stroke="#63b8ff" points="296.29,-25.93 304.88,-19.73 294.3,-19.21 296.29,-25.93"/>
</a>
</g>
</g>
<!-- Node6 -->
<g id="Node000006" class="node">
<title>Node6</title>
<g id="a_Node000006"><a xlink:title=" ">
<polygon fill="#e0e0e0" stroke="#999999" points="189.25,-20.75 111,-20.75 111,0 189.25,0 189.25,-20.75"/>
<text text-anchor="middle" x="150.12" y="-7.25" font-family="Helvetica,sans-Serif" font-size="10.00">periph_cpu.h</text>
</a>
</g>
</g>
<!-- Node3&#45;&gt;Node6 -->
<g id="edge5_Node000003_Node000006" class="edge">
<title>Node3&#45;&gt;Node6</title>
<g id="a_edge5_Node000003_Node000006"><a xlink:title=" ">
<path fill="none" stroke="#63b8ff" d="M148.48,-56.34C148.72,-49.72 149.05,-40.72 149.35,-32.52"/>
<polygon fill="#63b8ff" stroke="#63b8ff" points="152.85,-32.71 149.72,-22.59 145.85,-32.46 152.85,-32.71"/>
</a>
</g>
</g>
<!-- Node7 -->
<g id="Node000007" class="node">
<title>Node7</title>
<g id="a_Node000007"><a xlink:title=" ">
<polygon fill="#e0e0e0" stroke="#999999" points="92.75,-20.75 11.5,-20.75 11.5,0 92.75,0 92.75,-20.75"/>
<text text-anchor="middle" x="52.12" y="-7.25" font-family="Helvetica,sans-Serif" font-size="10.00">periph_conf.h</text>
</a>
</g>
</g>
<!-- Node3&#45;&gt;Node7 -->
<g id="edge6_Node000003_Node000007" class="edge">
<title>Node3&#45;&gt;Node7</title>
<g id="a_edge6_Node000003_Node000007"><a xlink:title=" ">
<path fill="none" stroke="#63b8ff" d="M130.96,-56.34C116.49,-48.08 95.54,-36.13 78.87,-26.63"/>
<polygon fill="#63b8ff" stroke="#63b8ff" points="80.87,-23.74 70.45,-21.83 77.41,-29.82 80.87,-23.74"/>
</a>
</g>
</g>
<!-- Node9&#45;&gt;Node8 -->
<g id="edge9_Node000009_Node000008" class="edge">
<title>Node9&#45;&gt;Node8</title>
<g id="a_edge9_Node000009_Node000008"><a xlink:title=" ">
<path fill="none" stroke="#63b8ff" d="M94.63,-113.09C126.23,-104.12 173.21,-90.79 207.83,-80.98"/>
<polygon fill="#63b8ff" stroke="#63b8ff" points="208.47,-84.43 217.14,-78.33 206.56,-77.7 208.47,-84.43"/>
</a>
</g>
</g>
<!-- Node10 -->
<g id="Node000010" class="node">
<title>Node10</title>
<g id="a_Node000010"><a xlink:href="drivers_2include_2periph_2gpio_8h.html" target="_top" xlink:title="Low&#45;level GPIO peripheral driver interface definitions.">
<polygon fill="white" stroke="#666666" points="92,-77.5 12.25,-77.5 12.25,-56.75 92,-56.75 92,-77.5"/>
<text text-anchor="middle" x="52.12" y="-64" font-family="Helvetica,sans-Serif" font-size="10.00">periph/gpio.h</text>
</a>
</g>
</g>
<!-- Node9&#45;&gt;Node10 -->
<g id="edge10_Node000009_Node000010" class="edge">
<title>Node9&#45;&gt;Node10</title>
<g id="a_edge10_Node000009_Node000010"><a xlink:title=" ">
<path fill="none" stroke="#63b8ff" d="M58.69,-113.09C57.72,-106.39 56.38,-97.26 55.17,-88.98"/>
<polygon fill="#63b8ff" stroke="#63b8ff" points="58.67,-88.71 53.76,-79.33 51.74,-89.73 58.67,-88.71"/>
</a>
</g>
</g>
<!-- Node10&#45;&gt;Node4 -->
<g id="edge11_Node000010_Node000004" class="edge">
<title>Node10&#45;&gt;Node4</title>
<g id="a_edge11_Node000010_Node000004"><a xlink:title=" ">
<path fill="none" stroke="#63b8ff" d="M84.66,-56.34C116.03,-46.9 163.48,-32.63 196.47,-22.7"/>
<polygon fill="#63b8ff" stroke="#63b8ff" points="197.47,-26.06 206.04,-19.82 195.45,-19.35 197.47,-26.06"/>
</a>
</g>
</g>
<!-- Node10&#45;&gt;Node6 -->
<g id="edge12_Node000010_Node000006" class="edge">
<title>Node10&#45;&gt;Node6</title>
<g id="a_edge12_Node000010_Node000006"><a xlink:title=" ">
<path fill="none" stroke="#63b8ff" d="M69.65,-56.34C84.42,-48.08 105.81,-36.13 122.82,-26.63"/>
<polygon fill="#63b8ff" stroke="#63b8ff" points="124.41,-29.75 131.43,-21.82 121,-23.64 124.41,-29.75"/>
</a>
</g>
</g>
<!-- Node10&#45;&gt;Node7 -->
<g id="edge13_Node000010_Node000007" class="edge">
<title>Node10&#45;&gt;Node7</title>
<g id="a_edge13_Node000010_Node000007"><a xlink:title=" ">
<path fill="none" stroke="#63b8ff" d="M52.12,-56.34C52.12,-49.72 52.12,-40.72 52.12,-32.52"/>
<polygon fill="#63b8ff" stroke="#63b8ff" points="55.63,-32.59 52.13,-22.59 48.63,-32.59 55.63,-32.59"/>
</a>
</g>
</g>
<!-- Node11&#45;&gt;Node8 -->
<g id="edge15_Node000011_Node000008" class="edge">
<title>Node11&#45;&gt;Node8</title>
<g id="a_edge15_Node000011_Node000008"><a xlink:title=" ">
<path fill="none" stroke="#63b8ff" d="M334.43,-113.09C319.5,-104.83 297.89,-92.88 280.7,-83.38"/>
<polygon fill="#63b8ff" stroke="#63b8ff" points="282.44,-80.34 272,-78.56 279.05,-86.46 282.44,-80.34"/>
</a>
</g>
</g>
<!-- Node12 -->
<g id="Node000012" class="node">
<title>Node12</title>
<g id="a_Node000012"><a xlink:href="pwm_8h.html" target="_top" xlink:title="Low&#45;level PWM peripheral driver interface definitions.">
<polygon fill="white" stroke="#666666" points="402.5,-77.5 319.75,-77.5 319.75,-56.75 402.5,-56.75 402.5,-77.5"/>
<text text-anchor="middle" x="361.12" y="-64" font-family="Helvetica,sans-Serif" font-size="10.00">periph/pwm.h</text>
</a>
</g>
</g>
<!-- Node11&#45;&gt;Node12 -->
<g id="edge16_Node000011_Node000012" class="edge">
<title>Node11&#45;&gt;Node12</title>
<g id="a_edge16_Node000011_Node000012"><a xlink:title=" ">
<path fill="none" stroke="#63b8ff" d="M353.73,-113.09C354.83,-106.39 356.34,-97.26 357.7,-88.98"/>
<polygon fill="#63b8ff" stroke="#63b8ff" points="361.12,-89.76 359.28,-79.32 354.21,-88.62 361.12,-89.76"/>
</a>
</g>
</g>
<!-- Node12&#45;&gt;Node4 -->
<g id="edge18_Node000012_Node000004" class="edge">
<title>Node12&#45;&gt;Node4</title>
<g id="a_edge18_Node000012_Node000004"><a xlink:title=" ">
<path fill="none" stroke="#63b8ff" d="M338.42,-56.34C318.55,-47.77 289.45,-35.23 267.03,-25.56"/>
<polygon fill="#63b8ff" stroke="#63b8ff" points="268.59,-22.42 258.02,-21.68 265.82,-28.85 268.59,-22.42"/>
</a>
</g>
</g>
<!-- Node12&#45;&gt;Node5 -->
<g id="edge17_Node000012_Node000005" class="edge">
<title>Node12&#45;&gt;Node5</title>
<g id="a_edge17_Node000012_Node000005"><a xlink:title=" ">
<path fill="none" stroke="#63b8ff" d="M356.12,-56.34C352.54,-49.33 347.59,-39.66 343.2,-31.08"/>
<polygon fill="#63b8ff" stroke="#63b8ff" points="346.45,-29.74 338.78,-22.43 340.21,-32.92 346.45,-29.74"/>
</a>
</g>
</g>
<!-- Node12&#45;&gt;Node6 -->
<g id="edge19_Node000012_Node000006" class="edge">
<title>Node12&#45;&gt;Node6</title>
<g id="a_edge19_Node000012_Node000006"><a xlink:title=" ">
<path fill="none" stroke="#63b8ff" d="M323.4,-56.34C288.55,-47.29 236.6,-33.81 198.67,-23.97"/>
<polygon fill="#63b8ff" stroke="#63b8ff" points="199.9,-20.67 189.34,-21.55 198.14,-27.45 199.9,-20.67"/>
</a>
</g>
</g>
<!-- Node12&#45;&gt;Node7 -->
<g id="edge20_Node000012_Node000007" class="edge">
<title>Node12&#45;&gt;Node7</title>
<g id="a_edge20_Node000012_Node000007"><a xlink:title=" ">
<path fill="none" stroke="#63b8ff" d="M319.39,-58.25C316.59,-57.74 313.82,-57.23 311.12,-56.75 221.89,-40.7 196.78,-37.66 104.35,-21.13"/>
<polygon fill="#63b8ff" stroke="#63b8ff" points="105,-17.69 94.54,-19.37 103.76,-24.58 105,-17.69"/>
</a>
</g>
</g>
</g>
</svg>
