<?xml version="1.0" encoding="UTF-8" standalone="no"?>
<!DOCTYPE svg PUBLIC "-//W3C//DTD SVG 1.1//EN"
 "http://www.w3.org/Graphics/SVG/1.1/DTD/svg11.dtd">
<!-- Generated by graphviz version 12.1.1 (0)
 -->
<!-- Title: sys/arduino/include/arduino.hpp Pages: 1 -->
<svg width="741pt" height="269pt"
 viewBox="0.00 0.00 741.24 268.50" xmlns="http://www.w3.org/2000/svg" xmlns:xlink="http://www.w3.org/1999/xlink">
<g id="graph0" class="graph" transform="scale(1 1) rotate(0) translate(4 264.5)">
<title>sys/arduino/include/arduino.hpp</title>
<!-- Node1 -->
<g id="Node000001" class="node">
<title>Node1</title>
<g id="a_Node000001"><a xlink:title="Main interface definition of the Arduino API.">
<polygon fill="#999999" stroke="#666666" points="512.62,-260.5 402.12,-260.5 402.12,-227 512.62,-227 512.62,-260.5"/>
<text text-anchor="start" x="410.12" y="-247" font-family="Helvetica,sans-Serif" font-size="10.00">sys/arduino/include</text>
<text text-anchor="middle" x="457.37" y="-234.25" font-family="Helvetica,sans-Serif" font-size="10.00">/arduino.hpp</text>
</a>
</g>
</g>
<!-- Node2 -->
<g id="Node000002" class="node">
<title>Node2</title>
<g id="a_Node000002"><a xlink:title=" ">
<polygon fill="#e0e0e0" stroke="#999999" points="138.74,-20.75 85.99,-20.75 85.99,0 138.74,0 138.74,-20.75"/>
<text text-anchor="middle" x="112.37" y="-7.25" font-family="Helvetica,sans-Serif" font-size="10.00">stdint.h</text>
</a>
</g>
</g>
<!-- Node1&#45;&gt;Node2 -->
<g id="edge1_Node000001_Node000002" class="edge">
<title>Node1&#45;&gt;Node2</title>
<g id="a_edge1_Node000001_Node000002"><a xlink:title=" ">
<path fill="none" stroke="#63b8ff" d="M401.86,-237.8C292.39,-226.77 55.03,-196.13 6.37,-134.25 -5.93,-118.62 1.9,-77.76 18.37,-56.75 32.35,-38.9 55.13,-27.66 74.75,-20.83"/>
<polygon fill="#63b8ff" stroke="#63b8ff" points="75.65,-24.22 84.12,-17.85 73.52,-17.55 75.65,-24.22"/>
</a>
</g>
</g>
<!-- Node3 -->
<g id="Node000003" class="node">
<title>Node3</title>
<g id="a_Node000003"><a xlink:href="irq_8h.html" target="_top" xlink:title="IRQ driver interface.">
<polygon fill="white" stroke="#666666" points="636.24,-191 598.49,-191 598.49,-170.25 636.24,-170.25 636.24,-191"/>
<text text-anchor="middle" x="617.37" y="-177.5" font-family="Helvetica,sans-Serif" font-size="10.00">irq.h</text>
</a>
</g>
</g>
<!-- Node1&#45;&gt;Node3 -->
<g id="edge2_Node000001_Node000003" class="edge">
<title>Node1&#45;&gt;Node3</title>
<g id="a_edge2_Node000001_Node000003"><a xlink:title=" ">
<path fill="none" stroke="#63b8ff" d="M499.82,-226.53C527.44,-215.98 562.78,-202.48 587.46,-193.05"/>
<polygon fill="#63b8ff" stroke="#63b8ff" points="588.49,-196.41 596.58,-189.57 585.99,-189.87 588.49,-196.41"/>
</a>
</g>
</g>
<!-- Node6 -->
<g id="Node000006" class="node">
<title>Node6</title>
<g id="a_Node000006"><a xlink:href="drivers_2include_2periph_2gpio_8h.html" target="_top" xlink:title="Low&#45;level GPIO peripheral driver interface definitions.">
<polygon fill="white" stroke="#666666" points="417.24,-77.5 337.49,-77.5 337.49,-56.75 417.24,-56.75 417.24,-77.5"/>
<text text-anchor="middle" x="377.37" y="-64" font-family="Helvetica,sans-Serif" font-size="10.00">periph/gpio.h</text>
</a>
</g>
</g>
<!-- Node1&#45;&gt;Node6 -->
<g id="edge5_Node000001_Node000006" class="edge">
<title>Node1&#45;&gt;Node6</title>
<g id="a_edge5_Node000001_Node000006"><a xlink:title=" ">
<path fill="none" stroke="#63b8ff" d="M458.76,-226.75C460.23,-200.98 459.89,-149.52 438.37,-113.5 431.03,-101.23 418.99,-91.22 407.54,-83.76"/>
<polygon fill="#63b8ff" stroke="#63b8ff" points="409.42,-80.81 399.05,-78.64 405.8,-86.8 409.42,-80.81"/>
</a>
</g>
</g>
<!-- Node10 -->
<g id="Node000010" class="node">
<title>Node10</title>
<g id="a_Node000010"><a xlink:href="arduino__board_8h.html" target="_top" xlink:title="Configuration of the Arduino API for Arduino Atmega boards.">
<polygon fill="white" stroke="#666666" points="343.74,-191 248.99,-191 248.99,-170.25 343.74,-170.25 343.74,-191"/>
<text text-anchor="middle" x="296.37" y="-177.5" font-family="Helvetica,sans-Serif" font-size="10.00">arduino_board.h</text>
</a>
</g>
</g>
<!-- Node1&#45;&gt;Node10 -->
<g id="edge9_Node000001_Node000010" class="edge">
<title>Node1&#45;&gt;Node10</title>
<g id="a_edge9_Node000001_Node000010"><a xlink:title=" ">
<path fill="none" stroke="#63b8ff" d="M414.64,-226.53C389.12,-216.84 357.03,-204.66 332.72,-195.43"/>
<polygon fill="#63b8ff" stroke="#63b8ff" points="334.16,-192.23 323.57,-191.95 331.67,-198.77 334.16,-192.23"/>
</a>
</g>
</g>
<!-- Node17 -->
<g id="Node000017" class="node">
<title>Node17</title>
<g id="a_Node000017"><a xlink:href="serialport_8hpp.html" target="_top" xlink:title="Definition of the Arduino &#39;Serial&#39; interface.">
<polygon fill="white" stroke="#666666" points="569.12,-134.25 485.62,-134.25 485.62,-113.5 569.12,-113.5 569.12,-134.25"/>
<text text-anchor="middle" x="527.37" y="-120.75" font-family="Helvetica,sans-Serif" font-size="10.00">serialport.hpp</text>
</a>
</g>
</g>
<!-- Node1&#45;&gt;Node17 -->
<g id="edge27_Node000001_Node000017" class="edge">
<title>Node1&#45;&gt;Node17</title>
<g id="a_edge27_Node000001_Node000017"><a xlink:title=" ">
<path fill="none" stroke="#63b8ff" d="M466.81,-226.85C479.5,-205.48 502.05,-167.5 515.77,-144.41"/>
<polygon fill="#63b8ff" stroke="#63b8ff" points="518.67,-146.37 520.77,-135.98 512.65,-142.8 518.67,-146.37"/>
</a>
</g>
</g>
<!-- Node4 -->
<g id="Node000004" class="node">
<title>Node4</title>
<g id="a_Node000004"><a xlink:title=" ">
<polygon fill="#e0e0e0" stroke="#999999" points="647.87,-134.25 586.87,-134.25 586.87,-113.5 647.87,-113.5 647.87,-134.25"/>
<text text-anchor="middle" x="617.37" y="-120.75" font-family="Helvetica,sans-Serif" font-size="10.00">stdbool.h</text>
</a>
</g>
</g>
<!-- Node3&#45;&gt;Node4 -->
<g id="edge3_Node000003_Node000004" class="edge">
<title>Node3&#45;&gt;Node4</title>
<g id="a_edge3_Node000003_Node000004"><a xlink:title=" ">
<path fill="none" stroke="#63b8ff" d="M617.37,-169.84C617.37,-163.22 617.37,-154.22 617.37,-146.02"/>
<polygon fill="#63b8ff" stroke="#63b8ff" points="620.87,-146.09 617.37,-136.09 613.87,-146.09 620.87,-146.09"/>
</a>
</g>
</g>
<!-- Node5 -->
<g id="Node000005" class="node">
<title>Node5</title>
<g id="a_Node000005"><a xlink:title=" ">
<polygon fill="#e0e0e0" stroke="#999999" points="733.24,-134.25 665.49,-134.25 665.49,-113.5 733.24,-113.5 733.24,-134.25"/>
<text text-anchor="middle" x="699.37" y="-120.75" font-family="Helvetica,sans-Serif" font-size="10.00">cpu_conf.h</text>
</a>
</g>
</g>
<!-- Node3&#45;&gt;Node5 -->
<g id="edge4_Node000003_Node000005" class="edge">
<title>Node3&#45;&gt;Node5</title>
<g id="a_edge4_Node000003_Node000005"><a xlink:title=" ">
<path fill="none" stroke="#63b8ff" d="M632.03,-169.84C644.04,-161.82 661.28,-150.31 675.31,-140.94"/>
<polygon fill="#63b8ff" stroke="#63b8ff" points="677.2,-143.88 683.57,-135.42 673.31,-138.06 677.2,-143.88"/>
</a>
</g>
</g>
<!-- Node7 -->
<g id="Node000007" class="node">
<title>Node7</title>
<g id="a_Node000007"><a xlink:title=" ">
<polygon fill="#e0e0e0" stroke="#999999" points="238.74,-20.75 185.99,-20.75 185.99,0 238.74,0 238.74,-20.75"/>
<text text-anchor="middle" x="212.37" y="-7.25" font-family="Helvetica,sans-Serif" font-size="10.00">limits.h</text>
</a>
</g>
</g>
<!-- Node6&#45;&gt;Node7 -->
<g id="edge6_Node000006_Node000007" class="edge">
<title>Node6&#45;&gt;Node7</title>
<g id="a_edge6_Node000006_Node000007"><a xlink:title=" ">
<path fill="none" stroke="#63b8ff" d="M347.87,-56.34C320.5,-47.25 279.63,-33.69 249.93,-23.84"/>
<polygon fill="#63b8ff" stroke="#63b8ff" points="251.18,-20.57 240.59,-20.74 248.98,-27.21 251.18,-20.57"/>
</a>
</g>
</g>
<!-- Node8 -->
<g id="Node000008" class="node">
<title>Node8</title>
<g id="a_Node000008"><a xlink:title=" ">
<polygon fill="#e0e0e0" stroke="#999999" points="335.49,-20.75 257.24,-20.75 257.24,0 335.49,0 335.49,-20.75"/>
<text text-anchor="middle" x="296.37" y="-7.25" font-family="Helvetica,sans-Serif" font-size="10.00">periph_cpu.h</text>
</a>
</g>
</g>
<!-- Node6&#45;&gt;Node8 -->
<g id="edge7_Node000006_Node000008" class="edge">
<title>Node6&#45;&gt;Node8</title>
<g id="a_edge7_Node000006_Node000008"><a xlink:title=" ">
<path fill="none" stroke="#63b8ff" d="M362.88,-56.34C351.02,-48.32 333.99,-36.81 320.13,-27.44"/>
<polygon fill="#63b8ff" stroke="#63b8ff" points="322.22,-24.63 311.98,-21.93 318.3,-30.43 322.22,-24.63"/>
</a>
</g>
</g>
<!-- Node9 -->
<g id="Node000009" class="node">
<title>Node9</title>
<g id="a_Node000009"><a xlink:title=" ">
<polygon fill="#e0e0e0" stroke="#999999" points="434.99,-20.75 353.74,-20.75 353.74,0 434.99,0 434.99,-20.75"/>
<text text-anchor="middle" x="394.37" y="-7.25" font-family="Helvetica,sans-Serif" font-size="10.00">periph_conf.h</text>
</a>
</g>
</g>
<!-- Node6&#45;&gt;Node9 -->
<g id="edge8_Node000006_Node000009" class="edge">
<title>Node6&#45;&gt;Node9</title>
<g id="a_edge8_Node000006_Node000009"><a xlink:title=" ">
<path fill="none" stroke="#63b8ff" d="M380.41,-56.34C382.51,-49.56 385.38,-40.3 387.98,-31.94"/>
<polygon fill="#63b8ff" stroke="#63b8ff" points="391.28,-33.11 390.9,-22.52 384.6,-31.04 391.28,-33.11"/>
</a>
</g>
</g>
<!-- Node11 -->
<g id="Node000011" class="node">
<title>Node11</title>
<g id="a_Node000011"><a xlink:href="arduino__board__analog_8h.html" target="_top" xlink:title="Arduino analog pin map.">
<polygon fill="white" stroke="#666666" points="290.87,-134.25 157.87,-134.25 157.87,-113.5 290.87,-113.5 290.87,-134.25"/>
<text text-anchor="middle" x="224.37" y="-120.75" font-family="Helvetica,sans-Serif" font-size="10.00">arduino_board_analog.h</text>
</a>
</g>
</g>
<!-- Node10&#45;&gt;Node11 -->
<g id="edge10_Node000010_Node000011" class="edge">
<title>Node10&#45;&gt;Node11</title>
<g id="a_edge10_Node000010_Node000011"><a xlink:title=" ">
<path fill="none" stroke="#63b8ff" d="M283.49,-169.84C273.15,-161.97 258.4,-150.75 246.21,-141.49"/>
<polygon fill="#63b8ff" stroke="#63b8ff" points="248.41,-138.76 238.33,-135.49 244.17,-144.33 248.41,-138.76"/>
</a>
</g>
</g>
<!-- Node14 -->
<g id="Node000014" class="node">
<title>Node14</title>
<g id="a_Node000014"><a xlink:href="arduino__board__pins_8h.html" target="_top" xlink:title="Arduino digital pin map.">
<polygon fill="white" stroke="#666666" points="429.49,-134.25 309.24,-134.25 309.24,-113.5 429.49,-113.5 429.49,-134.25"/>
<text text-anchor="middle" x="369.37" y="-120.75" font-family="Helvetica,sans-Serif" font-size="10.00">arduino_board_pins.h</text>
</a>
</g>
</g>
<!-- Node10&#45;&gt;Node14 -->
<g id="edge17_Node000010_Node000014" class="edge">
<title>Node10&#45;&gt;Node14</title>
<g id="a_edge17_Node000010_Node000014"><a xlink:title=" ">
<path fill="none" stroke="#63b8ff" d="M309.42,-169.84C320.01,-161.9 335.16,-150.53 347.58,-141.21"/>
<polygon fill="#63b8ff" stroke="#63b8ff" points="349.32,-144.29 355.22,-135.49 345.12,-138.69 349.32,-144.29"/>
</a>
</g>
</g>
<!-- Node15 -->
<g id="Node000015" class="node">
<title>Node15</title>
<g id="a_Node000015"><a xlink:href="arduino__board__pwm_8h.html" target="_top" xlink:title="Mapping of Arduino digital pin numbers to PWM settings.">
<polygon fill="white" stroke="#666666" points="139.37,-134.25 15.37,-134.25 15.37,-113.5 139.37,-113.5 139.37,-134.25"/>
<text text-anchor="middle" x="77.37" y="-120.75" font-family="Helvetica,sans-Serif" font-size="10.00">arduino_board_pwm.h</text>
</a>
</g>
</g>
<!-- Node10&#45;&gt;Node15 -->
<g id="edge20_Node000010_Node000015" class="edge">
<title>Node10&#45;&gt;Node15</title>
<g id="a_edge20_Node000010_Node000015"><a xlink:title=" ">
<path fill="none" stroke="#63b8ff" d="M256.96,-169.77C220.79,-160.73 167.02,-147.29 127.75,-137.47"/>
<polygon fill="#63b8ff" stroke="#63b8ff" points="128.84,-134.14 118.29,-135.11 127.14,-140.93 128.84,-134.14"/>
</a>
</g>
</g>
<!-- Node12 -->
<g id="Node000012" class="node">
<title>Node12</title>
<g id="a_Node000012"><a xlink:href="adc_8h.html" target="_top" xlink:title="Low&#45;level ADC peripheral driver interface definitions.">
<polygon fill="white" stroke="#666666" points="319.37,-77.5 243.37,-77.5 243.37,-56.75 319.37,-56.75 319.37,-77.5"/>
<text text-anchor="middle" x="281.37" y="-64" font-family="Helvetica,sans-Serif" font-size="10.00">periph/adc.h</text>
</a>
</g>
</g>
<!-- Node11&#45;&gt;Node12 -->
<g id="edge11_Node000011_Node000012" class="edge">
<title>Node11&#45;&gt;Node12</title>
<g id="a_edge11_Node000011_Node000012"><a xlink:title=" ">
<path fill="none" stroke="#63b8ff" d="M234.56,-113.09C242.5,-105.46 253.73,-94.67 263.21,-85.57"/>
<polygon fill="#63b8ff" stroke="#63b8ff" points="265.38,-88.33 270.17,-78.88 260.54,-83.28 265.38,-88.33"/>
</a>
</g>
</g>
<!-- Node13 -->
<g id="Node000013" class="node">
<title>Node13</title>
<g id="a_Node000013"><a xlink:title=" ">
<polygon fill="#e0e0e0" stroke="#999999" points="225.24,-77.5 127.49,-77.5 127.49,-56.75 225.24,-56.75 225.24,-77.5"/>
<text text-anchor="middle" x="176.37" y="-64" font-family="Helvetica,sans-Serif" font-size="10.00">arduino_iomap.h</text>
</a>
</g>
</g>
<!-- Node11&#45;&gt;Node13 -->
<g id="edge16_Node000011_Node000013" class="edge">
<title>Node11&#45;&gt;Node13</title>
<g id="a_edge16_Node000011_Node000013"><a xlink:title=" ">
<path fill="none" stroke="#63b8ff" d="M215.78,-113.09C209.3,-105.69 200.21,-95.32 192.4,-86.41"/>
<polygon fill="#63b8ff" stroke="#63b8ff" points="195.09,-84.18 185.87,-78.97 189.83,-88.79 195.09,-84.18"/>
</a>
</g>
</g>
<!-- Node12&#45;&gt;Node2 -->
<g id="edge13_Node000012_Node000002" class="edge">
<title>Node12&#45;&gt;Node2</title>
<g id="a_edge13_Node000012_Node000002"><a xlink:title=" ">
<path fill="none" stroke="#63b8ff" d="M251.15,-56.34C222.74,-47.13 180.13,-33.33 149.62,-23.45"/>
<polygon fill="#63b8ff" stroke="#63b8ff" points="151.01,-20.22 140.42,-20.46 148.86,-26.88 151.01,-20.22"/>
</a>
</g>
</g>
<!-- Node12&#45;&gt;Node7 -->
<g id="edge12_Node000012_Node000007" class="edge">
<title>Node12&#45;&gt;Node7</title>
<g id="a_edge12_Node000012_Node000007"><a xlink:title=" ">
<path fill="none" stroke="#63b8ff" d="M269.03,-56.34C259.12,-48.47 244.98,-37.25 233.3,-27.99"/>
<polygon fill="#63b8ff" stroke="#63b8ff" points="235.79,-25.49 225.78,-22.02 231.44,-30.98 235.79,-25.49"/>
</a>
</g>
</g>
<!-- Node12&#45;&gt;Node8 -->
<g id="edge14_Node000012_Node000008" class="edge">
<title>Node12&#45;&gt;Node8</title>
<g id="a_edge14_Node000012_Node000008"><a xlink:title=" ">
<path fill="none" stroke="#63b8ff" d="M284.05,-56.34C285.9,-49.56 288.44,-40.3 290.73,-31.94"/>
<polygon fill="#63b8ff" stroke="#63b8ff" points="294.04,-33.11 293.31,-22.54 287.29,-31.26 294.04,-33.11"/>
</a>
</g>
</g>
<!-- Node12&#45;&gt;Node9 -->
<g id="edge15_Node000012_Node000009" class="edge">
<title>Node12&#45;&gt;Node9</title>
<g id="a_edge15_Node000012_Node000009"><a xlink:title=" ">
<path fill="none" stroke="#63b8ff" d="M301.57,-56.34C318.92,-47.93 344.2,-35.68 363.99,-26.09"/>
<polygon fill="#63b8ff" stroke="#63b8ff" points="365.5,-29.25 372.98,-21.74 362.45,-22.95 365.5,-29.25"/>
</a>
</g>
</g>
<!-- Node14&#45;&gt;Node6 -->
<g id="edge19_Node000014_Node000006" class="edge">
<title>Node14&#45;&gt;Node6</title>
<g id="a_edge19_Node000014_Node000006"><a xlink:title=" ">
<path fill="none" stroke="#63b8ff" d="M370.8,-113.09C371.77,-106.39 373.11,-97.26 374.32,-88.98"/>
<polygon fill="#63b8ff" stroke="#63b8ff" points="377.75,-89.73 375.73,-79.33 370.82,-88.71 377.75,-89.73"/>
</a>
</g>
</g>
<!-- Node14&#45;&gt;Node13 -->
<g id="edge18_Node000014_Node000013" class="edge">
<title>Node14&#45;&gt;Node13</title>
<g id="a_edge18_Node000014_Node000013"><a xlink:title=" ">
<path fill="none" stroke="#63b8ff" d="M334.86,-113.09C303.26,-104.12 256.28,-90.79 221.66,-80.98"/>
<polygon fill="#63b8ff" stroke="#63b8ff" points="222.93,-77.7 212.35,-78.33 221.02,-84.43 222.93,-77.7"/>
</a>
</g>
</g>
<!-- Node15&#45;&gt;Node13 -->
<g id="edge21_Node000015_Node000013" class="edge">
<title>Node15&#45;&gt;Node13</title>
<g id="a_edge21_Node000015_Node000013"><a xlink:title=" ">
<path fill="none" stroke="#63b8ff" d="M95.06,-113.09C109.99,-104.83 131.6,-92.88 148.79,-83.38"/>
<polygon fill="#63b8ff" stroke="#63b8ff" points="150.44,-86.46 157.5,-78.56 147.05,-80.34 150.44,-86.46"/>
</a>
</g>
</g>
<!-- Node16 -->
<g id="Node000016" class="node">
<title>Node16</title>
<g id="a_Node000016"><a xlink:href="pwm_8h.html" target="_top" xlink:title="Low&#45;level PWM peripheral driver interface definitions.">
<polygon fill="white" stroke="#666666" points="109.74,-77.5 26.99,-77.5 26.99,-56.75 109.74,-56.75 109.74,-77.5"/>
<text text-anchor="middle" x="68.37" y="-64" font-family="Helvetica,sans-Serif" font-size="10.00">periph/pwm.h</text>
</a>
</g>
</g>
<!-- Node15&#45;&gt;Node16 -->
<g id="edge22_Node000015_Node000016" class="edge">
<title>Node15&#45;&gt;Node16</title>
<g id="a_edge22_Node000015_Node000016"><a xlink:title=" ">
<path fill="none" stroke="#63b8ff" d="M75.76,-113.09C74.66,-106.39 73.16,-97.26 71.79,-88.98"/>
<polygon fill="#63b8ff" stroke="#63b8ff" points="75.28,-88.62 70.21,-79.32 68.37,-89.76 75.28,-88.62"/>
</a>
</g>
</g>
<!-- Node16&#45;&gt;Node2 -->
<g id="edge23_Node000016_Node000002" class="edge">
<title>Node16&#45;&gt;Node2</title>
<g id="a_edge23_Node000016_Node000002"><a xlink:title=" ">
<path fill="none" stroke="#63b8ff" d="M76.23,-56.34C82.11,-49.02 90.33,-38.79 97.45,-29.94"/>
<polygon fill="#63b8ff" stroke="#63b8ff" points="100.08,-32.25 103.62,-22.26 94.63,-27.86 100.08,-32.25"/>
</a>
</g>
</g>
<!-- Node16&#45;&gt;Node7 -->
<g id="edge24_Node000016_Node000007" class="edge">
<title>Node16&#45;&gt;Node7</title>
<g id="a_edge24_Node000016_Node000007"><a xlink:title=" ">
<path fill="none" stroke="#63b8ff" d="M94.11,-56.34C116.94,-47.66 150.54,-34.88 176.09,-25.17"/>
<polygon fill="#63b8ff" stroke="#63b8ff" points="177.33,-28.44 185.43,-21.62 174.84,-21.9 177.33,-28.44"/>
</a>
</g>
</g>
<!-- Node16&#45;&gt;Node8 -->
<g id="edge25_Node000016_Node000008" class="edge">
<title>Node16&#45;&gt;Node8</title>
<g id="a_edge25_Node000016_Node000008"><a xlink:title=" ">
<path fill="none" stroke="#63b8ff" d="M109.39,-56.27C147.59,-47.1 204.66,-33.4 245.7,-23.54"/>
<polygon fill="#63b8ff" stroke="#63b8ff" points="246.44,-26.96 255.34,-21.23 244.8,-20.16 246.44,-26.96"/>
</a>
</g>
</g>
<!-- Node16&#45;&gt;Node9 -->
<g id="edge26_Node000016_Node000009" class="edge">
<title>Node16&#45;&gt;Node9</title>
<g id="a_edge26_Node000016_Node000009"><a xlink:title=" ">
<path fill="none" stroke="#63b8ff" d="M110.09,-58.21C112.89,-57.71 115.67,-57.22 118.37,-56.75 215.06,-39.99 242.26,-38.23 342.23,-21.08"/>
<polygon fill="#63b8ff" stroke="#63b8ff" points="342.7,-24.55 351.96,-19.4 341.51,-17.65 342.7,-24.55"/>
</a>
</g>
</g>
<!-- Node18 -->
<g id="Node000018" class="node">
<title>Node18</title>
<g id="a_Node000018"><a xlink:href="ringbuffer_8h.html" target="_top" xlink:title="A utility for storing and retrieving byte data using a ring buffer.">
<polygon fill="white" stroke="#666666" points="507.87,-77.5 434.87,-77.5 434.87,-56.75 507.87,-56.75 507.87,-77.5"/>
<text text-anchor="middle" x="471.37" y="-64" font-family="Helvetica,sans-Serif" font-size="10.00">ringbuffer.h</text>
</a>
</g>
</g>
<!-- Node17&#45;&gt;Node18 -->
<g id="edge28_Node000017_Node000018" class="edge">
<title>Node17&#45;&gt;Node18</title>
<g id="a_edge28_Node000017_Node000018"><a xlink:title=" ">
<path fill="none" stroke="#63b8ff" d="M517.35,-113.09C509.63,-105.53 498.74,-94.89 489.49,-85.85"/>
<polygon fill="#63b8ff" stroke="#63b8ff" points="491.97,-83.37 482.37,-78.89 487.08,-88.38 491.97,-83.37"/>
</a>
</g>
</g>
<!-- Node19 -->
<g id="Node000019" class="node">
<title>Node19</title>
<g id="a_Node000019"><a xlink:href="drivers_2include_2periph_2uart_8h.html" target="_top" xlink:title="Low&#45;level UART peripheral driver interface definition.">
<polygon fill="white" stroke="#666666" points="604.49,-77.5 526.24,-77.5 526.24,-56.75 604.49,-56.75 604.49,-77.5"/>
<text text-anchor="middle" x="565.37" y="-64" font-family="Helvetica,sans-Serif" font-size="10.00">periph/uart.h</text>
</a>
</g>
</g>
<!-- Node17&#45;&gt;Node19 -->
<g id="edge29_Node000017_Node000019" class="edge">
<title>Node17&#45;&gt;Node19</title>
<g id="a_edge29_Node000017_Node000019"><a xlink:title=" ">
<path fill="none" stroke="#63b8ff" d="M534.16,-113.09C539.13,-105.92 546.04,-95.98 552.09,-87.26"/>
<polygon fill="#63b8ff" stroke="#63b8ff" points="554.94,-89.28 557.77,-79.07 549.19,-85.29 554.94,-89.28"/>
</a>
</g>
</g>
<!-- Node19&#45;&gt;Node2 -->
<g id="edge33_Node000019_Node000002" class="edge">
<title>Node19&#45;&gt;Node2</title>
<g id="a_edge33_Node000019_Node000002"><a xlink:title=" ">
<path fill="none" stroke="#63b8ff" d="M525.86,-58.13C522.99,-57.63 520.14,-57.17 517.37,-56.75 367.1,-34.16 328.15,-39.6 177.37,-20.75 168.63,-19.66 159.26,-18.37 150.42,-17.11"/>
<polygon fill="#63b8ff" stroke="#63b8ff" points="151.11,-13.67 140.71,-15.7 150.11,-20.6 151.11,-13.67"/>
</a>
</g>
</g>
<!-- Node19&#45;&gt;Node7 -->
<g id="edge31_Node000019_Node000007" class="edge">
<title>Node19&#45;&gt;Node7</title>
<g id="a_edge31_Node000019_Node000007"><a xlink:title=" ">
<path fill="none" stroke="#63b8ff" d="M525.85,-58.21C522.98,-57.7 520.13,-57.2 517.37,-56.75 401.83,-37.75 368.65,-43.62 250,-20.84"/>
<polygon fill="#63b8ff" stroke="#63b8ff" points="250.99,-17.47 240.5,-18.99 249.65,-24.34 250.99,-17.47"/>
</a>
</g>
</g>
<!-- Node19&#45;&gt;Node8 -->
<g id="edge34_Node000019_Node000008" class="edge">
<title>Node19&#45;&gt;Node8</title>
<g id="a_edge34_Node000019_Node000008"><a xlink:title=" ">
<path fill="none" stroke="#63b8ff" d="M525.96,-58.11C478.61,-48.47 399.07,-32.28 347.15,-21.71"/>
<polygon fill="#63b8ff" stroke="#63b8ff" points="347.85,-18.28 337.36,-19.72 346.46,-25.14 347.85,-18.28"/>
</a>
</g>
</g>
<!-- Node19&#45;&gt;Node9 -->
<g id="edge35_Node000019_Node000009" class="edge">
<title>Node19&#45;&gt;Node9</title>
<g id="a_edge35_Node000019_Node000009"><a xlink:title=" ">
<path fill="none" stroke="#63b8ff" d="M534.79,-56.34C507.16,-47.49 466.25,-34.39 435.7,-24.61"/>
<polygon fill="#63b8ff" stroke="#63b8ff" points="436.99,-21.35 426.4,-21.63 434.86,-28.01 436.99,-21.35"/>
</a>
</g>
</g>
<!-- Node20 -->
<g id="Node000020" class="node">
<title>Node20</title>
<g id="a_Node000020"><a xlink:href="errno_8h.html" target="_top" xlink:title=" ">
<polygon fill="white" stroke="#666666" points="554.62,-20.75 504.12,-20.75 504.12,0 554.62,0 554.62,-20.75"/>
<text text-anchor="middle" x="529.37" y="-7.25" font-family="Helvetica,sans-Serif" font-size="10.00">errno.h</text>
</a>
</g>
</g>
<!-- Node19&#45;&gt;Node20 -->
<g id="edge30_Node000019_Node000020" class="edge">
<title>Node19&#45;&gt;Node20</title>
<g id="a_edge30_Node000019_Node000020"><a xlink:title=" ">
<path fill="none" stroke="#63b8ff" d="M558.93,-56.34C554.22,-49.17 547.68,-39.23 541.95,-30.51"/>
<polygon fill="#63b8ff" stroke="#63b8ff" points="545,-28.78 536.58,-22.34 539.15,-32.62 545,-28.78"/>
</a>
</g>
</g>
<!-- Node21 -->
<g id="Node000021" class="node">
<title>Node21</title>
<g id="a_Node000021"><a xlink:title=" ">
<polygon fill="#e0e0e0" stroke="#999999" points="627.87,-20.75 572.87,-20.75 572.87,0 627.87,0 627.87,-20.75"/>
<text text-anchor="middle" x="600.37" y="-7.25" font-family="Helvetica,sans-Serif" font-size="10.00">stddef.h</text>
</a>
</g>
</g>
<!-- Node19&#45;&gt;Node21 -->
<g id="edge32_Node000019_Node000021" class="edge">
<title>Node19&#45;&gt;Node21</title>
<g id="a_edge32_Node000019_Node000021"><a xlink:title=" ">
<path fill="none" stroke="#63b8ff" d="M571.62,-56.34C576.2,-49.17 582.56,-39.23 588.14,-30.51"/>
<polygon fill="#63b8ff" stroke="#63b8ff" points="590.91,-32.66 593.35,-22.35 585.01,-28.89 590.91,-32.66"/>
</a>
</g>
</g>
</g>
</svg>
