<?xml version="1.0" encoding="UTF-8" standalone="no"?>
<!DOCTYPE svg PUBLIC "-//W3C//DTD SVG 1.1//EN"
 "http://www.w3.org/Graphics/SVG/1.1/DTD/svg11.dtd">
<!-- Generated by graphviz version 12.1.1 (0)
 -->
<!-- Title: drivers/include/arduino_pinmap.h Pages: 1 -->
<svg width="2220pt" height="193pt"
 viewBox="0.00 0.00 2220.00 193.25" xmlns="http://www.w3.org/2000/svg" xmlns:xlink="http://www.w3.org/1999/xlink">
<g id="graph0" class="graph" transform="scale(1 1) rotate(0) translate(4 189.25)">
<title>drivers/include/arduino_pinmap.h</title>
<!-- Node1 -->
<g id="Node000001" class="node">
<title>Node1</title>
<g id="a_Node000001"><a xlink:title="Compatibility wrapper for arduino_iomap.h.">
<polygon fill="#999999" stroke="#666666" points="1170.88,-185.25 1043.12,-185.25 1043.12,-151.75 1170.88,-151.75 1170.88,-185.25"/>
<text text-anchor="start" x="1051.12" y="-171.75" font-family="Helvetica,sans-Serif" font-size="10.00">drivers/include/arduino</text>
<text text-anchor="middle" x="1107" y="-159" font-family="Helvetica,sans-Serif" font-size="10.00">_pinmap.h</text>
</a>
</g>
</g>
<!-- Node2 -->
<g id="Node000002" class="node">
<title>Node2</title>
<g id="a_Node000002"><a xlink:href="arduino-mkr1000_2include_2board_8h.html" target="_top" xlink:title="Board specific definitions for the Arduino MKR1000 board.">
<polygon fill="white" stroke="#666666" points="136,-109.38 0,-109.38 0,-75.88 136,-75.88 136,-109.38"/>
<text text-anchor="start" x="8" y="-95.88" font-family="Helvetica,sans-Serif" font-size="10.00">boards/arduino&#45;mkr1000</text>
<text text-anchor="middle" x="68" y="-83.12" font-family="Helvetica,sans-Serif" font-size="10.00">/include/board.h</text>
</a>
</g>
</g>
<!-- Node1&#45;&gt;Node2 -->
<g id="edge1_Node000001_Node000002" class="edge">
<title>Node1&#45;&gt;Node2</title>
<g id="a_edge1_Node000001_Node000002"><a xlink:title=" ">
<path fill="none" stroke="#63b8ff" d="M1031.44,-165.64C835.62,-160.47 315.1,-144.38 145,-115.75 136.22,-114.27 127.02,-112.15 118.16,-109.8"/>
<polygon fill="#63b8ff" stroke="#63b8ff" points="1031.15,-169.14 1041.24,-165.9 1031.34,-162.14 1031.15,-169.14"/>
</a>
</g>
</g>
<!-- Node3 -->
<g id="Node000003" class="node">
<title>Node3</title>
<g id="a_Node000003"><a xlink:href="arduino-mkrfox1200_2include_2board_8h.html" target="_top" xlink:title="Board specific definitions for the Arduino MKRFOX1200 board.">
<polygon fill="white" stroke="#666666" points="305.88,-109.38 154.12,-109.38 154.12,-75.88 305.88,-75.88 305.88,-109.38"/>
<text text-anchor="start" x="162.12" y="-95.88" font-family="Helvetica,sans-Serif" font-size="10.00">boards/arduino&#45;mkrfox1200</text>
<text text-anchor="middle" x="230" y="-83.12" font-family="Helvetica,sans-Serif" font-size="10.00">/include/board.h</text>
</a>
</g>
</g>
<!-- Node1&#45;&gt;Node3 -->
<g id="edge2_Node000001_Node000003" class="edge">
<title>Node1&#45;&gt;Node3</title>
<g id="a_edge2_Node000001_Node000003"><a xlink:title=" ">
<path fill="none" stroke="#63b8ff" d="M1031.52,-167.31C890.06,-165.9 575.76,-157.82 315,-115.75 305.52,-114.22 295.55,-112.1 285.92,-109.78"/>
<polygon fill="#63b8ff" stroke="#63b8ff" points="1031.09,-170.8 1041.12,-167.39 1031.15,-163.8 1031.09,-170.8"/>
</a>
</g>
</g>
<!-- Node4 -->
<g id="Node000004" class="node">
<title>Node4</title>
<g id="a_Node000004"><a xlink:href="arduino-mkrwan1300_2include_2board_8h.html" target="_top" xlink:title="Support for the Arduino MKRWAN1300 board.">
<polygon fill="white" stroke="#666666" points="480.12,-109.38 323.88,-109.38 323.88,-75.88 480.12,-75.88 480.12,-109.38"/>
<text text-anchor="start" x="331.88" y="-95.88" font-family="Helvetica,sans-Serif" font-size="10.00">boards/arduino&#45;mkrwan1300</text>
<text text-anchor="middle" x="402" y="-83.12" font-family="Helvetica,sans-Serif" font-size="10.00">/include/board.h</text>
</a>
</g>
</g>
<!-- Node1&#45;&gt;Node4 -->
<g id="edge3_Node000001_Node000004" class="edge">
<title>Node1&#45;&gt;Node4</title>
<g id="a_edge3_Node000001_Node000004"><a xlink:title=" ">
<path fill="none" stroke="#63b8ff" d="M1031.67,-165.21C914.77,-160.75 682.96,-148.3 489,-115.75 479.62,-114.18 469.78,-112.1 460.22,-109.84"/>
<polygon fill="#63b8ff" stroke="#63b8ff" points="1031.32,-168.7 1041.44,-165.57 1031.58,-161.7 1031.32,-168.7"/>
</a>
</g>
</g>
<!-- Node5 -->
<g id="Node000005" class="node">
<title>Node5</title>
<g id="a_Node000005"><a xlink:href="arduino-mkrzero_2include_2board_8h.html" target="_top" xlink:title="Board specific definitions for the Arduino MKRZERO board.">
<polygon fill="white" stroke="#666666" points="631.5,-109.38 498.5,-109.38 498.5,-75.88 631.5,-75.88 631.5,-109.38"/>
<text text-anchor="start" x="506.5" y="-95.88" font-family="Helvetica,sans-Serif" font-size="10.00">boards/arduino&#45;mkrzero</text>
<text text-anchor="middle" x="565" y="-83.12" font-family="Helvetica,sans-Serif" font-size="10.00">/include/board.h</text>
</a>
</g>
</g>
<!-- Node1&#45;&gt;Node5 -->
<g id="edge4_Node000001_Node000005" class="edge">
<title>Node1&#45;&gt;Node5</title>
<g id="a_edge4_Node000001_Node000005"><a xlink:title=" ">
<path fill="none" stroke="#63b8ff" d="M1031.54,-163.14C938.87,-156.87 777.21,-142.93 641,-115.75 632.91,-114.14 624.44,-112.06 616.21,-109.84"/>
<polygon fill="#63b8ff" stroke="#63b8ff" points="1031.05,-166.62 1041.26,-163.79 1031.52,-159.63 1031.05,-166.62"/>
</a>
</g>
</g>
<!-- Node6 -->
<g id="Node000006" class="node">
<title>Node6</title>
<g id="a_Node000006"><a xlink:href="arduino-atmega_2include_2board__common_8h.html" target="_top" xlink:title="Common board configuration for Arduino Atmega boards.">
<polygon fill="white" stroke="#666666" points="784.25,-115.75 649.75,-115.75 649.75,-69.5 784.25,-69.5 784.25,-115.75"/>
<text text-anchor="start" x="657.75" y="-102.25" font-family="Helvetica,sans-Serif" font-size="10.00">boards/common/arduino</text>
<text text-anchor="start" x="657.75" y="-89.5" font-family="Helvetica,sans-Serif" font-size="10.00">&#45;atmega/include/board</text>
<text text-anchor="middle" x="717" y="-76.75" font-family="Helvetica,sans-Serif" font-size="10.00">_common.h</text>
</a>
</g>
</g>
<!-- Node1&#45;&gt;Node6 -->
<g id="edge5_Node000001_Node000006" class="edge">
<title>Node1&#45;&gt;Node6</title>
<g id="a_edge5_Node000001_Node000006"><a xlink:title=" ">
<path fill="none" stroke="#63b8ff" d="M1031.59,-157.54C967.9,-148.52 874.46,-133.9 794,-115.75 790.88,-115.05 787.7,-114.29 784.49,-113.5"/>
<polygon fill="#63b8ff" stroke="#63b8ff" points="1030.85,-160.97 1041.24,-158.89 1031.82,-154.03 1030.85,-160.97"/>
</a>
</g>
</g>
<!-- Node7 -->
<g id="Node000007" class="node">
<title>Node7</title>
<g id="a_Node000007"><a xlink:href="common_2arduino-due_2include_2board_8h.html" target="_top" xlink:title="Board specific definitions for the Arduino Due based boards.">
<polygon fill="white" stroke="#666666" points="937.25,-109.38 802.75,-109.38 802.75,-75.88 937.25,-75.88 937.25,-109.38"/>
<text text-anchor="start" x="810.75" y="-95.88" font-family="Helvetica,sans-Serif" font-size="10.00">boards/common/arduino</text>
<text text-anchor="middle" x="870" y="-83.12" font-family="Helvetica,sans-Serif" font-size="10.00">&#45;due/include/board.h</text>
</a>
</g>
</g>
<!-- Node1&#45;&gt;Node7 -->
<g id="edge6_Node000001_Node000007" class="edge">
<title>Node1&#45;&gt;Node7</title>
<g id="a_edge6_Node000001_Node000007"><a xlink:title=" ">
<path fill="none" stroke="#63b8ff" d="M1044.01,-147.86C1005.87,-135.98 957.83,-121 921.89,-109.8"/>
<polygon fill="#63b8ff" stroke="#63b8ff" points="1042.96,-151.2 1053.54,-150.84 1045.04,-144.52 1042.96,-151.2"/>
</a>
</g>
</g>
<!-- Node9 -->
<g id="Node000009" class="node">
<title>Node9</title>
<g id="a_Node000009"><a xlink:href="boards_2common_2arduino-due_2include_2sdcard__spi__params_8h.html" target="_top" xlink:title="SD card configuration for the Arduino SD card shields.">
<polygon fill="white" stroke="#666666" points="1090.25,-115.75 955.75,-115.75 955.75,-69.5 1090.25,-69.5 1090.25,-115.75"/>
<text text-anchor="start" x="963.75" y="-102.25" font-family="Helvetica,sans-Serif" font-size="10.00">boards/common/arduino</text>
<text text-anchor="start" x="963.75" y="-89.5" font-family="Helvetica,sans-Serif" font-size="10.00">&#45;due/include/sdcard_spi</text>
<text text-anchor="middle" x="1023" y="-76.75" font-family="Helvetica,sans-Serif" font-size="10.00">_params.h</text>
</a>
</g>
</g>
<!-- Node1&#45;&gt;Node9 -->
<g id="edge8_Node000001_Node000009" class="edge">
<title>Node1&#45;&gt;Node9</title>
<g id="a_edge8_Node000001_Node000009"><a xlink:title=" ">
<path fill="none" stroke="#63b8ff" d="M1080.27,-143.99C1070.11,-135.06 1058.57,-124.9 1048.52,-116.07"/>
<polygon fill="#63b8ff" stroke="#63b8ff" points="1077.82,-146.49 1087.64,-150.47 1082.44,-141.24 1077.82,-146.49"/>
</a>
</g>
</g>
<!-- Node10 -->
<g id="Node000010" class="node">
<title>Node10</title>
<g id="a_Node000010"><a xlink:href="arduino-mkr_2include_2board__common_8h.html" target="_top" xlink:title="Board specific definitions for the Arduino MKR board.">
<polygon fill="white" stroke="#666666" points="1273.62,-109.38 1108.38,-109.38 1108.38,-75.88 1273.62,-75.88 1273.62,-109.38"/>
<text text-anchor="start" x="1116.38" y="-95.88" font-family="Helvetica,sans-Serif" font-size="10.00">boards/common/arduino</text>
<text text-anchor="middle" x="1191" y="-83.12" font-family="Helvetica,sans-Serif" font-size="10.00">&#45;mkr/include/board_common.h</text>
</a>
</g>
</g>
<!-- Node1&#45;&gt;Node10 -->
<g id="edge9_Node000001_Node000010" class="edge">
<title>Node1&#45;&gt;Node10</title>
<g id="a_edge9_Node000001_Node000010"><a xlink:title=" ">
<path fill="none" stroke="#63b8ff" d="M1133.64,-144.07C1146.41,-132.84 1161.37,-119.69 1172.81,-109.62"/>
<polygon fill="#63b8ff" stroke="#63b8ff" points="1131.56,-141.24 1126.36,-150.47 1136.18,-146.49 1131.56,-141.24"/>
</a>
</g>
</g>
<!-- Node11 -->
<g id="Node000011" class="node">
<title>Node11</title>
<g id="a_Node000011"><a xlink:href="common_2arduino-zero_2include_2board_8h.html" target="_top" xlink:title="Board specific definitions for the Arduino Zero board and clones.">
<polygon fill="white" stroke="#666666" points="1426.25,-109.38 1291.75,-109.38 1291.75,-75.88 1426.25,-75.88 1426.25,-109.38"/>
<text text-anchor="start" x="1299.75" y="-95.88" font-family="Helvetica,sans-Serif" font-size="10.00">boards/common/arduino</text>
<text text-anchor="middle" x="1359" y="-83.12" font-family="Helvetica,sans-Serif" font-size="10.00">&#45;zero/include/board.h</text>
</a>
</g>
</g>
<!-- Node1&#45;&gt;Node11 -->
<g id="edge10_Node000001_Node000011" class="edge">
<title>Node1&#45;&gt;Node11</title>
<g id="a_edge10_Node000001_Node000011"><a xlink:title=" ">
<path fill="none" stroke="#63b8ff" d="M1173.2,-148.09C1213.87,-136.17 1265.37,-121.07 1303.83,-109.8"/>
<polygon fill="#63b8ff" stroke="#63b8ff" points="1172.37,-144.69 1163.75,-150.86 1174.34,-151.41 1172.37,-144.69"/>
</a>
</g>
</g>
<!-- Node13 -->
<g id="Node000013" class="node">
<title>Node13</title>
<g id="a_Node000013"><a xlink:href="arduino__board__common_8h.html" target="_top" xlink:title="Definitions for the Arduino API that are common for all ESP32x boards.">
<polygon fill="white" stroke="#666666" points="1577.5,-115.75 1444.5,-115.75 1444.5,-69.5 1577.5,-69.5 1577.5,-115.75"/>
<text text-anchor="start" x="1452.5" y="-102.25" font-family="Helvetica,sans-Serif" font-size="10.00">boards/common/esp32x</text>
<text text-anchor="start" x="1452.5" y="-89.5" font-family="Helvetica,sans-Serif" font-size="10.00">/include/arduino_board</text>
<text text-anchor="middle" x="1511" y="-76.75" font-family="Helvetica,sans-Serif" font-size="10.00">_common.h</text>
</a>
</g>
</g>
<!-- Node1&#45;&gt;Node13 -->
<g id="edge12_Node000001_Node000013" class="edge">
<title>Node1&#45;&gt;Node13</title>
<g id="a_edge12_Node000001_Node000013"><a xlink:title=" ">
<path fill="none" stroke="#63b8ff" d="M1182.51,-158.35C1249.32,-149.61 1349.24,-134.92 1435,-115.75 1438.08,-115.06 1441.23,-114.32 1444.4,-113.53"/>
<polygon fill="#63b8ff" stroke="#63b8ff" points="1182.22,-154.86 1172.75,-159.62 1183.12,-161.8 1182.22,-154.86"/>
</a>
</g>
</g>
<!-- Node14 -->
<g id="Node000014" class="node">
<title>Node14</title>
<g id="a_Node000014"><a xlink:href="common_2nucleo144_2include_2board_8h.html" target="_top" xlink:title="Common pin definitions and board configuration options.">
<polygon fill="white" stroke="#666666" points="1744,-109.38 1596,-109.38 1596,-75.88 1744,-75.88 1744,-109.38"/>
<text text-anchor="start" x="1604" y="-95.88" font-family="Helvetica,sans-Serif" font-size="10.00">boards/common/nucleo144</text>
<text text-anchor="middle" x="1670" y="-83.12" font-family="Helvetica,sans-Serif" font-size="10.00">/include/board.h</text>
</a>
</g>
</g>
<!-- Node1&#45;&gt;Node14 -->
<g id="edge13_Node000001_Node000014" class="edge">
<title>Node1&#45;&gt;Node14</title>
<g id="a_edge13_Node000001_Node000014"><a xlink:title=" ">
<path fill="none" stroke="#63b8ff" d="M1182.33,-162.96C1277.29,-156.42 1445.26,-142.12 1587,-115.75 1595.8,-114.11 1605.03,-112.03 1614.01,-109.8"/>
<polygon fill="#63b8ff" stroke="#63b8ff" points="1182.37,-159.45 1172.63,-163.62 1182.84,-166.43 1182.37,-159.45"/>
</a>
</g>
</g>
<!-- Node16 -->
<g id="Node000016" class="node">
<title>Node16</title>
<g id="a_Node000016"><a xlink:href="common_2nucleo32_2include_2board_8h.html" target="_top" xlink:title="Common pin definitions and board configuration options.">
<polygon fill="white" stroke="#666666" points="1904,-109.38 1762,-109.38 1762,-75.88 1904,-75.88 1904,-109.38"/>
<text text-anchor="start" x="1770" y="-95.88" font-family="Helvetica,sans-Serif" font-size="10.00">boards/common/nucleo32</text>
<text text-anchor="middle" x="1833" y="-83.12" font-family="Helvetica,sans-Serif" font-size="10.00">/include/board.h</text>
</a>
</g>
</g>
<!-- Node1&#45;&gt;Node16 -->
<g id="edge15_Node000001_Node000016" class="edge">
<title>Node1&#45;&gt;Node16</title>
<g id="a_edge15_Node000001_Node000016"><a xlink:title=" ">
<path fill="none" stroke="#63b8ff" d="M1182.58,-166.09C1303.79,-162.78 1548.8,-151.83 1753,-115.75 1761.8,-114.2 1771.03,-112.1 1779.96,-109.81"/>
<polygon fill="#63b8ff" stroke="#63b8ff" points="1182.65,-162.58 1172.75,-166.34 1182.84,-169.58 1182.65,-162.58"/>
</a>
</g>
</g>
<!-- Node18 -->
<g id="Node000018" class="node">
<title>Node18</title>
<g id="a_Node000018"><a xlink:href="common_2nucleo64_2include_2board_8h.html" target="_top" xlink:title="Common pin definitions and board configuration options.">
<polygon fill="white" stroke="#666666" points="2064,-109.38 1922,-109.38 1922,-75.88 2064,-75.88 2064,-109.38"/>
<text text-anchor="start" x="1930" y="-95.88" font-family="Helvetica,sans-Serif" font-size="10.00">boards/common/nucleo64</text>
<text text-anchor="middle" x="1993" y="-83.12" font-family="Helvetica,sans-Serif" font-size="10.00">/include/board.h</text>
</a>
</g>
</g>
<!-- Node1&#45;&gt;Node18 -->
<g id="edge17_Node000001_Node000018" class="edge">
<title>Node1&#45;&gt;Node18</title>
<g id="a_edge17_Node000001_Node000018"><a xlink:title=" ">
<path fill="none" stroke="#63b8ff" d="M1182.51,-167.81C1325.91,-167.25 1647.12,-160.56 1913,-115.75 1921.95,-114.24 1931.34,-112.14 1940.41,-109.82"/>
<polygon fill="#63b8ff" stroke="#63b8ff" points="1182.75,-164.31 1172.76,-167.83 1182.77,-171.31 1182.75,-164.31"/>
</a>
</g>
</g>
<!-- Node20 -->
<g id="Node000020" class="node">
<title>Node20</title>
<g id="a_Node000020"><a xlink:href="hifive1b_2include_2board_8h.html" target="_top" xlink:title="Board specific definitions for the SiFive HiFive1b RISC&#45;V board.">
<polygon fill="white" stroke="#666666" points="2212,-109.38 2082,-109.38 2082,-75.88 2212,-75.88 2212,-109.38"/>
<text text-anchor="start" x="2090" y="-95.88" font-family="Helvetica,sans-Serif" font-size="10.00">boards/hifive1b/include</text>
<text text-anchor="middle" x="2147" y="-83.12" font-family="Helvetica,sans-Serif" font-size="10.00">/board.h</text>
</a>
</g>
</g>
<!-- Node1&#45;&gt;Node20 -->
<g id="edge19_Node000001_Node000020" class="edge">
<title>Node1&#45;&gt;Node20</title>
<g id="a_edge19_Node000001_Node000020"><a xlink:title=" ">
<path fill="none" stroke="#63b8ff" d="M1182.54,-165.77C1378.95,-160.88 1902.24,-145.42 2073,-115.75 2081.46,-114.28 2090.31,-112.16 2098.83,-109.81"/>
<polygon fill="#63b8ff" stroke="#63b8ff" points="1182.62,-162.26 1172.71,-166.01 1182.79,-169.26 1182.62,-162.26"/>
</a>
</g>
</g>
<!-- Node8 -->
<g id="Node000008" class="node">
<title>Node8</title>
<g id="a_Node000008"><a xlink:href="common_2arduino-due_2include_2gpio__params_8h.html" target="_top" xlink:title="Board specific configuration of direct mapped GPIOs.">
<polygon fill="white" stroke="#666666" points="945.5,-33.5 794.5,-33.5 794.5,0 945.5,0 945.5,-33.5"/>
<text text-anchor="start" x="802.5" y="-20" font-family="Helvetica,sans-Serif" font-size="10.00">boards/common/arduino</text>
<text text-anchor="middle" x="870" y="-7.25" font-family="Helvetica,sans-Serif" font-size="10.00">&#45;due/include/gpio_params.h</text>
</a>
</g>
</g>
<!-- Node7&#45;&gt;Node8 -->
<g id="edge7_Node000007_Node000008" class="edge">
<title>Node7&#45;&gt;Node8</title>
<g id="a_edge7_Node000007_Node000008"><a xlink:title=" ">
<path fill="none" stroke="#63b8ff" d="M870,-64.24C870,-53.97 870,-42.65 870,-33.75"/>
<polygon fill="#63b8ff" stroke="#63b8ff" points="866.5,-64.08 870,-74.08 873.5,-64.08 866.5,-64.08"/>
</a>
</g>
</g>
<!-- Node12 -->
<g id="Node000012" class="node">
<title>Node12</title>
<g id="a_Node000012"><a xlink:href="common_2arduino-zero_2include_2gpio__params_8h.html" target="_top" xlink:title="Board specific configuration of direct mapped GPIOs.">
<polygon fill="white" stroke="#666666" points="1436,-33.5 1282,-33.5 1282,0 1436,0 1436,-33.5"/>
<text text-anchor="start" x="1290" y="-20" font-family="Helvetica,sans-Serif" font-size="10.00">boards/common/arduino</text>
<text text-anchor="middle" x="1359" y="-7.25" font-family="Helvetica,sans-Serif" font-size="10.00">&#45;zero/include/gpio_params.h</text>
</a>
</g>
</g>
<!-- Node11&#45;&gt;Node12 -->
<g id="edge11_Node000011_Node000012" class="edge">
<title>Node11&#45;&gt;Node12</title>
<g id="a_edge11_Node000011_Node000012"><a xlink:title=" ">
<path fill="none" stroke="#63b8ff" d="M1359,-64.24C1359,-53.97 1359,-42.65 1359,-33.75"/>
<polygon fill="#63b8ff" stroke="#63b8ff" points="1355.5,-64.08 1359,-74.08 1362.5,-64.08 1355.5,-64.08"/>
</a>
</g>
</g>
<!-- Node15 -->
<g id="Node000015" class="node">
<title>Node15</title>
<g id="a_Node000015"><a xlink:href="common_2nucleo144_2include_2gpio__params_8h.html" target="_top" xlink:title="Board specific configuration of direct mapped GPIOs.">
<polygon fill="white" stroke="#666666" points="1744,-33.5 1596,-33.5 1596,0 1744,0 1744,-33.5"/>
<text text-anchor="start" x="1604" y="-20" font-family="Helvetica,sans-Serif" font-size="10.00">boards/common/nucleo144</text>
<text text-anchor="middle" x="1670" y="-7.25" font-family="Helvetica,sans-Serif" font-size="10.00">/include/gpio_params.h</text>
</a>
</g>
</g>
<!-- Node14&#45;&gt;Node15 -->
<g id="edge14_Node000014_Node000015" class="edge">
<title>Node14&#45;&gt;Node15</title>
<g id="a_edge14_Node000014_Node000015"><a xlink:title=" ">
<path fill="none" stroke="#63b8ff" d="M1670,-64.24C1670,-53.97 1670,-42.65 1670,-33.75"/>
<polygon fill="#63b8ff" stroke="#63b8ff" points="1666.5,-64.08 1670,-74.08 1673.5,-64.08 1666.5,-64.08"/>
</a>
</g>
</g>
<!-- Node17 -->
<g id="Node000017" class="node">
<title>Node17</title>
<g id="a_Node000017"><a xlink:href="common_2nucleo32_2include_2gpio__params_8h.html" target="_top" xlink:title="Board specific configuration of direct mapped GPIOs.">
<polygon fill="white" stroke="#666666" points="1904,-33.5 1762,-33.5 1762,0 1904,0 1904,-33.5"/>
<text text-anchor="start" x="1770" y="-20" font-family="Helvetica,sans-Serif" font-size="10.00">boards/common/nucleo32</text>
<text text-anchor="middle" x="1833" y="-7.25" font-family="Helvetica,sans-Serif" font-size="10.00">/include/gpio_params.h</text>
</a>
</g>
</g>
<!-- Node16&#45;&gt;Node17 -->
<g id="edge16_Node000016_Node000017" class="edge">
<title>Node16&#45;&gt;Node17</title>
<g id="a_edge16_Node000016_Node000017"><a xlink:title=" ">
<path fill="none" stroke="#63b8ff" d="M1833,-64.24C1833,-53.97 1833,-42.65 1833,-33.75"/>
<polygon fill="#63b8ff" stroke="#63b8ff" points="1829.5,-64.08 1833,-74.08 1836.5,-64.08 1829.5,-64.08"/>
</a>
</g>
</g>
<!-- Node19 -->
<g id="Node000019" class="node">
<title>Node19</title>
<g id="a_Node000019"><a xlink:href="common_2nucleo64_2include_2gpio__params_8h.html" target="_top" xlink:title="Board specific configuration of direct mapped GPIOs.">
<polygon fill="white" stroke="#666666" points="2064,-33.5 1922,-33.5 1922,0 2064,0 2064,-33.5"/>
<text text-anchor="start" x="1930" y="-20" font-family="Helvetica,sans-Serif" font-size="10.00">boards/common/nucleo64</text>
<text text-anchor="middle" x="1993" y="-7.25" font-family="Helvetica,sans-Serif" font-size="10.00">/include/gpio_params.h</text>
</a>
</g>
</g>
<!-- Node18&#45;&gt;Node19 -->
<g id="edge18_Node000018_Node000019" class="edge">
<title>Node18&#45;&gt;Node19</title>
<g id="a_edge18_Node000018_Node000019"><a xlink:title=" ">
<path fill="none" stroke="#63b8ff" d="M1993,-64.24C1993,-53.97 1993,-42.65 1993,-33.75"/>
<polygon fill="#63b8ff" stroke="#63b8ff" points="1989.5,-64.08 1993,-74.08 1996.5,-64.08 1989.5,-64.08"/>
</a>
</g>
</g>
</g>
</svg>
