<?xml version="1.0" encoding="UTF-8" standalone="no"?>
<!DOCTYPE svg PUBLIC "-//W3C//DTD SVG 1.1//EN"
 "http://www.w3.org/Graphics/SVG/1.1/DTD/svg11.dtd">
<!-- Generated by graphviz version 12.1.1 (0)
 -->
<!-- Title: boards/arduino&#45;nano&#45;33&#45;ble&#45;sense/include/board.h Pages: 1 -->
<svg width="170pt" height="111pt"
 viewBox="0.00 0.00 169.50 111.00" xmlns="http://www.w3.org/2000/svg" xmlns:xlink="http://www.w3.org/1999/xlink">
<g id="graph0" class="graph" transform="scale(1 1) rotate(0) translate(4 107)">
<title>boards/arduino&#45;nano&#45;33&#45;ble&#45;sense/include/board.h</title>
<!-- Node1 -->
<g id="Node000001" class="node">
<title>Node1</title>
<g id="a_Node000001"><a xlink:title="Board specific configuration for the Arduino Nano 33 BLE sense.">
<polygon fill="#999999" stroke="#666666" points="126.62,-103 5.62,-103 5.62,-56.75 126.62,-56.75 126.62,-103"/>
<text text-anchor="start" x="13.62" y="-89.5" font-family="Helvetica,sans-Serif" font-size="10.00">boards/arduino&#45;nano</text>
<text text-anchor="start" x="13.62" y="-76.75" font-family="Helvetica,sans-Serif" font-size="10.00">&#45;33&#45;ble&#45;sense/include</text>
<text text-anchor="middle" x="66.12" y="-64" font-family="Helvetica,sans-Serif" font-size="10.00">/board.h</text>
</a>
</g>
</g>
<!-- Node2 -->
<g id="Node000002" class="node">
<title>Node2</title>
<g id="a_Node000002"><a xlink:title=" ">
<polygon fill="#e0e0e0" stroke="#999999" points="42.25,-20.75 0,-20.75 0,0 42.25,0 42.25,-20.75"/>
<text text-anchor="middle" x="21.12" y="-7.25" font-family="Helvetica,sans-Serif" font-size="10.00">cpu.h</text>
</a>
</g>
</g>
<!-- Node1&#45;&gt;Node2 -->
<g id="edge1_Node000001_Node000002" class="edge">
<title>Node1&#45;&gt;Node2</title>
<g id="a_edge1_Node000001_Node000002"><a xlink:title=" ">
<path fill="none" stroke="#63b8ff" d="M51.14,-56.4C45.59,-48.08 39.36,-38.73 34.01,-30.71"/>
<polygon fill="#63b8ff" stroke="#63b8ff" points="36.93,-28.78 28.47,-22.4 31.11,-32.66 36.93,-28.78"/>
</a>
</g>
</g>
<!-- Node3 -->
<g id="Node000003" class="node">
<title>Node3</title>
<g id="a_Node000003"><a xlink:title=" ">
<polygon fill="#e0e0e0" stroke="#999999" points="161.5,-20.75 60.75,-20.75 60.75,0 161.5,0 161.5,-20.75"/>
<text text-anchor="middle" x="111.12" y="-7.25" font-family="Helvetica,sans-Serif" font-size="10.00">board_common.h</text>
</a>
</g>
</g>
<!-- Node1&#45;&gt;Node3 -->
<g id="edge2_Node000001_Node000003" class="edge">
<title>Node1&#45;&gt;Node3</title>
<g id="a_edge2_Node000001_Node000003"><a xlink:title=" ">
<path fill="none" stroke="#63b8ff" d="M81.11,-56.4C86.66,-48.08 92.89,-38.73 98.24,-30.71"/>
<polygon fill="#63b8ff" stroke="#63b8ff" points="101.14,-32.66 103.78,-22.4 95.32,-28.78 101.14,-32.66"/>
</a>
</g>
</g>
</g>
</svg>
