<?xml version="1.0" encoding="UTF-8" standalone="no"?>
<!DOCTYPE svg PUBLIC "-//W3C//DTD SVG 1.1//EN"
 "http://www.w3.org/Graphics/SVG/1.1/DTD/svg11.dtd">
<!-- Generated by graphviz version 12.1.1 (0)
 -->
<!-- Title: cpu/arm7_common/include/arm7_common.h Pages: 1 -->
<svg width="156pt" height="155pt"
 viewBox="0.00 0.00 156.00 155.00" xmlns="http://www.w3.org/2000/svg" xmlns:xlink="http://www.w3.org/1999/xlink">
<g id="graph0" class="graph" transform="scale(1 1) rotate(0) translate(4 151)">
<title>cpu/arm7_common/include/arm7_common.h</title>
<!-- Node1 -->
<g id="Node000001" class="node">
<title>Node1</title>
<g id="a_Node000001"><a xlink:title="ARM7 CPU common declarations.">
<polygon fill="#999999" stroke="#666666" points="148,-147 0,-147 0,-113.5 148,-113.5 148,-147"/>
<text text-anchor="start" x="8" y="-133.5" font-family="Helvetica,sans-Serif" font-size="10.00">cpu/arm7_common/include</text>
<text text-anchor="middle" x="74" y="-120.75" font-family="Helvetica,sans-Serif" font-size="10.00">/arm7_common.h</text>
</a>
</g>
</g>
<!-- Node2 -->
<g id="Node000002" class="node">
<title>Node2</title>
<g id="a_Node000002"><a xlink:href="bitarithm_8h.html" target="_top" xlink:title="Helper functions for bit arithmetic.">
<polygon fill="white" stroke="#666666" points="109,-77.5 39,-77.5 39,-56.75 109,-56.75 109,-77.5"/>
<text text-anchor="middle" x="74" y="-64" font-family="Helvetica,sans-Serif" font-size="10.00">bitarithm.h</text>
</a>
</g>
</g>
<!-- Node1&#45;&gt;Node2 -->
<g id="edge1_Node000001_Node000002" class="edge">
<title>Node1&#45;&gt;Node2</title>
<g id="a_edge1_Node000001_Node000002"><a xlink:title=" ">
<path fill="none" stroke="#63b8ff" d="M74,-113.19C74,-105.85 74,-97.07 74,-89.21"/>
<polygon fill="#63b8ff" stroke="#63b8ff" points="77.5,-89.48 74,-79.48 70.5,-89.48 77.5,-89.48"/>
</a>
</g>
</g>
<!-- Node3 -->
<g id="Node000003" class="node">
<title>Node3</title>
<g id="a_Node000003"><a xlink:title=" ">
<polygon fill="#e0e0e0" stroke="#999999" points="61.38,-20.75 8.62,-20.75 8.62,0 61.38,0 61.38,-20.75"/>
<text text-anchor="middle" x="35" y="-7.25" font-family="Helvetica,sans-Serif" font-size="10.00">stdint.h</text>
</a>
</g>
</g>
<!-- Node2&#45;&gt;Node3 -->
<g id="edge2_Node000002_Node000003" class="edge">
<title>Node2&#45;&gt;Node3</title>
<g id="a_edge2_Node000002_Node000003"><a xlink:title=" ">
<path fill="none" stroke="#63b8ff" d="M67.03,-56.34C61.87,-49.1 54.68,-39.01 48.43,-30.22"/>
<polygon fill="#63b8ff" stroke="#63b8ff" points="51.44,-28.43 42.79,-22.31 45.74,-32.49 51.44,-28.43"/>
</a>
</g>
</g>
<!-- Node4 -->
<g id="Node000004" class="node">
<title>Node4</title>
<g id="a_Node000004"><a xlink:title=" ">
<polygon fill="#e0e0e0" stroke="#999999" points="146.88,-20.75 79.12,-20.75 79.12,0 146.88,0 146.88,-20.75"/>
<text text-anchor="middle" x="113" y="-7.25" font-family="Helvetica,sans-Serif" font-size="10.00">cpu_conf.h</text>
</a>
</g>
</g>
<!-- Node2&#45;&gt;Node4 -->
<g id="edge3_Node000002_Node000004" class="edge">
<title>Node2&#45;&gt;Node4</title>
<g id="a_edge3_Node000002_Node000004"><a xlink:title=" ">
<path fill="none" stroke="#63b8ff" d="M80.97,-56.34C86.13,-49.1 93.32,-39.01 99.57,-30.22"/>
<polygon fill="#63b8ff" stroke="#63b8ff" points="102.26,-32.49 105.21,-22.31 96.56,-28.43 102.26,-32.49"/>
</a>
</g>
</g>
</g>
</svg>
