<?xml version="1.0" encoding="UTF-8" standalone="no"?>
<!DOCTYPE svg PUBLIC "-//W3C//DTD SVG 1.1//EN"
 "http://www.w3.org/Graphics/SVG/1.1/DTD/svg11.dtd">
<!-- Generated by graphviz version 12.1.1 (0)
 -->
<!-- Title: cpu/arm7_common/include/arm7_common.h Pages: 1 -->
<svg width="740pt" height="250pt"
 viewBox="0.00 0.00 739.50 250.00" xmlns="http://www.w3.org/2000/svg" xmlns:xlink="http://www.w3.org/1999/xlink">
<g id="graph0" class="graph" transform="scale(1 1) rotate(0) translate(4 246)">
<title>cpu/arm7_common/include/arm7_common.h</title>
<!-- Node1 -->
<g id="Node000001" class="node">
<title>Node1</title>
<g id="a_Node000001"><a xlink:title="ARM7 CPU common declarations.">
<polygon fill="#999999" stroke="#666666" points="366.88,-242 218.88,-242 218.88,-208.5 366.88,-208.5 366.88,-242"/>
<text text-anchor="start" x="226.88" y="-228.5" font-family="Helvetica,sans-Serif" font-size="10.00">cpu/arm7_common/include</text>
<text text-anchor="middle" x="292.88" y="-215.75" font-family="Helvetica,sans-Serif" font-size="10.00">/arm7_common.h</text>
</a>
</g>
</g>
<!-- Node2 -->
<g id="Node000002" class="node">
<title>Node2</title>
<g id="a_Node000002"><a xlink:href="arm__cpu_8h_source.html" target="_top" xlink:title=" ">
<polygon fill="white" stroke="#666666" points="292.88,-172.5 144.88,-172.5 144.88,-139 292.88,-139 292.88,-172.5"/>
<text text-anchor="start" x="152.88" y="-159" font-family="Helvetica,sans-Serif" font-size="10.00">cpu/arm7_common/include</text>
<text text-anchor="middle" x="218.88" y="-146.25" font-family="Helvetica,sans-Serif" font-size="10.00">/arm_cpu.h</text>
</a>
</g>
</g>
<!-- Node1&#45;&gt;Node2 -->
<g id="edge1_Node000001_Node000002" class="edge">
<title>Node1&#45;&gt;Node2</title>
<g id="a_edge1_Node000001_Node000002"><a xlink:title=" ">
<path fill="none" stroke="#63b8ff" d="M266.9,-200.56C256.86,-191.4 245.62,-181.15 236.54,-172.87"/>
<polygon fill="#63b8ff" stroke="#63b8ff" points="264.47,-203.08 274.22,-207.23 269.19,-197.91 264.47,-203.08"/>
</a>
</g>
</g>
<!-- Node6 -->
<g id="Node000006" class="node">
<title>Node6</title>
<g id="a_Node000006"><a xlink:href="lpc23xx_8h_source.html" target="_top" xlink:title=" ">
<polygon fill="white" stroke="#666666" points="423.25,-172.5 310.5,-172.5 310.5,-139 423.25,-139 423.25,-172.5"/>
<text text-anchor="start" x="318.5" y="-159" font-family="Helvetica,sans-Serif" font-size="10.00">cpu/lpc23xx/include</text>
<text text-anchor="middle" x="366.88" y="-146.25" font-family="Helvetica,sans-Serif" font-size="10.00">/lpc23xx.h</text>
</a>
</g>
</g>
<!-- Node1&#45;&gt;Node6 -->
<g id="edge5_Node000001_Node000006" class="edge">
<title>Node1&#45;&gt;Node6</title>
<g id="a_edge5_Node000001_Node000006"><a xlink:title=" ">
<path fill="none" stroke="#63b8ff" d="M318.85,-200.56C328.89,-191.4 340.13,-181.15 349.21,-172.87"/>
<polygon fill="#63b8ff" stroke="#63b8ff" points="316.56,-197.91 311.53,-207.23 321.28,-203.08 316.56,-197.91"/>
</a>
</g>
</g>
<!-- Node3 -->
<g id="Node000003" class="node">
<title>Node3</title>
<g id="a_Node000003"><a xlink:href="arm7tdmi__gba_2include_2cpu_8h_source.html" target="_top" xlink:title=" ">
<polygon fill="white" stroke="#666666" points="145.75,-103 0,-103 0,-69.5 145.75,-69.5 145.75,-103"/>
<text text-anchor="start" x="8" y="-89.5" font-family="Helvetica,sans-Serif" font-size="10.00">cpu/arm7tdmi_gba/include</text>
<text text-anchor="middle" x="72.88" y="-76.75" font-family="Helvetica,sans-Serif" font-size="10.00">/cpu.h</text>
</a>
</g>
</g>
<!-- Node2&#45;&gt;Node3 -->
<g id="edge2_Node000002_Node000003" class="edge">
<title>Node2&#45;&gt;Node3</title>
<g id="a_edge2_Node000002_Node000003"><a xlink:title=" ">
<path fill="none" stroke="#63b8ff" d="M173.52,-133.78C152.34,-123.99 127.51,-112.51 107.81,-103.4"/>
<polygon fill="#63b8ff" stroke="#63b8ff" points="171.98,-136.93 182.53,-137.95 174.92,-130.57 171.98,-136.93"/>
</a>
</g>
</g>
<!-- Node4 -->
<g id="Node000004" class="node">
<title>Node4</title>
<g id="a_Node000004"><a xlink:href="lpc23xx_2include_2cpu_8h_source.html" target="_top" xlink:title=" ">
<polygon fill="white" stroke="#666666" points="276.25,-103 163.5,-103 163.5,-69.5 276.25,-69.5 276.25,-103"/>
<text text-anchor="start" x="171.5" y="-89.5" font-family="Helvetica,sans-Serif" font-size="10.00">cpu/lpc23xx/include</text>
<text text-anchor="middle" x="219.88" y="-76.75" font-family="Helvetica,sans-Serif" font-size="10.00">/cpu.h</text>
</a>
</g>
</g>
<!-- Node2&#45;&gt;Node4 -->
<g id="edge3_Node000002_Node000004" class="edge">
<title>Node2&#45;&gt;Node4</title>
<g id="a_edge3_Node000002_Node000004"><a xlink:title=" ">
<path fill="none" stroke="#63b8ff" d="M219.28,-127.31C219.4,-119.09 219.53,-110.34 219.64,-103.13"/>
<polygon fill="#63b8ff" stroke="#63b8ff" points="215.78,-127.19 219.13,-137.24 222.78,-127.29 215.78,-127.19"/>
</a>
</g>
</g>
<!-- Node5 -->
<g id="Node000005" class="node">
<title>Node5</title>
<g id="a_Node000005"><a xlink:href="lpc23xx_2include_2periph__cpu_8h.html" target="_top" xlink:title="CPU specific definitions for internal peripheral handling.">
<polygon fill="white" stroke="#666666" points="276.25,-33.5 163.5,-33.5 163.5,0 276.25,0 276.25,-33.5"/>
<text text-anchor="start" x="171.5" y="-20" font-family="Helvetica,sans-Serif" font-size="10.00">cpu/lpc23xx/include</text>
<text text-anchor="middle" x="219.88" y="-7.25" font-family="Helvetica,sans-Serif" font-size="10.00">/periph_cpu.h</text>
</a>
</g>
</g>
<!-- Node4&#45;&gt;Node5 -->
<g id="edge4_Node000004_Node000005" class="edge">
<title>Node4&#45;&gt;Node5</title>
<g id="a_edge4_Node000004_Node000005"><a xlink:title=" ">
<path fill="none" stroke="#63b8ff" d="M219.88,-57.81C219.88,-49.59 219.88,-40.84 219.88,-33.63"/>
<polygon fill="#63b8ff" stroke="#63b8ff" points="216.38,-57.74 219.88,-67.74 223.38,-57.74 216.38,-57.74"/>
</a>
</g>
</g>
<!-- Node6&#45;&gt;Node4 -->
<g id="edge11_Node000006_Node000004" class="edge">
<title>Node6&#45;&gt;Node4</title>
<g id="a_edge11_Node000006_Node000004"><a xlink:title=" ">
<path fill="none" stroke="#63b8ff" d="M321.21,-133.78C299.88,-123.99 274.88,-112.51 255.05,-103.4"/>
<polygon fill="#63b8ff" stroke="#63b8ff" points="319.74,-136.96 330.29,-137.95 322.66,-130.6 319.74,-136.96"/>
</a>
</g>
</g>
<!-- Node7 -->
<g id="Node000007" class="node">
<title>Node7</title>
<g id="a_Node000007"><a xlink:href="avsextrem_2include_2board_8h.html" target="_top" xlink:title="Boards specific drivers and configuration for the Avsextrem board.">
<polygon fill="white" stroke="#666666" points="437.25,-103 294.5,-103 294.5,-69.5 437.25,-69.5 437.25,-103"/>
<text text-anchor="start" x="302.5" y="-89.5" font-family="Helvetica,sans-Serif" font-size="10.00">boards/avsextrem/include</text>
<text text-anchor="middle" x="365.88" y="-76.75" font-family="Helvetica,sans-Serif" font-size="10.00">/board.h</text>
</a>
</g>
</g>
<!-- Node6&#45;&gt;Node7 -->
<g id="edge6_Node000006_Node000007" class="edge">
<title>Node6&#45;&gt;Node7</title>
<g id="a_edge6_Node000006_Node000007"><a xlink:title=" ">
<path fill="none" stroke="#63b8ff" d="M366.47,-127.31C366.35,-119.09 366.22,-110.34 366.11,-103.13"/>
<polygon fill="#63b8ff" stroke="#63b8ff" points="362.97,-127.29 366.62,-137.24 369.97,-127.19 362.97,-127.29"/>
</a>
</g>
</g>
<!-- Node8 -->
<g id="Node000008" class="node">
<title>Node8</title>
<g id="a_Node000008"><a xlink:href="mcb2388_2include_2board_8h.html" target="_top" xlink:title="Basic definitions for the MCB2388 board.">
<polygon fill="white" stroke="#666666" points="590.5,-103 455.25,-103 455.25,-69.5 590.5,-69.5 590.5,-103"/>
<text text-anchor="start" x="463.25" y="-89.5" font-family="Helvetica,sans-Serif" font-size="10.00">boards/mcb2388/include</text>
<text text-anchor="middle" x="522.88" y="-76.75" font-family="Helvetica,sans-Serif" font-size="10.00">/board.h</text>
</a>
</g>
</g>
<!-- Node6&#45;&gt;Node8 -->
<g id="edge7_Node000006_Node000008" class="edge">
<title>Node6&#45;&gt;Node8</title>
<g id="a_edge7_Node000006_Node000008"><a xlink:title=" ">
<path fill="none" stroke="#63b8ff" d="M414.72,-134.05C437.48,-124.2 464.31,-112.59 485.54,-103.4"/>
<polygon fill="#63b8ff" stroke="#63b8ff" points="413.42,-130.8 405.63,-137.98 416.2,-137.22 413.42,-130.8"/>
</a>
</g>
</g>
<!-- Node11 -->
<g id="Node000011" class="node">
<title>Node11</title>
<g id="a_Node000011"><a xlink:href="msba2_2include_2board_8h.html" target="_top" xlink:title="Basic definitions for the MSB&#45;A2 board.">
<polygon fill="white" stroke="#666666" points="731.5,-103 608.25,-103 608.25,-69.5 731.5,-69.5 731.5,-103"/>
<text text-anchor="start" x="616.25" y="-89.5" font-family="Helvetica,sans-Serif" font-size="10.00">boards/msba2/include</text>
<text text-anchor="middle" x="669.88" y="-76.75" font-family="Helvetica,sans-Serif" font-size="10.00">/board.h</text>
</a>
</g>
</g>
<!-- Node6&#45;&gt;Node11 -->
<g id="edge10_Node000006_Node000011" class="edge">
<title>Node6&#45;&gt;Node11</title>
<g id="a_edge10_Node000006_Node000011"><a xlink:title=" ">
<path fill="none" stroke="#63b8ff" d="M434.53,-139.77C481.04,-129.47 544.21,-115.44 599.88,-103 602.55,-102.4 605.28,-101.79 608.04,-101.17"/>
<polygon fill="#63b8ff" stroke="#63b8ff" points="433.87,-136.34 424.86,-141.92 435.38,-143.17 433.87,-136.34"/>
</a>
</g>
</g>
<!-- Node9 -->
<g id="Node000009" class="node">
<title>Node9</title>
<g id="a_Node000009"><a xlink:href="mcb2388_2include_2adc__params_8h.html" target="_top" xlink:title="Board specific configuration of direct mapped ADC.">
<polygon fill="white" stroke="#666666" points="513.5,-33.5 378.25,-33.5 378.25,0 513.5,0 513.5,-33.5"/>
<text text-anchor="start" x="386.25" y="-20" font-family="Helvetica,sans-Serif" font-size="10.00">boards/mcb2388/include</text>
<text text-anchor="middle" x="445.88" y="-7.25" font-family="Helvetica,sans-Serif" font-size="10.00">/adc_params.h</text>
</a>
</g>
</g>
<!-- Node8&#45;&gt;Node9 -->
<g id="edge8_Node000008_Node000009" class="edge">
<title>Node8&#45;&gt;Node9</title>
<g id="a_edge8_Node000008_Node000009"><a xlink:title=" ">
<path fill="none" stroke="#63b8ff" d="M496.17,-61.84C485.63,-52.6 473.8,-42.23 464.26,-33.87"/>
<polygon fill="#63b8ff" stroke="#63b8ff" points="493.66,-64.3 503.49,-68.26 498.28,-59.03 493.66,-64.3"/>
</a>
</g>
</g>
<!-- Node10 -->
<g id="Node000010" class="node">
<title>Node10</title>
<g id="a_Node000010"><a xlink:href="mcb2388_2include_2gpio__params_8h.html" target="_top" xlink:title="Board specific configuration of direct mapped GPIOs.">
<polygon fill="white" stroke="#666666" points="666.5,-33.5 531.25,-33.5 531.25,0 666.5,0 666.5,-33.5"/>
<text text-anchor="start" x="539.25" y="-20" font-family="Helvetica,sans-Serif" font-size="10.00">boards/mcb2388/include</text>
<text text-anchor="middle" x="598.88" y="-7.25" font-family="Helvetica,sans-Serif" font-size="10.00">/gpio_params.h</text>
</a>
</g>
</g>
<!-- Node8&#45;&gt;Node10 -->
<g id="edge9_Node000008_Node000010" class="edge">
<title>Node8&#45;&gt;Node10</title>
<g id="a_edge9_Node000008_Node000010"><a xlink:title=" ">
<path fill="none" stroke="#63b8ff" d="M549.24,-61.84C559.63,-52.6 571.31,-42.23 580.73,-33.87"/>
<polygon fill="#63b8ff" stroke="#63b8ff" points="547.17,-58.99 542.02,-68.25 551.82,-64.22 547.17,-58.99"/>
</a>
</g>
</g>
</g>
</svg>
