<?xml version="1.0" encoding="UTF-8" standalone="no"?>
<!DOCTYPE svg PUBLIC "-//W3C//DTD SVG 1.1//EN"
 "http://www.w3.org/Graphics/SVG/1.1/DTD/svg11.dtd">
<!-- Generated by graphviz version 12.1.1 (0)
 -->
<!-- Title: cpu/arm7_common/include/irq_arch.h Pages: 1 -->
<svg width="156pt" height="155pt"
 viewBox="0.00 0.00 156.00 155.00" xmlns="http://www.w3.org/2000/svg" xmlns:xlink="http://www.w3.org/1999/xlink">
<g id="graph0" class="graph" transform="scale(1 1) rotate(0) translate(4 151)">
<title>cpu/arm7_common/include/irq_arch.h</title>
<!-- Node1 -->
<g id="Node000001" class="node">
<title>Node1</title>
<g id="a_Node000001"><a xlink:title="Implementation of the kernels irq interface.">
<polygon fill="#999999" stroke="#666666" points="148,-147 0,-147 0,-113.5 148,-113.5 148,-147"/>
<text text-anchor="start" x="8" y="-133.5" font-family="Helvetica,sans-Serif" font-size="10.00">cpu/arm7_common/include</text>
<text text-anchor="middle" x="74" y="-120.75" font-family="Helvetica,sans-Serif" font-size="10.00">/irq_arch.h</text>
</a>
</g>
</g>
<!-- Node2 -->
<g id="Node000002" class="node">
<title>Node2</title>
<g id="a_Node000002"><a xlink:href="VIC_8h_source.html" target="_top" xlink:title=" ">
<polygon fill="white" stroke="#666666" points="70.75,-77.5 29.25,-77.5 29.25,-56.75 70.75,-56.75 70.75,-77.5"/>
<text text-anchor="middle" x="50" y="-64" font-family="Helvetica,sans-Serif" font-size="10.00">VIC.h</text>
</a>
</g>
</g>
<!-- Node1&#45;&gt;Node2 -->
<g id="edge1_Node000001_Node000002" class="edge">
<title>Node1&#45;&gt;Node2</title>
<g id="a_edge1_Node000001_Node000002"><a xlink:title=" ">
<path fill="none" stroke="#63b8ff" d="M67.69,-113.19C64.75,-105.68 61.2,-96.65 58.06,-88.65"/>
<polygon fill="#63b8ff" stroke="#63b8ff" points="61.33,-87.4 54.42,-79.38 54.81,-89.96 61.33,-87.4"/>
</a>
</g>
</g>
<!-- Node3 -->
<g id="Node000003" class="node">
<title>Node3</title>
<g id="a_Node000003"><a xlink:title=" ">
<polygon fill="#e0e0e0" stroke="#999999" points="104.5,-20.75 43.5,-20.75 43.5,0 104.5,0 104.5,-20.75"/>
<text text-anchor="middle" x="74" y="-7.25" font-family="Helvetica,sans-Serif" font-size="10.00">stdbool.h</text>
</a>
</g>
</g>
<!-- Node1&#45;&gt;Node3 -->
<g id="edge3_Node000001_Node000003" class="edge">
<title>Node1&#45;&gt;Node3</title>
<g id="a_edge3_Node000001_Node000003"><a xlink:title=" ">
<path fill="none" stroke="#63b8ff" d="M76.71,-113.14C78.85,-98.45 81.28,-76.16 80,-56.75 79.47,-48.73 78.42,-39.96 77.35,-32.29"/>
<polygon fill="#63b8ff" stroke="#63b8ff" points="80.84,-31.94 75.88,-22.57 73.91,-32.98 80.84,-31.94"/>
</a>
</g>
</g>
<!-- Node2&#45;&gt;Node3 -->
<g id="edge2_Node000002_Node000003" class="edge">
<title>Node2&#45;&gt;Node3</title>
<g id="a_edge2_Node000002_Node000003"><a xlink:title=" ">
<path fill="none" stroke="#63b8ff" d="M54.29,-56.34C57.33,-49.41 61.51,-39.87 65.24,-31.36"/>
<polygon fill="#63b8ff" stroke="#63b8ff" points="68.33,-33.03 69.14,-22.46 61.92,-30.22 68.33,-33.03"/>
</a>
</g>
</g>
</g>
</svg>
