<?xml version="1.0" encoding="UTF-8" standalone="no"?>
<!DOCTYPE svg PUBLIC "-//W3C//DTD SVG 1.1//EN"
 "http://www.w3.org/Graphics/SVG/1.1/DTD/svg11.dtd">
<!-- Generated by graphviz version 12.1.1 (0)
 -->
<!-- Title: drivers/at86rf2xx/include/at86rf2xx_params.h Pages: 1 -->
<svg width="1517pt" height="496pt"
 viewBox="0.00 0.00 1516.61 495.50" xmlns="http://www.w3.org/2000/svg" xmlns:xlink="http://www.w3.org/1999/xlink">
<g id="graph0" class="graph" transform="scale(1 1) rotate(0) translate(4 491.5)">
<title>drivers/at86rf2xx/include/at86rf2xx_params.h</title>
<!-- Node1 -->
<g id="Node000001" class="node">
<title>Node1</title>
<g id="a_Node000001"><a xlink:title="Default configuration for the AT86RF2xx driver.">
<polygon fill="#999999" stroke="#666666" points="844.36,-487.5 706.11,-487.5 706.11,-454 844.36,-454 844.36,-487.5"/>
<text text-anchor="start" x="714.11" y="-474" font-family="Helvetica,sans-Serif" font-size="10.00">drivers/at86rf2xx/include</text>
<text text-anchor="middle" x="775.24" y="-461.25" font-family="Helvetica,sans-Serif" font-size="10.00">/at86rf2xx_params.h</text>
</a>
</g>
</g>
<!-- Node2 -->
<g id="Node000002" class="node">
<title>Node2</title>
<g id="a_Node000002"><a xlink:href="at86rf2xx_8h.html" target="_top" xlink:title="Interface definition for AT86RF2xx based drivers.">
<polygon fill="white" stroke="#666666" points="779.36,-418 707.11,-418 707.11,-397.25 779.36,-397.25 779.36,-418"/>
<text text-anchor="middle" x="743.24" y="-404.5" font-family="Helvetica,sans-Serif" font-size="10.00">at86rf2xx.h</text>
</a>
</g>
</g>
<!-- Node1&#45;&gt;Node2 -->
<g id="edge1_Node000001_Node000002" class="edge">
<title>Node1&#45;&gt;Node2</title>
<g id="a_edge1_Node000001_Node000002"><a xlink:title=" ">
<path fill="none" stroke="#63b8ff" d="M766.83,-453.69C762.81,-446.01 757.95,-436.73 753.69,-428.59"/>
<polygon fill="#63b8ff" stroke="#63b8ff" points="756.83,-427.04 749.09,-419.81 750.63,-430.29 756.83,-427.04"/>
</a>
</g>
</g>
<!-- Node5 -->
<g id="Node000005" class="node">
<title>Node5</title>
<g id="a_Node000005"><a xlink:title=" ">
<polygon fill="#e0e0e0" stroke="#999999" points="1041.61,-361.25 988.86,-361.25 988.86,-340.5 1041.61,-340.5 1041.61,-361.25"/>
<text text-anchor="middle" x="1015.24" y="-347.75" font-family="Helvetica,sans-Serif" font-size="10.00">board.h</text>
</a>
</g>
</g>
<!-- Node1&#45;&gt;Node5 -->
<g id="edge72_Node000001_Node000005" class="edge">
<title>Node1&#45;&gt;Node5</title>
<g id="a_edge72_Node000001_Node000005"><a xlink:title=" ">
<path fill="none" stroke="#63b8ff" d="M808.1,-453.61C854.83,-430.66 939.81,-388.92 985.03,-366.71"/>
<polygon fill="#63b8ff" stroke="#63b8ff" points="986.57,-369.85 994,-362.3 983.48,-363.57 986.57,-369.85"/>
</a>
</g>
</g>
<!-- Node3 -->
<g id="Node000003" class="node">
<title>Node3</title>
<g id="a_Node000003"><a xlink:title=" ">
<polygon fill="#e0e0e0" stroke="#999999" points="814.61,-20.75 761.86,-20.75 761.86,0 814.61,0 814.61,-20.75"/>
<text text-anchor="middle" x="788.24" y="-7.25" font-family="Helvetica,sans-Serif" font-size="10.00">stdint.h</text>
</a>
</g>
</g>
<!-- Node2&#45;&gt;Node3 -->
<g id="edge2_Node000002_Node000003" class="edge">
<title>Node2&#45;&gt;Node3</title>
<g id="a_edge2_Node000002_Node000003"><a xlink:title=" ">
<path fill="none" stroke="#63b8ff" d="M706.66,-402.95C648.45,-394.87 541.24,-369.83 541.24,-295.12 541.24,-295.12 541.24,-295.12 541.24,-236.38 541.24,-146.27 558.61,-104.15 635.24,-56.75 670.91,-34.68 717.91,-22.85 750.35,-16.86"/>
<polygon fill="#63b8ff" stroke="#63b8ff" points="750.85,-20.32 760.11,-15.17 749.66,-13.43 750.85,-20.32"/>
</a>
</g>
</g>
<!-- Node4 -->
<g id="Node000004" class="node">
<title>Node4</title>
<g id="a_Node000004"><a xlink:title=" ">
<polygon fill="#e0e0e0" stroke="#999999" points="423.74,-134.25 362.74,-134.25 362.74,-113.5 423.74,-113.5 423.74,-134.25"/>
<text text-anchor="middle" x="393.24" y="-120.75" font-family="Helvetica,sans-Serif" font-size="10.00">stdbool.h</text>
</a>
</g>
</g>
<!-- Node2&#45;&gt;Node4 -->
<g id="edge3_Node000002_Node000004" class="edge">
<title>Node2&#45;&gt;Node4</title>
<g id="a_edge3_Node000002_Node000004"><a xlink:title=" ">
<path fill="none" stroke="#63b8ff" d="M706.95,-404.72C662.44,-401.13 585.71,-390.82 527.24,-361.25 487.88,-341.35 453.24,-339.23 453.24,-295.12 453.24,-295.12 453.24,-295.12 453.24,-236.38 453.24,-199.96 428.12,-163.99 410.39,-143.14"/>
<polygon fill="#63b8ff" stroke="#63b8ff" points="413.14,-140.96 403.88,-135.8 407.9,-145.6 413.14,-140.96"/>
</a>
</g>
</g>
<!-- Node2&#45;&gt;Node5 -->
<g id="edge4_Node000002_Node000005" class="edge">
<title>Node2&#45;&gt;Node5</title>
<g id="a_edge4_Node000002_Node000005"><a xlink:title=" ">
<path fill="none" stroke="#63b8ff" d="M779.49,-399.97C825.22,-391.47 906.22,-376.08 975.24,-361.25 976.05,-361.08 976.87,-360.9 977.69,-360.72"/>
<polygon fill="#63b8ff" stroke="#63b8ff" points="978.12,-364.21 987.11,-358.6 976.59,-357.38 978.12,-364.21"/>
</a>
</g>
</g>
<!-- Node6 -->
<g id="Node000006" class="node">
<title>Node6</title>
<g id="a_Node000006"><a xlink:href="kernel__defines_8h.html" target="_top" xlink:title="Common macros and compiler attributes/pragmas configuration.">
<polygon fill="white" stroke="#666666" points="771.36,-191 675.11,-191 675.11,-170.25 771.36,-170.25 771.36,-191"/>
<text text-anchor="middle" x="723.24" y="-177.5" font-family="Helvetica,sans-Serif" font-size="10.00">kernel_defines.h</text>
</a>
</g>
</g>
<!-- Node2&#45;&gt;Node6 -->
<g id="edge5_Node000002_Node000006" class="edge">
<title>Node2&#45;&gt;Node6</title>
<g id="a_edge5_Node000002_Node000006"><a xlink:title=" ">
<path fill="none" stroke="#63b8ff" d="M742.38,-396.96C739.37,-363.13 729.28,-249.61 725.09,-202.44"/>
<polygon fill="#63b8ff" stroke="#63b8ff" points="728.6,-202.42 724.23,-192.76 721.63,-203.04 728.6,-202.42"/>
</a>
</g>
</g>
<!-- Node13 -->
<g id="Node000013" class="node">
<title>Node13</title>
<g id="a_Node000013"><a xlink:href="drivers_2include_2net_2netdev_8h.html" target="_top" xlink:title="Definitions low&#45;level network driver interface.">
<polygon fill="white" stroke="#666666" points="832.61,-247.75 755.86,-247.75 755.86,-227 832.61,-227 832.61,-247.75"/>
<text text-anchor="middle" x="794.24" y="-234.25" font-family="Helvetica,sans-Serif" font-size="10.00">net/netdev.h</text>
</a>
</g>
</g>
<!-- Node2&#45;&gt;Node13 -->
<g id="edge16_Node000002_Node000013" class="edge">
<title>Node2&#45;&gt;Node13</title>
<g id="a_edge16_Node000002_Node000013"><a xlink:title=" ">
<path fill="none" stroke="#63b8ff" d="M746.12,-397.1C754.15,-370.62 776.87,-295.68 787.97,-259.05"/>
<polygon fill="#63b8ff" stroke="#63b8ff" points="791.26,-260.25 790.81,-249.67 784.56,-258.22 791.26,-260.25"/>
</a>
</g>
</g>
<!-- Node19 -->
<g id="Node000019" class="node">
<title>Node19</title>
<g id="a_Node000019"><a xlink:href="drivers_2include_2net_2netdev_2ieee802154_8h.html" target="_top" xlink:title="Definitions for netdev common IEEE 802.15.4 code.">
<polygon fill="white" stroke="#666666" points="932.99,-361.25 795.49,-361.25 795.49,-340.5 932.99,-340.5 932.99,-361.25"/>
<text text-anchor="middle" x="864.24" y="-347.75" font-family="Helvetica,sans-Serif" font-size="10.00">net/netdev/ieee802154.h</text>
</a>
</g>
</g>
<!-- Node2&#45;&gt;Node19 -->
<g id="edge30_Node000002_Node000019" class="edge">
<title>Node2&#45;&gt;Node19</title>
<g id="a_edge30_Node000002_Node000019"><a xlink:title=" ">
<path fill="none" stroke="#63b8ff" d="M764.87,-396.84C783.71,-388.31 811.27,-375.84 832.59,-366.19"/>
<polygon fill="#63b8ff" stroke="#63b8ff" points="833.74,-369.51 841.41,-362.2 830.86,-363.14 833.74,-369.51"/>
</a>
</g>
</g>
<!-- Node29 -->
<g id="Node000029" class="node">
<title>Node29</title>
<g id="a_Node000029"><a xlink:href="nettype_8h.html" target="_top" xlink:title="Protocol type definitions.">
<polygon fill="white" stroke="#666666" points="1303.86,-304.5 1198.61,-304.5 1198.61,-283.75 1303.86,-283.75 1303.86,-304.5"/>
<text text-anchor="middle" x="1251.24" y="-291" font-family="Helvetica,sans-Serif" font-size="10.00">net/gnrc/nettype.h</text>
</a>
</g>
</g>
<!-- Node2&#45;&gt;Node29 -->
<g id="edge58_Node000002_Node000029" class="edge">
<title>Node2&#45;&gt;Node29</title>
<g id="a_edge58_Node000002_Node000029"><a xlink:title=" ">
<path fill="none" stroke="#63b8ff" d="M779.7,-401.41C820.29,-394.9 887.39,-382.02 942.24,-361.25 960.23,-354.44 962.05,-346.79 980.24,-340.5 1048.67,-316.84 1131.23,-305.29 1187.1,-299.8"/>
<polygon fill="#63b8ff" stroke="#63b8ff" points="1187.12,-303.31 1196.75,-298.89 1186.46,-296.34 1187.12,-303.31"/>
</a>
</g>
</g>
<!-- Node33 -->
<g id="Node000033" class="node">
<title>Node33</title>
<g id="a_Node000033"><a xlink:href="spi_8h.html" target="_top" xlink:title="Low&#45;level SPI peripheral driver interface definition.">
<polygon fill="white" stroke="#666666" points="302.74,-191 229.74,-191 229.74,-170.25 302.74,-170.25 302.74,-191"/>
<text text-anchor="middle" x="266.24" y="-177.5" font-family="Helvetica,sans-Serif" font-size="10.00">periph/spi.h</text>
</a>
</g>
</g>
<!-- Node2&#45;&gt;Node33 -->
<g id="edge59_Node000002_Node000033" class="edge">
<title>Node2&#45;&gt;Node33</title>
<g id="a_edge59_Node000002_Node000033"><a xlink:title=" ">
<path fill="none" stroke="#63b8ff" d="M706.75,-404.13C636.49,-398.84 485.3,-385.01 439.24,-361.25 363.97,-322.43 302.72,-238.06 278.01,-200.42"/>
<polygon fill="#63b8ff" stroke="#63b8ff" points="281.2,-198.9 272.85,-192.39 275.31,-202.69 281.2,-198.9"/>
</a>
</g>
</g>
<!-- Node36 -->
<g id="Node000036" class="node">
<title>Node36</title>
<g id="a_Node000036"><a xlink:href="drivers_2include_2periph_2gpio_8h.html" target="_top" xlink:title="Low&#45;level GPIO peripheral driver interface definitions.">
<polygon fill="white" stroke="#666666" points="200.11,-134.25 120.36,-134.25 120.36,-113.5 200.11,-113.5 200.11,-134.25"/>
<text text-anchor="middle" x="160.24" y="-120.75" font-family="Helvetica,sans-Serif" font-size="10.00">periph/gpio.h</text>
</a>
</g>
</g>
<!-- Node2&#45;&gt;Node36 -->
<g id="edge71_Node000002_Node000036" class="edge">
<title>Node2&#45;&gt;Node36</title>
<g id="a_edge71_Node000002_Node000036"><a xlink:title=" ">
<path fill="none" stroke="#63b8ff" d="M706.8,-407.17C582.26,-408.09 181.24,-402.68 181.24,-295.12 181.24,-295.12 181.24,-295.12 181.24,-236.38 181.24,-204.28 172.73,-167.87 166.55,-145.65"/>
<polygon fill="#63b8ff" stroke="#63b8ff" points="169.91,-144.68 163.76,-136.06 163.19,-146.64 169.91,-144.68"/>
</a>
</g>
</g>
<!-- Node7 -->
<g id="Node000007" class="node">
<title>Node7</title>
<g id="a_Node000007"><a xlink:href="modules_8h.html" target="_top" xlink:title="Common macros and compiler attributes/pragmas configuration.">
<polygon fill="white" stroke="#666666" points="1059.74,-134.25 992.74,-134.25 992.74,-113.5 1059.74,-113.5 1059.74,-134.25"/>
<text text-anchor="middle" x="1026.24" y="-120.75" font-family="Helvetica,sans-Serif" font-size="10.00">modules.h</text>
</a>
</g>
</g>
<!-- Node6&#45;&gt;Node7 -->
<g id="edge6_Node000006_Node000007" class="edge">
<title>Node6&#45;&gt;Node7</title>
<g id="a_edge6_Node000006_Node000007"><a xlink:title=" ">
<path fill="none" stroke="#63b8ff" d="M771.58,-170.89C829.42,-160.44 925.45,-143.09 981.59,-132.94"/>
<polygon fill="#63b8ff" stroke="#63b8ff" points="981.9,-136.44 991.11,-131.22 980.65,-129.56 981.9,-136.44"/>
</a>
</g>
</g>
<!-- Node8 -->
<g id="Node000008" class="node">
<title>Node8</title>
<g id="a_Node000008"><a xlink:href="riot__version_8h.html" target="_top" xlink:title="Common macros and compiler attributes/pragmas configuration.">
<polygon fill="white" stroke="#666666" points="827.61,-134.25 744.86,-134.25 744.86,-113.5 827.61,-113.5 827.61,-134.25"/>
<text text-anchor="middle" x="786.24" y="-120.75" font-family="Helvetica,sans-Serif" font-size="10.00">riot_version.h</text>
</a>
</g>
</g>
<!-- Node6&#45;&gt;Node8 -->
<g id="edge7_Node000006_Node000008" class="edge">
<title>Node6&#45;&gt;Node8</title>
<g id="a_edge7_Node000006_Node000008"><a xlink:title=" ">
<path fill="none" stroke="#63b8ff" d="M734.5,-169.84C743.37,-162.13 755.95,-151.2 766.48,-142.04"/>
<polygon fill="#63b8ff" stroke="#63b8ff" points="768.68,-144.77 773.93,-135.57 764.08,-139.49 768.68,-144.77"/>
</a>
</g>
</g>
<!-- Node9 -->
<g id="Node000009" class="node">
<title>Node9</title>
<g id="a_Node000009"><a xlink:href="compiler__hints_8h.html" target="_top" xlink:title="Common macros and compiler attributes/pragmas configuration.">
<polygon fill="white" stroke="#666666" points="688.74,-134.25 591.74,-134.25 591.74,-113.5 688.74,-113.5 688.74,-134.25"/>
<text text-anchor="middle" x="640.24" y="-120.75" font-family="Helvetica,sans-Serif" font-size="10.00">compiler_hints.h</text>
</a>
</g>
</g>
<!-- Node6&#45;&gt;Node9 -->
<g id="edge9_Node000006_Node000009" class="edge">
<title>Node6&#45;&gt;Node9</title>
<g id="a_edge9_Node000006_Node000009"><a xlink:title=" ">
<path fill="none" stroke="#63b8ff" d="M708.4,-169.84C696.12,-161.74 678.45,-150.08 664.18,-140.67"/>
<polygon fill="#63b8ff" stroke="#63b8ff" points="666.48,-138 656.21,-135.41 662.63,-143.84 666.48,-138"/>
</a>
</g>
</g>
<!-- Node11 -->
<g id="Node000011" class="node">
<title>Node11</title>
<g id="a_Node000011"><a xlink:href="container_8h.html" target="_top" xlink:title="Common macros and compiler attributes/pragmas configuration.">
<polygon fill="white" stroke="#666666" points="563.61,-77.5 492.86,-77.5 492.86,-56.75 563.61,-56.75 563.61,-77.5"/>
<text text-anchor="middle" x="528.24" y="-64" font-family="Helvetica,sans-Serif" font-size="10.00">container.h</text>
</a>
</g>
</g>
<!-- Node6&#45;&gt;Node11 -->
<g id="edge13_Node000006_Node000011" class="edge">
<title>Node6&#45;&gt;Node11</title>
<g id="a_edge13_Node000006_Node000011"><a xlink:title=" ">
<path fill="none" stroke="#63b8ff" d="M674.79,-171.24C646.06,-164.58 609.96,-153.16 582.24,-134.25 564.3,-122.02 549.22,-102.14 539.59,-87.37"/>
<polygon fill="#63b8ff" stroke="#63b8ff" points="542.63,-85.63 534.38,-78.98 536.68,-89.32 542.63,-85.63"/>
</a>
</g>
</g>
<!-- Node8&#45;&gt;Node3 -->
<g id="edge8_Node000008_Node000003" class="edge">
<title>Node8&#45;&gt;Node3</title>
<g id="a_edge8_Node000008_Node000003"><a xlink:title=" ">
<path fill="none" stroke="#63b8ff" d="M789.55,-113.28C792.5,-104.2 796.6,-90.11 798.24,-77.5 800.21,-62.32 797.5,-45.23 794.4,-32.23"/>
<polygon fill="#63b8ff" stroke="#63b8ff" points="797.81,-31.44 791.85,-22.68 791.05,-33.24 797.81,-31.44"/>
</a>
</g>
</g>
<!-- Node9&#45;&gt;Node3 -->
<g id="edge12_Node000009_Node000003" class="edge">
<title>Node9&#45;&gt;Node3</title>
<g id="a_edge12_Node000009_Node000003"><a xlink:title=" ">
<path fill="none" stroke="#63b8ff" d="M638.43,-113.1C636.43,-98.98 635.01,-72.82 648.24,-56.75 672.97,-26.71 717.83,-16.35 750.11,-12.89"/>
<polygon fill="#63b8ff" stroke="#63b8ff" points="750.2,-16.4 759.86,-12.04 749.59,-9.42 750.2,-16.4"/>
</a>
</g>
</g>
<!-- Node10 -->
<g id="Node000010" class="node">
<title>Node10</title>
<g id="a_Node000010"><a xlink:href="assert_8h.html" target="_top" xlink:title="POSIX.1&#45;2008 compliant version of the assert macro.">
<polygon fill="white" stroke="#666666" points="712.74,-77.5 657.74,-77.5 657.74,-56.75 712.74,-56.75 712.74,-77.5"/>
<text text-anchor="middle" x="685.24" y="-64" font-family="Helvetica,sans-Serif" font-size="10.00">assert.h</text>
</a>
</g>
</g>
<!-- Node9&#45;&gt;Node10 -->
<g id="edge10_Node000009_Node000010" class="edge">
<title>Node9&#45;&gt;Node10</title>
<g id="a_edge10_Node000009_Node000010"><a xlink:title=" ">
<path fill="none" stroke="#63b8ff" d="M648.28,-113.09C654.3,-105.77 662.7,-95.54 669.98,-86.69"/>
<polygon fill="#63b8ff" stroke="#63b8ff" points="672.65,-88.95 676.3,-79 667.25,-84.5 672.65,-88.95"/>
</a>
</g>
</g>
<!-- Node10&#45;&gt;Node3 -->
<g id="edge11_Node000010_Node000003" class="edge">
<title>Node10&#45;&gt;Node3</title>
<g id="a_edge11_Node000010_Node000003"><a xlink:title=" ">
<path fill="none" stroke="#63b8ff" d="M703.65,-56.34C719.32,-48.01 742.08,-35.91 760.05,-26.36"/>
<polygon fill="#63b8ff" stroke="#63b8ff" points="761.46,-29.57 768.65,-21.79 758.17,-23.39 761.46,-29.57"/>
</a>
</g>
</g>
<!-- Node11&#45;&gt;Node3 -->
<g id="edge15_Node000011_Node000003" class="edge">
<title>Node11&#45;&gt;Node3</title>
<g id="a_edge15_Node000011_Node000003"><a xlink:title=" ">
<path fill="none" stroke="#63b8ff" d="M563.84,-58.63C612.87,-48.3 700.77,-29.79 750.76,-19.27"/>
<polygon fill="#63b8ff" stroke="#63b8ff" points="751.18,-22.76 760.24,-17.27 749.73,-15.91 751.18,-22.76"/>
</a>
</g>
</g>
<!-- Node12 -->
<g id="Node000012" class="node">
<title>Node12</title>
<g id="a_Node000012"><a xlink:title=" ">
<polygon fill="#e0e0e0" stroke="#999999" points="377.74,-20.75 322.74,-20.75 322.74,0 377.74,0 377.74,-20.75"/>
<text text-anchor="middle" x="350.24" y="-7.25" font-family="Helvetica,sans-Serif" font-size="10.00">stddef.h</text>
</a>
</g>
</g>
<!-- Node11&#45;&gt;Node12 -->
<g id="edge14_Node000011_Node000012" class="edge">
<title>Node11&#45;&gt;Node12</title>
<g id="a_edge14_Node000011_Node000012"><a xlink:title=" ">
<path fill="none" stroke="#63b8ff" d="M496.41,-56.34C466.27,-47.06 420.95,-33.12 388.77,-23.23"/>
<polygon fill="#63b8ff" stroke="#63b8ff" points="390.02,-19.95 379.43,-20.35 387.96,-26.64 390.02,-19.95"/>
</a>
</g>
</g>
<!-- Node13&#45;&gt;Node3 -->
<g id="edge17_Node000013_Node000003" class="edge">
<title>Node13&#45;&gt;Node3</title>
<g id="a_edge17_Node000013_Node000003"><a xlink:title=" ">
<path fill="none" stroke="#63b8ff" d="M797.32,-226.82C801.59,-213.85 809.75,-190 818.24,-170.25 825.3,-153.81 832.13,-151.66 836.24,-134.25 838.36,-125.27 838.07,-122.54 836.24,-113.5 830.03,-82.88 812.93,-50.78 800.92,-30.93"/>
<polygon fill="#63b8ff" stroke="#63b8ff" points="803.94,-29.15 795.67,-22.53 798,-32.86 803.94,-29.15"/>
</a>
</g>
</g>
<!-- Node13&#45;&gt;Node6 -->
<g id="edge29_Node000013_Node000006" class="edge">
<title>Node13&#45;&gt;Node6</title>
<g id="a_edge29_Node000013_Node000006"><a xlink:title=" ">
<path fill="none" stroke="#63b8ff" d="M781.54,-226.59C771.35,-218.72 756.79,-207.5 744.78,-198.24"/>
<polygon fill="#63b8ff" stroke="#63b8ff" points="747.07,-195.59 737.02,-192.25 742.8,-201.13 747.07,-195.59"/>
</a>
</g>
</g>
<!-- Node14 -->
<g id="Node000014" class="node">
<title>Node14</title>
<g id="a_Node000014"><a xlink:href="errno_8h.html" target="_top" xlink:title=" ">
<polygon fill="white" stroke="#666666" points="344.49,-134.25 293.99,-134.25 293.99,-113.5 344.49,-113.5 344.49,-134.25"/>
<text text-anchor="middle" x="319.24" y="-120.75" font-family="Helvetica,sans-Serif" font-size="10.00">errno.h</text>
</a>
</g>
</g>
<!-- Node13&#45;&gt;Node14 -->
<g id="edge18_Node000013_Node000014" class="edge">
<title>Node13&#45;&gt;Node14</title>
<g id="a_edge18_Node000013_Node000014"><a xlink:title=" ">
<path fill="none" stroke="#63b8ff" d="M755.47,-227.97C680.34,-211.55 509.47,-173.61 355.85,-134.85"/>
<polygon fill="#63b8ff" stroke="#63b8ff" points="356.85,-131.49 346.29,-132.42 355.13,-138.27 356.85,-131.49"/>
</a>
</g>
</g>
<!-- Node15 -->
<g id="Node000015" class="node">
<title>Node15</title>
<g id="a_Node000015"><a xlink:href="iolist_8h.html" target="_top" xlink:title="iolist scatter / gather IO">
<polygon fill="white" stroke="#666666" points="656.74,-191 607.74,-191 607.74,-170.25 656.74,-170.25 656.74,-191"/>
<text text-anchor="middle" x="632.24" y="-177.5" font-family="Helvetica,sans-Serif" font-size="10.00">iolist.h</text>
</a>
</g>
</g>
<!-- Node13&#45;&gt;Node15 -->
<g id="edge19_Node000013_Node000015" class="edge">
<title>Node13&#45;&gt;Node15</title>
<g id="a_edge19_Node000013_Node000015"><a xlink:title=" ">
<path fill="none" stroke="#63b8ff" d="M765.27,-226.59C738,-217.37 697.07,-203.54 667.82,-193.65"/>
<polygon fill="#63b8ff" stroke="#63b8ff" points="669.26,-190.44 658.66,-190.56 667.02,-197.07 669.26,-190.44"/>
</a>
</g>
</g>
<!-- Node18 -->
<g id="Node000018" class="node">
<title>Node18</title>
<g id="a_Node000018"><a xlink:href="netopt_8h.html" target="_top" xlink:title="Definition of global configuration options.">
<polygon fill="white" stroke="#666666" points="902.86,-191 827.61,-191 827.61,-170.25 902.86,-170.25 902.86,-191"/>
<text text-anchor="middle" x="865.24" y="-177.5" font-family="Helvetica,sans-Serif" font-size="10.00">net/netopt.h</text>
</a>
</g>
</g>
<!-- Node13&#45;&gt;Node18 -->
<g id="edge26_Node000013_Node000018" class="edge">
<title>Node13&#45;&gt;Node18</title>
<g id="a_edge26_Node000013_Node000018"><a xlink:title=" ">
<path fill="none" stroke="#63b8ff" d="M806.93,-226.59C817.13,-218.72 831.68,-207.5 843.69,-198.24"/>
<polygon fill="#63b8ff" stroke="#63b8ff" points="845.67,-201.13 851.45,-192.25 841.4,-195.59 845.67,-201.13"/>
</a>
</g>
</g>
<!-- Node16 -->
<g id="Node000016" class="node">
<title>Node16</title>
<g id="a_Node000016"><a xlink:href="unistd_8h_source.html" target="_top" xlink:title=" ">
<polygon fill="white" stroke="#666666" points="496.74,-134.25 441.74,-134.25 441.74,-113.5 496.74,-113.5 496.74,-134.25"/>
<text text-anchor="middle" x="469.24" y="-120.75" font-family="Helvetica,sans-Serif" font-size="10.00">unistd.h</text>
</a>
</g>
</g>
<!-- Node15&#45;&gt;Node16 -->
<g id="edge20_Node000015_Node000016" class="edge">
<title>Node15&#45;&gt;Node16</title>
<g id="a_edge20_Node000015_Node000016"><a xlink:title=" ">
<path fill="none" stroke="#63b8ff" d="M607.48,-171.31C580.99,-162.41 538.61,-148.18 507.76,-137.81"/>
<polygon fill="#63b8ff" stroke="#63b8ff" points="508.99,-134.54 498.39,-134.67 506.76,-141.17 508.99,-134.54"/>
</a>
</g>
</g>
<!-- Node16&#45;&gt;Node3 -->
<g id="edge22_Node000016_Node000003" class="edge">
<title>Node16&#45;&gt;Node3</title>
<g id="a_edge22_Node000016_Node000003"><a xlink:title=" ">
<path fill="none" stroke="#63b8ff" d="M468.33,-113.15C467.58,-98.6 468.53,-71.32 484.24,-56.75 522.22,-21.51 677.5,-13.62 750.27,-11.87"/>
<polygon fill="#63b8ff" stroke="#63b8ff" points="750.19,-15.37 760.11,-11.66 750.04,-8.37 750.19,-15.37"/>
</a>
</g>
</g>
<!-- Node16&#45;&gt;Node12 -->
<g id="edge21_Node000016_Node000012" class="edge">
<title>Node16&#45;&gt;Node12</title>
<g id="a_edge21_Node000016_Node000012"><a xlink:title=" ">
<path fill="none" stroke="#63b8ff" d="M441.31,-115.29C411.38,-106.57 366.74,-91.62 356.24,-77.5 346.66,-64.63 345.72,-46.2 346.86,-32.06"/>
<polygon fill="#63b8ff" stroke="#63b8ff" points="350.29,-32.85 348.05,-22.5 343.34,-31.99 350.29,-32.85"/>
</a>
</g>
</g>
<!-- Node17 -->
<g id="Node000017" class="node">
<title>Node17</title>
<g id="a_Node000017"><a xlink:href="cpu_2avr8__common_2avr__libc__extra_2include_2sys_2types_8h_source.html" target="_top" xlink:title=" ">
<polygon fill="white" stroke="#666666" points="436.99,-77.5 365.49,-77.5 365.49,-56.75 436.99,-56.75 436.99,-77.5"/>
<text text-anchor="middle" x="401.24" y="-64" font-family="Helvetica,sans-Serif" font-size="10.00">sys/types.h</text>
</a>
</g>
</g>
<!-- Node16&#45;&gt;Node17 -->
<g id="edge23_Node000016_Node000017" class="edge">
<title>Node16&#45;&gt;Node17</title>
<g id="a_edge23_Node000016_Node000017"><a xlink:title=" ">
<path fill="none" stroke="#63b8ff" d="M457.08,-113.09C447.41,-105.3 433.65,-94.22 422.21,-85.01"/>
<polygon fill="#63b8ff" stroke="#63b8ff" points="424.45,-82.32 414.47,-78.78 420.06,-87.78 424.45,-82.32"/>
</a>
</g>
</g>
<!-- Node17&#45;&gt;Node3 -->
<g id="edge24_Node000017_Node000003" class="edge">
<title>Node17&#45;&gt;Node3</title>
<g id="a_edge24_Node000017_Node000003"><a xlink:title=" ">
<path fill="none" stroke="#63b8ff" d="M437.25,-59.14C441.95,-58.3 446.7,-57.48 451.24,-56.75 559.38,-39.34 687.79,-23.33 750.28,-15.84"/>
<polygon fill="#63b8ff" stroke="#63b8ff" points="750.5,-19.34 760.02,-14.68 749.67,-12.39 750.5,-19.34"/>
</a>
</g>
</g>
<!-- Node17&#45;&gt;Node12 -->
<g id="edge25_Node000017_Node000012" class="edge">
<title>Node17&#45;&gt;Node12</title>
<g id="a_edge25_Node000017_Node000012"><a xlink:title=" ">
<path fill="none" stroke="#63b8ff" d="M392.12,-56.34C385.16,-48.86 375.37,-38.36 367.01,-29.38"/>
<polygon fill="#63b8ff" stroke="#63b8ff" points="369.68,-27.12 360.31,-22.19 364.56,-31.89 369.68,-27.12"/>
</a>
</g>
</g>
<!-- Node18&#45;&gt;Node3 -->
<g id="edge27_Node000018_Node000003" class="edge">
<title>Node18&#45;&gt;Node3</title>
<g id="a_edge27_Node000018_Node000003"><a xlink:title=" ">
<path fill="none" stroke="#63b8ff" d="M868.83,-169.85C876.24,-147.86 890.82,-93.58 869.24,-56.75 859.68,-40.44 841.87,-29.55 825.38,-22.53"/>
<polygon fill="#63b8ff" stroke="#63b8ff" points="826.84,-19.35 816.25,-19.01 824.32,-25.88 826.84,-19.35"/>
</a>
</g>
</g>
<!-- Node18&#45;&gt;Node4 -->
<g id="edge28_Node000018_Node000004" class="edge">
<title>Node18&#45;&gt;Node4</title>
<g id="a_edge28_Node000018_Node000004"><a xlink:title=" ">
<path fill="none" stroke="#63b8ff" d="M827.16,-175.37C812.5,-173.75 795.59,-171.89 780.24,-170.25 629.25,-154.11 587.44,-160.18 434.99,-134.53"/>
<polygon fill="#63b8ff" stroke="#63b8ff" points="435.75,-131.11 425.31,-132.89 434.58,-138.01 435.75,-131.11"/>
</a>
</g>
</g>
<!-- Node19&#45;&gt;Node13 -->
<g id="edge57_Node000019_Node000013" class="edge">
<title>Node19&#45;&gt;Node13</title>
<g id="a_edge57_Node000019_Node000013"><a xlink:title=" ">
<path fill="none" stroke="#63b8ff" d="M858.27,-340.37C846.81,-322.11 821.51,-281.81 806.37,-257.7"/>
<polygon fill="#63b8ff" stroke="#63b8ff" points="809.48,-256.07 801.19,-249.46 803.55,-259.79 809.48,-256.07"/>
</a>
</g>
</g>
<!-- Node19&#45;&gt;Node18 -->
<g id="edge56_Node000019_Node000018" class="edge">
<title>Node19&#45;&gt;Node18</title>
<g id="a_edge56_Node000019_Node000018"><a xlink:title=" ">
<path fill="none" stroke="#63b8ff" d="M864.29,-340.35C864.45,-313.98 864.89,-239.58 865.11,-202.78"/>
<polygon fill="#63b8ff" stroke="#63b8ff" points="868.61,-203 865.17,-192.98 861.61,-202.96 868.61,-203"/>
</a>
</g>
</g>
<!-- Node20 -->
<g id="Node000020" class="node">
<title>Node20</title>
<g id="a_Node000020"><a xlink:href="eui__provider_8h.html" target="_top" xlink:title="EUI&#45;48 and EUI&#45;64 address provider.">
<polygon fill="white" stroke="#666666" points="1127.49,-304.5 1022.99,-304.5 1022.99,-283.75 1127.49,-283.75 1127.49,-304.5"/>
<text text-anchor="middle" x="1075.24" y="-291" font-family="Helvetica,sans-Serif" font-size="10.00">net/eui_provider.h</text>
</a>
</g>
</g>
<!-- Node19&#45;&gt;Node20 -->
<g id="edge31_Node000019_Node000020" class="edge">
<title>Node19&#45;&gt;Node20</title>
<g id="a_edge31_Node000019_Node000020"><a xlink:title=" ">
<path fill="none" stroke="#63b8ff" d="M901.96,-340.09C936.81,-331.04 988.76,-317.56 1026.69,-307.72"/>
<polygon fill="#63b8ff" stroke="#63b8ff" points="1027.22,-311.2 1036.02,-305.3 1025.46,-304.42 1027.22,-311.2"/>
</a>
</g>
</g>
<!-- Node27 -->
<g id="Node000027" class="node">
<title>Node27</title>
<g id="a_Node000027"><a xlink:href="sys_2include_2net_2ieee802154_8h.html" target="_top" xlink:title="IEEE 802.15.4 header definitions.">
<polygon fill="white" stroke="#666666" points="1042.61,-247.75 941.86,-247.75 941.86,-227 1042.61,-227 1042.61,-247.75"/>
<text text-anchor="middle" x="992.24" y="-234.25" font-family="Helvetica,sans-Serif" font-size="10.00">net/ieee802154.h</text>
</a>
</g>
</g>
<!-- Node19&#45;&gt;Node27 -->
<g id="edge45_Node000019_Node000027" class="edge">
<title>Node19&#45;&gt;Node27</title>
<g id="a_edge45_Node000019_Node000027"><a xlink:title=" ">
<path fill="none" stroke="#63b8ff" d="M875.15,-340.37C896.77,-321.54 945.3,-279.26 972.61,-255.47"/>
<polygon fill="#63b8ff" stroke="#63b8ff" points="974.6,-258.38 979.84,-249.17 970.01,-253.1 974.6,-258.38"/>
</a>
</g>
</g>
<!-- Node19&#45;&gt;Node29 -->
<g id="edge51_Node000019_Node000029" class="edge">
<title>Node19&#45;&gt;Node29</title>
<g id="a_edge51_Node000019_Node000029"><a xlink:title=" ">
<path fill="none" stroke="#63b8ff" d="M933.42,-340.09C1005.3,-329.92 1116.86,-314.14 1186.89,-304.23"/>
<polygon fill="#63b8ff" stroke="#63b8ff" points="1187.27,-307.71 1196.68,-302.84 1186.29,-300.78 1187.27,-307.71"/>
</a>
</g>
</g>
<!-- Node20&#45;&gt;Node13 -->
<g id="edge44_Node000020_Node000013" class="edge">
<title>Node20&#45;&gt;Node13</title>
<g id="a_edge44_Node000020_Node000013"><a xlink:title=" ">
<path fill="none" stroke="#63b8ff" d="M1024.67,-283.27C973.55,-273.31 895.03,-258.01 844.14,-248.1"/>
<polygon fill="#63b8ff" stroke="#63b8ff" points="845.06,-244.71 834.58,-246.24 843.73,-251.58 845.06,-244.71"/>
</a>
</g>
</g>
<!-- Node21 -->
<g id="Node000021" class="node">
<title>Node21</title>
<g id="a_Node000021"><a xlink:href="eui48_8h.html" target="_top" xlink:title="Definition and IPv6 IID conversion for IEEE EUI&#45;48 identifiers.">
<polygon fill="white" stroke="#666666" points="1213.61,-247.75 1142.86,-247.75 1142.86,-227 1213.61,-227 1213.61,-247.75"/>
<text text-anchor="middle" x="1178.24" y="-234.25" font-family="Helvetica,sans-Serif" font-size="10.00">net/eui48.h</text>
</a>
</g>
</g>
<!-- Node20&#45;&gt;Node21 -->
<g id="edge32_Node000020_Node000021" class="edge">
<title>Node20&#45;&gt;Node21</title>
<g id="a_edge32_Node000020_Node000021"><a xlink:title=" ">
<path fill="none" stroke="#63b8ff" d="M1093.65,-283.34C1109.32,-275.01 1132.08,-262.91 1150.05,-253.36"/>
<polygon fill="#63b8ff" stroke="#63b8ff" points="1151.46,-256.57 1158.65,-248.79 1148.17,-250.39 1151.46,-256.57"/>
</a>
</g>
</g>
<!-- Node22 -->
<g id="Node000022" class="node">
<title>Node22</title>
<g id="a_Node000022"><a xlink:href="eui64_8h.html" target="_top" xlink:title="EUI&#45;64 data type definition.">
<polygon fill="white" stroke="#666666" points="1213.61,-191 1142.86,-191 1142.86,-170.25 1213.61,-170.25 1213.61,-191"/>
<text text-anchor="middle" x="1178.24" y="-177.5" font-family="Helvetica,sans-Serif" font-size="10.00">net/eui64.h</text>
</a>
</g>
</g>
<!-- Node20&#45;&gt;Node22 -->
<g id="edge43_Node000020_Node000022" class="edge">
<title>Node20&#45;&gt;Node22</title>
<g id="a_edge43_Node000020_Node000022"><a xlink:title=" ">
<path fill="none" stroke="#63b8ff" d="M1083.52,-283.6C1094.82,-270.65 1115.79,-246.83 1134.24,-227 1142.8,-217.8 1152.51,-207.74 1160.63,-199.44"/>
<polygon fill="#63b8ff" stroke="#63b8ff" points="1163.1,-201.91 1167.62,-192.33 1158.11,-197.01 1163.1,-201.91"/>
</a>
</g>
</g>
<!-- Node21&#45;&gt;Node3 -->
<g id="edge33_Node000021_Node000003" class="edge">
<title>Node21&#45;&gt;Node3</title>
<g id="a_edge33_Node000021_Node000003"><a xlink:title=" ">
<path fill="none" stroke="#63b8ff" d="M1192.29,-226.67C1202.75,-218.52 1216.22,-205.85 1222.24,-191 1225.7,-182.45 1224.7,-179.14 1222.24,-170.25 1206.56,-113.57 1203.52,-88.84 1154.24,-56.75 1100.79,-21.95 908.91,-13.83 826.4,-11.95"/>
<polygon fill="#63b8ff" stroke="#63b8ff" points="826.63,-8.45 816.56,-11.74 826.49,-15.45 826.63,-8.45"/>
</a>
</g>
</g>
<!-- Node21&#45;&gt;Node22 -->
<g id="edge34_Node000021_Node000022" class="edge">
<title>Node21&#45;&gt;Node22</title>
<g id="a_edge34_Node000021_Node000022"><a xlink:title=" ">
<path fill="none" stroke="#63b8ff" d="M1178.24,-226.59C1178.24,-219.97 1178.24,-210.97 1178.24,-202.77"/>
<polygon fill="#63b8ff" stroke="#63b8ff" points="1181.74,-202.84 1178.24,-192.84 1174.74,-202.84 1181.74,-202.84"/>
</a>
</g>
</g>
<!-- Node22&#45;&gt;Node3 -->
<g id="edge35_Node000022_Node000003" class="edge">
<title>Node22&#45;&gt;Node3</title>
<g id="a_edge35_Node000022_Node000003"><a xlink:title=" ">
<path fill="none" stroke="#63b8ff" d="M1177.82,-169.81C1176.22,-145.73 1168.39,-83.71 1130.24,-56.75 1081.96,-22.64 904.84,-14.16 826.24,-12.06"/>
<polygon fill="#63b8ff" stroke="#63b8ff" points="826.54,-8.56 816.46,-11.82 826.37,-15.56 826.54,-8.56"/>
</a>
</g>
</g>
<!-- Node23 -->
<g id="Node000023" class="node">
<title>Node23</title>
<g id="a_Node000023"><a xlink:href="byteorder_8h.html" target="_top" xlink:title="Functions to work with different byte orders.">
<polygon fill="white" stroke="#666666" points="1150.36,-134.25 1078.11,-134.25 1078.11,-113.5 1150.36,-113.5 1150.36,-134.25"/>
<text text-anchor="middle" x="1114.24" y="-120.75" font-family="Helvetica,sans-Serif" font-size="10.00">byteorder.h</text>
</a>
</g>
</g>
<!-- Node22&#45;&gt;Node23 -->
<g id="edge36_Node000022_Node000023" class="edge">
<title>Node22&#45;&gt;Node23</title>
<g id="a_edge36_Node000022_Node000023"><a xlink:title=" ">
<path fill="none" stroke="#63b8ff" d="M1166.79,-169.84C1157.78,-162.13 1145,-151.2 1134.3,-142.04"/>
<polygon fill="#63b8ff" stroke="#63b8ff" points="1136.6,-139.4 1126.73,-135.56 1132.05,-144.72 1136.6,-139.4"/>
</a>
</g>
</g>
<!-- Node23&#45;&gt;Node3 -->
<g id="edge38_Node000023_Node000003" class="edge">
<title>Node23&#45;&gt;Node3</title>
<g id="a_edge38_Node000023_Node000003"><a xlink:title=" ">
<path fill="none" stroke="#63b8ff" d="M1117.33,-113.39C1121.31,-99.17 1126.19,-72.31 1112.24,-56.75 1074.91,-15.12 903.34,-10.68 826.11,-10.86"/>
<polygon fill="#63b8ff" stroke="#63b8ff" points="826.48,-7.35 816.5,-10.91 826.52,-14.35 826.48,-7.35"/>
</a>
</g>
</g>
<!-- Node24 -->
<g id="Node000024" class="node">
<title>Node24</title>
<g id="a_Node000024"><a xlink:title=" ">
<polygon fill="#e0e0e0" stroke="#999999" points="1103.61,-77.5 1050.86,-77.5 1050.86,-56.75 1103.61,-56.75 1103.61,-77.5"/>
<text text-anchor="middle" x="1077.24" y="-64" font-family="Helvetica,sans-Serif" font-size="10.00">string.h</text>
</a>
</g>
</g>
<!-- Node23&#45;&gt;Node24 -->
<g id="edge37_Node000023_Node000024" class="edge">
<title>Node23&#45;&gt;Node24</title>
<g id="a_edge37_Node000023_Node000024"><a xlink:title=" ">
<path fill="none" stroke="#63b8ff" d="M1107.62,-113.09C1102.78,-105.92 1096.06,-95.98 1090.17,-87.26"/>
<polygon fill="#63b8ff" stroke="#63b8ff" points="1093.14,-85.41 1084.64,-79.08 1087.34,-89.33 1093.14,-85.41"/>
</a>
</g>
</g>
<!-- Node25 -->
<g id="Node000025" class="node">
<title>Node25</title>
<g id="a_Node000025"><a xlink:href="endian_8h.html" target="_top" xlink:title="libc header for endian conversion">
<polygon fill="white" stroke="#666666" points="789.24,-77.5 731.24,-77.5 731.24,-56.75 789.24,-56.75 789.24,-77.5"/>
<text text-anchor="middle" x="760.24" y="-64" font-family="Helvetica,sans-Serif" font-size="10.00">endian.h</text>
</a>
</g>
</g>
<!-- Node23&#45;&gt;Node25 -->
<g id="edge39_Node000023_Node000025" class="edge">
<title>Node23&#45;&gt;Node25</title>
<g id="a_edge39_Node000023_Node000025"><a xlink:title=" ">
<path fill="none" stroke="#63b8ff" d="M1077.92,-115.12C1074.99,-114.55 1072.07,-114 1069.24,-113.5 973.39,-96.49 860.01,-81.02 800.82,-73.3"/>
<polygon fill="#63b8ff" stroke="#63b8ff" points="801.6,-69.87 791.23,-72.06 800.7,-76.81 801.6,-69.87"/>
</a>
</g>
</g>
<!-- Node26 -->
<g id="Node000026" class="node">
<title>Node26</title>
<g id="a_Node000026"><a xlink:href="unaligned_8h.html" target="_top" xlink:title="Unaligned but safe memory access functions.">
<polygon fill="white" stroke="#666666" points="1032.74,-77.5 959.74,-77.5 959.74,-56.75 1032.74,-56.75 1032.74,-77.5"/>
<text text-anchor="middle" x="996.24" y="-64" font-family="Helvetica,sans-Serif" font-size="10.00">unaligned.h</text>
</a>
</g>
</g>
<!-- Node23&#45;&gt;Node26 -->
<g id="edge41_Node000023_Node000026" class="edge">
<title>Node23&#45;&gt;Node26</title>
<g id="a_edge41_Node000023_Node000026"><a xlink:title=" ">
<path fill="none" stroke="#63b8ff" d="M1093.14,-113.09C1074.85,-104.6 1048.13,-92.2 1027.38,-82.58"/>
<polygon fill="#63b8ff" stroke="#63b8ff" points="1029.07,-79.5 1018.52,-78.47 1026.12,-85.85 1029.07,-79.5"/>
</a>
</g>
</g>
<!-- Node25&#45;&gt;Node3 -->
<g id="edge40_Node000025_Node000003" class="edge">
<title>Node25&#45;&gt;Node3</title>
<g id="a_edge40_Node000025_Node000003"><a xlink:title=" ">
<path fill="none" stroke="#63b8ff" d="M765.24,-56.34C768.83,-49.33 773.77,-39.66 778.16,-31.08"/>
<polygon fill="#63b8ff" stroke="#63b8ff" points="781.15,-32.92 782.58,-22.43 774.92,-29.74 781.15,-32.92"/>
</a>
</g>
</g>
<!-- Node26&#45;&gt;Node3 -->
<g id="edge42_Node000026_Node000003" class="edge">
<title>Node26&#45;&gt;Node3</title>
<g id="a_edge42_Node000026_Node000003"><a xlink:title=" ">
<path fill="none" stroke="#63b8ff" d="M959.53,-56.46C922.01,-46.59 864.01,-31.32 826.08,-21.34"/>
<polygon fill="#63b8ff" stroke="#63b8ff" points="827.02,-17.97 816.46,-18.8 825.24,-24.73 827.02,-17.97"/>
</a>
</g>
</g>
<!-- Node27&#45;&gt;Node3 -->
<g id="edge46_Node000027_Node000003" class="edge">
<title>Node27&#45;&gt;Node3</title>
<g id="a_edge46_Node000027_Node000003"><a xlink:title=" ">
<path fill="none" stroke="#63b8ff" d="M981.59,-226.69C972.45,-217.99 959.35,-204.53 950.24,-191 913.41,-136.33 934.05,-103.15 887.24,-56.75 870.24,-39.91 845.85,-28.63 825.54,-21.53"/>
<polygon fill="#63b8ff" stroke="#63b8ff" points="826.77,-18.25 816.18,-18.47 824.6,-24.9 826.77,-18.25"/>
</a>
</g>
</g>
<!-- Node27&#45;&gt;Node7 -->
<g id="edge50_Node000027_Node000007" class="edge">
<title>Node27&#45;&gt;Node7</title>
<g id="a_edge50_Node000027_Node000007"><a xlink:title=" ">
<path fill="none" stroke="#63b8ff" d="M1000.14,-226.6C1006.75,-217.84 1015.79,-204.35 1020.24,-191 1025.1,-176.41 1026.52,-159.08 1026.77,-145.82"/>
<polygon fill="#63b8ff" stroke="#63b8ff" points="1030.27,-146.07 1026.73,-136.09 1023.27,-146.1 1030.27,-146.07"/>
</a>
</g>
</g>
<!-- Node27&#45;&gt;Node22 -->
<g id="edge49_Node000027_Node000022" class="edge">
<title>Node27&#45;&gt;Node22</title>
<g id="a_edge49_Node000027_Node000022"><a xlink:title=" ">
<path fill="none" stroke="#63b8ff" d="M1025.49,-226.59C1055.81,-217.66 1100.83,-204.41 1134.15,-194.6"/>
<polygon fill="#63b8ff" stroke="#63b8ff" points="1134.9,-198.03 1143.51,-191.85 1132.92,-191.31 1134.9,-198.03"/>
</a>
</g>
</g>
<!-- Node27&#45;&gt;Node23 -->
<g id="edge48_Node000027_Node000023" class="edge">
<title>Node27&#45;&gt;Node23</title>
<g id="a_edge48_Node000027_Node000023"><a xlink:title=" ">
<path fill="none" stroke="#63b8ff" d="M1002.64,-226.87C1023.15,-208.12 1069.1,-166.13 1095.19,-142.28"/>
<polygon fill="#63b8ff" stroke="#63b8ff" points="1097.38,-145.03 1102.4,-135.7 1092.65,-139.86 1097.38,-145.03"/>
</a>
</g>
</g>
<!-- Node28 -->
<g id="Node000028" class="node">
<title>Node28</title>
<g id="a_Node000028"><a xlink:title=" ">
<polygon fill="#e0e0e0" stroke="#999999" points="1011.24,-191 959.24,-191 959.24,-170.25 1011.24,-170.25 1011.24,-191"/>
<text text-anchor="middle" x="985.24" y="-177.5" font-family="Helvetica,sans-Serif" font-size="10.00">stdlib.h</text>
</a>
</g>
</g>
<!-- Node27&#45;&gt;Node28 -->
<g id="edge47_Node000027_Node000028" class="edge">
<title>Node27&#45;&gt;Node28</title>
<g id="a_edge47_Node000027_Node000028"><a xlink:title=" ">
<path fill="none" stroke="#63b8ff" d="M990.99,-226.59C990.13,-219.89 988.96,-210.76 987.9,-202.48"/>
<polygon fill="#63b8ff" stroke="#63b8ff" points="991.41,-202.31 986.67,-192.83 984.47,-203.19 991.41,-202.31"/>
</a>
</g>
</g>
<!-- Node29&#45;&gt;Node7 -->
<g id="edge53_Node000029_Node000007" class="edge">
<title>Node29&#45;&gt;Node7</title>
<g id="a_edge53_Node000029_Node000007"><a xlink:title=" ">
<path fill="none" stroke="#63b8ff" d="M1212.61,-283.26C1188.64,-275.94 1157.99,-264.35 1134.24,-247.75 1092.72,-218.74 1056.64,-170.52 1038.56,-143.93"/>
<polygon fill="#63b8ff" stroke="#63b8ff" points="1041.64,-142.23 1033.19,-135.84 1035.81,-146.11 1041.64,-142.23"/>
</a>
</g>
</g>
<!-- Node30 -->
<g id="Node000030" class="node">
<title>Node30</title>
<g id="a_Node000030"><a xlink:href="inttypes_8h.html" target="_top" xlink:title="Adds include for missing inttype definitions.">
<polygon fill="white" stroke="#666666" points="1508.61,-247.75 1443.86,-247.75 1443.86,-227 1508.61,-227 1508.61,-247.75"/>
<text text-anchor="middle" x="1476.24" y="-234.25" font-family="Helvetica,sans-Serif" font-size="10.00">inttypes.h</text>
</a>
</g>
</g>
<!-- Node29&#45;&gt;Node30 -->
<g id="edge52_Node000029_Node000030" class="edge">
<title>Node29&#45;&gt;Node30</title>
<g id="a_edge52_Node000029_Node000030"><a xlink:title=" ">
<path fill="none" stroke="#63b8ff" d="M1291.72,-283.27C1331.39,-273.62 1391.66,-258.95 1432.43,-249.03"/>
<polygon fill="#63b8ff" stroke="#63b8ff" points="1433.02,-252.49 1441.91,-246.73 1431.37,-245.69 1433.02,-252.49"/>
</a>
</g>
</g>
<!-- Node31 -->
<g id="Node000031" class="node">
<title>Node31</title>
<g id="a_Node000031"><a xlink:href="ethertype_8h.html" target="_top" xlink:title="Ether type definitions.">
<polygon fill="white" stroke="#666666" points="1322.74,-247.75 1231.74,-247.75 1231.74,-227 1322.74,-227 1322.74,-247.75"/>
<text text-anchor="middle" x="1277.24" y="-234.25" font-family="Helvetica,sans-Serif" font-size="10.00">net/ethertype.h</text>
</a>
</g>
</g>
<!-- Node29&#45;&gt;Node31 -->
<g id="edge54_Node000029_Node000031" class="edge">
<title>Node29&#45;&gt;Node31</title>
<g id="a_edge54_Node000029_Node000031"><a xlink:title=" ">
<path fill="none" stroke="#63b8ff" d="M1255.88,-283.34C1259.18,-276.41 1263.7,-266.87 1267.74,-258.36"/>
<polygon fill="#63b8ff" stroke="#63b8ff" points="1270.85,-259.98 1271.98,-249.45 1264.53,-256.98 1270.85,-259.98"/>
</a>
</g>
</g>
<!-- Node32 -->
<g id="Node000032" class="node">
<title>Node32</title>
<g id="a_Node000032"><a xlink:href="protnum_8h.html" target="_top" xlink:title="Protocol number definitions.">
<polygon fill="white" stroke="#666666" points="1425.74,-247.75 1340.74,-247.75 1340.74,-227 1425.74,-227 1425.74,-247.75"/>
<text text-anchor="middle" x="1383.24" y="-234.25" font-family="Helvetica,sans-Serif" font-size="10.00">net/protnum.h</text>
</a>
</g>
</g>
<!-- Node29&#45;&gt;Node32 -->
<g id="edge55_Node000029_Node000032" class="edge">
<title>Node29&#45;&gt;Node32</title>
<g id="a_edge55_Node000029_Node000032"><a xlink:title=" ">
<path fill="none" stroke="#63b8ff" d="M1274.84,-283.34C1295.58,-274.73 1326.01,-262.11 1349.35,-252.43"/>
<polygon fill="#63b8ff" stroke="#63b8ff" points="1350.55,-255.72 1358.44,-248.66 1347.87,-249.26 1350.55,-255.72"/>
</a>
</g>
</g>
<!-- Node33&#45;&gt;Node3 -->
<g id="edge64_Node000033_Node000003" class="edge">
<title>Node33&#45;&gt;Node3</title>
<g id="a_edge64_Node000033_Node000003"><a xlink:title=" ">
<path fill="none" stroke="#63b8ff" d="M267.17,-169.88C268.86,-156.25 273.44,-131.19 285.24,-113.5 307.65,-79.89 318.87,-72.09 356.24,-56.75 427.25,-27.6 658.51,-16.12 750.24,-12.64"/>
<polygon fill="#63b8ff" stroke="#63b8ff" points="750.1,-16.14 759.96,-12.28 749.84,-9.15 750.1,-16.14"/>
</a>
</g>
</g>
<!-- Node33&#45;&gt;Node4 -->
<g id="edge62_Node000033_Node000004" class="edge">
<title>Node33&#45;&gt;Node4</title>
<g id="a_edge62_Node000033_Node000004"><a xlink:title=" ">
<path fill="none" stroke="#63b8ff" d="M288.94,-169.84C308.81,-161.27 337.91,-148.73 360.33,-139.06"/>
<polygon fill="#63b8ff" stroke="#63b8ff" points="361.54,-142.35 369.34,-135.18 358.77,-135.92 361.54,-142.35"/>
</a>
</g>
</g>
<!-- Node33&#45;&gt;Node12 -->
<g id="edge63_Node000033_Node000012" class="edge">
<title>Node33&#45;&gt;Node12</title>
<g id="a_edge63_Node000033_Node000012"><a xlink:title=" ">
<path fill="none" stroke="#63b8ff" d="M229.49,-175.56C144.82,-164.83 -51.93,-131.28 13.24,-56.75 51.57,-12.91 230.98,-9.69 311.25,-10.52"/>
<polygon fill="#63b8ff" stroke="#63b8ff" points="310.78,-14.02 320.83,-10.65 310.88,-7.02 310.78,-14.02"/>
</a>
</g>
</g>
<!-- Node33&#45;&gt;Node14 -->
<g id="edge61_Node000033_Node000014" class="edge">
<title>Node33&#45;&gt;Node14</title>
<g id="a_edge61_Node000033_Node000014"><a xlink:title=" ">
<path fill="none" stroke="#63b8ff" d="M275.71,-169.84C283.02,-162.28 293.33,-151.64 302.08,-142.6"/>
<polygon fill="#63b8ff" stroke="#63b8ff" points="304.35,-145.29 308.79,-135.67 299.32,-140.42 304.35,-145.29"/>
</a>
</g>
</g>
<!-- Node33&#45;&gt;Node25 -->
<g id="edge60_Node000033_Node000025" class="edge">
<title>Node33&#45;&gt;Node25</title>
<g id="a_edge60_Node000033_Node000025"><a xlink:title=" ">
<path fill="none" stroke="#63b8ff" d="M303.17,-178.98C394.43,-176.87 628.21,-168.21 697.24,-134.25 718.71,-123.68 736.76,-102.59 747.96,-87.06"/>
<polygon fill="#63b8ff" stroke="#63b8ff" points="750.67,-89.29 753.45,-79.07 744.9,-85.33 750.67,-89.29"/>
</a>
</g>
</g>
<!-- Node34 -->
<g id="Node000034" class="node">
<title>Node34</title>
<g id="a_Node000034"><a xlink:title=" ">
<polygon fill="#e0e0e0" stroke="#999999" points="100.36,-77.5 22.11,-77.5 22.11,-56.75 100.36,-56.75 100.36,-77.5"/>
<text text-anchor="middle" x="61.24" y="-64" font-family="Helvetica,sans-Serif" font-size="10.00">periph_cpu.h</text>
</a>
</g>
</g>
<!-- Node33&#45;&gt;Node34 -->
<g id="edge65_Node000033_Node000034" class="edge">
<title>Node33&#45;&gt;Node34</title>
<g id="a_edge65_Node000033_Node000034"><a xlink:title=" ">
<path fill="none" stroke="#63b8ff" d="M229.27,-175.49C195.96,-170.29 146.89,-158.86 111.24,-134.25 93.89,-122.28 80.03,-102.36 71.34,-87.51"/>
<polygon fill="#63b8ff" stroke="#63b8ff" points="74.59,-86.16 66.68,-79.1 68.46,-89.55 74.59,-86.16"/>
</a>
</g>
</g>
<!-- Node35 -->
<g id="Node000035" class="node">
<title>Node35</title>
<g id="a_Node000035"><a xlink:title=" ">
<polygon fill="#e0e0e0" stroke="#999999" points="270.86,-77.5 189.61,-77.5 189.61,-56.75 270.86,-56.75 270.86,-77.5"/>
<text text-anchor="middle" x="230.24" y="-64" font-family="Helvetica,sans-Serif" font-size="10.00">periph_conf.h</text>
</a>
</g>
</g>
<!-- Node33&#45;&gt;Node35 -->
<g id="edge66_Node000033_Node000035" class="edge">
<title>Node33&#45;&gt;Node35</title>
<g id="a_edge66_Node000033_Node000035"><a xlink:title=" ">
<path fill="none" stroke="#63b8ff" d="M263.17,-170.12C257.38,-152.19 244.73,-113 236.9,-88.76"/>
<polygon fill="#63b8ff" stroke="#63b8ff" points="240.27,-87.81 233.87,-79.37 233.61,-89.96 240.27,-87.81"/>
</a>
</g>
</g>
<!-- Node33&#45;&gt;Node36 -->
<g id="edge67_Node000033_Node000036" class="edge">
<title>Node33&#45;&gt;Node36</title>
<g id="a_edge67_Node000033_Node000036"><a xlink:title=" ">
<path fill="none" stroke="#63b8ff" d="M247.29,-169.84C231.16,-161.51 207.73,-149.41 189.25,-139.86"/>
<polygon fill="#63b8ff" stroke="#63b8ff" points="190.86,-136.75 180.37,-135.27 187.65,-142.97 190.86,-136.75"/>
</a>
</g>
</g>
<!-- Node36&#45;&gt;Node34 -->
<g id="edge69_Node000036_Node000034" class="edge">
<title>Node36&#45;&gt;Node34</title>
<g id="a_edge69_Node000036_Node000034"><a xlink:title=" ">
<path fill="none" stroke="#63b8ff" d="M142.54,-113.09C127.61,-104.83 106,-92.88 88.82,-83.38"/>
<polygon fill="#63b8ff" stroke="#63b8ff" points="90.55,-80.34 80.11,-78.56 87.16,-86.46 90.55,-80.34"/>
</a>
</g>
</g>
<!-- Node36&#45;&gt;Node35 -->
<g id="edge70_Node000036_Node000035" class="edge">
<title>Node36&#45;&gt;Node35</title>
<g id="a_edge70_Node000036_Node000035"><a xlink:title=" ">
<path fill="none" stroke="#63b8ff" d="M172.75,-113.09C182.8,-105.22 197.15,-94 209,-84.74"/>
<polygon fill="#63b8ff" stroke="#63b8ff" points="210.92,-87.68 216.64,-78.76 206.6,-82.16 210.92,-87.68"/>
</a>
</g>
</g>
<!-- Node37 -->
<g id="Node000037" class="node">
<title>Node37</title>
<g id="a_Node000037"><a xlink:title=" ">
<polygon fill="#e0e0e0" stroke="#999999" points="171.61,-77.5 118.86,-77.5 118.86,-56.75 171.61,-56.75 171.61,-77.5"/>
<text text-anchor="middle" x="145.24" y="-64" font-family="Helvetica,sans-Serif" font-size="10.00">limits.h</text>
</a>
</g>
</g>
<!-- Node36&#45;&gt;Node37 -->
<g id="edge68_Node000036_Node000037" class="edge">
<title>Node36&#45;&gt;Node37</title>
<g id="a_edge68_Node000036_Node000037"><a xlink:title=" ">
<path fill="none" stroke="#63b8ff" d="M157.55,-113.09C155.7,-106.31 153.16,-97.05 150.87,-88.69"/>
<polygon fill="#63b8ff" stroke="#63b8ff" points="154.31,-88.01 148.29,-79.29 147.56,-89.86 154.31,-88.01"/>
</a>
</g>
</g>
</g>
</svg>
