<?xml version="1.0" encoding="UTF-8" standalone="no"?>
<!DOCTYPE svg PUBLIC "-//W3C//DTD SVG 1.1//EN"
 "http://www.w3.org/Graphics/SVG/1.1/DTD/svg11.dtd">
<!-- Generated by graphviz version 12.1.1 (0)
 -->
<!-- Title: drivers/include/at.h Pages: 1 -->
<svg width="1966pt" height="540pt"
 viewBox="0.00 0.00 1966.38 539.50" xmlns="http://www.w3.org/2000/svg" xmlns:xlink="http://www.w3.org/1999/xlink">
<g id="graph0" class="graph" transform="scale(1 1) rotate(0) translate(4 535.5)">
<title>drivers/include/at.h</title>
<!-- Node1 -->
<g id="Node000001" class="node">
<title>Node1</title>
<g id="a_Node000001"><a xlink:title="AT (Hayes) library interface.">
<polygon fill="#999999" stroke="#666666" points="989.88,-531.5 880.12,-531.5 880.12,-510.75 989.88,-510.75 989.88,-531.5"/>
<text text-anchor="middle" x="935" y="-518" font-family="Helvetica,sans-Serif" font-size="10.00">drivers/include/at.h</text>
</a>
</g>
</g>
<!-- Node2 -->
<g id="Node000002" class="node">
<title>Node2</title>
<g id="a_Node000002"><a xlink:title=" ">
<polygon fill="#e0e0e0" stroke="#999999" points="422.38,-20.75 369.62,-20.75 369.62,0 422.38,0 422.38,-20.75"/>
<text text-anchor="middle" x="396" y="-7.25" font-family="Helvetica,sans-Serif" font-size="10.00">stdint.h</text>
</a>
</g>
</g>
<!-- Node1&#45;&gt;Node2 -->
<g id="edge1_Node000001_Node000002" class="edge">
<title>Node1&#45;&gt;Node2</title>
<g id="a_edge1_Node000001_Node000002"><a xlink:title=" ">
<path fill="none" stroke="#63b8ff" d="M990.12,-519.44C1191.82,-516.21 1878,-498.63 1878,-408.62 1878,-408.62 1878,-408.62 1878,-122.88 1878,1.97 1728.66,-73.87 1605,-56.75 1370.73,-24.31 613.04,-13.83 434.12,-11.78"/>
<polygon fill="#63b8ff" stroke="#63b8ff" points="434.26,-8.28 424.23,-11.67 434.19,-15.28 434.26,-8.28"/>
</a>
</g>
</g>
<!-- Node3 -->
<g id="Node000003" class="node">
<title>Node3</title>
<g id="a_Node000003"><a xlink:href="unistd_8h_source.html" target="_top" xlink:title=" ">
<polygon fill="white" stroke="#666666" points="106.5,-191 51.5,-191 51.5,-170.25 106.5,-170.25 106.5,-191"/>
<text text-anchor="middle" x="79" y="-177.5" font-family="Helvetica,sans-Serif" font-size="10.00">unistd.h</text>
</a>
</g>
</g>
<!-- Node1&#45;&gt;Node3 -->
<g id="edge2_Node000001_Node000003" class="edge">
<title>Node1&#45;&gt;Node3</title>
<g id="a_edge2_Node000001_Node000003"><a xlink:title=" ">
<path fill="none" stroke="#63b8ff" d="M879.9,-519.1C684.74,-514.75 38,-493.91 38,-408.62 38,-408.62 38,-408.62 38,-293.12 38,-259.23 54.9,-222.9 67,-201.23"/>
<polygon fill="#63b8ff" stroke="#63b8ff" points="70,-203.04 72.01,-192.63 63.95,-199.51 70,-203.04"/>
</a>
</g>
</g>
<!-- Node6 -->
<g id="Node000006" class="node">
<title>Node6</title>
<g id="a_Node000006"><a xlink:title=" ">
<polygon fill="#e0e0e0" stroke="#999999" points="1039.5,-134.25 978.5,-134.25 978.5,-113.5 1039.5,-113.5 1039.5,-134.25"/>
<text text-anchor="middle" x="1009" y="-120.75" font-family="Helvetica,sans-Serif" font-size="10.00">stdbool.h</text>
</a>
</g>
</g>
<!-- Node1&#45;&gt;Node6 -->
<g id="edge8_Node000001_Node000006" class="edge">
<title>Node1&#45;&gt;Node6</title>
<g id="a_edge8_Node000001_Node000006"><a xlink:title=" ">
<path fill="none" stroke="#63b8ff" d="M990.21,-516.99C1103.98,-509.03 1354,-483.05 1354,-408.62 1354,-408.62 1354,-408.62 1354,-236.38 1354,-205.8 1358.1,-190.29 1335,-170.25 1293.38,-134.14 1129.46,-126.68 1051.13,-125.2"/>
<polygon fill="#63b8ff" stroke="#63b8ff" points="1051.34,-121.71 1041.28,-125.04 1051.22,-128.71 1051.34,-121.71"/>
</a>
</g>
</g>
<!-- Node7 -->
<g id="Node000007" class="node">
<title>Node7</title>
<g id="a_Node000007"><a xlink:href="isrpipe_8h.html" target="_top" xlink:title="isrpipe Interface">
<polygon fill="white" stroke="#666666" points="395,-474.75 337,-474.75 337,-454 395,-454 395,-474.75"/>
<text text-anchor="middle" x="366" y="-461.25" font-family="Helvetica,sans-Serif" font-size="10.00">isrpipe.h</text>
</a>
</g>
</g>
<!-- Node1&#45;&gt;Node7 -->
<g id="edge9_Node000001_Node000007" class="edge">
<title>Node1&#45;&gt;Node7</title>
<g id="a_edge9_Node000001_Node000007"><a xlink:title=" ">
<path fill="none" stroke="#63b8ff" d="M879.67,-514.8C765.75,-503.84 507.3,-478.97 406.93,-469.31"/>
<polygon fill="#63b8ff" stroke="#63b8ff" points="407.29,-465.83 397,-468.36 406.62,-472.8 407.29,-465.83"/>
</a>
</g>
</g>
<!-- Node13 -->
<g id="Node000013" class="node">
<title>Node13</title>
<g id="a_Node000013"><a xlink:href="kernel__defines_8h.html" target="_top" xlink:title="Common macros and compiler attributes/pragmas configuration.">
<polygon fill="white" stroke="#666666" points="545.12,-191 448.88,-191 448.88,-170.25 545.12,-170.25 545.12,-191"/>
<text text-anchor="middle" x="497" y="-177.5" font-family="Helvetica,sans-Serif" font-size="10.00">kernel_defines.h</text>
</a>
</g>
</g>
<!-- Node1&#45;&gt;Node13 -->
<g id="edge68_Node000001_Node000013" class="edge">
<title>Node1&#45;&gt;Node13</title>
<g id="a_edge68_Node000001_Node000013"><a xlink:title=" ">
<path fill="none" stroke="#63b8ff" d="M879.98,-517.43C789.32,-512.35 612.87,-499.55 556,-474.75 514.34,-456.59 478,-454.07 478,-408.62 478,-408.62 478,-408.62 478,-293.12 478,-261.13 485.7,-224.7 491.29,-202.43"/>
<polygon fill="#63b8ff" stroke="#63b8ff" points="494.66,-203.4 493.81,-192.84 487.89,-201.62 494.66,-203.4"/>
</a>
</g>
</g>
<!-- Node21 -->
<g id="Node000021" class="node">
<title>Node21</title>
<g id="a_Node000021"><a xlink:href="clist_8h.html" target="_top" xlink:title="Circular linked list.">
<polygon fill="white" stroke="#666666" points="817.62,-191 772.38,-191 772.38,-170.25 817.62,-170.25 817.62,-191"/>
<text text-anchor="middle" x="795" y="-177.5" font-family="Helvetica,sans-Serif" font-size="10.00">clist.h</text>
</a>
</g>
</g>
<!-- Node1&#45;&gt;Node21 -->
<g id="edge67_Node000001_Node000021" class="edge">
<title>Node1&#45;&gt;Node21</title>
<g id="a_edge67_Node000001_Node000021"><a xlink:title=" ">
<path fill="none" stroke="#63b8ff" d="M879.79,-516.99C766.02,-509.03 516,-483.05 516,-408.62 516,-408.62 516,-408.62 516,-349.88 516,-319.3 514.42,-306.37 535,-283.75 595.66,-217.08 705.29,-193.38 760.8,-185.41"/>
<polygon fill="#63b8ff" stroke="#63b8ff" points="761.16,-188.89 770.61,-184.1 760.23,-181.95 761.16,-188.89"/>
</a>
</g>
</g>
<!-- Node31 -->
<g id="Node000031" class="node">
<title>Node31</title>
<g id="a_Node000031"><a xlink:href="drivers_2include_2periph_2uart_8h.html" target="_top" xlink:title="Low&#45;level UART peripheral driver interface definition.">
<polygon fill="white" stroke="#666666" points="1644.12,-247.75 1565.88,-247.75 1565.88,-227 1644.12,-227 1644.12,-247.75"/>
<text text-anchor="middle" x="1605" y="-234.25" font-family="Helvetica,sans-Serif" font-size="10.00">periph/uart.h</text>
</a>
</g>
</g>
<!-- Node1&#45;&gt;Node31 -->
<g id="edge60_Node000001_Node000031" class="edge">
<title>Node1&#45;&gt;Node31</title>
<g id="a_edge60_Node000001_Node000031"><a xlink:title=" ">
<path fill="none" stroke="#63b8ff" d="M990.28,-516.52C1148.19,-505.5 1590,-469.26 1590,-408.62 1590,-408.62 1590,-408.62 1590,-349.88 1590,-318.05 1596.08,-281.57 1600.49,-259.25"/>
<polygon fill="#63b8ff" stroke="#63b8ff" points="1603.88,-260.14 1602.48,-249.64 1597.03,-258.73 1603.88,-260.14"/>
</a>
</g>
</g>
<!-- Node35 -->
<g id="Node000035" class="node">
<title>Node35</title>
<g id="a_Node000035"><a xlink:title=" ">
<polygon fill="#e0e0e0" stroke="#999999" points="1958.38,-474.75 1905.62,-474.75 1905.62,-454 1958.38,-454 1958.38,-474.75"/>
<text text-anchor="middle" x="1932" y="-461.25" font-family="Helvetica,sans-Serif" font-size="10.00">event.h</text>
</a>
</g>
</g>
<!-- Node1&#45;&gt;Node35 -->
<g id="edge69_Node000001_Node000035" class="edge">
<title>Node1&#45;&gt;Node35</title>
<g id="a_edge69_Node000001_Node000035"><a xlink:title=" ">
<path fill="none" stroke="#63b8ff" d="M990.21,-518.83C1166.71,-514.5 1715.94,-499.34 1892,-474.75 1892.82,-474.64 1893.65,-474.51 1894.48,-474.38"/>
<polygon fill="#63b8ff" stroke="#63b8ff" points="1894.78,-477.89 1903.96,-472.59 1893.48,-471.01 1894.78,-477.89"/>
</a>
</g>
</g>
<!-- Node3&#45;&gt;Node2 -->
<g id="edge4_Node000003_Node000002" class="edge">
<title>Node3&#45;&gt;Node2</title>
<g id="a_edge4_Node000003_Node000002"><a xlink:title=" ">
<path fill="none" stroke="#63b8ff" d="M71.23,-169.93C61.71,-156.79 47.91,-132.75 57,-113.5 73.96,-77.6 89.87,-73.21 126,-56.75 203.21,-21.58 304.02,-13.4 357.98,-11.66"/>
<polygon fill="#63b8ff" stroke="#63b8ff" points="357.96,-15.16 367.87,-11.41 357.79,-8.17 357.96,-15.16"/>
</a>
</g>
</g>
<!-- Node4 -->
<g id="Node000004" class="node">
<title>Node4</title>
<g id="a_Node000004"><a xlink:title=" ">
<polygon fill="#e0e0e0" stroke="#999999" points="692.5,-77.5 637.5,-77.5 637.5,-56.75 692.5,-56.75 692.5,-77.5"/>
<text text-anchor="middle" x="665" y="-64" font-family="Helvetica,sans-Serif" font-size="10.00">stddef.h</text>
</a>
</g>
</g>
<!-- Node3&#45;&gt;Node4 -->
<g id="edge3_Node000003_Node000004" class="edge">
<title>Node3&#45;&gt;Node4</title>
<g id="a_edge3_Node000003_Node000004"><a xlink:title=" ">
<path fill="none" stroke="#63b8ff" d="M106.72,-176.49C159.61,-170.27 278.45,-155.13 377,-134.25 411.25,-126.99 418.98,-121.78 453,-113.5 513.01,-98.9 583.18,-84.38 625.84,-75.83"/>
<polygon fill="#63b8ff" stroke="#63b8ff" points="626.5,-79.26 635.62,-73.88 625.13,-72.4 626.5,-79.26"/>
</a>
</g>
</g>
<!-- Node5 -->
<g id="Node000005" class="node">
<title>Node5</title>
<g id="a_Node000005"><a xlink:href="cpu_2avr8__common_2avr__libc__extra_2include_2sys_2types_8h_source.html" target="_top" xlink:title=" ">
<polygon fill="white" stroke="#666666" points="137.75,-134.25 66.25,-134.25 66.25,-113.5 137.75,-113.5 137.75,-134.25"/>
<text text-anchor="middle" x="102" y="-120.75" font-family="Helvetica,sans-Serif" font-size="10.00">sys/types.h</text>
</a>
</g>
</g>
<!-- Node3&#45;&gt;Node5 -->
<g id="edge5_Node000003_Node000005" class="edge">
<title>Node3&#45;&gt;Node5</title>
<g id="a_edge5_Node000003_Node000005"><a xlink:title=" ">
<path fill="none" stroke="#63b8ff" d="M83.11,-169.84C85.99,-162.99 89.94,-153.59 93.48,-145.15"/>
<polygon fill="#63b8ff" stroke="#63b8ff" points="96.69,-146.55 97.34,-135.97 90.24,-143.84 96.69,-146.55"/>
</a>
</g>
</g>
<!-- Node5&#45;&gt;Node2 -->
<g id="edge6_Node000005_Node000002" class="edge">
<title>Node5&#45;&gt;Node2</title>
<g id="a_edge6_Node000005_Node000002"><a xlink:title=" ">
<path fill="none" stroke="#63b8ff" d="M106.29,-113.43C113.5,-98.74 129.47,-70.67 152,-56.75 185.93,-35.78 298.42,-21.41 358.08,-15.06"/>
<polygon fill="#63b8ff" stroke="#63b8ff" points="358.18,-18.57 367.76,-14.05 357.46,-11.6 358.18,-18.57"/>
</a>
</g>
</g>
<!-- Node5&#45;&gt;Node4 -->
<g id="edge7_Node000005_Node000004" class="edge">
<title>Node5&#45;&gt;Node4</title>
<g id="a_edge7_Node000005_Node000004"><a xlink:title=" ">
<path fill="none" stroke="#63b8ff" d="M138.07,-119.37C238.68,-109.58 521.77,-82.05 625.92,-71.93"/>
<polygon fill="#63b8ff" stroke="#63b8ff" points="626.02,-75.43 635.63,-70.98 625.34,-68.47 626.02,-75.43"/>
</a>
</g>
</g>
<!-- Node7&#45;&gt;Node2 -->
<g id="edge10_Node000007_Node000002" class="edge">
<title>Node7&#45;&gt;Node2</title>
<g id="a_edge10_Node000007_Node000002"><a xlink:title=" ">
<path fill="none" stroke="#63b8ff" d="M336.67,-463.3C249.82,-461.39 0,-443.04 0,-295.12 0,-295.12 0,-295.12 0,-122.88 0,-76.4 38.45,-75.44 81,-56.75 174.43,-15.71 297,-10.27 358.04,-10.42"/>
<polygon fill="#63b8ff" stroke="#63b8ff" points="357.86,-13.92 367.88,-10.51 357.91,-6.92 357.86,-13.92"/>
</a>
</g>
</g>
<!-- Node8 -->
<g id="Node000008" class="node">
<title>Node8</title>
<g id="a_Node000008"><a xlink:href="mutex_8h.html" target="_top" xlink:title="Mutex for thread synchronization.">
<polygon fill="white" stroke="#666666" points="964.25,-418 907.75,-418 907.75,-397.25 964.25,-397.25 964.25,-418"/>
<text text-anchor="middle" x="936" y="-404.5" font-family="Helvetica,sans-Serif" font-size="10.00">mutex.h</text>
</a>
</g>
</g>
<!-- Node7&#45;&gt;Node8 -->
<g id="edge11_Node000007_Node000008" class="edge">
<title>Node7&#45;&gt;Node8</title>
<g id="a_edge11_Node000007_Node000008"><a xlink:title=" ">
<path fill="none" stroke="#63b8ff" d="M395.45,-460.55C490.26,-451.44 787.73,-422.87 896.05,-412.46"/>
<polygon fill="#63b8ff" stroke="#63b8ff" points="896.28,-415.96 905.9,-411.52 895.61,-408.99 896.28,-415.96"/>
</a>
</g>
</g>
<!-- Node29 -->
<g id="Node000029" class="node">
<title>Node29</title>
<g id="a_Node000029"><a xlink:href="tsrb_8h.html" target="_top" xlink:title="Thread&#45;safe ringbuffer interface definition.">
<polygon fill="white" stroke="#666666" points="222.88,-247.75 179.12,-247.75 179.12,-227 222.88,-227 222.88,-247.75"/>
<text text-anchor="middle" x="201" y="-234.25" font-family="Helvetica,sans-Serif" font-size="10.00">tsrb.h</text>
</a>
</g>
</g>
<!-- Node7&#45;&gt;Node29 -->
<g id="edge53_Node000007_Node000029" class="edge">
<title>Node7&#45;&gt;Node29</title>
<g id="a_edge53_Node000007_Node000029"><a xlink:title=" ">
<path fill="none" stroke="#63b8ff" d="M358.91,-453.71C333.74,-419.38 248.36,-302.95 214.75,-257.13"/>
<polygon fill="#63b8ff" stroke="#63b8ff" points="217.69,-255.22 208.96,-249.23 212.05,-259.36 217.69,-255.22"/>
</a>
</g>
</g>
<!-- Node8&#45;&gt;Node2 -->
<g id="edge13_Node000008_Node000002" class="edge">
<title>Node8&#45;&gt;Node2</title>
<g id="a_edge13_Node000008_Node000002"><a xlink:title=" ">
<path fill="none" stroke="#63b8ff" d="M964.63,-404.4C1084.27,-394.74 1538,-354.18 1538,-295.12 1538,-295.12 1538,-295.12 1538,-122.88 1538,-9.34 632.41,-9.59 434.08,-11.01"/>
<polygon fill="#63b8ff" stroke="#63b8ff" points="434.31,-7.51 424.34,-11.08 434.37,-14.51 434.31,-7.51"/>
</a>
</g>
</g>
<!-- Node8&#45;&gt;Node4 -->
<g id="edge12_Node000008_Node000004" class="edge">
<title>Node8&#45;&gt;Node4</title>
<g id="a_edge12_Node000008_Node000004"><a xlink:title=" ">
<path fill="none" stroke="#63b8ff" d="M907.27,-401.76C834.74,-388.67 650,-349.95 650,-295.12 650,-295.12 650,-295.12 650,-236.38 650,-183.28 657.5,-121.13 661.9,-89.29"/>
<polygon fill="#63b8ff" stroke="#63b8ff" points="665.35,-89.85 663.29,-79.46 658.42,-88.87 665.35,-89.85"/>
</a>
</g>
</g>
<!-- Node8&#45;&gt;Node6 -->
<g id="edge14_Node000008_Node000006" class="edge">
<title>Node8&#45;&gt;Node6</title>
<g id="a_edge14_Node000008_Node000006"><a xlink:title=" ">
<path fill="none" stroke="#63b8ff" d="M956.15,-396.83C984.8,-381.63 1036.15,-349.37 1057,-304.5 1082.76,-249.05 1044.13,-177.33 1022.28,-143.76"/>
<polygon fill="#63b8ff" stroke="#63b8ff" points="1025.47,-142.22 1016.98,-135.88 1019.66,-146.13 1025.47,-142.22"/>
</a>
</g>
</g>
<!-- Node9 -->
<g id="Node000009" class="node">
<title>Node9</title>
<g id="a_Node000009"><a xlink:href="architecture_8h.html" target="_top" xlink:title="Platform&#45;independent access to architecture details.">
<polygon fill="white" stroke="#666666" points="1312.75,-247.75 1229.25,-247.75 1229.25,-227 1312.75,-227 1312.75,-247.75"/>
<text text-anchor="middle" x="1271" y="-234.25" font-family="Helvetica,sans-Serif" font-size="10.00">architecture.h</text>
</a>
</g>
</g>
<!-- Node8&#45;&gt;Node9 -->
<g id="edge15_Node000008_Node000009" class="edge">
<title>Node8&#45;&gt;Node9</title>
<g id="a_edge15_Node000008_Node000009"><a xlink:title=" ">
<path fill="none" stroke="#63b8ff" d="M964.49,-401.01C996.15,-394.15 1048.29,-380.96 1090,-361.25 1152.86,-331.54 1218.37,-281.49 1250.6,-255.38"/>
<polygon fill="#63b8ff" stroke="#63b8ff" points="1252.81,-258.1 1258.33,-249.05 1248.37,-252.68 1252.81,-258.1"/>
</a>
</g>
</g>
<!-- Node8&#45;&gt;Node13 -->
<g id="edge20_Node000008_Node000013" class="edge">
<title>Node8&#45;&gt;Node13</title>
<g id="a_edge20_Node000008_Node000013"><a xlink:title=" ">
<path fill="none" stroke="#63b8ff" d="M907.42,-405.47C841.22,-402.31 679.69,-391.6 636,-361.25 603.65,-338.78 616.22,-315.57 593,-283.75 569.38,-251.39 536.44,-218.41 515.93,-199"/>
<polygon fill="#63b8ff" stroke="#63b8ff" points="518.51,-196.62 508.82,-192.35 513.73,-201.74 518.51,-196.62"/>
</a>
</g>
</g>
<!-- Node19 -->
<g id="Node000019" class="node">
<title>Node19</title>
<g id="a_Node000019"><a xlink:href="list_8h.html" target="_top" xlink:title="Intrusive linked list.">
<polygon fill="white" stroke="#666666" points="937,-134.25 897,-134.25 897,-113.5 937,-113.5 937,-134.25"/>
<text text-anchor="middle" x="917" y="-120.75" font-family="Helvetica,sans-Serif" font-size="10.00">list.h</text>
</a>
</g>
</g>
<!-- Node8&#45;&gt;Node19 -->
<g id="edge31_Node000008_Node000019" class="edge">
<title>Node8&#45;&gt;Node19</title>
<g id="a_edge31_Node000008_Node000019"><a xlink:title=" ">
<path fill="none" stroke="#63b8ff" d="M941.26,-397.05C958.73,-363.84 1011.61,-251.24 973,-170.25 967.23,-158.14 956.47,-148.22 945.92,-140.77"/>
<polygon fill="#63b8ff" stroke="#63b8ff" points="948,-137.95 937.7,-135.46 944.2,-143.83 948,-137.95"/>
</a>
</g>
</g>
<!-- Node20 -->
<g id="Node000020" class="node">
<title>Node20</title>
<g id="a_Node000020"><a xlink:href="core_2include_2thread_8h.html" target="_top" xlink:title="Threading API.">
<polygon fill="white" stroke="#666666" points="926.25,-361.25 869.75,-361.25 869.75,-340.5 926.25,-340.5 926.25,-361.25"/>
<text text-anchor="middle" x="898" y="-347.75" font-family="Helvetica,sans-Serif" font-size="10.00">thread.h</text>
</a>
</g>
</g>
<!-- Node8&#45;&gt;Node20 -->
<g id="edge32_Node000008_Node000020" class="edge">
<title>Node8&#45;&gt;Node20</title>
<g id="a_edge32_Node000008_Node000020"><a xlink:title=" ">
<path fill="none" stroke="#63b8ff" d="M929.21,-396.84C924.23,-389.67 917.33,-379.73 911.28,-371.01"/>
<polygon fill="#63b8ff" stroke="#63b8ff" points="914.18,-369.04 905.6,-362.82 908.42,-373.03 914.18,-369.04"/>
</a>
</g>
</g>
<!-- Node9&#45;&gt;Node2 -->
<g id="edge16_Node000009_Node000002" class="edge">
<title>Node9&#45;&gt;Node2</title>
<g id="a_edge16_Node000009_Node000002"><a xlink:title=" ">
<path fill="none" stroke="#63b8ff" d="M1292.98,-226.67C1316.58,-214.78 1348.94,-193.37 1335,-170.25 1279.21,-77.71 1224.02,-86 1120,-56.75 989.06,-19.92 563.63,-12.94 433.9,-11.65"/>
<polygon fill="#63b8ff" stroke="#63b8ff" points="434.18,-8.16 424.15,-11.56 434.12,-15.16 434.18,-8.16"/>
</a>
</g>
</g>
<!-- Node10 -->
<g id="Node000010" class="node">
<title>Node10</title>
<g id="a_Node000010"><a xlink:href="inttypes_8h.html" target="_top" xlink:title="Adds include for missing inttype definitions.">
<polygon fill="white" stroke="#666666" points="1198.38,-191 1133.62,-191 1133.62,-170.25 1198.38,-170.25 1198.38,-191"/>
<text text-anchor="middle" x="1166" y="-177.5" font-family="Helvetica,sans-Serif" font-size="10.00">inttypes.h</text>
</a>
</g>
</g>
<!-- Node9&#45;&gt;Node10 -->
<g id="edge17_Node000009_Node000010" class="edge">
<title>Node9&#45;&gt;Node10</title>
<g id="a_edge17_Node000009_Node000010"><a xlink:title=" ">
<path fill="none" stroke="#63b8ff" d="M1252.23,-226.59C1236.25,-218.26 1213.05,-206.16 1194.74,-196.61"/>
<polygon fill="#63b8ff" stroke="#63b8ff" points="1196.44,-193.55 1185.95,-192.03 1193.2,-199.76 1196.44,-193.55"/>
</a>
</g>
</g>
<!-- Node11 -->
<g id="Node000011" class="node">
<title>Node11</title>
<g id="a_Node000011"><a xlink:title=" ">
<polygon fill="#e0e0e0" stroke="#999999" points="1472.38,-191 1419.62,-191 1419.62,-170.25 1472.38,-170.25 1472.38,-191"/>
<text text-anchor="middle" x="1446" y="-177.5" font-family="Helvetica,sans-Serif" font-size="10.00">limits.h</text>
</a>
</g>
</g>
<!-- Node9&#45;&gt;Node11 -->
<g id="edge18_Node000009_Node000011" class="edge">
<title>Node9&#45;&gt;Node11</title>
<g id="a_edge18_Node000009_Node000011"><a xlink:title=" ">
<path fill="none" stroke="#63b8ff" d="M1302.29,-226.59C1332.1,-217.26 1377.01,-203.21 1408.68,-193.3"/>
<polygon fill="#63b8ff" stroke="#63b8ff" points="1409.34,-196.76 1417.84,-190.44 1407.25,-190.08 1409.34,-196.76"/>
</a>
</g>
</g>
<!-- Node12 -->
<g id="Node000012" class="node">
<title>Node12</title>
<g id="a_Node000012"><a xlink:title=" ">
<polygon fill="#e0e0e0" stroke="#999999" points="1325.88,-191 1216.12,-191 1216.12,-170.25 1325.88,-170.25 1325.88,-191"/>
<text text-anchor="middle" x="1271" y="-177.5" font-family="Helvetica,sans-Serif" font-size="10.00">architecture_arch.h</text>
</a>
</g>
</g>
<!-- Node9&#45;&gt;Node12 -->
<g id="edge19_Node000009_Node000012" class="edge">
<title>Node9&#45;&gt;Node12</title>
<g id="a_edge19_Node000009_Node000012"><a xlink:title=" ">
<path fill="none" stroke="#63b8ff" d="M1271,-226.59C1271,-219.97 1271,-210.97 1271,-202.77"/>
<polygon fill="#63b8ff" stroke="#63b8ff" points="1274.5,-202.84 1271,-192.84 1267.5,-202.84 1274.5,-202.84"/>
</a>
</g>
</g>
<!-- Node14 -->
<g id="Node000014" class="node">
<title>Node14</title>
<g id="a_Node000014"><a xlink:href="modules_8h.html" target="_top" xlink:title="Common macros and compiler attributes/pragmas configuration.">
<polygon fill="white" stroke="#666666" points="617.5,-134.25 550.5,-134.25 550.5,-113.5 617.5,-113.5 617.5,-134.25"/>
<text text-anchor="middle" x="584" y="-120.75" font-family="Helvetica,sans-Serif" font-size="10.00">modules.h</text>
</a>
</g>
</g>
<!-- Node13&#45;&gt;Node14 -->
<g id="edge21_Node000013_Node000014" class="edge">
<title>Node13&#45;&gt;Node14</title>
<g id="a_edge21_Node000013_Node000014"><a xlink:title=" ">
<path fill="none" stroke="#63b8ff" d="M512.55,-169.84C525.42,-161.74 543.94,-150.08 558.91,-140.67"/>
<polygon fill="#63b8ff" stroke="#63b8ff" points="560.7,-143.67 567.3,-135.38 556.97,-137.75 560.7,-143.67"/>
</a>
</g>
</g>
<!-- Node15 -->
<g id="Node000015" class="node">
<title>Node15</title>
<g id="a_Node000015"><a xlink:href="riot__version_8h.html" target="_top" xlink:title="Common macros and compiler attributes/pragmas configuration.">
<polygon fill="white" stroke="#666666" points="437.38,-77.5 354.62,-77.5 354.62,-56.75 437.38,-56.75 437.38,-77.5"/>
<text text-anchor="middle" x="396" y="-64" font-family="Helvetica,sans-Serif" font-size="10.00">riot_version.h</text>
</a>
</g>
</g>
<!-- Node13&#45;&gt;Node15 -->
<g id="edge22_Node000013_Node000015" class="edge">
<title>Node13&#45;&gt;Node15</title>
<g id="a_edge22_Node000013_Node000015"><a xlink:title=" ">
<path fill="none" stroke="#63b8ff" d="M487.39,-170.05C478.36,-160.97 464.55,-146.88 453,-134.25 438.51,-118.41 422.61,-99.86 411.29,-86.44"/>
<polygon fill="#63b8ff" stroke="#63b8ff" points="414.03,-84.26 404.92,-78.85 408.67,-88.76 414.03,-84.26"/>
</a>
</g>
</g>
<!-- Node16 -->
<g id="Node000016" class="node">
<title>Node16</title>
<g id="a_Node000016"><a xlink:href="compiler__hints_8h.html" target="_top" xlink:title="Common macros and compiler attributes/pragmas configuration.">
<polygon fill="white" stroke="#666666" points="367.5,-134.25 270.5,-134.25 270.5,-113.5 367.5,-113.5 367.5,-134.25"/>
<text text-anchor="middle" x="319" y="-120.75" font-family="Helvetica,sans-Serif" font-size="10.00">compiler_hints.h</text>
</a>
</g>
</g>
<!-- Node13&#45;&gt;Node16 -->
<g id="edge24_Node000013_Node000016" class="edge">
<title>Node13&#45;&gt;Node16</title>
<g id="a_edge24_Node000013_Node000016"><a xlink:title=" ">
<path fill="none" stroke="#63b8ff" d="M465.18,-169.84C436.28,-160.95 393.45,-147.77 361.61,-137.98"/>
<polygon fill="#63b8ff" stroke="#63b8ff" points="362.88,-134.71 352.29,-135.12 360.82,-141.4 362.88,-134.71"/>
</a>
</g>
</g>
<!-- Node18 -->
<g id="Node000018" class="node">
<title>Node18</title>
<g id="a_Node000018"><a xlink:href="container_8h.html" target="_top" xlink:title="Common macros and compiler attributes/pragmas configuration.">
<polygon fill="white" stroke="#666666" points="532.38,-134.25 461.62,-134.25 461.62,-113.5 532.38,-113.5 532.38,-134.25"/>
<text text-anchor="middle" x="497" y="-120.75" font-family="Helvetica,sans-Serif" font-size="10.00">container.h</text>
</a>
</g>
</g>
<!-- Node13&#45;&gt;Node18 -->
<g id="edge28_Node000013_Node000018" class="edge">
<title>Node13&#45;&gt;Node18</title>
<g id="a_edge28_Node000013_Node000018"><a xlink:title=" ">
<path fill="none" stroke="#63b8ff" d="M497,-169.84C497,-163.22 497,-154.22 497,-146.02"/>
<polygon fill="#63b8ff" stroke="#63b8ff" points="500.5,-146.09 497,-136.09 493.5,-146.09 500.5,-146.09"/>
</a>
</g>
</g>
<!-- Node15&#45;&gt;Node2 -->
<g id="edge23_Node000015_Node000002" class="edge">
<title>Node15&#45;&gt;Node2</title>
<g id="a_edge23_Node000015_Node000002"><a xlink:title=" ">
<path fill="none" stroke="#63b8ff" d="M396,-56.34C396,-49.72 396,-40.72 396,-32.52"/>
<polygon fill="#63b8ff" stroke="#63b8ff" points="399.5,-32.59 396,-22.59 392.5,-32.59 399.5,-32.59"/>
</a>
</g>
</g>
<!-- Node16&#45;&gt;Node2 -->
<g id="edge27_Node000016_Node000002" class="edge">
<title>Node16&#45;&gt;Node2</title>
<g id="a_edge27_Node000016_Node000002"><a xlink:title=" ">
<path fill="none" stroke="#63b8ff" d="M321.47,-113.24C325.23,-99.74 333.34,-74.83 346,-56.75 353.46,-46.09 363.85,-36.14 373.23,-28.3"/>
<polygon fill="#63b8ff" stroke="#63b8ff" points="375.31,-31.12 380.94,-22.14 370.94,-25.65 375.31,-31.12"/>
</a>
</g>
</g>
<!-- Node17 -->
<g id="Node000017" class="node">
<title>Node17</title>
<g id="a_Node000017"><a xlink:href="assert_8h.html" target="_top" xlink:title="POSIX.1&#45;2008 compliant version of the assert macro.">
<polygon fill="white" stroke="#666666" points="280.5,-77.5 225.5,-77.5 225.5,-56.75 280.5,-56.75 280.5,-77.5"/>
<text text-anchor="middle" x="253" y="-64" font-family="Helvetica,sans-Serif" font-size="10.00">assert.h</text>
</a>
</g>
</g>
<!-- Node16&#45;&gt;Node17 -->
<g id="edge25_Node000016_Node000017" class="edge">
<title>Node16&#45;&gt;Node17</title>
<g id="a_edge25_Node000016_Node000017"><a xlink:title=" ">
<path fill="none" stroke="#63b8ff" d="M307.2,-113.09C297.82,-105.3 284.46,-94.22 273.36,-85.01"/>
<polygon fill="#63b8ff" stroke="#63b8ff" points="275.79,-82.49 265.86,-78.79 271.32,-87.87 275.79,-82.49"/>
</a>
</g>
</g>
<!-- Node17&#45;&gt;Node2 -->
<g id="edge26_Node000017_Node000002" class="edge">
<title>Node17&#45;&gt;Node2</title>
<g id="a_edge26_Node000017_Node000002"><a xlink:title=" ">
<path fill="none" stroke="#63b8ff" d="M278.57,-56.34C301.24,-47.66 334.6,-34.88 359.98,-25.17"/>
<polygon fill="#63b8ff" stroke="#63b8ff" points="361.15,-28.46 369.24,-21.62 358.65,-21.93 361.15,-28.46"/>
</a>
</g>
</g>
<!-- Node18&#45;&gt;Node2 -->
<g id="edge30_Node000018_Node000002" class="edge">
<title>Node18&#45;&gt;Node2</title>
<g id="a_edge30_Node000018_Node000002"><a xlink:title=" ">
<path fill="none" stroke="#63b8ff" d="M490.24,-113.03C480.92,-99.72 463.31,-75.5 446,-56.75 436.82,-46.8 425.74,-36.59 416.35,-28.39"/>
<polygon fill="#63b8ff" stroke="#63b8ff" points="418.67,-25.77 408.81,-21.91 414.12,-31.08 418.67,-25.77"/>
</a>
</g>
</g>
<!-- Node18&#45;&gt;Node4 -->
<g id="edge29_Node000018_Node000004" class="edge">
<title>Node18&#45;&gt;Node4</title>
<g id="a_edge29_Node000018_Node000004"><a xlink:title=" ">
<path fill="none" stroke="#63b8ff" d="M527.04,-113.09C554.86,-104.02 596.38,-90.49 626.6,-80.64"/>
<polygon fill="#63b8ff" stroke="#63b8ff" points="627.31,-84.09 635.74,-77.66 625.15,-77.43 627.31,-84.09"/>
</a>
</g>
</g>
<!-- Node20&#45;&gt;Node21 -->
<g id="edge33_Node000020_Node000021" class="edge">
<title>Node20&#45;&gt;Node21</title>
<g id="a_edge33_Node000020_Node000021"><a xlink:title=" ">
<path fill="none" stroke="#63b8ff" d="M896.54,-340.44C894.22,-327.19 888.89,-302.57 879,-283.75 861.66,-250.77 832.55,-218.56 813.55,-199.4"/>
<polygon fill="#63b8ff" stroke="#63b8ff" points="816.03,-196.93 806.46,-192.39 811.11,-201.91 816.03,-196.93"/>
</a>
</g>
</g>
<!-- Node22 -->
<g id="Node000022" class="node">
<title>Node22</title>
<g id="a_Node000022"><a xlink:href="cib_8h.html" target="_top" xlink:title="Circular integer buffer interface.">
<polygon fill="white" stroke="#666666" points="583.62,-304.5 544.38,-304.5 544.38,-283.75 583.62,-283.75 583.62,-304.5"/>
<text text-anchor="middle" x="564" y="-291" font-family="Helvetica,sans-Serif" font-size="10.00">cib.h</text>
</a>
</g>
</g>
<!-- Node20&#45;&gt;Node22 -->
<g id="edge37_Node000020_Node000022" class="edge">
<title>Node20&#45;&gt;Node22</title>
<g id="a_edge37_Node000020_Node000022"><a xlink:title=" ">
<path fill="none" stroke="#63b8ff" d="M869.52,-345.21C807.3,-335.01 659.61,-310.8 595.08,-300.22"/>
<polygon fill="#63b8ff" stroke="#63b8ff" points="595.96,-296.82 585.53,-298.65 594.83,-303.73 595.96,-296.82"/>
</a>
</g>
</g>
<!-- Node23 -->
<g id="Node000023" class="node">
<title>Node23</title>
<g id="a_Node000023"><a xlink:href="core_2include_2msg_8h.html" target="_top" xlink:title="Messaging API for inter process communication.">
<polygon fill="white" stroke="#666666" points="1048,-304.5 1002,-304.5 1002,-283.75 1048,-283.75 1048,-304.5"/>
<text text-anchor="middle" x="1025" y="-291" font-family="Helvetica,sans-Serif" font-size="10.00">msg.h</text>
</a>
</g>
</g>
<!-- Node20&#45;&gt;Node23 -->
<g id="edge39_Node000020_Node000023" class="edge">
<title>Node20&#45;&gt;Node23</title>
<g id="a_edge39_Node000020_Node000023"><a xlink:title=" ">
<path fill="none" stroke="#63b8ff" d="M920.71,-340.09C940.57,-331.52 969.67,-318.98 992.09,-309.31"/>
<polygon fill="#63b8ff" stroke="#63b8ff" points="993.3,-312.6 1001.1,-305.43 990.53,-306.17 993.3,-312.6"/>
</a>
</g>
</g>
<!-- Node24 -->
<g id="Node000024" class="node">
<title>Node24</title>
<g id="a_Node000024"><a xlink:href="sched_8h.html" target="_top" xlink:title="Scheduler API definition.">
<polygon fill="white" stroke="#666666" points="962.75,-247.75 909.25,-247.75 909.25,-227 962.75,-227 962.75,-247.75"/>
<text text-anchor="middle" x="936" y="-234.25" font-family="Helvetica,sans-Serif" font-size="10.00">sched.h</text>
</a>
</g>
</g>
<!-- Node20&#45;&gt;Node24 -->
<g id="edge48_Node000020_Node000024" class="edge">
<title>Node20&#45;&gt;Node24</title>
<g id="a_edge48_Node000020_Node000024"><a xlink:title=" ">
<path fill="none" stroke="#63b8ff" d="M901.24,-340.37C907.35,-322.44 920.71,-283.25 928.97,-259.01"/>
<polygon fill="#63b8ff" stroke="#63b8ff" points="932.26,-260.2 932.17,-249.61 925.63,-257.94 932.26,-260.2"/>
</a>
</g>
</g>
<!-- Node26 -->
<g id="Node000026" class="node">
<title>Node26</title>
<g id="a_Node000026"><a xlink:href="thread__config_8h.html" target="_top" xlink:title="Thread configuration defines.">
<polygon fill="white" stroke="#666666" points="769.88,-304.5 678.12,-304.5 678.12,-283.75 769.88,-283.75 769.88,-304.5"/>
<text text-anchor="middle" x="724" y="-291" font-family="Helvetica,sans-Serif" font-size="10.00">thread_config.h</text>
</a>
</g>
</g>
<!-- Node20&#45;&gt;Node26 -->
<g id="edge49_Node000020_Node000026" class="edge">
<title>Node20&#45;&gt;Node26</title>
<g id="a_edge49_Node000020_Node000026"><a xlink:title=" ">
<path fill="none" stroke="#63b8ff" d="M869.27,-340.83C841.12,-331.98 797.91,-318.38 765.93,-308.32"/>
<polygon fill="#63b8ff" stroke="#63b8ff" points="767.16,-305.04 756.57,-305.37 765.06,-311.71 767.16,-305.04"/>
</a>
</g>
</g>
<!-- Node28 -->
<g id="Node000028" class="node">
<title>Node28</title>
<g id="a_Node000028"><a xlink:title=" ">
<polygon fill="#e0e0e0" stroke="#999999" points="870.38,-304.5 787.62,-304.5 787.62,-283.75 870.38,-283.75 870.38,-304.5"/>
<text text-anchor="middle" x="829" y="-291" font-family="Helvetica,sans-Serif" font-size="10.00">thread_arch.h</text>
</a>
</g>
</g>
<!-- Node20&#45;&gt;Node28 -->
<g id="edge52_Node000020_Node000028" class="edge">
<title>Node20&#45;&gt;Node28</title>
<g id="a_edge52_Node000020_Node000028"><a xlink:title=" ">
<path fill="none" stroke="#63b8ff" d="M885.66,-340.09C875.75,-332.22 861.61,-321 849.94,-311.74"/>
<polygon fill="#63b8ff" stroke="#63b8ff" points="852.42,-309.24 842.41,-305.77 848.07,-314.73 852.42,-309.24"/>
</a>
</g>
</g>
<!-- Node21&#45;&gt;Node4 -->
<g id="edge35_Node000021_Node000004" class="edge">
<title>Node21&#45;&gt;Node4</title>
<g id="a_edge35_Node000021_Node000004"><a xlink:title=" ">
<path fill="none" stroke="#63b8ff" d="M797.07,-169.95C799.47,-155.96 801.64,-129.95 789,-113.5 768.93,-87.38 732.32,-76.29 704.06,-71.58"/>
<polygon fill="#63b8ff" stroke="#63b8ff" points="704.82,-68.15 694.42,-70.19 703.82,-75.08 704.82,-68.15"/>
</a>
</g>
</g>
<!-- Node21&#45;&gt;Node6 -->
<g id="edge34_Node000021_Node000006" class="edge">
<title>Node21&#45;&gt;Node6</title>
<g id="a_edge34_Node000021_Node000006"><a xlink:title=" ">
<path fill="none" stroke="#63b8ff" d="M817.9,-173.77C853.41,-164.68 922.3,-147.06 966.94,-135.63"/>
<polygon fill="#63b8ff" stroke="#63b8ff" points="967.72,-139.05 976.54,-133.18 965.99,-132.27 967.72,-139.05"/>
</a>
</g>
</g>
<!-- Node21&#45;&gt;Node19 -->
<g id="edge36_Node000021_Node000019" class="edge">
<title>Node21&#45;&gt;Node19</title>
<g id="a_edge36_Node000021_Node000019"><a xlink:title=" ">
<path fill="none" stroke="#63b8ff" d="M816.81,-169.84C836.16,-161.15 864.63,-148.38 886.28,-138.66"/>
<polygon fill="#63b8ff" stroke="#63b8ff" points="887.52,-141.94 895.21,-134.65 884.66,-135.55 887.52,-141.94"/>
</a>
</g>
</g>
<!-- Node22&#45;&gt;Node17 -->
<g id="edge38_Node000022_Node000017" class="edge">
<title>Node22&#45;&gt;Node17</title>
<g id="a_edge38_Node000022_Node000017"><a xlink:title=" ">
<path fill="none" stroke="#63b8ff" d="M543.98,-289.2C488.62,-277.19 332.85,-235.43 262,-134.25 252.84,-121.17 250.94,-103.01 251.13,-89.03"/>
<polygon fill="#63b8ff" stroke="#63b8ff" points="254.62,-89.32 251.66,-79.14 247.63,-88.94 254.62,-89.32"/>
</a>
</g>
</g>
<!-- Node23&#45;&gt;Node2 -->
<g id="edge40_Node000023_Node000002" class="edge">
<title>Node23&#45;&gt;Node2</title>
<g id="a_edge40_Node000023_Node000002"><a xlink:title=" ">
<path fill="none" stroke="#63b8ff" d="M1038.74,-283.5C1061.85,-266.07 1106,-226.85 1106,-181.62 1106,-181.62 1106,-181.62 1106,-122.88 1106,-54.16 580.29,-21.14 433.6,-13.27"/>
<polygon fill="#63b8ff" stroke="#63b8ff" points="434.22,-9.8 424.05,-12.76 433.85,-16.79 434.22,-9.8"/>
</a>
</g>
</g>
<!-- Node23&#45;&gt;Node6 -->
<g id="edge41_Node000023_Node000006" class="edge">
<title>Node23&#45;&gt;Node6</title>
<g id="a_edge41_Node000023_Node000006"><a xlink:title=" ">
<path fill="none" stroke="#63b8ff" d="M1024.09,-283.6C1021.59,-257.23 1014.51,-182.83 1011.01,-146.03"/>
<polygon fill="#63b8ff" stroke="#63b8ff" points="1014.51,-145.85 1010.08,-136.22 1007.54,-146.51 1014.51,-145.85"/>
</a>
</g>
</g>
<!-- Node23&#45;&gt;Node24 -->
<g id="edge42_Node000023_Node000024" class="edge">
<title>Node23&#45;&gt;Node24</title>
<g id="a_edge42_Node000023_Node000024"><a xlink:title=" ">
<path fill="none" stroke="#63b8ff" d="M1009.09,-283.34C995.8,-275.16 976.61,-263.36 961.23,-253.9"/>
<polygon fill="#63b8ff" stroke="#63b8ff" points="963.41,-251.13 953.06,-248.87 959.75,-257.09 963.41,-251.13"/>
</a>
</g>
</g>
<!-- Node24&#45;&gt;Node4 -->
<g id="edge43_Node000024_Node000004" class="edge">
<title>Node24&#45;&gt;Node4</title>
<g id="a_edge43_Node000024_Node000004"><a xlink:title=" ">
<path fill="none" stroke="#63b8ff" d="M916.92,-226.66C901.83,-218.42 880.76,-205.63 865,-191 833.48,-161.72 842.04,-138.46 807,-113.5 776.16,-91.54 734.19,-79.86 703.88,-73.88"/>
<polygon fill="#63b8ff" stroke="#63b8ff" points="704.84,-70.5 694.37,-72.13 703.58,-77.38 704.84,-70.5"/>
</a>
</g>
</g>
<!-- Node24&#45;&gt;Node10 -->
<g id="edge44_Node000024_Node000010" class="edge">
<title>Node24&#45;&gt;Node10</title>
<g id="a_edge44_Node000024_Node000010"><a xlink:title=" ">
<path fill="none" stroke="#63b8ff" d="M962.83,-229.99C1002.03,-220.66 1075.36,-203.2 1122.37,-192.01"/>
<polygon fill="#63b8ff" stroke="#63b8ff" points="1123.04,-195.45 1131.96,-189.73 1121.42,-188.64 1123.04,-195.45"/>
</a>
</g>
</g>
<!-- Node24&#45;&gt;Node13 -->
<g id="edge45_Node000024_Node000013" class="edge">
<title>Node24&#45;&gt;Node13</title>
<g id="a_edge45_Node000024_Node000013"><a xlink:title=" ">
<path fill="none" stroke="#63b8ff" d="M908.87,-232.99C839.26,-224.31 653.05,-201.09 556.66,-189.07"/>
<polygon fill="#63b8ff" stroke="#63b8ff" points="557.23,-185.61 546.87,-187.84 556.36,-192.56 557.23,-185.61"/>
</a>
</g>
</g>
<!-- Node24&#45;&gt;Node21 -->
<g id="edge47_Node000024_Node000021" class="edge">
<title>Node24&#45;&gt;Node21</title>
<g id="a_edge47_Node000024_Node000021"><a xlink:title=" ">
<path fill="none" stroke="#63b8ff" d="M910.79,-226.59C887.88,-217.69 853.91,-204.5 828.68,-194.7"/>
<polygon fill="#63b8ff" stroke="#63b8ff" points="830.12,-191.51 819.53,-191.15 827.59,-198.03 830.12,-191.51"/>
</a>
</g>
</g>
<!-- Node25 -->
<g id="Node000025" class="node">
<title>Node25</title>
<g id="a_Node000025"><a xlink:href="native__sched_8h.html" target="_top" xlink:title="Add definitions required on the native board.">
<polygon fill="white" stroke="#666666" points="963.75,-191 874.25,-191 874.25,-170.25 963.75,-170.25 963.75,-191"/>
<text text-anchor="middle" x="919" y="-177.5" font-family="Helvetica,sans-Serif" font-size="10.00">native_sched.h</text>
</a>
</g>
</g>
<!-- Node24&#45;&gt;Node25 -->
<g id="edge46_Node000024_Node000025" class="edge">
<title>Node24&#45;&gt;Node25</title>
<g id="a_edge46_Node000024_Node000025"><a xlink:title=" ">
<path fill="none" stroke="#63b8ff" d="M932.96,-226.59C930.86,-219.81 927.98,-210.55 925.39,-202.19"/>
<polygon fill="#63b8ff" stroke="#63b8ff" points="928.77,-201.29 922.46,-192.77 922.08,-203.36 928.77,-201.29"/>
</a>
</g>
</g>
<!-- Node26&#45;&gt;Node24 -->
<g id="edge51_Node000026_Node000024" class="edge">
<title>Node26&#45;&gt;Node24</title>
<g id="a_edge51_Node000026_Node000024"><a xlink:title=" ">
<path fill="none" stroke="#63b8ff" d="M761.9,-283.34C800.38,-273.4 859.63,-258.1 898.11,-248.16"/>
<polygon fill="#63b8ff" stroke="#63b8ff" points="898.58,-251.65 907.39,-245.76 896.83,-244.88 898.58,-251.65"/>
</a>
</g>
</g>
<!-- Node27 -->
<g id="Node000027" class="node">
<title>Node27</title>
<g id="a_Node000027"><a xlink:title=" ">
<polygon fill="#e0e0e0" stroke="#999999" points="779.88,-134.25 712.12,-134.25 712.12,-113.5 779.88,-113.5 779.88,-134.25"/>
<text text-anchor="middle" x="746" y="-120.75" font-family="Helvetica,sans-Serif" font-size="10.00">cpu_conf.h</text>
</a>
</g>
</g>
<!-- Node26&#45;&gt;Node27 -->
<g id="edge50_Node000026_Node000027" class="edge">
<title>Node26&#45;&gt;Node27</title>
<g id="a_edge50_Node000026_Node000027"><a xlink:title=" ">
<path fill="none" stroke="#63b8ff" d="M725.25,-283.6C728.69,-257.23 738.42,-182.83 743.23,-146.03"/>
<polygon fill="#63b8ff" stroke="#63b8ff" points="746.69,-146.59 744.52,-136.22 739.75,-145.68 746.69,-146.59"/>
</a>
</g>
</g>
<!-- Node29&#45;&gt;Node2 -->
<g id="edge56_Node000029_Node000002" class="edge">
<title>Node29&#45;&gt;Node2</title>
<g id="a_edge56_Node000029_Node000002"><a xlink:title=" ">
<path fill="none" stroke="#63b8ff" d="M198.38,-226.71C191.01,-197.11 173.32,-106.73 217,-56.75 235.33,-35.78 311.25,-22.37 358.14,-15.92"/>
<polygon fill="#63b8ff" stroke="#63b8ff" points="358.42,-19.41 367.88,-14.63 357.5,-12.47 358.42,-19.41"/>
</a>
</g>
</g>
<!-- Node29&#45;&gt;Node4 -->
<g id="edge55_Node000029_Node000004" class="edge">
<title>Node29&#45;&gt;Node4</title>
<g id="a_edge55_Node000029_Node000004"><a xlink:title=" ">
<path fill="none" stroke="#63b8ff" d="M223.34,-235.04C291.13,-230.77 493.53,-216.16 554,-191 591.94,-175.21 600.03,-165.26 627,-134.25 639.08,-120.36 649.25,-102.04 656.02,-88.21"/>
<polygon fill="#63b8ff" stroke="#63b8ff" points="659.16,-89.76 660.23,-79.22 652.82,-86.79 659.16,-89.76"/>
</a>
</g>
</g>
<!-- Node29&#45;&gt;Node17 -->
<g id="edge54_Node000029_Node000017" class="edge">
<title>Node29&#45;&gt;Node17</title>
<g id="a_edge54_Node000029_Node000017"><a xlink:title=" ">
<path fill="none" stroke="#63b8ff" d="M202.18,-226.54C204.95,-205.34 212.77,-153.97 228,-113.5 231.35,-104.59 236.21,-95.29 240.75,-87.44"/>
<polygon fill="#63b8ff" stroke="#63b8ff" points="243.61,-89.48 245.8,-79.12 237.62,-85.86 243.61,-89.48"/>
</a>
</g>
</g>
<!-- Node30 -->
<g id="Node000030" class="node">
<title>Node30</title>
<g id="a_Node000030"><a xlink:href="irq_8h.html" target="_top" xlink:title="IRQ driver interface.">
<polygon fill="white" stroke="#666666" points="715.88,-191 678.12,-191 678.12,-170.25 715.88,-170.25 715.88,-191"/>
<text text-anchor="middle" x="697" y="-177.5" font-family="Helvetica,sans-Serif" font-size="10.00">irq.h</text>
</a>
</g>
</g>
<!-- Node29&#45;&gt;Node30 -->
<g id="edge57_Node000029_Node000030" class="edge">
<title>Node29&#45;&gt;Node30</title>
<g id="a_edge57_Node000029_Node000030"><a xlink:title=" ">
<path fill="none" stroke="#63b8ff" d="M223.14,-234.21C286.19,-227.99 472.01,-209.38 626,-191 639.29,-189.41 653.95,-187.5 666.48,-185.82"/>
<polygon fill="#63b8ff" stroke="#63b8ff" points="666.79,-189.31 676.23,-184.5 665.85,-182.38 666.79,-189.31"/>
</a>
</g>
</g>
<!-- Node30&#45;&gt;Node6 -->
<g id="edge58_Node000030_Node000006" class="edge">
<title>Node30&#45;&gt;Node6</title>
<g id="a_edge58_Node000030_Node000006"><a xlink:title=" ">
<path fill="none" stroke="#63b8ff" d="M716.05,-176.28C765.45,-167.61 898.61,-144.25 967.08,-132.23"/>
<polygon fill="#63b8ff" stroke="#63b8ff" points="967.55,-135.7 976.79,-130.53 966.34,-128.81 967.55,-135.7"/>
</a>
</g>
</g>
<!-- Node30&#45;&gt;Node27 -->
<g id="edge59_Node000030_Node000027" class="edge">
<title>Node30&#45;&gt;Node27</title>
<g id="a_edge59_Node000030_Node000027"><a xlink:title=" ">
<path fill="none" stroke="#63b8ff" d="M705.76,-169.84C712.45,-162.36 721.85,-151.86 729.89,-142.88"/>
<polygon fill="#63b8ff" stroke="#63b8ff" points="732.25,-145.49 736.31,-135.71 727.03,-140.82 732.25,-145.49"/>
</a>
</g>
</g>
<!-- Node31&#45;&gt;Node2 -->
<g id="edge64_Node000031_Node000002" class="edge">
<title>Node31&#45;&gt;Node2</title>
<g id="a_edge64_Node000031_Node000002"><a xlink:title=" ">
<path fill="none" stroke="#63b8ff" d="M1644.44,-233.79C1696.38,-228.67 1778.32,-213.63 1753,-170.25 1701.28,-81.65 1650.69,-84.77 1552,-56.75 1442.58,-25.68 621.67,-14.07 434.09,-11.81"/>
<polygon fill="#63b8ff" stroke="#63b8ff" points="434.22,-8.31 424.18,-11.69 434.14,-15.31 434.22,-8.31"/>
</a>
</g>
</g>
<!-- Node31&#45;&gt;Node4 -->
<g id="edge63_Node000031_Node000004" class="edge">
<title>Node31&#45;&gt;Node4</title>
<g id="a_edge63_Node000031_Node000004"><a xlink:title=" ">
<path fill="none" stroke="#63b8ff" d="M1590.87,-226.64C1568.61,-211.81 1523.52,-183.88 1481,-170.25 1193.47,-78.06 824.11,-68.49 704.35,-67.95"/>
<polygon fill="#63b8ff" stroke="#63b8ff" points="704.43,-64.45 694.43,-67.93 704.42,-71.45 704.43,-64.45"/>
</a>
</g>
</g>
<!-- Node31&#45;&gt;Node11 -->
<g id="edge62_Node000031_Node000011" class="edge">
<title>Node31&#45;&gt;Node11</title>
<g id="a_edge62_Node000031_Node000011"><a xlink:title=" ">
<path fill="none" stroke="#63b8ff" d="M1576.57,-226.59C1550.63,-217.65 1512.1,-204.39 1483.62,-194.58"/>
<polygon fill="#63b8ff" stroke="#63b8ff" points="1484.88,-191.31 1474.29,-191.37 1482.6,-197.93 1484.88,-191.31"/>
</a>
</g>
</g>
<!-- Node32 -->
<g id="Node000032" class="node">
<title>Node32</title>
<g id="a_Node000032"><a xlink:href="errno_8h.html" target="_top" xlink:title=" ">
<polygon fill="white" stroke="#666666" points="1850.25,-191 1799.75,-191 1799.75,-170.25 1850.25,-170.25 1850.25,-191"/>
<text text-anchor="middle" x="1825" y="-177.5" font-family="Helvetica,sans-Serif" font-size="10.00">errno.h</text>
</a>
</g>
</g>
<!-- Node31&#45;&gt;Node32 -->
<g id="edge61_Node000031_Node000032" class="edge">
<title>Node31&#45;&gt;Node32</title>
<g id="a_edge61_Node000031_Node000032"><a xlink:title=" ">
<path fill="none" stroke="#63b8ff" d="M1644.59,-226.52C1685.46,-216.35 1748.7,-200.61 1788.43,-190.73"/>
<polygon fill="#63b8ff" stroke="#63b8ff" points="1789.14,-194.16 1798,-188.35 1787.45,-187.36 1789.14,-194.16"/>
</a>
</g>
</g>
<!-- Node33 -->
<g id="Node000033" class="node">
<title>Node33</title>
<g id="a_Node000033"><a xlink:title=" ">
<polygon fill="#e0e0e0" stroke="#999999" points="1644.12,-191 1565.88,-191 1565.88,-170.25 1644.12,-170.25 1644.12,-191"/>
<text text-anchor="middle" x="1605" y="-177.5" font-family="Helvetica,sans-Serif" font-size="10.00">periph_cpu.h</text>
</a>
</g>
</g>
<!-- Node31&#45;&gt;Node33 -->
<g id="edge65_Node000031_Node000033" class="edge">
<title>Node31&#45;&gt;Node33</title>
<g id="a_edge65_Node000031_Node000033"><a xlink:title=" ">
<path fill="none" stroke="#63b8ff" d="M1605,-226.59C1605,-219.97 1605,-210.97 1605,-202.77"/>
<polygon fill="#63b8ff" stroke="#63b8ff" points="1608.5,-202.84 1605,-192.84 1601.5,-202.84 1608.5,-202.84"/>
</a>
</g>
</g>
<!-- Node34 -->
<g id="Node000034" class="node">
<title>Node34</title>
<g id="a_Node000034"><a xlink:title=" ">
<polygon fill="#e0e0e0" stroke="#999999" points="1743.62,-191 1662.38,-191 1662.38,-170.25 1743.62,-170.25 1743.62,-191"/>
<text text-anchor="middle" x="1703" y="-177.5" font-family="Helvetica,sans-Serif" font-size="10.00">periph_conf.h</text>
</a>
</g>
</g>
<!-- Node31&#45;&gt;Node34 -->
<g id="edge66_Node000031_Node000034" class="edge">
<title>Node31&#45;&gt;Node34</title>
<g id="a_edge66_Node000031_Node000034"><a xlink:title=" ">
<path fill="none" stroke="#63b8ff" d="M1622.52,-226.59C1637.29,-218.33 1658.68,-206.38 1675.7,-196.88"/>
<polygon fill="#63b8ff" stroke="#63b8ff" points="1677.29,-200 1684.31,-192.07 1673.87,-193.89 1677.29,-200"/>
</a>
</g>
</g>
</g>
</svg>
