<?xml version="1.0" encoding="UTF-8" standalone="no"?>
<!DOCTYPE svg PUBLIC "-//W3C//DTD SVG 1.1//EN"
 "http://www.w3.org/Graphics/SVG/1.1/DTD/svg11.dtd">
<!-- Generated by graphviz version 12.1.1 (0)
 -->
<!-- Title: boards/atmega8/include/board.h Pages: 1 -->
<svg width="173pt" height="225pt"
 viewBox="0.00 0.00 172.75 224.50" xmlns="http://www.w3.org/2000/svg" xmlns:xlink="http://www.w3.org/1999/xlink">
<g id="graph0" class="graph" transform="scale(1 1) rotate(0) translate(4 220.5)">
<title>boards/atmega8/include/board.h</title>
<!-- Node1 -->
<g id="Node000001" class="node">
<title>Node1</title>
<g id="a_Node000001"><a xlink:title="Board specific definitions for the standalone ATmega8 &quot;board&quot;.">
<polygon fill="#999999" stroke="#666666" points="133.75,-216.5 0,-216.5 0,-183 133.75,-183 133.75,-216.5"/>
<text text-anchor="start" x="8" y="-203" font-family="Helvetica,sans-Serif" font-size="10.00">boards/atmega8/include</text>
<text text-anchor="middle" x="66.88" y="-190.25" font-family="Helvetica,sans-Serif" font-size="10.00">/board.h</text>
</a>
</g>
</g>
<!-- Node2 -->
<g id="Node000002" class="node">
<title>Node2</title>
<g id="a_Node000002"><a xlink:title=" ">
<polygon fill="#e0e0e0" stroke="#999999" points="48,-147 5.75,-147 5.75,-126.25 48,-126.25 48,-147"/>
<text text-anchor="middle" x="26.88" y="-133.5" font-family="Helvetica,sans-Serif" font-size="10.00">cpu.h</text>
</a>
</g>
</g>
<!-- Node1&#45;&gt;Node2 -->
<g id="edge1_Node000001_Node000002" class="edge">
<title>Node1&#45;&gt;Node2</title>
<g id="a_edge1_Node000001_Node000002"><a xlink:title=" ">
<path fill="none" stroke="#63b8ff" d="M56.37,-182.69C51.22,-174.83 44.99,-165.31 39.58,-157.04"/>
<polygon fill="#63b8ff" stroke="#63b8ff" points="42.55,-155.18 34.14,-148.73 36.69,-159.02 42.55,-155.18"/>
</a>
</g>
</g>
<!-- Node3 -->
<g id="Node000003" class="node">
<title>Node3</title>
<g id="a_Node000003"><a xlink:href="boards_2atmega8_2include_2periph__conf_8h.html" target="_top" xlink:title="Peripheral MCU configuration for the ATmega8 standalone &quot;board&quot;.">
<polygon fill="white" stroke="#666666" points="147.5,-147 66.25,-147 66.25,-126.25 147.5,-126.25 147.5,-147"/>
<text text-anchor="middle" x="106.88" y="-133.5" font-family="Helvetica,sans-Serif" font-size="10.00">periph_conf.h</text>
</a>
</g>
</g>
<!-- Node1&#45;&gt;Node3 -->
<g id="edge2_Node000001_Node000003" class="edge">
<title>Node1&#45;&gt;Node3</title>
<g id="a_edge2_Node000001_Node000003"><a xlink:title=" ">
<path fill="none" stroke="#63b8ff" d="M77.38,-182.69C82.53,-174.83 88.76,-165.31 94.17,-157.04"/>
<polygon fill="#63b8ff" stroke="#63b8ff" points="97.06,-159.02 99.61,-148.73 91.2,-155.18 97.06,-159.02"/>
</a>
</g>
</g>
<!-- Node4 -->
<g id="Node000004" class="node">
<title>Node4</title>
<g id="a_Node000004"><a xlink:href="periph__conf__atmega__common_8h.html" target="_top" xlink:title="Common configuration of MCU periphery for ATmega boards.">
<polygon fill="white" stroke="#666666" points="164.75,-90.25 49,-90.25 49,-56.75 164.75,-56.75 164.75,-90.25"/>
<text text-anchor="start" x="57" y="-76.75" font-family="Helvetica,sans-Serif" font-size="10.00">periph_conf_atmega</text>
<text text-anchor="middle" x="106.88" y="-64" font-family="Helvetica,sans-Serif" font-size="10.00">_common.h</text>
</a>
</g>
</g>
<!-- Node3&#45;&gt;Node4 -->
<g id="edge3_Node000003_Node000004" class="edge">
<title>Node3&#45;&gt;Node4</title>
<g id="a_edge3_Node000003_Node000004"><a xlink:title=" ">
<path fill="none" stroke="#63b8ff" d="M106.88,-125.8C106.88,-119.38 106.88,-110.65 106.88,-102.2"/>
<polygon fill="#63b8ff" stroke="#63b8ff" points="110.38,-102.25 106.88,-92.25 103.38,-102.25 110.38,-102.25"/>
</a>
</g>
</g>
<!-- Node5 -->
<g id="Node000005" class="node">
<title>Node5</title>
<g id="a_Node000005"><a xlink:title=" ">
<polygon fill="#e0e0e0" stroke="#999999" points="146,-20.75 67.75,-20.75 67.75,0 146,0 146,-20.75"/>
<text text-anchor="middle" x="106.88" y="-7.25" font-family="Helvetica,sans-Serif" font-size="10.00">periph_cpu.h</text>
</a>
</g>
</g>
<!-- Node4&#45;&gt;Node5 -->
<g id="edge4_Node000004_Node000005" class="edge">
<title>Node4&#45;&gt;Node5</title>
<g id="a_edge4_Node000004_Node000005"><a xlink:title=" ">
<path fill="none" stroke="#63b8ff" d="M106.88,-56.44C106.88,-49.1 106.88,-40.32 106.88,-32.46"/>
<polygon fill="#63b8ff" stroke="#63b8ff" points="110.38,-32.73 106.88,-22.73 103.38,-32.73 110.38,-32.73"/>
</a>
</g>
</g>
</g>
</svg>
