<?xml version="1.0" encoding="UTF-8" standalone="no"?>
<!DOCTYPE svg PUBLIC "-//W3C//DTD SVG 1.1//EN"
 "http://www.w3.org/Graphics/SVG/1.1/DTD/svg11.dtd">
<!-- Generated by graphviz version 12.1.1 (0)
 -->
<!-- Title: cpu/atmega_common/include/cpu_conf.h Pages: 1 -->
<svg width="168pt" height="155pt"
 viewBox="0.00 0.00 168.00 155.00" xmlns="http://www.w3.org/2000/svg" xmlns:xlink="http://www.w3.org/1999/xlink">
<g id="graph0" class="graph" transform="scale(1 1) rotate(0) translate(4 151)">
<title>cpu/atmega_common/include/cpu_conf.h</title>
<!-- Node1 -->
<g id="Node000001" class="node">
<title>Node1</title>
<g id="a_Node000001"><a xlink:title="Implementation specific CPU configuration options.">
<polygon fill="#999999" stroke="#666666" points="160,-147 0,-147 0,-113.5 160,-113.5 160,-147"/>
<text text-anchor="start" x="8" y="-133.5" font-family="Helvetica,sans-Serif" font-size="10.00">cpu/atmega_common/include</text>
<text text-anchor="middle" x="80" y="-120.75" font-family="Helvetica,sans-Serif" font-size="10.00">/cpu_conf.h</text>
</a>
</g>
</g>
<!-- Node2 -->
<g id="Node000002" class="node">
<title>Node2</title>
<g id="a_Node000002"><a xlink:href="atmega__regs__common_8h.html" target="_top" xlink:title="CMSIS style register definitions for the atmega family.">
<polygon fill="white" stroke="#666666" points="148.38,-77.5 11.62,-77.5 11.62,-56.75 148.38,-56.75 148.38,-77.5"/>
<text text-anchor="middle" x="80" y="-64" font-family="Helvetica,sans-Serif" font-size="10.00">atmega_regs_common.h</text>
</a>
</g>
</g>
<!-- Node1&#45;&gt;Node2 -->
<g id="edge1_Node000001_Node000002" class="edge">
<title>Node1&#45;&gt;Node2</title>
<g id="a_edge1_Node000001_Node000002"><a xlink:title=" ">
<path fill="none" stroke="#63b8ff" d="M80,-113.19C80,-105.85 80,-97.07 80,-89.21"/>
<polygon fill="#63b8ff" stroke="#63b8ff" points="83.5,-89.48 80,-79.48 76.5,-89.48 83.5,-89.48"/>
</a>
</g>
</g>
<!-- Node3 -->
<g id="Node000003" class="node">
<title>Node3</title>
<g id="a_Node000003"><a xlink:title=" ">
<polygon fill="#e0e0e0" stroke="#999999" points="66.38,-20.75 13.62,-20.75 13.62,0 66.38,0 66.38,-20.75"/>
<text text-anchor="middle" x="40" y="-7.25" font-family="Helvetica,sans-Serif" font-size="10.00">avr/io.h</text>
</a>
</g>
</g>
<!-- Node2&#45;&gt;Node3 -->
<g id="edge2_Node000002_Node000003" class="edge">
<title>Node2&#45;&gt;Node3</title>
<g id="a_edge2_Node000002_Node000003"><a xlink:title=" ">
<path fill="none" stroke="#63b8ff" d="M72.85,-56.34C67.56,-49.1 60.19,-39.01 53.77,-30.22"/>
<polygon fill="#63b8ff" stroke="#63b8ff" points="56.71,-28.31 47.98,-22.3 51.06,-32.44 56.71,-28.31"/>
</a>
</g>
</g>
<!-- Node4 -->
<g id="Node000004" class="node">
<title>Node4</title>
<g id="a_Node000004"><a xlink:title=" ">
<polygon fill="#e0e0e0" stroke="#999999" points="157.88,-20.75 84.12,-20.75 84.12,0 157.88,0 157.88,-20.75"/>
<text text-anchor="middle" x="121" y="-7.25" font-family="Helvetica,sans-Serif" font-size="10.00">avr/power.h</text>
</a>
</g>
</g>
<!-- Node2&#45;&gt;Node4 -->
<g id="edge3_Node000002_Node000004" class="edge">
<title>Node2&#45;&gt;Node4</title>
<g id="a_edge3_Node000002_Node000004"><a xlink:title=" ">
<path fill="none" stroke="#63b8ff" d="M87.33,-56.34C92.75,-49.1 100.31,-39.01 106.89,-30.22"/>
<polygon fill="#63b8ff" stroke="#63b8ff" points="109.63,-32.39 112.83,-22.29 104.03,-28.2 109.63,-32.39"/>
</a>
</g>
</g>
</g>
</svg>
