<?xml version="1.0" encoding="UTF-8" standalone="no"?>
<!DOCTYPE svg PUBLIC "-//W3C//DTD SVG 1.1//EN"
 "http://www.w3.org/Graphics/SVG/1.1/DTD/svg11.dtd">
<!-- Generated by graphviz version 12.1.1 (0)
 -->
<!-- Title: cpu/atmega_common/include/atmega_gpio.h Pages: 1 -->
<svg width="627pt" height="382pt"
 viewBox="0.00 0.00 627.12 382.00" xmlns="http://www.w3.org/2000/svg" xmlns:xlink="http://www.w3.org/1999/xlink">
<g id="graph0" class="graph" transform="scale(1 1) rotate(0) translate(4 378)">
<title>cpu/atmega_common/include/atmega_gpio.h</title>
<!-- Node1 -->
<g id="Node000001" class="node">
<title>Node1</title>
<g id="a_Node000001"><a xlink:title="Macros and inline functions for accessing GPIOs of the ATmega family.">
<polygon fill="#999999" stroke="#666666" points="418.5,-374 258.5,-374 258.5,-340.5 418.5,-340.5 418.5,-374"/>
<text text-anchor="start" x="266.5" y="-360.5" font-family="Helvetica,sans-Serif" font-size="10.00">cpu/atmega_common/include</text>
<text text-anchor="middle" x="338.5" y="-347.75" font-family="Helvetica,sans-Serif" font-size="10.00">/atmega_gpio.h</text>
</a>
</g>
</g>
<!-- Node2 -->
<g id="Node000002" class="node">
<title>Node2</title>
<g id="a_Node000002"><a xlink:title=" ">
<polygon fill="#e0e0e0" stroke="#999999" points="55,-77.5 0,-77.5 0,-56.75 55,-56.75 55,-77.5"/>
<text text-anchor="middle" x="27.5" y="-64" font-family="Helvetica,sans-Serif" font-size="10.00">stddef.h</text>
</a>
</g>
</g>
<!-- Node1&#45;&gt;Node2 -->
<g id="edge1_Node000001_Node000002" class="edge">
<title>Node1&#45;&gt;Node2</title>
<g id="a_edge1_Node000001_Node000002"><a xlink:title=" ">
<path fill="none" stroke="#63b8ff" d="M258.26,-347.91C211.61,-340.81 152.71,-327.86 104.5,-304.5 62.68,-284.24 23.5,-284.85 23.5,-238.38 23.5,-238.38 23.5,-238.38 23.5,-179.62 23.5,-148.21 25.11,-111.85 26.28,-89.42"/>
<polygon fill="#63b8ff" stroke="#63b8ff" points="29.77,-89.65 26.83,-79.48 22.78,-89.27 29.77,-89.65"/>
</a>
</g>
</g>
<!-- Node3 -->
<g id="Node000003" class="node">
<title>Node3</title>
<g id="a_Node000003"><a xlink:href="stdio_8h.html" target="_top" xlink:title="stdio wrapper to extend the C libs stdio">
<polygon fill="white" stroke="#666666" points="163,-304.5 114,-304.5 114,-283.75 163,-283.75 163,-304.5"/>
<text text-anchor="middle" x="138.5" y="-291" font-family="Helvetica,sans-Serif" font-size="10.00">stdio.h</text>
</a>
</g>
</g>
<!-- Node1&#45;&gt;Node3 -->
<g id="edge2_Node000001_Node000003" class="edge">
<title>Node1&#45;&gt;Node3</title>
<g id="a_edge2_Node000001_Node000003"><a xlink:title=" ">
<path fill="none" stroke="#63b8ff" d="M285.43,-340.03C250.18,-329.26 204.87,-315.41 173.95,-305.96"/>
<polygon fill="#63b8ff" stroke="#63b8ff" points="175.28,-302.71 164.7,-303.13 173.24,-309.4 175.28,-302.71"/>
</a>
</g>
</g>
<!-- Node14 -->
<g id="Node000014" class="node">
<title>Node14</title>
<g id="a_Node000014"><a xlink:title=" ">
<polygon fill="#e0e0e0" stroke="#999999" points="266.38,-304.5 180.62,-304.5 180.62,-283.75 266.38,-283.75 266.38,-304.5"/>
<text text-anchor="middle" x="223.5" y="-291" font-family="Helvetica,sans-Serif" font-size="10.00">avr/interrupt.h</text>
</a>
</g>
</g>
<!-- Node1&#45;&gt;Node14 -->
<g id="edge18_Node000001_Node000014" class="edge">
<title>Node1&#45;&gt;Node14</title>
<g id="a_edge18_Node000001_Node000014"><a xlink:title=" ">
<path fill="none" stroke="#63b8ff" d="M307.98,-340.03C290.57,-330.77 268.89,-319.25 251.85,-310.19"/>
<polygon fill="#63b8ff" stroke="#63b8ff" points="253.73,-307.23 243.26,-305.63 250.44,-313.41 253.73,-307.23"/>
</a>
</g>
</g>
<!-- Node15 -->
<g id="Node000015" class="node">
<title>Node15</title>
<g id="a_Node000015"><a xlink:title=" ">
<polygon fill="#e0e0e0" stroke="#999999" points="326.62,-304.5 284.38,-304.5 284.38,-283.75 326.62,-283.75 326.62,-304.5"/>
<text text-anchor="middle" x="305.5" y="-291" font-family="Helvetica,sans-Serif" font-size="10.00">cpu.h</text>
</a>
</g>
</g>
<!-- Node1&#45;&gt;Node15 -->
<g id="edge19_Node000001_Node000015" class="edge">
<title>Node1&#45;&gt;Node15</title>
<g id="a_edge19_Node000001_Node000015"><a xlink:title=" ">
<path fill="none" stroke="#63b8ff" d="M329.83,-340.19C325.68,-332.51 320.67,-323.23 316.28,-315.09"/>
<polygon fill="#63b8ff" stroke="#63b8ff" points="319.36,-313.44 311.53,-306.3 313.2,-316.76 319.36,-313.44"/>
</a>
</g>
</g>
<!-- Node16 -->
<g id="Node000016" class="node">
<title>Node16</title>
<g id="a_Node000016"><a xlink:title=" ">
<polygon fill="#e0e0e0" stroke="#999999" points="397.88,-304.5 345.12,-304.5 345.12,-283.75 397.88,-283.75 397.88,-304.5"/>
<text text-anchor="middle" x="371.5" y="-291" font-family="Helvetica,sans-Serif" font-size="10.00">board.h</text>
</a>
</g>
</g>
<!-- Node1&#45;&gt;Node16 -->
<g id="edge20_Node000001_Node000016" class="edge">
<title>Node1&#45;&gt;Node16</title>
<g id="a_edge20_Node000001_Node000016"><a xlink:title=" ">
<path fill="none" stroke="#63b8ff" d="M347.17,-340.19C351.32,-332.51 356.33,-323.23 360.72,-315.09"/>
<polygon fill="#63b8ff" stroke="#63b8ff" points="363.8,-316.76 365.47,-306.3 357.64,-313.44 363.8,-316.76"/>
</a>
</g>
</g>
<!-- Node17 -->
<g id="Node000017" class="node">
<title>Node17</title>
<g id="a_Node000017"><a xlink:href="drivers_2include_2periph_2gpio_8h.html" target="_top" xlink:title="Low&#45;level GPIO peripheral driver interface definitions.">
<polygon fill="white" stroke="#666666" points="533.38,-304.5 453.62,-304.5 453.62,-283.75 533.38,-283.75 533.38,-304.5"/>
<text text-anchor="middle" x="493.5" y="-291" font-family="Helvetica,sans-Serif" font-size="10.00">periph/gpio.h</text>
</a>
</g>
</g>
<!-- Node1&#45;&gt;Node17 -->
<g id="edge21_Node000001_Node000017" class="edge">
<title>Node1&#45;&gt;Node17</title>
<g id="a_edge21_Node000001_Node000017"><a xlink:title=" ">
<path fill="none" stroke="#63b8ff" d="M379.63,-340.03C404.1,-330.38 434.82,-318.27 458.18,-309.05"/>
<polygon fill="#63b8ff" stroke="#63b8ff" points="459.25,-312.39 467.27,-305.47 456.68,-305.88 459.25,-312.39"/>
</a>
</g>
</g>
<!-- Node19 -->
<g id="Node000019" class="node">
<title>Node19</title>
<g id="a_Node000019"><a xlink:title=" ">
<polygon fill="#e0e0e0" stroke="#999999" points="448.62,-247.75 370.38,-247.75 370.38,-227 448.62,-227 448.62,-247.75"/>
<text text-anchor="middle" x="409.5" y="-234.25" font-family="Helvetica,sans-Serif" font-size="10.00">periph_cpu.h</text>
</a>
</g>
</g>
<!-- Node1&#45;&gt;Node19 -->
<g id="edge26_Node000001_Node000019" class="edge">
<title>Node1&#45;&gt;Node19</title>
<g id="a_edge26_Node000001_Node000019"><a xlink:title=" ">
<path fill="none" stroke="#63b8ff" d="M370.45,-340.2C384.05,-331.59 398.58,-319.61 406.5,-304.5 413.77,-290.63 414.15,-272.79 412.92,-259.13"/>
<polygon fill="#63b8ff" stroke="#63b8ff" points="416.42,-258.98 411.67,-249.51 409.48,-259.87 416.42,-258.98"/>
</a>
</g>
</g>
<!-- Node20 -->
<g id="Node000020" class="node">
<title>Node20</title>
<g id="a_Node000020"><a xlink:title=" ">
<polygon fill="#e0e0e0" stroke="#999999" points="619.12,-247.75 537.88,-247.75 537.88,-227 619.12,-227 619.12,-247.75"/>
<text text-anchor="middle" x="578.5" y="-234.25" font-family="Helvetica,sans-Serif" font-size="10.00">periph_conf.h</text>
</a>
</g>
</g>
<!-- Node1&#45;&gt;Node20 -->
<g id="edge25_Node000001_Node000020" class="edge">
<title>Node1&#45;&gt;Node20</title>
<g id="a_edge25_Node000001_Node000020"><a xlink:title=" ">
<path fill="none" stroke="#63b8ff" d="M418.98,-350.99C459.51,-344.82 507.37,-331.79 542.5,-304.5 557.33,-292.99 566.85,-273.58 572.35,-258.76"/>
<polygon fill="#63b8ff" stroke="#63b8ff" points="575.58,-260.13 575.44,-249.53 568.95,-257.9 575.58,-260.13"/>
</a>
</g>
</g>
<!-- Node4 -->
<g id="Node000004" class="node">
<title>Node4</title>
<g id="a_Node000004"><a xlink:href="flash__utils_8h.html" target="_top" xlink:title="Utility functions, macros, and types for read&#45;only memory.">
<polygon fill="white" stroke="#666666" points="176.12,-247.75 100.88,-247.75 100.88,-227 176.12,-227 176.12,-247.75"/>
<text text-anchor="middle" x="138.5" y="-234.25" font-family="Helvetica,sans-Serif" font-size="10.00">flash_utils.h</text>
</a>
</g>
</g>
<!-- Node3&#45;&gt;Node4 -->
<g id="edge3_Node000003_Node000004" class="edge">
<title>Node3&#45;&gt;Node4</title>
<g id="a_edge3_Node000003_Node000004"><a xlink:title=" ">
<path fill="none" stroke="#63b8ff" d="M133.18,-283.34C131.91,-276.72 131.49,-267.72 131.91,-259.52"/>
<polygon fill="#63b8ff" stroke="#63b8ff" points="135.39,-259.91 133.03,-249.58 128.43,-259.13 135.39,-259.91"/>
</a>
</g>
</g>
<!-- Node4&#45;&gt;Node3 -->
<g id="edge4_Node000004_Node000003" class="edge">
<title>Node4&#45;&gt;Node3</title>
<g id="a_edge4_Node000004_Node000003"><a xlink:title=" ">
<path fill="none" stroke="#63b8ff" d="M143.8,-248.08C145.1,-254.75 145.52,-263.88 145.08,-272.17"/>
<polygon fill="#63b8ff" stroke="#63b8ff" points="141.64,-271.5 143.99,-281.83 148.59,-272.29 141.64,-271.5"/>
</a>
</g>
</g>
<!-- Node5 -->
<g id="Node000005" class="node">
<title>Node5</title>
<g id="a_Node000005"><a xlink:title=" ">
<polygon fill="#e0e0e0" stroke="#999999" points="307.88,-191 255.12,-191 255.12,-170.25 307.88,-170.25 307.88,-191"/>
<text text-anchor="middle" x="281.5" y="-177.5" font-family="Helvetica,sans-Serif" font-size="10.00">string.h</text>
</a>
</g>
</g>
<!-- Node4&#45;&gt;Node5 -->
<g id="edge5_Node000004_Node000005" class="edge">
<title>Node4&#45;&gt;Node5</title>
<g id="a_edge5_Node000004_Node000005"><a xlink:title=" ">
<path fill="none" stroke="#63b8ff" d="M164.07,-226.59C186.74,-217.91 220.1,-205.13 245.48,-195.42"/>
<polygon fill="#63b8ff" stroke="#63b8ff" points="246.65,-198.71 254.74,-191.87 244.15,-192.18 246.65,-198.71"/>
</a>
</g>
</g>
<!-- Node6 -->
<g id="Node000006" class="node">
<title>Node6</title>
<g id="a_Node000006"><a xlink:title=" ">
<polygon fill="#e0e0e0" stroke="#999999" points="122.38,-191 54.62,-191 54.62,-170.25 122.38,-170.25 122.38,-191"/>
<text text-anchor="middle" x="88.5" y="-177.5" font-family="Helvetica,sans-Serif" font-size="10.00">cpu_conf.h</text>
</a>
</g>
</g>
<!-- Node4&#45;&gt;Node6 -->
<g id="edge6_Node000004_Node000006" class="edge">
<title>Node4&#45;&gt;Node6</title>
<g id="a_edge6_Node000004_Node000006"><a xlink:title=" ">
<path fill="none" stroke="#63b8ff" d="M129.56,-226.59C122.74,-219.11 113.14,-208.61 104.94,-199.63"/>
<polygon fill="#63b8ff" stroke="#63b8ff" points="107.71,-197.47 98.38,-192.45 102.54,-202.19 107.71,-197.47"/>
</a>
</g>
</g>
<!-- Node7 -->
<g id="Node000007" class="node">
<title>Node7</title>
<g id="a_Node000007"><a xlink:href="kernel__defines_8h.html" target="_top" xlink:title="Common macros and compiler attributes/pragmas configuration.">
<polygon fill="white" stroke="#666666" points="236.62,-191 140.38,-191 140.38,-170.25 236.62,-170.25 236.62,-191"/>
<text text-anchor="middle" x="188.5" y="-177.5" font-family="Helvetica,sans-Serif" font-size="10.00">kernel_defines.h</text>
</a>
</g>
</g>
<!-- Node4&#45;&gt;Node7 -->
<g id="edge7_Node000004_Node000007" class="edge">
<title>Node4&#45;&gt;Node7</title>
<g id="a_edge7_Node000004_Node000007"><a xlink:title=" ">
<path fill="none" stroke="#63b8ff" d="M147.44,-226.59C154.26,-219.11 163.86,-208.61 172.06,-199.63"/>
<polygon fill="#63b8ff" stroke="#63b8ff" points="174.46,-202.19 178.62,-192.45 169.29,-197.47 174.46,-202.19"/>
</a>
</g>
</g>
<!-- Node8 -->
<g id="Node000008" class="node">
<title>Node8</title>
<g id="a_Node000008"><a xlink:href="modules_8h.html" target="_top" xlink:title="Common macros and compiler attributes/pragmas configuration.">
<polygon fill="white" stroke="#666666" points="361,-134.25 294,-134.25 294,-113.5 361,-113.5 361,-134.25"/>
<text text-anchor="middle" x="327.5" y="-120.75" font-family="Helvetica,sans-Serif" font-size="10.00">modules.h</text>
</a>
</g>
</g>
<!-- Node7&#45;&gt;Node8 -->
<g id="edge8_Node000007_Node000008" class="edge">
<title>Node7&#45;&gt;Node8</title>
<g id="a_edge8_Node000007_Node000008"><a xlink:title=" ">
<path fill="none" stroke="#63b8ff" d="M213.35,-169.84C235.39,-161.16 267.82,-148.38 292.48,-138.67"/>
<polygon fill="#63b8ff" stroke="#63b8ff" points="293.43,-142.05 301.46,-135.13 290.87,-135.54 293.43,-142.05"/>
</a>
</g>
</g>
<!-- Node9 -->
<g id="Node000009" class="node">
<title>Node9</title>
<g id="a_Node000009"><a xlink:href="riot__version_8h.html" target="_top" xlink:title="Common macros and compiler attributes/pragmas configuration.">
<polygon fill="white" stroke="#666666" points="307.88,-77.5 225.12,-77.5 225.12,-56.75 307.88,-56.75 307.88,-77.5"/>
<text text-anchor="middle" x="266.5" y="-64" font-family="Helvetica,sans-Serif" font-size="10.00">riot_version.h</text>
</a>
</g>
</g>
<!-- Node7&#45;&gt;Node9 -->
<g id="edge9_Node000007_Node000009" class="edge">
<title>Node7&#45;&gt;Node9</title>
<g id="a_edge9_Node000007_Node000009"><a xlink:title=" ">
<path fill="none" stroke="#63b8ff" d="M206.12,-169.89C219.05,-161.9 236.1,-149.44 246.5,-134.25 255.73,-120.76 260.8,-102.9 263.53,-89.13"/>
<polygon fill="#63b8ff" stroke="#63b8ff" points="266.96,-89.83 265.17,-79.39 260.06,-88.67 266.96,-89.83"/>
</a>
</g>
</g>
<!-- Node11 -->
<g id="Node000011" class="node">
<title>Node11</title>
<g id="a_Node000011"><a xlink:href="compiler__hints_8h.html" target="_top" xlink:title="Common macros and compiler attributes/pragmas configuration.">
<polygon fill="white" stroke="#666666" points="237,-134.25 140,-134.25 140,-113.5 237,-113.5 237,-134.25"/>
<text text-anchor="middle" x="188.5" y="-120.75" font-family="Helvetica,sans-Serif" font-size="10.00">compiler_hints.h</text>
</a>
</g>
</g>
<!-- Node7&#45;&gt;Node11 -->
<g id="edge11_Node000007_Node000011" class="edge">
<title>Node7&#45;&gt;Node11</title>
<g id="a_edge11_Node000007_Node000011"><a xlink:title=" ">
<path fill="none" stroke="#63b8ff" d="M188.5,-169.84C188.5,-163.22 188.5,-154.22 188.5,-146.02"/>
<polygon fill="#63b8ff" stroke="#63b8ff" points="192,-146.09 188.5,-136.09 185,-146.09 192,-146.09"/>
</a>
</g>
</g>
<!-- Node13 -->
<g id="Node000013" class="node">
<title>Node13</title>
<g id="a_Node000013"><a xlink:href="container_8h.html" target="_top" xlink:title="Common macros and compiler attributes/pragmas configuration.">
<polygon fill="white" stroke="#666666" points="121.88,-134.25 51.12,-134.25 51.12,-113.5 121.88,-113.5 121.88,-134.25"/>
<text text-anchor="middle" x="86.5" y="-120.75" font-family="Helvetica,sans-Serif" font-size="10.00">container.h</text>
</a>
</g>
</g>
<!-- Node7&#45;&gt;Node13 -->
<g id="edge15_Node000007_Node000013" class="edge">
<title>Node7&#45;&gt;Node13</title>
<g id="a_edge15_Node000007_Node000013"><a xlink:title=" ">
<path fill="none" stroke="#63b8ff" d="M170.26,-169.84C154.82,-161.55 132.41,-149.52 114.66,-139.99"/>
<polygon fill="#63b8ff" stroke="#63b8ff" points="116.38,-136.94 105.91,-135.29 113.07,-143.11 116.38,-136.94"/>
</a>
</g>
</g>
<!-- Node10 -->
<g id="Node000010" class="node">
<title>Node10</title>
<g id="a_Node000010"><a xlink:title=" ">
<polygon fill="#e0e0e0" stroke="#999999" points="195.88,-20.75 143.12,-20.75 143.12,0 195.88,0 195.88,-20.75"/>
<text text-anchor="middle" x="169.5" y="-7.25" font-family="Helvetica,sans-Serif" font-size="10.00">stdint.h</text>
</a>
</g>
</g>
<!-- Node9&#45;&gt;Node10 -->
<g id="edge10_Node000009_Node000010" class="edge">
<title>Node9&#45;&gt;Node10</title>
<g id="a_edge10_Node000009_Node000010"><a xlink:title=" ">
<path fill="none" stroke="#63b8ff" d="M249.16,-56.34C234.54,-48.08 213.36,-36.13 196.52,-26.63"/>
<polygon fill="#63b8ff" stroke="#63b8ff" points="198.44,-23.69 188.01,-21.82 195,-29.79 198.44,-23.69"/>
</a>
</g>
</g>
<!-- Node11&#45;&gt;Node10 -->
<g id="edge14_Node000011_Node000010" class="edge">
<title>Node11&#45;&gt;Node10</title>
<g id="a_edge14_Node000011_Node000010"><a xlink:title=" ">
<path fill="none" stroke="#63b8ff" d="M186.89,-113.01C184.77,-100.08 180.92,-76.71 177.5,-56.75 176.13,-48.77 174.6,-40.02 173.24,-32.34"/>
<polygon fill="#63b8ff" stroke="#63b8ff" points="176.7,-31.83 171.51,-22.6 169.81,-33.06 176.7,-31.83"/>
</a>
</g>
</g>
<!-- Node12 -->
<g id="Node000012" class="node">
<title>Node12</title>
<g id="a_Node000012"><a xlink:href="assert_8h.html" target="_top" xlink:title="POSIX.1&#45;2008 compliant version of the assert macro.">
<polygon fill="white" stroke="#666666" points="169,-77.5 114,-77.5 114,-56.75 169,-56.75 169,-77.5"/>
<text text-anchor="middle" x="141.5" y="-64" font-family="Helvetica,sans-Serif" font-size="10.00">assert.h</text>
</a>
</g>
</g>
<!-- Node11&#45;&gt;Node12 -->
<g id="edge12_Node000011_Node000012" class="edge">
<title>Node11&#45;&gt;Node12</title>
<g id="a_edge12_Node000011_Node000012"><a xlink:title=" ">
<path fill="none" stroke="#63b8ff" d="M180.1,-113.09C173.75,-105.69 164.85,-95.32 157.2,-86.41"/>
<polygon fill="#63b8ff" stroke="#63b8ff" points="159.99,-84.28 150.82,-78.98 154.67,-88.84 159.99,-84.28"/>
</a>
</g>
</g>
<!-- Node12&#45;&gt;Node10 -->
<g id="edge13_Node000012_Node000010" class="edge">
<title>Node12&#45;&gt;Node10</title>
<g id="a_edge13_Node000012_Node000010"><a xlink:title=" ">
<path fill="none" stroke="#63b8ff" d="M146.51,-56.34C150.09,-49.33 155.04,-39.66 159.42,-31.08"/>
<polygon fill="#63b8ff" stroke="#63b8ff" points="162.41,-32.92 163.85,-22.43 156.18,-29.74 162.41,-32.92"/>
</a>
</g>
</g>
<!-- Node13&#45;&gt;Node2 -->
<g id="edge16_Node000013_Node000002" class="edge">
<title>Node13&#45;&gt;Node2</title>
<g id="a_edge16_Node000013_Node000002"><a xlink:title=" ">
<path fill="none" stroke="#63b8ff" d="M75.95,-113.09C67.73,-105.46 56.1,-94.67 46.3,-85.57"/>
<polygon fill="#63b8ff" stroke="#63b8ff" points="48.78,-83.09 39.07,-78.86 44.02,-88.23 48.78,-83.09"/>
</a>
</g>
</g>
<!-- Node13&#45;&gt;Node10 -->
<g id="edge17_Node000013_Node000010" class="edge">
<title>Node13&#45;&gt;Node10</title>
<g id="a_edge17_Node000013_Node000010"><a xlink:title=" ">
<path fill="none" stroke="#63b8ff" d="M87.1,-113.02C88.37,-99.27 92.31,-74.07 104.5,-56.75 113.17,-44.44 126.29,-34.37 138.49,-26.87"/>
<polygon fill="#63b8ff" stroke="#63b8ff" points="140.15,-29.95 147.08,-21.93 136.66,-23.88 140.15,-29.95"/>
</a>
</g>
</g>
<!-- Node18 -->
<g id="Node000018" class="node">
<title>Node18</title>
<g id="a_Node000018"><a xlink:title=" ">
<polygon fill="#e0e0e0" stroke="#999999" points="519.88,-247.75 467.12,-247.75 467.12,-227 519.88,-227 519.88,-247.75"/>
<text text-anchor="middle" x="493.5" y="-234.25" font-family="Helvetica,sans-Serif" font-size="10.00">limits.h</text>
</a>
</g>
</g>
<!-- Node17&#45;&gt;Node18 -->
<g id="edge22_Node000017_Node000018" class="edge">
<title>Node17&#45;&gt;Node18</title>
<g id="a_edge22_Node000017_Node000018"><a xlink:title=" ">
<path fill="none" stroke="#63b8ff" d="M493.5,-283.34C493.5,-276.72 493.5,-267.72 493.5,-259.52"/>
<polygon fill="#63b8ff" stroke="#63b8ff" points="497,-259.59 493.5,-249.59 490,-259.59 497,-259.59"/>
</a>
</g>
</g>
<!-- Node17&#45;&gt;Node19 -->
<g id="edge23_Node000017_Node000019" class="edge">
<title>Node17&#45;&gt;Node19</title>
<g id="a_edge23_Node000017_Node000019"><a xlink:title=" ">
<path fill="none" stroke="#63b8ff" d="M478.48,-283.34C466.06,-275.24 448.18,-263.58 433.73,-254.17"/>
<polygon fill="#63b8ff" stroke="#63b8ff" points="435.94,-251.43 425.66,-248.9 432.12,-257.3 435.94,-251.43"/>
</a>
</g>
</g>
<!-- Node17&#45;&gt;Node20 -->
<g id="edge24_Node000017_Node000020" class="edge">
<title>Node17&#45;&gt;Node20</title>
<g id="a_edge24_Node000017_Node000020"><a xlink:title=" ">
<path fill="none" stroke="#63b8ff" d="M508.7,-283.34C521.27,-275.24 539.36,-263.58 553.98,-254.17"/>
<polygon fill="#63b8ff" stroke="#63b8ff" points="555.65,-257.26 562.16,-248.9 551.86,-251.37 555.65,-257.26"/>
</a>
</g>
</g>
</g>
</svg>
