<?xml version="1.0" encoding="UTF-8" standalone="no"?>
<!DOCTYPE svg PUBLIC "-//W3C//DTD SVG 1.1//EN"
 "http://www.w3.org/Graphics/SVG/1.1/DTD/svg11.dtd">
<!-- Generated by graphviz version 12.1.1 (0)
 -->
<!-- Title: boards/atmega328p&#45;xplained&#45;mini/include/gpio_params.h Pages: 1 -->
<svg width="447pt" height="281pt"
 viewBox="0.00 0.00 446.50 281.25" xmlns="http://www.w3.org/2000/svg" xmlns:xlink="http://www.w3.org/1999/xlink">
<g id="graph0" class="graph" transform="scale(1 1) rotate(0) translate(4 277.25)">
<title>boards/atmega328p&#45;xplained&#45;mini/include/gpio_params.h</title>
<!-- Node1 -->
<g id="Node000001" class="node">
<title>Node1</title>
<g id="a_Node000001"><a xlink:title="Configuration of SAUL mapped GPIO pins.">
<polygon fill="#999999" stroke="#666666" points="207.75,-273.25 48.5,-273.25 48.5,-239.75 207.75,-239.75 207.75,-273.25"/>
<text text-anchor="start" x="56.5" y="-259.75" font-family="Helvetica,sans-Serif" font-size="10.00">boards/atmega328p&#45;xplained</text>
<text text-anchor="middle" x="128.12" y="-247" font-family="Helvetica,sans-Serif" font-size="10.00">&#45;mini/include/gpio_params.h</text>
</a>
</g>
</g>
<!-- Node2 -->
<g id="Node000002" class="node">
<title>Node2</title>
<g id="a_Node000002"><a xlink:href="atmega328p-xplained-mini_2include_2board_8h.html" target="_top" xlink:title="Board specific definitions for the standalone ATmega328p &quot;board&quot;.">
<polygon fill="white" stroke="#666666" points="127.5,-203.75 74.75,-203.75 74.75,-183 127.5,-183 127.5,-203.75"/>
<text text-anchor="middle" x="101.12" y="-190.25" font-family="Helvetica,sans-Serif" font-size="10.00">board.h</text>
</a>
</g>
</g>
<!-- Node1&#45;&gt;Node2 -->
<g id="edge1_Node000001_Node000002" class="edge">
<title>Node1&#45;&gt;Node2</title>
<g id="a_edge1_Node000001_Node000002"><a xlink:title=" ">
<path fill="none" stroke="#63b8ff" d="M121.03,-239.44C117.68,-231.84 113.63,-222.69 110.07,-214.62"/>
<polygon fill="#63b8ff" stroke="#63b8ff" points="113.33,-213.33 106.08,-205.6 106.92,-216.16 113.33,-213.33"/>
</a>
</g>
</g>
<!-- Node7 -->
<g id="Node000007" class="node">
<title>Node7</title>
<g id="a_Node000007"><a xlink:href="periph_8h.html" target="_top" xlink:title="Parameter definitions for mapping peripherals directly to SAUL.">
<polygon fill="white" stroke="#666666" points="296.62,-147 217.62,-147 217.62,-126.25 296.62,-126.25 296.62,-147"/>
<text text-anchor="middle" x="257.12" y="-133.5" font-family="Helvetica,sans-Serif" font-size="10.00">saul/periph.h</text>
</a>
</g>
</g>
<!-- Node1&#45;&gt;Node7 -->
<g id="edge6_Node000001_Node000007" class="edge">
<title>Node1&#45;&gt;Node7</title>
<g id="a_edge6_Node000001_Node000007"><a xlink:title=" ">
<path fill="none" stroke="#63b8ff" d="M145.79,-239.36C170.01,-217.23 213.32,-177.65 238.19,-154.93"/>
<polygon fill="#63b8ff" stroke="#63b8ff" points="240.3,-157.74 245.32,-148.41 235.58,-152.57 240.3,-157.74"/>
</a>
</g>
</g>
<!-- Node3 -->
<g id="Node000003" class="node">
<title>Node3</title>
<g id="a_Node000003"><a xlink:title=" ">
<polygon fill="#e0e0e0" stroke="#999999" points="42.25,-147 0,-147 0,-126.25 42.25,-126.25 42.25,-147"/>
<text text-anchor="middle" x="21.12" y="-133.5" font-family="Helvetica,sans-Serif" font-size="10.00">cpu.h</text>
</a>
</g>
</g>
<!-- Node2&#45;&gt;Node3 -->
<g id="edge2_Node000002_Node000003" class="edge">
<title>Node2&#45;&gt;Node3</title>
<g id="a_edge2_Node000002_Node000003"><a xlink:title=" ">
<path fill="none" stroke="#63b8ff" d="M86.82,-182.59C75.11,-174.57 58.29,-163.06 44.6,-153.69"/>
<polygon fill="#63b8ff" stroke="#63b8ff" points="46.78,-150.94 36.55,-148.18 42.83,-156.72 46.78,-150.94"/>
</a>
</g>
</g>
<!-- Node4 -->
<g id="Node000004" class="node">
<title>Node4</title>
<g id="a_Node000004"><a xlink:href="boards_2atmega328p-xplained-mini_2include_2periph__conf_8h.html" target="_top" xlink:title="Peripheral MCU configuration for the ATmega328p xplained mini &quot;board&quot;.">
<polygon fill="white" stroke="#666666" points="141.75,-147 60.5,-147 60.5,-126.25 141.75,-126.25 141.75,-147"/>
<text text-anchor="middle" x="101.12" y="-133.5" font-family="Helvetica,sans-Serif" font-size="10.00">periph_conf.h</text>
</a>
</g>
</g>
<!-- Node2&#45;&gt;Node4 -->
<g id="edge3_Node000002_Node000004" class="edge">
<title>Node2&#45;&gt;Node4</title>
<g id="a_edge3_Node000002_Node000004"><a xlink:title=" ">
<path fill="none" stroke="#63b8ff" d="M101.12,-182.59C101.12,-175.97 101.12,-166.97 101.12,-158.77"/>
<polygon fill="#63b8ff" stroke="#63b8ff" points="104.63,-158.84 101.13,-148.84 97.63,-158.84 104.63,-158.84"/>
</a>
</g>
</g>
<!-- Node5 -->
<g id="Node000005" class="node">
<title>Node5</title>
<g id="a_Node000005"><a xlink:href="periph__conf__atmega__common_8h.html" target="_top" xlink:title="Common configuration of MCU periphery for ATmega boards.">
<polygon fill="white" stroke="#666666" points="129,-90.25 13.25,-90.25 13.25,-56.75 129,-56.75 129,-90.25"/>
<text text-anchor="start" x="21.25" y="-76.75" font-family="Helvetica,sans-Serif" font-size="10.00">periph_conf_atmega</text>
<text text-anchor="middle" x="71.12" y="-64" font-family="Helvetica,sans-Serif" font-size="10.00">_common.h</text>
</a>
</g>
</g>
<!-- Node4&#45;&gt;Node5 -->
<g id="edge4_Node000004_Node000005" class="edge">
<title>Node4&#45;&gt;Node5</title>
<g id="a_edge4_Node000004_Node000005"><a xlink:title=" ">
<path fill="none" stroke="#63b8ff" d="M96.3,-125.8C93.01,-119.09 88.47,-109.84 84.15,-101.04"/>
<polygon fill="#63b8ff" stroke="#63b8ff" points="87.31,-99.53 79.76,-92.09 81.02,-102.61 87.31,-99.53"/>
</a>
</g>
</g>
<!-- Node6 -->
<g id="Node000006" class="node">
<title>Node6</title>
<g id="a_Node000006"><a xlink:title=" ">
<polygon fill="#e0e0e0" stroke="#999999" points="197.25,-20.75 119,-20.75 119,0 197.25,0 197.25,-20.75"/>
<text text-anchor="middle" x="158.12" y="-7.25" font-family="Helvetica,sans-Serif" font-size="10.00">periph_cpu.h</text>
</a>
</g>
</g>
<!-- Node5&#45;&gt;Node6 -->
<g id="edge5_Node000005_Node000006" class="edge">
<title>Node5&#45;&gt;Node6</title>
<g id="a_edge5_Node000005_Node000006"><a xlink:title=" ">
<path fill="none" stroke="#63b8ff" d="M93.98,-56.44C106.54,-47.62 122.08,-36.7 134.71,-27.82"/>
<polygon fill="#63b8ff" stroke="#63b8ff" points="136.71,-30.7 142.88,-22.09 132.68,-24.97 136.71,-30.7"/>
</a>
</g>
</g>
<!-- Node8 -->
<g id="Node000008" class="node">
<title>Node8</title>
<g id="a_Node000008"><a xlink:href="drivers_2include_2periph_2gpio_8h.html" target="_top" xlink:title="Low&#45;level GPIO peripheral driver interface definitions.">
<polygon fill="white" stroke="#666666" points="227,-83.88 147.25,-83.88 147.25,-63.12 227,-63.12 227,-83.88"/>
<text text-anchor="middle" x="187.12" y="-70.38" font-family="Helvetica,sans-Serif" font-size="10.00">periph/gpio.h</text>
</a>
</g>
</g>
<!-- Node7&#45;&gt;Node8 -->
<g id="edge7_Node000007_Node000008" class="edge">
<title>Node7&#45;&gt;Node8</title>
<g id="a_edge7_Node000007_Node000008"><a xlink:title=" ">
<path fill="none" stroke="#63b8ff" d="M245.88,-125.8C235.3,-116.57 219.25,-102.56 206.6,-91.51"/>
<polygon fill="#63b8ff" stroke="#63b8ff" points="209.09,-89.03 199.25,-85.09 204.48,-94.3 209.09,-89.03"/>
</a>
</g>
</g>
<!-- Node11 -->
<g id="Node000011" class="node">
<title>Node11</title>
<g id="a_Node000011"><a xlink:href="adc_8h.html" target="_top" xlink:title="Low&#45;level ADC peripheral driver interface definitions.">
<polygon fill="white" stroke="#666666" points="421.12,-83.88 345.12,-83.88 345.12,-63.12 421.12,-63.12 421.12,-83.88"/>
<text text-anchor="middle" x="383.12" y="-70.38" font-family="Helvetica,sans-Serif" font-size="10.00">periph/adc.h</text>
</a>
</g>
</g>
<!-- Node7&#45;&gt;Node11 -->
<g id="edge11_Node000007_Node000011" class="edge">
<title>Node7&#45;&gt;Node11</title>
<g id="a_edge11_Node000007_Node000011"><a xlink:title=" ">
<path fill="none" stroke="#63b8ff" d="M277.37,-125.8C297.76,-115.91 329.46,-100.53 352.84,-89.19"/>
<polygon fill="#63b8ff" stroke="#63b8ff" points="354.1,-92.47 361.57,-84.96 351.04,-86.17 354.1,-92.47"/>
</a>
</g>
</g>
<!-- Node13 -->
<g id="Node000013" class="node">
<title>Node13</title>
<g id="a_Node000013"><a xlink:href="pwm_8h.html" target="_top" xlink:title="Low&#45;level PWM peripheral driver interface definitions.">
<polygon fill="white" stroke="#666666" points="327.5,-83.88 244.75,-83.88 244.75,-63.12 327.5,-63.12 327.5,-83.88"/>
<text text-anchor="middle" x="286.12" y="-70.38" font-family="Helvetica,sans-Serif" font-size="10.00">periph/pwm.h</text>
</a>
</g>
</g>
<!-- Node7&#45;&gt;Node13 -->
<g id="edge16_Node000007_Node000013" class="edge">
<title>Node7&#45;&gt;Node13</title>
<g id="a_edge16_Node000007_Node000013"><a xlink:title=" ">
<path fill="none" stroke="#63b8ff" d="M261.78,-125.8C265.78,-117.38 271.67,-104.97 276.65,-94.47"/>
<polygon fill="#63b8ff" stroke="#63b8ff" points="279.8,-96 280.92,-85.46 273.48,-93 279.8,-96"/>
</a>
</g>
</g>
<!-- Node8&#45;&gt;Node6 -->
<g id="edge9_Node000008_Node000006" class="edge">
<title>Node8&#45;&gt;Node6</title>
<g id="a_edge9_Node000008_Node000006"><a xlink:title=" ">
<path fill="none" stroke="#63b8ff" d="M182.47,-62.68C178.47,-54.25 172.58,-41.84 167.6,-31.34"/>
<polygon fill="#63b8ff" stroke="#63b8ff" points="170.77,-29.87 163.33,-22.34 164.45,-32.87 170.77,-29.87"/>
</a>
</g>
</g>
<!-- Node9 -->
<g id="Node000009" class="node">
<title>Node9</title>
<g id="a_Node000009"><a xlink:title=" ">
<polygon fill="#e0e0e0" stroke="#999999" points="268.5,-20.75 215.75,-20.75 215.75,0 268.5,0 268.5,-20.75"/>
<text text-anchor="middle" x="242.12" y="-7.25" font-family="Helvetica,sans-Serif" font-size="10.00">limits.h</text>
</a>
</g>
</g>
<!-- Node8&#45;&gt;Node9 -->
<g id="edge8_Node000008_Node000009" class="edge">
<title>Node8&#45;&gt;Node9</title>
<g id="a_edge8_Node000008_Node000009"><a xlink:title=" ">
<path fill="none" stroke="#63b8ff" d="M195.96,-62.68C204.03,-53.72 216.15,-40.24 225.95,-29.35"/>
<polygon fill="#63b8ff" stroke="#63b8ff" points="228.39,-31.87 232.48,-22.1 223.19,-27.19 228.39,-31.87"/>
</a>
</g>
</g>
<!-- Node10 -->
<g id="Node000010" class="node">
<title>Node10</title>
<g id="a_Node000010"><a xlink:title=" ">
<polygon fill="#e0e0e0" stroke="#999999" points="367.75,-20.75 286.5,-20.75 286.5,0 367.75,0 367.75,-20.75"/>
<text text-anchor="middle" x="327.12" y="-7.25" font-family="Helvetica,sans-Serif" font-size="10.00">periph_conf.h</text>
</a>
</g>
</g>
<!-- Node8&#45;&gt;Node10 -->
<g id="edge10_Node000008_Node000010" class="edge">
<title>Node8&#45;&gt;Node10</title>
<g id="a_edge10_Node000008_Node000010"><a xlink:title=" ">
<path fill="none" stroke="#63b8ff" d="M209.62,-62.68C232.48,-52.7 268.14,-37.13 294.18,-25.76"/>
<polygon fill="#63b8ff" stroke="#63b8ff" points="295.54,-28.99 303.3,-21.78 292.74,-22.57 295.54,-28.99"/>
</a>
</g>
</g>
<!-- Node11&#45;&gt;Node6 -->
<g id="edge14_Node000011_Node000006" class="edge">
<title>Node11&#45;&gt;Node6</title>
<g id="a_edge14_Node000011_Node000006"><a xlink:title=" ">
<path fill="none" stroke="#63b8ff" d="M354.9,-62.67C348.74,-60.62 342.23,-58.55 336.12,-56.75 293.48,-44.19 244.49,-31.85 208.72,-23.22"/>
<polygon fill="#63b8ff" stroke="#63b8ff" points="209.6,-19.83 199.06,-20.9 207.97,-26.64 209.6,-19.83"/>
</a>
</g>
</g>
<!-- Node11&#45;&gt;Node9 -->
<g id="edge12_Node000011_Node000009" class="edge">
<title>Node11&#45;&gt;Node9</title>
<g id="a_edge12_Node000011_Node000009"><a xlink:title=" ">
<path fill="none" stroke="#63b8ff" d="M360.47,-62.68C337.35,-52.65 301.21,-36.99 274.95,-25.61"/>
<polygon fill="#63b8ff" stroke="#63b8ff" points="276.68,-22.54 266.11,-21.77 273.89,-28.96 276.68,-22.54"/>
</a>
</g>
</g>
<!-- Node11&#45;&gt;Node10 -->
<g id="edge15_Node000011_Node000010" class="edge">
<title>Node11&#45;&gt;Node10</title>
<g id="a_edge15_Node000011_Node000010"><a xlink:title=" ">
<path fill="none" stroke="#63b8ff" d="M374.13,-62.68C365.92,-53.72 353.57,-40.24 343.6,-29.35"/>
<polygon fill="#63b8ff" stroke="#63b8ff" points="346.27,-27.1 336.94,-22.09 341.11,-31.82 346.27,-27.1"/>
</a>
</g>
</g>
<!-- Node12 -->
<g id="Node000012" class="node">
<title>Node12</title>
<g id="a_Node000012"><a xlink:title=" ">
<polygon fill="#e0e0e0" stroke="#999999" points="438.5,-20.75 385.75,-20.75 385.75,0 438.5,0 438.5,-20.75"/>
<text text-anchor="middle" x="412.12" y="-7.25" font-family="Helvetica,sans-Serif" font-size="10.00">stdint.h</text>
</a>
</g>
</g>
<!-- Node11&#45;&gt;Node12 -->
<g id="edge13_Node000011_Node000012" class="edge">
<title>Node11&#45;&gt;Node12</title>
<g id="a_edge13_Node000011_Node000012"><a xlink:title=" ">
<path fill="none" stroke="#63b8ff" d="M387.78,-62.68C391.78,-54.25 397.67,-41.84 402.65,-31.34"/>
<polygon fill="#63b8ff" stroke="#63b8ff" points="405.8,-32.87 406.92,-22.34 399.48,-29.87 405.8,-32.87"/>
</a>
</g>
</g>
<!-- Node13&#45;&gt;Node6 -->
<g id="edge19_Node000013_Node000006" class="edge">
<title>Node13&#45;&gt;Node6</title>
<g id="a_edge19_Node000013_Node000006"><a xlink:title=" ">
<path fill="none" stroke="#63b8ff" d="M265.56,-62.68C244.85,-52.79 212.64,-37.41 188.89,-26.06"/>
<polygon fill="#63b8ff" stroke="#63b8ff" points="190.54,-22.97 180.01,-21.82 187.52,-29.29 190.54,-22.97"/>
</a>
</g>
</g>
<!-- Node13&#45;&gt;Node9 -->
<g id="edge18_Node000013_Node000009" class="edge">
<title>Node13&#45;&gt;Node9</title>
<g id="a_edge18_Node000013_Node000009"><a xlink:title=" ">
<path fill="none" stroke="#63b8ff" d="M279.06,-62.68C272.73,-53.89 263.29,-40.78 255.54,-30.01"/>
<polygon fill="#63b8ff" stroke="#63b8ff" points="258.6,-28.27 249.92,-22.2 252.92,-32.36 258.6,-28.27"/>
</a>
</g>
</g>
<!-- Node13&#45;&gt;Node10 -->
<g id="edge20_Node000013_Node000010" class="edge">
<title>Node13&#45;&gt;Node10</title>
<g id="a_edge20_Node000013_Node000010"><a xlink:title=" ">
<path fill="none" stroke="#63b8ff" d="M292.71,-62.68C298.54,-53.98 307.22,-41.05 314.4,-30.34"/>
<polygon fill="#63b8ff" stroke="#63b8ff" points="317.18,-32.48 319.85,-22.23 311.37,-28.58 317.18,-32.48"/>
</a>
</g>
</g>
<!-- Node13&#45;&gt;Node12 -->
<g id="edge17_Node000013_Node000012" class="edge">
<title>Node13&#45;&gt;Node12</title>
<g id="a_edge17_Node000013_Node000012"><a xlink:title=" ">
<path fill="none" stroke="#63b8ff" d="M306.37,-62.68C326.76,-52.79 358.46,-37.41 381.84,-26.06"/>
<polygon fill="#63b8ff" stroke="#63b8ff" points="383.1,-29.35 390.57,-21.83 380.04,-23.05 383.1,-29.35"/>
</a>
</g>
</g>
</g>
</svg>
