<?xml version="1.0" encoding="UTF-8" standalone="no"?>
<!DOCTYPE svg PUBLIC "-//W3C//DTD SVG 1.1//EN"
 "http://www.w3.org/Graphics/SVG/1.1/DTD/svg11.dtd">
<!-- Generated by graphviz version 12.1.1 (0)
 -->
<!-- Title: cpu/atmega1284p/include/periph_cpu.h Pages: 1 -->
<svg width="249pt" height="155pt"
 viewBox="0.00 0.00 248.75 155.00" xmlns="http://www.w3.org/2000/svg" xmlns:xlink="http://www.w3.org/1999/xlink">
<g id="graph0" class="graph" transform="scale(1 1) rotate(0) translate(4 151)">
<title>cpu/atmega1284p/include/periph_cpu.h</title>
<!-- Node1 -->
<g id="Node000001" class="node">
<title>Node1</title>
<g id="a_Node000001"><a xlink:title="CPU specific definitions for internal peripheral handling.">
<polygon fill="#999999" stroke="#666666" points="195.12,-147 53.12,-147 53.12,-113.5 195.12,-113.5 195.12,-147"/>
<text text-anchor="start" x="61.12" y="-133.5" font-family="Helvetica,sans-Serif" font-size="10.00">cpu/atmega1284p/include</text>
<text text-anchor="middle" x="124.12" y="-120.75" font-family="Helvetica,sans-Serif" font-size="10.00">/periph_cpu.h</text>
</a>
</g>
</g>
<!-- Node2 -->
<g id="Node000002" class="node">
<title>Node2</title>
<g id="a_Node000002"><a xlink:title=" ">
<polygon fill="#e0e0e0" stroke="#999999" points="126.25,-20.75 0,-20.75 0,0 126.25,0 126.25,-20.75"/>
<text text-anchor="middle" x="63.12" y="-7.25" font-family="Helvetica,sans-Serif" font-size="10.00">periph_cpu_common.h</text>
</a>
</g>
</g>
<!-- Node1&#45;&gt;Node2 -->
<g id="edge1_Node000001_Node000002" class="edge">
<title>Node1&#45;&gt;Node2</title>
<g id="a_edge1_Node000001_Node000002"><a xlink:title=" ">
<path fill="none" stroke="#63b8ff" d="M88.88,-113.11C74.76,-104.66 59.99,-92.84 52.12,-77.5 44.74,-63.1 48.62,-44.83 53.71,-31.15"/>
<polygon fill="#63b8ff" stroke="#63b8ff" points="56.78,-32.88 57.46,-22.31 50.33,-30.15 56.78,-32.88"/>
</a>
</g>
</g>
<!-- Node3 -->
<g id="Node000003" class="node">
<title>Node3</title>
<g id="a_Node000003"><a xlink:title=" ">
<polygon fill="#e0e0e0" stroke="#999999" points="240.75,-20.75 159.5,-20.75 159.5,0 240.75,0 240.75,-20.75"/>
<text text-anchor="middle" x="200.12" y="-7.25" font-family="Helvetica,sans-Serif" font-size="10.00">periph_conf.h</text>
</a>
</g>
</g>
<!-- Node1&#45;&gt;Node3 -->
<g id="edge2_Node000001_Node000003" class="edge">
<title>Node1&#45;&gt;Node3</title>
<g id="a_edge2_Node000001_Node000003"><a xlink:title=" ">
<path fill="none" stroke="#63b8ff" d="M158.56,-113.11C172.71,-104.6 187.72,-92.73 196.12,-77.5 203.69,-63.78 204.34,-45.92 203.29,-32.23"/>
<polygon fill="#63b8ff" stroke="#63b8ff" points="206.79,-32.09 202.16,-22.56 199.84,-32.9 206.79,-32.09"/>
</a>
</g>
</g>
<!-- Node4 -->
<g id="Node000004" class="node">
<title>Node4</title>
<g id="a_Node000004"><a xlink:href="atmega1284p_2include_2default__timer__config_8h.html" target="_top" xlink:title="Default timer configuration.">
<polygon fill="white" stroke="#666666" points="187.25,-77.5 61,-77.5 61,-56.75 187.25,-56.75 187.25,-77.5"/>
<text text-anchor="middle" x="124.12" y="-64" font-family="Helvetica,sans-Serif" font-size="10.00">default_timer_config.h</text>
</a>
</g>
</g>
<!-- Node1&#45;&gt;Node4 -->
<g id="edge3_Node000001_Node000004" class="edge">
<title>Node1&#45;&gt;Node4</title>
<g id="a_edge3_Node000001_Node000004"><a xlink:title=" ">
<path fill="none" stroke="#63b8ff" d="M124.12,-113.19C124.12,-105.85 124.12,-97.07 124.12,-89.21"/>
<polygon fill="#63b8ff" stroke="#63b8ff" points="127.63,-89.48 124.13,-79.48 120.63,-89.48 127.63,-89.48"/>
</a>
</g>
</g>
<!-- Node4&#45;&gt;Node2 -->
<g id="edge4_Node000004_Node000002" class="edge">
<title>Node4&#45;&gt;Node2</title>
<g id="a_edge4_Node000004_Node000002"><a xlink:title=" ">
<path fill="none" stroke="#63b8ff" d="M113.22,-56.34C104.63,-48.63 92.45,-37.7 82.25,-28.54"/>
<polygon fill="#63b8ff" stroke="#63b8ff" points="84.84,-26.16 75.06,-22.09 80.17,-31.37 84.84,-26.16"/>
</a>
</g>
</g>
<!-- Node4&#45;&gt;Node3 -->
<g id="edge5_Node000004_Node000003" class="edge">
<title>Node4&#45;&gt;Node3</title>
<g id="a_edge5_Node000004_Node000003"><a xlink:title=" ">
<path fill="none" stroke="#63b8ff" d="M137.71,-56.34C148.74,-48.4 164.51,-37.03 177.45,-27.71"/>
<polygon fill="#63b8ff" stroke="#63b8ff" points="179.36,-30.65 185.43,-21.96 175.27,-24.97 179.36,-30.65"/>
</a>
</g>
</g>
</g>
</svg>
