<?xml version="1.0" encoding="UTF-8" standalone="no"?>
<!DOCTYPE svg PUBLIC "-//W3C//DTD SVG 1.1//EN"
 "http://www.w3.org/Graphics/SVG/1.1/DTD/svg11.dtd">
<!-- Generated by graphviz version 12.1.1 (0)
 -->
<!-- Title: drivers/atwinc15x0/include/atwinc15x0_internal.h Pages: 1 -->
<svg width="1357pt" height="408pt"
 viewBox="0.00 0.00 1357.12 407.50" xmlns="http://www.w3.org/2000/svg" xmlns:xlink="http://www.w3.org/1999/xlink">
<g id="graph0" class="graph" transform="scale(1 1) rotate(0) translate(4 403.5)">
<title>drivers/atwinc15x0/include/atwinc15x0_internal.h</title>
<!-- Node1 -->
<g id="Node000001" class="node">
<title>Node1</title>
<g id="a_Node000001"><a xlink:title="Internal definitions for the ATWINC15x0 WiFi netdev driver.">
<polygon fill="#999999" stroke="#666666" points="1107.25,-399.5 993.75,-399.5 993.75,-353.25 1107.25,-353.25 1107.25,-399.5"/>
<text text-anchor="start" x="1001.75" y="-386" font-family="Helvetica,sans-Serif" font-size="10.00">drivers/atwinc15x0</text>
<text text-anchor="start" x="1001.75" y="-373.25" font-family="Helvetica,sans-Serif" font-size="10.00">/include/atwinc15x0</text>
<text text-anchor="middle" x="1050.5" y="-360.5" font-family="Helvetica,sans-Serif" font-size="10.00">_internal.h</text>
</a>
</g>
</g>
<!-- Node2 -->
<g id="Node000002" class="node">
<title>Node2</title>
<g id="a_Node000002"><a xlink:title=" ">
<polygon fill="#e0e0e0" stroke="#999999" points="588,-134.25 527,-134.25 527,-113.5 588,-113.5 588,-134.25"/>
<text text-anchor="middle" x="557.5" y="-120.75" font-family="Helvetica,sans-Serif" font-size="10.00">stdbool.h</text>
</a>
</g>
</g>
<!-- Node1&#45;&gt;Node2 -->
<g id="edge1_Node000001_Node000002" class="edge">
<title>Node1&#45;&gt;Node2</title>
<g id="a_edge1_Node000001_Node000002"><a xlink:title=" ">
<path fill="none" stroke="#63b8ff" d="M993.3,-375.26C899.52,-371.94 712.67,-351.68 604.5,-247.75 589.38,-233.22 571.77,-176.32 563.02,-145.3"/>
<polygon fill="#63b8ff" stroke="#63b8ff" points="566.47,-144.65 560.43,-135.94 559.72,-146.51 566.47,-144.65"/>
</a>
</g>
</g>
<!-- Node3 -->
<g id="Node000003" class="node">
<title>Node3</title>
<g id="a_Node000003"><a xlink:title=" ">
<polygon fill="#e0e0e0" stroke="#999999" points="1221.88,-77.5 1169.12,-77.5 1169.12,-56.75 1221.88,-56.75 1221.88,-77.5"/>
<text text-anchor="middle" x="1195.5" y="-64" font-family="Helvetica,sans-Serif" font-size="10.00">string.h</text>
</a>
</g>
</g>
<!-- Node1&#45;&gt;Node3 -->
<g id="edge2_Node000001_Node000003" class="edge">
<title>Node1&#45;&gt;Node3</title>
<g id="a_edge2_Node000001_Node000003"><a xlink:title=" ">
<path fill="none" stroke="#63b8ff" d="M1107.45,-353.55C1153.08,-331.92 1209.5,-293.94 1209.5,-238.38 1209.5,-238.38 1209.5,-238.38 1209.5,-179.62 1209.5,-147.84 1203.83,-111.35 1199.71,-89.02"/>
<polygon fill="#63b8ff" stroke="#63b8ff" points="1203.18,-88.56 1197.85,-79.4 1196.31,-89.89 1203.18,-88.56"/>
</a>
</g>
</g>
<!-- Node4 -->
<g id="Node000004" class="node">
<title>Node4</title>
<g id="a_Node000004"><a xlink:title=" ">
<polygon fill="#e0e0e0" stroke="#999999" points="1349.12,-317.25 1237.88,-317.25 1237.88,-283.75 1349.12,-283.75 1349.12,-317.25"/>
<text text-anchor="start" x="1245.88" y="-303.75" font-family="Helvetica,sans-Serif" font-size="10.00">driver/include/m2m</text>
<text text-anchor="middle" x="1293.5" y="-291" font-family="Helvetica,sans-Serif" font-size="10.00">_types.h</text>
</a>
</g>
</g>
<!-- Node1&#45;&gt;Node4 -->
<g id="edge3_Node000001_Node000004" class="edge">
<title>Node1&#45;&gt;Node4</title>
<g id="a_edge3_Node000001_Node000004"><a xlink:title=" ">
<path fill="none" stroke="#63b8ff" d="M1107.47,-358.05C1143.99,-346.95 1191.46,-332.52 1229.31,-321.02"/>
<polygon fill="#63b8ff" stroke="#63b8ff" points="1230.21,-324.4 1238.76,-318.14 1228.18,-317.7 1230.21,-324.4"/>
</a>
</g>
</g>
<!-- Node5 -->
<g id="Node000005" class="node">
<title>Node5</title>
<g id="a_Node000005"><a xlink:href="atwinc15x0_8h.html" target="_top" xlink:title="Netdev Driver for the Microchip ATWINC15x0 WiFi Module.">
<polygon fill="white" stroke="#666666" points="901.12,-310.88 819.88,-310.88 819.88,-290.12 901.12,-290.12 901.12,-310.88"/>
<text text-anchor="middle" x="860.5" y="-297.38" font-family="Helvetica,sans-Serif" font-size="10.00">atwinc15x0.h</text>
</a>
</g>
</g>
<!-- Node1&#45;&gt;Node5 -->
<g id="edge4_Node000001_Node000005" class="edge">
<title>Node1&#45;&gt;Node5</title>
<g id="a_edge4_Node000001_Node000005"><a xlink:title=" ">
<path fill="none" stroke="#63b8ff" d="M993.49,-353.21C961.98,-340.96 923.79,-326.11 896.44,-315.47"/>
<polygon fill="#63b8ff" stroke="#63b8ff" points="897.79,-312.24 887.2,-311.88 895.25,-318.77 897.79,-312.24"/>
</a>
</g>
</g>
<!-- Node6 -->
<g id="Node000006" class="node">
<title>Node6</title>
<g id="a_Node000006"><a xlink:title=" ">
<polygon fill="#e0e0e0" stroke="#999999" points="735.38,-247.75 613.62,-247.75 613.62,-227 735.38,-227 735.38,-247.75"/>
<text text-anchor="middle" x="674.5" y="-234.25" font-family="Helvetica,sans-Serif" font-size="10.00">bsp/include/nm_bsp.h</text>
</a>
</g>
</g>
<!-- Node5&#45;&gt;Node6 -->
<g id="edge5_Node000005_Node000006" class="edge">
<title>Node5&#45;&gt;Node6</title>
<g id="a_edge5_Node000005_Node000006"><a xlink:title=" ">
<path fill="none" stroke="#63b8ff" d="M830.62,-289.68C799.3,-279.39 749.89,-263.15 715.06,-251.71"/>
<polygon fill="#63b8ff" stroke="#63b8ff" points="716.34,-248.44 705.75,-248.64 714.16,-255.09 716.34,-248.44"/>
</a>
</g>
</g>
<!-- Node7 -->
<g id="Node000007" class="node">
<title>Node7</title>
<g id="a_Node000007"><a xlink:href="ethernet_8h.html" target="_top" xlink:title="Definitions for Ethernet.">
<polygon fill="white" stroke="#666666" points="1007,-247.75 922,-247.75 922,-227 1007,-227 1007,-247.75"/>
<text text-anchor="middle" x="964.5" y="-234.25" font-family="Helvetica,sans-Serif" font-size="10.00">net/ethernet.h</text>
</a>
</g>
</g>
<!-- Node5&#45;&gt;Node7 -->
<g id="edge6_Node000005_Node000007" class="edge">
<title>Node5&#45;&gt;Node7</title>
<g id="a_edge6_Node000005_Node000007"><a xlink:title=" ">
<path fill="none" stroke="#63b8ff" d="M877.21,-289.68C893.58,-280.05 918.8,-265.23 937.93,-253.99"/>
<polygon fill="#63b8ff" stroke="#63b8ff" points="939.68,-257.02 946.53,-248.94 936.13,-250.99 939.68,-257.02"/>
</a>
</g>
</g>
<!-- Node15 -->
<g id="Node000015" class="node">
<title>Node15</title>
<g id="a_Node000015"><a xlink:href="sys_2include_2net_2wifi_8h.html" target="_top" xlink:title="Definitions for Wi&#45;Fi.">
<polygon fill="white" stroke="#666666" points="1133.38,-247.75 1071.62,-247.75 1071.62,-227 1133.38,-227 1133.38,-247.75"/>
<text text-anchor="middle" x="1102.5" y="-234.25" font-family="Helvetica,sans-Serif" font-size="10.00">net/wifi.h</text>
</a>
</g>
</g>
<!-- Node5&#45;&gt;Node15 -->
<g id="edge20_Node000005_Node000015" class="edge">
<title>Node5&#45;&gt;Node15</title>
<g id="a_edge20_Node000005_Node000015"><a xlink:title=" ">
<path fill="none" stroke="#63b8ff" d="M899.38,-289.68C943.48,-278.54 1015.12,-260.45 1060.48,-248.99"/>
<polygon fill="#63b8ff" stroke="#63b8ff" points="1061.1,-252.44 1069.94,-246.6 1059.39,-245.65 1061.1,-252.44"/>
</a>
</g>
</g>
<!-- Node16 -->
<g id="Node000016" class="node">
<title>Node16</title>
<g id="a_Node000016"><a xlink:href="drivers_2include_2net_2netdev_8h.html" target="_top" xlink:title="Definitions low&#45;level network driver interface.">
<polygon fill="white" stroke="#666666" points="524.88,-247.75 448.12,-247.75 448.12,-227 524.88,-227 524.88,-247.75"/>
<text text-anchor="middle" x="486.5" y="-234.25" font-family="Helvetica,sans-Serif" font-size="10.00">net/netdev.h</text>
</a>
</g>
</g>
<!-- Node5&#45;&gt;Node16 -->
<g id="edge22_Node000005_Node000016" class="edge">
<title>Node5&#45;&gt;Node16</title>
<g id="a_edge22_Node000005_Node000016"><a xlink:title=" ">
<path fill="none" stroke="#63b8ff" d="M819.41,-292.78C750.19,-281.47 610.62,-258.66 536.08,-246.48"/>
<polygon fill="#63b8ff" stroke="#63b8ff" points="537.06,-243.09 526.62,-244.93 535.93,-250 537.06,-243.09"/>
</a>
</g>
</g>
<!-- Node29 -->
<g id="Node000029" class="node">
<title>Node29</title>
<g id="a_Node000029"><a xlink:href="drivers_2include_2periph_2gpio_8h.html" target="_top" xlink:title="Low&#45;level GPIO peripheral driver interface definitions.">
<polygon fill="white" stroke="#666666" points="868.38,-134.25 788.62,-134.25 788.62,-113.5 868.38,-113.5 868.38,-134.25"/>
<text text-anchor="middle" x="828.5" y="-120.75" font-family="Helvetica,sans-Serif" font-size="10.00">periph/gpio.h</text>
</a>
</g>
</g>
<!-- Node5&#45;&gt;Node29 -->
<g id="edge46_Node000005_Node000029" class="edge">
<title>Node5&#45;&gt;Node29</title>
<g id="a_edge46_Node000005_Node000029"><a xlink:title=" ">
<path fill="none" stroke="#63b8ff" d="M864.75,-290.09C870.46,-276.24 879.35,-249.56 874.5,-227 867.95,-196.52 851.57,-164.17 840.23,-144.24"/>
<polygon fill="#63b8ff" stroke="#63b8ff" points="843.39,-142.7 835.31,-135.84 837.35,-146.24 843.39,-142.7"/>
</a>
</g>
</g>
<!-- Node33 -->
<g id="Node000033" class="node">
<title>Node33</title>
<g id="a_Node000033"><a xlink:href="spi_8h.html" target="_top" xlink:title="Low&#45;level SPI peripheral driver interface definition.">
<polygon fill="white" stroke="#666666" points="759,-191 686,-191 686,-170.25 759,-170.25 759,-191"/>
<text text-anchor="middle" x="722.5" y="-177.5" font-family="Helvetica,sans-Serif" font-size="10.00">periph/spi.h</text>
</a>
</g>
</g>
<!-- Node5&#45;&gt;Node33 -->
<g id="edge50_Node000005_Node000033" class="edge">
<title>Node5&#45;&gt;Node33</title>
<g id="a_edge50_Node000005_Node000033"><a xlink:title=" ">
<path fill="none" stroke="#63b8ff" d="M843.47,-289.65C827.31,-279.94 802.7,-264.21 783.5,-247.75 766.35,-233.05 749.11,-213.85 737.35,-199.93"/>
<polygon fill="#63b8ff" stroke="#63b8ff" points="740.2,-197.89 731.13,-192.43 734.82,-202.36 740.2,-197.89"/>
</a>
</g>
</g>
<!-- Node34 -->
<g id="Node000034" class="node">
<title>Node34</title>
<g id="a_Node000034"><a xlink:href="ringbuffer_8h.html" target="_top" xlink:title="A utility for storing and retrieving byte data using a ring buffer.">
<polygon fill="white" stroke="#666666" points="865,-247.75 792,-247.75 792,-227 865,-227 865,-247.75"/>
<text text-anchor="middle" x="828.5" y="-234.25" font-family="Helvetica,sans-Serif" font-size="10.00">ringbuffer.h</text>
</a>
</g>
</g>
<!-- Node5&#45;&gt;Node34 -->
<g id="edge59_Node000005_Node000034" class="edge">
<title>Node5&#45;&gt;Node34</title>
<g id="a_edge59_Node000005_Node000034"><a xlink:title=" ">
<path fill="none" stroke="#63b8ff" d="M855.36,-289.68C850.9,-281.16 844.31,-268.58 838.78,-258.01"/>
<polygon fill="#63b8ff" stroke="#63b8ff" points="841.96,-256.55 834.23,-249.31 835.76,-259.79 841.96,-256.55"/>
</a>
</g>
</g>
<!-- Node8 -->
<g id="Node000008" class="node">
<title>Node8</title>
<g id="a_Node000008"><a xlink:title=" ">
<polygon fill="#e0e0e0" stroke="#999999" points="505.88,-20.75 453.12,-20.75 453.12,0 505.88,0 505.88,-20.75"/>
<text text-anchor="middle" x="479.5" y="-7.25" font-family="Helvetica,sans-Serif" font-size="10.00">stdint.h</text>
</a>
</g>
</g>
<!-- Node7&#45;&gt;Node8 -->
<g id="edge7_Node000007_Node000008" class="edge">
<title>Node7&#45;&gt;Node8</title>
<g id="a_edge7_Node000007_Node000008"><a xlink:title=" ">
<path fill="none" stroke="#63b8ff" d="M952.75,-226.56C943.07,-217.98 929.51,-204.77 920.5,-191 885.19,-137.04 916.85,-95.75 865.5,-56.75 811.42,-15.68 603.75,-11.14 517.45,-11.08"/>
<polygon fill="#63b8ff" stroke="#63b8ff" points="517.62,-7.58 507.62,-11.09 517.63,-14.58 517.62,-7.58"/>
</a>
</g>
</g>
<!-- Node9 -->
<g id="Node000009" class="node">
<title>Node9</title>
<g id="a_Node000009"><a xlink:href="net_2ethernet_2hdr_8h.html" target="_top" xlink:title="Ethernet header definitions.">
<polygon fill="white" stroke="#666666" points="1121.38,-191 1017.62,-191 1017.62,-170.25 1121.38,-170.25 1121.38,-191"/>
<text text-anchor="middle" x="1069.5" y="-177.5" font-family="Helvetica,sans-Serif" font-size="10.00">net/ethernet/hdr.h</text>
</a>
</g>
</g>
<!-- Node7&#45;&gt;Node9 -->
<g id="edge8_Node000007_Node000009" class="edge">
<title>Node7&#45;&gt;Node9</title>
<g id="a_edge8_Node000007_Node000009"><a xlink:title=" ">
<path fill="none" stroke="#63b8ff" d="M983.27,-226.59C999.25,-218.26 1022.45,-206.16 1040.76,-196.61"/>
<polygon fill="#63b8ff" stroke="#63b8ff" points="1042.3,-199.76 1049.55,-192.03 1039.06,-193.55 1042.3,-199.76"/>
</a>
</g>
</g>
<!-- Node14 -->
<g id="Node000014" class="node">
<title>Node14</title>
<g id="a_Node000014"><a xlink:href="eui64_8h.html" target="_top" xlink:title="EUI&#45;64 data type definition.">
<polygon fill="white" stroke="#666666" points="999.88,-191 929.12,-191 929.12,-170.25 999.88,-170.25 999.88,-191"/>
<text text-anchor="middle" x="964.5" y="-177.5" font-family="Helvetica,sans-Serif" font-size="10.00">net/eui64.h</text>
</a>
</g>
</g>
<!-- Node7&#45;&gt;Node14 -->
<g id="edge17_Node000007_Node000014" class="edge">
<title>Node7&#45;&gt;Node14</title>
<g id="a_edge17_Node000007_Node000014"><a xlink:title=" ">
<path fill="none" stroke="#63b8ff" d="M964.5,-226.59C964.5,-219.97 964.5,-210.97 964.5,-202.77"/>
<polygon fill="#63b8ff" stroke="#63b8ff" points="968,-202.84 964.5,-192.84 961,-202.84 968,-202.84"/>
</a>
</g>
</g>
<!-- Node10 -->
<g id="Node000010" class="node">
<title>Node10</title>
<g id="a_Node000010"><a xlink:href="inttypes_8h.html" target="_top" xlink:title="Adds include for missing inttype definitions.">
<polygon fill="white" stroke="#666666" points="1181.88,-134.25 1117.12,-134.25 1117.12,-113.5 1181.88,-113.5 1181.88,-134.25"/>
<text text-anchor="middle" x="1149.5" y="-120.75" font-family="Helvetica,sans-Serif" font-size="10.00">inttypes.h</text>
</a>
</g>
</g>
<!-- Node9&#45;&gt;Node10 -->
<g id="edge9_Node000009_Node000010" class="edge">
<title>Node9&#45;&gt;Node10</title>
<g id="a_edge9_Node000009_Node000010"><a xlink:title=" ">
<path fill="none" stroke="#63b8ff" d="M1083.8,-169.84C1095.52,-161.82 1112.34,-150.31 1126.03,-140.94"/>
<polygon fill="#63b8ff" stroke="#63b8ff" points="1127.8,-143.97 1134.07,-135.43 1123.84,-138.19 1127.8,-143.97"/>
</a>
</g>
</g>
<!-- Node11 -->
<g id="Node000011" class="node">
<title>Node11</title>
<g id="a_Node000011"><a xlink:href="byteorder_8h.html" target="_top" xlink:title="Functions to work with different byte orders.">
<polygon fill="white" stroke="#666666" points="1061.62,-134.25 989.38,-134.25 989.38,-113.5 1061.62,-113.5 1061.62,-134.25"/>
<text text-anchor="middle" x="1025.5" y="-120.75" font-family="Helvetica,sans-Serif" font-size="10.00">byteorder.h</text>
</a>
</g>
</g>
<!-- Node9&#45;&gt;Node11 -->
<g id="edge10_Node000009_Node000011" class="edge">
<title>Node9&#45;&gt;Node11</title>
<g id="a_edge10_Node000009_Node000011"><a xlink:title=" ">
<path fill="none" stroke="#63b8ff" d="M1061.63,-169.84C1055.75,-162.52 1047.53,-152.29 1040.42,-143.44"/>
<polygon fill="#63b8ff" stroke="#63b8ff" points="1043.24,-141.36 1034.25,-135.76 1037.78,-145.75 1043.24,-141.36"/>
</a>
</g>
</g>
<!-- Node11&#45;&gt;Node3 -->
<g id="edge11_Node000011_Node000003" class="edge">
<title>Node11&#45;&gt;Node3</title>
<g id="a_edge11_Node000011_Node000003"><a xlink:title=" ">
<path fill="none" stroke="#63b8ff" d="M1055.89,-113.09C1084.47,-103.88 1127.33,-90.08 1158.02,-80.2"/>
<polygon fill="#63b8ff" stroke="#63b8ff" points="1158.84,-83.61 1167.29,-77.21 1156.69,-76.95 1158.84,-83.61"/>
</a>
</g>
</g>
<!-- Node11&#45;&gt;Node8 -->
<g id="edge12_Node000011_Node000008" class="edge">
<title>Node11&#45;&gt;Node8</title>
<g id="a_edge12_Node000011_Node000008"><a xlink:title=" ">
<path fill="none" stroke="#63b8ff" d="M1040.74,-113.06C1059.89,-99.57 1088.32,-74.91 1071.5,-56.75 1033.88,-16.14 642.54,-11.73 517.61,-11.37"/>
<polygon fill="#63b8ff" stroke="#63b8ff" points="517.89,-7.87 507.88,-11.35 517.87,-14.87 517.89,-7.87"/>
</a>
</g>
</g>
<!-- Node12 -->
<g id="Node000012" class="node">
<title>Node12</title>
<g id="a_Node000012"><a xlink:href="endian_8h.html" target="_top" xlink:title="libc header for endian conversion">
<polygon fill="white" stroke="#666666" points="970.5,-77.5 912.5,-77.5 912.5,-56.75 970.5,-56.75 970.5,-77.5"/>
<text text-anchor="middle" x="941.5" y="-64" font-family="Helvetica,sans-Serif" font-size="10.00">endian.h</text>
</a>
</g>
</g>
<!-- Node11&#45;&gt;Node12 -->
<g id="edge13_Node000011_Node000012" class="edge">
<title>Node11&#45;&gt;Node12</title>
<g id="a_edge13_Node000011_Node000012"><a xlink:title=" ">
<path fill="none" stroke="#63b8ff" d="M1010.48,-113.09C998.06,-104.99 980.18,-93.33 965.73,-83.92"/>
<polygon fill="#63b8ff" stroke="#63b8ff" points="967.94,-81.18 957.66,-78.65 964.12,-87.05 967.94,-81.18"/>
</a>
</g>
</g>
<!-- Node13 -->
<g id="Node000013" class="node">
<title>Node13</title>
<g id="a_Node000013"><a xlink:href="unaligned_8h.html" target="_top" xlink:title="Unaligned but safe memory access functions.">
<polygon fill="white" stroke="#666666" points="1062,-77.5 989,-77.5 989,-56.75 1062,-56.75 1062,-77.5"/>
<text text-anchor="middle" x="1025.5" y="-64" font-family="Helvetica,sans-Serif" font-size="10.00">unaligned.h</text>
</a>
</g>
</g>
<!-- Node11&#45;&gt;Node13 -->
<g id="edge15_Node000011_Node000013" class="edge">
<title>Node11&#45;&gt;Node13</title>
<g id="a_edge15_Node000011_Node000013"><a xlink:title=" ">
<path fill="none" stroke="#63b8ff" d="M1025.5,-113.09C1025.5,-106.47 1025.5,-97.47 1025.5,-89.27"/>
<polygon fill="#63b8ff" stroke="#63b8ff" points="1029,-89.34 1025.5,-79.34 1022,-89.34 1029,-89.34"/>
</a>
</g>
</g>
<!-- Node12&#45;&gt;Node8 -->
<g id="edge14_Node000012_Node000008" class="edge">
<title>Node12&#45;&gt;Node8</title>
<g id="a_edge14_Node000012_Node000008"><a xlink:title=" ">
<path fill="none" stroke="#63b8ff" d="M912.44,-59.35C907.79,-58.39 903.02,-57.49 898.5,-56.75 758.94,-34.05 591.33,-19.76 517.54,-14.13"/>
<polygon fill="#63b8ff" stroke="#63b8ff" points="517.85,-10.64 507.61,-13.38 517.32,-17.62 517.85,-10.64"/>
</a>
</g>
</g>
<!-- Node13&#45;&gt;Node8 -->
<g id="edge16_Node000013_Node000008" class="edge">
<title>Node13&#45;&gt;Node8</title>
<g id="a_edge16_Node000013_Node000008"><a xlink:title=" ">
<path fill="none" stroke="#63b8ff" d="M988.66,-58.24C985.57,-57.7 982.48,-57.19 979.5,-56.75 808.12,-31.59 601.52,-18.15 517.65,-13.39"/>
<polygon fill="#63b8ff" stroke="#63b8ff" points="517.87,-9.9 507.69,-12.84 517.48,-16.89 517.87,-9.9"/>
</a>
</g>
</g>
<!-- Node14&#45;&gt;Node8 -->
<g id="edge18_Node000014_Node000008" class="edge">
<title>Node14&#45;&gt;Node8</title>
<g id="a_edge18_Node000014_Node000008"><a xlink:title=" ">
<path fill="none" stroke="#63b8ff" d="M1000.23,-172.42C1023.22,-166.04 1052.14,-154.49 1070.5,-134.25 1094.26,-108.06 1112.56,-82.67 1088.5,-56.75 1049.68,-14.92 645.39,-11.36 517.83,-11.28"/>
<polygon fill="#63b8ff" stroke="#63b8ff" points="517.89,-7.78 507.89,-11.28 517.89,-14.78 517.89,-7.78"/>
</a>
</g>
</g>
<!-- Node14&#45;&gt;Node11 -->
<g id="edge19_Node000014_Node000011" class="edge">
<title>Node14&#45;&gt;Node11</title>
<g id="a_edge19_Node000014_Node000011"><a xlink:title=" ">
<path fill="none" stroke="#63b8ff" d="M975.41,-169.84C983.99,-162.13 996.17,-151.2 1006.38,-142.04"/>
<polygon fill="#63b8ff" stroke="#63b8ff" points="1008.46,-144.87 1013.56,-135.59 1003.78,-139.66 1008.46,-144.87"/>
</a>
</g>
</g>
<!-- Node15&#45;&gt;Node10 -->
<g id="edge21_Node000015_Node000010" class="edge">
<title>Node15&#45;&gt;Node10</title>
<g id="a_edge21_Node000015_Node000010"><a xlink:title=" ">
<path fill="none" stroke="#63b8ff" d="M1109.55,-226.71C1115.77,-217.81 1124.73,-204.04 1130.5,-191 1137.01,-176.28 1141.93,-158.74 1145.13,-145.42"/>
<polygon fill="#63b8ff" stroke="#63b8ff" points="1148.46,-146.58 1147.25,-136.06 1141.63,-145.04 1148.46,-146.58"/>
</a>
</g>
</g>
<!-- Node16&#45;&gt;Node8 -->
<g id="edge23_Node000016_Node000008" class="edge">
<title>Node16&#45;&gt;Node8</title>
<g id="a_edge23_Node000016_Node000008"><a xlink:title=" ">
<path fill="none" stroke="#63b8ff" d="M482.64,-226.83C479.2,-217.78 474.42,-203.72 472.5,-191 463.92,-134.08 471.34,-65.94 476.15,-32.29"/>
<polygon fill="#63b8ff" stroke="#63b8ff" points="479.57,-33.09 477.61,-22.68 472.65,-32.04 479.57,-33.09"/>
</a>
</g>
</g>
<!-- Node17 -->
<g id="Node000017" class="node">
<title>Node17</title>
<g id="a_Node000017"><a xlink:href="errno_8h.html" target="_top" xlink:title=" ">
<polygon fill="white" stroke="#666666" points="656.75,-134.25 606.25,-134.25 606.25,-113.5 656.75,-113.5 656.75,-134.25"/>
<text text-anchor="middle" x="631.5" y="-120.75" font-family="Helvetica,sans-Serif" font-size="10.00">errno.h</text>
</a>
</g>
</g>
<!-- Node16&#45;&gt;Node17 -->
<g id="edge24_Node000016_Node000017" class="edge">
<title>Node16&#45;&gt;Node17</title>
<g id="a_edge24_Node000016_Node000017"><a xlink:title=" ">
<path fill="none" stroke="#63b8ff" d="M507.19,-226.65C523.95,-218.31 547.76,-205.39 566.5,-191 585.14,-176.68 603.66,-157.19 616.14,-143.08"/>
<polygon fill="#63b8ff" stroke="#63b8ff" points="618.51,-145.68 622.41,-135.83 613.22,-141.1 618.51,-145.68"/>
</a>
</g>
</g>
<!-- Node18 -->
<g id="Node000018" class="node">
<title>Node18</title>
<g id="a_Node000018"><a xlink:href="iolist_8h.html" target="_top" xlink:title="iolist scatter / gather IO">
<polygon fill="white" stroke="#666666" points="112,-191 63,-191 63,-170.25 112,-170.25 112,-191"/>
<text text-anchor="middle" x="87.5" y="-177.5" font-family="Helvetica,sans-Serif" font-size="10.00">iolist.h</text>
</a>
</g>
</g>
<!-- Node16&#45;&gt;Node18 -->
<g id="edge25_Node000016_Node000018" class="edge">
<title>Node16&#45;&gt;Node18</title>
<g id="a_edge25_Node000016_Node000018"><a xlink:title=" ">
<path fill="none" stroke="#63b8ff" d="M447.88,-231.08C370.65,-220.48 198.19,-196.81 123.32,-186.54"/>
<polygon fill="#63b8ff" stroke="#63b8ff" points="124.06,-183.11 113.68,-185.22 123.11,-190.04 124.06,-183.11"/>
</a>
</g>
</g>
<!-- Node22 -->
<g id="Node000022" class="node">
<title>Node22</title>
<g id="a_Node000022"><a xlink:href="netopt_8h.html" target="_top" xlink:title="Definition of global configuration options.">
<polygon fill="white" stroke="#666666" points="557.12,-191 481.88,-191 481.88,-170.25 557.12,-170.25 557.12,-191"/>
<text text-anchor="middle" x="519.5" y="-177.5" font-family="Helvetica,sans-Serif" font-size="10.00">net/netopt.h</text>
</a>
</g>
</g>
<!-- Node16&#45;&gt;Node22 -->
<g id="edge32_Node000016_Node000022" class="edge">
<title>Node16&#45;&gt;Node22</title>
<g id="a_edge32_Node000016_Node000022"><a xlink:title=" ">
<path fill="none" stroke="#63b8ff" d="M492.4,-226.59C496.67,-219.5 502.58,-209.69 507.8,-201.04"/>
<polygon fill="#63b8ff" stroke="#63b8ff" points="510.71,-203 512.87,-192.62 504.71,-199.38 510.71,-203"/>
</a>
</g>
</g>
<!-- Node23 -->
<g id="Node000023" class="node">
<title>Node23</title>
<g id="a_Node000023"><a xlink:href="kernel__defines_8h.html" target="_top" xlink:title="Common macros and compiler attributes/pragmas configuration.">
<polygon fill="white" stroke="#666666" points="285.62,-191 189.38,-191 189.38,-170.25 285.62,-170.25 285.62,-191"/>
<text text-anchor="middle" x="237.5" y="-177.5" font-family="Helvetica,sans-Serif" font-size="10.00">kernel_defines.h</text>
</a>
</g>
</g>
<!-- Node16&#45;&gt;Node23 -->
<g id="edge35_Node000016_Node000023" class="edge">
<title>Node16&#45;&gt;Node23</title>
<g id="a_edge35_Node000016_Node000023"><a xlink:title=" ">
<path fill="none" stroke="#63b8ff" d="M447.87,-227.88C406.47,-218.78 340.39,-204.25 293.34,-193.9"/>
<polygon fill="#63b8ff" stroke="#63b8ff" points="294.12,-190.49 283.6,-191.76 292.61,-197.33 294.12,-190.49"/>
</a>
</g>
</g>
<!-- Node19 -->
<g id="Node000019" class="node">
<title>Node19</title>
<g id="a_Node000019"><a xlink:href="unistd_8h_source.html" target="_top" xlink:title=" ">
<polygon fill="white" stroke="#666666" points="55,-134.25 0,-134.25 0,-113.5 55,-113.5 55,-134.25"/>
<text text-anchor="middle" x="27.5" y="-120.75" font-family="Helvetica,sans-Serif" font-size="10.00">unistd.h</text>
</a>
</g>
</g>
<!-- Node18&#45;&gt;Node19 -->
<g id="edge26_Node000018_Node000019" class="edge">
<title>Node18&#45;&gt;Node19</title>
<g id="a_edge26_Node000018_Node000019"><a xlink:title=" ">
<path fill="none" stroke="#63b8ff" d="M76.77,-169.84C68.41,-162.21 56.59,-151.42 46.62,-142.32"/>
<polygon fill="#63b8ff" stroke="#63b8ff" points="49,-139.75 39.25,-135.6 44.28,-144.92 49,-139.75"/>
</a>
</g>
</g>
<!-- Node19&#45;&gt;Node8 -->
<g id="edge28_Node000019_Node000008" class="edge">
<title>Node19&#45;&gt;Node8</title>
<g id="a_edge28_Node000019_Node000008"><a xlink:title=" ">
<path fill="none" stroke="#63b8ff" d="M49.27,-113.1C82.08,-98.74 146.42,-72.01 203.5,-56.75 287.02,-34.43 387.86,-21.21 441.54,-15.23"/>
<polygon fill="#63b8ff" stroke="#63b8ff" points="441.81,-18.72 451.37,-14.16 441.05,-11.76 441.81,-18.72"/>
</a>
</g>
</g>
<!-- Node20 -->
<g id="Node000020" class="node">
<title>Node20</title>
<g id="a_Node000020"><a xlink:title=" ">
<polygon fill="#e0e0e0" stroke="#999999" points="142,-20.75 87,-20.75 87,0 142,0 142,-20.75"/>
<text text-anchor="middle" x="114.5" y="-7.25" font-family="Helvetica,sans-Serif" font-size="10.00">stddef.h</text>
</a>
</g>
</g>
<!-- Node19&#45;&gt;Node20 -->
<g id="edge27_Node000019_Node000020" class="edge">
<title>Node19&#45;&gt;Node20</title>
<g id="a_edge27_Node000019_Node000020"><a xlink:title=" ">
<path fill="none" stroke="#63b8ff" d="M26.53,-113.43C25.61,-99.72 25.8,-74.07 37.5,-56.75 46.87,-42.89 62,-32.65 76.39,-25.45"/>
<polygon fill="#63b8ff" stroke="#63b8ff" points="77.64,-28.72 85.26,-21.36 74.71,-22.37 77.64,-28.72"/>
</a>
</g>
</g>
<!-- Node21 -->
<g id="Node000021" class="node">
<title>Node21</title>
<g id="a_Node000021"><a xlink:href="cpu_2avr8__common_2avr__libc__extra_2include_2sys_2types_8h_source.html" target="_top" xlink:title=" ">
<polygon fill="white" stroke="#666666" points="118.25,-77.5 46.75,-77.5 46.75,-56.75 118.25,-56.75 118.25,-77.5"/>
<text text-anchor="middle" x="82.5" y="-64" font-family="Helvetica,sans-Serif" font-size="10.00">sys/types.h</text>
</a>
</g>
</g>
<!-- Node19&#45;&gt;Node21 -->
<g id="edge29_Node000019_Node000021" class="edge">
<title>Node19&#45;&gt;Node21</title>
<g id="a_edge29_Node000019_Node000021"><a xlink:title=" ">
<path fill="none" stroke="#63b8ff" d="M37.33,-113.09C44.92,-105.53 55.62,-94.89 64.7,-85.85"/>
<polygon fill="#63b8ff" stroke="#63b8ff" points="67.06,-88.43 71.68,-78.9 62.12,-83.47 67.06,-88.43"/>
</a>
</g>
</g>
<!-- Node21&#45;&gt;Node8 -->
<g id="edge30_Node000021_Node000008" class="edge">
<title>Node21&#45;&gt;Node8</title>
<g id="a_edge30_Node000021_Node000008"><a xlink:title=" ">
<path fill="none" stroke="#63b8ff" d="M118.43,-61.17C193.32,-50.84 365.47,-27.1 441.83,-16.57"/>
<polygon fill="#63b8ff" stroke="#63b8ff" points="441.88,-20.1 451.31,-15.26 440.93,-13.16 441.88,-20.1"/>
</a>
</g>
</g>
<!-- Node21&#45;&gt;Node20 -->
<g id="edge31_Node000021_Node000020" class="edge">
<title>Node21&#45;&gt;Node20</title>
<g id="a_edge31_Node000021_Node000020"><a xlink:title=" ">
<path fill="none" stroke="#63b8ff" d="M88.22,-56.34C92.36,-49.25 98.1,-39.44 103.15,-30.79"/>
<polygon fill="#63b8ff" stroke="#63b8ff" points="106.04,-32.78 108.06,-22.39 100,-29.25 106.04,-32.78"/>
</a>
</g>
</g>
<!-- Node22&#45;&gt;Node2 -->
<g id="edge34_Node000022_Node000002" class="edge">
<title>Node22&#45;&gt;Node2</title>
<g id="a_edge34_Node000022_Node000002"><a xlink:title=" ">
<path fill="none" stroke="#63b8ff" d="M526.29,-169.84C531.27,-162.67 538.17,-152.73 544.22,-144.01"/>
<polygon fill="#63b8ff" stroke="#63b8ff" points="547.08,-146.03 549.9,-135.82 541.32,-142.04 547.08,-146.03"/>
</a>
</g>
</g>
<!-- Node22&#45;&gt;Node8 -->
<g id="edge33_Node000022_Node000008" class="edge">
<title>Node22&#45;&gt;Node8</title>
<g id="a_edge33_Node000022_Node000008"><a xlink:title=" ">
<path fill="none" stroke="#63b8ff" d="M517.23,-170.1C510.94,-143.62 493.12,-68.68 484.41,-32.05"/>
<polygon fill="#63b8ff" stroke="#63b8ff" points="487.91,-31.61 482.19,-22.69 481.1,-33.23 487.91,-31.61"/>
</a>
</g>
</g>
<!-- Node24 -->
<g id="Node000024" class="node">
<title>Node24</title>
<g id="a_Node000024"><a xlink:href="modules_8h.html" target="_top" xlink:title="Common macros and compiler attributes/pragmas configuration.">
<polygon fill="white" stroke="#666666" points="140,-134.25 73,-134.25 73,-113.5 140,-113.5 140,-134.25"/>
<text text-anchor="middle" x="106.5" y="-120.75" font-family="Helvetica,sans-Serif" font-size="10.00">modules.h</text>
</a>
</g>
</g>
<!-- Node23&#45;&gt;Node24 -->
<g id="edge36_Node000023_Node000024" class="edge">
<title>Node23&#45;&gt;Node24</title>
<g id="a_edge36_Node000023_Node000024"><a xlink:title=" ">
<path fill="none" stroke="#63b8ff" d="M214.08,-169.84C193.5,-161.23 163.3,-148.61 140.13,-138.93"/>
<polygon fill="#63b8ff" stroke="#63b8ff" points="141.69,-135.79 131.11,-135.16 138.99,-142.25 141.69,-135.79"/>
</a>
</g>
</g>
<!-- Node25 -->
<g id="Node000025" class="node">
<title>Node25</title>
<g id="a_Node000025"><a xlink:href="riot__version_8h.html" target="_top" xlink:title="Common macros and compiler attributes/pragmas configuration.">
<polygon fill="white" stroke="#666666" points="278.88,-134.25 196.12,-134.25 196.12,-113.5 278.88,-113.5 278.88,-134.25"/>
<text text-anchor="middle" x="237.5" y="-120.75" font-family="Helvetica,sans-Serif" font-size="10.00">riot_version.h</text>
</a>
</g>
</g>
<!-- Node23&#45;&gt;Node25 -->
<g id="edge37_Node000023_Node000025" class="edge">
<title>Node23&#45;&gt;Node25</title>
<g id="a_edge37_Node000023_Node000025"><a xlink:title=" ">
<path fill="none" stroke="#63b8ff" d="M237.5,-169.84C237.5,-163.22 237.5,-154.22 237.5,-146.02"/>
<polygon fill="#63b8ff" stroke="#63b8ff" points="241,-146.09 237.5,-136.09 234,-146.09 241,-146.09"/>
</a>
</g>
</g>
<!-- Node26 -->
<g id="Node000026" class="node">
<title>Node26</title>
<g id="a_Node000026"><a xlink:href="compiler__hints_8h.html" target="_top" xlink:title="Common macros and compiler attributes/pragmas configuration.">
<polygon fill="white" stroke="#666666" points="432,-134.25 335,-134.25 335,-113.5 432,-113.5 432,-134.25"/>
<text text-anchor="middle" x="383.5" y="-120.75" font-family="Helvetica,sans-Serif" font-size="10.00">compiler_hints.h</text>
</a>
</g>
</g>
<!-- Node23&#45;&gt;Node26 -->
<g id="edge39_Node000023_Node000026" class="edge">
<title>Node23&#45;&gt;Node26</title>
<g id="a_edge39_Node000023_Node000026"><a xlink:title=" ">
<path fill="none" stroke="#63b8ff" d="M263.6,-169.84C286.85,-161.12 321.12,-148.27 347.07,-138.54"/>
<polygon fill="#63b8ff" stroke="#63b8ff" points="348.07,-141.9 356.21,-135.11 345.61,-135.34 348.07,-141.9"/>
</a>
</g>
</g>
<!-- Node28 -->
<g id="Node000028" class="node">
<title>Node28</title>
<g id="a_Node000028"><a xlink:href="container_8h.html" target="_top" xlink:title="Common macros and compiler attributes/pragmas configuration.">
<polygon fill="white" stroke="#666666" points="282.88,-77.5 212.12,-77.5 212.12,-56.75 282.88,-56.75 282.88,-77.5"/>
<text text-anchor="middle" x="247.5" y="-64" font-family="Helvetica,sans-Serif" font-size="10.00">container.h</text>
</a>
</g>
</g>
<!-- Node23&#45;&gt;Node28 -->
<g id="edge43_Node000023_Node000028" class="edge">
<title>Node23&#45;&gt;Node28</title>
<g id="a_edge43_Node000023_Node000028"><a xlink:title=" ">
<path fill="none" stroke="#63b8ff" d="M221,-169.88C202.53,-157.64 176.54,-135.53 187.5,-113.5 193.71,-101.02 205.17,-91.06 216.43,-83.69"/>
<polygon fill="#63b8ff" stroke="#63b8ff" points="218.05,-86.79 224.83,-78.65 214.45,-80.79 218.05,-86.79"/>
</a>
</g>
</g>
<!-- Node25&#45;&gt;Node8 -->
<g id="edge38_Node000025_Node000008" class="edge">
<title>Node25&#45;&gt;Node8</title>
<g id="a_edge38_Node000025_Node000008"><a xlink:title=" ">
<path fill="none" stroke="#63b8ff" d="M253.56,-113.14C276.39,-99.53 319.76,-74.49 358.5,-56.75 385.97,-44.17 418.02,-32.27 442.24,-23.81"/>
<polygon fill="#63b8ff" stroke="#63b8ff" points="443.36,-27.13 451.67,-20.56 441.08,-20.51 443.36,-27.13"/>
</a>
</g>
</g>
<!-- Node26&#45;&gt;Node8 -->
<g id="edge42_Node000026_Node000008" class="edge">
<title>Node26&#45;&gt;Node8</title>
<g id="a_edge42_Node000026_Node000008"><a xlink:title=" ">
<path fill="none" stroke="#63b8ff" d="M376.68,-113.06C368.08,-99.34 355.75,-74.19 367.5,-56.75 383.97,-32.31 416.09,-21.03 441.73,-15.82"/>
<polygon fill="#63b8ff" stroke="#63b8ff" points="442.24,-19.29 451.48,-14.1 441.02,-12.39 442.24,-19.29"/>
</a>
</g>
</g>
<!-- Node27 -->
<g id="Node000027" class="node">
<title>Node27</title>
<g id="a_Node000027"><a xlink:href="assert_8h.html" target="_top" xlink:title="POSIX.1&#45;2008 compliant version of the assert macro.">
<polygon fill="white" stroke="#666666" points="432,-77.5 377,-77.5 377,-56.75 432,-56.75 432,-77.5"/>
<text text-anchor="middle" x="404.5" y="-64" font-family="Helvetica,sans-Serif" font-size="10.00">assert.h</text>
</a>
</g>
</g>
<!-- Node26&#45;&gt;Node27 -->
<g id="edge40_Node000026_Node000027" class="edge">
<title>Node26&#45;&gt;Node27</title>
<g id="a_edge40_Node000026_Node000027"><a xlink:title=" ">
<path fill="none" stroke="#63b8ff" d="M387.25,-113.09C389.88,-106.24 393.49,-96.84 396.72,-88.4"/>
<polygon fill="#63b8ff" stroke="#63b8ff" points="399.92,-89.83 400.24,-79.24 393.39,-87.32 399.92,-89.83"/>
</a>
</g>
</g>
<!-- Node27&#45;&gt;Node8 -->
<g id="edge41_Node000027_Node000008" class="edge">
<title>Node27&#45;&gt;Node8</title>
<g id="a_edge41_Node000027_Node000008"><a xlink:title=" ">
<path fill="none" stroke="#63b8ff" d="M417.91,-56.34C428.79,-48.4 444.36,-37.03 457.12,-27.71"/>
<polygon fill="#63b8ff" stroke="#63b8ff" points="458.97,-30.69 464.99,-21.97 454.84,-25.04 458.97,-30.69"/>
</a>
</g>
</g>
<!-- Node28&#45;&gt;Node8 -->
<g id="edge45_Node000028_Node000008" class="edge">
<title>Node28&#45;&gt;Node8</title>
<g id="a_edge45_Node000028_Node000008"><a xlink:title=" ">
<path fill="none" stroke="#63b8ff" d="M283.24,-57.69C326.18,-47.56 397.89,-30.63 441.72,-20.29"/>
<polygon fill="#63b8ff" stroke="#63b8ff" points="442.36,-23.74 451.29,-18.03 440.75,-16.92 442.36,-23.74"/>
</a>
</g>
</g>
<!-- Node28&#45;&gt;Node20 -->
<g id="edge44_Node000028_Node000020" class="edge">
<title>Node28&#45;&gt;Node20</title>
<g id="a_edge44_Node000028_Node000020"><a xlink:title=" ">
<path fill="none" stroke="#63b8ff" d="M223.72,-56.34C202.82,-47.73 172.16,-35.11 148.64,-25.43"/>
<polygon fill="#63b8ff" stroke="#63b8ff" points="150.05,-22.22 139.47,-21.65 147.39,-28.7 150.05,-22.22"/>
</a>
</g>
</g>
<!-- Node30 -->
<g id="Node000030" class="node">
<title>Node30</title>
<g id="a_Node000030"><a xlink:title=" ">
<polygon fill="#e0e0e0" stroke="#999999" points="856.88,-77.5 804.12,-77.5 804.12,-56.75 856.88,-56.75 856.88,-77.5"/>
<text text-anchor="middle" x="830.5" y="-64" font-family="Helvetica,sans-Serif" font-size="10.00">limits.h</text>
</a>
</g>
</g>
<!-- Node29&#45;&gt;Node30 -->
<g id="edge47_Node000029_Node000030" class="edge">
<title>Node29&#45;&gt;Node30</title>
<g id="a_edge47_Node000029_Node000030"><a xlink:title=" ">
<path fill="none" stroke="#63b8ff" d="M828.86,-113.09C829.1,-106.47 829.43,-97.47 829.73,-89.27"/>
<polygon fill="#63b8ff" stroke="#63b8ff" points="833.22,-89.46 830.09,-79.34 826.23,-89.21 833.22,-89.46"/>
</a>
</g>
</g>
<!-- Node31 -->
<g id="Node000031" class="node">
<title>Node31</title>
<g id="a_Node000031"><a xlink:title=" ">
<polygon fill="#e0e0e0" stroke="#999999" points="686.62,-77.5 608.38,-77.5 608.38,-56.75 686.62,-56.75 686.62,-77.5"/>
<text text-anchor="middle" x="647.5" y="-64" font-family="Helvetica,sans-Serif" font-size="10.00">periph_cpu.h</text>
</a>
</g>
</g>
<!-- Node29&#45;&gt;Node31 -->
<g id="edge48_Node000029_Node000031" class="edge">
<title>Node29&#45;&gt;Node31</title>
<g id="a_edge48_Node000029_Node000031"><a xlink:title=" ">
<path fill="none" stroke="#63b8ff" d="M796.14,-113.09C766.76,-104.2 723.2,-91.02 690.83,-81.23"/>
<polygon fill="#63b8ff" stroke="#63b8ff" points="691.92,-77.9 681.33,-78.36 689.89,-84.6 691.92,-77.9"/>
</a>
</g>
</g>
<!-- Node32 -->
<g id="Node000032" class="node">
<title>Node32</title>
<g id="a_Node000032"><a xlink:title=" ">
<polygon fill="#e0e0e0" stroke="#999999" points="786.12,-77.5 704.88,-77.5 704.88,-56.75 786.12,-56.75 786.12,-77.5"/>
<text text-anchor="middle" x="745.5" y="-64" font-family="Helvetica,sans-Serif" font-size="10.00">periph_conf.h</text>
</a>
</g>
</g>
<!-- Node29&#45;&gt;Node32 -->
<g id="edge49_Node000029_Node000032" class="edge">
<title>Node29&#45;&gt;Node32</title>
<g id="a_edge49_Node000029_Node000032"><a xlink:title=" ">
<path fill="none" stroke="#63b8ff" d="M813.66,-113.09C801.39,-104.99 783.71,-93.33 769.44,-83.92"/>
<polygon fill="#63b8ff" stroke="#63b8ff" points="771.75,-81.25 761.47,-78.66 767.89,-87.09 771.75,-81.25"/>
</a>
</g>
</g>
<!-- Node33&#45;&gt;Node2 -->
<g id="edge53_Node000033_Node000002" class="edge">
<title>Node33&#45;&gt;Node2</title>
<g id="a_edge53_Node000033_Node000002"><a xlink:title=" ">
<path fill="none" stroke="#63b8ff" d="M693,-169.84C666.45,-161.03 627.2,-148 597.77,-138.24"/>
<polygon fill="#63b8ff" stroke="#63b8ff" points="599.05,-134.97 588.46,-135.15 596.85,-141.62 599.05,-134.97"/>
</a>
</g>
</g>
<!-- Node33&#45;&gt;Node8 -->
<g id="edge55_Node000033_Node000008" class="edge">
<title>Node33&#45;&gt;Node8</title>
<g id="a_edge55_Node000033_Node000008"><a xlink:title=" ">
<path fill="none" stroke="#63b8ff" d="M716.02,-170.13C706.28,-156.37 686.72,-130.64 665.5,-113.5 639.51,-92.51 628.8,-93.56 599.5,-77.5 567.7,-60.07 531.22,-39.95 506.91,-26.52"/>
<polygon fill="#63b8ff" stroke="#63b8ff" points="508.75,-23.54 498.3,-21.77 505.36,-29.67 508.75,-23.54"/>
</a>
</g>
</g>
<!-- Node33&#45;&gt;Node12 -->
<g id="edge51_Node000033_Node000012" class="edge">
<title>Node33&#45;&gt;Node12</title>
<g id="a_edge51_Node000033_Node000012"><a xlink:title=" ">
<path fill="none" stroke="#63b8ff" d="M759.43,-174.33C792.27,-168.38 840.66,-156.5 877.5,-134.25 897.92,-121.92 916.29,-101.48 928.05,-86.59"/>
<polygon fill="#63b8ff" stroke="#63b8ff" points="930.6,-89.02 933.87,-78.94 925.03,-84.78 930.6,-89.02"/>
</a>
</g>
</g>
<!-- Node33&#45;&gt;Node17 -->
<g id="edge52_Node000033_Node000017" class="edge">
<title>Node33&#45;&gt;Node17</title>
<g id="a_edge52_Node000033_Node000017"><a xlink:title=" ">
<path fill="none" stroke="#63b8ff" d="M706.23,-169.84C692.64,-161.66 673.03,-149.86 657.3,-140.4"/>
<polygon fill="#63b8ff" stroke="#63b8ff" points="659.3,-137.52 648.93,-135.36 655.69,-143.51 659.3,-137.52"/>
</a>
</g>
</g>
<!-- Node33&#45;&gt;Node20 -->
<g id="edge54_Node000033_Node000020" class="edge">
<title>Node33&#45;&gt;Node20</title>
<g id="a_edge54_Node000033_Node000020"><a xlink:title=" ">
<path fill="none" stroke="#63b8ff" d="M685.56,-177.22C600.34,-171.39 392.21,-155.38 325.5,-134.25 307.16,-128.44 304.81,-121.91 287.5,-113.5 250.97,-95.75 238.71,-97.75 203.5,-77.5 178.3,-63.01 151.86,-42.6 134.41,-28.3"/>
<polygon fill="#63b8ff" stroke="#63b8ff" points="136.8,-25.73 126.87,-22.03 132.32,-31.11 136.8,-25.73"/>
</a>
</g>
</g>
<!-- Node33&#45;&gt;Node29 -->
<g id="edge58_Node000033_Node000029" class="edge">
<title>Node33&#45;&gt;Node29</title>
<g id="a_edge58_Node000033_Node000029"><a xlink:title=" ">
<path fill="none" stroke="#63b8ff" d="M741.45,-169.84C757.58,-161.51 781,-149.41 799.49,-139.86"/>
<polygon fill="#63b8ff" stroke="#63b8ff" points="801.09,-142.97 808.37,-135.27 797.88,-136.75 801.09,-142.97"/>
</a>
</g>
</g>
<!-- Node33&#45;&gt;Node31 -->
<g id="edge56_Node000033_Node000031" class="edge">
<title>Node33&#45;&gt;Node31</title>
<g id="a_edge56_Node000033_Node000031"><a xlink:title=" ">
<path fill="none" stroke="#63b8ff" d="M720.57,-169.96C717.54,-156.43 710.7,-131.49 698.5,-113.5 691.04,-102.5 680.33,-92.43 670.64,-84.58"/>
<polygon fill="#63b8ff" stroke="#63b8ff" points="673.07,-82.04 663.01,-78.71 668.8,-87.58 673.07,-82.04"/>
</a>
</g>
</g>
<!-- Node33&#45;&gt;Node32 -->
<g id="edge57_Node000033_Node000032" class="edge">
<title>Node33&#45;&gt;Node32</title>
<g id="a_edge57_Node000033_Node000032"><a xlink:title=" ">
<path fill="none" stroke="#63b8ff" d="M725.97,-170.01C729.14,-160.91 733.73,-146.81 736.5,-134.25 739.83,-119.16 742.13,-101.85 743.58,-88.72"/>
<polygon fill="#63b8ff" stroke="#63b8ff" points="747.02,-89.44 744.55,-79.13 740.06,-88.73 747.02,-89.44"/>
</a>
</g>
</g>
</g>
</svg>
