<?xml version="1.0" encoding="UTF-8" standalone="no"?>
<!DOCTYPE svg PUBLIC "-//W3C//DTD SVG 1.1//EN"
 "http://www.w3.org/Graphics/SVG/1.1/DTD/svg11.dtd">
<!-- Generated by graphviz version 12.1.1 (0)
 -->
<!-- Title: boards/atxmega&#45;a1u&#45;xpro/include/board.h Pages: 1 -->
<svg width="156pt" height="98pt"
 viewBox="0.00 0.00 156.12 98.25" xmlns="http://www.w3.org/2000/svg" xmlns:xlink="http://www.w3.org/1999/xlink">
<g id="graph0" class="graph" transform="scale(1 1) rotate(0) translate(4 94.25)">
<title>boards/atxmega&#45;a1u&#45;xpro/include/board.h</title>
<!-- Node1 -->
<g id="Node000001" class="node">
<title>Node1</title>
<g id="a_Node000001"><a xlink:title="Board specific definitions for the ATxmegaA1U Xplained Pro board.">
<polygon fill="#999999" stroke="#666666" points="121.88,-90.25 2.37,-90.25 2.37,-56.75 121.88,-56.75 121.88,-90.25"/>
<text text-anchor="start" x="10.38" y="-76.75" font-family="Helvetica,sans-Serif" font-size="10.00">boards/atxmega&#45;a1u</text>
<text text-anchor="middle" x="62.12" y="-64" font-family="Helvetica,sans-Serif" font-size="10.00">&#45;xpro/include/board.h</text>
</a>
</g>
</g>
<!-- Node2 -->
<g id="Node000002" class="node">
<title>Node2</title>
<g id="a_Node000002"><a xlink:title=" ">
<polygon fill="#e0e0e0" stroke="#999999" points="42.25,-20.75 0,-20.75 0,0 42.25,0 42.25,-20.75"/>
<text text-anchor="middle" x="21.12" y="-7.25" font-family="Helvetica,sans-Serif" font-size="10.00">cpu.h</text>
</a>
</g>
</g>
<!-- Node1&#45;&gt;Node2 -->
<g id="edge1_Node000001_Node000002" class="edge">
<title>Node1&#45;&gt;Node2</title>
<g id="a_edge1_Node000001_Node000002"><a xlink:title=" ">
<path fill="none" stroke="#63b8ff" d="M51.35,-56.44C46.02,-48.49 39.55,-38.84 33.96,-30.52"/>
<polygon fill="#63b8ff" stroke="#63b8ff" points="37.05,-28.83 28.57,-22.47 31.23,-32.73 37.05,-28.83"/>
</a>
</g>
</g>
<!-- Node3 -->
<g id="Node000003" class="node">
<title>Node3</title>
<g id="a_Node000003"><a xlink:href="units_8h.html" target="_top" xlink:title="Unit helper macros.">
<polygon fill="white" stroke="#666666" points="148.12,-20.75 60.12,-20.75 60.12,0 148.12,0 148.12,-20.75"/>
<text text-anchor="middle" x="104.12" y="-7.25" font-family="Helvetica,sans-Serif" font-size="10.00">macros/units.h</text>
</a>
</g>
</g>
<!-- Node1&#45;&gt;Node3 -->
<g id="edge2_Node000001_Node000003" class="edge">
<title>Node1&#45;&gt;Node3</title>
<g id="a_edge2_Node000001_Node000003"><a xlink:title=" ">
<path fill="none" stroke="#63b8ff" d="M73.16,-56.44C78.62,-48.49 85.25,-38.84 90.97,-30.52"/>
<polygon fill="#63b8ff" stroke="#63b8ff" points="93.73,-32.69 96.51,-22.46 87.96,-28.72 93.73,-32.69"/>
</a>
</g>
</g>
</g>
</svg>
