<?xml version="1.0" encoding="UTF-8" standalone="no"?>
<!DOCTYPE svg PUBLIC "-//W3C//DTD SVG 1.1//EN"
 "http://www.w3.org/Graphics/SVG/1.1/DTD/svg11.dtd">
<!-- Generated by graphviz version 12.1.1 (0)
 -->
<!-- Title: boards/atxmega&#45;a3bu&#45;xplained/include/board.h Pages: 1 -->
<svg width="164pt" height="98pt"
 viewBox="0.00 0.00 163.88 98.25" xmlns="http://www.w3.org/2000/svg" xmlns:xlink="http://www.w3.org/1999/xlink">
<g id="graph0" class="graph" transform="scale(1 1) rotate(0) translate(4 94.25)">
<title>boards/atxmega&#45;a3bu&#45;xplained/include/board.h</title>
<!-- Node1 -->
<g id="Node000001" class="node">
<title>Node1</title>
<g id="a_Node000001"><a xlink:title="Board specific definitions for the ATxmegaA3BU Xplained board.">
<polygon fill="#999999" stroke="#666666" points="139.75,-90.25 0,-90.25 0,-56.75 139.75,-56.75 139.75,-90.25"/>
<text text-anchor="start" x="8" y="-76.75" font-family="Helvetica,sans-Serif" font-size="10.00">boards/atxmega&#45;a3bu</text>
<text text-anchor="middle" x="69.88" y="-64" font-family="Helvetica,sans-Serif" font-size="10.00">&#45;xplained/include/board.h</text>
</a>
</g>
</g>
<!-- Node2 -->
<g id="Node000002" class="node">
<title>Node2</title>
<g id="a_Node000002"><a xlink:title=" ">
<polygon fill="#e0e0e0" stroke="#999999" points="50,-20.75 7.75,-20.75 7.75,0 50,0 50,-20.75"/>
<text text-anchor="middle" x="28.88" y="-7.25" font-family="Helvetica,sans-Serif" font-size="10.00">cpu.h</text>
</a>
</g>
</g>
<!-- Node1&#45;&gt;Node2 -->
<g id="edge1_Node000001_Node000002" class="edge">
<title>Node1&#45;&gt;Node2</title>
<g id="a_edge1_Node000001_Node000002"><a xlink:title=" ">
<path fill="none" stroke="#63b8ff" d="M59.1,-56.44C53.77,-48.49 47.3,-38.84 41.71,-30.52"/>
<polygon fill="#63b8ff" stroke="#63b8ff" points="44.8,-28.83 36.32,-22.47 38.98,-32.73 44.8,-28.83"/>
</a>
</g>
</g>
<!-- Node3 -->
<g id="Node000003" class="node">
<title>Node3</title>
<g id="a_Node000003"><a xlink:href="units_8h.html" target="_top" xlink:title="Unit helper macros.">
<polygon fill="white" stroke="#666666" points="155.88,-20.75 67.88,-20.75 67.88,0 155.88,0 155.88,-20.75"/>
<text text-anchor="middle" x="111.88" y="-7.25" font-family="Helvetica,sans-Serif" font-size="10.00">macros/units.h</text>
</a>
</g>
</g>
<!-- Node1&#45;&gt;Node3 -->
<g id="edge2_Node000001_Node000003" class="edge">
<title>Node1&#45;&gt;Node3</title>
<g id="a_edge2_Node000001_Node000003"><a xlink:title=" ">
<path fill="none" stroke="#63b8ff" d="M80.91,-56.44C86.37,-48.49 93,-38.84 98.72,-30.52"/>
<polygon fill="#63b8ff" stroke="#63b8ff" points="101.48,-32.69 104.26,-22.46 95.71,-28.72 101.48,-32.69"/>
</a>
</g>
</g>
</g>
</svg>
