<?xml version="1.0" encoding="UTF-8" standalone="no"?>
<!DOCTYPE svg PUBLIC "-//W3C//DTD SVG 1.1//EN"
 "http://www.w3.org/Graphics/SVG/1.1/DTD/svg11.dtd">
<!-- Generated by graphviz version 12.1.1 (0)
 -->
<!-- Title: cpu/avr8_common/include/irq_arch.h Pages: 1 -->
<svg width="947pt" height="439pt"
 viewBox="0.00 0.00 946.50 438.75" xmlns="http://www.w3.org/2000/svg" xmlns:xlink="http://www.w3.org/1999/xlink">
<g id="graph0" class="graph" transform="scale(1 1) rotate(0) translate(4 434.75)">
<title>cpu/avr8_common/include/irq_arch.h</title>
<!-- Node1 -->
<g id="Node000001" class="node">
<title>Node1</title>
<g id="a_Node000001"><a xlink:title="Implementation of the kernels irq interface.">
<polygon fill="#999999" stroke="#666666" points="818.62,-430.75 674.38,-430.75 674.38,-397.25 818.62,-397.25 818.62,-430.75"/>
<text text-anchor="start" x="682.38" y="-417.25" font-family="Helvetica,sans-Serif" font-size="10.00">cpu/avr8_common/include</text>
<text text-anchor="middle" x="746.5" y="-404.5" font-family="Helvetica,sans-Serif" font-size="10.00">/irq_arch.h</text>
</a>
</g>
</g>
<!-- Node2 -->
<g id="Node000002" class="node">
<title>Node2</title>
<g id="a_Node000002"><a xlink:title=" ">
<polygon fill="#e0e0e0" stroke="#999999" points="660,-134.25 599,-134.25 599,-113.5 660,-113.5 660,-134.25"/>
<text text-anchor="middle" x="629.5" y="-120.75" font-family="Helvetica,sans-Serif" font-size="10.00">stdbool.h</text>
</a>
</g>
</g>
<!-- Node1&#45;&gt;Node2 -->
<g id="edge1_Node000001_Node000002" class="edge">
<title>Node1&#45;&gt;Node2</title>
<g id="a_edge1_Node000001_Node000002"><a xlink:title=" ">
<path fill="none" stroke="#63b8ff" d="M799.5,-396.8C844.04,-379.52 900.5,-347.31 900.5,-295.12 900.5,-295.12 900.5,-295.12 900.5,-236.38 900.5,-138.5 747.47,-124.76 671.4,-123.98"/>
<polygon fill="#63b8ff" stroke="#63b8ff" points="671.85,-120.48 661.84,-123.95 671.83,-127.48 671.85,-120.48"/>
</a>
</g>
</g>
<!-- Node3 -->
<g id="Node000003" class="node">
<title>Node3</title>
<g id="a_Node000003"><a xlink:title=" ">
<polygon fill="#e0e0e0" stroke="#999999" points="286.88,-20.75 234.12,-20.75 234.12,0 286.88,0 286.88,-20.75"/>
<text text-anchor="middle" x="260.5" y="-7.25" font-family="Helvetica,sans-Serif" font-size="10.00">stdint.h</text>
</a>
</g>
</g>
<!-- Node1&#45;&gt;Node3 -->
<g id="edge2_Node000001_Node000003" class="edge">
<title>Node1&#45;&gt;Node3</title>
<g id="a_edge2_Node000001_Node000003"><a xlink:title=" ">
<path fill="none" stroke="#63b8ff" d="M819.09,-398.98C873.46,-383.77 938.5,-353.4 938.5,-295.12 938.5,-295.12 938.5,-295.12 938.5,-122.88 938.5,-57.46 440.81,-22.29 298.24,-13.56"/>
<polygon fill="#63b8ff" stroke="#63b8ff" points="298.78,-10.08 288.59,-12.97 298.36,-17.07 298.78,-10.08"/>
</a>
</g>
</g>
<!-- Node4 -->
<g id="Node000004" class="node">
<title>Node4</title>
<g id="a_Node000004"><a xlink:href="stdio_8h.html" target="_top" xlink:title="stdio wrapper to extend the C libs stdio">
<polygon fill="white" stroke="#666666" points="278,-304.5 229,-304.5 229,-283.75 278,-283.75 278,-304.5"/>
<text text-anchor="middle" x="253.5" y="-291" font-family="Helvetica,sans-Serif" font-size="10.00">stdio.h</text>
</a>
</g>
</g>
<!-- Node1&#45;&gt;Node4 -->
<g id="edge3_Node000001_Node000004" class="edge">
<title>Node1&#45;&gt;Node4</title>
<g id="a_edge3_Node000001_Node000004"><a xlink:title=" ">
<path fill="none" stroke="#63b8ff" d="M674.15,-397C585.63,-377.18 431,-341.8 289.37,-305.17"/>
<polygon fill="#63b8ff" stroke="#63b8ff" points="290.36,-301.81 279.8,-302.69 288.6,-308.59 290.36,-301.81"/>
</a>
</g>
</g>
<!-- Node15 -->
<g id="Node000015" class="node">
<title>Node15</title>
<g id="a_Node000015"><a xlink:href="avr8__common_2include_2cpu_8h.html" target="_top" xlink:title="Common implementations and headers for AVR&#45;8 family based micro&#45;controllers.">
<polygon fill="white" stroke="#666666" points="595.62,-361.25 553.38,-361.25 553.38,-340.5 595.62,-340.5 595.62,-361.25"/>
<text text-anchor="middle" x="574.5" y="-347.75" font-family="Helvetica,sans-Serif" font-size="10.00">cpu.h</text>
</a>
</g>
</g>
<!-- Node1&#45;&gt;Node15 -->
<g id="edge19_Node000001_Node000015" class="edge">
<title>Node1&#45;&gt;Node15</title>
<g id="a_edge19_Node000001_Node000015"><a xlink:title=" ">
<path fill="none" stroke="#63b8ff" d="M700.86,-396.78C671.08,-386.2 632.94,-372.64 606.39,-363.21"/>
<polygon fill="#63b8ff" stroke="#63b8ff" points="607.8,-360 597.21,-359.95 605.46,-366.59 607.8,-360"/>
</a>
</g>
</g>
<!-- Node5 -->
<g id="Node000005" class="node">
<title>Node5</title>
<g id="a_Node000005"><a xlink:href="flash__utils_8h.html" target="_top" xlink:title="Utility functions, macros, and types for read&#45;only memory.">
<polygon fill="white" stroke="#666666" points="291.12,-247.75 215.88,-247.75 215.88,-227 291.12,-227 291.12,-247.75"/>
<text text-anchor="middle" x="253.5" y="-234.25" font-family="Helvetica,sans-Serif" font-size="10.00">flash_utils.h</text>
</a>
</g>
</g>
<!-- Node4&#45;&gt;Node5 -->
<g id="edge4_Node000004_Node000005" class="edge">
<title>Node4&#45;&gt;Node5</title>
<g id="a_edge4_Node000004_Node000005"><a xlink:title=" ">
<path fill="none" stroke="#63b8ff" d="M248.18,-283.34C246.91,-276.72 246.49,-267.72 246.91,-259.52"/>
<polygon fill="#63b8ff" stroke="#63b8ff" points="250.39,-259.91 248.03,-249.58 243.43,-259.13 250.39,-259.91"/>
</a>
</g>
</g>
<!-- Node5&#45;&gt;Node4 -->
<g id="edge5_Node000005_Node000004" class="edge">
<title>Node5&#45;&gt;Node4</title>
<g id="a_edge5_Node000005_Node000004"><a xlink:title=" ">
<path fill="none" stroke="#63b8ff" d="M258.8,-248.08C260.1,-254.75 260.52,-263.88 260.08,-272.17"/>
<polygon fill="#63b8ff" stroke="#63b8ff" points="256.64,-271.5 258.99,-281.83 263.59,-272.29 256.64,-271.5"/>
</a>
</g>
</g>
<!-- Node6 -->
<g id="Node000006" class="node">
<title>Node6</title>
<g id="a_Node000006"><a xlink:title=" ">
<polygon fill="#e0e0e0" stroke="#999999" points="106.88,-191 54.12,-191 54.12,-170.25 106.88,-170.25 106.88,-191"/>
<text text-anchor="middle" x="80.5" y="-177.5" font-family="Helvetica,sans-Serif" font-size="10.00">string.h</text>
</a>
</g>
</g>
<!-- Node5&#45;&gt;Node6 -->
<g id="edge6_Node000005_Node000006" class="edge">
<title>Node5&#45;&gt;Node6</title>
<g id="a_edge6_Node000005_Node000006"><a xlink:title=" ">
<path fill="none" stroke="#63b8ff" d="M222.57,-226.59C193.31,-217.33 149.35,-203.41 118.08,-193.52"/>
<polygon fill="#63b8ff" stroke="#63b8ff" points="119.22,-190.21 108.63,-190.53 117.11,-196.88 119.22,-190.21"/>
</a>
</g>
</g>
<!-- Node7 -->
<g id="Node000007" class="node">
<title>Node7</title>
<g id="a_Node000007"><a xlink:title=" ">
<polygon fill="#e0e0e0" stroke="#999999" points="192.38,-191 124.62,-191 124.62,-170.25 192.38,-170.25 192.38,-191"/>
<text text-anchor="middle" x="158.5" y="-177.5" font-family="Helvetica,sans-Serif" font-size="10.00">cpu_conf.h</text>
</a>
</g>
</g>
<!-- Node5&#45;&gt;Node7 -->
<g id="edge7_Node000005_Node000007" class="edge">
<title>Node5&#45;&gt;Node7</title>
<g id="a_edge7_Node000005_Node000007"><a xlink:title=" ">
<path fill="none" stroke="#63b8ff" d="M236.52,-226.59C222.2,-218.33 201.46,-206.38 184.96,-196.88"/>
<polygon fill="#63b8ff" stroke="#63b8ff" points="187.06,-194.05 176.65,-192.08 183.56,-200.11 187.06,-194.05"/>
</a>
</g>
</g>
<!-- Node8 -->
<g id="Node000008" class="node">
<title>Node8</title>
<g id="a_Node000008"><a xlink:href="kernel__defines_8h.html" target="_top" xlink:title="Common macros and compiler attributes/pragmas configuration.">
<polygon fill="white" stroke="#666666" points="306.62,-191 210.38,-191 210.38,-170.25 306.62,-170.25 306.62,-191"/>
<text text-anchor="middle" x="258.5" y="-177.5" font-family="Helvetica,sans-Serif" font-size="10.00">kernel_defines.h</text>
</a>
</g>
</g>
<!-- Node5&#45;&gt;Node8 -->
<g id="edge8_Node000005_Node000008" class="edge">
<title>Node5&#45;&gt;Node8</title>
<g id="a_edge8_Node000005_Node000008"><a xlink:title=" ">
<path fill="none" stroke="#63b8ff" d="M254.39,-226.59C255,-219.97 255.82,-210.97 256.57,-202.77"/>
<polygon fill="#63b8ff" stroke="#63b8ff" points="260.05,-203.11 257.48,-192.84 253.08,-202.48 260.05,-203.11"/>
</a>
</g>
</g>
<!-- Node9 -->
<g id="Node000009" class="node">
<title>Node9</title>
<g id="a_Node000009"><a xlink:href="modules_8h.html" target="_top" xlink:title="Common macros and compiler attributes/pragmas configuration.">
<polygon fill="white" stroke="#666666" points="309,-134.25 242,-134.25 242,-113.5 309,-113.5 309,-134.25"/>
<text text-anchor="middle" x="275.5" y="-120.75" font-family="Helvetica,sans-Serif" font-size="10.00">modules.h</text>
</a>
</g>
</g>
<!-- Node8&#45;&gt;Node9 -->
<g id="edge9_Node000008_Node000009" class="edge">
<title>Node8&#45;&gt;Node9</title>
<g id="a_edge9_Node000008_Node000009"><a xlink:title=" ">
<path fill="none" stroke="#63b8ff" d="M261.54,-169.84C263.64,-163.06 266.52,-153.8 269.11,-145.44"/>
<polygon fill="#63b8ff" stroke="#63b8ff" points="272.42,-146.61 272.04,-136.02 265.73,-144.54 272.42,-146.61"/>
</a>
</g>
</g>
<!-- Node10 -->
<g id="Node000010" class="node">
<title>Node10</title>
<g id="a_Node000010"><a xlink:href="riot__version_8h.html" target="_top" xlink:title="Common macros and compiler attributes/pragmas configuration.">
<polygon fill="white" stroke="#666666" points="232.88,-77.5 150.12,-77.5 150.12,-56.75 232.88,-56.75 232.88,-77.5"/>
<text text-anchor="middle" x="191.5" y="-64" font-family="Helvetica,sans-Serif" font-size="10.00">riot_version.h</text>
</a>
</g>
</g>
<!-- Node8&#45;&gt;Node10 -->
<g id="edge10_Node000008_Node000010" class="edge">
<title>Node8&#45;&gt;Node10</title>
<g id="a_edge10_Node000008_Node000010"><a xlink:title=" ">
<path fill="none" stroke="#63b8ff" d="M221.55,-169.79C191.82,-161.04 153.56,-147.6 144.5,-134.25 132.89,-117.14 150.06,-97.9 166.81,-84.61"/>
<polygon fill="#63b8ff" stroke="#63b8ff" points="168.72,-87.55 174.67,-78.79 164.55,-81.93 168.72,-87.55"/>
</a>
</g>
</g>
<!-- Node11 -->
<g id="Node000011" class="node">
<title>Node11</title>
<g id="a_Node000011"><a xlink:href="compiler__hints_8h.html" target="_top" xlink:title="Common macros and compiler attributes/pragmas configuration.">
<polygon fill="white" stroke="#666666" points="97,-134.25 0,-134.25 0,-113.5 97,-113.5 97,-134.25"/>
<text text-anchor="middle" x="48.5" y="-120.75" font-family="Helvetica,sans-Serif" font-size="10.00">compiler_hints.h</text>
</a>
</g>
</g>
<!-- Node8&#45;&gt;Node11 -->
<g id="edge12_Node000008_Node000011" class="edge">
<title>Node8&#45;&gt;Node11</title>
<g id="a_edge12_Node000008_Node000011"><a xlink:title=" ">
<path fill="none" stroke="#63b8ff" d="M220.96,-169.84C186.27,-160.79 134.56,-147.31 96.81,-137.47"/>
<polygon fill="#63b8ff" stroke="#63b8ff" points="98.1,-134.19 87.54,-135.05 96.33,-140.96 98.1,-134.19"/>
</a>
</g>
</g>
<!-- Node13 -->
<g id="Node000013" class="node">
<title>Node13</title>
<g id="a_Node000013"><a xlink:href="container_8h.html" target="_top" xlink:title="Common macros and compiler attributes/pragmas configuration.">
<polygon fill="white" stroke="#666666" points="223.88,-134.25 153.12,-134.25 153.12,-113.5 223.88,-113.5 223.88,-134.25"/>
<text text-anchor="middle" x="188.5" y="-120.75" font-family="Helvetica,sans-Serif" font-size="10.00">container.h</text>
</a>
</g>
</g>
<!-- Node8&#45;&gt;Node13 -->
<g id="edge16_Node000008_Node000013" class="edge">
<title>Node8&#45;&gt;Node13</title>
<g id="a_edge16_Node000008_Node000013"><a xlink:title=" ">
<path fill="none" stroke="#63b8ff" d="M245.99,-169.84C235.93,-161.97 221.59,-150.75 209.74,-141.49"/>
<polygon fill="#63b8ff" stroke="#63b8ff" points="212.13,-138.91 202.1,-135.51 207.82,-144.43 212.13,-138.91"/>
</a>
</g>
</g>
<!-- Node10&#45;&gt;Node3 -->
<g id="edge11_Node000010_Node000003" class="edge">
<title>Node10&#45;&gt;Node3</title>
<g id="a_edge11_Node000010_Node000003"><a xlink:title=" ">
<path fill="none" stroke="#63b8ff" d="M203.84,-56.34C213.75,-48.47 227.89,-37.25 239.56,-27.99"/>
<polygon fill="#63b8ff" stroke="#63b8ff" points="241.43,-30.98 247.09,-22.02 237.08,-25.49 241.43,-30.98"/>
</a>
</g>
</g>
<!-- Node11&#45;&gt;Node3 -->
<g id="edge15_Node000011_Node000003" class="edge">
<title>Node11&#45;&gt;Node3</title>
<g id="a_edge15_Node000011_Node000003"><a xlink:title=" ">
<path fill="none" stroke="#63b8ff" d="M48.4,-113.25C48.8,-98.84 51.76,-71.74 67.5,-56.75 89.48,-35.82 172.77,-22.19 222.47,-15.74"/>
<polygon fill="#63b8ff" stroke="#63b8ff" points="222.74,-19.23 232.22,-14.51 221.86,-12.29 222.74,-19.23"/>
</a>
</g>
</g>
<!-- Node12 -->
<g id="Node000012" class="node">
<title>Node12</title>
<g id="a_Node000012"><a xlink:href="assert_8h.html" target="_top" xlink:title="POSIX.1&#45;2008 compliant version of the assert macro.">
<polygon fill="white" stroke="#666666" points="132,-77.5 77,-77.5 77,-56.75 132,-56.75 132,-77.5"/>
<text text-anchor="middle" x="104.5" y="-64" font-family="Helvetica,sans-Serif" font-size="10.00">assert.h</text>
</a>
</g>
</g>
<!-- Node11&#45;&gt;Node12 -->
<g id="edge13_Node000011_Node000012" class="edge">
<title>Node11&#45;&gt;Node12</title>
<g id="a_edge13_Node000011_Node000012"><a xlink:title=" ">
<path fill="none" stroke="#63b8ff" d="M58.51,-113.09C66.24,-105.53 77.13,-94.89 86.37,-85.85"/>
<polygon fill="#63b8ff" stroke="#63b8ff" points="88.79,-88.38 93.49,-78.89 83.9,-83.37 88.79,-88.38"/>
</a>
</g>
</g>
<!-- Node12&#45;&gt;Node3 -->
<g id="edge14_Node000012_Node000003" class="edge">
<title>Node12&#45;&gt;Node3</title>
<g id="a_edge14_Node000012_Node000003"><a xlink:title=" ">
<path fill="none" stroke="#63b8ff" d="M132.39,-56.34C157.69,-47.46 195.19,-34.3 223.08,-24.51"/>
<polygon fill="#63b8ff" stroke="#63b8ff" points="223.93,-27.92 232.21,-21.31 221.61,-21.31 223.93,-27.92"/>
</a>
</g>
</g>
<!-- Node13&#45;&gt;Node3 -->
<g id="edge18_Node000013_Node000003" class="edge">
<title>Node13&#45;&gt;Node3</title>
<g id="a_edge18_Node000013_Node000003"><a xlink:title=" ">
<path fill="none" stroke="#63b8ff" d="M204.15,-113.18C216.04,-105.04 231.94,-92.38 241.5,-77.5 250.3,-63.81 255.12,-45.95 257.7,-32.25"/>
<polygon fill="#63b8ff" stroke="#63b8ff" points="261.12,-32.99 259.25,-22.56 254.21,-31.88 261.12,-32.99"/>
</a>
</g>
</g>
<!-- Node14 -->
<g id="Node000014" class="node">
<title>Node14</title>
<g id="a_Node000014"><a xlink:title=" ">
<polygon fill="#e0e0e0" stroke="#999999" points="423,-77.5 368,-77.5 368,-56.75 423,-56.75 423,-77.5"/>
<text text-anchor="middle" x="395.5" y="-64" font-family="Helvetica,sans-Serif" font-size="10.00">stddef.h</text>
</a>
</g>
</g>
<!-- Node13&#45;&gt;Node14 -->
<g id="edge17_Node000013_Node000014" class="edge">
<title>Node13&#45;&gt;Node14</title>
<g id="a_edge17_Node000013_Node000014"><a xlink:title=" ">
<path fill="none" stroke="#63b8ff" d="M224.08,-113.46C261.12,-103.67 318.92,-88.38 357,-78.31"/>
<polygon fill="#63b8ff" stroke="#63b8ff" points="357.43,-81.82 366.2,-75.87 355.64,-75.05 357.43,-81.82"/>
</a>
</g>
</g>
<!-- Node15&#45;&gt;Node3 -->
<g id="edge21_Node000015_Node000003" class="edge">
<title>Node15&#45;&gt;Node3</title>
<g id="a_edge21_Node000015_Node000003"><a xlink:title=" ">
<path fill="none" stroke="#63b8ff" d="M577.5,-340.3C582.48,-325.96 593.8,-298.95 612.5,-283.75 652.41,-251.29 675.45,-268.55 722.5,-247.75 769.24,-227.09 796.78,-235.16 822.5,-191 827.14,-183.03 826.25,-178.68 822.5,-170.25 807.18,-135.82 792.14,-132.34 759.5,-113.5 605.71,-24.74 386.16,-12.39 298.64,-11.19"/>
<polygon fill="#63b8ff" stroke="#63b8ff" points="298.73,-7.69 288.7,-11.1 298.67,-14.69 298.73,-7.69"/>
</a>
</g>
</g>
<!-- Node15&#45;&gt;Node4 -->
<g id="edge20_Node000015_Node000004" class="edge">
<title>Node15&#45;&gt;Node4</title>
<g id="a_edge20_Node000015_Node000004"><a xlink:title=" ">
<path fill="none" stroke="#63b8ff" d="M553.02,-347.39C506.58,-341.83 393.23,-327.24 289.28,-304.91"/>
<polygon fill="#63b8ff" stroke="#63b8ff" points="290.28,-301.55 279.76,-302.84 288.79,-308.39 290.28,-301.55"/>
</a>
</g>
</g>
<!-- Node15&#45;&gt;Node7 -->
<g id="edge28_Node000015_Node000007" class="edge">
<title>Node15&#45;&gt;Node7</title>
<g id="a_edge28_Node000015_Node000007"><a xlink:title=" ">
<path fill="none" stroke="#63b8ff" d="M560.58,-340.17C522.72,-313.92 418.13,-242.47 379.5,-227 307.79,-198.28 282.65,-206.76 203.72,-191.37"/>
<polygon fill="#63b8ff" stroke="#63b8ff" points="204.74,-188 194.24,-189.44 203.35,-194.86 204.74,-188"/>
</a>
</g>
</g>
<!-- Node16 -->
<g id="Node000016" class="node">
<title>Node16</title>
<g id="a_Node000016"><a xlink:title=" ">
<polygon fill="#e0e0e0" stroke="#999999" points="707.38,-304.5 621.62,-304.5 621.62,-283.75 707.38,-283.75 707.38,-304.5"/>
<text text-anchor="middle" x="664.5" y="-291" font-family="Helvetica,sans-Serif" font-size="10.00">avr/interrupt.h</text>
</a>
</g>
</g>
<!-- Node15&#45;&gt;Node16 -->
<g id="edge22_Node000015_Node000016" class="edge">
<title>Node15&#45;&gt;Node16</title>
<g id="a_edge22_Node000015_Node000016"><a xlink:title=" ">
<path fill="none" stroke="#63b8ff" d="M590.59,-340.09C604.03,-331.91 623.43,-320.11 638.99,-310.65"/>
<polygon fill="#63b8ff" stroke="#63b8ff" points="640.53,-313.8 647.26,-305.62 636.89,-307.82 640.53,-313.8"/>
</a>
</g>
</g>
<!-- Node17 -->
<g id="Node000017" class="node">
<title>Node17</title>
<g id="a_Node000017"><a xlink:href="architecture_8h.html" target="_top" xlink:title="Platform&#45;independent access to architecture details.">
<polygon fill="white" stroke="#666666" points="713.25,-247.75 629.75,-247.75 629.75,-227 713.25,-227 713.25,-247.75"/>
<text text-anchor="middle" x="671.5" y="-234.25" font-family="Helvetica,sans-Serif" font-size="10.00">architecture.h</text>
</a>
</g>
</g>
<!-- Node15&#45;&gt;Node17 -->
<g id="edge23_Node000015_Node000017" class="edge">
<title>Node15&#45;&gt;Node17</title>
<g id="a_edge23_Node000015_Node000017"><a xlink:title=" ">
<path fill="none" stroke="#63b8ff" d="M572.49,-340.39C570.14,-326.64 567.9,-300.92 579.5,-283.75 589.31,-269.22 605.18,-259.16 621,-252.27"/>
<polygon fill="#63b8ff" stroke="#63b8ff" points="621.9,-255.68 629.91,-248.75 619.33,-249.17 621.9,-255.68"/>
</a>
</g>
</g>
<!-- Node21 -->
<g id="Node000021" class="node">
<title>Node21</title>
<g id="a_Node000021"><a xlink:title=" ">
<polygon fill="#e0e0e0" stroke="#999999" points="798,-304.5 725,-304.5 725,-283.75 798,-283.75 798,-304.5"/>
<text text-anchor="middle" x="761.5" y="-291" font-family="Helvetica,sans-Serif" font-size="10.00">cpu_clock.h</text>
</a>
</g>
</g>
<!-- Node15&#45;&gt;Node21 -->
<g id="edge29_Node000015_Node000021" class="edge">
<title>Node15&#45;&gt;Node21</title>
<g id="a_edge29_Node000015_Node000021"><a xlink:title=" ">
<path fill="none" stroke="#63b8ff" d="M595.95,-343.59C625.38,-334.98 678.96,-319.29 717.19,-308.1"/>
<polygon fill="#63b8ff" stroke="#63b8ff" points="717.96,-311.52 726.58,-305.35 716,-304.8 717.96,-311.52"/>
</a>
</g>
</g>
<!-- Node22 -->
<g id="Node000022" class="node">
<title>Node22</title>
<g id="a_Node000022"><a xlink:href="sched_8h.html" target="_top" xlink:title="Scheduler API definition.">
<polygon fill="white" stroke="#666666" points="503.25,-247.75 449.75,-247.75 449.75,-227 503.25,-227 503.25,-247.75"/>
<text text-anchor="middle" x="476.5" y="-234.25" font-family="Helvetica,sans-Serif" font-size="10.00">sched.h</text>
</a>
</g>
</g>
<!-- Node15&#45;&gt;Node22 -->
<g id="edge30_Node000015_Node000022" class="edge">
<title>Node15&#45;&gt;Node22</title>
<g id="a_edge30_Node000015_Node000022"><a xlink:title=" ">
<path fill="none" stroke="#63b8ff" d="M566.14,-340.37C549.88,-321.86 513.72,-280.72 492.63,-256.73"/>
<polygon fill="#63b8ff" stroke="#63b8ff" points="495.34,-254.51 486.11,-249.31 490.09,-259.13 495.34,-254.51"/>
</a>
</g>
</g>
<!-- Node26 -->
<g id="Node000026" class="node">
<title>Node26</title>
<g id="a_Node000026"><a xlink:title=" ">
<polygon fill="#e0e0e0" stroke="#999999" points="872.75,-304.5 816.25,-304.5 816.25,-283.75 872.75,-283.75 872.75,-304.5"/>
<text text-anchor="middle" x="844.5" y="-291" font-family="Helvetica,sans-Serif" font-size="10.00">thread.h</text>
</a>
</g>
</g>
<!-- Node15&#45;&gt;Node26 -->
<g id="edge39_Node000015_Node000026" class="edge">
<title>Node15&#45;&gt;Node26</title>
<g id="a_edge39_Node000015_Node000026"><a xlink:title=" ">
<path fill="none" stroke="#63b8ff" d="M596.11,-346.08C635.58,-339.07 722.21,-323.27 804.76,-305.02"/>
<polygon fill="#63b8ff" stroke="#63b8ff" points="805.38,-308.47 814.38,-302.88 803.86,-301.64 805.38,-308.47"/>
</a>
</g>
</g>
<!-- Node27 -->
<g id="Node000027" class="node">
<title>Node27</title>
<g id="a_Node000027"><a xlink:href="states__internal_8h.html" target="_top" xlink:title="States internal interface.">
<polygon fill="white" stroke="#666666" points="393.38,-304.5 295.62,-304.5 295.62,-283.75 393.38,-283.75 393.38,-304.5"/>
<text text-anchor="middle" x="344.5" y="-291" font-family="Helvetica,sans-Serif" font-size="10.00">states_internal.h</text>
</a>
</g>
</g>
<!-- Node15&#45;&gt;Node27 -->
<g id="edge40_Node000015_Node000027" class="edge">
<title>Node15&#45;&gt;Node27</title>
<g id="a_edge40_Node000015_Node000027"><a xlink:title=" ">
<path fill="none" stroke="#63b8ff" d="M553.27,-344.82C517.99,-336.42 446.26,-319.35 396.81,-307.58"/>
<polygon fill="#63b8ff" stroke="#63b8ff" points="397.7,-304.19 387.16,-305.28 396.08,-311 397.7,-304.19"/>
</a>
</g>
</g>
<!-- Node17&#45;&gt;Node3 -->
<g id="edge24_Node000017_Node000003" class="edge">
<title>Node17&#45;&gt;Node3</title>
<g id="a_edge24_Node000017_Node000003"><a xlink:title=" ">
<path fill="none" stroke="#63b8ff" d="M713.72,-231.62C761.65,-224.37 830.17,-207.28 805.5,-170.25 747.64,-83.41 412.6,-31.53 298.52,-16.19"/>
<polygon fill="#63b8ff" stroke="#63b8ff" points="299.14,-12.74 288.77,-14.9 298.22,-19.68 299.14,-12.74"/>
</a>
</g>
</g>
<!-- Node18 -->
<g id="Node000018" class="node">
<title>Node18</title>
<g id="a_Node000018"><a xlink:href="inttypes_8h.html" target="_top" xlink:title="Adds include for missing inttype definitions.">
<polygon fill="white" stroke="#666666" points="598.88,-191 534.12,-191 534.12,-170.25 598.88,-170.25 598.88,-191"/>
<text text-anchor="middle" x="566.5" y="-177.5" font-family="Helvetica,sans-Serif" font-size="10.00">inttypes.h</text>
</a>
</g>
</g>
<!-- Node17&#45;&gt;Node18 -->
<g id="edge25_Node000017_Node000018" class="edge">
<title>Node17&#45;&gt;Node18</title>
<g id="a_edge25_Node000017_Node000018"><a xlink:title=" ">
<path fill="none" stroke="#63b8ff" d="M652.73,-226.59C636.75,-218.26 613.55,-206.16 595.24,-196.61"/>
<polygon fill="#63b8ff" stroke="#63b8ff" points="596.94,-193.55 586.45,-192.03 593.7,-199.76 596.94,-193.55"/>
</a>
</g>
</g>
<!-- Node19 -->
<g id="Node000019" class="node">
<title>Node19</title>
<g id="a_Node000019"><a xlink:title=" ">
<polygon fill="#e0e0e0" stroke="#999999" points="796.88,-191 744.12,-191 744.12,-170.25 796.88,-170.25 796.88,-191"/>
<text text-anchor="middle" x="770.5" y="-177.5" font-family="Helvetica,sans-Serif" font-size="10.00">limits.h</text>
</a>
</g>
</g>
<!-- Node17&#45;&gt;Node19 -->
<g id="edge26_Node000017_Node000019" class="edge">
<title>Node17&#45;&gt;Node19</title>
<g id="a_edge26_Node000017_Node000019"><a xlink:title=" ">
<path fill="none" stroke="#63b8ff" d="M689.2,-226.59C704.12,-218.33 725.73,-206.38 742.92,-196.88"/>
<polygon fill="#63b8ff" stroke="#63b8ff" points="744.57,-199.96 751.63,-192.06 741.18,-193.84 744.57,-199.96"/>
</a>
</g>
</g>
<!-- Node20 -->
<g id="Node000020" class="node">
<title>Node20</title>
<g id="a_Node000020"><a xlink:title=" ">
<polygon fill="#e0e0e0" stroke="#999999" points="726.38,-191 616.62,-191 616.62,-170.25 726.38,-170.25 726.38,-191"/>
<text text-anchor="middle" x="671.5" y="-177.5" font-family="Helvetica,sans-Serif" font-size="10.00">architecture_arch.h</text>
</a>
</g>
</g>
<!-- Node17&#45;&gt;Node20 -->
<g id="edge27_Node000017_Node000020" class="edge">
<title>Node17&#45;&gt;Node20</title>
<g id="a_edge27_Node000017_Node000020"><a xlink:title=" ">
<path fill="none" stroke="#63b8ff" d="M671.5,-226.59C671.5,-219.97 671.5,-210.97 671.5,-202.77"/>
<polygon fill="#63b8ff" stroke="#63b8ff" points="675,-202.84 671.5,-192.84 668,-202.84 675,-202.84"/>
</a>
</g>
</g>
<!-- Node22&#45;&gt;Node8 -->
<g id="edge33_Node000022_Node000008" class="edge">
<title>Node22&#45;&gt;Node8</title>
<g id="a_edge33_Node000022_Node000008"><a xlink:title=" ">
<path fill="none" stroke="#63b8ff" d="M449.33,-229.55C414.16,-220.72 352.19,-205.15 308.43,-194.16"/>
<polygon fill="#63b8ff" stroke="#63b8ff" points="309.46,-190.82 298.91,-191.77 307.76,-197.6 309.46,-190.82"/>
</a>
</g>
</g>
<!-- Node22&#45;&gt;Node14 -->
<g id="edge31_Node000022_Node000014" class="edge">
<title>Node22&#45;&gt;Node14</title>
<g id="a_edge31_Node000022_Node000014"><a xlink:title=" ">
<path fill="none" stroke="#63b8ff" d="M457.21,-226.56C443.9,-218.75 426.96,-206.57 417.5,-191 398.24,-159.32 394.9,-115.1 394.8,-89.25"/>
<polygon fill="#63b8ff" stroke="#63b8ff" points="398.3,-89.44 394.94,-79.39 391.3,-89.34 398.3,-89.44"/>
</a>
</g>
</g>
<!-- Node22&#45;&gt;Node18 -->
<g id="edge32_Node000022_Node000018" class="edge">
<title>Node22&#45;&gt;Node18</title>
<g id="a_edge32_Node000022_Node000018"><a xlink:title=" ">
<path fill="none" stroke="#63b8ff" d="M492.59,-226.59C506.03,-218.41 525.43,-206.61 540.99,-197.15"/>
<polygon fill="#63b8ff" stroke="#63b8ff" points="542.53,-200.3 549.26,-192.12 538.89,-194.32 542.53,-200.3"/>
</a>
</g>
</g>
<!-- Node23 -->
<g id="Node000023" class="node">
<title>Node23</title>
<g id="a_Node000023"><a xlink:href="native__sched_8h.html" target="_top" xlink:title="Add definitions required on the native board.">
<polygon fill="white" stroke="#666666" points="516.25,-191 426.75,-191 426.75,-170.25 516.25,-170.25 516.25,-191"/>
<text text-anchor="middle" x="471.5" y="-177.5" font-family="Helvetica,sans-Serif" font-size="10.00">native_sched.h</text>
</a>
</g>
</g>
<!-- Node22&#45;&gt;Node23 -->
<g id="edge34_Node000022_Node000023" class="edge">
<title>Node22&#45;&gt;Node23</title>
<g id="a_edge34_Node000022_Node000023"><a xlink:title=" ">
<path fill="none" stroke="#63b8ff" d="M475.61,-226.59C475,-219.97 474.18,-210.97 473.43,-202.77"/>
<polygon fill="#63b8ff" stroke="#63b8ff" points="476.92,-202.48 472.52,-192.84 469.95,-203.11 476.92,-202.48"/>
</a>
</g>
</g>
<!-- Node24 -->
<g id="Node000024" class="node">
<title>Node24</title>
<g id="a_Node000024"><a xlink:href="clist_8h.html" target="_top" xlink:title="Circular linked list.">
<polygon fill="white" stroke="#666666" points="370.12,-191 324.88,-191 324.88,-170.25 370.12,-170.25 370.12,-191"/>
<text text-anchor="middle" x="347.5" y="-177.5" font-family="Helvetica,sans-Serif" font-size="10.00">clist.h</text>
</a>
</g>
</g>
<!-- Node22&#45;&gt;Node24 -->
<g id="edge35_Node000022_Node000024" class="edge">
<title>Node22&#45;&gt;Node24</title>
<g id="a_edge35_Node000022_Node000024"><a xlink:title=" ">
<path fill="none" stroke="#63b8ff" d="M453.44,-226.59C433.26,-218.02 403.7,-205.48 380.93,-195.81"/>
<polygon fill="#63b8ff" stroke="#63b8ff" points="382.33,-192.6 371.76,-191.92 379.59,-199.05 382.33,-192.6"/>
</a>
</g>
</g>
<!-- Node24&#45;&gt;Node2 -->
<g id="edge36_Node000024_Node000002" class="edge">
<title>Node24&#45;&gt;Node2</title>
<g id="a_edge36_Node000024_Node000002"><a xlink:title=" ">
<path fill="none" stroke="#63b8ff" d="M370.58,-175.14C418.03,-165.93 527.16,-144.75 587.49,-133.03"/>
<polygon fill="#63b8ff" stroke="#63b8ff" points="587.88,-136.52 597.03,-131.18 586.54,-129.65 587.88,-136.52"/>
</a>
</g>
</g>
<!-- Node24&#45;&gt;Node14 -->
<g id="edge37_Node000024_Node000014" class="edge">
<title>Node24&#45;&gt;Node14</title>
<g id="a_edge37_Node000024_Node000014"><a xlink:title=" ">
<path fill="none" stroke="#63b8ff" d="M354.82,-170C361.28,-161.13 370.57,-147.37 376.5,-134.25 383.13,-119.58 388.04,-102.03 391.21,-88.7"/>
<polygon fill="#63b8ff" stroke="#63b8ff" points="394.54,-89.85 393.3,-79.33 387.71,-88.33 394.54,-89.85"/>
</a>
</g>
</g>
<!-- Node25 -->
<g id="Node000025" class="node">
<title>Node25</title>
<g id="a_Node000025"><a xlink:href="list_8h.html" target="_top" xlink:title="Intrusive linked list.">
<polygon fill="white" stroke="#666666" points="367.5,-134.25 327.5,-134.25 327.5,-113.5 367.5,-113.5 367.5,-134.25"/>
<text text-anchor="middle" x="347.5" y="-120.75" font-family="Helvetica,sans-Serif" font-size="10.00">list.h</text>
</a>
</g>
</g>
<!-- Node24&#45;&gt;Node25 -->
<g id="edge38_Node000024_Node000025" class="edge">
<title>Node24&#45;&gt;Node25</title>
<g id="a_edge38_Node000024_Node000025"><a xlink:title=" ">
<path fill="none" stroke="#63b8ff" d="M347.5,-169.84C347.5,-163.22 347.5,-154.22 347.5,-146.02"/>
<polygon fill="#63b8ff" stroke="#63b8ff" points="351,-146.09 347.5,-136.09 344,-146.09 351,-146.09"/>
</a>
</g>
</g>
<!-- Node28 -->
<g id="Node000028" class="node">
<title>Node28</title>
<g id="a_Node000028"><a xlink:title=" ">
<polygon fill="#e0e0e0" stroke="#999999" points="370.88,-247.75 318.12,-247.75 318.12,-227 370.88,-227 370.88,-247.75"/>
<text text-anchor="middle" x="344.5" y="-234.25" font-family="Helvetica,sans-Serif" font-size="10.00">avr/io.h</text>
</a>
</g>
</g>
<!-- Node27&#45;&gt;Node28 -->
<g id="edge41_Node000027_Node000028" class="edge">
<title>Node27&#45;&gt;Node28</title>
<g id="a_edge41_Node000027_Node000028"><a xlink:title=" ">
<path fill="none" stroke="#63b8ff" d="M344.5,-283.34C344.5,-276.72 344.5,-267.72 344.5,-259.52"/>
<polygon fill="#63b8ff" stroke="#63b8ff" points="348,-259.59 344.5,-249.59 341,-259.59 348,-259.59"/>
</a>
</g>
</g>
</g>
</svg>
