<?xml version="1.0" encoding="UTF-8" standalone="no"?>
<!DOCTYPE svg PUBLIC "-//W3C//DTD SVG 1.1//EN"
 "http://www.w3.org/Graphics/SVG/1.1/DTD/svg11.dtd">
<!-- Generated by graphviz version 12.1.1 (0)
 -->
<!-- Title: boards/b&#45;l072z&#45;lrwan1/include/board.h Pages: 1 -->
<svg width="759pt" height="325pt"
 viewBox="0.00 0.00 758.75 325.25" xmlns="http://www.w3.org/2000/svg" xmlns:xlink="http://www.w3.org/1999/xlink">
<g id="graph0" class="graph" transform="scale(1 1) rotate(0) translate(4 321.25)">
<title>boards/b&#45;l072z&#45;lrwan1/include/board.h</title>
<!-- Node1 -->
<g id="Node000001" class="node">
<title>Node1</title>
<g id="a_Node000001"><a xlink:title="Board specific definitions for the ST B&#45;L072Z&#45;LRWAN1 board.">
<polygon fill="#999999" stroke="#666666" points="128.38,-317.25 3.63,-317.25 3.63,-283.75 128.38,-283.75 128.38,-317.25"/>
<text text-anchor="start" x="11.62" y="-303.75" font-family="Helvetica,sans-Serif" font-size="10.00">boards/b&#45;l072z&#45;lrwan1</text>
<text text-anchor="middle" x="66" y="-291" font-family="Helvetica,sans-Serif" font-size="10.00">/include/board.h</text>
</a>
</g>
</g>
<!-- Node2 -->
<g id="Node000002" class="node">
<title>Node2</title>
<g id="a_Node000002"><a xlink:title=" ">
<polygon fill="#e0e0e0" stroke="#999999" points="233.38,-20.75 180.62,-20.75 180.62,0 233.38,0 233.38,-20.75"/>
<text text-anchor="middle" x="207" y="-7.25" font-family="Helvetica,sans-Serif" font-size="10.00">stdint.h</text>
</a>
</g>
</g>
<!-- Node1&#45;&gt;Node2 -->
<g id="edge1_Node000001_Node000002" class="edge">
<title>Node1&#45;&gt;Node2</title>
<g id="a_edge1_Node000001_Node000002"><a xlink:title=" ">
<path fill="none" stroke="#63b8ff" d="M50.02,-283.53C30.49,-262.22 0,-222.43 0,-181.62 0,-181.62 0,-181.62 0,-122.88 0,-46.91 109.38,-22.47 169.12,-14.78"/>
<polygon fill="#63b8ff" stroke="#63b8ff" points="169.34,-18.28 178.86,-13.64 168.52,-11.33 169.34,-18.28"/>
</a>
</g>
</g>
<!-- Node3 -->
<g id="Node000003" class="node">
<title>Node3</title>
<g id="a_Node000003"><a xlink:title=" ">
<polygon fill="#e0e0e0" stroke="#999999" points="87.12,-247.75 44.88,-247.75 44.88,-227 87.12,-227 87.12,-247.75"/>
<text text-anchor="middle" x="66" y="-234.25" font-family="Helvetica,sans-Serif" font-size="10.00">cpu.h</text>
</a>
</g>
</g>
<!-- Node1&#45;&gt;Node3 -->
<g id="edge2_Node000001_Node000003" class="edge">
<title>Node1&#45;&gt;Node3</title>
<g id="a_edge2_Node000001_Node000003"><a xlink:title=" ">
<path fill="none" stroke="#63b8ff" d="M66,-283.44C66,-276.1 66,-267.32 66,-259.46"/>
<polygon fill="#63b8ff" stroke="#63b8ff" points="69.5,-259.73 66,-249.73 62.5,-259.73 69.5,-259.73"/>
</a>
</g>
</g>
<!-- Node4 -->
<g id="Node000004" class="node">
<title>Node4</title>
<g id="a_Node000004"><a xlink:href="stm32__leds_8h.html" target="_top" xlink:title="Common LED macros.">
<polygon fill="white" stroke="#666666" points="255.62,-247.75 174.38,-247.75 174.38,-227 255.62,-227 255.62,-247.75"/>
<text text-anchor="middle" x="215" y="-234.25" font-family="Helvetica,sans-Serif" font-size="10.00">stm32_leds.h</text>
</a>
</g>
</g>
<!-- Node1&#45;&gt;Node4 -->
<g id="edge3_Node000001_Node000004" class="edge">
<title>Node1&#45;&gt;Node4</title>
<g id="a_edge3_Node000001_Node000004"><a xlink:title=" ">
<path fill="none" stroke="#63b8ff" d="M105.54,-283.28C128.95,-273.68 158.32,-261.63 180.74,-252.43"/>
<polygon fill="#63b8ff" stroke="#63b8ff" points="181.81,-255.77 189.74,-248.74 179.16,-249.3 181.81,-255.77"/>
</a>
</g>
</g>
<!-- Node5 -->
<g id="Node000005" class="node">
<title>Node5</title>
<g id="a_Node000005"><a xlink:href="gpio__ll_8h.html" target="_top" xlink:title="Peripheral GPIO Low&#45;Level API.">
<polygon fill="white" stroke="#666666" points="512.5,-134.25 421.5,-134.25 421.5,-113.5 512.5,-113.5 512.5,-134.25"/>
<text text-anchor="middle" x="467" y="-120.75" font-family="Helvetica,sans-Serif" font-size="10.00">periph/gpio_ll.h</text>
</a>
</g>
</g>
<!-- Node4&#45;&gt;Node5 -->
<g id="edge4_Node000004_Node000005" class="edge">
<title>Node4&#45;&gt;Node5</title>
<g id="a_edge4_Node000004_Node000005"><a xlink:title=" ">
<path fill="none" stroke="#63b8ff" d="M236.92,-226.68C281.42,-206.99 382.51,-162.26 434.61,-139.21"/>
<polygon fill="#63b8ff" stroke="#63b8ff" points="435.84,-142.49 443.56,-135.24 433,-136.09 435.84,-142.49"/>
</a>
</g>
</g>
<!-- Node16 -->
<g id="Node000016" class="node">
<title>Node16</title>
<g id="a_Node000016"><a xlink:href="kernel__defines_8h.html" target="_top" xlink:title="Common macros and compiler attributes/pragmas configuration.">
<polygon fill="white" stroke="#666666" points="263.12,-191 166.88,-191 166.88,-170.25 263.12,-170.25 263.12,-191"/>
<text text-anchor="middle" x="215" y="-177.5" font-family="Helvetica,sans-Serif" font-size="10.00">kernel_defines.h</text>
</a>
</g>
</g>
<!-- Node4&#45;&gt;Node16 -->
<g id="edge20_Node000004_Node000016" class="edge">
<title>Node4&#45;&gt;Node16</title>
<g id="a_edge20_Node000004_Node000016"><a xlink:title=" ">
<path fill="none" stroke="#63b8ff" d="M215,-226.59C215,-219.97 215,-210.97 215,-202.77"/>
<polygon fill="#63b8ff" stroke="#63b8ff" points="218.5,-202.84 215,-192.84 211.5,-202.84 218.5,-202.84"/>
</a>
</g>
</g>
<!-- Node5&#45;&gt;Node2 -->
<g id="edge8_Node000005_Node000002" class="edge">
<title>Node5&#45;&gt;Node2</title>
<g id="a_edge8_Node000005_Node000002"><a xlink:title=" ">
<path fill="none" stroke="#63b8ff" d="M436.21,-113.05C410.62,-104.56 373.43,-91.48 342,-77.5 324.06,-69.52 320.55,-65.56 303,-56.75 281.79,-46.1 257.64,-34.69 238.86,-25.97"/>
<polygon fill="#63b8ff" stroke="#63b8ff" points="240.41,-22.83 229.87,-21.81 237.47,-29.19 240.41,-22.83"/>
</a>
</g>
</g>
<!-- Node6 -->
<g id="Node000006" class="node">
<title>Node6</title>
<g id="a_Node000006"><a xlink:href="assert_8h.html" target="_top" xlink:title="POSIX.1&#45;2008 compliant version of the assert macro.">
<polygon fill="white" stroke="#666666" points="293.5,-77.5 238.5,-77.5 238.5,-56.75 293.5,-56.75 293.5,-77.5"/>
<text text-anchor="middle" x="266" y="-64" font-family="Helvetica,sans-Serif" font-size="10.00">assert.h</text>
</a>
</g>
</g>
<!-- Node5&#45;&gt;Node6 -->
<g id="edge5_Node000005_Node000006" class="edge">
<title>Node5&#45;&gt;Node6</title>
<g id="a_edge5_Node000005_Node000006"><a xlink:title=" ">
<path fill="none" stroke="#63b8ff" d="M431.07,-113.09C395.45,-103.39 341.08,-88.58 304.58,-78.63"/>
<polygon fill="#63b8ff" stroke="#63b8ff" points="305.89,-75.36 295.32,-76.11 304.05,-82.12 305.89,-75.36"/>
</a>
</g>
</g>
<!-- Node7 -->
<g id="Node000007" class="node">
<title>Node7</title>
<g id="a_Node000007"><a xlink:title=" ">
<polygon fill="#e0e0e0" stroke="#999999" points="411.5,-77.5 350.5,-77.5 350.5,-56.75 411.5,-56.75 411.5,-77.5"/>
<text text-anchor="middle" x="381" y="-64" font-family="Helvetica,sans-Serif" font-size="10.00">stdbool.h</text>
</a>
</g>
</g>
<!-- Node5&#45;&gt;Node7 -->
<g id="edge7_Node000005_Node000007" class="edge">
<title>Node5&#45;&gt;Node7</title>
<g id="a_edge7_Node000005_Node000007"><a xlink:title=" ">
<path fill="none" stroke="#63b8ff" d="M451.62,-113.09C438.91,-104.99 420.6,-93.33 405.81,-83.92"/>
<polygon fill="#63b8ff" stroke="#63b8ff" points="407.83,-81.06 397.52,-78.64 404.07,-86.96 407.83,-81.06"/>
</a>
</g>
</g>
<!-- Node8 -->
<g id="Node000008" class="node">
<title>Node8</title>
<g id="a_Node000008"><a xlink:href="architecture_8h.html" target="_top" xlink:title="Platform&#45;independent access to architecture details.">
<polygon fill="white" stroke="#666666" points="512.75,-77.5 429.25,-77.5 429.25,-56.75 512.75,-56.75 512.75,-77.5"/>
<text text-anchor="middle" x="471" y="-64" font-family="Helvetica,sans-Serif" font-size="10.00">architecture.h</text>
</a>
</g>
</g>
<!-- Node5&#45;&gt;Node8 -->
<g id="edge9_Node000005_Node000008" class="edge">
<title>Node5&#45;&gt;Node8</title>
<g id="a_edge9_Node000005_Node000008"><a xlink:title=" ">
<path fill="none" stroke="#63b8ff" d="M467.72,-113.09C468.2,-106.47 468.86,-97.47 469.46,-89.27"/>
<polygon fill="#63b8ff" stroke="#63b8ff" points="472.94,-89.57 470.18,-79.34 465.96,-89.06 472.94,-89.57"/>
</a>
</g>
</g>
<!-- Node12 -->
<g id="Node000012" class="node">
<title>Node12</title>
<g id="a_Node000012"><a xlink:href="drivers_2include_2periph_2gpio_8h.html" target="_top" xlink:title="Low&#45;level GPIO peripheral driver interface definitions.">
<polygon fill="white" stroke="#666666" points="610.88,-77.5 531.12,-77.5 531.12,-56.75 610.88,-56.75 610.88,-77.5"/>
<text text-anchor="middle" x="571" y="-64" font-family="Helvetica,sans-Serif" font-size="10.00">periph/gpio.h</text>
</a>
</g>
</g>
<!-- Node5&#45;&gt;Node12 -->
<g id="edge14_Node000005_Node000012" class="edge">
<title>Node5&#45;&gt;Node12</title>
<g id="a_edge14_Node000005_Node000012"><a xlink:title=" ">
<path fill="none" stroke="#63b8ff" d="M485.59,-113.09C501.42,-104.76 524.4,-92.66 542.54,-83.11"/>
<polygon fill="#63b8ff" stroke="#63b8ff" points="544.01,-86.29 551.23,-78.53 540.75,-80.09 544.01,-86.29"/>
</a>
</g>
</g>
<!-- Node13 -->
<g id="Node000013" class="node">
<title>Node13</title>
<g id="a_Node000013"><a xlink:title=" ">
<polygon fill="#e0e0e0" stroke="#999999" points="710.12,-20.75 631.88,-20.75 631.88,0 710.12,0 710.12,-20.75"/>
<text text-anchor="middle" x="671" y="-7.25" font-family="Helvetica,sans-Serif" font-size="10.00">periph_cpu.h</text>
</a>
</g>
</g>
<!-- Node5&#45;&gt;Node13 -->
<g id="edge18_Node000005_Node000013" class="edge">
<title>Node5&#45;&gt;Node13</title>
<g id="a_edge18_Node000005_Node000013"><a xlink:title=" ">
<path fill="none" stroke="#63b8ff" d="M512.72,-116.94C544.95,-111.03 587.9,-99.51 620,-77.5 637.51,-65.49 651.68,-45.58 660.6,-30.74"/>
<polygon fill="#63b8ff" stroke="#63b8ff" points="663.48,-32.75 665.39,-22.33 657.4,-29.29 663.48,-32.75"/>
</a>
</g>
</g>
<!-- Node15 -->
<g id="Node000015" class="node">
<title>Node15</title>
<g id="a_Node000015"><a xlink:title=" ">
<polygon fill="#e0e0e0" stroke="#999999" points="750.75,-77.5 667.25,-77.5 667.25,-56.75 750.75,-56.75 750.75,-77.5"/>
<text text-anchor="middle" x="709" y="-64" font-family="Helvetica,sans-Serif" font-size="10.00">gpio_ll_arch.h</text>
</a>
</g>
</g>
<!-- Node5&#45;&gt;Node15 -->
<g id="edge19_Node000005_Node000015" class="edge">
<title>Node5&#45;&gt;Node15</title>
<g id="a_edge19_Node000005_Node000015"><a xlink:title=" ">
<path fill="none" stroke="#63b8ff" d="M510.54,-113.02C551.35,-103.79 612.44,-89.97 656.05,-80.1"/>
<polygon fill="#63b8ff" stroke="#63b8ff" points="656.56,-83.58 665.54,-77.96 655.02,-76.75 656.56,-83.58"/>
</a>
</g>
</g>
<!-- Node6&#45;&gt;Node2 -->
<g id="edge6_Node000006_Node000002" class="edge">
<title>Node6&#45;&gt;Node2</title>
<g id="a_edge6_Node000006_Node000002"><a xlink:title=" ">
<path fill="none" stroke="#63b8ff" d="M255.45,-56.34C247.23,-48.71 235.6,-37.92 225.8,-28.82"/>
<polygon fill="#63b8ff" stroke="#63b8ff" points="228.28,-26.34 218.57,-22.11 223.52,-31.48 228.28,-26.34"/>
</a>
</g>
</g>
<!-- Node8&#45;&gt;Node2 -->
<g id="edge10_Node000008_Node000002" class="edge">
<title>Node8&#45;&gt;Node2</title>
<g id="a_edge10_Node000008_Node000002"><a xlink:title=" ">
<path fill="none" stroke="#63b8ff" d="M429.21,-58.11C377.72,-48.19 292.16,-31.53 244.63,-20.99"/>
<polygon fill="#63b8ff" stroke="#63b8ff" points="245.7,-17.64 235.17,-18.85 244.15,-24.47 245.7,-17.64"/>
</a>
</g>
</g>
<!-- Node9 -->
<g id="Node000009" class="node">
<title>Node9</title>
<g id="a_Node000009"><a xlink:href="inttypes_8h.html" target="_top" xlink:title="Adds include for missing inttype definitions.">
<polygon fill="white" stroke="#666666" points="316.38,-20.75 251.62,-20.75 251.62,0 316.38,0 316.38,-20.75"/>
<text text-anchor="middle" x="284" y="-7.25" font-family="Helvetica,sans-Serif" font-size="10.00">inttypes.h</text>
</a>
</g>
</g>
<!-- Node8&#45;&gt;Node9 -->
<g id="edge11_Node000008_Node000009" class="edge">
<title>Node8&#45;&gt;Node9</title>
<g id="a_edge11_Node000008_Node000009"><a xlink:title=" ">
<path fill="none" stroke="#63b8ff" d="M437.57,-56.34C406.89,-47.36 361.26,-34 327.71,-24.17"/>
<polygon fill="#63b8ff" stroke="#63b8ff" points="328.86,-20.86 318.28,-21.41 326.89,-27.58 328.86,-20.86"/>
</a>
</g>
</g>
<!-- Node10 -->
<g id="Node000010" class="node">
<title>Node10</title>
<g id="a_Node000010"><a xlink:title=" ">
<polygon fill="#e0e0e0" stroke="#999999" points="514.38,-20.75 461.62,-20.75 461.62,0 514.38,0 514.38,-20.75"/>
<text text-anchor="middle" x="488" y="-7.25" font-family="Helvetica,sans-Serif" font-size="10.00">limits.h</text>
</a>
</g>
</g>
<!-- Node8&#45;&gt;Node10 -->
<g id="edge12_Node000008_Node000010" class="edge">
<title>Node8&#45;&gt;Node10</title>
<g id="a_edge12_Node000008_Node000010"><a xlink:title=" ">
<path fill="none" stroke="#63b8ff" d="M474.04,-56.34C476.14,-49.56 479.02,-40.3 481.61,-31.94"/>
<polygon fill="#63b8ff" stroke="#63b8ff" points="484.92,-33.11 484.54,-22.52 478.23,-31.04 484.92,-33.11"/>
</a>
</g>
</g>
<!-- Node11 -->
<g id="Node000011" class="node">
<title>Node11</title>
<g id="a_Node000011"><a xlink:title=" ">
<polygon fill="#e0e0e0" stroke="#999999" points="443.88,-20.75 334.12,-20.75 334.12,0 443.88,0 443.88,-20.75"/>
<text text-anchor="middle" x="389" y="-7.25" font-family="Helvetica,sans-Serif" font-size="10.00">architecture_arch.h</text>
</a>
</g>
</g>
<!-- Node8&#45;&gt;Node11 -->
<g id="edge13_Node000008_Node000011" class="edge">
<title>Node8&#45;&gt;Node11</title>
<g id="a_edge13_Node000008_Node000011"><a xlink:title=" ">
<path fill="none" stroke="#63b8ff" d="M456.34,-56.34C444.33,-48.32 427.09,-36.81 413.06,-27.44"/>
<polygon fill="#63b8ff" stroke="#63b8ff" points="415.05,-24.56 404.79,-21.92 411.16,-30.38 415.05,-24.56"/>
</a>
</g>
</g>
<!-- Node12&#45;&gt;Node10 -->
<g id="edge15_Node000012_Node000010" class="edge">
<title>Node12&#45;&gt;Node10</title>
<g id="a_edge15_Node000012_Node000010"><a xlink:title=" ">
<path fill="none" stroke="#63b8ff" d="M556.16,-56.34C543.89,-48.24 526.21,-36.58 511.94,-27.17"/>
<polygon fill="#63b8ff" stroke="#63b8ff" points="514.25,-24.5 503.97,-21.91 510.39,-30.34 514.25,-24.5"/>
</a>
</g>
</g>
<!-- Node12&#45;&gt;Node13 -->
<g id="edge16_Node000012_Node000013" class="edge">
<title>Node12&#45;&gt;Node13</title>
<g id="a_edge16_Node000012_Node000013"><a xlink:title=" ">
<path fill="none" stroke="#63b8ff" d="M588.88,-56.34C604.09,-48.01 626.19,-35.91 643.63,-26.36"/>
<polygon fill="#63b8ff" stroke="#63b8ff" points="644.86,-29.68 651.95,-21.81 641.5,-23.54 644.86,-29.68"/>
</a>
</g>
</g>
<!-- Node14 -->
<g id="Node000014" class="node">
<title>Node14</title>
<g id="a_Node000014"><a xlink:title=" ">
<polygon fill="#e0e0e0" stroke="#999999" points="613.62,-20.75 532.38,-20.75 532.38,0 613.62,0 613.62,-20.75"/>
<text text-anchor="middle" x="573" y="-7.25" font-family="Helvetica,sans-Serif" font-size="10.00">periph_conf.h</text>
</a>
</g>
</g>
<!-- Node12&#45;&gt;Node14 -->
<g id="edge17_Node000012_Node000014" class="edge">
<title>Node12&#45;&gt;Node14</title>
<g id="a_edge17_Node000012_Node000014"><a xlink:title=" ">
<path fill="none" stroke="#63b8ff" d="M571.36,-56.34C571.6,-49.72 571.93,-40.72 572.23,-32.52"/>
<polygon fill="#63b8ff" stroke="#63b8ff" points="575.72,-32.71 572.59,-22.59 568.73,-32.46 575.72,-32.71"/>
</a>
</g>
</g>
<!-- Node17 -->
<g id="Node000017" class="node">
<title>Node17</title>
<g id="a_Node000017"><a xlink:href="modules_8h.html" target="_top" xlink:title="Common macros and compiler attributes/pragmas configuration.">
<polygon fill="white" stroke="#666666" points="399.5,-134.25 332.5,-134.25 332.5,-113.5 399.5,-113.5 399.5,-134.25"/>
<text text-anchor="middle" x="366" y="-120.75" font-family="Helvetica,sans-Serif" font-size="10.00">modules.h</text>
</a>
</g>
</g>
<!-- Node16&#45;&gt;Node17 -->
<g id="edge21_Node000016_Node000017" class="edge">
<title>Node16&#45;&gt;Node17</title>
<g id="a_edge21_Node000016_Node000017"><a xlink:title=" ">
<path fill="none" stroke="#63b8ff" d="M242,-169.84C266.08,-161.11 301.58,-148.23 328.43,-138.5"/>
<polygon fill="#63b8ff" stroke="#63b8ff" points="329.35,-141.89 337.56,-135.19 326.97,-135.3 329.35,-141.89"/>
</a>
</g>
</g>
<!-- Node18 -->
<g id="Node000018" class="node">
<title>Node18</title>
<g id="a_Node000018"><a xlink:href="riot__version_8h.html" target="_top" xlink:title="Common macros and compiler attributes/pragmas configuration.">
<polygon fill="white" stroke="#666666" points="110.38,-134.25 27.62,-134.25 27.62,-113.5 110.38,-113.5 110.38,-134.25"/>
<text text-anchor="middle" x="69" y="-120.75" font-family="Helvetica,sans-Serif" font-size="10.00">riot_version.h</text>
</a>
</g>
</g>
<!-- Node16&#45;&gt;Node18 -->
<g id="edge22_Node000016_Node000018" class="edge">
<title>Node16&#45;&gt;Node18</title>
<g id="a_edge22_Node000016_Node000018"><a xlink:title=" ">
<path fill="none" stroke="#63b8ff" d="M188.9,-169.84C165.65,-161.12 131.38,-148.27 105.43,-138.54"/>
<polygon fill="#63b8ff" stroke="#63b8ff" points="106.89,-135.34 96.29,-135.11 104.43,-141.9 106.89,-135.34"/>
</a>
</g>
</g>
<!-- Node19 -->
<g id="Node000019" class="node">
<title>Node19</title>
<g id="a_Node000019"><a xlink:href="compiler__hints_8h.html" target="_top" xlink:title="Common macros and compiler attributes/pragmas configuration.">
<polygon fill="white" stroke="#666666" points="314.5,-134.25 217.5,-134.25 217.5,-113.5 314.5,-113.5 314.5,-134.25"/>
<text text-anchor="middle" x="266" y="-120.75" font-family="Helvetica,sans-Serif" font-size="10.00">compiler_hints.h</text>
</a>
</g>
</g>
<!-- Node16&#45;&gt;Node19 -->
<g id="edge24_Node000016_Node000019" class="edge">
<title>Node16&#45;&gt;Node19</title>
<g id="a_edge24_Node000016_Node000019"><a xlink:title=" ">
<path fill="none" stroke="#63b8ff" d="M224.12,-169.84C231.08,-162.36 240.87,-151.86 249.23,-142.88"/>
<polygon fill="#63b8ff" stroke="#63b8ff" points="251.67,-145.39 255.93,-135.69 246.55,-140.62 251.67,-145.39"/>
</a>
</g>
</g>
<!-- Node20 -->
<g id="Node000020" class="node">
<title>Node20</title>
<g id="a_Node000020"><a xlink:href="container_8h.html" target="_top" xlink:title="Common macros and compiler attributes/pragmas configuration.">
<polygon fill="white" stroke="#666666" points="199.38,-134.25 128.62,-134.25 128.62,-113.5 199.38,-113.5 199.38,-134.25"/>
<text text-anchor="middle" x="164" y="-120.75" font-family="Helvetica,sans-Serif" font-size="10.00">container.h</text>
</a>
</g>
</g>
<!-- Node16&#45;&gt;Node20 -->
<g id="edge27_Node000016_Node000020" class="edge">
<title>Node16&#45;&gt;Node20</title>
<g id="a_edge27_Node000016_Node000020"><a xlink:title=" ">
<path fill="none" stroke="#63b8ff" d="M205.88,-169.84C198.92,-162.36 189.13,-151.86 180.77,-142.88"/>
<polygon fill="#63b8ff" stroke="#63b8ff" points="183.45,-140.62 174.07,-135.69 178.33,-145.39 183.45,-140.62"/>
</a>
</g>
</g>
<!-- Node18&#45;&gt;Node2 -->
<g id="edge23_Node000018_Node000002" class="edge">
<title>Node18&#45;&gt;Node2</title>
<g id="a_edge23_Node000018_Node000002"><a xlink:title=" ">
<path fill="none" stroke="#63b8ff" d="M67.6,-113.11C66.16,-99.01 65.7,-72.87 79,-56.75 101.06,-30.02 139.99,-19.03 169.14,-14.51"/>
<polygon fill="#63b8ff" stroke="#63b8ff" points="169.22,-18.03 178.67,-13.24 168.29,-11.1 169.22,-18.03"/>
</a>
</g>
</g>
<!-- Node19&#45;&gt;Node2 -->
<g id="edge26_Node000019_Node000002" class="edge">
<title>Node19&#45;&gt;Node2</title>
<g id="a_edge26_Node000019_Node000002"><a xlink:title=" ">
<path fill="none" stroke="#63b8ff" d="M256.65,-113.13C248.67,-104.38 237.36,-90.89 230,-77.5 222.11,-63.15 216.15,-45.58 212.28,-32.17"/>
<polygon fill="#63b8ff" stroke="#63b8ff" points="215.7,-31.42 209.71,-22.68 208.95,-33.25 215.7,-31.42"/>
</a>
</g>
</g>
<!-- Node19&#45;&gt;Node6 -->
<g id="edge25_Node000019_Node000006" class="edge">
<title>Node19&#45;&gt;Node6</title>
<g id="a_edge25_Node000019_Node000006"><a xlink:title=" ">
<path fill="none" stroke="#63b8ff" d="M266,-113.09C266,-106.47 266,-97.47 266,-89.27"/>
<polygon fill="#63b8ff" stroke="#63b8ff" points="269.5,-89.34 266,-79.34 262.5,-89.34 269.5,-89.34"/>
</a>
</g>
</g>
<!-- Node20&#45;&gt;Node2 -->
<g id="edge29_Node000020_Node000002" class="edge">
<title>Node20&#45;&gt;Node2</title>
<g id="a_edge29_Node000020_Node000002"><a xlink:title=" ">
<path fill="none" stroke="#63b8ff" d="M167.67,-113.37C174.61,-95.36 189.83,-55.89 199.17,-31.68"/>
<polygon fill="#63b8ff" stroke="#63b8ff" points="202.34,-33.18 202.68,-22.59 195.81,-30.66 202.34,-33.18"/>
</a>
</g>
</g>
<!-- Node21 -->
<g id="Node000021" class="node">
<title>Node21</title>
<g id="a_Node000021"><a xlink:title=" ">
<polygon fill="#e0e0e0" stroke="#999999" points="143.5,-77.5 88.5,-77.5 88.5,-56.75 143.5,-56.75 143.5,-77.5"/>
<text text-anchor="middle" x="116" y="-64" font-family="Helvetica,sans-Serif" font-size="10.00">stddef.h</text>
</a>
</g>
</g>
<!-- Node20&#45;&gt;Node21 -->
<g id="edge28_Node000020_Node000021" class="edge">
<title>Node20&#45;&gt;Node21</title>
<g id="a_edge28_Node000020_Node000021"><a xlink:title=" ">
<path fill="none" stroke="#63b8ff" d="M155.42,-113.09C148.93,-105.69 139.85,-95.32 132.03,-86.41"/>
<polygon fill="#63b8ff" stroke="#63b8ff" points="134.73,-84.18 125.5,-78.97 129.47,-88.79 134.73,-84.18"/>
</a>
</g>
</g>
</g>
</svg>
