<?xml version="1.0" encoding="UTF-8" standalone="no"?>
<!DOCTYPE svg PUBLIC "-//W3C//DTD SVG 1.1//EN"
 "http://www.w3.org/Graphics/SVG/1.1/DTD/svg11.dtd">
<!-- Generated by graphviz version 12.1.1 (0)
 -->
<!-- Title: boards/bastwan/include/board.h Pages: 1 -->
<svg width="257pt" height="155pt"
 viewBox="0.00 0.00 256.50 155.00" xmlns="http://www.w3.org/2000/svg" xmlns:xlink="http://www.w3.org/1999/xlink">
<g id="graph0" class="graph" transform="scale(1 1) rotate(0) translate(4 151)">
<title>boards/bastwan/include/board.h</title>
<!-- Node1 -->
<g id="Node000001" class="node">
<title>Node1</title>
<g id="a_Node000001"><a xlink:title="Support for the BASTWAN SAM R34 board.">
<polygon fill="#999999" stroke="#666666" points="178.12,-147 46.62,-147 46.62,-113.5 178.12,-113.5 178.12,-147"/>
<text text-anchor="start" x="54.62" y="-133.5" font-family="Helvetica,sans-Serif" font-size="10.00">boards/bastwan/include</text>
<text text-anchor="middle" x="112.38" y="-120.75" font-family="Helvetica,sans-Serif" font-size="10.00">/board.h</text>
</a>
</g>
</g>
<!-- Node2 -->
<g id="Node000002" class="node">
<title>Node2</title>
<g id="a_Node000002"><a xlink:title=" ">
<polygon fill="#e0e0e0" stroke="#999999" points="54.5,-77.5 12.25,-77.5 12.25,-56.75 54.5,-56.75 54.5,-77.5"/>
<text text-anchor="middle" x="33.38" y="-64" font-family="Helvetica,sans-Serif" font-size="10.00">cpu.h</text>
</a>
</g>
</g>
<!-- Node1&#45;&gt;Node2 -->
<g id="edge1_Node000001_Node000002" class="edge">
<title>Node1&#45;&gt;Node2</title>
<g id="a_edge1_Node000001_Node000002"><a xlink:title=" ">
<path fill="none" stroke="#63b8ff" d="M91.62,-113.19C80.33,-104.46 66.39,-93.67 54.97,-84.84"/>
<polygon fill="#63b8ff" stroke="#63b8ff" points="57.34,-82.24 47.29,-78.89 53.06,-87.78 57.34,-82.24"/>
</a>
</g>
</g>
<!-- Node3 -->
<g id="Node000003" class="node">
<title>Node3</title>
<g id="a_Node000003"><a xlink:href="drivers_2include_2periph_2gpio_8h.html" target="_top" xlink:title="Low&#45;level GPIO peripheral driver interface definitions.">
<polygon fill="white" stroke="#666666" points="152.25,-77.5 72.5,-77.5 72.5,-56.75 152.25,-56.75 152.25,-77.5"/>
<text text-anchor="middle" x="112.38" y="-64" font-family="Helvetica,sans-Serif" font-size="10.00">periph/gpio.h</text>
</a>
</g>
</g>
<!-- Node1&#45;&gt;Node3 -->
<g id="edge2_Node000001_Node000003" class="edge">
<title>Node1&#45;&gt;Node3</title>
<g id="a_edge2_Node000001_Node000003"><a xlink:title=" ">
<path fill="none" stroke="#63b8ff" d="M112.38,-113.19C112.38,-105.85 112.38,-97.07 112.38,-89.21"/>
<polygon fill="#63b8ff" stroke="#63b8ff" points="115.88,-89.48 112.38,-79.48 108.88,-89.48 115.88,-89.48"/>
</a>
</g>
</g>
<!-- Node7 -->
<g id="Node000007" class="node">
<title>Node7</title>
<g id="a_Node000007"><a xlink:href="pm_8h.html" target="_top" xlink:title="Power management interface.">
<polygon fill="white" stroke="#666666" points="245.62,-77.5 171.12,-77.5 171.12,-56.75 245.62,-56.75 245.62,-77.5"/>
<text text-anchor="middle" x="208.38" y="-64" font-family="Helvetica,sans-Serif" font-size="10.00">periph/pm.h</text>
</a>
</g>
</g>
<!-- Node1&#45;&gt;Node7 -->
<g id="edge6_Node000001_Node000007" class="edge">
<title>Node1&#45;&gt;Node7</title>
<g id="a_edge6_Node000001_Node000007"><a xlink:title=" ">
<path fill="none" stroke="#63b8ff" d="M137.85,-113.03C151.97,-104.04 169.46,-92.9 183.49,-83.97"/>
<polygon fill="#63b8ff" stroke="#63b8ff" points="185.17,-87.05 191.72,-78.73 181.41,-81.15 185.17,-87.05"/>
</a>
</g>
</g>
<!-- Node4 -->
<g id="Node000004" class="node">
<title>Node4</title>
<g id="a_Node000004"><a xlink:title=" ">
<polygon fill="#e0e0e0" stroke="#999999" points="52.75,-20.75 0,-20.75 0,0 52.75,0 52.75,-20.75"/>
<text text-anchor="middle" x="26.38" y="-7.25" font-family="Helvetica,sans-Serif" font-size="10.00">limits.h</text>
</a>
</g>
</g>
<!-- Node3&#45;&gt;Node4 -->
<g id="edge3_Node000003_Node000004" class="edge">
<title>Node3&#45;&gt;Node4</title>
<g id="a_edge3_Node000003_Node000004"><a xlink:title=" ">
<path fill="none" stroke="#63b8ff" d="M97,-56.34C84.28,-48.24 65.97,-36.58 51.18,-27.17"/>
<polygon fill="#63b8ff" stroke="#63b8ff" points="53.21,-24.31 42.89,-21.89 49.45,-30.21 53.21,-24.31"/>
</a>
</g>
</g>
<!-- Node5 -->
<g id="Node000005" class="node">
<title>Node5</title>
<g id="a_Node000005"><a xlink:title=" ">
<polygon fill="#e0e0e0" stroke="#999999" points="248.5,-20.75 170.25,-20.75 170.25,0 248.5,0 248.5,-20.75"/>
<text text-anchor="middle" x="209.38" y="-7.25" font-family="Helvetica,sans-Serif" font-size="10.00">periph_cpu.h</text>
</a>
</g>
</g>
<!-- Node3&#45;&gt;Node5 -->
<g id="edge4_Node000003_Node000005" class="edge">
<title>Node3&#45;&gt;Node5</title>
<g id="a_edge4_Node000003_Node000005"><a xlink:title=" ">
<path fill="none" stroke="#63b8ff" d="M129.72,-56.34C144.34,-48.08 165.51,-36.13 182.35,-26.63"/>
<polygon fill="#63b8ff" stroke="#63b8ff" points="183.88,-29.79 190.87,-21.82 180.44,-23.69 183.88,-29.79"/>
</a>
</g>
</g>
<!-- Node6 -->
<g id="Node000006" class="node">
<title>Node6</title>
<g id="a_Node000006"><a xlink:title=" ">
<polygon fill="#e0e0e0" stroke="#999999" points="152,-20.75 70.75,-20.75 70.75,0 152,0 152,-20.75"/>
<text text-anchor="middle" x="111.38" y="-7.25" font-family="Helvetica,sans-Serif" font-size="10.00">periph_conf.h</text>
</a>
</g>
</g>
<!-- Node3&#45;&gt;Node6 -->
<g id="edge5_Node000003_Node000006" class="edge">
<title>Node3&#45;&gt;Node6</title>
<g id="a_edge5_Node000003_Node000006"><a xlink:title=" ">
<path fill="none" stroke="#63b8ff" d="M112.2,-56.34C112.08,-49.72 111.91,-40.72 111.76,-32.52"/>
<polygon fill="#63b8ff" stroke="#63b8ff" points="115.26,-32.53 111.58,-22.59 108.26,-32.65 115.26,-32.53"/>
</a>
</g>
</g>
<!-- Node7&#45;&gt;Node5 -->
<g id="edge7_Node000007_Node000005" class="edge">
<title>Node7&#45;&gt;Node5</title>
<g id="a_edge7_Node000007_Node000005"><a xlink:title=" ">
<path fill="none" stroke="#63b8ff" d="M208.55,-56.34C208.67,-49.72 208.84,-40.72 208.99,-32.52"/>
<polygon fill="#63b8ff" stroke="#63b8ff" points="212.49,-32.65 209.17,-22.59 205.49,-32.53 212.49,-32.65"/>
</a>
</g>
</g>
</g>
</svg>
