<?xml version="1.0" encoding="UTF-8" standalone="no"?>
<!DOCTYPE svg PUBLIC "-//W3C//DTD SVG 1.1//EN"
 "http://www.w3.org/Graphics/SVG/1.1/DTD/svg11.dtd">
<!-- Generated by graphviz version 12.1.1 (0)
 -->
<!-- Title: sys/include/benchmark.h Pages: 1 -->
<svg width="1135pt" height="653pt"
 viewBox="0.00 0.00 1135.00 653.00" xmlns="http://www.w3.org/2000/svg" xmlns:xlink="http://www.w3.org/1999/xlink">
<g id="graph0" class="graph" transform="scale(1 1) rotate(0) translate(4 649)">
<title>sys/include/benchmark.h</title>
<!-- Node1 -->
<g id="Node000001" class="node">
<title>Node1</title>
<g id="a_Node000001"><a xlink:title="Interface for running simple benchmarks.">
<polygon fill="#999999" stroke="#666666" points="1119.75,-645 982.25,-645 982.25,-624.25 1119.75,-624.25 1119.75,-645"/>
<text text-anchor="middle" x="1051" y="-631.5" font-family="Helvetica,sans-Serif" font-size="10.00">sys/include/benchmark.h</text>
</a>
</g>
</g>
<!-- Node2 -->
<g id="Node000002" class="node">
<title>Node2</title>
<g id="a_Node000002"><a xlink:title=" ">
<polygon fill="#e0e0e0" stroke="#999999" points="358.38,-20.75 305.62,-20.75 305.62,0 358.38,0 358.38,-20.75"/>
<text text-anchor="middle" x="332" y="-7.25" font-family="Helvetica,sans-Serif" font-size="10.00">stdint.h</text>
</a>
</g>
</g>
<!-- Node1&#45;&gt;Node2 -->
<g id="edge1_Node000001_Node000002" class="edge">
<title>Node1&#45;&gt;Node2</title>
<g id="a_edge1_Node000001_Node000002"><a xlink:title=" ">
<path fill="none" stroke="#63b8ff" d="M1063.89,-623.81C1085.58,-606.08 1127,-566.4 1127,-522.12 1127,-522.12 1127,-522.12 1127,-122.88 1127,-63.14 1067.23,-73.87 1010,-56.75 888.74,-20.48 494.41,-13.13 369.98,-11.71"/>
<polygon fill="#63b8ff" stroke="#63b8ff" points="370.35,-8.21 360.32,-11.6 370.28,-15.21 370.35,-8.21"/>
</a>
</g>
</g>
<!-- Node3 -->
<g id="Node000003" class="node">
<title>Node3</title>
<g id="a_Node000003"><a xlink:href="irq_8h.html" target="_top" xlink:title="IRQ driver interface.">
<polygon fill="white" stroke="#666666" points="1022.88,-304.5 985.12,-304.5 985.12,-283.75 1022.88,-283.75 1022.88,-304.5"/>
<text text-anchor="middle" x="1004" y="-291" font-family="Helvetica,sans-Serif" font-size="10.00">irq.h</text>
</a>
</g>
</g>
<!-- Node1&#45;&gt;Node3 -->
<g id="edge2_Node000001_Node000003" class="edge">
<title>Node1&#45;&gt;Node3</title>
<g id="a_edge2_Node000001_Node000003"><a xlink:title=" ">
<path fill="none" stroke="#63b8ff" d="M1049.64,-623.86C1043.24,-577.72 1015.94,-381.12 1006.91,-316.1"/>
<polygon fill="#63b8ff" stroke="#63b8ff" points="1010.41,-315.85 1005.57,-306.43 1003.48,-316.82 1010.41,-315.85"/>
</a>
</g>
</g>
<!-- Node6 -->
<g id="Node000006" class="node">
<title>Node6</title>
<g id="a_Node000006"><a xlink:href="stopwatch_8h_source.html" target="_top" xlink:title=" ">
<polygon fill="white" stroke="#666666" points="1009.88,-588.25 900.12,-588.25 900.12,-567.5 1009.88,-567.5 1009.88,-588.25"/>
<text text-anchor="middle" x="955" y="-574.75" font-family="Helvetica,sans-Serif" font-size="10.00">ztimer/stopwatch.h</text>
</a>
</g>
</g>
<!-- Node1&#45;&gt;Node6 -->
<g id="edge5_Node000001_Node000006" class="edge">
<title>Node1&#45;&gt;Node6</title>
<g id="a_edge5_Node000001_Node000006"><a xlink:title=" ">
<path fill="none" stroke="#63b8ff" d="M1033.84,-623.84C1019.37,-615.58 998.41,-603.63 981.74,-594.13"/>
<polygon fill="#63b8ff" stroke="#63b8ff" points="983.75,-591.24 973.33,-589.33 980.28,-597.32 983.75,-591.24"/>
</a>
</g>
</g>
<!-- Node4 -->
<g id="Node000004" class="node">
<title>Node4</title>
<g id="a_Node000004"><a xlink:title=" ">
<polygon fill="#e0e0e0" stroke="#999999" points="902.5,-134.25 841.5,-134.25 841.5,-113.5 902.5,-113.5 902.5,-134.25"/>
<text text-anchor="middle" x="872" y="-120.75" font-family="Helvetica,sans-Serif" font-size="10.00">stdbool.h</text>
</a>
</g>
</g>
<!-- Node3&#45;&gt;Node4 -->
<g id="edge3_Node000003_Node000004" class="edge">
<title>Node3&#45;&gt;Node4</title>
<g id="a_edge3_Node000003_Node000004"><a xlink:title=" ">
<path fill="none" stroke="#63b8ff" d="M1004.6,-283.47C1005,-269.95 1004.12,-245.02 994,-227 972.07,-187.97 929,-157.42 900.35,-140.26"/>
<polygon fill="#63b8ff" stroke="#63b8ff" points="902.23,-137.31 891.82,-135.32 898.72,-143.36 902.23,-137.31"/>
</a>
</g>
</g>
<!-- Node5 -->
<g id="Node000005" class="node">
<title>Node5</title>
<g id="a_Node000005"><a xlink:title=" ">
<polygon fill="#e0e0e0" stroke="#999999" points="984.88,-247.75 917.12,-247.75 917.12,-227 984.88,-227 984.88,-247.75"/>
<text text-anchor="middle" x="951" y="-234.25" font-family="Helvetica,sans-Serif" font-size="10.00">cpu_conf.h</text>
</a>
</g>
</g>
<!-- Node3&#45;&gt;Node5 -->
<g id="edge4_Node000003_Node000005" class="edge">
<title>Node3&#45;&gt;Node5</title>
<g id="a_edge4_Node000003_Node000005"><a xlink:title=" ">
<path fill="none" stroke="#63b8ff" d="M994.52,-283.34C987.21,-275.78 976.91,-265.14 968.16,-256.1"/>
<polygon fill="#63b8ff" stroke="#63b8ff" points="970.92,-253.92 961.45,-249.17 965.89,-258.79 970.92,-253.92"/>
</a>
</g>
</g>
<!-- Node7 -->
<g id="Node000007" class="node">
<title>Node7</title>
<g id="a_Node000007"><a xlink:href="ztimer_8h.html" target="_top" xlink:title="ztimer API">
<polygon fill="white" stroke="#666666" points="958.25,-531.5 901.75,-531.5 901.75,-510.75 958.25,-510.75 958.25,-531.5"/>
<text text-anchor="middle" x="930" y="-518" font-family="Helvetica,sans-Serif" font-size="10.00">ztimer.h</text>
</a>
</g>
</g>
<!-- Node6&#45;&gt;Node7 -->
<g id="edge6_Node000006_Node000007" class="edge">
<title>Node6&#45;&gt;Node7</title>
<g id="a_edge6_Node000006_Node000007"><a xlink:title=" ">
<path fill="none" stroke="#63b8ff" d="M950.53,-567.09C947.37,-560.16 943.01,-550.62 939.13,-542.11"/>
<polygon fill="#63b8ff" stroke="#63b8ff" points="942.4,-540.85 935.06,-533.21 936.03,-543.76 942.4,-540.85"/>
</a>
</g>
</g>
<!-- Node7&#45;&gt;Node2 -->
<g id="edge7_Node000007_Node000002" class="edge">
<title>Node7&#45;&gt;Node2</title>
<g id="a_edge7_Node000007_Node000002"><a xlink:title=" ">
<path fill="none" stroke="#63b8ff" d="M944.11,-510.27C983.02,-481.8 1089,-395.09 1089,-295.12 1089,-295.12 1089,-295.12 1089,-122.88 1089,-43.87 1000.94,-74.67 924,-56.75 817.83,-32.02 482.97,-17.18 369.8,-12.77"/>
<polygon fill="#63b8ff" stroke="#63b8ff" points="370.28,-9.29 360.15,-12.4 370.01,-16.28 370.28,-9.29"/>
</a>
</g>
</g>
<!-- Node8 -->
<g id="Node000008" class="node">
<title>Node8</title>
<g id="a_Node000008"><a xlink:href="sched_8h.html" target="_top" xlink:title="Scheduler API definition.">
<polygon fill="white" stroke="#666666" points="705.75,-247.75 652.25,-247.75 652.25,-227 705.75,-227 705.75,-247.75"/>
<text text-anchor="middle" x="679" y="-234.25" font-family="Helvetica,sans-Serif" font-size="10.00">sched.h</text>
</a>
</g>
</g>
<!-- Node7&#45;&gt;Node8 -->
<g id="edge8_Node000007_Node000008" class="edge">
<title>Node7&#45;&gt;Node8</title>
<g id="a_edge8_Node000007_Node000008"><a xlink:title=" ">
<path fill="none" stroke="#63b8ff" d="M938.82,-510.5C949.67,-497.44 965.53,-473.5 956,-454 955.89,-453.77 765.8,-305.89 700.62,-255.19"/>
<polygon fill="#63b8ff" stroke="#63b8ff" points="702.85,-252.49 692.81,-249.12 698.55,-258.02 702.85,-252.49"/>
</a>
</g>
</g>
<!-- Node20 -->
<g id="Node000020" class="node">
<title>Node20</title>
<g id="a_Node000020"><a xlink:title=" ">
<polygon fill="#e0e0e0" stroke="#999999" points="869,-474.75 823,-474.75 823,-454 869,-454 869,-474.75"/>
<text text-anchor="middle" x="846" y="-461.25" font-family="Helvetica,sans-Serif" font-size="10.00">msg.h</text>
</a>
</g>
</g>
<!-- Node7&#45;&gt;Node20 -->
<g id="edge27_Node000007_Node000020" class="edge">
<title>Node7&#45;&gt;Node20</title>
<g id="a_edge27_Node000007_Node000020"><a xlink:title=" ">
<path fill="none" stroke="#63b8ff" d="M914.98,-510.34C902.56,-502.24 884.68,-490.58 870.23,-481.17"/>
<polygon fill="#63b8ff" stroke="#63b8ff" points="872.44,-478.43 862.16,-475.9 868.62,-484.3 872.44,-478.43"/>
</a>
</g>
</g>
<!-- Node21 -->
<g id="Node000021" class="node">
<title>Node21</title>
<g id="a_Node000021"><a xlink:href="mutex_8h.html" target="_top" xlink:title="Mutex for thread synchronization.">
<polygon fill="white" stroke="#666666" points="521.25,-418 464.75,-418 464.75,-397.25 521.25,-397.25 521.25,-418"/>
<text text-anchor="middle" x="493" y="-404.5" font-family="Helvetica,sans-Serif" font-size="10.00">mutex.h</text>
</a>
</g>
</g>
<!-- Node7&#45;&gt;Node21 -->
<g id="edge28_Node000007_Node000021" class="edge">
<title>Node7&#45;&gt;Node21</title>
<g id="a_edge28_Node000007_Node000021"><a xlink:title=" ">
<path fill="none" stroke="#63b8ff" d="M901.33,-512.81C825.46,-493.45 619.33,-440.86 532.45,-418.69"/>
<polygon fill="#63b8ff" stroke="#63b8ff" points="533.52,-415.35 522.96,-416.27 531.78,-422.13 533.52,-415.35"/>
</a>
</g>
</g>
<!-- Node30 -->
<g id="Node000030" class="node">
<title>Node30</title>
<g id="a_Node000030"><a xlink:href="rmutex_8h.html" target="_top" xlink:title="Recursive Mutex for thread synchronization.">
<polygon fill="white" stroke="#666666" points="947.12,-474.75 886.88,-474.75 886.88,-454 947.12,-454 947.12,-474.75"/>
<text text-anchor="middle" x="917" y="-461.25" font-family="Helvetica,sans-Serif" font-size="10.00">rmutex.h</text>
</a>
</g>
</g>
<!-- Node7&#45;&gt;Node30 -->
<g id="edge52_Node000007_Node000030" class="edge">
<title>Node7&#45;&gt;Node30</title>
<g id="a_edge52_Node000007_Node000030"><a xlink:title=" ">
<path fill="none" stroke="#63b8ff" d="M927.68,-510.34C926.09,-503.64 923.92,-494.51 921.95,-486.23"/>
<polygon fill="#63b8ff" stroke="#63b8ff" points="925.37,-485.47 919.65,-476.55 918.56,-487.09 925.37,-485.47"/>
</a>
</g>
</g>
<!-- Node9 -->
<g id="Node000009" class="node">
<title>Node9</title>
<g id="a_Node000009"><a xlink:title=" ">
<polygon fill="#e0e0e0" stroke="#999999" points="585.5,-77.5 530.5,-77.5 530.5,-56.75 585.5,-56.75 585.5,-77.5"/>
<text text-anchor="middle" x="558" y="-64" font-family="Helvetica,sans-Serif" font-size="10.00">stddef.h</text>
</a>
</g>
</g>
<!-- Node8&#45;&gt;Node9 -->
<g id="edge9_Node000008_Node000009" class="edge">
<title>Node8&#45;&gt;Node9</title>
<g id="a_edge9_Node000008_Node000009"><a xlink:title=" ">
<path fill="none" stroke="#63b8ff" d="M674.1,-226.61C663.08,-205.11 634.89,-152.48 604,-113.5 596.14,-103.58 586.27,-93.59 577.7,-85.52"/>
<polygon fill="#63b8ff" stroke="#63b8ff" points="580.22,-83.09 570.48,-78.91 575.49,-88.25 580.22,-83.09"/>
</a>
</g>
</g>
<!-- Node10 -->
<g id="Node000010" class="node">
<title>Node10</title>
<g id="a_Node000010"><a xlink:href="inttypes_8h.html" target="_top" xlink:title="Adds include for missing inttype definitions.">
<polygon fill="white" stroke="#666666" points="367.38,-191 302.62,-191 302.62,-170.25 367.38,-170.25 367.38,-191"/>
<text text-anchor="middle" x="335" y="-177.5" font-family="Helvetica,sans-Serif" font-size="10.00">inttypes.h</text>
</a>
</g>
</g>
<!-- Node8&#45;&gt;Node10 -->
<g id="edge10_Node000008_Node000010" class="edge">
<title>Node8&#45;&gt;Node10</title>
<g id="a_edge10_Node000008_Node000010"><a xlink:title=" ">
<path fill="none" stroke="#63b8ff" d="M651.82,-232.95C600.55,-226.33 485.81,-210.88 378.54,-191.17"/>
<polygon fill="#63b8ff" stroke="#63b8ff" points="379.47,-187.78 369,-189.4 378.19,-194.66 379.47,-187.78"/>
</a>
</g>
</g>
<!-- Node11 -->
<g id="Node000011" class="node">
<title>Node11</title>
<g id="a_Node000011"><a xlink:href="kernel__defines_8h.html" target="_top" xlink:title="Common macros and compiler attributes/pragmas configuration.">
<polygon fill="white" stroke="#666666" points="482.12,-191 385.88,-191 385.88,-170.25 482.12,-170.25 482.12,-191"/>
<text text-anchor="middle" x="434" y="-177.5" font-family="Helvetica,sans-Serif" font-size="10.00">kernel_defines.h</text>
</a>
</g>
</g>
<!-- Node8&#45;&gt;Node11 -->
<g id="edge11_Node000008_Node000011" class="edge">
<title>Node8&#45;&gt;Node11</title>
<g id="a_edge11_Node000008_Node000011"><a xlink:title=" ">
<path fill="none" stroke="#63b8ff" d="M651.84,-230.31C612.69,-221.56 539.54,-205.21 488.87,-193.89"/>
<polygon fill="#63b8ff" stroke="#63b8ff" points="489.79,-190.51 479.26,-191.74 488.26,-197.34 489.79,-190.51"/>
</a>
</g>
</g>
<!-- Node17 -->
<g id="Node000017" class="node">
<title>Node17</title>
<g id="a_Node000017"><a xlink:href="native__sched_8h.html" target="_top" xlink:title="Add definitions required on the native board.">
<polygon fill="white" stroke="#666666" points="767.75,-191 678.25,-191 678.25,-170.25 767.75,-170.25 767.75,-191"/>
<text text-anchor="middle" x="723" y="-177.5" font-family="Helvetica,sans-Serif" font-size="10.00">native_sched.h</text>
</a>
</g>
</g>
<!-- Node8&#45;&gt;Node17 -->
<g id="edge22_Node000008_Node000017" class="edge">
<title>Node8&#45;&gt;Node17</title>
<g id="a_edge22_Node000008_Node000017"><a xlink:title=" ">
<path fill="none" stroke="#63b8ff" d="M686.87,-226.59C692.75,-219.27 700.97,-209.04 708.08,-200.19"/>
<polygon fill="#63b8ff" stroke="#63b8ff" points="710.72,-202.5 714.25,-192.51 705.26,-198.11 710.72,-202.5"/>
</a>
</g>
</g>
<!-- Node18 -->
<g id="Node000018" class="node">
<title>Node18</title>
<g id="a_Node000018"><a xlink:href="clist_8h.html" target="_top" xlink:title="Circular linked list.">
<polygon fill="white" stroke="#666666" points="621.62,-191 576.38,-191 576.38,-170.25 621.62,-170.25 621.62,-191"/>
<text text-anchor="middle" x="599" y="-177.5" font-family="Helvetica,sans-Serif" font-size="10.00">clist.h</text>
</a>
</g>
</g>
<!-- Node8&#45;&gt;Node18 -->
<g id="edge23_Node000008_Node000018" class="edge">
<title>Node8&#45;&gt;Node18</title>
<g id="a_edge23_Node000008_Node000018"><a xlink:title=" ">
<path fill="none" stroke="#63b8ff" d="M664.7,-226.59C652.98,-218.57 636.16,-207.06 622.47,-197.69"/>
<polygon fill="#63b8ff" stroke="#63b8ff" points="624.66,-194.94 614.43,-192.18 620.7,-200.72 624.66,-194.94"/>
</a>
</g>
</g>
<!-- Node12 -->
<g id="Node000012" class="node">
<title>Node12</title>
<g id="a_Node000012"><a xlink:href="modules_8h.html" target="_top" xlink:title="Common macros and compiler attributes/pragmas configuration.">
<polygon fill="white" stroke="#666666" points="481.5,-134.25 414.5,-134.25 414.5,-113.5 481.5,-113.5 481.5,-134.25"/>
<text text-anchor="middle" x="448" y="-120.75" font-family="Helvetica,sans-Serif" font-size="10.00">modules.h</text>
</a>
</g>
</g>
<!-- Node11&#45;&gt;Node12 -->
<g id="edge12_Node000011_Node000012" class="edge">
<title>Node11&#45;&gt;Node12</title>
<g id="a_edge12_Node000011_Node000012"><a xlink:title=" ">
<path fill="none" stroke="#63b8ff" d="M436.5,-169.84C438.22,-163.14 440.55,-154.01 442.67,-145.73"/>
<polygon fill="#63b8ff" stroke="#63b8ff" points="446.06,-146.6 445.14,-136.04 439.28,-144.87 446.06,-146.6"/>
</a>
</g>
</g>
<!-- Node13 -->
<g id="Node000013" class="node">
<title>Node13</title>
<g id="a_Node000013"><a xlink:href="riot__version_8h.html" target="_top" xlink:title="Common macros and compiler attributes/pragmas configuration.">
<polygon fill="white" stroke="#666666" points="339.38,-77.5 256.62,-77.5 256.62,-56.75 339.38,-56.75 339.38,-77.5"/>
<text text-anchor="middle" x="298" y="-64" font-family="Helvetica,sans-Serif" font-size="10.00">riot_version.h</text>
</a>
</g>
</g>
<!-- Node11&#45;&gt;Node13 -->
<g id="edge13_Node000011_Node000013" class="edge">
<title>Node11&#45;&gt;Node13</title>
<g id="a_edge13_Node000011_Node000013"><a xlink:title=" ">
<path fill="none" stroke="#63b8ff" d="M385.54,-171.31C361.89,-164.91 334.78,-153.71 317,-134.25 305.78,-121.97 301.15,-103.49 299.25,-89.19"/>
<polygon fill="#63b8ff" stroke="#63b8ff" points="302.76,-89.09 298.34,-79.46 295.79,-89.74 302.76,-89.09"/>
</a>
</g>
</g>
<!-- Node14 -->
<g id="Node000014" class="node">
<title>Node14</title>
<g id="a_Node000014"><a xlink:href="compiler__hints_8h.html" target="_top" xlink:title="Common macros and compiler attributes/pragmas configuration.">
<polygon fill="white" stroke="#666666" points="269.5,-134.25 172.5,-134.25 172.5,-113.5 269.5,-113.5 269.5,-134.25"/>
<text text-anchor="middle" x="221" y="-120.75" font-family="Helvetica,sans-Serif" font-size="10.00">compiler_hints.h</text>
</a>
</g>
</g>
<!-- Node11&#45;&gt;Node14 -->
<g id="edge15_Node000011_Node000014" class="edge">
<title>Node11&#45;&gt;Node14</title>
<g id="a_edge15_Node000011_Node000014"><a xlink:title=" ">
<path fill="none" stroke="#63b8ff" d="M395.92,-169.84C360.74,-160.79 308.29,-147.31 270,-137.47"/>
<polygon fill="#63b8ff" stroke="#63b8ff" points="271.13,-134.15 260.57,-135.05 269.39,-140.93 271.13,-134.15"/>
</a>
</g>
</g>
<!-- Node16 -->
<g id="Node000016" class="node">
<title>Node16</title>
<g id="a_Node000016"><a xlink:href="container_8h.html" target="_top" xlink:title="Common macros and compiler attributes/pragmas configuration.">
<polygon fill="white" stroke="#666666" points="396.38,-134.25 325.62,-134.25 325.62,-113.5 396.38,-113.5 396.38,-134.25"/>
<text text-anchor="middle" x="361" y="-120.75" font-family="Helvetica,sans-Serif" font-size="10.00">container.h</text>
</a>
</g>
</g>
<!-- Node11&#45;&gt;Node16 -->
<g id="edge19_Node000011_Node000016" class="edge">
<title>Node11&#45;&gt;Node16</title>
<g id="a_edge19_Node000011_Node000016"><a xlink:title=" ">
<path fill="none" stroke="#63b8ff" d="M420.95,-169.84C410.36,-161.9 395.21,-150.53 382.78,-141.21"/>
<polygon fill="#63b8ff" stroke="#63b8ff" points="385.25,-138.69 375.15,-135.49 381.05,-144.29 385.25,-138.69"/>
</a>
</g>
</g>
<!-- Node13&#45;&gt;Node2 -->
<g id="edge14_Node000013_Node000002" class="edge">
<title>Node13&#45;&gt;Node2</title>
<g id="a_edge14_Node000013_Node000002"><a xlink:title=" ">
<path fill="none" stroke="#63b8ff" d="M304.08,-56.34C308.48,-49.25 314.57,-39.44 319.94,-30.79"/>
<polygon fill="#63b8ff" stroke="#63b8ff" points="322.87,-32.71 325.18,-22.36 316.93,-29.01 322.87,-32.71"/>
</a>
</g>
</g>
<!-- Node14&#45;&gt;Node2 -->
<g id="edge18_Node000014_Node000002" class="edge">
<title>Node14&#45;&gt;Node2</title>
<g id="a_edge18_Node000014_Node000002"><a xlink:title=" ">
<path fill="none" stroke="#63b8ff" d="M222.78,-113.24C225.8,-99.3 233.09,-73.36 248,-56.75 260.72,-42.59 278.93,-32 295.15,-24.63"/>
<polygon fill="#63b8ff" stroke="#63b8ff" points="296.22,-27.98 304.05,-20.84 293.47,-21.54 296.22,-27.98"/>
</a>
</g>
</g>
<!-- Node15 -->
<g id="Node000015" class="node">
<title>Node15</title>
<g id="a_Node000015"><a xlink:href="assert_8h.html" target="_top" xlink:title="POSIX.1&#45;2008 compliant version of the assert macro.">
<polygon fill="white" stroke="#666666" points="200.5,-77.5 145.5,-77.5 145.5,-56.75 200.5,-56.75 200.5,-77.5"/>
<text text-anchor="middle" x="173" y="-64" font-family="Helvetica,sans-Serif" font-size="10.00">assert.h</text>
</a>
</g>
</g>
<!-- Node14&#45;&gt;Node15 -->
<g id="edge16_Node000014_Node000015" class="edge">
<title>Node14&#45;&gt;Node15</title>
<g id="a_edge16_Node000014_Node000015"><a xlink:title=" ">
<path fill="none" stroke="#63b8ff" d="M212.42,-113.09C205.93,-105.69 196.85,-95.32 189.03,-86.41"/>
<polygon fill="#63b8ff" stroke="#63b8ff" points="191.73,-84.18 182.5,-78.97 186.47,-88.79 191.73,-84.18"/>
</a>
</g>
</g>
<!-- Node15&#45;&gt;Node2 -->
<g id="edge17_Node000015_Node000002" class="edge">
<title>Node15&#45;&gt;Node2</title>
<g id="a_edge17_Node000015_Node000002"><a xlink:title=" ">
<path fill="none" stroke="#63b8ff" d="M200.7,-56.59C226.62,-47.66 265.55,-34.26 294.3,-24.36"/>
<polygon fill="#63b8ff" stroke="#63b8ff" points="295.4,-27.68 303.72,-21.11 293.13,-21.06 295.4,-27.68"/>
</a>
</g>
</g>
<!-- Node16&#45;&gt;Node2 -->
<g id="edge21_Node000016_Node000002" class="edge">
<title>Node16&#45;&gt;Node2</title>
<g id="a_edge21_Node000016_Node000002"><a xlink:title=" ">
<path fill="none" stroke="#63b8ff" d="M359.57,-113.36C357.53,-100.42 353.42,-76.61 348,-56.75 345.72,-48.4 342.67,-39.38 339.84,-31.6"/>
<polygon fill="#63b8ff" stroke="#63b8ff" points="343.17,-30.53 336.38,-22.4 336.62,-32.99 343.17,-30.53"/>
</a>
</g>
</g>
<!-- Node16&#45;&gt;Node9 -->
<g id="edge20_Node000016_Node000009" class="edge">
<title>Node16&#45;&gt;Node9</title>
<g id="a_edge20_Node000016_Node000009"><a xlink:title=" ">
<path fill="none" stroke="#63b8ff" d="M396.22,-113.09C430.77,-103.48 483.34,-88.87 519.11,-78.93"/>
<polygon fill="#63b8ff" stroke="#63b8ff" points="519.93,-82.34 528.63,-76.29 518.05,-75.59 519.93,-82.34"/>
</a>
</g>
</g>
<!-- Node18&#45;&gt;Node4 -->
<g id="edge24_Node000018_Node000004" class="edge">
<title>Node18&#45;&gt;Node4</title>
<g id="a_edge24_Node000018_Node000004"><a xlink:title=" ">
<path fill="none" stroke="#63b8ff" d="M621.81,-175.05C667.7,-165.85 771.8,-144.97 830.22,-133.25"/>
<polygon fill="#63b8ff" stroke="#63b8ff" points="830.67,-136.73 839.79,-131.34 829.29,-129.87 830.67,-136.73"/>
</a>
</g>
</g>
<!-- Node18&#45;&gt;Node9 -->
<g id="edge25_Node000018_Node000009" class="edge">
<title>Node18&#45;&gt;Node9</title>
<g id="a_edge25_Node000018_Node000009"><a xlink:title=" ">
<path fill="none" stroke="#63b8ff" d="M598.42,-169.89C597.36,-156.7 594.5,-132.61 587,-113.5 583.39,-104.3 577.82,-94.97 572.52,-87.17"/>
<polygon fill="#63b8ff" stroke="#63b8ff" points="575.46,-85.27 566.78,-79.19 569.77,-89.35 575.46,-85.27"/>
</a>
</g>
</g>
<!-- Node19 -->
<g id="Node000019" class="node">
<title>Node19</title>
<g id="a_Node000019"><a xlink:href="list_8h.html" target="_top" xlink:title="Intrusive linked list.">
<polygon fill="white" stroke="#666666" points="578,-134.25 538,-134.25 538,-113.5 578,-113.5 578,-134.25"/>
<text text-anchor="middle" x="558" y="-120.75" font-family="Helvetica,sans-Serif" font-size="10.00">list.h</text>
</a>
</g>
</g>
<!-- Node18&#45;&gt;Node19 -->
<g id="edge26_Node000018_Node000019" class="edge">
<title>Node18&#45;&gt;Node19</title>
<g id="a_edge26_Node000018_Node000019"><a xlink:title=" ">
<path fill="none" stroke="#63b8ff" d="M591.67,-169.84C586.25,-162.6 578.69,-152.51 572.11,-143.72"/>
<polygon fill="#63b8ff" stroke="#63b8ff" points="574.97,-141.7 566.17,-135.79 569.37,-145.89 574.97,-141.7"/>
</a>
</g>
</g>
<!-- Node21&#45;&gt;Node2 -->
<g id="edge30_Node000021_Node000002" class="edge">
<title>Node21&#45;&gt;Node2</title>
<g id="a_edge30_Node000021_Node000002"><a xlink:title=" ">
<path fill="none" stroke="#63b8ff" d="M464.36,-406.32C359.15,-404.44 0,-390.99 0,-295.12 0,-295.12 0,-295.12 0,-122.88 0,-61.4 207.13,-27.48 294.18,-15.93"/>
<polygon fill="#63b8ff" stroke="#63b8ff" points="294.42,-19.43 303.89,-14.68 293.52,-12.49 294.42,-19.43"/>
</a>
</g>
</g>
<!-- Node21&#45;&gt;Node4 -->
<g id="edge31_Node000021_Node000004" class="edge">
<title>Node21&#45;&gt;Node4</title>
<g id="a_edge31_Node000021_Node000004"><a xlink:title=" ">
<path fill="none" stroke="#63b8ff" d="M521.68,-404.56C611.63,-397.44 885.34,-370.61 938,-304.5 955.77,-282.18 921.42,-272.92 908,-247.75 890.19,-214.36 880.15,-171.04 875.42,-145.76"/>
<polygon fill="#63b8ff" stroke="#63b8ff" points="878.9,-145.37 873.73,-136.12 872.01,-146.58 878.9,-145.37"/>
</a>
</g>
</g>
<!-- Node21&#45;&gt;Node9 -->
<g id="edge29_Node000021_Node000009" class="edge">
<title>Node21&#45;&gt;Node9</title>
<g id="a_edge29_Node000021_Node000009"><a xlink:title=" ">
<path fill="none" stroke="#63b8ff" d="M492.66,-396.91C491.67,-359.19 490.89,-219.39 529,-113.5 532.35,-104.2 537.87,-94.85 543.21,-87.07"/>
<polygon fill="#63b8ff" stroke="#63b8ff" points="545.95,-89.25 549.02,-79.11 540.3,-85.12 545.95,-89.25"/>
</a>
</g>
</g>
<!-- Node21&#45;&gt;Node11 -->
<g id="edge37_Node000021_Node000011" class="edge">
<title>Node21&#45;&gt;Node11</title>
<g id="a_edge37_Node000021_Node000011"><a xlink:title=" ">
<path fill="none" stroke="#63b8ff" d="M475.62,-396.78C463.54,-388.88 448.34,-376.6 441,-361.25 415.81,-308.59 423.69,-237 429.77,-202.25"/>
<polygon fill="#63b8ff" stroke="#63b8ff" points="433.15,-203.18 431.58,-192.7 426.27,-201.87 433.15,-203.18"/>
</a>
</g>
</g>
<!-- Node21&#45;&gt;Node19 -->
<g id="edge38_Node000021_Node000019" class="edge">
<title>Node21&#45;&gt;Node19</title>
<g id="a_edge38_Node000021_Node000019"><a xlink:title=" ">
<path fill="none" stroke="#63b8ff" d="M495.24,-396.93C504.54,-356.62 540.24,-201.86 553.23,-145.53"/>
<polygon fill="#63b8ff" stroke="#63b8ff" points="556.59,-146.54 555.43,-136.01 549.77,-144.96 556.59,-146.54"/>
</a>
</g>
</g>
<!-- Node22 -->
<g id="Node000022" class="node">
<title>Node22</title>
<g id="a_Node000022"><a xlink:href="architecture_8h.html" target="_top" xlink:title="Platform&#45;independent access to architecture details.">
<polygon fill="white" stroke="#666666" points="299.75,-247.75 216.25,-247.75 216.25,-227 299.75,-227 299.75,-247.75"/>
<text text-anchor="middle" x="258" y="-234.25" font-family="Helvetica,sans-Serif" font-size="10.00">architecture.h</text>
</a>
</g>
</g>
<!-- Node21&#45;&gt;Node22 -->
<g id="edge32_Node000021_Node000022" class="edge">
<title>Node21&#45;&gt;Node22</title>
<g id="a_edge32_Node000021_Node000022"><a xlink:title=" ">
<path fill="none" stroke="#63b8ff" d="M464.37,-400.92C437.07,-394.5 395.7,-382.14 365,-361.25 323.3,-332.87 287.77,-284.41 270.06,-257.61"/>
<polygon fill="#63b8ff" stroke="#63b8ff" points="273.15,-255.95 264.79,-249.45 267.27,-259.75 273.15,-255.95"/>
</a>
</g>
</g>
<!-- Node25 -->
<g id="Node000025" class="node">
<title>Node25</title>
<g id="a_Node000025"><a xlink:href="core_2include_2thread_8h.html" target="_top" xlink:title="Threading API.">
<polygon fill="white" stroke="#666666" points="597.25,-361.25 540.75,-361.25 540.75,-340.5 597.25,-340.5 597.25,-361.25"/>
<text text-anchor="middle" x="569" y="-347.75" font-family="Helvetica,sans-Serif" font-size="10.00">thread.h</text>
</a>
</g>
</g>
<!-- Node21&#45;&gt;Node25 -->
<g id="edge39_Node000021_Node000025" class="edge">
<title>Node21&#45;&gt;Node25</title>
<g id="a_edge39_Node000021_Node000025"><a xlink:title=" ">
<path fill="none" stroke="#63b8ff" d="M506.59,-396.84C517.61,-388.9 533.39,-377.53 546.32,-368.21"/>
<polygon fill="#63b8ff" stroke="#63b8ff" points="548.23,-371.15 554.3,-362.46 544.14,-365.47 548.23,-371.15"/>
</a>
</g>
</g>
<!-- Node22&#45;&gt;Node2 -->
<g id="edge33_Node000022_Node000002" class="edge">
<title>Node22&#45;&gt;Node2</title>
<g id="a_edge33_Node000022_Node000002"><a xlink:title=" ">
<path fill="none" stroke="#63b8ff" d="M216.02,-230.5C172.75,-223.49 109.61,-210.24 95,-191 89.42,-183.66 93.41,-179.33 95,-170.25 104.25,-117.42 95.88,-92.35 136,-56.75 159.1,-36.25 243.8,-22.42 293.98,-15.83"/>
<polygon fill="#63b8ff" stroke="#63b8ff" points="294.36,-19.31 303.83,-14.57 293.47,-12.37 294.36,-19.31"/>
</a>
</g>
</g>
<!-- Node22&#45;&gt;Node10 -->
<g id="edge34_Node000022_Node000010" class="edge">
<title>Node22&#45;&gt;Node10</title>
<g id="a_edge34_Node000022_Node000010"><a xlink:title=" ">
<path fill="none" stroke="#63b8ff" d="M271.77,-226.59C282.93,-218.65 298.92,-207.28 312.02,-197.96"/>
<polygon fill="#63b8ff" stroke="#63b8ff" points="314,-200.85 320.12,-192.21 309.94,-195.15 314,-200.85"/>
</a>
</g>
</g>
<!-- Node23 -->
<g id="Node000023" class="node">
<title>Node23</title>
<g id="a_Node000023"><a xlink:title=" ">
<polygon fill="#e0e0e0" stroke="#999999" points="284.38,-191 231.62,-191 231.62,-170.25 284.38,-170.25 284.38,-191"/>
<text text-anchor="middle" x="258" y="-177.5" font-family="Helvetica,sans-Serif" font-size="10.00">limits.h</text>
</a>
</g>
</g>
<!-- Node22&#45;&gt;Node23 -->
<g id="edge35_Node000022_Node000023" class="edge">
<title>Node22&#45;&gt;Node23</title>
<g id="a_edge35_Node000022_Node000023"><a xlink:title=" ">
<path fill="none" stroke="#63b8ff" d="M258,-226.59C258,-219.97 258,-210.97 258,-202.77"/>
<polygon fill="#63b8ff" stroke="#63b8ff" points="261.5,-202.84 258,-192.84 254.5,-202.84 261.5,-202.84"/>
</a>
</g>
</g>
<!-- Node24 -->
<g id="Node000024" class="node">
<title>Node24</title>
<g id="a_Node000024"><a xlink:title=" ">
<polygon fill="#e0e0e0" stroke="#999999" points="213.88,-191 104.12,-191 104.12,-170.25 213.88,-170.25 213.88,-191"/>
<text text-anchor="middle" x="159" y="-177.5" font-family="Helvetica,sans-Serif" font-size="10.00">architecture_arch.h</text>
</a>
</g>
</g>
<!-- Node22&#45;&gt;Node24 -->
<g id="edge36_Node000022_Node000024" class="edge">
<title>Node22&#45;&gt;Node24</title>
<g id="a_edge36_Node000022_Node000024"><a xlink:title=" ">
<path fill="none" stroke="#63b8ff" d="M240.3,-226.59C225.38,-218.33 203.77,-206.38 186.58,-196.88"/>
<polygon fill="#63b8ff" stroke="#63b8ff" points="188.32,-193.84 177.87,-192.06 184.93,-199.96 188.32,-193.84"/>
</a>
</g>
</g>
<!-- Node25&#45;&gt;Node8 -->
<g id="edge47_Node000025_Node000008" class="edge">
<title>Node25&#45;&gt;Node8</title>
<g id="a_edge47_Node000025_Node000008"><a xlink:title=" ">
<path fill="none" stroke="#63b8ff" d="M569.39,-340.22C570.44,-326.25 574.25,-300.28 588,-283.75 601.72,-267.27 622.91,-256.21 641.39,-249.14"/>
<polygon fill="#63b8ff" stroke="#63b8ff" points="642.47,-252.47 650.74,-245.84 640.14,-245.87 642.47,-252.47"/>
</a>
</g>
</g>
<!-- Node25&#45;&gt;Node18 -->
<g id="edge40_Node000025_Node000018" class="edge">
<title>Node25&#45;&gt;Node18</title>
<g id="a_edge40_Node000025_Node000018"><a xlink:title=" ">
<path fill="none" stroke="#63b8ff" d="M569.01,-340.4C569.16,-327.5 569.88,-303.75 573,-283.75 577.48,-255.02 586.42,-222.61 592.55,-202.15"/>
<polygon fill="#63b8ff" stroke="#63b8ff" points="595.83,-203.39 595.42,-192.8 589.14,-201.34 595.83,-203.39"/>
</a>
</g>
</g>
<!-- Node26 -->
<g id="Node000026" class="node">
<title>Node26</title>
<g id="a_Node000026"><a xlink:href="cib_8h.html" target="_top" xlink:title="Circular integer buffer interface.">
<polygon fill="white" stroke="#666666" points="133.62,-247.75 94.38,-247.75 94.38,-227 133.62,-227 133.62,-247.75"/>
<text text-anchor="middle" x="114" y="-234.25" font-family="Helvetica,sans-Serif" font-size="10.00">cib.h</text>
</a>
</g>
</g>
<!-- Node25&#45;&gt;Node26 -->
<g id="edge41_Node000025_Node000026" class="edge">
<title>Node25&#45;&gt;Node26</title>
<g id="a_edge41_Node000025_Node000026"><a xlink:title=" ">
<path fill="none" stroke="#63b8ff" d="M540.54,-342.9C459.7,-323.09 229.15,-266.59 145.12,-246"/>
<polygon fill="#63b8ff" stroke="#63b8ff" points="146.06,-242.63 135.52,-243.65 144.4,-249.43 146.06,-242.63"/>
</a>
</g>
</g>
<!-- Node27 -->
<g id="Node000027" class="node">
<title>Node27</title>
<g id="a_Node000027"><a xlink:href="core_2include_2msg_8h.html" target="_top" xlink:title="Messaging API for inter process communication.">
<polygon fill="white" stroke="#666666" points="819,-304.5 773,-304.5 773,-283.75 819,-283.75 819,-304.5"/>
<text text-anchor="middle" x="796" y="-291" font-family="Helvetica,sans-Serif" font-size="10.00">msg.h</text>
</a>
</g>
</g>
<!-- Node25&#45;&gt;Node27 -->
<g id="edge43_Node000025_Node000027" class="edge">
<title>Node25&#45;&gt;Node27</title>
<g id="a_edge43_Node000025_Node000027"><a xlink:title=" ">
<path fill="none" stroke="#63b8ff" d="M597.75,-342.94C639.48,-332.88 716.7,-314.25 761.46,-303.46"/>
<polygon fill="#63b8ff" stroke="#63b8ff" points="762.26,-306.86 771.16,-301.12 760.62,-300.06 762.26,-306.86"/>
</a>
</g>
</g>
<!-- Node28 -->
<g id="Node000028" class="node">
<title>Node28</title>
<g id="a_Node000028"><a xlink:href="thread__config_8h.html" target="_top" xlink:title="Thread configuration defines.">
<polygon fill="white" stroke="#666666" points="928.88,-304.5 837.12,-304.5 837.12,-283.75 928.88,-283.75 928.88,-304.5"/>
<text text-anchor="middle" x="883" y="-291" font-family="Helvetica,sans-Serif" font-size="10.00">thread_config.h</text>
</a>
</g>
</g>
<!-- Node25&#45;&gt;Node28 -->
<g id="edge48_Node000025_Node000028" class="edge">
<title>Node25&#45;&gt;Node28</title>
<g id="a_edge48_Node000025_Node000028"><a xlink:title=" ">
<path fill="none" stroke="#63b8ff" d="M597.7,-344.87C649.15,-335.9 757.99,-316.92 825.37,-305.17"/>
<polygon fill="#63b8ff" stroke="#63b8ff" points="825.89,-308.64 835.14,-303.47 824.69,-301.74 825.89,-308.64"/>
</a>
</g>
</g>
<!-- Node29 -->
<g id="Node000029" class="node">
<title>Node29</title>
<g id="a_Node000029"><a xlink:title=" ">
<polygon fill="#e0e0e0" stroke="#999999" points="679.38,-304.5 596.62,-304.5 596.62,-283.75 679.38,-283.75 679.38,-304.5"/>
<text text-anchor="middle" x="638" y="-291" font-family="Helvetica,sans-Serif" font-size="10.00">thread_arch.h</text>
</a>
</g>
</g>
<!-- Node25&#45;&gt;Node29 -->
<g id="edge51_Node000025_Node000029" class="edge">
<title>Node25&#45;&gt;Node29</title>
<g id="a_edge51_Node000025_Node000029"><a xlink:title=" ">
<path fill="none" stroke="#63b8ff" d="M581.34,-340.09C591.25,-332.22 605.39,-321 617.06,-311.74"/>
<polygon fill="#63b8ff" stroke="#63b8ff" points="618.93,-314.73 624.59,-305.77 614.58,-309.24 618.93,-314.73"/>
</a>
</g>
</g>
<!-- Node26&#45;&gt;Node15 -->
<g id="edge42_Node000026_Node000015" class="edge">
<title>Node26&#45;&gt;Node15</title>
<g id="a_edge42_Node000026_Node000015"><a xlink:title=" ">
<path fill="none" stroke="#63b8ff" d="M107.62,-226.87C99.77,-213.95 88.26,-190.16 95,-170.25 106.54,-136.13 134.54,-104.43 153.66,-85.67"/>
<polygon fill="#63b8ff" stroke="#63b8ff" points="156.03,-88.24 160.87,-78.81 151.21,-83.16 156.03,-88.24"/>
</a>
</g>
</g>
<!-- Node27&#45;&gt;Node2 -->
<g id="edge44_Node000027_Node000002" class="edge">
<title>Node27&#45;&gt;Node2</title>
<g id="a_edge44_Node000027_Node000002"><a xlink:title=" ">
<path fill="none" stroke="#63b8ff" d="M796,-283.28C796,-263.85 796,-219.18 796,-181.62 796,-181.62 796,-181.62 796,-122.88 796,-35.44 480.61,-16.39 369.88,-12.39"/>
<polygon fill="#63b8ff" stroke="#63b8ff" points="370.24,-8.9 360.13,-12.07 370,-15.9 370.24,-8.9"/>
</a>
</g>
</g>
<!-- Node27&#45;&gt;Node4 -->
<g id="edge45_Node000027_Node000004" class="edge">
<title>Node27&#45;&gt;Node4</title>
<g id="a_edge45_Node000027_Node000004"><a xlink:title=" ">
<path fill="none" stroke="#63b8ff" d="M800.3,-283.6C812.32,-257 846.41,-181.52 862.88,-145.07"/>
<polygon fill="#63b8ff" stroke="#63b8ff" points="866,-146.65 866.93,-136.1 859.62,-143.77 866,-146.65"/>
</a>
</g>
</g>
<!-- Node27&#45;&gt;Node8 -->
<g id="edge46_Node000027_Node000008" class="edge">
<title>Node27&#45;&gt;Node8</title>
<g id="a_edge46_Node000027_Node000008"><a xlink:title=" ">
<path fill="none" stroke="#63b8ff" d="M775.08,-283.34C757.03,-274.89 730.7,-262.57 710.16,-252.96"/>
<polygon fill="#63b8ff" stroke="#63b8ff" points="711.65,-249.79 701.11,-248.72 708.68,-256.13 711.65,-249.79"/>
</a>
</g>
</g>
<!-- Node28&#45;&gt;Node5 -->
<g id="edge49_Node000028_Node000005" class="edge">
<title>Node28&#45;&gt;Node5</title>
<g id="a_edge49_Node000028_Node000005"><a xlink:title=" ">
<path fill="none" stroke="#63b8ff" d="M895.16,-283.34C904.83,-275.55 918.58,-264.47 930.02,-255.26"/>
<polygon fill="#63b8ff" stroke="#63b8ff" points="932.18,-258.03 937.77,-249.03 927.79,-252.57 932.18,-258.03"/>
</a>
</g>
</g>
<!-- Node28&#45;&gt;Node8 -->
<g id="edge50_Node000028_Node000008" class="edge">
<title>Node28&#45;&gt;Node8</title>
<g id="a_edge50_Node000028_Node000008"><a xlink:title=" ">
<path fill="none" stroke="#63b8ff" d="M846.53,-283.34C809.97,-273.53 753.93,-258.49 716.88,-248.54"/>
<polygon fill="#63b8ff" stroke="#63b8ff" points="718.06,-245.24 707.5,-246.02 716.25,-252 718.06,-245.24"/>
</a>
</g>
</g>
<!-- Node30&#45;&gt;Node2 -->
<g id="edge53_Node000030_Node000002" class="edge">
<title>Node30&#45;&gt;Node2</title>
<g id="a_edge53_Node000030_Node000002"><a xlink:title=" ">
<path fill="none" stroke="#63b8ff" d="M933.16,-453.64C968.8,-430.79 1051,-370 1051,-295.12 1051,-295.12 1051,-295.12 1051,-122.88 1051,-53.31 518.63,-20.91 370.08,-13.22"/>
<polygon fill="#63b8ff" stroke="#63b8ff" points="370.55,-9.74 360.38,-12.72 370.19,-16.73 370.55,-9.74"/>
</a>
</g>
</g>
<!-- Node30&#45;&gt;Node8 -->
<g id="edge55_Node000030_Node000008" class="edge">
<title>Node30&#45;&gt;Node8</title>
<g id="a_edge55_Node000030_Node000008"><a xlink:title=" ">
<path fill="none" stroke="#63b8ff" d="M904.06,-453.76C872.68,-430.15 790.71,-366.68 731,-304.5 716.65,-289.56 702.24,-270.87 692.24,-257.18"/>
<polygon fill="#63b8ff" stroke="#63b8ff" points="695.08,-255.14 686.41,-249.06 689.4,-259.22 695.08,-255.14"/>
</a>
</g>
</g>
<!-- Node30&#45;&gt;Node21 -->
<g id="edge54_Node000030_Node000021" class="edge">
<title>Node30&#45;&gt;Node21</title>
<g id="a_edge54_Node000030_Node000021"><a xlink:title=" ">
<path fill="none" stroke="#63b8ff" d="M886.42,-455.66C883.58,-455.05 880.74,-454.49 878,-454 753.05,-431.7 603.26,-417.63 533.03,-411.77"/>
<polygon fill="#63b8ff" stroke="#63b8ff" points="533.43,-408.29 523.18,-410.96 532.85,-415.26 533.43,-408.29"/>
</a>
</g>
</g>
</g>
</svg>
