<?xml version="1.0" encoding="UTF-8" standalone="no"?>
<!DOCTYPE svg PUBLIC "-//W3C//DTD SVG 1.1//EN"
 "http://www.w3.org/Graphics/SVG/1.1/DTD/svg11.dtd">
<!-- Generated by graphviz version 12.1.1 (0)
 -->
<!-- Title: sys/include/bitfield.h Pages: 1 -->
<svg width="313pt" height="142pt"
 viewBox="0.00 0.00 313.25 142.25" xmlns="http://www.w3.org/2000/svg" xmlns:xlink="http://www.w3.org/1999/xlink">
<g id="graph0" class="graph" transform="scale(1 1) rotate(0) translate(4 138.25)">
<title>sys/include/bitfield.h</title>
<!-- Node1 -->
<g id="Node000001" class="node">
<title>Node1</title>
<g id="a_Node000001"><a xlink:title="bitfields operations on bitfields of arbitrary length">
<polygon fill="#999999" stroke="#666666" points="195,-134.25 77.75,-134.25 77.75,-113.5 195,-113.5 195,-134.25"/>
<text text-anchor="middle" x="136.38" y="-120.75" font-family="Helvetica,sans-Serif" font-size="10.00">sys/include/bitfield.h</text>
</a>
</g>
</g>
<!-- Node2 -->
<g id="Node000002" class="node">
<title>Node2</title>
<g id="a_Node000002"><a xlink:title=" ">
<polygon fill="#e0e0e0" stroke="#999999" points="52.75,-77.5 0,-77.5 0,-56.75 52.75,-56.75 52.75,-77.5"/>
<text text-anchor="middle" x="26.38" y="-64" font-family="Helvetica,sans-Serif" font-size="10.00">stdint.h</text>
</a>
</g>
</g>
<!-- Node1&#45;&gt;Node2 -->
<g id="edge1_Node000001_Node000002" class="edge">
<title>Node1&#45;&gt;Node2</title>
<g id="a_edge1_Node000001_Node000002"><a xlink:title=" ">
<path fill="none" stroke="#63b8ff" d="M116.71,-113.09C99.82,-104.68 75.21,-92.43 55.94,-82.84"/>
<polygon fill="#63b8ff" stroke="#63b8ff" points="57.74,-79.83 47.23,-78.5 54.62,-86.09 57.74,-79.83"/>
</a>
</g>
</g>
<!-- Node3 -->
<g id="Node000003" class="node">
<title>Node3</title>
<g id="a_Node000003"><a xlink:title=" ">
<polygon fill="#e0e0e0" stroke="#999999" points="165.88,-20.75 104.88,-20.75 104.88,0 165.88,0 165.88,-20.75"/>
<text text-anchor="middle" x="135.38" y="-7.25" font-family="Helvetica,sans-Serif" font-size="10.00">stdbool.h</text>
</a>
</g>
</g>
<!-- Node1&#45;&gt;Node3 -->
<g id="edge2_Node000001_Node000003" class="edge">
<title>Node1&#45;&gt;Node3</title>
<g id="a_edge2_Node000001_Node000003"><a xlink:title=" ">
<path fill="none" stroke="#63b8ff" d="M124.87,-113.03C116,-104.62 104.42,-91.67 99.38,-77.5 93.25,-60.29 104.54,-42.17 116.06,-29.25"/>
<polygon fill="#63b8ff" stroke="#63b8ff" points="118.35,-31.92 122.8,-22.31 113.32,-27.04 118.35,-31.92"/>
</a>
</g>
</g>
<!-- Node4 -->
<g id="Node000004" class="node">
<title>Node4</title>
<g id="a_Node000004"><a xlink:title=" ">
<polygon fill="#e0e0e0" stroke="#999999" points="163.88,-77.5 108.88,-77.5 108.88,-56.75 163.88,-56.75 163.88,-77.5"/>
<text text-anchor="middle" x="136.38" y="-64" font-family="Helvetica,sans-Serif" font-size="10.00">stddef.h</text>
</a>
</g>
</g>
<!-- Node1&#45;&gt;Node4 -->
<g id="edge3_Node000001_Node000004" class="edge">
<title>Node1&#45;&gt;Node4</title>
<g id="a_edge3_Node000001_Node000004"><a xlink:title=" ">
<path fill="none" stroke="#63b8ff" d="M136.38,-113.09C136.38,-106.47 136.38,-97.47 136.38,-89.27"/>
<polygon fill="#63b8ff" stroke="#63b8ff" points="139.88,-89.34 136.38,-79.34 132.88,-89.34 139.88,-89.34"/>
</a>
</g>
</g>
<!-- Node5 -->
<g id="Node000005" class="node">
<title>Node5</title>
<g id="a_Node000005"><a xlink:title=" ">
<polygon fill="#e0e0e0" stroke="#999999" points="234.75,-77.5 182,-77.5 182,-56.75 234.75,-56.75 234.75,-77.5"/>
<text text-anchor="middle" x="208.38" y="-64" font-family="Helvetica,sans-Serif" font-size="10.00">string.h</text>
</a>
</g>
</g>
<!-- Node1&#45;&gt;Node5 -->
<g id="edge4_Node000001_Node000005" class="edge">
<title>Node1&#45;&gt;Node5</title>
<g id="a_edge4_Node000001_Node000005"><a xlink:title=" ">
<path fill="none" stroke="#63b8ff" d="M149.25,-113.09C159.59,-105.22 174.34,-94 186.53,-84.74"/>
<polygon fill="#63b8ff" stroke="#63b8ff" points="188.57,-87.58 194.41,-78.74 184.33,-82.01 188.57,-87.58"/>
</a>
</g>
</g>
<!-- Node6 -->
<g id="Node000006" class="node">
<title>Node6</title>
<g id="a_Node000006"><a xlink:href="irq_8h.html" target="_top" xlink:title="IRQ driver interface.">
<polygon fill="white" stroke="#666666" points="290.25,-77.5 252.5,-77.5 252.5,-56.75 290.25,-56.75 290.25,-77.5"/>
<text text-anchor="middle" x="271.38" y="-64" font-family="Helvetica,sans-Serif" font-size="10.00">irq.h</text>
</a>
</g>
</g>
<!-- Node1&#45;&gt;Node6 -->
<g id="edge5_Node000001_Node000006" class="edge">
<title>Node1&#45;&gt;Node6</title>
<g id="a_edge5_Node000001_Node000006"><a xlink:title=" ">
<path fill="none" stroke="#63b8ff" d="M160.51,-113.09C183.27,-103.86 217.43,-90 241.81,-80.12"/>
<polygon fill="#63b8ff" stroke="#63b8ff" points="242.89,-83.45 250.84,-76.45 240.26,-76.97 242.89,-83.45"/>
</a>
</g>
</g>
<!-- Node6&#45;&gt;Node3 -->
<g id="edge6_Node000006_Node000003" class="edge">
<title>Node6&#45;&gt;Node3</title>
<g id="a_edge6_Node000006_Node000003"><a xlink:title=" ">
<path fill="none" stroke="#63b8ff" d="M252.18,-58.4C230.91,-49.83 196.17,-35.85 170.1,-25.35"/>
<polygon fill="#63b8ff" stroke="#63b8ff" points="171.51,-22.15 160.92,-21.66 168.89,-28.64 171.51,-22.15"/>
</a>
</g>
</g>
<!-- Node7 -->
<g id="Node000007" class="node">
<title>Node7</title>
<g id="a_Node000007"><a xlink:title=" ">
<polygon fill="#e0e0e0" stroke="#999999" points="305.25,-20.75 237.5,-20.75 237.5,0 305.25,0 305.25,-20.75"/>
<text text-anchor="middle" x="271.38" y="-7.25" font-family="Helvetica,sans-Serif" font-size="10.00">cpu_conf.h</text>
</a>
</g>
</g>
<!-- Node6&#45;&gt;Node7 -->
<g id="edge7_Node000006_Node000007" class="edge">
<title>Node6&#45;&gt;Node7</title>
<g id="a_edge7_Node000006_Node000007"><a xlink:title=" ">
<path fill="none" stroke="#63b8ff" d="M271.38,-56.34C271.38,-49.72 271.38,-40.72 271.38,-32.52"/>
<polygon fill="#63b8ff" stroke="#63b8ff" points="274.88,-32.59 271.38,-22.59 267.88,-32.59 274.88,-32.59"/>
</a>
</g>
</g>
</g>
</svg>
