<?xml version="1.0" encoding="UTF-8" standalone="no"?>
<!DOCTYPE svg PUBLIC "-//W3C//DTD SVG 1.1//EN"
 "http://www.w3.org/Graphics/SVG/1.1/DTD/svg11.dtd">
<!-- Generated by graphviz version 12.1.1 (0)
 -->
<!-- Title: sys/include/net/gnrc/ipv6/blacklist.h Pages: 1 -->
<svg width="384pt" height="325pt"
 viewBox="0.00 0.00 383.88 325.25" xmlns="http://www.w3.org/2000/svg" xmlns:xlink="http://www.w3.org/1999/xlink">
<g id="graph0" class="graph" transform="scale(1 1) rotate(0) translate(4 321.25)">
<title>sys/include/net/gnrc/ipv6/blacklist.h</title>
<!-- Node1 -->
<g id="Node000001" class="node">
<title>Node1</title>
<g id="a_Node000001"><a xlink:title="IPv6 blacklist definitions.">
<polygon fill="#999999" stroke="#666666" points="342.12,-317.25 228.62,-317.25 228.62,-283.75 342.12,-283.75 342.12,-317.25"/>
<text text-anchor="start" x="236.62" y="-303.75" font-family="Helvetica,sans-Serif" font-size="10.00">sys/include/net/gnrc</text>
<text text-anchor="middle" x="285.38" y="-291" font-family="Helvetica,sans-Serif" font-size="10.00">/ipv6/blacklist.h</text>
</a>
</g>
</g>
<!-- Node2 -->
<g id="Node000002" class="node">
<title>Node2</title>
<g id="a_Node000002"><a xlink:title=" ">
<polygon fill="#e0e0e0" stroke="#999999" points="375.88,-134.25 314.88,-134.25 314.88,-113.5 375.88,-113.5 375.88,-134.25"/>
<text text-anchor="middle" x="345.38" y="-120.75" font-family="Helvetica,sans-Serif" font-size="10.00">stdbool.h</text>
</a>
</g>
</g>
<!-- Node1&#45;&gt;Node2 -->
<g id="edge1_Node000001_Node000002" class="edge">
<title>Node1&#45;&gt;Node2</title>
<g id="a_edge1_Node000001_Node000002"><a xlink:title=" ">
<path fill="none" stroke="#63b8ff" d="M290.91,-283.38C301.86,-251.51 326.27,-180.47 338.34,-145.35"/>
<polygon fill="#63b8ff" stroke="#63b8ff" points="341.62,-146.57 341.56,-135.98 335,-144.3 341.62,-146.57"/>
</a>
</g>
</g>
<!-- Node3 -->
<g id="Node000003" class="node">
<title>Node3</title>
<g id="a_Node000003"><a xlink:href="ipv6_2addr_8h.html" target="_top" xlink:title="Definitions for IPv6 addresses.">
<polygon fill="white" stroke="#666666" points="275.12,-247.75 185.62,-247.75 185.62,-227 275.12,-227 275.12,-247.75"/>
<text text-anchor="middle" x="230.38" y="-234.25" font-family="Helvetica,sans-Serif" font-size="10.00">net/ipv6/addr.h</text>
</a>
</g>
</g>
<!-- Node1&#45;&gt;Node3 -->
<g id="edge2_Node000001_Node000003" class="edge">
<title>Node1&#45;&gt;Node3</title>
<g id="a_edge2_Node000001_Node000003"><a xlink:title=" ">
<path fill="none" stroke="#63b8ff" d="M270.92,-283.44C263.54,-275.23 254.52,-265.21 246.86,-256.7"/>
<polygon fill="#63b8ff" stroke="#63b8ff" points="249.53,-254.43 240.24,-249.34 244.33,-259.12 249.53,-254.43"/>
</a>
</g>
</g>
<!-- Node3&#45;&gt;Node2 -->
<g id="edge3_Node000003_Node000002" class="edge">
<title>Node3&#45;&gt;Node2</title>
<g id="a_edge3_Node000003_Node000002"><a xlink:title=" ">
<path fill="none" stroke="#63b8ff" d="M242.77,-226.71C253.96,-217.8 270.74,-204.02 284.38,-191 300.53,-175.58 317.67,-156.75 329.65,-143.14"/>
<polygon fill="#63b8ff" stroke="#63b8ff" points="332.12,-145.63 336.06,-135.79 326.85,-141.03 332.12,-145.63"/>
</a>
</g>
</g>
<!-- Node4 -->
<g id="Node000004" class="node">
<title>Node4</title>
<g id="a_Node000004"><a xlink:title=" ">
<polygon fill="#e0e0e0" stroke="#999999" points="52.75,-77.5 0,-77.5 0,-56.75 52.75,-56.75 52.75,-77.5"/>
<text text-anchor="middle" x="26.38" y="-64" font-family="Helvetica,sans-Serif" font-size="10.00">string.h</text>
</a>
</g>
</g>
<!-- Node3&#45;&gt;Node4 -->
<g id="edge4_Node000003_Node000004" class="edge">
<title>Node3&#45;&gt;Node4</title>
<g id="a_edge4_Node000003_Node000004"><a xlink:title=" ">
<path fill="none" stroke="#63b8ff" d="M212.9,-226.6C197.93,-217.95 176.06,-204.61 158.38,-191 114.18,-156.99 67.58,-110.82 43.32,-85.88"/>
<polygon fill="#63b8ff" stroke="#63b8ff" points="45.95,-83.56 36.49,-78.8 40.91,-88.43 45.95,-83.56"/>
</a>
</g>
</g>
<!-- Node5 -->
<g id="Node000005" class="node">
<title>Node5</title>
<g id="a_Node000005"><a xlink:href="byteorder_8h.html" target="_top" xlink:title="Functions to work with different byte orders.">
<polygon fill="white" stroke="#666666" points="178.5,-134.25 106.25,-134.25 106.25,-113.5 178.5,-113.5 178.5,-134.25"/>
<text text-anchor="middle" x="142.38" y="-120.75" font-family="Helvetica,sans-Serif" font-size="10.00">byteorder.h</text>
</a>
</g>
</g>
<!-- Node3&#45;&gt;Node5 -->
<g id="edge5_Node000003_Node000005" class="edge">
<title>Node3&#45;&gt;Node5</title>
<g id="a_edge5_Node000003_Node000005"><a xlink:title=" ">
<path fill="none" stroke="#63b8ff" d="M215.69,-226.53C203.96,-218.12 187.68,-205.17 176.38,-191 165.18,-176.97 156.11,-158.67 150.17,-144.88"/>
<polygon fill="#63b8ff" stroke="#63b8ff" points="153.54,-143.87 146.5,-135.95 147.06,-146.53 153.54,-143.87"/>
</a>
</g>
</g>
<!-- Node9 -->
<g id="Node000009" class="node">
<title>Node9</title>
<g id="a_Node000009"><a xlink:href="ipv4_2addr_8h.html" target="_top" xlink:title="IPv4 address type and helper functions definitions.">
<polygon fill="white" stroke="#666666" points="275.12,-191 185.62,-191 185.62,-170.25 275.12,-170.25 275.12,-191"/>
<text text-anchor="middle" x="230.38" y="-177.5" font-family="Helvetica,sans-Serif" font-size="10.00">net/ipv4/addr.h</text>
</a>
</g>
</g>
<!-- Node3&#45;&gt;Node9 -->
<g id="edge12_Node000003_Node000009" class="edge">
<title>Node3&#45;&gt;Node9</title>
<g id="a_edge12_Node000003_Node000009"><a xlink:title=" ">
<path fill="none" stroke="#63b8ff" d="M230.38,-226.59C230.38,-219.97 230.38,-210.97 230.38,-202.77"/>
<polygon fill="#63b8ff" stroke="#63b8ff" points="233.88,-202.84 230.38,-192.84 226.88,-202.84 233.88,-202.84"/>
</a>
</g>
</g>
<!-- Node5&#45;&gt;Node4 -->
<g id="edge6_Node000005_Node000004" class="edge">
<title>Node5&#45;&gt;Node4</title>
<g id="a_edge6_Node000005_Node000004"><a xlink:title=" ">
<path fill="none" stroke="#63b8ff" d="M121.64,-113.09C103.74,-104.64 77.63,-92.32 57.27,-82.71"/>
<polygon fill="#63b8ff" stroke="#63b8ff" points="58.84,-79.58 48.3,-78.47 55.85,-85.91 58.84,-79.58"/>
</a>
</g>
</g>
<!-- Node6 -->
<g id="Node000006" class="node">
<title>Node6</title>
<g id="a_Node000006"><a xlink:title=" ">
<polygon fill="#e0e0e0" stroke="#999999" points="205.75,-20.75 153,-20.75 153,0 205.75,0 205.75,-20.75"/>
<text text-anchor="middle" x="179.38" y="-7.25" font-family="Helvetica,sans-Serif" font-size="10.00">stdint.h</text>
</a>
</g>
</g>
<!-- Node5&#45;&gt;Node6 -->
<g id="edge7_Node000005_Node000006" class="edge">
<title>Node5&#45;&gt;Node6</title>
<g id="a_edge7_Node000005_Node000006"><a xlink:title=" ">
<path fill="none" stroke="#63b8ff" d="M128.27,-113.21C111.56,-100.49 87.38,-77.34 99.38,-56.75 108.74,-40.68 126.14,-29.84 142.33,-22.8"/>
<polygon fill="#63b8ff" stroke="#63b8ff" points="143.28,-26.19 151.29,-19.26 140.71,-19.67 143.28,-26.19"/>
</a>
</g>
</g>
<!-- Node7 -->
<g id="Node000007" class="node">
<title>Node7</title>
<g id="a_Node000007"><a xlink:href="endian_8h.html" target="_top" xlink:title="libc header for endian conversion">
<polygon fill="white" stroke="#666666" points="166.38,-77.5 108.38,-77.5 108.38,-56.75 166.38,-56.75 166.38,-77.5"/>
<text text-anchor="middle" x="137.38" y="-64" font-family="Helvetica,sans-Serif" font-size="10.00">endian.h</text>
</a>
</g>
</g>
<!-- Node5&#45;&gt;Node7 -->
<g id="edge8_Node000005_Node000007" class="edge">
<title>Node5&#45;&gt;Node7</title>
<g id="a_edge8_Node000005_Node000007"><a xlink:title=" ">
<path fill="none" stroke="#63b8ff" d="M141.48,-113.09C140.88,-106.47 140.06,-97.47 139.31,-89.27"/>
<polygon fill="#63b8ff" stroke="#63b8ff" points="142.79,-88.98 138.4,-79.34 135.82,-89.61 142.79,-88.98"/>
</a>
</g>
</g>
<!-- Node8 -->
<g id="Node000008" class="node">
<title>Node8</title>
<g id="a_Node000008"><a xlink:href="unaligned_8h.html" target="_top" xlink:title="Unaligned but safe memory access functions.">
<polygon fill="white" stroke="#666666" points="257.88,-77.5 184.88,-77.5 184.88,-56.75 257.88,-56.75 257.88,-77.5"/>
<text text-anchor="middle" x="221.38" y="-64" font-family="Helvetica,sans-Serif" font-size="10.00">unaligned.h</text>
</a>
</g>
</g>
<!-- Node5&#45;&gt;Node8 -->
<g id="edge10_Node000005_Node000008" class="edge">
<title>Node5&#45;&gt;Node8</title>
<g id="a_edge10_Node000005_Node000008"><a xlink:title=" ">
<path fill="none" stroke="#63b8ff" d="M156.5,-113.09C168.07,-105.07 184.68,-93.56 198.19,-84.19"/>
<polygon fill="#63b8ff" stroke="#63b8ff" points="199.9,-87.26 206.13,-78.69 195.92,-81.51 199.9,-87.26"/>
</a>
</g>
</g>
<!-- Node7&#45;&gt;Node6 -->
<g id="edge9_Node000007_Node000006" class="edge">
<title>Node7&#45;&gt;Node6</title>
<g id="a_edge9_Node000007_Node000006"><a xlink:title=" ">
<path fill="none" stroke="#63b8ff" d="M144.88,-56.34C150.5,-49.02 158.34,-38.79 165.13,-29.94"/>
<polygon fill="#63b8ff" stroke="#63b8ff" points="167.7,-32.34 171.01,-22.28 162.15,-28.08 167.7,-32.34"/>
</a>
</g>
</g>
<!-- Node8&#45;&gt;Node6 -->
<g id="edge11_Node000008_Node000006" class="edge">
<title>Node8&#45;&gt;Node6</title>
<g id="a_edge11_Node000008_Node000006"><a xlink:title=" ">
<path fill="none" stroke="#63b8ff" d="M213.87,-56.34C208.25,-49.02 200.41,-38.79 193.62,-29.94"/>
<polygon fill="#63b8ff" stroke="#63b8ff" points="196.6,-28.08 187.74,-22.28 191.05,-32.34 196.6,-28.08"/>
</a>
</g>
</g>
<!-- Node9&#45;&gt;Node2 -->
<g id="edge13_Node000009_Node000002" class="edge">
<title>Node9&#45;&gt;Node2</title>
<g id="a_edge13_Node000009_Node000002"><a xlink:title=" ">
<path fill="none" stroke="#63b8ff" d="M250.93,-169.84C268.68,-161.39 294.56,-149.07 314.74,-139.46"/>
<polygon fill="#63b8ff" stroke="#63b8ff" points="316.1,-142.69 323.63,-135.23 313.09,-136.37 316.1,-142.69"/>
</a>
</g>
</g>
<!-- Node9&#45;&gt;Node5 -->
<g id="edge16_Node000009_Node000005" class="edge">
<title>Node9&#45;&gt;Node5</title>
<g id="a_edge16_Node000009_Node000005"><a xlink:title=" ">
<path fill="none" stroke="#63b8ff" d="M214.64,-169.84C201.5,-161.66 182.53,-149.86 167.32,-140.4"/>
<polygon fill="#63b8ff" stroke="#63b8ff" points="169.6,-137.69 159.26,-135.38 165.9,-143.63 169.6,-137.69"/>
</a>
</g>
</g>
<!-- Node9&#45;&gt;Node6 -->
<g id="edge14_Node000009_Node000006" class="edge">
<title>Node9&#45;&gt;Node6</title>
<g id="a_edge14_Node000009_Node000006"><a xlink:title=" ">
<path fill="none" stroke="#63b8ff" d="M241.88,-169.78C250.75,-161.37 262.33,-148.42 267.38,-134.25 278.93,-101.8 285.3,-86.16 267.38,-56.75 256.36,-38.68 235.58,-27.49 216.98,-20.75"/>
<polygon fill="#63b8ff" stroke="#63b8ff" points="218.11,-17.44 207.52,-17.66 215.94,-24.09 218.11,-17.44"/>
</a>
</g>
</g>
<!-- Node10 -->
<g id="Node000010" class="node">
<title>Node10</title>
<g id="a_Node000010"><a xlink:title=" ">
<polygon fill="#e0e0e0" stroke="#999999" points="257.88,-134.25 202.88,-134.25 202.88,-113.5 257.88,-113.5 257.88,-134.25"/>
<text text-anchor="middle" x="230.38" y="-120.75" font-family="Helvetica,sans-Serif" font-size="10.00">stddef.h</text>
</a>
</g>
</g>
<!-- Node9&#45;&gt;Node10 -->
<g id="edge15_Node000009_Node000010" class="edge">
<title>Node9&#45;&gt;Node10</title>
<g id="a_edge15_Node000009_Node000010"><a xlink:title=" ">
<path fill="none" stroke="#63b8ff" d="M230.38,-169.84C230.38,-163.22 230.38,-154.22 230.38,-146.02"/>
<polygon fill="#63b8ff" stroke="#63b8ff" points="233.88,-146.09 230.38,-136.09 226.88,-146.09 233.88,-146.09"/>
</a>
</g>
</g>
</g>
</svg>
