<?xml version="1.0" encoding="UTF-8" standalone="no"?>
<!DOCTYPE svg PUBLIC "-//W3C//DTD SVG 1.1//EN"
 "http://www.w3.org/Graphics/SVG/1.1/DTD/svg11.dtd">
<!-- Generated by graphviz version 12.1.1 (0)
 -->
<!-- Title: sys/include/bloom.h Pages: 1 -->
<svg width="210pt" height="86pt"
 viewBox="0.00 0.00 210.38 85.50" xmlns="http://www.w3.org/2000/svg" xmlns:xlink="http://www.w3.org/1999/xlink">
<g id="graph0" class="graph" transform="scale(1 1) rotate(0) translate(4 81.5)">
<title>sys/include/bloom.h</title>
<!-- Node1 -->
<g id="Node000001" class="node">
<title>Node1</title>
<g id="a_Node000001"><a xlink:title="Bloom filter API.">
<polygon fill="#999999" stroke="#666666" points="157.75,-77.5 44.25,-77.5 44.25,-56.75 157.75,-56.75 157.75,-77.5"/>
<text text-anchor="middle" x="101" y="-64" font-family="Helvetica,sans-Serif" font-size="10.00">sys/include/bloom.h</text>
</a>
</g>
</g>
<!-- Node2 -->
<g id="Node000002" class="node">
<title>Node2</title>
<g id="a_Node000002"><a xlink:title=" ">
<polygon fill="#e0e0e0" stroke="#999999" points="52,-20.75 0,-20.75 0,0 52,0 52,-20.75"/>
<text text-anchor="middle" x="26" y="-7.25" font-family="Helvetica,sans-Serif" font-size="10.00">stdlib.h</text>
</a>
</g>
</g>
<!-- Node1&#45;&gt;Node2 -->
<g id="edge1_Node000001_Node000002" class="edge">
<title>Node1&#45;&gt;Node2</title>
<g id="a_edge1_Node000001_Node000002"><a xlink:title=" ">
<path fill="none" stroke="#63b8ff" d="M87.59,-56.34C76.71,-48.4 61.14,-37.03 48.38,-27.71"/>
<polygon fill="#63b8ff" stroke="#63b8ff" points="50.66,-25.04 40.51,-21.97 46.53,-30.69 50.66,-25.04"/>
</a>
</g>
</g>
<!-- Node3 -->
<g id="Node000003" class="node">
<title>Node3</title>
<g id="a_Node000003"><a xlink:title=" ">
<polygon fill="#e0e0e0" stroke="#999999" points="131.5,-20.75 70.5,-20.75 70.5,0 131.5,0 131.5,-20.75"/>
<text text-anchor="middle" x="101" y="-7.25" font-family="Helvetica,sans-Serif" font-size="10.00">stdbool.h</text>
</a>
</g>
</g>
<!-- Node1&#45;&gt;Node3 -->
<g id="edge2_Node000001_Node000003" class="edge">
<title>Node1&#45;&gt;Node3</title>
<g id="a_edge2_Node000001_Node000003"><a xlink:title=" ">
<path fill="none" stroke="#63b8ff" d="M101,-56.34C101,-49.72 101,-40.72 101,-32.52"/>
<polygon fill="#63b8ff" stroke="#63b8ff" points="104.5,-32.59 101,-22.59 97.5,-32.59 104.5,-32.59"/>
</a>
</g>
</g>
<!-- Node4 -->
<g id="Node000004" class="node">
<title>Node4</title>
<g id="a_Node000004"><a xlink:title=" ">
<polygon fill="#e0e0e0" stroke="#999999" points="202.38,-20.75 149.62,-20.75 149.62,0 202.38,0 202.38,-20.75"/>
<text text-anchor="middle" x="176" y="-7.25" font-family="Helvetica,sans-Serif" font-size="10.00">stdint.h</text>
</a>
</g>
</g>
<!-- Node1&#45;&gt;Node4 -->
<g id="edge3_Node000001_Node000004" class="edge">
<title>Node1&#45;&gt;Node4</title>
<g id="a_edge3_Node000001_Node000004"><a xlink:title=" ">
<path fill="none" stroke="#63b8ff" d="M114.41,-56.34C125.29,-48.4 140.86,-37.03 153.62,-27.71"/>
<polygon fill="#63b8ff" stroke="#63b8ff" points="155.47,-30.69 161.49,-21.97 151.34,-25.04 155.47,-30.69"/>
</a>
</g>
</g>
</g>
</svg>
