<?xml version="1.0" encoding="UTF-8" standalone="no"?>
<!DOCTYPE svg PUBLIC "-//W3C//DTD SVG 1.1//EN"
 "http://www.w3.org/Graphics/SVG/1.1/DTD/svg11.dtd">
<!-- Generated by graphviz version 12.1.1 (0)
 -->
<!-- Title: sys/include/net/bluetil/addr.h Pages: 1 -->
<svg width="138pt" height="98pt"
 viewBox="0.00 0.00 137.75 98.25" xmlns="http://www.w3.org/2000/svg" xmlns:xlink="http://www.w3.org/1999/xlink">
<g id="graph0" class="graph" transform="scale(1 1) rotate(0) translate(4 94.25)">
<title>sys/include/net/bluetil/addr.h</title>
<!-- Node1 -->
<g id="Node000001" class="node">
<title>Node1</title>
<g id="a_Node000001"><a xlink:title="Interface for the generic BLE address helper functions.">
<polygon fill="#999999" stroke="#666666" points="125,-90.25 1.75,-90.25 1.75,-56.75 125,-56.75 125,-90.25"/>
<text text-anchor="start" x="9.75" y="-76.75" font-family="Helvetica,sans-Serif" font-size="10.00">sys/include/net/bluetil</text>
<text text-anchor="middle" x="63.38" y="-64" font-family="Helvetica,sans-Serif" font-size="10.00">/addr.h</text>
</a>
</g>
</g>
<!-- Node2 -->
<g id="Node000002" class="node">
<title>Node2</title>
<g id="a_Node000002"><a xlink:title=" ">
<polygon fill="#e0e0e0" stroke="#999999" points="52.75,-20.75 0,-20.75 0,0 52.75,0 52.75,-20.75"/>
<text text-anchor="middle" x="26.38" y="-7.25" font-family="Helvetica,sans-Serif" font-size="10.00">stdint.h</text>
</a>
</g>
</g>
<!-- Node1&#45;&gt;Node2 -->
<g id="edge1_Node000001_Node000002" class="edge">
<title>Node1&#45;&gt;Node2</title>
<g id="a_edge1_Node000001_Node000002"><a xlink:title=" ">
<path fill="none" stroke="#63b8ff" d="M53.65,-56.44C48.9,-48.58 43.13,-39.06 38.13,-30.79"/>
<polygon fill="#63b8ff" stroke="#63b8ff" points="41.29,-29.25 33.12,-22.51 35.3,-32.88 41.29,-29.25"/>
</a>
</g>
</g>
<!-- Node3 -->
<g id="Node000003" class="node">
<title>Node3</title>
<g id="a_Node000003"><a xlink:href="sys_2include_2net_2ble_8h.html" target="_top" xlink:title="General BLE values as defined by the BT standard.">
<polygon fill="white" stroke="#666666" points="129.75,-20.75 71,-20.75 71,0 129.75,0 129.75,-20.75"/>
<text text-anchor="middle" x="100.38" y="-7.25" font-family="Helvetica,sans-Serif" font-size="10.00">net/ble.h</text>
</a>
</g>
</g>
<!-- Node1&#45;&gt;Node3 -->
<g id="edge2_Node000001_Node000003" class="edge">
<title>Node1&#45;&gt;Node3</title>
<g id="a_edge2_Node000001_Node000003"><a xlink:title=" ">
<path fill="none" stroke="#63b8ff" d="M73.1,-56.44C77.85,-48.58 83.62,-39.06 88.62,-30.79"/>
<polygon fill="#63b8ff" stroke="#63b8ff" points="91.45,-32.88 93.63,-22.51 85.46,-29.25 91.45,-32.88"/>
</a>
</g>
</g>
</g>
</svg>
