<?xml version="1.0" encoding="UTF-8" standalone="no"?>
<!DOCTYPE svg PUBLIC "-//W3C//DTD SVG 1.1//EN"
 "http://www.w3.org/Graphics/SVG/1.1/DTD/svg11.dtd">
<!-- Generated by graphviz version 12.1.1 (0)
 -->
<!-- Title: pkg/driver_bme680/include/bme680_hal.h Pages: 1 -->
<svg width="157pt" height="168pt"
 viewBox="0.00 0.00 156.75 167.75" xmlns="http://www.w3.org/2000/svg" xmlns:xlink="http://www.w3.org/1999/xlink">
<g id="graph0" class="graph" transform="scale(1 1) rotate(0) translate(4 163.75)">
<title>pkg/driver_bme680/include/bme680_hal.h</title>
<!-- Node1 -->
<g id="Node000001" class="node">
<title>Node1</title>
<g id="a_Node000001"><a xlink:title="Abstraction layer for RIOT adaption.">
<polygon fill="#999999" stroke="#666666" points="148.75,-159.75 0,-159.75 0,-126.25 148.75,-126.25 148.75,-159.75"/>
<text text-anchor="start" x="8" y="-146.25" font-family="Helvetica,sans-Serif" font-size="10.00">pkg/driver_bme680/include</text>
<text text-anchor="middle" x="74.38" y="-133.5" font-family="Helvetica,sans-Serif" font-size="10.00">/bme680_hal.h</text>
</a>
</g>
</g>
<!-- Node2 -->
<g id="Node000002" class="node">
<title>Node2</title>
<g id="a_Node000002"><a xlink:href="bme680_8h.html" target="_top" xlink:title="Interface definition for the Bosch BME680 sensor.">
<polygon fill="white" stroke="#666666" points="144.25,-90.25 4.5,-90.25 4.5,-69.5 144.25,-69.5 144.25,-90.25"/>
<text text-anchor="middle" x="74.38" y="-76.75" font-family="Helvetica,sans-Serif" font-size="10.00">drivers/include/bme680.h</text>
</a>
</g>
</g>
<!-- Node1&#45;&gt;Node2 -->
<g id="edge1_Node000001_Node000002" class="edge">
<title>Node1&#45;&gt;Node2</title>
<g id="a_edge1_Node000001_Node000002"><a xlink:title=" ">
<path fill="none" stroke="#63b8ff" d="M74.38,-114.44C74.38,-105.96 74.38,-97.17 74.38,-90.72"/>
<polygon fill="#63b8ff" stroke="#63b8ff" points="70.88,-114.43 74.38,-124.43 77.88,-114.43 70.88,-114.43"/>
</a>
</g>
</g>
<!-- Node3 -->
<g id="Node000003" class="node">
<title>Node3</title>
<g id="a_Node000003"><a xlink:href="bme680__params_8h.html" target="_top" xlink:title="Default configuration for BME680 device driver.">
<polygon fill="white" stroke="#666666" points="139.75,-33.5 9,-33.5 9,0 139.75,0 139.75,-33.5"/>
<text text-anchor="start" x="17" y="-20" font-family="Helvetica,sans-Serif" font-size="10.00">drivers/bme680/include</text>
<text text-anchor="middle" x="74.38" y="-7.25" font-family="Helvetica,sans-Serif" font-size="10.00">/bme680_params.h</text>
</a>
</g>
</g>
<!-- Node2&#45;&gt;Node3 -->
<g id="edge2_Node000002_Node000003" class="edge">
<title>Node2&#45;&gt;Node3</title>
<g id="a_edge2_Node000002_Node000003"><a xlink:title=" ">
<path fill="none" stroke="#63b8ff" d="M74.38,-57.59C74.38,-49.85 74.38,-41.22 74.38,-33.98"/>
<polygon fill="#63b8ff" stroke="#63b8ff" points="70.88,-57.54 74.38,-67.54 77.88,-57.54 70.88,-57.54"/>
</a>
</g>
</g>
</g>
</svg>
