<?xml version="1.0" encoding="UTF-8" standalone="no"?>
<!DOCTYPE svg PUBLIC "-//W3C//DTD SVG 1.1//EN"
 "http://www.w3.org/Graphics/SVG/1.1/DTD/svg11.dtd">
<!-- Generated by graphviz version 12.1.1 (0)
 -->
<!-- Title: drivers/bmx280/include/bmx280_params.h Pages: 1 -->
<svg width="720pt" height="212pt"
 viewBox="0.00 0.00 720.38 211.75" xmlns="http://www.w3.org/2000/svg" xmlns:xlink="http://www.w3.org/1999/xlink">
<g id="graph0" class="graph" transform="scale(1 1) rotate(0) translate(4 207.75)">
<title>drivers/bmx280/include/bmx280_params.h</title>
<!-- Node1 -->
<g id="Node000001" class="node">
<title>Node1</title>
<g id="a_Node000001"><a xlink:title="Default configuration for BMX280.">
<polygon fill="#999999" stroke="#666666" points="309.62,-203.75 178.88,-203.75 178.88,-170.25 309.62,-170.25 309.62,-203.75"/>
<text text-anchor="start" x="186.88" y="-190.25" font-family="Helvetica,sans-Serif" font-size="10.00">drivers/bmx280/include</text>
<text text-anchor="middle" x="244.25" y="-177.5" font-family="Helvetica,sans-Serif" font-size="10.00">/bmx280_params.h</text>
</a>
</g>
</g>
<!-- Node2 -->
<g id="Node000002" class="node">
<title>Node2</title>
<g id="a_Node000002"><a xlink:title=" ">
<polygon fill="#e0e0e0" stroke="#999999" points="193.62,-134.25 140.88,-134.25 140.88,-113.5 193.62,-113.5 193.62,-134.25"/>
<text text-anchor="middle" x="167.25" y="-120.75" font-family="Helvetica,sans-Serif" font-size="10.00">board.h</text>
</a>
</g>
</g>
<!-- Node1&#45;&gt;Node2 -->
<g id="edge1_Node000001_Node000002" class="edge">
<title>Node1&#45;&gt;Node2</title>
<g id="a_edge1_Node000001_Node000002"><a xlink:title=" ">
<path fill="none" stroke="#63b8ff" d="M224.02,-169.94C213.13,-161.3 199.7,-150.63 188.64,-141.85"/>
<polygon fill="#63b8ff" stroke="#63b8ff" points="190.84,-139.13 180.83,-135.66 186.49,-144.62 190.84,-139.13"/>
</a>
</g>
</g>
<!-- Node3 -->
<g id="Node000003" class="node">
<title>Node3</title>
<g id="a_Node000003"><a xlink:href="bmx280_8h.html" target="_top" xlink:title="Device driver interface for the BMP280 and BME280 sensors.">
<polygon fill="white" stroke="#666666" points="276.62,-134.25 211.88,-134.25 211.88,-113.5 276.62,-113.5 276.62,-134.25"/>
<text text-anchor="middle" x="244.25" y="-120.75" font-family="Helvetica,sans-Serif" font-size="10.00">bmx280.h</text>
</a>
</g>
</g>
<!-- Node1&#45;&gt;Node3 -->
<g id="edge2_Node000001_Node000003" class="edge">
<title>Node1&#45;&gt;Node3</title>
<g id="a_edge2_Node000001_Node000003"><a xlink:title=" ">
<path fill="none" stroke="#63b8ff" d="M244.25,-169.94C244.25,-162.6 244.25,-153.82 244.25,-145.96"/>
<polygon fill="#63b8ff" stroke="#63b8ff" points="247.75,-146.23 244.25,-136.23 240.75,-146.23 247.75,-146.23"/>
</a>
</g>
</g>
<!-- Node14 -->
<g id="Node000014" class="node">
<title>Node14</title>
<g id="a_Node000014"><a xlink:href="saul__reg_8h.html" target="_top" xlink:title="SAUL registry interface definition.">
<polygon fill="white" stroke="#666666" points="366.38,-134.25 300.12,-134.25 300.12,-113.5 366.38,-113.5 366.38,-134.25"/>
<text text-anchor="middle" x="333.25" y="-120.75" font-family="Helvetica,sans-Serif" font-size="10.00">saul_reg.h</text>
</a>
</g>
</g>
<!-- Node1&#45;&gt;Node14 -->
<g id="edge15_Node000001_Node000014" class="edge">
<title>Node1&#45;&gt;Node14</title>
<g id="a_edge15_Node000001_Node000014"><a xlink:title=" ">
<path fill="none" stroke="#63b8ff" d="M267.63,-169.94C280.6,-161.03 296.69,-149.99 309.68,-141.06"/>
<polygon fill="#63b8ff" stroke="#63b8ff" points="311.41,-144.12 317.67,-135.57 307.45,-138.35 311.41,-144.12"/>
</a>
</g>
</g>
<!-- Node4 -->
<g id="Node000004" class="node">
<title>Node4</title>
<g id="a_Node000004"><a xlink:title=" ">
<polygon fill="#e0e0e0" stroke="#999999" points="287.62,-20.75 234.88,-20.75 234.88,0 287.62,0 287.62,-20.75"/>
<text text-anchor="middle" x="261.25" y="-7.25" font-family="Helvetica,sans-Serif" font-size="10.00">stdint.h</text>
</a>
</g>
</g>
<!-- Node3&#45;&gt;Node4 -->
<g id="edge3_Node000003_Node000004" class="edge">
<title>Node3&#45;&gt;Node4</title>
<g id="a_edge3_Node000003_Node000004"><a xlink:title=" ">
<path fill="none" stroke="#63b8ff" d="M245.7,-113.37C248.42,-95.52 254.35,-56.61 258.05,-32.34"/>
<polygon fill="#63b8ff" stroke="#63b8ff" points="261.48,-33.08 259.53,-22.67 254.56,-32.03 261.48,-33.08"/>
</a>
</g>
</g>
<!-- Node5 -->
<g id="Node000005" class="node">
<title>Node5</title>
<g id="a_Node000005"><a xlink:href="drivers_2include_2saul_8h.html" target="_top" xlink:title="Definition of the generic [S]ensor [A]ctuator [U]ber [L]ayer.">
<polygon fill="white" stroke="#666666" points="203.88,-77.5 158.62,-77.5 158.62,-56.75 203.88,-56.75 203.88,-77.5"/>
<text text-anchor="middle" x="181.25" y="-64" font-family="Helvetica,sans-Serif" font-size="10.00">saul.h</text>
</a>
</g>
</g>
<!-- Node3&#45;&gt;Node5 -->
<g id="edge4_Node000003_Node000005" class="edge">
<title>Node3&#45;&gt;Node5</title>
<g id="a_edge4_Node000003_Node000005"><a xlink:title=" ">
<path fill="none" stroke="#63b8ff" d="M232.99,-113.09C224.12,-105.38 211.54,-94.45 201,-85.29"/>
<polygon fill="#63b8ff" stroke="#63b8ff" points="203.4,-82.74 193.56,-78.82 198.81,-88.02 203.4,-82.74"/>
</a>
</g>
</g>
<!-- Node9 -->
<g id="Node000009" class="node">
<title>Node9</title>
<g id="a_Node000009"><a xlink:href="i2c_8h.html" target="_top" xlink:title="Low&#45;level I2C peripheral driver interface definition.">
<polygon fill="white" stroke="#666666" points="456.75,-77.5 383.75,-77.5 383.75,-56.75 456.75,-56.75 456.75,-77.5"/>
<text text-anchor="middle" x="420.25" y="-64" font-family="Helvetica,sans-Serif" font-size="10.00">periph/i2c.h</text>
</a>
</g>
</g>
<!-- Node3&#45;&gt;Node9 -->
<g id="edge9_Node000003_Node000009" class="edge">
<title>Node3&#45;&gt;Node9</title>
<g id="a_edge9_Node000003_Node000009"><a xlink:title=" ">
<path fill="none" stroke="#63b8ff" d="M275.72,-113.09C304.28,-104.2 346.64,-91.02 378.12,-81.23"/>
<polygon fill="#63b8ff" stroke="#63b8ff" points="378.81,-84.68 387.32,-78.37 376.73,-78 378.81,-84.68"/>
</a>
</g>
</g>
<!-- Node5&#45;&gt;Node4 -->
<g id="edge6_Node000005_Node000004" class="edge">
<title>Node5&#45;&gt;Node4</title>
<g id="a_edge6_Node000005_Node000004"><a xlink:title=" ">
<path fill="none" stroke="#63b8ff" d="M195.55,-56.34C207.27,-48.32 224.09,-36.81 237.78,-27.44"/>
<polygon fill="#63b8ff" stroke="#63b8ff" points="239.55,-30.47 245.82,-21.93 235.59,-24.69 239.55,-30.47"/>
</a>
</g>
</g>
<!-- Node6 -->
<g id="Node000006" class="node">
<title>Node6</title>
<g id="a_Node000006"><a xlink:href="errno_8h.html" target="_top" xlink:title=" ">
<polygon fill="white" stroke="#666666" points="50.5,-20.75 0,-20.75 0,0 50.5,0 50.5,-20.75"/>
<text text-anchor="middle" x="25.25" y="-7.25" font-family="Helvetica,sans-Serif" font-size="10.00">errno.h</text>
</a>
</g>
</g>
<!-- Node5&#45;&gt;Node6 -->
<g id="edge5_Node000005_Node000006" class="edge">
<title>Node5&#45;&gt;Node6</title>
<g id="a_edge5_Node000005_Node000006"><a xlink:title=" ">
<path fill="none" stroke="#63b8ff" d="M158.23,-58.05C132.83,-49.13 91.6,-34.66 61.78,-24.19"/>
<polygon fill="#63b8ff" stroke="#63b8ff" points="62.98,-20.91 52.39,-20.9 60.67,-27.51 62.98,-20.91"/>
</a>
</g>
</g>
<!-- Node7 -->
<g id="Node000007" class="node">
<title>Node7</title>
<g id="a_Node000007"><a xlink:title=" ">
<polygon fill="#e0e0e0" stroke="#999999" points="217,-20.75 145.5,-20.75 145.5,0 217,0 217,-20.75"/>
<text text-anchor="middle" x="181.25" y="-7.25" font-family="Helvetica,sans-Serif" font-size="10.00">sys/types.h</text>
</a>
</g>
</g>
<!-- Node5&#45;&gt;Node7 -->
<g id="edge7_Node000005_Node000007" class="edge">
<title>Node5&#45;&gt;Node7</title>
<g id="a_edge7_Node000005_Node000007"><a xlink:title=" ">
<path fill="none" stroke="#63b8ff" d="M181.25,-56.34C181.25,-49.72 181.25,-40.72 181.25,-32.52"/>
<polygon fill="#63b8ff" stroke="#63b8ff" points="184.75,-32.59 181.25,-22.59 177.75,-32.59 184.75,-32.59"/>
</a>
</g>
</g>
<!-- Node8 -->
<g id="Node000008" class="node">
<title>Node8</title>
<g id="a_Node000008"><a xlink:title=" ">
<polygon fill="#e0e0e0" stroke="#999999" points="127.62,-20.75 68.88,-20.75 68.88,0 127.62,0 127.62,-20.75"/>
<text text-anchor="middle" x="98.25" y="-7.25" font-family="Helvetica,sans-Serif" font-size="10.00">phydat.h</text>
</a>
</g>
</g>
<!-- Node5&#45;&gt;Node8 -->
<g id="edge8_Node000005_Node000008" class="edge">
<title>Node5&#45;&gt;Node8</title>
<g id="a_edge8_Node000005_Node000008"><a xlink:title=" ">
<path fill="none" stroke="#63b8ff" d="M166.41,-56.34C154.14,-48.24 136.46,-36.58 122.19,-27.17"/>
<polygon fill="#63b8ff" stroke="#63b8ff" points="124.5,-24.5 114.22,-21.91 120.64,-30.34 124.5,-24.5"/>
</a>
</g>
</g>
<!-- Node9&#45;&gt;Node4 -->
<g id="edge10_Node000009_Node000004" class="edge">
<title>Node9&#45;&gt;Node4</title>
<g id="a_edge10_Node000009_Node000004"><a xlink:title=" ">
<path fill="none" stroke="#63b8ff" d="M391.82,-56.34C365.88,-47.4 327.35,-34.14 298.87,-24.33"/>
<polygon fill="#63b8ff" stroke="#63b8ff" points="300.13,-21.06 289.54,-21.12 297.85,-27.68 300.13,-21.06"/>
</a>
</g>
</g>
<!-- Node10 -->
<g id="Node000010" class="node">
<title>Node10</title>
<g id="a_Node000010"><a xlink:title=" ">
<polygon fill="#e0e0e0" stroke="#999999" points="445.75,-20.75 390.75,-20.75 390.75,0 445.75,0 445.75,-20.75"/>
<text text-anchor="middle" x="418.25" y="-7.25" font-family="Helvetica,sans-Serif" font-size="10.00">stddef.h</text>
</a>
</g>
</g>
<!-- Node9&#45;&gt;Node10 -->
<g id="edge11_Node000009_Node000010" class="edge">
<title>Node9&#45;&gt;Node10</title>
<g id="a_edge11_Node000009_Node000010"><a xlink:title=" ">
<path fill="none" stroke="#63b8ff" d="M419.89,-56.34C419.65,-49.72 419.32,-40.72 419.02,-32.52"/>
<polygon fill="#63b8ff" stroke="#63b8ff" points="422.52,-32.46 418.66,-22.59 415.53,-32.71 422.52,-32.46"/>
</a>
</g>
</g>
<!-- Node11 -->
<g id="Node000011" class="node">
<title>Node11</title>
<g id="a_Node000011"><a xlink:title=" ">
<polygon fill="#e0e0e0" stroke="#999999" points="516.62,-20.75 463.88,-20.75 463.88,0 516.62,0 516.62,-20.75"/>
<text text-anchor="middle" x="490.25" y="-7.25" font-family="Helvetica,sans-Serif" font-size="10.00">limits.h</text>
</a>
</g>
</g>
<!-- Node9&#45;&gt;Node11 -->
<g id="edge12_Node000009_Node000011" class="edge">
<title>Node9&#45;&gt;Node11</title>
<g id="a_edge12_Node000009_Node000011"><a xlink:title=" ">
<path fill="none" stroke="#63b8ff" d="M432.76,-56.34C442.82,-48.47 457.16,-37.25 469.01,-27.99"/>
<polygon fill="#63b8ff" stroke="#63b8ff" points="470.93,-30.93 476.65,-22.01 466.62,-25.41 470.93,-30.93"/>
</a>
</g>
</g>
<!-- Node12 -->
<g id="Node000012" class="node">
<title>Node12</title>
<g id="a_Node000012"><a xlink:title=" ">
<polygon fill="#e0e0e0" stroke="#999999" points="615.88,-20.75 534.62,-20.75 534.62,0 615.88,0 615.88,-20.75"/>
<text text-anchor="middle" x="575.25" y="-7.25" font-family="Helvetica,sans-Serif" font-size="10.00">periph_conf.h</text>
</a>
</g>
</g>
<!-- Node9&#45;&gt;Node12 -->
<g id="edge13_Node000009_Node000012" class="edge">
<title>Node9&#45;&gt;Node12</title>
<g id="a_edge13_Node000009_Node000012"><a xlink:title=" ">
<path fill="none" stroke="#63b8ff" d="M447.96,-56.34C472.68,-47.61 509.12,-34.73 536.68,-25"/>
<polygon fill="#63b8ff" stroke="#63b8ff" points="537.83,-28.31 546.09,-21.67 535.5,-21.71 537.83,-28.31"/>
</a>
</g>
</g>
<!-- Node13 -->
<g id="Node000013" class="node">
<title>Node13</title>
<g id="a_Node000013"><a xlink:title=" ">
<polygon fill="#e0e0e0" stroke="#999999" points="712.38,-20.75 634.12,-20.75 634.12,0 712.38,0 712.38,-20.75"/>
<text text-anchor="middle" x="673.25" y="-7.25" font-family="Helvetica,sans-Serif" font-size="10.00">periph_cpu.h</text>
</a>
</g>
</g>
<!-- Node9&#45;&gt;Node13 -->
<g id="edge14_Node000009_Node000013" class="edge">
<title>Node9&#45;&gt;Node13</title>
<g id="a_edge14_Node000009_Node000013"><a xlink:title=" ">
<path fill="none" stroke="#63b8ff" d="M457.04,-58.16C500.78,-48.7 573.99,-32.85 622.95,-22.26"/>
<polygon fill="#63b8ff" stroke="#63b8ff" points="623.41,-25.74 632.44,-20.21 621.92,-18.9 623.41,-25.74"/>
</a>
</g>
</g>
<!-- Node14&#45;&gt;Node4 -->
<g id="edge16_Node000014_Node000004" class="edge">
<title>Node14&#45;&gt;Node4</title>
<g id="a_edge16_Node000014_Node000004"><a xlink:title=" ">
<path fill="none" stroke="#63b8ff" d="M325.03,-113.09C317.64,-104.11 306.69,-90.29 298.25,-77.5 288.28,-62.41 278.35,-44.45 271.29,-31.06"/>
<polygon fill="#63b8ff" stroke="#63b8ff" points="274.5,-29.66 266.79,-22.39 268.29,-32.88 274.5,-29.66"/>
</a>
</g>
</g>
<!-- Node15 -->
<g id="Node000015" class="node">
<title>Node15</title>
<g id="a_Node000015"><a xlink:title=" ">
<polygon fill="#e0e0e0" stroke="#999999" points="519.88,-77.5 474.62,-77.5 474.62,-56.75 519.88,-56.75 519.88,-77.5"/>
<text text-anchor="middle" x="497.25" y="-64" font-family="Helvetica,sans-Serif" font-size="10.00">saul.h</text>
</a>
</g>
</g>
<!-- Node14&#45;&gt;Node15 -->
<g id="edge17_Node000014_Node000015" class="edge">
<title>Node14&#45;&gt;Node15</title>
<g id="a_edge17_Node000014_Node000015"><a xlink:title=" ">
<path fill="none" stroke="#63b8ff" d="M362.57,-113.09C390.92,-103.62 433.83,-89.3 463.57,-79.37"/>
<polygon fill="#63b8ff" stroke="#63b8ff" points="464.45,-82.76 472.83,-76.28 462.23,-76.12 464.45,-82.76"/>
</a>
</g>
</g>
<!-- Node16 -->
<g id="Node000016" class="node">
<title>Node16</title>
<g id="a_Node000016"><a xlink:href="phydat_8h.html" target="_top" xlink:title="Generic data container for physical data interface.">
<polygon fill="white" stroke="#666666" points="365.62,-77.5 306.88,-77.5 306.88,-56.75 365.62,-56.75 365.62,-77.5"/>
<text text-anchor="middle" x="336.25" y="-64" font-family="Helvetica,sans-Serif" font-size="10.00">phydat.h</text>
</a>
</g>
</g>
<!-- Node14&#45;&gt;Node16 -->
<g id="edge18_Node000014_Node000016" class="edge">
<title>Node14&#45;&gt;Node16</title>
<g id="a_edge18_Node000014_Node000016"><a xlink:title=" ">
<path fill="none" stroke="#63b8ff" d="M333.79,-113.09C334.15,-106.47 334.64,-97.47 335.09,-89.27"/>
<polygon fill="#63b8ff" stroke="#63b8ff" points="338.58,-89.52 335.64,-79.34 331.59,-89.13 338.58,-89.52"/>
</a>
</g>
</g>
<!-- Node16&#45;&gt;Node4 -->
<g id="edge20_Node000016_Node000004" class="edge">
<title>Node16&#45;&gt;Node4</title>
<g id="a_edge20_Node000016_Node000004"><a xlink:title=" ">
<path fill="none" stroke="#63b8ff" d="M322.84,-56.34C311.96,-48.4 296.39,-37.03 283.63,-27.71"/>
<polygon fill="#63b8ff" stroke="#63b8ff" points="285.91,-25.04 275.76,-21.97 281.78,-30.69 285.91,-25.04"/>
</a>
</g>
</g>
<!-- Node16&#45;&gt;Node7 -->
<g id="edge21_Node000016_Node000007" class="edge">
<title>Node16&#45;&gt;Node7</title>
<g id="a_edge21_Node000016_Node000007"><a xlink:title=" ">
<path fill="none" stroke="#63b8ff" d="M308.54,-56.34C283.82,-47.61 247.38,-34.73 219.82,-25"/>
<polygon fill="#63b8ff" stroke="#63b8ff" points="221,-21.71 210.41,-21.67 218.67,-28.31 221,-21.71"/>
</a>
</g>
</g>
<!-- Node16&#45;&gt;Node10 -->
<g id="edge19_Node000016_Node000010" class="edge">
<title>Node16&#45;&gt;Node10</title>
<g id="a_edge19_Node000016_Node000010"><a xlink:title=" ">
<path fill="none" stroke="#63b8ff" d="M350.91,-56.34C362.92,-48.32 380.16,-36.81 394.19,-27.44"/>
<polygon fill="#63b8ff" stroke="#63b8ff" points="396.09,-30.38 402.46,-21.92 392.2,-24.56 396.09,-30.38"/>
</a>
</g>
</g>
<!-- Node17 -->
<g id="Node000017" class="node">
<title>Node17</title>
<g id="a_Node000017"><a xlink:href="modules_8h.html" target="_top" xlink:title="Common macros and compiler attributes/pragmas configuration.">
<polygon fill="white" stroke="#666666" points="372.75,-20.75 305.75,-20.75 305.75,0 372.75,0 372.75,-20.75"/>
<text text-anchor="middle" x="339.25" y="-7.25" font-family="Helvetica,sans-Serif" font-size="10.00">modules.h</text>
</a>
</g>
</g>
<!-- Node16&#45;&gt;Node17 -->
<g id="edge22_Node000016_Node000017" class="edge">
<title>Node16&#45;&gt;Node17</title>
<g id="a_edge22_Node000016_Node000017"><a xlink:title=" ">
<path fill="none" stroke="#63b8ff" d="M336.79,-56.34C337.15,-49.72 337.64,-40.72 338.09,-32.52"/>
<polygon fill="#63b8ff" stroke="#63b8ff" points="341.58,-32.77 338.64,-22.59 334.59,-32.38 341.58,-32.77"/>
</a>
</g>
</g>
</g>
</svg>
