<?xml version="1.0" encoding="UTF-8" standalone="no"?>
<!DOCTYPE svg PUBLIC "-//W3C//DTD SVG 1.1//EN"
 "http://www.w3.org/Graphics/SVG/1.1/DTD/svg11.dtd">
<!-- Generated by graphviz version 12.1.1 (0)
 -->
<!-- Title: boards/nucleo&#45;f103rb/include/periph_conf.h Pages: 1 -->
<svg width="170pt" height="98pt"
 viewBox="0.00 0.00 169.50 98.25" xmlns="http://www.w3.org/2000/svg" xmlns:xlink="http://www.w3.org/1999/xlink">
<g id="graph0" class="graph" transform="scale(1 1) rotate(0) translate(4 94.25)">
<title>boards/nucleo&#45;f103rb/include/periph_conf.h</title>
<!-- Node1 -->
<g id="Node000001" class="node">
<title>Node1</title>
<g id="a_Node000001"><a xlink:title="Peripheral MCU configuration for the nucleo&#45;f103rb board.">
<polygon fill="#999999" stroke="#666666" points="145.38,-90.25 22.88,-90.25 22.88,-56.75 145.38,-56.75 145.38,-90.25"/>
<text text-anchor="start" x="30.88" y="-76.75" font-family="Helvetica,sans-Serif" font-size="10.00">boards/nucleo&#45;f103rb</text>
<text text-anchor="middle" x="84.12" y="-64" font-family="Helvetica,sans-Serif" font-size="10.00">/include/periph_conf.h</text>
</a>
</g>
</g>
<!-- Node2 -->
<g id="Node000002" class="node">
<title>Node2</title>
<g id="a_Node000002"><a xlink:title=" ">
<polygon fill="#e0e0e0" stroke="#999999" points="78.25,-20.75 0,-20.75 0,0 78.25,0 78.25,-20.75"/>
<text text-anchor="middle" x="39.12" y="-7.25" font-family="Helvetica,sans-Serif" font-size="10.00">periph_cpu.h</text>
</a>
</g>
</g>
<!-- Node1&#45;&gt;Node2 -->
<g id="edge1_Node000001_Node000002" class="edge">
<title>Node1&#45;&gt;Node2</title>
<g id="a_edge1_Node000001_Node000002"><a xlink:title=" ">
<path fill="none" stroke="#63b8ff" d="M72.3,-56.44C66.39,-48.41 59.19,-38.63 53.02,-30.24"/>
<polygon fill="#63b8ff" stroke="#63b8ff" points="56.02,-28.41 47.27,-22.44 50.38,-32.56 56.02,-28.41"/>
</a>
</g>
</g>
<!-- Node3 -->
<g id="Node000003" class="node">
<title>Node3</title>
<g id="a_Node000003"><a xlink:title=" ">
<polygon fill="#e0e0e0" stroke="#999999" points="161.5,-20.75 96.75,-20.75 96.75,0 161.5,0 161.5,-20.75"/>
<text text-anchor="middle" x="129.12" y="-7.25" font-family="Helvetica,sans-Serif" font-size="10.00">clk_conf.h</text>
</a>
</g>
</g>
<!-- Node1&#45;&gt;Node3 -->
<g id="edge2_Node000001_Node000003" class="edge">
<title>Node1&#45;&gt;Node3</title>
<g id="a_edge2_Node000001_Node000003"><a xlink:title=" ">
<path fill="none" stroke="#63b8ff" d="M95.95,-56.44C101.86,-48.41 109.06,-38.63 115.23,-30.24"/>
<polygon fill="#63b8ff" stroke="#63b8ff" points="117.87,-32.56 120.98,-22.44 112.23,-28.41 117.87,-32.56"/>
</a>
</g>
</g>
</g>
</svg>
