<?xml version="1.0" encoding="UTF-8" standalone="no"?>
<!DOCTYPE svg PUBLIC "-//W3C//DTD SVG 1.1//EN"
 "http://www.w3.org/Graphics/SVG/1.1/DTD/svg11.dtd">
<!-- Generated by graphviz version 12.1.1 (0)
 -->
<!-- Title: boards/stm32l496g&#45;disco/include/periph_conf.h Pages: 1 -->
<svg width="398pt" height="212pt"
 viewBox="0.00 0.00 397.86 211.75" xmlns="http://www.w3.org/2000/svg" xmlns:xlink="http://www.w3.org/1999/xlink">
<g id="graph0" class="graph" transform="scale(1 1) rotate(0) translate(4 207.75)">
<title>boards/stm32l496g&#45;disco/include/periph_conf.h</title>
<!-- Node1 -->
<g id="Node000001" class="node">
<title>Node1</title>
<g id="a_Node000001"><a xlink:title="Peripheral MCU configuration for the STM32L496G&#45;DISCO board.">
<polygon fill="#999999" stroke="#666666" points="213.73,-203.75 74.73,-203.75 74.73,-170.25 213.73,-170.25 213.73,-203.75"/>
<text text-anchor="start" x="82.73" y="-190.25" font-family="Helvetica,sans-Serif" font-size="10.00">boards/stm32l496g&#45;disco</text>
<text text-anchor="middle" x="144.23" y="-177.5" font-family="Helvetica,sans-Serif" font-size="10.00">/include/periph_conf.h</text>
</a>
</g>
</g>
<!-- Node2 -->
<g id="Node000002" class="node">
<title>Node2</title>
<g id="a_Node000002"><a xlink:title=" ">
<polygon fill="#e0e0e0" stroke="#999999" points="97.36,-77.5 19.11,-77.5 19.11,-56.75 97.36,-56.75 97.36,-77.5"/>
<text text-anchor="middle" x="58.23" y="-64" font-family="Helvetica,sans-Serif" font-size="10.00">periph_cpu.h</text>
</a>
</g>
</g>
<!-- Node1&#45;&gt;Node2 -->
<g id="edge1_Node000001_Node000002" class="edge">
<title>Node1&#45;&gt;Node2</title>
<g id="a_edge1_Node000001_Node000002"><a xlink:title=" ">
<path fill="none" stroke="#63b8ff" d="M74.37,-177.23C47.9,-170.13 20.3,-157.32 4.23,-134.25 -8.3,-116.25 11.7,-96.96 30.82,-83.89"/>
<polygon fill="#63b8ff" stroke="#63b8ff" points="32.46,-86.99 38.99,-78.65 28.68,-81.1 32.46,-86.99"/>
</a>
</g>
</g>
<!-- Node3 -->
<g id="Node000003" class="node">
<title>Node3</title>
<g id="a_Node000003"><a xlink:title=" ">
<polygon fill="#e0e0e0" stroke="#999999" points="77.61,-134.25 12.86,-134.25 12.86,-113.5 77.61,-113.5 77.61,-134.25"/>
<text text-anchor="middle" x="45.23" y="-120.75" font-family="Helvetica,sans-Serif" font-size="10.00">clk_conf.h</text>
</a>
</g>
</g>
<!-- Node1&#45;&gt;Node3 -->
<g id="edge2_Node000001_Node000003" class="edge">
<title>Node1&#45;&gt;Node3</title>
<g id="a_edge2_Node000001_Node000003"><a xlink:title=" ">
<path fill="none" stroke="#63b8ff" d="M117.96,-169.78C103.26,-160.7 85.01,-149.43 70.47,-140.46"/>
<polygon fill="#63b8ff" stroke="#63b8ff" points="72.73,-137.74 62.38,-135.46 69.05,-143.69 72.73,-137.74"/>
</a>
</g>
</g>
<!-- Node4 -->
<g id="Node000004" class="node">
<title>Node4</title>
<g id="a_Node000004"><a xlink:title=" ">
<polygon fill="#e0e0e0" stroke="#999999" points="192.36,-134.25 96.11,-134.25 96.11,-113.5 192.36,-113.5 192.36,-134.25"/>
<text text-anchor="middle" x="144.23" y="-120.75" font-family="Helvetica,sans-Serif" font-size="10.00">cfg_rtt_default.h</text>
</a>
</g>
</g>
<!-- Node1&#45;&gt;Node4 -->
<g id="edge3_Node000001_Node000004" class="edge">
<title>Node1&#45;&gt;Node4</title>
<g id="a_edge3_Node000001_Node000004"><a xlink:title=" ">
<path fill="none" stroke="#63b8ff" d="M144.23,-169.94C144.23,-162.6 144.23,-153.82 144.23,-145.96"/>
<polygon fill="#63b8ff" stroke="#63b8ff" points="147.73,-146.23 144.23,-136.23 140.73,-146.23 147.73,-146.23"/>
</a>
</g>
</g>
<!-- Node5 -->
<g id="Node000005" class="node">
<title>Node5</title>
<g id="a_Node000005"><a xlink:href="cfg__usb__otg__fs_8h.html" target="_top" xlink:title="Common configuration for STM32 OTG FS peripheral.">
<polygon fill="white" stroke="#666666" points="308.11,-134.25 210.36,-134.25 210.36,-113.5 308.11,-113.5 308.11,-134.25"/>
<text text-anchor="middle" x="259.23" y="-120.75" font-family="Helvetica,sans-Serif" font-size="10.00">cfg_usb_otg_fs.h</text>
</a>
</g>
</g>
<!-- Node1&#45;&gt;Node5 -->
<g id="edge4_Node000001_Node000005" class="edge">
<title>Node1&#45;&gt;Node5</title>
<g id="a_edge4_Node000001_Node000005"><a xlink:title=" ">
<path fill="none" stroke="#63b8ff" d="M174.75,-169.78C192.16,-160.52 213.85,-149 230.89,-139.94"/>
<polygon fill="#63b8ff" stroke="#63b8ff" points="232.29,-143.16 239.48,-135.38 229.01,-136.98 232.29,-143.16"/>
</a>
</g>
</g>
<!-- Node8 -->
<g id="Node000008" class="node">
<title>Node8</title>
<g id="a_Node000008"><a xlink:href="lcd__fmc_8h_source.html" target="_top" xlink:title=" ">
<polygon fill="white" stroke="#666666" points="389.86,-134.25 326.61,-134.25 326.61,-113.5 389.86,-113.5 389.86,-134.25"/>
<text text-anchor="middle" x="358.23" y="-120.75" font-family="Helvetica,sans-Serif" font-size="10.00">lcd_fmc.h</text>
</a>
</g>
</g>
<!-- Node1&#45;&gt;Node8 -->
<g id="edge8_Node000001_Node000008" class="edge">
<title>Node1&#45;&gt;Node8</title>
<g id="a_edge8_Node000001_Node000008"><a xlink:title=" ">
<path fill="none" stroke="#63b8ff" d="M201.02,-169.78C236.8,-159.56 282.26,-146.58 315.09,-137.2"/>
<polygon fill="#63b8ff" stroke="#63b8ff" points="316.02,-140.57 324.68,-134.46 314.1,-133.84 316.02,-140.57"/>
</a>
</g>
</g>
<!-- Node5&#45;&gt;Node2 -->
<g id="edge5_Node000005_Node000002" class="edge">
<title>Node5&#45;&gt;Node2</title>
<g id="a_edge5_Node000005_Node000002"><a xlink:title=" ">
<path fill="none" stroke="#63b8ff" d="M223.3,-113.09C190.25,-104.08 141.03,-90.68 104.94,-80.85"/>
<polygon fill="#63b8ff" stroke="#63b8ff" points="106.23,-77.57 95.66,-78.32 104.39,-84.32 106.23,-77.57"/>
</a>
</g>
</g>
<!-- Node6 -->
<g id="Node000006" class="node">
<title>Node6</title>
<g id="a_Node000006"><a xlink:href="usbdev__synopsys__dwc2_8h.html" target="_top" xlink:title="Low level USB FS/HS driver definitions for MCUs with Synopsys DWC2 IP core.">
<polygon fill="white" stroke="#666666" points="330.23,-77.5 188.23,-77.5 188.23,-56.75 330.23,-56.75 330.23,-77.5"/>
<text text-anchor="middle" x="259.23" y="-64" font-family="Helvetica,sans-Serif" font-size="10.00">usbdev_synopsys_dwc2.h</text>
</a>
</g>
</g>
<!-- Node5&#45;&gt;Node6 -->
<g id="edge6_Node000005_Node000006" class="edge">
<title>Node5&#45;&gt;Node6</title>
<g id="a_edge6_Node000005_Node000006"><a xlink:title=" ">
<path fill="none" stroke="#63b8ff" d="M259.23,-113.09C259.23,-106.47 259.23,-97.47 259.23,-89.27"/>
<polygon fill="#63b8ff" stroke="#63b8ff" points="262.73,-89.34 259.23,-79.34 255.73,-89.34 262.73,-89.34"/>
</a>
</g>
</g>
<!-- Node7 -->
<g id="Node000007" class="node">
<title>Node7</title>
<g id="a_Node000007"><a xlink:title=" ">
<polygon fill="#e0e0e0" stroke="#999999" points="285.61,-20.75 232.86,-20.75 232.86,0 285.61,0 285.61,-20.75"/>
<text text-anchor="middle" x="259.23" y="-7.25" font-family="Helvetica,sans-Serif" font-size="10.00">stdint.h</text>
</a>
</g>
</g>
<!-- Node6&#45;&gt;Node7 -->
<g id="edge7_Node000006_Node000007" class="edge">
<title>Node6&#45;&gt;Node7</title>
<g id="a_edge7_Node000006_Node000007"><a xlink:title=" ">
<path fill="none" stroke="#63b8ff" d="M259.23,-56.34C259.23,-49.72 259.23,-40.72 259.23,-32.52"/>
<polygon fill="#63b8ff" stroke="#63b8ff" points="262.73,-32.59 259.23,-22.59 255.73,-32.59 262.73,-32.59"/>
</a>
</g>
</g>
</g>
</svg>
