<?xml version="1.0" encoding="UTF-8" standalone="no"?>
<!DOCTYPE svg PUBLIC "-//W3C//DTD SVG 1.1//EN"
 "http://www.w3.org/Graphics/SVG/1.1/DTD/svg11.dtd">
<!-- Generated by graphviz version 12.1.1 (0)
 -->
<!-- Title: boards/nucleo&#45;c031c6/include/periph_conf.h Pages: 1 -->
<svg width="317pt" height="155pt"
 viewBox="0.00 0.00 316.50 155.00" xmlns="http://www.w3.org/2000/svg" xmlns:xlink="http://www.w3.org/1999/xlink">
<g id="graph0" class="graph" transform="scale(1 1) rotate(0) translate(4 151)">
<title>boards/nucleo&#45;c031c6/include/periph_conf.h</title>
<!-- Node1 -->
<g id="Node000001" class="node">
<title>Node1</title>
<g id="a_Node000001"><a xlink:title="Peripheral MCU configuration for the nucleo&#45;c031c6 board.">
<polygon fill="#999999" stroke="#666666" points="199.62,-147 77.12,-147 77.12,-113.5 199.62,-113.5 199.62,-147"/>
<text text-anchor="start" x="85.12" y="-133.5" font-family="Helvetica,sans-Serif" font-size="10.00">boards/nucleo&#45;c031c6</text>
<text text-anchor="middle" x="138.38" y="-120.75" font-family="Helvetica,sans-Serif" font-size="10.00">/include/periph_conf.h</text>
</a>
</g>
</g>
<!-- Node2 -->
<g id="Node000002" class="node">
<title>Node2</title>
<g id="a_Node000002"><a xlink:title=" ">
<polygon fill="#e0e0e0" stroke="#999999" points="64.75,-77.5 0,-77.5 0,-56.75 64.75,-56.75 64.75,-77.5"/>
<text text-anchor="middle" x="32.38" y="-64" font-family="Helvetica,sans-Serif" font-size="10.00">clk_conf.h</text>
</a>
</g>
</g>
<!-- Node1&#45;&gt;Node2 -->
<g id="edge1_Node000001_Node000002" class="edge">
<title>Node1&#45;&gt;Node2</title>
<g id="a_edge1_Node000001_Node000002"><a xlink:title=" ">
<path fill="none" stroke="#63b8ff" d="M110.25,-113.03C94.35,-103.86 74.59,-92.47 58.95,-83.45"/>
<polygon fill="#63b8ff" stroke="#63b8ff" points="61.07,-80.63 50.66,-78.67 57.58,-86.7 61.07,-80.63"/>
</a>
</g>
</g>
<!-- Node3 -->
<g id="Node000003" class="node">
<title>Node3</title>
<g id="a_Node000003"><a xlink:href="cfg__i2c1__pb8__pb9_8h.html" target="_top" xlink:title="Common configuration for STM32 I2C.">
<polygon fill="white" stroke="#666666" points="194.38,-77.5 82.38,-77.5 82.38,-56.75 194.38,-56.75 194.38,-77.5"/>
<text text-anchor="middle" x="138.38" y="-64" font-family="Helvetica,sans-Serif" font-size="10.00">cfg_i2c1_pb8_pb9.h</text>
</a>
</g>
</g>
<!-- Node1&#45;&gt;Node3 -->
<g id="edge2_Node000001_Node000003" class="edge">
<title>Node1&#45;&gt;Node3</title>
<g id="a_edge2_Node000001_Node000003"><a xlink:title=" ">
<path fill="none" stroke="#63b8ff" d="M138.38,-113.19C138.38,-105.85 138.38,-97.07 138.38,-89.21"/>
<polygon fill="#63b8ff" stroke="#63b8ff" points="141.88,-89.48 138.38,-79.48 134.88,-89.48 141.88,-89.48"/>
</a>
</g>
</g>
<!-- Node5 -->
<g id="Node000005" class="node">
<title>Node5</title>
<g id="a_Node000005"><a xlink:title=" ">
<polygon fill="#e0e0e0" stroke="#999999" points="308.5,-77.5 212.25,-77.5 212.25,-56.75 308.5,-56.75 308.5,-77.5"/>
<text text-anchor="middle" x="260.38" y="-64" font-family="Helvetica,sans-Serif" font-size="10.00">cfg_rtt_default.h</text>
</a>
</g>
</g>
<!-- Node1&#45;&gt;Node5 -->
<g id="edge4_Node000001_Node000005" class="edge">
<title>Node1&#45;&gt;Node5</title>
<g id="a_edge4_Node000001_Node000005"><a xlink:title=" ">
<path fill="none" stroke="#63b8ff" d="M170.75,-113.03C189.31,-103.73 212.44,-92.14 230.56,-83.06"/>
<polygon fill="#63b8ff" stroke="#63b8ff" points="232.11,-86.2 239.48,-78.59 228.97,-79.94 232.11,-86.2"/>
</a>
</g>
</g>
<!-- Node4 -->
<g id="Node000004" class="node">
<title>Node4</title>
<g id="a_Node000004"><a xlink:title=" ">
<polygon fill="#e0e0e0" stroke="#999999" points="177.5,-20.75 99.25,-20.75 99.25,0 177.5,0 177.5,-20.75"/>
<text text-anchor="middle" x="138.38" y="-7.25" font-family="Helvetica,sans-Serif" font-size="10.00">periph_cpu.h</text>
</a>
</g>
</g>
<!-- Node3&#45;&gt;Node4 -->
<g id="edge3_Node000003_Node000004" class="edge">
<title>Node3&#45;&gt;Node4</title>
<g id="a_edge3_Node000003_Node000004"><a xlink:title=" ">
<path fill="none" stroke="#63b8ff" d="M138.38,-56.34C138.38,-49.72 138.38,-40.72 138.38,-32.52"/>
<polygon fill="#63b8ff" stroke="#63b8ff" points="141.88,-32.59 138.38,-22.59 134.88,-32.59 141.88,-32.59"/>
</a>
</g>
</g>
</g>
</svg>
