<?xml version="1.0" encoding="UTF-8" standalone="no"?>
<!DOCTYPE svg PUBLIC "-//W3C//DTD SVG 1.1//EN"
 "http://www.w3.org/Graphics/SVG/1.1/DTD/svg11.dtd">
<!-- Generated by graphviz version 12.1.1 (0)
 -->
<!-- Title: boards/feather&#45;nrf52840/include/periph_conf.h Pages: 1 -->
<svg width="448pt" height="98pt"
 viewBox="0.00 0.00 447.75 98.25" xmlns="http://www.w3.org/2000/svg" xmlns:xlink="http://www.w3.org/1999/xlink">
<g id="graph0" class="graph" transform="scale(1 1) rotate(0) translate(4 94.25)">
<title>boards/feather&#45;nrf52840/include/periph_conf.h</title>
<!-- Node1 -->
<g id="Node000001" class="node">
<title>Node1</title>
<g id="a_Node000001"><a xlink:title="Peripheral configuration for the Adafruit Feather nRF52840 Express.">
<polygon fill="#999999" stroke="#666666" points="271,-90.25 137.25,-90.25 137.25,-56.75 271,-56.75 271,-90.25"/>
<text text-anchor="start" x="145.25" y="-76.75" font-family="Helvetica,sans-Serif" font-size="10.00">boards/feather&#45;nrf52840</text>
<text text-anchor="middle" x="204.12" y="-64" font-family="Helvetica,sans-Serif" font-size="10.00">/include/periph_conf.h</text>
</a>
</g>
</g>
<!-- Node2 -->
<g id="Node000002" class="node">
<title>Node2</title>
<g id="a_Node000002"><a xlink:title=" ">
<polygon fill="#e0e0e0" stroke="#999999" points="78.25,-20.75 0,-20.75 0,0 78.25,0 78.25,-20.75"/>
<text text-anchor="middle" x="39.12" y="-7.25" font-family="Helvetica,sans-Serif" font-size="10.00">periph_cpu.h</text>
</a>
</g>
</g>
<!-- Node1&#45;&gt;Node2 -->
<g id="edge1_Node000001_Node000002" class="edge">
<title>Node1&#45;&gt;Node2</title>
<g id="a_edge1_Node000001_Node000002"><a xlink:title=" ">
<path fill="none" stroke="#63b8ff" d="M160.34,-56.28C134.06,-46.54 101,-34.3 76.05,-25.05"/>
<polygon fill="#63b8ff" stroke="#63b8ff" points="77.56,-21.88 66.97,-21.69 75.13,-28.45 77.56,-21.88"/>
</a>
</g>
</g>
<!-- Node3 -->
<g id="Node000003" class="node">
<title>Node3</title>
<g id="a_Node000003"><a xlink:href="cfg__clock__32__1_8h.html" target="_top" xlink:title="Common clock configuration for the nRF52 based boards.">
<polygon fill="white" stroke="#666666" points="195.75,-20.75 96.5,-20.75 96.5,0 195.75,0 195.75,-20.75"/>
<text text-anchor="middle" x="146.12" y="-7.25" font-family="Helvetica,sans-Serif" font-size="10.00">cfg_clock_32_1.h</text>
</a>
</g>
</g>
<!-- Node1&#45;&gt;Node3 -->
<g id="edge2_Node000001_Node000003" class="edge">
<title>Node1&#45;&gt;Node3</title>
<g id="a_edge2_Node000001_Node000003"><a xlink:title=" ">
<path fill="none" stroke="#63b8ff" d="M188.89,-56.44C181.01,-48.14 171.38,-37.99 163.25,-29.43"/>
<polygon fill="#63b8ff" stroke="#63b8ff" points="165.93,-27.16 156.51,-22.31 160.85,-31.98 165.93,-27.16"/>
</a>
</g>
</g>
<!-- Node4 -->
<g id="Node000004" class="node">
<title>Node4</title>
<g id="a_Node000004"><a xlink:title=" ">
<polygon fill="#e0e0e0" stroke="#999999" points="310.25,-20.75 214,-20.75 214,0 310.25,0 310.25,-20.75"/>
<text text-anchor="middle" x="262.12" y="-7.25" font-family="Helvetica,sans-Serif" font-size="10.00">cfg_rtt_default.h</text>
</a>
</g>
</g>
<!-- Node1&#45;&gt;Node4 -->
<g id="edge3_Node000001_Node000004" class="edge">
<title>Node1&#45;&gt;Node4</title>
<g id="a_edge3_Node000001_Node000004"><a xlink:title=" ">
<path fill="none" stroke="#63b8ff" d="M219.36,-56.44C227.24,-48.14 236.87,-37.99 245,-29.43"/>
<polygon fill="#63b8ff" stroke="#63b8ff" points="247.4,-31.98 251.74,-22.31 242.32,-27.16 247.4,-31.98"/>
</a>
</g>
</g>
<!-- Node5 -->
<g id="Node000005" class="node">
<title>Node5</title>
<g id="a_Node000005"><a xlink:title=" ">
<polygon fill="#e0e0e0" stroke="#999999" points="439.75,-20.75 328.5,-20.75 328.5,0 439.75,0 439.75,-20.75"/>
<text text-anchor="middle" x="384.12" y="-7.25" font-family="Helvetica,sans-Serif" font-size="10.00">cfg_timer_default.h</text>
</a>
</g>
</g>
<!-- Node1&#45;&gt;Node5 -->
<g id="edge4_Node000001_Node000005" class="edge">
<title>Node1&#45;&gt;Node5</title>
<g id="a_edge4_Node000001_Node000005"><a xlink:title=" ">
<path fill="none" stroke="#63b8ff" d="M251.89,-56.28C280.82,-46.46 317.27,-34.08 344.57,-24.81"/>
<polygon fill="#63b8ff" stroke="#63b8ff" points="345.52,-28.18 353.86,-21.65 343.27,-21.55 345.52,-28.18"/>
</a>
</g>
</g>
</g>
</svg>
