<?xml version="1.0" encoding="UTF-8" standalone="no"?>
<!DOCTYPE svg PUBLIC "-//W3C//DTD SVG 1.1//EN"
 "http://www.w3.org/Graphics/SVG/1.1/DTD/svg11.dtd">
<!-- Generated by graphviz version 12.1.1 (0)
 -->
<!-- Title: boards/remote&#45;pa/include/periph_conf.h Pages: 1 -->
<svg width="430pt" height="155pt"
 viewBox="0.00 0.00 430.38 155.00" xmlns="http://www.w3.org/2000/svg" xmlns:xlink="http://www.w3.org/1999/xlink">
<g id="graph0" class="graph" transform="scale(1 1) rotate(0) translate(4 151)">
<title>boards/remote&#45;pa/include/periph_conf.h</title>
<!-- Node1 -->
<g id="Node000001" class="node">
<title>Node1</title>
<g id="a_Node000001"><a xlink:title="Peripheral MCU configuration for the Re&#45;Mote board prototype A.">
<polygon fill="#999999" stroke="#666666" points="252.75,-147 111.5,-147 111.5,-113.5 252.75,-113.5 252.75,-147"/>
<text text-anchor="start" x="119.5" y="-133.5" font-family="Helvetica,sans-Serif" font-size="10.00">boards/remote&#45;pa/include</text>
<text text-anchor="middle" x="182.12" y="-120.75" font-family="Helvetica,sans-Serif" font-size="10.00">/periph_conf.h</text>
</a>
</g>
</g>
<!-- Node2 -->
<g id="Node000002" class="node">
<title>Node2</title>
<g id="a_Node000002"><a xlink:title=" ">
<polygon fill="#e0e0e0" stroke="#999999" points="78.25,-20.75 0,-20.75 0,0 78.25,0 78.25,-20.75"/>
<text text-anchor="middle" x="39.12" y="-7.25" font-family="Helvetica,sans-Serif" font-size="10.00">periph_cpu.h</text>
</a>
</g>
</g>
<!-- Node1&#45;&gt;Node2 -->
<g id="edge1_Node000001_Node000002" class="edge">
<title>Node1&#45;&gt;Node2</title>
<g id="a_edge1_Node000001_Node000002"><a xlink:title=" ">
<path fill="none" stroke="#63b8ff" d="M118.72,-113.05C98.4,-105.18 77.27,-93.78 62.12,-77.5 50.6,-65.11 44.81,-46.64 41.92,-32.37"/>
<polygon fill="#63b8ff" stroke="#63b8ff" points="45.4,-31.95 40.31,-22.66 38.5,-33.09 45.4,-31.95"/>
</a>
</g>
</g>
<!-- Node3 -->
<g id="Node000003" class="node">
<title>Node3</title>
<g id="a_Node000003"><a xlink:href="cfg__clk__default_8h.html" target="_top" xlink:title="Default clock configuration for cc2538 based boards.">
<polygon fill="white" stroke="#666666" points="170.75,-77.5 71.5,-77.5 71.5,-56.75 170.75,-56.75 170.75,-77.5"/>
<text text-anchor="middle" x="121.12" y="-64" font-family="Helvetica,sans-Serif" font-size="10.00">cfg_clk_default.h</text>
</a>
</g>
</g>
<!-- Node1&#45;&gt;Node3 -->
<g id="edge2_Node000001_Node000003" class="edge">
<title>Node1&#45;&gt;Node3</title>
<g id="a_edge2_Node000001_Node000003"><a xlink:title=" ">
<path fill="none" stroke="#63b8ff" d="M166.1,-113.19C157.73,-104.81 147.47,-94.53 138.87,-85.91"/>
<polygon fill="#63b8ff" stroke="#63b8ff" points="141.56,-83.64 132.02,-79.04 136.6,-88.59 141.56,-83.64"/>
</a>
</g>
</g>
<!-- Node6 -->
<g id="Node000006" class="node">
<title>Node6</title>
<g id="a_Node000006"><a xlink:title=" ">
<polygon fill="#e0e0e0" stroke="#999999" points="299.75,-77.5 188.5,-77.5 188.5,-56.75 299.75,-56.75 299.75,-77.5"/>
<text text-anchor="middle" x="244.12" y="-64" font-family="Helvetica,sans-Serif" font-size="10.00">cfg_timer_default.h</text>
</a>
</g>
</g>
<!-- Node1&#45;&gt;Node6 -->
<g id="edge6_Node000001_Node000006" class="edge">
<title>Node1&#45;&gt;Node6</title>
<g id="a_edge6_Node000001_Node000006"><a xlink:title=" ">
<path fill="none" stroke="#63b8ff" d="M198.41,-113.19C206.92,-104.81 217.34,-94.53 226.09,-85.91"/>
<polygon fill="#63b8ff" stroke="#63b8ff" points="228.4,-88.54 233.06,-79.03 223.49,-83.56 228.4,-88.54"/>
</a>
</g>
</g>
<!-- Node7 -->
<g id="Node000007" class="node">
<title>Node7</title>
<g id="a_Node000007"><a xlink:title=" ">
<polygon fill="#e0e0e0" stroke="#999999" points="422.38,-77.5 317.88,-77.5 317.88,-56.75 422.38,-56.75 422.38,-77.5"/>
<text text-anchor="middle" x="370.12" y="-64" font-family="Helvetica,sans-Serif" font-size="10.00">cfg_uart_default.h</text>
</a>
</g>
</g>
<!-- Node1&#45;&gt;Node7 -->
<g id="edge7_Node000001_Node000007" class="edge">
<title>Node1&#45;&gt;Node7</title>
<g id="a_edge7_Node000001_Node000007"><a xlink:title=" ">
<path fill="none" stroke="#63b8ff" d="M232.01,-113.03C262.36,-103.16 300.64,-90.72 329.2,-81.43"/>
<polygon fill="#63b8ff" stroke="#63b8ff" points="330.15,-84.8 338.57,-78.38 327.98,-78.15 330.15,-84.8"/>
</a>
</g>
</g>
<!-- Node3&#45;&gt;Node2 -->
<g id="edge5_Node000003_Node000002" class="edge">
<title>Node3&#45;&gt;Node2</title>
<g id="a_edge5_Node000003_Node000002"><a xlink:title=" ">
<path fill="none" stroke="#63b8ff" d="M106.47,-56.34C94.45,-48.32 77.21,-36.81 63.19,-27.44"/>
<polygon fill="#63b8ff" stroke="#63b8ff" points="65.18,-24.56 54.92,-21.92 61.29,-30.38 65.18,-24.56"/>
</a>
</g>
</g>
<!-- Node4 -->
<g id="Node000004" class="node">
<title>Node4</title>
<g id="a_Node000004"><a xlink:title=" ">
<polygon fill="#e0e0e0" stroke="#999999" points="149.5,-20.75 96.75,-20.75 96.75,0 149.5,0 149.5,-20.75"/>
<text text-anchor="middle" x="123.12" y="-7.25" font-family="Helvetica,sans-Serif" font-size="10.00">stdint.h</text>
</a>
</g>
</g>
<!-- Node3&#45;&gt;Node4 -->
<g id="edge3_Node000003_Node000004" class="edge">
<title>Node3&#45;&gt;Node4</title>
<g id="a_edge3_Node000003_Node000004"><a xlink:title=" ">
<path fill="none" stroke="#63b8ff" d="M121.48,-56.34C121.72,-49.72 122.05,-40.72 122.35,-32.52"/>
<polygon fill="#63b8ff" stroke="#63b8ff" points="125.85,-32.71 122.72,-22.59 118.85,-32.46 125.85,-32.71"/>
</a>
</g>
</g>
<!-- Node5 -->
<g id="Node000005" class="node">
<title>Node5</title>
<g id="a_Node000005"><a xlink:title=" ">
<polygon fill="#e0e0e0" stroke="#999999" points="210.25,-20.75 168,-20.75 168,0 210.25,0 210.25,-20.75"/>
<text text-anchor="middle" x="189.12" y="-7.25" font-family="Helvetica,sans-Serif" font-size="10.00">cpu.h</text>
</a>
</g>
</g>
<!-- Node3&#45;&gt;Node5 -->
<g id="edge4_Node000003_Node000005" class="edge">
<title>Node3&#45;&gt;Node5</title>
<g id="a_edge4_Node000003_Node000005"><a xlink:title=" ">
<path fill="none" stroke="#63b8ff" d="M133.28,-56.34C142.95,-48.55 156.71,-37.47 168.15,-28.26"/>
<polygon fill="#63b8ff" stroke="#63b8ff" points="170.3,-31.03 175.89,-22.03 165.91,-25.57 170.3,-31.03"/>
</a>
</g>
</g>
</g>
</svg>
