<?xml version="1.0" encoding="UTF-8" standalone="no"?>
<!DOCTYPE svg PUBLIC "-//W3C//DTD SVG 1.1//EN"
 "http://www.w3.org/Graphics/SVG/1.1/DTD/svg11.dtd">
<!-- Generated by graphviz version 12.1.1 (0)
 -->
<!-- Title: boards/ublox&#45;c030&#45;u201/include/periph_conf.h Pages: 1 -->
<svg width="225pt" height="155pt"
 viewBox="0.00 0.00 224.50 155.00" xmlns="http://www.w3.org/2000/svg" xmlns:xlink="http://www.w3.org/1999/xlink">
<g id="graph0" class="graph" transform="scale(1 1) rotate(0) translate(4 151)">
<title>boards/ublox&#45;c030&#45;u201/include/periph_conf.h</title>
<!-- Node1 -->
<g id="Node000001" class="node">
<title>Node1</title>
<g id="a_Node000001"><a xlink:title="Peripheral MCU configuration for the Ublox C030&#45;U201 board.">
<polygon fill="#999999" stroke="#666666" points="133.75,-147 0,-147 0,-113.5 133.75,-113.5 133.75,-147"/>
<text text-anchor="start" x="8" y="-133.5" font-family="Helvetica,sans-Serif" font-size="10.00">boards/ublox&#45;c030&#45;u201</text>
<text text-anchor="middle" x="66.88" y="-120.75" font-family="Helvetica,sans-Serif" font-size="10.00">/include/periph_conf.h</text>
</a>
</g>
</g>
<!-- Node2 -->
<g id="Node000002" class="node">
<title>Node2</title>
<g id="a_Node000002"><a xlink:title=" ">
<polygon fill="#e0e0e0" stroke="#999999" points="126,-20.75 47.75,-20.75 47.75,0 126,0 126,-20.75"/>
<text text-anchor="middle" x="86.88" y="-7.25" font-family="Helvetica,sans-Serif" font-size="10.00">periph_cpu.h</text>
</a>
</g>
</g>
<!-- Node1&#45;&gt;Node2 -->
<g id="edge1_Node000001_Node000002" class="edge">
<title>Node1&#45;&gt;Node2</title>
<g id="a_edge1_Node000001_Node000002"><a xlink:title=" ">
<path fill="none" stroke="#63b8ff" d="M47.48,-113.09C32.53,-98.55 15.94,-76.52 25.88,-56.75 32.15,-44.25 43.69,-34.33 55.05,-26.99"/>
<polygon fill="#63b8ff" stroke="#63b8ff" points="56.71,-30.07 63.55,-21.97 53.16,-24.04 56.71,-30.07"/>
</a>
</g>
</g>
<!-- Node3 -->
<g id="Node000003" class="node">
<title>Node3</title>
<g id="a_Node000003"><a xlink:title=" ">
<polygon fill="#e0e0e0" stroke="#999999" points="99.25,-77.5 34.5,-77.5 34.5,-56.75 99.25,-56.75 99.25,-77.5"/>
<text text-anchor="middle" x="66.88" y="-64" font-family="Helvetica,sans-Serif" font-size="10.00">clk_conf.h</text>
</a>
</g>
</g>
<!-- Node1&#45;&gt;Node3 -->
<g id="edge2_Node000001_Node000003" class="edge">
<title>Node1&#45;&gt;Node3</title>
<g id="a_edge2_Node000001_Node000003"><a xlink:title=" ">
<path fill="none" stroke="#63b8ff" d="M66.88,-113.19C66.88,-105.85 66.88,-97.07 66.88,-89.21"/>
<polygon fill="#63b8ff" stroke="#63b8ff" points="70.38,-89.48 66.88,-79.48 63.38,-89.48 70.38,-89.48"/>
</a>
</g>
</g>
<!-- Node4 -->
<g id="Node000004" class="node">
<title>Node4</title>
<g id="a_Node000004"><a xlink:href="cfg__timer__tim5_8h.html" target="_top" xlink:title="Common configuration for STM32 Timer peripheral based on TIM5.">
<polygon fill="white" stroke="#666666" points="216.5,-77.5 117.25,-77.5 117.25,-56.75 216.5,-56.75 216.5,-77.5"/>
<text text-anchor="middle" x="166.88" y="-64" font-family="Helvetica,sans-Serif" font-size="10.00">cfg_timer_tim5.h</text>
</a>
</g>
</g>
<!-- Node1&#45;&gt;Node4 -->
<g id="edge3_Node000001_Node000004" class="edge">
<title>Node1&#45;&gt;Node4</title>
<g id="a_edge3_Node000001_Node000004"><a xlink:title=" ">
<path fill="none" stroke="#63b8ff" d="M93.41,-113.03C108.27,-103.95 126.7,-92.68 141.38,-83.71"/>
<polygon fill="#63b8ff" stroke="#63b8ff" points="142.86,-86.91 149.57,-78.7 139.21,-80.93 142.86,-86.91"/>
</a>
</g>
</g>
<!-- Node4&#45;&gt;Node2 -->
<g id="edge4_Node000004_Node000002" class="edge">
<title>Node4&#45;&gt;Node2</title>
<g id="a_edge4_Node000004_Node000002"><a xlink:title=" ">
<path fill="none" stroke="#63b8ff" d="M152.57,-56.34C140.86,-48.32 124.04,-36.81 110.35,-27.44"/>
<polygon fill="#63b8ff" stroke="#63b8ff" points="112.53,-24.69 102.3,-21.93 108.58,-30.47 112.53,-24.69"/>
</a>
</g>
</g>
</g>
</svg>
