<?xml version="1.0" encoding="UTF-8" standalone="no"?>
<!DOCTYPE svg PUBLIC "-//W3C//DTD SVG 1.1//EN"
 "http://www.w3.org/Graphics/SVG/1.1/DTD/svg11.dtd">
<!-- Generated by graphviz version 12.1.1 (0)
 -->
<!-- Title: boards/msb&#45;430h/include/periph_conf.h Pages: 1 -->
<svg width="181pt" height="168pt"
 viewBox="0.00 0.00 181.25 167.75" xmlns="http://www.w3.org/2000/svg" xmlns:xlink="http://www.w3.org/1999/xlink">
<g id="graph0" class="graph" transform="scale(1 1) rotate(0) translate(4 163.75)">
<title>boards/msb&#45;430h/include/periph_conf.h</title>
<!-- Node1 -->
<g id="Node000001" class="node">
<title>Node1</title>
<g id="a_Node000001"><a xlink:title="MSB&#45;430h peripheral configuration.">
<polygon fill="#999999" stroke="#666666" points="139,-159.75 0,-159.75 0,-126.25 139,-126.25 139,-159.75"/>
<text text-anchor="start" x="8" y="-146.25" font-family="Helvetica,sans-Serif" font-size="10.00">boards/msb&#45;430h/include</text>
<text text-anchor="middle" x="69.5" y="-133.5" font-family="Helvetica,sans-Serif" font-size="10.00">/periph_conf.h</text>
</a>
</g>
</g>
<!-- Node2 -->
<g id="Node000002" class="node">
<title>Node2</title>
<g id="a_Node000002"><a xlink:title=" ">
<polygon fill="#e0e0e0" stroke="#999999" points="108.62,-20.75 30.38,-20.75 30.38,0 108.62,0 108.62,-20.75"/>
<text text-anchor="middle" x="69.5" y="-7.25" font-family="Helvetica,sans-Serif" font-size="10.00">periph_cpu.h</text>
</a>
</g>
</g>
<!-- Node1&#45;&gt;Node2 -->
<g id="edge1_Node000001_Node000002" class="edge">
<title>Node1&#45;&gt;Node2</title>
<g id="a_edge1_Node000001_Node000002"><a xlink:title=" ">
<path fill="none" stroke="#63b8ff" d="M59.4,-125.92C53.8,-116.04 47.39,-102.89 44.5,-90.25 41.18,-75.74 40.79,-71.17 44.5,-56.75 46.84,-47.65 51.44,-38.42 56.06,-30.68"/>
<polygon fill="#63b8ff" stroke="#63b8ff" points="58.87,-32.78 61.34,-22.47 52.98,-28.98 58.87,-32.78"/>
</a>
</g>
</g>
<!-- Node3 -->
<g id="Node000003" class="node">
<title>Node3</title>
<g id="a_Node000003"><a xlink:href="cfg__timer__a__smclk__b__aclk_8h.html" target="_top" xlink:title="Common timer configuration for TIMER_A clocked by SMCLK and TIMER_B clocked by ACLK.">
<polygon fill="white" stroke="#666666" points="173.25,-90.25 53.75,-90.25 53.75,-56.75 173.25,-56.75 173.25,-90.25"/>
<text text-anchor="start" x="61.75" y="-76.75" font-family="Helvetica,sans-Serif" font-size="10.00">cfg_timer_a_smclk_b</text>
<text text-anchor="middle" x="113.5" y="-64" font-family="Helvetica,sans-Serif" font-size="10.00">_aclk.h</text>
</a>
</g>
</g>
<!-- Node1&#45;&gt;Node3 -->
<g id="edge2_Node000001_Node000003" class="edge">
<title>Node1&#45;&gt;Node3</title>
<g id="a_edge2_Node000001_Node000003"><a xlink:title=" ">
<path fill="none" stroke="#63b8ff" d="M79.93,-126C85.02,-118.19 91.28,-108.59 97,-99.81"/>
<polygon fill="#63b8ff" stroke="#63b8ff" points="99.79,-101.94 102.32,-91.65 93.93,-98.12 99.79,-101.94"/>
</a>
</g>
</g>
<!-- Node3&#45;&gt;Node2 -->
<g id="edge3_Node000003_Node000002" class="edge">
<title>Node3&#45;&gt;Node2</title>
<g id="a_edge3_Node000003_Node000002"><a xlink:title=" ">
<path fill="none" stroke="#63b8ff" d="M101.94,-56.44C96.22,-48.49 89.27,-38.84 83.28,-30.52"/>
<polygon fill="#63b8ff" stroke="#63b8ff" points="86.15,-28.52 77.47,-22.45 80.47,-32.61 86.15,-28.52"/>
</a>
</g>
</g>
</g>
</svg>
