<?xml version="1.0" encoding="UTF-8" standalone="no"?>
<!DOCTYPE svg PUBLIC "-//W3C//DTD SVG 1.1//EN"
 "http://www.w3.org/Graphics/SVG/1.1/DTD/svg11.dtd">
<!-- Generated by graphviz version 12.1.1 (0)
 -->
<!-- Title: boards/common/weact&#45;f4x1cx/include/periph_conf.h Pages: 1 -->
<svg width="463pt" height="225pt"
 viewBox="0.00 0.00 463.38 224.50" xmlns="http://www.w3.org/2000/svg" xmlns:xlink="http://www.w3.org/1999/xlink">
<g id="graph0" class="graph" transform="scale(1 1) rotate(0) translate(4 220.5)">
<title>boards/common/weact&#45;f4x1cx/include/periph_conf.h</title>
<!-- Node1 -->
<g id="Node000001" class="node">
<title>Node1</title>
<g id="a_Node000001"><a xlink:title="Peripheral MCU configuration for the WeAct&#45;F4X1CX Board.">
<polygon fill="#999999" stroke="#666666" points="263.88,-216.5 136.88,-216.5 136.88,-170.25 263.88,-170.25 263.88,-216.5"/>
<text text-anchor="start" x="144.88" y="-203" font-family="Helvetica,sans-Serif" font-size="10.00">boards/common/weact</text>
<text text-anchor="start" x="144.88" y="-190.25" font-family="Helvetica,sans-Serif" font-size="10.00">&#45;f4x1cx/include/periph</text>
<text text-anchor="middle" x="200.38" y="-177.5" font-family="Helvetica,sans-Serif" font-size="10.00">_conf.h</text>
</a>
</g>
</g>
<!-- Node2 -->
<g id="Node000002" class="node">
<title>Node2</title>
<g id="a_Node000002"><a xlink:title=" ">
<polygon fill="#e0e0e0" stroke="#999999" points="64.75,-134.25 0,-134.25 0,-113.5 64.75,-113.5 64.75,-134.25"/>
<text text-anchor="middle" x="32.38" y="-120.75" font-family="Helvetica,sans-Serif" font-size="10.00">clk_conf.h</text>
</a>
</g>
</g>
<!-- Node1&#45;&gt;Node2 -->
<g id="edge1_Node000001_Node000002" class="edge">
<title>Node1&#45;&gt;Node2</title>
<g id="a_edge1_Node000001_Node000002"><a xlink:title=" ">
<path fill="none" stroke="#63b8ff" d="M144.43,-169.9C118.96,-159.66 89.59,-147.86 67.31,-138.91"/>
<polygon fill="#63b8ff" stroke="#63b8ff" points="68.67,-135.69 58.08,-135.2 66.06,-142.18 68.67,-135.69"/>
</a>
</g>
</g>
<!-- Node3 -->
<g id="Node000003" class="node">
<title>Node3</title>
<g id="a_Node000003"><a xlink:href="cfg__i2c1__pb8__pb9_8h.html" target="_top" xlink:title="Common configuration for STM32 I2C.">
<polygon fill="white" stroke="#666666" points="194.38,-134.25 82.38,-134.25 82.38,-113.5 194.38,-113.5 194.38,-134.25"/>
<text text-anchor="middle" x="138.38" y="-120.75" font-family="Helvetica,sans-Serif" font-size="10.00">cfg_i2c1_pb8_pb9.h</text>
</a>
</g>
</g>
<!-- Node1&#45;&gt;Node3 -->
<g id="edge2_Node000001_Node000003" class="edge">
<title>Node1&#45;&gt;Node3</title>
<g id="a_edge2_Node000001_Node000003"><a xlink:title=" ">
<path fill="none" stroke="#63b8ff" d="M179.73,-169.9C171.66,-161.11 162.53,-151.17 154.91,-142.87"/>
<polygon fill="#63b8ff" stroke="#63b8ff" points="157.71,-140.75 148.37,-135.76 152.56,-145.49 157.71,-140.75"/>
</a>
</g>
</g>
<!-- Node5 -->
<g id="Node000005" class="node">
<title>Node5</title>
<g id="a_Node000005"><a xlink:href="cfg__timer__tim5_8h.html" target="_top" xlink:title="Common configuration for STM32 Timer peripheral based on TIM5.">
<polygon fill="white" stroke="#666666" points="312,-134.25 212.75,-134.25 212.75,-113.5 312,-113.5 312,-134.25"/>
<text text-anchor="middle" x="262.38" y="-120.75" font-family="Helvetica,sans-Serif" font-size="10.00">cfg_timer_tim5.h</text>
</a>
</g>
</g>
<!-- Node1&#45;&gt;Node5 -->
<g id="edge4_Node000001_Node000005" class="edge">
<title>Node1&#45;&gt;Node5</title>
<g id="a_edge4_Node000001_Node000005"><a xlink:title=" ">
<path fill="none" stroke="#63b8ff" d="M221.02,-169.9C229.09,-161.11 238.22,-151.17 245.84,-142.87"/>
<polygon fill="#63b8ff" stroke="#63b8ff" points="248.19,-145.49 252.38,-135.76 243.04,-140.75 248.19,-145.49"/>
</a>
</g>
</g>
<!-- Node6 -->
<g id="Node000006" class="node">
<title>Node6</title>
<g id="a_Node000006"><a xlink:href="cfg__usb__otg__fs_8h.html" target="_top" xlink:title="Common configuration for STM32 OTG FS peripheral.">
<polygon fill="white" stroke="#666666" points="428.25,-134.25 330.5,-134.25 330.5,-113.5 428.25,-113.5 428.25,-134.25"/>
<text text-anchor="middle" x="379.38" y="-120.75" font-family="Helvetica,sans-Serif" font-size="10.00">cfg_usb_otg_fs.h</text>
</a>
</g>
</g>
<!-- Node1&#45;&gt;Node6 -->
<g id="edge6_Node000001_Node000006" class="edge">
<title>Node1&#45;&gt;Node6</title>
<g id="a_edge6_Node000001_Node000006"><a xlink:title=" ">
<path fill="none" stroke="#63b8ff" d="M259.98,-169.9C287.37,-159.57 318.99,-147.65 342.8,-138.67"/>
<polygon fill="#63b8ff" stroke="#63b8ff" points="343.94,-141.98 352.06,-135.17 341.47,-135.43 343.94,-141.98"/>
</a>
</g>
</g>
<!-- Node4 -->
<g id="Node000004" class="node">
<title>Node4</title>
<g id="a_Node000004"><a xlink:title=" ">
<polygon fill="#e0e0e0" stroke="#999999" points="295.5,-77.5 217.25,-77.5 217.25,-56.75 295.5,-56.75 295.5,-77.5"/>
<text text-anchor="middle" x="256.38" y="-64" font-family="Helvetica,sans-Serif" font-size="10.00">periph_cpu.h</text>
</a>
</g>
</g>
<!-- Node3&#45;&gt;Node4 -->
<g id="edge3_Node000003_Node000004" class="edge">
<title>Node3&#45;&gt;Node4</title>
<g id="a_edge3_Node000003_Node000004"><a xlink:title=" ">
<path fill="none" stroke="#63b8ff" d="M159.47,-113.09C177.76,-104.6 204.48,-92.2 225.23,-82.58"/>
<polygon fill="#63b8ff" stroke="#63b8ff" points="226.49,-85.85 234.09,-78.47 223.54,-79.5 226.49,-85.85"/>
</a>
</g>
</g>
<!-- Node5&#45;&gt;Node4 -->
<g id="edge5_Node000005_Node000004" class="edge">
<title>Node5&#45;&gt;Node4</title>
<g id="a_edge5_Node000005_Node000004"><a xlink:title=" ">
<path fill="none" stroke="#63b8ff" d="M261.3,-113.09C260.58,-106.47 259.59,-97.47 258.69,-89.27"/>
<polygon fill="#63b8ff" stroke="#63b8ff" points="262.17,-88.89 257.6,-79.33 255.21,-89.65 262.17,-88.89"/>
</a>
</g>
</g>
<!-- Node6&#45;&gt;Node4 -->
<g id="edge7_Node000006_Node000004" class="edge">
<title>Node6&#45;&gt;Node4</title>
<g id="a_edge7_Node000006_Node000004"><a xlink:title=" ">
<path fill="none" stroke="#63b8ff" d="M357.39,-113.09C338.23,-104.56 310.21,-92.09 288.54,-82.44"/>
<polygon fill="#63b8ff" stroke="#63b8ff" points="290.12,-79.31 279.56,-78.44 287.27,-85.71 290.12,-79.31"/>
</a>
</g>
</g>
<!-- Node7 -->
<g id="Node000007" class="node">
<title>Node7</title>
<g id="a_Node000007"><a xlink:href="usbdev__synopsys__dwc2_8h.html" target="_top" xlink:title="Low level USB FS/HS driver definitions for MCUs with Synopsys DWC2 IP core.">
<polygon fill="white" stroke="#666666" points="455.38,-77.5 313.38,-77.5 313.38,-56.75 455.38,-56.75 455.38,-77.5"/>
<text text-anchor="middle" x="384.38" y="-64" font-family="Helvetica,sans-Serif" font-size="10.00">usbdev_synopsys_dwc2.h</text>
</a>
</g>
</g>
<!-- Node6&#45;&gt;Node7 -->
<g id="edge8_Node000006_Node000007" class="edge">
<title>Node6&#45;&gt;Node7</title>
<g id="a_edge8_Node000006_Node000007"><a xlink:title=" ">
<path fill="none" stroke="#63b8ff" d="M380.27,-113.09C380.87,-106.47 381.69,-97.47 382.44,-89.27"/>
<polygon fill="#63b8ff" stroke="#63b8ff" points="385.93,-89.61 383.35,-79.34 378.96,-88.98 385.93,-89.61"/>
</a>
</g>
</g>
<!-- Node8 -->
<g id="Node000008" class="node">
<title>Node8</title>
<g id="a_Node000008"><a xlink:title=" ">
<polygon fill="#e0e0e0" stroke="#999999" points="410.75,-20.75 358,-20.75 358,0 410.75,0 410.75,-20.75"/>
<text text-anchor="middle" x="384.38" y="-7.25" font-family="Helvetica,sans-Serif" font-size="10.00">stdint.h</text>
</a>
</g>
</g>
<!-- Node7&#45;&gt;Node8 -->
<g id="edge9_Node000007_Node000008" class="edge">
<title>Node7&#45;&gt;Node8</title>
<g id="a_edge9_Node000007_Node000008"><a xlink:title=" ">
<path fill="none" stroke="#63b8ff" d="M384.38,-56.34C384.38,-49.72 384.38,-40.72 384.38,-32.52"/>
<polygon fill="#63b8ff" stroke="#63b8ff" points="387.88,-32.59 384.38,-22.59 380.88,-32.59 387.88,-32.59"/>
</a>
</g>
</g>
</g>
</svg>
