<?xml version="1.0" encoding="UTF-8" standalone="no"?>
<!DOCTYPE svg PUBLIC "-//W3C//DTD SVG 1.1//EN"
 "http://www.w3.org/Graphics/SVG/1.1/DTD/svg11.dtd">
<!-- Generated by graphviz version 12.1.1 (0)
 -->
<!-- Title: boards/nucleo&#45;f722ze/include/periph_conf.h Pages: 1 -->
<svg width="591pt" height="212pt"
 viewBox="0.00 0.00 590.66 211.75" xmlns="http://www.w3.org/2000/svg" xmlns:xlink="http://www.w3.org/1999/xlink">
<g id="graph0" class="graph" transform="scale(1 1) rotate(0) translate(4 207.75)">
<title>boards/nucleo&#45;f722ze/include/periph_conf.h</title>
<!-- Node1 -->
<g id="Node000001" class="node">
<title>Node1</title>
<g id="a_Node000001"><a xlink:title="Peripheral MCU configuration for the nucleo&#45;f722ze board.">
<polygon fill="#999999" stroke="#666666" points="278.91,-203.75 156.41,-203.75 156.41,-170.25 278.91,-170.25 278.91,-203.75"/>
<text text-anchor="start" x="164.41" y="-190.25" font-family="Helvetica,sans-Serif" font-size="10.00">boards/nucleo&#45;f722ze</text>
<text text-anchor="middle" x="217.66" y="-177.5" font-family="Helvetica,sans-Serif" font-size="10.00">/include/periph_conf.h</text>
</a>
</g>
</g>
<!-- Node2 -->
<g id="Node000002" class="node">
<title>Node2</title>
<g id="a_Node000002"><a xlink:title=" ">
<polygon fill="#e0e0e0" stroke="#999999" points="309.79,-77.5 231.54,-77.5 231.54,-56.75 309.79,-56.75 309.79,-77.5"/>
<text text-anchor="middle" x="270.66" y="-64" font-family="Helvetica,sans-Serif" font-size="10.00">periph_cpu.h</text>
</a>
</g>
</g>
<!-- Node1&#45;&gt;Node2 -->
<g id="edge1_Node000001_Node000002" class="edge">
<title>Node1&#45;&gt;Node2</title>
<g id="a_edge1_Node000001_Node000002"><a xlink:title=" ">
<path fill="none" stroke="#63b8ff" d="M156.08,-184.24C80.24,-179.87 -33.54,-164.86 9.66,-113.5 35.97,-82.22 151.53,-72.51 219.75,-69.49"/>
<polygon fill="#63b8ff" stroke="#63b8ff" points="219.73,-72.99 229.58,-69.09 219.44,-66 219.73,-72.99"/>
</a>
</g>
</g>
<!-- Node3 -->
<g id="Node000003" class="node">
<title>Node3</title>
<g id="a_Node000003"><a xlink:title=" ">
<polygon fill="#e0e0e0" stroke="#999999" points="83.04,-134.25 18.29,-134.25 18.29,-113.5 83.04,-113.5 83.04,-134.25"/>
<text text-anchor="middle" x="50.66" y="-120.75" font-family="Helvetica,sans-Serif" font-size="10.00">clk_conf.h</text>
</a>
</g>
</g>
<!-- Node1&#45;&gt;Node3 -->
<g id="edge2_Node000001_Node000003" class="edge">
<title>Node1&#45;&gt;Node3</title>
<g id="a_edge2_Node000001_Node000003"><a xlink:title=" ">
<path fill="none" stroke="#63b8ff" d="M173.35,-169.78C146.75,-160.04 113.29,-147.8 88.03,-138.55"/>
<polygon fill="#63b8ff" stroke="#63b8ff" points="89.42,-135.34 78.83,-135.19 87.02,-141.91 89.42,-135.34"/>
</a>
</g>
</g>
<!-- Node4 -->
<g id="Node000004" class="node">
<title>Node4</title>
<g id="a_Node000004"><a xlink:href="cfg__i2c1__pb8__pb9_8h.html" target="_top" xlink:title="Common configuration for STM32 I2C.">
<polygon fill="white" stroke="#666666" points="212.66,-134.25 100.66,-134.25 100.66,-113.5 212.66,-113.5 212.66,-134.25"/>
<text text-anchor="middle" x="156.66" y="-120.75" font-family="Helvetica,sans-Serif" font-size="10.00">cfg_i2c1_pb8_pb9.h</text>
</a>
</g>
</g>
<!-- Node1&#45;&gt;Node4 -->
<g id="edge3_Node000001_Node000004" class="edge">
<title>Node1&#45;&gt;Node4</title>
<g id="a_edge3_Node000001_Node000004"><a xlink:title=" ">
<path fill="none" stroke="#63b8ff" d="M201.63,-169.94C193.27,-161.56 183.01,-151.28 174.41,-142.66"/>
<polygon fill="#63b8ff" stroke="#63b8ff" points="177.09,-140.39 167.55,-135.79 172.14,-145.34 177.09,-140.39"/>
</a>
</g>
</g>
<!-- Node5 -->
<g id="Node000005" class="node">
<title>Node5</title>
<g id="a_Node000005"><a xlink:title=" ">
<polygon fill="#e0e0e0" stroke="#999999" points="326.79,-134.25 230.54,-134.25 230.54,-113.5 326.79,-113.5 326.79,-134.25"/>
<text text-anchor="middle" x="278.66" y="-120.75" font-family="Helvetica,sans-Serif" font-size="10.00">cfg_rtt_default.h</text>
</a>
</g>
</g>
<!-- Node1&#45;&gt;Node5 -->
<g id="edge5_Node000001_Node000005" class="edge">
<title>Node1&#45;&gt;Node5</title>
<g id="a_edge5_Node000001_Node000005"><a xlink:title=" ">
<path fill="none" stroke="#63b8ff" d="M233.69,-169.94C242.05,-161.56 252.31,-151.28 260.92,-142.66"/>
<polygon fill="#63b8ff" stroke="#63b8ff" points="263.18,-145.34 267.77,-135.79 258.23,-140.39 263.18,-145.34"/>
</a>
</g>
</g>
<!-- Node6 -->
<g id="Node000006" class="node">
<title>Node6</title>
<g id="a_Node000006"><a xlink:href="cfg__timer__tim2_8h.html" target="_top" xlink:title="Common configuration for STM32 Timer peripheral based on TIM2.">
<polygon fill="white" stroke="#666666" points="444.29,-134.25 345.04,-134.25 345.04,-113.5 444.29,-113.5 444.29,-134.25"/>
<text text-anchor="middle" x="394.66" y="-120.75" font-family="Helvetica,sans-Serif" font-size="10.00">cfg_timer_tim2.h</text>
</a>
</g>
</g>
<!-- Node1&#45;&gt;Node6 -->
<g id="edge6_Node000001_Node000006" class="edge">
<title>Node1&#45;&gt;Node6</title>
<g id="a_edge6_Node000001_Node000006"><a xlink:title=" ">
<path fill="none" stroke="#63b8ff" d="M264.63,-169.78C293.07,-159.96 328.92,-147.58 355.77,-138.31"/>
<polygon fill="#63b8ff" stroke="#63b8ff" points="356.57,-141.73 364.88,-135.16 354.29,-135.12 356.57,-141.73"/>
</a>
</g>
</g>
<!-- Node7 -->
<g id="Node000007" class="node">
<title>Node7</title>
<g id="a_Node000007"><a xlink:href="cfg__usb__otg__fs_8h.html" target="_top" xlink:title="Common configuration for STM32 OTG FS peripheral.">
<polygon fill="white" stroke="#666666" points="560.54,-134.25 462.79,-134.25 462.79,-113.5 560.54,-113.5 560.54,-134.25"/>
<text text-anchor="middle" x="511.66" y="-120.75" font-family="Helvetica,sans-Serif" font-size="10.00">cfg_usb_otg_fs.h</text>
</a>
</g>
</g>
<!-- Node1&#45;&gt;Node7 -->
<g id="edge8_Node000001_Node000007" class="edge">
<title>Node1&#45;&gt;Node7</title>
<g id="a_edge8_Node000001_Node000007"><a xlink:title=" ">
<path fill="none" stroke="#63b8ff" d="M279.29,-173.19C330.64,-162.51 403.25,-147.41 453.58,-136.95"/>
<polygon fill="#63b8ff" stroke="#63b8ff" points="454.04,-140.43 463.12,-134.97 452.61,-133.58 454.04,-140.43"/>
</a>
</g>
</g>
<!-- Node4&#45;&gt;Node2 -->
<g id="edge4_Node000004_Node000002" class="edge">
<title>Node4&#45;&gt;Node2</title>
<g id="a_edge4_Node000004_Node000002"><a xlink:title=" ">
<path fill="none" stroke="#63b8ff" d="M177.04,-113.09C194.63,-104.64 220.29,-92.32 240.29,-82.71"/>
<polygon fill="#63b8ff" stroke="#63b8ff" points="241.59,-85.97 249.09,-78.48 238.56,-79.66 241.59,-85.97"/>
</a>
</g>
</g>
<!-- Node6&#45;&gt;Node2 -->
<g id="edge7_Node000006_Node000002" class="edge">
<title>Node6&#45;&gt;Node2</title>
<g id="a_edge7_Node000006_Node000002"><a xlink:title=" ">
<path fill="none" stroke="#63b8ff" d="M372.49,-113.09C353.18,-104.56 324.94,-92.09 303.09,-82.44"/>
<polygon fill="#63b8ff" stroke="#63b8ff" points="304.58,-79.28 294.02,-78.44 301.76,-85.68 304.58,-79.28"/>
</a>
</g>
</g>
<!-- Node7&#45;&gt;Node2 -->
<g id="edge9_Node000007_Node000002" class="edge">
<title>Node7&#45;&gt;Node2</title>
<g id="a_edge9_Node000007_Node000002"><a xlink:title=" ">
<path fill="none" stroke="#63b8ff" d="M468.3,-113.02C426.99,-103.64 364.84,-89.52 321.29,-79.63"/>
<polygon fill="#63b8ff" stroke="#63b8ff" points="322.09,-76.22 311.56,-77.42 320.54,-83.04 322.09,-76.22"/>
</a>
</g>
</g>
<!-- Node8 -->
<g id="Node000008" class="node">
<title>Node8</title>
<g id="a_Node000008"><a xlink:href="usbdev__synopsys__dwc2_8h.html" target="_top" xlink:title="Low level USB FS/HS driver definitions for MCUs with Synopsys DWC2 IP core.">
<polygon fill="white" stroke="#666666" points="582.66,-77.5 440.66,-77.5 440.66,-56.75 582.66,-56.75 582.66,-77.5"/>
<text text-anchor="middle" x="511.66" y="-64" font-family="Helvetica,sans-Serif" font-size="10.00">usbdev_synopsys_dwc2.h</text>
</a>
</g>
</g>
<!-- Node7&#45;&gt;Node8 -->
<g id="edge10_Node000007_Node000008" class="edge">
<title>Node7&#45;&gt;Node8</title>
<g id="a_edge10_Node000007_Node000008"><a xlink:title=" ">
<path fill="none" stroke="#63b8ff" d="M511.66,-113.09C511.66,-106.47 511.66,-97.47 511.66,-89.27"/>
<polygon fill="#63b8ff" stroke="#63b8ff" points="515.16,-89.34 511.66,-79.34 508.16,-89.34 515.16,-89.34"/>
</a>
</g>
</g>
<!-- Node9 -->
<g id="Node000009" class="node">
<title>Node9</title>
<g id="a_Node000009"><a xlink:title=" ">
<polygon fill="#e0e0e0" stroke="#999999" points="538.04,-20.75 485.29,-20.75 485.29,0 538.04,0 538.04,-20.75"/>
<text text-anchor="middle" x="511.66" y="-7.25" font-family="Helvetica,sans-Serif" font-size="10.00">stdint.h</text>
</a>
</g>
</g>
<!-- Node8&#45;&gt;Node9 -->
<g id="edge11_Node000008_Node000009" class="edge">
<title>Node8&#45;&gt;Node9</title>
<g id="a_edge11_Node000008_Node000009"><a xlink:title=" ">
<path fill="none" stroke="#63b8ff" d="M511.66,-56.34C511.66,-49.72 511.66,-40.72 511.66,-32.52"/>
<polygon fill="#63b8ff" stroke="#63b8ff" points="515.16,-32.59 511.66,-22.59 508.16,-32.59 515.16,-32.59"/>
</a>
</g>
</g>
</g>
</svg>
