<?xml version="1.0" encoding="UTF-8" standalone="no"?>
<!DOCTYPE svg PUBLIC "-//W3C//DTD SVG 1.1//EN"
 "http://www.w3.org/Graphics/SVG/1.1/DTD/svg11.dtd">
<!-- Generated by graphviz version 12.1.1 (0)
 -->
<!-- Title: boards/alientek&#45;pandora/include/periph_conf.h Pages: 1 -->
<svg width="284pt" height="98pt"
 viewBox="0.00 0.00 284.25 98.25" xmlns="http://www.w3.org/2000/svg" xmlns:xlink="http://www.w3.org/1999/xlink">
<g id="graph0" class="graph" transform="scale(1 1) rotate(0) translate(4 94.25)">
<title>boards/alientek&#45;pandora/include/periph_conf.h</title>
<!-- Node1 -->
<g id="Node000001" class="node">
<title>Node1</title>
<g id="a_Node000001"><a xlink:title="Peripheral MCU configuration for the Alientek Pandora board.">
<polygon fill="#999999" stroke="#666666" points="196.75,-90.25 61.5,-90.25 61.5,-56.75 196.75,-56.75 196.75,-90.25"/>
<text text-anchor="start" x="69.5" y="-76.75" font-family="Helvetica,sans-Serif" font-size="10.00">boards/alientek&#45;pandora</text>
<text text-anchor="middle" x="129.12" y="-64" font-family="Helvetica,sans-Serif" font-size="10.00">/include/periph_conf.h</text>
</a>
</g>
</g>
<!-- Node2 -->
<g id="Node000002" class="node">
<title>Node2</title>
<g id="a_Node000002"><a xlink:title=" ">
<polygon fill="#e0e0e0" stroke="#999999" points="78.25,-20.75 0,-20.75 0,0 78.25,0 78.25,-20.75"/>
<text text-anchor="middle" x="39.12" y="-7.25" font-family="Helvetica,sans-Serif" font-size="10.00">periph_cpu.h</text>
</a>
</g>
</g>
<!-- Node1&#45;&gt;Node2 -->
<g id="edge1_Node000001_Node000002" class="edge">
<title>Node1&#45;&gt;Node2</title>
<g id="a_edge1_Node000001_Node000002"><a xlink:title=" ">
<path fill="none" stroke="#63b8ff" d="M105.48,-56.44C92.36,-47.53 76.1,-36.49 62.96,-27.56"/>
<polygon fill="#63b8ff" stroke="#63b8ff" points="65.11,-24.79 54.87,-22.07 61.17,-30.58 65.11,-24.79"/>
</a>
</g>
</g>
<!-- Node3 -->
<g id="Node000003" class="node">
<title>Node3</title>
<g id="a_Node000003"><a xlink:title=" ">
<polygon fill="#e0e0e0" stroke="#999999" points="161.5,-20.75 96.75,-20.75 96.75,0 161.5,0 161.5,-20.75"/>
<text text-anchor="middle" x="129.12" y="-7.25" font-family="Helvetica,sans-Serif" font-size="10.00">clk_conf.h</text>
</a>
</g>
</g>
<!-- Node1&#45;&gt;Node3 -->
<g id="edge2_Node000001_Node000003" class="edge">
<title>Node1&#45;&gt;Node3</title>
<g id="a_edge2_Node000001_Node000003"><a xlink:title=" ">
<path fill="none" stroke="#63b8ff" d="M129.12,-56.44C129.12,-49.1 129.12,-40.32 129.12,-32.46"/>
<polygon fill="#63b8ff" stroke="#63b8ff" points="132.63,-32.73 129.13,-22.73 125.63,-32.73 132.63,-32.73"/>
</a>
</g>
</g>
<!-- Node4 -->
<g id="Node000004" class="node">
<title>Node4</title>
<g id="a_Node000004"><a xlink:title=" ">
<polygon fill="#e0e0e0" stroke="#999999" points="276.25,-20.75 180,-20.75 180,0 276.25,0 276.25,-20.75"/>
<text text-anchor="middle" x="228.12" y="-7.25" font-family="Helvetica,sans-Serif" font-size="10.00">cfg_rtt_default.h</text>
</a>
</g>
</g>
<!-- Node1&#45;&gt;Node4 -->
<g id="edge3_Node000001_Node000004" class="edge">
<title>Node1&#45;&gt;Node4</title>
<g id="a_edge3_Node000001_Node000004"><a xlink:title=" ">
<path fill="none" stroke="#63b8ff" d="M155.4,-56.28C170.1,-47.2 188.35,-35.93 202.89,-26.96"/>
<polygon fill="#63b8ff" stroke="#63b8ff" points="204.31,-30.19 210.98,-21.96 200.63,-24.24 204.31,-30.19"/>
</a>
</g>
</g>
</g>
</svg>
