<?xml version="1.0" encoding="UTF-8" standalone="no"?>
<!DOCTYPE svg PUBLIC "-//W3C//DTD SVG 1.1//EN"
 "http://www.w3.org/Graphics/SVG/1.1/DTD/svg11.dtd">
<!-- Generated by graphviz version 12.1.1 (0)
 -->
<!-- Title: boards/nucleo&#45;l152re/include/periph_conf.h Pages: 1 -->
<svg width="219pt" height="155pt"
 viewBox="0.00 0.00 218.88 155.00" xmlns="http://www.w3.org/2000/svg" xmlns:xlink="http://www.w3.org/1999/xlink">
<g id="graph0" class="graph" transform="scale(1 1) rotate(0) translate(4 151)">
<title>boards/nucleo&#45;l152re/include/periph_conf.h</title>
<!-- Node1 -->
<g id="Node000001" class="node">
<title>Node1</title>
<g id="a_Node000001"><a xlink:title="Peripheral MCU configuration for the nucleo&#45;l152re board.">
<polygon fill="#999999" stroke="#666666" points="122.5,-147 0,-147 0,-113.5 122.5,-113.5 122.5,-147"/>
<text text-anchor="start" x="8" y="-133.5" font-family="Helvetica,sans-Serif" font-size="10.00">boards/nucleo&#45;l152re</text>
<text text-anchor="middle" x="61.25" y="-120.75" font-family="Helvetica,sans-Serif" font-size="10.00">/include/periph_conf.h</text>
</a>
</g>
</g>
<!-- Node2 -->
<g id="Node000002" class="node">
<title>Node2</title>
<g id="a_Node000002"><a xlink:title=" ">
<polygon fill="#e0e0e0" stroke="#999999" points="120.38,-20.75 42.12,-20.75 42.12,0 120.38,0 120.38,-20.75"/>
<text text-anchor="middle" x="81.25" y="-7.25" font-family="Helvetica,sans-Serif" font-size="10.00">periph_cpu.h</text>
</a>
</g>
</g>
<!-- Node1&#45;&gt;Node2 -->
<g id="edge1_Node000001_Node000002" class="edge">
<title>Node1&#45;&gt;Node2</title>
<g id="a_edge1_Node000001_Node000002"><a xlink:title=" ">
<path fill="none" stroke="#63b8ff" d="M41.86,-113.09C26.9,-98.55 10.32,-76.52 20.25,-56.75 26.53,-44.25 38.06,-34.33 49.42,-26.99"/>
<polygon fill="#63b8ff" stroke="#63b8ff" points="51.09,-30.07 57.92,-21.97 47.53,-24.04 51.09,-30.07"/>
</a>
</g>
</g>
<!-- Node3 -->
<g id="Node000003" class="node">
<title>Node3</title>
<g id="a_Node000003"><a xlink:title=" ">
<polygon fill="#e0e0e0" stroke="#999999" points="93.62,-77.5 28.88,-77.5 28.88,-56.75 93.62,-56.75 93.62,-77.5"/>
<text text-anchor="middle" x="61.25" y="-64" font-family="Helvetica,sans-Serif" font-size="10.00">clk_conf.h</text>
</a>
</g>
</g>
<!-- Node1&#45;&gt;Node3 -->
<g id="edge2_Node000001_Node000003" class="edge">
<title>Node1&#45;&gt;Node3</title>
<g id="a_edge2_Node000001_Node000003"><a xlink:title=" ">
<path fill="none" stroke="#63b8ff" d="M61.25,-113.19C61.25,-105.85 61.25,-97.07 61.25,-89.21"/>
<polygon fill="#63b8ff" stroke="#63b8ff" points="64.75,-89.48 61.25,-79.48 57.75,-89.48 64.75,-89.48"/>
</a>
</g>
</g>
<!-- Node4 -->
<g id="Node000004" class="node">
<title>Node4</title>
<g id="a_Node000004"><a xlink:href="cfg__timer__tim5_8h.html" target="_top" xlink:title="Common configuration for STM32 Timer peripheral based on TIM5.">
<polygon fill="white" stroke="#666666" points="210.88,-77.5 111.62,-77.5 111.62,-56.75 210.88,-56.75 210.88,-77.5"/>
<text text-anchor="middle" x="161.25" y="-64" font-family="Helvetica,sans-Serif" font-size="10.00">cfg_timer_tim5.h</text>
</a>
</g>
</g>
<!-- Node1&#45;&gt;Node4 -->
<g id="edge3_Node000001_Node000004" class="edge">
<title>Node1&#45;&gt;Node4</title>
<g id="a_edge3_Node000001_Node000004"><a xlink:title=" ">
<path fill="none" stroke="#63b8ff" d="M87.79,-113.03C102.64,-103.95 121.07,-92.68 135.76,-83.71"/>
<polygon fill="#63b8ff" stroke="#63b8ff" points="137.24,-86.91 143.94,-78.7 133.58,-80.93 137.24,-86.91"/>
</a>
</g>
</g>
<!-- Node4&#45;&gt;Node2 -->
<g id="edge4_Node000004_Node000002" class="edge">
<title>Node4&#45;&gt;Node2</title>
<g id="a_edge4_Node000004_Node000002"><a xlink:title=" ">
<path fill="none" stroke="#63b8ff" d="M146.95,-56.34C135.23,-48.32 118.41,-36.81 104.72,-27.44"/>
<polygon fill="#63b8ff" stroke="#63b8ff" points="106.91,-24.69 96.68,-21.93 102.95,-30.47 106.91,-24.69"/>
</a>
</g>
</g>
</g>
</svg>
