<?xml version="1.0" encoding="UTF-8" standalone="no"?>
<!DOCTYPE svg PUBLIC "-//W3C//DTD SVG 1.1//EN"
 "http://www.w3.org/Graphics/SVG/1.1/DTD/svg11.dtd">
<!-- Generated by graphviz version 12.1.1 (0)
 -->
<!-- Title: boards/nucleo&#45;f446ze/include/periph_conf.h Pages: 1 -->
<svg width="474pt" height="212pt"
 viewBox="0.00 0.00 474.37 211.75" xmlns="http://www.w3.org/2000/svg" xmlns:xlink="http://www.w3.org/1999/xlink">
<g id="graph0" class="graph" transform="scale(1 1) rotate(0) translate(4 207.75)">
<title>boards/nucleo&#45;f446ze/include/periph_conf.h</title>
<!-- Node1 -->
<g id="Node000001" class="node">
<title>Node1</title>
<g id="a_Node000001"><a xlink:title=" ">
<polygon fill="#999999" stroke="#666666" points="215.62,-203.75 93.12,-203.75 93.12,-170.25 215.62,-170.25 215.62,-203.75"/>
<text text-anchor="start" x="101.12" y="-190.25" font-family="Helvetica,sans-Serif" font-size="10.00">boards/nucleo&#45;f446ze</text>
<text text-anchor="middle" x="154.37" y="-177.5" font-family="Helvetica,sans-Serif" font-size="10.00">/include/periph_conf.h</text>
</a>
</g>
</g>
<!-- Node2 -->
<g id="Node000002" class="node">
<title>Node2</title>
<g id="a_Node000002"><a xlink:title=" ">
<polygon fill="#e0e0e0" stroke="#999999" points="250.49,-77.5 172.24,-77.5 172.24,-56.75 250.49,-56.75 250.49,-77.5"/>
<text text-anchor="middle" x="211.37" y="-64" font-family="Helvetica,sans-Serif" font-size="10.00">periph_cpu.h</text>
</a>
</g>
</g>
<!-- Node1&#45;&gt;Node2 -->
<g id="edge1_Node000001_Node000002" class="edge">
<title>Node1&#45;&gt;Node2</title>
<g id="a_edge1_Node000001_Node000002"><a xlink:title=" ">
<path fill="none" stroke="#63b8ff" d="M92.88,-177.49C41.04,-167.72 -20.59,-148.35 7.37,-113.5 26.24,-89.97 106.68,-77.86 160.73,-72.27"/>
<polygon fill="#63b8ff" stroke="#63b8ff" points="161.05,-75.75 170.66,-71.29 160.37,-68.78 161.05,-75.75"/>
</a>
</g>
</g>
<!-- Node3 -->
<g id="Node000003" class="node">
<title>Node3</title>
<g id="a_Node000003"><a xlink:title=" ">
<polygon fill="#e0e0e0" stroke="#999999" points="80.74,-134.25 15.99,-134.25 15.99,-113.5 80.74,-113.5 80.74,-134.25"/>
<text text-anchor="middle" x="48.37" y="-120.75" font-family="Helvetica,sans-Serif" font-size="10.00">clk_conf.h</text>
</a>
</g>
</g>
<!-- Node1&#45;&gt;Node3 -->
<g id="edge2_Node000001_Node000003" class="edge">
<title>Node1&#45;&gt;Node3</title>
<g id="a_edge2_Node000001_Node000003"><a xlink:title=" ">
<path fill="none" stroke="#63b8ff" d="M126.24,-169.78C110.34,-160.61 90.58,-149.22 74.94,-140.2"/>
<polygon fill="#63b8ff" stroke="#63b8ff" points="77.07,-137.38 66.65,-135.42 73.57,-143.45 77.07,-137.38"/>
</a>
</g>
</g>
<!-- Node4 -->
<g id="Node000004" class="node">
<title>Node4</title>
<g id="a_Node000004"><a xlink:href="cfg__i2c1__pb8__pb9_8h.html" target="_top" xlink:title="Common configuration for STM32 I2C.">
<polygon fill="white" stroke="#666666" points="210.37,-134.25 98.37,-134.25 98.37,-113.5 210.37,-113.5 210.37,-134.25"/>
<text text-anchor="middle" x="154.37" y="-120.75" font-family="Helvetica,sans-Serif" font-size="10.00">cfg_i2c1_pb8_pb9.h</text>
</a>
</g>
</g>
<!-- Node1&#45;&gt;Node4 -->
<g id="edge3_Node000001_Node000004" class="edge">
<title>Node1&#45;&gt;Node4</title>
<g id="a_edge3_Node000001_Node000004"><a xlink:title=" ">
<path fill="none" stroke="#63b8ff" d="M154.37,-169.94C154.37,-162.6 154.37,-153.82 154.37,-145.96"/>
<polygon fill="#63b8ff" stroke="#63b8ff" points="157.87,-146.23 154.37,-136.23 150.87,-146.23 157.87,-146.23"/>
</a>
</g>
</g>
<!-- Node5 -->
<g id="Node000005" class="node">
<title>Node5</title>
<g id="a_Node000005"><a xlink:href="cfg__timer__tim5_8h.html" target="_top" xlink:title="Common configuration for STM32 Timer peripheral based on TIM5.">
<polygon fill="white" stroke="#666666" points="327.99,-134.25 228.74,-134.25 228.74,-113.5 327.99,-113.5 327.99,-134.25"/>
<text text-anchor="middle" x="278.37" y="-120.75" font-family="Helvetica,sans-Serif" font-size="10.00">cfg_timer_tim5.h</text>
</a>
</g>
</g>
<!-- Node1&#45;&gt;Node5 -->
<g id="edge5_Node000001_Node000005" class="edge">
<title>Node1&#45;&gt;Node5</title>
<g id="a_edge5_Node000001_Node000005"><a xlink:title=" ">
<path fill="none" stroke="#63b8ff" d="M187.27,-169.78C206.22,-160.44 229.87,-148.78 248.32,-139.69"/>
<polygon fill="#63b8ff" stroke="#63b8ff" points="249.73,-142.9 257.15,-135.33 246.63,-136.62 249.73,-142.9"/>
</a>
</g>
</g>
<!-- Node6 -->
<g id="Node000006" class="node">
<title>Node6</title>
<g id="a_Node000006"><a xlink:href="cfg__usb__otg__fs_8h.html" target="_top" xlink:title="Common configuration for STM32 OTG FS peripheral.">
<polygon fill="white" stroke="#666666" points="444.24,-134.25 346.49,-134.25 346.49,-113.5 444.24,-113.5 444.24,-134.25"/>
<text text-anchor="middle" x="395.37" y="-120.75" font-family="Helvetica,sans-Serif" font-size="10.00">cfg_usb_otg_fs.h</text>
</a>
</g>
</g>
<!-- Node1&#45;&gt;Node6 -->
<g id="edge7_Node000001_Node000006" class="edge">
<title>Node1&#45;&gt;Node6</title>
<g id="a_edge7_Node000001_Node000006"><a xlink:title=" ">
<path fill="none" stroke="#63b8ff" d="M215.8,-170.42C256.17,-160.18 308.28,-146.96 345.95,-137.41"/>
<polygon fill="#63b8ff" stroke="#63b8ff" points="346.36,-140.91 355.2,-135.06 344.64,-134.13 346.36,-140.91"/>
</a>
</g>
</g>
<!-- Node4&#45;&gt;Node2 -->
<g id="edge4_Node000004_Node000002" class="edge">
<title>Node4&#45;&gt;Node2</title>
<g id="a_edge4_Node000004_Node000002"><a xlink:title=" ">
<path fill="none" stroke="#63b8ff" d="M164.56,-113.09C172.5,-105.46 183.73,-94.67 193.21,-85.57"/>
<polygon fill="#63b8ff" stroke="#63b8ff" points="195.38,-88.33 200.17,-78.88 190.54,-83.28 195.38,-88.33"/>
</a>
</g>
</g>
<!-- Node5&#45;&gt;Node2 -->
<g id="edge6_Node000005_Node000002" class="edge">
<title>Node5&#45;&gt;Node2</title>
<g id="a_edge6_Node000005_Node000002"><a xlink:title=" ">
<path fill="none" stroke="#63b8ff" d="M266.39,-113.09C256.86,-105.3 243.3,-94.22 232.03,-85.01"/>
<polygon fill="#63b8ff" stroke="#63b8ff" points="234.37,-82.4 224.41,-78.79 229.94,-87.82 234.37,-82.4"/>
</a>
</g>
</g>
<!-- Node6&#45;&gt;Node2 -->
<g id="edge8_Node000006_Node000002" class="edge">
<title>Node6&#45;&gt;Node2</title>
<g id="a_edge8_Node000006_Node000002"><a xlink:title=" ">
<path fill="none" stroke="#63b8ff" d="M362.47,-113.09C332.47,-104.16 287.94,-90.91 254.98,-81.1"/>
<polygon fill="#63b8ff" stroke="#63b8ff" points="256.32,-77.85 245.74,-78.35 254.32,-84.56 256.32,-77.85"/>
</a>
</g>
</g>
<!-- Node7 -->
<g id="Node000007" class="node">
<title>Node7</title>
<g id="a_Node000007"><a xlink:href="usbdev__synopsys__dwc2_8h.html" target="_top" xlink:title="Low level USB FS/HS driver definitions for MCUs with Synopsys DWC2 IP core.">
<polygon fill="white" stroke="#666666" points="466.37,-77.5 324.37,-77.5 324.37,-56.75 466.37,-56.75 466.37,-77.5"/>
<text text-anchor="middle" x="395.37" y="-64" font-family="Helvetica,sans-Serif" font-size="10.00">usbdev_synopsys_dwc2.h</text>
</a>
</g>
</g>
<!-- Node6&#45;&gt;Node7 -->
<g id="edge9_Node000006_Node000007" class="edge">
<title>Node6&#45;&gt;Node7</title>
<g id="a_edge9_Node000006_Node000007"><a xlink:title=" ">
<path fill="none" stroke="#63b8ff" d="M395.37,-113.09C395.37,-106.47 395.37,-97.47 395.37,-89.27"/>
<polygon fill="#63b8ff" stroke="#63b8ff" points="398.87,-89.34 395.37,-79.34 391.87,-89.34 398.87,-89.34"/>
</a>
</g>
</g>
<!-- Node8 -->
<g id="Node000008" class="node">
<title>Node8</title>
<g id="a_Node000008"><a xlink:title=" ">
<polygon fill="#e0e0e0" stroke="#999999" points="421.74,-20.75 368.99,-20.75 368.99,0 421.74,0 421.74,-20.75"/>
<text text-anchor="middle" x="395.37" y="-7.25" font-family="Helvetica,sans-Serif" font-size="10.00">stdint.h</text>
</a>
</g>
</g>
<!-- Node7&#45;&gt;Node8 -->
<g id="edge10_Node000007_Node000008" class="edge">
<title>Node7&#45;&gt;Node8</title>
<g id="a_edge10_Node000007_Node000008"><a xlink:title=" ">
<path fill="none" stroke="#63b8ff" d="M395.37,-56.34C395.37,-49.72 395.37,-40.72 395.37,-32.52"/>
<polygon fill="#63b8ff" stroke="#63b8ff" points="398.87,-32.59 395.37,-22.59 391.87,-32.59 398.87,-32.59"/>
</a>
</g>
</g>
</g>
</svg>
