<?xml version="1.0" encoding="UTF-8" standalone="no"?>
<!DOCTYPE svg PUBLIC "-//W3C//DTD SVG 1.1//EN"
 "http://www.w3.org/Graphics/SVG/1.1/DTD/svg11.dtd">
<!-- Generated by graphviz version 12.1.1 (0)
 -->
<!-- Title: boards/nucleo&#45;l432kc/include/periph_conf.h Pages: 1 -->
<svg width="474pt" height="168pt"
 viewBox="0.00 0.00 474.18 167.75" xmlns="http://www.w3.org/2000/svg" xmlns:xlink="http://www.w3.org/1999/xlink">
<g id="graph0" class="graph" transform="scale(1 1) rotate(0) translate(4 163.75)">
<title>boards/nucleo&#45;l432kc/include/periph_conf.h</title>
<!-- Node1 -->
<g id="Node000001" class="node">
<title>Node1</title>
<g id="a_Node000001"><a xlink:title="Peripheral MCU configuration for the nucleo&#45;l432kc board.">
<polygon fill="#999999" stroke="#666666" points="215.43,-159.75 92.93,-159.75 92.93,-126.25 215.43,-126.25 215.43,-159.75"/>
<text text-anchor="start" x="100.93" y="-146.25" font-family="Helvetica,sans-Serif" font-size="10.00">boards/nucleo&#45;l432kc</text>
<text text-anchor="middle" x="154.18" y="-133.5" font-family="Helvetica,sans-Serif" font-size="10.00">/include/periph_conf.h</text>
</a>
</g>
</g>
<!-- Node2 -->
<g id="Node000002" class="node">
<title>Node2</title>
<g id="a_Node000002"><a xlink:title=" ">
<polygon fill="#e0e0e0" stroke="#999999" points="193.31,-20.75 115.06,-20.75 115.06,0 193.31,0 193.31,-20.75"/>
<text text-anchor="middle" x="154.18" y="-7.25" font-family="Helvetica,sans-Serif" font-size="10.00">periph_cpu.h</text>
</a>
</g>
</g>
<!-- Node1&#45;&gt;Node2 -->
<g id="edge1_Node000001_Node000002" class="edge">
<title>Node1&#45;&gt;Node2</title>
<g id="a_edge1_Node000001_Node000002"><a xlink:title=" ">
<path fill="none" stroke="#63b8ff" d="M92.89,-130.33C41.2,-117.64 -20.32,-94.02 7.18,-56.75 29.1,-27.05 70.19,-16.19 103.37,-12.49"/>
<polygon fill="#63b8ff" stroke="#63b8ff" points="103.59,-15.98 113.23,-11.6 102.95,-9.01 103.59,-15.98"/>
</a>
</g>
</g>
<!-- Node3 -->
<g id="Node000003" class="node">
<title>Node3</title>
<g id="a_Node000003"><a xlink:title=" ">
<polygon fill="#e0e0e0" stroke="#999999" points="80.56,-83.88 15.81,-83.88 15.81,-63.12 80.56,-63.12 80.56,-83.88"/>
<text text-anchor="middle" x="48.18" y="-70.38" font-family="Helvetica,sans-Serif" font-size="10.00">clk_conf.h</text>
</a>
</g>
</g>
<!-- Node1&#45;&gt;Node3 -->
<g id="edge2_Node000001_Node000003" class="edge">
<title>Node1&#45;&gt;Node3</title>
<g id="a_edge2_Node000001_Node000003"><a xlink:title=" ">
<path fill="none" stroke="#63b8ff" d="M128.79,-125.83C111.95,-115.11 89.95,-101.1 73.19,-90.43"/>
<polygon fill="#63b8ff" stroke="#63b8ff" points="75.12,-87.5 64.8,-85.08 71.36,-93.41 75.12,-87.5"/>
</a>
</g>
</g>
<!-- Node4 -->
<g id="Node000004" class="node">
<title>Node4</title>
<g id="a_Node000004"><a xlink:href="cfg__i2c1__pb6__pb7_8h.html" target="_top" xlink:title="Common configuration for STM32 I2C.">
<polygon fill="white" stroke="#666666" points="210.18,-83.88 98.18,-83.88 98.18,-63.12 210.18,-63.12 210.18,-83.88"/>
<text text-anchor="middle" x="154.18" y="-70.38" font-family="Helvetica,sans-Serif" font-size="10.00">cfg_i2c1_pb6_pb7.h</text>
</a>
</g>
</g>
<!-- Node1&#45;&gt;Node4 -->
<g id="edge3_Node000001_Node000004" class="edge">
<title>Node1&#45;&gt;Node4</title>
<g id="a_edge3_Node000001_Node000004"><a xlink:title=" ">
<path fill="none" stroke="#63b8ff" d="M154.18,-126C154.18,-116.9 154.18,-105.39 154.18,-95.57"/>
<polygon fill="#63b8ff" stroke="#63b8ff" points="157.68,-95.84 154.18,-85.84 150.68,-95.84 157.68,-95.84"/>
</a>
</g>
</g>
<!-- Node5 -->
<g id="Node000005" class="node">
<title>Node5</title>
<g id="a_Node000005"><a xlink:title=" ">
<polygon fill="#e0e0e0" stroke="#999999" points="324.31,-83.88 228.06,-83.88 228.06,-63.12 324.31,-63.12 324.31,-83.88"/>
<text text-anchor="middle" x="276.18" y="-70.38" font-family="Helvetica,sans-Serif" font-size="10.00">cfg_rtt_default.h</text>
</a>
</g>
</g>
<!-- Node1&#45;&gt;Node5 -->
<g id="edge5_Node000001_Node000005" class="edge">
<title>Node1&#45;&gt;Node5</title>
<g id="a_edge5_Node000001_Node000005"><a xlink:title=" ">
<path fill="none" stroke="#63b8ff" d="M183.4,-125.83C203.15,-114.91 229.06,-100.57 248.48,-89.83"/>
<polygon fill="#63b8ff" stroke="#63b8ff" points="250.14,-92.91 257.2,-85 246.75,-86.78 250.14,-92.91"/>
</a>
</g>
</g>
<!-- Node6 -->
<g id="Node000006" class="node">
<title>Node6</title>
<g id="a_Node000006"><a xlink:href="cfg__timer__tim2__tim15__tim16_8h.html" target="_top" xlink:title="Common configuration for STM32 Timer peripheral based on TIM2, TIM15, and TIM16.">
<polygon fill="white" stroke="#666666" points="466.18,-90.25 342.18,-90.25 342.18,-56.75 466.18,-56.75 466.18,-90.25"/>
<text text-anchor="start" x="350.18" y="-76.75" font-family="Helvetica,sans-Serif" font-size="10.00">cfg_timer_tim2_tim15</text>
<text text-anchor="middle" x="404.18" y="-64" font-family="Helvetica,sans-Serif" font-size="10.00">_tim16.h</text>
</a>
</g>
</g>
<!-- Node1&#45;&gt;Node6 -->
<g id="edge6_Node000001_Node000006" class="edge">
<title>Node1&#45;&gt;Node6</title>
<g id="a_edge6_Node000001_Node000006"><a xlink:title=" ">
<path fill="none" stroke="#63b8ff" d="M214.06,-125.83C249.96,-116.14 295.79,-103.77 333.46,-93.6"/>
<polygon fill="#63b8ff" stroke="#63b8ff" points="334.15,-97.03 342.9,-91.05 332.33,-90.28 334.15,-97.03"/>
</a>
</g>
</g>
<!-- Node4&#45;&gt;Node2 -->
<g id="edge4_Node000004_Node000002" class="edge">
<title>Node4&#45;&gt;Node2</title>
<g id="a_edge4_Node000004_Node000002"><a xlink:title=" ">
<path fill="none" stroke="#63b8ff" d="M154.18,-62.68C154.18,-54.52 154.18,-42.63 154.18,-32.35"/>
<polygon fill="#63b8ff" stroke="#63b8ff" points="157.68,-32.48 154.18,-22.48 150.68,-32.48 157.68,-32.48"/>
</a>
</g>
</g>
<!-- Node6&#45;&gt;Node2 -->
<g id="edge7_Node000006_Node000002" class="edge">
<title>Node6&#45;&gt;Node2</title>
<g id="a_edge7_Node000006_Node000002"><a xlink:title=" ">
<path fill="none" stroke="#63b8ff" d="M341.74,-57.23C299.4,-46.88 244.15,-33.37 204.6,-23.7"/>
<polygon fill="#63b8ff" stroke="#63b8ff" points="205.65,-20.35 195.1,-21.38 203.98,-27.15 205.65,-20.35"/>
</a>
</g>
</g>
</g>
</svg>
