<?xml version="1.0" encoding="UTF-8" standalone="no"?>
<!DOCTYPE svg PUBLIC "-//W3C//DTD SVG 1.1//EN"
 "http://www.w3.org/Graphics/SVG/1.1/DTD/svg11.dtd">
<!-- Generated by graphviz version 12.1.1 (0)
 -->
<!-- Title: boards/nucleo&#45;f091rc/include/periph_conf.h Pages: 1 -->
<svg width="231pt" height="155pt"
 viewBox="0.00 0.00 231.25 155.00" xmlns="http://www.w3.org/2000/svg" xmlns:xlink="http://www.w3.org/1999/xlink">
<g id="graph0" class="graph" transform="scale(1 1) rotate(0) translate(4 151)">
<title>boards/nucleo&#45;f091rc/include/periph_conf.h</title>
<!-- Node1 -->
<g id="Node000001" class="node">
<title>Node1</title>
<g id="a_Node000001"><a xlink:title="Peripheral MCU configuration for the nucleo&#45;f091rc board.">
<polygon fill="#999999" stroke="#666666" points="122.5,-147 0,-147 0,-113.5 122.5,-113.5 122.5,-147"/>
<text text-anchor="start" x="8" y="-133.5" font-family="Helvetica,sans-Serif" font-size="10.00">boards/nucleo&#45;f091rc</text>
<text text-anchor="middle" x="61.25" y="-120.75" font-family="Helvetica,sans-Serif" font-size="10.00">/include/periph_conf.h</text>
</a>
</g>
</g>
<!-- Node2 -->
<g id="Node000002" class="node">
<title>Node2</title>
<g id="a_Node000002"><a xlink:title=" ">
<polygon fill="#e0e0e0" stroke="#999999" points="123.38,-20.75 45.12,-20.75 45.12,0 123.38,0 123.38,-20.75"/>
<text text-anchor="middle" x="84.25" y="-7.25" font-family="Helvetica,sans-Serif" font-size="10.00">periph_cpu.h</text>
</a>
</g>
</g>
<!-- Node1&#45;&gt;Node2 -->
<g id="edge1_Node000001_Node000002" class="edge">
<title>Node1&#45;&gt;Node2</title>
<g id="a_edge1_Node000001_Node000002"><a xlink:title=" ">
<path fill="none" stroke="#63b8ff" d="M41.75,-113.03C26.72,-98.46 10.09,-76.4 20.25,-56.75 26.89,-43.89 39.05,-33.89 50.99,-26.59"/>
<polygon fill="#63b8ff" stroke="#63b8ff" points="52.5,-29.76 59.53,-21.83 49.09,-23.64 52.5,-29.76"/>
</a>
</g>
</g>
<!-- Node3 -->
<g id="Node000003" class="node">
<title>Node3</title>
<g id="a_Node000003"><a xlink:title=" ">
<polygon fill="#e0e0e0" stroke="#999999" points="93.62,-77.5 28.88,-77.5 28.88,-56.75 93.62,-56.75 93.62,-77.5"/>
<text text-anchor="middle" x="61.25" y="-64" font-family="Helvetica,sans-Serif" font-size="10.00">clk_conf.h</text>
</a>
</g>
</g>
<!-- Node1&#45;&gt;Node3 -->
<g id="edge2_Node000001_Node000003" class="edge">
<title>Node1&#45;&gt;Node3</title>
<g id="a_edge2_Node000001_Node000003"><a xlink:title=" ">
<path fill="none" stroke="#63b8ff" d="M61.25,-113.19C61.25,-105.85 61.25,-97.07 61.25,-89.21"/>
<polygon fill="#63b8ff" stroke="#63b8ff" points="64.75,-89.48 61.25,-79.48 57.75,-89.48 64.75,-89.48"/>
</a>
</g>
</g>
<!-- Node4 -->
<g id="Node000004" class="node">
<title>Node4</title>
<g id="a_Node000004"><a xlink:href="cfg__i2c1__pb8__pb9_8h.html" target="_top" xlink:title="Common configuration for STM32 I2C.">
<polygon fill="white" stroke="#666666" points="223.25,-77.5 111.25,-77.5 111.25,-56.75 223.25,-56.75 223.25,-77.5"/>
<text text-anchor="middle" x="167.25" y="-64" font-family="Helvetica,sans-Serif" font-size="10.00">cfg_i2c1_pb8_pb9.h</text>
</a>
</g>
</g>
<!-- Node1&#45;&gt;Node4 -->
<g id="edge3_Node000001_Node000004" class="edge">
<title>Node1&#45;&gt;Node4</title>
<g id="a_edge3_Node000001_Node000004"><a xlink:title=" ">
<path fill="none" stroke="#63b8ff" d="M89.38,-113.03C105.28,-103.86 125.04,-92.47 140.67,-83.45"/>
<polygon fill="#63b8ff" stroke="#63b8ff" points="142.05,-86.7 148.96,-78.67 138.55,-80.63 142.05,-86.7"/>
</a>
</g>
</g>
<!-- Node4&#45;&gt;Node2 -->
<g id="edge4_Node000004_Node000002" class="edge">
<title>Node4&#45;&gt;Node2</title>
<g id="a_edge4_Node000004_Node000002"><a xlink:title=" ">
<path fill="none" stroke="#63b8ff" d="M152.41,-56.34C140.14,-48.24 122.46,-36.58 108.19,-27.17"/>
<polygon fill="#63b8ff" stroke="#63b8ff" points="110.5,-24.5 100.22,-21.91 106.64,-30.34 110.5,-24.5"/>
</a>
</g>
</g>
</g>
</svg>
