<?xml version="1.0" encoding="UTF-8" standalone="no"?>
<!DOCTYPE svg PUBLIC "-//W3C//DTD SVG 1.1//EN"
 "http://www.w3.org/Graphics/SVG/1.1/DTD/svg11.dtd">
<!-- Generated by graphviz version 12.1.1 (0)
 -->
<!-- Title: boards/frdm&#45;k64f/include/periph_conf.h Pages: 1 -->
<svg width="147pt" height="181pt"
 viewBox="0.00 0.00 147.00 180.50" xmlns="http://www.w3.org/2000/svg" xmlns:xlink="http://www.w3.org/1999/xlink">
<g id="graph0" class="graph" transform="scale(1 1) rotate(0) translate(4 176.5)">
<title>boards/frdm&#45;k64f/include/periph_conf.h</title>
<!-- Node1 -->
<g id="Node000001" class="node">
<title>Node1</title>
<g id="a_Node000001"><a xlink:title=" ">
<polygon fill="#999999" stroke="#666666" points="139,-172.5 0,-172.5 0,-139 139,-139 139,-172.5"/>
<text text-anchor="start" x="8" y="-159" font-family="Helvetica,sans-Serif" font-size="10.00">boards/frdm&#45;k64f/include</text>
<text text-anchor="middle" x="69.5" y="-146.25" font-family="Helvetica,sans-Serif" font-size="10.00">/periph_conf.h</text>
</a>
</g>
</g>
<!-- Node2 -->
<g id="Node000002" class="node">
<title>Node2</title>
<g id="a_Node000002"><a xlink:href="frdm-k64f_2include_2board_8h.html" target="_top" xlink:title="Board specific definitions for the FRDM&#45;K64F.">
<polygon fill="white" stroke="#666666" points="139,-103 0,-103 0,-69.5 139,-69.5 139,-103"/>
<text text-anchor="start" x="8" y="-89.5" font-family="Helvetica,sans-Serif" font-size="10.00">boards/frdm&#45;k64f/include</text>
<text text-anchor="middle" x="69.5" y="-76.75" font-family="Helvetica,sans-Serif" font-size="10.00">/board.h</text>
</a>
</g>
</g>
<!-- Node1&#45;&gt;Node2 -->
<g id="edge1_Node000001_Node000002" class="edge">
<title>Node1&#45;&gt;Node2</title>
<g id="a_edge1_Node000001_Node000002"><a xlink:title=" ">
<path fill="none" stroke="#63b8ff" d="M69.5,-127.31C69.5,-119.09 69.5,-110.34 69.5,-103.13"/>
<polygon fill="#63b8ff" stroke="#63b8ff" points="66,-127.24 69.5,-137.24 73,-127.24 66,-127.24"/>
</a>
</g>
</g>
<!-- Node3 -->
<g id="Node000003" class="node">
<title>Node3</title>
<g id="a_Node000003"><a xlink:href="frdm-k64f_2include_2adc__params_8h.html" target="_top" xlink:title="Board specific configuration of direct mapped ADC.">
<polygon fill="white" stroke="#666666" points="139,-33.5 0,-33.5 0,0 139,0 139,-33.5"/>
<text text-anchor="start" x="8" y="-20" font-family="Helvetica,sans-Serif" font-size="10.00">boards/frdm&#45;k64f/include</text>
<text text-anchor="middle" x="69.5" y="-7.25" font-family="Helvetica,sans-Serif" font-size="10.00">/adc_params.h</text>
</a>
</g>
</g>
<!-- Node2&#45;&gt;Node3 -->
<g id="edge2_Node000002_Node000003" class="edge">
<title>Node2&#45;&gt;Node3</title>
<g id="a_edge2_Node000002_Node000003"><a xlink:title=" ">
<path fill="none" stroke="#63b8ff" d="M69.5,-57.81C69.5,-49.59 69.5,-40.84 69.5,-33.63"/>
<polygon fill="#63b8ff" stroke="#63b8ff" points="66,-57.74 69.5,-67.74 73,-57.74 66,-57.74"/>
</a>
</g>
</g>
</g>
</svg>
