<?xml version="1.0" encoding="UTF-8" standalone="no"?>
<!DOCTYPE svg PUBLIC "-//W3C//DTD SVG 1.1//EN"
 "http://www.w3.org/Graphics/SVG/1.1/DTD/svg11.dtd">
<!-- Generated by graphviz version 12.1.1 (0)
 -->
<!-- Title: boards/weact&#45;g030f6/include/periph_conf.h Pages: 1 -->
<svg width="301pt" height="98pt"
 viewBox="0.00 0.00 300.75 98.25" xmlns="http://www.w3.org/2000/svg" xmlns:xlink="http://www.w3.org/1999/xlink">
<g id="graph0" class="graph" transform="scale(1 1) rotate(0) translate(4 94.25)">
<title>boards/weact&#45;g030f6/include/periph_conf.h</title>
<!-- Node1 -->
<g id="Node000001" class="node">
<title>Node1</title>
<g id="a_Node000001"><a xlink:title="Configuration of CPU peripherals for WeAct&#45;G030F6.">
<polygon fill="#999999" stroke="#666666" points="192.62,-90.25 70.12,-90.25 70.12,-56.75 192.62,-56.75 192.62,-90.25"/>
<text text-anchor="start" x="78.12" y="-76.75" font-family="Helvetica,sans-Serif" font-size="10.00">boards/weact&#45;g030f6</text>
<text text-anchor="middle" x="131.38" y="-64" font-family="Helvetica,sans-Serif" font-size="10.00">/include/periph_conf.h</text>
</a>
</g>
</g>
<!-- Node2 -->
<g id="Node000002" class="node">
<title>Node2</title>
<g id="a_Node000002"><a xlink:title=" ">
<polygon fill="#e0e0e0" stroke="#999999" points="52.75,-20.75 0,-20.75 0,0 52.75,0 52.75,-20.75"/>
<text text-anchor="middle" x="26.38" y="-7.25" font-family="Helvetica,sans-Serif" font-size="10.00">stdint.h</text>
</a>
</g>
</g>
<!-- Node1&#45;&gt;Node2 -->
<g id="edge1_Node000001_Node000002" class="edge">
<title>Node1&#45;&gt;Node2</title>
<g id="a_edge1_Node000001_Node000002"><a xlink:title=" ">
<path fill="none" stroke="#63b8ff" d="M103.51,-56.28C87.76,-47.11 68.19,-35.72 52.7,-26.7"/>
<polygon fill="#63b8ff" stroke="#63b8ff" points="54.9,-23.93 44.5,-21.93 51.38,-29.98 54.9,-23.93"/>
</a>
</g>
</g>
<!-- Node3 -->
<g id="Node000003" class="node">
<title>Node3</title>
<g id="a_Node000003"><a xlink:title=" ">
<polygon fill="#e0e0e0" stroke="#999999" points="113.5,-20.75 71.25,-20.75 71.25,0 113.5,0 113.5,-20.75"/>
<text text-anchor="middle" x="92.38" y="-7.25" font-family="Helvetica,sans-Serif" font-size="10.00">cpu.h</text>
</a>
</g>
</g>
<!-- Node1&#45;&gt;Node3 -->
<g id="edge2_Node000001_Node000003" class="edge">
<title>Node1&#45;&gt;Node3</title>
<g id="a_edge2_Node000001_Node000003"><a xlink:title=" ">
<path fill="none" stroke="#63b8ff" d="M121.13,-56.44C116.11,-48.58 110.04,-39.06 104.76,-30.79"/>
<polygon fill="#63b8ff" stroke="#63b8ff" points="107.8,-29.04 99.47,-22.49 101.9,-32.81 107.8,-29.04"/>
</a>
</g>
</g>
<!-- Node4 -->
<g id="Node000004" class="node">
<title>Node4</title>
<g id="a_Node000004"><a xlink:title=" ">
<polygon fill="#e0e0e0" stroke="#999999" points="209.5,-20.75 131.25,-20.75 131.25,0 209.5,0 209.5,-20.75"/>
<text text-anchor="middle" x="170.38" y="-7.25" font-family="Helvetica,sans-Serif" font-size="10.00">periph_cpu.h</text>
</a>
</g>
</g>
<!-- Node1&#45;&gt;Node4 -->
<g id="edge3_Node000001_Node000004" class="edge">
<title>Node1&#45;&gt;Node4</title>
<g id="a_edge3_Node000001_Node000004"><a xlink:title=" ">
<path fill="none" stroke="#63b8ff" d="M141.62,-56.44C146.64,-48.58 152.71,-39.06 157.99,-30.79"/>
<polygon fill="#63b8ff" stroke="#63b8ff" points="160.85,-32.81 163.28,-22.49 154.95,-29.04 160.85,-32.81"/>
</a>
</g>
</g>
<!-- Node5 -->
<g id="Node000005" class="node">
<title>Node5</title>
<g id="a_Node000005"><a xlink:title=" ">
<polygon fill="#e0e0e0" stroke="#999999" points="292.75,-20.75 228,-20.75 228,0 292.75,0 292.75,-20.75"/>
<text text-anchor="middle" x="260.38" y="-7.25" font-family="Helvetica,sans-Serif" font-size="10.00">clk_conf.h</text>
</a>
</g>
</g>
<!-- Node1&#45;&gt;Node5 -->
<g id="edge4_Node000001_Node000005" class="edge">
<title>Node1&#45;&gt;Node5</title>
<g id="a_edge4_Node000001_Node000005"><a xlink:title=" ">
<path fill="none" stroke="#63b8ff" d="M165.61,-56.28C185.42,-46.89 210.15,-35.17 229.38,-26.06"/>
<polygon fill="#63b8ff" stroke="#63b8ff" points="230.81,-29.26 238.35,-21.81 227.81,-22.93 230.81,-29.26"/>
</a>
</g>
</g>
</g>
</svg>
