<?xml version="1.0" encoding="UTF-8" standalone="no"?>
<!DOCTYPE svg PUBLIC "-//W3C//DTD SVG 1.1//EN"
 "http://www.w3.org/Graphics/SVG/1.1/DTD/svg11.dtd">
<!-- Generated by graphviz version 12.1.1 (0)
 -->
<!-- Title: boards/phynode&#45;kw41z/include/periph_conf.h Pages: 1 -->
<svg width="284pt" height="181pt"
 viewBox="0.00 0.00 284.25 180.50" xmlns="http://www.w3.org/2000/svg" xmlns:xlink="http://www.w3.org/1999/xlink">
<g id="graph0" class="graph" transform="scale(1 1) rotate(0) translate(4 176.5)">
<title>boards/phynode&#45;kw41z/include/periph_conf.h</title>
<!-- Node1 -->
<g id="Node000001" class="node">
<title>Node1</title>
<g id="a_Node000001"><a xlink:title=" ">
<polygon fill="#999999" stroke="#666666" points="202.25,-172.5 73,-172.5 73,-139 202.25,-139 202.25,-172.5"/>
<text text-anchor="start" x="81" y="-159" font-family="Helvetica,sans-Serif" font-size="10.00">boards/phynode&#45;kw41z</text>
<text text-anchor="middle" x="137.62" y="-146.25" font-family="Helvetica,sans-Serif" font-size="10.00">/include/periph_conf.h</text>
</a>
</g>
</g>
<!-- Node2 -->
<g id="Node000002" class="node">
<title>Node2</title>
<g id="a_Node000002"><a xlink:href="phynode-kw41z_2include_2board_8h.html" target="_top" xlink:title="Board specific definitions for the USB&#45;KW41Z.">
<polygon fill="white" stroke="#666666" points="202.25,-103 73,-103 73,-69.5 202.25,-69.5 202.25,-103"/>
<text text-anchor="start" x="81" y="-89.5" font-family="Helvetica,sans-Serif" font-size="10.00">boards/phynode&#45;kw41z</text>
<text text-anchor="middle" x="137.62" y="-76.75" font-family="Helvetica,sans-Serif" font-size="10.00">/include/board.h</text>
</a>
</g>
</g>
<!-- Node1&#45;&gt;Node2 -->
<g id="edge1_Node000001_Node000002" class="edge">
<title>Node1&#45;&gt;Node2</title>
<g id="a_edge1_Node000001_Node000002"><a xlink:title=" ">
<path fill="none" stroke="#63b8ff" d="M137.62,-127.31C137.62,-119.09 137.62,-110.34 137.62,-103.13"/>
<polygon fill="#63b8ff" stroke="#63b8ff" points="134.13,-127.24 137.63,-137.24 141.13,-127.24 134.13,-127.24"/>
</a>
</g>
</g>
<!-- Node3 -->
<g id="Node000003" class="node">
<title>Node3</title>
<g id="a_Node000003"><a xlink:href="phynode-kw41z_2include_2adc__params_8h.html" target="_top" xlink:title="Board specific configuration of direct mapped ADC.">
<polygon fill="white" stroke="#666666" points="129.25,-33.5 0,-33.5 0,0 129.25,0 129.25,-33.5"/>
<text text-anchor="start" x="8" y="-20" font-family="Helvetica,sans-Serif" font-size="10.00">boards/phynode&#45;kw41z</text>
<text text-anchor="middle" x="64.62" y="-7.25" font-family="Helvetica,sans-Serif" font-size="10.00">/include/adc_params.h</text>
</a>
</g>
</g>
<!-- Node2&#45;&gt;Node3 -->
<g id="edge2_Node000002_Node000003" class="edge">
<title>Node2&#45;&gt;Node3</title>
<g id="a_edge2_Node000002_Node000003"><a xlink:title=" ">
<path fill="none" stroke="#63b8ff" d="M112,-61.56C102.1,-52.4 91.01,-42.15 82.05,-33.87"/>
<polygon fill="#63b8ff" stroke="#63b8ff" points="109.5,-64.01 119.21,-68.23 114.25,-58.87 109.5,-64.01"/>
</a>
</g>
</g>
<!-- Node4 -->
<g id="Node000004" class="node">
<title>Node4</title>
<g id="a_Node000004"><a xlink:href="phynode-kw41z_2include_2gpio__params_8h.html" target="_top" xlink:title="Board specific configuration of direct mapped GPIOs.">
<polygon fill="white" stroke="#666666" points="276.25,-33.5 147,-33.5 147,0 276.25,0 276.25,-33.5"/>
<text text-anchor="start" x="155" y="-20" font-family="Helvetica,sans-Serif" font-size="10.00">boards/phynode&#45;kw41z</text>
<text text-anchor="middle" x="211.62" y="-7.25" font-family="Helvetica,sans-Serif" font-size="10.00">/include/gpio_params.h</text>
</a>
</g>
</g>
<!-- Node2&#45;&gt;Node4 -->
<g id="edge3_Node000002_Node000004" class="edge">
<title>Node2&#45;&gt;Node4</title>
<g id="a_edge3_Node000002_Node000004"><a xlink:title=" ">
<path fill="none" stroke="#63b8ff" d="M163.6,-61.56C173.64,-52.4 184.88,-42.15 193.96,-33.87"/>
<polygon fill="#63b8ff" stroke="#63b8ff" points="161.31,-58.91 156.28,-68.23 166.03,-64.08 161.31,-58.91"/>
</a>
</g>
</g>
</g>
</svg>
