<?xml version="1.0" encoding="UTF-8" standalone="no"?>
<!DOCTYPE svg PUBLIC "-//W3C//DTD SVG 1.1//EN"
 "http://www.w3.org/Graphics/SVG/1.1/DTD/svg11.dtd">
<!-- Generated by graphviz version 12.1.1 (0)
 -->
<!-- Title: boards/atmega8/include/periph_conf.h Pages: 1 -->
<svg width="142pt" height="168pt"
 viewBox="0.00 0.00 141.75 167.75" xmlns="http://www.w3.org/2000/svg" xmlns:xlink="http://www.w3.org/1999/xlink">
<g id="graph0" class="graph" transform="scale(1 1) rotate(0) translate(4 163.75)">
<title>boards/atmega8/include/periph_conf.h</title>
<!-- Node1 -->
<g id="Node000001" class="node">
<title>Node1</title>
<g id="a_Node000001"><a xlink:title="Peripheral MCU configuration for the ATmega8 standalone &quot;board&quot;.">
<polygon fill="#999999" stroke="#666666" points="133.75,-159.75 0,-159.75 0,-126.25 133.75,-126.25 133.75,-159.75"/>
<text text-anchor="start" x="8" y="-146.25" font-family="Helvetica,sans-Serif" font-size="10.00">boards/atmega8/include</text>
<text text-anchor="middle" x="66.88" y="-133.5" font-family="Helvetica,sans-Serif" font-size="10.00">/periph_conf.h</text>
</a>
</g>
</g>
<!-- Node2 -->
<g id="Node000002" class="node">
<title>Node2</title>
<g id="a_Node000002"><a xlink:href="periph__conf__atmega__common_8h.html" target="_top" xlink:title="Common configuration of MCU periphery for ATmega boards.">
<polygon fill="white" stroke="#666666" points="124.75,-90.25 9,-90.25 9,-56.75 124.75,-56.75 124.75,-90.25"/>
<text text-anchor="start" x="17" y="-76.75" font-family="Helvetica,sans-Serif" font-size="10.00">periph_conf_atmega</text>
<text text-anchor="middle" x="66.88" y="-64" font-family="Helvetica,sans-Serif" font-size="10.00">_common.h</text>
</a>
</g>
</g>
<!-- Node1&#45;&gt;Node2 -->
<g id="edge1_Node000001_Node000002" class="edge">
<title>Node1&#45;&gt;Node2</title>
<g id="a_edge1_Node000001_Node000002"><a xlink:title=" ">
<path fill="none" stroke="#63b8ff" d="M66.88,-126C66.88,-118.77 66.88,-110.03 66.88,-101.81"/>
<polygon fill="#63b8ff" stroke="#63b8ff" points="70.38,-101.9 66.88,-91.9 63.38,-101.9 70.38,-101.9"/>
</a>
</g>
</g>
<!-- Node3 -->
<g id="Node000003" class="node">
<title>Node3</title>
<g id="a_Node000003"><a xlink:title=" ">
<polygon fill="#e0e0e0" stroke="#999999" points="106,-20.75 27.75,-20.75 27.75,0 106,0 106,-20.75"/>
<text text-anchor="middle" x="66.88" y="-7.25" font-family="Helvetica,sans-Serif" font-size="10.00">periph_cpu.h</text>
</a>
</g>
</g>
<!-- Node2&#45;&gt;Node3 -->
<g id="edge2_Node000002_Node000003" class="edge">
<title>Node2&#45;&gt;Node3</title>
<g id="a_edge2_Node000002_Node000003"><a xlink:title=" ">
<path fill="none" stroke="#63b8ff" d="M66.88,-56.44C66.88,-49.1 66.88,-40.32 66.88,-32.46"/>
<polygon fill="#63b8ff" stroke="#63b8ff" points="70.38,-32.73 66.88,-22.73 63.38,-32.73 70.38,-32.73"/>
</a>
</g>
</g>
</g>
</svg>
