<?xml version="1.0" encoding="UTF-8" standalone="no"?>
<!DOCTYPE svg PUBLIC "-//W3C//DTD SVG 1.1//EN"
 "http://www.w3.org/Graphics/SVG/1.1/DTD/svg11.dtd">
<!-- Generated by graphviz version 12.1.1 (0)
 -->
<!-- Title: boards/seeeduino_xiao/include/periph_conf.h Pages: 1 -->
<svg width="137pt" height="181pt"
 viewBox="0.00 0.00 137.25 180.50" xmlns="http://www.w3.org/2000/svg" xmlns:xlink="http://www.w3.org/1999/xlink">
<g id="graph0" class="graph" transform="scale(1 1) rotate(0) translate(4 176.5)">
<title>boards/seeeduino_xiao/include/periph_conf.h</title>
<!-- Node1 -->
<g id="Node000001" class="node">
<title>Node1</title>
<g id="a_Node000001"><a xlink:title="Configuration of CPU peripherals for the Serpente board.">
<polygon fill="#999999" stroke="#666666" points="128.88,-172.5 0.38,-172.5 0.38,-139 128.88,-139 128.88,-172.5"/>
<text text-anchor="start" x="8.38" y="-159" font-family="Helvetica,sans-Serif" font-size="10.00">boards/seeeduino_xiao</text>
<text text-anchor="middle" x="64.62" y="-146.25" font-family="Helvetica,sans-Serif" font-size="10.00">/include/periph_conf.h</text>
</a>
</g>
</g>
<!-- Node2 -->
<g id="Node000002" class="node">
<title>Node2</title>
<g id="a_Node000002"><a xlink:href="seeeduino__xiao_2include_2board_8h.html" target="_top" xlink:title="Support for the Seeeduino XIAO board.">
<polygon fill="white" stroke="#666666" points="128.88,-103 0.38,-103 0.38,-69.5 128.88,-69.5 128.88,-103"/>
<text text-anchor="start" x="8.38" y="-89.5" font-family="Helvetica,sans-Serif" font-size="10.00">boards/seeeduino_xiao</text>
<text text-anchor="middle" x="64.62" y="-76.75" font-family="Helvetica,sans-Serif" font-size="10.00">/include/board.h</text>
</a>
</g>
</g>
<!-- Node1&#45;&gt;Node2 -->
<g id="edge1_Node000001_Node000002" class="edge">
<title>Node1&#45;&gt;Node2</title>
<g id="a_edge1_Node000001_Node000002"><a xlink:title=" ">
<path fill="none" stroke="#63b8ff" d="M64.62,-127.31C64.62,-119.09 64.62,-110.34 64.62,-103.13"/>
<polygon fill="#63b8ff" stroke="#63b8ff" points="61.13,-127.24 64.63,-137.24 68.13,-127.24 61.13,-127.24"/>
</a>
</g>
</g>
<!-- Node3 -->
<g id="Node000003" class="node">
<title>Node3</title>
<g id="a_Node000003"><a xlink:href="seeeduino__xiao_2include_2gpio__params_8h.html" target="_top" xlink:title="Board specific configuration of direct mapped GPIOs.">
<polygon fill="white" stroke="#666666" points="129.25,-33.5 0,-33.5 0,0 129.25,0 129.25,-33.5"/>
<text text-anchor="start" x="8" y="-20" font-family="Helvetica,sans-Serif" font-size="10.00">boards/seeeduino_xiao</text>
<text text-anchor="middle" x="64.62" y="-7.25" font-family="Helvetica,sans-Serif" font-size="10.00">/include/gpio_params.h</text>
</a>
</g>
</g>
<!-- Node2&#45;&gt;Node3 -->
<g id="edge2_Node000002_Node000003" class="edge">
<title>Node2&#45;&gt;Node3</title>
<g id="a_edge2_Node000002_Node000003"><a xlink:title=" ">
<path fill="none" stroke="#63b8ff" d="M64.62,-57.81C64.62,-49.59 64.62,-40.84 64.62,-33.63"/>
<polygon fill="#63b8ff" stroke="#63b8ff" points="61.13,-57.74 64.63,-67.74 68.13,-57.74 61.13,-57.74"/>
</a>
</g>
</g>
</g>
</svg>
