<?xml version="1.0" encoding="UTF-8" standalone="no"?>
<!DOCTYPE svg PUBLIC "-//W3C//DTD SVG 1.1//EN"
 "http://www.w3.org/Graphics/SVG/1.1/DTD/svg11.dtd">
<!-- Generated by graphviz version 12.1.1 (0)
 -->
<!-- Title: boards/samd10&#45;xmini/include/periph_conf.h Pages: 1 -->
<svg width="218pt" height="98pt"
 viewBox="0.00 0.00 217.50 98.25" xmlns="http://www.w3.org/2000/svg" xmlns:xlink="http://www.w3.org/1999/xlink">
<g id="graph0" class="graph" transform="scale(1 1) rotate(0) translate(4 94.25)">
<title>boards/samd10&#45;xmini/include/periph_conf.h</title>
<!-- Node1 -->
<g id="Node000001" class="node">
<title>Node1</title>
<g id="a_Node000001"><a xlink:title="Configuration of CPU peripherals for the Atmel SAM D10 Xplained Mini board.">
<polygon fill="#999999" stroke="#666666" points="153.62,-90.25 31.12,-90.25 31.12,-56.75 153.62,-56.75 153.62,-90.25"/>
<text text-anchor="start" x="39.12" y="-76.75" font-family="Helvetica,sans-Serif" font-size="10.00">boards/samd10&#45;xmini</text>
<text text-anchor="middle" x="92.38" y="-64" font-family="Helvetica,sans-Serif" font-size="10.00">/include/periph_conf.h</text>
</a>
</g>
</g>
<!-- Node2 -->
<g id="Node000002" class="node">
<title>Node2</title>
<g id="a_Node000002"><a xlink:title=" ">
<polygon fill="#e0e0e0" stroke="#999999" points="52.75,-20.75 0,-20.75 0,0 52.75,0 52.75,-20.75"/>
<text text-anchor="middle" x="26.38" y="-7.25" font-family="Helvetica,sans-Serif" font-size="10.00">stdint.h</text>
</a>
</g>
</g>
<!-- Node1&#45;&gt;Node2 -->
<g id="edge1_Node000001_Node000002" class="edge">
<title>Node1&#45;&gt;Node2</title>
<g id="a_edge1_Node000001_Node000002"><a xlink:title=" ">
<path fill="none" stroke="#63b8ff" d="M75.03,-56.44C65.89,-47.97 54.65,-37.56 45.28,-28.89"/>
<polygon fill="#63b8ff" stroke="#63b8ff" points="47.83,-26.47 38.11,-22.25 43.07,-31.61 47.83,-26.47"/>
</a>
</g>
</g>
<!-- Node3 -->
<g id="Node000003" class="node">
<title>Node3</title>
<g id="a_Node000003"><a xlink:title=" ">
<polygon fill="#e0e0e0" stroke="#999999" points="113.5,-20.75 71.25,-20.75 71.25,0 113.5,0 113.5,-20.75"/>
<text text-anchor="middle" x="92.38" y="-7.25" font-family="Helvetica,sans-Serif" font-size="10.00">cpu.h</text>
</a>
</g>
</g>
<!-- Node1&#45;&gt;Node3 -->
<g id="edge2_Node000001_Node000003" class="edge">
<title>Node1&#45;&gt;Node3</title>
<g id="a_edge2_Node000001_Node000003"><a xlink:title=" ">
<path fill="none" stroke="#63b8ff" d="M92.38,-56.44C92.38,-49.1 92.38,-40.32 92.38,-32.46"/>
<polygon fill="#63b8ff" stroke="#63b8ff" points="95.88,-32.73 92.38,-22.73 88.88,-32.73 95.88,-32.73"/>
</a>
</g>
</g>
<!-- Node4 -->
<g id="Node000004" class="node">
<title>Node4</title>
<g id="a_Node000004"><a xlink:title=" ">
<polygon fill="#e0e0e0" stroke="#999999" points="209.5,-20.75 131.25,-20.75 131.25,0 209.5,0 209.5,-20.75"/>
<text text-anchor="middle" x="170.38" y="-7.25" font-family="Helvetica,sans-Serif" font-size="10.00">periph_cpu.h</text>
</a>
</g>
</g>
<!-- Node1&#45;&gt;Node4 -->
<g id="edge3_Node000001_Node000004" class="edge">
<title>Node1&#45;&gt;Node4</title>
<g id="a_edge3_Node000001_Node000004"><a xlink:title=" ">
<path fill="none" stroke="#63b8ff" d="M112.87,-56.44C124.01,-47.71 137.78,-36.92 149.05,-28.09"/>
<polygon fill="#63b8ff" stroke="#63b8ff" points="150.91,-31.07 156.62,-22.15 146.59,-25.56 150.91,-31.07"/>
</a>
</g>
</g>
</g>
</svg>
