<?xml version="1.0" encoding="UTF-8" standalone="no"?>
<!DOCTYPE svg PUBLIC "-//W3C//DTD SVG 1.1//EN"
 "http://www.w3.org/Graphics/SVG/1.1/DTD/svg11.dtd">
<!-- Generated by graphviz version 12.1.1 (0)
 -->
<!-- Title: boards/sipeed&#45;longan&#45;nano/include/periph_conf.h Pages: 1 -->
<svg width="830pt" height="168pt"
 viewBox="0.00 0.00 830.12 167.75" xmlns="http://www.w3.org/2000/svg" xmlns:xlink="http://www.w3.org/1999/xlink">
<g id="graph0" class="graph" transform="scale(1 1) rotate(0) translate(4 163.75)">
<title>boards/sipeed&#45;longan&#45;nano/include/periph_conf.h</title>
<!-- Node1 -->
<g id="Node000001" class="node">
<title>Node1</title>
<g id="a_Node000001"><a xlink:title="Board specific definitions for the Sipeed Longan Nano board.">
<polygon fill="#999999" stroke="#666666" points="384.5,-159.75 263.5,-159.75 263.5,-113.5 384.5,-113.5 384.5,-159.75"/>
<text text-anchor="start" x="271.5" y="-146.25" font-family="Helvetica,sans-Serif" font-size="10.00">boards/sipeed&#45;longan</text>
<text text-anchor="start" x="271.5" y="-133.5" font-family="Helvetica,sans-Serif" font-size="10.00">&#45;nano/include/periph</text>
<text text-anchor="middle" x="324" y="-120.75" font-family="Helvetica,sans-Serif" font-size="10.00">_conf.h</text>
</a>
</g>
</g>
<!-- Node2 -->
<g id="Node000002" class="node">
<title>Node2</title>
<g id="a_Node000002"><a xlink:href="units_8h.html" target="_top" xlink:title="Unit helper macros.">
<polygon fill="white" stroke="#666666" points="88,-20.75 0,-20.75 0,0 88,0 88,-20.75"/>
<text text-anchor="middle" x="44" y="-7.25" font-family="Helvetica,sans-Serif" font-size="10.00">macros/units.h</text>
</a>
</g>
</g>
<!-- Node1&#45;&gt;Node2 -->
<g id="edge1_Node000001_Node000002" class="edge">
<title>Node1&#45;&gt;Node2</title>
<g id="a_edge1_Node000001_Node000002"><a xlink:title=" ">
<path fill="none" stroke="#63b8ff" d="M263.2,-132.83C183.73,-127.76 51.11,-113.94 21,-77.5 9.68,-63.8 18.8,-44.17 28.7,-29.86"/>
<polygon fill="#63b8ff" stroke="#63b8ff" points="31.29,-32.24 34.52,-22.15 25.7,-28.02 31.29,-32.24"/>
</a>
</g>
</g>
<!-- Node3 -->
<g id="Node000003" class="node">
<title>Node3</title>
<g id="a_Node000003"><a xlink:title=" ">
<polygon fill="#e0e0e0" stroke="#999999" points="205.12,-20.75 126.88,-20.75 126.88,0 205.12,0 205.12,-20.75"/>
<text text-anchor="middle" x="166" y="-7.25" font-family="Helvetica,sans-Serif" font-size="10.00">periph_cpu.h</text>
</a>
</g>
</g>
<!-- Node1&#45;&gt;Node3 -->
<g id="edge2_Node000001_Node000003" class="edge">
<title>Node1&#45;&gt;Node3</title>
<g id="a_edge2_Node000001_Node000003"><a xlink:title=" ">
<path fill="none" stroke="#63b8ff" d="M263.19,-113.21C243.79,-104.12 223.19,-92.23 207,-77.5 192.81,-64.59 181.75,-45.65 174.71,-31.34"/>
<polygon fill="#63b8ff" stroke="#63b8ff" points="177.96,-30.04 170.58,-22.44 171.61,-32.99 177.96,-30.04"/>
</a>
</g>
</g>
<!-- Node4 -->
<g id="Node000004" class="node">
<title>Node4</title>
<g id="a_Node000004"><a xlink:href="periph__common__conf_8h.html" target="_top" xlink:title="Common peripheral configuration for GD32VF103 boards.">
<polygon fill="white" stroke="#666666" points="159.62,-77.5 30.38,-77.5 30.38,-56.75 159.62,-56.75 159.62,-77.5"/>
<text text-anchor="middle" x="95" y="-64" font-family="Helvetica,sans-Serif" font-size="10.00">periph_common_conf.h</text>
</a>
</g>
</g>
<!-- Node1&#45;&gt;Node4 -->
<g id="edge3_Node000001_Node000004" class="edge">
<title>Node1&#45;&gt;Node4</title>
<g id="a_edge3_Node000001_Node000004"><a xlink:title=" ">
<path fill="none" stroke="#63b8ff" d="M263.23,-117.71C224.26,-106.22 174.53,-91.57 139.28,-81.18"/>
<polygon fill="#63b8ff" stroke="#63b8ff" points="140.41,-77.86 129.83,-78.39 138.43,-84.57 140.41,-77.86"/>
</a>
</g>
</g>
<!-- Node5 -->
<g id="Node000005" class="node">
<title>Node5</title>
<g id="a_Node000005"><a xlink:title=" ">
<polygon fill="#e0e0e0" stroke="#999999" points="315.62,-77.5 216.38,-77.5 216.38,-56.75 315.62,-56.75 315.62,-77.5"/>
<text text-anchor="middle" x="266" y="-64" font-family="Helvetica,sans-Serif" font-size="10.00">cfg_i2c_default.h</text>
</a>
</g>
</g>
<!-- Node1&#45;&gt;Node5 -->
<g id="edge6_Node000001_Node000005" class="edge">
<title>Node1&#45;&gt;Node5</title>
<g id="a_edge6_Node000001_Node000005"><a xlink:title=" ">
<path fill="none" stroke="#63b8ff" d="M304.69,-113.15C297.22,-104.45 288.78,-94.63 281.69,-86.39"/>
<polygon fill="#63b8ff" stroke="#63b8ff" points="284.55,-84.34 275.38,-79.04 279.24,-88.9 284.55,-84.34"/>
</a>
</g>
</g>
<!-- Node6 -->
<g id="Node000006" class="node">
<title>Node6</title>
<g id="a_Node000006"><a xlink:title=" ">
<polygon fill="#e0e0e0" stroke="#999999" points="432.62,-77.5 333.38,-77.5 333.38,-56.75 432.62,-56.75 432.62,-77.5"/>
<text text-anchor="middle" x="383" y="-64" font-family="Helvetica,sans-Serif" font-size="10.00">cfg_spi_default.h</text>
</a>
</g>
</g>
<!-- Node1&#45;&gt;Node6 -->
<g id="edge7_Node000001_Node000006" class="edge">
<title>Node1&#45;&gt;Node6</title>
<g id="a_edge7_Node000001_Node000006"><a xlink:title=" ">
<path fill="none" stroke="#63b8ff" d="M343.65,-113.15C351.25,-104.45 359.83,-94.63 367.04,-86.39"/>
<polygon fill="#63b8ff" stroke="#63b8ff" points="369.52,-88.86 373.47,-79.03 364.25,-84.26 369.52,-88.86"/>
</a>
</g>
</g>
<!-- Node7 -->
<g id="Node000007" class="node">
<title>Node7</title>
<g id="a_Node000007"><a xlink:title=" ">
<polygon fill="#e0e0e0" stroke="#999999" points="561.62,-77.5 450.38,-77.5 450.38,-56.75 561.62,-56.75 561.62,-77.5"/>
<text text-anchor="middle" x="506" y="-64" font-family="Helvetica,sans-Serif" font-size="10.00">cfg_timer_default.h</text>
</a>
</g>
</g>
<!-- Node1&#45;&gt;Node7 -->
<g id="edge8_Node000001_Node000007" class="edge">
<title>Node1&#45;&gt;Node7</title>
<g id="a_edge8_Node000001_Node000007"><a xlink:title=" ">
<path fill="none" stroke="#63b8ff" d="M384.86,-113.05C412.82,-102.69 445.05,-90.73 469.24,-81.76"/>
<polygon fill="#63b8ff" stroke="#63b8ff" points="470.17,-85.15 478.33,-78.39 467.73,-78.58 470.17,-85.15"/>
</a>
</g>
</g>
<!-- Node8 -->
<g id="Node000008" class="node">
<title>Node8</title>
<g id="a_Node000008"><a xlink:title=" ">
<polygon fill="#e0e0e0" stroke="#999999" points="684.25,-77.5 579.75,-77.5 579.75,-56.75 684.25,-56.75 684.25,-77.5"/>
<text text-anchor="middle" x="632" y="-64" font-family="Helvetica,sans-Serif" font-size="10.00">cfg_uart_default.h</text>
</a>
</g>
</g>
<!-- Node1&#45;&gt;Node8 -->
<g id="edge9_Node000001_Node000008" class="edge">
<title>Node1&#45;&gt;Node8</title>
<g id="a_edge9_Node000001_Node000008"><a xlink:title=" ">
<path fill="none" stroke="#63b8ff" d="M384.85,-122.29C440.5,-110.09 522.14,-92.2 576.16,-80.36"/>
<polygon fill="#63b8ff" stroke="#63b8ff" points="576.75,-83.82 585.77,-78.26 575.25,-76.98 576.75,-83.82"/>
</a>
</g>
</g>
<!-- Node9 -->
<g id="Node000009" class="node">
<title>Node9</title>
<g id="a_Node000009"><a xlink:title=" ">
<polygon fill="#e0e0e0" stroke="#999999" points="822.12,-77.5 701.88,-77.5 701.88,-56.75 822.12,-56.75 822.12,-77.5"/>
<text text-anchor="middle" x="762" y="-64" font-family="Helvetica,sans-Serif" font-size="10.00">cfg_usbdev_default.h</text>
</a>
</g>
</g>
<!-- Node1&#45;&gt;Node9 -->
<g id="edge10_Node000001_Node000009" class="edge">
<title>Node1&#45;&gt;Node9</title>
<g id="a_edge10_Node000001_Node000009"><a xlink:title=" ">
<path fill="none" stroke="#63b8ff" d="M384.9,-126.24C464.91,-113.91 605.18,-92.29 690.25,-79.18"/>
<polygon fill="#63b8ff" stroke="#63b8ff" points="690.77,-82.64 700.12,-77.66 689.7,-75.73 690.77,-82.64"/>
</a>
</g>
</g>
<!-- Node4&#45;&gt;Node2 -->
<g id="edge4_Node000004_Node000002" class="edge">
<title>Node4&#45;&gt;Node2</title>
<g id="a_edge4_Node000004_Node000002"><a xlink:title=" ">
<path fill="none" stroke="#63b8ff" d="M85.88,-56.34C78.92,-48.86 69.13,-38.36 60.77,-29.38"/>
<polygon fill="#63b8ff" stroke="#63b8ff" points="63.45,-27.12 54.07,-22.19 58.33,-31.89 63.45,-27.12"/>
</a>
</g>
</g>
<!-- Node4&#45;&gt;Node3 -->
<g id="edge5_Node000004_Node000003" class="edge">
<title>Node4&#45;&gt;Node3</title>
<g id="a_edge5_Node000004_Node000003"><a xlink:title=" ">
<path fill="none" stroke="#63b8ff" d="M107.69,-56.34C117.89,-48.47 132.44,-37.25 144.46,-27.99"/>
<polygon fill="#63b8ff" stroke="#63b8ff" points="146.44,-30.88 152.22,-22 142.16,-25.34 146.44,-30.88"/>
</a>
</g>
</g>
</g>
</svg>
