<?xml version="1.0" encoding="UTF-8" standalone="no"?>
<!DOCTYPE svg PUBLIC "-//W3C//DTD SVG 1.1//EN"
 "http://www.w3.org/Graphics/SVG/1.1/DTD/svg11.dtd">
<!-- Generated by graphviz version 12.1.1 (0)
 -->
<!-- Title: boards/telosb/include/periph_conf.h Pages: 1 -->
<svg width="272pt" height="168pt"
 viewBox="0.00 0.00 271.75 167.75" xmlns="http://www.w3.org/2000/svg" xmlns:xlink="http://www.w3.org/1999/xlink">
<g id="graph0" class="graph" transform="scale(1 1) rotate(0) translate(4 163.75)">
<title>boards/telosb/include/periph_conf.h</title>
<!-- Node1 -->
<g id="Node000001" class="node">
<title>Node1</title>
<g id="a_Node000001"><a xlink:title="TelosB peripheral configuration.">
<polygon fill="#999999" stroke="#666666" points="176.12,-159.75 55.88,-159.75 55.88,-126.25 176.12,-126.25 176.12,-159.75"/>
<text text-anchor="start" x="63.88" y="-146.25" font-family="Helvetica,sans-Serif" font-size="10.00">boards/telosb/include</text>
<text text-anchor="middle" x="116" y="-133.5" font-family="Helvetica,sans-Serif" font-size="10.00">/periph_conf.h</text>
</a>
</g>
</g>
<!-- Node2 -->
<g id="Node000002" class="node">
<title>Node2</title>
<g id="a_Node000002"><a xlink:href="units_8h.html" target="_top" xlink:title="Unit helper macros.">
<polygon fill="white" stroke="#666666" points="88,-83.88 0,-83.88 0,-63.12 88,-63.12 88,-83.88"/>
<text text-anchor="middle" x="44" y="-70.38" font-family="Helvetica,sans-Serif" font-size="10.00">macros/units.h</text>
</a>
</g>
</g>
<!-- Node1&#45;&gt;Node2 -->
<g id="edge1_Node000001_Node000002" class="edge">
<title>Node1&#45;&gt;Node2</title>
<g id="a_edge1_Node000001_Node000002"><a xlink:title=" ">
<path fill="none" stroke="#63b8ff" d="M98.94,-126C88.04,-115.79 73.91,-102.55 62.71,-92.04"/>
<polygon fill="#63b8ff" stroke="#63b8ff" points="65.27,-89.64 55.58,-85.36 60.48,-94.75 65.27,-89.64"/>
</a>
</g>
</g>
<!-- Node3 -->
<g id="Node000003" class="node">
<title>Node3</title>
<g id="a_Node000003"><a xlink:title=" ">
<polygon fill="#e0e0e0" stroke="#999999" points="199.12,-20.75 120.88,-20.75 120.88,0 199.12,0 199.12,-20.75"/>
<text text-anchor="middle" x="160" y="-7.25" font-family="Helvetica,sans-Serif" font-size="10.00">periph_cpu.h</text>
</a>
</g>
</g>
<!-- Node1&#45;&gt;Node3 -->
<g id="edge2_Node000001_Node000003" class="edge">
<title>Node1&#45;&gt;Node3</title>
<g id="a_edge2_Node000001_Node000003"><a xlink:title=" ">
<path fill="none" stroke="#63b8ff" d="M118.19,-125.9C120.88,-108.46 126.21,-80.01 135,-56.75 138.37,-47.84 143.23,-38.54 147.77,-30.7"/>
<polygon fill="#63b8ff" stroke="#63b8ff" points="150.62,-32.74 152.81,-22.37 144.63,-29.11 150.62,-32.74"/>
</a>
</g>
</g>
<!-- Node4 -->
<g id="Node000004" class="node">
<title>Node4</title>
<g id="a_Node000004"><a xlink:href="cfg__timer__a__smclk__b__aclk_8h.html" target="_top" xlink:title="Common timer configuration for TIMER_A clocked by SMCLK and TIMER_B clocked by ACLK.">
<polygon fill="white" stroke="#666666" points="263.75,-90.25 144.25,-90.25 144.25,-56.75 263.75,-56.75 263.75,-90.25"/>
<text text-anchor="start" x="152.25" y="-76.75" font-family="Helvetica,sans-Serif" font-size="10.00">cfg_timer_a_smclk_b</text>
<text text-anchor="middle" x="204" y="-64" font-family="Helvetica,sans-Serif" font-size="10.00">_aclk.h</text>
</a>
</g>
</g>
<!-- Node1&#45;&gt;Node4 -->
<g id="edge3_Node000001_Node000004" class="edge">
<title>Node1&#45;&gt;Node4</title>
<g id="a_edge3_Node000001_Node000004"><a xlink:title=" ">
<path fill="none" stroke="#63b8ff" d="M136.85,-126C147.95,-117.49 161.8,-106.87 174.03,-97.49"/>
<polygon fill="#63b8ff" stroke="#63b8ff" points="175.98,-100.4 181.79,-91.54 171.72,-94.85 175.98,-100.4"/>
</a>
</g>
</g>
<!-- Node4&#45;&gt;Node3 -->
<g id="edge4_Node000004_Node000003" class="edge">
<title>Node4&#45;&gt;Node3</title>
<g id="a_edge4_Node000004_Node000003"><a xlink:title=" ">
<path fill="none" stroke="#63b8ff" d="M192.44,-56.44C186.72,-48.49 179.77,-38.84 173.78,-30.52"/>
<polygon fill="#63b8ff" stroke="#63b8ff" points="176.65,-28.52 167.97,-22.45 170.97,-32.61 176.65,-28.52"/>
</a>
</g>
</g>
</g>
</svg>
