<?xml version="1.0" encoding="UTF-8" standalone="no"?>
<!DOCTYPE svg PUBLIC "-//W3C//DTD SVG 1.1//EN"
 "http://www.w3.org/Graphics/SVG/1.1/DTD/svg11.dtd">
<!-- Generated by graphviz version 12.1.1 (0)
 -->
<!-- Title: boards/msb&#45;430/include/periph_conf.h Pages: 1 -->
<svg width="256pt" height="168pt"
 viewBox="0.00 0.00 256.25 167.75" xmlns="http://www.w3.org/2000/svg" xmlns:xlink="http://www.w3.org/1999/xlink">
<g id="graph0" class="graph" transform="scale(1 1) rotate(0) translate(4 163.75)">
<title>boards/msb&#45;430/include/periph_conf.h</title>
<!-- Node1 -->
<g id="Node000001" class="node">
<title>Node1</title>
<g id="a_Node000001"><a xlink:title="MSB&#45;430 peripheral configuration.">
<polygon fill="#999999" stroke="#666666" points="133,-159.75 0,-159.75 0,-126.25 133,-126.25 133,-159.75"/>
<text text-anchor="start" x="8" y="-146.25" font-family="Helvetica,sans-Serif" font-size="10.00">boards/msb&#45;430/include</text>
<text text-anchor="middle" x="66.5" y="-133.5" font-family="Helvetica,sans-Serif" font-size="10.00">/periph_conf.h</text>
</a>
</g>
</g>
<!-- Node2 -->
<g id="Node000002" class="node">
<title>Node2</title>
<g id="a_Node000002"><a xlink:title=" ">
<polygon fill="#e0e0e0" stroke="#999999" points="130.62,-20.75 52.38,-20.75 52.38,0 130.62,0 130.62,-20.75"/>
<text text-anchor="middle" x="91.5" y="-7.25" font-family="Helvetica,sans-Serif" font-size="10.00">periph_cpu.h</text>
</a>
</g>
</g>
<!-- Node1&#45;&gt;Node2 -->
<g id="edge1_Node000001_Node000002" class="edge">
<title>Node1&#45;&gt;Node2</title>
<g id="a_edge1_Node000001_Node000002"><a xlink:title=" ">
<path fill="none" stroke="#63b8ff" d="M42.87,-125.97C31.71,-116.94 19.54,-104.59 13.5,-90.25 7.72,-76.53 6.08,-69.66 13.5,-56.75 21.48,-42.87 35.52,-32.84 49.51,-25.8"/>
<polygon fill="#63b8ff" stroke="#63b8ff" points="50.58,-29.16 58.22,-21.82 47.67,-22.79 50.58,-29.16"/>
</a>
</g>
</g>
<!-- Node3 -->
<g id="Node000003" class="node">
<title>Node3</title>
<g id="a_Node000003"><a xlink:href="units_8h.html" target="_top" xlink:title="Unit helper macros.">
<polygon fill="white" stroke="#666666" points="110.5,-83.88 22.5,-83.88 22.5,-63.12 110.5,-63.12 110.5,-83.88"/>
<text text-anchor="middle" x="66.5" y="-70.38" font-family="Helvetica,sans-Serif" font-size="10.00">macros/units.h</text>
</a>
</g>
</g>
<!-- Node1&#45;&gt;Node3 -->
<g id="edge2_Node000001_Node000003" class="edge">
<title>Node1&#45;&gt;Node3</title>
<g id="a_edge2_Node000001_Node000003"><a xlink:title=" ">
<path fill="none" stroke="#63b8ff" d="M66.5,-126C66.5,-116.9 66.5,-105.39 66.5,-95.57"/>
<polygon fill="#63b8ff" stroke="#63b8ff" points="70,-95.84 66.5,-85.84 63,-95.84 70,-95.84"/>
</a>
</g>
</g>
<!-- Node4 -->
<g id="Node000004" class="node">
<title>Node4</title>
<g id="a_Node000004"><a xlink:href="cfg__timer__a__smclk__b__aclk_8h.html" target="_top" xlink:title="Common timer configuration for TIMER_A clocked by SMCLK and TIMER_B clocked by ACLK.">
<polygon fill="white" stroke="#666666" points="248.25,-90.25 128.75,-90.25 128.75,-56.75 248.25,-56.75 248.25,-90.25"/>
<text text-anchor="start" x="136.75" y="-76.75" font-family="Helvetica,sans-Serif" font-size="10.00">cfg_timer_a_smclk_b</text>
<text text-anchor="middle" x="188.5" y="-64" font-family="Helvetica,sans-Serif" font-size="10.00">_aclk.h</text>
</a>
</g>
</g>
<!-- Node1&#45;&gt;Node4 -->
<g id="edge3_Node000001_Node000004" class="edge">
<title>Node1&#45;&gt;Node4</title>
<g id="a_edge3_Node000001_Node000004"><a xlink:title=" ">
<path fill="none" stroke="#63b8ff" d="M95.72,-125.83C111.87,-116.9 132.14,-105.69 149.61,-96.02"/>
<polygon fill="#63b8ff" stroke="#63b8ff" points="151.14,-99.17 158.19,-91.27 147.75,-93.05 151.14,-99.17"/>
</a>
</g>
</g>
<!-- Node4&#45;&gt;Node2 -->
<g id="edge4_Node000004_Node000002" class="edge">
<title>Node4&#45;&gt;Node2</title>
<g id="a_edge4_Node000004_Node000002"><a xlink:title=" ">
<path fill="none" stroke="#63b8ff" d="M162.76,-56.28C148.49,-47.29 130.82,-36.15 116.64,-27.22"/>
<polygon fill="#63b8ff" stroke="#63b8ff" points="118.64,-24.34 108.32,-21.97 114.91,-30.26 118.64,-24.34"/>
</a>
</g>
</g>
</g>
</svg>
