<?xml version="1.0" encoding="UTF-8" standalone="no"?>
<!DOCTYPE svg PUBLIC "-//W3C//DTD SVG 1.1//EN"
 "http://www.w3.org/Graphics/SVG/1.1/DTD/svg11.dtd">
<!-- Generated by graphviz version 12.1.1 (0)
 -->
<!-- Title: boards/nucleo&#45;g431rb/include/periph_conf.h Pages: 1 -->
<svg width="449pt" height="155pt"
 viewBox="0.00 0.00 449.41 155.00" xmlns="http://www.w3.org/2000/svg" xmlns:xlink="http://www.w3.org/1999/xlink">
<g id="graph0" class="graph" transform="scale(1 1) rotate(0) translate(4 151)">
<title>boards/nucleo&#45;g431rb/include/periph_conf.h</title>
<!-- Node1 -->
<g id="Node000001" class="node">
<title>Node1</title>
<g id="a_Node000001"><a xlink:title="Peripheral MCU configuration for the nucleo&#45;g431rb board.">
<polygon fill="#999999" stroke="#666666" points="215.03,-147 92.53,-147 92.53,-113.5 215.03,-113.5 215.03,-147"/>
<text text-anchor="start" x="100.53" y="-133.5" font-family="Helvetica,sans-Serif" font-size="10.00">boards/nucleo&#45;g431rb</text>
<text text-anchor="middle" x="153.78" y="-120.75" font-family="Helvetica,sans-Serif" font-size="10.00">/include/periph_conf.h</text>
</a>
</g>
</g>
<!-- Node2 -->
<g id="Node000002" class="node">
<title>Node2</title>
<g id="a_Node000002"><a xlink:title=" ">
<polygon fill="#e0e0e0" stroke="#999999" points="192.91,-20.75 114.66,-20.75 114.66,0 192.91,0 192.91,-20.75"/>
<text text-anchor="middle" x="153.78" y="-7.25" font-family="Helvetica,sans-Serif" font-size="10.00">periph_cpu.h</text>
</a>
</g>
</g>
<!-- Node1&#45;&gt;Node2 -->
<g id="edge1_Node000001_Node000002" class="edge">
<title>Node1&#45;&gt;Node2</title>
<g id="a_edge1_Node000001_Node000002"><a xlink:title=" ">
<path fill="none" stroke="#63b8ff" d="M92.44,-121.15C41.16,-111.7 -19.66,-92.58 6.78,-56.75 28.7,-27.05 69.79,-16.19 102.97,-12.49"/>
<polygon fill="#63b8ff" stroke="#63b8ff" points="103.18,-15.98 112.83,-11.6 102.55,-9.01 103.18,-15.98"/>
</a>
</g>
</g>
<!-- Node3 -->
<g id="Node000003" class="node">
<title>Node3</title>
<g id="a_Node000003"><a xlink:title=" ">
<polygon fill="#e0e0e0" stroke="#999999" points="80.16,-77.5 15.41,-77.5 15.41,-56.75 80.16,-56.75 80.16,-77.5"/>
<text text-anchor="middle" x="47.78" y="-64" font-family="Helvetica,sans-Serif" font-size="10.00">clk_conf.h</text>
</a>
</g>
</g>
<!-- Node1&#45;&gt;Node3 -->
<g id="edge2_Node000001_Node000003" class="edge">
<title>Node1&#45;&gt;Node3</title>
<g id="a_edge2_Node000001_Node000003"><a xlink:title=" ">
<path fill="none" stroke="#63b8ff" d="M125.65,-113.03C109.75,-103.86 89.99,-92.47 74.36,-83.45"/>
<polygon fill="#63b8ff" stroke="#63b8ff" points="76.48,-80.63 66.07,-78.67 72.98,-86.7 76.48,-80.63"/>
</a>
</g>
</g>
<!-- Node4 -->
<g id="Node000004" class="node">
<title>Node4</title>
<g id="a_Node000004"><a xlink:href="cfg__i2c1__pb8__pb9_8h.html" target="_top" xlink:title="Common configuration for STM32 I2C.">
<polygon fill="white" stroke="#666666" points="209.78,-77.5 97.78,-77.5 97.78,-56.75 209.78,-56.75 209.78,-77.5"/>
<text text-anchor="middle" x="153.78" y="-64" font-family="Helvetica,sans-Serif" font-size="10.00">cfg_i2c1_pb8_pb9.h</text>
</a>
</g>
</g>
<!-- Node1&#45;&gt;Node4 -->
<g id="edge3_Node000001_Node000004" class="edge">
<title>Node1&#45;&gt;Node4</title>
<g id="a_edge3_Node000001_Node000004"><a xlink:title=" ">
<path fill="none" stroke="#63b8ff" d="M153.78,-113.19C153.78,-105.85 153.78,-97.07 153.78,-89.21"/>
<polygon fill="#63b8ff" stroke="#63b8ff" points="157.28,-89.48 153.78,-79.48 150.28,-89.48 157.28,-89.48"/>
</a>
</g>
</g>
<!-- Node5 -->
<g id="Node000005" class="node">
<title>Node5</title>
<g id="a_Node000005"><a xlink:title=" ">
<polygon fill="#e0e0e0" stroke="#999999" points="323.91,-77.5 227.66,-77.5 227.66,-56.75 323.91,-56.75 323.91,-77.5"/>
<text text-anchor="middle" x="275.78" y="-64" font-family="Helvetica,sans-Serif" font-size="10.00">cfg_rtt_default.h</text>
</a>
</g>
</g>
<!-- Node1&#45;&gt;Node5 -->
<g id="edge5_Node000001_Node000005" class="edge">
<title>Node1&#45;&gt;Node5</title>
<g id="a_edge5_Node000001_Node000005"><a xlink:title=" ">
<path fill="none" stroke="#63b8ff" d="M186.15,-113.03C204.71,-103.73 227.85,-92.14 245.96,-83.06"/>
<polygon fill="#63b8ff" stroke="#63b8ff" points="247.52,-86.2 254.89,-78.59 244.38,-79.94 247.52,-86.2"/>
</a>
</g>
</g>
<!-- Node6 -->
<g id="Node000006" class="node">
<title>Node6</title>
<g id="a_Node000006"><a xlink:href="cfg__timer__tim2_8h.html" target="_top" xlink:title="Common configuration for STM32 Timer peripheral based on TIM2.">
<polygon fill="white" stroke="#666666" points="441.41,-77.5 342.16,-77.5 342.16,-56.75 441.41,-56.75 441.41,-77.5"/>
<text text-anchor="middle" x="391.78" y="-64" font-family="Helvetica,sans-Serif" font-size="10.00">cfg_timer_tim2.h</text>
</a>
</g>
</g>
<!-- Node1&#45;&gt;Node6 -->
<g id="edge6_Node000001_Node000006" class="edge">
<title>Node1&#45;&gt;Node6</title>
<g id="a_edge6_Node000001_Node000006"><a xlink:title=" ">
<path fill="none" stroke="#63b8ff" d="M215.38,-113.43C254.95,-103.27 305.65,-90.25 342.53,-80.77"/>
<polygon fill="#63b8ff" stroke="#63b8ff" points="343.23,-84.21 352.04,-78.33 341.49,-77.43 343.23,-84.21"/>
</a>
</g>
</g>
<!-- Node4&#45;&gt;Node2 -->
<g id="edge4_Node000004_Node000002" class="edge">
<title>Node4&#45;&gt;Node2</title>
<g id="a_edge4_Node000004_Node000002"><a xlink:title=" ">
<path fill="none" stroke="#63b8ff" d="M153.78,-56.34C153.78,-49.72 153.78,-40.72 153.78,-32.52"/>
<polygon fill="#63b8ff" stroke="#63b8ff" points="157.28,-32.59 153.78,-22.59 150.28,-32.59 157.28,-32.59"/>
</a>
</g>
</g>
<!-- Node6&#45;&gt;Node2 -->
<g id="edge7_Node000006_Node000002" class="edge">
<title>Node6&#45;&gt;Node2</title>
<g id="a_edge7_Node000006_Node000002"><a xlink:title=" ">
<path fill="none" stroke="#63b8ff" d="M348.96,-56.27C308.29,-46.92 247.15,-32.85 204.17,-22.97"/>
<polygon fill="#63b8ff" stroke="#63b8ff" points="205.11,-19.59 194.58,-20.76 203.54,-26.41 205.11,-19.59"/>
</a>
</g>
</g>
</g>
</svg>
