<?xml version="1.0" encoding="UTF-8" standalone="no"?>
<!DOCTYPE svg PUBLIC "-//W3C//DTD SVG 1.1//EN"
 "http://www.w3.org/Graphics/SVG/1.1/DTD/svg11.dtd">
<!-- Generated by graphviz version 12.1.1 (0)
 -->
<!-- Title: boards/particle&#45;argon/include/periph_conf.h Pages: 1 -->
<svg width="234pt" height="98pt"
 viewBox="0.00 0.00 234.12 98.25" xmlns="http://www.w3.org/2000/svg" xmlns:xlink="http://www.w3.org/1999/xlink">
<g id="graph0" class="graph" transform="scale(1 1) rotate(0) translate(4 94.25)">
<title>boards/particle&#45;argon/include/periph_conf.h</title>
<!-- Node1 -->
<g id="Node000001" class="node">
<title>Node1</title>
<g id="a_Node000001"><a xlink:title="Peripheral configuration for the Particle Argon.">
<polygon fill="#999999" stroke="#666666" points="161.38,-90.25 38.88,-90.25 38.88,-56.75 161.38,-56.75 161.38,-90.25"/>
<text text-anchor="start" x="46.88" y="-76.75" font-family="Helvetica,sans-Serif" font-size="10.00">boards/particle&#45;argon</text>
<text text-anchor="middle" x="100.12" y="-64" font-family="Helvetica,sans-Serif" font-size="10.00">/include/periph_conf.h</text>
</a>
</g>
</g>
<!-- Node2 -->
<g id="Node000002" class="node">
<title>Node2</title>
<g id="a_Node000002"><a xlink:title=" ">
<polygon fill="#e0e0e0" stroke="#999999" points="78.25,-20.75 0,-20.75 0,0 78.25,0 78.25,-20.75"/>
<text text-anchor="middle" x="39.12" y="-7.25" font-family="Helvetica,sans-Serif" font-size="10.00">periph_cpu.h</text>
</a>
</g>
</g>
<!-- Node1&#45;&gt;Node2 -->
<g id="edge1_Node000001_Node000002" class="edge">
<title>Node1&#45;&gt;Node2</title>
<g id="a_edge1_Node000001_Node000002"><a xlink:title=" ">
<path fill="none" stroke="#63b8ff" d="M84.1,-56.44C75.73,-48.06 65.47,-37.78 56.87,-29.16"/>
<polygon fill="#63b8ff" stroke="#63b8ff" points="59.56,-26.89 50.02,-22.29 54.6,-31.84 59.56,-26.89"/>
</a>
</g>
</g>
<!-- Node3 -->
<g id="Node000003" class="node">
<title>Node3</title>
<g id="a_Node000003"><a xlink:title=" ">
<polygon fill="#e0e0e0" stroke="#999999" points="226.12,-20.75 96.12,-20.75 96.12,0 226.12,0 226.12,-20.75"/>
<text text-anchor="middle" x="161.12" y="-7.25" font-family="Helvetica,sans-Serif" font-size="10.00">periph_conf_common.h</text>
</a>
</g>
</g>
<!-- Node1&#45;&gt;Node3 -->
<g id="edge2_Node000001_Node000003" class="edge">
<title>Node1&#45;&gt;Node3</title>
<g id="a_edge2_Node000001_Node000003"><a xlink:title=" ">
<path fill="none" stroke="#63b8ff" d="M116.15,-56.44C124.52,-48.06 134.78,-37.78 143.38,-29.16"/>
<polygon fill="#63b8ff" stroke="#63b8ff" points="145.65,-31.84 150.23,-22.29 140.69,-26.89 145.65,-31.84"/>
</a>
</g>
</g>
</g>
</svg>
