<?xml version="1.0" encoding="UTF-8" standalone="no"?>
<!DOCTYPE svg PUBLIC "-//W3C//DTD SVG 1.1//EN"
 "http://www.w3.org/Graphics/SVG/1.1/DTD/svg11.dtd">
<!-- Generated by graphviz version 12.1.1 (0)
 -->
<!-- Title: boards/qn9080dk/include/periph_conf.h Pages: 1 -->
<svg width="323pt" height="98pt"
 viewBox="0.00 0.00 322.50 98.25" xmlns="http://www.w3.org/2000/svg" xmlns:xlink="http://www.w3.org/1999/xlink">
<g id="graph0" class="graph" transform="scale(1 1) rotate(0) translate(4 94.25)">
<title>boards/qn9080dk/include/periph_conf.h</title>
<!-- Node1 -->
<g id="Node000001" class="node">
<title>Node1</title>
<g id="a_Node000001"><a xlink:title="Configuration of CPU peripherals for QN9080DK base board board.">
<polygon fill="#999999" stroke="#666666" points="224.5,-90.25 86.25,-90.25 86.25,-56.75 224.5,-56.75 224.5,-90.25"/>
<text text-anchor="start" x="94.25" y="-76.75" font-family="Helvetica,sans-Serif" font-size="10.00">boards/qn9080dk/include</text>
<text text-anchor="middle" x="155.38" y="-64" font-family="Helvetica,sans-Serif" font-size="10.00">/periph_conf.h</text>
</a>
</g>
</g>
<!-- Node2 -->
<g id="Node000002" class="node">
<title>Node2</title>
<g id="a_Node000002"><a xlink:title=" ">
<polygon fill="#e0e0e0" stroke="#999999" points="52.75,-20.75 0,-20.75 0,0 52.75,0 52.75,-20.75"/>
<text text-anchor="middle" x="26.38" y="-7.25" font-family="Helvetica,sans-Serif" font-size="10.00">stdint.h</text>
</a>
</g>
</g>
<!-- Node1&#45;&gt;Node2 -->
<g id="edge1_Node000001_Node000002" class="edge">
<title>Node1&#45;&gt;Node2</title>
<g id="a_edge1_Node000001_Node000002"><a xlink:title=" ">
<path fill="none" stroke="#63b8ff" d="M121.14,-56.28C101.33,-46.89 76.6,-35.17 57.37,-26.06"/>
<polygon fill="#63b8ff" stroke="#63b8ff" points="58.94,-22.93 48.4,-21.81 55.94,-29.26 58.94,-22.93"/>
</a>
</g>
</g>
<!-- Node3 -->
<g id="Node000003" class="node">
<title>Node3</title>
<g id="a_Node000003"><a xlink:href="units_8h.html" target="_top" xlink:title="Unit helper macros.">
<polygon fill="white" stroke="#666666" points="158.38,-20.75 70.38,-20.75 70.38,0 158.38,0 158.38,-20.75"/>
<text text-anchor="middle" x="114.38" y="-7.25" font-family="Helvetica,sans-Serif" font-size="10.00">macros/units.h</text>
</a>
</g>
</g>
<!-- Node1&#45;&gt;Node3 -->
<g id="edge2_Node000001_Node000003" class="edge">
<title>Node1&#45;&gt;Node3</title>
<g id="a_edge2_Node000001_Node000003"><a xlink:title=" ">
<path fill="none" stroke="#63b8ff" d="M144.6,-56.44C139.27,-48.49 132.8,-38.84 127.21,-30.52"/>
<polygon fill="#63b8ff" stroke="#63b8ff" points="130.3,-28.83 121.82,-22.47 124.48,-32.73 130.3,-28.83"/>
</a>
</g>
</g>
<!-- Node4 -->
<g id="Node000004" class="node">
<title>Node4</title>
<g id="a_Node000004"><a xlink:title=" ">
<polygon fill="#e0e0e0" stroke="#999999" points="218.5,-20.75 176.25,-20.75 176.25,0 218.5,0 218.5,-20.75"/>
<text text-anchor="middle" x="197.38" y="-7.25" font-family="Helvetica,sans-Serif" font-size="10.00">cpu.h</text>
</a>
</g>
</g>
<!-- Node1&#45;&gt;Node4 -->
<g id="edge3_Node000001_Node000004" class="edge">
<title>Node1&#45;&gt;Node4</title>
<g id="a_edge3_Node000001_Node000004"><a xlink:title=" ">
<path fill="none" stroke="#63b8ff" d="M166.41,-56.44C171.87,-48.49 178.5,-38.84 184.22,-30.52"/>
<polygon fill="#63b8ff" stroke="#63b8ff" points="186.98,-32.69 189.76,-22.46 181.21,-28.72 186.98,-32.69"/>
</a>
</g>
</g>
<!-- Node5 -->
<g id="Node000005" class="node">
<title>Node5</title>
<g id="a_Node000005"><a xlink:title=" ">
<polygon fill="#e0e0e0" stroke="#999999" points="314.5,-20.75 236.25,-20.75 236.25,0 314.5,0 314.5,-20.75"/>
<text text-anchor="middle" x="275.38" y="-7.25" font-family="Helvetica,sans-Serif" font-size="10.00">periph_cpu.h</text>
</a>
</g>
</g>
<!-- Node1&#45;&gt;Node5 -->
<g id="edge4_Node000001_Node000005" class="edge">
<title>Node1&#45;&gt;Node5</title>
<g id="a_edge4_Node000001_Node000005"><a xlink:title=" ">
<path fill="none" stroke="#63b8ff" d="M187.22,-56.28C205.47,-46.98 228.23,-35.39 246.05,-26.31"/>
<polygon fill="#63b8ff" stroke="#63b8ff" points="247.48,-29.51 254.81,-21.85 244.31,-23.27 247.48,-29.51"/>
</a>
</g>
</g>
</g>
</svg>
