<?xml version="1.0" encoding="UTF-8" standalone="no"?>
<!DOCTYPE svg PUBLIC "-//W3C//DTD SVG 1.1//EN"
 "http://www.w3.org/Graphics/SVG/1.1/DTD/svg11.dtd">
<!-- Generated by graphviz version 12.1.1 (0)
 -->
<!-- Title: boards/b&#45;l072z&#45;lrwan1/include/periph_conf.h Pages: 1 -->
<svg width="451pt" height="155pt"
 viewBox="0.00 0.00 451.03 155.00" xmlns="http://www.w3.org/2000/svg" xmlns:xlink="http://www.w3.org/1999/xlink">
<g id="graph0" class="graph" transform="scale(1 1) rotate(0) translate(4 151)">
<title>boards/b&#45;l072z&#45;lrwan1/include/periph_conf.h</title>
<!-- Node1 -->
<g id="Node000001" class="node">
<title>Node1</title>
<g id="a_Node000001"><a xlink:title="Peripheral MCU configuration for the ST B&#45;L072Z&#45;LRWAN1 board.">
<polygon fill="#999999" stroke="#666666" points="209.78,-147 85.03,-147 85.03,-113.5 209.78,-113.5 209.78,-147"/>
<text text-anchor="start" x="93.03" y="-133.5" font-family="Helvetica,sans-Serif" font-size="10.00">boards/b&#45;l072z&#45;lrwan1</text>
<text text-anchor="middle" x="147.41" y="-120.75" font-family="Helvetica,sans-Serif" font-size="10.00">/include/periph_conf.h</text>
</a>
</g>
</g>
<!-- Node2 -->
<g id="Node000002" class="node">
<title>Node2</title>
<g id="a_Node000002"><a xlink:title=" ">
<polygon fill="#e0e0e0" stroke="#999999" points="308.53,-20.75 230.28,-20.75 230.28,0 308.53,0 308.53,-20.75"/>
<text text-anchor="middle" x="269.41" y="-7.25" font-family="Helvetica,sans-Serif" font-size="10.00">periph_cpu.h</text>
</a>
</g>
</g>
<!-- Node1&#45;&gt;Node2 -->
<g id="edge1_Node000001_Node000002" class="edge">
<title>Node1&#45;&gt;Node2</title>
<g id="a_edge1_Node000001_Node000002"><a xlink:title=" ">
<path fill="none" stroke="#63b8ff" d="M84.56,-119.04C35.71,-108.43 -19.56,-88.79 7.41,-56.75 33.86,-25.33 150.13,-15.66 218.58,-12.69"/>
<polygon fill="#63b8ff" stroke="#63b8ff" points="218.58,-16.2 228.43,-12.3 218.3,-9.2 218.58,-16.2"/>
</a>
</g>
</g>
<!-- Node3 -->
<g id="Node000003" class="node">
<title>Node3</title>
<g id="a_Node000003"><a xlink:title=" ">
<polygon fill="#e0e0e0" stroke="#999999" points="80.78,-77.5 16.03,-77.5 16.03,-56.75 80.78,-56.75 80.78,-77.5"/>
<text text-anchor="middle" x="48.41" y="-64" font-family="Helvetica,sans-Serif" font-size="10.00">clk_conf.h</text>
</a>
</g>
</g>
<!-- Node1&#45;&gt;Node3 -->
<g id="edge2_Node000001_Node000003" class="edge">
<title>Node1&#45;&gt;Node3</title>
<g id="a_edge2_Node000001_Node000003"><a xlink:title=" ">
<path fill="none" stroke="#63b8ff" d="M121.13,-113.03C106.43,-103.95 88.18,-92.68 73.64,-83.71"/>
<polygon fill="#63b8ff" stroke="#63b8ff" points="75.9,-80.99 65.55,-78.71 72.22,-86.94 75.9,-80.99"/>
</a>
</g>
</g>
<!-- Node4 -->
<g id="Node000004" class="node">
<title>Node4</title>
<g id="a_Node000004"><a xlink:title=" ">
<polygon fill="#e0e0e0" stroke="#999999" points="195.53,-77.5 99.28,-77.5 99.28,-56.75 195.53,-56.75 195.53,-77.5"/>
<text text-anchor="middle" x="147.41" y="-64" font-family="Helvetica,sans-Serif" font-size="10.00">cfg_rtt_default.h</text>
</a>
</g>
</g>
<!-- Node1&#45;&gt;Node4 -->
<g id="edge3_Node000001_Node000004" class="edge">
<title>Node1&#45;&gt;Node4</title>
<g id="a_edge3_Node000001_Node000004"><a xlink:title=" ">
<path fill="none" stroke="#63b8ff" d="M147.41,-113.19C147.41,-105.85 147.41,-97.07 147.41,-89.21"/>
<polygon fill="#63b8ff" stroke="#63b8ff" points="150.91,-89.48 147.41,-79.48 143.91,-89.48 150.91,-89.48"/>
</a>
</g>
</g>
<!-- Node5 -->
<g id="Node000005" class="node">
<title>Node5</title>
<g id="a_Node000005"><a xlink:href="cfg__i2c1__pb8__pb9_8h.html" target="_top" xlink:title="Common configuration for STM32 I2C.">
<polygon fill="white" stroke="#666666" points="325.41,-77.5 213.41,-77.5 213.41,-56.75 325.41,-56.75 325.41,-77.5"/>
<text text-anchor="middle" x="269.41" y="-64" font-family="Helvetica,sans-Serif" font-size="10.00">cfg_i2c1_pb8_pb9.h</text>
</a>
</g>
</g>
<!-- Node1&#45;&gt;Node5 -->
<g id="edge4_Node000001_Node000005" class="edge">
<title>Node1&#45;&gt;Node5</title>
<g id="a_edge4_Node000001_Node000005"><a xlink:title=" ">
<path fill="none" stroke="#63b8ff" d="M179.78,-113.03C198.34,-103.73 221.47,-92.14 239.59,-83.06"/>
<polygon fill="#63b8ff" stroke="#63b8ff" points="241.14,-86.2 248.51,-78.59 238,-79.94 241.14,-86.2"/>
</a>
</g>
</g>
<!-- Node6 -->
<g id="Node000006" class="node">
<title>Node6</title>
<g id="a_Node000006"><a xlink:href="cfg__timer__tim2_8h.html" target="_top" xlink:title="Common configuration for STM32 Timer peripheral based on TIM2.">
<polygon fill="white" stroke="#666666" points="443.03,-77.5 343.78,-77.5 343.78,-56.75 443.03,-56.75 443.03,-77.5"/>
<text text-anchor="middle" x="393.41" y="-64" font-family="Helvetica,sans-Serif" font-size="10.00">cfg_timer_tim2.h</text>
</a>
</g>
</g>
<!-- Node1&#45;&gt;Node6 -->
<g id="edge6_Node000001_Node000006" class="edge">
<title>Node1&#45;&gt;Node6</title>
<g id="a_edge6_Node000001_Node000006"><a xlink:title=" ">
<path fill="none" stroke="#63b8ff" d="M210.12,-113.67C251.32,-103.43 304.51,-90.21 342.97,-80.66"/>
<polygon fill="#63b8ff" stroke="#63b8ff" points="343.57,-84.11 352.43,-78.31 341.88,-77.32 343.57,-84.11"/>
</a>
</g>
</g>
<!-- Node5&#45;&gt;Node2 -->
<g id="edge5_Node000005_Node000002" class="edge">
<title>Node5&#45;&gt;Node2</title>
<g id="a_edge5_Node000005_Node000002"><a xlink:title=" ">
<path fill="none" stroke="#63b8ff" d="M269.41,-56.34C269.41,-49.72 269.41,-40.72 269.41,-32.52"/>
<polygon fill="#63b8ff" stroke="#63b8ff" points="272.91,-32.59 269.41,-22.59 265.91,-32.59 272.91,-32.59"/>
</a>
</g>
</g>
<!-- Node6&#45;&gt;Node2 -->
<g id="edge7_Node000006_Node000002" class="edge">
<title>Node6&#45;&gt;Node2</title>
<g id="a_edge7_Node000006_Node000002"><a xlink:title=" ">
<path fill="none" stroke="#63b8ff" d="M371.24,-56.34C351.93,-47.81 323.68,-35.34 301.83,-25.69"/>
<polygon fill="#63b8ff" stroke="#63b8ff" points="303.33,-22.53 292.77,-21.69 300.5,-28.93 303.33,-22.53"/>
</a>
</g>
</g>
</g>
</svg>
