<?xml version="1.0" encoding="UTF-8" standalone="no"?>
<!DOCTYPE svg PUBLIC "-//W3C//DTD SVG 1.1//EN"
 "http://www.w3.org/Graphics/SVG/1.1/DTD/svg11.dtd">
<!-- Generated by graphviz version 12.1.1 (0)
 -->
<!-- Title: boards/atmega256rfr2&#45;xpro/include/periph_conf.h Pages: 1 -->
<svg width="133pt" height="181pt"
 viewBox="0.00 0.00 132.75 180.50" xmlns="http://www.w3.org/2000/svg" xmlns:xlink="http://www.w3.org/1999/xlink">
<g id="graph0" class="graph" transform="scale(1 1) rotate(0) translate(4 176.5)">
<title>boards/atmega256rfr2&#45;xpro/include/periph_conf.h</title>
<!-- Node1 -->
<g id="Node000001" class="node">
<title>Node1</title>
<g id="a_Node000001"><a xlink:title="Peripheral MCU configuration for the Atmega256RFR2 Xplained Pro.">
<polygon fill="#999999" stroke="#666666" points="124.75,-172.5 0,-172.5 0,-126.25 124.75,-126.25 124.75,-172.5"/>
<text text-anchor="start" x="8" y="-159" font-family="Helvetica,sans-Serif" font-size="10.00">boards/atmega256rfr2</text>
<text text-anchor="start" x="8" y="-146.25" font-family="Helvetica,sans-Serif" font-size="10.00">&#45;xpro/include/periph</text>
<text text-anchor="middle" x="62.38" y="-133.5" font-family="Helvetica,sans-Serif" font-size="10.00">_conf.h</text>
</a>
</g>
</g>
<!-- Node2 -->
<g id="Node000002" class="node">
<title>Node2</title>
<g id="a_Node000002"><a xlink:href="periph__conf__atmega__common_8h.html" target="_top" xlink:title="Common configuration of MCU periphery for ATmega boards.">
<polygon fill="white" stroke="#666666" points="120.25,-90.25 4.5,-90.25 4.5,-56.75 120.25,-56.75 120.25,-90.25"/>
<text text-anchor="start" x="12.5" y="-76.75" font-family="Helvetica,sans-Serif" font-size="10.00">periph_conf_atmega</text>
<text text-anchor="middle" x="62.38" y="-64" font-family="Helvetica,sans-Serif" font-size="10.00">_common.h</text>
</a>
</g>
</g>
<!-- Node1&#45;&gt;Node2 -->
<g id="edge1_Node000001_Node000002" class="edge">
<title>Node1&#45;&gt;Node2</title>
<g id="a_edge1_Node000001_Node000002"><a xlink:title=" ">
<path fill="none" stroke="#63b8ff" d="M62.38,-125.81C62.38,-118.26 62.38,-109.76 62.38,-101.88"/>
<polygon fill="#63b8ff" stroke="#63b8ff" points="65.88,-102.12 62.38,-92.12 58.88,-102.12 65.88,-102.12"/>
</a>
</g>
</g>
<!-- Node3 -->
<g id="Node000003" class="node">
<title>Node3</title>
<g id="a_Node000003"><a xlink:title=" ">
<polygon fill="#e0e0e0" stroke="#999999" points="101.5,-20.75 23.25,-20.75 23.25,0 101.5,0 101.5,-20.75"/>
<text text-anchor="middle" x="62.38" y="-7.25" font-family="Helvetica,sans-Serif" font-size="10.00">periph_cpu.h</text>
</a>
</g>
</g>
<!-- Node2&#45;&gt;Node3 -->
<g id="edge2_Node000002_Node000003" class="edge">
<title>Node2&#45;&gt;Node3</title>
<g id="a_edge2_Node000002_Node000003"><a xlink:title=" ">
<path fill="none" stroke="#63b8ff" d="M62.38,-56.44C62.38,-49.1 62.38,-40.32 62.38,-32.46"/>
<polygon fill="#63b8ff" stroke="#63b8ff" points="65.88,-32.73 62.38,-22.73 58.88,-32.73 65.88,-32.73"/>
</a>
</g>
</g>
</g>
</svg>
