<?xml version="1.0" encoding="UTF-8" standalone="no"?>
<!DOCTYPE svg PUBLIC "-//W3C//DTD SVG 1.1//EN"
 "http://www.w3.org/Graphics/SVG/1.1/DTD/svg11.dtd">
<!-- Generated by graphviz version 12.1.1 (0)
 -->
<!-- Title: boards/nucleo&#45;f767zi/include/periph_conf.h Pages: 1 -->
<svg width="773pt" height="212pt"
 viewBox="0.00 0.00 773.44 211.75" xmlns="http://www.w3.org/2000/svg" xmlns:xlink="http://www.w3.org/1999/xlink">
<g id="graph0" class="graph" transform="scale(1 1) rotate(0) translate(4 207.75)">
<title>boards/nucleo&#45;f767zi/include/periph_conf.h</title>
<!-- Node1 -->
<g id="Node000001" class="node">
<title>Node1</title>
<g id="a_Node000001"><a xlink:title="Peripheral MCU configuration for the nucleo&#45;f767zi board.">
<polygon fill="#999999" stroke="#666666" points="334.69,-203.75 212.19,-203.75 212.19,-170.25 334.69,-170.25 334.69,-203.75"/>
<text text-anchor="start" x="220.19" y="-190.25" font-family="Helvetica,sans-Serif" font-size="10.00">boards/nucleo&#45;f767zi</text>
<text text-anchor="middle" x="273.44" y="-177.5" font-family="Helvetica,sans-Serif" font-size="10.00">/include/periph_conf.h</text>
</a>
</g>
</g>
<!-- Node2 -->
<g id="Node000002" class="node">
<title>Node2</title>
<g id="a_Node000002"><a xlink:title=" ">
<polygon fill="#e0e0e0" stroke="#999999" points="304.56,-77.5 226.31,-77.5 226.31,-56.75 304.56,-56.75 304.56,-77.5"/>
<text text-anchor="middle" x="265.44" y="-64" font-family="Helvetica,sans-Serif" font-size="10.00">periph_cpu.h</text>
</a>
</g>
</g>
<!-- Node1&#45;&gt;Node2 -->
<g id="edge1_Node000001_Node000002" class="edge">
<title>Node1&#45;&gt;Node2</title>
<g id="a_edge1_Node000001_Node000002"><a xlink:title=" ">
<path fill="none" stroke="#63b8ff" d="M211.79,-182.98C140.68,-178.05 30.22,-165.46 4.44,-134.25 -1.44,-127.14 -1.5,-120.56 4.44,-113.5 30.74,-82.22 146.31,-72.51 214.53,-69.49"/>
<polygon fill="#63b8ff" stroke="#63b8ff" points="214.5,-72.99 224.35,-69.09 214.22,-66 214.5,-72.99"/>
</a>
</g>
</g>
<!-- Node3 -->
<g id="Node000003" class="node">
<title>Node3</title>
<g id="a_Node000003"><a xlink:title=" ">
<polygon fill="#e0e0e0" stroke="#999999" points="77.81,-134.25 13.06,-134.25 13.06,-113.5 77.81,-113.5 77.81,-134.25"/>
<text text-anchor="middle" x="45.44" y="-120.75" font-family="Helvetica,sans-Serif" font-size="10.00">clk_conf.h</text>
</a>
</g>
</g>
<!-- Node1&#45;&gt;Node3 -->
<g id="edge2_Node000001_Node000003" class="edge">
<title>Node1&#45;&gt;Node3</title>
<g id="a_edge2_Node000001_Node000003"><a xlink:title=" ">
<path fill="none" stroke="#63b8ff" d="M212.94,-169.78C173.89,-159.31 124.01,-145.94 88.88,-136.52"/>
<polygon fill="#63b8ff" stroke="#63b8ff" points="90.05,-133.21 79.48,-134 88.23,-139.97 90.05,-133.21"/>
</a>
</g>
</g>
<!-- Node4 -->
<g id="Node000004" class="node">
<title>Node4</title>
<g id="a_Node000004"><a xlink:href="cfg__i2c1__pb8__pb9_8h.html" target="_top" xlink:title="Common configuration for STM32 I2C.">
<polygon fill="white" stroke="#666666" points="207.44,-134.25 95.44,-134.25 95.44,-113.5 207.44,-113.5 207.44,-134.25"/>
<text text-anchor="middle" x="151.44" y="-120.75" font-family="Helvetica,sans-Serif" font-size="10.00">cfg_i2c1_pb8_pb9.h</text>
</a>
</g>
</g>
<!-- Node1&#45;&gt;Node4 -->
<g id="edge3_Node000001_Node000004" class="edge">
<title>Node1&#45;&gt;Node4</title>
<g id="a_edge3_Node000001_Node000004"><a xlink:title=" ">
<path fill="none" stroke="#63b8ff" d="M241.06,-169.78C222.5,-160.48 199.37,-148.89 181.26,-139.81"/>
<polygon fill="#63b8ff" stroke="#63b8ff" points="182.84,-136.69 172.33,-135.34 179.7,-142.95 182.84,-136.69"/>
</a>
</g>
</g>
<!-- Node5 -->
<g id="Node000005" class="node">
<title>Node5</title>
<g id="a_Node000005"><a xlink:title=" ">
<polygon fill="#e0e0e0" stroke="#999999" points="321.56,-134.25 225.31,-134.25 225.31,-113.5 321.56,-113.5 321.56,-134.25"/>
<text text-anchor="middle" x="273.44" y="-120.75" font-family="Helvetica,sans-Serif" font-size="10.00">cfg_rtt_default.h</text>
</a>
</g>
</g>
<!-- Node1&#45;&gt;Node5 -->
<g id="edge5_Node000001_Node000005" class="edge">
<title>Node1&#45;&gt;Node5</title>
<g id="a_edge5_Node000001_Node000005"><a xlink:title=" ">
<path fill="none" stroke="#63b8ff" d="M273.44,-169.94C273.44,-162.6 273.44,-153.82 273.44,-145.96"/>
<polygon fill="#63b8ff" stroke="#63b8ff" points="276.94,-146.23 273.44,-136.23 269.94,-146.23 276.94,-146.23"/>
</a>
</g>
</g>
<!-- Node6 -->
<g id="Node000006" class="node">
<title>Node6</title>
<g id="a_Node000006"><a xlink:href="cfg__timer__tim2_8h.html" target="_top" xlink:title="Common configuration for STM32 Timer peripheral based on TIM2.">
<polygon fill="white" stroke="#666666" points="439.06,-134.25 339.81,-134.25 339.81,-113.5 439.06,-113.5 439.06,-134.25"/>
<text text-anchor="middle" x="389.44" y="-120.75" font-family="Helvetica,sans-Serif" font-size="10.00">cfg_timer_tim2.h</text>
</a>
</g>
</g>
<!-- Node1&#45;&gt;Node6 -->
<g id="edge6_Node000001_Node000006" class="edge">
<title>Node1&#45;&gt;Node6</title>
<g id="a_edge6_Node000001_Node000006"><a xlink:title=" ">
<path fill="none" stroke="#63b8ff" d="M304.22,-169.78C321.78,-160.52 343.65,-149 360.84,-139.94"/>
<polygon fill="#63b8ff" stroke="#63b8ff" points="362.3,-143.13 369.52,-135.37 359.04,-136.94 362.3,-143.13"/>
</a>
</g>
</g>
<!-- Node7 -->
<g id="Node000007" class="node">
<title>Node7</title>
<g id="a_Node000007"><a xlink:href="cfg__usb__otg__fs_8h.html" target="_top" xlink:title="Common configuration for STM32 OTG FS peripheral.">
<polygon fill="white" stroke="#666666" points="555.31,-134.25 457.56,-134.25 457.56,-113.5 555.31,-113.5 555.31,-134.25"/>
<text text-anchor="middle" x="506.44" y="-120.75" font-family="Helvetica,sans-Serif" font-size="10.00">cfg_usb_otg_fs.h</text>
</a>
</g>
</g>
<!-- Node1&#45;&gt;Node7 -->
<g id="edge8_Node000001_Node000007" class="edge">
<title>Node1&#45;&gt;Node7</title>
<g id="a_edge8_Node000001_Node000007"><a xlink:title=" ">
<path fill="none" stroke="#63b8ff" d="M334.96,-169.86C373.4,-159.77 422.21,-146.97 457.92,-137.6"/>
<polygon fill="#63b8ff" stroke="#63b8ff" points="458.77,-141 467.56,-135.08 456.99,-134.23 458.77,-141"/>
</a>
</g>
</g>
<!-- Node10 -->
<g id="Node000010" class="node">
<title>Node10</title>
<g id="a_Node000010"><a xlink:href="mii_8h.html" target="_top" xlink:title="Interface definition for MII/RMII h.">
<polygon fill="white" stroke="#666666" points="648.81,-134.25 608.06,-134.25 608.06,-113.5 648.81,-113.5 648.81,-134.25"/>
<text text-anchor="middle" x="628.44" y="-120.75" font-family="Helvetica,sans-Serif" font-size="10.00">mii.h</text>
</a>
</g>
</g>
<!-- Node1&#45;&gt;Node10 -->
<g id="edge12_Node000001_Node000010" class="edge">
<title>Node1&#45;&gt;Node10</title>
<g id="a_edge12_Node000001_Node000010"><a xlink:title=" ">
<path fill="none" stroke="#63b8ff" d="M334.87,-175.42C410.99,-162.32 537.82,-140.48 596.66,-130.35"/>
<polygon fill="#63b8ff" stroke="#63b8ff" points="597.06,-133.83 606.32,-128.68 595.87,-126.93 597.06,-133.83"/>
</a>
</g>
</g>
<!-- Node4&#45;&gt;Node2 -->
<g id="edge4_Node000004_Node000002" class="edge">
<title>Node4&#45;&gt;Node2</title>
<g id="a_edge4_Node000004_Node000002"><a xlink:title=" ">
<path fill="none" stroke="#63b8ff" d="M171.82,-113.09C189.41,-104.64 215.06,-92.32 235.07,-82.71"/>
<polygon fill="#63b8ff" stroke="#63b8ff" points="236.37,-85.97 243.87,-78.48 233.34,-79.66 236.37,-85.97"/>
</a>
</g>
</g>
<!-- Node6&#45;&gt;Node2 -->
<g id="edge7_Node000006_Node000002" class="edge">
<title>Node6&#45;&gt;Node2</title>
<g id="a_edge7_Node000006_Node000002"><a xlink:title=" ">
<path fill="none" stroke="#63b8ff" d="M367.27,-113.09C347.96,-104.56 319.71,-92.09 297.87,-82.44"/>
<polygon fill="#63b8ff" stroke="#63b8ff" points="299.36,-79.28 288.8,-78.44 296.53,-85.68 299.36,-79.28"/>
</a>
</g>
</g>
<!-- Node7&#45;&gt;Node2 -->
<g id="edge9_Node000007_Node000002" class="edge">
<title>Node7&#45;&gt;Node2</title>
<g id="a_edge9_Node000007_Node000002"><a xlink:title=" ">
<path fill="none" stroke="#63b8ff" d="M463.07,-113.02C421.77,-103.64 359.61,-89.52 316.06,-79.63"/>
<polygon fill="#63b8ff" stroke="#63b8ff" points="316.86,-76.22 306.34,-77.42 315.31,-83.04 316.86,-76.22"/>
</a>
</g>
</g>
<!-- Node8 -->
<g id="Node000008" class="node">
<title>Node8</title>
<g id="a_Node000008"><a xlink:href="usbdev__synopsys__dwc2_8h.html" target="_top" xlink:title="Low level USB FS/HS driver definitions for MCUs with Synopsys DWC2 IP core.">
<polygon fill="white" stroke="#666666" points="559.44,-77.5 417.44,-77.5 417.44,-56.75 559.44,-56.75 559.44,-77.5"/>
<text text-anchor="middle" x="488.44" y="-64" font-family="Helvetica,sans-Serif" font-size="10.00">usbdev_synopsys_dwc2.h</text>
</a>
</g>
</g>
<!-- Node7&#45;&gt;Node8 -->
<g id="edge10_Node000007_Node000008" class="edge">
<title>Node7&#45;&gt;Node8</title>
<g id="a_edge10_Node000007_Node000008"><a xlink:title=" ">
<path fill="none" stroke="#63b8ff" d="M503.22,-113.09C500.99,-106.31 497.95,-97.05 495.2,-88.69"/>
<polygon fill="#63b8ff" stroke="#63b8ff" points="498.55,-87.67 492.1,-79.27 491.9,-89.86 498.55,-87.67"/>
</a>
</g>
</g>
<!-- Node9 -->
<g id="Node000009" class="node">
<title>Node9</title>
<g id="a_Node000009"><a xlink:title=" ">
<polygon fill="#e0e0e0" stroke="#999999" points="613.81,-20.75 561.06,-20.75 561.06,0 613.81,0 613.81,-20.75"/>
<text text-anchor="middle" x="587.44" y="-7.25" font-family="Helvetica,sans-Serif" font-size="10.00">stdint.h</text>
</a>
</g>
</g>
<!-- Node8&#45;&gt;Node9 -->
<g id="edge11_Node000008_Node000009" class="edge">
<title>Node8&#45;&gt;Node9</title>
<g id="a_edge11_Node000008_Node000009"><a xlink:title=" ">
<path fill="none" stroke="#63b8ff" d="M506.14,-56.34C521.06,-48.08 542.67,-36.13 559.86,-26.63"/>
<polygon fill="#63b8ff" stroke="#63b8ff" points="561.51,-29.71 568.57,-21.81 558.12,-23.59 561.51,-29.71"/>
</a>
</g>
</g>
<!-- Node10&#45;&gt;Node9 -->
<g id="edge14_Node000010_Node000009" class="edge">
<title>Node10&#45;&gt;Node9</title>
<g id="a_edge14_Node000010_Node000009"><a xlink:title=" ">
<path fill="none" stroke="#63b8ff" d="M623.53,-113.31C619,-104.24 612.25,-90.16 607.44,-77.5 601.69,-62.4 596.45,-44.87 592.78,-31.66"/>
<polygon fill="#63b8ff" stroke="#63b8ff" points="596.26,-31.13 590.27,-22.39 589.5,-32.96 596.26,-31.13"/>
</a>
</g>
</g>
<!-- Node11 -->
<g id="Node000011" class="node">
<title>Node11</title>
<g id="a_Node000011"><a xlink:title=" ">
<polygon fill="#e0e0e0" stroke="#999999" points="676.94,-77.5 615.94,-77.5 615.94,-56.75 676.94,-56.75 676.94,-77.5"/>
<text text-anchor="middle" x="646.44" y="-64" font-family="Helvetica,sans-Serif" font-size="10.00">stdbool.h</text>
</a>
</g>
</g>
<!-- Node10&#45;&gt;Node11 -->
<g id="edge13_Node000010_Node000011" class="edge">
<title>Node10&#45;&gt;Node11</title>
<g id="a_edge13_Node000010_Node000011"><a xlink:title=" ">
<path fill="none" stroke="#63b8ff" d="M631.65,-113.09C633.88,-106.31 636.93,-97.05 639.68,-88.69"/>
<polygon fill="#63b8ff" stroke="#63b8ff" points="642.98,-89.86 642.77,-79.27 636.33,-87.67 642.98,-89.86"/>
</a>
</g>
</g>
<!-- Node12 -->
<g id="Node000012" class="node">
<title>Node12</title>
<g id="a_Node000012"><a xlink:href="bitarithm_8h.html" target="_top" xlink:title="Helper functions for bit arithmetic.">
<polygon fill="white" stroke="#666666" points="765.44,-77.5 695.44,-77.5 695.44,-56.75 765.44,-56.75 765.44,-77.5"/>
<text text-anchor="middle" x="730.44" y="-64" font-family="Helvetica,sans-Serif" font-size="10.00">bitarithm.h</text>
</a>
</g>
</g>
<!-- Node10&#45;&gt;Node12 -->
<g id="edge15_Node000010_Node000012" class="edge">
<title>Node10&#45;&gt;Node12</title>
<g id="a_edge15_Node000010_Node000012"><a xlink:title=" ">
<path fill="none" stroke="#63b8ff" d="M646.67,-113.09C662.12,-104.8 684.52,-92.77 702.27,-83.24"/>
<polygon fill="#63b8ff" stroke="#63b8ff" points="703.87,-86.36 711.03,-78.54 700.56,-80.19 703.87,-86.36"/>
</a>
</g>
</g>
<!-- Node12&#45;&gt;Node9 -->
<g id="edge16_Node000012_Node000009" class="edge">
<title>Node12&#45;&gt;Node9</title>
<g id="a_edge16_Node000012_Node000009"><a xlink:title=" ">
<path fill="none" stroke="#63b8ff" d="M704.87,-56.34C682.2,-47.66 648.84,-34.88 623.46,-25.17"/>
<polygon fill="#63b8ff" stroke="#63b8ff" points="624.78,-21.93 614.19,-21.62 622.28,-28.46 624.78,-21.93"/>
</a>
</g>
</g>
<!-- Node13 -->
<g id="Node000013" class="node">
<title>Node13</title>
<g id="a_Node000013"><a xlink:title=" ">
<polygon fill="#e0e0e0" stroke="#999999" points="764.31,-20.75 696.56,-20.75 696.56,0 764.31,0 764.31,-20.75"/>
<text text-anchor="middle" x="730.44" y="-7.25" font-family="Helvetica,sans-Serif" font-size="10.00">cpu_conf.h</text>
</a>
</g>
</g>
<!-- Node12&#45;&gt;Node13 -->
<g id="edge17_Node000012_Node000013" class="edge">
<title>Node12&#45;&gt;Node13</title>
<g id="a_edge17_Node000012_Node000013"><a xlink:title=" ">
<path fill="none" stroke="#63b8ff" d="M730.44,-56.34C730.44,-49.72 730.44,-40.72 730.44,-32.52"/>
<polygon fill="#63b8ff" stroke="#63b8ff" points="733.94,-32.59 730.44,-22.59 726.94,-32.59 733.94,-32.59"/>
</a>
</g>
</g>
</g>
</svg>
