<?xml version="1.0" encoding="UTF-8" standalone="no"?>
<!DOCTYPE svg PUBLIC "-//W3C//DTD SVG 1.1//EN"
 "http://www.w3.org/Graphics/SVG/1.1/DTD/svg11.dtd">
<!-- Generated by graphviz version 12.1.1 (0)
 -->
<!-- Title: boards/common/arduino&#45;zero/include/periph_conf.h Pages: 1 -->
<svg width="218pt" height="111pt"
 viewBox="0.00 0.00 217.50 111.00" xmlns="http://www.w3.org/2000/svg" xmlns:xlink="http://www.w3.org/1999/xlink">
<g id="graph0" class="graph" transform="scale(1 1) rotate(0) translate(4 107)">
<title>boards/common/arduino&#45;zero/include/periph_conf.h</title>
<!-- Node1 -->
<g id="Node000001" class="node">
<title>Node1</title>
<g id="a_Node000001"><a xlink:title="Configuration of CPU peripherals for Arduino Zero board and clones.">
<polygon fill="#999999" stroke="#666666" points="159.62,-103 25.12,-103 25.12,-56.75 159.62,-56.75 159.62,-103"/>
<text text-anchor="start" x="33.12" y="-89.5" font-family="Helvetica,sans-Serif" font-size="10.00">boards/common/arduino</text>
<text text-anchor="start" x="33.12" y="-76.75" font-family="Helvetica,sans-Serif" font-size="10.00">&#45;zero/include/periph</text>
<text text-anchor="middle" x="92.38" y="-64" font-family="Helvetica,sans-Serif" font-size="10.00">_conf.h</text>
</a>
</g>
</g>
<!-- Node2 -->
<g id="Node000002" class="node">
<title>Node2</title>
<g id="a_Node000002"><a xlink:title=" ">
<polygon fill="#e0e0e0" stroke="#999999" points="52.75,-20.75 0,-20.75 0,0 52.75,0 52.75,-20.75"/>
<text text-anchor="middle" x="26.38" y="-7.25" font-family="Helvetica,sans-Serif" font-size="10.00">stdint.h</text>
</a>
</g>
</g>
<!-- Node1&#45;&gt;Node2 -->
<g id="edge1_Node000001_Node000002" class="edge">
<title>Node1&#45;&gt;Node2</title>
<g id="a_edge1_Node000001_Node000002"><a xlink:title=" ">
<path fill="none" stroke="#63b8ff" d="M70.4,-56.4C61.81,-47.61 52.09,-37.67 43.97,-29.37"/>
<polygon fill="#63b8ff" stroke="#63b8ff" points="46.48,-26.93 36.98,-22.22 41.47,-31.82 46.48,-26.93"/>
</a>
</g>
</g>
<!-- Node3 -->
<g id="Node000003" class="node">
<title>Node3</title>
<g id="a_Node000003"><a xlink:title=" ">
<polygon fill="#e0e0e0" stroke="#999999" points="113.5,-20.75 71.25,-20.75 71.25,0 113.5,0 113.5,-20.75"/>
<text text-anchor="middle" x="92.38" y="-7.25" font-family="Helvetica,sans-Serif" font-size="10.00">cpu.h</text>
</a>
</g>
</g>
<!-- Node1&#45;&gt;Node3 -->
<g id="edge2_Node000001_Node000003" class="edge">
<title>Node1&#45;&gt;Node3</title>
<g id="a_edge2_Node000001_Node000003"><a xlink:title=" ">
<path fill="none" stroke="#63b8ff" d="M92.38,-56.4C92.38,-48.73 92.38,-40.19 92.38,-32.63"/>
<polygon fill="#63b8ff" stroke="#63b8ff" points="95.88,-32.65 92.38,-22.65 88.88,-32.65 95.88,-32.65"/>
</a>
</g>
</g>
<!-- Node4 -->
<g id="Node000004" class="node">
<title>Node4</title>
<g id="a_Node000004"><a xlink:title=" ">
<polygon fill="#e0e0e0" stroke="#999999" points="209.5,-20.75 131.25,-20.75 131.25,0 209.5,0 209.5,-20.75"/>
<text text-anchor="middle" x="170.38" y="-7.25" font-family="Helvetica,sans-Serif" font-size="10.00">periph_cpu.h</text>
</a>
</g>
</g>
<!-- Node1&#45;&gt;Node4 -->
<g id="edge3_Node000001_Node000004" class="edge">
<title>Node1&#45;&gt;Node4</title>
<g id="a_edge3_Node000001_Node000004"><a xlink:title=" ">
<path fill="none" stroke="#63b8ff" d="M118.35,-56.4C128.83,-47.33 140.72,-37.04 150.49,-28.58"/>
<polygon fill="#63b8ff" stroke="#63b8ff" points="152.67,-31.32 157.95,-22.13 148.09,-26.03 152.67,-31.32"/>
</a>
</g>
</g>
</g>
</svg>
