<?xml version="1.0" encoding="UTF-8" standalone="no"?>
<!DOCTYPE svg PUBLIC "-//W3C//DTD SVG 1.1//EN"
 "http://www.w3.org/Graphics/SVG/1.1/DTD/svg11.dtd">
<!-- Generated by graphviz version 12.1.1 (0)
 -->
<!-- Title: boards/olimex&#45;msp430&#45;h1611/include/periph_conf.h Pages: 1 -->
<svg width="254pt" height="181pt"
 viewBox="0.00 0.00 254.00 180.50" xmlns="http://www.w3.org/2000/svg" xmlns:xlink="http://www.w3.org/1999/xlink">
<g id="graph0" class="graph" transform="scale(1 1) rotate(0) translate(4 176.5)">
<title>boards/olimex&#45;msp430&#45;h1611/include/periph_conf.h</title>
<!-- Node1 -->
<g id="Node000001" class="node">
<title>Node1</title>
<g id="a_Node000001"><a xlink:title="Olimex&#45;MSP430&#45;H1611 peripheral configuration.">
<polygon fill="#999999" stroke="#666666" points="128.5,-172.5 0,-172.5 0,-126.25 128.5,-126.25 128.5,-172.5"/>
<text text-anchor="start" x="8" y="-159" font-family="Helvetica,sans-Serif" font-size="10.00">boards/olimex&#45;msp430</text>
<text text-anchor="start" x="8" y="-146.25" font-family="Helvetica,sans-Serif" font-size="10.00">&#45;h1611/include/periph</text>
<text text-anchor="middle" x="64.25" y="-133.5" font-family="Helvetica,sans-Serif" font-size="10.00">_conf.h</text>
</a>
</g>
</g>
<!-- Node2 -->
<g id="Node000002" class="node">
<title>Node2</title>
<g id="a_Node000002"><a xlink:title=" ">
<polygon fill="#e0e0e0" stroke="#999999" points="128.38,-20.75 50.12,-20.75 50.12,0 128.38,0 128.38,-20.75"/>
<text text-anchor="middle" x="89.25" y="-7.25" font-family="Helvetica,sans-Serif" font-size="10.00">periph_cpu.h</text>
</a>
</g>
</g>
<!-- Node1&#45;&gt;Node2 -->
<g id="edge1_Node000001_Node000002" class="edge">
<title>Node1&#45;&gt;Node2</title>
<g id="a_edge1_Node000001_Node000002"><a xlink:title=" ">
<path fill="none" stroke="#63b8ff" d="M36.67,-125.8C17.52,-107.27 -2.31,-80.33 11.25,-56.75 19.23,-42.87 33.27,-32.84 47.26,-25.8"/>
<polygon fill="#63b8ff" stroke="#63b8ff" points="48.33,-29.16 55.97,-21.82 45.42,-22.79 48.33,-29.16"/>
</a>
</g>
</g>
<!-- Node3 -->
<g id="Node000003" class="node">
<title>Node3</title>
<g id="a_Node000003"><a xlink:href="units_8h.html" target="_top" xlink:title="Unit helper macros.">
<polygon fill="white" stroke="#666666" points="108.25,-83.88 20.25,-83.88 20.25,-63.12 108.25,-63.12 108.25,-83.88"/>
<text text-anchor="middle" x="64.25" y="-70.38" font-family="Helvetica,sans-Serif" font-size="10.00">macros/units.h</text>
</a>
</g>
</g>
<!-- Node1&#45;&gt;Node3 -->
<g id="edge2_Node000001_Node000003" class="edge">
<title>Node1&#45;&gt;Node3</title>
<g id="a_edge2_Node000001_Node000003"><a xlink:title=" ">
<path fill="none" stroke="#63b8ff" d="M64.25,-125.81C64.25,-116.24 64.25,-105.15 64.25,-95.73"/>
<polygon fill="#63b8ff" stroke="#63b8ff" points="67.75,-95.74 64.25,-85.74 60.75,-95.74 67.75,-95.74"/>
</a>
</g>
</g>
<!-- Node4 -->
<g id="Node000004" class="node">
<title>Node4</title>
<g id="a_Node000004"><a xlink:href="cfg__timer__a__smclk__b__aclk_8h.html" target="_top" xlink:title="Common timer configuration for TIMER_A clocked by SMCLK and TIMER_B clocked by ACLK.">
<polygon fill="white" stroke="#666666" points="246,-90.25 126.5,-90.25 126.5,-56.75 246,-56.75 246,-90.25"/>
<text text-anchor="start" x="134.5" y="-76.75" font-family="Helvetica,sans-Serif" font-size="10.00">cfg_timer_a_smclk_b</text>
<text text-anchor="middle" x="186.25" y="-64" font-family="Helvetica,sans-Serif" font-size="10.00">_aclk.h</text>
</a>
</g>
</g>
<!-- Node1&#45;&gt;Node4 -->
<g id="edge3_Node000001_Node000004" class="edge">
<title>Node1&#45;&gt;Node4</title>
<g id="a_edge3_Node000001_Node000004"><a xlink:title=" ">
<path fill="none" stroke="#63b8ff" d="M101.52,-125.81C116.92,-116.48 134.72,-105.7 150.02,-96.44"/>
<polygon fill="#63b8ff" stroke="#63b8ff" points="151.62,-99.56 158.36,-91.39 147.99,-93.57 151.62,-99.56"/>
</a>
</g>
</g>
<!-- Node4&#45;&gt;Node2 -->
<g id="edge4_Node000004_Node000002" class="edge">
<title>Node4&#45;&gt;Node2</title>
<g id="a_edge4_Node000004_Node000002"><a xlink:title=" ">
<path fill="none" stroke="#63b8ff" d="M160.51,-56.28C146.24,-47.29 128.57,-36.15 114.39,-27.22"/>
<polygon fill="#63b8ff" stroke="#63b8ff" points="116.39,-24.34 106.07,-21.97 112.66,-30.26 116.39,-24.34"/>
</a>
</g>
</g>
</g>
</svg>
