<?xml version="1.0" encoding="UTF-8" standalone="no"?>
<!DOCTYPE svg PUBLIC "-//W3C//DTD SVG 1.1//EN"
 "http://www.w3.org/Graphics/SVG/1.1/DTD/svg11.dtd">
<!-- Generated by graphviz version 12.1.1 (0)
 -->
<!-- Title: boards/lobaro&#45;lorabox/include/periph_conf.h Pages: 1 -->
<svg width="219pt" height="155pt"
 viewBox="0.00 0.00 219.25 155.00" xmlns="http://www.w3.org/2000/svg" xmlns:xlink="http://www.w3.org/1999/xlink">
<g id="graph0" class="graph" transform="scale(1 1) rotate(0) translate(4 151)">
<title>boards/lobaro&#45;lorabox/include/periph_conf.h</title>
<!-- Node1 -->
<g id="Node000001" class="node">
<title>Node1</title>
<g id="a_Node000001"><a xlink:title="Support for the Lobaro lorabox with stm32l151cb.">
<polygon fill="#999999" stroke="#666666" points="123.25,-147 0,-147 0,-113.5 123.25,-113.5 123.25,-147"/>
<text text-anchor="start" x="8" y="-133.5" font-family="Helvetica,sans-Serif" font-size="10.00">boards/lobaro&#45;lorabox</text>
<text text-anchor="middle" x="61.62" y="-120.75" font-family="Helvetica,sans-Serif" font-size="10.00">/include/periph_conf.h</text>
</a>
</g>
</g>
<!-- Node2 -->
<g id="Node000002" class="node">
<title>Node2</title>
<g id="a_Node000002"><a xlink:title=" ">
<polygon fill="#e0e0e0" stroke="#999999" points="120.75,-20.75 42.5,-20.75 42.5,0 120.75,0 120.75,-20.75"/>
<text text-anchor="middle" x="81.62" y="-7.25" font-family="Helvetica,sans-Serif" font-size="10.00">periph_cpu.h</text>
</a>
</g>
</g>
<!-- Node1&#45;&gt;Node2 -->
<g id="edge1_Node000001_Node000002" class="edge">
<title>Node1&#45;&gt;Node2</title>
<g id="a_edge1_Node000001_Node000002"><a xlink:title=" ">
<path fill="none" stroke="#63b8ff" d="M42.23,-113.09C27.28,-98.55 10.69,-76.52 20.62,-56.75 26.9,-44.25 38.44,-34.33 49.8,-26.99"/>
<polygon fill="#63b8ff" stroke="#63b8ff" points="51.46,-30.07 58.3,-21.97 47.91,-24.04 51.46,-30.07"/>
</a>
</g>
</g>
<!-- Node3 -->
<g id="Node000003" class="node">
<title>Node3</title>
<g id="a_Node000003"><a xlink:title=" ">
<polygon fill="#e0e0e0" stroke="#999999" points="94,-77.5 29.25,-77.5 29.25,-56.75 94,-56.75 94,-77.5"/>
<text text-anchor="middle" x="61.62" y="-64" font-family="Helvetica,sans-Serif" font-size="10.00">clk_conf.h</text>
</a>
</g>
</g>
<!-- Node1&#45;&gt;Node3 -->
<g id="edge2_Node000001_Node000003" class="edge">
<title>Node1&#45;&gt;Node3</title>
<g id="a_edge2_Node000001_Node000003"><a xlink:title=" ">
<path fill="none" stroke="#63b8ff" d="M61.62,-113.19C61.62,-105.85 61.62,-97.07 61.62,-89.21"/>
<polygon fill="#63b8ff" stroke="#63b8ff" points="65.13,-89.48 61.63,-79.48 58.13,-89.48 65.13,-89.48"/>
</a>
</g>
</g>
<!-- Node4 -->
<g id="Node000004" class="node">
<title>Node4</title>
<g id="a_Node000004"><a xlink:href="cfg__timer__tim2_8h.html" target="_top" xlink:title="Common configuration for STM32 Timer peripheral based on TIM2.">
<polygon fill="white" stroke="#666666" points="211.25,-77.5 112,-77.5 112,-56.75 211.25,-56.75 211.25,-77.5"/>
<text text-anchor="middle" x="161.62" y="-64" font-family="Helvetica,sans-Serif" font-size="10.00">cfg_timer_tim2.h</text>
</a>
</g>
</g>
<!-- Node1&#45;&gt;Node4 -->
<g id="edge3_Node000001_Node000004" class="edge">
<title>Node1&#45;&gt;Node4</title>
<g id="a_edge3_Node000001_Node000004"><a xlink:title=" ">
<path fill="none" stroke="#63b8ff" d="M88.16,-113.03C103.02,-103.95 121.45,-92.68 136.13,-83.71"/>
<polygon fill="#63b8ff" stroke="#63b8ff" points="137.61,-86.91 144.32,-78.7 133.96,-80.93 137.61,-86.91"/>
</a>
</g>
</g>
<!-- Node4&#45;&gt;Node2 -->
<g id="edge4_Node000004_Node000002" class="edge">
<title>Node4&#45;&gt;Node2</title>
<g id="a_edge4_Node000004_Node000002"><a xlink:title=" ">
<path fill="none" stroke="#63b8ff" d="M147.32,-56.34C135.61,-48.32 118.79,-36.81 105.1,-27.44"/>
<polygon fill="#63b8ff" stroke="#63b8ff" points="107.28,-24.69 97.05,-21.93 103.33,-30.47 107.28,-24.69"/>
</a>
</g>
</g>
</g>
</svg>
