<?xml version="1.0" encoding="UTF-8" standalone="no"?>
<!DOCTYPE svg PUBLIC "-//W3C//DTD SVG 1.1//EN"
 "http://www.w3.org/Graphics/SVG/1.1/DTD/svg11.dtd">
<!-- Generated by graphviz version 12.1.1 (0)
 -->
<!-- Title: drivers/bq2429x/include/bq2429x_params.h Pages: 1 -->
<svg width="673pt" height="325pt"
 viewBox="0.00 0.00 672.56 325.25" xmlns="http://www.w3.org/2000/svg" xmlns:xlink="http://www.w3.org/1999/xlink">
<g id="graph0" class="graph" transform="scale(1 1) rotate(0) translate(4 321.25)">
<title>drivers/bq2429x/include/bq2429x_params.h</title>
<!-- Node1 -->
<g id="Node000001" class="node">
<title>Node1</title>
<g id="a_Node000001"><a xlink:title="Default configuration for BQ2429x power ICs.">
<polygon fill="#999999" stroke="#666666" points="212.94,-317.25 79.94,-317.25 79.94,-283.75 212.94,-283.75 212.94,-317.25"/>
<text text-anchor="start" x="87.94" y="-303.75" font-family="Helvetica,sans-Serif" font-size="10.00">drivers/bq2429x/include</text>
<text text-anchor="middle" x="146.44" y="-291" font-family="Helvetica,sans-Serif" font-size="10.00">/bq2429x_params.h</text>
</a>
</g>
</g>
<!-- Node2 -->
<g id="Node000002" class="node">
<title>Node2</title>
<g id="a_Node000002"><a xlink:title=" ">
<polygon fill="#e0e0e0" stroke="#999999" points="133.81,-247.75 81.06,-247.75 81.06,-227 133.81,-227 133.81,-247.75"/>
<text text-anchor="middle" x="107.44" y="-234.25" font-family="Helvetica,sans-Serif" font-size="10.00">board.h</text>
</a>
</g>
</g>
<!-- Node1&#45;&gt;Node2 -->
<g id="edge1_Node000001_Node000002" class="edge">
<title>Node1&#45;&gt;Node2</title>
<g id="a_edge1_Node000001_Node000002"><a xlink:title=" ">
<path fill="none" stroke="#63b8ff" d="M136.19,-283.44C131.18,-275.58 125.1,-266.06 119.83,-257.79"/>
<polygon fill="#63b8ff" stroke="#63b8ff" points="122.86,-256.04 114.53,-249.49 116.96,-259.81 122.86,-256.04"/>
</a>
</g>
</g>
<!-- Node3 -->
<g id="Node000003" class="node">
<title>Node3</title>
<g id="a_Node000003"><a xlink:href="bq2429x_8h.html" target="_top" xlink:title="Device driver interface for the BQ2429x Single&#45;Cell USB Charger.">
<polygon fill="white" stroke="#666666" points="218.94,-247.75 151.94,-247.75 151.94,-227 218.94,-227 218.94,-247.75"/>
<text text-anchor="middle" x="185.44" y="-234.25" font-family="Helvetica,sans-Serif" font-size="10.00">bq2429x.h</text>
</a>
</g>
</g>
<!-- Node1&#45;&gt;Node3 -->
<g id="edge2_Node000001_Node000003" class="edge">
<title>Node1&#45;&gt;Node3</title>
<g id="a_edge2_Node000001_Node000003"><a xlink:title=" ">
<path fill="none" stroke="#63b8ff" d="M156.68,-283.44C161.7,-275.58 167.78,-266.06 173.05,-257.79"/>
<polygon fill="#63b8ff" stroke="#63b8ff" points="175.92,-259.81 178.34,-249.49 170.02,-256.04 175.92,-259.81"/>
</a>
</g>
</g>
<!-- Node4 -->
<g id="Node000004" class="node">
<title>Node4</title>
<g id="a_Node000004"><a xlink:title=" ">
<polygon fill="#e0e0e0" stroke="#999999" points="218.81,-20.75 166.06,-20.75 166.06,0 218.81,0 218.81,-20.75"/>
<text text-anchor="middle" x="192.44" y="-7.25" font-family="Helvetica,sans-Serif" font-size="10.00">stdint.h</text>
</a>
</g>
</g>
<!-- Node3&#45;&gt;Node4 -->
<g id="edge3_Node000003_Node000004" class="edge">
<title>Node3&#45;&gt;Node4</title>
<g id="a_edge3_Node000003_Node000004"><a xlink:title=" ">
<path fill="none" stroke="#63b8ff" d="M151.6,-227.57C116.77,-218.08 65.28,-202.77 48.44,-191 15.79,-168.18 -9.04,-151.33 3.44,-113.5 13.27,-83.7 19.84,-74.89 45.44,-56.75 78.24,-33.51 123.28,-21.91 154.84,-16.3"/>
<polygon fill="#63b8ff" stroke="#63b8ff" points="155.01,-19.82 164.31,-14.74 153.88,-12.91 155.01,-19.82"/>
</a>
</g>
</g>
<!-- Node5 -->
<g id="Node000005" class="node">
<title>Node5</title>
<g id="a_Node000005"><a xlink:title=" ">
<polygon fill="#e0e0e0" stroke="#999999" points="118.94,-191 57.94,-191 57.94,-170.25 118.94,-170.25 118.94,-191"/>
<text text-anchor="middle" x="88.44" y="-177.5" font-family="Helvetica,sans-Serif" font-size="10.00">stdbool.h</text>
</a>
</g>
</g>
<!-- Node3&#45;&gt;Node5 -->
<g id="edge4_Node000003_Node000005" class="edge">
<title>Node3&#45;&gt;Node5</title>
<g id="a_edge4_Node000003_Node000005"><a xlink:title=" ">
<path fill="none" stroke="#63b8ff" d="M168.1,-226.59C153.48,-218.33 132.3,-206.38 115.46,-196.88"/>
<polygon fill="#63b8ff" stroke="#63b8ff" points="117.38,-193.94 106.95,-192.07 113.94,-200.04 117.38,-193.94"/>
</a>
</g>
</g>
<!-- Node6 -->
<g id="Node000006" class="node">
<title>Node6</title>
<g id="a_Node000006"><a xlink:href="kernel__defines_8h.html" target="_top" xlink:title="Common macros and compiler attributes/pragmas configuration.">
<polygon fill="white" stroke="#666666" points="233.56,-191 137.31,-191 137.31,-170.25 233.56,-170.25 233.56,-191"/>
<text text-anchor="middle" x="185.44" y="-177.5" font-family="Helvetica,sans-Serif" font-size="10.00">kernel_defines.h</text>
</a>
</g>
</g>
<!-- Node3&#45;&gt;Node6 -->
<g id="edge5_Node000003_Node000006" class="edge">
<title>Node3&#45;&gt;Node6</title>
<g id="a_edge5_Node000003_Node000006"><a xlink:title=" ">
<path fill="none" stroke="#63b8ff" d="M185.44,-226.59C185.44,-219.97 185.44,-210.97 185.44,-202.77"/>
<polygon fill="#63b8ff" stroke="#63b8ff" points="188.94,-202.84 185.44,-192.84 181.94,-202.84 188.94,-202.84"/>
</a>
</g>
</g>
<!-- Node13 -->
<g id="Node000013" class="node">
<title>Node13</title>
<g id="a_Node000013"><a xlink:href="i2c_8h.html" target="_top" xlink:title="Low&#45;level I2C peripheral driver interface definition.">
<polygon fill="white" stroke="#666666" points="435.94,-191 362.94,-191 362.94,-170.25 435.94,-170.25 435.94,-191"/>
<text text-anchor="middle" x="399.44" y="-177.5" font-family="Helvetica,sans-Serif" font-size="10.00">periph/i2c.h</text>
</a>
</g>
</g>
<!-- Node3&#45;&gt;Node13 -->
<g id="edge16_Node000003_Node000013" class="edge">
<title>Node3&#45;&gt;Node13</title>
<g id="a_edge16_Node000003_Node000013"><a xlink:title=" ">
<path fill="none" stroke="#63b8ff" d="M219.35,-227.7C254.93,-218.6 311.17,-204.21 351.33,-193.93"/>
<polygon fill="#63b8ff" stroke="#63b8ff" points="352.17,-197.33 360.99,-191.46 350.44,-190.55 352.17,-197.33"/>
</a>
</g>
</g>
<!-- Node17 -->
<g id="Node000017" class="node">
<title>Node17</title>
<g id="a_Node000017"><a xlink:href="drivers_2include_2periph_2gpio_8h.html" target="_top" xlink:title="Low&#45;level GPIO peripheral driver interface definitions.">
<polygon fill="white" stroke="#666666" points="555.31,-191 475.56,-191 475.56,-170.25 555.31,-170.25 555.31,-191"/>
<text text-anchor="middle" x="515.44" y="-177.5" font-family="Helvetica,sans-Serif" font-size="10.00">periph/gpio.h</text>
</a>
</g>
</g>
<!-- Node3&#45;&gt;Node17 -->
<g id="edge22_Node000003_Node000017" class="edge">
<title>Node3&#45;&gt;Node17</title>
<g id="a_edge22_Node000003_Node000017"><a xlink:title=" ">
<path fill="none" stroke="#63b8ff" d="M219.2,-230.77C277.05,-221.18 395.45,-201.53 463.75,-190.2"/>
<polygon fill="#63b8ff" stroke="#63b8ff" points="464.29,-193.66 473.58,-188.57 463.14,-186.75 464.29,-193.66"/>
</a>
</g>
</g>
<!-- Node7 -->
<g id="Node000007" class="node">
<title>Node7</title>
<g id="a_Node000007"><a xlink:href="modules_8h.html" target="_top" xlink:title="Common macros and compiler attributes/pragmas configuration.">
<polygon fill="white" stroke="#666666" points="79.94,-134.25 12.94,-134.25 12.94,-113.5 79.94,-113.5 79.94,-134.25"/>
<text text-anchor="middle" x="46.44" y="-120.75" font-family="Helvetica,sans-Serif" font-size="10.00">modules.h</text>
</a>
</g>
</g>
<!-- Node6&#45;&gt;Node7 -->
<g id="edge6_Node000006_Node000007" class="edge">
<title>Node6&#45;&gt;Node7</title>
<g id="a_edge6_Node000006_Node000007"><a xlink:title=" ">
<path fill="none" stroke="#63b8ff" d="M160.59,-169.84C138.55,-161.16 106.12,-148.38 81.46,-138.67"/>
<polygon fill="#63b8ff" stroke="#63b8ff" points="83.07,-135.54 72.48,-135.13 80.5,-142.05 83.07,-135.54"/>
</a>
</g>
</g>
<!-- Node8 -->
<g id="Node000008" class="node">
<title>Node8</title>
<g id="a_Node000008"><a xlink:href="riot__version_8h.html" target="_top" xlink:title="Common macros and compiler attributes/pragmas configuration.">
<polygon fill="white" stroke="#666666" points="136.81,-77.5 54.06,-77.5 54.06,-56.75 136.81,-56.75 136.81,-77.5"/>
<text text-anchor="middle" x="95.44" y="-64" font-family="Helvetica,sans-Serif" font-size="10.00">riot_version.h</text>
</a>
</g>
</g>
<!-- Node6&#45;&gt;Node8 -->
<g id="edge7_Node000006_Node000008" class="edge">
<title>Node6&#45;&gt;Node8</title>
<g id="a_edge7_Node000006_Node000008"><a xlink:title=" ">
<path fill="none" stroke="#63b8ff" d="M169.27,-169.91C156.61,-161.67 139.24,-148.88 127.44,-134.25 116.3,-120.45 107.82,-102.13 102.4,-88.27"/>
<polygon fill="#63b8ff" stroke="#63b8ff" points="105.83,-87.47 99.09,-79.3 99.27,-89.89 105.83,-87.47"/>
</a>
</g>
</g>
<!-- Node9 -->
<g id="Node000009" class="node">
<title>Node9</title>
<g id="a_Node000009"><a xlink:href="compiler__hints_8h.html" target="_top" xlink:title="Common macros and compiler attributes/pragmas configuration.">
<polygon fill="white" stroke="#666666" points="233.94,-134.25 136.94,-134.25 136.94,-113.5 233.94,-113.5 233.94,-134.25"/>
<text text-anchor="middle" x="185.44" y="-120.75" font-family="Helvetica,sans-Serif" font-size="10.00">compiler_hints.h</text>
</a>
</g>
</g>
<!-- Node6&#45;&gt;Node9 -->
<g id="edge9_Node000006_Node000009" class="edge">
<title>Node6&#45;&gt;Node9</title>
<g id="a_edge9_Node000006_Node000009"><a xlink:title=" ">
<path fill="none" stroke="#63b8ff" d="M185.44,-169.84C185.44,-163.22 185.44,-154.22 185.44,-146.02"/>
<polygon fill="#63b8ff" stroke="#63b8ff" points="188.94,-146.09 185.44,-136.09 181.94,-146.09 188.94,-146.09"/>
</a>
</g>
</g>
<!-- Node11 -->
<g id="Node000011" class="node">
<title>Node11</title>
<g id="a_Node000011"><a xlink:href="container_8h.html" target="_top" xlink:title="Common macros and compiler attributes/pragmas configuration.">
<polygon fill="white" stroke="#666666" points="322.81,-134.25 252.06,-134.25 252.06,-113.5 322.81,-113.5 322.81,-134.25"/>
<text text-anchor="middle" x="287.44" y="-120.75" font-family="Helvetica,sans-Serif" font-size="10.00">container.h</text>
</a>
</g>
</g>
<!-- Node6&#45;&gt;Node11 -->
<g id="edge13_Node000006_Node000011" class="edge">
<title>Node6&#45;&gt;Node11</title>
<g id="a_edge13_Node000006_Node000011"><a xlink:title=" ">
<path fill="none" stroke="#63b8ff" d="M203.67,-169.84C219.12,-161.55 241.52,-149.52 259.27,-139.99"/>
<polygon fill="#63b8ff" stroke="#63b8ff" points="260.87,-143.11 268.03,-135.29 257.56,-136.94 260.87,-143.11"/>
</a>
</g>
</g>
<!-- Node8&#45;&gt;Node4 -->
<g id="edge8_Node000008_Node000004" class="edge">
<title>Node8&#45;&gt;Node4</title>
<g id="a_edge8_Node000008_Node000004"><a xlink:title=" ">
<path fill="none" stroke="#63b8ff" d="M112.78,-56.34C127.4,-48.08 148.57,-36.13 165.42,-26.63"/>
<polygon fill="#63b8ff" stroke="#63b8ff" points="166.94,-29.79 173.93,-21.82 163.5,-23.69 166.94,-29.79"/>
</a>
</g>
</g>
<!-- Node9&#45;&gt;Node4 -->
<g id="edge12_Node000009_Node000004" class="edge">
<title>Node9&#45;&gt;Node4</title>
<g id="a_edge12_Node000009_Node000004"><a xlink:title=" ">
<path fill="none" stroke="#63b8ff" d="M184.69,-113.44C183.81,-100.59 182.68,-76.88 184.44,-56.75 185.14,-48.69 186.54,-39.91 187.97,-32.25"/>
<polygon fill="#63b8ff" stroke="#63b8ff" points="191.39,-33.02 189.93,-22.53 184.52,-31.64 191.39,-33.02"/>
</a>
</g>
</g>
<!-- Node10 -->
<g id="Node000010" class="node">
<title>Node10</title>
<g id="a_Node000010"><a xlink:href="assert_8h.html" target="_top" xlink:title="POSIX.1&#45;2008 compliant version of the assert macro.">
<polygon fill="white" stroke="#666666" points="247.94,-77.5 192.94,-77.5 192.94,-56.75 247.94,-56.75 247.94,-77.5"/>
<text text-anchor="middle" x="220.44" y="-64" font-family="Helvetica,sans-Serif" font-size="10.00">assert.h</text>
</a>
</g>
</g>
<!-- Node9&#45;&gt;Node10 -->
<g id="edge10_Node000009_Node000010" class="edge">
<title>Node9&#45;&gt;Node10</title>
<g id="a_edge10_Node000009_Node000010"><a xlink:title=" ">
<path fill="none" stroke="#63b8ff" d="M191.7,-113.09C196.27,-105.92 202.63,-95.98 208.21,-87.26"/>
<polygon fill="#63b8ff" stroke="#63b8ff" points="210.98,-89.41 213.42,-79.1 205.08,-85.64 210.98,-89.41"/>
</a>
</g>
</g>
<!-- Node10&#45;&gt;Node4 -->
<g id="edge11_Node000010_Node000004" class="edge">
<title>Node10&#45;&gt;Node4</title>
<g id="a_edge11_Node000010_Node000004"><a xlink:title=" ">
<path fill="none" stroke="#63b8ff" d="M215.43,-56.34C211.85,-49.33 206.9,-39.66 202.51,-31.08"/>
<polygon fill="#63b8ff" stroke="#63b8ff" points="205.76,-29.74 198.09,-22.43 199.53,-32.92 205.76,-29.74"/>
</a>
</g>
</g>
<!-- Node11&#45;&gt;Node4 -->
<g id="edge15_Node000011_Node000004" class="edge">
<title>Node11&#45;&gt;Node4</title>
<g id="a_edge15_Node000011_Node000004"><a xlink:title=" ">
<path fill="none" stroke="#63b8ff" d="M284.78,-113.01C280.68,-99.23 271.78,-74 257.44,-56.75 247.61,-44.93 233.98,-34.78 221.74,-27.1"/>
<polygon fill="#63b8ff" stroke="#63b8ff" points="223.58,-24.13 213.2,-22.02 220,-30.14 223.58,-24.13"/>
</a>
</g>
</g>
<!-- Node12 -->
<g id="Node000012" class="node">
<title>Node12</title>
<g id="a_Node000012"><a xlink:title=" ">
<polygon fill="#e0e0e0" stroke="#999999" points="359.94,-77.5 304.94,-77.5 304.94,-56.75 359.94,-56.75 359.94,-77.5"/>
<text text-anchor="middle" x="332.44" y="-64" font-family="Helvetica,sans-Serif" font-size="10.00">stddef.h</text>
</a>
</g>
</g>
<!-- Node11&#45;&gt;Node12 -->
<g id="edge14_Node000011_Node000012" class="edge">
<title>Node11&#45;&gt;Node12</title>
<g id="a_edge14_Node000011_Node000012"><a xlink:title=" ">
<path fill="none" stroke="#63b8ff" d="M295.48,-113.09C301.5,-105.77 309.9,-95.54 317.18,-86.69"/>
<polygon fill="#63b8ff" stroke="#63b8ff" points="319.86,-88.95 323.5,-79 314.45,-84.5 319.86,-88.95"/>
</a>
</g>
</g>
<!-- Node13&#45;&gt;Node4 -->
<g id="edge17_Node000013_Node000004" class="edge">
<title>Node13&#45;&gt;Node4</title>
<g id="a_edge17_Node000013_Node000004"><a xlink:title=" ">
<path fill="none" stroke="#63b8ff" d="M400.14,-170.08C401.28,-147.14 400.78,-88.45 369.44,-56.75 350.2,-37.29 276.54,-23.46 230.52,-16.5"/>
<polygon fill="#63b8ff" stroke="#63b8ff" points="231.08,-13.04 220.68,-15.06 230.07,-19.97 231.08,-13.04"/>
</a>
</g>
</g>
<!-- Node13&#45;&gt;Node12 -->
<g id="edge18_Node000013_Node000012" class="edge">
<title>Node13&#45;&gt;Node12</title>
<g id="a_edge18_Node000013_Node000012"><a xlink:title=" ">
<path fill="none" stroke="#63b8ff" d="M393.73,-170.12C382.8,-151.94 358.76,-111.92 344.24,-87.77"/>
<polygon fill="#63b8ff" stroke="#63b8ff" points="347.26,-85.99 339.11,-79.22 341.26,-89.6 347.26,-85.99"/>
</a>
</g>
</g>
<!-- Node14 -->
<g id="Node000014" class="node">
<title>Node14</title>
<g id="a_Node000014"><a xlink:title=" ">
<polygon fill="#e0e0e0" stroke="#999999" points="468.81,-134.25 416.06,-134.25 416.06,-113.5 468.81,-113.5 468.81,-134.25"/>
<text text-anchor="middle" x="442.44" y="-120.75" font-family="Helvetica,sans-Serif" font-size="10.00">limits.h</text>
</a>
</g>
</g>
<!-- Node13&#45;&gt;Node14 -->
<g id="edge19_Node000013_Node000014" class="edge">
<title>Node13&#45;&gt;Node14</title>
<g id="a_edge19_Node000013_Node000014"><a xlink:title=" ">
<path fill="none" stroke="#63b8ff" d="M407.13,-169.84C412.87,-162.52 420.91,-152.29 427.86,-143.44"/>
<polygon fill="#63b8ff" stroke="#63b8ff" points="430.46,-145.8 433.88,-135.77 424.95,-141.47 430.46,-145.8"/>
</a>
</g>
</g>
<!-- Node15 -->
<g id="Node000015" class="node">
<title>Node15</title>
<g id="a_Node000015"><a xlink:title=" ">
<polygon fill="#e0e0e0" stroke="#999999" points="568.06,-134.25 486.81,-134.25 486.81,-113.5 568.06,-113.5 568.06,-134.25"/>
<text text-anchor="middle" x="527.44" y="-120.75" font-family="Helvetica,sans-Serif" font-size="10.00">periph_conf.h</text>
</a>
</g>
</g>
<!-- Node13&#45;&gt;Node15 -->
<g id="edge20_Node000013_Node000015" class="edge">
<title>Node13&#45;&gt;Node15</title>
<g id="a_edge20_Node000013_Node000015"><a xlink:title=" ">
<path fill="none" stroke="#63b8ff" d="M422.32,-169.84C442.34,-161.27 471.68,-148.73 494.27,-139.06"/>
<polygon fill="#63b8ff" stroke="#63b8ff" points="495.54,-142.32 503.36,-135.17 492.79,-135.89 495.54,-142.32"/>
</a>
</g>
</g>
<!-- Node16 -->
<g id="Node000016" class="node">
<title>Node16</title>
<g id="a_Node000016"><a xlink:title=" ">
<polygon fill="#e0e0e0" stroke="#999999" points="664.56,-134.25 586.31,-134.25 586.31,-113.5 664.56,-113.5 664.56,-134.25"/>
<text text-anchor="middle" x="625.44" y="-120.75" font-family="Helvetica,sans-Serif" font-size="10.00">periph_cpu.h</text>
</a>
</g>
</g>
<!-- Node13&#45;&gt;Node16 -->
<g id="edge21_Node000013_Node000016" class="edge">
<title>Node13&#45;&gt;Node16</title>
<g id="a_edge21_Node000013_Node000016"><a xlink:title=" ">
<path fill="none" stroke="#63b8ff" d="M436.25,-170.71C473.95,-161.57 532.81,-147.31 574.87,-137.13"/>
<polygon fill="#63b8ff" stroke="#63b8ff" points="575.61,-140.55 584.51,-134.79 573.97,-133.74 575.61,-140.55"/>
</a>
</g>
</g>
<!-- Node17&#45;&gt;Node14 -->
<g id="edge23_Node000017_Node000014" class="edge">
<title>Node17&#45;&gt;Node14</title>
<g id="a_edge23_Node000017_Node000014"><a xlink:title=" ">
<path fill="none" stroke="#63b8ff" d="M502.39,-169.84C491.8,-161.9 476.64,-150.53 464.22,-141.21"/>
<polygon fill="#63b8ff" stroke="#63b8ff" points="466.69,-138.69 456.59,-135.49 462.49,-144.29 466.69,-138.69"/>
</a>
</g>
</g>
<!-- Node17&#45;&gt;Node15 -->
<g id="edge25_Node000017_Node000015" class="edge">
<title>Node17&#45;&gt;Node15</title>
<g id="a_edge25_Node000017_Node000015"><a xlink:title=" ">
<path fill="none" stroke="#63b8ff" d="M517.58,-169.84C519.05,-163.14 521.05,-154.01 522.87,-145.73"/>
<polygon fill="#63b8ff" stroke="#63b8ff" points="526.27,-146.57 524.99,-136.06 519.43,-145.08 526.27,-146.57"/>
</a>
</g>
</g>
<!-- Node17&#45;&gt;Node16 -->
<g id="edge24_Node000017_Node000016" class="edge">
<title>Node17&#45;&gt;Node16</title>
<g id="a_edge24_Node000017_Node000016"><a xlink:title=" ">
<path fill="none" stroke="#63b8ff" d="M535.1,-169.84C552,-161.43 576.6,-149.18 595.87,-139.59"/>
<polygon fill="#63b8ff" stroke="#63b8ff" points="597.19,-142.84 604.59,-135.25 594.08,-136.58 597.19,-142.84"/>
</a>
</g>
</g>
</g>
</svg>
