<?xml version="1.0" encoding="UTF-8" standalone="no"?>
<!DOCTYPE svg PUBLIC "-//W3C//DTD SVG 1.1//EN"
 "http://www.w3.org/Graphics/SVG/1.1/DTD/svg11.dtd">
<!-- Generated by graphviz version 12.1.1 (0)
 -->
<!-- Title: sys/include/sys/bus.h Pages: 1 -->
<svg width="664pt" height="426pt"
 viewBox="0.00 0.00 664.00 426.00" xmlns="http://www.w3.org/2000/svg" xmlns:xlink="http://www.w3.org/1999/xlink">
<g id="graph0" class="graph" transform="scale(1 1) rotate(0) translate(4 422)">
<title>sys/include/sys/bus.h</title>
<!-- Node1 -->
<g id="Node000001" class="node">
<title>Node1</title>
<g id="a_Node000001"><a xlink:title="This provides System Buses for common events.">
<polygon fill="#999999" stroke="#666666" points="170.75,-418 51.25,-418 51.25,-397.25 170.75,-397.25 170.75,-418"/>
<text text-anchor="middle" x="111" y="-404.5" font-family="Helvetica,sans-Serif" font-size="10.00">sys/include/sys/bus.h</text>
</a>
</g>
</g>
<!-- Node2 -->
<g id="Node000002" class="node">
<title>Node2</title>
<g id="a_Node000002"><a xlink:href="assert_8h.html" target="_top" xlink:title="POSIX.1&#45;2008 compliant version of the assert macro.">
<polygon fill="white" stroke="#666666" points="109.5,-77.5 54.5,-77.5 54.5,-56.75 109.5,-56.75 109.5,-77.5"/>
<text text-anchor="middle" x="82" y="-64" font-family="Helvetica,sans-Serif" font-size="10.00">assert.h</text>
</a>
</g>
</g>
<!-- Node1&#45;&gt;Node2 -->
<g id="edge1_Node000001_Node000002" class="edge">
<title>Node1&#45;&gt;Node2</title>
<g id="a_edge1_Node000001_Node000002"><a xlink:title=" ">
<path fill="none" stroke="#63b8ff" d="M89.07,-396.79C56.72,-380.61 0,-345.11 0,-295.12 0,-295.12 0,-295.12 0,-179.62 0,-139.74 34.47,-104.71 58.71,-85"/>
<polygon fill="#63b8ff" stroke="#63b8ff" points="60.78,-87.82 66.52,-78.91 56.48,-82.3 60.78,-87.82"/>
</a>
</g>
</g>
<!-- Node4 -->
<g id="Node000004" class="node">
<title>Node4</title>
<g id="a_Node000004"><a xlink:href="msg__bus_8h.html" target="_top" xlink:title="Messaging Bus API for inter process message broadcast.">
<polygon fill="white" stroke="#666666" points="256.25,-361.25 187.75,-361.25 187.75,-340.5 256.25,-340.5 256.25,-361.25"/>
<text text-anchor="middle" x="222" y="-347.75" font-family="Helvetica,sans-Serif" font-size="10.00">msg_bus.h</text>
</a>
</g>
</g>
<!-- Node1&#45;&gt;Node4 -->
<g id="edge3_Node000001_Node000004" class="edge">
<title>Node1&#45;&gt;Node4</title>
<g id="a_edge3_Node000001_Node000004"><a xlink:title=" ">
<path fill="none" stroke="#63b8ff" d="M130.84,-396.84C147.89,-388.43 172.72,-376.18 192.16,-366.59"/>
<polygon fill="#63b8ff" stroke="#63b8ff" points="193.55,-369.81 200.97,-362.25 190.45,-363.53 193.55,-369.81"/>
</a>
</g>
</g>
<!-- Node3 -->
<g id="Node000003" class="node">
<title>Node3</title>
<g id="a_Node000003"><a xlink:title=" ">
<polygon fill="#e0e0e0" stroke="#999999" points="325.38,-20.75 272.62,-20.75 272.62,0 325.38,0 325.38,-20.75"/>
<text text-anchor="middle" x="299" y="-7.25" font-family="Helvetica,sans-Serif" font-size="10.00">stdint.h</text>
</a>
</g>
</g>
<!-- Node2&#45;&gt;Node3 -->
<g id="edge2_Node000002_Node000003" class="edge">
<title>Node2&#45;&gt;Node3</title>
<g id="a_edge2_Node000002_Node000003"><a xlink:title=" ">
<path fill="none" stroke="#63b8ff" d="M109.92,-59.08C148.49,-49.35 218.16,-31.77 261.31,-20.88"/>
<polygon fill="#63b8ff" stroke="#63b8ff" points="261.9,-24.35 270.74,-18.51 260.18,-17.56 261.9,-24.35"/>
</a>
</g>
</g>
<!-- Node4&#45;&gt;Node2 -->
<g id="edge4_Node000004_Node000002" class="edge">
<title>Node4&#45;&gt;Node2</title>
<g id="a_edge4_Node000004_Node000002"><a xlink:title=" ">
<path fill="none" stroke="#63b8ff" d="M187.39,-344.85C134.09,-334.93 38,-307.48 38,-238.38 38,-238.38 38,-238.38 38,-179.62 38,-145.27 56.3,-108.85 69.3,-87.32"/>
<polygon fill="#63b8ff" stroke="#63b8ff" points="72.14,-89.37 74.51,-79.04 66.22,-85.64 72.14,-89.37"/>
</a>
</g>
</g>
<!-- Node4&#45;&gt;Node3 -->
<g id="edge5_Node000004_Node000003" class="edge">
<title>Node4&#45;&gt;Node3</title>
<g id="a_edge5_Node000004_Node000003"><a xlink:title=" ">
<path fill="none" stroke="#63b8ff" d="M256.42,-348.42C359.07,-343.13 656,-320.74 656,-238.38 656,-238.38 656,-238.38 656,-122.88 656,-73.24 611.7,-76.12 566,-56.75 488.93,-24.08 389.92,-14.9 336.76,-12.35"/>
<polygon fill="#63b8ff" stroke="#63b8ff" points="337.17,-8.86 327.03,-11.94 336.88,-15.85 337.17,-8.86"/>
</a>
</g>
</g>
<!-- Node5 -->
<g id="Node000005" class="node">
<title>Node5</title>
<g id="a_Node000005"><a xlink:href="list_8h.html" target="_top" xlink:title="Intrusive linked list.">
<polygon fill="white" stroke="#666666" points="434,-134.25 394,-134.25 394,-113.5 434,-113.5 434,-134.25"/>
<text text-anchor="middle" x="414" y="-120.75" font-family="Helvetica,sans-Serif" font-size="10.00">list.h</text>
</a>
</g>
</g>
<!-- Node4&#45;&gt;Node5 -->
<g id="edge6_Node000004_Node000005" class="edge">
<title>Node4&#45;&gt;Node5</title>
<g id="a_edge6_Node000004_Node000005"><a xlink:title=" ">
<path fill="none" stroke="#63b8ff" d="M219.63,-340.23C212.98,-310.68 197.38,-220.42 241,-170.25 282,-123.09 317.63,-149.26 382.64,-134.48"/>
<polygon fill="#63b8ff" stroke="#63b8ff" points="383.5,-137.87 392.31,-131.98 381.75,-131.09 383.5,-137.87"/>
</a>
</g>
</g>
<!-- Node6 -->
<g id="Node000006" class="node">
<title>Node6</title>
<g id="a_Node000006"><a xlink:href="core_2include_2msg_8h.html" target="_top" xlink:title="Messaging API for inter process communication.">
<polygon fill="white" stroke="#666666" points="531,-304.5 485,-304.5 485,-283.75 531,-283.75 531,-304.5"/>
<text text-anchor="middle" x="508" y="-291" font-family="Helvetica,sans-Serif" font-size="10.00">msg.h</text>
</a>
</g>
</g>
<!-- Node4&#45;&gt;Node6 -->
<g id="edge7_Node000004_Node000006" class="edge">
<title>Node4&#45;&gt;Node6</title>
<g id="a_edge7_Node000004_Node000006"><a xlink:title=" ">
<path fill="none" stroke="#63b8ff" d="M256.5,-343.27C311.45,-332.75 418.25,-312.31 473.32,-301.76"/>
<polygon fill="#63b8ff" stroke="#63b8ff" points="473.91,-305.21 483.08,-299.9 472.6,-298.34 473.91,-305.21"/>
</a>
</g>
</g>
<!-- Node6&#45;&gt;Node3 -->
<g id="edge8_Node000006_Node000003" class="edge">
<title>Node6&#45;&gt;Node3</title>
<g id="a_edge8_Node000006_Node000003"><a xlink:title=" ">
<path fill="none" stroke="#63b8ff" d="M529.47,-283.37C561.48,-267.18 618,-231.52 618,-181.62 618,-181.62 618,-181.62 618,-122.88 618,-63.9 421.26,-28.79 336.79,-16.43"/>
<polygon fill="#63b8ff" stroke="#63b8ff" points="337.54,-13 327.15,-15.05 336.55,-19.93 337.54,-13"/>
</a>
</g>
</g>
<!-- Node7 -->
<g id="Node000007" class="node">
<title>Node7</title>
<g id="a_Node000007"><a xlink:title=" ">
<polygon fill="#e0e0e0" stroke="#999999" points="589.5,-134.25 528.5,-134.25 528.5,-113.5 589.5,-113.5 589.5,-134.25"/>
<text text-anchor="middle" x="559" y="-120.75" font-family="Helvetica,sans-Serif" font-size="10.00">stdbool.h</text>
</a>
</g>
</g>
<!-- Node6&#45;&gt;Node7 -->
<g id="edge9_Node000006_Node000007" class="edge">
<title>Node6&#45;&gt;Node7</title>
<g id="a_edge9_Node000006_Node000007"><a xlink:title=" ">
<path fill="none" stroke="#63b8ff" d="M510.89,-283.6C518.92,-257.12 541.63,-182.18 552.73,-145.55"/>
<polygon fill="#63b8ff" stroke="#63b8ff" points="556.03,-146.75 555.58,-136.17 549.33,-144.72 556.03,-146.75"/>
</a>
</g>
</g>
<!-- Node8 -->
<g id="Node000008" class="node">
<title>Node8</title>
<g id="a_Node000008"><a xlink:href="sched_8h.html" target="_top" xlink:title="Scheduler API definition.">
<polygon fill="white" stroke="#666666" points="445.75,-247.75 392.25,-247.75 392.25,-227 445.75,-227 445.75,-247.75"/>
<text text-anchor="middle" x="419" y="-234.25" font-family="Helvetica,sans-Serif" font-size="10.00">sched.h</text>
</a>
</g>
</g>
<!-- Node6&#45;&gt;Node8 -->
<g id="edge10_Node000006_Node000008" class="edge">
<title>Node6&#45;&gt;Node8</title>
<g id="a_edge10_Node000006_Node000008"><a xlink:title=" ">
<path fill="none" stroke="#63b8ff" d="M492.09,-283.34C478.8,-275.16 459.61,-263.36 444.23,-253.9"/>
<polygon fill="#63b8ff" stroke="#63b8ff" points="446.41,-251.13 436.06,-248.87 442.75,-257.09 446.41,-251.13"/>
</a>
</g>
</g>
<!-- Node9 -->
<g id="Node000009" class="node">
<title>Node9</title>
<g id="a_Node000009"><a xlink:title=" ">
<polygon fill="#e0e0e0" stroke="#999999" points="489.5,-77.5 434.5,-77.5 434.5,-56.75 489.5,-56.75 489.5,-77.5"/>
<text text-anchor="middle" x="462" y="-64" font-family="Helvetica,sans-Serif" font-size="10.00">stddef.h</text>
</a>
</g>
</g>
<!-- Node8&#45;&gt;Node9 -->
<g id="edge11_Node000008_Node000009" class="edge">
<title>Node8&#45;&gt;Node9</title>
<g id="a_edge11_Node000008_Node000009"><a xlink:title=" ">
<path fill="none" stroke="#63b8ff" d="M445.91,-227.85C463,-220.88 483.76,-209.16 494,-191 512.95,-157.4 491.04,-112.32 475.27,-87.15"/>
<polygon fill="#63b8ff" stroke="#63b8ff" points="478.29,-85.37 469.86,-78.94 472.44,-89.22 478.29,-85.37"/>
</a>
</g>
</g>
<!-- Node10 -->
<g id="Node000010" class="node">
<title>Node10</title>
<g id="a_Node000010"><a xlink:href="inttypes_8h.html" target="_top" xlink:title="Adds include for missing inttype definitions.">
<polygon fill="white" stroke="#666666" points="314.38,-191 249.62,-191 249.62,-170.25 314.38,-170.25 314.38,-191"/>
<text text-anchor="middle" x="282" y="-177.5" font-family="Helvetica,sans-Serif" font-size="10.00">inttypes.h</text>
</a>
</g>
</g>
<!-- Node8&#45;&gt;Node10 -->
<g id="edge12_Node000008_Node000010" class="edge">
<title>Node8&#45;&gt;Node10</title>
<g id="a_edge12_Node000008_Node000010"><a xlink:title=" ">
<path fill="none" stroke="#63b8ff" d="M394.51,-226.59C372.88,-217.94 341.11,-205.25 316.84,-195.55"/>
<polygon fill="#63b8ff" stroke="#63b8ff" points="318.27,-192.35 307.69,-191.89 315.67,-198.85 318.27,-192.35"/>
</a>
</g>
</g>
<!-- Node11 -->
<g id="Node000011" class="node">
<title>Node11</title>
<g id="a_Node000011"><a xlink:href="kernel__defines_8h.html" target="_top" xlink:title="Common macros and compiler attributes/pragmas configuration.">
<polygon fill="white" stroke="#666666" points="194.12,-191 97.88,-191 97.88,-170.25 194.12,-170.25 194.12,-191"/>
<text text-anchor="middle" x="146" y="-177.5" font-family="Helvetica,sans-Serif" font-size="10.00">kernel_defines.h</text>
</a>
</g>
</g>
<!-- Node8&#45;&gt;Node11 -->
<g id="edge13_Node000008_Node000011" class="edge">
<title>Node8&#45;&gt;Node11</title>
<g id="a_edge13_Node000008_Node000011"><a xlink:title=" ">
<path fill="none" stroke="#63b8ff" d="M391.83,-230.93C348.71,-222.28 263.6,-205.21 205.74,-193.61"/>
<polygon fill="#63b8ff" stroke="#63b8ff" points="206.53,-190.2 196.04,-191.66 205.16,-197.06 206.53,-190.2"/>
</a>
</g>
</g>
<!-- Node16 -->
<g id="Node000016" class="node">
<title>Node16</title>
<g id="a_Node000016"><a xlink:href="native__sched_8h.html" target="_top" xlink:title="Add definitions required on the native board.">
<polygon fill="white" stroke="#666666" points="421.75,-191 332.25,-191 332.25,-170.25 421.75,-170.25 421.75,-191"/>
<text text-anchor="middle" x="377" y="-177.5" font-family="Helvetica,sans-Serif" font-size="10.00">native_sched.h</text>
</a>
</g>
</g>
<!-- Node8&#45;&gt;Node16 -->
<g id="edge23_Node000008_Node000016" class="edge">
<title>Node8&#45;&gt;Node16</title>
<g id="a_edge23_Node000008_Node000016"><a xlink:title=" ">
<path fill="none" stroke="#63b8ff" d="M411.49,-226.59C405.88,-219.27 398.03,-209.04 391.24,-200.19"/>
<polygon fill="#63b8ff" stroke="#63b8ff" points="394.23,-198.33 385.36,-192.53 388.67,-202.59 394.23,-198.33"/>
</a>
</g>
</g>
<!-- Node17 -->
<g id="Node000017" class="node">
<title>Node17</title>
<g id="a_Node000017"><a xlink:href="clist_8h.html" target="_top" xlink:title="Circular linked list.">
<polygon fill="white" stroke="#666666" points="484.62,-191 439.38,-191 439.38,-170.25 484.62,-170.25 484.62,-191"/>
<text text-anchor="middle" x="462" y="-177.5" font-family="Helvetica,sans-Serif" font-size="10.00">clist.h</text>
</a>
</g>
</g>
<!-- Node8&#45;&gt;Node17 -->
<g id="edge24_Node000008_Node000017" class="edge">
<title>Node8&#45;&gt;Node17</title>
<g id="a_edge24_Node000008_Node000017"><a xlink:title=" ">
<path fill="none" stroke="#63b8ff" d="M426.69,-226.59C432.44,-219.27 440.47,-209.04 447.42,-200.19"/>
<polygon fill="#63b8ff" stroke="#63b8ff" points="450.02,-202.55 453.44,-192.52 444.51,-198.22 450.02,-202.55"/>
</a>
</g>
</g>
<!-- Node12 -->
<g id="Node000012" class="node">
<title>Node12</title>
<g id="a_Node000012"><a xlink:href="modules_8h.html" target="_top" xlink:title="Common macros and compiler attributes/pragmas configuration.">
<polygon fill="white" stroke="#666666" points="287.5,-134.25 220.5,-134.25 220.5,-113.5 287.5,-113.5 287.5,-134.25"/>
<text text-anchor="middle" x="254" y="-120.75" font-family="Helvetica,sans-Serif" font-size="10.00">modules.h</text>
</a>
</g>
</g>
<!-- Node11&#45;&gt;Node12 -->
<g id="edge14_Node000011_Node000012" class="edge">
<title>Node11&#45;&gt;Node12</title>
<g id="a_edge14_Node000011_Node000012"><a xlink:title=" ">
<path fill="none" stroke="#63b8ff" d="M165.31,-169.84C181.82,-161.47 205.83,-149.29 224.71,-139.72"/>
<polygon fill="#63b8ff" stroke="#63b8ff" points="226.17,-142.91 233.51,-135.26 223.01,-136.66 226.17,-142.91"/>
</a>
</g>
</g>
<!-- Node13 -->
<g id="Node000013" class="node">
<title>Node13</title>
<g id="a_Node000013"><a xlink:href="riot__version_8h.html" target="_top" xlink:title="Common macros and compiler attributes/pragmas configuration.">
<polygon fill="white" stroke="#666666" points="266.38,-77.5 183.62,-77.5 183.62,-56.75 266.38,-56.75 266.38,-77.5"/>
<text text-anchor="middle" x="225" y="-64" font-family="Helvetica,sans-Serif" font-size="10.00">riot_version.h</text>
</a>
</g>
</g>
<!-- Node11&#45;&gt;Node13 -->
<g id="edge15_Node000011_Node000013" class="edge">
<title>Node11&#45;&gt;Node13</title>
<g id="a_edge15_Node000011_Node000013"><a xlink:title=" ">
<path fill="none" stroke="#63b8ff" d="M152.74,-170.12C165.73,-151.78 194.48,-111.2 211.54,-87.12"/>
<polygon fill="#63b8ff" stroke="#63b8ff" points="214.26,-89.34 217.18,-79.16 208.54,-85.3 214.26,-89.34"/>
</a>
</g>
</g>
<!-- Node14 -->
<g id="Node000014" class="node">
<title>Node14</title>
<g id="a_Node000014"><a xlink:href="compiler__hints_8h.html" target="_top" xlink:title="Common macros and compiler attributes/pragmas configuration.">
<polygon fill="white" stroke="#666666" points="163.5,-134.25 66.5,-134.25 66.5,-113.5 163.5,-113.5 163.5,-134.25"/>
<text text-anchor="middle" x="115" y="-120.75" font-family="Helvetica,sans-Serif" font-size="10.00">compiler_hints.h</text>
</a>
</g>
</g>
<!-- Node11&#45;&gt;Node14 -->
<g id="edge17_Node000011_Node000014" class="edge">
<title>Node11&#45;&gt;Node14</title>
<g id="a_edge17_Node000011_Node000014"><a xlink:title=" ">
<path fill="none" stroke="#63b8ff" d="M140.46,-169.84C136.49,-162.83 131.01,-153.16 126.16,-144.58"/>
<polygon fill="#63b8ff" stroke="#63b8ff" points="129.21,-142.87 121.24,-135.9 123.12,-146.32 129.21,-142.87"/>
</a>
</g>
</g>
<!-- Node15 -->
<g id="Node000015" class="node">
<title>Node15</title>
<g id="a_Node000015"><a xlink:href="container_8h.html" target="_top" xlink:title="Common macros and compiler attributes/pragmas configuration.">
<polygon fill="white" stroke="#666666" points="376.38,-134.25 305.62,-134.25 305.62,-113.5 376.38,-113.5 376.38,-134.25"/>
<text text-anchor="middle" x="341" y="-120.75" font-family="Helvetica,sans-Serif" font-size="10.00">container.h</text>
</a>
</g>
</g>
<!-- Node11&#45;&gt;Node15 -->
<g id="edge20_Node000011_Node000015" class="edge">
<title>Node11&#45;&gt;Node15</title>
<g id="a_edge20_Node000011_Node000015"><a xlink:title=" ">
<path fill="none" stroke="#63b8ff" d="M180.86,-169.84C212.79,-160.87 260.26,-147.54 295.23,-137.73"/>
<polygon fill="#63b8ff" stroke="#63b8ff" points="295.97,-141.15 304.65,-135.08 294.08,-134.41 295.97,-141.15"/>
</a>
</g>
</g>
<!-- Node13&#45;&gt;Node3 -->
<g id="edge16_Node000013_Node000003" class="edge">
<title>Node13&#45;&gt;Node3</title>
<g id="a_edge16_Node000013_Node000003"><a xlink:title=" ">
<path fill="none" stroke="#63b8ff" d="M238.23,-56.34C248.96,-48.4 264.32,-37.03 276.92,-27.71"/>
<polygon fill="#63b8ff" stroke="#63b8ff" points="278.71,-30.74 284.67,-21.98 274.55,-25.11 278.71,-30.74"/>
</a>
</g>
</g>
<!-- Node14&#45;&gt;Node2 -->
<g id="edge18_Node000014_Node000002" class="edge">
<title>Node14&#45;&gt;Node2</title>
<g id="a_edge18_Node000014_Node000002"><a xlink:title=" ">
<path fill="none" stroke="#63b8ff" d="M109.1,-113.09C104.83,-106 98.92,-96.19 93.7,-87.54"/>
<polygon fill="#63b8ff" stroke="#63b8ff" points="96.79,-85.88 88.63,-79.12 90.79,-89.5 96.79,-85.88"/>
</a>
</g>
</g>
<!-- Node14&#45;&gt;Node3 -->
<g id="edge19_Node000014_Node000003" class="edge">
<title>Node14&#45;&gt;Node3</title>
<g id="a_edge19_Node000014_Node000003"><a xlink:title=" ">
<path fill="none" stroke="#63b8ff" d="M121.27,-113.44C131.14,-99.28 151.59,-72.5 175,-56.75 201.51,-38.91 235.91,-27.05 261.75,-19.94"/>
<polygon fill="#63b8ff" stroke="#63b8ff" points="262.35,-23.4 271.14,-17.48 260.58,-16.63 262.35,-23.4"/>
</a>
</g>
</g>
<!-- Node15&#45;&gt;Node3 -->
<g id="edge22_Node000015_Node000003" class="edge">
<title>Node15&#45;&gt;Node3</title>
<g id="a_edge22_Node000015_Node000003"><a xlink:title=" ">
<path fill="none" stroke="#63b8ff" d="M337.42,-113.37C330.63,-95.36 315.77,-55.89 306.65,-31.68"/>
<polygon fill="#63b8ff" stroke="#63b8ff" points="310.03,-30.72 303.23,-22.59 303.47,-33.18 310.03,-30.72"/>
</a>
</g>
</g>
<!-- Node15&#45;&gt;Node9 -->
<g id="edge21_Node000015_Node000009" class="edge">
<title>Node15&#45;&gt;Node9</title>
<g id="a_edge21_Node000015_Node000009"><a xlink:title=" ">
<path fill="none" stroke="#63b8ff" d="M362.63,-113.09C381.47,-104.56 409.04,-92.09 430.36,-82.44"/>
<polygon fill="#63b8ff" stroke="#63b8ff" points="431.51,-85.76 439.18,-78.45 428.62,-79.39 431.51,-85.76"/>
</a>
</g>
</g>
<!-- Node17&#45;&gt;Node5 -->
<g id="edge27_Node000017_Node000005" class="edge">
<title>Node17&#45;&gt;Node5</title>
<g id="a_edge27_Node000017_Node000005"><a xlink:title=" ">
<path fill="none" stroke="#63b8ff" d="M453.42,-169.84C446.93,-162.44 437.85,-152.07 430.03,-143.16"/>
<polygon fill="#63b8ff" stroke="#63b8ff" points="432.73,-140.93 423.5,-135.72 427.47,-145.54 432.73,-140.93"/>
</a>
</g>
</g>
<!-- Node17&#45;&gt;Node7 -->
<g id="edge25_Node000017_Node000007" class="edge">
<title>Node17&#45;&gt;Node7</title>
<g id="a_edge25_Node000017_Node000007"><a xlink:title=" ">
<path fill="none" stroke="#63b8ff" d="M479.34,-169.84C493.96,-161.58 515.14,-149.63 531.98,-140.13"/>
<polygon fill="#63b8ff" stroke="#63b8ff" points="533.5,-143.29 540.49,-135.32 530.06,-137.19 533.5,-143.29"/>
</a>
</g>
</g>
<!-- Node17&#45;&gt;Node9 -->
<g id="edge26_Node000017_Node000009" class="edge">
<title>Node17&#45;&gt;Node9</title>
<g id="a_edge26_Node000017_Node000009"><a xlink:title=" ">
<path fill="none" stroke="#63b8ff" d="M462,-170.12C462,-152.35 462,-113.72 462,-89.43"/>
<polygon fill="#63b8ff" stroke="#63b8ff" points="465.5,-89.44 462,-79.44 458.5,-89.44 465.5,-89.44"/>
</a>
</g>
</g>
</g>
</svg>
