<?xml version="1.0" encoding="UTF-8" standalone="no"?>
<!DOCTYPE svg PUBLIC "-//W3C//DTD SVG 1.1//EN"
 "http://www.w3.org/Graphics/SVG/1.1/DTD/svg11.dtd">
<!-- Generated by graphviz version 12.1.1 (0)
 -->
<!-- Title: sys/include/can/pkt.h Pages: 1 -->
<svg width="471pt" height="199pt"
 viewBox="0.00 0.00 470.88 199.00" xmlns="http://www.w3.org/2000/svg" xmlns:xlink="http://www.w3.org/1999/xlink">
<g id="graph0" class="graph" transform="scale(1 1) rotate(0) translate(4 195)">
<title>sys/include/can/pkt.h</title>
<!-- Node1 -->
<g id="Node000001" class="node">
<title>Node1</title>
<g id="a_Node000001"><a xlink:title="CAN memory allocation module.">
<polygon fill="#999999" stroke="#666666" points="197.25,-191 78.5,-191 78.5,-170.25 197.25,-170.25 197.25,-191"/>
<text text-anchor="middle" x="137.88" y="-177.5" font-family="Helvetica,sans-Serif" font-size="10.00">sys/include/can/pkt.h</text>
</a>
</g>
</g>
<!-- Node2 -->
<g id="Node000002" class="node">
<title>Node2</title>
<g id="a_Node000002"><a xlink:title=" ">
<polygon fill="#e0e0e0" stroke="#999999" points="73.75,-134.25 0,-134.25 0,-113.5 73.75,-113.5 73.75,-134.25"/>
<text text-anchor="middle" x="36.88" y="-120.75" font-family="Helvetica,sans-Serif" font-size="10.00">stdatomic.h</text>
</a>
</g>
</g>
<!-- Node1&#45;&gt;Node2 -->
<g id="edge1_Node000001_Node000002" class="edge">
<title>Node1&#45;&gt;Node2</title>
<g id="a_edge1_Node000001_Node000002"><a xlink:title=" ">
<path fill="none" stroke="#63b8ff" d="M119.82,-169.84C104.45,-161.51 82.13,-149.41 64.52,-139.86"/>
<polygon fill="#63b8ff" stroke="#63b8ff" points="66.57,-136.99 56.11,-135.3 63.23,-143.14 66.57,-136.99"/>
</a>
</g>
</g>
<!-- Node3 -->
<g id="Node000003" class="node">
<title>Node3</title>
<g id="a_Node000003"><a xlink:href="sys_2include_2can_2common_8h.html" target="_top" xlink:title="Definitions of high&#45;level CAN interface.">
<polygon fill="white" stroke="#666666" points="217.88,-134.25 129.88,-134.25 129.88,-113.5 217.88,-113.5 217.88,-134.25"/>
<text text-anchor="middle" x="173.88" y="-120.75" font-family="Helvetica,sans-Serif" font-size="10.00">can/common.h</text>
</a>
</g>
</g>
<!-- Node1&#45;&gt;Node3 -->
<g id="edge2_Node000001_Node000003" class="edge">
<title>Node1&#45;&gt;Node3</title>
<g id="a_edge2_Node000001_Node000003"><a xlink:title=" ">
<path fill="none" stroke="#63b8ff" d="M144.31,-169.84C149.02,-162.67 155.56,-152.73 161.29,-144.01"/>
<polygon fill="#63b8ff" stroke="#63b8ff" points="164.09,-146.12 166.66,-135.84 158.24,-142.28 164.09,-146.12"/>
</a>
</g>
</g>
<!-- Node12 -->
<g id="Node000012" class="node">
<title>Node12</title>
<g id="a_Node000012"><a xlink:href="sys_2include_2can_2can_8h.html" target="_top" xlink:title="Definitions high&#45;level CAN interface.">
<polygon fill="white" stroke="#666666" points="90.12,-77.5 27.62,-77.5 27.62,-56.75 90.12,-56.75 90.12,-77.5"/>
<text text-anchor="middle" x="58.88" y="-64" font-family="Helvetica,sans-Serif" font-size="10.00">can/can.h</text>
</a>
</g>
</g>
<!-- Node1&#45;&gt;Node12 -->
<g id="edge12_Node000001_Node000012" class="edge">
<title>Node1&#45;&gt;Node12</title>
<g id="a_edge12_Node000001_Node000012"><a xlink:title=" ">
<path fill="none" stroke="#63b8ff" d="M131.14,-170.12C118.15,-151.78 89.4,-111.2 72.33,-87.12"/>
<polygon fill="#63b8ff" stroke="#63b8ff" points="75.33,-85.3 66.69,-79.16 69.62,-89.34 75.33,-85.3"/>
</a>
</g>
</g>
<!-- Node13 -->
<g id="Node000013" class="node">
<title>Node13</title>
<g id="a_Node000013"><a xlink:title=" ">
<polygon fill="#e0e0e0" stroke="#999999" points="281.88,-134.25 235.88,-134.25 235.88,-113.5 281.88,-113.5 281.88,-134.25"/>
<text text-anchor="middle" x="258.88" y="-120.75" font-family="Helvetica,sans-Serif" font-size="10.00">msg.h</text>
</a>
</g>
</g>
<!-- Node1&#45;&gt;Node13 -->
<g id="edge14_Node000001_Node000013" class="edge">
<title>Node1&#45;&gt;Node13</title>
<g id="a_edge14_Node000001_Node000013"><a xlink:title=" ">
<path fill="none" stroke="#63b8ff" d="M159.51,-169.84C178.35,-161.31 205.91,-148.84 227.23,-139.19"/>
<polygon fill="#63b8ff" stroke="#63b8ff" points="228.38,-142.51 236.05,-135.2 225.5,-136.14 228.38,-142.51"/>
</a>
</g>
</g>
<!-- Node4 -->
<g id="Node000004" class="node">
<title>Node4</title>
<g id="a_Node000004"><a xlink:title=" ">
<polygon fill="#e0e0e0" stroke="#999999" points="125.25,-20.75 72.5,-20.75 72.5,0 125.25,0 125.25,-20.75"/>
<text text-anchor="middle" x="98.88" y="-7.25" font-family="Helvetica,sans-Serif" font-size="10.00">stdint.h</text>
</a>
</g>
</g>
<!-- Node3&#45;&gt;Node4 -->
<g id="edge3_Node000003_Node000004" class="edge">
<title>Node3&#45;&gt;Node4</title>
<g id="a_edge3_Node000003_Node000004"><a xlink:title=" ">
<path fill="none" stroke="#63b8ff" d="M165.16,-113.15C157.34,-104.2 145.75,-90.39 136.88,-77.5 126.55,-62.5 116.36,-44.54 109.13,-31.12"/>
<polygon fill="#63b8ff" stroke="#63b8ff" points="112.3,-29.63 104.53,-22.43 106.11,-32.9 112.3,-29.63"/>
</a>
</g>
</g>
<!-- Node5 -->
<g id="Node000005" class="node">
<title>Node5</title>
<g id="a_Node000005"><a xlink:href="uio_8h.html" target="_top" xlink:title="libc header for scatter/gather I/O">
<polygon fill="white" stroke="#666666" points="386.62,-77.5 327.12,-77.5 327.12,-56.75 386.62,-56.75 386.62,-77.5"/>
<text text-anchor="middle" x="356.88" y="-64" font-family="Helvetica,sans-Serif" font-size="10.00">sys/uio.h</text>
</a>
</g>
</g>
<!-- Node3&#45;&gt;Node5 -->
<g id="edge4_Node000003_Node000005" class="edge">
<title>Node3&#45;&gt;Node5</title>
<g id="a_edge4_Node000003_Node000005"><a xlink:title=" ">
<path fill="none" stroke="#63b8ff" d="M206.59,-113.09C237.26,-103.91 283.2,-90.17 316.21,-80.29"/>
<polygon fill="#63b8ff" stroke="#63b8ff" points="316.84,-83.76 325.42,-77.54 314.83,-77.05 316.84,-83.76"/>
</a>
</g>
</g>
<!-- Node8 -->
<g id="Node000008" class="node">
<title>Node8</title>
<g id="a_Node000008"><a xlink:href="timex_8h.html" target="_top" xlink:title="Utility library for comparing and computing timestamps.">
<polygon fill="white" stroke="#666666" points="273.62,-77.5 220.12,-77.5 220.12,-56.75 273.62,-56.75 273.62,-77.5"/>
<text text-anchor="middle" x="246.88" y="-64" font-family="Helvetica,sans-Serif" font-size="10.00">timex.h</text>
</a>
</g>
</g>
<!-- Node3&#45;&gt;Node8 -->
<g id="edge7_Node000003_Node000008" class="edge">
<title>Node3&#45;&gt;Node8</title>
<g id="a_edge7_Node000003_Node000008"><a xlink:title=" ">
<path fill="none" stroke="#63b8ff" d="M186.93,-113.09C197.51,-105.15 212.67,-93.78 225.09,-84.46"/>
<polygon fill="#63b8ff" stroke="#63b8ff" points="226.83,-87.54 232.73,-78.74 222.63,-81.94 226.83,-87.54"/>
</a>
</g>
</g>
<!-- Node11 -->
<g id="Node000011" class="node">
<title>Node11</title>
<g id="a_Node000011"><a xlink:title=" ">
<polygon fill="#e0e0e0" stroke="#999999" points="202.12,-77.5 145.62,-77.5 145.62,-56.75 202.12,-56.75 202.12,-77.5"/>
<text text-anchor="middle" x="173.88" y="-64" font-family="Helvetica,sans-Serif" font-size="10.00">thread.h</text>
</a>
</g>
</g>
<!-- Node3&#45;&gt;Node11 -->
<g id="edge11_Node000003_Node000011" class="edge">
<title>Node3&#45;&gt;Node11</title>
<g id="a_edge11_Node000003_Node000011"><a xlink:title=" ">
<path fill="none" stroke="#63b8ff" d="M173.88,-113.09C173.88,-106.47 173.88,-97.47 173.88,-89.27"/>
<polygon fill="#63b8ff" stroke="#63b8ff" points="177.38,-89.34 173.88,-79.34 170.38,-89.34 177.38,-89.34"/>
</a>
</g>
</g>
<!-- Node6 -->
<g id="Node000006" class="node">
<title>Node6</title>
<g id="a_Node000006"><a xlink:title=" ">
<polygon fill="#e0e0e0" stroke="#999999" points="462.88,-20.75 410.88,-20.75 410.88,0 462.88,0 462.88,-20.75"/>
<text text-anchor="middle" x="436.88" y="-7.25" font-family="Helvetica,sans-Serif" font-size="10.00">stdlib.h</text>
</a>
</g>
</g>
<!-- Node5&#45;&gt;Node6 -->
<g id="edge5_Node000005_Node000006" class="edge">
<title>Node5&#45;&gt;Node6</title>
<g id="a_edge5_Node000005_Node000006"><a xlink:title=" ">
<path fill="none" stroke="#63b8ff" d="M371.18,-56.34C382.89,-48.32 399.71,-36.81 413.4,-27.44"/>
<polygon fill="#63b8ff" stroke="#63b8ff" points="415.17,-30.47 421.45,-21.93 411.22,-24.69 415.17,-30.47"/>
</a>
</g>
</g>
<!-- Node7 -->
<g id="Node000007" class="node">
<title>Node7</title>
<g id="a_Node000007"><a xlink:title=" ">
<polygon fill="#e0e0e0" stroke="#999999" points="392.62,-20.75 321.12,-20.75 321.12,0 392.62,0 392.62,-20.75"/>
<text text-anchor="middle" x="356.88" y="-7.25" font-family="Helvetica,sans-Serif" font-size="10.00">sys/types.h</text>
</a>
</g>
</g>
<!-- Node5&#45;&gt;Node7 -->
<g id="edge6_Node000005_Node000007" class="edge">
<title>Node5&#45;&gt;Node7</title>
<g id="a_edge6_Node000005_Node000007"><a xlink:title=" ">
<path fill="none" stroke="#63b8ff" d="M356.88,-56.34C356.88,-49.72 356.88,-40.72 356.88,-32.52"/>
<polygon fill="#63b8ff" stroke="#63b8ff" points="360.38,-32.59 356.88,-22.59 353.38,-32.59 360.38,-32.59"/>
</a>
</g>
</g>
<!-- Node8&#45;&gt;Node4 -->
<g id="edge8_Node000008_Node000004" class="edge">
<title>Node8&#45;&gt;Node4</title>
<g id="a_edge8_Node000008_Node000004"><a xlink:title=" ">
<path fill="none" stroke="#63b8ff" d="M220.42,-56.34C196.84,-47.62 162.11,-34.77 135.81,-25.04"/>
<polygon fill="#63b8ff" stroke="#63b8ff" points="137.12,-21.79 126.52,-21.6 134.69,-28.36 137.12,-21.79"/>
</a>
</g>
</g>
<!-- Node9 -->
<g id="Node000009" class="node">
<title>Node9</title>
<g id="a_Node000009"><a xlink:href="inttypes_8h.html" target="_top" xlink:title="Adds include for missing inttype definitions.">
<polygon fill="white" stroke="#666666" points="208.25,-20.75 143.5,-20.75 143.5,0 208.25,0 208.25,-20.75"/>
<text text-anchor="middle" x="175.88" y="-7.25" font-family="Helvetica,sans-Serif" font-size="10.00">inttypes.h</text>
</a>
</g>
</g>
<!-- Node8&#45;&gt;Node9 -->
<g id="edge9_Node000008_Node000009" class="edge">
<title>Node8&#45;&gt;Node9</title>
<g id="a_edge9_Node000008_Node000009"><a xlink:title=" ">
<path fill="none" stroke="#63b8ff" d="M234.18,-56.34C223.98,-48.47 209.43,-37.25 197.42,-27.99"/>
<polygon fill="#63b8ff" stroke="#63b8ff" points="199.71,-25.34 189.66,-22 195.44,-30.88 199.71,-25.34"/>
</a>
</g>
</g>
<!-- Node10 -->
<g id="Node000010" class="node">
<title>Node10</title>
<g id="a_Node000010"><a xlink:href="time__units_8h.html" target="_top" xlink:title="Utility header providing time unit defines.">
<polygon fill="white" stroke="#666666" points="303.25,-20.75 226.5,-20.75 226.5,0 303.25,0 303.25,-20.75"/>
<text text-anchor="middle" x="264.88" y="-7.25" font-family="Helvetica,sans-Serif" font-size="10.00">time_units.h</text>
</a>
</g>
</g>
<!-- Node8&#45;&gt;Node10 -->
<g id="edge10_Node000008_Node000010" class="edge">
<title>Node8&#45;&gt;Node10</title>
<g id="a_edge10_Node000008_Node000010"><a xlink:title=" ">
<path fill="none" stroke="#63b8ff" d="M250.09,-56.34C252.32,-49.56 255.37,-40.3 258.11,-31.94"/>
<polygon fill="#63b8ff" stroke="#63b8ff" points="261.41,-33.11 261.21,-22.52 254.76,-30.92 261.41,-33.11"/>
</a>
</g>
</g>
<!-- Node12&#45;&gt;Node4 -->
<g id="edge13_Node000012_Node000004" class="edge">
<title>Node12&#45;&gt;Node4</title>
<g id="a_edge13_Node000012_Node000004"><a xlink:title=" ">
<path fill="none" stroke="#63b8ff" d="M66.03,-56.34C71.32,-49.1 78.69,-39.01 85.1,-30.22"/>
<polygon fill="#63b8ff" stroke="#63b8ff" points="87.82,-32.44 90.89,-22.3 82.17,-28.31 87.82,-32.44"/>
</a>
</g>
</g>
</g>
</svg>
