<?xml version="1.0" encoding="UTF-8" standalone="no"?>
<!DOCTYPE svg PUBLIC "-//W3C//DTD SVG 1.1//EN"
 "http://www.w3.org/Graphics/SVG/1.1/DTD/svg11.dtd">
<!-- Generated by graphviz version 12.1.1 (0)
 -->
<!-- Title: sys/include/crypto/modes/cbc.h Pages: 1 -->
<svg width="201pt" height="155pt"
 viewBox="0.00 0.00 201.00 155.00" xmlns="http://www.w3.org/2000/svg" xmlns:xlink="http://www.w3.org/1999/xlink">
<g id="graph0" class="graph" transform="scale(1 1) rotate(0) translate(4 151)">
<title>sys/include/crypto/modes/cbc.h</title>
<!-- Node1 -->
<g id="Node000001" class="node">
<title>Node1</title>
<g id="a_Node000001"><a xlink:title="Cipher block chaining mode of operation for block ciphers.">
<polygon fill="#999999" stroke="#666666" points="125.75,-147 21.25,-147 21.25,-113.5 125.75,-113.5 125.75,-147"/>
<text text-anchor="start" x="29.25" y="-133.5" font-family="Helvetica,sans-Serif" font-size="10.00">sys/include/crypto</text>
<text text-anchor="middle" x="73.5" y="-120.75" font-family="Helvetica,sans-Serif" font-size="10.00">/modes/cbc.h</text>
</a>
</g>
</g>
<!-- Node2 -->
<g id="Node000002" class="node">
<title>Node2</title>
<g id="a_Node000002"><a xlink:title=" ">
<polygon fill="#e0e0e0" stroke="#999999" points="55,-77.5 0,-77.5 0,-56.75 55,-56.75 55,-77.5"/>
<text text-anchor="middle" x="27.5" y="-64" font-family="Helvetica,sans-Serif" font-size="10.00">stddef.h</text>
</a>
</g>
</g>
<!-- Node1&#45;&gt;Node2 -->
<g id="edge1_Node000001_Node000002" class="edge">
<title>Node1&#45;&gt;Node2</title>
<g id="a_edge1_Node000001_Node000002"><a xlink:title=" ">
<path fill="none" stroke="#63b8ff" d="M61.41,-113.19C55.37,-105.16 48.01,-95.38 41.7,-86.99"/>
<polygon fill="#63b8ff" stroke="#63b8ff" points="44.63,-85.06 35.82,-79.18 39.03,-89.27 44.63,-85.06"/>
</a>
</g>
</g>
<!-- Node3 -->
<g id="Node000003" class="node">
<title>Node3</title>
<g id="a_Node000003"><a xlink:href="ciphers_8h.html" target="_top" xlink:title="Headers for the packet encryption class.">
<polygon fill="white" stroke="#666666" points="167.5,-77.5 73.5,-77.5 73.5,-56.75 167.5,-56.75 167.5,-77.5"/>
<text text-anchor="middle" x="120.5" y="-64" font-family="Helvetica,sans-Serif" font-size="10.00">crypto/ciphers.h</text>
</a>
</g>
</g>
<!-- Node1&#45;&gt;Node3 -->
<g id="edge2_Node000001_Node000003" class="edge">
<title>Node1&#45;&gt;Node3</title>
<g id="a_edge2_Node000001_Node000003"><a xlink:title=" ">
<path fill="none" stroke="#63b8ff" d="M85.85,-113.19C92.03,-105.16 99.54,-95.38 105.99,-86.99"/>
<polygon fill="#63b8ff" stroke="#63b8ff" points="108.69,-89.23 112.01,-79.17 103.14,-84.96 108.69,-89.23"/>
</a>
</g>
</g>
<!-- Node4 -->
<g id="Node000004" class="node">
<title>Node4</title>
<g id="a_Node000004"><a xlink:title=" ">
<polygon fill="#e0e0e0" stroke="#999999" points="107.88,-20.75 55.12,-20.75 55.12,0 107.88,0 107.88,-20.75"/>
<text text-anchor="middle" x="81.5" y="-7.25" font-family="Helvetica,sans-Serif" font-size="10.00">stdint.h</text>
</a>
</g>
</g>
<!-- Node3&#45;&gt;Node4 -->
<g id="edge3_Node000003_Node000004" class="edge">
<title>Node3&#45;&gt;Node4</title>
<g id="a_edge3_Node000003_Node000004"><a xlink:title=" ">
<path fill="none" stroke="#63b8ff" d="M113.53,-56.34C108.37,-49.1 101.18,-39.01 94.93,-30.22"/>
<polygon fill="#63b8ff" stroke="#63b8ff" points="97.94,-28.43 89.29,-22.31 92.24,-32.49 97.94,-28.43"/>
</a>
</g>
</g>
<!-- Node5 -->
<g id="Node000005" class="node">
<title>Node5</title>
<g id="a_Node000005"><a xlink:href="modules_8h.html" target="_top" xlink:title="Common macros and compiler attributes/pragmas configuration.">
<polygon fill="white" stroke="#666666" points="193,-20.75 126,-20.75 126,0 193,0 193,-20.75"/>
<text text-anchor="middle" x="159.5" y="-7.25" font-family="Helvetica,sans-Serif" font-size="10.00">modules.h</text>
</a>
</g>
</g>
<!-- Node3&#45;&gt;Node5 -->
<g id="edge4_Node000003_Node000005" class="edge">
<title>Node3&#45;&gt;Node5</title>
<g id="a_edge4_Node000003_Node000005"><a xlink:title=" ">
<path fill="none" stroke="#63b8ff" d="M127.47,-56.34C132.63,-49.1 139.82,-39.01 146.07,-30.22"/>
<polygon fill="#63b8ff" stroke="#63b8ff" points="148.76,-32.49 151.71,-22.31 143.06,-28.43 148.76,-32.49"/>
</a>
</g>
</g>
</g>
</svg>
