<?xml version="1.0" encoding="UTF-8" standalone="no"?>
<!DOCTYPE svg PUBLIC "-//W3C//DTD SVG 1.1//EN"
 "http://www.w3.org/Graphics/SVG/1.1/DTD/svg11.dtd">
<!-- Generated by graphviz version 12.1.1 (0)
 -->
<!-- Title: drivers/cc110x/include/cc110x_constants.h Pages: 1 -->
<svg width="193pt" height="181pt"
 viewBox="0.00 0.00 192.50 180.50" xmlns="http://www.w3.org/2000/svg" xmlns:xlink="http://www.w3.org/1999/xlink">
<g id="graph0" class="graph" transform="scale(1 1) rotate(0) translate(4 176.5)">
<title>drivers/cc110x/include/cc110x_constants.h</title>
<!-- Node1 -->
<g id="Node000001" class="node">
<title>Node1</title>
<g id="a_Node000001"><a xlink:title="Constants for the CC1100/CC1101 driver.">
<polygon fill="#999999" stroke="#666666" points="184.5,-172.5 59,-172.5 59,-139 184.5,-139 184.5,-172.5"/>
<text text-anchor="start" x="67" y="-159" font-family="Helvetica,sans-Serif" font-size="10.00">drivers/cc110x/include</text>
<text text-anchor="middle" x="121.75" y="-146.25" font-family="Helvetica,sans-Serif" font-size="10.00">/cc110x_constants.h</text>
</a>
</g>
</g>
<!-- Node2 -->
<g id="Node000002" class="node">
<title>Node2</title>
<g id="a_Node000002"><a xlink:href="cc110x__communication_8h.html" target="_top" xlink:title="Functions to communicate with the CC1100/CC1101 transceiver.">
<polygon fill="white" stroke="#666666" points="143.5,-103 0,-103 0,-69.5 143.5,-69.5 143.5,-103"/>
<text text-anchor="start" x="8" y="-89.5" font-family="Helvetica,sans-Serif" font-size="10.00">drivers/cc110x/include</text>
<text text-anchor="middle" x="71.75" y="-76.75" font-family="Helvetica,sans-Serif" font-size="10.00">/cc110x_communication.h</text>
</a>
</g>
</g>
<!-- Node1&#45;&gt;Node2 -->
<g id="edge1_Node000001_Node000002" class="edge">
<title>Node1&#45;&gt;Node2</title>
<g id="a_edge1_Node000001_Node000002"><a xlink:title=" ">
<path fill="none" stroke="#63b8ff" d="M103.12,-129.59C96.55,-120.73 89.35,-111.02 83.51,-103.13"/>
<polygon fill="#63b8ff" stroke="#63b8ff" points="100.24,-131.58 109,-137.54 105.86,-127.42 100.24,-131.58"/>
</a>
</g>
</g>
<!-- Node3 -->
<g id="Node000003" class="node">
<title>Node3</title>
<g id="a_Node000003"><a xlink:href="cc110x__internal_8h.html" target="_top" xlink:title="Internal functions of the CC110x transceiver driver.">
<polygon fill="white" stroke="#666666" points="184.5,-33.5 59,-33.5 59,0 184.5,0 184.5,-33.5"/>
<text text-anchor="start" x="67" y="-20" font-family="Helvetica,sans-Serif" font-size="10.00">drivers/cc110x/include</text>
<text text-anchor="middle" x="121.75" y="-7.25" font-family="Helvetica,sans-Serif" font-size="10.00">/cc110x_internal.h</text>
</a>
</g>
</g>
<!-- Node1&#45;&gt;Node3 -->
<g id="edge3_Node000001_Node000003" class="edge">
<title>Node1&#45;&gt;Node3</title>
<g id="a_edge3_Node000001_Node000003"><a xlink:title=" ">
<path fill="none" stroke="#63b8ff" d="M140.78,-129.15C145.66,-121.18 150.24,-112.08 152.75,-103 156.72,-88.65 156.72,-83.85 152.75,-69.5 149.18,-56.58 141.43,-43.64 134.57,-33.93"/>
<polygon fill="#63b8ff" stroke="#63b8ff" points="137.99,-127.03 135.4,-137.3 143.83,-130.88 137.99,-127.03"/>
</a>
</g>
</g>
<!-- Node2&#45;&gt;Node3 -->
<g id="edge2_Node000002_Node000003" class="edge">
<title>Node2&#45;&gt;Node3</title>
<g id="a_edge2_Node000002_Node000003"><a xlink:title=" ">
<path fill="none" stroke="#63b8ff" d="M90.38,-60.09C96.95,-51.23 104.15,-41.52 109.99,-33.63"/>
<polygon fill="#63b8ff" stroke="#63b8ff" points="87.64,-57.92 84.5,-68.04 93.26,-62.08 87.64,-57.92"/>
</a>
</g>
</g>
</g>
</svg>
