<?xml version="1.0" encoding="UTF-8" standalone="no"?>
<!DOCTYPE svg PUBLIC "-//W3C//DTD SVG 1.1//EN"
 "http://www.w3.org/Graphics/SVG/1.1/DTD/svg11.dtd">
<!-- Generated by graphviz version 12.1.1 (0)
 -->
<!-- Title: drivers/cc110x/include/cc110x_params.h Pages: 1 -->
<svg width="182pt" height="155pt"
 viewBox="0.00 0.00 182.25 155.00" xmlns="http://www.w3.org/2000/svg" xmlns:xlink="http://www.w3.org/1999/xlink">
<g id="graph0" class="graph" transform="scale(1 1) rotate(0) translate(4 151)">
<title>drivers/cc110x/include/cc110x_params.h</title>
<!-- Node1 -->
<g id="Node000001" class="node">
<title>Node1</title>
<g id="a_Node000001"><a xlink:title="cc110x board specific configuration">
<polygon fill="#999999" stroke="#666666" points="137.12,-147 11.62,-147 11.62,-113.5 137.12,-113.5 137.12,-147"/>
<text text-anchor="start" x="19.62" y="-133.5" font-family="Helvetica,sans-Serif" font-size="10.00">drivers/cc110x/include</text>
<text text-anchor="middle" x="74.38" y="-120.75" font-family="Helvetica,sans-Serif" font-size="10.00">/cc110x_params.h</text>
</a>
</g>
</g>
<!-- Node2 -->
<g id="Node000002" class="node">
<title>Node2</title>
<g id="a_Node000002"><a xlink:title=" ">
<polygon fill="#e0e0e0" stroke="#999999" points="52.75,-77.5 0,-77.5 0,-56.75 52.75,-56.75 52.75,-77.5"/>
<text text-anchor="middle" x="26.38" y="-64" font-family="Helvetica,sans-Serif" font-size="10.00">board.h</text>
</a>
</g>
</g>
<!-- Node1&#45;&gt;Node2 -->
<g id="edge1_Node000001_Node000002" class="edge">
<title>Node1&#45;&gt;Node2</title>
<g id="a_edge1_Node000001_Node000002"><a xlink:title=" ">
<path fill="none" stroke="#63b8ff" d="M61.76,-113.19C55.45,-105.16 47.78,-95.38 41.19,-86.99"/>
<polygon fill="#63b8ff" stroke="#63b8ff" points="43.97,-84.86 35.04,-79.16 38.46,-89.18 43.97,-84.86"/>
</a>
</g>
</g>
<!-- Node3 -->
<g id="Node000003" class="node">
<title>Node3</title>
<g id="a_Node000003"><a xlink:href="cc110x__settings_8h.html" target="_top" xlink:title="Default settings of the TI CC1100/CC1101 transceiver.">
<polygon fill="white" stroke="#666666" points="174.25,-77.5 70.5,-77.5 70.5,-56.75 174.25,-56.75 174.25,-77.5"/>
<text text-anchor="middle" x="122.38" y="-64" font-family="Helvetica,sans-Serif" font-size="10.00">cc110x_settings.h</text>
</a>
</g>
</g>
<!-- Node1&#45;&gt;Node3 -->
<g id="edge2_Node000001_Node000003" class="edge">
<title>Node1&#45;&gt;Node3</title>
<g id="a_edge2_Node000001_Node000003"><a xlink:title=" ">
<path fill="none" stroke="#63b8ff" d="M86.99,-113.19C93.3,-105.16 100.97,-95.38 107.56,-86.99"/>
<polygon fill="#63b8ff" stroke="#63b8ff" points="110.29,-89.18 113.71,-79.16 104.78,-84.86 110.29,-89.18"/>
</a>
</g>
</g>
<!-- Node4 -->
<g id="Node000004" class="node">
<title>Node4</title>
<g id="a_Node000004"><a xlink:title=" ">
<polygon fill="#e0e0e0" stroke="#999999" points="148.75,-20.75 96,-20.75 96,0 148.75,0 148.75,-20.75"/>
<text text-anchor="middle" x="122.38" y="-7.25" font-family="Helvetica,sans-Serif" font-size="10.00">stdint.h</text>
</a>
</g>
</g>
<!-- Node3&#45;&gt;Node4 -->
<g id="edge3_Node000003_Node000004" class="edge">
<title>Node3&#45;&gt;Node4</title>
<g id="a_edge3_Node000003_Node000004"><a xlink:title=" ">
<path fill="none" stroke="#63b8ff" d="M122.38,-56.34C122.38,-49.72 122.38,-40.72 122.38,-32.52"/>
<polygon fill="#63b8ff" stroke="#63b8ff" points="125.88,-32.59 122.38,-22.59 118.88,-32.59 125.88,-32.59"/>
</a>
</g>
</g>
</g>
</svg>
