<?xml version="1.0" encoding="UTF-8" standalone="no"?>
<!DOCTYPE svg PUBLIC "-//W3C//DTD SVG 1.1//EN"
 "http://www.w3.org/Graphics/SVG/1.1/DTD/svg11.dtd">
<!-- Generated by graphviz version 12.1.1 (0)
 -->
<!-- Title: boards/cc1352&#45;launchpad/include/gpio_params.h Pages: 1 -->
<svg width="341pt" height="212pt"
 viewBox="0.00 0.00 341.25 211.75" xmlns="http://www.w3.org/2000/svg" xmlns:xlink="http://www.w3.org/1999/xlink">
<g id="graph0" class="graph" transform="scale(1 1) rotate(0) translate(4 207.75)">
<title>boards/cc1352&#45;launchpad/include/gpio_params.h</title>
<!-- Node1 -->
<g id="Node000001" class="node">
<title>Node1</title>
<g id="a_Node000001"><a xlink:title="Board specific configuration of direct mapped GPIOs.">
<polygon fill="#999999" stroke="#666666" points="158.12,-203.75 17.62,-203.75 17.62,-170.25 158.12,-170.25 158.12,-203.75"/>
<text text-anchor="start" x="25.62" y="-190.25" font-family="Helvetica,sans-Serif" font-size="10.00">boards/cc1352&#45;launchpad</text>
<text text-anchor="middle" x="87.88" y="-177.5" font-family="Helvetica,sans-Serif" font-size="10.00">/include/gpio_params.h</text>
</a>
</g>
</g>
<!-- Node2 -->
<g id="Node000002" class="node">
<title>Node2</title>
<g id="a_Node000002"><a xlink:href="cc1352-launchpad_2include_2board_8h.html" target="_top" xlink:title="Board specific definitions for TI CC1352 LaunchPad.">
<polygon fill="white" stroke="#666666" points="72.25,-134.25 19.5,-134.25 19.5,-113.5 72.25,-113.5 72.25,-134.25"/>
<text text-anchor="middle" x="45.88" y="-120.75" font-family="Helvetica,sans-Serif" font-size="10.00">board.h</text>
</a>
</g>
</g>
<!-- Node1&#45;&gt;Node2 -->
<g id="edge1_Node000001_Node000002" class="edge">
<title>Node1&#45;&gt;Node2</title>
<g id="a_edge1_Node000001_Node000002"><a xlink:title=" ">
<path fill="none" stroke="#63b8ff" d="M76.84,-169.94C71.38,-161.99 64.75,-152.34 59.03,-144.02"/>
<polygon fill="#63b8ff" stroke="#63b8ff" points="62.04,-142.22 53.49,-135.96 56.27,-146.19 62.04,-142.22"/>
</a>
</g>
</g>
<!-- Node7 -->
<g id="Node000007" class="node">
<title>Node7</title>
<g id="a_Node000007"><a xlink:href="periph_8h.html" target="_top" xlink:title="Parameter definitions for mapping peripherals directly to SAUL.">
<polygon fill="white" stroke="#666666" points="172.38,-134.25 93.38,-134.25 93.38,-113.5 172.38,-113.5 172.38,-134.25"/>
<text text-anchor="middle" x="132.88" y="-120.75" font-family="Helvetica,sans-Serif" font-size="10.00">saul/periph.h</text>
</a>
</g>
</g>
<!-- Node1&#45;&gt;Node7 -->
<g id="edge6_Node000001_Node000007" class="edge">
<title>Node1&#45;&gt;Node7</title>
<g id="a_edge6_Node000001_Node000007"><a xlink:title=" ">
<path fill="none" stroke="#63b8ff" d="M99.7,-169.94C105.61,-161.91 112.81,-152.13 118.98,-143.74"/>
<polygon fill="#63b8ff" stroke="#63b8ff" points="121.62,-146.06 124.73,-135.94 115.98,-141.91 121.62,-146.06"/>
</a>
</g>
</g>
<!-- Node3 -->
<g id="Node000003" class="node">
<title>Node3</title>
<g id="a_Node000003"><a xlink:href="drivers_2include_2periph_2gpio_8h.html" target="_top" xlink:title="Low&#45;level GPIO peripheral driver interface definitions.">
<polygon fill="white" stroke="#666666" points="79.75,-77.5 0,-77.5 0,-56.75 79.75,-56.75 79.75,-77.5"/>
<text text-anchor="middle" x="39.88" y="-64" font-family="Helvetica,sans-Serif" font-size="10.00">periph/gpio.h</text>
</a>
</g>
</g>
<!-- Node2&#45;&gt;Node3 -->
<g id="edge2_Node000002_Node000003" class="edge">
<title>Node2&#45;&gt;Node3</title>
<g id="a_edge2_Node000002_Node000003"><a xlink:title=" ">
<path fill="none" stroke="#63b8ff" d="M44.8,-113.09C44.08,-106.47 43.09,-97.47 42.19,-89.27"/>
<polygon fill="#63b8ff" stroke="#63b8ff" points="45.67,-88.89 41.1,-79.33 38.71,-89.65 45.67,-88.89"/>
</a>
</g>
</g>
<!-- Node4 -->
<g id="Node000004" class="node">
<title>Node4</title>
<g id="a_Node000004"><a xlink:title=" ">
<polygon fill="#e0e0e0" stroke="#999999" points="66.25,-20.75 13.5,-20.75 13.5,0 66.25,0 66.25,-20.75"/>
<text text-anchor="middle" x="39.88" y="-7.25" font-family="Helvetica,sans-Serif" font-size="10.00">limits.h</text>
</a>
</g>
</g>
<!-- Node3&#45;&gt;Node4 -->
<g id="edge3_Node000003_Node000004" class="edge">
<title>Node3&#45;&gt;Node4</title>
<g id="a_edge3_Node000003_Node000004"><a xlink:title=" ">
<path fill="none" stroke="#63b8ff" d="M39.88,-56.34C39.88,-49.72 39.88,-40.72 39.88,-32.52"/>
<polygon fill="#63b8ff" stroke="#63b8ff" points="43.38,-32.59 39.88,-22.59 36.38,-32.59 43.38,-32.59"/>
</a>
</g>
</g>
<!-- Node5 -->
<g id="Node000005" class="node">
<title>Node5</title>
<g id="a_Node000005"><a xlink:title=" ">
<polygon fill="#e0e0e0" stroke="#999999" points="163,-20.75 84.75,-20.75 84.75,0 163,0 163,-20.75"/>
<text text-anchor="middle" x="123.88" y="-7.25" font-family="Helvetica,sans-Serif" font-size="10.00">periph_cpu.h</text>
</a>
</g>
</g>
<!-- Node3&#45;&gt;Node5 -->
<g id="edge4_Node000003_Node000005" class="edge">
<title>Node3&#45;&gt;Node5</title>
<g id="a_edge4_Node000003_Node000005"><a xlink:title=" ">
<path fill="none" stroke="#63b8ff" d="M54.89,-56.34C67.32,-48.24 85.2,-36.58 99.65,-27.17"/>
<polygon fill="#63b8ff" stroke="#63b8ff" points="101.25,-30.3 107.72,-21.9 97.43,-24.43 101.25,-30.3"/>
</a>
</g>
</g>
<!-- Node6 -->
<g id="Node000006" class="node">
<title>Node6</title>
<g id="a_Node000006"><a xlink:title=" ">
<polygon fill="#e0e0e0" stroke="#999999" points="262.5,-20.75 181.25,-20.75 181.25,0 262.5,0 262.5,-20.75"/>
<text text-anchor="middle" x="221.88" y="-7.25" font-family="Helvetica,sans-Serif" font-size="10.00">periph_conf.h</text>
</a>
</g>
</g>
<!-- Node3&#45;&gt;Node6 -->
<g id="edge5_Node000003_Node000006" class="edge">
<title>Node3&#45;&gt;Node6</title>
<g id="a_edge5_Node000003_Node000006"><a xlink:title=" ">
<path fill="none" stroke="#63b8ff" d="M72.41,-56.34C101.96,-47.45 145.75,-34.27 178.31,-24.48"/>
<polygon fill="#63b8ff" stroke="#63b8ff" points="179.3,-27.84 187.86,-21.61 177.28,-21.14 179.3,-27.84"/>
</a>
</g>
</g>
<!-- Node7&#45;&gt;Node3 -->
<g id="edge7_Node000007_Node000003" class="edge">
<title>Node7&#45;&gt;Node3</title>
<g id="a_edge7_Node000007_Node000003"><a xlink:title=" ">
<path fill="none" stroke="#63b8ff" d="M116.25,-113.09C102.36,-104.91 82.31,-93.11 66.24,-83.65"/>
<polygon fill="#63b8ff" stroke="#63b8ff" points="68.06,-80.65 57.66,-78.6 64.5,-86.69 68.06,-80.65"/>
</a>
</g>
</g>
<!-- Node8 -->
<g id="Node000008" class="node">
<title>Node8</title>
<g id="a_Node000008"><a xlink:href="adc_8h.html" target="_top" xlink:title="Low&#45;level ADC peripheral driver interface definitions.">
<polygon fill="white" stroke="#666666" points="173.88,-77.5 97.88,-77.5 97.88,-56.75 173.88,-56.75 173.88,-77.5"/>
<text text-anchor="middle" x="135.88" y="-64" font-family="Helvetica,sans-Serif" font-size="10.00">periph/adc.h</text>
</a>
</g>
</g>
<!-- Node7&#45;&gt;Node8 -->
<g id="edge8_Node000007_Node000008" class="edge">
<title>Node7&#45;&gt;Node8</title>
<g id="a_edge8_Node000007_Node000008"><a xlink:title=" ">
<path fill="none" stroke="#63b8ff" d="M133.41,-113.09C133.77,-106.47 134.27,-97.47 134.72,-89.27"/>
<polygon fill="#63b8ff" stroke="#63b8ff" points="138.21,-89.52 135.26,-79.34 131.22,-89.13 138.21,-89.52"/>
</a>
</g>
</g>
<!-- Node10 -->
<g id="Node000010" class="node">
<title>Node10</title>
<g id="a_Node000010"><a xlink:href="pwm_8h.html" target="_top" xlink:title="Low&#45;level PWM peripheral driver interface definitions.">
<polygon fill="white" stroke="#666666" points="274.25,-77.5 191.5,-77.5 191.5,-56.75 274.25,-56.75 274.25,-77.5"/>
<text text-anchor="middle" x="232.88" y="-64" font-family="Helvetica,sans-Serif" font-size="10.00">periph/pwm.h</text>
</a>
</g>
</g>
<!-- Node7&#45;&gt;Node10 -->
<g id="edge13_Node000007_Node000010" class="edge">
<title>Node7&#45;&gt;Node10</title>
<g id="a_edge13_Node000007_Node000010"><a xlink:title=" ">
<path fill="none" stroke="#63b8ff" d="M150.75,-113.09C165.97,-104.76 188.07,-92.66 205.51,-83.11"/>
<polygon fill="#63b8ff" stroke="#63b8ff" points="206.73,-86.43 213.82,-78.56 203.37,-80.29 206.73,-86.43"/>
</a>
</g>
</g>
<!-- Node8&#45;&gt;Node4 -->
<g id="edge9_Node000008_Node000004" class="edge">
<title>Node8&#45;&gt;Node4</title>
<g id="a_edge9_Node000008_Node000004"><a xlink:title=" ">
<path fill="none" stroke="#63b8ff" d="M118.71,-56.34C104.24,-48.08 83.29,-36.13 66.62,-26.63"/>
<polygon fill="#63b8ff" stroke="#63b8ff" points="68.62,-23.74 58.2,-21.83 65.16,-29.82 68.62,-23.74"/>
</a>
</g>
</g>
<!-- Node8&#45;&gt;Node5 -->
<g id="edge11_Node000008_Node000005" class="edge">
<title>Node8&#45;&gt;Node5</title>
<g id="a_edge11_Node000008_Node000005"><a xlink:title=" ">
<path fill="none" stroke="#63b8ff" d="M133.73,-56.34C132.26,-49.64 130.26,-40.51 128.45,-32.23"/>
<polygon fill="#63b8ff" stroke="#63b8ff" points="131.89,-31.58 126.33,-22.56 125.05,-33.07 131.89,-31.58"/>
</a>
</g>
</g>
<!-- Node8&#45;&gt;Node6 -->
<g id="edge12_Node000008_Node000006" class="edge">
<title>Node8&#45;&gt;Node6</title>
<g id="a_edge12_Node000008_Node000006"><a xlink:title=" ">
<path fill="none" stroke="#63b8ff" d="M151.25,-56.34C163.97,-48.24 182.28,-36.58 197.07,-27.17"/>
<polygon fill="#63b8ff" stroke="#63b8ff" points="198.8,-30.21 205.36,-21.89 195.04,-24.31 198.8,-30.21"/>
</a>
</g>
</g>
<!-- Node9 -->
<g id="Node000009" class="node">
<title>Node9</title>
<g id="a_Node000009"><a xlink:title=" ">
<polygon fill="#e0e0e0" stroke="#999999" points="333.25,-20.75 280.5,-20.75 280.5,0 333.25,0 333.25,-20.75"/>
<text text-anchor="middle" x="306.88" y="-7.25" font-family="Helvetica,sans-Serif" font-size="10.00">stdint.h</text>
</a>
</g>
</g>
<!-- Node8&#45;&gt;Node9 -->
<g id="edge10_Node000008_Node000009" class="edge">
<title>Node8&#45;&gt;Node9</title>
<g id="a_edge10_Node000008_Node000009"><a xlink:title=" ">
<path fill="none" stroke="#63b8ff" d="M166.45,-56.34C195.28,-47.11 238.57,-33.25 269.45,-23.36"/>
<polygon fill="#63b8ff" stroke="#63b8ff" points="270.32,-26.75 278.78,-20.37 268.19,-20.09 270.32,-26.75"/>
</a>
</g>
</g>
<!-- Node10&#45;&gt;Node4 -->
<g id="edge15_Node000010_Node000004" class="edge">
<title>Node10&#45;&gt;Node4</title>
<g id="a_edge15_Node000010_Node000004"><a xlink:title=" ">
<path fill="none" stroke="#63b8ff" d="M198.37,-56.34C164.32,-46.68 112.42,-31.95 77.37,-22.01"/>
<polygon fill="#63b8ff" stroke="#63b8ff" points="78.66,-18.74 68.08,-19.38 76.75,-25.47 78.66,-18.74"/>
</a>
</g>
</g>
<!-- Node10&#45;&gt;Node5 -->
<g id="edge16_Node000010_Node000005" class="edge">
<title>Node10&#45;&gt;Node5</title>
<g id="a_edge16_Node000010_Node000005"><a xlink:title=" ">
<path fill="none" stroke="#63b8ff" d="M213.39,-56.34C196.73,-47.97 172.49,-35.79 153.44,-26.22"/>
<polygon fill="#63b8ff" stroke="#63b8ff" points="155.05,-23.12 144.55,-21.76 151.91,-29.37 155.05,-23.12"/>
</a>
</g>
</g>
<!-- Node10&#45;&gt;Node6 -->
<g id="edge17_Node000010_Node000006" class="edge">
<title>Node10&#45;&gt;Node6</title>
<g id="a_edge17_Node000010_Node000006"><a xlink:title=" ">
<path fill="none" stroke="#63b8ff" d="M230.91,-56.34C229.56,-49.64 227.73,-40.51 226.06,-32.23"/>
<polygon fill="#63b8ff" stroke="#63b8ff" points="229.52,-31.68 224.12,-22.56 222.66,-33.06 229.52,-31.68"/>
</a>
</g>
</g>
<!-- Node10&#45;&gt;Node9 -->
<g id="edge14_Node000010_Node000009" class="edge">
<title>Node10&#45;&gt;Node9</title>
<g id="a_edge14_Node000010_Node000009"><a xlink:title=" ">
<path fill="none" stroke="#63b8ff" d="M246.1,-56.34C256.84,-48.4 272.2,-37.03 284.79,-27.71"/>
<polygon fill="#63b8ff" stroke="#63b8ff" points="286.59,-30.74 292.54,-21.98 282.42,-25.11 286.59,-30.74"/>
</a>
</g>
</g>
</g>
</svg>
