<?xml version="1.0" encoding="UTF-8" standalone="no"?>
<!DOCTYPE svg PUBLIC "-//W3C//DTD SVG 1.1//EN"
 "http://www.w3.org/Graphics/SVG/1.1/DTD/svg11.dtd">
<!-- Generated by graphviz version 12.1.1 (0)
 -->
<!-- Title: cpu/cc2538/include/cpu_conf.h Pages: 1 -->
<svg width="1013pt" height="269pt"
 viewBox="0.00 0.00 1013.00 268.50" xmlns="http://www.w3.org/2000/svg" xmlns:xlink="http://www.w3.org/1999/xlink">
<g id="graph0" class="graph" transform="scale(1 1) rotate(0) translate(4 264.5)">
<title>cpu/cc2538/include/cpu_conf.h</title>
<!-- Node1 -->
<g id="Node000001" class="node">
<title>Node1</title>
<g id="a_Node000001"><a xlink:title="Implementation specific CPU configuration options.">
<polygon fill="#999999" stroke="#666666" points="558,-260.5 449,-260.5 449,-227 558,-227 558,-260.5"/>
<text text-anchor="start" x="457" y="-247" font-family="Helvetica,sans-Serif" font-size="10.00">cpu/cc2538/include</text>
<text text-anchor="middle" x="503.5" y="-234.25" font-family="Helvetica,sans-Serif" font-size="10.00">/cpu_conf.h</text>
</a>
</g>
</g>
<!-- Node2 -->
<g id="Node000002" class="node">
<title>Node2</title>
<g id="a_Node000002"><a xlink:href="kernel__defines_8h.html" target="_top" xlink:title="Common macros and compiler attributes/pragmas configuration.">
<polygon fill="white" stroke="#666666" points="167.62,-191 71.38,-191 71.38,-170.25 167.62,-170.25 167.62,-191"/>
<text text-anchor="middle" x="119.5" y="-177.5" font-family="Helvetica,sans-Serif" font-size="10.00">kernel_defines.h</text>
</a>
</g>
</g>
<!-- Node1&#45;&gt;Node2 -->
<g id="edge1_Node000001_Node000002" class="edge">
<title>Node1&#45;&gt;Node2</title>
<g id="a_edge1_Node000001_Node000002"><a xlink:title=" ">
<path fill="none" stroke="#63b8ff" d="M448.52,-234.15C385.88,-224.33 280.1,-207.69 179.32,-191.45"/>
<polygon fill="#63b8ff" stroke="#63b8ff" points="179.93,-188 169.5,-189.86 178.82,-194.91 179.93,-188"/>
</a>
</g>
</g>
<!-- Node10 -->
<g id="Node000010" class="node">
<title>Node10</title>
<g id="a_Node000010"><a xlink:title=" ">
<polygon fill="#e0e0e0" stroke="#999999" points="301.75,-191 185.25,-191 185.25,-170.25 301.75,-170.25 301.75,-191"/>
<text text-anchor="middle" x="243.5" y="-177.5" font-family="Helvetica,sans-Serif" font-size="10.00">cpu_conf_common.h</text>
</a>
</g>
</g>
<!-- Node1&#45;&gt;Node10 -->
<g id="edge12_Node000001_Node000010" class="edge">
<title>Node1&#45;&gt;Node10</title>
<g id="a_edge12_Node000001_Node000010"><a xlink:title=" ">
<path fill="none" stroke="#63b8ff" d="M448.68,-229.86C403.86,-219.33 340.88,-204.52 296.55,-194.1"/>
<polygon fill="#63b8ff" stroke="#63b8ff" points="297.43,-190.71 286.9,-191.83 295.83,-197.52 297.43,-190.71"/>
</a>
</g>
</g>
<!-- Node11 -->
<g id="Node000011" class="node">
<title>Node11</title>
<g id="a_Node000011"><a xlink:href="cc2538_8h.html" target="_top" xlink:title="CC2538 MCU interrupt and register definitions.">
<polygon fill="white" stroke="#666666" points="645.25,-134.25 585.75,-134.25 585.75,-113.5 645.25,-113.5 645.25,-134.25"/>
<text text-anchor="middle" x="615.5" y="-120.75" font-family="Helvetica,sans-Serif" font-size="10.00">cc2538.h</text>
</a>
</g>
</g>
<!-- Node1&#45;&gt;Node11 -->
<g id="edge13_Node000001_Node000011" class="edge">
<title>Node1&#45;&gt;Node11</title>
<g id="a_edge13_Node000001_Node000011"><a xlink:title=" ">
<path fill="none" stroke="#63b8ff" d="M479.21,-226.67C459.81,-211.82 438.07,-189.24 452.5,-170.25 467.19,-150.91 530.9,-137.63 574.18,-130.64"/>
<polygon fill="#63b8ff" stroke="#63b8ff" points="574.68,-134.11 584.02,-129.11 573.6,-127.19 574.68,-134.11"/>
</a>
</g>
</g>
<!-- Node13 -->
<g id="Node000013" class="node">
<title>Node13</title>
<g id="a_Node000013"><a xlink:href="cc2538__gpio_8h.html" target="_top" xlink:title="Driver for the cc2538 GPIO controller.">
<polygon fill="white" stroke="#666666" points="405.38,-191 319.62,-191 319.62,-170.25 405.38,-170.25 405.38,-191"/>
<text text-anchor="middle" x="362.5" y="-177.5" font-family="Helvetica,sans-Serif" font-size="10.00">cc2538_gpio.h</text>
</a>
</g>
</g>
<!-- Node1&#45;&gt;Node13 -->
<g id="edge15_Node000001_Node000013" class="edge">
<title>Node1&#45;&gt;Node13</title>
<g id="a_edge15_Node000001_Node000013"><a xlink:title=" ">
<path fill="none" stroke="#63b8ff" d="M466.08,-226.53C444.13,-217.01 416.64,-205.1 395.5,-195.93"/>
<polygon fill="#63b8ff" stroke="#63b8ff" points="397.04,-192.78 386.47,-192.02 394.25,-199.21 397.04,-192.78"/>
</a>
</g>
</g>
<!-- Node14 -->
<g id="Node000014" class="node">
<title>Node14</title>
<g id="a_Node000014"><a xlink:href="cc2538__uart_8h.html" target="_top" xlink:title="CC2538 UART interface.">
<polygon fill="white" stroke="#666666" points="545.62,-191 461.38,-191 461.38,-170.25 545.62,-170.25 545.62,-191"/>
<text text-anchor="middle" x="503.5" y="-177.5" font-family="Helvetica,sans-Serif" font-size="10.00">cc2538_uart.h</text>
</a>
</g>
</g>
<!-- Node1&#45;&gt;Node14 -->
<g id="edge18_Node000001_Node000014" class="edge">
<title>Node1&#45;&gt;Node14</title>
<g id="a_edge18_Node000001_Node000014"><a xlink:title=" ">
<path fill="none" stroke="#63b8ff" d="M503.5,-226.69C503.5,-219.35 503.5,-210.57 503.5,-202.71"/>
<polygon fill="#63b8ff" stroke="#63b8ff" points="507,-202.98 503.5,-192.98 500,-202.98 507,-202.98"/>
</a>
</g>
</g>
<!-- Node15 -->
<g id="Node000015" class="node">
<title>Node15</title>
<g id="a_Node000015"><a xlink:href="cc2538__gptimer_8h.html" target="_top" xlink:title="CC2538 General Purpose Timer (GPTIMER) driver.">
<polygon fill="white" stroke="#666666" points="1005,-191 902,-191 902,-170.25 1005,-170.25 1005,-191"/>
<text text-anchor="middle" x="953.5" y="-177.5" font-family="Helvetica,sans-Serif" font-size="10.00">cc2538_gptimer.h</text>
</a>
</g>
</g>
<!-- Node1&#45;&gt;Node15 -->
<g id="edge20_Node000001_Node000015" class="edge">
<title>Node1&#45;&gt;Node15</title>
<g id="a_edge20_Node000001_Node000015"><a xlink:title=" ">
<path fill="none" stroke="#63b8ff" d="M558.31,-235.81C631.45,-226.48 765.33,-209.12 890.31,-191.29"/>
<polygon fill="#63b8ff" stroke="#63b8ff" points="890.69,-194.77 900.1,-189.89 889.7,-187.84 890.69,-194.77"/>
</a>
</g>
</g>
<!-- Node16 -->
<g id="Node000016" class="node">
<title>Node16</title>
<g id="a_Node000016"><a xlink:href="cc2538__soc__adc_8h.html" target="_top" xlink:title="CC2538 SOC ADC interface.">
<polygon fill="white" stroke="#666666" points="667.38,-191 563.62,-191 563.62,-170.25 667.38,-170.25 667.38,-191"/>
<text text-anchor="middle" x="615.5" y="-177.5" font-family="Helvetica,sans-Serif" font-size="10.00">cc2538_soc_adc.h</text>
</a>
</g>
</g>
<!-- Node1&#45;&gt;Node16 -->
<g id="edge23_Node000001_Node000016" class="edge">
<title>Node1&#45;&gt;Node16</title>
<g id="a_edge23_Node000001_Node000016"><a xlink:title=" ">
<path fill="none" stroke="#63b8ff" d="M533.22,-226.53C550.18,-217.27 571.3,-205.75 587.89,-196.69"/>
<polygon fill="#63b8ff" stroke="#63b8ff" points="589.13,-200 596.23,-192.14 585.78,-193.86 589.13,-200"/>
</a>
</g>
</g>
<!-- Node17 -->
<g id="Node000017" class="node">
<title>Node17</title>
<g id="a_Node000017"><a xlink:href="cc2538__ssi_8h.html" target="_top" xlink:title="CC2538 SSI interface.">
<polygon fill="white" stroke="#666666" points="763.62,-191 685.38,-191 685.38,-170.25 763.62,-170.25 763.62,-191"/>
<text text-anchor="middle" x="724.5" y="-177.5" font-family="Helvetica,sans-Serif" font-size="10.00">cc2538_ssi.h</text>
</a>
</g>
</g>
<!-- Node1&#45;&gt;Node17 -->
<g id="edge25_Node000001_Node000017" class="edge">
<title>Node1&#45;&gt;Node17</title>
<g id="a_edge25_Node000001_Node000017"><a xlink:title=" ">
<path fill="none" stroke="#63b8ff" d="M558.41,-227.56C595.21,-217.38 643.13,-204.13 678.03,-194.48"/>
<polygon fill="#63b8ff" stroke="#63b8ff" points="678.71,-197.92 687.42,-191.88 676.85,-191.17 678.71,-197.92"/>
</a>
</g>
</g>
<!-- Node18 -->
<g id="Node000018" class="node">
<title>Node18</title>
<g id="a_Node000018"><a xlink:href="cc2538__sys__ctrl_8h.html" target="_top" xlink:title="CC2538 System Control interface.">
<polygon fill="white" stroke="#666666" points="883.62,-191 781.38,-191 781.38,-170.25 883.62,-170.25 883.62,-191"/>
<text text-anchor="middle" x="832.5" y="-177.5" font-family="Helvetica,sans-Serif" font-size="10.00">cc2538_sys_ctrl.h</text>
</a>
</g>
</g>
<!-- Node1&#45;&gt;Node18 -->
<g id="edge27_Node000001_Node000018" class="edge">
<title>Node1&#45;&gt;Node18</title>
<g id="a_edge27_Node000001_Node000018"><a xlink:title=" ">
<path fill="none" stroke="#63b8ff" d="M558.2,-232.59C616.51,-221.75 708.7,-204.63 769.88,-193.26"/>
<polygon fill="#63b8ff" stroke="#63b8ff" points="770.25,-196.75 779.44,-191.48 768.97,-189.87 770.25,-196.75"/>
</a>
</g>
</g>
<!-- Node3 -->
<g id="Node000003" class="node">
<title>Node3</title>
<g id="a_Node000003"><a xlink:href="modules_8h.html" target="_top" xlink:title="Common macros and compiler attributes/pragmas configuration.">
<polygon fill="white" stroke="#666666" points="67,-134.25 0,-134.25 0,-113.5 67,-113.5 67,-134.25"/>
<text text-anchor="middle" x="33.5" y="-120.75" font-family="Helvetica,sans-Serif" font-size="10.00">modules.h</text>
</a>
</g>
</g>
<!-- Node2&#45;&gt;Node3 -->
<g id="edge2_Node000002_Node000003" class="edge">
<title>Node2&#45;&gt;Node3</title>
<g id="a_edge2_Node000002_Node000003"><a xlink:title=" ">
<path fill="none" stroke="#63b8ff" d="M104.12,-169.84C91.41,-161.74 73.1,-150.08 58.31,-140.67"/>
<polygon fill="#63b8ff" stroke="#63b8ff" points="60.33,-137.81 50.02,-135.39 56.57,-143.71 60.33,-137.81"/>
</a>
</g>
</g>
<!-- Node4 -->
<g id="Node000004" class="node">
<title>Node4</title>
<g id="a_Node000004"><a xlink:href="riot__version_8h.html" target="_top" xlink:title="Common macros and compiler attributes/pragmas configuration.">
<polygon fill="white" stroke="#666666" points="135.88,-77.5 53.12,-77.5 53.12,-56.75 135.88,-56.75 135.88,-77.5"/>
<text text-anchor="middle" x="94.5" y="-64" font-family="Helvetica,sans-Serif" font-size="10.00">riot_version.h</text>
</a>
</g>
</g>
<!-- Node2&#45;&gt;Node4 -->
<g id="edge3_Node000002_Node000004" class="edge">
<title>Node2&#45;&gt;Node4</title>
<g id="a_edge3_Node000002_Node000004"><a xlink:title=" ">
<path fill="none" stroke="#63b8ff" d="M117.37,-170.12C113.37,-152.27 104.64,-113.36 99.2,-89.09"/>
<polygon fill="#63b8ff" stroke="#63b8ff" points="102.63,-88.39 97.03,-79.4 95.8,-89.93 102.63,-88.39"/>
</a>
</g>
</g>
<!-- Node6 -->
<g id="Node000006" class="node">
<title>Node6</title>
<g id="a_Node000006"><a xlink:href="compiler__hints_8h.html" target="_top" xlink:title="Common macros and compiler attributes/pragmas configuration.">
<polygon fill="white" stroke="#666666" points="221,-134.25 124,-134.25 124,-113.5 221,-113.5 221,-134.25"/>
<text text-anchor="middle" x="172.5" y="-120.75" font-family="Helvetica,sans-Serif" font-size="10.00">compiler_hints.h</text>
</a>
</g>
</g>
<!-- Node2&#45;&gt;Node6 -->
<g id="edge5_Node000002_Node000006" class="edge">
<title>Node2&#45;&gt;Node6</title>
<g id="a_edge5_Node000002_Node000006"><a xlink:title=" ">
<path fill="none" stroke="#63b8ff" d="M128.98,-169.84C136.29,-162.28 146.59,-151.64 155.34,-142.6"/>
<polygon fill="#63b8ff" stroke="#63b8ff" points="157.61,-145.29 162.05,-135.67 152.58,-140.42 157.61,-145.29"/>
</a>
</g>
</g>
<!-- Node8 -->
<g id="Node000008" class="node">
<title>Node8</title>
<g id="a_Node000008"><a xlink:href="container_8h.html" target="_top" xlink:title="Common macros and compiler attributes/pragmas configuration.">
<polygon fill="white" stroke="#666666" points="310.88,-134.25 240.12,-134.25 240.12,-113.5 310.88,-113.5 310.88,-134.25"/>
<text text-anchor="middle" x="275.5" y="-120.75" font-family="Helvetica,sans-Serif" font-size="10.00">container.h</text>
</a>
</g>
</g>
<!-- Node2&#45;&gt;Node8 -->
<g id="edge9_Node000002_Node000008" class="edge">
<title>Node2&#45;&gt;Node8</title>
<g id="a_edge9_Node000002_Node000008"><a xlink:title=" ">
<path fill="none" stroke="#63b8ff" d="M147.39,-169.84C172.38,-161.07 209.27,-148.12 237.06,-138.37"/>
<polygon fill="#63b8ff" stroke="#63b8ff" points="237.88,-141.79 246.16,-135.17 235.57,-135.18 237.88,-141.79"/>
</a>
</g>
</g>
<!-- Node5 -->
<g id="Node000005" class="node">
<title>Node5</title>
<g id="a_Node000005"><a xlink:title=" ">
<polygon fill="#e0e0e0" stroke="#999999" points="273.88,-20.75 221.12,-20.75 221.12,0 273.88,0 273.88,-20.75"/>
<text text-anchor="middle" x="247.5" y="-7.25" font-family="Helvetica,sans-Serif" font-size="10.00">stdint.h</text>
</a>
</g>
</g>
<!-- Node4&#45;&gt;Node5 -->
<g id="edge4_Node000004_Node000005" class="edge">
<title>Node4&#45;&gt;Node5</title>
<g id="a_edge4_Node000004_Node000005"><a xlink:title=" ">
<path fill="none" stroke="#63b8ff" d="M121.85,-56.34C146.41,-47.55 182.67,-34.57 209.94,-24.82"/>
<polygon fill="#63b8ff" stroke="#63b8ff" points="210.98,-28.16 219.22,-21.5 208.62,-21.57 210.98,-28.16"/>
</a>
</g>
</g>
<!-- Node6&#45;&gt;Node5 -->
<g id="edge8_Node000006_Node000005" class="edge">
<title>Node6&#45;&gt;Node5</title>
<g id="a_edge8_Node000006_Node000005"><a xlink:title=" ">
<path fill="none" stroke="#63b8ff" d="M171.68,-113.09C171.02,-99.42 171.6,-74.31 182.5,-56.75 190.33,-44.15 203.09,-34.11 215.24,-26.71"/>
<polygon fill="#63b8ff" stroke="#63b8ff" points="216.87,-29.82 223.87,-21.87 213.44,-23.72 216.87,-29.82"/>
</a>
</g>
</g>
<!-- Node7 -->
<g id="Node000007" class="node">
<title>Node7</title>
<g id="a_Node000007"><a xlink:href="assert_8h.html" target="_top" xlink:title="POSIX.1&#45;2008 compliant version of the assert macro.">
<polygon fill="white" stroke="#666666" points="247,-77.5 192,-77.5 192,-56.75 247,-56.75 247,-77.5"/>
<text text-anchor="middle" x="219.5" y="-64" font-family="Helvetica,sans-Serif" font-size="10.00">assert.h</text>
</a>
</g>
</g>
<!-- Node6&#45;&gt;Node7 -->
<g id="edge6_Node000006_Node000007" class="edge">
<title>Node6&#45;&gt;Node7</title>
<g id="a_edge6_Node000006_Node000007"><a xlink:title=" ">
<path fill="none" stroke="#63b8ff" d="M180.9,-113.09C187.25,-105.69 196.15,-95.32 203.8,-86.41"/>
<polygon fill="#63b8ff" stroke="#63b8ff" points="206.33,-88.84 210.18,-78.98 201.01,-84.28 206.33,-88.84"/>
</a>
</g>
</g>
<!-- Node7&#45;&gt;Node5 -->
<g id="edge7_Node000007_Node000005" class="edge">
<title>Node7&#45;&gt;Node5</title>
<g id="a_edge7_Node000007_Node000005"><a xlink:title=" ">
<path fill="none" stroke="#63b8ff" d="M224.51,-56.34C228.09,-49.33 233.04,-39.66 237.42,-31.08"/>
<polygon fill="#63b8ff" stroke="#63b8ff" points="240.41,-32.92 241.85,-22.43 234.18,-29.74 240.41,-32.92"/>
</a>
</g>
</g>
<!-- Node8&#45;&gt;Node5 -->
<g id="edge11_Node000008_Node000005" class="edge">
<title>Node8&#45;&gt;Node5</title>
<g id="a_edge11_Node000008_Node000005"><a xlink:title=" ">
<path fill="none" stroke="#63b8ff" d="M273.11,-113.37C268.63,-95.52 258.86,-56.61 252.77,-32.34"/>
<polygon fill="#63b8ff" stroke="#63b8ff" points="256.16,-31.49 250.33,-22.64 249.37,-33.19 256.16,-31.49"/>
</a>
</g>
</g>
<!-- Node9 -->
<g id="Node000009" class="node">
<title>Node9</title>
<g id="a_Node000009"><a xlink:title=" ">
<polygon fill="#e0e0e0" stroke="#999999" points="359,-77.5 304,-77.5 304,-56.75 359,-56.75 359,-77.5"/>
<text text-anchor="middle" x="331.5" y="-64" font-family="Helvetica,sans-Serif" font-size="10.00">stddef.h</text>
</a>
</g>
</g>
<!-- Node8&#45;&gt;Node9 -->
<g id="edge10_Node000008_Node000009" class="edge">
<title>Node8&#45;&gt;Node9</title>
<g id="a_edge10_Node000008_Node000009"><a xlink:title=" ">
<path fill="none" stroke="#63b8ff" d="M285.51,-113.09C293.24,-105.53 304.13,-94.89 313.37,-85.85"/>
<polygon fill="#63b8ff" stroke="#63b8ff" points="315.79,-88.38 320.49,-78.89 310.9,-83.37 315.79,-88.38"/>
</a>
</g>
</g>
<!-- Node12 -->
<g id="Node000012" class="node">
<title>Node12</title>
<g id="a_Node000012"><a xlink:title=" ">
<polygon fill="#e0e0e0" stroke="#999999" points="651.62,-77.5 579.38,-77.5 579.38,-56.75 651.62,-56.75 651.62,-77.5"/>
<text text-anchor="middle" x="615.5" y="-64" font-family="Helvetica,sans-Serif" font-size="10.00">core_cm3.h</text>
</a>
</g>
</g>
<!-- Node11&#45;&gt;Node12 -->
<g id="edge14_Node000011_Node000012" class="edge">
<title>Node11&#45;&gt;Node12</title>
<g id="a_edge14_Node000011_Node000012"><a xlink:title=" ">
<path fill="none" stroke="#63b8ff" d="M615.5,-113.09C615.5,-106.47 615.5,-97.47 615.5,-89.27"/>
<polygon fill="#63b8ff" stroke="#63b8ff" points="619,-89.34 615.5,-79.34 612,-89.34 619,-89.34"/>
</a>
</g>
</g>
<!-- Node13&#45;&gt;Node5 -->
<g id="edge16_Node000013_Node000005" class="edge">
<title>Node13&#45;&gt;Node5</title>
<g id="a_edge16_Node000013_Node000005"><a xlink:title=" ">
<path fill="none" stroke="#63b8ff" d="M366.6,-169.93C375.31,-147.66 392.95,-92.03 368.5,-56.75 349.91,-29.93 313.38,-18.94 285.3,-14.45"/>
<polygon fill="#63b8ff" stroke="#63b8ff" points="286.13,-11.03 275.74,-13.14 285.18,-17.96 286.13,-11.03"/>
</a>
</g>
</g>
<!-- Node13&#45;&gt;Node11 -->
<g id="edge17_Node000013_Node000011" class="edge">
<title>Node13&#45;&gt;Node11</title>
<g id="a_edge17_Node000013_Node000011"><a xlink:title=" ">
<path fill="none" stroke="#63b8ff" d="M405.7,-170.28C452.93,-160.05 528.05,-143.8 574.42,-133.77"/>
<polygon fill="#63b8ff" stroke="#63b8ff" points="575.04,-137.21 584.08,-131.68 573.56,-130.37 575.04,-137.21"/>
</a>
</g>
</g>
<!-- Node14&#45;&gt;Node11 -->
<g id="edge19_Node000014_Node000011" class="edge">
<title>Node14&#45;&gt;Node11</title>
<g id="a_edge19_Node000014_Node000011"><a xlink:title=" ">
<path fill="none" stroke="#63b8ff" d="M523.52,-169.84C540.72,-161.43 565.78,-149.18 585.4,-139.59"/>
<polygon fill="#63b8ff" stroke="#63b8ff" points="586.84,-142.78 594.29,-135.24 583.77,-136.49 586.84,-142.78"/>
</a>
</g>
</g>
<!-- Node15&#45;&gt;Node5 -->
<g id="edge21_Node000015_Node000005" class="edge">
<title>Node15&#45;&gt;Node5</title>
<g id="a_edge21_Node000015_Node000005"><a xlink:title=" ">
<path fill="none" stroke="#63b8ff" d="M935.3,-169.79C890.22,-145.93 769.17,-84.88 660.5,-56.75 525.56,-21.82 359.01,-13.77 285.46,-11.92"/>
<polygon fill="#63b8ff" stroke="#63b8ff" points="285.65,-8.43 275.58,-11.7 285.5,-15.42 285.65,-8.43"/>
</a>
</g>
</g>
<!-- Node15&#45;&gt;Node11 -->
<g id="edge22_Node000015_Node000011" class="edge">
<title>Node15&#45;&gt;Node11</title>
<g id="a_edge22_Node000015_Node000011"><a xlink:title=" ">
<path fill="none" stroke="#63b8ff" d="M901.8,-171.25C834.56,-160.36 718.45,-141.55 656.78,-131.56"/>
<polygon fill="#63b8ff" stroke="#63b8ff" points="657.49,-128.13 647.06,-129.99 656.37,-135.04 657.49,-128.13"/>
</a>
</g>
</g>
<!-- Node16&#45;&gt;Node11 -->
<g id="edge24_Node000016_Node000011" class="edge">
<title>Node16&#45;&gt;Node11</title>
<g id="a_edge24_Node000016_Node000011"><a xlink:title=" ">
<path fill="none" stroke="#63b8ff" d="M615.5,-169.84C615.5,-163.22 615.5,-154.22 615.5,-146.02"/>
<polygon fill="#63b8ff" stroke="#63b8ff" points="619,-146.09 615.5,-136.09 612,-146.09 619,-146.09"/>
</a>
</g>
</g>
<!-- Node17&#45;&gt;Node11 -->
<g id="edge26_Node000017_Node000011" class="edge">
<title>Node17&#45;&gt;Node11</title>
<g id="a_edge26_Node000017_Node000011"><a xlink:title=" ">
<path fill="none" stroke="#63b8ff" d="M705.01,-169.84C688.35,-161.47 664.12,-149.29 645.06,-139.72"/>
<polygon fill="#63b8ff" stroke="#63b8ff" points="646.68,-136.62 636.17,-135.26 643.54,-142.87 646.68,-136.62"/>
</a>
</g>
</g>
<!-- Node18&#45;&gt;Node11 -->
<g id="edge28_Node000018_Node000011" class="edge">
<title>Node18&#45;&gt;Node11</title>
<g id="a_edge28_Node000018_Node000011"><a xlink:title=" ">
<path fill="none" stroke="#63b8ff" d="M793.45,-169.77C754.81,-160.02 695.87,-145.15 656.54,-135.23"/>
<polygon fill="#63b8ff" stroke="#63b8ff" points="657.53,-131.87 646.97,-132.82 655.81,-138.66 657.53,-131.87"/>
</a>
</g>
</g>
</g>
</svg>
