<?xml version="1.0" encoding="UTF-8" standalone="no"?>
<!DOCTYPE svg PUBLIC "-//W3C//DTD SVG 1.1//EN"
 "http://www.w3.org/Graphics/SVG/1.1/DTD/svg11.dtd">
<!-- Generated by graphviz version 12.1.1 (0)
 -->
<!-- Title: cpu/cc2538/include/cc2538_rfcore.h Pages: 1 -->
<svg width="117pt" height="155pt"
 viewBox="0.00 0.00 117.00 155.00" xmlns="http://www.w3.org/2000/svg" xmlns:xlink="http://www.w3.org/1999/xlink">
<g id="graph0" class="graph" transform="scale(1 1) rotate(0) translate(4 151)">
<title>cpu/cc2538/include/cc2538_rfcore.h</title>
<!-- Node1 -->
<g id="Node000001" class="node">
<title>Node1</title>
<g id="a_Node000001"><a xlink:title="CC2538 RF core interface.">
<polygon fill="#999999" stroke="#666666" points="109,-147 0,-147 0,-113.5 109,-113.5 109,-147"/>
<text text-anchor="start" x="8" y="-133.5" font-family="Helvetica,sans-Serif" font-size="10.00">cpu/cc2538/include</text>
<text text-anchor="middle" x="54.5" y="-120.75" font-family="Helvetica,sans-Serif" font-size="10.00">/cc2538_rfcore.h</text>
</a>
</g>
</g>
<!-- Node2 -->
<g id="Node000002" class="node">
<title>Node2</title>
<g id="a_Node000002"><a xlink:href="cc2538_8h.html" target="_top" xlink:title="CC2538 MCU interrupt and register definitions.">
<polygon fill="white" stroke="#666666" points="84.25,-77.5 24.75,-77.5 24.75,-56.75 84.25,-56.75 84.25,-77.5"/>
<text text-anchor="middle" x="54.5" y="-64" font-family="Helvetica,sans-Serif" font-size="10.00">cc2538.h</text>
</a>
</g>
</g>
<!-- Node1&#45;&gt;Node2 -->
<g id="edge1_Node000001_Node000002" class="edge">
<title>Node1&#45;&gt;Node2</title>
<g id="a_edge1_Node000001_Node000002"><a xlink:title=" ">
<path fill="none" stroke="#63b8ff" d="M54.5,-113.19C54.5,-105.85 54.5,-97.07 54.5,-89.21"/>
<polygon fill="#63b8ff" stroke="#63b8ff" points="58,-89.48 54.5,-79.48 51,-89.48 58,-89.48"/>
</a>
</g>
</g>
<!-- Node3 -->
<g id="Node000003" class="node">
<title>Node3</title>
<g id="a_Node000003"><a xlink:title=" ">
<polygon fill="#e0e0e0" stroke="#999999" points="90.62,-20.75 18.38,-20.75 18.38,0 90.62,0 90.62,-20.75"/>
<text text-anchor="middle" x="54.5" y="-7.25" font-family="Helvetica,sans-Serif" font-size="10.00">core_cm3.h</text>
</a>
</g>
</g>
<!-- Node2&#45;&gt;Node3 -->
<g id="edge2_Node000002_Node000003" class="edge">
<title>Node2&#45;&gt;Node3</title>
<g id="a_edge2_Node000002_Node000003"><a xlink:title=" ">
<path fill="none" stroke="#63b8ff" d="M54.5,-56.34C54.5,-49.72 54.5,-40.72 54.5,-32.52"/>
<polygon fill="#63b8ff" stroke="#63b8ff" points="58,-32.59 54.5,-22.59 51,-32.59 58,-32.59"/>
</a>
</g>
</g>
</g>
</svg>
