<?xml version="1.0" encoding="UTF-8" standalone="no"?>
<!DOCTYPE svg PUBLIC "-//W3C//DTD SVG 1.1//EN"
 "http://www.w3.org/Graphics/SVG/1.1/DTD/svg11.dtd">
<!-- Generated by graphviz version 12.1.1 (0)
 -->
<!-- Title: cpu/cc2538/include/cc2538_gpio.h Pages: 1 -->
<svg width="582pt" height="111pt"
 viewBox="0.00 0.00 582.38 111.00" xmlns="http://www.w3.org/2000/svg" xmlns:xlink="http://www.w3.org/1999/xlink">
<g id="graph0" class="graph" transform="scale(1 1) rotate(0) translate(4 107)">
<title>cpu/cc2538/include/cc2538_gpio.h</title>
<!-- Node1 -->
<g id="Node000001" class="node">
<title>Node1</title>
<g id="a_Node000001"><a xlink:title="Driver for the cc2538 GPIO controller.">
<polygon fill="#999999" stroke="#666666" points="350.38,-103 241.38,-103 241.38,-69.5 350.38,-69.5 350.38,-103"/>
<text text-anchor="start" x="249.38" y="-89.5" font-family="Helvetica,sans-Serif" font-size="10.00">cpu/cc2538/include</text>
<text text-anchor="middle" x="295.88" y="-76.75" font-family="Helvetica,sans-Serif" font-size="10.00">/cc2538_gpio.h</text>
</a>
</g>
</g>
<!-- Node2 -->
<g id="Node000002" class="node">
<title>Node2</title>
<g id="a_Node000002"><a xlink:href="boards_2omote_2include_2periph__conf_8h.html" target="_top" xlink:title="Peripheral MCU configuration for the omote board.">
<polygon fill="white" stroke="#666666" points="121.75,-33.5 0,-33.5 0,0 121.75,0 121.75,-33.5"/>
<text text-anchor="start" x="8" y="-20" font-family="Helvetica,sans-Serif" font-size="10.00">boards/omote/include</text>
<text text-anchor="middle" x="60.88" y="-7.25" font-family="Helvetica,sans-Serif" font-size="10.00">/periph_conf.h</text>
</a>
</g>
</g>
<!-- Node1&#45;&gt;Node2 -->
<g id="edge1_Node000001_Node000002" class="edge">
<title>Node1&#45;&gt;Node2</title>
<g id="a_edge1_Node000001_Node000002"><a xlink:title=" ">
<path fill="none" stroke="#63b8ff" d="M230.33,-66.42C194.83,-56.23 151.4,-43.75 117.4,-33.99"/>
<polygon fill="#63b8ff" stroke="#63b8ff" points="229.04,-69.69 239.62,-69.09 230.97,-62.97 229.04,-69.69"/>
</a>
</g>
</g>
<!-- Node3 -->
<g id="Node000003" class="node">
<title>Node3</title>
<g id="a_Node000003"><a xlink:href="boards_2openmote-b_2include_2periph__conf_8h.html" target="_top" xlink:title="Peripheral MCU configuration for the OpenMote&#45;B board.">
<polygon fill="white" stroke="#666666" points="289.62,-33.5 140.12,-33.5 140.12,0 289.62,0 289.62,-33.5"/>
<text text-anchor="start" x="148.12" y="-20" font-family="Helvetica,sans-Serif" font-size="10.00">boards/openmote&#45;b/include</text>
<text text-anchor="middle" x="214.88" y="-7.25" font-family="Helvetica,sans-Serif" font-size="10.00">/periph_conf.h</text>
</a>
</g>
</g>
<!-- Node1&#45;&gt;Node3 -->
<g id="edge2_Node000001_Node000003" class="edge">
<title>Node1&#45;&gt;Node3</title>
<g id="a_edge2_Node000001_Node000003"><a xlink:title=" ">
<path fill="none" stroke="#63b8ff" d="M268.11,-62.11C256.95,-52.81 244.35,-42.31 234.21,-33.87"/>
<polygon fill="#63b8ff" stroke="#63b8ff" points="265.59,-64.57 275.52,-68.28 270.07,-59.19 265.59,-64.57"/>
</a>
</g>
</g>
<!-- Node4 -->
<g id="Node000004" class="node">
<title>Node4</title>
<g id="a_Node000004"><a xlink:href="boards_2openmote-cc2538_2include_2periph__conf_8h.html" target="_top" xlink:title="Peripheral MCU configuration for the OpenMote&#45;cc2538 board.">
<polygon fill="white" stroke="#666666" points="447.75,-33.5 308,-33.5 308,0 447.75,0 447.75,-33.5"/>
<text text-anchor="start" x="316" y="-20" font-family="Helvetica,sans-Serif" font-size="10.00">boards/openmote&#45;cc2538</text>
<text text-anchor="middle" x="377.88" y="-7.25" font-family="Helvetica,sans-Serif" font-size="10.00">/include/periph_conf.h</text>
</a>
</g>
</g>
<!-- Node1&#45;&gt;Node4 -->
<g id="edge3_Node000001_Node000004" class="edge">
<title>Node1&#45;&gt;Node4</title>
<g id="a_edge3_Node000001_Node000004"><a xlink:title=" ">
<path fill="none" stroke="#63b8ff" d="M323.98,-62.11C335.28,-52.81 348.03,-42.31 358.3,-33.87"/>
<polygon fill="#63b8ff" stroke="#63b8ff" points="321.97,-59.23 316.48,-68.29 326.42,-64.64 321.97,-59.23"/>
</a>
</g>
</g>
<!-- Node5 -->
<g id="Node000005" class="node">
<title>Node5</title>
<g id="a_Node000005"><a xlink:href="cc2538_2include_2cpu__conf_8h.html" target="_top" xlink:title="Implementation specific CPU configuration options.">
<polygon fill="white" stroke="#666666" points="574.38,-33.5 465.38,-33.5 465.38,0 574.38,0 574.38,-33.5"/>
<text text-anchor="start" x="473.38" y="-20" font-family="Helvetica,sans-Serif" font-size="10.00">cpu/cc2538/include</text>
<text text-anchor="middle" x="519.88" y="-7.25" font-family="Helvetica,sans-Serif" font-size="10.00">/cpu_conf.h</text>
</a>
</g>
</g>
<!-- Node1&#45;&gt;Node5 -->
<g id="edge4_Node000001_Node000005" class="edge">
<title>Node1&#45;&gt;Node5</title>
<g id="a_edge4_Node000001_Node000005"><a xlink:title=" ">
<path fill="none" stroke="#63b8ff" d="M360.17,-65.88C393.76,-55.75 434.4,-43.51 466.27,-33.9"/>
<polygon fill="#63b8ff" stroke="#63b8ff" points="359.54,-62.41 350.98,-68.65 361.56,-69.11 359.54,-62.41"/>
</a>
</g>
</g>
</g>
</svg>
