<?xml version="1.0" encoding="UTF-8" standalone="no"?>
<!DOCTYPE svg PUBLIC "-//W3C//DTD SVG 1.1//EN"
 "http://www.w3.org/Graphics/SVG/1.1/DTD/svg11.dtd">
<!-- Generated by graphviz version 12.1.1 (0)
 -->
<!-- Title: cpu/cc26xx_cc13xx/include/cc26xx_cc13xx_power.h Pages: 1 -->
<svg width="561pt" height="155pt"
 viewBox="0.00 0.00 560.75 155.00" xmlns="http://www.w3.org/2000/svg" xmlns:xlink="http://www.w3.org/1999/xlink">
<g id="graph0" class="graph" transform="scale(1 1) rotate(0) translate(4 151)">
<title>cpu/cc26xx_cc13xx/include/cc26xx_cc13xx_power.h</title>
<!-- Node1 -->
<g id="Node000001" class="node">
<title>Node1</title>
<g id="a_Node000001"><a xlink:title="CC26xx/CC13xx Power management.">
<polygon fill="#999999" stroke="#666666" points="266.5,-147 117.75,-147 117.75,-113.5 266.5,-113.5 266.5,-147"/>
<text text-anchor="start" x="125.75" y="-133.5" font-family="Helvetica,sans-Serif" font-size="10.00">cpu/cc26xx_cc13xx/include</text>
<text text-anchor="middle" x="192.12" y="-120.75" font-family="Helvetica,sans-Serif" font-size="10.00">/cc26xx_cc13xx_power.h</text>
</a>
</g>
</g>
<!-- Node2 -->
<g id="Node000002" class="node">
<title>Node2</title>
<g id="a_Node000002"><a xlink:href="cc26xx__cc13xx_8h.html" target="_top" xlink:title="CC26xx, CC13xx definitions.">
<polygon fill="white" stroke="#666666" points="143.75,-77.5 44.5,-77.5 44.5,-56.75 143.75,-56.75 143.75,-77.5"/>
<text text-anchor="middle" x="94.12" y="-64" font-family="Helvetica,sans-Serif" font-size="10.00">cc26xx_cc13xx.h</text>
</a>
</g>
</g>
<!-- Node1&#45;&gt;Node2 -->
<g id="edge1_Node000001_Node000002" class="edge">
<title>Node1&#45;&gt;Node2</title>
<g id="a_edge1_Node000001_Node000002"><a xlink:title=" ">
<path fill="none" stroke="#63b8ff" d="M166.12,-113.03C151.7,-104.04 133.85,-92.9 119.53,-83.97"/>
<polygon fill="#63b8ff" stroke="#63b8ff" points="121.44,-81.04 111.11,-78.72 117.74,-86.98 121.44,-81.04"/>
</a>
</g>
</g>
<!-- Node5 -->
<g id="Node000005" class="node">
<title>Node5</title>
<g id="a_Node000005"><a xlink:title=" ">
<polygon fill="#e0e0e0" stroke="#999999" points="222.62,-77.5 161.62,-77.5 161.62,-56.75 222.62,-56.75 222.62,-77.5"/>
<text text-anchor="middle" x="192.12" y="-64" font-family="Helvetica,sans-Serif" font-size="10.00">stdbool.h</text>
</a>
</g>
</g>
<!-- Node1&#45;&gt;Node5 -->
<g id="edge4_Node000001_Node000005" class="edge">
<title>Node1&#45;&gt;Node5</title>
<g id="a_edge4_Node000001_Node000005"><a xlink:title=" ">
<path fill="none" stroke="#63b8ff" d="M192.12,-113.19C192.12,-105.85 192.12,-97.07 192.12,-89.21"/>
<polygon fill="#63b8ff" stroke="#63b8ff" points="195.63,-89.48 192.13,-79.48 188.63,-89.48 195.63,-89.48"/>
</a>
</g>
</g>
<!-- Node6 -->
<g id="Node000006" class="node">
<title>Node6</title>
<g id="a_Node000006"><a xlink:href="drivers_2include_2periph_2uart_8h.html" target="_top" xlink:title="Low&#45;level UART peripheral driver interface definition.">
<polygon fill="white" stroke="#666666" points="319.25,-77.5 241,-77.5 241,-56.75 319.25,-56.75 319.25,-77.5"/>
<text text-anchor="middle" x="280.12" y="-64" font-family="Helvetica,sans-Serif" font-size="10.00">periph/uart.h</text>
</a>
</g>
</g>
<!-- Node1&#45;&gt;Node6 -->
<g id="edge5_Node000001_Node000006" class="edge">
<title>Node1&#45;&gt;Node6</title>
<g id="a_edge5_Node000001_Node000006"><a xlink:title=" ">
<path fill="none" stroke="#63b8ff" d="M215.25,-113.19C228.07,-104.28 243.97,-93.24 256.82,-84.31"/>
<polygon fill="#63b8ff" stroke="#63b8ff" points="258.5,-87.41 264.71,-78.83 254.5,-81.66 258.5,-87.41"/>
</a>
</g>
</g>
<!-- Node3 -->
<g id="Node000003" class="node">
<title>Node3</title>
<g id="a_Node000003"><a xlink:title=" ">
<polygon fill="#e0e0e0" stroke="#999999" points="143.5,-20.75 90.75,-20.75 90.75,0 143.5,0 143.5,-20.75"/>
<text text-anchor="middle" x="117.12" y="-7.25" font-family="Helvetica,sans-Serif" font-size="10.00">stdint.h</text>
</a>
</g>
</g>
<!-- Node2&#45;&gt;Node3 -->
<g id="edge2_Node000002_Node000003" class="edge">
<title>Node2&#45;&gt;Node3</title>
<g id="a_edge2_Node000002_Node000003"><a xlink:title=" ">
<path fill="none" stroke="#63b8ff" d="M98.24,-56.34C101.12,-49.49 105.06,-40.09 108.61,-31.65"/>
<polygon fill="#63b8ff" stroke="#63b8ff" points="111.82,-33.05 112.46,-22.47 105.36,-30.34 111.82,-33.05"/>
</a>
</g>
</g>
<!-- Node4 -->
<g id="Node000004" class="node">
<title>Node4</title>
<g id="a_Node000004"><a xlink:title=" ">
<polygon fill="#e0e0e0" stroke="#999999" points="72.25,-20.75 0,-20.75 0,0 72.25,0 72.25,-20.75"/>
<text text-anchor="middle" x="36.12" y="-7.25" font-family="Helvetica,sans-Serif" font-size="10.00">core_cm3.h</text>
</a>
</g>
</g>
<!-- Node2&#45;&gt;Node4 -->
<g id="edge3_Node000002_Node000004" class="edge">
<title>Node2&#45;&gt;Node4</title>
<g id="a_edge3_Node000002_Node000004"><a xlink:title=" ">
<path fill="none" stroke="#63b8ff" d="M83.76,-56.34C75.67,-48.71 64.24,-37.92 54.6,-28.82"/>
<polygon fill="#63b8ff" stroke="#63b8ff" points="57.18,-26.44 47.51,-22.12 52.37,-31.53 57.18,-26.44"/>
</a>
</g>
</g>
<!-- Node6&#45;&gt;Node3 -->
<g id="edge9_Node000006_Node000003" class="edge">
<title>Node6&#45;&gt;Node3</title>
<g id="a_edge9_Node000006_Node000003"><a xlink:title=" ">
<path fill="none" stroke="#63b8ff" d="M250.98,-56.34C224.03,-47.28 183.81,-33.78 154.5,-23.93"/>
<polygon fill="#63b8ff" stroke="#63b8ff" points="155.88,-20.7 145.29,-20.83 153.65,-27.34 155.88,-20.7"/>
</a>
</g>
</g>
<!-- Node7 -->
<g id="Node000007" class="node">
<title>Node7</title>
<g id="a_Node000007"><a xlink:href="errno_8h.html" target="_top" xlink:title=" ">
<polygon fill="white" stroke="#666666" points="212.38,-20.75 161.88,-20.75 161.88,0 212.38,0 212.38,-20.75"/>
<text text-anchor="middle" x="187.12" y="-7.25" font-family="Helvetica,sans-Serif" font-size="10.00">errno.h</text>
</a>
</g>
</g>
<!-- Node6&#45;&gt;Node7 -->
<g id="edge6_Node000006_Node000007" class="edge">
<title>Node6&#45;&gt;Node7</title>
<g id="a_edge6_Node000006_Node000007"><a xlink:title=" ">
<path fill="none" stroke="#63b8ff" d="M263.5,-56.34C249.61,-48.16 229.56,-36.36 213.49,-26.9"/>
<polygon fill="#63b8ff" stroke="#63b8ff" points="215.31,-23.9 204.91,-21.85 211.75,-29.94 215.31,-23.9"/>
</a>
</g>
</g>
<!-- Node8 -->
<g id="Node000008" class="node">
<title>Node8</title>
<g id="a_Node000008"><a xlink:title=" ">
<polygon fill="#e0e0e0" stroke="#999999" points="283.5,-20.75 230.75,-20.75 230.75,0 283.5,0 283.5,-20.75"/>
<text text-anchor="middle" x="257.12" y="-7.25" font-family="Helvetica,sans-Serif" font-size="10.00">limits.h</text>
</a>
</g>
</g>
<!-- Node6&#45;&gt;Node8 -->
<g id="edge7_Node000006_Node000008" class="edge">
<title>Node6&#45;&gt;Node8</title>
<g id="a_edge7_Node000006_Node000008"><a xlink:title=" ">
<path fill="none" stroke="#63b8ff" d="M276.01,-56.34C273.13,-49.49 269.19,-40.09 265.64,-31.65"/>
<polygon fill="#63b8ff" stroke="#63b8ff" points="268.89,-30.34 261.79,-22.47 262.43,-33.05 268.89,-30.34"/>
</a>
</g>
</g>
<!-- Node9 -->
<g id="Node000009" class="node">
<title>Node9</title>
<g id="a_Node000009"><a xlink:title=" ">
<polygon fill="#e0e0e0" stroke="#999999" points="356.62,-20.75 301.62,-20.75 301.62,0 356.62,0 356.62,-20.75"/>
<text text-anchor="middle" x="329.12" y="-7.25" font-family="Helvetica,sans-Serif" font-size="10.00">stddef.h</text>
</a>
</g>
</g>
<!-- Node6&#45;&gt;Node9 -->
<g id="edge8_Node000006_Node000009" class="edge">
<title>Node6&#45;&gt;Node9</title>
<g id="a_edge8_Node000006_Node000009"><a xlink:title=" ">
<path fill="none" stroke="#63b8ff" d="M288.89,-56.34C295.57,-48.86 304.98,-38.36 313.01,-29.38"/>
<polygon fill="#63b8ff" stroke="#63b8ff" points="315.37,-31.99 319.43,-22.21 310.15,-27.32 315.37,-31.99"/>
</a>
</g>
</g>
<!-- Node10 -->
<g id="Node000010" class="node">
<title>Node10</title>
<g id="a_Node000010"><a xlink:title=" ">
<polygon fill="#e0e0e0" stroke="#999999" points="453.25,-20.75 375,-20.75 375,0 453.25,0 453.25,-20.75"/>
<text text-anchor="middle" x="414.12" y="-7.25" font-family="Helvetica,sans-Serif" font-size="10.00">periph_cpu.h</text>
</a>
</g>
</g>
<!-- Node6&#45;&gt;Node10 -->
<g id="edge10_Node000006_Node000010" class="edge">
<title>Node6&#45;&gt;Node10</title>
<g id="a_edge10_Node000006_Node000010"><a xlink:title=" ">
<path fill="none" stroke="#63b8ff" d="M304.08,-56.34C325.14,-47.73 356.03,-35.11 379.73,-25.43"/>
<polygon fill="#63b8ff" stroke="#63b8ff" points="381.04,-28.67 388.97,-21.65 378.39,-22.19 381.04,-28.67"/>
</a>
</g>
</g>
<!-- Node11 -->
<g id="Node000011" class="node">
<title>Node11</title>
<g id="a_Node000011"><a xlink:title=" ">
<polygon fill="#e0e0e0" stroke="#999999" points="552.75,-20.75 471.5,-20.75 471.5,0 552.75,0 552.75,-20.75"/>
<text text-anchor="middle" x="512.12" y="-7.25" font-family="Helvetica,sans-Serif" font-size="10.00">periph_conf.h</text>
</a>
</g>
</g>
<!-- Node6&#45;&gt;Node11 -->
<g id="edge11_Node000006_Node000011" class="edge">
<title>Node6&#45;&gt;Node11</title>
<g id="a_edge11_Node000006_Node000011"><a xlink:title=" ">
<path fill="none" stroke="#63b8ff" d="M319.74,-56.78C358.47,-47.64 417.65,-33.67 460.14,-23.64"/>
<polygon fill="#63b8ff" stroke="#63b8ff" points="460.71,-27.11 469.64,-21.4 459.1,-20.29 460.71,-27.11"/>
</a>
</g>
</g>
</g>
</svg>
