<?xml version="1.0" encoding="UTF-8" standalone="no"?>
<!DOCTYPE svg PUBLIC "-//W3C//DTD SVG 1.1//EN"
 "http://www.w3.org/Graphics/SVG/1.1/DTD/svg11.dtd">
<!-- Generated by graphviz version 12.1.1 (0)
 -->
<!-- Title: cpu/cc26x2_cc13x2/include/cpu_conf.h Pages: 1 -->
<svg width="2336pt" height="338pt"
 viewBox="0.00 0.00 2336.25 338.00" xmlns="http://www.w3.org/2000/svg" xmlns:xlink="http://www.w3.org/1999/xlink">
<g id="graph0" class="graph" transform="scale(1 1) rotate(0) translate(4 334)">
<title>cpu/cc26x2_cc13x2/include/cpu_conf.h</title>
<!-- Node1 -->
<g id="Node000001" class="node">
<title>Node1</title>
<g id="a_Node000001"><a xlink:title="Implementation specific CPU configuration options.">
<polygon fill="#999999" stroke="#666666" points="2044.88,-330 1896.12,-330 1896.12,-296.5 2044.88,-296.5 2044.88,-330"/>
<text text-anchor="start" x="1904.12" y="-316.5" font-family="Helvetica,sans-Serif" font-size="10.00">cpu/cc26x2_cc13x2/include</text>
<text text-anchor="middle" x="1970.5" y="-303.75" font-family="Helvetica,sans-Serif" font-size="10.00">/cpu_conf.h</text>
</a>
</g>
</g>
<!-- Node2 -->
<g id="Node000002" class="node">
<title>Node2</title>
<g id="a_Node000002"><a xlink:href="cpu__conf__cc26xx__cc13xx_8h.html" target="_top" xlink:title="Implementation specific CPU configuration options.">
<polygon fill="white" stroke="#666666" points="1028.5,-260.5 880.5,-260.5 880.5,-239.75 1028.5,-239.75 1028.5,-260.5"/>
<text text-anchor="middle" x="954.5" y="-247" font-family="Helvetica,sans-Serif" font-size="10.00">cpu_conf_cc26xx_cc13xx.h</text>
</a>
</g>
</g>
<!-- Node1&#45;&gt;Node2 -->
<g id="edge1_Node000001_Node000002" class="edge">
<title>Node1&#45;&gt;Node2</title>
<g id="a_edge1_Node000001_Node000002"><a xlink:title=" ">
<path fill="none" stroke="#63b8ff" d="M1895.79,-307.76C1711.46,-296.67 1235.79,-268.05 1040.32,-256.29"/>
<polygon fill="#63b8ff" stroke="#63b8ff" points="1040.68,-252.8 1030.49,-255.7 1040.26,-259.79 1040.68,-252.8"/>
</a>
</g>
</g>
<!-- Node25 -->
<g id="Node000025" class="node">
<title>Node25</title>
<g id="a_Node000025"><a xlink:href="cc26x2__cc13x2__aux_8h.html" target="_top" xlink:title="CC26x2, CC13x2 AUX register definitions.">
<polygon fill="white" stroke="#666666" points="1890.75,-260.5 1768.25,-260.5 1768.25,-239.75 1890.75,-239.75 1890.75,-260.5"/>
<text text-anchor="middle" x="1829.5" y="-247" font-family="Helvetica,sans-Serif" font-size="10.00">cc26x2_cc13x2_aux.h</text>
</a>
</g>
</g>
<!-- Node1&#45;&gt;Node25 -->
<g id="edge38_Node000001_Node000025" class="edge">
<title>Node1&#45;&gt;Node25</title>
<g id="a_edge38_Node000001_Node000025"><a xlink:title=" ">
<path fill="none" stroke="#63b8ff" d="M1933.08,-296.03C1911.13,-286.51 1883.64,-274.6 1862.5,-265.43"/>
<polygon fill="#63b8ff" stroke="#63b8ff" points="1864.04,-262.28 1853.47,-261.52 1861.25,-268.71 1864.04,-262.28"/>
</a>
</g>
</g>
<!-- Node27 -->
<g id="Node000027" class="node">
<title>Node27</title>
<g id="a_Node000027"><a xlink:href="cc26x2__cc13x2__fcfg_8h.html" target="_top" xlink:title="CC26x2, CC13x2 FCFG register definitions.">
<polygon fill="white" stroke="#666666" points="2032.12,-260.5 1908.88,-260.5 1908.88,-239.75 2032.12,-239.75 2032.12,-260.5"/>
<text text-anchor="middle" x="1970.5" y="-247" font-family="Helvetica,sans-Serif" font-size="10.00">cc26x2_cc13x2_fcfg.h</text>
</a>
</g>
</g>
<!-- Node1&#45;&gt;Node27 -->
<g id="edge41_Node000001_Node000027" class="edge">
<title>Node1&#45;&gt;Node27</title>
<g id="a_edge41_Node000001_Node000027"><a xlink:title=" ">
<path fill="none" stroke="#63b8ff" d="M1970.5,-296.19C1970.5,-288.85 1970.5,-280.07 1970.5,-272.21"/>
<polygon fill="#63b8ff" stroke="#63b8ff" points="1974,-272.48 1970.5,-262.48 1967,-272.48 1974,-272.48"/>
</a>
</g>
</g>
<!-- Node28 -->
<g id="Node000028" class="node">
<title>Node28</title>
<g id="a_Node000028"><a xlink:href="cc26x2__cc13x2__prcm_8h.html" target="_top" xlink:title="CC26x2, CC13x2 PRCM register definitions.">
<polygon fill="white" stroke="#666666" points="2179.12,-260.5 2049.88,-260.5 2049.88,-239.75 2179.12,-239.75 2179.12,-260.5"/>
<text text-anchor="middle" x="2114.5" y="-247" font-family="Helvetica,sans-Serif" font-size="10.00">cc26x2_cc13x2_prcm.h</text>
</a>
</g>
</g>
<!-- Node1&#45;&gt;Node28 -->
<g id="edge43_Node000001_Node000028" class="edge">
<title>Node1&#45;&gt;Node28</title>
<g id="a_edge43_Node000001_Node000028"><a xlink:title=" ">
<path fill="none" stroke="#63b8ff" d="M2008.71,-296.03C2031.24,-286.47 2059.47,-274.49 2081.1,-265.3"/>
<polygon fill="#63b8ff" stroke="#63b8ff" points="2082.21,-268.64 2090.04,-261.51 2079.47,-262.19 2082.21,-268.64"/>
</a>
</g>
</g>
<!-- Node29 -->
<g id="Node000029" class="node">
<title>Node29</title>
<g id="a_Node000029"><a xlink:href="cc26x2__cc13x2__setup_8h.html" target="_top" xlink:title="CC26x2/CC13x2 Device setup functions.">
<polygon fill="white" stroke="#666666" points="2328.25,-260.5 2196.75,-260.5 2196.75,-239.75 2328.25,-239.75 2328.25,-260.5"/>
<text text-anchor="middle" x="2262.5" y="-247" font-family="Helvetica,sans-Serif" font-size="10.00">cc26x2_cc13x2_setup.h</text>
</a>
</g>
</g>
<!-- Node1&#45;&gt;Node29 -->
<g id="edge45_Node000001_Node000029" class="edge">
<title>Node1&#45;&gt;Node29</title>
<g id="a_edge45_Node000001_Node000029"><a xlink:title=" ">
<path fill="none" stroke="#63b8ff" d="M2045.32,-296.59C2094.85,-286.22 2158.86,-272.82 2204.53,-263.26"/>
<polygon fill="#63b8ff" stroke="#63b8ff" points="2205.18,-266.7 2214.25,-261.23 2203.74,-259.85 2205.18,-266.7"/>
</a>
</g>
</g>
<!-- Node3 -->
<g id="Node000003" class="node">
<title>Node3</title>
<g id="a_Node000003"><a xlink:href="kernel__defines_8h.html" target="_top" xlink:title="Common macros and compiler attributes/pragmas configuration.">
<polygon fill="white" stroke="#666666" points="143.62,-197.38 47.38,-197.38 47.38,-176.62 143.62,-176.62 143.62,-197.38"/>
<text text-anchor="middle" x="95.5" y="-183.88" font-family="Helvetica,sans-Serif" font-size="10.00">kernel_defines.h</text>
</a>
</g>
</g>
<!-- Node2&#45;&gt;Node3 -->
<g id="edge2_Node000002_Node000003" class="edge">
<title>Node2&#45;&gt;Node3</title>
<g id="a_edge2_Node000002_Node000003"><a xlink:title=" ">
<path fill="none" stroke="#63b8ff" d="M880.1,-246.94C708.92,-241.59 291.23,-226.57 152.5,-203.75 147.52,-202.93 142.35,-201.85 137.25,-200.63"/>
<polygon fill="#63b8ff" stroke="#63b8ff" points="138.32,-197.29 127.76,-198.18 136.57,-204.07 138.32,-197.29"/>
</a>
</g>
</g>
<!-- Node11 -->
<g id="Node000011" class="node">
<title>Node11</title>
<g id="a_Node000011"><a xlink:title=" ">
<polygon fill="#e0e0e0" stroke="#999999" points="277.75,-197.38 161.25,-197.38 161.25,-176.62 277.75,-176.62 277.75,-197.38"/>
<text text-anchor="middle" x="219.5" y="-183.88" font-family="Helvetica,sans-Serif" font-size="10.00">cpu_conf_common.h</text>
</a>
</g>
</g>
<!-- Node2&#45;&gt;Node11 -->
<g id="edge13_Node000002_Node000011" class="edge">
<title>Node2&#45;&gt;Node11</title>
<g id="a_edge13_Node000002_Node000011"><a xlink:title=" ">
<path fill="none" stroke="#63b8ff" d="M880.05,-247.59C756.99,-244.27 503.65,-234.05 291.5,-203.75 284.68,-202.78 277.55,-201.52 270.53,-200.13"/>
<polygon fill="#63b8ff" stroke="#63b8ff" points="271.28,-196.71 260.78,-198.11 269.86,-203.57 271.28,-196.71"/>
</a>
</g>
</g>
<!-- Node12 -->
<g id="Node000012" class="node">
<title>Node12</title>
<g id="a_Node000012"><a xlink:href="cc26xx__cc13xx_8h.html" target="_top" xlink:title="CC26xx, CC13xx definitions.">
<polygon fill="white" stroke="#666666" points="1208.12,-134.25 1108.88,-134.25 1108.88,-113.5 1208.12,-113.5 1208.12,-134.25"/>
<text text-anchor="middle" x="1158.5" y="-120.75" font-family="Helvetica,sans-Serif" font-size="10.00">cc26xx_cc13xx.h</text>
</a>
</g>
</g>
<!-- Node2&#45;&gt;Node12 -->
<g id="edge14_Node000002_Node000012" class="edge">
<title>Node2&#45;&gt;Node12</title>
<g id="a_edge14_Node000002_Node000012"><a xlink:title=" ">
<path fill="none" stroke="#63b8ff" d="M880.24,-249.32C721.74,-248.95 361.66,-243.69 324.5,-203.75 314.36,-192.85 314.26,-181.06 324.5,-170.25 351.01,-142.26 909.06,-129.46 1097.19,-125.93"/>
<polygon fill="#63b8ff" stroke="#63b8ff" points="1097.07,-129.43 1107,-125.75 1096.94,-122.43 1097.07,-129.43"/>
</a>
</g>
</g>
<!-- Node14 -->
<g id="Node000014" class="node">
<title>Node14</title>
<g id="a_Node000014"><a xlink:href="cc26xx__cc13xx__adi_8h.html" target="_top" xlink:title="CC26xx/CC13xx MCU I/O register definitions.">
<polygon fill="white" stroke="#666666" points="453.25,-197.38 333.75,-197.38 333.75,-176.62 453.25,-176.62 453.25,-197.38"/>
<text text-anchor="middle" x="393.5" y="-183.88" font-family="Helvetica,sans-Serif" font-size="10.00">cc26xx_cc13xx_adi.h</text>
</a>
</g>
</g>
<!-- Node2&#45;&gt;Node14 -->
<g id="edge17_Node000002_Node000014" class="edge">
<title>Node2&#45;&gt;Node14</title>
<g id="a_edge17_Node000002_Node000014"><a xlink:title=" ">
<path fill="none" stroke="#63b8ff" d="M880.35,-245.35C783.71,-239.74 609.68,-227.23 462.5,-203.75 456.36,-202.77 449.95,-201.56 443.61,-200.25"/>
<polygon fill="#63b8ff" stroke="#63b8ff" points="444.36,-196.84 433.85,-198.14 442.88,-203.68 444.36,-196.84"/>
</a>
</g>
</g>
<!-- Node15 -->
<g id="Node000015" class="node">
<title>Node15</title>
<g id="a_Node000015"><a xlink:href="cc26xx__cc13xx__ccfg_8h.html" target="_top" xlink:title="CC26xx/CC13xx CCFG register definitions.">
<polygon fill="white" stroke="#666666" points="595.88,-197.38 471.12,-197.38 471.12,-176.62 595.88,-176.62 595.88,-197.38"/>
<text text-anchor="middle" x="533.5" y="-183.88" font-family="Helvetica,sans-Serif" font-size="10.00">cc26xx_cc13xx_ccfg.h</text>
</a>
</g>
</g>
<!-- Node2&#45;&gt;Node15 -->
<g id="edge19_Node000002_Node000015" class="edge">
<title>Node2&#45;&gt;Node15</title>
<g id="a_edge19_Node000002_Node000015"><a xlink:title=" ">
<path fill="none" stroke="#63b8ff" d="M880.13,-241.43C809.07,-233.63 699.1,-220.34 604.5,-203.75 598.52,-202.7 592.27,-201.49 586.08,-200.21"/>
<polygon fill="#63b8ff" stroke="#63b8ff" points="587.04,-196.84 576.53,-198.18 585.58,-203.69 587.04,-196.84"/>
</a>
</g>
</g>
<!-- Node16 -->
<g id="Node000016" class="node">
<title>Node16</title>
<g id="a_Node000016"><a xlink:href="cc26xx__cc13xx__gpio_8h.html" target="_top" xlink:title="Driver for the cc26xx/cc13xx GPIO controller.">
<polygon fill="white" stroke="#666666" points="739.25,-197.38 613.75,-197.38 613.75,-176.62 739.25,-176.62 739.25,-197.38"/>
<text text-anchor="middle" x="676.5" y="-183.88" font-family="Helvetica,sans-Serif" font-size="10.00">cc26xx_cc13xx_gpio.h</text>
</a>
</g>
</g>
<!-- Node2&#45;&gt;Node16 -->
<g id="edge21_Node000002_Node000016" class="edge">
<title>Node2&#45;&gt;Node16</title>
<g id="a_edge21_Node000002_Node000016"><a xlink:title=" ">
<path fill="none" stroke="#63b8ff" d="M909.83,-239.3C861.5,-228.68 784.36,-211.72 732.13,-200.23"/>
<polygon fill="#63b8ff" stroke="#63b8ff" points="733.05,-196.85 722.53,-198.12 731.55,-203.69 733.05,-196.85"/>
</a>
</g>
</g>
<!-- Node17 -->
<g id="Node000017" class="node">
<title>Node17</title>
<g id="a_Node000017"><a xlink:href="cc26xx__cc13xx__gpt_8h.html" target="_top" xlink:title="definitions for the CC26xx/CC13XX GPT modules">
<polygon fill="white" stroke="#666666" points="877.62,-197.38 757.38,-197.38 757.38,-176.62 877.62,-176.62 877.62,-197.38"/>
<text text-anchor="middle" x="817.5" y="-183.88" font-family="Helvetica,sans-Serif" font-size="10.00">cc26xx_cc13xx_gpt.h</text>
</a>
</g>
</g>
<!-- Node2&#45;&gt;Node17 -->
<g id="edge23_Node000002_Node000017" class="edge">
<title>Node2&#45;&gt;Node17</title>
<g id="a_edge23_Node000002_Node000017"><a xlink:title=" ">
<path fill="none" stroke="#63b8ff" d="M932.49,-239.3C910.12,-229.32 875.22,-213.75 849.74,-202.38"/>
<polygon fill="#63b8ff" stroke="#63b8ff" points="851.4,-199.29 840.84,-198.41 848.55,-205.68 851.4,-199.29"/>
</a>
</g>
</g>
<!-- Node18 -->
<g id="Node000018" class="node">
<title>Node18</title>
<g id="a_Node000018"><a xlink:href="cc26xx__cc13xx__hard__api_8h.html" target="_top" xlink:title="CC26xx/CC13xx ROM Hard&#45;API.">
<polygon fill="white" stroke="#666666" points="1013.12,-203.75 895.88,-203.75 895.88,-170.25 1013.12,-170.25 1013.12,-203.75"/>
<text text-anchor="start" x="903.88" y="-190.25" font-family="Helvetica,sans-Serif" font-size="10.00">cc26xx_cc13xx_hard</text>
<text text-anchor="middle" x="954.5" y="-177.5" font-family="Helvetica,sans-Serif" font-size="10.00">_api.h</text>
</a>
</g>
</g>
<!-- Node2&#45;&gt;Node18 -->
<g id="edge25_Node000002_Node000018" class="edge">
<title>Node2&#45;&gt;Node18</title>
<g id="a_edge25_Node000002_Node000018"><a xlink:title=" ">
<path fill="none" stroke="#63b8ff" d="M954.5,-239.3C954.5,-232.88 954.5,-224.15 954.5,-215.7"/>
<polygon fill="#63b8ff" stroke="#63b8ff" points="958,-215.75 954.5,-205.75 951,-215.75 958,-215.75"/>
</a>
</g>
</g>
<!-- Node19 -->
<g id="Node000019" class="node">
<title>Node19</title>
<g id="a_Node000019"><a xlink:href="cc26xx__cc13xx__i2c_8h.html" target="_top" xlink:title="CC26xx/CC13xx MCU I/O register definitions.">
<polygon fill="white" stroke="#666666" points="1149.88,-197.38 1031.12,-197.38 1031.12,-176.62 1149.88,-176.62 1149.88,-197.38"/>
<text text-anchor="middle" x="1090.5" y="-183.88" font-family="Helvetica,sans-Serif" font-size="10.00">cc26xx_cc13xx_i2c.h</text>
</a>
</g>
</g>
<!-- Node2&#45;&gt;Node19 -->
<g id="edge27_Node000002_Node000019" class="edge">
<title>Node2&#45;&gt;Node19</title>
<g id="a_edge27_Node000002_Node000019"><a xlink:title=" ">
<path fill="none" stroke="#63b8ff" d="M976.35,-239.3C998.56,-229.32 1033.2,-213.75 1058.5,-202.38"/>
<polygon fill="#63b8ff" stroke="#63b8ff" points="1059.64,-205.71 1067.32,-198.42 1056.77,-199.32 1059.64,-205.71"/>
</a>
</g>
</g>
<!-- Node20 -->
<g id="Node000020" class="node">
<title>Node20</title>
<g id="a_Node000020"><a xlink:href="cc26xx__cc13xx__ioc_8h.html" target="_top" xlink:title="CC26xx/CC13xx MCU I/O register definitions.">
<polygon fill="white" stroke="#666666" points="1286.88,-197.38 1168.12,-197.38 1168.12,-176.62 1286.88,-176.62 1286.88,-197.38"/>
<text text-anchor="middle" x="1227.5" y="-183.88" font-family="Helvetica,sans-Serif" font-size="10.00">cc26xx_cc13xx_ioc.h</text>
</a>
</g>
</g>
<!-- Node2&#45;&gt;Node20 -->
<g id="edge29_Node000002_Node000020" class="edge">
<title>Node2&#45;&gt;Node20</title>
<g id="a_edge29_Node000002_Node000020"><a xlink:title=" ">
<path fill="none" stroke="#63b8ff" d="M999.09,-239.28C1040.43,-230.14 1103.64,-216.11 1158.5,-203.75 1163.35,-202.66 1168.39,-201.52 1173.44,-200.37"/>
<polygon fill="#63b8ff" stroke="#63b8ff" points="1173.99,-203.83 1182.97,-198.2 1172.44,-197.01 1173.99,-203.83"/>
</a>
</g>
</g>
<!-- Node21 -->
<g id="Node000021" class="node">
<title>Node21</title>
<g id="a_Node000021"><a xlink:href="cc26xx__cc13xx__rfc_8h.html" target="_top" xlink:title="CC26xx/CC13xx MCU I/O register definitions.">
<polygon fill="white" stroke="#666666" points="1422.12,-197.38 1304.88,-197.38 1304.88,-176.62 1422.12,-176.62 1422.12,-197.38"/>
<text text-anchor="middle" x="1363.5" y="-183.88" font-family="Helvetica,sans-Serif" font-size="10.00">cc26xx_cc13xx_rfc.h</text>
</a>
</g>
</g>
<!-- Node2&#45;&gt;Node21 -->
<g id="edge31_Node000002_Node000021" class="edge">
<title>Node2&#45;&gt;Node21</title>
<g id="a_edge31_Node000002_Node000021"><a xlink:title=" ">
<path fill="none" stroke="#63b8ff" d="M1028.99,-241.28C1098.29,-233.5 1204.28,-220.34 1295.5,-203.75 1301.17,-202.72 1307.07,-201.53 1312.94,-200.27"/>
<polygon fill="#63b8ff" stroke="#63b8ff" points="1313.6,-203.71 1322.6,-198.13 1312.08,-196.88 1313.6,-203.71"/>
</a>
</g>
</g>
<!-- Node22 -->
<g id="Node000022" class="node">
<title>Node22</title>
<g id="a_Node000022"><a xlink:href="cc26xx__cc13xx__uart_8h.html" target="_top" xlink:title="CC26xx/CC13xx UART interface.">
<polygon fill="white" stroke="#666666" points="1564.5,-197.38 1440.5,-197.38 1440.5,-176.62 1564.5,-176.62 1564.5,-197.38"/>
<text text-anchor="middle" x="1502.5" y="-183.88" font-family="Helvetica,sans-Serif" font-size="10.00">cc26xx_cc13xx_uart.h</text>
</a>
</g>
</g>
<!-- Node2&#45;&gt;Node22 -->
<g id="edge33_Node000002_Node000022" class="edge">
<title>Node2&#45;&gt;Node22</title>
<g id="a_edge33_Node000002_Node000022"><a xlink:title=" ">
<path fill="none" stroke="#63b8ff" d="M1028.81,-244.91C1122.94,-238.91 1289.96,-226.09 1431.5,-203.75 1437.89,-202.74 1444.57,-201.5 1451.16,-200.17"/>
<polygon fill="#63b8ff" stroke="#63b8ff" points="1451.57,-203.66 1460.63,-198.18 1450.13,-196.81 1451.57,-203.66"/>
</a>
</g>
</g>
<!-- Node23 -->
<g id="Node000023" class="node">
<title>Node23</title>
<g id="a_Node000023"><a xlink:href="cc26xx__cc13xx__vims_8h.html" target="_top" xlink:title="CC26xx/CC13xx VIMS register definitions.">
<polygon fill="white" stroke="#666666" points="1710.75,-197.38 1582.25,-197.38 1582.25,-176.62 1710.75,-176.62 1710.75,-197.38"/>
<text text-anchor="middle" x="1646.5" y="-183.88" font-family="Helvetica,sans-Serif" font-size="10.00">cc26xx_cc13xx_vims.h</text>
</a>
</g>
</g>
<!-- Node2&#45;&gt;Node23 -->
<g id="edge35_Node000002_Node000023" class="edge">
<title>Node2&#45;&gt;Node23</title>
<g id="a_edge35_Node000002_Node000023"><a xlink:title=" ">
<path fill="none" stroke="#63b8ff" d="M1028.7,-247.02C1145.24,-242.98 1378.05,-231.86 1573.5,-203.75 1580.32,-202.77 1587.46,-201.52 1594.49,-200.15"/>
<polygon fill="#63b8ff" stroke="#63b8ff" points="1595.18,-203.58 1604.27,-198.14 1593.77,-196.72 1595.18,-203.58"/>
</a>
</g>
</g>
<!-- Node24 -->
<g id="Node000024" class="node">
<title>Node24</title>
<g id="a_Node000024"><a xlink:href="cc26xx__cc13xx__wdt_8h.html" target="_top" xlink:title="CC26xx/CC13xx WDT register definitions.">
<polygon fill="white" stroke="#666666" points="1851.75,-197.38 1729.25,-197.38 1729.25,-176.62 1851.75,-176.62 1851.75,-197.38"/>
<text text-anchor="middle" x="1790.5" y="-183.88" font-family="Helvetica,sans-Serif" font-size="10.00">cc26xx_cc13xx_wdt.h</text>
</a>
</g>
</g>
<!-- Node2&#45;&gt;Node24 -->
<g id="edge36_Node000002_Node000024" class="edge">
<title>Node2&#45;&gt;Node24</title>
<g id="a_edge36_Node000002_Node000024"><a xlink:title=" ">
<path fill="none" stroke="#63b8ff" d="M1028.74,-248.63C1165.85,-246.86 1467.83,-238.9 1719.5,-203.75 1726.23,-202.81 1733.27,-201.57 1740.19,-200.2"/>
<polygon fill="#63b8ff" stroke="#63b8ff" points="1740.72,-203.66 1749.79,-198.18 1739.28,-196.81 1740.72,-203.66"/>
</a>
</g>
</g>
<!-- Node4 -->
<g id="Node000004" class="node">
<title>Node4</title>
<g id="a_Node000004"><a xlink:href="modules_8h.html" target="_top" xlink:title="Common macros and compiler attributes/pragmas configuration.">
<polygon fill="white" stroke="#666666" points="67,-134.25 0,-134.25 0,-113.5 67,-113.5 67,-134.25"/>
<text text-anchor="middle" x="33.5" y="-120.75" font-family="Helvetica,sans-Serif" font-size="10.00">modules.h</text>
</a>
</g>
</g>
<!-- Node3&#45;&gt;Node4 -->
<g id="edge3_Node000003_Node000004" class="edge">
<title>Node3&#45;&gt;Node4</title>
<g id="a_edge3_Node000003_Node000004"><a xlink:title=" ">
<path fill="none" stroke="#63b8ff" d="M85.54,-176.18C76.36,-167.13 62.51,-153.47 51.41,-142.53"/>
<polygon fill="#63b8ff" stroke="#63b8ff" points="53.89,-140.06 44.31,-135.53 48.97,-145.05 53.89,-140.06"/>
</a>
</g>
</g>
<!-- Node5 -->
<g id="Node000005" class="node">
<title>Node5</title>
<g id="a_Node000005"><a xlink:href="riot__version_8h.html" target="_top" xlink:title="Common macros and compiler attributes/pragmas configuration.">
<polygon fill="white" stroke="#666666" points="136.88,-77.5 54.12,-77.5 54.12,-56.75 136.88,-56.75 136.88,-77.5"/>
<text text-anchor="middle" x="95.5" y="-64" font-family="Helvetica,sans-Serif" font-size="10.00">riot_version.h</text>
</a>
</g>
</g>
<!-- Node3&#45;&gt;Node5 -->
<g id="edge4_Node000003_Node000005" class="edge">
<title>Node3&#45;&gt;Node5</title>
<g id="a_edge4_Node000003_Node000005"><a xlink:title=" ">
<path fill="none" stroke="#63b8ff" d="M95.5,-176.35C95.5,-157.44 95.5,-115.11 95.5,-89.35"/>
<polygon fill="#63b8ff" stroke="#63b8ff" points="99,-89.42 95.5,-79.42 92,-89.42 99,-89.42"/>
</a>
</g>
</g>
<!-- Node7 -->
<g id="Node000007" class="node">
<title>Node7</title>
<g id="a_Node000007"><a xlink:href="compiler__hints_8h.html" target="_top" xlink:title="Common macros and compiler attributes/pragmas configuration.">
<polygon fill="white" stroke="#666666" points="221,-134.25 124,-134.25 124,-113.5 221,-113.5 221,-134.25"/>
<text text-anchor="middle" x="172.5" y="-120.75" font-family="Helvetica,sans-Serif" font-size="10.00">compiler_hints.h</text>
</a>
</g>
</g>
<!-- Node3&#45;&gt;Node7 -->
<g id="edge6_Node000003_Node000007" class="edge">
<title>Node3&#45;&gt;Node7</title>
<g id="a_edge6_Node000003_Node000007"><a xlink:title=" ">
<path fill="none" stroke="#63b8ff" d="M107.87,-176.18C119.55,-166.91 137.29,-152.83 151.23,-141.76"/>
<polygon fill="#63b8ff" stroke="#63b8ff" points="153.32,-144.57 158.97,-135.61 148.97,-139.09 153.32,-144.57"/>
</a>
</g>
</g>
<!-- Node9 -->
<g id="Node000009" class="node">
<title>Node9</title>
<g id="a_Node000009"><a xlink:href="container_8h.html" target="_top" xlink:title="Common macros and compiler attributes/pragmas configuration.">
<polygon fill="white" stroke="#666666" points="311.88,-134.25 241.12,-134.25 241.12,-113.5 311.88,-113.5 311.88,-134.25"/>
<text text-anchor="middle" x="276.5" y="-120.75" font-family="Helvetica,sans-Serif" font-size="10.00">container.h</text>
</a>
</g>
</g>
<!-- Node3&#45;&gt;Node9 -->
<g id="edge10_Node000003_Node000009" class="edge">
<title>Node3&#45;&gt;Node9</title>
<g id="a_edge10_Node000003_Node000009"><a xlink:title=" ">
<path fill="none" stroke="#63b8ff" d="M124.58,-176.18C154.93,-165.93 202.72,-149.79 236.59,-138.35"/>
<polygon fill="#63b8ff" stroke="#63b8ff" points="237.7,-141.67 246.06,-135.16 235.46,-135.04 237.7,-141.67"/>
</a>
</g>
</g>
<!-- Node6 -->
<g id="Node000006" class="node">
<title>Node6</title>
<g id="a_Node000006"><a xlink:title=" ">
<polygon fill="#e0e0e0" stroke="#999999" points="246.88,-20.75 194.12,-20.75 194.12,0 246.88,0 246.88,-20.75"/>
<text text-anchor="middle" x="220.5" y="-7.25" font-family="Helvetica,sans-Serif" font-size="10.00">stdint.h</text>
</a>
</g>
</g>
<!-- Node5&#45;&gt;Node6 -->
<g id="edge5_Node000005_Node000006" class="edge">
<title>Node5&#45;&gt;Node6</title>
<g id="a_edge5_Node000005_Node000006"><a xlink:title=" ">
<path fill="none" stroke="#63b8ff" d="M117.85,-56.34C137.31,-47.81 165.79,-35.34 187.81,-25.69"/>
<polygon fill="#63b8ff" stroke="#63b8ff" points="189.2,-28.9 196.96,-21.69 186.4,-22.49 189.2,-28.9"/>
</a>
</g>
</g>
<!-- Node7&#45;&gt;Node6 -->
<g id="edge9_Node000007_Node000006" class="edge">
<title>Node7&#45;&gt;Node6</title>
<g id="a_edge9_Node000007_Node000006"><a xlink:title=" ">
<path fill="none" stroke="#63b8ff" d="M172.58,-113.01C173.03,-99.67 175.06,-75.41 183.5,-56.75 188.01,-46.76 195.29,-37.14 202.2,-29.35"/>
<polygon fill="#63b8ff" stroke="#63b8ff" points="204.6,-31.9 208.91,-22.23 199.51,-27.1 204.6,-31.9"/>
</a>
</g>
</g>
<!-- Node8 -->
<g id="Node000008" class="node">
<title>Node8</title>
<g id="a_Node000008"><a xlink:href="assert_8h.html" target="_top" xlink:title="POSIX.1&#45;2008 compliant version of the assert macro.">
<polygon fill="white" stroke="#666666" points="248,-77.5 193,-77.5 193,-56.75 248,-56.75 248,-77.5"/>
<text text-anchor="middle" x="220.5" y="-64" font-family="Helvetica,sans-Serif" font-size="10.00">assert.h</text>
</a>
</g>
</g>
<!-- Node7&#45;&gt;Node8 -->
<g id="edge7_Node000007_Node000008" class="edge">
<title>Node7&#45;&gt;Node8</title>
<g id="a_edge7_Node000007_Node000008"><a xlink:title=" ">
<path fill="none" stroke="#63b8ff" d="M181.08,-113.09C187.57,-105.69 196.65,-95.32 204.47,-86.41"/>
<polygon fill="#63b8ff" stroke="#63b8ff" points="207.03,-88.79 211,-78.97 201.77,-84.18 207.03,-88.79"/>
</a>
</g>
</g>
<!-- Node8&#45;&gt;Node6 -->
<g id="edge8_Node000008_Node000006" class="edge">
<title>Node8&#45;&gt;Node6</title>
<g id="a_edge8_Node000008_Node000006"><a xlink:title=" ">
<path fill="none" stroke="#63b8ff" d="M220.5,-56.34C220.5,-49.72 220.5,-40.72 220.5,-32.52"/>
<polygon fill="#63b8ff" stroke="#63b8ff" points="224,-32.59 220.5,-22.59 217,-32.59 224,-32.59"/>
</a>
</g>
</g>
<!-- Node9&#45;&gt;Node6 -->
<g id="edge12_Node000009_Node000006" class="edge">
<title>Node9&#45;&gt;Node6</title>
<g id="a_edge12_Node000009_Node000006"><a xlink:title=" ">
<path fill="none" stroke="#63b8ff" d="M274.73,-113.02C272.07,-99.69 266.29,-75.45 256.5,-56.75 251.41,-47.02 244.1,-37.33 237.4,-29.42"/>
<polygon fill="#63b8ff" stroke="#63b8ff" points="240.24,-27.34 230.99,-22.18 235.01,-31.99 240.24,-27.34"/>
</a>
</g>
</g>
<!-- Node10 -->
<g id="Node000010" class="node">
<title>Node10</title>
<g id="a_Node000010"><a xlink:title=" ">
<polygon fill="#e0e0e0" stroke="#999999" points="360,-77.5 305,-77.5 305,-56.75 360,-56.75 360,-77.5"/>
<text text-anchor="middle" x="332.5" y="-64" font-family="Helvetica,sans-Serif" font-size="10.00">stddef.h</text>
</a>
</g>
</g>
<!-- Node9&#45;&gt;Node10 -->
<g id="edge11_Node000009_Node000010" class="edge">
<title>Node9&#45;&gt;Node10</title>
<g id="a_edge11_Node000009_Node000010"><a xlink:title=" ">
<path fill="none" stroke="#63b8ff" d="M286.51,-113.09C294.24,-105.53 305.13,-94.89 314.37,-85.85"/>
<polygon fill="#63b8ff" stroke="#63b8ff" points="316.79,-88.38 321.49,-78.89 311.9,-83.37 316.79,-88.38"/>
</a>
</g>
</g>
<!-- Node12&#45;&gt;Node6 -->
<g id="edge15_Node000012_Node000006" class="edge">
<title>Node12&#45;&gt;Node6</title>
<g id="a_edge15_Node000012_Node000006"><a xlink:title=" ">
<path fill="none" stroke="#63b8ff" d="M1108.4,-116.92C941.33,-97.06 405.48,-33.36 258.25,-15.86"/>
<polygon fill="#63b8ff" stroke="#63b8ff" points="259,-12.43 248.66,-14.72 258.17,-19.38 259,-12.43"/>
</a>
</g>
</g>
<!-- Node13 -->
<g id="Node000013" class="node">
<title>Node13</title>
<g id="a_Node000013"><a xlink:title=" ">
<polygon fill="#e0e0e0" stroke="#999999" points="1194.62,-77.5 1122.38,-77.5 1122.38,-56.75 1194.62,-56.75 1194.62,-77.5"/>
<text text-anchor="middle" x="1158.5" y="-64" font-family="Helvetica,sans-Serif" font-size="10.00">core_cm3.h</text>
</a>
</g>
</g>
<!-- Node12&#45;&gt;Node13 -->
<g id="edge16_Node000012_Node000013" class="edge">
<title>Node12&#45;&gt;Node13</title>
<g id="a_edge16_Node000012_Node000013"><a xlink:title=" ">
<path fill="none" stroke="#63b8ff" d="M1158.5,-113.09C1158.5,-106.47 1158.5,-97.47 1158.5,-89.27"/>
<polygon fill="#63b8ff" stroke="#63b8ff" points="1162,-89.34 1158.5,-79.34 1155,-89.34 1162,-89.34"/>
</a>
</g>
</g>
<!-- Node14&#45;&gt;Node12 -->
<g id="edge18_Node000014_Node000012" class="edge">
<title>Node14&#45;&gt;Node12</title>
<g id="a_edge18_Node000014_Node000012"><a xlink:title=" ">
<path fill="none" stroke="#63b8ff" d="M431.62,-176.16C441.61,-173.89 452.41,-171.72 462.5,-170.25 695.24,-136.32 975.47,-127.76 1097.15,-125.6"/>
<polygon fill="#63b8ff" stroke="#63b8ff" points="1096.97,-129.1 1106.91,-125.44 1096.85,-122.1 1096.97,-129.1"/>
</a>
</g>
</g>
<!-- Node15&#45;&gt;Node12 -->
<g id="edge20_Node000015_Node000012" class="edge">
<title>Node15&#45;&gt;Node12</title>
<g id="a_edge20_Node000015_Node000012"><a xlink:title=" ">
<path fill="none" stroke="#63b8ff" d="M573.5,-176.13C583.57,-173.92 594.39,-171.78 604.5,-170.25 782.28,-143.38 994.74,-131.59 1097.23,-127.16"/>
<polygon fill="#63b8ff" stroke="#63b8ff" points="1097.22,-130.66 1107.06,-126.74 1096.92,-123.67 1097.22,-130.66"/>
</a>
</g>
</g>
<!-- Node16&#45;&gt;Node12 -->
<g id="edge22_Node000016_Node000012" class="edge">
<title>Node16&#45;&gt;Node12</title>
<g id="a_edge22_Node000016_Node000012"><a xlink:title=" ">
<path fill="none" stroke="#63b8ff" d="M717.86,-176.17C727.85,-174.02 738.53,-171.89 748.5,-170.25 871.42,-150.06 1016.59,-136.36 1097.02,-129.65"/>
<polygon fill="#63b8ff" stroke="#63b8ff" points="1097.22,-133.14 1106.9,-128.83 1096.65,-126.17 1097.22,-133.14"/>
</a>
</g>
</g>
<!-- Node17&#45;&gt;Node12 -->
<g id="edge24_Node000017_Node000012" class="edge">
<title>Node17&#45;&gt;Node12</title>
<g id="a_edge24_Node000017_Node000012"><a xlink:title=" ">
<path fill="none" stroke="#63b8ff" d="M858.64,-176.19C867.79,-174.13 877.46,-172.03 886.5,-170.25 958.63,-156.01 1042.11,-142.53 1097.36,-134.02"/>
<polygon fill="#63b8ff" stroke="#63b8ff" points="1097.86,-137.48 1107.21,-132.51 1096.8,-130.56 1097.86,-137.48"/>
</a>
</g>
</g>
<!-- Node18&#45;&gt;Node12 -->
<g id="edge26_Node000018_Node000012" class="edge">
<title>Node18&#45;&gt;Node12</title>
<g id="a_edge26_Node000018_Node000012"><a xlink:title=" ">
<path fill="none" stroke="#63b8ff" d="M1008.63,-169.78C1041.85,-159.83 1083.83,-147.25 1114.91,-137.94"/>
<polygon fill="#63b8ff" stroke="#63b8ff" points="1115.8,-141.32 1124.38,-135.1 1113.79,-134.62 1115.8,-141.32"/>
</a>
</g>
</g>
<!-- Node19&#45;&gt;Node12 -->
<g id="edge28_Node000019_Node000012" class="edge">
<title>Node19&#45;&gt;Node12</title>
<g id="a_edge28_Node000019_Node000012"><a xlink:title=" ">
<path fill="none" stroke="#63b8ff" d="M1101.43,-176.18C1111.7,-166.95 1127.29,-152.93 1139.58,-141.88"/>
<polygon fill="#63b8ff" stroke="#63b8ff" points="1141.6,-144.77 1146.7,-135.48 1136.92,-139.56 1141.6,-144.77"/>
</a>
</g>
</g>
<!-- Node20&#45;&gt;Node12 -->
<g id="edge30_Node000020_Node000012" class="edge">
<title>Node20&#45;&gt;Node12</title>
<g id="a_edge30_Node000020_Node000012"><a xlink:title=" ">
<path fill="none" stroke="#63b8ff" d="M1216.41,-176.18C1205.99,-166.95 1190.17,-152.93 1177.7,-141.88"/>
<polygon fill="#63b8ff" stroke="#63b8ff" points="1180.27,-139.48 1170.46,-135.47 1175.63,-144.72 1180.27,-139.48"/>
</a>
</g>
</g>
<!-- Node21&#45;&gt;Node12 -->
<g id="edge32_Node000021_Node000012" class="edge">
<title>Node21&#45;&gt;Node12</title>
<g id="a_edge32_Node000021_Node000012"><a xlink:title=" ">
<path fill="none" stroke="#63b8ff" d="M1330.56,-176.18C1295.74,-165.8 1240.65,-149.37 1202.21,-137.91"/>
<polygon fill="#63b8ff" stroke="#63b8ff" points="1203.39,-134.61 1192.81,-135.1 1201.39,-141.32 1203.39,-134.61"/>
</a>
</g>
</g>
<!-- Node22&#45;&gt;Node12 -->
<g id="edge34_Node000022_Node000012" class="edge">
<title>Node22&#45;&gt;Node12</title>
<g id="a_edge34_Node000022_Node000012"><a xlink:title=" ">
<path fill="none" stroke="#63b8ff" d="M1459.78,-176.13C1450.47,-174.09 1440.67,-172.03 1431.5,-170.25 1358.91,-156.18 1274.94,-142.63 1219.5,-134.06"/>
<polygon fill="#63b8ff" stroke="#63b8ff" points="1220.37,-130.65 1209.96,-132.59 1219.31,-137.57 1220.37,-130.65"/>
</a>
</g>
</g>
<!-- Node24&#45;&gt;Node12 -->
<g id="edge37_Node000024_Node000012" class="edge">
<title>Node24&#45;&gt;Node12</title>
<g id="a_edge37_Node000024_Node000012"><a xlink:title=" ">
<path fill="none" stroke="#63b8ff" d="M1750.88,-176.2C1740.7,-173.96 1729.74,-171.79 1719.5,-170.25 1539.01,-143.06 1323.22,-131.39 1219.75,-127.07"/>
<polygon fill="#63b8ff" stroke="#63b8ff" points="1219.94,-123.57 1209.81,-126.66 1219.65,-130.57 1219.94,-123.57"/>
</a>
</g>
</g>
<!-- Node25&#45;&gt;Node12 -->
<g id="edge40_Node000025_Node000012" class="edge">
<title>Node25&#45;&gt;Node12</title>
<g id="a_edge40_Node000025_Node000012"><a xlink:title=" ">
<path fill="none" stroke="#63b8ff" d="M1839.14,-239.4C1854.1,-223.16 1879.32,-190.32 1860.5,-170.25 1817.17,-124.02 1382.8,-122.93 1219.83,-124.17"/>
<polygon fill="#63b8ff" stroke="#63b8ff" points="1220.06,-120.67 1210.09,-124.25 1220.12,-127.66 1220.06,-120.67"/>
</a>
</g>
</g>
<!-- Node26 -->
<g id="Node000026" class="node">
<title>Node26</title>
<g id="a_Node000026"><a xlink:title=" ">
<polygon fill="#e0e0e0" stroke="#999999" points="1969,-197.38 1908,-197.38 1908,-176.62 1969,-176.62 1969,-197.38"/>
<text text-anchor="middle" x="1938.5" y="-183.88" font-family="Helvetica,sans-Serif" font-size="10.00">stdbool.h</text>
</a>
</g>
</g>
<!-- Node25&#45;&gt;Node26 -->
<g id="edge39_Node000025_Node000026" class="edge">
<title>Node25&#45;&gt;Node26</title>
<g id="a_edge39_Node000025_Node000026"><a xlink:title=" ">
<path fill="none" stroke="#63b8ff" d="M1847.01,-239.3C1864.33,-229.59 1891.09,-214.58 1911.2,-203.31"/>
<polygon fill="#63b8ff" stroke="#63b8ff" points="1912.7,-206.48 1919.71,-198.54 1909.28,-200.38 1912.7,-206.48"/>
</a>
</g>
</g>
<!-- Node27&#45;&gt;Node12 -->
<g id="edge42_Node000027_Node000012" class="edge">
<title>Node27&#45;&gt;Node12</title>
<g id="a_edge42_Node000027_Node000012"><a xlink:title=" ">
<path fill="none" stroke="#63b8ff" d="M1975.66,-239.36C1983.63,-222.77 1996.28,-189.05 1978.5,-170.25 1952.51,-142.78 1406.2,-129.67 1220.02,-125.99"/>
<polygon fill="#63b8ff" stroke="#63b8ff" points="1220.12,-122.49 1210.06,-125.8 1219.99,-129.49 1220.12,-122.49"/>
</a>
</g>
</g>
<!-- Node28&#45;&gt;Node12 -->
<g id="edge44_Node000028_Node000012" class="edge">
<title>Node28&#45;&gt;Node12</title>
<g id="a_edge44_Node000028_Node000012"><a xlink:title=" ">
<path fill="none" stroke="#63b8ff" d="M2104.28,-239.33C2085.16,-221.71 2041.86,-185.13 1997.5,-170.25 1924.46,-145.75 1400.71,-130.79 1219.79,-126.31"/>
<polygon fill="#63b8ff" stroke="#63b8ff" points="1219.97,-122.81 1209.89,-126.06 1219.8,-129.81 1219.97,-122.81"/>
</a>
</g>
</g>
<!-- Node29&#45;&gt;Node12 -->
<g id="edge46_Node000029_Node000012" class="edge">
<title>Node29&#45;&gt;Node12</title>
<g id="a_edge46_Node000029_Node000012"><a xlink:title=" ">
<path fill="none" stroke="#63b8ff" d="M2241.45,-239.26C2202.82,-221.7 2117.6,-185.45 2041.5,-170.25 1883.87,-138.78 1393.15,-128.43 1219.86,-125.71"/>
<polygon fill="#63b8ff" stroke="#63b8ff" points="1219.99,-122.21 1209.94,-125.56 1219.89,-129.21 1219.99,-122.21"/>
</a>
</g>
</g>
</g>
</svg>
