<?xml version="1.0" encoding="UTF-8" standalone="no"?>
<!DOCTYPE svg PUBLIC "-//W3C//DTD SVG 1.1//EN"
 "http://www.w3.org/Graphics/SVG/1.1/DTD/svg11.dtd">
<!-- Generated by graphviz version 12.1.1 (0)
 -->
<!-- Title: drivers/ccs811/include/ccs811_params.h Pages: 1 -->
<svg width="575pt" height="212pt"
 viewBox="0.00 0.00 575.38 211.75" xmlns="http://www.w3.org/2000/svg" xmlns:xlink="http://www.w3.org/1999/xlink">
<g id="graph0" class="graph" transform="scale(1 1) rotate(0) translate(4 207.75)">
<title>drivers/ccs811/include/ccs811_params.h</title>
<!-- Node1 -->
<g id="Node000001" class="node">
<title>Node1</title>
<g id="a_Node000001"><a xlink:title="Default configuration for AMS CCS811 digital gas sensors.">
<polygon fill="#999999" stroke="#666666" points="302,-203.75 177.25,-203.75 177.25,-170.25 302,-170.25 302,-203.75"/>
<text text-anchor="start" x="185.25" y="-190.25" font-family="Helvetica,sans-Serif" font-size="10.00">drivers/ccs811/include</text>
<text text-anchor="middle" x="239.62" y="-177.5" font-family="Helvetica,sans-Serif" font-size="10.00">/ccs811_params.h</text>
</a>
</g>
</g>
<!-- Node2 -->
<g id="Node000002" class="node">
<title>Node2</title>
<g id="a_Node000002"><a xlink:title=" ">
<polygon fill="#e0e0e0" stroke="#999999" points="192,-134.25 139.25,-134.25 139.25,-113.5 192,-113.5 192,-134.25"/>
<text text-anchor="middle" x="165.62" y="-120.75" font-family="Helvetica,sans-Serif" font-size="10.00">board.h</text>
</a>
</g>
</g>
<!-- Node1&#45;&gt;Node2 -->
<g id="edge1_Node000001_Node000002" class="edge">
<title>Node1&#45;&gt;Node2</title>
<g id="a_edge1_Node000001_Node000002"><a xlink:title=" ">
<path fill="none" stroke="#63b8ff" d="M220.18,-169.94C209.72,-161.3 196.81,-150.63 186.18,-141.85"/>
<polygon fill="#63b8ff" stroke="#63b8ff" points="188.65,-139.35 178.71,-135.68 184.19,-144.75 188.65,-139.35"/>
</a>
</g>
</g>
<!-- Node3 -->
<g id="Node000003" class="node">
<title>Node3</title>
<g id="a_Node000003"><a xlink:href="ccs811_8h.html" target="_top" xlink:title="Device Driver for AMS CCS811 digital gas sensor.">
<polygon fill="white" stroke="#666666" points="269,-134.25 210.25,-134.25 210.25,-113.5 269,-113.5 269,-134.25"/>
<text text-anchor="middle" x="239.62" y="-120.75" font-family="Helvetica,sans-Serif" font-size="10.00">ccs811.h</text>
</a>
</g>
</g>
<!-- Node1&#45;&gt;Node3 -->
<g id="edge2_Node000001_Node000003" class="edge">
<title>Node1&#45;&gt;Node3</title>
<g id="a_edge2_Node000001_Node000003"><a xlink:title=" ">
<path fill="none" stroke="#63b8ff" d="M239.62,-169.94C239.62,-162.6 239.62,-153.82 239.62,-145.96"/>
<polygon fill="#63b8ff" stroke="#63b8ff" points="243.13,-146.23 239.63,-136.23 236.13,-146.23 243.13,-146.23"/>
</a>
</g>
</g>
<!-- Node11 -->
<g id="Node000011" class="node">
<title>Node11</title>
<g id="a_Node000011"><a xlink:href="saul__reg_8h.html" target="_top" xlink:title="SAUL registry interface definition.">
<polygon fill="white" stroke="#666666" points="378.75,-134.25 312.5,-134.25 312.5,-113.5 378.75,-113.5 378.75,-134.25"/>
<text text-anchor="middle" x="345.62" y="-120.75" font-family="Helvetica,sans-Serif" font-size="10.00">saul_reg.h</text>
</a>
</g>
</g>
<!-- Node1&#45;&gt;Node11 -->
<g id="edge14_Node000001_Node000011" class="edge">
<title>Node1&#45;&gt;Node11</title>
<g id="a_edge14_Node000001_Node000011"><a xlink:title=" ">
<path fill="none" stroke="#63b8ff" d="M267.75,-169.78C283.65,-160.61 303.41,-149.22 319.05,-140.2"/>
<polygon fill="#63b8ff" stroke="#63b8ff" points="320.42,-143.45 327.34,-135.42 316.93,-137.38 320.42,-143.45"/>
</a>
</g>
</g>
<!-- Node4 -->
<g id="Node000004" class="node">
<title>Node4</title>
<g id="a_Node000004"><a xlink:title=" ">
<polygon fill="#e0e0e0" stroke="#999999" points="320,-20.75 267.25,-20.75 267.25,0 320,0 320,-20.75"/>
<text text-anchor="middle" x="293.62" y="-7.25" font-family="Helvetica,sans-Serif" font-size="10.00">stdint.h</text>
</a>
</g>
</g>
<!-- Node3&#45;&gt;Node4 -->
<g id="edge3_Node000003_Node000004" class="edge">
<title>Node3&#45;&gt;Node4</title>
<g id="a_edge3_Node000003_Node000004"><a xlink:title=" ">
<path fill="none" stroke="#63b8ff" d="M244.23,-113.37C252.99,-95.27 272.24,-55.53 283.95,-31.35"/>
<polygon fill="#63b8ff" stroke="#63b8ff" points="287.01,-33.06 288.22,-22.54 280.71,-30.01 287.01,-33.06"/>
</a>
</g>
</g>
<!-- Node5 -->
<g id="Node000005" class="node">
<title>Node5</title>
<g id="a_Node000005"><a xlink:href="drivers_2include_2periph_2gpio_8h.html" target="_top" xlink:title="Low&#45;level GPIO peripheral driver interface definitions.">
<polygon fill="white" stroke="#666666" points="160.5,-77.5 80.75,-77.5 80.75,-56.75 160.5,-56.75 160.5,-77.5"/>
<text text-anchor="middle" x="120.62" y="-64" font-family="Helvetica,sans-Serif" font-size="10.00">periph/gpio.h</text>
</a>
</g>
</g>
<!-- Node3&#45;&gt;Node5 -->
<g id="edge4_Node000003_Node000005" class="edge">
<title>Node3&#45;&gt;Node5</title>
<g id="a_edge4_Node000003_Node000005"><a xlink:title=" ">
<path fill="none" stroke="#63b8ff" d="M218.35,-113.09C199.91,-104.6 172.96,-92.2 152.03,-82.58"/>
<polygon fill="#63b8ff" stroke="#63b8ff" points="153.64,-79.46 143.09,-78.46 150.71,-85.82 153.64,-79.46"/>
</a>
</g>
</g>
<!-- Node9 -->
<g id="Node000009" class="node">
<title>Node9</title>
<g id="a_Node000009"><a xlink:href="i2c_8h.html" target="_top" xlink:title="Low&#45;level I2C peripheral driver interface definition.">
<polygon fill="white" stroke="#666666" points="251.12,-77.5 178.12,-77.5 178.12,-56.75 251.12,-56.75 251.12,-77.5"/>
<text text-anchor="middle" x="214.62" y="-64" font-family="Helvetica,sans-Serif" font-size="10.00">periph/i2c.h</text>
</a>
</g>
</g>
<!-- Node3&#45;&gt;Node9 -->
<g id="edge8_Node000003_Node000009" class="edge">
<title>Node3&#45;&gt;Node9</title>
<g id="a_edge8_Node000003_Node000009"><a xlink:title=" ">
<path fill="none" stroke="#63b8ff" d="M235.16,-113.09C231.99,-106.16 227.64,-96.62 223.75,-88.11"/>
<polygon fill="#63b8ff" stroke="#63b8ff" points="227.02,-86.85 219.68,-79.21 220.65,-89.76 227.02,-86.85"/>
</a>
</g>
</g>
<!-- Node6 -->
<g id="Node000006" class="node">
<title>Node6</title>
<g id="a_Node000006"><a xlink:title=" ">
<polygon fill="#e0e0e0" stroke="#999999" points="152,-20.75 99.25,-20.75 99.25,0 152,0 152,-20.75"/>
<text text-anchor="middle" x="125.62" y="-7.25" font-family="Helvetica,sans-Serif" font-size="10.00">limits.h</text>
</a>
</g>
</g>
<!-- Node5&#45;&gt;Node6 -->
<g id="edge5_Node000005_Node000006" class="edge">
<title>Node5&#45;&gt;Node6</title>
<g id="a_edge5_Node000005_Node000006"><a xlink:title=" ">
<path fill="none" stroke="#63b8ff" d="M121.52,-56.34C122.12,-49.72 122.94,-40.72 123.69,-32.52"/>
<polygon fill="#63b8ff" stroke="#63b8ff" points="127.18,-32.86 124.6,-22.59 120.21,-32.23 127.18,-32.86"/>
</a>
</g>
</g>
<!-- Node7 -->
<g id="Node000007" class="node">
<title>Node7</title>
<g id="a_Node000007"><a xlink:title=" ">
<polygon fill="#e0e0e0" stroke="#999999" points="248.75,-20.75 170.5,-20.75 170.5,0 248.75,0 248.75,-20.75"/>
<text text-anchor="middle" x="209.62" y="-7.25" font-family="Helvetica,sans-Serif" font-size="10.00">periph_cpu.h</text>
</a>
</g>
</g>
<!-- Node5&#45;&gt;Node7 -->
<g id="edge6_Node000005_Node000007" class="edge">
<title>Node5&#45;&gt;Node7</title>
<g id="a_edge6_Node000005_Node000007"><a xlink:title=" ">
<path fill="none" stroke="#63b8ff" d="M136.54,-56.34C149.83,-48.16 169.01,-36.36 184.39,-26.9"/>
<polygon fill="#63b8ff" stroke="#63b8ff" points="185.88,-30.09 192.56,-21.87 182.21,-24.13 185.88,-30.09"/>
</a>
</g>
</g>
<!-- Node8 -->
<g id="Node000008" class="node">
<title>Node8</title>
<g id="a_Node000008"><a xlink:title=" ">
<polygon fill="#e0e0e0" stroke="#999999" points="81.25,-20.75 0,-20.75 0,0 81.25,0 81.25,-20.75"/>
<text text-anchor="middle" x="40.62" y="-7.25" font-family="Helvetica,sans-Serif" font-size="10.00">periph_conf.h</text>
</a>
</g>
</g>
<!-- Node5&#45;&gt;Node8 -->
<g id="edge7_Node000005_Node000008" class="edge">
<title>Node5&#45;&gt;Node8</title>
<g id="a_edge7_Node000005_Node000008"><a xlink:title=" ">
<path fill="none" stroke="#63b8ff" d="M106.32,-56.34C94.61,-48.32 77.79,-36.81 64.1,-27.44"/>
<polygon fill="#63b8ff" stroke="#63b8ff" points="66.28,-24.69 56.05,-21.93 62.33,-30.47 66.28,-24.69"/>
</a>
</g>
</g>
<!-- Node9&#45;&gt;Node4 -->
<g id="edge9_Node000009_Node000004" class="edge">
<title>Node9&#45;&gt;Node4</title>
<g id="a_edge9_Node000009_Node000004"><a xlink:title=" ">
<path fill="none" stroke="#63b8ff" d="M228.75,-56.34C240.32,-48.32 256.93,-36.81 270.44,-27.44"/>
<polygon fill="#63b8ff" stroke="#63b8ff" points="272.15,-30.51 278.38,-21.94 268.17,-24.76 272.15,-30.51"/>
</a>
</g>
</g>
<!-- Node9&#45;&gt;Node6 -->
<g id="edge11_Node000009_Node000006" class="edge">
<title>Node9&#45;&gt;Node6</title>
<g id="a_edge11_Node000009_Node000006"><a xlink:title=" ">
<path fill="none" stroke="#63b8ff" d="M198.71,-56.34C185.42,-48.16 166.24,-36.36 150.86,-26.9"/>
<polygon fill="#63b8ff" stroke="#63b8ff" points="153.04,-24.13 142.69,-21.87 149.37,-30.09 153.04,-24.13"/>
</a>
</g>
</g>
<!-- Node9&#45;&gt;Node7 -->
<g id="edge13_Node000009_Node000007" class="edge">
<title>Node9&#45;&gt;Node7</title>
<g id="a_edge13_Node000009_Node000007"><a xlink:title=" ">
<path fill="none" stroke="#63b8ff" d="M213.73,-56.34C213.13,-49.72 212.31,-40.72 211.56,-32.52"/>
<polygon fill="#63b8ff" stroke="#63b8ff" points="215.04,-32.23 210.65,-22.59 208.07,-32.86 215.04,-32.23"/>
</a>
</g>
</g>
<!-- Node9&#45;&gt;Node8 -->
<g id="edge12_Node000009_Node000008" class="edge">
<title>Node9&#45;&gt;Node8</title>
<g id="a_edge12_Node000009_Node000008"><a xlink:title=" ">
<path fill="none" stroke="#63b8ff" d="M183.52,-56.34C155.4,-47.49 113.77,-34.39 82.69,-24.61"/>
<polygon fill="#63b8ff" stroke="#63b8ff" points="83.79,-21.29 73.2,-21.62 81.69,-27.97 83.79,-21.29"/>
</a>
</g>
</g>
<!-- Node10 -->
<g id="Node000010" class="node">
<title>Node10</title>
<g id="a_Node000010"><a xlink:title=" ">
<polygon fill="#e0e0e0" stroke="#999999" points="393.12,-20.75 338.12,-20.75 338.12,0 393.12,0 393.12,-20.75"/>
<text text-anchor="middle" x="365.62" y="-7.25" font-family="Helvetica,sans-Serif" font-size="10.00">stddef.h</text>
</a>
</g>
</g>
<!-- Node9&#45;&gt;Node10 -->
<g id="edge10_Node000009_Node000010" class="edge">
<title>Node9&#45;&gt;Node10</title>
<g id="a_edge10_Node000009_Node000010"><a xlink:title=" ">
<path fill="none" stroke="#63b8ff" d="M241.62,-56.34C265.7,-47.61 301.2,-34.73 328.05,-25"/>
<polygon fill="#63b8ff" stroke="#63b8ff" points="328.98,-28.39 337.19,-21.69 326.59,-21.8 328.98,-28.39"/>
</a>
</g>
</g>
<!-- Node11&#45;&gt;Node4 -->
<g id="edge15_Node000011_Node000004" class="edge">
<title>Node11&#45;&gt;Node4</title>
<g id="a_edge15_Node000011_Node000004"><a xlink:title=" ">
<path fill="none" stroke="#63b8ff" d="M341.19,-113.37C332.75,-95.27 314.22,-55.53 302.94,-31.35"/>
<polygon fill="#63b8ff" stroke="#63b8ff" points="306.23,-30.13 298.84,-22.55 299.89,-33.09 306.23,-30.13"/>
</a>
</g>
</g>
<!-- Node12 -->
<g id="Node000012" class="node">
<title>Node12</title>
<g id="a_Node000012"><a xlink:title=" ">
<polygon fill="#e0e0e0" stroke="#999999" points="467.25,-77.5 422,-77.5 422,-56.75 467.25,-56.75 467.25,-77.5"/>
<text text-anchor="middle" x="444.62" y="-64" font-family="Helvetica,sans-Serif" font-size="10.00">saul.h</text>
</a>
</g>
</g>
<!-- Node11&#45;&gt;Node12 -->
<g id="edge16_Node000011_Node000012" class="edge">
<title>Node11&#45;&gt;Node12</title>
<g id="a_edge16_Node000011_Node000012"><a xlink:title=" ">
<path fill="none" stroke="#63b8ff" d="M363.32,-113.09C378.25,-104.83 399.86,-92.88 417.05,-83.38"/>
<polygon fill="#63b8ff" stroke="#63b8ff" points="418.7,-86.46 425.75,-78.56 415.31,-80.34 418.7,-86.46"/>
</a>
</g>
</g>
<!-- Node13 -->
<g id="Node000013" class="node">
<title>Node13</title>
<g id="a_Node000013"><a xlink:href="phydat_8h.html" target="_top" xlink:title="Generic data container for physical data interface.">
<polygon fill="white" stroke="#666666" points="404,-77.5 345.25,-77.5 345.25,-56.75 404,-56.75 404,-77.5"/>
<text text-anchor="middle" x="374.62" y="-64" font-family="Helvetica,sans-Serif" font-size="10.00">phydat.h</text>
</a>
</g>
</g>
<!-- Node11&#45;&gt;Node13 -->
<g id="edge17_Node000011_Node000013" class="edge">
<title>Node11&#45;&gt;Node13</title>
<g id="a_edge17_Node000011_Node000013"><a xlink:title=" ">
<path fill="none" stroke="#63b8ff" d="M350.81,-113.09C354.52,-106.08 359.64,-96.41 364.19,-87.83"/>
<polygon fill="#63b8ff" stroke="#63b8ff" points="367.19,-89.64 368.78,-79.17 361,-86.36 367.19,-89.64"/>
</a>
</g>
</g>
<!-- Node13&#45;&gt;Node4 -->
<g id="edge19_Node000013_Node000004" class="edge">
<title>Node13&#45;&gt;Node4</title>
<g id="a_edge19_Node000013_Node000004"><a xlink:title=" ">
<path fill="none" stroke="#63b8ff" d="M360.14,-56.34C348.28,-48.32 331.25,-36.81 317.39,-27.44"/>
<polygon fill="#63b8ff" stroke="#63b8ff" points="319.48,-24.63 309.23,-21.93 315.56,-30.43 319.48,-24.63"/>
</a>
</g>
</g>
<!-- Node13&#45;&gt;Node10 -->
<g id="edge18_Node000013_Node000010" class="edge">
<title>Node13&#45;&gt;Node10</title>
<g id="a_edge18_Node000013_Node000010"><a xlink:title=" ">
<path fill="none" stroke="#63b8ff" d="M373.02,-56.34C371.92,-49.64 370.41,-40.51 369.05,-32.23"/>
<polygon fill="#63b8ff" stroke="#63b8ff" points="372.54,-31.87 367.47,-22.57 365.63,-33.01 372.54,-31.87"/>
</a>
</g>
</g>
<!-- Node14 -->
<g id="Node000014" class="node">
<title>Node14</title>
<g id="a_Node000014"><a xlink:title=" ">
<polygon fill="#e0e0e0" stroke="#999999" points="567.38,-20.75 495.88,-20.75 495.88,0 567.38,0 567.38,-20.75"/>
<text text-anchor="middle" x="531.62" y="-7.25" font-family="Helvetica,sans-Serif" font-size="10.00">sys/types.h</text>
</a>
</g>
</g>
<!-- Node13&#45;&gt;Node14 -->
<g id="edge20_Node000013_Node000014" class="edge">
<title>Node13&#45;&gt;Node14</title>
<g id="a_edge20_Node000013_Node000014"><a xlink:title=" ">
<path fill="none" stroke="#63b8ff" d="M402.69,-56.34C427.84,-47.57 464.97,-34.62 492.93,-24.87"/>
<polygon fill="#63b8ff" stroke="#63b8ff" points="493.82,-28.27 502.11,-21.67 491.51,-21.66 493.82,-28.27"/>
</a>
</g>
</g>
<!-- Node15 -->
<g id="Node000015" class="node">
<title>Node15</title>
<g id="a_Node000015"><a xlink:href="modules_8h.html" target="_top" xlink:title="Common macros and compiler attributes/pragmas configuration.">
<polygon fill="white" stroke="#666666" points="478.12,-20.75 411.12,-20.75 411.12,0 478.12,0 478.12,-20.75"/>
<text text-anchor="middle" x="444.62" y="-7.25" font-family="Helvetica,sans-Serif" font-size="10.00">modules.h</text>
</a>
</g>
</g>
<!-- Node13&#45;&gt;Node15 -->
<g id="edge21_Node000013_Node000015" class="edge">
<title>Node13&#45;&gt;Node15</title>
<g id="a_edge21_Node000013_Node000015"><a xlink:title=" ">
<path fill="none" stroke="#63b8ff" d="M387.14,-56.34C397.19,-48.47 411.54,-37.25 423.38,-27.99"/>
<polygon fill="#63b8ff" stroke="#63b8ff" points="425.31,-30.93 431.03,-22.01 420.99,-25.41 425.31,-30.93"/>
</a>
</g>
</g>
</g>
</svg>
