<?xml version="1.0" encoding="UTF-8" standalone="no"?>
<!DOCTYPE svg PUBLIC "-//W3C//DTD SVG 1.1//EN"
 "http://www.w3.org/Graphics/SVG/1.1/DTD/svg11.dtd">
<!-- Generated by graphviz version 12.1.1 (0)
 -->
<!-- Title: boards/common/nrf51/include/cfg_clock_16_0.h Pages: 1 -->
<svg width="427pt" height="111pt"
 viewBox="0.00 0.00 426.88 111.00" xmlns="http://www.w3.org/2000/svg" xmlns:xlink="http://www.w3.org/1999/xlink">
<g id="graph0" class="graph" transform="scale(1 1) rotate(0) translate(4 107)">
<title>boards/common/nrf51/include/cfg_clock_16_0.h</title>
<!-- Node1 -->
<g id="Node000001" class="node">
<title>Node1</title>
<g id="a_Node000001"><a xlink:title="Common clock configuration for some nrf51 based boards.">
<polygon fill="#999999" stroke="#666666" points="276.5,-103 136,-103 136,-69.5 276.5,-69.5 276.5,-103"/>
<text text-anchor="start" x="144" y="-89.5" font-family="Helvetica,sans-Serif" font-size="10.00">boards/common/nrf51</text>
<text text-anchor="middle" x="206.25" y="-76.75" font-family="Helvetica,sans-Serif" font-size="10.00">/include/cfg_clock_16_0.h</text>
</a>
</g>
</g>
<!-- Node2 -->
<g id="Node000002" class="node">
<title>Node2</title>
<g id="a_Node000002"><a xlink:href="boards_2calliope-mini_2include_2periph__conf_8h.html" target="_top" xlink:title="Peripheral configuration for the Calliope mini.">
<polygon fill="white" stroke="#666666" points="122.5,-33.5 0,-33.5 0,0 122.5,0 122.5,-33.5"/>
<text text-anchor="start" x="8" y="-20" font-family="Helvetica,sans-Serif" font-size="10.00">boards/calliope&#45;mini</text>
<text text-anchor="middle" x="61.25" y="-7.25" font-family="Helvetica,sans-Serif" font-size="10.00">/include/periph_conf.h</text>
</a>
</g>
</g>
<!-- Node1&#45;&gt;Node2 -->
<g id="edge1_Node000001_Node000002" class="edge">
<title>Node1&#45;&gt;Node2</title>
<g id="a_edge1_Node000001_Node000002"><a xlink:title=" ">
<path fill="none" stroke="#63b8ff" d="M161.21,-64.28C140.17,-54.49 115.51,-43.01 95.95,-33.9"/>
<polygon fill="#63b8ff" stroke="#63b8ff" points="159.6,-67.4 170.15,-68.44 162.56,-61.05 159.6,-67.4"/>
</a>
</g>
</g>
<!-- Node3 -->
<g id="Node000003" class="node">
<title>Node3</title>
<g id="a_Node000003"><a xlink:href="boards_2microbit_2include_2periph__conf_8h.html" target="_top" xlink:title="Peripheral configuration for the BBC micro:bit.">
<polygon fill="white" stroke="#666666" points="271.62,-33.5 140.88,-33.5 140.88,0 271.62,0 271.62,-33.5"/>
<text text-anchor="start" x="148.88" y="-20" font-family="Helvetica,sans-Serif" font-size="10.00">boards/microbit/include</text>
<text text-anchor="middle" x="206.25" y="-7.25" font-family="Helvetica,sans-Serif" font-size="10.00">/periph_conf.h</text>
</a>
</g>
</g>
<!-- Node1&#45;&gt;Node3 -->
<g id="edge2_Node000001_Node000003" class="edge">
<title>Node1&#45;&gt;Node3</title>
<g id="a_edge2_Node000001_Node000003"><a xlink:title=" ">
<path fill="none" stroke="#63b8ff" d="M206.25,-57.81C206.25,-49.59 206.25,-40.84 206.25,-33.63"/>
<polygon fill="#63b8ff" stroke="#63b8ff" points="202.75,-57.74 206.25,-67.74 209.75,-57.74 202.75,-57.74"/>
</a>
</g>
</g>
<!-- Node4 -->
<g id="Node000004" class="node">
<title>Node4</title>
<g id="a_Node000004"><a xlink:href="boards_2yunjia-nrf51822_2include_2periph__conf_8h.html" target="_top" xlink:title="Peripheral MCU configuration for the Yunjia NRF51822 board.">
<polygon fill="white" stroke="#666666" points="418.88,-33.5 289.62,-33.5 289.62,0 418.88,0 418.88,-33.5"/>
<text text-anchor="start" x="297.62" y="-20" font-family="Helvetica,sans-Serif" font-size="10.00">boards/yunjia&#45;nrf51822</text>
<text text-anchor="middle" x="354.25" y="-7.25" font-family="Helvetica,sans-Serif" font-size="10.00">/include/periph_conf.h</text>
</a>
</g>
</g>
<!-- Node1&#45;&gt;Node4 -->
<g id="edge3_Node000001_Node000004" class="edge">
<title>Node1&#45;&gt;Node4</title>
<g id="a_edge3_Node000001_Node000004"><a xlink:title=" ">
<path fill="none" stroke="#63b8ff" d="M251.93,-64.42C273.47,-54.59 298.78,-43.05 318.83,-33.9"/>
<polygon fill="#63b8ff" stroke="#63b8ff" points="250.72,-61.12 243.08,-68.45 253.63,-67.49 250.72,-61.12"/>
</a>
</g>
</g>
</g>
</svg>
