<?xml version="1.0" encoding="UTF-8" standalone="no"?>
<!DOCTYPE svg PUBLIC "-//W3C//DTD SVG 1.1//EN"
 "http://www.w3.org/Graphics/SVG/1.1/DTD/svg11.dtd">
<!-- Generated by graphviz version 12.1.1 (0)
 -->
<!-- Title: boards/common/stm32/include/cfg_i2c1_pb8_pb9.h Pages: 1 -->
<svg width="4408pt" height="124pt"
 viewBox="0.00 0.00 4408.38 123.75" xmlns="http://www.w3.org/2000/svg" xmlns:xlink="http://www.w3.org/1999/xlink">
<g id="graph0" class="graph" transform="scale(1 1) rotate(0) translate(4 119.75)">
<title>boards/common/stm32/include/cfg_i2c1_pb8_pb9.h</title>
<!-- Node1 -->
<g id="Node000001" class="node">
<title>Node1</title>
<g id="a_Node000001"><a xlink:title="Common configuration for STM32 I2C.">
<polygon fill="#999999" stroke="#666666" points="2291,-115.75 2137.75,-115.75 2137.75,-82.25 2291,-82.25 2291,-115.75"/>
<text text-anchor="start" x="2145.75" y="-102.25" font-family="Helvetica,sans-Serif" font-size="10.00">boards/common/stm32</text>
<text text-anchor="middle" x="2214.38" y="-89.5" font-family="Helvetica,sans-Serif" font-size="10.00">/include/cfg_i2c1_pb8_pb9.h</text>
</a>
</g>
</g>
<!-- Node2 -->
<g id="Node000002" class="node">
<title>Node2</title>
<g id="a_Node000002"><a xlink:href="boards_2b-l072z-lrwan1_2include_2periph__conf_8h.html" target="_top" xlink:title="Peripheral MCU configuration for the ST B&#45;L072Z&#45;LRWAN1 board.">
<polygon fill="white" stroke="#666666" points="124.75,-39.88 0,-39.88 0,-6.38 124.75,-6.38 124.75,-39.88"/>
<text text-anchor="start" x="8" y="-26.38" font-family="Helvetica,sans-Serif" font-size="10.00">boards/b&#45;l072z&#45;lrwan1</text>
<text text-anchor="middle" x="62.38" y="-13.62" font-family="Helvetica,sans-Serif" font-size="10.00">/include/periph_conf.h</text>
</a>
</g>
</g>
<!-- Node1&#45;&gt;Node2 -->
<g id="edge1_Node000001_Node000002" class="edge">
<title>Node1&#45;&gt;Node2</title>
<g id="a_edge1_Node000001_Node000002"><a xlink:title=" ">
<path fill="none" stroke="#63b8ff" d="M2125.82,-97.24C1754.3,-93.87 331.51,-78.93 133.38,-46.25 124.97,-44.86 116.18,-42.72 107.76,-40.3"/>
<polygon fill="#63b8ff" stroke="#63b8ff" points="2125.74,-100.74 2135.77,-97.33 2125.8,-93.74 2125.74,-100.74"/>
</a>
</g>
</g>
<!-- Node3 -->
<g id="Node000003" class="node">
<title>Node3</title>
<g id="a_Node000003"><a xlink:href="boards_2bluepill-stm32f030c8_2include_2periph__conf_8h.html" target="_top" xlink:title="Peripheral MCU configuration for the bluepill&#45;stm32f030c8 board.">
<polygon fill="white" stroke="#666666" points="298.12,-39.88 142.62,-39.88 142.62,-6.38 298.12,-6.38 298.12,-39.88"/>
<text text-anchor="start" x="150.62" y="-26.38" font-family="Helvetica,sans-Serif" font-size="10.00">boards/bluepill&#45;stm32f030c8</text>
<text text-anchor="middle" x="220.38" y="-13.62" font-family="Helvetica,sans-Serif" font-size="10.00">/include/periph_conf.h</text>
</a>
</g>
</g>
<!-- Node1&#45;&gt;Node3 -->
<g id="edge2_Node000001_Node000003" class="edge">
<title>Node1&#45;&gt;Node3</title>
<g id="a_edge2_Node000001_Node000003"><a xlink:title=" ">
<path fill="none" stroke="#63b8ff" d="M2126.22,-98.23C1800.43,-98.69 664.74,-96.55 306.38,-46.25 296.45,-44.86 286.02,-42.75 275.99,-40.37"/>
<polygon fill="#63b8ff" stroke="#63b8ff" points="2125.96,-101.73 2135.95,-98.22 2125.95,-94.73 2125.96,-101.73"/>
</a>
</g>
</g>
<!-- Node4 -->
<g id="Node000004" class="node">
<title>Node4</title>
<g id="a_Node000004"><a xlink:href="boards_2common_2weact-f4x1cx_2include_2periph__conf_8h.html" target="_top" xlink:title="Peripheral MCU configuration for the WeAct&#45;F4X1CX Board.">
<polygon fill="white" stroke="#666666" points="442.88,-46.25 315.88,-46.25 315.88,0 442.88,0 442.88,-46.25"/>
<text text-anchor="start" x="323.88" y="-32.75" font-family="Helvetica,sans-Serif" font-size="10.00">boards/common/weact</text>
<text text-anchor="start" x="323.88" y="-20" font-family="Helvetica,sans-Serif" font-size="10.00">&#45;f4x1cx/include/periph</text>
<text text-anchor="middle" x="379.38" y="-7.25" font-family="Helvetica,sans-Serif" font-size="10.00">_conf.h</text>
</a>
</g>
</g>
<!-- Node1&#45;&gt;Node4 -->
<g id="edge3_Node000001_Node000004" class="edge">
<title>Node1&#45;&gt;Node4</title>
<g id="a_edge3_Node000001_Node000004"><a xlink:title=" ">
<path fill="none" stroke="#63b8ff" d="M2126.2,-98.49C1816.54,-99.73 779.81,-99.7 452.38,-46.25 449.37,-45.76 446.31,-45.18 443.24,-44.53"/>
<polygon fill="#63b8ff" stroke="#63b8ff" points="2125.85,-101.99 2135.83,-98.45 2125.82,-94.99 2125.85,-101.99"/>
</a>
</g>
</g>
<!-- Node5 -->
<g id="Node000005" class="node">
<title>Node5</title>
<g id="a_Node000005"><a xlink:href="boards_2nucleo-c031c6_2include_2periph__conf_8h.html" target="_top" xlink:title="Peripheral MCU configuration for the nucleo&#45;c031c6 board.">
<polygon fill="white" stroke="#666666" points="583.62,-39.88 461.12,-39.88 461.12,-6.38 583.62,-6.38 583.62,-39.88"/>
<text text-anchor="start" x="469.12" y="-26.38" font-family="Helvetica,sans-Serif" font-size="10.00">boards/nucleo&#45;c031c6</text>
<text text-anchor="middle" x="522.38" y="-13.62" font-family="Helvetica,sans-Serif" font-size="10.00">/include/periph_conf.h</text>
</a>
</g>
</g>
<!-- Node1&#45;&gt;Node5 -->
<g id="edge4_Node000001_Node000005" class="edge">
<title>Node1&#45;&gt;Node5</title>
<g id="a_edge4_Node000001_Node000005"><a xlink:title=" ">
<path fill="none" stroke="#63b8ff" d="M2125.94,-98.31C1832.35,-98.87 891.85,-96.56 593.38,-46.25 585.1,-44.86 576.45,-42.74 568.15,-40.37"/>
<polygon fill="#63b8ff" stroke="#63b8ff" points="2125.85,-101.81 2135.84,-98.29 2125.83,-94.81 2125.85,-101.81"/>
</a>
</g>
</g>
<!-- Node6 -->
<g id="Node000006" class="node">
<title>Node6</title>
<g id="a_Node000006"><a xlink:href="boards_2nucleo-f030r8_2include_2periph__conf_8h.html" target="_top" xlink:title="Peripheral MCU configuration for the nucleo&#45;f030r8 board.">
<polygon fill="white" stroke="#666666" points="724.62,-39.88 602.12,-39.88 602.12,-6.38 724.62,-6.38 724.62,-39.88"/>
<text text-anchor="start" x="610.12" y="-26.38" font-family="Helvetica,sans-Serif" font-size="10.00">boards/nucleo&#45;f030r8</text>
<text text-anchor="middle" x="663.38" y="-13.62" font-family="Helvetica,sans-Serif" font-size="10.00">/include/periph_conf.h</text>
</a>
</g>
</g>
<!-- Node1&#45;&gt;Node6 -->
<g id="edge5_Node000001_Node000006" class="edge">
<title>Node1&#45;&gt;Node6</title>
<g id="a_edge5_Node000001_Node000006"><a xlink:title=" ">
<path fill="none" stroke="#63b8ff" d="M2126.16,-98C1850,-97.51 1004.37,-92.18 734.38,-46.25 726.1,-44.84 717.45,-42.72 709.15,-40.34"/>
<polygon fill="#63b8ff" stroke="#63b8ff" points="2125.8,-101.5 2135.8,-98.01 2125.81,-94.5 2125.8,-101.5"/>
</a>
</g>
</g>
<!-- Node7 -->
<g id="Node000007" class="node">
<title>Node7</title>
<g id="a_Node000007"><a xlink:href="boards_2nucleo-f070rb_2include_2periph__conf_8h.html" target="_top" xlink:title="Peripheral MCU configuration for the nucleo&#45;f070rb board.">
<polygon fill="white" stroke="#666666" points="865.62,-39.88 743.12,-39.88 743.12,-6.38 865.62,-6.38 865.62,-39.88"/>
<text text-anchor="start" x="751.12" y="-26.38" font-family="Helvetica,sans-Serif" font-size="10.00">boards/nucleo&#45;f070rb</text>
<text text-anchor="middle" x="804.38" y="-13.62" font-family="Helvetica,sans-Serif" font-size="10.00">/include/periph_conf.h</text>
</a>
</g>
</g>
<!-- Node1&#45;&gt;Node7 -->
<g id="edge6_Node000001_Node000007" class="edge">
<title>Node1&#45;&gt;Node7</title>
<g id="a_edge6_Node000001_Node000007"><a xlink:title=" ">
<path fill="none" stroke="#63b8ff" d="M2126.28,-97.62C1868.2,-96.01 1116.96,-87.81 875.38,-46.25 867.1,-44.83 858.46,-42.7 850.16,-40.32"/>
<polygon fill="#63b8ff" stroke="#63b8ff" points="2125.92,-101.11 2135.94,-97.67 2125.96,-94.11 2125.92,-101.11"/>
</a>
</g>
</g>
<!-- Node8 -->
<g id="Node000008" class="node">
<title>Node8</title>
<g id="a_Node000008"><a xlink:href="boards_2nucleo-f072rb_2include_2periph__conf_8h.html" target="_top" xlink:title="Peripheral MCU configuration for the nucleo&#45;f072rb board.">
<polygon fill="white" stroke="#666666" points="1006.62,-39.88 884.12,-39.88 884.12,-6.38 1006.62,-6.38 1006.62,-39.88"/>
<text text-anchor="start" x="892.12" y="-26.38" font-family="Helvetica,sans-Serif" font-size="10.00">boards/nucleo&#45;f072rb</text>
<text text-anchor="middle" x="945.38" y="-13.62" font-family="Helvetica,sans-Serif" font-size="10.00">/include/periph_conf.h</text>
</a>
</g>
</g>
<!-- Node1&#45;&gt;Node8 -->
<g id="edge7_Node000001_Node000008" class="edge">
<title>Node1&#45;&gt;Node8</title>
<g id="a_edge7_Node000001_Node000008"><a xlink:title=" ">
<path fill="none" stroke="#63b8ff" d="M2126.21,-97.15C1887.03,-94.36 1229.63,-83.43 1016.38,-46.25 1008.11,-44.81 999.46,-42.67 991.16,-40.29"/>
<polygon fill="#63b8ff" stroke="#63b8ff" points="2126.06,-100.64 2136.1,-97.26 2126.14,-93.64 2126.06,-100.64"/>
</a>
</g>
</g>
<!-- Node9 -->
<g id="Node000009" class="node">
<title>Node9</title>
<g id="a_Node000009"><a xlink:href="boards_2nucleo-f091rc_2include_2periph__conf_8h.html" target="_top" xlink:title="Peripheral MCU configuration for the nucleo&#45;f091rc board.">
<polygon fill="white" stroke="#666666" points="1147.62,-39.88 1025.12,-39.88 1025.12,-6.38 1147.62,-6.38 1147.62,-39.88"/>
<text text-anchor="start" x="1033.12" y="-26.38" font-family="Helvetica,sans-Serif" font-size="10.00">boards/nucleo&#45;f091rc</text>
<text text-anchor="middle" x="1086.38" y="-13.62" font-family="Helvetica,sans-Serif" font-size="10.00">/include/periph_conf.h</text>
</a>
</g>
</g>
<!-- Node1&#45;&gt;Node9 -->
<g id="edge8_Node000001_Node000009" class="edge">
<title>Node1&#45;&gt;Node9</title>
<g id="a_edge8_Node000001_Node000009"><a xlink:title=" ">
<path fill="none" stroke="#63b8ff" d="M2126,-96.55C1906.79,-92.48 1342.43,-79.07 1157.38,-46.25 1149.24,-44.81 1140.73,-42.7 1132.55,-40.36"/>
<polygon fill="#63b8ff" stroke="#63b8ff" points="2125.86,-100.05 2135.92,-96.73 2125.98,-93.05 2125.86,-100.05"/>
</a>
</g>
</g>
<!-- Node10 -->
<g id="Node000010" class="node">
<title>Node10</title>
<g id="a_Node000010"><a xlink:href="boards_2nucleo-f207zg_2include_2periph__conf_8h.html" target="_top" xlink:title=" ">
<polygon fill="white" stroke="#666666" points="1288.62,-39.88 1166.12,-39.88 1166.12,-6.38 1288.62,-6.38 1288.62,-39.88"/>
<text text-anchor="start" x="1174.12" y="-26.38" font-family="Helvetica,sans-Serif" font-size="10.00">boards/nucleo&#45;f207zg</text>
<text text-anchor="middle" x="1227.38" y="-13.62" font-family="Helvetica,sans-Serif" font-size="10.00">/include/periph_conf.h</text>
</a>
</g>
</g>
<!-- Node1&#45;&gt;Node10 -->
<g id="edge9_Node000001_Node000010" class="edge">
<title>Node1&#45;&gt;Node10</title>
<g id="a_edge9_Node000001_Node000010"><a xlink:title=" ">
<path fill="none" stroke="#63b8ff" d="M2126.06,-95.77C1928.41,-90.34 1455.5,-74.72 1298.38,-46.25 1290.24,-44.78 1281.74,-42.66 1273.56,-40.31"/>
<polygon fill="#63b8ff" stroke="#63b8ff" points="2125.93,-99.27 2136.02,-96.04 2126.12,-92.27 2125.93,-99.27"/>
</a>
</g>
</g>
<!-- Node11 -->
<g id="Node000011" class="node">
<title>Node11</title>
<g id="a_Node000011"><a xlink:href="boards_2nucleo-f401re_2include_2periph__conf_8h.html" target="_top" xlink:title=" ">
<polygon fill="white" stroke="#666666" points="1429.62,-39.88 1307.12,-39.88 1307.12,-6.38 1429.62,-6.38 1429.62,-39.88"/>
<text text-anchor="start" x="1315.12" y="-26.38" font-family="Helvetica,sans-Serif" font-size="10.00">boards/nucleo&#45;f401re</text>
<text text-anchor="middle" x="1368.38" y="-13.62" font-family="Helvetica,sans-Serif" font-size="10.00">/include/periph_conf.h</text>
</a>
</g>
</g>
<!-- Node1&#45;&gt;Node11 -->
<g id="edge10_Node000001_Node000011" class="edge">
<title>Node1&#45;&gt;Node11</title>
<g id="a_edge10_Node000001_Node000011"><a xlink:title=" ">
<path fill="none" stroke="#63b8ff" d="M2126.03,-98.82C1981.27,-98.67 1685.09,-92.07 1439.38,-46.25 1431.38,-44.76 1423.02,-42.66 1414.96,-40.35"/>
<polygon fill="#63b8ff" stroke="#63b8ff" points="2125.94,-102.32 2135.94,-98.82 2125.94,-95.32 2125.94,-102.32"/>
</a>
</g>
</g>
<!-- Node12 -->
<g id="Node000012" class="node">
<title>Node12</title>
<g id="a_Node000012"><a xlink:href="boards_2nucleo-f410rb_2include_2periph__conf_8h.html" target="_top" xlink:title=" ">
<polygon fill="white" stroke="#666666" points="1570.62,-39.88 1448.12,-39.88 1448.12,-6.38 1570.62,-6.38 1570.62,-39.88"/>
<text text-anchor="start" x="1456.12" y="-26.38" font-family="Helvetica,sans-Serif" font-size="10.00">boards/nucleo&#45;f410rb</text>
<text text-anchor="middle" x="1509.38" y="-13.62" font-family="Helvetica,sans-Serif" font-size="10.00">/include/periph_conf.h</text>
</a>
</g>
</g>
<!-- Node1&#45;&gt;Node12 -->
<g id="edge11_Node000001_Node000012" class="edge">
<title>Node1&#45;&gt;Node12</title>
<g id="a_edge11_Node000001_Node000012"><a xlink:title=" ">
<path fill="none" stroke="#63b8ff" d="M2126.29,-96.92C2003.08,-94.04 1772.76,-83.6 1580.38,-46.25 1572.52,-44.72 1564.3,-42.64 1556.36,-40.36"/>
<polygon fill="#63b8ff" stroke="#63b8ff" points="2125.92,-100.42 2136,-97.14 2126.08,-93.42 2125.92,-100.42"/>
</a>
</g>
</g>
<!-- Node13 -->
<g id="Node000013" class="node">
<title>Node13</title>
<g id="a_Node000013"><a xlink:href="boards_2nucleo-f411re_2include_2periph__conf_8h.html" target="_top" xlink:title=" ">
<polygon fill="white" stroke="#666666" points="1711.62,-39.88 1589.12,-39.88 1589.12,-6.38 1711.62,-6.38 1711.62,-39.88"/>
<text text-anchor="start" x="1597.12" y="-26.38" font-family="Helvetica,sans-Serif" font-size="10.00">boards/nucleo&#45;f411re</text>
<text text-anchor="middle" x="1650.38" y="-13.62" font-family="Helvetica,sans-Serif" font-size="10.00">/include/periph_conf.h</text>
</a>
</g>
</g>
<!-- Node1&#45;&gt;Node13 -->
<g id="edge12_Node000001_Node000013" class="edge">
<title>Node1&#45;&gt;Node13</title>
<g id="a_edge12_Node000001_Node000013"><a xlink:title=" ">
<path fill="none" stroke="#63b8ff" d="M2126.17,-94C2026.91,-88.28 1861.23,-75.09 1721.38,-46.25 1713.66,-44.66 1705.59,-42.57 1697.78,-40.31"/>
<polygon fill="#63b8ff" stroke="#63b8ff" points="2125.96,-97.49 2136.14,-94.56 2126.35,-90.5 2125.96,-97.49"/>
</a>
</g>
</g>
<!-- Node14 -->
<g id="Node000014" class="node">
<title>Node14</title>
<g id="a_Node000014"><a xlink:href="boards_2nucleo-f412zg_2include_2periph__conf_8h.html" target="_top" xlink:title=" ">
<polygon fill="white" stroke="#666666" points="1852.62,-39.88 1730.12,-39.88 1730.12,-6.38 1852.62,-6.38 1852.62,-39.88"/>
<text text-anchor="start" x="1738.12" y="-26.38" font-family="Helvetica,sans-Serif" font-size="10.00">boards/nucleo&#45;f412zg</text>
<text text-anchor="middle" x="1791.38" y="-13.62" font-family="Helvetica,sans-Serif" font-size="10.00">/include/periph_conf.h</text>
</a>
</g>
</g>
<!-- Node1&#45;&gt;Node14 -->
<g id="edge13_Node000001_Node000014" class="edge">
<title>Node1&#45;&gt;Node14</title>
<g id="a_edge13_Node000001_Node000014"><a xlink:title=" ">
<path fill="none" stroke="#63b8ff" d="M2126.3,-88.92C2054.67,-80.61 1951.27,-66.5 1862.38,-46.25 1855.07,-44.59 1847.44,-42.54 1839.99,-40.37"/>
<polygon fill="#63b8ff" stroke="#63b8ff" points="2125.68,-92.37 2136.02,-90.03 2126.48,-85.41 2125.68,-92.37"/>
</a>
</g>
</g>
<!-- Node15 -->
<g id="Node000015" class="node">
<title>Node15</title>
<g id="a_Node000015"><a xlink:href="boards_2nucleo-f413zh_2include_2periph__conf_8h.html" target="_top" xlink:title=" ">
<polygon fill="white" stroke="#666666" points="1993.62,-39.88 1871.12,-39.88 1871.12,-6.38 1993.62,-6.38 1993.62,-39.88"/>
<text text-anchor="start" x="1879.12" y="-26.38" font-family="Helvetica,sans-Serif" font-size="10.00">boards/nucleo&#45;f413zh</text>
<text text-anchor="middle" x="1932.38" y="-13.62" font-family="Helvetica,sans-Serif" font-size="10.00">/include/periph_conf.h</text>
</a>
</g>
</g>
<!-- Node1&#45;&gt;Node15 -->
<g id="edge14_Node000001_Node000015" class="edge">
<title>Node1&#45;&gt;Node15</title>
<g id="a_edge14_Node000001_Node000015"><a xlink:title=" ">
<path fill="none" stroke="#63b8ff" d="M2132.66,-79.2C2093.41,-69.85 2045.8,-58.05 2003.38,-46.25 1996.78,-44.42 1989.88,-42.39 1983.07,-40.34"/>
<polygon fill="#63b8ff" stroke="#63b8ff" points="2131.75,-82.58 2142.29,-81.48 2133.36,-75.77 2131.75,-82.58"/>
</a>
</g>
</g>
<!-- Node16 -->
<g id="Node000016" class="node">
<title>Node16</title>
<g id="a_Node000016"><a xlink:href="boards_2nucleo-f429zi_2include_2periph__conf_8h.html" target="_top" xlink:title=" ">
<polygon fill="white" stroke="#666666" points="2134.62,-39.88 2012.12,-39.88 2012.12,-6.38 2134.62,-6.38 2134.62,-39.88"/>
<text text-anchor="start" x="2020.12" y="-26.38" font-family="Helvetica,sans-Serif" font-size="10.00">boards/nucleo&#45;f429zi</text>
<text text-anchor="middle" x="2073.38" y="-13.62" font-family="Helvetica,sans-Serif" font-size="10.00">/include/periph_conf.h</text>
</a>
</g>
</g>
<!-- Node1&#45;&gt;Node16 -->
<g id="edge15_Node000001_Node000016" class="edge">
<title>Node1&#45;&gt;Node16</title>
<g id="a_edge15_Node000001_Node000016"><a xlink:title=" ">
<path fill="none" stroke="#63b8ff" d="M2173.35,-76.5C2151.28,-64.94 2124.53,-50.92 2104.25,-40.3"/>
<polygon fill="#63b8ff" stroke="#63b8ff" points="2171.61,-79.54 2182.09,-81.09 2174.86,-73.34 2171.61,-79.54"/>
</a>
</g>
</g>
<!-- Node17 -->
<g id="Node000017" class="node">
<title>Node17</title>
<g id="a_Node000017"><a xlink:href="boards_2nucleo-f439zi_2include_2periph__conf_8h.html" target="_top" xlink:title=" ">
<polygon fill="white" stroke="#666666" points="2275.62,-39.88 2153.12,-39.88 2153.12,-6.38 2275.62,-6.38 2275.62,-39.88"/>
<text text-anchor="start" x="2161.12" y="-26.38" font-family="Helvetica,sans-Serif" font-size="10.00">boards/nucleo&#45;f439zi</text>
<text text-anchor="middle" x="2214.38" y="-13.62" font-family="Helvetica,sans-Serif" font-size="10.00">/include/periph_conf.h</text>
</a>
</g>
</g>
<!-- Node1&#45;&gt;Node17 -->
<g id="edge16_Node000001_Node000017" class="edge">
<title>Node1&#45;&gt;Node17</title>
<g id="a_edge16_Node000001_Node000017"><a xlink:title=" ">
<path fill="none" stroke="#63b8ff" d="M2214.38,-70.61C2214.38,-60.35 2214.38,-49.02 2214.38,-40.12"/>
<polygon fill="#63b8ff" stroke="#63b8ff" points="2210.88,-70.46 2214.38,-80.46 2217.88,-70.46 2210.88,-70.46"/>
</a>
</g>
</g>
<!-- Node18 -->
<g id="Node000018" class="node">
<title>Node18</title>
<g id="a_Node000018"><a xlink:href="boards_2nucleo-f446re_2include_2periph__conf_8h.html" target="_top" xlink:title=" ">
<polygon fill="white" stroke="#666666" points="2416.62,-39.88 2294.12,-39.88 2294.12,-6.38 2416.62,-6.38 2416.62,-39.88"/>
<text text-anchor="start" x="2302.12" y="-26.38" font-family="Helvetica,sans-Serif" font-size="10.00">boards/nucleo&#45;f446re</text>
<text text-anchor="middle" x="2355.38" y="-13.62" font-family="Helvetica,sans-Serif" font-size="10.00">/include/periph_conf.h</text>
</a>
</g>
</g>
<!-- Node1&#45;&gt;Node18 -->
<g id="edge17_Node000001_Node000018" class="edge">
<title>Node1&#45;&gt;Node18</title>
<g id="a_edge17_Node000001_Node000018"><a xlink:title=" ">
<path fill="none" stroke="#63b8ff" d="M2255.4,-76.5C2277.47,-64.94 2304.22,-50.92 2324.5,-40.3"/>
<polygon fill="#63b8ff" stroke="#63b8ff" points="2253.89,-73.34 2246.66,-81.09 2257.14,-79.54 2253.89,-73.34"/>
</a>
</g>
</g>
<!-- Node19 -->
<g id="Node000019" class="node">
<title>Node19</title>
<g id="a_Node000019"><a xlink:href="boards_2nucleo-f446ze_2include_2periph__conf_8h.html" target="_top" xlink:title=" ">
<polygon fill="white" stroke="#666666" points="2557.62,-39.88 2435.12,-39.88 2435.12,-6.38 2557.62,-6.38 2557.62,-39.88"/>
<text text-anchor="start" x="2443.12" y="-26.38" font-family="Helvetica,sans-Serif" font-size="10.00">boards/nucleo&#45;f446ze</text>
<text text-anchor="middle" x="2496.38" y="-13.62" font-family="Helvetica,sans-Serif" font-size="10.00">/include/periph_conf.h</text>
</a>
</g>
</g>
<!-- Node1&#45;&gt;Node19 -->
<g id="edge18_Node000001_Node000019" class="edge">
<title>Node1&#45;&gt;Node19</title>
<g id="a_edge18_Node000001_Node000019"><a xlink:title=" ">
<path fill="none" stroke="#63b8ff" d="M2296.09,-79.2C2335.34,-69.85 2382.95,-58.05 2425.38,-46.25 2431.97,-44.42 2438.87,-42.39 2445.68,-40.34"/>
<polygon fill="#63b8ff" stroke="#63b8ff" points="2295.39,-75.77 2286.46,-81.48 2297,-82.58 2295.39,-75.77"/>
</a>
</g>
</g>
<!-- Node20 -->
<g id="Node000020" class="node">
<title>Node20</title>
<g id="a_Node000020"><a xlink:href="boards_2nucleo-f722ze_2include_2periph__conf_8h.html" target="_top" xlink:title="Peripheral MCU configuration for the nucleo&#45;f722ze board.">
<polygon fill="white" stroke="#666666" points="2698.62,-39.88 2576.12,-39.88 2576.12,-6.38 2698.62,-6.38 2698.62,-39.88"/>
<text text-anchor="start" x="2584.12" y="-26.38" font-family="Helvetica,sans-Serif" font-size="10.00">boards/nucleo&#45;f722ze</text>
<text text-anchor="middle" x="2637.38" y="-13.62" font-family="Helvetica,sans-Serif" font-size="10.00">/include/periph_conf.h</text>
</a>
</g>
</g>
<!-- Node1&#45;&gt;Node20 -->
<g id="edge19_Node000001_Node000020" class="edge">
<title>Node1&#45;&gt;Node20</title>
<g id="a_edge19_Node000001_Node000020"><a xlink:title=" ">
<path fill="none" stroke="#63b8ff" d="M2302.45,-88.92C2374.08,-80.61 2477.48,-66.5 2566.38,-46.25 2573.68,-44.59 2581.31,-42.54 2588.76,-40.37"/>
<polygon fill="#63b8ff" stroke="#63b8ff" points="2302.27,-85.41 2292.73,-90.03 2303.07,-92.37 2302.27,-85.41"/>
</a>
</g>
</g>
<!-- Node21 -->
<g id="Node000021" class="node">
<title>Node21</title>
<g id="a_Node000021"><a xlink:href="boards_2nucleo-f746zg_2include_2periph__conf_8h.html" target="_top" xlink:title="Peripheral MCU configuration for the nucleo&#45;f746zg board.">
<polygon fill="white" stroke="#666666" points="2839.62,-39.88 2717.12,-39.88 2717.12,-6.38 2839.62,-6.38 2839.62,-39.88"/>
<text text-anchor="start" x="2725.12" y="-26.38" font-family="Helvetica,sans-Serif" font-size="10.00">boards/nucleo&#45;f746zg</text>
<text text-anchor="middle" x="2778.38" y="-13.62" font-family="Helvetica,sans-Serif" font-size="10.00">/include/periph_conf.h</text>
</a>
</g>
</g>
<!-- Node1&#45;&gt;Node21 -->
<g id="edge20_Node000001_Node000021" class="edge">
<title>Node1&#45;&gt;Node21</title>
<g id="a_edge20_Node000001_Node000021"><a xlink:title=" ">
<path fill="none" stroke="#63b8ff" d="M2302.58,-94C2401.84,-88.28 2567.52,-75.09 2707.38,-46.25 2715.09,-44.66 2723.16,-42.57 2730.97,-40.31"/>
<polygon fill="#63b8ff" stroke="#63b8ff" points="2302.4,-90.5 2292.61,-94.56 2302.79,-97.49 2302.4,-90.5"/>
</a>
</g>
</g>
<!-- Node22 -->
<g id="Node000022" class="node">
<title>Node22</title>
<g id="a_Node000022"><a xlink:href="boards_2nucleo-f767zi_2include_2periph__conf_8h.html" target="_top" xlink:title="Peripheral MCU configuration for the nucleo&#45;f767zi board.">
<polygon fill="white" stroke="#666666" points="2980.62,-39.88 2858.12,-39.88 2858.12,-6.38 2980.62,-6.38 2980.62,-39.88"/>
<text text-anchor="start" x="2866.12" y="-26.38" font-family="Helvetica,sans-Serif" font-size="10.00">boards/nucleo&#45;f767zi</text>
<text text-anchor="middle" x="2919.38" y="-13.62" font-family="Helvetica,sans-Serif" font-size="10.00">/include/periph_conf.h</text>
</a>
</g>
</g>
<!-- Node1&#45;&gt;Node22 -->
<g id="edge21_Node000001_Node000022" class="edge">
<title>Node1&#45;&gt;Node22</title>
<g id="a_edge21_Node000001_Node000022"><a xlink:title=" ">
<path fill="none" stroke="#63b8ff" d="M2302.46,-96.92C2425.67,-94.04 2655.99,-83.6 2848.38,-46.25 2856.23,-44.72 2864.45,-42.64 2872.39,-40.36"/>
<polygon fill="#63b8ff" stroke="#63b8ff" points="2302.67,-93.42 2292.75,-97.14 2302.83,-100.42 2302.67,-93.42"/>
</a>
</g>
</g>
<!-- Node23 -->
<g id="Node000023" class="node">
<title>Node23</title>
<g id="a_Node000023"><a xlink:href="boards_2nucleo-g070rb_2include_2periph__conf_8h.html" target="_top" xlink:title="Peripheral MCU configuration for the nucleo&#45;g070rb board.">
<polygon fill="white" stroke="#666666" points="3121.62,-39.88 2999.12,-39.88 2999.12,-6.38 3121.62,-6.38 3121.62,-39.88"/>
<text text-anchor="start" x="3007.12" y="-26.38" font-family="Helvetica,sans-Serif" font-size="10.00">boards/nucleo&#45;g070rb</text>
<text text-anchor="middle" x="3060.38" y="-13.62" font-family="Helvetica,sans-Serif" font-size="10.00">/include/periph_conf.h</text>
</a>
</g>
</g>
<!-- Node1&#45;&gt;Node23 -->
<g id="edge22_Node000001_Node000023" class="edge">
<title>Node1&#45;&gt;Node23</title>
<g id="a_edge22_Node000001_Node000023"><a xlink:title=" ">
<path fill="none" stroke="#63b8ff" d="M2302.72,-98.82C2447.48,-98.67 2743.66,-92.07 2989.38,-46.25 2997.37,-44.76 3005.73,-42.66 3013.79,-40.35"/>
<polygon fill="#63b8ff" stroke="#63b8ff" points="2302.81,-95.32 2292.81,-98.82 2302.81,-102.32 2302.81,-95.32"/>
</a>
</g>
</g>
<!-- Node24 -->
<g id="Node000024" class="node">
<title>Node24</title>
<g id="a_Node000024"><a xlink:href="boards_2nucleo-g071rb_2include_2periph__conf_8h.html" target="_top" xlink:title="Peripheral MCU configuration for the nucleo&#45;g071rb board.">
<polygon fill="white" stroke="#666666" points="3262.62,-39.88 3140.12,-39.88 3140.12,-6.38 3262.62,-6.38 3262.62,-39.88"/>
<text text-anchor="start" x="3148.12" y="-26.38" font-family="Helvetica,sans-Serif" font-size="10.00">boards/nucleo&#45;g071rb</text>
<text text-anchor="middle" x="3201.38" y="-13.62" font-family="Helvetica,sans-Serif" font-size="10.00">/include/periph_conf.h</text>
</a>
</g>
</g>
<!-- Node1&#45;&gt;Node24 -->
<g id="edge23_Node000001_Node000024" class="edge">
<title>Node1&#45;&gt;Node24</title>
<g id="a_edge23_Node000001_Node000024"><a xlink:title=" ">
<path fill="none" stroke="#63b8ff" d="M2302.69,-95.77C2500.34,-90.34 2973.25,-74.72 3130.38,-46.25 3138.51,-44.78 3147.01,-42.66 3155.19,-40.31"/>
<polygon fill="#63b8ff" stroke="#63b8ff" points="2302.63,-92.27 2292.73,-96.04 2302.82,-99.27 2302.63,-92.27"/>
</a>
</g>
</g>
<!-- Node25 -->
<g id="Node000025" class="node">
<title>Node25</title>
<g id="a_Node000025"><a xlink:href="boards_2nucleo-g431rb_2include_2periph__conf_8h.html" target="_top" xlink:title="Peripheral MCU configuration for the nucleo&#45;g431rb board.">
<polygon fill="white" stroke="#666666" points="3403.62,-39.88 3281.12,-39.88 3281.12,-6.38 3403.62,-6.38 3403.62,-39.88"/>
<text text-anchor="start" x="3289.12" y="-26.38" font-family="Helvetica,sans-Serif" font-size="10.00">boards/nucleo&#45;g431rb</text>
<text text-anchor="middle" x="3342.38" y="-13.62" font-family="Helvetica,sans-Serif" font-size="10.00">/include/periph_conf.h</text>
</a>
</g>
</g>
<!-- Node1&#45;&gt;Node25 -->
<g id="edge24_Node000001_Node000025" class="edge">
<title>Node1&#45;&gt;Node25</title>
<g id="a_edge24_Node000001_Node000025"><a xlink:title=" ">
<path fill="none" stroke="#63b8ff" d="M2302.75,-96.55C2521.96,-92.48 3086.32,-79.07 3271.38,-46.25 3279.51,-44.81 3288.02,-42.7 3296.2,-40.36"/>
<polygon fill="#63b8ff" stroke="#63b8ff" points="2302.77,-93.05 2292.83,-96.73 2302.89,-100.05 2302.77,-93.05"/>
</a>
</g>
</g>
<!-- Node26 -->
<g id="Node000026" class="node">
<title>Node26</title>
<g id="a_Node000026"><a xlink:href="boards_2nucleo-g474re_2include_2periph__conf_8h.html" target="_top" xlink:title="Peripheral MCU configuration for the nucleo&#45;g474re board.">
<polygon fill="white" stroke="#666666" points="3544.62,-39.88 3422.12,-39.88 3422.12,-6.38 3544.62,-6.38 3544.62,-39.88"/>
<text text-anchor="start" x="3430.12" y="-26.38" font-family="Helvetica,sans-Serif" font-size="10.00">boards/nucleo&#45;g474re</text>
<text text-anchor="middle" x="3483.38" y="-13.62" font-family="Helvetica,sans-Serif" font-size="10.00">/include/periph_conf.h</text>
</a>
</g>
</g>
<!-- Node1&#45;&gt;Node26 -->
<g id="edge25_Node000001_Node000026" class="edge">
<title>Node1&#45;&gt;Node26</title>
<g id="a_edge25_Node000001_Node000026"><a xlink:title=" ">
<path fill="none" stroke="#63b8ff" d="M2302.54,-97.15C2541.72,-94.36 3199.12,-83.43 3412.38,-46.25 3420.64,-44.81 3429.29,-42.67 3437.59,-40.29"/>
<polygon fill="#63b8ff" stroke="#63b8ff" points="2302.61,-93.64 2292.65,-97.26 2302.69,-100.64 2302.61,-93.64"/>
</a>
</g>
</g>
<!-- Node27 -->
<g id="Node000027" class="node">
<title>Node27</title>
<g id="a_Node000027"><a xlink:href="boards_2nucleo-l452re_2include_2periph__conf_8h.html" target="_top" xlink:title="Peripheral MCU configuration for the nucleo&#45;l452re board.">
<polygon fill="white" stroke="#666666" points="3685.62,-39.88 3563.12,-39.88 3563.12,-6.38 3685.62,-6.38 3685.62,-39.88"/>
<text text-anchor="start" x="3571.12" y="-26.38" font-family="Helvetica,sans-Serif" font-size="10.00">boards/nucleo&#45;l452re</text>
<text text-anchor="middle" x="3624.38" y="-13.62" font-family="Helvetica,sans-Serif" font-size="10.00">/include/periph_conf.h</text>
</a>
</g>
</g>
<!-- Node1&#45;&gt;Node27 -->
<g id="edge26_Node000001_Node000027" class="edge">
<title>Node1&#45;&gt;Node27</title>
<g id="a_edge26_Node000001_Node000027"><a xlink:title=" ">
<path fill="none" stroke="#63b8ff" d="M2302.47,-97.62C2560.55,-96.01 3311.79,-87.81 3553.38,-46.25 3561.65,-44.83 3570.29,-42.7 3578.59,-40.32"/>
<polygon fill="#63b8ff" stroke="#63b8ff" points="2302.79,-94.11 2292.81,-97.67 2302.83,-101.11 2302.79,-94.11"/>
</a>
</g>
</g>
<!-- Node28 -->
<g id="Node000028" class="node">
<title>Node28</title>
<g id="a_Node000028"><a xlink:href="boards_2nucleo-l476rg_2include_2periph__conf_8h.html" target="_top" xlink:title="Peripheral MCU configuration for the nucleo&#45;l476rg board.">
<polygon fill="white" stroke="#666666" points="3826.62,-39.88 3704.12,-39.88 3704.12,-6.38 3826.62,-6.38 3826.62,-39.88"/>
<text text-anchor="start" x="3712.12" y="-26.38" font-family="Helvetica,sans-Serif" font-size="10.00">boards/nucleo&#45;l476rg</text>
<text text-anchor="middle" x="3765.38" y="-13.62" font-family="Helvetica,sans-Serif" font-size="10.00">/include/periph_conf.h</text>
</a>
</g>
</g>
<!-- Node1&#45;&gt;Node28 -->
<g id="edge27_Node000001_Node000028" class="edge">
<title>Node1&#45;&gt;Node28</title>
<g id="a_edge27_Node000001_Node000028"><a xlink:title=" ">
<path fill="none" stroke="#63b8ff" d="M2302.59,-98C2578.75,-97.51 3424.38,-92.18 3694.38,-46.25 3702.65,-44.84 3711.3,-42.72 3719.6,-40.34"/>
<polygon fill="#63b8ff" stroke="#63b8ff" points="2302.94,-94.5 2292.95,-98.01 2302.95,-101.5 2302.94,-94.5"/>
</a>
</g>
</g>
<!-- Node29 -->
<g id="Node000029" class="node">
<title>Node29</title>
<g id="a_Node000029"><a xlink:href="boards_2nucleo-l496zg_2include_2periph__conf_8h.html" target="_top" xlink:title="Peripheral MCU configuration for the nucleo144&#45;l496 board.">
<polygon fill="white" stroke="#666666" points="3967.62,-39.88 3845.12,-39.88 3845.12,-6.38 3967.62,-6.38 3967.62,-39.88"/>
<text text-anchor="start" x="3853.12" y="-26.38" font-family="Helvetica,sans-Serif" font-size="10.00">boards/nucleo&#45;l496zg</text>
<text text-anchor="middle" x="3906.38" y="-13.62" font-family="Helvetica,sans-Serif" font-size="10.00">/include/periph_conf.h</text>
</a>
</g>
</g>
<!-- Node1&#45;&gt;Node29 -->
<g id="edge28_Node000001_Node000029" class="edge">
<title>Node1&#45;&gt;Node29</title>
<g id="a_edge28_Node000001_Node000029"><a xlink:title=" ">
<path fill="none" stroke="#63b8ff" d="M2302.81,-98.31C2596.4,-98.87 3536.9,-96.56 3835.38,-46.25 3843.65,-44.86 3852.3,-42.74 3860.6,-40.37"/>
<polygon fill="#63b8ff" stroke="#63b8ff" points="2302.92,-94.81 2292.91,-98.29 2302.9,-101.81 2302.92,-94.81"/>
</a>
</g>
</g>
<!-- Node30 -->
<g id="Node000030" class="node">
<title>Node30</title>
<g id="a_Node000030"><a xlink:href="boards_2nucleo-l4r5zi_2include_2periph__conf_8h.html" target="_top" xlink:title="Peripheral MCU configuration for the nucleo&#45;l4r5zi board.">
<polygon fill="white" stroke="#666666" points="4108.62,-39.88 3986.12,-39.88 3986.12,-6.38 4108.62,-6.38 4108.62,-39.88"/>
<text text-anchor="start" x="3994.12" y="-26.38" font-family="Helvetica,sans-Serif" font-size="10.00">boards/nucleo&#45;l4r5zi</text>
<text text-anchor="middle" x="4047.38" y="-13.62" font-family="Helvetica,sans-Serif" font-size="10.00">/include/periph_conf.h</text>
</a>
</g>
</g>
<!-- Node1&#45;&gt;Node30 -->
<g id="edge29_Node000001_Node000030" class="edge">
<title>Node1&#45;&gt;Node30</title>
<g id="a_edge29_Node000001_Node000030"><a xlink:title=" ">
<path fill="none" stroke="#63b8ff" d="M2302.33,-96.82C2635.68,-92.17 3810.87,-73.93 3976.38,-46.25 3984.78,-44.84 3993.57,-42.69 4001.99,-40.27"/>
<polygon fill="#63b8ff" stroke="#63b8ff" points="2302.76,-93.32 2292.81,-96.95 2302.86,-100.32 2302.76,-93.32"/>
</a>
</g>
</g>
<!-- Node31 -->
<g id="Node000031" class="node">
<title>Node31</title>
<g id="a_Node000031"><a xlink:href="boards_2nucleo-l552ze-q_2include_2periph__conf_8h.html" target="_top" xlink:title="Peripheral MCU configuration for the nucleo&#45;l552ze&#45;q board.">
<polygon fill="white" stroke="#666666" points="4258.5,-39.88 4126.25,-39.88 4126.25,-6.38 4258.5,-6.38 4258.5,-39.88"/>
<text text-anchor="start" x="4134.25" y="-26.38" font-family="Helvetica,sans-Serif" font-size="10.00">boards/nucleo&#45;l552ze</text>
<text text-anchor="middle" x="4192.38" y="-13.62" font-family="Helvetica,sans-Serif" font-size="10.00">&#45;q/include/periph_conf.h</text>
</a>
</g>
</g>
<!-- Node1&#45;&gt;Node31 -->
<g id="edge30_Node000001_Node000031" class="edge">
<title>Node1&#45;&gt;Node31</title>
<g id="a_edge30_Node000001_Node000031"><a xlink:title=" ">
<path fill="none" stroke="#63b8ff" d="M2302.8,-96.94C2653.64,-92.57 3937.28,-74.76 4117.38,-46.25 4126.22,-44.85 4135.5,-42.7 4144.38,-40.28"/>
<polygon fill="#63b8ff" stroke="#63b8ff" points="2302.92,-93.44 2292.97,-97.07 2303.01,-100.44 2302.92,-93.44"/>
</a>
</g>
</g>
<!-- Node32 -->
<g id="Node000032" class="node">
<title>Node32</title>
<g id="a_Node000032"><a xlink:href="boards_2p-nucleo-wb55_2include_2periph__conf_8h.html" target="_top" xlink:title="Peripheral MCU configuration for the p&#45;nucleo&#45;wb55 board.">
<polygon fill="white" stroke="#666666" points="4400.38,-39.88 4276.38,-39.88 4276.38,-6.38 4400.38,-6.38 4400.38,-39.88"/>
<text text-anchor="start" x="4284.38" y="-26.38" font-family="Helvetica,sans-Serif" font-size="10.00">boards/p&#45;nucleo&#45;wb55</text>
<text text-anchor="middle" x="4338.38" y="-13.62" font-family="Helvetica,sans-Serif" font-size="10.00">/include/periph_conf.h</text>
</a>
</g>
</g>
<!-- Node1&#45;&gt;Node32 -->
<g id="edge31_Node000001_Node000032" class="edge">
<title>Node1&#45;&gt;Node32</title>
<g id="a_edge31_Node000001_Node000032"><a xlink:title=" ">
<path fill="none" stroke="#63b8ff" d="M2302.66,-97.21C2670.6,-93.74 4072.07,-78.5 4267.38,-46.25 4275.78,-44.86 4284.57,-42.72 4292.99,-40.3"/>
<polygon fill="#63b8ff" stroke="#63b8ff" points="2302.78,-93.71 2292.81,-97.31 2302.85,-100.71 2302.78,-93.71"/>
</a>
</g>
</g>
</g>
</svg>
