<?xml version="1.0" encoding="UTF-8" standalone="no"?>
<!DOCTYPE svg PUBLIC "-//W3C//DTD SVG 1.1//EN"
 "http://www.w3.org/Graphics/SVG/1.1/DTD/svg11.dtd">
<!-- Generated by graphviz version 12.1.1 (0)
 -->
<!-- Title: boards/common/stm32/include/cfg_timer_tim5.h Pages: 1 -->
<svg width="2456pt" height="263pt"
 viewBox="0.00 0.00 2455.50 262.75" xmlns="http://www.w3.org/2000/svg" xmlns:xlink="http://www.w3.org/1999/xlink">
<g id="graph0" class="graph" transform="scale(1 1) rotate(0) translate(4 258.75)">
<title>boards/common/stm32/include/cfg_timer_tim5.h</title>
<!-- Node1 -->
<g id="Node000001" class="node">
<title>Node1</title>
<g id="a_Node000001"><a xlink:title="Common configuration for STM32 Timer peripheral based on TIM5.">
<polygon fill="#999999" stroke="#666666" points="1263.88,-254.75 1123.38,-254.75 1123.38,-221.25 1263.88,-221.25 1263.88,-254.75"/>
<text text-anchor="start" x="1131.38" y="-241.25" font-family="Helvetica,sans-Serif" font-size="10.00">boards/common/stm32</text>
<text text-anchor="middle" x="1193.62" y="-228.5" font-family="Helvetica,sans-Serif" font-size="10.00">/include/cfg_timer_tim5.h</text>
</a>
</g>
</g>
<!-- Node2 -->
<g id="Node000002" class="node">
<title>Node2</title>
<g id="a_Node000002"><a xlink:href="boards_2b-u585i-iot02a_2include_2periph__conf_8h.html" target="_top" xlink:title="Peripheral MCU configuration for the ST B&#45;U585I&#45;IOT02A board.">
<polygon fill="white" stroke="#666666" points="123.25,-178.88 0,-178.88 0,-145.38 123.25,-145.38 123.25,-178.88"/>
<text text-anchor="start" x="8" y="-165.38" font-family="Helvetica,sans-Serif" font-size="10.00">boards/b&#45;u585i&#45;iot02a</text>
<text text-anchor="middle" x="61.62" y="-152.62" font-family="Helvetica,sans-Serif" font-size="10.00">/include/periph_conf.h</text>
</a>
</g>
</g>
<!-- Node1&#45;&gt;Node2 -->
<g id="edge1_Node000001_Node000002" class="edge">
<title>Node1&#45;&gt;Node2</title>
<g id="a_edge1_Node000001_Node000002"><a xlink:title=" ">
<path fill="none" stroke="#63b8ff" d="M1111.61,-235.68C896.59,-231.8 320.3,-218.51 132.62,-185.25 124.49,-183.81 115.98,-181.7 107.8,-179.36"/>
<polygon fill="#63b8ff" stroke="#63b8ff" points="1111.53,-239.18 1121.59,-235.86 1111.65,-232.18 1111.53,-239.18"/>
</a>
</g>
</g>
<!-- Node3 -->
<g id="Node000003" class="node">
<title>Node3</title>
<g id="a_Node000003"><a xlink:href="boards_2common_2weact-f4x1cx_2include_2periph__conf_8h.html" target="_top" xlink:title="Peripheral MCU configuration for the WeAct&#45;F4X1CX Board.">
<polygon fill="white" stroke="#666666" points="268.12,-185.25 141.12,-185.25 141.12,-139 268.12,-139 268.12,-185.25"/>
<text text-anchor="start" x="149.12" y="-171.75" font-family="Helvetica,sans-Serif" font-size="10.00">boards/common/weact</text>
<text text-anchor="start" x="149.12" y="-159" font-family="Helvetica,sans-Serif" font-size="10.00">&#45;f4x1cx/include/periph</text>
<text text-anchor="middle" x="204.62" y="-146.25" font-family="Helvetica,sans-Serif" font-size="10.00">_conf.h</text>
</a>
</g>
</g>
<!-- Node1&#45;&gt;Node3 -->
<g id="edge2_Node000001_Node000003" class="edge">
<title>Node1&#45;&gt;Node3</title>
<g id="a_edge2_Node000001_Node000003"><a xlink:title=" ">
<path fill="none" stroke="#63b8ff" d="M1111.74,-234.87C918.15,-229.42 436.59,-213.42 277.62,-185.25 274.63,-184.72 271.58,-184.1 268.51,-183.43"/>
<polygon fill="#63b8ff" stroke="#63b8ff" points="1111.36,-238.36 1121.45,-235.14 1111.55,-231.36 1111.36,-238.36"/>
</a>
</g>
</g>
<!-- Node4 -->
<g id="Node000004" class="node">
<title>Node4</title>
<g id="a_Node000004"><a xlink:href="boards_2nucleo-f401re_2include_2periph__conf_8h.html" target="_top" xlink:title=" ">
<polygon fill="white" stroke="#666666" points="408.88,-178.88 286.38,-178.88 286.38,-145.38 408.88,-145.38 408.88,-178.88"/>
<text text-anchor="start" x="294.38" y="-165.38" font-family="Helvetica,sans-Serif" font-size="10.00">boards/nucleo&#45;f401re</text>
<text text-anchor="middle" x="347.62" y="-152.62" font-family="Helvetica,sans-Serif" font-size="10.00">/include/periph_conf.h</text>
</a>
</g>
</g>
<!-- Node1&#45;&gt;Node4 -->
<g id="edge3_Node000001_Node000004" class="edge">
<title>Node1&#45;&gt;Node4</title>
<g id="a_edge3_Node000001_Node000004"><a xlink:title=" ">
<path fill="none" stroke="#63b8ff" d="M1111.73,-237.82C969.48,-237.86 668.05,-231.77 418.62,-185.25 410.63,-183.76 402.27,-181.66 394.21,-179.35"/>
<polygon fill="#63b8ff" stroke="#63b8ff" points="1111.43,-241.32 1121.42,-237.81 1111.42,-234.32 1111.43,-241.32"/>
</a>
</g>
</g>
<!-- Node5 -->
<g id="Node000005" class="node">
<title>Node5</title>
<g id="a_Node000005"><a xlink:href="boards_2nucleo-f410rb_2include_2periph__conf_8h.html" target="_top" xlink:title=" ">
<polygon fill="white" stroke="#666666" points="549.88,-178.88 427.38,-178.88 427.38,-145.38 549.88,-145.38 549.88,-178.88"/>
<text text-anchor="start" x="435.38" y="-165.38" font-family="Helvetica,sans-Serif" font-size="10.00">boards/nucleo&#45;f410rb</text>
<text text-anchor="middle" x="488.62" y="-152.62" font-family="Helvetica,sans-Serif" font-size="10.00">/include/periph_conf.h</text>
</a>
</g>
</g>
<!-- Node1&#45;&gt;Node5 -->
<g id="edge4_Node000001_Node000005" class="edge">
<title>Node1&#45;&gt;Node5</title>
<g id="a_edge4_Node000001_Node000005"><a xlink:title=" ">
<path fill="none" stroke="#63b8ff" d="M1111.64,-236.06C990.05,-233.38 755.23,-223.23 559.62,-185.25 551.77,-183.72 543.55,-181.64 535.61,-179.36"/>
<polygon fill="#63b8ff" stroke="#63b8ff" points="1111.46,-239.56 1121.53,-236.27 1111.61,-232.56 1111.46,-239.56"/>
</a>
</g>
</g>
<!-- Node6 -->
<g id="Node000006" class="node">
<title>Node6</title>
<g id="a_Node000006"><a xlink:href="boards_2nucleo-f411re_2include_2periph__conf_8h.html" target="_top" xlink:title=" ">
<polygon fill="white" stroke="#666666" points="690.88,-178.88 568.38,-178.88 568.38,-145.38 690.88,-145.38 690.88,-178.88"/>
<text text-anchor="start" x="576.38" y="-165.38" font-family="Helvetica,sans-Serif" font-size="10.00">boards/nucleo&#45;f411re</text>
<text text-anchor="middle" x="629.62" y="-152.62" font-family="Helvetica,sans-Serif" font-size="10.00">/include/periph_conf.h</text>
</a>
</g>
</g>
<!-- Node1&#45;&gt;Node6 -->
<g id="edge5_Node000001_Node000006" class="edge">
<title>Node1&#45;&gt;Node6</title>
<g id="a_edge5_Node000001_Node000006"><a xlink:title=" ">
<path fill="none" stroke="#63b8ff" d="M1111.8,-233.36C1013.37,-227.85 843.52,-214.71 700.62,-185.25 692.91,-183.66 684.84,-181.57 677.03,-179.31"/>
<polygon fill="#63b8ff" stroke="#63b8ff" points="1111.47,-236.85 1121.64,-233.9 1111.85,-229.86 1111.47,-236.85"/>
</a>
</g>
</g>
<!-- Node7 -->
<g id="Node000007" class="node">
<title>Node7</title>
<g id="a_Node000007"><a xlink:href="boards_2nucleo-f412zg_2include_2periph__conf_8h.html" target="_top" xlink:title=" ">
<polygon fill="white" stroke="#666666" points="831.88,-178.88 709.38,-178.88 709.38,-145.38 831.88,-145.38 831.88,-178.88"/>
<text text-anchor="start" x="717.38" y="-165.38" font-family="Helvetica,sans-Serif" font-size="10.00">boards/nucleo&#45;f412zg</text>
<text text-anchor="middle" x="770.62" y="-152.62" font-family="Helvetica,sans-Serif" font-size="10.00">/include/periph_conf.h</text>
</a>
</g>
</g>
<!-- Node1&#45;&gt;Node7 -->
<g id="edge6_Node000001_Node000007" class="edge">
<title>Node1&#45;&gt;Node7</title>
<g id="a_edge6_Node000001_Node000007"><a xlink:title=" ">
<path fill="none" stroke="#63b8ff" d="M1111.69,-228.62C1039.92,-220.42 933.09,-206.09 841.62,-185.25 834.32,-183.59 826.69,-181.54 819.24,-179.37"/>
<polygon fill="#63b8ff" stroke="#63b8ff" points="1111.07,-232.08 1121.4,-229.72 1111.85,-225.12 1111.07,-232.08"/>
</a>
</g>
</g>
<!-- Node8 -->
<g id="Node000008" class="node">
<title>Node8</title>
<g id="a_Node000008"><a xlink:href="boards_2nucleo-f413zh_2include_2periph__conf_8h.html" target="_top" xlink:title=" ">
<polygon fill="white" stroke="#666666" points="972.88,-178.88 850.38,-178.88 850.38,-145.38 972.88,-145.38 972.88,-178.88"/>
<text text-anchor="start" x="858.38" y="-165.38" font-family="Helvetica,sans-Serif" font-size="10.00">boards/nucleo&#45;f413zh</text>
<text text-anchor="middle" x="911.62" y="-152.62" font-family="Helvetica,sans-Serif" font-size="10.00">/include/periph_conf.h</text>
</a>
</g>
</g>
<!-- Node1&#45;&gt;Node8 -->
<g id="edge7_Node000001_Node000008" class="edge">
<title>Node1&#45;&gt;Node8</title>
<g id="a_edge7_Node000001_Node000008"><a xlink:title=" ">
<path fill="none" stroke="#63b8ff" d="M1111.91,-218.2C1072.66,-208.85 1025.05,-197.05 982.62,-185.25 976.03,-183.42 969.13,-181.39 962.32,-179.34"/>
<polygon fill="#63b8ff" stroke="#63b8ff" points="1111,-221.58 1121.54,-220.48 1112.61,-214.77 1111,-221.58"/>
</a>
</g>
</g>
<!-- Node9 -->
<g id="Node000009" class="node">
<title>Node9</title>
<g id="a_Node000009"><a xlink:href="boards_2nucleo-f439zi_2include_2periph__conf_8h.html" target="_top" xlink:title=" ">
<polygon fill="white" stroke="#666666" points="1113.88,-178.88 991.38,-178.88 991.38,-145.38 1113.88,-145.38 1113.88,-178.88"/>
<text text-anchor="start" x="999.38" y="-165.38" font-family="Helvetica,sans-Serif" font-size="10.00">boards/nucleo&#45;f439zi</text>
<text text-anchor="middle" x="1052.62" y="-152.62" font-family="Helvetica,sans-Serif" font-size="10.00">/include/periph_conf.h</text>
</a>
</g>
</g>
<!-- Node1&#45;&gt;Node9 -->
<g id="edge8_Node000001_Node000009" class="edge">
<title>Node1&#45;&gt;Node9</title>
<g id="a_edge8_Node000001_Node000009"><a xlink:title=" ">
<path fill="none" stroke="#63b8ff" d="M1152.6,-215.5C1130.53,-203.94 1103.78,-189.92 1083.5,-179.3"/>
<polygon fill="#63b8ff" stroke="#63b8ff" points="1150.86,-218.54 1161.34,-220.09 1154.11,-212.34 1150.86,-218.54"/>
</a>
</g>
</g>
<!-- Node10 -->
<g id="Node000010" class="node">
<title>Node10</title>
<g id="a_Node000010"><a xlink:href="boards_2nucleo-f446re_2include_2periph__conf_8h.html" target="_top" xlink:title=" ">
<polygon fill="white" stroke="#666666" points="1254.88,-178.88 1132.38,-178.88 1132.38,-145.38 1254.88,-145.38 1254.88,-178.88"/>
<text text-anchor="start" x="1140.38" y="-165.38" font-family="Helvetica,sans-Serif" font-size="10.00">boards/nucleo&#45;f446re</text>
<text text-anchor="middle" x="1193.62" y="-152.62" font-family="Helvetica,sans-Serif" font-size="10.00">/include/periph_conf.h</text>
</a>
</g>
</g>
<!-- Node1&#45;&gt;Node10 -->
<g id="edge9_Node000001_Node000010" class="edge">
<title>Node1&#45;&gt;Node10</title>
<g id="a_edge9_Node000001_Node000010"><a xlink:title=" ">
<path fill="none" stroke="#63b8ff" d="M1193.62,-209.61C1193.62,-199.35 1193.62,-188.02 1193.62,-179.12"/>
<polygon fill="#63b8ff" stroke="#63b8ff" points="1190.13,-209.46 1193.63,-219.46 1197.13,-209.46 1190.13,-209.46"/>
</a>
</g>
</g>
<!-- Node11 -->
<g id="Node000011" class="node">
<title>Node11</title>
<g id="a_Node000011"><a xlink:href="boards_2nucleo-f446ze_2include_2periph__conf_8h.html" target="_top" xlink:title=" ">
<polygon fill="white" stroke="#666666" points="1395.88,-178.88 1273.38,-178.88 1273.38,-145.38 1395.88,-145.38 1395.88,-178.88"/>
<text text-anchor="start" x="1281.38" y="-165.38" font-family="Helvetica,sans-Serif" font-size="10.00">boards/nucleo&#45;f446ze</text>
<text text-anchor="middle" x="1334.62" y="-152.62" font-family="Helvetica,sans-Serif" font-size="10.00">/include/periph_conf.h</text>
</a>
</g>
</g>
<!-- Node1&#45;&gt;Node11 -->
<g id="edge10_Node000001_Node000011" class="edge">
<title>Node1&#45;&gt;Node11</title>
<g id="a_edge10_Node000001_Node000011"><a xlink:title=" ">
<path fill="none" stroke="#63b8ff" d="M1234.65,-215.5C1256.72,-203.94 1283.47,-189.92 1303.75,-179.3"/>
<polygon fill="#63b8ff" stroke="#63b8ff" points="1233.14,-212.34 1225.91,-220.09 1236.39,-218.54 1233.14,-212.34"/>
</a>
</g>
</g>
<!-- Node12 -->
<g id="Node000012" class="node">
<title>Node12</title>
<g id="a_Node000012"><a xlink:href="boards_2nucleo-g474re_2include_2periph__conf_8h.html" target="_top" xlink:title="Peripheral MCU configuration for the nucleo&#45;g474re board.">
<polygon fill="white" stroke="#666666" points="1536.88,-178.88 1414.38,-178.88 1414.38,-145.38 1536.88,-145.38 1536.88,-178.88"/>
<text text-anchor="start" x="1422.38" y="-165.38" font-family="Helvetica,sans-Serif" font-size="10.00">boards/nucleo&#45;g474re</text>
<text text-anchor="middle" x="1475.62" y="-152.62" font-family="Helvetica,sans-Serif" font-size="10.00">/include/periph_conf.h</text>
</a>
</g>
</g>
<!-- Node1&#45;&gt;Node12 -->
<g id="edge11_Node000001_Node000012" class="edge">
<title>Node1&#45;&gt;Node12</title>
<g id="a_edge11_Node000001_Node000012"><a xlink:title=" ">
<path fill="none" stroke="#63b8ff" d="M1275.34,-218.2C1314.59,-208.85 1362.2,-197.05 1404.62,-185.25 1411.22,-183.42 1418.12,-181.39 1424.93,-179.34"/>
<polygon fill="#63b8ff" stroke="#63b8ff" points="1274.64,-214.77 1265.71,-220.48 1276.25,-221.58 1274.64,-214.77"/>
</a>
</g>
</g>
<!-- Node13 -->
<g id="Node000013" class="node">
<title>Node13</title>
<g id="a_Node000013"><a xlink:href="boards_2nucleo-l152re_2include_2periph__conf_8h.html" target="_top" xlink:title="Peripheral MCU configuration for the nucleo&#45;l152re board.">
<polygon fill="white" stroke="#666666" points="1677.88,-178.88 1555.38,-178.88 1555.38,-145.38 1677.88,-145.38 1677.88,-178.88"/>
<text text-anchor="start" x="1563.38" y="-165.38" font-family="Helvetica,sans-Serif" font-size="10.00">boards/nucleo&#45;l152re</text>
<text text-anchor="middle" x="1616.62" y="-152.62" font-family="Helvetica,sans-Serif" font-size="10.00">/include/periph_conf.h</text>
</a>
</g>
</g>
<!-- Node1&#45;&gt;Node13 -->
<g id="edge12_Node000001_Node000013" class="edge">
<title>Node1&#45;&gt;Node13</title>
<g id="a_edge12_Node000001_Node000013"><a xlink:title=" ">
<path fill="none" stroke="#63b8ff" d="M1275.56,-228.62C1347.33,-220.42 1454.16,-206.09 1545.62,-185.25 1552.93,-183.59 1560.56,-181.54 1568.01,-179.37"/>
<polygon fill="#63b8ff" stroke="#63b8ff" points="1275.4,-225.12 1265.85,-229.72 1276.18,-232.08 1275.4,-225.12"/>
</a>
</g>
</g>
<!-- Node14 -->
<g id="Node000014" class="node">
<title>Node14</title>
<g id="a_Node000014"><a xlink:href="boards_2nucleo-l552ze-q_2include_2periph__conf_8h.html" target="_top" xlink:title="Peripheral MCU configuration for the nucleo&#45;l552ze&#45;q board.">
<polygon fill="white" stroke="#666666" points="1827.75,-178.88 1695.5,-178.88 1695.5,-145.38 1827.75,-145.38 1827.75,-178.88"/>
<text text-anchor="start" x="1703.5" y="-165.38" font-family="Helvetica,sans-Serif" font-size="10.00">boards/nucleo&#45;l552ze</text>
<text text-anchor="middle" x="1761.62" y="-152.62" font-family="Helvetica,sans-Serif" font-size="10.00">&#45;q/include/periph_conf.h</text>
</a>
</g>
</g>
<!-- Node1&#45;&gt;Node14 -->
<g id="edge13_Node000001_Node000014" class="edge">
<title>Node1&#45;&gt;Node14</title>
<g id="a_edge13_Node000001_Node000014"><a xlink:title=" ">
<path fill="none" stroke="#63b8ff" d="M1275.37,-232.99C1373.73,-227.11 1543.51,-213.63 1686.62,-185.25 1694.75,-183.64 1703.26,-181.54 1711.51,-179.28"/>
<polygon fill="#63b8ff" stroke="#63b8ff" points="1275.32,-229.49 1265.54,-233.56 1275.73,-236.47 1275.32,-229.49"/>
</a>
</g>
</g>
<!-- Node15 -->
<g id="Node000015" class="node">
<title>Node15</title>
<g id="a_Node000015"><a xlink:href="boards_2nucleo-u575zi-q_2include_2periph__conf_8h.html" target="_top" xlink:title="Peripheral MCU configuration for the nucleo&#45;u575zi&#45;q board.">
<polygon fill="white" stroke="#666666" points="1977.75,-178.88 1845.5,-178.88 1845.5,-145.38 1977.75,-145.38 1977.75,-178.88"/>
<text text-anchor="start" x="1853.5" y="-165.38" font-family="Helvetica,sans-Serif" font-size="10.00">boards/nucleo&#45;u575zi</text>
<text text-anchor="middle" x="1911.62" y="-152.62" font-family="Helvetica,sans-Serif" font-size="10.00">&#45;q/include/periph_conf.h</text>
</a>
</g>
</g>
<!-- Node1&#45;&gt;Node15 -->
<g id="edge14_Node000001_Node000015" class="edge">
<title>Node1&#45;&gt;Node15</title>
<g id="a_edge14_Node000001_Node000015"><a xlink:title=" ">
<path fill="none" stroke="#63b8ff" d="M1275.34,-235.81C1398.16,-232.81 1637.22,-222.28 1836.62,-185.25 1844.9,-183.71 1853.57,-181.62 1861.95,-179.34"/>
<polygon fill="#63b8ff" stroke="#63b8ff" points="1275.61,-232.3 1265.7,-236.03 1275.77,-239.3 1275.61,-232.3"/>
</a>
</g>
</g>
<!-- Node16 -->
<g id="Node000016" class="node">
<title>Node16</title>
<g id="a_Node000016"><a xlink:href="boards_2nz32-sc151_2include_2periph__conf_8h.html" target="_top" xlink:title="Peripheral MCU configuration for the limifrog&#45;v1 board.">
<polygon fill="white" stroke="#666666" points="2141.5,-178.88 1995.75,-178.88 1995.75,-145.38 2141.5,-145.38 2141.5,-178.88"/>
<text text-anchor="start" x="2003.75" y="-165.38" font-family="Helvetica,sans-Serif" font-size="10.00">boards/nz32&#45;sc151/include</text>
<text text-anchor="middle" x="2068.62" y="-152.62" font-family="Helvetica,sans-Serif" font-size="10.00">/periph_conf.h</text>
</a>
</g>
</g>
<!-- Node1&#45;&gt;Node16 -->
<g id="edge15_Node000001_Node000016" class="edge">
<title>Node1&#45;&gt;Node16</title>
<g id="a_edge15_Node000001_Node000016"><a xlink:title=" ">
<path fill="none" stroke="#63b8ff" d="M1275.55,-236.99C1420.12,-235.78 1729.54,-227.89 1986.62,-185.25 1995.79,-183.73 2005.41,-181.62 2014.71,-179.3"/>
<polygon fill="#63b8ff" stroke="#63b8ff" points="1275.66,-233.49 1265.69,-237.06 1275.71,-240.48 1275.66,-233.49"/>
</a>
</g>
</g>
<!-- Node19 -->
<g id="Node000019" class="node">
<title>Node19</title>
<g id="a_Node000019"><a xlink:href="boards_2stm32f429i-disc1_2include_2periph__conf_8h.html" target="_top" xlink:title=" ">
<polygon fill="white" stroke="#666666" points="2296,-178.88 2159.25,-178.88 2159.25,-145.38 2296,-145.38 2296,-178.88"/>
<text text-anchor="start" x="2167.25" y="-165.38" font-family="Helvetica,sans-Serif" font-size="10.00">boards/stm32f429i&#45;disc1</text>
<text text-anchor="middle" x="2227.62" y="-152.62" font-family="Helvetica,sans-Serif" font-size="10.00">/include/periph_conf.h</text>
</a>
</g>
</g>
<!-- Node1&#45;&gt;Node19 -->
<g id="edge18_Node000001_Node000019" class="edge">
<title>Node1&#45;&gt;Node19</title>
<g id="a_edge18_Node000001_Node000019"><a xlink:title=" ">
<path fill="none" stroke="#63b8ff" d="M1275.57,-234.95C1475.35,-229.55 1983.34,-213.43 2150.62,-185.25 2159.4,-183.77 2168.6,-181.65 2177.47,-179.3"/>
<polygon fill="#63b8ff" stroke="#63b8ff" points="1275.71,-231.44 1265.8,-235.21 1275.89,-238.44 1275.71,-231.44"/>
</a>
</g>
</g>
<!-- Node22 -->
<g id="Node000022" class="node">
<title>Node22</title>
<g id="a_Node000022"><a xlink:href="boards_2ublox-c030-u201_2include_2periph__conf_8h.html" target="_top" xlink:title="Peripheral MCU configuration for the Ublox C030&#45;U201 board.">
<polygon fill="white" stroke="#666666" points="2447.5,-178.88 2313.75,-178.88 2313.75,-145.38 2447.5,-145.38 2447.5,-178.88"/>
<text text-anchor="start" x="2321.75" y="-165.38" font-family="Helvetica,sans-Serif" font-size="10.00">boards/ublox&#45;c030&#45;u201</text>
<text text-anchor="middle" x="2380.62" y="-152.62" font-family="Helvetica,sans-Serif" font-size="10.00">/include/periph_conf.h</text>
</a>
</g>
</g>
<!-- Node1&#45;&gt;Node22 -->
<g id="edge21_Node000001_Node000022" class="edge">
<title>Node1&#45;&gt;Node22</title>
<g id="a_edge21_Node000001_Node000022"><a xlink:title=" ">
<path fill="none" stroke="#63b8ff" d="M1275.23,-235.7C1496.86,-231.78 2106.53,-218.22 2304.62,-185.25 2313.3,-183.81 2322.39,-181.7 2331.14,-179.36"/>
<polygon fill="#63b8ff" stroke="#63b8ff" points="1275.48,-232.2 1265.54,-235.87 1275.6,-239.2 1275.48,-232.2"/>
</a>
</g>
</g>
<!-- Node17 -->
<g id="Node000017" class="node">
<title>Node17</title>
<g id="a_Node000017"><a xlink:href="nz32-sc151_2include_2board_8h.html" target="_top" xlink:title="Board specific definitions for the nz32&#45;sc151 board.">
<polygon fill="white" stroke="#666666" points="2141.5,-103 1995.75,-103 1995.75,-69.5 2141.5,-69.5 2141.5,-103"/>
<text text-anchor="start" x="2003.75" y="-89.5" font-family="Helvetica,sans-Serif" font-size="10.00">boards/nz32&#45;sc151/include</text>
<text text-anchor="middle" x="2068.62" y="-76.75" font-family="Helvetica,sans-Serif" font-size="10.00">/board.h</text>
</a>
</g>
</g>
<!-- Node16&#45;&gt;Node17 -->
<g id="edge16_Node000016_Node000017" class="edge">
<title>Node16&#45;&gt;Node17</title>
<g id="a_edge16_Node000016_Node000017"><a xlink:title=" ">
<path fill="none" stroke="#63b8ff" d="M2068.62,-133.74C2068.62,-123.47 2068.62,-112.15 2068.62,-103.25"/>
<polygon fill="#63b8ff" stroke="#63b8ff" points="2065.13,-133.58 2068.63,-143.58 2072.13,-133.58 2065.13,-133.58"/>
</a>
</g>
</g>
<!-- Node18 -->
<g id="Node000018" class="node">
<title>Node18</title>
<g id="a_Node000018"><a xlink:href="nz32-sc151_2include_2gpio__params_8h.html" target="_top" xlink:title="Board specific configuration of direct mapped GPIOs.">
<polygon fill="white" stroke="#666666" points="2141.5,-33.5 1995.75,-33.5 1995.75,0 2141.5,0 2141.5,-33.5"/>
<text text-anchor="start" x="2003.75" y="-20" font-family="Helvetica,sans-Serif" font-size="10.00">boards/nz32&#45;sc151/include</text>
<text text-anchor="middle" x="2068.62" y="-7.25" font-family="Helvetica,sans-Serif" font-size="10.00">/gpio_params.h</text>
</a>
</g>
</g>
<!-- Node17&#45;&gt;Node18 -->
<g id="edge17_Node000017_Node000018" class="edge">
<title>Node17&#45;&gt;Node18</title>
<g id="a_edge17_Node000017_Node000018"><a xlink:title=" ">
<path fill="none" stroke="#63b8ff" d="M2068.62,-57.81C2068.62,-49.59 2068.62,-40.84 2068.62,-33.63"/>
<polygon fill="#63b8ff" stroke="#63b8ff" points="2065.13,-57.74 2068.63,-67.74 2072.13,-57.74 2065.13,-57.74"/>
</a>
</g>
</g>
<!-- Node20 -->
<g id="Node000020" class="node">
<title>Node20</title>
<g id="a_Node000020"><a xlink:href="stm32f429i-disc1_2include_2board_8h.html" target="_top" xlink:title="Board specific definitions for the STM32F429I&#45;DISC1 evaluation board.">
<polygon fill="white" stroke="#666666" points="2296,-103 2159.25,-103 2159.25,-69.5 2296,-69.5 2296,-103"/>
<text text-anchor="start" x="2167.25" y="-89.5" font-family="Helvetica,sans-Serif" font-size="10.00">boards/stm32f429i&#45;disc1</text>
<text text-anchor="middle" x="2227.62" y="-76.75" font-family="Helvetica,sans-Serif" font-size="10.00">/include/board.h</text>
</a>
</g>
</g>
<!-- Node19&#45;&gt;Node20 -->
<g id="edge19_Node000019_Node000020" class="edge">
<title>Node19&#45;&gt;Node20</title>
<g id="a_edge19_Node000019_Node000020"><a xlink:title=" ">
<path fill="none" stroke="#63b8ff" d="M2227.62,-133.74C2227.62,-123.47 2227.62,-112.15 2227.62,-103.25"/>
<polygon fill="#63b8ff" stroke="#63b8ff" points="2224.13,-133.58 2227.63,-143.58 2231.13,-133.58 2224.13,-133.58"/>
</a>
</g>
</g>
<!-- Node21 -->
<g id="Node000021" class="node">
<title>Node21</title>
<g id="a_Node000021"><a xlink:href="stm32f429i-disc1_2include_2gpio__params_8h.html" target="_top" xlink:title="Board specific configuration of direct mapped GPIOs.">
<polygon fill="white" stroke="#666666" points="2296,-33.5 2159.25,-33.5 2159.25,0 2296,0 2296,-33.5"/>
<text text-anchor="start" x="2167.25" y="-20" font-family="Helvetica,sans-Serif" font-size="10.00">boards/stm32f429i&#45;disc1</text>
<text text-anchor="middle" x="2227.62" y="-7.25" font-family="Helvetica,sans-Serif" font-size="10.00">/include/gpio_params.h</text>
</a>
</g>
</g>
<!-- Node20&#45;&gt;Node21 -->
<g id="edge20_Node000020_Node000021" class="edge">
<title>Node20&#45;&gt;Node21</title>
<g id="a_edge20_Node000020_Node000021"><a xlink:title=" ">
<path fill="none" stroke="#63b8ff" d="M2227.62,-57.81C2227.62,-49.59 2227.62,-40.84 2227.62,-33.63"/>
<polygon fill="#63b8ff" stroke="#63b8ff" points="2224.13,-57.74 2227.63,-67.74 2231.13,-57.74 2224.13,-57.74"/>
</a>
</g>
</g>
</g>
</svg>
