<?xml version="1.0" encoding="UTF-8" standalone="no"?>
<!DOCTYPE svg PUBLIC "-//W3C//DTD SVG 1.1//EN"
 "http://www.w3.org/Graphics/SVG/1.1/DTD/svg11.dtd">
<!-- Generated by graphviz version 12.1.1 (0)
 -->
<!-- Title: boards/common/stm32/include/cfg_usb_otg_fs.h Pages: 1 -->
<svg width="246pt" height="155pt"
 viewBox="0.00 0.00 246.12 155.00" xmlns="http://www.w3.org/2000/svg" xmlns:xlink="http://www.w3.org/1999/xlink">
<g id="graph0" class="graph" transform="scale(1 1) rotate(0) translate(4 151)">
<title>boards/common/stm32/include/cfg_usb_otg_fs.h</title>
<!-- Node1 -->
<g id="Node000001" class="node">
<title>Node1</title>
<g id="a_Node000001"><a xlink:title="Common configuration for STM32 OTG FS peripheral.">
<polygon fill="#999999" stroke="#666666" points="172.62,-147 33.62,-147 33.62,-113.5 172.62,-113.5 172.62,-147"/>
<text text-anchor="start" x="41.62" y="-133.5" font-family="Helvetica,sans-Serif" font-size="10.00">boards/common/stm32</text>
<text text-anchor="middle" x="103.12" y="-120.75" font-family="Helvetica,sans-Serif" font-size="10.00">/include/cfg_usb_otg_fs.h</text>
</a>
</g>
</g>
<!-- Node2 -->
<g id="Node000002" class="node">
<title>Node2</title>
<g id="a_Node000002"><a xlink:title=" ">
<polygon fill="#e0e0e0" stroke="#999999" points="78.25,-77.5 0,-77.5 0,-56.75 78.25,-56.75 78.25,-77.5"/>
<text text-anchor="middle" x="39.12" y="-64" font-family="Helvetica,sans-Serif" font-size="10.00">periph_cpu.h</text>
</a>
</g>
</g>
<!-- Node1&#45;&gt;Node2 -->
<g id="edge1_Node000001_Node000002" class="edge">
<title>Node1&#45;&gt;Node2</title>
<g id="a_edge1_Node000001_Node000002"><a xlink:title=" ">
<path fill="none" stroke="#63b8ff" d="M86.31,-113.19C77.53,-104.81 66.77,-94.53 57.74,-85.91"/>
<polygon fill="#63b8ff" stroke="#63b8ff" points="60.17,-83.39 50.52,-79.01 55.34,-88.45 60.17,-83.39"/>
</a>
</g>
</g>
<!-- Node3 -->
<g id="Node000003" class="node">
<title>Node3</title>
<g id="a_Node000003"><a xlink:href="usbdev__synopsys__dwc2_8h.html" target="_top" xlink:title="Low level USB FS/HS driver definitions for MCUs with Synopsys DWC2 IP core.">
<polygon fill="white" stroke="#666666" points="238.12,-77.5 96.12,-77.5 96.12,-56.75 238.12,-56.75 238.12,-77.5"/>
<text text-anchor="middle" x="167.12" y="-64" font-family="Helvetica,sans-Serif" font-size="10.00">usbdev_synopsys_dwc2.h</text>
</a>
</g>
</g>
<!-- Node1&#45;&gt;Node3 -->
<g id="edge2_Node000001_Node000003" class="edge">
<title>Node1&#45;&gt;Node3</title>
<g id="a_edge2_Node000001_Node000003"><a xlink:title=" ">
<path fill="none" stroke="#63b8ff" d="M119.94,-113.19C128.72,-104.81 139.48,-94.53 148.51,-85.91"/>
<polygon fill="#63b8ff" stroke="#63b8ff" points="150.91,-88.45 155.73,-79.01 146.08,-83.39 150.91,-88.45"/>
</a>
</g>
</g>
<!-- Node4 -->
<g id="Node000004" class="node">
<title>Node4</title>
<g id="a_Node000004"><a xlink:title=" ">
<polygon fill="#e0e0e0" stroke="#999999" points="193.5,-20.75 140.75,-20.75 140.75,0 193.5,0 193.5,-20.75"/>
<text text-anchor="middle" x="167.12" y="-7.25" font-family="Helvetica,sans-Serif" font-size="10.00">stdint.h</text>
</a>
</g>
</g>
<!-- Node3&#45;&gt;Node4 -->
<g id="edge3_Node000003_Node000004" class="edge">
<title>Node3&#45;&gt;Node4</title>
<g id="a_edge3_Node000003_Node000004"><a xlink:title=" ">
<path fill="none" stroke="#63b8ff" d="M167.12,-56.34C167.12,-49.72 167.12,-40.72 167.12,-32.52"/>
<polygon fill="#63b8ff" stroke="#63b8ff" points="170.63,-32.59 167.13,-22.59 163.63,-32.59 170.63,-32.59"/>
</a>
</g>
</g>
</g>
</svg>
