<?xml version="1.0" encoding="UTF-8" standalone="no"?>
<!DOCTYPE svg PUBLIC "-//W3C//DTD SVG 1.1//EN"
 "http://www.w3.org/Graphics/SVG/1.1/DTD/svg11.dtd">
<!-- Generated by graphviz version 12.1.1 (0)
 -->
<!-- Title: boards/common/stm32/include/cfg_timer_tim2_tim15_tim16.h Pages: 1 -->
<svg width="272pt" height="124pt"
 viewBox="0.00 0.00 271.50 123.75" xmlns="http://www.w3.org/2000/svg" xmlns:xlink="http://www.w3.org/1999/xlink">
<g id="graph0" class="graph" transform="scale(1 1) rotate(0) translate(4 119.75)">
<title>boards/common/stm32/include/cfg_timer_tim2_tim15_tim16.h</title>
<!-- Node1 -->
<g id="Node000001" class="node">
<title>Node1</title>
<g id="a_Node000001"><a xlink:title="Common configuration for STM32 Timer peripheral based on TIM2, TIM15, and TIM16.">
<polygon fill="#999999" stroke="#666666" points="197,-115.75 65.5,-115.75 65.5,-69.5 197,-69.5 197,-115.75"/>
<text text-anchor="start" x="73.5" y="-102.25" font-family="Helvetica,sans-Serif" font-size="10.00">boards/common/stm32</text>
<text text-anchor="start" x="73.5" y="-89.5" font-family="Helvetica,sans-Serif" font-size="10.00">/include/cfg_timer_tim2</text>
<text text-anchor="middle" x="131.25" y="-76.75" font-family="Helvetica,sans-Serif" font-size="10.00">_tim15_tim16.h</text>
</a>
</g>
</g>
<!-- Node2 -->
<g id="Node000002" class="node">
<title>Node2</title>
<g id="a_Node000002"><a xlink:href="boards_2nucleo-f303re_2include_2periph__conf_8h.html" target="_top" xlink:title="Peripheral MCU configuration for the nucleo&#45;f303re board.">
<polygon fill="white" stroke="#666666" points="122.5,-33.5 0,-33.5 0,0 122.5,0 122.5,-33.5"/>
<text text-anchor="start" x="8" y="-20" font-family="Helvetica,sans-Serif" font-size="10.00">boards/nucleo&#45;f303re</text>
<text text-anchor="middle" x="61.25" y="-7.25" font-family="Helvetica,sans-Serif" font-size="10.00">/include/periph_conf.h</text>
</a>
</g>
</g>
<!-- Node1&#45;&gt;Node2 -->
<g id="edge1_Node000001_Node000002" class="edge">
<title>Node1&#45;&gt;Node2</title>
<g id="a_edge1_Node000001_Node000002"><a xlink:title=" ">
<path fill="none" stroke="#63b8ff" d="M102.02,-60.78C93.25,-51.52 83.99,-41.75 76.51,-33.85"/>
<polygon fill="#63b8ff" stroke="#63b8ff" points="99.41,-63.11 108.83,-67.96 104.49,-58.29 99.41,-63.11"/>
</a>
</g>
</g>
<!-- Node3 -->
<g id="Node000003" class="node">
<title>Node3</title>
<g id="a_Node000003"><a xlink:href="boards_2nucleo-l432kc_2include_2periph__conf_8h.html" target="_top" xlink:title="Peripheral MCU configuration for the nucleo&#45;l432kc board.">
<polygon fill="white" stroke="#666666" points="263.5,-33.5 141,-33.5 141,0 263.5,0 263.5,-33.5"/>
<text text-anchor="start" x="149" y="-20" font-family="Helvetica,sans-Serif" font-size="10.00">boards/nucleo&#45;l432kc</text>
<text text-anchor="middle" x="202.25" y="-7.25" font-family="Helvetica,sans-Serif" font-size="10.00">/include/periph_conf.h</text>
</a>
</g>
</g>
<!-- Node1&#45;&gt;Node3 -->
<g id="edge2_Node000001_Node000003" class="edge">
<title>Node1&#45;&gt;Node3</title>
<g id="a_edge2_Node000001_Node000003"><a xlink:title=" ">
<path fill="none" stroke="#63b8ff" d="M160.9,-60.78C169.79,-51.52 179.19,-41.75 186.77,-33.85"/>
<polygon fill="#63b8ff" stroke="#63b8ff" points="158.39,-58.33 153.99,-67.97 163.44,-63.18 158.39,-58.33"/>
</a>
</g>
</g>
</g>
</svg>
