<?xml version="1.0" encoding="UTF-8" standalone="no"?>
<!DOCTYPE svg PUBLIC "-//W3C//DTD SVG 1.1//EN"
 "http://www.w3.org/Graphics/SVG/1.1/DTD/svg11.dtd">
<!-- Generated by graphviz version 12.1.1 (0)
 -->
<!-- Title: boards/common/msp430/include/cfg_timer_a_smclk_b_aclk.h Pages: 1 -->
<svg width="883pt" height="137pt"
 viewBox="0.00 0.00 883.12 136.50" xmlns="http://www.w3.org/2000/svg" xmlns:xlink="http://www.w3.org/1999/xlink">
<g id="graph0" class="graph" transform="scale(1 1) rotate(0) translate(4 132.5)">
<title>boards/common/msp430/include/cfg_timer_a_smclk_b_aclk.h</title>
<!-- Node1 -->
<g id="Node000001" class="node">
<title>Node1</title>
<g id="a_Node000001"><a xlink:title="Common timer configuration for TIMER_A clocked by SMCLK and TIMER_B clocked by ACLK.">
<polygon fill="#999999" stroke="#666666" points="513.88,-128.5 377.12,-128.5 377.12,-82.25 513.88,-82.25 513.88,-128.5"/>
<text text-anchor="start" x="385.12" y="-115" font-family="Helvetica,sans-Serif" font-size="10.00">boards/common/msp430</text>
<text text-anchor="start" x="385.12" y="-102.25" font-family="Helvetica,sans-Serif" font-size="10.00">/include/cfg_timer_a</text>
<text text-anchor="middle" x="445.5" y="-89.5" font-family="Helvetica,sans-Serif" font-size="10.00">_smclk_b_aclk.h</text>
</a>
</g>
</g>
<!-- Node2 -->
<g id="Node000002" class="node">
<title>Node2</title>
<g id="a_Node000002"><a xlink:href="boards_2msb-430_2include_2periph__conf_8h.html" target="_top" xlink:title="MSB&#45;430 peripheral configuration.">
<polygon fill="white" stroke="#666666" points="133,-39.88 0,-39.88 0,-6.38 133,-6.38 133,-39.88"/>
<text text-anchor="start" x="8" y="-26.38" font-family="Helvetica,sans-Serif" font-size="10.00">boards/msb&#45;430/include</text>
<text text-anchor="middle" x="66.5" y="-13.62" font-family="Helvetica,sans-Serif" font-size="10.00">/periph_conf.h</text>
</a>
</g>
</g>
<!-- Node1&#45;&gt;Node2 -->
<g id="edge1_Node000001_Node000002" class="edge">
<title>Node1&#45;&gt;Node2</title>
<g id="a_edge1_Node000001_Node000002"><a xlink:title=" ">
<path fill="none" stroke="#63b8ff" d="M365.68,-91.32C304.1,-80.71 216.96,-64.55 141.5,-46.25 134.24,-44.49 126.64,-42.47 119.18,-40.37"/>
<polygon fill="#63b8ff" stroke="#63b8ff" points="364.93,-94.74 375.38,-92.98 366.11,-87.84 364.93,-94.74"/>
</a>
</g>
</g>
<!-- Node3 -->
<g id="Node000003" class="node">
<title>Node3</title>
<g id="a_Node000003"><a xlink:href="boards_2msb-430h_2include_2periph__conf_8h.html" target="_top" xlink:title="MSB&#45;430h peripheral configuration.">
<polygon fill="white" stroke="#666666" points="290,-39.88 151,-39.88 151,-6.38 290,-6.38 290,-39.88"/>
<text text-anchor="start" x="159" y="-26.38" font-family="Helvetica,sans-Serif" font-size="10.00">boards/msb&#45;430h/include</text>
<text text-anchor="middle" x="220.5" y="-13.62" font-family="Helvetica,sans-Serif" font-size="10.00">/periph_conf.h</text>
</a>
</g>
</g>
<!-- Node1&#45;&gt;Node3 -->
<g id="edge2_Node000001_Node000003" class="edge">
<title>Node1&#45;&gt;Node3</title>
<g id="a_edge2_Node000001_Node000003"><a xlink:title=" ">
<path fill="none" stroke="#63b8ff" d="M371.59,-78.01C336.68,-65.56 296.13,-51.1 265.84,-40.3"/>
<polygon fill="#63b8ff" stroke="#63b8ff" points="370.21,-81.24 380.8,-81.3 372.56,-74.64 370.21,-81.24"/>
</a>
</g>
</g>
<!-- Node4 -->
<g id="Node000004" class="node">
<title>Node4</title>
<g id="a_Node000004"><a xlink:href="boards_2olimex-msp430-h1611_2include_2periph__conf_8h.html" target="_top" xlink:title="Olimex&#45;MSP430&#45;H1611 peripheral configuration.">
<polygon fill="white" stroke="#666666" points="436.75,-46.25 308.25,-46.25 308.25,0 436.75,0 436.75,-46.25"/>
<text text-anchor="start" x="316.25" y="-32.75" font-family="Helvetica,sans-Serif" font-size="10.00">boards/olimex&#45;msp430</text>
<text text-anchor="start" x="316.25" y="-20" font-family="Helvetica,sans-Serif" font-size="10.00">&#45;h1611/include/periph</text>
<text text-anchor="middle" x="372.5" y="-7.25" font-family="Helvetica,sans-Serif" font-size="10.00">_conf.h</text>
</a>
</g>
</g>
<!-- Node1&#45;&gt;Node4 -->
<g id="edge3_Node000001_Node000004" class="edge">
<title>Node1&#45;&gt;Node4</title>
<g id="a_edge3_Node000001_Node000004"><a xlink:title=" ">
<path fill="none" stroke="#63b8ff" d="M417.57,-73.67C409.39,-64.68 400.6,-55.02 392.98,-46.64"/>
<polygon fill="#63b8ff" stroke="#63b8ff" points="414.83,-75.86 424.15,-80.9 420.01,-71.15 414.83,-75.86"/>
</a>
</g>
</g>
<!-- Node5 -->
<g id="Node000005" class="node">
<title>Node5</title>
<g id="a_Node000005"><a xlink:href="boards_2olimex-msp430-h2618_2include_2periph__conf_8h.html" target="_top" xlink:title="Olimex&#45;MSP430&#45;H2618 peripheral configuration.">
<polygon fill="white" stroke="#666666" points="583.75,-46.25 455.25,-46.25 455.25,0 583.75,0 583.75,-46.25"/>
<text text-anchor="start" x="463.25" y="-32.75" font-family="Helvetica,sans-Serif" font-size="10.00">boards/olimex&#45;msp430</text>
<text text-anchor="start" x="463.25" y="-20" font-family="Helvetica,sans-Serif" font-size="10.00">&#45;h2618/include/periph</text>
<text text-anchor="middle" x="519.5" y="-7.25" font-family="Helvetica,sans-Serif" font-size="10.00">_conf.h</text>
</a>
</g>
</g>
<!-- Node1&#45;&gt;Node5 -->
<g id="edge4_Node000001_Node000005" class="edge">
<title>Node1&#45;&gt;Node5</title>
<g id="a_edge4_Node000001_Node000005"><a xlink:title=" ">
<path fill="none" stroke="#63b8ff" d="M473.81,-73.67C482.11,-64.68 491.01,-55.02 498.74,-46.64"/>
<polygon fill="#63b8ff" stroke="#63b8ff" points="471.35,-71.18 467.14,-80.91 476.49,-75.93 471.35,-71.18"/>
</a>
</g>
</g>
<!-- Node6 -->
<g id="Node000006" class="node">
<title>Node6</title>
<g id="a_Node000006"><a xlink:href="boards_2telosb_2include_2periph__conf_8h.html" target="_top" xlink:title="TelosB peripheral configuration.">
<polygon fill="white" stroke="#666666" points="721.62,-39.88 601.38,-39.88 601.38,-6.38 721.62,-6.38 721.62,-39.88"/>
<text text-anchor="start" x="609.38" y="-26.38" font-family="Helvetica,sans-Serif" font-size="10.00">boards/telosb/include</text>
<text text-anchor="middle" x="661.5" y="-13.62" font-family="Helvetica,sans-Serif" font-size="10.00">/periph_conf.h</text>
</a>
</g>
</g>
<!-- Node1&#45;&gt;Node6 -->
<g id="edge5_Node000001_Node000006" class="edge">
<title>Node1&#45;&gt;Node6</title>
<g id="a_edge5_Node000001_Node000006"><a xlink:title=" ">
<path fill="none" stroke="#63b8ff" d="M516.89,-77.85C550.3,-65.44 589.02,-51.05 617.98,-40.3"/>
<polygon fill="#63b8ff" stroke="#63b8ff" points="515.82,-74.52 507.66,-81.28 518.25,-81.08 515.82,-74.52"/>
</a>
</g>
</g>
<!-- Node7 -->
<g id="Node000007" class="node">
<title>Node7</title>
<g id="a_Node000007"><a xlink:href="boards_2z1_2include_2periph__conf_8h.html" target="_top" xlink:title="Zolertia Z1 peripheral configuration.">
<polygon fill="white" stroke="#666666" points="875.12,-39.88 739.88,-39.88 739.88,-6.38 875.12,-6.38 875.12,-39.88"/>
<text text-anchor="start" x="747.88" y="-26.38" font-family="Helvetica,sans-Serif" font-size="10.00">boards/z1/include/periph</text>
<text text-anchor="middle" x="807.5" y="-13.62" font-family="Helvetica,sans-Serif" font-size="10.00">_conf.h</text>
</a>
</g>
</g>
<!-- Node1&#45;&gt;Node7 -->
<g id="edge6_Node000001_Node000007" class="edge">
<title>Node1&#45;&gt;Node7</title>
<g id="a_edge6_Node000001_Node000007"><a xlink:title=" ">
<path fill="none" stroke="#63b8ff" d="M525.53,-89.8C582.86,-78.93 661.76,-63.11 730.5,-46.25 737.79,-44.46 745.44,-42.44 752.96,-40.37"/>
<polygon fill="#63b8ff" stroke="#63b8ff" points="525.03,-86.33 515.85,-91.62 526.33,-93.21 525.03,-86.33"/>
</a>
</g>
</g>
</g>
</svg>
