<?xml version="1.0" encoding="UTF-8" standalone="no"?>
<!DOCTYPE svg PUBLIC "-//W3C//DTD SVG 1.1//EN"
 "http://www.w3.org/Graphics/SVG/1.1/DTD/svg11.dtd">
<!-- Generated by graphviz version 12.1.1 (0)
 -->
<!-- Title: cpu/stm32/include/clk/cfg_clock_common_fx_gx_mp1_c0.h Pages: 1 -->
<svg width="778pt" height="124pt"
 viewBox="0.00 0.00 778.00 123.75" xmlns="http://www.w3.org/2000/svg" xmlns:xlink="http://www.w3.org/1999/xlink">
<g id="graph0" class="graph" transform="scale(1 1) rotate(0) translate(4 119.75)">
<title>cpu/stm32/include/clk/cfg_clock_common_fx_gx_mp1_c0.h</title>
<!-- Node1 -->
<g id="Node000001" class="node">
<title>Node1</title>
<g id="a_Node000001"><a xlink:title="Base STM32Fx/Gx/MP1/C0 clock configuration.">
<polygon fill="#999999" stroke="#666666" points="446.75,-115.75 319,-115.75 319,-69.5 446.75,-69.5 446.75,-115.75"/>
<text text-anchor="start" x="327" y="-102.25" font-family="Helvetica,sans-Serif" font-size="10.00">cpu/stm32/include/clk</text>
<text text-anchor="start" x="327" y="-89.5" font-family="Helvetica,sans-Serif" font-size="10.00">/cfg_clock_common_fx</text>
<text text-anchor="middle" x="382.88" y="-76.75" font-family="Helvetica,sans-Serif" font-size="10.00">_gx_mp1_c0.h</text>
</a>
</g>
</g>
<!-- Node2 -->
<g id="Node000002" class="node">
<title>Node2</title>
<g id="a_Node000002"><a xlink:href="cpu_2stm32_2include_2clk_2c0_2cfg__clock__default_8h.html" target="_top" xlink:title="Configure STM32C0 clock.">
<polygon fill="white" stroke="#666666" points="127.75,-33.5 0,-33.5 0,0 127.75,0 127.75,-33.5"/>
<text text-anchor="start" x="8" y="-20" font-family="Helvetica,sans-Serif" font-size="10.00">cpu/stm32/include/clk</text>
<text text-anchor="middle" x="63.88" y="-7.25" font-family="Helvetica,sans-Serif" font-size="10.00">/c0/cfg_clock_default.h</text>
</a>
</g>
</g>
<!-- Node1&#45;&gt;Node2 -->
<g id="edge1_Node000001_Node000002" class="edge">
<title>Node1&#45;&gt;Node2</title>
<g id="a_edge1_Node000001_Node000002"><a xlink:title=" ">
<path fill="none" stroke="#63b8ff" d="M307.7,-74.22C253.14,-61.58 180.09,-44.66 128.22,-32.65"/>
<polygon fill="#63b8ff" stroke="#63b8ff" points="306.7,-77.58 317.23,-76.42 308.28,-70.76 306.7,-77.58"/>
</a>
</g>
</g>
<!-- Node3 -->
<g id="Node000003" class="node">
<title>Node3</title>
<g id="a_Node000003"><a xlink:href="cpu_2stm32_2include_2clk_2f0f1f3_2cfg__clock__default_8h.html" target="_top" xlink:title="Default clock configuration for STM32F0/F1/F3.">
<polygon fill="white" stroke="#666666" points="291.75,-33.5 146,-33.5 146,0 291.75,0 291.75,-33.5"/>
<text text-anchor="start" x="154" y="-20" font-family="Helvetica,sans-Serif" font-size="10.00">cpu/stm32/include/clk</text>
<text text-anchor="middle" x="218.88" y="-7.25" font-family="Helvetica,sans-Serif" font-size="10.00">/f0f1f3/cfg_clock_default.h</text>
</a>
</g>
</g>
<!-- Node1&#45;&gt;Node3 -->
<g id="edge2_Node000001_Node000003" class="edge">
<title>Node1&#45;&gt;Node3</title>
<g id="a_edge2_Node000001_Node000003"><a xlink:title=" ">
<path fill="none" stroke="#63b8ff" d="M322.53,-64.44C299.81,-54.21 274.7,-42.9 254.88,-33.97"/>
<polygon fill="#63b8ff" stroke="#63b8ff" points="320.84,-67.52 331.4,-68.44 323.72,-61.14 320.84,-67.52"/>
</a>
</g>
</g>
<!-- Node4 -->
<g id="Node000004" class="node">
<title>Node4</title>
<g id="a_Node000004"><a xlink:href="cpu_2stm32_2include_2clk_2f2f4f7_2cfg__clock__default_8h.html" target="_top" xlink:title="Main header for STM32F2/F4/F7 clock configuration.">
<polygon fill="white" stroke="#666666" points="455.75,-33.5 310,-33.5 310,0 455.75,0 455.75,-33.5"/>
<text text-anchor="start" x="318" y="-20" font-family="Helvetica,sans-Serif" font-size="10.00">cpu/stm32/include/clk</text>
<text text-anchor="middle" x="382.88" y="-7.25" font-family="Helvetica,sans-Serif" font-size="10.00">/f2f4f7/cfg_clock_default.h</text>
</a>
</g>
</g>
<!-- Node1&#45;&gt;Node4 -->
<g id="edge3_Node000001_Node000004" class="edge">
<title>Node1&#45;&gt;Node4</title>
<g id="a_edge3_Node000001_Node000004"><a xlink:title=" ">
<path fill="none" stroke="#63b8ff" d="M382.88,-57.64C382.88,-49.35 382.88,-40.86 382.88,-33.85"/>
<polygon fill="#63b8ff" stroke="#63b8ff" points="379.38,-57.55 382.88,-67.55 386.38,-57.55 379.38,-57.55"/>
</a>
</g>
</g>
<!-- Node5 -->
<g id="Node000005" class="node">
<title>Node5</title>
<g id="a_Node000005"><a xlink:href="cpu_2stm32_2include_2clk_2g0g4_2cfg__clock__default_8h.html" target="_top" xlink:title="Configure STM32G0/G4 clock.">
<polygon fill="white" stroke="#666666" points="614.12,-33.5 473.62,-33.5 473.62,0 614.12,0 614.12,-33.5"/>
<text text-anchor="start" x="481.62" y="-20" font-family="Helvetica,sans-Serif" font-size="10.00">cpu/stm32/include/clk</text>
<text text-anchor="middle" x="543.88" y="-7.25" font-family="Helvetica,sans-Serif" font-size="10.00">/g0g4/cfg_clock_default.h</text>
</a>
</g>
</g>
<!-- Node1&#45;&gt;Node5 -->
<g id="edge4_Node000001_Node000005" class="edge">
<title>Node1&#45;&gt;Node5</title>
<g id="a_edge4_Node000001_Node000005"><a xlink:title=" ">
<path fill="none" stroke="#63b8ff" d="M442.41,-64.31C464.64,-54.11 489.16,-42.86 508.53,-33.97"/>
<polygon fill="#63b8ff" stroke="#63b8ff" points="441.06,-61.08 433.43,-68.43 443.98,-67.44 441.06,-61.08"/>
</a>
</g>
</g>
<!-- Node6 -->
<g id="Node000006" class="node">
<title>Node6</title>
<g id="a_Node000006"><a xlink:href="cpu_2stm32_2include_2clk_2mp1_2cfg__clock__default_8h.html" target="_top" xlink:title="Main header for STM32MP1 clock configuration.">
<polygon fill="white" stroke="#666666" points="770,-33.5 631.75,-33.5 631.75,0 770,0 770,-33.5"/>
<text text-anchor="start" x="639.75" y="-20" font-family="Helvetica,sans-Serif" font-size="10.00">cpu/stm32/include/clk</text>
<text text-anchor="middle" x="700.88" y="-7.25" font-family="Helvetica,sans-Serif" font-size="10.00">/mp1/cfg_clock_default.h</text>
</a>
</g>
</g>
<!-- Node1&#45;&gt;Node6 -->
<g id="edge5_Node000001_Node000006" class="edge">
<title>Node1&#45;&gt;Node6</title>
<g id="a_edge5_Node000001_Node000006"><a xlink:title=" ">
<path fill="none" stroke="#63b8ff" d="M458.16,-74.14C510.66,-61.94 580.2,-45.78 631.38,-33.89"/>
<polygon fill="#63b8ff" stroke="#63b8ff" points="457.65,-70.66 448.7,-76.33 459.23,-77.48 457.65,-70.66"/>
</a>
</g>
</g>
</g>
</svg>
