<?xml version="1.0" encoding="UTF-8" standalone="no"?>
<!DOCTYPE svg PUBLIC "-//W3C//DTD SVG 1.1//EN"
 "http://www.w3.org/Graphics/SVG/1.1/DTD/svg11.dtd">
<!-- Generated by graphviz version 12.1.1 (0)
 -->
<!-- Title: sys/include/crypto/chacha.h Pages: 1 -->
<svg width="134pt" height="98pt"
 viewBox="0.00 0.00 133.88 98.25" xmlns="http://www.w3.org/2000/svg" xmlns:xlink="http://www.w3.org/1999/xlink">
<g id="graph0" class="graph" transform="scale(1 1) rotate(0) translate(4 94.25)">
<title>sys/include/crypto/chacha.h</title>
<!-- Node1 -->
<g id="Node000001" class="node">
<title>Node1</title>
<g id="a_Node000001"><a xlink:title="ChaCha stream cipher.">
<polygon fill="#999999" stroke="#666666" points="114.62,-90.25 10.12,-90.25 10.12,-56.75 114.62,-56.75 114.62,-90.25"/>
<text text-anchor="start" x="18.12" y="-76.75" font-family="Helvetica,sans-Serif" font-size="10.00">sys/include/crypto</text>
<text text-anchor="middle" x="62.38" y="-64" font-family="Helvetica,sans-Serif" font-size="10.00">/chacha.h</text>
</a>
</g>
</g>
<!-- Node2 -->
<g id="Node000002" class="node">
<title>Node2</title>
<g id="a_Node000002"><a xlink:title=" ">
<polygon fill="#e0e0e0" stroke="#999999" points="52.75,-20.75 0,-20.75 0,0 52.75,0 52.75,-20.75"/>
<text text-anchor="middle" x="26.38" y="-7.25" font-family="Helvetica,sans-Serif" font-size="10.00">stdint.h</text>
</a>
</g>
</g>
<!-- Node1&#45;&gt;Node2 -->
<g id="edge1_Node000001_Node000002" class="edge">
<title>Node1&#45;&gt;Node2</title>
<g id="a_edge1_Node000001_Node000002"><a xlink:title=" ">
<path fill="none" stroke="#63b8ff" d="M52.92,-56.44C48.34,-48.67 42.8,-39.27 37.97,-31.07"/>
<polygon fill="#63b8ff" stroke="#63b8ff" points="41.03,-29.36 32.94,-22.52 35,-32.91 41.03,-29.36"/>
</a>
</g>
</g>
<!-- Node3 -->
<g id="Node000003" class="node">
<title>Node3</title>
<g id="a_Node000003"><a xlink:title=" ">
<polygon fill="#e0e0e0" stroke="#999999" points="125.88,-20.75 70.88,-20.75 70.88,0 125.88,0 125.88,-20.75"/>
<text text-anchor="middle" x="98.38" y="-7.25" font-family="Helvetica,sans-Serif" font-size="10.00">stddef.h</text>
</a>
</g>
</g>
<!-- Node1&#45;&gt;Node3 -->
<g id="edge2_Node000001_Node000003" class="edge">
<title>Node1&#45;&gt;Node3</title>
<g id="a_edge2_Node000001_Node000003"><a xlink:title=" ">
<path fill="none" stroke="#63b8ff" d="M71.83,-56.44C76.41,-48.67 81.95,-39.27 86.78,-31.07"/>
<polygon fill="#63b8ff" stroke="#63b8ff" points="89.75,-32.91 91.81,-22.52 83.72,-29.36 89.75,-32.91"/>
</a>
</g>
</g>
</g>
</svg>
