<?xml version="1.0" encoding="UTF-8" standalone="no"?>
<!DOCTYPE svg PUBLIC "-//W3C//DTD SVG 1.1//EN"
 "http://www.w3.org/Graphics/SVG/1.1/DTD/svg11.dtd">
<!-- Generated by graphviz version 12.1.1 (0)
 -->
<!-- Title: sys/cpp11&#45;compat/include/riot/chrono.hpp Pages: 1 -->
<svg width="1438pt" height="666pt"
 viewBox="0.00 0.00 1437.50 665.75" xmlns="http://www.w3.org/2000/svg" xmlns:xlink="http://www.w3.org/1999/xlink">
<g id="graph0" class="graph" transform="scale(1 1) rotate(0) translate(4 661.75)">
<title>sys/cpp11&#45;compat/include/riot/chrono.hpp</title>
<!-- Node1 -->
<g id="Node000001" class="node">
<title>Node1</title>
<g id="a_Node000001"><a xlink:title="C++11 chrono drop in replacement that adds the function now based on ztimer/timex.">
<polygon fill="#999999" stroke="#666666" points="243.25,-657.75 99.75,-657.75 99.75,-624.25 243.25,-624.25 243.25,-657.75"/>
<text text-anchor="start" x="107.75" y="-644.25" font-family="Helvetica,sans-Serif" font-size="10.00">sys/cpp11&#45;compat/include</text>
<text text-anchor="middle" x="171.5" y="-631.5" font-family="Helvetica,sans-Serif" font-size="10.00">/riot/chrono.hpp</text>
</a>
</g>
</g>
<!-- Node2 -->
<g id="Node000002" class="node">
<title>Node2</title>
<g id="a_Node000002"><a xlink:title=" ">
<polygon fill="#e0e0e0" stroke="#999999" points="49,-588.25 0,-588.25 0,-567.5 49,-567.5 49,-588.25"/>
<text text-anchor="middle" x="24.5" y="-574.75" font-family="Helvetica,sans-Serif" font-size="10.00">chrono</text>
</a>
</g>
</g>
<!-- Node1&#45;&gt;Node2 -->
<g id="edge1_Node000001_Node000002" class="edge">
<title>Node1&#45;&gt;Node2</title>
<g id="a_edge1_Node000001_Node000002"><a xlink:title=" ">
<path fill="none" stroke="#63b8ff" d="M132.49,-623.78C109.5,-614.22 80.68,-602.24 58.6,-593.05"/>
<polygon fill="#63b8ff" stroke="#63b8ff" points="60.02,-589.85 49.44,-589.25 57.33,-596.32 60.02,-589.85"/>
</a>
</g>
</g>
<!-- Node3 -->
<g id="Node000003" class="node">
<title>Node3</title>
<g id="a_Node000003"><a xlink:title=" ">
<polygon fill="#e0e0e0" stroke="#999999" points="130.12,-588.25 66.88,-588.25 66.88,-567.5 130.12,-567.5 130.12,-588.25"/>
<text text-anchor="middle" x="98.5" y="-574.75" font-family="Helvetica,sans-Serif" font-size="10.00">algorithm</text>
</a>
</g>
</g>
<!-- Node1&#45;&gt;Node3 -->
<g id="edge2_Node000001_Node000003" class="edge">
<title>Node1&#45;&gt;Node3</title>
<g id="a_edge2_Node000001_Node000003"><a xlink:title=" ">
<path fill="none" stroke="#63b8ff" d="M152.32,-623.94C142,-615.3 129.26,-604.63 118.78,-595.85"/>
<polygon fill="#63b8ff" stroke="#63b8ff" points="121.33,-593.43 111.41,-589.69 116.83,-598.79 121.33,-593.43"/>
</a>
</g>
</g>
<!-- Node4 -->
<g id="Node000004" class="node">
<title>Node4</title>
<g id="a_Node000004"><a xlink:href="time_8h_source.html" target="_top" xlink:title=" ">
<polygon fill="white" stroke="#666666" points="195.25,-588.25 147.75,-588.25 147.75,-567.5 195.25,-567.5 195.25,-588.25"/>
<text text-anchor="middle" x="171.5" y="-574.75" font-family="Helvetica,sans-Serif" font-size="10.00">time.h</text>
</a>
</g>
</g>
<!-- Node1&#45;&gt;Node4 -->
<g id="edge3_Node000001_Node000004" class="edge">
<title>Node1&#45;&gt;Node4</title>
<g id="a_edge3_Node000001_Node000004"><a xlink:title=" ">
<path fill="none" stroke="#63b8ff" d="M171.5,-623.94C171.5,-616.6 171.5,-607.82 171.5,-599.96"/>
<polygon fill="#63b8ff" stroke="#63b8ff" points="175,-600.23 171.5,-590.23 168,-600.23 175,-600.23"/>
</a>
</g>
</g>
<!-- Node6 -->
<g id="Node000006" class="node">
<title>Node6</title>
<g id="a_Node000006"><a xlink:href="timex_8h.html" target="_top" xlink:title="Utility library for comparing and computing timestamps.">
<polygon fill="white" stroke="#666666" points="259.25,-247.75 205.75,-247.75 205.75,-227 259.25,-227 259.25,-247.75"/>
<text text-anchor="middle" x="232.5" y="-234.25" font-family="Helvetica,sans-Serif" font-size="10.00">timex.h</text>
</a>
</g>
</g>
<!-- Node1&#45;&gt;Node6 -->
<g id="edge6_Node000001_Node000006" class="edge">
<title>Node1&#45;&gt;Node6</title>
<g id="a_edge6_Node000001_Node000006"><a xlink:title=" ">
<path fill="none" stroke="#63b8ff" d="M191.65,-623.91C202.2,-614.52 214.54,-601.86 222.5,-588.25 237.93,-561.85 241.5,-552.7 241.5,-522.12 241.5,-522.12 241.5,-522.12 241.5,-349.88 241.5,-318.23 237.85,-281.7 235.2,-259.32"/>
<polygon fill="#63b8ff" stroke="#63b8ff" points="238.71,-259.19 234.01,-249.7 231.77,-260.05 238.71,-259.19"/>
</a>
</g>
</g>
<!-- Node10 -->
<g id="Node000010" class="node">
<title>Node10</title>
<g id="a_Node000010"><a xlink:href="ztimer64_8h.html" target="_top" xlink:title="ztimer 64bit API">
<polygon fill="white" stroke="#666666" points="834.75,-588.25 766.25,-588.25 766.25,-567.5 834.75,-567.5 834.75,-588.25"/>
<text text-anchor="middle" x="800.5" y="-574.75" font-family="Helvetica,sans-Serif" font-size="10.00">ztimer64.h</text>
</a>
</g>
</g>
<!-- Node1&#45;&gt;Node10 -->
<g id="edge10_Node000001_Node000010" class="edge">
<title>Node1&#45;&gt;Node10</title>
<g id="a_edge10_Node000001_Node000010"><a xlink:title=" ">
<path fill="none" stroke="#63b8ff" d="M243.65,-632.99C374.26,-620.3 646.37,-593.85 754.63,-583.33"/>
<polygon fill="#63b8ff" stroke="#63b8ff" points="754.68,-586.84 764.29,-582.39 754,-579.88 754.68,-586.84"/>
</a>
</g>
</g>
<!-- Node4&#45;&gt;Node4 -->
<g id="edge5_Node000004_Node000004" class="edge">
<title>Node4&#45;&gt;Node4</title>
<g id="a_edge5_Node000004_Node000004"><a xlink:title=" ">
<path fill="none" stroke="#63b8ff" d="M195.53,-588.45C205.16,-589.05 213.25,-585.52 213.25,-577.88 213.25,-573.57 210.69,-570.58 206.74,-568.88"/>
<polygon fill="#63b8ff" stroke="#63b8ff" points="207.42,-565.44 197.02,-567.51 206.44,-572.37 207.42,-565.44"/>
</a>
</g>
</g>
<!-- Node5 -->
<g id="Node000005" class="node">
<title>Node5</title>
<g id="a_Node000005"><a xlink:title=" ">
<polygon fill="#e0e0e0" stroke="#999999" points="207.25,-531.5 135.75,-531.5 135.75,-510.75 207.25,-510.75 207.25,-531.5"/>
<text text-anchor="middle" x="171.5" y="-518" font-family="Helvetica,sans-Serif" font-size="10.00">sys/types.h</text>
</a>
</g>
</g>
<!-- Node4&#45;&gt;Node5 -->
<g id="edge4_Node000004_Node000005" class="edge">
<title>Node4&#45;&gt;Node5</title>
<g id="a_edge4_Node000004_Node000005"><a xlink:title=" ">
<path fill="none" stroke="#63b8ff" d="M171.5,-567.09C171.5,-560.47 171.5,-551.47 171.5,-543.27"/>
<polygon fill="#63b8ff" stroke="#63b8ff" points="175,-543.34 171.5,-533.34 168,-543.34 175,-543.34"/>
</a>
</g>
</g>
<!-- Node7 -->
<g id="Node000007" class="node">
<title>Node7</title>
<g id="a_Node000007"><a xlink:title=" ">
<polygon fill="#e0e0e0" stroke="#999999" points="616.88,-20.75 564.12,-20.75 564.12,0 616.88,0 616.88,-20.75"/>
<text text-anchor="middle" x="590.5" y="-7.25" font-family="Helvetica,sans-Serif" font-size="10.00">stdint.h</text>
</a>
</g>
</g>
<!-- Node6&#45;&gt;Node7 -->
<g id="edge7_Node000006_Node000007" class="edge">
<title>Node6&#45;&gt;Node7</title>
<g id="a_edge7_Node000006_Node000007"><a xlink:title=" ">
<path fill="none" stroke="#63b8ff" d="M233.29,-226.78C236.26,-192.98 247.97,-80.26 273.5,-56.75 313.48,-19.93 477.33,-12.88 552.5,-11.61"/>
<polygon fill="#63b8ff" stroke="#63b8ff" points="552.3,-15.11 562.25,-11.47 552.2,-8.11 552.3,-15.11"/>
</a>
</g>
</g>
<!-- Node8 -->
<g id="Node000008" class="node">
<title>Node8</title>
<g id="a_Node000008"><a xlink:href="inttypes_8h.html" target="_top" xlink:title="Adds include for missing inttype definitions.">
<polygon fill="white" stroke="#666666" points="417.88,-191 353.12,-191 353.12,-170.25 417.88,-170.25 417.88,-191"/>
<text text-anchor="middle" x="385.5" y="-177.5" font-family="Helvetica,sans-Serif" font-size="10.00">inttypes.h</text>
</a>
</g>
</g>
<!-- Node6&#45;&gt;Node8 -->
<g id="edge8_Node000006_Node000008" class="edge">
<title>Node6&#45;&gt;Node8</title>
<g id="a_edge8_Node000006_Node000008"><a xlink:title=" ">
<path fill="none" stroke="#63b8ff" d="M259.5,-226.71C283.86,-218 319.94,-205.09 347.26,-195.31"/>
<polygon fill="#63b8ff" stroke="#63b8ff" points="348.33,-198.64 356.57,-191.98 345.98,-192.05 348.33,-198.64"/>
</a>
</g>
</g>
<!-- Node9 -->
<g id="Node000009" class="node">
<title>Node9</title>
<g id="a_Node000009"><a xlink:href="time__units_8h.html" target="_top" xlink:title="Utility header providing time unit defines.">
<polygon fill="white" stroke="#666666" points="221.88,-191 145.12,-191 145.12,-170.25 221.88,-170.25 221.88,-191"/>
<text text-anchor="middle" x="183.5" y="-177.5" font-family="Helvetica,sans-Serif" font-size="10.00">time_units.h</text>
</a>
</g>
</g>
<!-- Node6&#45;&gt;Node9 -->
<g id="edge9_Node000006_Node000009" class="edge">
<title>Node6&#45;&gt;Node9</title>
<g id="a_edge9_Node000006_Node000009"><a xlink:title=" ">
<path fill="none" stroke="#63b8ff" d="M223.74,-226.59C217.05,-219.11 207.65,-208.61 199.61,-199.63"/>
<polygon fill="#63b8ff" stroke="#63b8ff" points="202.47,-197.57 193.19,-192.46 197.25,-202.24 202.47,-197.57"/>
</a>
</g>
</g>
<!-- Node10&#45;&gt;Node7 -->
<g id="edge11_Node000010_Node000007" class="edge">
<title>Node10&#45;&gt;Node7</title>
<g id="a_edge11_Node000010_Node000007"><a xlink:title=" ">
<path fill="none" stroke="#63b8ff" d="M835.08,-576.68C912.43,-575.55 1104.83,-568.88 1260.5,-531.5 1338.93,-512.67 1429.5,-546.03 1429.5,-465.38 1429.5,-465.38 1429.5,-465.38 1429.5,-122.88 1429.5,-49.2 1349.09,-74.13 1277.5,-56.75 1152.74,-26.46 753.6,-15.06 628.43,-12.17"/>
<polygon fill="#63b8ff" stroke="#63b8ff" points="628.77,-8.68 618.7,-11.95 628.62,-15.67 628.77,-8.68"/>
</a>
</g>
</g>
<!-- Node11 -->
<g id="Node000011" class="node">
<title>Node11</title>
<g id="a_Node000011"><a xlink:href="irq_8h.html" target="_top" xlink:title="IRQ driver interface.">
<polygon fill="white" stroke="#666666" points="1363.38,-304.5 1325.62,-304.5 1325.62,-283.75 1363.38,-283.75 1363.38,-304.5"/>
<text text-anchor="middle" x="1344.5" y="-291" font-family="Helvetica,sans-Serif" font-size="10.00">irq.h</text>
</a>
</g>
</g>
<!-- Node10&#45;&gt;Node11 -->
<g id="edge12_Node000010_Node000011" class="edge">
<title>Node10&#45;&gt;Node11</title>
<g id="a_edge12_Node000010_Node000011"><a xlink:title=" ">
<path fill="none" stroke="#63b8ff" d="M834.83,-574.07C960.96,-563.31 1391.5,-522.41 1391.5,-465.38 1391.5,-465.38 1391.5,-465.38 1391.5,-406.62 1391.5,-371.96 1371.98,-335.66 1358.09,-314.24"/>
<polygon fill="#63b8ff" stroke="#63b8ff" points="1361.19,-312.57 1352.69,-306.24 1355.39,-316.48 1361.19,-312.57"/>
</a>
</g>
</g>
<!-- Node14 -->
<g id="Node000014" class="node">
<title>Node14</title>
<g id="a_Node000014"><a xlink:href="mutex_8h.html" target="_top" xlink:title="Mutex for thread synchronization.">
<polygon fill="white" stroke="#666666" points="836.75,-418 780.25,-418 780.25,-397.25 836.75,-397.25 836.75,-418"/>
<text text-anchor="middle" x="808.5" y="-404.5" font-family="Helvetica,sans-Serif" font-size="10.00">mutex.h</text>
</a>
</g>
</g>
<!-- Node10&#45;&gt;Node14 -->
<g id="edge15_Node000010_Node000014" class="edge">
<title>Node10&#45;&gt;Node14</title>
<g id="a_edge15_Node000010_Node000014"><a xlink:title=" ">
<path fill="none" stroke="#63b8ff" d="M800.95,-567.35C802.21,-540.98 805.74,-466.58 807.49,-429.78"/>
<polygon fill="#63b8ff" stroke="#63b8ff" points="810.98,-430.13 807.96,-419.98 803.99,-429.8 810.98,-430.13"/>
</a>
</g>
</g>
<!-- Node34 -->
<g id="Node000034" class="node">
<title>Node34</title>
<g id="a_Node000034"><a xlink:title=" ">
<polygon fill="#e0e0e0" stroke="#999999" points="793.5,-474.75 747.5,-474.75 747.5,-454 793.5,-454 793.5,-474.75"/>
<text text-anchor="middle" x="770.5" y="-461.25" font-family="Helvetica,sans-Serif" font-size="10.00">msg.h</text>
</a>
</g>
</g>
<!-- Node10&#45;&gt;Node34 -->
<g id="edge57_Node000010_Node000034" class="edge">
<title>Node10&#45;&gt;Node34</title>
<g id="a_edge57_Node000010_Node000034"><a xlink:title=" ">
<path fill="none" stroke="#63b8ff" d="M797.94,-567.37C793.12,-549.44 782.57,-510.25 776.05,-486.01"/>
<polygon fill="#63b8ff" stroke="#63b8ff" points="779.51,-485.38 773.53,-476.64 772.75,-487.2 779.51,-485.38"/>
</a>
</g>
</g>
<!-- Node35 -->
<g id="Node000035" class="node">
<title>Node35</title>
<g id="a_Node000035"><a xlink:href="ztimer_8h.html" target="_top" xlink:title="ztimer API">
<polygon fill="white" stroke="#666666" points="728.75,-531.5 672.25,-531.5 672.25,-510.75 728.75,-510.75 728.75,-531.5"/>
<text text-anchor="middle" x="700.5" y="-518" font-family="Helvetica,sans-Serif" font-size="10.00">ztimer.h</text>
</a>
</g>
</g>
<!-- Node10&#45;&gt;Node35 -->
<g id="edge58_Node000010_Node000035" class="edge">
<title>Node10&#45;&gt;Node35</title>
<g id="a_edge58_Node000010_Node000035"><a xlink:title=" ">
<path fill="none" stroke="#63b8ff" d="M782.62,-567.09C767.41,-558.76 745.31,-546.66 727.87,-537.11"/>
<polygon fill="#63b8ff" stroke="#63b8ff" points="730,-534.29 719.55,-532.56 726.64,-540.43 730,-534.29"/>
</a>
</g>
</g>
<!-- Node12 -->
<g id="Node000012" class="node">
<title>Node12</title>
<g id="a_Node000012"><a xlink:title=" ">
<polygon fill="#e0e0e0" stroke="#999999" points="1243,-134.25 1182,-134.25 1182,-113.5 1243,-113.5 1243,-134.25"/>
<text text-anchor="middle" x="1212.5" y="-120.75" font-family="Helvetica,sans-Serif" font-size="10.00">stdbool.h</text>
</a>
</g>
</g>
<!-- Node11&#45;&gt;Node12 -->
<g id="edge13_Node000011_Node000012" class="edge">
<title>Node11&#45;&gt;Node12</title>
<g id="a_edge13_Node000011_Node000012"><a xlink:title=" ">
<path fill="none" stroke="#63b8ff" d="M1345.1,-283.47C1345.5,-269.95 1344.62,-245.02 1334.5,-227 1312.57,-187.97 1269.5,-157.42 1240.85,-140.26"/>
<polygon fill="#63b8ff" stroke="#63b8ff" points="1242.73,-137.31 1232.32,-135.32 1239.22,-143.36 1242.73,-137.31"/>
</a>
</g>
</g>
<!-- Node13 -->
<g id="Node000013" class="node">
<title>Node13</title>
<g id="a_Node000013"><a xlink:title=" ">
<polygon fill="#e0e0e0" stroke="#999999" points="1325.38,-247.75 1257.62,-247.75 1257.62,-227 1325.38,-227 1325.38,-247.75"/>
<text text-anchor="middle" x="1291.5" y="-234.25" font-family="Helvetica,sans-Serif" font-size="10.00">cpu_conf.h</text>
</a>
</g>
</g>
<!-- Node11&#45;&gt;Node13 -->
<g id="edge14_Node000011_Node000013" class="edge">
<title>Node11&#45;&gt;Node13</title>
<g id="a_edge14_Node000011_Node000013"><a xlink:title=" ">
<path fill="none" stroke="#63b8ff" d="M1335.02,-283.34C1327.71,-275.78 1317.41,-265.14 1308.66,-256.1"/>
<polygon fill="#63b8ff" stroke="#63b8ff" points="1311.42,-253.92 1301.95,-249.17 1306.39,-258.79 1311.42,-253.92"/>
</a>
</g>
</g>
<!-- Node14&#45;&gt;Node7 -->
<g id="edge17_Node000014_Node000007" class="edge">
<title>Node14&#45;&gt;Node7</title>
<g id="a_edge17_Node000014_Node000007"><a xlink:title=" ">
<path fill="none" stroke="#63b8ff" d="M837.14,-405.73C941.27,-401.84 1297.59,-382.94 1372.5,-304.5 1393.62,-282.39 1391.5,-268.95 1391.5,-238.38 1391.5,-238.38 1391.5,-238.38 1391.5,-122.88 1391.5,-44.8 786.78,-18.22 628.2,-12.6"/>
<polygon fill="#63b8ff" stroke="#63b8ff" points="628.78,-9.11 618.66,-12.27 628.54,-16.11 628.78,-9.11"/>
</a>
</g>
</g>
<!-- Node14&#45;&gt;Node12 -->
<g id="edge18_Node000014_Node000012" class="edge">
<title>Node14&#45;&gt;Node12</title>
<g id="a_edge18_Node000014_Node000012"><a xlink:title=" ">
<path fill="none" stroke="#63b8ff" d="M837.21,-405.01C930.69,-399.1 1223.46,-375.15 1278.5,-304.5 1296.03,-281.99 1261.92,-272.92 1248.5,-247.75 1230.69,-214.36 1220.65,-171.04 1215.92,-145.76"/>
<polygon fill="#63b8ff" stroke="#63b8ff" points="1219.4,-145.37 1214.23,-136.12 1212.51,-146.58 1219.4,-145.37"/>
</a>
</g>
</g>
<!-- Node15 -->
<g id="Node000015" class="node">
<title>Node15</title>
<g id="a_Node000015"><a xlink:title=" ">
<polygon fill="#e0e0e0" stroke="#999999" points="876,-77.5 821,-77.5 821,-56.75 876,-56.75 876,-77.5"/>
<text text-anchor="middle" x="848.5" y="-64" font-family="Helvetica,sans-Serif" font-size="10.00">stddef.h</text>
</a>
</g>
</g>
<!-- Node14&#45;&gt;Node15 -->
<g id="edge16_Node000014_Node000015" class="edge">
<title>Node14&#45;&gt;Node15</title>
<g id="a_edge16_Node000014_Node000015"><a xlink:title=" ">
<path fill="none" stroke="#63b8ff" d="M824.9,-396.89C867.75,-370.39 982.58,-292.07 1024.5,-191 1040.11,-153.36 1009.11,-136.54 975.5,-113.5 960.82,-103.44 918.76,-89.32 887.04,-79.51"/>
<polygon fill="#63b8ff" stroke="#63b8ff" points="888.34,-76.25 877.76,-76.68 886.3,-82.95 888.34,-76.25"/>
</a>
</g>
</g>
<!-- Node16 -->
<g id="Node000016" class="node">
<title>Node16</title>
<g id="a_Node000016"><a xlink:href="architecture_8h.html" target="_top" xlink:title="Platform&#45;independent access to architecture details.">
<polygon fill="white" stroke="#666666" points="570.25,-247.75 486.75,-247.75 486.75,-227 570.25,-227 570.25,-247.75"/>
<text text-anchor="middle" x="528.5" y="-234.25" font-family="Helvetica,sans-Serif" font-size="10.00">architecture.h</text>
</a>
</g>
</g>
<!-- Node14&#45;&gt;Node16 -->
<g id="edge19_Node000014_Node000016" class="edge">
<title>Node14&#45;&gt;Node16</title>
<g id="a_edge19_Node000014_Node000016"><a xlink:title=" ">
<path fill="none" stroke="#63b8ff" d="M792.24,-396.85C745.65,-368.86 611.41,-288.19 554.5,-254"/>
<polygon fill="#63b8ff" stroke="#63b8ff" points="556.48,-251.11 546.11,-248.95 552.88,-257.11 556.48,-251.11"/>
</a>
</g>
</g>
<!-- Node19 -->
<g id="Node000019" class="node">
<title>Node19</title>
<g id="a_Node000019"><a xlink:href="kernel__defines_8h.html" target="_top" xlink:title="Common macros and compiler attributes/pragmas configuration.">
<polygon fill="white" stroke="#666666" points="768.62,-191 672.38,-191 672.38,-170.25 768.62,-170.25 768.62,-191"/>
<text text-anchor="middle" x="720.5" y="-177.5" font-family="Helvetica,sans-Serif" font-size="10.00">kernel_defines.h</text>
</a>
</g>
</g>
<!-- Node14&#45;&gt;Node19 -->
<g id="edge24_Node000014_Node000019" class="edge">
<title>Node14&#45;&gt;Node19</title>
<g id="a_edge24_Node000014_Node000019"><a xlink:title=" ">
<path fill="none" stroke="#63b8ff" d="M801.87,-396.86C795.98,-387.89 787.41,-374.07 781.5,-361.25 755.83,-305.58 735.24,-235.9 725.91,-202.02"/>
<polygon fill="#63b8ff" stroke="#63b8ff" points="729.38,-201.44 723.39,-192.71 722.63,-203.27 729.38,-201.44"/>
</a>
</g>
</g>
<!-- Node25 -->
<g id="Node000025" class="node">
<title>Node25</title>
<g id="a_Node000025"><a xlink:href="list_8h.html" target="_top" xlink:title="Intrusive linked list.">
<polygon fill="white" stroke="#666666" points="943.5,-134.25 903.5,-134.25 903.5,-113.5 943.5,-113.5 943.5,-134.25"/>
<text text-anchor="middle" x="923.5" y="-120.75" font-family="Helvetica,sans-Serif" font-size="10.00">list.h</text>
</a>
</g>
</g>
<!-- Node14&#45;&gt;Node25 -->
<g id="edge35_Node000014_Node000025" class="edge">
<title>Node14&#45;&gt;Node25</title>
<g id="a_edge35_Node000014_Node000025"><a xlink:title=" ">
<path fill="none" stroke="#63b8ff" d="M807.3,-396.97C804.24,-369.56 797.74,-289.19 817.5,-227 826.55,-198.53 832.48,-191.47 853.5,-170.25 865.27,-158.36 880.68,-147.96 894.04,-140.13"/>
<polygon fill="#63b8ff" stroke="#63b8ff" points="895.45,-143.35 902.45,-135.4 892.02,-137.25 895.45,-143.35"/>
</a>
</g>
</g>
<!-- Node26 -->
<g id="Node000026" class="node">
<title>Node26</title>
<g id="a_Node000026"><a xlink:href="core_2include_2thread_8h.html" target="_top" xlink:title="Threading API.">
<polygon fill="white" stroke="#666666" points="1044.75,-361.25 988.25,-361.25 988.25,-340.5 1044.75,-340.5 1044.75,-361.25"/>
<text text-anchor="middle" x="1016.5" y="-347.75" font-family="Helvetica,sans-Serif" font-size="10.00">thread.h</text>
</a>
</g>
</g>
<!-- Node14&#45;&gt;Node26 -->
<g id="edge36_Node000014_Node000026" class="edge">
<title>Node14&#45;&gt;Node26</title>
<g id="a_edge36_Node000014_Node000026"><a xlink:title=" ">
<path fill="none" stroke="#63b8ff" d="M836.99,-399.13C873.29,-389.57 936.24,-373 977.12,-362.24"/>
<polygon fill="#63b8ff" stroke="#63b8ff" points="977.78,-365.69 986.56,-359.76 976,-358.92 977.78,-365.69"/>
</a>
</g>
</g>
<!-- Node16&#45;&gt;Node7 -->
<g id="edge20_Node000016_Node000007" class="edge">
<title>Node16&#45;&gt;Node7</title>
<g id="a_edge20_Node000016_Node000007"><a xlink:title=" ">
<path fill="none" stroke="#63b8ff" d="M505.1,-226.66C490.54,-219.23 473.01,-207.46 464.5,-191 448.91,-160.83 395.95,-159.48 471.5,-56.75 490.3,-31.19 525.41,-20.03 552.64,-15.15"/>
<polygon fill="#63b8ff" stroke="#63b8ff" points="552.92,-18.65 562.27,-13.66 551.85,-11.73 552.92,-18.65"/>
</a>
</g>
</g>
<!-- Node16&#45;&gt;Node8 -->
<g id="edge21_Node000016_Node000008" class="edge">
<title>Node16&#45;&gt;Node8</title>
<g id="a_edge21_Node000016_Node000008"><a xlink:title=" ">
<path fill="none" stroke="#63b8ff" d="M502.93,-226.59C480.26,-217.91 446.9,-205.13 421.52,-195.42"/>
<polygon fill="#63b8ff" stroke="#63b8ff" points="422.85,-192.18 412.26,-191.87 420.35,-198.71 422.85,-192.18"/>
</a>
</g>
</g>
<!-- Node17 -->
<g id="Node000017" class="node">
<title>Node17</title>
<g id="a_Node000017"><a xlink:title=" ">
<polygon fill="#e0e0e0" stroke="#999999" points="653.88,-191 601.12,-191 601.12,-170.25 653.88,-170.25 653.88,-191"/>
<text text-anchor="middle" x="627.5" y="-177.5" font-family="Helvetica,sans-Serif" font-size="10.00">limits.h</text>
</a>
</g>
</g>
<!-- Node16&#45;&gt;Node17 -->
<g id="edge22_Node000016_Node000017" class="edge">
<title>Node16&#45;&gt;Node17</title>
<g id="a_edge22_Node000016_Node000017"><a xlink:title=" ">
<path fill="none" stroke="#63b8ff" d="M546.2,-226.59C561.12,-218.33 582.73,-206.38 599.92,-196.88"/>
<polygon fill="#63b8ff" stroke="#63b8ff" points="601.57,-199.96 608.63,-192.06 598.18,-193.84 601.57,-199.96"/>
</a>
</g>
</g>
<!-- Node18 -->
<g id="Node000018" class="node">
<title>Node18</title>
<g id="a_Node000018"><a xlink:title=" ">
<polygon fill="#e0e0e0" stroke="#999999" points="583.38,-191 473.62,-191 473.62,-170.25 583.38,-170.25 583.38,-191"/>
<text text-anchor="middle" x="528.5" y="-177.5" font-family="Helvetica,sans-Serif" font-size="10.00">architecture_arch.h</text>
</a>
</g>
</g>
<!-- Node16&#45;&gt;Node18 -->
<g id="edge23_Node000016_Node000018" class="edge">
<title>Node16&#45;&gt;Node18</title>
<g id="a_edge23_Node000016_Node000018"><a xlink:title=" ">
<path fill="none" stroke="#63b8ff" d="M528.5,-226.59C528.5,-219.97 528.5,-210.97 528.5,-202.77"/>
<polygon fill="#63b8ff" stroke="#63b8ff" points="532,-202.84 528.5,-192.84 525,-202.84 532,-202.84"/>
</a>
</g>
</g>
<!-- Node20 -->
<g id="Node000020" class="node">
<title>Node20</title>
<g id="a_Node000020"><a xlink:href="modules_8h.html" target="_top" xlink:title="Common macros and compiler attributes/pragmas configuration.">
<polygon fill="white" stroke="#666666" points="705,-134.25 638,-134.25 638,-113.5 705,-113.5 705,-134.25"/>
<text text-anchor="middle" x="671.5" y="-120.75" font-family="Helvetica,sans-Serif" font-size="10.00">modules.h</text>
</a>
</g>
</g>
<!-- Node19&#45;&gt;Node20 -->
<g id="edge25_Node000019_Node000020" class="edge">
<title>Node19&#45;&gt;Node20</title>
<g id="a_edge25_Node000019_Node000020"><a xlink:title=" ">
<path fill="none" stroke="#63b8ff" d="M711.74,-169.84C705.05,-162.36 695.65,-151.86 687.61,-142.88"/>
<polygon fill="#63b8ff" stroke="#63b8ff" points="690.47,-140.82 681.19,-135.71 685.25,-145.49 690.47,-140.82"/>
</a>
</g>
</g>
<!-- Node21 -->
<g id="Node000021" class="node">
<title>Node21</title>
<g id="a_Node000021"><a xlink:href="riot__version_8h.html" target="_top" xlink:title="Common macros and compiler attributes/pragmas configuration.">
<polygon fill="white" stroke="#666666" points="562.88,-77.5 480.12,-77.5 480.12,-56.75 562.88,-56.75 562.88,-77.5"/>
<text text-anchor="middle" x="521.5" y="-64" font-family="Helvetica,sans-Serif" font-size="10.00">riot_version.h</text>
</a>
</g>
</g>
<!-- Node19&#45;&gt;Node21 -->
<g id="edge26_Node000019_Node000021" class="edge">
<title>Node19&#45;&gt;Node21</title>
<g id="a_edge26_Node000019_Node000021"><a xlink:title=" ">
<path fill="none" stroke="#63b8ff" d="M672.06,-170.01C622.07,-159.67 550.05,-143.49 540.5,-134.25 528.42,-122.56 523.88,-103.73 522.24,-89.15"/>
<polygon fill="#63b8ff" stroke="#63b8ff" points="525.73,-88.95 521.54,-79.23 518.75,-89.45 525.73,-88.95"/>
</a>
</g>
</g>
<!-- Node22 -->
<g id="Node000022" class="node">
<title>Node22</title>
<g id="a_Node000022"><a xlink:href="compiler__hints_8h.html" target="_top" xlink:title="Common macros and compiler attributes/pragmas configuration.">
<polygon fill="white" stroke="#666666" points="820,-134.25 723,-134.25 723,-113.5 820,-113.5 820,-134.25"/>
<text text-anchor="middle" x="771.5" y="-120.75" font-family="Helvetica,sans-Serif" font-size="10.00">compiler_hints.h</text>
</a>
</g>
</g>
<!-- Node19&#45;&gt;Node22 -->
<g id="edge28_Node000019_Node000022" class="edge">
<title>Node19&#45;&gt;Node22</title>
<g id="a_edge28_Node000019_Node000022"><a xlink:title=" ">
<path fill="none" stroke="#63b8ff" d="M729.62,-169.84C736.58,-162.36 746.37,-151.86 754.73,-142.88"/>
<polygon fill="#63b8ff" stroke="#63b8ff" points="757.17,-145.39 761.43,-135.69 752.05,-140.62 757.17,-145.39"/>
</a>
</g>
</g>
<!-- Node24 -->
<g id="Node000024" class="node">
<title>Node24</title>
<g id="a_Node000024"><a xlink:href="container_8h.html" target="_top" xlink:title="Common macros and compiler attributes/pragmas configuration.">
<polygon fill="white" stroke="#666666" points="619.88,-134.25 549.12,-134.25 549.12,-113.5 619.88,-113.5 619.88,-134.25"/>
<text text-anchor="middle" x="584.5" y="-120.75" font-family="Helvetica,sans-Serif" font-size="10.00">container.h</text>
</a>
</g>
</g>
<!-- Node19&#45;&gt;Node24 -->
<g id="edge32_Node000019_Node000024" class="edge">
<title>Node19&#45;&gt;Node24</title>
<g id="a_edge32_Node000019_Node000024"><a xlink:title=" ">
<path fill="none" stroke="#63b8ff" d="M696.19,-169.84C674.72,-161.19 643.18,-148.5 619.09,-138.8"/>
<polygon fill="#63b8ff" stroke="#63b8ff" points="620.59,-135.63 610.01,-135.14 617.98,-142.13 620.59,-135.63"/>
</a>
</g>
</g>
<!-- Node21&#45;&gt;Node7 -->
<g id="edge27_Node000021_Node000007" class="edge">
<title>Node21&#45;&gt;Node7</title>
<g id="a_edge27_Node000021_Node000007"><a xlink:title=" ">
<path fill="none" stroke="#63b8ff" d="M533.84,-56.34C543.75,-48.47 557.89,-37.25 569.56,-27.99"/>
<polygon fill="#63b8ff" stroke="#63b8ff" points="571.43,-30.98 577.09,-22.02 567.08,-25.49 571.43,-30.98"/>
</a>
</g>
</g>
<!-- Node22&#45;&gt;Node7 -->
<g id="edge31_Node000022_Node000007" class="edge">
<title>Node22&#45;&gt;Node7</title>
<g id="a_edge31_Node000022_Node000007"><a xlink:title=" ">
<path fill="none" stroke="#63b8ff" d="M755.75,-113.18C724.33,-93.82 653.61,-50.25 615.67,-26.88"/>
<polygon fill="#63b8ff" stroke="#63b8ff" points="617.98,-24.19 607.63,-21.93 614.31,-30.15 617.98,-24.19"/>
</a>
</g>
</g>
<!-- Node23 -->
<g id="Node000023" class="node">
<title>Node23</title>
<g id="a_Node000023"><a xlink:href="assert_8h.html" target="_top" xlink:title="POSIX.1&#45;2008 compliant version of the assert macro.">
<polygon fill="white" stroke="#666666" points="949,-77.5 894,-77.5 894,-56.75 949,-56.75 949,-77.5"/>
<text text-anchor="middle" x="921.5" y="-64" font-family="Helvetica,sans-Serif" font-size="10.00">assert.h</text>
</a>
</g>
</g>
<!-- Node22&#45;&gt;Node23 -->
<g id="edge29_Node000022_Node000023" class="edge">
<title>Node22&#45;&gt;Node23</title>
<g id="a_edge29_Node000022_Node000023"><a xlink:title=" ">
<path fill="none" stroke="#63b8ff" d="M798.32,-113.09C822.24,-104.36 857.5,-91.48 884.18,-81.75"/>
<polygon fill="#63b8ff" stroke="#63b8ff" points="885.05,-85.16 893.24,-78.44 882.65,-78.58 885.05,-85.16"/>
</a>
</g>
</g>
<!-- Node23&#45;&gt;Node7 -->
<g id="edge30_Node000023_Node000007" class="edge">
<title>Node23&#45;&gt;Node7</title>
<g id="a_edge30_Node000023_Node000007"><a xlink:title=" ">
<path fill="none" stroke="#63b8ff" d="M893.66,-58.57C890.91,-57.92 888.16,-57.3 885.5,-56.75 793.83,-37.81 684.64,-23.01 628.3,-15.93"/>
<polygon fill="#63b8ff" stroke="#63b8ff" points="628.96,-12.49 618.61,-14.73 628.1,-19.43 628.96,-12.49"/>
</a>
</g>
</g>
<!-- Node24&#45;&gt;Node7 -->
<g id="edge34_Node000024_Node000007" class="edge">
<title>Node24&#45;&gt;Node7</title>
<g id="a_edge34_Node000024_Node000007"><a xlink:title=" ">
<path fill="none" stroke="#63b8ff" d="M585.01,-113.37C585.97,-95.52 588.07,-56.61 589.37,-32.34"/>
<polygon fill="#63b8ff" stroke="#63b8ff" points="592.85,-32.86 589.89,-22.69 585.86,-32.48 592.85,-32.86"/>
</a>
</g>
</g>
<!-- Node24&#45;&gt;Node15 -->
<g id="edge33_Node000024_Node000015" class="edge">
<title>Node24&#45;&gt;Node15</title>
<g id="a_edge33_Node000024_Node000015"><a xlink:title=" ">
<path fill="none" stroke="#63b8ff" d="M620.04,-115.28C622.9,-114.68 625.75,-114.08 628.5,-113.5 691.92,-100.2 765.69,-85.05 809.66,-76.06"/>
<polygon fill="#63b8ff" stroke="#63b8ff" points="810.13,-79.53 819.22,-74.1 808.72,-72.68 810.13,-79.53"/>
</a>
</g>
</g>
<!-- Node27 -->
<g id="Node000027" class="node">
<title>Node27</title>
<g id="a_Node000027"><a xlink:href="clist_8h.html" target="_top" xlink:title="Circular linked list.">
<polygon fill="white" stroke="#666666" points="1015.12,-191 969.88,-191 969.88,-170.25 1015.12,-170.25 1015.12,-191"/>
<text text-anchor="middle" x="992.5" y="-177.5" font-family="Helvetica,sans-Serif" font-size="10.00">clist.h</text>
</a>
</g>
</g>
<!-- Node26&#45;&gt;Node27 -->
<g id="edge37_Node000026_Node000027" class="edge">
<title>Node26&#45;&gt;Node27</title>
<g id="a_edge37_Node000026_Node000027"><a xlink:title=" ">
<path fill="none" stroke="#63b8ff" d="M1000.09,-340.28C988.3,-332.36 973.34,-319.93 966.5,-304.5 951.26,-270.09 968.38,-226.24 981.16,-201.31"/>
<polygon fill="#63b8ff" stroke="#63b8ff" points="984.18,-203.08 985.87,-192.62 978.03,-199.74 984.18,-203.08"/>
</a>
</g>
</g>
<!-- Node28 -->
<g id="Node000028" class="node">
<title>Node28</title>
<g id="a_Node000028"><a xlink:href="cib_8h.html" target="_top" xlink:title="Circular integer buffer interface.">
<polygon fill="white" stroke="#666666" points="1104.12,-247.75 1064.88,-247.75 1064.88,-227 1104.12,-227 1104.12,-247.75"/>
<text text-anchor="middle" x="1084.5" y="-234.25" font-family="Helvetica,sans-Serif" font-size="10.00">cib.h</text>
</a>
</g>
</g>
<!-- Node26&#45;&gt;Node28 -->
<g id="edge41_Node000026_Node000028" class="edge">
<title>Node26&#45;&gt;Node28</title>
<g id="a_edge41_Node000026_Node000028"><a xlink:title=" ">
<path fill="none" stroke="#63b8ff" d="M1031.31,-340.02C1042.55,-331.8 1057.56,-319.09 1066.5,-304.5 1074.97,-290.68 1079.53,-272.83 1081.93,-259.16"/>
<polygon fill="#63b8ff" stroke="#63b8ff" points="1085.36,-259.92 1083.36,-249.52 1078.43,-258.9 1085.36,-259.92"/>
</a>
</g>
</g>
<!-- Node29 -->
<g id="Node000029" class="node">
<title>Node29</title>
<g id="a_Node000029"><a xlink:href="core_2include_2msg_8h.html" target="_top" xlink:title="Messaging API for inter process communication.">
<polygon fill="white" stroke="#666666" points="1159.5,-304.5 1113.5,-304.5 1113.5,-283.75 1159.5,-283.75 1159.5,-304.5"/>
<text text-anchor="middle" x="1136.5" y="-291" font-family="Helvetica,sans-Serif" font-size="10.00">msg.h</text>
</a>
</g>
</g>
<!-- Node26&#45;&gt;Node29 -->
<g id="edge43_Node000026_Node000029" class="edge">
<title>Node26&#45;&gt;Node29</title>
<g id="a_edge43_Node000026_Node000029"><a xlink:title=" ">
<path fill="none" stroke="#63b8ff" d="M1037.95,-340.09C1056.55,-331.6 1083.72,-319.2 1104.83,-309.58"/>
<polygon fill="#63b8ff" stroke="#63b8ff" points="1106.21,-312.79 1113.86,-305.46 1103.3,-306.42 1106.21,-312.79"/>
</a>
</g>
</g>
<!-- Node30 -->
<g id="Node000030" class="node">
<title>Node30</title>
<g id="a_Node000030"><a xlink:href="sched_8h.html" target="_top" xlink:title="Scheduler API definition.">
<polygon fill="white" stroke="#666666" points="880.25,-247.75 826.75,-247.75 826.75,-227 880.25,-227 880.25,-247.75"/>
<text text-anchor="middle" x="853.5" y="-234.25" font-family="Helvetica,sans-Serif" font-size="10.00">sched.h</text>
</a>
</g>
</g>
<!-- Node26&#45;&gt;Node30 -->
<g id="edge52_Node000026_Node000030" class="edge">
<title>Node26&#45;&gt;Node30</title>
<g id="a_edge52_Node000026_Node000030"><a xlink:title=" ">
<path fill="none" stroke="#63b8ff" d="M987.97,-344.61C961.66,-338.58 922.67,-326.56 895.5,-304.5 880.34,-292.19 868.97,-272.88 861.91,-258.3"/>
<polygon fill="#63b8ff" stroke="#63b8ff" points="865.11,-256.9 857.81,-249.23 858.74,-259.78 865.11,-256.9"/>
</a>
</g>
</g>
<!-- Node32 -->
<g id="Node000032" class="node">
<title>Node32</title>
<g id="a_Node000032"><a xlink:href="thread__config_8h.html" target="_top" xlink:title="Thread configuration defines.">
<polygon fill="white" stroke="#666666" points="1269.38,-304.5 1177.62,-304.5 1177.62,-283.75 1269.38,-283.75 1269.38,-304.5"/>
<text text-anchor="middle" x="1223.5" y="-291" font-family="Helvetica,sans-Serif" font-size="10.00">thread_config.h</text>
</a>
</g>
</g>
<!-- Node26&#45;&gt;Node32 -->
<g id="edge53_Node000026_Node000032" class="edge">
<title>Node26&#45;&gt;Node32</title>
<g id="a_edge53_Node000026_Node000032"><a xlink:title=" ">
<path fill="none" stroke="#63b8ff" d="M1044.85,-342.38C1078.45,-333.49 1134.98,-318.54 1175.46,-307.83"/>
<polygon fill="#63b8ff" stroke="#63b8ff" points="1176.18,-311.26 1184.95,-305.32 1174.39,-304.49 1176.18,-311.26"/>
</a>
</g>
</g>
<!-- Node33 -->
<g id="Node000033" class="node">
<title>Node33</title>
<g id="a_Node000033"><a xlink:title=" ">
<polygon fill="#e0e0e0" stroke="#999999" points="1057.88,-304.5 975.12,-304.5 975.12,-283.75 1057.88,-283.75 1057.88,-304.5"/>
<text text-anchor="middle" x="1016.5" y="-291" font-family="Helvetica,sans-Serif" font-size="10.00">thread_arch.h</text>
</a>
</g>
</g>
<!-- Node26&#45;&gt;Node33 -->
<g id="edge56_Node000026_Node000033" class="edge">
<title>Node26&#45;&gt;Node33</title>
<g id="a_edge56_Node000026_Node000033"><a xlink:title=" ">
<path fill="none" stroke="#63b8ff" d="M1016.5,-340.09C1016.5,-333.47 1016.5,-324.47 1016.5,-316.27"/>
<polygon fill="#63b8ff" stroke="#63b8ff" points="1020,-316.34 1016.5,-306.34 1013,-316.34 1020,-316.34"/>
</a>
</g>
</g>
<!-- Node27&#45;&gt;Node12 -->
<g id="edge38_Node000027_Node000012" class="edge">
<title>Node27&#45;&gt;Node12</title>
<g id="a_edge38_Node000027_Node000012"><a xlink:title=" ">
<path fill="none" stroke="#63b8ff" d="M1015.22,-173.97C1051.85,-164.85 1124.54,-146.76 1170.72,-135.27"/>
<polygon fill="#63b8ff" stroke="#63b8ff" points="1171.53,-138.68 1180.39,-132.87 1169.84,-131.89 1171.53,-138.68"/>
</a>
</g>
</g>
<!-- Node27&#45;&gt;Node15 -->
<g id="edge39_Node000027_Node000015" class="edge">
<title>Node27&#45;&gt;Node15</title>
<g id="a_edge39_Node000027_Node000015"><a xlink:title=" ">
<path fill="none" stroke="#63b8ff" d="M988.82,-169.81C983.06,-155.64 970.67,-129.41 952.5,-113.5 933.78,-97.11 908.22,-85.85 887.12,-78.64"/>
<polygon fill="#63b8ff" stroke="#63b8ff" points="888.28,-75.34 877.68,-75.61 886.13,-82 888.28,-75.34"/>
</a>
</g>
</g>
<!-- Node27&#45;&gt;Node25 -->
<g id="edge40_Node000027_Node000025" class="edge">
<title>Node27&#45;&gt;Node25</title>
<g id="a_edge40_Node000027_Node000025"><a xlink:title=" ">
<path fill="none" stroke="#63b8ff" d="M980.16,-169.84C970.25,-161.97 956.11,-150.75 944.44,-141.49"/>
<polygon fill="#63b8ff" stroke="#63b8ff" points="946.92,-138.99 936.91,-135.52 942.57,-144.48 946.92,-138.99"/>
</a>
</g>
</g>
<!-- Node28&#45;&gt;Node23 -->
<g id="edge42_Node000028_Node000023" class="edge">
<title>Node28&#45;&gt;Node23</title>
<g id="a_edge42_Node000028_Node000023"><a xlink:title=" ">
<path fill="none" stroke="#63b8ff" d="M1085.34,-226.66C1086.76,-203.84 1087.01,-146.3 1057.5,-113.5 1032.85,-86.1 991.21,-75.21 960.49,-70.91"/>
<polygon fill="#63b8ff" stroke="#63b8ff" points="961.15,-67.46 950.81,-69.74 960.32,-74.41 961.15,-67.46"/>
</a>
</g>
</g>
<!-- Node29&#45;&gt;Node7 -->
<g id="edge44_Node000029_Node000007" class="edge">
<title>Node29&#45;&gt;Node7</title>
<g id="a_edge44_Node000029_Node000007"><a xlink:title=" ">
<path fill="none" stroke="#63b8ff" d="M1136.35,-283.28C1136.07,-263.85 1135.5,-219.18 1135.5,-181.62 1135.5,-181.62 1135.5,-181.62 1135.5,-122.88 1135.5,-19.25 752.51,-11 628.64,-11.05"/>
<polygon fill="#63b8ff" stroke="#63b8ff" points="628.66,-7.55 618.67,-11.07 628.68,-14.55 628.66,-7.55"/>
</a>
</g>
</g>
<!-- Node29&#45;&gt;Node12 -->
<g id="edge45_Node000029_Node000012" class="edge">
<title>Node29&#45;&gt;Node12</title>
<g id="a_edge45_Node000029_Node000012"><a xlink:title=" ">
<path fill="none" stroke="#63b8ff" d="M1140.8,-283.6C1152.82,-257 1186.91,-181.52 1203.38,-145.07"/>
<polygon fill="#63b8ff" stroke="#63b8ff" points="1206.5,-146.65 1207.43,-136.1 1200.12,-143.77 1206.5,-146.65"/>
</a>
</g>
</g>
<!-- Node29&#45;&gt;Node30 -->
<g id="edge46_Node000029_Node000030" class="edge">
<title>Node29&#45;&gt;Node30</title>
<g id="a_edge46_Node000029_Node000030"><a xlink:title=" ">
<path fill="none" stroke="#63b8ff" d="M1113.34,-288.64C1064.7,-279.24 951.51,-257.34 891.86,-245.8"/>
<polygon fill="#63b8ff" stroke="#63b8ff" points="892.65,-242.38 882.16,-243.92 891.32,-249.26 892.65,-242.38"/>
</a>
</g>
</g>
<!-- Node30&#45;&gt;Node8 -->
<g id="edge48_Node000030_Node000008" class="edge">
<title>Node30&#45;&gt;Node8</title>
<g id="a_edge48_Node000030_Node000008"><a xlink:title=" ">
<path fill="none" stroke="#63b8ff" d="M826.62,-233.26C763.44,-225.93 600.57,-207.01 464.5,-191 453.08,-189.66 440.73,-188.2 429.27,-186.84"/>
<polygon fill="#63b8ff" stroke="#63b8ff" points="430.01,-183.4 419.67,-185.7 429.19,-190.35 430.01,-183.4"/>
</a>
</g>
</g>
<!-- Node30&#45;&gt;Node15 -->
<g id="edge47_Node000030_Node000015" class="edge">
<title>Node30&#45;&gt;Node15</title>
<g id="a_edge47_Node000030_Node000015"><a xlink:title=" ">
<path fill="none" stroke="#63b8ff" d="M853.22,-226.85C852.43,-200.48 850.22,-126.08 849.13,-89.28"/>
<polygon fill="#63b8ff" stroke="#63b8ff" points="852.63,-89.37 848.84,-79.48 845.64,-89.58 852.63,-89.37"/>
</a>
</g>
</g>
<!-- Node30&#45;&gt;Node19 -->
<g id="edge49_Node000030_Node000019" class="edge">
<title>Node30&#45;&gt;Node19</title>
<g id="a_edge49_Node000030_Node000019"><a xlink:title=" ">
<path fill="none" stroke="#63b8ff" d="M829.72,-226.59C808.82,-217.98 778.16,-205.36 754.64,-195.68"/>
<polygon fill="#63b8ff" stroke="#63b8ff" points="756.05,-192.47 745.47,-191.9 753.39,-198.95 756.05,-192.47"/>
</a>
</g>
</g>
<!-- Node30&#45;&gt;Node27 -->
<g id="edge51_Node000030_Node000027" class="edge">
<title>Node30&#45;&gt;Node27</title>
<g id="a_edge51_Node000030_Node000027"><a xlink:title=" ">
<path fill="none" stroke="#63b8ff" d="M878.35,-226.59C900.93,-217.69 934.42,-204.5 959.3,-194.7"/>
<polygon fill="#63b8ff" stroke="#63b8ff" points="960.28,-198.08 968.3,-191.16 957.71,-191.57 960.28,-198.08"/>
</a>
</g>
</g>
<!-- Node31 -->
<g id="Node000031" class="node">
<title>Node31</title>
<g id="a_Node000031"><a xlink:href="native__sched_8h.html" target="_top" xlink:title="Add definitions required on the native board.">
<polygon fill="white" stroke="#666666" points="952.25,-191 862.75,-191 862.75,-170.25 952.25,-170.25 952.25,-191"/>
<text text-anchor="middle" x="907.5" y="-177.5" font-family="Helvetica,sans-Serif" font-size="10.00">native_sched.h</text>
</a>
</g>
</g>
<!-- Node30&#45;&gt;Node31 -->
<g id="edge50_Node000030_Node000031" class="edge">
<title>Node30&#45;&gt;Node31</title>
<g id="a_edge50_Node000030_Node000031"><a xlink:title=" ">
<path fill="none" stroke="#63b8ff" d="M863.15,-226.59C870.6,-219.03 881.11,-208.39 890.02,-199.35"/>
<polygon fill="#63b8ff" stroke="#63b8ff" points="892.34,-201.98 896.87,-192.41 887.35,-197.07 892.34,-201.98"/>
</a>
</g>
</g>
<!-- Node32&#45;&gt;Node13 -->
<g id="edge54_Node000032_Node000013" class="edge">
<title>Node32&#45;&gt;Node13</title>
<g id="a_edge54_Node000032_Node000013"><a xlink:title=" ">
<path fill="none" stroke="#63b8ff" d="M1235.66,-283.34C1245.33,-275.55 1259.08,-264.47 1270.52,-255.26"/>
<polygon fill="#63b8ff" stroke="#63b8ff" points="1272.68,-258.03 1278.27,-249.03 1268.29,-252.57 1272.68,-258.03"/>
</a>
</g>
</g>
<!-- Node32&#45;&gt;Node30 -->
<g id="edge55_Node000032_Node000030" class="edge">
<title>Node32&#45;&gt;Node30</title>
<g id="a_edge55_Node000032_Node000030"><a xlink:title=" ">
<path fill="none" stroke="#63b8ff" d="M1177.3,-285.16C1174.32,-284.68 1171.37,-284.2 1168.5,-283.75 1068.72,-268.06 950.81,-251.64 891.55,-243.53"/>
<polygon fill="#63b8ff" stroke="#63b8ff" points="892.38,-240.12 882,-242.23 891.44,-247.05 892.38,-240.12"/>
</a>
</g>
</g>
<!-- Node35&#45;&gt;Node7 -->
<g id="edge59_Node000035_Node000007" class="edge">
<title>Node35&#45;&gt;Node7</title>
<g id="a_edge59_Node000035_Node000007"><a xlink:title=" ">
<path fill="none" stroke="#63b8ff" d="M671.79,-518.58C578.13,-512.79 287.5,-488.37 287.5,-408.62 287.5,-408.62 287.5,-408.62 287.5,-122.88 287.5,-86.56 304.72,-76.02 335.5,-56.75 371.12,-34.44 490.71,-20.52 552.63,-14.63"/>
<polygon fill="#63b8ff" stroke="#63b8ff" points="552.7,-18.14 562.34,-13.73 552.06,-11.17 552.7,-18.14"/>
</a>
</g>
</g>
<!-- Node35&#45;&gt;Node14 -->
<g id="edge62_Node000035_Node000014" class="edge">
<title>Node35&#45;&gt;Node14</title>
<g id="a_edge62_Node000035_Node000014"><a xlink:title=" ">
<path fill="none" stroke="#63b8ff" d="M704.22,-510.68C709.98,-496.96 722.1,-471.3 738.5,-454 749.93,-441.94 765.18,-431.57 778.53,-423.81"/>
<polygon fill="#63b8ff" stroke="#63b8ff" points="779.91,-427.04 786.94,-419.13 776.5,-420.93 779.91,-427.04"/>
</a>
</g>
</g>
<!-- Node35&#45;&gt;Node30 -->
<g id="edge60_Node000035_Node000030" class="edge">
<title>Node35&#45;&gt;Node30</title>
<g id="a_edge60_Node000035_Node000030"><a xlink:title=" ">
<path fill="none" stroke="#63b8ff" d="M702.41,-510.42C705.19,-497.26 710.97,-473.21 719.5,-454 754,-376.31 812.57,-293.29 839.37,-257.07"/>
<polygon fill="#63b8ff" stroke="#63b8ff" points="841.95,-259.46 845.13,-249.35 836.34,-255.27 841.95,-259.46"/>
</a>
</g>
</g>
<!-- Node35&#45;&gt;Node34 -->
<g id="edge61_Node000035_Node000034" class="edge">
<title>Node35&#45;&gt;Node34</title>
<g id="a_edge61_Node000035_Node000034"><a xlink:title=" ">
<path fill="none" stroke="#63b8ff" d="M713.01,-510.34C723.07,-502.47 737.41,-491.25 749.26,-481.99"/>
<polygon fill="#63b8ff" stroke="#63b8ff" points="751.18,-484.93 756.9,-476.01 746.87,-479.41 751.18,-484.93"/>
</a>
</g>
</g>
<!-- Node36 -->
<g id="Node000036" class="node">
<title>Node36</title>
<g id="a_Node000036"><a xlink:href="rmutex_8h.html" target="_top" xlink:title="Recursive Mutex for thread synchronization.">
<polygon fill="white" stroke="#666666" points="653.62,-474.75 593.38,-474.75 593.38,-454 653.62,-454 653.62,-474.75"/>
<text text-anchor="middle" x="623.5" y="-461.25" font-family="Helvetica,sans-Serif" font-size="10.00">rmutex.h</text>
</a>
</g>
</g>
<!-- Node35&#45;&gt;Node36 -->
<g id="edge63_Node000035_Node000036" class="edge">
<title>Node35&#45;&gt;Node36</title>
<g id="a_edge63_Node000035_Node000036"><a xlink:title=" ">
<path fill="none" stroke="#63b8ff" d="M686.73,-510.34C675.57,-502.4 659.58,-491.03 646.48,-481.71"/>
<polygon fill="#63b8ff" stroke="#63b8ff" points="648.56,-478.9 638.38,-475.96 644.5,-484.6 648.56,-478.9"/>
</a>
</g>
</g>
<!-- Node36&#45;&gt;Node7 -->
<g id="edge64_Node000036_Node000007" class="edge">
<title>Node36&#45;&gt;Node7</title>
<g id="a_edge64_Node000036_Node000007"><a xlink:title=" ">
<path fill="none" stroke="#63b8ff" d="M593.01,-458.65C517.06,-446.03 325.5,-408.56 325.5,-351.88 325.5,-351.88 325.5,-351.88 325.5,-122.88 325.5,-25.71 478.73,-11.84 552.15,-10.78"/>
<polygon fill="#63b8ff" stroke="#63b8ff" points="552.14,-14.28 562.12,-10.71 552.1,-7.28 552.14,-14.28"/>
</a>
</g>
</g>
<!-- Node36&#45;&gt;Node14 -->
<g id="edge65_Node000036_Node000014" class="edge">
<title>Node36&#45;&gt;Node14</title>
<g id="a_edge65_Node000036_Node000014"><a xlink:title=" ">
<path fill="none" stroke="#63b8ff" d="M654.05,-454.33C685.63,-444.99 735.03,-430.37 769.43,-420.19"/>
<polygon fill="#63b8ff" stroke="#63b8ff" points="769.99,-423.67 778.58,-417.48 768,-416.96 769.99,-423.67"/>
</a>
</g>
</g>
<!-- Node36&#45;&gt;Node30 -->
<g id="edge66_Node000036_Node000030" class="edge">
<title>Node36&#45;&gt;Node30</title>
<g id="a_edge66_Node000036_Node000030"><a xlink:title=" ">
<path fill="none" stroke="#63b8ff" d="M624.63,-453.6C627.67,-431.14 637.94,-375.15 667.5,-340.5 707.25,-293.9 773.82,-264.76 815.61,-250.05"/>
<polygon fill="#63b8ff" stroke="#63b8ff" points="816.66,-253.39 825,-246.85 814.41,-246.76 816.66,-253.39"/>
</a>
</g>
</g>
</g>
</svg>
