<?xml version="1.0" encoding="UTF-8" standalone="no"?>
<!DOCTYPE svg PUBLIC "-//W3C//DTD SVG 1.1//EN"
 "http://www.w3.org/Graphics/SVG/1.1/DTD/svg11.dtd">
<!-- Generated by graphviz version 12.1.1 (0)
 -->
<!-- Title: sys/include/chunked_ringbuffer.h Pages: 1 -->
<svg width="284pt" height="168pt"
 viewBox="0.00 0.00 283.88 167.75" xmlns="http://www.w3.org/2000/svg" xmlns:xlink="http://www.w3.org/1999/xlink">
<g id="graph0" class="graph" transform="scale(1 1) rotate(0) translate(4 163.75)">
<title>sys/include/chunked_ringbuffer.h</title>
<!-- Node1 -->
<g id="Node000001" class="node">
<title>Node1</title>
<g id="a_Node000001"><a xlink:title="Chunked Ringbuffer.">
<polygon fill="#999999" stroke="#666666" points="191.75,-159.75 77.5,-159.75 77.5,-126.25 191.75,-126.25 191.75,-159.75"/>
<text text-anchor="start" x="85.5" y="-146.25" font-family="Helvetica,sans-Serif" font-size="10.00">sys/include/chunked</text>
<text text-anchor="middle" x="134.62" y="-133.5" font-family="Helvetica,sans-Serif" font-size="10.00">_ringbuffer.h</text>
</a>
</g>
</g>
<!-- Node2 -->
<g id="Node000002" class="node">
<title>Node2</title>
<g id="a_Node000002"><a xlink:href="dose_8h.html" target="_top" xlink:title="Driver for the Differentially Operated Serial Ethernet module.">
<polygon fill="white" stroke="#666666" points="123.25,-90.25 0,-90.25 0,-69.5 123.25,-69.5 123.25,-90.25"/>
<text text-anchor="middle" x="61.62" y="-76.75" font-family="Helvetica,sans-Serif" font-size="10.00">drivers/include/dose.h</text>
</a>
</g>
</g>
<!-- Node1&#45;&gt;Node2 -->
<g id="edge1_Node000001_Node000002" class="edge">
<title>Node1&#45;&gt;Node2</title>
<g id="a_edge1_Node000001_Node000002"><a xlink:title=" ">
<path fill="none" stroke="#63b8ff" d="M106.9,-118.78C95.29,-109.06 82.42,-98.29 73.38,-90.72"/>
<polygon fill="#63b8ff" stroke="#63b8ff" points="104.37,-121.23 114.28,-124.97 108.86,-115.87 104.37,-121.23"/>
</a>
</g>
</g>
<!-- Node3 -->
<g id="Node000003" class="node">
<title>Node3</title>
<g id="a_Node000003"><a xlink:href="slipdev_8h.html" target="_top" xlink:title="SLIP device definitions.">
<polygon fill="white" stroke="#666666" points="275.88,-90.25 141.38,-90.25 141.38,-69.5 275.88,-69.5 275.88,-90.25"/>
<text text-anchor="middle" x="208.62" y="-76.75" font-family="Helvetica,sans-Serif" font-size="10.00">drivers/include/slipdev.h</text>
</a>
</g>
</g>
<!-- Node1&#45;&gt;Node3 -->
<g id="edge2_Node000001_Node000003" class="edge">
<title>Node1&#45;&gt;Node3</title>
<g id="a_edge2_Node000001_Node000003"><a xlink:title=" ">
<path fill="none" stroke="#63b8ff" d="M162.73,-118.78C174.5,-109.06 187.55,-98.29 196.71,-90.72"/>
<polygon fill="#63b8ff" stroke="#63b8ff" points="160.72,-115.91 155.23,-124.98 165.17,-121.31 160.72,-115.91"/>
</a>
</g>
</g>
<!-- Node4 -->
<g id="Node000004" class="node">
<title>Node4</title>
<g id="a_Node000004"><a xlink:href="slipdev__params_8h.html" target="_top" xlink:title="Default configuration for the SLIP device driver.">
<polygon fill="white" stroke="#666666" points="271.75,-33.5 145.5,-33.5 145.5,0 271.75,0 271.75,-33.5"/>
<text text-anchor="start" x="153.5" y="-20" font-family="Helvetica,sans-Serif" font-size="10.00">drivers/slipdev/include</text>
<text text-anchor="middle" x="208.62" y="-7.25" font-family="Helvetica,sans-Serif" font-size="10.00">/slipdev_params.h</text>
</a>
</g>
</g>
<!-- Node3&#45;&gt;Node4 -->
<g id="edge3_Node000003_Node000004" class="edge">
<title>Node3&#45;&gt;Node4</title>
<g id="a_edge3_Node000003_Node000004"><a xlink:title=" ">
<path fill="none" stroke="#63b8ff" d="M208.62,-57.59C208.62,-49.85 208.62,-41.22 208.62,-33.98"/>
<polygon fill="#63b8ff" stroke="#63b8ff" points="205.13,-57.54 208.63,-67.54 212.13,-57.54 205.13,-57.54"/>
</a>
</g>
</g>
</g>
</svg>
