<?xml version="1.0" encoding="UTF-8" standalone="no"?>
<!DOCTYPE svg PUBLIC "-//W3C//DTD SVG 1.1//EN"
 "http://www.w3.org/Graphics/SVG/1.1/DTD/svg11.dtd">
<!-- Generated by graphviz version 12.1.1 (0)
 -->
<!-- Title: sys/clif/include/clif_internal.h Pages: 1 -->
<svg width="142pt" height="155pt"
 viewBox="0.00 0.00 141.75 155.00" xmlns="http://www.w3.org/2000/svg" xmlns:xlink="http://www.w3.org/1999/xlink">
<g id="graph0" class="graph" transform="scale(1 1) rotate(0) translate(4 151)">
<title>sys/clif/include/clif_internal.h</title>
<!-- Node1 -->
<g id="Node000001" class="node">
<title>Node1</title>
<g id="a_Node000001"><a xlink:title="Internal definitions for CoRE Link format module.">
<polygon fill="#999999" stroke="#666666" points="120.25,-147 13.5,-147 13.5,-113.5 120.25,-113.5 120.25,-147"/>
<text text-anchor="start" x="21.5" y="-133.5" font-family="Helvetica,sans-Serif" font-size="10.00">sys/clif/include/clif</text>
<text text-anchor="middle" x="66.88" y="-120.75" font-family="Helvetica,sans-Serif" font-size="10.00">_internal.h</text>
</a>
</g>
</g>
<!-- Node2 -->
<g id="Node000002" class="node">
<title>Node2</title>
<g id="a_Node000002"><a xlink:href="clif_8h.html" target="_top" xlink:title="CoRE Link Format encoding and decoding library public definitions.">
<polygon fill="white" stroke="#666666" points="115.38,-77.5 18.38,-77.5 18.38,-56.75 115.38,-56.75 115.38,-77.5"/>
<text text-anchor="middle" x="66.88" y="-64" font-family="Helvetica,sans-Serif" font-size="10.00">sys/include/clif.h</text>
</a>
</g>
</g>
<!-- Node1&#45;&gt;Node2 -->
<g id="edge1_Node000001_Node000002" class="edge">
<title>Node1&#45;&gt;Node2</title>
<g id="a_edge1_Node000001_Node000002"><a xlink:title=" ">
<path fill="none" stroke="#63b8ff" d="M66.88,-101.69C66.88,-93.21 66.88,-84.42 66.88,-77.97"/>
<polygon fill="#63b8ff" stroke="#63b8ff" points="63.38,-101.68 66.88,-111.68 70.38,-101.68 63.38,-101.68"/>
</a>
</g>
</g>
<!-- Node3 -->
<g id="Node000003" class="node">
<title>Node3</title>
<g id="a_Node000003"><a xlink:href="lc_8h.html" target="_top" xlink:title="CoRE Resource Directory lookup interface.">
<polygon fill="white" stroke="#666666" points="133.75,-20.75 0,-20.75 0,0 133.75,0 133.75,-20.75"/>
<text text-anchor="middle" x="66.88" y="-7.25" font-family="Helvetica,sans-Serif" font-size="10.00">sys/include/net/cord/lc.h</text>
</a>
</g>
</g>
<!-- Node2&#45;&gt;Node3 -->
<g id="edge2_Node000002_Node000003" class="edge">
<title>Node2&#45;&gt;Node3</title>
<g id="a_edge2_Node000002_Node000003"><a xlink:title=" ">
<path fill="none" stroke="#63b8ff" d="M66.88,-44.88C66.88,-36.66 66.88,-27.68 66.88,-21.08"/>
<polygon fill="#63b8ff" stroke="#63b8ff" points="63.38,-44.82 66.88,-54.82 70.38,-44.82 63.38,-44.82"/>
</a>
</g>
</g>
</g>
</svg>
