<?xml version="1.0" encoding="UTF-8" standalone="no"?>
<!DOCTYPE svg PUBLIC "-//W3C//DTD SVG 1.1//EN"
 "http://www.w3.org/Graphics/SVG/1.1/DTD/svg11.dtd">
<!-- Generated by graphviz version 12.1.1 (0)
 -->
<!-- Title: boards/common/nucleo32/include/board.h Pages: 1 -->
<svg width="869pt" height="325pt"
 viewBox="0.00 0.00 868.50 325.25" xmlns="http://www.w3.org/2000/svg" xmlns:xlink="http://www.w3.org/1999/xlink">
<g id="graph0" class="graph" transform="scale(1 1) rotate(0) translate(4 321.25)">
<title>boards/common/nucleo32/include/board.h</title>
<!-- Node1 -->
<g id="Node000001" class="node">
<title>Node1</title>
<g id="a_Node000001"><a xlink:title="Common pin definitions and board configuration options.">
<polygon fill="#999999" stroke="#666666" points="286.12,-317.25 144.12,-317.25 144.12,-283.75 286.12,-283.75 286.12,-317.25"/>
<text text-anchor="start" x="152.12" y="-303.75" font-family="Helvetica,sans-Serif" font-size="10.00">boards/common/nucleo32</text>
<text text-anchor="middle" x="215.12" y="-291" font-family="Helvetica,sans-Serif" font-size="10.00">/include/board.h</text>
</a>
</g>
</g>
<!-- Node2 -->
<g id="Node000002" class="node">
<title>Node2</title>
<g id="a_Node000002"><a xlink:href="board__nucleo_8h.html" target="_top" xlink:title="Global common Nucleo board configuration.">
<polygon fill="white" stroke="#666666" points="115.25,-247.75 25,-247.75 25,-227 115.25,-227 115.25,-247.75"/>
<text text-anchor="middle" x="70.12" y="-234.25" font-family="Helvetica,sans-Serif" font-size="10.00">board_nucleo.h</text>
</a>
</g>
</g>
<!-- Node1&#45;&gt;Node2 -->
<g id="edge1_Node000001_Node000002" class="edge">
<title>Node1&#45;&gt;Node2</title>
<g id="a_edge1_Node000001_Node000002"><a xlink:title=" ">
<path fill="none" stroke="#63b8ff" d="M176.65,-283.28C153.97,-273.72 125.54,-261.74 103.76,-252.55"/>
<polygon fill="#63b8ff" stroke="#63b8ff" points="105.32,-249.41 94.74,-248.75 102.6,-255.86 105.32,-249.41"/>
</a>
</g>
</g>
<!-- Node5 -->
<g id="Node000005" class="node">
<title>Node5</title>
<g id="a_Node000005"><a xlink:href="arduino__pinmap_8h.html" target="_top" xlink:title="Compatibility wrapper for arduino_iomap.h.">
<polygon fill="white" stroke="#666666" points="267,-247.75 163.25,-247.75 163.25,-227 267,-227 267,-247.75"/>
<text text-anchor="middle" x="215.12" y="-234.25" font-family="Helvetica,sans-Serif" font-size="10.00">arduino_pinmap.h</text>
</a>
</g>
</g>
<!-- Node1&#45;&gt;Node5 -->
<g id="edge4_Node000001_Node000005" class="edge">
<title>Node1&#45;&gt;Node5</title>
<g id="a_edge4_Node000001_Node000005"><a xlink:title=" ">
<path fill="none" stroke="#63b8ff" d="M215.12,-283.44C215.12,-276.1 215.12,-267.32 215.12,-259.46"/>
<polygon fill="#63b8ff" stroke="#63b8ff" points="218.63,-259.73 215.13,-249.73 211.63,-259.73 218.63,-259.73"/>
</a>
</g>
</g>
<!-- Node7 -->
<g id="Node000007" class="node">
<title>Node7</title>
<g id="a_Node000007"><a xlink:href="stm32__leds_8h.html" target="_top" xlink:title="Common LED macros.">
<polygon fill="white" stroke="#666666" points="396.75,-247.75 315.5,-247.75 315.5,-227 396.75,-227 396.75,-247.75"/>
<text text-anchor="middle" x="356.12" y="-234.25" font-family="Helvetica,sans-Serif" font-size="10.00">stm32_leds.h</text>
</a>
</g>
</g>
<!-- Node1&#45;&gt;Node7 -->
<g id="edge6_Node000001_Node000007" class="edge">
<title>Node1&#45;&gt;Node7</title>
<g id="a_edge6_Node000001_Node000007"><a xlink:title=" ">
<path fill="none" stroke="#63b8ff" d="M252.54,-283.28C274.49,-273.76 301.98,-261.85 323.13,-252.68"/>
<polygon fill="#63b8ff" stroke="#63b8ff" points="324.37,-255.96 332.15,-248.77 321.59,-249.53 324.37,-255.96"/>
</a>
</g>
</g>
<!-- Node3 -->
<g id="Node000003" class="node">
<title>Node3</title>
<g id="a_Node000003"><a xlink:title=" ">
<polygon fill="#e0e0e0" stroke="#999999" points="42.25,-191 0,-191 0,-170.25 42.25,-170.25 42.25,-191"/>
<text text-anchor="middle" x="21.12" y="-177.5" font-family="Helvetica,sans-Serif" font-size="10.00">cpu.h</text>
</a>
</g>
</g>
<!-- Node2&#45;&gt;Node3 -->
<g id="edge2_Node000002_Node000003" class="edge">
<title>Node2&#45;&gt;Node3</title>
<g id="a_edge2_Node000002_Node000003"><a xlink:title=" ">
<path fill="none" stroke="#63b8ff" d="M61.36,-226.59C54.68,-219.11 45.27,-208.61 37.24,-199.63"/>
<polygon fill="#63b8ff" stroke="#63b8ff" points="40.1,-197.57 30.82,-192.46 34.88,-202.24 40.1,-197.57"/>
</a>
</g>
</g>
<!-- Node4 -->
<g id="Node000004" class="node">
<title>Node4</title>
<g id="a_Node000004"><a xlink:title=" ">
<polygon fill="#e0e0e0" stroke="#999999" points="120.75,-20.75 39.5,-20.75 39.5,0 120.75,0 120.75,-20.75"/>
<text text-anchor="middle" x="80.12" y="-7.25" font-family="Helvetica,sans-Serif" font-size="10.00">periph_conf.h</text>
</a>
</g>
</g>
<!-- Node2&#45;&gt;Node4 -->
<g id="edge3_Node000002_Node000004" class="edge">
<title>Node2&#45;&gt;Node4</title>
<g id="a_edge3_Node000002_Node000004"><a xlink:title=" ">
<path fill="none" stroke="#63b8ff" d="M70.55,-226.71C72.05,-192.95 77.08,-79.84 79.19,-32.5"/>
<polygon fill="#63b8ff" stroke="#63b8ff" points="82.68,-32.66 79.63,-22.52 75.69,-32.35 82.68,-32.66"/>
</a>
</g>
</g>
<!-- Node6 -->
<g id="Node000006" class="node">
<title>Node6</title>
<g id="a_Node000006"><a xlink:title=" ">
<polygon fill="#e0e0e0" stroke="#999999" points="264,-191 166.25,-191 166.25,-170.25 264,-170.25 264,-191"/>
<text text-anchor="middle" x="215.12" y="-177.5" font-family="Helvetica,sans-Serif" font-size="10.00">arduino_iomap.h</text>
</a>
</g>
</g>
<!-- Node5&#45;&gt;Node6 -->
<g id="edge5_Node000005_Node000006" class="edge">
<title>Node5&#45;&gt;Node6</title>
<g id="a_edge5_Node000005_Node000006"><a xlink:title=" ">
<path fill="none" stroke="#63b8ff" d="M215.12,-226.59C215.12,-219.97 215.12,-210.97 215.12,-202.77"/>
<polygon fill="#63b8ff" stroke="#63b8ff" points="218.63,-202.84 215.13,-192.84 211.63,-202.84 218.63,-202.84"/>
</a>
</g>
</g>
<!-- Node8 -->
<g id="Node000008" class="node">
<title>Node8</title>
<g id="a_Node000008"><a xlink:href="gpio__ll_8h.html" target="_top" xlink:title="Peripheral GPIO Low&#45;Level API.">
<polygon fill="white" stroke="#666666" points="401.62,-134.25 310.62,-134.25 310.62,-113.5 401.62,-113.5 401.62,-134.25"/>
<text text-anchor="middle" x="356.12" y="-120.75" font-family="Helvetica,sans-Serif" font-size="10.00">periph/gpio_ll.h</text>
</a>
</g>
</g>
<!-- Node7&#45;&gt;Node8 -->
<g id="edge7_Node000007_Node000008" class="edge">
<title>Node7&#45;&gt;Node8</title>
<g id="a_edge7_Node000007_Node000008"><a xlink:title=" ">
<path fill="none" stroke="#63b8ff" d="M356.12,-226.87C356.12,-209.1 356.12,-170.47 356.12,-146.18"/>
<polygon fill="#63b8ff" stroke="#63b8ff" points="359.63,-146.19 356.13,-136.19 352.63,-146.19 359.63,-146.19"/>
</a>
</g>
</g>
<!-- Node19 -->
<g id="Node000019" class="node">
<title>Node19</title>
<g id="a_Node000019"><a xlink:href="kernel__defines_8h.html" target="_top" xlink:title="Common macros and compiler attributes/pragmas configuration.">
<polygon fill="white" stroke="#666666" points="685.25,-191 589,-191 589,-170.25 685.25,-170.25 685.25,-191"/>
<text text-anchor="middle" x="637.12" y="-177.5" font-family="Helvetica,sans-Serif" font-size="10.00">kernel_defines.h</text>
</a>
</g>
</g>
<!-- Node7&#45;&gt;Node19 -->
<g id="edge23_Node000007_Node000019" class="edge">
<title>Node7&#45;&gt;Node19</title>
<g id="a_edge23_Node000007_Node000019"><a xlink:title=" ">
<path fill="none" stroke="#63b8ff" d="M396.98,-228.41C444.45,-219.17 523.17,-203.83 577.47,-193.25"/>
<polygon fill="#63b8ff" stroke="#63b8ff" points="578.04,-196.7 587.18,-191.36 576.7,-189.83 578.04,-196.7"/>
</a>
</g>
</g>
<!-- Node9 -->
<g id="Node000009" class="node">
<title>Node9</title>
<g id="a_Node000009"><a xlink:href="assert_8h.html" target="_top" xlink:title="POSIX.1&#45;2008 compliant version of the assert macro.">
<polygon fill="white" stroke="#666666" points="611.62,-77.5 556.62,-77.5 556.62,-56.75 611.62,-56.75 611.62,-77.5"/>
<text text-anchor="middle" x="584.12" y="-64" font-family="Helvetica,sans-Serif" font-size="10.00">assert.h</text>
</a>
</g>
</g>
<!-- Node8&#45;&gt;Node9 -->
<g id="edge8_Node000008_Node000009" class="edge">
<title>Node8&#45;&gt;Node9</title>
<g id="a_edge8_Node000008_Node000009"><a xlink:title=" ">
<path fill="none" stroke="#63b8ff" d="M397.15,-113.02C439.22,-102.92 504.17,-87.33 545.39,-77.43"/>
<polygon fill="#63b8ff" stroke="#63b8ff" points="545.97,-80.89 554.87,-75.15 544.33,-74.08 545.97,-80.89"/>
</a>
</g>
</g>
<!-- Node10 -->
<g id="Node000010" class="node">
<title>Node10</title>
<g id="a_Node000010"><a xlink:title=" ">
<polygon fill="#e0e0e0" stroke="#999999" points="638.5,-20.75 585.75,-20.75 585.75,0 638.5,0 638.5,-20.75"/>
<text text-anchor="middle" x="612.12" y="-7.25" font-family="Helvetica,sans-Serif" font-size="10.00">stdint.h</text>
</a>
</g>
</g>
<!-- Node8&#45;&gt;Node10 -->
<g id="edge11_Node000008_Node000010" class="edge">
<title>Node8&#45;&gt;Node10</title>
<g id="a_edge11_Node000008_Node000010"><a xlink:title=" ">
<path fill="none" stroke="#63b8ff" d="M401.18,-113.07C432.32,-105.45 474.24,-93.48 509.12,-77.5 538.87,-63.87 570.1,-42.72 590.26,-28.02"/>
<polygon fill="#63b8ff" stroke="#63b8ff" points="592.31,-30.86 598.26,-22.09 588.14,-25.23 592.31,-30.86"/>
</a>
</g>
</g>
<!-- Node11 -->
<g id="Node000011" class="node">
<title>Node11</title>
<g id="a_Node000011"><a xlink:title=" ">
<polygon fill="#e0e0e0" stroke="#999999" points="159.62,-77.5 98.62,-77.5 98.62,-56.75 159.62,-56.75 159.62,-77.5"/>
<text text-anchor="middle" x="129.12" y="-64" font-family="Helvetica,sans-Serif" font-size="10.00">stdbool.h</text>
</a>
</g>
</g>
<!-- Node8&#45;&gt;Node11 -->
<g id="edge10_Node000008_Node000011" class="edge">
<title>Node8&#45;&gt;Node11</title>
<g id="a_edge10_Node000008_Node000011"><a xlink:title=" ">
<path fill="none" stroke="#63b8ff" d="M315.28,-113.02C274.44,-103.17 211.96,-88.1 170.82,-78.18"/>
<polygon fill="#63b8ff" stroke="#63b8ff" points="171.84,-74.83 161.29,-75.88 170.2,-81.63 171.84,-74.83"/>
</a>
</g>
</g>
<!-- Node12 -->
<g id="Node000012" class="node">
<title>Node12</title>
<g id="a_Node000012"><a xlink:href="architecture_8h.html" target="_top" xlink:title="Platform&#45;independent access to architecture details.">
<polygon fill="white" stroke="#666666" points="397.88,-77.5 314.38,-77.5 314.38,-56.75 397.88,-56.75 397.88,-77.5"/>
<text text-anchor="middle" x="356.12" y="-64" font-family="Helvetica,sans-Serif" font-size="10.00">architecture.h</text>
</a>
</g>
</g>
<!-- Node8&#45;&gt;Node12 -->
<g id="edge12_Node000008_Node000012" class="edge">
<title>Node8&#45;&gt;Node12</title>
<g id="a_edge12_Node000008_Node000012"><a xlink:title=" ">
<path fill="none" stroke="#63b8ff" d="M356.12,-113.09C356.12,-106.47 356.12,-97.47 356.12,-89.27"/>
<polygon fill="#63b8ff" stroke="#63b8ff" points="359.63,-89.34 356.13,-79.34 352.63,-89.34 359.63,-89.34"/>
</a>
</g>
</g>
<!-- Node16 -->
<g id="Node000016" class="node">
<title>Node16</title>
<g id="a_Node000016"><a xlink:href="drivers_2include_2periph_2gpio_8h.html" target="_top" xlink:title="Low&#45;level GPIO peripheral driver interface definitions.">
<polygon fill="white" stroke="#666666" points="296,-77.5 216.25,-77.5 216.25,-56.75 296,-56.75 296,-77.5"/>
<text text-anchor="middle" x="256.12" y="-64" font-family="Helvetica,sans-Serif" font-size="10.00">periph/gpio.h</text>
</a>
</g>
</g>
<!-- Node8&#45;&gt;Node16 -->
<g id="edge17_Node000008_Node000016" class="edge">
<title>Node8&#45;&gt;Node16</title>
<g id="a_edge17_Node000008_Node000016"><a xlink:title=" ">
<path fill="none" stroke="#63b8ff" d="M338.25,-113.09C323.03,-104.76 300.93,-92.66 283.49,-83.11"/>
<polygon fill="#63b8ff" stroke="#63b8ff" points="285.63,-80.29 275.18,-78.56 282.27,-86.43 285.63,-80.29"/>
</a>
</g>
</g>
<!-- Node17 -->
<g id="Node000017" class="node">
<title>Node17</title>
<g id="a_Node000017"><a xlink:title=" ">
<polygon fill="#e0e0e0" stroke="#999999" points="219.25,-20.75 141,-20.75 141,0 219.25,0 219.25,-20.75"/>
<text text-anchor="middle" x="180.12" y="-7.25" font-family="Helvetica,sans-Serif" font-size="10.00">periph_cpu.h</text>
</a>
</g>
</g>
<!-- Node8&#45;&gt;Node17 -->
<g id="edge21_Node000008_Node000017" class="edge">
<title>Node8&#45;&gt;Node17</title>
<g id="a_edge21_Node000008_Node000017"><a xlink:title=" ">
<path fill="none" stroke="#63b8ff" d="M310.33,-119.24C277.94,-114.43 235.4,-103.28 207.12,-77.5 194.1,-65.62 187.21,-46.54 183.66,-31.92"/>
<polygon fill="#63b8ff" stroke="#63b8ff" points="187.16,-31.52 181.71,-22.43 180.3,-32.93 187.16,-31.52"/>
</a>
</g>
</g>
<!-- Node18 -->
<g id="Node000018" class="node">
<title>Node18</title>
<g id="a_Node000018"><a xlink:title=" ">
<polygon fill="#e0e0e0" stroke="#999999" points="499.88,-77.5 416.38,-77.5 416.38,-56.75 499.88,-56.75 499.88,-77.5"/>
<text text-anchor="middle" x="458.12" y="-64" font-family="Helvetica,sans-Serif" font-size="10.00">gpio_ll_arch.h</text>
</a>
</g>
</g>
<!-- Node8&#45;&gt;Node18 -->
<g id="edge22_Node000008_Node000018" class="edge">
<title>Node8&#45;&gt;Node18</title>
<g id="a_edge22_Node000008_Node000018"><a xlink:title=" ">
<path fill="none" stroke="#63b8ff" d="M374.36,-113.09C389.81,-104.8 412.21,-92.77 429.96,-83.24"/>
<polygon fill="#63b8ff" stroke="#63b8ff" points="431.56,-86.36 438.71,-78.54 428.25,-80.19 431.56,-86.36"/>
</a>
</g>
</g>
<!-- Node9&#45;&gt;Node10 -->
<g id="edge9_Node000009_Node000010" class="edge">
<title>Node9&#45;&gt;Node10</title>
<g id="a_edge9_Node000009_Node000010"><a xlink:title=" ">
<path fill="none" stroke="#63b8ff" d="M589.13,-56.34C592.71,-49.33 597.66,-39.66 602.05,-31.08"/>
<polygon fill="#63b8ff" stroke="#63b8ff" points="605.04,-32.92 606.47,-22.43 598.8,-29.74 605.04,-32.92"/>
</a>
</g>
</g>
<!-- Node12&#45;&gt;Node10 -->
<g id="edge13_Node000012_Node000010" class="edge">
<title>Node12&#45;&gt;Node10</title>
<g id="a_edge13_Node000012_Node000010"><a xlink:title=" ">
<path fill="none" stroke="#63b8ff" d="M398.11,-57.15C447.02,-46.69 527.11,-29.56 574.2,-19.49"/>
<polygon fill="#63b8ff" stroke="#63b8ff" points="574.9,-22.92 583.95,-17.4 573.43,-16.07 574.9,-22.92"/>
</a>
</g>
</g>
<!-- Node13 -->
<g id="Node000013" class="node">
<title>Node13</title>
<g id="a_Node000013"><a xlink:href="inttypes_8h.html" target="_top" xlink:title="Adds include for missing inttype definitions.">
<polygon fill="white" stroke="#666666" points="500.5,-20.75 435.75,-20.75 435.75,0 500.5,0 500.5,-20.75"/>
<text text-anchor="middle" x="468.12" y="-7.25" font-family="Helvetica,sans-Serif" font-size="10.00">inttypes.h</text>
</a>
</g>
</g>
<!-- Node12&#45;&gt;Node13 -->
<g id="edge14_Node000012_Node000013" class="edge">
<title>Node12&#45;&gt;Node13</title>
<g id="a_edge14_Node000012_Node000013"><a xlink:title=" ">
<path fill="none" stroke="#63b8ff" d="M376.15,-56.34C393.35,-47.93 418.4,-35.68 438.02,-26.09"/>
<polygon fill="#63b8ff" stroke="#63b8ff" points="439.47,-29.28 446.92,-21.74 436.39,-22.99 439.47,-29.28"/>
</a>
</g>
</g>
<!-- Node14 -->
<g id="Node000014" class="node">
<title>Node14</title>
<g id="a_Node000014"><a xlink:title=" ">
<polygon fill="#e0e0e0" stroke="#999999" points="290.5,-20.75 237.75,-20.75 237.75,0 290.5,0 290.5,-20.75"/>
<text text-anchor="middle" x="264.12" y="-7.25" font-family="Helvetica,sans-Serif" font-size="10.00">limits.h</text>
</a>
</g>
</g>
<!-- Node12&#45;&gt;Node14 -->
<g id="edge15_Node000012_Node000014" class="edge">
<title>Node12&#45;&gt;Node14</title>
<g id="a_edge15_Node000012_Node000014"><a xlink:title=" ">
<path fill="none" stroke="#63b8ff" d="M339.68,-56.34C325.94,-48.16 306.11,-36.36 290.21,-26.9"/>
<polygon fill="#63b8ff" stroke="#63b8ff" points="292.11,-23.96 281.73,-21.85 288.53,-29.97 292.11,-23.96"/>
</a>
</g>
</g>
<!-- Node15 -->
<g id="Node000015" class="node">
<title>Node15</title>
<g id="a_Node000015"><a xlink:title=" ">
<polygon fill="#e0e0e0" stroke="#999999" points="418,-20.75 308.25,-20.75 308.25,0 418,0 418,-20.75"/>
<text text-anchor="middle" x="363.12" y="-7.25" font-family="Helvetica,sans-Serif" font-size="10.00">architecture_arch.h</text>
</a>
</g>
</g>
<!-- Node12&#45;&gt;Node15 -->
<g id="edge16_Node000012_Node000015" class="edge">
<title>Node12&#45;&gt;Node15</title>
<g id="a_edge16_Node000012_Node000015"><a xlink:title=" ">
<path fill="none" stroke="#63b8ff" d="M357.38,-56.34C358.23,-49.64 359.4,-40.51 360.46,-32.23"/>
<polygon fill="#63b8ff" stroke="#63b8ff" points="363.9,-32.94 361.69,-22.58 356.95,-32.06 363.9,-32.94"/>
</a>
</g>
</g>
<!-- Node16&#45;&gt;Node4 -->
<g id="edge20_Node000016_Node000004" class="edge">
<title>Node16&#45;&gt;Node4</title>
<g id="a_edge20_Node000016_Node000004"><a xlink:title=" ">
<path fill="none" stroke="#63b8ff" d="M224.66,-56.34C196.09,-47.45 153.74,-34.27 122.26,-24.48"/>
<polygon fill="#63b8ff" stroke="#63b8ff" points="123.65,-21.25 113.06,-21.62 121.57,-27.93 123.65,-21.25"/>
</a>
</g>
</g>
<!-- Node16&#45;&gt;Node14 -->
<g id="edge18_Node000016_Node000014" class="edge">
<title>Node16&#45;&gt;Node14</title>
<g id="a_edge18_Node000016_Node000014"><a xlink:title=" ">
<path fill="none" stroke="#63b8ff" d="M257.56,-56.34C258.53,-49.64 259.87,-40.51 261.08,-32.23"/>
<polygon fill="#63b8ff" stroke="#63b8ff" points="264.51,-32.98 262.49,-22.58 257.58,-31.96 264.51,-32.98"/>
</a>
</g>
</g>
<!-- Node16&#45;&gt;Node17 -->
<g id="edge19_Node000016_Node000017" class="edge">
<title>Node16&#45;&gt;Node17</title>
<g id="a_edge19_Node000016_Node000017"><a xlink:title=" ">
<path fill="none" stroke="#63b8ff" d="M242.54,-56.34C231.51,-48.4 215.74,-37.03 202.8,-27.71"/>
<polygon fill="#63b8ff" stroke="#63b8ff" points="204.98,-24.97 194.82,-21.96 200.89,-30.65 204.98,-24.97"/>
</a>
</g>
</g>
<!-- Node20 -->
<g id="Node000020" class="node">
<title>Node20</title>
<g id="a_Node000020"><a xlink:href="modules_8h.html" target="_top" xlink:title="Common macros and compiler attributes/pragmas configuration.">
<polygon fill="white" stroke="#666666" points="670.62,-134.25 603.62,-134.25 603.62,-113.5 670.62,-113.5 670.62,-134.25"/>
<text text-anchor="middle" x="637.12" y="-120.75" font-family="Helvetica,sans-Serif" font-size="10.00">modules.h</text>
</a>
</g>
</g>
<!-- Node19&#45;&gt;Node20 -->
<g id="edge24_Node000019_Node000020" class="edge">
<title>Node19&#45;&gt;Node20</title>
<g id="a_edge24_Node000019_Node000020"><a xlink:title=" ">
<path fill="none" stroke="#63b8ff" d="M637.12,-169.84C637.12,-163.22 637.12,-154.22 637.12,-146.02"/>
<polygon fill="#63b8ff" stroke="#63b8ff" points="640.63,-146.09 637.13,-136.09 633.63,-146.09 640.63,-146.09"/>
</a>
</g>
</g>
<!-- Node21 -->
<g id="Node000021" class="node">
<title>Node21</title>
<g id="a_Node000021"><a xlink:href="riot__version_8h.html" target="_top" xlink:title="Common macros and compiler attributes/pragmas configuration.">
<polygon fill="white" stroke="#666666" points="860.5,-134.25 777.75,-134.25 777.75,-113.5 860.5,-113.5 860.5,-134.25"/>
<text text-anchor="middle" x="819.12" y="-120.75" font-family="Helvetica,sans-Serif" font-size="10.00">riot_version.h</text>
</a>
</g>
</g>
<!-- Node19&#45;&gt;Node21 -->
<g id="edge25_Node000019_Node000021" class="edge">
<title>Node19&#45;&gt;Node21</title>
<g id="a_edge25_Node000019_Node000021"><a xlink:title=" ">
<path fill="none" stroke="#63b8ff" d="M669.66,-169.84C699.21,-160.95 743,-147.77 775.56,-137.98"/>
<polygon fill="#63b8ff" stroke="#63b8ff" points="776.55,-141.34 785.11,-135.11 774.53,-134.64 776.55,-141.34"/>
</a>
</g>
</g>
<!-- Node22 -->
<g id="Node000022" class="node">
<title>Node22</title>
<g id="a_Node000022"><a xlink:href="compiler__hints_8h.html" target="_top" xlink:title="Common macros and compiler attributes/pragmas configuration.">
<polygon fill="white" stroke="#666666" points="585.62,-134.25 488.62,-134.25 488.62,-113.5 585.62,-113.5 585.62,-134.25"/>
<text text-anchor="middle" x="537.12" y="-120.75" font-family="Helvetica,sans-Serif" font-size="10.00">compiler_hints.h</text>
</a>
</g>
</g>
<!-- Node19&#45;&gt;Node22 -->
<g id="edge27_Node000019_Node000022" class="edge">
<title>Node19&#45;&gt;Node22</title>
<g id="a_edge27_Node000019_Node000022"><a xlink:title=" ">
<path fill="none" stroke="#63b8ff" d="M619.25,-169.84C604.03,-161.51 581.93,-149.41 564.49,-139.86"/>
<polygon fill="#63b8ff" stroke="#63b8ff" points="566.63,-137.04 556.18,-135.31 563.27,-143.18 566.63,-137.04"/>
</a>
</g>
</g>
<!-- Node23 -->
<g id="Node000023" class="node">
<title>Node23</title>
<g id="a_Node000023"><a xlink:href="container_8h.html" target="_top" xlink:title="Common macros and compiler attributes/pragmas configuration.">
<polygon fill="white" stroke="#666666" points="759.5,-134.25 688.75,-134.25 688.75,-113.5 759.5,-113.5 759.5,-134.25"/>
<text text-anchor="middle" x="724.12" y="-120.75" font-family="Helvetica,sans-Serif" font-size="10.00">container.h</text>
</a>
</g>
</g>
<!-- Node19&#45;&gt;Node23 -->
<g id="edge30_Node000019_Node000023" class="edge">
<title>Node19&#45;&gt;Node23</title>
<g id="a_edge30_Node000019_Node000023"><a xlink:title=" ">
<path fill="none" stroke="#63b8ff" d="M652.68,-169.84C665.55,-161.74 684.07,-150.08 699.03,-140.67"/>
<polygon fill="#63b8ff" stroke="#63b8ff" points="700.83,-143.67 707.42,-135.38 697.1,-137.75 700.83,-143.67"/>
</a>
</g>
</g>
<!-- Node21&#45;&gt;Node10 -->
<g id="edge26_Node000021_Node000010" class="edge">
<title>Node21&#45;&gt;Node10</title>
<g id="a_edge26_Node000021_Node000010"><a xlink:title=" ">
<path fill="none" stroke="#63b8ff" d="M814.71,-113.2C807.62,-98.73 792.28,-71.55 771.12,-56.75 734.83,-31.36 684.52,-20.09 650.28,-15.15"/>
<polygon fill="#63b8ff" stroke="#63b8ff" points="650.76,-11.68 640.39,-13.85 649.85,-18.62 650.76,-11.68"/>
</a>
</g>
</g>
<!-- Node22&#45;&gt;Node9 -->
<g id="edge28_Node000022_Node000009" class="edge">
<title>Node22&#45;&gt;Node9</title>
<g id="a_edge28_Node000022_Node000009"><a xlink:title=" ">
<path fill="none" stroke="#63b8ff" d="M545.53,-113.09C551.88,-105.69 560.78,-95.32 568.43,-86.41"/>
<polygon fill="#63b8ff" stroke="#63b8ff" points="570.95,-88.84 574.81,-78.98 565.64,-84.28 570.95,-88.84"/>
</a>
</g>
</g>
<!-- Node22&#45;&gt;Node10 -->
<g id="edge29_Node000022_Node000010" class="edge">
<title>Node22&#45;&gt;Node10</title>
<g id="a_edge29_Node000022_Node000010"><a xlink:title=" ">
<path fill="none" stroke="#63b8ff" d="M573.13,-113.04C590.88,-106.17 610.68,-95.01 621.12,-77.5 629.38,-63.66 626.01,-45.35 621.21,-31.5"/>
<polygon fill="#63b8ff" stroke="#63b8ff" points="624.58,-30.51 617.63,-22.52 618.08,-33.11 624.58,-30.51"/>
</a>
</g>
</g>
<!-- Node23&#45;&gt;Node10 -->
<g id="edge32_Node000023_Node000010" class="edge">
<title>Node23&#45;&gt;Node10</title>
<g id="a_edge32_Node000023_Node000010"><a xlink:title=" ">
<path fill="none" stroke="#63b8ff" d="M714.58,-113.37C695.82,-94.7 653.93,-52.99 629.93,-29.1"/>
<polygon fill="#63b8ff" stroke="#63b8ff" points="632.6,-26.82 623.04,-22.24 627.66,-31.78 632.6,-26.82"/>
</a>
</g>
</g>
<!-- Node24 -->
<g id="Node000024" class="node">
<title>Node24</title>
<g id="a_Node000024"><a xlink:title=" ">
<polygon fill="#e0e0e0" stroke="#999999" points="761.62,-77.5 706.62,-77.5 706.62,-56.75 761.62,-56.75 761.62,-77.5"/>
<text text-anchor="middle" x="734.12" y="-64" font-family="Helvetica,sans-Serif" font-size="10.00">stddef.h</text>
</a>
</g>
</g>
<!-- Node23&#45;&gt;Node24 -->
<g id="edge31_Node000023_Node000024" class="edge">
<title>Node23&#45;&gt;Node24</title>
<g id="a_edge31_Node000023_Node000024"><a xlink:title=" ">
<path fill="none" stroke="#63b8ff" d="M725.91,-113.09C727.14,-106.39 728.8,-97.26 730.32,-88.98"/>
<polygon fill="#63b8ff" stroke="#63b8ff" points="733.73,-89.78 732.08,-79.32 726.84,-88.53 733.73,-89.78"/>
</a>
</g>
</g>
</g>
</svg>
