<?xml version="1.0" encoding="UTF-8" standalone="no"?>
<!DOCTYPE svg PUBLIC "-//W3C//DTD SVG 1.1//EN"
 "http://www.w3.org/Graphics/SVG/1.1/DTD/svg11.dtd">
<!-- Generated by graphviz version 12.1.1 (0)
 -->
<!-- Title: boards/common/nucleo32/include/gpio_params.h Pages: 1 -->
<svg width="1083pt" height="382pt"
 viewBox="0.00 0.00 1083.38 382.00" xmlns="http://www.w3.org/2000/svg" xmlns:xlink="http://www.w3.org/1999/xlink">
<g id="graph0" class="graph" transform="scale(1 1) rotate(0) translate(4 378)">
<title>boards/common/nucleo32/include/gpio_params.h</title>
<!-- Node1 -->
<g id="Node000001" class="node">
<title>Node1</title>
<g id="a_Node000001"><a xlink:title="Board specific configuration of direct mapped GPIOs.">
<polygon fill="#999999" stroke="#666666" points="863.5,-374 721.5,-374 721.5,-340.5 863.5,-340.5 863.5,-374"/>
<text text-anchor="start" x="729.5" y="-360.5" font-family="Helvetica,sans-Serif" font-size="10.00">boards/common/nucleo32</text>
<text text-anchor="middle" x="792.5" y="-347.75" font-family="Helvetica,sans-Serif" font-size="10.00">/include/gpio_params.h</text>
</a>
</g>
</g>
<!-- Node2 -->
<g id="Node000002" class="node">
<title>Node2</title>
<g id="a_Node000002"><a xlink:href="common_2nucleo32_2include_2board_8h.html" target="_top" xlink:title="Common pin definitions and board configuration options.">
<polygon fill="white" stroke="#666666" points="894.88,-304.5 842.12,-304.5 842.12,-283.75 894.88,-283.75 894.88,-304.5"/>
<text text-anchor="middle" x="868.5" y="-291" font-family="Helvetica,sans-Serif" font-size="10.00">board.h</text>
</a>
</g>
</g>
<!-- Node1&#45;&gt;Node2 -->
<g id="edge1_Node000001_Node000002" class="edge">
<title>Node1&#45;&gt;Node2</title>
<g id="a_edge1_Node000001_Node000002"><a xlink:title=" ">
<path fill="none" stroke="#63b8ff" d="M812.47,-340.19C823.22,-331.55 836.47,-320.88 847.39,-312.1"/>
<polygon fill="#63b8ff" stroke="#63b8ff" points="849.48,-314.91 855.08,-305.92 845.1,-309.46 849.48,-314.91"/>
</a>
</g>
</g>
<!-- Node26 -->
<g id="Node000026" class="node">
<title>Node26</title>
<g id="a_Node000026"><a xlink:href="periph_8h.html" target="_top" xlink:title="Parameter definitions for mapping peripherals directly to SAUL.">
<polygon fill="white" stroke="#666666" points="793,-134.25 714,-134.25 714,-113.5 793,-113.5 793,-134.25"/>
<text text-anchor="middle" x="753.5" y="-120.75" font-family="Helvetica,sans-Serif" font-size="10.00">saul/periph.h</text>
</a>
</g>
</g>
<!-- Node1&#45;&gt;Node26 -->
<g id="edge34_Node000001_Node000026" class="edge">
<title>Node1&#45;&gt;Node26</title>
<g id="a_edge34_Node000001_Node000026"><a xlink:title=" ">
<path fill="none" stroke="#63b8ff" d="M789.82,-340.35C782.94,-299.56 764.69,-191.24 756.99,-145.6"/>
<polygon fill="#63b8ff" stroke="#63b8ff" points="760.45,-145.05 755.34,-135.77 753.55,-146.21 760.45,-145.05"/>
</a>
</g>
</g>
<!-- Node3 -->
<g id="Node000003" class="node">
<title>Node3</title>
<g id="a_Node000003"><a xlink:href="board__nucleo_8h.html" target="_top" xlink:title="Global common Nucleo board configuration.">
<polygon fill="white" stroke="#666666" points="920.62,-247.75 830.38,-247.75 830.38,-227 920.62,-227 920.62,-247.75"/>
<text text-anchor="middle" x="875.5" y="-234.25" font-family="Helvetica,sans-Serif" font-size="10.00">board_nucleo.h</text>
</a>
</g>
</g>
<!-- Node2&#45;&gt;Node3 -->
<g id="edge2_Node000002_Node000003" class="edge">
<title>Node2&#45;&gt;Node3</title>
<g id="a_edge2_Node000002_Node000003"><a xlink:title=" ">
<path fill="none" stroke="#63b8ff" d="M869.75,-283.34C870.61,-276.64 871.77,-267.51 872.83,-259.23"/>
<polygon fill="#63b8ff" stroke="#63b8ff" points="876.27,-259.94 874.07,-249.58 869.33,-259.06 876.27,-259.94"/>
</a>
</g>
</g>
<!-- Node6 -->
<g id="Node000006" class="node">
<title>Node6</title>
<g id="a_Node000006"><a xlink:href="arduino__pinmap_8h.html" target="_top" xlink:title="Compatibility wrapper for arduino_iomap.h.">
<polygon fill="white" stroke="#666666" points="1047.38,-247.75 943.62,-247.75 943.62,-227 1047.38,-227 1047.38,-247.75"/>
<text text-anchor="middle" x="995.5" y="-234.25" font-family="Helvetica,sans-Serif" font-size="10.00">arduino_pinmap.h</text>
</a>
</g>
</g>
<!-- Node2&#45;&gt;Node6 -->
<g id="edge5_Node000002_Node000006" class="edge">
<title>Node2&#45;&gt;Node6</title>
<g id="a_edge5_Node000002_Node000006"><a xlink:title=" ">
<path fill="none" stroke="#63b8ff" d="M891.21,-283.34C911.07,-274.77 940.17,-262.23 962.59,-252.56"/>
<polygon fill="#63b8ff" stroke="#63b8ff" points="963.8,-255.85 971.6,-248.68 961.03,-249.42 963.8,-255.85"/>
</a>
</g>
</g>
<!-- Node8 -->
<g id="Node000008" class="node">
<title>Node8</title>
<g id="a_Node000008"><a xlink:href="stm32__leds_8h.html" target="_top" xlink:title="Common LED macros.">
<polygon fill="white" stroke="#666666" points="500.12,-247.75 418.88,-247.75 418.88,-227 500.12,-227 500.12,-247.75"/>
<text text-anchor="middle" x="459.5" y="-234.25" font-family="Helvetica,sans-Serif" font-size="10.00">stm32_leds.h</text>
</a>
</g>
</g>
<!-- Node2&#45;&gt;Node8 -->
<g id="edge7_Node000002_Node000008" class="edge">
<title>Node2&#45;&gt;Node8</title>
<g id="a_edge7_Node000002_Node000008"><a xlink:title=" ">
<path fill="none" stroke="#63b8ff" d="M841.66,-289.53C774.82,-280.59 599.96,-257.18 511.84,-245.38"/>
<polygon fill="#63b8ff" stroke="#63b8ff" points="512.39,-241.92 502.02,-244.07 511.47,-248.86 512.39,-241.92"/>
</a>
</g>
</g>
<!-- Node4 -->
<g id="Node000004" class="node">
<title>Node4</title>
<g id="a_Node000004"><a xlink:title=" ">
<polygon fill="#e0e0e0" stroke="#999999" points="896.62,-191 854.38,-191 854.38,-170.25 896.62,-170.25 896.62,-191"/>
<text text-anchor="middle" x="875.5" y="-177.5" font-family="Helvetica,sans-Serif" font-size="10.00">cpu.h</text>
</a>
</g>
</g>
<!-- Node3&#45;&gt;Node4 -->
<g id="edge3_Node000003_Node000004" class="edge">
<title>Node3&#45;&gt;Node4</title>
<g id="a_edge3_Node000003_Node000004"><a xlink:title=" ">
<path fill="none" stroke="#63b8ff" d="M875.5,-226.59C875.5,-219.97 875.5,-210.97 875.5,-202.77"/>
<polygon fill="#63b8ff" stroke="#63b8ff" points="879,-202.84 875.5,-192.84 872,-202.84 879,-202.84"/>
</a>
</g>
</g>
<!-- Node5 -->
<g id="Node000005" class="node">
<title>Node5</title>
<g id="a_Node000005"><a xlink:title=" ">
<polygon fill="#e0e0e0" stroke="#999999" points="913.12,-20.75 831.88,-20.75 831.88,0 913.12,0 913.12,-20.75"/>
<text text-anchor="middle" x="872.5" y="-7.25" font-family="Helvetica,sans-Serif" font-size="10.00">periph_conf.h</text>
</a>
</g>
</g>
<!-- Node3&#45;&gt;Node5 -->
<g id="edge4_Node000003_Node000005" class="edge">
<title>Node3&#45;&gt;Node5</title>
<g id="a_edge4_Node000003_Node000005"><a xlink:title=" ">
<path fill="none" stroke="#63b8ff" d="M883.4,-226.63C904.81,-198.97 960.36,-118.02 930.5,-56.75 924.54,-44.52 913.51,-34.62 902.66,-27.22"/>
<polygon fill="#63b8ff" stroke="#63b8ff" points="904.52,-24.25 894.18,-21.94 900.81,-30.19 904.52,-24.25"/>
</a>
</g>
</g>
<!-- Node7 -->
<g id="Node000007" class="node">
<title>Node7</title>
<g id="a_Node000007"><a xlink:title=" ">
<polygon fill="#e0e0e0" stroke="#999999" points="1075.38,-191 977.62,-191 977.62,-170.25 1075.38,-170.25 1075.38,-191"/>
<text text-anchor="middle" x="1026.5" y="-177.5" font-family="Helvetica,sans-Serif" font-size="10.00">arduino_iomap.h</text>
</a>
</g>
</g>
<!-- Node6&#45;&gt;Node7 -->
<g id="edge6_Node000006_Node000007" class="edge">
<title>Node6&#45;&gt;Node7</title>
<g id="a_edge6_Node000006_Node000007"><a xlink:title=" ">
<path fill="none" stroke="#63b8ff" d="M1001.04,-226.59C1005.01,-219.58 1010.49,-209.91 1015.34,-201.33"/>
<polygon fill="#63b8ff" stroke="#63b8ff" points="1018.38,-203.07 1020.26,-192.65 1012.29,-199.62 1018.38,-203.07"/>
</a>
</g>
</g>
<!-- Node9 -->
<g id="Node000009" class="node">
<title>Node9</title>
<g id="a_Node000009"><a xlink:href="gpio__ll_8h.html" target="_top" xlink:title="Peripheral GPIO Low&#45;Level API.">
<polygon fill="white" stroke="#666666" points="505,-134.25 414,-134.25 414,-113.5 505,-113.5 505,-134.25"/>
<text text-anchor="middle" x="459.5" y="-120.75" font-family="Helvetica,sans-Serif" font-size="10.00">periph/gpio_ll.h</text>
</a>
</g>
</g>
<!-- Node8&#45;&gt;Node9 -->
<g id="edge8_Node000008_Node000009" class="edge">
<title>Node8&#45;&gt;Node9</title>
<g id="a_edge8_Node000008_Node000009"><a xlink:title=" ">
<path fill="none" stroke="#63b8ff" d="M459.5,-226.87C459.5,-209.1 459.5,-170.47 459.5,-146.18"/>
<polygon fill="#63b8ff" stroke="#63b8ff" points="463,-146.19 459.5,-136.19 456,-146.19 463,-146.19"/>
</a>
</g>
</g>
<!-- Node20 -->
<g id="Node000020" class="node">
<title>Node20</title>
<g id="a_Node000020"><a xlink:href="kernel__defines_8h.html" target="_top" xlink:title="Common macros and compiler attributes/pragmas configuration.">
<polygon fill="white" stroke="#666666" points="299.62,-191 203.38,-191 203.38,-170.25 299.62,-170.25 299.62,-191"/>
<text text-anchor="middle" x="251.5" y="-177.5" font-family="Helvetica,sans-Serif" font-size="10.00">kernel_defines.h</text>
</a>
</g>
</g>
<!-- Node8&#45;&gt;Node20 -->
<g id="edge24_Node000008_Node000020" class="edge">
<title>Node8&#45;&gt;Node20</title>
<g id="a_edge24_Node000008_Node000020"><a xlink:title=" ">
<path fill="none" stroke="#63b8ff" d="M422.31,-226.59C388.11,-217.58 337.18,-204.18 299.84,-194.35"/>
<polygon fill="#63b8ff" stroke="#63b8ff" points="300.74,-190.97 290.18,-191.81 298.96,-197.74 300.74,-190.97"/>
</a>
</g>
</g>
<!-- Node10 -->
<g id="Node000010" class="node">
<title>Node10</title>
<g id="a_Node000010"><a xlink:href="assert_8h.html" target="_top" xlink:title="POSIX.1&#45;2008 compliant version of the assert macro.">
<polygon fill="white" stroke="#666666" points="233,-77.5 178,-77.5 178,-56.75 233,-56.75 233,-77.5"/>
<text text-anchor="middle" x="205.5" y="-64" font-family="Helvetica,sans-Serif" font-size="10.00">assert.h</text>
</a>
</g>
</g>
<!-- Node9&#45;&gt;Node10 -->
<g id="edge9_Node000009_Node000010" class="edge">
<title>Node9&#45;&gt;Node10</title>
<g id="a_edge9_Node000009_Node000010"><a xlink:title=" ">
<path fill="none" stroke="#63b8ff" d="M413.8,-113.02C365.44,-102.6 289.97,-86.33 244.38,-76.51"/>
<polygon fill="#63b8ff" stroke="#63b8ff" points="245.18,-73.1 234.67,-74.41 243.71,-79.94 245.18,-73.1"/>
</a>
</g>
</g>
<!-- Node11 -->
<g id="Node000011" class="node">
<title>Node11</title>
<g id="a_Node000011"><a xlink:title=" ">
<polygon fill="#e0e0e0" stroke="#999999" points="290.88,-20.75 238.12,-20.75 238.12,0 290.88,0 290.88,-20.75"/>
<text text-anchor="middle" x="264.5" y="-7.25" font-family="Helvetica,sans-Serif" font-size="10.00">stdint.h</text>
</a>
</g>
</g>
<!-- Node9&#45;&gt;Node11 -->
<g id="edge12_Node000009_Node000011" class="edge">
<title>Node9&#45;&gt;Node11</title>
<g id="a_edge12_Node000009_Node000011"><a xlink:title=" ">
<path fill="none" stroke="#63b8ff" d="M413.67,-115.09C384.54,-108.53 347.07,-96.99 318.5,-77.5 300.57,-65.27 285.48,-45.39 275.85,-30.62"/>
<polygon fill="#63b8ff" stroke="#63b8ff" points="278.89,-28.88 270.64,-22.23 272.95,-32.57 278.89,-28.88"/>
</a>
</g>
</g>
<!-- Node12 -->
<g id="Node000012" class="node">
<title>Node12</title>
<g id="a_Node000012"><a xlink:title=" ">
<polygon fill="#e0e0e0" stroke="#999999" points="490,-77.5 429,-77.5 429,-56.75 490,-56.75 490,-77.5"/>
<text text-anchor="middle" x="459.5" y="-64" font-family="Helvetica,sans-Serif" font-size="10.00">stdbool.h</text>
</a>
</g>
</g>
<!-- Node9&#45;&gt;Node12 -->
<g id="edge11_Node000009_Node000012" class="edge">
<title>Node9&#45;&gt;Node12</title>
<g id="a_edge11_Node000009_Node000012"><a xlink:title=" ">
<path fill="none" stroke="#63b8ff" d="M459.5,-113.09C459.5,-106.47 459.5,-97.47 459.5,-89.27"/>
<polygon fill="#63b8ff" stroke="#63b8ff" points="463,-89.34 459.5,-79.34 456,-89.34 463,-89.34"/>
</a>
</g>
</g>
<!-- Node13 -->
<g id="Node000013" class="node">
<title>Node13</title>
<g id="a_Node000013"><a xlink:href="architecture_8h.html" target="_top" xlink:title="Platform&#45;independent access to architecture details.">
<polygon fill="white" stroke="#666666" points="411.25,-77.5 327.75,-77.5 327.75,-56.75 411.25,-56.75 411.25,-77.5"/>
<text text-anchor="middle" x="369.5" y="-64" font-family="Helvetica,sans-Serif" font-size="10.00">architecture.h</text>
</a>
</g>
</g>
<!-- Node9&#45;&gt;Node13 -->
<g id="edge13_Node000009_Node000013" class="edge">
<title>Node9&#45;&gt;Node13</title>
<g id="a_edge13_Node000009_Node000013"><a xlink:title=" ">
<path fill="none" stroke="#63b8ff" d="M443.41,-113.09C429.97,-104.91 410.57,-93.11 395.01,-83.65"/>
<polygon fill="#63b8ff" stroke="#63b8ff" points="397.11,-80.82 386.74,-78.62 393.47,-86.8 397.11,-80.82"/>
</a>
</g>
</g>
<!-- Node17 -->
<g id="Node000017" class="node">
<title>Node17</title>
<g id="a_Node000017"><a xlink:href="drivers_2include_2periph_2gpio_8h.html" target="_top" xlink:title="Low&#45;level GPIO peripheral driver interface definitions.">
<polygon fill="white" stroke="#666666" points="921.38,-77.5 841.62,-77.5 841.62,-56.75 921.38,-56.75 921.38,-77.5"/>
<text text-anchor="middle" x="881.5" y="-64" font-family="Helvetica,sans-Serif" font-size="10.00">periph/gpio.h</text>
</a>
</g>
</g>
<!-- Node9&#45;&gt;Node17 -->
<g id="edge18_Node000009_Node000017" class="edge">
<title>Node9&#45;&gt;Node17</title>
<g id="a_edge18_Node000009_Node000017"><a xlink:title=" ">
<path fill="none" stroke="#63b8ff" d="M505.5,-117.94C575.26,-110.29 711.93,-94.65 827.5,-77.5 828.33,-77.38 829.17,-77.25 830.01,-77.12"/>
<polygon fill="#63b8ff" stroke="#63b8ff" points="830.32,-80.62 839.64,-75.59 829.22,-73.7 830.32,-80.62"/>
</a>
</g>
</g>
<!-- Node18 -->
<g id="Node000018" class="node">
<title>Node18</title>
<g id="a_Node000018"><a xlink:title=" ">
<polygon fill="#e0e0e0" stroke="#999999" points="795.62,-20.75 717.38,-20.75 717.38,0 795.62,0 795.62,-20.75"/>
<text text-anchor="middle" x="756.5" y="-7.25" font-family="Helvetica,sans-Serif" font-size="10.00">periph_cpu.h</text>
</a>
</g>
</g>
<!-- Node9&#45;&gt;Node18 -->
<g id="edge22_Node000009_Node000018" class="edge">
<title>Node9&#45;&gt;Node18</title>
<g id="a_edge22_Node000009_Node000018"><a xlink:title=" ">
<path fill="none" stroke="#63b8ff" d="M505.22,-123.74C587.97,-124.23 757.48,-119.87 794.5,-77.5 807.46,-62.66 792.52,-42.73 777.73,-28.65"/>
<polygon fill="#63b8ff" stroke="#63b8ff" points="780.18,-26.14 770.38,-22.11 775.53,-31.37 780.18,-26.14"/>
</a>
</g>
</g>
<!-- Node19 -->
<g id="Node000019" class="node">
<title>Node19</title>
<g id="a_Node000019"><a xlink:title=" ">
<polygon fill="#e0e0e0" stroke="#999999" points="591.25,-77.5 507.75,-77.5 507.75,-56.75 591.25,-56.75 591.25,-77.5"/>
<text text-anchor="middle" x="549.5" y="-64" font-family="Helvetica,sans-Serif" font-size="10.00">gpio_ll_arch.h</text>
</a>
</g>
</g>
<!-- Node9&#45;&gt;Node19 -->
<g id="edge23_Node000009_Node000019" class="edge">
<title>Node9&#45;&gt;Node19</title>
<g id="a_edge23_Node000009_Node000019"><a xlink:title=" ">
<path fill="none" stroke="#63b8ff" d="M475.59,-113.09C489.03,-104.91 508.43,-93.11 523.99,-83.65"/>
<polygon fill="#63b8ff" stroke="#63b8ff" points="525.53,-86.8 532.26,-78.62 521.89,-80.82 525.53,-86.8"/>
</a>
</g>
</g>
<!-- Node10&#45;&gt;Node11 -->
<g id="edge10_Node000010_Node000011" class="edge">
<title>Node10&#45;&gt;Node11</title>
<g id="a_edge10_Node000010_Node000011"><a xlink:title=" ">
<path fill="none" stroke="#63b8ff" d="M216.05,-56.34C224.27,-48.71 235.9,-37.92 245.7,-28.82"/>
<polygon fill="#63b8ff" stroke="#63b8ff" points="247.98,-31.48 252.93,-22.11 243.22,-26.34 247.98,-31.48"/>
</a>
</g>
</g>
<!-- Node13&#45;&gt;Node11 -->
<g id="edge14_Node000013_Node000011" class="edge">
<title>Node13&#45;&gt;Node11</title>
<g id="a_edge14_Node000013_Node000011"><a xlink:title=" ">
<path fill="none" stroke="#63b8ff" d="M350.73,-56.34C334.75,-48.01 311.55,-35.91 293.24,-26.36"/>
<polygon fill="#63b8ff" stroke="#63b8ff" points="294.94,-23.3 284.45,-21.78 291.7,-29.51 294.94,-23.3"/>
</a>
</g>
</g>
<!-- Node14 -->
<g id="Node000014" class="node">
<title>Node14</title>
<g id="a_Node000014"><a xlink:href="inttypes_8h.html" target="_top" xlink:title="Adds include for missing inttype definitions.">
<polygon fill="white" stroke="#666666" points="502.88,-20.75 438.12,-20.75 438.12,0 502.88,0 502.88,-20.75"/>
<text text-anchor="middle" x="470.5" y="-7.25" font-family="Helvetica,sans-Serif" font-size="10.00">inttypes.h</text>
</a>
</g>
</g>
<!-- Node13&#45;&gt;Node14 -->
<g id="edge15_Node000013_Node000014" class="edge">
<title>Node13&#45;&gt;Node14</title>
<g id="a_edge15_Node000013_Node000014"><a xlink:title=" ">
<path fill="none" stroke="#63b8ff" d="M387.56,-56.34C402.92,-48.01 425.24,-35.91 442.86,-26.36"/>
<polygon fill="#63b8ff" stroke="#63b8ff" points="444.15,-29.64 451.27,-21.8 440.81,-23.49 444.15,-29.64"/>
</a>
</g>
</g>
<!-- Node15 -->
<g id="Node000015" class="node">
<title>Node15</title>
<g id="a_Node000015"><a xlink:title=" ">
<polygon fill="#e0e0e0" stroke="#999999" points="687.88,-20.75 635.12,-20.75 635.12,0 687.88,0 687.88,-20.75"/>
<text text-anchor="middle" x="661.5" y="-7.25" font-family="Helvetica,sans-Serif" font-size="10.00">limits.h</text>
</a>
</g>
</g>
<!-- Node13&#45;&gt;Node15 -->
<g id="edge16_Node000013_Node000015" class="edge">
<title>Node13&#45;&gt;Node15</title>
<g id="a_edge16_Node000013_Node000015"><a xlink:title=" ">
<path fill="none" stroke="#63b8ff" d="M411.65,-58.22C468.44,-47.57 568.71,-28.77 623.37,-18.52"/>
<polygon fill="#63b8ff" stroke="#63b8ff" points="623.96,-21.98 633.14,-16.69 622.67,-15.1 623.96,-21.98"/>
</a>
</g>
</g>
<!-- Node16 -->
<g id="Node000016" class="node">
<title>Node16</title>
<g id="a_Node000016"><a xlink:title=" ">
<polygon fill="#e0e0e0" stroke="#999999" points="420.38,-20.75 310.62,-20.75 310.62,0 420.38,0 420.38,-20.75"/>
<text text-anchor="middle" x="365.5" y="-7.25" font-family="Helvetica,sans-Serif" font-size="10.00">architecture_arch.h</text>
</a>
</g>
</g>
<!-- Node13&#45;&gt;Node16 -->
<g id="edge17_Node000013_Node000016" class="edge">
<title>Node13&#45;&gt;Node16</title>
<g id="a_edge17_Node000013_Node000016"><a xlink:title=" ">
<path fill="none" stroke="#63b8ff" d="M368.78,-56.34C368.3,-49.72 367.64,-40.72 367.04,-32.52"/>
<polygon fill="#63b8ff" stroke="#63b8ff" points="370.54,-32.31 366.32,-22.59 363.56,-32.82 370.54,-32.31"/>
</a>
</g>
</g>
<!-- Node17&#45;&gt;Node5 -->
<g id="edge21_Node000017_Node000005" class="edge">
<title>Node17&#45;&gt;Node5</title>
<g id="a_edge21_Node000017_Node000005"><a xlink:title=" ">
<path fill="none" stroke="#63b8ff" d="M879.89,-56.34C878.79,-49.64 877.29,-40.51 875.93,-32.23"/>
<polygon fill="#63b8ff" stroke="#63b8ff" points="879.42,-31.87 874.34,-22.57 872.51,-33.01 879.42,-31.87"/>
</a>
</g>
</g>
<!-- Node17&#45;&gt;Node15 -->
<g id="edge19_Node000017_Node000015" class="edge">
<title>Node17&#45;&gt;Node15</title>
<g id="a_edge19_Node000017_Node000015"><a xlink:title=" ">
<path fill="none" stroke="#63b8ff" d="M841.91,-56.27C801.49,-46.21 739.19,-30.71 699.39,-20.8"/>
<polygon fill="#63b8ff" stroke="#63b8ff" points="700.32,-17.43 689.77,-18.41 698.63,-24.22 700.32,-17.43"/>
</a>
</g>
</g>
<!-- Node17&#45;&gt;Node18 -->
<g id="edge20_Node000017_Node000018" class="edge">
<title>Node17&#45;&gt;Node18</title>
<g id="a_edge20_Node000017_Node000018"><a xlink:title=" ">
<path fill="none" stroke="#63b8ff" d="M859.15,-56.34C839.69,-47.81 811.21,-35.34 789.19,-25.69"/>
<polygon fill="#63b8ff" stroke="#63b8ff" points="790.6,-22.49 780.04,-21.69 787.8,-28.9 790.6,-22.49"/>
</a>
</g>
</g>
<!-- Node21 -->
<g id="Node000021" class="node">
<title>Node21</title>
<g id="a_Node000021"><a xlink:href="modules_8h.html" target="_top" xlink:title="Common macros and compiler attributes/pragmas configuration.">
<polygon fill="white" stroke="#666666" points="372,-134.25 305,-134.25 305,-113.5 372,-113.5 372,-134.25"/>
<text text-anchor="middle" x="338.5" y="-120.75" font-family="Helvetica,sans-Serif" font-size="10.00">modules.h</text>
</a>
</g>
</g>
<!-- Node20&#45;&gt;Node21 -->
<g id="edge25_Node000020_Node000021" class="edge">
<title>Node20&#45;&gt;Node21</title>
<g id="a_edge25_Node000020_Node000021"><a xlink:title=" ">
<path fill="none" stroke="#63b8ff" d="M267.05,-169.84C279.92,-161.74 298.44,-150.08 313.41,-140.67"/>
<polygon fill="#63b8ff" stroke="#63b8ff" points="315.2,-143.67 321.8,-135.38 311.47,-137.75 315.2,-143.67"/>
</a>
</g>
</g>
<!-- Node22 -->
<g id="Node000022" class="node">
<title>Node22</title>
<g id="a_Node000022"><a xlink:href="riot__version_8h.html" target="_top" xlink:title="Common macros and compiler attributes/pragmas configuration.">
<polygon fill="white" stroke="#666666" points="197.88,-134.25 115.12,-134.25 115.12,-113.5 197.88,-113.5 197.88,-134.25"/>
<text text-anchor="middle" x="156.5" y="-120.75" font-family="Helvetica,sans-Serif" font-size="10.00">riot_version.h</text>
</a>
</g>
</g>
<!-- Node20&#45;&gt;Node22 -->
<g id="edge26_Node000020_Node000022" class="edge">
<title>Node20&#45;&gt;Node22</title>
<g id="a_edge26_Node000020_Node000022"><a xlink:title=" ">
<path fill="none" stroke="#63b8ff" d="M234.52,-169.84C220.2,-161.58 199.46,-149.63 182.96,-140.13"/>
<polygon fill="#63b8ff" stroke="#63b8ff" points="185.06,-137.3 174.65,-135.33 181.56,-143.36 185.06,-137.3"/>
</a>
</g>
</g>
<!-- Node23 -->
<g id="Node000023" class="node">
<title>Node23</title>
<g id="a_Node000023"><a xlink:href="compiler__hints_8h.html" target="_top" xlink:title="Common macros and compiler attributes/pragmas configuration.">
<polygon fill="white" stroke="#666666" points="97,-134.25 0,-134.25 0,-113.5 97,-113.5 97,-134.25"/>
<text text-anchor="middle" x="48.5" y="-120.75" font-family="Helvetica,sans-Serif" font-size="10.00">compiler_hints.h</text>
</a>
</g>
</g>
<!-- Node20&#45;&gt;Node23 -->
<g id="edge28_Node000020_Node000023" class="edge">
<title>Node20&#45;&gt;Node23</title>
<g id="a_edge28_Node000020_Node000023"><a xlink:title=" ">
<path fill="none" stroke="#63b8ff" d="M215.21,-169.84C181.83,-160.83 132.12,-147.43 95.67,-137.6"/>
<polygon fill="#63b8ff" stroke="#63b8ff" points="96.85,-134.29 86.28,-135.06 95.02,-141.05 96.85,-134.29"/>
</a>
</g>
</g>
<!-- Node24 -->
<g id="Node000024" class="node">
<title>Node24</title>
<g id="a_Node000024"><a xlink:href="container_8h.html" target="_top" xlink:title="Common macros and compiler attributes/pragmas configuration.">
<polygon fill="white" stroke="#666666" points="286.88,-134.25 216.12,-134.25 216.12,-113.5 286.88,-113.5 286.88,-134.25"/>
<text text-anchor="middle" x="251.5" y="-120.75" font-family="Helvetica,sans-Serif" font-size="10.00">container.h</text>
</a>
</g>
</g>
<!-- Node20&#45;&gt;Node24 -->
<g id="edge31_Node000020_Node000024" class="edge">
<title>Node20&#45;&gt;Node24</title>
<g id="a_edge31_Node000020_Node000024"><a xlink:title=" ">
<path fill="none" stroke="#63b8ff" d="M251.5,-169.84C251.5,-163.22 251.5,-154.22 251.5,-146.02"/>
<polygon fill="#63b8ff" stroke="#63b8ff" points="255,-146.09 251.5,-136.09 248,-146.09 255,-146.09"/>
</a>
</g>
</g>
<!-- Node22&#45;&gt;Node11 -->
<g id="edge27_Node000022_Node000011" class="edge">
<title>Node22&#45;&gt;Node11</title>
<g id="a_edge27_Node000022_Node000011"><a xlink:title=" ">
<path fill="none" stroke="#63b8ff" d="M135.83,-113.07C112.31,-100.59 79.15,-78.07 95.5,-56.75 111.33,-36.11 181.57,-22.79 226.36,-16.22"/>
<polygon fill="#63b8ff" stroke="#63b8ff" points="226.79,-19.69 236.21,-14.83 225.82,-12.76 226.79,-19.69"/>
</a>
</g>
</g>
<!-- Node23&#45;&gt;Node10 -->
<g id="edge29_Node000023_Node000010" class="edge">
<title>Node23&#45;&gt;Node10</title>
<g id="a_edge29_Node000023_Node000010"><a xlink:title=" ">
<path fill="none" stroke="#63b8ff" d="M76.57,-113.09C101.8,-104.29 139.08,-91.29 167.07,-81.53"/>
<polygon fill="#63b8ff" stroke="#63b8ff" points="167.96,-84.92 176.25,-78.33 165.65,-78.31 167.96,-84.92"/>
</a>
</g>
</g>
<!-- Node23&#45;&gt;Node11 -->
<g id="edge30_Node000023_Node000011" class="edge">
<title>Node23&#45;&gt;Node11</title>
<g id="a_edge30_Node000023_Node000011"><a xlink:title=" ">
<path fill="none" stroke="#63b8ff" d="M51.53,-113.15C56.58,-98.6 68.11,-71.32 87.5,-56.75 128.32,-26.07 187.79,-16.04 226.31,-12.81"/>
<polygon fill="#63b8ff" stroke="#63b8ff" points="226.55,-16.3 236.28,-12.1 226.06,-9.32 226.55,-16.3"/>
</a>
</g>
</g>
<!-- Node24&#45;&gt;Node11 -->
<g id="edge33_Node000024_Node000011" class="edge">
<title>Node24&#45;&gt;Node11</title>
<g id="a_edge33_Node000024_Node000011"><a xlink:title=" ">
<path fill="none" stroke="#63b8ff" d="M252.61,-113.37C254.69,-95.52 259.23,-56.61 262.06,-32.34"/>
<polygon fill="#63b8ff" stroke="#63b8ff" points="265.5,-33.02 263.18,-22.68 258.55,-32.21 265.5,-33.02"/>
</a>
</g>
</g>
<!-- Node25 -->
<g id="Node000025" class="node">
<title>Node25</title>
<g id="a_Node000025"><a xlink:title=" ">
<polygon fill="#e0e0e0" stroke="#999999" points="160,-77.5 105,-77.5 105,-56.75 160,-56.75 160,-77.5"/>
<text text-anchor="middle" x="132.5" y="-64" font-family="Helvetica,sans-Serif" font-size="10.00">stddef.h</text>
</a>
</g>
</g>
<!-- Node24&#45;&gt;Node25 -->
<g id="edge32_Node000024_Node000025" class="edge">
<title>Node24&#45;&gt;Node25</title>
<g id="a_edge32_Node000024_Node000025"><a xlink:title=" ">
<path fill="none" stroke="#63b8ff" d="M230.23,-113.09C211.78,-104.6 184.84,-92.2 163.91,-82.58"/>
<polygon fill="#63b8ff" stroke="#63b8ff" points="165.51,-79.46 154.97,-78.46 162.59,-85.82 165.51,-79.46"/>
</a>
</g>
</g>
<!-- Node26&#45;&gt;Node17 -->
<g id="edge35_Node000026_Node000017" class="edge">
<title>Node26&#45;&gt;Node17</title>
<g id="a_edge35_Node000026_Node000017"><a xlink:title=" ">
<path fill="none" stroke="#63b8ff" d="M776.38,-113.09C796.41,-104.52 825.74,-91.98 848.33,-82.31"/>
<polygon fill="#63b8ff" stroke="#63b8ff" points="849.6,-85.57 857.42,-78.42 846.85,-79.14 849.6,-85.57"/>
</a>
</g>
</g>
<!-- Node27 -->
<g id="Node000027" class="node">
<title>Node27</title>
<g id="a_Node000027"><a xlink:href="adc_8h.html" target="_top" xlink:title="Low&#45;level ADC peripheral driver interface definitions.">
<polygon fill="white" stroke="#666666" points="785.5,-77.5 709.5,-77.5 709.5,-56.75 785.5,-56.75 785.5,-77.5"/>
<text text-anchor="middle" x="747.5" y="-64" font-family="Helvetica,sans-Serif" font-size="10.00">periph/adc.h</text>
</a>
</g>
</g>
<!-- Node26&#45;&gt;Node27 -->
<g id="edge36_Node000026_Node000027" class="edge">
<title>Node26&#45;&gt;Node27</title>
<g id="a_edge36_Node000026_Node000027"><a xlink:title=" ">
<path fill="none" stroke="#63b8ff" d="M752.43,-113.09C751.7,-106.47 750.72,-97.47 749.82,-89.27"/>
<polygon fill="#63b8ff" stroke="#63b8ff" points="753.3,-88.89 748.73,-79.33 746.34,-89.65 753.3,-88.89"/>
</a>
</g>
</g>
<!-- Node28 -->
<g id="Node000028" class="node">
<title>Node28</title>
<g id="a_Node000028"><a xlink:href="pwm_8h.html" target="_top" xlink:title="Low&#45;level PWM peripheral driver interface definitions.">
<polygon fill="white" stroke="#666666" points="691.88,-77.5 609.12,-77.5 609.12,-56.75 691.88,-56.75 691.88,-77.5"/>
<text text-anchor="middle" x="650.5" y="-64" font-family="Helvetica,sans-Serif" font-size="10.00">periph/pwm.h</text>
</a>
</g>
</g>
<!-- Node26&#45;&gt;Node28 -->
<g id="edge41_Node000026_Node000028" class="edge">
<title>Node26&#45;&gt;Node28</title>
<g id="a_edge41_Node000026_Node000028"><a xlink:title=" ">
<path fill="none" stroke="#63b8ff" d="M735.09,-113.09C719.41,-104.76 696.65,-92.66 678.69,-83.11"/>
<polygon fill="#63b8ff" stroke="#63b8ff" points="680.56,-80.14 670.09,-78.54 677.28,-86.32 680.56,-80.14"/>
</a>
</g>
</g>
<!-- Node27&#45;&gt;Node5 -->
<g id="edge40_Node000027_Node000005" class="edge">
<title>Node27&#45;&gt;Node5</title>
<g id="a_edge40_Node000027_Node000005"><a xlink:title=" ">
<path fill="none" stroke="#63b8ff" d="M769.85,-56.34C789.31,-47.81 817.79,-35.34 839.81,-25.69"/>
<polygon fill="#63b8ff" stroke="#63b8ff" points="841.2,-28.9 848.96,-21.69 838.4,-22.49 841.2,-28.9"/>
</a>
</g>
</g>
<!-- Node27&#45;&gt;Node11 -->
<g id="edge38_Node000027_Node000011" class="edge">
<title>Node27&#45;&gt;Node11</title>
<g id="a_edge38_Node000027_Node000011"><a xlink:title=" ">
<path fill="none" stroke="#63b8ff" d="M709.08,-58.11C706.19,-57.62 703.3,-57.15 700.5,-56.75 527.89,-31.82 479.01,-49.93 302.34,-20.55"/>
<polygon fill="#63b8ff" stroke="#63b8ff" points="303.01,-17.11 292.56,-18.89 301.84,-24.02 303.01,-17.11"/>
</a>
</g>
</g>
<!-- Node27&#45;&gt;Node15 -->
<g id="edge37_Node000027_Node000015" class="edge">
<title>Node27&#45;&gt;Node15</title>
<g id="a_edge37_Node000027_Node000015"><a xlink:title=" ">
<path fill="none" stroke="#63b8ff" d="M732.12,-56.34C719.41,-48.24 701.1,-36.58 686.31,-27.17"/>
<polygon fill="#63b8ff" stroke="#63b8ff" points="688.33,-24.31 678.02,-21.89 684.57,-30.21 688.33,-24.31"/>
</a>
</g>
</g>
<!-- Node27&#45;&gt;Node18 -->
<g id="edge39_Node000027_Node000018" class="edge">
<title>Node27&#45;&gt;Node18</title>
<g id="a_edge39_Node000027_Node000018"><a xlink:title=" ">
<path fill="none" stroke="#63b8ff" d="M749.11,-56.34C750.21,-49.64 751.71,-40.51 753.07,-32.23"/>
<polygon fill="#63b8ff" stroke="#63b8ff" points="756.49,-33.01 754.66,-22.57 749.58,-31.87 756.49,-33.01"/>
</a>
</g>
</g>
<!-- Node28&#45;&gt;Node5 -->
<g id="edge45_Node000028_Node000005" class="edge">
<title>Node28&#45;&gt;Node5</title>
<g id="a_edge45_Node000028_Node000005"><a xlink:title=" ">
<path fill="none" stroke="#63b8ff" d="M690.45,-56.27C727.11,-47.23 781.62,-33.79 821.43,-23.97"/>
<polygon fill="#63b8ff" stroke="#63b8ff" points="822.16,-27.39 831.03,-21.6 820.48,-20.6 822.16,-27.39"/>
</a>
</g>
</g>
<!-- Node28&#45;&gt;Node11 -->
<g id="edge42_Node000028_Node000011" class="edge">
<title>Node28&#45;&gt;Node11</title>
<g id="a_edge42_Node000028_Node000011"><a xlink:title=" ">
<path fill="none" stroke="#63b8ff" d="M608.79,-58.09C605.99,-57.62 603.21,-57.17 600.5,-56.75 471.69,-36.94 435.01,-44.79 302.1,-20.58"/>
<polygon fill="#63b8ff" stroke="#63b8ff" points="303.05,-17.2 292.57,-18.82 301.77,-24.08 303.05,-17.2"/>
</a>
</g>
</g>
<!-- Node28&#45;&gt;Node15 -->
<g id="edge43_Node000028_Node000015" class="edge">
<title>Node28&#45;&gt;Node15</title>
<g id="a_edge43_Node000028_Node000015"><a xlink:title=" ">
<path fill="none" stroke="#63b8ff" d="M652.47,-56.34C653.81,-49.64 655.65,-40.51 657.31,-32.23"/>
<polygon fill="#63b8ff" stroke="#63b8ff" points="660.71,-33.06 659.25,-22.56 653.85,-31.68 660.71,-33.06"/>
</a>
</g>
</g>
<!-- Node28&#45;&gt;Node18 -->
<g id="edge44_Node000028_Node000018" class="edge">
<title>Node28&#45;&gt;Node18</title>
<g id="a_edge44_Node000028_Node000018"><a xlink:title=" ">
<path fill="none" stroke="#63b8ff" d="M669.45,-56.34C685.58,-48.01 709,-35.91 727.49,-26.36"/>
<polygon fill="#63b8ff" stroke="#63b8ff" points="729.09,-29.47 736.37,-21.77 725.88,-23.25 729.09,-29.47"/>
</a>
</g>
</g>
</g>
</svg>
