<?xml version="1.0" encoding="UTF-8" standalone="no"?>
<!DOCTYPE svg PUBLIC "-//W3C//DTD SVG 1.1//EN"
 "http://www.w3.org/Graphics/SVG/1.1/DTD/svg11.dtd">
<!-- Generated by graphviz version 12.1.1 (0)
 -->
<!-- Title: boards/common/weact&#45;f4x1cx/include/gpio_params.h Pages: 1 -->
<svg width="949pt" height="395pt"
 viewBox="0.00 0.00 949.25 394.75" xmlns="http://www.w3.org/2000/svg" xmlns:xlink="http://www.w3.org/1999/xlink">
<g id="graph0" class="graph" transform="scale(1 1) rotate(0) translate(4 390.75)">
<title>boards/common/weact&#45;f4x1cx/include/gpio_params.h</title>
<!-- Node1 -->
<g id="Node000001" class="node">
<title>Node1</title>
<g id="a_Node000001"><a xlink:title="Board specific configuration of direct mapped GPIOs.">
<polygon fill="#999999" stroke="#666666" points="729.88,-386.75 602.88,-386.75 602.88,-340.5 729.88,-340.5 729.88,-386.75"/>
<text text-anchor="start" x="610.88" y="-373.25" font-family="Helvetica,sans-Serif" font-size="10.00">boards/common/weact</text>
<text text-anchor="start" x="610.88" y="-360.5" font-family="Helvetica,sans-Serif" font-size="10.00">&#45;f4x1cx/include/gpio</text>
<text text-anchor="middle" x="666.38" y="-347.75" font-family="Helvetica,sans-Serif" font-size="10.00">_params.h</text>
</a>
</g>
</g>
<!-- Node2 -->
<g id="Node000002" class="node">
<title>Node2</title>
<g id="a_Node000002"><a xlink:href="common_2weact-f4x1cx_2include_2board_8h.html" target="_top" xlink:title="Support for the WeAct&#45;F4x1Cx Board.">
<polygon fill="white" stroke="#666666" points="665.75,-304.5 613,-304.5 613,-283.75 665.75,-283.75 665.75,-304.5"/>
<text text-anchor="middle" x="639.38" y="-291" font-family="Helvetica,sans-Serif" font-size="10.00">board.h</text>
</a>
</g>
</g>
<!-- Node1&#45;&gt;Node2 -->
<g id="edge1_Node000001_Node000002" class="edge">
<title>Node1&#45;&gt;Node2</title>
<g id="a_edge1_Node000001_Node000002"><a xlink:title=" ">
<path fill="none" stroke="#63b8ff" d="M657.38,-340.15C654.21,-332.2 650.65,-323.31 647.54,-315.55"/>
<polygon fill="#63b8ff" stroke="#63b8ff" points="650.81,-314.28 643.84,-306.3 644.31,-316.88 650.81,-314.28"/>
</a>
</g>
</g>
<!-- Node22 -->
<g id="Node000022" class="node">
<title>Node22</title>
<g id="a_Node000022"><a xlink:href="periph_8h.html" target="_top" xlink:title="Parameter definitions for mapping peripherals directly to SAUL.">
<polygon fill="white" stroke="#666666" points="795.88,-134.25 716.88,-134.25 716.88,-113.5 795.88,-113.5 795.88,-134.25"/>
<text text-anchor="middle" x="756.38" y="-120.75" font-family="Helvetica,sans-Serif" font-size="10.00">saul/periph.h</text>
</a>
</g>
</g>
<!-- Node1&#45;&gt;Node22 -->
<g id="edge30_Node000001_Node000022" class="edge">
<title>Node1&#45;&gt;Node22</title>
<g id="a_edge30_Node000001_Node000022"><a xlink:title=" ">
<path fill="none" stroke="#63b8ff" d="M674.84,-340.26C692.28,-294.19 731.97,-189.34 748.71,-145.13"/>
<polygon fill="#63b8ff" stroke="#63b8ff" points="751.98,-146.38 752.24,-135.79 745.43,-143.9 751.98,-146.38"/>
</a>
</g>
</g>
<!-- Node3 -->
<g id="Node000003" class="node">
<title>Node3</title>
<g id="a_Node000003"><a xlink:title=" ">
<polygon fill="#e0e0e0" stroke="#999999" points="712.5,-20.75 634.25,-20.75 634.25,0 712.5,0 712.5,-20.75"/>
<text text-anchor="middle" x="673.38" y="-7.25" font-family="Helvetica,sans-Serif" font-size="10.00">periph_cpu.h</text>
</a>
</g>
</g>
<!-- Node2&#45;&gt;Node3 -->
<g id="edge2_Node000002_Node000003" class="edge">
<title>Node2&#45;&gt;Node3</title>
<g id="a_edge2_Node000002_Node000003"><a xlink:title=" ">
<path fill="none" stroke="#63b8ff" d="M639.38,-283.28C639.38,-263.85 639.38,-219.18 639.38,-181.62 639.38,-181.62 639.38,-181.62 639.38,-122.88 639.38,-89.77 653.26,-53.44 663.28,-31.53"/>
<polygon fill="#63b8ff" stroke="#63b8ff" points="666.41,-33.11 667.56,-22.58 660.09,-30.09 666.41,-33.11"/>
</a>
</g>
</g>
<!-- Node4 -->
<g id="Node000004" class="node">
<title>Node4</title>
<g id="a_Node000004"><a xlink:href="stm32__leds_8h.html" target="_top" xlink:title="Common LED macros.">
<polygon fill="white" stroke="#666666" points="481,-247.75 399.75,-247.75 399.75,-227 481,-227 481,-247.75"/>
<text text-anchor="middle" x="440.38" y="-234.25" font-family="Helvetica,sans-Serif" font-size="10.00">stm32_leds.h</text>
</a>
</g>
</g>
<!-- Node2&#45;&gt;Node4 -->
<g id="edge3_Node000002_Node000004" class="edge">
<title>Node2&#45;&gt;Node4</title>
<g id="a_edge3_Node000002_Node000004"><a xlink:title=" ">
<path fill="none" stroke="#63b8ff" d="M612.54,-285.74C580.48,-276.92 526.3,-262.01 487.27,-251.28"/>
<polygon fill="#63b8ff" stroke="#63b8ff" points="488.22,-247.91 477.65,-248.63 486.36,-254.66 488.22,-247.91"/>
</a>
</g>
</g>
<!-- Node5 -->
<g id="Node000005" class="node">
<title>Node5</title>
<g id="a_Node000005"><a xlink:href="gpio__ll_8h.html" target="_top" xlink:title="Peripheral GPIO Low&#45;Level API.">
<polygon fill="white" stroke="#666666" points="485.88,-134.25 394.88,-134.25 394.88,-113.5 485.88,-113.5 485.88,-134.25"/>
<text text-anchor="middle" x="440.38" y="-120.75" font-family="Helvetica,sans-Serif" font-size="10.00">periph/gpio_ll.h</text>
</a>
</g>
</g>
<!-- Node4&#45;&gt;Node5 -->
<g id="edge4_Node000004_Node000005" class="edge">
<title>Node4&#45;&gt;Node5</title>
<g id="a_edge4_Node000004_Node000005"><a xlink:title=" ">
<path fill="none" stroke="#63b8ff" d="M440.38,-226.87C440.38,-209.1 440.38,-170.47 440.38,-146.18"/>
<polygon fill="#63b8ff" stroke="#63b8ff" points="443.88,-146.19 440.38,-136.19 436.88,-146.19 443.88,-146.19"/>
</a>
</g>
</g>
<!-- Node16 -->
<g id="Node000016" class="node">
<title>Node16</title>
<g id="a_Node000016"><a xlink:href="kernel__defines_8h.html" target="_top" xlink:title="Common macros and compiler attributes/pragmas configuration.">
<polygon fill="white" stroke="#666666" points="286.5,-191 190.25,-191 190.25,-170.25 286.5,-170.25 286.5,-191"/>
<text text-anchor="middle" x="238.38" y="-177.5" font-family="Helvetica,sans-Serif" font-size="10.00">kernel_defines.h</text>
</a>
</g>
</g>
<!-- Node4&#45;&gt;Node16 -->
<g id="edge20_Node000004_Node000016" class="edge">
<title>Node4&#45;&gt;Node16</title>
<g id="a_edge20_Node000004_Node000016"><a xlink:title=" ">
<path fill="none" stroke="#63b8ff" d="M404.26,-226.59C371.04,-217.58 321.59,-204.18 285.32,-194.35"/>
<polygon fill="#63b8ff" stroke="#63b8ff" points="286.54,-191.05 275.98,-191.82 284.71,-197.81 286.54,-191.05"/>
</a>
</g>
</g>
<!-- Node5&#45;&gt;Node3 -->
<g id="edge18_Node000005_Node000003" class="edge">
<title>Node5&#45;&gt;Node3</title>
<g id="a_edge18_Node000005_Node000003"><a xlink:title=" ">
<path fill="none" stroke="#63b8ff" d="M449.03,-113.33C462.5,-99.03 489.93,-72.07 518.38,-56.75 551.14,-39.11 591.58,-27.56 622.94,-20.54"/>
<polygon fill="#63b8ff" stroke="#63b8ff" points="623.53,-23.99 632.57,-18.47 622.06,-17.14 623.53,-23.99"/>
</a>
</g>
</g>
<!-- Node6 -->
<g id="Node000006" class="node">
<title>Node6</title>
<g id="a_Node000006"><a xlink:href="assert_8h.html" target="_top" xlink:title="POSIX.1&#45;2008 compliant version of the assert macro.">
<polygon fill="white" stroke="#666666" points="251.88,-77.5 196.88,-77.5 196.88,-56.75 251.88,-56.75 251.88,-77.5"/>
<text text-anchor="middle" x="224.38" y="-64" font-family="Helvetica,sans-Serif" font-size="10.00">assert.h</text>
</a>
</g>
</g>
<!-- Node5&#45;&gt;Node6 -->
<g id="edge5_Node000005_Node000006" class="edge">
<title>Node5&#45;&gt;Node6</title>
<g id="a_edge5_Node000005_Node000006"><a xlink:title=" ">
<path fill="none" stroke="#63b8ff" d="M401.76,-113.09C362.66,-103.18 302.53,-87.93 263.31,-77.99"/>
<polygon fill="#63b8ff" stroke="#63b8ff" points="264.37,-74.65 253.82,-75.59 262.65,-81.44 264.37,-74.65"/>
</a>
</g>
</g>
<!-- Node7 -->
<g id="Node000007" class="node">
<title>Node7</title>
<g id="a_Node000007"><a xlink:title=" ">
<polygon fill="#e0e0e0" stroke="#999999" points="263.75,-20.75 211,-20.75 211,0 263.75,0 263.75,-20.75"/>
<text text-anchor="middle" x="237.38" y="-7.25" font-family="Helvetica,sans-Serif" font-size="10.00">stdint.h</text>
</a>
</g>
</g>
<!-- Node5&#45;&gt;Node7 -->
<g id="edge8_Node000005_Node000007" class="edge">
<title>Node5&#45;&gt;Node7</title>
<g id="a_edge8_Node000005_Node000007"><a xlink:title=" ">
<path fill="none" stroke="#63b8ff" d="M394.66,-114.34C365.76,-107.5 328.49,-95.93 299.38,-77.5 279.71,-65.05 262.08,-44.92 250.69,-30.14"/>
<polygon fill="#63b8ff" stroke="#63b8ff" points="253.52,-28.08 244.76,-22.13 247.9,-32.25 253.52,-28.08"/>
</a>
</g>
</g>
<!-- Node8 -->
<g id="Node000008" class="node">
<title>Node8</title>
<g id="a_Node000008"><a xlink:title=" ">
<polygon fill="#e0e0e0" stroke="#999999" points="470.88,-77.5 409.88,-77.5 409.88,-56.75 470.88,-56.75 470.88,-77.5"/>
<text text-anchor="middle" x="440.38" y="-64" font-family="Helvetica,sans-Serif" font-size="10.00">stdbool.h</text>
</a>
</g>
</g>
<!-- Node5&#45;&gt;Node8 -->
<g id="edge7_Node000005_Node000008" class="edge">
<title>Node5&#45;&gt;Node8</title>
<g id="a_edge7_Node000005_Node000008"><a xlink:title=" ">
<path fill="none" stroke="#63b8ff" d="M440.38,-113.09C440.38,-106.47 440.38,-97.47 440.38,-89.27"/>
<polygon fill="#63b8ff" stroke="#63b8ff" points="443.88,-89.34 440.38,-79.34 436.88,-89.34 443.88,-89.34"/>
</a>
</g>
</g>
<!-- Node9 -->
<g id="Node000009" class="node">
<title>Node9</title>
<g id="a_Node000009"><a xlink:href="architecture_8h.html" target="_top" xlink:title="Platform&#45;independent access to architecture details.">
<polygon fill="white" stroke="#666666" points="392.12,-77.5 308.62,-77.5 308.62,-56.75 392.12,-56.75 392.12,-77.5"/>
<text text-anchor="middle" x="350.38" y="-64" font-family="Helvetica,sans-Serif" font-size="10.00">architecture.h</text>
</a>
</g>
</g>
<!-- Node5&#45;&gt;Node9 -->
<g id="edge9_Node000005_Node000009" class="edge">
<title>Node5&#45;&gt;Node9</title>
<g id="a_edge9_Node000005_Node000009"><a xlink:title=" ">
<path fill="none" stroke="#63b8ff" d="M424.28,-113.09C410.85,-104.91 391.44,-93.11 375.89,-83.65"/>
<polygon fill="#63b8ff" stroke="#63b8ff" points="377.98,-80.82 367.62,-78.62 374.34,-86.8 377.98,-80.82"/>
</a>
</g>
</g>
<!-- Node13 -->
<g id="Node000013" class="node">
<title>Node13</title>
<g id="a_Node000013"><a xlink:href="drivers_2include_2periph_2gpio_8h.html" target="_top" xlink:title="Low&#45;level GPIO peripheral driver interface definitions.">
<polygon fill="white" stroke="#666666" points="941.25,-77.5 861.5,-77.5 861.5,-56.75 941.25,-56.75 941.25,-77.5"/>
<text text-anchor="middle" x="901.38" y="-64" font-family="Helvetica,sans-Serif" font-size="10.00">periph/gpio.h</text>
</a>
</g>
</g>
<!-- Node5&#45;&gt;Node13 -->
<g id="edge14_Node000005_Node000013" class="edge">
<title>Node5&#45;&gt;Node13</title>
<g id="a_edge14_Node000005_Node000013"><a xlink:title=" ">
<path fill="none" stroke="#63b8ff" d="M486.25,-119.02C560.49,-112.52 711.77,-98.2 849.85,-77.78"/>
<polygon fill="#63b8ff" stroke="#63b8ff" points="850.17,-81.27 859.54,-76.33 849.14,-74.35 850.17,-81.27"/>
</a>
</g>
</g>
<!-- Node15 -->
<g id="Node000015" class="node">
<title>Node15</title>
<g id="a_Node000015"><a xlink:title=" ">
<polygon fill="#e0e0e0" stroke="#999999" points="611.12,-77.5 527.62,-77.5 527.62,-56.75 611.12,-56.75 611.12,-77.5"/>
<text text-anchor="middle" x="569.38" y="-64" font-family="Helvetica,sans-Serif" font-size="10.00">gpio_ll_arch.h</text>
</a>
</g>
</g>
<!-- Node5&#45;&gt;Node15 -->
<g id="edge19_Node000005_Node000015" class="edge">
<title>Node5&#45;&gt;Node15</title>
<g id="a_edge19_Node000005_Node000015"><a xlink:title=" ">
<path fill="none" stroke="#63b8ff" d="M463.44,-113.09C483.62,-104.52 513.18,-91.98 535.95,-82.31"/>
<polygon fill="#63b8ff" stroke="#63b8ff" points="537.28,-85.55 545.12,-78.42 534.55,-79.1 537.28,-85.55"/>
</a>
</g>
</g>
<!-- Node6&#45;&gt;Node7 -->
<g id="edge6_Node000006_Node000007" class="edge">
<title>Node6&#45;&gt;Node7</title>
<g id="a_edge6_Node000006_Node000007"><a xlink:title=" ">
<path fill="none" stroke="#63b8ff" d="M226.7,-56.34C228.29,-49.64 230.46,-40.51 232.42,-32.23"/>
<polygon fill="#63b8ff" stroke="#63b8ff" points="235.82,-33.09 234.72,-22.55 229.01,-31.47 235.82,-33.09"/>
</a>
</g>
</g>
<!-- Node9&#45;&gt;Node7 -->
<g id="edge10_Node000009_Node000007" class="edge">
<title>Node9&#45;&gt;Node7</title>
<g id="a_edge10_Node000009_Node000007"><a xlink:title=" ">
<path fill="none" stroke="#63b8ff" d="M330.17,-56.34C312.82,-47.93 287.54,-35.68 267.75,-26.09"/>
<polygon fill="#63b8ff" stroke="#63b8ff" points="269.29,-22.95 258.76,-21.74 266.24,-29.25 269.29,-22.95"/>
</a>
</g>
</g>
<!-- Node10 -->
<g id="Node000010" class="node">
<title>Node10</title>
<g id="a_Node000010"><a xlink:href="inttypes_8h.html" target="_top" xlink:title="Adds include for missing inttype definitions.">
<polygon fill="white" stroke="#666666" points="370.75,-20.75 306,-20.75 306,0 370.75,0 370.75,-20.75"/>
<text text-anchor="middle" x="338.38" y="-7.25" font-family="Helvetica,sans-Serif" font-size="10.00">inttypes.h</text>
</a>
</g>
</g>
<!-- Node9&#45;&gt;Node10 -->
<g id="edge11_Node000009_Node000010" class="edge">
<title>Node9&#45;&gt;Node10</title>
<g id="a_edge11_Node000009_Node000010"><a xlink:title=" ">
<path fill="none" stroke="#63b8ff" d="M348.23,-56.34C346.76,-49.64 344.76,-40.51 342.95,-32.23"/>
<polygon fill="#63b8ff" stroke="#63b8ff" points="346.39,-31.58 340.83,-22.56 339.55,-33.07 346.39,-31.58"/>
</a>
</g>
</g>
<!-- Node11 -->
<g id="Node000011" class="node">
<title>Node11</title>
<g id="a_Node000011"><a xlink:title=" ">
<polygon fill="#e0e0e0" stroke="#999999" points="783.75,-20.75 731,-20.75 731,0 783.75,0 783.75,-20.75"/>
<text text-anchor="middle" x="757.38" y="-7.25" font-family="Helvetica,sans-Serif" font-size="10.00">limits.h</text>
</a>
</g>
</g>
<!-- Node9&#45;&gt;Node11 -->
<g id="edge12_Node000009_Node000011" class="edge">
<title>Node9&#45;&gt;Node11</title>
<g id="a_edge12_Node000009_Node000011"><a xlink:title=" ">
<path fill="none" stroke="#63b8ff" d="M392.36,-58.17C395.41,-57.66 398.44,-57.18 401.38,-56.75 539.36,-36.33 578.67,-46.31 719.52,-20.83"/>
<polygon fill="#63b8ff" stroke="#63b8ff" points="720.04,-24.29 729.25,-19.04 718.78,-17.41 720.04,-24.29"/>
</a>
</g>
</g>
<!-- Node12 -->
<g id="Node000012" class="node">
<title>Node12</title>
<g id="a_Node000012"><a xlink:title=" ">
<polygon fill="#e0e0e0" stroke="#999999" points="498.25,-20.75 388.5,-20.75 388.5,0 498.25,0 498.25,-20.75"/>
<text text-anchor="middle" x="443.38" y="-7.25" font-family="Helvetica,sans-Serif" font-size="10.00">architecture_arch.h</text>
</a>
</g>
</g>
<!-- Node9&#45;&gt;Node12 -->
<g id="edge13_Node000009_Node000012" class="edge">
<title>Node9&#45;&gt;Node12</title>
<g id="a_edge13_Node000009_Node000012"><a xlink:title=" ">
<path fill="none" stroke="#63b8ff" d="M367,-56.34C380.89,-48.16 400.94,-36.36 417.01,-26.9"/>
<polygon fill="#63b8ff" stroke="#63b8ff" points="418.75,-29.94 425.59,-21.85 415.19,-23.9 418.75,-29.94"/>
</a>
</g>
</g>
<!-- Node13&#45;&gt;Node3 -->
<g id="edge16_Node000013_Node000003" class="edge">
<title>Node13&#45;&gt;Node3</title>
<g id="a_edge16_Node000013_Node000003"><a xlink:title=" ">
<path fill="none" stroke="#63b8ff" d="M861.14,-56.46C822.93,-47.29 765.34,-33.46 724.02,-23.54"/>
<polygon fill="#63b8ff" stroke="#63b8ff" points="724.84,-20.13 714.3,-21.2 723.21,-26.94 724.84,-20.13"/>
</a>
</g>
</g>
<!-- Node13&#45;&gt;Node11 -->
<g id="edge15_Node000013_Node000011" class="edge">
<title>Node13&#45;&gt;Node11</title>
<g id="a_edge15_Node000013_Node000011"><a xlink:title=" ">
<path fill="none" stroke="#63b8ff" d="M875.63,-56.34C852.8,-47.66 819.2,-34.88 793.65,-25.17"/>
<polygon fill="#63b8ff" stroke="#63b8ff" points="794.9,-21.9 784.31,-21.62 792.41,-28.44 794.9,-21.9"/>
</a>
</g>
</g>
<!-- Node14 -->
<g id="Node000014" class="node">
<title>Node14</title>
<g id="a_Node000014"><a xlink:title=" ">
<polygon fill="#e0e0e0" stroke="#999999" points="883,-20.75 801.75,-20.75 801.75,0 883,0 883,-20.75"/>
<text text-anchor="middle" x="842.38" y="-7.25" font-family="Helvetica,sans-Serif" font-size="10.00">periph_conf.h</text>
</a>
</g>
</g>
<!-- Node13&#45;&gt;Node14 -->
<g id="edge17_Node000013_Node000014" class="edge">
<title>Node13&#45;&gt;Node14</title>
<g id="a_edge17_Node000013_Node000014"><a xlink:title=" ">
<path fill="none" stroke="#63b8ff" d="M890.83,-56.34C882.6,-48.71 870.98,-37.92 861.17,-28.82"/>
<polygon fill="#63b8ff" stroke="#63b8ff" points="863.65,-26.34 853.94,-22.11 858.89,-31.48 863.65,-26.34"/>
</a>
</g>
</g>
<!-- Node17 -->
<g id="Node000017" class="node">
<title>Node17</title>
<g id="a_Node000017"><a xlink:href="modules_8h.html" target="_top" xlink:title="Common macros and compiler attributes/pragmas configuration.">
<polygon fill="white" stroke="#666666" points="371.88,-134.25 304.88,-134.25 304.88,-113.5 371.88,-113.5 371.88,-134.25"/>
<text text-anchor="middle" x="338.38" y="-120.75" font-family="Helvetica,sans-Serif" font-size="10.00">modules.h</text>
</a>
</g>
</g>
<!-- Node16&#45;&gt;Node17 -->
<g id="edge21_Node000016_Node000017" class="edge">
<title>Node16&#45;&gt;Node17</title>
<g id="a_edge21_Node000016_Node000017"><a xlink:title=" ">
<path fill="none" stroke="#63b8ff" d="M256.25,-169.84C271.47,-161.51 293.57,-149.41 311.01,-139.86"/>
<polygon fill="#63b8ff" stroke="#63b8ff" points="312.23,-143.18 319.32,-135.31 308.87,-137.04 312.23,-143.18"/>
</a>
</g>
</g>
<!-- Node18 -->
<g id="Node000018" class="node">
<title>Node18</title>
<g id="a_Node000018"><a xlink:href="riot__version_8h.html" target="_top" xlink:title="Common macros and compiler attributes/pragmas configuration.">
<polygon fill="white" stroke="#666666" points="171.75,-134.25 89,-134.25 89,-113.5 171.75,-113.5 171.75,-134.25"/>
<text text-anchor="middle" x="130.38" y="-120.75" font-family="Helvetica,sans-Serif" font-size="10.00">riot_version.h</text>
</a>
</g>
</g>
<!-- Node16&#45;&gt;Node18 -->
<g id="edge22_Node000016_Node000018" class="edge">
<title>Node16&#45;&gt;Node18</title>
<g id="a_edge22_Node000016_Node000018"><a xlink:title=" ">
<path fill="none" stroke="#63b8ff" d="M219.07,-169.84C202.56,-161.47 178.54,-149.29 159.67,-139.72"/>
<polygon fill="#63b8ff" stroke="#63b8ff" points="161.37,-136.66 150.87,-135.26 158.2,-142.91 161.37,-136.66"/>
</a>
</g>
</g>
<!-- Node19 -->
<g id="Node000019" class="node">
<title>Node19</title>
<g id="a_Node000019"><a xlink:href="compiler__hints_8h.html" target="_top" xlink:title="Common macros and compiler attributes/pragmas configuration.">
<polygon fill="white" stroke="#666666" points="286.88,-134.25 189.88,-134.25 189.88,-113.5 286.88,-113.5 286.88,-134.25"/>
<text text-anchor="middle" x="238.38" y="-120.75" font-family="Helvetica,sans-Serif" font-size="10.00">compiler_hints.h</text>
</a>
</g>
</g>
<!-- Node16&#45;&gt;Node19 -->
<g id="edge24_Node000016_Node000019" class="edge">
<title>Node16&#45;&gt;Node19</title>
<g id="a_edge24_Node000016_Node000019"><a xlink:title=" ">
<path fill="none" stroke="#63b8ff" d="M238.38,-169.84C238.38,-163.22 238.38,-154.22 238.38,-146.02"/>
<polygon fill="#63b8ff" stroke="#63b8ff" points="241.88,-146.09 238.38,-136.09 234.88,-146.09 241.88,-146.09"/>
</a>
</g>
</g>
<!-- Node20 -->
<g id="Node000020" class="node">
<title>Node20</title>
<g id="a_Node000020"><a xlink:href="container_8h.html" target="_top" xlink:title="Common macros and compiler attributes/pragmas configuration.">
<polygon fill="white" stroke="#666666" points="70.75,-134.25 0,-134.25 0,-113.5 70.75,-113.5 70.75,-134.25"/>
<text text-anchor="middle" x="35.38" y="-120.75" font-family="Helvetica,sans-Serif" font-size="10.00">container.h</text>
</a>
</g>
</g>
<!-- Node16&#45;&gt;Node20 -->
<g id="edge27_Node000016_Node000020" class="edge">
<title>Node16&#45;&gt;Node20</title>
<g id="a_edge27_Node000016_Node000020"><a xlink:title=" ">
<path fill="none" stroke="#63b8ff" d="M202.08,-169.84C168.49,-160.78 118.38,-147.26 81.87,-137.42"/>
<polygon fill="#63b8ff" stroke="#63b8ff" points="83.04,-134.11 72.47,-134.88 81.22,-140.86 83.04,-134.11"/>
</a>
</g>
</g>
<!-- Node18&#45;&gt;Node7 -->
<g id="edge23_Node000018_Node000007" class="edge">
<title>Node18&#45;&gt;Node7</title>
<g id="a_edge23_Node000018_Node000007"><a xlink:title=" ">
<path fill="none" stroke="#63b8ff" d="M136.67,-113.34C145.73,-99.97 163.35,-75.22 181.38,-56.75 191.55,-46.33 204.04,-36.01 214.65,-27.85"/>
<polygon fill="#63b8ff" stroke="#63b8ff" points="216.63,-30.73 222.53,-21.93 212.43,-25.14 216.63,-30.73"/>
</a>
</g>
</g>
<!-- Node19&#45;&gt;Node6 -->
<g id="edge25_Node000019_Node000006" class="edge">
<title>Node19&#45;&gt;Node6</title>
<g id="a_edge25_Node000019_Node000006"><a xlink:title=" ">
<path fill="none" stroke="#63b8ff" d="M235.87,-113.09C234.16,-106.39 231.83,-97.26 229.71,-88.98"/>
<polygon fill="#63b8ff" stroke="#63b8ff" points="233.1,-88.12 227.23,-79.29 226.32,-89.85 233.1,-88.12"/>
</a>
</g>
</g>
<!-- Node19&#45;&gt;Node7 -->
<g id="edge26_Node000019_Node000007" class="edge">
<title>Node19&#45;&gt;Node7</title>
<g id="a_edge26_Node000019_Node000007"><a xlink:title=" ">
<path fill="none" stroke="#63b8ff" d="M221.14,-113.03C209.2,-105.14 194.27,-92.85 187.38,-77.5 179,-58.84 195.33,-40.52 211.52,-27.91"/>
<polygon fill="#63b8ff" stroke="#63b8ff" points="213.55,-30.76 219.62,-22.08 209.46,-25.08 213.55,-30.76"/>
</a>
</g>
</g>
<!-- Node20&#45;&gt;Node7 -->
<g id="edge29_Node000020_Node000007" class="edge">
<title>Node20&#45;&gt;Node7</title>
<g id="a_edge29_Node000020_Node000007"><a xlink:title=" ">
<path fill="none" stroke="#63b8ff" d="M52.95,-113.18C88.17,-93.74 167.62,-49.88 209.82,-26.58"/>
<polygon fill="#63b8ff" stroke="#63b8ff" points="211.31,-29.76 218.37,-21.86 207.93,-23.63 211.31,-29.76"/>
</a>
</g>
</g>
<!-- Node21 -->
<g id="Node000021" class="node">
<title>Node21</title>
<g id="a_Node000021"><a xlink:title=" ">
<polygon fill="#e0e0e0" stroke="#999999" points="62.88,-77.5 7.88,-77.5 7.88,-56.75 62.88,-56.75 62.88,-77.5"/>
<text text-anchor="middle" x="35.38" y="-64" font-family="Helvetica,sans-Serif" font-size="10.00">stddef.h</text>
</a>
</g>
</g>
<!-- Node20&#45;&gt;Node21 -->
<g id="edge28_Node000020_Node000021" class="edge">
<title>Node20&#45;&gt;Node21</title>
<g id="a_edge28_Node000020_Node000021"><a xlink:title=" ">
<path fill="none" stroke="#63b8ff" d="M35.38,-113.09C35.38,-106.47 35.38,-97.47 35.38,-89.27"/>
<polygon fill="#63b8ff" stroke="#63b8ff" points="38.88,-89.34 35.38,-79.34 31.88,-89.34 38.88,-89.34"/>
</a>
</g>
</g>
<!-- Node22&#45;&gt;Node13 -->
<g id="edge31_Node000022_Node000013" class="edge">
<title>Node22&#45;&gt;Node13</title>
<g id="a_edge31_Node000022_Node000013"><a xlink:title=" ">
<path fill="none" stroke="#63b8ff" d="M782.3,-113.09C805.39,-104.37 839.42,-91.52 865.19,-81.79"/>
<polygon fill="#63b8ff" stroke="#63b8ff" points="866.14,-85.17 874.26,-78.36 863.67,-78.62 866.14,-85.17"/>
</a>
</g>
</g>
<!-- Node23 -->
<g id="Node000023" class="node">
<title>Node23</title>
<g id="a_Node000023"><a xlink:href="adc_8h.html" target="_top" xlink:title="Low&#45;level ADC peripheral driver interface definitions.">
<polygon fill="white" stroke="#666666" points="843.38,-77.5 767.38,-77.5 767.38,-56.75 843.38,-56.75 843.38,-77.5"/>
<text text-anchor="middle" x="805.38" y="-64" font-family="Helvetica,sans-Serif" font-size="10.00">periph/adc.h</text>
</a>
</g>
</g>
<!-- Node22&#45;&gt;Node23 -->
<g id="edge32_Node000022_Node000023" class="edge">
<title>Node22&#45;&gt;Node23</title>
<g id="a_edge32_Node000022_Node000023"><a xlink:title=" ">
<path fill="none" stroke="#63b8ff" d="M765.14,-113.09C771.82,-105.61 781.23,-95.11 789.26,-86.13"/>
<polygon fill="#63b8ff" stroke="#63b8ff" points="791.62,-88.74 795.68,-78.96 786.4,-84.07 791.62,-88.74"/>
</a>
</g>
</g>
<!-- Node24 -->
<g id="Node000024" class="node">
<title>Node24</title>
<g id="a_Node000024"><a xlink:href="pwm_8h.html" target="_top" xlink:title="Low&#45;level PWM peripheral driver interface definitions.">
<polygon fill="white" stroke="#666666" points="749.75,-77.5 667,-77.5 667,-56.75 749.75,-56.75 749.75,-77.5"/>
<text text-anchor="middle" x="708.38" y="-64" font-family="Helvetica,sans-Serif" font-size="10.00">periph/pwm.h</text>
</a>
</g>
</g>
<!-- Node22&#45;&gt;Node24 -->
<g id="edge37_Node000022_Node000024" class="edge">
<title>Node22&#45;&gt;Node24</title>
<g id="a_edge37_Node000022_Node000024"><a xlink:title=" ">
<path fill="none" stroke="#63b8ff" d="M747.79,-113.09C741.31,-105.69 732.22,-95.32 724.4,-86.41"/>
<polygon fill="#63b8ff" stroke="#63b8ff" points="727.1,-84.18 717.88,-78.97 721.84,-88.79 727.1,-84.18"/>
</a>
</g>
</g>
<!-- Node23&#45;&gt;Node3 -->
<g id="edge35_Node000023_Node000003" class="edge">
<title>Node23&#45;&gt;Node3</title>
<g id="a_edge35_Node000023_Node000003"><a xlink:title=" ">
<path fill="none" stroke="#63b8ff" d="M781.78,-56.34C761.03,-47.73 730.6,-35.11 707.26,-25.43"/>
<polygon fill="#63b8ff" stroke="#63b8ff" points="708.75,-22.26 698.17,-21.66 706.06,-28.72 708.75,-22.26"/>
</a>
</g>
</g>
<!-- Node23&#45;&gt;Node7 -->
<g id="edge34_Node000023_Node000007" class="edge">
<title>Node23&#45;&gt;Node7</title>
<g id="a_edge34_Node000023_Node000007"><a xlink:title=" ">
<path fill="none" stroke="#63b8ff" d="M766.96,-58.08C764.06,-57.59 761.18,-57.14 758.38,-56.75 554.8,-28.6 501.5,-44.63 297.38,-20.75 290.23,-19.91 282.63,-18.86 275.32,-17.76"/>
<polygon fill="#63b8ff" stroke="#63b8ff" points="276.11,-14.34 265.69,-16.25 275.03,-21.25 276.11,-14.34"/>
</a>
</g>
</g>
<!-- Node23&#45;&gt;Node11 -->
<g id="edge33_Node000023_Node000011" class="edge">
<title>Node23&#45;&gt;Node11</title>
<g id="a_edge33_Node000023_Node000011"><a xlink:title=" ">
<path fill="none" stroke="#63b8ff" d="M796.79,-56.34C790.31,-48.94 781.22,-38.57 773.4,-29.66"/>
<polygon fill="#63b8ff" stroke="#63b8ff" points="776.1,-27.43 766.88,-22.22 770.84,-32.04 776.1,-27.43"/>
</a>
</g>
</g>
<!-- Node23&#45;&gt;Node14 -->
<g id="edge36_Node000023_Node000014" class="edge">
<title>Node23&#45;&gt;Node14</title>
<g id="a_edge36_Node000023_Node000014"><a xlink:title=" ">
<path fill="none" stroke="#63b8ff" d="M811.99,-56.34C816.83,-49.17 823.55,-39.23 829.45,-30.51"/>
<polygon fill="#63b8ff" stroke="#63b8ff" points="832.27,-32.58 834.97,-22.33 826.47,-28.66 832.27,-32.58"/>
</a>
</g>
</g>
<!-- Node24&#45;&gt;Node3 -->
<g id="edge40_Node000024_Node000003" class="edge">
<title>Node24&#45;&gt;Node3</title>
<g id="a_edge40_Node000024_Node000003"><a xlink:title=" ">
<path fill="none" stroke="#63b8ff" d="M702.12,-56.34C697.54,-49.17 691.18,-39.23 685.61,-30.51"/>
<polygon fill="#63b8ff" stroke="#63b8ff" points="688.73,-28.89 680.39,-22.35 682.83,-32.66 688.73,-28.89"/>
</a>
</g>
</g>
<!-- Node24&#45;&gt;Node7 -->
<g id="edge38_Node000024_Node000007" class="edge">
<title>Node24&#45;&gt;Node7</title>
<g id="a_edge38_Node000024_Node000007"><a xlink:title=" ">
<path fill="none" stroke="#63b8ff" d="M666.75,-61.64C569.6,-51.15 333.4,-25.55 297.38,-20.75 290.24,-19.8 282.65,-18.69 275.35,-17.57"/>
<polygon fill="#63b8ff" stroke="#63b8ff" points="276.13,-14.15 265.71,-16.07 275.05,-21.07 276.13,-14.15"/>
</a>
</g>
</g>
<!-- Node24&#45;&gt;Node11 -->
<g id="edge39_Node000024_Node000011" class="edge">
<title>Node24&#45;&gt;Node11</title>
<g id="a_edge39_Node000024_Node000011"><a xlink:title=" ">
<path fill="none" stroke="#63b8ff" d="M717.14,-56.34C723.82,-48.86 733.23,-38.36 741.26,-29.38"/>
<polygon fill="#63b8ff" stroke="#63b8ff" points="743.62,-31.99 747.68,-22.21 738.4,-27.32 743.62,-31.99"/>
</a>
</g>
</g>
<!-- Node24&#45;&gt;Node14 -->
<g id="edge41_Node000024_Node000014" class="edge">
<title>Node24&#45;&gt;Node14</title>
<g id="a_edge41_Node000024_Node000014"><a xlink:title=" ">
<path fill="none" stroke="#63b8ff" d="M732.33,-56.34C753.39,-47.73 784.28,-35.11 807.98,-25.43"/>
<polygon fill="#63b8ff" stroke="#63b8ff" points="809.29,-28.67 817.22,-21.65 806.64,-22.19 809.29,-28.67"/>
</a>
</g>
</g>
</g>
</svg>
