<?xml version="1.0" encoding="UTF-8" standalone="no"?>
<!DOCTYPE svg PUBLIC "-//W3C//DTD SVG 1.1//EN"
 "http://www.w3.org/Graphics/SVG/1.1/DTD/svg11.dtd">
<!-- Generated by graphviz version 12.1.1 (0)
 -->
<!-- Title: boards/common/particle&#45;mesh/include/board.h Pages: 1 -->
<svg width="171pt" height="98pt"
 viewBox="0.00 0.00 170.62 98.25" xmlns="http://www.w3.org/2000/svg" xmlns:xlink="http://www.w3.org/1999/xlink">
<g id="graph0" class="graph" transform="scale(1 1) rotate(0) translate(4 94.25)">
<title>boards/common/particle&#45;mesh/include/board.h</title>
<!-- Node1 -->
<g id="Node000001" class="node">
<title>Node1</title>
<g id="a_Node000001"><a xlink:title="Common board specific configuration for the Particle Mesh.">
<polygon fill="#999999" stroke="#666666" points="134.5,-90.25 0,-90.25 0,-56.75 134.5,-56.75 134.5,-90.25"/>
<text text-anchor="start" x="8" y="-76.75" font-family="Helvetica,sans-Serif" font-size="10.00">boards/common/particle</text>
<text text-anchor="middle" x="67.25" y="-64" font-family="Helvetica,sans-Serif" font-size="10.00">&#45;mesh/include/board.h</text>
</a>
</g>
</g>
<!-- Node2 -->
<g id="Node000002" class="node">
<title>Node2</title>
<g id="a_Node000002"><a xlink:title=" ">
<polygon fill="#e0e0e0" stroke="#999999" points="43.38,-20.75 1.12,-20.75 1.12,0 43.38,0 43.38,-20.75"/>
<text text-anchor="middle" x="22.25" y="-7.25" font-family="Helvetica,sans-Serif" font-size="10.00">cpu.h</text>
</a>
</g>
</g>
<!-- Node1&#45;&gt;Node2 -->
<g id="edge1_Node000001_Node000002" class="edge">
<title>Node1&#45;&gt;Node2</title>
<g id="a_edge1_Node000001_Node000002"><a xlink:title=" ">
<path fill="none" stroke="#63b8ff" d="M55.43,-56.44C49.51,-48.41 42.32,-38.63 36.14,-30.24"/>
<polygon fill="#63b8ff" stroke="#63b8ff" points="39.14,-28.41 30.39,-22.44 33.5,-32.56 39.14,-28.41"/>
</a>
</g>
</g>
<!-- Node3 -->
<g id="Node000003" class="node">
<title>Node3</title>
<g id="a_Node000003"><a xlink:title=" ">
<polygon fill="#e0e0e0" stroke="#999999" points="162.62,-20.75 61.88,-20.75 61.88,0 162.62,0 162.62,-20.75"/>
<text text-anchor="middle" x="112.25" y="-7.25" font-family="Helvetica,sans-Serif" font-size="10.00">board_common.h</text>
</a>
</g>
</g>
<!-- Node1&#45;&gt;Node3 -->
<g id="edge2_Node000001_Node000003" class="edge">
<title>Node1&#45;&gt;Node3</title>
<g id="a_edge2_Node000001_Node000003"><a xlink:title=" ">
<path fill="none" stroke="#63b8ff" d="M79.07,-56.44C84.99,-48.41 92.18,-38.63 98.36,-30.24"/>
<polygon fill="#63b8ff" stroke="#63b8ff" points="101,-32.56 104.11,-22.44 95.36,-28.41 101,-32.56"/>
</a>
</g>
</g>
</g>
</svg>
