<?xml version="1.0" encoding="UTF-8" standalone="no"?>
<!DOCTYPE svg PUBLIC "-//W3C//DTD SVG 1.1//EN"
 "http://www.w3.org/Graphics/SVG/1.1/DTD/svg11.dtd">
<!-- Generated by graphviz version 12.1.1 (0)
 -->
<!-- Title: boards/common/slwstk6000b/include/gpio_params.h Pages: 1 -->
<svg width="989pt" height="269pt"
 viewBox="0.00 0.00 988.62 268.50" xmlns="http://www.w3.org/2000/svg" xmlns:xlink="http://www.w3.org/1999/xlink">
<g id="graph0" class="graph" transform="scale(1 1) rotate(0) translate(4 264.5)">
<title>boards/common/slwstk6000b/include/gpio_params.h</title>
<!-- Node1 -->
<g id="Node000001" class="node">
<title>Node1</title>
<g id="a_Node000001"><a xlink:title="Board specific configuration of direct mapped GPIOs.">
<polygon fill="#999999" stroke="#666666" points="454.75,-260.5 295.5,-260.5 295.5,-227 454.75,-227 454.75,-260.5"/>
<text text-anchor="start" x="303.5" y="-247" font-family="Helvetica,sans-Serif" font-size="10.00">boards/common/slwstk6000b</text>
<text text-anchor="middle" x="375.12" y="-234.25" font-family="Helvetica,sans-Serif" font-size="10.00">/include/gpio_params.h</text>
</a>
</g>
</g>
<!-- Node2 -->
<g id="Node000002" class="node">
<title>Node2</title>
<g id="a_Node000002"><a xlink:href="common_2slwstk6000b_2include_2board_8h.html" target="_top" xlink:title="Board specific definitions for the SLWSTK6000B starter kit.">
<polygon fill="white" stroke="#666666" points="374.5,-191 321.75,-191 321.75,-170.25 374.5,-170.25 374.5,-191"/>
<text text-anchor="middle" x="348.12" y="-177.5" font-family="Helvetica,sans-Serif" font-size="10.00">board.h</text>
</a>
</g>
</g>
<!-- Node1&#45;&gt;Node2 -->
<g id="edge1_Node000001_Node000002" class="edge">
<title>Node1&#45;&gt;Node2</title>
<g id="a_edge1_Node000001_Node000002"><a xlink:title=" ">
<path fill="none" stroke="#63b8ff" d="M368.03,-226.69C364.68,-219.09 360.63,-209.94 357.07,-201.87"/>
<polygon fill="#63b8ff" stroke="#63b8ff" points="360.33,-200.58 353.08,-192.85 353.92,-203.41 360.33,-200.58"/>
</a>
</g>
</g>
<!-- Node18 -->
<g id="Node000018" class="node">
<title>Node18</title>
<g id="a_Node000018"><a xlink:href="periph_8h.html" target="_top" xlink:title="Parameter definitions for mapping peripherals directly to SAUL.">
<polygon fill="white" stroke="#666666" points="474.62,-134.25 395.62,-134.25 395.62,-113.5 474.62,-113.5 474.62,-134.25"/>
<text text-anchor="middle" x="435.12" y="-120.75" font-family="Helvetica,sans-Serif" font-size="10.00">saul/periph.h</text>
</a>
</g>
</g>
<!-- Node1&#45;&gt;Node18 -->
<g id="edge27_Node000001_Node000018" class="edge">
<title>Node1&#45;&gt;Node18</title>
<g id="a_edge27_Node000001_Node000018"><a xlink:title=" ">
<path fill="none" stroke="#63b8ff" d="M383.22,-226.85C394.05,-205.58 413.25,-167.84 425.02,-144.72"/>
<polygon fill="#63b8ff" stroke="#63b8ff" points="428.03,-146.53 429.45,-136.03 421.79,-143.36 428.03,-146.53"/>
</a>
</g>
</g>
<!-- Node3 -->
<g id="Node000003" class="node">
<title>Node3</title>
<g id="a_Node000003"><a xlink:title=" ">
<polygon fill="#e0e0e0" stroke="#999999" points="42.25,-77.5 0,-77.5 0,-56.75 42.25,-56.75 42.25,-77.5"/>
<text text-anchor="middle" x="21.12" y="-64" font-family="Helvetica,sans-Serif" font-size="10.00">cpu.h</text>
</a>
</g>
</g>
<!-- Node2&#45;&gt;Node3 -->
<g id="edge2_Node000002_Node000003" class="edge">
<title>Node2&#45;&gt;Node3</title>
<g id="a_edge2_Node000002_Node000003"><a xlink:title=" ">
<path fill="none" stroke="#63b8ff" d="M321.42,-177.27C262.49,-171.72 123.3,-156.6 82.12,-134.25 61.41,-123 43.91,-102.03 33.05,-86.71"/>
<polygon fill="#63b8ff" stroke="#63b8ff" points="36.24,-85.19 27.74,-78.87 30.45,-89.12 36.24,-85.19"/>
</a>
</g>
</g>
<!-- Node4 -->
<g id="Node000004" class="node">
<title>Node4</title>
<g id="a_Node000004"><a xlink:href="boards_2common_2slwstk6000b_2include_2periph__conf_8h.html" target="_top" xlink:title="Configuration of CPU peripherals for the SLWSTK6000B starter kit.">
<polygon fill="white" stroke="#666666" points="172.75,-134.25 91.5,-134.25 91.5,-113.5 172.75,-113.5 172.75,-134.25"/>
<text text-anchor="middle" x="132.12" y="-120.75" font-family="Helvetica,sans-Serif" font-size="10.00">periph_conf.h</text>
</a>
</g>
</g>
<!-- Node2&#45;&gt;Node4 -->
<g id="edge3_Node000002_Node000004" class="edge">
<title>Node2&#45;&gt;Node4</title>
<g id="a_edge3_Node000002_Node000004"><a xlink:title=" ">
<path fill="none" stroke="#63b8ff" d="M321.64,-172.91C286.92,-164.11 225.34,-148.5 181.81,-137.47"/>
<polygon fill="#63b8ff" stroke="#63b8ff" points="182.9,-134.14 172.35,-135.07 181.18,-140.92 182.9,-134.14"/>
</a>
</g>
</g>
<!-- Node8 -->
<g id="Node000008" class="node">
<title>Node8</title>
<g id="a_Node000008"><a xlink:href="adc_8h.html" target="_top" xlink:title="Low&#45;level ADC peripheral driver interface definitions.">
<polygon fill="white" stroke="#666666" points="372.12,-77.5 296.12,-77.5 296.12,-56.75 372.12,-56.75 372.12,-77.5"/>
<text text-anchor="middle" x="334.12" y="-64" font-family="Helvetica,sans-Serif" font-size="10.00">periph/adc.h</text>
</a>
</g>
</g>
<!-- Node2&#45;&gt;Node8 -->
<g id="edge8_Node000002_Node000008" class="edge">
<title>Node2&#45;&gt;Node8</title>
<g id="a_edge8_Node000002_Node000008"><a xlink:title=" ">
<path fill="none" stroke="#63b8ff" d="M346.93,-170.12C344.69,-152.27 339.8,-113.36 336.76,-89.09"/>
<polygon fill="#63b8ff" stroke="#63b8ff" points="340.26,-88.91 335.54,-79.43 333.32,-89.79 340.26,-88.91"/>
</a>
</g>
</g>
<!-- Node12 -->
<g id="Node000012" class="node">
<title>Node12</title>
<g id="a_Node000012"><a xlink:href="drivers_2include_2periph_2gpio_8h.html" target="_top" xlink:title="Low&#45;level GPIO peripheral driver interface definitions.">
<polygon fill="white" stroke="#666666" points="470,-77.5 390.25,-77.5 390.25,-56.75 470,-56.75 470,-77.5"/>
<text text-anchor="middle" x="430.12" y="-64" font-family="Helvetica,sans-Serif" font-size="10.00">periph/gpio.h</text>
</a>
</g>
</g>
<!-- Node2&#45;&gt;Node12 -->
<g id="edge13_Node000002_Node000012" class="edge">
<title>Node2&#45;&gt;Node12</title>
<g id="a_edge13_Node000002_Node000012"><a xlink:title=" ">
<path fill="none" stroke="#63b8ff" d="M353.03,-169.78C359.87,-156.46 373.01,-132.23 387.12,-113.5 394.42,-103.82 403.52,-93.96 411.48,-85.91"/>
<polygon fill="#63b8ff" stroke="#63b8ff" points="413.78,-88.56 418.44,-79.05 408.86,-83.58 413.78,-88.56"/>
</a>
</g>
</g>
<!-- Node13 -->
<g id="Node000013" class="node">
<title>Node13</title>
<g id="a_Node000013"><a xlink:href="spi_8h.html" target="_top" xlink:title="Low&#45;level SPI peripheral driver interface definition.">
<polygon fill="white" stroke="#666666" points="710.62,-134.25 637.62,-134.25 637.62,-113.5 710.62,-113.5 710.62,-134.25"/>
<text text-anchor="middle" x="674.12" y="-120.75" font-family="Helvetica,sans-Serif" font-size="10.00">periph/spi.h</text>
</a>
</g>
</g>
<!-- Node2&#45;&gt;Node13 -->
<g id="edge17_Node000002_Node000013" class="edge">
<title>Node2&#45;&gt;Node13</title>
<g id="a_edge17_Node000002_Node000013"><a xlink:title=" ">
<path fill="none" stroke="#63b8ff" d="M374.8,-175.14C429.83,-165.9 556.59,-144.62 626.2,-132.92"/>
<polygon fill="#63b8ff" stroke="#63b8ff" points="626.49,-136.42 635.78,-131.32 625.33,-129.52 626.49,-136.42"/>
</a>
</g>
</g>
<!-- Node4&#45;&gt;Node3 -->
<g id="edge4_Node000004_Node000003" class="edge">
<title>Node4&#45;&gt;Node3</title>
<g id="a_edge4_Node000004_Node000003"><a xlink:title=" ">
<path fill="none" stroke="#63b8ff" d="M112.28,-113.09C95.23,-104.68 70.4,-92.43 50.96,-82.84"/>
<polygon fill="#63b8ff" stroke="#63b8ff" points="52.67,-79.78 42.16,-78.5 49.58,-86.06 52.67,-79.78"/>
</a>
</g>
</g>
<!-- Node5 -->
<g id="Node000005" class="node">
<title>Node5</title>
<g id="a_Node000005"><a xlink:title=" ">
<polygon fill="#e0e0e0" stroke="#999999" points="397.25,-20.75 319,-20.75 319,0 397.25,0 397.25,-20.75"/>
<text text-anchor="middle" x="358.12" y="-7.25" font-family="Helvetica,sans-Serif" font-size="10.00">periph_cpu.h</text>
</a>
</g>
</g>
<!-- Node4&#45;&gt;Node5 -->
<g id="edge5_Node000004_Node000005" class="edge">
<title>Node4&#45;&gt;Node5</title>
<g id="a_edge5_Node000004_Node000005"><a xlink:title=" ">
<path fill="none" stroke="#63b8ff" d="M117.9,-113.16C100.02,-99.78 73.48,-75.26 89.12,-56.75 116.53,-24.33 237.47,-15.07 307.5,-12.42"/>
<polygon fill="#63b8ff" stroke="#63b8ff" points="307.31,-15.93 317.19,-12.09 307.07,-8.94 307.31,-15.93"/>
</a>
</g>
</g>
<!-- Node6 -->
<g id="Node000006" class="node">
<title>Node6</title>
<g id="a_Node000006"><a xlink:title=" ">
<polygon fill="#e0e0e0" stroke="#999999" points="165.62,-77.5 98.62,-77.5 98.62,-56.75 165.62,-56.75 165.62,-77.5"/>
<text text-anchor="middle" x="132.12" y="-64" font-family="Helvetica,sans-Serif" font-size="10.00">em_cmu.h</text>
</a>
</g>
</g>
<!-- Node4&#45;&gt;Node6 -->
<g id="edge6_Node000004_Node000006" class="edge">
<title>Node4&#45;&gt;Node6</title>
<g id="a_edge6_Node000004_Node000006"><a xlink:title=" ">
<path fill="none" stroke="#63b8ff" d="M132.12,-113.09C132.12,-106.47 132.12,-97.47 132.12,-89.27"/>
<polygon fill="#63b8ff" stroke="#63b8ff" points="135.63,-89.34 132.13,-79.34 128.63,-89.34 135.63,-89.34"/>
</a>
</g>
</g>
<!-- Node7 -->
<g id="Node000007" class="node">
<title>Node7</title>
<g id="a_Node000007"><a xlink:title=" ">
<polygon fill="#e0e0e0" stroke="#999999" points="278.5,-77.5 183.75,-77.5 183.75,-56.75 278.5,-56.75 278.5,-77.5"/>
<text text-anchor="middle" x="231.12" y="-64" font-family="Helvetica,sans-Serif" font-size="10.00">board_module.h</text>
</a>
</g>
</g>
<!-- Node4&#45;&gt;Node7 -->
<g id="edge7_Node000004_Node000007" class="edge">
<title>Node4&#45;&gt;Node7</title>
<g id="a_edge7_Node000004_Node000007"><a xlink:title=" ">
<path fill="none" stroke="#63b8ff" d="M149.82,-113.09C164.75,-104.83 186.36,-92.88 203.55,-83.38"/>
<polygon fill="#63b8ff" stroke="#63b8ff" points="205.2,-86.46 212.25,-78.56 201.81,-80.34 205.2,-86.46"/>
</a>
</g>
</g>
<!-- Node8&#45;&gt;Node5 -->
<g id="edge11_Node000008_Node000005" class="edge">
<title>Node8&#45;&gt;Node5</title>
<g id="a_edge11_Node000008_Node000005"><a xlink:title=" ">
<path fill="none" stroke="#63b8ff" d="M338.42,-56.34C341.45,-49.41 345.63,-39.87 349.36,-31.36"/>
<polygon fill="#63b8ff" stroke="#63b8ff" points="352.45,-33.03 353.26,-22.46 346.04,-30.22 352.45,-33.03"/>
</a>
</g>
</g>
<!-- Node9 -->
<g id="Node000009" class="node">
<title>Node9</title>
<g id="a_Node000009"><a xlink:title=" ">
<polygon fill="#e0e0e0" stroke="#999999" points="468.5,-20.75 415.75,-20.75 415.75,0 468.5,0 468.5,-20.75"/>
<text text-anchor="middle" x="442.12" y="-7.25" font-family="Helvetica,sans-Serif" font-size="10.00">limits.h</text>
</a>
</g>
</g>
<!-- Node8&#45;&gt;Node9 -->
<g id="edge9_Node000008_Node000009" class="edge">
<title>Node8&#45;&gt;Node9</title>
<g id="a_edge9_Node000008_Node000009"><a xlink:title=" ">
<path fill="none" stroke="#63b8ff" d="M353.43,-56.34C369.94,-47.97 393.96,-35.79 412.83,-26.22"/>
<polygon fill="#63b8ff" stroke="#63b8ff" points="414.3,-29.41 421.63,-21.76 411.13,-23.16 414.3,-29.41"/>
</a>
</g>
</g>
<!-- Node10 -->
<g id="Node000010" class="node">
<title>Node10</title>
<g id="a_Node000010"><a xlink:title=" ">
<polygon fill="#e0e0e0" stroke="#999999" points="688.5,-20.75 635.75,-20.75 635.75,0 688.5,0 688.5,-20.75"/>
<text text-anchor="middle" x="662.12" y="-7.25" font-family="Helvetica,sans-Serif" font-size="10.00">stdint.h</text>
</a>
</g>
</g>
<!-- Node8&#45;&gt;Node10 -->
<g id="edge10_Node000008_Node000010" class="edge">
<title>Node8&#45;&gt;Node10</title>
<g id="a_edge10_Node000008_Node000010"><a xlink:title=" ">
<path fill="none" stroke="#63b8ff" d="M372.58,-58.34C375.47,-57.79 378.34,-57.25 381.12,-56.75 404.68,-52.5 553.49,-28.7 624.5,-17.37"/>
<polygon fill="#63b8ff" stroke="#63b8ff" points="624.78,-20.87 634.11,-15.84 623.68,-13.96 624.78,-20.87"/>
</a>
</g>
</g>
<!-- Node11 -->
<g id="Node000011" class="node">
<title>Node11</title>
<g id="a_Node000011"><a xlink:title=" ">
<polygon fill="#e0e0e0" stroke="#999999" points="593.75,-20.75 512.5,-20.75 512.5,0 593.75,0 593.75,-20.75"/>
<text text-anchor="middle" x="553.12" y="-7.25" font-family="Helvetica,sans-Serif" font-size="10.00">periph_conf.h</text>
</a>
</g>
</g>
<!-- Node8&#45;&gt;Node11 -->
<g id="edge12_Node000008_Node000011" class="edge">
<title>Node8&#45;&gt;Node11</title>
<g id="a_edge12_Node000008_Node000011"><a xlink:title=" ">
<path fill="none" stroke="#63b8ff" d="M372.52,-56.53C408.66,-47.49 463.01,-33.9 502.64,-24"/>
<polygon fill="#63b8ff" stroke="#63b8ff" points="503.34,-27.43 512.19,-21.61 501.64,-20.64 503.34,-27.43"/>
</a>
</g>
</g>
<!-- Node12&#45;&gt;Node5 -->
<g id="edge15_Node000012_Node000005" class="edge">
<title>Node12&#45;&gt;Node5</title>
<g id="a_edge15_Node000012_Node000005"><a xlink:title=" ">
<path fill="none" stroke="#63b8ff" d="M417.25,-56.34C406.91,-48.47 392.16,-37.25 379.97,-27.99"/>
<polygon fill="#63b8ff" stroke="#63b8ff" points="382.17,-25.26 372.09,-21.99 377.93,-30.83 382.17,-25.26"/>
</a>
</g>
</g>
<!-- Node12&#45;&gt;Node9 -->
<g id="edge14_Node000012_Node000009" class="edge">
<title>Node12&#45;&gt;Node9</title>
<g id="a_edge14_Node000012_Node000009"><a xlink:title=" ">
<path fill="none" stroke="#63b8ff" d="M432.27,-56.34C433.74,-49.64 435.74,-40.51 437.55,-32.23"/>
<polygon fill="#63b8ff" stroke="#63b8ff" points="440.95,-33.07 439.67,-22.56 434.11,-31.58 440.95,-33.07"/>
</a>
</g>
</g>
<!-- Node12&#45;&gt;Node11 -->
<g id="edge16_Node000012_Node000011" class="edge">
<title>Node12&#45;&gt;Node11</title>
<g id="a_edge16_Node000012_Node000011"><a xlink:title=" ">
<path fill="none" stroke="#63b8ff" d="M452.11,-56.34C471.27,-47.81 499.29,-35.34 520.96,-25.69"/>
<polygon fill="#63b8ff" stroke="#63b8ff" points="522.23,-28.96 529.94,-21.69 519.38,-22.56 522.23,-28.96"/>
</a>
</g>
</g>
<!-- Node13&#45;&gt;Node5 -->
<g id="edge24_Node000013_Node000005" class="edge">
<title>Node13&#45;&gt;Node5</title>
<g id="a_edge24_Node000013_Node000005"><a xlink:title=" ">
<path fill="none" stroke="#63b8ff" d="M637.19,-114.62C604.87,-106.84 557,-93.92 517.12,-77.5 499.33,-70.17 496.62,-64.76 479.12,-56.75 452.89,-44.74 422.47,-33.34 398.69,-24.97"/>
<polygon fill="#63b8ff" stroke="#63b8ff" points="399.96,-21.71 389.37,-21.73 397.67,-28.32 399.96,-21.71"/>
</a>
</g>
</g>
<!-- Node13&#45;&gt;Node10 -->
<g id="edge23_Node000013_Node000010" class="edge">
<title>Node13&#45;&gt;Node10</title>
<g id="a_edge23_Node000013_Node000010"><a xlink:title=" ">
<path fill="none" stroke="#63b8ff" d="M673.1,-113.37C671.18,-95.52 666.99,-56.61 664.38,-32.34"/>
<polygon fill="#63b8ff" stroke="#63b8ff" points="667.89,-32.25 663.34,-22.68 660.93,-33 667.89,-32.25"/>
</a>
</g>
</g>
<!-- Node13&#45;&gt;Node11 -->
<g id="edge25_Node000013_Node000011" class="edge">
<title>Node13&#45;&gt;Node11</title>
<g id="a_edge25_Node000013_Node000011"><a xlink:title=" ">
<path fill="none" stroke="#63b8ff" d="M667.03,-113.26C656.84,-99.78 637.08,-74.9 617.12,-56.75 605.32,-46.01 590.91,-35.6 578.75,-27.46"/>
<polygon fill="#63b8ff" stroke="#63b8ff" points="580.73,-24.57 570.45,-22.03 576.9,-30.43 580.73,-24.57"/>
</a>
</g>
</g>
<!-- Node13&#45;&gt;Node12 -->
<g id="edge26_Node000013_Node000012" class="edge">
<title>Node13&#45;&gt;Node12</title>
<g id="a_edge26_Node000013_Node000012"><a xlink:title=" ">
<path fill="none" stroke="#63b8ff" d="M637.33,-114.62C595.88,-105.32 528.23,-90.14 481.56,-79.67"/>
<polygon fill="#63b8ff" stroke="#63b8ff" points="482.47,-76.28 471.95,-77.51 480.94,-83.11 482.47,-76.28"/>
</a>
</g>
</g>
<!-- Node14 -->
<g id="Node000014" class="node">
<title>Node14</title>
<g id="a_Node000014"><a xlink:href="endian_8h.html" target="_top" xlink:title="libc header for endian conversion">
<polygon fill="white" stroke="#666666" points="760.12,-77.5 702.12,-77.5 702.12,-56.75 760.12,-56.75 760.12,-77.5"/>
<text text-anchor="middle" x="731.12" y="-64" font-family="Helvetica,sans-Serif" font-size="10.00">endian.h</text>
</a>
</g>
</g>
<!-- Node13&#45;&gt;Node14 -->
<g id="edge18_Node000013_Node000014" class="edge">
<title>Node13&#45;&gt;Node14</title>
<g id="a_edge18_Node000013_Node000014"><a xlink:title=" ">
<path fill="none" stroke="#63b8ff" d="M684.32,-113.09C692.26,-105.46 703.49,-94.67 712.96,-85.57"/>
<polygon fill="#63b8ff" stroke="#63b8ff" points="715.14,-88.33 719.93,-78.88 710.29,-83.28 715.14,-88.33"/>
</a>
</g>
</g>
<!-- Node15 -->
<g id="Node000015" class="node">
<title>Node15</title>
<g id="a_Node000015"><a xlink:href="errno_8h.html" target="_top" xlink:title=" ">
<polygon fill="white" stroke="#666666" points="828.38,-77.5 777.88,-77.5 777.88,-56.75 828.38,-56.75 828.38,-77.5"/>
<text text-anchor="middle" x="803.12" y="-64" font-family="Helvetica,sans-Serif" font-size="10.00">errno.h</text>
</a>
</g>
</g>
<!-- Node13&#45;&gt;Node15 -->
<g id="edge20_Node000013_Node000015" class="edge">
<title>Node13&#45;&gt;Node15</title>
<g id="a_edge20_Node000013_Node000015"><a xlink:title=" ">
<path fill="none" stroke="#63b8ff" d="M697.19,-113.09C717.37,-104.52 746.93,-91.98 769.7,-82.31"/>
<polygon fill="#63b8ff" stroke="#63b8ff" points="771.03,-85.55 778.87,-78.42 768.3,-79.1 771.03,-85.55"/>
</a>
</g>
</g>
<!-- Node16 -->
<g id="Node000016" class="node">
<title>Node16</title>
<g id="a_Node000016"><a xlink:title=" ">
<polygon fill="#e0e0e0" stroke="#999999" points="907.62,-77.5 846.62,-77.5 846.62,-56.75 907.62,-56.75 907.62,-77.5"/>
<text text-anchor="middle" x="877.12" y="-64" font-family="Helvetica,sans-Serif" font-size="10.00">stdbool.h</text>
</a>
</g>
</g>
<!-- Node13&#45;&gt;Node16 -->
<g id="edge21_Node000013_Node000016" class="edge">
<title>Node13&#45;&gt;Node16</title>
<g id="a_edge21_Node000013_Node000016"><a xlink:title=" ">
<path fill="none" stroke="#63b8ff" d="M710.42,-113.09C745.45,-103.64 798.47,-89.34 835.27,-79.41"/>
<polygon fill="#63b8ff" stroke="#63b8ff" points="835.92,-82.86 844.67,-76.88 834.1,-76.1 835.92,-82.86"/>
</a>
</g>
</g>
<!-- Node17 -->
<g id="Node000017" class="node">
<title>Node17</title>
<g id="a_Node000017"><a xlink:title=" ">
<polygon fill="#e0e0e0" stroke="#999999" points="980.62,-77.5 925.62,-77.5 925.62,-56.75 980.62,-56.75 980.62,-77.5"/>
<text text-anchor="middle" x="953.12" y="-64" font-family="Helvetica,sans-Serif" font-size="10.00">stddef.h</text>
</a>
</g>
</g>
<!-- Node13&#45;&gt;Node17 -->
<g id="edge22_Node000013_Node000017" class="edge">
<title>Node13&#45;&gt;Node17</title>
<g id="a_edge22_Node000013_Node000017"><a xlink:title=" ">
<path fill="none" stroke="#63b8ff" d="M710.93,-116.83C756.53,-109.16 836.82,-95.07 914.35,-78.01"/>
<polygon fill="#63b8ff" stroke="#63b8ff" points="914.78,-81.5 923.79,-75.91 913.27,-74.67 914.78,-81.5"/>
</a>
</g>
</g>
<!-- Node14&#45;&gt;Node10 -->
<g id="edge19_Node000014_Node000010" class="edge">
<title>Node14&#45;&gt;Node10</title>
<g id="a_edge19_Node000014_Node000010"><a xlink:title=" ">
<path fill="none" stroke="#63b8ff" d="M718.79,-56.34C708.88,-48.47 694.74,-37.25 683.06,-27.99"/>
<polygon fill="#63b8ff" stroke="#63b8ff" points="685.55,-25.49 675.54,-22.02 681.2,-30.98 685.55,-25.49"/>
</a>
</g>
</g>
<!-- Node18&#45;&gt;Node8 -->
<g id="edge29_Node000018_Node000008" class="edge">
<title>Node18&#45;&gt;Node8</title>
<g id="a_edge29_Node000018_Node000008"><a xlink:title=" ">
<path fill="none" stroke="#63b8ff" d="M417.07,-113.09C401.7,-104.76 379.38,-92.66 361.77,-83.11"/>
<polygon fill="#63b8ff" stroke="#63b8ff" points="363.82,-80.24 353.36,-78.55 360.48,-86.39 363.82,-80.24"/>
</a>
</g>
</g>
<!-- Node18&#45;&gt;Node12 -->
<g id="edge28_Node000018_Node000012" class="edge">
<title>Node18&#45;&gt;Node12</title>
<g id="a_edge28_Node000018_Node000012"><a xlink:title=" ">
<path fill="none" stroke="#63b8ff" d="M434.23,-113.09C433.63,-106.47 432.81,-97.47 432.06,-89.27"/>
<polygon fill="#63b8ff" stroke="#63b8ff" points="435.54,-88.98 431.15,-79.34 428.57,-89.61 435.54,-88.98"/>
</a>
</g>
</g>
<!-- Node19 -->
<g id="Node000019" class="node">
<title>Node19</title>
<g id="a_Node000019"><a xlink:href="pwm_8h.html" target="_top" xlink:title="Low&#45;level PWM peripheral driver interface definitions.">
<polygon fill="white" stroke="#666666" points="608.5,-77.5 525.75,-77.5 525.75,-56.75 608.5,-56.75 608.5,-77.5"/>
<text text-anchor="middle" x="567.12" y="-64" font-family="Helvetica,sans-Serif" font-size="10.00">periph/pwm.h</text>
</a>
</g>
</g>
<!-- Node18&#45;&gt;Node19 -->
<g id="edge30_Node000018_Node000019" class="edge">
<title>Node18&#45;&gt;Node19</title>
<g id="a_edge30_Node000018_Node000019"><a xlink:title=" ">
<path fill="none" stroke="#63b8ff" d="M458.72,-113.09C479.47,-104.48 509.9,-91.86 533.24,-82.18"/>
<polygon fill="#63b8ff" stroke="#63b8ff" points="534.44,-85.47 542.33,-78.41 531.75,-79.01 534.44,-85.47"/>
</a>
</g>
</g>
<!-- Node19&#45;&gt;Node5 -->
<g id="edge33_Node000019_Node000005" class="edge">
<title>Node19&#45;&gt;Node5</title>
<g id="a_edge33_Node000019_Node000005"><a xlink:title=" ">
<path fill="none" stroke="#63b8ff" d="M529.76,-56.34C495.24,-47.29 443.78,-33.81 406.21,-23.97"/>
<polygon fill="#63b8ff" stroke="#63b8ff" points="407.54,-20.7 396.98,-21.55 405.77,-27.47 407.54,-20.7"/>
</a>
</g>
</g>
<!-- Node19&#45;&gt;Node9 -->
<g id="edge32_Node000019_Node000009" class="edge">
<title>Node19&#45;&gt;Node9</title>
<g id="a_edge32_Node000019_Node000009"><a xlink:title=" ">
<path fill="none" stroke="#63b8ff" d="M544.78,-56.34C525.31,-47.81 496.84,-35.34 474.82,-25.69"/>
<polygon fill="#63b8ff" stroke="#63b8ff" points="476.23,-22.49 465.67,-21.69 473.42,-28.9 476.23,-22.49"/>
</a>
</g>
</g>
<!-- Node19&#45;&gt;Node10 -->
<g id="edge31_Node000019_Node000010" class="edge">
<title>Node19&#45;&gt;Node10</title>
<g id="a_edge31_Node000019_Node000010"><a xlink:title=" ">
<path fill="none" stroke="#63b8ff" d="M584.11,-56.34C598.43,-48.08 619.17,-36.13 635.66,-26.63"/>
<polygon fill="#63b8ff" stroke="#63b8ff" points="637.06,-29.86 643.98,-21.83 633.56,-23.8 637.06,-29.86"/>
</a>
</g>
</g>
<!-- Node19&#45;&gt;Node11 -->
<g id="edge34_Node000019_Node000011" class="edge">
<title>Node19&#45;&gt;Node11</title>
<g id="a_edge34_Node000019_Node000011"><a xlink:title=" ">
<path fill="none" stroke="#63b8ff" d="M564.62,-56.34C562.91,-49.64 560.58,-40.51 558.46,-32.23"/>
<polygon fill="#63b8ff" stroke="#63b8ff" points="561.85,-31.37 555.98,-22.54 555.07,-33.1 561.85,-31.37"/>
</a>
</g>
</g>
</g>
</svg>
