<?xml version="1.0" encoding="UTF-8" standalone="no"?>
<!DOCTYPE svg PUBLIC "-//W3C//DTD SVG 1.1//EN"
 "http://www.w3.org/Graphics/SVG/1.1/DTD/svg11.dtd">
<!-- Generated by graphviz version 12.1.1 (0)
 -->
<!-- Title: boards/common/silabs/include/arduino_iomap.h Pages: 1 -->
<svg width="360pt" height="155pt"
 viewBox="0.00 0.00 360.00 155.00" xmlns="http://www.w3.org/2000/svg" xmlns:xlink="http://www.w3.org/1999/xlink">
<g id="graph0" class="graph" transform="scale(1 1) rotate(0) translate(4 151)">
<title>boards/common/silabs/include/arduino_iomap.h</title>
<!-- Node1 -->
<g id="Node000001" class="node">
<title>Node1</title>
<g id="a_Node000001"><a xlink:title="SiLabs Boards configuration for the Arduino API.">
<polygon fill="#999999" stroke="#666666" points="149.88,-147 10.88,-147 10.88,-113.5 149.88,-113.5 149.88,-147"/>
<text text-anchor="start" x="18.88" y="-133.5" font-family="Helvetica,sans-Serif" font-size="10.00">boards/common/silabs</text>
<text text-anchor="middle" x="80.38" y="-120.75" font-family="Helvetica,sans-Serif" font-size="10.00">/include/arduino_iomap.h</text>
</a>
</g>
</g>
<!-- Node2 -->
<g id="Node000002" class="node">
<title>Node2</title>
<g id="a_Node000002"><a xlink:title=" ">
<polygon fill="#e0e0e0" stroke="#999999" points="52.75,-77.5 0,-77.5 0,-56.75 52.75,-56.75 52.75,-77.5"/>
<text text-anchor="middle" x="26.38" y="-64" font-family="Helvetica,sans-Serif" font-size="10.00">board.h</text>
</a>
</g>
</g>
<!-- Node1&#45;&gt;Node2 -->
<g id="edge1_Node000001_Node000002" class="edge">
<title>Node1&#45;&gt;Node2</title>
<g id="a_edge1_Node000001_Node000002"><a xlink:title=" ">
<path fill="none" stroke="#63b8ff" d="M66.19,-113.19C58.94,-104.98 50.08,-94.96 42.56,-86.45"/>
<polygon fill="#63b8ff" stroke="#63b8ff" points="45.32,-84.28 36.07,-79.1 40.07,-88.91 45.32,-84.28"/>
</a>
</g>
</g>
<!-- Node3 -->
<g id="Node000003" class="node">
<title>Node3</title>
<g id="a_Node000003"><a xlink:title=" ">
<polygon fill="#e0e0e0" stroke="#999999" points="110.5,-20.75 32.25,-20.75 32.25,0 110.5,0 110.5,-20.75"/>
<text text-anchor="middle" x="71.38" y="-7.25" font-family="Helvetica,sans-Serif" font-size="10.00">periph_cpu.h</text>
</a>
</g>
</g>
<!-- Node1&#45;&gt;Node3 -->
<g id="edge2_Node000001_Node000003" class="edge">
<title>Node1&#45;&gt;Node3</title>
<g id="a_edge2_Node000001_Node000003"><a xlink:title=" ">
<path fill="none" stroke="#63b8ff" d="M79.16,-113.35C77.57,-92.46 74.76,-55.71 72.99,-32.5"/>
<polygon fill="#63b8ff" stroke="#63b8ff" points="76.49,-32.4 72.24,-22.69 69.51,-32.93 76.49,-32.4"/>
</a>
</g>
</g>
<!-- Node4 -->
<g id="Node000004" class="node">
<title>Node4</title>
<g id="a_Node000004"><a xlink:href="adc_8h.html" target="_top" xlink:title="Low&#45;level ADC peripheral driver interface definitions.">
<polygon fill="white" stroke="#666666" points="193.38,-77.5 117.38,-77.5 117.38,-56.75 193.38,-56.75 193.38,-77.5"/>
<text text-anchor="middle" x="155.38" y="-64" font-family="Helvetica,sans-Serif" font-size="10.00">periph/adc.h</text>
</a>
</g>
</g>
<!-- Node1&#45;&gt;Node4 -->
<g id="edge3_Node000001_Node000004" class="edge">
<title>Node1&#45;&gt;Node4</title>
<g id="a_edge3_Node000001_Node000004"><a xlink:title=" ">
<path fill="none" stroke="#63b8ff" d="M100.08,-113.19C110.69,-104.55 123.77,-93.88 134.54,-85.1"/>
<polygon fill="#63b8ff" stroke="#63b8ff" points="136.59,-87.95 142.13,-78.92 132.16,-82.53 136.59,-87.95"/>
</a>
</g>
</g>
<!-- Node4&#45;&gt;Node3 -->
<g id="edge6_Node000004_Node000003" class="edge">
<title>Node4&#45;&gt;Node3</title>
<g id="a_edge6_Node000004_Node000003"><a xlink:title=" ">
<path fill="none" stroke="#63b8ff" d="M140.36,-56.34C127.93,-48.24 110.05,-36.58 95.6,-27.17"/>
<polygon fill="#63b8ff" stroke="#63b8ff" points="97.82,-24.43 87.53,-21.9 94,-30.3 97.82,-24.43"/>
</a>
</g>
</g>
<!-- Node5 -->
<g id="Node000005" class="node">
<title>Node5</title>
<g id="a_Node000005"><a xlink:title=" ">
<polygon fill="#e0e0e0" stroke="#999999" points="181.75,-20.75 129,-20.75 129,0 181.75,0 181.75,-20.75"/>
<text text-anchor="middle" x="155.38" y="-7.25" font-family="Helvetica,sans-Serif" font-size="10.00">limits.h</text>
</a>
</g>
</g>
<!-- Node4&#45;&gt;Node5 -->
<g id="edge4_Node000004_Node000005" class="edge">
<title>Node4&#45;&gt;Node5</title>
<g id="a_edge4_Node000004_Node000005"><a xlink:title=" ">
<path fill="none" stroke="#63b8ff" d="M155.38,-56.34C155.38,-49.72 155.38,-40.72 155.38,-32.52"/>
<polygon fill="#63b8ff" stroke="#63b8ff" points="158.88,-32.59 155.38,-22.59 151.88,-32.59 158.88,-32.59"/>
</a>
</g>
</g>
<!-- Node6 -->
<g id="Node000006" class="node">
<title>Node6</title>
<g id="a_Node000006"><a xlink:title=" ">
<polygon fill="#e0e0e0" stroke="#999999" points="252.75,-20.75 200,-20.75 200,0 252.75,0 252.75,-20.75"/>
<text text-anchor="middle" x="226.38" y="-7.25" font-family="Helvetica,sans-Serif" font-size="10.00">stdint.h</text>
</a>
</g>
</g>
<!-- Node4&#45;&gt;Node6 -->
<g id="edge5_Node000004_Node000006" class="edge">
<title>Node4&#45;&gt;Node6</title>
<g id="a_edge5_Node000004_Node000006"><a xlink:title=" ">
<path fill="none" stroke="#63b8ff" d="M168.07,-56.34C178.27,-48.47 192.82,-37.25 204.83,-27.99"/>
<polygon fill="#63b8ff" stroke="#63b8ff" points="206.81,-30.88 212.59,-22 202.54,-25.34 206.81,-30.88"/>
</a>
</g>
</g>
<!-- Node7 -->
<g id="Node000007" class="node">
<title>Node7</title>
<g id="a_Node000007"><a xlink:title=" ">
<polygon fill="#e0e0e0" stroke="#999999" points="352,-20.75 270.75,-20.75 270.75,0 352,0 352,-20.75"/>
<text text-anchor="middle" x="311.38" y="-7.25" font-family="Helvetica,sans-Serif" font-size="10.00">periph_conf.h</text>
</a>
</g>
</g>
<!-- Node4&#45;&gt;Node7 -->
<g id="edge7_Node000004_Node000007" class="edge">
<title>Node4&#45;&gt;Node7</title>
<g id="a_edge7_Node000004_Node000007"><a xlink:title=" ">
<path fill="none" stroke="#63b8ff" d="M183.26,-56.34C208.25,-47.57 245.15,-34.62 272.93,-24.87"/>
<polygon fill="#63b8ff" stroke="#63b8ff" points="273.76,-28.29 282.04,-21.67 271.44,-21.68 273.76,-28.29"/>
</a>
</g>
</g>
</g>
</svg>
