<?xml version="1.0" encoding="UTF-8" standalone="no"?>
<!DOCTYPE svg PUBLIC "-//W3C//DTD SVG 1.1//EN"
 "http://www.w3.org/Graphics/SVG/1.1/DTD/svg11.dtd">
<!-- Generated by graphviz version 12.1.1 (0)
 -->
<!-- Title: core/lib/include/compiler_hints.h Pages: 1 -->
<svg width="144pt" height="155pt"
 viewBox="0.00 0.00 144.00 155.00" xmlns="http://www.w3.org/2000/svg" xmlns:xlink="http://www.w3.org/1999/xlink">
<g id="graph0" class="graph" transform="scale(1 1) rotate(0) translate(4 151)">
<title>core/lib/include/compiler_hints.h</title>
<!-- Node1 -->
<g id="Node000001" class="node">
<title>Node1</title>
<g id="a_Node000001"><a xlink:title="Common macros and compiler attributes/pragmas configuration.">
<polygon fill="#999999" stroke="#666666" points="136,-147 0,-147 0,-113.5 136,-113.5 136,-147"/>
<text text-anchor="start" x="8" y="-133.5" font-family="Helvetica,sans-Serif" font-size="10.00">core/lib/include/compiler</text>
<text text-anchor="middle" x="68" y="-120.75" font-family="Helvetica,sans-Serif" font-size="10.00">_hints.h</text>
</a>
</g>
</g>
<!-- Node2 -->
<g id="Node000002" class="node">
<title>Node2</title>
<g id="a_Node000002"><a xlink:href="assert_8h.html" target="_top" xlink:title="POSIX.1&#45;2008 compliant version of the assert macro.">
<polygon fill="white" stroke="#666666" points="67.5,-77.5 12.5,-77.5 12.5,-56.75 67.5,-56.75 67.5,-77.5"/>
<text text-anchor="middle" x="40" y="-64" font-family="Helvetica,sans-Serif" font-size="10.00">assert.h</text>
</a>
</g>
</g>
<!-- Node1&#45;&gt;Node2 -->
<g id="edge1_Node000001_Node000002" class="edge">
<title>Node1&#45;&gt;Node2</title>
<g id="a_edge1_Node000001_Node000002"><a xlink:title=" ">
<path fill="none" stroke="#63b8ff" d="M60.64,-113.19C57.16,-105.59 52.97,-96.44 49.27,-88.37"/>
<polygon fill="#63b8ff" stroke="#63b8ff" points="52.49,-86.98 45.14,-79.34 46.12,-89.89 52.49,-86.98"/>
</a>
</g>
</g>
<!-- Node3 -->
<g id="Node000003" class="node">
<title>Node3</title>
<g id="a_Node000003"><a xlink:title=" ">
<polygon fill="#e0e0e0" stroke="#999999" points="94.38,-20.75 41.62,-20.75 41.62,0 94.38,0 94.38,-20.75"/>
<text text-anchor="middle" x="68" y="-7.25" font-family="Helvetica,sans-Serif" font-size="10.00">stdint.h</text>
</a>
</g>
</g>
<!-- Node1&#45;&gt;Node3 -->
<g id="edge3_Node000001_Node000003" class="edge">
<title>Node1&#45;&gt;Node3</title>
<g id="a_edge3_Node000001_Node000003"><a xlink:title=" ">
<path fill="none" stroke="#63b8ff" d="M72.06,-113.15C75.26,-98.48 78.91,-76.19 77,-56.75 76.21,-48.66 74.63,-39.88 73.02,-32.22"/>
<polygon fill="#63b8ff" stroke="#63b8ff" points="76.45,-31.48 70.82,-22.51 69.62,-33.03 76.45,-31.48"/>
</a>
</g>
</g>
<!-- Node2&#45;&gt;Node3 -->
<g id="edge2_Node000002_Node000003" class="edge">
<title>Node2&#45;&gt;Node3</title>
<g id="a_edge2_Node000002_Node000003"><a xlink:title=" ">
<path fill="none" stroke="#63b8ff" d="M45.01,-56.34C48.59,-49.33 53.54,-39.66 57.92,-31.08"/>
<polygon fill="#63b8ff" stroke="#63b8ff" points="60.91,-32.92 62.35,-22.43 54.68,-29.74 60.91,-32.92"/>
</a>
</g>
</g>
</g>
</svg>
