<?xml version="1.0" encoding="UTF-8" standalone="no"?>
<!DOCTYPE svg PUBLIC "-//W3C//DTD SVG 1.1//EN"
 "http://www.w3.org/Graphics/SVG/1.1/DTD/svg11.dtd">
<!-- Generated by graphviz version 12.1.1 (0)
 -->
<!-- Title: sys/include/ztimer/convert_frac.h Pages: 1 -->
<svg width="1097pt" height="666pt"
 viewBox="0.00 0.00 1096.62 665.75" xmlns="http://www.w3.org/2000/svg" xmlns:xlink="http://www.w3.org/1999/xlink">
<g id="graph0" class="graph" transform="scale(1 1) rotate(0) translate(4 661.75)">
<title>sys/include/ztimer/convert_frac.h</title>
<!-- Node1 -->
<g id="Node000001" class="node">
<title>Node1</title>
<g id="a_Node000001"><a xlink:title="ztimer_convert_frac interface definitions">
<polygon fill="#999999" stroke="#666666" points="1070.62,-657.75 965.38,-657.75 965.38,-624.25 1070.62,-624.25 1070.62,-657.75"/>
<text text-anchor="start" x="973.38" y="-644.25" font-family="Helvetica,sans-Serif" font-size="10.00">sys/include/ztimer</text>
<text text-anchor="middle" x="1018" y="-631.5" font-family="Helvetica,sans-Serif" font-size="10.00">/convert_frac.h</text>
</a>
</g>
</g>
<!-- Node1&#45;&gt;Node1 -->
<g id="edge54_Node000001_Node000001" class="edge">
<title>Node1&#45;&gt;Node1</title>
<g id="a_edge54_Node000001_Node000001"><a xlink:title=" ">
<path fill="none" stroke="#63b8ff" d="M1070.98,-652.31C1081.3,-651 1088.62,-647.23 1088.62,-641 1088.62,-637.3 1086.04,-634.47 1081.78,-632.51"/>
<polygon fill="#63b8ff" stroke="#63b8ff" points="1083,-629.21 1072.44,-630.07 1081.23,-635.98 1083,-629.21"/>
</a>
</g>
</g>
<!-- Node2 -->
<g id="Node000002" class="node">
<title>Node2</title>
<g id="a_Node000002"><a xlink:title=" ">
<polygon fill="#e0e0e0" stroke="#999999" points="571.38,-20.75 518.62,-20.75 518.62,0 571.38,0 571.38,-20.75"/>
<text text-anchor="middle" x="545" y="-7.25" font-family="Helvetica,sans-Serif" font-size="10.00">stdint.h</text>
</a>
</g>
</g>
<!-- Node1&#45;&gt;Node2 -->
<g id="edge1_Node000001_Node000002" class="edge">
<title>Node1&#45;&gt;Node2</title>
<g id="a_edge1_Node000001_Node000002"><a xlink:title=" ">
<path fill="none" stroke="#63b8ff" d="M1035.06,-623.8C1055.49,-602.56 1087,-563.15 1087,-522.12 1087,-522.12 1087,-522.12 1087,-122.88 1087,-19.79 706.11,-11.18 582.93,-11.09"/>
<polygon fill="#63b8ff" stroke="#63b8ff" points="583.02,-7.59 573.02,-11.11 583.03,-14.59 583.02,-7.59"/>
</a>
</g>
</g>
<!-- Node3 -->
<g id="Node000003" class="node">
<title>Node3</title>
<g id="a_Node000003"><a xlink:href="ztimer_8h.html" target="_top" xlink:title="ztimer API">
<polygon fill="white" stroke="#666666" points="951.25,-531.5 894.75,-531.5 894.75,-510.75 951.25,-510.75 951.25,-531.5"/>
<text text-anchor="middle" x="923" y="-518" font-family="Helvetica,sans-Serif" font-size="10.00">ztimer.h</text>
</a>
</g>
</g>
<!-- Node1&#45;&gt;Node3 -->
<g id="edge2_Node000001_Node000003" class="edge">
<title>Node1&#45;&gt;Node3</title>
<g id="a_edge2_Node000001_Node000003"><a xlink:title=" ">
<path fill="none" stroke="#63b8ff" d="M1011.85,-623.87C1005.43,-608.37 994.3,-584.81 980,-567.5 970.87,-556.45 958.66,-546.29 947.87,-538.4"/>
<polygon fill="#63b8ff" stroke="#63b8ff" points="949.94,-535.58 939.75,-532.7 945.92,-541.31 949.94,-535.58"/>
</a>
</g>
</g>
<!-- Node29 -->
<g id="Node000029" class="node">
<title>Node29</title>
<g id="a_Node000029"><a xlink:href="convert_8h.html" target="_top" xlink:title="ztimer frequency conversion base module">
<polygon fill="white" stroke="#666666" points="971.12,-588.25 874.88,-588.25 874.88,-567.5 971.12,-567.5 971.12,-588.25"/>
<text text-anchor="middle" x="923" y="-574.75" font-family="Helvetica,sans-Serif" font-size="10.00">ztimer/convert.h</text>
</a>
</g>
</g>
<!-- Node1&#45;&gt;Node29 -->
<g id="edge52_Node000001_Node000029" class="edge">
<title>Node1&#45;&gt;Node29</title>
<g id="a_edge52_Node000001_Node000029"><a xlink:title=" ">
<path fill="none" stroke="#63b8ff" d="M993.04,-623.94C979.06,-614.95 961.69,-603.77 947.75,-594.8"/>
<polygon fill="#63b8ff" stroke="#63b8ff" points="949.87,-592 939.57,-589.54 946.08,-597.89 949.87,-592"/>
</a>
</g>
</g>
<!-- Node30 -->
<g id="Node000030" class="node">
<title>Node30</title>
<g id="a_Node000030"><a xlink:href="frac_8h.html" target="_top" xlink:title=" ">
<polygon fill="white" stroke="#666666" points="1058.88,-531.5 1015.12,-531.5 1015.12,-510.75 1058.88,-510.75 1058.88,-531.5"/>
<text text-anchor="middle" x="1037" y="-518" font-family="Helvetica,sans-Serif" font-size="10.00">frac.h</text>
</a>
</g>
</g>
<!-- Node1&#45;&gt;Node30 -->
<g id="edge55_Node000001_Node000030" class="edge">
<title>Node1&#45;&gt;Node30</title>
<g id="a_edge55_Node000001_Node000030"><a xlink:title=" ">
<path fill="none" stroke="#63b8ff" d="M1020.56,-624.1C1023.93,-603.21 1029.85,-566.46 1033.6,-543.25"/>
<polygon fill="#63b8ff" stroke="#63b8ff" points="1037.04,-543.86 1035.18,-533.43 1030.13,-542.74 1037.04,-543.86"/>
</a>
</g>
</g>
<!-- Node3&#45;&gt;Node2 -->
<g id="edge3_Node000003_Node000002" class="edge">
<title>Node3&#45;&gt;Node2</title>
<g id="a_edge3_Node000003_Node000002"><a xlink:title=" ">
<path fill="none" stroke="#63b8ff" d="M894.36,-519.75C738.57,-517.34 0,-501.03 0,-408.62 0,-408.62 0,-408.62 0,-122.88 0,-19.25 382.99,-11 506.86,-11.05"/>
<polygon fill="#63b8ff" stroke="#63b8ff" points="506.82,-14.55 516.83,-11.07 506.84,-7.55 506.82,-14.55"/>
</a>
</g>
</g>
<!-- Node4 -->
<g id="Node000004" class="node">
<title>Node4</title>
<g id="a_Node000004"><a xlink:href="sched_8h.html" target="_top" xlink:title="Scheduler API definition.">
<polygon fill="white" stroke="#666666" points="797.75,-247.75 744.25,-247.75 744.25,-227 797.75,-227 797.75,-247.75"/>
<text text-anchor="middle" x="771" y="-234.25" font-family="Helvetica,sans-Serif" font-size="10.00">sched.h</text>
</a>
</g>
</g>
<!-- Node3&#45;&gt;Node4 -->
<g id="edge4_Node000003_Node000004" class="edge">
<title>Node3&#45;&gt;Node4</title>
<g id="a_edge4_Node000003_Node000004"><a xlink:title=" ">
<path fill="none" stroke="#63b8ff" d="M929.2,-510.55C944.98,-486.15 985.51,-423.18 987,-418 989.55,-409.14 991.16,-405.48 987,-397.25 949.41,-322.95 858.9,-274.91 807.77,-252.71"/>
<polygon fill="#63b8ff" stroke="#63b8ff" points="809.15,-249.5 798.58,-248.83 806.43,-255.95 809.15,-249.5"/>
</a>
</g>
</g>
<!-- Node17 -->
<g id="Node000017" class="node">
<title>Node17</title>
<g id="a_Node000017"><a xlink:title=" ">
<polygon fill="#e0e0e0" stroke="#999999" points="1021,-474.75 975,-474.75 975,-454 1021,-454 1021,-474.75"/>
<text text-anchor="middle" x="998" y="-461.25" font-family="Helvetica,sans-Serif" font-size="10.00">msg.h</text>
</a>
</g>
</g>
<!-- Node3&#45;&gt;Node17 -->
<g id="edge23_Node000003_Node000017" class="edge">
<title>Node3&#45;&gt;Node17</title>
<g id="a_edge23_Node000003_Node000017"><a xlink:title=" ">
<path fill="none" stroke="#63b8ff" d="M936.41,-510.34C947.29,-502.4 962.86,-491.03 975.62,-481.71"/>
<polygon fill="#63b8ff" stroke="#63b8ff" points="977.47,-484.69 983.49,-475.97 973.34,-479.04 977.47,-484.69"/>
</a>
</g>
</g>
<!-- Node18 -->
<g id="Node000018" class="node">
<title>Node18</title>
<g id="a_Node000018"><a xlink:href="mutex_8h.html" target="_top" xlink:title="Mutex for thread synchronization.">
<polygon fill="white" stroke="#666666" points="674.25,-418 617.75,-418 617.75,-397.25 674.25,-397.25 674.25,-418"/>
<text text-anchor="middle" x="646" y="-404.5" font-family="Helvetica,sans-Serif" font-size="10.00">mutex.h</text>
</a>
</g>
</g>
<!-- Node3&#45;&gt;Node18 -->
<g id="edge24_Node000003_Node000018" class="edge">
<title>Node3&#45;&gt;Node18</title>
<g id="a_edge24_Node000003_Node000018"><a xlink:title=" ">
<path fill="none" stroke="#63b8ff" d="M898.9,-510.43C849.79,-490.66 737.95,-445.64 680.89,-422.67"/>
<polygon fill="#63b8ff" stroke="#63b8ff" points="682.23,-419.43 671.64,-418.95 679.61,-425.93 682.23,-419.43"/>
</a>
</g>
</g>
<!-- Node28 -->
<g id="Node000028" class="node">
<title>Node28</title>
<g id="a_Node000028"><a xlink:href="rmutex_8h.html" target="_top" xlink:title="Recursive Mutex for thread synchronization.">
<polygon fill="white" stroke="#666666" points="885.12,-474.75 824.88,-474.75 824.88,-454 885.12,-454 885.12,-474.75"/>
<text text-anchor="middle" x="855" y="-461.25" font-family="Helvetica,sans-Serif" font-size="10.00">rmutex.h</text>
</a>
</g>
</g>
<!-- Node3&#45;&gt;Node28 -->
<g id="edge48_Node000003_Node000028" class="edge">
<title>Node3&#45;&gt;Node28</title>
<g id="a_edge48_Node000003_Node000028"><a xlink:title=" ">
<path fill="none" stroke="#63b8ff" d="M910.84,-510.34C901.17,-502.55 887.42,-491.47 875.98,-482.26"/>
<polygon fill="#63b8ff" stroke="#63b8ff" points="878.21,-479.57 868.23,-476.03 873.82,-485.03 878.21,-479.57"/>
</a>
</g>
</g>
<!-- Node5 -->
<g id="Node000005" class="node">
<title>Node5</title>
<g id="a_Node000005"><a xlink:title=" ">
<polygon fill="#e0e0e0" stroke="#999999" points="842.5,-77.5 787.5,-77.5 787.5,-56.75 842.5,-56.75 842.5,-77.5"/>
<text text-anchor="middle" x="815" y="-64" font-family="Helvetica,sans-Serif" font-size="10.00">stddef.h</text>
</a>
</g>
</g>
<!-- Node4&#45;&gt;Node5 -->
<g id="edge5_Node000004_Node000005" class="edge">
<title>Node4&#45;&gt;Node5</title>
<g id="a_edge5_Node000004_Node000005"><a xlink:title=" ">
<path fill="none" stroke="#63b8ff" d="M773.49,-226.85C780.42,-200.37 800.01,-125.43 809.59,-88.8"/>
<polygon fill="#63b8ff" stroke="#63b8ff" points="812.9,-89.99 812.04,-79.43 806.13,-88.22 812.9,-89.99"/>
</a>
</g>
</g>
<!-- Node6 -->
<g id="Node000006" class="node">
<title>Node6</title>
<g id="a_Node000006"><a xlink:href="inttypes_8h.html" target="_top" xlink:title="Adds include for missing inttype definitions.">
<polygon fill="white" stroke="#666666" points="404.38,-191 339.62,-191 339.62,-170.25 404.38,-170.25 404.38,-191"/>
<text text-anchor="middle" x="372" y="-177.5" font-family="Helvetica,sans-Serif" font-size="10.00">inttypes.h</text>
</a>
</g>
</g>
<!-- Node4&#45;&gt;Node6 -->
<g id="edge6_Node000004_Node000006" class="edge">
<title>Node4&#45;&gt;Node6</title>
<g id="a_edge6_Node000004_Node000006"><a xlink:title=" ">
<path fill="none" stroke="#63b8ff" d="M743.97,-228.89C740.95,-228.19 737.92,-227.54 735,-227 597.43,-201.51 557.6,-214 415.79,-191.1"/>
<polygon fill="#63b8ff" stroke="#63b8ff" points="416.42,-187.66 405.98,-189.49 415.28,-194.57 416.42,-187.66"/>
</a>
</g>
</g>
<!-- Node7 -->
<g id="Node000007" class="node">
<title>Node7</title>
<g id="a_Node000007"><a xlink:href="kernel__defines_8h.html" target="_top" xlink:title="Common macros and compiler attributes/pragmas configuration.">
<polygon fill="white" stroke="#666666" points="519.12,-191 422.88,-191 422.88,-170.25 519.12,-170.25 519.12,-191"/>
<text text-anchor="middle" x="471" y="-177.5" font-family="Helvetica,sans-Serif" font-size="10.00">kernel_defines.h</text>
</a>
</g>
</g>
<!-- Node4&#45;&gt;Node7 -->
<g id="edge7_Node000004_Node000007" class="edge">
<title>Node4&#45;&gt;Node7</title>
<g id="a_edge7_Node000004_Node000007"><a xlink:title=" ">
<path fill="none" stroke="#63b8ff" d="M743.93,-229.06C740.93,-228.33 737.9,-227.63 735,-227 665.33,-211.97 584.46,-198.67 530.77,-190.42"/>
<polygon fill="#63b8ff" stroke="#63b8ff" points="531.32,-186.96 520.91,-188.92 530.26,-193.88 531.32,-186.96"/>
</a>
</g>
</g>
<!-- Node13 -->
<g id="Node000013" class="node">
<title>Node13</title>
<g id="a_Node000013"><a xlink:href="native__sched_8h.html" target="_top" xlink:title="Add definitions required on the native board.">
<polygon fill="white" stroke="#666666" points="766.75,-191 677.25,-191 677.25,-170.25 766.75,-170.25 766.75,-191"/>
<text text-anchor="middle" x="722" y="-177.5" font-family="Helvetica,sans-Serif" font-size="10.00">native_sched.h</text>
</a>
</g>
</g>
<!-- Node4&#45;&gt;Node13 -->
<g id="edge18_Node000004_Node000013" class="edge">
<title>Node4&#45;&gt;Node13</title>
<g id="a_edge18_Node000004_Node000013"><a xlink:title=" ">
<path fill="none" stroke="#63b8ff" d="M762.24,-226.59C755.55,-219.11 746.15,-208.61 738.11,-199.63"/>
<polygon fill="#63b8ff" stroke="#63b8ff" points="740.97,-197.57 731.69,-192.46 735.75,-202.24 740.97,-197.57"/>
</a>
</g>
</g>
<!-- Node14 -->
<g id="Node000014" class="node">
<title>Node14</title>
<g id="a_Node000014"><a xlink:href="clist_8h.html" target="_top" xlink:title="Circular linked list.">
<polygon fill="white" stroke="#666666" points="868.62,-191 823.38,-191 823.38,-170.25 868.62,-170.25 868.62,-191"/>
<text text-anchor="middle" x="846" y="-177.5" font-family="Helvetica,sans-Serif" font-size="10.00">clist.h</text>
</a>
</g>
</g>
<!-- Node4&#45;&gt;Node14 -->
<g id="edge19_Node000004_Node000014" class="edge">
<title>Node4&#45;&gt;Node14</title>
<g id="a_edge19_Node000004_Node000014"><a xlink:title=" ">
<path fill="none" stroke="#63b8ff" d="M784.41,-226.59C795.29,-218.65 810.86,-207.28 823.62,-197.96"/>
<polygon fill="#63b8ff" stroke="#63b8ff" points="825.47,-200.94 831.49,-192.22 821.34,-195.29 825.47,-200.94"/>
</a>
</g>
</g>
<!-- Node8 -->
<g id="Node000008" class="node">
<title>Node8</title>
<g id="a_Node000008"><a xlink:href="modules_8h.html" target="_top" xlink:title="Common macros and compiler attributes/pragmas configuration.">
<polygon fill="white" stroke="#666666" points="522.5,-134.25 455.5,-134.25 455.5,-113.5 522.5,-113.5 522.5,-134.25"/>
<text text-anchor="middle" x="489" y="-120.75" font-family="Helvetica,sans-Serif" font-size="10.00">modules.h</text>
</a>
</g>
</g>
<!-- Node7&#45;&gt;Node8 -->
<g id="edge8_Node000007_Node000008" class="edge">
<title>Node7&#45;&gt;Node8</title>
<g id="a_edge8_Node000007_Node000008"><a xlink:title=" ">
<path fill="none" stroke="#63b8ff" d="M474.22,-169.84C476.44,-163.06 479.49,-153.8 482.24,-145.44"/>
<polygon fill="#63b8ff" stroke="#63b8ff" points="485.54,-146.61 485.34,-136.02 478.89,-144.42 485.54,-146.61"/>
</a>
</g>
</g>
<!-- Node9 -->
<g id="Node000009" class="node">
<title>Node9</title>
<g id="a_Node000009"><a xlink:href="riot__version_8h.html" target="_top" xlink:title="Common macros and compiler attributes/pragmas configuration.">
<polygon fill="white" stroke="#666666" points="586.38,-77.5 503.62,-77.5 503.62,-56.75 586.38,-56.75 586.38,-77.5"/>
<text text-anchor="middle" x="545" y="-64" font-family="Helvetica,sans-Serif" font-size="10.00">riot_version.h</text>
</a>
</g>
</g>
<!-- Node7&#45;&gt;Node9 -->
<g id="edge9_Node000007_Node000009" class="edge">
<title>Node7&#45;&gt;Node9</title>
<g id="a_edge9_Node000007_Node000009"><a xlink:title=" ">
<path fill="none" stroke="#63b8ff" d="M490.47,-169.79C503.93,-161.98 521.13,-149.79 531,-134.25 539.58,-120.75 542.99,-102.89 544.3,-89.13"/>
<polygon fill="#63b8ff" stroke="#63b8ff" points="547.78,-89.6 544.92,-79.4 540.8,-89.16 547.78,-89.6"/>
</a>
</g>
</g>
<!-- Node10 -->
<g id="Node000010" class="node">
<title>Node10</title>
<g id="a_Node000010"><a xlink:href="compiler__hints_8h.html" target="_top" xlink:title="Common macros and compiler attributes/pragmas configuration.">
<polygon fill="white" stroke="#666666" points="437.5,-134.25 340.5,-134.25 340.5,-113.5 437.5,-113.5 437.5,-134.25"/>
<text text-anchor="middle" x="389" y="-120.75" font-family="Helvetica,sans-Serif" font-size="10.00">compiler_hints.h</text>
</a>
</g>
</g>
<!-- Node7&#45;&gt;Node10 -->
<g id="edge11_Node000007_Node000010" class="edge">
<title>Node7&#45;&gt;Node10</title>
<g id="a_edge11_Node000007_Node000010"><a xlink:title=" ">
<path fill="none" stroke="#63b8ff" d="M456.34,-169.84C444.33,-161.82 427.09,-150.31 413.06,-140.94"/>
<polygon fill="#63b8ff" stroke="#63b8ff" points="415.05,-138.06 404.79,-135.42 411.16,-143.88 415.05,-138.06"/>
</a>
</g>
</g>
<!-- Node12 -->
<g id="Node000012" class="node">
<title>Node12</title>
<g id="a_Node000012"><a xlink:href="container_8h.html" target="_top" xlink:title="Common macros and compiler attributes/pragmas configuration.">
<polygon fill="white" stroke="#666666" points="649.38,-134.25 578.62,-134.25 578.62,-113.5 649.38,-113.5 649.38,-134.25"/>
<text text-anchor="middle" x="614" y="-120.75" font-family="Helvetica,sans-Serif" font-size="10.00">container.h</text>
</a>
</g>
</g>
<!-- Node7&#45;&gt;Node12 -->
<g id="edge15_Node000007_Node000012" class="edge">
<title>Node7&#45;&gt;Node12</title>
<g id="a_edge15_Node000007_Node000012"><a xlink:title=" ">
<path fill="none" stroke="#63b8ff" d="M496.57,-169.84C519.24,-161.16 552.6,-148.38 577.98,-138.67"/>
<polygon fill="#63b8ff" stroke="#63b8ff" points="579.15,-141.96 587.24,-135.12 576.65,-135.43 579.15,-141.96"/>
</a>
</g>
</g>
<!-- Node9&#45;&gt;Node2 -->
<g id="edge10_Node000009_Node000002" class="edge">
<title>Node9&#45;&gt;Node2</title>
<g id="a_edge10_Node000009_Node000002"><a xlink:title=" ">
<path fill="none" stroke="#63b8ff" d="M545,-56.34C545,-49.72 545,-40.72 545,-32.52"/>
<polygon fill="#63b8ff" stroke="#63b8ff" points="548.5,-32.59 545,-22.59 541.5,-32.59 548.5,-32.59"/>
</a>
</g>
</g>
<!-- Node10&#45;&gt;Node2 -->
<g id="edge14_Node000010_Node000002" class="edge">
<title>Node10&#45;&gt;Node2</title>
<g id="a_edge14_Node000010_Node000002"><a xlink:title=" ">
<path fill="none" stroke="#63b8ff" d="M402.57,-113.18C429.31,-94.06 489.06,-51.36 522.04,-27.79"/>
<polygon fill="#63b8ff" stroke="#63b8ff" points="524.02,-30.67 530.12,-22.01 519.95,-24.98 524.02,-30.67"/>
</a>
</g>
</g>
<!-- Node11 -->
<g id="Node000011" class="node">
<title>Node11</title>
<g id="a_Node000011"><a xlink:href="assert_8h.html" target="_top" xlink:title="POSIX.1&#45;2008 compliant version of the assert macro.">
<polygon fill="white" stroke="#666666" points="416.5,-77.5 361.5,-77.5 361.5,-56.75 416.5,-56.75 416.5,-77.5"/>
<text text-anchor="middle" x="389" y="-64" font-family="Helvetica,sans-Serif" font-size="10.00">assert.h</text>
</a>
</g>
</g>
<!-- Node10&#45;&gt;Node11 -->
<g id="edge12_Node000010_Node000011" class="edge">
<title>Node10&#45;&gt;Node11</title>
<g id="a_edge12_Node000010_Node000011"><a xlink:title=" ">
<path fill="none" stroke="#63b8ff" d="M389,-113.09C389,-106.47 389,-97.47 389,-89.27"/>
<polygon fill="#63b8ff" stroke="#63b8ff" points="392.5,-89.34 389,-79.34 385.5,-89.34 392.5,-89.34"/>
</a>
</g>
</g>
<!-- Node11&#45;&gt;Node2 -->
<g id="edge13_Node000011_Node000002" class="edge">
<title>Node11&#45;&gt;Node2</title>
<g id="a_edge13_Node000011_Node000002"><a xlink:title=" ">
<path fill="none" stroke="#63b8ff" d="M416.89,-56.34C442.19,-47.46 479.69,-34.3 507.58,-24.51"/>
<polygon fill="#63b8ff" stroke="#63b8ff" points="508.43,-27.92 516.71,-21.31 506.11,-21.31 508.43,-27.92"/>
</a>
</g>
</g>
<!-- Node12&#45;&gt;Node2 -->
<g id="edge17_Node000012_Node000002" class="edge">
<title>Node12&#45;&gt;Node2</title>
<g id="a_edge17_Node000012_Node000002"><a xlink:title=" ">
<path fill="none" stroke="#63b8ff" d="M612.91,-113.23C611.03,-99.72 606.24,-74.8 595,-56.75 588.12,-45.7 577.81,-35.71 568.33,-27.92"/>
<polygon fill="#63b8ff" stroke="#63b8ff" points="570.54,-25.21 560.49,-21.85 566.25,-30.74 570.54,-25.21"/>
</a>
</g>
</g>
<!-- Node12&#45;&gt;Node5 -->
<g id="edge16_Node000012_Node000005" class="edge">
<title>Node12&#45;&gt;Node5</title>
<g id="a_edge16_Node000012_Node000005"><a xlink:title=" ">
<path fill="none" stroke="#63b8ff" d="M649.47,-113.21C685.02,-103.53 739.58,-88.67 776.24,-78.68"/>
<polygon fill="#63b8ff" stroke="#63b8ff" points="776.81,-82.15 785.54,-76.15 774.97,-75.4 776.81,-82.15"/>
</a>
</g>
</g>
<!-- Node14&#45;&gt;Node5 -->
<g id="edge21_Node000014_Node000005" class="edge">
<title>Node14&#45;&gt;Node5</title>
<g id="a_edge21_Node000014_Node000005"><a xlink:title=" ">
<path fill="none" stroke="#63b8ff" d="M843.36,-170.12C838.37,-152.19 827.48,-113 820.74,-88.76"/>
<polygon fill="#63b8ff" stroke="#63b8ff" points="824.18,-88.08 818.13,-79.38 817.44,-89.96 824.18,-88.08"/>
</a>
</g>
</g>
<!-- Node15 -->
<g id="Node000015" class="node">
<title>Node15</title>
<g id="a_Node000015"><a xlink:title=" ">
<polygon fill="#e0e0e0" stroke="#999999" points="766.5,-134.25 705.5,-134.25 705.5,-113.5 766.5,-113.5 766.5,-134.25"/>
<text text-anchor="middle" x="736" y="-120.75" font-family="Helvetica,sans-Serif" font-size="10.00">stdbool.h</text>
</a>
</g>
</g>
<!-- Node14&#45;&gt;Node15 -->
<g id="edge20_Node000014_Node000015" class="edge">
<title>Node14&#45;&gt;Node15</title>
<g id="a_edge20_Node000014_Node000015"><a xlink:title=" ">
<path fill="none" stroke="#63b8ff" d="M826.33,-169.84C809.44,-161.43 784.83,-149.18 765.57,-139.59"/>
<polygon fill="#63b8ff" stroke="#63b8ff" points="767.36,-136.58 756.85,-135.25 764.24,-142.84 767.36,-136.58"/>
</a>
</g>
</g>
<!-- Node16 -->
<g id="Node000016" class="node">
<title>Node16</title>
<g id="a_Node000016"><a xlink:href="list_8h.html" target="_top" xlink:title="Intrusive linked list.">
<polygon fill="white" stroke="#666666" points="906,-134.25 866,-134.25 866,-113.5 906,-113.5 906,-134.25"/>
<text text-anchor="middle" x="886" y="-120.75" font-family="Helvetica,sans-Serif" font-size="10.00">list.h</text>
</a>
</g>
</g>
<!-- Node14&#45;&gt;Node16 -->
<g id="edge22_Node000014_Node000016" class="edge">
<title>Node14&#45;&gt;Node16</title>
<g id="a_edge22_Node000014_Node000016"><a xlink:title=" ">
<path fill="none" stroke="#63b8ff" d="M853.15,-169.84C858.44,-162.6 865.81,-152.51 872.23,-143.72"/>
<polygon fill="#63b8ff" stroke="#63b8ff" points="874.94,-145.94 878.02,-135.8 869.29,-141.81 874.94,-145.94"/>
</a>
</g>
</g>
<!-- Node18&#45;&gt;Node2 -->
<g id="edge26_Node000018_Node000002" class="edge">
<title>Node18&#45;&gt;Node2</title>
<g id="a_edge26_Node000018_Node000002"><a xlink:title=" ">
<path fill="none" stroke="#63b8ff" d="M617.43,-404.27C530.32,-396.3 274,-366.76 274,-295.12 274,-295.12 274,-295.12 274,-122.88 274,-23.15 432.88,-10.77 507.33,-10.45"/>
<polygon fill="#63b8ff" stroke="#63b8ff" points="507,-13.94 517.01,-10.48 507.02,-6.94 507,-13.94"/>
</a>
</g>
</g>
<!-- Node18&#45;&gt;Node5 -->
<g id="edge25_Node000018_Node000005" class="edge">
<title>Node18&#45;&gt;Node5</title>
<g id="a_edge25_Node000018_Node000005"><a xlink:title=" ">
<path fill="none" stroke="#63b8ff" d="M674.56,-403.91C730.45,-398.16 851.93,-383.46 887,-361.25 917.68,-341.82 935,-331.44 935,-295.12 935,-295.12 935,-295.12 935,-179.62 935,-148.92 935.23,-136.6 915,-113.5 899.14,-95.39 874.58,-84.1 853.78,-77.32"/>
<polygon fill="#63b8ff" stroke="#63b8ff" points="855.03,-74.04 844.45,-74.51 853.02,-80.74 855.03,-74.04"/>
</a>
</g>
</g>
<!-- Node18&#45;&gt;Node7 -->
<g id="edge33_Node000018_Node000007" class="edge">
<title>Node18&#45;&gt;Node7</title>
<g id="a_edge33_Node000018_Node000007"><a xlink:title=" ">
<path fill="none" stroke="#63b8ff" d="M617.28,-405.26C561.94,-401.96 443.78,-391.47 419,-361.25 381.08,-315.01 401.56,-280.64 428,-227 433.21,-216.42 441.75,-206.64 449.85,-198.9"/>
<polygon fill="#63b8ff" stroke="#63b8ff" points="452.04,-201.63 457.16,-192.35 447.38,-196.42 452.04,-201.63"/>
</a>
</g>
</g>
<!-- Node18&#45;&gt;Node15 -->
<g id="edge27_Node000018_Node000015" class="edge">
<title>Node18&#45;&gt;Node15</title>
<g id="a_edge27_Node000018_Node000015"><a xlink:title=" ">
<path fill="none" stroke="#63b8ff" d="M617.64,-398.98C564.89,-383.19 459.66,-343.35 490,-283.75 531.5,-202.24 636.16,-156.83 694.72,-137.04"/>
<polygon fill="#63b8ff" stroke="#63b8ff" points="695.58,-140.44 703.99,-134 693.4,-133.78 695.58,-140.44"/>
</a>
</g>
</g>
<!-- Node18&#45;&gt;Node16 -->
<g id="edge34_Node000018_Node000016" class="edge">
<title>Node18&#45;&gt;Node16</title>
<g id="a_edge34_Node000018_Node000016"><a xlink:title=" ">
<path fill="none" stroke="#63b8ff" d="M674.3,-406.7C739.95,-405.25 897,-391.68 897,-295.12 897,-295.12 897,-295.12 897,-236.38 897,-204.68 892.54,-168.17 889.3,-145.8"/>
<polygon fill="#63b8ff" stroke="#63b8ff" points="892.81,-145.55 887.85,-136.18 885.88,-146.59 892.81,-145.55"/>
</a>
</g>
</g>
<!-- Node19 -->
<g id="Node000019" class="node">
<title>Node19</title>
<g id="a_Node000019"><a xlink:href="architecture_8h.html" target="_top" xlink:title="Platform&#45;independent access to architecture details.">
<polygon fill="white" stroke="#666666" points="245.75,-247.75 162.25,-247.75 162.25,-227 245.75,-227 245.75,-247.75"/>
<text text-anchor="middle" x="204" y="-234.25" font-family="Helvetica,sans-Serif" font-size="10.00">architecture.h</text>
</a>
</g>
</g>
<!-- Node18&#45;&gt;Node19 -->
<g id="edge28_Node000018_Node000019" class="edge">
<title>Node18&#45;&gt;Node19</title>
<g id="a_edge28_Node000018_Node000019"><a xlink:title=" ">
<path fill="none" stroke="#63b8ff" d="M617.51,-406.8C538.2,-406.75 316.97,-402.8 260,-361.25 226.49,-336.81 212.55,-287.47 207.14,-259.32"/>
<polygon fill="#63b8ff" stroke="#63b8ff" points="210.6,-258.8 205.46,-249.53 203.7,-259.98 210.6,-258.8"/>
</a>
</g>
</g>
<!-- Node22 -->
<g id="Node000022" class="node">
<title>Node22</title>
<g id="a_Node000022"><a xlink:href="core_2include_2thread_8h.html" target="_top" xlink:title="Threading API.">
<polygon fill="white" stroke="#666666" points="674.25,-361.25 617.75,-361.25 617.75,-340.5 674.25,-340.5 674.25,-361.25"/>
<text text-anchor="middle" x="646" y="-347.75" font-family="Helvetica,sans-Serif" font-size="10.00">thread.h</text>
</a>
</g>
</g>
<!-- Node18&#45;&gt;Node22 -->
<g id="edge35_Node000018_Node000022" class="edge">
<title>Node18&#45;&gt;Node22</title>
<g id="a_edge35_Node000018_Node000022"><a xlink:title=" ">
<path fill="none" stroke="#63b8ff" d="M646,-396.84C646,-390.22 646,-381.22 646,-373.02"/>
<polygon fill="#63b8ff" stroke="#63b8ff" points="649.5,-373.09 646,-363.09 642.5,-373.09 649.5,-373.09"/>
</a>
</g>
</g>
<!-- Node19&#45;&gt;Node2 -->
<g id="edge29_Node000019_Node000002" class="edge">
<title>Node19&#45;&gt;Node2</title>
<g id="a_edge29_Node000019_Node000002"><a xlink:title=" ">
<path fill="none" stroke="#63b8ff" d="M162.16,-233.44C110.46,-227.97 32.15,-212.61 57,-170.25 109.3,-81.09 162.34,-90.62 260,-56.75 345.11,-27.23 451.26,-16.79 506.91,-13.2"/>
<polygon fill="#63b8ff" stroke="#63b8ff" points="507.03,-16.69 516.8,-12.6 506.61,-9.71 507.03,-16.69"/>
</a>
</g>
</g>
<!-- Node19&#45;&gt;Node6 -->
<g id="edge30_Node000019_Node000006" class="edge">
<title>Node19&#45;&gt;Node6</title>
<g id="a_edge30_Node000019_Node000006"><a xlink:title=" ">
<path fill="none" stroke="#63b8ff" d="M234.04,-226.59C261.19,-217.74 301.38,-204.64 331.39,-194.86"/>
<polygon fill="#63b8ff" stroke="#63b8ff" points="332.08,-198.32 340.5,-191.89 329.91,-191.66 332.08,-198.32"/>
</a>
</g>
</g>
<!-- Node20 -->
<g id="Node000020" class="node">
<title>Node20</title>
<g id="a_Node000020"><a xlink:title=" ">
<polygon fill="#e0e0e0" stroke="#999999" points="246.38,-191 193.62,-191 193.62,-170.25 246.38,-170.25 246.38,-191"/>
<text text-anchor="middle" x="220" y="-177.5" font-family="Helvetica,sans-Serif" font-size="10.00">limits.h</text>
</a>
</g>
</g>
<!-- Node19&#45;&gt;Node20 -->
<g id="edge31_Node000019_Node000020" class="edge">
<title>Node19&#45;&gt;Node20</title>
<g id="a_edge31_Node000019_Node000020"><a xlink:title=" ">
<path fill="none" stroke="#63b8ff" d="M206.86,-226.59C208.84,-219.81 211.55,-210.55 213.99,-202.19"/>
<polygon fill="#63b8ff" stroke="#63b8ff" points="217.29,-203.36 216.74,-192.78 210.58,-201.4 217.29,-203.36"/>
</a>
</g>
</g>
<!-- Node21 -->
<g id="Node000021" class="node">
<title>Node21</title>
<g id="a_Node000021"><a xlink:title=" ">
<polygon fill="#e0e0e0" stroke="#999999" points="175.88,-191 66.12,-191 66.12,-170.25 175.88,-170.25 175.88,-191"/>
<text text-anchor="middle" x="121" y="-177.5" font-family="Helvetica,sans-Serif" font-size="10.00">architecture_arch.h</text>
</a>
</g>
</g>
<!-- Node19&#45;&gt;Node21 -->
<g id="edge32_Node000019_Node000021" class="edge">
<title>Node19&#45;&gt;Node21</title>
<g id="a_edge32_Node000019_Node000021"><a xlink:title=" ">
<path fill="none" stroke="#63b8ff" d="M189.16,-226.59C176.89,-218.49 159.21,-206.83 144.94,-197.42"/>
<polygon fill="#63b8ff" stroke="#63b8ff" points="147.25,-194.75 136.97,-192.16 143.39,-200.59 147.25,-194.75"/>
</a>
</g>
</g>
<!-- Node22&#45;&gt;Node4 -->
<g id="edge43_Node000022_Node000004" class="edge">
<title>Node22&#45;&gt;Node4</title>
<g id="a_edge43_Node000022_Node000004"><a xlink:title=" ">
<path fill="none" stroke="#63b8ff" d="M652.85,-340.14C662.71,-326.54 681.96,-301.51 702,-283.75 714.74,-272.46 730.51,-261.88 743.75,-253.79"/>
<polygon fill="#63b8ff" stroke="#63b8ff" points="745.19,-257 751.99,-248.88 741.61,-250.99 745.19,-257"/>
</a>
</g>
</g>
<!-- Node22&#45;&gt;Node14 -->
<g id="edge36_Node000022_Node000014" class="edge">
<title>Node22&#45;&gt;Node14</title>
<g id="a_edge36_Node000022_Node000014"><a xlink:title=" ">
<path fill="none" stroke="#63b8ff" d="M674.56,-349.12C709.07,-346.69 766.87,-337.55 802,-304.5 830.92,-277.29 840.86,-229.75 844.26,-202.47"/>
<polygon fill="#63b8ff" stroke="#63b8ff" points="847.72,-203 845.27,-192.7 840.76,-202.28 847.72,-203"/>
</a>
</g>
</g>
<!-- Node23 -->
<g id="Node000023" class="node">
<title>Node23</title>
<g id="a_Node000023"><a xlink:href="cib_8h.html" target="_top" xlink:title="Circular integer buffer interface.">
<polygon fill="white" stroke="#666666" points="476.62,-247.75 437.38,-247.75 437.38,-227 476.62,-227 476.62,-247.75"/>
<text text-anchor="middle" x="457" y="-234.25" font-family="Helvetica,sans-Serif" font-size="10.00">cib.h</text>
</a>
</g>
</g>
<!-- Node22&#45;&gt;Node23 -->
<g id="edge37_Node000022_Node000023" class="edge">
<title>Node22&#45;&gt;Node23</title>
<g id="a_edge37_Node000022_Node000023"><a xlink:title=" ">
<path fill="none" stroke="#63b8ff" d="M617.48,-348.36C583.53,-345.15 526.81,-335.22 490,-304.5 475.99,-292.81 467.37,-273.71 462.46,-259.03"/>
<polygon fill="#63b8ff" stroke="#63b8ff" points="465.82,-258.04 459.62,-249.46 459.11,-260.04 465.82,-258.04"/>
</a>
</g>
</g>
<!-- Node24 -->
<g id="Node000024" class="node">
<title>Node24</title>
<g id="a_Node000024"><a xlink:href="core_2include_2msg_8h.html" target="_top" xlink:title="Messaging API for inter process communication.">
<polygon fill="white" stroke="#666666" points="545,-304.5 499,-304.5 499,-283.75 545,-283.75 545,-304.5"/>
<text text-anchor="middle" x="522" y="-291" font-family="Helvetica,sans-Serif" font-size="10.00">msg.h</text>
</a>
</g>
</g>
<!-- Node22&#45;&gt;Node24 -->
<g id="edge39_Node000022_Node000024" class="edge">
<title>Node22&#45;&gt;Node24</title>
<g id="a_edge39_Node000022_Node000024"><a xlink:title=" ">
<path fill="none" stroke="#63b8ff" d="M623.83,-340.09C604.52,-331.56 576.28,-319.09 554.43,-309.44"/>
<polygon fill="#63b8ff" stroke="#63b8ff" points="555.92,-306.28 545.36,-305.44 553.1,-312.68 555.92,-306.28"/>
</a>
</g>
</g>
<!-- Node25 -->
<g id="Node000025" class="node">
<title>Node25</title>
<g id="a_Node000025"><a xlink:href="thread__config_8h.html" target="_top" xlink:title="Thread configuration defines.">
<polygon fill="white" stroke="#666666" points="654.88,-304.5 563.12,-304.5 563.12,-283.75 654.88,-283.75 654.88,-304.5"/>
<text text-anchor="middle" x="609" y="-291" font-family="Helvetica,sans-Serif" font-size="10.00">thread_config.h</text>
</a>
</g>
</g>
<!-- Node22&#45;&gt;Node25 -->
<g id="edge44_Node000022_Node000025" class="edge">
<title>Node22&#45;&gt;Node25</title>
<g id="a_edge44_Node000022_Node000025"><a xlink:title=" ">
<path fill="none" stroke="#63b8ff" d="M639.39,-340.09C634.54,-332.92 627.82,-322.98 621.93,-314.26"/>
<polygon fill="#63b8ff" stroke="#63b8ff" points="624.9,-312.41 616.41,-306.08 619.1,-316.33 624.9,-312.41"/>
</a>
</g>
</g>
<!-- Node27 -->
<g id="Node000027" class="node">
<title>Node27</title>
<g id="a_Node000027"><a xlink:title=" ">
<polygon fill="#e0e0e0" stroke="#999999" points="793.38,-304.5 710.62,-304.5 710.62,-283.75 793.38,-283.75 793.38,-304.5"/>
<text text-anchor="middle" x="752" y="-291" font-family="Helvetica,sans-Serif" font-size="10.00">thread_arch.h</text>
</a>
</g>
</g>
<!-- Node22&#45;&gt;Node27 -->
<g id="edge47_Node000022_Node000027" class="edge">
<title>Node22&#45;&gt;Node27</title>
<g id="a_edge47_Node000022_Node000027"><a xlink:title=" ">
<path fill="none" stroke="#63b8ff" d="M664.95,-340.09C681.08,-331.76 704.5,-319.66 722.99,-310.11"/>
<polygon fill="#63b8ff" stroke="#63b8ff" points="724.59,-313.22 731.87,-305.52 721.38,-307 724.59,-313.22"/>
</a>
</g>
</g>
<!-- Node23&#45;&gt;Node11 -->
<g id="edge38_Node000023_Node000011" class="edge">
<title>Node23&#45;&gt;Node11</title>
<g id="a_edge38_Node000023_Node000011"><a xlink:title=" ">
<path fill="none" stroke="#63b8ff" d="M437.12,-235.84C408.16,-233.86 355.2,-225.43 331,-191 311.2,-162.82 315.91,-144.46 331,-113.5 336.96,-101.27 347.99,-91.37 358.84,-83.97"/>
<polygon fill="#63b8ff" stroke="#63b8ff" points="360.69,-86.94 367.32,-78.69 356.98,-81 360.69,-86.94"/>
</a>
</g>
</g>
<!-- Node24&#45;&gt;Node2 -->
<g id="edge40_Node000024_Node000002" class="edge">
<title>Node24&#45;&gt;Node2</title>
<g id="a_edge40_Node000024_Node000002"><a xlink:title=" ">
<path fill="none" stroke="#63b8ff" d="M535.06,-283.42C563.98,-261.02 632.83,-202.36 658,-134.25 675.53,-86.81 616.66,-46.95 577.4,-26.38"/>
<polygon fill="#63b8ff" stroke="#63b8ff" points="579.02,-23.28 568.52,-21.9 575.87,-29.53 579.02,-23.28"/>
</a>
</g>
</g>
<!-- Node24&#45;&gt;Node4 -->
<g id="edge42_Node000024_Node000004" class="edge">
<title>Node24&#45;&gt;Node4</title>
<g id="a_edge42_Node000024_Node000004"><a xlink:title=" ">
<path fill="none" stroke="#63b8ff" d="M545.35,-286.02C548.26,-285.22 551.19,-284.44 554,-283.75 630.23,-265.04 653.11,-265.97 732.82,-248.13"/>
<polygon fill="#63b8ff" stroke="#63b8ff" points="733.46,-251.57 742.44,-245.94 731.91,-244.75 733.46,-251.57"/>
</a>
</g>
</g>
<!-- Node24&#45;&gt;Node15 -->
<g id="edge41_Node000024_Node000015" class="edge">
<title>Node24&#45;&gt;Node15</title>
<g id="a_edge41_Node000024_Node000015"><a xlink:title=" ">
<path fill="none" stroke="#63b8ff" d="M545.28,-283.62C563.05,-275.66 587.55,-263.15 606,-247.75 639.86,-219.48 635.49,-200.07 668,-170.25 680.21,-159.05 695.44,-148.62 708.38,-140.6"/>
<polygon fill="#63b8ff" stroke="#63b8ff" points="710.11,-143.64 716.87,-135.49 706.5,-137.64 710.11,-143.64"/>
</a>
</g>
</g>
<!-- Node25&#45;&gt;Node4 -->
<g id="edge46_Node000025_Node000004" class="edge">
<title>Node25&#45;&gt;Node4</title>
<g id="a_edge46_Node000025_Node000004"><a xlink:title=" ">
<path fill="none" stroke="#63b8ff" d="M637.96,-283.34C664.59,-274.34 704.24,-260.94 733.32,-251.11"/>
<polygon fill="#63b8ff" stroke="#63b8ff" points="734.12,-254.53 742.47,-248.02 731.88,-247.9 734.12,-254.53"/>
</a>
</g>
</g>
<!-- Node26 -->
<g id="Node000026" class="node">
<title>Node26</title>
<g id="a_Node000026"><a xlink:title=" ">
<polygon fill="#e0e0e0" stroke="#999999" points="725.88,-247.75 658.12,-247.75 658.12,-227 725.88,-227 725.88,-247.75"/>
<text text-anchor="middle" x="692" y="-234.25" font-family="Helvetica,sans-Serif" font-size="10.00">cpu_conf.h</text>
</a>
</g>
</g>
<!-- Node25&#45;&gt;Node26 -->
<g id="edge45_Node000025_Node000026" class="edge">
<title>Node25&#45;&gt;Node26</title>
<g id="a_edge45_Node000025_Node000026"><a xlink:title=" ">
<path fill="none" stroke="#63b8ff" d="M623.84,-283.34C636.11,-275.24 653.79,-263.58 668.06,-254.17"/>
<polygon fill="#63b8ff" stroke="#63b8ff" points="669.61,-257.34 676.03,-248.91 665.75,-251.5 669.61,-257.34"/>
</a>
</g>
</g>
<!-- Node28&#45;&gt;Node2 -->
<g id="edge49_Node000028_Node000002" class="edge">
<title>Node28&#45;&gt;Node2</title>
<g id="a_edge49_Node000028_Node000002"><a xlink:title=" ">
<path fill="none" stroke="#63b8ff" d="M879.16,-453.54C913.69,-437.7 973,-403.03 973,-351.88 973,-351.88 973,-351.88 973,-122.88 973,-42.65 687.87,-19.11 583.06,-13.16"/>
<polygon fill="#63b8ff" stroke="#63b8ff" points="583.46,-9.68 573.28,-12.63 583.08,-16.67 583.46,-9.68"/>
</a>
</g>
</g>
<!-- Node28&#45;&gt;Node4 -->
<g id="edge51_Node000028_Node000004" class="edge">
<title>Node28&#45;&gt;Node4</title>
<g id="a_edge51_Node000028_Node000004"><a xlink:title=" ">
<path fill="none" stroke="#63b8ff" d="M853.24,-453.64C848.02,-426.02 831.14,-345.14 802,-283.75 797.57,-274.42 791.34,-264.86 785.63,-256.94"/>
<polygon fill="#63b8ff" stroke="#63b8ff" points="788.56,-255.02 779.75,-249.13 782.97,-259.23 788.56,-255.02"/>
</a>
</g>
</g>
<!-- Node28&#45;&gt;Node18 -->
<g id="edge50_Node000028_Node000018" class="edge">
<title>Node28&#45;&gt;Node18</title>
<g id="a_edge50_Node000028_Node000018"><a xlink:title=" ">
<path fill="none" stroke="#63b8ff" d="M824.61,-455.41C787.95,-445.81 726.22,-429.64 685.8,-419.05"/>
<polygon fill="#63b8ff" stroke="#63b8ff" points="686.77,-415.69 676.21,-416.54 685,-422.46 686.77,-415.69"/>
</a>
</g>
</g>
<!-- Node29&#45;&gt;Node3 -->
<g id="edge53_Node000029_Node000003" class="edge">
<title>Node29&#45;&gt;Node3</title>
<g id="a_edge53_Node000029_Node000003"><a xlink:title=" ">
<path fill="none" stroke="#63b8ff" d="M923,-567.09C923,-560.47 923,-551.47 923,-543.27"/>
<polygon fill="#63b8ff" stroke="#63b8ff" points="926.5,-543.34 923,-533.34 919.5,-543.34 926.5,-543.34"/>
</a>
</g>
</g>
<!-- Node30&#45;&gt;Node2 -->
<g id="edge56_Node000030_Node000002" class="edge">
<title>Node30&#45;&gt;Node2</title>
<g id="a_edge56_Node000030_Node000002"><a xlink:title=" ">
<path fill="none" stroke="#63b8ff" d="M1038.77,-510.32C1042.11,-490.95 1049,-446.4 1049,-408.62 1049,-408.62 1049,-408.62 1049,-122.88 1049,-27.46 700.3,-13.63 582.99,-11.68"/>
<polygon fill="#63b8ff" stroke="#63b8ff" points="583.3,-8.18 573.25,-11.54 583.2,-15.18 583.3,-8.18"/>
</a>
</g>
</g>
</g>
</svg>
