<?xml version="1.0" encoding="UTF-8" standalone="no"?>
<!DOCTYPE svg PUBLIC "-//W3C//DTD SVG 1.1//EN"
 "http://www.w3.org/Graphics/SVG/1.1/DTD/svg11.dtd">
<!-- Generated by graphviz version 12.1.1 (0)
 -->
<!-- Title: core/include/msg.h Pages: 1 -->
<svg width="682pt" height="313pt"
 viewBox="0.00 0.00 682.25 312.50" xmlns="http://www.w3.org/2000/svg" xmlns:xlink="http://www.w3.org/1999/xlink">
<g id="graph0" class="graph" transform="scale(1 1) rotate(0) translate(4 308.5)">
<title>core/include/msg.h</title>
<!-- Node1 -->
<g id="Node000001" class="node">
<title>Node1</title>
<g id="a_Node000001"><a xlink:title="Messaging API for inter process communication.">
<polygon fill="#999999" stroke="#666666" points="502.55,-304.5 394.3,-304.5 394.3,-283.75 502.55,-283.75 502.55,-304.5"/>
<text text-anchor="middle" x="448.42" y="-291" font-family="Helvetica,sans-Serif" font-size="10.00">core/include/msg.h</text>
</a>
</g>
</g>
<!-- Node2 -->
<g id="Node000002" class="node">
<title>Node2</title>
<g id="a_Node000002"><a xlink:title=" ">
<polygon fill="#e0e0e0" stroke="#999999" points="164.8,-20.75 112.05,-20.75 112.05,0 164.8,0 164.8,-20.75"/>
<text text-anchor="middle" x="138.42" y="-7.25" font-family="Helvetica,sans-Serif" font-size="10.00">stdint.h</text>
</a>
</g>
</g>
<!-- Node1&#45;&gt;Node2 -->
<g id="edge1_Node000001_Node000002" class="edge">
<title>Node1&#45;&gt;Node2</title>
<g id="a_edge1_Node000001_Node000002"><a xlink:title=" ">
<path fill="none" stroke="#63b8ff" d="M393.94,-290.98C274.54,-284.8 0.42,-261.88 0.42,-181.62 0.42,-181.62 0.42,-181.62 0.42,-122.88 0.42,-92.3 -1.27,-79.27 19.42,-56.75 40.47,-33.85 74.32,-22.41 100.55,-16.76"/>
<polygon fill="#63b8ff" stroke="#63b8ff" points="100.99,-20.24 110.14,-14.9 99.65,-13.37 100.99,-20.24"/>
</a>
</g>
</g>
<!-- Node3 -->
<g id="Node000003" class="node">
<title>Node3</title>
<g id="a_Node000003"><a xlink:title=" ">
<polygon fill="#e0e0e0" stroke="#999999" points="651.92,-134.25 590.92,-134.25 590.92,-113.5 651.92,-113.5 651.92,-134.25"/>
<text text-anchor="middle" x="621.42" y="-120.75" font-family="Helvetica,sans-Serif" font-size="10.00">stdbool.h</text>
</a>
</g>
</g>
<!-- Node1&#45;&gt;Node3 -->
<g id="edge2_Node000001_Node000003" class="edge">
<title>Node1&#45;&gt;Node3</title>
<g id="a_edge2_Node000001_Node000003"><a xlink:title=" ">
<path fill="none" stroke="#63b8ff" d="M502.72,-285.03C555.75,-273.92 633.69,-248.33 670.42,-191 681.67,-173.44 664.16,-154.41 647.03,-141.29"/>
<polygon fill="#63b8ff" stroke="#63b8ff" points="649.15,-138.5 638.97,-135.54 645.08,-144.19 649.15,-138.5"/>
</a>
</g>
</g>
<!-- Node4 -->
<g id="Node000004" class="node">
<title>Node4</title>
<g id="a_Node000004"><a xlink:href="sched_8h.html" target="_top" xlink:title="Scheduler API definition.">
<polygon fill="white" stroke="#666666" points="475.17,-247.75 421.67,-247.75 421.67,-227 475.17,-227 475.17,-247.75"/>
<text text-anchor="middle" x="448.42" y="-234.25" font-family="Helvetica,sans-Serif" font-size="10.00">sched.h</text>
</a>
</g>
</g>
<!-- Node1&#45;&gt;Node4 -->
<g id="edge3_Node000001_Node000004" class="edge">
<title>Node1&#45;&gt;Node4</title>
<g id="a_edge3_Node000001_Node000004"><a xlink:title=" ">
<path fill="none" stroke="#63b8ff" d="M448.42,-283.34C448.42,-276.72 448.42,-267.72 448.42,-259.52"/>
<polygon fill="#63b8ff" stroke="#63b8ff" points="451.92,-259.59 448.42,-249.59 444.92,-259.59 451.92,-259.59"/>
</a>
</g>
</g>
<!-- Node5 -->
<g id="Node000005" class="node">
<title>Node5</title>
<g id="a_Node000005"><a xlink:title=" ">
<polygon fill="#e0e0e0" stroke="#999999" points="424.92,-77.5 369.92,-77.5 369.92,-56.75 424.92,-56.75 424.92,-77.5"/>
<text text-anchor="middle" x="397.42" y="-64" font-family="Helvetica,sans-Serif" font-size="10.00">stddef.h</text>
</a>
</g>
</g>
<!-- Node4&#45;&gt;Node5 -->
<g id="edge4_Node000004_Node000005" class="edge">
<title>Node4&#45;&gt;Node5</title>
<g id="a_edge4_Node000004_Node000005"><a xlink:title=" ">
<path fill="none" stroke="#63b8ff" d="M439.59,-226.72C432.16,-218.04 421.91,-204.59 416.42,-191 402.72,-157.08 398.84,-114.23 397.77,-89.13"/>
<polygon fill="#63b8ff" stroke="#63b8ff" points="401.27,-89.17 397.48,-79.28 394.28,-89.38 401.27,-89.17"/>
</a>
</g>
</g>
<!-- Node6 -->
<g id="Node000006" class="node">
<title>Node6</title>
<g id="a_Node000006"><a xlink:href="inttypes_8h.html" target="_top" xlink:title="Adds include for missing inttype definitions.">
<polygon fill="white" stroke="#666666" points="553.8,-191 489.05,-191 489.05,-170.25 553.8,-170.25 553.8,-191"/>
<text text-anchor="middle" x="521.42" y="-177.5" font-family="Helvetica,sans-Serif" font-size="10.00">inttypes.h</text>
</a>
</g>
</g>
<!-- Node4&#45;&gt;Node6 -->
<g id="edge5_Node000004_Node000006" class="edge">
<title>Node4&#45;&gt;Node6</title>
<g id="a_edge5_Node000004_Node000006"><a xlink:title=" ">
<path fill="none" stroke="#63b8ff" d="M461.47,-226.59C472.06,-218.65 487.22,-207.28 499.64,-197.96"/>
<polygon fill="#63b8ff" stroke="#63b8ff" points="501.37,-201.04 507.27,-192.24 497.17,-195.44 501.37,-201.04"/>
</a>
</g>
</g>
<!-- Node7 -->
<g id="Node000007" class="node">
<title>Node7</title>
<g id="a_Node000007"><a xlink:href="kernel__defines_8h.html" target="_top" xlink:title="Common macros and compiler attributes/pragmas configuration.">
<polygon fill="white" stroke="#666666" points="296.55,-191 200.3,-191 200.3,-170.25 296.55,-170.25 296.55,-191"/>
<text text-anchor="middle" x="248.42" y="-177.5" font-family="Helvetica,sans-Serif" font-size="10.00">kernel_defines.h</text>
</a>
</g>
</g>
<!-- Node4&#45;&gt;Node7 -->
<g id="edge6_Node000004_Node000007" class="edge">
<title>Node4&#45;&gt;Node7</title>
<g id="a_edge6_Node000004_Node000007"><a xlink:title=" ">
<path fill="none" stroke="#63b8ff" d="M421.45,-228.99C389.16,-220.15 334.54,-205.2 295.3,-194.46"/>
<polygon fill="#63b8ff" stroke="#63b8ff" points="296.45,-191.14 285.88,-191.88 294.6,-197.89 296.45,-191.14"/>
</a>
</g>
</g>
<!-- Node13 -->
<g id="Node000013" class="node">
<title>Node13</title>
<g id="a_Node000013"><a xlink:href="native__sched_8h.html" target="_top" xlink:title="Add definitions required on the native board.">
<polygon fill="white" stroke="#666666" points="661.17,-191 571.67,-191 571.67,-170.25 661.17,-170.25 661.17,-191"/>
<text text-anchor="middle" x="616.42" y="-177.5" font-family="Helvetica,sans-Serif" font-size="10.00">native_sched.h</text>
</a>
</g>
</g>
<!-- Node4&#45;&gt;Node13 -->
<g id="edge17_Node000004_Node000013" class="edge">
<title>Node4&#45;&gt;Node13</title>
<g id="a_edge17_Node000004_Node000013"><a xlink:title=" ">
<path fill="none" stroke="#63b8ff" d="M475.41,-227.58C502.43,-218.78 544.33,-205.12 575.45,-194.98"/>
<polygon fill="#63b8ff" stroke="#63b8ff" points="576.51,-198.31 584.94,-191.89 574.35,-191.66 576.51,-198.31"/>
</a>
</g>
</g>
<!-- Node14 -->
<g id="Node000014" class="node">
<title>Node14</title>
<g id="a_Node000014"><a xlink:href="clist_8h.html" target="_top" xlink:title="Circular linked list.">
<polygon fill="white" stroke="#666666" points="471.05,-191 425.8,-191 425.8,-170.25 471.05,-170.25 471.05,-191"/>
<text text-anchor="middle" x="448.42" y="-177.5" font-family="Helvetica,sans-Serif" font-size="10.00">clist.h</text>
</a>
</g>
</g>
<!-- Node4&#45;&gt;Node14 -->
<g id="edge18_Node000004_Node000014" class="edge">
<title>Node4&#45;&gt;Node14</title>
<g id="a_edge18_Node000004_Node000014"><a xlink:title=" ">
<path fill="none" stroke="#63b8ff" d="M448.42,-226.59C448.42,-219.97 448.42,-210.97 448.42,-202.77"/>
<polygon fill="#63b8ff" stroke="#63b8ff" points="451.92,-202.84 448.42,-192.84 444.92,-202.84 451.92,-202.84"/>
</a>
</g>
</g>
<!-- Node8 -->
<g id="Node000008" class="node">
<title>Node8</title>
<g id="a_Node000008"><a xlink:href="modules_8h.html" target="_top" xlink:title="Common macros and compiler attributes/pragmas configuration.">
<polygon fill="white" stroke="#666666" points="368.92,-134.25 301.92,-134.25 301.92,-113.5 368.92,-113.5 368.92,-134.25"/>
<text text-anchor="middle" x="335.42" y="-120.75" font-family="Helvetica,sans-Serif" font-size="10.00">modules.h</text>
</a>
</g>
</g>
<!-- Node7&#45;&gt;Node8 -->
<g id="edge7_Node000007_Node000008" class="edge">
<title>Node7&#45;&gt;Node8</title>
<g id="a_edge7_Node000007_Node000008"><a xlink:title=" ">
<path fill="none" stroke="#63b8ff" d="M263.98,-169.84C276.84,-161.74 295.37,-150.08 310.33,-140.67"/>
<polygon fill="#63b8ff" stroke="#63b8ff" points="312.12,-143.67 318.72,-135.38 308.39,-137.75 312.12,-143.67"/>
</a>
</g>
</g>
<!-- Node9 -->
<g id="Node000009" class="node">
<title>Node9</title>
<g id="a_Node000009"><a xlink:href="riot__version_8h.html" target="_top" xlink:title="Common macros and compiler attributes/pragmas configuration.">
<polygon fill="white" stroke="#666666" points="110.8,-77.5 28.05,-77.5 28.05,-56.75 110.8,-56.75 110.8,-77.5"/>
<text text-anchor="middle" x="69.42" y="-64" font-family="Helvetica,sans-Serif" font-size="10.00">riot_version.h</text>
</a>
</g>
</g>
<!-- Node7&#45;&gt;Node9 -->
<g id="edge8_Node000007_Node000009" class="edge">
<title>Node7&#45;&gt;Node9</title>
<g id="a_edge8_Node000007_Node000009"><a xlink:title=" ">
<path fill="none" stroke="#63b8ff" d="M199.89,-177.98C164.49,-174.21 117.77,-163.5 88.42,-134.25 76.51,-122.38 71.96,-103.57 70.27,-89.04"/>
<polygon fill="#63b8ff" stroke="#63b8ff" points="73.76,-88.88 69.52,-79.17 66.78,-89.4 73.76,-88.88"/>
</a>
</g>
</g>
<!-- Node10 -->
<g id="Node000010" class="node">
<title>Node10</title>
<g id="a_Node000010"><a xlink:href="compiler__hints_8h.html" target="_top" xlink:title="Common macros and compiler attributes/pragmas configuration.">
<polygon fill="white" stroke="#666666" points="194.92,-134.25 97.92,-134.25 97.92,-113.5 194.92,-113.5 194.92,-134.25"/>
<text text-anchor="middle" x="146.42" y="-120.75" font-family="Helvetica,sans-Serif" font-size="10.00">compiler_hints.h</text>
</a>
</g>
</g>
<!-- Node7&#45;&gt;Node10 -->
<g id="edge10_Node000007_Node000010" class="edge">
<title>Node7&#45;&gt;Node10</title>
<g id="a_edge10_Node000007_Node000010"><a xlink:title=" ">
<path fill="none" stroke="#63b8ff" d="M230.19,-169.84C214.74,-161.55 192.34,-149.52 174.59,-139.99"/>
<polygon fill="#63b8ff" stroke="#63b8ff" points="176.3,-136.94 165.83,-135.29 172.99,-143.11 176.3,-136.94"/>
</a>
</g>
</g>
<!-- Node12 -->
<g id="Node000012" class="node">
<title>Node12</title>
<g id="a_Node000012"><a xlink:href="container_8h.html" target="_top" xlink:title="Common macros and compiler attributes/pragmas configuration.">
<polygon fill="white" stroke="#666666" points="283.8,-134.25 213.05,-134.25 213.05,-113.5 283.8,-113.5 283.8,-134.25"/>
<text text-anchor="middle" x="248.42" y="-120.75" font-family="Helvetica,sans-Serif" font-size="10.00">container.h</text>
</a>
</g>
</g>
<!-- Node7&#45;&gt;Node12 -->
<g id="edge14_Node000007_Node000012" class="edge">
<title>Node7&#45;&gt;Node12</title>
<g id="a_edge14_Node000007_Node000012"><a xlink:title=" ">
<path fill="none" stroke="#63b8ff" d="M248.42,-169.84C248.42,-163.22 248.42,-154.22 248.42,-146.02"/>
<polygon fill="#63b8ff" stroke="#63b8ff" points="251.92,-146.09 248.42,-136.09 244.92,-146.09 251.92,-146.09"/>
</a>
</g>
</g>
<!-- Node9&#45;&gt;Node2 -->
<g id="edge9_Node000009_Node000002" class="edge">
<title>Node9&#45;&gt;Node2</title>
<g id="a_edge9_Node000009_Node000002"><a xlink:title=" ">
<path fill="none" stroke="#63b8ff" d="M81.76,-56.34C91.67,-48.47 105.81,-37.25 117.49,-27.99"/>
<polygon fill="#63b8ff" stroke="#63b8ff" points="119.35,-30.98 125.01,-22.02 115,-25.49 119.35,-30.98"/>
</a>
</g>
</g>
<!-- Node10&#45;&gt;Node2 -->
<g id="edge13_Node000010_Node000002" class="edge">
<title>Node10&#45;&gt;Node2</title>
<g id="a_edge13_Node000010_Node000002"><a xlink:title=" ">
<path fill="none" stroke="#63b8ff" d="M145.74,-113.37C144.46,-95.52 141.67,-56.61 139.93,-32.34"/>
<polygon fill="#63b8ff" stroke="#63b8ff" points="143.44,-32.41 139.23,-22.68 136.46,-32.91 143.44,-32.41"/>
</a>
</g>
</g>
<!-- Node11 -->
<g id="Node000011" class="node">
<title>Node11</title>
<g id="a_Node000011"><a xlink:href="assert_8h.html" target="_top" xlink:title="POSIX.1&#45;2008 compliant version of the assert macro.">
<polygon fill="white" stroke="#666666" points="221.92,-77.5 166.92,-77.5 166.92,-56.75 221.92,-56.75 221.92,-77.5"/>
<text text-anchor="middle" x="194.42" y="-64" font-family="Helvetica,sans-Serif" font-size="10.00">assert.h</text>
</a>
</g>
</g>
<!-- Node10&#45;&gt;Node11 -->
<g id="edge11_Node000010_Node000011" class="edge">
<title>Node10&#45;&gt;Node11</title>
<g id="a_edge11_Node000010_Node000011"><a xlink:title=" ">
<path fill="none" stroke="#63b8ff" d="M155,-113.09C161.49,-105.69 170.58,-95.32 178.39,-86.41"/>
<polygon fill="#63b8ff" stroke="#63b8ff" points="180.96,-88.79 184.92,-78.97 175.69,-84.18 180.96,-88.79"/>
</a>
</g>
</g>
<!-- Node11&#45;&gt;Node2 -->
<g id="edge12_Node000011_Node000002" class="edge">
<title>Node11&#45;&gt;Node2</title>
<g id="a_edge12_Node000011_Node000002"><a xlink:title=" ">
<path fill="none" stroke="#63b8ff" d="M184.41,-56.34C176.69,-48.78 165.79,-38.14 156.55,-29.1"/>
<polygon fill="#63b8ff" stroke="#63b8ff" points="159.03,-26.62 149.43,-22.14 154.13,-31.63 159.03,-26.62"/>
</a>
</g>
</g>
<!-- Node12&#45;&gt;Node2 -->
<g id="edge16_Node000012_Node000002" class="edge">
<title>Node12&#45;&gt;Node2</title>
<g id="a_edge16_Node000012_Node000002"><a xlink:title=" ">
<path fill="none" stroke="#63b8ff" d="M248.38,-113.22C247.83,-99.26 244.91,-73.28 231.42,-56.75 217.37,-39.53 195.18,-28.35 176,-21.4"/>
<polygon fill="#63b8ff" stroke="#63b8ff" points="177.17,-18.1 166.58,-18.27 174.96,-24.75 177.17,-18.1"/>
</a>
</g>
</g>
<!-- Node12&#45;&gt;Node5 -->
<g id="edge15_Node000012_Node000005" class="edge">
<title>Node12&#45;&gt;Node5</title>
<g id="a_edge15_Node000012_Node000005"><a xlink:title=" ">
<path fill="none" stroke="#63b8ff" d="M275.06,-113.09C298.72,-104.39 333.54,-91.6 360,-81.88"/>
<polygon fill="#63b8ff" stroke="#63b8ff" points="361.16,-85.18 369.34,-78.44 358.75,-78.61 361.16,-85.18"/>
</a>
</g>
</g>
<!-- Node14&#45;&gt;Node3 -->
<g id="edge19_Node000014_Node000003" class="edge">
<title>Node14&#45;&gt;Node3</title>
<g id="a_edge19_Node000014_Node000003"><a xlink:title=" ">
<path fill="none" stroke="#63b8ff" d="M471.4,-172.35C499.01,-163.61 545.89,-148.78 579.9,-138.01"/>
<polygon fill="#63b8ff" stroke="#63b8ff" points="580.53,-141.49 589.01,-135.13 578.42,-134.81 580.53,-141.49"/>
</a>
</g>
</g>
<!-- Node14&#45;&gt;Node5 -->
<g id="edge20_Node000014_Node000005" class="edge">
<title>Node14&#45;&gt;Node5</title>
<g id="a_edge20_Node000014_Node000005"><a xlink:title=" ">
<path fill="none" stroke="#63b8ff" d="M444.07,-170.12C435.8,-152.02 417.62,-112.28 406.56,-88.1"/>
<polygon fill="#63b8ff" stroke="#63b8ff" points="409.88,-86.94 402.53,-79.3 403.51,-89.85 409.88,-86.94"/>
</a>
</g>
</g>
<!-- Node15 -->
<g id="Node000015" class="node">
<title>Node15</title>
<g id="a_Node000015"><a xlink:href="list_8h.html" target="_top" xlink:title="Intrusive linked list.">
<polygon fill="white" stroke="#666666" points="503.42,-134.25 463.42,-134.25 463.42,-113.5 503.42,-113.5 503.42,-134.25"/>
<text text-anchor="middle" x="483.42" y="-120.75" font-family="Helvetica,sans-Serif" font-size="10.00">list.h</text>
</a>
</g>
</g>
<!-- Node14&#45;&gt;Node15 -->
<g id="edge21_Node000014_Node000015" class="edge">
<title>Node14&#45;&gt;Node15</title>
<g id="a_edge21_Node000014_Node000015"><a xlink:title=" ">
<path fill="none" stroke="#63b8ff" d="M454.68,-169.84C459.26,-162.67 465.62,-152.73 471.19,-144.01"/>
<polygon fill="#63b8ff" stroke="#63b8ff" points="473.97,-146.16 476.4,-135.85 468.07,-142.39 473.97,-146.16"/>
</a>
</g>
</g>
</g>
</svg>
