<?xml version="1.0" encoding="UTF-8" standalone="no"?>
<!DOCTYPE svg PUBLIC "-//W3C//DTD SVG 1.1//EN"
 "http://www.w3.org/Graphics/SVG/1.1/DTD/svg11.dtd">
<!-- Generated by graphviz version 12.1.1 (0)
 -->
<!-- Title: core/lib/include/macros/utils.h Pages: 1 -->
<svg width="498pt" height="250pt"
 viewBox="0.00 0.00 498.38 250.00" xmlns="http://www.w3.org/2000/svg" xmlns:xlink="http://www.w3.org/1999/xlink">
<g id="graph0" class="graph" transform="scale(1 1) rotate(0) translate(4 246)">
<title>core/lib/include/macros/utils.h</title>
<!-- Node1 -->
<g id="Node000001" class="node">
<title>Node1</title>
<g id="a_Node000001"><a xlink:title="Various helper macros.">
<polygon fill="#999999" stroke="#666666" points="306.88,-242 177.62,-242 177.62,-208.5 306.88,-208.5 306.88,-242"/>
<text text-anchor="start" x="185.62" y="-228.5" font-family="Helvetica,sans-Serif" font-size="10.00">core/lib/include/macros</text>
<text text-anchor="middle" x="242.25" y="-215.75" font-family="Helvetica,sans-Serif" font-size="10.00">/utils.h</text>
</a>
</g>
</g>
<!-- Node2 -->
<g id="Node000002" class="node">
<title>Node2</title>
<g id="a_Node000002"><a xlink:href="mtd__emulated_8h_source.html" target="_top" xlink:title=" ">
<polygon fill="white" stroke="#666666" points="110.5,-166.12 0,-166.12 0,-132.62 110.5,-132.62 110.5,-166.12"/>
<text text-anchor="start" x="8" y="-152.62" font-family="Helvetica,sans-Serif" font-size="10.00">drivers/include/mtd</text>
<text text-anchor="middle" x="55.25" y="-139.88" font-family="Helvetica,sans-Serif" font-size="10.00">_emulated.h</text>
</a>
</g>
</g>
<!-- Node1&#45;&gt;Node2 -->
<g id="edge1_Node000001_Node000002" class="edge">
<title>Node1&#45;&gt;Node2</title>
<g id="a_edge1_Node000001_Node000002"><a xlink:title=" ">
<path fill="none" stroke="#63b8ff" d="M190.6,-203.84C160.83,-192.09 123.94,-177.51 96.19,-166.55"/>
<polygon fill="#63b8ff" stroke="#63b8ff" points="189.22,-207.06 199.8,-207.48 191.79,-200.55 189.22,-207.06"/>
</a>
</g>
</g>
<!-- Node3 -->
<g id="Node000003" class="node">
<title>Node3</title>
<g id="a_Node000003"><a xlink:href="atomic__utils_8h.html" target="_top" xlink:title="API of the utility functions for atomic accesses.">
<polygon fill="white" stroke="#666666" points="236,-166.12 128.5,-166.12 128.5,-132.62 236,-132.62 236,-166.12"/>
<text text-anchor="start" x="136.5" y="-152.62" font-family="Helvetica,sans-Serif" font-size="10.00">sys/include/atomic</text>
<text text-anchor="middle" x="182.25" y="-139.88" font-family="Helvetica,sans-Serif" font-size="10.00">_utils.h</text>
</a>
</g>
</g>
<!-- Node1&#45;&gt;Node3 -->
<g id="edge2_Node000001_Node000003" class="edge">
<title>Node1&#45;&gt;Node3</title>
<g id="a_edge2_Node000001_Node000003"><a xlink:title=" ">
<path fill="none" stroke="#63b8ff" d="M222.16,-199.51C213.28,-188.58 203.1,-176.05 195.24,-166.37"/>
<polygon fill="#63b8ff" stroke="#63b8ff" points="219.26,-201.49 228.28,-207.05 224.69,-197.08 219.26,-201.49"/>
</a>
</g>
</g>
<!-- Node5 -->
<g id="Node000005" class="node">
<title>Node5</title>
<g id="a_Node000005"><a xlink:href="vfs_8h.html" target="_top" xlink:title="VFS layer API declarations.">
<polygon fill="white" stroke="#666666" points="352.12,-159.75 254.38,-159.75 254.38,-139 352.12,-139 352.12,-159.75"/>
<text text-anchor="middle" x="303.25" y="-146.25" font-family="Helvetica,sans-Serif" font-size="10.00">sys/include/vfs.h</text>
</a>
</g>
</g>
<!-- Node1&#45;&gt;Node5 -->
<g id="edge4_Node000001_Node000005" class="edge">
<title>Node1&#45;&gt;Node5</title>
<g id="a_edge4_Node000001_Node000005"><a xlink:title=" ">
<path fill="none" stroke="#63b8ff" d="M262.52,-199.71C273.79,-186.05 287.17,-169.84 295.44,-159.83"/>
<polygon fill="#63b8ff" stroke="#63b8ff" points="260.12,-197.11 256.45,-207.05 265.52,-201.57 260.12,-197.11"/>
</a>
</g>
</g>
<!-- Node8 -->
<g id="Node000008" class="node">
<title>Node8</title>
<g id="a_Node000008"><a xlink:href="init__devs_8h.html" target="_top" xlink:title="common netif device initialization definitions">
<polygon fill="white" stroke="#666666" points="490.38,-172.5 370.12,-172.5 370.12,-126.25 490.38,-126.25 490.38,-172.5"/>
<text text-anchor="start" x="378.12" y="-159" font-family="Helvetica,sans-Serif" font-size="10.00">sys/net/gnrc/netif</text>
<text text-anchor="start" x="378.12" y="-146.25" font-family="Helvetica,sans-Serif" font-size="10.00">/init_devs/include/init</text>
<text text-anchor="middle" x="430.25" y="-133.5" font-family="Helvetica,sans-Serif" font-size="10.00">_devs.h</text>
</a>
</g>
</g>
<!-- Node1&#45;&gt;Node8 -->
<g id="edge7_Node000001_Node000008" class="edge">
<title>Node1&#45;&gt;Node8</title>
<g id="a_edge7_Node000001_Node000008"><a xlink:title=" ">
<path fill="none" stroke="#63b8ff" d="M294,-203.92C318.4,-194.33 347.59,-182.86 372.69,-172.99"/>
<polygon fill="#63b8ff" stroke="#63b8ff" points="292.94,-200.57 284.92,-207.48 295.5,-207.08 292.94,-200.57"/>
</a>
</g>
</g>
<!-- Node4 -->
<g id="Node000004" class="node">
<title>Node4</title>
<g id="a_Node000004"><a xlink:href="sema__inv_8h.html" target="_top" xlink:title="Inverse Semaphore definitions.">
<polygon fill="white" stroke="#666666" points="231.88,-90.25 102.62,-90.25 102.62,-69.5 231.88,-69.5 231.88,-90.25"/>
<text text-anchor="middle" x="167.25" y="-76.75" font-family="Helvetica,sans-Serif" font-size="10.00">sys/include/sema_inv.h</text>
</a>
</g>
</g>
<!-- Node3&#45;&gt;Node4 -->
<g id="edge3_Node000003_Node000004" class="edge">
<title>Node3&#45;&gt;Node4</title>
<g id="a_edge3_Node000003_Node000004"><a xlink:title=" ">
<path fill="none" stroke="#63b8ff" d="M176.22,-121.25C173.82,-110.46 171.22,-98.72 169.43,-90.7"/>
<polygon fill="#63b8ff" stroke="#63b8ff" points="172.78,-121.9 178.37,-130.9 179.61,-120.38 172.78,-121.9"/>
</a>
</g>
</g>
<!-- Node6 -->
<g id="Node000006" class="node">
<title>Node6</title>
<g id="a_Node000006"><a xlink:href="vfs__default_8h.html" target="_top" xlink:title="VFS default mount points.">
<polygon fill="white" stroke="#666666" points="387,-90.25 249.5,-90.25 249.5,-69.5 387,-69.5 387,-90.25"/>
<text text-anchor="middle" x="318.25" y="-76.75" font-family="Helvetica,sans-Serif" font-size="10.00">sys/include/vfs_default.h</text>
</a>
</g>
</g>
<!-- Node5&#45;&gt;Node6 -->
<g id="edge5_Node000005_Node000006" class="edge">
<title>Node5&#45;&gt;Node6</title>
<g id="a_edge5_Node000005_Node000006"><a xlink:title=" ">
<path fill="none" stroke="#63b8ff" d="M307.87,-127.57C310.62,-115.22 313.97,-100.15 316.1,-90.53"/>
<polygon fill="#63b8ff" stroke="#63b8ff" points="304.48,-126.71 305.73,-137.23 311.31,-128.22 304.48,-126.71"/>
</a>
</g>
</g>
<!-- Node7 -->
<g id="Node000007" class="node">
<title>Node7</title>
<g id="a_Node000007"><a xlink:href="suit_2storage_2vfs_8h_source.html" target="_top" xlink:title=" ">
<polygon fill="white" stroke="#666666" points="384,-33.5 252.5,-33.5 252.5,0 384,0 384,-33.5"/>
<text text-anchor="start" x="260.5" y="-20" font-family="Helvetica,sans-Serif" font-size="10.00">sys/include/suit/storage</text>
<text text-anchor="middle" x="318.25" y="-7.25" font-family="Helvetica,sans-Serif" font-size="10.00">/vfs.h</text>
</a>
</g>
</g>
<!-- Node6&#45;&gt;Node7 -->
<g id="edge6_Node000006_Node000007" class="edge">
<title>Node6&#45;&gt;Node7</title>
<g id="a_edge6_Node000006_Node000007"><a xlink:title=" ">
<path fill="none" stroke="#63b8ff" d="M318.25,-57.59C318.25,-49.85 318.25,-41.22 318.25,-33.98"/>
<polygon fill="#63b8ff" stroke="#63b8ff" points="314.75,-57.54 318.25,-67.54 321.75,-57.54 314.75,-57.54"/>
</a>
</g>
</g>
</g>
</svg>
