<?xml version="1.0" encoding="UTF-8" standalone="no"?>
<!DOCTYPE svg PUBLIC "-//W3C//DTD SVG 1.1//EN"
 "http://www.w3.org/Graphics/SVG/1.1/DTD/svg11.dtd">
<!-- Generated by graphviz version 12.1.1 (0)
 -->
<!-- Title: cpu/cortexm_common/include/cpu.h Pages: 1 -->
<svg width="728pt" height="382pt"
 viewBox="0.00 0.00 728.12 382.00" xmlns="http://www.w3.org/2000/svg" xmlns:xlink="http://www.w3.org/1999/xlink">
<g id="graph0" class="graph" transform="scale(1 1) rotate(0) translate(4 378)">
<title>cpu/cortexm_common/include/cpu.h</title>
<!-- Node1 -->
<g id="Node000001" class="node">
<title>Node1</title>
<g id="a_Node000001"><a xlink:title="Basic definitions for the Cortex&#45;M common module.">
<polygon fill="#999999" stroke="#666666" points="385.75,-374 261,-374 261,-340.5 385.75,-340.5 385.75,-374"/>
<text text-anchor="start" x="269" y="-360.5" font-family="Helvetica,sans-Serif" font-size="10.00">cpu/cortexm_common</text>
<text text-anchor="middle" x="323.38" y="-347.75" font-family="Helvetica,sans-Serif" font-size="10.00">/include/cpu.h</text>
</a>
</g>
</g>
<!-- Node2 -->
<g id="Node000002" class="node">
<title>Node2</title>
<g id="a_Node000002"><a xlink:href="stdio_8h.html" target="_top" xlink:title="stdio wrapper to extend the C libs stdio">
<polygon fill="white" stroke="#666666" points="239.88,-304.5 190.88,-304.5 190.88,-283.75 239.88,-283.75 239.88,-304.5"/>
<text text-anchor="middle" x="215.38" y="-291" font-family="Helvetica,sans-Serif" font-size="10.00">stdio.h</text>
</a>
</g>
</g>
<!-- Node1&#45;&gt;Node2 -->
<g id="edge1_Node000001_Node000002" class="edge">
<title>Node1&#45;&gt;Node2</title>
<g id="a_edge1_Node000001_Node000002"><a xlink:title=" ">
<path fill="none" stroke="#63b8ff" d="M294.72,-340.03C278.52,-330.86 258.38,-319.47 242.45,-310.45"/>
<polygon fill="#63b8ff" stroke="#63b8ff" points="244.42,-307.54 233.99,-305.66 240.97,-313.63 244.42,-307.54"/>
</a>
</g>
</g>
<!-- Node5 -->
<g id="Node000005" class="node">
<title>Node5</title>
<g id="a_Node000005"><a xlink:title=" ">
<polygon fill="#e0e0e0" stroke="#999999" points="249.25,-191 181.5,-191 181.5,-170.25 249.25,-170.25 249.25,-191"/>
<text text-anchor="middle" x="215.38" y="-177.5" font-family="Helvetica,sans-Serif" font-size="10.00">cpu_conf.h</text>
</a>
</g>
</g>
<!-- Node1&#45;&gt;Node5 -->
<g id="edge30_Node000001_Node000005" class="edge">
<title>Node1&#45;&gt;Node5</title>
<g id="a_edge30_Node000001_Node000005"><a xlink:title=" ">
<path fill="none" stroke="#63b8ff" d="M317.93,-340.13C308.85,-314.64 288.98,-264.11 262.38,-227 255.02,-216.74 245.17,-206.82 236.39,-198.89"/>
<polygon fill="#63b8ff" stroke="#63b8ff" points="238.77,-196.31 228.92,-192.4 234.18,-201.6 238.77,-196.31"/>
</a>
</g>
</g>
<!-- Node14 -->
<g id="Node000014" class="node">
<title>Node14</title>
<g id="a_Node000014"><a xlink:href="irq_8h.html" target="_top" xlink:title="IRQ driver interface.">
<polygon fill="white" stroke="#666666" points="347.25,-247.75 309.5,-247.75 309.5,-227 347.25,-227 347.25,-247.75"/>
<text text-anchor="middle" x="328.38" y="-234.25" font-family="Helvetica,sans-Serif" font-size="10.00">irq.h</text>
</a>
</g>
</g>
<!-- Node1&#45;&gt;Node14 -->
<g id="edge17_Node000001_Node000014" class="edge">
<title>Node1&#45;&gt;Node14</title>
<g id="a_edge17_Node000001_Node000014"><a xlink:title=" ">
<path fill="none" stroke="#63b8ff" d="M324.05,-340.35C324.94,-319.46 326.49,-282.71 327.48,-259.5"/>
<polygon fill="#63b8ff" stroke="#63b8ff" points="330.97,-259.83 327.89,-249.69 323.97,-259.54 330.97,-259.83"/>
</a>
</g>
</g>
<!-- Node16 -->
<g id="Node000016" class="node">
<title>Node16</title>
<g id="a_Node000016"><a xlink:href="sched_8h.html" target="_top" xlink:title="Scheduler API definition.">
<polygon fill="white" stroke="#666666" points="508.12,-247.75 454.62,-247.75 454.62,-227 508.12,-227 508.12,-247.75"/>
<text text-anchor="middle" x="481.38" y="-234.25" font-family="Helvetica,sans-Serif" font-size="10.00">sched.h</text>
</a>
</g>
</g>
<!-- Node1&#45;&gt;Node16 -->
<g id="edge20_Node000001_Node000016" class="edge">
<title>Node1&#45;&gt;Node16</title>
<g id="a_edge20_Node000001_Node000016"><a xlink:title=" ">
<path fill="none" stroke="#63b8ff" d="M332.71,-340.27C342.76,-324.21 360.06,-299.62 380.38,-283.75 399.16,-269.07 423.45,-257.96 443.5,-250.41"/>
<polygon fill="#63b8ff" stroke="#63b8ff" points="444.5,-253.78 452.72,-247.1 442.13,-247.19 444.5,-253.78"/>
</a>
</g>
</g>
<!-- Node21 -->
<g id="Node000021" class="node">
<title>Node21</title>
<g id="a_Node000021"><a xlink:title=" ">
<polygon fill="#e0e0e0" stroke="#999999" points="445.62,-304.5 389.12,-304.5 389.12,-283.75 445.62,-283.75 445.62,-304.5"/>
<text text-anchor="middle" x="417.38" y="-291" font-family="Helvetica,sans-Serif" font-size="10.00">thread.h</text>
</a>
</g>
</g>
<!-- Node1&#45;&gt;Node21 -->
<g id="edge29_Node000001_Node000021" class="edge">
<title>Node1&#45;&gt;Node21</title>
<g id="a_edge29_Node000001_Node000021"><a xlink:title=" ">
<path fill="none" stroke="#63b8ff" d="M348.07,-340.19C361.9,-331.2 379.09,-320.02 392.89,-311.05"/>
<polygon fill="#63b8ff" stroke="#63b8ff" points="394.5,-314.18 400.97,-305.79 390.68,-308.31 394.5,-314.18"/>
</a>
</g>
</g>
<!-- Node3 -->
<g id="Node000003" class="node">
<title>Node3</title>
<g id="a_Node000003"><a xlink:href="flash__utils_8h.html" target="_top" xlink:title="Utility functions, macros, and types for read&#45;only memory.">
<polygon fill="white" stroke="#666666" points="253,-247.75 177.75,-247.75 177.75,-227 253,-227 253,-247.75"/>
<text text-anchor="middle" x="215.38" y="-234.25" font-family="Helvetica,sans-Serif" font-size="10.00">flash_utils.h</text>
</a>
</g>
</g>
<!-- Node2&#45;&gt;Node3 -->
<g id="edge2_Node000002_Node000003" class="edge">
<title>Node2&#45;&gt;Node3</title>
<g id="a_edge2_Node000002_Node000003"><a xlink:title=" ">
<path fill="none" stroke="#63b8ff" d="M210.06,-283.34C208.79,-276.72 208.36,-267.72 208.78,-259.52"/>
<polygon fill="#63b8ff" stroke="#63b8ff" points="212.26,-259.91 209.91,-249.58 205.3,-259.13 212.26,-259.91"/>
</a>
</g>
</g>
<!-- Node3&#45;&gt;Node2 -->
<g id="edge3_Node000003_Node000002" class="edge">
<title>Node3&#45;&gt;Node2</title>
<g id="a_edge3_Node000003_Node000002"><a xlink:title=" ">
<path fill="none" stroke="#63b8ff" d="M220.67,-248.08C221.97,-254.75 222.4,-263.88 221.96,-272.17"/>
<polygon fill="#63b8ff" stroke="#63b8ff" points="218.51,-271.5 220.86,-281.83 225.47,-272.29 218.51,-271.5"/>
</a>
</g>
</g>
<!-- Node4 -->
<g id="Node000004" class="node">
<title>Node4</title>
<g id="a_Node000004"><a xlink:title=" ">
<polygon fill="#e0e0e0" stroke="#999999" points="163.75,-191 111,-191 111,-170.25 163.75,-170.25 163.75,-191"/>
<text text-anchor="middle" x="137.38" y="-177.5" font-family="Helvetica,sans-Serif" font-size="10.00">string.h</text>
</a>
</g>
</g>
<!-- Node3&#45;&gt;Node4 -->
<g id="edge4_Node000003_Node000004" class="edge">
<title>Node3&#45;&gt;Node4</title>
<g id="a_edge4_Node000003_Node000004"><a xlink:title=" ">
<path fill="none" stroke="#63b8ff" d="M201.43,-226.59C190.01,-218.57 173.61,-207.06 160.26,-197.69"/>
<polygon fill="#63b8ff" stroke="#63b8ff" points="162.63,-195.08 152.44,-192.2 158.61,-200.81 162.63,-195.08"/>
</a>
</g>
</g>
<!-- Node3&#45;&gt;Node5 -->
<g id="edge5_Node000003_Node000005" class="edge">
<title>Node3&#45;&gt;Node5</title>
<g id="a_edge5_Node000003_Node000005"><a xlink:title=" ">
<path fill="none" stroke="#63b8ff" d="M215.38,-226.59C215.38,-219.97 215.38,-210.97 215.38,-202.77"/>
<polygon fill="#63b8ff" stroke="#63b8ff" points="218.88,-202.84 215.38,-192.84 211.88,-202.84 218.88,-202.84"/>
</a>
</g>
</g>
<!-- Node6 -->
<g id="Node000006" class="node">
<title>Node6</title>
<g id="a_Node000006"><a xlink:href="kernel__defines_8h.html" target="_top" xlink:title="Common macros and compiler attributes/pragmas configuration.">
<polygon fill="white" stroke="#666666" points="363.5,-191 267.25,-191 267.25,-170.25 363.5,-170.25 363.5,-191"/>
<text text-anchor="middle" x="315.38" y="-177.5" font-family="Helvetica,sans-Serif" font-size="10.00">kernel_defines.h</text>
</a>
</g>
</g>
<!-- Node3&#45;&gt;Node6 -->
<g id="edge6_Node000003_Node000006" class="edge">
<title>Node3&#45;&gt;Node6</title>
<g id="a_edge6_Node000003_Node000006"><a xlink:title=" ">
<path fill="none" stroke="#63b8ff" d="M233.25,-226.59C248.47,-218.26 270.57,-206.16 288.01,-196.61"/>
<polygon fill="#63b8ff" stroke="#63b8ff" points="289.23,-199.93 296.32,-192.06 285.87,-193.79 289.23,-199.93"/>
</a>
</g>
</g>
<!-- Node7 -->
<g id="Node000007" class="node">
<title>Node7</title>
<g id="a_Node000007"><a xlink:href="modules_8h.html" target="_top" xlink:title="Common macros and compiler attributes/pragmas configuration.">
<polygon fill="white" stroke="#666666" points="348.88,-134.25 281.88,-134.25 281.88,-113.5 348.88,-113.5 348.88,-134.25"/>
<text text-anchor="middle" x="315.38" y="-120.75" font-family="Helvetica,sans-Serif" font-size="10.00">modules.h</text>
</a>
</g>
</g>
<!-- Node6&#45;&gt;Node7 -->
<g id="edge7_Node000006_Node000007" class="edge">
<title>Node6&#45;&gt;Node7</title>
<g id="a_edge7_Node000006_Node000007"><a xlink:title=" ">
<path fill="none" stroke="#63b8ff" d="M315.38,-169.84C315.38,-163.22 315.38,-154.22 315.38,-146.02"/>
<polygon fill="#63b8ff" stroke="#63b8ff" points="318.88,-146.09 315.38,-136.09 311.88,-146.09 318.88,-146.09"/>
</a>
</g>
</g>
<!-- Node8 -->
<g id="Node000008" class="node">
<title>Node8</title>
<g id="a_Node000008"><a xlink:href="riot__version_8h.html" target="_top" xlink:title="Common macros and compiler attributes/pragmas configuration.">
<polygon fill="white" stroke="#666666" points="82.75,-77.5 0,-77.5 0,-56.75 82.75,-56.75 82.75,-77.5"/>
<text text-anchor="middle" x="41.38" y="-64" font-family="Helvetica,sans-Serif" font-size="10.00">riot_version.h</text>
</a>
</g>
</g>
<!-- Node6&#45;&gt;Node8 -->
<g id="edge8_Node000006_Node000008" class="edge">
<title>Node6&#45;&gt;Node8</title>
<g id="a_edge8_Node000006_Node000008"><a xlink:title=" ">
<path fill="none" stroke="#63b8ff" d="M266.94,-171.33C196.12,-159.11 72.23,-137.39 68.38,-134.25 54.69,-123.13 47.88,-103.96 44.53,-89.12"/>
<polygon fill="#63b8ff" stroke="#63b8ff" points="47.99,-88.62 42.73,-79.43 41.11,-89.9 47.99,-88.62"/>
</a>
</g>
</g>
<!-- Node10 -->
<g id="Node000010" class="node">
<title>Node10</title>
<g id="a_Node000010"><a xlink:href="compiler__hints_8h.html" target="_top" xlink:title="Common macros and compiler attributes/pragmas configuration.">
<polygon fill="white" stroke="#666666" points="174.88,-134.25 77.88,-134.25 77.88,-113.5 174.88,-113.5 174.88,-134.25"/>
<text text-anchor="middle" x="126.38" y="-120.75" font-family="Helvetica,sans-Serif" font-size="10.00">compiler_hints.h</text>
</a>
</g>
</g>
<!-- Node6&#45;&gt;Node10 -->
<g id="edge10_Node000006_Node000010" class="edge">
<title>Node6&#45;&gt;Node10</title>
<g id="a_edge10_Node000006_Node000010"><a xlink:title=" ">
<path fill="none" stroke="#63b8ff" d="M281.59,-169.84C250.77,-160.91 205.03,-147.66 171.18,-137.85"/>
<polygon fill="#63b8ff" stroke="#63b8ff" points="172.22,-134.51 161.64,-135.09 170.27,-141.24 172.22,-134.51"/>
</a>
</g>
</g>
<!-- Node12 -->
<g id="Node000012" class="node">
<title>Node12</title>
<g id="a_Node000012"><a xlink:href="container_8h.html" target="_top" xlink:title="Common macros and compiler attributes/pragmas configuration.">
<polygon fill="white" stroke="#666666" points="263.75,-134.25 193,-134.25 193,-113.5 263.75,-113.5 263.75,-134.25"/>
<text text-anchor="middle" x="228.38" y="-120.75" font-family="Helvetica,sans-Serif" font-size="10.00">container.h</text>
</a>
</g>
</g>
<!-- Node6&#45;&gt;Node12 -->
<g id="edge14_Node000006_Node000012" class="edge">
<title>Node6&#45;&gt;Node12</title>
<g id="a_edge14_Node000006_Node000012"><a xlink:title=" ">
<path fill="none" stroke="#63b8ff" d="M299.82,-169.84C286.95,-161.74 268.43,-150.08 253.47,-140.67"/>
<polygon fill="#63b8ff" stroke="#63b8ff" points="255.4,-137.75 245.08,-135.38 251.67,-143.67 255.4,-137.75"/>
</a>
</g>
</g>
<!-- Node9 -->
<g id="Node000009" class="node">
<title>Node9</title>
<g id="a_Node000009"><a xlink:title=" ">
<polygon fill="#e0e0e0" stroke="#999999" points="182.75,-20.75 130,-20.75 130,0 182.75,0 182.75,-20.75"/>
<text text-anchor="middle" x="156.38" y="-7.25" font-family="Helvetica,sans-Serif" font-size="10.00">stdint.h</text>
</a>
</g>
</g>
<!-- Node8&#45;&gt;Node9 -->
<g id="edge9_Node000008_Node000009" class="edge">
<title>Node8&#45;&gt;Node9</title>
<g id="a_edge9_Node000008_Node000009"><a xlink:title=" ">
<path fill="none" stroke="#63b8ff" d="M61.93,-56.34C79.68,-47.89 105.56,-35.57 125.74,-25.96"/>
<polygon fill="#63b8ff" stroke="#63b8ff" points="127.1,-29.19 134.63,-21.73 124.09,-22.87 127.1,-29.19"/>
</a>
</g>
</g>
<!-- Node10&#45;&gt;Node9 -->
<g id="edge13_Node000010_Node000009" class="edge">
<title>Node10&#45;&gt;Node9</title>
<g id="a_edge13_Node000010_Node000009"><a xlink:title=" ">
<path fill="none" stroke="#63b8ff" d="M138.18,-113.09C147.29,-104.73 159.18,-91.79 164.38,-77.5 169.7,-62.86 167.2,-45.31 163.64,-31.97"/>
<polygon fill="#63b8ff" stroke="#63b8ff" points="167.02,-31.06 160.72,-22.55 160.34,-33.14 167.02,-31.06"/>
</a>
</g>
</g>
<!-- Node11 -->
<g id="Node000011" class="node">
<title>Node11</title>
<g id="a_Node000011"><a xlink:href="assert_8h.html" target="_top" xlink:title="POSIX.1&#45;2008 compliant version of the assert macro.">
<polygon fill="white" stroke="#666666" points="155.88,-77.5 100.88,-77.5 100.88,-56.75 155.88,-56.75 155.88,-77.5"/>
<text text-anchor="middle" x="128.38" y="-64" font-family="Helvetica,sans-Serif" font-size="10.00">assert.h</text>
</a>
</g>
</g>
<!-- Node10&#45;&gt;Node11 -->
<g id="edge11_Node000010_Node000011" class="edge">
<title>Node10&#45;&gt;Node11</title>
<g id="a_edge11_Node000010_Node000011"><a xlink:title=" ">
<path fill="none" stroke="#63b8ff" d="M126.73,-113.09C126.97,-106.47 127.3,-97.47 127.6,-89.27"/>
<polygon fill="#63b8ff" stroke="#63b8ff" points="131.1,-89.46 127.97,-79.34 124.1,-89.21 131.1,-89.46"/>
</a>
</g>
</g>
<!-- Node11&#45;&gt;Node9 -->
<g id="edge12_Node000011_Node000009" class="edge">
<title>Node11&#45;&gt;Node9</title>
<g id="a_edge12_Node000011_Node000009"><a xlink:title=" ">
<path fill="none" stroke="#63b8ff" d="M133.38,-56.34C136.96,-49.33 141.91,-39.66 146.3,-31.08"/>
<polygon fill="#63b8ff" stroke="#63b8ff" points="149.29,-32.92 150.72,-22.43 143.05,-29.74 149.29,-32.92"/>
</a>
</g>
</g>
<!-- Node12&#45;&gt;Node9 -->
<g id="edge16_Node000012_Node000009" class="edge">
<title>Node12&#45;&gt;Node9</title>
<g id="a_edge16_Node000012_Node000009"><a xlink:title=" ">
<path fill="none" stroke="#63b8ff" d="M222.24,-113.37C210.45,-95.11 184.42,-54.81 168.85,-30.7"/>
<polygon fill="#63b8ff" stroke="#63b8ff" points="171.89,-28.95 163.52,-22.45 166.01,-32.75 171.89,-28.95"/>
</a>
</g>
</g>
<!-- Node13 -->
<g id="Node000013" class="node">
<title>Node13</title>
<g id="a_Node000013"><a xlink:title=" ">
<polygon fill="#e0e0e0" stroke="#999999" points="483.88,-77.5 428.88,-77.5 428.88,-56.75 483.88,-56.75 483.88,-77.5"/>
<text text-anchor="middle" x="456.38" y="-64" font-family="Helvetica,sans-Serif" font-size="10.00">stddef.h</text>
</a>
</g>
</g>
<!-- Node12&#45;&gt;Node13 -->
<g id="edge15_Node000012_Node000013" class="edge">
<title>Node12&#45;&gt;Node13</title>
<g id="a_edge15_Node000012_Node000013"><a xlink:title=" ">
<path fill="none" stroke="#63b8ff" d="M264,-114.32C305.65,-104.32 374.34,-87.82 417.38,-77.49"/>
<polygon fill="#63b8ff" stroke="#63b8ff" points="418.15,-80.9 427.06,-75.16 416.52,-74.1 418.15,-80.9"/>
</a>
</g>
</g>
<!-- Node14&#45;&gt;Node5 -->
<g id="edge19_Node000014_Node000005" class="edge">
<title>Node14&#45;&gt;Node5</title>
<g id="a_edge19_Node000014_Node000005"><a xlink:title=" ">
<path fill="none" stroke="#63b8ff" d="M309.21,-227.09C291.81,-218.66 265.86,-206.08 245.65,-196.3"/>
<polygon fill="#63b8ff" stroke="#63b8ff" points="247.29,-193.2 236.76,-191.99 244.24,-199.5 247.29,-193.2"/>
</a>
</g>
</g>
<!-- Node15 -->
<g id="Node000015" class="node">
<title>Node15</title>
<g id="a_Node000015"><a xlink:title=" ">
<polygon fill="#e0e0e0" stroke="#999999" points="427.88,-134.25 366.88,-134.25 366.88,-113.5 427.88,-113.5 427.88,-134.25"/>
<text text-anchor="middle" x="397.38" y="-120.75" font-family="Helvetica,sans-Serif" font-size="10.00">stdbool.h</text>
</a>
</g>
</g>
<!-- Node14&#45;&gt;Node15 -->
<g id="edge18_Node000014_Node000015" class="edge">
<title>Node14&#45;&gt;Node15</title>
<g id="a_edge18_Node000014_Node000015"><a xlink:title=" ">
<path fill="none" stroke="#63b8ff" d="M340.22,-226.63C349.96,-218.09 363.55,-204.9 372.38,-191 381.34,-176.88 387.85,-159.05 391.97,-145.47"/>
<polygon fill="#63b8ff" stroke="#63b8ff" points="395.33,-146.45 394.68,-135.87 388.59,-144.54 395.33,-146.45"/>
</a>
</g>
</g>
<!-- Node16&#45;&gt;Node6 -->
<g id="edge23_Node000016_Node000006" class="edge">
<title>Node16&#45;&gt;Node6</title>
<g id="a_edge23_Node000016_Node000006"><a xlink:title=" ">
<path fill="none" stroke="#63b8ff" d="M454.33,-227.46C427.66,-218.66 386.55,-205.1 355.96,-195.01"/>
<polygon fill="#63b8ff" stroke="#63b8ff" points="357.24,-191.75 346.65,-191.94 355.05,-198.4 357.24,-191.75"/>
</a>
</g>
</g>
<!-- Node16&#45;&gt;Node13 -->
<g id="edge21_Node000016_Node000013" class="edge">
<title>Node16&#45;&gt;Node13</title>
<g id="a_edge21_Node000016_Node000013"><a xlink:title=" ">
<path fill="none" stroke="#63b8ff" d="M479.96,-226.85C476.04,-200.48 464.99,-126.08 459.52,-89.28"/>
<polygon fill="#63b8ff" stroke="#63b8ff" points="462.99,-88.84 458.06,-79.46 456.07,-89.87 462.99,-88.84"/>
</a>
</g>
</g>
<!-- Node17 -->
<g id="Node000017" class="node">
<title>Node17</title>
<g id="a_Node000017"><a xlink:href="inttypes_8h.html" target="_top" xlink:title="Adds include for missing inttype definitions.">
<polygon fill="white" stroke="#666666" points="612.75,-191 548,-191 548,-170.25 612.75,-170.25 612.75,-191"/>
<text text-anchor="middle" x="580.38" y="-177.5" font-family="Helvetica,sans-Serif" font-size="10.00">inttypes.h</text>
</a>
</g>
</g>
<!-- Node16&#45;&gt;Node17 -->
<g id="edge22_Node000016_Node000017" class="edge">
<title>Node16&#45;&gt;Node17</title>
<g id="a_edge22_Node000016_Node000017"><a xlink:title=" ">
<path fill="none" stroke="#63b8ff" d="M499.07,-226.59C514,-218.33 535.61,-206.38 552.8,-196.88"/>
<polygon fill="#63b8ff" stroke="#63b8ff" points="554.45,-199.96 561.5,-192.06 551.06,-193.84 554.45,-199.96"/>
</a>
</g>
</g>
<!-- Node18 -->
<g id="Node000018" class="node">
<title>Node18</title>
<g id="a_Node000018"><a xlink:href="native__sched_8h.html" target="_top" xlink:title="Add definitions required on the native board.">
<polygon fill="white" stroke="#666666" points="720.12,-191 630.62,-191 630.62,-170.25 720.12,-170.25 720.12,-191"/>
<text text-anchor="middle" x="675.38" y="-177.5" font-family="Helvetica,sans-Serif" font-size="10.00">native_sched.h</text>
</a>
</g>
</g>
<!-- Node16&#45;&gt;Node18 -->
<g id="edge24_Node000016_Node000018" class="edge">
<title>Node16&#45;&gt;Node18</title>
<g id="a_edge24_Node000016_Node000018"><a xlink:title=" ">
<path fill="none" stroke="#63b8ff" d="M508.35,-228.76C539.72,-219.91 592,-205.16 629.72,-194.51"/>
<polygon fill="#63b8ff" stroke="#63b8ff" points="630.3,-197.98 638.98,-191.9 628.4,-191.25 630.3,-197.98"/>
</a>
</g>
</g>
<!-- Node19 -->
<g id="Node000019" class="node">
<title>Node19</title>
<g id="a_Node000019"><a xlink:href="clist_8h.html" target="_top" xlink:title="Circular linked list.">
<polygon fill="white" stroke="#666666" points="530,-191 484.75,-191 484.75,-170.25 530,-170.25 530,-191"/>
<text text-anchor="middle" x="507.38" y="-177.5" font-family="Helvetica,sans-Serif" font-size="10.00">clist.h</text>
</a>
</g>
</g>
<!-- Node16&#45;&gt;Node19 -->
<g id="edge25_Node000016_Node000019" class="edge">
<title>Node16&#45;&gt;Node19</title>
<g id="a_edge25_Node000016_Node000019"><a xlink:title=" ">
<path fill="none" stroke="#63b8ff" d="M486.02,-226.59C489.31,-219.66 493.84,-210.12 497.88,-201.61"/>
<polygon fill="#63b8ff" stroke="#63b8ff" points="500.99,-203.23 502.12,-192.7 494.67,-200.23 500.99,-203.23"/>
</a>
</g>
</g>
<!-- Node19&#45;&gt;Node13 -->
<g id="edge27_Node000019_Node000013" class="edge">
<title>Node19&#45;&gt;Node13</title>
<g id="a_edge27_Node000019_Node000013"><a xlink:title=" ">
<path fill="none" stroke="#63b8ff" d="M503.03,-170.12C494.75,-152.02 476.57,-112.28 465.51,-88.1"/>
<polygon fill="#63b8ff" stroke="#63b8ff" points="468.83,-86.94 461.49,-79.3 462.46,-89.85 468.83,-86.94"/>
</a>
</g>
</g>
<!-- Node19&#45;&gt;Node15 -->
<g id="edge26_Node000019_Node000015" class="edge">
<title>Node19&#45;&gt;Node15</title>
<g id="a_edge26_Node000019_Node000015"><a xlink:title=" ">
<path fill="none" stroke="#63b8ff" d="M487.71,-169.84C470.82,-161.43 446.21,-149.18 426.94,-139.59"/>
<polygon fill="#63b8ff" stroke="#63b8ff" points="428.74,-136.58 418.23,-135.25 425.62,-142.84 428.74,-136.58"/>
</a>
</g>
</g>
<!-- Node20 -->
<g id="Node000020" class="node">
<title>Node20</title>
<g id="a_Node000020"><a xlink:href="list_8h.html" target="_top" xlink:title="Intrusive linked list.">
<polygon fill="white" stroke="#666666" points="562.38,-134.25 522.38,-134.25 522.38,-113.5 562.38,-113.5 562.38,-134.25"/>
<text text-anchor="middle" x="542.38" y="-120.75" font-family="Helvetica,sans-Serif" font-size="10.00">list.h</text>
</a>
</g>
</g>
<!-- Node19&#45;&gt;Node20 -->
<g id="edge28_Node000019_Node000020" class="edge">
<title>Node19&#45;&gt;Node20</title>
<g id="a_edge28_Node000019_Node000020"><a xlink:title=" ">
<path fill="none" stroke="#63b8ff" d="M513.63,-169.84C518.21,-162.67 524.57,-152.73 530.14,-144.01"/>
<polygon fill="#63b8ff" stroke="#63b8ff" points="532.92,-146.16 535.36,-135.85 527.02,-142.39 532.92,-146.16"/>
</a>
</g>
</g>
</g>
</svg>
