<?xml version="1.0" encoding="UTF-8" standalone="no"?>
<!DOCTYPE svg PUBLIC "-//W3C//DTD SVG 1.1//EN"
 "http://www.w3.org/Graphics/SVG/1.1/DTD/svg11.dtd">
<!-- Generated by graphviz version 12.1.1 (0)
 -->
<!-- Title: sys/include/cppunit.hpp Pages: 1 -->
<svg width="506pt" height="142pt"
 viewBox="0.00 0.00 505.62 142.25" xmlns="http://www.w3.org/2000/svg" xmlns:xlink="http://www.w3.org/1999/xlink">
<g id="graph0" class="graph" transform="scale(1 1) rotate(0) translate(4 138.25)">
<title>sys/include/cppunit.hpp</title>
<!-- Node1 -->
<g id="Node000001" class="node">
<title>Node1</title>
<g id="a_Node000001"><a xlink:title="RIOT unit tests for C++.">
<polygon fill="#999999" stroke="#666666" points="342.12,-134.25 211.38,-134.25 211.38,-113.5 342.12,-113.5 342.12,-134.25"/>
<text text-anchor="middle" x="276.75" y="-120.75" font-family="Helvetica,sans-Serif" font-size="10.00">sys/include/cppunit.hpp</text>
</a>
</g>
</g>
<!-- Node2 -->
<g id="Node000002" class="node">
<title>Node2</title>
<g id="a_Node000002"><a xlink:href="cppunit__base_8hpp.html" target="_top" xlink:title="RIOT unit tests for C++ base classes and macros.">
<polygon fill="white" stroke="#666666" points="184,-77.5 43.5,-77.5 43.5,-56.75 184,-56.75 184,-77.5"/>
<text text-anchor="middle" x="113.75" y="-64" font-family="Helvetica,sans-Serif" font-size="10.00">cppunit/cppunit_base.hpp</text>
</a>
</g>
</g>
<!-- Node1&#45;&gt;Node2 -->
<g id="edge1_Node000001_Node000002" class="edge">
<title>Node1&#45;&gt;Node2</title>
<g id="a_edge1_Node000001_Node000002"><a xlink:title=" ">
<path fill="none" stroke="#63b8ff" d="M247.61,-113.09C221.38,-104.28 182.61,-91.25 153.54,-81.49"/>
<polygon fill="#63b8ff" stroke="#63b8ff" points="154.94,-78.27 144.35,-78.4 152.71,-84.9 154.94,-78.27"/>
</a>
</g>
</g>
<!-- Node7 -->
<g id="Node000007" class="node">
<title>Node7</title>
<g id="a_Node000007"><a xlink:href="cppunit__expect_8hpp.html" target="_top" xlink:title="RIOT unit tests for C++ assertion macros.">
<polygon fill="white" stroke="#666666" points="351.88,-77.5 201.62,-77.5 201.62,-56.75 351.88,-56.75 351.88,-77.5"/>
<text text-anchor="middle" x="276.75" y="-64" font-family="Helvetica,sans-Serif" font-size="10.00">cppunit/cppunit_expect.hpp</text>
</a>
</g>
</g>
<!-- Node1&#45;&gt;Node7 -->
<g id="edge6_Node000001_Node000007" class="edge">
<title>Node1&#45;&gt;Node7</title>
<g id="a_edge6_Node000001_Node000007"><a xlink:title=" ">
<path fill="none" stroke="#63b8ff" d="M276.75,-113.09C276.75,-106.47 276.75,-97.47 276.75,-89.27"/>
<polygon fill="#63b8ff" stroke="#63b8ff" points="280.25,-89.34 276.75,-79.34 273.25,-89.34 280.25,-89.34"/>
</a>
</g>
</g>
<!-- Node8 -->
<g id="Node000008" class="node">
<title>Node8</title>
<g id="a_Node000008"><a xlink:href="cppunit__fff_8hpp.html" target="_top" xlink:title="RIOT unit tests for C++ assertion macros for Fake Functions Framework.">
<polygon fill="white" stroke="#666666" points="497.62,-77.5 369.88,-77.5 369.88,-56.75 497.62,-56.75 497.62,-77.5"/>
<text text-anchor="middle" x="433.75" y="-64" font-family="Helvetica,sans-Serif" font-size="10.00">cppunit/cppunit_fff.hpp</text>
</a>
</g>
</g>
<!-- Node1&#45;&gt;Node8 -->
<g id="edge7_Node000001_Node000008" class="edge">
<title>Node1&#45;&gt;Node8</title>
<g id="a_edge7_Node000001_Node000008"><a xlink:title=" ">
<path fill="none" stroke="#63b8ff" d="M304.82,-113.09C329.97,-104.32 367.1,-91.37 395.06,-81.62"/>
<polygon fill="#63b8ff" stroke="#63b8ff" points="395.94,-85.02 404.23,-78.42 393.64,-78.41 395.94,-85.02"/>
</a>
</g>
</g>
<!-- Node3 -->
<g id="Node000003" class="node">
<title>Node3</title>
<g id="a_Node000003"><a xlink:title=" ">
<polygon fill="#e0e0e0" stroke="#999999" points="41.5,-20.75 0,-20.75 0,0 41.5,0 41.5,-20.75"/>
<text text-anchor="middle" x="20.75" y="-7.25" font-family="Helvetica,sans-Serif" font-size="10.00">array</text>
</a>
</g>
</g>
<!-- Node2&#45;&gt;Node3 -->
<g id="edge2_Node000002_Node000003" class="edge">
<title>Node2&#45;&gt;Node3</title>
<g id="a_edge2_Node000002_Node000003"><a xlink:title=" ">
<path fill="none" stroke="#63b8ff" d="M97.12,-56.34C83.24,-48.16 63.19,-36.36 47.12,-26.9"/>
<polygon fill="#63b8ff" stroke="#63b8ff" points="48.93,-23.9 38.54,-21.85 45.38,-29.94 48.93,-23.9"/>
</a>
</g>
</g>
<!-- Node4 -->
<g id="Node000004" class="node">
<title>Node4</title>
<g id="a_Node000004"><a xlink:title=" ">
<polygon fill="#e0e0e0" stroke="#999999" points="104.38,-20.75 59.12,-20.75 59.12,0 104.38,0 104.38,-20.75"/>
<text text-anchor="middle" x="81.75" y="-7.25" font-family="Helvetica,sans-Serif" font-size="10.00">cstdio</text>
</a>
</g>
</g>
<!-- Node2&#45;&gt;Node4 -->
<g id="edge3_Node000002_Node000004" class="edge">
<title>Node2&#45;&gt;Node4</title>
<g id="a_edge3_Node000002_Node000004"><a xlink:title=" ">
<path fill="none" stroke="#63b8ff" d="M108.03,-56.34C103.89,-49.25 98.15,-39.44 93.1,-30.79"/>
<polygon fill="#63b8ff" stroke="#63b8ff" points="96.25,-29.25 88.19,-22.39 90.21,-32.78 96.25,-29.25"/>
</a>
</g>
</g>
<!-- Node5 -->
<g id="Node000005" class="node">
<title>Node5</title>
<g id="a_Node000005"><a xlink:title=" ">
<polygon fill="#e0e0e0" stroke="#999999" points="171.25,-20.75 122.25,-20.75 122.25,0 171.25,0 171.25,-20.75"/>
<text text-anchor="middle" x="146.75" y="-7.25" font-family="Helvetica,sans-Serif" font-size="10.00">cstring</text>
</a>
</g>
</g>
<!-- Node2&#45;&gt;Node5 -->
<g id="edge4_Node000002_Node000005" class="edge">
<title>Node2&#45;&gt;Node5</title>
<g id="a_edge4_Node000002_Node000005"><a xlink:title=" ">
<path fill="none" stroke="#63b8ff" d="M119.65,-56.34C123.92,-49.25 129.83,-39.44 135.05,-30.79"/>
<polygon fill="#63b8ff" stroke="#63b8ff" points="137.96,-32.75 140.12,-22.37 131.96,-29.13 137.96,-32.75"/>
</a>
</g>
</g>
<!-- Node6 -->
<g id="Node000006" class="node">
<title>Node6</title>
<g id="a_Node000006"><a xlink:title=" ">
<polygon fill="#e0e0e0" stroke="#999999" points="258,-20.75 189.5,-20.75 189.5,0 258,0 258,-20.75"/>
<text text-anchor="middle" x="223.75" y="-7.25" font-family="Helvetica,sans-Serif" font-size="10.00">type_traits</text>
</a>
</g>
</g>
<!-- Node2&#45;&gt;Node6 -->
<g id="edge5_Node000002_Node000006" class="edge">
<title>Node2&#45;&gt;Node6</title>
<g id="a_edge5_Node000002_Node000006"><a xlink:title=" ">
<path fill="none" stroke="#63b8ff" d="M133.42,-56.34C150.31,-47.93 174.92,-35.68 194.18,-26.09"/>
<polygon fill="#63b8ff" stroke="#63b8ff" points="195.51,-29.34 202.9,-21.75 192.39,-23.08 195.51,-29.34"/>
</a>
</g>
</g>
</g>
</svg>
