<?xml version="1.0" encoding="UTF-8" standalone="no"?>
<!DOCTYPE svg PUBLIC "-//W3C//DTD SVG 1.1//EN"
 "http://www.w3.org/Graphics/SVG/1.1/DTD/svg11.dtd">
<!-- Generated by graphviz version 12.1.1 (0)
 -->
<!-- Title: cpu/stm32/include/periph/cpu_timer.h Pages: 1 -->
<svg width="298pt" height="250pt"
 viewBox="0.00 0.00 298.38 250.00" xmlns="http://www.w3.org/2000/svg" xmlns:xlink="http://www.w3.org/1999/xlink">
<g id="graph0" class="graph" transform="scale(1 1) rotate(0) translate(4 246)">
<title>cpu/stm32/include/periph/cpu_timer.h</title>
<!-- Node1 -->
<g id="Node000001" class="node">
<title>Node1</title>
<g id="a_Node000001"><a xlink:title="Timer CPU specific definitions for the STM32 family.">
<polygon fill="#999999" stroke="#666666" points="211.12,-242 72.12,-242 72.12,-208.5 211.12,-208.5 211.12,-242"/>
<text text-anchor="start" x="80.12" y="-228.5" font-family="Helvetica,sans-Serif" font-size="10.00">cpu/stm32/include/periph</text>
<text text-anchor="middle" x="141.62" y="-215.75" font-family="Helvetica,sans-Serif" font-size="10.00">/cpu_timer.h</text>
</a>
</g>
</g>
<!-- Node2 -->
<g id="Node000002" class="node">
<title>Node2</title>
<g id="a_Node000002"><a xlink:href="cpu__pwm_8h.html" target="_top" xlink:title="PWM CPU specific definitions for the STM32 family.">
<polygon fill="white" stroke="#666666" points="162.12,-172.5 23.12,-172.5 23.12,-139 162.12,-139 162.12,-172.5"/>
<text text-anchor="start" x="31.12" y="-159" font-family="Helvetica,sans-Serif" font-size="10.00">cpu/stm32/include/periph</text>
<text text-anchor="middle" x="92.62" y="-146.25" font-family="Helvetica,sans-Serif" font-size="10.00">/cpu_pwm.h</text>
</a>
</g>
</g>
<!-- Node1&#45;&gt;Node2 -->
<g id="edge1_Node000001_Node000002" class="edge">
<title>Node1&#45;&gt;Node2</title>
<g id="a_edge1_Node000001_Node000002"><a xlink:title=" ">
<path fill="none" stroke="#63b8ff" d="M123.36,-199.09C116.93,-190.23 109.88,-180.52 104.15,-172.63"/>
<polygon fill="#63b8ff" stroke="#63b8ff" points="120.42,-200.99 129.12,-207.03 126.08,-196.88 120.42,-200.99"/>
</a>
</g>
</g>
<!-- Node3 -->
<g id="Node000003" class="node">
<title>Node3</title>
<g id="a_Node000003"><a xlink:href="stm32_2include_2periph__cpu_8h.html" target="_top" xlink:title="Shared CPU specific definitions for the STM32 family.">
<polygon fill="white" stroke="#666666" points="211.12,-103 72.12,-103 72.12,-69.5 211.12,-69.5 211.12,-103"/>
<text text-anchor="start" x="80.12" y="-89.5" font-family="Helvetica,sans-Serif" font-size="10.00">cpu/stm32/include/periph</text>
<text text-anchor="middle" x="141.62" y="-76.75" font-family="Helvetica,sans-Serif" font-size="10.00">_cpu.h</text>
</a>
</g>
</g>
<!-- Node1&#45;&gt;Node3 -->
<g id="edge5_Node000001_Node000003" class="edge">
<title>Node1&#45;&gt;Node3</title>
<g id="a_edge5_Node000001_Node000003"><a xlink:title=" ">
<path fill="none" stroke="#63b8ff" d="M160.2,-198.31C164.87,-190.4 169.22,-181.43 171.62,-172.5 175.49,-158.12 175.49,-153.38 171.62,-139 168.17,-126.16 160.67,-113.23 154.04,-103.5"/>
<polygon fill="#63b8ff" stroke="#63b8ff" points="157.26,-196.41 154.85,-206.73 163.17,-200.17 157.26,-196.41"/>
</a>
</g>
</g>
<!-- Node2&#45;&gt;Node3 -->
<g id="edge2_Node000002_Node000003" class="edge">
<title>Node2&#45;&gt;Node3</title>
<g id="a_edge2_Node000002_Node000003"><a xlink:title=" ">
<path fill="none" stroke="#63b8ff" d="M110.89,-129.59C117.32,-120.73 124.37,-111.02 130.1,-103.13"/>
<polygon fill="#63b8ff" stroke="#63b8ff" points="108.17,-127.38 105.13,-137.53 113.83,-131.49 108.17,-127.38"/>
</a>
</g>
</g>
<!-- Node4 -->
<g id="Node000004" class="node">
<title>Node4</title>
<g id="a_Node000004"><a xlink:href="stm32_2include_2gpio__ll__arch_8h.html" target="_top" xlink:title="CPU specific part of the Peripheral GPIO Low&#45;Level API.">
<polygon fill="white" stroke="#666666" points="129.25,-33.5 0,-33.5 0,0 129.25,0 129.25,-33.5"/>
<text text-anchor="start" x="8" y="-20" font-family="Helvetica,sans-Serif" font-size="10.00">cpu/stm32/include/gpio</text>
<text text-anchor="middle" x="64.62" y="-7.25" font-family="Helvetica,sans-Serif" font-size="10.00">_ll_arch.h</text>
</a>
</g>
</g>
<!-- Node3&#45;&gt;Node4 -->
<g id="edge3_Node000003_Node000004" class="edge">
<title>Node3&#45;&gt;Node4</title>
<g id="a_edge3_Node000003_Node000004"><a xlink:title=" ">
<path fill="none" stroke="#63b8ff" d="M114.92,-61.84C104.38,-52.6 92.55,-42.23 83.01,-33.87"/>
<polygon fill="#63b8ff" stroke="#63b8ff" points="112.41,-64.3 122.24,-68.26 117.03,-59.03 112.41,-64.3"/>
</a>
</g>
</g>
<!-- Node5 -->
<g id="Node000005" class="node">
<title>Node5</title>
<g id="a_Node000005"><a xlink:href="usbdev__stm32_8h.html" target="_top" xlink:title="USB interface functions for the stm32 OTG FS/HS class devices.">
<polygon fill="white" stroke="#666666" points="290.38,-33.5 146.88,-33.5 146.88,0 290.38,0 290.38,-33.5"/>
<text text-anchor="start" x="154.88" y="-20" font-family="Helvetica,sans-Serif" font-size="10.00">cpu/stm32/include/usbdev</text>
<text text-anchor="middle" x="218.62" y="-7.25" font-family="Helvetica,sans-Serif" font-size="10.00">_stm32.h</text>
</a>
</g>
</g>
<!-- Node3&#45;&gt;Node5 -->
<g id="edge4_Node000003_Node000005" class="edge">
<title>Node3&#45;&gt;Node5</title>
<g id="a_edge4_Node000003_Node000005"><a xlink:title=" ">
<path fill="none" stroke="#63b8ff" d="M168.33,-61.84C178.87,-52.6 190.7,-42.23 200.24,-33.87"/>
<polygon fill="#63b8ff" stroke="#63b8ff" points="166.22,-59.03 161.01,-68.26 170.84,-64.3 166.22,-59.03"/>
</a>
</g>
</g>
</g>
</svg>
