<?xml version="1.0" encoding="UTF-8" standalone="no"?>
<!DOCTYPE svg PUBLIC "-//W3C//DTD SVG 1.1//EN"
 "http://www.w3.org/Graphics/SVG/1.1/DTD/svg11.dtd">
<!-- Generated by graphviz version 12.1.1 (0)
 -->
<!-- Title: cpu/esp32/include/sdkconfig.h Pages: 1 -->
<svg width="614pt" height="98pt"
 viewBox="0.00 0.00 613.50 98.25" xmlns="http://www.w3.org/2000/svg" xmlns:xlink="http://www.w3.org/1999/xlink">
<g id="graph0" class="graph" transform="scale(1 1) rotate(0) translate(4 94.25)">
<title>cpu/esp32/include/sdkconfig.h</title>
<!-- Node1 -->
<g id="Node000001" class="node">
<title>Node1</title>
<g id="a_Node000001"><a xlink:title="SDK configuration used by ESP&#45;IDF for all ESP32x SoC variants (families)">
<polygon fill="#999999" stroke="#666666" points="384.25,-90.25 221.25,-90.25 221.25,-69.5 384.25,-69.5 384.25,-90.25"/>
<text text-anchor="middle" x="302.75" y="-76.75" font-family="Helvetica,sans-Serif" font-size="10.00">cpu/esp32/include/sdkconfig.h</text>
</a>
</g>
</g>
<!-- Node2 -->
<g id="Node000002" class="node">
<title>Node2</title>
<g id="a_Node000002"><a xlink:href="esp32_2include_2periph__cpu_8h.html" target="_top" xlink:title="Peripheral configuration that is common for all ESP32x SoCs.">
<polygon fill="white" stroke="#666666" points="137.5,-33.5 0,-33.5 0,0 137.5,0 137.5,-33.5"/>
<text text-anchor="start" x="8" y="-20" font-family="Helvetica,sans-Serif" font-size="10.00">cpu/esp32/include/periph</text>
<text text-anchor="middle" x="68.75" y="-7.25" font-family="Helvetica,sans-Serif" font-size="10.00">_cpu.h</text>
</a>
</g>
</g>
<!-- Node1&#45;&gt;Node2 -->
<g id="edge1_Node000001_Node000002" class="edge">
<title>Node1&#45;&gt;Node2</title>
<g id="a_edge1_Node000001_Node000002"><a xlink:title=" ">
<path fill="none" stroke="#63b8ff" d="M254.04,-66.15C218.29,-56.81 169.46,-44.06 130.9,-33.98"/>
<polygon fill="#63b8ff" stroke="#63b8ff" points="253.13,-69.53 263.69,-68.67 254.9,-62.76 253.13,-69.53"/>
</a>
</g>
</g>
<!-- Node3 -->
<g id="Node000003" class="node">
<title>Node3</title>
<g id="a_Node000003"><a xlink:href="periph__cpu__esp32_8h.html" target="_top" xlink:title="ESP32 specific peripheral configuration.">
<polygon fill="white" stroke="#666666" points="293.5,-33.5 156,-33.5 156,0 293.5,0 293.5,-33.5"/>
<text text-anchor="start" x="164" y="-20" font-family="Helvetica,sans-Serif" font-size="10.00">cpu/esp32/include/periph</text>
<text text-anchor="middle" x="224.75" y="-7.25" font-family="Helvetica,sans-Serif" font-size="10.00">_cpu_esp32.h</text>
</a>
</g>
</g>
<!-- Node1&#45;&gt;Node3 -->
<g id="edge2_Node000001_Node000003" class="edge">
<title>Node1&#45;&gt;Node3</title>
<g id="a_edge2_Node000001_Node000003"><a xlink:title=" ">
<path fill="none" stroke="#63b8ff" d="M281.16,-61.96C270.02,-53.22 256.48,-42.62 245.47,-33.98"/>
<polygon fill="#63b8ff" stroke="#63b8ff" points="279,-64.71 289.03,-68.12 283.31,-59.2 279,-64.71"/>
</a>
</g>
</g>
<!-- Node4 -->
<g id="Node000004" class="node">
<title>Node4</title>
<g id="a_Node000004"><a xlink:href="periph__cpu__esp32c3_8h.html" target="_top" xlink:title="ESP32&#45;C3 specific peripheral configuration.">
<polygon fill="white" stroke="#666666" points="449.5,-33.5 312,-33.5 312,0 449.5,0 449.5,-33.5"/>
<text text-anchor="start" x="320" y="-20" font-family="Helvetica,sans-Serif" font-size="10.00">cpu/esp32/include/periph</text>
<text text-anchor="middle" x="380.75" y="-7.25" font-family="Helvetica,sans-Serif" font-size="10.00">_cpu_esp32c3.h</text>
</a>
</g>
</g>
<!-- Node1&#45;&gt;Node4 -->
<g id="edge3_Node000001_Node000004" class="edge">
<title>Node1&#45;&gt;Node4</title>
<g id="a_edge3_Node000001_Node000004"><a xlink:title=" ">
<path fill="none" stroke="#63b8ff" d="M324.34,-61.96C335.48,-53.22 349.02,-42.62 360.03,-33.98"/>
<polygon fill="#63b8ff" stroke="#63b8ff" points="322.19,-59.2 316.47,-68.12 326.5,-64.71 322.19,-59.2"/>
</a>
</g>
</g>
<!-- Node5 -->
<g id="Node000005" class="node">
<title>Node5</title>
<g id="a_Node000005"><a xlink:href="periph__cpu__esp32s2_8h.html" target="_top" xlink:title="ESP32&#45;S2 specific peripheral configuration.">
<polygon fill="white" stroke="#666666" points="605.5,-33.5 468,-33.5 468,0 605.5,0 605.5,-33.5"/>
<text text-anchor="start" x="476" y="-20" font-family="Helvetica,sans-Serif" font-size="10.00">cpu/esp32/include/periph</text>
<text text-anchor="middle" x="536.75" y="-7.25" font-family="Helvetica,sans-Serif" font-size="10.00">_cpu_esp32s2.h</text>
</a>
</g>
</g>
<!-- Node1&#45;&gt;Node5 -->
<g id="edge4_Node000001_Node000005" class="edge">
<title>Node1&#45;&gt;Node5</title>
<g id="a_edge4_Node000001_Node000005"><a xlink:title=" ">
<path fill="none" stroke="#63b8ff" d="M351.46,-66.15C387.21,-56.81 436.04,-44.06 474.6,-33.98"/>
<polygon fill="#63b8ff" stroke="#63b8ff" points="350.6,-62.76 341.81,-68.67 352.37,-69.53 350.6,-62.76"/>
</a>
</g>
</g>
</g>
</svg>
