<?xml version="1.0" encoding="UTF-8" standalone="no"?>
<!DOCTYPE svg PUBLIC "-//W3C//DTD SVG 1.1//EN"
 "http://www.w3.org/Graphics/SVG/1.1/DTD/svg11.dtd">
<!-- Generated by graphviz version 12.1.1 (0)
 -->
<!-- Title: cpu/stm32/include/periph/cpu_pwm.h Pages: 1 -->
<svg width="262pt" height="155pt"
 viewBox="0.00 0.00 262.38 155.00" xmlns="http://www.w3.org/2000/svg" xmlns:xlink="http://www.w3.org/1999/xlink">
<g id="graph0" class="graph" transform="scale(1 1) rotate(0) translate(4 151)">
<title>cpu/stm32/include/periph/cpu_pwm.h</title>
<!-- Node1 -->
<g id="Node000001" class="node">
<title>Node1</title>
<g id="a_Node000001"><a xlink:title="PWM CPU specific definitions for the STM32 family.">
<polygon fill="#999999" stroke="#666666" points="194.64,-147 55.64,-147 55.64,-113.5 194.64,-113.5 194.64,-147"/>
<text text-anchor="start" x="63.64" y="-133.5" font-family="Helvetica,sans-Serif" font-size="10.00">cpu/stm32/include/periph</text>
<text text-anchor="middle" x="125.14" y="-120.75" font-family="Helvetica,sans-Serif" font-size="10.00">/cpu_pwm.h</text>
</a>
</g>
</g>
<!-- Node2 -->
<g id="Node000002" class="node">
<title>Node2</title>
<g id="a_Node000002"><a xlink:title=" ">
<polygon fill="#e0e0e0" stroke="#999999" points="90.51,-20.75 37.76,-20.75 37.76,0 90.51,0 90.51,-20.75"/>
<text text-anchor="middle" x="64.14" y="-7.25" font-family="Helvetica,sans-Serif" font-size="10.00">stdint.h</text>
</a>
</g>
</g>
<!-- Node1&#45;&gt;Node2 -->
<g id="edge1_Node000001_Node000002" class="edge">
<title>Node1&#45;&gt;Node2</title>
<g id="a_edge1_Node000001_Node000002"><a xlink:title=" ">
<path fill="none" stroke="#63b8ff" d="M55.31,-114.84C35.42,-107.16 15.97,-95.43 4.14,-77.5 -8.41,-58.49 13.22,-39.51 33.92,-26.8"/>
<polygon fill="#63b8ff" stroke="#63b8ff" points="35.62,-29.86 42.55,-21.84 32.13,-23.79 35.62,-29.86"/>
</a>
</g>
</g>
<!-- Node3 -->
<g id="Node000003" class="node">
<title>Node3</title>
<g id="a_Node000003"><a xlink:title=" ">
<polygon fill="#e0e0e0" stroke="#999999" points="208.26,-20.75 166.01,-20.75 166.01,0 208.26,0 208.26,-20.75"/>
<text text-anchor="middle" x="187.14" y="-7.25" font-family="Helvetica,sans-Serif" font-size="10.00">cpu.h</text>
</a>
</g>
</g>
<!-- Node1&#45;&gt;Node3 -->
<g id="edge2_Node000001_Node000003" class="edge">
<title>Node1&#45;&gt;Node3</title>
<g id="a_edge2_Node000001_Node000003"><a xlink:title=" ">
<path fill="none" stroke="#63b8ff" d="M194.92,-116.2C216.25,-108.58 237.41,-96.54 250.14,-77.5 263.07,-58.15 240.47,-39.26 218.83,-26.65"/>
<polygon fill="#63b8ff" stroke="#63b8ff" points="220.54,-23.6 210.09,-21.89 217.19,-29.75 220.54,-23.6"/>
</a>
</g>
</g>
<!-- Node4 -->
<g id="Node000004" class="node">
<title>Node4</title>
<g id="a_Node000004"><a xlink:href="cpu__gpio_8h.html" target="_top" xlink:title="GPIO CPU definitions for the STM32 family.">
<polygon fill="white" stroke="#666666" points="115.26,-77.5 13.01,-77.5 13.01,-56.75 115.26,-56.75 115.26,-77.5"/>
<text text-anchor="middle" x="64.14" y="-64" font-family="Helvetica,sans-Serif" font-size="10.00">periph/cpu_gpio.h</text>
</a>
</g>
</g>
<!-- Node1&#45;&gt;Node4 -->
<g id="edge3_Node000001_Node000004" class="edge">
<title>Node1&#45;&gt;Node4</title>
<g id="a_edge3_Node000001_Node000004"><a xlink:title=" ">
<path fill="none" stroke="#63b8ff" d="M109.11,-113.19C100.74,-104.81 90.49,-94.53 81.88,-85.91"/>
<polygon fill="#63b8ff" stroke="#63b8ff" points="84.57,-83.64 75.03,-79.04 79.62,-88.59 84.57,-83.64"/>
</a>
</g>
</g>
<!-- Node5 -->
<g id="Node000005" class="node">
<title>Node5</title>
<g id="a_Node000005"><a xlink:href="cpu__timer_8h.html" target="_top" xlink:title="Timer CPU specific definitions for the STM32 family.">
<polygon fill="white" stroke="#666666" points="240.89,-77.5 133.39,-77.5 133.39,-56.75 240.89,-56.75 240.89,-77.5"/>
<text text-anchor="middle" x="187.14" y="-64" font-family="Helvetica,sans-Serif" font-size="10.00">periph/cpu_timer.h</text>
</a>
</g>
</g>
<!-- Node1&#45;&gt;Node5 -->
<g id="edge6_Node000001_Node000005" class="edge">
<title>Node1&#45;&gt;Node5</title>
<g id="a_edge6_Node000001_Node000005"><a xlink:title=" ">
<path fill="none" stroke="#63b8ff" d="M141.43,-113.19C149.93,-104.81 160.36,-94.53 169.1,-85.91"/>
<polygon fill="#63b8ff" stroke="#63b8ff" points="171.41,-88.54 176.08,-79.03 166.5,-83.56 171.41,-88.54"/>
</a>
</g>
</g>
<!-- Node4&#45;&gt;Node2 -->
<g id="edge4_Node000004_Node000002" class="edge">
<title>Node4&#45;&gt;Node2</title>
<g id="a_edge4_Node000004_Node000002"><a xlink:title=" ">
<path fill="none" stroke="#63b8ff" d="M64.14,-56.34C64.14,-49.72 64.14,-40.72 64.14,-32.52"/>
<polygon fill="#63b8ff" stroke="#63b8ff" points="67.64,-32.59 64.14,-22.59 60.64,-32.59 67.64,-32.59"/>
</a>
</g>
</g>
<!-- Node4&#45;&gt;Node3 -->
<g id="edge5_Node000004_Node000003" class="edge">
<title>Node4&#45;&gt;Node3</title>
<g id="a_edge5_Node000004_Node000003"><a xlink:title=" ">
<path fill="none" stroke="#63b8ff" d="M86.13,-56.34C105.4,-47.76 133.64,-35.19 155.37,-25.52"/>
<polygon fill="#63b8ff" stroke="#63b8ff" points="156.65,-28.77 164.37,-21.51 153.81,-22.38 156.65,-28.77"/>
</a>
</g>
</g>
<!-- Node5&#45;&gt;Node2 -->
<g id="edge7_Node000005_Node000002" class="edge">
<title>Node5&#45;&gt;Node2</title>
<g id="a_edge7_Node000005_Node000002"><a xlink:title=" ">
<path fill="none" stroke="#63b8ff" d="M165.15,-56.34C146,-47.81 117.98,-35.34 96.3,-25.69"/>
<polygon fill="#63b8ff" stroke="#63b8ff" points="97.88,-22.56 87.32,-21.69 95.03,-28.96 97.88,-22.56"/>
</a>
</g>
</g>
<!-- Node5&#45;&gt;Node3 -->
<g id="edge8_Node000005_Node000003" class="edge">
<title>Node5&#45;&gt;Node3</title>
<g id="a_edge8_Node000005_Node000003"><a xlink:title=" ">
<path fill="none" stroke="#63b8ff" d="M187.14,-56.34C187.14,-49.72 187.14,-40.72 187.14,-32.52"/>
<polygon fill="#63b8ff" stroke="#63b8ff" points="190.64,-32.59 187.14,-22.59 183.64,-32.59 190.64,-32.59"/>
</a>
</g>
</g>
</g>
</svg>
