<?xml version="1.0" encoding="UTF-8" standalone="no"?>
<!DOCTYPE svg PUBLIC "-//W3C//DTD SVG 1.1//EN"
 "http://www.w3.org/Graphics/SVG/1.1/DTD/svg11.dtd">
<!-- Generated by graphviz version 12.1.1 (0)
 -->
<!-- Title: cpu/kinetis/include/cpu_conf_kinetis.h Pages: 1 -->
<svg width="193pt" height="155pt"
 viewBox="0.00 0.00 192.62 155.00" xmlns="http://www.w3.org/2000/svg" xmlns:xlink="http://www.w3.org/1999/xlink">
<g id="graph0" class="graph" transform="scale(1 1) rotate(0) translate(4 151)">
<title>cpu/kinetis/include/cpu_conf_kinetis.h</title>
<!-- Node1 -->
<g id="Node000001" class="node">
<title>Node1</title>
<g id="a_Node000001"><a xlink:title="CPU specific definitions common to all Kinetis CPUs.">
<polygon fill="#999999" stroke="#666666" points="163.12,-147 53.38,-147 53.38,-113.5 163.12,-113.5 163.12,-147"/>
<text text-anchor="start" x="61.38" y="-133.5" font-family="Helvetica,sans-Serif" font-size="10.00">cpu/kinetis/include</text>
<text text-anchor="middle" x="108.25" y="-120.75" font-family="Helvetica,sans-Serif" font-size="10.00">/cpu_conf_kinetis.h</text>
</a>
</g>
</g>
<!-- Node2 -->
<g id="Node000002" class="node">
<title>Node2</title>
<g id="a_Node000002"><a xlink:title=" ">
<polygon fill="#e0e0e0" stroke="#999999" points="116.5,-77.5 0,-77.5 0,-56.75 116.5,-56.75 116.5,-77.5"/>
<text text-anchor="middle" x="58.25" y="-64" font-family="Helvetica,sans-Serif" font-size="10.00">cpu_conf_common.h</text>
</a>
</g>
</g>
<!-- Node1&#45;&gt;Node2 -->
<g id="edge1_Node000001_Node000002" class="edge">
<title>Node1&#45;&gt;Node2</title>
<g id="a_edge1_Node000001_Node000002"><a xlink:title=" ">
<path fill="none" stroke="#63b8ff" d="M95.11,-113.19C88.47,-105.07 80.37,-95.17 73.46,-86.72"/>
<polygon fill="#63b8ff" stroke="#63b8ff" points="76.3,-84.66 67.26,-79.14 70.88,-89.09 76.3,-84.66"/>
</a>
</g>
</g>
<!-- Node3 -->
<g id="Node000003" class="node">
<title>Node3</title>
<g id="a_Node000003"><a xlink:href="bme_8h.html" target="_top" xlink:title="Macro definitions for the Kinetis Bit Manipulation Engine (BME)">
<polygon fill="white" stroke="#666666" points="181.62,-77.5 134.88,-77.5 134.88,-56.75 181.62,-56.75 181.62,-77.5"/>
<text text-anchor="middle" x="158.25" y="-64" font-family="Helvetica,sans-Serif" font-size="10.00">bme.h</text>
</a>
</g>
</g>
<!-- Node1&#45;&gt;Node3 -->
<g id="edge2_Node000001_Node000003" class="edge">
<title>Node1&#45;&gt;Node3</title>
<g id="a_edge2_Node000001_Node000003"><a xlink:title=" ">
<path fill="none" stroke="#63b8ff" d="M121.39,-113.19C128.03,-105.07 136.13,-95.17 143.04,-86.72"/>
<polygon fill="#63b8ff" stroke="#63b8ff" points="145.62,-89.09 149.24,-79.14 140.2,-84.66 145.62,-89.09"/>
</a>
</g>
</g>
<!-- Node4 -->
<g id="Node000004" class="node">
<title>Node4</title>
<g id="a_Node000004"><a xlink:title=" ">
<polygon fill="#e0e0e0" stroke="#999999" points="184.62,-20.75 131.88,-20.75 131.88,0 184.62,0 184.62,-20.75"/>
<text text-anchor="middle" x="158.25" y="-7.25" font-family="Helvetica,sans-Serif" font-size="10.00">stdint.h</text>
</a>
</g>
</g>
<!-- Node3&#45;&gt;Node4 -->
<g id="edge3_Node000003_Node000004" class="edge">
<title>Node3&#45;&gt;Node4</title>
<g id="a_edge3_Node000003_Node000004"><a xlink:title=" ">
<path fill="none" stroke="#63b8ff" d="M158.25,-56.34C158.25,-49.72 158.25,-40.72 158.25,-32.52"/>
<polygon fill="#63b8ff" stroke="#63b8ff" points="161.75,-32.59 158.25,-22.59 154.75,-32.59 161.75,-32.59"/>
</a>
</g>
</g>
</g>
</svg>
