<?xml version="1.0" encoding="UTF-8" standalone="no"?>
<!DOCTYPE svg PUBLIC "-//W3C//DTD SVG 1.1//EN"
 "http://www.w3.org/Graphics/SVG/1.1/DTD/svg11.dtd">
<!-- Generated by graphviz version 12.1.1 (0)
 -->
<!-- Title: sys/include/net/csma_sender.h Pages: 1 -->
<svg width="659pt" height="325pt"
 viewBox="0.00 0.00 659.38 325.25" xmlns="http://www.w3.org/2000/svg" xmlns:xlink="http://www.w3.org/1999/xlink">
<g id="graph0" class="graph" transform="scale(1 1) rotate(0) translate(4 321.25)">
<title>sys/include/net/csma_sender.h</title>
<!-- Node1 -->
<g id="Node000001" class="node">
<title>Node1</title>
<g id="a_Node000001"><a xlink:title="Interface definition for the CSMA/CA helper.">
<polygon fill="#999999" stroke="#666666" points="610.76,-317.25 492.01,-317.25 492.01,-283.75 610.76,-283.75 610.76,-317.25"/>
<text text-anchor="start" x="500.01" y="-303.75" font-family="Helvetica,sans-Serif" font-size="10.00">sys/include/net/csma</text>
<text text-anchor="middle" x="551.38" y="-291" font-family="Helvetica,sans-Serif" font-size="10.00">_sender.h</text>
</a>
</g>
</g>
<!-- Node2 -->
<g id="Node000002" class="node">
<title>Node2</title>
<g id="a_Node000002"><a xlink:title=" ">
<polygon fill="#e0e0e0" stroke="#999999" points="383.76,-20.75 331.01,-20.75 331.01,0 383.76,0 383.76,-20.75"/>
<text text-anchor="middle" x="357.38" y="-7.25" font-family="Helvetica,sans-Serif" font-size="10.00">stdint.h</text>
</a>
</g>
</g>
<!-- Node1&#45;&gt;Node2 -->
<g id="edge1_Node000001_Node000002" class="edge">
<title>Node1&#45;&gt;Node2</title>
<g id="a_edge1_Node000001_Node000002"><a xlink:title=" ">
<path fill="none" stroke="#63b8ff" d="M578.71,-283.27C608.31,-263.39 651.38,-226.71 651.38,-181.62 651.38,-181.62 651.38,-181.62 651.38,-122.88 651.38,-68.7 474.64,-31.5 395.23,-17.53"/>
<polygon fill="#63b8ff" stroke="#63b8ff" points="396.19,-14.14 385.74,-15.89 395,-21.04 396.19,-14.14"/>
</a>
</g>
</g>
<!-- Node3 -->
<g id="Node000003" class="node">
<title>Node3</title>
<g id="a_Node000003"><a xlink:href="drivers_2include_2net_2netdev_8h.html" target="_top" xlink:title="Definitions low&#45;level network driver interface.">
<polygon fill="white" stroke="#666666" points="522.76,-247.75 446.01,-247.75 446.01,-227 522.76,-227 522.76,-247.75"/>
<text text-anchor="middle" x="484.38" y="-234.25" font-family="Helvetica,sans-Serif" font-size="10.00">net/netdev.h</text>
</a>
</g>
</g>
<!-- Node1&#45;&gt;Node3 -->
<g id="edge2_Node000001_Node000003" class="edge">
<title>Node1&#45;&gt;Node3</title>
<g id="a_edge2_Node000001_Node000003"><a xlink:title=" ">
<path fill="none" stroke="#63b8ff" d="M533.78,-283.44C524.49,-274.97 513.09,-264.56 503.58,-255.89"/>
<polygon fill="#63b8ff" stroke="#63b8ff" points="506.03,-253.39 496.29,-249.24 501.32,-258.56 506.03,-253.39"/>
</a>
</g>
</g>
<!-- Node3&#45;&gt;Node2 -->
<g id="edge3_Node000003_Node000002" class="edge">
<title>Node3&#45;&gt;Node2</title>
<g id="a_edge3_Node000003_Node000002"><a xlink:title=" ">
<path fill="none" stroke="#63b8ff" d="M481.09,-226.75C469.74,-193.85 431.75,-86.25 410.38,-56.75 402.41,-45.75 391.25,-35.68 381.23,-27.83"/>
<polygon fill="#63b8ff" stroke="#63b8ff" points="383.43,-25.11 373.32,-21.94 379.25,-30.72 383.43,-25.11"/>
</a>
</g>
</g>
<!-- Node4 -->
<g id="Node000004" class="node">
<title>Node4</title>
<g id="a_Node000004"><a xlink:href="errno_8h.html" target="_top" xlink:title=" ">
<polygon fill="white" stroke="#666666" points="623.63,-191 573.13,-191 573.13,-170.25 623.63,-170.25 623.63,-191"/>
<text text-anchor="middle" x="598.38" y="-177.5" font-family="Helvetica,sans-Serif" font-size="10.00">errno.h</text>
</a>
</g>
</g>
<!-- Node3&#45;&gt;Node4 -->
<g id="edge4_Node000003_Node000004" class="edge">
<title>Node3&#45;&gt;Node4</title>
<g id="a_edge4_Node000003_Node000004"><a xlink:title=" ">
<path fill="none" stroke="#63b8ff" d="M504.76,-226.59C522.35,-218.14 548.01,-205.82 568.02,-196.21"/>
<polygon fill="#63b8ff" stroke="#63b8ff" points="569.31,-199.47 576.81,-191.98 566.28,-193.16 569.31,-199.47"/>
</a>
</g>
</g>
<!-- Node5 -->
<g id="Node000005" class="node">
<title>Node5</title>
<g id="a_Node000005"><a xlink:href="iolist_8h.html" target="_top" xlink:title="iolist scatter / gather IO">
<polygon fill="white" stroke="#666666" points="179.88,-191 130.88,-191 130.88,-170.25 179.88,-170.25 179.88,-191"/>
<text text-anchor="middle" x="155.38" y="-177.5" font-family="Helvetica,sans-Serif" font-size="10.00">iolist.h</text>
</a>
</g>
</g>
<!-- Node3&#45;&gt;Node5 -->
<g id="edge5_Node000003_Node000005" class="edge">
<title>Node3&#45;&gt;Node5</title>
<g id="a_edge5_Node000003_Node000005"><a xlink:title=" ">
<path fill="none" stroke="#63b8ff" d="M445.67,-229.93C381.52,-219.26 254.07,-198.05 191.6,-187.65"/>
<polygon fill="#63b8ff" stroke="#63b8ff" points="192.3,-184.22 181.86,-186.03 191.15,-191.13 192.3,-184.22"/>
</a>
</g>
</g>
<!-- Node9 -->
<g id="Node000009" class="node">
<title>Node9</title>
<g id="a_Node000009"><a xlink:href="netopt_8h.html" target="_top" xlink:title="Definition of global configuration options.">
<polygon fill="white" stroke="#666666" points="555.01,-191 479.76,-191 479.76,-170.25 555.01,-170.25 555.01,-191"/>
<text text-anchor="middle" x="517.38" y="-177.5" font-family="Helvetica,sans-Serif" font-size="10.00">net/netopt.h</text>
</a>
</g>
</g>
<!-- Node3&#45;&gt;Node9 -->
<g id="edge12_Node000003_Node000009" class="edge">
<title>Node3&#45;&gt;Node9</title>
<g id="a_edge12_Node000003_Node000009"><a xlink:title=" ">
<path fill="none" stroke="#63b8ff" d="M490.28,-226.59C494.55,-219.5 500.46,-209.69 505.68,-201.04"/>
<polygon fill="#63b8ff" stroke="#63b8ff" points="508.59,-203 510.75,-192.62 502.59,-199.38 508.59,-203"/>
</a>
</g>
</g>
<!-- Node11 -->
<g id="Node000011" class="node">
<title>Node11</title>
<g id="a_Node000011"><a xlink:href="kernel__defines_8h.html" target="_top" xlink:title="Common macros and compiler attributes/pragmas configuration.">
<polygon fill="white" stroke="#666666" points="337.51,-191 241.26,-191 241.26,-170.25 337.51,-170.25 337.51,-191"/>
<text text-anchor="middle" x="289.38" y="-177.5" font-family="Helvetica,sans-Serif" font-size="10.00">kernel_defines.h</text>
</a>
</g>
</g>
<!-- Node3&#45;&gt;Node11 -->
<g id="edge15_Node000003_Node000011" class="edge">
<title>Node3&#45;&gt;Node11</title>
<g id="a_edge15_Node000003_Node000011"><a xlink:title=" ">
<path fill="none" stroke="#63b8ff" d="M449.52,-226.59C417.59,-217.62 370.12,-204.29 335.15,-194.48"/>
<polygon fill="#63b8ff" stroke="#63b8ff" points="336.3,-191.16 325.73,-191.83 334.41,-197.9 336.3,-191.16"/>
</a>
</g>
</g>
<!-- Node6 -->
<g id="Node000006" class="node">
<title>Node6</title>
<g id="a_Node000006"><a xlink:href="unistd_8h_source.html" target="_top" xlink:title=" ">
<polygon fill="white" stroke="#666666" points="107.88,-134.25 52.88,-134.25 52.88,-113.5 107.88,-113.5 107.88,-134.25"/>
<text text-anchor="middle" x="80.38" y="-120.75" font-family="Helvetica,sans-Serif" font-size="10.00">unistd.h</text>
</a>
</g>
</g>
<!-- Node5&#45;&gt;Node6 -->
<g id="edge6_Node000005_Node000006" class="edge">
<title>Node5&#45;&gt;Node6</title>
<g id="a_edge6_Node000005_Node000006"><a xlink:title=" ">
<path fill="none" stroke="#63b8ff" d="M141.97,-169.84C131.09,-161.9 115.52,-150.53 102.76,-141.21"/>
<polygon fill="#63b8ff" stroke="#63b8ff" points="105.04,-138.54 94.9,-135.47 100.91,-144.19 105.04,-138.54"/>
</a>
</g>
</g>
<!-- Node6&#45;&gt;Node2 -->
<g id="edge8_Node000006_Node000002" class="edge">
<title>Node6&#45;&gt;Node2</title>
<g id="a_edge8_Node000006_Node000002"><a xlink:title=" ">
<path fill="none" stroke="#63b8ff" d="M84.84,-113.47C92.29,-98.83 108.72,-70.83 131.38,-56.75 189.98,-20.34 272.14,-12.39 319.56,-11.08"/>
<polygon fill="#63b8ff" stroke="#63b8ff" points="319.38,-14.59 329.32,-10.91 319.25,-7.59 319.38,-14.59"/>
</a>
</g>
</g>
<!-- Node7 -->
<g id="Node000007" class="node">
<title>Node7</title>
<g id="a_Node000007"><a xlink:title=" ">
<polygon fill="#e0e0e0" stroke="#999999" points="75.88,-20.75 20.88,-20.75 20.88,0 75.88,0 75.88,-20.75"/>
<text text-anchor="middle" x="48.38" y="-7.25" font-family="Helvetica,sans-Serif" font-size="10.00">stddef.h</text>
</a>
</g>
</g>
<!-- Node6&#45;&gt;Node7 -->
<g id="edge7_Node000006_Node000007" class="edge">
<title>Node6&#45;&gt;Node7</title>
<g id="a_edge7_Node000006_Node000007"><a xlink:title=" ">
<path fill="none" stroke="#63b8ff" d="M52.39,-114.39C34.93,-107.48 13.85,-95.82 3.38,-77.5 -6.58,-60.06 9.07,-41.23 24.58,-28.13"/>
<polygon fill="#63b8ff" stroke="#63b8ff" points="26.6,-31 32.31,-22.08 22.28,-25.49 26.6,-31"/>
</a>
</g>
</g>
<!-- Node8 -->
<g id="Node000008" class="node">
<title>Node8</title>
<g id="a_Node000008"><a xlink:href="cpu_2avr8__common_2avr__libc__extra_2include_2sys_2types_8h_source.html" target="_top" xlink:title=" ">
<polygon fill="white" stroke="#666666" points="84.13,-77.5 12.63,-77.5 12.63,-56.75 84.13,-56.75 84.13,-77.5"/>
<text text-anchor="middle" x="48.38" y="-64" font-family="Helvetica,sans-Serif" font-size="10.00">sys/types.h</text>
</a>
</g>
</g>
<!-- Node6&#45;&gt;Node8 -->
<g id="edge9_Node000006_Node000008" class="edge">
<title>Node6&#45;&gt;Node8</title>
<g id="a_edge9_Node000006_Node000008"><a xlink:title=" ">
<path fill="none" stroke="#63b8ff" d="M74.66,-113.09C70.52,-106 64.78,-96.19 59.73,-87.54"/>
<polygon fill="#63b8ff" stroke="#63b8ff" points="62.88,-86 54.82,-79.14 56.84,-89.53 62.88,-86"/>
</a>
</g>
</g>
<!-- Node8&#45;&gt;Node2 -->
<g id="edge10_Node000008_Node000002" class="edge">
<title>Node8&#45;&gt;Node2</title>
<g id="a_edge10_Node000008_Node000002"><a xlink:title=" ">
<path fill="none" stroke="#63b8ff" d="M84.42,-59.31C89.12,-58.44 93.86,-57.57 98.38,-56.75 176.77,-42.54 268.64,-26.62 319.18,-17.92"/>
<polygon fill="#63b8ff" stroke="#63b8ff" points="319.76,-21.37 329.02,-16.23 318.58,-14.47 319.76,-21.37"/>
</a>
</g>
</g>
<!-- Node8&#45;&gt;Node7 -->
<g id="edge11_Node000008_Node000007" class="edge">
<title>Node8&#45;&gt;Node7</title>
<g id="a_edge11_Node000008_Node000007"><a xlink:title=" ">
<path fill="none" stroke="#63b8ff" d="M48.38,-56.34C48.38,-49.72 48.38,-40.72 48.38,-32.52"/>
<polygon fill="#63b8ff" stroke="#63b8ff" points="51.88,-32.59 48.38,-22.59 44.88,-32.59 51.88,-32.59"/>
</a>
</g>
</g>
<!-- Node9&#45;&gt;Node2 -->
<g id="edge13_Node000009_Node000002" class="edge">
<title>Node9&#45;&gt;Node2</title>
<g id="a_edge13_Node000009_Node000002"><a xlink:title=" ">
<path fill="none" stroke="#63b8ff" d="M528.15,-170.12C541.44,-157.2 561.03,-133.41 550.38,-113.5 519.48,-55.72 442.32,-29.41 395.46,-18.41"/>
<polygon fill="#63b8ff" stroke="#63b8ff" points="396.24,-15 385.72,-16.26 394.73,-21.83 396.24,-15"/>
</a>
</g>
</g>
<!-- Node10 -->
<g id="Node000010" class="node">
<title>Node10</title>
<g id="a_Node000010"><a xlink:title=" ">
<polygon fill="#e0e0e0" stroke="#999999" points="540.88,-134.25 479.88,-134.25 479.88,-113.5 540.88,-113.5 540.88,-134.25"/>
<text text-anchor="middle" x="510.38" y="-120.75" font-family="Helvetica,sans-Serif" font-size="10.00">stdbool.h</text>
</a>
</g>
</g>
<!-- Node9&#45;&gt;Node10 -->
<g id="edge14_Node000009_Node000010" class="edge">
<title>Node9&#45;&gt;Node10</title>
<g id="a_edge14_Node000009_Node000010"><a xlink:title=" ">
<path fill="none" stroke="#63b8ff" d="M516.13,-169.84C515.27,-163.14 514.11,-154.01 513.05,-145.73"/>
<polygon fill="#63b8ff" stroke="#63b8ff" points="516.55,-145.56 511.81,-136.08 509.61,-146.44 516.55,-145.56"/>
</a>
</g>
</g>
<!-- Node12 -->
<g id="Node000012" class="node">
<title>Node12</title>
<g id="a_Node000012"><a xlink:href="modules_8h.html" target="_top" xlink:title="Common macros and compiler attributes/pragmas configuration.">
<polygon fill="white" stroke="#666666" points="422.88,-134.25 355.88,-134.25 355.88,-113.5 422.88,-113.5 422.88,-134.25"/>
<text text-anchor="middle" x="389.38" y="-120.75" font-family="Helvetica,sans-Serif" font-size="10.00">modules.h</text>
</a>
</g>
</g>
<!-- Node11&#45;&gt;Node12 -->
<g id="edge16_Node000011_Node000012" class="edge">
<title>Node11&#45;&gt;Node12</title>
<g id="a_edge16_Node000011_Node000012"><a xlink:title=" ">
<path fill="none" stroke="#63b8ff" d="M307.26,-169.84C322.47,-161.51 344.57,-149.41 362.01,-139.86"/>
<polygon fill="#63b8ff" stroke="#63b8ff" points="363.24,-143.18 370.33,-135.31 359.88,-137.04 363.24,-143.18"/>
</a>
</g>
</g>
<!-- Node13 -->
<g id="Node000013" class="node">
<title>Node13</title>
<g id="a_Node000013"><a xlink:href="riot__version_8h.html" target="_top" xlink:title="Common macros and compiler attributes/pragmas configuration.">
<polygon fill="white" stroke="#666666" points="311.76,-77.5 229.01,-77.5 229.01,-56.75 311.76,-56.75 311.76,-77.5"/>
<text text-anchor="middle" x="270.38" y="-64" font-family="Helvetica,sans-Serif" font-size="10.00">riot_version.h</text>
</a>
</g>
</g>
<!-- Node11&#45;&gt;Node13 -->
<g id="edge17_Node000011_Node000013" class="edge">
<title>Node11&#45;&gt;Node13</title>
<g id="a_edge17_Node000011_Node000013"><a xlink:title=" ">
<path fill="none" stroke="#63b8ff" d="M268.99,-169.87C255.6,-162.23 239.17,-150.22 231.38,-134.25 223.09,-117.25 235.98,-98.77 249.11,-85.69"/>
<polygon fill="#63b8ff" stroke="#63b8ff" points="251.44,-88.3 256.44,-78.96 246.71,-83.14 251.44,-88.3"/>
</a>
</g>
</g>
<!-- Node14 -->
<g id="Node000014" class="node">
<title>Node14</title>
<g id="a_Node000014"><a xlink:href="compiler__hints_8h.html" target="_top" xlink:title="Common macros and compiler attributes/pragmas configuration.">
<polygon fill="white" stroke="#666666" points="337.88,-134.25 240.88,-134.25 240.88,-113.5 337.88,-113.5 337.88,-134.25"/>
<text text-anchor="middle" x="289.38" y="-120.75" font-family="Helvetica,sans-Serif" font-size="10.00">compiler_hints.h</text>
</a>
</g>
</g>
<!-- Node11&#45;&gt;Node14 -->
<g id="edge19_Node000011_Node000014" class="edge">
<title>Node11&#45;&gt;Node14</title>
<g id="a_edge19_Node000011_Node000014"><a xlink:title=" ">
<path fill="none" stroke="#63b8ff" d="M289.38,-169.84C289.38,-163.22 289.38,-154.22 289.38,-146.02"/>
<polygon fill="#63b8ff" stroke="#63b8ff" points="292.88,-146.09 289.38,-136.09 285.88,-146.09 292.88,-146.09"/>
</a>
</g>
</g>
<!-- Node16 -->
<g id="Node000016" class="node">
<title>Node16</title>
<g id="a_Node000016"><a xlink:href="container_8h.html" target="_top" xlink:title="Common macros and compiler attributes/pragmas configuration.">
<polygon fill="white" stroke="#666666" points="210.76,-77.5 140.01,-77.5 140.01,-56.75 210.76,-56.75 210.76,-77.5"/>
<text text-anchor="middle" x="175.38" y="-64" font-family="Helvetica,sans-Serif" font-size="10.00">container.h</text>
</a>
</g>
</g>
<!-- Node11&#45;&gt;Node16 -->
<g id="edge23_Node000011_Node000016" class="edge">
<title>Node11&#45;&gt;Node16</title>
<g id="a_edge23_Node000011_Node000016"><a xlink:title=" ">
<path fill="none" stroke="#63b8ff" d="M272.23,-169.79C258.43,-161.39 238.99,-148.45 224.38,-134.25 209.85,-120.12 196.38,-101.35 187.25,-87.42"/>
<polygon fill="#63b8ff" stroke="#63b8ff" points="190.31,-85.7 181.99,-79.14 184.4,-89.46 190.31,-85.7"/>
</a>
</g>
</g>
<!-- Node13&#45;&gt;Node2 -->
<g id="edge18_Node000013_Node000002" class="edge">
<title>Node13&#45;&gt;Node2</title>
<g id="a_edge18_Node000013_Node000002"><a xlink:title=" ">
<path fill="none" stroke="#63b8ff" d="M285.93,-56.34C298.8,-48.24 317.32,-36.58 332.29,-27.17"/>
<polygon fill="#63b8ff" stroke="#63b8ff" points="334.08,-30.17 340.68,-21.88 330.35,-24.25 334.08,-30.17"/>
</a>
</g>
</g>
<!-- Node14&#45;&gt;Node2 -->
<g id="edge22_Node000014_Node000002" class="edge">
<title>Node14&#45;&gt;Node2</title>
<g id="a_edge22_Node000014_Node000002"><a xlink:title=" ">
<path fill="none" stroke="#63b8ff" d="M338.16,-114.2C359.18,-107.78 381.78,-96.67 394.38,-77.5 404.91,-61.48 391.46,-42.27 377.92,-28.69"/>
<polygon fill="#63b8ff" stroke="#63b8ff" points="380.5,-26.32 370.8,-22.07 375.74,-31.44 380.5,-26.32"/>
</a>
</g>
</g>
<!-- Node15 -->
<g id="Node000015" class="node">
<title>Node15</title>
<g id="a_Node000015"><a xlink:href="assert_8h.html" target="_top" xlink:title="POSIX.1&#45;2008 compliant version of the assert macro.">
<polygon fill="white" stroke="#666666" points="384.88,-77.5 329.88,-77.5 329.88,-56.75 384.88,-56.75 384.88,-77.5"/>
<text text-anchor="middle" x="357.38" y="-64" font-family="Helvetica,sans-Serif" font-size="10.00">assert.h</text>
</a>
</g>
</g>
<!-- Node14&#45;&gt;Node15 -->
<g id="edge20_Node000014_Node000015" class="edge">
<title>Node14&#45;&gt;Node15</title>
<g id="a_edge20_Node000014_Node000015"><a xlink:title=" ">
<path fill="none" stroke="#63b8ff" d="M301.54,-113.09C311.21,-105.3 324.96,-94.22 336.4,-85.01"/>
<polygon fill="#63b8ff" stroke="#63b8ff" points="338.56,-87.78 344.15,-78.78 334.17,-82.32 338.56,-87.78"/>
</a>
</g>
</g>
<!-- Node15&#45;&gt;Node2 -->
<g id="edge21_Node000015_Node000002" class="edge">
<title>Node15&#45;&gt;Node2</title>
<g id="a_edge21_Node000015_Node000002"><a xlink:title=" ">
<path fill="none" stroke="#63b8ff" d="M357.38,-56.34C357.38,-49.72 357.38,-40.72 357.38,-32.52"/>
<polygon fill="#63b8ff" stroke="#63b8ff" points="360.88,-32.59 357.38,-22.59 353.88,-32.59 360.88,-32.59"/>
</a>
</g>
</g>
<!-- Node16&#45;&gt;Node2 -->
<g id="edge25_Node000016_Node000002" class="edge">
<title>Node16&#45;&gt;Node2</title>
<g id="a_edge25_Node000016_Node000002"><a xlink:title=" ">
<path fill="none" stroke="#63b8ff" d="M207.92,-56.34C239.29,-46.9 286.74,-32.63 319.73,-22.7"/>
<polygon fill="#63b8ff" stroke="#63b8ff" points="320.72,-26.06 329.29,-19.82 318.71,-19.35 320.72,-26.06"/>
</a>
</g>
</g>
<!-- Node16&#45;&gt;Node7 -->
<g id="edge24_Node000016_Node000007" class="edge">
<title>Node16&#45;&gt;Node7</title>
<g id="a_edge24_Node000016_Node000007"><a xlink:title=" ">
<path fill="none" stroke="#63b8ff" d="M152.68,-56.34C132.81,-47.77 103.71,-35.23 81.29,-25.56"/>
<polygon fill="#63b8ff" stroke="#63b8ff" points="82.85,-22.42 72.28,-21.68 80.08,-28.85 82.85,-22.42"/>
</a>
</g>
</g>
</g>
</svg>
