<?xml version="1.0" encoding="UTF-8" standalone="no"?>
<!DOCTYPE svg PUBLIC "-//W3C//DTD SVG 1.1//EN"
 "http://www.w3.org/Graphics/SVG/1.1/DTD/svg11.dtd">
<!-- Generated by graphviz version 12.1.1 (0)
 -->
<!-- Title: sys/include/fido2/ctap/ctap.h Pages: 1 -->
<svg width="1659pt" height="496pt"
 viewBox="0.00 0.00 1658.88 495.50" xmlns="http://www.w3.org/2000/svg" xmlns:xlink="http://www.w3.org/1999/xlink">
<g id="graph0" class="graph" transform="scale(1 1) rotate(0) translate(4 491.5)">
<title>sys/include/fido2/ctap/ctap.h</title>
<!-- Node1 -->
<g id="Node000001" class="node">
<title>Node1</title>
<g id="a_Node000001"><a xlink:title="Internal FIDO2 CTAP defines, structures and function declarations.">
<polygon fill="#999999" stroke="#666666" points="1258.75,-487.5 1136.25,-487.5 1136.25,-454 1258.75,-454 1258.75,-487.5"/>
<text text-anchor="start" x="1144.25" y="-474" font-family="Helvetica,sans-Serif" font-size="10.00">sys/include/fido2/ctap</text>
<text text-anchor="middle" x="1197.5" y="-461.25" font-family="Helvetica,sans-Serif" font-size="10.00">/ctap.h</text>
</a>
</g>
</g>
<!-- Node2 -->
<g id="Node000002" class="node">
<title>Node2</title>
<g id="a_Node000002"><a xlink:title=" ">
<polygon fill="#e0e0e0" stroke="#999999" points="900.88,-20.75 848.12,-20.75 848.12,0 900.88,0 900.88,-20.75"/>
<text text-anchor="middle" x="874.5" y="-7.25" font-family="Helvetica,sans-Serif" font-size="10.00">stdint.h</text>
</a>
</g>
</g>
<!-- Node1&#45;&gt;Node2 -->
<g id="edge1_Node000001_Node000002" class="edge">
<title>Node1&#45;&gt;Node2</title>
<g id="a_edge1_Node000001_Node000002"><a xlink:title=" ">
<path fill="none" stroke="#63b8ff" d="M1213.23,-453.73C1232.47,-432.38 1262.5,-392.54 1262.5,-351.88 1262.5,-351.88 1262.5,-351.88 1262.5,-236.38 1262.5,-146.68 1243.59,-108.74 1170.5,-56.75 1129.75,-27.76 983.1,-16.72 912.72,-13.02"/>
<polygon fill="#63b8ff" stroke="#63b8ff" points="912.98,-9.53 902.81,-12.52 912.63,-16.52 912.98,-9.53"/>
</a>
</g>
</g>
<!-- Node3 -->
<g id="Node000003" class="node">
<title>Node3</title>
<g id="a_Node000003"><a xlink:href="mutex_8h.html" target="_top" xlink:title="Mutex for thread synchronization.">
<polygon fill="white" stroke="#666666" points="954.75,-418 898.25,-418 898.25,-397.25 954.75,-397.25 954.75,-418"/>
<text text-anchor="middle" x="926.5" y="-404.5" font-family="Helvetica,sans-Serif" font-size="10.00">mutex.h</text>
</a>
</g>
</g>
<!-- Node1&#45;&gt;Node3 -->
<g id="edge2_Node000001_Node000003" class="edge">
<title>Node1&#45;&gt;Node3</title>
<g id="a_edge2_Node000001_Node000003"><a xlink:title=" ">
<path fill="none" stroke="#63b8ff" d="M1136.01,-455.88C1083.86,-444.12 1010.61,-427.6 965.97,-417.53"/>
<polygon fill="#63b8ff" stroke="#63b8ff" points="967,-414.17 956.48,-415.39 965.46,-421 967,-414.17"/>
</a>
</g>
</g>
<!-- Node14 -->
<g id="Node000014" class="node">
<title>Node14</title>
<g id="a_Node000014"><a xlink:href="assert_8h.html" target="_top" xlink:title="POSIX.1&#45;2008 compliant version of the assert macro.">
<polygon fill="white" stroke="#666666" points="55,-77.5 0,-77.5 0,-56.75 55,-56.75 55,-77.5"/>
<text text-anchor="middle" x="27.5" y="-64" font-family="Helvetica,sans-Serif" font-size="10.00">assert.h</text>
</a>
</g>
</g>
<!-- Node1&#45;&gt;Node14 -->
<g id="edge54_Node000001_Node000014" class="edge">
<title>Node1&#45;&gt;Node14</title>
<g id="a_edge54_Node000001_Node000014"><a xlink:title=" ">
<path fill="none" stroke="#63b8ff" d="M1136.03,-470.18C892.35,-471.08 7.5,-466.45 7.5,-351.88 7.5,-351.88 7.5,-351.88 7.5,-179.62 7.5,-147.58 15.6,-111.16 21.49,-88.92"/>
<polygon fill="#63b8ff" stroke="#63b8ff" points="24.85,-89.89 24.15,-79.32 18.11,-88.03 24.85,-89.89"/>
</a>
</g>
</g>
<!-- Node26 -->
<g id="Node000026" class="node">
<title>Node26</title>
<g id="a_Node000026"><a xlink:href="cbor_8h.html" target="_top" xlink:title="Functionality for encoding SenML values as CBOR.">
<polygon fill="white" stroke="#666666" points="283.5,-247.75 237.5,-247.75 237.5,-227 283.5,-227 283.5,-247.75"/>
<text text-anchor="middle" x="260.5" y="-234.25" font-family="Helvetica,sans-Serif" font-size="10.00">cbor.h</text>
</a>
</g>
</g>
<!-- Node1&#45;&gt;Node26 -->
<g id="edge44_Node000001_Node000026" class="edge">
<title>Node1&#45;&gt;Node26</title>
<g id="a_edge44_Node000001_Node000026"><a xlink:title=" ">
<path fill="none" stroke="#63b8ff" d="M1136.03,-466.17C966.99,-455.63 498.4,-421.63 357.5,-361.25 320.69,-345.47 311.37,-336.66 287.5,-304.5 277.32,-290.79 270.28,-272.7 265.95,-258.91"/>
<polygon fill="#63b8ff" stroke="#63b8ff" points="269.39,-258.2 263.25,-249.57 262.66,-260.15 269.39,-258.2"/>
</a>
</g>
</g>
<!-- Node29 -->
<g id="Node000029" class="node">
<title>Node29</title>
<g id="a_Node000029"><a xlink:href="ccm_8h.html" target="_top" xlink:title="Counter with CBC&#45;MAC mode of operation for block ciphers.">
<polygon fill="white" stroke="#666666" points="1169,-418 1054,-418 1054,-397.25 1169,-397.25 1169,-418"/>
<text text-anchor="middle" x="1111.5" y="-404.5" font-family="Helvetica,sans-Serif" font-size="10.00">crypto/modes/ccm.h</text>
</a>
</g>
</g>
<!-- Node1&#45;&gt;Node29 -->
<g id="edge55_Node000001_Node000029" class="edge">
<title>Node1&#45;&gt;Node29</title>
<g id="a_edge55_Node000001_Node000029"><a xlink:title=" ">
<path fill="none" stroke="#63b8ff" d="M1174.9,-453.69C1162.5,-444.87 1147.14,-433.95 1134.64,-425.07"/>
<polygon fill="#63b8ff" stroke="#63b8ff" points="1136.76,-422.28 1126.58,-419.34 1132.7,-427.99 1136.76,-422.28"/>
</a>
</g>
</g>
<!-- Node31 -->
<g id="Node000031" class="node">
<title>Node31</title>
<g id="a_Node000031"><a xlink:href="timex_8h.html" target="_top" xlink:title="Utility library for comparing and computing timestamps.">
<polygon fill="white" stroke="#666666" points="1590.25,-134.25 1536.75,-134.25 1536.75,-113.5 1590.25,-113.5 1590.25,-134.25"/>
<text text-anchor="middle" x="1563.5" y="-120.75" font-family="Helvetica,sans-Serif" font-size="10.00">timex.h</text>
</a>
</g>
</g>
<!-- Node1&#45;&gt;Node31 -->
<g id="edge59_Node000001_Node000031" class="edge">
<title>Node1&#45;&gt;Node31</title>
<g id="a_edge59_Node000001_Node000031"><a xlink:title=" ">
<path fill="none" stroke="#63b8ff" d="M1259,-459.77C1351.18,-443.05 1514.5,-405.82 1514.5,-351.88 1514.5,-351.88 1514.5,-351.88 1514.5,-236.38 1514.5,-201.49 1534.86,-165.25 1549.33,-143.9"/>
<polygon fill="#63b8ff" stroke="#63b8ff" points="1552.05,-146.11 1554.97,-135.92 1546.34,-142.06 1552.05,-146.11"/>
</a>
</g>
</g>
<!-- Node33 -->
<g id="Node000033" class="node">
<title>Node33</title>
<g id="a_Node000033"><a xlink:title=" ">
<polygon fill="#e0e0e0" stroke="#999999" points="1342.88,-418 1290.12,-418 1290.12,-397.25 1342.88,-397.25 1342.88,-418"/>
<text text-anchor="middle" x="1316.5" y="-404.5" font-family="Helvetica,sans-Serif" font-size="10.00">board.h</text>
</a>
</g>
</g>
<!-- Node1&#45;&gt;Node33 -->
<g id="edge63_Node000001_Node000033" class="edge">
<title>Node1&#45;&gt;Node33</title>
<g id="a_edge63_Node000001_Node000033"><a xlink:title=" ">
<path fill="none" stroke="#63b8ff" d="M1229.08,-453.53C1247.27,-444.19 1269.96,-432.53 1287.66,-423.44"/>
<polygon fill="#63b8ff" stroke="#63b8ff" points="1288.8,-426.79 1296.09,-419.11 1285.6,-420.56 1288.8,-426.79"/>
</a>
</g>
</g>
<!-- Node34 -->
<g id="Node000034" class="node">
<title>Node34</title>
<g id="a_Node000034"><a xlink:href="ctap_8h.html" target="_top" xlink:title="Public FIDO2 CTAP defines, structures and function declarations.">
<polygon fill="white" stroke="#666666" points="1228.38,-361.25 1154.62,-361.25 1154.62,-340.5 1228.38,-340.5 1228.38,-361.25"/>
<text text-anchor="middle" x="1191.5" y="-347.75" font-family="Helvetica,sans-Serif" font-size="10.00">fido2/ctap.h</text>
</a>
</g>
</g>
<!-- Node1&#45;&gt;Node34 -->
<g id="edge64_Node000001_Node000034" class="edge">
<title>Node1&#45;&gt;Node34</title>
<g id="a_edge64_Node000001_Node000034"><a xlink:title=" ">
<path fill="none" stroke="#63b8ff" d="M1196.69,-453.85C1195.63,-432.96 1193.76,-396.21 1192.58,-373"/>
<polygon fill="#63b8ff" stroke="#63b8ff" points="1196.08,-373 1192.08,-363.19 1189.09,-373.36 1196.08,-373"/>
</a>
</g>
</g>
<!-- Node35 -->
<g id="Node000035" class="node">
<title>Node35</title>
<g id="a_Node000035"><a xlink:href="ctap__crypto_8h.html" target="_top" xlink:title="FIDO2 CTAP crypto helper defines, structures and function declarations.">
<polygon fill="white" stroke="#666666" points="1437.38,-191 1303.62,-191 1303.62,-170.25 1437.38,-170.25 1437.38,-191"/>
<text text-anchor="middle" x="1370.5" y="-177.5" font-family="Helvetica,sans-Serif" font-size="10.00">fido2/ctap/ctap_crypto.h</text>
</a>
</g>
</g>
<!-- Node1&#45;&gt;Node35 -->
<g id="edge66_Node000001_Node000035" class="edge">
<title>Node1&#45;&gt;Node35</title>
<g id="a_edge66_Node000001_Node000035"><a xlink:title=" ">
<path fill="none" stroke="#63b8ff" d="M1259.21,-462.74C1290.73,-456.1 1327.42,-443.17 1351.5,-418 1372.64,-395.9 1370.5,-382.45 1370.5,-351.88 1370.5,-351.88 1370.5,-351.88 1370.5,-293.12 1370.5,-261.73 1370.5,-225.37 1370.5,-202.93"/>
<polygon fill="#63b8ff" stroke="#63b8ff" points="1374,-202.98 1370.5,-192.98 1367,-202.98 1374,-202.98"/>
</a>
</g>
</g>
<!-- Node3&#45;&gt;Node2 -->
<g id="edge4_Node000003_Node000002" class="edge">
<title>Node3&#45;&gt;Node2</title>
<g id="a_edge4_Node000003_Node000002"><a xlink:title=" ">
<path fill="none" stroke="#63b8ff" d="M947.97,-396.87C979.98,-380.68 1036.5,-345.02 1036.5,-295.12 1036.5,-295.12 1036.5,-295.12 1036.5,-236.38 1036.5,-205.8 1039.97,-196.59 1055.5,-170.25 1066.99,-150.76 1082.84,-155.16 1091.5,-134.25 1104.68,-102.43 1113.22,-83.48 1091.5,-56.75 1069.35,-29.49 968.48,-18.04 912.4,-13.71"/>
<polygon fill="#63b8ff" stroke="#63b8ff" points="912.89,-10.23 902.66,-13 912.38,-17.21 912.89,-10.23"/>
</a>
</g>
</g>
<!-- Node4 -->
<g id="Node000004" class="node">
<title>Node4</title>
<g id="a_Node000004"><a xlink:title=" ">
<polygon fill="#e0e0e0" stroke="#999999" points="632,-77.5 577,-77.5 577,-56.75 632,-56.75 632,-77.5"/>
<text text-anchor="middle" x="604.5" y="-64" font-family="Helvetica,sans-Serif" font-size="10.00">stddef.h</text>
</a>
</g>
</g>
<!-- Node3&#45;&gt;Node4 -->
<g id="edge3_Node000003_Node000004" class="edge">
<title>Node3&#45;&gt;Node4</title>
<g id="a_edge3_Node000003_Node000004"><a xlink:title=" ">
<path fill="none" stroke="#63b8ff" d="M931.66,-396.79C941.18,-377.72 960.5,-334.18 960.5,-295.12 960.5,-295.12 960.5,-295.12 960.5,-236.38 960.5,-181.62 989.1,-153.31 951.5,-113.5 930.61,-91.38 729.93,-76.09 643.63,-70.49"/>
<polygon fill="#63b8ff" stroke="#63b8ff" points="643.96,-67 633.75,-69.86 643.51,-73.99 643.96,-67"/>
</a>
</g>
</g>
<!-- Node5 -->
<g id="Node000005" class="node">
<title>Node5</title>
<g id="a_Node000005"><a xlink:title=" ">
<polygon fill="#e0e0e0" stroke="#999999" points="404,-134.25 343,-134.25 343,-113.5 404,-113.5 404,-134.25"/>
<text text-anchor="middle" x="373.5" y="-120.75" font-family="Helvetica,sans-Serif" font-size="10.00">stdbool.h</text>
</a>
</g>
</g>
<!-- Node3&#45;&gt;Node5 -->
<g id="edge5_Node000003_Node000005" class="edge">
<title>Node3&#45;&gt;Node5</title>
<g id="a_edge5_Node000003_Node000005"><a xlink:title=" ">
<path fill="none" stroke="#63b8ff" d="M897.83,-407.04C784.18,-407.91 371.5,-403.6 371.5,-295.12 371.5,-295.12 371.5,-295.12 371.5,-236.38 371.5,-204.98 372.3,-168.61 372.89,-146.18"/>
<polygon fill="#63b8ff" stroke="#63b8ff" points="376.39,-146.32 373.16,-136.23 369.39,-146.13 376.39,-146.32"/>
</a>
</g>
</g>
<!-- Node6 -->
<g id="Node000006" class="node">
<title>Node6</title>
<g id="a_Node000006"><a xlink:href="architecture_8h.html" target="_top" xlink:title="Platform&#45;independent access to architecture details.">
<polygon fill="white" stroke="#666666" points="1082.25,-134.25 998.75,-134.25 998.75,-113.5 1082.25,-113.5 1082.25,-134.25"/>
<text text-anchor="middle" x="1040.5" y="-120.75" font-family="Helvetica,sans-Serif" font-size="10.00">architecture.h</text>
</a>
</g>
</g>
<!-- Node3&#45;&gt;Node6 -->
<g id="edge6_Node000003_Node000006" class="edge">
<title>Node3&#45;&gt;Node6</title>
<g id="a_edge6_Node000003_Node000006"><a xlink:title=" ">
<path fill="none" stroke="#63b8ff" d="M939.95,-396.79C950.6,-388.39 965.19,-375.44 974.5,-361.25 991.66,-335.11 998.5,-326.39 998.5,-295.12 998.5,-295.12 998.5,-295.12 998.5,-236.38 998.5,-202.22 1015.97,-165.74 1028.38,-144.15"/>
<polygon fill="#63b8ff" stroke="#63b8ff" points="1031.21,-146.23 1033.34,-135.85 1025.2,-142.63 1031.21,-146.23"/>
</a>
</g>
</g>
<!-- Node10 -->
<g id="Node000010" class="node">
<title>Node10</title>
<g id="a_Node000010"><a xlink:href="kernel__defines_8h.html" target="_top" xlink:title="Common macros and compiler attributes/pragmas configuration.">
<polygon fill="white" stroke="#666666" points="876.62,-191 780.38,-191 780.38,-170.25 876.62,-170.25 876.62,-191"/>
<text text-anchor="middle" x="828.5" y="-177.5" font-family="Helvetica,sans-Serif" font-size="10.00">kernel_defines.h</text>
</a>
</g>
</g>
<!-- Node3&#45;&gt;Node10 -->
<g id="edge11_Node000003_Node000010" class="edge">
<title>Node3&#45;&gt;Node10</title>
<g id="a_edge11_Node000003_Node000010"><a xlink:title=" ">
<path fill="none" stroke="#63b8ff" d="M922.29,-396.96C907.46,-362.92 857.48,-248.15 837.18,-201.55"/>
<polygon fill="#63b8ff" stroke="#63b8ff" points="840.5,-200.42 833.3,-192.64 834.08,-203.21 840.5,-200.42"/>
</a>
</g>
</g>
<!-- Node16 -->
<g id="Node000016" class="node">
<title>Node16</title>
<g id="a_Node000016"><a xlink:href="list_8h.html" target="_top" xlink:title="Intrusive linked list.">
<polygon fill="white" stroke="#666666" points="538.5,-134.25 498.5,-134.25 498.5,-113.5 538.5,-113.5 538.5,-134.25"/>
<text text-anchor="middle" x="518.5" y="-120.75" font-family="Helvetica,sans-Serif" font-size="10.00">list.h</text>
</a>
</g>
</g>
<!-- Node3&#45;&gt;Node16 -->
<g id="edge22_Node000003_Node000016" class="edge">
<title>Node3&#45;&gt;Node16</title>
<g id="a_edge22_Node000003_Node000016"><a xlink:title=" ">
<path fill="none" stroke="#63b8ff" d="M897.77,-405.79C823.48,-403.19 626.94,-393.38 571.5,-361.25 539.62,-342.77 521.5,-331.97 521.5,-295.12 521.5,-295.12 521.5,-295.12 521.5,-236.38 521.5,-204.97 520.3,-168.61 519.41,-146.17"/>
<polygon fill="#63b8ff" stroke="#63b8ff" points="522.91,-146.08 519,-136.23 515.92,-146.36 522.91,-146.08"/>
</a>
</g>
</g>
<!-- Node17 -->
<g id="Node000017" class="node">
<title>Node17</title>
<g id="a_Node000017"><a xlink:href="core_2include_2thread_8h.html" target="_top" xlink:title="Threading API.">
<polygon fill="white" stroke="#666666" points="636.75,-361.25 580.25,-361.25 580.25,-340.5 636.75,-340.5 636.75,-361.25"/>
<text text-anchor="middle" x="608.5" y="-347.75" font-family="Helvetica,sans-Serif" font-size="10.00">thread.h</text>
</a>
</g>
</g>
<!-- Node3&#45;&gt;Node17 -->
<g id="edge23_Node000003_Node000017" class="edge">
<title>Node3&#45;&gt;Node17</title>
<g id="a_edge23_Node000003_Node000017"><a xlink:title=" ">
<path fill="none" stroke="#63b8ff" d="M898,-401.72C841.05,-391.91 713.09,-369.88 648.05,-358.69"/>
<polygon fill="#63b8ff" stroke="#63b8ff" points="648.99,-355.29 638.54,-357.05 647.8,-362.19 648.99,-355.29"/>
</a>
</g>
</g>
<!-- Node6&#45;&gt;Node2 -->
<g id="edge7_Node000006_Node000002" class="edge">
<title>Node6&#45;&gt;Node2</title>
<g id="a_edge7_Node000006_Node000002"><a xlink:title=" ">
<path fill="none" stroke="#63b8ff" d="M998.5,-114.56C960.47,-106.23 908.23,-92.52 893.5,-77.5 881.73,-65.49 877.16,-46.7 875.43,-32.21"/>
<polygon fill="#63b8ff" stroke="#63b8ff" points="878.93,-32.07 874.65,-22.37 871.95,-32.62 878.93,-32.07"/>
</a>
</g>
</g>
<!-- Node7 -->
<g id="Node000007" class="node">
<title>Node7</title>
<g id="a_Node000007"><a xlink:href="inttypes_8h.html" target="_top" xlink:title="Adds include for missing inttype definitions.">
<polygon fill="white" stroke="#666666" points="1316.88,-77.5 1252.12,-77.5 1252.12,-56.75 1316.88,-56.75 1316.88,-77.5"/>
<text text-anchor="middle" x="1284.5" y="-64" font-family="Helvetica,sans-Serif" font-size="10.00">inttypes.h</text>
</a>
</g>
</g>
<!-- Node6&#45;&gt;Node7 -->
<g id="edge8_Node000006_Node000007" class="edge">
<title>Node6&#45;&gt;Node7</title>
<g id="a_edge8_Node000006_Node000007"><a xlink:title=" ">
<path fill="none" stroke="#63b8ff" d="M1082.72,-113.4C1126.89,-103.49 1195.9,-88.01 1240.66,-77.96"/>
<polygon fill="#63b8ff" stroke="#63b8ff" points="1241.3,-81.41 1250.29,-75.8 1239.77,-74.58 1241.3,-81.41"/>
</a>
</g>
</g>
<!-- Node8 -->
<g id="Node000008" class="node">
<title>Node8</title>
<g id="a_Node000008"><a xlink:title=" ">
<polygon fill="#e0e0e0" stroke="#999999" points="1082.88,-77.5 1030.12,-77.5 1030.12,-56.75 1082.88,-56.75 1082.88,-77.5"/>
<text text-anchor="middle" x="1056.5" y="-64" font-family="Helvetica,sans-Serif" font-size="10.00">limits.h</text>
</a>
</g>
</g>
<!-- Node6&#45;&gt;Node8 -->
<g id="edge9_Node000006_Node000008" class="edge">
<title>Node6&#45;&gt;Node8</title>
<g id="a_edge9_Node000006_Node000008"><a xlink:title=" ">
<path fill="none" stroke="#63b8ff" d="M1043.36,-113.09C1045.34,-106.31 1048.05,-97.05 1050.49,-88.69"/>
<polygon fill="#63b8ff" stroke="#63b8ff" points="1053.79,-89.86 1053.24,-79.28 1047.08,-87.9 1053.79,-89.86"/>
</a>
</g>
</g>
<!-- Node9 -->
<g id="Node000009" class="node">
<title>Node9</title>
<g id="a_Node000009"><a xlink:title=" ">
<polygon fill="#e0e0e0" stroke="#999999" points="1012.38,-77.5 902.62,-77.5 902.62,-56.75 1012.38,-56.75 1012.38,-77.5"/>
<text text-anchor="middle" x="957.5" y="-64" font-family="Helvetica,sans-Serif" font-size="10.00">architecture_arch.h</text>
</a>
</g>
</g>
<!-- Node6&#45;&gt;Node9 -->
<g id="edge10_Node000006_Node000009" class="edge">
<title>Node6&#45;&gt;Node9</title>
<g id="a_edge10_Node000006_Node000009"><a xlink:title=" ">
<path fill="none" stroke="#63b8ff" d="M1025.66,-113.09C1013.39,-104.99 995.71,-93.33 981.44,-83.92"/>
<polygon fill="#63b8ff" stroke="#63b8ff" points="983.75,-81.25 973.47,-78.66 979.89,-87.09 983.75,-81.25"/>
</a>
</g>
</g>
<!-- Node11 -->
<g id="Node000011" class="node">
<title>Node11</title>
<g id="a_Node000011"><a xlink:href="modules_8h.html" target="_top" xlink:title="Common macros and compiler attributes/pragmas configuration.">
<polygon fill="white" stroke="#666666" points="942,-134.25 875,-134.25 875,-113.5 942,-113.5 942,-134.25"/>
<text text-anchor="middle" x="908.5" y="-120.75" font-family="Helvetica,sans-Serif" font-size="10.00">modules.h</text>
</a>
</g>
</g>
<!-- Node10&#45;&gt;Node11 -->
<g id="edge12_Node000010_Node000011" class="edge">
<title>Node10&#45;&gt;Node11</title>
<g id="a_edge12_Node000010_Node000011"><a xlink:title=" ">
<path fill="none" stroke="#63b8ff" d="M842.8,-169.84C854.52,-161.82 871.34,-150.31 885.03,-140.94"/>
<polygon fill="#63b8ff" stroke="#63b8ff" points="886.8,-143.97 893.07,-135.43 882.84,-138.19 886.8,-143.97"/>
</a>
</g>
</g>
<!-- Node12 -->
<g id="Node000012" class="node">
<title>Node12</title>
<g id="a_Node000012"><a xlink:href="riot__version_8h.html" target="_top" xlink:title="Common macros and compiler attributes/pragmas configuration.">
<polygon fill="white" stroke="#666666" points="846.88,-77.5 764.12,-77.5 764.12,-56.75 846.88,-56.75 846.88,-77.5"/>
<text text-anchor="middle" x="805.5" y="-64" font-family="Helvetica,sans-Serif" font-size="10.00">riot_version.h</text>
</a>
</g>
</g>
<!-- Node10&#45;&gt;Node12 -->
<g id="edge13_Node000010_Node000012" class="edge">
<title>Node10&#45;&gt;Node12</title>
<g id="a_edge13_Node000010_Node000012"><a xlink:title=" ">
<path fill="none" stroke="#63b8ff" d="M829.64,-170.05C830.89,-157.04 832.17,-133.16 827.5,-113.5 825.38,-104.58 821.32,-95.37 817.25,-87.6"/>
<polygon fill="#63b8ff" stroke="#63b8ff" points="820.41,-86.07 812.45,-79.07 814.31,-89.5 820.41,-86.07"/>
</a>
</g>
</g>
<!-- Node13 -->
<g id="Node000013" class="node">
<title>Node13</title>
<g id="a_Node000013"><a xlink:href="compiler__hints_8h.html" target="_top" xlink:title="Common macros and compiler attributes/pragmas configuration.">
<polygon fill="white" stroke="#666666" points="730,-134.25 633,-134.25 633,-113.5 730,-113.5 730,-134.25"/>
<text text-anchor="middle" x="681.5" y="-120.75" font-family="Helvetica,sans-Serif" font-size="10.00">compiler_hints.h</text>
</a>
</g>
</g>
<!-- Node10&#45;&gt;Node13 -->
<g id="edge15_Node000010_Node000013" class="edge">
<title>Node10&#45;&gt;Node13</title>
<g id="a_edge15_Node000010_Node000013"><a xlink:title=" ">
<path fill="none" stroke="#63b8ff" d="M802.22,-169.84C778.81,-161.12 744.31,-148.27 718.18,-138.54"/>
<polygon fill="#63b8ff" stroke="#63b8ff" points="719.56,-135.32 708.97,-135.11 717.12,-141.88 719.56,-135.32"/>
</a>
</g>
</g>
<!-- Node15 -->
<g id="Node000015" class="node">
<title>Node15</title>
<g id="a_Node000015"><a xlink:href="container_8h.html" target="_top" xlink:title="Common macros and compiler attributes/pragmas configuration.">
<polygon fill="white" stroke="#666666" points="818.88,-134.25 748.12,-134.25 748.12,-113.5 818.88,-113.5 818.88,-134.25"/>
<text text-anchor="middle" x="783.5" y="-120.75" font-family="Helvetica,sans-Serif" font-size="10.00">container.h</text>
</a>
</g>
</g>
<!-- Node10&#45;&gt;Node15 -->
<g id="edge19_Node000010_Node000015" class="edge">
<title>Node10&#45;&gt;Node15</title>
<g id="a_edge19_Node000010_Node000015"><a xlink:title=" ">
<path fill="none" stroke="#63b8ff" d="M820.45,-169.84C814.44,-162.52 806.03,-152.29 798.76,-143.44"/>
<polygon fill="#63b8ff" stroke="#63b8ff" points="801.49,-141.25 792.44,-135.75 796.08,-145.7 801.49,-141.25"/>
</a>
</g>
</g>
<!-- Node12&#45;&gt;Node2 -->
<g id="edge14_Node000012_Node000002" class="edge">
<title>Node12&#45;&gt;Node2</title>
<g id="a_edge14_Node000012_Node000002"><a xlink:title=" ">
<path fill="none" stroke="#63b8ff" d="M817.84,-56.34C827.75,-48.47 841.89,-37.25 853.56,-27.99"/>
<polygon fill="#63b8ff" stroke="#63b8ff" points="855.43,-30.98 861.09,-22.02 851.08,-25.49 855.43,-30.98"/>
</a>
</g>
</g>
<!-- Node13&#45;&gt;Node2 -->
<g id="edge18_Node000013_Node000002" class="edge">
<title>Node13&#45;&gt;Node2</title>
<g id="a_edge18_Node000013_Node000002"><a xlink:title=" ">
<path fill="none" stroke="#63b8ff" d="M688.61,-113.45C699.73,-99.31 722.56,-72.55 747.5,-56.75 775.07,-39.28 810.26,-27.39 836.61,-20.17"/>
<polygon fill="#63b8ff" stroke="#63b8ff" points="837.42,-23.58 846.2,-17.66 835.64,-16.81 837.42,-23.58"/>
</a>
</g>
</g>
<!-- Node13&#45;&gt;Node14 -->
<g id="edge16_Node000013_Node000014" class="edge">
<title>Node13&#45;&gt;Node14</title>
<g id="a_edge16_Node000013_Node000014"><a xlink:title=" ">
<path fill="none" stroke="#63b8ff" d="M632.61,-118.78C507.88,-108.34 179.71,-80.87 66.53,-71.39"/>
<polygon fill="#63b8ff" stroke="#63b8ff" points="67.11,-67.93 56.85,-70.58 66.52,-74.9 67.11,-67.93"/>
</a>
</g>
</g>
<!-- Node14&#45;&gt;Node2 -->
<g id="edge17_Node000014_Node000002" class="edge">
<title>Node14&#45;&gt;Node2</title>
<g id="a_edge17_Node000014_Node000002"><a xlink:title=" ">
<path fill="none" stroke="#63b8ff" d="M55.4,-59.23C60.08,-58.27 64.91,-57.39 69.5,-56.75 362.76,-16.03 720.96,-11.62 836.59,-11.32"/>
<polygon fill="#63b8ff" stroke="#63b8ff" points="836.43,-14.82 846.43,-11.31 836.42,-7.82 836.43,-14.82"/>
</a>
</g>
</g>
<!-- Node15&#45;&gt;Node2 -->
<g id="edge21_Node000015_Node000002" class="edge">
<title>Node15&#45;&gt;Node2</title>
<g id="a_edge21_Node000015_Node000002"><a xlink:title=" ">
<path fill="none" stroke="#63b8ff" d="M773.78,-113.29C761.37,-99.85 742.91,-75.02 755.5,-56.75 773.56,-30.54 808.93,-19.46 836.43,-14.78"/>
<polygon fill="#63b8ff" stroke="#63b8ff" points="836.78,-18.27 846.17,-13.36 835.77,-11.34 836.78,-18.27"/>
</a>
</g>
</g>
<!-- Node15&#45;&gt;Node4 -->
<g id="edge20_Node000015_Node000004" class="edge">
<title>Node15&#45;&gt;Node4</title>
<g id="a_edge20_Node000015_Node000004"><a xlink:title=" ">
<path fill="none" stroke="#63b8ff" d="M751.5,-113.09C721.18,-103.81 675.61,-89.87 643.25,-79.98"/>
<polygon fill="#63b8ff" stroke="#63b8ff" points="644.44,-76.68 633.85,-77.1 642.39,-83.37 644.44,-76.68"/>
</a>
</g>
</g>
<!-- Node18 -->
<g id="Node000018" class="node">
<title>Node18</title>
<g id="a_Node000018"><a xlink:href="clist_8h.html" target="_top" xlink:title="Circular linked list.">
<polygon fill="white" stroke="#666666" points="595.12,-191 549.88,-191 549.88,-170.25 595.12,-170.25 595.12,-191"/>
<text text-anchor="middle" x="572.5" y="-177.5" font-family="Helvetica,sans-Serif" font-size="10.00">clist.h</text>
</a>
</g>
</g>
<!-- Node17&#45;&gt;Node18 -->
<g id="edge24_Node000017_Node000018" class="edge">
<title>Node17&#45;&gt;Node18</title>
<g id="a_edge24_Node000017_Node000018"><a xlink:title=" ">
<path fill="none" stroke="#63b8ff" d="M606.46,-340.35C600.8,-313.87 584.76,-238.93 576.92,-202.3"/>
<polygon fill="#63b8ff" stroke="#63b8ff" points="580.44,-201.99 574.92,-192.95 573.59,-203.46 580.44,-201.99"/>
</a>
</g>
</g>
<!-- Node19 -->
<g id="Node000019" class="node">
<title>Node19</title>
<g id="a_Node000019"><a xlink:href="cib_8h.html" target="_top" xlink:title="Circular integer buffer interface.">
<polygon fill="white" stroke="#666666" points="336.12,-304.5 296.88,-304.5 296.88,-283.75 336.12,-283.75 336.12,-304.5"/>
<text text-anchor="middle" x="316.5" y="-291" font-family="Helvetica,sans-Serif" font-size="10.00">cib.h</text>
</a>
</g>
</g>
<!-- Node17&#45;&gt;Node19 -->
<g id="edge28_Node000017_Node000019" class="edge">
<title>Node17&#45;&gt;Node19</title>
<g id="a_edge28_Node000017_Node000019"><a xlink:title=" ">
<path fill="none" stroke="#63b8ff" d="M579.97,-344.53C524.91,-334.2 404.4,-311.61 347.47,-300.93"/>
<polygon fill="#63b8ff" stroke="#63b8ff" points="348.29,-297.52 337.81,-299.12 347,-304.4 348.29,-297.52"/>
</a>
</g>
</g>
<!-- Node20 -->
<g id="Node000020" class="node">
<title>Node20</title>
<g id="a_Node000020"><a xlink:href="core_2include_2msg_8h.html" target="_top" xlink:title="Messaging API for inter process communication.">
<polygon fill="white" stroke="#666666" points="469.5,-304.5 423.5,-304.5 423.5,-283.75 469.5,-283.75 469.5,-304.5"/>
<text text-anchor="middle" x="446.5" y="-291" font-family="Helvetica,sans-Serif" font-size="10.00">msg.h</text>
</a>
</g>
</g>
<!-- Node17&#45;&gt;Node20 -->
<g id="edge30_Node000017_Node000020" class="edge">
<title>Node17&#45;&gt;Node20</title>
<g id="a_edge30_Node000017_Node000020"><a xlink:title=" ">
<path fill="none" stroke="#63b8ff" d="M579.91,-340.21C552.12,-330.82 509.91,-316.56 480.44,-306.59"/>
<polygon fill="#63b8ff" stroke="#63b8ff" points="481.85,-303.38 471.25,-303.49 479.61,-310.01 481.85,-303.38"/>
</a>
</g>
</g>
<!-- Node21 -->
<g id="Node000021" class="node">
<title>Node21</title>
<g id="a_Node000021"><a xlink:href="sched_8h.html" target="_top" xlink:title="Scheduler API definition.">
<polygon fill="white" stroke="#666666" points="652.25,-247.75 598.75,-247.75 598.75,-227 652.25,-227 652.25,-247.75"/>
<text text-anchor="middle" x="625.5" y="-234.25" font-family="Helvetica,sans-Serif" font-size="10.00">sched.h</text>
</a>
</g>
</g>
<!-- Node17&#45;&gt;Node21 -->
<g id="edge39_Node000017_Node000021" class="edge">
<title>Node17&#45;&gt;Node21</title>
<g id="a_edge39_Node000017_Node000021"><a xlink:title=" ">
<path fill="none" stroke="#63b8ff" d="M609.95,-340.37C612.67,-322.52 618.6,-283.61 622.3,-259.34"/>
<polygon fill="#63b8ff" stroke="#63b8ff" points="625.73,-260.08 623.78,-249.67 618.81,-259.03 625.73,-260.08"/>
</a>
</g>
</g>
<!-- Node23 -->
<g id="Node000023" class="node">
<title>Node23</title>
<g id="a_Node000023"><a xlink:href="thread__config_8h.html" target="_top" xlink:title="Thread configuration defines.">
<polygon fill="white" stroke="#666666" points="728.38,-304.5 636.62,-304.5 636.62,-283.75 728.38,-283.75 728.38,-304.5"/>
<text text-anchor="middle" x="682.5" y="-291" font-family="Helvetica,sans-Serif" font-size="10.00">thread_config.h</text>
</a>
</g>
</g>
<!-- Node17&#45;&gt;Node23 -->
<g id="edge40_Node000017_Node000023" class="edge">
<title>Node17&#45;&gt;Node23</title>
<g id="a_edge40_Node000017_Node000023"><a xlink:title=" ">
<path fill="none" stroke="#63b8ff" d="M621.73,-340.09C632.46,-332.15 647.82,-320.78 660.42,-311.46"/>
<polygon fill="#63b8ff" stroke="#63b8ff" points="662.21,-314.49 668.17,-305.73 658.05,-308.86 662.21,-314.49"/>
</a>
</g>
</g>
<!-- Node25 -->
<g id="Node000025" class="node">
<title>Node25</title>
<g id="a_Node000025"><a xlink:title=" ">
<polygon fill="#e0e0e0" stroke="#999999" points="828.88,-304.5 746.12,-304.5 746.12,-283.75 828.88,-283.75 828.88,-304.5"/>
<text text-anchor="middle" x="787.5" y="-291" font-family="Helvetica,sans-Serif" font-size="10.00">thread_arch.h</text>
</a>
</g>
</g>
<!-- Node17&#45;&gt;Node25 -->
<g id="edge43_Node000017_Node000025" class="edge">
<title>Node17&#45;&gt;Node25</title>
<g id="a_edge43_Node000017_Node000025"><a xlink:title=" ">
<path fill="none" stroke="#63b8ff" d="M636.86,-341.2C665.82,-332.34 711.15,-318.48 744.52,-308.27"/>
<polygon fill="#63b8ff" stroke="#63b8ff" points="745.35,-311.68 753.89,-305.41 743.3,-304.98 745.35,-311.68"/>
</a>
</g>
</g>
<!-- Node18&#45;&gt;Node4 -->
<g id="edge26_Node000018_Node000004" class="edge">
<title>Node18&#45;&gt;Node4</title>
<g id="a_edge26_Node000018_Node000004"><a xlink:title=" ">
<path fill="none" stroke="#63b8ff" d="M574.96,-170.18C578.34,-157.32 584.66,-133.61 590.5,-113.5 592.85,-105.39 595.56,-96.52 597.97,-88.78"/>
<polygon fill="#63b8ff" stroke="#63b8ff" points="601.29,-89.87 600.95,-79.28 594.62,-87.77 601.29,-89.87"/>
</a>
</g>
</g>
<!-- Node18&#45;&gt;Node5 -->
<g id="edge25_Node000018_Node000005" class="edge">
<title>Node18&#45;&gt;Node5</title>
<g id="a_edge25_Node000018_Node000005"><a xlink:title=" ">
<path fill="none" stroke="#63b8ff" d="M549.67,-173.34C516.92,-164.33 456.04,-147.58 415.14,-136.33"/>
<polygon fill="#63b8ff" stroke="#63b8ff" points="416.2,-132.99 405.63,-133.72 414.35,-139.74 416.2,-132.99"/>
</a>
</g>
</g>
<!-- Node18&#45;&gt;Node16 -->
<g id="edge27_Node000018_Node000016" class="edge">
<title>Node18&#45;&gt;Node16</title>
<g id="a_edge27_Node000018_Node000016"><a xlink:title=" ">
<path fill="none" stroke="#63b8ff" d="M562.85,-169.84C555.4,-162.28 544.89,-151.64 535.98,-142.6"/>
<polygon fill="#63b8ff" stroke="#63b8ff" points="538.65,-140.32 529.13,-135.66 533.66,-145.23 538.65,-140.32"/>
</a>
</g>
</g>
<!-- Node19&#45;&gt;Node14 -->
<g id="edge29_Node000019_Node000014" class="edge">
<title>Node19&#45;&gt;Node14</title>
<g id="a_edge29_Node000019_Node000014"><a xlink:title=" ">
<path fill="none" stroke="#63b8ff" d="M296.41,-292.2C243.5,-289.34 102.17,-278.88 69.5,-247.75 25.33,-205.65 23.64,-126.71 25.67,-89.1"/>
<polygon fill="#63b8ff" stroke="#63b8ff" points="29.16,-89.37 26.37,-79.15 22.18,-88.88 29.16,-89.37"/>
</a>
</g>
</g>
<!-- Node20&#45;&gt;Node2 -->
<g id="edge31_Node000020_Node000002" class="edge">
<title>Node20&#45;&gt;Node2</title>
<g id="a_edge31_Node000020_Node000002"><a xlink:title=" ">
<path fill="none" stroke="#63b8ff" d="M423.24,-291.08C343.12,-283.39 83.5,-252.99 83.5,-181.62 83.5,-181.62 83.5,-181.62 83.5,-122.88 83.5,-45.92 678.17,-18.59 836.28,-12.68"/>
<polygon fill="#63b8ff" stroke="#63b8ff" points="836.35,-16.18 846.22,-12.32 836.1,-9.19 836.35,-16.18"/>
</a>
</g>
</g>
<!-- Node20&#45;&gt;Node5 -->
<g id="edge32_Node000020_Node000005" class="edge">
<title>Node20&#45;&gt;Node5</title>
<g id="a_edge32_Node000020_Node000005"><a xlink:title=" ">
<path fill="none" stroke="#63b8ff" d="M442.37,-283.6C430.83,-257 398.08,-181.52 382.26,-145.07"/>
<polygon fill="#63b8ff" stroke="#63b8ff" points="385.56,-143.89 378.37,-136.11 379.14,-146.67 385.56,-143.89"/>
</a>
</g>
</g>
<!-- Node20&#45;&gt;Node21 -->
<g id="edge33_Node000020_Node000021" class="edge">
<title>Node20&#45;&gt;Node21</title>
<g id="a_edge33_Node000020_Node000021"><a xlink:title=" ">
<path fill="none" stroke="#63b8ff" d="M469.9,-285.97C499.74,-276.84 551.74,-260.94 587.35,-250.04"/>
<polygon fill="#63b8ff" stroke="#63b8ff" points="588.3,-253.41 596.84,-247.14 586.25,-246.72 588.3,-253.41"/>
</a>
</g>
</g>
<!-- Node21&#45;&gt;Node4 -->
<g id="edge34_Node000021_Node000004" class="edge">
<title>Node21&#45;&gt;Node4</title>
<g id="a_edge34_Node000021_Node000004"><a xlink:title=" ">
<path fill="none" stroke="#63b8ff" d="M624.31,-226.85C621.02,-200.48 611.73,-126.08 607.14,-89.28"/>
<polygon fill="#63b8ff" stroke="#63b8ff" points="610.63,-88.96 605.92,-79.47 603.68,-89.83 610.63,-88.96"/>
</a>
</g>
</g>
<!-- Node21&#45;&gt;Node7 -->
<g id="edge35_Node000021_Node000007" class="edge">
<title>Node21&#45;&gt;Node7</title>
<g id="a_edge35_Node000021_Node000007"><a xlink:title=" ">
<path fill="none" stroke="#63b8ff" d="M652.51,-228.77C655.53,-228.09 658.57,-227.48 661.5,-227 772.74,-208.72 1065.53,-239.06 1167.5,-191 1215.93,-168.17 1254.58,-115.81 1272.91,-87.37"/>
<polygon fill="#63b8ff" stroke="#63b8ff" points="1275.79,-89.37 1278.12,-79.03 1269.85,-85.66 1275.79,-89.37"/>
</a>
</g>
</g>
<!-- Node21&#45;&gt;Node10 -->
<g id="edge36_Node000021_Node000010" class="edge">
<title>Node21&#45;&gt;Node10</title>
<g id="a_edge36_Node000021_Node000010"><a xlink:title=" ">
<path fill="none" stroke="#63b8ff" d="M652.46,-229.1C685.21,-220.27 741.06,-205.21 781.07,-194.42"/>
<polygon fill="#63b8ff" stroke="#63b8ff" points="781.96,-197.8 790.7,-191.82 780.14,-191.04 781.96,-197.8"/>
</a>
</g>
</g>
<!-- Node21&#45;&gt;Node18 -->
<g id="edge38_Node000021_Node000018" class="edge">
<title>Node21&#45;&gt;Node18</title>
<g id="a_edge38_Node000021_Node000018"><a xlink:title=" ">
<path fill="none" stroke="#63b8ff" d="M616.02,-226.59C608.71,-219.03 598.41,-208.39 589.66,-199.35"/>
<polygon fill="#63b8ff" stroke="#63b8ff" points="592.42,-197.17 582.95,-192.42 587.39,-202.04 592.42,-197.17"/>
</a>
</g>
</g>
<!-- Node22 -->
<g id="Node000022" class="node">
<title>Node22</title>
<g id="a_Node000022"><a xlink:href="native__sched_8h.html" target="_top" xlink:title="Add definitions required on the native board.">
<polygon fill="white" stroke="#666666" points="741.25,-191 651.75,-191 651.75,-170.25 741.25,-170.25 741.25,-191"/>
<text text-anchor="middle" x="696.5" y="-177.5" font-family="Helvetica,sans-Serif" font-size="10.00">native_sched.h</text>
</a>
</g>
</g>
<!-- Node21&#45;&gt;Node22 -->
<g id="edge37_Node000021_Node000022" class="edge">
<title>Node21&#45;&gt;Node22</title>
<g id="a_edge37_Node000021_Node000022"><a xlink:title=" ">
<path fill="none" stroke="#63b8ff" d="M638.19,-226.59C648.39,-218.72 662.94,-207.5 674.96,-198.24"/>
<polygon fill="#63b8ff" stroke="#63b8ff" points="676.94,-201.13 682.72,-192.25 672.66,-195.59 676.94,-201.13"/>
</a>
</g>
</g>
<!-- Node23&#45;&gt;Node21 -->
<g id="edge42_Node000023_Node000021" class="edge">
<title>Node23&#45;&gt;Node21</title>
<g id="a_edge42_Node000023_Node000021"><a xlink:title=" ">
<path fill="none" stroke="#63b8ff" d="M672.31,-283.34C664.37,-275.71 653.13,-264.92 643.66,-255.82"/>
<polygon fill="#63b8ff" stroke="#63b8ff" points="646.33,-253.53 636.69,-249.13 641.48,-258.58 646.33,-253.53"/>
</a>
</g>
</g>
<!-- Node24 -->
<g id="Node000024" class="node">
<title>Node24</title>
<g id="a_Node000024"><a xlink:title=" ">
<polygon fill="#e0e0e0" stroke="#999999" points="738.38,-247.75 670.62,-247.75 670.62,-227 738.38,-227 738.38,-247.75"/>
<text text-anchor="middle" x="704.5" y="-234.25" font-family="Helvetica,sans-Serif" font-size="10.00">cpu_conf.h</text>
</a>
</g>
</g>
<!-- Node23&#45;&gt;Node24 -->
<g id="edge41_Node000023_Node000024" class="edge">
<title>Node23&#45;&gt;Node24</title>
<g id="a_edge41_Node000023_Node000024"><a xlink:title=" ">
<path fill="none" stroke="#63b8ff" d="M686.43,-283.34C689.19,-276.49 692.96,-267.09 696.35,-258.65"/>
<polygon fill="#63b8ff" stroke="#63b8ff" points="699.56,-260.07 700.04,-249.48 693.06,-257.46 699.56,-260.07"/>
</a>
</g>
</g>
<!-- Node26&#45;&gt;Node2 -->
<g id="edge47_Node000026_Node000002" class="edge">
<title>Node26&#45;&gt;Node2</title>
<g id="a_edge47_Node000026_Node000002"><a xlink:title=" ">
<path fill="none" stroke="#63b8ff" d="M237.04,-230.34C203.85,-220.6 149.36,-199.54 169.5,-170.25 246.78,-57.85 701.38,-21.77 836.59,-13.45"/>
<polygon fill="#63b8ff" stroke="#63b8ff" points="836.65,-16.95 846.43,-12.86 836.24,-9.97 836.65,-16.95"/>
</a>
</g>
</g>
<!-- Node26&#45;&gt;Node4 -->
<g id="edge45_Node000026_Node000004" class="edge">
<title>Node26&#45;&gt;Node4</title>
<g id="a_edge45_Node000026_Node000004"><a xlink:title=" ">
<path fill="none" stroke="#63b8ff" d="M277.12,-226.52C289.27,-218.46 305.19,-205.98 314.5,-191 333.22,-160.88 307.51,-137.63 333.5,-113.5 366.57,-82.81 498.71,-72.7 565.47,-69.51"/>
<polygon fill="#63b8ff" stroke="#63b8ff" points="565.41,-73.02 575.24,-69.08 565.1,-66.03 565.41,-73.02"/>
</a>
</g>
</g>
<!-- Node26&#45;&gt;Node5 -->
<g id="edge46_Node000026_Node000005" class="edge">
<title>Node26&#45;&gt;Node5</title>
<g id="a_edge46_Node000026_Node000005"><a xlink:title=" ">
<path fill="none" stroke="#63b8ff" d="M237.18,-228.98C206.34,-218 158.14,-195.89 178.5,-170.25 197.2,-146.7 279.7,-134.26 331.21,-128.66"/>
<polygon fill="#63b8ff" stroke="#63b8ff" points="331.55,-132.15 341.14,-127.64 330.83,-125.18 331.55,-132.15"/>
</a>
</g>
</g>
<!-- Node27 -->
<g id="Node000027" class="node">
<title>Node27</title>
<g id="a_Node000027"><a xlink:href="senml_8h.html" target="_top" xlink:title="Basic SenML types.">
<polygon fill="white" stroke="#666666" points="493,-191 438,-191 438,-170.25 493,-170.25 493,-191"/>
<text text-anchor="middle" x="465.5" y="-177.5" font-family="Helvetica,sans-Serif" font-size="10.00">senml.h</text>
</a>
</g>
</g>
<!-- Node26&#45;&gt;Node27 -->
<g id="edge48_Node000026_Node000027" class="edge">
<title>Node26&#45;&gt;Node27</title>
<g id="a_edge48_Node000026_Node000027"><a xlink:title=" ">
<path fill="none" stroke="#63b8ff" d="M283.62,-230.2C318.34,-220.93 384.38,-203.29 426.6,-192.01"/>
<polygon fill="#63b8ff" stroke="#63b8ff" points="427.35,-195.44 436.11,-189.47 425.55,-188.67 427.35,-195.44"/>
</a>
</g>
</g>
<!-- Node28 -->
<g id="Node000028" class="node">
<title>Node28</title>
<g id="a_Node000028"><a xlink:title=" ">
<polygon fill="#e0e0e0" stroke="#999999" points="305.5,-191 187.5,-191 187.5,-170.25 305.5,-170.25 305.5,-191"/>
<text text-anchor="middle" x="246.5" y="-177.5" font-family="Helvetica,sans-Serif" font-size="10.00">nanocbor/nanocbor.h</text>
</a>
</g>
</g>
<!-- Node26&#45;&gt;Node28 -->
<g id="edge53_Node000026_Node000028" class="edge">
<title>Node26&#45;&gt;Node28</title>
<g id="a_edge53_Node000026_Node000028"><a xlink:title=" ">
<path fill="none" stroke="#63b8ff" d="M258,-226.59C256.28,-219.89 253.95,-210.76 251.83,-202.48"/>
<polygon fill="#63b8ff" stroke="#63b8ff" points="255.22,-201.62 249.36,-192.79 248.44,-203.35 255.22,-201.62"/>
</a>
</g>
</g>
<!-- Node27&#45;&gt;Node2 -->
<g id="edge51_Node000027_Node000002" class="edge">
<title>Node27&#45;&gt;Node2</title>
<g id="a_edge51_Node000027_Node000002"><a xlink:title=" ">
<path fill="none" stroke="#63b8ff" d="M463.97,-169.77C462.37,-156.02 461.43,-130.81 472.5,-113.5 498.99,-72.06 521.18,-73.27 567.5,-56.75 660.31,-23.65 777.21,-14.68 836.4,-12.26"/>
<polygon fill="#63b8ff" stroke="#63b8ff" points="836.41,-15.77 846.28,-11.91 836.16,-8.77 836.41,-15.77"/>
</a>
</g>
</g>
<!-- Node27&#45;&gt;Node4 -->
<g id="edge49_Node000027_Node000004" class="edge">
<title>Node27&#45;&gt;Node4</title>
<g id="a_edge49_Node000027_Node000004"><a xlink:title=" ">
<path fill="none" stroke="#63b8ff" d="M466.54,-169.77C468.53,-155.55 474.17,-129.26 489.5,-113.5 509.78,-92.65 540.82,-81.16 565.55,-74.96"/>
<polygon fill="#63b8ff" stroke="#63b8ff" points="566.3,-78.38 575.27,-72.73 564.74,-71.55 566.3,-78.38"/>
</a>
</g>
</g>
<!-- Node27&#45;&gt;Node5 -->
<g id="edge50_Node000027_Node000005" class="edge">
<title>Node27&#45;&gt;Node5</title>
<g id="a_edge50_Node000027_Node000005"><a xlink:title=" ">
<path fill="none" stroke="#63b8ff" d="M449.05,-169.84C435.32,-161.66 415.48,-149.86 399.58,-140.4"/>
<polygon fill="#63b8ff" stroke="#63b8ff" points="401.49,-137.46 391.11,-135.35 397.91,-143.47 401.49,-137.46"/>
</a>
</g>
</g>
<!-- Node27&#45;&gt;Node11 -->
<g id="edge52_Node000027_Node000011" class="edge">
<title>Node27&#45;&gt;Node11</title>
<g id="a_edge52_Node000027_Node000011"><a xlink:title=" ">
<path fill="none" stroke="#63b8ff" d="M493.28,-176.14C507.42,-174.37 524.87,-172.19 540.5,-170.25 656.75,-155.82 793.67,-138.98 863.14,-130.44"/>
<polygon fill="#63b8ff" stroke="#63b8ff" points="863.5,-133.92 873,-129.23 862.65,-126.98 863.5,-133.92"/>
</a>
</g>
</g>
<!-- Node30 -->
<g id="Node000030" class="node">
<title>Node30</title>
<g id="a_Node000030"><a xlink:href="ciphers_8h.html" target="_top" xlink:title="Headers for the packet encryption class.">
<polygon fill="white" stroke="#666666" points="1158.5,-191 1064.5,-191 1064.5,-170.25 1158.5,-170.25 1158.5,-191"/>
<text text-anchor="middle" x="1111.5" y="-177.5" font-family="Helvetica,sans-Serif" font-size="10.00">crypto/ciphers.h</text>
</a>
</g>
</g>
<!-- Node29&#45;&gt;Node30 -->
<g id="edge56_Node000029_Node000030" class="edge">
<title>Node29&#45;&gt;Node30</title>
<g id="a_edge56_Node000029_Node000030"><a xlink:title=" ">
<path fill="none" stroke="#63b8ff" d="M1111.5,-396.96C1111.5,-363.2 1111.5,-250.09 1111.5,-202.75"/>
<polygon fill="#63b8ff" stroke="#63b8ff" points="1115,-202.77 1111.5,-192.77 1108,-202.77 1115,-202.77"/>
</a>
</g>
</g>
<!-- Node30&#45;&gt;Node2 -->
<g id="edge57_Node000030_Node000002" class="edge">
<title>Node30&#45;&gt;Node2</title>
<g id="a_edge57_Node000030_Node000002"><a xlink:title=" ">
<path fill="none" stroke="#63b8ff" d="M1116.7,-169.97C1128.12,-147.29 1152.27,-90.01 1124.5,-56.75 1097.94,-24.94 975.7,-15.38 912.53,-12.55"/>
<polygon fill="#63b8ff" stroke="#63b8ff" points="912.74,-9.05 902.61,-12.14 912.46,-16.05 912.74,-9.05"/>
</a>
</g>
</g>
<!-- Node30&#45;&gt;Node11 -->
<g id="edge58_Node000030_Node000011" class="edge">
<title>Node30&#45;&gt;Node11</title>
<g id="a_edge58_Node000030_Node000011"><a xlink:title=" ">
<path fill="none" stroke="#63b8ff" d="M1075.21,-169.84C1041.1,-160.64 989.96,-146.85 953.32,-136.96"/>
<polygon fill="#63b8ff" stroke="#63b8ff" points="954.48,-133.65 943.91,-134.43 952.66,-140.41 954.48,-133.65"/>
</a>
</g>
</g>
<!-- Node31&#45;&gt;Node2 -->
<g id="edge60_Node000031_Node000002" class="edge">
<title>Node31&#45;&gt;Node2</title>
<g id="a_edge60_Node000031_Node000002"><a xlink:title=" ">
<path fill="none" stroke="#63b8ff" d="M1560.64,-113.17C1555.65,-98.13 1543.78,-69.59 1522.5,-56.75 1470.3,-25.26 1043.9,-14.59 912.74,-12.04"/>
<polygon fill="#63b8ff" stroke="#63b8ff" points="912.92,-8.54 902.86,-11.85 912.79,-15.54 912.92,-8.54"/>
</a>
</g>
</g>
<!-- Node31&#45;&gt;Node7 -->
<g id="edge61_Node000031_Node000007" class="edge">
<title>Node31&#45;&gt;Node7</title>
<g id="a_edge61_Node000031_Node000007"><a xlink:title=" ">
<path fill="none" stroke="#63b8ff" d="M1536.31,-118.02C1493.94,-110.39 1409.34,-94.87 1328.07,-77.99"/>
<polygon fill="#63b8ff" stroke="#63b8ff" points="1329.14,-74.63 1318.63,-76.01 1327.7,-81.48 1329.14,-74.63"/>
</a>
</g>
</g>
<!-- Node32 -->
<g id="Node000032" class="node">
<title>Node32</title>
<g id="a_Node000032"><a xlink:href="time__units_8h.html" target="_top" xlink:title="Utility header providing time unit defines.">
<polygon fill="white" stroke="#666666" points="1650.88,-77.5 1574.12,-77.5 1574.12,-56.75 1650.88,-56.75 1650.88,-77.5"/>
<text text-anchor="middle" x="1612.5" y="-64" font-family="Helvetica,sans-Serif" font-size="10.00">time_units.h</text>
</a>
</g>
</g>
<!-- Node31&#45;&gt;Node32 -->
<g id="edge62_Node000031_Node000032" class="edge">
<title>Node31&#45;&gt;Node32</title>
<g id="a_edge62_Node000031_Node000032"><a xlink:title=" ">
<path fill="none" stroke="#63b8ff" d="M1572.26,-113.09C1578.95,-105.61 1588.35,-95.11 1596.39,-86.13"/>
<polygon fill="#63b8ff" stroke="#63b8ff" points="1598.75,-88.74 1602.81,-78.96 1593.53,-84.07 1598.75,-88.74"/>
</a>
</g>
</g>
<!-- Node34&#45;&gt;Node2 -->
<g id="edge65_Node000034_Node000002" class="edge">
<title>Node34&#45;&gt;Node2</title>
<g id="a_edge65_Node000034_Node000002"><a xlink:title=" ">
<path fill="none" stroke="#63b8ff" d="M1190.76,-340.04C1189.37,-320.62 1186.5,-275.97 1186.5,-238.38 1186.5,-238.38 1186.5,-238.38 1186.5,-122.88 1186.5,-87.82 1172.81,-75.98 1143.5,-56.75 1106.13,-32.23 977.63,-19.2 912.7,-14.05"/>
<polygon fill="#63b8ff" stroke="#63b8ff" points="913.1,-10.57 902.86,-13.29 912.56,-17.55 913.1,-10.57"/>
</a>
</g>
</g>
<!-- Node35&#45;&gt;Node2 -->
<g id="edge67_Node000035_Node000002" class="edge">
<title>Node35&#45;&gt;Node2</title>
<g id="a_edge67_Node000035_Node000002"><a xlink:title=" ">
<path fill="none" stroke="#63b8ff" d="M1392.89,-169.88C1437.38,-149.27 1529.32,-99.61 1489.5,-56.75 1450.2,-14.44 1040.27,-11.22 912.39,-11.25"/>
<polygon fill="#63b8ff" stroke="#63b8ff" points="912.77,-7.75 902.77,-11.26 912.77,-14.75 912.77,-7.75"/>
</a>
</g>
</g>
<!-- Node36 -->
<g id="Node000036" class="node">
<title>Node36</title>
<g id="a_Node000036"><a xlink:href="sha256_8h.html" target="_top" xlink:title="Header definitions for the SHA256 hash function.">
<polygon fill="white" stroke="#666666" points="1403.38,-134.25 1305.62,-134.25 1305.62,-113.5 1403.38,-113.5 1403.38,-134.25"/>
<text text-anchor="middle" x="1354.5" y="-120.75" font-family="Helvetica,sans-Serif" font-size="10.00">hashes/sha256.h</text>
</a>
</g>
</g>
<!-- Node35&#45;&gt;Node36 -->
<g id="edge68_Node000035_Node000036" class="edge">
<title>Node35&#45;&gt;Node36</title>
<g id="a_edge68_Node000035_Node000036"><a xlink:title=" ">
<path fill="none" stroke="#63b8ff" d="M1367.64,-169.84C1365.66,-163.06 1362.95,-153.8 1360.51,-145.44"/>
<polygon fill="#63b8ff" stroke="#63b8ff" points="1363.92,-144.65 1357.76,-136.03 1357.21,-146.61 1363.92,-144.65"/>
</a>
</g>
</g>
<!-- Node36&#45;&gt;Node4 -->
<g id="edge70_Node000036_Node000004" class="edge">
<title>Node36&#45;&gt;Node4</title>
<g id="a_edge70_Node000036_Node000004"><a xlink:title=" ">
<path fill="none" stroke="#63b8ff" d="M1305.29,-119.28C1165.75,-109.1 769.47,-80.17 643.47,-70.97"/>
<polygon fill="#63b8ff" stroke="#63b8ff" points="643.88,-67.49 633.65,-70.25 643.37,-74.47 643.88,-67.49"/>
</a>
</g>
</g>
<!-- Node36&#45;&gt;Node7 -->
<g id="edge69_Node000036_Node000007" class="edge">
<title>Node36&#45;&gt;Node7</title>
<g id="a_edge69_Node000036_Node000007"><a xlink:title=" ">
<path fill="none" stroke="#63b8ff" d="M1341.99,-113.09C1331.93,-105.22 1317.59,-94 1305.74,-84.74"/>
<polygon fill="#63b8ff" stroke="#63b8ff" points="1308.13,-82.16 1298.1,-78.76 1303.82,-87.68 1308.13,-82.16"/>
</a>
</g>
</g>
<!-- Node37 -->
<g id="Node000037" class="node">
<title>Node37</title>
<g id="a_Node000037"><a xlink:href="sha2xx__common_8h.html" target="_top" xlink:title="Common definitions for the SHA&#45;224/256 hash functions.">
<polygon fill="white" stroke="#666666" points="1480.38,-77.5 1334.62,-77.5 1334.62,-56.75 1480.38,-56.75 1480.38,-77.5"/>
<text text-anchor="middle" x="1407.5" y="-64" font-family="Helvetica,sans-Serif" font-size="10.00">hashes/sha2xx_common.h</text>
</a>
</g>
</g>
<!-- Node36&#45;&gt;Node37 -->
<g id="edge71_Node000036_Node000037" class="edge">
<title>Node36&#45;&gt;Node37</title>
<g id="a_edge71_Node000036_Node000037"><a xlink:title=" ">
<path fill="none" stroke="#63b8ff" d="M1363.98,-113.09C1371.29,-105.53 1381.59,-94.89 1390.34,-85.85"/>
<polygon fill="#63b8ff" stroke="#63b8ff" points="1392.61,-88.54 1397.05,-78.92 1387.58,-83.67 1392.61,-88.54"/>
</a>
</g>
</g>
<!-- Node37&#45;&gt;Node2 -->
<g id="edge73_Node000037_Node000002" class="edge">
<title>Node37&#45;&gt;Node2</title>
<g id="a_edge73_Node000037_Node000002"><a xlink:title=" ">
<path fill="none" stroke="#63b8ff" d="M1334.19,-57.69C1331.25,-57.37 1328.35,-57.06 1325.5,-56.75 1172.37,-40.29 989.8,-22.48 912.29,-15"/>
<polygon fill="#63b8ff" stroke="#63b8ff" points="913,-11.55 902.71,-14.08 912.33,-18.52 913,-11.55"/>
</a>
</g>
</g>
<!-- Node38 -->
<g id="Node000038" class="node">
<title>Node38</title>
<g id="a_Node000038"><a xlink:title=" ">
<polygon fill="#e0e0e0" stroke="#999999" points="1433.88,-20.75 1381.12,-20.75 1381.12,0 1433.88,0 1433.88,-20.75"/>
<text text-anchor="middle" x="1407.5" y="-7.25" font-family="Helvetica,sans-Serif" font-size="10.00">string.h</text>
</a>
</g>
</g>
<!-- Node37&#45;&gt;Node38 -->
<g id="edge72_Node000037_Node000038" class="edge">
<title>Node37&#45;&gt;Node38</title>
<g id="a_edge72_Node000037_Node000038"><a xlink:title=" ">
<path fill="none" stroke="#63b8ff" d="M1407.5,-56.34C1407.5,-49.72 1407.5,-40.72 1407.5,-32.52"/>
<polygon fill="#63b8ff" stroke="#63b8ff" points="1411,-32.59 1407.5,-22.59 1404,-32.59 1411,-32.59"/>
</a>
</g>
</g>
</g>
</svg>
