<?xml version="1.0" encoding="UTF-8" standalone="no"?>
<!DOCTYPE svg PUBLIC "-//W3C//DTD SVG 1.1//EN"
 "http://www.w3.org/Graphics/SVG/1.1/DTD/svg11.dtd">
<!-- Generated by graphviz version 12.1.1 (0)
 -->
<!-- Title: sys/include/fido2/ctap/ctap_crypto.h Pages: 1 -->
<svg width="413pt" height="181pt"
 viewBox="0.00 0.00 412.50 180.50" xmlns="http://www.w3.org/2000/svg" xmlns:xlink="http://www.w3.org/1999/xlink">
<g id="graph0" class="graph" transform="scale(1 1) rotate(0) translate(4 176.5)">
<title>sys/include/fido2/ctap/ctap_crypto.h</title>
<!-- Node1 -->
<g id="Node000001" class="node">
<title>Node1</title>
<g id="a_Node000001"><a xlink:title="FIDO2 CTAP crypto helper defines, structures and function declarations.">
<polygon fill="#999999" stroke="#666666" points="263.5,-172.5 141,-172.5 141,-139 263.5,-139 263.5,-172.5"/>
<text text-anchor="start" x="149" y="-159" font-family="Helvetica,sans-Serif" font-size="10.00">sys/include/fido2/ctap</text>
<text text-anchor="middle" x="202.25" y="-146.25" font-family="Helvetica,sans-Serif" font-size="10.00">/ctap_crypto.h</text>
</a>
</g>
</g>
<!-- Node2 -->
<g id="Node000002" class="node">
<title>Node2</title>
<g id="a_Node000002"><a xlink:href="ctap_2ctap_8h.html" target="_top" xlink:title="Internal FIDO2 CTAP defines, structures and function declarations.">
<polygon fill="white" stroke="#666666" points="263.5,-103 141,-103 141,-69.5 263.5,-69.5 263.5,-103"/>
<text text-anchor="start" x="149" y="-89.5" font-family="Helvetica,sans-Serif" font-size="10.00">sys/include/fido2/ctap</text>
<text text-anchor="middle" x="202.25" y="-76.75" font-family="Helvetica,sans-Serif" font-size="10.00">/ctap.h</text>
</a>
</g>
</g>
<!-- Node1&#45;&gt;Node2 -->
<g id="edge1_Node000001_Node000002" class="edge">
<title>Node1&#45;&gt;Node2</title>
<g id="a_edge1_Node000001_Node000002"><a xlink:title=" ">
<path fill="none" stroke="#63b8ff" d="M202.25,-127.31C202.25,-119.09 202.25,-110.34 202.25,-103.13"/>
<polygon fill="#63b8ff" stroke="#63b8ff" points="198.75,-127.24 202.25,-137.24 205.75,-127.24 198.75,-127.24"/>
</a>
</g>
</g>
<!-- Node3 -->
<g id="Node000003" class="node">
<title>Node3</title>
<g id="a_Node000003"><a xlink:href="ctap__cbor_8h.html" target="_top" xlink:title="CTAP CBOR helper function declarations.">
<polygon fill="white" stroke="#666666" points="122.5,-33.5 0,-33.5 0,0 122.5,0 122.5,-33.5"/>
<text text-anchor="start" x="8" y="-20" font-family="Helvetica,sans-Serif" font-size="10.00">sys/include/fido2/ctap</text>
<text text-anchor="middle" x="61.25" y="-7.25" font-family="Helvetica,sans-Serif" font-size="10.00">/ctap_cbor.h</text>
</a>
</g>
</g>
<!-- Node2&#45;&gt;Node3 -->
<g id="edge2_Node000002_Node000003" class="edge">
<title>Node2&#45;&gt;Node3</title>
<g id="a_edge2_Node000002_Node000003"><a xlink:title=" ">
<path fill="none" stroke="#63b8ff" d="M158.13,-64.13C137.65,-54.33 113.71,-42.86 94.75,-33.79"/>
<polygon fill="#63b8ff" stroke="#63b8ff" points="156.58,-67.27 167.11,-68.43 159.6,-60.95 156.58,-67.27"/>
</a>
</g>
</g>
<!-- Node4 -->
<g id="Node000004" class="node">
<title>Node4</title>
<g id="a_Node000004"><a xlink:href="ctap__mem_8h.html" target="_top" xlink:title="Definitions for CTAP flash memory helper functions.">
<polygon fill="white" stroke="#666666" points="263.5,-33.5 141,-33.5 141,0 263.5,0 263.5,-33.5"/>
<text text-anchor="start" x="149" y="-20" font-family="Helvetica,sans-Serif" font-size="10.00">sys/include/fido2/ctap</text>
<text text-anchor="middle" x="202.25" y="-7.25" font-family="Helvetica,sans-Serif" font-size="10.00">/ctap_mem.h</text>
</a>
</g>
</g>
<!-- Node2&#45;&gt;Node4 -->
<g id="edge3_Node000002_Node000004" class="edge">
<title>Node2&#45;&gt;Node4</title>
<g id="a_edge3_Node000002_Node000004"><a xlink:title=" ">
<path fill="none" stroke="#63b8ff" d="M202.25,-57.81C202.25,-49.59 202.25,-40.84 202.25,-33.63"/>
<polygon fill="#63b8ff" stroke="#63b8ff" points="198.75,-57.74 202.25,-67.74 205.75,-57.74 198.75,-57.74"/>
</a>
</g>
</g>
<!-- Node5 -->
<g id="Node000005" class="node">
<title>Node5</title>
<g id="a_Node000005"><a xlink:href="ctap__utils_8h.html" target="_top" xlink:title="Definition for CTAP utility functions.">
<polygon fill="white" stroke="#666666" points="404.5,-33.5 282,-33.5 282,0 404.5,0 404.5,-33.5"/>
<text text-anchor="start" x="290" y="-20" font-family="Helvetica,sans-Serif" font-size="10.00">sys/include/fido2/ctap</text>
<text text-anchor="middle" x="343.25" y="-7.25" font-family="Helvetica,sans-Serif" font-size="10.00">/ctap_utils.h</text>
</a>
</g>
</g>
<!-- Node2&#45;&gt;Node5 -->
<g id="edge4_Node000002_Node000005" class="edge">
<title>Node2&#45;&gt;Node5</title>
<g id="a_edge4_Node000002_Node000005"><a xlink:title=" ">
<path fill="none" stroke="#63b8ff" d="M246.37,-64.13C266.85,-54.33 290.79,-42.86 309.75,-33.79"/>
<polygon fill="#63b8ff" stroke="#63b8ff" points="244.9,-60.95 237.39,-68.43 247.92,-67.27 244.9,-60.95"/>
</a>
</g>
</g>
</g>
</svg>
