<?xml version="1.0" encoding="UTF-8" standalone="no"?>
<!DOCTYPE svg PUBLIC "-//W3C//DTD SVG 1.1//EN"
 "http://www.w3.org/Graphics/SVG/1.1/DTD/svg11.dtd">
<!-- Generated by graphviz version 12.1.1 (0)
 -->
<!-- Title: drivers/include/dac_dds.h Pages: 1 -->
<svg width="625pt" height="212pt"
 viewBox="0.00 0.00 624.50 211.75" xmlns="http://www.w3.org/2000/svg" xmlns:xlink="http://www.w3.org/1999/xlink">
<g id="graph0" class="graph" transform="scale(1 1) rotate(0) translate(4 207.75)">
<title>drivers/include/dac_dds.h</title>
<!-- Node1 -->
<g id="Node000001" class="node">
<title>Node1</title>
<g id="a_Node000001"><a xlink:title="Use a DAC to play a buffer of samples.">
<polygon fill="#999999" stroke="#666666" points="276.62,-203.75 168.38,-203.75 168.38,-170.25 276.62,-170.25 276.62,-203.75"/>
<text text-anchor="start" x="176.38" y="-190.25" font-family="Helvetica,sans-Serif" font-size="10.00">drivers/include/dac</text>
<text text-anchor="middle" x="222.5" y="-177.5" font-family="Helvetica,sans-Serif" font-size="10.00">_dds.h</text>
</a>
</g>
</g>
<!-- Node2 -->
<g id="Node000002" class="node">
<title>Node2</title>
<g id="a_Node000002"><a xlink:title=" ">
<polygon fill="#e0e0e0" stroke="#999999" points="55,-134.25 0,-134.25 0,-113.5 55,-113.5 55,-134.25"/>
<text text-anchor="middle" x="27.5" y="-120.75" font-family="Helvetica,sans-Serif" font-size="10.00">stddef.h</text>
</a>
</g>
</g>
<!-- Node1&#45;&gt;Node2 -->
<g id="edge1_Node000001_Node000002" class="edge">
<title>Node1&#45;&gt;Node2</title>
<g id="a_edge1_Node000001_Node000002"><a xlink:title=" ">
<path fill="none" stroke="#63b8ff" d="M170.76,-169.78C137.94,-159.49 96.18,-146.4 66.23,-137.01"/>
<polygon fill="#63b8ff" stroke="#63b8ff" points="67.4,-133.71 56.81,-134.06 65.31,-140.39 67.4,-133.71"/>
</a>
</g>
</g>
<!-- Node3 -->
<g id="Node000003" class="node">
<title>Node3</title>
<g id="a_Node000003"><a xlink:title=" ">
<polygon fill="#e0e0e0" stroke="#999999" points="611.88,-20.75 559.12,-20.75 559.12,0 611.88,0 611.88,-20.75"/>
<text text-anchor="middle" x="585.5" y="-7.25" font-family="Helvetica,sans-Serif" font-size="10.00">stdint.h</text>
</a>
</g>
</g>
<!-- Node1&#45;&gt;Node3 -->
<g id="edge2_Node000001_Node000003" class="edge">
<title>Node1&#45;&gt;Node3</title>
<g id="a_edge2_Node000001_Node000003"><a xlink:title=" ">
<path fill="none" stroke="#63b8ff" d="M276.79,-178.94C373.88,-165.07 570.96,-130.9 611.5,-77.5 622.29,-63.29 612.59,-44.03 602.11,-29.96"/>
<polygon fill="#63b8ff" stroke="#63b8ff" points="604.95,-27.91 595.92,-22.35 599.51,-32.32 604.95,-27.91"/>
</a>
</g>
</g>
<!-- Node4 -->
<g id="Node000004" class="node">
<title>Node4</title>
<g id="a_Node000004"><a xlink:title=" ">
<polygon fill="#e0e0e0" stroke="#999999" points="225.88,-20.75 173.12,-20.75 173.12,0 225.88,0 225.88,-20.75"/>
<text text-anchor="middle" x="199.5" y="-7.25" font-family="Helvetica,sans-Serif" font-size="10.00">limits.h</text>
</a>
</g>
</g>
<!-- Node1&#45;&gt;Node4 -->
<g id="edge3_Node000001_Node000004" class="edge">
<title>Node1&#45;&gt;Node4</title>
<g id="a_edge3_Node000001_Node000004"><a xlink:title=" ">
<path fill="none" stroke="#63b8ff" d="M202.33,-169.79C180.23,-150.54 146.24,-116.14 133.5,-77.5 130.61,-68.74 129.21,-64.91 133.5,-56.75 140.28,-43.87 152.55,-33.93 164.69,-26.69"/>
<polygon fill="#63b8ff" stroke="#63b8ff" points="166.28,-29.81 173.4,-21.96 162.94,-23.65 166.28,-29.81"/>
</a>
</g>
</g>
<!-- Node5 -->
<g id="Node000005" class="node">
<title>Node5</title>
<g id="a_Node000005"><a xlink:href="dac_8h.html" target="_top" xlink:title="DAC peripheral driver interface definition.">
<polygon fill="white" stroke="#666666" points="260.5,-134.25 184.5,-134.25 184.5,-113.5 260.5,-113.5 260.5,-134.25"/>
<text text-anchor="middle" x="222.5" y="-120.75" font-family="Helvetica,sans-Serif" font-size="10.00">periph/dac.h</text>
</a>
</g>
</g>
<!-- Node1&#45;&gt;Node5 -->
<g id="edge4_Node000001_Node000005" class="edge">
<title>Node1&#45;&gt;Node5</title>
<g id="a_edge4_Node000001_Node000005"><a xlink:title=" ">
<path fill="none" stroke="#63b8ff" d="M222.5,-169.94C222.5,-162.6 222.5,-153.82 222.5,-145.96"/>
<polygon fill="#63b8ff" stroke="#63b8ff" points="226,-146.23 222.5,-136.23 219,-146.23 226,-146.23"/>
</a>
</g>
</g>
<!-- Node8 -->
<g id="Node000008" class="node">
<title>Node8</title>
<g id="a_Node000008"><a xlink:href="drivers_2include_2periph_2timer_8h.html" target="_top" xlink:title="Low&#45;level timer peripheral driver interface definitions.">
<polygon fill="white" stroke="#666666" points="398,-134.25 313,-134.25 313,-113.5 398,-113.5 398,-134.25"/>
<text text-anchor="middle" x="355.5" y="-120.75" font-family="Helvetica,sans-Serif" font-size="10.00">periph/timer.h</text>
</a>
</g>
</g>
<!-- Node1&#45;&gt;Node8 -->
<g id="edge9_Node000001_Node000008" class="edge">
<title>Node1&#45;&gt;Node8</title>
<g id="a_edge9_Node000001_Node000008"><a xlink:title=" ">
<path fill="none" stroke="#63b8ff" d="M257.79,-169.78C278.31,-160.35 303.96,-148.56 323.82,-139.43"/>
<polygon fill="#63b8ff" stroke="#63b8ff" points="325.2,-142.65 332.82,-135.3 322.27,-136.29 325.2,-142.65"/>
</a>
</g>
</g>
<!-- Node5&#45;&gt;Node3 -->
<g id="edge5_Node000005_Node000003" class="edge">
<title>Node5&#45;&gt;Node3</title>
<g id="a_edge5_Node000005_Node000003"><a xlink:title=" ">
<path fill="none" stroke="#63b8ff" d="M260.84,-117.79C321.73,-109.41 437.63,-92.18 476.5,-77.5 493.85,-70.95 535.2,-44.64 561.69,-27.24"/>
<polygon fill="#63b8ff" stroke="#63b8ff" points="563.35,-30.34 569.77,-21.91 559.49,-24.5 563.35,-30.34"/>
</a>
</g>
</g>
<!-- Node5&#45;&gt;Node4 -->
<g id="edge6_Node000005_Node000004" class="edge">
<title>Node5&#45;&gt;Node4</title>
<g id="a_edge6_Node000005_Node000004"><a xlink:title=" ">
<path fill="none" stroke="#63b8ff" d="M188.17,-113.15C170.62,-106.25 150.83,-95.02 140.5,-77.5 129.14,-58.23 149.72,-39.51 169.63,-26.94"/>
<polygon fill="#63b8ff" stroke="#63b8ff" points="171.36,-29.98 178.2,-21.89 167.81,-23.95 171.36,-29.98"/>
</a>
</g>
</g>
<!-- Node6 -->
<g id="Node000006" class="node">
<title>Node6</title>
<g id="a_Node000006"><a xlink:title=" ">
<polygon fill="#e0e0e0" stroke="#999999" points="227.62,-77.5 149.38,-77.5 149.38,-56.75 227.62,-56.75 227.62,-77.5"/>
<text text-anchor="middle" x="188.5" y="-64" font-family="Helvetica,sans-Serif" font-size="10.00">periph_cpu.h</text>
</a>
</g>
</g>
<!-- Node5&#45;&gt;Node6 -->
<g id="edge7_Node000005_Node000006" class="edge">
<title>Node5&#45;&gt;Node6</title>
<g id="a_edge7_Node000005_Node000006"><a xlink:title=" ">
<path fill="none" stroke="#63b8ff" d="M216.42,-113.09C212.02,-106 205.93,-96.19 200.56,-87.54"/>
<polygon fill="#63b8ff" stroke="#63b8ff" points="203.57,-85.76 195.32,-79.11 197.63,-89.46 203.57,-85.76"/>
</a>
</g>
</g>
<!-- Node7 -->
<g id="Node000007" class="node">
<title>Node7</title>
<g id="a_Node000007"><a xlink:title=" ">
<polygon fill="#e0e0e0" stroke="#999999" points="327.12,-77.5 245.88,-77.5 245.88,-56.75 327.12,-56.75 327.12,-77.5"/>
<text text-anchor="middle" x="286.5" y="-64" font-family="Helvetica,sans-Serif" font-size="10.00">periph_conf.h</text>
</a>
</g>
</g>
<!-- Node5&#45;&gt;Node7 -->
<g id="edge8_Node000005_Node000007" class="edge">
<title>Node5&#45;&gt;Node7</title>
<g id="a_edge8_Node000005_Node000007"><a xlink:title=" ">
<path fill="none" stroke="#63b8ff" d="M233.94,-113.09C242.95,-105.38 255.73,-94.45 266.43,-85.29"/>
<polygon fill="#63b8ff" stroke="#63b8ff" points="268.68,-87.97 274.01,-78.81 264.13,-82.65 268.68,-87.97"/>
</a>
</g>
</g>
<!-- Node8&#45;&gt;Node3 -->
<g id="edge11_Node000008_Node000003" class="edge">
<title>Node8&#45;&gt;Node3</title>
<g id="a_edge11_Node000008_Node000003"><a xlink:title=" ">
<path fill="none" stroke="#63b8ff" d="M398.49,-121.07C460.44,-117.46 570.09,-106.98 594.5,-77.5 604.99,-64.83 601.07,-45.86 595.5,-31.49"/>
<polygon fill="#63b8ff" stroke="#63b8ff" points="598.79,-30.26 591.54,-22.54 592.39,-33.1 598.79,-30.26"/>
</a>
</g>
</g>
<!-- Node8&#45;&gt;Node4 -->
<g id="edge10_Node000008_Node000004" class="edge">
<title>Node8&#45;&gt;Node4</title>
<g id="a_edge10_Node000008_Node000004"><a xlink:title=" ">
<path fill="none" stroke="#63b8ff" d="M355.43,-113.42C354.81,-99.23 351.56,-72.43 336.5,-56.75 310.56,-29.75 268.24,-18.81 237.48,-14.38"/>
<polygon fill="#63b8ff" stroke="#63b8ff" points="238.18,-10.94 227.82,-13.17 237.31,-17.89 238.18,-10.94"/>
</a>
</g>
</g>
<!-- Node8&#45;&gt;Node6 -->
<g id="edge18_Node000008_Node000006" class="edge">
<title>Node8&#45;&gt;Node6</title>
<g id="a_edge18_Node000008_Node000006"><a xlink:title=" ">
<path fill="none" stroke="#63b8ff" d="M325.64,-113.09C298.77,-104.28 259.05,-91.25 229.26,-81.49"/>
<polygon fill="#63b8ff" stroke="#63b8ff" points="230.41,-78.18 219.82,-78.39 228.23,-84.83 230.41,-78.18"/>
</a>
</g>
</g>
<!-- Node8&#45;&gt;Node7 -->
<g id="edge19_Node000008_Node000007" class="edge">
<title>Node8&#45;&gt;Node7</title>
<g id="a_edge19_Node000008_Node000007"><a xlink:title=" ">
<path fill="none" stroke="#63b8ff" d="M343.16,-113.09C333.25,-105.22 319.11,-94 307.44,-84.74"/>
<polygon fill="#63b8ff" stroke="#63b8ff" points="309.92,-82.24 299.91,-78.77 305.57,-87.73 309.92,-82.24"/>
</a>
</g>
</g>
<!-- Node9 -->
<g id="Node000009" class="node">
<title>Node9</title>
<g id="a_Node000009"><a xlink:title=" ">
<polygon fill="#e0e0e0" stroke="#999999" points="585,-77.5 524,-77.5 524,-56.75 585,-56.75 585,-77.5"/>
<text text-anchor="middle" x="554.5" y="-64" font-family="Helvetica,sans-Serif" font-size="10.00">stdbool.h</text>
</a>
</g>
</g>
<!-- Node8&#45;&gt;Node9 -->
<g id="edge12_Node000008_Node000009" class="edge">
<title>Node8&#45;&gt;Node9</title>
<g id="a_edge12_Node000008_Node000009"><a xlink:title=" ">
<path fill="none" stroke="#63b8ff" d="M391.08,-113.09C425.32,-103.67 477.08,-89.42 513.15,-79.5"/>
<polygon fill="#63b8ff" stroke="#63b8ff" points="513.63,-83 522.34,-76.97 511.77,-76.25 513.63,-83"/>
</a>
</g>
</g>
<!-- Node10 -->
<g id="Node000010" class="node">
<title>Node10</title>
<g id="a_Node000010"><a xlink:href="architecture_8h.html" target="_top" xlink:title="Platform&#45;independent access to architecture details.">
<polygon fill="white" stroke="#666666" points="467.25,-77.5 383.75,-77.5 383.75,-56.75 467.25,-56.75 467.25,-77.5"/>
<text text-anchor="middle" x="425.5" y="-64" font-family="Helvetica,sans-Serif" font-size="10.00">architecture.h</text>
</a>
</g>
</g>
<!-- Node8&#45;&gt;Node10 -->
<g id="edge13_Node000008_Node000010" class="edge">
<title>Node8&#45;&gt;Node10</title>
<g id="a_edge13_Node000008_Node000010"><a xlink:title=" ">
<path fill="none" stroke="#63b8ff" d="M368.01,-113.09C378.07,-105.22 392.41,-94 404.26,-84.74"/>
<polygon fill="#63b8ff" stroke="#63b8ff" points="406.18,-87.68 411.9,-78.76 401.87,-82.16 406.18,-87.68"/>
</a>
</g>
</g>
<!-- Node10&#45;&gt;Node3 -->
<g id="edge14_Node000010_Node000003" class="edge">
<title>Node10&#45;&gt;Node3</title>
<g id="a_edge14_Node000010_Node000003"><a xlink:title=" ">
<path fill="none" stroke="#63b8ff" d="M454.1,-56.34C480.29,-47.38 519.22,-34.06 547.91,-24.24"/>
<polygon fill="#63b8ff" stroke="#63b8ff" points="548.98,-27.57 557.31,-21.02 546.71,-20.95 548.98,-27.57"/>
</a>
</g>
</g>
<!-- Node10&#45;&gt;Node4 -->
<g id="edge16_Node000010_Node000004" class="edge">
<title>Node10&#45;&gt;Node4</title>
<g id="a_edge16_Node000010_Node000004"><a xlink:title=" ">
<path fill="none" stroke="#63b8ff" d="M384.83,-56.27C342.87,-46.11 277.96,-30.38 237.14,-20.49"/>
<polygon fill="#63b8ff" stroke="#63b8ff" points="238.07,-17.12 227.53,-18.16 236.42,-23.92 238.07,-17.12"/>
</a>
</g>
</g>
<!-- Node11 -->
<g id="Node000011" class="node">
<title>Node11</title>
<g id="a_Node000011"><a xlink:href="inttypes_8h.html" target="_top" xlink:title="Adds include for missing inttype definitions.">
<polygon fill="white" stroke="#666666" points="485.88,-20.75 421.12,-20.75 421.12,0 485.88,0 485.88,-20.75"/>
<text text-anchor="middle" x="453.5" y="-7.25" font-family="Helvetica,sans-Serif" font-size="10.00">inttypes.h</text>
</a>
</g>
</g>
<!-- Node10&#45;&gt;Node11 -->
<g id="edge15_Node000010_Node000011" class="edge">
<title>Node10&#45;&gt;Node11</title>
<g id="a_edge15_Node000010_Node000011"><a xlink:title=" ">
<path fill="none" stroke="#63b8ff" d="M430.51,-56.34C434.09,-49.33 439.04,-39.66 443.42,-31.08"/>
<polygon fill="#63b8ff" stroke="#63b8ff" points="446.41,-32.92 447.85,-22.43 440.18,-29.74 446.41,-32.92"/>
</a>
</g>
</g>
<!-- Node12 -->
<g id="Node000012" class="node">
<title>Node12</title>
<g id="a_Node000012"><a xlink:title=" ">
<polygon fill="#e0e0e0" stroke="#999999" points="403.38,-20.75 293.62,-20.75 293.62,0 403.38,0 403.38,-20.75"/>
<text text-anchor="middle" x="348.5" y="-7.25" font-family="Helvetica,sans-Serif" font-size="10.00">architecture_arch.h</text>
</a>
</g>
</g>
<!-- Node10&#45;&gt;Node12 -->
<g id="edge17_Node000010_Node000012" class="edge">
<title>Node10&#45;&gt;Node12</title>
<g id="a_edge17_Node000010_Node000012"><a xlink:title=" ">
<path fill="none" stroke="#63b8ff" d="M411.73,-56.34C400.57,-48.4 384.58,-37.03 371.48,-27.71"/>
<polygon fill="#63b8ff" stroke="#63b8ff" points="373.56,-24.9 363.38,-21.96 369.5,-30.6 373.56,-24.9"/>
</a>
</g>
</g>
</g>
</svg>
