<?xml version="1.0" encoding="UTF-8" standalone="no"?>
<!DOCTYPE svg PUBLIC "-//W3C//DTD SVG 1.1//EN"
 "http://www.w3.org/Graphics/SVG/1.1/DTD/svg11.dtd">
<!-- Generated by graphviz version 12.1.1 (0)
 -->
<!-- Title: drivers/dfplayer/include/dfplayer_types.h Pages: 1 -->
<svg width="1359pt" height="496pt"
 viewBox="0.00 0.00 1359.00 495.50" xmlns="http://www.w3.org/2000/svg" xmlns:xlink="http://www.w3.org/1999/xlink">
<g id="graph0" class="graph" transform="scale(1 1) rotate(0) translate(4 491.5)">
<title>drivers/dfplayer/include/dfplayer_types.h</title>
<!-- Node1 -->
<g id="Node000001" class="node">
<title>Node1</title>
<g id="a_Node000001"><a xlink:title="Types used in the DFPlayer Mini Device Driver.">
<polygon fill="#999999" stroke="#666666" points="1107.75,-487.5 976.25,-487.5 976.25,-454 1107.75,-454 1107.75,-487.5"/>
<text text-anchor="start" x="984.25" y="-474" font-family="Helvetica,sans-Serif" font-size="10.00">drivers/dfplayer/include</text>
<text text-anchor="middle" x="1042" y="-461.25" font-family="Helvetica,sans-Serif" font-size="10.00">/dfplayer_types.h</text>
</a>
</g>
</g>
<!-- Node2 -->
<g id="Node000002" class="node">
<title>Node2</title>
<g id="a_Node000002"><a xlink:title=" ">
<polygon fill="#e0e0e0" stroke="#999999" points="454.5,-134.25 393.5,-134.25 393.5,-113.5 454.5,-113.5 454.5,-134.25"/>
<text text-anchor="middle" x="424" y="-120.75" font-family="Helvetica,sans-Serif" font-size="10.00">stdbool.h</text>
</a>
</g>
</g>
<!-- Node1&#45;&gt;Node2 -->
<g id="edge1_Node000001_Node000002" class="edge">
<title>Node1&#45;&gt;Node2</title>
<g id="a_edge1_Node000001_Node000002"><a xlink:title=" ">
<path fill="none" stroke="#63b8ff" d="M976.12,-468.96C752.76,-465.41 38,-446.65 38,-351.88 38,-351.88 38,-351.88 38,-293.12 38,-274.18 291.09,-175.6 387.4,-138.77"/>
<polygon fill="#63b8ff" stroke="#63b8ff" points="388.57,-142.07 396.66,-135.24 386.07,-135.53 388.57,-142.07"/>
</a>
</g>
</g>
<!-- Node3 -->
<g id="Node000003" class="node">
<title>Node3</title>
<g id="a_Node000003"><a xlink:title=" ">
<polygon fill="#e0e0e0" stroke="#999999" points="372.38,-20.75 319.62,-20.75 319.62,0 372.38,0 372.38,-20.75"/>
<text text-anchor="middle" x="346" y="-7.25" font-family="Helvetica,sans-Serif" font-size="10.00">stdint.h</text>
</a>
</g>
</g>
<!-- Node1&#45;&gt;Node3 -->
<g id="edge2_Node000001_Node000003" class="edge">
<title>Node1&#45;&gt;Node3</title>
<g id="a_edge2_Node000001_Node000003"><a xlink:title=" ">
<path fill="none" stroke="#63b8ff" d="M1107.91,-458.34C1198.66,-440.73 1351,-403.48 1351,-351.88 1351,-351.88 1351,-351.88 1351,-122.88 1351,-23.67 567.42,-12.73 384.06,-11.52"/>
<polygon fill="#63b8ff" stroke="#63b8ff" points="384.16,-8.02 374.14,-11.46 384.12,-15.02 384.16,-8.02"/>
</a>
</g>
</g>
<!-- Node4 -->
<g id="Node000004" class="node">
<title>Node4</title>
<g id="a_Node000004"><a xlink:href="mutex_8h.html" target="_top" xlink:title="Mutex for thread synchronization.">
<polygon fill="white" stroke="#666666" points="464.25,-418 407.75,-418 407.75,-397.25 464.25,-397.25 464.25,-418"/>
<text text-anchor="middle" x="436" y="-404.5" font-family="Helvetica,sans-Serif" font-size="10.00">mutex.h</text>
</a>
</g>
</g>
<!-- Node1&#45;&gt;Node4 -->
<g id="edge3_Node000001_Node000004" class="edge">
<title>Node1&#45;&gt;Node4</title>
<g id="a_edge3_Node000001_Node000004"><a xlink:title=" ">
<path fill="none" stroke="#63b8ff" d="M975.99,-463.09C849.85,-450.37 578,-422.95 475.87,-412.65"/>
<polygon fill="#63b8ff" stroke="#63b8ff" points="476.36,-409.18 466.06,-411.66 475.66,-416.14 476.36,-409.18"/>
</a>
</g>
</g>
<!-- Node26 -->
<g id="Node000026" class="node">
<title>Node26</title>
<g id="a_Node000026"><a xlink:href="drivers_2include_2periph_2gpio_8h.html" target="_top" xlink:title="Low&#45;level GPIO peripheral driver interface definitions.">
<polygon fill="white" stroke="#666666" points="1081.88,-247.75 1002.12,-247.75 1002.12,-227 1081.88,-227 1081.88,-247.75"/>
<text text-anchor="middle" x="1042" y="-234.25" font-family="Helvetica,sans-Serif" font-size="10.00">periph/gpio.h</text>
</a>
</g>
</g>
<!-- Node1&#45;&gt;Node26 -->
<g id="edge45_Node000001_Node000026" class="edge">
<title>Node1&#45;&gt;Node26</title>
<g id="a_edge45_Node000001_Node000026"><a xlink:title=" ">
<path fill="none" stroke="#63b8ff" d="M1042,-453.85C1042,-413.06 1042,-304.74 1042,-259.1"/>
<polygon fill="#63b8ff" stroke="#63b8ff" points="1045.5,-259.29 1042,-249.29 1038.5,-259.29 1045.5,-259.29"/>
</a>
</g>
</g>
<!-- Node29 -->
<g id="Node000029" class="node">
<title>Node29</title>
<g id="a_Node000029"><a xlink:href="drivers_2include_2periph_2uart_8h.html" target="_top" xlink:title="Low&#45;level UART peripheral driver interface definition.">
<polygon fill="white" stroke="#666666" points="1179.12,-247.75 1100.88,-247.75 1100.88,-227 1179.12,-227 1179.12,-247.75"/>
<text text-anchor="middle" x="1140" y="-234.25" font-family="Helvetica,sans-Serif" font-size="10.00">periph/uart.h</text>
</a>
</g>
</g>
<!-- Node1&#45;&gt;Node29 -->
<g id="edge49_Node000001_Node000029" class="edge">
<title>Node1&#45;&gt;Node29</title>
<g id="a_edge49_Node000001_Node000029"><a xlink:title=" ">
<path fill="none" stroke="#63b8ff" d="M1048.74,-453.85C1066.12,-412.8 1112.48,-303.34 1131.59,-258.23"/>
<polygon fill="#63b8ff" stroke="#63b8ff" points="1134.75,-259.74 1135.43,-249.17 1128.31,-257.01 1134.75,-259.74"/>
</a>
</g>
</g>
<!-- Node4&#45;&gt;Node2 -->
<g id="edge6_Node000004_Node000002" class="edge">
<title>Node4&#45;&gt;Node2</title>
<g id="a_edge6_Node000004_Node000002"><a xlink:title=" ">
<path fill="none" stroke="#63b8ff" d="M407.26,-398.36C365.77,-384.46 294,-352.17 294,-295.12 294,-295.12 294,-295.12 294,-236.38 294,-187.73 347.1,-155.72 385.43,-138.95"/>
<polygon fill="#63b8ff" stroke="#63b8ff" points="386.52,-142.29 394.4,-135.21 383.82,-135.83 386.52,-142.29"/>
</a>
</g>
</g>
<!-- Node4&#45;&gt;Node3 -->
<g id="edge5_Node000004_Node000003" class="edge">
<title>Node4&#45;&gt;Node3</title>
<g id="a_edge5_Node000004_Node000003"><a xlink:title=" ">
<path fill="none" stroke="#63b8ff" d="M407.39,-402C310.39,-385.54 0,-326 0,-238.38 0,-238.38 0,-238.38 0,-122.88 0,-77.43 36.79,-75.92 78,-56.75 154.17,-21.31 254.02,-13.22 307.76,-11.58"/>
<polygon fill="#63b8ff" stroke="#63b8ff" points="307.71,-15.08 317.63,-11.34 307.54,-8.08 307.71,-15.08"/>
</a>
</g>
</g>
<!-- Node5 -->
<g id="Node000005" class="node">
<title>Node5</title>
<g id="a_Node000005"><a xlink:title=" ">
<polygon fill="#e0e0e0" stroke="#999999" points="644.5,-77.5 589.5,-77.5 589.5,-56.75 644.5,-56.75 644.5,-77.5"/>
<text text-anchor="middle" x="617" y="-64" font-family="Helvetica,sans-Serif" font-size="10.00">stddef.h</text>
</a>
</g>
</g>
<!-- Node4&#45;&gt;Node5 -->
<g id="edge4_Node000004_Node000005" class="edge">
<title>Node4&#45;&gt;Node5</title>
<g id="a_edge4_Node000004_Node000005"><a xlink:title=" ">
<path fill="none" stroke="#63b8ff" d="M464.59,-402.32C539.72,-390.2 737,-352.87 737,-295.12 737,-295.12 737,-295.12 737,-179.62 737,-132.78 687.31,-100.05 651.88,-82.67"/>
<polygon fill="#63b8ff" stroke="#63b8ff" points="653.77,-79.69 643.23,-78.62 650.8,-86.03 653.77,-79.69"/>
</a>
</g>
</g>
<!-- Node6 -->
<g id="Node000006" class="node">
<title>Node6</title>
<g id="a_Node000006"><a xlink:href="architecture_8h.html" target="_top" xlink:title="Platform&#45;independent access to architecture details.">
<polygon fill="white" stroke="#666666" points="861.75,-247.75 778.25,-247.75 778.25,-227 861.75,-227 861.75,-247.75"/>
<text text-anchor="middle" x="820" y="-234.25" font-family="Helvetica,sans-Serif" font-size="10.00">architecture.h</text>
</a>
</g>
</g>
<!-- Node4&#45;&gt;Node6 -->
<g id="edge7_Node000004_Node000006" class="edge">
<title>Node4&#45;&gt;Node6</title>
<g id="a_edge7_Node000004_Node000006"><a xlink:title=" ">
<path fill="none" stroke="#63b8ff" d="M464.71,-405.68C533.36,-402.94 704.69,-393.01 751,-361.25 786.86,-336.66 806.18,-287 814.65,-258.93"/>
<polygon fill="#63b8ff" stroke="#63b8ff" points="817.96,-260.06 817.3,-249.49 811.22,-258.17 817.96,-260.06"/>
</a>
</g>
</g>
<!-- Node10 -->
<g id="Node000010" class="node">
<title>Node10</title>
<g id="a_Node000010"><a xlink:href="kernel__defines_8h.html" target="_top" xlink:title="Common macros and compiler attributes/pragmas configuration.">
<polygon fill="white" stroke="#666666" points="228.12,-191 131.88,-191 131.88,-170.25 228.12,-170.25 228.12,-191"/>
<text text-anchor="middle" x="180" y="-177.5" font-family="Helvetica,sans-Serif" font-size="10.00">kernel_defines.h</text>
</a>
</g>
</g>
<!-- Node4&#45;&gt;Node10 -->
<g id="edge12_Node000004_Node000010" class="edge">
<title>Node4&#45;&gt;Node10</title>
<g id="a_edge12_Node000004_Node000010"><a xlink:title=" ">
<path fill="none" stroke="#63b8ff" d="M407.41,-404.79C373.65,-401.28 317.39,-391.05 280,-361.25 226.59,-318.68 197.15,-239.38 185.69,-202.05"/>
<polygon fill="#63b8ff" stroke="#63b8ff" points="189.08,-201.18 182.91,-192.57 182.36,-203.15 189.08,-201.18"/>
</a>
</g>
</g>
<!-- Node16 -->
<g id="Node000016" class="node">
<title>Node16</title>
<g id="a_Node000016"><a xlink:href="list_8h.html" target="_top" xlink:title="Intrusive linked list.">
<polygon fill="white" stroke="#666666" points="551,-134.25 511,-134.25 511,-113.5 551,-113.5 551,-134.25"/>
<text text-anchor="middle" x="531" y="-120.75" font-family="Helvetica,sans-Serif" font-size="10.00">list.h</text>
</a>
</g>
</g>
<!-- Node4&#45;&gt;Node16 -->
<g id="edge23_Node000004_Node000016" class="edge">
<title>Node4&#45;&gt;Node16</title>
<g id="a_edge23_Node000004_Node000016"><a xlink:title=" ">
<path fill="none" stroke="#63b8ff" d="M431.87,-396.99C424.08,-377.91 408,-333.84 408,-295.12 408,-295.12 408,-295.12 408,-236.38 408,-205.8 406.85,-193.25 427,-170.25 445.77,-148.83 476.51,-137.13 499.71,-131.01"/>
<polygon fill="#63b8ff" stroke="#63b8ff" points="500.35,-134.45 509.26,-128.71 498.72,-127.65 500.35,-134.45"/>
</a>
</g>
</g>
<!-- Node17 -->
<g id="Node000017" class="node">
<title>Node17</title>
<g id="a_Node000017"><a xlink:href="core_2include_2thread_8h.html" target="_top" xlink:title="Threading API.">
<polygon fill="white" stroke="#666666" points="492.25,-361.25 435.75,-361.25 435.75,-340.5 492.25,-340.5 492.25,-361.25"/>
<text text-anchor="middle" x="464" y="-347.75" font-family="Helvetica,sans-Serif" font-size="10.00">thread.h</text>
</a>
</g>
</g>
<!-- Node4&#45;&gt;Node17 -->
<g id="edge24_Node000004_Node000017" class="edge">
<title>Node4&#45;&gt;Node17</title>
<g id="a_edge24_Node000004_Node000017"><a xlink:title=" ">
<path fill="none" stroke="#63b8ff" d="M441.01,-396.84C444.59,-389.83 449.54,-380.16 453.92,-371.58"/>
<polygon fill="#63b8ff" stroke="#63b8ff" points="456.91,-373.42 458.35,-362.93 450.68,-370.24 456.91,-373.42"/>
</a>
</g>
</g>
<!-- Node6&#45;&gt;Node3 -->
<g id="edge8_Node000006_Node000003" class="edge">
<title>Node6&#45;&gt;Node3</title>
<g id="a_edge8_Node000006_Node000003"><a xlink:title=" ">
<path fill="none" stroke="#63b8ff" d="M842.09,-226.6C865.8,-214.65 898.25,-193.18 884,-170.25 823.82,-73.44 762.82,-90.69 654,-56.75 559.63,-27.31 442.89,-16.78 383.91,-13.16"/>
<polygon fill="#63b8ff" stroke="#63b8ff" points="384.27,-9.68 374.08,-12.6 383.87,-16.66 384.27,-9.68"/>
</a>
</g>
</g>
<!-- Node7 -->
<g id="Node000007" class="node">
<title>Node7</title>
<g id="a_Node000007"><a xlink:href="inttypes_8h.html" target="_top" xlink:title="Adds include for missing inttype definitions.">
<polygon fill="white" stroke="#666666" points="709.38,-191 644.62,-191 644.62,-170.25 709.38,-170.25 709.38,-191"/>
<text text-anchor="middle" x="677" y="-177.5" font-family="Helvetica,sans-Serif" font-size="10.00">inttypes.h</text>
</a>
</g>
</g>
<!-- Node6&#45;&gt;Node7 -->
<g id="edge9_Node000006_Node000007" class="edge">
<title>Node6&#45;&gt;Node7</title>
<g id="a_edge9_Node000006_Node000007"><a xlink:title=" ">
<path fill="none" stroke="#63b8ff" d="M794.43,-226.59C771.76,-217.91 738.4,-205.13 713.02,-195.42"/>
<polygon fill="#63b8ff" stroke="#63b8ff" points="714.35,-192.18 703.76,-191.87 711.85,-198.71 714.35,-192.18"/>
</a>
</g>
</g>
<!-- Node8 -->
<g id="Node000008" class="node">
<title>Node8</title>
<g id="a_Node000008"><a xlink:title=" ">
<polygon fill="#e0e0e0" stroke="#999999" points="983.38,-191 930.62,-191 930.62,-170.25 983.38,-170.25 983.38,-191"/>
<text text-anchor="middle" x="957" y="-177.5" font-family="Helvetica,sans-Serif" font-size="10.00">limits.h</text>
</a>
</g>
</g>
<!-- Node6&#45;&gt;Node8 -->
<g id="edge10_Node000006_Node000008" class="edge">
<title>Node6&#45;&gt;Node8</title>
<g id="a_edge10_Node000006_Node000008"><a xlink:title=" ">
<path fill="none" stroke="#63b8ff" d="M844.49,-226.59C866.12,-217.94 897.89,-205.25 922.16,-195.55"/>
<polygon fill="#63b8ff" stroke="#63b8ff" points="923.33,-198.85 931.31,-191.89 920.73,-192.35 923.33,-198.85"/>
</a>
</g>
</g>
<!-- Node9 -->
<g id="Node000009" class="node">
<title>Node9</title>
<g id="a_Node000009"><a xlink:title=" ">
<polygon fill="#e0e0e0" stroke="#999999" points="874.88,-191 765.12,-191 765.12,-170.25 874.88,-170.25 874.88,-191"/>
<text text-anchor="middle" x="820" y="-177.5" font-family="Helvetica,sans-Serif" font-size="10.00">architecture_arch.h</text>
</a>
</g>
</g>
<!-- Node6&#45;&gt;Node9 -->
<g id="edge11_Node000006_Node000009" class="edge">
<title>Node6&#45;&gt;Node9</title>
<g id="a_edge11_Node000006_Node000009"><a xlink:title=" ">
<path fill="none" stroke="#63b8ff" d="M820,-226.59C820,-219.97 820,-210.97 820,-202.77"/>
<polygon fill="#63b8ff" stroke="#63b8ff" points="823.5,-202.84 820,-192.84 816.5,-202.84 823.5,-202.84"/>
</a>
</g>
</g>
<!-- Node11 -->
<g id="Node000011" class="node">
<title>Node11</title>
<g id="a_Node000011"><a xlink:href="modules_8h.html" target="_top" xlink:title="Common macros and compiler attributes/pragmas configuration.">
<polygon fill="white" stroke="#666666" points="248.5,-134.25 181.5,-134.25 181.5,-113.5 248.5,-113.5 248.5,-134.25"/>
<text text-anchor="middle" x="215" y="-120.75" font-family="Helvetica,sans-Serif" font-size="10.00">modules.h</text>
</a>
</g>
</g>
<!-- Node10&#45;&gt;Node11 -->
<g id="edge13_Node000010_Node000011" class="edge">
<title>Node10&#45;&gt;Node11</title>
<g id="a_edge13_Node000010_Node000011"><a xlink:title=" ">
<path fill="none" stroke="#63b8ff" d="M186.26,-169.84C190.84,-162.67 197.2,-152.73 202.77,-144.01"/>
<polygon fill="#63b8ff" stroke="#63b8ff" points="205.54,-146.16 207.98,-135.85 199.65,-142.39 205.54,-146.16"/>
</a>
</g>
</g>
<!-- Node12 -->
<g id="Node000012" class="node">
<title>Node12</title>
<g id="a_Node000012"><a xlink:href="riot__version_8h.html" target="_top" xlink:title="Common macros and compiler attributes/pragmas configuration.">
<polygon fill="white" stroke="#666666" points="318.38,-77.5 235.62,-77.5 235.62,-56.75 318.38,-56.75 318.38,-77.5"/>
<text text-anchor="middle" x="277" y="-64" font-family="Helvetica,sans-Serif" font-size="10.00">riot_version.h</text>
</a>
</g>
</g>
<!-- Node10&#45;&gt;Node12 -->
<g id="edge14_Node000010_Node000012" class="edge">
<title>Node10&#45;&gt;Node12</title>
<g id="a_edge14_Node000010_Node000012"><a xlink:title=" ">
<path fill="none" stroke="#63b8ff" d="M206.67,-169.84C223.35,-162.44 244.06,-150.72 257,-134.25 267.32,-121.12 272.33,-102.72 274.75,-88.66"/>
<polygon fill="#63b8ff" stroke="#63b8ff" points="278.16,-89.55 276.08,-79.16 271.23,-88.58 278.16,-89.55"/>
</a>
</g>
</g>
<!-- Node13 -->
<g id="Node000013" class="node">
<title>Node13</title>
<g id="a_Node000013"><a xlink:href="compiler__hints_8h.html" target="_top" xlink:title="Common macros and compiler attributes/pragmas configuration.">
<polygon fill="white" stroke="#666666" points="163.5,-134.25 66.5,-134.25 66.5,-113.5 163.5,-113.5 163.5,-134.25"/>
<text text-anchor="middle" x="115" y="-120.75" font-family="Helvetica,sans-Serif" font-size="10.00">compiler_hints.h</text>
</a>
</g>
</g>
<!-- Node10&#45;&gt;Node13 -->
<g id="edge16_Node000010_Node000013" class="edge">
<title>Node10&#45;&gt;Node13</title>
<g id="a_edge16_Node000010_Node000013"><a xlink:title=" ">
<path fill="none" stroke="#63b8ff" d="M168.38,-169.84C159.14,-162.05 145.99,-150.97 135.05,-141.76"/>
<polygon fill="#63b8ff" stroke="#63b8ff" points="137.58,-139.32 127.68,-135.55 133.07,-144.67 137.58,-139.32"/>
</a>
</g>
</g>
<!-- Node15 -->
<g id="Node000015" class="node">
<title>Node15</title>
<g id="a_Node000015"><a xlink:href="container_8h.html" target="_top" xlink:title="Common macros and compiler attributes/pragmas configuration.">
<polygon fill="white" stroke="#666666" points="375.38,-134.25 304.62,-134.25 304.62,-113.5 375.38,-113.5 375.38,-134.25"/>
<text text-anchor="middle" x="340" y="-120.75" font-family="Helvetica,sans-Serif" font-size="10.00">container.h</text>
</a>
</g>
</g>
<!-- Node10&#45;&gt;Node15 -->
<g id="edge20_Node000010_Node000015" class="edge">
<title>Node10&#45;&gt;Node15</title>
<g id="a_edge20_Node000010_Node000015"><a xlink:title=" ">
<path fill="none" stroke="#63b8ff" d="M208.6,-169.84C234.24,-161.07 272.07,-148.12 300.57,-138.37"/>
<polygon fill="#63b8ff" stroke="#63b8ff" points="301.61,-141.71 309.94,-135.16 299.35,-135.09 301.61,-141.71"/>
</a>
</g>
</g>
<!-- Node12&#45;&gt;Node3 -->
<g id="edge15_Node000012_Node000003" class="edge">
<title>Node12&#45;&gt;Node3</title>
<g id="a_edge15_Node000012_Node000003"><a xlink:title=" ">
<path fill="none" stroke="#63b8ff" d="M289.34,-56.34C299.25,-48.47 313.39,-37.25 325.06,-27.99"/>
<polygon fill="#63b8ff" stroke="#63b8ff" points="326.93,-30.98 332.59,-22.02 322.58,-25.49 326.93,-30.98"/>
</a>
</g>
</g>
<!-- Node13&#45;&gt;Node3 -->
<g id="edge19_Node000013_Node000003" class="edge">
<title>Node13&#45;&gt;Node3</title>
<g id="a_edge19_Node000013_Node000003"><a xlink:title=" ">
<path fill="none" stroke="#63b8ff" d="M129.77,-113.06C150.79,-99.35 190.79,-74.19 227,-56.75 253.66,-43.91 284.96,-32.1 308.77,-23.75"/>
<polygon fill="#63b8ff" stroke="#63b8ff" points="309.73,-27.12 318.04,-20.54 307.44,-20.5 309.73,-27.12"/>
</a>
</g>
</g>
<!-- Node14 -->
<g id="Node000014" class="node">
<title>Node14</title>
<g id="a_Node000014"><a xlink:href="assert_8h.html" target="_top" xlink:title="POSIX.1&#45;2008 compliant version of the assert macro.">
<polygon fill="white" stroke="#666666" points="142.5,-77.5 87.5,-77.5 87.5,-56.75 142.5,-56.75 142.5,-77.5"/>
<text text-anchor="middle" x="115" y="-64" font-family="Helvetica,sans-Serif" font-size="10.00">assert.h</text>
</a>
</g>
</g>
<!-- Node13&#45;&gt;Node14 -->
<g id="edge17_Node000013_Node000014" class="edge">
<title>Node13&#45;&gt;Node14</title>
<g id="a_edge17_Node000013_Node000014"><a xlink:title=" ">
<path fill="none" stroke="#63b8ff" d="M115,-113.09C115,-106.47 115,-97.47 115,-89.27"/>
<polygon fill="#63b8ff" stroke="#63b8ff" points="118.5,-89.34 115,-79.34 111.5,-89.34 118.5,-89.34"/>
</a>
</g>
</g>
<!-- Node14&#45;&gt;Node3 -->
<g id="edge18_Node000014_Node000003" class="edge">
<title>Node14&#45;&gt;Node3</title>
<g id="a_edge18_Node000014_Node000003"><a xlink:title=" ">
<path fill="none" stroke="#63b8ff" d="M142.86,-59.52C184.24,-49.71 262,-31.28 308.39,-20.29"/>
<polygon fill="#63b8ff" stroke="#63b8ff" points="309.07,-23.73 317.99,-18.01 307.45,-16.91 309.07,-23.73"/>
</a>
</g>
</g>
<!-- Node15&#45;&gt;Node3 -->
<g id="edge22_Node000015_Node000003" class="edge">
<title>Node15&#45;&gt;Node3</title>
<g id="a_edge22_Node000015_Node000003"><a xlink:title=" ">
<path fill="none" stroke="#63b8ff" d="M340.51,-113.37C341.47,-95.52 343.57,-56.61 344.87,-32.34"/>
<polygon fill="#63b8ff" stroke="#63b8ff" points="348.35,-32.86 345.39,-22.69 341.36,-32.48 348.35,-32.86"/>
</a>
</g>
</g>
<!-- Node15&#45;&gt;Node5 -->
<g id="edge21_Node000015_Node000005" class="edge">
<title>Node15&#45;&gt;Node5</title>
<g id="a_edge21_Node000015_Node000005"><a xlink:title=" ">
<path fill="none" stroke="#63b8ff" d="M375.53,-115.25C378.39,-114.65 381.24,-114.06 384,-113.5 452.16,-99.6 531.74,-84.3 578.05,-75.49"/>
<polygon fill="#63b8ff" stroke="#63b8ff" points="578.69,-78.93 587.86,-73.63 577.39,-72.06 578.69,-78.93"/>
</a>
</g>
</g>
<!-- Node18 -->
<g id="Node000018" class="node">
<title>Node18</title>
<g id="a_Node000018"><a xlink:href="clist_8h.html" target="_top" xlink:title="Circular linked list.">
<polygon fill="white" stroke="#666666" points="481.62,-191 436.38,-191 436.38,-170.25 481.62,-170.25 481.62,-191"/>
<text text-anchor="middle" x="459" y="-177.5" font-family="Helvetica,sans-Serif" font-size="10.00">clist.h</text>
</a>
</g>
</g>
<!-- Node17&#45;&gt;Node18 -->
<g id="edge25_Node000017_Node000018" class="edge">
<title>Node17&#45;&gt;Node18</title>
<g id="a_edge25_Node000017_Node000018"><a xlink:title=" ">
<path fill="none" stroke="#63b8ff" d="M463.72,-340.35C462.93,-313.98 460.72,-239.58 459.63,-202.78"/>
<polygon fill="#63b8ff" stroke="#63b8ff" points="463.13,-202.87 459.34,-192.98 456.14,-203.08 463.13,-202.87"/>
</a>
</g>
</g>
<!-- Node19 -->
<g id="Node000019" class="node">
<title>Node19</title>
<g id="a_Node000019"><a xlink:href="cib_8h.html" target="_top" xlink:title="Circular integer buffer interface.">
<polygon fill="white" stroke="#666666" points="136.62,-304.5 97.38,-304.5 97.38,-283.75 136.62,-283.75 136.62,-304.5"/>
<text text-anchor="middle" x="117" y="-291" font-family="Helvetica,sans-Serif" font-size="10.00">cib.h</text>
</a>
</g>
</g>
<!-- Node17&#45;&gt;Node19 -->
<g id="edge29_Node000017_Node000019" class="edge">
<title>Node17&#45;&gt;Node19</title>
<g id="a_edge29_Node000017_Node000019"><a xlink:title=" ">
<path fill="none" stroke="#63b8ff" d="M435.31,-345.35C370.82,-335.17 214.85,-310.56 148.13,-300.04"/>
<polygon fill="#63b8ff" stroke="#63b8ff" points="149.03,-296.64 138.61,-298.53 147.94,-303.55 149.03,-296.64"/>
</a>
</g>
</g>
<!-- Node20 -->
<g id="Node000020" class="node">
<title>Node20</title>
<g id="a_Node000020"><a xlink:href="core_2include_2msg_8h.html" target="_top" xlink:title="Messaging API for inter process communication.">
<polygon fill="white" stroke="#666666" points="380,-304.5 334,-304.5 334,-283.75 380,-283.75 380,-304.5"/>
<text text-anchor="middle" x="357" y="-291" font-family="Helvetica,sans-Serif" font-size="10.00">msg.h</text>
</a>
</g>
</g>
<!-- Node17&#45;&gt;Node20 -->
<g id="edge31_Node000017_Node000020" class="edge">
<title>Node17&#45;&gt;Node20</title>
<g id="a_edge31_Node000017_Node000020"><a xlink:title=" ">
<path fill="none" stroke="#63b8ff" d="M444.87,-340.09C428.51,-331.72 404.72,-319.54 386.02,-309.97"/>
<polygon fill="#63b8ff" stroke="#63b8ff" points="387.81,-306.96 377.31,-305.52 384.62,-313.19 387.81,-306.96"/>
</a>
</g>
</g>
<!-- Node21 -->
<g id="Node000021" class="node">
<title>Node21</title>
<g id="a_Node000021"><a xlink:href="sched_8h.html" target="_top" xlink:title="Scheduler API definition.">
<polygon fill="white" stroke="#666666" points="549.75,-247.75 496.25,-247.75 496.25,-227 549.75,-227 549.75,-247.75"/>
<text text-anchor="middle" x="523" y="-234.25" font-family="Helvetica,sans-Serif" font-size="10.00">sched.h</text>
</a>
</g>
</g>
<!-- Node17&#45;&gt;Node21 -->
<g id="edge40_Node000017_Node000021" class="edge">
<title>Node17&#45;&gt;Node21</title>
<g id="a_edge40_Node000017_Node000021"><a xlink:title=" ">
<path fill="none" stroke="#63b8ff" d="M469.03,-340.37C478.6,-322.27 499.63,-282.53 512.43,-258.35"/>
<polygon fill="#63b8ff" stroke="#63b8ff" points="515.52,-259.99 517.11,-249.51 509.34,-256.71 515.52,-259.99"/>
</a>
</g>
</g>
<!-- Node23 -->
<g id="Node000023" class="node">
<title>Node23</title>
<g id="a_Node000023"><a xlink:href="thread__config_8h.html" target="_top" xlink:title="Thread configuration defines.">
<polygon fill="white" stroke="#666666" points="703.88,-304.5 612.12,-304.5 612.12,-283.75 703.88,-283.75 703.88,-304.5"/>
<text text-anchor="middle" x="658" y="-291" font-family="Helvetica,sans-Serif" font-size="10.00">thread_config.h</text>
</a>
</g>
</g>
<!-- Node17&#45;&gt;Node23 -->
<g id="edge41_Node000017_Node000023" class="edge">
<title>Node17&#45;&gt;Node23</title>
<g id="a_edge41_Node000017_Node000023"><a xlink:title=" ">
<path fill="none" stroke="#63b8ff" d="M492.63,-341.8C524.05,-332.93 574.96,-318.56 612,-308.11"/>
<polygon fill="#63b8ff" stroke="#63b8ff" points="612.88,-311.49 621.56,-305.41 610.98,-304.76 612.88,-311.49"/>
</a>
</g>
</g>
<!-- Node25 -->
<g id="Node000025" class="node">
<title>Node25</title>
<g id="a_Node000025"><a xlink:title=" ">
<polygon fill="#e0e0e0" stroke="#999999" points="594.38,-304.5 511.62,-304.5 511.62,-283.75 594.38,-283.75 594.38,-304.5"/>
<text text-anchor="middle" x="553" y="-291" font-family="Helvetica,sans-Serif" font-size="10.00">thread_arch.h</text>
</a>
</g>
</g>
<!-- Node17&#45;&gt;Node25 -->
<g id="edge44_Node000017_Node000025" class="edge">
<title>Node17&#45;&gt;Node25</title>
<g id="a_edge44_Node000017_Node000025"><a xlink:title=" ">
<path fill="none" stroke="#63b8ff" d="M479.91,-340.09C493.2,-331.91 512.39,-320.11 527.77,-310.65"/>
<polygon fill="#63b8ff" stroke="#63b8ff" points="529.25,-313.84 535.94,-305.62 525.59,-307.88 529.25,-313.84"/>
</a>
</g>
</g>
<!-- Node18&#45;&gt;Node2 -->
<g id="edge26_Node000018_Node000002" class="edge">
<title>Node18&#45;&gt;Node2</title>
<g id="a_edge26_Node000018_Node000002"><a xlink:title=" ">
<path fill="none" stroke="#63b8ff" d="M452.74,-169.84C448.16,-162.67 441.8,-152.73 436.23,-144.01"/>
<polygon fill="#63b8ff" stroke="#63b8ff" points="439.35,-142.39 431.02,-135.85 433.46,-146.16 439.35,-142.39"/>
</a>
</g>
</g>
<!-- Node18&#45;&gt;Node5 -->
<g id="edge27_Node000018_Node000005" class="edge">
<title>Node18&#45;&gt;Node5</title>
<g id="a_edge27_Node000018_Node000005"><a xlink:title=" ">
<path fill="none" stroke="#63b8ff" d="M481.78,-172.61C503.3,-165.27 535.81,-152.29 560,-134.25 577.77,-121 593.84,-101.31 604.35,-86.86"/>
<polygon fill="#63b8ff" stroke="#63b8ff" points="606.94,-89.27 609.82,-79.07 601.21,-85.24 606.94,-89.27"/>
</a>
</g>
</g>
<!-- Node18&#45;&gt;Node16 -->
<g id="edge28_Node000018_Node000016" class="edge">
<title>Node18&#45;&gt;Node16</title>
<g id="a_edge28_Node000018_Node000016"><a xlink:title=" ">
<path fill="none" stroke="#63b8ff" d="M471.87,-169.84C482.21,-161.97 496.97,-150.75 509.15,-141.49"/>
<polygon fill="#63b8ff" stroke="#63b8ff" points="511.19,-144.33 517.03,-135.49 506.96,-138.76 511.19,-144.33"/>
</a>
</g>
</g>
<!-- Node19&#45;&gt;Node14 -->
<g id="edge30_Node000019_Node000014" class="edge">
<title>Node19&#45;&gt;Node14</title>
<g id="a_edge30_Node000019_Node000014"><a xlink:title=" ">
<path fill="none" stroke="#63b8ff" d="M111.92,-283.45C99.49,-259.17 67.8,-193.42 57,-134.25 55.34,-125.18 52.96,-121.79 57,-113.5 62.96,-101.27 73.99,-91.37 84.84,-83.97"/>
<polygon fill="#63b8ff" stroke="#63b8ff" points="86.69,-86.94 93.32,-78.69 82.98,-81 86.69,-86.94"/>
</a>
</g>
</g>
<!-- Node20&#45;&gt;Node2 -->
<g id="edge33_Node000020_Node000002" class="edge">
<title>Node20&#45;&gt;Node2</title>
<g id="a_edge33_Node000020_Node000002"><a xlink:title=" ">
<path fill="none" stroke="#63b8ff" d="M353.99,-283.46C347.81,-261.71 335.88,-207.87 356,-170.25 363.03,-157.12 375.72,-147.13 388.25,-139.91"/>
<polygon fill="#63b8ff" stroke="#63b8ff" points="389.59,-143.16 396.82,-135.41 386.34,-136.96 389.59,-143.16"/>
</a>
</g>
</g>
<!-- Node20&#45;&gt;Node3 -->
<g id="edge32_Node000020_Node000003" class="edge">
<title>Node20&#45;&gt;Node3</title>
<g id="a_edge32_Node000020_Node000003"><a xlink:title=" ">
<path fill="none" stroke="#63b8ff" d="M357.42,-283.31C358.88,-260.79 365.35,-204.67 394,-170.25 416.38,-143.36 445.78,-164.11 464,-134.25 468.8,-126.38 467.83,-121.89 464,-113.5 445.85,-73.78 403.76,-43.59 375.09,-26.67"/>
<polygon fill="#63b8ff" stroke="#63b8ff" points="376.94,-23.7 366.52,-21.8 373.48,-29.78 376.94,-23.7"/>
</a>
</g>
</g>
<!-- Node20&#45;&gt;Node21 -->
<g id="edge34_Node000020_Node000021" class="edge">
<title>Node20&#45;&gt;Node21</title>
<g id="a_edge34_Node000020_Node000021"><a xlink:title=" ">
<path fill="none" stroke="#63b8ff" d="M380.43,-285.4C407.61,-276.43 452.81,-261.53 485.03,-250.9"/>
<polygon fill="#63b8ff" stroke="#63b8ff" points="485.99,-254.27 494.39,-247.81 483.8,-247.62 485.99,-254.27"/>
</a>
</g>
</g>
<!-- Node21&#45;&gt;Node5 -->
<g id="edge35_Node000021_Node000005" class="edge">
<title>Node21&#45;&gt;Node5</title>
<g id="a_edge35_Node000021_Node000005"><a xlink:title=" ">
<path fill="none" stroke="#63b8ff" d="M550.13,-226.83C566.64,-219.58 586.65,-207.94 598,-191 618.65,-160.16 620.13,-115.31 618.88,-89.19"/>
<polygon fill="#63b8ff" stroke="#63b8ff" points="622.37,-88.96 618.19,-79.22 615.39,-89.44 622.37,-88.96"/>
</a>
</g>
</g>
<!-- Node21&#45;&gt;Node7 -->
<g id="edge36_Node000021_Node000007" class="edge">
<title>Node21&#45;&gt;Node7</title>
<g id="a_edge36_Node000021_Node000007"><a xlink:title=" ">
<path fill="none" stroke="#63b8ff" d="M550.18,-226.71C574.69,-218 611.01,-205.09 638.51,-195.31"/>
<polygon fill="#63b8ff" stroke="#63b8ff" points="639.64,-198.62 647.89,-191.97 637.29,-192.03 639.64,-198.62"/>
</a>
</g>
</g>
<!-- Node21&#45;&gt;Node10 -->
<g id="edge37_Node000021_Node000010" class="edge">
<title>Node21&#45;&gt;Node10</title>
<g id="a_edge37_Node000021_Node000010"><a xlink:title=" ">
<path fill="none" stroke="#63b8ff" d="M495.8,-232.03C440.71,-223.24 314.83,-203.15 239.7,-191.15"/>
<polygon fill="#63b8ff" stroke="#63b8ff" points="240.47,-187.73 230.04,-189.61 239.36,-194.64 240.47,-187.73"/>
</a>
</g>
</g>
<!-- Node21&#45;&gt;Node18 -->
<g id="edge39_Node000021_Node000018" class="edge">
<title>Node21&#45;&gt;Node18</title>
<g id="a_edge39_Node000021_Node000018"><a xlink:title=" ">
<path fill="none" stroke="#63b8ff" d="M511.56,-226.59C502.55,-218.88 489.77,-207.95 479.07,-198.79"/>
<polygon fill="#63b8ff" stroke="#63b8ff" points="481.37,-196.15 471.49,-192.31 476.82,-201.47 481.37,-196.15"/>
</a>
</g>
</g>
<!-- Node22 -->
<g id="Node000022" class="node">
<title>Node22</title>
<g id="a_Node000022"><a xlink:href="native__sched_8h.html" target="_top" xlink:title="Add definitions required on the native board.">
<polygon fill="white" stroke="#666666" points="588.75,-191 499.25,-191 499.25,-170.25 588.75,-170.25 588.75,-191"/>
<text text-anchor="middle" x="544" y="-177.5" font-family="Helvetica,sans-Serif" font-size="10.00">native_sched.h</text>
</a>
</g>
</g>
<!-- Node21&#45;&gt;Node22 -->
<g id="edge38_Node000021_Node000022" class="edge">
<title>Node21&#45;&gt;Node22</title>
<g id="a_edge38_Node000021_Node000022"><a xlink:title=" ">
<path fill="none" stroke="#63b8ff" d="M526.75,-226.59C529.38,-219.74 532.99,-210.34 536.22,-201.9"/>
<polygon fill="#63b8ff" stroke="#63b8ff" points="539.42,-203.33 539.74,-192.74 532.89,-200.82 539.42,-203.33"/>
</a>
</g>
</g>
<!-- Node23&#45;&gt;Node21 -->
<g id="edge43_Node000023_Node000021" class="edge">
<title>Node23&#45;&gt;Node21</title>
<g id="a_edge43_Node000023_Node000021"><a xlink:title=" ">
<path fill="none" stroke="#63b8ff" d="M633.86,-283.34C612.56,-274.69 581.25,-262 557.33,-252.3"/>
<polygon fill="#63b8ff" stroke="#63b8ff" points="558.91,-249.16 548.33,-248.65 556.28,-255.65 558.91,-249.16"/>
</a>
</g>
</g>
<!-- Node24 -->
<g id="Node000024" class="node">
<title>Node24</title>
<g id="a_Node000024"><a xlink:title=" ">
<polygon fill="#e0e0e0" stroke="#999999" points="691.88,-247.75 624.12,-247.75 624.12,-227 691.88,-227 691.88,-247.75"/>
<text text-anchor="middle" x="658" y="-234.25" font-family="Helvetica,sans-Serif" font-size="10.00">cpu_conf.h</text>
</a>
</g>
</g>
<!-- Node23&#45;&gt;Node24 -->
<g id="edge42_Node000023_Node000024" class="edge">
<title>Node23&#45;&gt;Node24</title>
<g id="a_edge42_Node000023_Node000024"><a xlink:title=" ">
<path fill="none" stroke="#63b8ff" d="M658,-283.34C658,-276.72 658,-267.72 658,-259.52"/>
<polygon fill="#63b8ff" stroke="#63b8ff" points="661.5,-259.59 658,-249.59 654.5,-259.59 661.5,-259.59"/>
</a>
</g>
</g>
<!-- Node26&#45;&gt;Node8 -->
<g id="edge46_Node000026_Node000008" class="edge">
<title>Node26&#45;&gt;Node8</title>
<g id="a_edge46_Node000026_Node000008"><a xlink:title=" ">
<path fill="none" stroke="#63b8ff" d="M1026.8,-226.59C1014.23,-218.49 996.14,-206.83 981.52,-197.42"/>
<polygon fill="#63b8ff" stroke="#63b8ff" points="983.64,-194.62 973.34,-192.15 979.85,-200.51 983.64,-194.62"/>
</a>
</g>
</g>
<!-- Node27 -->
<g id="Node000027" class="node">
<title>Node27</title>
<g id="a_Node000027"><a xlink:title=" ">
<polygon fill="#e0e0e0" stroke="#999999" points="1179.12,-191 1100.88,-191 1100.88,-170.25 1179.12,-170.25 1179.12,-191"/>
<text text-anchor="middle" x="1140" y="-177.5" font-family="Helvetica,sans-Serif" font-size="10.00">periph_cpu.h</text>
</a>
</g>
</g>
<!-- Node26&#45;&gt;Node27 -->
<g id="edge47_Node000026_Node000027" class="edge">
<title>Node26&#45;&gt;Node27</title>
<g id="a_edge47_Node000026_Node000027"><a xlink:title=" ">
<path fill="none" stroke="#63b8ff" d="M1059.52,-226.59C1074.29,-218.33 1095.68,-206.38 1112.7,-196.88"/>
<polygon fill="#63b8ff" stroke="#63b8ff" points="1114.29,-200 1121.31,-192.07 1110.87,-193.89 1114.29,-200"/>
</a>
</g>
</g>
<!-- Node28 -->
<g id="Node000028" class="node">
<title>Node28</title>
<g id="a_Node000028"><a xlink:title=" ">
<polygon fill="#e0e0e0" stroke="#999999" points="1082.62,-191 1001.38,-191 1001.38,-170.25 1082.62,-170.25 1082.62,-191"/>
<text text-anchor="middle" x="1042" y="-177.5" font-family="Helvetica,sans-Serif" font-size="10.00">periph_conf.h</text>
</a>
</g>
</g>
<!-- Node26&#45;&gt;Node28 -->
<g id="edge48_Node000026_Node000028" class="edge">
<title>Node26&#45;&gt;Node28</title>
<g id="a_edge48_Node000026_Node000028"><a xlink:title=" ">
<path fill="none" stroke="#63b8ff" d="M1042,-226.59C1042,-219.97 1042,-210.97 1042,-202.77"/>
<polygon fill="#63b8ff" stroke="#63b8ff" points="1045.5,-202.84 1042,-192.84 1038.5,-202.84 1045.5,-202.84"/>
</a>
</g>
</g>
<!-- Node29&#45;&gt;Node3 -->
<g id="edge53_Node000029_Node000003" class="edge">
<title>Node29&#45;&gt;Node3</title>
<g id="a_edge53_Node000029_Node000003"><a xlink:title=" ">
<path fill="none" stroke="#63b8ff" d="M1162.08,-226.64C1185.35,-214.89 1216.96,-193.75 1204,-170.25 1181.16,-128.84 1158.4,-129.76 1114,-113.5 847.46,-15.88 498.47,-9.81 384.09,-10.69"/>
<polygon fill="#63b8ff" stroke="#63b8ff" points="384.32,-7.18 374.36,-10.79 384.39,-14.18 384.32,-7.18"/>
</a>
</g>
</g>
<!-- Node29&#45;&gt;Node5 -->
<g id="edge52_Node000029_Node000005" class="edge">
<title>Node29&#45;&gt;Node5</title>
<g id="a_edge52_Node000029_Node000005"><a xlink:title=" ">
<path fill="none" stroke="#63b8ff" d="M1155.83,-226.65C1175.33,-213.47 1204.03,-189.4 1188,-170.25 1119.57,-88.5 773.75,-72.12 656.18,-68.9"/>
<polygon fill="#63b8ff" stroke="#63b8ff" points="656.5,-65.4 646.41,-68.65 656.32,-72.4 656.5,-65.4"/>
</a>
</g>
</g>
<!-- Node29&#45;&gt;Node8 -->
<g id="edge51_Node000029_Node000008" class="edge">
<title>Node29&#45;&gt;Node8</title>
<g id="a_edge51_Node000029_Node000008"><a xlink:title=" ">
<path fill="none" stroke="#63b8ff" d="M1107.28,-226.59C1075.6,-217.11 1027.62,-202.75 994.43,-192.82"/>
<polygon fill="#63b8ff" stroke="#63b8ff" points="995.82,-189.59 985.24,-190.07 993.81,-196.29 995.82,-189.59"/>
</a>
</g>
</g>
<!-- Node29&#45;&gt;Node27 -->
<g id="edge54_Node000029_Node000027" class="edge">
<title>Node29&#45;&gt;Node27</title>
<g id="a_edge54_Node000029_Node000027"><a xlink:title=" ">
<path fill="none" stroke="#63b8ff" d="M1140,-226.59C1140,-219.97 1140,-210.97 1140,-202.77"/>
<polygon fill="#63b8ff" stroke="#63b8ff" points="1143.5,-202.84 1140,-192.84 1136.5,-202.84 1143.5,-202.84"/>
</a>
</g>
</g>
<!-- Node29&#45;&gt;Node28 -->
<g id="edge55_Node000029_Node000028" class="edge">
<title>Node29&#45;&gt;Node28</title>
<g id="a_edge55_Node000029_Node000028"><a xlink:title=" ">
<path fill="none" stroke="#63b8ff" d="M1122.48,-226.59C1107.71,-218.33 1086.32,-206.38 1069.3,-196.88"/>
<polygon fill="#63b8ff" stroke="#63b8ff" points="1071.13,-193.89 1060.69,-192.07 1067.71,-200 1071.13,-193.89"/>
</a>
</g>
</g>
<!-- Node30 -->
<g id="Node000030" class="node">
<title>Node30</title>
<g id="a_Node000030"><a xlink:href="errno_8h.html" target="_top" xlink:title=" ">
<polygon fill="white" stroke="#666666" points="1323.25,-191 1272.75,-191 1272.75,-170.25 1323.25,-170.25 1323.25,-191"/>
<text text-anchor="middle" x="1298" y="-177.5" font-family="Helvetica,sans-Serif" font-size="10.00">errno.h</text>
</a>
</g>
</g>
<!-- Node29&#45;&gt;Node30 -->
<g id="edge50_Node000029_Node000030" class="edge">
<title>Node29&#45;&gt;Node30</title>
<g id="a_edge50_Node000029_Node000030"><a xlink:title=" ">
<path fill="none" stroke="#63b8ff" d="M1168.25,-226.59C1194.34,-217.54 1233.25,-204.06 1261.65,-194.22"/>
<polygon fill="#63b8ff" stroke="#63b8ff" points="1262.62,-197.59 1270.92,-191.01 1260.32,-190.98 1262.62,-197.59"/>
</a>
</g>
</g>
</g>
</svg>
