<?xml version="1.0" encoding="UTF-8" standalone="no"?>
<!DOCTYPE svg PUBLIC "-//W3C//DTD SVG 1.1//EN"
 "http://www.w3.org/Graphics/SVG/1.1/DTD/svg11.dtd">
<!-- Generated by graphviz version 12.1.1 (0)
 -->
<!-- Title: drivers/include/dfplayer.h Pages: 1 -->
<svg width="1260pt" height="653pt"
 viewBox="0.00 0.00 1260.00 653.00" xmlns="http://www.w3.org/2000/svg" xmlns:xlink="http://www.w3.org/1999/xlink">
<g id="graph0" class="graph" transform="scale(1 1) rotate(0) translate(4 649)">
<title>drivers/include/dfplayer.h</title>
<!-- Node1 -->
<g id="Node000001" class="node">
<title>Node1</title>
<g id="a_Node000001"><a xlink:title="DFPlayer Mini Device Driver.">
<polygon fill="#999999" stroke="#666666" points="301.25,-645 160.75,-645 160.75,-624.25 301.25,-624.25 301.25,-645"/>
<text text-anchor="middle" x="231" y="-631.5" font-family="Helvetica,sans-Serif" font-size="10.00">drivers/include/dfplayer.h</text>
</a>
</g>
</g>
<!-- Node2 -->
<g id="Node000002" class="node">
<title>Node2</title>
<g id="a_Node000002"><a xlink:title=" ">
<polygon fill="#e0e0e0" stroke="#999999" points="492.5,-134.25 431.5,-134.25 431.5,-113.5 492.5,-113.5 492.5,-134.25"/>
<text text-anchor="middle" x="462" y="-120.75" font-family="Helvetica,sans-Serif" font-size="10.00">stdbool.h</text>
</a>
</g>
</g>
<!-- Node1&#45;&gt;Node2 -->
<g id="edge1_Node000001_Node000002" class="edge">
<title>Node1&#45;&gt;Node2</title>
<g id="a_edge1_Node000001_Node000002"><a xlink:title=" ">
<path fill="none" stroke="#63b8ff" d="M215.09,-623.79C189.49,-606.59 142,-568.44 142,-522.12 142,-522.12 142,-522.12 142,-406.62 142,-274.85 209.62,-240.68 321,-170.25 337.67,-159.71 384.99,-145.51 420.24,-135.82"/>
<polygon fill="#63b8ff" stroke="#63b8ff" points="421.01,-139.24 429.75,-133.24 419.18,-132.48 421.01,-139.24"/>
</a>
</g>
</g>
<!-- Node3 -->
<g id="Node000003" class="node">
<title>Node3</title>
<g id="a_Node000003"><a xlink:title=" ">
<polygon fill="#e0e0e0" stroke="#999999" points="539.38,-20.75 486.62,-20.75 486.62,0 539.38,0 539.38,-20.75"/>
<text text-anchor="middle" x="513" y="-7.25" font-family="Helvetica,sans-Serif" font-size="10.00">stdint.h</text>
</a>
</g>
</g>
<!-- Node1&#45;&gt;Node3 -->
<g id="edge2_Node000001_Node000003" class="edge">
<title>Node1&#45;&gt;Node3</title>
<g id="a_edge2_Node000001_Node000003"><a xlink:title=" ">
<path fill="none" stroke="#63b8ff" d="M301.58,-633.33C532.69,-631.45 1252,-617.91 1252,-522.12 1252,-522.12 1252,-522.12 1252,-122.88 1252,-76.06 1213.58,-73.85 1170,-56.75 1056.05,-12.05 673.1,-10.38 550.85,-11.03"/>
<polygon fill="#63b8ff" stroke="#63b8ff" points="551.01,-7.53 541.04,-11.09 551.06,-14.53 551.01,-7.53"/>
</a>
</g>
</g>
<!-- Node4 -->
<g id="Node000004" class="node">
<title>Node4</title>
<g id="a_Node000004"><a xlink:href="dfplayer__params_8h.html" target="_top" xlink:title="Default configuration for the DFPlayer Mini driver.">
<polygon fill="white" stroke="#666666" points="113.75,-531.5 6.25,-531.5 6.25,-510.75 113.75,-510.75 113.75,-531.5"/>
<text text-anchor="middle" x="60" y="-518" font-family="Helvetica,sans-Serif" font-size="10.00">dfplayer_params.h</text>
</a>
</g>
</g>
<!-- Node1&#45;&gt;Node4 -->
<g id="edge3_Node000001_Node000004" class="edge">
<title>Node1&#45;&gt;Node4</title>
<g id="a_edge3_Node000001_Node000004"><a xlink:title=" ">
<path fill="none" stroke="#63b8ff" d="M201.6,-623.87C180.18,-616.03 151.01,-603.76 128,-588.25 107.84,-574.66 88.31,-554.75 75.4,-540.33"/>
<polygon fill="#63b8ff" stroke="#63b8ff" points="78.13,-538.14 68.92,-532.91 72.86,-542.74 78.13,-538.14"/>
</a>
</g>
</g>
<!-- Node6 -->
<g id="Node000006" class="node">
<title>Node6</title>
<g id="a_Node000006"><a xlink:href="dfplayer__types_8h.html" target="_top" xlink:title="Types used in the DFPlayer Mini Device Driver.">
<polygon fill="white" stroke="#666666" points="335.88,-474.75 238.12,-474.75 238.12,-454 335.88,-454 335.88,-474.75"/>
<text text-anchor="middle" x="287" y="-461.25" font-family="Helvetica,sans-Serif" font-size="10.00">dfplayer_types.h</text>
</a>
</g>
</g>
<!-- Node1&#45;&gt;Node6 -->
<g id="edge62_Node000001_Node000006" class="edge">
<title>Node1&#45;&gt;Node6</title>
<g id="a_edge62_Node000001_Node000006"><a xlink:title=" ">
<path fill="none" stroke="#63b8ff" d="M220.88,-624.02C208.83,-611.37 191.27,-588.3 199,-567.5 212.13,-532.14 243.6,-500.83 265.12,-482.48"/>
<polygon fill="#63b8ff" stroke="#63b8ff" points="267.27,-485.24 272.76,-476.18 262.82,-479.84 267.27,-485.24"/>
</a>
</g>
</g>
<!-- Node34 -->
<g id="Node000034" class="node">
<title>Node34</title>
<g id="a_Node000034"><a xlink:href="dfplayer__implementation_8h.html" target="_top" xlink:title="Header&#45;only functions of the DFPlayer Mini Device driver.">
<polygon fill="white" stroke="#666666" points="356.38,-588.25 207.62,-588.25 207.62,-567.5 356.38,-567.5 356.38,-588.25"/>
<text text-anchor="middle" x="282" y="-574.75" font-family="Helvetica,sans-Serif" font-size="10.00">dfplayer_implementation.h</text>
</a>
</g>
</g>
<!-- Node1&#45;&gt;Node34 -->
<g id="edge63_Node000001_Node000034" class="edge">
<title>Node1&#45;&gt;Node34</title>
<g id="a_edge63_Node000001_Node000034"><a xlink:title=" ">
<path fill="none" stroke="#63b8ff" d="M234.8,-623.84C240.44,-616.21 250.15,-605.42 259.41,-596.32"/>
<polygon fill="#63b8ff" stroke="#63b8ff" points="261.66,-599.01 266.56,-589.61 256.87,-593.9 261.66,-599.01"/>
</a>
</g>
</g>
<!-- Node5 -->
<g id="Node000005" class="node">
<title>Node5</title>
<g id="a_Node000005"><a xlink:title=" ">
<polygon fill="#e0e0e0" stroke="#999999" points="114.38,-474.75 61.62,-474.75 61.62,-454 114.38,-454 114.38,-474.75"/>
<text text-anchor="middle" x="88" y="-461.25" font-family="Helvetica,sans-Serif" font-size="10.00">board.h</text>
</a>
</g>
</g>
<!-- Node4&#45;&gt;Node5 -->
<g id="edge4_Node000004_Node000005" class="edge">
<title>Node4&#45;&gt;Node5</title>
<g id="a_edge4_Node000004_Node000005"><a xlink:title=" ">
<path fill="none" stroke="#63b8ff" d="M65.01,-510.34C68.59,-503.33 73.54,-493.66 77.92,-485.08"/>
<polygon fill="#63b8ff" stroke="#63b8ff" points="80.91,-486.92 82.35,-476.43 74.68,-483.74 80.91,-486.92"/>
</a>
</g>
</g>
<!-- Node4&#45;&gt;Node6 -->
<g id="edge5_Node000004_Node000006" class="edge">
<title>Node4&#45;&gt;Node6</title>
<g id="a_edge5_Node000004_Node000006"><a xlink:title=" ">
<path fill="none" stroke="#63b8ff" d="M100.85,-510.27C138.42,-501.21 194.31,-487.73 235.04,-477.91"/>
<polygon fill="#63b8ff" stroke="#63b8ff" points="235.73,-481.34 244.63,-475.59 234.09,-474.54 235.73,-481.34"/>
</a>
</g>
</g>
<!-- Node13 -->
<g id="Node000013" class="node">
<title>Node13</title>
<g id="a_Node000013"><a xlink:href="kernel__defines_8h.html" target="_top" xlink:title="Common macros and compiler attributes/pragmas configuration.">
<polygon fill="white" stroke="#666666" points="191.12,-191 94.88,-191 94.88,-170.25 191.12,-170.25 191.12,-191"/>
<text text-anchor="middle" x="143" y="-177.5" font-family="Helvetica,sans-Serif" font-size="10.00">kernel_defines.h</text>
</a>
</g>
</g>
<!-- Node4&#45;&gt;Node13 -->
<g id="edge61_Node000004_Node000013" class="edge">
<title>Node4&#45;&gt;Node13</title>
<g id="a_edge61_Node000004_Node000013"><a xlink:title=" ">
<path fill="none" stroke="#63b8ff" d="M56.16,-510.46C48.93,-491.34 34,-447.19 34,-408.62 34,-408.62 34,-408.62 34,-349.88 34,-285.57 90.78,-226.45 122.38,-198.52"/>
<polygon fill="#63b8ff" stroke="#63b8ff" points="124.46,-201.34 129.77,-192.17 119.9,-196.03 124.46,-201.34"/>
</a>
</g>
</g>
<!-- Node6&#45;&gt;Node2 -->
<g id="edge6_Node000006_Node000002" class="edge">
<title>Node6&#45;&gt;Node2</title>
<g id="a_edge6_Node000006_Node000002"><a xlink:title=" ">
<path fill="none" stroke="#63b8ff" d="M283.45,-453.54C279.24,-440.64 273.12,-417.29 276,-397.25 290.97,-293.13 271.39,-247.3 343,-170.25 353.88,-158.55 390.41,-145.59 420.15,-136.53"/>
<polygon fill="#63b8ff" stroke="#63b8ff" points="421.11,-139.9 429.7,-133.69 419.12,-133.19 421.11,-139.9"/>
</a>
</g>
</g>
<!-- Node6&#45;&gt;Node3 -->
<g id="edge7_Node000006_Node000003" class="edge">
<title>Node6&#45;&gt;Node3</title>
<g id="a_edge7_Node000006_Node000003"><a xlink:title=" ">
<path fill="none" stroke="#63b8ff" d="M262.53,-453.56C193.13,-423.91 0,-328.25 0,-181.62 0,-181.62 0,-181.62 0,-122.88 0,-86.56 16.49,-74.8 48,-56.75 120.47,-15.25 377.2,-11.15 474.89,-11.14"/>
<polygon fill="#63b8ff" stroke="#63b8ff" points="474.73,-14.64 484.74,-11.16 474.75,-7.64 474.73,-14.64"/>
</a>
</g>
</g>
<!-- Node7 -->
<g id="Node000007" class="node">
<title>Node7</title>
<g id="a_Node000007"><a xlink:href="mutex_8h.html" target="_top" xlink:title="Mutex for thread synchronization.">
<polygon fill="white" stroke="#666666" points="680.25,-418 623.75,-418 623.75,-397.25 680.25,-397.25 680.25,-418"/>
<text text-anchor="middle" x="652" y="-404.5" font-family="Helvetica,sans-Serif" font-size="10.00">mutex.h</text>
</a>
</g>
</g>
<!-- Node6&#45;&gt;Node7 -->
<g id="edge8_Node000006_Node000007" class="edge">
<title>Node6&#45;&gt;Node7</title>
<g id="a_edge8_Node000006_Node000007"><a xlink:title=" ">
<path fill="none" stroke="#63b8ff" d="M336.23,-455.99C409.29,-445.03 545,-424.67 612.19,-414.6"/>
<polygon fill="#63b8ff" stroke="#63b8ff" points="612.66,-418.07 622.03,-413.12 611.62,-411.14 612.66,-418.07"/>
</a>
</g>
</g>
<!-- Node29 -->
<g id="Node000029" class="node">
<title>Node29</title>
<g id="a_Node000029"><a xlink:href="drivers_2include_2periph_2gpio_8h.html" target="_top" xlink:title="Low&#45;level GPIO peripheral driver interface definitions.">
<polygon fill="white" stroke="#666666" points="530.88,-418 451.12,-418 451.12,-397.25 530.88,-397.25 530.88,-418"/>
<text text-anchor="middle" x="491" y="-404.5" font-family="Helvetica,sans-Serif" font-size="10.00">periph/gpio.h</text>
</a>
</g>
</g>
<!-- Node6&#45;&gt;Node29 -->
<g id="edge50_Node000006_Node000029" class="edge">
<title>Node6&#45;&gt;Node29</title>
<g id="a_edge50_Node000006_Node000029"><a xlink:title=" ">
<path fill="none" stroke="#63b8ff" d="M323.47,-453.59C357.02,-444.58 406.96,-431.18 443.59,-421.35"/>
<polygon fill="#63b8ff" stroke="#63b8ff" points="444.29,-424.79 453.04,-418.81 442.47,-418.02 444.29,-424.79"/>
</a>
</g>
</g>
<!-- Node32 -->
<g id="Node000032" class="node">
<title>Node32</title>
<g id="a_Node000032"><a xlink:href="drivers_2include_2periph_2uart_8h.html" target="_top" xlink:title="Low&#45;level UART peripheral driver interface definition.">
<polygon fill="white" stroke="#666666" points="363.12,-418 284.88,-418 284.88,-397.25 363.12,-397.25 363.12,-418"/>
<text text-anchor="middle" x="324" y="-404.5" font-family="Helvetica,sans-Serif" font-size="10.00">periph/uart.h</text>
</a>
</g>
</g>
<!-- Node6&#45;&gt;Node32 -->
<g id="edge54_Node000006_Node000032" class="edge">
<title>Node6&#45;&gt;Node32</title>
<g id="a_edge54_Node000006_Node000032"><a xlink:title=" ">
<path fill="none" stroke="#63b8ff" d="M293.61,-453.59C298.46,-446.42 305.18,-436.48 311.07,-427.76"/>
<polygon fill="#63b8ff" stroke="#63b8ff" points="313.9,-429.83 316.59,-419.58 308.1,-425.91 313.9,-429.83"/>
</a>
</g>
</g>
<!-- Node7&#45;&gt;Node2 -->
<g id="edge11_Node000007_Node000002" class="edge">
<title>Node7&#45;&gt;Node2</title>
<g id="a_edge11_Node000007_Node000002"><a xlink:title=" ">
<path fill="none" stroke="#63b8ff" d="M643.37,-396.76C629.91,-382.04 602.37,-354.54 573,-340.5 470.21,-291.34 377.72,-352.97 334,-247.75 313.36,-198.08 380.42,-159.01 425.15,-139.18"/>
<polygon fill="#63b8ff" stroke="#63b8ff" points="426.48,-142.41 434.3,-135.27 423.73,-135.98 426.48,-142.41"/>
</a>
</g>
</g>
<!-- Node7&#45;&gt;Node3 -->
<g id="edge10_Node000007_Node000003" class="edge">
<title>Node7&#45;&gt;Node3</title>
<g id="a_edge10_Node000007_Node000003"><a xlink:title=" ">
<path fill="none" stroke="#63b8ff" d="M680.59,-406.23C784.76,-404.03 1138,-389.59 1138,-295.12 1138,-295.12 1138,-295.12 1138,-122.88 1138,-63.92 1079.23,-74.47 1023,-56.75 934.92,-28.99 653.87,-16.4 551.1,-12.64"/>
<polygon fill="#63b8ff" stroke="#63b8ff" points="551.39,-9.15 541.27,-12.29 551.14,-16.15 551.39,-9.15"/>
</a>
</g>
</g>
<!-- Node8 -->
<g id="Node000008" class="node">
<title>Node8</title>
<g id="a_Node000008"><a xlink:title=" ">
<polygon fill="#e0e0e0" stroke="#999999" points="642.5,-77.5 587.5,-77.5 587.5,-56.75 642.5,-56.75 642.5,-77.5"/>
<text text-anchor="middle" x="615" y="-64" font-family="Helvetica,sans-Serif" font-size="10.00">stddef.h</text>
</a>
</g>
</g>
<!-- Node7&#45;&gt;Node8 -->
<g id="edge9_Node000007_Node000008" class="edge">
<title>Node7&#45;&gt;Node8</title>
<g id="a_edge9_Node000007_Node000008"><a xlink:title=" ">
<path fill="none" stroke="#63b8ff" d="M680.71,-405.68C779.58,-401.65 1100,-381.89 1100,-295.12 1100,-295.12 1100,-295.12 1100,-236.38 1100,-186.74 1051.09,-198.1 1010,-170.25 970.54,-143.51 963.73,-129.97 919,-113.5 828.12,-80.03 713.3,-71.21 654.17,-68.91"/>
<polygon fill="#63b8ff" stroke="#63b8ff" points="654.39,-65.42 644.28,-68.58 654.15,-72.41 654.39,-65.42"/>
</a>
</g>
</g>
<!-- Node9 -->
<g id="Node000009" class="node">
<title>Node9</title>
<g id="a_Node000009"><a xlink:href="architecture_8h.html" target="_top" xlink:title="Platform&#45;independent access to architecture details.">
<polygon fill="white" stroke="#666666" points="899.75,-361.25 816.25,-361.25 816.25,-340.5 899.75,-340.5 899.75,-361.25"/>
<text text-anchor="middle" x="858" y="-347.75" font-family="Helvetica,sans-Serif" font-size="10.00">architecture.h</text>
</a>
</g>
</g>
<!-- Node7&#45;&gt;Node9 -->
<g id="edge12_Node000007_Node000009" class="edge">
<title>Node7&#45;&gt;Node9</title>
<g id="a_edge12_Node000007_Node000009"><a xlink:title=" ">
<path fill="none" stroke="#63b8ff" d="M680.64,-399.01C714.02,-390.14 769.7,-375.34 809.78,-364.69"/>
<polygon fill="#63b8ff" stroke="#63b8ff" points="810.67,-368.08 819.43,-362.13 808.87,-361.31 810.67,-368.08"/>
</a>
</g>
</g>
<!-- Node7&#45;&gt;Node13 -->
<g id="edge17_Node000007_Node000013" class="edge">
<title>Node7&#45;&gt;Node13</title>
<g id="a_edge17_Node000007_Node000013"><a xlink:title=" ">
<path fill="none" stroke="#63b8ff" d="M636.99,-396.89C611.18,-380.32 559.23,-347.72 539,-340.5 441.96,-305.88 405.09,-344.16 310,-304.5 248.85,-278.99 189.29,-226.64 160.66,-199.23"/>
<polygon fill="#63b8ff" stroke="#63b8ff" points="163.17,-196.8 153.57,-192.33 158.29,-201.81 163.17,-196.8"/>
</a>
</g>
</g>
<!-- Node19 -->
<g id="Node000019" class="node">
<title>Node19</title>
<g id="a_Node000019"><a xlink:href="list_8h.html" target="_top" xlink:title="Intrusive linked list.">
<polygon fill="white" stroke="#666666" points="910,-134.25 870,-134.25 870,-113.5 910,-113.5 910,-134.25"/>
<text text-anchor="middle" x="890" y="-120.75" font-family="Helvetica,sans-Serif" font-size="10.00">list.h</text>
</a>
</g>
</g>
<!-- Node7&#45;&gt;Node19 -->
<g id="edge28_Node000007_Node000019" class="edge">
<title>Node7&#45;&gt;Node19</title>
<g id="a_edge28_Node000007_Node000019"><a xlink:title=" ">
<path fill="none" stroke="#63b8ff" d="M680.57,-404.27C767.68,-396.3 1024,-366.76 1024,-295.12 1024,-295.12 1024,-295.12 1024,-236.38 1024,-183.1 960.64,-150.37 921.05,-135.12"/>
<polygon fill="#63b8ff" stroke="#63b8ff" points="922.37,-131.87 911.77,-131.72 919.96,-138.45 922.37,-131.87"/>
</a>
</g>
</g>
<!-- Node20 -->
<g id="Node000020" class="node">
<title>Node20</title>
<g id="a_Node000020"><a xlink:href="core_2include_2thread_8h.html" target="_top" xlink:title="Threading API.">
<polygon fill="white" stroke="#666666" points="680.25,-361.25 623.75,-361.25 623.75,-340.5 680.25,-340.5 680.25,-361.25"/>
<text text-anchor="middle" x="652" y="-347.75" font-family="Helvetica,sans-Serif" font-size="10.00">thread.h</text>
</a>
</g>
</g>
<!-- Node7&#45;&gt;Node20 -->
<g id="edge29_Node000007_Node000020" class="edge">
<title>Node7&#45;&gt;Node20</title>
<g id="a_edge29_Node000007_Node000020"><a xlink:title=" ">
<path fill="none" stroke="#63b8ff" d="M652,-396.84C652,-390.22 652,-381.22 652,-373.02"/>
<polygon fill="#63b8ff" stroke="#63b8ff" points="655.5,-373.09 652,-363.09 648.5,-373.09 655.5,-373.09"/>
</a>
</g>
</g>
<!-- Node9&#45;&gt;Node3 -->
<g id="edge13_Node000009_Node000003" class="edge">
<title>Node9&#45;&gt;Node3</title>
<g id="a_edge13_Node000009_Node000003"><a xlink:title=" ">
<path fill="none" stroke="#63b8ff" d="M899.77,-345.65C959.46,-337.06 1062,-311.63 1062,-238.38 1062,-238.38 1062,-238.38 1062,-122.88 1062,-18.41 675.42,-10.75 551.05,-10.99"/>
<polygon fill="#63b8ff" stroke="#63b8ff" points="551.35,-7.49 541.36,-11.03 551.38,-14.49 551.35,-7.49"/>
</a>
</g>
</g>
<!-- Node10 -->
<g id="Node000010" class="node">
<title>Node10</title>
<g id="a_Node000010"><a xlink:href="inttypes_8h.html" target="_top" xlink:title="Adds include for missing inttype definitions.">
<polygon fill="white" stroke="#666666" points="875.38,-191 810.62,-191 810.62,-170.25 875.38,-170.25 875.38,-191"/>
<text text-anchor="middle" x="843" y="-177.5" font-family="Helvetica,sans-Serif" font-size="10.00">inttypes.h</text>
</a>
</g>
</g>
<!-- Node9&#45;&gt;Node10 -->
<g id="edge14_Node000009_Node000010" class="edge">
<title>Node9&#45;&gt;Node10</title>
<g id="a_edge14_Node000009_Node000010"><a xlink:title=" ">
<path fill="none" stroke="#63b8ff" d="M857.15,-340.35C854.8,-313.98 848.17,-239.58 844.89,-202.78"/>
<polygon fill="#63b8ff" stroke="#63b8ff" points="848.39,-202.62 844.01,-192.98 841.41,-203.25 848.39,-202.62"/>
</a>
</g>
</g>
<!-- Node11 -->
<g id="Node000011" class="node">
<title>Node11</title>
<g id="a_Node000011"><a xlink:title=" ">
<polygon fill="#e0e0e0" stroke="#999999" points="830.38,-304.5 777.62,-304.5 777.62,-283.75 830.38,-283.75 830.38,-304.5"/>
<text text-anchor="middle" x="804" y="-291" font-family="Helvetica,sans-Serif" font-size="10.00">limits.h</text>
</a>
</g>
</g>
<!-- Node9&#45;&gt;Node11 -->
<g id="edge15_Node000009_Node000011" class="edge">
<title>Node9&#45;&gt;Node11</title>
<g id="a_edge15_Node000009_Node000011"><a xlink:title=" ">
<path fill="none" stroke="#63b8ff" d="M848.35,-340.09C840.9,-332.53 830.39,-321.89 821.48,-312.85"/>
<polygon fill="#63b8ff" stroke="#63b8ff" points="824.15,-310.57 814.63,-305.91 819.16,-315.48 824.15,-310.57"/>
</a>
</g>
</g>
<!-- Node12 -->
<g id="Node000012" class="node">
<title>Node12</title>
<g id="a_Node000012"><a xlink:title=" ">
<polygon fill="#e0e0e0" stroke="#999999" points="995.88,-304.5 886.12,-304.5 886.12,-283.75 995.88,-283.75 995.88,-304.5"/>
<text text-anchor="middle" x="941" y="-291" font-family="Helvetica,sans-Serif" font-size="10.00">architecture_arch.h</text>
</a>
</g>
</g>
<!-- Node9&#45;&gt;Node12 -->
<g id="edge16_Node000009_Node000012" class="edge">
<title>Node9&#45;&gt;Node12</title>
<g id="a_edge16_Node000009_Node000012"><a xlink:title=" ">
<path fill="none" stroke="#63b8ff" d="M872.84,-340.09C885.11,-331.99 902.79,-320.33 917.06,-310.92"/>
<polygon fill="#63b8ff" stroke="#63b8ff" points="918.61,-314.09 925.03,-305.66 914.75,-308.25 918.61,-314.09"/>
</a>
</g>
</g>
<!-- Node14 -->
<g id="Node000014" class="node">
<title>Node14</title>
<g id="a_Node000014"><a xlink:href="modules_8h.html" target="_top" xlink:title="Common macros and compiler attributes/pragmas configuration.">
<polygon fill="white" stroke="#666666" points="286.5,-134.25 219.5,-134.25 219.5,-113.5 286.5,-113.5 286.5,-134.25"/>
<text text-anchor="middle" x="253" y="-120.75" font-family="Helvetica,sans-Serif" font-size="10.00">modules.h</text>
</a>
</g>
</g>
<!-- Node13&#45;&gt;Node14 -->
<g id="edge18_Node000013_Node000014" class="edge">
<title>Node13&#45;&gt;Node14</title>
<g id="a_edge18_Node000013_Node000014"><a xlink:title=" ">
<path fill="none" stroke="#63b8ff" d="M162.67,-169.84C179.56,-161.43 204.17,-149.18 223.43,-139.59"/>
<polygon fill="#63b8ff" stroke="#63b8ff" points="224.76,-142.84 232.15,-135.25 221.64,-136.58 224.76,-142.84"/>
</a>
</g>
</g>
<!-- Node15 -->
<g id="Node000015" class="node">
<title>Node15</title>
<g id="a_Node000015"><a xlink:href="riot__version_8h.html" target="_top" xlink:title="Common macros and compiler attributes/pragmas configuration.">
<polygon fill="white" stroke="#666666" points="169.38,-77.5 86.62,-77.5 86.62,-56.75 169.38,-56.75 169.38,-77.5"/>
<text text-anchor="middle" x="128" y="-64" font-family="Helvetica,sans-Serif" font-size="10.00">riot_version.h</text>
</a>
</g>
</g>
<!-- Node13&#45;&gt;Node15 -->
<g id="edge19_Node000013_Node000015" class="edge">
<title>Node13&#45;&gt;Node15</title>
<g id="a_edge19_Node000013_Node000015"><a xlink:title=" ">
<path fill="none" stroke="#63b8ff" d="M127.23,-169.88C115.9,-161.88 101.53,-149.42 95,-134.25 87.82,-117.59 98.64,-99.17 109.76,-86"/>
<polygon fill="#63b8ff" stroke="#63b8ff" points="112.07,-88.66 116.27,-78.93 106.92,-83.92 112.07,-88.66"/>
</a>
</g>
</g>
<!-- Node16 -->
<g id="Node000016" class="node">
<title>Node16</title>
<g id="a_Node000016"><a xlink:href="compiler__hints_8h.html" target="_top" xlink:title="Common macros and compiler attributes/pragmas configuration.">
<polygon fill="white" stroke="#666666" points="201.5,-134.25 104.5,-134.25 104.5,-113.5 201.5,-113.5 201.5,-134.25"/>
<text text-anchor="middle" x="153" y="-120.75" font-family="Helvetica,sans-Serif" font-size="10.00">compiler_hints.h</text>
</a>
</g>
</g>
<!-- Node13&#45;&gt;Node16 -->
<g id="edge21_Node000013_Node000016" class="edge">
<title>Node13&#45;&gt;Node16</title>
<g id="a_edge21_Node000013_Node000016"><a xlink:title=" ">
<path fill="none" stroke="#63b8ff" d="M144.79,-169.84C146.01,-163.14 147.68,-154.01 149.19,-145.73"/>
<polygon fill="#63b8ff" stroke="#63b8ff" points="152.6,-146.53 150.96,-136.07 145.72,-145.28 152.6,-146.53"/>
</a>
</g>
</g>
<!-- Node18 -->
<g id="Node000018" class="node">
<title>Node18</title>
<g id="a_Node000018"><a xlink:href="container_8h.html" target="_top" xlink:title="Common macros and compiler attributes/pragmas configuration.">
<polygon fill="white" stroke="#666666" points="413.38,-134.25 342.62,-134.25 342.62,-113.5 413.38,-113.5 413.38,-134.25"/>
<text text-anchor="middle" x="378" y="-120.75" font-family="Helvetica,sans-Serif" font-size="10.00">container.h</text>
</a>
</g>
</g>
<!-- Node13&#45;&gt;Node18 -->
<g id="edge25_Node000013_Node000018" class="edge">
<title>Node13&#45;&gt;Node18</title>
<g id="a_edge25_Node000013_Node000018"><a xlink:title=" ">
<path fill="none" stroke="#63b8ff" d="M185.28,-169.77C226.32,-160.21 288.47,-145.73 331.03,-135.82"/>
<polygon fill="#63b8ff" stroke="#63b8ff" points="331.79,-139.24 340.73,-133.56 330.2,-132.42 331.79,-139.24"/>
</a>
</g>
</g>
<!-- Node15&#45;&gt;Node3 -->
<g id="edge20_Node000015_Node000003" class="edge">
<title>Node15&#45;&gt;Node3</title>
<g id="a_edge20_Node000015_Node000003"><a xlink:title=" ">
<path fill="none" stroke="#63b8ff" d="M169.57,-60.21C244.9,-49.5 402.87,-27.04 475.28,-16.74"/>
<polygon fill="#63b8ff" stroke="#63b8ff" points="475.64,-20.22 485.05,-15.35 474.66,-13.29 475.64,-20.22"/>
</a>
</g>
</g>
<!-- Node16&#45;&gt;Node3 -->
<g id="edge24_Node000016_Node000003" class="edge">
<title>Node16&#45;&gt;Node3</title>
<g id="a_edge24_Node000016_Node000003"><a xlink:title=" ">
<path fill="none" stroke="#63b8ff" d="M167.86,-113.22C190.79,-98.78 236.57,-71.63 279,-56.75 345.96,-33.26 428.2,-20.88 475.21,-15.27"/>
<polygon fill="#63b8ff" stroke="#63b8ff" points="475.33,-18.78 484.87,-14.16 474.53,-11.82 475.33,-18.78"/>
</a>
</g>
</g>
<!-- Node17 -->
<g id="Node000017" class="node">
<title>Node17</title>
<g id="a_Node000017"><a xlink:href="assert_8h.html" target="_top" xlink:title="POSIX.1&#45;2008 compliant version of the assert macro.">
<polygon fill="white" stroke="#666666" points="342.5,-77.5 287.5,-77.5 287.5,-56.75 342.5,-56.75 342.5,-77.5"/>
<text text-anchor="middle" x="315" y="-64" font-family="Helvetica,sans-Serif" font-size="10.00">assert.h</text>
</a>
</g>
</g>
<!-- Node16&#45;&gt;Node17 -->
<g id="edge22_Node000016_Node000017" class="edge">
<title>Node16&#45;&gt;Node17</title>
<g id="a_edge22_Node000016_Node000017"><a xlink:title=" ">
<path fill="none" stroke="#63b8ff" d="M181.96,-113.09C208.35,-104.17 247.52,-90.93 276.53,-81.13"/>
<polygon fill="#63b8ff" stroke="#63b8ff" points="277.31,-84.56 285.67,-78.04 275.07,-77.92 277.31,-84.56"/>
</a>
</g>
</g>
<!-- Node17&#45;&gt;Node3 -->
<g id="edge23_Node000017_Node000003" class="edge">
<title>Node17&#45;&gt;Node3</title>
<g id="a_edge23_Node000017_Node000003"><a xlink:title=" ">
<path fill="none" stroke="#63b8ff" d="M342.95,-58.4C377.59,-48.82 436.75,-32.46 475.36,-21.78"/>
<polygon fill="#63b8ff" stroke="#63b8ff" points="475.98,-25.24 484.69,-19.2 474.11,-18.5 475.98,-25.24"/>
</a>
</g>
</g>
<!-- Node18&#45;&gt;Node3 -->
<g id="edge27_Node000018_Node000003" class="edge">
<title>Node18&#45;&gt;Node3</title>
<g id="a_edge27_Node000018_Node000003"><a xlink:title=" ">
<path fill="none" stroke="#63b8ff" d="M389.51,-113.37C412.31,-94.54 463.5,-52.26 492.3,-28.47"/>
<polygon fill="#63b8ff" stroke="#63b8ff" points="494.49,-31.21 499.97,-22.14 490.03,-25.81 494.49,-31.21"/>
</a>
</g>
</g>
<!-- Node18&#45;&gt;Node8 -->
<g id="edge26_Node000018_Node000008" class="edge">
<title>Node18&#45;&gt;Node8</title>
<g id="a_edge26_Node000018_Node000008"><a xlink:title=" ">
<path fill="none" stroke="#63b8ff" d="M413.74,-114.62C457.4,-104.53 530.99,-87.53 576.05,-77.12"/>
<polygon fill="#63b8ff" stroke="#63b8ff" points="576.71,-80.56 585.66,-74.9 575.13,-73.74 576.71,-80.56"/>
</a>
</g>
</g>
<!-- Node21 -->
<g id="Node000021" class="node">
<title>Node21</title>
<g id="a_Node000021"><a xlink:href="clist_8h.html" target="_top" xlink:title="Circular linked list.">
<polygon fill="white" stroke="#666666" points="777.62,-191 732.38,-191 732.38,-170.25 777.62,-170.25 777.62,-191"/>
<text text-anchor="middle" x="755" y="-177.5" font-family="Helvetica,sans-Serif" font-size="10.00">clist.h</text>
</a>
</g>
</g>
<!-- Node20&#45;&gt;Node21 -->
<g id="edge30_Node000020_Node000021" class="edge">
<title>Node20&#45;&gt;Node21</title>
<g id="a_edge30_Node000020_Node000021"><a xlink:title=" ">
<path fill="none" stroke="#63b8ff" d="M680.71,-340.36C697.91,-333.19 718.76,-321.61 731,-304.5 752.85,-273.97 756.14,-228.7 755.97,-202.48"/>
<polygon fill="#63b8ff" stroke="#63b8ff" points="759.48,-202.7 755.71,-192.8 752.48,-202.89 759.48,-202.7"/>
</a>
</g>
</g>
<!-- Node22 -->
<g id="Node000022" class="node">
<title>Node22</title>
<g id="a_Node000022"><a xlink:href="cib_8h.html" target="_top" xlink:title="Circular integer buffer interface.">
<polygon fill="white" stroke="#666666" points="382.62,-247.75 343.38,-247.75 343.38,-227 382.62,-227 382.62,-247.75"/>
<text text-anchor="middle" x="363" y="-234.25" font-family="Helvetica,sans-Serif" font-size="10.00">cib.h</text>
</a>
</g>
</g>
<!-- Node20&#45;&gt;Node22 -->
<g id="edge34_Node000020_Node000022" class="edge">
<title>Node20&#45;&gt;Node22</title>
<g id="a_edge34_Node000020_Node000022"><a xlink:title=" ">
<path fill="none" stroke="#63b8ff" d="M623.56,-343.39C619.03,-342.4 614.39,-341.4 610,-340.5 525.39,-323.09 493.65,-347.96 419,-304.5 399.56,-293.18 383.73,-272.53 373.92,-257.31"/>
<polygon fill="#63b8ff" stroke="#63b8ff" points="377.11,-255.82 368.91,-249.11 371.14,-259.47 377.11,-255.82"/>
</a>
</g>
</g>
<!-- Node23 -->
<g id="Node000023" class="node">
<title>Node23</title>
<g id="a_Node000023"><a xlink:href="core_2include_2msg_8h.html" target="_top" xlink:title="Messaging API for inter process communication.">
<polygon fill="white" stroke="#666666" points="474,-304.5 428,-304.5 428,-283.75 474,-283.75 474,-304.5"/>
<text text-anchor="middle" x="451" y="-291" font-family="Helvetica,sans-Serif" font-size="10.00">msg.h</text>
</a>
</g>
</g>
<!-- Node20&#45;&gt;Node23 -->
<g id="edge36_Node000020_Node000023" class="edge">
<title>Node20&#45;&gt;Node23</title>
<g id="a_edge36_Node000020_Node000023"><a xlink:title=" ">
<path fill="none" stroke="#63b8ff" d="M623.63,-342.15C587.26,-332.24 524.27,-315.08 485.27,-304.46"/>
<polygon fill="#63b8ff" stroke="#63b8ff" points="486.26,-301.1 475.69,-301.85 484.42,-307.86 486.26,-301.1"/>
</a>
</g>
</g>
<!-- Node24 -->
<g id="Node000024" class="node">
<title>Node24</title>
<g id="a_Node000024"><a xlink:href="sched_8h.html" target="_top" xlink:title="Scheduler API definition.">
<polygon fill="white" stroke="#666666" points="627.75,-247.75 574.25,-247.75 574.25,-227 627.75,-227 627.75,-247.75"/>
<text text-anchor="middle" x="601" y="-234.25" font-family="Helvetica,sans-Serif" font-size="10.00">sched.h</text>
</a>
</g>
</g>
<!-- Node20&#45;&gt;Node24 -->
<g id="edge45_Node000020_Node000024" class="edge">
<title>Node20&#45;&gt;Node24</title>
<g id="a_edge45_Node000020_Node000024"><a xlink:title=" ">
<path fill="none" stroke="#63b8ff" d="M623.42,-341.88C586.76,-331.34 527.14,-313.13 521,-304.5 505.25,-282.37 535.78,-263.38 563.56,-251.5"/>
<polygon fill="#63b8ff" stroke="#63b8ff" points="564.6,-254.85 572.56,-247.87 561.98,-248.36 564.6,-254.85"/>
</a>
</g>
</g>
<!-- Node26 -->
<g id="Node000026" class="node">
<title>Node26</title>
<g id="a_Node000026"><a xlink:href="thread__config_8h.html" target="_top" xlink:title="Thread configuration defines.">
<polygon fill="white" stroke="#666666" points="621.88,-304.5 530.12,-304.5 530.12,-283.75 621.88,-283.75 621.88,-304.5"/>
<text text-anchor="middle" x="576" y="-291" font-family="Helvetica,sans-Serif" font-size="10.00">thread_config.h</text>
</a>
</g>
</g>
<!-- Node20&#45;&gt;Node26 -->
<g id="edge46_Node000020_Node000026" class="edge">
<title>Node20&#45;&gt;Node26</title>
<g id="a_edge46_Node000020_Node000026"><a xlink:title=" ">
<path fill="none" stroke="#63b8ff" d="M638.41,-340.09C627.39,-332.15 611.61,-320.78 598.68,-311.46"/>
<polygon fill="#63b8ff" stroke="#63b8ff" points="600.86,-308.72 590.7,-305.71 596.77,-314.4 600.86,-308.72"/>
</a>
</g>
</g>
<!-- Node28 -->
<g id="Node000028" class="node">
<title>Node28</title>
<g id="a_Node000028"><a xlink:title=" ">
<polygon fill="#e0e0e0" stroke="#999999" points="722.38,-304.5 639.62,-304.5 639.62,-283.75 722.38,-283.75 722.38,-304.5"/>
<text text-anchor="middle" x="681" y="-291" font-family="Helvetica,sans-Serif" font-size="10.00">thread_arch.h</text>
</a>
</g>
</g>
<!-- Node20&#45;&gt;Node28 -->
<g id="edge49_Node000020_Node000028" class="edge">
<title>Node20&#45;&gt;Node28</title>
<g id="a_edge49_Node000020_Node000028"><a xlink:title=" ">
<path fill="none" stroke="#63b8ff" d="M657.18,-340.09C660.9,-333.08 666.02,-323.41 670.56,-314.83"/>
<polygon fill="#63b8ff" stroke="#63b8ff" points="673.56,-316.64 675.15,-306.17 667.38,-313.36 673.56,-316.64"/>
</a>
</g>
</g>
<!-- Node21&#45;&gt;Node2 -->
<g id="edge31_Node000021_Node000002" class="edge">
<title>Node21&#45;&gt;Node2</title>
<g id="a_edge31_Node000021_Node000002"><a xlink:title=" ">
<path fill="none" stroke="#63b8ff" d="M732.06,-172.35C729.36,-171.59 726.63,-170.87 724,-170.25 647.16,-152.05 556.02,-137.91 504.01,-130.53"/>
<polygon fill="#63b8ff" stroke="#63b8ff" points="504.79,-127.11 494.4,-129.19 503.82,-134.04 504.79,-127.11"/>
</a>
</g>
</g>
<!-- Node21&#45;&gt;Node8 -->
<g id="edge32_Node000021_Node000008" class="edge">
<title>Node21&#45;&gt;Node8</title>
<g id="a_edge32_Node000021_Node000008"><a xlink:title=" ">
<path fill="none" stroke="#63b8ff" d="M743.06,-170.12C719.32,-151.21 665.88,-108.64 636.08,-84.91"/>
<polygon fill="#63b8ff" stroke="#63b8ff" points="638.49,-82.36 628.49,-78.87 634.13,-87.84 638.49,-82.36"/>
</a>
</g>
</g>
<!-- Node21&#45;&gt;Node19 -->
<g id="edge33_Node000021_Node000019" class="edge">
<title>Node21&#45;&gt;Node19</title>
<g id="a_edge33_Node000021_Node000019"><a xlink:title=" ">
<path fill="none" stroke="#63b8ff" d="M777.9,-170.34C800.21,-161.29 834.29,-147.47 859.01,-137.44"/>
<polygon fill="#63b8ff" stroke="#63b8ff" points="860.29,-140.7 868.24,-133.7 857.66,-134.22 860.29,-140.7"/>
</a>
</g>
</g>
<!-- Node22&#45;&gt;Node17 -->
<g id="edge35_Node000022_Node000017" class="edge">
<title>Node22&#45;&gt;Node17</title>
<g id="a_edge35_Node000022_Node000017"><a xlink:title=" ">
<path fill="none" stroke="#63b8ff" d="M360.28,-226.85C352.73,-200.37 331.35,-125.43 320.9,-88.8"/>
<polygon fill="#63b8ff" stroke="#63b8ff" points="324.33,-88.08 318.22,-79.42 317.6,-90 324.33,-88.08"/>
</a>
</g>
</g>
<!-- Node23&#45;&gt;Node2 -->
<g id="edge38_Node000023_Node000002" class="edge">
<title>Node23&#45;&gt;Node2</title>
<g id="a_edge38_Node000023_Node000002"><a xlink:title=" ">
<path fill="none" stroke="#63b8ff" d="M451.62,-283.6C453.35,-257.23 458.21,-182.83 460.62,-146.03"/>
<polygon fill="#63b8ff" stroke="#63b8ff" points="464.1,-146.43 461.26,-136.23 457.11,-145.98 464.1,-146.43"/>
</a>
</g>
</g>
<!-- Node23&#45;&gt;Node3 -->
<g id="edge37_Node000023_Node000003" class="edge">
<title>Node23&#45;&gt;Node3</title>
<g id="a_edge37_Node000023_Node000003"><a xlink:title=" ">
<path fill="none" stroke="#63b8ff" d="M455.13,-283.49C458.97,-274.37 464.71,-260.26 469,-247.75 486.04,-198.06 492.28,-185.88 502,-134.25 508.65,-98.92 511.31,-57.1 512.35,-32.49"/>
<polygon fill="#63b8ff" stroke="#63b8ff" points="515.85,-32.65 512.72,-22.53 508.85,-32.4 515.85,-32.65"/>
</a>
</g>
</g>
<!-- Node23&#45;&gt;Node24 -->
<g id="edge39_Node000023_Node000024" class="edge">
<title>Node23&#45;&gt;Node24</title>
<g id="a_edge39_Node000023_Node000024"><a xlink:title=" ">
<path fill="none" stroke="#63b8ff" d="M474.44,-284.57C498.3,-275.86 535.65,-262.23 563.6,-252.03"/>
<polygon fill="#63b8ff" stroke="#63b8ff" points="564.57,-255.4 572.76,-248.68 562.17,-248.82 564.57,-255.4"/>
</a>
</g>
</g>
<!-- Node24&#45;&gt;Node8 -->
<g id="edge40_Node000024_Node000008" class="edge">
<title>Node24&#45;&gt;Node8</title>
<g id="a_edge40_Node000024_Node000008"><a xlink:title=" ">
<path fill="none" stroke="#63b8ff" d="M601.79,-226.85C603.99,-200.48 610.18,-126.08 613.24,-89.28"/>
<polygon fill="#63b8ff" stroke="#63b8ff" points="616.71,-89.73 614.06,-79.48 609.74,-89.15 616.71,-89.73"/>
</a>
</g>
</g>
<!-- Node24&#45;&gt;Node10 -->
<g id="edge41_Node000024_Node000010" class="edge">
<title>Node24&#45;&gt;Node10</title>
<g id="a_edge41_Node000024_Node000010"><a xlink:title=" ">
<path fill="none" stroke="#63b8ff" d="M628.1,-229.2C631.1,-228.44 634.11,-227.69 637,-227 692.82,-213.59 757.52,-199.59 799.3,-190.75"/>
<polygon fill="#63b8ff" stroke="#63b8ff" points="799.9,-194.2 808.96,-188.71 798.46,-187.35 799.9,-194.2"/>
</a>
</g>
</g>
<!-- Node24&#45;&gt;Node13 -->
<g id="edge42_Node000024_Node000013" class="edge">
<title>Node24&#45;&gt;Node13</title>
<g id="a_edge42_Node000024_Node000013"><a xlink:title=" ">
<path fill="none" stroke="#63b8ff" d="M574.06,-233.15C501.87,-224.52 302.77,-200.72 202.43,-188.73"/>
<polygon fill="#63b8ff" stroke="#63b8ff" points="203.13,-185.29 192.79,-187.58 202.3,-192.24 203.13,-185.29"/>
</a>
</g>
</g>
<!-- Node24&#45;&gt;Node21 -->
<g id="edge44_Node000024_Node000021" class="edge">
<title>Node24&#45;&gt;Node21</title>
<g id="a_edge44_Node000024_Node000021"><a xlink:title=" ">
<path fill="none" stroke="#63b8ff" d="M628.18,-226.71C654.13,-217.49 693.32,-203.55 721.26,-193.62"/>
<polygon fill="#63b8ff" stroke="#63b8ff" points="722.43,-196.92 730.68,-190.27 720.09,-190.32 722.43,-196.92"/>
</a>
</g>
</g>
<!-- Node25 -->
<g id="Node000025" class="node">
<title>Node25</title>
<g id="a_Node000025"><a xlink:href="native__sched_8h.html" target="_top" xlink:title="Add definitions required on the native board.">
<polygon fill="white" stroke="#666666" points="714.75,-191 625.25,-191 625.25,-170.25 714.75,-170.25 714.75,-191"/>
<text text-anchor="middle" x="670" y="-177.5" font-family="Helvetica,sans-Serif" font-size="10.00">native_sched.h</text>
</a>
</g>
</g>
<!-- Node24&#45;&gt;Node25 -->
<g id="edge43_Node000024_Node000025" class="edge">
<title>Node24&#45;&gt;Node25</title>
<g id="a_edge43_Node000024_Node000025"><a xlink:title=" ">
<path fill="none" stroke="#63b8ff" d="M613.34,-226.59C623.25,-218.72 637.39,-207.5 649.06,-198.24"/>
<polygon fill="#63b8ff" stroke="#63b8ff" points="650.93,-201.23 656.59,-192.27 646.58,-195.74 650.93,-201.23"/>
</a>
</g>
</g>
<!-- Node26&#45;&gt;Node24 -->
<g id="edge48_Node000026_Node000024" class="edge">
<title>Node26&#45;&gt;Node24</title>
<g id="a_edge48_Node000026_Node000024"><a xlink:title=" ">
<path fill="none" stroke="#63b8ff" d="M580.47,-283.34C583.63,-276.41 587.99,-266.87 591.87,-258.36"/>
<polygon fill="#63b8ff" stroke="#63b8ff" points="594.97,-260.01 595.94,-249.46 588.6,-257.1 594.97,-260.01"/>
</a>
</g>
</g>
<!-- Node27 -->
<g id="Node000027" class="node">
<title>Node27</title>
<g id="a_Node000027"><a xlink:title=" ">
<polygon fill="#e0e0e0" stroke="#999999" points="713.88,-247.75 646.12,-247.75 646.12,-227 713.88,-227 713.88,-247.75"/>
<text text-anchor="middle" x="680" y="-234.25" font-family="Helvetica,sans-Serif" font-size="10.00">cpu_conf.h</text>
</a>
</g>
</g>
<!-- Node26&#45;&gt;Node27 -->
<g id="edge47_Node000026_Node000027" class="edge">
<title>Node26&#45;&gt;Node27</title>
<g id="a_edge47_Node000026_Node000027"><a xlink:title=" ">
<path fill="none" stroke="#63b8ff" d="M594.59,-283.34C610.42,-275.01 633.4,-262.91 651.54,-253.36"/>
<polygon fill="#63b8ff" stroke="#63b8ff" points="653.01,-256.54 660.23,-248.78 649.75,-250.34 653.01,-256.54"/>
</a>
</g>
</g>
<!-- Node29&#45;&gt;Node11 -->
<g id="edge51_Node000029_Node000011" class="edge">
<title>Node29&#45;&gt;Node11</title>
<g id="a_edge51_Node000029_Node000011"><a xlink:title=" ">
<path fill="none" stroke="#63b8ff" d="M531.3,-405.86C581.19,-403.43 667.56,-394.29 733,-361.25 755.91,-349.68 776.7,-328.46 789.78,-313.17"/>
<polygon fill="#63b8ff" stroke="#63b8ff" points="792.26,-315.67 795.91,-305.73 786.85,-311.22 792.26,-315.67"/>
</a>
</g>
</g>
<!-- Node30 -->
<g id="Node000030" class="node">
<title>Node30</title>
<g id="a_Node000030"><a xlink:title=" ">
<polygon fill="#e0e0e0" stroke="#999999" points="530.12,-361.25 451.88,-361.25 451.88,-340.5 530.12,-340.5 530.12,-361.25"/>
<text text-anchor="middle" x="491" y="-347.75" font-family="Helvetica,sans-Serif" font-size="10.00">periph_cpu.h</text>
</a>
</g>
</g>
<!-- Node29&#45;&gt;Node30 -->
<g id="edge52_Node000029_Node000030" class="edge">
<title>Node29&#45;&gt;Node30</title>
<g id="a_edge52_Node000029_Node000030"><a xlink:title=" ">
<path fill="none" stroke="#63b8ff" d="M491,-396.84C491,-390.22 491,-381.22 491,-373.02"/>
<polygon fill="#63b8ff" stroke="#63b8ff" points="494.5,-373.09 491,-363.09 487.5,-373.09 494.5,-373.09"/>
</a>
</g>
</g>
<!-- Node31 -->
<g id="Node000031" class="node">
<title>Node31</title>
<g id="a_Node000031"><a xlink:title=" ">
<polygon fill="#e0e0e0" stroke="#999999" points="433.62,-361.25 352.38,-361.25 352.38,-340.5 433.62,-340.5 433.62,-361.25"/>
<text text-anchor="middle" x="393" y="-347.75" font-family="Helvetica,sans-Serif" font-size="10.00">periph_conf.h</text>
</a>
</g>
</g>
<!-- Node29&#45;&gt;Node31 -->
<g id="edge53_Node000029_Node000031" class="edge">
<title>Node29&#45;&gt;Node31</title>
<g id="a_edge53_Node000029_Node000031"><a xlink:title=" ">
<path fill="none" stroke="#63b8ff" d="M473.48,-396.84C458.71,-388.58 437.32,-376.63 420.3,-367.13"/>
<polygon fill="#63b8ff" stroke="#63b8ff" points="422.13,-364.14 411.69,-362.32 418.71,-370.25 422.13,-364.14"/>
</a>
</g>
</g>
<!-- Node32&#45;&gt;Node3 -->
<g id="edge58_Node000032_Node000003" class="edge">
<title>Node32&#45;&gt;Node3</title>
<g id="a_edge58_Node000032_Node000003"><a xlink:title=" ">
<path fill="none" stroke="#63b8ff" d="M310.59,-396.98C254.05,-356.19 38,-199.2 38,-181.62 38,-181.62 38,-181.62 38,-122.88 38,-88.53 49,-75.15 78,-56.75 143.49,-15.2 381.48,-11.07 474.95,-11.1"/>
<polygon fill="#63b8ff" stroke="#63b8ff" points="474.86,-14.6 484.87,-11.12 474.87,-7.6 474.86,-14.6"/>
</a>
</g>
</g>
<!-- Node32&#45;&gt;Node8 -->
<g id="edge57_Node000032_Node000008" class="edge">
<title>Node32&#45;&gt;Node8</title>
<g id="a_edge57_Node000032_Node000008"><a xlink:title=" ">
<path fill="none" stroke="#63b8ff" d="M325.21,-397.05C327.24,-383.63 332.21,-358.82 343,-340.5 411.02,-225 539.42,-123.29 591.84,-84.66"/>
<polygon fill="#63b8ff" stroke="#63b8ff" points="593.74,-87.6 599.76,-78.88 589.62,-81.94 593.74,-87.6"/>
</a>
</g>
</g>
<!-- Node32&#45;&gt;Node11 -->
<g id="edge56_Node000032_Node000011" class="edge">
<title>Node32&#45;&gt;Node11</title>
<g id="a_edge56_Node000032_Node000011"><a xlink:title=" ">
<path fill="none" stroke="#63b8ff" d="M363.41,-403.71C444.89,-397.36 629.27,-381.23 689,-361.25 707.38,-355.1 751.31,-328.45 779.24,-310.92"/>
<polygon fill="#63b8ff" stroke="#63b8ff" points="780.87,-314.03 787.45,-305.73 777.13,-308.11 780.87,-314.03"/>
</a>
</g>
</g>
<!-- Node32&#45;&gt;Node30 -->
<g id="edge59_Node000032_Node000030" class="edge">
<title>Node32&#45;&gt;Node30</title>
<g id="a_edge59_Node000032_Node000030"><a xlink:title=" ">
<path fill="none" stroke="#63b8ff" d="M353.86,-396.84C380.73,-388.03 420.45,-375 450.24,-365.24"/>
<polygon fill="#63b8ff" stroke="#63b8ff" points="451.27,-368.58 459.68,-362.14 449.09,-361.93 451.27,-368.58"/>
</a>
</g>
</g>
<!-- Node32&#45;&gt;Node31 -->
<g id="edge60_Node000032_Node000031" class="edge">
<title>Node32&#45;&gt;Node31</title>
<g id="a_edge60_Node000032_Node000031"><a xlink:title=" ">
<path fill="none" stroke="#63b8ff" d="M336.34,-396.84C346.25,-388.97 360.39,-377.75 372.06,-368.49"/>
<polygon fill="#63b8ff" stroke="#63b8ff" points="373.93,-371.48 379.59,-362.52 369.58,-365.99 373.93,-371.48"/>
</a>
</g>
</g>
<!-- Node33 -->
<g id="Node000033" class="node">
<title>Node33</title>
<g id="a_Node000033"><a xlink:href="errno_8h.html" target="_top" xlink:title=" ">
<polygon fill="white" stroke="#666666" points="220.25,-361.25 169.75,-361.25 169.75,-340.5 220.25,-340.5 220.25,-361.25"/>
<text text-anchor="middle" x="195" y="-347.75" font-family="Helvetica,sans-Serif" font-size="10.00">errno.h</text>
</a>
</g>
</g>
<!-- Node32&#45;&gt;Node33 -->
<g id="edge55_Node000032_Node000033" class="edge">
<title>Node32&#45;&gt;Node33</title>
<g id="a_edge55_Node000032_Node000033"><a xlink:title=" ">
<path fill="none" stroke="#63b8ff" d="M300.94,-396.84C280.76,-388.27 251.2,-375.73 228.43,-366.06"/>
<polygon fill="#63b8ff" stroke="#63b8ff" points="229.83,-362.85 219.26,-362.17 227.09,-369.3 229.83,-362.85"/>
</a>
</g>
</g>
<!-- Node34&#45;&gt;Node1 -->
<g id="edge65_Node000034_Node000001" class="edge">
<title>Node34&#45;&gt;Node1</title>
<g id="a_edge65_Node000034_Node000001"><a xlink:title=" ">
<path fill="none" stroke="#63b8ff" d="M278.26,-588.58C272.65,-596.18 262.95,-606.97 253.69,-616.08"/>
<polygon fill="#63b8ff" stroke="#63b8ff" points="251.43,-613.4 246.54,-622.8 256.22,-618.5 251.43,-613.4"/>
</a>
</g>
</g>
<!-- Node34&#45;&gt;Node6 -->
<g id="edge73_Node000034_Node000006" class="edge">
<title>Node34&#45;&gt;Node6</title>
<g id="a_edge73_Node000034_Node000006"><a xlink:title=" ">
<path fill="none" stroke="#63b8ff" d="M282.43,-567.37C283.22,-549.6 284.96,-510.97 286.04,-486.68"/>
<polygon fill="#63b8ff" stroke="#63b8ff" points="289.54,-486.83 286.49,-476.69 282.55,-486.52 289.54,-486.83"/>
</a>
</g>
</g>
<!-- Node34&#45;&gt;Node33 -->
<g id="edge64_Node000034_Node000033" class="edge">
<title>Node34&#45;&gt;Node33</title>
<g id="a_edge64_Node000034_Node000033"><a xlink:title=" ">
<path fill="none" stroke="#63b8ff" d="M276.02,-567.06C265.35,-549.22 242.88,-510.08 229,-474.75 215.29,-439.85 204.84,-397.34 199.33,-372.57"/>
<polygon fill="#63b8ff" stroke="#63b8ff" points="202.83,-372.17 197.3,-363.14 195.99,-373.65 202.83,-372.17"/>
</a>
</g>
</g>
<!-- Node35 -->
<g id="Node000035" class="node">
<title>Node35</title>
<g id="a_Node000035"><a xlink:href="dfplayer__constants_8h.html" target="_top" xlink:title="Constants used in the DFPlayer Mini Driver.">
<polygon fill="white" stroke="#666666" points="631,-474.75 513,-474.75 513,-454 631,-454 631,-474.75"/>
<text text-anchor="middle" x="572" y="-461.25" font-family="Helvetica,sans-Serif" font-size="10.00">dfplayer_constants.h</text>
</a>
</g>
</g>
<!-- Node34&#45;&gt;Node35 -->
<g id="edge66_Node000034_Node000035" class="edge">
<title>Node34&#45;&gt;Node35</title>
<g id="a_edge66_Node000034_Node000035"><a xlink:title=" ">
<path fill="none" stroke="#63b8ff" d="M287.27,-567.45C295.99,-552.78 314.88,-524.75 339,-510.75 388.5,-482.02 452.86,-471.11 501.39,-467.14"/>
<polygon fill="#63b8ff" stroke="#63b8ff" points="501.51,-470.64 511.23,-466.42 501,-463.66 501.51,-470.64"/>
</a>
</g>
</g>
<!-- Node36 -->
<g id="Node000036" class="node">
<title>Node36</title>
<g id="a_Node000036"><a xlink:href="dfplayer__internal_8h.html" target="_top" xlink:title="Internal functions of DFPlayer Mini Device driver.">
<polygon fill="white" stroke="#666666" points="456.12,-531.5 347.88,-531.5 347.88,-510.75 456.12,-510.75 456.12,-531.5"/>
<text text-anchor="middle" x="402" y="-518" font-family="Helvetica,sans-Serif" font-size="10.00">dfplayer_internal.h</text>
</a>
</g>
</g>
<!-- Node34&#45;&gt;Node36 -->
<g id="edge70_Node000034_Node000036" class="edge">
<title>Node34&#45;&gt;Node36</title>
<g id="a_edge70_Node000034_Node000036"><a xlink:title=" ">
<path fill="none" stroke="#63b8ff" d="M303.45,-567.09C322.05,-558.6 349.22,-546.2 370.33,-536.58"/>
<polygon fill="#63b8ff" stroke="#63b8ff" points="371.71,-539.79 379.36,-532.46 368.8,-533.42 371.71,-539.79"/>
</a>
</g>
</g>
<!-- Node35&#45;&gt;Node3 -->
<g id="edge67_Node000035_Node000003" class="edge">
<title>Node35&#45;&gt;Node3</title>
<g id="a_edge67_Node000035_Node000003"><a xlink:title=" ">
<path fill="none" stroke="#63b8ff" d="M631.29,-458.63C783.47,-445.67 1176,-406.89 1176,-351.88 1176,-351.88 1176,-351.88 1176,-122.88 1176,-71.07 1128.82,-74.1 1080,-56.75 982.03,-21.93 661.59,-13.69 550.96,-11.86"/>
<polygon fill="#63b8ff" stroke="#63b8ff" points="551.29,-8.37 541.24,-11.71 551.19,-15.37 551.29,-8.37"/>
</a>
</g>
</g>
<!-- Node35&#45;&gt;Node7 -->
<g id="edge69_Node000035_Node000007" class="edge">
<title>Node35&#45;&gt;Node7</title>
<g id="a_edge69_Node000035_Node000007"><a xlink:title=" ">
<path fill="none" stroke="#63b8ff" d="M586.3,-453.59C598.02,-445.57 614.84,-434.06 628.53,-424.69"/>
<polygon fill="#63b8ff" stroke="#63b8ff" points="630.3,-427.72 636.57,-419.18 626.34,-421.94 630.3,-427.72"/>
</a>
</g>
</g>
<!-- Node35&#45;&gt;Node29 -->
<g id="edge68_Node000035_Node000029" class="edge">
<title>Node35&#45;&gt;Node29</title>
<g id="a_edge68_Node000035_Node000029"><a xlink:title=" ">
<path fill="none" stroke="#63b8ff" d="M557.52,-453.59C545.65,-445.57 528.63,-434.06 514.77,-424.69"/>
<polygon fill="#63b8ff" stroke="#63b8ff" points="516.85,-421.88 506.61,-419.18 512.93,-427.68 516.85,-421.88"/>
</a>
</g>
</g>
<!-- Node36&#45;&gt;Node3 -->
<g id="edge71_Node000036_Node000003" class="edge">
<title>Node36&#45;&gt;Node3</title>
<g id="a_edge71_Node000036_Node000003"><a xlink:title=" ">
<path fill="none" stroke="#63b8ff" d="M456.54,-518.39C638.6,-511.89 1214,-485.29 1214,-408.62 1214,-408.62 1214,-408.62 1214,-122.88 1214,-74.31 1172.42,-73.94 1127,-56.75 1020.81,-16.56 667.99,-11.82 551.04,-11.38"/>
<polygon fill="#63b8ff" stroke="#63b8ff" points="551.36,-7.88 541.35,-11.35 551.34,-14.88 551.36,-7.88"/>
</a>
</g>
</g>
<!-- Node36&#45;&gt;Node6 -->
<g id="edge72_Node000036_Node000006" class="edge">
<title>Node36&#45;&gt;Node6</title>
<g id="a_edge72_Node000036_Node000006"><a xlink:title=" ">
<path fill="none" stroke="#63b8ff" d="M381.44,-510.34C363.7,-501.89 337.82,-489.57 317.63,-479.96"/>
<polygon fill="#63b8ff" stroke="#63b8ff" points="319.28,-476.87 308.75,-475.73 316.27,-483.19 319.28,-476.87"/>
</a>
</g>
</g>
</g>
</svg>
