<?xml version="1.0" encoding="UTF-8" standalone="no"?>
<!DOCTYPE svg PUBLIC "-//W3C//DTD SVG 1.1//EN"
 "http://www.w3.org/Graphics/SVG/1.1/DTD/svg11.dtd">
<!-- Generated by graphviz version 12.1.1 (0)
 -->
<!-- Title: drivers/include/dht.h Pages: 1 -->
<svg width="326pt" height="142pt"
 viewBox="0.00 0.00 325.88 142.25" xmlns="http://www.w3.org/2000/svg" xmlns:xlink="http://www.w3.org/1999/xlink">
<g id="graph0" class="graph" transform="scale(1 1) rotate(0) translate(4 138.25)">
<title>drivers/include/dht.h</title>
<!-- Node1 -->
<g id="Node000001" class="node">
<title>Node1</title>
<g id="a_Node000001"><a xlink:title="Device driver interface for the DHT family of humidity and temperature sensors.">
<polygon fill="#999999" stroke="#666666" points="153.12,-134.25 37.38,-134.25 37.38,-113.5 153.12,-113.5 153.12,-134.25"/>
<text text-anchor="middle" x="95.25" y="-120.75" font-family="Helvetica,sans-Serif" font-size="10.00">drivers/include/dht.h</text>
</a>
</g>
</g>
<!-- Node2 -->
<g id="Node000002" class="node">
<title>Node2</title>
<g id="a_Node000002"><a xlink:href="errno_8h.html" target="_top" xlink:title=" ">
<polygon fill="white" stroke="#666666" points="50.5,-77.5 0,-77.5 0,-56.75 50.5,-56.75 50.5,-77.5"/>
<text text-anchor="middle" x="25.25" y="-64" font-family="Helvetica,sans-Serif" font-size="10.00">errno.h</text>
</a>
</g>
</g>
<!-- Node1&#45;&gt;Node2 -->
<g id="edge1_Node000001_Node000002" class="edge">
<title>Node1&#45;&gt;Node2</title>
<g id="a_edge1_Node000001_Node000002"><a xlink:title=" ">
<path fill="none" stroke="#63b8ff" d="M82.74,-113.09C72.68,-105.22 58.34,-94 46.49,-84.74"/>
<polygon fill="#63b8ff" stroke="#63b8ff" points="48.88,-82.16 38.85,-78.76 44.57,-87.68 48.88,-82.16"/>
</a>
</g>
</g>
<!-- Node3 -->
<g id="Node000003" class="node">
<title>Node3</title>
<g id="a_Node000003"><a xlink:title=" ">
<polygon fill="#e0e0e0" stroke="#999999" points="121.62,-77.5 68.88,-77.5 68.88,-56.75 121.62,-56.75 121.62,-77.5"/>
<text text-anchor="middle" x="95.25" y="-64" font-family="Helvetica,sans-Serif" font-size="10.00">stdint.h</text>
</a>
</g>
</g>
<!-- Node1&#45;&gt;Node3 -->
<g id="edge2_Node000001_Node000003" class="edge">
<title>Node1&#45;&gt;Node3</title>
<g id="a_edge2_Node000001_Node000003"><a xlink:title=" ">
<path fill="none" stroke="#63b8ff" d="M95.25,-113.09C95.25,-106.47 95.25,-97.47 95.25,-89.27"/>
<polygon fill="#63b8ff" stroke="#63b8ff" points="98.75,-89.34 95.25,-79.34 91.75,-89.34 98.75,-89.34"/>
</a>
</g>
</g>
<!-- Node4 -->
<g id="Node000004" class="node">
<title>Node4</title>
<g id="a_Node000004"><a xlink:href="drivers_2include_2periph_2gpio_8h.html" target="_top" xlink:title="Low&#45;level GPIO peripheral driver interface definitions.">
<polygon fill="white" stroke="#666666" points="219.12,-77.5 139.38,-77.5 139.38,-56.75 219.12,-56.75 219.12,-77.5"/>
<text text-anchor="middle" x="179.25" y="-64" font-family="Helvetica,sans-Serif" font-size="10.00">periph/gpio.h</text>
</a>
</g>
</g>
<!-- Node1&#45;&gt;Node4 -->
<g id="edge3_Node000001_Node000004" class="edge">
<title>Node1&#45;&gt;Node4</title>
<g id="a_edge3_Node000001_Node000004"><a xlink:title=" ">
<path fill="none" stroke="#63b8ff" d="M110.27,-113.09C122.69,-104.99 140.57,-93.33 155.02,-83.92"/>
<polygon fill="#63b8ff" stroke="#63b8ff" points="156.63,-87.05 163.09,-78.65 152.81,-81.18 156.63,-87.05"/>
</a>
</g>
</g>
<!-- Node5 -->
<g id="Node000005" class="node">
<title>Node5</title>
<g id="a_Node000005"><a xlink:title=" ">
<polygon fill="#e0e0e0" stroke="#999999" points="121.62,-20.75 68.88,-20.75 68.88,0 121.62,0 121.62,-20.75"/>
<text text-anchor="middle" x="95.25" y="-7.25" font-family="Helvetica,sans-Serif" font-size="10.00">limits.h</text>
</a>
</g>
</g>
<!-- Node4&#45;&gt;Node5 -->
<g id="edge4_Node000004_Node000005" class="edge">
<title>Node4&#45;&gt;Node5</title>
<g id="a_edge4_Node000004_Node000005"><a xlink:title=" ">
<path fill="none" stroke="#63b8ff" d="M164.23,-56.34C151.81,-48.24 133.93,-36.58 119.48,-27.17"/>
<polygon fill="#63b8ff" stroke="#63b8ff" points="121.69,-24.43 111.41,-21.9 117.87,-30.3 121.69,-24.43"/>
</a>
</g>
</g>
<!-- Node6 -->
<g id="Node000006" class="node">
<title>Node6</title>
<g id="a_Node000006"><a xlink:title=" ">
<polygon fill="#e0e0e0" stroke="#999999" points="218.38,-20.75 140.12,-20.75 140.12,0 218.38,0 218.38,-20.75"/>
<text text-anchor="middle" x="179.25" y="-7.25" font-family="Helvetica,sans-Serif" font-size="10.00">periph_cpu.h</text>
</a>
</g>
</g>
<!-- Node4&#45;&gt;Node6 -->
<g id="edge5_Node000004_Node000006" class="edge">
<title>Node4&#45;&gt;Node6</title>
<g id="a_edge5_Node000004_Node000006"><a xlink:title=" ">
<path fill="none" stroke="#63b8ff" d="M179.25,-56.34C179.25,-49.72 179.25,-40.72 179.25,-32.52"/>
<polygon fill="#63b8ff" stroke="#63b8ff" points="182.75,-32.59 179.25,-22.59 175.75,-32.59 182.75,-32.59"/>
</a>
</g>
</g>
<!-- Node7 -->
<g id="Node000007" class="node">
<title>Node7</title>
<g id="a_Node000007"><a xlink:title=" ">
<polygon fill="#e0e0e0" stroke="#999999" points="317.88,-20.75 236.62,-20.75 236.62,0 317.88,0 317.88,-20.75"/>
<text text-anchor="middle" x="277.25" y="-7.25" font-family="Helvetica,sans-Serif" font-size="10.00">periph_conf.h</text>
</a>
</g>
</g>
<!-- Node4&#45;&gt;Node7 -->
<g id="edge6_Node000004_Node000007" class="edge">
<title>Node4&#45;&gt;Node7</title>
<g id="a_edge6_Node000004_Node000007"><a xlink:title=" ">
<path fill="none" stroke="#63b8ff" d="M196.77,-56.34C211.54,-48.08 232.93,-36.13 249.95,-26.63"/>
<polygon fill="#63b8ff" stroke="#63b8ff" points="251.54,-29.75 258.56,-21.82 248.12,-23.64 251.54,-29.75"/>
</a>
</g>
</g>
</g>
</svg>
