<?xml version="1.0" encoding="UTF-8" standalone="no"?>
<!DOCTYPE svg PUBLIC "-//W3C//DTD SVG 1.1//EN"
 "http://www.w3.org/Graphics/SVG/1.1/DTD/svg11.dtd">
<!-- Generated by graphviz version 12.1.1 (0)
 -->
<!-- Title: drivers/dht/include/dht_params.h Pages: 1 -->
<svg width="575pt" height="212pt"
 viewBox="0.00 0.00 574.88 211.75" xmlns="http://www.w3.org/2000/svg" xmlns:xlink="http://www.w3.org/1999/xlink">
<g id="graph0" class="graph" transform="scale(1 1) rotate(0) translate(4 207.75)">
<title>drivers/dht/include/dht_params.h</title>
<!-- Node1 -->
<g id="Node000001" class="node">
<title>Node1</title>
<g id="a_Node000001"><a xlink:title="Default configuration for DHT devices.">
<polygon fill="#999999" stroke="#666666" points="257.75,-203.75 151,-203.75 151,-170.25 257.75,-170.25 257.75,-203.75"/>
<text text-anchor="start" x="159" y="-190.25" font-family="Helvetica,sans-Serif" font-size="10.00">drivers/dht/include</text>
<text text-anchor="middle" x="204.38" y="-177.5" font-family="Helvetica,sans-Serif" font-size="10.00">/dht_params.h</text>
</a>
</g>
</g>
<!-- Node2 -->
<g id="Node000002" class="node">
<title>Node2</title>
<g id="a_Node000002"><a xlink:title=" ">
<polygon fill="#e0e0e0" stroke="#999999" points="165.75,-134.25 113,-134.25 113,-113.5 165.75,-113.5 165.75,-134.25"/>
<text text-anchor="middle" x="139.38" y="-120.75" font-family="Helvetica,sans-Serif" font-size="10.00">board.h</text>
</a>
</g>
</g>
<!-- Node1&#45;&gt;Node2 -->
<g id="edge1_Node000001_Node000002" class="edge">
<title>Node1&#45;&gt;Node2</title>
<g id="a_edge1_Node000001_Node000002"><a xlink:title=" ">
<path fill="none" stroke="#63b8ff" d="M187.3,-169.94C178.29,-161.47 167.22,-151.06 158,-142.39"/>
<polygon fill="#63b8ff" stroke="#63b8ff" points="160.63,-140.05 150.94,-135.75 155.83,-145.15 160.63,-140.05"/>
</a>
</g>
</g>
<!-- Node3 -->
<g id="Node000003" class="node">
<title>Node3</title>
<g id="a_Node000003"><a xlink:href="dht_8h.html" target="_top" xlink:title="Device driver interface for the DHT family of humidity and temperature sensors.">
<polygon fill="white" stroke="#666666" points="224.75,-134.25 184,-134.25 184,-113.5 224.75,-113.5 224.75,-134.25"/>
<text text-anchor="middle" x="204.38" y="-120.75" font-family="Helvetica,sans-Serif" font-size="10.00">dht.h</text>
</a>
</g>
</g>
<!-- Node1&#45;&gt;Node3 -->
<g id="edge2_Node000001_Node000003" class="edge">
<title>Node1&#45;&gt;Node3</title>
<g id="a_edge2_Node000001_Node000003"><a xlink:title=" ">
<path fill="none" stroke="#63b8ff" d="M204.38,-169.94C204.38,-162.6 204.38,-153.82 204.38,-145.96"/>
<polygon fill="#63b8ff" stroke="#63b8ff" points="207.88,-146.23 204.38,-136.23 200.88,-146.23 207.88,-146.23"/>
</a>
</g>
</g>
<!-- Node10 -->
<g id="Node000010" class="node">
<title>Node10</title>
<g id="a_Node000010"><a xlink:href="saul__reg_8h.html" target="_top" xlink:title="SAUL registry interface definition.">
<polygon fill="white" stroke="#666666" points="351.5,-134.25 285.25,-134.25 285.25,-113.5 351.5,-113.5 351.5,-134.25"/>
<text text-anchor="middle" x="318.38" y="-120.75" font-family="Helvetica,sans-Serif" font-size="10.00">saul_reg.h</text>
</a>
</g>
</g>
<!-- Node1&#45;&gt;Node10 -->
<g id="edge9_Node000001_Node000010" class="edge">
<title>Node1&#45;&gt;Node10</title>
<g id="a_edge9_Node000001_Node000010"><a xlink:title=" ">
<path fill="none" stroke="#63b8ff" d="M234.63,-169.78C251.89,-160.52 273.38,-149 290.27,-139.94"/>
<polygon fill="#63b8ff" stroke="#63b8ff" points="291.62,-143.19 298.78,-135.38 288.32,-137.02 291.62,-143.19"/>
</a>
</g>
</g>
<!-- Node4 -->
<g id="Node000004" class="node">
<title>Node4</title>
<g id="a_Node000004"><a xlink:href="errno_8h.html" target="_top" xlink:title=" ">
<polygon fill="white" stroke="#666666" points="265.62,-77.5 215.12,-77.5 215.12,-56.75 265.62,-56.75 265.62,-77.5"/>
<text text-anchor="middle" x="240.38" y="-64" font-family="Helvetica,sans-Serif" font-size="10.00">errno.h</text>
</a>
</g>
</g>
<!-- Node3&#45;&gt;Node4 -->
<g id="edge3_Node000003_Node000004" class="edge">
<title>Node3&#45;&gt;Node4</title>
<g id="a_edge3_Node000003_Node000004"><a xlink:title=" ">
<path fill="none" stroke="#63b8ff" d="M210.81,-113.09C215.52,-105.92 222.06,-95.98 227.79,-87.26"/>
<polygon fill="#63b8ff" stroke="#63b8ff" points="230.59,-89.37 233.16,-79.09 224.74,-85.53 230.59,-89.37"/>
</a>
</g>
</g>
<!-- Node5 -->
<g id="Node000005" class="node">
<title>Node5</title>
<g id="a_Node000005"><a xlink:title=" ">
<polygon fill="#e0e0e0" stroke="#999999" points="319.75,-20.75 267,-20.75 267,0 319.75,0 319.75,-20.75"/>
<text text-anchor="middle" x="293.38" y="-7.25" font-family="Helvetica,sans-Serif" font-size="10.00">stdint.h</text>
</a>
</g>
</g>
<!-- Node3&#45;&gt;Node5 -->
<g id="edge4_Node000003_Node000005" class="edge">
<title>Node3&#45;&gt;Node5</title>
<g id="a_edge4_Node000003_Node000005"><a xlink:title=" ">
<path fill="none" stroke="#63b8ff" d="M201.79,-113.02C198.79,-99.27 195.51,-74.07 206.38,-56.75 212.49,-47 236.4,-34.89 257.61,-25.64"/>
<polygon fill="#63b8ff" stroke="#63b8ff" points="258.8,-28.94 266.64,-21.81 256.07,-22.49 258.8,-28.94"/>
</a>
</g>
</g>
<!-- Node6 -->
<g id="Node000006" class="node">
<title>Node6</title>
<g id="a_Node000006"><a xlink:href="drivers_2include_2periph_2gpio_8h.html" target="_top" xlink:title="Low&#45;level GPIO peripheral driver interface definitions.">
<polygon fill="white" stroke="#666666" points="155.25,-77.5 75.5,-77.5 75.5,-56.75 155.25,-56.75 155.25,-77.5"/>
<text text-anchor="middle" x="115.38" y="-64" font-family="Helvetica,sans-Serif" font-size="10.00">periph/gpio.h</text>
</a>
</g>
</g>
<!-- Node3&#45;&gt;Node6 -->
<g id="edge5_Node000003_Node000006" class="edge">
<title>Node3&#45;&gt;Node6</title>
<g id="a_edge5_Node000003_Node000006"><a xlink:title=" ">
<path fill="none" stroke="#63b8ff" d="M188.46,-113.09C175.17,-104.91 155.99,-93.11 140.61,-83.65"/>
<polygon fill="#63b8ff" stroke="#63b8ff" points="142.79,-80.88 132.44,-78.62 139.12,-86.84 142.79,-80.88"/>
</a>
</g>
</g>
<!-- Node7 -->
<g id="Node000007" class="node">
<title>Node7</title>
<g id="a_Node000007"><a xlink:title=" ">
<polygon fill="#e0e0e0" stroke="#999999" points="52.75,-20.75 0,-20.75 0,0 52.75,0 52.75,-20.75"/>
<text text-anchor="middle" x="26.38" y="-7.25" font-family="Helvetica,sans-Serif" font-size="10.00">limits.h</text>
</a>
</g>
</g>
<!-- Node6&#45;&gt;Node7 -->
<g id="edge6_Node000006_Node000007" class="edge">
<title>Node6&#45;&gt;Node7</title>
<g id="a_edge6_Node000006_Node000007"><a xlink:title=" ">
<path fill="none" stroke="#63b8ff" d="M99.46,-56.34C86.17,-48.16 66.99,-36.36 51.61,-26.9"/>
<polygon fill="#63b8ff" stroke="#63b8ff" points="53.79,-24.13 43.44,-21.87 50.12,-30.09 53.79,-24.13"/>
</a>
</g>
</g>
<!-- Node8 -->
<g id="Node000008" class="node">
<title>Node8</title>
<g id="a_Node000008"><a xlink:title=" ">
<polygon fill="#e0e0e0" stroke="#999999" points="149.5,-20.75 71.25,-20.75 71.25,0 149.5,0 149.5,-20.75"/>
<text text-anchor="middle" x="110.38" y="-7.25" font-family="Helvetica,sans-Serif" font-size="10.00">periph_cpu.h</text>
</a>
</g>
</g>
<!-- Node6&#45;&gt;Node8 -->
<g id="edge7_Node000006_Node000008" class="edge">
<title>Node6&#45;&gt;Node8</title>
<g id="a_edge7_Node000006_Node000008"><a xlink:title=" ">
<path fill="none" stroke="#63b8ff" d="M114.48,-56.34C113.88,-49.72 113.06,-40.72 112.31,-32.52"/>
<polygon fill="#63b8ff" stroke="#63b8ff" points="115.79,-32.23 111.4,-22.59 108.82,-32.86 115.79,-32.23"/>
</a>
</g>
</g>
<!-- Node9 -->
<g id="Node000009" class="node">
<title>Node9</title>
<g id="a_Node000009"><a xlink:title=" ">
<polygon fill="#e0e0e0" stroke="#999999" points="249,-20.75 167.75,-20.75 167.75,0 249,0 249,-20.75"/>
<text text-anchor="middle" x="208.38" y="-7.25" font-family="Helvetica,sans-Serif" font-size="10.00">periph_conf.h</text>
</a>
</g>
</g>
<!-- Node6&#45;&gt;Node9 -->
<g id="edge8_Node000006_Node000009" class="edge">
<title>Node6&#45;&gt;Node9</title>
<g id="a_edge8_Node000006_Node000009"><a xlink:title=" ">
<path fill="none" stroke="#63b8ff" d="M132,-56.34C145.89,-48.16 165.94,-36.36 182.01,-26.9"/>
<polygon fill="#63b8ff" stroke="#63b8ff" points="183.75,-29.94 190.59,-21.85 180.19,-23.9 183.75,-29.94"/>
</a>
</g>
</g>
<!-- Node10&#45;&gt;Node5 -->
<g id="edge10_Node000010_Node000005" class="edge">
<title>Node10&#45;&gt;Node5</title>
<g id="a_edge10_Node000010_Node000005"><a xlink:title=" ">
<path fill="none" stroke="#63b8ff" d="M316.24,-113.37C312.24,-95.52 303.52,-56.61 298.08,-32.34"/>
<polygon fill="#63b8ff" stroke="#63b8ff" points="301.51,-31.64 295.9,-22.65 294.68,-33.18 301.51,-31.64"/>
</a>
</g>
</g>
<!-- Node11 -->
<g id="Node000011" class="node">
<title>Node11</title>
<g id="a_Node000011"><a xlink:title=" ">
<polygon fill="#e0e0e0" stroke="#999999" points="367,-77.5 321.75,-77.5 321.75,-56.75 367,-56.75 367,-77.5"/>
<text text-anchor="middle" x="344.38" y="-64" font-family="Helvetica,sans-Serif" font-size="10.00">saul.h</text>
</a>
</g>
</g>
<!-- Node10&#45;&gt;Node11 -->
<g id="edge11_Node000010_Node000011" class="edge">
<title>Node10&#45;&gt;Node11</title>
<g id="a_edge11_Node000010_Node000011"><a xlink:title=" ">
<path fill="none" stroke="#63b8ff" d="M323.02,-113.09C326.31,-106.16 330.84,-96.62 334.88,-88.11"/>
<polygon fill="#63b8ff" stroke="#63b8ff" points="337.99,-89.73 339.12,-79.2 331.67,-86.73 337.99,-89.73"/>
</a>
</g>
</g>
<!-- Node12 -->
<g id="Node000012" class="node">
<title>Node12</title>
<g id="a_Node000012"><a xlink:href="phydat_8h.html" target="_top" xlink:title="Generic data container for physical data interface.">
<polygon fill="white" stroke="#666666" points="443.75,-77.5 385,-77.5 385,-56.75 443.75,-56.75 443.75,-77.5"/>
<text text-anchor="middle" x="414.38" y="-64" font-family="Helvetica,sans-Serif" font-size="10.00">phydat.h</text>
</a>
</g>
</g>
<!-- Node10&#45;&gt;Node12 -->
<g id="edge12_Node000010_Node000012" class="edge">
<title>Node10&#45;&gt;Node12</title>
<g id="a_edge12_Node000010_Node000012"><a xlink:title=" ">
<path fill="none" stroke="#63b8ff" d="M335.54,-113.09C350.01,-104.83 370.96,-92.88 387.63,-83.38"/>
<polygon fill="#63b8ff" stroke="#63b8ff" points="389.09,-86.57 396.05,-78.58 385.63,-80.49 389.09,-86.57"/>
</a>
</g>
</g>
<!-- Node12&#45;&gt;Node5 -->
<g id="edge14_Node000012_Node000005" class="edge">
<title>Node12&#45;&gt;Node5</title>
<g id="a_edge14_Node000012_Node000005"><a xlink:title=" ">
<path fill="none" stroke="#63b8ff" d="M392.74,-56.34C373.9,-47.81 346.34,-35.34 325.02,-25.69"/>
<polygon fill="#63b8ff" stroke="#63b8ff" points="326.75,-22.64 316.2,-21.7 323.87,-29.01 326.75,-22.64"/>
</a>
</g>
</g>
<!-- Node13 -->
<g id="Node000013" class="node">
<title>Node13</title>
<g id="a_Node000013"><a xlink:title=" ">
<polygon fill="#e0e0e0" stroke="#999999" points="566.88,-20.75 511.88,-20.75 511.88,0 566.88,0 566.88,-20.75"/>
<text text-anchor="middle" x="539.38" y="-7.25" font-family="Helvetica,sans-Serif" font-size="10.00">stddef.h</text>
</a>
</g>
</g>
<!-- Node12&#45;&gt;Node13 -->
<g id="edge13_Node000012_Node000013" class="edge">
<title>Node12&#45;&gt;Node13</title>
<g id="a_edge13_Node000012_Node000013"><a xlink:title=" ">
<path fill="none" stroke="#63b8ff" d="M436.72,-56.34C456.19,-47.81 484.66,-35.34 506.68,-25.69"/>
<polygon fill="#63b8ff" stroke="#63b8ff" points="508.08,-28.9 515.83,-21.69 505.27,-22.49 508.08,-28.9"/>
</a>
</g>
</g>
<!-- Node14 -->
<g id="Node000014" class="node">
<title>Node14</title>
<g id="a_Node000014"><a xlink:title=" ">
<polygon fill="#e0e0e0" stroke="#999999" points="409.12,-20.75 337.62,-20.75 337.62,0 409.12,0 409.12,-20.75"/>
<text text-anchor="middle" x="373.38" y="-7.25" font-family="Helvetica,sans-Serif" font-size="10.00">sys/types.h</text>
</a>
</g>
</g>
<!-- Node12&#45;&gt;Node14 -->
<g id="edge15_Node000012_Node000014" class="edge">
<title>Node12&#45;&gt;Node14</title>
<g id="a_edge15_Node000012_Node000014"><a xlink:title=" ">
<path fill="none" stroke="#63b8ff" d="M407.05,-56.34C401.62,-49.1 394.07,-39.01 387.49,-30.22"/>
<polygon fill="#63b8ff" stroke="#63b8ff" points="390.34,-28.2 381.55,-22.29 384.74,-32.39 390.34,-28.2"/>
</a>
</g>
</g>
<!-- Node15 -->
<g id="Node000015" class="node">
<title>Node15</title>
<g id="a_Node000015"><a xlink:href="modules_8h.html" target="_top" xlink:title="Common macros and compiler attributes/pragmas configuration.">
<polygon fill="white" stroke="#666666" points="493.88,-20.75 426.88,-20.75 426.88,0 493.88,0 493.88,-20.75"/>
<text text-anchor="middle" x="460.38" y="-7.25" font-family="Helvetica,sans-Serif" font-size="10.00">modules.h</text>
</a>
</g>
</g>
<!-- Node12&#45;&gt;Node15 -->
<g id="edge16_Node000012_Node000015" class="edge">
<title>Node12&#45;&gt;Node15</title>
<g id="a_edge16_Node000012_Node000015"><a xlink:title=" ">
<path fill="none" stroke="#63b8ff" d="M422.6,-56.34C428.81,-48.94 437.52,-38.57 445.01,-29.66"/>
<polygon fill="#63b8ff" stroke="#63b8ff" points="447.5,-32.15 451.25,-22.24 442.14,-27.64 447.5,-32.15"/>
</a>
</g>
</g>
</g>
</svg>
