<?xml version="1.0" encoding="UTF-8" standalone="no"?>
<!DOCTYPE svg PUBLIC "-//W3C//DTD SVG 1.1//EN"
 "http://www.w3.org/Graphics/SVG/1.1/DTD/svg11.dtd">
<!-- Generated by graphviz version 12.1.1 (0)
 -->
<!-- Title: sys/include/div.h Pages: 1 -->
<svg width="112pt" height="142pt"
 viewBox="0.00 0.00 112.00 142.25" xmlns="http://www.w3.org/2000/svg" xmlns:xlink="http://www.w3.org/1999/xlink">
<g id="graph0" class="graph" transform="scale(1 1) rotate(0) translate(4 138.25)">
<title>sys/include/div.h</title>
<!-- Node1 -->
<g id="Node000001" class="node">
<title>Node1</title>
<g id="a_Node000001"><a xlink:title=" ">
<polygon fill="#999999" stroke="#666666" points="104,-134.25 7,-134.25 7,-113.5 104,-113.5 104,-134.25"/>
<text text-anchor="middle" x="55.5" y="-120.75" font-family="Helvetica,sans-Serif" font-size="10.00">sys/include/div.h</text>
</a>
</g>
</g>
<!-- Node2 -->
<g id="Node000002" class="node">
<title>Node2</title>
<g id="a_Node000002"><a xlink:href="assert_8h.html" target="_top" xlink:title="POSIX.1&#45;2008 compliant version of the assert macro.">
<polygon fill="white" stroke="#666666" points="55,-77.5 0,-77.5 0,-56.75 55,-56.75 55,-77.5"/>
<text text-anchor="middle" x="27.5" y="-64" font-family="Helvetica,sans-Serif" font-size="10.00">assert.h</text>
</a>
</g>
</g>
<!-- Node1&#45;&gt;Node2 -->
<g id="edge1_Node000001_Node000002" class="edge">
<title>Node1&#45;&gt;Node2</title>
<g id="a_edge1_Node000001_Node000002"><a xlink:title=" ">
<path fill="none" stroke="#63b8ff" d="M50.49,-113.09C46.91,-106.08 41.96,-96.41 37.58,-87.83"/>
<polygon fill="#63b8ff" stroke="#63b8ff" points="40.82,-86.49 33.15,-79.18 34.59,-89.67 40.82,-86.49"/>
</a>
</g>
</g>
<!-- Node3 -->
<g id="Node000003" class="node">
<title>Node3</title>
<g id="a_Node000003"><a xlink:title=" ">
<polygon fill="#e0e0e0" stroke="#999999" points="81.88,-20.75 29.12,-20.75 29.12,0 81.88,0 81.88,-20.75"/>
<text text-anchor="middle" x="55.5" y="-7.25" font-family="Helvetica,sans-Serif" font-size="10.00">stdint.h</text>
</a>
</g>
</g>
<!-- Node1&#45;&gt;Node3 -->
<g id="edge3_Node000001_Node000003" class="edge">
<title>Node1&#45;&gt;Node3</title>
<g id="a_edge3_Node000001_Node000003"><a xlink:title=" ">
<path fill="none" stroke="#63b8ff" d="M57.99,-113.22C60.2,-104.09 63.28,-89.97 64.5,-77.5 65.4,-68.32 65.4,-65.93 64.5,-56.75 63.71,-48.66 62.13,-39.88 60.52,-32.22"/>
<polygon fill="#63b8ff" stroke="#63b8ff" points="63.95,-31.48 58.32,-22.51 57.12,-33.03 63.95,-31.48"/>
</a>
</g>
</g>
<!-- Node2&#45;&gt;Node3 -->
<g id="edge2_Node000002_Node000003" class="edge">
<title>Node2&#45;&gt;Node3</title>
<g id="a_edge2_Node000002_Node000003"><a xlink:title=" ">
<path fill="none" stroke="#63b8ff" d="M32.51,-56.34C36.09,-49.33 41.04,-39.66 45.42,-31.08"/>
<polygon fill="#63b8ff" stroke="#63b8ff" points="48.41,-32.92 49.85,-22.43 42.18,-29.74 48.41,-32.92"/>
</a>
</g>
</g>
</g>
</svg>
