<?xml version="1.0" encoding="UTF-8" standalone="no"?>
<!DOCTYPE svg PUBLIC "-//W3C//DTD SVG 1.1//EN"
 "http://www.w3.org/Graphics/SVG/1.1/DTD/svg11.dtd">
<!-- Generated by graphviz version 12.1.1 (0)
 -->
<!-- Title: sys/include/can/dll.h Pages: 1 -->
<svg width="1336pt" height="596pt"
 viewBox="0.00 0.00 1335.88 596.25" xmlns="http://www.w3.org/2000/svg" xmlns:xlink="http://www.w3.org/1999/xlink">
<g id="graph0" class="graph" transform="scale(1 1) rotate(0) translate(4 592.25)">
<title>sys/include/can/dll.h</title>
<!-- Node1 -->
<g id="Node000001" class="node">
<title>Node1</title>
<g id="a_Node000001"><a xlink:title="Definitions of low&#45;level CAN DLL interface.">
<polygon fill="#999999" stroke="#666666" points="373.38,-588.25 258.38,-588.25 258.38,-567.5 373.38,-567.5 373.38,-588.25"/>
<text text-anchor="middle" x="315.88" y="-574.75" font-family="Helvetica,sans-Serif" font-size="10.00">sys/include/can/dll.h</text>
</a>
</g>
</g>
<!-- Node2 -->
<g id="Node000002" class="node">
<title>Node2</title>
<g id="a_Node000002"><a xlink:href="sys_2include_2can_2common_8h.html" target="_top" xlink:title="Definitions of high&#45;level CAN interface.">
<polygon fill="white" stroke="#666666" points="323.88,-418 235.88,-418 235.88,-397.25 323.88,-397.25 323.88,-418"/>
<text text-anchor="middle" x="279.88" y="-404.5" font-family="Helvetica,sans-Serif" font-size="10.00">can/common.h</text>
</a>
</g>
</g>
<!-- Node1&#45;&gt;Node2 -->
<g id="edge1_Node000001_Node000002" class="edge">
<title>Node1&#45;&gt;Node2</title>
<g id="a_edge1_Node000001_Node000002"><a xlink:title=" ">
<path fill="none" stroke="#63b8ff" d="M313.84,-567.35C308.17,-540.87 292.14,-465.93 284.3,-429.3"/>
<polygon fill="#63b8ff" stroke="#63b8ff" points="287.81,-428.99 282.3,-419.95 280.97,-430.46 287.81,-428.99"/>
</a>
</g>
</g>
<!-- Node10 -->
<g id="Node000010" class="node">
<title>Node10</title>
<g id="a_Node000010"><a xlink:title=" ">
<polygon fill="#e0e0e0" stroke="#999999" points="382.12,-361.25 325.62,-361.25 325.62,-340.5 382.12,-340.5 382.12,-361.25"/>
<text text-anchor="middle" x="353.88" y="-347.75" font-family="Helvetica,sans-Serif" font-size="10.00">thread.h</text>
</a>
</g>
</g>
<!-- Node1&#45;&gt;Node10 -->
<g id="edge66_Node000001_Node000010" class="edge">
<title>Node1&#45;&gt;Node10</title>
<g id="a_edge66_Node000001_Node000010"><a xlink:title=" ">
<path fill="none" stroke="#63b8ff" d="M317.51,-567.21C323.22,-533.38 342.39,-419.86 350.36,-372.69"/>
<polygon fill="#63b8ff" stroke="#63b8ff" points="353.78,-373.44 352,-363 346.88,-372.28 353.78,-373.44"/>
</a>
</g>
</g>
<!-- Node11 -->
<g id="Node000011" class="node">
<title>Node11</title>
<g id="a_Node000011"><a xlink:href="can_2pkt_8h.html" target="_top" xlink:title="CAN memory allocation module.">
<polygon fill="white" stroke="#666666" points="217.38,-474.75 156.38,-474.75 156.38,-454 217.38,-454 217.38,-474.75"/>
<text text-anchor="middle" x="186.88" y="-461.25" font-family="Helvetica,sans-Serif" font-size="10.00">can/pkt.h</text>
</a>
</g>
</g>
<!-- Node1&#45;&gt;Node11 -->
<g id="edge11_Node000001_Node000011" class="edge">
<title>Node1&#45;&gt;Node11</title>
<g id="a_edge11_Node000001_Node000011"><a xlink:title=" ">
<path fill="none" stroke="#63b8ff" d="M304.88,-567.37C283.09,-548.54 234.18,-506.26 206.66,-482.47"/>
<polygon fill="#63b8ff" stroke="#63b8ff" points="209.21,-480.06 199.36,-476.16 204.64,-485.35 209.21,-480.06"/>
</a>
</g>
</g>
<!-- Node15 -->
<g id="Node000015" class="node">
<title>Node15</title>
<g id="a_Node000015"><a xlink:href="sys_2include_2can_2device_8h.html" target="_top" xlink:title="Definitions of CAN device interface.">
<polygon fill="white" stroke="#666666" points="458.62,-531.5 381.12,-531.5 381.12,-510.75 458.62,-510.75 458.62,-531.5"/>
<text text-anchor="middle" x="419.88" y="-518" font-family="Helvetica,sans-Serif" font-size="10.00">can/device.h</text>
</a>
</g>
</g>
<!-- Node1&#45;&gt;Node15 -->
<g id="edge17_Node000001_Node000015" class="edge">
<title>Node1&#45;&gt;Node15</title>
<g id="a_edge17_Node000001_Node000015"><a xlink:title=" ">
<path fill="none" stroke="#63b8ff" d="M334.47,-567.09C350.29,-558.76 373.27,-546.66 391.41,-537.11"/>
<polygon fill="#63b8ff" stroke="#63b8ff" points="392.89,-540.29 400.1,-532.53 389.62,-534.09 392.89,-540.29"/>
</a>
</g>
</g>
<!-- Node3 -->
<g id="Node000003" class="node">
<title>Node3</title>
<g id="a_Node000003"><a xlink:title=" ">
<polygon fill="#e0e0e0" stroke="#999999" points="659.25,-20.75 606.5,-20.75 606.5,0 659.25,0 659.25,-20.75"/>
<text text-anchor="middle" x="632.88" y="-7.25" font-family="Helvetica,sans-Serif" font-size="10.00">stdint.h</text>
</a>
</g>
</g>
<!-- Node2&#45;&gt;Node3 -->
<g id="edge2_Node000002_Node000003" class="edge">
<title>Node2&#45;&gt;Node3</title>
<g id="a_edge2_Node000002_Node000003"><a xlink:title=" ">
<path fill="none" stroke="#63b8ff" d="M261.9,-396.93C233.61,-380.2 181.88,-343.06 181.88,-295.12 181.88,-295.12 181.88,-295.12 181.88,-122.88 181.88,-38.14 485.71,-17.39 594.61,-12.67"/>
<polygon fill="#63b8ff" stroke="#63b8ff" points="594.65,-16.17 604.5,-12.27 594.37,-9.18 594.65,-16.17"/>
</a>
</g>
</g>
<!-- Node4 -->
<g id="Node000004" class="node">
<title>Node4</title>
<g id="a_Node000004"><a xlink:href="uio_8h.html" target="_top" xlink:title="libc header for scatter/gather I/O">
<polygon fill="white" stroke="#666666" points="307.62,-361.25 248.12,-361.25 248.12,-340.5 307.62,-340.5 307.62,-361.25"/>
<text text-anchor="middle" x="277.88" y="-347.75" font-family="Helvetica,sans-Serif" font-size="10.00">sys/uio.h</text>
</a>
</g>
</g>
<!-- Node2&#45;&gt;Node4 -->
<g id="edge3_Node000002_Node000004" class="edge">
<title>Node2&#45;&gt;Node4</title>
<g id="a_edge3_Node000002_Node000004"><a xlink:title=" ">
<path fill="none" stroke="#63b8ff" d="M279.52,-396.84C279.28,-390.22 278.95,-381.22 278.65,-373.02"/>
<polygon fill="#63b8ff" stroke="#63b8ff" points="282.15,-372.96 278.28,-363.09 275.15,-373.21 282.15,-372.96"/>
</a>
</g>
</g>
<!-- Node7 -->
<g id="Node000007" class="node">
<title>Node7</title>
<g id="a_Node000007"><a xlink:href="timex_8h.html" target="_top" xlink:title="Utility library for comparing and computing timestamps.">
<polygon fill="white" stroke="#666666" points="298.62,-247.75 245.12,-247.75 245.12,-227 298.62,-227 298.62,-247.75"/>
<text text-anchor="middle" x="271.88" y="-234.25" font-family="Helvetica,sans-Serif" font-size="10.00">timex.h</text>
</a>
</g>
</g>
<!-- Node2&#45;&gt;Node7 -->
<g id="edge6_Node000002_Node000007" class="edge">
<title>Node2&#45;&gt;Node7</title>
<g id="a_edge6_Node000002_Node000007"><a xlink:title=" ">
<path fill="none" stroke="#63b8ff" d="M267.15,-397.04C257.34,-388.79 244.52,-375.91 238.88,-361.25 226.5,-329.1 228.22,-316.51 238.88,-283.75 242.09,-273.87 248.35,-264.35 254.56,-256.6"/>
<polygon fill="#63b8ff" stroke="#63b8ff" points="257.01,-259.12 260.92,-249.27 251.73,-254.53 257.01,-259.12"/>
</a>
</g>
</g>
<!-- Node2&#45;&gt;Node10 -->
<g id="edge10_Node000002_Node000010" class="edge">
<title>Node2&#45;&gt;Node10</title>
<g id="a_edge10_Node000002_Node000010"><a xlink:title=" ">
<path fill="none" stroke="#63b8ff" d="M293.1,-396.84C303.84,-388.9 319.2,-377.53 331.79,-368.21"/>
<polygon fill="#63b8ff" stroke="#63b8ff" points="333.59,-371.24 339.54,-362.48 329.42,-365.61 333.59,-371.24"/>
</a>
</g>
</g>
<!-- Node5 -->
<g id="Node000005" class="node">
<title>Node5</title>
<g id="a_Node000005"><a xlink:title=" ">
<polygon fill="#e0e0e0" stroke="#999999" points="397.88,-304.5 345.88,-304.5 345.88,-283.75 397.88,-283.75 397.88,-304.5"/>
<text text-anchor="middle" x="371.88" y="-291" font-family="Helvetica,sans-Serif" font-size="10.00">stdlib.h</text>
</a>
</g>
</g>
<!-- Node4&#45;&gt;Node5 -->
<g id="edge4_Node000004_Node000005" class="edge">
<title>Node4&#45;&gt;Node5</title>
<g id="a_edge4_Node000004_Node000005"><a xlink:title=" ">
<path fill="none" stroke="#63b8ff" d="M294.68,-340.09C308.85,-331.83 329.37,-319.88 345.69,-310.38"/>
<polygon fill="#63b8ff" stroke="#63b8ff" points="347.03,-313.65 353.91,-305.59 343.5,-307.6 347.03,-313.65"/>
</a>
</g>
</g>
<!-- Node6 -->
<g id="Node000006" class="node">
<title>Node6</title>
<g id="a_Node000006"><a xlink:title=" ">
<polygon fill="#e0e0e0" stroke="#999999" points="319.62,-304.5 248.12,-304.5 248.12,-283.75 319.62,-283.75 319.62,-304.5"/>
<text text-anchor="middle" x="283.88" y="-291" font-family="Helvetica,sans-Serif" font-size="10.00">sys/types.h</text>
</a>
</g>
</g>
<!-- Node4&#45;&gt;Node6 -->
<g id="edge5_Node000004_Node000006" class="edge">
<title>Node4&#45;&gt;Node6</title>
<g id="a_edge5_Node000004_Node000006"><a xlink:title=" ">
<path fill="none" stroke="#63b8ff" d="M278.95,-340.09C279.67,-333.47 280.66,-324.47 281.56,-316.27"/>
<polygon fill="#63b8ff" stroke="#63b8ff" points="285.04,-316.65 282.65,-306.33 278.08,-315.89 285.04,-316.65"/>
</a>
</g>
</g>
<!-- Node7&#45;&gt;Node3 -->
<g id="edge7_Node000007_Node000003" class="edge">
<title>Node7&#45;&gt;Node3</title>
<g id="a_edge7_Node000007_Node000003"><a xlink:title=" ">
<path fill="none" stroke="#63b8ff" d="M277.27,-226.85C282.25,-217.81 289.64,-203.75 294.88,-191 318.67,-133.04 290.23,-97.43 337.88,-56.75 375.87,-24.31 524.02,-14.99 594.81,-12.37"/>
<polygon fill="#63b8ff" stroke="#63b8ff" points="594.89,-15.87 604.77,-12.03 594.65,-8.88 594.89,-15.87"/>
</a>
</g>
</g>
<!-- Node8 -->
<g id="Node000008" class="node">
<title>Node8</title>
<g id="a_Node000008"><a xlink:href="inttypes_8h.html" target="_top" xlink:title="Adds include for missing inttype definitions.">
<polygon fill="white" stroke="#666666" points="444.25,-191 379.5,-191 379.5,-170.25 444.25,-170.25 444.25,-191"/>
<text text-anchor="middle" x="411.88" y="-177.5" font-family="Helvetica,sans-Serif" font-size="10.00">inttypes.h</text>
</a>
</g>
</g>
<!-- Node7&#45;&gt;Node8 -->
<g id="edge8_Node000007_Node000008" class="edge">
<title>Node7&#45;&gt;Node8</title>
<g id="a_edge8_Node000007_Node000008"><a xlink:title=" ">
<path fill="none" stroke="#63b8ff" d="M296.9,-226.59C319.1,-217.91 351.76,-205.13 376.61,-195.42"/>
<polygon fill="#63b8ff" stroke="#63b8ff" points="377.61,-198.78 385.65,-191.88 375.06,-192.26 377.61,-198.78"/>
</a>
</g>
</g>
<!-- Node9 -->
<g id="Node000009" class="node">
<title>Node9</title>
<g id="a_Node000009"><a xlink:href="time__units_8h.html" target="_top" xlink:title="Utility header providing time unit defines.">
<polygon fill="white" stroke="#666666" points="286.25,-191 209.5,-191 209.5,-170.25 286.25,-170.25 286.25,-191"/>
<text text-anchor="middle" x="247.88" y="-177.5" font-family="Helvetica,sans-Serif" font-size="10.00">time_units.h</text>
</a>
</g>
</g>
<!-- Node7&#45;&gt;Node9 -->
<g id="edge9_Node000007_Node000009" class="edge">
<title>Node7&#45;&gt;Node9</title>
<g id="a_edge9_Node000007_Node000009"><a xlink:title=" ">
<path fill="none" stroke="#63b8ff" d="M267.58,-226.59C264.55,-219.66 260.37,-210.12 256.64,-201.61"/>
<polygon fill="#63b8ff" stroke="#63b8ff" points="259.96,-200.47 252.74,-192.71 253.55,-203.28 259.96,-200.47"/>
</a>
</g>
</g>
<!-- Node11&#45;&gt;Node2 -->
<g id="edge13_Node000011_Node000002" class="edge">
<title>Node11&#45;&gt;Node2</title>
<g id="a_edge13_Node000011_Node000002"><a xlink:title=" ">
<path fill="none" stroke="#63b8ff" d="M203.5,-453.59C217.39,-445.41 237.44,-433.61 253.51,-424.15"/>
<polygon fill="#63b8ff" stroke="#63b8ff" points="255.25,-427.19 262.09,-419.1 251.69,-421.15 255.25,-427.19"/>
</a>
</g>
</g>
<!-- Node12 -->
<g id="Node000012" class="node">
<title>Node12</title>
<g id="a_Node000012"><a xlink:title=" ">
<polygon fill="#e0e0e0" stroke="#999999" points="73.75,-418 0,-418 0,-397.25 73.75,-397.25 73.75,-418"/>
<text text-anchor="middle" x="36.88" y="-404.5" font-family="Helvetica,sans-Serif" font-size="10.00">stdatomic.h</text>
</a>
</g>
</g>
<!-- Node11&#45;&gt;Node12 -->
<g id="edge12_Node000011_Node000012" class="edge">
<title>Node11&#45;&gt;Node12</title>
<g id="a_edge12_Node000011_Node000012"><a xlink:title=" ">
<path fill="none" stroke="#63b8ff" d="M160.06,-453.59C136.14,-444.86 100.87,-431.98 74.2,-422.25"/>
<polygon fill="#63b8ff" stroke="#63b8ff" points="75.73,-419.08 65.13,-418.94 73.33,-425.66 75.73,-419.08"/>
</a>
</g>
</g>
<!-- Node13 -->
<g id="Node000013" class="node">
<title>Node13</title>
<g id="a_Node000013"><a xlink:href="sys_2include_2can_2can_8h.html" target="_top" xlink:title="Definitions high&#45;level CAN interface.">
<polygon fill="white" stroke="#666666" points="218.12,-418 155.62,-418 155.62,-397.25 218.12,-397.25 218.12,-418"/>
<text text-anchor="middle" x="186.88" y="-404.5" font-family="Helvetica,sans-Serif" font-size="10.00">can/can.h</text>
</a>
</g>
</g>
<!-- Node11&#45;&gt;Node13 -->
<g id="edge14_Node000011_Node000013" class="edge">
<title>Node11&#45;&gt;Node13</title>
<g id="a_edge14_Node000011_Node000013"><a xlink:title=" ">
<path fill="none" stroke="#63b8ff" d="M186.88,-453.59C186.88,-446.97 186.88,-437.97 186.88,-429.77"/>
<polygon fill="#63b8ff" stroke="#63b8ff" points="190.38,-429.84 186.88,-419.84 183.38,-429.84 190.38,-429.84"/>
</a>
</g>
</g>
<!-- Node14 -->
<g id="Node000014" class="node">
<title>Node14</title>
<g id="a_Node000014"><a xlink:title=" ">
<polygon fill="#e0e0e0" stroke="#999999" points="137.88,-418 91.88,-418 91.88,-397.25 137.88,-397.25 137.88,-418"/>
<text text-anchor="middle" x="114.88" y="-404.5" font-family="Helvetica,sans-Serif" font-size="10.00">msg.h</text>
</a>
</g>
</g>
<!-- Node11&#45;&gt;Node14 -->
<g id="edge16_Node000011_Node000014" class="edge">
<title>Node11&#45;&gt;Node14</title>
<g id="a_edge16_Node000011_Node000014"><a xlink:title=" ">
<path fill="none" stroke="#63b8ff" d="M174,-453.59C163.66,-445.72 148.91,-434.5 136.72,-425.24"/>
<polygon fill="#63b8ff" stroke="#63b8ff" points="138.92,-422.51 128.84,-419.24 134.68,-428.08 138.92,-422.51"/>
</a>
</g>
</g>
<!-- Node13&#45;&gt;Node3 -->
<g id="edge15_Node000013_Node000003" class="edge">
<title>Node13&#45;&gt;Node3</title>
<g id="a_edge15_Node000013_Node000003"><a xlink:title=" ">
<path fill="none" stroke="#63b8ff" d="M180.34,-396.97C168.32,-378.21 143.88,-335.17 143.88,-295.12 143.88,-295.12 143.88,-295.12 143.88,-122.88 143.88,-79.1 176.95,-74.69 216.88,-56.75 283.95,-26.61 505.09,-15.76 594.68,-12.54"/>
<polygon fill="#63b8ff" stroke="#63b8ff" points="594.79,-16.04 604.66,-12.2 594.55,-9.05 594.79,-16.04"/>
</a>
</g>
</g>
<!-- Node16 -->
<g id="Node000016" class="node">
<title>Node16</title>
<g id="a_Node000016"><a xlink:href="candev_8h.html" target="_top" xlink:title="Definitions for low&#45;level CAN driver interface.">
<polygon fill="white" stroke="#666666" points="459.75,-474.75 380,-474.75 380,-454 459.75,-454 459.75,-474.75"/>
<text text-anchor="middle" x="419.88" y="-461.25" font-family="Helvetica,sans-Serif" font-size="10.00">can/candev.h</text>
</a>
</g>
</g>
<!-- Node15&#45;&gt;Node16 -->
<g id="edge18_Node000015_Node000016" class="edge">
<title>Node15&#45;&gt;Node16</title>
<g id="a_edge18_Node000015_Node000016"><a xlink:title=" ">
<path fill="none" stroke="#63b8ff" d="M419.88,-510.34C419.88,-503.72 419.88,-494.72 419.88,-486.52"/>
<polygon fill="#63b8ff" stroke="#63b8ff" points="423.38,-486.59 419.88,-476.59 416.38,-486.59 423.38,-486.59"/>
</a>
</g>
</g>
<!-- Node34 -->
<g id="Node000034" class="node">
<title>Node34</title>
<g id="a_Node000034"><a xlink:href="sched_8h.html" target="_top" xlink:title="Scheduler API definition.">
<polygon fill="white" stroke="#666666" points="1036.62,-247.75 983.12,-247.75 983.12,-227 1036.62,-227 1036.62,-247.75"/>
<text text-anchor="middle" x="1009.88" y="-234.25" font-family="Helvetica,sans-Serif" font-size="10.00">sched.h</text>
</a>
</g>
</g>
<!-- Node15&#45;&gt;Node34 -->
<g id="edge65_Node000015_Node000034" class="edge">
<title>Node15&#45;&gt;Node34</title>
<g id="a_edge65_Node000015_Node000034"><a xlink:title=" ">
<path fill="none" stroke="#63b8ff" d="M458.99,-515.2C598.74,-496.66 1069,-425.89 1143.88,-304.5 1167.84,-265.64 1095.53,-248.96 1047.99,-242.33"/>
<polygon fill="#63b8ff" stroke="#63b8ff" points="1048.66,-238.89 1038.3,-241.08 1047.77,-245.83 1048.66,-238.89"/>
</a>
</g>
</g>
<!-- Node16&#45;&gt;Node2 -->
<g id="edge22_Node000016_Node000002" class="edge">
<title>Node16&#45;&gt;Node2</title>
<g id="a_edge22_Node000016_Node000002"><a xlink:title=" ">
<path fill="none" stroke="#63b8ff" d="M394.85,-453.59C372.65,-444.91 339.99,-432.13 315.14,-422.42"/>
<polygon fill="#63b8ff" stroke="#63b8ff" points="316.69,-419.26 306.1,-418.88 314.14,-425.78 316.69,-419.26"/>
</a>
</g>
</g>
<!-- Node16&#45;&gt;Node3 -->
<g id="edge19_Node000016_Node000003" class="edge">
<title>Node16&#45;&gt;Node3</title>
<g id="a_edge19_Node000016_Node000003"><a xlink:title=" ">
<path fill="none" stroke="#63b8ff" d="M421.03,-453.51C422.39,-440.58 424.27,-417.2 422.88,-397.25 419.31,-346.43 419.73,-333.04 406.88,-283.75 393.52,-232.54 345.25,-216.56 370.88,-170.25 418.66,-83.89 534.8,-39.25 595.12,-21.23"/>
<polygon fill="#63b8ff" stroke="#63b8ff" points="595.96,-24.63 604.6,-18.49 594.02,-17.9 595.96,-24.63"/>
</a>
</g>
</g>
<!-- Node16&#45;&gt;Node5 -->
<g id="edge20_Node000016_Node000005" class="edge">
<title>Node16&#45;&gt;Node5</title>
<g id="a_edge20_Node000016_Node000005"><a xlink:title=" ">
<path fill="none" stroke="#63b8ff" d="M418.15,-453.67C414.3,-432.71 404.29,-381.77 390.88,-340.5 388.11,-331.99 384.42,-322.84 381.03,-315"/>
<polygon fill="#63b8ff" stroke="#63b8ff" points="384.32,-313.77 377.04,-306.07 377.93,-316.63 384.32,-313.77"/>
</a>
</g>
</g>
<!-- Node16&#45;&gt;Node13 -->
<g id="edge21_Node000016_Node000013" class="edge">
<title>Node16&#45;&gt;Node13</title>
<g id="a_edge21_Node000016_Node000013"><a xlink:title=" ">
<path fill="none" stroke="#63b8ff" d="M379.56,-453.9C337.68,-444.06 272.41,-428.72 229.65,-418.68"/>
<polygon fill="#63b8ff" stroke="#63b8ff" points="230.5,-415.28 219.96,-416.4 228.9,-422.09 230.5,-415.28"/>
</a>
</g>
</g>
<!-- Node17 -->
<g id="Node000017" class="node">
<title>Node17</title>
<g id="a_Node000017"><a xlink:href="mutex_8h.html" target="_top" xlink:title="Mutex for thread synchronization.">
<polygon fill="white" stroke="#666666" points="909.12,-418 852.62,-418 852.62,-397.25 909.12,-397.25 909.12,-418"/>
<text text-anchor="middle" x="880.88" y="-404.5" font-family="Helvetica,sans-Serif" font-size="10.00">mutex.h</text>
</a>
</g>
</g>
<!-- Node16&#45;&gt;Node17 -->
<g id="edge23_Node000016_Node000017" class="edge">
<title>Node16&#45;&gt;Node17</title>
<g id="a_edge23_Node000016_Node000017"><a xlink:title=" ">
<path fill="none" stroke="#63b8ff" d="M459.98,-458.61C547.31,-448.24 753.83,-423.71 840.98,-413.36"/>
<polygon fill="#63b8ff" stroke="#63b8ff" points="841.2,-416.86 850.71,-412.21 840.37,-409.91 841.2,-416.86"/>
</a>
</g>
</g>
<!-- Node17&#45;&gt;Node3 -->
<g id="edge25_Node000017_Node000003" class="edge">
<title>Node17&#45;&gt;Node3</title>
<g id="a_edge25_Node000017_Node000003"><a xlink:title=" ">
<path fill="none" stroke="#63b8ff" d="M852.31,-401.75C803.17,-391.55 707.88,-363.02 707.88,-295.12 707.88,-295.12 707.88,-295.12 707.88,-236.38 707.88,-161.51 676.11,-148.34 651.88,-77.5 646.72,-62.43 641.78,-45.11 638.23,-31.98"/>
<polygon fill="#63b8ff" stroke="#63b8ff" points="641.62,-31.12 635.68,-22.35 634.85,-32.91 641.62,-31.12"/>
</a>
</g>
</g>
<!-- Node18 -->
<g id="Node000018" class="node">
<title>Node18</title>
<g id="a_Node000018"><a xlink:title=" ">
<polygon fill="#e0e0e0" stroke="#999999" points="1157.38,-77.5 1102.38,-77.5 1102.38,-56.75 1157.38,-56.75 1157.38,-77.5"/>
<text text-anchor="middle" x="1129.88" y="-64" font-family="Helvetica,sans-Serif" font-size="10.00">stddef.h</text>
</a>
</g>
</g>
<!-- Node17&#45;&gt;Node18 -->
<g id="edge24_Node000017_Node000018" class="edge">
<title>Node17&#45;&gt;Node18</title>
<g id="a_edge24_Node000017_Node000018"><a xlink:title=" ">
<path fill="none" stroke="#63b8ff" d="M909.38,-404.55C977.2,-399.28 1146.32,-384.2 1197.88,-361.25 1270.51,-328.92 1327.88,-317.88 1327.88,-238.38 1327.88,-238.38 1327.88,-238.38 1327.88,-179.62 1327.88,-107.47 1226.81,-81.5 1169.09,-72.56"/>
<polygon fill="#63b8ff" stroke="#63b8ff" points="1169.72,-69.11 1159.32,-71.16 1168.72,-76.04 1169.72,-69.11"/>
</a>
</g>
</g>
<!-- Node19 -->
<g id="Node000019" class="node">
<title>Node19</title>
<g id="a_Node000019"><a xlink:title=" ">
<polygon fill="#e0e0e0" stroke="#999999" points="1213.38,-134.25 1152.38,-134.25 1152.38,-113.5 1213.38,-113.5 1213.38,-134.25"/>
<text text-anchor="middle" x="1182.88" y="-120.75" font-family="Helvetica,sans-Serif" font-size="10.00">stdbool.h</text>
</a>
</g>
</g>
<!-- Node17&#45;&gt;Node19 -->
<g id="edge26_Node000017_Node000019" class="edge">
<title>Node17&#45;&gt;Node19</title>
<g id="a_edge26_Node000017_Node000019"><a xlink:title=" ">
<path fill="none" stroke="#63b8ff" d="M909.55,-403.28C990.33,-393.08 1213.88,-359.06 1213.88,-295.12 1213.88,-295.12 1213.88,-295.12 1213.88,-236.38 1213.88,-203.33 1201.08,-166.73 1191.93,-144.78"/>
<polygon fill="#63b8ff" stroke="#63b8ff" points="1195.25,-143.63 1188.05,-135.86 1188.83,-146.42 1195.25,-143.63"/>
</a>
</g>
</g>
<!-- Node20 -->
<g id="Node000020" class="node">
<title>Node20</title>
<g id="a_Node000020"><a xlink:href="architecture_8h.html" target="_top" xlink:title="Platform&#45;independent access to architecture details.">
<polygon fill="white" stroke="#666666" points="596.62,-247.75 513.12,-247.75 513.12,-227 596.62,-227 596.62,-247.75"/>
<text text-anchor="middle" x="554.88" y="-234.25" font-family="Helvetica,sans-Serif" font-size="10.00">architecture.h</text>
</a>
</g>
</g>
<!-- Node17&#45;&gt;Node20 -->
<g id="edge27_Node000017_Node000020" class="edge">
<title>Node17&#45;&gt;Node20</title>
<g id="a_edge27_Node000017_Node000020"><a xlink:title=" ">
<path fill="none" stroke="#63b8ff" d="M852.13,-404C814.06,-399.57 745.7,-388.3 693.88,-361.25 642.02,-334.19 593.79,-283.69 570.14,-256.63"/>
<polygon fill="#63b8ff" stroke="#63b8ff" points="572.98,-254.57 563.81,-249.25 567.67,-259.12 572.98,-254.57"/>
</a>
</g>
</g>
<!-- Node23 -->
<g id="Node000023" class="node">
<title>Node23</title>
<g id="a_Node000023"><a xlink:href="kernel__defines_8h.html" target="_top" xlink:title="Common macros and compiler attributes/pragmas configuration.">
<polygon fill="white" stroke="#666666" points="885,-191 788.75,-191 788.75,-170.25 885,-170.25 885,-191"/>
<text text-anchor="middle" x="836.88" y="-177.5" font-family="Helvetica,sans-Serif" font-size="10.00">kernel_defines.h</text>
</a>
</g>
</g>
<!-- Node17&#45;&gt;Node23 -->
<g id="edge32_Node000017_Node000023" class="edge">
<title>Node17&#45;&gt;Node23</title>
<g id="a_edge32_Node000017_Node000023"><a xlink:title=" ">
<path fill="none" stroke="#63b8ff" d="M874.44,-397.03C863.14,-379.54 840.16,-340.93 831.88,-304.5 823.89,-269.4 828.59,-227.23 832.73,-202.53"/>
<polygon fill="#63b8ff" stroke="#63b8ff" points="836.15,-203.3 834.51,-192.83 829.27,-202.04 836.15,-203.3"/>
</a>
</g>
</g>
<!-- Node29 -->
<g id="Node000029" class="node">
<title>Node29</title>
<g id="a_Node000029"><a xlink:href="list_8h.html" target="_top" xlink:title="Intrusive linked list.">
<polygon fill="white" stroke="#666666" points="1271.88,-134.25 1231.88,-134.25 1231.88,-113.5 1271.88,-113.5 1271.88,-134.25"/>
<text text-anchor="middle" x="1251.88" y="-120.75" font-family="Helvetica,sans-Serif" font-size="10.00">list.h</text>
</a>
</g>
</g>
<!-- Node17&#45;&gt;Node29 -->
<g id="edge43_Node000017_Node000029" class="edge">
<title>Node17&#45;&gt;Node29</title>
<g id="a_edge43_Node000017_Node000029"><a xlink:title=" ">
<path fill="none" stroke="#63b8ff" d="M909.37,-404.25C996.24,-396.24 1251.88,-366.58 1251.88,-295.12 1251.88,-295.12 1251.88,-295.12 1251.88,-236.38 1251.88,-204.98 1251.88,-168.62 1251.88,-146.18"/>
<polygon fill="#63b8ff" stroke="#63b8ff" points="1255.38,-146.23 1251.88,-136.23 1248.38,-146.23 1255.38,-146.23"/>
</a>
</g>
</g>
<!-- Node30 -->
<g id="Node000030" class="node">
<title>Node30</title>
<g id="a_Node000030"><a xlink:href="core_2include_2thread_8h.html" target="_top" xlink:title="Threading API.">
<polygon fill="white" stroke="#666666" points="1015.12,-361.25 958.62,-361.25 958.62,-340.5 1015.12,-340.5 1015.12,-361.25"/>
<text text-anchor="middle" x="986.88" y="-347.75" font-family="Helvetica,sans-Serif" font-size="10.00">thread.h</text>
</a>
</g>
</g>
<!-- Node17&#45;&gt;Node30 -->
<g id="edge44_Node000017_Node000030" class="edge">
<title>Node17&#45;&gt;Node30</title>
<g id="a_edge44_Node000017_Node000030"><a xlink:title=" ">
<path fill="none" stroke="#63b8ff" d="M899.83,-396.84C915.95,-388.51 939.38,-376.41 957.87,-366.86"/>
<polygon fill="#63b8ff" stroke="#63b8ff" points="959.46,-369.97 966.74,-362.27 956.25,-363.75 959.46,-369.97"/>
</a>
</g>
</g>
<!-- Node20&#45;&gt;Node3 -->
<g id="edge28_Node000020_Node000003" class="edge">
<title>Node20&#45;&gt;Node3</title>
<g id="a_edge28_Node000020_Node000003"><a xlink:title=" ">
<path fill="none" stroke="#63b8ff" d="M531.48,-226.66C516.91,-219.23 499.38,-207.46 490.88,-191 486.64,-182.81 487.59,-178.87 490.88,-170.25 514.89,-107.34 576.55,-53.57 610.18,-27.74"/>
<polygon fill="#63b8ff" stroke="#63b8ff" points="612.14,-30.64 618.04,-21.84 607.94,-25.05 612.14,-30.64"/>
</a>
</g>
</g>
<!-- Node20&#45;&gt;Node8 -->
<g id="edge29_Node000020_Node000008" class="edge">
<title>Node20&#45;&gt;Node8</title>
<g id="a_edge29_Node000020_Node000008"><a xlink:title=" ">
<path fill="none" stroke="#63b8ff" d="M529.31,-226.59C506.64,-217.91 473.28,-205.13 447.9,-195.42"/>
<polygon fill="#63b8ff" stroke="#63b8ff" points="449.22,-192.18 438.63,-191.87 446.72,-198.71 449.22,-192.18"/>
</a>
</g>
</g>
<!-- Node21 -->
<g id="Node000021" class="node">
<title>Node21</title>
<g id="a_Node000021"><a xlink:title=" ">
<polygon fill="#e0e0e0" stroke="#999999" points="680.25,-191 627.5,-191 627.5,-170.25 680.25,-170.25 680.25,-191"/>
<text text-anchor="middle" x="653.88" y="-177.5" font-family="Helvetica,sans-Serif" font-size="10.00">limits.h</text>
</a>
</g>
</g>
<!-- Node20&#45;&gt;Node21 -->
<g id="edge30_Node000020_Node000021" class="edge">
<title>Node20&#45;&gt;Node21</title>
<g id="a_edge30_Node000020_Node000021"><a xlink:title=" ">
<path fill="none" stroke="#63b8ff" d="M572.57,-226.59C587.5,-218.33 609.11,-206.38 626.3,-196.88"/>
<polygon fill="#63b8ff" stroke="#63b8ff" points="627.95,-199.96 635,-192.06 624.56,-193.84 627.95,-199.96"/>
</a>
</g>
</g>
<!-- Node22 -->
<g id="Node000022" class="node">
<title>Node22</title>
<g id="a_Node000022"><a xlink:title=" ">
<polygon fill="#e0e0e0" stroke="#999999" points="609.75,-191 500,-191 500,-170.25 609.75,-170.25 609.75,-191"/>
<text text-anchor="middle" x="554.88" y="-177.5" font-family="Helvetica,sans-Serif" font-size="10.00">architecture_arch.h</text>
</a>
</g>
</g>
<!-- Node20&#45;&gt;Node22 -->
<g id="edge31_Node000020_Node000022" class="edge">
<title>Node20&#45;&gt;Node22</title>
<g id="a_edge31_Node000020_Node000022"><a xlink:title=" ">
<path fill="none" stroke="#63b8ff" d="M554.88,-226.59C554.88,-219.97 554.88,-210.97 554.88,-202.77"/>
<polygon fill="#63b8ff" stroke="#63b8ff" points="558.38,-202.84 554.88,-192.84 551.38,-202.84 558.38,-202.84"/>
</a>
</g>
</g>
<!-- Node24 -->
<g id="Node000024" class="node">
<title>Node24</title>
<g id="a_Node000024"><a xlink:href="modules_8h.html" target="_top" xlink:title="Common macros and compiler attributes/pragmas configuration.">
<polygon fill="white" stroke="#666666" points="804.38,-134.25 737.38,-134.25 737.38,-113.5 804.38,-113.5 804.38,-134.25"/>
<text text-anchor="middle" x="770.88" y="-120.75" font-family="Helvetica,sans-Serif" font-size="10.00">modules.h</text>
</a>
</g>
</g>
<!-- Node23&#45;&gt;Node24 -->
<g id="edge33_Node000023_Node000024" class="edge">
<title>Node23&#45;&gt;Node24</title>
<g id="a_edge33_Node000023_Node000024"><a xlink:title=" ">
<path fill="none" stroke="#63b8ff" d="M825.08,-169.84C815.69,-162.05 802.34,-150.97 791.23,-141.76"/>
<polygon fill="#63b8ff" stroke="#63b8ff" points="793.67,-139.24 783.74,-135.54 789.2,-144.62 793.67,-139.24"/>
</a>
</g>
</g>
<!-- Node25 -->
<g id="Node000025" class="node">
<title>Node25</title>
<g id="a_Node000025"><a xlink:href="riot__version_8h.html" target="_top" xlink:title="Common macros and compiler attributes/pragmas configuration.">
<polygon fill="white" stroke="#666666" points="743.25,-77.5 660.5,-77.5 660.5,-56.75 743.25,-56.75 743.25,-77.5"/>
<text text-anchor="middle" x="701.88" y="-64" font-family="Helvetica,sans-Serif" font-size="10.00">riot_version.h</text>
</a>
</g>
</g>
<!-- Node23&#45;&gt;Node25 -->
<g id="edge34_Node000023_Node000025" class="edge">
<title>Node23&#45;&gt;Node25</title>
<g id="a_edge34_Node000023_Node000025"><a xlink:title=" ">
<path fill="none" stroke="#63b8ff" d="M793.16,-169.75C771.47,-162.92 746.26,-151.81 728.88,-134.25 716.61,-121.86 709.67,-103.13 705.91,-88.76"/>
<polygon fill="#63b8ff" stroke="#63b8ff" points="709.42,-88.4 703.78,-79.43 702.59,-89.96 709.42,-88.4"/>
</a>
</g>
</g>
<!-- Node26 -->
<g id="Node000026" class="node">
<title>Node26</title>
<g id="a_Node000026"><a xlink:href="compiler__hints_8h.html" target="_top" xlink:title="Common macros and compiler attributes/pragmas configuration.">
<polygon fill="white" stroke="#666666" points="919.38,-134.25 822.38,-134.25 822.38,-113.5 919.38,-113.5 919.38,-134.25"/>
<text text-anchor="middle" x="870.88" y="-120.75" font-family="Helvetica,sans-Serif" font-size="10.00">compiler_hints.h</text>
</a>
</g>
</g>
<!-- Node23&#45;&gt;Node26 -->
<g id="edge36_Node000023_Node000026" class="edge">
<title>Node23&#45;&gt;Node26</title>
<g id="a_edge36_Node000023_Node000026"><a xlink:title=" ">
<path fill="none" stroke="#63b8ff" d="M842.95,-169.84C847.35,-162.75 853.45,-152.94 858.82,-144.29"/>
<polygon fill="#63b8ff" stroke="#63b8ff" points="861.75,-146.21 864.05,-135.86 855.8,-142.51 861.75,-146.21"/>
</a>
</g>
</g>
<!-- Node28 -->
<g id="Node000028" class="node">
<title>Node28</title>
<g id="a_Node000028"><a xlink:href="container_8h.html" target="_top" xlink:title="Common macros and compiler attributes/pragmas configuration.">
<polygon fill="white" stroke="#666666" points="1008.25,-134.25 937.5,-134.25 937.5,-113.5 1008.25,-113.5 1008.25,-134.25"/>
<text text-anchor="middle" x="972.88" y="-120.75" font-family="Helvetica,sans-Serif" font-size="10.00">container.h</text>
</a>
</g>
</g>
<!-- Node23&#45;&gt;Node28 -->
<g id="edge40_Node000023_Node000028" class="edge">
<title>Node23&#45;&gt;Node28</title>
<g id="a_edge40_Node000023_Node000028"><a xlink:title=" ">
<path fill="none" stroke="#63b8ff" d="M861.19,-169.84C882.66,-161.19 914.2,-148.5 938.29,-138.8"/>
<polygon fill="#63b8ff" stroke="#63b8ff" points="939.4,-142.13 947.37,-135.14 936.78,-135.63 939.4,-142.13"/>
</a>
</g>
</g>
<!-- Node25&#45;&gt;Node3 -->
<g id="edge35_Node000025_Node000003" class="edge">
<title>Node25&#45;&gt;Node3</title>
<g id="a_edge35_Node000025_Node000003"><a xlink:title=" ">
<path fill="none" stroke="#63b8ff" d="M689.54,-56.34C679.63,-48.47 665.49,-37.25 653.81,-27.99"/>
<polygon fill="#63b8ff" stroke="#63b8ff" points="656.3,-25.49 646.29,-22.02 651.95,-30.98 656.3,-25.49"/>
</a>
</g>
</g>
<!-- Node26&#45;&gt;Node3 -->
<g id="edge39_Node000026_Node000003" class="edge">
<title>Node26&#45;&gt;Node3</title>
<g id="a_edge39_Node000026_Node000003"><a xlink:title=" ">
<path fill="none" stroke="#63b8ff" d="M866.99,-113.08C860.66,-98.45 846.7,-71.06 825.88,-56.75 779.04,-24.57 712.35,-15.02 670.89,-12.3"/>
<polygon fill="#63b8ff" stroke="#63b8ff" points="671.33,-8.82 661.15,-11.77 670.95,-15.81 671.33,-8.82"/>
</a>
</g>
</g>
<!-- Node27 -->
<g id="Node000027" class="node">
<title>Node27</title>
<g id="a_Node000027"><a xlink:href="assert_8h.html" target="_top" xlink:title="POSIX.1&#45;2008 compliant version of the assert macro.">
<polygon fill="white" stroke="#666666" points="816.38,-77.5 761.38,-77.5 761.38,-56.75 816.38,-56.75 816.38,-77.5"/>
<text text-anchor="middle" x="788.88" y="-64" font-family="Helvetica,sans-Serif" font-size="10.00">assert.h</text>
</a>
</g>
</g>
<!-- Node26&#45;&gt;Node27 -->
<g id="edge37_Node000026_Node000027" class="edge">
<title>Node26&#45;&gt;Node27</title>
<g id="a_edge37_Node000026_Node000027"><a xlink:title=" ">
<path fill="none" stroke="#63b8ff" d="M856.22,-113.09C844.2,-105.07 826.96,-93.56 812.94,-84.19"/>
<polygon fill="#63b8ff" stroke="#63b8ff" points="814.93,-81.31 804.67,-78.67 811.04,-87.13 814.93,-81.31"/>
</a>
</g>
</g>
<!-- Node27&#45;&gt;Node3 -->
<g id="edge38_Node000027_Node000003" class="edge">
<title>Node27&#45;&gt;Node3</title>
<g id="a_edge38_Node000027_Node000003"><a xlink:title=" ">
<path fill="none" stroke="#63b8ff" d="M760.99,-56.34C735.69,-47.46 698.19,-34.3 670.29,-24.51"/>
<polygon fill="#63b8ff" stroke="#63b8ff" points="671.76,-21.31 661.17,-21.31 669.45,-27.92 671.76,-21.31"/>
</a>
</g>
</g>
<!-- Node28&#45;&gt;Node3 -->
<g id="edge42_Node000028_Node000003" class="edge">
<title>Node28&#45;&gt;Node3</title>
<g id="a_edge42_Node000028_Node000003"><a xlink:title=" ">
<path fill="none" stroke="#63b8ff" d="M958,-113.05C935.52,-98.61 891.1,-71.78 849.88,-56.75 789.26,-34.64 714.98,-22.03 670.93,-15.96"/>
<polygon fill="#63b8ff" stroke="#63b8ff" points="671.48,-12.5 661.11,-14.65 670.56,-19.44 671.48,-12.5"/>
</a>
</g>
</g>
<!-- Node28&#45;&gt;Node18 -->
<g id="edge41_Node000028_Node000018" class="edge">
<title>Node28&#45;&gt;Node18</title>
<g id="a_edge41_Node000028_Node000018"><a xlink:title=" ">
<path fill="none" stroke="#63b8ff" d="M1000.94,-113.09C1026.17,-104.29 1063.45,-91.29 1091.44,-81.53"/>
<polygon fill="#63b8ff" stroke="#63b8ff" points="1092.33,-84.92 1100.62,-78.33 1090.03,-78.31 1092.33,-84.92"/>
</a>
</g>
</g>
<!-- Node31 -->
<g id="Node000031" class="node">
<title>Node31</title>
<g id="a_Node000031"><a xlink:href="clist_8h.html" target="_top" xlink:title="Circular linked list.">
<polygon fill="white" stroke="#666666" points="1185.5,-191 1140.25,-191 1140.25,-170.25 1185.5,-170.25 1185.5,-191"/>
<text text-anchor="middle" x="1162.88" y="-177.5" font-family="Helvetica,sans-Serif" font-size="10.00">clist.h</text>
</a>
</g>
</g>
<!-- Node30&#45;&gt;Node31 -->
<g id="edge45_Node000030_Node000031" class="edge">
<title>Node30&#45;&gt;Node31</title>
<g id="a_edge45_Node000030_Node000031"><a xlink:title=" ">
<path fill="none" stroke="#63b8ff" d="M1015.46,-350.28C1051.15,-349.12 1111.46,-341.36 1143.88,-304.5 1168.74,-276.24 1168.54,-229.46 1165.89,-202.51"/>
<polygon fill="#63b8ff" stroke="#63b8ff" points="1169.4,-202.36 1164.72,-192.85 1162.45,-203.2 1169.4,-202.36"/>
</a>
</g>
</g>
<!-- Node32 -->
<g id="Node000032" class="node">
<title>Node32</title>
<g id="a_Node000032"><a xlink:href="cib_8h.html" target="_top" xlink:title="Circular integer buffer interface.">
<polygon fill="white" stroke="#666666" points="775.5,-247.75 736.25,-247.75 736.25,-227 775.5,-227 775.5,-247.75"/>
<text text-anchor="middle" x="755.88" y="-234.25" font-family="Helvetica,sans-Serif" font-size="10.00">cib.h</text>
</a>
</g>
</g>
<!-- Node30&#45;&gt;Node32 -->
<g id="edge49_Node000030_Node000032" class="edge">
<title>Node30&#45;&gt;Node32</title>
<g id="a_edge49_Node000030_Node000032"><a xlink:title=" ">
<path fill="none" stroke="#63b8ff" d="M958.31,-345.33C926.08,-339.36 872.84,-326.9 831.88,-304.5 808.75,-291.85 786.51,-271.18 772.13,-256.31"/>
<polygon fill="#63b8ff" stroke="#63b8ff" points="774.69,-253.92 765.29,-249.03 769.59,-258.72 774.69,-253.92"/>
</a>
</g>
</g>
<!-- Node33 -->
<g id="Node000033" class="node">
<title>Node33</title>
<g id="a_Node000033"><a xlink:href="core_2include_2msg_8h.html" target="_top" xlink:title="Messaging API for inter process communication.">
<polygon fill="white" stroke="#666666" points="1134.88,-304.5 1088.88,-304.5 1088.88,-283.75 1134.88,-283.75 1134.88,-304.5"/>
<text text-anchor="middle" x="1111.88" y="-291" font-family="Helvetica,sans-Serif" font-size="10.00">msg.h</text>
</a>
</g>
</g>
<!-- Node30&#45;&gt;Node33 -->
<g id="edge51_Node000030_Node000033" class="edge">
<title>Node30&#45;&gt;Node33</title>
<g id="a_edge51_Node000030_Node000033"><a xlink:title=" ">
<path fill="none" stroke="#63b8ff" d="M1009.22,-340.09C1028.69,-331.56 1057.16,-319.09 1079.18,-309.44"/>
<polygon fill="#63b8ff" stroke="#63b8ff" points="1080.58,-312.65 1088.33,-305.44 1077.77,-306.24 1080.58,-312.65"/>
</a>
</g>
</g>
<!-- Node30&#45;&gt;Node34 -->
<g id="edge60_Node000030_Node000034" class="edge">
<title>Node30&#45;&gt;Node34</title>
<g id="a_edge60_Node000030_Node000034"><a xlink:title=" ">
<path fill="none" stroke="#63b8ff" d="M1005.97,-340.02C1018.73,-332.28 1034.49,-320.18 1041.88,-304.5 1049.56,-288.19 1039,-269.73 1028,-256.46"/>
<polygon fill="#63b8ff" stroke="#63b8ff" points="1030.85,-254.4 1021.55,-249.33 1025.66,-259.09 1030.85,-254.4"/>
</a>
</g>
</g>
<!-- Node36 -->
<g id="Node000036" class="node">
<title>Node36</title>
<g id="a_Node000036"><a xlink:href="thread__config_8h.html" target="_top" xlink:title="Thread configuration defines.">
<polygon fill="white" stroke="#666666" points="1032.75,-304.5 941,-304.5 941,-283.75 1032.75,-283.75 1032.75,-304.5"/>
<text text-anchor="middle" x="986.88" y="-291" font-family="Helvetica,sans-Serif" font-size="10.00">thread_config.h</text>
</a>
</g>
</g>
<!-- Node30&#45;&gt;Node36 -->
<g id="edge61_Node000030_Node000036" class="edge">
<title>Node30&#45;&gt;Node36</title>
<g id="a_edge61_Node000030_Node000036"><a xlink:title=" ">
<path fill="none" stroke="#63b8ff" d="M986.88,-340.09C986.88,-333.47 986.88,-324.47 986.88,-316.27"/>
<polygon fill="#63b8ff" stroke="#63b8ff" points="990.38,-316.34 986.88,-306.34 983.38,-316.34 990.38,-316.34"/>
</a>
</g>
</g>
<!-- Node38 -->
<g id="Node000038" class="node">
<title>Node38</title>
<g id="a_Node000038"><a xlink:title=" ">
<polygon fill="#e0e0e0" stroke="#999999" points="923.25,-304.5 840.5,-304.5 840.5,-283.75 923.25,-283.75 923.25,-304.5"/>
<text text-anchor="middle" x="881.88" y="-291" font-family="Helvetica,sans-Serif" font-size="10.00">thread_arch.h</text>
</a>
</g>
</g>
<!-- Node30&#45;&gt;Node38 -->
<g id="edge64_Node000030_Node000038" class="edge">
<title>Node30&#45;&gt;Node38</title>
<g id="a_edge64_Node000030_Node000038"><a xlink:title=" ">
<path fill="none" stroke="#63b8ff" d="M968.1,-340.09C952.13,-331.76 928.92,-319.66 910.61,-310.11"/>
<polygon fill="#63b8ff" stroke="#63b8ff" points="912.31,-307.05 901.83,-305.53 909.08,-313.26 912.31,-307.05"/>
</a>
</g>
</g>
<!-- Node31&#45;&gt;Node18 -->
<g id="edge47_Node000031_Node000018" class="edge">
<title>Node31&#45;&gt;Node18</title>
<g id="a_edge47_Node000031_Node000018"><a xlink:title=" ">
<path fill="none" stroke="#63b8ff" d="M1158.26,-170.08C1154.03,-161.04 1147.85,-146.97 1143.88,-134.25 1139.21,-119.31 1135.61,-101.99 1133.22,-88.82"/>
<polygon fill="#63b8ff" stroke="#63b8ff" points="1136.71,-88.44 1131.57,-79.18 1129.81,-89.62 1136.71,-88.44"/>
</a>
</g>
</g>
<!-- Node31&#45;&gt;Node19 -->
<g id="edge46_Node000031_Node000019" class="edge">
<title>Node31&#45;&gt;Node19</title>
<g id="a_edge46_Node000031_Node000019"><a xlink:title=" ">
<path fill="none" stroke="#63b8ff" d="M1166.45,-169.84C1168.95,-162.99 1172.39,-153.59 1175.47,-145.15"/>
<polygon fill="#63b8ff" stroke="#63b8ff" points="1178.67,-146.59 1178.81,-136 1172.09,-144.19 1178.67,-146.59"/>
</a>
</g>
</g>
<!-- Node31&#45;&gt;Node29 -->
<g id="edge48_Node000031_Node000029" class="edge">
<title>Node31&#45;&gt;Node29</title>
<g id="a_edge48_Node000031_Node000029"><a xlink:title=" ">
<path fill="none" stroke="#63b8ff" d="M1178.79,-169.84C1192.08,-161.66 1211.26,-149.86 1226.64,-140.4"/>
<polygon fill="#63b8ff" stroke="#63b8ff" points="1228.13,-143.59 1234.81,-135.37 1224.46,-137.63 1228.13,-143.59"/>
</a>
</g>
</g>
<!-- Node32&#45;&gt;Node27 -->
<g id="edge50_Node000032_Node000027" class="edge">
<title>Node32&#45;&gt;Node27</title>
<g id="a_edge50_Node000032_Node000027"><a xlink:title=" ">
<path fill="none" stroke="#63b8ff" d="M749.58,-226.6C736.57,-205.08 709.51,-152.41 728.88,-113.5 735.08,-101.02 746.55,-91.06 757.8,-83.69"/>
<polygon fill="#63b8ff" stroke="#63b8ff" points="759.42,-86.79 766.2,-78.65 755.82,-80.79 759.42,-86.79"/>
</a>
</g>
</g>
<!-- Node33&#45;&gt;Node3 -->
<g id="edge52_Node000033_Node000003" class="edge">
<title>Node33&#45;&gt;Node3</title>
<g id="a_edge52_Node000033_Node000003"><a xlink:title=" ">
<path fill="none" stroke="#63b8ff" d="M1106.1,-283.36C1095.47,-264.43 1073.88,-221.1 1073.88,-181.62 1073.88,-181.62 1073.88,-181.62 1073.88,-122.88 1073.88,-40 777.45,-18.07 670.65,-12.86"/>
<polygon fill="#63b8ff" stroke="#63b8ff" points="671.13,-9.38 660.98,-12.41 670.81,-16.37 671.13,-9.38"/>
</a>
</g>
</g>
<!-- Node33&#45;&gt;Node19 -->
<g id="edge53_Node000033_Node000019" class="edge">
<title>Node33&#45;&gt;Node19</title>
<g id="a_edge53_Node000033_Node000019"><a xlink:title=" ">
<path fill="none" stroke="#63b8ff" d="M1111.22,-283.49C1110.17,-261.79 1110.05,-208.07 1130.88,-170.25 1137.18,-158.8 1147.56,-148.86 1157.39,-141.23"/>
<polygon fill="#63b8ff" stroke="#63b8ff" points="1159.22,-144.23 1165.28,-135.54 1155.12,-138.56 1159.22,-144.23"/>
</a>
</g>
</g>
<!-- Node33&#45;&gt;Node34 -->
<g id="edge54_Node000033_Node000034" class="edge">
<title>Node33&#45;&gt;Node34</title>
<g id="a_edge54_Node000033_Node000034"><a xlink:title=" ">
<path fill="none" stroke="#63b8ff" d="M1093.64,-283.34C1078.19,-275.05 1055.79,-263.02 1038.04,-253.49"/>
<polygon fill="#63b8ff" stroke="#63b8ff" points="1039.75,-250.44 1029.29,-248.79 1036.44,-256.61 1039.75,-250.44"/>
</a>
</g>
</g>
<!-- Node34&#45;&gt;Node8 -->
<g id="edge56_Node000034_Node000008" class="edge">
<title>Node34&#45;&gt;Node8</title>
<g id="a_edge56_Node000034_Node000008"><a xlink:title=" ">
<path fill="none" stroke="#63b8ff" d="M982.86,-228.78C979.85,-228.1 976.81,-227.49 973.88,-227 761.52,-191.73 705.14,-211.69 490.88,-191 479.43,-189.89 467.07,-188.52 455.61,-187.16"/>
<polygon fill="#63b8ff" stroke="#63b8ff" points="456.36,-183.73 446.01,-186 455.52,-190.68 456.36,-183.73"/>
</a>
</g>
</g>
<!-- Node34&#45;&gt;Node18 -->
<g id="edge55_Node000034_Node000018" class="edge">
<title>Node34&#45;&gt;Node18</title>
<g id="a_edge55_Node000034_Node000018"><a xlink:title=" ">
<path fill="none" stroke="#63b8ff" d="M988.16,-226.58C964.84,-214.62 932.92,-193.12 946.88,-170.25 965.1,-140.39 986.21,-151.09 1016.88,-134.25 1047.28,-117.55 1081.6,-97.26 1104.35,-83.59"/>
<polygon fill="#63b8ff" stroke="#63b8ff" points="1105.88,-86.76 1112.64,-78.6 1102.27,-80.76 1105.88,-86.76"/>
</a>
</g>
</g>
<!-- Node34&#45;&gt;Node23 -->
<g id="edge57_Node000034_Node000023" class="edge">
<title>Node34&#45;&gt;Node23</title>
<g id="a_edge57_Node000034_Node000023"><a xlink:title=" ">
<path fill="none" stroke="#63b8ff" d="M982.84,-227.82C954.96,-219 911.1,-205.12 878.73,-194.87"/>
<polygon fill="#63b8ff" stroke="#63b8ff" points="879.84,-191.55 869.25,-191.87 877.72,-198.22 879.84,-191.55"/>
</a>
</g>
</g>
<!-- Node34&#45;&gt;Node31 -->
<g id="edge59_Node000034_Node000031" class="edge">
<title>Node34&#45;&gt;Node31</title>
<g id="a_edge59_Node000034_Node000031"><a xlink:title=" ">
<path fill="none" stroke="#63b8ff" d="M1036.88,-226.71C1062.66,-217.49 1101.6,-203.55 1129.36,-193.62"/>
<polygon fill="#63b8ff" stroke="#63b8ff" points="1130.47,-196.94 1138.71,-190.27 1128.11,-190.35 1130.47,-196.94"/>
</a>
</g>
</g>
<!-- Node35 -->
<g id="Node000035" class="node">
<title>Node35</title>
<g id="a_Node000035"><a xlink:href="native__sched_8h.html" target="_top" xlink:title="Add definitions required on the native board.">
<polygon fill="white" stroke="#666666" points="1045.62,-191 956.12,-191 956.12,-170.25 1045.62,-170.25 1045.62,-191"/>
<text text-anchor="middle" x="1000.88" y="-177.5" font-family="Helvetica,sans-Serif" font-size="10.00">native_sched.h</text>
</a>
</g>
</g>
<!-- Node34&#45;&gt;Node35 -->
<g id="edge58_Node000034_Node000035" class="edge">
<title>Node34&#45;&gt;Node35</title>
<g id="a_edge58_Node000034_Node000035"><a xlink:title=" ">
<path fill="none" stroke="#63b8ff" d="M1008.27,-226.59C1007.17,-219.89 1005.66,-210.76 1004.3,-202.48"/>
<polygon fill="#63b8ff" stroke="#63b8ff" points="1007.79,-202.12 1002.72,-192.82 1000.88,-203.26 1007.79,-202.12"/>
</a>
</g>
</g>
<!-- Node36&#45;&gt;Node34 -->
<g id="edge63_Node000036_Node000034" class="edge">
<title>Node36&#45;&gt;Node34</title>
<g id="a_edge63_Node000036_Node000034"><a xlink:title=" ">
<path fill="none" stroke="#63b8ff" d="M990.99,-283.34C993.87,-276.49 997.81,-267.09 1001.36,-258.65"/>
<polygon fill="#63b8ff" stroke="#63b8ff" points="1004.57,-260.05 1005.21,-249.47 998.11,-257.34 1004.57,-260.05"/>
</a>
</g>
</g>
<!-- Node37 -->
<g id="Node000037" class="node">
<title>Node37</title>
<g id="a_Node000037"><a xlink:title=" ">
<polygon fill="#e0e0e0" stroke="#999999" points="964.75,-247.75 897,-247.75 897,-227 964.75,-227 964.75,-247.75"/>
<text text-anchor="middle" x="930.88" y="-234.25" font-family="Helvetica,sans-Serif" font-size="10.00">cpu_conf.h</text>
</a>
</g>
</g>
<!-- Node36&#45;&gt;Node37 -->
<g id="edge62_Node000036_Node000037" class="edge">
<title>Node36&#45;&gt;Node37</title>
<g id="a_edge62_Node000036_Node000037"><a xlink:title=" ">
<path fill="none" stroke="#63b8ff" d="M976.86,-283.34C969.14,-275.78 958.25,-265.14 949,-256.1"/>
<polygon fill="#63b8ff" stroke="#63b8ff" points="951.48,-253.62 941.88,-249.14 946.59,-258.63 951.48,-253.62"/>
</a>
</g>
</g>
</g>
</svg>
