<?xml version="1.0" encoding="UTF-8" standalone="no"?>
<!DOCTYPE svg PUBLIC "-//W3C//DTD SVG 1.1//EN"
 "http://www.w3.org/Graphics/SVG/1.1/DTD/svg11.dtd">
<!-- Generated by graphviz version 12.1.1 (0)
 -->
<!-- Title: sys/include/net/gnrc/rpl/dodag.h Pages: 1 -->
<svg width="143pt" height="193pt"
 viewBox="0.00 0.00 142.50 193.25" xmlns="http://www.w3.org/2000/svg" xmlns:xlink="http://www.w3.org/1999/xlink">
<g id="graph0" class="graph" transform="scale(1 1) rotate(0) translate(4 189.25)">
<title>sys/include/net/gnrc/rpl/dodag.h</title>
<!-- Node1 -->
<g id="Node000001" class="node">
<title>Node1</title>
<g id="a_Node000001"><a xlink:title="DODAG&#45;related functions for RPL.">
<polygon fill="#999999" stroke="#666666" points="124,-185.25 10.5,-185.25 10.5,-151.75 124,-151.75 124,-185.25"/>
<text text-anchor="start" x="18.5" y="-171.75" font-family="Helvetica,sans-Serif" font-size="10.00">sys/include/net/gnrc</text>
<text text-anchor="middle" x="67.25" y="-159" font-family="Helvetica,sans-Serif" font-size="10.00">/rpl/dodag.h</text>
</a>
</g>
</g>
<!-- Node2 -->
<g id="Node000002" class="node">
<title>Node2</title>
<g id="a_Node000002"><a xlink:href="rpl_8h.html" target="_top" xlink:title="RPL header.">
<polygon fill="white" stroke="#666666" points="124,-115.75 10.5,-115.75 10.5,-82.25 124,-82.25 124,-115.75"/>
<text text-anchor="start" x="18.5" y="-102.25" font-family="Helvetica,sans-Serif" font-size="10.00">sys/include/net/gnrc</text>
<text text-anchor="middle" x="67.25" y="-89.5" font-family="Helvetica,sans-Serif" font-size="10.00">/rpl.h</text>
</a>
</g>
</g>
<!-- Node1&#45;&gt;Node2 -->
<g id="edge1_Node000001_Node000002" class="edge">
<title>Node1&#45;&gt;Node2</title>
<g id="a_edge1_Node000001_Node000002"><a xlink:title=" ">
<path fill="none" stroke="#63b8ff" d="M60.61,-140.06C60.33,-131.84 60.6,-123.09 61.42,-115.88"/>
<polygon fill="#63b8ff" stroke="#63b8ff" points="57.11,-140.26 61.3,-149.99 64.09,-139.77 57.11,-140.26"/>
</a>
</g>
</g>
<!-- Node2&#45;&gt;Node1 -->
<g id="edge2_Node000002_Node000001" class="edge">
<title>Node2&#45;&gt;Node1</title>
<g id="a_edge2_Node000002_Node000001"><a xlink:title=" ">
<path fill="none" stroke="#63b8ff" d="M73.89,-127.31C74.17,-135.53 73.91,-144.27 73.09,-151.5"/>
<polygon fill="#63b8ff" stroke="#63b8ff" points="77.38,-127.12 73.18,-117.39 70.4,-127.61 77.38,-127.12"/>
</a>
</g>
</g>
<!-- Node3 -->
<g id="Node000003" class="node">
<title>Node3</title>
<g id="a_Node000003"><a xlink:href="gnrc__ipv6__auto__subnets_8c.html" target="_top" xlink:title=" ">
<polygon fill="white" stroke="#666666" points="134.5,-46.25 0,-46.25 0,0 134.5,0 134.5,-46.25"/>
<text text-anchor="start" x="8" y="-32.75" font-family="Helvetica,sans-Serif" font-size="10.00">sys/net/gnrc/routing</text>
<text text-anchor="start" x="8" y="-20" font-family="Helvetica,sans-Serif" font-size="10.00">/ipv6_auto_subnets/gnrc</text>
<text text-anchor="middle" x="67.25" y="-7.25" font-family="Helvetica,sans-Serif" font-size="10.00">_ipv6_auto_subnets.c</text>
</a>
</g>
</g>
<!-- Node2&#45;&gt;Node3 -->
<g id="edge3_Node000002_Node000003" class="edge">
<title>Node2&#45;&gt;Node3</title>
<g id="a_edge3_Node000002_Node000003"><a xlink:title=" ">
<path fill="none" stroke="#63b8ff" d="M67.25,-70.64C67.25,-62.71 67.25,-54.16 67.25,-46.57"/>
<polygon fill="#63b8ff" stroke="#63b8ff" points="63.75,-70.46 67.25,-80.46 70.75,-70.46 63.75,-70.46"/>
</a>
</g>
</g>
</g>
</svg>
