<?xml version="1.0" encoding="UTF-8" standalone="no"?>
<!DOCTYPE svg PUBLIC "-//W3C//DTD SVG 1.1//EN"
 "http://www.w3.org/Graphics/SVG/1.1/DTD/svg11.dtd">
<!-- Generated by graphviz version 12.1.1 (0)
 -->
<!-- Title: pkg/uwb&#45;core/include/dpl/dpl_types.h Pages: 1 -->
<svg width="195pt" height="155pt"
 viewBox="0.00 0.00 194.50 155.00" xmlns="http://www.w3.org/2000/svg" xmlns:xlink="http://www.w3.org/1999/xlink">
<g id="graph0" class="graph" transform="scale(1 1) rotate(0) translate(4 151)">
<title>pkg/uwb&#45;core/include/dpl/dpl_types.h</title>
<!-- Node1 -->
<g id="Node000001" class="node">
<title>Node1</title>
<g id="a_Node000001"><a xlink:title="uwb&#45;core DPL (Decawave Porting Layer) types">
<polygon fill="#999999" stroke="#666666" points="120.25,-147 0,-147 0,-113.5 120.25,-113.5 120.25,-147"/>
<text text-anchor="start" x="8" y="-133.5" font-family="Helvetica,sans-Serif" font-size="10.00">pkg/uwb&#45;core/include</text>
<text text-anchor="middle" x="60.12" y="-120.75" font-family="Helvetica,sans-Serif" font-size="10.00">/dpl/dpl_types.h</text>
</a>
</g>
</g>
<!-- Node2 -->
<g id="Node000002" class="node">
<title>Node2</title>
<g id="a_Node000002"><a xlink:title=" ">
<polygon fill="#e0e0e0" stroke="#999999" points="102.5,-20.75 49.75,-20.75 49.75,0 102.5,0 102.5,-20.75"/>
<text text-anchor="middle" x="76.12" y="-7.25" font-family="Helvetica,sans-Serif" font-size="10.00">stdint.h</text>
</a>
</g>
</g>
<!-- Node1&#45;&gt;Node2 -->
<g id="edge1_Node000001_Node000002" class="edge">
<title>Node1&#45;&gt;Node2</title>
<g id="a_edge1_Node000001_Node000002"><a xlink:title=" ">
<path fill="none" stroke="#63b8ff" d="M44.1,-113.22C31.52,-98.59 17.46,-76.33 26.12,-56.75 31.25,-45.17 40.95,-35.29 50.45,-27.73"/>
<polygon fill="#63b8ff" stroke="#63b8ff" points="52.48,-30.58 58.49,-21.86 48.35,-24.93 52.48,-30.58"/>
</a>
</g>
</g>
<!-- Node3 -->
<g id="Node000003" class="node">
<title>Node3</title>
<g id="a_Node000003"><a xlink:href="math_8h.html" target="_top" xlink:title="Math helper macros.">
<polygon fill="white" stroke="#666666" points="85.38,-77.5 34.88,-77.5 34.88,-56.75 85.38,-56.75 85.38,-77.5"/>
<text text-anchor="middle" x="60.12" y="-64" font-family="Helvetica,sans-Serif" font-size="10.00">math.h</text>
</a>
</g>
</g>
<!-- Node1&#45;&gt;Node3 -->
<g id="edge2_Node000001_Node000003" class="edge">
<title>Node1&#45;&gt;Node3</title>
<g id="a_edge2_Node000001_Node000003"><a xlink:title=" ">
<path fill="none" stroke="#63b8ff" d="M60.12,-113.19C60.12,-105.85 60.12,-97.07 60.12,-89.21"/>
<polygon fill="#63b8ff" stroke="#63b8ff" points="63.63,-89.48 60.13,-79.48 56.63,-89.48 63.63,-89.48"/>
</a>
</g>
</g>
<!-- Node4 -->
<g id="Node000004" class="node">
<title>Node4</title>
<g id="a_Node000004"><a xlink:href="os__types_8h.html" target="_top" xlink:title="mynewt&#45;core types">
<polygon fill="white" stroke="#666666" points="186.5,-77.5 103.75,-77.5 103.75,-56.75 186.5,-56.75 186.5,-77.5"/>
<text text-anchor="middle" x="145.12" y="-64" font-family="Helvetica,sans-Serif" font-size="10.00">os/os_types.h</text>
</a>
</g>
</g>
<!-- Node1&#45;&gt;Node4 -->
<g id="edge3_Node000001_Node000004" class="edge">
<title>Node1&#45;&gt;Node4</title>
<g id="a_edge3_Node000001_Node000004"><a xlink:title=" ">
<path fill="none" stroke="#63b8ff" d="M82.46,-113.19C94.72,-104.37 109.9,-93.45 122.25,-84.57"/>
<polygon fill="#63b8ff" stroke="#63b8ff" points="124.13,-87.53 130.21,-78.85 120.05,-81.85 124.13,-87.53"/>
</a>
</g>
</g>
<!-- Node4&#45;&gt;Node2 -->
<g id="edge4_Node000004_Node000002" class="edge">
<title>Node4&#45;&gt;Node2</title>
<g id="a_edge4_Node000004_Node000002"><a xlink:title=" ">
<path fill="none" stroke="#63b8ff" d="M132.79,-56.34C122.88,-48.47 108.74,-37.25 97.06,-27.99"/>
<polygon fill="#63b8ff" stroke="#63b8ff" points="99.55,-25.49 89.54,-22.02 95.2,-30.98 99.55,-25.49"/>
</a>
</g>
</g>
</g>
</svg>
