<?xml version="1.0" encoding="UTF-8" standalone="no"?>
<!DOCTYPE svg PUBLIC "-//W3C//DTD SVG 1.1//EN"
 "http://www.w3.org/Graphics/SVG/1.1/DTD/svg11.dtd">
<!-- Generated by graphviz version 12.1.1 (0)
 -->
<!-- Title: pkg/uwb&#45;core/include/dpl/dpl_types.h Pages: 1 -->
<svg width="293pt" height="181pt"
 viewBox="0.00 0.00 292.68 180.50" xmlns="http://www.w3.org/2000/svg" xmlns:xlink="http://www.w3.org/1999/xlink">
<g id="graph0" class="graph" transform="scale(1 1) rotate(0) translate(4 176.5)">
<title>pkg/uwb&#45;core/include/dpl/dpl_types.h</title>
<!-- Node1 -->
<g id="Node000001" class="node">
<title>Node1</title>
<g id="a_Node000001"><a xlink:title="uwb&#45;core DPL (Decawave Porting Layer) types">
<polygon fill="#999999" stroke="#666666" points="134.06,-172.5 13.81,-172.5 13.81,-139 134.06,-139 134.06,-172.5"/>
<text text-anchor="start" x="21.81" y="-159" font-family="Helvetica,sans-Serif" font-size="10.00">pkg/uwb&#45;core/include</text>
<text text-anchor="middle" x="73.93" y="-146.25" font-family="Helvetica,sans-Serif" font-size="10.00">/dpl/dpl_types.h</text>
</a>
</g>
</g>
<!-- Node2 -->
<g id="Node000002" class="node">
<title>Node2</title>
<g id="a_Node000002"><a xlink:href="dpl_8h.html" target="_top" xlink:title="Abstraction layer for RIOT adaption.">
<polygon fill="white" stroke="#666666" points="129.06,-33.5 8.81,-33.5 8.81,0 129.06,0 129.06,-33.5"/>
<text text-anchor="start" x="16.81" y="-20" font-family="Helvetica,sans-Serif" font-size="10.00">pkg/uwb&#45;core/include</text>
<text text-anchor="middle" x="68.93" y="-7.25" font-family="Helvetica,sans-Serif" font-size="10.00">/dpl/dpl.h</text>
</a>
</g>
</g>
<!-- Node1&#45;&gt;Node2 -->
<g id="edge1_Node000001_Node000002" class="edge">
<title>Node1&#45;&gt;Node2</title>
<g id="a_edge1_Node000001_Node000002"><a xlink:title=" ">
<path fill="none" stroke="#63b8ff" d="M31.18,-132.21C20.68,-124.45 10.79,-114.71 4.93,-103 -1.73,-89.68 -1.48,-82.94 4.93,-69.5 12.07,-54.54 25.88,-42.51 38.85,-33.83"/>
<polygon fill="#63b8ff" stroke="#63b8ff" points="28.99,-134.95 39.23,-137.66 32.92,-129.15 28.99,-134.95"/>
</a>
</g>
</g>
<!-- Node3 -->
<g id="Node000003" class="node">
<title>Node3</title>
<g id="a_Node000003"><a xlink:href="dpl__eventq_8h.html" target="_top" xlink:title="uwb&#45;core DPL (Decawave Porting Layer) event queue wrappers">
<polygon fill="white" stroke="#666666" points="134.06,-103 13.81,-103 13.81,-69.5 134.06,-69.5 134.06,-103"/>
<text text-anchor="start" x="21.81" y="-89.5" font-family="Helvetica,sans-Serif" font-size="10.00">pkg/uwb&#45;core/include</text>
<text text-anchor="middle" x="73.93" y="-76.75" font-family="Helvetica,sans-Serif" font-size="10.00">/dpl/dpl_eventq.h</text>
</a>
</g>
</g>
<!-- Node1&#45;&gt;Node3 -->
<g id="edge2_Node000001_Node000003" class="edge">
<title>Node1&#45;&gt;Node3</title>
<g id="a_edge2_Node000001_Node000003"><a xlink:title=" ">
<path fill="none" stroke="#63b8ff" d="M73.93,-127.31C73.93,-119.09 73.93,-110.34 73.93,-103.13"/>
<polygon fill="#63b8ff" stroke="#63b8ff" points="70.43,-127.24 73.93,-137.24 77.43,-127.24 70.43,-127.24"/>
</a>
</g>
</g>
<!-- Node4 -->
<g id="Node000004" class="node">
<title>Node4</title>
<g id="a_Node000004"><a xlink:href="dpl__sem_8h.html" target="_top" xlink:title="uwb&#45;core DPL (Decawave Porting Layer) semapahore wrappers">
<polygon fill="white" stroke="#666666" points="272.06,-103 151.81,-103 151.81,-69.5 272.06,-69.5 272.06,-103"/>
<text text-anchor="start" x="159.81" y="-89.5" font-family="Helvetica,sans-Serif" font-size="10.00">pkg/uwb&#45;core/include</text>
<text text-anchor="middle" x="211.93" y="-76.75" font-family="Helvetica,sans-Serif" font-size="10.00">/dpl/dpl_sem.h</text>
</a>
</g>
</g>
<!-- Node1&#45;&gt;Node4 -->
<g id="edge4_Node000001_Node000004" class="edge">
<title>Node1&#45;&gt;Node4</title>
<g id="a_edge4_Node000001_Node000004"><a xlink:title=" ">
<path fill="none" stroke="#63b8ff" d="M117.11,-133.63C137.15,-123.83 160.59,-112.36 179.15,-103.29"/>
<polygon fill="#63b8ff" stroke="#63b8ff" points="115.79,-130.38 108.35,-137.92 118.87,-136.67 115.79,-130.38"/>
</a>
</g>
</g>
<!-- Node3&#45;&gt;Node2 -->
<g id="edge3_Node000003_Node000002" class="edge">
<title>Node3&#45;&gt;Node2</title>
<g id="a_edge3_Node000003_Node000002"><a xlink:title=" ">
<path fill="none" stroke="#63b8ff" d="M71.9,-57.81C71.29,-49.59 70.64,-40.84 70.11,-33.63"/>
<polygon fill="#63b8ff" stroke="#63b8ff" points="68.41,-58.03 72.64,-67.74 75.39,-57.51 68.41,-58.03"/>
</a>
</g>
</g>
<!-- Node4&#45;&gt;Node2 -->
<g id="edge5_Node000004_Node000002" class="edge">
<title>Node4&#45;&gt;Node2</title>
<g id="a_edge5_Node000004_Node000002"><a xlink:title=" ">
<path fill="none" stroke="#63b8ff" d="M167.47,-64.26C146.64,-54.43 122.22,-42.91 102.91,-33.79"/>
<polygon fill="#63b8ff" stroke="#63b8ff" points="165.77,-67.33 176.31,-68.44 168.76,-61 165.77,-67.33"/>
</a>
</g>
</g>
<!-- Node5 -->
<g id="Node000005" class="node">
<title>Node5</title>
<g id="a_Node000005"><a xlink:href="uwb__dw1000__params_8h.html" target="_top" xlink:title="Default configuration.">
<polygon fill="white" stroke="#666666" points="284.68,-33.5 147.18,-33.5 147.18,0 284.68,0 284.68,-33.5"/>
<text text-anchor="start" x="155.18" y="-20" font-family="Helvetica,sans-Serif" font-size="10.00">pkg/uwb&#45;dw1000/include</text>
<text text-anchor="middle" x="215.93" y="-7.25" font-family="Helvetica,sans-Serif" font-size="10.00">/uwb_dw1000_params.h</text>
</a>
</g>
</g>
<!-- Node4&#45;&gt;Node5 -->
<g id="edge6_Node000004_Node000005" class="edge">
<title>Node4&#45;&gt;Node5</title>
<g id="a_edge6_Node000004_Node000005"><a xlink:title=" ">
<path fill="none" stroke="#63b8ff" d="M213.56,-57.81C214.05,-49.59 214.56,-40.84 214.99,-33.63"/>
<polygon fill="#63b8ff" stroke="#63b8ff" points="210.07,-57.55 212.97,-67.74 217.06,-57.97 210.07,-57.55"/>
</a>
</g>
</g>
</g>
</svg>
