<?xml version="1.0" encoding="UTF-8" standalone="no"?>
<!DOCTYPE svg PUBLIC "-//W3C//DTD SVG 1.1//EN"
 "http://www.w3.org/Graphics/SVG/1.1/DTD/svg11.dtd">
<!-- Generated by graphviz version 12.1.1 (0)
 -->
<!-- Title: drivers/include/saul.h Pages: 1 -->
<svg width="296pt" height="86pt"
 viewBox="0.00 0.00 295.62 85.50" xmlns="http://www.w3.org/2000/svg" xmlns:xlink="http://www.w3.org/1999/xlink">
<g id="graph0" class="graph" transform="scale(1 1) rotate(0) translate(4 81.5)">
<title>drivers/include/saul.h</title>
<!-- Node1 -->
<g id="Node000001" class="node">
<title>Node1</title>
<g id="a_Node000001"><a xlink:title="Definition of the generic [S]ensor [A]ctuator [U]ber [L]ayer.">
<polygon fill="#999999" stroke="#666666" points="195.38,-77.5 75.12,-77.5 75.12,-56.75 195.38,-56.75 195.38,-77.5"/>
<text text-anchor="middle" x="135.25" y="-64" font-family="Helvetica,sans-Serif" font-size="10.00">drivers/include/saul.h</text>
</a>
</g>
</g>
<!-- Node2 -->
<g id="Node000002" class="node">
<title>Node2</title>
<g id="a_Node000002"><a xlink:href="errno_8h.html" target="_top" xlink:title=" ">
<polygon fill="white" stroke="#666666" points="50.5,-20.75 0,-20.75 0,0 50.5,0 50.5,-20.75"/>
<text text-anchor="middle" x="25.25" y="-7.25" font-family="Helvetica,sans-Serif" font-size="10.00">errno.h</text>
</a>
</g>
</g>
<!-- Node1&#45;&gt;Node2 -->
<g id="edge1_Node000001_Node000002" class="edge">
<title>Node1&#45;&gt;Node2</title>
<g id="a_edge1_Node000001_Node000002"><a xlink:title=" ">
<path fill="none" stroke="#63b8ff" d="M115.58,-56.34C98.69,-47.93 74.08,-35.68 54.82,-26.09"/>
<polygon fill="#63b8ff" stroke="#63b8ff" points="56.61,-23.08 46.1,-21.75 53.49,-29.34 56.61,-23.08"/>
</a>
</g>
</g>
<!-- Node3 -->
<g id="Node000003" class="node">
<title>Node3</title>
<g id="a_Node000003"><a xlink:title=" ">
<polygon fill="#e0e0e0" stroke="#999999" points="121.62,-20.75 68.88,-20.75 68.88,0 121.62,0 121.62,-20.75"/>
<text text-anchor="middle" x="95.25" y="-7.25" font-family="Helvetica,sans-Serif" font-size="10.00">stdint.h</text>
</a>
</g>
</g>
<!-- Node1&#45;&gt;Node3 -->
<g id="edge2_Node000001_Node000003" class="edge">
<title>Node1&#45;&gt;Node3</title>
<g id="a_edge2_Node000001_Node000003"><a xlink:title=" ">
<path fill="none" stroke="#63b8ff" d="M128.1,-56.34C122.81,-49.1 115.44,-39.01 109.02,-30.22"/>
<polygon fill="#63b8ff" stroke="#63b8ff" points="111.96,-28.31 103.23,-22.3 106.31,-32.44 111.96,-28.31"/>
</a>
</g>
</g>
<!-- Node4 -->
<g id="Node000004" class="node">
<title>Node4</title>
<g id="a_Node000004"><a xlink:title=" ">
<polygon fill="#e0e0e0" stroke="#999999" points="211,-20.75 139.5,-20.75 139.5,0 211,0 211,-20.75"/>
<text text-anchor="middle" x="175.25" y="-7.25" font-family="Helvetica,sans-Serif" font-size="10.00">sys/types.h</text>
</a>
</g>
</g>
<!-- Node1&#45;&gt;Node4 -->
<g id="edge3_Node000001_Node000004" class="edge">
<title>Node1&#45;&gt;Node4</title>
<g id="a_edge3_Node000001_Node000004"><a xlink:title=" ">
<path fill="none" stroke="#63b8ff" d="M142.4,-56.34C147.69,-49.1 155.06,-39.01 161.48,-30.22"/>
<polygon fill="#63b8ff" stroke="#63b8ff" points="164.19,-32.44 167.27,-22.3 158.54,-28.31 164.19,-32.44"/>
</a>
</g>
</g>
<!-- Node5 -->
<g id="Node000005" class="node">
<title>Node5</title>
<g id="a_Node000005"><a xlink:title=" ">
<polygon fill="#e0e0e0" stroke="#999999" points="287.62,-20.75 228.88,-20.75 228.88,0 287.62,0 287.62,-20.75"/>
<text text-anchor="middle" x="258.25" y="-7.25" font-family="Helvetica,sans-Serif" font-size="10.00">phydat.h</text>
</a>
</g>
</g>
<!-- Node1&#45;&gt;Node5 -->
<g id="edge4_Node000001_Node000005" class="edge">
<title>Node1&#45;&gt;Node5</title>
<g id="a_edge4_Node000001_Node000005"><a xlink:title=" ">
<path fill="none" stroke="#63b8ff" d="M157.24,-56.34C176.39,-47.81 204.41,-35.34 226.08,-25.69"/>
<polygon fill="#63b8ff" stroke="#63b8ff" points="227.36,-28.96 235.07,-21.69 224.51,-22.56 227.36,-28.96"/>
</a>
</g>
</g>
</g>
</svg>
