<?xml version="1.0" encoding="UTF-8" standalone="no"?>
<!DOCTYPE svg PUBLIC "-//W3C//DTD SVG 1.1//EN"
 "http://www.w3.org/Graphics/SVG/1.1/DTD/svg11.dtd">
<!-- Generated by graphviz version 12.1.1 (0)
 -->
<!-- Title: drivers/include/net/netdev.h Pages: 1 -->
<svg width="643pt" height="269pt"
 viewBox="0.00 0.00 642.56 268.50" xmlns="http://www.w3.org/2000/svg" xmlns:xlink="http://www.w3.org/1999/xlink">
<g id="graph0" class="graph" transform="scale(1 1) rotate(0) translate(4 264.5)">
<title>drivers/include/net/netdev.h</title>
<!-- Node1 -->
<g id="Node000001" class="node">
<title>Node1</title>
<g id="a_Node000001"><a xlink:title="Definitions low&#45;level network driver interface.">
<polygon fill="#999999" stroke="#666666" points="527.69,-260.5 420.94,-260.5 420.94,-227 527.69,-227 527.69,-260.5"/>
<text text-anchor="start" x="428.94" y="-247" font-family="Helvetica,sans-Serif" font-size="10.00">drivers/include/net</text>
<text text-anchor="middle" x="474.31" y="-234.25" font-family="Helvetica,sans-Serif" font-size="10.00">/netdev.h</text>
</a>
</g>
</g>
<!-- Node2 -->
<g id="Node000002" class="node">
<title>Node2</title>
<g id="a_Node000002"><a xlink:title=" ">
<polygon fill="#e0e0e0" stroke="#999999" points="292.69,-20.75 239.94,-20.75 239.94,0 292.69,0 292.69,-20.75"/>
<text text-anchor="middle" x="266.31" y="-7.25" font-family="Helvetica,sans-Serif" font-size="10.00">stdint.h</text>
</a>
</g>
</g>
<!-- Node1&#45;&gt;Node2 -->
<g id="edge1_Node000001_Node000002" class="edge">
<title>Node1&#45;&gt;Node2</title>
<g id="a_edge1_Node000001_Node000002"><a xlink:title=" ">
<path fill="none" stroke="#63b8ff" d="M494.59,-226.86C504.69,-217.62 515.89,-205.04 521.31,-191 544.67,-130.53 520.02,-89.91 464.31,-56.75 414.15,-26.89 346.06,-16.67 304.21,-13.18"/>
<polygon fill="#63b8ff" stroke="#63b8ff" points="304.63,-9.7 294.4,-12.46 304.11,-16.68 304.63,-9.7"/>
</a>
</g>
</g>
<!-- Node3 -->
<g id="Node000003" class="node">
<title>Node3</title>
<g id="a_Node000003"><a xlink:href="errno_8h.html" target="_top" xlink:title=" ">
<polygon fill="white" stroke="#666666" points="634.56,-191 584.06,-191 584.06,-170.25 634.56,-170.25 634.56,-191"/>
<text text-anchor="middle" x="609.31" y="-177.5" font-family="Helvetica,sans-Serif" font-size="10.00">errno.h</text>
</a>
</g>
</g>
<!-- Node1&#45;&gt;Node3 -->
<g id="edge2_Node000001_Node000003" class="edge">
<title>Node1&#45;&gt;Node3</title>
<g id="a_edge2_Node000001_Node000003"><a xlink:title=" ">
<path fill="none" stroke="#63b8ff" d="M510.14,-226.53C531.06,-217.06 557.24,-205.2 577.44,-196.06"/>
<polygon fill="#63b8ff" stroke="#63b8ff" points="578.65,-199.35 586.31,-192.04 575.76,-192.98 578.65,-199.35"/>
</a>
</g>
</g>
<!-- Node4 -->
<g id="Node000004" class="node">
<title>Node4</title>
<g id="a_Node000004"><a xlink:href="iolist_8h.html" target="_top" xlink:title="iolist scatter / gather IO">
<polygon fill="white" stroke="#666666" points="189.81,-191 140.81,-191 140.81,-170.25 189.81,-170.25 189.81,-191"/>
<text text-anchor="middle" x="165.31" y="-177.5" font-family="Helvetica,sans-Serif" font-size="10.00">iolist.h</text>
</a>
</g>
</g>
<!-- Node1&#45;&gt;Node4 -->
<g id="edge3_Node000001_Node000004" class="edge">
<title>Node1&#45;&gt;Node4</title>
<g id="a_edge3_Node000001_Node000004"><a xlink:title=" ">
<path fill="none" stroke="#63b8ff" d="M420.49,-232.1C357.5,-219.64 254.98,-199.36 201.06,-188.7"/>
<polygon fill="#63b8ff" stroke="#63b8ff" points="201.98,-185.31 191.49,-186.8 200.62,-192.18 201.98,-185.31"/>
</a>
</g>
</g>
<!-- Node8 -->
<g id="Node000008" class="node">
<title>Node8</title>
<g id="a_Node000008"><a xlink:href="netopt_8h.html" target="_top" xlink:title="Definition of global configuration options.">
<polygon fill="white" stroke="#666666" points="511.94,-191 436.69,-191 436.69,-170.25 511.94,-170.25 511.94,-191"/>
<text text-anchor="middle" x="474.31" y="-177.5" font-family="Helvetica,sans-Serif" font-size="10.00">net/netopt.h</text>
</a>
</g>
</g>
<!-- Node1&#45;&gt;Node8 -->
<g id="edge10_Node000001_Node000008" class="edge">
<title>Node1&#45;&gt;Node8</title>
<g id="a_edge10_Node000001_Node000008"><a xlink:title=" ">
<path fill="none" stroke="#63b8ff" d="M474.31,-226.69C474.31,-219.35 474.31,-210.57 474.31,-202.71"/>
<polygon fill="#63b8ff" stroke="#63b8ff" points="477.81,-202.98 474.31,-192.98 470.81,-202.98 477.81,-202.98"/>
</a>
</g>
</g>
<!-- Node10 -->
<g id="Node000010" class="node">
<title>Node10</title>
<g id="a_Node000010"><a xlink:href="kernel__defines_8h.html" target="_top" xlink:title="Common macros and compiler attributes/pragmas configuration.">
<polygon fill="white" stroke="#666666" points="363.44,-191 267.19,-191 267.19,-170.25 363.44,-170.25 363.44,-191"/>
<text text-anchor="middle" x="315.31" y="-177.5" font-family="Helvetica,sans-Serif" font-size="10.00">kernel_defines.h</text>
</a>
</g>
</g>
<!-- Node1&#45;&gt;Node10 -->
<g id="edge13_Node000001_Node000010" class="edge">
<title>Node1&#45;&gt;Node10</title>
<g id="a_edge13_Node000001_Node000010"><a xlink:title=" ">
<path fill="none" stroke="#63b8ff" d="M432.12,-226.53C406.91,-216.84 375.23,-204.66 351.22,-195.43"/>
<polygon fill="#63b8ff" stroke="#63b8ff" points="352.78,-192.28 342.19,-191.96 350.27,-198.81 352.78,-192.28"/>
</a>
</g>
</g>
<!-- Node5 -->
<g id="Node000005" class="node">
<title>Node5</title>
<g id="a_Node000005"><a xlink:href="unistd_8h_source.html" target="_top" xlink:title=" ">
<polygon fill="white" stroke="#666666" points="104.81,-134.25 49.81,-134.25 49.81,-113.5 104.81,-113.5 104.81,-134.25"/>
<text text-anchor="middle" x="77.31" y="-120.75" font-family="Helvetica,sans-Serif" font-size="10.00">unistd.h</text>
</a>
</g>
</g>
<!-- Node4&#45;&gt;Node5 -->
<g id="edge4_Node000004_Node000005" class="edge">
<title>Node4&#45;&gt;Node5</title>
<g id="a_edge4_Node000004_Node000005"><a xlink:title=" ">
<path fill="none" stroke="#63b8ff" d="M149.58,-169.84C136.44,-161.66 117.47,-149.86 102.26,-140.4"/>
<polygon fill="#63b8ff" stroke="#63b8ff" points="104.54,-137.69 94.2,-135.38 100.84,-143.63 104.54,-137.69"/>
</a>
</g>
</g>
<!-- Node5&#45;&gt;Node2 -->
<g id="edge6_Node000005_Node000002" class="edge">
<title>Node5&#45;&gt;Node2</title>
<g id="a_edge6_Node000005_Node000002"><a xlink:title=" ">
<path fill="none" stroke="#63b8ff" d="M82.68,-113.34C91.2,-99.04 109.13,-72.1 131.31,-56.75 160.63,-36.48 199.73,-24.65 228.3,-18.18"/>
<polygon fill="#63b8ff" stroke="#63b8ff" points="228.93,-21.63 237.98,-16.12 227.47,-14.78 228.93,-21.63"/>
</a>
</g>
</g>
<!-- Node6 -->
<g id="Node000006" class="node">
<title>Node6</title>
<g id="a_Node000006"><a xlink:title=" ">
<polygon fill="#e0e0e0" stroke="#999999" points="75.81,-20.75 20.81,-20.75 20.81,0 75.81,0 75.81,-20.75"/>
<text text-anchor="middle" x="48.31" y="-7.25" font-family="Helvetica,sans-Serif" font-size="10.00">stddef.h</text>
</a>
</g>
</g>
<!-- Node5&#45;&gt;Node6 -->
<g id="edge5_Node000005_Node000006" class="edge">
<title>Node5&#45;&gt;Node6</title>
<g id="a_edge5_Node000005_Node000006"><a xlink:title=" ">
<path fill="none" stroke="#63b8ff" d="M49.64,-113.79C32.99,-106.73 13.18,-95.12 3.31,-77.5 -6.5,-59.98 9.14,-41.15 24.6,-28.08"/>
<polygon fill="#63b8ff" stroke="#63b8ff" points="26.59,-30.97 32.3,-22.04 22.27,-25.46 26.59,-30.97"/>
</a>
</g>
</g>
<!-- Node7 -->
<g id="Node000007" class="node">
<title>Node7</title>
<g id="a_Node000007"><a xlink:href="cpu_2avr8__common_2avr__libc__extra_2include_2sys_2types_8h_source.html" target="_top" xlink:title=" ">
<polygon fill="white" stroke="#666666" points="84.06,-77.5 12.56,-77.5 12.56,-56.75 84.06,-56.75 84.06,-77.5"/>
<text text-anchor="middle" x="48.31" y="-64" font-family="Helvetica,sans-Serif" font-size="10.00">sys/types.h</text>
</a>
</g>
</g>
<!-- Node5&#45;&gt;Node7 -->
<g id="edge7_Node000005_Node000007" class="edge">
<title>Node5&#45;&gt;Node7</title>
<g id="a_edge7_Node000005_Node000007"><a xlink:title=" ">
<path fill="none" stroke="#63b8ff" d="M72.13,-113.09C68.42,-106.08 63.3,-96.41 58.75,-87.83"/>
<polygon fill="#63b8ff" stroke="#63b8ff" points="61.94,-86.36 54.16,-79.17 55.75,-89.64 61.94,-86.36"/>
</a>
</g>
</g>
<!-- Node7&#45;&gt;Node2 -->
<g id="edge8_Node000007_Node000002" class="edge">
<title>Node7&#45;&gt;Node2</title>
<g id="a_edge8_Node000007_Node000002"><a xlink:title=" ">
<path fill="none" stroke="#63b8ff" d="M84.31,-57.08C124.13,-47.08 188.01,-31.04 228.53,-20.86"/>
<polygon fill="#63b8ff" stroke="#63b8ff" points="229.24,-24.3 238.09,-18.46 227.53,-17.51 229.24,-24.3"/>
</a>
</g>
</g>
<!-- Node7&#45;&gt;Node6 -->
<g id="edge9_Node000007_Node000006" class="edge">
<title>Node7&#45;&gt;Node6</title>
<g id="a_edge9_Node000007_Node000006"><a xlink:title=" ">
<path fill="none" stroke="#63b8ff" d="M48.31,-56.34C48.31,-49.72 48.31,-40.72 48.31,-32.52"/>
<polygon fill="#63b8ff" stroke="#63b8ff" points="51.81,-32.59 48.31,-22.59 44.81,-32.59 51.81,-32.59"/>
</a>
</g>
</g>
<!-- Node8&#45;&gt;Node2 -->
<g id="edge11_Node000008_Node000002" class="edge">
<title>Node8&#45;&gt;Node2</title>
<g id="a_edge11_Node000008_Node000002"><a xlink:title=" ">
<path fill="none" stroke="#63b8ff" d="M482.8,-170.02C493.22,-156.98 508.47,-133.06 499.31,-113.5 482.63,-77.85 466.2,-74.99 431.31,-56.75 390.52,-35.41 338.64,-23.28 304.06,-17.03"/>
<polygon fill="#63b8ff" stroke="#63b8ff" points="304.97,-13.63 294.52,-15.38 303.78,-20.53 304.97,-13.63"/>
</a>
</g>
</g>
<!-- Node9 -->
<g id="Node000009" class="node">
<title>Node9</title>
<g id="a_Node000009"><a xlink:title=" ">
<polygon fill="#e0e0e0" stroke="#999999" points="489.81,-134.25 428.81,-134.25 428.81,-113.5 489.81,-113.5 489.81,-134.25"/>
<text text-anchor="middle" x="459.31" y="-120.75" font-family="Helvetica,sans-Serif" font-size="10.00">stdbool.h</text>
</a>
</g>
</g>
<!-- Node8&#45;&gt;Node9 -->
<g id="edge12_Node000008_Node000009" class="edge">
<title>Node8&#45;&gt;Node9</title>
<g id="a_edge12_Node000008_Node000009"><a xlink:title=" ">
<path fill="none" stroke="#63b8ff" d="M471.63,-169.84C469.78,-163.06 467.24,-153.8 464.95,-145.44"/>
<polygon fill="#63b8ff" stroke="#63b8ff" points="468.39,-144.76 462.37,-136.04 461.64,-146.61 468.39,-144.76"/>
</a>
</g>
</g>
<!-- Node11 -->
<g id="Node000011" class="node">
<title>Node11</title>
<g id="a_Node000011"><a xlink:href="modules_8h.html" target="_top" xlink:title="Common macros and compiler attributes/pragmas configuration.">
<polygon fill="white" stroke="#666666" points="410.81,-134.25 343.81,-134.25 343.81,-113.5 410.81,-113.5 410.81,-134.25"/>
<text text-anchor="middle" x="377.31" y="-120.75" font-family="Helvetica,sans-Serif" font-size="10.00">modules.h</text>
</a>
</g>
</g>
<!-- Node10&#45;&gt;Node11 -->
<g id="edge14_Node000010_Node000011" class="edge">
<title>Node10&#45;&gt;Node11</title>
<g id="a_edge14_Node000010_Node000011"><a xlink:title=" ">
<path fill="none" stroke="#63b8ff" d="M326.4,-169.84C335.13,-162.13 347.51,-151.2 357.88,-142.04"/>
<polygon fill="#63b8ff" stroke="#63b8ff" points="360.01,-144.82 365.19,-135.58 355.38,-139.58 360.01,-144.82"/>
</a>
</g>
</g>
<!-- Node12 -->
<g id="Node000012" class="node">
<title>Node12</title>
<g id="a_Node000012"><a xlink:href="riot__version_8h.html" target="_top" xlink:title="Common macros and compiler attributes/pragmas configuration.">
<polygon fill="white" stroke="#666666" points="422.69,-77.5 339.94,-77.5 339.94,-56.75 422.69,-56.75 422.69,-77.5"/>
<text text-anchor="middle" x="381.31" y="-64" font-family="Helvetica,sans-Serif" font-size="10.00">riot_version.h</text>
</a>
</g>
</g>
<!-- Node10&#45;&gt;Node12 -->
<g id="edge15_Node000010_Node000012" class="edge">
<title>Node10&#45;&gt;Node12</title>
<g id="a_edge15_Node000010_Node000012"><a xlink:title=" ">
<path fill="none" stroke="#63b8ff" d="M316.68,-170.04C318.92,-156.61 324.28,-131.78 335.31,-113.5 341.68,-102.95 351.05,-93.1 359.68,-85.29"/>
<polygon fill="#63b8ff" stroke="#63b8ff" points="361.78,-88.1 367.09,-78.93 357.22,-82.79 361.78,-88.1"/>
</a>
</g>
</g>
<!-- Node13 -->
<g id="Node000013" class="node">
<title>Node13</title>
<g id="a_Node000013"><a xlink:href="compiler__hints_8h.html" target="_top" xlink:title="Common macros and compiler attributes/pragmas configuration.">
<polygon fill="white" stroke="#666666" points="286.81,-134.25 189.81,-134.25 189.81,-113.5 286.81,-113.5 286.81,-134.25"/>
<text text-anchor="middle" x="238.31" y="-120.75" font-family="Helvetica,sans-Serif" font-size="10.00">compiler_hints.h</text>
</a>
</g>
</g>
<!-- Node10&#45;&gt;Node13 -->
<g id="edge17_Node000010_Node000013" class="edge">
<title>Node10&#45;&gt;Node13</title>
<g id="a_edge17_Node000010_Node000013"><a xlink:title=" ">
<path fill="none" stroke="#63b8ff" d="M301.55,-169.84C290.38,-161.9 274.4,-150.53 261.29,-141.21"/>
<polygon fill="#63b8ff" stroke="#63b8ff" points="263.37,-138.4 253.2,-135.46 259.32,-144.1 263.37,-138.4"/>
</a>
</g>
</g>
<!-- Node15 -->
<g id="Node000015" class="node">
<title>Node15</title>
<g id="a_Node000015"><a xlink:href="container_8h.html" target="_top" xlink:title="Common macros and compiler attributes/pragmas configuration.">
<polygon fill="white" stroke="#666666" points="210.69,-77.5 139.94,-77.5 139.94,-56.75 210.69,-56.75 210.69,-77.5"/>
<text text-anchor="middle" x="175.31" y="-64" font-family="Helvetica,sans-Serif" font-size="10.00">container.h</text>
</a>
</g>
</g>
<!-- Node10&#45;&gt;Node15 -->
<g id="edge21_Node000010_Node000015" class="edge">
<title>Node10&#45;&gt;Node15</title>
<g id="a_edge21_Node000010_Node000015"><a xlink:title=" ">
<path fill="none" stroke="#63b8ff" d="M266.75,-176.4C236.96,-171.69 200.73,-160.5 180.31,-134.25 170.47,-121.6 169.86,-103.15 171.34,-88.95"/>
<polygon fill="#63b8ff" stroke="#63b8ff" points="174.77,-89.73 172.79,-79.32 167.84,-88.69 174.77,-89.73"/>
</a>
</g>
</g>
<!-- Node12&#45;&gt;Node2 -->
<g id="edge16_Node000012_Node000002" class="edge">
<title>Node12&#45;&gt;Node2</title>
<g id="a_edge16_Node000012_Node000002"><a xlink:title=" ">
<path fill="none" stroke="#63b8ff" d="M360.76,-56.34C343.01,-47.89 317.13,-35.57 296.95,-25.96"/>
<polygon fill="#63b8ff" stroke="#63b8ff" points="298.6,-22.87 288.06,-21.73 295.59,-29.19 298.6,-22.87"/>
</a>
</g>
</g>
<!-- Node13&#45;&gt;Node2 -->
<g id="edge20_Node000013_Node000002" class="edge">
<title>Node13&#45;&gt;Node2</title>
<g id="a_edge20_Node000013_Node000002"><a xlink:title=" ">
<path fill="none" stroke="#63b8ff" d="M240.7,-113.37C245.18,-95.52 254.96,-56.61 261.05,-32.34"/>
<polygon fill="#63b8ff" stroke="#63b8ff" points="264.44,-33.19 263.49,-22.64 257.65,-31.49 264.44,-33.19"/>
</a>
</g>
</g>
<!-- Node14 -->
<g id="Node000014" class="node">
<title>Node14</title>
<g id="a_Node000014"><a xlink:href="assert_8h.html" target="_top" xlink:title="POSIX.1&#45;2008 compliant version of the assert macro.">
<polygon fill="white" stroke="#666666" points="321.81,-77.5 266.81,-77.5 266.81,-56.75 321.81,-56.75 321.81,-77.5"/>
<text text-anchor="middle" x="294.31" y="-64" font-family="Helvetica,sans-Serif" font-size="10.00">assert.h</text>
</a>
</g>
</g>
<!-- Node13&#45;&gt;Node14 -->
<g id="edge18_Node000013_Node000014" class="edge">
<title>Node13&#45;&gt;Node14</title>
<g id="a_edge18_Node000013_Node000014"><a xlink:title=" ">
<path fill="none" stroke="#63b8ff" d="M248.33,-113.09C256.05,-105.53 266.94,-94.89 276.19,-85.85"/>
<polygon fill="#63b8ff" stroke="#63b8ff" points="278.6,-88.38 283.31,-78.89 273.71,-83.37 278.6,-88.38"/>
</a>
</g>
</g>
<!-- Node14&#45;&gt;Node2 -->
<g id="edge19_Node000014_Node000002" class="edge">
<title>Node14&#45;&gt;Node2</title>
<g id="a_edge19_Node000014_Node000002"><a xlink:title=" ">
<path fill="none" stroke="#63b8ff" d="M289.31,-56.34C285.73,-49.33 280.78,-39.66 276.39,-31.08"/>
<polygon fill="#63b8ff" stroke="#63b8ff" points="279.64,-29.74 271.97,-22.43 273.4,-32.92 279.64,-29.74"/>
</a>
</g>
</g>
<!-- Node15&#45;&gt;Node2 -->
<g id="edge23_Node000015_Node000002" class="edge">
<title>Node15&#45;&gt;Node2</title>
<g id="a_edge23_Node000015_Node000002"><a xlink:title=" ">
<path fill="none" stroke="#63b8ff" d="M191.58,-56.34C205.17,-48.16 224.79,-36.36 240.52,-26.9"/>
<polygon fill="#63b8ff" stroke="#63b8ff" points="242.13,-30.01 248.89,-21.86 238.52,-24.02 242.13,-30.01"/>
</a>
</g>
</g>
<!-- Node15&#45;&gt;Node6 -->
<g id="edge22_Node000015_Node000006" class="edge">
<title>Node15&#45;&gt;Node6</title>
<g id="a_edge22_Node000015_Node000006"><a xlink:title=" ">
<path fill="none" stroke="#63b8ff" d="M152.61,-56.34C132.74,-47.77 103.64,-35.23 81.22,-25.56"/>
<polygon fill="#63b8ff" stroke="#63b8ff" points="82.78,-22.42 72.21,-21.68 80.01,-28.85 82.78,-22.42"/>
</a>
</g>
</g>
</g>
</svg>
