<?xml version="1.0" encoding="UTF-8" standalone="no"?>
<!DOCTYPE svg PUBLIC "-//W3C//DTD SVG 1.1//EN"
 "http://www.w3.org/Graphics/SVG/1.1/DTD/svg11.dtd">
<!-- Generated by graphviz version 12.1.1 (0)
 -->
<!-- Title: drivers/include/periph/can.h Pages: 1 -->
<svg width="276pt" height="111pt"
 viewBox="0.00 0.00 275.75 111.00" xmlns="http://www.w3.org/2000/svg" xmlns:xlink="http://www.w3.org/1999/xlink">
<g id="graph0" class="graph" transform="scale(1 1) rotate(0) translate(4 107)">
<title>drivers/include/periph/can.h</title>
<!-- Node1 -->
<g id="Node000001" class="node">
<title>Node1</title>
<g id="a_Node000001"><a xlink:title="Low&#45;level CAN peripheral driver interface definitions.">
<polygon fill="#999999" stroke="#666666" points="193.88,-103 72.12,-103 72.12,-69.5 193.88,-69.5 193.88,-103"/>
<text text-anchor="start" x="80.12" y="-89.5" font-family="Helvetica,sans-Serif" font-size="10.00">drivers/include/periph</text>
<text text-anchor="middle" x="133" y="-76.75" font-family="Helvetica,sans-Serif" font-size="10.00">/can.h</text>
</a>
</g>
</g>
<!-- Node2 -->
<g id="Node000002" class="node">
<title>Node2</title>
<g id="a_Node000002"><a xlink:href="esp32_2include_2can__params_8h.html" target="_top" xlink:title="ESP32 CAN controller driver (esp_can) default parameters.">
<polygon fill="white" stroke="#666666" points="124,-33.5 0,-33.5 0,0 124,0 124,-33.5"/>
<text text-anchor="start" x="8" y="-20" font-family="Helvetica,sans-Serif" font-size="10.00">cpu/esp32/include/can</text>
<text text-anchor="middle" x="62" y="-7.25" font-family="Helvetica,sans-Serif" font-size="10.00">_params.h</text>
</a>
</g>
</g>
<!-- Node1&#45;&gt;Node2 -->
<g id="edge1_Node000001_Node000002" class="edge">
<title>Node1&#45;&gt;Node2</title>
<g id="a_edge1_Node000001_Node000002"><a xlink:title=" ">
<path fill="none" stroke="#63b8ff" d="M108.02,-61.5C98.31,-52.27 87.44,-41.94 78.71,-33.63"/>
<polygon fill="#63b8ff" stroke="#63b8ff" points="105.42,-63.86 115.08,-68.21 110.24,-58.78 105.42,-63.86"/>
</a>
</g>
</g>
<!-- Node3 -->
<g id="Node000003" class="node">
<title>Node3</title>
<g id="a_Node000003"><a xlink:href="stm32_2include_2can__params_8h.html" target="_top" xlink:title="STM32 CAN controller driver (bxCAN) default parameters.">
<polygon fill="white" stroke="#666666" points="267.75,-33.5 142.25,-33.5 142.25,0 267.75,0 267.75,-33.5"/>
<text text-anchor="start" x="150.25" y="-20" font-family="Helvetica,sans-Serif" font-size="10.00">cpu/stm32/include/can</text>
<text text-anchor="middle" x="205" y="-7.25" font-family="Helvetica,sans-Serif" font-size="10.00">_params.h</text>
</a>
</g>
</g>
<!-- Node1&#45;&gt;Node3 -->
<g id="edge2_Node000001_Node000003" class="edge">
<title>Node1&#45;&gt;Node3</title>
<g id="a_edge2_Node000001_Node000003"><a xlink:title=" ">
<path fill="none" stroke="#63b8ff" d="M158.33,-61.5C168.18,-52.27 179.2,-41.94 188.06,-33.63"/>
<polygon fill="#63b8ff" stroke="#63b8ff" points="156.07,-58.83 151.17,-68.22 160.86,-63.93 156.07,-58.83"/>
</a>
</g>
</g>
</g>
</svg>
