<?xml version="1.0" encoding="UTF-8" standalone="no"?>
<!DOCTYPE svg PUBLIC "-//W3C//DTD SVG 1.1//EN"
 "http://www.w3.org/Graphics/SVG/1.1/DTD/svg11.dtd">
<!-- Generated by graphviz version 12.1.1 (0)
 -->
<!-- Title: boards/ek&#45;lm4f120xl/include/board.h Pages: 1 -->
<svg width="678pt" height="212pt"
 viewBox="0.00 0.00 678.32 211.75" xmlns="http://www.w3.org/2000/svg" xmlns:xlink="http://www.w3.org/1999/xlink">
<g id="graph0" class="graph" transform="scale(1 1) rotate(0) translate(4 207.75)">
<title>boards/ek&#45;lm4f120xl/include/board.h</title>
<!-- Node1 -->
<g id="Node000001" class="node">
<title>Node1</title>
<g id="a_Node000001"><a xlink:title="Board specific definitions for the Stellaris Launchpad LM4F120 board.">
<polygon fill="#999999" stroke="#666666" points="224.07,-203.75 106.82,-203.75 106.82,-170.25 224.07,-170.25 224.07,-203.75"/>
<text text-anchor="start" x="114.82" y="-190.25" font-family="Helvetica,sans-Serif" font-size="10.00">boards/ek&#45;lm4f120xl</text>
<text text-anchor="middle" x="165.44" y="-177.5" font-family="Helvetica,sans-Serif" font-size="10.00">/include/board.h</text>
</a>
</g>
</g>
<!-- Node2 -->
<g id="Node000002" class="node">
<title>Node2</title>
<g id="a_Node000002"><a xlink:title=" ">
<polygon fill="#e0e0e0" stroke="#999999" points="108.57,-134.25 66.32,-134.25 66.32,-113.5 108.57,-113.5 108.57,-134.25"/>
<text text-anchor="middle" x="87.44" y="-120.75" font-family="Helvetica,sans-Serif" font-size="10.00">cpu.h</text>
</a>
</g>
</g>
<!-- Node1&#45;&gt;Node2 -->
<g id="edge1_Node000001_Node000002" class="edge">
<title>Node1&#45;&gt;Node2</title>
<g id="a_edge1_Node000001_Node000002"><a xlink:title=" ">
<path fill="none" stroke="#63b8ff" d="M144.95,-169.94C133.8,-161.21 120.04,-150.42 108.77,-141.59"/>
<polygon fill="#63b8ff" stroke="#63b8ff" points="111.22,-139.06 101.19,-135.65 106.9,-144.57 111.22,-139.06"/>
</a>
</g>
</g>
<!-- Node3 -->
<g id="Node000003" class="node">
<title>Node3</title>
<g id="a_Node000003"><a xlink:href="drivers_2include_2periph_2uart_8h.html" target="_top" xlink:title="Low&#45;level UART peripheral driver interface definition.">
<polygon fill="white" stroke="#666666" points="204.57,-134.25 126.32,-134.25 126.32,-113.5 204.57,-113.5 204.57,-134.25"/>
<text text-anchor="middle" x="165.44" y="-120.75" font-family="Helvetica,sans-Serif" font-size="10.00">periph/uart.h</text>
</a>
</g>
</g>
<!-- Node1&#45;&gt;Node3 -->
<g id="edge2_Node000001_Node000003" class="edge">
<title>Node1&#45;&gt;Node3</title>
<g id="a_edge2_Node000001_Node000003"><a xlink:title=" ">
<path fill="none" stroke="#63b8ff" d="M165.44,-169.94C165.44,-162.6 165.44,-153.82 165.44,-145.96"/>
<polygon fill="#63b8ff" stroke="#63b8ff" points="168.94,-146.23 165.44,-136.23 161.94,-146.23 168.94,-146.23"/>
</a>
</g>
</g>
<!-- Node10 -->
<g id="Node000010" class="node">
<title>Node10</title>
<g id="a_Node000010"><a xlink:href="drivers_2include_2periph_2timer_8h.html" target="_top" xlink:title="Low&#45;level timer peripheral driver interface definitions.">
<polygon fill="white" stroke="#666666" points="441.94,-134.25 356.94,-134.25 356.94,-113.5 441.94,-113.5 441.94,-134.25"/>
<text text-anchor="middle" x="399.44" y="-120.75" font-family="Helvetica,sans-Serif" font-size="10.00">periph/timer.h</text>
</a>
</g>
</g>
<!-- Node1&#45;&gt;Node10 -->
<g id="edge9_Node000001_Node000010" class="edge">
<title>Node1&#45;&gt;Node10</title>
<g id="a_edge9_Node000001_Node000010"><a xlink:title=" ">
<path fill="none" stroke="#63b8ff" d="M224.49,-170.58C263.51,-160.38 314.03,-147.19 350.74,-137.6"/>
<polygon fill="#63b8ff" stroke="#63b8ff" points="351.41,-141.04 360.2,-135.13 349.64,-134.27 351.41,-141.04"/>
</a>
</g>
</g>
<!-- Node4 -->
<g id="Node000004" class="node">
<title>Node4</title>
<g id="a_Node000004"><a xlink:href="errno_8h.html" target="_top" xlink:title=" ">
<polygon fill="white" stroke="#666666" points="137.69,-77.5 87.19,-77.5 87.19,-56.75 137.69,-56.75 137.69,-77.5"/>
<text text-anchor="middle" x="112.44" y="-64" font-family="Helvetica,sans-Serif" font-size="10.00">errno.h</text>
</a>
</g>
</g>
<!-- Node3&#45;&gt;Node4 -->
<g id="edge3_Node000003_Node000004" class="edge">
<title>Node3&#45;&gt;Node4</title>
<g id="a_edge3_Node000003_Node000004"><a xlink:title=" ">
<path fill="none" stroke="#63b8ff" d="M155.97,-113.09C148.65,-105.53 138.35,-94.89 129.6,-85.85"/>
<polygon fill="#63b8ff" stroke="#63b8ff" points="132.36,-83.67 122.89,-78.92 127.33,-88.54 132.36,-83.67"/>
</a>
</g>
</g>
<!-- Node5 -->
<g id="Node000005" class="node">
<title>Node5</title>
<g id="a_Node000005"><a xlink:title=" ">
<polygon fill="#e0e0e0" stroke="#999999" points="459.82,-20.75 407.07,-20.75 407.07,0 459.82,0 459.82,-20.75"/>
<text text-anchor="middle" x="433.44" y="-7.25" font-family="Helvetica,sans-Serif" font-size="10.00">limits.h</text>
</a>
</g>
</g>
<!-- Node3&#45;&gt;Node5 -->
<g id="edge4_Node000003_Node000005" class="edge">
<title>Node3&#45;&gt;Node5</title>
<g id="a_edge4_Node000003_Node000005"><a xlink:title=" ">
<path fill="none" stroke="#63b8ff" d="M165.22,-113.12C165.47,-98.55 168.23,-71.23 184.44,-56.75 253.38,4.85 300,-37.45 395.5,-20.8"/>
<polygon fill="#63b8ff" stroke="#63b8ff" points="396.14,-24.24 405.28,-18.89 394.8,-17.37 396.14,-24.24"/>
</a>
</g>
</g>
<!-- Node6 -->
<g id="Node000006" class="node">
<title>Node6</title>
<g id="a_Node000006"><a xlink:title=" ">
<polygon fill="#e0e0e0" stroke="#999999" points="68.94,-77.5 13.94,-77.5 13.94,-56.75 68.94,-56.75 68.94,-77.5"/>
<text text-anchor="middle" x="41.44" y="-64" font-family="Helvetica,sans-Serif" font-size="10.00">stddef.h</text>
</a>
</g>
</g>
<!-- Node3&#45;&gt;Node6 -->
<g id="edge5_Node000003_Node000006" class="edge">
<title>Node3&#45;&gt;Node6</title>
<g id="a_edge5_Node000003_Node000006"><a xlink:title=" ">
<path fill="none" stroke="#63b8ff" d="M143.27,-113.09C123.96,-104.56 95.72,-92.09 73.87,-82.44"/>
<polygon fill="#63b8ff" stroke="#63b8ff" points="75.36,-79.28 64.8,-78.44 72.54,-85.68 75.36,-79.28"/>
</a>
</g>
</g>
<!-- Node7 -->
<g id="Node000007" class="node">
<title>Node7</title>
<g id="a_Node000007"><a xlink:title=" ">
<polygon fill="#e0e0e0" stroke="#999999" points="388.82,-20.75 336.07,-20.75 336.07,0 388.82,0 388.82,-20.75"/>
<text text-anchor="middle" x="362.44" y="-7.25" font-family="Helvetica,sans-Serif" font-size="10.00">stdint.h</text>
</a>
</g>
</g>
<!-- Node3&#45;&gt;Node7 -->
<g id="edge6_Node000003_Node000007" class="edge">
<title>Node3&#45;&gt;Node7</title>
<g id="a_edge6_Node000003_Node000007"><a xlink:title=" ">
<path fill="none" stroke="#63b8ff" d="M126.06,-114.37C80.85,-104.22 11.91,-87.37 4.44,-77.5 -1.13,-70.15 -1.66,-63.67 4.44,-56.75 25.38,-32.99 236.59,-18.46 324.43,-13.4"/>
<polygon fill="#63b8ff" stroke="#63b8ff" points="324.44,-16.9 334.22,-12.84 324.04,-9.91 324.44,-16.9"/>
</a>
</g>
</g>
<!-- Node8 -->
<g id="Node000008" class="node">
<title>Node8</title>
<g id="a_Node000008"><a xlink:title=" ">
<polygon fill="#e0e0e0" stroke="#999999" points="271.57,-77.5 193.32,-77.5 193.32,-56.75 271.57,-56.75 271.57,-77.5"/>
<text text-anchor="middle" x="232.44" y="-64" font-family="Helvetica,sans-Serif" font-size="10.00">periph_cpu.h</text>
</a>
</g>
</g>
<!-- Node3&#45;&gt;Node8 -->
<g id="edge7_Node000003_Node000008" class="edge">
<title>Node3&#45;&gt;Node8</title>
<g id="a_edge7_Node000003_Node000008"><a xlink:title=" ">
<path fill="none" stroke="#63b8ff" d="M177.42,-113.09C186.95,-105.3 200.5,-94.22 211.77,-85.01"/>
<polygon fill="#63b8ff" stroke="#63b8ff" points="213.87,-87.82 219.39,-78.79 209.44,-82.4 213.87,-87.82"/>
</a>
</g>
</g>
<!-- Node9 -->
<g id="Node000009" class="node">
<title>Node9</title>
<g id="a_Node000009"><a xlink:title=" ">
<polygon fill="#e0e0e0" stroke="#999999" points="371.07,-77.5 289.82,-77.5 289.82,-56.75 371.07,-56.75 371.07,-77.5"/>
<text text-anchor="middle" x="330.44" y="-64" font-family="Helvetica,sans-Serif" font-size="10.00">periph_conf.h</text>
</a>
</g>
</g>
<!-- Node3&#45;&gt;Node9 -->
<g id="edge8_Node000003_Node000009" class="edge">
<title>Node3&#45;&gt;Node9</title>
<g id="a_edge8_Node000003_Node000009"><a xlink:title=" ">
<path fill="none" stroke="#63b8ff" d="M194.94,-113.09C221.49,-104.28 260.74,-91.25 290.17,-81.49"/>
<polygon fill="#63b8ff" stroke="#63b8ff" points="291.09,-84.87 299.48,-78.4 288.89,-78.22 291.09,-84.87"/>
</a>
</g>
</g>
<!-- Node10&#45;&gt;Node5 -->
<g id="edge10_Node000010_Node000005" class="edge">
<title>Node10&#45;&gt;Node5</title>
<g id="a_edge10_Node000010_Node000005"><a xlink:title=" ">
<path fill="none" stroke="#63b8ff" d="M402.46,-113.14C405.31,-103.96 409.68,-89.8 413.44,-77.5 418.11,-62.22 423.33,-44.94 427.27,-31.87"/>
<polygon fill="#63b8ff" stroke="#63b8ff" points="430.51,-33.27 430.04,-22.69 423.8,-31.25 430.51,-33.27"/>
</a>
</g>
</g>
<!-- Node10&#45;&gt;Node7 -->
<g id="edge11_Node000010_Node000007" class="edge">
<title>Node10&#45;&gt;Node7</title>
<g id="a_edge11_Node000010_Node000007"><a xlink:title=" ">
<path fill="none" stroke="#63b8ff" d="M397.02,-113.37C393.66,-100.44 387.23,-76.65 380.44,-56.75 377.61,-48.44 374.12,-39.43 370.97,-31.64"/>
<polygon fill="#63b8ff" stroke="#63b8ff" points="374.21,-30.31 367.16,-22.41 367.74,-32.99 374.21,-30.31"/>
</a>
</g>
</g>
<!-- Node10&#45;&gt;Node8 -->
<g id="edge18_Node000010_Node000008" class="edge">
<title>Node10&#45;&gt;Node8</title>
<g id="a_edge18_Node000010_Node000008"><a xlink:title=" ">
<path fill="none" stroke="#63b8ff" d="M369.58,-113.09C342.71,-104.28 302.99,-91.25 273.2,-81.49"/>
<polygon fill="#63b8ff" stroke="#63b8ff" points="274.35,-78.18 263.76,-78.39 272.17,-84.83 274.35,-78.18"/>
</a>
</g>
</g>
<!-- Node10&#45;&gt;Node9 -->
<g id="edge19_Node000010_Node000009" class="edge">
<title>Node10&#45;&gt;Node9</title>
<g id="a_edge19_Node000010_Node000009"><a xlink:title=" ">
<path fill="none" stroke="#63b8ff" d="M387.1,-113.09C377.19,-105.22 363.05,-94 351.38,-84.74"/>
<polygon fill="#63b8ff" stroke="#63b8ff" points="353.86,-82.24 343.86,-78.77 349.51,-87.73 353.86,-82.24"/>
</a>
</g>
</g>
<!-- Node11 -->
<g id="Node000011" class="node">
<title>Node11</title>
<g id="a_Node000011"><a xlink:title=" ">
<polygon fill="#e0e0e0" stroke="#999999" points="627.94,-77.5 566.94,-77.5 566.94,-56.75 627.94,-56.75 627.94,-77.5"/>
<text text-anchor="middle" x="597.44" y="-64" font-family="Helvetica,sans-Serif" font-size="10.00">stdbool.h</text>
</a>
</g>
</g>
<!-- Node10&#45;&gt;Node11 -->
<g id="edge12_Node000010_Node000011" class="edge">
<title>Node10&#45;&gt;Node11</title>
<g id="a_edge12_Node000010_Node000011"><a xlink:title=" ">
<path fill="none" stroke="#63b8ff" d="M434.84,-113.09C468.66,-103.73 519.67,-89.63 555.51,-79.72"/>
<polygon fill="#63b8ff" stroke="#63b8ff" points="556.41,-83.1 565.12,-77.06 554.55,-76.35 556.41,-83.1"/>
</a>
</g>
</g>
<!-- Node12 -->
<g id="Node000012" class="node">
<title>Node12</title>
<g id="a_Node000012"><a xlink:href="architecture_8h.html" target="_top" xlink:title="Platform&#45;independent access to architecture details.">
<polygon fill="white" stroke="#666666" points="549.19,-77.5 465.69,-77.5 465.69,-56.75 549.19,-56.75 549.19,-77.5"/>
<text text-anchor="middle" x="507.44" y="-64" font-family="Helvetica,sans-Serif" font-size="10.00">architecture.h</text>
</a>
</g>
</g>
<!-- Node10&#45;&gt;Node12 -->
<g id="edge13_Node000010_Node000012" class="edge">
<title>Node10&#45;&gt;Node12</title>
<g id="a_edge13_Node000010_Node000012"><a xlink:title=" ">
<path fill="none" stroke="#63b8ff" d="M418.75,-113.09C435.26,-104.72 459.27,-92.54 478.15,-82.97"/>
<polygon fill="#63b8ff" stroke="#63b8ff" points="479.61,-86.16 486.95,-78.51 476.45,-79.91 479.61,-86.16"/>
</a>
</g>
</g>
<!-- Node12&#45;&gt;Node5 -->
<g id="edge16_Node000012_Node000005" class="edge">
<title>Node12&#45;&gt;Node5</title>
<g id="a_edge16_Node000012_Node000005"><a xlink:title=" ">
<path fill="none" stroke="#63b8ff" d="M494.21,-56.34C483.48,-48.4 468.12,-37.03 455.52,-27.71"/>
<polygon fill="#63b8ff" stroke="#63b8ff" points="457.89,-25.11 447.77,-21.98 453.73,-30.74 457.89,-25.11"/>
</a>
</g>
</g>
<!-- Node12&#45;&gt;Node7 -->
<g id="edge14_Node000012_Node000007" class="edge">
<title>Node12&#45;&gt;Node7</title>
<g id="a_edge14_Node000012_Node000007"><a xlink:title=" ">
<path fill="none" stroke="#63b8ff" d="M481.52,-56.34C458.42,-47.62 424.4,-34.77 398.62,-25.04"/>
<polygon fill="#63b8ff" stroke="#63b8ff" points="400.15,-21.87 389.56,-21.61 397.67,-28.42 400.15,-21.87"/>
</a>
</g>
</g>
<!-- Node13 -->
<g id="Node000013" class="node">
<title>Node13</title>
<g id="a_Node000013"><a xlink:href="inttypes_8h.html" target="_top" xlink:title="Adds include for missing inttype definitions.">
<polygon fill="white" stroke="#666666" points="542.82,-20.75 478.07,-20.75 478.07,0 542.82,0 542.82,-20.75"/>
<text text-anchor="middle" x="510.44" y="-7.25" font-family="Helvetica,sans-Serif" font-size="10.00">inttypes.h</text>
</a>
</g>
</g>
<!-- Node12&#45;&gt;Node13 -->
<g id="edge15_Node000012_Node000013" class="edge">
<title>Node12&#45;&gt;Node13</title>
<g id="a_edge15_Node000012_Node000013"><a xlink:title=" ">
<path fill="none" stroke="#63b8ff" d="M507.98,-56.34C508.34,-49.72 508.83,-40.72 509.28,-32.52"/>
<polygon fill="#63b8ff" stroke="#63b8ff" points="512.77,-32.77 509.83,-22.59 505.78,-32.38 512.77,-32.77"/>
</a>
</g>
</g>
<!-- Node14 -->
<g id="Node000014" class="node">
<title>Node14</title>
<g id="a_Node000014"><a xlink:title=" ">
<polygon fill="#e0e0e0" stroke="#999999" points="670.32,-20.75 560.57,-20.75 560.57,0 670.32,0 670.32,-20.75"/>
<text text-anchor="middle" x="615.44" y="-7.25" font-family="Helvetica,sans-Serif" font-size="10.00">architecture_arch.h</text>
</a>
</g>
</g>
<!-- Node12&#45;&gt;Node14 -->
<g id="edge17_Node000012_Node000014" class="edge">
<title>Node12&#45;&gt;Node14</title>
<g id="a_edge17_Node000012_Node000014"><a xlink:title=" ">
<path fill="none" stroke="#63b8ff" d="M526.75,-56.34C543.26,-47.97 567.27,-35.79 586.15,-26.22"/>
<polygon fill="#63b8ff" stroke="#63b8ff" points="587.61,-29.41 594.95,-21.76 584.45,-23.16 587.61,-29.41"/>
</a>
</g>
</g>
</g>
</svg>
