<?xml version="1.0" encoding="UTF-8" standalone="no"?>
<!DOCTYPE svg PUBLIC "-//W3C//DTD SVG 1.1//EN"
 "http://www.w3.org/Graphics/SVG/1.1/DTD/svg11.dtd">
<!-- Generated by graphviz version 12.1.1 (0)
 -->
<!-- Title: sys/include/entropy_source.h Pages: 1 -->
<svg width="219pt" height="155pt"
 viewBox="0.00 0.00 219.00 155.00" xmlns="http://www.w3.org/2000/svg" xmlns:xlink="http://www.w3.org/1999/xlink">
<g id="graph0" class="graph" transform="scale(1 1) rotate(0) translate(4 151)">
<title>sys/include/entropy_source.h</title>
<!-- Node1 -->
<g id="Node000001" class="node">
<title>Node1</title>
<g id="a_Node000001"><a xlink:title=" ">
<polygon fill="#999999" stroke="#666666" points="161.12,-147 49.88,-147 49.88,-113.5 161.12,-113.5 161.12,-147"/>
<text text-anchor="start" x="57.88" y="-133.5" font-family="Helvetica,sans-Serif" font-size="10.00">sys/include/entropy</text>
<text text-anchor="middle" x="105.5" y="-120.75" font-family="Helvetica,sans-Serif" font-size="10.00">_source.h</text>
</a>
</g>
</g>
<!-- Node2 -->
<g id="Node000002" class="node">
<title>Node2</title>
<g id="a_Node000002"><a xlink:title=" ">
<polygon fill="#e0e0e0" stroke="#999999" points="55,-77.5 0,-77.5 0,-56.75 55,-56.75 55,-77.5"/>
<text text-anchor="middle" x="27.5" y="-64" font-family="Helvetica,sans-Serif" font-size="10.00">stddef.h</text>
</a>
</g>
</g>
<!-- Node1&#45;&gt;Node2 -->
<g id="edge1_Node000001_Node000002" class="edge">
<title>Node1&#45;&gt;Node2</title>
<g id="a_edge1_Node000001_Node000002"><a xlink:title=" ">
<path fill="none" stroke="#63b8ff" d="M85.01,-113.19C73.86,-104.46 60.1,-93.67 48.83,-84.84"/>
<polygon fill="#63b8ff" stroke="#63b8ff" points="51.28,-82.31 41.25,-78.9 46.96,-87.82 51.28,-82.31"/>
</a>
</g>
</g>
<!-- Node3 -->
<g id="Node000003" class="node">
<title>Node3</title>
<g id="a_Node000003"><a xlink:href="inttypes_8h.html" target="_top" xlink:title="Adds include for missing inttype definitions.">
<polygon fill="white" stroke="#666666" points="137.88,-77.5 73.12,-77.5 73.12,-56.75 137.88,-56.75 137.88,-77.5"/>
<text text-anchor="middle" x="105.5" y="-64" font-family="Helvetica,sans-Serif" font-size="10.00">inttypes.h</text>
</a>
</g>
</g>
<!-- Node1&#45;&gt;Node3 -->
<g id="edge2_Node000001_Node000003" class="edge">
<title>Node1&#45;&gt;Node3</title>
<g id="a_edge2_Node000001_Node000003"><a xlink:title=" ">
<path fill="none" stroke="#63b8ff" d="M105.5,-113.19C105.5,-105.85 105.5,-97.07 105.5,-89.21"/>
<polygon fill="#63b8ff" stroke="#63b8ff" points="109,-89.48 105.5,-79.48 102,-89.48 109,-89.48"/>
</a>
</g>
</g>
<!-- Node4 -->
<g id="Node000004" class="node">
<title>Node4</title>
<g id="a_Node000004"><a xlink:href="assert_8h.html" target="_top" xlink:title="POSIX.1&#45;2008 compliant version of the assert macro.">
<polygon fill="white" stroke="#666666" points="211,-77.5 156,-77.5 156,-56.75 211,-56.75 211,-77.5"/>
<text text-anchor="middle" x="183.5" y="-64" font-family="Helvetica,sans-Serif" font-size="10.00">assert.h</text>
</a>
</g>
</g>
<!-- Node1&#45;&gt;Node4 -->
<g id="edge3_Node000001_Node000004" class="edge">
<title>Node1&#45;&gt;Node4</title>
<g id="a_edge3_Node000001_Node000004"><a xlink:title=" ">
<path fill="none" stroke="#63b8ff" d="M125.99,-113.19C137.14,-104.46 150.9,-93.67 162.17,-84.84"/>
<polygon fill="#63b8ff" stroke="#63b8ff" points="164.04,-87.82 169.75,-78.9 159.72,-82.31 164.04,-87.82"/>
</a>
</g>
</g>
<!-- Node5 -->
<g id="Node000005" class="node">
<title>Node5</title>
<g id="a_Node000005"><a xlink:title=" ">
<polygon fill="#e0e0e0" stroke="#999999" points="209.88,-20.75 157.12,-20.75 157.12,0 209.88,0 209.88,-20.75"/>
<text text-anchor="middle" x="183.5" y="-7.25" font-family="Helvetica,sans-Serif" font-size="10.00">stdint.h</text>
</a>
</g>
</g>
<!-- Node4&#45;&gt;Node5 -->
<g id="edge4_Node000004_Node000005" class="edge">
<title>Node4&#45;&gt;Node5</title>
<g id="a_edge4_Node000004_Node000005"><a xlink:title=" ">
<path fill="none" stroke="#63b8ff" d="M183.5,-56.34C183.5,-49.72 183.5,-40.72 183.5,-32.52"/>
<polygon fill="#63b8ff" stroke="#63b8ff" points="187,-32.59 183.5,-22.59 180,-32.59 187,-32.59"/>
</a>
</g>
</g>
</g>
</svg>
