<?xml version="1.0" encoding="UTF-8" standalone="no"?>
<!DOCTYPE svg PUBLIC "-//W3C//DTD SVG 1.1//EN"
 "http://www.w3.org/Graphics/SVG/1.1/DTD/svg11.dtd">
<!-- Generated by graphviz version 12.1.1 (0)
 -->
<!-- Title: drivers/include/epd_bw_spi.h Pages: 1 -->
<svg width="498pt" height="212pt"
 viewBox="0.00 0.00 498.38 211.75" xmlns="http://www.w3.org/2000/svg" xmlns:xlink="http://www.w3.org/1999/xlink">
<g id="graph0" class="graph" transform="scale(1 1) rotate(0) translate(4 207.75)">
<title>drivers/include/epd_bw_spi.h</title>
<!-- Node1 -->
<g id="Node000001" class="node">
<title>Node1</title>
<g id="a_Node000001"><a xlink:title="Generic black/white e&#45;paper/e&#45;ink display SPI driver.">
<polygon fill="#999999" stroke="#666666" points="363,-203.75 254,-203.75 254,-170.25 363,-170.25 363,-203.75"/>
<text text-anchor="start" x="262" y="-190.25" font-family="Helvetica,sans-Serif" font-size="10.00">drivers/include/epd</text>
<text text-anchor="middle" x="308.5" y="-177.5" font-family="Helvetica,sans-Serif" font-size="10.00">_bw_spi.h</text>
</a>
</g>
</g>
<!-- Node2 -->
<g id="Node000002" class="node">
<title>Node2</title>
<g id="a_Node000002"><a xlink:href="spi_8h.html" target="_top" xlink:title="Low&#45;level SPI peripheral driver interface definition.">
<polygon fill="white" stroke="#666666" points="313,-134.25 240,-134.25 240,-113.5 313,-113.5 313,-134.25"/>
<text text-anchor="middle" x="276.5" y="-120.75" font-family="Helvetica,sans-Serif" font-size="10.00">periph/spi.h</text>
</a>
</g>
</g>
<!-- Node1&#45;&gt;Node2 -->
<g id="edge1_Node000001_Node000002" class="edge">
<title>Node1&#45;&gt;Node2</title>
<g id="a_edge1_Node000001_Node000002"><a xlink:title=" ">
<path fill="none" stroke="#63b8ff" d="M300.09,-169.94C296.07,-162.26 291.21,-152.98 286.95,-144.84"/>
<polygon fill="#63b8ff" stroke="#63b8ff" points="290.09,-143.29 282.35,-136.06 283.89,-146.54 290.09,-143.29"/>
</a>
</g>
</g>
<!-- Node10 -->
<g id="Node000010" class="node">
<title>Node10</title>
<g id="a_Node000010"><a xlink:href="drivers_2include_2periph_2gpio_8h.html" target="_top" xlink:title="Low&#45;level GPIO peripheral driver interface definitions.">
<polygon fill="white" stroke="#666666" points="490.38,-77.5 410.62,-77.5 410.62,-56.75 490.38,-56.75 490.38,-77.5"/>
<text text-anchor="middle" x="450.5" y="-64" font-family="Helvetica,sans-Serif" font-size="10.00">periph/gpio.h</text>
</a>
</g>
</g>
<!-- Node1&#45;&gt;Node10 -->
<g id="edge14_Node000001_Node000010" class="edge">
<title>Node1&#45;&gt;Node10</title>
<g id="a_edge14_Node000001_Node000010"><a xlink:title=" ">
<path fill="none" stroke="#63b8ff" d="M327.95,-169.86C354.72,-147.63 402.7,-107.8 430.01,-85.13"/>
<polygon fill="#63b8ff" stroke="#63b8ff" points="432.12,-87.93 437.58,-78.85 427.65,-82.55 432.12,-87.93"/>
</a>
</g>
</g>
<!-- Node3 -->
<g id="Node000003" class="node">
<title>Node3</title>
<g id="a_Node000003"><a xlink:href="endian_8h.html" target="_top" xlink:title="libc header for endian conversion">
<polygon fill="white" stroke="#666666" points="248.5,-77.5 190.5,-77.5 190.5,-56.75 248.5,-56.75 248.5,-77.5"/>
<text text-anchor="middle" x="219.5" y="-64" font-family="Helvetica,sans-Serif" font-size="10.00">endian.h</text>
</a>
</g>
</g>
<!-- Node2&#45;&gt;Node3 -->
<g id="edge2_Node000002_Node000003" class="edge">
<title>Node2&#45;&gt;Node3</title>
<g id="a_edge2_Node000002_Node000003"><a xlink:title=" ">
<path fill="none" stroke="#63b8ff" d="M266.31,-113.09C258.37,-105.46 247.13,-94.67 237.66,-85.57"/>
<polygon fill="#63b8ff" stroke="#63b8ff" points="240.33,-83.28 230.69,-78.88 235.48,-88.33 240.33,-83.28"/>
</a>
</g>
</g>
<!-- Node4 -->
<g id="Node000004" class="node">
<title>Node4</title>
<g id="a_Node000004"><a xlink:title=" ">
<polygon fill="#e0e0e0" stroke="#999999" points="203.88,-20.75 151.12,-20.75 151.12,0 203.88,0 203.88,-20.75"/>
<text text-anchor="middle" x="177.5" y="-7.25" font-family="Helvetica,sans-Serif" font-size="10.00">stdint.h</text>
</a>
</g>
</g>
<!-- Node2&#45;&gt;Node4 -->
<g id="edge7_Node000002_Node000004" class="edge">
<title>Node2&#45;&gt;Node4</title>
<g id="a_edge7_Node000002_Node000004"><a xlink:title=" ">
<path fill="none" stroke="#63b8ff" d="M239.76,-115.04C219.07,-108.6 194.78,-97.21 181.5,-77.5 172.64,-64.35 172.16,-46.2 173.61,-32.24"/>
<polygon fill="#63b8ff" stroke="#63b8ff" points="177.07,-32.76 175.07,-22.36 170.14,-31.74 177.07,-32.76"/>
</a>
</g>
</g>
<!-- Node5 -->
<g id="Node000005" class="node">
<title>Node5</title>
<g id="a_Node000005"><a xlink:href="errno_8h.html" target="_top" xlink:title=" ">
<polygon fill="white" stroke="#666666" points="392.75,-77.5 342.25,-77.5 342.25,-56.75 392.75,-56.75 392.75,-77.5"/>
<text text-anchor="middle" x="367.5" y="-64" font-family="Helvetica,sans-Serif" font-size="10.00">errno.h</text>
</a>
</g>
</g>
<!-- Node2&#45;&gt;Node5 -->
<g id="edge4_Node000002_Node000005" class="edge">
<title>Node2&#45;&gt;Node5</title>
<g id="a_edge4_Node000002_Node000005"><a xlink:title=" ">
<path fill="none" stroke="#63b8ff" d="M292.77,-113.09C306.36,-104.91 325.97,-93.11 341.7,-83.65"/>
<polygon fill="#63b8ff" stroke="#63b8ff" points="343.31,-86.76 350.07,-78.61 339.7,-80.77 343.31,-86.76"/>
</a>
</g>
</g>
<!-- Node6 -->
<g id="Node000006" class="node">
<title>Node6</title>
<g id="a_Node000006"><a xlink:title=" ">
<polygon fill="#e0e0e0" stroke="#999999" points="61,-77.5 0,-77.5 0,-56.75 61,-56.75 61,-77.5"/>
<text text-anchor="middle" x="30.5" y="-64" font-family="Helvetica,sans-Serif" font-size="10.00">stdbool.h</text>
</a>
</g>
</g>
<!-- Node2&#45;&gt;Node6 -->
<g id="edge5_Node000002_Node000006" class="edge">
<title>Node2&#45;&gt;Node6</title>
<g id="a_edge5_Node000002_Node000006"><a xlink:title=" ">
<path fill="none" stroke="#63b8ff" d="M239.81,-115.06C200.65,-106.68 136.53,-92.8 72.29,-78.11"/>
<polygon fill="#63b8ff" stroke="#63b8ff" points="73.15,-74.72 62.62,-75.89 71.58,-81.54 73.15,-74.72"/>
</a>
</g>
</g>
<!-- Node7 -->
<g id="Node000007" class="node">
<title>Node7</title>
<g id="a_Node000007"><a xlink:title=" ">
<polygon fill="#e0e0e0" stroke="#999999" points="134,-77.5 79,-77.5 79,-56.75 134,-56.75 134,-77.5"/>
<text text-anchor="middle" x="106.5" y="-64" font-family="Helvetica,sans-Serif" font-size="10.00">stddef.h</text>
</a>
</g>
</g>
<!-- Node2&#45;&gt;Node7 -->
<g id="edge6_Node000002_Node000007" class="edge">
<title>Node2&#45;&gt;Node7</title>
<g id="a_edge6_Node000002_Node000007"><a xlink:title=" ">
<path fill="none" stroke="#63b8ff" d="M246.11,-113.09C217.87,-103.99 175.68,-90.41 145.08,-80.55"/>
<polygon fill="#63b8ff" stroke="#63b8ff" points="146.41,-77.3 135.82,-77.57 144.26,-83.96 146.41,-77.3"/>
</a>
</g>
</g>
<!-- Node8 -->
<g id="Node000008" class="node">
<title>Node8</title>
<g id="a_Node000008"><a xlink:title=" ">
<polygon fill="#e0e0e0" stroke="#999999" points="315.62,-20.75 237.38,-20.75 237.38,0 315.62,0 315.62,-20.75"/>
<text text-anchor="middle" x="276.5" y="-7.25" font-family="Helvetica,sans-Serif" font-size="10.00">periph_cpu.h</text>
</a>
</g>
</g>
<!-- Node2&#45;&gt;Node8 -->
<g id="edge8_Node000002_Node000008" class="edge">
<title>Node2&#45;&gt;Node8</title>
<g id="a_edge8_Node000002_Node000008"><a xlink:title=" ">
<path fill="none" stroke="#63b8ff" d="M276.5,-113.37C276.5,-95.6 276.5,-56.97 276.5,-32.68"/>
<polygon fill="#63b8ff" stroke="#63b8ff" points="280,-32.69 276.5,-22.69 273,-32.69 280,-32.69"/>
</a>
</g>
</g>
<!-- Node9 -->
<g id="Node000009" class="node">
<title>Node9</title>
<g id="a_Node000009"><a xlink:title=" ">
<polygon fill="#e0e0e0" stroke="#999999" points="415.12,-20.75 333.88,-20.75 333.88,0 415.12,0 415.12,-20.75"/>
<text text-anchor="middle" x="374.5" y="-7.25" font-family="Helvetica,sans-Serif" font-size="10.00">periph_conf.h</text>
</a>
</g>
</g>
<!-- Node2&#45;&gt;Node9 -->
<g id="edge9_Node000002_Node000009" class="edge">
<title>Node2&#45;&gt;Node9</title>
<g id="a_edge9_Node000002_Node000009"><a xlink:title=" ">
<path fill="none" stroke="#63b8ff" d="M284.55,-113.4C295.53,-100.5 315.85,-76.75 333.5,-56.75 341.46,-47.73 350.41,-37.8 357.91,-29.54"/>
<polygon fill="#63b8ff" stroke="#63b8ff" points="360.47,-31.92 364.62,-22.17 355.3,-27.21 360.47,-31.92"/>
</a>
</g>
</g>
<!-- Node2&#45;&gt;Node10 -->
<g id="edge10_Node000002_Node000010" class="edge">
<title>Node2&#45;&gt;Node10</title>
<g id="a_edge10_Node000002_Node000010"><a xlink:title=" ">
<path fill="none" stroke="#63b8ff" d="M307.61,-113.09C335.73,-104.24 377.36,-91.14 408.44,-81.36"/>
<polygon fill="#63b8ff" stroke="#63b8ff" points="409.44,-84.72 417.93,-78.37 407.34,-78.04 409.44,-84.72"/>
</a>
</g>
</g>
<!-- Node3&#45;&gt;Node4 -->
<g id="edge3_Node000003_Node000004" class="edge">
<title>Node3&#45;&gt;Node4</title>
<g id="a_edge3_Node000003_Node000004"><a xlink:title=" ">
<path fill="none" stroke="#63b8ff" d="M211.99,-56.34C206.38,-49.02 198.53,-38.79 191.74,-29.94"/>
<polygon fill="#63b8ff" stroke="#63b8ff" points="194.73,-28.08 185.86,-22.28 189.17,-32.34 194.73,-28.08"/>
</a>
</g>
</g>
<!-- Node10&#45;&gt;Node8 -->
<g id="edge12_Node000010_Node000008" class="edge">
<title>Node10&#45;&gt;Node8</title>
<g id="a_edge12_Node000010_Node000008"><a xlink:title=" ">
<path fill="none" stroke="#63b8ff" d="M419.39,-56.34C391.27,-47.49 349.64,-34.39 318.56,-24.61"/>
<polygon fill="#63b8ff" stroke="#63b8ff" points="319.66,-21.29 309.07,-21.62 317.56,-27.97 319.66,-21.29"/>
</a>
</g>
</g>
<!-- Node10&#45;&gt;Node9 -->
<g id="edge13_Node000010_Node000009" class="edge">
<title>Node10&#45;&gt;Node9</title>
<g id="a_edge13_Node000010_Node000009"><a xlink:title=" ">
<path fill="none" stroke="#63b8ff" d="M436.91,-56.34C425.89,-48.4 410.11,-37.03 397.18,-27.71"/>
<polygon fill="#63b8ff" stroke="#63b8ff" points="399.36,-24.97 389.2,-21.96 395.27,-30.65 399.36,-24.97"/>
</a>
</g>
</g>
<!-- Node11 -->
<g id="Node000011" class="node">
<title>Node11</title>
<g id="a_Node000011"><a xlink:title=" ">
<polygon fill="#e0e0e0" stroke="#999999" points="485.88,-20.75 433.12,-20.75 433.12,0 485.88,0 485.88,-20.75"/>
<text text-anchor="middle" x="459.5" y="-7.25" font-family="Helvetica,sans-Serif" font-size="10.00">limits.h</text>
</a>
</g>
</g>
<!-- Node10&#45;&gt;Node11 -->
<g id="edge11_Node000010_Node000011" class="edge">
<title>Node10&#45;&gt;Node11</title>
<g id="a_edge11_Node000010_Node000011"><a xlink:title=" ">
<path fill="none" stroke="#63b8ff" d="M452.11,-56.34C453.21,-49.64 454.71,-40.51 456.07,-32.23"/>
<polygon fill="#63b8ff" stroke="#63b8ff" points="459.49,-33.01 457.66,-22.57 452.58,-31.87 459.49,-33.01"/>
</a>
</g>
</g>
</g>
</svg>
