<?xml version="1.0" encoding="UTF-8" standalone="no"?>
<!DOCTYPE svg PUBLIC "-//W3C//DTD SVG 1.1//EN"
 "http://www.w3.org/Graphics/SVG/1.1/DTD/svg11.dtd">
<!-- Generated by graphviz version 12.1.1 (0)
 -->
<!-- Title: boards/common/esp32x/include/board_common.h Pages: 1 -->
<svg width="349pt" height="155pt"
 viewBox="0.00 0.00 348.50 155.00" xmlns="http://www.w3.org/2000/svg" xmlns:xlink="http://www.w3.org/1999/xlink">
<g id="graph0" class="graph" transform="scale(1 1) rotate(0) translate(4 151)">
<title>boards/common/esp32x/include/board_common.h</title>
<!-- Node1 -->
<g id="Node000001" class="node">
<title>Node1</title>
<g id="a_Node000001"><a xlink:title="Board definitions that are common for all ESP32x boards.">
<polygon fill="#999999" stroke="#666666" points="212.38,-147 70.38,-147 70.38,-113.5 212.38,-113.5 212.38,-147"/>
<text text-anchor="start" x="78.38" y="-133.5" font-family="Helvetica,sans-Serif" font-size="10.00">boards/common/esp32x</text>
<text text-anchor="middle" x="141.38" y="-120.75" font-family="Helvetica,sans-Serif" font-size="10.00">/include/board_common.h</text>
</a>
</g>
</g>
<!-- Node2 -->
<g id="Node000002" class="node">
<title>Node2</title>
<g id="a_Node000002"><a xlink:title=" ">
<polygon fill="#e0e0e0" stroke="#999999" points="52.75,-77.5 0,-77.5 0,-56.75 52.75,-56.75 52.75,-77.5"/>
<text text-anchor="middle" x="26.38" y="-64" font-family="Helvetica,sans-Serif" font-size="10.00">stdint.h</text>
</a>
</g>
</g>
<!-- Node1&#45;&gt;Node2 -->
<g id="edge1_Node000001_Node000002" class="edge">
<title>Node1&#45;&gt;Node2</title>
<g id="a_edge1_Node000001_Node000002"><a xlink:title=" ">
<path fill="none" stroke="#63b8ff" d="M110.86,-113.03C93.45,-103.77 71.76,-92.25 54.72,-83.19"/>
<polygon fill="#63b8ff" stroke="#63b8ff" points="56.6,-80.23 46.13,-78.63 53.32,-86.41 56.6,-80.23"/>
</a>
</g>
</g>
<!-- Node3 -->
<g id="Node000003" class="node">
<title>Node3</title>
<g id="a_Node000003"><a xlink:title=" ">
<polygon fill="#e0e0e0" stroke="#999999" points="113.5,-77.5 71.25,-77.5 71.25,-56.75 113.5,-56.75 113.5,-77.5"/>
<text text-anchor="middle" x="92.38" y="-64" font-family="Helvetica,sans-Serif" font-size="10.00">cpu.h</text>
</a>
</g>
</g>
<!-- Node1&#45;&gt;Node3 -->
<g id="edge2_Node000001_Node000003" class="edge">
<title>Node1&#45;&gt;Node3</title>
<g id="a_edge2_Node000001_Node000003"><a xlink:title=" ">
<path fill="none" stroke="#63b8ff" d="M128.5,-113.19C121.99,-105.07 114.05,-95.17 107.28,-86.72"/>
<polygon fill="#63b8ff" stroke="#63b8ff" points="110.2,-84.76 101.21,-79.15 104.74,-89.14 110.2,-84.76"/>
</a>
</g>
</g>
<!-- Node4 -->
<g id="Node000004" class="node">
<title>Node4</title>
<g id="a_Node000004"><a xlink:title=" ">
<polygon fill="#e0e0e0" stroke="#999999" points="173,-20.75 91.75,-20.75 91.75,0 173,0 173,-20.75"/>
<text text-anchor="middle" x="132.38" y="-7.25" font-family="Helvetica,sans-Serif" font-size="10.00">periph_conf.h</text>
</a>
</g>
</g>
<!-- Node1&#45;&gt;Node4 -->
<g id="edge3_Node000001_Node000004" class="edge">
<title>Node1&#45;&gt;Node4</title>
<g id="a_edge3_Node000001_Node000004"><a xlink:title=" ">
<path fill="none" stroke="#63b8ff" d="M140.16,-113.35C138.57,-92.46 135.76,-55.71 133.99,-32.5"/>
<polygon fill="#63b8ff" stroke="#63b8ff" points="137.49,-32.4 133.24,-22.69 130.51,-32.93 137.49,-32.4"/>
</a>
</g>
</g>
<!-- Node5 -->
<g id="Node000005" class="node">
<title>Node5</title>
<g id="a_Node000005"><a xlink:href="drivers_2include_2periph_2gpio_8h.html" target="_top" xlink:title="Low&#45;level GPIO peripheral driver interface definitions.">
<polygon fill="white" stroke="#666666" points="249.25,-77.5 169.5,-77.5 169.5,-56.75 249.25,-56.75 249.25,-77.5"/>
<text text-anchor="middle" x="209.38" y="-64" font-family="Helvetica,sans-Serif" font-size="10.00">periph/gpio.h</text>
</a>
</g>
</g>
<!-- Node1&#45;&gt;Node5 -->
<g id="edge4_Node000001_Node000005" class="edge">
<title>Node1&#45;&gt;Node5</title>
<g id="a_edge4_Node000001_Node000005"><a xlink:title=" ">
<path fill="none" stroke="#63b8ff" d="M159.24,-113.19C168.66,-104.72 180.24,-94.31 189.89,-85.64"/>
<polygon fill="#63b8ff" stroke="#63b8ff" points="192.2,-88.27 197.3,-78.98 187.52,-83.06 192.2,-88.27"/>
</a>
</g>
</g>
<!-- Node8 -->
<g id="Node000008" class="node">
<title>Node8</title>
<g id="a_Node000008"><a xlink:title=" ">
<polygon fill="#e0e0e0" stroke="#999999" points="339.5,-77.5 267.25,-77.5 267.25,-56.75 339.5,-56.75 339.5,-77.5"/>
<text text-anchor="middle" x="303.38" y="-64" font-family="Helvetica,sans-Serif" font-size="10.00">sdkconfig.h</text>
</a>
</g>
</g>
<!-- Node1&#45;&gt;Node8 -->
<g id="edge8_Node000001_Node000008" class="edge">
<title>Node1&#45;&gt;Node8</title>
<g id="a_edge8_Node000001_Node000008"><a xlink:title=" ">
<path fill="none" stroke="#63b8ff" d="M184.36,-113.03C210.05,-103.34 242.33,-91.16 266.79,-81.93"/>
<polygon fill="#63b8ff" stroke="#63b8ff" points="267.89,-85.25 276.01,-78.45 265.42,-78.71 267.89,-85.25"/>
</a>
</g>
</g>
<!-- Node5&#45;&gt;Node4 -->
<g id="edge7_Node000005_Node000004" class="edge">
<title>Node5&#45;&gt;Node4</title>
<g id="a_edge7_Node000005_Node000004"><a xlink:title=" ">
<path fill="none" stroke="#63b8ff" d="M195.61,-56.34C184.44,-48.4 168.46,-37.03 155.35,-27.71"/>
<polygon fill="#63b8ff" stroke="#63b8ff" points="157.43,-24.9 147.26,-21.96 153.38,-30.6 157.43,-24.9"/>
</a>
</g>
</g>
<!-- Node6 -->
<g id="Node000006" class="node">
<title>Node6</title>
<g id="a_Node000006"><a xlink:title=" ">
<polygon fill="#e0e0e0" stroke="#999999" points="243.75,-20.75 191,-20.75 191,0 243.75,0 243.75,-20.75"/>
<text text-anchor="middle" x="217.38" y="-7.25" font-family="Helvetica,sans-Serif" font-size="10.00">limits.h</text>
</a>
</g>
</g>
<!-- Node5&#45;&gt;Node6 -->
<g id="edge5_Node000005_Node000006" class="edge">
<title>Node5&#45;&gt;Node6</title>
<g id="a_edge5_Node000005_Node000006"><a xlink:title=" ">
<path fill="none" stroke="#63b8ff" d="M210.81,-56.34C211.78,-49.64 213.12,-40.51 214.33,-32.23"/>
<polygon fill="#63b8ff" stroke="#63b8ff" points="217.76,-32.98 215.74,-22.58 210.83,-31.96 217.76,-32.98"/>
</a>
</g>
</g>
<!-- Node7 -->
<g id="Node000007" class="node">
<title>Node7</title>
<g id="a_Node000007"><a xlink:title=" ">
<polygon fill="#e0e0e0" stroke="#999999" points="340.5,-20.75 262.25,-20.75 262.25,0 340.5,0 340.5,-20.75"/>
<text text-anchor="middle" x="301.38" y="-7.25" font-family="Helvetica,sans-Serif" font-size="10.00">periph_cpu.h</text>
</a>
</g>
</g>
<!-- Node5&#45;&gt;Node7 -->
<g id="edge6_Node000005_Node000007" class="edge">
<title>Node5&#45;&gt;Node7</title>
<g id="a_edge6_Node000005_Node000007"><a xlink:title=" ">
<path fill="none" stroke="#63b8ff" d="M225.82,-56.34C239.56,-48.16 259.39,-36.36 275.29,-26.9"/>
<polygon fill="#63b8ff" stroke="#63b8ff" points="276.97,-29.97 283.77,-21.85 273.39,-23.96 276.97,-29.97"/>
</a>
</g>
</g>
</g>
</svg>
