<?xml version="1.0" encoding="UTF-8" standalone="no"?>
<!DOCTYPE svg PUBLIC "-//W3C//DTD SVG 1.1//EN"
 "http://www.w3.org/Graphics/SVG/1.1/DTD/svg11.dtd">
<!-- Generated by graphviz version 12.1.1 (0)
 -->
<!-- Title: boards/esp32&#45;mh&#45;et&#45;live&#45;minikit/include/board.h Pages: 1 -->
<svg width="297pt" height="111pt"
 viewBox="0.00 0.00 297.38 111.00" xmlns="http://www.w3.org/2000/svg" xmlns:xlink="http://www.w3.org/1999/xlink">
<g id="graph0" class="graph" transform="scale(1 1) rotate(0) translate(4 107)">
<title>boards/esp32&#45;mh&#45;et&#45;live&#45;minikit/include/board.h</title>
<!-- Node1 -->
<g id="Node000001" class="node">
<title>Node1</title>
<g id="a_Node000001"><a xlink:title="Board specific definitions for MH&#45;ET LIVE MiniKit for ESP32.">
<polygon fill="#999999" stroke="#666666" points="178.5,-103 64.25,-103 64.25,-56.75 178.5,-56.75 178.5,-103"/>
<text text-anchor="start" x="72.25" y="-89.5" font-family="Helvetica,sans-Serif" font-size="10.00">boards/esp32&#45;mh&#45;et</text>
<text text-anchor="start" x="72.25" y="-76.75" font-family="Helvetica,sans-Serif" font-size="10.00">&#45;live&#45;minikit/include</text>
<text text-anchor="middle" x="121.38" y="-64" font-family="Helvetica,sans-Serif" font-size="10.00">/board.h</text>
</a>
</g>
</g>
<!-- Node2 -->
<g id="Node000002" class="node">
<title>Node2</title>
<g id="a_Node000002"><a xlink:title=" ">
<polygon fill="#e0e0e0" stroke="#999999" points="52.75,-20.75 0,-20.75 0,0 52.75,0 52.75,-20.75"/>
<text text-anchor="middle" x="26.38" y="-7.25" font-family="Helvetica,sans-Serif" font-size="10.00">stdint.h</text>
</a>
</g>
</g>
<!-- Node1&#45;&gt;Node2 -->
<g id="edge1_Node000001_Node000002" class="edge">
<title>Node1&#45;&gt;Node2</title>
<g id="a_edge1_Node000001_Node000002"><a xlink:title=" ">
<path fill="none" stroke="#63b8ff" d="M89.74,-56.4C76.58,-47.05 61.59,-36.4 49.5,-27.8"/>
<polygon fill="#63b8ff" stroke="#63b8ff" points="51.53,-24.96 41.35,-22.02 47.48,-30.66 51.53,-24.96"/>
</a>
</g>
</g>
<!-- Node3 -->
<g id="Node000003" class="node">
<title>Node3</title>
<g id="a_Node000003"><a xlink:title=" ">
<polygon fill="#e0e0e0" stroke="#999999" points="171.75,-20.75 71,-20.75 71,0 171.75,0 171.75,-20.75"/>
<text text-anchor="middle" x="121.38" y="-7.25" font-family="Helvetica,sans-Serif" font-size="10.00">board_common.h</text>
</a>
</g>
</g>
<!-- Node1&#45;&gt;Node3 -->
<g id="edge2_Node000001_Node000003" class="edge">
<title>Node1&#45;&gt;Node3</title>
<g id="a_edge2_Node000001_Node000003"><a xlink:title=" ">
<path fill="none" stroke="#63b8ff" d="M121.38,-56.4C121.38,-48.73 121.38,-40.19 121.38,-32.63"/>
<polygon fill="#63b8ff" stroke="#63b8ff" points="124.88,-32.65 121.38,-22.65 117.88,-32.65 124.88,-32.65"/>
</a>
</g>
</g>
<!-- Node4 -->
<g id="Node000004" class="node">
<title>Node4</title>
<g id="a_Node000004"><a xlink:href="esp32-mh-et-live-minikit_2include_2board__modules_8h.html" target="_top" xlink:title="Definitions for Wemos stackable hardware modules (shields)">
<polygon fill="white" stroke="#666666" points="289.38,-20.75 189.38,-20.75 189.38,0 289.38,0 289.38,-20.75"/>
<text text-anchor="middle" x="239.38" y="-7.25" font-family="Helvetica,sans-Serif" font-size="10.00">board_modules.h</text>
</a>
</g>
</g>
<!-- Node1&#45;&gt;Node4 -->
<g id="edge3_Node000001_Node000004" class="edge">
<title>Node1&#45;&gt;Node4</title>
<g id="a_edge3_Node000001_Node000004"><a xlink:title=" ">
<path fill="none" stroke="#63b8ff" d="M160.67,-56.4C177.66,-46.68 197.12,-35.54 212.44,-26.78"/>
<polygon fill="#63b8ff" stroke="#63b8ff" points="214.05,-29.9 220.99,-21.89 210.57,-23.82 214.05,-29.9"/>
</a>
</g>
</g>
</g>
</svg>
