<?xml version="1.0" encoding="UTF-8" standalone="no"?>
<!DOCTYPE svg PUBLIC "-//W3C//DTD SVG 1.1//EN"
 "http://www.w3.org/Graphics/SVG/1.1/DTD/svg11.dtd">
<!-- Generated by graphviz version 12.1.1 (0)
 -->
<!-- Title: cpu/esp32/include/can_params.h Pages: 1 -->
<svg width="1365pt" height="609pt"
 viewBox="0.00 0.00 1364.62 609.00" xmlns="http://www.w3.org/2000/svg" xmlns:xlink="http://www.w3.org/1999/xlink">
<g id="graph0" class="graph" transform="scale(1 1) rotate(0) translate(4 605)">
<title>cpu/esp32/include/can_params.h</title>
<!-- Node1 -->
<g id="Node000001" class="node">
<title>Node1</title>
<g id="a_Node000001"><a xlink:title="ESP32 CAN controller driver (esp_can) default parameters.">
<polygon fill="#999999" stroke="#666666" points="271.62,-601 147.62,-601 147.62,-567.5 271.62,-567.5 271.62,-601"/>
<text text-anchor="start" x="155.62" y="-587.5" font-family="Helvetica,sans-Serif" font-size="10.00">cpu/esp32/include/can</text>
<text text-anchor="middle" x="209.62" y="-574.75" font-family="Helvetica,sans-Serif" font-size="10.00">_params.h</text>
</a>
</g>
</g>
<!-- Node2 -->
<g id="Node000002" class="node">
<title>Node2</title>
<g id="a_Node000002"><a xlink:href="can__esp_8h.html" target="_top" xlink:title=" ">
<polygon fill="white" stroke="#666666" points="154,-531.5 89.25,-531.5 89.25,-510.75 154,-510.75 154,-531.5"/>
<text text-anchor="middle" x="121.62" y="-518" font-family="Helvetica,sans-Serif" font-size="10.00">can_esp.h</text>
</a>
</g>
</g>
<!-- Node1&#45;&gt;Node2 -->
<g id="edge1_Node000001_Node000002" class="edge">
<title>Node1&#45;&gt;Node2</title>
<g id="a_edge1_Node000001_Node000002"><a xlink:title=" ">
<path fill="none" stroke="#63b8ff" d="M186.5,-567.19C173.68,-558.28 157.78,-547.24 144.93,-538.31"/>
<polygon fill="#63b8ff" stroke="#63b8ff" points="147.25,-535.66 137.04,-532.83 143.25,-541.41 147.25,-535.66"/>
</a>
</g>
</g>
<!-- Node39 -->
<g id="Node000039" class="node">
<title>Node39</title>
<g id="a_Node000039"><a xlink:href="sys_2include_2can_2device_8h.html" target="_top" xlink:title="Definitions of CAN device interface.">
<polygon fill="white" stroke="#666666" points="343.38,-531.5 265.88,-531.5 265.88,-510.75 343.38,-510.75 343.38,-531.5"/>
<text text-anchor="middle" x="304.62" y="-518" font-family="Helvetica,sans-Serif" font-size="10.00">can/device.h</text>
</a>
</g>
</g>
<!-- Node1&#45;&gt;Node39 -->
<g id="edge63_Node000001_Node000039" class="edge">
<title>Node1&#45;&gt;Node39</title>
<g id="a_edge63_Node000001_Node000039"><a xlink:title=" ">
<path fill="none" stroke="#63b8ff" d="M234.59,-567.19C248.56,-558.2 265.93,-547.02 279.88,-538.05"/>
<polygon fill="#63b8ff" stroke="#63b8ff" points="281.54,-541.14 288.06,-532.79 277.75,-535.25 281.54,-541.14"/>
</a>
</g>
</g>
<!-- Node40 -->
<g id="Node000040" class="node">
<title>Node40</title>
<g id="a_Node000040"><a xlink:href="drivers_2include_2periph_2can_8h.html" target="_top" xlink:title="Low&#45;level CAN peripheral driver interface definitions.">
<polygon fill="white" stroke="#666666" points="247.62,-531.5 171.62,-531.5 171.62,-510.75 247.62,-510.75 247.62,-531.5"/>
<text text-anchor="middle" x="209.62" y="-518" font-family="Helvetica,sans-Serif" font-size="10.00">periph/can.h</text>
</a>
</g>
</g>
<!-- Node1&#45;&gt;Node40 -->
<g id="edge66_Node000001_Node000040" class="edge">
<title>Node1&#45;&gt;Node40</title>
<g id="a_edge66_Node000001_Node000040"><a xlink:title=" ">
<path fill="none" stroke="#63b8ff" d="M209.62,-567.19C209.62,-559.85 209.62,-551.07 209.62,-543.21"/>
<polygon fill="#63b8ff" stroke="#63b8ff" points="213.13,-543.48 209.63,-533.48 206.13,-543.48 213.13,-543.48"/>
</a>
</g>
</g>
<!-- Node3 -->
<g id="Node000003" class="node">
<title>Node3</title>
<g id="a_Node000003"><a xlink:href="candev_8h.html" target="_top" xlink:title="Definitions for low&#45;level CAN driver interface.">
<polygon fill="white" stroke="#666666" points="332.5,-474.75 252.75,-474.75 252.75,-454 332.5,-454 332.5,-474.75"/>
<text text-anchor="middle" x="292.62" y="-461.25" font-family="Helvetica,sans-Serif" font-size="10.00">can/candev.h</text>
</a>
</g>
</g>
<!-- Node2&#45;&gt;Node3 -->
<g id="edge2_Node000002_Node000003" class="edge">
<title>Node2&#45;&gt;Node3</title>
<g id="a_edge2_Node000002_Node000003"><a xlink:title=" ">
<path fill="none" stroke="#63b8ff" d="M152.2,-510.34C179.83,-501.49 220.74,-488.39 251.29,-478.61"/>
<polygon fill="#63b8ff" stroke="#63b8ff" points="252.13,-482.01 260.59,-475.63 250,-475.35 252.13,-482.01"/>
</a>
</g>
</g>
<!-- Node36 -->
<g id="Node000036" class="node">
<title>Node36</title>
<g id="a_Node000036"><a xlink:href="drivers_2include_2periph_2gpio_8h.html" target="_top" xlink:title="Low&#45;level GPIO peripheral driver interface definitions.">
<polygon fill="white" stroke="#666666" points="153.5,-474.75 73.75,-474.75 73.75,-454 153.5,-454 153.5,-474.75"/>
<text text-anchor="middle" x="113.62" y="-461.25" font-family="Helvetica,sans-Serif" font-size="10.00">periph/gpio.h</text>
</a>
</g>
</g>
<!-- Node2&#45;&gt;Node36 -->
<g id="edge59_Node000002_Node000036" class="edge">
<title>Node2&#45;&gt;Node36</title>
<g id="a_edge59_Node000002_Node000036"><a xlink:title=" ">
<path fill="none" stroke="#63b8ff" d="M120.19,-510.34C119.22,-503.64 117.88,-494.51 116.67,-486.23"/>
<polygon fill="#63b8ff" stroke="#63b8ff" points="120.17,-485.96 115.26,-476.58 113.24,-486.98 120.17,-485.96"/>
</a>
</g>
</g>
<!-- Node4 -->
<g id="Node000004" class="node">
<title>Node4</title>
<g id="a_Node000004"><a xlink:title=" ">
<polygon fill="#e0e0e0" stroke="#999999" points="706,-20.75 653.25,-20.75 653.25,0 706,0 706,-20.75"/>
<text text-anchor="middle" x="679.62" y="-7.25" font-family="Helvetica,sans-Serif" font-size="10.00">stdint.h</text>
</a>
</g>
</g>
<!-- Node3&#45;&gt;Node4 -->
<g id="edge3_Node000003_Node000004" class="edge">
<title>Node3&#45;&gt;Node4</title>
<g id="a_edge3_Node000003_Node000004"><a xlink:title=" ">
<path fill="none" stroke="#63b8ff" d="M332.77,-462.84C491.69,-460.13 1075.9,-444.58 1237.62,-361.25 1305.21,-326.43 1356.62,-314.4 1356.62,-238.38 1356.62,-238.38 1356.62,-238.38 1356.62,-122.88 1356.62,-52.05 1280.14,-74.72 1211.62,-56.75 1118.06,-32.21 823.46,-17.53 717.81,-12.94"/>
<polygon fill="#63b8ff" stroke="#63b8ff" points="718.11,-9.45 707.97,-12.52 717.81,-16.44 718.11,-9.45"/>
</a>
</g>
</g>
<!-- Node5 -->
<g id="Node000005" class="node">
<title>Node5</title>
<g id="a_Node000005"><a xlink:title=" ">
<polygon fill="#e0e0e0" stroke="#999999" points="245.62,-191 193.62,-191 193.62,-170.25 245.62,-170.25 245.62,-191"/>
<text text-anchor="middle" x="219.62" y="-177.5" font-family="Helvetica,sans-Serif" font-size="10.00">stdlib.h</text>
</a>
</g>
</g>
<!-- Node3&#45;&gt;Node5 -->
<g id="edge4_Node000003_Node000005" class="edge">
<title>Node3&#45;&gt;Node5</title>
<g id="a_edge4_Node000003_Node000005"><a xlink:title=" ">
<path fill="none" stroke="#63b8ff" d="M290.11,-453.68C279.67,-413.37 239.57,-258.61 224.98,-202.28"/>
<polygon fill="#63b8ff" stroke="#63b8ff" points="228.4,-201.55 222.51,-192.75 221.63,-203.31 228.4,-201.55"/>
</a>
</g>
</g>
<!-- Node6 -->
<g id="Node000006" class="node">
<title>Node6</title>
<g id="a_Node000006"><a xlink:href="sys_2include_2can_2can_8h.html" target="_top" xlink:title="Definitions high&#45;level CAN interface.">
<polygon fill="white" stroke="#666666" points="226.88,-361.25 164.38,-361.25 164.38,-340.5 226.88,-340.5 226.88,-361.25"/>
<text text-anchor="middle" x="195.62" y="-347.75" font-family="Helvetica,sans-Serif" font-size="10.00">can/can.h</text>
</a>
</g>
</g>
<!-- Node3&#45;&gt;Node6 -->
<g id="edge5_Node000003_Node000006" class="edge">
<title>Node3&#45;&gt;Node6</title>
<g id="a_edge5_Node000003_Node000006"><a xlink:title=" ">
<path fill="none" stroke="#63b8ff" d="M284.35,-453.87C268.26,-435.36 232.47,-394.22 211.59,-370.23"/>
<polygon fill="#63b8ff" stroke="#63b8ff" points="214.35,-368.06 205.14,-362.82 209.07,-372.66 214.35,-368.06"/>
</a>
</g>
</g>
<!-- Node7 -->
<g id="Node000007" class="node">
<title>Node7</title>
<g id="a_Node000007"><a xlink:href="sys_2include_2can_2common_8h.html" target="_top" xlink:title="Definitions of high&#45;level CAN interface.">
<polygon fill="white" stroke="#666666" points="396.62,-304.5 308.62,-304.5 308.62,-283.75 396.62,-283.75 396.62,-304.5"/>
<text text-anchor="middle" x="352.62" y="-291" font-family="Helvetica,sans-Serif" font-size="10.00">can/common.h</text>
</a>
</g>
</g>
<!-- Node3&#45;&gt;Node7 -->
<g id="edge7_Node000003_Node000007" class="edge">
<title>Node3&#45;&gt;Node7</title>
<g id="a_edge7_Node000003_Node000007"><a xlink:title=" ">
<path fill="none" stroke="#63b8ff" d="M296.02,-453.85C305.47,-427.37 332.19,-352.43 345.25,-315.8"/>
<polygon fill="#63b8ff" stroke="#63b8ff" points="348.54,-316.99 348.61,-306.39 341.95,-314.64 348.54,-316.99"/>
</a>
</g>
</g>
<!-- Node14 -->
<g id="Node000014" class="node">
<title>Node14</title>
<g id="a_Node000014"><a xlink:href="mutex_8h.html" target="_top" xlink:title="Mutex for thread synchronization.">
<polygon fill="white" stroke="#666666" points="894.88,-418 838.38,-418 838.38,-397.25 894.88,-397.25 894.88,-418"/>
<text text-anchor="middle" x="866.62" y="-404.5" font-family="Helvetica,sans-Serif" font-size="10.00">mutex.h</text>
</a>
</g>
</g>
<!-- Node3&#45;&gt;Node14 -->
<g id="edge17_Node000003_Node000014" class="edge">
<title>Node3&#45;&gt;Node14</title>
<g id="a_edge17_Node000003_Node000014"><a xlink:title=" ">
<path fill="none" stroke="#63b8ff" d="M332.99,-459.53C438.52,-449.46 721.73,-422.45 826.74,-412.43"/>
<polygon fill="#63b8ff" stroke="#63b8ff" points="826.93,-415.93 836.55,-411.49 826.27,-408.96 826.93,-415.93"/>
</a>
</g>
</g>
<!-- Node6&#45;&gt;Node4 -->
<g id="edge6_Node000006_Node000004" class="edge">
<title>Node6&#45;&gt;Node4</title>
<g id="a_edge6_Node000006_Node000004"><a xlink:title=" ">
<path fill="none" stroke="#63b8ff" d="M191.2,-340.27C182.85,-321.24 165.62,-277.26 165.62,-238.38 165.62,-238.38 165.62,-238.38 165.62,-122.88 165.62,-25.44 522.86,-12.97 641.7,-11.52"/>
<polygon fill="#63b8ff" stroke="#63b8ff" points="641.59,-15.02 651.56,-11.42 641.52,-8.02 641.59,-15.02"/>
</a>
</g>
</g>
<!-- Node7&#45;&gt;Node4 -->
<g id="edge8_Node000007_Node000004" class="edge">
<title>Node7&#45;&gt;Node4</title>
<g id="a_edge8_Node000007_Node000004"><a xlink:title=" ">
<path fill="none" stroke="#63b8ff" d="M354.62,-283.28C362.86,-245.49 398.15,-109.24 487.62,-56.75 536.02,-28.36 601.11,-17.72 641.7,-13.74"/>
<polygon fill="#63b8ff" stroke="#63b8ff" points="641.81,-17.25 651.46,-12.88 641.19,-10.27 641.81,-17.25"/>
</a>
</g>
</g>
<!-- Node8 -->
<g id="Node000008" class="node">
<title>Node8</title>
<g id="a_Node000008"><a xlink:href="uio_8h.html" target="_top" xlink:title="libc header for scatter/gather I/O">
<polygon fill="white" stroke="#666666" points="324.38,-247.75 264.88,-247.75 264.88,-227 324.38,-227 324.38,-247.75"/>
<text text-anchor="middle" x="294.62" y="-234.25" font-family="Helvetica,sans-Serif" font-size="10.00">sys/uio.h</text>
</a>
</g>
</g>
<!-- Node7&#45;&gt;Node8 -->
<g id="edge9_Node000007_Node000008" class="edge">
<title>Node7&#45;&gt;Node8</title>
<g id="a_edge9_Node000007_Node000008"><a xlink:title=" ">
<path fill="none" stroke="#63b8ff" d="M342.26,-283.34C334.17,-275.71 322.74,-264.92 313.1,-255.82"/>
<polygon fill="#63b8ff" stroke="#63b8ff" points="315.68,-253.44 306.01,-249.12 310.87,-258.53 315.68,-253.44"/>
</a>
</g>
</g>
<!-- Node10 -->
<g id="Node000010" class="node">
<title>Node10</title>
<g id="a_Node000010"><a xlink:href="timex_8h.html" target="_top" xlink:title="Utility library for comparing and computing timestamps.">
<polygon fill="white" stroke="#666666" points="508.38,-247.75 454.88,-247.75 454.88,-227 508.38,-227 508.38,-247.75"/>
<text text-anchor="middle" x="481.62" y="-234.25" font-family="Helvetica,sans-Serif" font-size="10.00">timex.h</text>
</a>
</g>
</g>
<!-- Node7&#45;&gt;Node10 -->
<g id="edge12_Node000007_Node000010" class="edge">
<title>Node7&#45;&gt;Node10</title>
<g id="a_edge12_Node000007_Node000010"><a xlink:title=" ">
<path fill="none" stroke="#63b8ff" d="M375.69,-283.34C395.87,-274.77 425.43,-262.23 448.2,-252.56"/>
<polygon fill="#63b8ff" stroke="#63b8ff" points="449.53,-255.8 457.37,-248.67 446.8,-249.35 449.53,-255.8"/>
</a>
</g>
</g>
<!-- Node13 -->
<g id="Node000013" class="node">
<title>Node13</title>
<g id="a_Node000013"><a xlink:title=" ">
<polygon fill="#e0e0e0" stroke="#999999" points="436.88,-247.75 380.38,-247.75 380.38,-227 436.88,-227 436.88,-247.75"/>
<text text-anchor="middle" x="408.62" y="-234.25" font-family="Helvetica,sans-Serif" font-size="10.00">thread.h</text>
</a>
</g>
</g>
<!-- Node7&#45;&gt;Node13 -->
<g id="edge16_Node000007_Node000013" class="edge">
<title>Node7&#45;&gt;Node13</title>
<g id="a_edge16_Node000007_Node000013"><a xlink:title=" ">
<path fill="none" stroke="#63b8ff" d="M362.64,-283.34C370.36,-275.78 381.25,-265.14 390.5,-256.1"/>
<polygon fill="#63b8ff" stroke="#63b8ff" points="392.91,-258.63 397.62,-249.14 388.02,-253.62 392.91,-258.63"/>
</a>
</g>
</g>
<!-- Node8&#45;&gt;Node5 -->
<g id="edge10_Node000008_Node000005" class="edge">
<title>Node8&#45;&gt;Node5</title>
<g id="a_edge10_Node000008_Node000005"><a xlink:title=" ">
<path fill="none" stroke="#63b8ff" d="M281.22,-226.59C270.34,-218.65 254.77,-207.28 242.01,-197.96"/>
<polygon fill="#63b8ff" stroke="#63b8ff" points="244.28,-195.29 234.14,-192.22 240.15,-200.94 244.28,-195.29"/>
</a>
</g>
</g>
<!-- Node9 -->
<g id="Node000009" class="node">
<title>Node9</title>
<g id="a_Node000009"><a xlink:title=" ">
<polygon fill="#e0e0e0" stroke="#999999" points="335.38,-191 263.88,-191 263.88,-170.25 335.38,-170.25 335.38,-191"/>
<text text-anchor="middle" x="299.62" y="-177.5" font-family="Helvetica,sans-Serif" font-size="10.00">sys/types.h</text>
</a>
</g>
</g>
<!-- Node8&#45;&gt;Node9 -->
<g id="edge11_Node000008_Node000009" class="edge">
<title>Node8&#45;&gt;Node9</title>
<g id="a_edge11_Node000008_Node000009"><a xlink:title=" ">
<path fill="none" stroke="#63b8ff" d="M295.52,-226.59C296.12,-219.97 296.94,-210.97 297.69,-202.77"/>
<polygon fill="#63b8ff" stroke="#63b8ff" points="301.18,-203.11 298.6,-192.84 294.21,-202.48 301.18,-203.11"/>
</a>
</g>
</g>
<!-- Node10&#45;&gt;Node4 -->
<g id="edge13_Node000010_Node000004" class="edge">
<title>Node10&#45;&gt;Node4</title>
<g id="a_edge13_Node000010_Node000004"><a xlink:title=" ">
<path fill="none" stroke="#63b8ff" d="M461.23,-226.62C447.84,-218.98 431.41,-206.97 423.62,-191 419.58,-182.71 420.39,-178.89 423.62,-170.25 447.12,-107.57 466.18,-92.73 522.62,-56.75 559.33,-33.36 608.42,-21.71 641.88,-16.12"/>
<polygon fill="#63b8ff" stroke="#63b8ff" points="642.17,-19.62 651.52,-14.63 641.1,-12.7 642.17,-19.62"/>
</a>
</g>
</g>
<!-- Node11 -->
<g id="Node000011" class="node">
<title>Node11</title>
<g id="a_Node000011"><a xlink:href="inttypes_8h.html" target="_top" xlink:title="Adds include for missing inttype definitions.">
<polygon fill="white" stroke="#666666" points="629,-191 564.25,-191 564.25,-170.25 629,-170.25 629,-191"/>
<text text-anchor="middle" x="596.62" y="-177.5" font-family="Helvetica,sans-Serif" font-size="10.00">inttypes.h</text>
</a>
</g>
</g>
<!-- Node10&#45;&gt;Node11 -->
<g id="edge14_Node000010_Node000011" class="edge">
<title>Node10&#45;&gt;Node11</title>
<g id="a_edge14_Node000010_Node000011"><a xlink:title=" ">
<path fill="none" stroke="#63b8ff" d="M502.18,-226.59C519.93,-218.14 545.81,-205.82 565.99,-196.21"/>
<polygon fill="#63b8ff" stroke="#63b8ff" points="567.35,-199.44 574.88,-191.98 564.34,-193.12 567.35,-199.44"/>
</a>
</g>
</g>
<!-- Node12 -->
<g id="Node000012" class="node">
<title>Node12</title>
<g id="a_Node000012"><a xlink:href="time__units_8h.html" target="_top" xlink:title="Utility header providing time unit defines.">
<polygon fill="white" stroke="#666666" points="509,-191 432.25,-191 432.25,-170.25 509,-170.25 509,-191"/>
<text text-anchor="middle" x="470.62" y="-177.5" font-family="Helvetica,sans-Serif" font-size="10.00">time_units.h</text>
</a>
</g>
</g>
<!-- Node10&#45;&gt;Node12 -->
<g id="edge15_Node000010_Node000012" class="edge">
<title>Node10&#45;&gt;Node12</title>
<g id="a_edge15_Node000010_Node000012"><a xlink:title=" ">
<path fill="none" stroke="#63b8ff" d="M479.66,-226.59C478.31,-219.89 476.48,-210.76 474.81,-202.48"/>
<polygon fill="#63b8ff" stroke="#63b8ff" points="478.27,-201.93 472.87,-192.81 471.41,-203.31 478.27,-201.93"/>
</a>
</g>
</g>
<!-- Node14&#45;&gt;Node4 -->
<g id="edge19_Node000014_Node000004" class="edge">
<title>Node14&#45;&gt;Node4</title>
<g id="a_edge19_Node000014_Node000004"><a xlink:title=" ">
<path fill="none" stroke="#63b8ff" d="M895.22,-404.62C965.02,-399.43 1142.33,-384.32 1196.62,-361.25 1240.35,-342.67 1280.62,-342.64 1280.62,-295.12 1280.62,-295.12 1280.62,-295.12 1280.62,-122.88 1280.62,-53.66 1206.36,-75.11 1139.62,-56.75 987.46,-14.9 797.63,-10.57 717.79,-10.81"/>
<polygon fill="#63b8ff" stroke="#63b8ff" points="717.88,-7.31 707.9,-10.87 717.92,-14.31 717.88,-7.31"/>
</a>
</g>
</g>
<!-- Node15 -->
<g id="Node000015" class="node">
<title>Node15</title>
<g id="a_Node000015"><a xlink:title=" ">
<polygon fill="#e0e0e0" stroke="#999999" points="1130.12,-77.5 1075.12,-77.5 1075.12,-56.75 1130.12,-56.75 1130.12,-77.5"/>
<text text-anchor="middle" x="1102.62" y="-64" font-family="Helvetica,sans-Serif" font-size="10.00">stddef.h</text>
</a>
</g>
</g>
<!-- Node14&#45;&gt;Node15 -->
<g id="edge18_Node000014_Node000015" class="edge">
<title>Node14&#45;&gt;Node15</title>
<g id="a_edge18_Node000014_Node000015"><a xlink:title=" ">
<path fill="none" stroke="#63b8ff" d="M895.02,-406.5C947.82,-405.33 1063.78,-398.34 1152.62,-361.25 1198.43,-342.13 1242.62,-344.76 1242.62,-295.12 1242.62,-295.12 1242.62,-295.12 1242.62,-179.62 1242.62,-146.16 1231.29,-136.11 1206.62,-113.5 1188.28,-96.69 1162.72,-85.42 1141.54,-78.32"/>
<polygon fill="#63b8ff" stroke="#63b8ff" points="1142.64,-75 1132.05,-75.34 1140.54,-81.68 1142.64,-75"/>
</a>
</g>
</g>
<!-- Node16 -->
<g id="Node000016" class="node">
<title>Node16</title>
<g id="a_Node000016"><a xlink:title=" ">
<polygon fill="#e0e0e0" stroke="#999999" points="1002.12,-134.25 941.12,-134.25 941.12,-113.5 1002.12,-113.5 1002.12,-134.25"/>
<text text-anchor="middle" x="971.62" y="-120.75" font-family="Helvetica,sans-Serif" font-size="10.00">stdbool.h</text>
</a>
</g>
</g>
<!-- Node14&#45;&gt;Node16 -->
<g id="edge20_Node000014_Node000016" class="edge">
<title>Node14&#45;&gt;Node16</title>
<g id="a_edge20_Node000014_Node000016"><a xlink:title=" ">
<path fill="none" stroke="#63b8ff" d="M860.95,-396.8C849.65,-376.02 826.23,-326.06 835.62,-283.75 847.69,-229.4 850.53,-210.85 888.62,-170.25 901.04,-157.02 918.21,-146.75 933.7,-139.36"/>
<polygon fill="#63b8ff" stroke="#63b8ff" points="935.01,-142.61 942.7,-135.32 932.15,-136.22 935.01,-142.61"/>
</a>
</g>
</g>
<!-- Node17 -->
<g id="Node000017" class="node">
<title>Node17</title>
<g id="a_Node000017"><a xlink:href="architecture_8h.html" target="_top" xlink:title="Platform&#45;independent access to architecture details.">
<polygon fill="white" stroke="#666666" points="616.38,-361.25 532.88,-361.25 532.88,-340.5 616.38,-340.5 616.38,-361.25"/>
<text text-anchor="middle" x="574.62" y="-347.75" font-family="Helvetica,sans-Serif" font-size="10.00">architecture.h</text>
</a>
</g>
</g>
<!-- Node14&#45;&gt;Node17 -->
<g id="edge21_Node000014_Node000017" class="edge">
<title>Node14&#45;&gt;Node17</title>
<g id="a_edge21_Node000014_Node000017"><a xlink:title=" ">
<path fill="none" stroke="#63b8ff" d="M838.1,-401.28C789.46,-392.16 689.77,-373.47 627.93,-361.87"/>
<polygon fill="#63b8ff" stroke="#63b8ff" points="628.8,-358.47 618.33,-360.07 627.51,-365.35 628.8,-358.47"/>
</a>
</g>
</g>
<!-- Node20 -->
<g id="Node000020" class="node">
<title>Node20</title>
<g id="a_Node000020"><a xlink:href="kernel__defines_8h.html" target="_top" xlink:title="Common macros and compiler attributes/pragmas configuration.">
<polygon fill="white" stroke="#666666" points="798.75,-191 702.5,-191 702.5,-170.25 798.75,-170.25 798.75,-191"/>
<text text-anchor="middle" x="750.62" y="-177.5" font-family="Helvetica,sans-Serif" font-size="10.00">kernel_defines.h</text>
</a>
</g>
</g>
<!-- Node14&#45;&gt;Node20 -->
<g id="edge26_Node000014_Node000020" class="edge">
<title>Node14&#45;&gt;Node20</title>
<g id="a_edge26_Node000014_Node000020"><a xlink:title=" ">
<path fill="none" stroke="#63b8ff" d="M838.22,-402.16C814.39,-396.8 781.62,-385.31 764.62,-361.25 730.56,-313.03 739.12,-238.27 745.96,-202.32"/>
<polygon fill="#63b8ff" stroke="#63b8ff" points="749.33,-203.31 747.93,-192.81 742.48,-201.89 749.33,-203.31"/>
</a>
</g>
</g>
<!-- Node26 -->
<g id="Node000026" class="node">
<title>Node26</title>
<g id="a_Node000026"><a xlink:href="list_8h.html" target="_top" xlink:title="Intrusive linked list.">
<polygon fill="white" stroke="#666666" points="1197.62,-134.25 1157.62,-134.25 1157.62,-113.5 1197.62,-113.5 1197.62,-134.25"/>
<text text-anchor="middle" x="1177.62" y="-120.75" font-family="Helvetica,sans-Serif" font-size="10.00">list.h</text>
</a>
</g>
</g>
<!-- Node14&#45;&gt;Node26 -->
<g id="edge37_Node000014_Node000026" class="edge">
<title>Node14&#45;&gt;Node26</title>
<g id="a_edge37_Node000014_Node000026"><a xlink:title=" ">
<path fill="none" stroke="#63b8ff" d="M895.15,-403.44C976.64,-393.55 1204.62,-360.08 1204.62,-295.12 1204.62,-295.12 1204.62,-295.12 1204.62,-236.38 1204.62,-203.77 1193.59,-167.28 1185.63,-145.2"/>
<polygon fill="#63b8ff" stroke="#63b8ff" points="1188.94,-144.07 1182.14,-135.94 1182.39,-146.54 1188.94,-144.07"/>
</a>
</g>
</g>
<!-- Node27 -->
<g id="Node000027" class="node">
<title>Node27</title>
<g id="a_Node000027"><a xlink:href="core_2include_2thread_8h.html" target="_top" xlink:title="Threading API.">
<polygon fill="white" stroke="#666666" points="982.88,-361.25 926.38,-361.25 926.38,-340.5 982.88,-340.5 982.88,-361.25"/>
<text text-anchor="middle" x="954.62" y="-347.75" font-family="Helvetica,sans-Serif" font-size="10.00">thread.h</text>
</a>
</g>
</g>
<!-- Node14&#45;&gt;Node27 -->
<g id="edge38_Node000014_Node000027" class="edge">
<title>Node14&#45;&gt;Node27</title>
<g id="a_edge38_Node000014_Node000027"><a xlink:title=" ">
<path fill="none" stroke="#63b8ff" d="M882.36,-396.84C895.5,-388.66 914.47,-376.86 929.68,-367.4"/>
<polygon fill="#63b8ff" stroke="#63b8ff" points="931.1,-370.63 937.74,-362.38 927.4,-364.69 931.1,-370.63"/>
</a>
</g>
</g>
<!-- Node17&#45;&gt;Node4 -->
<g id="edge22_Node000017_Node000004" class="edge">
<title>Node17&#45;&gt;Node4</title>
<g id="a_edge22_Node000017_Node000004"><a xlink:title=" ">
<path fill="none" stroke="#63b8ff" d="M568.85,-340.11C558.22,-321.18 536.62,-277.85 536.62,-238.38 536.62,-238.38 536.62,-238.38 536.62,-122.88 536.62,-92.17 535.57,-79.1 556.62,-56.75 578.88,-33.12 614.52,-21.74 641.72,-16.29"/>
<polygon fill="#63b8ff" stroke="#63b8ff" points="642.08,-19.78 651.3,-14.56 640.84,-12.89 642.08,-19.78"/>
</a>
</g>
</g>
<!-- Node17&#45;&gt;Node11 -->
<g id="edge23_Node000017_Node000011" class="edge">
<title>Node17&#45;&gt;Node11</title>
<g id="a_edge23_Node000017_Node000011"><a xlink:title=" ">
<path fill="none" stroke="#63b8ff" d="M575.87,-340.35C579.32,-313.98 589.05,-239.58 593.86,-202.78"/>
<polygon fill="#63b8ff" stroke="#63b8ff" points="597.32,-203.34 595.14,-192.97 590.37,-202.43 597.32,-203.34"/>
</a>
</g>
</g>
<!-- Node18 -->
<g id="Node000018" class="node">
<title>Node18</title>
<g id="a_Node000018"><a xlink:title=" ">
<polygon fill="#e0e0e0" stroke="#999999" points="137,-304.5 84.25,-304.5 84.25,-283.75 137,-283.75 137,-304.5"/>
<text text-anchor="middle" x="110.62" y="-291" font-family="Helvetica,sans-Serif" font-size="10.00">limits.h</text>
</a>
</g>
</g>
<!-- Node17&#45;&gt;Node18 -->
<g id="edge24_Node000017_Node000018" class="edge">
<title>Node17&#45;&gt;Node18</title>
<g id="a_edge24_Node000017_Node000018"><a xlink:title=" ">
<path fill="none" stroke="#63b8ff" d="M532.63,-344.92C443.04,-334.35 234.35,-309.72 148.52,-299.6"/>
<polygon fill="#63b8ff" stroke="#63b8ff" points="149.1,-296.14 138.76,-298.44 148.28,-303.09 149.1,-296.14"/>
</a>
</g>
</g>
<!-- Node19 -->
<g id="Node000019" class="node">
<title>Node19</title>
<g id="a_Node000019"><a xlink:title=" ">
<polygon fill="#e0e0e0" stroke="#999999" points="712.5,-304.5 602.75,-304.5 602.75,-283.75 712.5,-283.75 712.5,-304.5"/>
<text text-anchor="middle" x="657.62" y="-291" font-family="Helvetica,sans-Serif" font-size="10.00">architecture_arch.h</text>
</a>
</g>
</g>
<!-- Node17&#45;&gt;Node19 -->
<g id="edge25_Node000017_Node000019" class="edge">
<title>Node17&#45;&gt;Node19</title>
<g id="a_edge25_Node000017_Node000019"><a xlink:title=" ">
<path fill="none" stroke="#63b8ff" d="M589.46,-340.09C601.74,-331.99 619.41,-320.33 633.68,-310.92"/>
<polygon fill="#63b8ff" stroke="#63b8ff" points="635.23,-314.09 641.65,-305.66 631.38,-308.25 635.23,-314.09"/>
</a>
</g>
</g>
<!-- Node21 -->
<g id="Node000021" class="node">
<title>Node21</title>
<g id="a_Node000021"><a xlink:href="modules_8h.html" target="_top" xlink:title="Common macros and compiler attributes/pragmas configuration.">
<polygon fill="white" stroke="#666666" points="834.12,-134.25 767.12,-134.25 767.12,-113.5 834.12,-113.5 834.12,-134.25"/>
<text text-anchor="middle" x="800.62" y="-120.75" font-family="Helvetica,sans-Serif" font-size="10.00">modules.h</text>
</a>
</g>
</g>
<!-- Node20&#45;&gt;Node21 -->
<g id="edge27_Node000020_Node000021" class="edge">
<title>Node20&#45;&gt;Node21</title>
<g id="a_edge27_Node000020_Node000021"><a xlink:title=" ">
<path fill="none" stroke="#63b8ff" d="M759.56,-169.84C766.39,-162.36 775.99,-151.86 784.18,-142.88"/>
<polygon fill="#63b8ff" stroke="#63b8ff" points="786.58,-145.44 790.74,-135.7 781.41,-140.72 786.58,-145.44"/>
</a>
</g>
</g>
<!-- Node22 -->
<g id="Node000022" class="node">
<title>Node22</title>
<g id="a_Node000022"><a xlink:href="riot__version_8h.html" target="_top" xlink:title="Common macros and compiler attributes/pragmas configuration.">
<polygon fill="white" stroke="#666666" points="721,-77.5 638.25,-77.5 638.25,-56.75 721,-56.75 721,-77.5"/>
<text text-anchor="middle" x="679.62" y="-64" font-family="Helvetica,sans-Serif" font-size="10.00">riot_version.h</text>
</a>
</g>
</g>
<!-- Node20&#45;&gt;Node22 -->
<g id="edge28_Node000020_Node000022" class="edge">
<title>Node20&#45;&gt;Node22</title>
<g id="a_edge28_Node000020_Node000022"><a xlink:title=" ">
<path fill="none" stroke="#63b8ff" d="M702.05,-171.51C680.33,-165.2 656.71,-154.02 643.62,-134.25 633.11,-118.37 646.23,-99.13 659.49,-85.52"/>
<polygon fill="#63b8ff" stroke="#63b8ff" points="661.63,-88.32 666.46,-78.89 656.8,-83.25 661.63,-88.32"/>
</a>
</g>
</g>
<!-- Node23 -->
<g id="Node000023" class="node">
<title>Node23</title>
<g id="a_Node000023"><a xlink:href="compiler__hints_8h.html" target="_top" xlink:title="Common macros and compiler attributes/pragmas configuration.">
<polygon fill="white" stroke="#666666" points="749.12,-134.25 652.12,-134.25 652.12,-113.5 749.12,-113.5 749.12,-134.25"/>
<text text-anchor="middle" x="700.62" y="-120.75" font-family="Helvetica,sans-Serif" font-size="10.00">compiler_hints.h</text>
</a>
</g>
</g>
<!-- Node20&#45;&gt;Node23 -->
<g id="edge30_Node000020_Node000023" class="edge">
<title>Node20&#45;&gt;Node23</title>
<g id="a_edge30_Node000020_Node000023"><a xlink:title=" ">
<path fill="none" stroke="#63b8ff" d="M741.69,-169.84C734.86,-162.36 725.26,-151.86 717.07,-142.88"/>
<polygon fill="#63b8ff" stroke="#63b8ff" points="719.84,-140.72 710.51,-135.7 714.67,-145.44 719.84,-140.72"/>
</a>
</g>
</g>
<!-- Node25 -->
<g id="Node000025" class="node">
<title>Node25</title>
<g id="a_Node000025"><a xlink:href="container_8h.html" target="_top" xlink:title="Common macros and compiler attributes/pragmas configuration.">
<polygon fill="white" stroke="#666666" points="923,-134.25 852.25,-134.25 852.25,-113.5 923,-113.5 923,-134.25"/>
<text text-anchor="middle" x="887.62" y="-120.75" font-family="Helvetica,sans-Serif" font-size="10.00">container.h</text>
</a>
</g>
</g>
<!-- Node20&#45;&gt;Node25 -->
<g id="edge34_Node000020_Node000025" class="edge">
<title>Node20&#45;&gt;Node25</title>
<g id="a_edge34_Node000020_Node000025"><a xlink:title=" ">
<path fill="none" stroke="#63b8ff" d="M775.12,-169.84C796.74,-161.19 828.51,-148.5 852.78,-138.8"/>
<polygon fill="#63b8ff" stroke="#63b8ff" points="853.95,-142.1 861.94,-135.14 851.35,-135.6 853.95,-142.1"/>
</a>
</g>
</g>
<!-- Node22&#45;&gt;Node4 -->
<g id="edge29_Node000022_Node000004" class="edge">
<title>Node22&#45;&gt;Node4</title>
<g id="a_edge29_Node000022_Node000004"><a xlink:title=" ">
<path fill="none" stroke="#63b8ff" d="M679.62,-56.34C679.62,-49.72 679.62,-40.72 679.62,-32.52"/>
<polygon fill="#63b8ff" stroke="#63b8ff" points="683.13,-32.59 679.63,-22.59 676.13,-32.59 683.13,-32.59"/>
</a>
</g>
</g>
<!-- Node23&#45;&gt;Node4 -->
<g id="edge33_Node000023_Node000004" class="edge">
<title>Node23&#45;&gt;Node4</title>
<g id="a_edge33_Node000023_Node000004"><a xlink:title=" ">
<path fill="none" stroke="#63b8ff" d="M710.36,-113.01C721.89,-100.07 738.46,-76.69 729.62,-56.75 724.5,-45.17 714.8,-35.29 705.3,-27.73"/>
<polygon fill="#63b8ff" stroke="#63b8ff" points="707.4,-24.93 697.26,-21.86 703.27,-30.58 707.4,-24.93"/>
</a>
</g>
</g>
<!-- Node24 -->
<g id="Node000024" class="node">
<title>Node24</title>
<g id="a_Node000024"><a xlink:href="assert_8h.html" target="_top" xlink:title="POSIX.1&#45;2008 compliant version of the assert macro.">
<polygon fill="white" stroke="#666666" points="620.12,-77.5 565.12,-77.5 565.12,-56.75 620.12,-56.75 620.12,-77.5"/>
<text text-anchor="middle" x="592.62" y="-64" font-family="Helvetica,sans-Serif" font-size="10.00">assert.h</text>
</a>
</g>
</g>
<!-- Node23&#45;&gt;Node24 -->
<g id="edge31_Node000023_Node000024" class="edge">
<title>Node23&#45;&gt;Node24</title>
<g id="a_edge31_Node000023_Node000024"><a xlink:title=" ">
<path fill="none" stroke="#63b8ff" d="M681.32,-113.09C664.81,-104.72 640.79,-92.54 621.92,-82.97"/>
<polygon fill="#63b8ff" stroke="#63b8ff" points="623.62,-79.91 613.12,-78.51 620.45,-86.16 623.62,-79.91"/>
</a>
</g>
</g>
<!-- Node24&#45;&gt;Node4 -->
<g id="edge32_Node000024_Node000004" class="edge">
<title>Node24&#45;&gt;Node4</title>
<g id="a_edge32_Node000024_Node000004"><a xlink:title=" ">
<path fill="none" stroke="#63b8ff" d="M608.18,-56.34C621.05,-48.24 639.57,-36.58 654.53,-27.17"/>
<polygon fill="#63b8ff" stroke="#63b8ff" points="656.33,-30.17 662.92,-21.88 652.6,-24.25 656.33,-30.17"/>
</a>
</g>
</g>
<!-- Node25&#45;&gt;Node4 -->
<g id="edge36_Node000025_Node000004" class="edge">
<title>Node25&#45;&gt;Node4</title>
<g id="a_edge36_Node000025_Node000004"><a xlink:title=" ">
<path fill="none" stroke="#63b8ff" d="M869.53,-113.18C833.19,-93.69 751.11,-49.69 707.72,-26.44"/>
<polygon fill="#63b8ff" stroke="#63b8ff" points="709.63,-23.49 699.16,-21.85 706.32,-29.66 709.63,-23.49"/>
</a>
</g>
</g>
<!-- Node25&#45;&gt;Node15 -->
<g id="edge35_Node000025_Node000015" class="edge">
<title>Node25&#45;&gt;Node15</title>
<g id="a_edge35_Node000025_Node000015"><a xlink:title=" ">
<path fill="none" stroke="#63b8ff" d="M923.13,-113.83C961.96,-103.94 1024,-88.15 1064.03,-77.95"/>
<polygon fill="#63b8ff" stroke="#63b8ff" points="1064.65,-81.41 1073.47,-75.55 1062.92,-74.62 1064.65,-81.41"/>
</a>
</g>
</g>
<!-- Node28 -->
<g id="Node000028" class="node">
<title>Node28</title>
<g id="a_Node000028"><a xlink:href="clist_8h.html" target="_top" xlink:title="Circular linked list.">
<polygon fill="white" stroke="#666666" points="1146.25,-191 1101,-191 1101,-170.25 1146.25,-170.25 1146.25,-191"/>
<text text-anchor="middle" x="1123.62" y="-177.5" font-family="Helvetica,sans-Serif" font-size="10.00">clist.h</text>
</a>
</g>
</g>
<!-- Node27&#45;&gt;Node28 -->
<g id="edge39_Node000027_Node000028" class="edge">
<title>Node27&#45;&gt;Node28</title>
<g id="a_edge39_Node000027_Node000028"><a xlink:title=" ">
<path fill="none" stroke="#63b8ff" d="M983.21,-347.42C1031.86,-342.58 1127.43,-330 1147.62,-304.5 1171.47,-274.4 1150.97,-227.33 1135.98,-201.04"/>
<polygon fill="#63b8ff" stroke="#63b8ff" points="1139.16,-199.53 1131.01,-192.76 1133.15,-203.13 1139.16,-199.53"/>
</a>
</g>
</g>
<!-- Node29 -->
<g id="Node000029" class="node">
<title>Node29</title>
<g id="a_Node000029"><a xlink:href="cib_8h.html" target="_top" xlink:title="Circular integer buffer interface.">
<polygon fill="white" stroke="#666666" points="808.25,-247.75 769,-247.75 769,-227 808.25,-227 808.25,-247.75"/>
<text text-anchor="middle" x="788.62" y="-234.25" font-family="Helvetica,sans-Serif" font-size="10.00">cib.h</text>
</a>
</g>
</g>
<!-- Node27&#45;&gt;Node29 -->
<g id="edge43_Node000027_Node000029" class="edge">
<title>Node27&#45;&gt;Node29</title>
<g id="a_edge43_Node000027_Node000029"><a xlink:title=" ">
<path fill="none" stroke="#63b8ff" d="M926.33,-344.05C900.64,-337.68 862.73,-325.47 835.62,-304.5 819.47,-292 806.53,-272.44 798.36,-257.83"/>
<polygon fill="#63b8ff" stroke="#63b8ff" points="801.54,-256.36 793.76,-249.16 795.35,-259.64 801.54,-256.36"/>
</a>
</g>
</g>
<!-- Node30 -->
<g id="Node000030" class="node">
<title>Node30</title>
<g id="a_Node000030"><a xlink:href="core_2include_2msg_8h.html" target="_top" xlink:title="Messaging API for inter process communication.">
<polygon fill="white" stroke="#666666" points="890.62,-304.5 844.62,-304.5 844.62,-283.75 890.62,-283.75 890.62,-304.5"/>
<text text-anchor="middle" x="867.62" y="-291" font-family="Helvetica,sans-Serif" font-size="10.00">msg.h</text>
</a>
</g>
</g>
<!-- Node27&#45;&gt;Node30 -->
<g id="edge45_Node000027_Node000030" class="edge">
<title>Node27&#45;&gt;Node30</title>
<g id="a_edge45_Node000027_Node000030"><a xlink:title=" ">
<path fill="none" stroke="#63b8ff" d="M939.07,-340.09C926.2,-331.99 907.68,-320.33 892.72,-310.92"/>
<polygon fill="#63b8ff" stroke="#63b8ff" points="894.65,-308 884.33,-305.63 890.92,-313.92 894.65,-308"/>
</a>
</g>
</g>
<!-- Node31 -->
<g id="Node000031" class="node">
<title>Node31</title>
<g id="a_Node000031"><a xlink:href="sched_8h.html" target="_top" xlink:title="Scheduler API definition.">
<polygon fill="white" stroke="#666666" points="1080.38,-247.75 1026.88,-247.75 1026.88,-227 1080.38,-227 1080.38,-247.75"/>
<text text-anchor="middle" x="1053.62" y="-234.25" font-family="Helvetica,sans-Serif" font-size="10.00">sched.h</text>
</a>
</g>
</g>
<!-- Node27&#45;&gt;Node31 -->
<g id="edge54_Node000027_Node000031" class="edge">
<title>Node27&#45;&gt;Node31</title>
<g id="a_edge54_Node000027_Node000031"><a xlink:title=" ">
<path fill="none" stroke="#63b8ff" d="M968.71,-340.07C980.44,-331.49 997.19,-318.29 1009.62,-304.5 1022.6,-290.12 1034.58,-271.62 1042.75,-257.84"/>
<polygon fill="#63b8ff" stroke="#63b8ff" points="1045.72,-259.7 1047.68,-249.29 1039.66,-256.2 1045.72,-259.7"/>
</a>
</g>
</g>
<!-- Node33 -->
<g id="Node000033" class="node">
<title>Node33</title>
<g id="a_Node000033"><a xlink:href="thread__config_8h.html" target="_top" xlink:title="Thread configuration defines.">
<polygon fill="white" stroke="#666666" points="1000.5,-304.5 908.75,-304.5 908.75,-283.75 1000.5,-283.75 1000.5,-304.5"/>
<text text-anchor="middle" x="954.62" y="-291" font-family="Helvetica,sans-Serif" font-size="10.00">thread_config.h</text>
</a>
</g>
</g>
<!-- Node27&#45;&gt;Node33 -->
<g id="edge55_Node000027_Node000033" class="edge">
<title>Node27&#45;&gt;Node33</title>
<g id="a_edge55_Node000027_Node000033"><a xlink:title=" ">
<path fill="none" stroke="#63b8ff" d="M954.62,-340.09C954.62,-333.47 954.62,-324.47 954.62,-316.27"/>
<polygon fill="#63b8ff" stroke="#63b8ff" points="958.13,-316.34 954.63,-306.34 951.13,-316.34 958.13,-316.34"/>
</a>
</g>
</g>
<!-- Node35 -->
<g id="Node000035" class="node">
<title>Node35</title>
<g id="a_Node000035"><a xlink:title=" ">
<polygon fill="#e0e0e0" stroke="#999999" points="1139,-304.5 1056.25,-304.5 1056.25,-283.75 1139,-283.75 1139,-304.5"/>
<text text-anchor="middle" x="1097.62" y="-291" font-family="Helvetica,sans-Serif" font-size="10.00">thread_arch.h</text>
</a>
</g>
</g>
<!-- Node27&#45;&gt;Node35 -->
<g id="edge58_Node000027_Node000035" class="edge">
<title>Node27&#45;&gt;Node35</title>
<g id="a_edge58_Node000027_Node000035"><a xlink:title=" ">
<path fill="none" stroke="#63b8ff" d="M980.19,-340.09C1002.86,-331.41 1036.22,-318.63 1061.6,-308.92"/>
<polygon fill="#63b8ff" stroke="#63b8ff" points="1062.78,-312.21 1070.87,-305.37 1060.28,-305.68 1062.78,-312.21"/>
</a>
</g>
</g>
<!-- Node28&#45;&gt;Node15 -->
<g id="edge41_Node000028_Node000015" class="edge">
<title>Node28&#45;&gt;Node15</title>
<g id="a_edge41_Node000028_Node000015"><a xlink:title=" ">
<path fill="none" stroke="#63b8ff" d="M1121.83,-170.12C1118.47,-152.27 1111.14,-113.36 1106.57,-89.09"/>
<polygon fill="#63b8ff" stroke="#63b8ff" points="1110.04,-88.59 1104.75,-79.41 1103.16,-89.89 1110.04,-88.59"/>
</a>
</g>
</g>
<!-- Node28&#45;&gt;Node16 -->
<g id="edge40_Node000028_Node000016" class="edge">
<title>Node28&#45;&gt;Node16</title>
<g id="a_edge40_Node000028_Node000016"><a xlink:title=" ">
<path fill="none" stroke="#63b8ff" d="M1100.54,-171.31C1076.42,-162.62 1038.18,-148.85 1009.6,-138.55"/>
<polygon fill="#63b8ff" stroke="#63b8ff" points="1010.81,-135.27 1000.21,-135.17 1008.43,-141.85 1010.81,-135.27"/>
</a>
</g>
</g>
<!-- Node28&#45;&gt;Node26 -->
<g id="edge42_Node000028_Node000026" class="edge">
<title>Node28&#45;&gt;Node26</title>
<g id="a_edge42_Node000028_Node000026"><a xlink:title=" ">
<path fill="none" stroke="#63b8ff" d="M1133.28,-169.84C1140.73,-162.28 1151.23,-151.64 1160.15,-142.6"/>
<polygon fill="#63b8ff" stroke="#63b8ff" points="1162.46,-145.23 1166.99,-135.66 1157.48,-140.32 1162.46,-145.23"/>
</a>
</g>
</g>
<!-- Node29&#45;&gt;Node24 -->
<g id="edge44_Node000029_Node000024" class="edge">
<title>Node29&#45;&gt;Node24</title>
<g id="a_edge44_Node000029_Node000024"><a xlink:title=" ">
<path fill="none" stroke="#63b8ff" d="M768.68,-229.09C748.71,-221.29 717.59,-207.75 693.62,-191 664.07,-170.34 658.48,-162.15 635.62,-134.25 623.57,-119.54 611.94,-101.33 603.82,-87.75"/>
<polygon fill="#63b8ff" stroke="#63b8ff" points="606.96,-86.17 598.89,-79.31 600.91,-89.71 606.96,-86.17"/>
</a>
</g>
</g>
<!-- Node30&#45;&gt;Node4 -->
<g id="edge46_Node000030_Node000004" class="edge">
<title>Node30&#45;&gt;Node4</title>
<g id="a_edge46_Node000030_Node000004"><a xlink:title=" ">
<path fill="none" stroke="#63b8ff" d="M873.01,-283.31C887.32,-257.43 926.53,-188.12 945.62,-170.25 973.87,-143.82 1034.61,-144.62 1011.62,-113.5 976.11,-65.42 796.5,-30.56 717.27,-17.28"/>
<polygon fill="#63b8ff" stroke="#63b8ff" points="718.26,-13.9 707.83,-15.73 717.12,-20.8 718.26,-13.9"/>
</a>
</g>
</g>
<!-- Node30&#45;&gt;Node16 -->
<g id="edge47_Node000030_Node000016" class="edge">
<title>Node30&#45;&gt;Node16</title>
<g id="a_edge47_Node000030_Node000016"><a xlink:title=" ">
<path fill="none" stroke="#63b8ff" d="M868.34,-283.54C870.42,-261.5 878.1,-206.33 904.62,-170.25 913.82,-157.75 927.55,-147.59 940.2,-140.07"/>
<polygon fill="#63b8ff" stroke="#63b8ff" points="941.64,-143.28 948.68,-135.36 938.24,-137.16 941.64,-143.28"/>
</a>
</g>
</g>
<!-- Node30&#45;&gt;Node31 -->
<g id="edge48_Node000030_Node000031" class="edge">
<title>Node30&#45;&gt;Node31</title>
<g id="a_edge48_Node000030_Node000031"><a xlink:title=" ">
<path fill="none" stroke="#63b8ff" d="M890.81,-286.3C922.05,-277.11 978.06,-260.62 1015.54,-249.59"/>
<polygon fill="#63b8ff" stroke="#63b8ff" points="1016.47,-252.96 1025.08,-246.78 1014.49,-246.24 1016.47,-252.96"/>
</a>
</g>
</g>
<!-- Node31&#45;&gt;Node11 -->
<g id="edge50_Node000031_Node000011" class="edge">
<title>Node31&#45;&gt;Node11</title>
<g id="a_edge50_Node000031_Node000011"><a xlink:title=" ">
<path fill="none" stroke="#63b8ff" d="M1026.59,-228.88C1023.58,-228.18 1020.55,-227.53 1017.62,-227 981.15,-220.32 740.67,-195.99 640.4,-185.97"/>
<polygon fill="#63b8ff" stroke="#63b8ff" points="640.97,-182.51 630.68,-185 640.28,-189.48 640.97,-182.51"/>
</a>
</g>
</g>
<!-- Node31&#45;&gt;Node15 -->
<g id="edge49_Node000031_Node000015" class="edge">
<title>Node31&#45;&gt;Node15</title>
<g id="a_edge49_Node000031_Node000015"><a xlink:title=" ">
<path fill="none" stroke="#63b8ff" d="M1056.4,-226.85C1064.11,-200.37 1085.94,-125.43 1096.6,-88.8"/>
<polygon fill="#63b8ff" stroke="#63b8ff" points="1099.9,-90 1099.34,-79.42 1093.18,-88.04 1099.9,-90"/>
</a>
</g>
</g>
<!-- Node31&#45;&gt;Node20 -->
<g id="edge51_Node000031_Node000020" class="edge">
<title>Node31&#45;&gt;Node20</title>
<g id="a_edge51_Node000031_Node000020"><a xlink:title=" ">
<path fill="none" stroke="#63b8ff" d="M1026.56,-229.06C1023.55,-228.33 1020.53,-227.62 1017.62,-227 946.81,-211.79 864.54,-198.46 810.25,-190.25"/>
<polygon fill="#63b8ff" stroke="#63b8ff" points="811,-186.82 800.6,-188.8 809.97,-193.74 811,-186.82"/>
</a>
</g>
</g>
<!-- Node31&#45;&gt;Node28 -->
<g id="edge53_Node000031_Node000028" class="edge">
<title>Node31&#45;&gt;Node28</title>
<g id="a_edge53_Node000031_Node000028"><a xlink:title=" ">
<path fill="none" stroke="#63b8ff" d="M1066.14,-226.59C1076.19,-218.72 1090.54,-207.5 1102.38,-198.24"/>
<polygon fill="#63b8ff" stroke="#63b8ff" points="1104.31,-201.18 1110.03,-192.26 1099.99,-195.66 1104.31,-201.18"/>
</a>
</g>
</g>
<!-- Node32 -->
<g id="Node000032" class="node">
<title>Node32</title>
<g id="a_Node000032"><a xlink:href="native__sched_8h.html" target="_top" xlink:title="Add definitions required on the native board.">
<polygon fill="white" stroke="#666666" points="1044.38,-191 954.88,-191 954.88,-170.25 1044.38,-170.25 1044.38,-191"/>
<text text-anchor="middle" x="999.62" y="-177.5" font-family="Helvetica,sans-Serif" font-size="10.00">native_sched.h</text>
</a>
</g>
</g>
<!-- Node31&#45;&gt;Node32 -->
<g id="edge52_Node000031_Node000032" class="edge">
<title>Node31&#45;&gt;Node32</title>
<g id="a_edge52_Node000031_Node000032"><a xlink:title=" ">
<path fill="none" stroke="#63b8ff" d="M1043.97,-226.59C1036.52,-219.03 1026.02,-208.39 1017.1,-199.35"/>
<polygon fill="#63b8ff" stroke="#63b8ff" points="1019.77,-197.07 1010.26,-192.41 1014.79,-201.98 1019.77,-197.07"/>
</a>
</g>
</g>
<!-- Node33&#45;&gt;Node31 -->
<g id="edge57_Node000033_Node000031" class="edge">
<title>Node33&#45;&gt;Node31</title>
<g id="a_edge57_Node000033_Node000031"><a xlink:title=" ">
<path fill="none" stroke="#63b8ff" d="M972.32,-283.34C987.25,-275.08 1008.86,-263.13 1026.05,-253.63"/>
<polygon fill="#63b8ff" stroke="#63b8ff" points="1027.7,-256.71 1034.75,-248.81 1024.31,-250.59 1027.7,-256.71"/>
</a>
</g>
</g>
<!-- Node34 -->
<g id="Node000034" class="node">
<title>Node34</title>
<g id="a_Node000034"><a xlink:title=" ">
<polygon fill="#e0e0e0" stroke="#999999" points="1008.5,-247.75 940.75,-247.75 940.75,-227 1008.5,-227 1008.5,-247.75"/>
<text text-anchor="middle" x="974.62" y="-234.25" font-family="Helvetica,sans-Serif" font-size="10.00">cpu_conf.h</text>
</a>
</g>
</g>
<!-- Node33&#45;&gt;Node34 -->
<g id="edge56_Node000033_Node000034" class="edge">
<title>Node33&#45;&gt;Node34</title>
<g id="a_edge56_Node000033_Node000034"><a xlink:title=" ">
<path fill="none" stroke="#63b8ff" d="M958.2,-283.34C960.7,-276.49 964.14,-267.09 967.22,-258.65"/>
<polygon fill="#63b8ff" stroke="#63b8ff" points="970.42,-260.09 970.56,-249.5 963.84,-257.69 970.42,-260.09"/>
</a>
</g>
</g>
<!-- Node36&#45;&gt;Node18 -->
<g id="edge60_Node000036_Node000018" class="edge">
<title>Node36&#45;&gt;Node18</title>
<g id="a_edge60_Node000036_Node000018"><a xlink:title=" ">
<path fill="none" stroke="#63b8ff" d="M113.46,-453.85C112.98,-427.48 111.66,-353.08 111,-316.28"/>
<polygon fill="#63b8ff" stroke="#63b8ff" points="114.51,-316.42 110.83,-306.48 107.51,-316.54 114.51,-316.42"/>
</a>
</g>
</g>
<!-- Node37 -->
<g id="Node000037" class="node">
<title>Node37</title>
<g id="a_Node000037"><a xlink:title=" ">
<polygon fill="#e0e0e0" stroke="#999999" points="215.75,-418 137.5,-418 137.5,-397.25 215.75,-397.25 215.75,-418"/>
<text text-anchor="middle" x="176.62" y="-404.5" font-family="Helvetica,sans-Serif" font-size="10.00">periph_cpu.h</text>
</a>
</g>
</g>
<!-- Node36&#45;&gt;Node37 -->
<g id="edge61_Node000036_Node000037" class="edge">
<title>Node36&#45;&gt;Node37</title>
<g id="a_edge61_Node000036_Node000037"><a xlink:title=" ">
<path fill="none" stroke="#63b8ff" d="M124.89,-453.59C133.76,-445.88 146.34,-434.95 156.87,-425.79"/>
<polygon fill="#63b8ff" stroke="#63b8ff" points="159.06,-428.52 164.32,-419.32 154.47,-423.24 159.06,-428.52"/>
</a>
</g>
</g>
<!-- Node38 -->
<g id="Node000038" class="node">
<title>Node38</title>
<g id="a_Node000038"><a xlink:title=" ">
<polygon fill="#e0e0e0" stroke="#999999" points="81.25,-418 0,-418 0,-397.25 81.25,-397.25 81.25,-418"/>
<text text-anchor="middle" x="40.62" y="-404.5" font-family="Helvetica,sans-Serif" font-size="10.00">periph_conf.h</text>
</a>
</g>
</g>
<!-- Node36&#45;&gt;Node38 -->
<g id="edge62_Node000036_Node000038" class="edge">
<title>Node36&#45;&gt;Node38</title>
<g id="a_edge62_Node000036_Node000038"><a xlink:title=" ">
<path fill="none" stroke="#63b8ff" d="M100.57,-453.59C89.99,-445.65 74.83,-434.28 62.41,-424.96"/>
<polygon fill="#63b8ff" stroke="#63b8ff" points="64.87,-422.44 54.77,-419.24 60.67,-428.04 64.87,-422.44"/>
</a>
</g>
</g>
<!-- Node39&#45;&gt;Node3 -->
<g id="edge64_Node000039_Node000003" class="edge">
<title>Node39&#45;&gt;Node3</title>
<g id="a_edge64_Node000039_Node000003"><a xlink:title=" ">
<path fill="none" stroke="#63b8ff" d="M302.48,-510.34C301.01,-503.64 299.01,-494.51 297.2,-486.23"/>
<polygon fill="#63b8ff" stroke="#63b8ff" points="300.64,-485.58 295.08,-476.56 293.8,-487.07 300.64,-485.58"/>
</a>
</g>
</g>
<!-- Node39&#45;&gt;Node31 -->
<g id="edge65_Node000039_Node000031" class="edge">
<title>Node39&#45;&gt;Node31</title>
<g id="a_edge65_Node000039_Node000031"><a xlink:title=" ">
<path fill="none" stroke="#63b8ff" d="M343.86,-516.91C498.01,-503.35 1058.12,-444.85 1147.62,-304.5 1164.64,-277.82 1124.51,-258.82 1091.5,-248.23"/>
<polygon fill="#63b8ff" stroke="#63b8ff" points="1092.7,-244.93 1082.12,-245.39 1090.68,-251.63 1092.7,-244.93"/>
</a>
</g>
</g>
<!-- Node40&#45;&gt;Node3 -->
<g id="edge68_Node000040_Node000003" class="edge">
<title>Node40&#45;&gt;Node3</title>
<g id="a_edge68_Node000040_Node000003"><a xlink:title=" ">
<path fill="none" stroke="#63b8ff" d="M224.46,-510.34C236.74,-502.24 254.41,-490.58 268.68,-481.17"/>
<polygon fill="#63b8ff" stroke="#63b8ff" points="270.23,-484.34 276.65,-475.91 266.38,-478.5 270.23,-484.34"/>
</a>
</g>
</g>
<!-- Node40&#45;&gt;Node37 -->
<g id="edge67_Node000040_Node000037" class="edge">
<title>Node40&#45;&gt;Node37</title>
<g id="a_edge67_Node000040_Node000037"><a xlink:title=" ">
<path fill="none" stroke="#63b8ff" d="M206.81,-510.62C201.5,-492.69 189.91,-453.5 182.73,-429.26"/>
<polygon fill="#63b8ff" stroke="#63b8ff" points="186.15,-428.47 179.96,-419.88 179.44,-430.46 186.15,-428.47"/>
</a>
</g>
</g>
</g>
</svg>
