<?xml version="1.0" encoding="UTF-8" standalone="no"?>
<!DOCTYPE svg PUBLIC "-//W3C//DTD SVG 1.1//EN"
 "http://www.w3.org/Graphics/SVG/1.1/DTD/svg11.dtd">
<!-- Generated by graphviz version 12.1.1 (0)
 -->
<!-- Title: cpu/esp32/include/periph_cpu.h Pages: 1 -->
<svg width="876pt" height="155pt"
 viewBox="0.00 0.00 875.62 155.00" xmlns="http://www.w3.org/2000/svg" xmlns:xlink="http://www.w3.org/1999/xlink">
<g id="graph0" class="graph" transform="scale(1 1) rotate(0) translate(4 151)">
<title>cpu/esp32/include/periph_cpu.h</title>
<!-- Node1 -->
<g id="Node000001" class="node">
<title>Node1</title>
<g id="a_Node000001"><a xlink:title="Peripheral configuration that is common for all ESP32x SoCs.">
<polygon fill="#999999" stroke="#666666" points="384.38,-147 246.88,-147 246.88,-113.5 384.38,-113.5 384.38,-147"/>
<text text-anchor="start" x="254.88" y="-133.5" font-family="Helvetica,sans-Serif" font-size="10.00">cpu/esp32/include/periph</text>
<text text-anchor="middle" x="315.62" y="-120.75" font-family="Helvetica,sans-Serif" font-size="10.00">_cpu.h</text>
</a>
</g>
</g>
<!-- Node2 -->
<g id="Node000002" class="node">
<title>Node2</title>
<g id="a_Node000002"><a xlink:title=" ">
<polygon fill="#e0e0e0" stroke="#999999" points="83.12,-77.5 22.12,-77.5 22.12,-56.75 83.12,-56.75 83.12,-77.5"/>
<text text-anchor="middle" x="52.62" y="-64" font-family="Helvetica,sans-Serif" font-size="10.00">stdbool.h</text>
</a>
</g>
</g>
<!-- Node1&#45;&gt;Node2 -->
<g id="edge1_Node000001_Node000002" class="edge">
<title>Node1&#45;&gt;Node2</title>
<g id="a_edge1_Node000001_Node000002"><a xlink:title=" ">
<path fill="none" stroke="#63b8ff" d="M246.8,-113.32C205.39,-103.72 151.32,-91.18 94.26,-77.88"/>
<polygon fill="#63b8ff" stroke="#63b8ff" points="95.21,-74.5 84.67,-75.64 93.62,-81.32 95.21,-74.5"/>
</a>
</g>
</g>
<!-- Node3 -->
<g id="Node000003" class="node">
<title>Node3</title>
<g id="a_Node000003"><a xlink:title=" ">
<polygon fill="#e0e0e0" stroke="#999999" points="570,-20.75 517.25,-20.75 517.25,0 570,0 570,-20.75"/>
<text text-anchor="middle" x="543.62" y="-7.25" font-family="Helvetica,sans-Serif" font-size="10.00">stdint.h</text>
</a>
</g>
</g>
<!-- Node1&#45;&gt;Node3 -->
<g id="edge2_Node000001_Node000003" class="edge">
<title>Node1&#45;&gt;Node3</title>
<g id="a_edge2_Node000001_Node000003"><a xlink:title=" ">
<path fill="none" stroke="#63b8ff" d="M288.49,-113.11C266.81,-98.22 242.52,-75.63 258.62,-56.75 289.91,-20.09 435.11,-12.91 505.36,-11.6"/>
<polygon fill="#63b8ff" stroke="#63b8ff" points="505.3,-15.1 515.24,-11.45 505.19,-8.1 505.3,-15.1"/>
</a>
</g>
</g>
<!-- Node4 -->
<g id="Node000004" class="node">
<title>Node4</title>
<g id="a_Node000004"><a xlink:href="cpu_2esp32_2include_2sdkconfig_8h.html" target="_top" xlink:title="SDK configuration used by ESP&#45;IDF for all ESP32x SoC variants (families)">
<polygon fill="white" stroke="#666666" points="173.75,-77.5 101.5,-77.5 101.5,-56.75 173.75,-56.75 173.75,-77.5"/>
<text text-anchor="middle" x="137.62" y="-64" font-family="Helvetica,sans-Serif" font-size="10.00">sdkconfig.h</text>
</a>
</g>
</g>
<!-- Node1&#45;&gt;Node4 -->
<g id="edge3_Node000001_Node000004" class="edge">
<title>Node1&#45;&gt;Node4</title>
<g id="a_edge3_Node000001_Node000004"><a xlink:title=" ">
<path fill="none" stroke="#63b8ff" d="M268.39,-113.03C239.79,-103.21 203.74,-90.83 176.74,-81.56"/>
<polygon fill="#63b8ff" stroke="#63b8ff" points="178.16,-78.34 167.57,-78.41 175.89,-84.96 178.16,-78.34"/>
</a>
</g>
</g>
<!-- Node6 -->
<g id="Node000006" class="node">
<title>Node6</title>
<g id="a_Node000006"><a xlink:title=" ">
<polygon fill="#e0e0e0" stroke="#999999" points="258,-20.75 169.25,-20.75 169.25,0 258,0 258,-20.75"/>
<text text-anchor="middle" x="213.62" y="-7.25" font-family="Helvetica,sans-Serif" font-size="10.00">soc/soc_caps.h</text>
</a>
</g>
</g>
<!-- Node1&#45;&gt;Node6 -->
<g id="edge11_Node000001_Node000006" class="edge">
<title>Node1&#45;&gt;Node6</title>
<g id="a_edge11_Node000001_Node000006"><a xlink:title=" ">
<path fill="none" stroke="#63b8ff" d="M270.95,-113.08C254.29,-104.89 236.74,-93.26 225.62,-77.5 216.36,-64.36 213.59,-46.2 213.01,-32.24"/>
<polygon fill="#63b8ff" stroke="#63b8ff" points="216.51,-32.36 212.98,-22.37 209.51,-32.39 216.51,-32.36"/>
</a>
</g>
</g>
<!-- Node8 -->
<g id="Node000008" class="node">
<title>Node8</title>
<g id="a_Node000008"><a xlink:title=" ">
<polygon fill="#e0e0e0" stroke="#999999" points="363.38,-77.5 267.88,-77.5 267.88,-56.75 363.38,-56.75 363.38,-77.5"/>
<text text-anchor="middle" x="315.62" y="-64" font-family="Helvetica,sans-Serif" font-size="10.00">hal/ledc_types.h</text>
</a>
</g>
</g>
<!-- Node1&#45;&gt;Node8 -->
<g id="edge7_Node000001_Node000008" class="edge">
<title>Node1&#45;&gt;Node8</title>
<g id="a_edge7_Node000001_Node000008"><a xlink:title=" ">
<path fill="none" stroke="#63b8ff" d="M315.62,-113.19C315.62,-105.85 315.62,-97.07 315.62,-89.21"/>
<polygon fill="#63b8ff" stroke="#63b8ff" points="319.13,-89.48 315.63,-79.48 312.13,-89.48 319.13,-89.48"/>
</a>
</g>
</g>
<!-- Node9 -->
<g id="Node000009" class="node">
<title>Node9</title>
<g id="a_Node000009"><a xlink:title=" ">
<polygon fill="#e0e0e0" stroke="#999999" points="471.38,-77.5 381.88,-77.5 381.88,-56.75 471.38,-56.75 471.38,-77.5"/>
<text text-anchor="middle" x="426.62" y="-64" font-family="Helvetica,sans-Serif" font-size="10.00">hal/spi_types.h</text>
</a>
</g>
</g>
<!-- Node1&#45;&gt;Node9 -->
<g id="edge8_Node000001_Node000009" class="edge">
<title>Node1&#45;&gt;Node9</title>
<g id="a_edge8_Node000001_Node000009"><a xlink:title=" ">
<path fill="none" stroke="#63b8ff" d="M345.08,-113.03C361.73,-103.86 382.42,-92.47 398.8,-83.45"/>
<polygon fill="#63b8ff" stroke="#63b8ff" points="400.45,-86.53 407.52,-78.65 397.07,-80.4 400.45,-86.53"/>
</a>
</g>
</g>
<!-- Node10 -->
<g id="Node000010" class="node">
<title>Node10</title>
<g id="a_Node000010"><a xlink:title=" ">
<polygon fill="#e0e0e0" stroke="#999999" points="587.5,-77.5 489.75,-77.5 489.75,-56.75 587.5,-56.75 587.5,-77.5"/>
<text text-anchor="middle" x="538.62" y="-64" font-family="Helvetica,sans-Serif" font-size="10.00">soc/ledc_struct.h</text>
</a>
</g>
</g>
<!-- Node1&#45;&gt;Node10 -->
<g id="edge9_Node000001_Node000010" class="edge">
<title>Node1&#45;&gt;Node10</title>
<g id="a_edge9_Node000001_Node000010"><a xlink:title=" ">
<path fill="none" stroke="#63b8ff" d="M374.8,-113.03C411.43,-102.99 457.81,-90.28 491.86,-80.94"/>
<polygon fill="#63b8ff" stroke="#63b8ff" points="492.73,-84.33 501.45,-78.32 490.88,-77.58 492.73,-84.33"/>
</a>
</g>
</g>
<!-- Node11 -->
<g id="Node000011" class="node">
<title>Node11</title>
<g id="a_Node000011"><a xlink:title=" ">
<polygon fill="#e0e0e0" stroke="#999999" points="707.38,-77.5 605.88,-77.5 605.88,-56.75 707.38,-56.75 707.38,-77.5"/>
<text text-anchor="middle" x="656.62" y="-64" font-family="Helvetica,sans-Serif" font-size="10.00">soc/periph_defs.h</text>
</a>
</g>
</g>
<!-- Node1&#45;&gt;Node11 -->
<g id="edge10_Node000001_Node000011" class="edge">
<title>Node1&#45;&gt;Node11</title>
<g id="a_edge10_Node000001_Node000011"><a xlink:title=" ">
<path fill="none" stroke="#63b8ff" d="M384.63,-116.88C446.06,-105.87 535.13,-89.9 594.41,-79.28"/>
<polygon fill="#63b8ff" stroke="#63b8ff" points="594.77,-82.77 603.99,-77.56 593.53,-75.88 594.77,-82.77"/>
</a>
</g>
</g>
<!-- Node12 -->
<g id="Node000012" class="node">
<title>Node12</title>
<g id="a_Node000012"><a xlink:href="usbdev__synopsys__dwc2_8h.html" target="_top" xlink:title="Low level USB FS/HS driver definitions for MCUs with Synopsys DWC2 IP core.">
<polygon fill="white" stroke="#666666" points="867.62,-77.5 725.62,-77.5 725.62,-56.75 867.62,-56.75 867.62,-77.5"/>
<text text-anchor="middle" x="796.62" y="-64" font-family="Helvetica,sans-Serif" font-size="10.00">usbdev_synopsys_dwc2.h</text>
</a>
</g>
</g>
<!-- Node1&#45;&gt;Node12 -->
<g id="edge12_Node000001_Node000012" class="edge">
<title>Node1&#45;&gt;Node12</title>
<g id="a_edge12_Node000001_Node000012"><a xlink:title=" ">
<path fill="none" stroke="#63b8ff" d="M384.8,-120.46C471.77,-109.41 620.91,-90.45 713.85,-78.64"/>
<polygon fill="#63b8ff" stroke="#63b8ff" points="714.19,-82.13 723.67,-77.4 713.31,-75.18 714.19,-82.13"/>
</a>
</g>
</g>
<!-- Node5 -->
<g id="Node000005" class="node">
<title>Node5</title>
<g id="a_Node000005"><a xlink:title=" ">
<polygon fill="#e0e0e0" stroke="#999999" points="151.62,-20.75 99.62,-20.75 99.62,0 151.62,0 151.62,-20.75"/>
<text text-anchor="middle" x="125.62" y="-7.25" font-family="Helvetica,sans-Serif" font-size="10.00">stdlib.h</text>
</a>
</g>
</g>
<!-- Node4&#45;&gt;Node5 -->
<g id="edge4_Node000004_Node000005" class="edge">
<title>Node4&#45;&gt;Node5</title>
<g id="a_edge4_Node000004_Node000005"><a xlink:title=" ">
<path fill="none" stroke="#63b8ff" d="M135.48,-56.34C134.01,-49.64 132.01,-40.51 130.2,-32.23"/>
<polygon fill="#63b8ff" stroke="#63b8ff" points="133.64,-31.58 128.08,-22.56 126.8,-33.07 133.64,-31.58"/>
</a>
</g>
</g>
<!-- Node4&#45;&gt;Node6 -->
<g id="edge5_Node000004_Node000006" class="edge">
<title>Node4&#45;&gt;Node6</title>
<g id="a_edge5_Node000004_Node000006"><a xlink:title=" ">
<path fill="none" stroke="#63b8ff" d="M151.21,-56.34C162.24,-48.4 178.01,-37.03 190.95,-27.71"/>
<polygon fill="#63b8ff" stroke="#63b8ff" points="192.86,-30.65 198.93,-21.96 188.77,-24.97 192.86,-30.65"/>
</a>
</g>
</g>
<!-- Node7 -->
<g id="Node000007" class="node">
<title>Node7</title>
<g id="a_Node000007"><a xlink:title=" ">
<polygon fill="#e0e0e0" stroke="#999999" points="81.25,-20.75 0,-20.75 0,0 81.25,0 81.25,-20.75"/>
<text text-anchor="middle" x="40.62" y="-7.25" font-family="Helvetica,sans-Serif" font-size="10.00">esp_idf_ver.h</text>
</a>
</g>
</g>
<!-- Node4&#45;&gt;Node7 -->
<g id="edge6_Node000004_Node000007" class="edge">
<title>Node4&#45;&gt;Node7</title>
<g id="a_edge6_Node000004_Node000007"><a xlink:title=" ">
<path fill="none" stroke="#63b8ff" d="M120.28,-56.34C105.66,-48.08 84.49,-36.13 67.65,-26.63"/>
<polygon fill="#63b8ff" stroke="#63b8ff" points="69.56,-23.69 59.13,-21.82 66.12,-29.79 69.56,-23.69"/>
</a>
</g>
</g>
<!-- Node12&#45;&gt;Node3 -->
<g id="edge13_Node000012_Node000003" class="edge">
<title>Node12&#45;&gt;Node3</title>
<g id="a_edge13_Node000012_Node000003"><a xlink:title=" ">
<path fill="none" stroke="#63b8ff" d="M751.1,-56.27C702.55,-45.77 626.54,-29.32 581.25,-19.52"/>
<polygon fill="#63b8ff" stroke="#63b8ff" points="582.15,-16.13 571.63,-17.44 580.67,-22.97 582.15,-16.13"/>
</a>
</g>
</g>
</g>
</svg>
