<?xml version="1.0" encoding="UTF-8" standalone="no"?>
<!DOCTYPE svg PUBLIC "-//W3C//DTD SVG 1.1//EN"
 "http://www.w3.org/Graphics/SVG/1.1/DTD/svg11.dtd">
<!-- Generated by graphviz version 12.1.1 (0)
 -->
<!-- Title: cpu/esp8266/include/periph_cpu.h Pages: 1 -->
<svg width="415pt" height="155pt"
 viewBox="0.00 0.00 415.38 155.00" xmlns="http://www.w3.org/2000/svg" xmlns:xlink="http://www.w3.org/1999/xlink">
<g id="graph0" class="graph" transform="scale(1 1) rotate(0) translate(4 151)">
<title>cpu/esp8266/include/periph_cpu.h</title>
<!-- Node1 -->
<g id="Node000001" class="node">
<title>Node1</title>
<g id="a_Node000001"><a xlink:title="CPU specific definitions and functions for peripheral handling.">
<polygon fill="#999999" stroke="#666666" points="236.25,-147 120.5,-147 120.5,-113.5 236.25,-113.5 236.25,-147"/>
<text text-anchor="start" x="128.5" y="-133.5" font-family="Helvetica,sans-Serif" font-size="10.00">cpu/esp8266/include</text>
<text text-anchor="middle" x="178.38" y="-120.75" font-family="Helvetica,sans-Serif" font-size="10.00">/periph_cpu.h</text>
</a>
</g>
</g>
<!-- Node2 -->
<g id="Node000002" class="node">
<title>Node2</title>
<g id="a_Node000002"><a xlink:title=" ">
<polygon fill="#e0e0e0" stroke="#999999" points="52.75,-77.5 0,-77.5 0,-56.75 52.75,-56.75 52.75,-77.5"/>
<text text-anchor="middle" x="26.38" y="-64" font-family="Helvetica,sans-Serif" font-size="10.00">stdint.h</text>
</a>
</g>
</g>
<!-- Node1&#45;&gt;Node2 -->
<g id="edge1_Node000001_Node000002" class="edge">
<title>Node1&#45;&gt;Node2</title>
<g id="a_edge1_Node000001_Node000002"><a xlink:title=" ">
<path fill="none" stroke="#63b8ff" d="M138.04,-113.03C114.16,-103.43 84.19,-91.38 61.32,-82.18"/>
<polygon fill="#63b8ff" stroke="#63b8ff" points="62.71,-78.96 52.12,-78.48 60.1,-85.46 62.71,-78.96"/>
</a>
</g>
</g>
<!-- Node3 -->
<g id="Node000003" class="node">
<title>Node3</title>
<g id="a_Node000003"><a xlink:title=" ">
<polygon fill="#e0e0e0" stroke="#999999" points="123.75,-77.5 71,-77.5 71,-56.75 123.75,-56.75 123.75,-77.5"/>
<text text-anchor="middle" x="97.38" y="-64" font-family="Helvetica,sans-Serif" font-size="10.00">limits.h</text>
</a>
</g>
</g>
<!-- Node1&#45;&gt;Node3 -->
<g id="edge2_Node000001_Node000003" class="edge">
<title>Node1&#45;&gt;Node3</title>
<g id="a_edge2_Node000001_Node000003"><a xlink:title=" ">
<path fill="none" stroke="#63b8ff" d="M157.09,-113.19C145.52,-104.46 131.22,-93.67 119.52,-84.84"/>
<polygon fill="#63b8ff" stroke="#63b8ff" points="121.72,-82.11 111.63,-78.88 117.5,-87.7 121.72,-82.11"/>
</a>
</g>
</g>
<!-- Node4 -->
<g id="Node000004" class="node">
<title>Node4</title>
<g id="a_Node000004"><a xlink:title=" ">
<polygon fill="#e0e0e0" stroke="#999999" points="215.25,-77.5 141.5,-77.5 141.5,-56.75 215.25,-56.75 215.25,-77.5"/>
<text text-anchor="middle" x="178.38" y="-64" font-family="Helvetica,sans-Serif" font-size="10.00">eagle_soc.h</text>
</a>
</g>
</g>
<!-- Node1&#45;&gt;Node4 -->
<g id="edge3_Node000001_Node000004" class="edge">
<title>Node1&#45;&gt;Node4</title>
<g id="a_edge3_Node000001_Node000004"><a xlink:title=" ">
<path fill="none" stroke="#63b8ff" d="M178.38,-113.19C178.38,-105.85 178.38,-97.07 178.38,-89.21"/>
<polygon fill="#63b8ff" stroke="#63b8ff" points="181.88,-89.48 178.38,-79.48 174.88,-89.48 181.88,-89.48"/>
</a>
</g>
</g>
<!-- Node5 -->
<g id="Node000005" class="node">
<title>Node5</title>
<g id="a_Node000005"><a xlink:href="esp8266_2include_2cpu__conf_8h.html" target="_top" xlink:title="CPU specific configuration options.">
<polygon fill="white" stroke="#666666" points="301.25,-77.5 233.5,-77.5 233.5,-56.75 301.25,-56.75 301.25,-77.5"/>
<text text-anchor="middle" x="267.38" y="-64" font-family="Helvetica,sans-Serif" font-size="10.00">cpu_conf.h</text>
</a>
</g>
</g>
<!-- Node1&#45;&gt;Node5 -->
<g id="edge4_Node000001_Node000005" class="edge">
<title>Node1&#45;&gt;Node5</title>
<g id="a_edge4_Node000001_Node000005"><a xlink:title=" ">
<path fill="none" stroke="#63b8ff" d="M201.76,-113.19C214.73,-104.28 230.81,-93.24 243.81,-84.31"/>
<polygon fill="#63b8ff" stroke="#63b8ff" points="245.54,-87.37 251.8,-78.82 241.57,-81.6 245.54,-87.37"/>
</a>
</g>
</g>
<!-- Node8 -->
<g id="Node000008" class="node">
<title>Node8</title>
<g id="a_Node000008"><a xlink:href="units_8h.html" target="_top" xlink:title="Unit helper macros.">
<polygon fill="white" stroke="#666666" points="407.38,-77.5 319.38,-77.5 319.38,-56.75 407.38,-56.75 407.38,-77.5"/>
<text text-anchor="middle" x="363.38" y="-64" font-family="Helvetica,sans-Serif" font-size="10.00">macros/units.h</text>
</a>
</g>
</g>
<!-- Node1&#45;&gt;Node8 -->
<g id="edge7_Node000001_Node000008" class="edge">
<title>Node1&#45;&gt;Node8</title>
<g id="a_edge7_Node000001_Node000008"><a xlink:title=" ">
<path fill="none" stroke="#63b8ff" d="M227.47,-113.03C257.33,-103.16 295,-90.72 323.1,-81.43"/>
<polygon fill="#63b8ff" stroke="#63b8ff" points="323.91,-84.85 332.31,-78.39 321.71,-78.2 323.91,-84.85"/>
</a>
</g>
</g>
<!-- Node6 -->
<g id="Node000006" class="node">
<title>Node6</title>
<g id="a_Node000006"><a xlink:title=" ">
<polygon fill="#e0e0e0" stroke="#999999" points="266.62,-20.75 150.12,-20.75 150.12,0 266.62,0 266.62,-20.75"/>
<text text-anchor="middle" x="208.38" y="-7.25" font-family="Helvetica,sans-Serif" font-size="10.00">cpu_conf_common.h</text>
</a>
</g>
</g>
<!-- Node5&#45;&gt;Node6 -->
<g id="edge5_Node000005_Node000006" class="edge">
<title>Node5&#45;&gt;Node6</title>
<g id="a_edge5_Node000005_Node000006"><a xlink:title=" ">
<path fill="none" stroke="#63b8ff" d="M256.83,-56.34C248.6,-48.71 236.98,-37.92 227.17,-28.82"/>
<polygon fill="#63b8ff" stroke="#63b8ff" points="229.65,-26.34 219.94,-22.11 224.89,-31.48 229.65,-26.34"/>
</a>
</g>
</g>
<!-- Node7 -->
<g id="Node000007" class="node">
<title>Node7</title>
<g id="a_Node000007"><a xlink:href="xtensa__conf_8h.html" target="_top" xlink:title="Xtensa ASM code specific configuration options for ESP SoCs.">
<polygon fill="white" stroke="#666666" points="368.12,-20.75 284.62,-20.75 284.62,0 368.12,0 368.12,-20.75"/>
<text text-anchor="middle" x="326.38" y="-7.25" font-family="Helvetica,sans-Serif" font-size="10.00">xtensa_conf.h</text>
</a>
</g>
</g>
<!-- Node5&#45;&gt;Node7 -->
<g id="edge6_Node000005_Node000007" class="edge">
<title>Node5&#45;&gt;Node7</title>
<g id="a_edge6_Node000005_Node000007"><a xlink:title=" ">
<path fill="none" stroke="#63b8ff" d="M277.92,-56.34C286.15,-48.71 297.77,-37.92 307.58,-28.82"/>
<polygon fill="#63b8ff" stroke="#63b8ff" points="309.86,-31.48 314.81,-22.11 305.1,-26.34 309.86,-31.48"/>
</a>
</g>
</g>
</g>
</svg>
