<?xml version="1.0" encoding="UTF-8" standalone="no"?>
<!DOCTYPE svg PUBLIC "-//W3C//DTD SVG 1.1//EN"
 "http://www.w3.org/Graphics/SVG/1.1/DTD/svg11.dtd">
<!-- Generated by graphviz version 12.1.1 (0)
 -->
<!-- Title: cpu/esp8266/include/cpu_conf.h Pages: 1 -->
<svg width="226pt" height="98pt"
 viewBox="0.00 0.00 226.00 98.25" xmlns="http://www.w3.org/2000/svg" xmlns:xlink="http://www.w3.org/1999/xlink">
<g id="graph0" class="graph" transform="scale(1 1) rotate(0) translate(4 94.25)">
<title>cpu/esp8266/include/cpu_conf.h</title>
<!-- Node1 -->
<g id="Node000001" class="node">
<title>Node1</title>
<g id="a_Node000001"><a xlink:title="CPU specific configuration options.">
<polygon fill="#999999" stroke="#666666" points="175.12,-90.25 59.38,-90.25 59.38,-56.75 175.12,-56.75 175.12,-90.25"/>
<text text-anchor="start" x="67.38" y="-76.75" font-family="Helvetica,sans-Serif" font-size="10.00">cpu/esp8266/include</text>
<text text-anchor="middle" x="117.25" y="-64" font-family="Helvetica,sans-Serif" font-size="10.00">/cpu_conf.h</text>
</a>
</g>
</g>
<!-- Node2 -->
<g id="Node000002" class="node">
<title>Node2</title>
<g id="a_Node000002"><a xlink:title=" ">
<polygon fill="#e0e0e0" stroke="#999999" points="116.5,-20.75 0,-20.75 0,0 116.5,0 116.5,-20.75"/>
<text text-anchor="middle" x="58.25" y="-7.25" font-family="Helvetica,sans-Serif" font-size="10.00">cpu_conf_common.h</text>
</a>
</g>
</g>
<!-- Node1&#45;&gt;Node2 -->
<g id="edge1_Node000001_Node000002" class="edge">
<title>Node1&#45;&gt;Node2</title>
<g id="a_edge1_Node000001_Node000002"><a xlink:title=" ">
<path fill="none" stroke="#63b8ff" d="M101.75,-56.44C93.74,-48.14 83.94,-37.99 75.67,-29.43"/>
<polygon fill="#63b8ff" stroke="#63b8ff" points="78.26,-27.07 68.8,-22.31 73.23,-31.93 78.26,-27.07"/>
</a>
</g>
</g>
<!-- Node3 -->
<g id="Node000003" class="node">
<title>Node3</title>
<g id="a_Node000003"><a xlink:href="xtensa__conf_8h.html" target="_top" xlink:title="Xtensa ASM code specific configuration options for ESP SoCs.">
<polygon fill="white" stroke="#666666" points="218,-20.75 134.5,-20.75 134.5,0 218,0 218,-20.75"/>
<text text-anchor="middle" x="176.25" y="-7.25" font-family="Helvetica,sans-Serif" font-size="10.00">xtensa_conf.h</text>
</a>
</g>
</g>
<!-- Node1&#45;&gt;Node3 -->
<g id="edge2_Node000001_Node000003" class="edge">
<title>Node1&#45;&gt;Node3</title>
<g id="a_edge2_Node000001_Node000003"><a xlink:title=" ">
<path fill="none" stroke="#63b8ff" d="M132.75,-56.44C140.76,-48.14 150.56,-37.99 158.83,-29.43"/>
<polygon fill="#63b8ff" stroke="#63b8ff" points="161.27,-31.93 165.7,-22.31 156.24,-27.07 161.27,-31.93"/>
</a>
</g>
</g>
</g>
</svg>
