<?xml version="1.0" encoding="UTF-8" standalone="no"?>
<!DOCTYPE svg PUBLIC "-//W3C//DTD SVG 1.1//EN"
 "http://www.w3.org/Graphics/SVG/1.1/DTD/svg11.dtd">
<!-- Generated by graphviz version 12.1.1 (0)
 -->
<!-- Title: sys/include/evtimer_msg.h Pages: 1 -->
<svg width="2019pt" height="358pt"
 viewBox="0.00 0.00 2019.11 357.75" xmlns="http://www.w3.org/2000/svg" xmlns:xlink="http://www.w3.org/1999/xlink">
<g id="graph0" class="graph" transform="scale(1 1) rotate(0) translate(4 353.75)">
<title>sys/include/evtimer_msg.h</title>
<!-- Node1 -->
<g id="Node000001" class="node">
<title>Node1</title>
<g id="a_Node000001"><a xlink:title="IPC&#45;based evtimer definitions.">
<polygon fill="#999999" stroke="#666666" points="1290.75,-349.75 1178.75,-349.75 1178.75,-316.25 1290.75,-316.25 1290.75,-349.75"/>
<text text-anchor="start" x="1186.75" y="-336.25" font-family="Helvetica,sans-Serif" font-size="10.00">sys/include/evtimer</text>
<text text-anchor="middle" x="1234.75" y="-323.5" font-family="Helvetica,sans-Serif" font-size="10.00">_msg.h</text>
</a>
</g>
</g>
<!-- Node2 -->
<g id="Node000002" class="node">
<title>Node2</title>
<g id="a_Node000002"><a xlink:href="net_2gnrc_2mac_2timeout_8h.html" target="_top" xlink:title="Timeout APIs used by GNRC_MAC.">
<polygon fill="white" stroke="#666666" points="416.5,-273.88 303,-273.88 303,-240.38 416.5,-240.38 416.5,-273.88"/>
<text text-anchor="start" x="311" y="-260.38" font-family="Helvetica,sans-Serif" font-size="10.00">sys/include/net/gnrc</text>
<text text-anchor="middle" x="359.75" y="-247.62" font-family="Helvetica,sans-Serif" font-size="10.00">/mac/timeout.h</text>
</a>
</g>
</g>
<!-- Node1&#45;&gt;Node2 -->
<g id="edge1_Node000001_Node000002" class="edge">
<title>Node1&#45;&gt;Node2</title>
<g id="a_edge1_Node000001_Node000002"><a xlink:title=" ">
<path fill="none" stroke="#63b8ff" d="M1167.02,-329.93C999.11,-324.43 567.01,-307.96 425.75,-280.25 418.16,-278.76 410.24,-276.63 402.63,-274.28"/>
<polygon fill="#63b8ff" stroke="#63b8ff" points="1166.79,-333.42 1176.89,-330.25 1167.01,-326.43 1166.79,-333.42"/>
</a>
</g>
</g>
<!-- Node3 -->
<g id="Node000003" class="node">
<title>Node3</title>
<g id="a_Node000003"><a xlink:href="gnrc_2netif_2ipv6_8h.html" target="_top" xlink:title="IPv6 definitions for Network interface API.">
<polygon fill="white" stroke="#666666" points="1572.5,-273.88 1459,-273.88 1459,-240.38 1572.5,-240.38 1572.5,-273.88"/>
<text text-anchor="start" x="1467" y="-260.38" font-family="Helvetica,sans-Serif" font-size="10.00">sys/include/net/gnrc</text>
<text text-anchor="middle" x="1515.75" y="-247.62" font-family="Helvetica,sans-Serif" font-size="10.00">/netif/ipv6.h</text>
</a>
</g>
</g>
<!-- Node1&#45;&gt;Node3 -->
<g id="edge2_Node000001_Node000003" class="edge">
<title>Node1&#45;&gt;Node3</title>
<g id="a_edge2_Node000001_Node000003"><a xlink:title=" ">
<path fill="none" stroke="#63b8ff" d="M1301.81,-314.37C1349.65,-301.79 1413.29,-285.06 1458.7,-273.12"/>
<polygon fill="#63b8ff" stroke="#63b8ff" points="1301.18,-310.92 1292.4,-316.84 1302.96,-317.69 1301.18,-310.92"/>
</a>
</g>
</g>
<!-- Node5 -->
<g id="Node000005" class="node">
<title>Node5</title>
<g id="a_Node000005"><a xlink:href="structs_8h.html" target="_top" xlink:title="RPL data structs.">
<polygon fill="white" stroke="#666666" points="548.5,-273.88 435,-273.88 435,-240.38 548.5,-240.38 548.5,-273.88"/>
<text text-anchor="start" x="443" y="-260.38" font-family="Helvetica,sans-Serif" font-size="10.00">sys/include/net/gnrc</text>
<text text-anchor="middle" x="491.75" y="-247.62" font-family="Helvetica,sans-Serif" font-size="10.00">/rpl/structs.h</text>
</a>
</g>
</g>
<!-- Node1&#45;&gt;Node5 -->
<g id="edge4_Node000001_Node000005" class="edge">
<title>Node1&#45;&gt;Node5</title>
<g id="a_edge4_Node000001_Node000005"><a xlink:title=" ">
<path fill="none" stroke="#63b8ff" d="M1166.94,-325.26C1021.92,-310.84 683.85,-277.22 548.88,-263.81"/>
<polygon fill="#63b8ff" stroke="#63b8ff" points="1166.49,-328.73 1176.79,-326.24 1167.18,-321.76 1166.49,-328.73"/>
</a>
</g>
</g>
<!-- Node15 -->
<g id="Node000015" class="node">
<title>Node15</title>
<g id="a_Node000015"><a xlink:href="sfr__types_8h.html" target="_top" xlink:title="6LoWPAN selective fragment recovery type definitions for GNRC">
<polygon fill="white" stroke="#666666" points="990.75,-273.88 842.75,-273.88 842.75,-240.38 990.75,-240.38 990.75,-273.88"/>
<text text-anchor="start" x="850.75" y="-260.38" font-family="Helvetica,sans-Serif" font-size="10.00">sys/include/net/gnrc</text>
<text text-anchor="middle" x="916.75" y="-247.62" font-family="Helvetica,sans-Serif" font-size="10.00">/sixlowpan/frag/sfr_types.h</text>
</a>
</g>
</g>
<!-- Node1&#45;&gt;Node15 -->
<g id="edge18_Node000001_Node000015" class="edge">
<title>Node1&#45;&gt;Node15</title>
<g id="a_edge18_Node000001_Node000015"><a xlink:title=" ">
<path fill="none" stroke="#63b8ff" d="M1167.25,-316.32C1114.12,-303.98 1040.32,-286.83 986.59,-274.35"/>
<polygon fill="#63b8ff" stroke="#63b8ff" points="1166.26,-319.68 1176.79,-318.54 1167.84,-312.86 1166.26,-319.68"/>
</a>
</g>
</g>
<!-- Node18 -->
<g id="Node000018" class="node">
<title>Node18</title>
<g id="a_Node000018"><a xlink:href="tcb_8h.html" target="_top" xlink:title="GNRC TCP transmission control block (TCB)">
<polygon fill="white" stroke="#666666" points="1291.5,-273.88 1178,-273.88 1178,-240.38 1291.5,-240.38 1291.5,-273.88"/>
<text text-anchor="start" x="1186" y="-260.38" font-family="Helvetica,sans-Serif" font-size="10.00">sys/include/net/gnrc</text>
<text text-anchor="middle" x="1234.75" y="-247.62" font-family="Helvetica,sans-Serif" font-size="10.00">/tcp/tcb.h</text>
</a>
</g>
</g>
<!-- Node1&#45;&gt;Node18 -->
<g id="edge22_Node000001_Node000018" class="edge">
<title>Node1&#45;&gt;Node18</title>
<g id="a_edge22_Node000001_Node000018"><a xlink:title=" ">
<path fill="none" stroke="#63b8ff" d="M1234.75,-304.61C1234.75,-294.35 1234.75,-283.02 1234.75,-274.12"/>
<polygon fill="#63b8ff" stroke="#63b8ff" points="1231.25,-304.46 1234.75,-314.46 1238.25,-304.46 1231.25,-304.46"/>
</a>
</g>
</g>
<!-- Node25 -->
<g id="Node000025" class="node">
<title>Node25</title>
<g id="a_Node000025"><a xlink:href="__nib-internal_8h_source.html" target="_top" xlink:title=" ">
<polygon fill="white" stroke="#666666" points="1861.75,-280.25 1743.75,-280.25 1743.75,-234 1861.75,-234 1861.75,-280.25"/>
<text text-anchor="start" x="1751.75" y="-266.75" font-family="Helvetica,sans-Serif" font-size="10.00">sys/net/gnrc/network</text>
<text text-anchor="start" x="1751.75" y="-254" font-family="Helvetica,sans-Serif" font-size="10.00">_layer/ipv6/nib/_nib</text>
<text text-anchor="middle" x="1802.75" y="-241.25" font-family="Helvetica,sans-Serif" font-size="10.00">&#45;internal.h</text>
</a>
</g>
</g>
<!-- Node1&#45;&gt;Node25 -->
<g id="edge29_Node000001_Node000025" class="edge">
<title>Node1&#45;&gt;Node25</title>
<g id="a_edge29_Node000001_Node000025"><a xlink:title=" ">
<path fill="none" stroke="#63b8ff" d="M1302.17,-323.23C1414.22,-308.66 1636.94,-279.69 1743.4,-265.84"/>
<polygon fill="#63b8ff" stroke="#63b8ff" points="1301.99,-319.72 1292.53,-324.49 1302.9,-326.67 1301.99,-319.72"/>
</a>
</g>
</g>
<!-- Node29 -->
<g id="Node000029" class="node">
<title>Node29</title>
<g id="a_Node000029"><a xlink:href="gnrc__tcp__eventloop_8h.html" target="_top" xlink:title="TCP event loop declarations.">
<polygon fill="white" stroke="#666666" points="2005.88,-280.25 1879.62,-280.25 1879.62,-234 2005.88,-234 2005.88,-280.25"/>
<text text-anchor="start" x="1887.62" y="-266.75" font-family="Helvetica,sans-Serif" font-size="10.00">sys/net/gnrc/transport</text>
<text text-anchor="start" x="1887.62" y="-254" font-family="Helvetica,sans-Serif" font-size="10.00">_layer/tcp/include/gnrc</text>
<text text-anchor="middle" x="1942.75" y="-241.25" font-family="Helvetica,sans-Serif" font-size="10.00">_tcp_eventloop.h</text>
</a>
</g>
</g>
<!-- Node1&#45;&gt;Node29 -->
<g id="edge37_Node000001_Node000029" class="edge">
<title>Node1&#45;&gt;Node29</title>
<g id="a_edge37_Node000001_Node000029"><a xlink:title=" ">
<path fill="none" stroke="#63b8ff" d="M1302.26,-331.3C1419.12,-329.02 1666.23,-319.51 1870.75,-280.25 1873.58,-279.71 1876.45,-279.1 1879.34,-278.43"/>
<polygon fill="#63b8ff" stroke="#63b8ff" points="1302.47,-327.79 1292.54,-331.47 1302.6,-334.79 1302.47,-327.79"/>
</a>
</g>
</g>
<!-- Node4 -->
<g id="Node000004" class="node">
<title>Node4</title>
<g id="a_Node000004"><a xlink:href="__nib-router_8h_source.html" target="_top" xlink:title=" ">
<polygon fill="white" stroke="#666666" points="1793.75,-198 1675.75,-198 1675.75,-151.75 1793.75,-151.75 1793.75,-198"/>
<text text-anchor="start" x="1683.75" y="-184.5" font-family="Helvetica,sans-Serif" font-size="10.00">sys/net/gnrc/network</text>
<text text-anchor="start" x="1683.75" y="-171.75" font-family="Helvetica,sans-Serif" font-size="10.00">_layer/ipv6/nib/_nib</text>
<text text-anchor="middle" x="1734.75" y="-159" font-family="Helvetica,sans-Serif" font-size="10.00">&#45;router.h</text>
</a>
</g>
</g>
<!-- Node3&#45;&gt;Node4 -->
<g id="edge3_Node000003_Node000004" class="edge">
<title>Node3&#45;&gt;Node4</title>
<g id="a_edge3_Node000003_Node000004"><a xlink:title=" ">
<path fill="none" stroke="#63b8ff" d="M1570.56,-236.04C1602.53,-224.33 1642.86,-209.55 1675.55,-197.57"/>
<polygon fill="#63b8ff" stroke="#63b8ff" points="1569.67,-232.64 1561.49,-239.36 1572.08,-239.21 1569.67,-232.64"/>
</a>
</g>
</g>
<!-- Node6 -->
<g id="Node000006" class="node">
<title>Node6</title>
<g id="a_Node000006"><a xlink:href="rpl_8h.html" target="_top" xlink:title="RPL header.">
<polygon fill="white" stroke="#666666" points="633.5,-115.75 520,-115.75 520,-82.25 633.5,-82.25 633.5,-115.75"/>
<text text-anchor="start" x="528" y="-102.25" font-family="Helvetica,sans-Serif" font-size="10.00">sys/include/net/gnrc</text>
<text text-anchor="middle" x="576.75" y="-89.5" font-family="Helvetica,sans-Serif" font-size="10.00">/rpl.h</text>
</a>
</g>
</g>
<!-- Node5&#45;&gt;Node6 -->
<g id="edge5_Node000005_Node000006" class="edge">
<title>Node5&#45;&gt;Node6</title>
<g id="a_edge5_Node000005_Node000006"><a xlink:title=" ">
<path fill="none" stroke="#63b8ff" d="M491.51,-228.76C492.49,-206.54 496.62,-175.17 510.75,-151.75 519.63,-137.04 534.34,-124.9 547.63,-116.08"/>
<polygon fill="#63b8ff" stroke="#63b8ff" points="488.02,-228.46 491.29,-238.54 495.02,-228.62 488.02,-228.46"/>
</a>
</g>
</g>
<!-- Node7 -->
<g id="Node000007" class="node">
<title>Node7</title>
<g id="a_Node000007"><a xlink:href="dodag_8h.html" target="_top" xlink:title="DODAG&#45;related functions for RPL.">
<polygon fill="white" stroke="#666666" points="675.5,-39.88 562,-39.88 562,-6.38 675.5,-6.38 675.5,-39.88"/>
<text text-anchor="start" x="570" y="-26.38" font-family="Helvetica,sans-Serif" font-size="10.00">sys/include/net/gnrc</text>
<text text-anchor="middle" x="618.75" y="-13.62" font-family="Helvetica,sans-Serif" font-size="10.00">/rpl/dodag.h</text>
</a>
</g>
</g>
<!-- Node5&#45;&gt;Node7 -->
<g id="edge9_Node000005_Node000007" class="edge">
<title>Node5&#45;&gt;Node7</title>
<g id="a_edge9_Node000005_Node000007"><a xlink:title=" ">
<path fill="none" stroke="#63b8ff" d="M560.07,-247.4C590.69,-239.7 624.06,-225.22 642.75,-198 676.56,-148.76 644.53,-73 627.66,-40.19"/>
<polygon fill="#63b8ff" stroke="#63b8ff" points="559.39,-243.96 550.42,-249.6 560.94,-250.79 559.39,-243.96"/>
</a>
</g>
</g>
<!-- Node9 -->
<g id="Node000009" class="node">
<title>Node9</title>
<g id="a_Node000009"><a xlink:href="of__manager_8h.html" target="_top" xlink:title="RPL Objective functions manager header.">
<polygon fill="white" stroke="#666666" points="633.5,-191.62 520,-191.62 520,-158.12 633.5,-158.12 633.5,-191.62"/>
<text text-anchor="start" x="528" y="-178.12" font-family="Helvetica,sans-Serif" font-size="10.00">sys/include/net/gnrc</text>
<text text-anchor="middle" x="576.75" y="-165.38" font-family="Helvetica,sans-Serif" font-size="10.00">/rpl/of_manager.h</text>
</a>
</g>
</g>
<!-- Node5&#45;&gt;Node9 -->
<g id="edge10_Node000005_Node000009" class="edge">
<title>Node5&#45;&gt;Node9</title>
<g id="a_edge10_Node000005_Node000009"><a xlink:title=" ">
<path fill="none" stroke="#63b8ff" d="M517.06,-232.23C530.77,-219.28 547.37,-203.61 559.57,-192.09"/>
<polygon fill="#63b8ff" stroke="#63b8ff" points="514.92,-229.44 510.05,-238.85 519.73,-234.53 514.92,-229.44"/>
</a>
</g>
</g>
<!-- Node10 -->
<g id="Node000010" class="node">
<title>Node10</title>
<g id="a_Node000010"><a xlink:href="p2p_8h.html" target="_top" xlink:title="Definititions for P2P&#45;RPL.">
<polygon fill="white" stroke="#666666" points="113.5,-115.75 0,-115.75 0,-82.25 113.5,-82.25 113.5,-115.75"/>
<text text-anchor="start" x="8" y="-102.25" font-family="Helvetica,sans-Serif" font-size="10.00">sys/include/net/gnrc</text>
<text text-anchor="middle" x="56.75" y="-89.5" font-family="Helvetica,sans-Serif" font-size="10.00">/rpl/p2p.h</text>
</a>
</g>
</g>
<!-- Node5&#45;&gt;Node10 -->
<g id="edge12_Node000005_Node000010" class="edge">
<title>Node5&#45;&gt;Node10</title>
<g id="a_edge12_Node000005_Node000010"><a xlink:title=" ">
<path fill="none" stroke="#63b8ff" d="M436.72,-236.68C433.03,-235.69 429.35,-234.78 425.75,-234 349.33,-217.47 133.44,-250.77 75.75,-198 52.99,-177.18 52.69,-137.93 54.63,-115.95"/>
<polygon fill="#63b8ff" stroke="#63b8ff" points="435.72,-240.03 446.29,-239.46 437.67,-233.31 435.72,-240.03"/>
</a>
</g>
</g>
<!-- Node11 -->
<g id="Node000011" class="node">
<title>Node11</title>
<g id="a_Node000011"><a xlink:href="p2p__structs_8h.html" target="_top" xlink:title="P2P&#45;RPL data structs.">
<polygon fill="white" stroke="#666666" points="198.5,-191.62 85,-191.62 85,-158.12 198.5,-158.12 198.5,-191.62"/>
<text text-anchor="start" x="93" y="-178.12" font-family="Helvetica,sans-Serif" font-size="10.00">sys/include/net/gnrc</text>
<text text-anchor="middle" x="141.75" y="-165.38" font-family="Helvetica,sans-Serif" font-size="10.00">/rpl/p2p_structs.h</text>
</a>
</g>
</g>
<!-- Node5&#45;&gt;Node11 -->
<g id="edge13_Node000005_Node000011" class="edge">
<title>Node5&#45;&gt;Node11</title>
<g id="a_edge13_Node000005_Node000011"><a xlink:title=" ">
<path fill="none" stroke="#63b8ff" d="M435.79,-236.69C432.41,-235.72 429.04,-234.82 425.75,-234 330.45,-210.32 303.05,-221.68 207.75,-198 200.95,-196.31 193.84,-194.25 186.91,-192.07"/>
<polygon fill="#63b8ff" stroke="#63b8ff" points="434.55,-239.97 445.14,-239.49 436.56,-233.26 434.55,-239.97"/>
</a>
</g>
</g>
<!-- Node13 -->
<g id="Node000013" class="node">
<title>Node13</title>
<g id="a_Node000013"><a xlink:href="validation_8h.html" target="_top" xlink:title="RPL control message validation functions.">
<polygon fill="white" stroke="#666666" points="333,-198 216.5,-198 216.5,-151.75 333,-151.75 333,-198"/>
<text text-anchor="start" x="224.5" y="-184.5" font-family="Helvetica,sans-Serif" font-size="10.00">sys/net/gnrc/routing</text>
<text text-anchor="start" x="224.5" y="-171.75" font-family="Helvetica,sans-Serif" font-size="10.00">/rpl/gnrc_rpl_internal</text>
<text text-anchor="middle" x="274.75" y="-159" font-family="Helvetica,sans-Serif" font-size="10.00">/validation.h</text>
</a>
</g>
</g>
<!-- Node5&#45;&gt;Node13 -->
<g id="edge16_Node000005_Node000013" class="edge">
<title>Node5&#45;&gt;Node13</title>
<g id="a_edge16_Node000005_Node000013"><a xlink:title=" ">
<path fill="none" stroke="#63b8ff" d="M437.44,-236.04C405.76,-224.33 365.8,-209.55 333.41,-197.57"/>
<polygon fill="#63b8ff" stroke="#63b8ff" points="435.82,-239.17 446.42,-239.36 438.25,-232.61 435.82,-239.17"/>
</a>
</g>
</g>
<!-- Node14 -->
<g id="Node000014" class="node">
<title>Node14</title>
<g id="a_Node000014"><a xlink:href="of0_8h.html" target="_top" xlink:title="Objective Function Zero.">
<polygon fill="white" stroke="#666666" points="464.12,-191.62 351.38,-191.62 351.38,-158.12 464.12,-158.12 464.12,-191.62"/>
<text text-anchor="start" x="359.38" y="-178.12" font-family="Helvetica,sans-Serif" font-size="10.00">sys/net/gnrc/routing</text>
<text text-anchor="middle" x="407.75" y="-165.38" font-family="Helvetica,sans-Serif" font-size="10.00">/rpl/of0.h</text>
</a>
</g>
</g>
<!-- Node5&#45;&gt;Node14 -->
<g id="edge17_Node000005_Node000014" class="edge">
<title>Node5&#45;&gt;Node14</title>
<g id="a_edge17_Node000005_Node000014"><a xlink:title=" ">
<path fill="none" stroke="#63b8ff" d="M466.74,-232.23C453.18,-219.28 436.79,-203.61 424.72,-192.09"/>
<polygon fill="#63b8ff" stroke="#63b8ff" points="464.01,-234.46 473.66,-238.84 468.84,-229.4 464.01,-234.46"/>
</a>
</g>
</g>
<!-- Node6&#45;&gt;Node7 -->
<g id="edge6_Node000006_Node000007" class="edge">
<title>Node6&#45;&gt;Node7</title>
<g id="a_edge6_Node000006_Node000007"><a xlink:title=" ">
<path fill="none" stroke="#63b8ff" d="M585.08,-71.95C590.58,-61.34 597.63,-49.41 603.98,-40.12"/>
<polygon fill="#63b8ff" stroke="#63b8ff" points="582.09,-70.09 580.85,-80.61 588.38,-73.16 582.09,-70.09"/>
</a>
</g>
</g>
<!-- Node8 -->
<g id="Node000008" class="node">
<title>Node8</title>
<g id="a_Node000008"><a xlink:href="gnrc__ipv6__auto__subnets_8c.html" target="_top" xlink:title=" ">
<polygon fill="white" stroke="#666666" points="544,-46.25 409.5,-46.25 409.5,0 544,0 544,-46.25"/>
<text text-anchor="start" x="417.5" y="-32.75" font-family="Helvetica,sans-Serif" font-size="10.00">sys/net/gnrc/routing</text>
<text text-anchor="start" x="417.5" y="-20" font-family="Helvetica,sans-Serif" font-size="10.00">/ipv6_auto_subnets/gnrc</text>
<text text-anchor="middle" x="476.75" y="-7.25" font-family="Helvetica,sans-Serif" font-size="10.00">_ipv6_auto_subnets.c</text>
</a>
</g>
</g>
<!-- Node6&#45;&gt;Node8 -->
<g id="edge8_Node000006_Node000008" class="edge">
<title>Node6&#45;&gt;Node8</title>
<g id="a_edge8_Node000006_Node000008"><a xlink:title=" ">
<path fill="none" stroke="#63b8ff" d="M546.02,-75.3C533.67,-66.17 519.45,-55.67 507.13,-46.57"/>
<polygon fill="#63b8ff" stroke="#63b8ff" points="543.71,-77.94 553.83,-81.07 547.87,-72.31 543.71,-77.94"/>
</a>
</g>
</g>
<!-- Node7&#45;&gt;Node6 -->
<g id="edge7_Node000007_Node000006" class="edge">
<title>Node7&#45;&gt;Node6</title>
<g id="a_edge7_Node000007_Node000006"><a xlink:title=" ">
<path fill="none" stroke="#63b8ff" d="M610.44,-50.14C604.95,-60.75 597.9,-72.68 591.54,-81.97"/>
<polygon fill="#63b8ff" stroke="#63b8ff" points="613.42,-52.01 614.67,-41.48 607.13,-48.94 613.42,-52.01"/>
</a>
</g>
</g>
<!-- Node9&#45;&gt;Node6 -->
<g id="edge11_Node000009_Node000006" class="edge">
<title>Node9&#45;&gt;Node6</title>
<g id="a_edge11_Node000009_Node000006"><a xlink:title=" ">
<path fill="none" stroke="#63b8ff" d="M576.75,-146.49C576.75,-136.22 576.75,-124.9 576.75,-116"/>
<polygon fill="#63b8ff" stroke="#63b8ff" points="573.25,-146.33 576.75,-156.33 580.25,-146.33 573.25,-146.33"/>
</a>
</g>
</g>
<!-- Node11&#45;&gt;Node10 -->
<g id="edge14_Node000011_Node000010" class="edge">
<title>Node11&#45;&gt;Node10</title>
<g id="a_edge14_Node000011_Node000010"><a xlink:title=" ">
<path fill="none" stroke="#63b8ff" d="M114.79,-150.44C101.87,-139.22 86.73,-126.06 75.16,-116"/>
<polygon fill="#63b8ff" stroke="#63b8ff" points="112.32,-152.93 122.16,-156.85 116.91,-147.65 112.32,-152.93"/>
</a>
</g>
</g>
<!-- Node12 -->
<g id="Node000012" class="node">
<title>Node12</title>
<g id="a_Node000012"><a xlink:href="p2p__dodag_8h.html" target="_top" xlink:title="DODAG&#45;related functions for P2P&#45;RPL.">
<polygon fill="white" stroke="#666666" points="245.5,-115.75 132,-115.75 132,-82.25 245.5,-82.25 245.5,-115.75"/>
<text text-anchor="start" x="140" y="-102.25" font-family="Helvetica,sans-Serif" font-size="10.00">sys/include/net/gnrc</text>
<text text-anchor="middle" x="188.75" y="-89.5" font-family="Helvetica,sans-Serif" font-size="10.00">/rpl/p2p_dodag.h</text>
</a>
</g>
</g>
<!-- Node11&#45;&gt;Node12 -->
<g id="edge15_Node000011_Node000012" class="edge">
<title>Node11&#45;&gt;Node12</title>
<g id="a_edge15_Node000011_Node000012"><a xlink:title=" ">
<path fill="none" stroke="#63b8ff" d="M158.12,-148.15C164.92,-137.46 172.6,-125.38 178.57,-116"/>
<polygon fill="#63b8ff" stroke="#63b8ff" points="155.18,-146.25 152.76,-156.57 161.08,-150.01 155.18,-146.25"/>
</a>
</g>
</g>
<!-- Node16 -->
<g id="Node000016" class="node">
<title>Node16</title>
<g id="a_Node000016"><a xlink:href="gnrc_2sixlowpan_2frag_2sfr_8h.html" target="_top" xlink:title="6LoWPAN selective fragment recovery definitions for GNRC">
<polygon fill="white" stroke="#666666" points="805.62,-191.62 689.88,-191.62 689.88,-158.12 805.62,-158.12 805.62,-191.62"/>
<text text-anchor="start" x="697.88" y="-178.12" font-family="Helvetica,sans-Serif" font-size="10.00">sys/include/net/gnrc</text>
<text text-anchor="middle" x="747.75" y="-165.38" font-family="Helvetica,sans-Serif" font-size="10.00">/sixlowpan/frag/sfr.h</text>
</a>
</g>
</g>
<!-- Node15&#45;&gt;Node16 -->
<g id="edge19_Node000015_Node000016" class="edge">
<title>Node15&#45;&gt;Node16</title>
<g id="a_edge19_Node000015_Node000016"><a xlink:title=" ">
<path fill="none" stroke="#63b8ff" d="M872.51,-235.12C844.19,-221.67 808,-204.48 781.9,-192.09"/>
<polygon fill="#63b8ff" stroke="#63b8ff" points="870.65,-238.11 881.18,-239.24 873.65,-231.78 870.65,-238.11"/>
</a>
</g>
</g>
<!-- Node17 -->
<g id="Node000017" class="node">
<title>Node17</title>
<g id="a_Node000017"><a xlink:href="net_2gnrc_2sixlowpan_2frag_2sfr_2congure_8h.html" target="_top" xlink:title="Congure definitions for 6LoWPAN selective fragment recovery.">
<polygon fill="white" stroke="#666666" points="847.62,-115.75 689.88,-115.75 689.88,-82.25 847.62,-82.25 847.62,-115.75"/>
<text text-anchor="start" x="697.88" y="-102.25" font-family="Helvetica,sans-Serif" font-size="10.00">sys/include/net/gnrc</text>
<text text-anchor="middle" x="768.75" y="-89.5" font-family="Helvetica,sans-Serif" font-size="10.00">/sixlowpan/frag/sfr/congure.h</text>
</a>
</g>
</g>
<!-- Node16&#45;&gt;Node17 -->
<g id="edge20_Node000016_Node000017" class="edge">
<title>Node16&#45;&gt;Node17</title>
<g id="a_edge20_Node000016_Node000017"><a xlink:title=" ">
<path fill="none" stroke="#63b8ff" d="M755.44,-146.82C758.38,-136.47 761.64,-125 764.2,-116"/>
<polygon fill="#63b8ff" stroke="#63b8ff" points="752.09,-145.81 752.72,-156.39 758.82,-147.73 752.09,-145.81"/>
</a>
</g>
</g>
<!-- Node17&#45;&gt;Node17 -->
<g id="edge21_Node000017_Node000017" class="edge">
<title>Node17&#45;&gt;Node17</title>
<g id="a_edge21_Node000017_Node000017"><a xlink:title=" ">
<path fill="none" stroke="#63b8ff" d="M858.5,-108.18C862.98,-105.9 865.62,-102.84 865.62,-99 865.62,-92.7 858.51,-88.49 847.81,-86.38"/>
<polygon fill="#63b8ff" stroke="#63b8ff" points="857.7,-104.76 849.25,-111.16 859.84,-111.43 857.7,-104.76"/>
</a>
</g>
</g>
<!-- Node19 -->
<g id="Node000019" class="node">
<title>Node19</title>
<g id="a_Node000019"><a xlink:href="gnrc_2tcp_8h.html" target="_top" xlink:title="GNRC TCP API.">
<polygon fill="white" stroke="#666666" points="937.5,-191.62 824,-191.62 824,-158.12 937.5,-158.12 937.5,-191.62"/>
<text text-anchor="start" x="832" y="-178.12" font-family="Helvetica,sans-Serif" font-size="10.00">sys/include/net/gnrc</text>
<text text-anchor="middle" x="880.75" y="-165.38" font-family="Helvetica,sans-Serif" font-size="10.00">/tcp.h</text>
</a>
</g>
</g>
<!-- Node18&#45;&gt;Node19 -->
<g id="edge23_Node000018_Node000019" class="edge">
<title>Node18&#45;&gt;Node19</title>
<g id="a_edge23_Node000018_Node000019"><a xlink:title=" ">
<path fill="none" stroke="#63b8ff" d="M1166.72,-244.86C1108.01,-234.55 1021.17,-217.9 946.75,-198 940.21,-196.25 933.38,-194.21 926.69,-192.09"/>
<polygon fill="#63b8ff" stroke="#63b8ff" points="1165.76,-248.24 1176.22,-246.51 1166.96,-241.35 1165.76,-248.24"/>
</a>
</g>
</g>
<!-- Node20 -->
<g id="Node000020" class="node">
<title>Node20</title>
<g id="a_Node000020"><a xlink:href="gnrc__tcp__common_8h.html" target="_top" xlink:title="Internally used defines, macros and variable declarations.">
<polygon fill="white" stroke="#666666" points="1081.88,-198 955.62,-198 955.62,-151.75 1081.88,-151.75 1081.88,-198"/>
<text text-anchor="start" x="963.62" y="-184.5" font-family="Helvetica,sans-Serif" font-size="10.00">sys/net/gnrc/transport</text>
<text text-anchor="start" x="963.62" y="-171.75" font-family="Helvetica,sans-Serif" font-size="10.00">_layer/tcp/include/gnrc</text>
<text text-anchor="middle" x="1018.75" y="-159" font-family="Helvetica,sans-Serif" font-size="10.00">_tcp_common.h</text>
</a>
</g>
</g>
<!-- Node18&#45;&gt;Node20 -->
<g id="edge24_Node000018_Node000020" class="edge">
<title>Node18&#45;&gt;Node20</title>
<g id="a_edge24_Node000018_Node000020"><a xlink:title=" ">
<path fill="none" stroke="#63b8ff" d="M1180.53,-235.98C1149.82,-224.57 1111.32,-210.27 1079.58,-198.48"/>
<polygon fill="#63b8ff" stroke="#63b8ff" points="1179.03,-239.16 1189.62,-239.36 1181.47,-232.59 1179.03,-239.16"/>
</a>
</g>
</g>
<!-- Node21 -->
<g id="Node000021" class="node">
<title>Node21</title>
<g id="a_Node000021"><a xlink:href="gnrc__tcp__fsm_8h.html" target="_top" xlink:title="TCP finite state maschine declarations.">
<polygon fill="white" stroke="#666666" points="1225.88,-198 1099.62,-198 1099.62,-151.75 1225.88,-151.75 1225.88,-198"/>
<text text-anchor="start" x="1107.62" y="-184.5" font-family="Helvetica,sans-Serif" font-size="10.00">sys/net/gnrc/transport</text>
<text text-anchor="start" x="1107.62" y="-171.75" font-family="Helvetica,sans-Serif" font-size="10.00">_layer/tcp/include/gnrc</text>
<text text-anchor="middle" x="1162.75" y="-159" font-family="Helvetica,sans-Serif" font-size="10.00">_tcp_fsm.h</text>
</a>
</g>
</g>
<!-- Node18&#45;&gt;Node21 -->
<g id="edge25_Node000018_Node000021" class="edge">
<title>Node18&#45;&gt;Node21</title>
<g id="a_edge25_Node000018_Node000021"><a xlink:title=" ">
<path fill="none" stroke="#63b8ff" d="M1212.67,-231.52C1203.22,-220.99 1192.27,-208.77 1183.03,-198.48"/>
<polygon fill="#63b8ff" stroke="#63b8ff" points="1209.89,-233.65 1219.17,-238.76 1215.1,-228.98 1209.89,-233.65"/>
</a>
</g>
</g>
<!-- Node22 -->
<g id="Node000022" class="node">
<title>Node22</title>
<g id="a_Node000022"><a xlink:href="gnrc__tcp__option_8h.html" target="_top" xlink:title="TCP option handling declarations.">
<polygon fill="white" stroke="#666666" points="1369.88,-198 1243.62,-198 1243.62,-151.75 1369.88,-151.75 1369.88,-198"/>
<text text-anchor="start" x="1251.62" y="-184.5" font-family="Helvetica,sans-Serif" font-size="10.00">sys/net/gnrc/transport</text>
<text text-anchor="start" x="1251.62" y="-171.75" font-family="Helvetica,sans-Serif" font-size="10.00">_layer/tcp/include/gnrc</text>
<text text-anchor="middle" x="1306.75" y="-159" font-family="Helvetica,sans-Serif" font-size="10.00">_tcp_option.h</text>
</a>
</g>
</g>
<!-- Node18&#45;&gt;Node22 -->
<g id="edge26_Node000018_Node000022" class="edge">
<title>Node18&#45;&gt;Node22</title>
<g id="a_edge26_Node000018_Node000022"><a xlink:title=" ">
<path fill="none" stroke="#63b8ff" d="M1256.83,-231.52C1266.28,-220.99 1277.23,-208.77 1286.47,-198.48"/>
<polygon fill="#63b8ff" stroke="#63b8ff" points="1254.4,-228.98 1250.33,-238.76 1259.61,-233.65 1254.4,-228.98"/>
</a>
</g>
</g>
<!-- Node23 -->
<g id="Node000023" class="node">
<title>Node23</title>
<g id="a_Node000023"><a xlink:href="gnrc__tcp__pkt_8h.html" target="_top" xlink:title="TCP packet handling declarations.">
<polygon fill="white" stroke="#666666" points="1513.88,-198 1387.62,-198 1387.62,-151.75 1513.88,-151.75 1513.88,-198"/>
<text text-anchor="start" x="1395.62" y="-184.5" font-family="Helvetica,sans-Serif" font-size="10.00">sys/net/gnrc/transport</text>
<text text-anchor="start" x="1395.62" y="-171.75" font-family="Helvetica,sans-Serif" font-size="10.00">_layer/tcp/include/gnrc</text>
<text text-anchor="middle" x="1450.75" y="-159" font-family="Helvetica,sans-Serif" font-size="10.00">_tcp_pkt.h</text>
</a>
</g>
</g>
<!-- Node18&#45;&gt;Node23 -->
<g id="edge27_Node000018_Node000023" class="edge">
<title>Node18&#45;&gt;Node23</title>
<g id="a_edge27_Node000018_Node000023"><a xlink:title=" ">
<path fill="none" stroke="#63b8ff" d="M1288.97,-235.98C1319.68,-224.57 1358.18,-210.27 1389.92,-198.48"/>
<polygon fill="#63b8ff" stroke="#63b8ff" points="1288.03,-232.59 1279.88,-239.36 1290.47,-239.16 1288.03,-232.59"/>
</a>
</g>
</g>
<!-- Node24 -->
<g id="Node000024" class="node">
<title>Node24</title>
<g id="a_Node000024"><a xlink:href="gnrc__tcp__rcvbuf_8h.html" target="_top" xlink:title="Functions for allocating and freeing the receive buffer.">
<polygon fill="white" stroke="#666666" points="1657.88,-198 1531.62,-198 1531.62,-151.75 1657.88,-151.75 1657.88,-198"/>
<text text-anchor="start" x="1539.62" y="-184.5" font-family="Helvetica,sans-Serif" font-size="10.00">sys/net/gnrc/transport</text>
<text text-anchor="start" x="1539.62" y="-171.75" font-family="Helvetica,sans-Serif" font-size="10.00">_layer/tcp/include/gnrc</text>
<text text-anchor="middle" x="1594.75" y="-159" font-family="Helvetica,sans-Serif" font-size="10.00">_tcp_rcvbuf.h</text>
</a>
</g>
</g>
<!-- Node18&#45;&gt;Node24 -->
<g id="edge28_Node000018_Node000024" class="edge">
<title>Node18&#45;&gt;Node24</title>
<g id="a_edge28_Node000018_Node000024"><a xlink:title=" ">
<path fill="none" stroke="#63b8ff" d="M1302.93,-244.33C1361.56,-233.72 1448.2,-216.93 1522.75,-198 1525.54,-197.29 1528.38,-196.54 1531.24,-195.76"/>
<polygon fill="#63b8ff" stroke="#63b8ff" points="1302.67,-240.82 1293.45,-246.04 1303.91,-247.71 1302.67,-240.82"/>
</a>
</g>
</g>
<!-- Node25&#45;&gt;Node4 -->
<g id="edge36_Node000025_Node000004" class="edge">
<title>Node25&#45;&gt;Node4</title>
<g id="a_edge36_Node000025_Node000004"><a xlink:title=" ">
<path fill="none" stroke="#63b8ff" d="M1776.5,-225.14C1768.94,-216.23 1760.85,-206.68 1753.83,-198.39"/>
<polygon fill="#63b8ff" stroke="#63b8ff" points="1773.69,-227.25 1782.83,-232.62 1779.04,-222.72 1773.69,-227.25"/>
</a>
</g>
</g>
<!-- Node26 -->
<g id="Node000026" class="node">
<title>Node26</title>
<g id="a_Node000026"><a xlink:href="__nib-6ln_8h.html" target="_top" xlink:title="Definitions related to 6Lo node (6LN) functionality of the NIB.">
<polygon fill="white" stroke="#666666" points="1997.25,-115.75 1858.25,-115.75 1858.25,-82.25 1997.25,-82.25 1997.25,-115.75"/>
<text text-anchor="start" x="1866.25" y="-102.25" font-family="Helvetica,sans-Serif" font-size="10.00">sys/net/gnrc/network</text>
<text text-anchor="middle" x="1927.75" y="-89.5" font-family="Helvetica,sans-Serif" font-size="10.00">_layer/ipv6/nib/_nib&#45;6ln.h</text>
</a>
</g>
</g>
<!-- Node25&#45;&gt;Node26 -->
<g id="edge30_Node000025_Node000026" class="edge">
<title>Node25&#45;&gt;Node26</title>
<g id="a_edge30_Node000025_Node000026"><a xlink:title=" ">
<path fill="none" stroke="#63b8ff" d="M1872.53,-230.18C1903.71,-217.89 1934.46,-204.5 1938.75,-198 1955.16,-173.14 1944.18,-136.8 1935.46,-116.07"/>
<polygon fill="#63b8ff" stroke="#63b8ff" points="1871.43,-226.85 1863.39,-233.74 1873.98,-233.37 1871.43,-226.85"/>
</a>
</g>
</g>
<!-- Node27 -->
<g id="Node000027" class="node">
<title>Node27</title>
<g id="a_Node000027"><a xlink:href="__nib-6lr_8h.html" target="_top" xlink:title="Definitions related to 6Lo router (6LR) functionality of the NIB.">
<polygon fill="white" stroke="#666666" points="1996.12,-39.88 1859.38,-39.88 1859.38,-6.38 1996.12,-6.38 1996.12,-39.88"/>
<text text-anchor="start" x="1867.38" y="-26.38" font-family="Helvetica,sans-Serif" font-size="10.00">sys/net/gnrc/network</text>
<text text-anchor="middle" x="1927.75" y="-13.62" font-family="Helvetica,sans-Serif" font-size="10.00">_layer/ipv6/nib/_nib&#45;6lr.h</text>
</a>
</g>
</g>
<!-- Node25&#45;&gt;Node27 -->
<g id="edge32_Node000025_Node000027" class="edge">
<title>Node25&#45;&gt;Node27</title>
<g id="a_edge32_Node000025_Node000027"><a xlink:title=" ">
<path fill="none" stroke="#63b8ff" d="M1872.53,-232.13C1909.85,-218.89 1949.59,-203.94 1956.75,-198 1989.67,-170.68 1995.21,-156.94 2006.75,-115.75 2010.77,-101.41 2013.47,-95.54 2006.75,-82.25 1997.45,-63.86 1979.29,-49.87 1962.73,-40.23"/>
<polygon fill="#63b8ff" stroke="#63b8ff" points="1871.79,-228.68 1863.53,-235.31 1874.12,-235.28 1871.79,-228.68"/>
</a>
</g>
</g>
<!-- Node28 -->
<g id="Node000028" class="node">
<title>Node28</title>
<g id="a_Node000028"><a xlink:href="__nib-arsm_8h_source.html" target="_top" xlink:title=" ">
<polygon fill="white" stroke="#666666" points="1929.75,-198 1811.75,-198 1811.75,-151.75 1929.75,-151.75 1929.75,-198"/>
<text text-anchor="start" x="1819.75" y="-184.5" font-family="Helvetica,sans-Serif" font-size="10.00">sys/net/gnrc/network</text>
<text text-anchor="start" x="1819.75" y="-171.75" font-family="Helvetica,sans-Serif" font-size="10.00">_layer/ipv6/nib/_nib</text>
<text text-anchor="middle" x="1870.75" y="-159" font-family="Helvetica,sans-Serif" font-size="10.00">&#45;arsm.h</text>
</a>
</g>
</g>
<!-- Node25&#45;&gt;Node28 -->
<g id="edge33_Node000025_Node000028" class="edge">
<title>Node25&#45;&gt;Node28</title>
<g id="a_edge33_Node000025_Node000028"><a xlink:title=" ">
<path fill="none" stroke="#63b8ff" d="M1829,-225.14C1836.56,-216.23 1844.65,-206.68 1851.67,-198.39"/>
<polygon fill="#63b8ff" stroke="#63b8ff" points="1826.46,-222.72 1822.67,-232.62 1831.81,-227.25 1826.46,-222.72"/>
</a>
</g>
</g>
<!-- Node26&#45;&gt;Node27 -->
<g id="edge31_Node000026_Node000027" class="edge">
<title>Node26&#45;&gt;Node27</title>
<g id="a_edge31_Node000026_Node000027"><a xlink:title=" ">
<path fill="none" stroke="#63b8ff" d="M1927.75,-70.61C1927.75,-60.35 1927.75,-49.02 1927.75,-40.12"/>
<polygon fill="#63b8ff" stroke="#63b8ff" points="1924.25,-70.46 1927.75,-80.46 1931.25,-70.46 1924.25,-70.46"/>
</a>
</g>
</g>
<!-- Node28&#45;&gt;Node26 -->
<g id="edge34_Node000028_Node000026" class="edge">
<title>Node28&#45;&gt;Node26</title>
<g id="a_edge34_Node000028_Node000026"><a xlink:title=" ">
<path fill="none" stroke="#63b8ff" d="M1894.99,-142.46C1902,-133.38 1909.36,-123.83 1915.32,-116.1"/>
<polygon fill="#63b8ff" stroke="#63b8ff" points="1892.42,-140.05 1889.09,-150.11 1897.97,-144.33 1892.42,-140.05"/>
</a>
</g>
</g>
<!-- Node28&#45;&gt;Node27 -->
<g id="edge35_Node000028_Node000027" class="edge">
<title>Node28&#45;&gt;Node27</title>
<g id="a_edge35_Node000028_Node000027"><a xlink:title=" ">
<path fill="none" stroke="#63b8ff" d="M1852.8,-141.05C1845.44,-122.98 1840.55,-100.57 1849.75,-82.25 1858.92,-63.99 1876.84,-50 1893.2,-40.33"/>
<polygon fill="#63b8ff" stroke="#63b8ff" points="1849.55,-142.34 1856.85,-150.01 1855.93,-139.46 1849.55,-142.34"/>
</a>
</g>
</g>
</g>
</svg>
