<?xml version="1.0" encoding="UTF-8" standalone="no"?>
<!DOCTYPE svg PUBLIC "-//W3C//DTD SVG 1.1//EN"
 "http://www.w3.org/Graphics/SVG/1.1/DTD/svg11.dtd">
<!-- Generated by graphviz version 12.1.1 (0)
 -->
<!-- Title: sys/include/evtimer_mbox.h Pages: 1 -->
<svg width="1137pt" height="666pt"
 viewBox="0.00 0.00 1136.74 665.75" xmlns="http://www.w3.org/2000/svg" xmlns:xlink="http://www.w3.org/1999/xlink">
<g id="graph0" class="graph" transform="scale(1 1) rotate(0) translate(4 661.75)">
<title>sys/include/evtimer_mbox.h</title>
<!-- Node1 -->
<g id="Node000001" class="node">
<title>Node1</title>
<g id="a_Node000001"><a xlink:title="Message box based evtimer event.">
<polygon fill="#999999" stroke="#666666" points="143.74,-657.75 31.74,-657.75 31.74,-624.25 143.74,-624.25 143.74,-657.75"/>
<text text-anchor="start" x="39.74" y="-644.25" font-family="Helvetica,sans-Serif" font-size="10.00">sys/include/evtimer</text>
<text text-anchor="middle" x="87.74" y="-631.5" font-family="Helvetica,sans-Serif" font-size="10.00">_mbox.h</text>
</a>
</g>
</g>
<!-- Node2 -->
<g id="Node000002" class="node">
<title>Node2</title>
<g id="a_Node000002"><a xlink:href="assert_8h.html" target="_top" xlink:title="POSIX.1&#45;2008 compliant version of the assert macro.">
<polygon fill="white" stroke="#666666" points="226.24,-77.5 171.24,-77.5 171.24,-56.75 226.24,-56.75 226.24,-77.5"/>
<text text-anchor="middle" x="198.74" y="-64" font-family="Helvetica,sans-Serif" font-size="10.00">assert.h</text>
</a>
</g>
</g>
<!-- Node1&#45;&gt;Node2 -->
<g id="edge1_Node000001_Node000002" class="edge">
<title>Node1&#45;&gt;Node2</title>
<g id="a_edge1_Node000001_Node000002"><a xlink:title=" ">
<path fill="none" stroke="#63b8ff" d="M65.34,-624.03C39.56,-603.6 0.74,-565.62 0.74,-522.12 0.74,-522.12 0.74,-522.12 0.74,-179.62 0.74,-149.05 -2.22,-134.78 19.74,-113.5 57.15,-77.26 119.17,-68.74 159.49,-67.36"/>
<polygon fill="#63b8ff" stroke="#63b8ff" points="159.31,-70.86 169.24,-67.16 159.18,-63.86 159.31,-70.86"/>
</a>
</g>
</g>
<!-- Node4 -->
<g id="Node000004" class="node">
<title>Node4</title>
<g id="a_Node000004"><a xlink:title=" ">
<polygon fill="#e0e0e0" stroke="#999999" points="545.74,-474.75 499.74,-474.75 499.74,-454 545.74,-454 545.74,-474.75"/>
<text text-anchor="middle" x="522.74" y="-461.25" font-family="Helvetica,sans-Serif" font-size="10.00">msg.h</text>
</a>
</g>
</g>
<!-- Node1&#45;&gt;Node4 -->
<g id="edge3_Node000001_Node000004" class="edge">
<title>Node1&#45;&gt;Node4</title>
<g id="a_edge3_Node000001_Node000004"><a xlink:title=" ">
<path fill="none" stroke="#63b8ff" d="M127.88,-623.88C212.96,-589.73 410.04,-510.62 489.07,-478.89"/>
<polygon fill="#63b8ff" stroke="#63b8ff" points="490.03,-482.28 498.01,-475.3 487.42,-475.78 490.03,-482.28"/>
</a>
</g>
</g>
<!-- Node5 -->
<g id="Node000005" class="node">
<title>Node5</title>
<g id="a_Node000005"><a xlink:href="mbox_8h.html" target="_top" xlink:title="Mailbox API.">
<polygon fill="white" stroke="#666666" points="203.12,-361.25 150.37,-361.25 150.37,-340.5 203.12,-340.5 203.12,-361.25"/>
<text text-anchor="middle" x="176.74" y="-347.75" font-family="Helvetica,sans-Serif" font-size="10.00">mbox.h</text>
</a>
</g>
</g>
<!-- Node1&#45;&gt;Node5 -->
<g id="edge4_Node000001_Node000005" class="edge">
<title>Node1&#45;&gt;Node5</title>
<g id="a_edge4_Node000001_Node000005"><a xlink:title=" ">
<path fill="none" stroke="#63b8ff" d="M91.96,-624.12C97.55,-601.6 106.74,-559.02 106.74,-522.12 106.74,-522.12 106.74,-522.12 106.74,-463.38 106.74,-425.38 136.26,-389.71 156.96,-369.37"/>
<polygon fill="#63b8ff" stroke="#63b8ff" points="159.2,-372.07 164.08,-362.67 154.4,-366.97 159.2,-372.07"/>
</a>
</g>
</g>
<!-- Node20 -->
<g id="Node000020" class="node">
<title>Node20</title>
<g id="a_Node000020"><a xlink:href="evtimer_8h.html" target="_top" xlink:title="evtimer API definitions">
<polygon fill="white" stroke="#666666" points="514.37,-588.25 451.12,-588.25 451.12,-567.5 514.37,-567.5 514.37,-588.25"/>
<text text-anchor="middle" x="482.74" y="-574.75" font-family="Helvetica,sans-Serif" font-size="10.00">evtimer.h</text>
</a>
</g>
</g>
<!-- Node1&#45;&gt;Node20 -->
<g id="edge29_Node000001_Node000020" class="edge">
<title>Node1&#45;&gt;Node20</title>
<g id="a_edge29_Node000001_Node000020"><a xlink:title=" ">
<path fill="none" stroke="#63b8ff" d="M143.91,-631.31C223.51,-618.99 367.41,-596.72 439.35,-585.59"/>
<polygon fill="#63b8ff" stroke="#63b8ff" points="439.83,-589.06 449.18,-584.07 438.76,-582.14 439.83,-589.06"/>
</a>
</g>
</g>
<!-- Node3 -->
<g id="Node000003" class="node">
<title>Node3</title>
<g id="a_Node000003"><a xlink:title=" ">
<polygon fill="#e0e0e0" stroke="#999999" points="508.12,-20.75 455.37,-20.75 455.37,0 508.12,0 508.12,-20.75"/>
<text text-anchor="middle" x="481.74" y="-7.25" font-family="Helvetica,sans-Serif" font-size="10.00">stdint.h</text>
</a>
</g>
</g>
<!-- Node2&#45;&gt;Node3 -->
<g id="edge2_Node000002_Node000003" class="edge">
<title>Node2&#45;&gt;Node3</title>
<g id="a_edge2_Node000002_Node000003"><a xlink:title=" ">
<path fill="none" stroke="#63b8ff" d="M226.65,-60.73C277.66,-50.86 385.99,-29.9 443.7,-18.73"/>
<polygon fill="#63b8ff" stroke="#63b8ff" points="444.23,-22.2 453.38,-16.86 442.9,-15.32 444.23,-22.2"/>
</a>
</g>
</g>
<!-- Node6 -->
<g id="Node000006" class="node">
<title>Node6</title>
<g id="a_Node000006"><a xlink:href="list_8h.html" target="_top" xlink:title="Intrusive linked list.">
<polygon fill="white" stroke="#666666" points="154.74,-134.25 114.74,-134.25 114.74,-113.5 154.74,-113.5 154.74,-134.25"/>
<text text-anchor="middle" x="134.74" y="-120.75" font-family="Helvetica,sans-Serif" font-size="10.00">list.h</text>
</a>
</g>
</g>
<!-- Node5&#45;&gt;Node6 -->
<g id="edge5_Node000005_Node000006" class="edge">
<title>Node5&#45;&gt;Node6</title>
<g id="a_edge5_Node000005_Node000006"><a xlink:title=" ">
<path fill="none" stroke="#63b8ff" d="M173.61,-340.22C170.74,-331.1 166.52,-316.98 163.74,-304.5 151.05,-247.64 141.59,-179.47 137.3,-145.81"/>
<polygon fill="#63b8ff" stroke="#63b8ff" points="140.81,-145.68 136.09,-136.19 133.86,-146.55 140.81,-145.68"/>
</a>
</g>
</g>
<!-- Node7 -->
<g id="Node000007" class="node">
<title>Node7</title>
<g id="a_Node000007"><a xlink:href="cib_8h.html" target="_top" xlink:title="Circular integer buffer interface.">
<polygon fill="white" stroke="#666666" points="212.37,-304.5 173.12,-304.5 173.12,-283.75 212.37,-283.75 212.37,-304.5"/>
<text text-anchor="middle" x="192.74" y="-291" font-family="Helvetica,sans-Serif" font-size="10.00">cib.h</text>
</a>
</g>
</g>
<!-- Node5&#45;&gt;Node7 -->
<g id="edge6_Node000005_Node000007" class="edge">
<title>Node5&#45;&gt;Node7</title>
<g id="a_edge6_Node000005_Node000007"><a xlink:title=" ">
<path fill="none" stroke="#63b8ff" d="M179.6,-340.09C181.58,-333.31 184.29,-324.05 186.73,-315.69"/>
<polygon fill="#63b8ff" stroke="#63b8ff" points="190.03,-316.86 189.48,-306.28 183.32,-314.9 190.03,-316.86"/>
</a>
</g>
</g>
<!-- Node8 -->
<g id="Node000008" class="node">
<title>Node8</title>
<g id="a_Node000008"><a xlink:href="core_2include_2msg_8h.html" target="_top" xlink:title="Messaging API for inter process communication.">
<polygon fill="white" stroke="#666666" points="388.74,-304.5 342.74,-304.5 342.74,-283.75 388.74,-283.75 388.74,-304.5"/>
<text text-anchor="middle" x="365.74" y="-291" font-family="Helvetica,sans-Serif" font-size="10.00">msg.h</text>
</a>
</g>
</g>
<!-- Node5&#45;&gt;Node8 -->
<g id="edge8_Node000005_Node000008" class="edge">
<title>Node5&#45;&gt;Node8</title>
<g id="a_edge8_Node000005_Node000008"><a xlink:title=" ">
<path fill="none" stroke="#63b8ff" d="M203.42,-342.15C237.08,-332.4 295,-315.62 331.78,-304.96"/>
<polygon fill="#63b8ff" stroke="#63b8ff" points="332.38,-308.43 341.01,-302.29 330.43,-301.71 332.38,-308.43"/>
</a>
</g>
</g>
<!-- Node7&#45;&gt;Node2 -->
<g id="edge7_Node000007_Node000002" class="edge">
<title>Node7&#45;&gt;Node2</title>
<g id="a_edge7_Node000007_Node000002"><a xlink:title=" ">
<path fill="none" stroke="#63b8ff" d="M193,-283.46C193.9,-249.7 196.91,-136.59 198.18,-89.25"/>
<polygon fill="#63b8ff" stroke="#63b8ff" points="201.67,-89.36 198.44,-79.27 194.68,-89.17 201.67,-89.36"/>
</a>
</g>
</g>
<!-- Node8&#45;&gt;Node3 -->
<g id="edge9_Node000008_Node000003" class="edge">
<title>Node8&#45;&gt;Node3</title>
<g id="a_edge9_Node000008_Node000003"><a xlink:title=" ">
<path fill="none" stroke="#63b8ff" d="M367.43,-283.58C371.84,-261.14 385.69,-204.34 417.74,-170.25 438.78,-147.87 461.16,-160.73 476.74,-134.25 495.35,-102.62 491.22,-58.08 486.5,-32.21"/>
<polygon fill="#63b8ff" stroke="#63b8ff" points="489.98,-31.73 484.54,-22.64 483.12,-33.14 489.98,-31.73"/>
</a>
</g>
</g>
<!-- Node9 -->
<g id="Node000009" class="node">
<title>Node9</title>
<g id="a_Node000009"><a xlink:title=" ">
<polygon fill="#e0e0e0" stroke="#999999" points="590.24,-134.25 529.24,-134.25 529.24,-113.5 590.24,-113.5 590.24,-134.25"/>
<text text-anchor="middle" x="559.74" y="-120.75" font-family="Helvetica,sans-Serif" font-size="10.00">stdbool.h</text>
</a>
</g>
</g>
<!-- Node8&#45;&gt;Node9 -->
<g id="edge10_Node000008_Node000009" class="edge">
<title>Node8&#45;&gt;Node9</title>
<g id="a_edge10_Node000008_Node000009"><a xlink:title=" ">
<path fill="none" stroke="#63b8ff" d="M370.75,-283.45C385.1,-255.92 425.9,-178.57 435.74,-170.25 448.52,-159.44 487.09,-146.19 517.85,-136.81"/>
<polygon fill="#63b8ff" stroke="#63b8ff" points="518.74,-140.2 527.32,-133.98 516.73,-133.49 518.74,-140.2"/>
</a>
</g>
</g>
<!-- Node10 -->
<g id="Node000010" class="node">
<title>Node10</title>
<g id="a_Node000010"><a xlink:href="sched_8h.html" target="_top" xlink:title="Scheduler API definition.">
<polygon fill="white" stroke="#666666" points="712.49,-247.75 658.99,-247.75 658.99,-227 712.49,-227 712.49,-247.75"/>
<text text-anchor="middle" x="685.74" y="-234.25" font-family="Helvetica,sans-Serif" font-size="10.00">sched.h</text>
</a>
</g>
</g>
<!-- Node8&#45;&gt;Node10 -->
<g id="edge11_Node000008_Node000010" class="edge">
<title>Node8&#45;&gt;Node10</title>
<g id="a_edge11_Node000008_Node000010"><a xlink:title=" ">
<path fill="none" stroke="#63b8ff" d="M389.01,-289.14C443.55,-279.81 580.09,-256.45 647.23,-244.96"/>
<polygon fill="#63b8ff" stroke="#63b8ff" points="647.78,-248.42 657.05,-243.28 646.6,-241.52 647.78,-248.42"/>
</a>
</g>
</g>
<!-- Node11 -->
<g id="Node000011" class="node">
<title>Node11</title>
<g id="a_Node000011"><a xlink:title=" ">
<polygon fill="#e0e0e0" stroke="#999999" points="667.24,-77.5 612.24,-77.5 612.24,-56.75 667.24,-56.75 667.24,-77.5"/>
<text text-anchor="middle" x="639.74" y="-64" font-family="Helvetica,sans-Serif" font-size="10.00">stddef.h</text>
</a>
</g>
</g>
<!-- Node10&#45;&gt;Node11 -->
<g id="edge12_Node000010_Node000011" class="edge">
<title>Node10&#45;&gt;Node11</title>
<g id="a_edge12_Node000010_Node000011"><a xlink:title=" ">
<path fill="none" stroke="#63b8ff" d="M683.14,-226.85C675.9,-200.37 655.41,-125.43 645.39,-88.8"/>
<polygon fill="#63b8ff" stroke="#63b8ff" points="648.84,-88.15 642.83,-79.43 642.09,-90 648.84,-88.15"/>
</a>
</g>
</g>
<!-- Node12 -->
<g id="Node000012" class="node">
<title>Node12</title>
<g id="a_Node000012"><a xlink:href="inttypes_8h.html" target="_top" xlink:title="Adds include for missing inttype definitions.">
<polygon fill="white" stroke="#666666" points="789.12,-191 724.37,-191 724.37,-170.25 789.12,-170.25 789.12,-191"/>
<text text-anchor="middle" x="756.74" y="-177.5" font-family="Helvetica,sans-Serif" font-size="10.00">inttypes.h</text>
</a>
</g>
</g>
<!-- Node10&#45;&gt;Node12 -->
<g id="edge13_Node000010_Node000012" class="edge">
<title>Node10&#45;&gt;Node12</title>
<g id="a_edge13_Node000010_Node000012"><a xlink:title=" ">
<path fill="none" stroke="#63b8ff" d="M698.43,-226.59C708.63,-218.72 723.18,-207.5 735.2,-198.24"/>
<polygon fill="#63b8ff" stroke="#63b8ff" points="737.18,-201.13 742.96,-192.25 732.9,-195.59 737.18,-201.13"/>
</a>
</g>
</g>
<!-- Node13 -->
<g id="Node000013" class="node">
<title>Node13</title>
<g id="a_Node000013"><a xlink:href="kernel__defines_8h.html" target="_top" xlink:title="Common macros and compiler attributes/pragmas configuration.">
<polygon fill="white" stroke="#666666" points="307.87,-191 211.62,-191 211.62,-170.25 307.87,-170.25 307.87,-191"/>
<text text-anchor="middle" x="259.74" y="-177.5" font-family="Helvetica,sans-Serif" font-size="10.00">kernel_defines.h</text>
</a>
</g>
</g>
<!-- Node10&#45;&gt;Node13 -->
<g id="edge14_Node000010_Node000013" class="edge">
<title>Node10&#45;&gt;Node13</title>
<g id="a_edge14_Node000010_Node000013"><a xlink:title=" ">
<path fill="none" stroke="#63b8ff" d="M658.77,-232.91C591.17,-224.22 413.25,-201.35 319.49,-189.3"/>
<polygon fill="#63b8ff" stroke="#63b8ff" points="320.08,-185.85 309.72,-188.05 319.19,-192.79 320.08,-185.85"/>
</a>
</g>
</g>
<!-- Node18 -->
<g id="Node000018" class="node">
<title>Node18</title>
<g id="a_Node000018"><a xlink:href="native__sched_8h.html" target="_top" xlink:title="Add definitions required on the native board.">
<polygon fill="white" stroke="#666666" points="630.49,-191 540.99,-191 540.99,-170.25 630.49,-170.25 630.49,-191"/>
<text text-anchor="middle" x="585.74" y="-177.5" font-family="Helvetica,sans-Serif" font-size="10.00">native_sched.h</text>
</a>
</g>
</g>
<!-- Node10&#45;&gt;Node18 -->
<g id="edge24_Node000010_Node000018" class="edge">
<title>Node10&#45;&gt;Node18</title>
<g id="a_edge24_Node000010_Node000018"><a xlink:title=" ">
<path fill="none" stroke="#63b8ff" d="M667.86,-226.59C652.65,-218.26 630.55,-206.16 613.11,-196.61"/>
<polygon fill="#63b8ff" stroke="#63b8ff" points="615.24,-193.79 604.79,-192.06 611.88,-199.93 615.24,-193.79"/>
</a>
</g>
</g>
<!-- Node19 -->
<g id="Node000019" class="node">
<title>Node19</title>
<g id="a_Node000019"><a xlink:href="clist_8h.html" target="_top" xlink:title="Circular linked list.">
<polygon fill="white" stroke="#666666" points="523.37,-191 478.12,-191 478.12,-170.25 523.37,-170.25 523.37,-191"/>
<text text-anchor="middle" x="500.74" y="-177.5" font-family="Helvetica,sans-Serif" font-size="10.00">clist.h</text>
</a>
</g>
</g>
<!-- Node10&#45;&gt;Node19 -->
<g id="edge25_Node000010_Node000019" class="edge">
<title>Node10&#45;&gt;Node19</title>
<g id="a_edge25_Node000010_Node000019"><a xlink:title=" ">
<path fill="none" stroke="#63b8ff" d="M658.74,-228.48C630.08,-220.09 583.19,-206.32 534.5,-191.81"/>
<polygon fill="#63b8ff" stroke="#63b8ff" points="535.79,-188.54 525.21,-189.04 533.79,-195.25 535.79,-188.54"/>
</a>
</g>
</g>
<!-- Node14 -->
<g id="Node000014" class="node">
<title>Node14</title>
<g id="a_Node000014"><a xlink:href="modules_8h.html" target="_top" xlink:title="Common macros and compiler attributes/pragmas configuration.">
<polygon fill="white" stroke="#666666" points="96.24,-134.25 29.24,-134.25 29.24,-113.5 96.24,-113.5 96.24,-134.25"/>
<text text-anchor="middle" x="62.74" y="-120.75" font-family="Helvetica,sans-Serif" font-size="10.00">modules.h</text>
</a>
</g>
</g>
<!-- Node13&#45;&gt;Node14 -->
<g id="edge15_Node000013_Node000014" class="edge">
<title>Node13&#45;&gt;Node14</title>
<g id="a_edge15_Node000013_Node000014"><a xlink:title=" ">
<path fill="none" stroke="#63b8ff" d="M224.52,-169.84C191.86,-160.76 143.12,-147.21 107.67,-137.36"/>
<polygon fill="#63b8ff" stroke="#63b8ff" points="108.7,-134.01 98.13,-134.71 106.82,-140.76 108.7,-134.01"/>
</a>
</g>
</g>
<!-- Node15 -->
<g id="Node000015" class="node">
<title>Node15</title>
<g id="a_Node000015"><a xlink:href="riot__version_8h.html" target="_top" xlink:title="Common macros and compiler attributes/pragmas configuration.">
<polygon fill="white" stroke="#666666" points="383.12,-77.5 300.37,-77.5 300.37,-56.75 383.12,-56.75 383.12,-77.5"/>
<text text-anchor="middle" x="341.74" y="-64" font-family="Helvetica,sans-Serif" font-size="10.00">riot_version.h</text>
</a>
</g>
</g>
<!-- Node13&#45;&gt;Node15 -->
<g id="edge16_Node000013_Node000015" class="edge">
<title>Node13&#45;&gt;Node15</title>
<g id="a_edge16_Node000013_Node000015"><a xlink:title=" ">
<path fill="none" stroke="#63b8ff" d="M276.86,-169.89C289.69,-161.82 306.86,-149.26 317.74,-134.25 327.61,-120.64 333.81,-102.54 337.43,-88.72"/>
<polygon fill="#63b8ff" stroke="#63b8ff" points="340.74,-89.91 339.62,-79.37 333.93,-88.31 340.74,-89.91"/>
</a>
</g>
</g>
<!-- Node16 -->
<g id="Node000016" class="node">
<title>Node16</title>
<g id="a_Node000016"><a xlink:href="compiler__hints_8h.html" target="_top" xlink:title="Common macros and compiler attributes/pragmas configuration.">
<polygon fill="white" stroke="#666666" points="308.24,-134.25 211.24,-134.25 211.24,-113.5 308.24,-113.5 308.24,-134.25"/>
<text text-anchor="middle" x="259.74" y="-120.75" font-family="Helvetica,sans-Serif" font-size="10.00">compiler_hints.h</text>
</a>
</g>
</g>
<!-- Node13&#45;&gt;Node16 -->
<g id="edge18_Node000013_Node000016" class="edge">
<title>Node13&#45;&gt;Node16</title>
<g id="a_edge18_Node000013_Node000016"><a xlink:title=" ">
<path fill="none" stroke="#63b8ff" d="M259.74,-169.84C259.74,-163.22 259.74,-154.22 259.74,-146.02"/>
<polygon fill="#63b8ff" stroke="#63b8ff" points="263.24,-146.09 259.74,-136.09 256.24,-146.09 263.24,-146.09"/>
</a>
</g>
</g>
<!-- Node17 -->
<g id="Node000017" class="node">
<title>Node17</title>
<g id="a_Node000017"><a xlink:href="container_8h.html" target="_top" xlink:title="Common macros and compiler attributes/pragmas configuration.">
<polygon fill="white" stroke="#666666" points="435.12,-134.25 364.37,-134.25 364.37,-113.5 435.12,-113.5 435.12,-134.25"/>
<text text-anchor="middle" x="399.74" y="-120.75" font-family="Helvetica,sans-Serif" font-size="10.00">container.h</text>
</a>
</g>
</g>
<!-- Node13&#45;&gt;Node17 -->
<g id="edge21_Node000013_Node000017" class="edge">
<title>Node13&#45;&gt;Node17</title>
<g id="a_edge21_Node000013_Node000017"><a xlink:title=" ">
<path fill="none" stroke="#63b8ff" d="M284.77,-169.84C306.97,-161.16 339.63,-148.38 364.47,-138.67"/>
<polygon fill="#63b8ff" stroke="#63b8ff" points="365.48,-142.03 373.52,-135.13 362.93,-135.51 365.48,-142.03"/>
</a>
</g>
</g>
<!-- Node15&#45;&gt;Node3 -->
<g id="edge17_Node000015_Node000003" class="edge">
<title>Node15&#45;&gt;Node3</title>
<g id="a_edge17_Node000015_Node000003"><a xlink:title=" ">
<path fill="none" stroke="#63b8ff" d="M366.77,-56.34C388.97,-47.66 421.63,-34.88 446.47,-25.17"/>
<polygon fill="#63b8ff" stroke="#63b8ff" points="447.48,-28.53 455.52,-21.63 444.93,-22.01 447.48,-28.53"/>
</a>
</g>
</g>
<!-- Node16&#45;&gt;Node2 -->
<g id="edge19_Node000016_Node000002" class="edge">
<title>Node16&#45;&gt;Node2</title>
<g id="a_edge19_Node000016_Node000002"><a xlink:title=" ">
<path fill="none" stroke="#63b8ff" d="M248.83,-113.09C240.25,-105.38 228.07,-94.45 217.86,-85.29"/>
<polygon fill="#63b8ff" stroke="#63b8ff" points="220.46,-82.91 210.68,-78.84 215.78,-88.12 220.46,-82.91"/>
</a>
</g>
</g>
<!-- Node16&#45;&gt;Node3 -->
<g id="edge20_Node000016_Node000003" class="edge">
<title>Node16&#45;&gt;Node3</title>
<g id="a_edge20_Node000016_Node000003"><a xlink:title=" ">
<path fill="none" stroke="#63b8ff" d="M261.68,-113.14C265.11,-98.58 273.65,-71.3 291.74,-56.75 335.49,-21.57 402.11,-12.91 443.73,-11.19"/>
<polygon fill="#63b8ff" stroke="#63b8ff" points="443.61,-14.69 453.51,-10.91 443.41,-7.7 443.61,-14.69"/>
</a>
</g>
</g>
<!-- Node17&#45;&gt;Node3 -->
<g id="edge23_Node000017_Node000003" class="edge">
<title>Node17&#45;&gt;Node3</title>
<g id="a_edge23_Node000017_Node000003"><a xlink:title=" ">
<path fill="none" stroke="#63b8ff" d="M406.73,-113.37C420.22,-95.03 450.06,-54.45 467.77,-30.37"/>
<polygon fill="#63b8ff" stroke="#63b8ff" points="470.53,-32.52 473.64,-22.39 464.89,-28.38 470.53,-32.52"/>
</a>
</g>
</g>
<!-- Node17&#45;&gt;Node11 -->
<g id="edge22_Node000017_Node000011" class="edge">
<title>Node17&#45;&gt;Node11</title>
<g id="a_edge22_Node000017_Node000011"><a xlink:title=" ">
<path fill="none" stroke="#63b8ff" d="M435.41,-114.74C479.71,-104.63 555.01,-87.45 600.78,-77.01"/>
<polygon fill="#63b8ff" stroke="#63b8ff" points="601.3,-80.48 610.27,-74.85 599.74,-73.66 601.3,-80.48"/>
</a>
</g>
</g>
<!-- Node19&#45;&gt;Node6 -->
<g id="edge28_Node000019_Node000006" class="edge">
<title>Node19&#45;&gt;Node6</title>
<g id="a_edge28_Node000019_Node000006"><a xlink:title=" ">
<path fill="none" stroke="#63b8ff" d="M477.85,-176.2C414.69,-166.75 237.96,-140.32 165.91,-129.54"/>
<polygon fill="#63b8ff" stroke="#63b8ff" points="166.79,-126.13 156.38,-128.11 165.75,-133.05 166.79,-126.13"/>
</a>
</g>
</g>
<!-- Node19&#45;&gt;Node9 -->
<g id="edge26_Node000019_Node000009" class="edge">
<title>Node19&#45;&gt;Node9</title>
<g id="a_edge26_Node000019_Node000009"><a xlink:title=" ">
<path fill="none" stroke="#63b8ff" d="M511.29,-169.84C519.51,-162.21 531.14,-151.42 540.94,-142.32"/>
<polygon fill="#63b8ff" stroke="#63b8ff" points="543.22,-144.98 548.17,-135.61 538.46,-139.84 543.22,-144.98"/>
</a>
</g>
</g>
<!-- Node19&#45;&gt;Node11 -->
<g id="edge27_Node000019_Node000011" class="edge">
<title>Node19&#45;&gt;Node11</title>
<g id="a_edge27_Node000019_Node000011"><a xlink:title=" ">
<path fill="none" stroke="#63b8ff" d="M523.59,-170.97C548.96,-161.06 587.89,-144.82 599.74,-134.25 613.96,-121.57 624.72,-102.6 631.47,-88.23"/>
<polygon fill="#63b8ff" stroke="#63b8ff" points="634.59,-89.85 635.41,-79.28 628.18,-87.02 634.59,-89.85"/>
</a>
</g>
</g>
<!-- Node20&#45;&gt;Node3 -->
<g id="edge30_Node000020_Node000003" class="edge">
<title>Node20&#45;&gt;Node3</title>
<g id="a_edge30_Node000020_Node000003"><a xlink:title=" ">
<path fill="none" stroke="#63b8ff" d="M514.78,-574.78C645.12,-565.83 1128.74,-528.4 1128.74,-465.38 1128.74,-465.38 1128.74,-465.38 1128.74,-122.88 1128.74,-78.44 1094.66,-74.09 1053.74,-56.75 957.06,-15.77 631.7,-11.51 519.87,-11.29"/>
<polygon fill="#63b8ff" stroke="#63b8ff" points="520.03,-7.79 510.03,-11.28 520.03,-14.79 520.03,-7.79"/>
</a>
</g>
</g>
<!-- Node20&#45;&gt;Node14 -->
<g id="edge31_Node000020_Node000014" class="edge">
<title>Node20&#45;&gt;Node14</title>
<g id="a_edge31_Node000020_Node000014"><a xlink:title=" ">
<path fill="none" stroke="#63b8ff" d="M450.94,-574.65C354,-565.98 68.74,-525.71 68.74,-351.88 68.74,-351.88 68.74,-351.88 68.74,-236.38 68.74,-204.94 66.33,-168.58 64.57,-146.16"/>
<polygon fill="#63b8ff" stroke="#63b8ff" points="68.06,-145.9 63.75,-136.22 61.08,-146.47 68.06,-145.9"/>
</a>
</g>
</g>
<!-- Node21 -->
<g id="Node000021" class="node">
<title>Node21</title>
<g id="a_Node000021"><a xlink:href="ztimer_8h.html" target="_top" xlink:title="ztimer API">
<polygon fill="white" stroke="#666666" points="779.99,-531.5 723.49,-531.5 723.49,-510.75 779.99,-510.75 779.99,-531.5"/>
<text text-anchor="middle" x="751.74" y="-518" font-family="Helvetica,sans-Serif" font-size="10.00">ztimer.h</text>
</a>
</g>
</g>
<!-- Node20&#45;&gt;Node21 -->
<g id="edge32_Node000020_Node000021" class="edge">
<title>Node20&#45;&gt;Node21</title>
<g id="a_edge32_Node000020_Node000021"><a xlink:title=" ">
<path fill="none" stroke="#63b8ff" d="M514.65,-570.38C563.92,-560.35 658.41,-541.12 712.03,-530.21"/>
<polygon fill="#63b8ff" stroke="#63b8ff" points="712.55,-533.67 721.65,-528.25 711.16,-526.81 712.55,-533.67"/>
</a>
</g>
</g>
<!-- Node21&#45;&gt;Node3 -->
<g id="edge33_Node000021_Node000003" class="edge">
<title>Node21&#45;&gt;Node3</title>
<g id="a_edge33_Node000021_Node000003"><a xlink:title=" ">
<path fill="none" stroke="#63b8ff" d="M780.35,-516.96C862.08,-507.11 1090.74,-473.76 1090.74,-408.62 1090.74,-408.62 1090.74,-408.62 1090.74,-122.88 1090.74,-78.44 1056.61,-74.21 1015.74,-56.75 926.25,-18.52 626.45,-12.47 519.8,-11.54"/>
<polygon fill="#63b8ff" stroke="#63b8ff" points="519.89,-8.04 509.87,-11.46 519.84,-15.04 519.89,-8.04"/>
</a>
</g>
</g>
<!-- Node21&#45;&gt;Node4 -->
<g id="edge35_Node000021_Node000004" class="edge">
<title>Node21&#45;&gt;Node4</title>
<g id="a_edge35_Node000021_Node000004"><a xlink:title=" ">
<path fill="none" stroke="#63b8ff" d="M723.2,-513.3C681.07,-503.23 602.34,-484.41 557.1,-473.59"/>
<polygon fill="#63b8ff" stroke="#63b8ff" points="558.1,-470.23 547.56,-471.31 556.47,-477.04 558.1,-470.23"/>
</a>
</g>
</g>
<!-- Node21&#45;&gt;Node10 -->
<g id="edge34_Node000021_Node000010" class="edge">
<title>Node21&#45;&gt;Node10</title>
<g id="a_edge34_Node000021_Node000010"><a xlink:title=" ">
<path fill="none" stroke="#63b8ff" d="M762.18,-510.49C780.56,-492.42 816.74,-451.42 816.74,-408.62 816.74,-408.62 816.74,-408.62 816.74,-349.88 816.74,-300.46 762.03,-268.35 723.32,-251.81"/>
<polygon fill="#63b8ff" stroke="#63b8ff" points="724.87,-248.66 714.28,-248.13 722.22,-255.15 724.87,-248.66"/>
</a>
</g>
</g>
<!-- Node22 -->
<g id="Node000022" class="node">
<title>Node22</title>
<g id="a_Node000022"><a xlink:href="mutex_8h.html" target="_top" xlink:title="Mutex for thread synchronization.">
<polygon fill="white" stroke="#666666" points="570.99,-418 514.49,-418 514.49,-397.25 570.99,-397.25 570.99,-418"/>
<text text-anchor="middle" x="542.74" y="-404.5" font-family="Helvetica,sans-Serif" font-size="10.00">mutex.h</text>
</a>
</g>
</g>
<!-- Node21&#45;&gt;Node22 -->
<g id="edge36_Node000021_Node000022" class="edge">
<title>Node21&#45;&gt;Node22</title>
<g id="a_edge36_Node000021_Node000022"><a xlink:title=" ">
<path fill="none" stroke="#63b8ff" d="M733.56,-510.43C697.04,-490.94 614.57,-446.94 570.97,-423.69"/>
<polygon fill="#63b8ff" stroke="#63b8ff" points="572.83,-420.71 562.36,-419.09 569.54,-426.89 572.83,-420.71"/>
</a>
</g>
</g>
<!-- Node30 -->
<g id="Node000030" class="node">
<title>Node30</title>
<g id="a_Node000030"><a xlink:href="rmutex_8h.html" target="_top" xlink:title="Recursive Mutex for thread synchronization.">
<polygon fill="white" stroke="#666666" points="904.87,-474.75 844.62,-474.75 844.62,-454 904.87,-454 904.87,-474.75"/>
<text text-anchor="middle" x="874.74" y="-461.25" font-family="Helvetica,sans-Serif" font-size="10.00">rmutex.h</text>
</a>
</g>
</g>
<!-- Node21&#45;&gt;Node30 -->
<g id="edge56_Node000021_Node000030" class="edge">
<title>Node21&#45;&gt;Node30</title>
<g id="a_edge56_Node000021_Node000030"><a xlink:title=" ">
<path fill="none" stroke="#63b8ff" d="M773.73,-510.34C792.88,-501.81 820.9,-489.34 842.57,-479.69"/>
<polygon fill="#63b8ff" stroke="#63b8ff" points="843.85,-482.96 851.56,-475.69 841,-476.56 843.85,-482.96"/>
</a>
</g>
</g>
<!-- Node22&#45;&gt;Node3 -->
<g id="edge38_Node000022_Node000003" class="edge">
<title>Node22&#45;&gt;Node3</title>
<g id="a_edge38_Node000022_Node000003"><a xlink:title=" ">
<path fill="none" stroke="#63b8ff" d="M514.09,-402.33C466.82,-393.52 373.74,-368.56 333.74,-304.5 305.78,-259.72 313.77,-269.49 398.74,-170.25 415.4,-150.79 429.32,-155.42 443.74,-134.25 465.25,-102.68 474.98,-58.42 479.07,-32.54"/>
<polygon fill="#63b8ff" stroke="#63b8ff" points="482.54,-33.03 480.48,-22.64 475.6,-32.05 482.54,-33.03"/>
</a>
</g>
</g>
<!-- Node22&#45;&gt;Node6 -->
<g id="edge46_Node000022_Node000006" class="edge">
<title>Node22&#45;&gt;Node6</title>
<g id="a_edge46_Node000022_Node000006"><a xlink:title=" ">
<path fill="none" stroke="#63b8ff" d="M514.15,-406.77C432.87,-406.67 202.45,-402.64 141.74,-361.25 114.26,-342.52 106.74,-328.38 106.74,-295.12 106.74,-295.12 106.74,-295.12 106.74,-236.38 106.74,-203.71 118.19,-167.23 126.44,-145.17"/>
<polygon fill="#63b8ff" stroke="#63b8ff" points="129.68,-146.51 130.06,-135.92 123.16,-143.96 129.68,-146.51"/>
</a>
</g>
</g>
<!-- Node22&#45;&gt;Node9 -->
<g id="edge39_Node000022_Node000009" class="edge">
<title>Node22&#45;&gt;Node9</title>
<g id="a_edge39_Node000022_Node000009"><a xlink:title=" ">
<path fill="none" stroke="#63b8ff" d="M526.11,-396.99C500.96,-381.33 454.23,-347.7 435.74,-304.5 432.11,-296.02 434.44,-292.88 435.74,-283.75 443.15,-231.74 435.07,-210.58 468.74,-170.25 481.58,-154.87 500.91,-144.22 518.46,-137.11"/>
<polygon fill="#63b8ff" stroke="#63b8ff" points="519.52,-140.45 527.66,-133.67 517.07,-133.89 519.52,-140.45"/>
</a>
</g>
</g>
<!-- Node22&#45;&gt;Node11 -->
<g id="edge37_Node000022_Node000011" class="edge">
<title>Node22&#45;&gt;Node11</title>
<g id="a_edge37_Node000022_Node000011"><a xlink:title=" ">
<path fill="none" stroke="#63b8ff" d="M565.29,-396.77C598.18,-381.39 659.43,-348.79 696.74,-304.5 714.5,-283.42 716.06,-274.72 721.74,-247.75 723.64,-238.73 723.74,-236 721.74,-227 709.68,-172.65 695.57,-162.28 668.74,-113.5 663.92,-104.73 658.05,-95.36 652.87,-87.42"/>
<polygon fill="#63b8ff" stroke="#63b8ff" points="655.88,-85.63 647.42,-79.25 650.05,-89.51 655.88,-85.63"/>
</a>
</g>
</g>
<!-- Node22&#45;&gt;Node13 -->
<g id="edge45_Node000022_Node000013" class="edge">
<title>Node22&#45;&gt;Node13</title>
<g id="a_edge45_Node000022_Node000013"><a xlink:title=" ">
<path fill="none" stroke="#63b8ff" d="M514.07,-405.1C456.75,-401.46 330.93,-390.29 300.74,-361.25 256.81,-319 255.56,-240.14 257.79,-202.57"/>
<polygon fill="#63b8ff" stroke="#63b8ff" points="261.28,-202.87 258.55,-192.64 254.3,-202.34 261.28,-202.87"/>
</a>
</g>
</g>
<!-- Node23 -->
<g id="Node000023" class="node">
<title>Node23</title>
<g id="a_Node000023"><a xlink:href="architecture_8h.html" target="_top" xlink:title="Platform&#45;independent access to architecture details.">
<polygon fill="white" stroke="#666666" points="858.49,-247.75 774.99,-247.75 774.99,-227 858.49,-227 858.49,-247.75"/>
<text text-anchor="middle" x="816.74" y="-234.25" font-family="Helvetica,sans-Serif" font-size="10.00">architecture.h</text>
</a>
</g>
</g>
<!-- Node22&#45;&gt;Node23 -->
<g id="edge40_Node000022_Node000023" class="edge">
<title>Node22&#45;&gt;Node23</title>
<g id="a_edge40_Node000022_Node000023"><a xlink:title=" ">
<path fill="none" stroke="#63b8ff" d="M571.3,-403.58C622.28,-397.66 726.28,-383.21 754.74,-361.25 788.04,-335.55 804.86,-287.09 812.12,-259.33"/>
<polygon fill="#63b8ff" stroke="#63b8ff" points="815.51,-260.2 814.45,-249.66 808.71,-258.56 815.51,-260.2"/>
</a>
</g>
</g>
<!-- Node26 -->
<g id="Node000026" class="node">
<title>Node26</title>
<g id="a_Node000026"><a xlink:href="core_2include_2thread_8h.html" target="_top" xlink:title="Threading API.">
<polygon fill="white" stroke="#666666" points="570.99,-361.25 514.49,-361.25 514.49,-340.5 570.99,-340.5 570.99,-361.25"/>
<text text-anchor="middle" x="542.74" y="-347.75" font-family="Helvetica,sans-Serif" font-size="10.00">thread.h</text>
</a>
</g>
</g>
<!-- Node22&#45;&gt;Node26 -->
<g id="edge47_Node000022_Node000026" class="edge">
<title>Node22&#45;&gt;Node26</title>
<g id="a_edge47_Node000022_Node000026"><a xlink:title=" ">
<path fill="none" stroke="#63b8ff" d="M542.74,-396.84C542.74,-390.22 542.74,-381.22 542.74,-373.02"/>
<polygon fill="#63b8ff" stroke="#63b8ff" points="546.24,-373.09 542.74,-363.09 539.24,-373.09 546.24,-373.09"/>
</a>
</g>
</g>
<!-- Node23&#45;&gt;Node3 -->
<g id="edge41_Node000023_Node000003" class="edge">
<title>Node23&#45;&gt;Node3</title>
<g id="a_edge41_Node000023_Node000003"><a xlink:title=" ">
<path fill="none" stroke="#63b8ff" d="M815.61,-226.75C813.68,-213.27 808.83,-188.39 797.74,-170.25 759.29,-107.34 741.76,-91.52 676.74,-56.75 626.52,-29.9 560.72,-18.83 519.84,-14.34"/>
<polygon fill="#63b8ff" stroke="#63b8ff" points="520.31,-10.87 510.01,-13.35 519.61,-17.84 520.31,-10.87"/>
</a>
</g>
</g>
<!-- Node23&#45;&gt;Node12 -->
<g id="edge42_Node000023_Node000012" class="edge">
<title>Node23&#45;&gt;Node12</title>
<g id="a_edge42_Node000023_Node000012"><a xlink:title=" ">
<path fill="none" stroke="#63b8ff" d="M806.01,-226.59C797.65,-218.96 785.83,-208.17 775.86,-199.07"/>
<polygon fill="#63b8ff" stroke="#63b8ff" points="778.24,-196.5 768.49,-192.35 773.52,-201.67 778.24,-196.5"/>
</a>
</g>
</g>
<!-- Node24 -->
<g id="Node000024" class="node">
<title>Node24</title>
<g id="a_Node000024"><a xlink:title=" ">
<polygon fill="#e0e0e0" stroke="#999999" points="1025.12,-191 972.37,-191 972.37,-170.25 1025.12,-170.25 1025.12,-191"/>
<text text-anchor="middle" x="998.74" y="-177.5" font-family="Helvetica,sans-Serif" font-size="10.00">limits.h</text>
</a>
</g>
</g>
<!-- Node23&#45;&gt;Node24 -->
<g id="edge43_Node000023_Node000024" class="edge">
<title>Node23&#45;&gt;Node24</title>
<g id="a_edge43_Node000023_Node000024"><a xlink:title=" ">
<path fill="none" stroke="#63b8ff" d="M849.28,-226.59C880.65,-217.15 928.1,-202.88 961.08,-192.95"/>
<polygon fill="#63b8ff" stroke="#63b8ff" points="962.08,-196.31 970.65,-190.07 960.07,-189.6 962.08,-196.31"/>
</a>
</g>
</g>
<!-- Node25 -->
<g id="Node000025" class="node">
<title>Node25</title>
<g id="a_Node000025"><a xlink:title=" ">
<polygon fill="#e0e0e0" stroke="#999999" points="954.62,-191 844.87,-191 844.87,-170.25 954.62,-170.25 954.62,-191"/>
<text text-anchor="middle" x="899.74" y="-177.5" font-family="Helvetica,sans-Serif" font-size="10.00">architecture_arch.h</text>
</a>
</g>
</g>
<!-- Node23&#45;&gt;Node25 -->
<g id="edge44_Node000023_Node000025" class="edge">
<title>Node23&#45;&gt;Node25</title>
<g id="a_edge44_Node000023_Node000025"><a xlink:title=" ">
<path fill="none" stroke="#63b8ff" d="M831.58,-226.59C843.85,-218.49 861.53,-206.83 875.8,-197.42"/>
<polygon fill="#63b8ff" stroke="#63b8ff" points="877.35,-200.59 883.77,-192.16 873.49,-194.75 877.35,-200.59"/>
</a>
</g>
</g>
<!-- Node26&#45;&gt;Node7 -->
<g id="edge49_Node000026_Node000007" class="edge">
<title>Node26&#45;&gt;Node7</title>
<g id="a_edge49_Node000026_Node000007"><a xlink:title=" ">
<path fill="none" stroke="#63b8ff" d="M514.1,-345.39C449.1,-335.23 290.9,-310.48 223.73,-299.97"/>
<polygon fill="#63b8ff" stroke="#63b8ff" points="224.57,-296.56 214.15,-298.47 223.49,-303.48 224.57,-296.56"/>
</a>
</g>
</g>
<!-- Node26&#45;&gt;Node8 -->
<g id="edge50_Node000026_Node000008" class="edge">
<title>Node26&#45;&gt;Node8</title>
<g id="a_edge50_Node000026_Node000008"><a xlink:title=" ">
<path fill="none" stroke="#63b8ff" d="M514.3,-341.08C483.05,-331.41 432.87,-315.89 399.6,-305.6"/>
<polygon fill="#63b8ff" stroke="#63b8ff" points="401.06,-302.39 390.47,-302.77 398.99,-309.07 401.06,-302.39"/>
</a>
</g>
</g>
<!-- Node26&#45;&gt;Node10 -->
<g id="edge51_Node000026_Node000010" class="edge">
<title>Node26&#45;&gt;Node10</title>
<g id="a_edge51_Node000026_Node000010"><a xlink:title=" ">
<path fill="none" stroke="#63b8ff" d="M571.46,-348.96C603.06,-346.28 652.77,-336.8 678.74,-304.5 688.81,-291.97 690,-273.52 688.99,-259.28"/>
<polygon fill="#63b8ff" stroke="#63b8ff" points="692.49,-259.15 687.87,-249.62 685.54,-259.96 692.49,-259.15"/>
</a>
</g>
</g>
<!-- Node26&#45;&gt;Node19 -->
<g id="edge48_Node000026_Node000019" class="edge">
<title>Node26&#45;&gt;Node19</title>
<g id="a_edge48_Node000026_Node000019"><a xlink:title=" ">
<path fill="none" stroke="#63b8ff" d="M571.37,-344.34C607.51,-335.86 663.01,-317.04 645.74,-283.75 622.35,-238.67 568.91,-209.29 533.85,-194.09"/>
<polygon fill="#63b8ff" stroke="#63b8ff" points="535.59,-191.02 525.01,-190.4 532.9,-197.48 535.59,-191.02"/>
</a>
</g>
</g>
<!-- Node27 -->
<g id="Node000027" class="node">
<title>Node27</title>
<g id="a_Node000027"><a xlink:href="thread__config_8h.html" target="_top" xlink:title="Thread configuration defines.">
<polygon fill="white" stroke="#666666" points="536.62,-304.5 444.87,-304.5 444.87,-283.75 536.62,-283.75 536.62,-304.5"/>
<text text-anchor="middle" x="490.74" y="-291" font-family="Helvetica,sans-Serif" font-size="10.00">thread_config.h</text>
</a>
</g>
</g>
<!-- Node26&#45;&gt;Node27 -->
<g id="edge52_Node000026_Node000027" class="edge">
<title>Node26&#45;&gt;Node27</title>
<g id="a_edge52_Node000026_Node000027"><a xlink:title=" ">
<path fill="none" stroke="#63b8ff" d="M533.44,-340.09C526.34,-332.61 516.37,-322.11 507.84,-313.13"/>
<polygon fill="#63b8ff" stroke="#63b8ff" points="510.42,-310.77 501,-305.93 505.35,-315.59 510.42,-310.77"/>
</a>
</g>
</g>
<!-- Node29 -->
<g id="Node000029" class="node">
<title>Node29</title>
<g id="a_Node000029"><a xlink:title=" ">
<polygon fill="#e0e0e0" stroke="#999999" points="637.12,-304.5 554.37,-304.5 554.37,-283.75 637.12,-283.75 637.12,-304.5"/>
<text text-anchor="middle" x="595.74" y="-291" font-family="Helvetica,sans-Serif" font-size="10.00">thread_arch.h</text>
</a>
</g>
</g>
<!-- Node26&#45;&gt;Node29 -->
<g id="edge55_Node000026_Node000029" class="edge">
<title>Node26&#45;&gt;Node29</title>
<g id="a_edge55_Node000026_Node000029"><a xlink:title=" ">
<path fill="none" stroke="#63b8ff" d="M552.22,-340.09C559.53,-332.53 569.83,-321.89 578.58,-312.85"/>
<polygon fill="#63b8ff" stroke="#63b8ff" points="580.85,-315.54 585.29,-305.92 575.82,-310.67 580.85,-315.54"/>
</a>
</g>
</g>
<!-- Node27&#45;&gt;Node10 -->
<g id="edge54_Node000027_Node000010" class="edge">
<title>Node27&#45;&gt;Node10</title>
<g id="a_edge54_Node000027_Node000010"><a xlink:title=" ">
<path fill="none" stroke="#63b8ff" d="M525.6,-283.34C560,-273.68 612.44,-258.95 647.85,-249.01"/>
<polygon fill="#63b8ff" stroke="#63b8ff" points="648.57,-252.45 657.25,-246.37 646.68,-245.71 648.57,-252.45"/>
</a>
</g>
</g>
<!-- Node28 -->
<g id="Node000028" class="node">
<title>Node28</title>
<g id="a_Node000028"><a xlink:title=" ">
<polygon fill="#e0e0e0" stroke="#999999" points="545.62,-247.75 477.87,-247.75 477.87,-227 545.62,-227 545.62,-247.75"/>
<text text-anchor="middle" x="511.74" y="-234.25" font-family="Helvetica,sans-Serif" font-size="10.00">cpu_conf.h</text>
</a>
</g>
</g>
<!-- Node27&#45;&gt;Node28 -->
<g id="edge53_Node000027_Node000028" class="edge">
<title>Node27&#45;&gt;Node28</title>
<g id="a_edge53_Node000027_Node000028"><a xlink:title=" ">
<path fill="none" stroke="#63b8ff" d="M494.49,-283.34C497.12,-276.49 500.73,-267.09 503.96,-258.65"/>
<polygon fill="#63b8ff" stroke="#63b8ff" points="507.16,-260.08 507.48,-249.49 500.63,-257.57 507.16,-260.08"/>
</a>
</g>
</g>
<!-- Node30&#45;&gt;Node3 -->
<g id="edge57_Node000030_Node000003" class="edge">
<title>Node30&#45;&gt;Node3</title>
<g id="a_edge57_Node000030_Node000003"><a xlink:title=" ">
<path fill="none" stroke="#63b8ff" d="M905.34,-458.54C956.23,-448.58 1052.74,-420.61 1052.74,-351.88 1052.74,-351.88 1052.74,-351.88 1052.74,-122.88 1052.74,-14.02 647.94,-9.43 520.01,-10.69"/>
<polygon fill="#63b8ff" stroke="#63b8ff" points="519.99,-7.19 510.03,-10.81 520.07,-14.19 519.99,-7.19"/>
</a>
</g>
</g>
<!-- Node30&#45;&gt;Node10 -->
<g id="edge59_Node000030_Node000010" class="edge">
<title>Node30&#45;&gt;Node10</title>
<g id="a_edge59_Node000030_Node000010"><a xlink:title=" ">
<path fill="none" stroke="#63b8ff" d="M875.42,-453.68C876.93,-423.99 877.33,-333.37 830.74,-283.75 803.24,-254.46 757.14,-243.96 724.31,-240.26"/>
<polygon fill="#63b8ff" stroke="#63b8ff" points="724.66,-236.78 714.38,-239.33 724,-243.75 724.66,-236.78"/>
</a>
</g>
</g>
<!-- Node30&#45;&gt;Node22 -->
<g id="edge58_Node000030_Node000022" class="edge">
<title>Node30&#45;&gt;Node22</title>
<g id="a_edge58_Node000030_Node000022"><a xlink:title=" ">
<path fill="none" stroke="#63b8ff" d="M844.4,-458.37C784.17,-448.44 649.57,-426.24 582.42,-415.17"/>
<polygon fill="#63b8ff" stroke="#63b8ff" points="583.4,-411.78 572.96,-413.61 582.26,-418.69 583.4,-411.78"/>
</a>
</g>
</g>
</g>
</svg>
