<?xml version="1.0" encoding="UTF-8" standalone="no"?>
<!DOCTYPE svg PUBLIC "-//W3C//DTD SVG 1.1//EN"
 "http://www.w3.org/Graphics/SVG/1.1/DTD/svg11.dtd">
<!-- Generated by graphviz version 12.1.1 (0)
 -->
<!-- Title: sys/include/evtimer_mbox.h Pages: 1 -->
<svg width="842pt" height="193pt"
 viewBox="0.00 0.00 841.88 193.25" xmlns="http://www.w3.org/2000/svg" xmlns:xlink="http://www.w3.org/1999/xlink">
<g id="graph0" class="graph" transform="scale(1 1) rotate(0) translate(4 189.25)">
<title>sys/include/evtimer_mbox.h</title>
<!-- Node1 -->
<g id="Node000001" class="node">
<title>Node1</title>
<g id="a_Node000001"><a xlink:title="Message box based evtimer event.">
<polygon fill="#999999" stroke="#666666" points="466.75,-185.25 354.75,-185.25 354.75,-151.75 466.75,-151.75 466.75,-185.25"/>
<text text-anchor="start" x="362.75" y="-171.75" font-family="Helvetica,sans-Serif" font-size="10.00">sys/include/evtimer</text>
<text text-anchor="middle" x="410.75" y="-159" font-family="Helvetica,sans-Serif" font-size="10.00">_mbox.h</text>
</a>
</g>
</g>
<!-- Node2 -->
<g id="Node000002" class="node">
<title>Node2</title>
<g id="a_Node000002"><a xlink:href="tcb_8h.html" target="_top" xlink:title="GNRC TCP transmission control block (TCB)">
<polygon fill="white" stroke="#666666" points="467.5,-115.75 354,-115.75 354,-82.25 467.5,-82.25 467.5,-115.75"/>
<text text-anchor="start" x="362" y="-102.25" font-family="Helvetica,sans-Serif" font-size="10.00">sys/include/net/gnrc</text>
<text text-anchor="middle" x="410.75" y="-89.5" font-family="Helvetica,sans-Serif" font-size="10.00">/tcp/tcb.h</text>
</a>
</g>
</g>
<!-- Node1&#45;&gt;Node2 -->
<g id="edge1_Node000001_Node000002" class="edge">
<title>Node1&#45;&gt;Node2</title>
<g id="a_edge1_Node000001_Node000002"><a xlink:title=" ">
<path fill="none" stroke="#63b8ff" d="M410.75,-140.06C410.75,-131.84 410.75,-123.09 410.75,-115.88"/>
<polygon fill="#63b8ff" stroke="#63b8ff" points="407.25,-139.99 410.75,-149.99 414.25,-139.99 407.25,-139.99"/>
</a>
</g>
</g>
<!-- Node3 -->
<g id="Node000003" class="node">
<title>Node3</title>
<g id="a_Node000003"><a xlink:href="gnrc_2tcp_8h.html" target="_top" xlink:title="GNRC TCP API.">
<polygon fill="white" stroke="#666666" points="113.5,-39.88 0,-39.88 0,-6.38 113.5,-6.38 113.5,-39.88"/>
<text text-anchor="start" x="8" y="-26.38" font-family="Helvetica,sans-Serif" font-size="10.00">sys/include/net/gnrc</text>
<text text-anchor="middle" x="56.75" y="-13.62" font-family="Helvetica,sans-Serif" font-size="10.00">/tcp.h</text>
</a>
</g>
</g>
<!-- Node2&#45;&gt;Node3 -->
<g id="edge2_Node000002_Node000003" class="edge">
<title>Node2&#45;&gt;Node3</title>
<g id="a_edge2_Node000002_Node000003"><a xlink:title=" ">
<path fill="none" stroke="#63b8ff" d="M342.3,-88.57C283.57,-79.8 196.92,-65.24 122.75,-46.25 116.08,-44.54 109.1,-42.5 102.29,-40.35"/>
<polygon fill="#63b8ff" stroke="#63b8ff" points="341.76,-92.03 352.17,-90.03 342.79,-85.11 341.76,-92.03"/>
</a>
</g>
</g>
<!-- Node4 -->
<g id="Node000004" class="node">
<title>Node4</title>
<g id="a_Node000004"><a xlink:href="gnrc__tcp__common_8h.html" target="_top" xlink:title="Internally used defines, macros and variable declarations.">
<polygon fill="white" stroke="#666666" points="257.88,-46.25 131.62,-46.25 131.62,0 257.88,0 257.88,-46.25"/>
<text text-anchor="start" x="139.62" y="-32.75" font-family="Helvetica,sans-Serif" font-size="10.00">sys/net/gnrc/transport</text>
<text text-anchor="start" x="139.62" y="-20" font-family="Helvetica,sans-Serif" font-size="10.00">_layer/tcp/include/gnrc</text>
<text text-anchor="middle" x="194.75" y="-7.25" font-family="Helvetica,sans-Serif" font-size="10.00">_tcp_common.h</text>
</a>
</g>
</g>
<!-- Node2&#45;&gt;Node4 -->
<g id="edge3_Node000002_Node000004" class="edge">
<title>Node2&#45;&gt;Node4</title>
<g id="a_edge3_Node000002_Node000004"><a xlink:title=" ">
<path fill="none" stroke="#63b8ff" d="M352.49,-78.07C323.29,-68.09 287.89,-55.98 258.03,-45.77"/>
<polygon fill="#63b8ff" stroke="#63b8ff" points="351.32,-81.37 361.92,-81.3 353.59,-74.75 351.32,-81.37"/>
</a>
</g>
</g>
<!-- Node5 -->
<g id="Node000005" class="node">
<title>Node5</title>
<g id="a_Node000005"><a xlink:href="gnrc__tcp__fsm_8h.html" target="_top" xlink:title="TCP finite state maschine declarations.">
<polygon fill="white" stroke="#666666" points="401.88,-46.25 275.62,-46.25 275.62,0 401.88,0 401.88,-46.25"/>
<text text-anchor="start" x="283.62" y="-32.75" font-family="Helvetica,sans-Serif" font-size="10.00">sys/net/gnrc/transport</text>
<text text-anchor="start" x="283.62" y="-20" font-family="Helvetica,sans-Serif" font-size="10.00">_layer/tcp/include/gnrc</text>
<text text-anchor="middle" x="338.75" y="-7.25" font-family="Helvetica,sans-Serif" font-size="10.00">_tcp_fsm.h</text>
</a>
</g>
</g>
<!-- Node2&#45;&gt;Node5 -->
<g id="edge4_Node000002_Node000005" class="edge">
<title>Node2&#45;&gt;Node5</title>
<g id="a_edge4_Node000002_Node000005"><a xlink:title=" ">
<path fill="none" stroke="#63b8ff" d="M387.31,-73.95C378.73,-65.15 369.06,-55.23 360.62,-46.57"/>
<polygon fill="#63b8ff" stroke="#63b8ff" points="384.58,-76.17 394.07,-80.89 389.6,-71.28 384.58,-76.17"/>
</a>
</g>
</g>
<!-- Node6 -->
<g id="Node000006" class="node">
<title>Node6</title>
<g id="a_Node000006"><a xlink:href="gnrc__tcp__option_8h.html" target="_top" xlink:title="TCP option handling declarations.">
<polygon fill="white" stroke="#666666" points="545.88,-46.25 419.62,-46.25 419.62,0 545.88,0 545.88,-46.25"/>
<text text-anchor="start" x="427.62" y="-32.75" font-family="Helvetica,sans-Serif" font-size="10.00">sys/net/gnrc/transport</text>
<text text-anchor="start" x="427.62" y="-20" font-family="Helvetica,sans-Serif" font-size="10.00">_layer/tcp/include/gnrc</text>
<text text-anchor="middle" x="482.75" y="-7.25" font-family="Helvetica,sans-Serif" font-size="10.00">_tcp_option.h</text>
</a>
</g>
</g>
<!-- Node2&#45;&gt;Node6 -->
<g id="edge5_Node000002_Node000006" class="edge">
<title>Node2&#45;&gt;Node6</title>
<g id="a_edge5_Node000002_Node000006"><a xlink:title=" ">
<path fill="none" stroke="#63b8ff" d="M434.19,-73.95C442.77,-65.15 452.44,-55.23 460.88,-46.57"/>
<polygon fill="#63b8ff" stroke="#63b8ff" points="431.9,-71.28 427.43,-80.89 436.92,-76.17 431.9,-71.28"/>
</a>
</g>
</g>
<!-- Node7 -->
<g id="Node000007" class="node">
<title>Node7</title>
<g id="a_Node000007"><a xlink:href="gnrc__tcp__pkt_8h.html" target="_top" xlink:title="TCP packet handling declarations.">
<polygon fill="white" stroke="#666666" points="689.88,-46.25 563.62,-46.25 563.62,0 689.88,0 689.88,-46.25"/>
<text text-anchor="start" x="571.62" y="-32.75" font-family="Helvetica,sans-Serif" font-size="10.00">sys/net/gnrc/transport</text>
<text text-anchor="start" x="571.62" y="-20" font-family="Helvetica,sans-Serif" font-size="10.00">_layer/tcp/include/gnrc</text>
<text text-anchor="middle" x="626.75" y="-7.25" font-family="Helvetica,sans-Serif" font-size="10.00">_tcp_pkt.h</text>
</a>
</g>
</g>
<!-- Node2&#45;&gt;Node7 -->
<g id="edge6_Node000002_Node000007" class="edge">
<title>Node2&#45;&gt;Node7</title>
<g id="a_edge6_Node000002_Node000007"><a xlink:title=" ">
<path fill="none" stroke="#63b8ff" d="M469.01,-78.07C498.21,-68.09 533.61,-55.98 563.47,-45.77"/>
<polygon fill="#63b8ff" stroke="#63b8ff" points="467.91,-74.75 459.58,-81.3 470.18,-81.37 467.91,-74.75"/>
</a>
</g>
</g>
<!-- Node8 -->
<g id="Node000008" class="node">
<title>Node8</title>
<g id="a_Node000008"><a xlink:href="gnrc__tcp__rcvbuf_8h.html" target="_top" xlink:title="Functions for allocating and freeing the receive buffer.">
<polygon fill="white" stroke="#666666" points="833.88,-46.25 707.62,-46.25 707.62,0 833.88,0 833.88,-46.25"/>
<text text-anchor="start" x="715.62" y="-32.75" font-family="Helvetica,sans-Serif" font-size="10.00">sys/net/gnrc/transport</text>
<text text-anchor="start" x="715.62" y="-20" font-family="Helvetica,sans-Serif" font-size="10.00">_layer/tcp/include/gnrc</text>
<text text-anchor="middle" x="770.75" y="-7.25" font-family="Helvetica,sans-Serif" font-size="10.00">_tcp_rcvbuf.h</text>
</a>
</g>
</g>
<!-- Node2&#45;&gt;Node8 -->
<g id="edge7_Node000002_Node000008" class="edge">
<title>Node2&#45;&gt;Node8</title>
<g id="a_edge7_Node000002_Node000008"><a xlink:title=" ">
<path fill="none" stroke="#63b8ff" d="M479.08,-88.1C537.74,-79.03 624.35,-64.3 698.75,-46.25 701.55,-45.57 704.39,-44.85 707.26,-44.09"/>
<polygon fill="#63b8ff" stroke="#63b8ff" points="478.58,-84.63 469.23,-89.6 479.64,-91.55 478.58,-84.63"/>
</a>
</g>
</g>
</g>
</svg>
