<?xml version="1.0" encoding="UTF-8" standalone="no"?>
<!DOCTYPE svg PUBLIC "-//W3C//DTD SVG 1.1//EN"
 "http://www.w3.org/Graphics/SVG/1.1/DTD/svg11.dtd">
<!-- Generated by graphviz version 12.1.1 (0)
 -->
<!-- Title: pkg/flashdb/include/fal_cfg.h Pages: 1 -->
<svg width="440pt" height="382pt"
 viewBox="0.00 0.00 440.12 382.00" xmlns="http://www.w3.org/2000/svg" xmlns:xlink="http://www.w3.org/1999/xlink">
<g id="graph0" class="graph" transform="scale(1 1) rotate(0) translate(4 378)">
<title>pkg/flashdb/include/fal_cfg.h</title>
<!-- Node1 -->
<g id="Node000001" class="node">
<title>Node1</title>
<g id="a_Node000001"><a xlink:title="Flash Abstraction Layer partition configuration.">
<polygon fill="#999999" stroke="#666666" points="111.25,-374 0,-374 0,-340.5 111.25,-340.5 111.25,-374"/>
<text text-anchor="start" x="8" y="-360.5" font-family="Helvetica,sans-Serif" font-size="10.00">pkg/flashdb/include</text>
<text text-anchor="middle" x="55.62" y="-347.75" font-family="Helvetica,sans-Serif" font-size="10.00">/fal_cfg.h</text>
</a>
</g>
</g>
<!-- Node2 -->
<g id="Node000002" class="node">
<title>Node2</title>
<g id="a_Node000002"><a xlink:title=" ">
<polygon fill="#e0e0e0" stroke="#999999" points="59,-247.75 6.25,-247.75 6.25,-227 59,-227 59,-247.75"/>
<text text-anchor="middle" x="32.62" y="-234.25" font-family="Helvetica,sans-Serif" font-size="10.00">board.h</text>
</a>
</g>
</g>
<!-- Node1&#45;&gt;Node2 -->
<g id="edge1_Node000001_Node000002" class="edge">
<title>Node1&#45;&gt;Node2</title>
<g id="a_edge1_Node000001_Node000002"><a xlink:title=" ">
<path fill="none" stroke="#63b8ff" d="M31.99,-340.22C20.84,-331.19 8.67,-318.84 2.62,-304.5 -4.23,-288.23 5.39,-269.98 15.51,-256.78"/>
<polygon fill="#63b8ff" stroke="#63b8ff" points="18.02,-259.23 21.77,-249.32 12.66,-254.73 18.02,-259.23"/>
</a>
</g>
</g>
<!-- Node3 -->
<g id="Node000003" class="node">
<title>Node3</title>
<g id="a_Node000003"><a xlink:href="units_8h.html" target="_top" xlink:title="Unit helper macros.">
<polygon fill="white" stroke="#666666" points="99.62,-304.5 11.62,-304.5 11.62,-283.75 99.62,-283.75 99.62,-304.5"/>
<text text-anchor="middle" x="55.62" y="-291" font-family="Helvetica,sans-Serif" font-size="10.00">macros/units.h</text>
</a>
</g>
</g>
<!-- Node1&#45;&gt;Node3 -->
<g id="edge2_Node000001_Node000003" class="edge">
<title>Node1&#45;&gt;Node3</title>
<g id="a_edge2_Node000001_Node000003"><a xlink:title=" ">
<path fill="none" stroke="#63b8ff" d="M55.62,-340.19C55.62,-332.85 55.62,-324.07 55.62,-316.21"/>
<polygon fill="#63b8ff" stroke="#63b8ff" points="59.13,-316.48 55.63,-306.48 52.13,-316.48 59.13,-316.48"/>
</a>
</g>
</g>
<!-- Node4 -->
<g id="Node000004" class="node">
<title>Node4</title>
<g id="a_Node000004"><a xlink:href="mtd__default_8h_source.html" target="_top" xlink:title=" ">
<polygon fill="white" stroke="#666666" points="201.75,-304.5 117.5,-304.5 117.5,-283.75 201.75,-283.75 201.75,-304.5"/>
<text text-anchor="middle" x="159.62" y="-291" font-family="Helvetica,sans-Serif" font-size="10.00">mtd_default.h</text>
</a>
</g>
</g>
<!-- Node1&#45;&gt;Node4 -->
<g id="edge3_Node000001_Node000004" class="edge">
<title>Node1&#45;&gt;Node4</title>
<g id="a_edge3_Node000001_Node000004"><a xlink:title=" ">
<path fill="none" stroke="#63b8ff" d="M83.22,-340.03C98.67,-330.95 117.84,-319.68 133.11,-310.71"/>
<polygon fill="#63b8ff" stroke="#63b8ff" points="134.82,-313.77 141.66,-305.68 131.27,-307.73 134.82,-313.77"/>
</a>
</g>
</g>
<!-- Node4&#45;&gt;Node2 -->
<g id="edge4_Node000004_Node000002" class="edge">
<title>Node4&#45;&gt;Node2</title>
<g id="a_edge4_Node000004_Node000002"><a xlink:title=" ">
<path fill="none" stroke="#63b8ff" d="M136.92,-283.34C117.05,-274.77 87.95,-262.23 65.53,-252.56"/>
<polygon fill="#63b8ff" stroke="#63b8ff" points="67.09,-249.42 56.52,-248.68 64.32,-255.85 67.09,-249.42"/>
</a>
</g>
</g>
<!-- Node5 -->
<g id="Node000005" class="node">
<title>Node5</title>
<g id="a_Node000005"><a xlink:href="modules_8h.html" target="_top" xlink:title="Common macros and compiler attributes/pragmas configuration.">
<polygon fill="white" stroke="#666666" points="156.12,-247.75 89.12,-247.75 89.12,-227 156.12,-227 156.12,-247.75"/>
<text text-anchor="middle" x="122.62" y="-234.25" font-family="Helvetica,sans-Serif" font-size="10.00">modules.h</text>
</a>
</g>
</g>
<!-- Node4&#45;&gt;Node5 -->
<g id="edge5_Node000004_Node000005" class="edge">
<title>Node4&#45;&gt;Node5</title>
<g id="a_edge5_Node000004_Node000005"><a xlink:title=" ">
<path fill="none" stroke="#63b8ff" d="M153.01,-283.34C148.17,-276.17 141.45,-266.23 135.55,-257.51"/>
<polygon fill="#63b8ff" stroke="#63b8ff" points="138.53,-255.66 130.03,-249.33 132.73,-259.58 138.53,-255.66"/>
</a>
</g>
</g>
<!-- Node6 -->
<g id="Node000006" class="node">
<title>Node6</title>
<g id="a_Node000006"><a xlink:href="mtd_8h.html" target="_top" xlink:title=" ">
<polygon fill="white" stroke="#666666" points="218.88,-247.75 174.38,-247.75 174.38,-227 218.88,-227 218.88,-247.75"/>
<text text-anchor="middle" x="196.62" y="-234.25" font-family="Helvetica,sans-Serif" font-size="10.00">mtd.h</text>
</a>
</g>
</g>
<!-- Node4&#45;&gt;Node6 -->
<g id="edge6_Node000004_Node000006" class="edge">
<title>Node4&#45;&gt;Node6</title>
<g id="a_edge6_Node000004_Node000006"><a xlink:title=" ">
<path fill="none" stroke="#63b8ff" d="M166.24,-283.34C171.08,-276.17 177.8,-266.23 183.7,-257.51"/>
<polygon fill="#63b8ff" stroke="#63b8ff" points="186.52,-259.58 189.22,-249.33 180.72,-255.66 186.52,-259.58"/>
</a>
</g>
</g>
<!-- Node7 -->
<g id="Node000007" class="node">
<title>Node7</title>
<g id="a_Node000007"><a xlink:title=" ">
<polygon fill="#e0e0e0" stroke="#999999" points="123.12,-191 62.12,-191 62.12,-170.25 123.12,-170.25 123.12,-191"/>
<text text-anchor="middle" x="92.62" y="-177.5" font-family="Helvetica,sans-Serif" font-size="10.00">stdbool.h</text>
</a>
</g>
</g>
<!-- Node6&#45;&gt;Node7 -->
<g id="edge7_Node000006_Node000007" class="edge">
<title>Node6&#45;&gt;Node7</title>
<g id="a_edge7_Node000006_Node000007"><a xlink:title=" ">
<path fill="none" stroke="#63b8ff" d="M178.03,-226.59C162.21,-218.26 139.23,-206.16 121.09,-196.61"/>
<polygon fill="#63b8ff" stroke="#63b8ff" points="122.88,-193.59 112.4,-192.03 119.61,-199.79 122.88,-193.59"/>
</a>
</g>
</g>
<!-- Node8 -->
<g id="Node000008" class="node">
<title>Node8</title>
<g id="a_Node000008"><a xlink:title=" ">
<polygon fill="#e0e0e0" stroke="#999999" points="196.12,-191 141.12,-191 141.12,-170.25 196.12,-170.25 196.12,-191"/>
<text text-anchor="middle" x="168.62" y="-177.5" font-family="Helvetica,sans-Serif" font-size="10.00">stddef.h</text>
</a>
</g>
</g>
<!-- Node6&#45;&gt;Node8 -->
<g id="edge8_Node000006_Node000008" class="edge">
<title>Node6&#45;&gt;Node8</title>
<g id="a_edge8_Node000006_Node000008"><a xlink:title=" ">
<path fill="none" stroke="#63b8ff" d="M191.62,-226.59C188.04,-219.58 183.09,-209.91 178.7,-201.33"/>
<polygon fill="#63b8ff" stroke="#63b8ff" points="181.95,-199.99 174.28,-192.68 175.71,-203.17 181.95,-199.99"/>
</a>
</g>
</g>
<!-- Node9 -->
<g id="Node000009" class="node">
<title>Node9</title>
<g id="a_Node000009"><a xlink:title=" ">
<polygon fill="#e0e0e0" stroke="#999999" points="354,-20.75 301.25,-20.75 301.25,0 354,0 354,-20.75"/>
<text text-anchor="middle" x="327.62" y="-7.25" font-family="Helvetica,sans-Serif" font-size="10.00">stdint.h</text>
</a>
</g>
</g>
<!-- Node6&#45;&gt;Node9 -->
<g id="edge9_Node000006_Node000009" class="edge">
<title>Node6&#45;&gt;Node9</title>
<g id="a_edge9_Node000006_Node000009"><a xlink:title=" ">
<path fill="none" stroke="#63b8ff" d="M199.18,-226.66C205.05,-205.24 220.77,-152.79 243.62,-113.5 262.46,-81.12 291.41,-48.53 309.93,-29.15"/>
<polygon fill="#63b8ff" stroke="#63b8ff" points="312.34,-31.69 316.8,-22.08 307.32,-26.81 312.34,-31.69"/>
</a>
</g>
</g>
<!-- Node10 -->
<g id="Node000010" class="node">
<title>Node10</title>
<g id="a_Node000010"><a xlink:href="xfa_8h.html" target="_top" xlink:title="Cross File Arrays.">
<polygon fill="white" stroke="#666666" points="305,-191 264.25,-191 264.25,-170.25 305,-170.25 305,-191"/>
<text text-anchor="middle" x="284.62" y="-177.5" font-family="Helvetica,sans-Serif" font-size="10.00">xfa.h</text>
</a>
</g>
</g>
<!-- Node6&#45;&gt;Node10 -->
<g id="edge10_Node000006_Node000010" class="edge">
<title>Node6&#45;&gt;Node10</title>
<g id="a_edge10_Node000006_Node000010"><a xlink:title=" ">
<path fill="none" stroke="#63b8ff" d="M212.36,-226.59C225.5,-218.41 244.47,-206.61 259.68,-197.15"/>
<polygon fill="#63b8ff" stroke="#63b8ff" points="261.1,-200.38 267.74,-192.13 257.4,-194.44 261.1,-200.38"/>
</a>
</g>
</g>
<!-- Node11 -->
<g id="Node000011" class="node">
<title>Node11</title>
<g id="a_Node000011"><a xlink:href="inttypes_8h.html" target="_top" xlink:title="Adds include for missing inttype definitions.">
<polygon fill="white" stroke="#666666" points="317,-134.25 252.25,-134.25 252.25,-113.5 317,-113.5 317,-134.25"/>
<text text-anchor="middle" x="284.62" y="-120.75" font-family="Helvetica,sans-Serif" font-size="10.00">inttypes.h</text>
</a>
</g>
</g>
<!-- Node10&#45;&gt;Node11 -->
<g id="edge11_Node000010_Node000011" class="edge">
<title>Node10&#45;&gt;Node11</title>
<g id="a_edge11_Node000010_Node000011"><a xlink:title=" ">
<path fill="none" stroke="#63b8ff" d="M284.62,-169.84C284.62,-163.22 284.62,-154.22 284.62,-146.02"/>
<polygon fill="#63b8ff" stroke="#63b8ff" points="288.13,-146.09 284.63,-136.09 281.13,-146.09 288.13,-146.09"/>
</a>
</g>
</g>
<!-- Node12 -->
<g id="Node000012" class="node">
<title>Node12</title>
<g id="a_Node000012"><a xlink:href="compiler__hints_8h.html" target="_top" xlink:title="Common macros and compiler attributes/pragmas configuration.">
<polygon fill="white" stroke="#666666" points="432.12,-134.25 335.12,-134.25 335.12,-113.5 432.12,-113.5 432.12,-134.25"/>
<text text-anchor="middle" x="383.62" y="-120.75" font-family="Helvetica,sans-Serif" font-size="10.00">compiler_hints.h</text>
</a>
</g>
</g>
<!-- Node10&#45;&gt;Node12 -->
<g id="edge12_Node000010_Node000012" class="edge">
<title>Node10&#45;&gt;Node12</title>
<g id="a_edge12_Node000010_Node000012"><a xlink:title=" ">
<path fill="none" stroke="#63b8ff" d="M302.32,-169.84C317.25,-161.58 338.86,-149.63 356.05,-140.13"/>
<polygon fill="#63b8ff" stroke="#63b8ff" points="357.7,-143.21 364.75,-135.31 354.31,-137.09 357.7,-143.21"/>
</a>
</g>
</g>
<!-- Node12&#45;&gt;Node9 -->
<g id="edge15_Node000012_Node000009" class="edge">
<title>Node12&#45;&gt;Node9</title>
<g id="a_edge15_Node000012_Node000009"><a xlink:title=" ">
<path fill="none" stroke="#63b8ff" d="M374.14,-113.2C366.08,-104.5 354.71,-91.04 347.62,-77.5 340.13,-63.18 334.98,-45.62 331.79,-32.19"/>
<polygon fill="#63b8ff" stroke="#63b8ff" points="335.27,-31.73 329.72,-22.71 328.44,-33.23 335.27,-31.73"/>
</a>
</g>
</g>
<!-- Node13 -->
<g id="Node000013" class="node">
<title>Node13</title>
<g id="a_Node000013"><a xlink:href="assert_8h.html" target="_top" xlink:title="POSIX.1&#45;2008 compliant version of the assert macro.">
<polygon fill="white" stroke="#666666" points="411.12,-77.5 356.12,-77.5 356.12,-56.75 411.12,-56.75 411.12,-77.5"/>
<text text-anchor="middle" x="383.62" y="-64" font-family="Helvetica,sans-Serif" font-size="10.00">assert.h</text>
</a>
</g>
</g>
<!-- Node12&#45;&gt;Node13 -->
<g id="edge13_Node000012_Node000013" class="edge">
<title>Node12&#45;&gt;Node13</title>
<g id="a_edge13_Node000012_Node000013"><a xlink:title=" ">
<path fill="none" stroke="#63b8ff" d="M383.62,-113.09C383.62,-106.47 383.62,-97.47 383.62,-89.27"/>
<polygon fill="#63b8ff" stroke="#63b8ff" points="387.13,-89.34 383.63,-79.34 380.13,-89.34 387.13,-89.34"/>
</a>
</g>
</g>
<!-- Node13&#45;&gt;Node9 -->
<g id="edge14_Node000013_Node000009" class="edge">
<title>Node13&#45;&gt;Node9</title>
<g id="a_edge14_Node000013_Node000009"><a xlink:title=" ">
<path fill="none" stroke="#63b8ff" d="M373.61,-56.34C365.89,-48.78 355,-38.14 345.75,-29.1"/>
<polygon fill="#63b8ff" stroke="#63b8ff" points="348.23,-26.62 338.63,-22.14 343.34,-31.63 348.23,-26.62"/>
</a>
</g>
</g>
</g>
</svg>
