<?xml version="1.0" encoding="UTF-8" standalone="no"?>
<!DOCTYPE svg PUBLIC "-//W3C//DTD SVG 1.1//EN"
 "http://www.w3.org/Graphics/SVG/1.1/DTD/svg11.dtd">
<!-- Generated by graphviz version 12.1.1 (0)
 -->
<!-- Title: sys/include/net/gnrc/sixlowpan/frag/fb.h Pages: 1 -->
<svg width="787pt" height="382pt"
 viewBox="0.00 0.00 786.50 382.00" xmlns="http://www.w3.org/2000/svg" xmlns:xlink="http://www.w3.org/1999/xlink">
<g id="graph0" class="graph" transform="scale(1 1) rotate(0) translate(4 378)">
<title>sys/include/net/gnrc/sixlowpan/frag/fb.h</title>
<!-- Node1 -->
<g id="Node000001" class="node">
<title>Node1</title>
<g id="a_Node000001"><a xlink:title="Fragmentation buffer definitions.">
<polygon fill="#999999" stroke="#666666" points="415.25,-374 301.75,-374 301.75,-340.5 415.25,-340.5 415.25,-374"/>
<text text-anchor="start" x="309.75" y="-360.5" font-family="Helvetica,sans-Serif" font-size="10.00">sys/include/net/gnrc</text>
<text text-anchor="middle" x="358.5" y="-347.75" font-family="Helvetica,sans-Serif" font-size="10.00">/sixlowpan/frag/fb.h</text>
</a>
</g>
</g>
<!-- Node2 -->
<g id="Node000002" class="node">
<title>Node2</title>
<g id="a_Node000002"><a xlink:title=" ">
<polygon fill="#e0e0e0" stroke="#999999" points="61,-134.25 0,-134.25 0,-113.5 61,-113.5 61,-134.25"/>
<text text-anchor="middle" x="30.5" y="-120.75" font-family="Helvetica,sans-Serif" font-size="10.00">stdbool.h</text>
</a>
</g>
</g>
<!-- Node1&#45;&gt;Node2 -->
<g id="edge1_Node000001_Node000002" class="edge">
<title>Node1&#45;&gt;Node2</title>
<g id="a_edge1_Node000001_Node000002"><a xlink:title=" ">
<path fill="none" stroke="#63b8ff" d="M309.89,-340.1C261.44,-322.45 186.52,-290.84 131.5,-247.75 93.09,-217.67 59.6,-170.59 42.52,-144.3"/>
<polygon fill="#63b8ff" stroke="#63b8ff" points="45.56,-142.55 37.24,-135.99 39.65,-146.31 45.56,-142.55"/>
</a>
</g>
</g>
<!-- Node3 -->
<g id="Node000003" class="node">
<title>Node3</title>
<g id="a_Node000003"><a xlink:title=" ">
<polygon fill="#e0e0e0" stroke="#999999" points="386.88,-20.75 334.12,-20.75 334.12,0 386.88,0 386.88,-20.75"/>
<text text-anchor="middle" x="360.5" y="-7.25" font-family="Helvetica,sans-Serif" font-size="10.00">stdint.h</text>
</a>
</g>
</g>
<!-- Node1&#45;&gt;Node3 -->
<g id="edge2_Node000001_Node000003" class="edge">
<title>Node1&#45;&gt;Node3</title>
<g id="a_edge2_Node000001_Node000003"><a xlink:title=" ">
<path fill="none" stroke="#63b8ff" d="M415.58,-352.2C530.42,-342.49 778.5,-312.88 778.5,-238.38 778.5,-238.38 778.5,-238.38 778.5,-122.88 778.5,-44.67 501.88,-19.92 398.7,-13.4"/>
<polygon fill="#63b8ff" stroke="#63b8ff" points="398.99,-9.91 388.79,-12.8 398.56,-16.9 398.99,-9.91"/>
</a>
</g>
</g>
<!-- Node4 -->
<g id="Node000004" class="node">
<title>Node4</title>
<g id="a_Node000004"><a xlink:title=" ">
<polygon fill="#e0e0e0" stroke="#999999" points="423.5,-304.5 377.5,-304.5 377.5,-283.75 423.5,-283.75 423.5,-304.5"/>
<text text-anchor="middle" x="400.5" y="-291" font-family="Helvetica,sans-Serif" font-size="10.00">msg.h</text>
</a>
</g>
</g>
<!-- Node1&#45;&gt;Node4 -->
<g id="edge3_Node000001_Node000004" class="edge">
<title>Node1&#45;&gt;Node4</title>
<g id="a_edge3_Node000001_Node000004"><a xlink:title=" ">
<path fill="none" stroke="#63b8ff" d="M369.54,-340.19C375,-332.24 381.63,-322.59 387.35,-314.27"/>
<polygon fill="#63b8ff" stroke="#63b8ff" points="390.1,-316.44 392.88,-306.21 384.33,-312.47 390.1,-316.44"/>
</a>
</g>
</g>
<!-- Node5 -->
<g id="Node000005" class="node">
<title>Node5</title>
<g id="a_Node000005"><a xlink:href="net_2gnrc_2pkt_8h.html" target="_top" xlink:title="General definitions for network packets and their helper functions.">
<polygon fill="white" stroke="#666666" points="359.25,-304.5 275.75,-304.5 275.75,-283.75 359.25,-283.75 359.25,-304.5"/>
<text text-anchor="middle" x="317.5" y="-291" font-family="Helvetica,sans-Serif" font-size="10.00">net/gnrc/pkt.h</text>
</a>
</g>
</g>
<!-- Node1&#45;&gt;Node5 -->
<g id="edge4_Node000001_Node000005" class="edge">
<title>Node1&#45;&gt;Node5</title>
<g id="a_edge4_Node000001_Node000005"><a xlink:title=" ">
<path fill="none" stroke="#63b8ff" d="M347.73,-340.19C342.4,-332.24 335.93,-322.59 330.34,-314.27"/>
<polygon fill="#63b8ff" stroke="#63b8ff" points="333.42,-312.58 324.94,-306.22 327.61,-316.48 333.42,-312.58"/>
</a>
</g>
</g>
<!-- Node6 -->
<g id="Node000006" class="node">
<title>Node6</title>
<g id="a_Node000006"><a xlink:href="inttypes_8h.html" target="_top" xlink:title="Adds include for missing inttype definitions.">
<polygon fill="white" stroke="#666666" points="499.88,-191 435.12,-191 435.12,-170.25 499.88,-170.25 499.88,-191"/>
<text text-anchor="middle" x="467.5" y="-177.5" font-family="Helvetica,sans-Serif" font-size="10.00">inttypes.h</text>
</a>
</g>
</g>
<!-- Node5&#45;&gt;Node6 -->
<g id="edge5_Node000005_Node000006" class="edge">
<title>Node5&#45;&gt;Node6</title>
<g id="a_edge5_Node000005_Node000006"><a xlink:title=" ">
<path fill="none" stroke="#63b8ff" d="M330.55,-283.43C356.26,-264.31 413.71,-221.61 445.42,-198.04"/>
<polygon fill="#63b8ff" stroke="#63b8ff" points="447.22,-201.06 453.16,-192.28 443.05,-195.44 447.22,-201.06"/>
</a>
</g>
</g>
<!-- Node7 -->
<g id="Node000007" class="node">
<title>Node7</title>
<g id="a_Node000007"><a xlink:title=" ">
<polygon fill="#e0e0e0" stroke="#999999" points="272.5,-247.75 220.5,-247.75 220.5,-227 272.5,-227 272.5,-247.75"/>
<text text-anchor="middle" x="246.5" y="-234.25" font-family="Helvetica,sans-Serif" font-size="10.00">stdlib.h</text>
</a>
</g>
</g>
<!-- Node5&#45;&gt;Node7 -->
<g id="edge6_Node000005_Node000007" class="edge">
<title>Node5&#45;&gt;Node7</title>
<g id="a_edge6_Node000005_Node000007"><a xlink:title=" ">
<path fill="none" stroke="#63b8ff" d="M304.81,-283.34C294.61,-275.47 280.06,-264.25 268.04,-254.99"/>
<polygon fill="#63b8ff" stroke="#63b8ff" points="270.34,-252.34 260.28,-249 266.06,-257.88 270.34,-252.34"/>
</a>
</g>
</g>
<!-- Node8 -->
<g id="Node000008" class="node">
<title>Node8</title>
<g id="a_Node000008"><a xlink:href="sched_8h.html" target="_top" xlink:title="Scheduler API definition.">
<polygon fill="white" stroke="#666666" points="344.25,-247.75 290.75,-247.75 290.75,-227 344.25,-227 344.25,-247.75"/>
<text text-anchor="middle" x="317.5" y="-234.25" font-family="Helvetica,sans-Serif" font-size="10.00">sched.h</text>
</a>
</g>
</g>
<!-- Node5&#45;&gt;Node8 -->
<g id="edge7_Node000005_Node000008" class="edge">
<title>Node5&#45;&gt;Node8</title>
<g id="a_edge7_Node000005_Node000008"><a xlink:title=" ">
<path fill="none" stroke="#63b8ff" d="M317.5,-283.34C317.5,-276.72 317.5,-267.72 317.5,-259.52"/>
<polygon fill="#63b8ff" stroke="#63b8ff" points="321,-259.59 317.5,-249.59 314,-259.59 321,-259.59"/>
</a>
</g>
</g>
<!-- Node18 -->
<g id="Node000018" class="node">
<title>Node18</title>
<g id="a_Node000018"><a xlink:href="list_8h.html" target="_top" xlink:title="Intrusive linked list.">
<polygon fill="white" stroke="#666666" points="119.5,-134.25 79.5,-134.25 79.5,-113.5 119.5,-113.5 119.5,-134.25"/>
<text text-anchor="middle" x="99.5" y="-120.75" font-family="Helvetica,sans-Serif" font-size="10.00">list.h</text>
</a>
</g>
</g>
<!-- Node5&#45;&gt;Node18 -->
<g id="edge31_Node000005_Node000018" class="edge">
<title>Node5&#45;&gt;Node18</title>
<g id="a_edge31_Node000005_Node000018"><a xlink:title=" ">
<path fill="none" stroke="#63b8ff" d="M275.6,-286.71C224.65,-276.42 140.74,-250.91 102.5,-191 94.07,-177.8 93.77,-159.91 95.33,-146.07"/>
<polygon fill="#63b8ff" stroke="#63b8ff" points="98.78,-146.66 96.87,-136.24 91.86,-145.58 98.78,-146.66"/>
</a>
</g>
</g>
<!-- Node19 -->
<g id="Node000019" class="node">
<title>Node19</title>
<g id="a_Node000019"><a xlink:href="nettype_8h.html" target="_top" xlink:title="Protocol type definitions.">
<polygon fill="white" stroke="#666666" points="580.12,-247.75 474.88,-247.75 474.88,-227 580.12,-227 580.12,-247.75"/>
<text text-anchor="middle" x="527.5" y="-234.25" font-family="Helvetica,sans-Serif" font-size="10.00">net/gnrc/nettype.h</text>
</a>
</g>
</g>
<!-- Node5&#45;&gt;Node19 -->
<g id="edge26_Node000005_Node000019" class="edge">
<title>Node5&#45;&gt;Node19</title>
<g id="a_edge26_Node000005_Node000019"><a xlink:title=" ">
<path fill="none" stroke="#63b8ff" d="M355.04,-283.34C389.73,-274.29 441.44,-260.81 479.19,-250.97"/>
<polygon fill="#63b8ff" stroke="#63b8ff" points="479.67,-254.46 488.46,-248.55 477.9,-247.69 479.67,-254.46"/>
</a>
</g>
</g>
<!-- Node8&#45;&gt;Node6 -->
<g id="edge9_Node000008_Node000006" class="edge">
<title>Node8&#45;&gt;Node6</title>
<g id="a_edge9_Node000008_Node000006"><a xlink:title=" ">
<path fill="none" stroke="#63b8ff" d="M344.32,-226.59C368.24,-217.86 403.5,-204.98 430.18,-195.25"/>
<polygon fill="#63b8ff" stroke="#63b8ff" points="431.05,-198.66 439.24,-191.94 428.65,-192.08 431.05,-198.66"/>
</a>
</g>
</g>
<!-- Node9 -->
<g id="Node000009" class="node">
<title>Node9</title>
<g id="a_Node000009"><a xlink:title=" ">
<polygon fill="#e0e0e0" stroke="#999999" points="213,-77.5 158,-77.5 158,-56.75 213,-56.75 213,-77.5"/>
<text text-anchor="middle" x="185.5" y="-64" font-family="Helvetica,sans-Serif" font-size="10.00">stddef.h</text>
</a>
</g>
</g>
<!-- Node8&#45;&gt;Node9 -->
<g id="edge8_Node000008_Node000009" class="edge">
<title>Node8&#45;&gt;Node9</title>
<g id="a_edge8_Node000008_Node000009"><a xlink:title=" ">
<path fill="none" stroke="#63b8ff" d="M290.27,-228.83C260.49,-220.01 215.51,-204.86 204.5,-191 181.31,-161.8 180.76,-116.06 182.86,-89.4"/>
<polygon fill="#63b8ff" stroke="#63b8ff" points="186.34,-89.81 183.87,-79.5 179.38,-89.1 186.34,-89.81"/>
</a>
</g>
</g>
<!-- Node10 -->
<g id="Node000010" class="node">
<title>Node10</title>
<g id="a_Node000010"><a xlink:href="kernel__defines_8h.html" target="_top" xlink:title="Common macros and compiler attributes/pragmas configuration.">
<polygon fill="white" stroke="#666666" points="309.62,-191 213.38,-191 213.38,-170.25 309.62,-170.25 309.62,-191"/>
<text text-anchor="middle" x="261.5" y="-177.5" font-family="Helvetica,sans-Serif" font-size="10.00">kernel_defines.h</text>
</a>
</g>
</g>
<!-- Node8&#45;&gt;Node10 -->
<g id="edge10_Node000008_Node000010" class="edge">
<title>Node8&#45;&gt;Node10</title>
<g id="a_edge10_Node000008_Node000010"><a xlink:title=" ">
<path fill="none" stroke="#63b8ff" d="M307.49,-226.59C299.76,-219.03 288.87,-208.39 279.63,-199.35"/>
<polygon fill="#63b8ff" stroke="#63b8ff" points="282.1,-196.87 272.51,-192.39 277.21,-201.88 282.1,-196.87"/>
</a>
</g>
</g>
<!-- Node16 -->
<g id="Node000016" class="node">
<title>Node16</title>
<g id="a_Node000016"><a xlink:href="native__sched_8h.html" target="_top" xlink:title="Add definitions required on the native board.">
<polygon fill="white" stroke="#666666" points="417.25,-191 327.75,-191 327.75,-170.25 417.25,-170.25 417.25,-191"/>
<text text-anchor="middle" x="372.5" y="-177.5" font-family="Helvetica,sans-Serif" font-size="10.00">native_sched.h</text>
</a>
</g>
</g>
<!-- Node8&#45;&gt;Node16 -->
<g id="edge21_Node000008_Node000016" class="edge">
<title>Node8&#45;&gt;Node16</title>
<g id="a_edge21_Node000008_Node000016"><a xlink:title=" ">
<path fill="none" stroke="#63b8ff" d="M327.33,-226.59C334.92,-219.03 345.62,-208.39 354.7,-199.35"/>
<polygon fill="#63b8ff" stroke="#63b8ff" points="357.06,-201.93 361.68,-192.4 352.12,-196.97 357.06,-201.93"/>
</a>
</g>
</g>
<!-- Node17 -->
<g id="Node000017" class="node">
<title>Node17</title>
<g id="a_Node000017"><a xlink:href="clist_8h.html" target="_top" xlink:title="Circular linked list.">
<polygon fill="white" stroke="#666666" points="157.12,-191 111.88,-191 111.88,-170.25 157.12,-170.25 157.12,-191"/>
<text text-anchor="middle" x="134.5" y="-177.5" font-family="Helvetica,sans-Serif" font-size="10.00">clist.h</text>
</a>
</g>
</g>
<!-- Node8&#45;&gt;Node17 -->
<g id="edge22_Node000008_Node000017" class="edge">
<title>Node8&#45;&gt;Node17</title>
<g id="a_edge22_Node000008_Node000017"><a xlink:title=" ">
<path fill="none" stroke="#63b8ff" d="M290.5,-228.3C258.02,-218.58 203.49,-202.27 168.26,-191.73"/>
<polygon fill="#63b8ff" stroke="#63b8ff" points="169.59,-188.47 159.01,-188.96 167.58,-195.18 169.59,-188.47"/>
</a>
</g>
</g>
<!-- Node11 -->
<g id="Node000011" class="node">
<title>Node11</title>
<g id="a_Node000011"><a xlink:href="modules_8h.html" target="_top" xlink:title="Common macros and compiler attributes/pragmas configuration.">
<polygon fill="white" stroke="#666666" points="543,-134.25 476,-134.25 476,-113.5 543,-113.5 543,-134.25"/>
<text text-anchor="middle" x="509.5" y="-120.75" font-family="Helvetica,sans-Serif" font-size="10.00">modules.h</text>
</a>
</g>
</g>
<!-- Node10&#45;&gt;Node11 -->
<g id="edge11_Node000010_Node000011" class="edge">
<title>Node10&#45;&gt;Node11</title>
<g id="a_edge11_Node000010_Node000011"><a xlink:title=" ">
<path fill="none" stroke="#63b8ff" d="M306.12,-169.77C350.9,-159.89 419.49,-144.75 464.42,-134.83"/>
<polygon fill="#63b8ff" stroke="#63b8ff" points="465.1,-138.26 474.11,-132.69 463.59,-131.43 465.1,-138.26"/>
</a>
</g>
</g>
<!-- Node12 -->
<g id="Node000012" class="node">
<title>Node12</title>
<g id="a_Node000012"><a xlink:href="riot__version_8h.html" target="_top" xlink:title="Common macros and compiler attributes/pragmas configuration.">
<polygon fill="white" stroke="#666666" points="470.88,-77.5 388.12,-77.5 388.12,-56.75 470.88,-56.75 470.88,-77.5"/>
<text text-anchor="middle" x="429.5" y="-64" font-family="Helvetica,sans-Serif" font-size="10.00">riot_version.h</text>
</a>
</g>
</g>
<!-- Node10&#45;&gt;Node12 -->
<g id="edge12_Node000010_Node000012" class="edge">
<title>Node10&#45;&gt;Node12</title>
<g id="a_edge12_Node000010_Node000012"><a xlink:title=" ">
<path fill="none" stroke="#63b8ff" d="M309.67,-169.81C346.89,-161.34 394.37,-148.26 408.5,-134.25 420.54,-122.31 425.69,-103.51 427.88,-89"/>
<polygon fill="#63b8ff" stroke="#63b8ff" points="431.35,-89.47 428.98,-79.14 424.4,-88.69 431.35,-89.47"/>
</a>
</g>
</g>
<!-- Node13 -->
<g id="Node000013" class="node">
<title>Node13</title>
<g id="a_Node000013"><a xlink:href="compiler__hints_8h.html" target="_top" xlink:title="Common macros and compiler attributes/pragmas configuration.">
<polygon fill="white" stroke="#666666" points="399,-134.25 302,-134.25 302,-113.5 399,-113.5 399,-134.25"/>
<text text-anchor="middle" x="350.5" y="-120.75" font-family="Helvetica,sans-Serif" font-size="10.00">compiler_hints.h</text>
</a>
</g>
</g>
<!-- Node10&#45;&gt;Node13 -->
<g id="edge14_Node000010_Node000013" class="edge">
<title>Node10&#45;&gt;Node13</title>
<g id="a_edge14_Node000010_Node000013"><a xlink:title=" ">
<path fill="none" stroke="#63b8ff" d="M277.41,-169.84C290.7,-161.66 309.89,-149.86 325.27,-140.4"/>
<polygon fill="#63b8ff" stroke="#63b8ff" points="326.75,-143.59 333.44,-135.37 323.09,-137.63 326.75,-143.59"/>
</a>
</g>
</g>
<!-- Node15 -->
<g id="Node000015" class="node">
<title>Node15</title>
<g id="a_Node000015"><a xlink:href="container_8h.html" target="_top" xlink:title="Common macros and compiler attributes/pragmas configuration.">
<polygon fill="white" stroke="#666666" points="283.88,-134.25 213.12,-134.25 213.12,-113.5 283.88,-113.5 283.88,-134.25"/>
<text text-anchor="middle" x="248.5" y="-120.75" font-family="Helvetica,sans-Serif" font-size="10.00">container.h</text>
</a>
</g>
</g>
<!-- Node10&#45;&gt;Node15 -->
<g id="edge18_Node000010_Node000015" class="edge">
<title>Node10&#45;&gt;Node15</title>
<g id="a_edge18_Node000010_Node000015"><a xlink:title=" ">
<path fill="none" stroke="#63b8ff" d="M259.18,-169.84C257.59,-163.14 255.42,-154.01 253.45,-145.73"/>
<polygon fill="#63b8ff" stroke="#63b8ff" points="256.87,-144.97 251.15,-136.05 250.06,-146.59 256.87,-144.97"/>
</a>
</g>
</g>
<!-- Node12&#45;&gt;Node3 -->
<g id="edge13_Node000012_Node000003" class="edge">
<title>Node12&#45;&gt;Node3</title>
<g id="a_edge13_Node000012_Node000003"><a xlink:title=" ">
<path fill="none" stroke="#63b8ff" d="M417.16,-56.34C407.25,-48.47 393.11,-37.25 381.44,-27.99"/>
<polygon fill="#63b8ff" stroke="#63b8ff" points="383.92,-25.49 373.91,-22.02 379.57,-30.98 383.92,-25.49"/>
</a>
</g>
</g>
<!-- Node13&#45;&gt;Node3 -->
<g id="edge17_Node000013_Node000003" class="edge">
<title>Node13&#45;&gt;Node3</title>
<g id="a_edge17_Node000013_Node000003"><a xlink:title=" ">
<path fill="none" stroke="#63b8ff" d="M351.35,-113.37C352.95,-95.52 356.44,-56.61 358.62,-32.34"/>
<polygon fill="#63b8ff" stroke="#63b8ff" points="362.08,-32.96 359.49,-22.68 355.11,-32.33 362.08,-32.96"/>
</a>
</g>
</g>
<!-- Node14 -->
<g id="Node000014" class="node">
<title>Node14</title>
<g id="a_Node000014"><a xlink:href="assert_8h.html" target="_top" xlink:title="POSIX.1&#45;2008 compliant version of the assert macro.">
<polygon fill="white" stroke="#666666" points="332,-77.5 277,-77.5 277,-56.75 332,-56.75 332,-77.5"/>
<text text-anchor="middle" x="304.5" y="-64" font-family="Helvetica,sans-Serif" font-size="10.00">assert.h</text>
</a>
</g>
</g>
<!-- Node13&#45;&gt;Node14 -->
<g id="edge15_Node000013_Node000014" class="edge">
<title>Node13&#45;&gt;Node14</title>
<g id="a_edge15_Node000013_Node000014"><a xlink:title=" ">
<path fill="none" stroke="#63b8ff" d="M342.28,-113.09C336.06,-105.69 327.35,-95.32 319.86,-86.41"/>
<polygon fill="#63b8ff" stroke="#63b8ff" points="322.74,-84.39 313.63,-78.99 317.38,-88.9 322.74,-84.39"/>
</a>
</g>
</g>
<!-- Node14&#45;&gt;Node3 -->
<g id="edge16_Node000014_Node000003" class="edge">
<title>Node14&#45;&gt;Node3</title>
<g id="a_edge16_Node000014_Node000003"><a xlink:title=" ">
<path fill="none" stroke="#63b8ff" d="M314.51,-56.34C322.24,-48.78 333.13,-38.14 342.37,-29.1"/>
<polygon fill="#63b8ff" stroke="#63b8ff" points="344.79,-31.63 349.49,-22.14 339.9,-26.62 344.79,-31.63"/>
</a>
</g>
</g>
<!-- Node15&#45;&gt;Node3 -->
<g id="edge20_Node000015_Node000003" class="edge">
<title>Node15&#45;&gt;Node3</title>
<g id="a_edge20_Node000015_Node000003"><a xlink:title=" ">
<path fill="none" stroke="#63b8ff" d="M249.05,-113.21C250.32,-99.22 254.54,-73.22 268.5,-56.75 282.65,-40.06 304.41,-28.93 323.22,-21.88"/>
<polygon fill="#63b8ff" stroke="#63b8ff" points="324.14,-25.27 332.44,-18.68 321.85,-18.65 324.14,-25.27"/>
</a>
</g>
</g>
<!-- Node15&#45;&gt;Node9 -->
<g id="edge19_Node000015_Node000009" class="edge">
<title>Node15&#45;&gt;Node9</title>
<g id="a_edge19_Node000015_Node000009"><a xlink:title=" ">
<path fill="none" stroke="#63b8ff" d="M237.24,-113.09C228.37,-105.38 215.79,-94.45 205.25,-85.29"/>
<polygon fill="#63b8ff" stroke="#63b8ff" points="207.65,-82.74 197.81,-78.82 203.06,-88.02 207.65,-82.74"/>
</a>
</g>
</g>
<!-- Node17&#45;&gt;Node2 -->
<g id="edge23_Node000017_Node000002" class="edge">
<title>Node17&#45;&gt;Node2</title>
<g id="a_edge23_Node000017_Node000002"><a xlink:title=" ">
<path fill="none" stroke="#63b8ff" d="M115.91,-169.84C100.08,-161.51 77.1,-149.41 58.96,-139.86"/>
<polygon fill="#63b8ff" stroke="#63b8ff" points="60.75,-136.84 50.27,-135.28 57.49,-143.04 60.75,-136.84"/>
</a>
</g>
</g>
<!-- Node17&#45;&gt;Node9 -->
<g id="edge24_Node000017_Node000009" class="edge">
<title>Node17&#45;&gt;Node9</title>
<g id="a_edge24_Node000017_Node000009"><a xlink:title=" ">
<path fill="none" stroke="#63b8ff" d="M138.85,-170.12C147.12,-152.02 165.3,-112.28 176.36,-88.1"/>
<polygon fill="#63b8ff" stroke="#63b8ff" points="179.41,-89.85 180.39,-79.3 173.05,-86.94 179.41,-89.85"/>
</a>
</g>
</g>
<!-- Node17&#45;&gt;Node18 -->
<g id="edge25_Node000017_Node000018" class="edge">
<title>Node17&#45;&gt;Node18</title>
<g id="a_edge25_Node000017_Node000018"><a xlink:title=" ">
<path fill="none" stroke="#63b8ff" d="M128.24,-169.84C123.66,-162.67 117.3,-152.73 111.73,-144.01"/>
<polygon fill="#63b8ff" stroke="#63b8ff" points="114.85,-142.39 106.52,-135.85 108.96,-146.16 114.85,-142.39"/>
</a>
</g>
</g>
<!-- Node19&#45;&gt;Node6 -->
<g id="edge27_Node000019_Node000006" class="edge">
<title>Node19&#45;&gt;Node6</title>
<g id="a_edge27_Node000019_Node000006"><a xlink:title=" ">
<path fill="none" stroke="#63b8ff" d="M516.77,-226.59C508.41,-218.96 496.59,-208.17 486.62,-199.07"/>
<polygon fill="#63b8ff" stroke="#63b8ff" points="489,-196.5 479.25,-192.35 484.28,-201.67 489,-196.5"/>
</a>
</g>
</g>
<!-- Node19&#45;&gt;Node11 -->
<g id="edge28_Node000019_Node000011" class="edge">
<title>Node19&#45;&gt;Node11</title>
<g id="a_edge28_Node000019_Node000011"><a xlink:title=" ">
<path fill="none" stroke="#63b8ff" d="M525.97,-226.87C523.08,-209.02 516.8,-170.11 512.88,-145.84"/>
<polygon fill="#63b8ff" stroke="#63b8ff" points="516.37,-145.48 511.32,-136.17 509.46,-146.6 516.37,-145.48"/>
</a>
</g>
</g>
<!-- Node20 -->
<g id="Node000020" class="node">
<title>Node20</title>
<g id="a_Node000020"><a xlink:href="ethertype_8h.html" target="_top" xlink:title="Ether type definitions.">
<polygon fill="white" stroke="#666666" points="647,-191 556,-191 556,-170.25 647,-170.25 647,-191"/>
<text text-anchor="middle" x="601.5" y="-177.5" font-family="Helvetica,sans-Serif" font-size="10.00">net/ethertype.h</text>
</a>
</g>
</g>
<!-- Node19&#45;&gt;Node20 -->
<g id="edge29_Node000019_Node000020" class="edge">
<title>Node19&#45;&gt;Node20</title>
<g id="a_edge29_Node000019_Node000020"><a xlink:title=" ">
<path fill="none" stroke="#63b8ff" d="M540.73,-226.59C551.46,-218.65 566.82,-207.28 579.42,-197.96"/>
<polygon fill="#63b8ff" stroke="#63b8ff" points="581.21,-200.99 587.17,-192.23 577.05,-195.36 581.21,-200.99"/>
</a>
</g>
</g>
<!-- Node21 -->
<g id="Node000021" class="node">
<title>Node21</title>
<g id="a_Node000021"><a xlink:href="protnum_8h.html" target="_top" xlink:title="Protocol number definitions.">
<polygon fill="white" stroke="#666666" points="750,-191 665,-191 665,-170.25 750,-170.25 750,-191"/>
<text text-anchor="middle" x="707.5" y="-177.5" font-family="Helvetica,sans-Serif" font-size="10.00">net/protnum.h</text>
</a>
</g>
</g>
<!-- Node19&#45;&gt;Node21 -->
<g id="edge30_Node000019_Node000021" class="edge">
<title>Node19&#45;&gt;Node21</title>
<g id="a_edge30_Node000019_Node000021"><a xlink:title=" ">
<path fill="none" stroke="#63b8ff" d="M559.68,-226.59C588.9,-217.7 632.21,-204.52 664.41,-194.73"/>
<polygon fill="#63b8ff" stroke="#63b8ff" points="665.3,-198.12 673.85,-191.86 663.26,-191.42 665.3,-198.12"/>
</a>
</g>
</g>
</g>
</svg>
