<?xml version="1.0" encoding="UTF-8" standalone="no"?>
<!DOCTYPE svg PUBLIC "-//W3C//DTD SVG 1.1//EN"
 "http://www.w3.org/Graphics/SVG/1.1/DTD/svg11.dtd">
<!-- Generated by graphviz version 12.1.1 (0)
 -->
<!-- Title: sys/include/net/gnrc/sixlowpan/frag/fb.h Pages: 1 -->
<svg width="474pt" height="181pt"
 viewBox="0.00 0.00 473.62 180.50" xmlns="http://www.w3.org/2000/svg" xmlns:xlink="http://www.w3.org/1999/xlink">
<g id="graph0" class="graph" transform="scale(1 1) rotate(0) translate(4 176.5)">
<title>sys/include/net/gnrc/sixlowpan/frag/fb.h</title>
<!-- Node1 -->
<g id="Node000001" class="node">
<title>Node1</title>
<g id="a_Node000001"><a xlink:title="Fragmentation buffer definitions.">
<polygon fill="#999999" stroke="#666666" points="278.5,-172.5 165,-172.5 165,-139 278.5,-139 278.5,-172.5"/>
<text text-anchor="start" x="173" y="-159" font-family="Helvetica,sans-Serif" font-size="10.00">sys/include/net/gnrc</text>
<text text-anchor="middle" x="221.75" y="-146.25" font-family="Helvetica,sans-Serif" font-size="10.00">/sixlowpan/frag/fb.h</text>
</a>
</g>
</g>
<!-- Node2 -->
<g id="Node000002" class="node">
<title>Node2</title>
<g id="a_Node000002"><a xlink:href="gnrc_2sixlowpan_2frag_8h.html" target="_top" xlink:title="6LoWPAN Fragmentation definitions">
<polygon fill="white" stroke="#666666" points="193.5,-103 80,-103 80,-69.5 193.5,-69.5 193.5,-103"/>
<text text-anchor="start" x="88" y="-89.5" font-family="Helvetica,sans-Serif" font-size="10.00">sys/include/net/gnrc</text>
<text text-anchor="middle" x="136.75" y="-76.75" font-family="Helvetica,sans-Serif" font-size="10.00">/sixlowpan/frag.h</text>
</a>
</g>
</g>
<!-- Node1&#45;&gt;Node2 -->
<g id="edge1_Node000001_Node000002" class="edge">
<title>Node1&#45;&gt;Node2</title>
<g id="a_edge1_Node000001_Node000002"><a xlink:title=" ">
<path fill="none" stroke="#63b8ff" d="M192.61,-131.61C180.9,-122.31 167.68,-111.81 157.04,-103.37"/>
<polygon fill="#63b8ff" stroke="#63b8ff" points="190.41,-134.33 200.42,-137.81 194.77,-128.85 190.41,-134.33"/>
</a>
</g>
</g>
<!-- Node4 -->
<g id="Node000004" class="node">
<title>Node4</title>
<g id="a_Node000004"><a xlink:href="minfwd_8h.html" target="_top" xlink:title="Minimal fragment forwarding definitions.">
<polygon fill="white" stroke="#666666" points="271.62,-33.5 131.88,-33.5 131.88,0 271.62,0 271.62,-33.5"/>
<text text-anchor="start" x="139.88" y="-20" font-family="Helvetica,sans-Serif" font-size="10.00">sys/include/net/gnrc</text>
<text text-anchor="middle" x="201.75" y="-7.25" font-family="Helvetica,sans-Serif" font-size="10.00">/sixlowpan/frag/minfwd.h</text>
</a>
</g>
</g>
<!-- Node1&#45;&gt;Node4 -->
<g id="edge4_Node000001_Node000004" class="edge">
<title>Node1&#45;&gt;Node4</title>
<g id="a_edge4_Node000001_Node000004"><a xlink:title=" ">
<path fill="none" stroke="#63b8ff" d="M217.81,-127.75C213.71,-99.67 207.43,-56.67 204.07,-33.63"/>
<polygon fill="#63b8ff" stroke="#63b8ff" points="214.29,-127.88 219.2,-137.27 221.22,-126.87 214.29,-127.88"/>
</a>
</g>
</g>
<!-- Node5 -->
<g id="Node000005" class="node">
<title>Node5</title>
<g id="a_Node000005"><a xlink:href="gnrc_2sixlowpan_2frag_2sfr_8h.html" target="_top" xlink:title="6LoWPAN selective fragment recovery definitions for GNRC">
<polygon fill="white" stroke="#666666" points="405.62,-103 289.88,-103 289.88,-69.5 405.62,-69.5 405.62,-103"/>
<text text-anchor="start" x="297.88" y="-89.5" font-family="Helvetica,sans-Serif" font-size="10.00">sys/include/net/gnrc</text>
<text text-anchor="middle" x="347.75" y="-76.75" font-family="Helvetica,sans-Serif" font-size="10.00">/sixlowpan/frag/sfr.h</text>
</a>
</g>
</g>
<!-- Node1&#45;&gt;Node5 -->
<g id="edge5_Node000001_Node000005" class="edge">
<title>Node1&#45;&gt;Node5</title>
<g id="a_edge5_Node000001_Node000005"><a xlink:title=" ">
<path fill="none" stroke="#63b8ff" d="M261.93,-133.22C280.06,-123.51 301.1,-112.24 317.82,-103.29"/>
<polygon fill="#63b8ff" stroke="#63b8ff" points="260.43,-130.06 253.26,-137.87 263.73,-136.23 260.43,-130.06"/>
</a>
</g>
</g>
<!-- Node3 -->
<g id="Node000003" class="node">
<title>Node3</title>
<g id="a_Node000003"><a xlink:href="gnrc_2sixlowpan_8h.html" target="_top" xlink:title="Definitions for 6LoWPAN.">
<polygon fill="white" stroke="#666666" points="113.5,-33.5 0,-33.5 0,0 113.5,0 113.5,-33.5"/>
<text text-anchor="start" x="8" y="-20" font-family="Helvetica,sans-Serif" font-size="10.00">sys/include/net/gnrc</text>
<text text-anchor="middle" x="56.75" y="-7.25" font-family="Helvetica,sans-Serif" font-size="10.00">/sixlowpan.h</text>
</a>
</g>
</g>
<!-- Node2&#45;&gt;Node3 -->
<g id="edge2_Node000002_Node000003" class="edge">
<title>Node2&#45;&gt;Node3</title>
<g id="a_edge2_Node000002_Node000003"><a xlink:title=" ">
<path fill="none" stroke="#63b8ff" d="M109,-61.84C98.06,-52.6 85.76,-42.23 75.85,-33.87"/>
<polygon fill="#63b8ff" stroke="#63b8ff" points="106.73,-64.5 116.63,-68.28 111.25,-59.15 106.73,-64.5"/>
</a>
</g>
</g>
<!-- Node2&#45;&gt;Node4 -->
<g id="edge3_Node000002_Node000004" class="edge">
<title>Node2&#45;&gt;Node4</title>
<g id="a_edge3_Node000002_Node000004"><a xlink:title=" ">
<path fill="none" stroke="#63b8ff" d="M159.89,-61.22C168.71,-52.06 178.54,-41.85 186.46,-33.63"/>
<polygon fill="#63b8ff" stroke="#63b8ff" points="157.62,-58.53 153.2,-68.16 162.66,-63.39 157.62,-58.53"/>
</a>
</g>
</g>
<!-- Node6 -->
<g id="Node000006" class="node">
<title>Node6</title>
<g id="a_Node000006"><a xlink:href="net_2gnrc_2sixlowpan_2frag_2sfr_2congure_8h.html" target="_top" xlink:title="Congure definitions for 6LoWPAN selective fragment recovery.">
<polygon fill="white" stroke="#666666" points="447.62,-33.5 289.88,-33.5 289.88,0 447.62,0 447.62,-33.5"/>
<text text-anchor="start" x="297.88" y="-20" font-family="Helvetica,sans-Serif" font-size="10.00">sys/include/net/gnrc</text>
<text text-anchor="middle" x="368.75" y="-7.25" font-family="Helvetica,sans-Serif" font-size="10.00">/sixlowpan/frag/sfr/congure.h</text>
</a>
</g>
</g>
<!-- Node5&#45;&gt;Node6 -->
<g id="edge6_Node000005_Node000006" class="edge">
<title>Node5&#45;&gt;Node6</title>
<g id="a_edge6_Node000005_Node000006"><a xlink:title=" ">
<path fill="none" stroke="#63b8ff" d="M356.11,-58.39C358.72,-50 361.51,-41.01 363.81,-33.63"/>
<polygon fill="#63b8ff" stroke="#63b8ff" points="352.81,-57.22 353.18,-67.81 359.49,-59.3 352.81,-57.22"/>
</a>
</g>
</g>
<!-- Node6&#45;&gt;Node6 -->
<g id="edge7_Node000006_Node000006" class="edge">
<title>Node6&#45;&gt;Node6</title>
<g id="a_edge7_Node000006_Node000006"><a xlink:title=" ">
<path fill="none" stroke="#63b8ff" d="M458.84,-25C463.11,-22.93 465.62,-20.18 465.62,-16.75 465.62,-10.98 458.51,-7.13 447.81,-5.19"/>
<polygon fill="#63b8ff" stroke="#63b8ff" points="457.83,-21.65 449.26,-27.88 459.84,-28.35 457.83,-21.65"/>
</a>
</g>
</g>
</g>
</svg>
