<?xml version="1.0" encoding="UTF-8" standalone="no"?>
<!DOCTYPE svg PUBLIC "-//W3C//DTD SVG 1.1//EN"
 "http://www.w3.org/Graphics/SVG/1.1/DTD/svg11.dtd">
<!-- Generated by graphviz version 12.1.1 (0)
 -->
<!-- Title: sys/include/fmt.h Pages: 1 -->
<svg width="134pt" height="86pt"
 viewBox="0.00 0.00 133.88 85.50" xmlns="http://www.w3.org/2000/svg" xmlns:xlink="http://www.w3.org/1999/xlink">
<g id="graph0" class="graph" transform="scale(1 1) rotate(0) translate(4 81.5)">
<title>sys/include/fmt.h</title>
<!-- Node1 -->
<g id="Node000001" class="node">
<title>Node1</title>
<g id="a_Node000001"><a xlink:title="String formatting API.">
<polygon fill="#999999" stroke="#666666" points="112.38,-77.5 12.38,-77.5 12.38,-56.75 112.38,-56.75 112.38,-77.5"/>
<text text-anchor="middle" x="62.38" y="-64" font-family="Helvetica,sans-Serif" font-size="10.00">sys/include/fmt.h</text>
</a>
</g>
</g>
<!-- Node2 -->
<g id="Node000002" class="node">
<title>Node2</title>
<g id="a_Node000002"><a xlink:title=" ">
<polygon fill="#e0e0e0" stroke="#999999" points="52.75,-20.75 0,-20.75 0,0 52.75,0 52.75,-20.75"/>
<text text-anchor="middle" x="26.38" y="-7.25" font-family="Helvetica,sans-Serif" font-size="10.00">stdint.h</text>
</a>
</g>
</g>
<!-- Node1&#45;&gt;Node2 -->
<g id="edge1_Node000001_Node000002" class="edge">
<title>Node1&#45;&gt;Node2</title>
<g id="a_edge1_Node000001_Node000002"><a xlink:title=" ">
<path fill="none" stroke="#63b8ff" d="M55.94,-56.34C51.23,-49.17 44.69,-39.23 38.96,-30.51"/>
<polygon fill="#63b8ff" stroke="#63b8ff" points="42.01,-28.78 33.59,-22.34 36.16,-32.62 42.01,-28.78"/>
</a>
</g>
</g>
<!-- Node3 -->
<g id="Node000003" class="node">
<title>Node3</title>
<g id="a_Node000003"><a xlink:title=" ">
<polygon fill="#e0e0e0" stroke="#999999" points="125.88,-20.75 70.88,-20.75 70.88,0 125.88,0 125.88,-20.75"/>
<text text-anchor="middle" x="98.38" y="-7.25" font-family="Helvetica,sans-Serif" font-size="10.00">stddef.h</text>
</a>
</g>
</g>
<!-- Node1&#45;&gt;Node3 -->
<g id="edge2_Node000001_Node000003" class="edge">
<title>Node1&#45;&gt;Node3</title>
<g id="a_edge2_Node000001_Node000003"><a xlink:title=" ">
<path fill="none" stroke="#63b8ff" d="M68.81,-56.34C73.52,-49.17 80.06,-39.23 85.79,-30.51"/>
<polygon fill="#63b8ff" stroke="#63b8ff" points="88.59,-32.62 91.16,-22.34 82.74,-28.78 88.59,-32.62"/>
</a>
</g>
</g>
</g>
</svg>
