<?xml version="1.0" encoding="UTF-8" standalone="no"?>
<!DOCTYPE svg PUBLIC "-//W3C//DTD SVG 1.1//EN"
 "http://www.w3.org/Graphics/SVG/1.1/DTD/svg11.dtd">
<!-- Generated by graphviz version 12.1.1 (0)
 -->
<!-- Title: boards/frdm&#45;kl43z/include/board.h Pages: 1 -->
<svg width="314pt" height="111pt"
 viewBox="0.00 0.00 313.50 111.00" xmlns="http://www.w3.org/2000/svg" xmlns:xlink="http://www.w3.org/1999/xlink">
<g id="graph0" class="graph" transform="scale(1 1) rotate(0) translate(4 107)">
<title>boards/frdm&#45;kl43z/include/board.h</title>
<!-- Node1 -->
<g id="Node000001" class="node">
<title>Node1</title>
<g id="a_Node000001"><a xlink:title="Board specific definitions for the FRDM&#45;KL43Z.">
<polygon fill="#999999" stroke="#666666" points="224.5,-103 81,-103 81,-69.5 224.5,-69.5 224.5,-103"/>
<text text-anchor="start" x="89" y="-89.5" font-family="Helvetica,sans-Serif" font-size="10.00">boards/frdm&#45;kl43z/include</text>
<text text-anchor="middle" x="152.75" y="-76.75" font-family="Helvetica,sans-Serif" font-size="10.00">/board.h</text>
</a>
</g>
</g>
<!-- Node2 -->
<g id="Node000002" class="node">
<title>Node2</title>
<g id="a_Node000002"><a xlink:href="frdm-kl43z_2include_2adc__params_8h.html" target="_top" xlink:title="Board specific configuration of direct mapped ADC.">
<polygon fill="white" stroke="#666666" points="143.5,-33.5 0,-33.5 0,0 143.5,0 143.5,-33.5"/>
<text text-anchor="start" x="8" y="-20" font-family="Helvetica,sans-Serif" font-size="10.00">boards/frdm&#45;kl43z/include</text>
<text text-anchor="middle" x="71.75" y="-7.25" font-family="Helvetica,sans-Serif" font-size="10.00">/adc_params.h</text>
</a>
</g>
</g>
<!-- Node1&#45;&gt;Node2 -->
<g id="edge1_Node000001_Node000002" class="edge">
<title>Node1&#45;&gt;Node2</title>
<g id="a_edge1_Node000001_Node000002"><a xlink:title=" ">
<path fill="none" stroke="#63b8ff" d="M124.99,-62.11C113.82,-52.81 101.23,-42.31 91.09,-33.87"/>
<polygon fill="#63b8ff" stroke="#63b8ff" points="122.47,-64.57 132.39,-68.28 126.95,-59.19 122.47,-64.57"/>
</a>
</g>
</g>
<!-- Node3 -->
<g id="Node000003" class="node">
<title>Node3</title>
<g id="a_Node000003"><a xlink:href="frdm-kl43z_2include_2gpio__params_8h.html" target="_top" xlink:title="Board specific configuration of direct mapped GPIOs.">
<polygon fill="white" stroke="#666666" points="305.5,-33.5 162,-33.5 162,0 305.5,0 305.5,-33.5"/>
<text text-anchor="start" x="170" y="-20" font-family="Helvetica,sans-Serif" font-size="10.00">boards/frdm&#45;kl43z/include</text>
<text text-anchor="middle" x="233.75" y="-7.25" font-family="Helvetica,sans-Serif" font-size="10.00">/gpio_params.h</text>
</a>
</g>
</g>
<!-- Node1&#45;&gt;Node3 -->
<g id="edge2_Node000001_Node000003" class="edge">
<title>Node1&#45;&gt;Node3</title>
<g id="a_edge2_Node000001_Node000003"><a xlink:title=" ">
<path fill="none" stroke="#63b8ff" d="M180.51,-62.11C191.68,-52.81 204.27,-42.31 214.41,-33.87"/>
<polygon fill="#63b8ff" stroke="#63b8ff" points="178.55,-59.19 173.11,-68.28 183.03,-64.57 178.55,-59.19"/>
</a>
</g>
</g>
</g>
</svg>
