<?xml version="1.0" encoding="UTF-8" standalone="no"?>
<!DOCTYPE svg PUBLIC "-//W3C//DTD SVG 1.1//EN"
 "http://www.w3.org/Graphics/SVG/1.1/DTD/svg11.dtd">
<!-- Generated by graphviz version 12.1.1 (0)
 -->
<!-- Title: drivers/include/ft5x06.h Pages: 1 -->
<svg width="272pt" height="98pt"
 viewBox="0.00 0.00 271.50 98.25" xmlns="http://www.w3.org/2000/svg" xmlns:xlink="http://www.w3.org/1999/xlink">
<g id="graph0" class="graph" transform="scale(1 1) rotate(0) translate(4 94.25)">
<title>drivers/include/ft5x06.h</title>
<!-- Node1 -->
<g id="Node000001" class="node">
<title>Node1</title>
<g id="a_Node000001"><a xlink:title=" ">
<polygon fill="#999999" stroke="#666666" points="197,-90.25 65.5,-90.25 65.5,-69.5 197,-69.5 197,-90.25"/>
<text text-anchor="middle" x="131.25" y="-76.75" font-family="Helvetica,sans-Serif" font-size="10.00">drivers/include/ft5x06.h</text>
</a>
</g>
</g>
<!-- Node2 -->
<g id="Node000002" class="node">
<title>Node2</title>
<g id="a_Node000002"><a xlink:href="ft5x06__internal_8h.html" target="_top" xlink:title="FT5X06 internal functions.">
<polygon fill="white" stroke="#666666" points="122.5,-33.5 0,-33.5 0,0 122.5,0 122.5,-33.5"/>
<text text-anchor="start" x="8" y="-20" font-family="Helvetica,sans-Serif" font-size="10.00">drivers/ft5x06/include</text>
<text text-anchor="middle" x="61.25" y="-7.25" font-family="Helvetica,sans-Serif" font-size="10.00">/ft5x06_internal.h</text>
</a>
</g>
</g>
<!-- Node1&#45;&gt;Node2 -->
<g id="edge1_Node000001_Node000002" class="edge">
<title>Node1&#45;&gt;Node2</title>
<g id="a_edge1_Node000001_Node000002"><a xlink:title=" ">
<path fill="none" stroke="#63b8ff" d="M111.57,-61.69C101.63,-53.01 89.63,-42.53 79.84,-33.98"/>
<polygon fill="#63b8ff" stroke="#63b8ff" points="109.03,-64.12 118.86,-68.06 113.63,-58.84 109.03,-64.12"/>
</a>
</g>
</g>
<!-- Node3 -->
<g id="Node000003" class="node">
<title>Node3</title>
<g id="a_Node000003"><a xlink:href="ft5x06__params_8h.html" target="_top" xlink:title="Default configuration.">
<polygon fill="white" stroke="#666666" points="263.5,-33.5 141,-33.5 141,0 263.5,0 263.5,-33.5"/>
<text text-anchor="start" x="149" y="-20" font-family="Helvetica,sans-Serif" font-size="10.00">drivers/ft5x06/include</text>
<text text-anchor="middle" x="202.25" y="-7.25" font-family="Helvetica,sans-Serif" font-size="10.00">/ft5x06_params.h</text>
</a>
</g>
</g>
<!-- Node1&#45;&gt;Node3 -->
<g id="edge2_Node000001_Node000003" class="edge">
<title>Node1&#45;&gt;Node3</title>
<g id="a_edge2_Node000001_Node000003"><a xlink:title=" ">
<path fill="none" stroke="#63b8ff" d="M151.21,-61.69C161.29,-53.01 173.47,-42.53 183.39,-33.98"/>
<polygon fill="#63b8ff" stroke="#63b8ff" points="149.1,-58.89 143.8,-68.07 153.67,-64.19 149.1,-58.89"/>
</a>
</g>
</g>
</g>
</svg>
