<?xml version="1.0" encoding="UTF-8" standalone="no"?>
<!DOCTYPE svg PUBLIC "-//W3C//DTD SVG 1.1//EN"
 "http://www.w3.org/Graphics/SVG/1.1/DTD/svg11.dtd">
<!-- Generated by graphviz version 12.1.1 (0)
 -->
<!-- Title: cpu/gd32v/include/cpu.h Pages: 1 -->
<svg width="293pt" height="142pt"
 viewBox="0.00 0.00 293.00 142.25" xmlns="http://www.w3.org/2000/svg" xmlns:xlink="http://www.w3.org/1999/xlink">
<g id="graph0" class="graph" transform="scale(1 1) rotate(0) translate(4 138.25)">
<title>cpu/gd32v/include/cpu.h</title>
<!-- Node1 -->
<g id="Node000001" class="node">
<title>Node1</title>
<g id="a_Node000001"><a xlink:title="CPU specific definitions.">
<polygon fill="#999999" stroke="#666666" points="257.75,-134.25 124,-134.25 124,-113.5 257.75,-113.5 257.75,-134.25"/>
<text text-anchor="middle" x="190.88" y="-120.75" font-family="Helvetica,sans-Serif" font-size="10.00">cpu/gd32v/include/cpu.h</text>
</a>
</g>
</g>
<!-- Node2 -->
<g id="Node000002" class="node">
<title>Node2</title>
<g id="a_Node000002"><a xlink:href="gd32v_2include_2cpu__conf_8h.html" target="_top" xlink:title="CPU specific configuration options.">
<polygon fill="white" stroke="#666666" points="176.75,-77.5 109,-77.5 109,-56.75 176.75,-56.75 176.75,-77.5"/>
<text text-anchor="middle" x="142.88" y="-64" font-family="Helvetica,sans-Serif" font-size="10.00">cpu_conf.h</text>
</a>
</g>
</g>
<!-- Node1&#45;&gt;Node2 -->
<g id="edge1_Node000001_Node000002" class="edge">
<title>Node1&#45;&gt;Node2</title>
<g id="a_edge1_Node000001_Node000002"><a xlink:title=" ">
<path fill="none" stroke="#63b8ff" d="M182.29,-113.09C175.81,-105.69 166.72,-95.32 158.9,-86.41"/>
<polygon fill="#63b8ff" stroke="#63b8ff" points="161.6,-84.18 152.38,-78.97 156.34,-88.79 161.6,-84.18"/>
</a>
</g>
</g>
<!-- Node5 -->
<g id="Node000005" class="node">
<title>Node5</title>
<g id="a_Node000005"><a xlink:title=" ">
<polygon fill="#e0e0e0" stroke="#999999" points="285,-77.5 194.75,-77.5 194.75,-56.75 285,-56.75 285,-77.5"/>
<text text-anchor="middle" x="239.88" y="-64" font-family="Helvetica,sans-Serif" font-size="10.00">cpu_common.h</text>
</a>
</g>
</g>
<!-- Node1&#45;&gt;Node5 -->
<g id="edge4_Node000001_Node000005" class="edge">
<title>Node1&#45;&gt;Node5</title>
<g id="a_edge4_Node000001_Node000005"><a xlink:title=" ">
<path fill="none" stroke="#63b8ff" d="M199.64,-113.09C206.32,-105.61 215.73,-95.11 223.76,-86.13"/>
<polygon fill="#63b8ff" stroke="#63b8ff" points="226.12,-88.74 230.18,-78.96 220.9,-84.07 226.12,-88.74"/>
</a>
</g>
</g>
<!-- Node3 -->
<g id="Node000003" class="node">
<title>Node3</title>
<g id="a_Node000003"><a xlink:title=" ">
<polygon fill="#e0e0e0" stroke="#999999" points="139.75,-20.75 0,-20.75 0,0 139.75,0 139.75,-20.75"/>
<text text-anchor="middle" x="69.88" y="-7.25" font-family="Helvetica,sans-Serif" font-size="10.00">vendor/gd32vf103_core.h</text>
</a>
</g>
</g>
<!-- Node2&#45;&gt;Node3 -->
<g id="edge2_Node000002_Node000003" class="edge">
<title>Node2&#45;&gt;Node3</title>
<g id="a_edge2_Node000002_Node000003"><a xlink:title=" ">
<path fill="none" stroke="#63b8ff" d="M129.82,-56.34C119.24,-48.4 104.08,-37.03 91.66,-27.71"/>
<polygon fill="#63b8ff" stroke="#63b8ff" points="94.12,-25.19 84.02,-21.99 89.92,-30.79 94.12,-25.19"/>
</a>
</g>
</g>
<!-- Node4 -->
<g id="Node000004" class="node">
<title>Node4</title>
<g id="a_Node000004"><a xlink:title=" ">
<polygon fill="#e0e0e0" stroke="#999999" points="274.12,-20.75 157.62,-20.75 157.62,0 274.12,0 274.12,-20.75"/>
<text text-anchor="middle" x="215.88" y="-7.25" font-family="Helvetica,sans-Serif" font-size="10.00">cpu_conf_common.h</text>
</a>
</g>
</g>
<!-- Node2&#45;&gt;Node4 -->
<g id="edge3_Node000002_Node000004" class="edge">
<title>Node2&#45;&gt;Node4</title>
<g id="a_edge3_Node000002_Node000004"><a xlink:title=" ">
<path fill="none" stroke="#63b8ff" d="M155.93,-56.34C166.51,-48.4 181.67,-37.03 194.09,-27.71"/>
<polygon fill="#63b8ff" stroke="#63b8ff" points="195.83,-30.79 201.73,-21.99 191.63,-25.19 195.83,-30.79"/>
</a>
</g>
</g>
</g>
</svg>
