<?xml version="1.0" encoding="UTF-8" standalone="no"?>
<!DOCTYPE svg PUBLIC "-//W3C//DTD SVG 1.1//EN"
 "http://www.w3.org/Graphics/SVG/1.1/DTD/svg11.dtd">
<!-- Generated by graphviz version 12.1.1 (0)
 -->
<!-- Title: cpu/gd32v/include/gpio_ll_arch.h Pages: 1 -->
<svg width="781pt" height="325pt"
 viewBox="0.00 0.00 780.77 325.25" xmlns="http://www.w3.org/2000/svg" xmlns:xlink="http://www.w3.org/1999/xlink">
<g id="graph0" class="graph" transform="scale(1 1) rotate(0) translate(4 321.25)">
<title>cpu/gd32v/include/gpio_ll_arch.h</title>
<!-- Node1 -->
<g id="Node000001" class="node">
<title>Node1</title>
<g id="a_Node000001"><a xlink:title="GPIO Low&#45;level API implementation for the GD32V GPIO peripheral.">
<polygon fill="#999999" stroke="#666666" points="316.52,-317.25 188.02,-317.25 188.02,-283.75 316.52,-283.75 316.52,-317.25"/>
<text text-anchor="start" x="196.02" y="-303.75" font-family="Helvetica,sans-Serif" font-size="10.00">cpu/gd32v/include/gpio</text>
<text text-anchor="middle" x="252.27" y="-291" font-family="Helvetica,sans-Serif" font-size="10.00">_ll_arch.h</text>
</a>
</g>
</g>
<!-- Node2 -->
<g id="Node000002" class="node">
<title>Node2</title>
<g id="a_Node000002"><a xlink:href="architecture_8h.html" target="_top" xlink:title="Platform&#45;independent access to architecture details.">
<polygon fill="white" stroke="#666666" points="206.02,-247.75 122.52,-247.75 122.52,-227 206.02,-227 206.02,-247.75"/>
<text text-anchor="middle" x="164.27" y="-234.25" font-family="Helvetica,sans-Serif" font-size="10.00">architecture.h</text>
</a>
</g>
</g>
<!-- Node1&#45;&gt;Node2 -->
<g id="edge1_Node000001_Node000002" class="edge">
<title>Node1&#45;&gt;Node2</title>
<g id="a_edge1_Node000001_Node000002"><a xlink:title=" ">
<path fill="none" stroke="#63b8ff" d="M229.15,-283.44C216.32,-274.53 200.42,-263.49 187.57,-254.56"/>
<polygon fill="#63b8ff" stroke="#63b8ff" points="189.89,-251.91 179.68,-249.08 185.9,-257.66 189.89,-251.91"/>
</a>
</g>
</g>
<!-- Node7 -->
<g id="Node000007" class="node">
<title>Node7</title>
<g id="a_Node000007"><a xlink:href="gd32v_2include_2periph__cpu_8h.html" target="_top" xlink:title="CPU specific definitions for internal peripheral handling.">
<polygon fill="white" stroke="#666666" points="410.39,-247.75 332.14,-247.75 332.14,-227 410.39,-227 410.39,-247.75"/>
<text text-anchor="middle" x="371.27" y="-234.25" font-family="Helvetica,sans-Serif" font-size="10.00">periph_cpu.h</text>
</a>
</g>
</g>
<!-- Node1&#45;&gt;Node7 -->
<g id="edge6_Node000001_Node000007" class="edge">
<title>Node1&#45;&gt;Node7</title>
<g id="a_edge6_Node000001_Node000007"><a xlink:title=" ">
<path fill="none" stroke="#63b8ff" d="M283.85,-283.28C302.03,-273.94 324.73,-262.28 342.43,-253.19"/>
<polygon fill="#63b8ff" stroke="#63b8ff" points="343.57,-256.54 350.86,-248.86 340.37,-250.31 343.57,-256.54"/>
</a>
</g>
</g>
<!-- Node3 -->
<g id="Node000003" class="node">
<title>Node3</title>
<g id="a_Node000003"><a xlink:title=" ">
<polygon fill="#e0e0e0" stroke="#999999" points="603.64,-20.75 550.89,-20.75 550.89,0 603.64,0 603.64,-20.75"/>
<text text-anchor="middle" x="577.27" y="-7.25" font-family="Helvetica,sans-Serif" font-size="10.00">stdint.h</text>
</a>
</g>
</g>
<!-- Node2&#45;&gt;Node3 -->
<g id="edge2_Node000002_Node000003" class="edge">
<title>Node2&#45;&gt;Node3</title>
<g id="a_edge2_Node000002_Node000003"><a xlink:title=" ">
<path fill="none" stroke="#63b8ff" d="M122.24,-234.5C91.26,-230.65 51.02,-219.94 30.27,-191 1.65,-151.1 -35.42,-139.13 72.27,-56.75 109.16,-28.53 428.48,-16 539.45,-12.47"/>
<polygon fill="#63b8ff" stroke="#63b8ff" points="539.33,-15.98 549.22,-12.17 539.12,-8.98 539.33,-15.98"/>
</a>
</g>
</g>
<!-- Node4 -->
<g id="Node000004" class="node">
<title>Node4</title>
<g id="a_Node000004"><a xlink:href="inttypes_8h.html" target="_top" xlink:title="Adds include for missing inttype definitions.">
<polygon fill="white" stroke="#666666" points="301.64,-191 236.89,-191 236.89,-170.25 301.64,-170.25 301.64,-191"/>
<text text-anchor="middle" x="269.27" y="-177.5" font-family="Helvetica,sans-Serif" font-size="10.00">inttypes.h</text>
</a>
</g>
</g>
<!-- Node2&#45;&gt;Node4 -->
<g id="edge3_Node000002_Node000004" class="edge">
<title>Node2&#45;&gt;Node4</title>
<g id="a_edge3_Node000002_Node000004"><a xlink:title=" ">
<path fill="none" stroke="#63b8ff" d="M183.04,-226.59C199.02,-218.26 222.22,-206.16 240.53,-196.61"/>
<polygon fill="#63b8ff" stroke="#63b8ff" points="242.07,-199.76 249.32,-192.03 238.83,-193.55 242.07,-199.76"/>
</a>
</g>
</g>
<!-- Node5 -->
<g id="Node000005" class="node">
<title>Node5</title>
<g id="a_Node000005"><a xlink:title=" ">
<polygon fill="#e0e0e0" stroke="#999999" points="91.64,-191 38.89,-191 38.89,-170.25 91.64,-170.25 91.64,-191"/>
<text text-anchor="middle" x="65.27" y="-177.5" font-family="Helvetica,sans-Serif" font-size="10.00">limits.h</text>
</a>
</g>
</g>
<!-- Node2&#45;&gt;Node5 -->
<g id="edge4_Node000002_Node000005" class="edge">
<title>Node2&#45;&gt;Node5</title>
<g id="a_edge4_Node000002_Node000005"><a xlink:title=" ">
<path fill="none" stroke="#63b8ff" d="M146.57,-226.59C131.65,-218.33 110.04,-206.38 92.85,-196.88"/>
<polygon fill="#63b8ff" stroke="#63b8ff" points="94.58,-193.84 84.14,-192.06 91.2,-199.96 94.58,-193.84"/>
</a>
</g>
</g>
<!-- Node6 -->
<g id="Node000006" class="node">
<title>Node6</title>
<g id="a_Node000006"><a xlink:title=" ">
<polygon fill="#e0e0e0" stroke="#999999" points="219.14,-191 109.39,-191 109.39,-170.25 219.14,-170.25 219.14,-191"/>
<text text-anchor="middle" x="164.27" y="-177.5" font-family="Helvetica,sans-Serif" font-size="10.00">architecture_arch.h</text>
</a>
</g>
</g>
<!-- Node2&#45;&gt;Node6 -->
<g id="edge5_Node000002_Node000006" class="edge">
<title>Node2&#45;&gt;Node6</title>
<g id="a_edge5_Node000002_Node000006"><a xlink:title=" ">
<path fill="none" stroke="#63b8ff" d="M164.27,-226.59C164.27,-219.97 164.27,-210.97 164.27,-202.77"/>
<polygon fill="#63b8ff" stroke="#63b8ff" points="167.77,-202.84 164.27,-192.84 160.77,-202.84 167.77,-202.84"/>
</a>
</g>
</g>
<!-- Node7&#45;&gt;Node4 -->
<g id="edge7_Node000007_Node000004" class="edge">
<title>Node7&#45;&gt;Node4</title>
<g id="a_edge7_Node000007_Node000004"><a xlink:title=" ">
<path fill="none" stroke="#63b8ff" d="M353.03,-226.59C337.59,-218.3 315.18,-206.27 297.43,-196.74"/>
<polygon fill="#63b8ff" stroke="#63b8ff" points="299.15,-193.69 288.68,-192.04 295.84,-199.86 299.15,-193.69"/>
</a>
</g>
</g>
<!-- Node8 -->
<g id="Node000008" class="node">
<title>Node8</title>
<g id="a_Node000008"><a xlink:href="gd32v_2include_2cpu_8h.html" target="_top" xlink:title="CPU specific definitions.">
<polygon fill="white" stroke="#666666" points="362.39,-191 320.14,-191 320.14,-170.25 362.39,-170.25 362.39,-191"/>
<text text-anchor="middle" x="341.27" y="-177.5" font-family="Helvetica,sans-Serif" font-size="10.00">cpu.h</text>
</a>
</g>
</g>
<!-- Node7&#45;&gt;Node8 -->
<g id="edge8_Node000007_Node000008" class="edge">
<title>Node7&#45;&gt;Node8</title>
<g id="a_edge8_Node000007_Node000008"><a xlink:title=" ">
<path fill="none" stroke="#63b8ff" d="M365.9,-226.59C362.07,-219.58 356.77,-209.91 352.06,-201.33"/>
<polygon fill="#63b8ff" stroke="#63b8ff" points="355.19,-199.74 347.31,-192.66 349.05,-203.11 355.19,-199.74"/>
</a>
</g>
</g>
<!-- Node13 -->
<g id="Node000013" class="node">
<title>Node13</title>
<g id="a_Node000013"><a xlink:href="clic_8h.html" target="_top" xlink:title="RISCV CLIC interrupt controller definitions.">
<polygon fill="white" stroke="#666666" points="422.02,-191 380.52,-191 380.52,-170.25 422.02,-170.25 422.02,-191"/>
<text text-anchor="middle" x="401.27" y="-177.5" font-family="Helvetica,sans-Serif" font-size="10.00">clic.h</text>
</a>
</g>
</g>
<!-- Node7&#45;&gt;Node13 -->
<g id="edge13_Node000007_Node000013" class="edge">
<title>Node7&#45;&gt;Node13</title>
<g id="a_edge13_Node000007_Node000013"><a xlink:title=" ">
<path fill="none" stroke="#63b8ff" d="M376.63,-226.59C380.47,-219.58 385.77,-209.91 390.47,-201.33"/>
<polygon fill="#63b8ff" stroke="#63b8ff" points="393.49,-203.11 395.22,-192.66 387.35,-199.74 393.49,-203.11"/>
</a>
</g>
</g>
<!-- Node15 -->
<g id="Node000015" class="node">
<title>Node15</title>
<g id="a_Node000015"><a xlink:href="kernel__defines_8h.html" target="_top" xlink:title="Common macros and compiler attributes/pragmas configuration.">
<polygon fill="white" stroke="#666666" points="566.39,-191 470.14,-191 470.14,-170.25 566.39,-170.25 566.39,-191"/>
<text text-anchor="middle" x="518.27" y="-177.5" font-family="Helvetica,sans-Serif" font-size="10.00">kernel_defines.h</text>
</a>
</g>
</g>
<!-- Node7&#45;&gt;Node15 -->
<g id="edge15_Node000007_Node000015" class="edge">
<title>Node7&#45;&gt;Node15</title>
<g id="a_edge15_Node000007_Node000015"><a xlink:title=" ">
<path fill="none" stroke="#63b8ff" d="M397.55,-226.59C420.96,-217.87 455.46,-205.02 481.59,-195.29"/>
<polygon fill="#63b8ff" stroke="#63b8ff" points="482.65,-198.63 490.8,-191.86 480.2,-192.07 482.65,-198.63"/>
</a>
</g>
</g>
<!-- Node22 -->
<g id="Node000022" class="node">
<title>Node22</title>
<g id="a_Node000022"><a xlink:href="units_8h.html" target="_top" xlink:title="Unit helper macros.">
<polygon fill="white" stroke="#666666" points="672.27,-191 584.27,-191 584.27,-170.25 672.27,-170.25 672.27,-191"/>
<text text-anchor="middle" x="628.27" y="-177.5" font-family="Helvetica,sans-Serif" font-size="10.00">macros/units.h</text>
</a>
</g>
</g>
<!-- Node7&#45;&gt;Node22 -->
<g id="edge26_Node000007_Node000022" class="edge">
<title>Node7&#45;&gt;Node22</title>
<g id="a_edge26_Node000007_Node000022"><a xlink:title=" ">
<path fill="none" stroke="#63b8ff" d="M410.86,-227.94C454.23,-218.7 524.1,-203.82 572.89,-193.42"/>
<polygon fill="#63b8ff" stroke="#63b8ff" points="573.35,-196.9 582.4,-191.4 571.89,-190.06 573.35,-196.9"/>
</a>
</g>
</g>
<!-- Node9 -->
<g id="Node000009" class="node">
<title>Node9</title>
<g id="a_Node000009"><a xlink:href="gd32v_2include_2cpu__conf_8h.html" target="_top" xlink:title="CPU specific configuration options.">
<polygon fill="white" stroke="#666666" points="226.14,-134.25 158.39,-134.25 158.39,-113.5 226.14,-113.5 226.14,-134.25"/>
<text text-anchor="middle" x="192.27" y="-120.75" font-family="Helvetica,sans-Serif" font-size="10.00">cpu_conf.h</text>
</a>
</g>
</g>
<!-- Node8&#45;&gt;Node9 -->
<g id="edge9_Node000008_Node000009" class="edge">
<title>Node8&#45;&gt;Node9</title>
<g id="a_edge9_Node000008_Node000009"><a xlink:title=" ">
<path fill="none" stroke="#63b8ff" d="M319.92,-171.78C296.48,-163.17 258.38,-149.17 229.9,-138.7"/>
<polygon fill="#63b8ff" stroke="#63b8ff" points="231.14,-135.43 220.54,-135.27 228.72,-142 231.14,-135.43"/>
</a>
</g>
</g>
<!-- Node12 -->
<g id="Node000012" class="node">
<title>Node12</title>
<g id="a_Node000012"><a xlink:title=" ">
<polygon fill="#e0e0e0" stroke="#999999" points="334.39,-134.25 244.14,-134.25 244.14,-113.5 334.39,-113.5 334.39,-134.25"/>
<text text-anchor="middle" x="289.27" y="-120.75" font-family="Helvetica,sans-Serif" font-size="10.00">cpu_common.h</text>
</a>
</g>
</g>
<!-- Node8&#45;&gt;Node12 -->
<g id="edge12_Node000008_Node000012" class="edge">
<title>Node8&#45;&gt;Node12</title>
<g id="a_edge12_Node000008_Node000012"><a xlink:title=" ">
<path fill="none" stroke="#63b8ff" d="M331.97,-169.84C324.87,-162.36 314.89,-151.86 306.37,-142.88"/>
<polygon fill="#63b8ff" stroke="#63b8ff" points="308.95,-140.52 299.53,-135.68 303.88,-145.34 308.95,-140.52"/>
</a>
</g>
</g>
<!-- Node10 -->
<g id="Node000010" class="node">
<title>Node10</title>
<g id="a_Node000010"><a xlink:title=" ">
<polygon fill="#e0e0e0" stroke="#999999" points="221.14,-77.5 81.39,-77.5 81.39,-56.75 221.14,-56.75 221.14,-77.5"/>
<text text-anchor="middle" x="151.27" y="-64" font-family="Helvetica,sans-Serif" font-size="10.00">vendor/gd32vf103_core.h</text>
</a>
</g>
</g>
<!-- Node9&#45;&gt;Node10 -->
<g id="edge10_Node000009_Node000010" class="edge">
<title>Node9&#45;&gt;Node10</title>
<g id="a_edge10_Node000009_Node000010"><a xlink:title=" ">
<path fill="none" stroke="#63b8ff" d="M184.94,-113.09C179.52,-105.85 171.96,-95.76 165.38,-86.97"/>
<polygon fill="#63b8ff" stroke="#63b8ff" points="168.24,-84.95 159.44,-79.04 162.63,-89.14 168.24,-84.95"/>
</a>
</g>
</g>
<!-- Node11 -->
<g id="Node000011" class="node">
<title>Node11</title>
<g id="a_Node000011"><a xlink:title=" ">
<polygon fill="#e0e0e0" stroke="#999999" points="355.52,-77.5 239.02,-77.5 239.02,-56.75 355.52,-56.75 355.52,-77.5"/>
<text text-anchor="middle" x="297.27" y="-64" font-family="Helvetica,sans-Serif" font-size="10.00">cpu_conf_common.h</text>
</a>
</g>
</g>
<!-- Node9&#45;&gt;Node11 -->
<g id="edge11_Node000009_Node000011" class="edge">
<title>Node9&#45;&gt;Node11</title>
<g id="a_edge11_Node000009_Node000011"><a xlink:title=" ">
<path fill="none" stroke="#63b8ff" d="M211.04,-113.09C227.02,-104.76 250.22,-92.66 268.53,-83.11"/>
<polygon fill="#63b8ff" stroke="#63b8ff" points="270.07,-86.26 277.32,-78.53 266.83,-80.05 270.07,-86.26"/>
</a>
</g>
</g>
<!-- Node14 -->
<g id="Node000014" class="node">
<title>Node14</title>
<g id="a_Node000014"><a xlink:title=" ">
<polygon fill="#e0e0e0" stroke="#999999" points="420.14,-134.25 352.39,-134.25 352.39,-113.5 420.14,-113.5 420.14,-134.25"/>
<text text-anchor="middle" x="386.27" y="-120.75" font-family="Helvetica,sans-Serif" font-size="10.00">cpu_conf.h</text>
</a>
</g>
</g>
<!-- Node13&#45;&gt;Node14 -->
<g id="edge14_Node000013_Node000014" class="edge">
<title>Node13&#45;&gt;Node14</title>
<g id="a_edge14_Node000013_Node000014"><a xlink:title=" ">
<path fill="none" stroke="#63b8ff" d="M398.59,-169.84C396.73,-163.06 394.19,-153.8 391.9,-145.44"/>
<polygon fill="#63b8ff" stroke="#63b8ff" points="395.34,-144.76 389.33,-136.04 388.59,-146.61 395.34,-144.76"/>
</a>
</g>
</g>
<!-- Node16 -->
<g id="Node000016" class="node">
<title>Node16</title>
<g id="a_Node000016"><a xlink:href="modules_8h.html" target="_top" xlink:title="Common macros and compiler attributes/pragmas configuration.">
<polygon fill="white" stroke="#666666" points="504.77,-134.25 437.77,-134.25 437.77,-113.5 504.77,-113.5 504.77,-134.25"/>
<text text-anchor="middle" x="471.27" y="-120.75" font-family="Helvetica,sans-Serif" font-size="10.00">modules.h</text>
</a>
</g>
</g>
<!-- Node15&#45;&gt;Node16 -->
<g id="edge16_Node000015_Node000016" class="edge">
<title>Node15&#45;&gt;Node16</title>
<g id="a_edge16_Node000015_Node000016"><a xlink:title=" ">
<path fill="none" stroke="#63b8ff" d="M509.87,-169.84C503.52,-162.44 494.62,-152.07 486.96,-143.16"/>
<polygon fill="#63b8ff" stroke="#63b8ff" points="489.75,-141.03 480.58,-135.73 484.44,-145.59 489.75,-141.03"/>
</a>
</g>
</g>
<!-- Node17 -->
<g id="Node000017" class="node">
<title>Node17</title>
<g id="a_Node000017"><a xlink:href="riot__version_8h.html" target="_top" xlink:title="Common macros and compiler attributes/pragmas configuration.">
<polygon fill="white" stroke="#666666" points="549.64,-77.5 466.89,-77.5 466.89,-56.75 549.64,-56.75 549.64,-77.5"/>
<text text-anchor="middle" x="508.27" y="-64" font-family="Helvetica,sans-Serif" font-size="10.00">riot_version.h</text>
</a>
</g>
</g>
<!-- Node15&#45;&gt;Node17 -->
<g id="edge17_Node000015_Node000017" class="edge">
<title>Node15&#45;&gt;Node17</title>
<g id="a_edge17_Node000015_Node000017"><a xlink:title=" ">
<path fill="none" stroke="#63b8ff" d="M517.91,-170.19C517.37,-157.35 516.21,-133.65 514.27,-113.5 513.5,-105.5 512.4,-96.74 511.35,-89.06"/>
<polygon fill="#63b8ff" stroke="#63b8ff" points="514.84,-88.74 509.97,-79.34 507.91,-89.73 514.84,-88.74"/>
</a>
</g>
</g>
<!-- Node18 -->
<g id="Node000018" class="node">
<title>Node18</title>
<g id="a_Node000018"><a xlink:href="compiler__hints_8h.html" target="_top" xlink:title="Common macros and compiler attributes/pragmas configuration.">
<polygon fill="white" stroke="#666666" points="658.77,-134.25 561.77,-134.25 561.77,-113.5 658.77,-113.5 658.77,-134.25"/>
<text text-anchor="middle" x="610.27" y="-120.75" font-family="Helvetica,sans-Serif" font-size="10.00">compiler_hints.h</text>
</a>
</g>
</g>
<!-- Node15&#45;&gt;Node18 -->
<g id="edge19_Node000015_Node000018" class="edge">
<title>Node15&#45;&gt;Node18</title>
<g id="a_edge19_Node000015_Node000018"><a xlink:title=" ">
<path fill="none" stroke="#63b8ff" d="M534.72,-169.84C548.45,-161.66 568.29,-149.86 584.19,-140.4"/>
<polygon fill="#63b8ff" stroke="#63b8ff" points="585.86,-143.47 592.66,-135.35 582.28,-137.46 585.86,-143.47"/>
</a>
</g>
</g>
<!-- Node20 -->
<g id="Node000020" class="node">
<title>Node20</title>
<g id="a_Node000020"><a xlink:href="container_8h.html" target="_top" xlink:title="Common macros and compiler attributes/pragmas configuration.">
<polygon fill="white" stroke="#666666" points="747.64,-134.25 676.89,-134.25 676.89,-113.5 747.64,-113.5 747.64,-134.25"/>
<text text-anchor="middle" x="712.27" y="-120.75" font-family="Helvetica,sans-Serif" font-size="10.00">container.h</text>
</a>
</g>
</g>
<!-- Node15&#45;&gt;Node20 -->
<g id="edge23_Node000015_Node000020" class="edge">
<title>Node15&#45;&gt;Node20</title>
<g id="a_edge23_Node000015_Node000020"><a xlink:title=" ">
<path fill="none" stroke="#63b8ff" d="M552.95,-169.84C584.72,-160.87 631.94,-147.54 666.73,-137.73"/>
<polygon fill="#63b8ff" stroke="#63b8ff" points="667.43,-141.17 676.1,-135.08 665.53,-134.43 667.43,-141.17"/>
</a>
</g>
</g>
<!-- Node17&#45;&gt;Node3 -->
<g id="edge18_Node000017_Node000003" class="edge">
<title>Node17&#45;&gt;Node3</title>
<g id="a_edge18_Node000017_Node000003"><a xlink:title=" ">
<path fill="none" stroke="#63b8ff" d="M520.6,-56.34C530.51,-48.47 544.66,-37.25 556.33,-27.99"/>
<polygon fill="#63b8ff" stroke="#63b8ff" points="558.2,-30.98 563.85,-22.02 553.84,-25.49 558.2,-30.98"/>
</a>
</g>
</g>
<!-- Node18&#45;&gt;Node3 -->
<g id="edge22_Node000018_Node000003" class="edge">
<title>Node18&#45;&gt;Node3</title>
<g id="a_edge22_Node000018_Node000003"><a xlink:title=" ">
<path fill="none" stroke="#63b8ff" d="M607.45,-113.37C602.15,-95.44 590.55,-56.25 583.37,-32.01"/>
<polygon fill="#63b8ff" stroke="#63b8ff" points="586.79,-31.22 580.6,-22.63 580.08,-33.21 586.79,-31.22"/>
</a>
</g>
</g>
<!-- Node19 -->
<g id="Node000019" class="node">
<title>Node19</title>
<g id="a_Node000019"><a xlink:href="assert_8h.html" target="_top" xlink:title="POSIX.1&#45;2008 compliant version of the assert macro.">
<polygon fill="white" stroke="#666666" points="660.77,-77.5 605.77,-77.5 605.77,-56.75 660.77,-56.75 660.77,-77.5"/>
<text text-anchor="middle" x="633.27" y="-64" font-family="Helvetica,sans-Serif" font-size="10.00">assert.h</text>
</a>
</g>
</g>
<!-- Node18&#45;&gt;Node19 -->
<g id="edge20_Node000018_Node000019" class="edge">
<title>Node18&#45;&gt;Node19</title>
<g id="a_edge20_Node000018_Node000019"><a xlink:title=" ">
<path fill="none" stroke="#63b8ff" d="M614.38,-113.09C617.26,-106.24 621.21,-96.84 624.75,-88.4"/>
<polygon fill="#63b8ff" stroke="#63b8ff" points="627.96,-89.8 628.61,-79.22 621.51,-87.09 627.96,-89.8"/>
</a>
</g>
</g>
<!-- Node19&#45;&gt;Node3 -->
<g id="edge21_Node000019_Node000003" class="edge">
<title>Node19&#45;&gt;Node3</title>
<g id="a_edge21_Node000019_Node000003"><a xlink:title=" ">
<path fill="none" stroke="#63b8ff" d="M623.26,-56.34C615.53,-48.78 604.64,-38.14 595.4,-29.1"/>
<polygon fill="#63b8ff" stroke="#63b8ff" points="597.87,-26.62 588.28,-22.14 592.98,-31.63 597.87,-26.62"/>
</a>
</g>
</g>
<!-- Node20&#45;&gt;Node3 -->
<g id="edge25_Node000020_Node000003" class="edge">
<title>Node20&#45;&gt;Node3</title>
<g id="a_edge25_Node000020_Node000003"><a xlink:title=" ">
<path fill="none" stroke="#63b8ff" d="M708.19,-113.17C701.87,-99.13 688.52,-73.06 670.27,-56.75 654.22,-42.41 632.82,-31.55 614.6,-24.06"/>
<polygon fill="#63b8ff" stroke="#63b8ff" points="616.02,-20.85 605.43,-20.48 613.47,-27.38 616.02,-20.85"/>
</a>
</g>
</g>
<!-- Node21 -->
<g id="Node000021" class="node">
<title>Node21</title>
<g id="a_Node000021"><a xlink:title=" ">
<polygon fill="#e0e0e0" stroke="#999999" points="772.77,-77.5 717.77,-77.5 717.77,-56.75 772.77,-56.75 772.77,-77.5"/>
<text text-anchor="middle" x="745.27" y="-64" font-family="Helvetica,sans-Serif" font-size="10.00">stddef.h</text>
</a>
</g>
</g>
<!-- Node20&#45;&gt;Node21 -->
<g id="edge24_Node000020_Node000021" class="edge">
<title>Node20&#45;&gt;Node21</title>
<g id="a_edge24_Node000020_Node000021"><a xlink:title=" ">
<path fill="none" stroke="#63b8ff" d="M718.17,-113.09C722.44,-106 728.35,-96.19 733.56,-87.54"/>
<polygon fill="#63b8ff" stroke="#63b8ff" points="736.47,-89.5 738.64,-79.12 730.48,-85.88 736.47,-89.5"/>
</a>
</g>
</g>
</g>
</svg>
