<?xml version="1.0" encoding="UTF-8" standalone="no"?>
<!DOCTYPE svg PUBLIC "-//W3C//DTD SVG 1.1//EN"
 "http://www.w3.org/Graphics/SVG/1.1/DTD/svg11.dtd">
<!-- Generated by graphviz version 12.1.1 (0)
 -->
<!-- Title: sys/include/net/gnrc/sixlowpan/nd.h Pages: 1 -->
<svg width="1330pt" height="395pt"
 viewBox="0.00 0.00 1329.73 394.75" xmlns="http://www.w3.org/2000/svg" xmlns:xlink="http://www.w3.org/1999/xlink">
<g id="graph0" class="graph" transform="scale(1 1) rotate(0) translate(4 390.75)">
<title>sys/include/net/gnrc/sixlowpan/nd.h</title>
<!-- Node1 -->
<g id="Node000001" class="node">
<title>Node1</title>
<g id="a_Node000001"><a xlink:title="General 6LoWPAN ND definitions.">
<polygon fill="#999999" stroke="#666666" points="1004.48,-386.75 890.98,-386.75 890.98,-353.25 1004.48,-353.25 1004.48,-386.75"/>
<text text-anchor="start" x="898.98" y="-373.25" font-family="Helvetica,sans-Serif" font-size="10.00">sys/include/net/gnrc</text>
<text text-anchor="middle" x="947.73" y="-360.5" font-family="Helvetica,sans-Serif" font-size="10.00">/sixlowpan/nd.h</text>
</a>
</g>
</g>
<!-- Node2 -->
<g id="Node000002" class="node">
<title>Node2</title>
<g id="a_Node000002"><a xlink:title=" ">
<polygon fill="#e0e0e0" stroke="#999999" points="946.11,-20.75 893.36,-20.75 893.36,0 946.11,0 946.11,-20.75"/>
<text text-anchor="middle" x="919.73" y="-7.25" font-family="Helvetica,sans-Serif" font-size="10.00">stdint.h</text>
</a>
</g>
</g>
<!-- Node1&#45;&gt;Node2 -->
<g id="edge1_Node000001_Node000002" class="edge">
<title>Node1&#45;&gt;Node2</title>
<g id="a_edge1_Node000001_Node000002"><a xlink:title=" ">
<path fill="none" stroke="#63b8ff" d="M1004.71,-366.03C1061.63,-361.3 1150.53,-349.04 1220.73,-317.25 1272.62,-293.76 1321.73,-295.33 1321.73,-238.38 1321.73,-238.38 1321.73,-238.38 1321.73,-122.88 1321.73,-79.1 1288.4,-75.26 1248.73,-56.75 1197.71,-32.94 1033.05,-19.05 957.84,-13.8"/>
<polygon fill="#63b8ff" stroke="#63b8ff" points="958.29,-10.33 948.08,-13.14 957.82,-17.31 958.29,-10.33"/>
</a>
</g>
</g>
<!-- Node3 -->
<g id="Node000003" class="node">
<title>Node3</title>
<g id="a_Node000003"><a xlink:href="net_2gnrc_2pkt_8h.html" target="_top" xlink:title="General definitions for network packets and their helper functions.">
<polygon fill="white" stroke="#666666" points="566.48,-310.88 482.98,-310.88 482.98,-290.12 566.48,-290.12 566.48,-310.88"/>
<text text-anchor="middle" x="524.73" y="-297.38" font-family="Helvetica,sans-Serif" font-size="10.00">net/gnrc/pkt.h</text>
</a>
</g>
</g>
<!-- Node1&#45;&gt;Node3 -->
<g id="edge2_Node000001_Node000003" class="edge">
<title>Node1&#45;&gt;Node3</title>
<g id="a_edge2_Node000001_Node000003"><a xlink:title=" ">
<path fill="none" stroke="#63b8ff" d="M890.68,-359.9C808.58,-346.79 658.19,-322.8 578.15,-310.02"/>
<polygon fill="#63b8ff" stroke="#63b8ff" points="578.79,-306.58 568.36,-308.46 577.68,-313.49 578.79,-306.58"/>
</a>
</g>
</g>
<!-- Node21 -->
<g id="Node000021" class="node">
<title>Node21</title>
<g id="a_Node000021"><a xlink:href="sys_2include_2net_2gnrc_2sixlowpan_2config_8h.html" target="_top" xlink:title="Configuration macros for 6LoWPAN.">
<polygon fill="white" stroke="#666666" points="426.86,-317.25 318.61,-317.25 318.61,-283.75 426.86,-283.75 426.86,-317.25"/>
<text text-anchor="start" x="326.61" y="-303.75" font-family="Helvetica,sans-Serif" font-size="10.00">net/gnrc/sixlowpan</text>
<text text-anchor="middle" x="372.73" y="-291" font-family="Helvetica,sans-Serif" font-size="10.00">/config.h</text>
</a>
</g>
</g>
<!-- Node1&#45;&gt;Node21 -->
<g id="edge30_Node000001_Node000021" class="edge">
<title>Node1&#45;&gt;Node21</title>
<g id="a_edge30_Node000001_Node000021"><a xlink:title=" ">
<path fill="none" stroke="#63b8ff" d="M890.77,-365.53C796.63,-359.28 602.86,-344.19 440.73,-317.25 439.9,-317.11 439.07,-316.97 438.23,-316.82"/>
<polygon fill="#63b8ff" stroke="#63b8ff" points="439.13,-313.43 428.66,-315.02 437.84,-320.31 439.13,-313.43"/>
</a>
</g>
</g>
<!-- Node22 -->
<g id="Node000022" class="node">
<title>Node22</title>
<g id="a_Node000022"><a xlink:href="timex_8h.html" target="_top" xlink:title="Utility library for comparing and computing timestamps.">
<polygon fill="white" stroke="#666666" points="412.48,-247.75 358.98,-247.75 358.98,-227 412.48,-227 412.48,-247.75"/>
<text text-anchor="middle" x="385.73" y="-234.25" font-family="Helvetica,sans-Serif" font-size="10.00">timex.h</text>
</a>
</g>
</g>
<!-- Node1&#45;&gt;Node22 -->
<g id="edge62_Node000001_Node000022" class="edge">
<title>Node1&#45;&gt;Node22</title>
<g id="a_edge62_Node000001_Node000022"><a xlink:title=" ">
<path fill="none" stroke="#63b8ff" d="M890.69,-367.12C781.46,-362.82 547.06,-349.97 473.73,-317.25 471.66,-316.32 430.27,-278.87 405.01,-255.92"/>
<polygon fill="#63b8ff" stroke="#63b8ff" points="407.4,-253.37 397.65,-249.23 402.69,-258.54 407.4,-253.37"/>
</a>
</g>
</g>
<!-- Node24 -->
<g id="Node000024" class="node">
<title>Node24</title>
<g id="a_Node000024"><a xlink:href="ipv6_2addr_8h.html" target="_top" xlink:title="Definitions for IPv6 addresses.">
<polygon fill="white" stroke="#666666" points="1051.48,-247.75 961.98,-247.75 961.98,-227 1051.48,-227 1051.48,-247.75"/>
<text text-anchor="middle" x="1006.73" y="-234.25" font-family="Helvetica,sans-Serif" font-size="10.00">net/ipv6/addr.h</text>
</a>
</g>
</g>
<!-- Node1&#45;&gt;Node24 -->
<g id="edge36_Node000001_Node000024" class="edge">
<title>Node1&#45;&gt;Node24</title>
<g id="a_edge36_Node000001_Node000024"><a xlink:title=" ">
<path fill="none" stroke="#63b8ff" d="M963.02,-352.95C971.45,-343.29 981.45,-330.36 987.73,-317.25 996.66,-298.63 1001.6,-275.46 1004.18,-259.07"/>
<polygon fill="#63b8ff" stroke="#63b8ff" points="1007.59,-259.93 1005.52,-249.54 1000.66,-258.95 1007.59,-259.93"/>
</a>
</g>
</g>
<!-- Node30 -->
<g id="Node000030" class="node">
<title>Node30</title>
<g id="a_Node000030"><a xlink:href="ndp_8h.html" target="_top" xlink:title="IPv6 neighbor discovery message type definitions.">
<polygon fill="white" stroke="#666666" points="978.61,-310.88 916.86,-310.88 916.86,-290.12 978.61,-290.12 978.61,-310.88"/>
<text text-anchor="middle" x="947.73" y="-297.38" font-family="Helvetica,sans-Serif" font-size="10.00">net/ndp.h</text>
</a>
</g>
</g>
<!-- Node1&#45;&gt;Node30 -->
<g id="edge51_Node000001_Node000030" class="edge">
<title>Node1&#45;&gt;Node30</title>
<g id="a_edge51_Node000001_Node000030"><a xlink:title=" ">
<path fill="none" stroke="#63b8ff" d="M947.73,-353C947.73,-343.9 947.73,-332.39 947.73,-322.57"/>
<polygon fill="#63b8ff" stroke="#63b8ff" points="951.23,-322.84 947.73,-312.84 944.23,-322.84 951.23,-322.84"/>
</a>
</g>
</g>
<!-- Node31 -->
<g id="Node000031" class="node">
<title>Node31</title>
<g id="a_Node000031"><a xlink:href="sixlowpan_2nd_8h.html" target="_top" xlink:title="Message type and helper function definitions for 6LoWPAN&#45;ND.">
<polygon fill="white" stroke="#666666" points="1211.86,-310.88 1103.61,-310.88 1103.61,-290.12 1211.86,-290.12 1211.86,-310.88"/>
<text text-anchor="middle" x="1157.73" y="-297.38" font-family="Helvetica,sans-Serif" font-size="10.00">net/sixlowpan/nd.h</text>
</a>
</g>
</g>
<!-- Node1&#45;&gt;Node31 -->
<g id="edge55_Node000001_Node000031" class="edge">
<title>Node1&#45;&gt;Node31</title>
<g id="a_edge55_Node000001_Node000031"><a xlink:title=" ">
<path fill="none" stroke="#63b8ff" d="M998.03,-352.83C1034.12,-341.23 1082.16,-325.79 1116.09,-314.88"/>
<polygon fill="#63b8ff" stroke="#63b8ff" points="1117.14,-318.22 1125.58,-311.83 1114.99,-311.56 1117.14,-318.22"/>
</a>
</g>
</g>
<!-- Node4 -->
<g id="Node000004" class="node">
<title>Node4</title>
<g id="a_Node000004"><a xlink:href="inttypes_8h.html" target="_top" xlink:title="Adds include for missing inttype definitions.">
<polygon fill="white" stroke="#666666" points="507.11,-191 442.36,-191 442.36,-170.25 507.11,-170.25 507.11,-191"/>
<text text-anchor="middle" x="474.73" y="-177.5" font-family="Helvetica,sans-Serif" font-size="10.00">inttypes.h</text>
</a>
</g>
</g>
<!-- Node3&#45;&gt;Node4 -->
<g id="edge3_Node000003_Node000004" class="edge">
<title>Node3&#45;&gt;Node4</title>
<g id="a_edge3_Node000003_Node000004"><a xlink:title=" ">
<path fill="none" stroke="#63b8ff" d="M523.27,-289.76C520.89,-275.5 515.45,-248.31 505.73,-227 501.5,-217.72 495.4,-208.28 489.73,-200.43"/>
<polygon fill="#63b8ff" stroke="#63b8ff" points="492.68,-198.54 483.86,-192.68 487.1,-202.77 492.68,-198.54"/>
</a>
</g>
</g>
<!-- Node5 -->
<g id="Node000005" class="node">
<title>Node5</title>
<g id="a_Node000005"><a xlink:title=" ">
<polygon fill="#e0e0e0" stroke="#999999" points="496.73,-247.75 444.73,-247.75 444.73,-227 496.73,-227 496.73,-247.75"/>
<text text-anchor="middle" x="470.73" y="-234.25" font-family="Helvetica,sans-Serif" font-size="10.00">stdlib.h</text>
</a>
</g>
</g>
<!-- Node3&#45;&gt;Node5 -->
<g id="edge4_Node000003_Node000005" class="edge">
<title>Node3&#45;&gt;Node5</title>
<g id="a_edge4_Node000003_Node000005"><a xlink:title=" ">
<path fill="none" stroke="#63b8ff" d="M516.05,-289.68C508.14,-280.72 496.23,-267.24 486.61,-256.35"/>
<polygon fill="#63b8ff" stroke="#63b8ff" points="489.45,-254.28 480.21,-249.1 484.21,-258.92 489.45,-254.28"/>
</a>
</g>
</g>
<!-- Node6 -->
<g id="Node000006" class="node">
<title>Node6</title>
<g id="a_Node000006"><a xlink:href="sched_8h.html" target="_top" xlink:title="Scheduler API definition.">
<polygon fill="white" stroke="#666666" points="652.48,-247.75 598.98,-247.75 598.98,-227 652.48,-227 652.48,-247.75"/>
<text text-anchor="middle" x="625.73" y="-234.25" font-family="Helvetica,sans-Serif" font-size="10.00">sched.h</text>
</a>
</g>
</g>
<!-- Node3&#45;&gt;Node6 -->
<g id="edge5_Node000003_Node000006" class="edge">
<title>Node3&#45;&gt;Node6</title>
<g id="a_edge5_Node000003_Node000006"><a xlink:title=" ">
<path fill="none" stroke="#63b8ff" d="M540.96,-289.68C556.86,-280.05 581.35,-265.23 599.92,-253.99"/>
<polygon fill="#63b8ff" stroke="#63b8ff" points="601.51,-257.13 608.25,-248.96 597.88,-251.14 601.51,-257.13"/>
</a>
</g>
</g>
<!-- Node17 -->
<g id="Node000017" class="node">
<title>Node17</title>
<g id="a_Node000017"><a xlink:href="list_8h.html" target="_top" xlink:title="Intrusive linked list.">
<polygon fill="white" stroke="#666666" points="744.73,-134.25 704.73,-134.25 704.73,-113.5 744.73,-113.5 744.73,-134.25"/>
<text text-anchor="middle" x="724.73" y="-120.75" font-family="Helvetica,sans-Serif" font-size="10.00">list.h</text>
</a>
</g>
</g>
<!-- Node3&#45;&gt;Node17 -->
<g id="edge29_Node000003_Node000017" class="edge">
<title>Node3&#45;&gt;Node17</title>
<g id="a_edge29_Node000003_Node000017"><a xlink:title=" ">
<path fill="none" stroke="#63b8ff" d="M482.64,-291.96C467.82,-289.33 451.04,-286.38 435.73,-283.75 259.49,-253.47 -73.14,-300.16 49.73,-170.25 97.2,-120.06 584.7,-145.24 693.03,-133.78"/>
<polygon fill="#63b8ff" stroke="#63b8ff" points="693.39,-137.27 702.81,-132.41 692.42,-130.34 693.39,-137.27"/>
</a>
</g>
</g>
<!-- Node18 -->
<g id="Node000018" class="node">
<title>Node18</title>
<g id="a_Node000018"><a xlink:href="nettype_8h.html" target="_top" xlink:title="Protocol type definitions.">
<polygon fill="white" stroke="#666666" points="334.36,-247.75 229.11,-247.75 229.11,-227 334.36,-227 334.36,-247.75"/>
<text text-anchor="middle" x="281.73" y="-234.25" font-family="Helvetica,sans-Serif" font-size="10.00">net/gnrc/nettype.h</text>
</a>
</g>
</g>
<!-- Node3&#45;&gt;Node18 -->
<g id="edge24_Node000003_Node000018" class="edge">
<title>Node3&#45;&gt;Node18</title>
<g id="a_edge24_Node000003_Node000018"><a xlink:title=" ">
<path fill="none" stroke="#63b8ff" d="M485.69,-289.68C443.88,-279.16 377.42,-262.45 331.8,-250.97"/>
<polygon fill="#63b8ff" stroke="#63b8ff" points="332.7,-247.59 322.14,-248.54 330.99,-254.37 332.7,-247.59"/>
</a>
</g>
</g>
<!-- Node6&#45;&gt;Node4 -->
<g id="edge7_Node000006_Node000004" class="edge">
<title>Node6&#45;&gt;Node4</title>
<g id="a_edge7_Node000006_Node000004"><a xlink:title=" ">
<path fill="none" stroke="#63b8ff" d="M598.73,-226.59C574.65,-217.86 539.15,-204.98 512.3,-195.25"/>
<polygon fill="#63b8ff" stroke="#63b8ff" points="513.76,-192.05 503.17,-191.94 511.38,-198.64 513.76,-192.05"/>
</a>
</g>
</g>
<!-- Node7 -->
<g id="Node000007" class="node">
<title>Node7</title>
<g id="a_Node000007"><a xlink:title=" ">
<polygon fill="#e0e0e0" stroke="#999999" points="815.23,-77.5 760.23,-77.5 760.23,-56.75 815.23,-56.75 815.23,-77.5"/>
<text text-anchor="middle" x="787.73" y="-64" font-family="Helvetica,sans-Serif" font-size="10.00">stddef.h</text>
</a>
</g>
</g>
<!-- Node6&#45;&gt;Node7 -->
<g id="edge6_Node000006_Node000007" class="edge">
<title>Node6&#45;&gt;Node7</title>
<g id="a_edge6_Node000006_Node000007"><a xlink:title=" ">
<path fill="none" stroke="#63b8ff" d="M652.84,-231.81C678.1,-226.24 715.29,-214.5 738.73,-191 767.02,-162.65 779.5,-115.91 784.59,-88.98"/>
<polygon fill="#63b8ff" stroke="#63b8ff" points="788.01,-89.77 786.23,-79.33 781.1,-88.6 788.01,-89.77"/>
</a>
</g>
</g>
<!-- Node8 -->
<g id="Node000008" class="node">
<title>Node8</title>
<g id="a_Node000008"><a xlink:href="kernel__defines_8h.html" target="_top" xlink:title="Common macros and compiler attributes/pragmas configuration.">
<polygon fill="white" stroke="#666666" points="621.86,-191 525.61,-191 525.61,-170.25 621.86,-170.25 621.86,-191"/>
<text text-anchor="middle" x="573.73" y="-177.5" font-family="Helvetica,sans-Serif" font-size="10.00">kernel_defines.h</text>
</a>
</g>
</g>
<!-- Node6&#45;&gt;Node8 -->
<g id="edge8_Node000006_Node000008" class="edge">
<title>Node6&#45;&gt;Node8</title>
<g id="a_edge8_Node000006_Node000008"><a xlink:title=" ">
<path fill="none" stroke="#63b8ff" d="M616.43,-226.59C609.34,-219.11 599.36,-208.61 590.83,-199.63"/>
<polygon fill="#63b8ff" stroke="#63b8ff" points="593.41,-197.27 583.99,-192.43 588.34,-202.09 593.41,-197.27"/>
</a>
</g>
</g>
<!-- Node14 -->
<g id="Node000014" class="node">
<title>Node14</title>
<g id="a_Node000014"><a xlink:href="native__sched_8h.html" target="_top" xlink:title="Add definitions required on the native board.">
<polygon fill="white" stroke="#666666" points="729.48,-191 639.98,-191 639.98,-170.25 729.48,-170.25 729.48,-191"/>
<text text-anchor="middle" x="684.73" y="-177.5" font-family="Helvetica,sans-Serif" font-size="10.00">native_sched.h</text>
</a>
</g>
</g>
<!-- Node6&#45;&gt;Node14 -->
<g id="edge19_Node000006_Node000014" class="edge">
<title>Node6&#45;&gt;Node14</title>
<g id="a_edge19_Node000006_Node000014"><a xlink:title=" ">
<path fill="none" stroke="#63b8ff" d="M636.28,-226.59C644.5,-218.96 656.13,-208.17 665.93,-199.07"/>
<polygon fill="#63b8ff" stroke="#63b8ff" points="668.22,-201.73 673.16,-192.36 663.45,-196.59 668.22,-201.73"/>
</a>
</g>
</g>
<!-- Node15 -->
<g id="Node000015" class="node">
<title>Node15</title>
<g id="a_Node000015"><a xlink:href="clist_8h.html" target="_top" xlink:title="Circular linked list.">
<polygon fill="white" stroke="#666666" points="831.36,-191 786.11,-191 786.11,-170.25 831.36,-170.25 831.36,-191"/>
<text text-anchor="middle" x="808.73" y="-177.5" font-family="Helvetica,sans-Serif" font-size="10.00">clist.h</text>
</a>
</g>
</g>
<!-- Node6&#45;&gt;Node15 -->
<g id="edge20_Node000006_Node000015" class="edge">
<title>Node6&#45;&gt;Node15</title>
<g id="a_edge20_Node000006_Node000015"><a xlink:title=" ">
<path fill="none" stroke="#63b8ff" d="M652.73,-228.3C685.21,-218.58 739.74,-202.27 774.97,-191.73"/>
<polygon fill="#63b8ff" stroke="#63b8ff" points="775.65,-195.18 784.23,-188.96 773.64,-188.47 775.65,-195.18"/>
</a>
</g>
</g>
<!-- Node9 -->
<g id="Node000009" class="node">
<title>Node9</title>
<g id="a_Node000009"><a xlink:href="modules_8h.html" target="_top" xlink:title="Common macros and compiler attributes/pragmas configuration.">
<polygon fill="white" stroke="#666666" points="291.23,-134.25 224.23,-134.25 224.23,-113.5 291.23,-113.5 291.23,-134.25"/>
<text text-anchor="middle" x="257.73" y="-120.75" font-family="Helvetica,sans-Serif" font-size="10.00">modules.h</text>
</a>
</g>
</g>
<!-- Node8&#45;&gt;Node9 -->
<g id="edge9_Node000008_Node000009" class="edge">
<title>Node8&#45;&gt;Node9</title>
<g id="a_edge9_Node000008_Node000009"><a xlink:title=" ">
<path fill="none" stroke="#63b8ff" d="M525.39,-171.25C464.77,-160.75 361.65,-142.88 302.67,-132.66"/>
<polygon fill="#63b8ff" stroke="#63b8ff" points="303.43,-129.24 292.98,-130.98 302.24,-136.14 303.43,-129.24"/>
</a>
</g>
</g>
<!-- Node10 -->
<g id="Node000010" class="node">
<title>Node10</title>
<g id="a_Node000010"><a xlink:href="riot__version_8h.html" target="_top" xlink:title="Common macros and compiler attributes/pragmas configuration.">
<polygon fill="white" stroke="#666666" points="517.11,-77.5 434.36,-77.5 434.36,-56.75 517.11,-56.75 517.11,-77.5"/>
<text text-anchor="middle" x="475.73" y="-64" font-family="Helvetica,sans-Serif" font-size="10.00">riot_version.h</text>
</a>
</g>
</g>
<!-- Node8&#45;&gt;Node10 -->
<g id="edge10_Node000008_Node000010" class="edge">
<title>Node8&#45;&gt;Node10</title>
<g id="a_edge10_Node000008_Node000010"><a xlink:title=" ">
<path fill="none" stroke="#63b8ff" d="M543.41,-169.86C525.82,-162.68 504.65,-151.2 491.73,-134.25 481.86,-121.31 477.98,-103.13 476.5,-89.12"/>
<polygon fill="#63b8ff" stroke="#63b8ff" points="480,-88.92 475.82,-79.19 473.01,-89.4 480,-88.92"/>
</a>
</g>
</g>
<!-- Node11 -->
<g id="Node000011" class="node">
<title>Node11</title>
<g id="a_Node000011"><a xlink:href="compiler__hints_8h.html" target="_top" xlink:title="Common macros and compiler attributes/pragmas configuration.">
<polygon fill="white" stroke="#666666" points="598.23,-134.25 501.23,-134.25 501.23,-113.5 598.23,-113.5 598.23,-134.25"/>
<text text-anchor="middle" x="549.73" y="-120.75" font-family="Helvetica,sans-Serif" font-size="10.00">compiler_hints.h</text>
</a>
</g>
</g>
<!-- Node8&#45;&gt;Node11 -->
<g id="edge12_Node000008_Node000011" class="edge">
<title>Node8&#45;&gt;Node11</title>
<g id="a_edge12_Node000008_Node000011"><a xlink:title=" ">
<path fill="none" stroke="#63b8ff" d="M569.44,-169.84C566.4,-162.91 562.22,-153.37 558.49,-144.86"/>
<polygon fill="#63b8ff" stroke="#63b8ff" points="561.81,-143.72 554.59,-135.96 555.4,-146.53 561.81,-143.72"/>
</a>
</g>
</g>
<!-- Node13 -->
<g id="Node000013" class="node">
<title>Node13</title>
<g id="a_Node000013"><a xlink:href="container_8h.html" target="_top" xlink:title="Common macros and compiler attributes/pragmas configuration.">
<polygon fill="white" stroke="#666666" points="687.11,-134.25 616.36,-134.25 616.36,-113.5 687.11,-113.5 687.11,-134.25"/>
<text text-anchor="middle" x="651.73" y="-120.75" font-family="Helvetica,sans-Serif" font-size="10.00">container.h</text>
</a>
</g>
</g>
<!-- Node8&#45;&gt;Node13 -->
<g id="edge16_Node000008_Node000013" class="edge">
<title>Node8&#45;&gt;Node13</title>
<g id="a_edge16_Node000008_Node000013"><a xlink:title=" ">
<path fill="none" stroke="#63b8ff" d="M587.68,-169.84C599.1,-161.82 615.5,-150.31 628.84,-140.94"/>
<polygon fill="#63b8ff" stroke="#63b8ff" points="630.49,-144.06 636.67,-135.45 626.47,-138.33 630.49,-144.06"/>
</a>
</g>
</g>
<!-- Node10&#45;&gt;Node2 -->
<g id="edge11_Node000010_Node000002" class="edge">
<title>Node10&#45;&gt;Node2</title>
<g id="a_edge11_Node000010_Node000002"><a xlink:title=" ">
<path fill="none" stroke="#63b8ff" d="M517.5,-60.97C603.4,-50.38 798.74,-26.29 881.52,-16.09"/>
<polygon fill="#63b8ff" stroke="#63b8ff" points="881.89,-19.57 891.39,-14.87 881.04,-12.62 881.89,-19.57"/>
</a>
</g>
</g>
<!-- Node11&#45;&gt;Node2 -->
<g id="edge15_Node000011_Node000002" class="edge">
<title>Node11&#45;&gt;Node2</title>
<g id="a_edge15_Node000011_Node000002"><a xlink:title=" ">
<path fill="none" stroke="#63b8ff" d="M570.01,-113.11C599.96,-99.01 658.08,-72.86 709.73,-56.75 768.8,-38.32 839.51,-24.72 881.96,-17.43"/>
<polygon fill="#63b8ff" stroke="#63b8ff" points="882.38,-20.91 891.65,-15.8 881.21,-14.01 882.38,-20.91"/>
</a>
</g>
</g>
<!-- Node12 -->
<g id="Node000012" class="node">
<title>Node12</title>
<g id="a_Node000012"><a xlink:href="assert_8h.html" target="_top" xlink:title="POSIX.1&#45;2008 compliant version of the assert macro.">
<polygon fill="white" stroke="#666666" points="631.23,-77.5 576.23,-77.5 576.23,-56.75 631.23,-56.75 631.23,-77.5"/>
<text text-anchor="middle" x="603.73" y="-64" font-family="Helvetica,sans-Serif" font-size="10.00">assert.h</text>
</a>
</g>
</g>
<!-- Node11&#45;&gt;Node12 -->
<g id="edge13_Node000011_Node000012" class="edge">
<title>Node11&#45;&gt;Node12</title>
<g id="a_edge13_Node000011_Node000012"><a xlink:title=" ">
<path fill="none" stroke="#63b8ff" d="M559.38,-113.09C566.83,-105.53 577.34,-94.89 586.25,-85.85"/>
<polygon fill="#63b8ff" stroke="#63b8ff" points="588.57,-88.48 593.1,-78.91 583.58,-83.57 588.57,-88.48"/>
</a>
</g>
</g>
<!-- Node12&#45;&gt;Node2 -->
<g id="edge14_Node000012_Node000002" class="edge">
<title>Node12&#45;&gt;Node2</title>
<g id="a_edge14_Node000012_Node000002"><a xlink:title=" ">
<path fill="none" stroke="#63b8ff" d="M631.5,-61.31C688.21,-51.49 817.41,-29.1 881.8,-17.95"/>
<polygon fill="#63b8ff" stroke="#63b8ff" points="882.29,-21.41 891.54,-16.26 881.09,-14.52 882.29,-21.41"/>
</a>
</g>
</g>
<!-- Node13&#45;&gt;Node2 -->
<g id="edge18_Node000013_Node000002" class="edge">
<title>Node13&#45;&gt;Node2</title>
<g id="a_edge18_Node000013_Node000002"><a xlink:title=" ">
<path fill="none" stroke="#63b8ff" d="M663.61,-113.16C681.62,-98.89 717.39,-72.25 751.73,-56.75 794.41,-37.49 846.98,-24.92 881.83,-18"/>
<polygon fill="#63b8ff" stroke="#63b8ff" points="882.28,-21.47 891.44,-16.15 880.96,-14.6 882.28,-21.47"/>
</a>
</g>
</g>
<!-- Node13&#45;&gt;Node7 -->
<g id="edge17_Node000013_Node000007" class="edge">
<title>Node13&#45;&gt;Node7</title>
<g id="a_edge17_Node000013_Node000007"><a xlink:title=" ">
<path fill="none" stroke="#63b8ff" d="M676.04,-113.09C697.51,-104.44 729.05,-91.75 753.14,-82.05"/>
<polygon fill="#63b8ff" stroke="#63b8ff" points="754.25,-85.38 762.22,-78.39 751.64,-78.88 754.25,-85.38"/>
</a>
</g>
</g>
<!-- Node15&#45;&gt;Node7 -->
<g id="edge22_Node000015_Node000007" class="edge">
<title>Node15&#45;&gt;Node7</title>
<g id="a_edge22_Node000015_Node000007"><a xlink:title=" ">
<path fill="none" stroke="#63b8ff" d="M806.94,-170.12C803.58,-152.27 796.25,-113.36 791.68,-89.09"/>
<polygon fill="#63b8ff" stroke="#63b8ff" points="795.15,-88.59 789.86,-79.41 788.27,-89.89 795.15,-88.59"/>
</a>
</g>
</g>
<!-- Node16 -->
<g id="Node000016" class="node">
<title>Node16</title>
<g id="a_Node000016"><a xlink:title=" ">
<polygon fill="#e0e0e0" stroke="#999999" points="938.23,-134.25 877.23,-134.25 877.23,-113.5 938.23,-113.5 938.23,-134.25"/>
<text text-anchor="middle" x="907.73" y="-120.75" font-family="Helvetica,sans-Serif" font-size="10.00">stdbool.h</text>
</a>
</g>
</g>
<!-- Node15&#45;&gt;Node16 -->
<g id="edge21_Node000015_Node000016" class="edge">
<title>Node15&#45;&gt;Node16</title>
<g id="a_edge21_Node000015_Node000016"><a xlink:title=" ">
<path fill="none" stroke="#63b8ff" d="M826.43,-169.84C841.35,-161.58 862.96,-149.63 880.15,-140.13"/>
<polygon fill="#63b8ff" stroke="#63b8ff" points="881.8,-143.21 888.86,-135.31 878.42,-137.09 881.8,-143.21"/>
</a>
</g>
</g>
<!-- Node15&#45;&gt;Node17 -->
<g id="edge23_Node000015_Node000017" class="edge">
<title>Node15&#45;&gt;Node17</title>
<g id="a_edge23_Node000015_Node000017"><a xlink:title=" ">
<path fill="none" stroke="#63b8ff" d="M793.71,-169.84C781.29,-161.74 763.41,-150.08 748.96,-140.67"/>
<polygon fill="#63b8ff" stroke="#63b8ff" points="751.17,-137.93 740.89,-135.4 747.35,-143.8 751.17,-137.93"/>
</a>
</g>
</g>
<!-- Node18&#45;&gt;Node4 -->
<g id="edge25_Node000018_Node000004" class="edge">
<title>Node18&#45;&gt;Node4</title>
<g id="a_edge25_Node000018_Node000004"><a xlink:title=" ">
<path fill="none" stroke="#63b8ff" d="M316.24,-226.59C348.42,-217.46 396.57,-203.8 431.35,-193.93"/>
<polygon fill="#63b8ff" stroke="#63b8ff" points="432.01,-197.38 440.68,-191.29 430.1,-190.65 432.01,-197.38"/>
</a>
</g>
</g>
<!-- Node18&#45;&gt;Node9 -->
<g id="edge26_Node000018_Node000009" class="edge">
<title>Node18&#45;&gt;Node9</title>
<g id="a_edge26_Node000018_Node000009"><a xlink:title=" ">
<path fill="none" stroke="#63b8ff" d="M279.68,-226.87C275.84,-209.02 267.47,-170.11 262.24,-145.84"/>
<polygon fill="#63b8ff" stroke="#63b8ff" points="265.68,-145.19 260.16,-136.15 258.84,-146.67 265.68,-145.19"/>
</a>
</g>
</g>
<!-- Node19 -->
<g id="Node000019" class="node">
<title>Node19</title>
<g id="a_Node000019"><a xlink:href="ethertype_8h.html" target="_top" xlink:title="Ether type definitions.">
<polygon fill="white" stroke="#666666" points="253.23,-191 162.23,-191 162.23,-170.25 253.23,-170.25 253.23,-191"/>
<text text-anchor="middle" x="207.73" y="-177.5" font-family="Helvetica,sans-Serif" font-size="10.00">net/ethertype.h</text>
</a>
</g>
</g>
<!-- Node18&#45;&gt;Node19 -->
<g id="edge27_Node000018_Node000019" class="edge">
<title>Node18&#45;&gt;Node19</title>
<g id="a_edge27_Node000018_Node000019"><a xlink:title=" ">
<path fill="none" stroke="#63b8ff" d="M268.5,-226.59C257.77,-218.65 242.41,-207.28 229.81,-197.96"/>
<polygon fill="#63b8ff" stroke="#63b8ff" points="232.18,-195.36 222.06,-192.23 228.02,-200.99 232.18,-195.36"/>
</a>
</g>
</g>
<!-- Node20 -->
<g id="Node000020" class="node">
<title>Node20</title>
<g id="a_Node000020"><a xlink:href="protnum_8h.html" target="_top" xlink:title="Protocol number definitions.">
<polygon fill="white" stroke="#666666" points="144.23,-191 59.23,-191 59.23,-170.25 144.23,-170.25 144.23,-191"/>
<text text-anchor="middle" x="101.73" y="-177.5" font-family="Helvetica,sans-Serif" font-size="10.00">net/protnum.h</text>
</a>
</g>
</g>
<!-- Node18&#45;&gt;Node20 -->
<g id="edge28_Node000018_Node000020" class="edge">
<title>Node18&#45;&gt;Node20</title>
<g id="a_edge28_Node000018_Node000020"><a xlink:title=" ">
<path fill="none" stroke="#63b8ff" d="M249.55,-226.59C220.33,-217.7 177.02,-204.52 144.82,-194.73"/>
<polygon fill="#63b8ff" stroke="#63b8ff" points="145.97,-191.42 135.38,-191.86 143.93,-198.12 145.97,-191.42"/>
</a>
</g>
</g>
<!-- Node21&#45;&gt;Node9 -->
<g id="edge31_Node000021_Node000009" class="edge">
<title>Node21&#45;&gt;Node9</title>
<g id="a_edge31_Node000021_Node000009"><a xlink:title=" ">
<path fill="none" stroke="#63b8ff" d="M318.13,-299.88C228.21,-299.21 55.04,-292.03 16.73,-247.75 -5.81,-221.7 -5.26,-196.76 16.73,-170.25 41.16,-140.79 150.17,-130.33 212.89,-126.71"/>
<polygon fill="#63b8ff" stroke="#63b8ff" points="212.72,-130.22 222.52,-126.19 212.34,-123.23 212.72,-130.22"/>
</a>
</g>
</g>
<!-- Node21&#45;&gt;Node22 -->
<g id="edge32_Node000021_Node000022" class="edge">
<title>Node21&#45;&gt;Node22</title>
<g id="a_edge32_Node000021_Node000022"><a xlink:title=" ">
<path fill="none" stroke="#63b8ff" d="M376.15,-283.44C377.71,-276.1 379.57,-267.32 381.25,-259.46"/>
<polygon fill="#63b8ff" stroke="#63b8ff" points="384.67,-260.21 383.32,-249.7 377.82,-258.75 384.67,-260.21"/>
</a>
</g>
</g>
<!-- Node22&#45;&gt;Node2 -->
<g id="edge33_Node000022_Node000002" class="edge">
<title>Node22&#45;&gt;Node2</title>
<g id="a_edge33_Node000022_Node000002"><a xlink:title=" ">
<path fill="none" stroke="#63b8ff" d="M370.28,-226.55C359.19,-218.51 345.11,-206.03 338.73,-191 335.13,-182.51 335.77,-178.98 338.73,-170.25 359.15,-110.06 370.08,-87.46 425.73,-56.75 503.98,-13.58 780.01,-10.58 881.73,-11"/>
<polygon fill="#63b8ff" stroke="#63b8ff" points="881.44,-14.49 891.45,-11.05 881.47,-7.49 881.44,-14.49"/>
</a>
</g>
</g>
<!-- Node22&#45;&gt;Node4 -->
<g id="edge34_Node000022_Node000004" class="edge">
<title>Node22&#45;&gt;Node4</title>
<g id="a_edge34_Node000022_Node000004"><a xlink:title=" ">
<path fill="none" stroke="#63b8ff" d="M401.64,-226.59C414.93,-218.41 434.12,-206.61 449.5,-197.15"/>
<polygon fill="#63b8ff" stroke="#63b8ff" points="450.98,-200.34 457.67,-192.12 447.32,-194.38 450.98,-200.34"/>
</a>
</g>
</g>
<!-- Node23 -->
<g id="Node000023" class="node">
<title>Node23</title>
<g id="a_Node000023"><a xlink:href="time__units_8h.html" target="_top" xlink:title="Utility header providing time unit defines.">
<polygon fill="white" stroke="#666666" points="424.11,-191 347.36,-191 347.36,-170.25 424.11,-170.25 424.11,-191"/>
<text text-anchor="middle" x="385.73" y="-177.5" font-family="Helvetica,sans-Serif" font-size="10.00">time_units.h</text>
</a>
</g>
</g>
<!-- Node22&#45;&gt;Node23 -->
<g id="edge35_Node000022_Node000023" class="edge">
<title>Node22&#45;&gt;Node23</title>
<g id="a_edge35_Node000022_Node000023"><a xlink:title=" ">
<path fill="none" stroke="#63b8ff" d="M385.73,-226.59C385.73,-219.97 385.73,-210.97 385.73,-202.77"/>
<polygon fill="#63b8ff" stroke="#63b8ff" points="389.23,-202.84 385.73,-192.84 382.23,-202.84 389.23,-202.84"/>
</a>
</g>
</g>
<!-- Node24&#45;&gt;Node16 -->
<g id="edge37_Node000024_Node000016" class="edge">
<title>Node24&#45;&gt;Node16</title>
<g id="a_edge37_Node000024_Node000016"><a xlink:title=" ">
<path fill="none" stroke="#63b8ff" d="M969.22,-226.55C950.49,-219.68 929.23,-208.52 916.73,-191 907.46,-178 905.56,-159.83 905.79,-145.83"/>
<polygon fill="#63b8ff" stroke="#63b8ff" points="909.28,-146.1 906.35,-135.92 902.29,-145.7 909.28,-146.1"/>
</a>
</g>
</g>
<!-- Node25 -->
<g id="Node000025" class="node">
<title>Node25</title>
<g id="a_Node000025"><a xlink:title=" ">
<polygon fill="#e0e0e0" stroke="#999999" points="1000.11,-77.5 947.36,-77.5 947.36,-56.75 1000.11,-56.75 1000.11,-77.5"/>
<text text-anchor="middle" x="973.73" y="-64" font-family="Helvetica,sans-Serif" font-size="10.00">string.h</text>
</a>
</g>
</g>
<!-- Node24&#45;&gt;Node25 -->
<g id="edge38_Node000024_Node000025" class="edge">
<title>Node24&#45;&gt;Node25</title>
<g id="a_edge38_Node000024_Node000025"><a xlink:title=" ">
<path fill="none" stroke="#63b8ff" d="M1011.86,-226.61C1016.26,-217.64 1022.28,-203.82 1024.73,-191 1028.69,-170.29 1020.65,-117.54 1018.73,-113.5 1013.57,-102.64 1004.72,-92.84 996.22,-85.16"/>
<polygon fill="#63b8ff" stroke="#63b8ff" points="998.73,-82.69 988.83,-78.93 994.22,-88.05 998.73,-82.69"/>
</a>
</g>
</g>
<!-- Node26 -->
<g id="Node000026" class="node">
<title>Node26</title>
<g id="a_Node000026"><a xlink:href="byteorder_8h.html" target="_top" xlink:title="Functions to work with different byte orders.">
<polygon fill="white" stroke="#666666" points="1155.86,-134.25 1083.61,-134.25 1083.61,-113.5 1155.86,-113.5 1155.86,-134.25"/>
<text text-anchor="middle" x="1119.73" y="-120.75" font-family="Helvetica,sans-Serif" font-size="10.00">byteorder.h</text>
</a>
</g>
</g>
<!-- Node24&#45;&gt;Node26 -->
<g id="edge39_Node000024_Node000026" class="edge">
<title>Node24&#45;&gt;Node26</title>
<g id="a_edge39_Node000024_Node000026"><a xlink:title=" ">
<path fill="none" stroke="#63b8ff" d="M1018.34,-226.57C1028.86,-217.57 1044.66,-203.74 1057.73,-191 1073.85,-175.3 1091.31,-156.5 1103.58,-142.97"/>
<polygon fill="#63b8ff" stroke="#63b8ff" points="1106.06,-145.45 1110.15,-135.67 1100.86,-140.76 1106.06,-145.45"/>
</a>
</g>
</g>
<!-- Node29 -->
<g id="Node000029" class="node">
<title>Node29</title>
<g id="a_Node000029"><a xlink:href="ipv4_2addr_8h.html" target="_top" xlink:title="IPv4 address type and helper functions definitions.">
<polygon fill="white" stroke="#666666" points="1015.48,-191 925.98,-191 925.98,-170.25 1015.48,-170.25 1015.48,-191"/>
<text text-anchor="middle" x="970.73" y="-177.5" font-family="Helvetica,sans-Serif" font-size="10.00">net/ipv4/addr.h</text>
</a>
</g>
</g>
<!-- Node24&#45;&gt;Node29 -->
<g id="edge46_Node000024_Node000029" class="edge">
<title>Node24&#45;&gt;Node29</title>
<g id="a_edge46_Node000024_Node000029"><a xlink:title=" ">
<path fill="none" stroke="#63b8ff" d="M1000.29,-226.59C995.58,-219.42 989.04,-209.48 983.31,-200.76"/>
<polygon fill="#63b8ff" stroke="#63b8ff" points="986.36,-199.03 977.94,-192.59 980.51,-202.87 986.36,-199.03"/>
</a>
</g>
</g>
<!-- Node26&#45;&gt;Node2 -->
<g id="edge41_Node000026_Node000002" class="edge">
<title>Node26&#45;&gt;Node2</title>
<g id="a_edge41_Node000026_Node000002"><a xlink:title=" ">
<path fill="none" stroke="#63b8ff" d="M1138.75,-113.09C1161.26,-100.24 1193.68,-76.95 1176.73,-56.75 1149.18,-23.91 1021.95,-14.83 957.44,-12.32"/>
<polygon fill="#63b8ff" stroke="#63b8ff" points="957.8,-8.83 947.68,-11.98 957.55,-15.83 957.8,-8.83"/>
</a>
</g>
</g>
<!-- Node26&#45;&gt;Node25 -->
<g id="edge40_Node000026_Node000025" class="edge">
<title>Node26&#45;&gt;Node25</title>
<g id="a_edge40_Node000026_Node000025"><a xlink:title=" ">
<path fill="none" stroke="#63b8ff" d="M1093.63,-113.09C1070.38,-104.37 1036.11,-91.52 1010.16,-81.79"/>
<polygon fill="#63b8ff" stroke="#63b8ff" points="1011.62,-78.59 1001.02,-78.36 1009.16,-85.15 1011.62,-78.59"/>
</a>
</g>
</g>
<!-- Node27 -->
<g id="Node000027" class="node">
<title>Node27</title>
<g id="a_Node000027"><a xlink:href="endian_8h.html" target="_top" xlink:title="libc header for endian conversion">
<polygon fill="white" stroke="#666666" points="1075.73,-77.5 1017.73,-77.5 1017.73,-56.75 1075.73,-56.75 1075.73,-77.5"/>
<text text-anchor="middle" x="1046.73" y="-64" font-family="Helvetica,sans-Serif" font-size="10.00">endian.h</text>
</a>
</g>
</g>
<!-- Node26&#45;&gt;Node27 -->
<g id="edge42_Node000026_Node000027" class="edge">
<title>Node26&#45;&gt;Node27</title>
<g id="a_edge42_Node000026_Node000027"><a xlink:title=" ">
<path fill="none" stroke="#63b8ff" d="M1106.68,-113.09C1096.09,-105.15 1080.94,-93.78 1068.51,-84.46"/>
<polygon fill="#63b8ff" stroke="#63b8ff" points="1070.98,-81.94 1060.88,-78.74 1066.78,-87.54 1070.98,-81.94"/>
</a>
</g>
</g>
<!-- Node28 -->
<g id="Node000028" class="node">
<title>Node28</title>
<g id="a_Node000028"><a xlink:href="unaligned_8h.html" target="_top" xlink:title="Unaligned but safe memory access functions.">
<polygon fill="white" stroke="#666666" points="1167.23,-77.5 1094.23,-77.5 1094.23,-56.75 1167.23,-56.75 1167.23,-77.5"/>
<text text-anchor="middle" x="1130.73" y="-64" font-family="Helvetica,sans-Serif" font-size="10.00">unaligned.h</text>
</a>
</g>
</g>
<!-- Node26&#45;&gt;Node28 -->
<g id="edge44_Node000026_Node000028" class="edge">
<title>Node26&#45;&gt;Node28</title>
<g id="a_edge44_Node000026_Node000028"><a xlink:title=" ">
<path fill="none" stroke="#63b8ff" d="M1121.7,-113.09C1123.04,-106.39 1124.88,-97.26 1126.54,-88.98"/>
<polygon fill="#63b8ff" stroke="#63b8ff" points="1129.94,-89.81 1128.48,-79.31 1123.08,-88.43 1129.94,-89.81"/>
</a>
</g>
</g>
<!-- Node27&#45;&gt;Node2 -->
<g id="edge43_Node000027_Node000002" class="edge">
<title>Node27&#45;&gt;Node2</title>
<g id="a_edge43_Node000027_Node000002"><a xlink:title=" ">
<path fill="none" stroke="#63b8ff" d="M1024.03,-56.34C1004.16,-47.77 975.06,-35.23 952.64,-25.56"/>
<polygon fill="#63b8ff" stroke="#63b8ff" points="954.2,-22.42 943.63,-21.68 951.43,-28.85 954.2,-22.42"/>
</a>
</g>
</g>
<!-- Node28&#45;&gt;Node2 -->
<g id="edge45_Node000028_Node000002" class="edge">
<title>Node28&#45;&gt;Node2</title>
<g id="a_edge45_Node000028_Node000002"><a xlink:title=" ">
<path fill="none" stroke="#63b8ff" d="M1093.98,-56.59C1055.61,-46.63 995.77,-31.1 957.15,-21.09"/>
<polygon fill="#63b8ff" stroke="#63b8ff" points="958.4,-17.79 947.85,-18.67 956.65,-24.57 958.4,-17.79"/>
</a>
</g>
</g>
<!-- Node29&#45;&gt;Node2 -->
<g id="edge48_Node000029_Node000002" class="edge">
<title>Node29&#45;&gt;Node2</title>
<g id="a_edge48_Node000029_Node000002"><a xlink:title=" ">
<path fill="none" stroke="#63b8ff" d="M972.37,-169.83C974.16,-156.57 975.9,-132.4 968.73,-113.5 961.35,-94.03 948.48,-95.9 938.73,-77.5 931.11,-63.12 926.22,-45.31 923.31,-31.8"/>
<polygon fill="#63b8ff" stroke="#63b8ff" points="926.81,-31.45 921.46,-22.3 919.94,-32.79 926.81,-31.45"/>
</a>
</g>
</g>
<!-- Node29&#45;&gt;Node7 -->
<g id="edge49_Node000029_Node000007" class="edge">
<title>Node29&#45;&gt;Node7</title>
<g id="a_edge49_Node000029_Node000007"><a xlink:title=" ">
<path fill="none" stroke="#63b8ff" d="M970.11,-170.05C968.66,-155.7 963.82,-128.68 947.73,-113.5 914.99,-82.62 862.8,-72.52 826.98,-69.35"/>
<polygon fill="#63b8ff" stroke="#63b8ff" points="827.25,-65.86 817.03,-68.62 826.75,-72.84 827.25,-65.86"/>
</a>
</g>
</g>
<!-- Node29&#45;&gt;Node16 -->
<g id="edge47_Node000029_Node000016" class="edge">
<title>Node29&#45;&gt;Node16</title>
<g id="a_edge47_Node000029_Node000016"><a xlink:title=" ">
<path fill="none" stroke="#63b8ff" d="M959.47,-169.84C950.6,-162.13 938.02,-151.2 927.48,-142.04"/>
<polygon fill="#63b8ff" stroke="#63b8ff" points="929.88,-139.49 920.04,-135.57 925.29,-144.77 929.88,-139.49"/>
</a>
</g>
</g>
<!-- Node29&#45;&gt;Node26 -->
<g id="edge50_Node000029_Node000026" class="edge">
<title>Node29&#45;&gt;Node26</title>
<g id="a_edge50_Node000029_Node000026"><a xlink:title=" ">
<path fill="none" stroke="#63b8ff" d="M997.37,-169.84C1021.03,-161.14 1055.85,-148.35 1082.3,-138.63"/>
<polygon fill="#63b8ff" stroke="#63b8ff" points="1083.47,-141.93 1091.65,-135.19 1081.06,-135.36 1083.47,-141.93"/>
</a>
</g>
</g>
<!-- Node30&#45;&gt;Node2 -->
<g id="edge52_Node000030_Node000002" class="edge">
<title>Node30&#45;&gt;Node2</title>
<g id="a_edge52_Node000030_Node000002"><a xlink:title=" ">
<path fill="none" stroke="#63b8ff" d="M941.05,-289.65C924.72,-264.89 883.08,-197.51 868.73,-134.25 859.97,-95.62 885.84,-53.6 903.87,-30.07"/>
<polygon fill="#63b8ff" stroke="#63b8ff" points="906.52,-32.36 910.04,-22.37 901.06,-27.98 906.52,-32.36"/>
</a>
</g>
</g>
<!-- Node30&#45;&gt;Node24 -->
<g id="edge54_Node000030_Node000024" class="edge">
<title>Node30&#45;&gt;Node24</title>
<g id="a_edge54_Node000030_Node000024"><a xlink:title=" ">
<path fill="none" stroke="#63b8ff" d="M957.21,-289.68C965.95,-280.63 979.13,-266.97 989.69,-256.03"/>
<polygon fill="#63b8ff" stroke="#63b8ff" points="991.99,-258.68 996.42,-249.06 986.95,-253.82 991.99,-258.68"/>
</a>
</g>
</g>
<!-- Node30&#45;&gt;Node26 -->
<g id="edge53_Node000030_Node000026" class="edge">
<title>Node30&#45;&gt;Node26</title>
<g id="a_edge53_Node000030_Node000026"><a xlink:title=" ">
<path fill="none" stroke="#63b8ff" d="M978.93,-291.59C1003.74,-283.93 1037.94,-270.12 1060.73,-247.75 1090.17,-218.84 1106.88,-172.3 1114.54,-145.56"/>
<polygon fill="#63b8ff" stroke="#63b8ff" points="1117.91,-146.53 1117.12,-135.96 1111.15,-144.71 1117.91,-146.53"/>
</a>
</g>
</g>
<!-- Node31&#45;&gt;Node2 -->
<g id="edge56_Node000031_Node000002" class="edge">
<title>Node31&#45;&gt;Node2</title>
<g id="a_edge56_Node000031_Node000002"><a xlink:title=" ">
<path fill="none" stroke="#63b8ff" d="M1182.32,-289.72C1218.99,-273.32 1283.73,-236.59 1283.73,-181.62 1283.73,-181.62 1283.73,-181.62 1283.73,-122.88 1283.73,-80.08 1252.17,-75.56 1213.73,-56.75 1169.22,-34.97 1026.24,-20.35 957.43,-14.39"/>
<polygon fill="#63b8ff" stroke="#63b8ff" points="958.03,-10.93 947.77,-13.57 957.44,-17.9 958.03,-10.93"/>
</a>
</g>
</g>
<!-- Node31&#45;&gt;Node24 -->
<g id="edge61_Node000031_Node000024" class="edge">
<title>Node31&#45;&gt;Node24</title>
<g id="a_edge61_Node000031_Node000024"><a xlink:title=" ">
<path fill="none" stroke="#63b8ff" d="M1133.47,-289.68C1108.59,-279.61 1069.67,-263.85 1041.51,-252.46"/>
<polygon fill="#63b8ff" stroke="#63b8ff" points="1042.92,-249.25 1032.33,-248.74 1040.29,-255.74 1042.92,-249.25"/>
</a>
</g>
</g>
<!-- Node31&#45;&gt;Node26 -->
<g id="edge57_Node000031_Node000026" class="edge">
<title>Node31&#45;&gt;Node26</title>
<g id="a_edge57_Node000031_Node000026"><a xlink:title=" ">
<path fill="none" stroke="#63b8ff" d="M1156.31,-289.69C1153.07,-267.99 1144.59,-214.35 1133.73,-170.25 1131.71,-162.05 1129.07,-153.16 1126.62,-145.43"/>
<polygon fill="#63b8ff" stroke="#63b8ff" points="1129.96,-144.38 1123.53,-135.96 1123.31,-146.55 1129.96,-144.38"/>
</a>
</g>
</g>
<!-- Node32 -->
<g id="Node000032" class="node">
<title>Node32</title>
<g id="a_Node000032"><a xlink:href="eui64_8h.html" target="_top" xlink:title="EUI&#45;64 data type definition.">
<polygon fill="white" stroke="#666666" points="1256.11,-191 1185.36,-191 1185.36,-170.25 1256.11,-170.25 1256.11,-191"/>
<text text-anchor="middle" x="1220.73" y="-177.5" font-family="Helvetica,sans-Serif" font-size="10.00">net/eui64.h</text>
</a>
</g>
</g>
<!-- Node31&#45;&gt;Node32 -->
<g id="edge58_Node000031_Node000032" class="edge">
<title>Node31&#45;&gt;Node32</title>
<g id="a_edge58_Node000031_Node000032"><a xlink:title=" ">
<path fill="none" stroke="#63b8ff" d="M1162.89,-289.85C1173.18,-270.6 1196.45,-227.06 1210.13,-201.45"/>
<polygon fill="#63b8ff" stroke="#63b8ff" points="1213.16,-203.21 1214.79,-192.74 1206.99,-199.91 1213.16,-203.21"/>
</a>
</g>
</g>
<!-- Node32&#45;&gt;Node2 -->
<g id="edge59_Node000032_Node000002" class="edge">
<title>Node32&#45;&gt;Node2</title>
<g id="a_edge59_Node000032_Node000002"><a xlink:title=" ">
<path fill="none" stroke="#63b8ff" d="M1221.78,-169.92C1223.72,-146.63 1225.05,-87.21 1192.73,-56.75 1159.41,-25.35 1024.43,-15.56 957.6,-12.6"/>
<polygon fill="#63b8ff" stroke="#63b8ff" points="957.98,-9.11 947.85,-12.2 957.69,-16.11 957.98,-9.11"/>
</a>
</g>
</g>
<!-- Node32&#45;&gt;Node26 -->
<g id="edge60_Node000032_Node000026" class="edge">
<title>Node32&#45;&gt;Node26</title>
<g id="a_edge60_Node000032_Node000026"><a xlink:title=" ">
<path fill="none" stroke="#63b8ff" d="M1202.67,-169.84C1187.31,-161.51 1164.99,-149.41 1147.37,-139.86"/>
<polygon fill="#63b8ff" stroke="#63b8ff" points="1149.42,-136.99 1138.96,-135.3 1146.09,-143.14 1149.42,-136.99"/>
</a>
</g>
</g>
</g>
</svg>
