<?xml version="1.0" encoding="UTF-8" standalone="no"?>
<!DOCTYPE svg PUBLIC "-//W3C//DTD SVG 1.1//EN"
 "http://www.w3.org/Graphics/SVG/1.1/DTD/svg11.dtd">
<!-- Generated by graphviz version 12.1.1 (0)
 -->
<!-- Title: sys/include/net/gnrc/ipv6/ext.h Pages: 1 -->
<svg width="1222pt" height="382pt"
 viewBox="0.00 0.00 1221.94 382.00" xmlns="http://www.w3.org/2000/svg" xmlns:xlink="http://www.w3.org/1999/xlink">
<g id="graph0" class="graph" transform="scale(1 1) rotate(0) translate(4 378)">
<title>sys/include/net/gnrc/ipv6/ext.h</title>
<!-- Node1 -->
<g id="Node000001" class="node">
<title>Node1</title>
<g id="a_Node000001"><a xlink:title="Definititions for IPv6 extension headers.">
<polygon fill="#999999" stroke="#666666" points="811.69,-374 698.19,-374 698.19,-340.5 811.69,-340.5 811.69,-374"/>
<text text-anchor="start" x="706.19" y="-360.5" font-family="Helvetica,sans-Serif" font-size="10.00">sys/include/net/gnrc</text>
<text text-anchor="middle" x="754.94" y="-347.75" font-family="Helvetica,sans-Serif" font-size="10.00">/ipv6/ext.h</text>
</a>
</g>
</g>
<!-- Node2 -->
<g id="Node000002" class="node">
<title>Node2</title>
<g id="a_Node000002"><a xlink:title=" ">
<polygon fill="#e0e0e0" stroke="#999999" points="715.44,-134.25 654.44,-134.25 654.44,-113.5 715.44,-113.5 715.44,-134.25"/>
<text text-anchor="middle" x="684.94" y="-120.75" font-family="Helvetica,sans-Serif" font-size="10.00">stdbool.h</text>
</a>
</g>
</g>
<!-- Node1&#45;&gt;Node2 -->
<g id="edge1_Node000001_Node000002" class="edge">
<title>Node1&#45;&gt;Node2</title>
<g id="a_edge1_Node000001_Node000002"><a xlink:title=" ">
<path fill="none" stroke="#63b8ff" d="M750.13,-340.35C737.73,-299.38 704.73,-190.31 691.03,-145.02"/>
<polygon fill="#63b8ff" stroke="#63b8ff" points="694.47,-144.28 688.22,-135.72 687.77,-146.31 694.47,-144.28"/>
</a>
</g>
</g>
<!-- Node3 -->
<g id="Node000003" class="node">
<title>Node3</title>
<g id="a_Node000003"><a xlink:title=" ">
<polygon fill="#e0e0e0" stroke="#999999" points="754.31,-20.75 701.56,-20.75 701.56,0 754.31,0 754.31,-20.75"/>
<text text-anchor="middle" x="727.94" y="-7.25" font-family="Helvetica,sans-Serif" font-size="10.00">stdint.h</text>
</a>
</g>
</g>
<!-- Node1&#45;&gt;Node3 -->
<g id="edge2_Node000001_Node000003" class="edge">
<title>Node1&#45;&gt;Node3</title>
<g id="a_edge2_Node000001_Node000003"><a xlink:title=" ">
<path fill="none" stroke="#63b8ff" d="M812.14,-353.55C935.19,-346.19 1213.94,-320.44 1213.94,-238.38 1213.94,-238.38 1213.94,-238.38 1213.94,-122.88 1213.94,-78.44 1179.58,-74.72 1138.94,-56.75 1072.56,-27.4 854.62,-16.11 765.96,-12.66"/>
<polygon fill="#63b8ff" stroke="#63b8ff" points="766.22,-9.16 756.1,-12.29 765.96,-16.16 766.22,-9.16"/>
</a>
</g>
</g>
<!-- Node4 -->
<g id="Node000004" class="node">
<title>Node4</title>
<g id="a_Node000004"><a xlink:title=" ">
<polygon fill="#e0e0e0" stroke="#999999" points="188.94,-247.75 136.94,-247.75 136.94,-227 188.94,-227 188.94,-247.75"/>
<text text-anchor="middle" x="162.94" y="-234.25" font-family="Helvetica,sans-Serif" font-size="10.00">stdlib.h</text>
</a>
</g>
</g>
<!-- Node1&#45;&gt;Node4 -->
<g id="edge3_Node000001_Node000004" class="edge">
<title>Node1&#45;&gt;Node4</title>
<g id="a_edge3_Node000001_Node000004"><a xlink:title=" ">
<path fill="none" stroke="#63b8ff" d="M697.98,-352.54C619.81,-346.61 475.27,-332.7 354.94,-304.5 298.24,-291.21 234.76,-267.54 196.87,-252.42"/>
<polygon fill="#63b8ff" stroke="#63b8ff" points="198.41,-249.27 187.83,-248.77 195.8,-255.76 198.41,-249.27"/>
</a>
</g>
</g>
<!-- Node5 -->
<g id="Node000005" class="node">
<title>Node5</title>
<g id="a_Node000005"><a xlink:href="net_2gnrc_2pkt_8h.html" target="_top" xlink:title="General definitions for network packets and their helper functions.">
<polygon fill="white" stroke="#666666" points="447.69,-304.5 364.19,-304.5 364.19,-283.75 447.69,-283.75 447.69,-304.5"/>
<text text-anchor="middle" x="405.94" y="-291" font-family="Helvetica,sans-Serif" font-size="10.00">net/gnrc/pkt.h</text>
</a>
</g>
</g>
<!-- Node1&#45;&gt;Node5 -->
<g id="edge4_Node000001_Node000005" class="edge">
<title>Node1&#45;&gt;Node5</title>
<g id="a_edge4_Node000001_Node000005"><a xlink:title=" ">
<path fill="none" stroke="#63b8ff" d="M697.7,-346.22C631.57,-334.64 523.62,-315.74 459.22,-304.46"/>
<polygon fill="#63b8ff" stroke="#63b8ff" points="460.05,-301.05 449.6,-302.77 458.84,-307.94 460.05,-301.05"/>
</a>
</g>
</g>
<!-- Node21 -->
<g id="Node000021" class="node">
<title>Node21</title>
<g id="a_Node000021"><a xlink:href="ipv6_2ext_8h.html" target="_top" xlink:title="IPv6 extension header definitions.">
<polygon fill="white" stroke="#666666" points="850.69,-247.75 767.19,-247.75 767.19,-227 850.69,-227 850.69,-247.75"/>
<text text-anchor="middle" x="808.94" y="-234.25" font-family="Helvetica,sans-Serif" font-size="10.00">net/ipv6/ext.h</text>
</a>
</g>
</g>
<!-- Node1&#45;&gt;Node21 -->
<g id="edge32_Node000001_Node000021" class="edge">
<title>Node1&#45;&gt;Node21</title>
<g id="a_edge32_Node000001_Node000021"><a xlink:title=" ">
<path fill="none" stroke="#63b8ff" d="M762.22,-340.35C771.92,-319.17 789.1,-281.68 799.7,-258.54"/>
<polygon fill="#63b8ff" stroke="#63b8ff" points="802.83,-260.11 803.81,-249.56 796.47,-257.19 802.83,-260.11"/>
</a>
</g>
</g>
<!-- Node28 -->
<g id="Node000028" class="node">
<title>Node28</title>
<g id="a_Node000028"><a xlink:href="timex_8h.html" target="_top" xlink:title="Utility library for comparing and computing timestamps.">
<polygon fill="white" stroke="#666666" points="1039.69,-247.75 986.19,-247.75 986.19,-227 1039.69,-227 1039.69,-247.75"/>
<text text-anchor="middle" x="1012.94" y="-234.25" font-family="Helvetica,sans-Serif" font-size="10.00">timex.h</text>
</a>
</g>
</g>
<!-- Node1&#45;&gt;Node28 -->
<g id="edge46_Node000001_Node000028" class="edge">
<title>Node1&#45;&gt;Node28</title>
<g id="a_edge46_Node000001_Node000028"><a xlink:title=" ">
<path fill="none" stroke="#63b8ff" d="M790.27,-340.11C840.82,-317.01 933.01,-274.89 981.39,-252.79"/>
<polygon fill="#63b8ff" stroke="#63b8ff" points="982.55,-256.1 990.2,-248.77 979.65,-249.74 982.55,-256.1"/>
</a>
</g>
</g>
<!-- Node5&#45;&gt;Node4 -->
<g id="edge6_Node000005_Node000004" class="edge">
<title>Node5&#45;&gt;Node4</title>
<g id="a_edge6_Node000005_Node000004"><a xlink:title=" ">
<path fill="none" stroke="#63b8ff" d="M363.97,-284.57C324.17,-276.33 262.44,-263.2 200.1,-248.19"/>
<polygon fill="#63b8ff" stroke="#63b8ff" points="201.29,-244.88 190.75,-245.93 199.64,-251.69 201.29,-244.88"/>
</a>
</g>
</g>
<!-- Node6 -->
<g id="Node000006" class="node">
<title>Node6</title>
<g id="a_Node000006"><a xlink:href="inttypes_8h.html" target="_top" xlink:title="Adds include for missing inttype definitions.">
<polygon fill="white" stroke="#666666" points="292.31,-191 227.56,-191 227.56,-170.25 292.31,-170.25 292.31,-191"/>
<text text-anchor="middle" x="259.94" y="-177.5" font-family="Helvetica,sans-Serif" font-size="10.00">inttypes.h</text>
</a>
</g>
</g>
<!-- Node5&#45;&gt;Node6 -->
<g id="edge5_Node000005_Node000006" class="edge">
<title>Node5&#45;&gt;Node6</title>
<g id="a_edge5_Node000005_Node000006"><a xlink:title=" ">
<path fill="none" stroke="#63b8ff" d="M393.8,-283.35C377.56,-270.33 347.81,-246.64 321.94,-227 308.99,-217.17 294.32,-206.42 282.5,-197.85"/>
<polygon fill="#63b8ff" stroke="#63b8ff" points="284.72,-195.13 274.57,-192.11 280.62,-200.81 284.72,-195.13"/>
</a>
</g>
</g>
<!-- Node7 -->
<g id="Node000007" class="node">
<title>Node7</title>
<g id="a_Node000007"><a xlink:href="sched_8h.html" target="_top" xlink:title="Scheduler API definition.">
<polygon fill="white" stroke="#666666" points="478.69,-247.75 425.19,-247.75 425.19,-227 478.69,-227 478.69,-247.75"/>
<text text-anchor="middle" x="451.94" y="-234.25" font-family="Helvetica,sans-Serif" font-size="10.00">sched.h</text>
</a>
</g>
</g>
<!-- Node5&#45;&gt;Node7 -->
<g id="edge7_Node000005_Node000007" class="edge">
<title>Node5&#45;&gt;Node7</title>
<g id="a_edge7_Node000005_Node000007"><a xlink:title=" ">
<path fill="none" stroke="#63b8ff" d="M414.16,-283.34C420.38,-275.94 429.09,-265.57 436.58,-256.66"/>
<polygon fill="#63b8ff" stroke="#63b8ff" points="439.06,-259.15 442.81,-249.24 433.7,-254.64 439.06,-259.15"/>
</a>
</g>
</g>
<!-- Node17 -->
<g id="Node000017" class="node">
<title>Node17</title>
<g id="a_Node000017"><a xlink:href="list_8h.html" target="_top" xlink:title="Intrusive linked list.">
<polygon fill="white" stroke="#666666" points="635.94,-134.25 595.94,-134.25 595.94,-113.5 635.94,-113.5 635.94,-134.25"/>
<text text-anchor="middle" x="615.94" y="-120.75" font-family="Helvetica,sans-Serif" font-size="10.00">list.h</text>
</a>
</g>
</g>
<!-- Node5&#45;&gt;Node17 -->
<g id="edge31_Node000005_Node000017" class="edge">
<title>Node5&#45;&gt;Node17</title>
<g id="a_edge31_Node000005_Node000017"><a xlink:title=" ">
<path fill="none" stroke="#63b8ff" d="M447.96,-287.25C500.05,-277.46 586.74,-252.41 625.94,-191 634.62,-177.39 630.92,-159.05 625.73,-145.14"/>
<polygon fill="#63b8ff" stroke="#63b8ff" points="629.01,-143.9 621.85,-136.09 622.57,-146.66 629.01,-143.9"/>
</a>
</g>
</g>
<!-- Node18 -->
<g id="Node000018" class="node">
<title>Node18</title>
<g id="a_Node000018"><a xlink:href="nettype_8h.html" target="_top" xlink:title="Protocol type definitions.">
<polygon fill="white" stroke="#666666" points="312.56,-247.75 207.31,-247.75 207.31,-227 312.56,-227 312.56,-247.75"/>
<text text-anchor="middle" x="259.94" y="-234.25" font-family="Helvetica,sans-Serif" font-size="10.00">net/gnrc/nettype.h</text>
</a>
</g>
</g>
<!-- Node5&#45;&gt;Node18 -->
<g id="edge26_Node000005_Node000018" class="edge">
<title>Node5&#45;&gt;Node18</title>
<g id="a_edge26_Node000005_Node000018"><a xlink:title=" ">
<path fill="none" stroke="#63b8ff" d="M379.84,-283.34C356.58,-274.62 322.32,-261.77 296.37,-252.04"/>
<polygon fill="#63b8ff" stroke="#63b8ff" points="297.82,-248.84 287.23,-248.61 295.37,-255.4 297.82,-248.84"/>
</a>
</g>
</g>
<!-- Node7&#45;&gt;Node6 -->
<g id="edge9_Node000007_Node000006" class="edge">
<title>Node7&#45;&gt;Node6</title>
<g id="a_edge9_Node000007_Node000006"><a xlink:title=" ">
<path fill="none" stroke="#63b8ff" d="M424.84,-228.65C393.36,-219.67 341,-204.74 303.73,-194.11"/>
<polygon fill="#63b8ff" stroke="#63b8ff" points="304.72,-190.75 294.14,-191.38 302.8,-197.49 304.72,-190.75"/>
</a>
</g>
</g>
<!-- Node8 -->
<g id="Node000008" class="node">
<title>Node8</title>
<g id="a_Node000008"><a xlink:title=" ">
<polygon fill="#e0e0e0" stroke="#999999" points="560.44,-77.5 505.44,-77.5 505.44,-56.75 560.44,-56.75 560.44,-77.5"/>
<text text-anchor="middle" x="532.94" y="-64" font-family="Helvetica,sans-Serif" font-size="10.00">stddef.h</text>
</a>
</g>
</g>
<!-- Node7&#45;&gt;Node8 -->
<g id="edge8_Node000007_Node000008" class="edge">
<title>Node7&#45;&gt;Node8</title>
<g id="a_edge8_Node000007_Node000008"><a xlink:title=" ">
<path fill="none" stroke="#63b8ff" d="M479.18,-226.52C495.07,-219.26 513.9,-207.72 523.94,-191 542.86,-159.48 540.43,-114.9 536.79,-89"/>
<polygon fill="#63b8ff" stroke="#63b8ff" points="540.29,-88.73 535.24,-79.42 533.38,-89.85 540.29,-88.73"/>
</a>
</g>
</g>
<!-- Node9 -->
<g id="Node000009" class="node">
<title>Node9</title>
<g id="a_Node000009"><a xlink:href="kernel__defines_8h.html" target="_top" xlink:title="Common macros and compiler attributes/pragmas configuration.">
<polygon fill="white" stroke="#666666" points="407.06,-191 310.81,-191 310.81,-170.25 407.06,-170.25 407.06,-191"/>
<text text-anchor="middle" x="358.94" y="-177.5" font-family="Helvetica,sans-Serif" font-size="10.00">kernel_defines.h</text>
</a>
</g>
</g>
<!-- Node7&#45;&gt;Node9 -->
<g id="edge10_Node000007_Node000009" class="edge">
<title>Node7&#45;&gt;Node9</title>
<g id="a_edge10_Node000007_Node000009"><a xlink:title=" ">
<path fill="none" stroke="#63b8ff" d="M435.31,-226.59C421.43,-218.41 401.38,-206.61 385.3,-197.15"/>
<polygon fill="#63b8ff" stroke="#63b8ff" points="387.12,-194.15 376.72,-192.1 383.57,-200.19 387.12,-194.15"/>
</a>
</g>
</g>
<!-- Node15 -->
<g id="Node000015" class="node">
<title>Node15</title>
<g id="a_Node000015"><a xlink:href="native__sched_8h.html" target="_top" xlink:title="Add definitions required on the native board.">
<polygon fill="white" stroke="#666666" points="514.69,-191 425.19,-191 425.19,-170.25 514.69,-170.25 514.69,-191"/>
<text text-anchor="middle" x="469.94" y="-177.5" font-family="Helvetica,sans-Serif" font-size="10.00">native_sched.h</text>
</a>
</g>
</g>
<!-- Node7&#45;&gt;Node15 -->
<g id="edge21_Node000007_Node000015" class="edge">
<title>Node7&#45;&gt;Node15</title>
<g id="a_edge21_Node000007_Node000015"><a xlink:title=" ">
<path fill="none" stroke="#63b8ff" d="M455.16,-226.59C457.38,-219.81 460.43,-210.55 463.18,-202.19"/>
<polygon fill="#63b8ff" stroke="#63b8ff" points="466.48,-203.36 466.28,-192.77 459.83,-201.17 466.48,-203.36"/>
</a>
</g>
</g>
<!-- Node16 -->
<g id="Node000016" class="node">
<title>Node16</title>
<g id="a_Node000016"><a xlink:href="clist_8h.html" target="_top" xlink:title="Circular linked list.">
<polygon fill="white" stroke="#666666" points="616.56,-191 571.31,-191 571.31,-170.25 616.56,-170.25 616.56,-191"/>
<text text-anchor="middle" x="593.94" y="-177.5" font-family="Helvetica,sans-Serif" font-size="10.00">clist.h</text>
</a>
</g>
</g>
<!-- Node7&#45;&gt;Node16 -->
<g id="edge22_Node000007_Node000016" class="edge">
<title>Node7&#45;&gt;Node16</title>
<g id="a_edge22_Node000007_Node000016"><a xlink:title=" ">
<path fill="none" stroke="#63b8ff" d="M477.32,-226.59C500.53,-217.64 535.02,-204.34 560.48,-194.53"/>
<polygon fill="#63b8ff" stroke="#63b8ff" points="561.63,-197.83 569.7,-190.97 559.11,-191.3 561.63,-197.83"/>
</a>
</g>
</g>
<!-- Node10 -->
<g id="Node000010" class="node">
<title>Node10</title>
<g id="a_Node000010"><a xlink:href="modules_8h.html" target="_top" xlink:title="Common macros and compiler attributes/pragmas configuration.">
<polygon fill="white" stroke="#666666" points="143.44,-134.25 76.44,-134.25 76.44,-113.5 143.44,-113.5 143.44,-134.25"/>
<text text-anchor="middle" x="109.94" y="-120.75" font-family="Helvetica,sans-Serif" font-size="10.00">modules.h</text>
</a>
</g>
</g>
<!-- Node9&#45;&gt;Node10 -->
<g id="edge11_Node000009_Node000010" class="edge">
<title>Node9&#45;&gt;Node10</title>
<g id="a_edge11_Node000009_Node000010"><a xlink:title=" ">
<path fill="none" stroke="#63b8ff" d="M314.13,-169.77C269.05,-159.86 199.92,-144.66 154.81,-134.74"/>
<polygon fill="#63b8ff" stroke="#63b8ff" points="155.61,-131.33 145.09,-132.6 154.1,-138.17 155.61,-131.33"/>
</a>
</g>
</g>
<!-- Node11 -->
<g id="Node000011" class="node">
<title>Node11</title>
<g id="a_Node000011"><a xlink:href="riot__version_8h.html" target="_top" xlink:title="Common macros and compiler attributes/pragmas configuration.">
<polygon fill="white" stroke="#666666" points="333.31,-77.5 250.56,-77.5 250.56,-56.75 333.31,-56.75 333.31,-77.5"/>
<text text-anchor="middle" x="291.94" y="-64" font-family="Helvetica,sans-Serif" font-size="10.00">riot_version.h</text>
</a>
</g>
</g>
<!-- Node9&#45;&gt;Node11 -->
<g id="edge12_Node000009_Node000011" class="edge">
<title>Node9&#45;&gt;Node11</title>
<g id="a_edge12_Node000009_Node000011"><a xlink:title=" ">
<path fill="none" stroke="#63b8ff" d="M343.35,-170.01C331.56,-161.92 315.9,-149.27 306.94,-134.25 298.71,-120.48 295,-102.63 293.32,-88.95"/>
<polygon fill="#63b8ff" stroke="#63b8ff" points="296.83,-88.93 292.42,-79.3 289.86,-89.58 296.83,-88.93"/>
</a>
</g>
</g>
<!-- Node12 -->
<g id="Node000012" class="node">
<title>Node12</title>
<g id="a_Node000012"><a xlink:href="compiler__hints_8h.html" target="_top" xlink:title="Common macros and compiler attributes/pragmas configuration.">
<polygon fill="white" stroke="#666666" points="413.44,-134.25 316.44,-134.25 316.44,-113.5 413.44,-113.5 413.44,-134.25"/>
<text text-anchor="middle" x="364.94" y="-120.75" font-family="Helvetica,sans-Serif" font-size="10.00">compiler_hints.h</text>
</a>
</g>
</g>
<!-- Node9&#45;&gt;Node12 -->
<g id="edge14_Node000009_Node000012" class="edge">
<title>Node9&#45;&gt;Node12</title>
<g id="a_edge14_Node000009_Node000012"><a xlink:title=" ">
<path fill="none" stroke="#63b8ff" d="M360.01,-169.84C360.74,-163.22 361.72,-154.22 362.62,-146.02"/>
<polygon fill="#63b8ff" stroke="#63b8ff" points="366.1,-146.4 363.71,-136.08 359.14,-145.64 366.1,-146.4"/>
</a>
</g>
</g>
<!-- Node14 -->
<g id="Node000014" class="node">
<title>Node14</title>
<g id="a_Node000014"><a xlink:href="container_8h.html" target="_top" xlink:title="Common macros and compiler attributes/pragmas configuration.">
<polygon fill="white" stroke="#666666" points="502.31,-134.25 431.56,-134.25 431.56,-113.5 502.31,-113.5 502.31,-134.25"/>
<text text-anchor="middle" x="466.94" y="-120.75" font-family="Helvetica,sans-Serif" font-size="10.00">container.h</text>
</a>
</g>
</g>
<!-- Node9&#45;&gt;Node14 -->
<g id="edge18_Node000009_Node000014" class="edge">
<title>Node9&#45;&gt;Node14</title>
<g id="a_edge18_Node000009_Node000014"><a xlink:title=" ">
<path fill="none" stroke="#63b8ff" d="M378.25,-169.84C394.76,-161.47 418.77,-149.29 437.65,-139.72"/>
<polygon fill="#63b8ff" stroke="#63b8ff" points="439.11,-142.91 446.45,-135.26 435.94,-136.66 439.11,-142.91"/>
</a>
</g>
</g>
<!-- Node11&#45;&gt;Node3 -->
<g id="edge13_Node000011_Node000003" class="edge">
<title>Node11&#45;&gt;Node3</title>
<g id="a_edge13_Node000011_Node000003"><a xlink:title=" ">
<path fill="none" stroke="#63b8ff" d="M333.81,-59.27C339.56,-58.39 345.39,-57.52 350.94,-56.75 474.74,-39.47 621.97,-22.89 690.01,-15.46"/>
<polygon fill="#63b8ff" stroke="#63b8ff" points="690.32,-18.95 699.88,-14.39 689.56,-11.99 690.32,-18.95"/>
</a>
</g>
</g>
<!-- Node12&#45;&gt;Node3 -->
<g id="edge17_Node000012_Node000003" class="edge">
<title>Node12&#45;&gt;Node3</title>
<g id="a_edge17_Node000012_Node000003"><a xlink:title=" ">
<path fill="none" stroke="#63b8ff" d="M364.65,-113.05C364.81,-98.37 367.47,-70.94 383.94,-56.75 429.09,-17.86 609.91,-11.98 689.74,-11.31"/>
<polygon fill="#63b8ff" stroke="#63b8ff" points="689.7,-14.82 699.68,-11.26 689.66,-7.82 689.7,-14.82"/>
</a>
</g>
</g>
<!-- Node13 -->
<g id="Node000013" class="node">
<title>Node13</title>
<g id="a_Node000013"><a xlink:href="assert_8h.html" target="_top" xlink:title="POSIX.1&#45;2008 compliant version of the assert macro.">
<polygon fill="white" stroke="#666666" points="448.44,-77.5 393.44,-77.5 393.44,-56.75 448.44,-56.75 448.44,-77.5"/>
<text text-anchor="middle" x="420.94" y="-64" font-family="Helvetica,sans-Serif" font-size="10.00">assert.h</text>
</a>
</g>
</g>
<!-- Node12&#45;&gt;Node13 -->
<g id="edge15_Node000012_Node000013" class="edge">
<title>Node12&#45;&gt;Node13</title>
<g id="a_edge15_Node000012_Node000013"><a xlink:title=" ">
<path fill="none" stroke="#63b8ff" d="M374.95,-113.09C382.67,-105.53 393.57,-94.89 402.81,-85.85"/>
<polygon fill="#63b8ff" stroke="#63b8ff" points="405.23,-88.38 409.93,-78.89 400.33,-83.37 405.23,-88.38"/>
</a>
</g>
</g>
<!-- Node13&#45;&gt;Node3 -->
<g id="edge16_Node000013_Node000003" class="edge">
<title>Node13&#45;&gt;Node3</title>
<g id="a_edge16_Node000013_Node000003"><a xlink:title=" ">
<path fill="none" stroke="#63b8ff" d="M448.91,-59.68C453.59,-58.66 458.39,-57.65 462.94,-56.75 543.45,-40.88 638.36,-25.41 689.92,-17.27"/>
<polygon fill="#63b8ff" stroke="#63b8ff" points="690.32,-20.75 699.66,-15.74 689.23,-13.84 690.32,-20.75"/>
</a>
</g>
</g>
<!-- Node14&#45;&gt;Node3 -->
<g id="edge20_Node000014_Node000003" class="edge">
<title>Node14&#45;&gt;Node3</title>
<g id="a_edge20_Node000014_Node000003"><a xlink:title=" ">
<path fill="none" stroke="#63b8ff" d="M468.34,-113.07C470.99,-98.42 478.13,-71.01 495.94,-56.75 525.38,-33.17 632.17,-20.06 690.04,-14.54"/>
<polygon fill="#63b8ff" stroke="#63b8ff" points="690.12,-18.04 699.76,-13.64 689.48,-11.07 690.12,-18.04"/>
</a>
</g>
</g>
<!-- Node14&#45;&gt;Node8 -->
<g id="edge19_Node000014_Node000008" class="edge">
<title>Node14&#45;&gt;Node8</title>
<g id="a_edge19_Node000014_Node000008"><a xlink:title=" ">
<path fill="none" stroke="#63b8ff" d="M478.74,-113.09C488.12,-105.3 501.48,-94.22 512.58,-85.01"/>
<polygon fill="#63b8ff" stroke="#63b8ff" points="514.61,-87.87 520.08,-78.79 510.14,-82.49 514.61,-87.87"/>
</a>
</g>
</g>
<!-- Node16&#45;&gt;Node2 -->
<g id="edge23_Node000016_Node000002" class="edge">
<title>Node16&#45;&gt;Node2</title>
<g id="a_edge23_Node000016_Node000002"><a xlink:title=" ">
<path fill="none" stroke="#63b8ff" d="M610.21,-169.84C623.79,-161.66 643.41,-149.86 659.14,-140.4"/>
<polygon fill="#63b8ff" stroke="#63b8ff" points="660.75,-143.51 667.51,-135.36 657.14,-137.52 660.75,-143.51"/>
</a>
</g>
</g>
<!-- Node16&#45;&gt;Node8 -->
<g id="edge24_Node000016_Node000008" class="edge">
<title>Node16&#45;&gt;Node8</title>
<g id="a_edge24_Node000016_Node000008"><a xlink:title=" ">
<path fill="none" stroke="#63b8ff" d="M588.74,-170.12C578.79,-151.94 556.9,-111.92 543.69,-87.77"/>
<polygon fill="#63b8ff" stroke="#63b8ff" points="546.9,-86.35 539.03,-79.25 540.76,-89.71 546.9,-86.35"/>
</a>
</g>
</g>
<!-- Node16&#45;&gt;Node17 -->
<g id="edge25_Node000016_Node000017" class="edge">
<title>Node16&#45;&gt;Node17</title>
<g id="a_edge25_Node000016_Node000017"><a xlink:title=" ">
<path fill="none" stroke="#63b8ff" d="M597.87,-169.84C600.62,-162.99 604.4,-153.59 607.79,-145.15"/>
<polygon fill="#63b8ff" stroke="#63b8ff" points="610.99,-146.57 611.47,-135.98 604.5,-143.96 610.99,-146.57"/>
</a>
</g>
</g>
<!-- Node18&#45;&gt;Node6 -->
<g id="edge27_Node000018_Node000006" class="edge">
<title>Node18&#45;&gt;Node6</title>
<g id="a_edge27_Node000018_Node000006"><a xlink:title=" ">
<path fill="none" stroke="#63b8ff" d="M259.94,-226.59C259.94,-219.97 259.94,-210.97 259.94,-202.77"/>
<polygon fill="#63b8ff" stroke="#63b8ff" points="263.44,-202.84 259.94,-192.84 256.44,-202.84 263.44,-202.84"/>
</a>
</g>
</g>
<!-- Node18&#45;&gt;Node10 -->
<g id="edge28_Node000018_Node000010" class="edge">
<title>Node18&#45;&gt;Node10</title>
<g id="a_edge28_Node000018_Node000010"><a xlink:title=" ">
<path fill="none" stroke="#63b8ff" d="M206.93,-227.77C133.43,-215.73 9.17,-194.86 5.94,-191 -15.56,-165.32 28.12,-146.32 65.31,-135.43"/>
<polygon fill="#63b8ff" stroke="#63b8ff" points="65.91,-138.9 74.61,-132.85 64.03,-132.15 65.91,-138.9"/>
</a>
</g>
</g>
<!-- Node19 -->
<g id="Node000019" class="node">
<title>Node19</title>
<g id="a_Node000019"><a xlink:href="ethertype_8h.html" target="_top" xlink:title="Ether type definitions.">
<polygon fill="white" stroke="#666666" points="209.44,-191 118.44,-191 118.44,-170.25 209.44,-170.25 209.44,-191"/>
<text text-anchor="middle" x="163.94" y="-177.5" font-family="Helvetica,sans-Serif" font-size="10.00">net/ethertype.h</text>
</a>
</g>
</g>
<!-- Node18&#45;&gt;Node19 -->
<g id="edge29_Node000018_Node000019" class="edge">
<title>Node18&#45;&gt;Node19</title>
<g id="a_edge29_Node000018_Node000019"><a xlink:title=" ">
<path fill="none" stroke="#63b8ff" d="M242.78,-226.59C228.3,-218.33 207.35,-206.38 190.68,-196.88"/>
<polygon fill="#63b8ff" stroke="#63b8ff" points="192.69,-193.99 182.27,-192.08 189.22,-200.07 192.69,-193.99"/>
</a>
</g>
</g>
<!-- Node20 -->
<g id="Node000020" class="node">
<title>Node20</title>
<g id="a_Node000020"><a xlink:href="protnum_8h.html" target="_top" xlink:title="Protocol number definitions.">
<polygon fill="white" stroke="#666666" points="100.44,-191 15.44,-191 15.44,-170.25 100.44,-170.25 100.44,-191"/>
<text text-anchor="middle" x="57.94" y="-177.5" font-family="Helvetica,sans-Serif" font-size="10.00">net/protnum.h</text>
</a>
</g>
</g>
<!-- Node18&#45;&gt;Node20 -->
<g id="edge30_Node000018_Node000020" class="edge">
<title>Node18&#45;&gt;Node20</title>
<g id="a_edge30_Node000018_Node000020"><a xlink:title=" ">
<path fill="none" stroke="#63b8ff" d="M223.82,-226.59C190.61,-217.58 141.15,-204.18 104.88,-194.35"/>
<polygon fill="#63b8ff" stroke="#63b8ff" points="106.11,-191.05 95.54,-191.82 104.28,-197.81 106.11,-191.05"/>
</a>
</g>
</g>
<!-- Node21&#45;&gt;Node3 -->
<g id="edge33_Node000021_Node000003" class="edge">
<title>Node21&#45;&gt;Node3</title>
<g id="a_edge33_Node000021_Node000003"><a xlink:title=" ">
<path fill="none" stroke="#63b8ff" d="M795.7,-226.65C785.29,-218.31 771.2,-205.4 762.94,-191 733.35,-139.47 728.31,-67.36 727.75,-32.24"/>
<polygon fill="#63b8ff" stroke="#63b8ff" points="731.25,-32.58 727.71,-22.6 724.25,-32.61 731.25,-32.58"/>
</a>
</g>
</g>
<!-- Node22 -->
<g id="Node000022" class="node">
<title>Node22</title>
<g id="a_Node000022"><a xlink:href="ipv6_2ext_2frag_8h.html" target="_top" xlink:title="Fragmentation extension definitions.">
<polygon fill="white" stroke="#666666" points="877.94,-191 771.94,-191 771.94,-170.25 877.94,-170.25 877.94,-191"/>
<text text-anchor="middle" x="824.94" y="-177.5" font-family="Helvetica,sans-Serif" font-size="10.00">net/ipv6/ext/frag.h</text>
</a>
</g>
</g>
<!-- Node21&#45;&gt;Node22 -->
<g id="edge34_Node000021_Node000022" class="edge">
<title>Node21&#45;&gt;Node22</title>
<g id="a_edge34_Node000021_Node000022"><a xlink:title=" ">
<path fill="none" stroke="#63b8ff" d="M811.8,-226.59C813.78,-219.81 816.49,-210.55 818.93,-202.19"/>
<polygon fill="#63b8ff" stroke="#63b8ff" points="822.23,-203.36 821.68,-192.78 815.51,-201.4 822.23,-203.36"/>
</a>
</g>
</g>
<!-- Node27 -->
<g id="Node000027" class="node">
<title>Node27</title>
<g id="a_Node000027"><a xlink:href="ipv6_2ext_2rh_8h.html" target="_top" xlink:title="Routing extension header definitions.">
<polygon fill="white" stroke="#666666" points="1110.06,-77.5 1013.81,-77.5 1013.81,-56.75 1110.06,-56.75 1110.06,-77.5"/>
<text text-anchor="middle" x="1061.94" y="-64" font-family="Helvetica,sans-Serif" font-size="10.00">net/ipv6/ext/rh.h</text>
</a>
</g>
</g>
<!-- Node21&#45;&gt;Node27 -->
<g id="edge44_Node000021_Node000027" class="edge">
<title>Node21&#45;&gt;Node27</title>
<g id="a_edge44_Node000021_Node000027"><a xlink:title=" ">
<path fill="none" stroke="#63b8ff" d="M826.85,-226.53C842.83,-217.61 866.75,-203.93 886.94,-191 943.32,-154.9 1007.11,-108.68 1039.89,-84.52"/>
<polygon fill="#63b8ff" stroke="#63b8ff" points="1041.85,-87.42 1047.81,-78.66 1037.69,-81.79 1041.85,-87.42"/>
</a>
</g>
</g>
<!-- Node22&#45;&gt;Node2 -->
<g id="edge35_Node000022_Node000002" class="edge">
<title>Node22&#45;&gt;Node2</title>
<g id="a_edge35_Node000022_Node000002"><a xlink:title=" ">
<path fill="none" stroke="#63b8ff" d="M799.91,-169.84C777.71,-161.16 745.05,-148.38 720.21,-138.67"/>
<polygon fill="#63b8ff" stroke="#63b8ff" points="721.75,-135.51 711.16,-135.13 719.2,-142.03 721.75,-135.51"/>
</a>
</g>
</g>
<!-- Node22&#45;&gt;Node3 -->
<g id="edge36_Node000022_Node000003" class="edge">
<title>Node22&#45;&gt;Node3</title>
<g id="a_edge36_Node000022_Node000003"><a xlink:title=" ">
<path fill="none" stroke="#63b8ff" d="M815.15,-169.82C798.52,-152.62 764.73,-115.22 745.94,-77.5 738.79,-63.15 734.18,-45.59 731.42,-32.17"/>
<polygon fill="#63b8ff" stroke="#63b8ff" points="734.93,-31.9 729.65,-22.71 728.05,-33.18 734.93,-31.9"/>
</a>
</g>
</g>
<!-- Node23 -->
<g id="Node000023" class="node">
<title>Node23</title>
<g id="a_Node000023"><a xlink:href="byteorder_8h.html" target="_top" xlink:title="Functions to work with different byte orders.">
<polygon fill="white" stroke="#666666" points="882.06,-134.25 809.81,-134.25 809.81,-113.5 882.06,-113.5 882.06,-134.25"/>
<text text-anchor="middle" x="845.94" y="-120.75" font-family="Helvetica,sans-Serif" font-size="10.00">byteorder.h</text>
</a>
</g>
</g>
<!-- Node22&#45;&gt;Node23 -->
<g id="edge37_Node000022_Node000023" class="edge">
<title>Node22&#45;&gt;Node23</title>
<g id="a_edge37_Node000022_Node000023"><a xlink:title=" ">
<path fill="none" stroke="#63b8ff" d="M828.69,-169.84C831.32,-162.99 834.93,-153.59 838.16,-145.15"/>
<polygon fill="#63b8ff" stroke="#63b8ff" points="841.36,-146.58 841.67,-135.99 834.82,-144.07 841.36,-146.58"/>
</a>
</g>
</g>
<!-- Node23&#45;&gt;Node3 -->
<g id="edge39_Node000023_Node000003" class="edge">
<title>Node23&#45;&gt;Node3</title>
<g id="a_edge39_Node000023_Node000003"><a xlink:title=" ">
<path fill="none" stroke="#63b8ff" d="M821.31,-113.08C804.23,-105.35 781.79,-93.26 765.94,-77.5 752.6,-64.24 742.37,-45.34 735.9,-31.14"/>
<polygon fill="#63b8ff" stroke="#63b8ff" points="739.28,-30.16 732.13,-22.35 732.85,-32.92 739.28,-30.16"/>
</a>
</g>
</g>
<!-- Node24 -->
<g id="Node000024" class="node">
<title>Node24</title>
<g id="a_Node000024"><a xlink:title=" ">
<polygon fill="#e0e0e0" stroke="#999999" points="995.31,-77.5 942.56,-77.5 942.56,-56.75 995.31,-56.75 995.31,-77.5"/>
<text text-anchor="middle" x="968.94" y="-64" font-family="Helvetica,sans-Serif" font-size="10.00">string.h</text>
</a>
</g>
</g>
<!-- Node23&#45;&gt;Node24 -->
<g id="edge38_Node000023_Node000024" class="edge">
<title>Node23&#45;&gt;Node24</title>
<g id="a_edge38_Node000023_Node000024"><a xlink:title=" ">
<path fill="none" stroke="#63b8ff" d="M867.93,-113.09C887.08,-104.56 915.1,-92.09 936.77,-82.44"/>
<polygon fill="#63b8ff" stroke="#63b8ff" points="938.04,-85.71 945.76,-78.44 935.2,-79.31 938.04,-85.71"/>
</a>
</g>
</g>
<!-- Node25 -->
<g id="Node000025" class="node">
<title>Node25</title>
<g id="a_Node000025"><a xlink:href="endian_8h.html" target="_top" xlink:title="libc header for endian conversion">
<polygon fill="white" stroke="#666666" points="832.94,-77.5 774.94,-77.5 774.94,-56.75 832.94,-56.75 832.94,-77.5"/>
<text text-anchor="middle" x="803.94" y="-64" font-family="Helvetica,sans-Serif" font-size="10.00">endian.h</text>
</a>
</g>
</g>
<!-- Node23&#45;&gt;Node25 -->
<g id="edge40_Node000023_Node000025" class="edge">
<title>Node23&#45;&gt;Node25</title>
<g id="a_edge40_Node000023_Node000025"><a xlink:title=" ">
<path fill="none" stroke="#63b8ff" d="M838.43,-113.09C832.82,-105.77 824.97,-95.54 818.18,-86.69"/>
<polygon fill="#63b8ff" stroke="#63b8ff" points="821.17,-84.83 812.3,-79.03 815.61,-89.09 821.17,-84.83"/>
</a>
</g>
</g>
<!-- Node26 -->
<g id="Node000026" class="node">
<title>Node26</title>
<g id="a_Node000026"><a xlink:href="unaligned_8h.html" target="_top" xlink:title="Unaligned but safe memory access functions.">
<polygon fill="white" stroke="#666666" points="924.44,-77.5 851.44,-77.5 851.44,-56.75 924.44,-56.75 924.44,-77.5"/>
<text text-anchor="middle" x="887.94" y="-64" font-family="Helvetica,sans-Serif" font-size="10.00">unaligned.h</text>
</a>
</g>
</g>
<!-- Node23&#45;&gt;Node26 -->
<g id="edge42_Node000023_Node000026" class="edge">
<title>Node23&#45;&gt;Node26</title>
<g id="a_edge42_Node000023_Node000026"><a xlink:title=" ">
<path fill="none" stroke="#63b8ff" d="M853.45,-113.09C859.06,-105.77 866.91,-95.54 873.7,-86.69"/>
<polygon fill="#63b8ff" stroke="#63b8ff" points="876.26,-89.09 879.57,-79.03 870.71,-84.83 876.26,-89.09"/>
</a>
</g>
</g>
<!-- Node25&#45;&gt;Node3 -->
<g id="edge41_Node000025_Node000003" class="edge">
<title>Node25&#45;&gt;Node3</title>
<g id="a_edge41_Node000025_Node000003"><a xlink:title=" ">
<path fill="none" stroke="#63b8ff" d="M790.35,-56.34C779.33,-48.4 763.55,-37.03 750.62,-27.71"/>
<polygon fill="#63b8ff" stroke="#63b8ff" points="752.8,-24.97 742.64,-21.96 748.7,-30.65 752.8,-24.97"/>
</a>
</g>
</g>
<!-- Node26&#45;&gt;Node3 -->
<g id="edge43_Node000026_Node000003" class="edge">
<title>Node26&#45;&gt;Node3</title>
<g id="a_edge43_Node000026_Node000003"><a xlink:title=" ">
<path fill="none" stroke="#63b8ff" d="M859.33,-56.34C833.15,-47.38 794.22,-34.06 765.53,-24.24"/>
<polygon fill="#63b8ff" stroke="#63b8ff" points="766.73,-20.95 756.13,-21.02 764.46,-27.57 766.73,-20.95"/>
</a>
</g>
</g>
<!-- Node27&#45;&gt;Node3 -->
<g id="edge45_Node000027_Node000003" class="edge">
<title>Node27&#45;&gt;Node3</title>
<g id="a_edge45_Node000027_Node000003"><a xlink:title=" ">
<path fill="none" stroke="#63b8ff" d="M1013.37,-58.16C946.23,-47.16 826.48,-27.53 765.64,-17.56"/>
<polygon fill="#63b8ff" stroke="#63b8ff" points="766.57,-14.16 756.14,-16 765.44,-21.07 766.57,-14.16"/>
</a>
</g>
</g>
<!-- Node28&#45;&gt;Node3 -->
<g id="edge47_Node000028_Node000003" class="edge">
<title>Node28&#45;&gt;Node3</title>
<g id="a_edge47_Node000028_Node000003"><a xlink:title=" ">
<path fill="none" stroke="#63b8ff" d="M1026.87,-226.56C1065.78,-198.03 1169.51,-113.53 1118.94,-56.75 1095.7,-30.66 860,-17.29 766.17,-12.98"/>
<polygon fill="#63b8ff" stroke="#63b8ff" points="766.34,-9.48 756.2,-12.53 766.03,-16.47 766.34,-9.48"/>
</a>
</g>
</g>
<!-- Node28&#45;&gt;Node6 -->
<g id="edge48_Node000028_Node000006" class="edge">
<title>Node28&#45;&gt;Node6</title>
<g id="a_edge48_Node000028_Node000006"><a xlink:title=" ">
<path fill="none" stroke="#63b8ff" d="M985.8,-234.7C865.98,-227.3 386.91,-197.65 303.72,-190.53"/>
<polygon fill="#63b8ff" stroke="#63b8ff" points="304.21,-187.07 293.91,-189.55 303.51,-194.03 304.21,-187.07"/>
</a>
</g>
</g>
<!-- Node29 -->
<g id="Node000029" class="node">
<title>Node29</title>
<g id="a_Node000029"><a xlink:href="time__units_8h.html" target="_top" xlink:title="Utility header providing time unit defines.">
<polygon fill="white" stroke="#666666" points="1186.31,-191 1109.56,-191 1109.56,-170.25 1186.31,-170.25 1186.31,-191"/>
<text text-anchor="middle" x="1147.94" y="-177.5" font-family="Helvetica,sans-Serif" font-size="10.00">time_units.h</text>
</a>
</g>
</g>
<!-- Node28&#45;&gt;Node29 -->
<g id="edge49_Node000028_Node000029" class="edge">
<title>Node28&#45;&gt;Node29</title>
<g id="a_edge49_Node000028_Node000029"><a xlink:title=" ">
<path fill="none" stroke="#63b8ff" d="M1037.07,-226.59C1058.38,-217.94 1089.69,-205.25 1113.61,-195.55"/>
<polygon fill="#63b8ff" stroke="#63b8ff" points="1114.66,-198.9 1122.61,-191.9 1112.03,-192.41 1114.66,-198.9"/>
</a>
</g>
</g>
</g>
</svg>
