<?xml version="1.0" encoding="UTF-8" standalone="no"?>
<!DOCTYPE svg PUBLIC "-//W3C//DTD SVG 1.1//EN"
 "http://www.w3.org/Graphics/SVG/1.1/DTD/svg11.dtd">
<!-- Generated by graphviz version 12.1.1 (0)
 -->
<!-- Title: sys/net/gnrc/transport_layer/tcp/include/gnrc_tcp_eventloop.h Pages: 1 -->
<svg width="1076pt" height="735pt"
 viewBox="0.00 0.00 1076.00 735.25" xmlns="http://www.w3.org/2000/svg" xmlns:xlink="http://www.w3.org/1999/xlink">
<g id="graph0" class="graph" transform="scale(1 1) rotate(0) translate(4 731.25)">
<title>sys/net/gnrc/transport_layer/tcp/include/gnrc_tcp_eventloop.h</title>
<!-- Node1 -->
<g id="Node000001" class="node">
<title>Node1</title>
<g id="a_Node000001"><a xlink:title="TCP event loop declarations.">
<polygon fill="#999999" stroke="#666666" points="998.12,-727.25 871.88,-727.25 871.88,-681 998.12,-681 998.12,-727.25"/>
<text text-anchor="start" x="879.88" y="-713.75" font-family="Helvetica,sans-Serif" font-size="10.00">sys/net/gnrc/transport</text>
<text text-anchor="start" x="879.88" y="-701" font-family="Helvetica,sans-Serif" font-size="10.00">_layer/tcp/include/gnrc</text>
<text text-anchor="middle" x="935" y="-688.25" font-family="Helvetica,sans-Serif" font-size="10.00">_tcp_eventloop.h</text>
</a>
</g>
</g>
<!-- Node2 -->
<g id="Node000002" class="node">
<title>Node2</title>
<g id="a_Node000002"><a xlink:title=" ">
<polygon fill="#e0e0e0" stroke="#999999" points="611.38,-20.75 558.62,-20.75 558.62,0 611.38,0 611.38,-20.75"/>
<text text-anchor="middle" x="585" y="-7.25" font-family="Helvetica,sans-Serif" font-size="10.00">stdint.h</text>
</a>
</g>
</g>
<!-- Node1&#45;&gt;Node2 -->
<g id="edge1_Node000001_Node000002" class="edge">
<title>Node1&#45;&gt;Node2</title>
<g id="a_edge1_Node000001_Node000002"><a xlink:title=" ">
<path fill="none" stroke="#63b8ff" d="M985.66,-680.62C1023.25,-660.09 1068,-625.8 1068,-578.88 1068,-578.88 1068,-578.88 1068,-122.88 1068,-31.65 736.77,-15.05 622.9,-12.04"/>
<polygon fill="#63b8ff" stroke="#63b8ff" points="623.25,-8.55 613.17,-11.8 623.08,-15.55 623.25,-8.55"/>
</a>
</g>
</g>
<!-- Node3 -->
<g id="Node000003" class="node">
<title>Node3</title>
<g id="a_Node000003"><a xlink:href="evtimer__msg_8h.html" target="_top" xlink:title="IPC&#45;based evtimer definitions.">
<polygon fill="white" stroke="#666666" points="846.75,-645 757.25,-645 757.25,-624.25 846.75,-624.25 846.75,-645"/>
<text text-anchor="middle" x="802" y="-631.5" font-family="Helvetica,sans-Serif" font-size="10.00">evtimer_msg.h</text>
</a>
</g>
</g>
<!-- Node1&#45;&gt;Node3 -->
<g id="edge2_Node000001_Node000003" class="edge">
<title>Node1&#45;&gt;Node3</title>
<g id="a_edge2_Node000001_Node000003"><a xlink:title=" ">
<path fill="none" stroke="#63b8ff" d="M890.71,-680.65C871.19,-670.74 848.78,-659.37 831.37,-650.53"/>
<polygon fill="#63b8ff" stroke="#63b8ff" points="833.09,-647.48 822.59,-646.08 829.92,-653.72 833.09,-647.48"/>
</a>
</g>
</g>
<!-- Node4 -->
<g id="Node000004" class="node">
<title>Node4</title>
<g id="a_Node000004"><a xlink:title=" ">
<polygon fill="#e0e0e0" stroke="#999999" points="249,-474.75 203,-474.75 203,-454 249,-454 249,-474.75"/>
<text text-anchor="middle" x="226" y="-461.25" font-family="Helvetica,sans-Serif" font-size="10.00">msg.h</text>
</a>
</g>
</g>
<!-- Node3&#45;&gt;Node4 -->
<g id="edge3_Node000003_Node000004" class="edge">
<title>Node3&#45;&gt;Node4</title>
<g id="a_edge3_Node000003_Node000004"><a xlink:title=" ">
<path fill="none" stroke="#63b8ff" d="M768.54,-623.85C666.93,-594.17 362.64,-505.29 260.14,-475.35"/>
<polygon fill="#63b8ff" stroke="#63b8ff" points="261.24,-472.02 250.66,-472.58 259.28,-478.74 261.24,-472.02"/>
</a>
</g>
</g>
<!-- Node5 -->
<g id="Node000005" class="node">
<title>Node5</title>
<g id="a_Node000005"><a xlink:href="evtimer_8h.html" target="_top" xlink:title="evtimer API definitions">
<polygon fill="white" stroke="#666666" points="833.62,-588.25 770.38,-588.25 770.38,-567.5 833.62,-567.5 833.62,-588.25"/>
<text text-anchor="middle" x="802" y="-574.75" font-family="Helvetica,sans-Serif" font-size="10.00">evtimer.h</text>
</a>
</g>
</g>
<!-- Node3&#45;&gt;Node5 -->
<g id="edge4_Node000003_Node000005" class="edge">
<title>Node3&#45;&gt;Node5</title>
<g id="a_edge4_Node000003_Node000005"><a xlink:title=" ">
<path fill="none" stroke="#63b8ff" d="M802,-623.84C802,-617.22 802,-608.22 802,-600.02"/>
<polygon fill="#63b8ff" stroke="#63b8ff" points="805.5,-600.09 802,-590.09 798.5,-600.09 805.5,-600.09"/>
</a>
</g>
</g>
<!-- Node5&#45;&gt;Node2 -->
<g id="edge5_Node000005_Node000002" class="edge">
<title>Node5&#45;&gt;Node2</title>
<g id="a_edge5_Node000005_Node000002"><a xlink:title=" ">
<path fill="none" stroke="#63b8ff" d="M833.7,-575.6C896.35,-571.22 1030,-551.74 1030,-465.38 1030,-465.38 1030,-465.38 1030,-122.88 1030,-39.29 730.89,-17.82 623.12,-12.79"/>
<polygon fill="#63b8ff" stroke="#63b8ff" points="623.49,-9.3 613.35,-12.36 623.18,-16.3 623.49,-9.3"/>
</a>
</g>
</g>
<!-- Node6 -->
<g id="Node000006" class="node">
<title>Node6</title>
<g id="a_Node000006"><a xlink:href="modules_8h.html" target="_top" xlink:title="Common macros and compiler attributes/pragmas configuration.">
<polygon fill="white" stroke="#666666" points="348.5,-134.25 281.5,-134.25 281.5,-113.5 348.5,-113.5 348.5,-134.25"/>
<text text-anchor="middle" x="315" y="-120.75" font-family="Helvetica,sans-Serif" font-size="10.00">modules.h</text>
</a>
</g>
</g>
<!-- Node5&#45;&gt;Node6 -->
<g id="edge6_Node000005_Node000006" class="edge">
<title>Node5&#45;&gt;Node6</title>
<g id="a_edge6_Node000005_Node000006"><a xlink:title=" ">
<path fill="none" stroke="#63b8ff" d="M770.07,-575.86C620.9,-570.71 0,-544.54 0,-465.38 0,-465.38 0,-465.38 0,-236.38 0,-197.57 23.27,-189.42 57,-170.25 92.64,-150 206.03,-135.77 269.99,-129.12"/>
<polygon fill="#63b8ff" stroke="#63b8ff" points="270.23,-132.61 279.82,-128.12 269.52,-125.65 270.23,-132.61"/>
</a>
</g>
</g>
<!-- Node7 -->
<g id="Node000007" class="node">
<title>Node7</title>
<g id="a_Node000007"><a xlink:href="ztimer_8h.html" target="_top" xlink:title="ztimer API">
<polygon fill="white" stroke="#666666" points="830.25,-531.5 773.75,-531.5 773.75,-510.75 830.25,-510.75 830.25,-531.5"/>
<text text-anchor="middle" x="802" y="-518" font-family="Helvetica,sans-Serif" font-size="10.00">ztimer.h</text>
</a>
</g>
</g>
<!-- Node5&#45;&gt;Node7 -->
<g id="edge7_Node000005_Node000007" class="edge">
<title>Node5&#45;&gt;Node7</title>
<g id="a_edge7_Node000005_Node000007"><a xlink:title=" ">
<path fill="none" stroke="#63b8ff" d="M802,-567.09C802,-560.47 802,-551.47 802,-543.27"/>
<polygon fill="#63b8ff" stroke="#63b8ff" points="805.5,-543.34 802,-533.34 798.5,-543.34 805.5,-543.34"/>
</a>
</g>
</g>
<!-- Node7&#45;&gt;Node2 -->
<g id="edge8_Node000007_Node000002" class="edge">
<title>Node7&#45;&gt;Node2</title>
<g id="a_edge8_Node000007_Node000002"><a xlink:title=" ">
<path fill="none" stroke="#63b8ff" d="M830.44,-516.67C883.45,-508.46 992,-482.63 992,-408.62 992,-408.62 992,-408.62 992,-122.88 992,-46.76 723.9,-20.75 622.89,-13.65"/>
<polygon fill="#63b8ff" stroke="#63b8ff" points="623.43,-10.18 613.21,-13 622.96,-17.16 623.43,-10.18"/>
</a>
</g>
</g>
<!-- Node7&#45;&gt;Node4 -->
<g id="edge28_Node000007_Node000004" class="edge">
<title>Node7&#45;&gt;Node4</title>
<g id="a_edge28_Node000007_Node000004"><a xlink:title=" ">
<path fill="none" stroke="#63b8ff" d="M773.44,-517.41C677.25,-508.27 365.33,-478.62 260.63,-468.67"/>
<polygon fill="#63b8ff" stroke="#63b8ff" points="260.99,-465.19 250.7,-467.72 260.33,-472.15 260.99,-465.19"/>
</a>
</g>
</g>
<!-- Node8 -->
<g id="Node000008" class="node">
<title>Node8</title>
<g id="a_Node000008"><a xlink:href="sched_8h.html" target="_top" xlink:title="Scheduler API definition.">
<polygon fill="white" stroke="#666666" points="790.75,-247.75 737.25,-247.75 737.25,-227 790.75,-227 790.75,-247.75"/>
<text text-anchor="middle" x="764" y="-234.25" font-family="Helvetica,sans-Serif" font-size="10.00">sched.h</text>
</a>
</g>
</g>
<!-- Node7&#45;&gt;Node8 -->
<g id="edge9_Node000007_Node000008" class="edge">
<title>Node7&#45;&gt;Node8</title>
<g id="a_edge9_Node000007_Node000008"><a xlink:title=" ">
<path fill="none" stroke="#63b8ff" d="M802,-510.28C802,-490.85 802,-446.18 802,-408.62 802,-408.62 802,-408.62 802,-349.88 802,-316.26 786.34,-279.85 775.12,-258.09"/>
<polygon fill="#63b8ff" stroke="#63b8ff" points="778.31,-256.62 770.49,-249.47 772.14,-259.94 778.31,-256.62"/>
</a>
</g>
</g>
<!-- Node20 -->
<g id="Node000020" class="node">
<title>Node20</title>
<g id="a_Node000020"><a xlink:href="mutex_8h.html" target="_top" xlink:title="Mutex for thread synchronization.">
<polygon fill="white" stroke="#666666" points="480.25,-418 423.75,-418 423.75,-397.25 480.25,-397.25 480.25,-418"/>
<text text-anchor="middle" x="452" y="-404.5" font-family="Helvetica,sans-Serif" font-size="10.00">mutex.h</text>
</a>
</g>
</g>
<!-- Node7&#45;&gt;Node20 -->
<g id="edge29_Node000007_Node000020" class="edge">
<title>Node7&#45;&gt;Node20</title>
<g id="a_edge29_Node000007_Node000020"><a xlink:title=" ">
<path fill="none" stroke="#63b8ff" d="M773.36,-511C710.9,-491.1 562.39,-443.79 491.27,-421.14"/>
<polygon fill="#63b8ff" stroke="#63b8ff" points="492.58,-417.88 481.99,-418.18 490.45,-424.55 492.58,-417.88"/>
</a>
</g>
</g>
<!-- Node30 -->
<g id="Node000030" class="node">
<title>Node30</title>
<g id="a_Node000030"><a xlink:href="rmutex_8h.html" target="_top" xlink:title="Recursive Mutex for thread synchronization.">
<polygon fill="white" stroke="#666666" points="890.12,-474.75 829.88,-474.75 829.88,-454 890.12,-454 890.12,-474.75"/>
<text text-anchor="middle" x="860" y="-461.25" font-family="Helvetica,sans-Serif" font-size="10.00">rmutex.h</text>
</a>
</g>
</g>
<!-- Node7&#45;&gt;Node30 -->
<g id="edge53_Node000007_Node000030" class="edge">
<title>Node7&#45;&gt;Node30</title>
<g id="a_edge53_Node000007_Node000030"><a xlink:title=" ">
<path fill="none" stroke="#63b8ff" d="M812.37,-510.34C820.45,-502.71 831.88,-491.92 841.52,-482.82"/>
<polygon fill="#63b8ff" stroke="#63b8ff" points="843.75,-485.53 848.62,-476.12 838.95,-480.44 843.75,-485.53"/>
</a>
</g>
</g>
<!-- Node9 -->
<g id="Node000009" class="node">
<title>Node9</title>
<g id="a_Node000009"><a xlink:title=" ">
<polygon fill="#e0e0e0" stroke="#999999" points="840.5,-77.5 785.5,-77.5 785.5,-56.75 840.5,-56.75 840.5,-77.5"/>
<text text-anchor="middle" x="813" y="-64" font-family="Helvetica,sans-Serif" font-size="10.00">stddef.h</text>
</a>
</g>
</g>
<!-- Node8&#45;&gt;Node9 -->
<g id="edge10_Node000008_Node000009" class="edge">
<title>Node8&#45;&gt;Node9</title>
<g id="a_edge10_Node000008_Node000009"><a xlink:title=" ">
<path fill="none" stroke="#63b8ff" d="M780.09,-226.7C791.65,-218.74 806.32,-206.3 813,-191 827.54,-157.72 822.74,-114.37 817.9,-89.05"/>
<polygon fill="#63b8ff" stroke="#63b8ff" points="821.34,-88.44 815.84,-79.38 814.5,-89.89 821.34,-88.44"/>
</a>
</g>
</g>
<!-- Node10 -->
<g id="Node000010" class="node">
<title>Node10</title>
<g id="a_Node000010"><a xlink:href="inttypes_8h.html" target="_top" xlink:title="Adds include for missing inttype definitions.">
<polygon fill="white" stroke="#666666" points="366.38,-191 301.62,-191 301.62,-170.25 366.38,-170.25 366.38,-191"/>
<text text-anchor="middle" x="334" y="-177.5" font-family="Helvetica,sans-Serif" font-size="10.00">inttypes.h</text>
</a>
</g>
</g>
<!-- Node8&#45;&gt;Node10 -->
<g id="edge11_Node000008_Node000010" class="edge">
<title>Node8&#45;&gt;Node10</title>
<g id="a_edge11_Node000008_Node000010"><a xlink:title=" ">
<path fill="none" stroke="#63b8ff" d="M736.97,-228.86C733.96,-228.17 730.92,-227.53 728,-227 576.71,-199.73 533.18,-215.43 377.4,-191.02"/>
<polygon fill="#63b8ff" stroke="#63b8ff" points="378.41,-187.64 367.98,-189.51 377.3,-194.55 378.41,-187.64"/>
</a>
</g>
</g>
<!-- Node11 -->
<g id="Node000011" class="node">
<title>Node11</title>
<g id="a_Node000011"><a xlink:href="kernel__defines_8h.html" target="_top" xlink:title="Common macros and compiler attributes/pragmas configuration.">
<polygon fill="white" stroke="#666666" points="481.12,-191 384.88,-191 384.88,-170.25 481.12,-170.25 481.12,-191"/>
<text text-anchor="middle" x="433" y="-177.5" font-family="Helvetica,sans-Serif" font-size="10.00">kernel_defines.h</text>
</a>
</g>
</g>
<!-- Node8&#45;&gt;Node11 -->
<g id="edge12_Node000008_Node000011" class="edge">
<title>Node8&#45;&gt;Node11</title>
<g id="a_edge12_Node000008_Node000011"><a xlink:title=" ">
<path fill="none" stroke="#63b8ff" d="M736.94,-229.01C733.94,-228.29 730.91,-227.6 728,-227 647.07,-210.28 552.5,-196.79 492.68,-188.98"/>
<polygon fill="#63b8ff" stroke="#63b8ff" points="493.43,-185.55 483.06,-187.74 492.53,-192.49 493.43,-185.55"/>
</a>
</g>
</g>
<!-- Node16 -->
<g id="Node000016" class="node">
<title>Node16</title>
<g id="a_Node000016"><a xlink:href="native__sched_8h.html" target="_top" xlink:title="Add definitions required on the native board.">
<polygon fill="white" stroke="#666666" points="740.75,-191 651.25,-191 651.25,-170.25 740.75,-170.25 740.75,-191"/>
<text text-anchor="middle" x="696" y="-177.5" font-family="Helvetica,sans-Serif" font-size="10.00">native_sched.h</text>
</a>
</g>
</g>
<!-- Node8&#45;&gt;Node16 -->
<g id="edge23_Node000008_Node000016" class="edge">
<title>Node8&#45;&gt;Node16</title>
<g id="a_edge23_Node000008_Node000016"><a xlink:title=" ">
<path fill="none" stroke="#63b8ff" d="M751.84,-226.59C742.17,-218.8 728.42,-207.72 716.98,-198.51"/>
<polygon fill="#63b8ff" stroke="#63b8ff" points="719.21,-195.82 709.23,-192.28 714.82,-201.28 719.21,-195.82"/>
</a>
</g>
</g>
<!-- Node17 -->
<g id="Node000017" class="node">
<title>Node17</title>
<g id="a_Node000017"><a xlink:href="clist_8h.html" target="_top" xlink:title="Circular linked list.">
<polygon fill="white" stroke="#666666" points="803.62,-191 758.38,-191 758.38,-170.25 803.62,-170.25 803.62,-191"/>
<text text-anchor="middle" x="781" y="-177.5" font-family="Helvetica,sans-Serif" font-size="10.00">clist.h</text>
</a>
</g>
</g>
<!-- Node8&#45;&gt;Node17 -->
<g id="edge24_Node000008_Node000017" class="edge">
<title>Node8&#45;&gt;Node17</title>
<g id="a_edge24_Node000008_Node000017"><a xlink:title=" ">
<path fill="none" stroke="#63b8ff" d="M767.04,-226.59C769.14,-219.81 772.02,-210.55 774.61,-202.19"/>
<polygon fill="#63b8ff" stroke="#63b8ff" points="777.92,-203.36 777.54,-192.77 771.23,-201.29 777.92,-203.36"/>
</a>
</g>
</g>
<!-- Node11&#45;&gt;Node6 -->
<g id="edge13_Node000011_Node000006" class="edge">
<title>Node11&#45;&gt;Node6</title>
<g id="a_edge13_Node000011_Node000006"><a xlink:title=" ">
<path fill="none" stroke="#63b8ff" d="M411.9,-169.84C393.61,-161.35 366.9,-148.95 346.14,-139.33"/>
<polygon fill="#63b8ff" stroke="#63b8ff" points="347.83,-136.25 337.29,-135.22 344.88,-142.6 347.83,-136.25"/>
</a>
</g>
</g>
<!-- Node12 -->
<g id="Node000012" class="node">
<title>Node12</title>
<g id="a_Node000012"><a xlink:href="riot__version_8h.html" target="_top" xlink:title="Common macros and compiler attributes/pragmas configuration.">
<polygon fill="white" stroke="#666666" points="557.38,-77.5 474.62,-77.5 474.62,-56.75 557.38,-56.75 557.38,-77.5"/>
<text text-anchor="middle" x="516" y="-64" font-family="Helvetica,sans-Serif" font-size="10.00">riot_version.h</text>
</a>
</g>
</g>
<!-- Node11&#45;&gt;Node12 -->
<g id="edge14_Node000011_Node000012" class="edge">
<title>Node11&#45;&gt;Node12</title>
<g id="a_edge14_Node000011_Node000012"><a xlink:title=" ">
<path fill="none" stroke="#63b8ff" d="M442.33,-169.89C450.73,-160.93 463.22,-147.13 473,-134.25 484.5,-119.11 496.18,-100.93 504.46,-87.47"/>
<polygon fill="#63b8ff" stroke="#63b8ff" points="507.32,-89.5 509.51,-79.13 501.34,-85.87 507.32,-89.5"/>
</a>
</g>
</g>
<!-- Node13 -->
<g id="Node000013" class="node">
<title>Node13</title>
<g id="a_Node000013"><a xlink:href="compiler__hints_8h.html" target="_top" xlink:title="Common macros and compiler attributes/pragmas configuration.">
<polygon fill="white" stroke="#666666" points="463.5,-134.25 366.5,-134.25 366.5,-113.5 463.5,-113.5 463.5,-134.25"/>
<text text-anchor="middle" x="415" y="-120.75" font-family="Helvetica,sans-Serif" font-size="10.00">compiler_hints.h</text>
</a>
</g>
</g>
<!-- Node11&#45;&gt;Node13 -->
<g id="edge16_Node000011_Node000013" class="edge">
<title>Node11&#45;&gt;Node13</title>
<g id="a_edge16_Node000011_Node000013"><a xlink:title=" ">
<path fill="none" stroke="#63b8ff" d="M429.78,-169.84C427.56,-163.06 424.51,-153.8 421.76,-145.44"/>
<polygon fill="#63b8ff" stroke="#63b8ff" points="425.11,-144.42 418.66,-136.02 418.46,-146.61 425.11,-144.42"/>
</a>
</g>
</g>
<!-- Node15 -->
<g id="Node000015" class="node">
<title>Node15</title>
<g id="a_Node000015"><a xlink:href="container_8h.html" target="_top" xlink:title="Common macros and compiler attributes/pragmas configuration.">
<polygon fill="white" stroke="#666666" points="590.38,-134.25 519.62,-134.25 519.62,-113.5 590.38,-113.5 590.38,-134.25"/>
<text text-anchor="middle" x="555" y="-120.75" font-family="Helvetica,sans-Serif" font-size="10.00">container.h</text>
</a>
</g>
</g>
<!-- Node11&#45;&gt;Node15 -->
<g id="edge20_Node000011_Node000015" class="edge">
<title>Node11&#45;&gt;Node15</title>
<g id="a_edge20_Node000011_Node000015"><a xlink:title=" ">
<path fill="none" stroke="#63b8ff" d="M454.81,-169.84C473.81,-161.31 501.6,-148.84 523.09,-139.19"/>
<polygon fill="#63b8ff" stroke="#63b8ff" points="524.31,-142.49 532,-135.2 521.44,-136.1 524.31,-142.49"/>
</a>
</g>
</g>
<!-- Node12&#45;&gt;Node2 -->
<g id="edge15_Node000012_Node000002" class="edge">
<title>Node12&#45;&gt;Node2</title>
<g id="a_edge15_Node000012_Node000002"><a xlink:title=" ">
<path fill="none" stroke="#63b8ff" d="M528.34,-56.34C538.25,-48.47 552.39,-37.25 564.06,-27.99"/>
<polygon fill="#63b8ff" stroke="#63b8ff" points="565.93,-30.98 571.59,-22.02 561.58,-25.49 565.93,-30.98"/>
</a>
</g>
</g>
<!-- Node13&#45;&gt;Node2 -->
<g id="edge19_Node000013_Node000002" class="edge">
<title>Node13&#45;&gt;Node2</title>
<g id="a_edge19_Node000013_Node000002"><a xlink:title=" ">
<path fill="none" stroke="#63b8ff" d="M420.01,-113.44C427.98,-99.27 444.82,-72.49 466,-56.75 490.32,-38.68 522.69,-26.96 547.53,-19.96"/>
<polygon fill="#63b8ff" stroke="#63b8ff" points="548.14,-23.42 556.9,-17.46 546.34,-16.66 548.14,-23.42"/>
</a>
</g>
</g>
<!-- Node14 -->
<g id="Node000014" class="node">
<title>Node14</title>
<g id="a_Node000014"><a xlink:href="assert_8h.html" target="_top" xlink:title="POSIX.1&#45;2008 compliant version of the assert macro.">
<polygon fill="white" stroke="#666666" points="418.5,-77.5 363.5,-77.5 363.5,-56.75 418.5,-56.75 418.5,-77.5"/>
<text text-anchor="middle" x="391" y="-64" font-family="Helvetica,sans-Serif" font-size="10.00">assert.h</text>
</a>
</g>
</g>
<!-- Node13&#45;&gt;Node14 -->
<g id="edge17_Node000013_Node000014" class="edge">
<title>Node13&#45;&gt;Node14</title>
<g id="a_edge17_Node000013_Node000014"><a xlink:title=" ">
<path fill="none" stroke="#63b8ff" d="M410.71,-113.09C407.67,-106.16 403.49,-96.62 399.76,-88.11"/>
<polygon fill="#63b8ff" stroke="#63b8ff" points="403.08,-86.97 395.86,-79.21 396.67,-89.78 403.08,-86.97"/>
</a>
</g>
</g>
<!-- Node14&#45;&gt;Node2 -->
<g id="edge18_Node000014_Node000002" class="edge">
<title>Node14&#45;&gt;Node2</title>
<g id="a_edge18_Node000014_Node000002"><a xlink:title=" ">
<path fill="none" stroke="#63b8ff" d="M418.8,-58.28C452.5,-48.77 509.47,-32.69 547.16,-22.05"/>
<polygon fill="#63b8ff" stroke="#63b8ff" points="548.06,-25.44 556.74,-19.35 546.16,-18.7 548.06,-25.44"/>
</a>
</g>
</g>
<!-- Node15&#45;&gt;Node2 -->
<g id="edge22_Node000015_Node000002" class="edge">
<title>Node15&#45;&gt;Node2</title>
<g id="a_edge22_Node000015_Node000002"><a xlink:title=" ">
<path fill="none" stroke="#63b8ff" d="M557.56,-113.37C562.38,-95.44 572.93,-56.25 579.45,-32.01"/>
<polygon fill="#63b8ff" stroke="#63b8ff" points="582.75,-33.2 581.97,-22.64 575.99,-31.38 582.75,-33.2"/>
</a>
</g>
</g>
<!-- Node15&#45;&gt;Node9 -->
<g id="edge21_Node000015_Node000009" class="edge">
<title>Node15&#45;&gt;Node9</title>
<g id="a_edge21_Node000015_Node000009"><a xlink:title=" ">
<path fill="none" stroke="#63b8ff" d="M590.54,-115.3C593.4,-114.69 596.25,-114.08 599,-113.5 660.25,-100.48 731.38,-85.41 774.25,-76.33"/>
<polygon fill="#63b8ff" stroke="#63b8ff" points="774.76,-79.8 783.82,-74.3 773.31,-72.95 774.76,-79.8"/>
</a>
</g>
</g>
<!-- Node17&#45;&gt;Node9 -->
<g id="edge26_Node000017_Node000009" class="edge">
<title>Node17&#45;&gt;Node9</title>
<g id="a_edge26_Node000017_Node000009"><a xlink:title=" ">
<path fill="none" stroke="#63b8ff" d="M783.73,-170.12C788.87,-152.19 800.12,-113 807.08,-88.76"/>
<polygon fill="#63b8ff" stroke="#63b8ff" points="810.38,-89.96 809.77,-79.38 803.65,-88.03 810.38,-89.96"/>
</a>
</g>
</g>
<!-- Node18 -->
<g id="Node000018" class="node">
<title>Node18</title>
<g id="a_Node000018"><a xlink:title=" ">
<polygon fill="#e0e0e0" stroke="#999999" points="765.5,-134.25 704.5,-134.25 704.5,-113.5 765.5,-113.5 765.5,-134.25"/>
<text text-anchor="middle" x="735" y="-120.75" font-family="Helvetica,sans-Serif" font-size="10.00">stdbool.h</text>
</a>
</g>
</g>
<!-- Node17&#45;&gt;Node18 -->
<g id="edge25_Node000017_Node000018" class="edge">
<title>Node17&#45;&gt;Node18</title>
<g id="a_edge25_Node000017_Node000018"><a xlink:title=" ">
<path fill="none" stroke="#63b8ff" d="M772.78,-169.84C766.56,-162.44 757.85,-152.07 750.36,-143.16"/>
<polygon fill="#63b8ff" stroke="#63b8ff" points="753.24,-141.14 744.13,-135.74 747.88,-145.65 753.24,-141.14"/>
</a>
</g>
</g>
<!-- Node19 -->
<g id="Node000019" class="node">
<title>Node19</title>
<g id="a_Node000019"><a xlink:href="list_8h.html" target="_top" xlink:title="Intrusive linked list.">
<polygon fill="white" stroke="#666666" points="648,-134.25 608,-134.25 608,-113.5 648,-113.5 648,-134.25"/>
<text text-anchor="middle" x="628" y="-120.75" font-family="Helvetica,sans-Serif" font-size="10.00">list.h</text>
</a>
</g>
</g>
<!-- Node17&#45;&gt;Node19 -->
<g id="edge27_Node000017_Node000019" class="edge">
<title>Node17&#45;&gt;Node19</title>
<g id="a_edge27_Node000017_Node000019"><a xlink:title=" ">
<path fill="none" stroke="#63b8ff" d="M758.09,-171.43C731.63,-161.96 687.97,-146.34 658.61,-135.83"/>
<polygon fill="#63b8ff" stroke="#63b8ff" points="660.15,-132.66 649.55,-132.59 657.79,-139.25 660.15,-132.66"/>
</a>
</g>
</g>
<!-- Node20&#45;&gt;Node2 -->
<g id="edge31_Node000020_Node000002" class="edge">
<title>Node20&#45;&gt;Node2</title>
<g id="a_edge31_Node000020_Node000002"><a xlink:title=" ">
<path fill="none" stroke="#63b8ff" d="M423.57,-403.46C321.36,-390.67 -18.11,-335.35 47,-170.25 59.66,-138.14 71.44,-132.88 100,-113.5 157.26,-74.64 178,-74.06 245,-56.75 352.25,-29.04 483.15,-17.64 546.71,-13.48"/>
<polygon fill="#63b8ff" stroke="#63b8ff" points="546.86,-16.98 556.62,-12.86 546.42,-9.99 546.86,-16.98"/>
</a>
</g>
</g>
<!-- Node20&#45;&gt;Node9 -->
<g id="edge30_Node000020_Node000009" class="edge">
<title>Node20&#45;&gt;Node9</title>
<g id="a_edge30_Node000020_Node000009"><a xlink:title=" ">
<path fill="none" stroke="#63b8ff" d="M480.68,-405.92C581.84,-402.67 916,-385.12 916,-295.12 916,-295.12 916,-295.12 916,-179.62 916,-135.82 872.58,-101.9 842.12,-83.49"/>
<polygon fill="#63b8ff" stroke="#63b8ff" points="844.09,-80.58 833.68,-78.6 840.59,-86.64 844.09,-80.58"/>
</a>
</g>
</g>
<!-- Node20&#45;&gt;Node11 -->
<g id="edge38_Node000020_Node000011" class="edge">
<title>Node20&#45;&gt;Node11</title>
<g id="a_edge38_Node000020_Node000011"><a xlink:title=" ">
<path fill="none" stroke="#63b8ff" d="M423.42,-400.62C402.41,-394.54 375.3,-382.86 362,-361.25 330.65,-310.33 339.84,-278.04 371,-227 378.47,-214.76 390.6,-204.8 402.16,-197.36"/>
<polygon fill="#63b8ff" stroke="#63b8ff" points="403.94,-200.38 410.74,-192.25 400.36,-194.36 403.94,-200.38"/>
</a>
</g>
</g>
<!-- Node20&#45;&gt;Node18 -->
<g id="edge32_Node000020_Node000018" class="edge">
<title>Node20&#45;&gt;Node18</title>
<g id="a_edge32_Node000020_Node000018"><a xlink:title=" ">
<path fill="none" stroke="#63b8ff" d="M451.22,-396.92C449.94,-375.09 449.36,-321.11 471,-283.75 519.71,-199.65 632.26,-154.9 693.49,-136"/>
<polygon fill="#63b8ff" stroke="#63b8ff" points="694.28,-139.42 702.85,-133.21 692.27,-132.72 694.28,-139.42"/>
</a>
</g>
</g>
<!-- Node20&#45;&gt;Node19 -->
<g id="edge39_Node000020_Node000019" class="edge">
<title>Node20&#45;&gt;Node19</title>
<g id="a_edge39_Node000020_Node000019"><a xlink:title=" ">
<path fill="none" stroke="#63b8ff" d="M447.84,-396.95C439.32,-375.63 421.96,-323.35 438,-283.75 467.52,-210.88 551.79,-161.06 597.55,-138.53"/>
<polygon fill="#63b8ff" stroke="#63b8ff" points="598.89,-141.77 606.4,-134.3 595.87,-135.46 598.89,-141.77"/>
</a>
</g>
</g>
<!-- Node21 -->
<g id="Node000021" class="node">
<title>Node21</title>
<g id="a_Node000021"><a xlink:href="architecture_8h.html" target="_top" xlink:title="Platform&#45;independent access to architecture details.">
<polygon fill="white" stroke="#666666" points="261.75,-247.75 178.25,-247.75 178.25,-227 261.75,-227 261.75,-247.75"/>
<text text-anchor="middle" x="220" y="-234.25" font-family="Helvetica,sans-Serif" font-size="10.00">architecture.h</text>
</a>
</g>
</g>
<!-- Node20&#45;&gt;Node21 -->
<g id="edge33_Node000020_Node000021" class="edge">
<title>Node20&#45;&gt;Node21</title>
<g id="a_edge33_Node000020_Node000021"><a xlink:title=" ">
<path fill="none" stroke="#63b8ff" d="M423.3,-401.02C395.96,-394.67 354.55,-382.36 324,-361.25 282.99,-332.92 248.65,-284.44 231.59,-257.62"/>
<polygon fill="#63b8ff" stroke="#63b8ff" points="234.78,-256.12 226.53,-249.47 228.83,-259.81 234.78,-256.12"/>
</a>
</g>
</g>
<!-- Node24 -->
<g id="Node000024" class="node">
<title>Node24</title>
<g id="a_Node000024"><a xlink:href="core_2include_2thread_8h.html" target="_top" xlink:title="Threading API.">
<polygon fill="white" stroke="#666666" points="618.25,-361.25 561.75,-361.25 561.75,-340.5 618.25,-340.5 618.25,-361.25"/>
<text text-anchor="middle" x="590" y="-347.75" font-family="Helvetica,sans-Serif" font-size="10.00">thread.h</text>
</a>
</g>
</g>
<!-- Node20&#45;&gt;Node24 -->
<g id="edge40_Node000020_Node000024" class="edge">
<title>Node20&#45;&gt;Node24</title>
<g id="a_edge40_Node000020_Node000024"><a xlink:title=" ">
<path fill="none" stroke="#63b8ff" d="M476.67,-396.84C498.45,-388.19 530.46,-375.5 554.91,-365.8"/>
<polygon fill="#63b8ff" stroke="#63b8ff" points="556.13,-369.08 564.14,-362.14 553.55,-362.57 556.13,-369.08"/>
</a>
</g>
</g>
<!-- Node21&#45;&gt;Node2 -->
<g id="edge34_Node000021_Node000002" class="edge">
<title>Node21&#45;&gt;Node2</title>
<g id="a_edge34_Node000021_Node000002"><a xlink:title=" ">
<path fill="none" stroke="#63b8ff" d="M178.15,-234.39C120.1,-229.97 25.63,-215.76 57,-170.25 114.26,-87.17 435.28,-33.18 546.82,-16.71"/>
<polygon fill="#63b8ff" stroke="#63b8ff" points="547.26,-20.18 556.65,-15.28 546.25,-13.26 547.26,-20.18"/>
</a>
</g>
</g>
<!-- Node21&#45;&gt;Node10 -->
<g id="edge35_Node000021_Node000010" class="edge">
<title>Node21&#45;&gt;Node10</title>
<g id="a_edge35_Node000021_Node000010"><a xlink:title=" ">
<path fill="none" stroke="#63b8ff" d="M240.38,-226.59C257.97,-218.14 283.63,-205.82 303.63,-196.21"/>
<polygon fill="#63b8ff" stroke="#63b8ff" points="304.93,-199.47 312.43,-191.98 301.9,-193.16 304.93,-199.47"/>
</a>
</g>
</g>
<!-- Node22 -->
<g id="Node000022" class="node">
<title>Node22</title>
<g id="a_Node000022"><a xlink:title=" ">
<polygon fill="#e0e0e0" stroke="#999999" points="246.38,-191 193.62,-191 193.62,-170.25 246.38,-170.25 246.38,-191"/>
<text text-anchor="middle" x="220" y="-177.5" font-family="Helvetica,sans-Serif" font-size="10.00">limits.h</text>
</a>
</g>
</g>
<!-- Node21&#45;&gt;Node22 -->
<g id="edge36_Node000021_Node000022" class="edge">
<title>Node21&#45;&gt;Node22</title>
<g id="a_edge36_Node000021_Node000022"><a xlink:title=" ">
<path fill="none" stroke="#63b8ff" d="M220,-226.59C220,-219.97 220,-210.97 220,-202.77"/>
<polygon fill="#63b8ff" stroke="#63b8ff" points="223.5,-202.84 220,-192.84 216.5,-202.84 223.5,-202.84"/>
</a>
</g>
</g>
<!-- Node23 -->
<g id="Node000023" class="node">
<title>Node23</title>
<g id="a_Node000023"><a xlink:title=" ">
<polygon fill="#e0e0e0" stroke="#999999" points="175.88,-191 66.12,-191 66.12,-170.25 175.88,-170.25 175.88,-191"/>
<text text-anchor="middle" x="121" y="-177.5" font-family="Helvetica,sans-Serif" font-size="10.00">architecture_arch.h</text>
</a>
</g>
</g>
<!-- Node21&#45;&gt;Node23 -->
<g id="edge37_Node000021_Node000023" class="edge">
<title>Node21&#45;&gt;Node23</title>
<g id="a_edge37_Node000021_Node000023"><a xlink:title=" ">
<path fill="none" stroke="#63b8ff" d="M202.3,-226.59C187.38,-218.33 165.77,-206.38 148.58,-196.88"/>
<polygon fill="#63b8ff" stroke="#63b8ff" points="150.32,-193.84 139.87,-192.06 146.93,-199.96 150.32,-193.84"/>
</a>
</g>
</g>
<!-- Node24&#45;&gt;Node8 -->
<g id="edge48_Node000024_Node000008" class="edge">
<title>Node24&#45;&gt;Node8</title>
<g id="a_edge48_Node000024_Node000008"><a xlink:title=" ">
<path fill="none" stroke="#63b8ff" d="M618.73,-349.43C653.38,-347.32 711.18,-338.49 745,-304.5 756.86,-292.58 761.42,-273.78 763.13,-259.26"/>
<polygon fill="#63b8ff" stroke="#63b8ff" points="766.61,-259.64 763.88,-249.4 759.63,-259.11 766.61,-259.64"/>
</a>
</g>
</g>
<!-- Node24&#45;&gt;Node17 -->
<g id="edge41_Node000024_Node000017" class="edge">
<title>Node24&#45;&gt;Node17</title>
<g id="a_edge41_Node000024_Node000017"><a xlink:title=" ">
<path fill="none" stroke="#63b8ff" d="M618.52,-348.9C655.63,-346.29 720.94,-337.03 765,-304.5 795.41,-282.05 807.44,-264.05 800,-227 798.26,-218.34 794.82,-209.26 791.34,-201.53"/>
<polygon fill="#63b8ff" stroke="#63b8ff" points="794.58,-200.19 787.07,-192.72 788.28,-203.24 794.58,-200.19"/>
</a>
</g>
</g>
<!-- Node25 -->
<g id="Node000025" class="node">
<title>Node25</title>
<g id="a_Node000025"><a xlink:href="cib_8h.html" target="_top" xlink:title="Circular integer buffer interface.">
<polygon fill="white" stroke="#666666" points="419.62,-247.75 380.38,-247.75 380.38,-227 419.62,-227 419.62,-247.75"/>
<text text-anchor="middle" x="400" y="-234.25" font-family="Helvetica,sans-Serif" font-size="10.00">cib.h</text>
</a>
</g>
</g>
<!-- Node24&#45;&gt;Node25 -->
<g id="edge42_Node000024_Node000025" class="edge">
<title>Node24&#45;&gt;Node25</title>
<g id="a_edge42_Node000024_Node000025"><a xlink:title=" ">
<path fill="none" stroke="#63b8ff" d="M561.65,-342.44C536.61,-335.1 499.71,-322.39 471,-304.5 449.69,-291.22 429.12,-270.99 415.66,-256.4"/>
<polygon fill="#63b8ff" stroke="#63b8ff" points="418.55,-254.38 409.26,-249.29 413.35,-259.06 418.55,-254.38"/>
</a>
</g>
</g>
<!-- Node26 -->
<g id="Node000026" class="node">
<title>Node26</title>
<g id="a_Node000026"><a xlink:href="core_2include_2msg_8h.html" target="_top" xlink:title="Messaging API for inter process communication.">
<polygon fill="white" stroke="#666666" points="526,-304.5 480,-304.5 480,-283.75 526,-283.75 526,-304.5"/>
<text text-anchor="middle" x="503" y="-291" font-family="Helvetica,sans-Serif" font-size="10.00">msg.h</text>
</a>
</g>
</g>
<!-- Node24&#45;&gt;Node26 -->
<g id="edge44_Node000024_Node000026" class="edge">
<title>Node24&#45;&gt;Node26</title>
<g id="a_edge44_Node000024_Node000026"><a xlink:title=" ">
<path fill="none" stroke="#63b8ff" d="M574.45,-340.09C561.58,-331.99 543.06,-320.33 528.09,-310.92"/>
<polygon fill="#63b8ff" stroke="#63b8ff" points="530.03,-308 519.7,-305.63 526.3,-313.92 530.03,-308"/>
</a>
</g>
</g>
<!-- Node27 -->
<g id="Node000027" class="node">
<title>Node27</title>
<g id="a_Node000027"><a xlink:href="thread__config_8h.html" target="_top" xlink:title="Thread configuration defines.">
<polygon fill="white" stroke="#666666" points="635.88,-304.5 544.12,-304.5 544.12,-283.75 635.88,-283.75 635.88,-304.5"/>
<text text-anchor="middle" x="590" y="-291" font-family="Helvetica,sans-Serif" font-size="10.00">thread_config.h</text>
</a>
</g>
</g>
<!-- Node24&#45;&gt;Node27 -->
<g id="edge49_Node000024_Node000027" class="edge">
<title>Node24&#45;&gt;Node27</title>
<g id="a_edge49_Node000024_Node000027"><a xlink:title=" ">
<path fill="none" stroke="#63b8ff" d="M590,-340.09C590,-333.47 590,-324.47 590,-316.27"/>
<polygon fill="#63b8ff" stroke="#63b8ff" points="593.5,-316.34 590,-306.34 586.5,-316.34 593.5,-316.34"/>
</a>
</g>
</g>
<!-- Node29 -->
<g id="Node000029" class="node">
<title>Node29</title>
<g id="a_Node000029"><a xlink:title=" ">
<polygon fill="#e0e0e0" stroke="#999999" points="736.38,-304.5 653.62,-304.5 653.62,-283.75 736.38,-283.75 736.38,-304.5"/>
<text text-anchor="middle" x="695" y="-291" font-family="Helvetica,sans-Serif" font-size="10.00">thread_arch.h</text>
</a>
</g>
</g>
<!-- Node24&#45;&gt;Node29 -->
<g id="edge52_Node000024_Node000029" class="edge">
<title>Node24&#45;&gt;Node29</title>
<g id="a_edge52_Node000024_Node000029"><a xlink:title=" ">
<path fill="none" stroke="#63b8ff" d="M608.77,-340.09C624.75,-331.76 647.95,-319.66 666.26,-310.11"/>
<polygon fill="#63b8ff" stroke="#63b8ff" points="667.8,-313.26 675.05,-305.53 664.56,-307.05 667.8,-313.26"/>
</a>
</g>
</g>
<!-- Node25&#45;&gt;Node14 -->
<g id="edge43_Node000025_Node000014" class="edge">
<title>Node25&#45;&gt;Node14</title>
<g id="a_edge43_Node000025_Node000014"><a xlink:title=" ">
<path fill="none" stroke="#63b8ff" d="M380.26,-233.01C356.43,-227.94 316.63,-216.15 293,-191 274.69,-171.51 277.51,-160.61 273,-134.25 271.45,-125.16 267.78,-121.1 273,-113.5 290.61,-87.85 324.9,-76.7 352,-71.85"/>
<polygon fill="#63b8ff" stroke="#63b8ff" points="352.25,-75.35 361.6,-70.36 351.18,-68.43 352.25,-75.35"/>
</a>
</g>
</g>
<!-- Node26&#45;&gt;Node2 -->
<g id="edge45_Node000026_Node000002" class="edge">
<title>Node26&#45;&gt;Node2</title>
<g id="a_edge45_Node000026_Node000002"><a xlink:title=" ">
<path fill="none" stroke="#63b8ff" d="M511.2,-283.65C522.37,-270.76 543.06,-247.01 561,-227 583.84,-201.53 588.14,-193.75 613,-170.25 631.36,-152.89 646.18,-157.08 657,-134.25 675.64,-94.91 634.57,-51.55 607.11,-28.32"/>
<polygon fill="#63b8ff" stroke="#63b8ff" points="609.57,-25.8 599.6,-22.2 605.15,-31.23 609.57,-25.8"/>
</a>
</g>
</g>
<!-- Node26&#45;&gt;Node8 -->
<g id="edge47_Node000026_Node000008" class="edge">
<title>Node26&#45;&gt;Node8</title>
<g id="a_edge47_Node000026_Node000008"><a xlink:title=" ">
<path fill="none" stroke="#63b8ff" d="M526.35,-285.99C529.25,-285.19 532.18,-284.42 535,-283.75 616.38,-264.29 640.85,-266.53 725.7,-248.12"/>
<polygon fill="#63b8ff" stroke="#63b8ff" points="726.43,-251.54 735.44,-245.97 724.93,-244.71 726.43,-251.54"/>
</a>
</g>
</g>
<!-- Node26&#45;&gt;Node18 -->
<g id="edge46_Node000026_Node000018" class="edge">
<title>Node26&#45;&gt;Node18</title>
<g id="a_edge46_Node000026_Node000018"><a xlink:title=" ">
<path fill="none" stroke="#63b8ff" d="M516.2,-283.39C528.15,-274.44 546.12,-260.64 561,-247.75 598.67,-215.14 601.12,-198.74 642,-170.25 659.78,-157.86 681.46,-147.07 699.41,-139.12"/>
<polygon fill="#63b8ff" stroke="#63b8ff" points="700.57,-142.43 708.37,-135.27 697.8,-136 700.57,-142.43"/>
</a>
</g>
</g>
<!-- Node27&#45;&gt;Node8 -->
<g id="edge51_Node000027_Node000008" class="edge">
<title>Node27&#45;&gt;Node8</title>
<g id="a_edge51_Node000027_Node000008"><a xlink:title=" ">
<path fill="none" stroke="#63b8ff" d="M621.11,-283.34C650.45,-274.11 694.49,-260.25 725.92,-250.36"/>
<polygon fill="#63b8ff" stroke="#63b8ff" points="726.94,-253.7 735.43,-247.36 724.84,-247.03 726.94,-253.7"/>
</a>
</g>
</g>
<!-- Node28 -->
<g id="Node000028" class="node">
<title>Node28</title>
<g id="a_Node000028"><a xlink:title=" ">
<polygon fill="#e0e0e0" stroke="#999999" points="718.88,-247.75 651.12,-247.75 651.12,-227 718.88,-227 718.88,-247.75"/>
<text text-anchor="middle" x="685" y="-234.25" font-family="Helvetica,sans-Serif" font-size="10.00">cpu_conf.h</text>
</a>
</g>
</g>
<!-- Node27&#45;&gt;Node28 -->
<g id="edge50_Node000027_Node000028" class="edge">
<title>Node27&#45;&gt;Node28</title>
<g id="a_edge50_Node000027_Node000028"><a xlink:title=" ">
<path fill="none" stroke="#63b8ff" d="M606.98,-283.34C621.3,-275.08 642.04,-263.13 658.54,-253.63"/>
<polygon fill="#63b8ff" stroke="#63b8ff" points="659.94,-256.86 666.85,-248.83 656.44,-250.8 659.94,-256.86"/>
</a>
</g>
</g>
<!-- Node30&#45;&gt;Node2 -->
<g id="edge54_Node000030_Node000002" class="edge">
<title>Node30&#45;&gt;Node2</title>
<g id="a_edge54_Node000030_Node000002"><a xlink:title=" ">
<path fill="none" stroke="#63b8ff" d="M876.81,-453.76C903.84,-436.89 954,-399.22 954,-351.88 954,-351.88 954,-351.88 954,-122.88 954,-54.28 717.42,-24.05 623.12,-14.72"/>
<polygon fill="#63b8ff" stroke="#63b8ff" points="623.63,-11.26 613.34,-13.78 622.96,-18.22 623.63,-11.26"/>
</a>
</g>
</g>
<!-- Node30&#45;&gt;Node8 -->
<g id="edge56_Node000030_Node000008" class="edge">
<title>Node30&#45;&gt;Node8</title>
<g id="a_edge56_Node000030_Node000008"><a xlink:title=" ">
<path fill="none" stroke="#63b8ff" d="M859.64,-453.64C858.21,-425.32 851.06,-341.34 816,-283.75 809.11,-272.43 798.46,-262.42 788.59,-254.7"/>
<polygon fill="#63b8ff" stroke="#63b8ff" points="790.87,-252.03 780.73,-248.93 786.72,-257.67 790.87,-252.03"/>
</a>
</g>
</g>
<!-- Node30&#45;&gt;Node20 -->
<g id="edge55_Node000030_Node000020" class="edge">
<title>Node30&#45;&gt;Node20</title>
<g id="a_edge55_Node000030_Node000020"><a xlink:title=" ">
<path fill="none" stroke="#63b8ff" d="M829.67,-459.3C757.06,-449.56 573.26,-424.9 491.86,-413.97"/>
<polygon fill="#63b8ff" stroke="#63b8ff" points="492.49,-410.53 482.11,-412.67 491.56,-417.47 492.49,-410.53"/>
</a>
</g>
</g>
</g>
</svg>
