<?xml version="1.0" encoding="UTF-8" standalone="no"?>
<!DOCTYPE svg PUBLIC "-//W3C//DTD SVG 1.1//EN"
 "http://www.w3.org/Graphics/SVG/1.1/DTD/svg11.dtd">
<!-- Generated by graphviz version 12.1.1 (0)
 -->
<!-- Title: cpu/esp_common/include/gpio_arch_common.h Pages: 1 -->
<svg width="270pt" height="181pt"
 viewBox="0.00 0.00 269.75 180.50" xmlns="http://www.w3.org/2000/svg" xmlns:xlink="http://www.w3.org/1999/xlink">
<g id="graph0" class="graph" transform="scale(1 1) rotate(0) translate(4 176.5)">
<title>cpu/esp_common/include/gpio_arch_common.h</title>
<!-- Node1 -->
<g id="Node000001" class="node">
<title>Node1</title>
<g id="a_Node000001"><a xlink:title="Architecture specific GPIO functions for ESP SoCs.">
<polygon fill="#999999" stroke="#666666" points="203.75,-172.5 64,-172.5 64,-139 203.75,-139 203.75,-172.5"/>
<text text-anchor="start" x="72" y="-159" font-family="Helvetica,sans-Serif" font-size="10.00">cpu/esp_common/include</text>
<text text-anchor="middle" x="133.88" y="-146.25" font-family="Helvetica,sans-Serif" font-size="10.00">/gpio_arch_common.h</text>
</a>
</g>
</g>
<!-- Node2 -->
<g id="Node000002" class="node">
<title>Node2</title>
<g id="a_Node000002"><a xlink:href="esp32_2include_2gpio__arch_8h.html" target="_top" xlink:title="Architecture specific GPIO functions for ESP32.">
<polygon fill="white" stroke="#666666" points="127.75,-103 0,-103 0,-69.5 127.75,-69.5 127.75,-103"/>
<text text-anchor="start" x="8" y="-89.5" font-family="Helvetica,sans-Serif" font-size="10.00">cpu/esp32/include/gpio</text>
<text text-anchor="middle" x="63.88" y="-76.75" font-family="Helvetica,sans-Serif" font-size="10.00">_arch.h</text>
</a>
</g>
</g>
<!-- Node1&#45;&gt;Node2 -->
<g id="edge1_Node000001_Node000002" class="edge">
<title>Node1&#45;&gt;Node2</title>
<g id="a_edge1_Node000001_Node000002"><a xlink:title=" ">
<path fill="none" stroke="#63b8ff" d="M109.25,-131C99.67,-121.77 88.96,-111.44 80.34,-103.13"/>
<polygon fill="#63b8ff" stroke="#63b8ff" points="106.57,-133.28 116.2,-137.7 111.43,-128.24 106.57,-133.28"/>
</a>
</g>
</g>
<!-- Node4 -->
<g id="Node000004" class="node">
<title>Node4</title>
<g id="a_Node000004"><a xlink:href="esp8266_2include_2gpio__arch_8h.html" target="_top" xlink:title="Architecture specific GPIO functions for ESP8266.">
<polygon fill="white" stroke="#666666" points="261.75,-103 146,-103 146,-69.5 261.75,-69.5 261.75,-103"/>
<text text-anchor="start" x="154" y="-89.5" font-family="Helvetica,sans-Serif" font-size="10.00">cpu/esp8266/include</text>
<text text-anchor="middle" x="203.88" y="-76.75" font-family="Helvetica,sans-Serif" font-size="10.00">/gpio_arch.h</text>
</a>
</g>
</g>
<!-- Node1&#45;&gt;Node4 -->
<g id="edge3_Node000001_Node000004" class="edge">
<title>Node1&#45;&gt;Node4</title>
<g id="a_edge3_Node000001_Node000004"><a xlink:title=" ">
<path fill="none" stroke="#63b8ff" d="M158.5,-131C168.08,-121.77 178.79,-111.44 187.41,-103.13"/>
<polygon fill="#63b8ff" stroke="#63b8ff" points="156.32,-128.24 151.55,-137.7 161.18,-133.28 156.32,-128.24"/>
</a>
</g>
</g>
<!-- Node3 -->
<g id="Node000003" class="node">
<title>Node3</title>
<g id="a_Node000003"><a xlink:href="esp32_2include_2gpio__ll__arch_8h.html" target="_top" xlink:title="CPU specific part of the Peripheral GPIO Low&#45;Level API.">
<polygon fill="white" stroke="#666666" points="127.75,-33.5 0,-33.5 0,0 127.75,0 127.75,-33.5"/>
<text text-anchor="start" x="8" y="-20" font-family="Helvetica,sans-Serif" font-size="10.00">cpu/esp32/include/gpio</text>
<text text-anchor="middle" x="63.88" y="-7.25" font-family="Helvetica,sans-Serif" font-size="10.00">_ll_arch.h</text>
</a>
</g>
</g>
<!-- Node2&#45;&gt;Node3 -->
<g id="edge2_Node000002_Node000003" class="edge">
<title>Node2&#45;&gt;Node3</title>
<g id="a_edge2_Node000002_Node000003"><a xlink:title=" ">
<path fill="none" stroke="#63b8ff" d="M63.88,-57.81C63.88,-49.59 63.88,-40.84 63.88,-33.63"/>
<polygon fill="#63b8ff" stroke="#63b8ff" points="60.38,-57.74 63.88,-67.74 67.38,-57.74 60.38,-57.74"/>
</a>
</g>
</g>
</g>
</svg>
