<?xml version="1.0" encoding="UTF-8" standalone="no"?>
<!DOCTYPE svg PUBLIC "-//W3C//DTD SVG 1.1//EN"
 "http://www.w3.org/Graphics/SVG/1.1/DTD/svg11.dtd">
<!-- Generated by graphviz version 12.1.1 (0)
 -->
<!-- Title: sys/include/usb/hid.h Pages: 1 -->
<svg width="192pt" height="86pt"
 viewBox="0.00 0.00 191.75 85.50" xmlns="http://www.w3.org/2000/svg" xmlns:xlink="http://www.w3.org/1999/xlink">
<g id="graph0" class="graph" transform="scale(1 1) rotate(0) translate(4 81.5)">
<title>sys/include/usb/hid.h</title>
<!-- Node1 -->
<g id="Node000001" class="node">
<title>Node1</title>
<g id="a_Node000001"><a xlink:title="Definition for USB HID interfaces.">
<polygon fill="#999999" stroke="#666666" points="135.38,-77.5 17.38,-77.5 17.38,-56.75 135.38,-56.75 135.38,-77.5"/>
<text text-anchor="middle" x="76.38" y="-64" font-family="Helvetica,sans-Serif" font-size="10.00">sys/include/usb/hid.h</text>
</a>
</g>
</g>
<!-- Node2 -->
<g id="Node000002" class="node">
<title>Node2</title>
<g id="a_Node000002"><a xlink:title=" ">
<polygon fill="#e0e0e0" stroke="#999999" points="52.75,-20.75 0,-20.75 0,0 52.75,0 52.75,-20.75"/>
<text text-anchor="middle" x="26.38" y="-7.25" font-family="Helvetica,sans-Serif" font-size="10.00">stdint.h</text>
</a>
</g>
</g>
<!-- Node1&#45;&gt;Node2 -->
<g id="edge1_Node000001_Node000002" class="edge">
<title>Node1&#45;&gt;Node2</title>
<g id="a_edge1_Node000001_Node000002"><a xlink:title=" ">
<path fill="none" stroke="#63b8ff" d="M67.44,-56.34C60.61,-48.86 51.01,-38.36 42.82,-29.38"/>
<polygon fill="#63b8ff" stroke="#63b8ff" points="45.59,-27.22 36.26,-22.2 40.42,-31.94 45.59,-27.22"/>
</a>
</g>
</g>
<!-- Node3 -->
<g id="Node000003" class="node">
<title>Node3</title>
<g id="a_Node000003"><a xlink:href="hid__usage_8h.html" target="_top" xlink:title="Definition for USB HID usage tables.">
<polygon fill="white" stroke="#666666" points="183.75,-20.75 71,-20.75 71,0 183.75,0 183.75,-20.75"/>
<text text-anchor="middle" x="127.38" y="-7.25" font-family="Helvetica,sans-Serif" font-size="10.00">usb/hid/hid_usage.h</text>
</a>
</g>
</g>
<!-- Node1&#45;&gt;Node3 -->
<g id="edge2_Node000001_Node000003" class="edge">
<title>Node1&#45;&gt;Node3</title>
<g id="a_edge2_Node000001_Node000003"><a xlink:title=" ">
<path fill="none" stroke="#63b8ff" d="M85.49,-56.34C92.46,-48.86 102.24,-38.36 110.61,-29.38"/>
<polygon fill="#63b8ff" stroke="#63b8ff" points="113.05,-31.89 117.3,-22.19 107.93,-27.12 113.05,-31.89"/>
</a>
</g>
</g>
</g>
</svg>
