<?xml version="1.0" encoding="UTF-8" standalone="no"?>
<!DOCTYPE svg PUBLIC "-//W3C//DTD SVG 1.1//EN"
 "http://www.w3.org/Graphics/SVG/1.1/DTD/svg11.dtd">
<!-- Generated by graphviz version 12.1.1 (0)
 -->
<!-- Title: sys/include/usb/usbus/hid_io.h Pages: 1 -->
<svg width="828pt" height="382pt"
 viewBox="0.00 0.00 828.13 382.00" xmlns="http://www.w3.org/2000/svg" xmlns:xlink="http://www.w3.org/1999/xlink">
<g id="graph0" class="graph" transform="scale(1 1) rotate(0) translate(4 378)">
<title>sys/include/usb/usbus/hid_io.h</title>
<!-- Node1 -->
<g id="Node000001" class="node">
<title>Node1</title>
<g id="a_Node000001"><a xlink:title="USB HID callback and read/write functions.">
<polygon fill="#999999" stroke="#666666" points="488.25,-374 365.75,-374 365.75,-340.5 488.25,-340.5 488.25,-374"/>
<text text-anchor="start" x="373.75" y="-360.5" font-family="Helvetica,sans-Serif" font-size="10.00">sys/include/usb/usbus</text>
<text text-anchor="middle" x="427" y="-347.75" font-family="Helvetica,sans-Serif" font-size="10.00">/hid_io.h</text>
</a>
</g>
</g>
<!-- Node2 -->
<g id="Node000002" class="node">
<title>Node2</title>
<g id="a_Node000002"><a xlink:title=" ">
<polygon fill="#e0e0e0" stroke="#999999" points="372.38,-304.5 319.62,-304.5 319.62,-283.75 372.38,-283.75 372.38,-304.5"/>
<text text-anchor="middle" x="346" y="-291" font-family="Helvetica,sans-Serif" font-size="10.00">string.h</text>
</a>
</g>
</g>
<!-- Node1&#45;&gt;Node2 -->
<g id="edge1_Node000001_Node000002" class="edge">
<title>Node1&#45;&gt;Node2</title>
<g id="a_edge1_Node000001_Node000002"><a xlink:title=" ">
<path fill="none" stroke="#63b8ff" d="M405.72,-340.19C394.15,-331.46 379.85,-320.67 368.15,-311.84"/>
<polygon fill="#63b8ff" stroke="#63b8ff" points="370.34,-309.11 360.25,-305.88 366.12,-314.7 370.34,-309.11"/>
</a>
</g>
</g>
<!-- Node3 -->
<g id="Node000003" class="node">
<title>Node3</title>
<g id="a_Node000003"><a xlink:title=" ">
<polygon fill="#e0e0e0" stroke="#999999" points="360.38,-20.75 307.62,-20.75 307.62,0 360.38,0 360.38,-20.75"/>
<text text-anchor="middle" x="334" y="-7.25" font-family="Helvetica,sans-Serif" font-size="10.00">stdint.h</text>
</a>
</g>
</g>
<!-- Node1&#45;&gt;Node3 -->
<g id="edge2_Node000001_Node000003" class="edge">
<title>Node1&#45;&gt;Node3</title>
<g id="a_edge2_Node000001_Node000003"><a xlink:title=" ">
<path fill="none" stroke="#63b8ff" d="M488.68,-350.58C599.07,-338.71 819,-306.51 819,-238.38 819,-238.38 819,-238.38 819,-122.88 819,-92.3 823.5,-76.31 800,-56.75 767.36,-29.59 477.56,-16.54 372.13,-12.66"/>
<polygon fill="#63b8ff" stroke="#63b8ff" points="372.42,-9.17 362.3,-12.3 372.17,-16.16 372.42,-9.17"/>
</a>
</g>
</g>
<!-- Node4 -->
<g id="Node000004" class="node">
<title>Node4</title>
<g id="a_Node000004"><a xlink:href="usbus_8h.html" target="_top" xlink:title="USBUS basic interface.">
<polygon fill="white" stroke="#666666" points="463.88,-304.5 390.12,-304.5 390.12,-283.75 463.88,-283.75 463.88,-304.5"/>
<text text-anchor="middle" x="427" y="-291" font-family="Helvetica,sans-Serif" font-size="10.00">usb/usbus.h</text>
</a>
</g>
</g>
<!-- Node1&#45;&gt;Node4 -->
<g id="edge3_Node000001_Node000004" class="edge">
<title>Node1&#45;&gt;Node4</title>
<g id="a_edge3_Node000001_Node000004"><a xlink:title=" ">
<path fill="none" stroke="#63b8ff" d="M427,-340.19C427,-332.85 427,-324.07 427,-316.21"/>
<polygon fill="#63b8ff" stroke="#63b8ff" points="430.5,-316.48 427,-306.48 423.5,-316.48 430.5,-316.48"/>
</a>
</g>
</g>
<!-- Node4&#45;&gt;Node3 -->
<g id="edge4_Node000004_Node000003" class="edge">
<title>Node4&#45;&gt;Node3</title>
<g id="a_edge4_Node000004_Node000003"><a xlink:title=" ">
<path fill="none" stroke="#63b8ff" d="M389.88,-285.36C386.88,-284.79 383.89,-284.25 381,-283.75 294.63,-268.82 0,-269.28 0,-181.62 0,-181.62 0,-181.62 0,-122.88 0,-83.19 25.16,-75.74 60,-56.75 100.06,-34.92 230.6,-20.57 295.97,-14.57"/>
<polygon fill="#63b8ff" stroke="#63b8ff" points="296.23,-18.06 305.88,-13.68 295.6,-11.09 296.23,-18.06"/>
</a>
</g>
</g>
<!-- Node5 -->
<g id="Node000005" class="node">
<title>Node5</title>
<g id="a_Node000005"><a xlink:title=" ">
<polygon fill="#e0e0e0" stroke="#999999" points="636,-247.75 584,-247.75 584,-227 636,-227 636,-247.75"/>
<text text-anchor="middle" x="610" y="-234.25" font-family="Helvetica,sans-Serif" font-size="10.00">stdlib.h</text>
</a>
</g>
</g>
<!-- Node4&#45;&gt;Node5 -->
<g id="edge5_Node000004_Node000005" class="edge">
<title>Node4&#45;&gt;Node5</title>
<g id="a_edge5_Node000004_Node000005"><a xlink:title=" ">
<path fill="none" stroke="#63b8ff" d="M459.72,-283.34C491.49,-273.83 539.66,-259.42 572.86,-249.49"/>
<polygon fill="#63b8ff" stroke="#63b8ff" points="573.47,-252.96 582.05,-246.74 571.47,-246.25 573.47,-252.96"/>
</a>
</g>
</g>
<!-- Node6 -->
<g id="Node000006" class="node">
<title>Node6</title>
<g id="a_Node000006"><a xlink:href="clist_8h.html" target="_top" xlink:title="Circular linked list.">
<polygon fill="white" stroke="#666666" points="111.62,-134.25 66.38,-134.25 66.38,-113.5 111.62,-113.5 111.62,-134.25"/>
<text text-anchor="middle" x="89" y="-120.75" font-family="Helvetica,sans-Serif" font-size="10.00">clist.h</text>
</a>
</g>
</g>
<!-- Node4&#45;&gt;Node6 -->
<g id="edge6_Node000004_Node000006" class="edge">
<title>Node4&#45;&gt;Node6</title>
<g id="a_edge6_Node000004_Node000006"><a xlink:title=" ">
<path fill="none" stroke="#63b8ff" d="M407.71,-283.39C392.12,-275.04 370.05,-262.12 353,-247.75 317.96,-218.22 324.46,-193.55 285,-170.25 223.75,-134.09 195.95,-150.96 123.1,-134.51"/>
<polygon fill="#63b8ff" stroke="#63b8ff" points="124.03,-131.13 113.49,-132.18 122.39,-137.93 124.03,-131.13"/>
</a>
</g>
</g>
<!-- Node10 -->
<g id="Node000010" class="node">
<title>Node10</title>
<g id="a_Node000010"><a xlink:title=" ">
<polygon fill="#e0e0e0" stroke="#999999" points="276.38,-247.75 223.62,-247.75 223.62,-227 276.38,-227 276.38,-247.75"/>
<text text-anchor="middle" x="250" y="-234.25" font-family="Helvetica,sans-Serif" font-size="10.00">event.h</text>
</a>
</g>
</g>
<!-- Node4&#45;&gt;Node10 -->
<g id="edge10_Node000004_Node000010" class="edge">
<title>Node4&#45;&gt;Node10</title>
<g id="a_edge10_Node000004_Node000010"><a xlink:title=" ">
<path fill="none" stroke="#63b8ff" d="M395.36,-283.34C365.11,-273.98 319.51,-259.88 287.47,-249.96"/>
<polygon fill="#63b8ff" stroke="#63b8ff" points="288.78,-246.71 278.19,-247.09 286.71,-253.39 288.78,-246.71"/>
</a>
</g>
</g>
<!-- Node11 -->
<g id="Node000011" class="node">
<title>Node11</title>
<g id="a_Node000011"><a xlink:href="sched_8h.html" target="_top" xlink:title="Scheduler API definition.">
<polygon fill="white" stroke="#666666" points="190.75,-247.75 137.25,-247.75 137.25,-227 190.75,-227 190.75,-247.75"/>
<text text-anchor="middle" x="164" y="-234.25" font-family="Helvetica,sans-Serif" font-size="10.00">sched.h</text>
</a>
</g>
</g>
<!-- Node4&#45;&gt;Node11 -->
<g id="edge11_Node000004_Node000011" class="edge">
<title>Node4&#45;&gt;Node11</title>
<g id="a_edge11_Node000004_Node000011"><a xlink:title=" ">
<path fill="none" stroke="#63b8ff" d="M389.88,-285.4C340.09,-275.03 252.16,-256.73 201.95,-246.28"/>
<polygon fill="#63b8ff" stroke="#63b8ff" points="202.93,-242.9 192.42,-244.29 201.5,-249.76 202.93,-242.9"/>
</a>
</g>
</g>
<!-- Node14 -->
<g id="Node000014" class="node">
<title>Node14</title>
<g id="a_Node000014"><a xlink:href="modules_8h.html" target="_top" xlink:title="Common macros and compiler attributes/pragmas configuration.">
<polygon fill="white" stroke="#666666" points="501.5,-134.25 434.5,-134.25 434.5,-113.5 501.5,-113.5 501.5,-134.25"/>
<text text-anchor="middle" x="468" y="-120.75" font-family="Helvetica,sans-Serif" font-size="10.00">modules.h</text>
</a>
</g>
</g>
<!-- Node4&#45;&gt;Node14 -->
<g id="edge27_Node000004_Node000014" class="edge">
<title>Node4&#45;&gt;Node14</title>
<g id="a_edge27_Node000004_Node000014"><a xlink:title=" ">
<path fill="none" stroke="#63b8ff" d="M455.05,-283.36C471.01,-276.18 489.65,-264.7 499,-247.75 517.51,-214.21 496.5,-169.45 481.16,-144.25"/>
<polygon fill="#63b8ff" stroke="#63b8ff" points="484.23,-142.54 475.89,-136.01 478.33,-146.32 484.23,-142.54"/>
</a>
</g>
</g>
<!-- Node20 -->
<g id="Node000020" class="node">
<title>Node20</title>
<g id="a_Node000020"><a xlink:title=" ">
<polygon fill="#e0e0e0" stroke="#999999" points="416,-247.75 370,-247.75 370,-227 416,-227 416,-247.75"/>
<text text-anchor="middle" x="393" y="-234.25" font-family="Helvetica,sans-Serif" font-size="10.00">msg.h</text>
</a>
</g>
</g>
<!-- Node4&#45;&gt;Node20 -->
<g id="edge28_Node000004_Node000020" class="edge">
<title>Node4&#45;&gt;Node20</title>
<g id="a_edge28_Node000004_Node000020"><a xlink:title=" ">
<path fill="none" stroke="#63b8ff" d="M420.92,-283.34C416.52,-276.25 410.43,-266.44 405.06,-257.79"/>
<polygon fill="#63b8ff" stroke="#63b8ff" points="408.07,-256.01 399.82,-249.36 402.13,-259.71 408.07,-256.01"/>
</a>
</g>
</g>
<!-- Node21 -->
<g id="Node000021" class="node">
<title>Node21</title>
<g id="a_Node000021"><a xlink:title=" ">
<polygon fill="#e0e0e0" stroke="#999999" points="490.25,-247.75 433.75,-247.75 433.75,-227 490.25,-227 490.25,-247.75"/>
<text text-anchor="middle" x="462" y="-234.25" font-family="Helvetica,sans-Serif" font-size="10.00">thread.h</text>
</a>
</g>
</g>
<!-- Node4&#45;&gt;Node21 -->
<g id="edge29_Node000004_Node000021" class="edge">
<title>Node4&#45;&gt;Node21</title>
<g id="a_edge29_Node000004_Node000021"><a xlink:title=" ">
<path fill="none" stroke="#63b8ff" d="M433.26,-283.34C437.84,-276.17 444.2,-266.23 449.77,-257.51"/>
<polygon fill="#63b8ff" stroke="#63b8ff" points="452.54,-259.66 454.98,-249.35 446.65,-255.89 452.54,-259.66"/>
</a>
</g>
</g>
<!-- Node22 -->
<g id="Node000022" class="node">
<title>Node22</title>
<g id="a_Node000022"><a xlink:href="usb_8h.html" target="_top" xlink:title="Definition of global compile time configuration options.">
<polygon fill="white" stroke="#666666" points="791.12,-77.5 748.88,-77.5 748.88,-56.75 791.12,-56.75 791.12,-77.5"/>
<text text-anchor="middle" x="770" y="-64" font-family="Helvetica,sans-Serif" font-size="10.00">usb.h</text>
</a>
</g>
</g>
<!-- Node4&#45;&gt;Node22 -->
<g id="edge30_Node000004_Node000022" class="edge">
<title>Node4&#45;&gt;Node22</title>
<g id="a_edge30_Node000004_Node000022"><a xlink:title=" ">
<path fill="none" stroke="#63b8ff" d="M464.13,-292.94C509.91,-291.09 588.58,-282.56 645,-247.75 707.71,-209.06 747.14,-125.9 762.58,-87.86"/>
<polygon fill="#63b8ff" stroke="#63b8ff" points="765.66,-89.59 766.05,-79.01 759.14,-87.04 765.66,-89.59"/>
</a>
</g>
</g>
<!-- Node24 -->
<g id="Node000024" class="node">
<title>Node24</title>
<g id="a_Node000024"><a xlink:href="usbdev_8h.html" target="_top" xlink:title="Definitions low&#45;level USB driver interface.">
<polygon fill="white" stroke="#666666" points="725.62,-134.25 632.38,-134.25 632.38,-113.5 725.62,-113.5 725.62,-134.25"/>
<text text-anchor="middle" x="679" y="-120.75" font-family="Helvetica,sans-Serif" font-size="10.00">periph/usbdev.h</text>
</a>
</g>
</g>
<!-- Node4&#45;&gt;Node24 -->
<g id="edge32_Node000004_Node000024" class="edge">
<title>Node4&#45;&gt;Node24</title>
<g id="a_edge32_Node000004_Node000024"><a xlink:title=" ">
<path fill="none" stroke="#63b8ff" d="M448.79,-283.32C467.18,-274.75 493.94,-261.54 516,-247.75 570.23,-213.85 629.01,-166.68 658.97,-141.8"/>
<polygon fill="#63b8ff" stroke="#63b8ff" points="661.05,-144.62 666.48,-135.52 656.56,-139.25 661.05,-144.62"/>
</a>
</g>
</g>
<!-- Node27 -->
<g id="Node000027" class="node">
<title>Node27</title>
<g id="a_Node000027"><a xlink:href="descriptor_8h.html" target="_top" xlink:title="Definitions for USB protocol messages.">
<polygon fill="white" stroke="#666666" points="614,-134.25 520,-134.25 520,-113.5 614,-113.5 614,-134.25"/>
<text text-anchor="middle" x="567" y="-120.75" font-family="Helvetica,sans-Serif" font-size="10.00">usb/descriptor.h</text>
</a>
</g>
</g>
<!-- Node4&#45;&gt;Node27 -->
<g id="edge41_Node000004_Node000027" class="edge">
<title>Node4&#45;&gt;Node27</title>
<g id="a_edge41_Node000004_Node000027"><a xlink:title=" ">
<path fill="none" stroke="#63b8ff" d="M404.23,-283.43C379.8,-271.56 346.34,-250.16 361,-227 380.99,-195.42 403.45,-207.47 437,-191 471.96,-173.83 511.84,-153.43 538.1,-139.87"/>
<polygon fill="#63b8ff" stroke="#63b8ff" points="539.52,-143.08 546.79,-135.37 536.3,-136.86 539.52,-143.08"/>
</a>
</g>
</g>
<!-- Node7 -->
<g id="Node000007" class="node">
<title>Node7</title>
<g id="a_Node000007"><a xlink:title=" ">
<polygon fill="#e0e0e0" stroke="#999999" points="423.5,-77.5 362.5,-77.5 362.5,-56.75 423.5,-56.75 423.5,-77.5"/>
<text text-anchor="middle" x="393" y="-64" font-family="Helvetica,sans-Serif" font-size="10.00">stdbool.h</text>
</a>
</g>
</g>
<!-- Node6&#45;&gt;Node7 -->
<g id="edge7_Node000006_Node000007" class="edge">
<title>Node6&#45;&gt;Node7</title>
<g id="a_edge7_Node000006_Node000007"><a xlink:title=" ">
<path fill="none" stroke="#63b8ff" d="M111.99,-115.78C115,-114.96 118.07,-114.17 121,-113.5 201.65,-95.03 297.37,-80.82 351.06,-73.53"/>
<polygon fill="#63b8ff" stroke="#63b8ff" points="351.23,-77.04 360.67,-72.24 350.3,-70.1 351.23,-77.04"/>
</a>
</g>
</g>
<!-- Node8 -->
<g id="Node000008" class="node">
<title>Node8</title>
<g id="a_Node000008"><a xlink:title=" ">
<polygon fill="#e0e0e0" stroke="#999999" points="187.5,-77.5 132.5,-77.5 132.5,-56.75 187.5,-56.75 187.5,-77.5"/>
<text text-anchor="middle" x="160" y="-64" font-family="Helvetica,sans-Serif" font-size="10.00">stddef.h</text>
</a>
</g>
</g>
<!-- Node6&#45;&gt;Node8 -->
<g id="edge8_Node000006_Node000008" class="edge">
<title>Node6&#45;&gt;Node8</title>
<g id="a_edge8_Node000006_Node000008"><a xlink:title=" ">
<path fill="none" stroke="#63b8ff" d="M101.69,-113.09C111.89,-105.22 126.44,-94 138.46,-84.74"/>
<polygon fill="#63b8ff" stroke="#63b8ff" points="140.44,-87.63 146.22,-78.75 136.16,-82.09 140.44,-87.63"/>
</a>
</g>
</g>
<!-- Node9 -->
<g id="Node000009" class="node">
<title>Node9</title>
<g id="a_Node000009"><a xlink:href="list_8h.html" target="_top" xlink:title="Intrusive linked list.">
<polygon fill="white" stroke="#666666" points="109,-77.5 69,-77.5 69,-56.75 109,-56.75 109,-77.5"/>
<text text-anchor="middle" x="89" y="-64" font-family="Helvetica,sans-Serif" font-size="10.00">list.h</text>
</a>
</g>
</g>
<!-- Node6&#45;&gt;Node9 -->
<g id="edge9_Node000006_Node000009" class="edge">
<title>Node6&#45;&gt;Node9</title>
<g id="a_edge9_Node000006_Node000009"><a xlink:title=" ">
<path fill="none" stroke="#63b8ff" d="M89,-113.09C89,-106.47 89,-97.47 89,-89.27"/>
<polygon fill="#63b8ff" stroke="#63b8ff" points="92.5,-89.34 89,-79.34 85.5,-89.34 92.5,-89.34"/>
</a>
</g>
</g>
<!-- Node11&#45;&gt;Node6 -->
<g id="edge26_Node000011_Node000006" class="edge">
<title>Node11&#45;&gt;Node6</title>
<g id="a_edge26_Node000011_Node000006"><a xlink:title=" ">
<path fill="none" stroke="#63b8ff" d="M138.65,-226.51C123.32,-219.14 104.87,-207.48 95,-191 86.93,-177.52 85.75,-159.66 86.41,-145.89"/>
<polygon fill="#63b8ff" stroke="#63b8ff" points="89.88,-146.42 87.26,-136.16 82.91,-145.81 89.88,-146.42"/>
</a>
</g>
</g>
<!-- Node11&#45;&gt;Node8 -->
<g id="edge12_Node000011_Node000008" class="edge">
<title>Node11&#45;&gt;Node8</title>
<g id="a_edge12_Node000011_Node000008"><a xlink:title=" ">
<path fill="none" stroke="#63b8ff" d="M138.25,-226.62C121.09,-219.06 99.01,-207.13 84,-191 64.97,-170.55 63.15,-161.5 57,-134.25 54.97,-125.25 51.96,-121.22 57,-113.5 64.57,-101.9 95.33,-89.23 121.29,-80.24"/>
<polygon fill="#63b8ff" stroke="#63b8ff" points="122.24,-83.61 130.6,-77.11 120.01,-76.98 122.24,-83.61"/>
</a>
</g>
</g>
<!-- Node12 -->
<g id="Node000012" class="node">
<title>Node12</title>
<g id="a_Node000012"><a xlink:href="inttypes_8h.html" target="_top" xlink:title="Adds include for missing inttype definitions.">
<polygon fill="white" stroke="#666666" points="276.38,-191 211.62,-191 211.62,-170.25 276.38,-170.25 276.38,-191"/>
<text text-anchor="middle" x="244" y="-177.5" font-family="Helvetica,sans-Serif" font-size="10.00">inttypes.h</text>
</a>
</g>
</g>
<!-- Node11&#45;&gt;Node12 -->
<g id="edge13_Node000011_Node000012" class="edge">
<title>Node11&#45;&gt;Node12</title>
<g id="a_edge13_Node000011_Node000012"><a xlink:title=" ">
<path fill="none" stroke="#63b8ff" d="M178.3,-226.59C190.02,-218.57 206.84,-207.06 220.53,-197.69"/>
<polygon fill="#63b8ff" stroke="#63b8ff" points="222.3,-200.72 228.57,-192.18 218.34,-194.94 222.3,-200.72"/>
</a>
</g>
</g>
<!-- Node13 -->
<g id="Node000013" class="node">
<title>Node13</title>
<g id="a_Node000013"><a xlink:href="kernel__defines_8h.html" target="_top" xlink:title="Common macros and compiler attributes/pragmas configuration.">
<polygon fill="white" stroke="#666666" points="428.12,-191 331.88,-191 331.88,-170.25 428.12,-170.25 428.12,-191"/>
<text text-anchor="middle" x="380" y="-177.5" font-family="Helvetica,sans-Serif" font-size="10.00">kernel_defines.h</text>
</a>
</g>
</g>
<!-- Node11&#45;&gt;Node13 -->
<g id="edge14_Node000011_Node000013" class="edge">
<title>Node11&#45;&gt;Node13</title>
<g id="a_edge14_Node000011_Node000013"><a xlink:title=" ">
<path fill="none" stroke="#63b8ff" d="M190.92,-229.55C225.77,-220.72 287.17,-205.15 330.53,-194.16"/>
<polygon fill="#63b8ff" stroke="#63b8ff" points="331.12,-197.63 339.95,-191.78 329.4,-190.84 331.12,-197.63"/>
</a>
</g>
</g>
<!-- Node19 -->
<g id="Node000019" class="node">
<title>Node19</title>
<g id="a_Node000019"><a xlink:href="native__sched_8h.html" target="_top" xlink:title="Add definitions required on the native board.">
<polygon fill="white" stroke="#666666" points="193.75,-191 104.25,-191 104.25,-170.25 193.75,-170.25 193.75,-191"/>
<text text-anchor="middle" x="149" y="-177.5" font-family="Helvetica,sans-Serif" font-size="10.00">native_sched.h</text>
</a>
</g>
</g>
<!-- Node11&#45;&gt;Node19 -->
<g id="edge25_Node000011_Node000019" class="edge">
<title>Node11&#45;&gt;Node19</title>
<g id="a_edge25_Node000011_Node000019"><a xlink:title=" ">
<path fill="none" stroke="#63b8ff" d="M161.32,-226.59C159.46,-219.81 156.92,-210.55 154.63,-202.19"/>
<polygon fill="#63b8ff" stroke="#63b8ff" points="158.08,-201.51 152.06,-192.79 151.33,-203.36 158.08,-201.51"/>
</a>
</g>
</g>
<!-- Node13&#45;&gt;Node14 -->
<g id="edge15_Node000013_Node000014" class="edge">
<title>Node13&#45;&gt;Node14</title>
<g id="a_edge15_Node000013_Node000014"><a xlink:title=" ">
<path fill="none" stroke="#63b8ff" d="M395.73,-169.84C408.87,-161.66 427.84,-149.86 443.05,-140.4"/>
<polygon fill="#63b8ff" stroke="#63b8ff" points="444.48,-143.63 451.12,-135.38 440.78,-137.69 444.48,-143.63"/>
</a>
</g>
</g>
<!-- Node15 -->
<g id="Node000015" class="node">
<title>Node15</title>
<g id="a_Node000015"><a xlink:href="riot__version_8h.html" target="_top" xlink:title="Common macros and compiler attributes/pragmas configuration.">
<polygon fill="white" stroke="#666666" points="301.38,-134.25 218.62,-134.25 218.62,-113.5 301.38,-113.5 301.38,-134.25"/>
<text text-anchor="middle" x="260" y="-120.75" font-family="Helvetica,sans-Serif" font-size="10.00">riot_version.h</text>
</a>
</g>
</g>
<!-- Node13&#45;&gt;Node15 -->
<g id="edge16_Node000013_Node000015" class="edge">
<title>Node13&#45;&gt;Node15</title>
<g id="a_edge16_Node000013_Node000015"><a xlink:title=" ">
<path fill="none" stroke="#63b8ff" d="M358.55,-169.84C339.95,-161.35 312.78,-148.95 291.67,-139.33"/>
<polygon fill="#63b8ff" stroke="#63b8ff" points="293.2,-136.17 282.64,-135.21 290.29,-142.54 293.2,-136.17"/>
</a>
</g>
</g>
<!-- Node16 -->
<g id="Node000016" class="node">
<title>Node16</title>
<g id="a_Node000016"><a xlink:href="compiler__hints_8h.html" target="_top" xlink:title="Common macros and compiler attributes/pragmas configuration.">
<polygon fill="white" stroke="#666666" points="416.5,-134.25 319.5,-134.25 319.5,-113.5 416.5,-113.5 416.5,-134.25"/>
<text text-anchor="middle" x="368" y="-120.75" font-family="Helvetica,sans-Serif" font-size="10.00">compiler_hints.h</text>
</a>
</g>
</g>
<!-- Node13&#45;&gt;Node16 -->
<g id="edge18_Node000013_Node000016" class="edge">
<title>Node13&#45;&gt;Node16</title>
<g id="a_edge18_Node000013_Node000016"><a xlink:title=" ">
<path fill="none" stroke="#63b8ff" d="M377.85,-169.84C376.39,-163.14 374.39,-154.01 372.57,-145.73"/>
<polygon fill="#63b8ff" stroke="#63b8ff" points="376.01,-145.08 370.45,-136.06 369.17,-146.57 376.01,-145.08"/>
</a>
</g>
</g>
<!-- Node18 -->
<g id="Node000018" class="node">
<title>Node18</title>
<g id="a_Node000018"><a xlink:href="container_8h.html" target="_top" xlink:title="Common macros and compiler attributes/pragmas configuration.">
<polygon fill="white" stroke="#666666" points="200.38,-134.25 129.62,-134.25 129.62,-113.5 200.38,-113.5 200.38,-134.25"/>
<text text-anchor="middle" x="165" y="-120.75" font-family="Helvetica,sans-Serif" font-size="10.00">container.h</text>
</a>
</g>
</g>
<!-- Node13&#45;&gt;Node18 -->
<g id="edge22_Node000013_Node000018" class="edge">
<title>Node13&#45;&gt;Node18</title>
<g id="a_edge22_Node000013_Node000018"><a xlink:title=" ">
<path fill="none" stroke="#63b8ff" d="M341.56,-169.84C305.17,-160.57 250.48,-146.64 211.62,-136.75"/>
<polygon fill="#63b8ff" stroke="#63b8ff" points="212.63,-133.39 202.07,-134.32 210.9,-140.18 212.63,-133.39"/>
</a>
</g>
</g>
<!-- Node15&#45;&gt;Node3 -->
<g id="edge17_Node000015_Node000003" class="edge">
<title>Node15&#45;&gt;Node3</title>
<g id="a_edge17_Node000015_Node000003"><a xlink:title=" ">
<path fill="none" stroke="#63b8ff" d="M266.31,-113.37C278.43,-95.11 305.17,-54.81 321.18,-30.7"/>
<polygon fill="#63b8ff" stroke="#63b8ff" points="324.05,-32.7 326.66,-22.44 318.21,-28.83 324.05,-32.7"/>
</a>
</g>
</g>
<!-- Node16&#45;&gt;Node3 -->
<g id="edge21_Node000016_Node000003" class="edge">
<title>Node16&#45;&gt;Node3</title>
<g id="a_edge21_Node000016_Node000003"><a xlink:title=" ">
<path fill="none" stroke="#63b8ff" d="M352.23,-113.13C340.9,-105.13 326.53,-92.67 320,-77.5 313.62,-62.68 318.13,-44.71 323.67,-31.24"/>
<polygon fill="#63b8ff" stroke="#63b8ff" points="326.68,-33.07 327.72,-22.53 320.33,-30.12 326.68,-33.07"/>
</a>
</g>
</g>
<!-- Node17 -->
<g id="Node000017" class="node">
<title>Node17</title>
<g id="a_Node000017"><a xlink:href="assert_8h.html" target="_top" xlink:title="POSIX.1&#45;2008 compliant version of the assert macro.">
<polygon fill="white" stroke="#666666" points="496.5,-77.5 441.5,-77.5 441.5,-56.75 496.5,-56.75 496.5,-77.5"/>
<text text-anchor="middle" x="469" y="-64" font-family="Helvetica,sans-Serif" font-size="10.00">assert.h</text>
</a>
</g>
</g>
<!-- Node16&#45;&gt;Node17 -->
<g id="edge19_Node000016_Node000017" class="edge">
<title>Node16&#45;&gt;Node17</title>
<g id="a_edge19_Node000016_Node000017"><a xlink:title=" ">
<path fill="none" stroke="#63b8ff" d="M386.06,-113.09C401.42,-104.76 423.74,-92.66 441.36,-83.11"/>
<polygon fill="#63b8ff" stroke="#63b8ff" points="442.65,-86.39 449.77,-78.55 439.31,-80.24 442.65,-86.39"/>
</a>
</g>
</g>
<!-- Node17&#45;&gt;Node3 -->
<g id="edge20_Node000017_Node000003" class="edge">
<title>Node17&#45;&gt;Node3</title>
<g id="a_edge20_Node000017_Node000003"><a xlink:title=" ">
<path fill="none" stroke="#63b8ff" d="M444.86,-56.34C423.56,-47.69 392.25,-35 368.33,-25.3"/>
<polygon fill="#63b8ff" stroke="#63b8ff" points="369.91,-22.16 359.33,-21.65 367.28,-28.65 369.91,-22.16"/>
</a>
</g>
</g>
<!-- Node18&#45;&gt;Node3 -->
<g id="edge24_Node000018_Node000003" class="edge">
<title>Node18&#45;&gt;Node3</title>
<g id="a_edge24_Node000018_Node000003"><a xlink:title=" ">
<path fill="none" stroke="#63b8ff" d="M179.7,-113.18C208.92,-93.9 274.52,-50.62 310.04,-27.18"/>
<polygon fill="#63b8ff" stroke="#63b8ff" points="311.53,-30.39 317.95,-21.97 307.67,-24.55 311.53,-30.39"/>
</a>
</g>
</g>
<!-- Node18&#45;&gt;Node8 -->
<g id="edge23_Node000018_Node000008" class="edge">
<title>Node18&#45;&gt;Node8</title>
<g id="a_edge23_Node000018_Node000008"><a xlink:title=" ">
<path fill="none" stroke="#63b8ff" d="M164.11,-113.09C163.5,-106.47 162.68,-97.47 161.93,-89.27"/>
<polygon fill="#63b8ff" stroke="#63b8ff" points="165.42,-88.98 161.02,-79.34 158.45,-89.61 165.42,-88.98"/>
</a>
</g>
</g>
<!-- Node23 -->
<g id="Node000023" class="node">
<title>Node23</title>
<g id="a_Node000023"><a xlink:title=" ">
<polygon fill="#e0e0e0" stroke="#999999" points="796.38,-20.75 743.62,-20.75 743.62,0 796.38,0 796.38,-20.75"/>
<text text-anchor="middle" x="770" y="-7.25" font-family="Helvetica,sans-Serif" font-size="10.00">board.h</text>
</a>
</g>
</g>
<!-- Node22&#45;&gt;Node23 -->
<g id="edge31_Node000022_Node000023" class="edge">
<title>Node22&#45;&gt;Node23</title>
<g id="a_edge31_Node000022_Node000023"><a xlink:title=" ">
<path fill="none" stroke="#63b8ff" d="M770,-56.34C770,-49.72 770,-40.72 770,-32.52"/>
<polygon fill="#63b8ff" stroke="#63b8ff" points="773.5,-32.59 770,-22.59 766.5,-32.59 773.5,-32.59"/>
</a>
</g>
</g>
<!-- Node24&#45;&gt;Node3 -->
<g id="edge34_Node000024_Node000003" class="edge">
<title>Node24&#45;&gt;Node3</title>
<g id="a_edge34_Node000024_Node000003"><a xlink:title=" ">
<path fill="none" stroke="#63b8ff" d="M644.25,-113.03C616.61,-104.77 577.19,-92.01 544,-77.5 526.37,-69.79 523.88,-63.87 506,-56.75 461.4,-39 407.56,-26.07 372.13,-18.66"/>
<polygon fill="#63b8ff" stroke="#63b8ff" points="372.84,-15.23 362.35,-16.66 371.44,-22.09 372.84,-15.23"/>
</a>
</g>
</g>
<!-- Node24&#45;&gt;Node7 -->
<g id="edge33_Node000024_Node000007" class="edge">
<title>Node24&#45;&gt;Node7</title>
<g id="a_edge33_Node000024_Node000007"><a xlink:title=" ">
<path fill="none" stroke="#63b8ff" d="M632.17,-114.92C584.9,-106.75 509.55,-93.29 434.97,-77.83"/>
<polygon fill="#63b8ff" stroke="#63b8ff" points="435.96,-74.47 425.46,-75.85 434.53,-81.32 435.96,-74.47"/>
</a>
</g>
</g>
<!-- Node24&#45;&gt;Node8 -->
<g id="edge35_Node000024_Node000008" class="edge">
<title>Node24&#45;&gt;Node8</title>
<g id="a_edge35_Node000024_Node000008"><a xlink:title=" ">
<path fill="none" stroke="#63b8ff" d="M631.98,-114.76C628.95,-114.31 625.93,-113.89 623,-113.5 466.69,-92.78 279.52,-77.27 199.46,-71.08"/>
<polygon fill="#63b8ff" stroke="#63b8ff" points="199.75,-67.59 189.51,-70.32 199.21,-74.57 199.75,-67.59"/>
</a>
</g>
</g>
<!-- Node24&#45;&gt;Node17 -->
<g id="edge36_Node000024_Node000017" class="edge">
<title>Node24&#45;&gt;Node17</title>
<g id="a_edge36_Node000024_Node000017"><a xlink:title=" ">
<path fill="none" stroke="#63b8ff" d="M641.46,-113.09C603.66,-103.23 545.64,-88.11 507.51,-78.16"/>
<polygon fill="#63b8ff" stroke="#63b8ff" points="508.86,-74.9 498.3,-75.76 507.09,-81.67 508.86,-74.9"/>
</a>
</g>
</g>
<!-- Node24&#45;&gt;Node22 -->
<g id="edge38_Node000024_Node000022" class="edge">
<title>Node24&#45;&gt;Node22</title>
<g id="a_edge38_Node000024_Node000022"><a xlink:title=" ">
<path fill="none" stroke="#63b8ff" d="M695.27,-113.09C708.86,-104.91 728.47,-93.11 744.2,-83.65"/>
<polygon fill="#63b8ff" stroke="#63b8ff" points="745.81,-86.76 752.57,-78.61 742.2,-80.77 745.81,-86.76"/>
</a>
</g>
</g>
<!-- Node25 -->
<g id="Node000025" class="node">
<title>Node25</title>
<g id="a_Node000025"><a xlink:title=" ">
<polygon fill="#e0e0e0" stroke="#999999" points="730.62,-77.5 649.38,-77.5 649.38,-56.75 730.62,-56.75 730.62,-77.5"/>
<text text-anchor="middle" x="690" y="-64" font-family="Helvetica,sans-Serif" font-size="10.00">periph_conf.h</text>
</a>
</g>
</g>
<!-- Node24&#45;&gt;Node25 -->
<g id="edge37_Node000024_Node000025" class="edge">
<title>Node24&#45;&gt;Node25</title>
<g id="a_edge37_Node000024_Node000025"><a xlink:title=" ">
<path fill="none" stroke="#63b8ff" d="M680.97,-113.09C682.31,-106.39 684.15,-97.26 685.81,-88.98"/>
<polygon fill="#63b8ff" stroke="#63b8ff" points="689.21,-89.81 687.75,-79.31 682.35,-88.43 689.21,-89.81"/>
</a>
</g>
</g>
<!-- Node26 -->
<g id="Node000026" class="node">
<title>Node26</title>
<g id="a_Node000026"><a xlink:href="usbopt_8h.html" target="_top" xlink:title="Definition of global USB peripheral and USB peripheral endpoint configuration options.">
<polygon fill="white" stroke="#666666" points="631.12,-77.5 552.88,-77.5 552.88,-56.75 631.12,-56.75 631.12,-77.5"/>
<text text-anchor="middle" x="592" y="-64" font-family="Helvetica,sans-Serif" font-size="10.00">usb/usbopt.h</text>
</a>
</g>
</g>
<!-- Node24&#45;&gt;Node26 -->
<g id="edge39_Node000024_Node000026" class="edge">
<title>Node24&#45;&gt;Node26</title>
<g id="a_edge39_Node000024_Node000026"><a xlink:title=" ">
<path fill="none" stroke="#63b8ff" d="M663.45,-113.09C650.58,-104.99 632.06,-93.33 617.09,-83.92"/>
<polygon fill="#63b8ff" stroke="#63b8ff" points="619.03,-81 608.7,-78.63 615.3,-86.92 619.03,-81"/>
</a>
</g>
</g>
<!-- Node26&#45;&gt;Node3 -->
<g id="edge40_Node000026_Node000003" class="edge">
<title>Node26&#45;&gt;Node3</title>
<g id="a_edge40_Node000026_Node000003"><a xlink:title=" ">
<path fill="none" stroke="#63b8ff" d="M552.53,-57.75C503.5,-47.34 420.41,-29.71 372.05,-19.45"/>
<polygon fill="#63b8ff" stroke="#63b8ff" points="372.82,-16.04 362.31,-17.38 371.37,-22.88 372.82,-16.04"/>
</a>
</g>
</g>
<!-- Node27&#45;&gt;Node3 -->
<g id="edge42_Node000027_Node000003" class="edge">
<title>Node27&#45;&gt;Node3</title>
<g id="a_edge42_Node000027_Node000003"><a xlink:title=" ">
<path fill="none" stroke="#63b8ff" d="M519.65,-114.05C458.78,-102.52 360.13,-83.14 354,-77.5 341.45,-65.96 336.67,-46.84 334.9,-32.12"/>
<polygon fill="#63b8ff" stroke="#63b8ff" points="338.42,-32.25 334.14,-22.56 331.44,-32.81 338.42,-32.25"/>
</a>
</g>
</g>
<!-- Node27&#45;&gt;Node7 -->
<g id="edge43_Node000027_Node000007" class="edge">
<title>Node27&#45;&gt;Node7</title>
<g id="a_edge43_Node000027_Node000007"><a xlink:title=" ">
<path fill="none" stroke="#63b8ff" d="M535.89,-113.09C507.68,-104.21 465.88,-91.06 434.77,-81.27"/>
<polygon fill="#63b8ff" stroke="#63b8ff" points="435.87,-77.95 425.28,-78.28 433.77,-84.62 435.87,-77.95"/>
</a>
</g>
</g>
</g>
</svg>
