<?xml version="1.0" encoding="UTF-8" standalone="no"?>
<!DOCTYPE svg PUBLIC "-//W3C//DTD SVG 1.1//EN"
 "http://www.w3.org/Graphics/SVG/1.1/DTD/svg11.dtd">
<!-- Generated by graphviz version 12.1.1 (0)
 -->
<!-- Title: drivers/hts221/include/hts221_params.h Pages: 1 -->
<svg width="646pt" height="212pt"
 viewBox="0.00 0.00 645.88 211.75" xmlns="http://www.w3.org/2000/svg" xmlns:xlink="http://www.w3.org/1999/xlink">
<g id="graph0" class="graph" transform="scale(1 1) rotate(0) translate(4 207.75)">
<title>drivers/hts221/include/hts221_params.h</title>
<!-- Node1 -->
<g id="Node000001" class="node">
<title>Node1</title>
<g id="a_Node000001"><a xlink:title="Default configuration for ST HTS221 devices.">
<polygon fill="#999999" stroke="#666666" points="254.38,-203.75 130.38,-203.75 130.38,-170.25 254.38,-170.25 254.38,-203.75"/>
<text text-anchor="start" x="138.38" y="-190.25" font-family="Helvetica,sans-Serif" font-size="10.00">drivers/hts221/include</text>
<text text-anchor="middle" x="192.38" y="-177.5" font-family="Helvetica,sans-Serif" font-size="10.00">/hts221_params.h</text>
</a>
</g>
</g>
<!-- Node2 -->
<g id="Node000002" class="node">
<title>Node2</title>
<g id="a_Node000002"><a xlink:title=" ">
<polygon fill="#e0e0e0" stroke="#999999" points="52.75,-20.75 0,-20.75 0,0 52.75,0 52.75,-20.75"/>
<text text-anchor="middle" x="26.38" y="-7.25" font-family="Helvetica,sans-Serif" font-size="10.00">board.h</text>
</a>
</g>
</g>
<!-- Node1&#45;&gt;Node2 -->
<g id="edge1_Node000001_Node000002" class="edge">
<title>Node1&#45;&gt;Node2</title>
<g id="a_edge1_Node000001_Node000002"><a xlink:title=" ">
<path fill="none" stroke="#63b8ff" d="M177.06,-169.88C145.96,-137.18 75.66,-63.22 43.28,-29.16"/>
<polygon fill="#63b8ff" stroke="#63b8ff" points="46.04,-26.98 36.61,-22.14 40.96,-31.8 46.04,-26.98"/>
</a>
</g>
</g>
<!-- Node3 -->
<g id="Node000003" class="node">
<title>Node3</title>
<g id="a_Node000003"><a xlink:href="hts221_8h.html" target="_top" xlink:title="Interface definition for the ST HTS221 driver.">
<polygon fill="white" stroke="#666666" points="250.38,-134.25 192.38,-134.25 192.38,-113.5 250.38,-113.5 250.38,-134.25"/>
<text text-anchor="middle" x="221.38" y="-120.75" font-family="Helvetica,sans-Serif" font-size="10.00">hts221.h</text>
</a>
</g>
</g>
<!-- Node1&#45;&gt;Node3 -->
<g id="edge2_Node000001_Node000003" class="edge">
<title>Node1&#45;&gt;Node3</title>
<g id="a_edge2_Node000001_Node000003"><a xlink:title=" ">
<path fill="none" stroke="#63b8ff" d="M199.99,-169.94C203.64,-162.26 208.04,-152.98 211.9,-144.84"/>
<polygon fill="#63b8ff" stroke="#63b8ff" points="214.93,-146.62 216.06,-136.08 208.61,-143.62 214.93,-146.62"/>
</a>
</g>
</g>
<!-- Node10 -->
<g id="Node000010" class="node">
<title>Node10</title>
<g id="a_Node000010"><a xlink:href="hts221__regs_8h.html" target="_top" xlink:title="Register definitions for ST HTS221 devices.">
<polygon fill="white" stroke="#666666" points="206.5,-77.5 122.25,-77.5 122.25,-56.75 206.5,-56.75 206.5,-77.5"/>
<text text-anchor="middle" x="164.38" y="-64" font-family="Helvetica,sans-Serif" font-size="10.00">hts221_regs.h</text>
</a>
</g>
</g>
<!-- Node1&#45;&gt;Node10 -->
<g id="edge13_Node000001_Node000010" class="edge">
<title>Node1&#45;&gt;Node10</title>
<g id="a_edge13_Node000001_Node000010"><a xlink:title=" ">
<path fill="none" stroke="#63b8ff" d="M188.6,-170.1C183.61,-149.12 174.82,-112.12 169.32,-88.93"/>
<polygon fill="#63b8ff" stroke="#63b8ff" points="172.77,-88.33 167.05,-79.41 165.96,-89.94 172.77,-88.33"/>
</a>
</g>
</g>
<!-- Node11 -->
<g id="Node000011" class="node">
<title>Node11</title>
<g id="a_Node000011"><a xlink:href="saul__reg_8h.html" target="_top" xlink:title="SAUL registry interface definition.">
<polygon fill="white" stroke="#666666" points="422.5,-134.25 356.25,-134.25 356.25,-113.5 422.5,-113.5 422.5,-134.25"/>
<text text-anchor="middle" x="389.38" y="-120.75" font-family="Helvetica,sans-Serif" font-size="10.00">saul_reg.h</text>
</a>
</g>
</g>
<!-- Node1&#45;&gt;Node11 -->
<g id="edge14_Node000001_Node000011" class="edge">
<title>Node1&#45;&gt;Node11</title>
<g id="a_edge14_Node000001_Node000011"><a xlink:title=" ">
<path fill="none" stroke="#63b8ff" d="M244.65,-169.78C276.59,-159.87 316.92,-147.36 346.88,-138.06"/>
<polygon fill="#63b8ff" stroke="#63b8ff" points="347.86,-141.42 356.38,-135.11 345.79,-134.73 347.86,-141.42"/>
</a>
</g>
</g>
<!-- Node4 -->
<g id="Node000004" class="node">
<title>Node4</title>
<g id="a_Node000004"><a xlink:title=" ">
<polygon fill="#e0e0e0" stroke="#999999" points="390.75,-20.75 338,-20.75 338,0 390.75,0 390.75,-20.75"/>
<text text-anchor="middle" x="364.38" y="-7.25" font-family="Helvetica,sans-Serif" font-size="10.00">stdint.h</text>
</a>
</g>
</g>
<!-- Node3&#45;&gt;Node4 -->
<g id="edge3_Node000003_Node000004" class="edge">
<title>Node3&#45;&gt;Node4</title>
<g id="a_edge3_Node000003_Node000004"><a xlink:title=" ">
<path fill="none" stroke="#63b8ff" d="M245.43,-113.11C263.52,-105.11 288.36,-92.64 307.38,-77.5 324.55,-63.83 340.54,-44.46 351.18,-30.21"/>
<polygon fill="#63b8ff" stroke="#63b8ff" points="354.01,-32.28 357.04,-22.13 348.34,-28.17 354.01,-32.28"/>
</a>
</g>
</g>
<!-- Node5 -->
<g id="Node000005" class="node">
<title>Node5</title>
<g id="a_Node000005"><a xlink:href="i2c_8h.html" target="_top" xlink:title="Low&#45;level I2C peripheral driver interface definition.">
<polygon fill="white" stroke="#666666" points="297.88,-77.5 224.88,-77.5 224.88,-56.75 297.88,-56.75 297.88,-77.5"/>
<text text-anchor="middle" x="261.38" y="-64" font-family="Helvetica,sans-Serif" font-size="10.00">periph/i2c.h</text>
</a>
</g>
</g>
<!-- Node3&#45;&gt;Node5 -->
<g id="edge4_Node000003_Node000005" class="edge">
<title>Node3&#45;&gt;Node5</title>
<g id="a_edge4_Node000003_Node000005"><a xlink:title=" ">
<path fill="none" stroke="#63b8ff" d="M228.53,-113.09C233.82,-105.85 241.19,-95.76 247.6,-86.97"/>
<polygon fill="#63b8ff" stroke="#63b8ff" points="250.32,-89.19 253.39,-79.05 244.67,-85.06 250.32,-89.19"/>
</a>
</g>
</g>
<!-- Node3&#45;&gt;Node10 -->
<g id="edge10_Node000003_Node000010" class="edge">
<title>Node3&#45;&gt;Node10</title>
<g id="a_edge10_Node000003_Node000010"><a xlink:title=" ">
<path fill="none" stroke="#63b8ff" d="M205.87,-113.09C196.65,-105.61 185.35,-95.11 176.73,-86.13"/>
<polygon fill="#63b8ff" stroke="#63b8ff" points="179.52,-83.99 170.2,-78.95 174.34,-88.7 179.52,-83.99"/>
</a>
</g>
</g>
<!-- Node5&#45;&gt;Node4 -->
<g id="edge5_Node000005_Node000004" class="edge">
<title>Node5&#45;&gt;Node4</title>
<g id="a_edge5_Node000005_Node000004"><a xlink:title=" ">
<path fill="none" stroke="#63b8ff" d="M279.79,-56.34C295.46,-48.01 318.22,-35.91 336.19,-26.36"/>
<polygon fill="#63b8ff" stroke="#63b8ff" points="337.6,-29.57 344.78,-21.79 334.31,-23.39 337.6,-29.57"/>
</a>
</g>
</g>
<!-- Node6 -->
<g id="Node000006" class="node">
<title>Node6</title>
<g id="a_Node000006"><a xlink:title=" ">
<polygon fill="#e0e0e0" stroke="#999999" points="463.88,-20.75 408.88,-20.75 408.88,0 463.88,0 463.88,-20.75"/>
<text text-anchor="middle" x="436.38" y="-7.25" font-family="Helvetica,sans-Serif" font-size="10.00">stddef.h</text>
</a>
</g>
</g>
<!-- Node5&#45;&gt;Node6 -->
<g id="edge6_Node000005_Node000006" class="edge">
<title>Node5&#45;&gt;Node6</title>
<g id="a_edge6_Node000005_Node000006"><a xlink:title=" ">
<path fill="none" stroke="#63b8ff" d="M292.66,-56.34C322.12,-47.12 366.33,-33.29 397.93,-23.4"/>
<polygon fill="#63b8ff" stroke="#63b8ff" points="398.59,-26.86 407.09,-20.54 396.5,-20.18 398.59,-26.86"/>
</a>
</g>
</g>
<!-- Node7 -->
<g id="Node000007" class="node">
<title>Node7</title>
<g id="a_Node000007"><a xlink:title=" ">
<polygon fill="#e0e0e0" stroke="#999999" points="220.75,-20.75 168,-20.75 168,0 220.75,0 220.75,-20.75"/>
<text text-anchor="middle" x="194.38" y="-7.25" font-family="Helvetica,sans-Serif" font-size="10.00">limits.h</text>
</a>
</g>
</g>
<!-- Node5&#45;&gt;Node7 -->
<g id="edge7_Node000005_Node000007" class="edge">
<title>Node5&#45;&gt;Node7</title>
<g id="a_edge7_Node000005_Node000007"><a xlink:title=" ">
<path fill="none" stroke="#63b8ff" d="M249.4,-56.34C239.87,-48.55 226.31,-37.47 215.04,-28.26"/>
<polygon fill="#63b8ff" stroke="#63b8ff" points="217.38,-25.65 207.42,-22.04 212.95,-31.07 217.38,-25.65"/>
</a>
</g>
</g>
<!-- Node8 -->
<g id="Node000008" class="node">
<title>Node8</title>
<g id="a_Node000008"><a xlink:title=" ">
<polygon fill="#e0e0e0" stroke="#999999" points="320,-20.75 238.75,-20.75 238.75,0 320,0 320,-20.75"/>
<text text-anchor="middle" x="279.38" y="-7.25" font-family="Helvetica,sans-Serif" font-size="10.00">periph_conf.h</text>
</a>
</g>
</g>
<!-- Node5&#45;&gt;Node8 -->
<g id="edge8_Node000005_Node000008" class="edge">
<title>Node5&#45;&gt;Node8</title>
<g id="a_edge8_Node000005_Node000008"><a xlink:title=" ">
<path fill="none" stroke="#63b8ff" d="M264.59,-56.34C266.82,-49.56 269.87,-40.3 272.61,-31.94"/>
<polygon fill="#63b8ff" stroke="#63b8ff" points="275.91,-33.11 275.71,-22.52 269.26,-30.92 275.91,-33.11"/>
</a>
</g>
</g>
<!-- Node9 -->
<g id="Node000009" class="node">
<title>Node9</title>
<g id="a_Node000009"><a xlink:title=" ">
<polygon fill="#e0e0e0" stroke="#999999" points="149.5,-20.75 71.25,-20.75 71.25,0 149.5,0 149.5,-20.75"/>
<text text-anchor="middle" x="110.38" y="-7.25" font-family="Helvetica,sans-Serif" font-size="10.00">periph_cpu.h</text>
</a>
</g>
</g>
<!-- Node5&#45;&gt;Node9 -->
<g id="edge9_Node000005_Node000009" class="edge">
<title>Node5&#45;&gt;Node9</title>
<g id="a_edge9_Node000005_Node000009"><a xlink:title=" ">
<path fill="none" stroke="#63b8ff" d="M234.38,-56.34C210.3,-47.61 174.8,-34.73 147.95,-25"/>
<polygon fill="#63b8ff" stroke="#63b8ff" points="149.41,-21.8 138.81,-21.69 147.02,-28.39 149.41,-21.8"/>
</a>
</g>
</g>
<!-- Node10&#45;&gt;Node2 -->
<g id="edge11_Node000010_Node000002" class="edge">
<title>Node10&#45;&gt;Node2</title>
<g id="a_edge11_Node000010_Node000002"><a xlink:title=" ">
<path fill="none" stroke="#63b8ff" d="M139.7,-56.34C117.92,-47.69 85.92,-35 61.47,-25.3"/>
<polygon fill="#63b8ff" stroke="#63b8ff" points="62.83,-22.07 52.24,-21.64 60.24,-28.58 62.83,-22.07"/>
</a>
</g>
</g>
<!-- Node10&#45;&gt;Node3 -->
<g id="edge12_Node000010_Node000003" class="edge">
<title>Node10&#45;&gt;Node3</title>
<g id="a_edge12_Node000010_Node000003"><a xlink:title=" ">
<path fill="none" stroke="#63b8ff" d="M179.78,-77.83C188.98,-85.28 200.28,-95.78 208.92,-104.77"/>
<polygon fill="#63b8ff" stroke="#63b8ff" points="206.16,-106.94 215.48,-111.97 211.33,-102.22 206.16,-106.94"/>
</a>
</g>
</g>
<!-- Node11&#45;&gt;Node4 -->
<g id="edge15_Node000011_Node000004" class="edge">
<title>Node11&#45;&gt;Node4</title>
<g id="a_edge15_Node000011_Node000004"><a xlink:title=" ">
<path fill="none" stroke="#63b8ff" d="M387.24,-113.37C383.24,-95.52 374.52,-56.61 369.08,-32.34"/>
<polygon fill="#63b8ff" stroke="#63b8ff" points="372.51,-31.64 366.9,-22.65 365.68,-33.18 372.51,-31.64"/>
</a>
</g>
</g>
<!-- Node12 -->
<g id="Node000012" class="node">
<title>Node12</title>
<g id="a_Node000012"><a xlink:title=" ">
<polygon fill="#e0e0e0" stroke="#999999" points="438,-77.5 392.75,-77.5 392.75,-56.75 438,-56.75 438,-77.5"/>
<text text-anchor="middle" x="415.38" y="-64" font-family="Helvetica,sans-Serif" font-size="10.00">saul.h</text>
</a>
</g>
</g>
<!-- Node11&#45;&gt;Node12 -->
<g id="edge16_Node000011_Node000012" class="edge">
<title>Node11&#45;&gt;Node12</title>
<g id="a_edge16_Node000011_Node000012"><a xlink:title=" ">
<path fill="none" stroke="#63b8ff" d="M394.02,-113.09C397.31,-106.16 401.84,-96.62 405.88,-88.11"/>
<polygon fill="#63b8ff" stroke="#63b8ff" points="408.99,-89.73 410.12,-79.2 402.67,-86.73 408.99,-89.73"/>
</a>
</g>
</g>
<!-- Node13 -->
<g id="Node000013" class="node">
<title>Node13</title>
<g id="a_Node000013"><a xlink:href="phydat_8h.html" target="_top" xlink:title="Generic data container for physical data interface.">
<polygon fill="white" stroke="#666666" points="514.75,-77.5 456,-77.5 456,-56.75 514.75,-56.75 514.75,-77.5"/>
<text text-anchor="middle" x="485.38" y="-64" font-family="Helvetica,sans-Serif" font-size="10.00">phydat.h</text>
</a>
</g>
</g>
<!-- Node11&#45;&gt;Node13 -->
<g id="edge17_Node000011_Node000013" class="edge">
<title>Node11&#45;&gt;Node13</title>
<g id="a_edge17_Node000011_Node000013"><a xlink:title=" ">
<path fill="none" stroke="#63b8ff" d="M406.54,-113.09C421.01,-104.83 441.96,-92.88 458.63,-83.38"/>
<polygon fill="#63b8ff" stroke="#63b8ff" points="460.09,-86.57 467.05,-78.58 456.63,-80.49 460.09,-86.57"/>
</a>
</g>
</g>
<!-- Node13&#45;&gt;Node4 -->
<g id="edge19_Node000013_Node000004" class="edge">
<title>Node13&#45;&gt;Node4</title>
<g id="a_edge19_Node000013_Node000004"><a xlink:title=" ">
<path fill="none" stroke="#63b8ff" d="M463.74,-56.34C444.9,-47.81 417.34,-35.34 396.02,-25.69"/>
<polygon fill="#63b8ff" stroke="#63b8ff" points="397.75,-22.64 387.2,-21.7 394.87,-29.01 397.75,-22.64"/>
</a>
</g>
</g>
<!-- Node13&#45;&gt;Node6 -->
<g id="edge18_Node000013_Node000006" class="edge">
<title>Node13&#45;&gt;Node6</title>
<g id="a_edge18_Node000013_Node000006"><a xlink:title=" ">
<path fill="none" stroke="#63b8ff" d="M476.61,-56.34C469.93,-48.86 460.52,-38.36 452.49,-29.38"/>
<polygon fill="#63b8ff" stroke="#63b8ff" points="455.35,-27.32 446.07,-22.21 450.13,-31.99 455.35,-27.32"/>
</a>
</g>
</g>
<!-- Node14 -->
<g id="Node000014" class="node">
<title>Node14</title>
<g id="a_Node000014"><a xlink:title=" ">
<polygon fill="#e0e0e0" stroke="#999999" points="553.12,-20.75 481.62,-20.75 481.62,0 553.12,0 553.12,-20.75"/>
<text text-anchor="middle" x="517.38" y="-7.25" font-family="Helvetica,sans-Serif" font-size="10.00">sys/types.h</text>
</a>
</g>
</g>
<!-- Node13&#45;&gt;Node14 -->
<g id="edge20_Node000013_Node000014" class="edge">
<title>Node13&#45;&gt;Node14</title>
<g id="a_edge20_Node000013_Node000014"><a xlink:title=" ">
<path fill="none" stroke="#63b8ff" d="M491.1,-56.34C495.24,-49.25 500.97,-39.44 506.03,-30.79"/>
<polygon fill="#63b8ff" stroke="#63b8ff" points="508.92,-32.78 510.94,-22.39 502.87,-29.25 508.92,-32.78"/>
</a>
</g>
</g>
<!-- Node15 -->
<g id="Node000015" class="node">
<title>Node15</title>
<g id="a_Node000015"><a xlink:href="modules_8h.html" target="_top" xlink:title="Common macros and compiler attributes/pragmas configuration.">
<polygon fill="white" stroke="#666666" points="637.88,-20.75 570.88,-20.75 570.88,0 637.88,0 637.88,-20.75"/>
<text text-anchor="middle" x="604.38" y="-7.25" font-family="Helvetica,sans-Serif" font-size="10.00">modules.h</text>
</a>
</g>
</g>
<!-- Node13&#45;&gt;Node15 -->
<g id="edge21_Node000013_Node000015" class="edge">
<title>Node13&#45;&gt;Node15</title>
<g id="a_edge21_Node000013_Node000015"><a xlink:title=" ">
<path fill="none" stroke="#63b8ff" d="M506.65,-56.34C525.09,-47.85 552.04,-35.45 572.97,-25.83"/>
<polygon fill="#63b8ff" stroke="#63b8ff" points="574.29,-29.07 581.91,-21.71 571.36,-22.71 574.29,-29.07"/>
</a>
</g>
</g>
</g>
</svg>
