<?xml version="1.0" encoding="UTF-8" standalone="no"?>
<!DOCTYPE svg PUBLIC "-//W3C//DTD SVG 1.1//EN"
 "http://www.w3.org/Graphics/SVG/1.1/DTD/svg11.dtd">
<!-- Generated by graphviz version 12.1.1 (0)
 -->
<!-- Title: drivers/include/hts221.h Pages: 1 -->
<svg width="472pt" height="142pt"
 viewBox="0.00 0.00 471.75 142.25" xmlns="http://www.w3.org/2000/svg" xmlns:xlink="http://www.w3.org/1999/xlink">
<g id="graph0" class="graph" transform="scale(1 1) rotate(0) translate(4 138.25)">
<title>drivers/include/hts221.h</title>
<!-- Node1 -->
<g id="Node000001" class="node">
<title>Node1</title>
<g id="a_Node000001"><a xlink:title="Interface definition for the ST HTS221 driver.">
<polygon fill="#999999" stroke="#666666" points="284.88,-134.25 151.88,-134.25 151.88,-113.5 284.88,-113.5 284.88,-134.25"/>
<text text-anchor="middle" x="218.38" y="-120.75" font-family="Helvetica,sans-Serif" font-size="10.00">drivers/include/hts221.h</text>
</a>
</g>
</g>
<!-- Node2 -->
<g id="Node000002" class="node">
<title>Node2</title>
<g id="a_Node000002"><a xlink:title=" ">
<polygon fill="#e0e0e0" stroke="#999999" points="52.75,-20.75 0,-20.75 0,0 52.75,0 52.75,-20.75"/>
<text text-anchor="middle" x="26.38" y="-7.25" font-family="Helvetica,sans-Serif" font-size="10.00">stdint.h</text>
</a>
</g>
</g>
<!-- Node1&#45;&gt;Node2 -->
<g id="edge1_Node000001_Node000002" class="edge">
<title>Node1&#45;&gt;Node2</title>
<g id="a_edge1_Node000001_Node000002"><a xlink:title=" ">
<path fill="none" stroke="#63b8ff" d="M196.14,-113.06C177.03,-104.37 148.9,-91.01 125.38,-77.5 98.36,-61.98 68.84,-41.82 49.13,-27.85"/>
<polygon fill="#63b8ff" stroke="#63b8ff" points="51.18,-25.02 41.01,-22.05 47.11,-30.71 51.18,-25.02"/>
</a>
</g>
</g>
<!-- Node3 -->
<g id="Node000003" class="node">
<title>Node3</title>
<g id="a_Node000003"><a xlink:href="i2c_8h.html" target="_top" xlink:title="Low&#45;level I2C peripheral driver interface definition.">
<polygon fill="white" stroke="#666666" points="206.88,-77.5 133.88,-77.5 133.88,-56.75 206.88,-56.75 206.88,-77.5"/>
<text text-anchor="middle" x="170.38" y="-64" font-family="Helvetica,sans-Serif" font-size="10.00">periph/i2c.h</text>
</a>
</g>
</g>
<!-- Node1&#45;&gt;Node3 -->
<g id="edge2_Node000001_Node000003" class="edge">
<title>Node1&#45;&gt;Node3</title>
<g id="a_edge2_Node000001_Node000003"><a xlink:title=" ">
<path fill="none" stroke="#63b8ff" d="M209.79,-113.09C203.31,-105.69 194.22,-95.32 186.4,-86.41"/>
<polygon fill="#63b8ff" stroke="#63b8ff" points="189.1,-84.18 179.88,-78.97 183.84,-88.79 189.1,-84.18"/>
</a>
</g>
</g>
<!-- Node8 -->
<g id="Node000008" class="node">
<title>Node8</title>
<g id="a_Node000008"><a xlink:href="hts221__regs_8h.html" target="_top" xlink:title="Register definitions for ST HTS221 devices.">
<polygon fill="white" stroke="#666666" points="309.5,-77.5 225.25,-77.5 225.25,-56.75 309.5,-56.75 309.5,-77.5"/>
<text text-anchor="middle" x="267.38" y="-64" font-family="Helvetica,sans-Serif" font-size="10.00">hts221_regs.h</text>
</a>
</g>
</g>
<!-- Node1&#45;&gt;Node8 -->
<g id="edge8_Node000001_Node000008" class="edge">
<title>Node1&#45;&gt;Node8</title>
<g id="a_edge8_Node000001_Node000008"><a xlink:title=" ">
<path fill="none" stroke="#63b8ff" d="M221.82,-113.09C227.13,-105.53 236.31,-94.89 245.15,-85.85"/>
<polygon fill="#63b8ff" stroke="#63b8ff" points="247.58,-88.37 252.31,-78.88 242.7,-83.35 247.58,-88.37"/>
</a>
</g>
</g>
<!-- Node3&#45;&gt;Node2 -->
<g id="edge3_Node000003_Node000002" class="edge">
<title>Node3&#45;&gt;Node2</title>
<g id="a_edge3_Node000003_Node000002"><a xlink:title=" ">
<path fill="none" stroke="#63b8ff" d="M144.63,-56.34C121.8,-47.66 88.2,-34.88 62.65,-25.17"/>
<polygon fill="#63b8ff" stroke="#63b8ff" points="63.9,-21.9 53.31,-21.62 61.41,-28.44 63.9,-21.9"/>
</a>
</g>
</g>
<!-- Node4 -->
<g id="Node000004" class="node">
<title>Node4</title>
<g id="a_Node000004"><a xlink:title=" ">
<polygon fill="#e0e0e0" stroke="#999999" points="125.88,-20.75 70.88,-20.75 70.88,0 125.88,0 125.88,-20.75"/>
<text text-anchor="middle" x="98.38" y="-7.25" font-family="Helvetica,sans-Serif" font-size="10.00">stddef.h</text>
</a>
</g>
</g>
<!-- Node3&#45;&gt;Node4 -->
<g id="edge4_Node000003_Node000004" class="edge">
<title>Node3&#45;&gt;Node4</title>
<g id="a_edge4_Node000003_Node000004"><a xlink:title=" ">
<path fill="none" stroke="#63b8ff" d="M157.5,-56.34C147.16,-48.47 132.41,-37.25 120.22,-27.99"/>
<polygon fill="#63b8ff" stroke="#63b8ff" points="122.42,-25.26 112.34,-21.99 118.18,-30.83 122.42,-25.26"/>
</a>
</g>
</g>
<!-- Node5 -->
<g id="Node000005" class="node">
<title>Node5</title>
<g id="a_Node000005"><a xlink:title=" ">
<polygon fill="#e0e0e0" stroke="#999999" points="196.75,-20.75 144,-20.75 144,0 196.75,0 196.75,-20.75"/>
<text text-anchor="middle" x="170.38" y="-7.25" font-family="Helvetica,sans-Serif" font-size="10.00">limits.h</text>
</a>
</g>
</g>
<!-- Node3&#45;&gt;Node5 -->
<g id="edge5_Node000003_Node000005" class="edge">
<title>Node3&#45;&gt;Node5</title>
<g id="a_edge5_Node000003_Node000005"><a xlink:title=" ">
<path fill="none" stroke="#63b8ff" d="M170.38,-56.34C170.38,-49.72 170.38,-40.72 170.38,-32.52"/>
<polygon fill="#63b8ff" stroke="#63b8ff" points="173.88,-32.59 170.38,-22.59 166.88,-32.59 173.88,-32.59"/>
</a>
</g>
</g>
<!-- Node6 -->
<g id="Node000006" class="node">
<title>Node6</title>
<g id="a_Node000006"><a xlink:title=" ">
<polygon fill="#e0e0e0" stroke="#999999" points="296,-20.75 214.75,-20.75 214.75,0 296,0 296,-20.75"/>
<text text-anchor="middle" x="255.38" y="-7.25" font-family="Helvetica,sans-Serif" font-size="10.00">periph_conf.h</text>
</a>
</g>
</g>
<!-- Node3&#45;&gt;Node6 -->
<g id="edge6_Node000003_Node000006" class="edge">
<title>Node3&#45;&gt;Node6</title>
<g id="a_edge6_Node000003_Node000006"><a xlink:title=" ">
<path fill="none" stroke="#63b8ff" d="M185.57,-56.34C198.14,-48.24 216.24,-36.58 230.86,-27.17"/>
<polygon fill="#63b8ff" stroke="#63b8ff" points="232.53,-30.26 239.04,-21.9 228.74,-24.37 232.53,-30.26"/>
</a>
</g>
</g>
<!-- Node7 -->
<g id="Node000007" class="node">
<title>Node7</title>
<g id="a_Node000007"><a xlink:title=" ">
<polygon fill="#e0e0e0" stroke="#999999" points="392.5,-20.75 314.25,-20.75 314.25,0 392.5,0 392.5,-20.75"/>
<text text-anchor="middle" x="353.38" y="-7.25" font-family="Helvetica,sans-Serif" font-size="10.00">periph_cpu.h</text>
</a>
</g>
</g>
<!-- Node3&#45;&gt;Node7 -->
<g id="edge7_Node000003_Node000007" class="edge">
<title>Node3&#45;&gt;Node7</title>
<g id="a_edge7_Node000003_Node000007"><a xlink:title=" ">
<path fill="none" stroke="#63b8ff" d="M203.09,-56.34C232.93,-47.41 277.22,-34.16 310,-24.35"/>
<polygon fill="#63b8ff" stroke="#63b8ff" points="310.61,-27.82 319.18,-21.6 308.6,-21.12 310.61,-27.82"/>
</a>
</g>
</g>
<!-- Node8&#45;&gt;Node1 -->
<g id="edge10_Node000008_Node000001" class="edge">
<title>Node8&#45;&gt;Node1</title>
<g id="a_edge10_Node000008_Node000001"><a xlink:title=" ">
<path fill="none" stroke="#63b8ff" d="M263.99,-77.83C258.66,-85.43 249.36,-96.22 240.42,-105.33"/>
<polygon fill="#63b8ff" stroke="#63b8ff" points="238.26,-102.55 233.54,-112.03 243.14,-107.57 238.26,-102.55"/>
</a>
</g>
</g>
<!-- Node9 -->
<g id="Node000009" class="node">
<title>Node9</title>
<g id="a_Node000009"><a xlink:title=" ">
<polygon fill="#e0e0e0" stroke="#999999" points="463.75,-20.75 411,-20.75 411,0 463.75,0 463.75,-20.75"/>
<text text-anchor="middle" x="437.38" y="-7.25" font-family="Helvetica,sans-Serif" font-size="10.00">board.h</text>
</a>
</g>
</g>
<!-- Node8&#45;&gt;Node9 -->
<g id="edge9_Node000008_Node000009" class="edge">
<title>Node8&#45;&gt;Node9</title>
<g id="a_edge9_Node000008_Node000009"><a xlink:title=" ">
<path fill="none" stroke="#63b8ff" d="M297.77,-56.34C326.35,-47.13 369.21,-33.33 399.9,-23.45"/>
<polygon fill="#63b8ff" stroke="#63b8ff" points="400.72,-26.86 409.16,-20.46 398.57,-20.2 400.72,-26.86"/>
</a>
</g>
</g>
</g>
</svg>
