<?xml version="1.0" encoding="UTF-8" standalone="no"?>
<!DOCTYPE svg PUBLIC "-//W3C//DTD SVG 1.1//EN"
 "http://www.w3.org/Graphics/SVG/1.1/DTD/svg11.dtd">
<!-- Generated by graphviz version 12.1.1 (0)
 -->
<!-- Title: boards/im880b/include/board.h Pages: 1 -->
<svg width="258pt" height="155pt"
 viewBox="0.00 0.00 257.75 155.00" xmlns="http://www.w3.org/2000/svg" xmlns:xlink="http://www.w3.org/1999/xlink">
<g id="graph0" class="graph" transform="scale(1 1) rotate(0) translate(4 151)">
<title>boards/im880b/include/board.h</title>
<!-- Node1 -->
<g id="Node000001" class="node">
<title>Node1</title>
<g id="a_Node000001"><a xlink:title="Support for im880b.">
<polygon fill="#999999" stroke="#666666" points="155.88,-147 28.87,-147 28.87,-113.5 155.88,-113.5 155.88,-147"/>
<text text-anchor="start" x="36.88" y="-133.5" font-family="Helvetica,sans-Serif" font-size="10.00">boards/im880b/include</text>
<text text-anchor="middle" x="92.38" y="-120.75" font-family="Helvetica,sans-Serif" font-size="10.00">/board.h</text>
</a>
</g>
</g>
<!-- Node2 -->
<g id="Node000002" class="node">
<title>Node2</title>
<g id="a_Node000002"><a xlink:title=" ">
<polygon fill="#e0e0e0" stroke="#999999" points="52.75,-77.5 0,-77.5 0,-56.75 52.75,-56.75 52.75,-77.5"/>
<text text-anchor="middle" x="26.38" y="-64" font-family="Helvetica,sans-Serif" font-size="10.00">stdint.h</text>
</a>
</g>
</g>
<!-- Node1&#45;&gt;Node2 -->
<g id="edge1_Node000001_Node000002" class="edge">
<title>Node1&#45;&gt;Node2</title>
<g id="a_edge1_Node000001_Node000002"><a xlink:title=" ">
<path fill="none" stroke="#63b8ff" d="M75.03,-113.19C65.89,-104.72 54.65,-94.31 45.28,-85.64"/>
<polygon fill="#63b8ff" stroke="#63b8ff" points="47.83,-83.22 38.11,-79 43.07,-88.36 47.83,-83.22"/>
</a>
</g>
</g>
<!-- Node3 -->
<g id="Node000003" class="node">
<title>Node3</title>
<g id="a_Node000003"><a xlink:title=" ">
<polygon fill="#e0e0e0" stroke="#999999" points="113.5,-77.5 71.25,-77.5 71.25,-56.75 113.5,-56.75 113.5,-77.5"/>
<text text-anchor="middle" x="92.38" y="-64" font-family="Helvetica,sans-Serif" font-size="10.00">cpu.h</text>
</a>
</g>
</g>
<!-- Node1&#45;&gt;Node3 -->
<g id="edge2_Node000001_Node000003" class="edge">
<title>Node1&#45;&gt;Node3</title>
<g id="a_edge2_Node000001_Node000003"><a xlink:title=" ">
<path fill="none" stroke="#63b8ff" d="M92.38,-113.19C92.38,-105.85 92.38,-97.07 92.38,-89.21"/>
<polygon fill="#63b8ff" stroke="#63b8ff" points="95.88,-89.48 92.38,-79.48 88.88,-89.48 95.88,-89.48"/>
</a>
</g>
</g>
<!-- Node4 -->
<g id="Node000004" class="node">
<title>Node4</title>
<g id="a_Node000004"><a xlink:href="boards_2im880b_2include_2periph__conf_8h.html" target="_top" xlink:title="Peripheral MCU configuration for the im808b board.">
<polygon fill="white" stroke="#666666" points="213,-77.5 131.75,-77.5 131.75,-56.75 213,-56.75 213,-77.5"/>
<text text-anchor="middle" x="172.38" y="-64" font-family="Helvetica,sans-Serif" font-size="10.00">periph_conf.h</text>
</a>
</g>
</g>
<!-- Node1&#45;&gt;Node4 -->
<g id="edge3_Node000001_Node000004" class="edge">
<title>Node1&#45;&gt;Node4</title>
<g id="a_edge3_Node000001_Node000004"><a xlink:title=" ">
<path fill="none" stroke="#63b8ff" d="M113.39,-113.19C124.82,-104.46 138.94,-93.67 150.5,-84.84"/>
<polygon fill="#63b8ff" stroke="#63b8ff" points="152.47,-87.74 158.29,-78.89 148.22,-82.18 152.47,-87.74"/>
</a>
</g>
</g>
<!-- Node5 -->
<g id="Node000005" class="node">
<title>Node5</title>
<g id="a_Node000005"><a xlink:title=" ">
<polygon fill="#e0e0e0" stroke="#999999" points="166.5,-20.75 88.25,-20.75 88.25,0 166.5,0 166.5,-20.75"/>
<text text-anchor="middle" x="127.38" y="-7.25" font-family="Helvetica,sans-Serif" font-size="10.00">periph_cpu.h</text>
</a>
</g>
</g>
<!-- Node4&#45;&gt;Node5 -->
<g id="edge4_Node000004_Node000005" class="edge">
<title>Node4&#45;&gt;Node5</title>
<g id="a_edge4_Node000004_Node000005"><a xlink:title=" ">
<path fill="none" stroke="#63b8ff" d="M164.33,-56.34C158.31,-49.02 149.91,-38.79 142.63,-29.94"/>
<polygon fill="#63b8ff" stroke="#63b8ff" points="145.37,-27.75 136.31,-22.25 139.96,-32.2 145.37,-27.75"/>
</a>
</g>
</g>
<!-- Node6 -->
<g id="Node000006" class="node">
<title>Node6</title>
<g id="a_Node000006"><a xlink:title=" ">
<polygon fill="#e0e0e0" stroke="#999999" points="249.75,-20.75 185,-20.75 185,0 249.75,0 249.75,-20.75"/>
<text text-anchor="middle" x="217.38" y="-7.25" font-family="Helvetica,sans-Serif" font-size="10.00">clk_conf.h</text>
</a>
</g>
</g>
<!-- Node4&#45;&gt;Node6 -->
<g id="edge5_Node000004_Node000006" class="edge">
<title>Node4&#45;&gt;Node6</title>
<g id="a_edge5_Node000004_Node000006"><a xlink:title=" ">
<path fill="none" stroke="#63b8ff" d="M180.42,-56.34C186.44,-49.02 194.84,-38.79 202.12,-29.94"/>
<polygon fill="#63b8ff" stroke="#63b8ff" points="204.79,-32.2 208.44,-22.25 199.38,-27.75 204.79,-32.2"/>
</a>
</g>
</g>
</g>
</svg>
