<?xml version="1.0" encoding="UTF-8" standalone="no"?>
<!DOCTYPE svg PUBLIC "-//W3C//DTD SVG 1.1//EN"
 "http://www.w3.org/Graphics/SVG/1.1/DTD/svg11.dtd">
<!-- Generated by graphviz version 12.1.1 (0)
 -->
<!-- Title: sys/posix/include/netinet/in.h Pages: 1 -->
<svg width="854pt" height="313pt"
 viewBox="0.00 0.00 853.75 312.50" xmlns="http://www.w3.org/2000/svg" xmlns:xlink="http://www.w3.org/1999/xlink">
<g id="graph0" class="graph" transform="scale(1 1) rotate(0) translate(4 308.5)">
<title>sys/posix/include/netinet/in.h</title>
<!-- Node1 -->
<g id="Node000001" class="node">
<title>Node1</title>
<g id="a_Node000001"><a xlink:title="Main socket header.">
<polygon fill="#999999" stroke="#666666" points="474.62,-304.5 316.12,-304.5 316.12,-283.75 474.62,-283.75 474.62,-304.5"/>
<text text-anchor="middle" x="395.38" y="-291" font-family="Helvetica,sans-Serif" font-size="10.00">sys/posix/include/netinet/in.h</text>
</a>
</g>
</g>
<!-- Node2 -->
<g id="Node000002" class="node">
<title>Node2</title>
<g id="a_Node000002"><a xlink:href="inttypes_8h.html" target="_top" xlink:title="Adds include for missing inttype definitions.">
<polygon fill="white" stroke="#666666" points="427.75,-134.25 363,-134.25 363,-113.5 427.75,-113.5 427.75,-134.25"/>
<text text-anchor="middle" x="395.38" y="-120.75" font-family="Helvetica,sans-Serif" font-size="10.00">inttypes.h</text>
</a>
</g>
</g>
<!-- Node1&#45;&gt;Node2 -->
<g id="edge1_Node000001_Node000002" class="edge">
<title>Node1&#45;&gt;Node2</title>
<g id="a_edge1_Node000001_Node000002"><a xlink:title=" ">
<path fill="none" stroke="#63b8ff" d="M395.38,-283.6C395.38,-257.23 395.38,-182.83 395.38,-146.03"/>
<polygon fill="#63b8ff" stroke="#63b8ff" points="398.88,-146.23 395.38,-136.23 391.88,-146.23 398.88,-146.23"/>
</a>
</g>
</g>
<!-- Node3 -->
<g id="Node000003" class="node">
<title>Node3</title>
<g id="a_Node000003"><a xlink:href="socket_8h.html" target="_top" xlink:title="Main socket header.">
<polygon fill="white" stroke="#666666" points="627.38,-247.75 551.38,-247.75 551.38,-227 627.38,-227 627.38,-247.75"/>
<text text-anchor="middle" x="589.38" y="-234.25" font-family="Helvetica,sans-Serif" font-size="10.00">sys/socket.h</text>
</a>
</g>
</g>
<!-- Node1&#45;&gt;Node3 -->
<g id="edge2_Node000001_Node000003" class="edge">
<title>Node1&#45;&gt;Node3</title>
<g id="a_edge2_Node000001_Node000003"><a xlink:title=" ">
<path fill="none" stroke="#63b8ff" d="M430.06,-283.34C461.82,-274.37 509.05,-261.04 543.84,-251.23"/>
<polygon fill="#63b8ff" stroke="#63b8ff" points="544.54,-254.67 553.21,-248.58 542.63,-247.93 544.54,-254.67"/>
</a>
</g>
</g>
<!-- Node13 -->
<g id="Node000013" class="node">
<title>Node13</title>
<g id="a_Node000013"><a xlink:href="bytes_8h.html" target="_top" xlink:title="System&#45;internal byte operations.">
<polygon fill="white" stroke="#666666" points="365.12,-191 293.62,-191 293.62,-170.25 365.12,-170.25 365.12,-191"/>
<text text-anchor="middle" x="329.38" y="-177.5" font-family="Helvetica,sans-Serif" font-size="10.00">sys/bytes.h</text>
</a>
</g>
</g>
<!-- Node1&#45;&gt;Node13 -->
<g id="edge34_Node000001_Node000013" class="edge">
<title>Node1&#45;&gt;Node13</title>
<g id="a_edge34_Node000001_Node000013"><a xlink:title=" ">
<path fill="none" stroke="#63b8ff" d="M389.75,-283.62C378.99,-265.44 355.3,-225.42 341,-201.27"/>
<polygon fill="#63b8ff" stroke="#63b8ff" points="344.05,-199.55 335.95,-192.73 338.03,-203.12 344.05,-199.55"/>
</a>
</g>
</g>
<!-- Node19 -->
<g id="Node000019" class="node">
<title>Node19</title>
<g id="a_Node000019"><a xlink:href="protnum_8h.html" target="_top" xlink:title="Protocol number definitions.">
<polygon fill="white" stroke="#666666" points="730.88,-247.75 645.88,-247.75 645.88,-227 730.88,-227 730.88,-247.75"/>
<text text-anchor="middle" x="688.38" y="-234.25" font-family="Helvetica,sans-Serif" font-size="10.00">net/protnum.h</text>
</a>
</g>
</g>
<!-- Node1&#45;&gt;Node19 -->
<g id="edge24_Node000001_Node000019" class="edge">
<title>Node1&#45;&gt;Node19</title>
<g id="a_edge24_Node000001_Node000019"><a xlink:title=" ">
<path fill="none" stroke="#63b8ff" d="M448.1,-283.27C500.75,-273.44 581.27,-258.39 634.37,-248.47"/>
<polygon fill="#63b8ff" stroke="#63b8ff" points="634.92,-251.92 644.1,-246.65 633.63,-245.04 634.92,-251.92"/>
</a>
</g>
</g>
<!-- Node20 -->
<g id="Node000020" class="node">
<title>Node20</title>
<g id="a_Node000020"><a xlink:href="ipv6_2addr_8h.html" target="_top" xlink:title="Definitions for IPv6 addresses.">
<polygon fill="white" stroke="#666666" points="198.12,-247.75 108.62,-247.75 108.62,-227 198.12,-227 198.12,-247.75"/>
<text text-anchor="middle" x="153.38" y="-234.25" font-family="Helvetica,sans-Serif" font-size="10.00">net/ipv6/addr.h</text>
</a>
</g>
</g>
<!-- Node1&#45;&gt;Node20 -->
<g id="edge25_Node000001_Node000020" class="edge">
<title>Node1&#45;&gt;Node20</title>
<g id="a_edge25_Node000001_Node000020"><a xlink:title=" ">
<path fill="none" stroke="#63b8ff" d="M351.83,-283.27C311.52,-274.15 251.43,-260.56 207.93,-250.72"/>
<polygon fill="#63b8ff" stroke="#63b8ff" points="208.98,-247.37 198.45,-248.57 207.43,-254.19 208.98,-247.37"/>
</a>
</g>
</g>
<!-- Node4 -->
<g id="Node000004" class="node">
<title>Node4</title>
<g id="a_Node000004"><a xlink:title=" ">
<polygon fill="#e0e0e0" stroke="#999999" points="621.38,-191 557.38,-191 557.38,-170.25 621.38,-170.25 621.38,-191"/>
<text text-anchor="middle" x="589.38" y="-177.5" font-family="Helvetica,sans-Serif" font-size="10.00">stdalign.h</text>
</a>
</g>
</g>
<!-- Node3&#45;&gt;Node4 -->
<g id="edge3_Node000003_Node000004" class="edge">
<title>Node3&#45;&gt;Node4</title>
<g id="a_edge3_Node000003_Node000004"><a xlink:title=" ">
<path fill="none" stroke="#63b8ff" d="M589.38,-226.59C589.38,-219.97 589.38,-210.97 589.38,-202.77"/>
<polygon fill="#63b8ff" stroke="#63b8ff" points="592.88,-202.84 589.38,-192.84 585.88,-202.84 592.88,-202.84"/>
</a>
</g>
</g>
<!-- Node5 -->
<g id="Node000005" class="node">
<title>Node5</title>
<g id="a_Node000005"><a xlink:title=" ">
<polygon fill="#e0e0e0" stroke="#999999" points="733.38,-134.25 681.38,-134.25 681.38,-113.5 733.38,-113.5 733.38,-134.25"/>
<text text-anchor="middle" x="707.38" y="-120.75" font-family="Helvetica,sans-Serif" font-size="10.00">stdlib.h</text>
</a>
</g>
</g>
<!-- Node3&#45;&gt;Node5 -->
<g id="edge4_Node000003_Node000005" class="edge">
<title>Node3&#45;&gt;Node5</title>
<g id="a_edge4_Node000003_Node000005"><a xlink:title=" ">
<path fill="none" stroke="#63b8ff" d="M599.44,-226.87C619.28,-208.12 663.72,-166.13 688.95,-142.28"/>
<polygon fill="#63b8ff" stroke="#63b8ff" points="691.04,-145.13 695.9,-135.71 686.23,-140.04 691.04,-145.13"/>
</a>
</g>
</g>
<!-- Node6 -->
<g id="Node000006" class="node">
<title>Node6</title>
<g id="a_Node000006"><a xlink:title=" ">
<polygon fill="#e0e0e0" stroke="#999999" points="823.12,-134.25 751.62,-134.25 751.62,-113.5 823.12,-113.5 823.12,-134.25"/>
<text text-anchor="middle" x="787.38" y="-120.75" font-family="Helvetica,sans-Serif" font-size="10.00">sys/types.h</text>
</a>
</g>
</g>
<!-- Node3&#45;&gt;Node6 -->
<g id="edge5_Node000003_Node000006" class="edge">
<title>Node3&#45;&gt;Node6</title>
<g id="a_edge5_Node000003_Node000006"><a xlink:title=" ">
<path fill="none" stroke="#63b8ff" d="M627.71,-228.61C667.89,-219.9 727.72,-205.14 746.38,-191 761.83,-179.28 772.85,-159.9 779.55,-145.14"/>
<polygon fill="#63b8ff" stroke="#63b8ff" points="782.77,-146.51 783.4,-135.93 776.31,-143.8 782.77,-146.51"/>
</a>
</g>
</g>
<!-- Node7 -->
<g id="Node000007" class="node">
<title>Node7</title>
<g id="a_Node000007"><a xlink:href="uio_8h.html" target="_top" xlink:title="libc header for scatter/gather I/O">
<polygon fill="white" stroke="#666666" points="737.12,-191 677.62,-191 677.62,-170.25 737.12,-170.25 737.12,-191"/>
<text text-anchor="middle" x="707.38" y="-177.5" font-family="Helvetica,sans-Serif" font-size="10.00">sys/uio.h</text>
</a>
</g>
</g>
<!-- Node3&#45;&gt;Node7 -->
<g id="edge6_Node000003_Node000007" class="edge">
<title>Node3&#45;&gt;Node7</title>
<g id="a_edge6_Node000003_Node000007"><a xlink:title=" ">
<path fill="none" stroke="#63b8ff" d="M610.47,-226.59C628.76,-218.1 655.48,-205.7 676.23,-196.08"/>
<polygon fill="#63b8ff" stroke="#63b8ff" points="677.49,-199.35 685.09,-191.97 674.54,-193 677.49,-199.35"/>
</a>
</g>
</g>
<!-- Node8 -->
<g id="Node000008" class="node">
<title>Node8</title>
<g id="a_Node000008"><a xlink:href="architecture_8h.html" target="_top" xlink:title="Platform&#45;independent access to architecture details.">
<polygon fill="white" stroke="#666666" points="539.12,-191 455.62,-191 455.62,-170.25 539.12,-170.25 539.12,-191"/>
<text text-anchor="middle" x="497.38" y="-177.5" font-family="Helvetica,sans-Serif" font-size="10.00">architecture.h</text>
</a>
</g>
</g>
<!-- Node3&#45;&gt;Node8 -->
<g id="edge9_Node000003_Node000008" class="edge">
<title>Node3&#45;&gt;Node8</title>
<g id="a_edge9_Node000003_Node000008"><a xlink:title=" ">
<path fill="none" stroke="#63b8ff" d="M572.93,-226.59C559.19,-218.41 539.36,-206.61 523.46,-197.15"/>
<polygon fill="#63b8ff" stroke="#63b8ff" points="525.36,-194.21 514.98,-192.1 521.78,-200.22 525.36,-194.21"/>
</a>
</g>
</g>
<!-- Node12 -->
<g id="Node000012" class="node">
<title>Node12</title>
<g id="a_Node000012"><a xlink:href="af_8h.html" target="_top" xlink:title="Global UNIX address family definitions.">
<polygon fill="white" stroke="#666666" points="845.75,-191 793,-191 793,-170.25 845.75,-170.25 845.75,-191"/>
<text text-anchor="middle" x="819.38" y="-177.5" font-family="Helvetica,sans-Serif" font-size="10.00">net/af.h</text>
</a>
</g>
</g>
<!-- Node3&#45;&gt;Node12 -->
<g id="edge14_Node000003_Node000012" class="edge">
<title>Node3&#45;&gt;Node12</title>
<g id="a_edge14_Node000003_Node000012"><a xlink:title=" ">
<path fill="none" stroke="#63b8ff" d="M627.87,-227.21C670.63,-217.03 739.21,-200.71 781.65,-190.61"/>
<polygon fill="#63b8ff" stroke="#63b8ff" points="782.23,-194.06 791.15,-188.34 780.61,-187.25 782.23,-194.06"/>
</a>
</g>
</g>
<!-- Node3&#45;&gt;Node13 -->
<g id="edge15_Node000003_Node000013" class="edge">
<title>Node3&#45;&gt;Node13</title>
<g id="a_edge15_Node000003_Node000013"><a xlink:title=" ">
<path fill="none" stroke="#63b8ff" d="M551.01,-228.3C504.62,-218.53 426.55,-202.09 376.53,-191.56"/>
<polygon fill="#63b8ff" stroke="#63b8ff" points="377.37,-188.15 366.86,-189.52 375.93,-195 377.37,-188.15"/>
</a>
</g>
</g>
<!-- Node7&#45;&gt;Node5 -->
<g id="edge7_Node000007_Node000005" class="edge">
<title>Node7&#45;&gt;Node5</title>
<g id="a_edge7_Node000007_Node000005"><a xlink:title=" ">
<path fill="none" stroke="#63b8ff" d="M707.38,-169.84C707.38,-163.22 707.38,-154.22 707.38,-146.02"/>
<polygon fill="#63b8ff" stroke="#63b8ff" points="710.88,-146.09 707.38,-136.09 703.88,-146.09 710.88,-146.09"/>
</a>
</g>
</g>
<!-- Node7&#45;&gt;Node6 -->
<g id="edge8_Node000007_Node000006" class="edge">
<title>Node7&#45;&gt;Node6</title>
<g id="a_edge8_Node000007_Node000006"><a xlink:title=" ">
<path fill="none" stroke="#63b8ff" d="M721.68,-169.84C733.39,-161.82 750.21,-150.31 763.9,-140.94"/>
<polygon fill="#63b8ff" stroke="#63b8ff" points="765.67,-143.97 771.95,-135.43 761.72,-138.19 765.67,-143.97"/>
</a>
</g>
</g>
<!-- Node8&#45;&gt;Node2 -->
<g id="edge11_Node000008_Node000002" class="edge">
<title>Node8&#45;&gt;Node2</title>
<g id="a_edge11_Node000008_Node000002"><a xlink:title=" ">
<path fill="none" stroke="#63b8ff" d="M479.14,-169.84C463.69,-161.55 441.29,-149.52 423.54,-139.99"/>
<polygon fill="#63b8ff" stroke="#63b8ff" points="425.25,-136.94 414.79,-135.29 421.94,-143.11 425.25,-136.94"/>
</a>
</g>
</g>
<!-- Node9 -->
<g id="Node000009" class="node">
<title>Node9</title>
<g id="a_Node000009"><a xlink:title=" ">
<polygon fill="#e0e0e0" stroke="#999999" points="255.75,-20.75 203,-20.75 203,0 255.75,0 255.75,-20.75"/>
<text text-anchor="middle" x="229.38" y="-7.25" font-family="Helvetica,sans-Serif" font-size="10.00">stdint.h</text>
</a>
</g>
</g>
<!-- Node8&#45;&gt;Node9 -->
<g id="edge10_Node000008_Node000009" class="edge">
<title>Node8&#45;&gt;Node9</title>
<g id="a_edge10_Node000008_Node000009"><a xlink:title=" ">
<path fill="none" stroke="#63b8ff" d="M490.39,-170.05C479.9,-156.19 458.89,-130.33 436.38,-113.5 382.35,-73.1 309.86,-41.67 266.56,-24.89"/>
<polygon fill="#63b8ff" stroke="#63b8ff" points="267.95,-21.67 257.36,-21.38 265.45,-28.21 267.95,-21.67"/>
</a>
</g>
</g>
<!-- Node10 -->
<g id="Node000010" class="node">
<title>Node10</title>
<g id="a_Node000010"><a xlink:title=" ">
<polygon fill="#e0e0e0" stroke="#999999" points="663.75,-134.25 611,-134.25 611,-113.5 663.75,-113.5 663.75,-134.25"/>
<text text-anchor="middle" x="637.38" y="-120.75" font-family="Helvetica,sans-Serif" font-size="10.00">limits.h</text>
</a>
</g>
</g>
<!-- Node8&#45;&gt;Node10 -->
<g id="edge12_Node000008_Node000010" class="edge">
<title>Node8&#45;&gt;Node10</title>
<g id="a_edge12_Node000008_Node000010"><a xlink:title=" ">
<path fill="none" stroke="#63b8ff" d="M522.4,-169.84C544.6,-161.16 577.26,-148.38 602.11,-138.67"/>
<polygon fill="#63b8ff" stroke="#63b8ff" points="603.11,-142.03 611.15,-135.13 600.56,-135.51 603.11,-142.03"/>
</a>
</g>
</g>
<!-- Node11 -->
<g id="Node000011" class="node">
<title>Node11</title>
<g id="a_Node000011"><a xlink:title=" ">
<polygon fill="#e0e0e0" stroke="#999999" points="593.25,-134.25 483.5,-134.25 483.5,-113.5 593.25,-113.5 593.25,-134.25"/>
<text text-anchor="middle" x="538.38" y="-120.75" font-family="Helvetica,sans-Serif" font-size="10.00">architecture_arch.h</text>
</a>
</g>
</g>
<!-- Node8&#45;&gt;Node11 -->
<g id="edge13_Node000008_Node000011" class="edge">
<title>Node8&#45;&gt;Node11</title>
<g id="a_edge13_Node000008_Node000011"><a xlink:title=" ">
<path fill="none" stroke="#63b8ff" d="M504.7,-169.84C510.13,-162.6 517.68,-152.51 524.26,-143.72"/>
<polygon fill="#63b8ff" stroke="#63b8ff" points="527.01,-145.89 530.2,-135.79 521.41,-141.7 527.01,-145.89"/>
</a>
</g>
</g>
<!-- Node14 -->
<g id="Node000014" class="node">
<title>Node14</title>
<g id="a_Node000014"><a xlink:title=" ">
<polygon fill="#e0e0e0" stroke="#999999" points="344.88,-134.25 289.88,-134.25 289.88,-113.5 344.88,-113.5 344.88,-134.25"/>
<text text-anchor="middle" x="317.38" y="-120.75" font-family="Helvetica,sans-Serif" font-size="10.00">stddef.h</text>
</a>
</g>
</g>
<!-- Node13&#45;&gt;Node14 -->
<g id="edge16_Node000013_Node000014" class="edge">
<title>Node13&#45;&gt;Node14</title>
<g id="a_edge16_Node000013_Node000014"><a xlink:title=" ">
<path fill="none" stroke="#63b8ff" d="M327.23,-169.84C325.76,-163.14 323.76,-154.01 321.95,-145.73"/>
<polygon fill="#63b8ff" stroke="#63b8ff" points="325.39,-145.08 319.83,-136.06 318.55,-146.57 325.39,-145.08"/>
</a>
</g>
</g>
<!-- Node15 -->
<g id="Node000015" class="node">
<title>Node15</title>
<g id="a_Node000015"><a xlink:href="byteorder_8h.html" target="_top" xlink:title="Functions to work with different byte orders.">
<polygon fill="white" stroke="#666666" points="233.5,-134.25 161.25,-134.25 161.25,-113.5 233.5,-113.5 233.5,-134.25"/>
<text text-anchor="middle" x="197.38" y="-120.75" font-family="Helvetica,sans-Serif" font-size="10.00">byteorder.h</text>
</a>
</g>
</g>
<!-- Node13&#45;&gt;Node15 -->
<g id="edge17_Node000013_Node000015" class="edge">
<title>Node13&#45;&gt;Node15</title>
<g id="a_edge17_Node000013_Node000015"><a xlink:title=" ">
<path fill="none" stroke="#63b8ff" d="M305.78,-169.84C285.03,-161.23 254.6,-148.61 231.26,-138.93"/>
<polygon fill="#63b8ff" stroke="#63b8ff" points="232.75,-135.76 222.17,-135.16 230.06,-142.22 232.75,-135.76"/>
</a>
</g>
</g>
<!-- Node15&#45;&gt;Node9 -->
<g id="edge19_Node000015_Node000009" class="edge">
<title>Node15&#45;&gt;Node9</title>
<g id="a_edge19_Node000015_Node000009"><a xlink:title=" ">
<path fill="none" stroke="#63b8ff" d="M193.95,-113.12C189.88,-99.92 184.45,-75.82 191.38,-56.75 195.11,-46.48 202.3,-36.91 209.43,-29.23"/>
<polygon fill="#63b8ff" stroke="#63b8ff" points="211.86,-31.75 216.49,-22.22 206.93,-26.78 211.86,-31.75"/>
</a>
</g>
</g>
<!-- Node16 -->
<g id="Node000016" class="node">
<title>Node16</title>
<g id="a_Node000016"><a xlink:title=" ">
<polygon fill="#e0e0e0" stroke="#999999" points="52.75,-77.5 0,-77.5 0,-56.75 52.75,-56.75 52.75,-77.5"/>
<text text-anchor="middle" x="26.38" y="-64" font-family="Helvetica,sans-Serif" font-size="10.00">string.h</text>
</a>
</g>
</g>
<!-- Node15&#45;&gt;Node16 -->
<g id="edge18_Node000015_Node000016" class="edge">
<title>Node15&#45;&gt;Node16</title>
<g id="a_edge18_Node000015_Node000016"><a xlink:title=" ">
<path fill="none" stroke="#63b8ff" d="M166.8,-113.09C137.97,-103.86 94.68,-90 63.8,-80.11"/>
<polygon fill="#63b8ff" stroke="#63b8ff" points="65.06,-76.84 54.47,-77.12 62.93,-83.5 65.06,-76.84"/>
</a>
</g>
</g>
<!-- Node17 -->
<g id="Node000017" class="node">
<title>Node17</title>
<g id="a_Node000017"><a xlink:href="endian_8h.html" target="_top" xlink:title="libc header for endian conversion">
<polygon fill="white" stroke="#666666" points="258.38,-77.5 200.38,-77.5 200.38,-56.75 258.38,-56.75 258.38,-77.5"/>
<text text-anchor="middle" x="229.38" y="-64" font-family="Helvetica,sans-Serif" font-size="10.00">endian.h</text>
</a>
</g>
</g>
<!-- Node15&#45;&gt;Node17 -->
<g id="edge20_Node000015_Node000017" class="edge">
<title>Node15&#45;&gt;Node17</title>
<g id="a_edge20_Node000015_Node000017"><a xlink:title=" ">
<path fill="none" stroke="#63b8ff" d="M203.1,-113.09C207.24,-106 212.97,-96.19 218.03,-87.54"/>
<polygon fill="#63b8ff" stroke="#63b8ff" points="220.92,-89.53 222.94,-79.14 214.87,-86 220.92,-89.53"/>
</a>
</g>
</g>
<!-- Node18 -->
<g id="Node000018" class="node">
<title>Node18</title>
<g id="a_Node000018"><a xlink:href="unaligned_8h.html" target="_top" xlink:title="Unaligned but safe memory access functions.">
<polygon fill="white" stroke="#666666" points="143.88,-77.5 70.88,-77.5 70.88,-56.75 143.88,-56.75 143.88,-77.5"/>
<text text-anchor="middle" x="107.38" y="-64" font-family="Helvetica,sans-Serif" font-size="10.00">unaligned.h</text>
</a>
</g>
</g>
<!-- Node15&#45;&gt;Node18 -->
<g id="edge22_Node000015_Node000018" class="edge">
<title>Node15&#45;&gt;Node18</title>
<g id="a_edge22_Node000015_Node000018"><a xlink:title=" ">
<path fill="none" stroke="#63b8ff" d="M181.28,-113.09C167.85,-104.91 148.44,-93.11 132.89,-83.65"/>
<polygon fill="#63b8ff" stroke="#63b8ff" points="134.98,-80.82 124.62,-78.62 131.34,-86.8 134.98,-80.82"/>
</a>
</g>
</g>
<!-- Node17&#45;&gt;Node9 -->
<g id="edge21_Node000017_Node000009" class="edge">
<title>Node17&#45;&gt;Node9</title>
<g id="a_edge21_Node000017_Node000009"><a xlink:title=" ">
<path fill="none" stroke="#63b8ff" d="M229.38,-56.34C229.38,-49.72 229.38,-40.72 229.38,-32.52"/>
<polygon fill="#63b8ff" stroke="#63b8ff" points="232.88,-32.59 229.38,-22.59 225.88,-32.59 232.88,-32.59"/>
</a>
</g>
</g>
<!-- Node18&#45;&gt;Node9 -->
<g id="edge23_Node000018_Node000009" class="edge">
<title>Node18&#45;&gt;Node9</title>
<g id="a_edge23_Node000018_Node000009"><a xlink:title=" ">
<path fill="none" stroke="#63b8ff" d="M129.19,-56.34C148.18,-47.81 175.97,-35.34 197.47,-25.69"/>
<polygon fill="#63b8ff" stroke="#63b8ff" points="198.68,-28.99 206.37,-21.7 195.82,-22.6 198.68,-28.99"/>
</a>
</g>
</g>
<!-- Node20&#45;&gt;Node15 -->
<g id="edge28_Node000020_Node000015" class="edge">
<title>Node20&#45;&gt;Node15</title>
<g id="a_edge28_Node000020_Node000015"><a xlink:title=" ">
<path fill="none" stroke="#63b8ff" d="M155.43,-226.73C158.38,-213.65 164.35,-189.68 172.38,-170.25 176.01,-161.45 180.91,-152.17 185.42,-144.31"/>
<polygon fill="#63b8ff" stroke="#63b8ff" points="188.28,-146.34 190.38,-135.95 182.26,-142.76 188.28,-146.34"/>
</a>
</g>
</g>
<!-- Node20&#45;&gt;Node16 -->
<g id="edge27_Node000020_Node000016" class="edge">
<title>Node20&#45;&gt;Node16</title>
<g id="a_edge27_Node000020_Node000016"><a xlink:title=" ">
<path fill="none" stroke="#63b8ff" d="M145.5,-226.63C130.97,-208.6 99.11,-168.72 73.38,-134.25 61.56,-118.42 48.58,-100.09 39.26,-86.75"/>
<polygon fill="#63b8ff" stroke="#63b8ff" points="42.38,-85.1 33.8,-78.88 36.63,-89.09 42.38,-85.1"/>
</a>
</g>
</g>
<!-- Node21 -->
<g id="Node000021" class="node">
<title>Node21</title>
<g id="a_Node000021"><a xlink:title=" ">
<polygon fill="#e0e0e0" stroke="#999999" points="142.88,-134.25 81.88,-134.25 81.88,-113.5 142.88,-113.5 142.88,-134.25"/>
<text text-anchor="middle" x="112.38" y="-120.75" font-family="Helvetica,sans-Serif" font-size="10.00">stdbool.h</text>
</a>
</g>
</g>
<!-- Node20&#45;&gt;Node21 -->
<g id="edge26_Node000020_Node000021" class="edge">
<title>Node20&#45;&gt;Node21</title>
<g id="a_edge26_Node000020_Node000021"><a xlink:title=" ">
<path fill="none" stroke="#63b8ff" d="M149.88,-226.87C143.26,-208.86 128.74,-169.39 119.84,-145.18"/>
<polygon fill="#63b8ff" stroke="#63b8ff" points="123.24,-144.27 116.5,-136.1 116.67,-146.69 123.24,-144.27"/>
</a>
</g>
</g>
<!-- Node22 -->
<g id="Node000022" class="node">
<title>Node22</title>
<g id="a_Node000022"><a xlink:href="ipv4_2addr_8h.html" target="_top" xlink:title="IPv4 address type and helper functions definitions.">
<polygon fill="white" stroke="#666666" points="271.12,-191 181.62,-191 181.62,-170.25 271.12,-170.25 271.12,-191"/>
<text text-anchor="middle" x="226.38" y="-177.5" font-family="Helvetica,sans-Serif" font-size="10.00">net/ipv4/addr.h</text>
</a>
</g>
</g>
<!-- Node20&#45;&gt;Node22 -->
<g id="edge29_Node000020_Node000022" class="edge">
<title>Node20&#45;&gt;Node22</title>
<g id="a_edge29_Node000020_Node000022"><a xlink:title=" ">
<path fill="none" stroke="#63b8ff" d="M166.43,-226.59C177.01,-218.65 192.17,-207.28 204.59,-197.96"/>
<polygon fill="#63b8ff" stroke="#63b8ff" points="206.33,-201.04 212.23,-192.24 202.13,-195.44 206.33,-201.04"/>
</a>
</g>
</g>
<!-- Node22&#45;&gt;Node9 -->
<g id="edge31_Node000022_Node000009" class="edge">
<title>Node22&#45;&gt;Node9</title>
<g id="a_edge31_Node000022_Node000009"><a xlink:title=" ">
<path fill="none" stroke="#63b8ff" d="M234.08,-170.01C249.74,-149.22 282.58,-98.6 267.38,-56.75 263.64,-46.48 256.45,-36.91 249.32,-29.23"/>
<polygon fill="#63b8ff" stroke="#63b8ff" points="251.82,-26.78 242.26,-22.22 246.89,-31.75 251.82,-26.78"/>
</a>
</g>
</g>
<!-- Node22&#45;&gt;Node14 -->
<g id="edge32_Node000022_Node000014" class="edge">
<title>Node22&#45;&gt;Node14</title>
<g id="a_edge32_Node000022_Node000014"><a xlink:title=" ">
<path fill="none" stroke="#63b8ff" d="M242.64,-169.84C256.23,-161.66 275.85,-149.86 291.58,-140.4"/>
<polygon fill="#63b8ff" stroke="#63b8ff" points="293.19,-143.51 299.95,-135.36 289.58,-137.52 293.19,-143.51"/>
</a>
</g>
</g>
<!-- Node22&#45;&gt;Node15 -->
<g id="edge33_Node000022_Node000015" class="edge">
<title>Node22&#45;&gt;Node15</title>
<g id="a_edge33_Node000022_Node000015"><a xlink:title=" ">
<path fill="none" stroke="#63b8ff" d="M221.19,-169.84C217.48,-162.83 212.36,-153.16 207.81,-144.58"/>
<polygon fill="#63b8ff" stroke="#63b8ff" points="211,-143.11 203.22,-135.92 204.81,-146.39 211,-143.11"/>
</a>
</g>
</g>
<!-- Node22&#45;&gt;Node21 -->
<g id="edge30_Node000022_Node000021" class="edge">
<title>Node22&#45;&gt;Node21</title>
<g id="a_edge30_Node000022_Node000021"><a xlink:title=" ">
<path fill="none" stroke="#63b8ff" d="M205.99,-169.84C188.41,-161.39 162.75,-149.07 142.74,-139.46"/>
<polygon fill="#63b8ff" stroke="#63b8ff" points="144.47,-136.41 133.94,-135.23 141.44,-142.72 144.47,-136.41"/>
</a>
</g>
</g>
</g>
</svg>
