<?xml version="1.0" encoding="UTF-8" standalone="no"?>
<!DOCTYPE svg PUBLIC "-//W3C//DTD SVG 1.1//EN"
 "http://www.w3.org/Graphics/SVG/1.1/DTD/svg11.dtd">
<!-- Generated by graphviz version 12.1.1 (0)
 -->
<!-- Title: drivers/include/ina3221.h Pages: 1 -->
<svg width="687pt" height="256pt"
 viewBox="0.00 0.00 686.53 255.75" xmlns="http://www.w3.org/2000/svg" xmlns:xlink="http://www.w3.org/1999/xlink">
<g id="graph0" class="graph" transform="scale(1 1) rotate(0) translate(4 251.75)">
<title>drivers/include/ina3221.h</title>
<!-- Node1 -->
<g id="Node000001" class="node">
<title>Node1</title>
<g id="a_Node000001"><a xlink:title="Device driver interface for Texas Instruments INA3221 three&#45;channel, high&#45;side current and bus voltag...">
<polygon fill="#999999" stroke="#666666" points="466.53,-247.75 327.53,-247.75 327.53,-227 466.53,-227 466.53,-247.75"/>
<text text-anchor="middle" x="397.03" y="-234.25" font-family="Helvetica,sans-Serif" font-size="10.00">drivers/include/ina3221.h</text>
</a>
</g>
</g>
<!-- Node2 -->
<g id="Node000002" class="node">
<title>Node2</title>
<g id="a_Node000002"><a xlink:href="assert_8h.html" target="_top" xlink:title="POSIX.1&#45;2008 compliant version of the assert macro.">
<polygon fill="white" stroke="#666666" points="118.53,-77.5 63.53,-77.5 63.53,-56.75 118.53,-56.75 118.53,-77.5"/>
<text text-anchor="middle" x="91.03" y="-64" font-family="Helvetica,sans-Serif" font-size="10.00">assert.h</text>
</a>
</g>
</g>
<!-- Node1&#45;&gt;Node2 -->
<g id="edge1_Node000001_Node000002" class="edge">
<title>Node1&#45;&gt;Node2</title>
<g id="a_edge1_Node000001_Node000002"><a xlink:title=" ">
<path fill="none" stroke="#63b8ff" d="M327.19,-228.37C226.67,-215.2 49.24,-185.21 13.03,-134.25 -2.14,-112.92 26.03,-94.22 52.66,-82.21"/>
<polygon fill="#63b8ff" stroke="#63b8ff" points="53.84,-85.5 61.68,-78.37 51.11,-79.06 53.84,-85.5"/>
</a>
</g>
</g>
<!-- Node3 -->
<g id="Node000003" class="node">
<title>Node3</title>
<g id="a_Node000003"><a xlink:title=" ">
<polygon fill="#e0e0e0" stroke="#999999" points="207.4,-20.75 154.65,-20.75 154.65,0 207.4,0 207.4,-20.75"/>
<text text-anchor="middle" x="181.03" y="-7.25" font-family="Helvetica,sans-Serif" font-size="10.00">stdint.h</text>
</a>
</g>
</g>
<!-- Node1&#45;&gt;Node3 -->
<g id="edge4_Node000001_Node000003" class="edge">
<title>Node1&#45;&gt;Node3</title>
<g id="a_edge4_Node000001_Node000003"><a xlink:title=" ">
<path fill="none" stroke="#63b8ff" d="M327.32,-231.49C245.02,-224.89 113.67,-211.55 69.03,-191 34.49,-175.1 20.62,-168.92 5.03,-134.25 -23.55,-70.71 83.47,-34.45 143.28,-19.5"/>
<polygon fill="#63b8ff" stroke="#63b8ff" points="143.83,-22.97 152.74,-17.23 142.2,-16.16 143.83,-22.97"/>
</a>
</g>
</g>
<!-- Node4 -->
<g id="Node000004" class="node">
<title>Node4</title>
<g id="a_Node000004"><a xlink:href="errno_8h.html" target="_top" xlink:title=" ">
<polygon fill="white" stroke="#666666" points="599.28,-191 548.78,-191 548.78,-170.25 599.28,-170.25 599.28,-191"/>
<text text-anchor="middle" x="574.03" y="-177.5" font-family="Helvetica,sans-Serif" font-size="10.00">errno.h</text>
</a>
</g>
</g>
<!-- Node1&#45;&gt;Node4 -->
<g id="edge3_Node000001_Node000004" class="edge">
<title>Node1&#45;&gt;Node4</title>
<g id="a_edge3_Node000001_Node000004"><a xlink:title=" ">
<path fill="none" stroke="#63b8ff" d="M428.67,-226.59C459.27,-217.12 505.59,-202.79 537.69,-192.87"/>
<polygon fill="#63b8ff" stroke="#63b8ff" points="538.43,-196.3 546.95,-190 536.36,-189.61 538.43,-196.3"/>
</a>
</g>
</g>
<!-- Node5 -->
<g id="Node000005" class="node">
<title>Node5</title>
<g id="a_Node000005"><a xlink:title=" ">
<polygon fill="#e0e0e0" stroke="#999999" points="678.53,-191 617.53,-191 617.53,-170.25 678.53,-170.25 678.53,-191"/>
<text text-anchor="middle" x="648.03" y="-177.5" font-family="Helvetica,sans-Serif" font-size="10.00">stdbool.h</text>
</a>
</g>
</g>
<!-- Node1&#45;&gt;Node5 -->
<g id="edge5_Node000001_Node000005" class="edge">
<title>Node1&#45;&gt;Node5</title>
<g id="a_edge5_Node000001_Node000005"><a xlink:title=" ">
<path fill="none" stroke="#63b8ff" d="M444.01,-226.53C484.38,-218.01 544.44,-205.2 605.94,-191.44"/>
<polygon fill="#63b8ff" stroke="#63b8ff" points="606.56,-194.89 615.55,-189.28 605.03,-188.06 606.56,-194.89"/>
</a>
</g>
</g>
<!-- Node6 -->
<g id="Node000006" class="node">
<title>Node6</title>
<g id="a_Node000006"><a xlink:href="kernel__defines_8h.html" target="_top" xlink:title="Common macros and compiler attributes/pragmas configuration.">
<polygon fill="white" stroke="#666666" points="281.15,-191 184.9,-191 184.9,-170.25 281.15,-170.25 281.15,-191"/>
<text text-anchor="middle" x="233.03" y="-177.5" font-family="Helvetica,sans-Serif" font-size="10.00">kernel_defines.h</text>
</a>
</g>
</g>
<!-- Node1&#45;&gt;Node6 -->
<g id="edge6_Node000001_Node000006" class="edge">
<title>Node1&#45;&gt;Node6</title>
<g id="a_edge6_Node000001_Node000006"><a xlink:title=" ">
<path fill="none" stroke="#63b8ff" d="M367.71,-226.59C341.32,-217.78 302.31,-204.75 273.06,-194.99"/>
<polygon fill="#63b8ff" stroke="#63b8ff" points="274.4,-191.75 263.8,-191.9 272.18,-198.39 274.4,-191.75"/>
</a>
</g>
</g>
<!-- Node12 -->
<g id="Node000012" class="node">
<title>Node12</title>
<g id="a_Node000012"><a xlink:href="drivers_2include_2periph_2gpio_8h.html" target="_top" xlink:title="Low&#45;level GPIO peripheral driver interface definitions.">
<polygon fill="white" stroke="#666666" points="530.9,-191 451.15,-191 451.15,-170.25 530.9,-170.25 530.9,-191"/>
<text text-anchor="middle" x="491.03" y="-177.5" font-family="Helvetica,sans-Serif" font-size="10.00">periph/gpio.h</text>
</a>
</g>
</g>
<!-- Node1&#45;&gt;Node12 -->
<g id="edge16_Node000001_Node000012" class="edge">
<title>Node1&#45;&gt;Node12</title>
<g id="a_edge16_Node000001_Node000012"><a xlink:title=" ">
<path fill="none" stroke="#63b8ff" d="M413.83,-226.59C428,-218.33 448.52,-206.38 464.84,-196.88"/>
<polygon fill="#63b8ff" stroke="#63b8ff" points="466.18,-200.15 473.06,-192.09 462.66,-194.1 466.18,-200.15"/>
</a>
</g>
</g>
<!-- Node16 -->
<g id="Node000016" class="node">
<title>Node16</title>
<g id="a_Node000016"><a xlink:href="i2c_8h.html" target="_top" xlink:title="Low&#45;level I2C peripheral driver interface definition.">
<polygon fill="white" stroke="#666666" points="433.53,-191 360.53,-191 360.53,-170.25 433.53,-170.25 433.53,-191"/>
<text text-anchor="middle" x="397.03" y="-177.5" font-family="Helvetica,sans-Serif" font-size="10.00">periph/i2c.h</text>
</a>
</g>
</g>
<!-- Node1&#45;&gt;Node16 -->
<g id="edge20_Node000001_Node000016" class="edge">
<title>Node1&#45;&gt;Node16</title>
<g id="a_edge20_Node000001_Node000016"><a xlink:title=" ">
<path fill="none" stroke="#63b8ff" d="M397.03,-226.59C397.03,-219.97 397.03,-210.97 397.03,-202.77"/>
<polygon fill="#63b8ff" stroke="#63b8ff" points="400.53,-202.84 397.03,-192.84 393.53,-202.84 400.53,-202.84"/>
</a>
</g>
</g>
<!-- Node2&#45;&gt;Node3 -->
<g id="edge2_Node000002_Node000003" class="edge">
<title>Node2&#45;&gt;Node3</title>
<g id="a_edge2_Node000002_Node000003"><a xlink:title=" ">
<path fill="none" stroke="#63b8ff" d="M107.12,-56.34C120.55,-48.16 139.96,-36.36 155.51,-26.9"/>
<polygon fill="#63b8ff" stroke="#63b8ff" points="157.06,-30.05 163.78,-21.87 153.42,-24.07 157.06,-30.05"/>
</a>
</g>
</g>
<!-- Node7 -->
<g id="Node000007" class="node">
<title>Node7</title>
<g id="a_Node000007"><a xlink:href="modules_8h.html" target="_top" xlink:title="Common macros and compiler attributes/pragmas configuration.">
<polygon fill="white" stroke="#666666" points="89.53,-134.25 22.53,-134.25 22.53,-113.5 89.53,-113.5 89.53,-134.25"/>
<text text-anchor="middle" x="56.03" y="-120.75" font-family="Helvetica,sans-Serif" font-size="10.00">modules.h</text>
</a>
</g>
</g>
<!-- Node6&#45;&gt;Node7 -->
<g id="edge7_Node000006_Node000007" class="edge">
<title>Node6&#45;&gt;Node7</title>
<g id="a_edge7_Node000006_Node000007"><a xlink:title=" ">
<path fill="none" stroke="#63b8ff" d="M201.38,-169.84C172.65,-160.95 130.06,-147.77 98.4,-137.98"/>
<polygon fill="#63b8ff" stroke="#63b8ff" points="99.73,-134.73 89.14,-135.12 97.66,-141.42 99.73,-134.73"/>
</a>
</g>
</g>
<!-- Node8 -->
<g id="Node000008" class="node">
<title>Node8</title>
<g id="a_Node000008"><a xlink:href="riot__version_8h.html" target="_top" xlink:title="Common macros and compiler attributes/pragmas configuration.">
<polygon fill="white" stroke="#666666" points="257.4,-77.5 174.65,-77.5 174.65,-56.75 257.4,-56.75 257.4,-77.5"/>
<text text-anchor="middle" x="216.03" y="-64" font-family="Helvetica,sans-Serif" font-size="10.00">riot_version.h</text>
</a>
</g>
</g>
<!-- Node6&#45;&gt;Node8 -->
<g id="edge8_Node000006_Node000008" class="edge">
<title>Node6&#45;&gt;Node8</title>
<g id="a_edge8_Node000006_Node000008"><a xlink:title=" ">
<path fill="none" stroke="#63b8ff" d="M231.58,-170.12C228.86,-152.27 222.92,-113.36 219.22,-89.09"/>
<polygon fill="#63b8ff" stroke="#63b8ff" points="222.72,-88.78 217.75,-79.42 215.8,-89.83 222.72,-88.78"/>
</a>
</g>
</g>
<!-- Node9 -->
<g id="Node000009" class="node">
<title>Node9</title>
<g id="a_Node000009"><a xlink:href="compiler__hints_8h.html" target="_top" xlink:title="Common macros and compiler attributes/pragmas configuration.">
<polygon fill="white" stroke="#666666" points="204.53,-134.25 107.53,-134.25 107.53,-113.5 204.53,-113.5 204.53,-134.25"/>
<text text-anchor="middle" x="156.03" y="-120.75" font-family="Helvetica,sans-Serif" font-size="10.00">compiler_hints.h</text>
</a>
</g>
</g>
<!-- Node6&#45;&gt;Node9 -->
<g id="edge10_Node000006_Node000009" class="edge">
<title>Node6&#45;&gt;Node9</title>
<g id="a_edge10_Node000006_Node000009"><a xlink:title=" ">
<path fill="none" stroke="#63b8ff" d="M219.26,-169.84C208.09,-161.9 192.11,-150.53 179,-141.21"/>
<polygon fill="#63b8ff" stroke="#63b8ff" points="181.08,-138.4 170.91,-135.46 177.03,-144.1 181.08,-138.4"/>
</a>
</g>
</g>
<!-- Node10 -->
<g id="Node000010" class="node">
<title>Node10</title>
<g id="a_Node000010"><a xlink:href="container_8h.html" target="_top" xlink:title="Common macros and compiler attributes/pragmas configuration.">
<polygon fill="white" stroke="#666666" points="331.4,-134.25 260.65,-134.25 260.65,-113.5 331.4,-113.5 331.4,-134.25"/>
<text text-anchor="middle" x="296.03" y="-120.75" font-family="Helvetica,sans-Serif" font-size="10.00">container.h</text>
</a>
</g>
</g>
<!-- Node6&#45;&gt;Node10 -->
<g id="edge13_Node000006_Node000010" class="edge">
<title>Node6&#45;&gt;Node10</title>
<g id="a_edge13_Node000006_Node000010"><a xlink:title=" ">
<path fill="none" stroke="#63b8ff" d="M244.29,-169.84C253.16,-162.13 265.74,-151.2 276.27,-142.04"/>
<polygon fill="#63b8ff" stroke="#63b8ff" points="278.47,-144.77 283.72,-135.57 273.87,-139.49 278.47,-144.77"/>
</a>
</g>
</g>
<!-- Node8&#45;&gt;Node3 -->
<g id="edge9_Node000008_Node000003" class="edge">
<title>Node8&#45;&gt;Node3</title>
<g id="a_edge9_Node000008_Node000003"><a xlink:title=" ">
<path fill="none" stroke="#63b8ff" d="M209.77,-56.34C205.19,-49.17 198.83,-39.23 193.26,-30.51"/>
<polygon fill="#63b8ff" stroke="#63b8ff" points="196.38,-28.89 188.04,-22.35 190.48,-32.66 196.38,-28.89"/>
</a>
</g>
</g>
<!-- Node9&#45;&gt;Node2 -->
<g id="edge11_Node000009_Node000002" class="edge">
<title>Node9&#45;&gt;Node2</title>
<g id="a_edge11_Node000009_Node000002"><a xlink:title=" ">
<path fill="none" stroke="#63b8ff" d="M144.41,-113.09C135.16,-105.3 122.01,-94.22 111.08,-85.01"/>
<polygon fill="#63b8ff" stroke="#63b8ff" points="113.61,-82.57 103.7,-78.8 109.1,-87.92 113.61,-82.57"/>
</a>
</g>
</g>
<!-- Node9&#45;&gt;Node3 -->
<g id="edge12_Node000009_Node000003" class="edge">
<title>Node9&#45;&gt;Node3</title>
<g id="a_edge12_Node000009_Node000003"><a xlink:title=" ">
<path fill="none" stroke="#63b8ff" d="M156.95,-113.36C158.33,-100.43 161.27,-76.62 166.03,-56.75 168.02,-48.39 170.86,-39.37 173.53,-31.58"/>
<polygon fill="#63b8ff" stroke="#63b8ff" points="176.74,-32.99 176.82,-22.4 170.15,-30.64 176.74,-32.99"/>
</a>
</g>
</g>
<!-- Node10&#45;&gt;Node3 -->
<g id="edge15_Node000010_Node000003" class="edge">
<title>Node10&#45;&gt;Node3</title>
<g id="a_edge15_Node000010_Node000003"><a xlink:title=" ">
<path fill="none" stroke="#63b8ff" d="M293.77,-113.23C290.07,-99.27 281.55,-73.3 266.03,-56.75 252.89,-42.74 234.43,-32.16 218.07,-24.77"/>
<polygon fill="#63b8ff" stroke="#63b8ff" points="219.67,-21.64 209.09,-20.95 216.93,-28.08 219.67,-21.64"/>
</a>
</g>
</g>
<!-- Node11 -->
<g id="Node000011" class="node">
<title>Node11</title>
<g id="a_Node000011"><a xlink:title=" ">
<polygon fill="#e0e0e0" stroke="#999999" points="368.53,-77.5 313.53,-77.5 313.53,-56.75 368.53,-56.75 368.53,-77.5"/>
<text text-anchor="middle" x="341.03" y="-64" font-family="Helvetica,sans-Serif" font-size="10.00">stddef.h</text>
</a>
</g>
</g>
<!-- Node10&#45;&gt;Node11 -->
<g id="edge14_Node000010_Node000011" class="edge">
<title>Node10&#45;&gt;Node11</title>
<g id="a_edge14_Node000010_Node000011"><a xlink:title=" ">
<path fill="none" stroke="#63b8ff" d="M304.07,-113.09C310.09,-105.77 318.49,-95.54 325.77,-86.69"/>
<polygon fill="#63b8ff" stroke="#63b8ff" points="328.44,-88.95 332.09,-79 323.04,-84.5 328.44,-88.95"/>
</a>
</g>
</g>
<!-- Node13 -->
<g id="Node000013" class="node">
<title>Node13</title>
<g id="a_Node000013"><a xlink:title=" ">
<polygon fill="#e0e0e0" stroke="#999999" points="577.4,-134.25 524.65,-134.25 524.65,-113.5 577.4,-113.5 577.4,-134.25"/>
<text text-anchor="middle" x="551.03" y="-120.75" font-family="Helvetica,sans-Serif" font-size="10.00">limits.h</text>
</a>
</g>
</g>
<!-- Node12&#45;&gt;Node13 -->
<g id="edge17_Node000012_Node000013" class="edge">
<title>Node12&#45;&gt;Node13</title>
<g id="a_edge17_Node000012_Node000013"><a xlink:title=" ">
<path fill="none" stroke="#63b8ff" d="M501.75,-169.84C510.11,-162.21 521.94,-151.42 531.91,-142.32"/>
<polygon fill="#63b8ff" stroke="#63b8ff" points="534.25,-144.92 539.27,-135.6 529.53,-139.75 534.25,-144.92"/>
</a>
</g>
</g>
<!-- Node14 -->
<g id="Node000014" class="node">
<title>Node14</title>
<g id="a_Node000014"><a xlink:title=" ">
<polygon fill="#e0e0e0" stroke="#999999" points="674.15,-134.25 595.9,-134.25 595.9,-113.5 674.15,-113.5 674.15,-134.25"/>
<text text-anchor="middle" x="635.03" y="-120.75" font-family="Helvetica,sans-Serif" font-size="10.00">periph_cpu.h</text>
</a>
</g>
</g>
<!-- Node12&#45;&gt;Node14 -->
<g id="edge18_Node000012_Node000014" class="edge">
<title>Node12&#45;&gt;Node14</title>
<g id="a_edge18_Node000012_Node000014"><a xlink:title=" ">
<path fill="none" stroke="#63b8ff" d="M516.77,-169.84C539.6,-161.16 573.2,-148.38 598.75,-138.67"/>
<polygon fill="#63b8ff" stroke="#63b8ff" points="599.99,-141.94 608.09,-135.12 597.5,-135.4 599.99,-141.94"/>
</a>
</g>
</g>
<!-- Node15 -->
<g id="Node000015" class="node">
<title>Node15</title>
<g id="a_Node000015"><a xlink:title=" ">
<polygon fill="#e0e0e0" stroke="#999999" points="506.65,-134.25 425.4,-134.25 425.4,-113.5 506.65,-113.5 506.65,-134.25"/>
<text text-anchor="middle" x="466.03" y="-120.75" font-family="Helvetica,sans-Serif" font-size="10.00">periph_conf.h</text>
</a>
</g>
</g>
<!-- Node12&#45;&gt;Node15 -->
<g id="edge19_Node000012_Node000015" class="edge">
<title>Node12&#45;&gt;Node15</title>
<g id="a_edge19_Node000012_Node000015"><a xlink:title=" ">
<path fill="none" stroke="#63b8ff" d="M486.56,-169.84C483.39,-162.91 479.04,-153.37 475.15,-144.86"/>
<polygon fill="#63b8ff" stroke="#63b8ff" points="478.42,-143.6 471.09,-135.96 472.06,-146.51 478.42,-143.6"/>
</a>
</g>
</g>
<!-- Node16&#45;&gt;Node3 -->
<g id="edge21_Node000016_Node000003" class="edge">
<title>Node16&#45;&gt;Node3</title>
<g id="a_edge21_Node000016_Node000003"><a xlink:title=" ">
<path fill="none" stroke="#63b8ff" d="M398.81,-169.79C402.38,-146.73 407.71,-88.69 378.03,-56.75 356.8,-33.92 270.16,-20.92 219.12,-15.11"/>
<polygon fill="#63b8ff" stroke="#63b8ff" points="219.71,-11.65 209.39,-14.04 218.95,-18.61 219.71,-11.65"/>
</a>
</g>
</g>
<!-- Node16&#45;&gt;Node11 -->
<g id="edge22_Node000016_Node000011" class="edge">
<title>Node16&#45;&gt;Node11</title>
<g id="a_edge22_Node000016_Node000011"><a xlink:title=" ">
<path fill="none" stroke="#63b8ff" d="M392.25,-170.12C383.16,-152.02 363.2,-112.28 351.06,-88.1"/>
<polygon fill="#63b8ff" stroke="#63b8ff" points="354.24,-86.64 346.63,-79.28 347.99,-89.78 354.24,-86.64"/>
</a>
</g>
</g>
<!-- Node16&#45;&gt;Node13 -->
<g id="edge23_Node000016_Node000013" class="edge">
<title>Node16&#45;&gt;Node13</title>
<g id="a_edge23_Node000016_Node000013"><a xlink:title=" ">
<path fill="none" stroke="#63b8ff" d="M424.56,-169.84C449.35,-161.02 486,-147.99 513.47,-138.23"/>
<polygon fill="#63b8ff" stroke="#63b8ff" points="514.57,-141.55 522.82,-134.9 512.23,-134.95 514.57,-141.55"/>
</a>
</g>
</g>
<!-- Node16&#45;&gt;Node14 -->
<g id="edge25_Node000016_Node000014" class="edge">
<title>Node16&#45;&gt;Node14</title>
<g id="a_edge25_Node000016_Node000014"><a xlink:title=" ">
<path fill="none" stroke="#63b8ff" d="M433.95,-171.13C474.4,-161.83 539.5,-146.85 584.62,-136.47"/>
<polygon fill="#63b8ff" stroke="#63b8ff" points="585.2,-139.93 594.16,-134.28 583.63,-133.11 585.2,-139.93"/>
</a>
</g>
</g>
<!-- Node16&#45;&gt;Node15 -->
<g id="edge24_Node000016_Node000015" class="edge">
<title>Node16&#45;&gt;Node15</title>
<g id="a_edge24_Node000016_Node000015"><a xlink:title=" ">
<path fill="none" stroke="#63b8ff" d="M409.36,-169.84C419.27,-161.97 433.41,-150.75 445.09,-141.49"/>
<polygon fill="#63b8ff" stroke="#63b8ff" points="446.95,-144.48 452.61,-135.52 442.6,-138.99 446.95,-144.48"/>
</a>
</g>
</g>
</g>
</svg>
