<?xml version="1.0" encoding="UTF-8" standalone="no"?>
<!DOCTYPE svg PUBLIC "-//W3C//DTD SVG 1.1//EN"
 "http://www.w3.org/Graphics/SVG/1.1/DTD/svg11.dtd">
<!-- Generated by graphviz version 12.1.1 (0)
 -->
<!-- Title: drivers/ina3221/include/ina3221_internal.h Pages: 1 -->
<svg width="698pt" height="325pt"
 viewBox="0.00 0.00 698.39 325.25" xmlns="http://www.w3.org/2000/svg" xmlns:xlink="http://www.w3.org/1999/xlink">
<g id="graph0" class="graph" transform="scale(1 1) rotate(0) translate(4 321.25)">
<title>drivers/ina3221/include/ina3221_internal.h</title>
<!-- Node1 -->
<g id="Node000001" class="node">
<title>Node1</title>
<g id="a_Node000001"><a xlink:title="Functions to convert register values of INA3221 to actual voltage values and vice versa.">
<polygon fill="#999999" stroke="#666666" points="252.24,-317.25 122.24,-317.25 122.24,-283.75 252.24,-283.75 252.24,-317.25"/>
<text text-anchor="start" x="130.24" y="-303.75" font-family="Helvetica,sans-Serif" font-size="10.00">drivers/ina3221/include</text>
<text text-anchor="middle" x="187.24" y="-291" font-family="Helvetica,sans-Serif" font-size="10.00">/ina3221_internal.h</text>
</a>
</g>
</g>
<!-- Node2 -->
<g id="Node000002" class="node">
<title>Node2</title>
<g id="a_Node000002"><a xlink:href="assert_8h.html" target="_top" xlink:title="POSIX.1&#45;2008 compliant version of the assert macro.">
<polygon fill="white" stroke="#666666" points="63.74,-77.5 8.74,-77.5 8.74,-56.75 63.74,-56.75 63.74,-77.5"/>
<text text-anchor="middle" x="36.24" y="-64" font-family="Helvetica,sans-Serif" font-size="10.00">assert.h</text>
</a>
</g>
</g>
<!-- Node1&#45;&gt;Node2 -->
<g id="edge1_Node000001_Node000002" class="edge">
<title>Node1&#45;&gt;Node2</title>
<g id="a_edge1_Node000001_Node000002"><a xlink:title=" ">
<path fill="none" stroke="#63b8ff" d="M137.96,-283.36C96.75,-267.05 40.32,-237.52 12.24,-191 -5.58,-161.47 -1.17,-146.68 8.24,-113.5 10.91,-104.09 16.15,-94.71 21.38,-86.95"/>
<polygon fill="#63b8ff" stroke="#63b8ff" points="24.09,-89.17 27.14,-79.03 18.43,-85.06 24.09,-89.17"/>
</a>
</g>
</g>
<!-- Node4 -->
<g id="Node000004" class="node">
<title>Node4</title>
<g id="a_Node000004"><a xlink:href="ina3221__defines_8h.html" target="_top" xlink:title="Internal definitions for Texas Instruments INA3221 three&#45;channel, high&#45;side current and bus voltage m...">
<polygon fill="white" stroke="#666666" points="342.86,-247.75 237.61,-247.75 237.61,-227 342.86,-227 342.86,-247.75"/>
<text text-anchor="middle" x="290.24" y="-234.25" font-family="Helvetica,sans-Serif" font-size="10.00">ina3221_defines.h</text>
</a>
</g>
</g>
<!-- Node1&#45;&gt;Node4 -->
<g id="edge3_Node000001_Node000004" class="edge">
<title>Node1&#45;&gt;Node4</title>
<g id="a_edge3_Node000001_Node000004"><a xlink:title=" ">
<path fill="none" stroke="#63b8ff" d="M214.57,-283.28C229.87,-274.2 248.86,-262.93 263.98,-253.96"/>
<polygon fill="#63b8ff" stroke="#63b8ff" points="265.63,-257.05 272.44,-248.94 262.06,-251.03 265.63,-257.05"/>
</a>
</g>
</g>
<!-- Node5 -->
<g id="Node000005" class="node">
<title>Node5</title>
<g id="a_Node000005"><a xlink:href="ina3221_8h.html" target="_top" xlink:title="Device driver interface for Texas Instruments INA3221 three&#45;channel, high&#45;side current and bus voltag...">
<polygon fill="white" stroke="#666666" points="219.24,-247.75 155.24,-247.75 155.24,-227 219.24,-227 219.24,-247.75"/>
<text text-anchor="middle" x="187.24" y="-234.25" font-family="Helvetica,sans-Serif" font-size="10.00">ina3221.h</text>
</a>
</g>
</g>
<!-- Node1&#45;&gt;Node5 -->
<g id="edge4_Node000001_Node000005" class="edge">
<title>Node1&#45;&gt;Node5</title>
<g id="a_edge4_Node000001_Node000005"><a xlink:title=" ">
<path fill="none" stroke="#63b8ff" d="M187.24,-283.44C187.24,-276.1 187.24,-267.32 187.24,-259.46"/>
<polygon fill="#63b8ff" stroke="#63b8ff" points="190.74,-259.73 187.24,-249.73 183.74,-259.73 190.74,-259.73"/>
</a>
</g>
</g>
<!-- Node3 -->
<g id="Node000003" class="node">
<title>Node3</title>
<g id="a_Node000003"><a xlink:title=" ">
<polygon fill="#e0e0e0" stroke="#999999" points="279.61,-20.75 226.86,-20.75 226.86,0 279.61,0 279.61,-20.75"/>
<text text-anchor="middle" x="253.24" y="-7.25" font-family="Helvetica,sans-Serif" font-size="10.00">stdint.h</text>
</a>
</g>
</g>
<!-- Node2&#45;&gt;Node3 -->
<g id="edge2_Node000002_Node000003" class="edge">
<title>Node2&#45;&gt;Node3</title>
<g id="a_edge2_Node000002_Node000003"><a xlink:title=" ">
<path fill="none" stroke="#63b8ff" d="M64.16,-59.08C102.73,-49.35 172.4,-31.77 215.55,-20.88"/>
<polygon fill="#63b8ff" stroke="#63b8ff" points="216.14,-24.35 224.98,-18.51 214.42,-17.56 216.14,-24.35"/>
</a>
</g>
</g>
<!-- Node5&#45;&gt;Node2 -->
<g id="edge5_Node000005_Node000002" class="edge">
<title>Node5&#45;&gt;Node2</title>
<g id="a_edge5_Node000005_Node000002"><a xlink:title=" ">
<path fill="none" stroke="#63b8ff" d="M154.76,-235.9C119.49,-233.59 63.84,-224.41 31.24,-191 6.74,-165.89 9.01,-147.83 16.24,-113.5 18.08,-104.78 21.69,-95.7 25.36,-87.97"/>
<polygon fill="#63b8ff" stroke="#63b8ff" points="28.42,-89.66 29.86,-79.16 22.19,-86.48 28.42,-89.66"/>
</a>
</g>
</g>
<!-- Node5&#45;&gt;Node3 -->
<g id="edge7_Node000005_Node000003" class="edge">
<title>Node5&#45;&gt;Node3</title>
<g id="a_edge7_Node000005_Node000003"><a xlink:title=" ">
<path fill="none" stroke="#63b8ff" d="M219.4,-228.64C222.38,-228.04 225.36,-227.48 228.24,-227 330.66,-209.88 630.54,-221.89 686.24,-134.25 730.67,-64.34 404.57,-25.95 291.16,-14.82"/>
<polygon fill="#63b8ff" stroke="#63b8ff" points="291.74,-11.36 281.45,-13.89 291.07,-18.33 291.74,-11.36"/>
</a>
</g>
</g>
<!-- Node6 -->
<g id="Node000006" class="node">
<title>Node6</title>
<g id="a_Node000006"><a xlink:href="errno_8h.html" target="_top" xlink:title=" ">
<polygon fill="white" stroke="#666666" points="90.49,-191 39.99,-191 39.99,-170.25 90.49,-170.25 90.49,-191"/>
<text text-anchor="middle" x="65.24" y="-177.5" font-family="Helvetica,sans-Serif" font-size="10.00">errno.h</text>
</a>
</g>
</g>
<!-- Node5&#45;&gt;Node6 -->
<g id="edge6_Node000005_Node000006" class="edge">
<title>Node5&#45;&gt;Node6</title>
<g id="a_edge6_Node000005_Node000006"><a xlink:title=" ">
<path fill="none" stroke="#63b8ff" d="M165.43,-226.59C146.43,-218.06 118.64,-205.59 97.15,-195.94"/>
<polygon fill="#63b8ff" stroke="#63b8ff" points="98.8,-192.85 88.24,-191.95 95.93,-199.24 98.8,-192.85"/>
</a>
</g>
</g>
<!-- Node7 -->
<g id="Node000007" class="node">
<title>Node7</title>
<g id="a_Node000007"><a xlink:title=" ">
<polygon fill="#e0e0e0" stroke="#999999" points="169.74,-191 108.74,-191 108.74,-170.25 169.74,-170.25 169.74,-191"/>
<text text-anchor="middle" x="139.24" y="-177.5" font-family="Helvetica,sans-Serif" font-size="10.00">stdbool.h</text>
</a>
</g>
</g>
<!-- Node5&#45;&gt;Node7 -->
<g id="edge8_Node000005_Node000007" class="edge">
<title>Node5&#45;&gt;Node7</title>
<g id="a_edge8_Node000005_Node000007"><a xlink:title=" ">
<path fill="none" stroke="#63b8ff" d="M178.66,-226.59C172.17,-219.19 163.09,-208.82 155.27,-199.91"/>
<polygon fill="#63b8ff" stroke="#63b8ff" points="157.97,-197.68 148.74,-192.47 152.71,-202.29 157.97,-197.68"/>
</a>
</g>
</g>
<!-- Node8 -->
<g id="Node000008" class="node">
<title>Node8</title>
<g id="a_Node000008"><a xlink:href="kernel__defines_8h.html" target="_top" xlink:title="Common macros and compiler attributes/pragmas configuration.">
<polygon fill="white" stroke="#666666" points="284.36,-191 188.11,-191 188.11,-170.25 284.36,-170.25 284.36,-191"/>
<text text-anchor="middle" x="236.24" y="-177.5" font-family="Helvetica,sans-Serif" font-size="10.00">kernel_defines.h</text>
</a>
</g>
</g>
<!-- Node5&#45;&gt;Node8 -->
<g id="edge9_Node000005_Node000008" class="edge">
<title>Node5&#45;&gt;Node8</title>
<g id="a_edge9_Node000005_Node000008"><a xlink:title=" ">
<path fill="none" stroke="#63b8ff" d="M196,-226.59C202.69,-219.11 212.09,-208.61 220.13,-199.63"/>
<polygon fill="#63b8ff" stroke="#63b8ff" points="222.49,-202.24 226.55,-192.46 217.27,-197.57 222.49,-202.24"/>
</a>
</g>
</g>
<!-- Node14 -->
<g id="Node000014" class="node">
<title>Node14</title>
<g id="a_Node000014"><a xlink:href="drivers_2include_2periph_2gpio_8h.html" target="_top" xlink:title="Low&#45;level GPIO peripheral driver interface definitions.">
<polygon fill="white" stroke="#666666" points="556.11,-191 476.36,-191 476.36,-170.25 556.11,-170.25 556.11,-191"/>
<text text-anchor="middle" x="516.24" y="-177.5" font-family="Helvetica,sans-Serif" font-size="10.00">periph/gpio.h</text>
</a>
</g>
</g>
<!-- Node5&#45;&gt;Node14 -->
<g id="edge19_Node000005_Node000014" class="edge">
<title>Node5&#45;&gt;Node14</title>
<g id="a_edge19_Node000005_Node000014"><a xlink:title=" ">
<path fill="none" stroke="#63b8ff" d="M219.42,-228.8C222.4,-228.16 225.37,-227.55 228.24,-227 329.41,-207.51 355.48,-207.08 457.24,-191 459.7,-190.61 462.21,-190.21 464.75,-189.81"/>
<polygon fill="#63b8ff" stroke="#63b8ff" points="465.11,-193.3 474.44,-188.28 464.01,-186.38 465.11,-193.3"/>
</a>
</g>
</g>
<!-- Node18 -->
<g id="Node000018" class="node">
<title>Node18</title>
<g id="a_Node000018"><a xlink:href="i2c_8h.html" target="_top" xlink:title="Low&#45;level I2C peripheral driver interface definition.">
<polygon fill="white" stroke="#666666" points="447.74,-191 374.74,-191 374.74,-170.25 447.74,-170.25 447.74,-191"/>
<text text-anchor="middle" x="411.24" y="-177.5" font-family="Helvetica,sans-Serif" font-size="10.00">periph/i2c.h</text>
</a>
</g>
</g>
<!-- Node5&#45;&gt;Node18 -->
<g id="edge23_Node000005_Node000018" class="edge">
<title>Node5&#45;&gt;Node18</title>
<g id="a_edge23_Node000005_Node000018"><a xlink:title=" ">
<path fill="none" stroke="#63b8ff" d="M219.33,-228.53C256.98,-219.33 319.76,-203.99 363.21,-193.36"/>
<polygon fill="#63b8ff" stroke="#63b8ff" points="364.01,-196.77 372.89,-191 362.35,-189.97 364.01,-196.77"/>
</a>
</g>
</g>
<!-- Node9 -->
<g id="Node000009" class="node">
<title>Node9</title>
<g id="a_Node000009"><a xlink:href="modules_8h.html" target="_top" xlink:title="Common macros and compiler attributes/pragmas configuration.">
<polygon fill="white" stroke="#666666" points="207.74,-134.25 140.74,-134.25 140.74,-113.5 207.74,-113.5 207.74,-134.25"/>
<text text-anchor="middle" x="174.24" y="-120.75" font-family="Helvetica,sans-Serif" font-size="10.00">modules.h</text>
</a>
</g>
</g>
<!-- Node8&#45;&gt;Node9 -->
<g id="edge10_Node000008_Node000009" class="edge">
<title>Node8&#45;&gt;Node9</title>
<g id="a_edge10_Node000008_Node000009"><a xlink:title=" ">
<path fill="none" stroke="#63b8ff" d="M225.16,-169.84C216.43,-162.13 204.05,-151.2 193.68,-142.04"/>
<polygon fill="#63b8ff" stroke="#63b8ff" points="196.18,-139.58 186.36,-135.58 191.54,-144.82 196.18,-139.58"/>
</a>
</g>
</g>
<!-- Node10 -->
<g id="Node000010" class="node">
<title>Node10</title>
<g id="a_Node000010"><a xlink:href="riot__version_8h.html" target="_top" xlink:title="Common macros and compiler attributes/pragmas configuration.">
<polygon fill="white" stroke="#666666" points="260.61,-77.5 177.86,-77.5 177.86,-56.75 260.61,-56.75 260.61,-77.5"/>
<text text-anchor="middle" x="219.24" y="-64" font-family="Helvetica,sans-Serif" font-size="10.00">riot_version.h</text>
</a>
</g>
</g>
<!-- Node8&#45;&gt;Node10 -->
<g id="edge11_Node000008_Node000010" class="edge">
<title>Node8&#45;&gt;Node10</title>
<g id="a_edge11_Node000008_Node000010"><a xlink:title=" ">
<path fill="none" stroke="#63b8ff" d="M234.79,-170.12C232.07,-152.27 226.14,-113.36 222.44,-89.09"/>
<polygon fill="#63b8ff" stroke="#63b8ff" points="225.93,-88.78 220.96,-79.42 219.01,-89.83 225.93,-88.78"/>
</a>
</g>
</g>
<!-- Node11 -->
<g id="Node000011" class="node">
<title>Node11</title>
<g id="a_Node000011"><a xlink:href="compiler__hints_8h.html" target="_top" xlink:title="Common macros and compiler attributes/pragmas configuration.">
<polygon fill="white" stroke="#666666" points="122.74,-134.25 25.74,-134.25 25.74,-113.5 122.74,-113.5 122.74,-134.25"/>
<text text-anchor="middle" x="74.24" y="-120.75" font-family="Helvetica,sans-Serif" font-size="10.00">compiler_hints.h</text>
</a>
</g>
</g>
<!-- Node8&#45;&gt;Node11 -->
<g id="edge13_Node000008_Node000011" class="edge">
<title>Node8&#45;&gt;Node11</title>
<g id="a_edge13_Node000008_Node000011"><a xlink:title=" ">
<path fill="none" stroke="#63b8ff" d="M207.28,-169.84C181.21,-161.03 142.68,-148 113.78,-138.24"/>
<polygon fill="#63b8ff" stroke="#63b8ff" points="115.25,-135.04 104.66,-135.16 113.01,-141.67 115.25,-135.04"/>
</a>
</g>
</g>
<!-- Node12 -->
<g id="Node000012" class="node">
<title>Node12</title>
<g id="a_Node000012"><a xlink:href="container_8h.html" target="_top" xlink:title="Common macros and compiler attributes/pragmas configuration.">
<polygon fill="white" stroke="#666666" points="334.61,-134.25 263.86,-134.25 263.86,-113.5 334.61,-113.5 334.61,-134.25"/>
<text text-anchor="middle" x="299.24" y="-120.75" font-family="Helvetica,sans-Serif" font-size="10.00">container.h</text>
</a>
</g>
</g>
<!-- Node8&#45;&gt;Node12 -->
<g id="edge16_Node000008_Node000012" class="edge">
<title>Node8&#45;&gt;Node12</title>
<g id="a_edge16_Node000008_Node000012"><a xlink:title=" ">
<path fill="none" stroke="#63b8ff" d="M247.5,-169.84C256.37,-162.13 268.95,-151.2 279.49,-142.04"/>
<polygon fill="#63b8ff" stroke="#63b8ff" points="281.68,-144.77 286.93,-135.57 277.09,-139.49 281.68,-144.77"/>
</a>
</g>
</g>
<!-- Node10&#45;&gt;Node3 -->
<g id="edge12_Node000010_Node000003" class="edge">
<title>Node10&#45;&gt;Node3</title>
<g id="a_edge12_Node000010_Node000003"><a xlink:title=" ">
<path fill="none" stroke="#63b8ff" d="M225.32,-56.34C229.72,-49.25 235.81,-39.44 241.18,-30.79"/>
<polygon fill="#63b8ff" stroke="#63b8ff" points="244.11,-32.71 246.42,-22.36 238.17,-29.01 244.11,-32.71"/>
</a>
</g>
</g>
<!-- Node11&#45;&gt;Node2 -->
<g id="edge14_Node000011_Node000002" class="edge">
<title>Node11&#45;&gt;Node2</title>
<g id="a_edge14_Node000011_Node000002"><a xlink:title=" ">
<path fill="none" stroke="#63b8ff" d="M67.45,-113.09C62.47,-105.92 55.57,-95.98 49.52,-87.26"/>
<polygon fill="#63b8ff" stroke="#63b8ff" points="52.41,-85.29 43.84,-79.07 46.66,-89.28 52.41,-85.29"/>
</a>
</g>
</g>
<!-- Node11&#45;&gt;Node3 -->
<g id="edge15_Node000011_Node000003" class="edge">
<title>Node11&#45;&gt;Node3</title>
<g id="a_edge15_Node000011_Node000003"><a xlink:title=" ">
<path fill="none" stroke="#63b8ff" d="M87.14,-113.2C105.13,-99.87 138.95,-75.39 169.24,-56.75 186.84,-45.92 207.22,-34.87 223.5,-26.39"/>
<polygon fill="#63b8ff" stroke="#63b8ff" points="224.91,-29.61 232.19,-21.91 221.7,-23.38 224.91,-29.61"/>
</a>
</g>
</g>
<!-- Node12&#45;&gt;Node3 -->
<g id="edge18_Node000012_Node000003" class="edge">
<title>Node12&#45;&gt;Node3</title>
<g id="a_edge18_Node000012_Node000003"><a xlink:title=" ">
<path fill="none" stroke="#63b8ff" d="M295.32,-113.37C287.89,-95.36 271.61,-55.89 261.62,-31.68"/>
<polygon fill="#63b8ff" stroke="#63b8ff" points="264.91,-30.48 257.86,-22.57 258.44,-33.15 264.91,-30.48"/>
</a>
</g>
</g>
<!-- Node13 -->
<g id="Node000013" class="node">
<title>Node13</title>
<g id="a_Node000013"><a xlink:title=" ">
<polygon fill="#e0e0e0" stroke="#999999" points="371.74,-77.5 316.74,-77.5 316.74,-56.75 371.74,-56.75 371.74,-77.5"/>
<text text-anchor="middle" x="344.24" y="-64" font-family="Helvetica,sans-Serif" font-size="10.00">stddef.h</text>
</a>
</g>
</g>
<!-- Node12&#45;&gt;Node13 -->
<g id="edge17_Node000012_Node000013" class="edge">
<title>Node12&#45;&gt;Node13</title>
<g id="a_edge17_Node000012_Node000013"><a xlink:title=" ">
<path fill="none" stroke="#63b8ff" d="M307.28,-113.09C313.3,-105.77 321.71,-95.54 328.98,-86.69"/>
<polygon fill="#63b8ff" stroke="#63b8ff" points="331.66,-88.95 335.3,-79 326.25,-84.5 331.66,-88.95"/>
</a>
</g>
</g>
<!-- Node15 -->
<g id="Node000015" class="node">
<title>Node15</title>
<g id="a_Node000015"><a xlink:title=" ">
<polygon fill="#e0e0e0" stroke="#999999" points="480.61,-134.25 427.86,-134.25 427.86,-113.5 480.61,-113.5 480.61,-134.25"/>
<text text-anchor="middle" x="454.24" y="-120.75" font-family="Helvetica,sans-Serif" font-size="10.00">limits.h</text>
</a>
</g>
</g>
<!-- Node14&#45;&gt;Node15 -->
<g id="edge20_Node000014_Node000015" class="edge">
<title>Node14&#45;&gt;Node15</title>
<g id="a_edge20_Node000014_Node000015"><a xlink:title=" ">
<path fill="none" stroke="#63b8ff" d="M505.16,-169.84C496.43,-162.13 484.05,-151.2 473.68,-142.04"/>
<polygon fill="#63b8ff" stroke="#63b8ff" points="476.18,-139.58 466.36,-135.58 471.54,-144.82 476.18,-139.58"/>
</a>
</g>
</g>
<!-- Node16 -->
<g id="Node000016" class="node">
<title>Node16</title>
<g id="a_Node000016"><a xlink:title=" ">
<polygon fill="#e0e0e0" stroke="#999999" points="577.36,-134.25 499.11,-134.25 499.11,-113.5 577.36,-113.5 577.36,-134.25"/>
<text text-anchor="middle" x="538.24" y="-120.75" font-family="Helvetica,sans-Serif" font-size="10.00">periph_cpu.h</text>
</a>
</g>
</g>
<!-- Node14&#45;&gt;Node16 -->
<g id="edge21_Node000014_Node000016" class="edge">
<title>Node14&#45;&gt;Node16</title>
<g id="a_edge21_Node000014_Node000016"><a xlink:title=" ">
<path fill="none" stroke="#63b8ff" d="M520.17,-169.84C522.93,-162.99 526.7,-153.59 530.09,-145.15"/>
<polygon fill="#63b8ff" stroke="#63b8ff" points="533.3,-146.57 533.78,-135.98 526.8,-143.96 533.3,-146.57"/>
</a>
</g>
</g>
<!-- Node17 -->
<g id="Node000017" class="node">
<title>Node17</title>
<g id="a_Node000017"><a xlink:title=" ">
<polygon fill="#e0e0e0" stroke="#999999" points="676.86,-134.25 595.61,-134.25 595.61,-113.5 676.86,-113.5 676.86,-134.25"/>
<text text-anchor="middle" x="636.24" y="-120.75" font-family="Helvetica,sans-Serif" font-size="10.00">periph_conf.h</text>
</a>
</g>
</g>
<!-- Node14&#45;&gt;Node17 -->
<g id="edge22_Node000014_Node000017" class="edge">
<title>Node14&#45;&gt;Node17</title>
<g id="a_edge22_Node000014_Node000017"><a xlink:title=" ">
<path fill="none" stroke="#63b8ff" d="M537.69,-169.84C556.29,-161.35 583.46,-148.95 604.57,-139.33"/>
<polygon fill="#63b8ff" stroke="#63b8ff" points="605.95,-142.54 613.59,-135.21 603.04,-136.17 605.95,-142.54"/>
</a>
</g>
</g>
<!-- Node18&#45;&gt;Node3 -->
<g id="edge24_Node000018_Node000003" class="edge">
<title>Node18&#45;&gt;Node3</title>
<g id="a_edge24_Node000018_Node000003"><a xlink:title=" ">
<path fill="none" stroke="#63b8ff" d="M411.77,-169.92C412.46,-147.14 410.98,-89.66 381.24,-56.75 358.25,-31.3 320.06,-20.13 291.37,-15.22"/>
<polygon fill="#63b8ff" stroke="#63b8ff" points="292.02,-11.77 281.61,-13.75 290.98,-18.7 292.02,-11.77"/>
</a>
</g>
</g>
<!-- Node18&#45;&gt;Node13 -->
<g id="edge25_Node000018_Node000013" class="edge">
<title>Node18&#45;&gt;Node13</title>
<g id="a_edge25_Node000018_Node000013"><a xlink:title=" ">
<path fill="none" stroke="#63b8ff" d="M405.53,-170.12C394.61,-151.94 370.56,-111.92 356.04,-87.77"/>
<polygon fill="#63b8ff" stroke="#63b8ff" points="359.06,-85.99 350.91,-79.22 353.06,-89.6 359.06,-85.99"/>
</a>
</g>
</g>
<!-- Node18&#45;&gt;Node15 -->
<g id="edge26_Node000018_Node000015" class="edge">
<title>Node18&#45;&gt;Node15</title>
<g id="a_edge26_Node000018_Node000015"><a xlink:title=" ">
<path fill="none" stroke="#63b8ff" d="M418.93,-169.84C424.68,-162.52 432.71,-152.29 439.66,-143.44"/>
<polygon fill="#63b8ff" stroke="#63b8ff" points="442.26,-145.8 445.68,-135.77 436.75,-141.47 442.26,-145.8"/>
</a>
</g>
</g>
<!-- Node18&#45;&gt;Node16 -->
<g id="edge28_Node000018_Node000016" class="edge">
<title>Node18&#45;&gt;Node16</title>
<g id="a_edge28_Node000018_Node000016"><a xlink:title=" ">
<path fill="none" stroke="#63b8ff" d="M433.94,-169.84C453.81,-161.27 482.91,-148.73 505.33,-139.06"/>
<polygon fill="#63b8ff" stroke="#63b8ff" points="506.54,-142.35 514.34,-135.18 503.77,-135.92 506.54,-142.35"/>
</a>
</g>
</g>
<!-- Node18&#45;&gt;Node17 -->
<g id="edge27_Node000018_Node000017" class="edge">
<title>Node18&#45;&gt;Node17</title>
<g id="a_edge27_Node000018_Node000017"><a xlink:title=" ">
<path fill="none" stroke="#63b8ff" d="M448.14,-170.65C485.37,-161.59 543.16,-147.52 584.86,-137.38"/>
<polygon fill="#63b8ff" stroke="#63b8ff" points="585.54,-140.82 594.42,-135.05 583.88,-134.01 585.54,-140.82"/>
</a>
</g>
</g>
</g>
</svg>
