<?xml version="1.0" encoding="UTF-8" standalone="no"?>
<!DOCTYPE svg PUBLIC "-//W3C//DTD SVG 1.1//EN"
 "http://www.w3.org/Graphics/SVG/1.1/DTD/svg11.dtd">
<!-- Generated by graphviz version 12.1.1 (0)
 -->
<!-- Title: Graphical Class Hierarchy Pages: 1 -->
<svg width="266pt" height="444pt"
 viewBox="0.00 0.00 265.75 443.75" xmlns="http://www.w3.org/2000/svg" xmlns:xlink="http://www.w3.org/1999/xlink">
<g id="graph0" class="graph" transform="scale(1 1) rotate(0) translate(4 439.75)">
<title>Graphical Class Hierarchy</title>
<!-- Node0 -->
<g id="Node000000" class="node">
<title>Node0</title>
<g id="a_Node000000"><a xlink:href="structicmpv6__hdr__t.html" target="_top" xlink:title="General ICMPv6 message format.">
<polygon fill="white" stroke="#666666" points="82,-215.75 0,-215.75 0,-195 82,-195 82,-215.75"/>
<text text-anchor="middle" x="41" y="-202.25" font-family="Helvetica,sans-Serif" font-size="10.00">icmpv6_hdr_t</text>
</a>
</g>
</g>
<!-- Node1 -->
<g id="Node000001" class="node">
<title>Node1</title>
<g id="a_Node000001"><a xlink:href="structicmpv6__echo__t.html" target="_top" xlink:title="Echo request and response message format.">
<polygon fill="white" stroke="#666666" points="232.62,-435.75 143.12,-435.75 143.12,-415 232.62,-415 232.62,-435.75"/>
<text text-anchor="middle" x="187.88" y="-422.25" font-family="Helvetica,sans-Serif" font-size="10.00">icmpv6_echo_t</text>
</a>
</g>
</g>
<!-- Node0&#45;&gt;Node1 -->
<g id="edge7_Node000000_Node000001" class="edge">
<title>Node0&#45;&gt;Node1</title>
<g id="a_edge7_Node000000_Node000001"><a xlink:title=" ">
<path fill="none" stroke="#63b8ff" d="M44,-227.16C48.94,-268.13 65.41,-356.86 118,-405.38 124.96,-411.79 133.85,-416.16 142.92,-419.13"/>
<polygon fill="#63b8ff" stroke="#63b8ff" points="47.5,-226.94 42.95,-217.37 40.53,-227.69 47.5,-226.94"/>
</a>
</g>
</g>
<!-- Node2 -->
<g id="Node000002" class="node">
<title>Node2</title>
<g id="a_Node000002"><a xlink:href="structicmpv6__error__dst__unr__t.html" target="_top" xlink:title="Destination unreachable message format.">
<polygon fill="white" stroke="#666666" points="253.25,-396.75 122.5,-396.75 122.5,-376 253.25,-376 253.25,-396.75"/>
<text text-anchor="middle" x="187.88" y="-383.25" font-family="Helvetica,sans-Serif" font-size="10.00">icmpv6_error_dst_unr_t</text>
</a>
</g>
</g>
<!-- Node0&#45;&gt;Node2 -->
<g id="edge8_Node000000_Node000002" class="edge">
<title>Node0&#45;&gt;Node2</title>
<g id="a_edge8_Node000000_Node000002"><a xlink:title=" ">
<path fill="none" stroke="#63b8ff" d="M46.13,-227.15C53.89,-262.04 74.01,-330.27 118,-367.38 121.89,-370.65 126.3,-373.37 130.96,-375.62"/>
<polygon fill="#63b8ff" stroke="#63b8ff" points="49.56,-226.5 44.11,-217.41 42.71,-227.92 49.56,-226.5"/>
</a>
</g>
</g>
<!-- Node3 -->
<g id="Node000003" class="node">
<title>Node3</title>
<g id="a_Node000003"><a xlink:href="structicmpv6__error__param__prob__t.html" target="_top" xlink:title="Parameter problem message format.">
<polygon fill="white" stroke="#666666" points="246.5,-358.12 129.25,-358.12 129.25,-324.62 246.5,-324.62 246.5,-358.12"/>
<text text-anchor="start" x="137.25" y="-344.62" font-family="Helvetica,sans-Serif" font-size="10.00">icmpv6_error_param</text>
<text text-anchor="middle" x="187.88" y="-331.88" font-family="Helvetica,sans-Serif" font-size="10.00">_prob_t</text>
</a>
</g>
</g>
<!-- Node0&#45;&gt;Node3 -->
<g id="edge9_Node000000_Node000003" class="edge">
<title>Node0&#45;&gt;Node3</title>
<g id="a_edge9_Node000000_Node000003"><a xlink:title=" ">
<path fill="none" stroke="#63b8ff" d="M51.62,-226.39C63.82,-250.92 87.06,-291.18 118,-315.38 122.23,-318.68 126.92,-321.6 131.82,-324.18"/>
<polygon fill="#63b8ff" stroke="#63b8ff" points="54.79,-224.92 47.31,-217.42 48.48,-227.95 54.79,-224.92"/>
</a>
</g>
</g>
<!-- Node4 -->
<g id="Node000004" class="node">
<title>Node4</title>
<g id="a_Node000004"><a xlink:href="structicmpv6__error__pkt__too__big__t.html" target="_top" xlink:title="Packet too big message format.">
<polygon fill="white" stroke="#666666" points="249.12,-306.12 126.62,-306.12 126.62,-272.62 249.12,-272.62 249.12,-306.12"/>
<text text-anchor="start" x="134.62" y="-292.62" font-family="Helvetica,sans-Serif" font-size="10.00">icmpv6_error_pkt_too</text>
<text text-anchor="middle" x="187.88" y="-279.88" font-family="Helvetica,sans-Serif" font-size="10.00">_big_t</text>
</a>
</g>
</g>
<!-- Node0&#45;&gt;Node4 -->
<g id="edge10_Node000000_Node000004" class="edge">
<title>Node0&#45;&gt;Node4</title>
<g id="a_edge10_Node000000_Node000004"><a xlink:title=" ">
<path fill="none" stroke="#63b8ff" d="M61.91,-223.16C76.62,-235.63 97.57,-252.04 118,-263.38 123.7,-266.54 129.86,-269.47 136.08,-272.14"/>
<polygon fill="#63b8ff" stroke="#63b8ff" points="64.61,-220.87 54.76,-216.97 60.03,-226.16 64.61,-220.87"/>
</a>
</g>
</g>
<!-- Node5 -->
<g id="Node000005" class="node">
<title>Node5</title>
<g id="a_Node000005"><a xlink:href="structicmpv6__error__time__exc__t.html" target="_top" xlink:title="Time exceeded message format.">
<polygon fill="white" stroke="#666666" points="257.75,-254.75 118,-254.75 118,-234 257.75,-234 257.75,-254.75"/>
<text text-anchor="middle" x="187.88" y="-241.25" font-family="Helvetica,sans-Serif" font-size="10.00">icmpv6_error_time_exc_t</text>
</a>
</g>
</g>
<!-- Node0&#45;&gt;Node5 -->
<g id="edge11_Node000000_Node000005" class="edge">
<title>Node0&#45;&gt;Node5</title>
<g id="a_edge11_Node000000_Node000005"><a xlink:title=" ">
<path fill="none" stroke="#63b8ff" d="M92.99,-219.1C110.53,-223.82 129.91,-229.04 146.48,-233.5"/>
<polygon fill="#63b8ff" stroke="#63b8ff" points="94.38,-215.85 83.82,-216.63 92.56,-222.61 94.38,-215.85"/>
</a>
</g>
</g>
<!-- Node6 -->
<g id="Node000006" class="node">
<title>Node6</title>
<g id="a_Node000006"><a xlink:href="structndp__nbr__adv__t.html" target="_top" xlink:title="Neighbor advertisement message format.">
<polygon fill="white" stroke="#666666" points="231.5,-215.75 144.25,-215.75 144.25,-195 231.5,-195 231.5,-215.75"/>
<text text-anchor="middle" x="187.88" y="-202.25" font-family="Helvetica,sans-Serif" font-size="10.00">ndp_nbr_adv_t</text>
</a>
</g>
</g>
<!-- Node0&#45;&gt;Node6 -->
<g id="edge12_Node000000_Node000006" class="edge">
<title>Node0&#45;&gt;Node6</title>
<g id="a_edge12_Node000000_Node000006"><a xlink:title=" ">
<path fill="none" stroke="#63b8ff" d="M93.49,-205.38C110.01,-205.38 128.11,-205.38 143.95,-205.38"/>
<polygon fill="#63b8ff" stroke="#63b8ff" points="93.87,-201.88 83.87,-205.38 93.87,-208.88 93.87,-201.88"/>
</a>
</g>
</g>
<!-- Node7 -->
<g id="Node000007" class="node">
<title>Node7</title>
<g id="a_Node000007"><a xlink:href="structndp__nbr__sol__t.html" target="_top" xlink:title="Neighbor solicitation message format.">
<polygon fill="white" stroke="#666666" points="229.62,-176.75 146.12,-176.75 146.12,-156 229.62,-156 229.62,-176.75"/>
<text text-anchor="middle" x="187.88" y="-163.25" font-family="Helvetica,sans-Serif" font-size="10.00">ndp_nbr_sol_t</text>
</a>
</g>
</g>
<!-- Node0&#45;&gt;Node7 -->
<g id="edge13_Node000000_Node000007" class="edge">
<title>Node0&#45;&gt;Node7</title>
<g id="a_edge13_Node000000_Node000007"><a xlink:title=" ">
<path fill="none" stroke="#63b8ff" d="M92.99,-191.65C110.53,-186.93 129.91,-181.71 146.48,-177.25"/>
<polygon fill="#63b8ff" stroke="#63b8ff" points="92.56,-188.14 83.82,-194.12 94.38,-194.9 92.56,-188.14"/>
</a>
</g>
</g>
<!-- Node8 -->
<g id="Node000008" class="node">
<title>Node8</title>
<g id="a_Node000008"><a xlink:href="structndp__redirect__t.html" target="_top" xlink:title="Redirect message format.">
<polygon fill="white" stroke="#666666" points="230.75,-137.75 145,-137.75 145,-117 230.75,-117 230.75,-137.75"/>
<text text-anchor="middle" x="187.88" y="-124.25" font-family="Helvetica,sans-Serif" font-size="10.00">ndp_redirect_t</text>
</a>
</g>
</g>
<!-- Node0&#45;&gt;Node8 -->
<g id="edge14_Node000000_Node000008" class="edge">
<title>Node0&#45;&gt;Node8</title>
<g id="a_edge14_Node000000_Node000008"><a xlink:title=" ">
<path fill="none" stroke="#63b8ff" d="M61.14,-187.55C75.75,-174.78 96.89,-158.02 118,-147.38 126.34,-143.17 135.7,-139.71 144.77,-136.92"/>
<polygon fill="#63b8ff" stroke="#63b8ff" points="59.18,-184.6 54.07,-193.88 63.85,-189.81 59.18,-184.6"/>
</a>
</g>
</g>
<!-- Node9 -->
<g id="Node000009" class="node">
<title>Node9</title>
<g id="a_Node000009"><a xlink:href="structndp__rtr__adv__t.html" target="_top" xlink:title="Router advertisement message format.">
<polygon fill="white" stroke="#666666" points="229.25,-98.75 146.5,-98.75 146.5,-78 229.25,-78 229.25,-98.75"/>
<text text-anchor="middle" x="187.88" y="-85.25" font-family="Helvetica,sans-Serif" font-size="10.00">ndp_rtr_adv_t</text>
</a>
</g>
</g>
<!-- Node0&#45;&gt;Node9 -->
<g id="edge15_Node000000_Node000009" class="edge">
<title>Node0&#45;&gt;Node9</title>
<g id="a_edge15_Node000000_Node000009"><a xlink:title=" ">
<path fill="none" stroke="#63b8ff" d="M53.07,-184.51C65.85,-162.41 88.89,-128.05 118,-108.38 126.36,-102.73 136.32,-98.65 146.04,-95.72"/>
<polygon fill="#63b8ff" stroke="#63b8ff" points="50.03,-182.77 48.23,-193.21 56.15,-186.17 50.03,-182.77"/>
</a>
</g>
</g>
<!-- Node10 -->
<g id="Node000010" class="node">
<title>Node10</title>
<g id="a_Node000010"><a xlink:href="structndp__rtr__sol__t.html" target="_top" xlink:title="Router solicitation message format.">
<polygon fill="white" stroke="#666666" points="227.38,-59.75 148.38,-59.75 148.38,-39 227.38,-39 227.38,-59.75"/>
<text text-anchor="middle" x="187.88" y="-46.25" font-family="Helvetica,sans-Serif" font-size="10.00">ndp_rtr_sol_t</text>
</a>
</g>
</g>
<!-- Node0&#45;&gt;Node10 -->
<g id="edge16_Node000000_Node000010" class="edge">
<title>Node0&#45;&gt;Node10</title>
<g id="a_edge16_Node000000_Node000010"><a xlink:title=" ">
<path fill="none" stroke="#63b8ff" d="M48.3,-183.75C58.19,-153.64 80.23,-99.41 118,-69.38 126.58,-62.55 137.39,-58.06 147.9,-55.1"/>
<polygon fill="#63b8ff" stroke="#63b8ff" points="44.98,-182.66 45.35,-193.25 51.66,-184.74 44.98,-182.66"/>
</a>
</g>
</g>
<!-- Node11 -->
<g id="Node000011" class="node">
<title>Node11</title>
<g id="a_Node000011"><a xlink:href="structsixlowpan__nd__da__t.html" target="_top" xlink:title="Duplicate address request and confirmation message format.">
<polygon fill="white" stroke="#666666" points="242.38,-20.75 133.38,-20.75 133.38,0 242.38,0 242.38,-20.75"/>
<text text-anchor="middle" x="187.88" y="-7.25" font-family="Helvetica,sans-Serif" font-size="10.00">sixlowpan_nd_da_t</text>
</a>
</g>
</g>
<!-- Node0&#45;&gt;Node11 -->
<g id="edge17_Node000000_Node000011" class="edge">
<title>Node0&#45;&gt;Node11</title>
<g id="a_edge17_Node000000_Node000011"><a xlink:title=" ">
<path fill="none" stroke="#63b8ff" d="M45.27,-184C52.05,-147.15 71.09,-71.67 118,-30.38 122.39,-26.51 127.49,-23.39 132.9,-20.87"/>
<polygon fill="#63b8ff" stroke="#63b8ff" points="41.9,-182.97 43.68,-193.41 48.8,-184.14 41.9,-182.97"/>
</a>
</g>
</g>
</g>
</svg>
