<?xml version="1.0" encoding="UTF-8" standalone="no"?>
<!DOCTYPE svg PUBLIC "-//W3C//DTD SVG 1.1//EN"
 "http://www.w3.org/Graphics/SVG/1.1/DTD/svg11.dtd">
<!-- Generated by graphviz version 12.1.1 (0)
 -->
<!-- Title: Graphical Class Hierarchy Pages: 1 -->
<svg width="215pt" height="107pt"
 viewBox="0.00 0.00 214.75 106.75" xmlns="http://www.w3.org/2000/svg" xmlns:xlink="http://www.w3.org/1999/xlink">
<g id="graph0" class="graph" transform="scale(1 1) rotate(0) translate(4 102.75)">
<title>Graphical Class Hierarchy</title>
<!-- Node0 -->
<g id="Node000000" class="node">
<title>Node0</title>
<g id="a_Node000000"><a xlink:href="structzep__hdr__t.html" target="_top" xlink:title="ZEP header definition.">
<polygon fill="white" stroke="#666666" points="63.25,-59.75 0,-59.75 0,-39 63.25,-39 63.25,-59.75"/>
<text text-anchor="middle" x="31.62" y="-46.25" font-family="Helvetica,sans-Serif" font-size="10.00">zep_hdr_t</text>
</a>
</g>
</g>
<!-- Node1 -->
<g id="Node000001" class="node">
<title>Node1</title>
<g id="a_Node000001"><a xlink:href="structzep__v1__hdr__t.html" target="_top" xlink:title="ZEPv1 header definition.">
<polygon fill="white" stroke="#666666" points="193.25,-98.75 112.75,-98.75 112.75,-78 193.25,-78 193.25,-98.75"/>
<text text-anchor="middle" x="153" y="-85.25" font-family="Helvetica,sans-Serif" font-size="10.00">zep_v1_hdr_t</text>
</a>
</g>
</g>
<!-- Node0&#45;&gt;Node1 -->
<g id="edge48_Node000000_Node000001" class="edge">
<title>Node0&#45;&gt;Node1</title>
<g id="a_edge48_Node000000_Node000001"><a xlink:title=" ">
<path fill="none" stroke="#63b8ff" d="M74.47,-63.05C89.07,-67.82 105.24,-73.1 119.01,-77.6"/>
<polygon fill="#63b8ff" stroke="#63b8ff" points="75.71,-59.77 65.12,-59.99 73.54,-66.42 75.71,-59.77"/>
</a>
</g>
</g>
<!-- Node2 -->
<g id="Node000002" class="node">
<title>Node2</title>
<g id="a_Node000002"><a xlink:href="structzep__v2__ack__hdr__t.html" target="_top" xlink:title="ZEPv2 header definition (type == Ack)">
<polygon fill="white" stroke="#666666" points="204.5,-59.75 101.5,-59.75 101.5,-39 204.5,-39 204.5,-59.75"/>
<text text-anchor="middle" x="153" y="-46.25" font-family="Helvetica,sans-Serif" font-size="10.00">zep_v2_ack_hdr_t</text>
</a>
</g>
</g>
<!-- Node0&#45;&gt;Node2 -->
<g id="edge49_Node000000_Node000002" class="edge">
<title>Node0&#45;&gt;Node2</title>
<g id="a_edge49_Node000000_Node000002"><a xlink:title=" ">
<path fill="none" stroke="#63b8ff" d="M75.19,-49.38C83.62,-49.38 92.55,-49.38 101.22,-49.38"/>
<polygon fill="#63b8ff" stroke="#63b8ff" points="75.19,-45.88 65.19,-49.38 75.19,-52.88 75.19,-45.88"/>
</a>
</g>
</g>
<!-- Node3 -->
<g id="Node000003" class="node">
<title>Node3</title>
<g id="a_Node000003"><a xlink:href="structzep__v2__data__hdr__t.html" target="_top" xlink:title="ZEPv2 header definition (type == Data)">
<polygon fill="white" stroke="#666666" points="206.75,-20.75 99.25,-20.75 99.25,0 206.75,0 206.75,-20.75"/>
<text text-anchor="middle" x="153" y="-7.25" font-family="Helvetica,sans-Serif" font-size="10.00">zep_v2_data_hdr_t</text>
</a>
</g>
</g>
<!-- Node0&#45;&gt;Node3 -->
<g id="edge50_Node000000_Node000003" class="edge">
<title>Node0&#45;&gt;Node3</title>
<g id="a_edge50_Node000000_Node000003"><a xlink:title=" ">
<path fill="none" stroke="#63b8ff" d="M74.47,-35.7C89.07,-30.93 105.24,-25.65 119.01,-21.15"/>
<polygon fill="#63b8ff" stroke="#63b8ff" points="73.54,-32.33 65.12,-38.76 75.71,-38.98 73.54,-32.33"/>
</a>
</g>
</g>
</g>
</svg>
