<?xml version="1.0" encoding="UTF-8" standalone="no"?>
<!DOCTYPE svg PUBLIC "-//W3C//DTD SVG 1.1//EN"
 "http://www.w3.org/Graphics/SVG/1.1/DTD/svg11.dtd">
<!-- Generated by graphviz version 12.1.1 (0)
 -->
<!-- Title: drivers/include/io1_xplained.h Pages: 1 -->
<svg width="776pt" height="269pt"
 viewBox="0.00 0.00 775.81 268.50" xmlns="http://www.w3.org/2000/svg" xmlns:xlink="http://www.w3.org/1999/xlink">
<g id="graph0" class="graph" transform="scale(1 1) rotate(0) translate(4 264.5)">
<title>drivers/include/io1_xplained.h</title>
<!-- Node1 -->
<g id="Node000001" class="node">
<title>Node1</title>
<g id="a_Node000001"><a xlink:title="Device driver interface for the Atmel IO1 Xplained extension.">
<polygon fill="#999999" stroke="#666666" points="432.94,-260.5 326.94,-260.5 326.94,-227 432.94,-227 432.94,-260.5"/>
<text text-anchor="start" x="334.94" y="-247" font-family="Helvetica,sans-Serif" font-size="10.00">drivers/include/io1</text>
<text text-anchor="middle" x="379.94" y="-234.25" font-family="Helvetica,sans-Serif" font-size="10.00">_xplained.h</text>
</a>
</g>
</g>
<!-- Node2 -->
<g id="Node000002" class="node">
<title>Node2</title>
<g id="a_Node000002"><a xlink:href="drivers_2include_2saul_8h.html" target="_top" xlink:title="Definition of the generic [S]ensor [A]ctuator [U]ber [L]ayer.">
<polygon fill="white" stroke="#666666" points="157.56,-134.25 112.31,-134.25 112.31,-113.5 157.56,-113.5 157.56,-134.25"/>
<text text-anchor="middle" x="134.94" y="-120.75" font-family="Helvetica,sans-Serif" font-size="10.00">saul.h</text>
</a>
</g>
</g>
<!-- Node1&#45;&gt;Node2 -->
<g id="edge1_Node000001_Node000002" class="edge">
<title>Node1&#45;&gt;Node2</title>
<g id="a_edge1_Node000001_Node000002"><a xlink:title=" ">
<path fill="none" stroke="#63b8ff" d="M346.38,-226.61C298.58,-203.61 211.57,-161.75 165.48,-139.57"/>
<polygon fill="#63b8ff" stroke="#63b8ff" points="167.12,-136.47 156.59,-135.29 164.08,-142.78 167.12,-136.47"/>
</a>
</g>
</g>
<!-- Node7 -->
<g id="Node000007" class="node">
<title>Node7</title>
<g id="a_Node000007"><a xlink:href="at30tse75x_8h.html" target="_top" xlink:title="Driver for the AT30TSE75x temperature sensor with serial EEPROM.">
<polygon fill="white" stroke="#666666" points="419.81,-134.25 340.06,-134.25 340.06,-113.5 419.81,-113.5 419.81,-134.25"/>
<text text-anchor="middle" x="379.94" y="-120.75" font-family="Helvetica,sans-Serif" font-size="10.00">at30tse75x.h</text>
</a>
</g>
</g>
<!-- Node1&#45;&gt;Node7 -->
<g id="edge6_Node000001_Node000007" class="edge">
<title>Node1&#45;&gt;Node7</title>
<g id="a_edge6_Node000001_Node000007"><a xlink:title=" ">
<path fill="none" stroke="#63b8ff" d="M379.94,-226.85C379.94,-205.96 379.94,-169.21 379.94,-146"/>
<polygon fill="#63b8ff" stroke="#63b8ff" points="383.44,-146.2 379.94,-136.2 376.44,-146.2 383.44,-146.2"/>
</a>
</g>
</g>
<!-- Node13 -->
<g id="Node000013" class="node">
<title>Node13</title>
<g id="a_Node000013"><a xlink:href="sdcard__spi_8h.html" target="_top" xlink:title="Public interface for the sdcard_spi driver.">
<polygon fill="white" stroke="#666666" points="621.31,-191 544.56,-191 544.56,-170.25 621.31,-170.25 621.31,-191"/>
<text text-anchor="middle" x="582.94" y="-177.5" font-family="Helvetica,sans-Serif" font-size="10.00">sdcard_spi.h</text>
</a>
</g>
</g>
<!-- Node1&#45;&gt;Node13 -->
<g id="edge14_Node000001_Node000013" class="edge">
<title>Node1&#45;&gt;Node13</title>
<g id="a_edge14_Node000001_Node000013"><a xlink:title=" ">
<path fill="none" stroke="#63b8ff" d="M433.27,-226.69C466.33,-216.74 508.27,-204.11 539.33,-194.75"/>
<polygon fill="#63b8ff" stroke="#63b8ff" points="540.24,-198.14 548.8,-191.9 538.22,-191.44 540.24,-198.14"/>
</a>
</g>
</g>
<!-- Node3 -->
<g id="Node000003" class="node">
<title>Node3</title>
<g id="a_Node000003"><a xlink:href="errno_8h.html" target="_top" xlink:title=" ">
<polygon fill="white" stroke="#666666" points="233.19,-77.5 182.69,-77.5 182.69,-56.75 233.19,-56.75 233.19,-77.5"/>
<text text-anchor="middle" x="207.94" y="-64" font-family="Helvetica,sans-Serif" font-size="10.00">errno.h</text>
</a>
</g>
</g>
<!-- Node2&#45;&gt;Node3 -->
<g id="edge2_Node000002_Node000003" class="edge">
<title>Node2&#45;&gt;Node3</title>
<g id="a_edge2_Node000002_Node000003"><a xlink:title=" ">
<path fill="none" stroke="#63b8ff" d="M147.99,-113.09C158.58,-105.15 173.73,-93.78 186.15,-84.46"/>
<polygon fill="#63b8ff" stroke="#63b8ff" points="187.89,-87.54 193.79,-78.74 183.69,-81.94 187.89,-87.54"/>
</a>
</g>
</g>
<!-- Node4 -->
<g id="Node000004" class="node">
<title>Node4</title>
<g id="a_Node000004"><a xlink:title=" ">
<polygon fill="#e0e0e0" stroke="#999999" points="325.31,-20.75 272.56,-20.75 272.56,0 325.31,0 325.31,-20.75"/>
<text text-anchor="middle" x="298.94" y="-7.25" font-family="Helvetica,sans-Serif" font-size="10.00">stdint.h</text>
</a>
</g>
</g>
<!-- Node2&#45;&gt;Node4 -->
<g id="edge3_Node000002_Node000004" class="edge">
<title>Node2&#45;&gt;Node4</title>
<g id="a_edge3_Node000002_Node000004"><a xlink:title=" ">
<path fill="none" stroke="#63b8ff" d="M111.88,-119.82C67.02,-112.96 -24.96,-93.98 6.94,-56.75 39.26,-19.01 189.87,-12.41 261.23,-11.42"/>
<polygon fill="#63b8ff" stroke="#63b8ff" points="260.91,-14.93 270.87,-11.32 260.83,-7.93 260.91,-14.93"/>
</a>
</g>
</g>
<!-- Node5 -->
<g id="Node000005" class="node">
<title>Node5</title>
<g id="a_Node000005"><a xlink:title=" ">
<polygon fill="#e0e0e0" stroke="#999999" points="87.69,-77.5 16.19,-77.5 16.19,-56.75 87.69,-56.75 87.69,-77.5"/>
<text text-anchor="middle" x="51.94" y="-64" font-family="Helvetica,sans-Serif" font-size="10.00">sys/types.h</text>
</a>
</g>
</g>
<!-- Node2&#45;&gt;Node5 -->
<g id="edge4_Node000002_Node000005" class="edge">
<title>Node2&#45;&gt;Node5</title>
<g id="a_edge4_Node000002_Node000005"><a xlink:title=" ">
<path fill="none" stroke="#63b8ff" d="M120.1,-113.09C107.82,-104.99 90.15,-93.33 75.88,-83.92"/>
<polygon fill="#63b8ff" stroke="#63b8ff" points="78.19,-81.25 67.91,-78.66 74.33,-87.09 78.19,-81.25"/>
</a>
</g>
</g>
<!-- Node6 -->
<g id="Node000006" class="node">
<title>Node6</title>
<g id="a_Node000006"><a xlink:title=" ">
<polygon fill="#e0e0e0" stroke="#999999" points="164.31,-77.5 105.56,-77.5 105.56,-56.75 164.31,-56.75 164.31,-77.5"/>
<text text-anchor="middle" x="134.94" y="-64" font-family="Helvetica,sans-Serif" font-size="10.00">phydat.h</text>
</a>
</g>
</g>
<!-- Node2&#45;&gt;Node6 -->
<g id="edge5_Node000002_Node000006" class="edge">
<title>Node2&#45;&gt;Node6</title>
<g id="a_edge5_Node000002_Node000006"><a xlink:title=" ">
<path fill="none" stroke="#63b8ff" d="M134.94,-113.09C134.94,-106.47 134.94,-97.47 134.94,-89.27"/>
<polygon fill="#63b8ff" stroke="#63b8ff" points="138.44,-89.34 134.94,-79.34 131.44,-89.34 138.44,-89.34"/>
</a>
</g>
</g>
<!-- Node7&#45;&gt;Node4 -->
<g id="edge7_Node000007_Node000004" class="edge">
<title>Node7&#45;&gt;Node4</title>
<g id="a_edge7_Node000007_Node000004"><a xlink:title=" ">
<path fill="none" stroke="#63b8ff" d="M339.85,-114.42C319.69,-107.92 297.03,-96.67 284.94,-77.5 276.15,-63.56 281.22,-45.01 287.58,-31.11"/>
<polygon fill="#63b8ff" stroke="#63b8ff" points="290.56,-32.97 292.03,-22.47 284.34,-29.76 290.56,-32.97"/>
</a>
</g>
</g>
<!-- Node8 -->
<g id="Node000008" class="node">
<title>Node8</title>
<g id="a_Node000008"><a xlink:href="i2c_8h.html" target="_top" xlink:title="Low&#45;level I2C peripheral driver interface definition.">
<polygon fill="white" stroke="#666666" points="514.44,-77.5 441.44,-77.5 441.44,-56.75 514.44,-56.75 514.44,-77.5"/>
<text text-anchor="middle" x="477.94" y="-64" font-family="Helvetica,sans-Serif" font-size="10.00">periph/i2c.h</text>
</a>
</g>
</g>
<!-- Node7&#45;&gt;Node8 -->
<g id="edge8_Node000007_Node000008" class="edge">
<title>Node7&#45;&gt;Node8</title>
<g id="a_edge8_Node000007_Node000008"><a xlink:title=" ">
<path fill="none" stroke="#63b8ff" d="M397.46,-113.09C412.23,-104.83 433.62,-92.88 450.64,-83.38"/>
<polygon fill="#63b8ff" stroke="#63b8ff" points="452.22,-86.5 459.25,-78.57 448.81,-80.39 452.22,-86.5"/>
</a>
</g>
</g>
<!-- Node8&#45;&gt;Node4 -->
<g id="edge9_Node000008_Node000004" class="edge">
<title>Node8&#45;&gt;Node4</title>
<g id="a_edge9_Node000008_Node000004"><a xlink:title=" ">
<path fill="none" stroke="#63b8ff" d="M445.94,-56.34C415.26,-46.95 368.96,-32.79 336.54,-22.88"/>
<polygon fill="#63b8ff" stroke="#63b8ff" points="337.73,-19.58 327.15,-20 335.69,-26.28 337.73,-19.58"/>
</a>
</g>
</g>
<!-- Node9 -->
<g id="Node000009" class="node">
<title>Node9</title>
<g id="a_Node000009"><a xlink:title=" ">
<polygon fill="#e0e0e0" stroke="#999999" points="436.44,-20.75 381.44,-20.75 381.44,0 436.44,0 436.44,-20.75"/>
<text text-anchor="middle" x="408.94" y="-7.25" font-family="Helvetica,sans-Serif" font-size="10.00">stddef.h</text>
</a>
</g>
</g>
<!-- Node8&#45;&gt;Node9 -->
<g id="edge10_Node000008_Node000009" class="edge">
<title>Node8&#45;&gt;Node9</title>
<g id="a_edge10_Node000008_Node000009"><a xlink:title=" ">
<path fill="none" stroke="#63b8ff" d="M465.6,-56.34C455.69,-48.47 441.55,-37.25 429.87,-27.99"/>
<polygon fill="#63b8ff" stroke="#63b8ff" points="432.36,-25.49 422.35,-22.02 428.01,-30.98 432.36,-25.49"/>
</a>
</g>
</g>
<!-- Node10 -->
<g id="Node000010" class="node">
<title>Node10</title>
<g id="a_Node000010"><a xlink:title=" ">
<polygon fill="#e0e0e0" stroke="#999999" points="507.31,-20.75 454.56,-20.75 454.56,0 507.31,0 507.31,-20.75"/>
<text text-anchor="middle" x="480.94" y="-7.25" font-family="Helvetica,sans-Serif" font-size="10.00">limits.h</text>
</a>
</g>
</g>
<!-- Node8&#45;&gt;Node10 -->
<g id="edge11_Node000008_Node000010" class="edge">
<title>Node8&#45;&gt;Node10</title>
<g id="a_edge11_Node000008_Node000010"><a xlink:title=" ">
<path fill="none" stroke="#63b8ff" d="M478.47,-56.34C478.84,-49.72 479.33,-40.72 479.78,-32.52"/>
<polygon fill="#63b8ff" stroke="#63b8ff" points="483.27,-32.77 480.32,-22.59 476.28,-32.38 483.27,-32.77"/>
</a>
</g>
</g>
<!-- Node11 -->
<g id="Node000011" class="node">
<title>Node11</title>
<g id="a_Node000011"><a xlink:title=" ">
<polygon fill="#e0e0e0" stroke="#999999" points="606.56,-20.75 525.31,-20.75 525.31,0 606.56,0 606.56,-20.75"/>
<text text-anchor="middle" x="565.94" y="-7.25" font-family="Helvetica,sans-Serif" font-size="10.00">periph_conf.h</text>
</a>
</g>
</g>
<!-- Node8&#45;&gt;Node11 -->
<g id="edge12_Node000008_Node000011" class="edge">
<title>Node8&#45;&gt;Node11</title>
<g id="a_edge12_Node000008_Node000011"><a xlink:title=" ">
<path fill="none" stroke="#63b8ff" d="M493.67,-56.34C506.81,-48.16 525.78,-36.36 540.99,-26.9"/>
<polygon fill="#63b8ff" stroke="#63b8ff" points="542.41,-30.13 549.06,-21.88 538.72,-24.19 542.41,-30.13"/>
</a>
</g>
</g>
<!-- Node12 -->
<g id="Node000012" class="node">
<title>Node12</title>
<g id="a_Node000012"><a xlink:title=" ">
<polygon fill="#e0e0e0" stroke="#999999" points="703.06,-20.75 624.81,-20.75 624.81,0 703.06,0 703.06,-20.75"/>
<text text-anchor="middle" x="663.94" y="-7.25" font-family="Helvetica,sans-Serif" font-size="10.00">periph_cpu.h</text>
</a>
</g>
</g>
<!-- Node8&#45;&gt;Node12 -->
<g id="edge13_Node000008_Node000012" class="edge">
<title>Node8&#45;&gt;Node12</title>
<g id="a_edge13_Node000008_Node000012"><a xlink:title=" ">
<path fill="none" stroke="#63b8ff" d="M511.19,-56.34C541.51,-47.41 586.53,-34.16 619.85,-24.35"/>
<polygon fill="#63b8ff" stroke="#63b8ff" points="620.6,-27.78 629.21,-21.6 618.63,-21.06 620.6,-27.78"/>
</a>
</g>
</g>
<!-- Node14 -->
<g id="Node000014" class="node">
<title>Node14</title>
<g id="a_Node000014"><a xlink:href="spi_8h.html" target="_top" xlink:title="Low&#45;level SPI peripheral driver interface definition.">
<polygon fill="white" stroke="#666666" points="579.44,-134.25 506.44,-134.25 506.44,-113.5 579.44,-113.5 579.44,-134.25"/>
<text text-anchor="middle" x="542.94" y="-120.75" font-family="Helvetica,sans-Serif" font-size="10.00">periph/spi.h</text>
</a>
</g>
</g>
<!-- Node13&#45;&gt;Node14 -->
<g id="edge15_Node000013_Node000014" class="edge">
<title>Node13&#45;&gt;Node14</title>
<g id="a_edge15_Node000013_Node000014"><a xlink:title=" ">
<path fill="none" stroke="#63b8ff" d="M575.79,-169.84C570.5,-162.6 563.13,-152.51 556.71,-143.72"/>
<polygon fill="#63b8ff" stroke="#63b8ff" points="559.64,-141.81 550.92,-135.8 553.99,-145.94 559.64,-141.81"/>
</a>
</g>
</g>
<!-- Node16 -->
<g id="Node000016" class="node">
<title>Node16</title>
<g id="a_Node000016"><a xlink:title=" ">
<polygon fill="#e0e0e0" stroke="#999999" points="670.44,-77.5 609.44,-77.5 609.44,-56.75 670.44,-56.75 670.44,-77.5"/>
<text text-anchor="middle" x="639.94" y="-64" font-family="Helvetica,sans-Serif" font-size="10.00">stdbool.h</text>
</a>
</g>
</g>
<!-- Node13&#45;&gt;Node16 -->
<g id="edge29_Node000013_Node000016" class="edge">
<title>Node13&#45;&gt;Node16</title>
<g id="a_edge29_Node000013_Node000016"><a xlink:title=" ">
<path fill="none" stroke="#63b8ff" d="M587.8,-170.12C597.05,-152.02 617.36,-112.28 629.73,-88.1"/>
<polygon fill="#63b8ff" stroke="#63b8ff" points="632.8,-89.77 634.24,-79.27 626.57,-86.58 632.8,-89.77"/>
</a>
</g>
</g>
<!-- Node17 -->
<g id="Node000017" class="node">
<title>Node17</title>
<g id="a_Node000017"><a xlink:href="drivers_2include_2periph_2gpio_8h.html" target="_top" xlink:title="Low&#45;level GPIO peripheral driver interface definitions.">
<polygon fill="white" stroke="#666666" points="767.81,-77.5 688.06,-77.5 688.06,-56.75 767.81,-56.75 767.81,-77.5"/>
<text text-anchor="middle" x="727.94" y="-64" font-family="Helvetica,sans-Serif" font-size="10.00">periph/gpio.h</text>
</a>
</g>
</g>
<!-- Node13&#45;&gt;Node17 -->
<g id="edge28_Node000013_Node000017" class="edge">
<title>Node13&#45;&gt;Node17</title>
<g id="a_edge28_Node000013_Node000017"><a xlink:title=" ">
<path fill="none" stroke="#63b8ff" d="M595.55,-169.93C620.3,-150.9 675.46,-108.48 706.2,-84.84"/>
<polygon fill="#63b8ff" stroke="#63b8ff" points="708.26,-87.67 714.05,-78.8 703.99,-82.13 708.26,-87.67"/>
</a>
</g>
</g>
<!-- Node14&#45;&gt;Node3 -->
<g id="edge18_Node000014_Node000003" class="edge">
<title>Node14&#45;&gt;Node3</title>
<g id="a_edge18_Node000014_Node000003"><a xlink:title=" ">
<path fill="none" stroke="#63b8ff" d="M506.13,-116.86C441.64,-106.32 309,-84.64 244.61,-74.12"/>
<polygon fill="#63b8ff" stroke="#63b8ff" points="245.34,-70.69 234.91,-72.53 244.21,-77.6 245.34,-70.69"/>
</a>
</g>
</g>
<!-- Node14&#45;&gt;Node4 -->
<g id="edge21_Node000014_Node000004" class="edge">
<title>Node14&#45;&gt;Node4</title>
<g id="a_edge21_Node000014_Node000004"><a xlink:title=" ">
<path fill="none" stroke="#63b8ff" d="M505.95,-120.02C449.33,-114.92 344.89,-102.36 317.94,-77.5 305.45,-65.99 300.98,-46.86 299.46,-32.14"/>
<polygon fill="#63b8ff" stroke="#63b8ff" points="302.98,-32.34 298.87,-22.57 295.99,-32.77 302.98,-32.34"/>
</a>
</g>
</g>
<!-- Node14&#45;&gt;Node9 -->
<g id="edge20_Node000014_Node000009" class="edge">
<title>Node14&#45;&gt;Node9</title>
<g id="a_edge20_Node000014_Node000009"><a xlink:title=" ">
<path fill="none" stroke="#63b8ff" d="M506.16,-115.76C482.42,-109.41 452.44,-97.86 432.94,-77.5 421.18,-65.22 415.11,-46.74 412.02,-32.44"/>
<polygon fill="#63b8ff" stroke="#63b8ff" points="415.48,-31.92 410.27,-22.69 408.59,-33.15 415.48,-31.92"/>
</a>
</g>
</g>
<!-- Node14&#45;&gt;Node11 -->
<g id="edge23_Node000014_Node000011" class="edge">
<title>Node14&#45;&gt;Node11</title>
<g id="a_edge23_Node000014_Node000011"><a xlink:title=" ">
<path fill="none" stroke="#63b8ff" d="M544.9,-113.37C548.58,-95.52 556.61,-56.61 561.61,-32.34"/>
<polygon fill="#63b8ff" stroke="#63b8ff" points="565.02,-33.16 563.61,-22.66 558.16,-31.74 565.02,-33.16"/>
</a>
</g>
</g>
<!-- Node14&#45;&gt;Node12 -->
<g id="edge22_Node000014_Node000012" class="edge">
<title>Node14&#45;&gt;Node12</title>
<g id="a_edge22_Node000014_Node000012"><a xlink:title=" ">
<path fill="none" stroke="#63b8ff" d="M550.21,-113.29C560.64,-99.86 580.82,-75.03 600.94,-56.75 612.71,-46.06 627.01,-35.58 639.01,-27.4"/>
<polygon fill="#63b8ff" stroke="#63b8ff" points="640.8,-30.41 647.18,-21.95 636.92,-24.58 640.8,-30.41"/>
</a>
</g>
</g>
<!-- Node15 -->
<g id="Node000015" class="node">
<title>Node15</title>
<g id="a_Node000015"><a xlink:href="endian_8h.html" target="_top" xlink:title="libc header for endian conversion">
<polygon fill="white" stroke="#666666" points="384.94,-77.5 326.94,-77.5 326.94,-56.75 384.94,-56.75 384.94,-77.5"/>
<text text-anchor="middle" x="355.94" y="-64" font-family="Helvetica,sans-Serif" font-size="10.00">endian.h</text>
</a>
</g>
</g>
<!-- Node14&#45;&gt;Node15 -->
<g id="edge16_Node000014_Node000015" class="edge">
<title>Node14&#45;&gt;Node15</title>
<g id="a_edge16_Node000014_Node000015"><a xlink:title=" ">
<path fill="none" stroke="#63b8ff" d="M509.51,-113.09C477.79,-103.8 430.09,-89.84 396.28,-79.94"/>
<polygon fill="#63b8ff" stroke="#63b8ff" points="397.42,-76.62 386.84,-77.17 395.45,-83.34 397.42,-76.62"/>
</a>
</g>
</g>
<!-- Node14&#45;&gt;Node16 -->
<g id="edge19_Node000014_Node000016" class="edge">
<title>Node14&#45;&gt;Node16</title>
<g id="a_edge19_Node000014_Node000016"><a xlink:title=" ">
<path fill="none" stroke="#63b8ff" d="M560.28,-113.09C574.9,-104.83 596.07,-92.88 612.92,-83.38"/>
<polygon fill="#63b8ff" stroke="#63b8ff" points="614.44,-86.54 621.43,-78.57 611,-80.44 614.44,-86.54"/>
</a>
</g>
</g>
<!-- Node14&#45;&gt;Node17 -->
<g id="edge24_Node000014_Node000017" class="edge">
<title>Node14&#45;&gt;Node17</title>
<g id="a_edge24_Node000014_Node000017"><a xlink:title=" ">
<path fill="none" stroke="#63b8ff" d="M576.01,-113.09C606.17,-104.16 650.95,-90.91 684.08,-81.1"/>
<polygon fill="#63b8ff" stroke="#63b8ff" points="684.79,-84.54 693.39,-78.35 682.8,-77.83 684.79,-84.54"/>
</a>
</g>
</g>
<!-- Node15&#45;&gt;Node4 -->
<g id="edge17_Node000015_Node000004" class="edge">
<title>Node15&#45;&gt;Node4</title>
<g id="a_edge17_Node000015_Node000004"><a xlink:title=" ">
<path fill="none" stroke="#63b8ff" d="M345.75,-56.34C337.8,-48.71 326.57,-37.92 317.1,-28.82"/>
<polygon fill="#63b8ff" stroke="#63b8ff" points="319.77,-26.53 310.13,-22.13 314.92,-31.58 319.77,-26.53"/>
</a>
</g>
</g>
<!-- Node17&#45;&gt;Node10 -->
<g id="edge25_Node000017_Node000010" class="edge">
<title>Node17&#45;&gt;Node10</title>
<g id="a_edge25_Node000017_Node000010"><a xlink:title=" ">
<path fill="none" stroke="#63b8ff" d="M687.95,-58.2C647.56,-50.05 583.12,-36.68 518.81,-21.36"/>
<polygon fill="#63b8ff" stroke="#63b8ff" points="519.67,-17.97 509.13,-19.03 518.03,-24.77 519.67,-17.97"/>
</a>
</g>
</g>
<!-- Node17&#45;&gt;Node11 -->
<g id="edge27_Node000017_Node000011" class="edge">
<title>Node17&#45;&gt;Node11</title>
<g id="a_edge27_Node000017_Node000011"><a xlink:title=" ">
<path fill="none" stroke="#63b8ff" d="M698.97,-56.34C672.91,-47.53 634.37,-34.5 605.48,-24.74"/>
<polygon fill="#63b8ff" stroke="#63b8ff" points="606.95,-21.54 596.36,-21.66 604.71,-28.17 606.95,-21.54"/>
</a>
</g>
</g>
<!-- Node17&#45;&gt;Node12 -->
<g id="edge26_Node000017_Node000012" class="edge">
<title>Node17&#45;&gt;Node12</title>
<g id="a_edge26_Node000017_Node000012"><a xlink:title=" ">
<path fill="none" stroke="#63b8ff" d="M716.5,-56.34C707.49,-48.63 694.7,-37.7 684,-28.54"/>
<polygon fill="#63b8ff" stroke="#63b8ff" points="686.3,-25.9 676.43,-22.06 681.75,-31.22 686.3,-25.9"/>
</a>
</g>
</g>
</g>
</svg>
