<?xml version="1.0" encoding="UTF-8" standalone="no"?>
<!DOCTYPE svg PUBLIC "-//W3C//DTD SVG 1.1//EN"
 "http://www.w3.org/Graphics/SVG/1.1/DTD/svg11.dtd">
<!-- Generated by graphviz version 12.1.1 (0)
 -->
<!-- Title: boards/common/iotlab/include/board_common.h Pages: 1 -->
<svg width="1089pt" height="325pt"
 viewBox="0.00 0.00 1089.01 325.25" xmlns="http://www.w3.org/2000/svg" xmlns:xlink="http://www.w3.org/1999/xlink">
<g id="graph0" class="graph" transform="scale(1 1) rotate(0) translate(4 321.25)">
<title>boards/common/iotlab/include/board_common.h</title>
<!-- Node1 -->
<g id="Node000001" class="node">
<title>Node1</title>
<g id="a_Node000001"><a xlink:title="Board specific definitions for the iotlab&#45;m3 board.">
<polygon fill="#999999" stroke="#666666" points="974.88,-317.25 832.88,-317.25 832.88,-283.75 974.88,-283.75 974.88,-317.25"/>
<text text-anchor="start" x="840.88" y="-303.75" font-family="Helvetica,sans-Serif" font-size="10.00">boards/common/iotlab</text>
<text text-anchor="middle" x="903.88" y="-291" font-family="Helvetica,sans-Serif" font-size="10.00">/include/board_common.h</text>
</a>
</g>
</g>
<!-- Node2 -->
<g id="Node000002" class="node">
<title>Node2</title>
<g id="a_Node000002"><a xlink:title=" ">
<polygon fill="#e0e0e0" stroke="#999999" points="277.26,-20.75 224.51,-20.75 224.51,0 277.26,0 277.26,-20.75"/>
<text text-anchor="middle" x="250.88" y="-7.25" font-family="Helvetica,sans-Serif" font-size="10.00">stdint.h</text>
</a>
</g>
</g>
<!-- Node1&#45;&gt;Node2 -->
<g id="edge1_Node000001_Node000002" class="edge">
<title>Node1&#45;&gt;Node2</title>
<g id="a_edge1_Node000001_Node000002"><a xlink:title=" ">
<path fill="none" stroke="#63b8ff" d="M832.65,-297.67C619.42,-291.24 0.88,-265.37 0.88,-181.62 0.88,-181.62 0.88,-181.62 0.88,-122.88 0.88,-92.3 -2.65,-77.42 19.88,-56.75 47.56,-31.35 154.61,-19.03 212.76,-14.1"/>
<polygon fill="#63b8ff" stroke="#63b8ff" points="212.85,-17.61 222.53,-13.31 212.28,-10.63 212.85,-17.61"/>
</a>
</g>
</g>
<!-- Node3 -->
<g id="Node000003" class="node">
<title>Node3</title>
<g id="a_Node000003"><a xlink:title=" ">
<polygon fill="#e0e0e0" stroke="#999999" points="1081.01,-247.75 1038.76,-247.75 1038.76,-227 1081.01,-227 1081.01,-247.75"/>
<text text-anchor="middle" x="1059.88" y="-234.25" font-family="Helvetica,sans-Serif" font-size="10.00">cpu.h</text>
</a>
</g>
</g>
<!-- Node1&#45;&gt;Node3 -->
<g id="edge2_Node000001_Node000003" class="edge">
<title>Node1&#45;&gt;Node3</title>
<g id="a_edge2_Node000001_Node000003"><a xlink:title=" ">
<path fill="none" stroke="#63b8ff" d="M945.28,-283.28C971.15,-273.14 1003.97,-260.28 1027.85,-250.93"/>
<polygon fill="#63b8ff" stroke="#63b8ff" points="1029.02,-254.23 1037.05,-247.32 1026.46,-247.71 1029.02,-254.23"/>
</a>
</g>
</g>
<!-- Node4 -->
<g id="Node000004" class="node">
<title>Node4</title>
<g id="a_Node000004"><a xlink:title=" ">
<polygon fill="#e0e0e0" stroke="#999999" points="1006.51,-77.5 925.26,-77.5 925.26,-56.75 1006.51,-56.75 1006.51,-77.5"/>
<text text-anchor="middle" x="965.88" y="-64" font-family="Helvetica,sans-Serif" font-size="10.00">periph_conf.h</text>
</a>
</g>
</g>
<!-- Node1&#45;&gt;Node4 -->
<g id="edge3_Node000001_Node000004" class="edge">
<title>Node1&#45;&gt;Node4</title>
<g id="a_edge3_Node000001_Node000004"><a xlink:title=" ">
<path fill="none" stroke="#63b8ff" d="M936.84,-283.45C951.44,-274.78 967.6,-262.75 977.88,-247.75 1011.4,-198.89 988.69,-123.89 974.66,-88.26"/>
<polygon fill="#63b8ff" stroke="#63b8ff" points="977.96,-87.08 970.9,-79.18 971.49,-89.76 977.96,-87.08"/>
</a>
</g>
</g>
<!-- Node5 -->
<g id="Node000005" class="node">
<title>Node5</title>
<g id="a_Node000005"><a xlink:href="iotlab_2include_2periph__conf__common_8h.html" target="_top" xlink:title="Peripheral MCU configuration for the iotlab&#45;m3 board.">
<polygon fill="white" stroke="#666666" points="968.88,-247.75 838.88,-247.75 838.88,-227 968.88,-227 968.88,-247.75"/>
<text text-anchor="middle" x="903.88" y="-234.25" font-family="Helvetica,sans-Serif" font-size="10.00">periph_conf_common.h</text>
</a>
</g>
</g>
<!-- Node1&#45;&gt;Node5 -->
<g id="edge4_Node000001_Node000005" class="edge">
<title>Node1&#45;&gt;Node5</title>
<g id="a_edge4_Node000001_Node000005"><a xlink:title=" ">
<path fill="none" stroke="#63b8ff" d="M903.88,-283.44C903.88,-276.1 903.88,-267.32 903.88,-259.46"/>
<polygon fill="#63b8ff" stroke="#63b8ff" points="907.38,-259.73 903.88,-249.73 900.38,-259.73 907.38,-259.73"/>
</a>
</g>
</g>
<!-- Node8 -->
<g id="Node000008" class="node">
<title>Node8</title>
<g id="a_Node000008"><a xlink:href="stm32__leds_8h.html" target="_top" xlink:title="Common LED macros.">
<polygon fill="white" stroke="#666666" points="635.51,-247.75 554.26,-247.75 554.26,-227 635.51,-227 635.51,-247.75"/>
<text text-anchor="middle" x="594.88" y="-234.25" font-family="Helvetica,sans-Serif" font-size="10.00">stm32_leds.h</text>
</a>
</g>
</g>
<!-- Node1&#45;&gt;Node8 -->
<g id="edge7_Node000001_Node000008" class="edge">
<title>Node1&#45;&gt;Node8</title>
<g id="a_edge7_Node000001_Node000008"><a xlink:title=" ">
<path fill="none" stroke="#63b8ff" d="M832.6,-285.4C775.93,-274.19 697.97,-258.77 647.02,-248.69"/>
<polygon fill="#63b8ff" stroke="#63b8ff" points="647.92,-245.3 637.43,-246.79 646.56,-252.16 647.92,-245.3"/>
</a>
</g>
</g>
<!-- Node6 -->
<g id="Node000006" class="node">
<title>Node6</title>
<g id="a_Node000006"><a xlink:title=" ">
<polygon fill="#e0e0e0" stroke="#999999" points="862.01,-77.5 783.76,-77.5 783.76,-56.75 862.01,-56.75 862.01,-77.5"/>
<text text-anchor="middle" x="822.88" y="-64" font-family="Helvetica,sans-Serif" font-size="10.00">periph_cpu.h</text>
</a>
</g>
</g>
<!-- Node5&#45;&gt;Node6 -->
<g id="edge5_Node000005_Node000006" class="edge">
<title>Node5&#45;&gt;Node6</title>
<g id="a_edge5_Node000005_Node000006"><a xlink:title=" ">
<path fill="none" stroke="#63b8ff" d="M903.21,-226.74C901.32,-205.05 894.52,-151.33 871.88,-113.5 865.27,-102.46 855.18,-92.46 845.87,-84.68"/>
<polygon fill="#63b8ff" stroke="#63b8ff" points="848.19,-82.05 838.17,-78.61 843.86,-87.55 848.19,-82.05"/>
</a>
</g>
</g>
<!-- Node7 -->
<g id="Node000007" class="node">
<title>Node7</title>
<g id="a_Node000007"><a xlink:title=" ">
<polygon fill="#e0e0e0" stroke="#999999" points="983.26,-191 918.51,-191 918.51,-170.25 983.26,-170.25 983.26,-191"/>
<text text-anchor="middle" x="950.88" y="-177.5" font-family="Helvetica,sans-Serif" font-size="10.00">clk_conf.h</text>
</a>
</g>
</g>
<!-- Node5&#45;&gt;Node7 -->
<g id="edge6_Node000005_Node000007" class="edge">
<title>Node5&#45;&gt;Node7</title>
<g id="a_edge6_Node000005_Node000007"><a xlink:title=" ">
<path fill="none" stroke="#63b8ff" d="M912.29,-226.59C918.63,-219.19 927.53,-208.82 935.19,-199.91"/>
<polygon fill="#63b8ff" stroke="#63b8ff" points="937.71,-202.34 941.57,-192.48 932.4,-197.78 937.71,-202.34"/>
</a>
</g>
</g>
<!-- Node9 -->
<g id="Node000009" class="node">
<title>Node9</title>
<g id="a_Node000009"><a xlink:href="gpio__ll_8h.html" target="_top" xlink:title="Peripheral GPIO Low&#45;Level API.">
<polygon fill="white" stroke="#666666" points="640.38,-191 549.38,-191 549.38,-170.25 640.38,-170.25 640.38,-191"/>
<text text-anchor="middle" x="594.88" y="-177.5" font-family="Helvetica,sans-Serif" font-size="10.00">periph/gpio_ll.h</text>
</a>
</g>
</g>
<!-- Node8&#45;&gt;Node9 -->
<g id="edge8_Node000008_Node000009" class="edge">
<title>Node8&#45;&gt;Node9</title>
<g id="a_edge8_Node000008_Node000009"><a xlink:title=" ">
<path fill="none" stroke="#63b8ff" d="M594.88,-226.59C594.88,-219.97 594.88,-210.97 594.88,-202.77"/>
<polygon fill="#63b8ff" stroke="#63b8ff" points="598.38,-202.84 594.88,-192.84 591.38,-202.84 598.38,-202.84"/>
</a>
</g>
</g>
<!-- Node18 -->
<g id="Node000018" class="node">
<title>Node18</title>
<g id="a_Node000018"><a xlink:href="kernel__defines_8h.html" target="_top" xlink:title="Common macros and compiler attributes/pragmas configuration.">
<polygon fill="white" stroke="#666666" points="283.01,-191 186.76,-191 186.76,-170.25 283.01,-170.25 283.01,-191"/>
<text text-anchor="middle" x="234.88" y="-177.5" font-family="Helvetica,sans-Serif" font-size="10.00">kernel_defines.h</text>
</a>
</g>
</g>
<!-- Node8&#45;&gt;Node18 -->
<g id="edge24_Node000008_Node000018" class="edge">
<title>Node8&#45;&gt;Node18</title>
<g id="a_edge24_Node000008_Node000018"><a xlink:title=" ">
<path fill="none" stroke="#63b8ff" d="M553.94,-230.15C490.44,-220.49 367.9,-201.86 294.55,-190.7"/>
<polygon fill="#63b8ff" stroke="#63b8ff" points="295.13,-187.25 284.72,-189.2 294.08,-194.17 295.13,-187.25"/>
</a>
</g>
</g>
<!-- Node9&#45;&gt;Node2 -->
<g id="edge12_Node000009_Node000002" class="edge">
<title>Node9&#45;&gt;Node2</title>
<g id="a_edge12_Node000009_Node000002"><a xlink:title=" ">
<path fill="none" stroke="#63b8ff" d="M553.18,-169.77C524.41,-162.12 485.76,-150.14 453.88,-134.25 400.36,-107.56 395.37,-87.18 343.88,-56.75 324.58,-45.34 302,-34.27 283.92,-25.92"/>
<polygon fill="#63b8ff" stroke="#63b8ff" points="285.51,-22.8 274.96,-21.85 282.61,-29.17 285.51,-22.8"/>
</a>
</g>
</g>
<!-- Node9&#45;&gt;Node6 -->
<g id="edge22_Node000009_Node000006" class="edge">
<title>Node9&#45;&gt;Node6</title>
<g id="a_edge22_Node000009_Node000006"><a xlink:title=" ">
<path fill="none" stroke="#63b8ff" d="M638.02,-169.8C666.74,-162.3 704.76,-150.48 735.88,-134.25 761.43,-120.93 787.29,-100.14 804.09,-85.43"/>
<polygon fill="#63b8ff" stroke="#63b8ff" points="806.19,-88.26 811.31,-78.98 801.52,-83.04 806.19,-88.26"/>
</a>
</g>
</g>
<!-- Node10 -->
<g id="Node000010" class="node">
<title>Node10</title>
<g id="a_Node000010"><a xlink:href="assert_8h.html" target="_top" xlink:title="POSIX.1&#45;2008 compliant version of the assert macro.">
<polygon fill="white" stroke="#666666" points="334.38,-77.5 279.38,-77.5 279.38,-56.75 334.38,-56.75 334.38,-77.5"/>
<text text-anchor="middle" x="306.88" y="-64" font-family="Helvetica,sans-Serif" font-size="10.00">assert.h</text>
</a>
</g>
</g>
<!-- Node9&#45;&gt;Node10 -->
<g id="edge9_Node000009_Node000010" class="edge">
<title>Node9&#45;&gt;Node10</title>
<g id="a_edge9_Node000009_Node000010"><a xlink:title=" ">
<path fill="none" stroke="#63b8ff" d="M549.09,-171.22C513.35,-163.83 462.89,-151.53 420.88,-134.25 387.67,-120.58 352.33,-98.82 329.96,-84.02"/>
<polygon fill="#63b8ff" stroke="#63b8ff" points="332.15,-81.28 321.9,-78.61 328.25,-87.09 332.15,-81.28"/>
</a>
</g>
</g>
<!-- Node11 -->
<g id="Node000011" class="node">
<title>Node11</title>
<g id="a_Node000011"><a xlink:title=" ">
<polygon fill="#e0e0e0" stroke="#999999" points="625.38,-134.25 564.38,-134.25 564.38,-113.5 625.38,-113.5 625.38,-134.25"/>
<text text-anchor="middle" x="594.88" y="-120.75" font-family="Helvetica,sans-Serif" font-size="10.00">stdbool.h</text>
</a>
</g>
</g>
<!-- Node9&#45;&gt;Node11 -->
<g id="edge11_Node000009_Node000011" class="edge">
<title>Node9&#45;&gt;Node11</title>
<g id="a_edge11_Node000009_Node000011"><a xlink:title=" ">
<path fill="none" stroke="#63b8ff" d="M594.88,-169.84C594.88,-163.22 594.88,-154.22 594.88,-146.02"/>
<polygon fill="#63b8ff" stroke="#63b8ff" points="598.38,-146.09 594.88,-136.09 591.38,-146.09 598.38,-146.09"/>
</a>
</g>
</g>
<!-- Node12 -->
<g id="Node000012" class="node">
<title>Node12</title>
<g id="a_Node000012"><a xlink:href="architecture_8h.html" target="_top" xlink:title="Platform&#45;independent access to architecture details.">
<polygon fill="white" stroke="#666666" points="546.63,-134.25 463.13,-134.25 463.13,-113.5 546.63,-113.5 546.63,-134.25"/>
<text text-anchor="middle" x="504.88" y="-120.75" font-family="Helvetica,sans-Serif" font-size="10.00">architecture.h</text>
</a>
</g>
</g>
<!-- Node9&#45;&gt;Node12 -->
<g id="edge13_Node000009_Node000012" class="edge">
<title>Node9&#45;&gt;Node12</title>
<g id="a_edge13_Node000009_Node000012"><a xlink:title=" ">
<path fill="none" stroke="#63b8ff" d="M578.79,-169.84C565.35,-161.66 545.95,-149.86 530.4,-140.4"/>
<polygon fill="#63b8ff" stroke="#63b8ff" points="532.49,-137.57 522.13,-135.37 528.85,-143.55 532.49,-137.57"/>
</a>
</g>
</g>
<!-- Node16 -->
<g id="Node000016" class="node">
<title>Node16</title>
<g id="a_Node000016"><a xlink:href="drivers_2include_2periph_2gpio_8h.html" target="_top" xlink:title="Low&#45;level GPIO peripheral driver interface definitions.">
<polygon fill="white" stroke="#666666" points="862.76,-134.25 783.01,-134.25 783.01,-113.5 862.76,-113.5 862.76,-134.25"/>
<text text-anchor="middle" x="822.88" y="-120.75" font-family="Helvetica,sans-Serif" font-size="10.00">periph/gpio.h</text>
</a>
</g>
</g>
<!-- Node9&#45;&gt;Node16 -->
<g id="edge18_Node000009_Node000016" class="edge">
<title>Node9&#45;&gt;Node16</title>
<g id="a_edge18_Node000009_Node000016"><a xlink:title=" ">
<path fill="none" stroke="#63b8ff" d="M635.91,-169.77C673.88,-160.66 730.48,-147.06 771.46,-137.22"/>
<polygon fill="#63b8ff" stroke="#63b8ff" points="772.19,-140.65 781.1,-134.91 770.56,-133.84 772.19,-140.65"/>
</a>
</g>
</g>
<!-- Node17 -->
<g id="Node000017" class="node">
<title>Node17</title>
<g id="a_Node000017"><a xlink:title=" ">
<polygon fill="#e0e0e0" stroke="#999999" points="726.63,-134.25 643.13,-134.25 643.13,-113.5 726.63,-113.5 726.63,-134.25"/>
<text text-anchor="middle" x="684.88" y="-120.75" font-family="Helvetica,sans-Serif" font-size="10.00">gpio_ll_arch.h</text>
</a>
</g>
</g>
<!-- Node9&#45;&gt;Node17 -->
<g id="edge23_Node000009_Node000017" class="edge">
<title>Node9&#45;&gt;Node17</title>
<g id="a_edge23_Node000009_Node000017"><a xlink:title=" ">
<path fill="none" stroke="#63b8ff" d="M610.97,-169.84C624.41,-161.66 643.81,-149.86 659.37,-140.4"/>
<polygon fill="#63b8ff" stroke="#63b8ff" points="660.91,-143.55 667.64,-135.37 657.28,-137.57 660.91,-143.55"/>
</a>
</g>
</g>
<!-- Node10&#45;&gt;Node2 -->
<g id="edge10_Node000010_Node000002" class="edge">
<title>Node10&#45;&gt;Node2</title>
<g id="a_edge10_Node000010_Node000002"><a xlink:title=" ">
<path fill="none" stroke="#63b8ff" d="M296.87,-56.34C289.15,-48.78 278.25,-38.14 269.01,-29.1"/>
<polygon fill="#63b8ff" stroke="#63b8ff" points="271.49,-26.62 261.89,-22.14 266.59,-31.63 271.49,-26.62"/>
</a>
</g>
</g>
<!-- Node12&#45;&gt;Node2 -->
<g id="edge14_Node000012_Node000002" class="edge">
<title>Node12&#45;&gt;Node2</title>
<g id="a_edge14_Node000012_Node000002"><a xlink:title=" ">
<path fill="none" stroke="#63b8ff" d="M499.41,-113.06C490.71,-98.4 472.27,-70.98 448.88,-56.75 399.01,-26.4 330.84,-16.33 288.89,-13"/>
<polygon fill="#63b8ff" stroke="#63b8ff" points="289.26,-9.52 279.05,-12.32 288.78,-16.5 289.26,-9.52"/>
</a>
</g>
</g>
<!-- Node13 -->
<g id="Node000013" class="node">
<title>Node13</title>
<g id="a_Node000013"><a xlink:href="inttypes_8h.html" target="_top" xlink:title="Adds include for missing inttype definitions.">
<polygon fill="white" stroke="#666666" points="693.26,-77.5 628.51,-77.5 628.51,-56.75 693.26,-56.75 693.26,-77.5"/>
<text text-anchor="middle" x="660.88" y="-64" font-family="Helvetica,sans-Serif" font-size="10.00">inttypes.h</text>
</a>
</g>
</g>
<!-- Node12&#45;&gt;Node13 -->
<g id="edge15_Node000012_Node000013" class="edge">
<title>Node12&#45;&gt;Node13</title>
<g id="a_edge15_Node000012_Node000013"><a xlink:title=" ">
<path fill="none" stroke="#63b8ff" d="M532.77,-113.09C557.76,-104.32 594.65,-91.37 622.44,-81.62"/>
<polygon fill="#63b8ff" stroke="#63b8ff" points="623.27,-85.04 631.54,-78.42 620.95,-78.43 623.27,-85.04"/>
</a>
</g>
</g>
<!-- Node14 -->
<g id="Node000014" class="node">
<title>Node14</title>
<g id="a_Node000014"><a xlink:title=" ">
<polygon fill="#e0e0e0" stroke="#999999" points="765.26,-77.5 712.51,-77.5 712.51,-56.75 765.26,-56.75 765.26,-77.5"/>
<text text-anchor="middle" x="738.88" y="-64" font-family="Helvetica,sans-Serif" font-size="10.00">limits.h</text>
</a>
</g>
</g>
<!-- Node12&#45;&gt;Node14 -->
<g id="edge16_Node000012_Node000014" class="edge">
<title>Node12&#45;&gt;Node14</title>
<g id="a_edge16_Node000012_Node000014"><a xlink:title=" ">
<path fill="none" stroke="#63b8ff" d="M546.83,-113.49C584.42,-105.02 641.33,-92.04 701.04,-77.66"/>
<polygon fill="#63b8ff" stroke="#63b8ff" points="701.85,-81.06 710.75,-75.31 700.21,-74.26 701.85,-81.06"/>
</a>
</g>
</g>
<!-- Node15 -->
<g id="Node000015" class="node">
<title>Node15</title>
<g id="a_Node000015"><a xlink:title=" ">
<polygon fill="#e0e0e0" stroke="#999999" points="610.76,-77.5 501.01,-77.5 501.01,-56.75 610.76,-56.75 610.76,-77.5"/>
<text text-anchor="middle" x="555.88" y="-64" font-family="Helvetica,sans-Serif" font-size="10.00">architecture_arch.h</text>
</a>
</g>
</g>
<!-- Node12&#45;&gt;Node15 -->
<g id="edge17_Node000012_Node000015" class="edge">
<title>Node12&#45;&gt;Node15</title>
<g id="a_edge17_Node000012_Node000015"><a xlink:title=" ">
<path fill="none" stroke="#63b8ff" d="M514,-113.09C520.96,-105.61 530.75,-95.11 539.11,-86.13"/>
<polygon fill="#63b8ff" stroke="#63b8ff" points="541.56,-88.64 545.81,-78.94 536.43,-83.87 541.56,-88.64"/>
</a>
</g>
</g>
<!-- Node16&#45;&gt;Node4 -->
<g id="edge21_Node000016_Node000004" class="edge">
<title>Node16&#45;&gt;Node4</title>
<g id="a_edge21_Node000016_Node000004"><a xlink:title=" ">
<path fill="none" stroke="#63b8ff" d="M848.45,-113.09C871.12,-104.41 904.48,-91.63 929.86,-81.92"/>
<polygon fill="#63b8ff" stroke="#63b8ff" points="931.04,-85.21 939.12,-78.37 928.53,-78.68 931.04,-85.21"/>
</a>
</g>
</g>
<!-- Node16&#45;&gt;Node6 -->
<g id="edge20_Node000016_Node000006" class="edge">
<title>Node16&#45;&gt;Node6</title>
<g id="a_edge20_Node000016_Node000006"><a xlink:title=" ">
<path fill="none" stroke="#63b8ff" d="M822.88,-113.09C822.88,-106.47 822.88,-97.47 822.88,-89.27"/>
<polygon fill="#63b8ff" stroke="#63b8ff" points="826.38,-89.34 822.88,-79.34 819.38,-89.34 826.38,-89.34"/>
</a>
</g>
</g>
<!-- Node16&#45;&gt;Node14 -->
<g id="edge19_Node000016_Node000014" class="edge">
<title>Node16&#45;&gt;Node14</title>
<g id="a_edge19_Node000016_Node000014"><a xlink:title=" ">
<path fill="none" stroke="#63b8ff" d="M807.86,-113.09C795.44,-104.99 777.56,-93.33 763.11,-83.92"/>
<polygon fill="#63b8ff" stroke="#63b8ff" points="765.33,-81.18 755.04,-78.65 761.5,-87.05 765.33,-81.18"/>
</a>
</g>
</g>
<!-- Node19 -->
<g id="Node000019" class="node">
<title>Node19</title>
<g id="a_Node000019"><a xlink:href="modules_8h.html" target="_top" xlink:title="Common macros and compiler attributes/pragmas configuration.">
<polygon fill="white" stroke="#666666" points="368.38,-134.25 301.38,-134.25 301.38,-113.5 368.38,-113.5 368.38,-134.25"/>
<text text-anchor="middle" x="334.88" y="-120.75" font-family="Helvetica,sans-Serif" font-size="10.00">modules.h</text>
</a>
</g>
</g>
<!-- Node18&#45;&gt;Node19 -->
<g id="edge25_Node000018_Node000019" class="edge">
<title>Node18&#45;&gt;Node19</title>
<g id="a_edge25_Node000018_Node000019"><a xlink:title=" ">
<path fill="none" stroke="#63b8ff" d="M252.76,-169.84C267.98,-161.51 290.07,-149.41 307.52,-139.86"/>
<polygon fill="#63b8ff" stroke="#63b8ff" points="308.74,-143.18 315.83,-135.31 305.38,-137.04 308.74,-143.18"/>
</a>
</g>
</g>
<!-- Node20 -->
<g id="Node000020" class="node">
<title>Node20</title>
<g id="a_Node000020"><a xlink:href="riot__version_8h.html" target="_top" xlink:title="Common macros and compiler attributes/pragmas configuration.">
<polygon fill="white" stroke="#666666" points="111.26,-77.5 28.51,-77.5 28.51,-56.75 111.26,-56.75 111.26,-77.5"/>
<text text-anchor="middle" x="69.88" y="-64" font-family="Helvetica,sans-Serif" font-size="10.00">riot_version.h</text>
</a>
</g>
</g>
<!-- Node18&#45;&gt;Node20 -->
<g id="edge26_Node000018_Node000020" class="edge">
<title>Node18&#45;&gt;Node20</title>
<g id="a_edge26_Node000018_Node000020"><a xlink:title=" ">
<path fill="none" stroke="#63b8ff" d="M186.4,-176.23C154.63,-171.49 114.41,-160.33 88.88,-134.25 77.12,-122.23 72.55,-103.44 70.82,-88.95"/>
<polygon fill="#63b8ff" stroke="#63b8ff" points="74.32,-88.81 70.04,-79.12 67.34,-89.37 74.32,-88.81"/>
</a>
</g>
</g>
<!-- Node21 -->
<g id="Node000021" class="node">
<title>Node21</title>
<g id="a_Node000021"><a xlink:href="compiler__hints_8h.html" target="_top" xlink:title="Common macros and compiler attributes/pragmas configuration.">
<polygon fill="white" stroke="#666666" points="283.38,-134.25 186.38,-134.25 186.38,-113.5 283.38,-113.5 283.38,-134.25"/>
<text text-anchor="middle" x="234.88" y="-120.75" font-family="Helvetica,sans-Serif" font-size="10.00">compiler_hints.h</text>
</a>
</g>
</g>
<!-- Node18&#45;&gt;Node21 -->
<g id="edge28_Node000018_Node000021" class="edge">
<title>Node18&#45;&gt;Node21</title>
<g id="a_edge28_Node000018_Node000021"><a xlink:title=" ">
<path fill="none" stroke="#63b8ff" d="M234.88,-169.84C234.88,-163.22 234.88,-154.22 234.88,-146.02"/>
<polygon fill="#63b8ff" stroke="#63b8ff" points="238.38,-146.09 234.88,-136.09 231.38,-146.09 238.38,-146.09"/>
</a>
</g>
</g>
<!-- Node22 -->
<g id="Node000022" class="node">
<title>Node22</title>
<g id="a_Node000022"><a xlink:href="container_8h.html" target="_top" xlink:title="Common macros and compiler attributes/pragmas configuration.">
<polygon fill="white" stroke="#666666" points="168.26,-134.25 97.51,-134.25 97.51,-113.5 168.26,-113.5 168.26,-134.25"/>
<text text-anchor="middle" x="132.88" y="-120.75" font-family="Helvetica,sans-Serif" font-size="10.00">container.h</text>
</a>
</g>
</g>
<!-- Node18&#45;&gt;Node22 -->
<g id="edge31_Node000018_Node000022" class="edge">
<title>Node18&#45;&gt;Node22</title>
<g id="a_edge31_Node000018_Node000022"><a xlink:title=" ">
<path fill="none" stroke="#63b8ff" d="M216.65,-169.84C201.2,-161.55 178.8,-149.52 161.05,-139.99"/>
<polygon fill="#63b8ff" stroke="#63b8ff" points="162.76,-136.94 152.29,-135.29 159.45,-143.11 162.76,-136.94"/>
</a>
</g>
</g>
<!-- Node20&#45;&gt;Node2 -->
<g id="edge27_Node000020_Node000002" class="edge">
<title>Node20&#45;&gt;Node2</title>
<g id="a_edge27_Node000020_Node000002"><a xlink:title=" ">
<path fill="none" stroke="#63b8ff" d="M102.24,-56.34C133.35,-46.93 180.35,-32.71 213.15,-22.79"/>
<polygon fill="#63b8ff" stroke="#63b8ff" points="214.1,-26.16 222.66,-19.91 212.07,-19.46 214.1,-26.16"/>
</a>
</g>
</g>
<!-- Node21&#45;&gt;Node2 -->
<g id="edge30_Node000021_Node000002" class="edge">
<title>Node21&#45;&gt;Node2</title>
<g id="a_edge30_Node000021_Node000002"><a xlink:title=" ">
<path fill="none" stroke="#63b8ff" d="M236.25,-113.37C238.81,-95.52 244.39,-56.61 247.87,-32.34"/>
<polygon fill="#63b8ff" stroke="#63b8ff" points="251.31,-33.07 249.26,-22.67 244.38,-32.07 251.31,-33.07"/>
</a>
</g>
</g>
<!-- Node21&#45;&gt;Node10 -->
<g id="edge29_Node000021_Node000010" class="edge">
<title>Node21&#45;&gt;Node10</title>
<g id="a_edge29_Node000021_Node000010"><a xlink:title=" ">
<path fill="none" stroke="#63b8ff" d="M247.75,-113.09C258.1,-105.22 272.85,-94 285.04,-84.74"/>
<polygon fill="#63b8ff" stroke="#63b8ff" points="287.08,-87.58 292.92,-78.74 282.84,-82.01 287.08,-87.58"/>
</a>
</g>
</g>
<!-- Node22&#45;&gt;Node2 -->
<g id="edge33_Node000022_Node000002" class="edge">
<title>Node22&#45;&gt;Node2</title>
<g id="a_edge33_Node000022_Node000002"><a xlink:title=" ">
<path fill="none" stroke="#63b8ff" d="M147.89,-113.09C160.69,-104.42 179.29,-91.08 193.88,-77.5 209.77,-62.71 225.73,-43.77 236.7,-29.95"/>
<polygon fill="#63b8ff" stroke="#63b8ff" points="239.41,-32.16 242.8,-22.13 233.89,-27.86 239.41,-32.16"/>
</a>
</g>
</g>
<!-- Node23 -->
<g id="Node000023" class="node">
<title>Node23</title>
<g id="a_Node000023"><a xlink:title=" ">
<polygon fill="#e0e0e0" stroke="#999999" points="184.38,-77.5 129.38,-77.5 129.38,-56.75 184.38,-56.75 184.38,-77.5"/>
<text text-anchor="middle" x="156.88" y="-64" font-family="Helvetica,sans-Serif" font-size="10.00">stddef.h</text>
</a>
</g>
</g>
<!-- Node22&#45;&gt;Node23 -->
<g id="edge32_Node000022_Node000023" class="edge">
<title>Node22&#45;&gt;Node23</title>
<g id="a_edge32_Node000022_Node000023"><a xlink:title=" ">
<path fill="none" stroke="#63b8ff" d="M137.17,-113.09C140.21,-106.16 144.39,-96.62 148.12,-88.11"/>
<polygon fill="#63b8ff" stroke="#63b8ff" points="151.21,-89.78 152.02,-79.21 144.8,-86.97 151.21,-89.78"/>
</a>
</g>
</g>
</g>
</svg>
