<?xml version="1.0" encoding="UTF-8" standalone="no"?>
<!DOCTYPE svg PUBLIC "-//W3C//DTD SVG 1.1//EN"
 "http://www.w3.org/Graphics/SVG/1.1/DTD/svg11.dtd">
<!-- Generated by graphviz version 12.1.1 (0)
 -->
<!-- Title: pkg/wakaama/include/objects/ipso_sensor_base.h Pages: 1 -->
<svg width="840pt" height="124pt"
 viewBox="0.00 0.00 840.25 123.75" xmlns="http://www.w3.org/2000/svg" xmlns:xlink="http://www.w3.org/1999/xlink">
<g id="graph0" class="graph" transform="scale(1 1) rotate(0) translate(4 119.75)">
<title>pkg/wakaama/include/objects/ipso_sensor_base.h</title>
<!-- Node1 -->
<g id="Node000001" class="node">
<title>Node1</title>
<g id="a_Node000001"><a xlink:title=" ">
<polygon fill="#999999" stroke="#666666" points="475.25,-115.75 352,-115.75 352,-69.5 475.25,-69.5 475.25,-115.75"/>
<text text-anchor="start" x="360" y="-102.25" font-family="Helvetica,sans-Serif" font-size="10.00">pkg/wakaama/include</text>
<text text-anchor="start" x="360" y="-89.5" font-family="Helvetica,sans-Serif" font-size="10.00">/objects/ipso_sensor</text>
<text text-anchor="middle" x="413.62" y="-76.75" font-family="Helvetica,sans-Serif" font-size="10.00">_base.h</text>
</a>
</g>
</g>
<!-- Node2 -->
<g id="Node000002" class="node">
<title>Node2</title>
<g id="a_Node000002"><a xlink:href="barometer_8h.html" target="_top" xlink:title=" ">
<polygon fill="white" stroke="#666666" points="123.25,-33.5 0,-33.5 0,0 123.25,0 123.25,-33.5"/>
<text text-anchor="start" x="8" y="-20" font-family="Helvetica,sans-Serif" font-size="10.00">pkg/wakaama/include</text>
<text text-anchor="middle" x="61.62" y="-7.25" font-family="Helvetica,sans-Serif" font-size="10.00">/objects/barometer.h</text>
</a>
</g>
</g>
<!-- Node1&#45;&gt;Node2 -->
<g id="edge1_Node000001_Node000002" class="edge">
<title>Node1&#45;&gt;Node2</title>
<g id="a_edge1_Node000001_Node000002"><a xlink:title=" ">
<path fill="none" stroke="#63b8ff" d="M340.6,-76.95C283.63,-65.41 202.52,-48.78 131.62,-33.5 128.95,-32.92 126.21,-32.33 123.45,-31.72"/>
<polygon fill="#63b8ff" stroke="#63b8ff" points="339.69,-80.34 350.18,-78.89 341.08,-73.48 339.69,-80.34"/>
</a>
</g>
</g>
<!-- Node3 -->
<g id="Node000003" class="node">
<title>Node3</title>
<g id="a_Node000003"><a xlink:href="current_8h.html" target="_top" xlink:title=" ">
<polygon fill="white" stroke="#666666" points="264.25,-33.5 141,-33.5 141,0 264.25,0 264.25,-33.5"/>
<text text-anchor="start" x="149" y="-20" font-family="Helvetica,sans-Serif" font-size="10.00">pkg/wakaama/include</text>
<text text-anchor="middle" x="202.62" y="-7.25" font-family="Helvetica,sans-Serif" font-size="10.00">/objects/current.h</text>
</a>
</g>
</g>
<!-- Node1&#45;&gt;Node3 -->
<g id="edge2_Node000001_Node000003" class="edge">
<title>Node1&#45;&gt;Node3</title>
<g id="a_edge2_Node000001_Node000003"><a xlink:title=" ">
<path fill="none" stroke="#63b8ff" d="M341.11,-66.23C310.49,-55.52 275.76,-43.36 248.73,-33.89"/>
<polygon fill="#63b8ff" stroke="#63b8ff" points="339.72,-69.46 350.32,-69.46 342.03,-62.85 339.72,-69.46"/>
</a>
</g>
</g>
<!-- Node4 -->
<g id="Node000004" class="node">
<title>Node4</title>
<g id="a_Node000004"><a xlink:href="humidity_8h.html" target="_top" xlink:title=" ">
<polygon fill="white" stroke="#666666" points="405.25,-33.5 282,-33.5 282,0 405.25,0 405.25,-33.5"/>
<text text-anchor="start" x="290" y="-20" font-family="Helvetica,sans-Serif" font-size="10.00">pkg/wakaama/include</text>
<text text-anchor="middle" x="343.62" y="-7.25" font-family="Helvetica,sans-Serif" font-size="10.00">/objects/humidity.h</text>
</a>
</g>
</g>
<!-- Node1&#45;&gt;Node4 -->
<g id="edge3_Node000001_Node000004" class="edge">
<title>Node1&#45;&gt;Node4</title>
<g id="a_edge3_Node000001_Node000004"><a xlink:title=" ">
<path fill="none" stroke="#63b8ff" d="M384.4,-60.78C375.63,-51.52 366.36,-41.75 358.88,-33.85"/>
<polygon fill="#63b8ff" stroke="#63b8ff" points="381.78,-63.11 391.2,-67.96 386.86,-58.29 381.78,-63.11"/>
</a>
</g>
</g>
<!-- Node5 -->
<g id="Node000005" class="node">
<title>Node5</title>
<g id="a_Node000005"><a xlink:href="illuminance_8h.html" target="_top" xlink:title=" ">
<polygon fill="white" stroke="#666666" points="546.25,-33.5 423,-33.5 423,0 546.25,0 546.25,-33.5"/>
<text text-anchor="start" x="431" y="-20" font-family="Helvetica,sans-Serif" font-size="10.00">pkg/wakaama/include</text>
<text text-anchor="middle" x="484.62" y="-7.25" font-family="Helvetica,sans-Serif" font-size="10.00">/objects/illuminance.h</text>
</a>
</g>
</g>
<!-- Node1&#45;&gt;Node5 -->
<g id="edge4_Node000001_Node000005" class="edge">
<title>Node1&#45;&gt;Node5</title>
<g id="a_edge4_Node000001_Node000005"><a xlink:title=" ">
<path fill="none" stroke="#63b8ff" d="M443.27,-60.78C452.17,-51.52 461.56,-41.75 469.15,-33.85"/>
<polygon fill="#63b8ff" stroke="#63b8ff" points="440.77,-58.33 436.36,-67.97 445.81,-63.18 440.77,-58.33"/>
</a>
</g>
</g>
<!-- Node6 -->
<g id="Node000006" class="node">
<title>Node6</title>
<g id="a_Node000006"><a xlink:href="temperature_8h.html" target="_top" xlink:title=" ">
<polygon fill="white" stroke="#666666" points="691.12,-33.5 564.12,-33.5 564.12,0 691.12,0 691.12,-33.5"/>
<text text-anchor="start" x="572.12" y="-20" font-family="Helvetica,sans-Serif" font-size="10.00">pkg/wakaama/include</text>
<text text-anchor="middle" x="627.62" y="-7.25" font-family="Helvetica,sans-Serif" font-size="10.00">/objects/temperature.h</text>
</a>
</g>
</g>
<!-- Node1&#45;&gt;Node6 -->
<g id="edge5_Node000001_Node000006" class="edge">
<title>Node1&#45;&gt;Node6</title>
<g id="a_edge5_Node000001_Node000006"><a xlink:title=" ">
<path fill="none" stroke="#63b8ff" d="M486.37,-66.51C517.6,-55.73 553.19,-43.45 580.83,-33.91"/>
<polygon fill="#63b8ff" stroke="#63b8ff" points="485.26,-63.19 476.95,-69.76 487.55,-69.81 485.26,-63.19"/>
</a>
</g>
</g>
<!-- Node7 -->
<g id="Node000007" class="node">
<title>Node7</title>
<g id="a_Node000007"><a xlink:href="voltage_8h.html" target="_top" xlink:title=" ">
<polygon fill="white" stroke="#666666" points="832.25,-33.5 709,-33.5 709,0 832.25,0 832.25,-33.5"/>
<text text-anchor="start" x="717" y="-20" font-family="Helvetica,sans-Serif" font-size="10.00">pkg/wakaama/include</text>
<text text-anchor="middle" x="770.62" y="-7.25" font-family="Helvetica,sans-Serif" font-size="10.00">/objects/voltage.h</text>
</a>
</g>
</g>
<!-- Node1&#45;&gt;Node7 -->
<g id="edge6_Node000001_Node000007" class="edge">
<title>Node1&#45;&gt;Node7</title>
<g id="a_edge6_Node000001_Node000007"><a xlink:title=" ">
<path fill="none" stroke="#63b8ff" d="M486.83,-77.25C544.88,-65.74 628.03,-49.02 700.62,-33.5 703.3,-32.93 706.04,-32.34 708.8,-31.74"/>
<polygon fill="#63b8ff" stroke="#63b8ff" points="486.18,-73.81 477.05,-79.19 487.54,-80.68 486.18,-73.81"/>
</a>
</g>
</g>
</g>
</svg>
