<?xml version="1.0" encoding="UTF-8" standalone="no"?>
<!DOCTYPE svg PUBLIC "-//W3C//DTD SVG 1.1//EN"
 "http://www.w3.org/Graphics/SVG/1.1/DTD/svg11.dtd">
<!-- Generated by graphviz version 12.1.1 (0)
 -->
<!-- Title: drivers/include/isl29125.h Pages: 1 -->
<svg width="401pt" height="142pt"
 viewBox="0.00 0.00 400.50 142.25" xmlns="http://www.w3.org/2000/svg" xmlns:xlink="http://www.w3.org/1999/xlink">
<g id="graph0" class="graph" transform="scale(1 1) rotate(0) translate(4 138.25)">
<title>drivers/include/isl29125.h</title>
<!-- Node1 -->
<g id="Node000001" class="node">
<title>Node1</title>
<g id="a_Node000001"><a xlink:title="Device driver interface for the ISL29125 RGB light sensor.">
<polygon fill="#999999" stroke="#666666" points="191,-134.25 49.75,-134.25 49.75,-113.5 191,-113.5 191,-134.25"/>
<text text-anchor="middle" x="120.38" y="-120.75" font-family="Helvetica,sans-Serif" font-size="10.00">drivers/include/isl29125.h</text>
</a>
</g>
</g>
<!-- Node2 -->
<g id="Node000002" class="node">
<title>Node2</title>
<g id="a_Node000002"><a xlink:title=" ">
<polygon fill="#e0e0e0" stroke="#999999" points="52.75,-20.75 0,-20.75 0,0 52.75,0 52.75,-20.75"/>
<text text-anchor="middle" x="26.38" y="-7.25" font-family="Helvetica,sans-Serif" font-size="10.00">stdint.h</text>
</a>
</g>
</g>
<!-- Node1&#45;&gt;Node2 -->
<g id="edge1_Node000001_Node000002" class="edge">
<title>Node1&#45;&gt;Node2</title>
<g id="a_edge1_Node000001_Node000002"><a xlink:title=" ">
<path fill="none" stroke="#63b8ff" d="M96.6,-113.07C80.89,-105.48 60.95,-93.55 48.38,-77.5 37.98,-64.24 32.39,-45.85 29.45,-31.83"/>
<polygon fill="#63b8ff" stroke="#63b8ff" points="32.96,-31.59 27.75,-22.36 26.07,-32.82 32.96,-31.59"/>
</a>
</g>
</g>
<!-- Node3 -->
<g id="Node000003" class="node">
<title>Node3</title>
<g id="a_Node000003"><a xlink:href="i2c_8h.html" target="_top" xlink:title="Low&#45;level I2C peripheral driver interface definition.">
<polygon fill="white" stroke="#666666" points="196.88,-77.5 123.88,-77.5 123.88,-56.75 196.88,-56.75 196.88,-77.5"/>
<text text-anchor="middle" x="160.38" y="-64" font-family="Helvetica,sans-Serif" font-size="10.00">periph/i2c.h</text>
</a>
</g>
</g>
<!-- Node1&#45;&gt;Node3 -->
<g id="edge2_Node000001_Node000003" class="edge">
<title>Node1&#45;&gt;Node3</title>
<g id="a_edge2_Node000001_Node000003"><a xlink:title=" ">
<path fill="none" stroke="#63b8ff" d="M127.53,-113.09C132.82,-105.85 140.19,-95.76 146.6,-86.97"/>
<polygon fill="#63b8ff" stroke="#63b8ff" points="149.32,-89.19 152.39,-79.05 143.67,-85.06 149.32,-89.19"/>
</a>
</g>
</g>
<!-- Node8 -->
<g id="Node000008" class="node">
<title>Node8</title>
<g id="a_Node000008"><a xlink:href="drivers_2include_2periph_2gpio_8h.html" target="_top" xlink:title="Low&#45;level GPIO peripheral driver interface definitions.">
<polygon fill="white" stroke="#666666" points="294.25,-77.5 214.5,-77.5 214.5,-56.75 294.25,-56.75 294.25,-77.5"/>
<text text-anchor="middle" x="254.38" y="-64" font-family="Helvetica,sans-Serif" font-size="10.00">periph/gpio.h</text>
</a>
</g>
</g>
<!-- Node1&#45;&gt;Node8 -->
<g id="edge8_Node000001_Node000008" class="edge">
<title>Node1&#45;&gt;Node8</title>
<g id="a_edge8_Node000001_Node000008"><a xlink:title=" ">
<path fill="none" stroke="#63b8ff" d="M144.33,-113.09C165.39,-104.48 196.28,-91.86 219.98,-82.18"/>
<polygon fill="#63b8ff" stroke="#63b8ff" points="221.29,-85.42 229.22,-78.4 218.64,-78.94 221.29,-85.42"/>
</a>
</g>
</g>
<!-- Node9 -->
<g id="Node000009" class="node">
<title>Node9</title>
<g id="a_Node000009"><a xlink:href="color_8h.html" target="_top" xlink:title="Headers for the color handling module.">
<polygon fill="white" stroke="#666666" points="105.88,-77.5 56.88,-77.5 56.88,-56.75 105.88,-56.75 105.88,-77.5"/>
<text text-anchor="middle" x="81.38" y="-64" font-family="Helvetica,sans-Serif" font-size="10.00">color.h</text>
</a>
</g>
</g>
<!-- Node1&#45;&gt;Node9 -->
<g id="edge12_Node000001_Node000009" class="edge">
<title>Node1&#45;&gt;Node9</title>
<g id="a_edge12_Node000001_Node000009"><a xlink:title=" ">
<path fill="none" stroke="#63b8ff" d="M113.4,-113.09C108.24,-105.85 101.06,-95.76 94.8,-86.97"/>
<polygon fill="#63b8ff" stroke="#63b8ff" points="97.82,-85.18 89.17,-79.06 92.12,-89.24 97.82,-85.18"/>
</a>
</g>
</g>
<!-- Node3&#45;&gt;Node2 -->
<g id="edge3_Node000003_Node000002" class="edge">
<title>Node3&#45;&gt;Node2</title>
<g id="a_edge3_Node000003_Node000002"><a xlink:title=" ">
<path fill="none" stroke="#63b8ff" d="M136.42,-56.34C115.36,-47.73 84.47,-35.11 60.77,-25.43"/>
<polygon fill="#63b8ff" stroke="#63b8ff" points="62.11,-22.19 51.53,-21.65 59.46,-28.67 62.11,-22.19"/>
</a>
</g>
</g>
<!-- Node4 -->
<g id="Node000004" class="node">
<title>Node4</title>
<g id="a_Node000004"><a xlink:title=" ">
<polygon fill="#e0e0e0" stroke="#999999" points="125.88,-20.75 70.88,-20.75 70.88,0 125.88,0 125.88,-20.75"/>
<text text-anchor="middle" x="98.38" y="-7.25" font-family="Helvetica,sans-Serif" font-size="10.00">stddef.h</text>
</a>
</g>
</g>
<!-- Node3&#45;&gt;Node4 -->
<g id="edge4_Node000003_Node000004" class="edge">
<title>Node3&#45;&gt;Node4</title>
<g id="a_edge4_Node000003_Node000004"><a xlink:title=" ">
<path fill="none" stroke="#63b8ff" d="M149.29,-56.34C140.56,-48.63 128.18,-37.7 117.81,-28.54"/>
<polygon fill="#63b8ff" stroke="#63b8ff" points="120.31,-26.08 110.5,-22.08 115.68,-31.32 120.31,-26.08"/>
</a>
</g>
</g>
<!-- Node5 -->
<g id="Node000005" class="node">
<title>Node5</title>
<g id="a_Node000005"><a xlink:title=" ">
<polygon fill="#e0e0e0" stroke="#999999" points="196.75,-20.75 144,-20.75 144,0 196.75,0 196.75,-20.75"/>
<text text-anchor="middle" x="170.38" y="-7.25" font-family="Helvetica,sans-Serif" font-size="10.00">limits.h</text>
</a>
</g>
</g>
<!-- Node3&#45;&gt;Node5 -->
<g id="edge5_Node000003_Node000005" class="edge">
<title>Node3&#45;&gt;Node5</title>
<g id="a_edge5_Node000003_Node000005"><a xlink:title=" ">
<path fill="none" stroke="#63b8ff" d="M162.16,-56.34C163.39,-49.64 165.05,-40.51 166.57,-32.23"/>
<polygon fill="#63b8ff" stroke="#63b8ff" points="169.98,-33.03 168.33,-22.57 163.09,-31.78 169.98,-33.03"/>
</a>
</g>
</g>
<!-- Node6 -->
<g id="Node000006" class="node">
<title>Node6</title>
<g id="a_Node000006"><a xlink:title=" ">
<polygon fill="#e0e0e0" stroke="#999999" points="296,-20.75 214.75,-20.75 214.75,0 296,0 296,-20.75"/>
<text text-anchor="middle" x="255.38" y="-7.25" font-family="Helvetica,sans-Serif" font-size="10.00">periph_conf.h</text>
</a>
</g>
</g>
<!-- Node3&#45;&gt;Node6 -->
<g id="edge6_Node000003_Node000006" class="edge">
<title>Node3&#45;&gt;Node6</title>
<g id="a_edge6_Node000003_Node000006"><a xlink:title=" ">
<path fill="none" stroke="#63b8ff" d="M177.36,-56.34C191.68,-48.08 212.42,-36.13 228.91,-26.63"/>
<polygon fill="#63b8ff" stroke="#63b8ff" points="230.31,-29.86 237.23,-21.83 226.81,-23.8 230.31,-29.86"/>
</a>
</g>
</g>
<!-- Node7 -->
<g id="Node000007" class="node">
<title>Node7</title>
<g id="a_Node000007"><a xlink:title=" ">
<polygon fill="#e0e0e0" stroke="#999999" points="392.5,-20.75 314.25,-20.75 314.25,0 392.5,0 392.5,-20.75"/>
<text text-anchor="middle" x="353.38" y="-7.25" font-family="Helvetica,sans-Serif" font-size="10.00">periph_cpu.h</text>
</a>
</g>
</g>
<!-- Node3&#45;&gt;Node7 -->
<g id="edge7_Node000003_Node000007" class="edge">
<title>Node3&#45;&gt;Node7</title>
<g id="a_edge7_Node000003_Node000007"><a xlink:title=" ">
<path fill="none" stroke="#63b8ff" d="M194.88,-56.34C226.48,-47.37 273.46,-34.04 308.08,-24.23"/>
<polygon fill="#63b8ff" stroke="#63b8ff" points="308.72,-27.68 317.39,-21.58 306.81,-20.95 308.72,-27.68"/>
</a>
</g>
</g>
<!-- Node8&#45;&gt;Node5 -->
<g id="edge9_Node000008_Node000005" class="edge">
<title>Node8&#45;&gt;Node5</title>
<g id="a_edge9_Node000008_Node000005"><a xlink:title=" ">
<path fill="none" stroke="#63b8ff" d="M239.36,-56.34C226.93,-48.24 209.05,-36.58 194.6,-27.17"/>
<polygon fill="#63b8ff" stroke="#63b8ff" points="196.82,-24.43 186.53,-21.9 193,-30.3 196.82,-24.43"/>
</a>
</g>
</g>
<!-- Node8&#45;&gt;Node6 -->
<g id="edge11_Node000008_Node000006" class="edge">
<title>Node8&#45;&gt;Node6</title>
<g id="a_edge11_Node000008_Node000006"><a xlink:title=" ">
<path fill="none" stroke="#63b8ff" d="M254.55,-56.34C254.67,-49.72 254.84,-40.72 254.99,-32.52"/>
<polygon fill="#63b8ff" stroke="#63b8ff" points="258.49,-32.65 255.17,-22.59 251.49,-32.53 258.49,-32.65"/>
</a>
</g>
</g>
<!-- Node8&#45;&gt;Node7 -->
<g id="edge10_Node000008_Node000007" class="edge">
<title>Node8&#45;&gt;Node7</title>
<g id="a_edge10_Node000008_Node000007"><a xlink:title=" ">
<path fill="none" stroke="#63b8ff" d="M272.07,-56.34C287,-48.08 308.61,-36.13 325.8,-26.63"/>
<polygon fill="#63b8ff" stroke="#63b8ff" points="327.45,-29.71 334.5,-21.81 324.06,-23.59 327.45,-29.71"/>
</a>
</g>
</g>
<!-- Node9&#45;&gt;Node2 -->
<g id="edge13_Node000009_Node000002" class="edge">
<title>Node9&#45;&gt;Node2</title>
<g id="a_edge13_Node000009_Node000002"><a xlink:title=" ">
<path fill="none" stroke="#63b8ff" d="M71.54,-56.34C63.96,-48.78 53.26,-38.14 44.18,-29.1"/>
<polygon fill="#63b8ff" stroke="#63b8ff" points="46.75,-26.72 37.2,-22.15 41.81,-31.68 46.75,-26.72"/>
</a>
</g>
</g>
</g>
</svg>
