<?xml version="1.0" encoding="UTF-8" standalone="no"?>
<!DOCTYPE svg PUBLIC "-//W3C//DTD SVG 1.1//EN"
 "http://www.w3.org/Graphics/SVG/1.1/DTD/svg11.dtd">
<!-- Generated by graphviz version 12.1.1 (0)
 -->
<!-- Title: core/lib/include/kernel_defines.h Pages: 1 -->
<svg width="367pt" height="212pt"
 viewBox="0.00 0.00 367.00 211.75" xmlns="http://www.w3.org/2000/svg" xmlns:xlink="http://www.w3.org/1999/xlink">
<g id="graph0" class="graph" transform="scale(1 1) rotate(0) translate(4 207.75)">
<title>core/lib/include/kernel_defines.h</title>
<!-- Node1 -->
<g id="Node000001" class="node">
<title>Node1</title>
<g id="a_Node000001"><a xlink:title="Common macros and compiler attributes/pragmas configuration.">
<polygon fill="#999999" stroke="#666666" points="195.12,-203.75 71.88,-203.75 71.88,-170.25 195.12,-170.25 195.12,-203.75"/>
<text text-anchor="start" x="79.88" y="-190.25" font-family="Helvetica,sans-Serif" font-size="10.00">core/lib/include/kernel</text>
<text text-anchor="middle" x="133.5" y="-177.5" font-family="Helvetica,sans-Serif" font-size="10.00">_defines.h</text>
</a>
</g>
</g>
<!-- Node2 -->
<g id="Node000002" class="node">
<title>Node2</title>
<g id="a_Node000002"><a xlink:href="modules_8h.html" target="_top" xlink:title="Common macros and compiler attributes/pragmas configuration.">
<polygon fill="white" stroke="#666666" points="67,-134.25 0,-134.25 0,-113.5 67,-113.5 67,-134.25"/>
<text text-anchor="middle" x="33.5" y="-120.75" font-family="Helvetica,sans-Serif" font-size="10.00">modules.h</text>
</a>
</g>
</g>
<!-- Node1&#45;&gt;Node2 -->
<g id="edge1_Node000001_Node000002" class="edge">
<title>Node1&#45;&gt;Node2</title>
<g id="a_edge1_Node000001_Node000002"><a xlink:title=" ">
<path fill="none" stroke="#63b8ff" d="M106.96,-169.78C92.11,-160.7 73.68,-149.43 58.99,-140.46"/>
<polygon fill="#63b8ff" stroke="#63b8ff" points="61.17,-137.68 50.81,-135.45 57.51,-143.66 61.17,-137.68"/>
</a>
</g>
</g>
<!-- Node3 -->
<g id="Node000003" class="node">
<title>Node3</title>
<g id="a_Node000003"><a xlink:href="riot__version_8h.html" target="_top" xlink:title="Common macros and compiler attributes/pragmas configuration.">
<polygon fill="white" stroke="#666666" points="135.88,-77.5 53.12,-77.5 53.12,-56.75 135.88,-56.75 135.88,-77.5"/>
<text text-anchor="middle" x="94.5" y="-64" font-family="Helvetica,sans-Serif" font-size="10.00">riot_version.h</text>
</a>
</g>
</g>
<!-- Node1&#45;&gt;Node3 -->
<g id="edge2_Node000001_Node000003" class="edge">
<title>Node1&#45;&gt;Node3</title>
<g id="a_edge2_Node000001_Node000003"><a xlink:title=" ">
<path fill="none" stroke="#63b8ff" d="M127.87,-170.18C124.27,-159.96 119.52,-146.34 115.5,-134.25 110.38,-118.85 104.83,-101.34 100.72,-88.21"/>
<polygon fill="#63b8ff" stroke="#63b8ff" points="104.17,-87.52 97.86,-79.01 97.49,-89.6 104.17,-87.52"/>
</a>
</g>
</g>
<!-- Node5 -->
<g id="Node000005" class="node">
<title>Node5</title>
<g id="a_Node000005"><a xlink:href="compiler__hints_8h.html" target="_top" xlink:title="Common macros and compiler attributes/pragmas configuration.">
<polygon fill="white" stroke="#666666" points="221,-134.25 124,-134.25 124,-113.5 221,-113.5 221,-134.25"/>
<text text-anchor="middle" x="172.5" y="-120.75" font-family="Helvetica,sans-Serif" font-size="10.00">compiler_hints.h</text>
</a>
</g>
</g>
<!-- Node1&#45;&gt;Node5 -->
<g id="edge4_Node000001_Node000005" class="edge">
<title>Node1&#45;&gt;Node5</title>
<g id="a_edge4_Node000001_Node000005"><a xlink:title=" ">
<path fill="none" stroke="#63b8ff" d="M143.75,-169.94C148.76,-162.08 154.84,-152.56 160.11,-144.29"/>
<polygon fill="#63b8ff" stroke="#63b8ff" points="162.98,-146.31 165.41,-135.99 157.08,-142.54 162.98,-146.31"/>
</a>
</g>
</g>
<!-- Node7 -->
<g id="Node000007" class="node">
<title>Node7</title>
<g id="a_Node000007"><a xlink:href="container_8h.html" target="_top" xlink:title="Common macros and compiler attributes/pragmas configuration.">
<polygon fill="white" stroke="#666666" points="310.88,-134.25 240.12,-134.25 240.12,-113.5 310.88,-113.5 310.88,-134.25"/>
<text text-anchor="middle" x="275.5" y="-120.75" font-family="Helvetica,sans-Serif" font-size="10.00">container.h</text>
</a>
</g>
</g>
<!-- Node1&#45;&gt;Node7 -->
<g id="edge8_Node000001_Node000007" class="edge">
<title>Node1&#45;&gt;Node7</title>
<g id="a_edge8_Node000001_Node000007"><a xlink:title=" ">
<path fill="none" stroke="#63b8ff" d="M171.18,-169.78C193.29,-160.26 220.98,-148.35 242.27,-139.18"/>
<polygon fill="#63b8ff" stroke="#63b8ff" points="243.57,-142.43 251.37,-135.26 240.8,-136 243.57,-142.43"/>
</a>
</g>
</g>
<!-- Node4 -->
<g id="Node000004" class="node">
<title>Node4</title>
<g id="a_Node000004"><a xlink:title=" ">
<polygon fill="#e0e0e0" stroke="#999999" points="217.88,-20.75 165.12,-20.75 165.12,0 217.88,0 217.88,-20.75"/>
<text text-anchor="middle" x="191.5" y="-7.25" font-family="Helvetica,sans-Serif" font-size="10.00">stdint.h</text>
</a>
</g>
</g>
<!-- Node3&#45;&gt;Node4 -->
<g id="edge3_Node000003_Node000004" class="edge">
<title>Node3&#45;&gt;Node4</title>
<g id="a_edge3_Node000003_Node000004"><a xlink:title=" ">
<path fill="none" stroke="#63b8ff" d="M111.84,-56.34C126.46,-48.08 147.64,-36.13 164.48,-26.63"/>
<polygon fill="#63b8ff" stroke="#63b8ff" points="166,-29.79 172.99,-21.82 162.56,-23.69 166,-29.79"/>
</a>
</g>
</g>
<!-- Node5&#45;&gt;Node4 -->
<g id="edge7_Node000005_Node000004" class="edge">
<title>Node5&#45;&gt;Node4</title>
<g id="a_edge7_Node000005_Node000004"><a xlink:title=" ">
<path fill="none" stroke="#63b8ff" d="M174.11,-113.01C176.23,-100.08 180.08,-76.71 183.5,-56.75 184.87,-48.77 186.4,-40.02 187.76,-32.34"/>
<polygon fill="#63b8ff" stroke="#63b8ff" points="191.19,-33.06 189.49,-22.6 184.3,-31.83 191.19,-33.06"/>
</a>
</g>
</g>
<!-- Node6 -->
<g id="Node000006" class="node">
<title>Node6</title>
<g id="a_Node000006"><a xlink:href="assert_8h.html" target="_top" xlink:title="POSIX.1&#45;2008 compliant version of the assert macro.">
<polygon fill="white" stroke="#666666" points="247,-77.5 192,-77.5 192,-56.75 247,-56.75 247,-77.5"/>
<text text-anchor="middle" x="219.5" y="-64" font-family="Helvetica,sans-Serif" font-size="10.00">assert.h</text>
</a>
</g>
</g>
<!-- Node5&#45;&gt;Node6 -->
<g id="edge5_Node000005_Node000006" class="edge">
<title>Node5&#45;&gt;Node6</title>
<g id="a_edge5_Node000005_Node000006"><a xlink:title=" ">
<path fill="none" stroke="#63b8ff" d="M180.9,-113.09C187.25,-105.69 196.15,-95.32 203.8,-86.41"/>
<polygon fill="#63b8ff" stroke="#63b8ff" points="206.33,-88.84 210.18,-78.98 201.01,-84.28 206.33,-88.84"/>
</a>
</g>
</g>
<!-- Node6&#45;&gt;Node4 -->
<g id="edge6_Node000006_Node000004" class="edge">
<title>Node6&#45;&gt;Node4</title>
<g id="a_edge6_Node000006_Node000004"><a xlink:title=" ">
<path fill="none" stroke="#63b8ff" d="M214.49,-56.34C210.91,-49.33 205.96,-39.66 201.58,-31.08"/>
<polygon fill="#63b8ff" stroke="#63b8ff" points="204.82,-29.74 197.15,-22.43 198.59,-32.92 204.82,-29.74"/>
</a>
</g>
</g>
<!-- Node7&#45;&gt;Node4 -->
<g id="edge10_Node000007_Node000004" class="edge">
<title>Node7&#45;&gt;Node4</title>
<g id="a_edge10_Node000007_Node000004"><a xlink:title=" ">
<path fill="none" stroke="#63b8ff" d="M274.73,-113.02C273.22,-99.26 268.86,-74.05 256.5,-56.75 247.75,-44.5 234.61,-34.44 222.43,-26.93"/>
<polygon fill="#63b8ff" stroke="#63b8ff" points="224.26,-23.95 213.85,-21.98 220.77,-30.01 224.26,-23.95"/>
</a>
</g>
</g>
<!-- Node8 -->
<g id="Node000008" class="node">
<title>Node8</title>
<g id="a_Node000008"><a xlink:title=" ">
<polygon fill="#e0e0e0" stroke="#999999" points="359,-77.5 304,-77.5 304,-56.75 359,-56.75 359,-77.5"/>
<text text-anchor="middle" x="331.5" y="-64" font-family="Helvetica,sans-Serif" font-size="10.00">stddef.h</text>
</a>
</g>
</g>
<!-- Node7&#45;&gt;Node8 -->
<g id="edge9_Node000007_Node000008" class="edge">
<title>Node7&#45;&gt;Node8</title>
<g id="a_edge9_Node000007_Node000008"><a xlink:title=" ">
<path fill="none" stroke="#63b8ff" d="M285.51,-113.09C293.24,-105.53 304.13,-94.89 313.37,-85.85"/>
<polygon fill="#63b8ff" stroke="#63b8ff" points="315.79,-88.38 320.49,-78.89 310.9,-83.37 315.79,-88.38"/>
</a>
</g>
</g>
</g>
</svg>
