<?xml version="1.0" encoding="UTF-8" standalone="no"?>
<!DOCTYPE svg PUBLIC "-//W3C//DTD SVG 1.1//EN"
 "http://www.w3.org/Graphics/SVG/1.1/DTD/svg11.dtd">
<!-- Generated by graphviz version 12.1.1 (0)
 -->
<!-- Title: cpu/kinetis/include/cpu_conf.h Pages: 1 -->
<svg width="193pt" height="212pt"
 viewBox="0.00 0.00 192.62 211.75" xmlns="http://www.w3.org/2000/svg" xmlns:xlink="http://www.w3.org/1999/xlink">
<g id="graph0" class="graph" transform="scale(1 1) rotate(0) translate(4 207.75)">
<title>cpu/kinetis/include/cpu_conf.h</title>
<!-- Node1 -->
<g id="Node000001" class="node">
<title>Node1</title>
<g id="a_Node000001"><a xlink:title="Implementation specific CPU configuration options.">
<polygon fill="#999999" stroke="#666666" points="162,-203.75 54.5,-203.75 54.5,-170.25 162,-170.25 162,-203.75"/>
<text text-anchor="start" x="62.5" y="-190.25" font-family="Helvetica,sans-Serif" font-size="10.00">cpu/kinetis/include</text>
<text text-anchor="middle" x="108.25" y="-177.5" font-family="Helvetica,sans-Serif" font-size="10.00">/cpu_conf.h</text>
</a>
</g>
</g>
<!-- Node2 -->
<g id="Node000002" class="node">
<title>Node2</title>
<g id="a_Node000002"><a xlink:href="cpu__conf__kinetis_8h.html" target="_top" xlink:title="CPU specific definitions common to all Kinetis CPUs.">
<polygon fill="white" stroke="#666666" points="161.62,-134.25 54.88,-134.25 54.88,-113.5 161.62,-113.5 161.62,-134.25"/>
<text text-anchor="middle" x="108.25" y="-120.75" font-family="Helvetica,sans-Serif" font-size="10.00">cpu_conf_kinetis.h</text>
</a>
</g>
</g>
<!-- Node1&#45;&gt;Node2 -->
<g id="edge1_Node000001_Node000002" class="edge">
<title>Node1&#45;&gt;Node2</title>
<g id="a_edge1_Node000001_Node000002"><a xlink:title=" ">
<path fill="none" stroke="#63b8ff" d="M108.25,-169.94C108.25,-162.6 108.25,-153.82 108.25,-145.96"/>
<polygon fill="#63b8ff" stroke="#63b8ff" points="111.75,-146.23 108.25,-136.23 104.75,-146.23 111.75,-146.23"/>
</a>
</g>
</g>
<!-- Node3 -->
<g id="Node000003" class="node">
<title>Node3</title>
<g id="a_Node000003"><a xlink:title=" ">
<polygon fill="#e0e0e0" stroke="#999999" points="116.5,-77.5 0,-77.5 0,-56.75 116.5,-56.75 116.5,-77.5"/>
<text text-anchor="middle" x="58.25" y="-64" font-family="Helvetica,sans-Serif" font-size="10.00">cpu_conf_common.h</text>
</a>
</g>
</g>
<!-- Node2&#45;&gt;Node3 -->
<g id="edge2_Node000002_Node000003" class="edge">
<title>Node2&#45;&gt;Node3</title>
<g id="a_edge2_Node000002_Node000003"><a xlink:title=" ">
<path fill="none" stroke="#63b8ff" d="M99.31,-113.09C92.49,-105.61 82.89,-95.11 74.69,-86.13"/>
<polygon fill="#63b8ff" stroke="#63b8ff" points="77.46,-83.97 68.13,-78.95 72.29,-88.69 77.46,-83.97"/>
</a>
</g>
</g>
<!-- Node4 -->
<g id="Node000004" class="node">
<title>Node4</title>
<g id="a_Node000004"><a xlink:href="bme_8h.html" target="_top" xlink:title="Macro definitions for the Kinetis Bit Manipulation Engine (BME)">
<polygon fill="white" stroke="#666666" points="181.62,-77.5 134.88,-77.5 134.88,-56.75 181.62,-56.75 181.62,-77.5"/>
<text text-anchor="middle" x="158.25" y="-64" font-family="Helvetica,sans-Serif" font-size="10.00">bme.h</text>
</a>
</g>
</g>
<!-- Node2&#45;&gt;Node4 -->
<g id="edge3_Node000002_Node000004" class="edge">
<title>Node2&#45;&gt;Node4</title>
<g id="a_edge3_Node000002_Node000004"><a xlink:title=" ">
<path fill="none" stroke="#63b8ff" d="M117.19,-113.09C124.01,-105.61 133.61,-95.11 141.81,-86.13"/>
<polygon fill="#63b8ff" stroke="#63b8ff" points="144.21,-88.69 148.37,-78.95 139.04,-83.97 144.21,-88.69"/>
</a>
</g>
</g>
<!-- Node5 -->
<g id="Node000005" class="node">
<title>Node5</title>
<g id="a_Node000005"><a xlink:title=" ">
<polygon fill="#e0e0e0" stroke="#999999" points="184.62,-20.75 131.88,-20.75 131.88,0 184.62,0 184.62,-20.75"/>
<text text-anchor="middle" x="158.25" y="-7.25" font-family="Helvetica,sans-Serif" font-size="10.00">stdint.h</text>
</a>
</g>
</g>
<!-- Node4&#45;&gt;Node5 -->
<g id="edge4_Node000004_Node000005" class="edge">
<title>Node4&#45;&gt;Node5</title>
<g id="a_edge4_Node000004_Node000005"><a xlink:title=" ">
<path fill="none" stroke="#63b8ff" d="M158.25,-56.34C158.25,-49.72 158.25,-40.72 158.25,-32.52"/>
<polygon fill="#63b8ff" stroke="#63b8ff" points="161.75,-32.59 158.25,-22.59 154.75,-32.59 161.75,-32.59"/>
</a>
</g>
</g>
</g>
</svg>
