<?xml version="1.0" encoding="UTF-8" standalone="no"?>
<!DOCTYPE svg PUBLIC "-//W3C//DTD SVG 1.1//EN"
 "http://www.w3.org/Graphics/SVG/1.1/DTD/svg11.dtd">
<!-- Generated by graphviz version 12.1.1 (0)
 -->
<!-- Title: drivers/include/kw2xrf.h Pages: 1 -->
<svg width="456pt" height="168pt"
 viewBox="0.00 0.00 455.75 167.75" xmlns="http://www.w3.org/2000/svg" xmlns:xlink="http://www.w3.org/1999/xlink">
<g id="graph0" class="graph" transform="scale(1 1) rotate(0) translate(4 163.75)">
<title>drivers/include/kw2xrf.h</title>
<!-- Node1 -->
<g id="Node000001" class="node">
<title>Node1</title>
<g id="a_Node000001"><a xlink:title="Interface definition for the kw2xrf driver.">
<polygon fill="#999999" stroke="#666666" points="263.88,-159.75 130.88,-159.75 130.88,-139 263.88,-139 263.88,-159.75"/>
<text text-anchor="middle" x="197.38" y="-146.25" font-family="Helvetica,sans-Serif" font-size="10.00">drivers/include/kw2xrf.h</text>
</a>
</g>
</g>
<!-- Node2 -->
<g id="Node000002" class="node">
<title>Node2</title>
<g id="a_Node000002"><a xlink:href="kw2xrf__getset_8h.html" target="_top" xlink:title="get/set interfaces for kw2xrf driver">
<polygon fill="white" stroke="#666666" points="124.75,-103 0,-103 0,-69.5 124.75,-69.5 124.75,-103"/>
<text text-anchor="start" x="8" y="-89.5" font-family="Helvetica,sans-Serif" font-size="10.00">drivers/kw2xrf/include</text>
<text text-anchor="middle" x="62.38" y="-76.75" font-family="Helvetica,sans-Serif" font-size="10.00">/kw2xrf_getset.h</text>
</a>
</g>
</g>
<!-- Node1&#45;&gt;Node2 -->
<g id="edge1_Node000001_Node000002" class="edge">
<title>Node1&#45;&gt;Node2</title>
<g id="a_edge1_Node000001_Node000002"><a xlink:title=" ">
<path fill="none" stroke="#63b8ff" d="M165.44,-133.92C145.26,-124.78 119.13,-112.95 98.23,-103.48"/>
<polygon fill="#63b8ff" stroke="#63b8ff" points="163.75,-136.99 174.31,-137.93 166.64,-130.62 163.75,-136.99"/>
</a>
</g>
</g>
<!-- Node3 -->
<g id="Node000003" class="node">
<title>Node3</title>
<g id="a_Node000003"><a xlink:href="kw2xrf__tm_8h.html" target="_top" xlink:title="Testing interfaces for kw2xrf driver.">
<polygon fill="white" stroke="#666666" points="169.75,-33.5 45,-33.5 45,0 169.75,0 169.75,-33.5"/>
<text text-anchor="start" x="53" y="-20" font-family="Helvetica,sans-Serif" font-size="10.00">drivers/kw2xrf/include</text>
<text text-anchor="middle" x="107.38" y="-7.25" font-family="Helvetica,sans-Serif" font-size="10.00">/kw2xrf_tm.h</text>
</a>
</g>
</g>
<!-- Node1&#45;&gt;Node3 -->
<g id="edge5_Node000001_Node000003" class="edge">
<title>Node1&#45;&gt;Node3</title>
<g id="a_edge5_Node000001_Node000003"><a xlink:title=" ">
<path fill="none" stroke="#63b8ff" d="M184.08,-129.08C166.23,-103.18 134.87,-57.66 118.32,-33.63"/>
<polygon fill="#63b8ff" stroke="#63b8ff" points="181.2,-131.06 189.75,-137.31 186.96,-127.09 181.2,-131.06"/>
</a>
</g>
</g>
<!-- Node4 -->
<g id="Node000004" class="node">
<title>Node4</title>
<g id="a_Node000004"><a xlink:href="kw2xrf__intern_8h.html" target="_top" xlink:title="Internal function interfaces for kw2xrf driver.">
<polygon fill="white" stroke="#666666" points="304.75,-103 180,-103 180,-69.5 304.75,-69.5 304.75,-103"/>
<text text-anchor="start" x="188" y="-89.5" font-family="Helvetica,sans-Serif" font-size="10.00">drivers/kw2xrf/include</text>
<text text-anchor="middle" x="242.38" y="-76.75" font-family="Helvetica,sans-Serif" font-size="10.00">/kw2xrf_intern.h</text>
</a>
</g>
</g>
<!-- Node1&#45;&gt;Node4 -->
<g id="edge3_Node000001_Node000004" class="edge">
<title>Node1&#45;&gt;Node4</title>
<g id="a_edge3_Node000001_Node000004"><a xlink:title=" ">
<path fill="none" stroke="#63b8ff" d="M211.41,-129.31C217.51,-121.02 224.58,-111.42 230.42,-103.48"/>
<polygon fill="#63b8ff" stroke="#63b8ff" points="208.61,-127.21 205.5,-137.34 214.25,-131.36 208.61,-127.21"/>
</a>
</g>
</g>
<!-- Node5 -->
<g id="Node000005" class="node">
<title>Node5</title>
<g id="a_Node000005"><a xlink:href="kw2xrf__params_8h.html" target="_top" xlink:title="Default configuration for the KW2XRF driver.">
<polygon fill="white" stroke="#666666" points="447.75,-103 323,-103 323,-69.5 447.75,-69.5 447.75,-103"/>
<text text-anchor="start" x="331" y="-89.5" font-family="Helvetica,sans-Serif" font-size="10.00">drivers/kw2xrf/include</text>
<text text-anchor="middle" x="385.38" y="-76.75" font-family="Helvetica,sans-Serif" font-size="10.00">/kw2xrf_params.h</text>
</a>
</g>
</g>
<!-- Node1&#45;&gt;Node5 -->
<g id="edge4_Node000001_Node000005" class="edge">
<title>Node1&#45;&gt;Node5</title>
<g id="a_edge4_Node000001_Node000005"><a xlink:title=" ">
<path fill="none" stroke="#63b8ff" d="M238.39,-135.04C266.93,-125.76 305.13,-113.34 335.44,-103.48"/>
<polygon fill="#63b8ff" stroke="#63b8ff" points="237.45,-131.67 229.02,-138.09 239.61,-138.32 237.45,-131.67"/>
</a>
</g>
</g>
<!-- Node2&#45;&gt;Node3 -->
<g id="edge2_Node000002_Node000003" class="edge">
<title>Node2&#45;&gt;Node3</title>
<g id="a_edge2_Node000002_Node000003"><a xlink:title=" ">
<path fill="none" stroke="#63b8ff" d="M79.33,-59.81C85.19,-51.02 91.59,-41.43 96.79,-33.63"/>
<polygon fill="#63b8ff" stroke="#63b8ff" points="76.51,-57.73 73.88,-67.99 82.34,-61.62 76.51,-57.73"/>
</a>
</g>
</g>
</g>
</svg>
