<?xml version="1.0" encoding="UTF-8" standalone="no"?>
<!DOCTYPE svg PUBLIC "-//W3C//DTD SVG 1.1//EN"
 "http://www.w3.org/Graphics/SVG/1.1/DTD/svg11.dtd">
<!-- Generated by graphviz version 12.1.1 (0)
 -->
<!-- Title: drivers/include/kw41zrf.h Pages: 1 -->
<svg width="188pt" height="168pt"
 viewBox="0.00 0.00 188.12 167.75" xmlns="http://www.w3.org/2000/svg" xmlns:xlink="http://www.w3.org/1999/xlink">
<g id="graph0" class="graph" transform="scale(1 1) rotate(0) translate(4 163.75)">
<title>drivers/include/kw41zrf.h</title>
<!-- Node1 -->
<g id="Node000001" class="node">
<title>Node1</title>
<g id="a_Node000001"><a xlink:title="Interface definition for the kw41zrf driver.">
<polygon fill="#999999" stroke="#666666" points="180.12,-159.75 41.88,-159.75 41.88,-139 180.12,-139 180.12,-159.75"/>
<text text-anchor="middle" x="111" y="-146.25" font-family="Helvetica,sans-Serif" font-size="10.00">drivers/include/kw41zrf.h</text>
</a>
</g>
</g>
<!-- Node2 -->
<g id="Node000002" class="node">
<title>Node2</title>
<g id="a_Node000002"><a xlink:href="kw41zrf__getset_8h.html" target="_top" xlink:title="get/set interfaces for kw41zrf driver">
<polygon fill="white" stroke="#666666" points="130,-103 0,-103 0,-69.5 130,-69.5 130,-103"/>
<text text-anchor="start" x="8" y="-89.5" font-family="Helvetica,sans-Serif" font-size="10.00">drivers/kw41zrf/include</text>
<text text-anchor="middle" x="65" y="-76.75" font-family="Helvetica,sans-Serif" font-size="10.00">/kw41zrf_getset.h</text>
</a>
</g>
</g>
<!-- Node1&#45;&gt;Node2 -->
<g id="edge1_Node000001_Node000002" class="edge">
<title>Node1&#45;&gt;Node2</title>
<g id="a_edge1_Node000001_Node000002"><a xlink:title=" ">
<path fill="none" stroke="#63b8ff" d="M96.85,-129.58C90.57,-121.23 83.26,-111.51 77.22,-103.48"/>
<polygon fill="#63b8ff" stroke="#63b8ff" points="93.89,-131.46 102.7,-137.34 99.48,-127.25 93.89,-131.46"/>
</a>
</g>
</g>
<!-- Node3 -->
<g id="Node000003" class="node">
<title>Node3</title>
<g id="a_Node000003"><a xlink:href="kw41zrf__intern_8h.html" target="_top" xlink:title="Internal function interfaces for kw41zrf driver.">
<polygon fill="white" stroke="#666666" points="176,-33.5 46,-33.5 46,0 176,0 176,-33.5"/>
<text text-anchor="start" x="54" y="-20" font-family="Helvetica,sans-Serif" font-size="10.00">drivers/kw41zrf/include</text>
<text text-anchor="middle" x="111" y="-7.25" font-family="Helvetica,sans-Serif" font-size="10.00">/kw41zrf_intern.h</text>
</a>
</g>
</g>
<!-- Node1&#45;&gt;Node3 -->
<g id="edge3_Node000001_Node000003" class="edge">
<title>Node1&#45;&gt;Node3</title>
<g id="a_edge3_Node000001_Node000003"><a xlink:title=" ">
<path fill="none" stroke="#63b8ff" d="M125.86,-129.55C131.09,-121.79 136.33,-112.41 139,-103 143.06,-88.68 142.65,-83.93 139,-69.5 135.74,-56.63 128.57,-43.48 122.3,-33.66"/>
<polygon fill="#63b8ff" stroke="#63b8ff" points="123.15,-127.33 120.1,-137.47 128.81,-131.44 123.15,-127.33"/>
</a>
</g>
</g>
<!-- Node2&#45;&gt;Node3 -->
<g id="edge2_Node000002_Node000003" class="edge">
<title>Node2&#45;&gt;Node3</title>
<g id="a_edge2_Node000002_Node000003"><a xlink:title=" ">
<path fill="none" stroke="#63b8ff" d="M82.34,-59.81C88.33,-51.02 94.86,-41.43 100.18,-33.63"/>
<polygon fill="#63b8ff" stroke="#63b8ff" points="79.49,-57.77 76.75,-68 85.28,-61.71 79.49,-57.77"/>
</a>
</g>
</g>
</g>
</svg>
