<?xml version="1.0" encoding="UTF-8" standalone="no"?>
<!DOCTYPE svg PUBLIC "-//W3C//DTD SVG 1.1//EN"
 "http://www.w3.org/Graphics/SVG/1.1/DTD/svg11.dtd">
<!-- Generated by graphviz version 12.1.1 (0)
 -->
<!-- Title: sys/include/net/l2scan_list.h Pages: 1 -->
<svg width="163pt" height="181pt"
 viewBox="0.00 0.00 163.38 180.50" xmlns="http://www.w3.org/2000/svg" xmlns:xlink="http://www.w3.org/1999/xlink">
<g id="graph0" class="graph" transform="scale(1 1) rotate(0) translate(4 176.5)">
<title>sys/include/net/l2scan_list.h</title>
<!-- Node1 -->
<g id="Node000001" class="node">
<title>Node1</title>
<g id="a_Node000001"><a xlink:title="L2 Scan list API.">
<polygon fill="#999999" stroke="#666666" points="155.38,-172.5 31.38,-172.5 31.38,-139 155.38,-139 155.38,-172.5"/>
<text text-anchor="start" x="39.38" y="-159" font-family="Helvetica,sans-Serif" font-size="10.00">sys/include/net/l2scan</text>
<text text-anchor="middle" x="93.38" y="-146.25" font-family="Helvetica,sans-Serif" font-size="10.00">_list.h</text>
</a>
</g>
</g>
<!-- Node2 -->
<g id="Node000002" class="node">
<title>Node2</title>
<g id="a_Node000002"><a xlink:href="drivers_2include_2net_2netdev_2wifi_8h.html" target="_top" xlink:title="Definitions for netdev common Wi&#45;Fi code.">
<polygon fill="white" stroke="#666666" points="106.75,-103 0,-103 0,-69.5 106.75,-69.5 106.75,-103"/>
<text text-anchor="start" x="8" y="-89.5" font-family="Helvetica,sans-Serif" font-size="10.00">drivers/include/net</text>
<text text-anchor="middle" x="53.38" y="-76.75" font-family="Helvetica,sans-Serif" font-size="10.00">/netdev/wifi.h</text>
</a>
</g>
</g>
<!-- Node1&#45;&gt;Node2 -->
<g id="edge1_Node000001_Node000002" class="edge">
<title>Node1&#45;&gt;Node2</title>
<g id="a_edge1_Node000001_Node000002"><a xlink:title=" ">
<path fill="none" stroke="#63b8ff" d="M78.13,-129.03C72.97,-120.32 67.36,-110.85 62.79,-103.13"/>
<polygon fill="#63b8ff" stroke="#63b8ff" points="75.01,-130.63 83.12,-137.45 81.04,-127.06 75.01,-130.63"/>
</a>
</g>
</g>
<!-- Node3 -->
<g id="Node000003" class="node">
<title>Node3</title>
<g id="a_Node000003"><a xlink:href="wifi__scan__list_8h.html" target="_top" xlink:title="Thin wrapper around l2scan list to support WiFi scan results.">
<polygon fill="white" stroke="#666666" points="148.62,-33.5 38.12,-33.5 38.12,0 148.62,0 148.62,-33.5"/>
<text text-anchor="start" x="46.12" y="-20" font-family="Helvetica,sans-Serif" font-size="10.00">sys/include/net/wifi</text>
<text text-anchor="middle" x="93.38" y="-7.25" font-family="Helvetica,sans-Serif" font-size="10.00">_scan_list.h</text>
</a>
</g>
</g>
<!-- Node1&#45;&gt;Node3 -->
<g id="edge3_Node000001_Node000003" class="edge">
<title>Node1&#45;&gt;Node3</title>
<g id="a_edge3_Node000001_Node000003"><a xlink:title=" ">
<path fill="none" stroke="#63b8ff" d="M107.11,-128.11C110.5,-120.24 113.65,-111.45 115.38,-103 118.35,-88.41 118.35,-84.09 115.38,-69.5 112.84,-57.06 107.21,-43.91 102.28,-33.98"/>
<polygon fill="#63b8ff" stroke="#63b8ff" points="103.95,-126.6 102.91,-137.15 110.3,-129.55 103.95,-126.6"/>
</a>
</g>
</g>
<!-- Node2&#45;&gt;Node3 -->
<g id="edge2_Node000002_Node000003" class="edge">
<title>Node2&#45;&gt;Node3</title>
<g id="a_edge2_Node000002_Node000003"><a xlink:title=" ">
<path fill="none" stroke="#63b8ff" d="M68.62,-59.53C73.78,-50.82 79.39,-41.35 83.96,-33.63"/>
<polygon fill="#63b8ff" stroke="#63b8ff" points="65.71,-57.56 63.63,-67.95 71.74,-61.13 65.71,-57.56"/>
</a>
</g>
</g>
</g>
</svg>
