<?xml version="1.0" encoding="UTF-8" standalone="no"?>
<!DOCTYPE svg PUBLIC "-//W3C//DTD SVG 1.1//EN"
 "http://www.w3.org/Graphics/SVG/1.1/DTD/svg11.dtd">
<!-- Generated by graphviz version 12.1.1 (0)
 -->
<!-- Title: drivers/include/l3gxxxx.h Pages: 1 -->
<svg width="1412pt" height="483pt"
 viewBox="0.00 0.00 1411.60 482.75" xmlns="http://www.w3.org/2000/svg" xmlns:xlink="http://www.w3.org/1999/xlink">
<g id="graph0" class="graph" transform="scale(1 1) rotate(0) translate(4 478.75)">
<title>drivers/include/l3gxxxx.h</title>
<!-- Node1 -->
<g id="Node000001" class="node">
<title>Node1</title>
<g id="a_Node000001"><a xlink:title="Device Driver for ST L3Gxxxx 3&#45;axis gyroscope sensor family.">
<polygon fill="#999999" stroke="#666666" points="1166.97,-474.75 1027.97,-474.75 1027.97,-454 1166.97,-454 1166.97,-474.75"/>
<text text-anchor="middle" x="1097.47" y="-461.25" font-family="Helvetica,sans-Serif" font-size="10.00">drivers/include/l3gxxxx.h</text>
</a>
</g>
</g>
<!-- Node2 -->
<g id="Node000002" class="node">
<title>Node2</title>
<g id="a_Node000002"><a xlink:title=" ">
<polygon fill="#e0e0e0" stroke="#999999" points="402.97,-134.25 341.97,-134.25 341.97,-113.5 402.97,-113.5 402.97,-134.25"/>
<text text-anchor="middle" x="372.47" y="-120.75" font-family="Helvetica,sans-Serif" font-size="10.00">stdbool.h</text>
</a>
</g>
</g>
<!-- Node1&#45;&gt;Node2 -->
<g id="edge1_Node000001_Node000002" class="edge">
<title>Node1&#45;&gt;Node2</title>
<g id="a_edge1_Node000001_Node000002"><a xlink:title=" ">
<path fill="none" stroke="#63b8ff" d="M1027.67,-462.5C849.57,-459.09 383.36,-442.44 255.47,-361.25 183.45,-315.53 171.79,-225.87 236.47,-170.25 250.86,-157.88 296.37,-144.14 330.81,-135.06"/>
<polygon fill="#63b8ff" stroke="#63b8ff" points="331.28,-138.55 340.09,-132.66 329.53,-131.78 331.28,-138.55"/>
</a>
</g>
</g>
<!-- Node3 -->
<g id="Node000003" class="node">
<title>Node3</title>
<g id="a_Node000003"><a xlink:title=" ">
<polygon fill="#e0e0e0" stroke="#999999" points="708.85,-20.75 656.1,-20.75 656.1,0 708.85,0 708.85,-20.75"/>
<text text-anchor="middle" x="682.47" y="-7.25" font-family="Helvetica,sans-Serif" font-size="10.00">stdint.h</text>
</a>
</g>
</g>
<!-- Node1&#45;&gt;Node3 -->
<g id="edge2_Node000001_Node000003" class="edge">
<title>Node1&#45;&gt;Node3</title>
<g id="a_edge2_Node000001_Node000003"><a xlink:title=" ">
<path fill="none" stroke="#63b8ff" d="M1157.73,-453.53C1212.72,-440.7 1285.47,-412.31 1285.47,-351.88 1285.47,-351.88 1285.47,-351.88 1285.47,-122.88 1285.47,-90.96 1283.37,-75.41 1257.47,-56.75 1214.04,-25.44 841.83,-14.78 720.52,-12.11"/>
<polygon fill="#63b8ff" stroke="#63b8ff" points="720.85,-8.62 710.78,-11.91 720.7,-15.62 720.85,-8.62"/>
</a>
</g>
</g>
<!-- Node4 -->
<g id="Node000004" class="node">
<title>Node4</title>
<g id="a_Node000004"><a xlink:href="mutex_8h.html" target="_top" xlink:title="Mutex for thread synchronization.">
<polygon fill="white" stroke="#666666" points="694.72,-418 638.22,-418 638.22,-397.25 694.72,-397.25 694.72,-418"/>
<text text-anchor="middle" x="666.47" y="-404.5" font-family="Helvetica,sans-Serif" font-size="10.00">mutex.h</text>
</a>
</g>
</g>
<!-- Node1&#45;&gt;Node4 -->
<g id="edge3_Node000001_Node000004" class="edge">
<title>Node1&#45;&gt;Node4</title>
<g id="a_edge3_Node000001_Node000004"><a xlink:title=" ">
<path fill="none" stroke="#63b8ff" d="M1027.75,-454.52C936.38,-442.91 779.21,-422.95 706.06,-413.65"/>
<polygon fill="#63b8ff" stroke="#63b8ff" points="706.93,-410.24 696.57,-412.45 706.05,-417.18 706.93,-410.24"/>
</a>
</g>
</g>
<!-- Node26 -->
<g id="Node000026" class="node">
<title>Node26</title>
<g id="a_Node000026"><a xlink:href="drivers_2include_2periph_2gpio_8h.html" target="_top" xlink:title="Low&#45;level GPIO peripheral driver interface definitions.">
<polygon fill="white" stroke="#666666" points="1219.35,-134.25 1139.6,-134.25 1139.6,-113.5 1219.35,-113.5 1219.35,-134.25"/>
<text text-anchor="middle" x="1179.47" y="-120.75" font-family="Helvetica,sans-Serif" font-size="10.00">periph/gpio.h</text>
</a>
</g>
</g>
<!-- Node1&#45;&gt;Node26 -->
<g id="edge45_Node000001_Node000026" class="edge">
<title>Node1&#45;&gt;Node26</title>
<g id="a_edge45_Node000001_Node000026"><a xlink:title=" ">
<path fill="none" stroke="#63b8ff" d="M1111.21,-453.75C1134.32,-436.32 1178.47,-397.1 1178.47,-351.88 1178.47,-351.88 1178.47,-351.88 1178.47,-236.38 1178.47,-204.98 1178.88,-168.62 1179.17,-146.18"/>
<polygon fill="#63b8ff" stroke="#63b8ff" points="1182.67,-146.28 1179.31,-136.23 1175.67,-146.18 1182.67,-146.28"/>
</a>
</g>
</g>
<!-- Node29 -->
<g id="Node000029" class="node">
<title>Node29</title>
<g id="a_Node000029"><a xlink:href="i2c_8h.html" target="_top" xlink:title="Low&#45;level I2C peripheral driver interface definition.">
<polygon fill="white" stroke="#666666" points="1082.97,-134.25 1009.97,-134.25 1009.97,-113.5 1082.97,-113.5 1082.97,-134.25"/>
<text text-anchor="middle" x="1046.47" y="-120.75" font-family="Helvetica,sans-Serif" font-size="10.00">periph/i2c.h</text>
</a>
</g>
</g>
<!-- Node1&#45;&gt;Node29 -->
<g id="edge49_Node000001_Node000029" class="edge">
<title>Node1&#45;&gt;Node29</title>
<g id="a_edge49_Node000001_Node000029"><a xlink:title=" ">
<path fill="none" stroke="#63b8ff" d="M1097.47,-453.53C1097.47,-434.1 1097.47,-389.43 1097.47,-351.88 1097.47,-351.88 1097.47,-351.88 1097.47,-236.38 1097.47,-201.25 1076.29,-165.09 1061.23,-143.81"/>
<polygon fill="#63b8ff" stroke="#63b8ff" points="1064.1,-141.81 1055.34,-135.85 1058.47,-145.97 1064.1,-141.81"/>
</a>
</g>
</g>
<!-- Node30 -->
<g id="Node000030" class="node">
<title>Node30</title>
<g id="a_Node000030"><a xlink:href="spi_8h.html" target="_top" xlink:title="Low&#45;level SPI peripheral driver interface definition.">
<polygon fill="white" stroke="#666666" points="1030.97,-191 957.97,-191 957.97,-170.25 1030.97,-170.25 1030.97,-191"/>
<text text-anchor="middle" x="994.47" y="-177.5" font-family="Helvetica,sans-Serif" font-size="10.00">periph/spi.h</text>
</a>
</g>
</g>
<!-- Node1&#45;&gt;Node30 -->
<g id="edge55_Node000001_Node000030" class="edge">
<title>Node1&#45;&gt;Node30</title>
<g id="a_edge55_Node000001_Node000030"><a xlink:title=" ">
<path fill="none" stroke="#63b8ff" d="M1085.91,-453.62C1066.03,-435.69 1027.47,-395.3 1027.47,-351.88 1027.47,-351.88 1027.47,-351.88 1027.47,-293.12 1027.47,-260.1 1014,-223.75 1004.27,-201.81"/>
<polygon fill="#63b8ff" stroke="#63b8ff" points="1007.5,-200.46 1000.12,-192.85 1001.15,-203.4 1007.5,-200.46"/>
</a>
</g>
</g>
<!-- Node33 -->
<g id="Node000033" class="node">
<title>Node33</title>
<g id="a_Node000033"><a xlink:href="l3gxxxx__regs_8h.html" target="_top" xlink:title="Register definitions for ST L3Gxxxx 3&#45;axis gyroscope sensor family.">
<polygon fill="white" stroke="#666666" points="1403.6,-418 1313.35,-418 1313.35,-397.25 1403.6,-397.25 1403.6,-418"/>
<text text-anchor="middle" x="1358.47" y="-404.5" font-family="Helvetica,sans-Serif" font-size="10.00">l3gxxxx_regs.h</text>
</a>
</g>
</g>
<!-- Node1&#45;&gt;Node33 -->
<g id="edge65_Node000001_Node000033" class="edge">
<title>Node1&#45;&gt;Node33</title>
<g id="a_edge65_Node000001_Node000033"><a xlink:title=" ">
<path fill="none" stroke="#63b8ff" d="M1144.44,-453.52C1188.64,-444.25 1254.9,-430.35 1301.97,-420.48"/>
<polygon fill="#63b8ff" stroke="#63b8ff" points="1302.65,-423.91 1311.72,-418.43 1301.21,-417.06 1302.65,-423.91"/>
</a>
</g>
</g>
<!-- Node4&#45;&gt;Node2 -->
<g id="edge6_Node000004_Node000002" class="edge">
<title>Node4&#45;&gt;Node2</title>
<g id="a_edge6_Node000004_Node000002"><a xlink:title=" ">
<path fill="none" stroke="#63b8ff" d="M637.96,-405.64C539.74,-401.48 221.47,-381.34 221.47,-295.12 221.47,-295.12 221.47,-295.12 221.47,-236.38 221.47,-181.85 285.98,-150.97 330.67,-136.12"/>
<polygon fill="#63b8ff" stroke="#63b8ff" points="331.63,-139.48 340.11,-133.14 329.52,-132.81 331.63,-139.48"/>
</a>
</g>
</g>
<!-- Node4&#45;&gt;Node3 -->
<g id="edge5_Node000004_Node000003" class="edge">
<title>Node4&#45;&gt;Node3</title>
<g id="a_edge5_Node000004_Node000003"><a xlink:title=" ">
<path fill="none" stroke="#63b8ff" d="M671.04,-396.79C674.95,-387.77 680.3,-373.93 682.47,-361.25 703.53,-238.2 690.78,-87.22 684.93,-32.47"/>
<polygon fill="#63b8ff" stroke="#63b8ff" points="688.43,-32.27 683.85,-22.72 681.47,-33.05 688.43,-32.27"/>
</a>
</g>
</g>
<!-- Node5 -->
<g id="Node000005" class="node">
<title>Node5</title>
<g id="a_Node000005"><a xlink:title=" ">
<polygon fill="#e0e0e0" stroke="#999999" points="614.97,-77.5 559.97,-77.5 559.97,-56.75 614.97,-56.75 614.97,-77.5"/>
<text text-anchor="middle" x="587.47" y="-64" font-family="Helvetica,sans-Serif" font-size="10.00">stddef.h</text>
</a>
</g>
</g>
<!-- Node4&#45;&gt;Node5 -->
<g id="edge4_Node000004_Node000005" class="edge">
<title>Node4&#45;&gt;Node5</title>
<g id="a_edge4_Node000004_Node000005"><a xlink:title=" ">
<path fill="none" stroke="#63b8ff" d="M667.11,-396.94C669.24,-358.77 673.41,-215.88 625.47,-113.5 620.78,-103.47 613.3,-93.84 606.21,-86.05"/>
<polygon fill="#63b8ff" stroke="#63b8ff" points="608.79,-83.68 599.31,-78.93 603.76,-88.55 608.79,-83.68"/>
</a>
</g>
</g>
<!-- Node6 -->
<g id="Node000006" class="node">
<title>Node6</title>
<g id="a_Node000006"><a xlink:href="architecture_8h.html" target="_top" xlink:title="Platform&#45;independent access to architecture details.">
<polygon fill="white" stroke="#666666" points="844.22,-247.75 760.72,-247.75 760.72,-227 844.22,-227 844.22,-247.75"/>
<text text-anchor="middle" x="802.47" y="-234.25" font-family="Helvetica,sans-Serif" font-size="10.00">architecture.h</text>
</a>
</g>
</g>
<!-- Node4&#45;&gt;Node6 -->
<g id="edge7_Node000004_Node000006" class="edge">
<title>Node4&#45;&gt;Node6</title>
<g id="a_edge7_Node000004_Node000006"><a xlink:title=" ">
<path fill="none" stroke="#63b8ff" d="M687.48,-396.9C702.81,-388.99 723.3,-376.64 737.47,-361.25 765.84,-330.45 785.62,-284.95 795.41,-258.83"/>
<polygon fill="#63b8ff" stroke="#63b8ff" points="798.7,-260.03 798.8,-249.44 792.12,-257.66 798.7,-260.03"/>
</a>
</g>
</g>
<!-- Node10 -->
<g id="Node000010" class="node">
<title>Node10</title>
<g id="a_Node000010"><a xlink:href="kernel__defines_8h.html" target="_top" xlink:title="Common macros and compiler attributes/pragmas configuration.">
<polygon fill="white" stroke="#666666" points="155.6,-191 59.35,-191 59.35,-170.25 155.6,-170.25 155.6,-191"/>
<text text-anchor="middle" x="107.47" y="-177.5" font-family="Helvetica,sans-Serif" font-size="10.00">kernel_defines.h</text>
</a>
</g>
</g>
<!-- Node4&#45;&gt;Node10 -->
<g id="edge12_Node000004_Node000010" class="edge">
<title>Node4&#45;&gt;Node10</title>
<g id="a_edge12_Node000004_Node000010"><a xlink:title=" ">
<path fill="none" stroke="#63b8ff" d="M638.01,-407.17C549.18,-408.38 278.78,-408.03 207.47,-361.25 149.97,-323.52 122.38,-240.83 112.25,-202.23"/>
<polygon fill="#63b8ff" stroke="#63b8ff" points="115.67,-201.5 109.87,-192.63 108.88,-203.18 115.67,-201.5"/>
</a>
</g>
</g>
<!-- Node16 -->
<g id="Node000016" class="node">
<title>Node16</title>
<g id="a_Node000016"><a xlink:href="list_8h.html" target="_top" xlink:title="Intrusive linked list.">
<polygon fill="white" stroke="#666666" points="616.47,-134.25 576.47,-134.25 576.47,-113.5 616.47,-113.5 616.47,-134.25"/>
<text text-anchor="middle" x="596.47" y="-120.75" font-family="Helvetica,sans-Serif" font-size="10.00">list.h</text>
</a>
</g>
</g>
<!-- Node4&#45;&gt;Node16 -->
<g id="edge23_Node000004_Node000016" class="edge">
<title>Node4&#45;&gt;Node16</title>
<g id="a_edge23_Node000004_Node000016"><a xlink:title=" ">
<path fill="none" stroke="#63b8ff" d="M664.06,-396.93C654.05,-356.62 615.6,-201.86 601.61,-145.53"/>
<polygon fill="#63b8ff" stroke="#63b8ff" points="605.05,-144.86 599.24,-136 598.25,-146.55 605.05,-144.86"/>
</a>
</g>
</g>
<!-- Node17 -->
<g id="Node000017" class="node">
<title>Node17</title>
<g id="a_Node000017"><a xlink:href="core_2include_2thread_8h.html" target="_top" xlink:title="Threading API.">
<polygon fill="white" stroke="#666666" points="427.72,-361.25 371.22,-361.25 371.22,-340.5 427.72,-340.5 427.72,-361.25"/>
<text text-anchor="middle" x="399.47" y="-347.75" font-family="Helvetica,sans-Serif" font-size="10.00">thread.h</text>
</a>
</g>
</g>
<!-- Node4&#45;&gt;Node17 -->
<g id="edge24_Node000004_Node000017" class="edge">
<title>Node4&#45;&gt;Node17</title>
<g id="a_edge24_Node000004_Node000017"><a xlink:title=" ">
<path fill="none" stroke="#63b8ff" d="M637.9,-400.77C590.02,-390.95 493.51,-371.16 439.1,-360"/>
<polygon fill="#63b8ff" stroke="#63b8ff" points="439.82,-356.58 429.32,-358 438.42,-363.43 439.82,-356.58"/>
</a>
</g>
</g>
<!-- Node6&#45;&gt;Node3 -->
<g id="edge8_Node000006_Node000003" class="edge">
<title>Node6&#45;&gt;Node3</title>
<g id="a_edge8_Node000006_Node000003"><a xlink:title=" ">
<path fill="none" stroke="#63b8ff" d="M800.6,-226.65C797.85,-213.49 792.1,-189.42 783.47,-170.25 759.11,-116.13 718.49,-58.85 696.94,-30.12"/>
<polygon fill="#63b8ff" stroke="#63b8ff" points="699.92,-28.26 691.08,-22.41 694.34,-32.49 699.92,-28.26"/>
</a>
</g>
</g>
<!-- Node7 -->
<g id="Node000007" class="node">
<title>Node7</title>
<g id="a_Node000007"><a xlink:href="inttypes_8h.html" target="_top" xlink:title="Adds include for missing inttype definitions.">
<polygon fill="white" stroke="#666666" points="774.85,-191 710.1,-191 710.1,-170.25 774.85,-170.25 774.85,-191"/>
<text text-anchor="middle" x="742.47" y="-177.5" font-family="Helvetica,sans-Serif" font-size="10.00">inttypes.h</text>
</a>
</g>
</g>
<!-- Node6&#45;&gt;Node7 -->
<g id="edge9_Node000006_Node000007" class="edge">
<title>Node6&#45;&gt;Node7</title>
<g id="a_edge9_Node000006_Node000007"><a xlink:title=" ">
<path fill="none" stroke="#63b8ff" d="M791.75,-226.59C783.39,-218.96 771.56,-208.17 761.59,-199.07"/>
<polygon fill="#63b8ff" stroke="#63b8ff" points="763.97,-196.5 754.23,-192.35 759.25,-201.67 763.97,-196.5"/>
</a>
</g>
</g>
<!-- Node8 -->
<g id="Node000008" class="node">
<title>Node8</title>
<g id="a_Node000008"><a xlink:title=" ">
<polygon fill="#e0e0e0" stroke="#999999" points="1052.85,-77.5 1000.1,-77.5 1000.1,-56.75 1052.85,-56.75 1052.85,-77.5"/>
<text text-anchor="middle" x="1026.47" y="-64" font-family="Helvetica,sans-Serif" font-size="10.00">limits.h</text>
</a>
</g>
</g>
<!-- Node6&#45;&gt;Node8 -->
<g id="edge10_Node000006_Node000008" class="edge">
<title>Node6&#45;&gt;Node8</title>
<g id="a_edge10_Node000006_Node000008"><a xlink:title=" ">
<path fill="none" stroke="#63b8ff" d="M844.52,-234.59C906.07,-230.98 1016.07,-220.49 1040.47,-191 1064.1,-162.44 1003.14,-138.05 1001.47,-134.25 994.57,-118.48 1002.73,-100.14 1011.53,-86.79"/>
<polygon fill="#63b8ff" stroke="#63b8ff" points="1014.22,-89.04 1017.25,-78.89 1008.55,-84.93 1014.22,-89.04"/>
</a>
</g>
</g>
<!-- Node9 -->
<g id="Node000009" class="node">
<title>Node9</title>
<g id="a_Node000009"><a xlink:title=" ">
<polygon fill="#e0e0e0" stroke="#999999" points="940.35,-191 830.6,-191 830.6,-170.25 940.35,-170.25 940.35,-191"/>
<text text-anchor="middle" x="885.47" y="-177.5" font-family="Helvetica,sans-Serif" font-size="10.00">architecture_arch.h</text>
</a>
</g>
</g>
<!-- Node6&#45;&gt;Node9 -->
<g id="edge11_Node000006_Node000009" class="edge">
<title>Node6&#45;&gt;Node9</title>
<g id="a_edge11_Node000006_Node000009"><a xlink:title=" ">
<path fill="none" stroke="#63b8ff" d="M817.31,-226.59C829.59,-218.49 847.26,-206.83 861.53,-197.42"/>
<polygon fill="#63b8ff" stroke="#63b8ff" points="863.08,-200.59 869.5,-192.16 859.23,-194.75 863.08,-200.59"/>
</a>
</g>
</g>
<!-- Node11 -->
<g id="Node000011" class="node">
<title>Node11</title>
<g id="a_Node000011"><a xlink:href="modules_8h.html" target="_top" xlink:title="Common macros and compiler attributes/pragmas configuration.">
<polygon fill="white" stroke="#666666" points="323.97,-134.25 256.97,-134.25 256.97,-113.5 323.97,-113.5 323.97,-134.25"/>
<text text-anchor="middle" x="290.47" y="-120.75" font-family="Helvetica,sans-Serif" font-size="10.00">modules.h</text>
</a>
</g>
</g>
<!-- Node10&#45;&gt;Node11 -->
<g id="edge13_Node000010_Node000011" class="edge">
<title>Node10&#45;&gt;Node11</title>
<g id="a_edge13_Node000010_Node000011"><a xlink:title=" ">
<path fill="none" stroke="#63b8ff" d="M140.19,-169.84C170.02,-160.91 214.32,-147.66 247.1,-137.85"/>
<polygon fill="#63b8ff" stroke="#63b8ff" points="247.71,-141.32 256.28,-135.1 245.7,-134.62 247.71,-141.32"/>
</a>
</g>
</g>
<!-- Node12 -->
<g id="Node000012" class="node">
<title>Node12</title>
<g id="a_Node000012"><a xlink:href="riot__version_8h.html" target="_top" xlink:title="Common macros and compiler attributes/pragmas configuration.">
<polygon fill="white" stroke="#666666" points="331.85,-77.5 249.1,-77.5 249.1,-56.75 331.85,-56.75 331.85,-77.5"/>
<text text-anchor="middle" x="290.47" y="-64" font-family="Helvetica,sans-Serif" font-size="10.00">riot_version.h</text>
</a>
</g>
</g>
<!-- Node10&#45;&gt;Node12 -->
<g id="edge14_Node000010_Node000012" class="edge">
<title>Node10&#45;&gt;Node12</title>
<g id="a_edge14_Node000010_Node000012"><a xlink:title=" ">
<path fill="none" stroke="#63b8ff" d="M112.57,-170.11C120.68,-155.84 137.82,-128.92 159.47,-113.5 182.7,-96.96 212.48,-86.01 237.78,-79.02"/>
<polygon fill="#63b8ff" stroke="#63b8ff" points="238.43,-82.47 247.22,-76.55 236.66,-75.69 238.43,-82.47"/>
</a>
</g>
</g>
<!-- Node13 -->
<g id="Node000013" class="node">
<title>Node13</title>
<g id="a_Node000013"><a xlink:href="compiler__hints_8h.html" target="_top" xlink:title="Common macros and compiler attributes/pragmas configuration.">
<polygon fill="white" stroke="#666666" points="111.97,-134.25 14.97,-134.25 14.97,-113.5 111.97,-113.5 111.97,-134.25"/>
<text text-anchor="middle" x="63.47" y="-120.75" font-family="Helvetica,sans-Serif" font-size="10.00">compiler_hints.h</text>
</a>
</g>
</g>
<!-- Node10&#45;&gt;Node13 -->
<g id="edge16_Node000010_Node000013" class="edge">
<title>Node10&#45;&gt;Node13</title>
<g id="a_edge16_Node000010_Node000013"><a xlink:title=" ">
<path fill="none" stroke="#63b8ff" d="M99.61,-169.84C93.73,-162.52 85.51,-152.29 78.39,-143.44"/>
<polygon fill="#63b8ff" stroke="#63b8ff" points="81.21,-141.36 72.22,-135.76 75.76,-145.75 81.21,-141.36"/>
</a>
</g>
</g>
<!-- Node15 -->
<g id="Node000015" class="node">
<title>Node15</title>
<g id="a_Node000015"><a xlink:href="container_8h.html" target="_top" xlink:title="Common macros and compiler attributes/pragmas configuration.">
<polygon fill="white" stroke="#666666" points="238.85,-134.25 168.1,-134.25 168.1,-113.5 238.85,-113.5 238.85,-134.25"/>
<text text-anchor="middle" x="203.47" y="-120.75" font-family="Helvetica,sans-Serif" font-size="10.00">container.h</text>
</a>
</g>
</g>
<!-- Node10&#45;&gt;Node15 -->
<g id="edge20_Node000010_Node000015" class="edge">
<title>Node10&#45;&gt;Node15</title>
<g id="a_edge20_Node000010_Node000015"><a xlink:title=" ">
<path fill="none" stroke="#63b8ff" d="M124.64,-169.84C139.11,-161.58 160.06,-149.63 176.73,-140.13"/>
<polygon fill="#63b8ff" stroke="#63b8ff" points="178.19,-143.32 185.15,-135.33 174.72,-137.24 178.19,-143.32"/>
</a>
</g>
</g>
<!-- Node12&#45;&gt;Node3 -->
<g id="edge15_Node000012_Node000003" class="edge">
<title>Node12&#45;&gt;Node3</title>
<g id="a_edge15_Node000012_Node000003"><a xlink:title=" ">
<path fill="none" stroke="#63b8ff" d="M332.05,-60.32C408.74,-49.61 571.31,-26.9 644.89,-16.62"/>
<polygon fill="#63b8ff" stroke="#63b8ff" points="644.99,-20.14 654.41,-15.29 644.02,-13.21 644.99,-20.14"/>
</a>
</g>
</g>
<!-- Node13&#45;&gt;Node3 -->
<g id="edge19_Node000013_Node000003" class="edge">
<title>Node13&#45;&gt;Node3</title>
<g id="a_edge19_Node000013_Node000003"><a xlink:title=" ">
<path fill="none" stroke="#63b8ff" d="M84.45,-113.03C117.05,-98.19 182.18,-70.39 240.47,-56.75 386.99,-22.46 566.85,-14.08 644.17,-12.03"/>
<polygon fill="#63b8ff" stroke="#63b8ff" points="644.25,-15.53 654.17,-11.79 644.08,-8.54 644.25,-15.53"/>
</a>
</g>
</g>
<!-- Node14 -->
<g id="Node000014" class="node">
<title>Node14</title>
<g id="a_Node000014"><a xlink:href="assert_8h.html" target="_top" xlink:title="POSIX.1&#45;2008 compliant version of the assert macro.">
<polygon fill="white" stroke="#666666" points="90.97,-77.5 35.97,-77.5 35.97,-56.75 90.97,-56.75 90.97,-77.5"/>
<text text-anchor="middle" x="63.47" y="-64" font-family="Helvetica,sans-Serif" font-size="10.00">assert.h</text>
</a>
</g>
</g>
<!-- Node13&#45;&gt;Node14 -->
<g id="edge17_Node000013_Node000014" class="edge">
<title>Node13&#45;&gt;Node14</title>
<g id="a_edge17_Node000013_Node000014"><a xlink:title=" ">
<path fill="none" stroke="#63b8ff" d="M63.47,-113.09C63.47,-106.47 63.47,-97.47 63.47,-89.27"/>
<polygon fill="#63b8ff" stroke="#63b8ff" points="66.97,-89.34 63.47,-79.34 59.97,-89.34 66.97,-89.34"/>
</a>
</g>
</g>
<!-- Node14&#45;&gt;Node3 -->
<g id="edge18_Node000014_Node000003" class="edge">
<title>Node14&#45;&gt;Node3</title>
<g id="a_edge18_Node000014_Node000003"><a xlink:title=" ">
<path fill="none" stroke="#63b8ff" d="M91.27,-63.67C190.9,-54.85 530.22,-24.84 644.53,-14.73"/>
<polygon fill="#63b8ff" stroke="#63b8ff" points="644.64,-18.24 654.29,-13.87 644.02,-11.26 644.64,-18.24"/>
</a>
</g>
</g>
<!-- Node15&#45;&gt;Node3 -->
<g id="edge22_Node000015_Node000003" class="edge">
<title>Node15&#45;&gt;Node3</title>
<g id="a_edge22_Node000015_Node000003"><a xlink:title=" ">
<path fill="none" stroke="#63b8ff" d="M231.2,-113.04C271.69,-98.96 349.59,-72.98 417.47,-56.75 497.5,-37.62 592.96,-23.32 644.66,-16.27"/>
<polygon fill="#63b8ff" stroke="#63b8ff" points="644.97,-19.76 654.41,-14.96 644.04,-12.82 644.97,-19.76"/>
</a>
</g>
</g>
<!-- Node15&#45;&gt;Node5 -->
<g id="edge21_Node000015_Node000005" class="edge">
<title>Node15&#45;&gt;Node5</title>
<g id="a_edge21_Node000015_Node000005"><a xlink:title=" ">
<path fill="none" stroke="#63b8ff" d="M238.97,-115.07C241.84,-114.51 244.7,-113.98 247.47,-113.5 355.8,-94.76 484.69,-79.45 548.16,-72.37"/>
<polygon fill="#63b8ff" stroke="#63b8ff" points="548.54,-75.85 558.09,-71.27 547.77,-68.89 548.54,-75.85"/>
</a>
</g>
</g>
<!-- Node18 -->
<g id="Node000018" class="node">
<title>Node18</title>
<g id="a_Node000018"><a xlink:href="clist_8h.html" target="_top" xlink:title="Circular linked list.">
<polygon fill="white" stroke="#666666" points="575.1,-191 529.85,-191 529.85,-170.25 575.1,-170.25 575.1,-191"/>
<text text-anchor="middle" x="552.47" y="-177.5" font-family="Helvetica,sans-Serif" font-size="10.00">clist.h</text>
</a>
</g>
</g>
<!-- Node17&#45;&gt;Node18 -->
<g id="edge25_Node000017_Node000018" class="edge">
<title>Node17&#45;&gt;Node18</title>
<g id="a_edge25_Node000017_Node000018"><a xlink:title=" ">
<path fill="none" stroke="#63b8ff" d="M400.49,-340.18C402.29,-326.63 407,-301.65 418.47,-283.75 444.15,-243.71 491.28,-213.33 522.24,-196.49"/>
<polygon fill="#63b8ff" stroke="#63b8ff" points="523.52,-199.78 530.73,-192.02 520.25,-193.59 523.52,-199.78"/>
</a>
</g>
</g>
<!-- Node19 -->
<g id="Node000019" class="node">
<title>Node19</title>
<g id="a_Node000019"><a xlink:href="cib_8h.html" target="_top" xlink:title="Circular integer buffer interface.">
<polygon fill="white" stroke="#666666" points="289.1,-247.75 249.85,-247.75 249.85,-227 289.1,-227 289.1,-247.75"/>
<text text-anchor="middle" x="269.47" y="-234.25" font-family="Helvetica,sans-Serif" font-size="10.00">cib.h</text>
</a>
</g>
</g>
<!-- Node17&#45;&gt;Node19 -->
<g id="edge29_Node000017_Node000019" class="edge">
<title>Node17&#45;&gt;Node19</title>
<g id="a_edge29_Node000017_Node000019"><a xlink:title=" ">
<path fill="none" stroke="#63b8ff" d="M370.9,-347.39C342.8,-343.33 300.94,-332.64 278.47,-304.5 268.41,-291.89 266.63,-273.44 267.1,-259.23"/>
<polygon fill="#63b8ff" stroke="#63b8ff" points="270.57,-259.83 267.83,-249.6 263.59,-259.31 270.57,-259.83"/>
</a>
</g>
</g>
<!-- Node20 -->
<g id="Node000020" class="node">
<title>Node20</title>
<g id="a_Node000020"><a xlink:href="core_2include_2msg_8h.html" target="_top" xlink:title="Messaging API for inter process communication.">
<polygon fill="white" stroke="#666666" points="333.47,-304.5 287.47,-304.5 287.47,-283.75 333.47,-283.75 333.47,-304.5"/>
<text text-anchor="middle" x="310.47" y="-291" font-family="Helvetica,sans-Serif" font-size="10.00">msg.h</text>
</a>
</g>
</g>
<!-- Node17&#45;&gt;Node20 -->
<g id="edge31_Node000017_Node000020" class="edge">
<title>Node17&#45;&gt;Node20</title>
<g id="a_edge31_Node000017_Node000020"><a xlink:title=" ">
<path fill="none" stroke="#63b8ff" d="M383.56,-340.09C370.27,-331.91 351.09,-320.11 335.71,-310.65"/>
<polygon fill="#63b8ff" stroke="#63b8ff" points="337.89,-307.88 327.54,-305.62 334.22,-313.84 337.89,-307.88"/>
</a>
</g>
</g>
<!-- Node21 -->
<g id="Node000021" class="node">
<title>Node21</title>
<g id="a_Node000021"><a xlink:href="sched_8h.html" target="_top" xlink:title="Scheduler API definition.">
<polygon fill="white" stroke="#666666" points="437.22,-247.75 383.72,-247.75 383.72,-227 437.22,-227 437.22,-247.75"/>
<text text-anchor="middle" x="410.47" y="-234.25" font-family="Helvetica,sans-Serif" font-size="10.00">sched.h</text>
</a>
</g>
</g>
<!-- Node17&#45;&gt;Node21 -->
<g id="edge40_Node000017_Node000021" class="edge">
<title>Node17&#45;&gt;Node21</title>
<g id="a_edge40_Node000017_Node000021"><a xlink:title=" ">
<path fill="none" stroke="#63b8ff" d="M394.72,-340.4C388.88,-327.51 380.33,-303.75 385.47,-283.75 387.82,-274.65 392.41,-265.42 397.03,-257.68"/>
<polygon fill="#63b8ff" stroke="#63b8ff" points="399.84,-259.78 402.32,-249.47 393.96,-255.98 399.84,-259.78"/>
</a>
</g>
</g>
<!-- Node23 -->
<g id="Node000023" class="node">
<title>Node23</title>
<g id="a_Node000023"><a xlink:href="thread__config_8h.html" target="_top" xlink:title="Thread configuration defines.">
<polygon fill="white" stroke="#666666" points="519.35,-304.5 427.6,-304.5 427.6,-283.75 519.35,-283.75 519.35,-304.5"/>
<text text-anchor="middle" x="473.47" y="-291" font-family="Helvetica,sans-Serif" font-size="10.00">thread_config.h</text>
</a>
</g>
</g>
<!-- Node17&#45;&gt;Node23 -->
<g id="edge41_Node000017_Node000023" class="edge">
<title>Node17&#45;&gt;Node23</title>
<g id="a_edge41_Node000017_Node000023"><a xlink:title=" ">
<path fill="none" stroke="#63b8ff" d="M412.7,-340.09C423.44,-332.15 438.8,-320.78 451.39,-311.46"/>
<polygon fill="#63b8ff" stroke="#63b8ff" points="453.18,-314.49 459.14,-305.73 449.02,-308.86 453.18,-314.49"/>
</a>
</g>
</g>
<!-- Node25 -->
<g id="Node000025" class="node">
<title>Node25</title>
<g id="a_Node000025"><a xlink:title=" ">
<polygon fill="#e0e0e0" stroke="#999999" points="619.85,-304.5 537.1,-304.5 537.1,-283.75 619.85,-283.75 619.85,-304.5"/>
<text text-anchor="middle" x="578.47" y="-291" font-family="Helvetica,sans-Serif" font-size="10.00">thread_arch.h</text>
</a>
</g>
</g>
<!-- Node17&#45;&gt;Node25 -->
<g id="edge44_Node000017_Node000025" class="edge">
<title>Node17&#45;&gt;Node25</title>
<g id="a_edge44_Node000017_Node000025"><a xlink:title=" ">
<path fill="none" stroke="#63b8ff" d="M427.84,-341.2C456.8,-332.34 502.12,-318.48 535.49,-308.27"/>
<polygon fill="#63b8ff" stroke="#63b8ff" points="536.33,-311.68 544.86,-305.41 534.28,-304.98 536.33,-311.68"/>
</a>
</g>
</g>
<!-- Node18&#45;&gt;Node2 -->
<g id="edge26_Node000018_Node000002" class="edge">
<title>Node18&#45;&gt;Node2</title>
<g id="a_edge26_Node000018_Node000002"><a xlink:title=" ">
<path fill="none" stroke="#63b8ff" d="M529.68,-172.69C500.61,-163.85 449.83,-148.4 413.85,-137.46"/>
<polygon fill="#63b8ff" stroke="#63b8ff" points="415.24,-134.22 404.65,-134.66 413.2,-140.92 415.24,-134.22"/>
</a>
</g>
</g>
<!-- Node18&#45;&gt;Node5 -->
<g id="edge27_Node000018_Node000005" class="edge">
<title>Node18&#45;&gt;Node5</title>
<g id="a_edge27_Node000018_Node000005"><a xlink:title=" ">
<path fill="none" stroke="#63b8ff" d="M554.05,-170.05C556.32,-157.05 560.97,-133.17 567.47,-113.5 570.27,-105.04 574.07,-96.01 577.61,-88.25"/>
<polygon fill="#63b8ff" stroke="#63b8ff" points="580.7,-89.9 581.81,-79.37 574.37,-86.91 580.7,-89.9"/>
</a>
</g>
</g>
<!-- Node18&#45;&gt;Node16 -->
<g id="edge28_Node000018_Node000016" class="edge">
<title>Node18&#45;&gt;Node16</title>
<g id="a_edge28_Node000018_Node000016"><a xlink:title=" ">
<path fill="none" stroke="#63b8ff" d="M560.34,-169.84C566.22,-162.52 574.44,-152.29 581.55,-143.44"/>
<polygon fill="#63b8ff" stroke="#63b8ff" points="584.19,-145.75 587.73,-135.76 578.74,-141.36 584.19,-145.75"/>
</a>
</g>
</g>
<!-- Node19&#45;&gt;Node14 -->
<g id="edge30_Node000019_Node000014" class="edge">
<title>Node19&#45;&gt;Node14</title>
<g id="a_edge30_Node000019_Node000014"><a xlink:title=" ">
<path fill="none" stroke="#63b8ff" d="M249.39,-236.64C208.74,-236.29 115.1,-230.83 50.47,-191 16.57,-170.1 -11.97,-149.3 5.47,-113.5 11.43,-101.27 22.46,-91.37 33.31,-83.97"/>
<polygon fill="#63b8ff" stroke="#63b8ff" points="35.16,-86.94 41.8,-78.69 31.46,-81 35.16,-86.94"/>
</a>
</g>
</g>
<!-- Node20&#45;&gt;Node2 -->
<g id="edge33_Node000020_Node000002" class="edge">
<title>Node20&#45;&gt;Node2</title>
<g id="a_edge33_Node000020_Node000002"><a xlink:title=" ">
<path fill="none" stroke="#63b8ff" d="M311.73,-283.5C314.73,-262.28 323.49,-210.17 341.47,-170.25 345.66,-160.95 351.76,-151.51 357.43,-143.66"/>
<polygon fill="#63b8ff" stroke="#63b8ff" points="360.06,-146 363.32,-135.92 354.48,-141.76 360.06,-146"/>
</a>
</g>
</g>
<!-- Node20&#45;&gt;Node3 -->
<g id="edge32_Node000020_Node000003" class="edge">
<title>Node20&#45;&gt;Node3</title>
<g id="a_edge32_Node000020_Node000003"><a xlink:title=" ">
<path fill="none" stroke="#63b8ff" d="M315.65,-283.4C320.53,-274.23 328.04,-260.07 334.47,-247.75 352.42,-213.4 348.38,-198.91 374.47,-170.25 450.7,-86.52 581.31,-40.03 645.15,-21.28"/>
<polygon fill="#63b8ff" stroke="#63b8ff" points="645.79,-24.74 654.44,-18.62 643.86,-18.01 645.79,-24.74"/>
</a>
</g>
</g>
<!-- Node20&#45;&gt;Node21 -->
<g id="edge34_Node000020_Node000021" class="edge">
<title>Node20&#45;&gt;Node21</title>
<g id="a_edge34_Node000020_Node000021"><a xlink:title=" ">
<path fill="none" stroke="#63b8ff" d="M328.35,-283.34C343.57,-275.01 365.67,-262.91 383.11,-253.36"/>
<polygon fill="#63b8ff" stroke="#63b8ff" points="384.33,-256.68 391.42,-248.81 380.97,-250.54 384.33,-256.68"/>
</a>
</g>
</g>
<!-- Node21&#45;&gt;Node5 -->
<g id="edge35_Node000021_Node000005" class="edge">
<title>Node21&#45;&gt;Node5</title>
<g id="a_edge35_Node000021_Node000005"><a xlink:title=" ">
<path fill="none" stroke="#63b8ff" d="M429.27,-226.6C444.45,-218.23 465.93,-205.3 482.47,-191 519.78,-158.74 555.36,-112.85 574,-87.26"/>
<polygon fill="#63b8ff" stroke="#63b8ff" points="576.82,-89.32 579.81,-79.15 571.14,-85.24 576.82,-89.32"/>
</a>
</g>
</g>
<!-- Node21&#45;&gt;Node7 -->
<g id="edge36_Node000021_Node000007" class="edge">
<title>Node21&#45;&gt;Node7</title>
<g id="a_edge36_Node000021_Node000007"><a xlink:title=" ">
<path fill="none" stroke="#63b8ff" d="M437.64,-231.89C495.08,-222.42 629.24,-200.3 698.84,-188.82"/>
<polygon fill="#63b8ff" stroke="#63b8ff" points="699.05,-192.33 708.35,-187.25 697.91,-185.43 699.05,-192.33"/>
</a>
</g>
</g>
<!-- Node21&#45;&gt;Node10 -->
<g id="edge37_Node000021_Node000010" class="edge">
<title>Node21&#45;&gt;Node10</title>
<g id="a_edge37_Node000021_Node000010"><a xlink:title=" ">
<path fill="none" stroke="#63b8ff" d="M383.32,-231.47C334.85,-222.71 232.39,-204.2 166.9,-192.36"/>
<polygon fill="#63b8ff" stroke="#63b8ff" points="167.88,-188.98 157.41,-190.65 166.63,-195.87 167.88,-188.98"/>
</a>
</g>
</g>
<!-- Node21&#45;&gt;Node18 -->
<g id="edge39_Node000021_Node000018" class="edge">
<title>Node21&#45;&gt;Node18</title>
<g id="a_edge39_Node000021_Node000018"><a xlink:title=" ">
<path fill="none" stroke="#63b8ff" d="M435.86,-226.59C459.07,-217.64 493.56,-204.34 519.01,-194.53"/>
<polygon fill="#63b8ff" stroke="#63b8ff" points="520.17,-197.83 528.24,-190.97 517.65,-191.3 520.17,-197.83"/>
</a>
</g>
</g>
<!-- Node22 -->
<g id="Node000022" class="node">
<title>Node22</title>
<g id="a_Node000022"><a xlink:href="native__sched_8h.html" target="_top" xlink:title="Add definitions required on the native board.">
<polygon fill="white" stroke="#666666" points="473.22,-191 383.72,-191 383.72,-170.25 473.22,-170.25 473.22,-191"/>
<text text-anchor="middle" x="428.47" y="-177.5" font-family="Helvetica,sans-Serif" font-size="10.00">native_sched.h</text>
</a>
</g>
</g>
<!-- Node21&#45;&gt;Node22 -->
<g id="edge38_Node000021_Node000022" class="edge">
<title>Node21&#45;&gt;Node22</title>
<g id="a_edge38_Node000021_Node000022"><a xlink:title=" ">
<path fill="none" stroke="#63b8ff" d="M413.69,-226.59C415.92,-219.81 418.96,-210.55 421.71,-202.19"/>
<polygon fill="#63b8ff" stroke="#63b8ff" points="425.01,-203.36 424.81,-192.77 418.36,-201.17 425.01,-203.36"/>
</a>
</g>
</g>
<!-- Node23&#45;&gt;Node21 -->
<g id="edge43_Node000023_Node000021" class="edge">
<title>Node23&#45;&gt;Node21</title>
<g id="a_edge43_Node000023_Node000021"><a xlink:title=" ">
<path fill="none" stroke="#63b8ff" d="M462.21,-283.34C453.34,-275.63 440.76,-264.7 430.23,-255.54"/>
<polygon fill="#63b8ff" stroke="#63b8ff" points="432.63,-252.99 422.78,-249.07 428.03,-258.27 432.63,-252.99"/>
</a>
</g>
</g>
<!-- Node24 -->
<g id="Node000024" class="node">
<title>Node24</title>
<g id="a_Node000024"><a xlink:title=" ">
<polygon fill="#e0e0e0" stroke="#999999" points="561.35,-247.75 493.6,-247.75 493.6,-227 561.35,-227 561.35,-247.75"/>
<text text-anchor="middle" x="527.47" y="-234.25" font-family="Helvetica,sans-Serif" font-size="10.00">cpu_conf.h</text>
</a>
</g>
</g>
<!-- Node23&#45;&gt;Node24 -->
<g id="edge42_Node000023_Node000024" class="edge">
<title>Node23&#45;&gt;Node24</title>
<g id="a_edge42_Node000023_Node000024"><a xlink:title=" ">
<path fill="none" stroke="#63b8ff" d="M483.13,-283.34C490.58,-275.78 501.08,-265.14 509.99,-256.1"/>
<polygon fill="#63b8ff" stroke="#63b8ff" points="512.31,-258.73 516.84,-249.16 507.33,-253.82 512.31,-258.73"/>
</a>
</g>
</g>
<!-- Node26&#45;&gt;Node8 -->
<g id="edge46_Node000026_Node000008" class="edge">
<title>Node26&#45;&gt;Node8</title>
<g id="a_edge46_Node000026_Node000008"><a xlink:title=" ">
<path fill="none" stroke="#63b8ff" d="M1152.12,-113.09C1127.57,-104.3 1091.3,-91.32 1064.04,-81.57"/>
<polygon fill="#63b8ff" stroke="#63b8ff" points="1065.35,-78.32 1054.76,-78.25 1063,-84.91 1065.35,-78.32"/>
</a>
</g>
</g>
<!-- Node27 -->
<g id="Node000027" class="node">
<title>Node27</title>
<g id="a_Node000027"><a xlink:title=" ">
<polygon fill="#e0e0e0" stroke="#999999" points="1248.6,-77.5 1170.35,-77.5 1170.35,-56.75 1248.6,-56.75 1248.6,-77.5"/>
<text text-anchor="middle" x="1209.47" y="-64" font-family="Helvetica,sans-Serif" font-size="10.00">periph_cpu.h</text>
</a>
</g>
</g>
<!-- Node26&#45;&gt;Node27 -->
<g id="edge47_Node000026_Node000027" class="edge">
<title>Node26&#45;&gt;Node27</title>
<g id="a_edge47_Node000026_Node000027"><a xlink:title=" ">
<path fill="none" stroke="#63b8ff" d="M1184.84,-113.09C1188.68,-106.08 1193.98,-96.41 1198.68,-87.83"/>
<polygon fill="#63b8ff" stroke="#63b8ff" points="1201.69,-89.61 1203.43,-79.16 1195.55,-86.24 1201.69,-89.61"/>
</a>
</g>
</g>
<!-- Node28 -->
<g id="Node000028" class="node">
<title>Node28</title>
<g id="a_Node000028"><a xlink:title=" ">
<polygon fill="#e0e0e0" stroke="#999999" points="1152.1,-77.5 1070.85,-77.5 1070.85,-56.75 1152.1,-56.75 1152.1,-77.5"/>
<text text-anchor="middle" x="1111.47" y="-64" font-family="Helvetica,sans-Serif" font-size="10.00">periph_conf.h</text>
</a>
</g>
</g>
<!-- Node26&#45;&gt;Node28 -->
<g id="edge48_Node000026_Node000028" class="edge">
<title>Node26&#45;&gt;Node28</title>
<g id="a_edge48_Node000026_Node000028"><a xlink:title=" ">
<path fill="none" stroke="#63b8ff" d="M1167.32,-113.09C1157.65,-105.3 1143.89,-94.22 1132.45,-85.01"/>
<polygon fill="#63b8ff" stroke="#63b8ff" points="1134.69,-82.32 1124.7,-78.78 1130.3,-87.78 1134.69,-82.32"/>
</a>
</g>
</g>
<!-- Node29&#45;&gt;Node3 -->
<g id="edge50_Node000029_Node000003" class="edge">
<title>Node29&#45;&gt;Node3</title>
<g id="a_edge50_Node000029_Node000003"><a xlink:title=" ">
<path fill="none" stroke="#63b8ff" d="M1034,-113.05C1014.69,-98.37 975.89,-70.94 938.47,-56.75 864.43,-28.68 771.65,-17.77 720.58,-13.69"/>
<polygon fill="#63b8ff" stroke="#63b8ff" points="720.87,-10.2 710.64,-12.94 720.35,-17.18 720.87,-10.2"/>
</a>
</g>
</g>
<!-- Node29&#45;&gt;Node5 -->
<g id="edge51_Node000029_Node000005" class="edge">
<title>Node29&#45;&gt;Node5</title>
<g id="a_edge51_Node000029_Node000005"><a xlink:title=" ">
<path fill="none" stroke="#63b8ff" d="M1009.69,-118.49C924.47,-108.32 714.14,-83.23 626.64,-72.8"/>
<polygon fill="#63b8ff" stroke="#63b8ff" points="627.23,-69.34 616.88,-71.63 626.4,-76.29 627.23,-69.34"/>
</a>
</g>
</g>
<!-- Node29&#45;&gt;Node8 -->
<g id="edge52_Node000029_Node000008" class="edge">
<title>Node29&#45;&gt;Node8</title>
<g id="a_edge52_Node000029_Node000008"><a xlink:title=" ">
<path fill="none" stroke="#63b8ff" d="M1042.9,-113.09C1040.4,-106.24 1036.96,-96.84 1033.88,-88.4"/>
<polygon fill="#63b8ff" stroke="#63b8ff" points="1037.26,-87.44 1030.54,-79.25 1030.68,-89.84 1037.26,-87.44"/>
</a>
</g>
</g>
<!-- Node29&#45;&gt;Node27 -->
<g id="edge54_Node000029_Node000027" class="edge">
<title>Node29&#45;&gt;Node27</title>
<g id="a_edge54_Node000029_Node000027"><a xlink:title=" ">
<path fill="none" stroke="#63b8ff" d="M1075.62,-113.09C1101.84,-104.28 1140.61,-91.25 1169.69,-81.49"/>
<polygon fill="#63b8ff" stroke="#63b8ff" points="1170.51,-84.9 1178.88,-78.4 1168.28,-78.27 1170.51,-84.9"/>
</a>
</g>
</g>
<!-- Node29&#45;&gt;Node28 -->
<g id="edge53_Node000029_Node000028" class="edge">
<title>Node29&#45;&gt;Node28</title>
<g id="a_edge53_Node000029_Node000028"><a xlink:title=" ">
<path fill="none" stroke="#63b8ff" d="M1058.09,-113.09C1067.34,-105.3 1080.49,-94.22 1091.42,-85.01"/>
<polygon fill="#63b8ff" stroke="#63b8ff" points="1093.4,-87.92 1098.8,-78.8 1088.89,-82.57 1093.4,-87.92"/>
</a>
</g>
</g>
<!-- Node30&#45;&gt;Node2 -->
<g id="edge59_Node000030_Node000002" class="edge">
<title>Node30&#45;&gt;Node2</title>
<g id="a_edge59_Node000030_Node000002"><a xlink:title=" ">
<path fill="none" stroke="#63b8ff" d="M957.7,-171.57C954.93,-171.08 952.16,-170.63 949.47,-170.25 845.96,-155.46 529.36,-134.73 414.59,-127.49"/>
<polygon fill="#63b8ff" stroke="#63b8ff" points="414.89,-124 404.69,-126.87 414.45,-130.99 414.89,-124"/>
</a>
</g>
</g>
<!-- Node30&#45;&gt;Node3 -->
<g id="edge61_Node000030_Node000003" class="edge">
<title>Node30&#45;&gt;Node3</title>
<g id="a_edge61_Node000030_Node000003"><a xlink:title=" ">
<path fill="none" stroke="#63b8ff" d="M957.72,-172.26C928.77,-165.37 888.15,-153.26 856.47,-134.25 813.75,-108.61 816.35,-85.24 775.47,-56.75 757.69,-44.36 736.02,-33.57 718.06,-25.62"/>
<polygon fill="#63b8ff" stroke="#63b8ff" points="719.67,-22.5 709.1,-21.77 716.9,-28.93 719.67,-22.5"/>
</a>
</g>
</g>
<!-- Node30&#45;&gt;Node5 -->
<g id="edge60_Node000030_Node000005" class="edge">
<title>Node30&#45;&gt;Node5</title>
<g id="a_edge60_Node000030_Node000005"><a xlink:title=" ">
<path fill="none" stroke="#63b8ff" d="M957.74,-170.03C923.09,-160.95 869.7,-146.86 823.47,-134.25 753.88,-115.27 672.97,-92.43 626.25,-79.17"/>
<polygon fill="#63b8ff" stroke="#63b8ff" points="627.44,-75.87 616.87,-76.5 625.53,-82.6 627.44,-75.87"/>
</a>
</g>
</g>
<!-- Node30&#45;&gt;Node26 -->
<g id="edge64_Node000030_Node000026" class="edge">
<title>Node30&#45;&gt;Node26</title>
<g id="a_edge64_Node000030_Node000026"><a xlink:title=" ">
<path fill="none" stroke="#63b8ff" d="M1027.55,-169.84C1057.71,-160.91 1102.49,-147.66 1135.62,-137.85"/>
<polygon fill="#63b8ff" stroke="#63b8ff" points="1136.33,-141.29 1144.92,-135.1 1134.34,-134.58 1136.33,-141.29"/>
</a>
</g>
</g>
<!-- Node30&#45;&gt;Node27 -->
<g id="edge62_Node000030_Node000027" class="edge">
<title>Node30&#45;&gt;Node27</title>
<g id="a_edge62_Node000030_Node000027"><a xlink:title=" ">
<path fill="none" stroke="#63b8ff" d="M1031.42,-177.99C1090.95,-174.5 1203.92,-164.02 1228.47,-134.25 1239.48,-120.9 1231.95,-101.49 1223.34,-87.15"/>
<polygon fill="#63b8ff" stroke="#63b8ff" points="1226.39,-85.43 1217.96,-79.02 1220.56,-89.29 1226.39,-85.43"/>
</a>
</g>
</g>
<!-- Node30&#45;&gt;Node28 -->
<g id="edge63_Node000030_Node000028" class="edge">
<title>Node30&#45;&gt;Node28</title>
<g id="a_edge63_Node000030_Node000028"><a xlink:title=" ">
<path fill="none" stroke="#63b8ff" d="M1031.28,-170.76C1051.97,-163.99 1076.74,-152.62 1092.47,-134.25 1103.29,-121.62 1107.97,-103.17 1109.97,-88.97"/>
<polygon fill="#63b8ff" stroke="#63b8ff" points="1113.42,-89.65 1110.99,-79.34 1106.46,-88.92 1113.42,-89.65"/>
</a>
</g>
</g>
<!-- Node31 -->
<g id="Node000031" class="node">
<title>Node31</title>
<g id="a_Node000031"><a xlink:href="endian_8h.html" target="_top" xlink:title="libc header for endian conversion">
<polygon fill="white" stroke="#666666" points="929.47,-77.5 871.47,-77.5 871.47,-56.75 929.47,-56.75 929.47,-77.5"/>
<text text-anchor="middle" x="900.47" y="-64" font-family="Helvetica,sans-Serif" font-size="10.00">endian.h</text>
</a>
</g>
</g>
<!-- Node30&#45;&gt;Node31 -->
<g id="edge56_Node000030_Node000031" class="edge">
<title>Node30&#45;&gt;Node31</title>
<g id="a_edge56_Node000030_Node000031"><a xlink:title=" ">
<path fill="none" stroke="#63b8ff" d="M986.46,-170.12C970.86,-151.61 936.18,-110.47 915.95,-86.48"/>
<polygon fill="#63b8ff" stroke="#63b8ff" points="918.83,-84.47 909.71,-79.08 913.48,-88.98 918.83,-84.47"/>
</a>
</g>
</g>
<!-- Node32 -->
<g id="Node000032" class="node">
<title>Node32</title>
<g id="a_Node000032"><a xlink:href="errno_8h.html" target="_top" xlink:title=" ">
<polygon fill="white" stroke="#666666" points="915.72,-134.25 865.22,-134.25 865.22,-113.5 915.72,-113.5 915.72,-134.25"/>
<text text-anchor="middle" x="890.47" y="-120.75" font-family="Helvetica,sans-Serif" font-size="10.00">errno.h</text>
</a>
</g>
</g>
<!-- Node30&#45;&gt;Node32 -->
<g id="edge58_Node000030_Node000032" class="edge">
<title>Node30&#45;&gt;Node32</title>
<g id="a_edge58_Node000030_Node000032"><a xlink:title=" ">
<path fill="none" stroke="#63b8ff" d="M975.88,-169.84C960.06,-161.51 937.07,-149.41 918.94,-139.86"/>
<polygon fill="#63b8ff" stroke="#63b8ff" points="920.72,-136.84 910.25,-135.28 917.46,-143.04 920.72,-136.84"/>
</a>
</g>
</g>
<!-- Node31&#45;&gt;Node3 -->
<g id="edge57_Node000031_Node000003" class="edge">
<title>Node31&#45;&gt;Node3</title>
<g id="a_edge57_Node000031_Node000003"><a xlink:title=" ">
<path fill="none" stroke="#63b8ff" d="M871.07,-58.74C832,-48.93 762.93,-31.58 720.1,-20.82"/>
<polygon fill="#63b8ff" stroke="#63b8ff" points="721.04,-17.45 710.49,-18.41 719.34,-24.24 721.04,-17.45"/>
</a>
</g>
</g>
</g>
</svg>
