<?xml version="1.0" encoding="UTF-8" standalone="no"?>
<!DOCTYPE svg PUBLIC "-//W3C//DTD SVG 1.1//EN"
 "http://www.w3.org/Graphics/SVG/1.1/DTD/svg11.dtd">
<!-- Generated by graphviz version 12.1.1 (0)
 -->
<!-- Title: drivers/l3gxxxx/include/l3gxxxx_params.h Pages: 1 -->
<svg width="1579pt" height="552pt"
 viewBox="0.00 0.00 1579.25 552.25" xmlns="http://www.w3.org/2000/svg" xmlns:xlink="http://www.w3.org/1999/xlink">
<g id="graph0" class="graph" transform="scale(1 1) rotate(0) translate(4 548.25)">
<title>drivers/l3gxxxx/include/l3gxxxx_params.h</title>
<!-- Node1 -->
<g id="Node000001" class="node">
<title>Node1</title>
<g id="a_Node000001"><a xlink:title="Default configuration for ST L3Gxxxx 3&#45;axis gyroscope sensor family.">
<polygon fill="#999999" stroke="#666666" points="445.62,-544.25 315.62,-544.25 315.62,-510.75 445.62,-510.75 445.62,-544.25"/>
<text text-anchor="start" x="323.62" y="-530.75" font-family="Helvetica,sans-Serif" font-size="10.00">drivers/l3gxxxx/include</text>
<text text-anchor="middle" x="380.62" y="-518" font-family="Helvetica,sans-Serif" font-size="10.00">/l3gxxxx_params.h</text>
</a>
</g>
</g>
<!-- Node2 -->
<g id="Node000002" class="node">
<title>Node2</title>
<g id="a_Node000002"><a xlink:title=" ">
<polygon fill="#e0e0e0" stroke="#999999" points="331,-474.75 278.25,-474.75 278.25,-454 331,-454 331,-474.75"/>
<text text-anchor="middle" x="304.62" y="-461.25" font-family="Helvetica,sans-Serif" font-size="10.00">board.h</text>
</a>
</g>
</g>
<!-- Node1&#45;&gt;Node2 -->
<g id="edge1_Node000001_Node000002" class="edge">
<title>Node1&#45;&gt;Node2</title>
<g id="a_edge1_Node000001_Node000002"><a xlink:title=" ">
<path fill="none" stroke="#63b8ff" d="M360.66,-510.44C349.91,-501.8 336.65,-491.13 325.73,-482.35"/>
<polygon fill="#63b8ff" stroke="#63b8ff" points="328.03,-479.71 318.04,-476.17 323.64,-485.16 328.03,-479.71"/>
</a>
</g>
</g>
<!-- Node3 -->
<g id="Node000003" class="node">
<title>Node3</title>
<g id="a_Node000003"><a xlink:href="l3gxxxx_8h.html" target="_top" xlink:title="Device Driver for ST L3Gxxxx 3&#45;axis gyroscope sensor family.">
<polygon fill="white" stroke="#666666" points="412.62,-474.75 348.62,-474.75 348.62,-454 412.62,-454 412.62,-474.75"/>
<text text-anchor="middle" x="380.62" y="-461.25" font-family="Helvetica,sans-Serif" font-size="10.00">l3gxxxx.h</text>
</a>
</g>
</g>
<!-- Node1&#45;&gt;Node3 -->
<g id="edge2_Node000001_Node000003" class="edge">
<title>Node1&#45;&gt;Node3</title>
<g id="a_edge2_Node000001_Node000003"><a xlink:title=" ">
<path fill="none" stroke="#63b8ff" d="M380.62,-510.44C380.62,-503.1 380.62,-494.32 380.62,-486.46"/>
<polygon fill="#63b8ff" stroke="#63b8ff" points="384.13,-486.73 380.63,-476.73 377.13,-486.73 384.13,-486.73"/>
</a>
</g>
</g>
<!-- Node36 -->
<g id="Node000036" class="node">
<title>Node36</title>
<g id="a_Node000036"><a xlink:href="saul__reg_8h.html" target="_top" xlink:title="SAUL registry interface definition.">
<polygon fill="white" stroke="#666666" points="1466.75,-191 1400.5,-191 1400.5,-170.25 1466.75,-170.25 1466.75,-191"/>
<text text-anchor="middle" x="1433.62" y="-177.5" font-family="Helvetica,sans-Serif" font-size="10.00">saul_reg.h</text>
</a>
</g>
</g>
<!-- Node1&#45;&gt;Node36 -->
<g id="edge68_Node000001_Node000036" class="edge">
<title>Node1&#45;&gt;Node36</title>
<g id="a_edge68_Node000001_Node000036"><a xlink:title=" ">
<path fill="none" stroke="#63b8ff" d="M446.1,-525.34C662.13,-520.64 1338.62,-498.75 1338.62,-408.62 1338.62,-408.62 1338.62,-408.62 1338.62,-293.12 1338.62,-250.81 1378.75,-216.4 1406.85,-197.49"/>
<polygon fill="#63b8ff" stroke="#63b8ff" points="1408.42,-200.65 1414.93,-192.29 1404.63,-194.76 1408.42,-200.65"/>
</a>
</g>
</g>
<!-- Node4 -->
<g id="Node000004" class="node">
<title>Node4</title>
<g id="a_Node000004"><a xlink:title=" ">
<polygon fill="#e0e0e0" stroke="#999999" points="655.12,-134.25 594.12,-134.25 594.12,-113.5 655.12,-113.5 655.12,-134.25"/>
<text text-anchor="middle" x="624.62" y="-120.75" font-family="Helvetica,sans-Serif" font-size="10.00">stdbool.h</text>
</a>
</g>
</g>
<!-- Node3&#45;&gt;Node4 -->
<g id="edge3_Node000003_Node000004" class="edge">
<title>Node3&#45;&gt;Node4</title>
<g id="a_edge3_Node000003_Node000004"><a xlink:title=" ">
<path fill="none" stroke="#63b8ff" d="M410.82,-453.55C429.99,-446.14 454.35,-434.42 471.62,-418 556.95,-336.91 603.75,-197.65 619,-145.44"/>
<polygon fill="#63b8ff" stroke="#63b8ff" points="622.29,-146.67 621.65,-136.09 615.55,-144.76 622.29,-146.67"/>
</a>
</g>
</g>
<!-- Node5 -->
<g id="Node000005" class="node">
<title>Node5</title>
<g id="a_Node000005"><a xlink:title=" ">
<polygon fill="#e0e0e0" stroke="#999999" points="981,-20.75 928.25,-20.75 928.25,0 981,0 981,-20.75"/>
<text text-anchor="middle" x="954.62" y="-7.25" font-family="Helvetica,sans-Serif" font-size="10.00">stdint.h</text>
</a>
</g>
</g>
<!-- Node3&#45;&gt;Node5 -->
<g id="edge4_Node000003_Node000005" class="edge">
<title>Node3&#45;&gt;Node5</title>
<g id="a_edge4_Node000003_Node000005"><a xlink:title=" ">
<path fill="none" stroke="#63b8ff" d="M375.16,-453.57C365.09,-434.57 344.62,-391.13 344.62,-351.88 344.62,-351.88 344.62,-351.88 344.62,-236.38 344.62,-125.94 531.34,-89.54 639.62,-56.75 736.79,-27.33 856.76,-16.76 916.74,-13.15"/>
<polygon fill="#63b8ff" stroke="#63b8ff" points="916.61,-16.66 926.39,-12.6 916.21,-9.67 916.61,-16.66"/>
</a>
</g>
</g>
<!-- Node6 -->
<g id="Node000006" class="node">
<title>Node6</title>
<g id="a_Node000006"><a xlink:href="mutex_8h.html" target="_top" xlink:title="Mutex for thread synchronization.">
<polygon fill="white" stroke="#666666" points="1002.88,-418 946.38,-418 946.38,-397.25 1002.88,-397.25 1002.88,-418"/>
<text text-anchor="middle" x="974.62" y="-404.5" font-family="Helvetica,sans-Serif" font-size="10.00">mutex.h</text>
</a>
</g>
</g>
<!-- Node3&#45;&gt;Node6 -->
<g id="edge5_Node000003_Node000006" class="edge">
<title>Node3&#45;&gt;Node6</title>
<g id="a_edge5_Node000003_Node000006"><a xlink:title=" ">
<path fill="none" stroke="#63b8ff" d="M412.98,-460.39C514.13,-451.07 824.16,-422.49 934.84,-412.29"/>
<polygon fill="#63b8ff" stroke="#63b8ff" points="934.98,-415.79 944.62,-411.39 934.34,-408.82 934.98,-415.79"/>
</a>
</g>
</g>
<!-- Node28 -->
<g id="Node000028" class="node">
<title>Node28</title>
<g id="a_Node000028"><a xlink:href="drivers_2include_2periph_2gpio_8h.html" target="_top" xlink:title="Low&#45;level GPIO peripheral driver interface definitions.">
<polygon fill="white" stroke="#666666" points="94.5,-134.25 14.75,-134.25 14.75,-113.5 94.5,-113.5 94.5,-134.25"/>
<text text-anchor="middle" x="54.62" y="-120.75" font-family="Helvetica,sans-Serif" font-size="10.00">periph/gpio.h</text>
</a>
</g>
</g>
<!-- Node3&#45;&gt;Node28 -->
<g id="edge47_Node000003_Node000028" class="edge">
<title>Node3&#45;&gt;Node28</title>
<g id="a_edge47_Node000003_Node000028"><a xlink:title=" ">
<path fill="none" stroke="#63b8ff" d="M348.21,-453.6C276.27,-431.46 109.62,-377.41 109.62,-351.88 109.62,-351.88 109.62,-351.88 109.62,-236.38 109.62,-200.6 86.57,-164.41 70.31,-143.34"/>
<polygon fill="#63b8ff" stroke="#63b8ff" points="73.17,-141.3 64.17,-135.71 67.71,-145.69 73.17,-141.3"/>
</a>
</g>
</g>
<!-- Node31 -->
<g id="Node000031" class="node">
<title>Node31</title>
<g id="a_Node000031"><a xlink:href="i2c_8h.html" target="_top" xlink:title="Low&#45;level I2C peripheral driver interface definition.">
<polygon fill="white" stroke="#666666" points="368.12,-134.25 295.12,-134.25 295.12,-113.5 368.12,-113.5 368.12,-134.25"/>
<text text-anchor="middle" x="331.62" y="-120.75" font-family="Helvetica,sans-Serif" font-size="10.00">periph/i2c.h</text>
</a>
</g>
</g>
<!-- Node3&#45;&gt;Node31 -->
<g id="edge51_Node000003_Node000031" class="edge">
<title>Node3&#45;&gt;Node31</title>
<g id="a_edge51_Node000003_Node000031"><a xlink:title=" ">
<path fill="none" stroke="#63b8ff" d="M366.6,-453.65C355.49,-445.32 340.29,-432.41 330.62,-418 313.2,-392.04 306.62,-383.14 306.62,-351.88 306.62,-351.88 306.62,-351.88 306.62,-236.38 306.62,-203.9 316.85,-167.37 324.22,-145.25"/>
<polygon fill="#63b8ff" stroke="#63b8ff" points="327.46,-146.58 327.44,-135.98 320.85,-144.28 327.46,-146.58"/>
</a>
</g>
</g>
<!-- Node32 -->
<g id="Node000032" class="node">
<title>Node32</title>
<g id="a_Node000032"><a xlink:href="spi_8h.html" target="_top" xlink:title="Low&#45;level SPI peripheral driver interface definition.">
<polygon fill="white" stroke="#666666" points="265.12,-191 192.12,-191 192.12,-170.25 265.12,-170.25 265.12,-191"/>
<text text-anchor="middle" x="228.62" y="-177.5" font-family="Helvetica,sans-Serif" font-size="10.00">periph/spi.h</text>
</a>
</g>
</g>
<!-- Node3&#45;&gt;Node32 -->
<g id="edge57_Node000003_Node000032" class="edge">
<title>Node3&#45;&gt;Node32</title>
<g id="a_edge57_Node000003_Node000032"><a xlink:title=" ">
<path fill="none" stroke="#63b8ff" d="M348.74,-453.59C307.7,-438.79 241.62,-406.48 241.62,-351.88 241.62,-351.88 241.62,-351.88 241.62,-293.12 241.62,-261.37 236.36,-224.87 232.53,-202.53"/>
<polygon fill="#63b8ff" stroke="#63b8ff" points="236.02,-202.14 230.81,-192.91 229.13,-203.37 236.02,-202.14"/>
</a>
</g>
</g>
<!-- Node35 -->
<g id="Node000035" class="node">
<title>Node35</title>
<g id="a_Node000035"><a xlink:href="l3gxxxx__regs_8h.html" target="_top" xlink:title="Register definitions for ST L3Gxxxx 3&#45;axis gyroscope sensor family.">
<polygon fill="white" stroke="#666666" points="462.75,-418 372.5,-418 372.5,-397.25 462.75,-397.25 462.75,-418"/>
<text text-anchor="middle" x="417.62" y="-404.5" font-family="Helvetica,sans-Serif" font-size="10.00">l3gxxxx_regs.h</text>
</a>
</g>
</g>
<!-- Node3&#45;&gt;Node35 -->
<g id="edge67_Node000003_Node000035" class="edge">
<title>Node3&#45;&gt;Node35</title>
<g id="a_edge67_Node000003_Node000035"><a xlink:title=" ">
<path fill="none" stroke="#63b8ff" d="M387.24,-453.59C392.08,-446.42 398.8,-436.48 404.7,-427.76"/>
<polygon fill="#63b8ff" stroke="#63b8ff" points="407.52,-429.83 410.22,-419.58 401.72,-425.91 407.52,-429.83"/>
</a>
</g>
</g>
<!-- Node6&#45;&gt;Node4 -->
<g id="edge8_Node000006_Node000004" class="edge">
<title>Node6&#45;&gt;Node4</title>
<g id="a_edge8_Node000006_Node000004"><a xlink:title=" ">
<path fill="none" stroke="#63b8ff" d="M945.98,-403.74C862.39,-394.52 624.62,-362.41 624.62,-295.12 624.62,-295.12 624.62,-295.12 624.62,-236.38 624.62,-204.98 624.62,-168.62 624.62,-146.18"/>
<polygon fill="#63b8ff" stroke="#63b8ff" points="628.13,-146.23 624.63,-136.23 621.13,-146.23 628.13,-146.23"/>
</a>
</g>
</g>
<!-- Node6&#45;&gt;Node5 -->
<g id="edge7_Node000006_Node000005" class="edge">
<title>Node6&#45;&gt;Node5</title>
<g id="a_edge7_Node000006_Node000005"><a xlink:title=" ">
<path fill="none" stroke="#63b8ff" d="M1003.2,-402.22C1077.79,-389.91 1272.62,-352.3 1272.62,-295.12 1272.62,-295.12 1272.62,-295.12 1272.62,-179.62 1272.62,-119.61 1264.13,-93.42 1216.62,-56.75 1182.14,-30.13 1056.07,-18.1 992.22,-13.61"/>
<polygon fill="#63b8ff" stroke="#63b8ff" points="992.79,-10.14 982.57,-12.96 992.32,-17.13 992.79,-10.14"/>
</a>
</g>
</g>
<!-- Node7 -->
<g id="Node000007" class="node">
<title>Node7</title>
<g id="a_Node000007"><a xlink:title=" ">
<polygon fill="#e0e0e0" stroke="#999999" points="886.12,-77.5 831.12,-77.5 831.12,-56.75 886.12,-56.75 886.12,-77.5"/>
<text text-anchor="middle" x="858.62" y="-64" font-family="Helvetica,sans-Serif" font-size="10.00">stddef.h</text>
</a>
</g>
</g>
<!-- Node6&#45;&gt;Node7 -->
<g id="edge6_Node000006_Node000007" class="edge">
<title>Node6&#45;&gt;Node7</title>
<g id="a_edge6_Node000006_Node000007"><a xlink:title=" ">
<path fill="none" stroke="#63b8ff" d="M1003.37,-396.81C1041.94,-381.61 1105.62,-348.44 1105.62,-295.12 1105.62,-295.12 1105.62,-295.12 1105.62,-236.38 1105.62,-202.91 1092.86,-194.33 1069.62,-170.25 1061.02,-161.33 984.76,-118.94 973.62,-113.5 948.77,-101.34 919.79,-89.93 897.14,-81.58"/>
<polygon fill="#63b8ff" stroke="#63b8ff" points="898.59,-78.39 887.99,-78.26 896.2,-84.97 898.59,-78.39"/>
</a>
</g>
</g>
<!-- Node8 -->
<g id="Node000008" class="node">
<title>Node8</title>
<g id="a_Node000008"><a xlink:href="architecture_8h.html" target="_top" xlink:title="Platform&#45;independent access to architecture details.">
<polygon fill="white" stroke="#666666" points="558.38,-247.75 474.88,-247.75 474.88,-227 558.38,-227 558.38,-247.75"/>
<text text-anchor="middle" x="516.62" y="-234.25" font-family="Helvetica,sans-Serif" font-size="10.00">architecture.h</text>
</a>
</g>
</g>
<!-- Node6&#45;&gt;Node8 -->
<g id="edge9_Node000006_Node000008" class="edge">
<title>Node6&#45;&gt;Node8</title>
<g id="a_edge9_Node000006_Node000008"><a xlink:title=" ">
<path fill="none" stroke="#63b8ff" d="M946.01,-405.88C870.5,-403.47 667.8,-394.05 610.62,-361.25 568.85,-337.28 539.48,-286.62 525.63,-258.4"/>
<polygon fill="#63b8ff" stroke="#63b8ff" points="528.88,-257.07 521.45,-249.52 522.54,-260.06 528.88,-257.07"/>
</a>
</g>
</g>
<!-- Node12 -->
<g id="Node000012" class="node">
<title>Node12</title>
<g id="a_Node000012"><a xlink:href="kernel__defines_8h.html" target="_top" xlink:title="Common macros and compiler attributes/pragmas configuration.">
<polygon fill="white" stroke="#666666" points="1229.75,-191 1133.5,-191 1133.5,-170.25 1229.75,-170.25 1229.75,-191"/>
<text text-anchor="middle" x="1181.62" y="-177.5" font-family="Helvetica,sans-Serif" font-size="10.00">kernel_defines.h</text>
</a>
</g>
</g>
<!-- Node6&#45;&gt;Node12 -->
<g id="edge14_Node000006_Node000012" class="edge">
<title>Node6&#45;&gt;Node12</title>
<g id="a_edge14_Node000006_Node000012"><a xlink:title=" ">
<path fill="none" stroke="#63b8ff" d="M1003.27,-405.14C1035.64,-401.96 1087.93,-392.03 1119.62,-361.25 1164.5,-317.66 1176.91,-240.08 1180.33,-202.79"/>
<polygon fill="#63b8ff" stroke="#63b8ff" points="1183.82,-203.15 1181.09,-192.91 1176.84,-202.61 1183.82,-203.15"/>
</a>
</g>
</g>
<!-- Node18 -->
<g id="Node000018" class="node">
<title>Node18</title>
<g id="a_Node000018"><a xlink:href="list_8h.html" target="_top" xlink:title="Intrusive linked list.">
<polygon fill="white" stroke="#666666" points="964.62,-134.25 924.62,-134.25 924.62,-113.5 964.62,-113.5 964.62,-134.25"/>
<text text-anchor="middle" x="944.62" y="-120.75" font-family="Helvetica,sans-Serif" font-size="10.00">list.h</text>
</a>
</g>
</g>
<!-- Node6&#45;&gt;Node18 -->
<g id="edge25_Node000006_Node000018" class="edge">
<title>Node6&#45;&gt;Node18</title>
<g id="a_edge25_Node000006_Node000018"><a xlink:title=" ">
<path fill="none" stroke="#63b8ff" d="M991.25,-396.96C1018,-380.03 1067.62,-342.26 1067.62,-295.12 1067.62,-295.12 1067.62,-295.12 1067.62,-236.38 1067.62,-205.8 1068.78,-193.25 1048.62,-170.25 1038.57,-158.78 1002.62,-144.58 975.78,-135.15"/>
<polygon fill="#63b8ff" stroke="#63b8ff" points="976.97,-131.86 966.37,-131.92 974.69,-138.48 976.97,-131.86"/>
</a>
</g>
</g>
<!-- Node19 -->
<g id="Node000019" class="node">
<title>Node19</title>
<g id="a_Node000019"><a xlink:href="core_2include_2thread_8h.html" target="_top" xlink:title="Threading API.">
<polygon fill="white" stroke="#666666" points="909.88,-361.25 853.38,-361.25 853.38,-340.5 909.88,-340.5 909.88,-361.25"/>
<text text-anchor="middle" x="881.62" y="-347.75" font-family="Helvetica,sans-Serif" font-size="10.00">thread.h</text>
</a>
</g>
</g>
<!-- Node6&#45;&gt;Node19 -->
<g id="edge26_Node000006_Node000019" class="edge">
<title>Node6&#45;&gt;Node19</title>
<g id="a_edge26_Node000006_Node000019"><a xlink:title=" ">
<path fill="none" stroke="#63b8ff" d="M958,-396.84C944.11,-388.66 924.06,-376.86 907.99,-367.4"/>
<polygon fill="#63b8ff" stroke="#63b8ff" points="909.81,-364.4 899.41,-362.35 906.25,-370.44 909.81,-364.4"/>
</a>
</g>
</g>
<!-- Node8&#45;&gt;Node5 -->
<g id="edge10_Node000008_Node000005" class="edge">
<title>Node8&#45;&gt;Node5</title>
<g id="a_edge10_Node000008_Node000005"><a xlink:title=" ">
<path fill="none" stroke="#63b8ff" d="M519.31,-226.77C526.25,-203.69 547,-144.73 585.62,-113.5 685.51,-32.74 844.86,-15.71 916.98,-12.22"/>
<polygon fill="#63b8ff" stroke="#63b8ff" points="916.83,-15.73 926.68,-11.81 916.54,-8.73 916.83,-15.73"/>
</a>
</g>
</g>
<!-- Node9 -->
<g id="Node000009" class="node">
<title>Node9</title>
<g id="a_Node000009"><a xlink:href="inttypes_8h.html" target="_top" xlink:title="Adds include for missing inttype definitions.">
<polygon fill="white" stroke="#666666" points="717,-191 652.25,-191 652.25,-170.25 717,-170.25 717,-191"/>
<text text-anchor="middle" x="684.62" y="-177.5" font-family="Helvetica,sans-Serif" font-size="10.00">inttypes.h</text>
</a>
</g>
</g>
<!-- Node8&#45;&gt;Node9 -->
<g id="edge11_Node000008_Node000009" class="edge">
<title>Node8&#45;&gt;Node9</title>
<g id="a_edge11_Node000008_Node000009"><a xlink:title=" ">
<path fill="none" stroke="#63b8ff" d="M546.66,-226.59C573.81,-217.74 614.01,-204.64 644.01,-194.86"/>
<polygon fill="#63b8ff" stroke="#63b8ff" points="644.7,-198.32 653.13,-191.89 642.54,-191.66 644.7,-198.32"/>
</a>
</g>
</g>
<!-- Node10 -->
<g id="Node000010" class="node">
<title>Node10</title>
<g id="a_Node000010"><a xlink:title=" ">
<polygon fill="#e0e0e0" stroke="#999999" points="362,-77.5 309.25,-77.5 309.25,-56.75 362,-56.75 362,-77.5"/>
<text text-anchor="middle" x="335.62" y="-64" font-family="Helvetica,sans-Serif" font-size="10.00">limits.h</text>
</a>
</g>
</g>
<!-- Node8&#45;&gt;Node10 -->
<g id="edge12_Node000008_Node000010" class="edge">
<title>Node8&#45;&gt;Node10</title>
<g id="a_edge12_Node000008_Node000010"><a xlink:title=" ">
<path fill="none" stroke="#63b8ff" d="M474.63,-229.08C450.3,-222.82 420.79,-211.43 401.62,-191 376.86,-164.61 394.72,-144.85 376.62,-113.5 370.84,-103.48 362.55,-93.77 354.94,-85.92"/>
<polygon fill="#63b8ff" stroke="#63b8ff" points="357.47,-83.49 347.88,-78.99 352.56,-88.49 357.47,-83.49"/>
</a>
</g>
</g>
<!-- Node11 -->
<g id="Node000011" class="node">
<title>Node11</title>
<g id="a_Node000011"><a xlink:title=" ">
<polygon fill="#e0e0e0" stroke="#999999" points="520.5,-191 410.75,-191 410.75,-170.25 520.5,-170.25 520.5,-191"/>
<text text-anchor="middle" x="465.62" y="-177.5" font-family="Helvetica,sans-Serif" font-size="10.00">architecture_arch.h</text>
</a>
</g>
</g>
<!-- Node8&#45;&gt;Node11 -->
<g id="edge13_Node000008_Node000011" class="edge">
<title>Node8&#45;&gt;Node11</title>
<g id="a_edge13_Node000008_Node000011"><a xlink:title=" ">
<path fill="none" stroke="#63b8ff" d="M507.51,-226.59C500.54,-219.11 490.76,-208.61 482.39,-199.63"/>
<polygon fill="#63b8ff" stroke="#63b8ff" points="485.07,-197.37 475.7,-192.44 479.95,-202.14 485.07,-197.37"/>
</a>
</g>
</g>
<!-- Node13 -->
<g id="Node000013" class="node">
<title>Node13</title>
<g id="a_Node000013"><a xlink:href="modules_8h.html" target="_top" xlink:title="Common macros and compiler attributes/pragmas configuration.">
<polygon fill="white" stroke="#666666" points="1341.12,-77.5 1274.12,-77.5 1274.12,-56.75 1341.12,-56.75 1341.12,-77.5"/>
<text text-anchor="middle" x="1307.62" y="-64" font-family="Helvetica,sans-Serif" font-size="10.00">modules.h</text>
</a>
</g>
</g>
<!-- Node12&#45;&gt;Node13 -->
<g id="edge15_Node000012_Node000013" class="edge">
<title>Node12&#45;&gt;Node13</title>
<g id="a_edge15_Node000012_Node000013"><a xlink:title=" ">
<path fill="none" stroke="#63b8ff" d="M1192.37,-170.12C1213.56,-151.37 1261.01,-109.38 1287.95,-85.53"/>
<polygon fill="#63b8ff" stroke="#63b8ff" points="1290.25,-88.18 1295.42,-78.93 1285.61,-82.93 1290.25,-88.18"/>
</a>
</g>
</g>
<!-- Node14 -->
<g id="Node000014" class="node">
<title>Node14</title>
<g id="a_Node000014"><a xlink:href="riot__version_8h.html" target="_top" xlink:title="Common macros and compiler attributes/pragmas configuration.">
<polygon fill="white" stroke="#666666" points="1208,-77.5 1125.25,-77.5 1125.25,-56.75 1208,-56.75 1208,-77.5"/>
<text text-anchor="middle" x="1166.62" y="-64" font-family="Helvetica,sans-Serif" font-size="10.00">riot_version.h</text>
</a>
</g>
</g>
<!-- Node12&#45;&gt;Node14 -->
<g id="edge16_Node000012_Node000014" class="edge">
<title>Node12&#45;&gt;Node14</title>
<g id="a_edge16_Node000012_Node000014"><a xlink:title=" ">
<path fill="none" stroke="#63b8ff" d="M1192.62,-169.95C1205.68,-157.23 1224.62,-134.08 1215.62,-113.5 1210.61,-102.03 1201.11,-92.16 1191.79,-84.58"/>
<polygon fill="#63b8ff" stroke="#63b8ff" points="1194.03,-81.89 1183.93,-78.7 1189.84,-87.49 1194.03,-81.89"/>
</a>
</g>
</g>
<!-- Node15 -->
<g id="Node000015" class="node">
<title>Node15</title>
<g id="a_Node000015"><a xlink:href="compiler__hints_8h.html" target="_top" xlink:title="Common macros and compiler attributes/pragmas configuration.">
<polygon fill="white" stroke="#666666" points="1206.12,-134.25 1109.12,-134.25 1109.12,-113.5 1206.12,-113.5 1206.12,-134.25"/>
<text text-anchor="middle" x="1157.62" y="-120.75" font-family="Helvetica,sans-Serif" font-size="10.00">compiler_hints.h</text>
</a>
</g>
</g>
<!-- Node12&#45;&gt;Node15 -->
<g id="edge18_Node000012_Node000015" class="edge">
<title>Node12&#45;&gt;Node15</title>
<g id="a_edge18_Node000012_Node000015"><a xlink:title=" ">
<path fill="none" stroke="#63b8ff" d="M1177.33,-169.84C1174.3,-162.91 1170.12,-153.37 1166.39,-144.86"/>
<polygon fill="#63b8ff" stroke="#63b8ff" points="1169.71,-143.72 1162.49,-135.96 1163.3,-146.53 1169.71,-143.72"/>
</a>
</g>
</g>
<!-- Node17 -->
<g id="Node000017" class="node">
<title>Node17</title>
<g id="a_Node000017"><a xlink:href="container_8h.html" target="_top" xlink:title="Common macros and compiler attributes/pragmas configuration.">
<polygon fill="white" stroke="#666666" points="1091,-134.25 1020.25,-134.25 1020.25,-113.5 1091,-113.5 1091,-134.25"/>
<text text-anchor="middle" x="1055.62" y="-120.75" font-family="Helvetica,sans-Serif" font-size="10.00">container.h</text>
</a>
</g>
</g>
<!-- Node12&#45;&gt;Node17 -->
<g id="edge22_Node000012_Node000017" class="edge">
<title>Node12&#45;&gt;Node17</title>
<g id="a_edge22_Node000012_Node000017"><a xlink:title=" ">
<path fill="none" stroke="#63b8ff" d="M1159.1,-169.84C1139.39,-161.27 1110.52,-148.73 1088.27,-139.06"/>
<polygon fill="#63b8ff" stroke="#63b8ff" points="1089.91,-135.96 1079.34,-135.18 1087.12,-142.38 1089.91,-135.96"/>
</a>
</g>
</g>
<!-- Node14&#45;&gt;Node5 -->
<g id="edge17_Node000014_Node000005" class="edge">
<title>Node14&#45;&gt;Node5</title>
<g id="a_edge17_Node000014_Node000005"><a xlink:title=" ">
<path fill="none" stroke="#63b8ff" d="M1128.72,-56.34C1090.13,-46.37 1030.66,-31.01 992.19,-21.08"/>
<polygon fill="#63b8ff" stroke="#63b8ff" points="993.48,-17.79 982.92,-18.68 991.73,-24.57 993.48,-17.79"/>
</a>
</g>
</g>
<!-- Node15&#45;&gt;Node5 -->
<g id="edge21_Node000015_Node000005" class="edge">
<title>Node15&#45;&gt;Node5</title>
<g id="a_edge21_Node000015_Node000005"><a xlink:title=" ">
<path fill="none" stroke="#63b8ff" d="M1142.21,-113.02C1121.16,-99.7 1082.09,-75.47 1047.62,-56.75 1027.53,-45.83 1004.42,-34.55 986.27,-25.97"/>
<polygon fill="#63b8ff" stroke="#63b8ff" points="987.86,-22.85 977.32,-21.77 984.88,-29.19 987.86,-22.85"/>
</a>
</g>
</g>
<!-- Node16 -->
<g id="Node000016" class="node">
<title>Node16</title>
<g id="a_Node000016"><a xlink:href="assert_8h.html" target="_top" xlink:title="POSIX.1&#45;2008 compliant version of the assert macro.">
<polygon fill="white" stroke="#666666" points="1038.12,-77.5 983.12,-77.5 983.12,-56.75 1038.12,-56.75 1038.12,-77.5"/>
<text text-anchor="middle" x="1010.62" y="-64" font-family="Helvetica,sans-Serif" font-size="10.00">assert.h</text>
</a>
</g>
</g>
<!-- Node15&#45;&gt;Node16 -->
<g id="edge19_Node000015_Node000016" class="edge">
<title>Node15&#45;&gt;Node16</title>
<g id="a_edge19_Node000015_Node000016"><a xlink:title=" ">
<path fill="none" stroke="#63b8ff" d="M1131.34,-113.09C1107.93,-104.37 1073.44,-91.52 1047.31,-81.79"/>
<polygon fill="#63b8ff" stroke="#63b8ff" points="1048.69,-78.57 1038.1,-78.36 1046.25,-85.13 1048.69,-78.57"/>
</a>
</g>
</g>
<!-- Node16&#45;&gt;Node5 -->
<g id="edge20_Node000016_Node000005" class="edge">
<title>Node16&#45;&gt;Node5</title>
<g id="a_edge20_Node000016_Node000005"><a xlink:title=" ">
<path fill="none" stroke="#63b8ff" d="M1000.61,-56.34C992.89,-48.78 982,-38.14 972.75,-29.1"/>
<polygon fill="#63b8ff" stroke="#63b8ff" points="975.23,-26.62 965.63,-22.14 970.34,-31.63 975.23,-26.62"/>
</a>
</g>
</g>
<!-- Node17&#45;&gt;Node5 -->
<g id="edge24_Node000017_Node000005" class="edge">
<title>Node17&#45;&gt;Node5</title>
<g id="a_edge24_Node000017_Node000005"><a xlink:title=" ">
<path fill="none" stroke="#63b8ff" d="M1026.8,-113.09C1009.39,-105.81 988.05,-94.21 974.62,-77.5 964.17,-64.48 959.17,-46.07 956.78,-31.98"/>
<polygon fill="#63b8ff" stroke="#63b8ff" points="960.3,-31.89 955.49,-22.45 953.37,-32.83 960.3,-31.89"/>
</a>
</g>
</g>
<!-- Node17&#45;&gt;Node7 -->
<g id="edge23_Node000017_Node000007" class="edge">
<title>Node17&#45;&gt;Node7</title>
<g id="a_edge23_Node000017_Node000007"><a xlink:title=" ">
<path fill="none" stroke="#63b8ff" d="M1020.41,-113.09C985.85,-103.48 933.28,-88.87 897.52,-78.93"/>
<polygon fill="#63b8ff" stroke="#63b8ff" points="898.57,-75.59 888,-76.29 896.7,-82.34 898.57,-75.59"/>
</a>
</g>
</g>
<!-- Node20 -->
<g id="Node000020" class="node">
<title>Node20</title>
<g id="a_Node000020"><a xlink:href="clist_8h.html" target="_top" xlink:title="Circular linked list.">
<polygon fill="white" stroke="#666666" points="1039.25,-191 994,-191 994,-170.25 1039.25,-170.25 1039.25,-191"/>
<text text-anchor="middle" x="1016.62" y="-177.5" font-family="Helvetica,sans-Serif" font-size="10.00">clist.h</text>
</a>
</g>
</g>
<!-- Node19&#45;&gt;Node20 -->
<g id="edge27_Node000019_Node000020" class="edge">
<title>Node19&#45;&gt;Node20</title>
<g id="a_edge27_Node000019_Node000020"><a xlink:title=" ">
<path fill="none" stroke="#63b8ff" d="M910.34,-348.63C940.67,-345.62 987.28,-335.81 1010.62,-304.5 1032.78,-274.79 1027.66,-228.9 1022.06,-202.42"/>
<polygon fill="#63b8ff" stroke="#63b8ff" points="1025.52,-201.84 1019.81,-192.91 1018.7,-203.45 1025.52,-201.84"/>
</a>
</g>
</g>
<!-- Node21 -->
<g id="Node000021" class="node">
<title>Node21</title>
<g id="a_Node000021"><a xlink:href="cib_8h.html" target="_top" xlink:title="Circular integer buffer interface.">
<polygon fill="white" stroke="#666666" points="844.25,-247.75 805,-247.75 805,-227 844.25,-227 844.25,-247.75"/>
<text text-anchor="middle" x="824.62" y="-234.25" font-family="Helvetica,sans-Serif" font-size="10.00">cib.h</text>
</a>
</g>
</g>
<!-- Node19&#45;&gt;Node21 -->
<g id="edge31_Node000019_Node000021" class="edge">
<title>Node19&#45;&gt;Node21</title>
<g id="a_edge31_Node000019_Node000021"><a xlink:title=" ">
<path fill="none" stroke="#63b8ff" d="M852.97,-347.88C824.68,-344.2 782.82,-333.81 762.62,-304.5 749.21,-285.03 772.89,-265.65 794.74,-252.95"/>
<polygon fill="#63b8ff" stroke="#63b8ff" points="796.4,-256.03 803.51,-248.17 793.05,-249.88 796.4,-256.03"/>
</a>
</g>
</g>
<!-- Node22 -->
<g id="Node000022" class="node">
<title>Node22</title>
<g id="a_Node000022"><a xlink:href="core_2include_2msg_8h.html" target="_top" xlink:title="Messaging API for inter process communication.">
<polygon fill="white" stroke="#666666" points="715.62,-304.5 669.62,-304.5 669.62,-283.75 715.62,-283.75 715.62,-304.5"/>
<text text-anchor="middle" x="692.62" y="-291" font-family="Helvetica,sans-Serif" font-size="10.00">msg.h</text>
</a>
</g>
</g>
<!-- Node19&#45;&gt;Node22 -->
<g id="edge33_Node000019_Node000022" class="edge">
<title>Node19&#45;&gt;Node22</title>
<g id="a_edge33_Node000019_Node000022"><a xlink:title=" ">
<path fill="none" stroke="#63b8ff" d="M852.92,-341.56C819.1,-331.76 762.94,-315.5 726.88,-305.05"/>
<polygon fill="#63b8ff" stroke="#63b8ff" points="727.96,-301.72 717.38,-302.3 726.01,-308.44 727.96,-301.72"/>
</a>
</g>
</g>
<!-- Node23 -->
<g id="Node000023" class="node">
<title>Node23</title>
<g id="a_Node000023"><a xlink:href="sched_8h.html" target="_top" xlink:title="Scheduler API definition.">
<polygon fill="white" stroke="#666666" points="915.38,-247.75 861.88,-247.75 861.88,-227 915.38,-227 915.38,-247.75"/>
<text text-anchor="middle" x="888.62" y="-234.25" font-family="Helvetica,sans-Serif" font-size="10.00">sched.h</text>
</a>
</g>
</g>
<!-- Node19&#45;&gt;Node23 -->
<g id="edge42_Node000019_Node000023" class="edge">
<title>Node19&#45;&gt;Node23</title>
<g id="a_edge42_Node000019_Node000023"><a xlink:title=" ">
<path fill="none" stroke="#63b8ff" d="M882.22,-340.37C883.34,-322.52 885.79,-283.61 887.31,-259.34"/>
<polygon fill="#63b8ff" stroke="#63b8ff" points="890.78,-259.89 887.91,-249.69 883.8,-259.45 890.78,-259.89"/>
</a>
</g>
</g>
<!-- Node25 -->
<g id="Node000025" class="node">
<title>Node25</title>
<g id="a_Node000025"><a xlink:href="thread__config_8h.html" target="_top" xlink:title="Thread configuration defines.">
<polygon fill="white" stroke="#666666" points="1001.5,-304.5 909.75,-304.5 909.75,-283.75 1001.5,-283.75 1001.5,-304.5"/>
<text text-anchor="middle" x="955.62" y="-291" font-family="Helvetica,sans-Serif" font-size="10.00">thread_config.h</text>
</a>
</g>
</g>
<!-- Node19&#45;&gt;Node25 -->
<g id="edge43_Node000019_Node000025" class="edge">
<title>Node19&#45;&gt;Node25</title>
<g id="a_edge43_Node000019_Node000025"><a xlink:title=" ">
<path fill="none" stroke="#63b8ff" d="M894.85,-340.09C905.59,-332.15 920.95,-320.78 933.54,-311.46"/>
<polygon fill="#63b8ff" stroke="#63b8ff" points="935.34,-314.49 941.29,-305.73 931.17,-308.86 935.34,-314.49"/>
</a>
</g>
</g>
<!-- Node27 -->
<g id="Node000027" class="node">
<title>Node27</title>
<g id="a_Node000027"><a xlink:title=" ">
<polygon fill="#e0e0e0" stroke="#999999" points="854,-304.5 771.25,-304.5 771.25,-283.75 854,-283.75 854,-304.5"/>
<text text-anchor="middle" x="812.62" y="-291" font-family="Helvetica,sans-Serif" font-size="10.00">thread_arch.h</text>
</a>
</g>
</g>
<!-- Node19&#45;&gt;Node27 -->
<g id="edge46_Node000019_Node000027" class="edge">
<title>Node19&#45;&gt;Node27</title>
<g id="a_edge46_Node000019_Node000027"><a xlink:title=" ">
<path fill="none" stroke="#63b8ff" d="M869.29,-340.09C859.38,-332.22 845.24,-321 833.56,-311.74"/>
<polygon fill="#63b8ff" stroke="#63b8ff" points="836.05,-309.24 826.04,-305.77 831.7,-314.73 836.05,-309.24"/>
</a>
</g>
</g>
<!-- Node20&#45;&gt;Node4 -->
<g id="edge28_Node000020_Node000004" class="edge">
<title>Node20&#45;&gt;Node4</title>
<g id="a_edge28_Node000020_Node000004"><a xlink:title=" ">
<path fill="none" stroke="#63b8ff" d="M993.71,-172.23C991,-171.49 988.26,-170.81 985.62,-170.25 871.67,-146.04 734.55,-133.16 666.78,-127.85"/>
<polygon fill="#63b8ff" stroke="#63b8ff" points="667.09,-124.37 656.85,-127.1 666.56,-131.35 667.09,-124.37"/>
</a>
</g>
</g>
<!-- Node20&#45;&gt;Node7 -->
<g id="edge29_Node000020_Node000007" class="edge">
<title>Node20&#45;&gt;Node7</title>
<g id="a_edge29_Node000020_Node000007"><a xlink:title=" ">
<path fill="none" stroke="#63b8ff" d="M993.85,-172.61C972.32,-165.27 939.82,-152.29 915.62,-134.25 897.86,-121 881.79,-101.31 871.27,-86.86"/>
<polygon fill="#63b8ff" stroke="#63b8ff" points="874.42,-85.24 865.8,-79.07 868.69,-89.27 874.42,-85.24"/>
</a>
</g>
</g>
<!-- Node20&#45;&gt;Node18 -->
<g id="edge30_Node000020_Node000018" class="edge">
<title>Node20&#45;&gt;Node18</title>
<g id="a_edge30_Node000020_Node000018"><a xlink:title=" ">
<path fill="none" stroke="#63b8ff" d="M1003.75,-169.84C993.41,-161.97 978.66,-150.75 966.47,-141.49"/>
<polygon fill="#63b8ff" stroke="#63b8ff" points="968.67,-138.76 958.59,-135.49 964.43,-144.33 968.67,-138.76"/>
</a>
</g>
</g>
<!-- Node21&#45;&gt;Node16 -->
<g id="edge32_Node000021_Node000016" class="edge">
<title>Node21&#45;&gt;Node16</title>
<g id="a_edge32_Node000021_Node000016"><a xlink:title=" ">
<path fill="none" stroke="#63b8ff" d="M829.54,-226.83C841.51,-204.39 874.25,-147.61 915.62,-113.5 932.29,-99.76 953.8,-89.04 972.15,-81.48"/>
<polygon fill="#63b8ff" stroke="#63b8ff" points="973.37,-84.76 981.39,-77.84 970.81,-78.24 973.37,-84.76"/>
</a>
</g>
</g>
<!-- Node22&#45;&gt;Node4 -->
<g id="edge35_Node000022_Node000004" class="edge">
<title>Node22&#45;&gt;Node4</title>
<g id="a_edge35_Node000022_Node000004"><a xlink:title=" ">
<path fill="none" stroke="#63b8ff" d="M700.12,-283.38C715.98,-261.47 749.62,-207.34 725.62,-170.25 712.55,-150.05 688.12,-138.75 666.55,-132.48"/>
<polygon fill="#63b8ff" stroke="#63b8ff" points="667.64,-129.15 657.08,-130.03 665.88,-135.93 667.64,-129.15"/>
</a>
</g>
</g>
<!-- Node22&#45;&gt;Node5 -->
<g id="edge34_Node000022_Node000005" class="edge">
<title>Node22&#45;&gt;Node5</title>
<g id="a_edge34_Node000022_Node000005"><a xlink:title=" ">
<path fill="none" stroke="#63b8ff" d="M705.14,-283.42C715.46,-274.9 729.93,-261.73 739.62,-247.75 792.38,-171.7 754.65,-119.57 822.62,-56.75 848.51,-32.83 887.6,-21.44 916.53,-16.07"/>
<polygon fill="#63b8ff" stroke="#63b8ff" points="917.06,-19.53 926.35,-14.42 915.91,-12.62 917.06,-19.53"/>
</a>
</g>
</g>
<!-- Node22&#45;&gt;Node23 -->
<g id="edge36_Node000022_Node000023" class="edge">
<title>Node22&#45;&gt;Node23</title>
<g id="a_edge36_Node000022_Node000023"><a xlink:title=" ">
<path fill="none" stroke="#63b8ff" d="M715.88,-286.63C749.18,-277.33 810.81,-260.11 850.75,-248.96"/>
<polygon fill="#63b8ff" stroke="#63b8ff" points="851.49,-252.38 860.18,-246.32 849.61,-245.64 851.49,-252.38"/>
</a>
</g>
</g>
<!-- Node23&#45;&gt;Node7 -->
<g id="edge37_Node000023_Node000007" class="edge">
<title>Node23&#45;&gt;Node7</title>
<g id="a_edge37_Node000023_Node000007"><a xlink:title=" ">
<path fill="none" stroke="#63b8ff" d="M886.03,-226.69C883.63,-217.54 880.08,-203.4 877.62,-191 870.55,-155.3 864.55,-113.32 861.28,-88.82"/>
<polygon fill="#63b8ff" stroke="#63b8ff" points="864.8,-88.69 860.03,-79.23 857.85,-89.6 864.8,-88.69"/>
</a>
</g>
</g>
<!-- Node23&#45;&gt;Node9 -->
<g id="edge38_Node000023_Node000009" class="edge">
<title>Node23&#45;&gt;Node9</title>
<g id="a_edge38_Node000023_Node000009"><a xlink:title=" ">
<path fill="none" stroke="#63b8ff" d="M861.54,-229.1C827.46,-219.96 768.51,-204.14 728.1,-193.29"/>
<polygon fill="#63b8ff" stroke="#63b8ff" points="729.25,-189.98 718.69,-190.77 727.44,-196.74 729.25,-189.98"/>
</a>
</g>
</g>
<!-- Node23&#45;&gt;Node12 -->
<g id="edge39_Node000023_Node000012" class="edge">
<title>Node23&#45;&gt;Node12</title>
<g id="a_edge39_Node000023_Node000012"><a xlink:title=" ">
<path fill="none" stroke="#63b8ff" d="M915.7,-229.08C918.7,-228.34 921.72,-227.63 924.62,-227 991.85,-212.34 1069.75,-199.1 1122.01,-190.76"/>
<polygon fill="#63b8ff" stroke="#63b8ff" points="1122.26,-194.27 1131.59,-189.24 1121.16,-187.35 1122.26,-194.27"/>
</a>
</g>
</g>
<!-- Node23&#45;&gt;Node20 -->
<g id="edge41_Node000023_Node000020" class="edge">
<title>Node23&#45;&gt;Node20</title>
<g id="a_edge41_Node000023_Node000020"><a xlink:title=" ">
<path fill="none" stroke="#63b8ff" d="M911.51,-226.59C931.53,-218.02 960.86,-205.48 983.46,-195.81"/>
<polygon fill="#63b8ff" stroke="#63b8ff" points="984.73,-199.07 992.55,-191.92 981.98,-192.64 984.73,-199.07"/>
</a>
</g>
</g>
<!-- Node24 -->
<g id="Node000024" class="node">
<title>Node24</title>
<g id="a_Node000024"><a xlink:href="native__sched_8h.html" target="_top" xlink:title="Add definitions required on the native board.">
<polygon fill="white" stroke="#666666" points="976.38,-191 886.88,-191 886.88,-170.25 976.38,-170.25 976.38,-191"/>
<text text-anchor="middle" x="931.62" y="-177.5" font-family="Helvetica,sans-Serif" font-size="10.00">native_sched.h</text>
</a>
</g>
</g>
<!-- Node23&#45;&gt;Node24 -->
<g id="edge40_Node000023_Node000024" class="edge">
<title>Node23&#45;&gt;Node24</title>
<g id="a_edge40_Node000023_Node000024"><a xlink:title=" ">
<path fill="none" stroke="#63b8ff" d="M896.31,-226.59C902.06,-219.27 910.09,-209.04 917.04,-200.19"/>
<polygon fill="#63b8ff" stroke="#63b8ff" points="919.65,-202.55 923.07,-192.52 914.14,-198.22 919.65,-202.55"/>
</a>
</g>
</g>
<!-- Node25&#45;&gt;Node23 -->
<g id="edge45_Node000025_Node000023" class="edge">
<title>Node25&#45;&gt;Node23</title>
<g id="a_edge45_Node000025_Node000023"><a xlink:title=" ">
<path fill="none" stroke="#63b8ff" d="M943.65,-283.34C934.12,-275.55 920.56,-264.47 909.29,-255.26"/>
<polygon fill="#63b8ff" stroke="#63b8ff" points="911.63,-252.65 901.67,-249.04 907.2,-258.07 911.63,-252.65"/>
</a>
</g>
</g>
<!-- Node26 -->
<g id="Node000026" class="node">
<title>Node26</title>
<g id="a_Node000026"><a xlink:title=" ">
<polygon fill="#e0e0e0" stroke="#999999" points="1001.5,-247.75 933.75,-247.75 933.75,-227 1001.5,-227 1001.5,-247.75"/>
<text text-anchor="middle" x="967.62" y="-234.25" font-family="Helvetica,sans-Serif" font-size="10.00">cpu_conf.h</text>
</a>
</g>
</g>
<!-- Node25&#45;&gt;Node26 -->
<g id="edge44_Node000025_Node000026" class="edge">
<title>Node25&#45;&gt;Node26</title>
<g id="a_edge44_Node000025_Node000026"><a xlink:title=" ">
<path fill="none" stroke="#63b8ff" d="M957.77,-283.34C959.24,-276.64 961.24,-267.51 963.05,-259.23"/>
<polygon fill="#63b8ff" stroke="#63b8ff" points="966.45,-260.07 965.17,-249.56 959.61,-258.58 966.45,-260.07"/>
</a>
</g>
</g>
<!-- Node28&#45;&gt;Node10 -->
<g id="edge48_Node000028_Node000010" class="edge">
<title>Node28&#45;&gt;Node10</title>
<g id="a_edge48_Node000028_Node000010"><a xlink:title=" ">
<path fill="none" stroke="#63b8ff" d="M94.89,-115.03C149.06,-104.47 244.73,-85.83 297.69,-75.52"/>
<polygon fill="#63b8ff" stroke="#63b8ff" points="298.3,-78.96 307.45,-73.61 296.97,-72.09 298.3,-78.96"/>
</a>
</g>
</g>
<!-- Node29 -->
<g id="Node000029" class="node">
<title>Node29</title>
<g id="a_Node000029"><a xlink:title=" ">
<polygon fill="#e0e0e0" stroke="#999999" points="177.75,-77.5 99.5,-77.5 99.5,-56.75 177.75,-56.75 177.75,-77.5"/>
<text text-anchor="middle" x="138.62" y="-64" font-family="Helvetica,sans-Serif" font-size="10.00">periph_cpu.h</text>
</a>
</g>
</g>
<!-- Node28&#45;&gt;Node29 -->
<g id="edge49_Node000028_Node000029" class="edge">
<title>Node28&#45;&gt;Node29</title>
<g id="a_edge49_Node000028_Node000029"><a xlink:title=" ">
<path fill="none" stroke="#63b8ff" d="M69.64,-113.09C82.07,-104.99 99.95,-93.33 114.4,-83.92"/>
<polygon fill="#63b8ff" stroke="#63b8ff" points="116,-87.05 122.47,-78.65 112.18,-81.18 116,-87.05"/>
</a>
</g>
</g>
<!-- Node30 -->
<g id="Node000030" class="node">
<title>Node30</title>
<g id="a_Node000030"><a xlink:title=" ">
<polygon fill="#e0e0e0" stroke="#999999" points="81.25,-77.5 0,-77.5 0,-56.75 81.25,-56.75 81.25,-77.5"/>
<text text-anchor="middle" x="40.62" y="-64" font-family="Helvetica,sans-Serif" font-size="10.00">periph_conf.h</text>
</a>
</g>
</g>
<!-- Node28&#45;&gt;Node30 -->
<g id="edge50_Node000028_Node000030" class="edge">
<title>Node28&#45;&gt;Node30</title>
<g id="a_edge50_Node000028_Node000030"><a xlink:title=" ">
<path fill="none" stroke="#63b8ff" d="M52.12,-113.09C50.41,-106.39 48.08,-97.26 45.96,-88.98"/>
<polygon fill="#63b8ff" stroke="#63b8ff" points="49.35,-88.12 43.48,-79.29 42.57,-89.85 49.35,-88.12"/>
</a>
</g>
</g>
<!-- Node31&#45;&gt;Node5 -->
<g id="edge52_Node000031_Node000005" class="edge">
<title>Node31&#45;&gt;Node5</title>
<g id="a_edge52_Node000031_Node000005"><a xlink:title=" ">
<path fill="none" stroke="#63b8ff" d="M345.7,-113.18C368.33,-98.16 414.74,-69.64 458.62,-56.75 544.53,-31.52 816.01,-17.42 916.62,-12.95"/>
<polygon fill="#63b8ff" stroke="#63b8ff" points="916.67,-16.45 926.51,-12.52 916.37,-9.46 916.67,-16.45"/>
</a>
</g>
</g>
<!-- Node31&#45;&gt;Node7 -->
<g id="edge53_Node000031_Node000007" class="edge">
<title>Node31&#45;&gt;Node7</title>
<g id="a_edge53_Node000031_Node000007"><a xlink:title=" ">
<path fill="none" stroke="#63b8ff" d="M368.43,-118.98C384.46,-117.29 403.47,-115.29 420.62,-113.5 567.68,-98.14 742.53,-80.09 819.25,-72.18"/>
<polygon fill="#63b8ff" stroke="#63b8ff" points="819.6,-75.66 829.19,-71.16 818.88,-68.7 819.6,-75.66"/>
</a>
</g>
</g>
<!-- Node31&#45;&gt;Node10 -->
<g id="edge54_Node000031_Node000010" class="edge">
<title>Node31&#45;&gt;Node10</title>
<g id="a_edge54_Node000031_Node000010"><a xlink:title=" ">
<path fill="none" stroke="#63b8ff" d="M332.34,-113.09C332.82,-106.47 333.48,-97.47 334.08,-89.27"/>
<polygon fill="#63b8ff" stroke="#63b8ff" points="337.57,-89.57 334.81,-79.34 330.59,-89.06 337.57,-89.57"/>
</a>
</g>
</g>
<!-- Node31&#45;&gt;Node29 -->
<g id="edge56_Node000031_Node000029" class="edge">
<title>Node31&#45;&gt;Node29</title>
<g id="a_edge56_Node000031_Node000029"><a xlink:title=" ">
<path fill="none" stroke="#63b8ff" d="M297.12,-113.09C265.52,-104.12 218.54,-90.79 183.92,-80.98"/>
<polygon fill="#63b8ff" stroke="#63b8ff" points="185.19,-77.7 174.61,-78.33 183.28,-84.43 185.19,-77.7"/>
</a>
</g>
</g>
<!-- Node31&#45;&gt;Node30 -->
<g id="edge55_Node000031_Node000030" class="edge">
<title>Node31&#45;&gt;Node30</title>
<g id="a_edge55_Node000031_Node000030"><a xlink:title=" ">
<path fill="none" stroke="#63b8ff" d="M294.77,-115.94C243.58,-106.31 150.72,-88.84 92.54,-77.89"/>
<polygon fill="#63b8ff" stroke="#63b8ff" points="93.35,-74.48 82.87,-76.07 92.05,-81.36 93.35,-74.48"/>
</a>
</g>
</g>
<!-- Node32&#45;&gt;Node4 -->
<g id="edge61_Node000032_Node000004" class="edge">
<title>Node32&#45;&gt;Node4</title>
<g id="a_edge61_Node000032_Node000004"><a xlink:title=" ">
<path fill="none" stroke="#63b8ff" d="M265.52,-174.52C339.31,-164.32 504.62,-141.47 582.51,-130.7"/>
<polygon fill="#63b8ff" stroke="#63b8ff" points="582.86,-134.18 592.29,-129.35 581.9,-127.25 582.86,-134.18"/>
</a>
</g>
</g>
<!-- Node32&#45;&gt;Node5 -->
<g id="edge63_Node000032_Node000005" class="edge">
<title>Node32&#45;&gt;Node5</title>
<g id="a_edge63_Node000032_Node000005"><a xlink:title=" ">
<path fill="none" stroke="#63b8ff" d="M231.02,-169.77C237.49,-145.57 257.76,-83.33 300.62,-56.75 352.98,-24.29 784.5,-14.28 916.44,-11.96"/>
<polygon fill="#63b8ff" stroke="#63b8ff" points="916.45,-15.46 926.39,-11.8 916.33,-8.47 916.45,-15.46"/>
</a>
</g>
</g>
<!-- Node32&#45;&gt;Node7 -->
<g id="edge62_Node000032_Node000007" class="edge">
<title>Node32&#45;&gt;Node7</title>
<g id="a_edge62_Node000032_Node000007"><a xlink:title=" ">
<path fill="none" stroke="#63b8ff" d="M265.59,-172.55C330.35,-160.19 468.6,-134.06 585.62,-113.5 668.77,-98.89 766.39,-82.96 819.45,-74.4"/>
<polygon fill="#63b8ff" stroke="#63b8ff" points="819.88,-77.88 829.2,-72.83 818.77,-70.97 819.88,-77.88"/>
</a>
</g>
</g>
<!-- Node32&#45;&gt;Node28 -->
<g id="edge66_Node000032_Node000028" class="edge">
<title>Node32&#45;&gt;Node28</title>
<g id="a_edge66_Node000032_Node000028"><a xlink:title=" ">
<path fill="none" stroke="#63b8ff" d="M197.52,-169.84C169.4,-160.99 127.77,-147.89 96.69,-138.11"/>
<polygon fill="#63b8ff" stroke="#63b8ff" points="97.79,-134.79 87.2,-135.12 95.69,-141.47 97.79,-134.79"/>
</a>
</g>
</g>
<!-- Node32&#45;&gt;Node29 -->
<g id="edge64_Node000032_Node000029" class="edge">
<title>Node32&#45;&gt;Node29</title>
<g id="a_edge64_Node000032_Node000029"><a xlink:title=" ">
<path fill="none" stroke="#63b8ff" d="M220.95,-170.12C206.08,-151.7 173.1,-110.84 153.7,-86.8"/>
<polygon fill="#63b8ff" stroke="#63b8ff" points="156.49,-84.69 147.49,-79.1 151.04,-89.08 156.49,-84.69"/>
</a>
</g>
</g>
<!-- Node32&#45;&gt;Node30 -->
<g id="edge65_Node000032_Node000030" class="edge">
<title>Node32&#45;&gt;Node30</title>
<g id="a_edge65_Node000032_Node000030"><a xlink:title=" ">
<path fill="none" stroke="#63b8ff" d="M192.02,-177.62C134.91,-173.64 28.75,-162.55 5.62,-134.25 -6.49,-119.42 6.95,-99.75 20.53,-85.72"/>
<polygon fill="#63b8ff" stroke="#63b8ff" points="22.89,-88.31 27.69,-78.86 18.05,-83.26 22.89,-88.31"/>
</a>
</g>
</g>
<!-- Node33 -->
<g id="Node000033" class="node">
<title>Node33</title>
<g id="a_Node000033"><a xlink:href="endian_8h.html" target="_top" xlink:title="libc header for endian conversion">
<polygon fill="white" stroke="#666666" points="253.62,-77.5 195.62,-77.5 195.62,-56.75 253.62,-56.75 253.62,-77.5"/>
<text text-anchor="middle" x="224.62" y="-64" font-family="Helvetica,sans-Serif" font-size="10.00">endian.h</text>
</a>
</g>
</g>
<!-- Node32&#45;&gt;Node33 -->
<g id="edge58_Node000032_Node000033" class="edge">
<title>Node32&#45;&gt;Node33</title>
<g id="a_edge58_Node000032_Node000033"><a xlink:title=" ">
<path fill="none" stroke="#63b8ff" d="M228.28,-170.12C227.65,-152.35 226.26,-113.72 225.39,-89.43"/>
<polygon fill="#63b8ff" stroke="#63b8ff" points="228.89,-89.31 225.03,-79.44 221.89,-89.56 228.89,-89.31"/>
</a>
</g>
</g>
<!-- Node34 -->
<g id="Node000034" class="node">
<title>Node34</title>
<g id="a_Node000034"><a xlink:href="errno_8h.html" target="_top" xlink:title=" ">
<polygon fill="white" stroke="#666666" points="162.88,-134.25 112.38,-134.25 112.38,-113.5 162.88,-113.5 162.88,-134.25"/>
<text text-anchor="middle" x="137.62" y="-120.75" font-family="Helvetica,sans-Serif" font-size="10.00">errno.h</text>
</a>
</g>
</g>
<!-- Node32&#45;&gt;Node34 -->
<g id="edge60_Node000032_Node000034" class="edge">
<title>Node32&#45;&gt;Node34</title>
<g id="a_edge60_Node000032_Node000034"><a xlink:title=" ">
<path fill="none" stroke="#63b8ff" d="M212.36,-169.84C198.77,-161.66 179.15,-149.86 163.42,-140.4"/>
<polygon fill="#63b8ff" stroke="#63b8ff" points="165.42,-137.52 155.05,-135.36 161.81,-143.51 165.42,-137.52"/>
</a>
</g>
</g>
<!-- Node33&#45;&gt;Node5 -->
<g id="edge59_Node000033_Node000005" class="edge">
<title>Node33&#45;&gt;Node5</title>
<g id="a_edge59_Node000033_Node000005"><a xlink:title=" ">
<path fill="none" stroke="#63b8ff" d="M253.66,-59.18C258.31,-58.25 263.09,-57.39 267.62,-56.75 513.25,-22.06 812.12,-13.79 916.49,-11.91"/>
<polygon fill="#63b8ff" stroke="#63b8ff" points="916.5,-15.41 926.44,-11.74 916.38,-8.41 916.5,-15.41"/>
</a>
</g>
</g>
<!-- Node36&#45;&gt;Node5 -->
<g id="edge69_Node000036_Node000005" class="edge">
<title>Node36&#45;&gt;Node5</title>
<g id="a_edge69_Node000036_Node000005"><a xlink:title=" ">
<path fill="none" stroke="#63b8ff" d="M1442.93,-170.04C1463.69,-147.52 1509.64,-90.57 1478.62,-56.75 1445.91,-21.08 1108.03,-13.37 992.85,-11.77"/>
<polygon fill="#63b8ff" stroke="#63b8ff" points="993.04,-8.28 982.99,-11.65 992.95,-15.28 993.04,-8.28"/>
</a>
</g>
</g>
<!-- Node37 -->
<g id="Node000037" class="node">
<title>Node37</title>
<g id="a_Node000037"><a xlink:title=" ">
<polygon fill="#e0e0e0" stroke="#999999" points="1571.25,-134.25 1526,-134.25 1526,-113.5 1571.25,-113.5 1571.25,-134.25"/>
<text text-anchor="middle" x="1548.62" y="-120.75" font-family="Helvetica,sans-Serif" font-size="10.00">saul.h</text>
</a>
</g>
</g>
<!-- Node36&#45;&gt;Node37 -->
<g id="edge70_Node000036_Node000037" class="edge">
<title>Node36&#45;&gt;Node37</title>
<g id="a_edge70_Node000036_Node000037"><a xlink:title=" ">
<path fill="none" stroke="#63b8ff" d="M1454.18,-169.84C1471.93,-161.39 1497.81,-149.07 1517.99,-139.46"/>
<polygon fill="#63b8ff" stroke="#63b8ff" points="1519.35,-142.69 1526.88,-135.23 1516.34,-136.37 1519.35,-142.69"/>
</a>
</g>
</g>
<!-- Node38 -->
<g id="Node000038" class="node">
<title>Node38</title>
<g id="a_Node000038"><a xlink:href="phydat_8h.html" target="_top" xlink:title="Generic data container for physical data interface.">
<polygon fill="white" stroke="#666666" points="1399,-134.25 1340.25,-134.25 1340.25,-113.5 1399,-113.5 1399,-134.25"/>
<text text-anchor="middle" x="1369.62" y="-120.75" font-family="Helvetica,sans-Serif" font-size="10.00">phydat.h</text>
</a>
</g>
</g>
<!-- Node36&#45;&gt;Node38 -->
<g id="edge71_Node000036_Node000038" class="edge">
<title>Node36&#45;&gt;Node38</title>
<g id="a_edge71_Node000036_Node000038"><a xlink:title=" ">
<path fill="none" stroke="#63b8ff" d="M1422.18,-169.84C1413.17,-162.13 1400.39,-151.2 1389.69,-142.04"/>
<polygon fill="#63b8ff" stroke="#63b8ff" points="1391.99,-139.4 1382.12,-135.56 1387.44,-144.72 1391.99,-139.4"/>
</a>
</g>
</g>
<!-- Node38&#45;&gt;Node5 -->
<g id="edge73_Node000038_Node000005" class="edge">
<title>Node38&#45;&gt;Node5</title>
<g id="a_edge73_Node000038_Node000005"><a xlink:title=" ">
<path fill="none" stroke="#63b8ff" d="M1369.94,-113.01C1369.82,-98.29 1367.22,-70.8 1350.62,-56.75 1323.59,-33.86 1086.5,-18.56 992.64,-13.35"/>
<polygon fill="#63b8ff" stroke="#63b8ff" points="993.1,-9.87 982.92,-12.82 992.72,-16.86 993.1,-9.87"/>
</a>
</g>
</g>
<!-- Node38&#45;&gt;Node7 -->
<g id="edge72_Node000038_Node000007" class="edge">
<title>Node38&#45;&gt;Node7</title>
<g id="a_edge72_Node000038_Node000007"><a xlink:title=" ">
<path fill="none" stroke="#63b8ff" d="M1339.94,-119.69C1252.54,-110.33 996.1,-82.85 897.69,-72.31"/>
<polygon fill="#63b8ff" stroke="#63b8ff" points="898.32,-68.86 888,-71.27 897.57,-75.82 898.32,-68.86"/>
</a>
</g>
</g>
<!-- Node38&#45;&gt;Node13 -->
<g id="edge75_Node000038_Node000013" class="edge">
<title>Node38&#45;&gt;Node13</title>
<g id="a_edge75_Node000038_Node000013"><a xlink:title=" ">
<path fill="none" stroke="#63b8ff" d="M1358.54,-113.09C1349.81,-105.38 1337.43,-94.45 1327.06,-85.29"/>
<polygon fill="#63b8ff" stroke="#63b8ff" points="1329.56,-82.83 1319.75,-78.83 1324.93,-88.07 1329.56,-82.83"/>
</a>
</g>
</g>
<!-- Node39 -->
<g id="Node000039" class="node">
<title>Node39</title>
<g id="a_Node000039"><a xlink:title=" ">
<polygon fill="#e0e0e0" stroke="#999999" points="1469.38,-77.5 1397.88,-77.5 1397.88,-56.75 1469.38,-56.75 1469.38,-77.5"/>
<text text-anchor="middle" x="1433.62" y="-64" font-family="Helvetica,sans-Serif" font-size="10.00">sys/types.h</text>
</a>
</g>
</g>
<!-- Node38&#45;&gt;Node39 -->
<g id="edge74_Node000038_Node000039" class="edge">
<title>Node38&#45;&gt;Node39</title>
<g id="a_edge74_Node000038_Node000039"><a xlink:title=" ">
<path fill="none" stroke="#63b8ff" d="M1381.07,-113.09C1390.08,-105.38 1402.86,-94.45 1413.56,-85.29"/>
<polygon fill="#63b8ff" stroke="#63b8ff" points="1415.81,-87.97 1421.13,-78.81 1411.26,-82.65 1415.81,-87.97"/>
</a>
</g>
</g>
</g>
</svg>
