<?xml version="1.0" encoding="UTF-8" standalone="no"?>
<!DOCTYPE svg PUBLIC "-//W3C//DTD SVG 1.1//EN"
 "http://www.w3.org/Graphics/SVG/1.1/DTD/svg11.dtd">
<!-- Generated by graphviz version 12.1.1 (0)
 -->
<!-- Title: drivers/lcd/include/lcd_internal.h Pages: 1 -->
<svg width="416pt" height="181pt"
 viewBox="0.00 0.00 416.00 180.50" xmlns="http://www.w3.org/2000/svg" xmlns:xlink="http://www.w3.org/1999/xlink">
<g id="graph0" class="graph" transform="scale(1 1) rotate(0) translate(4 176.5)">
<title>drivers/lcd/include/lcd_internal.h</title>
<!-- Node1 -->
<g id="Node000001" class="node">
<title>Node1</title>
<g id="a_Node000001"><a xlink:title="Device driver implementation for the lcd display controller.">
<polygon fill="#999999" stroke="#666666" points="185.62,-172.5 80.38,-172.5 80.38,-139 185.62,-139 185.62,-172.5"/>
<text text-anchor="start" x="88.38" y="-159" font-family="Helvetica,sans-Serif" font-size="10.00">drivers/lcd/include</text>
<text text-anchor="middle" x="133" y="-146.25" font-family="Helvetica,sans-Serif" font-size="10.00">/lcd_internal.h</text>
</a>
</g>
</g>
<!-- Node2 -->
<g id="Node000002" class="node">
<title>Node2</title>
<g id="a_Node000002"><a xlink:href="ili9341__internal_8h.html" target="_top" xlink:title="Device driver implementation for the ili9341 display controller.">
<polygon fill="white" stroke="#666666" points="124,-103 0,-103 0,-69.5 124,-69.5 124,-103"/>
<text text-anchor="start" x="8" y="-89.5" font-family="Helvetica,sans-Serif" font-size="10.00">drivers/ili9341/include</text>
<text text-anchor="middle" x="62" y="-76.75" font-family="Helvetica,sans-Serif" font-size="10.00">/ili9341_internal.h</text>
</a>
</g>
</g>
<!-- Node1&#45;&gt;Node2 -->
<g id="edge1_Node000001_Node000002" class="edge">
<title>Node1&#45;&gt;Node2</title>
<g id="a_edge1_Node000001_Node000002"><a xlink:title=" ">
<path fill="none" stroke="#63b8ff" d="M108.02,-131C98.31,-121.77 87.44,-111.44 78.71,-103.13"/>
<polygon fill="#63b8ff" stroke="#63b8ff" points="105.42,-133.36 115.08,-137.71 110.24,-128.28 105.42,-133.36"/>
</a>
</g>
</g>
<!-- Node3 -->
<g id="Node000003" class="node">
<title>Node3</title>
<g id="a_Node000003"><a xlink:href="st77xx__internal_8h.html" target="_top" xlink:title="Internal definitions that are common for all ST77xx controllers.">
<polygon fill="white" stroke="#666666" points="266,-103 142,-103 142,-69.5 266,-69.5 266,-103"/>
<text text-anchor="start" x="150" y="-89.5" font-family="Helvetica,sans-Serif" font-size="10.00">drivers/st77xx/include</text>
<text text-anchor="middle" x="204" y="-76.75" font-family="Helvetica,sans-Serif" font-size="10.00">/st77xx_internal.h</text>
</a>
</g>
</g>
<!-- Node1&#45;&gt;Node3 -->
<g id="edge2_Node000001_Node000003" class="edge">
<title>Node1&#45;&gt;Node3</title>
<g id="a_edge2_Node000001_Node000003"><a xlink:title=" ">
<path fill="none" stroke="#63b8ff" d="M157.98,-131C167.69,-121.77 178.56,-111.44 187.29,-103.13"/>
<polygon fill="#63b8ff" stroke="#63b8ff" points="155.76,-128.28 150.92,-137.71 160.58,-133.36 155.76,-128.28"/>
</a>
</g>
</g>
<!-- Node4 -->
<g id="Node000004" class="node">
<title>Node4</title>
<g id="a_Node000004"><a xlink:href="st7735__internal_8h.html" target="_top" xlink:title="Specific internal definitions for the ST7735 controller variant.">
<polygon fill="white" stroke="#666666" points="124,-33.5 0,-33.5 0,0 124,0 124,-33.5"/>
<text text-anchor="start" x="8" y="-20" font-family="Helvetica,sans-Serif" font-size="10.00">drivers/st77xx/include</text>
<text text-anchor="middle" x="62" y="-7.25" font-family="Helvetica,sans-Serif" font-size="10.00">/st7735_internal.h</text>
</a>
</g>
</g>
<!-- Node3&#45;&gt;Node4 -->
<g id="edge3_Node000003_Node000004" class="edge">
<title>Node3&#45;&gt;Node4</title>
<g id="a_edge3_Node000003_Node000004"><a xlink:title=" ">
<path fill="none" stroke="#63b8ff" d="M159.85,-64.26C139.17,-54.43 114.92,-42.91 95.74,-33.79"/>
<polygon fill="#63b8ff" stroke="#63b8ff" points="158.09,-67.3 168.62,-68.43 161.09,-60.98 158.09,-67.3"/>
</a>
</g>
</g>
<!-- Node5 -->
<g id="Node000005" class="node">
<title>Node5</title>
<g id="a_Node000005"><a xlink:href="st7789__internal_8h.html" target="_top" xlink:title="Specific internal definitions for the ST7789 controller variant.">
<polygon fill="white" stroke="#666666" points="266,-33.5 142,-33.5 142,0 266,0 266,-33.5"/>
<text text-anchor="start" x="150" y="-20" font-family="Helvetica,sans-Serif" font-size="10.00">drivers/st77xx/include</text>
<text text-anchor="middle" x="204" y="-7.25" font-family="Helvetica,sans-Serif" font-size="10.00">/st7789_internal.h</text>
</a>
</g>
</g>
<!-- Node3&#45;&gt;Node5 -->
<g id="edge4_Node000003_Node000005" class="edge">
<title>Node3&#45;&gt;Node5</title>
<g id="a_edge4_Node000003_Node000005"><a xlink:title=" ">
<path fill="none" stroke="#63b8ff" d="M204,-57.81C204,-49.59 204,-40.84 204,-33.63"/>
<polygon fill="#63b8ff" stroke="#63b8ff" points="200.5,-57.74 204,-67.74 207.5,-57.74 200.5,-57.74"/>
</a>
</g>
</g>
<!-- Node6 -->
<g id="Node000006" class="node">
<title>Node6</title>
<g id="a_Node000006"><a xlink:href="st7796__internal_8h.html" target="_top" xlink:title="Specific internal definitions for the ST7789 controller variant.">
<polygon fill="white" stroke="#666666" points="408,-33.5 284,-33.5 284,0 408,0 408,-33.5"/>
<text text-anchor="start" x="292" y="-20" font-family="Helvetica,sans-Serif" font-size="10.00">drivers/st77xx/include</text>
<text text-anchor="middle" x="346" y="-7.25" font-family="Helvetica,sans-Serif" font-size="10.00">/st7796_internal.h</text>
</a>
</g>
</g>
<!-- Node3&#45;&gt;Node6 -->
<g id="edge5_Node000003_Node000006" class="edge">
<title>Node3&#45;&gt;Node6</title>
<g id="a_edge5_Node000003_Node000006"><a xlink:title=" ">
<path fill="none" stroke="#63b8ff" d="M248.15,-64.26C268.83,-54.43 293.08,-42.91 312.26,-33.79"/>
<polygon fill="#63b8ff" stroke="#63b8ff" points="246.91,-60.98 239.38,-68.43 249.91,-67.3 246.91,-60.98"/>
</a>
</g>
</g>
</g>
</svg>
