<?xml version="1.0" encoding="UTF-8" standalone="no"?>
<!DOCTYPE svg PUBLIC "-//W3C//DTD SVG 1.1//EN"
 "http://www.w3.org/Graphics/SVG/1.1/DTD/svg11.dtd">
<!-- Generated by graphviz version 12.1.1 (0)
 -->
<!-- Title: drivers/include/lis2dh12.h Pages: 1 -->
<svg width="718pt" height="142pt"
 viewBox="0.00 0.00 717.88 142.25" xmlns="http://www.w3.org/2000/svg" xmlns:xlink="http://www.w3.org/1999/xlink">
<g id="graph0" class="graph" transform="scale(1 1) rotate(0) translate(4 138.25)">
<title>drivers/include/lis2dh12.h</title>
<!-- Node1 -->
<g id="Node000001" class="node">
<title>Node1</title>
<g id="a_Node000001"><a xlink:title="Interface definition for the STM LIS2DH12 accelerometer.">
<polygon fill="#999999" stroke="#666666" points="482.38,-134.25 341.12,-134.25 341.12,-113.5 482.38,-113.5 482.38,-134.25"/>
<text text-anchor="middle" x="411.75" y="-120.75" font-family="Helvetica,sans-Serif" font-size="10.00">drivers/include/lis2dh12.h</text>
</a>
</g>
</g>
<!-- Node2 -->
<g id="Node000002" class="node">
<title>Node2</title>
<g id="a_Node000002"><a xlink:title=" ">
<polygon fill="#e0e0e0" stroke="#999999" points="288.12,-20.75 235.38,-20.75 235.38,0 288.12,0 288.12,-20.75"/>
<text text-anchor="middle" x="261.75" y="-7.25" font-family="Helvetica,sans-Serif" font-size="10.00">stdint.h</text>
</a>
</g>
</g>
<!-- Node1&#45;&gt;Node2 -->
<g id="edge1_Node000001_Node000002" class="edge">
<title>Node1&#45;&gt;Node2</title>
<g id="a_edge1_Node000001_Node000002"><a xlink:title=" ">
<path fill="none" stroke="#63b8ff" d="M385.2,-113.05C365.93,-105.17 339.81,-92.89 319.75,-77.5 302.03,-63.9 285.63,-44.26 274.82,-29.92"/>
<polygon fill="#63b8ff" stroke="#63b8ff" points="277.9,-28.21 269.18,-22.2 272.25,-32.34 277.9,-28.21"/>
</a>
</g>
</g>
<!-- Node3 -->
<g id="Node000003" class="node">
<title>Node3</title>
<g id="a_Node000003"><a xlink:title=" ">
<polygon fill="#e0e0e0" stroke="#999999" points="577.25,-77.5 516.25,-77.5 516.25,-56.75 577.25,-56.75 577.25,-77.5"/>
<text text-anchor="middle" x="546.75" y="-64" font-family="Helvetica,sans-Serif" font-size="10.00">stdbool.h</text>
</a>
</g>
</g>
<!-- Node1&#45;&gt;Node3 -->
<g id="edge2_Node000001_Node000003" class="edge">
<title>Node1&#45;&gt;Node3</title>
<g id="a_edge2_Node000001_Node000003"><a xlink:title=" ">
<path fill="none" stroke="#63b8ff" d="M435.89,-113.09C457.19,-104.44 488.5,-91.75 512.42,-82.05"/>
<polygon fill="#63b8ff" stroke="#63b8ff" points="513.47,-85.4 521.42,-78.4 510.84,-78.91 513.47,-85.4"/>
</a>
</g>
</g>
<!-- Node4 -->
<g id="Node000004" class="node">
<title>Node4</title>
<g id="a_Node000004"><a xlink:href="drivers_2include_2saul_8h.html" target="_top" xlink:title="Definition of the generic [S]ensor [A]ctuator [U]ber [L]ayer.">
<polygon fill="white" stroke="#666666" points="214.38,-77.5 169.12,-77.5 169.12,-56.75 214.38,-56.75 214.38,-77.5"/>
<text text-anchor="middle" x="191.75" y="-64" font-family="Helvetica,sans-Serif" font-size="10.00">saul.h</text>
</a>
</g>
</g>
<!-- Node1&#45;&gt;Node4 -->
<g id="edge3_Node000001_Node000004" class="edge">
<title>Node1&#45;&gt;Node4</title>
<g id="a_edge3_Node000001_Node000004"><a xlink:title=" ">
<path fill="none" stroke="#63b8ff" d="M372.16,-113.02C330.48,-102.65 265.53,-86.49 225.98,-76.64"/>
<polygon fill="#63b8ff" stroke="#63b8ff" points="226.84,-73.25 216.29,-74.23 225.15,-80.04 226.84,-73.25"/>
</a>
</g>
</g>
<!-- Node8 -->
<g id="Node000008" class="node">
<title>Node8</title>
<g id="a_Node000008"><a xlink:href="lis2dh12__registers_8h.html" target="_top" xlink:title="LIS2DH12 register definitions.">
<polygon fill="white" stroke="#666666" points="709.88,-77.5 595.62,-77.5 595.62,-56.75 709.88,-56.75 709.88,-77.5"/>
<text text-anchor="middle" x="652.75" y="-64" font-family="Helvetica,sans-Serif" font-size="10.00">lis2dh12_registers.h</text>
</a>
</g>
</g>
<!-- Node1&#45;&gt;Node8 -->
<g id="edge8_Node000001_Node000008" class="edge">
<title>Node1&#45;&gt;Node8</title>
<g id="a_edge8_Node000001_Node000008"><a xlink:title=" ">
<path fill="none" stroke="#63b8ff" d="M455.11,-113.02C495.17,-103.92 554.85,-90.37 598.14,-80.53"/>
<polygon fill="#63b8ff" stroke="#63b8ff" points="598.88,-83.95 607.85,-78.32 597.33,-77.13 598.88,-83.95"/>
</a>
</g>
</g>
<!-- Node9 -->
<g id="Node000009" class="node">
<title>Node9</title>
<g id="a_Node000009"><a xlink:href="drivers_2include_2periph_2gpio_8h.html" target="_top" xlink:title="Low&#45;level GPIO peripheral driver interface definitions.">
<polygon fill="white" stroke="#666666" points="498.62,-77.5 418.88,-77.5 418.88,-56.75 498.62,-56.75 498.62,-77.5"/>
<text text-anchor="middle" x="458.75" y="-64" font-family="Helvetica,sans-Serif" font-size="10.00">periph/gpio.h</text>
</a>
</g>
</g>
<!-- Node1&#45;&gt;Node9 -->
<g id="edge9_Node000001_Node000009" class="edge">
<title>Node1&#45;&gt;Node9</title>
<g id="a_edge9_Node000001_Node000009"><a xlink:title=" ">
<path fill="none" stroke="#63b8ff" d="M420.15,-113.09C426.5,-105.69 435.4,-95.32 443.05,-86.41"/>
<polygon fill="#63b8ff" stroke="#63b8ff" points="445.58,-88.84 449.43,-78.98 440.26,-84.28 445.58,-88.84"/>
</a>
</g>
</g>
<!-- Node13 -->
<g id="Node000013" class="node">
<title>Node13</title>
<g id="a_Node000013"><a xlink:href="i2c_8h.html" target="_top" xlink:title="Low&#45;level I2C peripheral driver interface definition.">
<polygon fill="white" stroke="#666666" points="401.25,-77.5 328.25,-77.5 328.25,-56.75 401.25,-56.75 401.25,-77.5"/>
<text text-anchor="middle" x="364.75" y="-64" font-family="Helvetica,sans-Serif" font-size="10.00">periph/i2c.h</text>
</a>
</g>
</g>
<!-- Node1&#45;&gt;Node13 -->
<g id="edge13_Node000001_Node000013" class="edge">
<title>Node1&#45;&gt;Node13</title>
<g id="a_edge13_Node000001_Node000013"><a xlink:title=" ">
<path fill="none" stroke="#63b8ff" d="M403.35,-113.09C397,-105.69 388.1,-95.32 380.45,-86.41"/>
<polygon fill="#63b8ff" stroke="#63b8ff" points="383.24,-84.28 374.07,-78.98 377.92,-88.84 383.24,-84.28"/>
</a>
</g>
</g>
<!-- Node4&#45;&gt;Node2 -->
<g id="edge5_Node000004_Node000002" class="edge">
<title>Node4&#45;&gt;Node2</title>
<g id="a_edge5_Node000004_Node000002"><a xlink:title=" ">
<path fill="none" stroke="#63b8ff" d="M204.26,-56.34C214.32,-48.47 228.66,-37.25 240.51,-27.99"/>
<polygon fill="#63b8ff" stroke="#63b8ff" points="242.43,-30.93 248.15,-22.01 238.12,-25.41 242.43,-30.93"/>
</a>
</g>
</g>
<!-- Node5 -->
<g id="Node000005" class="node">
<title>Node5</title>
<g id="a_Node000005"><a xlink:href="errno_8h.html" target="_top" xlink:title=" ">
<polygon fill="white" stroke="#666666" points="217,-20.75 166.5,-20.75 166.5,0 217,0 217,-20.75"/>
<text text-anchor="middle" x="191.75" y="-7.25" font-family="Helvetica,sans-Serif" font-size="10.00">errno.h</text>
</a>
</g>
</g>
<!-- Node4&#45;&gt;Node5 -->
<g id="edge4_Node000004_Node000005" class="edge">
<title>Node4&#45;&gt;Node5</title>
<g id="a_edge4_Node000004_Node000005"><a xlink:title=" ">
<path fill="none" stroke="#63b8ff" d="M191.75,-56.34C191.75,-49.72 191.75,-40.72 191.75,-32.52"/>
<polygon fill="#63b8ff" stroke="#63b8ff" points="195.25,-32.59 191.75,-22.59 188.25,-32.59 195.25,-32.59"/>
</a>
</g>
</g>
<!-- Node6 -->
<g id="Node000006" class="node">
<title>Node6</title>
<g id="a_Node000006"><a xlink:title=" ">
<polygon fill="#e0e0e0" stroke="#999999" points="71.5,-20.75 0,-20.75 0,0 71.5,0 71.5,-20.75"/>
<text text-anchor="middle" x="35.75" y="-7.25" font-family="Helvetica,sans-Serif" font-size="10.00">sys/types.h</text>
</a>
</g>
</g>
<!-- Node4&#45;&gt;Node6 -->
<g id="edge6_Node000004_Node000006" class="edge">
<title>Node4&#45;&gt;Node6</title>
<g id="a_edge6_Node000004_Node000006"><a xlink:title=" ">
<path fill="none" stroke="#63b8ff" d="M168.73,-58.05C144.01,-49.37 104.28,-35.43 74.68,-25.04"/>
<polygon fill="#63b8ff" stroke="#63b8ff" points="75.91,-21.76 65.31,-21.75 73.59,-28.36 75.91,-21.76"/>
</a>
</g>
</g>
<!-- Node7 -->
<g id="Node000007" class="node">
<title>Node7</title>
<g id="a_Node000007"><a xlink:title=" ">
<polygon fill="#e0e0e0" stroke="#999999" points="148.12,-20.75 89.38,-20.75 89.38,0 148.12,0 148.12,-20.75"/>
<text text-anchor="middle" x="118.75" y="-7.25" font-family="Helvetica,sans-Serif" font-size="10.00">phydat.h</text>
</a>
</g>
</g>
<!-- Node4&#45;&gt;Node7 -->
<g id="edge7_Node000004_Node000007" class="edge">
<title>Node4&#45;&gt;Node7</title>
<g id="a_edge7_Node000004_Node000007"><a xlink:title=" ">
<path fill="none" stroke="#63b8ff" d="M178.7,-56.34C168.11,-48.4 152.96,-37.03 140.53,-27.71"/>
<polygon fill="#63b8ff" stroke="#63b8ff" points="143,-25.19 132.9,-21.99 138.8,-30.79 143,-25.19"/>
</a>
</g>
</g>
<!-- Node10 -->
<g id="Node000010" class="node">
<title>Node10</title>
<g id="a_Node000010"><a xlink:title=" ">
<polygon fill="#e0e0e0" stroke="#999999" points="432.12,-20.75 379.38,-20.75 379.38,0 432.12,0 432.12,-20.75"/>
<text text-anchor="middle" x="405.75" y="-7.25" font-family="Helvetica,sans-Serif" font-size="10.00">limits.h</text>
</a>
</g>
</g>
<!-- Node9&#45;&gt;Node10 -->
<g id="edge10_Node000009_Node000010" class="edge">
<title>Node9&#45;&gt;Node10</title>
<g id="a_edge10_Node000009_Node000010"><a xlink:title=" ">
<path fill="none" stroke="#63b8ff" d="M449.27,-56.34C441.96,-48.78 431.66,-38.14 422.91,-29.1"/>
<polygon fill="#63b8ff" stroke="#63b8ff" points="425.67,-26.92 416.2,-22.17 420.64,-31.79 425.67,-26.92"/>
</a>
</g>
</g>
<!-- Node11 -->
<g id="Node000011" class="node">
<title>Node11</title>
<g id="a_Node000011"><a xlink:title=" ">
<polygon fill="#e0e0e0" stroke="#999999" points="528.88,-20.75 450.62,-20.75 450.62,0 528.88,0 528.88,-20.75"/>
<text text-anchor="middle" x="489.75" y="-7.25" font-family="Helvetica,sans-Serif" font-size="10.00">periph_cpu.h</text>
</a>
</g>
</g>
<!-- Node9&#45;&gt;Node11 -->
<g id="edge11_Node000009_Node000011" class="edge">
<title>Node9&#45;&gt;Node11</title>
<g id="a_edge11_Node000009_Node000011"><a xlink:title=" ">
<path fill="none" stroke="#63b8ff" d="M464.29,-56.34C468.26,-49.33 473.74,-39.66 478.59,-31.08"/>
<polygon fill="#63b8ff" stroke="#63b8ff" points="481.63,-32.82 483.51,-22.4 475.54,-29.37 481.63,-32.82"/>
</a>
</g>
</g>
<!-- Node12 -->
<g id="Node000012" class="node">
<title>Node12</title>
<g id="a_Node000012"><a xlink:title=" ">
<polygon fill="#e0e0e0" stroke="#999999" points="628.38,-20.75 547.12,-20.75 547.12,0 628.38,0 628.38,-20.75"/>
<text text-anchor="middle" x="587.75" y="-7.25" font-family="Helvetica,sans-Serif" font-size="10.00">periph_conf.h</text>
</a>
</g>
</g>
<!-- Node9&#45;&gt;Node12 -->
<g id="edge12_Node000009_Node000012" class="edge">
<title>Node9&#45;&gt;Node12</title>
<g id="a_edge12_Node000009_Node000012"><a xlink:title=" ">
<path fill="none" stroke="#63b8ff" d="M481.81,-56.34C501.99,-47.77 531.55,-35.23 554.32,-25.56"/>
<polygon fill="#63b8ff" stroke="#63b8ff" points="555.66,-28.8 563.49,-21.67 552.92,-22.35 555.66,-28.8"/>
</a>
</g>
</g>
<!-- Node13&#45;&gt;Node2 -->
<g id="edge14_Node000013_Node000002" class="edge">
<title>Node13&#45;&gt;Node2</title>
<g id="a_edge14_Node000013_Node000002"><a xlink:title=" ">
<path fill="none" stroke="#63b8ff" d="M346.34,-56.34C330.66,-48.01 307.9,-35.91 289.94,-26.36"/>
<polygon fill="#63b8ff" stroke="#63b8ff" points="291.81,-23.39 281.34,-21.79 288.53,-29.57 291.81,-23.39"/>
</a>
</g>
</g>
<!-- Node13&#45;&gt;Node10 -->
<g id="edge16_Node000013_Node000010" class="edge">
<title>Node13&#45;&gt;Node10</title>
<g id="a_edge16_Node000013_Node000010"><a xlink:title=" ">
<path fill="none" stroke="#63b8ff" d="M372.08,-56.34C377.5,-49.1 385.06,-39.01 391.64,-30.22"/>
<polygon fill="#63b8ff" stroke="#63b8ff" points="394.38,-32.39 397.58,-22.29 388.78,-28.2 394.38,-32.39"/>
</a>
</g>
</g>
<!-- Node13&#45;&gt;Node11 -->
<g id="edge18_Node000013_Node000011" class="edge">
<title>Node13&#45;&gt;Node11</title>
<g id="a_edge18_Node000013_Node000011"><a xlink:title=" ">
<path fill="none" stroke="#63b8ff" d="M387.1,-56.34C406.56,-47.81 435.04,-35.34 457.06,-25.69"/>
<polygon fill="#63b8ff" stroke="#63b8ff" points="458.45,-28.9 466.21,-21.69 455.65,-22.49 458.45,-28.9"/>
</a>
</g>
</g>
<!-- Node13&#45;&gt;Node12 -->
<g id="edge17_Node000013_Node000012" class="edge">
<title>Node13&#45;&gt;Node12</title>
<g id="a_edge17_Node000013_Node000012"><a xlink:title=" ">
<path fill="none" stroke="#63b8ff" d="M401.57,-57.08C438.44,-48.03 495.45,-34.04 536.68,-23.91"/>
<polygon fill="#63b8ff" stroke="#63b8ff" points="537.51,-27.31 546.39,-21.53 535.84,-20.52 537.51,-27.31"/>
</a>
</g>
</g>
<!-- Node14 -->
<g id="Node000014" class="node">
<title>Node14</title>
<g id="a_Node000014"><a xlink:title=" ">
<polygon fill="#e0e0e0" stroke="#999999" points="361.25,-20.75 306.25,-20.75 306.25,0 361.25,0 361.25,-20.75"/>
<text text-anchor="middle" x="333.75" y="-7.25" font-family="Helvetica,sans-Serif" font-size="10.00">stddef.h</text>
</a>
</g>
</g>
<!-- Node13&#45;&gt;Node14 -->
<g id="edge15_Node000013_Node000014" class="edge">
<title>Node13&#45;&gt;Node14</title>
<g id="a_edge15_Node000013_Node000014"><a xlink:title=" ">
<path fill="none" stroke="#63b8ff" d="M359.21,-56.34C355.24,-49.33 349.76,-39.66 344.91,-31.08"/>
<polygon fill="#63b8ff" stroke="#63b8ff" points="347.96,-29.37 339.99,-22.4 341.87,-32.82 347.96,-29.37"/>
</a>
</g>
</g>
</g>
</svg>
