<?xml version="1.0" encoding="UTF-8" standalone="no"?>
<!DOCTYPE svg PUBLIC "-//W3C//DTD SVG 1.1//EN"
 "http://www.w3.org/Graphics/SVG/1.1/DTD/svg11.dtd">
<!-- Generated by graphviz version 12.1.1 (0)
 -->
<!-- Title: drivers/lis3dh/include/lis3dh_params.h Pages: 1 -->
<svg width="791pt" height="269pt"
 viewBox="0.00 0.00 790.88 268.50" xmlns="http://www.w3.org/2000/svg" xmlns:xlink="http://www.w3.org/1999/xlink">
<g id="graph0" class="graph" transform="scale(1 1) rotate(0) translate(4 264.5)">
<title>drivers/lis3dh/include/lis3dh_params.h</title>
<!-- Node1 -->
<g id="Node000001" class="node">
<title>Node1</title>
<g id="a_Node000001"><a xlink:title="Default configuration for LIS3DH devices.">
<polygon fill="#999999" stroke="#666666" points="432.5,-260.5 312.25,-260.5 312.25,-227 432.5,-227 432.5,-260.5"/>
<text text-anchor="start" x="320.25" y="-247" font-family="Helvetica,sans-Serif" font-size="10.00">drivers/lis3dh/include</text>
<text text-anchor="middle" x="372.38" y="-234.25" font-family="Helvetica,sans-Serif" font-size="10.00">/lis3dh_params.h</text>
</a>
</g>
</g>
<!-- Node2 -->
<g id="Node000002" class="node">
<title>Node2</title>
<g id="a_Node000002"><a xlink:title=" ">
<polygon fill="#e0e0e0" stroke="#999999" points="326.75,-191 274,-191 274,-170.25 326.75,-170.25 326.75,-191"/>
<text text-anchor="middle" x="300.38" y="-177.5" font-family="Helvetica,sans-Serif" font-size="10.00">board.h</text>
</a>
</g>
</g>
<!-- Node1&#45;&gt;Node2 -->
<g id="edge1_Node000001_Node000002" class="edge">
<title>Node1&#45;&gt;Node2</title>
<g id="a_edge1_Node000001_Node000002"><a xlink:title=" ">
<path fill="none" stroke="#63b8ff" d="M353.46,-226.69C343.38,-218.13 330.97,-207.6 320.69,-198.87"/>
<polygon fill="#63b8ff" stroke="#63b8ff" points="323.01,-196.25 313.12,-192.45 318.48,-201.59 323.01,-196.25"/>
</a>
</g>
</g>
<!-- Node3 -->
<g id="Node000003" class="node">
<title>Node3</title>
<g id="a_Node000003"><a xlink:href="lis3dh_8h.html" target="_top" xlink:title="Device driver interface for the LIS3DH accelerometer.">
<polygon fill="white" stroke="#666666" points="399.5,-191 345.25,-191 345.25,-170.25 399.5,-170.25 399.5,-191"/>
<text text-anchor="middle" x="372.38" y="-177.5" font-family="Helvetica,sans-Serif" font-size="10.00">lis3dh.h</text>
</a>
</g>
</g>
<!-- Node1&#45;&gt;Node3 -->
<g id="edge2_Node000001_Node000003" class="edge">
<title>Node1&#45;&gt;Node3</title>
<g id="a_edge2_Node000001_Node000003"><a xlink:title=" ">
<path fill="none" stroke="#63b8ff" d="M372.38,-226.69C372.38,-219.35 372.38,-210.57 372.38,-202.71"/>
<polygon fill="#63b8ff" stroke="#63b8ff" points="375.88,-202.98 372.38,-192.98 368.88,-202.98 375.88,-202.98"/>
</a>
</g>
</g>
<!-- Node14 -->
<g id="Node000014" class="node">
<title>Node14</title>
<g id="a_Node000014"><a xlink:href="saul__reg_8h.html" target="_top" xlink:title="SAUL registry interface definition.">
<polygon fill="white" stroke="#666666" points="561.5,-191 495.25,-191 495.25,-170.25 561.5,-170.25 561.5,-191"/>
<text text-anchor="middle" x="528.38" y="-177.5" font-family="Helvetica,sans-Serif" font-size="10.00">saul_reg.h</text>
</a>
</g>
</g>
<!-- Node1&#45;&gt;Node14 -->
<g id="edge18_Node000001_Node000014" class="edge">
<title>Node1&#45;&gt;Node14</title>
<g id="a_edge18_Node000001_Node000014"><a xlink:title=" ">
<path fill="none" stroke="#63b8ff" d="M413.77,-226.53C438.39,-216.88 469.31,-204.77 492.83,-195.55"/>
<polygon fill="#63b8ff" stroke="#63b8ff" points="493.95,-198.87 501.98,-191.97 491.39,-192.36 493.95,-198.87"/>
</a>
</g>
</g>
<!-- Node4 -->
<g id="Node000004" class="node">
<title>Node4</title>
<g id="a_Node000004"><a xlink:title=" ">
<polygon fill="#e0e0e0" stroke="#999999" points="474.75,-20.75 422,-20.75 422,0 474.75,0 474.75,-20.75"/>
<text text-anchor="middle" x="448.38" y="-7.25" font-family="Helvetica,sans-Serif" font-size="10.00">stdint.h</text>
</a>
</g>
</g>
<!-- Node3&#45;&gt;Node4 -->
<g id="edge3_Node000003_Node000004" class="edge">
<title>Node3&#45;&gt;Node4</title>
<g id="a_edge3_Node000003_Node000004"><a xlink:title=" ">
<path fill="none" stroke="#63b8ff" d="M378.83,-169.86C390.33,-152.12 414.55,-113.12 429.38,-77.5 435.56,-62.64 440.5,-45.1 443.79,-31.82"/>
<polygon fill="#63b8ff" stroke="#63b8ff" points="447.1,-33.04 445.99,-22.5 440.29,-31.43 447.1,-33.04"/>
</a>
</g>
</g>
<!-- Node5 -->
<g id="Node000005" class="node">
<title>Node5</title>
<g id="a_Node000005"><a xlink:href="spi_8h.html" target="_top" xlink:title="Low&#45;level SPI peripheral driver interface definition.">
<polygon fill="white" stroke="#666666" points="332.88,-134.25 259.88,-134.25 259.88,-113.5 332.88,-113.5 332.88,-134.25"/>
<text text-anchor="middle" x="296.38" y="-120.75" font-family="Helvetica,sans-Serif" font-size="10.00">periph/spi.h</text>
</a>
</g>
</g>
<!-- Node3&#45;&gt;Node5 -->
<g id="edge4_Node000003_Node000005" class="edge">
<title>Node3&#45;&gt;Node5</title>
<g id="a_edge4_Node000003_Node000005"><a xlink:title=" ">
<path fill="none" stroke="#63b8ff" d="M358.79,-169.84C347.76,-161.9 331.99,-150.53 319.05,-141.21"/>
<polygon fill="#63b8ff" stroke="#63b8ff" points="321.23,-138.47 311.07,-135.46 317.14,-144.15 321.23,-138.47"/>
</a>
</g>
</g>
<!-- Node12 -->
<g id="Node000012" class="node">
<title>Node12</title>
<g id="a_Node000012"><a xlink:href="drivers_2include_2periph_2gpio_8h.html" target="_top" xlink:title="Low&#45;level GPIO peripheral driver interface definitions.">
<polygon fill="white" stroke="#666666" points="82.25,-77.5 2.5,-77.5 2.5,-56.75 82.25,-56.75 82.25,-77.5"/>
<text text-anchor="middle" x="42.38" y="-64" font-family="Helvetica,sans-Serif" font-size="10.00">periph/gpio.h</text>
</a>
</g>
</g>
<!-- Node3&#45;&gt;Node12 -->
<g id="edge17_Node000003_Node000012" class="edge">
<title>Node3&#45;&gt;Node12</title>
<g id="a_edge17_Node000003_Node000012"><a xlink:title=" ">
<path fill="none" stroke="#63b8ff" d="M344.81,-170.31C286.41,-150.58 150.03,-104.5 82.18,-81.57"/>
<polygon fill="#63b8ff" stroke="#63b8ff" points="83.54,-78.34 72.94,-78.45 81.3,-84.97 83.54,-78.34"/>
</a>
</g>
</g>
<!-- Node5&#45;&gt;Node4 -->
<g id="edge10_Node000005_Node000004" class="edge">
<title>Node5&#45;&gt;Node4</title>
<g id="a_edge10_Node000005_Node000004"><a xlink:title=" ">
<path fill="none" stroke="#63b8ff" d="M302.73,-113.23C312.32,-99.28 331.7,-73.31 353.38,-56.75 370.78,-43.45 392.7,-32.66 411.1,-24.95"/>
<polygon fill="#63b8ff" stroke="#63b8ff" points="412.37,-28.21 420.34,-21.22 409.76,-21.71 412.37,-28.21"/>
</a>
</g>
</g>
<!-- Node6 -->
<g id="Node000006" class="node">
<title>Node6</title>
<g id="a_Node000006"><a xlink:href="endian_8h.html" target="_top" xlink:title="libc header for endian conversion">
<polygon fill="white" stroke="#666666" points="420.38,-77.5 362.38,-77.5 362.38,-56.75 420.38,-56.75 420.38,-77.5"/>
<text text-anchor="middle" x="391.38" y="-64" font-family="Helvetica,sans-Serif" font-size="10.00">endian.h</text>
</a>
</g>
</g>
<!-- Node5&#45;&gt;Node6 -->
<g id="edge5_Node000005_Node000006" class="edge">
<title>Node5&#45;&gt;Node6</title>
<g id="a_edge5_Node000005_Node000006"><a xlink:title=" ">
<path fill="none" stroke="#63b8ff" d="M313.36,-113.09C327.68,-104.83 348.42,-92.88 364.91,-83.38"/>
<polygon fill="#63b8ff" stroke="#63b8ff" points="366.31,-86.61 373.23,-78.58 362.81,-80.55 366.31,-86.61"/>
</a>
</g>
</g>
<!-- Node7 -->
<g id="Node000007" class="node">
<title>Node7</title>
<g id="a_Node000007"><a xlink:href="errno_8h.html" target="_top" xlink:title=" ">
<polygon fill="white" stroke="#666666" points="188.62,-77.5 138.12,-77.5 138.12,-56.75 188.62,-56.75 188.62,-77.5"/>
<text text-anchor="middle" x="163.38" y="-64" font-family="Helvetica,sans-Serif" font-size="10.00">errno.h</text>
</a>
</g>
</g>
<!-- Node5&#45;&gt;Node7 -->
<g id="edge7_Node000005_Node000007" class="edge">
<title>Node5&#45;&gt;Node7</title>
<g id="a_edge7_Node000005_Node000007"><a xlink:title=" ">
<path fill="none" stroke="#63b8ff" d="M272.6,-113.09C251.7,-104.48 221.04,-91.86 197.52,-82.18"/>
<polygon fill="#63b8ff" stroke="#63b8ff" points="198.93,-78.97 188.35,-78.4 196.26,-85.45 198.93,-78.97"/>
</a>
</g>
</g>
<!-- Node8 -->
<g id="Node000008" class="node">
<title>Node8</title>
<g id="a_Node000008"><a xlink:title=" ">
<polygon fill="#e0e0e0" stroke="#999999" points="267.88,-77.5 206.88,-77.5 206.88,-56.75 267.88,-56.75 267.88,-77.5"/>
<text text-anchor="middle" x="237.38" y="-64" font-family="Helvetica,sans-Serif" font-size="10.00">stdbool.h</text>
</a>
</g>
</g>
<!-- Node5&#45;&gt;Node8 -->
<g id="edge8_Node000005_Node000008" class="edge">
<title>Node5&#45;&gt;Node8</title>
<g id="a_edge8_Node000005_Node000008"><a xlink:title=" ">
<path fill="none" stroke="#63b8ff" d="M285.83,-113.09C277.6,-105.46 265.98,-94.67 256.17,-85.57"/>
<polygon fill="#63b8ff" stroke="#63b8ff" points="258.65,-83.09 248.94,-78.86 253.89,-88.23 258.65,-83.09"/>
</a>
</g>
</g>
<!-- Node9 -->
<g id="Node000009" class="node">
<title>Node9</title>
<g id="a_Node000009"><a xlink:title=" ">
<polygon fill="#e0e0e0" stroke="#999999" points="569.88,-77.5 514.88,-77.5 514.88,-56.75 569.88,-56.75 569.88,-77.5"/>
<text text-anchor="middle" x="542.38" y="-64" font-family="Helvetica,sans-Serif" font-size="10.00">stddef.h</text>
</a>
</g>
</g>
<!-- Node5&#45;&gt;Node9 -->
<g id="edge9_Node000005_Node000009" class="edge">
<title>Node5&#45;&gt;Node9</title>
<g id="a_edge9_Node000005_Node000009"><a xlink:title=" ">
<path fill="none" stroke="#63b8ff" d="M333.2,-114.68C378.92,-104.5 456.56,-87.22 503.3,-76.82"/>
<polygon fill="#63b8ff" stroke="#63b8ff" points="504,-80.25 513,-74.66 502.48,-73.42 504,-80.25"/>
</a>
</g>
</g>
<!-- Node10 -->
<g id="Node000010" class="node">
<title>Node10</title>
<g id="a_Node000010"><a xlink:title=" ">
<polygon fill="#e0e0e0" stroke="#999999" points="149.5,-20.75 71.25,-20.75 71.25,0 149.5,0 149.5,-20.75"/>
<text text-anchor="middle" x="110.38" y="-7.25" font-family="Helvetica,sans-Serif" font-size="10.00">periph_cpu.h</text>
</a>
</g>
</g>
<!-- Node5&#45;&gt;Node10 -->
<g id="edge11_Node000005_Node000010" class="edge">
<title>Node5&#45;&gt;Node10</title>
<g id="a_edge11_Node000005_Node000010"><a xlink:title=" ">
<path fill="none" stroke="#63b8ff" d="M259.38,-122.83C221.71,-120.76 164.04,-111.67 129.38,-77.5 117.4,-65.7 112.85,-46.88 111.18,-32.33"/>
<polygon fill="#63b8ff" stroke="#63b8ff" points="114.68,-32.16 110.45,-22.44 107.69,-32.67 114.68,-32.16"/>
</a>
</g>
</g>
<!-- Node11 -->
<g id="Node000011" class="node">
<title>Node11</title>
<g id="a_Node000011"><a xlink:title=" ">
<polygon fill="#e0e0e0" stroke="#999999" points="293,-20.75 211.75,-20.75 211.75,0 293,0 293,-20.75"/>
<text text-anchor="middle" x="252.38" y="-7.25" font-family="Helvetica,sans-Serif" font-size="10.00">periph_conf.h</text>
</a>
</g>
</g>
<!-- Node5&#45;&gt;Node11 -->
<g id="edge12_Node000005_Node000011" class="edge">
<title>Node5&#45;&gt;Node11</title>
<g id="a_edge12_Node000005_Node000011"><a xlink:title=" ">
<path fill="none" stroke="#63b8ff" d="M294.32,-113.23C291.37,-100.15 285.4,-76.18 277.38,-56.75 273.74,-47.95 268.84,-38.67 264.33,-30.81"/>
<polygon fill="#63b8ff" stroke="#63b8ff" points="267.49,-29.26 259.37,-22.45 261.47,-32.84 267.49,-29.26"/>
</a>
</g>
</g>
<!-- Node5&#45;&gt;Node12 -->
<g id="edge13_Node000005_Node000012" class="edge">
<title>Node5&#45;&gt;Node12</title>
<g id="a_edge13_Node000005_Node000012"><a xlink:title=" ">
<path fill="none" stroke="#63b8ff" d="M259.44,-114.91C215.79,-105.5 142.88,-89.79 93.74,-79.2"/>
<polygon fill="#63b8ff" stroke="#63b8ff" points="94.7,-75.82 84.19,-77.14 93.23,-82.67 94.7,-75.82"/>
</a>
</g>
</g>
<!-- Node6&#45;&gt;Node4 -->
<g id="edge6_Node000006_Node000004" class="edge">
<title>Node6&#45;&gt;Node4</title>
<g id="a_edge6_Node000006_Node000004"><a xlink:title=" ">
<path fill="none" stroke="#63b8ff" d="M401.57,-56.34C409.51,-48.71 420.74,-37.92 430.21,-28.82"/>
<polygon fill="#63b8ff" stroke="#63b8ff" points="432.39,-31.58 437.18,-22.13 427.54,-26.53 432.39,-31.58"/>
</a>
</g>
</g>
<!-- Node12&#45;&gt;Node10 -->
<g id="edge15_Node000012_Node000010" class="edge">
<title>Node12&#45;&gt;Node10</title>
<g id="a_edge15_Node000012_Node000010"><a xlink:title=" ">
<path fill="none" stroke="#63b8ff" d="M54.53,-56.34C64.2,-48.55 77.96,-37.47 89.4,-28.26"/>
<polygon fill="#63b8ff" stroke="#63b8ff" points="91.55,-31.03 97.14,-22.03 87.16,-25.57 91.55,-31.03"/>
</a>
</g>
</g>
<!-- Node12&#45;&gt;Node11 -->
<g id="edge16_Node000012_Node000011" class="edge">
<title>Node12&#45;&gt;Node11</title>
<g id="a_edge16_Node000012_Node000011"><a xlink:title=" ">
<path fill="none" stroke="#63b8ff" d="M79.92,-56.34C114.6,-47.29 166.31,-33.81 204.06,-23.97"/>
<polygon fill="#63b8ff" stroke="#63b8ff" points="204.54,-27.46 213.34,-21.55 202.78,-20.69 204.54,-27.46"/>
</a>
</g>
</g>
<!-- Node13 -->
<g id="Node000013" class="node">
<title>Node13</title>
<g id="a_Node000013"><a xlink:title=" ">
<polygon fill="#e0e0e0" stroke="#999999" points="52.75,-20.75 0,-20.75 0,0 52.75,0 52.75,-20.75"/>
<text text-anchor="middle" x="26.38" y="-7.25" font-family="Helvetica,sans-Serif" font-size="10.00">limits.h</text>
</a>
</g>
</g>
<!-- Node12&#45;&gt;Node13 -->
<g id="edge14_Node000012_Node000013" class="edge">
<title>Node12&#45;&gt;Node13</title>
<g id="a_edge14_Node000012_Node000013"><a xlink:title=" ">
<path fill="none" stroke="#63b8ff" d="M39.51,-56.34C37.54,-49.56 34.83,-40.3 32.38,-31.94"/>
<polygon fill="#63b8ff" stroke="#63b8ff" points="35.8,-31.15 29.64,-22.53 29.08,-33.11 35.8,-31.15"/>
</a>
</g>
</g>
<!-- Node14&#45;&gt;Node4 -->
<g id="edge19_Node000014_Node000004" class="edge">
<title>Node14&#45;&gt;Node4</title>
<g id="a_edge19_Node000014_Node000004"><a xlink:title=" ">
<path fill="none" stroke="#63b8ff" d="M523.84,-170.1C511.2,-143.5 475.31,-68.02 457.98,-31.57"/>
<polygon fill="#63b8ff" stroke="#63b8ff" points="461.16,-30.11 453.7,-22.58 454.84,-33.12 461.16,-30.11"/>
</a>
</g>
</g>
<!-- Node15 -->
<g id="Node000015" class="node">
<title>Node15</title>
<g id="a_Node000015"><a xlink:title=" ">
<polygon fill="#e0e0e0" stroke="#999999" points="663,-134.25 617.75,-134.25 617.75,-113.5 663,-113.5 663,-134.25"/>
<text text-anchor="middle" x="640.38" y="-120.75" font-family="Helvetica,sans-Serif" font-size="10.00">saul.h</text>
</a>
</g>
</g>
<!-- Node14&#45;&gt;Node15 -->
<g id="edge20_Node000014_Node000015" class="edge">
<title>Node14&#45;&gt;Node15</title>
<g id="a_edge20_Node000014_Node000015"><a xlink:title=" ">
<path fill="none" stroke="#63b8ff" d="M548.4,-169.84C565.6,-161.43 590.65,-149.18 610.27,-139.59"/>
<polygon fill="#63b8ff" stroke="#63b8ff" points="611.72,-142.78 619.17,-135.24 608.64,-136.49 611.72,-142.78"/>
</a>
</g>
</g>
<!-- Node16 -->
<g id="Node000016" class="node">
<title>Node16</title>
<g id="a_Node000016"><a xlink:href="phydat_8h.html" target="_top" xlink:title="Generic data container for physical data interface.">
<polygon fill="white" stroke="#666666" points="599.75,-134.25 541,-134.25 541,-113.5 599.75,-113.5 599.75,-134.25"/>
<text text-anchor="middle" x="570.38" y="-120.75" font-family="Helvetica,sans-Serif" font-size="10.00">phydat.h</text>
</a>
</g>
</g>
<!-- Node14&#45;&gt;Node16 -->
<g id="edge21_Node000014_Node000016" class="edge">
<title>Node14&#45;&gt;Node16</title>
<g id="a_edge21_Node000014_Node000016"><a xlink:title=" ">
<path fill="none" stroke="#63b8ff" d="M535.88,-169.84C541.5,-162.52 549.34,-152.29 556.13,-143.44"/>
<polygon fill="#63b8ff" stroke="#63b8ff" points="558.7,-145.84 562.01,-135.78 553.15,-141.58 558.7,-145.84"/>
</a>
</g>
</g>
<!-- Node16&#45;&gt;Node4 -->
<g id="edge23_Node000016_Node000004" class="edge">
<title>Node16&#45;&gt;Node4</title>
<g id="a_edge23_Node000016_Node000004"><a xlink:title=" ">
<path fill="none" stroke="#63b8ff" d="M575.48,-113.34C582.11,-99.53 591.47,-73.74 579.38,-56.75 558.4,-27.28 516.9,-16.77 486.2,-13.12"/>
<polygon fill="#63b8ff" stroke="#63b8ff" points="486.83,-9.67 476.54,-12.18 486.15,-16.63 486.83,-9.67"/>
</a>
</g>
</g>
<!-- Node16&#45;&gt;Node9 -->
<g id="edge22_Node000016_Node000009" class="edge">
<title>Node16&#45;&gt;Node9</title>
<g id="a_edge22_Node000016_Node000009"><a xlink:title=" ">
<path fill="none" stroke="#63b8ff" d="M565.37,-113.09C561.79,-106.08 556.84,-96.41 552.45,-87.83"/>
<polygon fill="#63b8ff" stroke="#63b8ff" points="555.7,-86.49 548.03,-79.18 549.46,-89.67 555.7,-86.49"/>
</a>
</g>
</g>
<!-- Node17 -->
<g id="Node000017" class="node">
<title>Node17</title>
<g id="a_Node000017"><a xlink:title=" ">
<polygon fill="#e0e0e0" stroke="#999999" points="698.12,-77.5 626.62,-77.5 626.62,-56.75 698.12,-56.75 698.12,-77.5"/>
<text text-anchor="middle" x="662.38" y="-64" font-family="Helvetica,sans-Serif" font-size="10.00">sys/types.h</text>
</a>
</g>
</g>
<!-- Node16&#45;&gt;Node17 -->
<g id="edge24_Node000016_Node000017" class="edge">
<title>Node16&#45;&gt;Node17</title>
<g id="a_edge24_Node000016_Node000017"><a xlink:title=" ">
<path fill="none" stroke="#63b8ff" d="M586.82,-113.09C600.56,-104.91 620.39,-93.11 636.29,-83.65"/>
<polygon fill="#63b8ff" stroke="#63b8ff" points="637.97,-86.72 644.77,-78.6 634.39,-80.71 637.97,-86.72"/>
</a>
</g>
</g>
<!-- Node18 -->
<g id="Node000018" class="node">
<title>Node18</title>
<g id="a_Node000018"><a xlink:href="modules_8h.html" target="_top" xlink:title="Common macros and compiler attributes/pragmas configuration.">
<polygon fill="white" stroke="#666666" points="782.88,-77.5 715.88,-77.5 715.88,-56.75 782.88,-56.75 782.88,-77.5"/>
<text text-anchor="middle" x="749.38" y="-64" font-family="Helvetica,sans-Serif" font-size="10.00">modules.h</text>
</a>
</g>
</g>
<!-- Node16&#45;&gt;Node18 -->
<g id="edge25_Node000016_Node000018" class="edge">
<title>Node16&#45;&gt;Node18</title>
<g id="a_edge25_Node000016_Node000018"><a xlink:title=" ">
<path fill="none" stroke="#63b8ff" d="M599.93,-113.83C629.02,-104.94 673.73,-91.26 706.67,-81.19"/>
<polygon fill="#63b8ff" stroke="#63b8ff" points="707.37,-84.63 715.91,-78.36 705.32,-77.94 707.37,-84.63"/>
</a>
</g>
</g>
</g>
</svg>
