<?xml version="1.0" encoding="UTF-8" standalone="no"?>
<!DOCTYPE svg PUBLIC "-//W3C//DTD SVG 1.1//EN"
 "http://www.w3.org/Graphics/SVG/1.1/DTD/svg11.dtd">
<!-- Generated by graphviz version 12.1.1 (0)
 -->
<!-- Title: drivers/include/ltc4150.h Pages: 1 -->
<svg width="1062pt" height="483pt"
 viewBox="0.00 0.00 1062.00 482.75" xmlns="http://www.w3.org/2000/svg" xmlns:xlink="http://www.w3.org/1999/xlink">
<g id="graph0" class="graph" transform="scale(1 1) rotate(0) translate(4 478.75)">
<title>drivers/include/ltc4150.h</title>
<!-- Node1 -->
<g id="Node000001" class="node">
<title>Node1</title>
<g id="a_Node000001"><a xlink:title="LTC4150 coulomb counter.">
<polygon fill="#999999" stroke="#666666" points="957,-474.75 821,-474.75 821,-454 957,-454 957,-474.75"/>
<text text-anchor="middle" x="889" y="-461.25" font-family="Helvetica,sans-Serif" font-size="10.00">drivers/include/ltc4150.h</text>
</a>
</g>
</g>
<!-- Node2 -->
<g id="Node000002" class="node">
<title>Node2</title>
<g id="a_Node000002"><a xlink:title=" ">
<polygon fill="#e0e0e0" stroke="#999999" points="545.38,-20.75 492.62,-20.75 492.62,0 545.38,0 545.38,-20.75"/>
<text text-anchor="middle" x="519" y="-7.25" font-family="Helvetica,sans-Serif" font-size="10.00">stdint.h</text>
</a>
</g>
</g>
<!-- Node1&#45;&gt;Node2 -->
<g id="edge1_Node000001_Node000002" class="edge">
<title>Node1&#45;&gt;Node2</title>
<g id="a_edge1_Node000001_Node000002"><a xlink:title=" ">
<path fill="none" stroke="#63b8ff" d="M933.65,-453.62C982.52,-440 1054,-410.13 1054,-351.88 1054,-351.88 1054,-351.88 1054,-122.88 1054,-21.18 678.88,-11.62 556.86,-11.19"/>
<polygon fill="#63b8ff" stroke="#63b8ff" points="557.05,-7.69 547.04,-11.18 557.04,-14.69 557.05,-7.69"/>
</a>
</g>
</g>
<!-- Node3 -->
<g id="Node000003" class="node">
<title>Node3</title>
<g id="a_Node000003"><a xlink:href="mutex_8h.html" target="_top" xlink:title="Mutex for thread synchronization.">
<polygon fill="white" stroke="#666666" points="549.25,-418 492.75,-418 492.75,-397.25 549.25,-397.25 549.25,-418"/>
<text text-anchor="middle" x="521" y="-404.5" font-family="Helvetica,sans-Serif" font-size="10.00">mutex.h</text>
</a>
</g>
</g>
<!-- Node1&#45;&gt;Node3 -->
<g id="edge2_Node000001_Node000003" class="edge">
<title>Node1&#45;&gt;Node3</title>
<g id="a_edge2_Node000001_Node000003"><a xlink:title=" ">
<path fill="none" stroke="#63b8ff" d="M822.78,-453.52C746.58,-442.19 623.87,-423.93 560.98,-414.57"/>
<polygon fill="#63b8ff" stroke="#63b8ff" points="561.5,-411.11 551.09,-413.1 560.47,-418.04 561.5,-411.11"/>
</a>
</g>
</g>
<!-- Node26 -->
<g id="Node000026" class="node">
<title>Node26</title>
<g id="a_Node000026"><a xlink:href="drivers_2include_2periph_2gpio_8h.html" target="_top" xlink:title="Low&#45;level GPIO peripheral driver interface definitions.">
<polygon fill="white" stroke="#666666" points="928.88,-418 849.12,-418 849.12,-397.25 928.88,-397.25 928.88,-418"/>
<text text-anchor="middle" x="889" y="-404.5" font-family="Helvetica,sans-Serif" font-size="10.00">periph/gpio.h</text>
</a>
</g>
</g>
<!-- Node1&#45;&gt;Node26 -->
<g id="edge44_Node000001_Node000026" class="edge">
<title>Node1&#45;&gt;Node26</title>
<g id="a_edge44_Node000001_Node000026"><a xlink:title=" ">
<path fill="none" stroke="#63b8ff" d="M889,-453.59C889,-446.97 889,-437.97 889,-429.77"/>
<polygon fill="#63b8ff" stroke="#63b8ff" points="892.5,-429.84 889,-419.84 885.5,-429.84 892.5,-429.84"/>
</a>
</g>
</g>
<!-- Node3&#45;&gt;Node2 -->
<g id="edge4_Node000003_Node000002" class="edge">
<title>Node3&#45;&gt;Node2</title>
<g id="a_edge4_Node000003_Node000002"><a xlink:title=" ">
<path fill="none" stroke="#63b8ff" d="M549.68,-407.13C617.48,-406.68 782,-395.27 782,-295.12 782,-295.12 782,-295.12 782,-122.88 782,-26.33 629.93,-12.14 557.06,-10.88"/>
<polygon fill="#63b8ff" stroke="#63b8ff" points="557.21,-7.39 547.18,-10.8 557.15,-14.39 557.21,-7.39"/>
</a>
</g>
</g>
<!-- Node4 -->
<g id="Node000004" class="node">
<title>Node4</title>
<g id="a_Node000004"><a xlink:title=" ">
<polygon fill="#e0e0e0" stroke="#999999" points="560.5,-77.5 505.5,-77.5 505.5,-56.75 560.5,-56.75 560.5,-77.5"/>
<text text-anchor="middle" x="533" y="-64" font-family="Helvetica,sans-Serif" font-size="10.00">stddef.h</text>
</a>
</g>
</g>
<!-- Node3&#45;&gt;Node4 -->
<g id="edge3_Node000003_Node000004" class="edge">
<title>Node3&#45;&gt;Node4</title>
<g id="a_edge3_Node000003_Node000004"><a xlink:title=" ">
<path fill="none" stroke="#63b8ff" d="M527.56,-396.82C549.95,-362.56 622.7,-244.34 637,-134.25 638.19,-125.1 642.05,-121.22 637,-113.5 622.63,-91.55 595.05,-80.15 571.91,-74.28"/>
<polygon fill="#63b8ff" stroke="#63b8ff" points="572.98,-70.93 562.46,-72.14 571.44,-77.76 572.98,-70.93"/>
</a>
</g>
</g>
<!-- Node5 -->
<g id="Node000005" class="node">
<title>Node5</title>
<g id="a_Node000005"><a xlink:title=" ">
<polygon fill="#e0e0e0" stroke="#999999" points="185.5,-134.25 124.5,-134.25 124.5,-113.5 185.5,-113.5 185.5,-134.25"/>
<text text-anchor="middle" x="155" y="-120.75" font-family="Helvetica,sans-Serif" font-size="10.00">stdbool.h</text>
</a>
</g>
</g>
<!-- Node3&#45;&gt;Node5 -->
<g id="edge5_Node000003_Node000005" class="edge">
<title>Node3&#45;&gt;Node5</title>
<g id="a_edge5_Node000003_Node000005"><a xlink:title=" ">
<path fill="none" stroke="#63b8ff" d="M492.49,-405.64C394.27,-401.48 76,-381.34 76,-295.12 76,-295.12 76,-295.12 76,-236.38 76,-196.79 109.56,-161.44 132.93,-141.62"/>
<polygon fill="#63b8ff" stroke="#63b8ff" points="134.87,-144.55 140.42,-135.53 130.46,-139.12 134.87,-144.55"/>
</a>
</g>
</g>
<!-- Node6 -->
<g id="Node000006" class="node">
<title>Node6</title>
<g id="a_Node000006"><a xlink:href="architecture_8h.html" target="_top" xlink:title="Platform&#45;independent access to architecture details.">
<polygon fill="white" stroke="#666666" points="702.75,-361.25 619.25,-361.25 619.25,-340.5 702.75,-340.5 702.75,-361.25"/>
<text text-anchor="middle" x="661" y="-347.75" font-family="Helvetica,sans-Serif" font-size="10.00">architecture.h</text>
</a>
</g>
</g>
<!-- Node3&#45;&gt;Node6 -->
<g id="edge6_Node000003_Node000006" class="edge">
<title>Node3&#45;&gt;Node6</title>
<g id="a_edge6_Node000003_Node000006"><a xlink:title=" ">
<path fill="none" stroke="#63b8ff" d="M546.03,-396.84C568.23,-388.16 600.89,-375.38 625.73,-365.67"/>
<polygon fill="#63b8ff" stroke="#63b8ff" points="626.74,-369.03 634.78,-362.13 624.19,-362.51 626.74,-369.03"/>
</a>
</g>
</g>
<!-- Node10 -->
<g id="Node000010" class="node">
<title>Node10</title>
<g id="a_Node000010"><a xlink:href="kernel__defines_8h.html" target="_top" xlink:title="Common macros and compiler attributes/pragmas configuration.">
<polygon fill="white" stroke="#666666" points="530.12,-191 433.88,-191 433.88,-170.25 530.12,-170.25 530.12,-191"/>
<text text-anchor="middle" x="482" y="-177.5" font-family="Helvetica,sans-Serif" font-size="10.00">kernel_defines.h</text>
</a>
</g>
</g>
<!-- Node3&#45;&gt;Node10 -->
<g id="edge11_Node000003_Node000010" class="edge">
<title>Node3&#45;&gt;Node10</title>
<g id="a_edge11_Node000003_Node000010"><a xlink:title=" ">
<path fill="none" stroke="#63b8ff" d="M519.32,-396.96C513.46,-363.13 493.78,-249.61 485.61,-202.44"/>
<polygon fill="#63b8ff" stroke="#63b8ff" points="489.08,-202 483.93,-192.75 482.19,-203.2 489.08,-202"/>
</a>
</g>
</g>
<!-- Node16 -->
<g id="Node000016" class="node">
<title>Node16</title>
<g id="a_Node000016"><a xlink:href="list_8h.html" target="_top" xlink:title="Intrusive linked list.">
<polygon fill="white" stroke="#666666" points="106,-134.25 66,-134.25 66,-113.5 106,-113.5 106,-134.25"/>
<text text-anchor="middle" x="86" y="-120.75" font-family="Helvetica,sans-Serif" font-size="10.00">list.h</text>
</a>
</g>
</g>
<!-- Node3&#45;&gt;Node16 -->
<g id="edge22_Node000003_Node000016" class="edge">
<title>Node3&#45;&gt;Node16</title>
<g id="a_edge22_Node000003_Node000016"><a xlink:title=" ">
<path fill="none" stroke="#63b8ff" d="M492.62,-406.66C383.9,-406.07 0,-396.76 0,-295.12 0,-295.12 0,-295.12 0,-236.38 0,-195.62 36.47,-160.66 61.91,-141.23"/>
<polygon fill="#63b8ff" stroke="#63b8ff" points="63.79,-144.19 69.8,-135.46 59.66,-138.54 63.79,-144.19"/>
</a>
</g>
</g>
<!-- Node17 -->
<g id="Node000017" class="node">
<title>Node17</title>
<g id="a_Node000017"><a xlink:href="core_2include_2thread_8h.html" target="_top" xlink:title="Threading API.">
<polygon fill="white" stroke="#666666" points="318.25,-361.25 261.75,-361.25 261.75,-340.5 318.25,-340.5 318.25,-361.25"/>
<text text-anchor="middle" x="290" y="-347.75" font-family="Helvetica,sans-Serif" font-size="10.00">thread.h</text>
</a>
</g>
</g>
<!-- Node3&#45;&gt;Node17 -->
<g id="edge23_Node000003_Node000017" class="edge">
<title>Node3&#45;&gt;Node17</title>
<g id="a_edge23_Node000003_Node000017"><a xlink:title=" ">
<path fill="none" stroke="#63b8ff" d="M492.67,-399.91C451.8,-390.22 376.11,-372.28 329.69,-361.28"/>
<polygon fill="#63b8ff" stroke="#63b8ff" points="330.57,-357.89 320.03,-358.99 328.95,-364.7 330.57,-357.89"/>
</a>
</g>
</g>
<!-- Node6&#45;&gt;Node2 -->
<g id="edge7_Node000006_Node000002" class="edge">
<title>Node6&#45;&gt;Node2</title>
<g id="a_edge7_Node000006_Node000002"><a xlink:title=" ">
<path fill="none" stroke="#63b8ff" d="M681.42,-340.12C695.6,-332.34 713.89,-320.16 725,-304.5 742.69,-279.56 744,-268.95 744,-238.38 744,-238.38 744,-238.38 744,-122.88 744,-40.38 621.07,-18.92 556.94,-13.34"/>
<polygon fill="#63b8ff" stroke="#63b8ff" points="557.44,-9.87 547.2,-12.59 556.9,-16.85 557.44,-9.87"/>
</a>
</g>
</g>
<!-- Node7 -->
<g id="Node000007" class="node">
<title>Node7</title>
<g id="a_Node000007"><a xlink:href="inttypes_8h.html" target="_top" xlink:title="Adds include for missing inttype definitions.">
<polygon fill="white" stroke="#666666" points="613.38,-191 548.62,-191 548.62,-170.25 613.38,-170.25 613.38,-191"/>
<text text-anchor="middle" x="581" y="-177.5" font-family="Helvetica,sans-Serif" font-size="10.00">inttypes.h</text>
</a>
</g>
</g>
<!-- Node6&#45;&gt;Node7 -->
<g id="edge8_Node000006_Node000007" class="edge">
<title>Node6&#45;&gt;Node7</title>
<g id="a_edge8_Node000006_Node000007"><a xlink:title=" ">
<path fill="none" stroke="#63b8ff" d="M638.92,-340.11C624.53,-332.53 606.69,-320.6 597,-304.5 578.02,-272.96 577.26,-228.7 578.85,-202.8"/>
<polygon fill="#63b8ff" stroke="#63b8ff" points="582.33,-203.16 579.65,-192.91 575.35,-202.59 582.33,-203.16"/>
</a>
</g>
</g>
<!-- Node8 -->
<g id="Node000008" class="node">
<title>Node8</title>
<g id="a_Node000008"><a xlink:title=" ">
<polygon fill="#e0e0e0" stroke="#999999" points="862.38,-304.5 809.62,-304.5 809.62,-283.75 862.38,-283.75 862.38,-304.5"/>
<text text-anchor="middle" x="836" y="-291" font-family="Helvetica,sans-Serif" font-size="10.00">limits.h</text>
</a>
</g>
</g>
<!-- Node6&#45;&gt;Node8 -->
<g id="edge9_Node000006_Node000008" class="edge">
<title>Node6&#45;&gt;Node8</title>
<g id="a_edge9_Node000006_Node000008"><a xlink:title=" ">
<path fill="none" stroke="#63b8ff" d="M692.29,-340.09C722.1,-330.76 767.01,-316.71 798.68,-306.8"/>
<polygon fill="#63b8ff" stroke="#63b8ff" points="799.34,-310.26 807.84,-303.94 797.25,-303.58 799.34,-310.26"/>
</a>
</g>
</g>
<!-- Node9 -->
<g id="Node000009" class="node">
<title>Node9</title>
<g id="a_Node000009"><a xlink:title=" ">
<polygon fill="#e0e0e0" stroke="#999999" points="715.88,-304.5 606.12,-304.5 606.12,-283.75 715.88,-283.75 715.88,-304.5"/>
<text text-anchor="middle" x="661" y="-291" font-family="Helvetica,sans-Serif" font-size="10.00">architecture_arch.h</text>
</a>
</g>
</g>
<!-- Node6&#45;&gt;Node9 -->
<g id="edge10_Node000006_Node000009" class="edge">
<title>Node6&#45;&gt;Node9</title>
<g id="a_edge10_Node000006_Node000009"><a xlink:title=" ">
<path fill="none" stroke="#63b8ff" d="M661,-340.09C661,-333.47 661,-324.47 661,-316.27"/>
<polygon fill="#63b8ff" stroke="#63b8ff" points="664.5,-316.34 661,-306.34 657.5,-316.34 664.5,-316.34"/>
</a>
</g>
</g>
<!-- Node11 -->
<g id="Node000011" class="node">
<title>Node11</title>
<g id="a_Node000011"><a xlink:href="modules_8h.html" target="_top" xlink:title="Common macros and compiler attributes/pragmas configuration.">
<polygon fill="white" stroke="#666666" points="539.5,-134.25 472.5,-134.25 472.5,-113.5 539.5,-113.5 539.5,-134.25"/>
<text text-anchor="middle" x="506" y="-120.75" font-family="Helvetica,sans-Serif" font-size="10.00">modules.h</text>
</a>
</g>
</g>
<!-- Node10&#45;&gt;Node11 -->
<g id="edge12_Node000010_Node000011" class="edge">
<title>Node10&#45;&gt;Node11</title>
<g id="a_edge12_Node000010_Node000011"><a xlink:title=" ">
<path fill="none" stroke="#63b8ff" d="M486.29,-169.84C489.33,-162.91 493.51,-153.37 497.24,-144.86"/>
<polygon fill="#63b8ff" stroke="#63b8ff" points="500.33,-146.53 501.14,-135.96 493.92,-143.72 500.33,-146.53"/>
</a>
</g>
</g>
<!-- Node12 -->
<g id="Node000012" class="node">
<title>Node12</title>
<g id="a_Node000012"><a xlink:href="riot__version_8h.html" target="_top" xlink:title="Common macros and compiler attributes/pragmas configuration.">
<polygon fill="white" stroke="#666666" points="486.38,-77.5 403.62,-77.5 403.62,-56.75 486.38,-56.75 486.38,-77.5"/>
<text text-anchor="middle" x="445" y="-64" font-family="Helvetica,sans-Serif" font-size="10.00">riot_version.h</text>
</a>
</g>
</g>
<!-- Node10&#45;&gt;Node12 -->
<g id="edge13_Node000010_Node000012" class="edge">
<title>Node10&#45;&gt;Node12</title>
<g id="a_edge13_Node000010_Node000012"><a xlink:title=" ">
<path fill="none" stroke="#63b8ff" d="M477.86,-169.99C474.02,-160.88 468.27,-146.76 464,-134.25 458.86,-119.17 453.92,-101.86 450.36,-88.73"/>
<polygon fill="#63b8ff" stroke="#63b8ff" points="453.75,-87.86 447.81,-79.1 446.99,-89.66 453.75,-87.86"/>
</a>
</g>
</g>
<!-- Node13 -->
<g id="Node000013" class="node">
<title>Node13</title>
<g id="a_Node000013"><a xlink:href="compiler__hints_8h.html" target="_top" xlink:title="Common macros and compiler attributes/pragmas configuration.">
<polygon fill="white" stroke="#666666" points="339.5,-134.25 242.5,-134.25 242.5,-113.5 339.5,-113.5 339.5,-134.25"/>
<text text-anchor="middle" x="291" y="-120.75" font-family="Helvetica,sans-Serif" font-size="10.00">compiler_hints.h</text>
</a>
</g>
</g>
<!-- Node10&#45;&gt;Node13 -->
<g id="edge15_Node000010_Node000013" class="edge">
<title>Node10&#45;&gt;Node13</title>
<g id="a_edge15_Node000010_Node000013"><a xlink:title=" ">
<path fill="none" stroke="#63b8ff" d="M447.85,-169.84C416.58,-160.87 370.08,-147.54 335.83,-137.73"/>
<polygon fill="#63b8ff" stroke="#63b8ff" points="337.21,-134.48 326.63,-135.09 335.28,-141.21 337.21,-134.48"/>
</a>
</g>
</g>
<!-- Node15 -->
<g id="Node000015" class="node">
<title>Node15</title>
<g id="a_Node000015"><a xlink:href="container_8h.html" target="_top" xlink:title="Common macros and compiler attributes/pragmas configuration.">
<polygon fill="white" stroke="#666666" points="628.38,-134.25 557.62,-134.25 557.62,-113.5 628.38,-113.5 628.38,-134.25"/>
<text text-anchor="middle" x="593" y="-120.75" font-family="Helvetica,sans-Serif" font-size="10.00">container.h</text>
</a>
</g>
</g>
<!-- Node10&#45;&gt;Node15 -->
<g id="edge19_Node000010_Node000015" class="edge">
<title>Node10&#45;&gt;Node15</title>
<g id="a_edge19_Node000010_Node000015"><a xlink:title=" ">
<path fill="none" stroke="#63b8ff" d="M501.84,-169.84C518.89,-161.43 543.72,-149.18 563.16,-139.59"/>
<polygon fill="#63b8ff" stroke="#63b8ff" points="564.55,-142.81 571.97,-135.25 561.45,-136.53 564.55,-142.81"/>
</a>
</g>
</g>
<!-- Node12&#45;&gt;Node2 -->
<g id="edge14_Node000012_Node000002" class="edge">
<title>Node12&#45;&gt;Node2</title>
<g id="a_edge14_Node000012_Node000002"><a xlink:title=" ">
<path fill="none" stroke="#63b8ff" d="M458.23,-56.34C468.96,-48.4 484.32,-37.03 496.92,-27.71"/>
<polygon fill="#63b8ff" stroke="#63b8ff" points="498.71,-30.74 504.67,-21.98 494.55,-25.11 498.71,-30.74"/>
</a>
</g>
</g>
<!-- Node13&#45;&gt;Node2 -->
<g id="edge18_Node000013_Node000002" class="edge">
<title>Node13&#45;&gt;Node2</title>
<g id="a_edge18_Node000013_Node000002"><a xlink:title=" ">
<path fill="none" stroke="#63b8ff" d="M304.25,-113.13C323.49,-99.28 360.66,-73.7 395,-56.75 422.99,-42.93 456.28,-30.98 481.31,-22.81"/>
<polygon fill="#63b8ff" stroke="#63b8ff" points="482.29,-26.18 490.75,-19.8 480.16,-19.51 482.29,-26.18"/>
</a>
</g>
</g>
<!-- Node14 -->
<g id="Node000014" class="node">
<title>Node14</title>
<g id="a_Node000014"><a xlink:href="assert_8h.html" target="_top" xlink:title="POSIX.1&#45;2008 compliant version of the assert macro.">
<polygon fill="white" stroke="#666666" points="318.5,-77.5 263.5,-77.5 263.5,-56.75 318.5,-56.75 318.5,-77.5"/>
<text text-anchor="middle" x="291" y="-64" font-family="Helvetica,sans-Serif" font-size="10.00">assert.h</text>
</a>
</g>
</g>
<!-- Node13&#45;&gt;Node14 -->
<g id="edge16_Node000013_Node000014" class="edge">
<title>Node13&#45;&gt;Node14</title>
<g id="a_edge16_Node000013_Node000014"><a xlink:title=" ">
<path fill="none" stroke="#63b8ff" d="M291,-113.09C291,-106.47 291,-97.47 291,-89.27"/>
<polygon fill="#63b8ff" stroke="#63b8ff" points="294.5,-89.34 291,-79.34 287.5,-89.34 294.5,-89.34"/>
</a>
</g>
</g>
<!-- Node14&#45;&gt;Node2 -->
<g id="edge17_Node000014_Node000002" class="edge">
<title>Node14&#45;&gt;Node2</title>
<g id="a_edge17_Node000014_Node000002"><a xlink:title=" ">
<path fill="none" stroke="#63b8ff" d="M318.96,-59.41C359.74,-49.62 435.63,-31.39 481.31,-20.43"/>
<polygon fill="#63b8ff" stroke="#63b8ff" points="481.85,-23.89 490.76,-18.16 480.22,-17.09 481.85,-23.89"/>
</a>
</g>
</g>
<!-- Node15&#45;&gt;Node2 -->
<g id="edge21_Node000015_Node000002" class="edge">
<title>Node15&#45;&gt;Node2</title>
<g id="a_edge21_Node000015_Node000002"><a xlink:title=" ">
<path fill="none" stroke="#63b8ff" d="M591.24,-113.21C588.45,-99.68 582.02,-74.74 570,-56.75 562.61,-45.7 551.91,-35.62 542.21,-27.79"/>
<polygon fill="#63b8ff" stroke="#63b8ff" points="544.63,-25.23 534.57,-21.92 540.37,-30.79 544.63,-25.23"/>
</a>
</g>
</g>
<!-- Node15&#45;&gt;Node4 -->
<g id="edge20_Node000015_Node000004" class="edge">
<title>Node15&#45;&gt;Node4</title>
<g id="a_edge20_Node000015_Node000004"><a xlink:title=" ">
<path fill="none" stroke="#63b8ff" d="M582.27,-113.09C573.91,-105.46 562.09,-94.67 552.12,-85.57"/>
<polygon fill="#63b8ff" stroke="#63b8ff" points="554.5,-83 544.75,-78.85 549.78,-88.17 554.5,-83"/>
</a>
</g>
</g>
<!-- Node18 -->
<g id="Node000018" class="node">
<title>Node18</title>
<g id="a_Node000018"><a xlink:href="clist_8h.html" target="_top" xlink:title="Circular linked list.">
<polygon fill="white" stroke="#666666" points="192.62,-191 147.38,-191 147.38,-170.25 192.62,-170.25 192.62,-191"/>
<text text-anchor="middle" x="170" y="-177.5" font-family="Helvetica,sans-Serif" font-size="10.00">clist.h</text>
</a>
</g>
</g>
<!-- Node17&#45;&gt;Node18 -->
<g id="edge24_Node000017_Node000018" class="edge">
<title>Node17&#45;&gt;Node18</title>
<g id="a_edge24_Node000017_Node000018"><a xlink:title=" ">
<path fill="none" stroke="#63b8ff" d="M270.08,-340.01C255.56,-332.03 236.2,-319.64 223,-304.5 196.51,-274.11 181.58,-228.47 174.71,-202.21"/>
<polygon fill="#63b8ff" stroke="#63b8ff" points="178.18,-201.67 172.4,-192.8 171.39,-203.34 178.18,-201.67"/>
</a>
</g>
</g>
<!-- Node19 -->
<g id="Node000019" class="node">
<title>Node19</title>
<g id="a_Node000019"><a xlink:href="cib_8h.html" target="_top" xlink:title="Circular integer buffer interface.">
<polygon fill="white" stroke="#666666" points="243.62,-247.75 204.38,-247.75 204.38,-227 243.62,-227 243.62,-247.75"/>
<text text-anchor="middle" x="224" y="-234.25" font-family="Helvetica,sans-Serif" font-size="10.00">cib.h</text>
</a>
</g>
</g>
<!-- Node17&#45;&gt;Node19 -->
<g id="edge28_Node000017_Node000019" class="edge">
<title>Node17&#45;&gt;Node19</title>
<g id="a_edge28_Node000017_Node000019"><a xlink:title=" ">
<path fill="none" stroke="#63b8ff" d="M272.48,-340.12C259.97,-332.2 243.84,-319.84 235,-304.5 227.08,-290.76 224.47,-272.91 223.77,-259.22"/>
<polygon fill="#63b8ff" stroke="#63b8ff" points="227.28,-259.5 223.59,-249.57 220.28,-259.63 227.28,-259.5"/>
</a>
</g>
</g>
<!-- Node20 -->
<g id="Node000020" class="node">
<title>Node20</title>
<g id="a_Node000020"><a xlink:href="core_2include_2msg_8h.html" target="_top" xlink:title="Messaging API for inter process communication.">
<polygon fill="white" stroke="#666666" points="150,-304.5 104,-304.5 104,-283.75 150,-283.75 150,-304.5"/>
<text text-anchor="middle" x="127" y="-291" font-family="Helvetica,sans-Serif" font-size="10.00">msg.h</text>
</a>
</g>
</g>
<!-- Node17&#45;&gt;Node20 -->
<g id="edge30_Node000017_Node000020" class="edge">
<title>Node17&#45;&gt;Node20</title>
<g id="a_edge30_Node000017_Node000020"><a xlink:title=" ">
<path fill="none" stroke="#63b8ff" d="M261.61,-340.34C233.62,-330.94 190.84,-316.57 161.05,-306.56"/>
<polygon fill="#63b8ff" stroke="#63b8ff" points="162.35,-303.31 151.76,-303.44 160.12,-309.94 162.35,-303.31"/>
</a>
</g>
</g>
<!-- Node21 -->
<g id="Node000021" class="node">
<title>Node21</title>
<g id="a_Node000021"><a xlink:href="sched_8h.html" target="_top" xlink:title="Scheduler API definition.">
<polygon fill="white" stroke="#666666" points="418.75,-247.75 365.25,-247.75 365.25,-227 418.75,-227 418.75,-247.75"/>
<text text-anchor="middle" x="392" y="-234.25" font-family="Helvetica,sans-Serif" font-size="10.00">sched.h</text>
</a>
</g>
</g>
<!-- Node17&#45;&gt;Node21 -->
<g id="edge39_Node000017_Node000021" class="edge">
<title>Node17&#45;&gt;Node21</title>
<g id="a_edge39_Node000017_Node000021"><a xlink:title=" ">
<path fill="none" stroke="#63b8ff" d="M318.53,-345.65C358.99,-339 429.83,-324.75 445,-304.5 458.13,-286.97 438.07,-267.47 418.98,-254.22"/>
<polygon fill="#63b8ff" stroke="#63b8ff" points="421.11,-251.43 410.82,-248.9 417.29,-257.29 421.11,-251.43"/>
</a>
</g>
</g>
<!-- Node23 -->
<g id="Node000023" class="node">
<title>Node23</title>
<g id="a_Node000023"><a xlink:href="thread__config_8h.html" target="_top" xlink:title="Thread configuration defines.">
<polygon fill="white" stroke="#666666" points="335.88,-304.5 244.12,-304.5 244.12,-283.75 335.88,-283.75 335.88,-304.5"/>
<text text-anchor="middle" x="290" y="-291" font-family="Helvetica,sans-Serif" font-size="10.00">thread_config.h</text>
</a>
</g>
</g>
<!-- Node17&#45;&gt;Node23 -->
<g id="edge40_Node000017_Node000023" class="edge">
<title>Node17&#45;&gt;Node23</title>
<g id="a_edge40_Node000017_Node000023"><a xlink:title=" ">
<path fill="none" stroke="#63b8ff" d="M290,-340.09C290,-333.47 290,-324.47 290,-316.27"/>
<polygon fill="#63b8ff" stroke="#63b8ff" points="293.5,-316.34 290,-306.34 286.5,-316.34 293.5,-316.34"/>
</a>
</g>
</g>
<!-- Node25 -->
<g id="Node000025" class="node">
<title>Node25</title>
<g id="a_Node000025"><a xlink:title=" ">
<polygon fill="#e0e0e0" stroke="#999999" points="436.38,-304.5 353.62,-304.5 353.62,-283.75 436.38,-283.75 436.38,-304.5"/>
<text text-anchor="middle" x="395" y="-291" font-family="Helvetica,sans-Serif" font-size="10.00">thread_arch.h</text>
</a>
</g>
</g>
<!-- Node17&#45;&gt;Node25 -->
<g id="edge43_Node000017_Node000025" class="edge">
<title>Node17&#45;&gt;Node25</title>
<g id="a_edge43_Node000017_Node000025"><a xlink:title=" ">
<path fill="none" stroke="#63b8ff" d="M308.77,-340.09C324.75,-331.76 347.95,-319.66 366.26,-310.11"/>
<polygon fill="#63b8ff" stroke="#63b8ff" points="367.8,-313.26 375.05,-305.53 364.56,-307.05 367.8,-313.26"/>
</a>
</g>
</g>
<!-- Node18&#45;&gt;Node4 -->
<g id="edge26_Node000018_Node000004" class="edge">
<title>Node18&#45;&gt;Node4</title>
<g id="a_edge26_Node000018_Node000004"><a xlink:title=" ">
<path fill="none" stroke="#63b8ff" d="M192.9,-175.25C227.19,-168.38 293.68,-153.78 348,-134.25 368.35,-126.94 371.89,-121.44 392,-113.5 426,-100.08 465.71,-87.57 494.31,-79.1"/>
<polygon fill="#63b8ff" stroke="#63b8ff" points="495,-82.55 503.62,-76.38 493.04,-75.83 495,-82.55"/>
</a>
</g>
</g>
<!-- Node18&#45;&gt;Node5 -->
<g id="edge25_Node000018_Node000005" class="edge">
<title>Node18&#45;&gt;Node5</title>
<g id="a_edge25_Node000018_Node000005"><a xlink:title=" ">
<path fill="none" stroke="#63b8ff" d="M167.32,-169.84C165.46,-163.06 162.92,-153.8 160.63,-145.44"/>
<polygon fill="#63b8ff" stroke="#63b8ff" points="164.08,-144.76 158.06,-136.04 157.33,-146.61 164.08,-144.76"/>
</a>
</g>
</g>
<!-- Node18&#45;&gt;Node16 -->
<g id="edge27_Node000018_Node000016" class="edge">
<title>Node18&#45;&gt;Node16</title>
<g id="a_edge27_Node000018_Node000016"><a xlink:title=" ">
<path fill="none" stroke="#63b8ff" d="M154.98,-169.84C142.56,-161.74 124.68,-150.08 110.23,-140.67"/>
<polygon fill="#63b8ff" stroke="#63b8ff" points="112.44,-137.93 102.16,-135.4 108.62,-143.8 112.44,-137.93"/>
</a>
</g>
</g>
<!-- Node19&#45;&gt;Node14 -->
<g id="edge29_Node000019_Node000014" class="edge">
<title>Node19&#45;&gt;Node14</title>
<g id="a_edge29_Node000019_Node000014"><a xlink:title=" ">
<path fill="none" stroke="#63b8ff" d="M222.21,-226.73C218.7,-205.01 212.87,-151.25 233,-113.5 239.45,-101.41 250.67,-91.49 261.53,-84.04"/>
<polygon fill="#63b8ff" stroke="#63b8ff" points="263.38,-87.01 269.97,-78.71 259.65,-81.09 263.38,-87.01"/>
</a>
</g>
</g>
<!-- Node20&#45;&gt;Node2 -->
<g id="edge31_Node000020_Node000002" class="edge">
<title>Node20&#45;&gt;Node2</title>
<g id="a_edge31_Node000020_Node000002"><a xlink:title=" ">
<path fill="none" stroke="#63b8ff" d="M111.09,-283.29C85.49,-266.09 38,-227.94 38,-181.62 38,-181.62 38,-181.62 38,-122.88 38,-32.01 367.86,-15.18 481.25,-12.07"/>
<polygon fill="#63b8ff" stroke="#63b8ff" points="481.03,-15.58 490.94,-11.83 480.86,-8.58 481.03,-15.58"/>
</a>
</g>
</g>
<!-- Node20&#45;&gt;Node5 -->
<g id="edge32_Node000020_Node000005" class="edge">
<title>Node20&#45;&gt;Node5</title>
<g id="a_edge32_Node000020_Node000005"><a xlink:title=" ">
<path fill="none" stroke="#63b8ff" d="M126.99,-283.43C127.15,-262.49 128.59,-211.6 138,-170.25 139.91,-161.86 143.01,-152.93 146.04,-145.24"/>
<polygon fill="#63b8ff" stroke="#63b8ff" points="149.22,-146.7 149.84,-136.13 142.76,-144.01 149.22,-146.7"/>
</a>
</g>
</g>
<!-- Node20&#45;&gt;Node21 -->
<g id="edge33_Node000020_Node000021" class="edge">
<title>Node20&#45;&gt;Node21</title>
<g id="a_edge33_Node000020_Node000021"><a xlink:title=" ">
<path fill="none" stroke="#63b8ff" d="M150.05,-288.36C195.67,-278.94 297.84,-257.83 353.71,-246.28"/>
<polygon fill="#63b8ff" stroke="#63b8ff" points="354.33,-249.73 363.42,-244.28 352.91,-242.88 354.33,-249.73"/>
</a>
</g>
</g>
<!-- Node21&#45;&gt;Node4 -->
<g id="edge34_Node000021_Node000004" class="edge">
<title>Node21&#45;&gt;Node4</title>
<g id="a_edge34_Node000021_Node000004"><a xlink:title=" ">
<path fill="none" stroke="#63b8ff" d="M395.63,-226.61C404.36,-204.19 428.5,-148.28 464,-113.5 475.8,-101.94 490.95,-91.6 504.05,-83.71"/>
<polygon fill="#63b8ff" stroke="#63b8ff" points="505.8,-86.74 512.7,-78.7 502.29,-80.69 505.8,-86.74"/>
</a>
</g>
</g>
<!-- Node21&#45;&gt;Node7 -->
<g id="edge35_Node000021_Node000007" class="edge">
<title>Node21&#45;&gt;Node7</title>
<g id="a_edge35_Node000021_Node000007"><a xlink:title=" ">
<path fill="none" stroke="#63b8ff" d="M419.08,-228.53C449.97,-219.58 500.93,-204.82 537.43,-194.25"/>
<polygon fill="#63b8ff" stroke="#63b8ff" points="538.17,-197.68 546.8,-191.53 536.22,-190.95 538.17,-197.68"/>
</a>
</g>
</g>
<!-- Node21&#45;&gt;Node10 -->
<g id="edge36_Node000021_Node000010" class="edge">
<title>Node21&#45;&gt;Node10</title>
<g id="a_edge36_Node000021_Node000010"><a xlink:title=" ">
<path fill="none" stroke="#63b8ff" d="M408.09,-226.59C421.53,-218.41 440.93,-206.61 456.49,-197.15"/>
<polygon fill="#63b8ff" stroke="#63b8ff" points="458.03,-200.3 464.76,-192.12 454.39,-194.32 458.03,-200.3"/>
</a>
</g>
</g>
<!-- Node21&#45;&gt;Node18 -->
<g id="edge38_Node000021_Node000018" class="edge">
<title>Node21&#45;&gt;Node18</title>
<g id="a_edge38_Node000021_Node000018"><a xlink:title=" ">
<path fill="none" stroke="#63b8ff" d="M364.78,-229.66C324.28,-219.67 248.22,-200.92 204.09,-190.03"/>
<polygon fill="#63b8ff" stroke="#63b8ff" points="205.08,-186.67 194.53,-187.68 203.41,-193.47 205.08,-186.67"/>
</a>
</g>
</g>
<!-- Node22 -->
<g id="Node000022" class="node">
<title>Node22</title>
<g id="a_Node000022"><a xlink:href="native__sched_8h.html" target="_top" xlink:title="Add definitions required on the native board.">
<polygon fill="white" stroke="#666666" points="377.75,-191 288.25,-191 288.25,-170.25 377.75,-170.25 377.75,-191"/>
<text text-anchor="middle" x="333" y="-177.5" font-family="Helvetica,sans-Serif" font-size="10.00">native_sched.h</text>
</a>
</g>
</g>
<!-- Node21&#45;&gt;Node22 -->
<g id="edge37_Node000021_Node000022" class="edge">
<title>Node21&#45;&gt;Node22</title>
<g id="a_edge37_Node000021_Node000022"><a xlink:title=" ">
<path fill="none" stroke="#63b8ff" d="M381.45,-226.59C373.23,-218.96 361.6,-208.17 351.8,-199.07"/>
<polygon fill="#63b8ff" stroke="#63b8ff" points="354.28,-196.59 344.57,-192.36 349.52,-201.73 354.28,-196.59"/>
</a>
</g>
</g>
<!-- Node23&#45;&gt;Node21 -->
<g id="edge42_Node000023_Node000021" class="edge">
<title>Node23&#45;&gt;Node21</title>
<g id="a_edge42_Node000023_Node000021"><a xlink:title=" ">
<path fill="none" stroke="#63b8ff" d="M308.24,-283.34C323.68,-275.05 346.09,-263.02 363.84,-253.49"/>
<polygon fill="#63b8ff" stroke="#63b8ff" points="365.43,-256.61 372.59,-248.79 362.12,-250.44 365.43,-256.61"/>
</a>
</g>
</g>
<!-- Node24 -->
<g id="Node000024" class="node">
<title>Node24</title>
<g id="a_Node000024"><a xlink:title=" ">
<polygon fill="#e0e0e0" stroke="#999999" points="329.88,-247.75 262.12,-247.75 262.12,-227 329.88,-227 329.88,-247.75"/>
<text text-anchor="middle" x="296" y="-234.25" font-family="Helvetica,sans-Serif" font-size="10.00">cpu_conf.h</text>
</a>
</g>
</g>
<!-- Node23&#45;&gt;Node24 -->
<g id="edge41_Node000023_Node000024" class="edge">
<title>Node23&#45;&gt;Node24</title>
<g id="a_edge41_Node000023_Node000024"><a xlink:title=" ">
<path fill="none" stroke="#63b8ff" d="M291.07,-283.34C291.8,-276.72 292.78,-267.72 293.68,-259.52"/>
<polygon fill="#63b8ff" stroke="#63b8ff" points="297.16,-259.9 294.77,-249.58 290.2,-259.14 297.16,-259.9"/>
</a>
</g>
</g>
<!-- Node26&#45;&gt;Node8 -->
<g id="edge45_Node000026_Node000008" class="edge">
<title>Node26&#45;&gt;Node8</title>
<g id="a_edge45_Node000026_Node000008"><a xlink:title=" ">
<path fill="none" stroke="#63b8ff" d="M872.79,-396.94C861.11,-388.97 846.18,-376.53 839,-361.25 832.34,-347.08 831.92,-329.26 832.98,-315.69"/>
<polygon fill="#63b8ff" stroke="#63b8ff" points="836.41,-316.48 834.07,-306.15 829.46,-315.69 836.41,-316.48"/>
</a>
</g>
</g>
<!-- Node27 -->
<g id="Node000027" class="node">
<title>Node27</title>
<g id="a_Node000027"><a xlink:title=" ">
<polygon fill="#e0e0e0" stroke="#999999" points="1026.12,-361.25 947.88,-361.25 947.88,-340.5 1026.12,-340.5 1026.12,-361.25"/>
<text text-anchor="middle" x="987" y="-347.75" font-family="Helvetica,sans-Serif" font-size="10.00">periph_cpu.h</text>
</a>
</g>
</g>
<!-- Node26&#45;&gt;Node27 -->
<g id="edge46_Node000026_Node000027" class="edge">
<title>Node26&#45;&gt;Node27</title>
<g id="a_edge46_Node000026_Node000027"><a xlink:title=" ">
<path fill="none" stroke="#63b8ff" d="M906.52,-396.84C921.29,-388.58 942.68,-376.63 959.7,-367.13"/>
<polygon fill="#63b8ff" stroke="#63b8ff" points="961.29,-370.25 968.31,-362.32 957.87,-364.14 961.29,-370.25"/>
</a>
</g>
</g>
<!-- Node28 -->
<g id="Node000028" class="node">
<title>Node28</title>
<g id="a_Node000028"><a xlink:title=" ">
<polygon fill="#e0e0e0" stroke="#999999" points="929.62,-361.25 848.38,-361.25 848.38,-340.5 929.62,-340.5 929.62,-361.25"/>
<text text-anchor="middle" x="889" y="-347.75" font-family="Helvetica,sans-Serif" font-size="10.00">periph_conf.h</text>
</a>
</g>
</g>
<!-- Node26&#45;&gt;Node28 -->
<g id="edge47_Node000026_Node000028" class="edge">
<title>Node26&#45;&gt;Node28</title>
<g id="a_edge47_Node000026_Node000028"><a xlink:title=" ">
<path fill="none" stroke="#63b8ff" d="M889,-396.84C889,-390.22 889,-381.22 889,-373.02"/>
<polygon fill="#63b8ff" stroke="#63b8ff" points="892.5,-373.09 889,-363.09 885.5,-373.09 892.5,-373.09"/>
</a>
</g>
</g>
</g>
</svg>
