<?xml version="1.0" encoding="UTF-8" standalone="no"?>
<!DOCTYPE svg PUBLIC "-//W3C//DTD SVG 1.1//EN"
 "http://www.w3.org/Graphics/SVG/1.1/DTD/svg11.dtd">
<!-- Generated by graphviz version 12.1.1 (0)
 -->
<!-- Title: pkg/lua/include/lua_run.h Pages: 1 -->
<svg width="121pt" height="98pt"
 viewBox="0.00 0.00 120.50 98.25" xmlns="http://www.w3.org/2000/svg" xmlns:xlink="http://www.w3.org/1999/xlink">
<g id="graph0" class="graph" transform="scale(1 1) rotate(0) translate(4 94.25)">
<title>pkg/lua/include/lua_run.h</title>
<!-- Node1 -->
<g id="Node000001" class="node">
<title>Node1</title>
<g id="a_Node000001"><a xlink:title="Convenience functions for running Lua code.">
<polygon fill="#999999" stroke="#666666" points="112.5,-90.25 4.25,-90.25 4.25,-56.75 112.5,-56.75 112.5,-90.25"/>
<text text-anchor="start" x="12.25" y="-76.75" font-family="Helvetica,sans-Serif" font-size="10.00">pkg/lua/include/lua</text>
<text text-anchor="middle" x="58.38" y="-64" font-family="Helvetica,sans-Serif" font-size="10.00">_run.h</text>
</a>
</g>
</g>
<!-- Node2 -->
<g id="Node000002" class="node">
<title>Node2</title>
<g id="a_Node000002"><a xlink:title=" ">
<polygon fill="#e0e0e0" stroke="#999999" points="52.75,-20.75 0,-20.75 0,0 52.75,0 52.75,-20.75"/>
<text text-anchor="middle" x="26.38" y="-7.25" font-family="Helvetica,sans-Serif" font-size="10.00">stdint.h</text>
</a>
</g>
</g>
<!-- Node1&#45;&gt;Node2 -->
<g id="edge1_Node000001_Node000002" class="edge">
<title>Node1&#45;&gt;Node2</title>
<g id="a_edge1_Node000001_Node000002"><a xlink:title=" ">
<path fill="none" stroke="#63b8ff" d="M49.97,-56.44C45.94,-48.76 41.09,-39.48 36.83,-31.34"/>
<polygon fill="#63b8ff" stroke="#63b8ff" points="39.97,-29.79 32.23,-22.56 33.77,-33.04 39.97,-29.79"/>
</a>
</g>
</g>
<!-- Node3 -->
<g id="Node000003" class="node">
<title>Node3</title>
<g id="a_Node000003"><a xlink:title=" ">
<polygon fill="#e0e0e0" stroke="#999999" points="110.38,-20.75 70.38,-20.75 70.38,0 110.38,0 110.38,-20.75"/>
<text text-anchor="middle" x="90.38" y="-7.25" font-family="Helvetica,sans-Serif" font-size="10.00">lua.h</text>
</a>
</g>
</g>
<!-- Node1&#45;&gt;Node3 -->
<g id="edge2_Node000001_Node000003" class="edge">
<title>Node1&#45;&gt;Node3</title>
<g id="a_edge2_Node000001_Node000003"><a xlink:title=" ">
<path fill="none" stroke="#63b8ff" d="M66.78,-56.44C70.81,-48.76 75.66,-39.48 79.92,-31.34"/>
<polygon fill="#63b8ff" stroke="#63b8ff" points="82.98,-33.04 84.52,-22.56 76.78,-29.79 82.98,-33.04"/>
</a>
</g>
</g>
</g>
</svg>
