<?xml version="1.0" encoding="UTF-8" standalone="no"?>
<!DOCTYPE svg PUBLIC "-//W3C//DTD SVG 1.1//EN"
 "http://www.w3.org/Graphics/SVG/1.1/DTD/svg11.dtd">
<!-- Generated by graphviz version 12.1.1 (0)
 -->
<!-- Title: pkg/lvgl/include/lvgl_riot.h Pages: 1 -->
<svg width="211pt" height="212pt"
 viewBox="0.00 0.00 210.88 211.75" xmlns="http://www.w3.org/2000/svg" xmlns:xlink="http://www.w3.org/1999/xlink">
<g id="graph0" class="graph" transform="scale(1 1) rotate(0) translate(4 207.75)">
<title>pkg/lvgl/include/lvgl_riot.h</title>
<!-- Node1 -->
<g id="Node000001" class="node">
<title>Node1</title>
<g id="a_Node000001"><a xlink:title="Definition for the LVGL engine initialization.">
<polygon fill="#999999" stroke="#666666" points="162.62,-203.75 48.38,-203.75 48.38,-170.25 162.62,-170.25 162.62,-203.75"/>
<text text-anchor="start" x="56.38" y="-190.25" font-family="Helvetica,sans-Serif" font-size="10.00">pkg/lvgl/include/lvgl</text>
<text text-anchor="middle" x="105.5" y="-177.5" font-family="Helvetica,sans-Serif" font-size="10.00">_riot.h</text>
</a>
</g>
</g>
<!-- Node2 -->
<g id="Node000002" class="node">
<title>Node2</title>
<g id="a_Node000002"><a xlink:href="screen__dev_8h_source.html" target="_top" xlink:title=" ">
<polygon fill="white" stroke="#666666" points="145.38,-134.25 65.62,-134.25 65.62,-113.5 145.38,-113.5 145.38,-134.25"/>
<text text-anchor="middle" x="105.5" y="-120.75" font-family="Helvetica,sans-Serif" font-size="10.00">screen_dev.h</text>
</a>
</g>
</g>
<!-- Node1&#45;&gt;Node2 -->
<g id="edge1_Node000001_Node000002" class="edge">
<title>Node1&#45;&gt;Node2</title>
<g id="a_edge1_Node000001_Node000002"><a xlink:title=" ">
<path fill="none" stroke="#63b8ff" d="M105.5,-169.94C105.5,-162.6 105.5,-153.82 105.5,-145.96"/>
<polygon fill="#63b8ff" stroke="#63b8ff" points="109,-146.23 105.5,-136.23 102,-146.23 109,-146.23"/>
</a>
</g>
</g>
<!-- Node3 -->
<g id="Node000003" class="node">
<title>Node3</title>
<g id="a_Node000003"><a xlink:href="disp__dev_8h_source.html" target="_top" xlink:title=" ">
<polygon fill="white" stroke="#666666" points="139.38,-77.5 71.62,-77.5 71.62,-56.75 139.38,-56.75 139.38,-77.5"/>
<text text-anchor="middle" x="105.5" y="-64" font-family="Helvetica,sans-Serif" font-size="10.00">disp_dev.h</text>
</a>
</g>
</g>
<!-- Node2&#45;&gt;Node3 -->
<g id="edge2_Node000002_Node000003" class="edge">
<title>Node2&#45;&gt;Node3</title>
<g id="a_edge2_Node000002_Node000003"><a xlink:title=" ">
<path fill="none" stroke="#63b8ff" d="M105.5,-113.09C105.5,-106.47 105.5,-97.47 105.5,-89.27"/>
<polygon fill="#63b8ff" stroke="#63b8ff" points="109,-89.34 105.5,-79.34 102,-89.34 109,-89.34"/>
</a>
</g>
</g>
<!-- Node4 -->
<g id="Node000004" class="node">
<title>Node4</title>
<g id="a_Node000004"><a xlink:title=" ">
<polygon fill="#e0e0e0" stroke="#999999" points="61,-20.75 0,-20.75 0,0 61,0 61,-20.75"/>
<text text-anchor="middle" x="30.5" y="-7.25" font-family="Helvetica,sans-Serif" font-size="10.00">stdbool.h</text>
</a>
</g>
</g>
<!-- Node3&#45;&gt;Node4 -->
<g id="edge3_Node000003_Node000004" class="edge">
<title>Node3&#45;&gt;Node4</title>
<g id="a_edge3_Node000003_Node000004"><a xlink:title=" ">
<path fill="none" stroke="#63b8ff" d="M92.09,-56.34C81.21,-48.4 65.64,-37.03 52.88,-27.71"/>
<polygon fill="#63b8ff" stroke="#63b8ff" points="55.16,-25.04 45.01,-21.97 51.03,-30.69 55.16,-25.04"/>
</a>
</g>
</g>
<!-- Node5 -->
<g id="Node000005" class="node">
<title>Node5</title>
<g id="a_Node000005"><a xlink:title=" ">
<polygon fill="#e0e0e0" stroke="#999999" points="131.88,-20.75 79.12,-20.75 79.12,0 131.88,0 131.88,-20.75"/>
<text text-anchor="middle" x="105.5" y="-7.25" font-family="Helvetica,sans-Serif" font-size="10.00">stdint.h</text>
</a>
</g>
</g>
<!-- Node3&#45;&gt;Node5 -->
<g id="edge4_Node000003_Node000005" class="edge">
<title>Node3&#45;&gt;Node5</title>
<g id="a_edge4_Node000003_Node000005"><a xlink:title=" ">
<path fill="none" stroke="#63b8ff" d="M105.5,-56.34C105.5,-49.72 105.5,-40.72 105.5,-32.52"/>
<polygon fill="#63b8ff" stroke="#63b8ff" points="109,-32.59 105.5,-22.59 102,-32.59 109,-32.59"/>
</a>
</g>
</g>
<!-- Node6 -->
<g id="Node000006" class="node">
<title>Node6</title>
<g id="a_Node000006"><a xlink:title=" ">
<polygon fill="#e0e0e0" stroke="#999999" points="202.88,-20.75 150.12,-20.75 150.12,0 202.88,0 202.88,-20.75"/>
<text text-anchor="middle" x="176.5" y="-7.25" font-family="Helvetica,sans-Serif" font-size="10.00">board.h</text>
</a>
</g>
</g>
<!-- Node3&#45;&gt;Node6 -->
<g id="edge5_Node000003_Node000006" class="edge">
<title>Node3&#45;&gt;Node6</title>
<g id="a_edge5_Node000003_Node000006"><a xlink:title=" ">
<path fill="none" stroke="#63b8ff" d="M118.19,-56.34C128.39,-48.47 142.94,-37.25 154.96,-27.99"/>
<polygon fill="#63b8ff" stroke="#63b8ff" points="156.94,-30.88 162.72,-22 152.66,-25.34 156.94,-30.88"/>
</a>
</g>
</g>
</g>
</svg>
