<?xml version="1.0" encoding="UTF-8" standalone="no"?>
<!DOCTYPE svg PUBLIC "-//W3C//DTD SVG 1.1//EN"
 "http://www.w3.org/Graphics/SVG/1.1/DTD/svg11.dtd">
<!-- Generated by graphviz version 12.1.1 (0)
 -->
<!-- Title: pkg/wakaama/include/lwm2m_client_objects.h Pages: 1 -->
<svg width="1486pt" height="439pt"
 viewBox="0.00 0.00 1485.88 438.75" xmlns="http://www.w3.org/2000/svg" xmlns:xlink="http://www.w3.org/1999/xlink">
<g id="graph0" class="graph" transform="scale(1 1) rotate(0) translate(4 434.75)">
<title>pkg/wakaama/include/lwm2m_client_objects.h</title>
<!-- Node1 -->
<g id="Node000001" class="node">
<title>Node1</title>
<g id="a_Node000001"><a xlink:title="Public API and definitions for the helper functions to interact with basic objects from a LwM2M clien...">
<polygon fill="#999999" stroke="#666666" points="1043.75,-430.75 906.25,-430.75 906.25,-397.25 1043.75,-397.25 1043.75,-430.75"/>
<text text-anchor="start" x="914.25" y="-417.25" font-family="Helvetica,sans-Serif" font-size="10.00">pkg/wakaama/include</text>
<text text-anchor="middle" x="975" y="-404.5" font-family="Helvetica,sans-Serif" font-size="10.00">/lwm2m_client_objects.h</text>
</a>
</g>
</g>
<!-- Node2 -->
<g id="Node000002" class="node">
<title>Node2</title>
<g id="a_Node000002"><a xlink:href="lwm2m__client_8h.html" target="_top" xlink:title="Definitions and public API for a LwM2M client using Wakaama.">
<polygon fill="white" stroke="#666666" points="1022,-361.25 928,-361.25 928,-340.5 1022,-340.5 1022,-361.25"/>
<text text-anchor="middle" x="975" y="-347.75" font-family="Helvetica,sans-Serif" font-size="10.00">lwm2m_client.h</text>
</a>
</g>
</g>
<!-- Node1&#45;&gt;Node2 -->
<g id="edge1_Node000001_Node000002" class="edge">
<title>Node1&#45;&gt;Node2</title>
<g id="a_edge1_Node000001_Node000002"><a xlink:title=" ">
<path fill="none" stroke="#63b8ff" d="M975,-396.94C975,-389.6 975,-380.82 975,-372.96"/>
<polygon fill="#63b8ff" stroke="#63b8ff" points="978.5,-373.23 975,-363.23 971.5,-373.23 978.5,-373.23"/>
</a>
</g>
</g>
<!-- Node3 -->
<g id="Node000003" class="node">
<title>Node3</title>
<g id="a_Node000003"><a xlink:title=" ">
<polygon fill="#e0e0e0" stroke="#999999" points="52,-304.5 0,-304.5 0,-283.75 52,-283.75 52,-304.5"/>
<text text-anchor="middle" x="26" y="-291" font-family="Helvetica,sans-Serif" font-size="10.00">ctype.h</text>
</a>
</g>
</g>
<!-- Node2&#45;&gt;Node3 -->
<g id="edge2_Node000002_Node000003" class="edge">
<title>Node2&#45;&gt;Node3</title>
<g id="a_edge2_Node000002_Node000003"><a xlink:title=" ">
<path fill="none" stroke="#63b8ff" d="M927.88,-350.51C792.89,-351.67 393.4,-350.65 66,-304.5 65.01,-304.36 64.01,-304.21 63,-304.05"/>
<polygon fill="#63b8ff" stroke="#63b8ff" points="64.09,-300.69 53.61,-302.24 62.77,-307.56 64.09,-300.69"/>
</a>
</g>
</g>
<!-- Node4 -->
<g id="Node000004" class="node">
<title>Node4</title>
<g id="a_Node000004"><a xlink:href="errno_8h.html" target="_top" xlink:title=" ">
<polygon fill="white" stroke="#666666" points="354.25,-247.75 303.75,-247.75 303.75,-227 354.25,-227 354.25,-247.75"/>
<text text-anchor="middle" x="329" y="-234.25" font-family="Helvetica,sans-Serif" font-size="10.00">errno.h</text>
</a>
</g>
</g>
<!-- Node2&#45;&gt;Node4 -->
<g id="edge3_Node000002_Node000004" class="edge">
<title>Node2&#45;&gt;Node4</title>
<g id="a_edge3_Node000002_Node000004"><a xlink:title=" ">
<path fill="none" stroke="#63b8ff" d="M927.56,-347.99C817.43,-343.23 547.18,-329.35 460,-304.5 420.38,-293.21 378.54,-269.79 353.09,-254.08"/>
<polygon fill="#63b8ff" stroke="#63b8ff" points="355.17,-251.25 344.84,-248.88 351.44,-257.17 355.17,-251.25"/>
</a>
</g>
</g>
<!-- Node5 -->
<g id="Node000005" class="node">
<title>Node5</title>
<g id="a_Node000005"><a xlink:href="stdio_8h.html" target="_top" xlink:title="stdio wrapper to extend the C libs stdio">
<polygon fill="white" stroke="#666666" points="518.5,-304.5 469.5,-304.5 469.5,-283.75 518.5,-283.75 518.5,-304.5"/>
<text text-anchor="middle" x="494" y="-291" font-family="Helvetica,sans-Serif" font-size="10.00">stdio.h</text>
</a>
</g>
</g>
<!-- Node2&#45;&gt;Node5 -->
<g id="edge4_Node000002_Node000005" class="edge">
<title>Node2&#45;&gt;Node5</title>
<g id="a_edge4_Node000002_Node000005"><a xlink:title=" ">
<path fill="none" stroke="#63b8ff" d="M927.56,-344.48C831.47,-333.54 615.7,-308.98 530.04,-299.23"/>
<polygon fill="#63b8ff" stroke="#63b8ff" points="530.68,-295.78 520.35,-298.12 529.89,-302.73 530.68,-295.78"/>
</a>
</g>
</g>
<!-- Node7 -->
<g id="Node000007" class="node">
<title>Node7</title>
<g id="a_Node000007"><a xlink:title=" ">
<polygon fill="#e0e0e0" stroke="#999999" points="916.38,-77.5 863.62,-77.5 863.62,-56.75 916.38,-56.75 916.38,-77.5"/>
<text text-anchor="middle" x="890" y="-64" font-family="Helvetica,sans-Serif" font-size="10.00">string.h</text>
</a>
</g>
</g>
<!-- Node2&#45;&gt;Node7 -->
<g id="edge21_Node000002_Node000007" class="edge">
<title>Node2&#45;&gt;Node7</title>
<g id="a_edge21_Node000002_Node000007"><a xlink:title=" ">
<path fill="none" stroke="#63b8ff" d="M980.39,-340.15C991.32,-319.17 1013.96,-268.18 1001,-227 982.67,-168.75 934.54,-113.24 908.08,-85.87"/>
<polygon fill="#63b8ff" stroke="#63b8ff" points="910.59,-83.43 901.07,-78.77 905.61,-88.35 910.59,-83.43"/>
</a>
</g>
</g>
<!-- Node17 -->
<g id="Node000017" class="node">
<title>Node17</title>
<g id="a_Node000017"><a xlink:title=" ">
<polygon fill="#e0e0e0" stroke="#999999" points="992,-247.75 940,-247.75 940,-227 992,-227 992,-247.75"/>
<text text-anchor="middle" x="966" y="-234.25" font-family="Helvetica,sans-Serif" font-size="10.00">stdlib.h</text>
</a>
</g>
</g>
<!-- Node2&#45;&gt;Node17 -->
<g id="edge20_Node000002_Node000017" class="edge">
<title>Node2&#45;&gt;Node17</title>
<g id="a_edge20_Node000002_Node000017"><a xlink:title=" ">
<path fill="none" stroke="#63b8ff" d="M974.23,-340.37C972.79,-322.52 969.65,-283.61 967.69,-259.34"/>
<polygon fill="#63b8ff" stroke="#63b8ff" points="971.21,-259.37 966.91,-249.68 964.23,-259.93 971.21,-259.37"/>
</a>
</g>
</g>
<!-- Node18 -->
<g id="Node000018" class="node">
<title>Node18</title>
<g id="a_Node000018"><a xlink:title=" ">
<polygon fill="#e0e0e0" stroke="#999999" points="1119.75,-247.75 1048.25,-247.75 1048.25,-227 1119.75,-227 1119.75,-247.75"/>
<text text-anchor="middle" x="1084" y="-234.25" font-family="Helvetica,sans-Serif" font-size="10.00">sys/types.h</text>
</a>
</g>
</g>
<!-- Node2&#45;&gt;Node18 -->
<g id="edge22_Node000002_Node000018" class="edge">
<title>Node2&#45;&gt;Node18</title>
<g id="a_edge22_Node000002_Node000018"><a xlink:title=" ">
<path fill="none" stroke="#63b8ff" d="M984.29,-340.37C1002.54,-321.7 1043.31,-279.99 1066.67,-256.1"/>
<polygon fill="#63b8ff" stroke="#63b8ff" points="1068.87,-258.85 1073.36,-249.26 1063.87,-253.96 1068.87,-258.85"/>
</a>
</g>
</g>
<!-- Node19 -->
<g id="Node000019" class="node">
<title>Node19</title>
<g id="a_Node000019"><a xlink:href="unistd_8h_source.html" target="_top" xlink:title=" ">
<polygon fill="white" stroke="#666666" points="154.5,-134.25 99.5,-134.25 99.5,-113.5 154.5,-113.5 154.5,-134.25"/>
<text text-anchor="middle" x="127" y="-120.75" font-family="Helvetica,sans-Serif" font-size="10.00">unistd.h</text>
</a>
</g>
</g>
<!-- Node2&#45;&gt;Node19 -->
<g id="edge23_Node000002_Node000019" class="edge">
<title>Node2&#45;&gt;Node19</title>
<g id="a_edge23_Node000002_Node000019"><a xlink:title=" ">
<path fill="none" stroke="#63b8ff" d="M927.72,-348.49C809.24,-344.63 502.1,-332.18 404,-304.5 296.97,-274.3 267.59,-260.79 181,-191 164.29,-177.53 149.2,-158.13 139.25,-143.83"/>
<polygon fill="#63b8ff" stroke="#63b8ff" points="142.29,-142.08 133.8,-135.73 136.48,-145.98 142.29,-142.08"/>
</a>
</g>
</g>
<!-- Node21 -->
<g id="Node000021" class="node">
<title>Node21</title>
<g id="a_Node000021"><a xlink:href="time_8h_source.html" target="_top" xlink:title=" ">
<polygon fill="white" stroke="#666666" points="1127.5,-304.5 1060.5,-304.5 1060.5,-283.75 1127.5,-283.75 1127.5,-304.5"/>
<text text-anchor="middle" x="1094" y="-291" font-family="Helvetica,sans-Serif" font-size="10.00">sys/time.h</text>
</a>
</g>
</g>
<!-- Node2&#45;&gt;Node21 -->
<g id="edge29_Node000002_Node000021" class="edge">
<title>Node2&#45;&gt;Node21</title>
<g id="a_edge29_Node000002_Node000021"><a xlink:title=" ">
<path fill="none" stroke="#63b8ff" d="M996.27,-340.09C1014.72,-331.6 1041.66,-319.2 1062.59,-309.58"/>
<polygon fill="#63b8ff" stroke="#63b8ff" points="1063.91,-312.82 1071.53,-305.46 1060.99,-306.46 1063.91,-312.82"/>
</a>
</g>
</g>
<!-- Node22 -->
<g id="Node000022" class="node">
<title>Node22</title>
<g id="a_Node000022"><a xlink:href="pm_8h.html" target="_top" xlink:title="Power management interface.">
<polygon fill="white" stroke="#666666" points="1238.25,-304.5 1163.75,-304.5 1163.75,-283.75 1238.25,-283.75 1238.25,-304.5"/>
<text text-anchor="middle" x="1201" y="-291" font-family="Helvetica,sans-Serif" font-size="10.00">periph/pm.h</text>
</a>
</g>
</g>
<!-- Node2&#45;&gt;Node22 -->
<g id="edge32_Node000002_Node000022" class="edge">
<title>Node2&#45;&gt;Node22</title>
<g id="a_edge32_Node000002_Node000022"><a xlink:title=" ">
<path fill="none" stroke="#63b8ff" d="M1015.67,-340.02C1054,-330.74 1111.49,-316.81 1152.26,-306.93"/>
<polygon fill="#63b8ff" stroke="#63b8ff" points="1152.93,-310.37 1161.82,-304.62 1151.28,-303.57 1152.93,-310.37"/>
</a>
</g>
</g>
<!-- Node24 -->
<g id="Node000024" class="node">
<title>Node24</title>
<g id="a_Node000024"><a xlink:href="sock_2udp_8h.html" target="_top" xlink:title="UDP sock definitions.">
<polygon fill="white" stroke="#666666" points="803.62,-304.5 716.38,-304.5 716.38,-283.75 803.62,-283.75 803.62,-304.5"/>
<text text-anchor="middle" x="760" y="-291" font-family="Helvetica,sans-Serif" font-size="10.00">net/sock/udp.h</text>
</a>
</g>
</g>
<!-- Node2&#45;&gt;Node24 -->
<g id="edge34_Node000002_Node000024" class="edge">
<title>Node2&#45;&gt;Node24</title>
<g id="a_edge34_Node000002_Node000024"><a xlink:title=" ">
<path fill="none" stroke="#63b8ff" d="M936.56,-340.09C901.05,-331.04 848.11,-317.56 809.46,-307.72"/>
<polygon fill="#63b8ff" stroke="#63b8ff" points="810.49,-304.37 799.93,-305.29 808.76,-311.15 810.49,-304.37"/>
</a>
</g>
</g>
<!-- Node35 -->
<g id="Node000035" class="node">
<title>Node35</title>
<g id="a_Node000035"><a xlink:href="lwm2m__client__config_8h.html" target="_top" xlink:title="LwM2M client configurations.">
<polygon fill="white" stroke="#666666" points="1385.62,-304.5 1256.38,-304.5 1256.38,-283.75 1385.62,-283.75 1385.62,-304.5"/>
<text text-anchor="middle" x="1321" y="-291" font-family="Helvetica,sans-Serif" font-size="10.00">lwm2m_client_config.h</text>
</a>
</g>
</g>
<!-- Node2&#45;&gt;Node35 -->
<g id="edge63_Node000002_Node000035" class="edge">
<title>Node2&#45;&gt;Node35</title>
<g id="a_edge63_Node000002_Node000035"><a xlink:title=" ">
<path fill="none" stroke="#63b8ff" d="M1022.38,-342.38C1080.5,-333.18 1179.66,-317.49 1247.65,-306.73"/>
<polygon fill="#63b8ff" stroke="#63b8ff" points="1247.88,-310.24 1257.21,-305.22 1246.79,-303.33 1247.88,-310.24"/>
</a>
</g>
</g>
<!-- Node36 -->
<g id="Node000036" class="node">
<title>Node36</title>
<g id="a_Node000036"><a xlink:title=" ">
<polygon fill="#e0e0e0" stroke="#999999" points="1477.88,-304.5 1404.12,-304.5 1404.12,-283.75 1477.88,-283.75 1477.88,-304.5"/>
<text text-anchor="middle" x="1441" y="-291" font-family="Helvetica,sans-Serif" font-size="10.00">liblwm2m.h</text>
</a>
</g>
</g>
<!-- Node2&#45;&gt;Node36 -->
<g id="edge64_Node000002_Node000036" class="edge">
<title>Node2&#45;&gt;Node36</title>
<g id="a_edge64_Node000002_Node000036"><a xlink:title=" ">
<path fill="none" stroke="#63b8ff" d="M1022.43,-346.2C1098.38,-340.01 1252.18,-326.17 1392.29,-304.79"/>
<polygon fill="#63b8ff" stroke="#63b8ff" points="1392.8,-308.26 1402.15,-303.27 1391.73,-301.34 1392.8,-308.26"/>
</a>
</g>
</g>
<!-- Node6 -->
<g id="Node000006" class="node">
<title>Node6</title>
<g id="a_Node000006"><a xlink:href="flash__utils_8h.html" target="_top" xlink:title="Utility functions, macros, and types for read&#45;only memory.">
<polygon fill="white" stroke="#666666" points="531.62,-247.75 456.38,-247.75 456.38,-227 531.62,-227 531.62,-247.75"/>
<text text-anchor="middle" x="494" y="-234.25" font-family="Helvetica,sans-Serif" font-size="10.00">flash_utils.h</text>
</a>
</g>
</g>
<!-- Node5&#45;&gt;Node6 -->
<g id="edge5_Node000005_Node000006" class="edge">
<title>Node5&#45;&gt;Node6</title>
<g id="a_edge5_Node000005_Node000006"><a xlink:title=" ">
<path fill="none" stroke="#63b8ff" d="M488.68,-283.34C487.41,-276.72 486.99,-267.72 487.41,-259.52"/>
<polygon fill="#63b8ff" stroke="#63b8ff" points="490.89,-259.91 488.53,-249.58 483.93,-259.13 490.89,-259.91"/>
</a>
</g>
</g>
<!-- Node6&#45;&gt;Node5 -->
<g id="edge6_Node000006_Node000005" class="edge">
<title>Node6&#45;&gt;Node5</title>
<g id="a_edge6_Node000006_Node000005"><a xlink:title=" ">
<path fill="none" stroke="#63b8ff" d="M499.3,-248.08C500.6,-254.75 501.02,-263.88 500.58,-272.17"/>
<polygon fill="#63b8ff" stroke="#63b8ff" points="497.14,-271.5 499.49,-281.83 504.09,-272.29 497.14,-271.5"/>
</a>
</g>
</g>
<!-- Node6&#45;&gt;Node7 -->
<g id="edge7_Node000006_Node000007" class="edge">
<title>Node6&#45;&gt;Node7</title>
<g id="a_edge7_Node000006_Node000007"><a xlink:title=" ">
<path fill="none" stroke="#63b8ff" d="M531.82,-232.73C578.42,-227.38 659.47,-215.3 725,-191 772.91,-173.23 784.48,-165.38 825,-134.25 843.64,-119.93 862.16,-100.43 874.64,-86.32"/>
<polygon fill="#63b8ff" stroke="#63b8ff" points="877.01,-88.93 880.91,-79.08 871.72,-84.35 877.01,-88.93"/>
</a>
</g>
</g>
<!-- Node8 -->
<g id="Node000008" class="node">
<title>Node8</title>
<g id="a_Node000008"><a xlink:title=" ">
<polygon fill="#e0e0e0" stroke="#999999" points="346.88,-191 279.12,-191 279.12,-170.25 346.88,-170.25 346.88,-191"/>
<text text-anchor="middle" x="313" y="-177.5" font-family="Helvetica,sans-Serif" font-size="10.00">cpu_conf.h</text>
</a>
</g>
</g>
<!-- Node6&#45;&gt;Node8 -->
<g id="edge8_Node000006_Node000008" class="edge">
<title>Node6&#45;&gt;Node8</title>
<g id="a_edge8_Node000006_Node000008"><a xlink:title=" ">
<path fill="none" stroke="#63b8ff" d="M461.64,-226.59C432.26,-217.7 388.7,-204.52 356.33,-194.73"/>
<polygon fill="#63b8ff" stroke="#63b8ff" points="357.42,-191.4 346.83,-191.86 355.39,-198.1 357.42,-191.4"/>
</a>
</g>
</g>
<!-- Node9 -->
<g id="Node000009" class="node">
<title>Node9</title>
<g id="a_Node000009"><a xlink:href="kernel__defines_8h.html" target="_top" xlink:title="Common macros and compiler attributes/pragmas configuration.">
<polygon fill="white" stroke="#666666" points="461.12,-191 364.88,-191 364.88,-170.25 461.12,-170.25 461.12,-191"/>
<text text-anchor="middle" x="413" y="-177.5" font-family="Helvetica,sans-Serif" font-size="10.00">kernel_defines.h</text>
</a>
</g>
</g>
<!-- Node6&#45;&gt;Node9 -->
<g id="edge9_Node000006_Node000009" class="edge">
<title>Node6&#45;&gt;Node9</title>
<g id="a_edge9_Node000006_Node000009"><a xlink:title=" ">
<path fill="none" stroke="#63b8ff" d="M479.52,-226.59C467.65,-218.57 450.63,-207.06 436.77,-197.69"/>
<polygon fill="#63b8ff" stroke="#63b8ff" points="438.85,-194.88 428.61,-192.18 434.93,-200.68 438.85,-194.88"/>
</a>
</g>
</g>
<!-- Node10 -->
<g id="Node000010" class="node">
<title>Node10</title>
<g id="a_Node000010"><a xlink:href="modules_8h.html" target="_top" xlink:title="Common macros and compiler attributes/pragmas configuration.">
<polygon fill="white" stroke="#666666" points="239.5,-134.25 172.5,-134.25 172.5,-113.5 239.5,-113.5 239.5,-134.25"/>
<text text-anchor="middle" x="206" y="-120.75" font-family="Helvetica,sans-Serif" font-size="10.00">modules.h</text>
</a>
</g>
</g>
<!-- Node9&#45;&gt;Node10 -->
<g id="edge10_Node000009_Node000010" class="edge">
<title>Node9&#45;&gt;Node10</title>
<g id="a_edge10_Node000009_Node000010"><a xlink:title=" ">
<path fill="none" stroke="#63b8ff" d="M375.99,-169.84C341,-160.58 288.43,-146.68 251.03,-136.78"/>
<polygon fill="#63b8ff" stroke="#63b8ff" points="251.97,-133.41 241.41,-134.24 250.18,-140.18 251.97,-133.41"/>
</a>
</g>
</g>
<!-- Node11 -->
<g id="Node000011" class="node">
<title>Node11</title>
<g id="a_Node000011"><a xlink:href="riot__version_8h.html" target="_top" xlink:title="Common macros and compiler attributes/pragmas configuration.">
<polygon fill="white" stroke="#666666" points="378.38,-134.25 295.62,-134.25 295.62,-113.5 378.38,-113.5 378.38,-134.25"/>
<text text-anchor="middle" x="337" y="-120.75" font-family="Helvetica,sans-Serif" font-size="10.00">riot_version.h</text>
</a>
</g>
</g>
<!-- Node9&#45;&gt;Node11 -->
<g id="edge11_Node000009_Node000011" class="edge">
<title>Node9&#45;&gt;Node11</title>
<g id="a_edge11_Node000009_Node000011"><a xlink:title=" ">
<path fill="none" stroke="#63b8ff" d="M399.41,-169.84C388.39,-161.9 372.61,-150.53 359.68,-141.21"/>
<polygon fill="#63b8ff" stroke="#63b8ff" points="361.86,-138.47 351.7,-135.46 357.77,-144.15 361.86,-138.47"/>
</a>
</g>
</g>
<!-- Node13 -->
<g id="Node000013" class="node">
<title>Node13</title>
<g id="a_Node000013"><a xlink:href="compiler__hints_8h.html" target="_top" xlink:title="Common macros and compiler attributes/pragmas configuration.">
<polygon fill="white" stroke="#666666" points="531.5,-134.25 434.5,-134.25 434.5,-113.5 531.5,-113.5 531.5,-134.25"/>
<text text-anchor="middle" x="483" y="-120.75" font-family="Helvetica,sans-Serif" font-size="10.00">compiler_hints.h</text>
</a>
</g>
</g>
<!-- Node9&#45;&gt;Node13 -->
<g id="edge13_Node000009_Node000013" class="edge">
<title>Node9&#45;&gt;Node13</title>
<g id="a_edge13_Node000009_Node000013"><a xlink:title=" ">
<path fill="none" stroke="#63b8ff" d="M425.51,-169.84C435.57,-161.97 449.91,-150.75 461.76,-141.49"/>
<polygon fill="#63b8ff" stroke="#63b8ff" points="463.68,-144.43 469.4,-135.51 459.37,-138.91 463.68,-144.43"/>
</a>
</g>
</g>
<!-- Node15 -->
<g id="Node000015" class="node">
<title>Node15</title>
<g id="a_Node000015"><a xlink:href="container_8h.html" target="_top" xlink:title="Common macros and compiler attributes/pragmas configuration.">
<polygon fill="white" stroke="#666666" points="414.38,-77.5 343.62,-77.5 343.62,-56.75 414.38,-56.75 414.38,-77.5"/>
<text text-anchor="middle" x="379" y="-64" font-family="Helvetica,sans-Serif" font-size="10.00">container.h</text>
</a>
</g>
</g>
<!-- Node9&#45;&gt;Node15 -->
<g id="edge17_Node000009_Node000015" class="edge">
<title>Node9&#45;&gt;Node15</title>
<g id="a_edge17_Node000009_Node000015"><a xlink:title=" ">
<path fill="none" stroke="#63b8ff" d="M370.26,-169.81C337.73,-161.38 296.93,-148.37 287,-134.25 270.66,-111 302.06,-92.93 332.52,-81.6"/>
<polygon fill="#63b8ff" stroke="#63b8ff" points="333.47,-84.98 341.75,-78.38 331.16,-78.37 333.47,-84.98"/>
</a>
</g>
</g>
<!-- Node12 -->
<g id="Node000012" class="node">
<title>Node12</title>
<g id="a_Node000012"><a xlink:title=" ">
<polygon fill="#e0e0e0" stroke="#999999" points="590.38,-20.75 537.62,-20.75 537.62,0 590.38,0 590.38,-20.75"/>
<text text-anchor="middle" x="564" y="-7.25" font-family="Helvetica,sans-Serif" font-size="10.00">stdint.h</text>
</a>
</g>
</g>
<!-- Node11&#45;&gt;Node12 -->
<g id="edge12_Node000011_Node000012" class="edge">
<title>Node11&#45;&gt;Node12</title>
<g id="a_edge12_Node000011_Node000012"><a xlink:title=" ">
<path fill="none" stroke="#63b8ff" d="M356.75,-113.18C396.58,-93.61 486.75,-49.32 533.94,-26.14"/>
<polygon fill="#63b8ff" stroke="#63b8ff" points="535.35,-29.35 542.78,-21.8 532.26,-23.07 535.35,-29.35"/>
</a>
</g>
</g>
<!-- Node13&#45;&gt;Node12 -->
<g id="edge16_Node000013_Node000012" class="edge">
<title>Node13&#45;&gt;Node12</title>
<g id="a_edge16_Node000013_Node000012"><a xlink:title=" ">
<path fill="none" stroke="#63b8ff" d="M483.25,-113.03C484.04,-99.3 487.14,-74.11 499,-56.75 507.43,-44.41 520.41,-34.37 532.55,-26.91"/>
<polygon fill="#63b8ff" stroke="#63b8ff" points="534.19,-30 541.13,-22 530.71,-23.93 534.19,-30"/>
</a>
</g>
</g>
<!-- Node14 -->
<g id="Node000014" class="node">
<title>Node14</title>
<g id="a_Node000014"><a xlink:href="assert_8h.html" target="_top" xlink:title="POSIX.1&#45;2008 compliant version of the assert macro.">
<polygon fill="white" stroke="#666666" points="563.5,-77.5 508.5,-77.5 508.5,-56.75 563.5,-56.75 563.5,-77.5"/>
<text text-anchor="middle" x="536" y="-64" font-family="Helvetica,sans-Serif" font-size="10.00">assert.h</text>
</a>
</g>
</g>
<!-- Node13&#45;&gt;Node14 -->
<g id="edge14_Node000013_Node000014" class="edge">
<title>Node13&#45;&gt;Node14</title>
<g id="a_edge14_Node000013_Node000014"><a xlink:title=" ">
<path fill="none" stroke="#63b8ff" d="M492.48,-113.09C499.79,-105.53 510.09,-94.89 518.84,-85.85"/>
<polygon fill="#63b8ff" stroke="#63b8ff" points="521.11,-88.54 525.55,-78.92 516.08,-83.67 521.11,-88.54"/>
</a>
</g>
</g>
<!-- Node14&#45;&gt;Node12 -->
<g id="edge15_Node000014_Node000012" class="edge">
<title>Node14&#45;&gt;Node12</title>
<g id="a_edge15_Node000014_Node000012"><a xlink:title=" ">
<path fill="none" stroke="#63b8ff" d="M541.01,-56.34C544.59,-49.33 549.54,-39.66 553.92,-31.08"/>
<polygon fill="#63b8ff" stroke="#63b8ff" points="556.91,-32.92 558.35,-22.43 550.68,-29.74 556.91,-32.92"/>
</a>
</g>
</g>
<!-- Node15&#45;&gt;Node12 -->
<g id="edge19_Node000015_Node000012" class="edge">
<title>Node15&#45;&gt;Node12</title>
<g id="a_edge19_Node000015_Node000012"><a xlink:title=" ">
<path fill="none" stroke="#63b8ff" d="M412.07,-56.34C444.2,-46.83 492.9,-32.42 526.46,-22.49"/>
<polygon fill="#63b8ff" stroke="#63b8ff" points="527.16,-25.93 535.76,-19.73 525.18,-19.21 527.16,-25.93"/>
</a>
</g>
</g>
<!-- Node16 -->
<g id="Node000016" class="node">
<title>Node16</title>
<g id="a_Node000016"><a xlink:title=" ">
<polygon fill="#e0e0e0" stroke="#999999" points="235.5,-20.75 180.5,-20.75 180.5,0 235.5,0 235.5,-20.75"/>
<text text-anchor="middle" x="208" y="-7.25" font-family="Helvetica,sans-Serif" font-size="10.00">stddef.h</text>
</a>
</g>
</g>
<!-- Node15&#45;&gt;Node16 -->
<g id="edge18_Node000015_Node000016" class="edge">
<title>Node15&#45;&gt;Node16</title>
<g id="a_edge18_Node000015_Node000016"><a xlink:title=" ">
<path fill="none" stroke="#63b8ff" d="M348.43,-56.34C319.94,-47.21 277.33,-33.57 246.53,-23.71"/>
<polygon fill="#63b8ff" stroke="#63b8ff" points="247.79,-20.44 237.2,-20.72 245.66,-27.11 247.79,-20.44"/>
</a>
</g>
</g>
<!-- Node19&#45;&gt;Node12 -->
<g id="edge25_Node000019_Node000012" class="edge">
<title>Node19&#45;&gt;Node12</title>
<g id="a_edge25_Node000019_Node000012"><a xlink:title=" ">
<path fill="none" stroke="#63b8ff" d="M154.3,-113.11C193.79,-99.24 269.31,-73.64 335,-56.75 401.62,-39.62 480.56,-25.26 526.2,-17.52"/>
<polygon fill="#63b8ff" stroke="#63b8ff" points="526.56,-21.01 535.84,-15.91 525.4,-14.11 526.56,-21.01"/>
</a>
</g>
</g>
<!-- Node19&#45;&gt;Node16 -->
<g id="edge24_Node000019_Node000016" class="edge">
<title>Node19&#45;&gt;Node16</title>
<g id="a_edge24_Node000019_Node000016"><a xlink:title=" ">
<path fill="none" stroke="#63b8ff" d="M131.12,-113.4C137.13,-100.09 149.11,-75.41 163,-56.75 170.47,-46.71 180.1,-36.71 188.53,-28.66"/>
<polygon fill="#63b8ff" stroke="#63b8ff" points="190.67,-31.45 195.63,-22.09 185.91,-26.31 190.67,-31.45"/>
</a>
</g>
</g>
<!-- Node20 -->
<g id="Node000020" class="node">
<title>Node20</title>
<g id="a_Node000020"><a xlink:href="cpu_2avr8__common_2avr__libc__extra_2include_2sys_2types_8h_source.html" target="_top" xlink:title=" ">
<polygon fill="white" stroke="#666666" points="243.75,-77.5 172.25,-77.5 172.25,-56.75 243.75,-56.75 243.75,-77.5"/>
<text text-anchor="middle" x="208" y="-64" font-family="Helvetica,sans-Serif" font-size="10.00">sys/types.h</text>
</a>
</g>
</g>
<!-- Node19&#45;&gt;Node20 -->
<g id="edge26_Node000019_Node000020" class="edge">
<title>Node19&#45;&gt;Node20</title>
<g id="a_edge26_Node000019_Node000020"><a xlink:title=" ">
<path fill="none" stroke="#63b8ff" d="M141.48,-113.09C153.35,-105.07 170.37,-93.56 184.23,-84.19"/>
<polygon fill="#63b8ff" stroke="#63b8ff" points="186.07,-87.18 192.39,-78.68 182.15,-81.38 186.07,-87.18"/>
</a>
</g>
</g>
<!-- Node20&#45;&gt;Node12 -->
<g id="edge27_Node000020_Node000012" class="edge">
<title>Node20&#45;&gt;Node12</title>
<g id="a_edge27_Node000020_Node000012"><a xlink:title=" ">
<path fill="none" stroke="#63b8ff" d="M244.09,-60.57C311.77,-50.17 457.11,-27.81 526.12,-17.2"/>
<polygon fill="#63b8ff" stroke="#63b8ff" points="526.46,-20.69 535.81,-15.71 525.39,-13.77 526.46,-20.69"/>
</a>
</g>
</g>
<!-- Node20&#45;&gt;Node16 -->
<g id="edge28_Node000020_Node000016" class="edge">
<title>Node20&#45;&gt;Node16</title>
<g id="a_edge28_Node000020_Node000016"><a xlink:title=" ">
<path fill="none" stroke="#63b8ff" d="M208,-56.34C208,-49.72 208,-40.72 208,-32.52"/>
<polygon fill="#63b8ff" stroke="#63b8ff" points="211.5,-32.59 208,-22.59 204.5,-32.59 211.5,-32.59"/>
</a>
</g>
</g>
<!-- Node21&#45;&gt;Node18 -->
<g id="edge30_Node000021_Node000018" class="edge">
<title>Node21&#45;&gt;Node18</title>
<g id="a_edge30_Node000021_Node000018"><a xlink:title=" ">
<path fill="none" stroke="#63b8ff" d="M1092.21,-283.34C1090.99,-276.64 1089.32,-267.51 1087.81,-259.23"/>
<polygon fill="#63b8ff" stroke="#63b8ff" points="1091.28,-258.78 1086.04,-249.57 1084.4,-260.03 1091.28,-258.78"/>
</a>
</g>
</g>
<!-- Node21&#45;&gt;Node21 -->
<g id="edge31_Node000021_Node000021" class="edge">
<title>Node21&#45;&gt;Node21</title>
<g id="a_edge31_Node000021_Node000021"><a xlink:title=" ">
<path fill="none" stroke="#63b8ff" d="M1127.68,-304.74C1137.7,-304.43 1145.5,-300.89 1145.5,-294.12 1145.5,-290.22 1142.89,-287.38 1138.76,-285.63"/>
<polygon fill="#63b8ff" stroke="#63b8ff" points="1139.65,-282.24 1129.17,-283.79 1138.33,-289.11 1139.65,-282.24"/>
</a>
</g>
</g>
<!-- Node23 -->
<g id="Node000023" class="node">
<title>Node23</title>
<g id="a_Node000023"><a xlink:title=" ">
<polygon fill="#e0e0e0" stroke="#999999" points="1240.12,-247.75 1161.88,-247.75 1161.88,-227 1240.12,-227 1240.12,-247.75"/>
<text text-anchor="middle" x="1201" y="-234.25" font-family="Helvetica,sans-Serif" font-size="10.00">periph_cpu.h</text>
</a>
</g>
</g>
<!-- Node22&#45;&gt;Node23 -->
<g id="edge33_Node000022_Node000023" class="edge">
<title>Node22&#45;&gt;Node23</title>
<g id="a_edge33_Node000022_Node000023"><a xlink:title=" ">
<path fill="none" stroke="#63b8ff" d="M1201,-283.34C1201,-276.72 1201,-267.72 1201,-259.52"/>
<polygon fill="#63b8ff" stroke="#63b8ff" points="1204.5,-259.59 1201,-249.59 1197.5,-259.59 1204.5,-259.59"/>
</a>
</g>
</g>
<!-- Node24&#45;&gt;Node4 -->
<g id="edge36_Node000024_Node000004" class="edge">
<title>Node24&#45;&gt;Node4</title>
<g id="a_edge36_Node000024_Node000004"><a xlink:title=" ">
<path fill="none" stroke="#63b8ff" d="M715.89,-290.33C644.27,-285.3 498.12,-273.03 365.66,-248.01"/>
<polygon fill="#63b8ff" stroke="#63b8ff" points="366.49,-244.6 356.01,-246.15 365.17,-251.48 366.49,-244.6"/>
</a>
</g>
</g>
<!-- Node24&#45;&gt;Node12 -->
<g id="edge37_Node000024_Node000012" class="edge">
<title>Node24&#45;&gt;Node12</title>
<g id="a_edge37_Node000024_Node000012"><a xlink:title=" ">
<path fill="none" stroke="#63b8ff" d="M804.03,-289.42C833.49,-284.56 870.79,-273.38 893,-247.75 949.36,-182.7 981.94,-121.3 925,-56.75 903.85,-32.78 690.39,-18.34 602.01,-13.35"/>
<polygon fill="#63b8ff" stroke="#63b8ff" points="602.34,-9.87 592.16,-12.81 601.95,-16.86 602.34,-9.87"/>
</a>
</g>
</g>
<!-- Node24&#45;&gt;Node14 -->
<g id="edge35_Node000024_Node000014" class="edge">
<title>Node24&#45;&gt;Node14</title>
<g id="a_edge35_Node000024_Node000014"><a xlink:title=" ">
<path fill="none" stroke="#63b8ff" d="M716.01,-290C682.9,-285.47 638.35,-274.46 609,-247.75 561.58,-204.6 544.31,-126.22 538.58,-88.93"/>
<polygon fill="#63b8ff" stroke="#63b8ff" points="542.11,-88.88 537.26,-79.46 535.17,-89.85 542.11,-88.88"/>
</a>
</g>
</g>
<!-- Node24&#45;&gt;Node17 -->
<g id="edge38_Node000024_Node000017" class="edge">
<title>Node24&#45;&gt;Node17</title>
<g id="a_edge38_Node000024_Node000017"><a xlink:title=" ">
<path fill="none" stroke="#63b8ff" d="M796.83,-283.34C834.06,-273.44 891.3,-258.23 928.7,-248.29"/>
<polygon fill="#63b8ff" stroke="#63b8ff" points="929.4,-251.73 938.16,-245.77 927.6,-244.96 929.4,-251.73"/>
</a>
</g>
</g>
<!-- Node24&#45;&gt;Node18 -->
<g id="edge39_Node000024_Node000018" class="edge">
<title>Node24&#45;&gt;Node18</title>
<g id="a_edge39_Node000024_Node000018"><a xlink:title=" ">
<path fill="none" stroke="#63b8ff" d="M804.03,-285.68C864.95,-275.39 974.48,-256.88 1036.96,-246.32"/>
<polygon fill="#63b8ff" stroke="#63b8ff" points="1037.28,-249.82 1046.56,-244.7 1036.11,-242.92 1037.28,-249.82"/>
</a>
</g>
</g>
<!-- Node25 -->
<g id="Node000025" class="node">
<title>Node25</title>
<g id="a_Node000025"><a xlink:href="af_8h.html" target="_top" xlink:title="Global UNIX address family definitions.">
<polygon fill="white" stroke="#666666" points="786.38,-247.75 733.62,-247.75 733.62,-227 786.38,-227 786.38,-247.75"/>
<text text-anchor="middle" x="760" y="-234.25" font-family="Helvetica,sans-Serif" font-size="10.00">net/af.h</text>
</a>
</g>
</g>
<!-- Node24&#45;&gt;Node25 -->
<g id="edge40_Node000024_Node000025" class="edge">
<title>Node24&#45;&gt;Node25</title>
<g id="a_edge40_Node000024_Node000025"><a xlink:title=" ">
<path fill="none" stroke="#63b8ff" d="M760,-283.34C760,-276.72 760,-267.72 760,-259.52"/>
<polygon fill="#63b8ff" stroke="#63b8ff" points="763.5,-259.59 760,-249.59 756.5,-259.59 763.5,-259.59"/>
</a>
</g>
</g>
<!-- Node26 -->
<g id="Node000026" class="node">
<title>Node26</title>
<g id="a_Node000026"><a xlink:href="sock_8h.html" target="_top" xlink:title="Common sock API definitions.">
<polygon fill="white" stroke="#666666" points="438.12,-247.75 371.88,-247.75 371.88,-227 438.12,-227 438.12,-247.75"/>
<text text-anchor="middle" x="405" y="-234.25" font-family="Helvetica,sans-Serif" font-size="10.00">net/sock.h</text>
</a>
</g>
</g>
<!-- Node24&#45;&gt;Node26 -->
<g id="edge41_Node000024_Node000026" class="edge">
<title>Node24&#45;&gt;Node26</title>
<g id="a_edge41_Node000024_Node000026"><a xlink:title=" ">
<path fill="none" stroke="#63b8ff" d="M716.03,-287.82C657.5,-280.52 550.54,-266.37 449.73,-248.14"/>
<polygon fill="#63b8ff" stroke="#63b8ff" points="450.38,-244.7 439.91,-246.35 449.12,-251.59 450.38,-244.7"/>
</a>
</g>
</g>
<!-- Node28 -->
<g id="Node000028" class="node">
<title>Node28</title>
<g id="a_Node000028"><a xlink:href="ipv4_2addr_8h.html" target="_top" xlink:title="IPv4 address type and helper functions definitions.">
<polygon fill="white" stroke="#666666" points="715.75,-191 626.25,-191 626.25,-170.25 715.75,-170.25 715.75,-191"/>
<text text-anchor="middle" x="671" y="-177.5" font-family="Helvetica,sans-Serif" font-size="10.00">net/ipv4/addr.h</text>
</a>
</g>
</g>
<!-- Node24&#45;&gt;Node28 -->
<g id="edge46_Node000024_Node000028" class="edge">
<title>Node24&#45;&gt;Node28</title>
<g id="a_edge46_Node000024_Node000028"><a xlink:title=" ">
<path fill="none" stroke="#63b8ff" d="M715.92,-292.19C682.81,-288.88 639.46,-278.44 617,-247.75 604.05,-230.05 624.12,-210.71 643.36,-197.55"/>
<polygon fill="#63b8ff" stroke="#63b8ff" points="645.07,-200.61 651.6,-192.26 641.3,-194.72 645.07,-200.61"/>
</a>
</g>
</g>
<!-- Node33 -->
<g id="Node000033" class="node">
<title>Node33</title>
<g id="a_Node000033"><a xlink:href="ipv6_2addr_8h.html" target="_top" xlink:title="Definitions for IPv6 addresses.">
<polygon fill="white" stroke="#666666" points="715.75,-247.75 626.25,-247.75 626.25,-227 715.75,-227 715.75,-247.75"/>
<text text-anchor="middle" x="671" y="-234.25" font-family="Helvetica,sans-Serif" font-size="10.00">net/ipv6/addr.h</text>
</a>
</g>
</g>
<!-- Node24&#45;&gt;Node33 -->
<g id="edge57_Node000024_Node000033" class="edge">
<title>Node24&#45;&gt;Node33</title>
<g id="a_edge57_Node000024_Node000033"><a xlink:title=" ">
<path fill="none" stroke="#63b8ff" d="M744.09,-283.34C730.8,-275.16 711.61,-263.36 696.23,-253.9"/>
<polygon fill="#63b8ff" stroke="#63b8ff" points="698.41,-251.13 688.06,-248.87 694.75,-257.09 698.41,-251.13"/>
</a>
</g>
</g>
<!-- Node34 -->
<g id="Node000034" class="node">
<title>Node34</title>
<g id="a_Node000034"><a xlink:title=" ">
<polygon fill="#e0e0e0" stroke="#999999" points="883.88,-247.75 804.12,-247.75 804.12,-227 883.88,-227 883.88,-247.75"/>
<text text-anchor="middle" x="844" y="-234.25" font-family="Helvetica,sans-Serif" font-size="10.00">sock_types.h</text>
</a>
</g>
</g>
<!-- Node24&#45;&gt;Node34 -->
<g id="edge62_Node000024_Node000034" class="edge">
<title>Node24&#45;&gt;Node34</title>
<g id="a_edge62_Node000024_Node000034"><a xlink:title=" ">
<path fill="none" stroke="#63b8ff" d="M775.02,-283.34C787.44,-275.24 805.32,-263.58 819.77,-254.17"/>
<polygon fill="#63b8ff" stroke="#63b8ff" points="821.38,-257.3 827.84,-248.9 817.56,-251.43 821.38,-257.3"/>
</a>
</g>
</g>
<!-- Node26&#45;&gt;Node12 -->
<g id="edge42_Node000026_Node000012" class="edge">
<title>Node26&#45;&gt;Node12</title>
<g id="a_edge42_Node000026_Node000012"><a xlink:title=" ">
<path fill="none" stroke="#63b8ff" d="M422.3,-226.75C450.04,-210.62 504.91,-175.78 540,-134.25 558.69,-112.13 564.65,-105.51 572,-77.5 575.96,-62.43 573.53,-44.9 570.35,-31.68"/>
<polygon fill="#63b8ff" stroke="#63b8ff" points="573.82,-31.1 567.77,-22.4 567.07,-32.97 573.82,-31.1"/>
</a>
</g>
</g>
<!-- Node26&#45;&gt;Node16 -->
<g id="edge43_Node000026_Node000016" class="edge">
<title>Node26&#45;&gt;Node16</title>
<g id="a_edge43_Node000026_Node000016"><a xlink:title=" ">
<path fill="none" stroke="#63b8ff" d="M371.55,-228.83C368.66,-228.2 365.78,-227.58 363,-227 237.6,-200.61 152.18,-246.3 90,-134.25 64.53,-88.36 131.08,-47.04 174.3,-26.02"/>
<polygon fill="#63b8ff" stroke="#63b8ff" points="175.79,-29.18 183.35,-21.76 172.81,-22.85 175.79,-29.18"/>
</a>
</g>
</g>
<!-- Node27 -->
<g id="Node000027" class="node">
<title>Node27</title>
<g id="a_Node000027"><a xlink:href="iolist_8h.html" target="_top" xlink:title="iolist scatter / gather IO">
<polygon fill="white" stroke="#666666" points="239.5,-191 190.5,-191 190.5,-170.25 239.5,-170.25 239.5,-191"/>
<text text-anchor="middle" x="215" y="-177.5" font-family="Helvetica,sans-Serif" font-size="10.00">iolist.h</text>
</a>
</g>
</g>
<!-- Node26&#45;&gt;Node27 -->
<g id="edge44_Node000026_Node000027" class="edge">
<title>Node26&#45;&gt;Node27</title>
<g id="a_edge44_Node000026_Node000027"><a xlink:title=" ">
<path fill="none" stroke="#63b8ff" d="M371.47,-226.71C337.59,-216.95 285.42,-201.92 250.76,-191.93"/>
<polygon fill="#63b8ff" stroke="#63b8ff" points="251.76,-188.58 241.19,-189.17 249.83,-195.3 251.76,-188.58"/>
</a>
</g>
</g>
<!-- Node27&#45;&gt;Node19 -->
<g id="edge45_Node000027_Node000019" class="edge">
<title>Node27&#45;&gt;Node19</title>
<g id="a_edge45_Node000027_Node000019"><a xlink:title=" ">
<path fill="none" stroke="#63b8ff" d="M199.27,-169.84C186.13,-161.66 167.16,-149.86 151.95,-140.4"/>
<polygon fill="#63b8ff" stroke="#63b8ff" points="154.22,-137.69 143.88,-135.38 150.52,-143.63 154.22,-137.69"/>
</a>
</g>
</g>
<!-- Node28&#45;&gt;Node12 -->
<g id="edge48_Node000028_Node000012" class="edge">
<title>Node28&#45;&gt;Node12</title>
<g id="a_edge48_Node000028_Node000012"><a xlink:title=" ">
<path fill="none" stroke="#63b8ff" d="M666.9,-169.89C657.65,-148.45 633.77,-95.93 606,-56.75 599.07,-46.97 590.2,-37.1 582.4,-29.07"/>
<polygon fill="#63b8ff" stroke="#63b8ff" points="585.11,-26.83 575.56,-22.24 580.16,-31.78 585.11,-26.83"/>
</a>
</g>
</g>
<!-- Node28&#45;&gt;Node16 -->
<g id="edge49_Node000028_Node000016" class="edge">
<title>Node28&#45;&gt;Node16</title>
<g id="a_edge49_Node000028_Node000016"><a xlink:title=" ">
<path fill="none" stroke="#63b8ff" d="M625.83,-175.83C575.57,-170.58 492.55,-158.82 425,-134.25 419.95,-132.41 292.09,-59.45 235.04,-26.84"/>
<polygon fill="#63b8ff" stroke="#63b8ff" points="236.99,-23.93 226.57,-22 233.52,-30 236.99,-23.93"/>
</a>
</g>
</g>
<!-- Node29 -->
<g id="Node000029" class="node">
<title>Node29</title>
<g id="a_Node000029"><a xlink:title=" ">
<polygon fill="#e0e0e0" stroke="#999999" points="815.5,-134.25 754.5,-134.25 754.5,-113.5 815.5,-113.5 815.5,-134.25"/>
<text text-anchor="middle" x="785" y="-120.75" font-family="Helvetica,sans-Serif" font-size="10.00">stdbool.h</text>
</a>
</g>
</g>
<!-- Node28&#45;&gt;Node29 -->
<g id="edge47_Node000028_Node000029" class="edge">
<title>Node28&#45;&gt;Node29</title>
<g id="a_edge47_Node000028_Node000029"><a xlink:title=" ">
<path fill="none" stroke="#63b8ff" d="M691.38,-169.84C708.97,-161.39 734.63,-149.07 754.63,-139.46"/>
<polygon fill="#63b8ff" stroke="#63b8ff" points="755.93,-142.72 763.43,-135.23 752.9,-136.41 755.93,-142.72"/>
</a>
</g>
</g>
<!-- Node30 -->
<g id="Node000030" class="node">
<title>Node30</title>
<g id="a_Node000030"><a xlink:href="byteorder_8h.html" target="_top" xlink:title="Functions to work with different byte orders.">
<polygon fill="white" stroke="#666666" points="736.12,-134.25 663.88,-134.25 663.88,-113.5 736.12,-113.5 736.12,-134.25"/>
<text text-anchor="middle" x="700" y="-120.75" font-family="Helvetica,sans-Serif" font-size="10.00">byteorder.h</text>
</a>
</g>
</g>
<!-- Node28&#45;&gt;Node30 -->
<g id="edge50_Node000028_Node000030" class="edge">
<title>Node28&#45;&gt;Node30</title>
<g id="a_edge50_Node000028_Node000030"><a xlink:title=" ">
<path fill="none" stroke="#63b8ff" d="M676.18,-169.84C679.9,-162.83 685.02,-153.16 689.56,-144.58"/>
<polygon fill="#63b8ff" stroke="#63b8ff" points="692.56,-146.39 694.15,-135.92 686.38,-143.11 692.56,-146.39"/>
</a>
</g>
</g>
<!-- Node30&#45;&gt;Node7 -->
<g id="edge51_Node000030_Node000007" class="edge">
<title>Node30&#45;&gt;Node7</title>
<g id="a_edge51_Node000030_Node000007"><a xlink:title=" ">
<path fill="none" stroke="#63b8ff" d="M733.97,-113.09C767.25,-103.5 817.85,-88.92 852.34,-78.98"/>
<polygon fill="#63b8ff" stroke="#63b8ff" points="853.28,-82.35 861.92,-76.22 851.34,-75.62 853.28,-82.35"/>
</a>
</g>
</g>
<!-- Node30&#45;&gt;Node12 -->
<g id="edge52_Node000030_Node000012" class="edge">
<title>Node30&#45;&gt;Node12</title>
<g id="a_edge52_Node000030_Node000012"><a xlink:title=" ">
<path fill="none" stroke="#63b8ff" d="M736.41,-113.6C767.11,-104.95 807.52,-91.34 817,-77.5 822.21,-69.89 822.92,-63.82 817,-56.75 789.98,-24.45 665.26,-15.11 601.61,-12.44"/>
<polygon fill="#63b8ff" stroke="#63b8ff" points="602.11,-8.95 591.98,-12.07 601.84,-15.95 602.11,-8.95"/>
</a>
</g>
</g>
<!-- Node31 -->
<g id="Node000031" class="node">
<title>Node31</title>
<g id="a_Node000031"><a xlink:href="endian_8h.html" target="_top" xlink:title="libc header for endian conversion">
<polygon fill="white" stroke="#666666" points="716,-77.5 658,-77.5 658,-56.75 716,-56.75 716,-77.5"/>
<text text-anchor="middle" x="687" y="-64" font-family="Helvetica,sans-Serif" font-size="10.00">endian.h</text>
</a>
</g>
</g>
<!-- Node30&#45;&gt;Node31 -->
<g id="edge53_Node000030_Node000031" class="edge">
<title>Node30&#45;&gt;Node31</title>
<g id="a_edge53_Node000030_Node000031"><a xlink:title=" ">
<path fill="none" stroke="#63b8ff" d="M697.68,-113.09C696.09,-106.39 693.92,-97.26 691.95,-88.98"/>
<polygon fill="#63b8ff" stroke="#63b8ff" points="695.37,-88.22 689.65,-79.3 688.56,-89.84 695.37,-88.22"/>
</a>
</g>
</g>
<!-- Node32 -->
<g id="Node000032" class="node">
<title>Node32</title>
<g id="a_Node000032"><a xlink:href="unaligned_8h.html" target="_top" xlink:title="Unaligned but safe memory access functions.">
<polygon fill="white" stroke="#666666" points="807.5,-77.5 734.5,-77.5 734.5,-56.75 807.5,-56.75 807.5,-77.5"/>
<text text-anchor="middle" x="771" y="-64" font-family="Helvetica,sans-Serif" font-size="10.00">unaligned.h</text>
</a>
</g>
</g>
<!-- Node30&#45;&gt;Node32 -->
<g id="edge55_Node000030_Node000032" class="edge">
<title>Node30&#45;&gt;Node32</title>
<g id="a_edge55_Node000030_Node000032"><a xlink:title=" ">
<path fill="none" stroke="#63b8ff" d="M712.69,-113.09C722.89,-105.22 737.44,-94 749.46,-84.74"/>
<polygon fill="#63b8ff" stroke="#63b8ff" points="751.44,-87.63 757.22,-78.75 747.16,-82.09 751.44,-87.63"/>
</a>
</g>
</g>
<!-- Node31&#45;&gt;Node12 -->
<g id="edge54_Node000031_Node000012" class="edge">
<title>Node31&#45;&gt;Node12</title>
<g id="a_edge54_Node000031_Node000012"><a xlink:title=" ">
<path fill="none" stroke="#63b8ff" d="M665.01,-56.34C645.86,-47.81 617.84,-35.34 596.17,-25.69"/>
<polygon fill="#63b8ff" stroke="#63b8ff" points="597.74,-22.56 587.18,-21.69 594.89,-28.96 597.74,-22.56"/>
</a>
</g>
</g>
<!-- Node32&#45;&gt;Node12 -->
<g id="edge56_Node000032_Node000012" class="edge">
<title>Node32&#45;&gt;Node12</title>
<g id="a_edge56_Node000032_Node000012"><a xlink:title=" ">
<path fill="none" stroke="#63b8ff" d="M734.47,-56.46C697.13,-46.59 639.41,-31.32 601.66,-21.34"/>
<polygon fill="#63b8ff" stroke="#63b8ff" points="602.66,-17.98 592.1,-18.81 600.87,-24.75 602.66,-17.98"/>
</a>
</g>
</g>
<!-- Node33&#45;&gt;Node7 -->
<g id="edge59_Node000033_Node000007" class="edge">
<title>Node33&#45;&gt;Node7</title>
<g id="a_edge59_Node000033_Node000007"><a xlink:title=" ">
<path fill="none" stroke="#63b8ff" d="M702.18,-226.51C742.95,-212.18 814.28,-181.99 858,-134.25 870.11,-121.02 878.57,-102.38 883.74,-88.25"/>
<polygon fill="#63b8ff" stroke="#63b8ff" points="886.95,-89.7 886.83,-79.11 880.31,-87.46 886.95,-89.7"/>
</a>
</g>
</g>
<!-- Node33&#45;&gt;Node28 -->
<g id="edge61_Node000033_Node000028" class="edge">
<title>Node33&#45;&gt;Node28</title>
<g id="a_edge61_Node000033_Node000028"><a xlink:title=" ">
<path fill="none" stroke="#63b8ff" d="M671,-226.59C671,-219.97 671,-210.97 671,-202.77"/>
<polygon fill="#63b8ff" stroke="#63b8ff" points="674.5,-202.84 671,-192.84 667.5,-202.84 674.5,-202.84"/>
</a>
</g>
</g>
<!-- Node33&#45;&gt;Node29 -->
<g id="edge58_Node000033_Node000029" class="edge">
<title>Node33&#45;&gt;Node29</title>
<g id="a_edge58_Node000033_Node000029"><a xlink:title=" ">
<path fill="none" stroke="#63b8ff" d="M690.01,-226.57C704.74,-218.38 725.08,-205.68 740,-191 754.04,-177.18 766.33,-158.38 774.51,-144.35"/>
<polygon fill="#63b8ff" stroke="#63b8ff" points="777.33,-146.47 779.18,-136.04 771.23,-143.05 777.33,-146.47"/>
</a>
</g>
</g>
<!-- Node33&#45;&gt;Node30 -->
<g id="edge60_Node000033_Node000030" class="edge">
<title>Node33&#45;&gt;Node30</title>
<g id="a_edge60_Node000033_Node000030"><a xlink:title=" ">
<path fill="none" stroke="#63b8ff" d="M689.49,-226.61C702.07,-218.83 717.71,-206.65 725,-191 732.27,-175.4 724.07,-157.04 715.17,-143.64"/>
<polygon fill="#63b8ff" stroke="#63b8ff" points="718.09,-141.7 709.36,-135.7 712.44,-145.84 718.09,-141.7"/>
</a>
</g>
</g>
</g>
</svg>
