<?xml version="1.0" encoding="UTF-8" standalone="no"?>
<!DOCTYPE svg PUBLIC "-//W3C//DTD SVG 1.1//EN"
 "http://www.w3.org/Graphics/SVG/1.1/DTD/svg11.dtd">
<!-- Generated by graphviz version 12.1.1 (0)
 -->
<!-- Title: drivers/max31855/include/max31855_params.h Pages: 1 -->
<svg width="842pt" height="269pt"
 viewBox="0.00 0.00 841.75 268.50" xmlns="http://www.w3.org/2000/svg" xmlns:xlink="http://www.w3.org/1999/xlink">
<g id="graph0" class="graph" transform="scale(1 1) rotate(0) translate(4 264.5)">
<title>drivers/max31855/include/max31855_params.h</title>
<!-- Node1 -->
<g id="Node000001" class="node">
<title>Node1</title>
<g id="a_Node000001"><a xlink:title="Default configuration for the MAX31855 driver.">
<polygon fill="#999999" stroke="#666666" points="679.5,-260.5 536.75,-260.5 536.75,-227 679.5,-227 679.5,-260.5"/>
<text text-anchor="start" x="544.75" y="-247" font-family="Helvetica,sans-Serif" font-size="10.00">drivers/max31855/include</text>
<text text-anchor="middle" x="608.12" y="-234.25" font-family="Helvetica,sans-Serif" font-size="10.00">/max31855_params.h</text>
</a>
</g>
</g>
<!-- Node2 -->
<g id="Node000002" class="node">
<title>Node2</title>
<g id="a_Node000002"><a xlink:title=" ">
<polygon fill="#e0e0e0" stroke="#999999" points="506.5,-191 453.75,-191 453.75,-170.25 506.5,-170.25 506.5,-191"/>
<text text-anchor="middle" x="480.12" y="-177.5" font-family="Helvetica,sans-Serif" font-size="10.00">board.h</text>
</a>
</g>
</g>
<!-- Node1&#45;&gt;Node2 -->
<g id="edge1_Node000001_Node000002" class="edge">
<title>Node1&#45;&gt;Node2</title>
<g id="a_edge1_Node000001_Node000002"><a xlink:title=" ">
<path fill="none" stroke="#63b8ff" d="M574.16,-226.53C554.5,-217.14 529.96,-205.42 510.88,-196.31"/>
<polygon fill="#63b8ff" stroke="#63b8ff" points="512.52,-193.22 501.99,-192.07 509.51,-199.53 512.52,-193.22"/>
</a>
</g>
</g>
<!-- Node3 -->
<g id="Node000003" class="node">
<title>Node3</title>
<g id="a_Node000003"><a xlink:href="saul__reg_8h.html" target="_top" xlink:title="SAUL registry interface definition.">
<polygon fill="white" stroke="#666666" points="686.25,-191 620,-191 620,-170.25 686.25,-170.25 686.25,-191"/>
<text text-anchor="middle" x="653.12" y="-177.5" font-family="Helvetica,sans-Serif" font-size="10.00">saul_reg.h</text>
</a>
</g>
</g>
<!-- Node1&#45;&gt;Node3 -->
<g id="edge2_Node000001_Node000003" class="edge">
<title>Node1&#45;&gt;Node3</title>
<g id="a_edge2_Node000001_Node000003"><a xlink:title=" ">
<path fill="none" stroke="#63b8ff" d="M619.95,-226.69C625.86,-218.66 633.06,-208.88 639.23,-200.49"/>
<polygon fill="#63b8ff" stroke="#63b8ff" points="641.87,-202.81 644.98,-192.69 636.23,-198.66 641.87,-202.81"/>
</a>
</g>
</g>
<!-- Node10 -->
<g id="Node000010" class="node">
<title>Node10</title>
<g id="a_Node000010"><a xlink:href="max31855_8h.html" target="_top" xlink:title=" ">
<polygon fill="white" stroke="#666666" points="601.5,-191 524.75,-191 524.75,-170.25 601.5,-170.25 601.5,-191"/>
<text text-anchor="middle" x="563.12" y="-177.5" font-family="Helvetica,sans-Serif" font-size="10.00">max31855.h</text>
</a>
</g>
</g>
<!-- Node1&#45;&gt;Node10 -->
<g id="edge10_Node000001_Node000010" class="edge">
<title>Node1&#45;&gt;Node10</title>
<g id="a_edge10_Node000001_Node000010"><a xlink:title=" ">
<path fill="none" stroke="#63b8ff" d="M596.3,-226.69C590.39,-218.66 583.19,-208.88 577.02,-200.49"/>
<polygon fill="#63b8ff" stroke="#63b8ff" points="580.02,-198.66 571.27,-192.69 574.38,-202.81 580.02,-198.66"/>
</a>
</g>
</g>
<!-- Node19 -->
<g id="Node000019" class="node">
<title>Node19</title>
<g id="a_Node000019"><a xlink:href="max31855__constants_8h.html" target="_top" xlink:title="Internal addresses, registers and constants.">
<polygon fill="white" stroke="#666666" points="833.75,-191 704.5,-191 704.5,-170.25 833.75,-170.25 833.75,-191"/>
<text text-anchor="middle" x="769.12" y="-177.5" font-family="Helvetica,sans-Serif" font-size="10.00">max31855_constants.h</text>
</a>
</g>
</g>
<!-- Node1&#45;&gt;Node19 -->
<g id="edge24_Node000001_Node000019" class="edge">
<title>Node1&#45;&gt;Node19</title>
<g id="a_edge24_Node000001_Node000019"><a xlink:title=" ">
<path fill="none" stroke="#63b8ff" d="M650.85,-226.53C676.38,-216.84 708.46,-204.66 732.77,-195.43"/>
<polygon fill="#63b8ff" stroke="#63b8ff" points="733.82,-198.77 741.92,-191.95 731.33,-192.23 733.82,-198.77"/>
</a>
</g>
</g>
<!-- Node4 -->
<g id="Node000004" class="node">
<title>Node4</title>
<g id="a_Node000004"><a xlink:title=" ">
<polygon fill="#e0e0e0" stroke="#999999" points="497.5,-20.75 444.75,-20.75 444.75,0 497.5,0 497.5,-20.75"/>
<text text-anchor="middle" x="471.12" y="-7.25" font-family="Helvetica,sans-Serif" font-size="10.00">stdint.h</text>
</a>
</g>
</g>
<!-- Node3&#45;&gt;Node4 -->
<g id="edge3_Node000003_Node000004" class="edge">
<title>Node3&#45;&gt;Node4</title>
<g id="a_edge3_Node000003_Node000004"><a xlink:title=" ">
<path fill="none" stroke="#63b8ff" d="M673.01,-169.75C712.5,-148.89 794.03,-98.78 758.12,-56.75 726.53,-19.77 579.68,-12.75 509.14,-11.54"/>
<polygon fill="#63b8ff" stroke="#63b8ff" points="509.26,-8.05 499.22,-11.41 509.17,-15.05 509.26,-8.05"/>
</a>
</g>
</g>
<!-- Node5 -->
<g id="Node000005" class="node">
<title>Node5</title>
<g id="a_Node000005"><a xlink:title=" ">
<polygon fill="#e0e0e0" stroke="#999999" points="710.75,-134.25 665.5,-134.25 665.5,-113.5 710.75,-113.5 710.75,-134.25"/>
<text text-anchor="middle" x="688.12" y="-120.75" font-family="Helvetica,sans-Serif" font-size="10.00">saul.h</text>
</a>
</g>
</g>
<!-- Node3&#45;&gt;Node5 -->
<g id="edge4_Node000003_Node000005" class="edge">
<title>Node3&#45;&gt;Node5</title>
<g id="a_edge4_Node000003_Node000005"><a xlink:title=" ">
<path fill="none" stroke="#63b8ff" d="M659.38,-169.84C663.96,-162.67 670.32,-152.73 675.89,-144.01"/>
<polygon fill="#63b8ff" stroke="#63b8ff" points="678.67,-146.16 681.11,-135.85 672.77,-142.39 678.67,-146.16"/>
</a>
</g>
</g>
<!-- Node6 -->
<g id="Node000006" class="node">
<title>Node6</title>
<g id="a_Node000006"><a xlink:href="phydat_8h.html" target="_top" xlink:title="Generic data container for physical data interface.">
<polygon fill="white" stroke="#666666" points="647.5,-134.25 588.75,-134.25 588.75,-113.5 647.5,-113.5 647.5,-134.25"/>
<text text-anchor="middle" x="618.12" y="-120.75" font-family="Helvetica,sans-Serif" font-size="10.00">phydat.h</text>
</a>
</g>
</g>
<!-- Node3&#45;&gt;Node6 -->
<g id="edge5_Node000003_Node000006" class="edge">
<title>Node3&#45;&gt;Node6</title>
<g id="a_edge5_Node000003_Node000006"><a xlink:title=" ">
<path fill="none" stroke="#63b8ff" d="M646.87,-169.84C642.29,-162.67 635.93,-152.73 630.36,-144.01"/>
<polygon fill="#63b8ff" stroke="#63b8ff" points="633.48,-142.39 625.14,-135.85 627.58,-146.16 633.48,-142.39"/>
</a>
</g>
</g>
<!-- Node6&#45;&gt;Node4 -->
<g id="edge7_Node000006_Node000004" class="edge">
<title>Node6&#45;&gt;Node4</title>
<g id="a_edge7_Node000006_Node000004"><a xlink:title=" ">
<path fill="none" stroke="#63b8ff" d="M624.01,-113.28C631.7,-99.4 642.77,-73.51 630.12,-56.75 615.55,-37.43 551.17,-23.87 508.94,-16.87"/>
<polygon fill="#63b8ff" stroke="#63b8ff" points="509.59,-13.43 499.17,-15.31 508.49,-20.34 509.59,-13.43"/>
</a>
</g>
</g>
<!-- Node7 -->
<g id="Node000007" class="node">
<title>Node7</title>
<g id="a_Node000007"><a xlink:title=" ">
<polygon fill="#e0e0e0" stroke="#999999" points="535.62,-77.5 480.62,-77.5 480.62,-56.75 535.62,-56.75 535.62,-77.5"/>
<text text-anchor="middle" x="508.12" y="-64" font-family="Helvetica,sans-Serif" font-size="10.00">stddef.h</text>
</a>
</g>
</g>
<!-- Node6&#45;&gt;Node7 -->
<g id="edge6_Node000006_Node000007" class="edge">
<title>Node6&#45;&gt;Node7</title>
<g id="a_edge6_Node000006_Node000007"><a xlink:title=" ">
<path fill="none" stroke="#63b8ff" d="M598.46,-113.09C581.57,-104.68 556.96,-92.43 537.69,-82.84"/>
<polygon fill="#63b8ff" stroke="#63b8ff" points="539.49,-79.83 528.98,-78.5 536.37,-86.09 539.49,-79.83"/>
</a>
</g>
</g>
<!-- Node8 -->
<g id="Node000008" class="node">
<title>Node8</title>
<g id="a_Node000008"><a xlink:title=" ">
<polygon fill="#e0e0e0" stroke="#999999" points="748.88,-77.5 677.38,-77.5 677.38,-56.75 748.88,-56.75 748.88,-77.5"/>
<text text-anchor="middle" x="713.12" y="-64" font-family="Helvetica,sans-Serif" font-size="10.00">sys/types.h</text>
</a>
</g>
</g>
<!-- Node6&#45;&gt;Node8 -->
<g id="edge8_Node000006_Node000008" class="edge">
<title>Node6&#45;&gt;Node8</title>
<g id="a_edge8_Node000006_Node000008"><a xlink:title=" ">
<path fill="none" stroke="#63b8ff" d="M635.11,-113.09C649.43,-104.83 670.17,-92.88 686.66,-83.38"/>
<polygon fill="#63b8ff" stroke="#63b8ff" points="688.06,-86.61 694.98,-78.58 684.56,-80.55 688.06,-86.61"/>
</a>
</g>
</g>
<!-- Node9 -->
<g id="Node000009" class="node">
<title>Node9</title>
<g id="a_Node000009"><a xlink:href="modules_8h.html" target="_top" xlink:title="Common macros and compiler attributes/pragmas configuration.">
<polygon fill="white" stroke="#666666" points="620.62,-77.5 553.62,-77.5 553.62,-56.75 620.62,-56.75 620.62,-77.5"/>
<text text-anchor="middle" x="587.12" y="-64" font-family="Helvetica,sans-Serif" font-size="10.00">modules.h</text>
</a>
</g>
</g>
<!-- Node6&#45;&gt;Node9 -->
<g id="edge9_Node000006_Node000009" class="edge">
<title>Node6&#45;&gt;Node9</title>
<g id="a_edge9_Node000006_Node000009"><a xlink:title=" ">
<path fill="none" stroke="#63b8ff" d="M612.58,-113.09C608.62,-106.08 603.14,-96.41 598.28,-87.83"/>
<polygon fill="#63b8ff" stroke="#63b8ff" points="601.34,-86.12 593.36,-79.15 595.25,-89.57 601.34,-86.12"/>
</a>
</g>
</g>
<!-- Node11 -->
<g id="Node000011" class="node">
<title>Node11</title>
<g id="a_Node000011"><a xlink:href="spi_8h.html" target="_top" xlink:title="Low&#45;level SPI peripheral driver interface definition.">
<polygon fill="white" stroke="#666666" points="322.62,-134.25 249.62,-134.25 249.62,-113.5 322.62,-113.5 322.62,-134.25"/>
<text text-anchor="middle" x="286.12" y="-120.75" font-family="Helvetica,sans-Serif" font-size="10.00">periph/spi.h</text>
</a>
</g>
</g>
<!-- Node10&#45;&gt;Node11 -->
<g id="edge11_Node000010_Node000011" class="edge">
<title>Node10&#45;&gt;Node11</title>
<g id="a_edge11_Node000010_Node000011"><a xlink:title=" ">
<path fill="none" stroke="#63b8ff" d="M524.32,-171.95C474.41,-162.09 387.78,-144.97 333.88,-134.31"/>
<polygon fill="#63b8ff" stroke="#63b8ff" points="334.88,-130.94 324.39,-132.44 333.52,-137.81 334.88,-130.94"/>
</a>
</g>
</g>
<!-- Node11&#45;&gt;Node4 -->
<g id="edge17_Node000011_Node000004" class="edge">
<title>Node11&#45;&gt;Node4</title>
<g id="a_edge17_Node000011_Node000004"><a xlink:title=" ">
<path fill="none" stroke="#63b8ff" d="M273.27,-113.06C257.14,-99.56 233.3,-74.9 248.12,-56.75 271.1,-28.63 376.07,-17.5 433.43,-13.46"/>
<polygon fill="#63b8ff" stroke="#63b8ff" points="433.31,-16.97 443.06,-12.82 432.85,-9.99 433.31,-16.97"/>
</a>
</g>
</g>
<!-- Node11&#45;&gt;Node7 -->
<g id="edge16_Node000011_Node000007" class="edge">
<title>Node11&#45;&gt;Node7</title>
<g id="a_edge16_Node000011_Node000007"><a xlink:title=" ">
<path fill="none" stroke="#63b8ff" d="M322.87,-114.09C358.15,-105.61 413.22,-92.28 469.36,-78.17"/>
<polygon fill="#63b8ff" stroke="#63b8ff" points="469.92,-81.64 478.76,-75.81 468.21,-74.85 469.92,-81.64"/>
</a>
</g>
</g>
<!-- Node12 -->
<g id="Node000012" class="node">
<title>Node12</title>
<g id="a_Node000012"><a xlink:href="endian_8h.html" target="_top" xlink:title="libc header for endian conversion">
<polygon fill="white" stroke="#666666" points="315.12,-77.5 257.12,-77.5 257.12,-56.75 315.12,-56.75 315.12,-77.5"/>
<text text-anchor="middle" x="286.12" y="-64" font-family="Helvetica,sans-Serif" font-size="10.00">endian.h</text>
</a>
</g>
</g>
<!-- Node11&#45;&gt;Node12 -->
<g id="edge12_Node000011_Node000012" class="edge">
<title>Node11&#45;&gt;Node12</title>
<g id="a_edge12_Node000011_Node000012"><a xlink:title=" ">
<path fill="none" stroke="#63b8ff" d="M286.12,-113.09C286.12,-106.47 286.12,-97.47 286.12,-89.27"/>
<polygon fill="#63b8ff" stroke="#63b8ff" points="289.63,-89.34 286.13,-79.34 282.63,-89.34 289.63,-89.34"/>
</a>
</g>
</g>
<!-- Node13 -->
<g id="Node000013" class="node">
<title>Node13</title>
<g id="a_Node000013"><a xlink:href="errno_8h.html" target="_top" xlink:title=" ">
<polygon fill="white" stroke="#666666" points="383.38,-77.5 332.88,-77.5 332.88,-56.75 383.38,-56.75 383.38,-77.5"/>
<text text-anchor="middle" x="358.12" y="-64" font-family="Helvetica,sans-Serif" font-size="10.00">errno.h</text>
</a>
</g>
</g>
<!-- Node11&#45;&gt;Node13 -->
<g id="edge14_Node000011_Node000013" class="edge">
<title>Node11&#45;&gt;Node13</title>
<g id="a_edge14_Node000011_Node000013"><a xlink:title=" ">
<path fill="none" stroke="#63b8ff" d="M299,-113.09C309.34,-105.22 324.09,-94 336.28,-84.74"/>
<polygon fill="#63b8ff" stroke="#63b8ff" points="338.32,-87.58 344.16,-78.74 334.08,-82.01 338.32,-87.58"/>
</a>
</g>
</g>
<!-- Node14 -->
<g id="Node000014" class="node">
<title>Node14</title>
<g id="a_Node000014"><a xlink:title=" ">
<polygon fill="#e0e0e0" stroke="#999999" points="462.62,-77.5 401.62,-77.5 401.62,-56.75 462.62,-56.75 462.62,-77.5"/>
<text text-anchor="middle" x="432.12" y="-64" font-family="Helvetica,sans-Serif" font-size="10.00">stdbool.h</text>
</a>
</g>
</g>
<!-- Node11&#45;&gt;Node14 -->
<g id="edge15_Node000011_Node000014" class="edge">
<title>Node11&#45;&gt;Node14</title>
<g id="a_edge15_Node000011_Node000014"><a xlink:title=" ">
<path fill="none" stroke="#63b8ff" d="M312.23,-113.09C335.48,-104.37 369.74,-91.52 395.69,-81.79"/>
<polygon fill="#63b8ff" stroke="#63b8ff" points="396.7,-85.15 404.83,-78.36 394.24,-78.59 396.7,-85.15"/>
</a>
</g>
</g>
<!-- Node15 -->
<g id="Node000015" class="node">
<title>Node15</title>
<g id="a_Node000015"><a xlink:title=" ">
<polygon fill="#e0e0e0" stroke="#999999" points="78.25,-20.75 0,-20.75 0,0 78.25,0 78.25,-20.75"/>
<text text-anchor="middle" x="39.12" y="-7.25" font-family="Helvetica,sans-Serif" font-size="10.00">periph_cpu.h</text>
</a>
</g>
</g>
<!-- Node11&#45;&gt;Node15 -->
<g id="edge18_Node000011_Node000015" class="edge">
<title>Node11&#45;&gt;Node15</title>
<g id="a_edge18_Node000011_Node000015"><a xlink:title=" ">
<path fill="none" stroke="#63b8ff" d="M249.19,-118.76C196.02,-112.22 101.3,-98.04 74.12,-77.5 59.25,-66.25 50.05,-46.81 44.84,-31.91"/>
<polygon fill="#63b8ff" stroke="#63b8ff" points="48.26,-31.13 41.93,-22.63 41.58,-33.22 48.26,-31.13"/>
</a>
</g>
</g>
<!-- Node16 -->
<g id="Node000016" class="node">
<title>Node16</title>
<g id="a_Node000016"><a xlink:title=" ">
<polygon fill="#e0e0e0" stroke="#999999" points="248.75,-20.75 167.5,-20.75 167.5,0 248.75,0 248.75,-20.75"/>
<text text-anchor="middle" x="208.12" y="-7.25" font-family="Helvetica,sans-Serif" font-size="10.00">periph_conf.h</text>
</a>
</g>
</g>
<!-- Node11&#45;&gt;Node16 -->
<g id="edge19_Node000011_Node000016" class="edge">
<title>Node11&#45;&gt;Node16</title>
<g id="a_edge19_Node000011_Node000016"><a xlink:title=" ">
<path fill="none" stroke="#63b8ff" d="M260.14,-113.14C244.4,-105.82 225.43,-94.17 215.12,-77.5 206.85,-64.12 205.4,-46.25 205.86,-32.45"/>
<polygon fill="#63b8ff" stroke="#63b8ff" points="209.33,-32.92 206.56,-22.69 202.35,-32.42 209.33,-32.92"/>
</a>
</g>
</g>
<!-- Node17 -->
<g id="Node000017" class="node">
<title>Node17</title>
<g id="a_Node000017"><a xlink:href="drivers_2include_2periph_2gpio_8h.html" target="_top" xlink:title="Low&#45;level GPIO peripheral driver interface definitions.">
<polygon fill="white" stroke="#666666" points="163,-77.5 83.25,-77.5 83.25,-56.75 163,-56.75 163,-77.5"/>
<text text-anchor="middle" x="123.12" y="-64" font-family="Helvetica,sans-Serif" font-size="10.00">periph/gpio.h</text>
</a>
</g>
</g>
<!-- Node11&#45;&gt;Node17 -->
<g id="edge20_Node000011_Node000017" class="edge">
<title>Node11&#45;&gt;Node17</title>
<g id="a_edge20_Node000011_Node000017"><a xlink:title=" ">
<path fill="none" stroke="#63b8ff" d="M256.98,-113.09C230.76,-104.28 191.98,-91.25 162.91,-81.49"/>
<polygon fill="#63b8ff" stroke="#63b8ff" points="164.32,-78.27 153.72,-78.4 162.09,-84.9 164.32,-78.27"/>
</a>
</g>
</g>
<!-- Node12&#45;&gt;Node4 -->
<g id="edge13_Node000012_Node000004" class="edge">
<title>Node12&#45;&gt;Node4</title>
<g id="a_edge13_Node000012_Node000004"><a xlink:title=" ">
<path fill="none" stroke="#63b8ff" d="M315.44,-57.45C347.43,-47.98 398.74,-32.8 433.64,-22.47"/>
<polygon fill="#63b8ff" stroke="#63b8ff" points="434.3,-25.92 442.9,-19.73 432.32,-19.21 434.3,-25.92"/>
</a>
</g>
</g>
<!-- Node17&#45;&gt;Node15 -->
<g id="edge22_Node000017_Node000015" class="edge">
<title>Node17&#45;&gt;Node15</title>
<g id="a_edge22_Node000017_Node000015"><a xlink:title=" ">
<path fill="none" stroke="#63b8ff" d="M108.11,-56.34C95.68,-48.24 77.8,-36.58 63.35,-27.17"/>
<polygon fill="#63b8ff" stroke="#63b8ff" points="65.57,-24.43 55.28,-21.9 61.75,-30.3 65.57,-24.43"/>
</a>
</g>
</g>
<!-- Node17&#45;&gt;Node16 -->
<g id="edge23_Node000017_Node000016" class="edge">
<title>Node17&#45;&gt;Node16</title>
<g id="a_edge23_Node000017_Node000016"><a xlink:title=" ">
<path fill="none" stroke="#63b8ff" d="M138.32,-56.34C150.89,-48.24 168.99,-36.58 183.61,-27.17"/>
<polygon fill="#63b8ff" stroke="#63b8ff" points="185.28,-30.26 191.79,-21.9 181.49,-24.37 185.28,-30.26"/>
</a>
</g>
</g>
<!-- Node18 -->
<g id="Node000018" class="node">
<title>Node18</title>
<g id="a_Node000018"><a xlink:title=" ">
<polygon fill="#e0e0e0" stroke="#999999" points="149.5,-20.75 96.75,-20.75 96.75,0 149.5,0 149.5,-20.75"/>
<text text-anchor="middle" x="123.12" y="-7.25" font-family="Helvetica,sans-Serif" font-size="10.00">limits.h</text>
</a>
</g>
</g>
<!-- Node17&#45;&gt;Node18 -->
<g id="edge21_Node000017_Node000018" class="edge">
<title>Node17&#45;&gt;Node18</title>
<g id="a_edge21_Node000017_Node000018"><a xlink:title=" ">
<path fill="none" stroke="#63b8ff" d="M123.12,-56.34C123.12,-49.72 123.12,-40.72 123.12,-32.52"/>
<polygon fill="#63b8ff" stroke="#63b8ff" points="126.63,-32.59 123.13,-22.59 119.63,-32.59 126.63,-32.59"/>
</a>
</g>
</g>
</g>
</svg>
