<?xml version="1.0" encoding="UTF-8" standalone="no"?>
<!DOCTYPE svg PUBLIC "-//W3C//DTD SVG 1.1//EN"
 "http://www.w3.org/Graphics/SVG/1.1/DTD/svg11.dtd">
<!-- Generated by graphviz version 12.1.1 (0)
 -->
<!-- Title: drivers/include/mcp47xx.h Pages: 1 -->
<svg width="734pt" height="256pt"
 viewBox="0.00 0.00 733.80 255.75" xmlns="http://www.w3.org/2000/svg" xmlns:xlink="http://www.w3.org/1999/xlink">
<g id="graph0" class="graph" transform="scale(1 1) rotate(0) translate(4 251.75)">
<title>drivers/include/mcp47xx.h</title>
<!-- Node1 -->
<g id="Node000001" class="node">
<title>Node1</title>
<g id="a_Node000001"><a xlink:title=" ">
<polygon fill="#999999" stroke="#666666" points="469.88,-247.75 324.88,-247.75 324.88,-227 469.88,-227 469.88,-247.75"/>
<text text-anchor="middle" x="397.38" y="-234.25" font-family="Helvetica,sans-Serif" font-size="10.00">drivers/include/mcp47xx.h</text>
</a>
</g>
</g>
<!-- Node2 -->
<g id="Node000002" class="node">
<title>Node2</title>
<g id="a_Node000002"><a xlink:title=" ">
<polygon fill="#e0e0e0" stroke="#999999" points="179.88,-191 118.88,-191 118.88,-170.25 179.88,-170.25 179.88,-191"/>
<text text-anchor="middle" x="149.38" y="-177.5" font-family="Helvetica,sans-Serif" font-size="10.00">stdbool.h</text>
</a>
</g>
</g>
<!-- Node1&#45;&gt;Node2 -->
<g id="edge1_Node000001_Node000002" class="edge">
<title>Node1&#45;&gt;Node2</title>
<g id="a_edge1_Node000001_Node000002"><a xlink:title=" ">
<path fill="none" stroke="#63b8ff" d="M351.48,-226.58C311.69,-218.03 252.28,-205.16 191.36,-191.42"/>
<polygon fill="#63b8ff" stroke="#63b8ff" points="192.37,-188.06 181.85,-189.27 190.83,-194.89 192.37,-188.06"/>
</a>
</g>
</g>
<!-- Node3 -->
<g id="Node000003" class="node">
<title>Node3</title>
<g id="a_Node000003"><a xlink:title=" ">
<polygon fill="#e0e0e0" stroke="#999999" points="311.75,-20.75 259,-20.75 259,0 311.75,0 311.75,-20.75"/>
<text text-anchor="middle" x="285.38" y="-7.25" font-family="Helvetica,sans-Serif" font-size="10.00">stdint.h</text>
</a>
</g>
</g>
<!-- Node1&#45;&gt;Node3 -->
<g id="edge2_Node000001_Node000003" class="edge">
<title>Node1&#45;&gt;Node3</title>
<g id="a_edge2_Node000001_Node000003"><a xlink:title=" ">
<path fill="none" stroke="#63b8ff" d="M393.13,-226.72C383.92,-205.87 361.22,-155.13 340.38,-113.5 325.85,-84.48 307.81,-51.53 296.45,-31.09"/>
<polygon fill="#63b8ff" stroke="#63b8ff" points="299.55,-29.48 291.62,-22.45 293.44,-32.89 299.55,-29.48"/>
</a>
</g>
</g>
<!-- Node4 -->
<g id="Node000004" class="node">
<title>Node4</title>
<g id="a_Node000004"><a xlink:href="kernel__defines_8h.html" target="_top" xlink:title="Common macros and compiler attributes/pragmas configuration.">
<polygon fill="white" stroke="#666666" points="294.5,-191 198.25,-191 198.25,-170.25 294.5,-170.25 294.5,-191"/>
<text text-anchor="middle" x="246.38" y="-177.5" font-family="Helvetica,sans-Serif" font-size="10.00">kernel_defines.h</text>
</a>
</g>
</g>
<!-- Node1&#45;&gt;Node4 -->
<g id="edge3_Node000001_Node000004" class="edge">
<title>Node1&#45;&gt;Node4</title>
<g id="a_edge3_Node000001_Node000004"><a xlink:title=" ">
<path fill="none" stroke="#63b8ff" d="M370.38,-226.59C346.3,-217.86 310.8,-204.98 283.95,-195.25"/>
<polygon fill="#63b8ff" stroke="#63b8ff" points="285.41,-192.05 274.81,-191.94 283.02,-198.64 285.41,-192.05"/>
</a>
</g>
</g>
<!-- Node11 -->
<g id="Node000011" class="node">
<title>Node11</title>
<g id="a_Node000011"><a xlink:href="dac_8h.html" target="_top" xlink:title="DAC peripheral driver interface definition.">
<polygon fill="white" stroke="#666666" points="663.38,-191 587.38,-191 587.38,-170.25 663.38,-170.25 663.38,-191"/>
<text text-anchor="middle" x="625.38" y="-177.5" font-family="Helvetica,sans-Serif" font-size="10.00">periph/dac.h</text>
</a>
</g>
</g>
<!-- Node1&#45;&gt;Node11 -->
<g id="edge14_Node000001_Node000011" class="edge">
<title>Node1&#45;&gt;Node11</title>
<g id="a_edge14_Node000001_Node000011"><a xlink:title=" ">
<path fill="none" stroke="#63b8ff" d="M438.4,-226.52C476.96,-217.27 534.72,-203.39 575.83,-193.52"/>
<polygon fill="#63b8ff" stroke="#63b8ff" points="576.58,-196.94 585.49,-191.2 574.94,-190.14 576.58,-196.94"/>
</a>
</g>
</g>
<!-- Node15 -->
<g id="Node000015" class="node">
<title>Node15</title>
<g id="a_Node000015"><a xlink:href="drivers_2include_2periph_2gpio_8h.html" target="_top" xlink:title="Low&#45;level GPIO peripheral driver interface definitions.">
<polygon fill="white" stroke="#666666" points="569.25,-191 489.5,-191 489.5,-170.25 569.25,-170.25 569.25,-191"/>
<text text-anchor="middle" x="529.38" y="-177.5" font-family="Helvetica,sans-Serif" font-size="10.00">periph/gpio.h</text>
</a>
</g>
</g>
<!-- Node1&#45;&gt;Node15 -->
<g id="edge19_Node000001_Node000015" class="edge">
<title>Node1&#45;&gt;Node15</title>
<g id="a_edge19_Node000001_Node000015"><a xlink:title=" ">
<path fill="none" stroke="#63b8ff" d="M420.97,-226.59C441.72,-217.98 472.15,-205.36 495.49,-195.68"/>
<polygon fill="#63b8ff" stroke="#63b8ff" points="496.69,-198.97 504.58,-191.91 494,-192.51 496.69,-198.97"/>
</a>
</g>
</g>
<!-- Node16 -->
<g id="Node000016" class="node">
<title>Node16</title>
<g id="a_Node000016"><a xlink:href="i2c_8h.html" target="_top" xlink:title="Low&#45;level I2C peripheral driver interface definition.">
<polygon fill="white" stroke="#666666" points="471.88,-191 398.88,-191 398.88,-170.25 471.88,-170.25 471.88,-191"/>
<text text-anchor="middle" x="435.38" y="-177.5" font-family="Helvetica,sans-Serif" font-size="10.00">periph/i2c.h</text>
</a>
</g>
</g>
<!-- Node1&#45;&gt;Node16 -->
<g id="edge23_Node000001_Node000016" class="edge">
<title>Node1&#45;&gt;Node16</title>
<g id="a_edge23_Node000001_Node000016"><a xlink:title=" ">
<path fill="none" stroke="#63b8ff" d="M404.17,-226.59C409.14,-219.42 416.04,-209.48 422.1,-200.76"/>
<polygon fill="#63b8ff" stroke="#63b8ff" points="424.95,-202.78 427.78,-192.57 419.2,-198.79 424.95,-202.78"/>
</a>
</g>
</g>
<!-- Node5 -->
<g id="Node000005" class="node">
<title>Node5</title>
<g id="a_Node000005"><a xlink:href="modules_8h.html" target="_top" xlink:title="Common macros and compiler attributes/pragmas configuration.">
<polygon fill="white" stroke="#666666" points="242.88,-134.25 175.88,-134.25 175.88,-113.5 242.88,-113.5 242.88,-134.25"/>
<text text-anchor="middle" x="209.38" y="-120.75" font-family="Helvetica,sans-Serif" font-size="10.00">modules.h</text>
</a>
</g>
</g>
<!-- Node4&#45;&gt;Node5 -->
<g id="edge4_Node000004_Node000005" class="edge">
<title>Node4&#45;&gt;Node5</title>
<g id="a_edge4_Node000004_Node000005"><a xlink:title=" ">
<path fill="none" stroke="#63b8ff" d="M239.76,-169.84C234.92,-162.67 228.2,-152.73 222.3,-144.01"/>
<polygon fill="#63b8ff" stroke="#63b8ff" points="225.28,-142.16 216.78,-135.83 219.48,-146.08 225.28,-142.16"/>
</a>
</g>
</g>
<!-- Node6 -->
<g id="Node000006" class="node">
<title>Node6</title>
<g id="a_Node000006"><a xlink:href="riot__version_8h.html" target="_top" xlink:title="Common macros and compiler attributes/pragmas configuration.">
<polygon fill="white" stroke="#666666" points="82.75,-77.5 0,-77.5 0,-56.75 82.75,-56.75 82.75,-77.5"/>
<text text-anchor="middle" x="41.38" y="-64" font-family="Helvetica,sans-Serif" font-size="10.00">riot_version.h</text>
</a>
</g>
</g>
<!-- Node4&#45;&gt;Node6 -->
<g id="edge5_Node000004_Node000006" class="edge">
<title>Node4&#45;&gt;Node6</title>
<g id="a_edge5_Node000004_Node000006"><a xlink:title=" ">
<path fill="none" stroke="#63b8ff" d="M198.05,-171.29C143.62,-161.45 61.37,-145.07 51.38,-134.25 40.28,-122.25 38.36,-103.45 38.89,-88.96"/>
<polygon fill="#63b8ff" stroke="#63b8ff" points="42.36,-89.37 39.68,-79.13 35.39,-88.81 42.36,-89.37"/>
</a>
</g>
</g>
<!-- Node7 -->
<g id="Node000007" class="node">
<title>Node7</title>
<g id="a_Node000007"><a xlink:href="compiler__hints_8h.html" target="_top" xlink:title="Common macros and compiler attributes/pragmas configuration.">
<polygon fill="white" stroke="#666666" points="157.88,-134.25 60.88,-134.25 60.88,-113.5 157.88,-113.5 157.88,-134.25"/>
<text text-anchor="middle" x="109.38" y="-120.75" font-family="Helvetica,sans-Serif" font-size="10.00">compiler_hints.h</text>
</a>
</g>
</g>
<!-- Node4&#45;&gt;Node7 -->
<g id="edge7_Node000004_Node000007" class="edge">
<title>Node4&#45;&gt;Node7</title>
<g id="a_edge7_Node000004_Node000007"><a xlink:title=" ">
<path fill="none" stroke="#63b8ff" d="M221.88,-169.84C200.26,-161.19 168.49,-148.5 144.22,-138.8"/>
<polygon fill="#63b8ff" stroke="#63b8ff" points="145.65,-135.6 135.06,-135.14 143.05,-142.1 145.65,-135.6"/>
</a>
</g>
</g>
<!-- Node9 -->
<g id="Node000009" class="node">
<title>Node9</title>
<g id="a_Node000009"><a xlink:href="container_8h.html" target="_top" xlink:title="Common macros and compiler attributes/pragmas configuration.">
<polygon fill="white" stroke="#666666" points="331.75,-134.25 261,-134.25 261,-113.5 331.75,-113.5 331.75,-134.25"/>
<text text-anchor="middle" x="296.38" y="-120.75" font-family="Helvetica,sans-Serif" font-size="10.00">container.h</text>
</a>
</g>
</g>
<!-- Node4&#45;&gt;Node9 -->
<g id="edge11_Node000004_Node000009" class="edge">
<title>Node4&#45;&gt;Node9</title>
<g id="a_edge11_Node000004_Node000009"><a xlink:title=" ">
<path fill="none" stroke="#63b8ff" d="M255.31,-169.84C262.14,-162.36 271.74,-151.86 279.93,-142.88"/>
<polygon fill="#63b8ff" stroke="#63b8ff" points="282.33,-145.44 286.49,-135.7 277.16,-140.72 282.33,-145.44"/>
</a>
</g>
</g>
<!-- Node6&#45;&gt;Node3 -->
<g id="edge6_Node000006_Node000003" class="edge">
<title>Node6&#45;&gt;Node3</title>
<g id="a_edge6_Node000006_Node000003"><a xlink:title=" ">
<path fill="none" stroke="#63b8ff" d="M83.04,-56.78C129.15,-46.43 202.81,-29.9 247.38,-19.9"/>
<polygon fill="#63b8ff" stroke="#63b8ff" points="248.13,-23.32 257.12,-17.72 246.59,-16.49 248.13,-23.32"/>
</a>
</g>
</g>
<!-- Node7&#45;&gt;Node3 -->
<g id="edge10_Node000007_Node000003" class="edge">
<title>Node7&#45;&gt;Node3</title>
<g id="a_edge10_Node000007_Node000003"><a xlink:title=" ">
<path fill="none" stroke="#63b8ff" d="M118.18,-113.3C131.33,-99.44 157.33,-73.59 183.38,-56.75 203.56,-43.7 228.13,-32.64 248.1,-24.71"/>
<polygon fill="#63b8ff" stroke="#63b8ff" points="249.18,-28.05 257.25,-21.18 246.66,-21.52 249.18,-28.05"/>
</a>
</g>
</g>
<!-- Node8 -->
<g id="Node000008" class="node">
<title>Node8</title>
<g id="a_Node000008"><a xlink:href="assert_8h.html" target="_top" xlink:title="POSIX.1&#45;2008 compliant version of the assert macro.">
<polygon fill="white" stroke="#666666" points="247.88,-77.5 192.88,-77.5 192.88,-56.75 247.88,-56.75 247.88,-77.5"/>
<text text-anchor="middle" x="220.38" y="-64" font-family="Helvetica,sans-Serif" font-size="10.00">assert.h</text>
</a>
</g>
</g>
<!-- Node7&#45;&gt;Node8 -->
<g id="edge8_Node000007_Node000008" class="edge">
<title>Node7&#45;&gt;Node8</title>
<g id="a_edge8_Node000007_Node000008"><a xlink:title=" ">
<path fill="none" stroke="#63b8ff" d="M129.22,-113.09C146.27,-104.68 171.1,-92.43 190.54,-82.84"/>
<polygon fill="#63b8ff" stroke="#63b8ff" points="191.92,-86.06 199.34,-78.5 188.83,-79.78 191.92,-86.06"/>
</a>
</g>
</g>
<!-- Node8&#45;&gt;Node3 -->
<g id="edge9_Node000008_Node000003" class="edge">
<title>Node8&#45;&gt;Node3</title>
<g id="a_edge9_Node000008_Node000003"><a xlink:title=" ">
<path fill="none" stroke="#63b8ff" d="M232,-56.34C241.24,-48.55 254.39,-37.47 265.32,-28.26"/>
<polygon fill="#63b8ff" stroke="#63b8ff" points="267.3,-31.17 272.7,-22.05 262.79,-25.82 267.3,-31.17"/>
</a>
</g>
</g>
<!-- Node9&#45;&gt;Node3 -->
<g id="edge13_Node000009_Node000003" class="edge">
<title>Node9&#45;&gt;Node3</title>
<g id="a_edge13_Node000009_Node000003"><a xlink:title=" ">
<path fill="none" stroke="#63b8ff" d="M295.44,-113.37C293.68,-95.52 289.84,-56.61 287.44,-32.34"/>
<polygon fill="#63b8ff" stroke="#63b8ff" points="290.96,-32.29 286.49,-22.68 283.99,-32.98 290.96,-32.29"/>
</a>
</g>
</g>
<!-- Node10 -->
<g id="Node000010" class="node">
<title>Node10</title>
<g id="a_Node000010"><a xlink:title=" ">
<polygon fill="#e0e0e0" stroke="#999999" points="406.88,-77.5 351.88,-77.5 351.88,-56.75 406.88,-56.75 406.88,-77.5"/>
<text text-anchor="middle" x="379.38" y="-64" font-family="Helvetica,sans-Serif" font-size="10.00">stddef.h</text>
</a>
</g>
</g>
<!-- Node9&#45;&gt;Node10 -->
<g id="edge12_Node000009_Node000010" class="edge">
<title>Node9&#45;&gt;Node10</title>
<g id="a_edge12_Node000009_Node000010"><a xlink:title=" ">
<path fill="none" stroke="#63b8ff" d="M311.21,-113.09C323.49,-104.99 341.16,-93.33 355.43,-83.92"/>
<polygon fill="#63b8ff" stroke="#63b8ff" points="356.98,-87.09 363.4,-78.66 353.13,-81.25 356.98,-87.09"/>
</a>
</g>
</g>
<!-- Node11&#45;&gt;Node3 -->
<g id="edge15_Node000011_Node000003" class="edge">
<title>Node11&#45;&gt;Node3</title>
<g id="a_edge15_Node000011_Node000003"><a xlink:title=" ">
<path fill="none" stroke="#63b8ff" d="M662.25,-169.85C696.91,-158.84 740.66,-139.09 720.38,-113.5 670.83,-50.98 420.12,-23 323.46,-14.41"/>
<polygon fill="#63b8ff" stroke="#63b8ff" points="323.96,-10.95 313.7,-13.57 323.36,-17.92 323.96,-10.95"/>
</a>
</g>
</g>
<!-- Node12 -->
<g id="Node000012" class="node">
<title>Node12</title>
<g id="a_Node000012"><a xlink:title=" ">
<polygon fill="#e0e0e0" stroke="#999999" points="711.75,-134.25 659,-134.25 659,-113.5 711.75,-113.5 711.75,-134.25"/>
<text text-anchor="middle" x="685.38" y="-120.75" font-family="Helvetica,sans-Serif" font-size="10.00">limits.h</text>
</a>
</g>
</g>
<!-- Node11&#45;&gt;Node12 -->
<g id="edge16_Node000011_Node000012" class="edge">
<title>Node11&#45;&gt;Node12</title>
<g id="a_edge16_Node000011_Node000012"><a xlink:title=" ">
<path fill="none" stroke="#63b8ff" d="M636.1,-169.84C644.46,-162.21 656.29,-151.42 666.26,-142.32"/>
<polygon fill="#63b8ff" stroke="#63b8ff" points="668.6,-144.92 673.62,-135.6 663.88,-139.75 668.6,-144.92"/>
</a>
</g>
</g>
<!-- Node13 -->
<g id="Node000013" class="node">
<title>Node13</title>
<g id="a_Node000013"><a xlink:title=" ">
<polygon fill="#e0e0e0" stroke="#999999" points="541.5,-134.25 463.25,-134.25 463.25,-113.5 541.5,-113.5 541.5,-134.25"/>
<text text-anchor="middle" x="502.38" y="-120.75" font-family="Helvetica,sans-Serif" font-size="10.00">periph_cpu.h</text>
</a>
</g>
</g>
<!-- Node11&#45;&gt;Node13 -->
<g id="edge17_Node000011_Node000013" class="edge">
<title>Node11&#45;&gt;Node13</title>
<g id="a_edge17_Node000011_Node000013"><a xlink:title=" ">
<path fill="none" stroke="#63b8ff" d="M603.39,-169.84C584.23,-161.31 556.21,-148.84 534.54,-139.19"/>
<polygon fill="#63b8ff" stroke="#63b8ff" points="536.12,-136.06 525.56,-135.19 533.27,-142.46 536.12,-136.06"/>
</a>
</g>
</g>
<!-- Node14 -->
<g id="Node000014" class="node">
<title>Node14</title>
<g id="a_Node000014"><a xlink:title=" ">
<polygon fill="#e0e0e0" stroke="#999999" points="641,-134.25 559.75,-134.25 559.75,-113.5 641,-113.5 641,-134.25"/>
<text text-anchor="middle" x="600.38" y="-120.75" font-family="Helvetica,sans-Serif" font-size="10.00">periph_conf.h</text>
</a>
</g>
</g>
<!-- Node11&#45;&gt;Node14 -->
<g id="edge18_Node000011_Node000014" class="edge">
<title>Node11&#45;&gt;Node14</title>
<g id="a_edge18_Node000011_Node000014"><a xlink:title=" ">
<path fill="none" stroke="#63b8ff" d="M620.91,-169.84C617.74,-162.91 613.39,-153.37 609.5,-144.86"/>
<polygon fill="#63b8ff" stroke="#63b8ff" points="612.77,-143.6 605.43,-135.96 606.4,-146.51 612.77,-143.6"/>
</a>
</g>
</g>
<!-- Node15&#45;&gt;Node12 -->
<g id="edge20_Node000015_Node000012" class="edge">
<title>Node15&#45;&gt;Node12</title>
<g id="a_edge20_Node000015_Node000012"><a xlink:title=" ">
<path fill="none" stroke="#63b8ff" d="M557.26,-169.84C582.56,-160.96 620.06,-147.8 647.96,-138.01"/>
<polygon fill="#63b8ff" stroke="#63b8ff" points="648.8,-141.42 657.08,-134.81 646.49,-134.81 648.8,-141.42"/>
</a>
</g>
</g>
<!-- Node15&#45;&gt;Node13 -->
<g id="edge21_Node000015_Node000013" class="edge">
<title>Node15&#45;&gt;Node13</title>
<g id="a_edge21_Node000015_Node000013"><a xlink:title=" ">
<path fill="none" stroke="#63b8ff" d="M524.55,-169.84C521.13,-162.91 516.43,-153.37 512.23,-144.86"/>
<polygon fill="#63b8ff" stroke="#63b8ff" points="515.39,-143.36 507.83,-135.94 509.11,-146.45 515.39,-143.36"/>
</a>
</g>
</g>
<!-- Node15&#45;&gt;Node14 -->
<g id="edge22_Node000015_Node000014" class="edge">
<title>Node15&#45;&gt;Node14</title>
<g id="a_edge22_Node000015_Node000014"><a xlink:title=" ">
<path fill="none" stroke="#63b8ff" d="M542.07,-169.84C552.27,-161.97 566.82,-150.75 578.83,-141.49"/>
<polygon fill="#63b8ff" stroke="#63b8ff" points="580.81,-144.38 586.59,-135.5 576.54,-138.84 580.81,-144.38"/>
</a>
</g>
</g>
<!-- Node16&#45;&gt;Node3 -->
<g id="edge24_Node000016_Node000003" class="edge">
<title>Node16&#45;&gt;Node3</title>
<g id="a_edge24_Node000016_Node000003"><a xlink:title=" ">
<path fill="none" stroke="#63b8ff" d="M436.92,-170C439.99,-147.38 444.31,-90.23 416.38,-56.75 393.5,-29.34 353.16,-18.46 323.27,-14.16"/>
<polygon fill="#63b8ff" stroke="#63b8ff" points="323.84,-10.7 313.49,-12.95 322.99,-17.65 323.84,-10.7"/>
</a>
</g>
</g>
<!-- Node16&#45;&gt;Node10 -->
<g id="edge25_Node000016_Node000010" class="edge">
<title>Node16&#45;&gt;Node10</title>
<g id="a_edge25_Node000016_Node000010"><a xlink:title=" ">
<path fill="none" stroke="#63b8ff" d="M430.6,-170.12C421.51,-152.02 401.55,-112.28 389.41,-88.1"/>
<polygon fill="#63b8ff" stroke="#63b8ff" points="392.59,-86.64 384.98,-79.28 386.34,-89.78 392.59,-86.64"/>
</a>
</g>
</g>
<!-- Node16&#45;&gt;Node12 -->
<g id="edge26_Node000016_Node000012" class="edge">
<title>Node16&#45;&gt;Node12</title>
<g id="a_edge26_Node000016_Node000012"><a xlink:title=" ">
<path fill="none" stroke="#63b8ff" d="M471.92,-171.97C523.37,-161.18 614.02,-142.14 647.74,-134.68"/>
<polygon fill="#63b8ff" stroke="#63b8ff" points="648.21,-138.16 657.18,-132.53 646.66,-131.33 648.21,-138.16"/>
</a>
</g>
</g>
<!-- Node16&#45;&gt;Node13 -->
<g id="edge28_Node000016_Node000013" class="edge">
<title>Node16&#45;&gt;Node13</title>
<g id="a_edge28_Node000016_Node000013"><a xlink:title=" ">
<path fill="none" stroke="#63b8ff" d="M447.35,-169.84C456.88,-162.05 470.44,-150.97 481.71,-141.76"/>
<polygon fill="#63b8ff" stroke="#63b8ff" points="483.8,-144.57 489.33,-135.54 479.37,-139.15 483.8,-144.57"/>
</a>
</g>
</g>
<!-- Node16&#45;&gt;Node14 -->
<g id="edge27_Node000016_Node000014" class="edge">
<title>Node16&#45;&gt;Node14</title>
<g id="a_edge27_Node000016_Node000014"><a xlink:title=" ">
<path fill="none" stroke="#63b8ff" d="M464.87,-169.84C491.42,-161.03 530.67,-148 560.1,-138.24"/>
<polygon fill="#63b8ff" stroke="#63b8ff" points="561.03,-141.62 569.42,-135.15 558.82,-134.97 561.03,-141.62"/>
</a>
</g>
</g>
</g>
</svg>
