<?xml version="1.0" encoding="UTF-8" standalone="no"?>
<!DOCTYPE svg PUBLIC "-//W3C//DTD SVG 1.1//EN"
 "http://www.w3.org/Graphics/SVG/1.1/DTD/svg11.dtd">
<!-- Generated by graphviz version 12.1.1 (0)
 -->
<!-- Title: boards/mega&#45;xplained/include/gpio_params.h Pages: 1 -->
<svg width="554pt" height="212pt"
 viewBox="0.00 0.00 553.50 211.75" xmlns="http://www.w3.org/2000/svg" xmlns:xlink="http://www.w3.org/1999/xlink">
<g id="graph0" class="graph" transform="scale(1 1) rotate(0) translate(4 207.75)">
<title>boards/mega&#45;xplained/include/gpio_params.h</title>
<!-- Node1 -->
<g id="Node000001" class="node">
<title>Node1</title>
<g id="a_Node000001"><a xlink:title="Configuration of SAUL mapped GPIO pins.">
<polygon fill="#999999" stroke="#666666" points="247.75,-203.75 118.5,-203.75 118.5,-170.25 247.75,-170.25 247.75,-203.75"/>
<text text-anchor="start" x="126.5" y="-190.25" font-family="Helvetica,sans-Serif" font-size="10.00">boards/mega&#45;xplained</text>
<text text-anchor="middle" x="183.12" y="-177.5" font-family="Helvetica,sans-Serif" font-size="10.00">/include/gpio_params.h</text>
</a>
</g>
</g>
<!-- Node2 -->
<g id="Node000002" class="node">
<title>Node2</title>
<g id="a_Node000002"><a xlink:href="mega-xplained_2include_2board_8h_source.html" target="_top" xlink:title=" ">
<polygon fill="white" stroke="#666666" points="145.5,-134.25 92.75,-134.25 92.75,-113.5 145.5,-113.5 145.5,-134.25"/>
<text text-anchor="middle" x="119.12" y="-120.75" font-family="Helvetica,sans-Serif" font-size="10.00">board.h</text>
</a>
</g>
</g>
<!-- Node1&#45;&gt;Node2 -->
<g id="edge1_Node000001_Node000002" class="edge">
<title>Node1&#45;&gt;Node2</title>
<g id="a_edge1_Node000001_Node000002"><a xlink:title=" ">
<path fill="none" stroke="#63b8ff" d="M166.31,-169.94C157.53,-161.56 146.77,-151.28 137.74,-142.66"/>
<polygon fill="#63b8ff" stroke="#63b8ff" points="140.17,-140.14 130.52,-135.76 135.34,-145.2 140.17,-140.14"/>
</a>
</g>
</g>
<!-- Node6 -->
<g id="Node000006" class="node">
<title>Node6</title>
<g id="a_Node000006"><a xlink:href="periph_8h.html" target="_top" xlink:title="Parameter definitions for mapping peripherals directly to SAUL.">
<polygon fill="white" stroke="#666666" points="383.62,-134.25 304.62,-134.25 304.62,-113.5 383.62,-113.5 383.62,-134.25"/>
<text text-anchor="middle" x="344.12" y="-120.75" font-family="Helvetica,sans-Serif" font-size="10.00">saul/periph.h</text>
</a>
</g>
</g>
<!-- Node1&#45;&gt;Node6 -->
<g id="edge5_Node000001_Node000006" class="edge">
<title>Node1&#45;&gt;Node6</title>
<g id="a_edge5_Node000001_Node000006"><a xlink:title=" ">
<path fill="none" stroke="#63b8ff" d="M225.85,-169.78C251.38,-160.09 283.46,-147.91 307.77,-138.68"/>
<polygon fill="#63b8ff" stroke="#63b8ff" points="308.82,-142.02 316.92,-135.2 306.33,-135.48 308.82,-142.02"/>
</a>
</g>
</g>
<!-- Node3 -->
<g id="Node000003" class="node">
<title>Node3</title>
<g id="a_Node000003"><a xlink:title=" ">
<polygon fill="#e0e0e0" stroke="#999999" points="42.25,-77.5 0,-77.5 0,-56.75 42.25,-56.75 42.25,-77.5"/>
<text text-anchor="middle" x="21.12" y="-64" font-family="Helvetica,sans-Serif" font-size="10.00">cpu.h</text>
</a>
</g>
</g>
<!-- Node2&#45;&gt;Node3 -->
<g id="edge2_Node000002_Node000003" class="edge">
<title>Node2&#45;&gt;Node3</title>
<g id="a_edge2_Node000002_Node000003"><a xlink:title=" ">
<path fill="none" stroke="#63b8ff" d="M101.6,-113.09C86.83,-104.83 65.44,-92.88 48.43,-83.38"/>
<polygon fill="#63b8ff" stroke="#63b8ff" points="50.25,-80.39 39.82,-78.57 46.84,-86.5 50.25,-80.39"/>
</a>
</g>
</g>
<!-- Node4 -->
<g id="Node000004" class="node">
<title>Node4</title>
<g id="a_Node000004"><a xlink:title=" ">
<polygon fill="#e0e0e0" stroke="#999999" points="304.25,-20.75 226,-20.75 226,0 304.25,0 304.25,-20.75"/>
<text text-anchor="middle" x="265.12" y="-7.25" font-family="Helvetica,sans-Serif" font-size="10.00">periph_cpu.h</text>
</a>
</g>
</g>
<!-- Node2&#45;&gt;Node4 -->
<g id="edge3_Node000002_Node000004" class="edge">
<title>Node2&#45;&gt;Node4</title>
<g id="a_edge3_Node000002_Node000004"><a xlink:title=" ">
<path fill="none" stroke="#63b8ff" d="M108.64,-113.14C95.25,-99.53 75.38,-74.49 89.12,-56.75 104.4,-37.03 167.94,-24.36 214.3,-17.56"/>
<polygon fill="#63b8ff" stroke="#63b8ff" points="214.76,-21.03 224.18,-16.16 213.78,-14.09 214.76,-21.03"/>
</a>
</g>
</g>
<!-- Node5 -->
<g id="Node000005" class="node">
<title>Node5</title>
<g id="a_Node000005"><a xlink:href="mega-xplained__pinmap_8h.html" target="_top" xlink:title="Mapping from MCU pins to Mega Xplained pins.">
<polygon fill="white" stroke="#666666" points="238.38,-77.5 97.88,-77.5 97.88,-56.75 238.38,-56.75 238.38,-77.5"/>
<text text-anchor="middle" x="168.12" y="-64" font-family="Helvetica,sans-Serif" font-size="10.00">mega&#45;xplained_pinmap.h</text>
</a>
</g>
</g>
<!-- Node2&#45;&gt;Node5 -->
<g id="edge4_Node000002_Node000005" class="edge">
<title>Node2&#45;&gt;Node5</title>
<g id="a_edge4_Node000002_Node000005"><a xlink:title=" ">
<path fill="none" stroke="#63b8ff" d="M127.89,-113.09C134.57,-105.61 143.98,-95.11 152.01,-86.13"/>
<polygon fill="#63b8ff" stroke="#63b8ff" points="154.37,-88.74 158.43,-78.96 149.15,-84.07 154.37,-88.74"/>
</a>
</g>
</g>
<!-- Node7 -->
<g id="Node000007" class="node">
<title>Node7</title>
<g id="a_Node000007"><a xlink:href="drivers_2include_2periph_2gpio_8h.html" target="_top" xlink:title="Low&#45;level GPIO peripheral driver interface definitions.">
<polygon fill="white" stroke="#666666" points="336,-77.5 256.25,-77.5 256.25,-56.75 336,-56.75 336,-77.5"/>
<text text-anchor="middle" x="296.12" y="-64" font-family="Helvetica,sans-Serif" font-size="10.00">periph/gpio.h</text>
</a>
</g>
</g>
<!-- Node6&#45;&gt;Node7 -->
<g id="edge6_Node000006_Node000007" class="edge">
<title>Node6&#45;&gt;Node7</title>
<g id="a_edge6_Node000006_Node000007"><a xlink:title=" ">
<path fill="none" stroke="#63b8ff" d="M335.54,-113.09C329.06,-105.69 319.97,-95.32 312.15,-86.41"/>
<polygon fill="#63b8ff" stroke="#63b8ff" points="314.85,-84.18 305.63,-78.97 309.59,-88.79 314.85,-84.18"/>
</a>
</g>
</g>
<!-- Node10 -->
<g id="Node000010" class="node">
<title>Node10</title>
<g id="a_Node000010"><a xlink:href="adc_8h.html" target="_top" xlink:title="Low&#45;level ADC peripheral driver interface definitions.">
<polygon fill="white" stroke="#666666" points="430.12,-77.5 354.12,-77.5 354.12,-56.75 430.12,-56.75 430.12,-77.5"/>
<text text-anchor="middle" x="392.12" y="-64" font-family="Helvetica,sans-Serif" font-size="10.00">periph/adc.h</text>
</a>
</g>
</g>
<!-- Node6&#45;&gt;Node10 -->
<g id="edge10_Node000006_Node000010" class="edge">
<title>Node6&#45;&gt;Node10</title>
<g id="a_edge10_Node000006_Node000010"><a xlink:title=" ">
<path fill="none" stroke="#63b8ff" d="M352.71,-113.09C359.19,-105.69 368.28,-95.32 376.1,-86.41"/>
<polygon fill="#63b8ff" stroke="#63b8ff" points="378.66,-88.79 382.62,-78.97 373.4,-84.18 378.66,-88.79"/>
</a>
</g>
</g>
<!-- Node12 -->
<g id="Node000012" class="node">
<title>Node12</title>
<g id="a_Node000012"><a xlink:href="pwm_8h.html" target="_top" xlink:title="Low&#45;level PWM peripheral driver interface definitions.">
<polygon fill="white" stroke="#666666" points="530.5,-77.5 447.75,-77.5 447.75,-56.75 530.5,-56.75 530.5,-77.5"/>
<text text-anchor="middle" x="489.12" y="-64" font-family="Helvetica,sans-Serif" font-size="10.00">periph/pwm.h</text>
</a>
</g>
</g>
<!-- Node6&#45;&gt;Node12 -->
<g id="edge15_Node000006_Node000012" class="edge">
<title>Node6&#45;&gt;Node12</title>
<g id="a_edge15_Node000006_Node000012"><a xlink:title=" ">
<path fill="none" stroke="#63b8ff" d="M370.05,-113.09C393.14,-104.37 427.17,-91.52 452.94,-81.79"/>
<polygon fill="#63b8ff" stroke="#63b8ff" points="453.89,-85.17 462.01,-78.36 451.42,-78.62 453.89,-85.17"/>
</a>
</g>
</g>
<!-- Node7&#45;&gt;Node4 -->
<g id="edge8_Node000007_Node000004" class="edge">
<title>Node7&#45;&gt;Node4</title>
<g id="a_edge8_Node000007_Node000004"><a xlink:title=" ">
<path fill="none" stroke="#63b8ff" d="M290.58,-56.34C286.62,-49.33 281.14,-39.66 276.28,-31.08"/>
<polygon fill="#63b8ff" stroke="#63b8ff" points="279.34,-29.37 271.36,-22.4 273.25,-32.82 279.34,-29.37"/>
</a>
</g>
</g>
<!-- Node8 -->
<g id="Node000008" class="node">
<title>Node8</title>
<g id="a_Node000008"><a xlink:title=" ">
<polygon fill="#e0e0e0" stroke="#999999" points="375.5,-20.75 322.75,-20.75 322.75,0 375.5,0 375.5,-20.75"/>
<text text-anchor="middle" x="349.12" y="-7.25" font-family="Helvetica,sans-Serif" font-size="10.00">limits.h</text>
</a>
</g>
</g>
<!-- Node7&#45;&gt;Node8 -->
<g id="edge7_Node000007_Node000008" class="edge">
<title>Node7&#45;&gt;Node8</title>
<g id="a_edge7_Node000007_Node000008"><a xlink:title=" ">
<path fill="none" stroke="#63b8ff" d="M305.6,-56.34C312.91,-48.78 323.22,-38.14 331.97,-29.1"/>
<polygon fill="#63b8ff" stroke="#63b8ff" points="334.24,-31.79 338.68,-22.17 329.21,-26.92 334.24,-31.79"/>
</a>
</g>
</g>
<!-- Node9 -->
<g id="Node000009" class="node">
<title>Node9</title>
<g id="a_Node000009"><a xlink:title=" ">
<polygon fill="#e0e0e0" stroke="#999999" points="474.75,-20.75 393.5,-20.75 393.5,0 474.75,0 474.75,-20.75"/>
<text text-anchor="middle" x="434.12" y="-7.25" font-family="Helvetica,sans-Serif" font-size="10.00">periph_conf.h</text>
</a>
</g>
</g>
<!-- Node7&#45;&gt;Node9 -->
<g id="edge9_Node000007_Node000009" class="edge">
<title>Node7&#45;&gt;Node9</title>
<g id="a_edge9_Node000007_Node000009"><a xlink:title=" ">
<path fill="none" stroke="#63b8ff" d="M320.8,-56.34C342.58,-47.69 374.58,-35 399.03,-25.3"/>
<polygon fill="#63b8ff" stroke="#63b8ff" points="400.26,-28.58 408.26,-21.64 397.67,-22.07 400.26,-28.58"/>
</a>
</g>
</g>
<!-- Node10&#45;&gt;Node4 -->
<g id="edge13_Node000010_Node000004" class="edge">
<title>Node10&#45;&gt;Node4</title>
<g id="a_edge13_Node000010_Node000004"><a xlink:title=" ">
<path fill="none" stroke="#63b8ff" d="M369.42,-56.34C349.55,-47.77 320.45,-35.23 298.03,-25.56"/>
<polygon fill="#63b8ff" stroke="#63b8ff" points="299.59,-22.42 289.02,-21.68 296.82,-28.85 299.59,-22.42"/>
</a>
</g>
</g>
<!-- Node10&#45;&gt;Node8 -->
<g id="edge11_Node000010_Node000008" class="edge">
<title>Node10&#45;&gt;Node8</title>
<g id="a_edge11_Node000010_Node000008"><a xlink:title=" ">
<path fill="none" stroke="#63b8ff" d="M384.44,-56.34C378.69,-49.02 370.66,-38.79 363.71,-29.94"/>
<polygon fill="#63b8ff" stroke="#63b8ff" points="366.61,-27.97 357.68,-22.27 361.1,-32.3 366.61,-27.97"/>
</a>
</g>
</g>
<!-- Node10&#45;&gt;Node9 -->
<g id="edge14_Node000010_Node000009" class="edge">
<title>Node10&#45;&gt;Node9</title>
<g id="a_edge14_Node000010_Node000009"><a xlink:title=" ">
<path fill="none" stroke="#63b8ff" d="M399.63,-56.34C405.25,-49.02 413.09,-38.79 419.88,-29.94"/>
<polygon fill="#63b8ff" stroke="#63b8ff" points="422.45,-32.34 425.76,-22.28 416.9,-28.08 422.45,-32.34"/>
</a>
</g>
</g>
<!-- Node11 -->
<g id="Node000011" class="node">
<title>Node11</title>
<g id="a_Node000011"><a xlink:title=" ">
<polygon fill="#e0e0e0" stroke="#999999" points="545.5,-20.75 492.75,-20.75 492.75,0 545.5,0 545.5,-20.75"/>
<text text-anchor="middle" x="519.12" y="-7.25" font-family="Helvetica,sans-Serif" font-size="10.00">stdint.h</text>
</a>
</g>
</g>
<!-- Node10&#45;&gt;Node11 -->
<g id="edge12_Node000010_Node000011" class="edge">
<title>Node10&#45;&gt;Node11</title>
<g id="a_edge12_Node000010_Node000011"><a xlink:title=" ">
<path fill="none" stroke="#63b8ff" d="M414.83,-56.34C434.7,-47.77 463.8,-35.23 486.22,-25.56"/>
<polygon fill="#63b8ff" stroke="#63b8ff" points="487.43,-28.85 495.23,-21.68 484.66,-22.42 487.43,-28.85"/>
</a>
</g>
</g>
<!-- Node12&#45;&gt;Node4 -->
<g id="edge18_Node000012_Node000004" class="edge">
<title>Node12&#45;&gt;Node4</title>
<g id="a_edge18_Node000012_Node000004"><a xlink:title=" ">
<path fill="none" stroke="#63b8ff" d="M448.82,-56.27C411.6,-47.18 356.14,-33.62 315.91,-23.79"/>
<polygon fill="#63b8ff" stroke="#63b8ff" points="316.75,-20.39 306.2,-21.41 315.08,-27.19 316.75,-20.39"/>
</a>
</g>
</g>
<!-- Node12&#45;&gt;Node8 -->
<g id="edge17_Node000012_Node000008" class="edge">
<title>Node12&#45;&gt;Node8</title>
<g id="a_edge17_Node000012_Node000008"><a xlink:title=" ">
<path fill="none" stroke="#63b8ff" d="M464.1,-56.34C441.9,-47.66 409.24,-34.88 384.39,-25.17"/>
<polygon fill="#63b8ff" stroke="#63b8ff" points="385.94,-22.01 375.35,-21.63 383.39,-28.53 385.94,-22.01"/>
</a>
</g>
</g>
<!-- Node12&#45;&gt;Node9 -->
<g id="edge19_Node000012_Node000009" class="edge">
<title>Node12&#45;&gt;Node9</title>
<g id="a_edge19_Node000012_Node000009"><a xlink:title=" ">
<path fill="none" stroke="#63b8ff" d="M479.29,-56.34C471.71,-48.78 461.01,-38.14 451.93,-29.1"/>
<polygon fill="#63b8ff" stroke="#63b8ff" points="454.5,-26.72 444.95,-22.15 449.56,-31.68 454.5,-26.72"/>
</a>
</g>
</g>
<!-- Node12&#45;&gt;Node11 -->
<g id="edge16_Node000012_Node000011" class="edge">
<title>Node12&#45;&gt;Node11</title>
<g id="a_edge16_Node000012_Node000011"><a xlink:title=" ">
<path fill="none" stroke="#63b8ff" d="M494.49,-56.34C498.33,-49.33 503.63,-39.66 508.33,-31.08"/>
<polygon fill="#63b8ff" stroke="#63b8ff" points="511.34,-32.86 513.08,-22.41 505.21,-29.49 511.34,-32.86"/>
</a>
</g>
</g>
</g>
</svg>
