<?xml version="1.0" encoding="UTF-8" standalone="no"?>
<!DOCTYPE svg PUBLIC "-//W3C//DTD SVG 1.1//EN"
 "http://www.w3.org/Graphics/SVG/1.1/DTD/svg11.dtd">
<!-- Generated by graphviz version 12.1.1 (0)
 -->
<!-- Title: drivers/mfrc522/include/mfrc522_regs.h Pages: 1 -->
<svg width="147pt" height="155pt"
 viewBox="0.00 0.00 146.62 155.00" xmlns="http://www.w3.org/2000/svg" xmlns:xlink="http://www.w3.org/1999/xlink">
<g id="graph0" class="graph" transform="scale(1 1) rotate(0) translate(4 151)">
<title>drivers/mfrc522/include/mfrc522_regs.h</title>
<!-- Node1 -->
<g id="Node000001" class="node">
<title>Node1</title>
<g id="a_Node000001"><a xlink:title="Register definitions for the MFRC522 controller.">
<polygon fill="#999999" stroke="#666666" points="131.5,-147 0,-147 0,-113.5 131.5,-113.5 131.5,-147"/>
<text text-anchor="start" x="8" y="-133.5" font-family="Helvetica,sans-Serif" font-size="10.00">drivers/mfrc522/include</text>
<text text-anchor="middle" x="65.75" y="-120.75" font-family="Helvetica,sans-Serif" font-size="10.00">/mfrc522_regs.h</text>
</a>
</g>
</g>
<!-- Node2 -->
<g id="Node000002" class="node">
<title>Node2</title>
<g id="a_Node000002"><a xlink:href="bitarithm_8h.html" target="_top" xlink:title="Helper functions for bit arithmetic.">
<polygon fill="white" stroke="#666666" points="100.75,-77.5 30.75,-77.5 30.75,-56.75 100.75,-56.75 100.75,-77.5"/>
<text text-anchor="middle" x="65.75" y="-64" font-family="Helvetica,sans-Serif" font-size="10.00">bitarithm.h</text>
</a>
</g>
</g>
<!-- Node1&#45;&gt;Node2 -->
<g id="edge1_Node000001_Node000002" class="edge">
<title>Node1&#45;&gt;Node2</title>
<g id="a_edge1_Node000001_Node000002"><a xlink:title=" ">
<path fill="none" stroke="#63b8ff" d="M65.75,-113.19C65.75,-105.85 65.75,-97.07 65.75,-89.21"/>
<polygon fill="#63b8ff" stroke="#63b8ff" points="69.25,-89.48 65.75,-79.48 62.25,-89.48 69.25,-89.48"/>
</a>
</g>
</g>
<!-- Node3 -->
<g id="Node000003" class="node">
<title>Node3</title>
<g id="a_Node000003"><a xlink:title=" ">
<polygon fill="#e0e0e0" stroke="#999999" points="53.12,-20.75 0.38,-20.75 0.38,0 53.12,0 53.12,-20.75"/>
<text text-anchor="middle" x="26.75" y="-7.25" font-family="Helvetica,sans-Serif" font-size="10.00">stdint.h</text>
</a>
</g>
</g>
<!-- Node2&#45;&gt;Node3 -->
<g id="edge2_Node000002_Node000003" class="edge">
<title>Node2&#45;&gt;Node3</title>
<g id="a_edge2_Node000002_Node000003"><a xlink:title=" ">
<path fill="none" stroke="#63b8ff" d="M58.78,-56.34C53.62,-49.1 46.43,-39.01 40.18,-30.22"/>
<polygon fill="#63b8ff" stroke="#63b8ff" points="43.19,-28.43 34.54,-22.31 37.49,-32.49 43.19,-28.43"/>
</a>
</g>
</g>
<!-- Node4 -->
<g id="Node000004" class="node">
<title>Node4</title>
<g id="a_Node000004"><a xlink:title=" ">
<polygon fill="#e0e0e0" stroke="#999999" points="138.62,-20.75 70.88,-20.75 70.88,0 138.62,0 138.62,-20.75"/>
<text text-anchor="middle" x="104.75" y="-7.25" font-family="Helvetica,sans-Serif" font-size="10.00">cpu_conf.h</text>
</a>
</g>
</g>
<!-- Node2&#45;&gt;Node4 -->
<g id="edge3_Node000002_Node000004" class="edge">
<title>Node2&#45;&gt;Node4</title>
<g id="a_edge3_Node000002_Node000004"><a xlink:title=" ">
<path fill="none" stroke="#63b8ff" d="M72.72,-56.34C77.88,-49.1 85.07,-39.01 91.32,-30.22"/>
<polygon fill="#63b8ff" stroke="#63b8ff" points="94.01,-32.49 96.96,-22.31 88.31,-28.43 94.01,-32.49"/>
</a>
</g>
</g>
</g>
</svg>
