<?xml version="1.0" encoding="UTF-8" standalone="no"?>
<!DOCTYPE svg PUBLIC "-//W3C//DTD SVG 1.1//EN"
 "http://www.w3.org/Graphics/SVG/1.1/DTD/svg11.dtd">
<!-- Generated by graphviz version 12.1.1 (0)
 -->
<!-- Title: drivers/mma7660/include/mma7660_params.h Pages: 1 -->
<svg width="575pt" height="212pt"
 viewBox="0.00 0.00 574.88 211.75" xmlns="http://www.w3.org/2000/svg" xmlns:xlink="http://www.w3.org/1999/xlink">
<g id="graph0" class="graph" transform="scale(1 1) rotate(0) translate(4 207.75)">
<title>drivers/mma7660/include/mma7660_params.h</title>
<!-- Node1 -->
<g id="Node000001" class="node">
<title>Node1</title>
<g id="a_Node000001"><a xlink:title="Default configuration for MMA7660 accelerometer.">
<polygon fill="#999999" stroke="#666666" points="289,-203.75 148.5,-203.75 148.5,-170.25 289,-170.25 289,-203.75"/>
<text text-anchor="start" x="156.5" y="-190.25" font-family="Helvetica,sans-Serif" font-size="10.00">drivers/mma7660/include</text>
<text text-anchor="middle" x="218.75" y="-177.5" font-family="Helvetica,sans-Serif" font-size="10.00">/mma7660_params.h</text>
</a>
</g>
</g>
<!-- Node2 -->
<g id="Node000002" class="node">
<title>Node2</title>
<g id="a_Node000002"><a xlink:title=" ">
<polygon fill="#e0e0e0" stroke="#999999" points="167.12,-134.25 114.38,-134.25 114.38,-113.5 167.12,-113.5 167.12,-134.25"/>
<text text-anchor="middle" x="140.75" y="-120.75" font-family="Helvetica,sans-Serif" font-size="10.00">board.h</text>
</a>
</g>
</g>
<!-- Node1&#45;&gt;Node2 -->
<g id="edge1_Node000001_Node000002" class="edge">
<title>Node1&#45;&gt;Node2</title>
<g id="a_edge1_Node000001_Node000002"><a xlink:title=" ">
<path fill="none" stroke="#63b8ff" d="M198.26,-169.94C187.11,-161.21 173.35,-150.42 162.08,-141.59"/>
<polygon fill="#63b8ff" stroke="#63b8ff" points="164.53,-139.06 154.5,-135.65 160.21,-144.57 164.53,-139.06"/>
</a>
</g>
</g>
<!-- Node3 -->
<g id="Node000003" class="node">
<title>Node3</title>
<g id="a_Node000003"><a xlink:href="saul__reg_8h.html" target="_top" xlink:title="SAUL registry interface definition.">
<polygon fill="white" stroke="#666666" points="251.88,-134.25 185.62,-134.25 185.62,-113.5 251.88,-113.5 251.88,-134.25"/>
<text text-anchor="middle" x="218.75" y="-120.75" font-family="Helvetica,sans-Serif" font-size="10.00">saul_reg.h</text>
</a>
</g>
</g>
<!-- Node1&#45;&gt;Node3 -->
<g id="edge2_Node000001_Node000003" class="edge">
<title>Node1&#45;&gt;Node3</title>
<g id="a_edge2_Node000001_Node000003"><a xlink:title=" ">
<path fill="none" stroke="#63b8ff" d="M218.75,-169.94C218.75,-162.6 218.75,-153.82 218.75,-145.96"/>
<polygon fill="#63b8ff" stroke="#63b8ff" points="222.25,-146.23 218.75,-136.23 215.25,-146.23 222.25,-146.23"/>
</a>
</g>
</g>
<!-- Node10 -->
<g id="Node000010" class="node">
<title>Node10</title>
<g id="a_Node000010"><a xlink:href="mma7660_8h.html" target="_top" xlink:title="Interface definition for the MMA7660 accelerometer driver.">
<polygon fill="white" stroke="#666666" points="344,-134.25 269.5,-134.25 269.5,-113.5 344,-113.5 344,-134.25"/>
<text text-anchor="middle" x="306.75" y="-120.75" font-family="Helvetica,sans-Serif" font-size="10.00">mma7660.h</text>
</a>
</g>
</g>
<!-- Node1&#45;&gt;Node10 -->
<g id="edge10_Node000001_Node000010" class="edge">
<title>Node1&#45;&gt;Node10</title>
<g id="a_edge10_Node000001_Node000010"><a xlink:title=" ">
<path fill="none" stroke="#63b8ff" d="M241.87,-169.94C254.69,-161.03 270.6,-149.99 283.45,-141.06"/>
<polygon fill="#63b8ff" stroke="#63b8ff" points="285.12,-144.16 291.34,-135.58 281.13,-138.41 285.12,-144.16"/>
</a>
</g>
</g>
<!-- Node4 -->
<g id="Node000004" class="node">
<title>Node4</title>
<g id="a_Node000004"><a xlink:title=" ">
<polygon fill="#e0e0e0" stroke="#999999" points="300.12,-20.75 247.38,-20.75 247.38,0 300.12,0 300.12,-20.75"/>
<text text-anchor="middle" x="273.75" y="-7.25" font-family="Helvetica,sans-Serif" font-size="10.00">stdint.h</text>
</a>
</g>
</g>
<!-- Node3&#45;&gt;Node4 -->
<g id="edge3_Node000003_Node000004" class="edge">
<title>Node3&#45;&gt;Node4</title>
<g id="a_edge3_Node000003_Node000004"><a xlink:title=" ">
<path fill="none" stroke="#63b8ff" d="M223.44,-113.37C232.36,-95.27 251.97,-55.53 263.9,-31.35"/>
<polygon fill="#63b8ff" stroke="#63b8ff" points="266.96,-33.05 268.25,-22.53 260.68,-29.95 266.96,-33.05"/>
</a>
</g>
</g>
<!-- Node5 -->
<g id="Node000005" class="node">
<title>Node5</title>
<g id="a_Node000005"><a xlink:title=" ">
<polygon fill="#e0e0e0" stroke="#999999" points="215.38,-77.5 170.12,-77.5 170.12,-56.75 215.38,-56.75 215.38,-77.5"/>
<text text-anchor="middle" x="192.75" y="-64" font-family="Helvetica,sans-Serif" font-size="10.00">saul.h</text>
</a>
</g>
</g>
<!-- Node3&#45;&gt;Node5 -->
<g id="edge4_Node000003_Node000005" class="edge">
<title>Node3&#45;&gt;Node5</title>
<g id="a_edge4_Node000003_Node000005"><a xlink:title=" ">
<path fill="none" stroke="#63b8ff" d="M214.1,-113.09C210.81,-106.16 206.28,-96.62 202.24,-88.11"/>
<polygon fill="#63b8ff" stroke="#63b8ff" points="205.46,-86.73 198.01,-79.2 199.14,-89.73 205.46,-86.73"/>
</a>
</g>
</g>
<!-- Node6 -->
<g id="Node000006" class="node">
<title>Node6</title>
<g id="a_Node000006"><a xlink:href="phydat_8h.html" target="_top" xlink:title="Generic data container for physical data interface.">
<polygon fill="white" stroke="#666666" points="152.12,-77.5 93.38,-77.5 93.38,-56.75 152.12,-56.75 152.12,-77.5"/>
<text text-anchor="middle" x="122.75" y="-64" font-family="Helvetica,sans-Serif" font-size="10.00">phydat.h</text>
</a>
</g>
</g>
<!-- Node3&#45;&gt;Node6 -->
<g id="edge5_Node000003_Node000006" class="edge">
<title>Node3&#45;&gt;Node6</title>
<g id="a_edge5_Node000003_Node000006"><a xlink:title=" ">
<path fill="none" stroke="#63b8ff" d="M201.59,-113.09C187.12,-104.83 166.16,-92.88 149.49,-83.38"/>
<polygon fill="#63b8ff" stroke="#63b8ff" points="151.5,-80.49 141.08,-78.58 148.03,-86.57 151.5,-80.49"/>
</a>
</g>
</g>
<!-- Node6&#45;&gt;Node4 -->
<g id="edge7_Node000006_Node000004" class="edge">
<title>Node6&#45;&gt;Node4</title>
<g id="a_edge7_Node000006_Node000004"><a xlink:title=" ">
<path fill="none" stroke="#63b8ff" d="M149.75,-56.34C173.9,-47.58 209.55,-34.65 236.43,-24.91"/>
<polygon fill="#63b8ff" stroke="#63b8ff" points="237.36,-28.29 245.57,-21.59 234.97,-21.71 237.36,-28.29"/>
</a>
</g>
</g>
<!-- Node7 -->
<g id="Node000007" class="node">
<title>Node7</title>
<g id="a_Node000007"><a xlink:title=" ">
<polygon fill="#e0e0e0" stroke="#999999" points="229.25,-20.75 174.25,-20.75 174.25,0 229.25,0 229.25,-20.75"/>
<text text-anchor="middle" x="201.75" y="-7.25" font-family="Helvetica,sans-Serif" font-size="10.00">stddef.h</text>
</a>
</g>
</g>
<!-- Node6&#45;&gt;Node7 -->
<g id="edge6_Node000006_Node000007" class="edge">
<title>Node6&#45;&gt;Node7</title>
<g id="a_edge6_Node000006_Node000007"><a xlink:title=" ">
<path fill="none" stroke="#63b8ff" d="M136.87,-56.34C148.44,-48.32 165.05,-36.81 178.57,-27.44"/>
<polygon fill="#63b8ff" stroke="#63b8ff" points="180.28,-30.51 186.5,-21.94 176.29,-24.76 180.28,-30.51"/>
</a>
</g>
</g>
<!-- Node8 -->
<g id="Node000008" class="node">
<title>Node8</title>
<g id="a_Node000008"><a xlink:title=" ">
<polygon fill="#e0e0e0" stroke="#999999" points="71.5,-20.75 0,-20.75 0,0 71.5,0 71.5,-20.75"/>
<text text-anchor="middle" x="35.75" y="-7.25" font-family="Helvetica,sans-Serif" font-size="10.00">sys/types.h</text>
</a>
</g>
</g>
<!-- Node6&#45;&gt;Node8 -->
<g id="edge8_Node000006_Node000008" class="edge">
<title>Node6&#45;&gt;Node8</title>
<g id="a_edge8_Node000006_Node000008"><a xlink:title=" ">
<path fill="none" stroke="#63b8ff" d="M107.2,-56.34C94.33,-48.24 75.81,-36.58 60.84,-27.17"/>
<polygon fill="#63b8ff" stroke="#63b8ff" points="62.78,-24.25 52.45,-21.88 59.05,-30.17 62.78,-24.25"/>
</a>
</g>
</g>
<!-- Node9 -->
<g id="Node000009" class="node">
<title>Node9</title>
<g id="a_Node000009"><a xlink:href="modules_8h.html" target="_top" xlink:title="Common macros and compiler attributes/pragmas configuration.">
<polygon fill="white" stroke="#666666" points="156.25,-20.75 89.25,-20.75 89.25,0 156.25,0 156.25,-20.75"/>
<text text-anchor="middle" x="122.75" y="-7.25" font-family="Helvetica,sans-Serif" font-size="10.00">modules.h</text>
</a>
</g>
</g>
<!-- Node6&#45;&gt;Node9 -->
<g id="edge9_Node000006_Node000009" class="edge">
<title>Node6&#45;&gt;Node9</title>
<g id="a_edge9_Node000006_Node000009"><a xlink:title=" ">
<path fill="none" stroke="#63b8ff" d="M122.75,-56.34C122.75,-49.72 122.75,-40.72 122.75,-32.52"/>
<polygon fill="#63b8ff" stroke="#63b8ff" points="126.25,-32.59 122.75,-22.59 119.25,-32.59 126.25,-32.59"/>
</a>
</g>
</g>
<!-- Node10&#45;&gt;Node4 -->
<g id="edge11_Node000010_Node000004" class="edge">
<title>Node10&#45;&gt;Node4</title>
<g id="a_edge11_Node000010_Node000004"><a xlink:title=" ">
<path fill="none" stroke="#63b8ff" d="M303.94,-113.37C298.63,-95.44 287.03,-56.25 279.86,-32.01"/>
<polygon fill="#63b8ff" stroke="#63b8ff" points="283.27,-31.22 277.08,-22.63 276.56,-33.21 283.27,-31.22"/>
</a>
</g>
</g>
<!-- Node11 -->
<g id="Node000011" class="node">
<title>Node11</title>
<g id="a_Node000011"><a xlink:title=" ">
<polygon fill="#e0e0e0" stroke="#999999" points="462.25,-77.5 401.25,-77.5 401.25,-56.75 462.25,-56.75 462.25,-77.5"/>
<text text-anchor="middle" x="431.75" y="-64" font-family="Helvetica,sans-Serif" font-size="10.00">stdbool.h</text>
</a>
</g>
</g>
<!-- Node10&#45;&gt;Node11 -->
<g id="edge12_Node000010_Node000011" class="edge">
<title>Node10&#45;&gt;Node11</title>
<g id="a_edge12_Node000010_Node000011"><a xlink:title=" ">
<path fill="none" stroke="#63b8ff" d="M329.1,-113.09C348.56,-104.56 377.04,-92.09 399.06,-82.44"/>
<polygon fill="#63b8ff" stroke="#63b8ff" points="400.45,-85.65 408.21,-78.44 397.65,-79.24 400.45,-85.65"/>
</a>
</g>
</g>
<!-- Node12 -->
<g id="Node000012" class="node">
<title>Node12</title>
<g id="a_Node000012"><a xlink:href="i2c_8h.html" target="_top" xlink:title="Low&#45;level I2C peripheral driver interface definition.">
<polygon fill="white" stroke="#666666" points="383.25,-77.5 310.25,-77.5 310.25,-56.75 383.25,-56.75 383.25,-77.5"/>
<text text-anchor="middle" x="346.75" y="-64" font-family="Helvetica,sans-Serif" font-size="10.00">periph/i2c.h</text>
</a>
</g>
</g>
<!-- Node10&#45;&gt;Node12 -->
<g id="edge13_Node000010_Node000012" class="edge">
<title>Node10&#45;&gt;Node12</title>
<g id="a_edge13_Node000010_Node000012"><a xlink:title=" ">
<path fill="none" stroke="#63b8ff" d="M313.9,-113.09C319.19,-105.85 326.56,-95.76 332.98,-86.97"/>
<polygon fill="#63b8ff" stroke="#63b8ff" points="335.69,-89.19 338.77,-79.05 330.04,-85.06 335.69,-89.19"/>
</a>
</g>
</g>
<!-- Node12&#45;&gt;Node4 -->
<g id="edge14_Node000012_Node000004" class="edge">
<title>Node12&#45;&gt;Node4</title>
<g id="a_edge14_Node000012_Node000004"><a xlink:title=" ">
<path fill="none" stroke="#63b8ff" d="M333.7,-56.34C323.11,-48.4 307.96,-37.03 295.53,-27.71"/>
<polygon fill="#63b8ff" stroke="#63b8ff" points="298,-25.19 287.9,-21.99 293.8,-30.79 298,-25.19"/>
</a>
</g>
</g>
<!-- Node12&#45;&gt;Node7 -->
<g id="edge15_Node000012_Node000007" class="edge">
<title>Node12&#45;&gt;Node7</title>
<g id="a_edge15_Node000012_Node000007"><a xlink:title=" ">
<path fill="none" stroke="#63b8ff" d="M320.83,-56.34C297.73,-47.62 263.71,-34.77 237.93,-25.04"/>
<polygon fill="#63b8ff" stroke="#63b8ff" points="239.46,-21.87 228.86,-21.61 236.98,-28.42 239.46,-21.87"/>
</a>
</g>
</g>
<!-- Node13 -->
<g id="Node000013" class="node">
<title>Node13</title>
<g id="a_Node000013"><a xlink:title=" ">
<polygon fill="#e0e0e0" stroke="#999999" points="371.12,-20.75 318.38,-20.75 318.38,0 371.12,0 371.12,-20.75"/>
<text text-anchor="middle" x="344.75" y="-7.25" font-family="Helvetica,sans-Serif" font-size="10.00">limits.h</text>
</a>
</g>
</g>
<!-- Node12&#45;&gt;Node13 -->
<g id="edge16_Node000012_Node000013" class="edge">
<title>Node12&#45;&gt;Node13</title>
<g id="a_edge16_Node000012_Node000013"><a xlink:title=" ">
<path fill="none" stroke="#63b8ff" d="M346.39,-56.34C346.15,-49.72 345.82,-40.72 345.52,-32.52"/>
<polygon fill="#63b8ff" stroke="#63b8ff" points="349.02,-32.46 345.16,-22.59 342.03,-32.71 349.02,-32.46"/>
</a>
</g>
</g>
<!-- Node14 -->
<g id="Node000014" class="node">
<title>Node14</title>
<g id="a_Node000014"><a xlink:title=" ">
<polygon fill="#e0e0e0" stroke="#999999" points="470.38,-20.75 389.12,-20.75 389.12,0 470.38,0 470.38,-20.75"/>
<text text-anchor="middle" x="429.75" y="-7.25" font-family="Helvetica,sans-Serif" font-size="10.00">periph_conf.h</text>
</a>
</g>
</g>
<!-- Node12&#45;&gt;Node14 -->
<g id="edge17_Node000012_Node000014" class="edge">
<title>Node12&#45;&gt;Node14</title>
<g id="a_edge17_Node000012_Node000014"><a xlink:title=" ">
<path fill="none" stroke="#63b8ff" d="M361.59,-56.34C373.86,-48.24 391.54,-36.58 405.81,-27.17"/>
<polygon fill="#63b8ff" stroke="#63b8ff" points="407.36,-30.34 413.78,-21.91 403.5,-24.5 407.36,-30.34"/>
</a>
</g>
</g>
<!-- Node15 -->
<g id="Node000015" class="node">
<title>Node15</title>
<g id="a_Node000015"><a xlink:title=" ">
<polygon fill="#e0e0e0" stroke="#999999" points="566.88,-20.75 488.62,-20.75 488.62,0 566.88,0 566.88,-20.75"/>
<text text-anchor="middle" x="527.75" y="-7.25" font-family="Helvetica,sans-Serif" font-size="10.00">periph_cpu.h</text>
</a>
</g>
</g>
<!-- Node12&#45;&gt;Node15 -->
<g id="edge18_Node000012_Node000015" class="edge">
<title>Node12&#45;&gt;Node15</title>
<g id="a_edge18_Node000012_Node000015"><a xlink:title=" ">
<path fill="none" stroke="#63b8ff" d="M379.11,-56.34C408.49,-47.45 452.05,-34.27 484.42,-24.48"/>
<polygon fill="#63b8ff" stroke="#63b8ff" points="485.36,-27.85 493.92,-21.61 483.33,-21.15 485.36,-27.85"/>
</a>
</g>
</g>
</g>
</svg>
