<?xml version="1.0" encoding="UTF-8" standalone="no"?>
<!DOCTYPE svg PUBLIC "-//W3C//DTD SVG 1.1//EN"
 "http://www.w3.org/Graphics/SVG/1.1/DTD/svg11.dtd">
<!-- Generated by graphviz version 12.1.1 (0)
 -->
<!-- Title: drivers/include/mpu9x50.h Pages: 1 -->
<svg width="401pt" height="142pt"
 viewBox="0.00 0.00 400.50 142.25" xmlns="http://www.w3.org/2000/svg" xmlns:xlink="http://www.w3.org/1999/xlink">
<g id="graph0" class="graph" transform="scale(1 1) rotate(0) translate(4 138.25)">
<title>drivers/include/mpu9x50.h</title>
<!-- Node1 -->
<g id="Node000001" class="node">
<title>Node1</title>
<g id="a_Node000001"><a xlink:title="Device driver interface for the MPU&#45;9X50 (MPU9150 and MPU9250)">
<polygon fill="#999999" stroke="#666666" points="243.25,-134.25 97.5,-134.25 97.5,-113.5 243.25,-113.5 243.25,-134.25"/>
<text text-anchor="middle" x="170.38" y="-120.75" font-family="Helvetica,sans-Serif" font-size="10.00">drivers/include/mpu9x50.h</text>
</a>
</g>
</g>
<!-- Node2 -->
<g id="Node000002" class="node">
<title>Node2</title>
<g id="a_Node000002"><a xlink:href="i2c_8h.html" target="_top" xlink:title="Low&#45;level I2C peripheral driver interface definition.">
<polygon fill="white" stroke="#666666" points="206.88,-77.5 133.88,-77.5 133.88,-56.75 206.88,-56.75 206.88,-77.5"/>
<text text-anchor="middle" x="170.38" y="-64" font-family="Helvetica,sans-Serif" font-size="10.00">periph/i2c.h</text>
</a>
</g>
</g>
<!-- Node1&#45;&gt;Node2 -->
<g id="edge1_Node000001_Node000002" class="edge">
<title>Node1&#45;&gt;Node2</title>
<g id="a_edge1_Node000001_Node000002"><a xlink:title=" ">
<path fill="none" stroke="#63b8ff" d="M170.38,-113.09C170.38,-106.47 170.38,-97.47 170.38,-89.27"/>
<polygon fill="#63b8ff" stroke="#63b8ff" points="173.88,-89.34 170.38,-79.34 166.88,-89.34 173.88,-89.34"/>
</a>
</g>
</g>
<!-- Node3 -->
<g id="Node000003" class="node">
<title>Node3</title>
<g id="a_Node000003"><a xlink:title=" ">
<polygon fill="#e0e0e0" stroke="#999999" points="52.75,-20.75 0,-20.75 0,0 52.75,0 52.75,-20.75"/>
<text text-anchor="middle" x="26.38" y="-7.25" font-family="Helvetica,sans-Serif" font-size="10.00">stdint.h</text>
</a>
</g>
</g>
<!-- Node2&#45;&gt;Node3 -->
<g id="edge2_Node000002_Node000003" class="edge">
<title>Node2&#45;&gt;Node3</title>
<g id="a_edge2_Node000002_Node000003"><a xlink:title=" ">
<path fill="none" stroke="#63b8ff" d="M144.63,-56.34C121.8,-47.66 88.2,-34.88 62.65,-25.17"/>
<polygon fill="#63b8ff" stroke="#63b8ff" points="63.9,-21.9 53.31,-21.62 61.41,-28.44 63.9,-21.9"/>
</a>
</g>
</g>
<!-- Node4 -->
<g id="Node000004" class="node">
<title>Node4</title>
<g id="a_Node000004"><a xlink:title=" ">
<polygon fill="#e0e0e0" stroke="#999999" points="125.88,-20.75 70.88,-20.75 70.88,0 125.88,0 125.88,-20.75"/>
<text text-anchor="middle" x="98.38" y="-7.25" font-family="Helvetica,sans-Serif" font-size="10.00">stddef.h</text>
</a>
</g>
</g>
<!-- Node2&#45;&gt;Node4 -->
<g id="edge3_Node000002_Node000004" class="edge">
<title>Node2&#45;&gt;Node4</title>
<g id="a_edge3_Node000002_Node000004"><a xlink:title=" ">
<path fill="none" stroke="#63b8ff" d="M157.5,-56.34C147.16,-48.47 132.41,-37.25 120.22,-27.99"/>
<polygon fill="#63b8ff" stroke="#63b8ff" points="122.42,-25.26 112.34,-21.99 118.18,-30.83 122.42,-25.26"/>
</a>
</g>
</g>
<!-- Node5 -->
<g id="Node000005" class="node">
<title>Node5</title>
<g id="a_Node000005"><a xlink:title=" ">
<polygon fill="#e0e0e0" stroke="#999999" points="196.75,-20.75 144,-20.75 144,0 196.75,0 196.75,-20.75"/>
<text text-anchor="middle" x="170.38" y="-7.25" font-family="Helvetica,sans-Serif" font-size="10.00">limits.h</text>
</a>
</g>
</g>
<!-- Node2&#45;&gt;Node5 -->
<g id="edge4_Node000002_Node000005" class="edge">
<title>Node2&#45;&gt;Node5</title>
<g id="a_edge4_Node000002_Node000005"><a xlink:title=" ">
<path fill="none" stroke="#63b8ff" d="M170.38,-56.34C170.38,-49.72 170.38,-40.72 170.38,-32.52"/>
<polygon fill="#63b8ff" stroke="#63b8ff" points="173.88,-32.59 170.38,-22.59 166.88,-32.59 173.88,-32.59"/>
</a>
</g>
</g>
<!-- Node6 -->
<g id="Node000006" class="node">
<title>Node6</title>
<g id="a_Node000006"><a xlink:title=" ">
<polygon fill="#e0e0e0" stroke="#999999" points="296,-20.75 214.75,-20.75 214.75,0 296,0 296,-20.75"/>
<text text-anchor="middle" x="255.38" y="-7.25" font-family="Helvetica,sans-Serif" font-size="10.00">periph_conf.h</text>
</a>
</g>
</g>
<!-- Node2&#45;&gt;Node6 -->
<g id="edge5_Node000002_Node000006" class="edge">
<title>Node2&#45;&gt;Node6</title>
<g id="a_edge5_Node000002_Node000006"><a xlink:title=" ">
<path fill="none" stroke="#63b8ff" d="M185.57,-56.34C198.14,-48.24 216.24,-36.58 230.86,-27.17"/>
<polygon fill="#63b8ff" stroke="#63b8ff" points="232.53,-30.26 239.04,-21.9 228.74,-24.37 232.53,-30.26"/>
</a>
</g>
</g>
<!-- Node7 -->
<g id="Node000007" class="node">
<title>Node7</title>
<g id="a_Node000007"><a xlink:title=" ">
<polygon fill="#e0e0e0" stroke="#999999" points="392.5,-20.75 314.25,-20.75 314.25,0 392.5,0 392.5,-20.75"/>
<text text-anchor="middle" x="353.38" y="-7.25" font-family="Helvetica,sans-Serif" font-size="10.00">periph_cpu.h</text>
</a>
</g>
</g>
<!-- Node2&#45;&gt;Node7 -->
<g id="edge6_Node000002_Node000007" class="edge">
<title>Node2&#45;&gt;Node7</title>
<g id="a_edge6_Node000002_Node000007"><a xlink:title=" ">
<path fill="none" stroke="#63b8ff" d="M203.09,-56.34C232.93,-47.41 277.22,-34.16 310,-24.35"/>
<polygon fill="#63b8ff" stroke="#63b8ff" points="310.61,-27.82 319.18,-21.6 308.6,-21.12 310.61,-27.82"/>
</a>
</g>
</g>
</g>
</svg>
