<?xml version="1.0" encoding="UTF-8" standalone="no"?>
<!DOCTYPE svg PUBLIC "-//W3C//DTD SVG 1.1//EN"
 "http://www.w3.org/Graphics/SVG/1.1/DTD/svg11.dtd">
<!-- Generated by graphviz version 12.1.1 (0)
 -->
<!-- Title: drivers/include/mtd_at24cxxx.h Pages: 1 -->
<svg width="622pt" height="325pt"
 viewBox="0.00 0.00 622.23 325.25" xmlns="http://www.w3.org/2000/svg" xmlns:xlink="http://www.w3.org/1999/xlink">
<g id="graph0" class="graph" transform="scale(1 1) rotate(0) translate(4 321.25)">
<title>drivers/include/mtd_at24cxxx.h</title>
<!-- Node1 -->
<g id="Node000001" class="node">
<title>Node1</title>
<g id="a_Node000001"><a xlink:title="Interface definition for at24cxxx MTD wrapper.">
<polygon fill="#999999" stroke="#666666" points="304.98,-317.25 194.48,-317.25 194.48,-283.75 304.98,-283.75 304.98,-317.25"/>
<text text-anchor="start" x="202.48" y="-303.75" font-family="Helvetica,sans-Serif" font-size="10.00">drivers/include/mtd</text>
<text text-anchor="middle" x="249.73" y="-291" font-family="Helvetica,sans-Serif" font-size="10.00">_at24cxxx.h</text>
</a>
</g>
</g>
<!-- Node2 -->
<g id="Node000002" class="node">
<title>Node2</title>
<g id="a_Node000002"><a xlink:href="at24cxxx_8h.html" target="_top" xlink:title="Device driver interface for AT24CXXX EEPROM units.">
<polygon fill="white" stroke="#666666" points="212.73,-247.75 142.73,-247.75 142.73,-227 212.73,-227 212.73,-247.75"/>
<text text-anchor="middle" x="177.73" y="-234.25" font-family="Helvetica,sans-Serif" font-size="10.00">at24cxxx.h</text>
</a>
</g>
</g>
<!-- Node1&#45;&gt;Node2 -->
<g id="edge1_Node000001_Node000002" class="edge">
<title>Node1&#45;&gt;Node2</title>
<g id="a_edge1_Node000001_Node000002"><a xlink:title=" ">
<path fill="none" stroke="#63b8ff" d="M230.81,-283.44C220.73,-274.88 208.33,-264.35 198.04,-255.62"/>
<polygon fill="#63b8ff" stroke="#63b8ff" points="200.37,-253 190.48,-249.2 195.83,-258.34 200.37,-253"/>
</a>
</g>
</g>
<!-- Node10 -->
<g id="Node000010" class="node">
<title>Node10</title>
<g id="a_Node000010"><a xlink:href="mtd_8h.html" target="_top" xlink:title=" ">
<polygon fill="white" stroke="#666666" points="390.98,-247.75 346.48,-247.75 346.48,-227 390.98,-227 390.98,-247.75"/>
<text text-anchor="middle" x="368.73" y="-234.25" font-family="Helvetica,sans-Serif" font-size="10.00">mtd.h</text>
</a>
</g>
</g>
<!-- Node1&#45;&gt;Node10 -->
<g id="edge13_Node000001_Node000010" class="edge">
<title>Node1&#45;&gt;Node10</title>
<g id="a_edge13_Node000001_Node000010"><a xlink:title=" ">
<path fill="none" stroke="#63b8ff" d="M281.31,-283.28C299.5,-273.94 322.19,-262.28 339.89,-253.19"/>
<polygon fill="#63b8ff" stroke="#63b8ff" points="341.03,-256.54 348.32,-248.86 337.83,-250.31 341.03,-256.54"/>
</a>
</g>
</g>
<!-- Node3 -->
<g id="Node000003" class="node">
<title>Node3</title>
<g id="a_Node000003"><a xlink:title=" ">
<polygon fill="#e0e0e0" stroke="#999999" points="433.1,-20.75 380.35,-20.75 380.35,0 433.1,0 433.1,-20.75"/>
<text text-anchor="middle" x="406.73" y="-7.25" font-family="Helvetica,sans-Serif" font-size="10.00">stdint.h</text>
</a>
</g>
</g>
<!-- Node2&#45;&gt;Node3 -->
<g id="edge2_Node000002_Node000003" class="edge">
<title>Node2&#45;&gt;Node3</title>
<g id="a_edge2_Node000002_Node000003"><a xlink:title=" ">
<path fill="none" stroke="#63b8ff" d="M142.56,-227.18C81.77,-209.6 -32.56,-168.05 9.73,-113.5 54.02,-56.38 277.98,-25.61 368.59,-15.33"/>
<polygon fill="#63b8ff" stroke="#63b8ff" points="368.9,-18.82 378.46,-14.24 368.13,-11.86 368.9,-18.82"/>
</a>
</g>
</g>
<!-- Node4 -->
<g id="Node000004" class="node">
<title>Node4</title>
<g id="a_Node000004"><a xlink:href="drivers_2include_2periph_2gpio_8h.html" target="_top" xlink:title="Low&#45;level GPIO peripheral driver interface definitions.">
<polygon fill="white" stroke="#666666" points="170.6,-191 90.85,-191 90.85,-170.25 170.6,-170.25 170.6,-191"/>
<text text-anchor="middle" x="130.73" y="-177.5" font-family="Helvetica,sans-Serif" font-size="10.00">periph/gpio.h</text>
</a>
</g>
</g>
<!-- Node2&#45;&gt;Node4 -->
<g id="edge3_Node000002_Node000004" class="edge">
<title>Node2&#45;&gt;Node4</title>
<g id="a_edge3_Node000002_Node000004"><a xlink:title=" ">
<path fill="none" stroke="#63b8ff" d="M169.33,-226.59C162.98,-219.19 154.08,-208.82 146.43,-199.91"/>
<polygon fill="#63b8ff" stroke="#63b8ff" points="149.21,-197.78 140.05,-192.48 143.9,-202.34 149.21,-197.78"/>
</a>
</g>
</g>
<!-- Node8 -->
<g id="Node000008" class="node">
<title>Node8</title>
<g id="a_Node000008"><a xlink:href="i2c_8h.html" target="_top" xlink:title="Low&#45;level I2C peripheral driver interface definition.">
<polygon fill="white" stroke="#666666" points="261.23,-191 188.23,-191 188.23,-170.25 261.23,-170.25 261.23,-191"/>
<text text-anchor="middle" x="224.73" y="-177.5" font-family="Helvetica,sans-Serif" font-size="10.00">periph/i2c.h</text>
</a>
</g>
</g>
<!-- Node2&#45;&gt;Node8 -->
<g id="edge7_Node000002_Node000008" class="edge">
<title>Node2&#45;&gt;Node8</title>
<g id="a_edge7_Node000002_Node000008"><a xlink:title=" ">
<path fill="none" stroke="#63b8ff" d="M186.13,-226.59C192.48,-219.19 201.38,-208.82 209.03,-199.91"/>
<polygon fill="#63b8ff" stroke="#63b8ff" points="211.56,-202.34 215.41,-192.48 206.24,-197.78 211.56,-202.34"/>
</a>
</g>
</g>
<!-- Node5 -->
<g id="Node000005" class="node">
<title>Node5</title>
<g id="a_Node000005"><a xlink:title=" ">
<polygon fill="#e0e0e0" stroke="#999999" points="267.1,-134.25 214.35,-134.25 214.35,-113.5 267.1,-113.5 267.1,-134.25"/>
<text text-anchor="middle" x="240.73" y="-120.75" font-family="Helvetica,sans-Serif" font-size="10.00">limits.h</text>
</a>
</g>
</g>
<!-- Node4&#45;&gt;Node5 -->
<g id="edge4_Node000004_Node000005" class="edge">
<title>Node4&#45;&gt;Node5</title>
<g id="a_edge4_Node000004_Node000005"><a xlink:title=" ">
<path fill="none" stroke="#63b8ff" d="M150.4,-169.84C167.29,-161.43 191.9,-149.18 211.16,-139.59"/>
<polygon fill="#63b8ff" stroke="#63b8ff" points="212.49,-142.84 219.88,-135.25 209.37,-136.58 212.49,-142.84"/>
</a>
</g>
</g>
<!-- Node6 -->
<g id="Node000006" class="node">
<title>Node6</title>
<g id="a_Node000006"><a xlink:title=" ">
<polygon fill="#e0e0e0" stroke="#999999" points="96.85,-134.25 18.6,-134.25 18.6,-113.5 96.85,-113.5 96.85,-134.25"/>
<text text-anchor="middle" x="57.73" y="-120.75" font-family="Helvetica,sans-Serif" font-size="10.00">periph_cpu.h</text>
</a>
</g>
</g>
<!-- Node4&#45;&gt;Node6 -->
<g id="edge5_Node000004_Node000006" class="edge">
<title>Node4&#45;&gt;Node6</title>
<g id="a_edge5_Node000004_Node000006"><a xlink:title=" ">
<path fill="none" stroke="#63b8ff" d="M117.68,-169.84C107.09,-161.9 91.94,-150.53 79.51,-141.21"/>
<polygon fill="#63b8ff" stroke="#63b8ff" points="81.98,-138.69 71.88,-135.49 77.78,-144.29 81.98,-138.69"/>
</a>
</g>
</g>
<!-- Node7 -->
<g id="Node000007" class="node">
<title>Node7</title>
<g id="a_Node000007"><a xlink:title=" ">
<polygon fill="#e0e0e0" stroke="#999999" points="196.35,-134.25 115.1,-134.25 115.1,-113.5 196.35,-113.5 196.35,-134.25"/>
<text text-anchor="middle" x="155.73" y="-120.75" font-family="Helvetica,sans-Serif" font-size="10.00">periph_conf.h</text>
</a>
</g>
</g>
<!-- Node4&#45;&gt;Node7 -->
<g id="edge6_Node000004_Node000007" class="edge">
<title>Node4&#45;&gt;Node7</title>
<g id="a_edge6_Node000004_Node000007"><a xlink:title=" ">
<path fill="none" stroke="#63b8ff" d="M135.2,-169.84C138.36,-162.91 142.72,-153.37 146.6,-144.86"/>
<polygon fill="#63b8ff" stroke="#63b8ff" points="149.7,-146.51 150.67,-135.96 143.33,-143.6 149.7,-146.51"/>
</a>
</g>
</g>
<!-- Node8&#45;&gt;Node3 -->
<g id="edge8_Node000008_Node000003" class="edge">
<title>Node8&#45;&gt;Node3</title>
<g id="a_edge8_Node000008_Node000003"><a xlink:title=" ">
<path fill="none" stroke="#63b8ff" d="M235.75,-169.97C246.13,-160.84 262.08,-146.72 275.73,-134.25 316.33,-97.16 363.15,-52.87 388.36,-28.89"/>
<polygon fill="#63b8ff" stroke="#63b8ff" points="390.7,-31.5 395.53,-22.07 385.87,-26.43 390.7,-31.5"/>
</a>
</g>
</g>
<!-- Node8&#45;&gt;Node5 -->
<g id="edge10_Node000008_Node000005" class="edge">
<title>Node8&#45;&gt;Node5</title>
<g id="a_edge10_Node000008_Node000005"><a xlink:title=" ">
<path fill="none" stroke="#63b8ff" d="M227.59,-169.84C229.57,-163.06 232.28,-153.8 234.72,-145.44"/>
<polygon fill="#63b8ff" stroke="#63b8ff" points="238.02,-146.61 237.47,-136.03 231.3,-144.65 238.02,-146.61"/>
</a>
</g>
</g>
<!-- Node8&#45;&gt;Node6 -->
<g id="edge12_Node000008_Node000006" class="edge">
<title>Node8&#45;&gt;Node6</title>
<g id="a_edge12_Node000008_Node000006"><a xlink:title=" ">
<path fill="none" stroke="#63b8ff" d="M194.87,-169.84C168,-161.03 128.28,-148 98.49,-138.24"/>
<polygon fill="#63b8ff" stroke="#63b8ff" points="99.64,-134.93 89.05,-135.14 97.46,-141.58 99.64,-134.93"/>
</a>
</g>
</g>
<!-- Node8&#45;&gt;Node7 -->
<g id="edge11_Node000008_Node000007" class="edge">
<title>Node8&#45;&gt;Node7</title>
<g id="a_edge11_Node000008_Node000007"><a xlink:title=" ">
<path fill="none" stroke="#63b8ff" d="M212.39,-169.84C202.48,-161.97 188.34,-150.75 176.67,-141.49"/>
<polygon fill="#63b8ff" stroke="#63b8ff" points="179.15,-138.99 169.14,-135.52 174.8,-144.48 179.15,-138.99"/>
</a>
</g>
</g>
<!-- Node9 -->
<g id="Node000009" class="node">
<title>Node9</title>
<g id="a_Node000009"><a xlink:title=" ">
<polygon fill="#e0e0e0" stroke="#999999" points="378.23,-134.25 323.23,-134.25 323.23,-113.5 378.23,-113.5 378.23,-134.25"/>
<text text-anchor="middle" x="350.73" y="-120.75" font-family="Helvetica,sans-Serif" font-size="10.00">stddef.h</text>
</a>
</g>
</g>
<!-- Node8&#45;&gt;Node9 -->
<g id="edge9_Node000008_Node000009" class="edge">
<title>Node8&#45;&gt;Node9</title>
<g id="a_edge9_Node000008_Node000009"><a xlink:title=" ">
<path fill="none" stroke="#63b8ff" d="M247.26,-169.84C266.97,-161.27 295.84,-148.73 318.08,-139.06"/>
<polygon fill="#63b8ff" stroke="#63b8ff" points="319.23,-142.38 327.01,-135.18 316.44,-135.96 319.23,-142.38"/>
</a>
</g>
</g>
<!-- Node10&#45;&gt;Node3 -->
<g id="edge16_Node000010_Node000003" class="edge">
<title>Node10&#45;&gt;Node3</title>
<g id="a_edge16_Node000010_Node000003"><a xlink:title=" ">
<path fill="none" stroke="#63b8ff" d="M370.51,-226.52C373.79,-208.31 380.98,-168.15 386.73,-134.25 392.82,-98.32 399.56,-56.42 403.46,-32"/>
<polygon fill="#63b8ff" stroke="#63b8ff" points="406.86,-32.86 404.98,-22.44 399.95,-31.76 406.86,-32.86"/>
</a>
</g>
</g>
<!-- Node10&#45;&gt;Node9 -->
<g id="edge15_Node000010_Node000009" class="edge">
<title>Node10&#45;&gt;Node9</title>
<g id="a_edge15_Node000010_Node000009"><a xlink:title=" ">
<path fill="none" stroke="#63b8ff" d="M367.19,-226.87C364.31,-209.02 358.03,-170.11 354.11,-145.84"/>
<polygon fill="#63b8ff" stroke="#63b8ff" points="357.6,-145.48 352.55,-136.17 350.69,-146.6 357.6,-145.48"/>
</a>
</g>
</g>
<!-- Node11 -->
<g id="Node000011" class="node">
<title>Node11</title>
<g id="a_Node000011"><a xlink:title=" ">
<polygon fill="#e0e0e0" stroke="#999999" points="340.23,-191 279.23,-191 279.23,-170.25 340.23,-170.25 340.23,-191"/>
<text text-anchor="middle" x="309.73" y="-177.5" font-family="Helvetica,sans-Serif" font-size="10.00">stdbool.h</text>
</a>
</g>
</g>
<!-- Node10&#45;&gt;Node11 -->
<g id="edge14_Node000010_Node000011" class="edge">
<title>Node10&#45;&gt;Node11</title>
<g id="a_edge14_Node000010_Node000011"><a xlink:title=" ">
<path fill="none" stroke="#63b8ff" d="M358.18,-226.59C349.96,-218.96 338.33,-208.17 328.53,-199.07"/>
<polygon fill="#63b8ff" stroke="#63b8ff" points="331.01,-196.59 321.3,-192.36 326.25,-201.73 331.01,-196.59"/>
</a>
</g>
</g>
<!-- Node12 -->
<g id="Node000012" class="node">
<title>Node12</title>
<g id="a_Node000012"><a xlink:href="xfa_8h.html" target="_top" xlink:title="Cross File Arrays.">
<polygon fill="white" stroke="#666666" points="487.1,-191 446.35,-191 446.35,-170.25 487.1,-170.25 487.1,-191"/>
<text text-anchor="middle" x="466.73" y="-177.5" font-family="Helvetica,sans-Serif" font-size="10.00">xfa.h</text>
</a>
</g>
</g>
<!-- Node10&#45;&gt;Node12 -->
<g id="edge17_Node000010_Node000012" class="edge">
<title>Node10&#45;&gt;Node12</title>
<g id="a_edge17_Node000010_Node000012"><a xlink:title=" ">
<path fill="none" stroke="#63b8ff" d="M386.25,-226.59C401.02,-218.33 422.41,-206.38 439.43,-196.88"/>
<polygon fill="#63b8ff" stroke="#63b8ff" points="441.02,-200 448.04,-192.07 437.6,-193.89 441.02,-200"/>
</a>
</g>
</g>
<!-- Node13 -->
<g id="Node000013" class="node">
<title>Node13</title>
<g id="a_Node000013"><a xlink:href="inttypes_8h.html" target="_top" xlink:title="Adds include for missing inttype definitions.">
<polygon fill="white" stroke="#666666" points="499.1,-134.25 434.35,-134.25 434.35,-113.5 499.1,-113.5 499.1,-134.25"/>
<text text-anchor="middle" x="466.73" y="-120.75" font-family="Helvetica,sans-Serif" font-size="10.00">inttypes.h</text>
</a>
</g>
</g>
<!-- Node12&#45;&gt;Node13 -->
<g id="edge18_Node000012_Node000013" class="edge">
<title>Node12&#45;&gt;Node13</title>
<g id="a_edge18_Node000012_Node000013"><a xlink:title=" ">
<path fill="none" stroke="#63b8ff" d="M466.73,-169.84C466.73,-163.22 466.73,-154.22 466.73,-146.02"/>
<polygon fill="#63b8ff" stroke="#63b8ff" points="470.23,-146.09 466.73,-136.09 463.23,-146.09 470.23,-146.09"/>
</a>
</g>
</g>
<!-- Node14 -->
<g id="Node000014" class="node">
<title>Node14</title>
<g id="a_Node000014"><a xlink:href="compiler__hints_8h.html" target="_top" xlink:title="Common macros and compiler attributes/pragmas configuration.">
<polygon fill="white" stroke="#666666" points="614.23,-134.25 517.23,-134.25 517.23,-113.5 614.23,-113.5 614.23,-134.25"/>
<text text-anchor="middle" x="565.73" y="-120.75" font-family="Helvetica,sans-Serif" font-size="10.00">compiler_hints.h</text>
</a>
</g>
</g>
<!-- Node12&#45;&gt;Node14 -->
<g id="edge19_Node000012_Node000014" class="edge">
<title>Node12&#45;&gt;Node14</title>
<g id="a_edge19_Node000012_Node000014"><a xlink:title=" ">
<path fill="none" stroke="#63b8ff" d="M484.43,-169.84C499.35,-161.58 520.96,-149.63 538.15,-140.13"/>
<polygon fill="#63b8ff" stroke="#63b8ff" points="539.8,-143.21 546.86,-135.31 536.41,-137.09 539.8,-143.21"/>
</a>
</g>
</g>
<!-- Node14&#45;&gt;Node3 -->
<g id="edge22_Node000014_Node000003" class="edge">
<title>Node14&#45;&gt;Node3</title>
<g id="a_edge22_Node000014_Node000003"><a xlink:title=" ">
<path fill="none" stroke="#63b8ff" d="M561.87,-113.44C555.63,-99.27 542.05,-72.49 522.73,-56.75 500.01,-38.24 468.83,-26.61 444.52,-19.77"/>
<polygon fill="#63b8ff" stroke="#63b8ff" points="445.57,-16.42 435.01,-17.25 443.78,-23.19 445.57,-16.42"/>
</a>
</g>
</g>
<!-- Node15 -->
<g id="Node000015" class="node">
<title>Node15</title>
<g id="a_Node000015"><a xlink:href="assert_8h.html" target="_top" xlink:title="POSIX.1&#45;2008 compliant version of the assert macro.">
<polygon fill="white" stroke="#666666" points="513.23,-77.5 458.23,-77.5 458.23,-56.75 513.23,-56.75 513.23,-77.5"/>
<text text-anchor="middle" x="485.73" y="-64" font-family="Helvetica,sans-Serif" font-size="10.00">assert.h</text>
</a>
</g>
</g>
<!-- Node14&#45;&gt;Node15 -->
<g id="edge20_Node000014_Node000015" class="edge">
<title>Node14&#45;&gt;Node15</title>
<g id="a_edge20_Node000014_Node000015"><a xlink:title=" ">
<path fill="none" stroke="#63b8ff" d="M551.43,-113.09C539.71,-105.07 522.89,-93.56 509.2,-84.19"/>
<polygon fill="#63b8ff" stroke="#63b8ff" points="511.39,-81.44 501.16,-78.68 507.43,-87.22 511.39,-81.44"/>
</a>
</g>
</g>
<!-- Node15&#45;&gt;Node3 -->
<g id="edge21_Node000015_Node000003" class="edge">
<title>Node15&#45;&gt;Node3</title>
<g id="a_edge21_Node000015_Node000003"><a xlink:title=" ">
<path fill="none" stroke="#63b8ff" d="M471.61,-56.34C460.04,-48.32 443.43,-36.81 429.91,-27.44"/>
<polygon fill="#63b8ff" stroke="#63b8ff" points="432.19,-24.76 421.98,-21.94 428.2,-30.51 432.19,-24.76"/>
</a>
</g>
</g>
</g>
</svg>
