<?xml version="1.0" encoding="UTF-8" standalone="no"?>
<!DOCTYPE svg PUBLIC "-//W3C//DTD SVG 1.1//EN"
 "http://www.w3.org/Graphics/SVG/1.1/DTD/svg11.dtd">
<!-- Generated by graphviz version 12.1.1 (0)
 -->
<!-- Title: boards/mulle/include/gpio_params.h Pages: 1 -->
<svg width="548pt" height="269pt"
 viewBox="0.00 0.00 548.38 268.50" xmlns="http://www.w3.org/2000/svg" xmlns:xlink="http://www.w3.org/1999/xlink">
<g id="graph0" class="graph" transform="scale(1 1) rotate(0) translate(4 264.5)">
<title>boards/mulle/include/gpio_params.h</title>
<!-- Node1 -->
<g id="Node000001" class="node">
<title>Node1</title>
<g id="a_Node000001"><a xlink:title="Board specific configuration of direct mapped GPIOs.">
<polygon fill="#999999" stroke="#666666" points="274,-260.5 156,-260.5 156,-227 274,-227 274,-260.5"/>
<text text-anchor="start" x="164" y="-247" font-family="Helvetica,sans-Serif" font-size="10.00">boards/mulle/include</text>
<text text-anchor="middle" x="215" y="-234.25" font-family="Helvetica,sans-Serif" font-size="10.00">/gpio_params.h</text>
</a>
</g>
</g>
<!-- Node2 -->
<g id="Node000002" class="node">
<title>Node2</title>
<g id="a_Node000002"><a xlink:href="mulle_2include_2board_8h.html" target="_top" xlink:title="Board specific definitions for the Eistec Mulle IoT board.">
<polygon fill="white" stroke="#666666" points="193.38,-191 140.62,-191 140.62,-170.25 193.38,-170.25 193.38,-191"/>
<text text-anchor="middle" x="167" y="-177.5" font-family="Helvetica,sans-Serif" font-size="10.00">board.h</text>
</a>
</g>
</g>
<!-- Node1&#45;&gt;Node2 -->
<g id="edge1_Node000001_Node000002" class="edge">
<title>Node1&#45;&gt;Node2</title>
<g id="a_edge1_Node000001_Node000002"><a xlink:title=" ">
<path fill="none" stroke="#63b8ff" d="M202.39,-226.69C196.08,-218.66 188.4,-208.88 181.82,-200.49"/>
<polygon fill="#63b8ff" stroke="#63b8ff" points="184.59,-198.36 175.66,-192.66 179.09,-202.68 184.59,-198.36"/>
</a>
</g>
</g>
<!-- Node10 -->
<g id="Node000010" class="node">
<title>Node10</title>
<g id="a_Node000010"><a xlink:href="periph_8h.html" target="_top" xlink:title="Parameter definitions for mapping peripherals directly to SAUL.">
<polygon fill="white" stroke="#666666" points="391.5,-191 312.5,-191 312.5,-170.25 391.5,-170.25 391.5,-191"/>
<text text-anchor="middle" x="352" y="-177.5" font-family="Helvetica,sans-Serif" font-size="10.00">saul/periph.h</text>
</a>
</g>
</g>
<!-- Node1&#45;&gt;Node10 -->
<g id="edge9_Node000001_Node000010" class="edge">
<title>Node1&#45;&gt;Node10</title>
<g id="a_edge9_Node000001_Node000010"><a xlink:title=" ">
<path fill="none" stroke="#63b8ff" d="M251.35,-226.53C272.59,-217.06 299.15,-205.2 319.66,-196.06"/>
<polygon fill="#63b8ff" stroke="#63b8ff" points="320.97,-199.3 328.68,-192.03 318.12,-192.91 320.97,-199.3"/>
</a>
</g>
</g>
<!-- Node3 -->
<g id="Node000003" class="node">
<title>Node3</title>
<g id="a_Node000003"><a xlink:title=" ">
<polygon fill="#e0e0e0" stroke="#999999" points="148.12,-134.25 105.88,-134.25 105.88,-113.5 148.12,-113.5 148.12,-134.25"/>
<text text-anchor="middle" x="127" y="-120.75" font-family="Helvetica,sans-Serif" font-size="10.00">cpu.h</text>
</a>
</g>
</g>
<!-- Node2&#45;&gt;Node3 -->
<g id="edge2_Node000002_Node000003" class="edge">
<title>Node2&#45;&gt;Node3</title>
<g id="a_edge2_Node000002_Node000003"><a xlink:title=" ">
<path fill="none" stroke="#63b8ff" d="M159.85,-169.84C154.56,-162.6 147.19,-152.51 140.77,-143.72"/>
<polygon fill="#63b8ff" stroke="#63b8ff" points="143.71,-141.81 134.98,-135.8 138.06,-145.94 143.71,-141.81"/>
</a>
</g>
</g>
<!-- Node4 -->
<g id="Node000004" class="node">
<title>Node4</title>
<g id="a_Node000004"><a xlink:href="boards_2mulle_2include_2periph__conf_8h.html" target="_top" xlink:title=" ">
<polygon fill="white" stroke="#666666" points="247.62,-134.25 166.38,-134.25 166.38,-113.5 247.62,-113.5 247.62,-134.25"/>
<text text-anchor="middle" x="207" y="-120.75" font-family="Helvetica,sans-Serif" font-size="10.00">periph_conf.h</text>
</a>
</g>
</g>
<!-- Node2&#45;&gt;Node4 -->
<g id="edge3_Node000002_Node000004" class="edge">
<title>Node2&#45;&gt;Node4</title>
<g id="a_edge3_Node000002_Node000004"><a xlink:title=" ">
<path fill="none" stroke="#63b8ff" d="M174.15,-169.84C179.44,-162.6 186.81,-152.51 193.23,-143.72"/>
<polygon fill="#63b8ff" stroke="#63b8ff" points="195.94,-145.94 199.02,-135.8 190.29,-141.81 195.94,-145.94"/>
</a>
</g>
</g>
<!-- Node6 -->
<g id="Node000006" class="node">
<title>Node6</title>
<g id="a_Node000006"><a xlink:href="mulle-nvram_8h.html" target="_top" xlink:title="NVRAM offsets for the Eistec Mulle IoT board.">
<polygon fill="white" stroke="#666666" points="88,-134.25 0,-134.25 0,-113.5 88,-113.5 88,-134.25"/>
<text text-anchor="middle" x="44" y="-120.75" font-family="Helvetica,sans-Serif" font-size="10.00">mulle&#45;nvram.h</text>
</a>
</g>
</g>
<!-- Node2&#45;&gt;Node6 -->
<g id="edge5_Node000002_Node000006" class="edge">
<title>Node2&#45;&gt;Node6</title>
<g id="a_edge5_Node000002_Node000006"><a xlink:title=" ">
<path fill="none" stroke="#63b8ff" d="M145.01,-169.84C125.86,-161.31 97.84,-148.84 76.17,-139.19"/>
<polygon fill="#63b8ff" stroke="#63b8ff" points="77.74,-136.06 67.18,-135.19 74.89,-142.46 77.74,-136.06"/>
</a>
</g>
</g>
<!-- Node5 -->
<g id="Node000005" class="node">
<title>Node5</title>
<g id="a_Node000005"><a xlink:title=" ">
<polygon fill="#e0e0e0" stroke="#999999" points="341.12,-77.5 262.88,-77.5 262.88,-56.75 341.12,-56.75 341.12,-77.5"/>
<text text-anchor="middle" x="302" y="-64" font-family="Helvetica,sans-Serif" font-size="10.00">periph_cpu.h</text>
</a>
</g>
</g>
<!-- Node4&#45;&gt;Node5 -->
<g id="edge4_Node000004_Node000005" class="edge">
<title>Node4&#45;&gt;Node5</title>
<g id="a_edge4_Node000004_Node000005"><a xlink:title=" ">
<path fill="none" stroke="#63b8ff" d="M223.98,-113.09C238.3,-104.83 259.04,-92.88 275.54,-83.38"/>
<polygon fill="#63b8ff" stroke="#63b8ff" points="276.94,-86.61 283.85,-78.58 273.44,-80.55 276.94,-86.61"/>
</a>
</g>
</g>
<!-- Node7 -->
<g id="Node000007" class="node">
<title>Node7</title>
<g id="a_Node000007"><a xlink:href="nvram_8h.html" target="_top" xlink:title="Generic non&#45;volatile RAM driver interface.">
<polygon fill="white" stroke="#666666" points="132.25,-77.5 75.75,-77.5 75.75,-56.75 132.25,-56.75 132.25,-77.5"/>
<text text-anchor="middle" x="104" y="-64" font-family="Helvetica,sans-Serif" font-size="10.00">nvram.h</text>
</a>
</g>
</g>
<!-- Node6&#45;&gt;Node7 -->
<g id="edge6_Node000006_Node000007" class="edge">
<title>Node6&#45;&gt;Node7</title>
<g id="a_edge6_Node000006_Node000007"><a xlink:title=" ">
<path fill="none" stroke="#63b8ff" d="M54.73,-113.09C63.09,-105.46 74.91,-94.67 84.88,-85.57"/>
<polygon fill="#63b8ff" stroke="#63b8ff" points="87.22,-88.17 92.25,-78.85 82.5,-83 87.22,-88.17"/>
</a>
</g>
</g>
<!-- Node8 -->
<g id="Node000008" class="node">
<title>Node8</title>
<g id="a_Node000008"><a xlink:title=" ">
<polygon fill="#e0e0e0" stroke="#999999" points="261.38,-20.75 208.62,-20.75 208.62,0 261.38,0 261.38,-20.75"/>
<text text-anchor="middle" x="235" y="-7.25" font-family="Helvetica,sans-Serif" font-size="10.00">stdint.h</text>
</a>
</g>
</g>
<!-- Node7&#45;&gt;Node8 -->
<g id="edge7_Node000007_Node000008" class="edge">
<title>Node7&#45;&gt;Node8</title>
<g id="a_edge7_Node000007_Node000008"><a xlink:title=" ">
<path fill="none" stroke="#63b8ff" d="M127.42,-56.34C148,-47.73 178.2,-35.11 201.37,-25.43"/>
<polygon fill="#63b8ff" stroke="#63b8ff" points="202.51,-28.75 210.39,-21.66 199.81,-22.29 202.51,-28.75"/>
</a>
</g>
</g>
<!-- Node9 -->
<g id="Node000009" class="node">
<title>Node9</title>
<g id="a_Node000009"><a xlink:title=" ">
<polygon fill="#e0e0e0" stroke="#999999" points="131.5,-20.75 76.5,-20.75 76.5,0 131.5,0 131.5,-20.75"/>
<text text-anchor="middle" x="104" y="-7.25" font-family="Helvetica,sans-Serif" font-size="10.00">stddef.h</text>
</a>
</g>
</g>
<!-- Node7&#45;&gt;Node9 -->
<g id="edge8_Node000007_Node000009" class="edge">
<title>Node7&#45;&gt;Node9</title>
<g id="a_edge8_Node000007_Node000009"><a xlink:title=" ">
<path fill="none" stroke="#63b8ff" d="M104,-56.34C104,-49.72 104,-40.72 104,-32.52"/>
<polygon fill="#63b8ff" stroke="#63b8ff" points="107.5,-32.59 104,-22.59 100.5,-32.59 107.5,-32.59"/>
</a>
</g>
</g>
<!-- Node11 -->
<g id="Node000011" class="node">
<title>Node11</title>
<g id="a_Node000011"><a xlink:href="drivers_2include_2periph_2gpio_8h.html" target="_top" xlink:title="Low&#45;level GPIO peripheral driver interface definitions.">
<polygon fill="white" stroke="#666666" points="439.88,-134.25 360.12,-134.25 360.12,-113.5 439.88,-113.5 439.88,-134.25"/>
<text text-anchor="middle" x="400" y="-120.75" font-family="Helvetica,sans-Serif" font-size="10.00">periph/gpio.h</text>
</a>
</g>
</g>
<!-- Node10&#45;&gt;Node11 -->
<g id="edge10_Node000010_Node000011" class="edge">
<title>Node10&#45;&gt;Node11</title>
<g id="a_edge10_Node000010_Node000011"><a xlink:title=" ">
<path fill="none" stroke="#63b8ff" d="M360.58,-169.84C367.07,-162.44 376.15,-152.07 383.97,-143.16"/>
<polygon fill="#63b8ff" stroke="#63b8ff" points="386.53,-145.54 390.5,-135.72 381.27,-140.93 386.53,-145.54"/>
</a>
</g>
</g>
<!-- Node14 -->
<g id="Node000014" class="node">
<title>Node14</title>
<g id="a_Node000014"><a xlink:href="adc_8h.html" target="_top" xlink:title="Low&#45;level ADC peripheral driver interface definitions.">
<polygon fill="white" stroke="#666666" points="342,-134.25 266,-134.25 266,-113.5 342,-113.5 342,-134.25"/>
<text text-anchor="middle" x="304" y="-120.75" font-family="Helvetica,sans-Serif" font-size="10.00">periph/adc.h</text>
</a>
</g>
</g>
<!-- Node10&#45;&gt;Node14 -->
<g id="edge14_Node000010_Node000014" class="edge">
<title>Node10&#45;&gt;Node14</title>
<g id="a_edge14_Node000010_Node000014"><a xlink:title=" ">
<path fill="none" stroke="#63b8ff" d="M343.42,-169.84C336.93,-162.44 327.85,-152.07 320.03,-143.16"/>
<polygon fill="#63b8ff" stroke="#63b8ff" points="322.73,-140.93 313.5,-135.72 317.47,-145.54 322.73,-140.93"/>
</a>
</g>
</g>
<!-- Node15 -->
<g id="Node000015" class="node">
<title>Node15</title>
<g id="a_Node000015"><a xlink:href="pwm_8h.html" target="_top" xlink:title="Low&#45;level PWM peripheral driver interface definitions.">
<polygon fill="white" stroke="#666666" points="540.38,-134.25 457.62,-134.25 457.62,-113.5 540.38,-113.5 540.38,-134.25"/>
<text text-anchor="middle" x="499" y="-120.75" font-family="Helvetica,sans-Serif" font-size="10.00">periph/pwm.h</text>
</a>
</g>
</g>
<!-- Node10&#45;&gt;Node15 -->
<g id="edge19_Node000010_Node000015" class="edge">
<title>Node10&#45;&gt;Node15</title>
<g id="a_edge19_Node000010_Node000015"><a xlink:title=" ">
<path fill="none" stroke="#63b8ff" d="M378.28,-169.84C401.69,-161.12 436.19,-148.27 462.32,-138.54"/>
<polygon fill="#63b8ff" stroke="#63b8ff" points="463.38,-141.88 471.53,-135.11 460.94,-135.32 463.38,-141.88"/>
</a>
</g>
</g>
<!-- Node11&#45;&gt;Node5 -->
<g id="edge12_Node000011_Node000005" class="edge">
<title>Node11&#45;&gt;Node5</title>
<g id="a_edge12_Node000011_Node000005"><a xlink:title=" ">
<path fill="none" stroke="#63b8ff" d="M382.48,-113.09C367.71,-104.83 346.32,-92.88 329.3,-83.38"/>
<polygon fill="#63b8ff" stroke="#63b8ff" points="331.13,-80.39 320.69,-78.57 327.71,-86.5 331.13,-80.39"/>
</a>
</g>
</g>
<!-- Node12 -->
<g id="Node000012" class="node">
<title>Node12</title>
<g id="a_Node000012"><a xlink:title=" ">
<polygon fill="#e0e0e0" stroke="#999999" points="511.38,-77.5 458.62,-77.5 458.62,-56.75 511.38,-56.75 511.38,-77.5"/>
<text text-anchor="middle" x="485" y="-64" font-family="Helvetica,sans-Serif" font-size="10.00">limits.h</text>
</a>
</g>
</g>
<!-- Node11&#45;&gt;Node12 -->
<g id="edge11_Node000011_Node000012" class="edge">
<title>Node11&#45;&gt;Node12</title>
<g id="a_edge11_Node000011_Node000012"><a xlink:title=" ">
<path fill="none" stroke="#63b8ff" d="M415.2,-113.09C427.77,-104.99 445.86,-93.33 460.48,-83.92"/>
<polygon fill="#63b8ff" stroke="#63b8ff" points="462.15,-87.01 468.66,-78.65 458.36,-81.12 462.15,-87.01"/>
</a>
</g>
</g>
<!-- Node13 -->
<g id="Node000013" class="node">
<title>Node13</title>
<g id="a_Node000013"><a xlink:title=" ">
<polygon fill="#e0e0e0" stroke="#999999" points="440.62,-77.5 359.38,-77.5 359.38,-56.75 440.62,-56.75 440.62,-77.5"/>
<text text-anchor="middle" x="400" y="-64" font-family="Helvetica,sans-Serif" font-size="10.00">periph_conf.h</text>
</a>
</g>
</g>
<!-- Node11&#45;&gt;Node13 -->
<g id="edge13_Node000011_Node000013" class="edge">
<title>Node11&#45;&gt;Node13</title>
<g id="a_edge13_Node000011_Node000013"><a xlink:title=" ">
<path fill="none" stroke="#63b8ff" d="M400,-113.09C400,-106.47 400,-97.47 400,-89.27"/>
<polygon fill="#63b8ff" stroke="#63b8ff" points="403.5,-89.34 400,-79.34 396.5,-89.34 403.5,-89.34"/>
</a>
</g>
</g>
<!-- Node14&#45;&gt;Node5 -->
<g id="edge17_Node000014_Node000005" class="edge">
<title>Node14&#45;&gt;Node5</title>
<g id="a_edge17_Node000014_Node000005"><a xlink:title=" ">
<path fill="none" stroke="#63b8ff" d="M303.64,-113.09C303.4,-106.47 303.07,-97.47 302.77,-89.27"/>
<polygon fill="#63b8ff" stroke="#63b8ff" points="306.27,-89.21 302.41,-79.34 299.28,-89.46 306.27,-89.21"/>
</a>
</g>
</g>
<!-- Node14&#45;&gt;Node8 -->
<g id="edge16_Node000014_Node000008" class="edge">
<title>Node14&#45;&gt;Node8</title>
<g id="a_edge16_Node000014_Node000008"><a xlink:title=" ">
<path fill="none" stroke="#63b8ff" d="M289.71,-113.33C278.45,-105.09 263.17,-92.23 254,-77.5 245.4,-63.68 240.57,-45.84 237.94,-32.17"/>
<polygon fill="#63b8ff" stroke="#63b8ff" points="241.42,-31.81 236.33,-22.52 234.52,-32.95 241.42,-31.81"/>
</a>
</g>
</g>
<!-- Node14&#45;&gt;Node12 -->
<g id="edge15_Node000014_Node000012" class="edge">
<title>Node14&#45;&gt;Node12</title>
<g id="a_edge15_Node000014_Node000012"><a xlink:title=" ">
<path fill="none" stroke="#63b8ff" d="M336.36,-113.09C367.47,-103.68 414.47,-89.46 447.26,-79.54"/>
<polygon fill="#63b8ff" stroke="#63b8ff" points="448.22,-82.91 456.77,-76.66 446.19,-76.21 448.22,-82.91"/>
</a>
</g>
</g>
<!-- Node14&#45;&gt;Node13 -->
<g id="edge18_Node000014_Node000013" class="edge">
<title>Node14&#45;&gt;Node13</title>
<g id="a_edge18_Node000014_Node000013"><a xlink:title=" ">
<path fill="none" stroke="#63b8ff" d="M321.16,-113.09C335.63,-104.83 356.59,-92.88 373.26,-83.38"/>
<polygon fill="#63b8ff" stroke="#63b8ff" points="374.72,-86.57 381.67,-78.58 371.25,-80.49 374.72,-86.57"/>
</a>
</g>
</g>
<!-- Node15&#45;&gt;Node5 -->
<g id="edge22_Node000015_Node000005" class="edge">
<title>Node15&#45;&gt;Node5</title>
<g id="a_edge22_Node000015_Node000005"><a xlink:title=" ">
<path fill="none" stroke="#63b8ff" d="M463.78,-113.09C431.52,-104.12 383.57,-90.79 348.24,-80.98"/>
<polygon fill="#63b8ff" stroke="#63b8ff" points="349.28,-77.63 338.7,-78.33 347.4,-84.38 349.28,-77.63"/>
</a>
</g>
</g>
<!-- Node15&#45;&gt;Node8 -->
<g id="edge20_Node000015_Node000008" class="edge">
<title>Node15&#45;&gt;Node8</title>
<g id="a_edge20_Node000015_Node000008"><a xlink:title=" ">
<path fill="none" stroke="#63b8ff" d="M507.17,-113.21C517.97,-99.23 534.07,-73.24 520,-56.75 488.72,-20.09 343.52,-12.91 273.27,-11.6"/>
<polygon fill="#63b8ff" stroke="#63b8ff" points="273.43,-8.1 263.38,-11.45 273.33,-15.1 273.43,-8.1"/>
</a>
</g>
</g>
<!-- Node15&#45;&gt;Node12 -->
<g id="edge21_Node000015_Node000012" class="edge">
<title>Node15&#45;&gt;Node12</title>
<g id="a_edge21_Node000015_Node000012"><a xlink:title=" ">
<path fill="none" stroke="#63b8ff" d="M496.5,-113.09C494.78,-106.39 492.45,-97.26 490.33,-88.98"/>
<polygon fill="#63b8ff" stroke="#63b8ff" points="493.72,-88.12 487.86,-79.29 486.94,-89.85 493.72,-88.12"/>
</a>
</g>
</g>
<!-- Node15&#45;&gt;Node13 -->
<g id="edge23_Node000015_Node000013" class="edge">
<title>Node15&#45;&gt;Node13</title>
<g id="a_edge23_Node000015_Node000013"><a xlink:title=" ">
<path fill="none" stroke="#63b8ff" d="M481.3,-113.09C466.38,-104.83 444.77,-92.88 427.58,-83.38"/>
<polygon fill="#63b8ff" stroke="#63b8ff" points="429.32,-80.34 418.87,-78.56 425.93,-86.46 429.32,-80.34"/>
</a>
</g>
</g>
</g>
</svg>
