<?xml version="1.0" encoding="UTF-8" standalone="no"?>
<!DOCTYPE svg PUBLIC "-//W3C//DTD SVG 1.1//EN"
 "http://www.w3.org/Graphics/SVG/1.1/DTD/svg11.dtd">
<!-- Generated by graphviz version 12.1.1 (0)
 -->
<!-- Title: drivers/include/my9221.h Pages: 1 -->
<svg width="181pt" height="181pt"
 viewBox="0.00 0.00 181.25 180.50" xmlns="http://www.w3.org/2000/svg" xmlns:xlink="http://www.w3.org/1999/xlink">
<g id="graph0" class="graph" transform="scale(1 1) rotate(0) translate(4 176.5)">
<title>drivers/include/my9221.h</title>
<!-- Node1 -->
<g id="Node000001" class="node">
<title>Node1</title>
<g id="a_Node000001"><a xlink:title="Interface for the MY9221 LED controller driver.">
<polygon fill="#999999" stroke="#666666" points="139.75,-172.5 0,-172.5 0,-151.75 139.75,-151.75 139.75,-172.5"/>
<text text-anchor="middle" x="69.88" y="-159" font-family="Helvetica,sans-Serif" font-size="10.00">drivers/include/my9221.h</text>
</a>
</g>
</g>
<!-- Node2 -->
<g id="Node000002" class="node">
<title>Node2</title>
<g id="a_Node000002"><a xlink:href="grove__ledbar__params_8h.html" target="_top" xlink:title="Config for the Grove LED bar based on MY9221 LED controller.">
<polygon fill="white" stroke="#666666" points="130.38,-46.25 9.38,-46.25 9.38,0 130.38,0 130.38,-46.25"/>
<text text-anchor="start" x="17.38" y="-32.75" font-family="Helvetica,sans-Serif" font-size="10.00">drivers/grove_ledbar</text>
<text text-anchor="start" x="17.38" y="-20" font-family="Helvetica,sans-Serif" font-size="10.00">/include/grove_ledbar</text>
<text text-anchor="middle" x="69.88" y="-7.25" font-family="Helvetica,sans-Serif" font-size="10.00">_params.h</text>
</a>
</g>
</g>
<!-- Node1&#45;&gt;Node2 -->
<g id="edge1_Node000001_Node000002" class="edge">
<title>Node1&#45;&gt;Node2</title>
<g id="a_edge1_Node000001_Node000002"><a xlink:title=" ">
<path fill="none" stroke="#63b8ff" d="M56.81,-141.49C52.43,-133.8 48.09,-124.69 45.88,-115.75 40.01,-92.13 48.95,-65.2 57.53,-46.68"/>
<polygon fill="#63b8ff" stroke="#63b8ff" points="53.81,-143.29 62.03,-149.96 59.77,-139.61 53.81,-143.29"/>
</a>
</g>
</g>
<!-- Node3 -->
<g id="Node000003" class="node">
<title>Node3</title>
<g id="a_Node000003"><a xlink:href="grove__ledbar_8h.html" target="_top" xlink:title="Interface for the Grove ledbar driver.">
<polygon fill="white" stroke="#666666" points="173.25,-115.75 54.5,-115.75 54.5,-82.25 173.25,-82.25 173.25,-115.75"/>
<text text-anchor="start" x="62.5" y="-102.25" font-family="Helvetica,sans-Serif" font-size="10.00">drivers/include/grove</text>
<text text-anchor="middle" x="113.88" y="-89.5" font-family="Helvetica,sans-Serif" font-size="10.00">_ledbar.h</text>
</a>
</g>
</g>
<!-- Node1&#45;&gt;Node3 -->
<g id="edge2_Node000001_Node000003" class="edge">
<title>Node1&#45;&gt;Node3</title>
<g id="a_edge2_Node000001_Node000003"><a xlink:title=" ">
<path fill="none" stroke="#63b8ff" d="M83.6,-142.06C89.56,-133.77 96.48,-124.17 102.19,-116.23"/>
<polygon fill="#63b8ff" stroke="#63b8ff" points="80.83,-139.92 77.83,-150.08 86.51,-144 80.83,-139.92"/>
</a>
</g>
</g>
<!-- Node3&#45;&gt;Node2 -->
<g id="edge3_Node000003_Node000002" class="edge">
<title>Node3&#45;&gt;Node2</title>
<g id="a_edge3_Node000003_Node000002"><a xlink:title=" ">
<path fill="none" stroke="#63b8ff" d="M98.57,-72.3C93.58,-63.92 88.08,-54.69 83.24,-46.57"/>
<polygon fill="#63b8ff" stroke="#63b8ff" points="95.43,-73.87 103.55,-80.67 101.44,-70.29 95.43,-73.87"/>
</a>
</g>
</g>
</g>
</svg>
