<?xml version="1.0" encoding="UTF-8" standalone="no"?>
<!DOCTYPE svg PUBLIC "-//W3C//DTD SVG 1.1//EN"
 "http://www.w3.org/Graphics/SVG/1.1/DTD/svg11.dtd">
<!-- Generated by graphviz version 12.1.1 (0)
 -->
<!-- Title: cpu/native/include/periph_cpu.h Pages: 1 -->
<svg width="184pt" height="155pt"
 viewBox="0.00 0.00 183.50 155.00" xmlns="http://www.w3.org/2000/svg" xmlns:xlink="http://www.w3.org/1999/xlink">
<g id="graph0" class="graph" transform="scale(1 1) rotate(0) translate(4 151)">
<title>cpu/native/include/periph_cpu.h</title>
<!-- Node1 -->
<g id="Node000001" class="node">
<title>Node1</title>
<g id="a_Node000001"><a xlink:title="CPU specific definitions for internal peripheral handling.">
<polygon fill="#999999" stroke="#666666" points="143.62,-147 38.38,-147 38.38,-113.5 143.62,-113.5 143.62,-147"/>
<text text-anchor="start" x="46.38" y="-133.5" font-family="Helvetica,sans-Serif" font-size="10.00">cpu/native/include</text>
<text text-anchor="middle" x="91" y="-120.75" font-family="Helvetica,sans-Serif" font-size="10.00">/periph_cpu.h</text>
</a>
</g>
</g>
<!-- Node2 -->
<g id="Node000002" class="node">
<title>Node2</title>
<g id="a_Node000002"><a xlink:href="cpu_2native_2include_2periph__conf_8h.html" target="_top" xlink:title="Native CPU peripheral configuration.">
<polygon fill="white" stroke="#666666" points="84.62,-77.5 3.38,-77.5 3.38,-56.75 84.62,-56.75 84.62,-77.5"/>
<text text-anchor="middle" x="44" y="-64" font-family="Helvetica,sans-Serif" font-size="10.00">periph_conf.h</text>
</a>
</g>
</g>
<!-- Node1&#45;&gt;Node2 -->
<g id="edge1_Node000001_Node000002" class="edge">
<title>Node1&#45;&gt;Node2</title>
<g id="a_edge1_Node000001_Node000002"><a xlink:title=" ">
<path fill="none" stroke="#63b8ff" d="M78.65,-113.19C72.47,-105.16 64.96,-95.38 58.51,-86.99"/>
<polygon fill="#63b8ff" stroke="#63b8ff" points="61.36,-84.96 52.49,-79.17 55.81,-89.23 61.36,-84.96"/>
</a>
</g>
</g>
<!-- Node4 -->
<g id="Node000004" class="node">
<title>Node4</title>
<g id="a_Node000004"><a xlink:title=" ">
<polygon fill="#e0e0e0" stroke="#999999" points="175.5,-77.5 102.5,-77.5 102.5,-56.75 175.5,-56.75 175.5,-77.5"/>
<text text-anchor="middle" x="139" y="-64" font-family="Helvetica,sans-Serif" font-size="10.00">linux/gpio.h</text>
</a>
</g>
</g>
<!-- Node1&#45;&gt;Node4 -->
<g id="edge3_Node000001_Node000004" class="edge">
<title>Node1&#45;&gt;Node4</title>
<g id="a_edge3_Node000001_Node000004"><a xlink:title=" ">
<path fill="none" stroke="#63b8ff" d="M103.61,-113.19C109.92,-105.16 117.6,-95.38 124.18,-86.99"/>
<polygon fill="#63b8ff" stroke="#63b8ff" points="126.91,-89.18 130.34,-79.16 121.41,-84.86 126.91,-89.18"/>
</a>
</g>
</g>
<!-- Node3 -->
<g id="Node000003" class="node">
<title>Node3</title>
<g id="a_Node000003"><a xlink:href="units_8h.html" target="_top" xlink:title="Unit helper macros.">
<polygon fill="white" stroke="#666666" points="88,-20.75 0,-20.75 0,0 88,0 88,-20.75"/>
<text text-anchor="middle" x="44" y="-7.25" font-family="Helvetica,sans-Serif" font-size="10.00">macros/units.h</text>
</a>
</g>
</g>
<!-- Node2&#45;&gt;Node3 -->
<g id="edge2_Node000002_Node000003" class="edge">
<title>Node2&#45;&gt;Node3</title>
<g id="a_edge2_Node000002_Node000003"><a xlink:title=" ">
<path fill="none" stroke="#63b8ff" d="M44,-56.34C44,-49.72 44,-40.72 44,-32.52"/>
<polygon fill="#63b8ff" stroke="#63b8ff" points="47.5,-32.59 44,-22.59 40.5,-32.59 47.5,-32.59"/>
</a>
</g>
</g>
</g>
</svg>
