<?xml version="1.0" encoding="UTF-8" standalone="no"?>
<!DOCTYPE svg PUBLIC "-//W3C//DTD SVG 1.1//EN"
 "http://www.w3.org/Graphics/SVG/1.1/DTD/svg11.dtd">
<!-- Generated by graphviz version 12.1.1 (0)
 -->
<!-- Title: boards/native/include/eui_provider_params.h Pages: 1 -->
<svg width="317pt" height="325pt"
 viewBox="0.00 0.00 316.62 325.25" xmlns="http://www.w3.org/2000/svg" xmlns:xlink="http://www.w3.org/1999/xlink">
<g id="graph0" class="graph" transform="scale(1 1) rotate(0) translate(4 321.25)">
<title>boards/native/include/eui_provider_params.h</title>
<!-- Node1 -->
<g id="Node000001" class="node">
<title>Node1</title>
<g id="a_Node000001"><a xlink:title="EUI providers found on the board.">
<polygon fill="#999999" stroke="#666666" points="134.5,-317.25 3.75,-317.25 3.75,-283.75 134.5,-283.75 134.5,-317.25"/>
<text text-anchor="start" x="11.75" y="-303.75" font-family="Helvetica,sans-Serif" font-size="10.00">boards/native/include</text>
<text text-anchor="middle" x="69.12" y="-291" font-family="Helvetica,sans-Serif" font-size="10.00">/eui_provider_params.h</text>
</a>
</g>
</g>
<!-- Node2 -->
<g id="Node000002" class="node">
<title>Node2</title>
<g id="a_Node000002"><a xlink:href="native__cli__eui__provider_8h.html" target="_top" xlink:title="Command&#45;line EUI provider for native.">
<polygon fill="white" stroke="#666666" points="138.25,-247.75 0,-247.75 0,-227 138.25,-227 138.25,-247.75"/>
<text text-anchor="middle" x="69.12" y="-234.25" font-family="Helvetica,sans-Serif" font-size="10.00">native_cli_eui_provider.h</text>
</a>
</g>
</g>
<!-- Node1&#45;&gt;Node2 -->
<g id="edge1_Node000001_Node000002" class="edge">
<title>Node1&#45;&gt;Node2</title>
<g id="a_edge1_Node000001_Node000002"><a xlink:title=" ">
<path fill="none" stroke="#63b8ff" d="M69.12,-283.44C69.12,-276.1 69.12,-267.32 69.12,-259.46"/>
<polygon fill="#63b8ff" stroke="#63b8ff" points="72.63,-259.73 69.13,-249.73 65.63,-259.73 72.63,-259.73"/>
</a>
</g>
</g>
<!-- Node3 -->
<g id="Node000003" class="node">
<title>Node3</title>
<g id="a_Node000003"><a xlink:href="eui64_8h.html" target="_top" xlink:title="EUI&#45;64 data type definition.">
<polygon fill="white" stroke="#666666" points="104.5,-191 33.75,-191 33.75,-170.25 104.5,-170.25 104.5,-191"/>
<text text-anchor="middle" x="69.12" y="-177.5" font-family="Helvetica,sans-Serif" font-size="10.00">net/eui64.h</text>
</a>
</g>
</g>
<!-- Node2&#45;&gt;Node3 -->
<g id="edge2_Node000002_Node000003" class="edge">
<title>Node2&#45;&gt;Node3</title>
<g id="a_edge2_Node000002_Node000003"><a xlink:title=" ">
<path fill="none" stroke="#63b8ff" d="M69.12,-226.59C69.12,-219.97 69.12,-210.97 69.12,-202.77"/>
<polygon fill="#63b8ff" stroke="#63b8ff" points="72.63,-202.84 69.13,-192.84 65.63,-202.84 72.63,-202.84"/>
</a>
</g>
</g>
<!-- Node4 -->
<g id="Node000004" class="node">
<title>Node4</title>
<g id="a_Node000004"><a xlink:title=" ">
<polygon fill="#e0e0e0" stroke="#999999" points="150.5,-20.75 97.75,-20.75 97.75,0 150.5,0 150.5,-20.75"/>
<text text-anchor="middle" x="124.12" y="-7.25" font-family="Helvetica,sans-Serif" font-size="10.00">stdint.h</text>
</a>
</g>
</g>
<!-- Node3&#45;&gt;Node4 -->
<g id="edge3_Node000003_Node000004" class="edge">
<title>Node3&#45;&gt;Node4</title>
<g id="a_edge3_Node000003_Node000004"><a xlink:title=" ">
<path fill="none" stroke="#63b8ff" d="M67.06,-170.07C62.91,-148.55 55.47,-95.16 74.12,-56.75 79.66,-45.36 89.42,-35.51 98.86,-27.92"/>
<polygon fill="#63b8ff" stroke="#63b8ff" points="100.87,-30.79 106.81,-22.01 96.69,-25.17 100.87,-30.79"/>
</a>
</g>
</g>
<!-- Node5 -->
<g id="Node000005" class="node">
<title>Node5</title>
<g id="a_Node000005"><a xlink:href="byteorder_8h.html" target="_top" xlink:title="Functions to work with different byte orders.">
<polygon fill="white" stroke="#666666" points="151.25,-134.25 79,-134.25 79,-113.5 151.25,-113.5 151.25,-134.25"/>
<text text-anchor="middle" x="115.12" y="-120.75" font-family="Helvetica,sans-Serif" font-size="10.00">byteorder.h</text>
</a>
</g>
</g>
<!-- Node3&#45;&gt;Node5 -->
<g id="edge4_Node000003_Node000005" class="edge">
<title>Node3&#45;&gt;Node5</title>
<g id="a_edge4_Node000003_Node000005"><a xlink:title=" ">
<path fill="none" stroke="#63b8ff" d="M77.35,-169.84C83.56,-162.44 92.27,-152.07 99.76,-143.16"/>
<polygon fill="#63b8ff" stroke="#63b8ff" points="102.25,-145.65 106,-135.74 96.89,-141.14 102.25,-145.65"/>
</a>
</g>
</g>
<!-- Node5&#45;&gt;Node4 -->
<g id="edge6_Node000005_Node000004" class="edge">
<title>Node5&#45;&gt;Node4</title>
<g id="a_edge6_Node000005_Node000004"><a xlink:title=" ">
<path fill="none" stroke="#63b8ff" d="M104.04,-113.32C90.86,-100.72 71.64,-77.7 80.12,-56.75 84.54,-45.85 92.98,-36.12 101.29,-28.49"/>
<polygon fill="#63b8ff" stroke="#63b8ff" points="103.53,-31.18 108.91,-22.06 99.01,-25.83 103.53,-31.18"/>
</a>
</g>
</g>
<!-- Node6 -->
<g id="Node000006" class="node">
<title>Node6</title>
<g id="a_Node000006"><a xlink:title=" ">
<polygon fill="#e0e0e0" stroke="#999999" points="141.5,-77.5 88.75,-77.5 88.75,-56.75 141.5,-56.75 141.5,-77.5"/>
<text text-anchor="middle" x="115.12" y="-64" font-family="Helvetica,sans-Serif" font-size="10.00">string.h</text>
</a>
</g>
</g>
<!-- Node5&#45;&gt;Node6 -->
<g id="edge5_Node000005_Node000006" class="edge">
<title>Node5&#45;&gt;Node6</title>
<g id="a_edge5_Node000005_Node000006"><a xlink:title=" ">
<path fill="none" stroke="#63b8ff" d="M115.12,-113.09C115.12,-106.47 115.12,-97.47 115.12,-89.27"/>
<polygon fill="#63b8ff" stroke="#63b8ff" points="118.63,-89.34 115.13,-79.34 111.63,-89.34 118.63,-89.34"/>
</a>
</g>
</g>
<!-- Node7 -->
<g id="Node000007" class="node">
<title>Node7</title>
<g id="a_Node000007"><a xlink:href="endian_8h.html" target="_top" xlink:title="libc header for endian conversion">
<polygon fill="white" stroke="#666666" points="217.12,-77.5 159.12,-77.5 159.12,-56.75 217.12,-56.75 217.12,-77.5"/>
<text text-anchor="middle" x="188.12" y="-64" font-family="Helvetica,sans-Serif" font-size="10.00">endian.h</text>
</a>
</g>
</g>
<!-- Node5&#45;&gt;Node7 -->
<g id="edge7_Node000005_Node000007" class="edge">
<title>Node5&#45;&gt;Node7</title>
<g id="a_edge7_Node000005_Node000007"><a xlink:title=" ">
<path fill="none" stroke="#63b8ff" d="M128.18,-113.09C138.76,-105.15 153.92,-93.78 166.34,-84.46"/>
<polygon fill="#63b8ff" stroke="#63b8ff" points="168.08,-87.54 173.98,-78.74 163.88,-81.94 168.08,-87.54"/>
</a>
</g>
</g>
<!-- Node8 -->
<g id="Node000008" class="node">
<title>Node8</title>
<g id="a_Node000008"><a xlink:href="unaligned_8h.html" target="_top" xlink:title="Unaligned but safe memory access functions.">
<polygon fill="white" stroke="#666666" points="308.62,-77.5 235.62,-77.5 235.62,-56.75 308.62,-56.75 308.62,-77.5"/>
<text text-anchor="middle" x="272.12" y="-64" font-family="Helvetica,sans-Serif" font-size="10.00">unaligned.h</text>
</a>
</g>
</g>
<!-- Node5&#45;&gt;Node8 -->
<g id="edge9_Node000005_Node000008" class="edge">
<title>Node5&#45;&gt;Node8</title>
<g id="a_edge9_Node000005_Node000008"><a xlink:title=" ">
<path fill="none" stroke="#63b8ff" d="M143.19,-113.09C168.34,-104.32 205.47,-91.37 233.43,-81.62"/>
<polygon fill="#63b8ff" stroke="#63b8ff" points="234.32,-85.02 242.61,-78.42 232.01,-78.41 234.32,-85.02"/>
</a>
</g>
</g>
<!-- Node7&#45;&gt;Node4 -->
<g id="edge8_Node000007_Node000004" class="edge">
<title>Node7&#45;&gt;Node4</title>
<g id="a_edge8_Node000007_Node000004"><a xlink:title=" ">
<path fill="none" stroke="#63b8ff" d="M176.68,-56.34C167.67,-48.63 154.89,-37.7 144.19,-28.54"/>
<polygon fill="#63b8ff" stroke="#63b8ff" points="146.49,-25.9 136.62,-22.06 141.94,-31.22 146.49,-25.9"/>
</a>
</g>
</g>
<!-- Node8&#45;&gt;Node4 -->
<g id="edge10_Node000008_Node000004" class="edge">
<title>Node8&#45;&gt;Node4</title>
<g id="a_edge10_Node000008_Node000004"><a xlink:title=" ">
<path fill="none" stroke="#63b8ff" d="M245.67,-56.34C222.09,-47.62 187.36,-34.77 161.06,-25.04"/>
<polygon fill="#63b8ff" stroke="#63b8ff" points="162.37,-21.79 151.77,-21.6 159.94,-28.36 162.37,-21.79"/>
</a>
</g>
</g>
</g>
</svg>
