<?xml version="1.0" encoding="UTF-8" standalone="no"?>
<!DOCTYPE svg PUBLIC "-//W3C//DTD SVG 1.1//EN"
 "http://www.w3.org/Graphics/SVG/1.1/DTD/svg11.dtd">
<!-- Generated by graphviz version 12.1.1 (0)
 -->
<!-- Title: sys/include/net/netstats/neighbor.h Pages: 1 -->
<svg width="1109pt" height="496pt"
 viewBox="0.00 0.00 1108.75 495.50" xmlns="http://www.w3.org/2000/svg" xmlns:xlink="http://www.w3.org/1999/xlink">
<g id="graph0" class="graph" transform="scale(1 1) rotate(0) translate(4 491.5)">
<title>sys/include/net/netstats/neighbor.h</title>
<!-- Node1 -->
<g id="Node000001" class="node">
<title>Node1</title>
<g id="a_Node000001"><a xlink:title="Records statistics about link layer neighbors.">
<polygon fill="#999999" stroke="#666666" points="691.5,-487.5 559.25,-487.5 559.25,-454 691.5,-454 691.5,-487.5"/>
<text text-anchor="start" x="567.25" y="-474" font-family="Helvetica,sans-Serif" font-size="10.00">sys/include/net/netstats</text>
<text text-anchor="middle" x="625.38" y="-461.25" font-family="Helvetica,sans-Serif" font-size="10.00">/neighbor.h</text>
</a>
</g>
</g>
<!-- Node2 -->
<g id="Node000002" class="node">
<title>Node2</title>
<g id="a_Node000002"><a xlink:title=" ">
<polygon fill="#e0e0e0" stroke="#999999" points="52.75,-77.5 0,-77.5 0,-56.75 52.75,-56.75 52.75,-77.5"/>
<text text-anchor="middle" x="26.38" y="-64" font-family="Helvetica,sans-Serif" font-size="10.00">string.h</text>
</a>
</g>
</g>
<!-- Node1&#45;&gt;Node2 -->
<g id="edge1_Node000001_Node000002" class="edge">
<title>Node1&#45;&gt;Node2</title>
<g id="a_edge1_Node000001_Node000002"><a xlink:title=" ">
<path fill="none" stroke="#63b8ff" d="M558.92,-464.06C398.72,-449.46 4.38,-407.84 4.38,-351.88 4.38,-351.88 4.38,-351.88 4.38,-179.62 4.38,-147.33 13.37,-110.75 19.86,-88.57"/>
<polygon fill="#63b8ff" stroke="#63b8ff" points="23.12,-89.88 22.69,-79.29 16.42,-87.83 23.12,-89.88"/>
</a>
</g>
</g>
<!-- Node3 -->
<g id="Node000003" class="node">
<title>Node3</title>
<g id="a_Node000003"><a xlink:href="netif_8h.html" target="_top" xlink:title="Common network interface API definitions.">
<polygon fill="white" stroke="#666666" points="658.12,-418 592.62,-418 592.62,-397.25 658.12,-397.25 658.12,-418"/>
<text text-anchor="middle" x="625.38" y="-404.5" font-family="Helvetica,sans-Serif" font-size="10.00">net/netif.h</text>
</a>
</g>
</g>
<!-- Node1&#45;&gt;Node3 -->
<g id="edge2_Node000001_Node000003" class="edge">
<title>Node1&#45;&gt;Node3</title>
<g id="a_edge2_Node000001_Node000003"><a xlink:title=" ">
<path fill="none" stroke="#63b8ff" d="M625.38,-453.69C625.38,-446.35 625.38,-437.57 625.38,-429.71"/>
<polygon fill="#63b8ff" stroke="#63b8ff" points="628.88,-429.98 625.38,-419.98 621.88,-429.98 628.88,-429.98"/>
</a>
</g>
</g>
<!-- Node23 -->
<g id="Node000023" class="node">
<title>Node23</title>
<g id="a_Node000023"><a xlink:href="timex_8h.html" target="_top" xlink:title="Utility library for comparing and computing timestamps.">
<polygon fill="white" stroke="#666666" points="974.12,-247.75 920.62,-247.75 920.62,-227 974.12,-227 974.12,-247.75"/>
<text text-anchor="middle" x="947.38" y="-234.25" font-family="Helvetica,sans-Serif" font-size="10.00">timex.h</text>
</a>
</g>
</g>
<!-- Node1&#45;&gt;Node23 -->
<g id="edge46_Node000001_Node000023" class="edge">
<title>Node1&#45;&gt;Node23</title>
<g id="a_edge46_Node000001_Node000023"><a xlink:title=" ">
<path fill="none" stroke="#63b8ff" d="M647.76,-453.66C706.54,-411.43 864.84,-297.68 924.34,-254.92"/>
<polygon fill="#63b8ff" stroke="#63b8ff" points="926.33,-257.8 932.41,-249.13 922.25,-252.12 926.33,-257.8"/>
</a>
</g>
</g>
<!-- Node3&#45;&gt;Node2 -->
<g id="edge4_Node000003_Node000002" class="edge">
<title>Node3&#45;&gt;Node2</title>
<g id="a_edge4_Node000003_Node000002"><a xlink:title=" ">
<path fill="none" stroke="#63b8ff" d="M592.36,-403.85C469.03,-393.03 42.38,-351.54 42.38,-295.12 42.38,-295.12 42.38,-295.12 42.38,-179.62 42.38,-147.76 35.89,-111.29 31.18,-88.99"/>
<polygon fill="#63b8ff" stroke="#63b8ff" points="34.63,-88.39 29.06,-79.38 27.8,-89.9 34.63,-88.39"/>
</a>
</g>
</g>
<!-- Node4 -->
<g id="Node000004" class="node">
<title>Node4</title>
<g id="a_Node000004"><a xlink:title=" ">
<polygon fill="#e0e0e0" stroke="#999999" points="540.75,-20.75 488,-20.75 488,0 540.75,0 540.75,-20.75"/>
<text text-anchor="middle" x="514.38" y="-7.25" font-family="Helvetica,sans-Serif" font-size="10.00">stdint.h</text>
</a>
</g>
</g>
<!-- Node3&#45;&gt;Node4 -->
<g id="edge3_Node000003_Node000004" class="edge">
<title>Node3&#45;&gt;Node4</title>
<g id="a_edge3_Node000003_Node000004"><a xlink:title=" ">
<path fill="none" stroke="#63b8ff" d="M629.1,-396.97C641.12,-364.43 676.78,-255.96 653.38,-170.25 637.94,-113.74 627.19,-98.77 586.38,-56.75 574.64,-44.67 559.09,-34.36 545.44,-26.63"/>
<polygon fill="#63b8ff" stroke="#63b8ff" points="547.26,-23.63 536.8,-21.95 543.93,-29.79 547.26,-23.63"/>
</a>
</g>
</g>
<!-- Node5 -->
<g id="Node000005" class="node">
<title>Node5</title>
<g id="a_Node000005"><a xlink:href="unistd_8h_source.html" target="_top" xlink:title=" ">
<polygon fill="white" stroke="#666666" points="839.88,-247.75 784.88,-247.75 784.88,-227 839.88,-227 839.88,-247.75"/>
<text text-anchor="middle" x="812.38" y="-234.25" font-family="Helvetica,sans-Serif" font-size="10.00">unistd.h</text>
</a>
</g>
</g>
<!-- Node3&#45;&gt;Node5 -->
<g id="edge5_Node000003_Node000005" class="edge">
<title>Node3&#45;&gt;Node5</title>
<g id="a_edge5_Node000003_Node000005"><a xlink:title=" ">
<path fill="none" stroke="#63b8ff" d="M636.24,-396.85C666.83,-369.32 754.05,-290.86 793.08,-255.74"/>
<polygon fill="#63b8ff" stroke="#63b8ff" points="795.26,-258.48 800.36,-249.19 790.58,-253.27 795.26,-258.48"/>
</a>
</g>
</g>
<!-- Node8 -->
<g id="Node000008" class="node">
<title>Node8</title>
<g id="a_Node000008"><a xlink:href="list_8h.html" target="_top" xlink:title="Intrusive linked list.">
<polygon fill="white" stroke="#666666" points="750.38,-361.25 710.38,-361.25 710.38,-340.5 750.38,-340.5 750.38,-361.25"/>
<text text-anchor="middle" x="730.38" y="-347.75" font-family="Helvetica,sans-Serif" font-size="10.00">list.h</text>
</a>
</g>
</g>
<!-- Node3&#45;&gt;Node8 -->
<g id="edge11_Node000003_Node000008" class="edge">
<title>Node3&#45;&gt;Node8</title>
<g id="a_edge11_Node000003_Node000008"><a xlink:title=" ">
<path fill="none" stroke="#63b8ff" d="M644.15,-396.84C660.12,-388.51 683.33,-376.41 701.64,-366.86"/>
<polygon fill="#63b8ff" stroke="#63b8ff" points="703.17,-370.01 710.42,-362.28 699.94,-363.8 703.17,-370.01"/>
</a>
</g>
</g>
<!-- Node9 -->
<g id="Node000009" class="node">
<title>Node9</title>
<g id="a_Node000009"><a xlink:href="netopt_8h.html" target="_top" xlink:title="Definition of global configuration options.">
<polygon fill="white" stroke="#666666" points="644,-191 568.75,-191 568.75,-170.25 644,-170.25 644,-191"/>
<text text-anchor="middle" x="606.38" y="-177.5" font-family="Helvetica,sans-Serif" font-size="10.00">net/netopt.h</text>
</a>
</g>
</g>
<!-- Node3&#45;&gt;Node9 -->
<g id="edge12_Node000003_Node000009" class="edge">
<title>Node3&#45;&gt;Node9</title>
<g id="a_edge12_Node000003_Node000009"><a xlink:title=" ">
<path fill="none" stroke="#63b8ff" d="M624.56,-396.96C621.7,-363.13 612.12,-249.61 608.13,-202.44"/>
<polygon fill="#63b8ff" stroke="#63b8ff" points="611.64,-202.44 607.32,-192.77 604.67,-203.02 611.64,-202.44"/>
</a>
</g>
</g>
<!-- Node11 -->
<g id="Node000011" class="node">
<title>Node11</title>
<g id="a_Node000011"><a xlink:href="ipv6_8h.html" target="_top" xlink:title="IPv6 include gathering header.">
<polygon fill="white" stroke="#666666" points="370.75,-361.25 306,-361.25 306,-340.5 370.75,-340.5 370.75,-361.25"/>
<text text-anchor="middle" x="338.38" y="-347.75" font-family="Helvetica,sans-Serif" font-size="10.00">net/ipv6.h</text>
</a>
</g>
</g>
<!-- Node3&#45;&gt;Node11 -->
<g id="edge15_Node000003_Node000011" class="edge">
<title>Node3&#45;&gt;Node11</title>
<g id="a_edge15_Node000003_Node000011"><a xlink:title=" ">
<path fill="none" stroke="#63b8ff" d="M592.17,-400.29C540.27,-390.39 439.89,-371.24 382.14,-360.22"/>
<polygon fill="#63b8ff" stroke="#63b8ff" points="382.81,-356.79 372.33,-358.35 381.49,-363.66 382.81,-356.79"/>
</a>
</g>
</g>
<!-- Node5&#45;&gt;Node4 -->
<g id="edge7_Node000005_Node000004" class="edge">
<title>Node5&#45;&gt;Node4</title>
<g id="a_edge7_Node000005_Node000004"><a xlink:title=" ">
<path fill="none" stroke="#63b8ff" d="M840.29,-233.24C884.51,-227.02 963.3,-210.11 939.38,-170.25 857.59,-34.01 640.8,-13.83 552.55,-11.4"/>
<polygon fill="#63b8ff" stroke="#63b8ff" points="552.81,-7.9 542.74,-11.2 552.66,-14.9 552.81,-7.9"/>
</a>
</g>
</g>
<!-- Node6 -->
<g id="Node000006" class="node">
<title>Node6</title>
<g id="a_Node000006"><a xlink:title=" ">
<polygon fill="#e0e0e0" stroke="#999999" points="765.88,-134.25 710.88,-134.25 710.88,-113.5 765.88,-113.5 765.88,-134.25"/>
<text text-anchor="middle" x="738.38" y="-120.75" font-family="Helvetica,sans-Serif" font-size="10.00">stddef.h</text>
</a>
</g>
</g>
<!-- Node5&#45;&gt;Node6 -->
<g id="edge6_Node000005_Node000006" class="edge">
<title>Node5&#45;&gt;Node6</title>
<g id="a_edge6_Node000005_Node000006"><a xlink:title=" ">
<path fill="none" stroke="#63b8ff" d="M800.43,-226.56C790.58,-217.97 776.73,-204.76 767.38,-191 757.67,-176.73 750.02,-158.68 745.01,-145.05"/>
<polygon fill="#63b8ff" stroke="#63b8ff" points="748.4,-144.14 741.81,-135.84 741.79,-146.44 748.4,-144.14"/>
</a>
</g>
</g>
<!-- Node7 -->
<g id="Node000007" class="node">
<title>Node7</title>
<g id="a_Node000007"><a xlink:href="cpu_2avr8__common_2avr__libc__extra_2include_2sys_2types_8h_source.html" target="_top" xlink:title=" ">
<polygon fill="white" stroke="#666666" points="848.12,-191 776.62,-191 776.62,-170.25 848.12,-170.25 848.12,-191"/>
<text text-anchor="middle" x="812.38" y="-177.5" font-family="Helvetica,sans-Serif" font-size="10.00">sys/types.h</text>
</a>
</g>
</g>
<!-- Node5&#45;&gt;Node7 -->
<g id="edge8_Node000005_Node000007" class="edge">
<title>Node5&#45;&gt;Node7</title>
<g id="a_edge8_Node000005_Node000007"><a xlink:title=" ">
<path fill="none" stroke="#63b8ff" d="M812.38,-226.59C812.38,-219.97 812.38,-210.97 812.38,-202.77"/>
<polygon fill="#63b8ff" stroke="#63b8ff" points="815.88,-202.84 812.38,-192.84 808.88,-202.84 815.88,-202.84"/>
</a>
</g>
</g>
<!-- Node7&#45;&gt;Node4 -->
<g id="edge9_Node000007_Node000004" class="edge">
<title>Node7&#45;&gt;Node4</title>
<g id="a_edge9_Node000007_Node000004"><a xlink:title=" ">
<path fill="none" stroke="#63b8ff" d="M808.83,-170.15C803.32,-156.41 791.63,-130.72 775.38,-113.5 714.72,-49.25 608.8,-24.77 552.34,-15.96"/>
<polygon fill="#63b8ff" stroke="#63b8ff" points="552.98,-12.52 542.58,-14.53 551.96,-19.44 552.98,-12.52"/>
</a>
</g>
</g>
<!-- Node7&#45;&gt;Node6 -->
<g id="edge10_Node000007_Node000006" class="edge">
<title>Node7&#45;&gt;Node6</title>
<g id="a_edge10_Node000007_Node000006"><a xlink:title=" ">
<path fill="none" stroke="#63b8ff" d="M799.15,-169.84C788.41,-161.9 773.05,-150.53 760.46,-141.21"/>
<polygon fill="#63b8ff" stroke="#63b8ff" points="762.83,-138.61 752.71,-135.48 758.66,-144.24 762.83,-138.61"/>
</a>
</g>
</g>
<!-- Node9&#45;&gt;Node4 -->
<g id="edge13_Node000009_Node000004" class="edge">
<title>Node9&#45;&gt;Node4</title>
<g id="a_edge13_Node000009_Node000004"><a xlink:title=" ">
<path fill="none" stroke="#63b8ff" d="M605.02,-169.93C601.61,-148.12 591.11,-94.18 566.38,-56.75 559.07,-45.69 548.36,-35.72 538.56,-27.95"/>
<polygon fill="#63b8ff" stroke="#63b8ff" points="540.9,-25.33 530.8,-22.13 536.7,-30.93 540.9,-25.33"/>
</a>
</g>
</g>
<!-- Node10 -->
<g id="Node000010" class="node">
<title>Node10</title>
<g id="a_Node000010"><a xlink:title=" ">
<polygon fill="#e0e0e0" stroke="#999999" points="476.88,-134.25 415.88,-134.25 415.88,-113.5 476.88,-113.5 476.88,-134.25"/>
<text text-anchor="middle" x="446.38" y="-120.75" font-family="Helvetica,sans-Serif" font-size="10.00">stdbool.h</text>
</a>
</g>
</g>
<!-- Node9&#45;&gt;Node10 -->
<g id="edge14_Node000009_Node000010" class="edge">
<title>Node9&#45;&gt;Node10</title>
<g id="a_edge14_Node000009_Node000010"><a xlink:title=" ">
<path fill="none" stroke="#63b8ff" d="M577.77,-169.84C552.14,-161.07 514.3,-148.12 485.81,-138.37"/>
<polygon fill="#63b8ff" stroke="#63b8ff" points="487.03,-135.09 476.43,-135.16 484.76,-141.71 487.03,-135.09"/>
</a>
</g>
</g>
<!-- Node12 -->
<g id="Node000012" class="node">
<title>Node12</title>
<g id="a_Node000012"><a xlink:href="ipv6_2addr_8h.html" target="_top" xlink:title="Definitions for IPv6 addresses.">
<polygon fill="white" stroke="#666666" points="346.12,-247.75 256.62,-247.75 256.62,-227 346.12,-227 346.12,-247.75"/>
<text text-anchor="middle" x="301.38" y="-234.25" font-family="Helvetica,sans-Serif" font-size="10.00">net/ipv6/addr.h</text>
</a>
</g>
</g>
<!-- Node11&#45;&gt;Node12 -->
<g id="edge16_Node000011_Node000012" class="edge">
<title>Node11&#45;&gt;Node12</title>
<g id="a_edge16_Node000011_Node000012"><a xlink:title=" ">
<path fill="none" stroke="#63b8ff" d="M335.22,-340.37C329.27,-322.44 316.27,-283.25 308.22,-259.01"/>
<polygon fill="#63b8ff" stroke="#63b8ff" points="311.58,-258 305.1,-249.61 304.93,-260.21 311.58,-258"/>
</a>
</g>
</g>
<!-- Node17 -->
<g id="Node000017" class="node">
<title>Node17</title>
<g id="a_Node000017"><a xlink:href="ipv6_2ext_8h.html" target="_top" xlink:title="IPv6 extension header definitions.">
<polygon fill="white" stroke="#666666" points="191.12,-247.75 107.62,-247.75 107.62,-227 191.12,-227 191.12,-247.75"/>
<text text-anchor="middle" x="149.38" y="-234.25" font-family="Helvetica,sans-Serif" font-size="10.00">net/ipv6/ext.h</text>
</a>
</g>
</g>
<!-- Node11&#45;&gt;Node17 -->
<g id="edge31_Node000011_Node000017" class="edge">
<title>Node11&#45;&gt;Node17</title>
<g id="a_edge31_Node000011_Node000017"><a xlink:title=" ">
<path fill="none" stroke="#63b8ff" d="M321.93,-340.18C289.12,-320.82 215.27,-277.25 175.66,-253.88"/>
<polygon fill="#63b8ff" stroke="#63b8ff" points="177.61,-250.97 167.22,-248.9 174.05,-257 177.61,-250.97"/>
</a>
</g>
</g>
<!-- Node20 -->
<g id="Node000020" class="node">
<title>Node20</title>
<g id="a_Node000020"><a xlink:href="net_2ipv6_2hdr_8h.html" target="_top" xlink:title="IPv6 header type and helper function definitions.">
<polygon fill="white" stroke="#666666" points="416.12,-304.5 332.62,-304.5 332.62,-283.75 416.12,-283.75 416.12,-304.5"/>
<text text-anchor="middle" x="374.38" y="-291" font-family="Helvetica,sans-Serif" font-size="10.00">net/ipv6/hdr.h</text>
</a>
</g>
</g>
<!-- Node11&#45;&gt;Node20 -->
<g id="edge39_Node000011_Node000020" class="edge">
<title>Node11&#45;&gt;Node20</title>
<g id="a_edge39_Node000011_Node000020"><a xlink:title=" ">
<path fill="none" stroke="#63b8ff" d="M344.81,-340.09C349.52,-332.92 356.06,-322.98 361.79,-314.26"/>
<polygon fill="#63b8ff" stroke="#63b8ff" points="364.59,-316.37 367.16,-306.09 358.74,-312.53 364.59,-316.37"/>
</a>
</g>
</g>
<!-- Node12&#45;&gt;Node2 -->
<g id="edge18_Node000012_Node000002" class="edge">
<title>Node12&#45;&gt;Node2</title>
<g id="a_edge18_Node000012_Node000002"><a xlink:title=" ">
<path fill="none" stroke="#63b8ff" d="M263.79,-226.54C237.94,-218.91 203.36,-206.93 175.38,-191 122.5,-160.89 69.71,-111.72 43.46,-85.64"/>
<polygon fill="#63b8ff" stroke="#63b8ff" points="46.21,-83.45 36.68,-78.82 41.24,-88.38 46.21,-83.45"/>
</a>
</g>
</g>
<!-- Node12&#45;&gt;Node10 -->
<g id="edge17_Node000012_Node000010" class="edge">
<title>Node12&#45;&gt;Node10</title>
<g id="a_edge17_Node000012_Node000010"><a xlink:title=" ">
<path fill="none" stroke="#63b8ff" d="M313.99,-226.68C338.73,-207.65 393.9,-165.23 424.64,-141.59"/>
<polygon fill="#63b8ff" stroke="#63b8ff" points="426.69,-144.42 432.49,-135.55 422.43,-138.88 426.69,-144.42"/>
</a>
</g>
</g>
<!-- Node13 -->
<g id="Node000013" class="node">
<title>Node13</title>
<g id="a_Node000013"><a xlink:href="byteorder_8h.html" target="_top" xlink:title="Functions to work with different byte orders.">
<polygon fill="white" stroke="#666666" points="380.5,-134.25 308.25,-134.25 308.25,-113.5 380.5,-113.5 380.5,-134.25"/>
<text text-anchor="middle" x="344.38" y="-120.75" font-family="Helvetica,sans-Serif" font-size="10.00">byteorder.h</text>
</a>
</g>
</g>
<!-- Node12&#45;&gt;Node13 -->
<g id="edge19_Node000012_Node000013" class="edge">
<title>Node12&#45;&gt;Node13</title>
<g id="a_edge19_Node000012_Node000013"><a xlink:title=" ">
<path fill="none" stroke="#63b8ff" d="M305.04,-226.87C311.99,-208.86 327.21,-169.39 336.55,-145.18"/>
<polygon fill="#63b8ff" stroke="#63b8ff" points="339.72,-146.68 340.05,-136.09 333.19,-144.16 339.72,-146.68"/>
</a>
</g>
</g>
<!-- Node16 -->
<g id="Node000016" class="node">
<title>Node16</title>
<g id="a_Node000016"><a xlink:href="ipv4_2addr_8h.html" target="_top" xlink:title="IPv4 address type and helper functions definitions.">
<polygon fill="white" stroke="#666666" points="512.12,-191 422.62,-191 422.62,-170.25 512.12,-170.25 512.12,-191"/>
<text text-anchor="middle" x="467.38" y="-177.5" font-family="Helvetica,sans-Serif" font-size="10.00">net/ipv4/addr.h</text>
</a>
</g>
</g>
<!-- Node12&#45;&gt;Node16 -->
<g id="edge26_Node000012_Node000016" class="edge">
<title>Node12&#45;&gt;Node16</title>
<g id="a_edge26_Node000012_Node000016"><a xlink:title=" ">
<path fill="none" stroke="#63b8ff" d="M331.05,-226.59C357.76,-217.78 397.25,-204.75 426.86,-194.99"/>
<polygon fill="#63b8ff" stroke="#63b8ff" points="427.84,-198.35 436.24,-191.89 425.64,-191.7 427.84,-198.35"/>
</a>
</g>
</g>
<!-- Node13&#45;&gt;Node2 -->
<g id="edge20_Node000013_Node000002" class="edge">
<title>Node13&#45;&gt;Node2</title>
<g id="a_edge20_Node000013_Node000002"><a xlink:title=" ">
<path fill="none" stroke="#63b8ff" d="M307.9,-116.59C247.2,-106.15 126.08,-85.29 64.39,-74.67"/>
<polygon fill="#63b8ff" stroke="#63b8ff" points="65.17,-71.25 54.72,-73.01 63.98,-78.15 65.17,-71.25"/>
</a>
</g>
</g>
<!-- Node13&#45;&gt;Node4 -->
<g id="edge21_Node000013_Node000004" class="edge">
<title>Node13&#45;&gt;Node4</title>
<g id="a_edge21_Node000013_Node000004"><a xlink:title=" ">
<path fill="none" stroke="#63b8ff" d="M353.39,-113.41C366.82,-99.67 393.31,-73.98 419.38,-56.75 437.9,-44.51 460.23,-33.67 478.59,-25.65"/>
<polygon fill="#63b8ff" stroke="#63b8ff" points="479.93,-28.88 487.77,-21.75 477.19,-22.44 479.93,-28.88"/>
</a>
</g>
</g>
<!-- Node14 -->
<g id="Node000014" class="node">
<title>Node14</title>
<g id="a_Node000014"><a xlink:href="endian_8h.html" target="_top" xlink:title="libc header for endian conversion">
<polygon fill="white" stroke="#666666" points="486.38,-77.5 428.38,-77.5 428.38,-56.75 486.38,-56.75 486.38,-77.5"/>
<text text-anchor="middle" x="457.38" y="-64" font-family="Helvetica,sans-Serif" font-size="10.00">endian.h</text>
</a>
</g>
</g>
<!-- Node13&#45;&gt;Node14 -->
<g id="edge22_Node000013_Node000014" class="edge">
<title>Node13&#45;&gt;Node14</title>
<g id="a_edge22_Node000013_Node000014"><a xlink:title=" ">
<path fill="none" stroke="#63b8ff" d="M364.58,-113.09C381.93,-104.68 407.21,-92.43 427,-82.84"/>
<polygon fill="#63b8ff" stroke="#63b8ff" points="428.51,-86 435.99,-78.49 425.46,-79.7 428.51,-86"/>
</a>
</g>
</g>
<!-- Node15 -->
<g id="Node000015" class="node">
<title>Node15</title>
<g id="a_Node000015"><a xlink:href="unaligned_8h.html" target="_top" xlink:title="Unaligned but safe memory access functions.">
<polygon fill="white" stroke="#666666" points="371.88,-77.5 298.88,-77.5 298.88,-56.75 371.88,-56.75 371.88,-77.5"/>
<text text-anchor="middle" x="335.38" y="-64" font-family="Helvetica,sans-Serif" font-size="10.00">unaligned.h</text>
</a>
</g>
</g>
<!-- Node13&#45;&gt;Node15 -->
<g id="edge24_Node000013_Node000015" class="edge">
<title>Node13&#45;&gt;Node15</title>
<g id="a_edge24_Node000013_Node000015"><a xlink:title=" ">
<path fill="none" stroke="#63b8ff" d="M342.77,-113.09C341.67,-106.39 340.16,-97.26 338.8,-88.98"/>
<polygon fill="#63b8ff" stroke="#63b8ff" points="342.29,-88.62 337.22,-79.32 335.38,-89.76 342.29,-88.62"/>
</a>
</g>
</g>
<!-- Node14&#45;&gt;Node4 -->
<g id="edge23_Node000014_Node000004" class="edge">
<title>Node14&#45;&gt;Node4</title>
<g id="a_edge23_Node000014_Node000004"><a xlink:title=" ">
<path fill="none" stroke="#63b8ff" d="M467.57,-56.34C475.51,-48.71 486.74,-37.92 496.21,-28.82"/>
<polygon fill="#63b8ff" stroke="#63b8ff" points="498.39,-31.58 503.18,-22.13 493.54,-26.53 498.39,-31.58"/>
</a>
</g>
</g>
<!-- Node15&#45;&gt;Node4 -->
<g id="edge25_Node000015_Node000004" class="edge">
<title>Node15&#45;&gt;Node4</title>
<g id="a_edge25_Node000015_Node000004"><a xlink:title=" ">
<path fill="none" stroke="#63b8ff" d="M367.38,-56.34C398.05,-46.95 444.35,-32.79 476.77,-22.88"/>
<polygon fill="#63b8ff" stroke="#63b8ff" points="477.63,-26.28 486.16,-20 475.58,-19.58 477.63,-26.28"/>
</a>
</g>
</g>
<!-- Node16&#45;&gt;Node4 -->
<g id="edge28_Node000016_Node000004" class="edge">
<title>Node16&#45;&gt;Node4</title>
<g id="a_edge28_Node000016_Node000004"><a xlink:title=" ">
<path fill="none" stroke="#63b8ff" d="M471.95,-170.07C476.14,-161.01 482.31,-146.94 486.38,-134.25 497.64,-99.12 506.21,-56.96 510.75,-32.27"/>
<polygon fill="#63b8ff" stroke="#63b8ff" points="514.17,-33.04 512.49,-22.58 507.28,-31.8 514.17,-33.04"/>
</a>
</g>
</g>
<!-- Node16&#45;&gt;Node6 -->
<g id="edge29_Node000016_Node000006" class="edge">
<title>Node16&#45;&gt;Node6</title>
<g id="a_edge29_Node000016_Node000006"><a xlink:title=" ">
<path fill="none" stroke="#63b8ff" d="M512.43,-170.52C564.68,-159.97 649.96,-142.74 699.45,-132.74"/>
<polygon fill="#63b8ff" stroke="#63b8ff" points="700.03,-136.19 709.14,-130.78 698.64,-129.33 700.03,-136.19"/>
</a>
</g>
</g>
<!-- Node16&#45;&gt;Node10 -->
<g id="edge27_Node000016_Node000010" class="edge">
<title>Node16&#45;&gt;Node10</title>
<g id="a_edge27_Node000016_Node000010"><a xlink:title=" ">
<path fill="none" stroke="#63b8ff" d="M463.62,-169.84C460.99,-162.99 457.39,-153.59 454.15,-145.15"/>
<polygon fill="#63b8ff" stroke="#63b8ff" points="457.49,-144.07 450.64,-135.99 450.95,-146.58 457.49,-144.07"/>
</a>
</g>
</g>
<!-- Node16&#45;&gt;Node13 -->
<g id="edge30_Node000016_Node000013" class="edge">
<title>Node16&#45;&gt;Node13</title>
<g id="a_edge30_Node000016_Node000013"><a xlink:title=" ">
<path fill="none" stroke="#63b8ff" d="M445.39,-169.84C426.23,-161.31 398.21,-148.84 376.54,-139.19"/>
<polygon fill="#63b8ff" stroke="#63b8ff" points="378.12,-136.06 367.56,-135.19 375.27,-142.46 378.12,-136.06"/>
</a>
</g>
</g>
<!-- Node17&#45;&gt;Node4 -->
<g id="edge32_Node000017_Node000004" class="edge">
<title>Node17&#45;&gt;Node4</title>
<g id="a_edge32_Node000017_Node000004"><a xlink:title=" ">
<path fill="none" stroke="#63b8ff" d="M144.94,-226.7C135.68,-204.94 116.76,-151.09 137.38,-113.5 159.93,-72.37 182.5,-73.36 226.38,-56.75 311.89,-24.37 420.13,-15.09 476.44,-12.44"/>
<polygon fill="#63b8ff" stroke="#63b8ff" points="476.28,-15.95 486.13,-12.03 475.99,-8.95 476.28,-15.95"/>
</a>
</g>
</g>
<!-- Node18 -->
<g id="Node000018" class="node">
<title>Node18</title>
<g id="a_Node000018"><a xlink:href="ipv6_2ext_2frag_8h.html" target="_top" xlink:title="Fragmentation extension definitions.">
<polygon fill="white" stroke="#666666" points="290.38,-191 184.38,-191 184.38,-170.25 290.38,-170.25 290.38,-191"/>
<text text-anchor="middle" x="237.38" y="-177.5" font-family="Helvetica,sans-Serif" font-size="10.00">net/ipv6/ext/frag.h</text>
</a>
</g>
</g>
<!-- Node17&#45;&gt;Node18 -->
<g id="edge33_Node000017_Node000018" class="edge">
<title>Node17&#45;&gt;Node18</title>
<g id="a_edge33_Node000017_Node000018"><a xlink:title=" ">
<path fill="none" stroke="#63b8ff" d="M165.11,-226.59C178.25,-218.41 197.22,-206.61 212.43,-197.15"/>
<polygon fill="#63b8ff" stroke="#63b8ff" points="213.85,-200.38 220.49,-192.13 210.15,-194.44 213.85,-200.38"/>
</a>
</g>
</g>
<!-- Node19 -->
<g id="Node000019" class="node">
<title>Node19</title>
<g id="a_Node000019"><a xlink:href="ipv6_2ext_2rh_8h.html" target="_top" xlink:title="Routing extension header definitions.">
<polygon fill="white" stroke="#666666" points="242.5,-134.25 146.25,-134.25 146.25,-113.5 242.5,-113.5 242.5,-134.25"/>
<text text-anchor="middle" x="194.38" y="-120.75" font-family="Helvetica,sans-Serif" font-size="10.00">net/ipv6/ext/rh.h</text>
</a>
</g>
</g>
<!-- Node17&#45;&gt;Node19 -->
<g id="edge37_Node000017_Node000019" class="edge">
<title>Node17&#45;&gt;Node19</title>
<g id="a_edge37_Node000017_Node000019"><a xlink:title=" ">
<path fill="none" stroke="#63b8ff" d="M153.01,-226.93C157.98,-214.08 167.21,-190.37 175.38,-170.25 178.74,-161.96 182.54,-152.85 185.84,-144.98"/>
<polygon fill="#63b8ff" stroke="#63b8ff" points="188.98,-146.55 189.65,-135.98 182.53,-143.83 188.98,-146.55"/>
</a>
</g>
</g>
<!-- Node18&#45;&gt;Node4 -->
<g id="edge35_Node000018_Node000004" class="edge">
<title>Node18&#45;&gt;Node4</title>
<g id="a_edge35_Node000018_Node000004"><a xlink:title=" ">
<path fill="none" stroke="#63b8ff" d="M240.21,-169.89C248.05,-143.58 270.71,-71.99 289.38,-56.75 317.54,-33.75 419.92,-20.48 476.37,-14.76"/>
<polygon fill="#63b8ff" stroke="#63b8ff" points="476.55,-18.26 486.16,-13.8 475.87,-11.29 476.55,-18.26"/>
</a>
</g>
</g>
<!-- Node18&#45;&gt;Node10 -->
<g id="edge34_Node000018_Node000010" class="edge">
<title>Node18&#45;&gt;Node10</title>
<g id="a_edge34_Node000018_Node000010"><a xlink:title=" ">
<path fill="none" stroke="#63b8ff" d="M274.74,-169.84C311.29,-160.26 366.83,-145.71 404.77,-135.77"/>
<polygon fill="#63b8ff" stroke="#63b8ff" points="405.2,-139.28 413.99,-133.36 403.43,-132.51 405.2,-139.28"/>
</a>
</g>
</g>
<!-- Node18&#45;&gt;Node13 -->
<g id="edge36_Node000018_Node000013" class="edge">
<title>Node18&#45;&gt;Node13</title>
<g id="a_edge36_Node000018_Node000013"><a xlink:title=" ">
<path fill="none" stroke="#63b8ff" d="M256.5,-169.84C272.86,-161.47 296.65,-149.29 315.35,-139.72"/>
<polygon fill="#63b8ff" stroke="#63b8ff" points="316.76,-142.94 324.06,-135.27 313.57,-136.71 316.76,-142.94"/>
</a>
</g>
</g>
<!-- Node19&#45;&gt;Node4 -->
<g id="edge38_Node000019_Node000004" class="edge">
<title>Node19&#45;&gt;Node4</title>
<g id="a_edge38_Node000019_Node000004"><a xlink:title=" ">
<path fill="none" stroke="#63b8ff" d="M200.29,-113.39C210.02,-98.66 230.91,-70.53 256.38,-56.75 327.26,-18.41 423.62,-11.41 476.23,-10.73"/>
<polygon fill="#63b8ff" stroke="#63b8ff" points="476.2,-14.23 486.19,-10.68 476.17,-7.23 476.2,-14.23"/>
</a>
</g>
</g>
<!-- Node20&#45;&gt;Node4 -->
<g id="edge40_Node000020_Node000004" class="edge">
<title>Node20&#45;&gt;Node4</title>
<g id="a_edge40_Node000020_Node000004"><a xlink:title=" ">
<path fill="none" stroke="#63b8ff" d="M401.94,-283.27C437.07,-269.05 496.25,-239.05 521.38,-191 548.54,-139.05 532.07,-66.62 521.37,-31.74"/>
<polygon fill="#63b8ff" stroke="#63b8ff" points="524.79,-30.94 518.38,-22.5 518.13,-33.1 524.79,-30.94"/>
</a>
</g>
</g>
<!-- Node20&#45;&gt;Node12 -->
<g id="edge45_Node000020_Node000012" class="edge">
<title>Node20&#45;&gt;Node12</title>
<g id="a_edge45_Node000020_Node000012"><a xlink:title=" ">
<path fill="none" stroke="#63b8ff" d="M361.32,-283.34C350.74,-275.4 335.58,-264.03 323.16,-254.71"/>
<polygon fill="#63b8ff" stroke="#63b8ff" points="325.62,-252.19 315.52,-248.99 321.42,-257.79 325.62,-252.19"/>
</a>
</g>
</g>
<!-- Node20&#45;&gt;Node13 -->
<g id="edge41_Node000020_Node000013" class="edge">
<title>Node20&#45;&gt;Node13</title>
<g id="a_edge41_Node000020_Node000013"><a xlink:title=" ">
<path fill="none" stroke="#63b8ff" d="M372.68,-283.6C367.97,-257.23 354.71,-182.83 348.15,-146.03"/>
<polygon fill="#63b8ff" stroke="#63b8ff" points="351.6,-145.44 346.4,-136.21 344.71,-146.67 351.6,-145.44"/>
</a>
</g>
</g>
<!-- Node21 -->
<g id="Node000021" class="node">
<title>Node21</title>
<g id="a_Node000021"><a xlink:href="inet__csum_8h.html" target="_top" xlink:title="Internet Checksum definitions.">
<polygon fill="white" stroke="#666666" points="766.38,-247.75 672.38,-247.75 672.38,-227 766.38,-227 766.38,-247.75"/>
<text text-anchor="middle" x="719.38" y="-234.25" font-family="Helvetica,sans-Serif" font-size="10.00">net/inet_csum.h</text>
</a>
</g>
</g>
<!-- Node20&#45;&gt;Node21 -->
<g id="edge42_Node000020_Node000021" class="edge">
<title>Node20&#45;&gt;Node21</title>
<g id="a_edge42_Node000020_Node000021"><a xlink:title=" ">
<path fill="none" stroke="#63b8ff" d="M416.33,-286.47C477.49,-276.76 591.35,-258.69 660.76,-247.68"/>
<polygon fill="#63b8ff" stroke="#63b8ff" points="661.1,-251.17 670.42,-246.14 660,-244.25 661.1,-251.17"/>
</a>
</g>
</g>
<!-- Node21&#45;&gt;Node6 -->
<g id="edge44_Node000021_Node000006" class="edge">
<title>Node21&#45;&gt;Node6</title>
<g id="a_edge44_Node000021_Node000006"><a xlink:title=" ">
<path fill="none" stroke="#63b8ff" d="M720.99,-226.87C724.04,-209.02 730.67,-170.11 734.8,-145.84"/>
<polygon fill="#63b8ff" stroke="#63b8ff" points="738.22,-146.61 736.45,-136.17 731.32,-145.44 738.22,-146.61"/>
</a>
</g>
</g>
<!-- Node22 -->
<g id="Node000022" class="node">
<title>Node22</title>
<g id="a_Node000022"><a xlink:href="inttypes_8h.html" target="_top" xlink:title="Adds include for missing inttype definitions.">
<polygon fill="white" stroke="#666666" points="930.75,-191 866,-191 866,-170.25 930.75,-170.25 930.75,-191"/>
<text text-anchor="middle" x="898.38" y="-177.5" font-family="Helvetica,sans-Serif" font-size="10.00">inttypes.h</text>
</a>
</g>
</g>
<!-- Node21&#45;&gt;Node22 -->
<g id="edge43_Node000021_Node000022" class="edge">
<title>Node21&#45;&gt;Node22</title>
<g id="a_edge43_Node000021_Node000022"><a xlink:title=" ">
<path fill="none" stroke="#63b8ff" d="M751.38,-226.59C780.43,-217.7 823.51,-204.52 855.53,-194.73"/>
<polygon fill="#63b8ff" stroke="#63b8ff" points="856.36,-198.14 864.9,-191.86 854.32,-191.44 856.36,-198.14"/>
</a>
</g>
</g>
<!-- Node23&#45;&gt;Node4 -->
<g id="edge47_Node000023_Node000004" class="edge">
<title>Node23&#45;&gt;Node4</title>
<g id="a_edge47_Node000023_Node000004"><a xlink:title=" ">
<path fill="none" stroke="#63b8ff" d="M951,-226.73C955.37,-213.65 961.41,-189.69 955.38,-170.25 933.12,-98.58 900.53,-83.39 830.38,-56.75 734.93,-20.5 613.21,-12.92 552.46,-11.53"/>
<polygon fill="#63b8ff" stroke="#63b8ff" points="552.73,-8.03 542.66,-11.35 552.6,-15.03 552.73,-8.03"/>
</a>
</g>
</g>
<!-- Node23&#45;&gt;Node22 -->
<g id="edge48_Node000023_Node000022" class="edge">
<title>Node23&#45;&gt;Node22</title>
<g id="a_edge48_Node000023_Node000022"><a xlink:title=" ">
<path fill="none" stroke="#63b8ff" d="M938.61,-226.59C931.93,-219.11 922.52,-208.61 914.49,-199.63"/>
<polygon fill="#63b8ff" stroke="#63b8ff" points="917.35,-197.57 908.07,-192.46 912.13,-202.24 917.35,-197.57"/>
</a>
</g>
</g>
<!-- Node24 -->
<g id="Node000024" class="node">
<title>Node24</title>
<g id="a_Node000024"><a xlink:href="time__units_8h.html" target="_top" xlink:title="Utility header providing time unit defines.">
<polygon fill="white" stroke="#666666" points="1100.75,-191 1024,-191 1024,-170.25 1100.75,-170.25 1100.75,-191"/>
<text text-anchor="middle" x="1062.38" y="-177.5" font-family="Helvetica,sans-Serif" font-size="10.00">time_units.h</text>
</a>
</g>
</g>
<!-- Node23&#45;&gt;Node24 -->
<g id="edge49_Node000023_Node000024" class="edge">
<title>Node23&#45;&gt;Node24</title>
<g id="a_edge49_Node000023_Node000024"><a xlink:title=" ">
<path fill="none" stroke="#63b8ff" d="M967.93,-226.59C985.68,-218.14 1011.56,-205.82 1031.74,-196.21"/>
<polygon fill="#63b8ff" stroke="#63b8ff" points="1033.1,-199.44 1040.63,-191.98 1030.09,-193.12 1033.1,-199.44"/>
</a>
</g>
</g>
</g>
</svg>
