<?xml version="1.0" encoding="UTF-8" standalone="no"?>
<!DOCTYPE svg PUBLIC "-//W3C//DTD SVG 1.1//EN"
 "http://www.w3.org/Graphics/SVG/1.1/DTD/svg11.dtd">
<!-- Generated by graphviz version 12.1.1 (0)
 -->
<!-- Title: sys/include/net/gnrc/icmpv6/error.h Pages: 1 -->
<svg width="125pt" height="193pt"
 viewBox="0.00 0.00 124.50 193.25" xmlns="http://www.w3.org/2000/svg" xmlns:xlink="http://www.w3.org/1999/xlink">
<g id="graph0" class="graph" transform="scale(1 1) rotate(0) translate(4 189.25)">
<title>sys/include/net/gnrc/icmpv6/error.h</title>
<!-- Node1 -->
<g id="Node000001" class="node">
<title>Node1</title>
<g id="a_Node000001"><a xlink:title="ICMPv6 error message definitions.">
<polygon fill="#999999" stroke="#666666" points="115,-185.25 1.5,-185.25 1.5,-151.75 115,-151.75 115,-185.25"/>
<text text-anchor="start" x="9.5" y="-171.75" font-family="Helvetica,sans-Serif" font-size="10.00">sys/include/net/gnrc</text>
<text text-anchor="middle" x="58.25" y="-159" font-family="Helvetica,sans-Serif" font-size="10.00">/icmpv6/error.h</text>
</a>
</g>
</g>
<!-- Node2 -->
<g id="Node000002" class="node">
<title>Node2</title>
<g id="a_Node000002"><a xlink:href="gnrc_2icmpv6_8h.html" target="_top" xlink:title="Definitions for GNRC&#39;s ICMPv6 implementation.">
<polygon fill="white" stroke="#666666" points="115,-115.75 1.5,-115.75 1.5,-82.25 115,-82.25 115,-115.75"/>
<text text-anchor="start" x="9.5" y="-102.25" font-family="Helvetica,sans-Serif" font-size="10.00">sys/include/net/gnrc</text>
<text text-anchor="middle" x="58.25" y="-89.5" font-family="Helvetica,sans-Serif" font-size="10.00">/icmpv6.h</text>
</a>
</g>
</g>
<!-- Node1&#45;&gt;Node2 -->
<g id="edge1_Node000001_Node000002" class="edge">
<title>Node1&#45;&gt;Node2</title>
<g id="a_edge1_Node000001_Node000002"><a xlink:title=" ">
<path fill="none" stroke="#63b8ff" d="M58.25,-140.06C58.25,-131.84 58.25,-123.09 58.25,-115.88"/>
<polygon fill="#63b8ff" stroke="#63b8ff" points="54.75,-139.99 58.25,-149.99 61.75,-139.99 54.75,-139.99"/>
</a>
</g>
</g>
<!-- Node3 -->
<g id="Node000003" class="node">
<title>Node3</title>
<g id="a_Node000003"><a xlink:href="validation_8h.html" target="_top" xlink:title="RPL control message validation functions.">
<polygon fill="white" stroke="#666666" points="116.5,-46.25 0,-46.25 0,0 116.5,0 116.5,-46.25"/>
<text text-anchor="start" x="8" y="-32.75" font-family="Helvetica,sans-Serif" font-size="10.00">sys/net/gnrc/routing</text>
<text text-anchor="start" x="8" y="-20" font-family="Helvetica,sans-Serif" font-size="10.00">/rpl/gnrc_rpl_internal</text>
<text text-anchor="middle" x="58.25" y="-7.25" font-family="Helvetica,sans-Serif" font-size="10.00">/validation.h</text>
</a>
</g>
</g>
<!-- Node2&#45;&gt;Node3 -->
<g id="edge2_Node000002_Node000003" class="edge">
<title>Node2&#45;&gt;Node3</title>
<g id="a_edge2_Node000002_Node000003"><a xlink:title=" ">
<path fill="none" stroke="#63b8ff" d="M58.25,-70.64C58.25,-62.71 58.25,-54.16 58.25,-46.57"/>
<polygon fill="#63b8ff" stroke="#63b8ff" points="54.75,-70.46 58.25,-80.46 61.75,-70.46 54.75,-70.46"/>
</a>
</g>
</g>
</g>
</svg>
