<?xml version="1.0" encoding="UTF-8" standalone="no"?>
<!DOCTYPE svg PUBLIC "-//W3C//DTD SVG 1.1//EN"
 "http://www.w3.org/Graphics/SVG/1.1/DTD/svg11.dtd">
<!-- Generated by graphviz version 12.1.1 (0)
 -->
<!-- Title: sys/include/net/gnrc/netif/hdr.h Pages: 1 -->
<svg width="1788pt" height="566pt"
 viewBox="0.00 0.00 1787.88 566.25" xmlns="http://www.w3.org/2000/svg" xmlns:xlink="http://www.w3.org/1999/xlink">
<g id="graph0" class="graph" transform="scale(1 1) rotate(0) translate(4 562.25)">
<title>sys/include/net/gnrc/netif/hdr.h</title>
<!-- Node1 -->
<g id="Node000001" class="node">
<title>Node1</title>
<g id="a_Node000001"><a xlink:title="Generic network interface header.">
<polygon fill="#999999" stroke="#666666" points="980.25,-558.25 866.75,-558.25 866.75,-524.75 980.25,-524.75 980.25,-558.25"/>
<text text-anchor="start" x="874.75" y="-544.75" font-family="Helvetica,sans-Serif" font-size="10.00">sys/include/net/gnrc</text>
<text text-anchor="middle" x="923.5" y="-532" font-family="Helvetica,sans-Serif" font-size="10.00">/netif/hdr.h</text>
</a>
</g>
</g>
<!-- Node2 -->
<g id="Node000002" class="node">
<title>Node2</title>
<g id="a_Node000002"><a xlink:href="lwipopts_8h.html" target="_top" xlink:title="Option definitions.">
<polygon fill="white" stroke="#666666" points="535.88,-482.38 387.12,-482.38 387.12,-461.62 535.88,-461.62 535.88,-482.38"/>
<text text-anchor="middle" x="461.5" y="-468.88" font-family="Helvetica,sans-Serif" font-size="10.00">pkg/lwip/include/lwipopts.h</text>
</a>
</g>
</g>
<!-- Node1&#45;&gt;Node2 -->
<g id="edge1_Node000001_Node000002" class="edge">
<title>Node1&#45;&gt;Node2</title>
<g id="a_edge1_Node000001_Node000002"><a xlink:title=" ">
<path fill="none" stroke="#63b8ff" d="M855.21,-531.88C780.14,-522.2 656.03,-505.65 549.5,-488.75 538.16,-486.95 526.02,-484.88 514.49,-482.83"/>
<polygon fill="#63b8ff" stroke="#63b8ff" points="854.5,-535.31 864.87,-533.12 855.4,-528.37 854.5,-535.31"/>
</a>
</g>
</g>
<!-- Node3 -->
<g id="Node000003" class="node">
<title>Node3</title>
<g id="a_Node000003"><a xlink:href="gnrc_8h.html" target="_top" xlink:title="Includes all essential GNRC network stack base modules.">
<polygon fill="white" stroke="#666666" points="509.75,-343.38 387.25,-343.38 387.25,-322.62 509.75,-322.62 509.75,-343.38"/>
<text text-anchor="middle" x="448.5" y="-329.88" font-family="Helvetica,sans-Serif" font-size="10.00">sys/include/net/gnrc.h</text>
</a>
</g>
</g>
<!-- Node1&#45;&gt;Node3 -->
<g id="edge2_Node000001_Node000003" class="edge">
<title>Node1&#45;&gt;Node3</title>
<g id="a_edge2_Node000001_Node000003"><a xlink:title=" ">
<path fill="none" stroke="#63b8ff" d="M855.02,-535.4C770.52,-528.18 632.48,-513.08 587.5,-488.75 553.51,-470.36 479.22,-374.58 455.75,-343.64"/>
<polygon fill="#63b8ff" stroke="#63b8ff" points="854.56,-538.88 864.81,-536.22 855.14,-531.9 854.56,-538.88"/>
</a>
</g>
</g>
<!-- Node6 -->
<g id="Node000006" class="node">
<title>Node6</title>
<g id="a_Node000006"><a xlink:href="gnrc__ipv6__auto__subnets_8c.html" target="_top" xlink:title=" ">
<polygon fill="white" stroke="#666666" points="452.75,-198 318.25,-198 318.25,-151.75 452.75,-151.75 452.75,-198"/>
<text text-anchor="start" x="326.25" y="-184.5" font-family="Helvetica,sans-Serif" font-size="10.00">sys/net/gnrc/routing</text>
<text text-anchor="start" x="326.25" y="-171.75" font-family="Helvetica,sans-Serif" font-size="10.00">/ipv6_auto_subnets/gnrc</text>
<text text-anchor="middle" x="385.5" y="-159" font-family="Helvetica,sans-Serif" font-size="10.00">_ipv6_auto_subnets.c</text>
</a>
</g>
</g>
<!-- Node1&#45;&gt;Node6 -->
<g id="edge52_Node000001_Node000006" class="edge">
<title>Node1&#45;&gt;Node6</title>
<g id="a_edge52_Node000001_Node000006"><a xlink:title=" ">
<path fill="none" stroke="#63b8ff" d="M854.82,-540.34C760.25,-536.1 601.5,-512.7 601.5,-403.5 601.5,-403.5 601.5,-403.5 601.5,-332 601.5,-287.63 612.34,-266.83 582.5,-234 581.92,-233.36 509.82,-212.19 453.02,-195.58"/>
<polygon fill="#63b8ff" stroke="#63b8ff" points="854.67,-543.84 864.79,-540.72 854.93,-536.84 854.67,-543.84"/>
</a>
</g>
</g>
<!-- Node13 -->
<g id="Node000013" class="node">
<title>Node13</title>
<g id="a_Node000013"><a xlink:href="echo_8h.html" target="_top" xlink:title="ICMPv6 echo message definitions.">
<polygon fill="white" stroke="#666666" points="1201.25,-419.25 1087.75,-419.25 1087.75,-385.75 1201.25,-385.75 1201.25,-419.25"/>
<text text-anchor="start" x="1095.75" y="-405.75" font-family="Helvetica,sans-Serif" font-size="10.00">sys/include/net/gnrc</text>
<text text-anchor="middle" x="1144.5" y="-393" font-family="Helvetica,sans-Serif" font-size="10.00">/icmpv6/echo.h</text>
</a>
</g>
</g>
<!-- Node1&#45;&gt;Node13 -->
<g id="edge15_Node000001_Node000013" class="edge">
<title>Node1&#45;&gt;Node13</title>
<g id="a_edge15_Node000001_Node000013"><a xlink:title=" ">
<path fill="none" stroke="#63b8ff" d="M958.83,-518.6C1003.39,-490.98 1078.95,-444.14 1118.54,-419.59"/>
<polygon fill="#63b8ff" stroke="#63b8ff" points="957.23,-515.48 950.57,-523.72 960.91,-521.42 957.23,-515.48"/>
</a>
</g>
</g>
<!-- Node16 -->
<g id="Node000016" class="node">
<title>Node16</title>
<g id="a_Node000016"><a xlink:href="nc_8h.html" target="_top" xlink:title="Neighbor cache definitions.">
<polygon fill="white" stroke="#666666" points="980.25,-488.75 866.75,-488.75 866.75,-455.25 980.25,-455.25 980.25,-488.75"/>
<text text-anchor="start" x="874.75" y="-475.25" font-family="Helvetica,sans-Serif" font-size="10.00">sys/include/net/gnrc</text>
<text text-anchor="middle" x="923.5" y="-462.5" font-family="Helvetica,sans-Serif" font-size="10.00">/ipv6/nib/nc.h</text>
</a>
</g>
</g>
<!-- Node1&#45;&gt;Node16 -->
<g id="edge18_Node000001_Node000016" class="edge">
<title>Node1&#45;&gt;Node16</title>
<g id="a_edge18_Node000001_Node000016"><a xlink:title=" ">
<path fill="none" stroke="#63b8ff" d="M923.5,-513.06C923.5,-504.84 923.5,-496.09 923.5,-488.88"/>
<polygon fill="#63b8ff" stroke="#63b8ff" points="920,-512.99 923.5,-522.99 927,-512.99 920,-512.99"/>
</a>
</g>
</g>
<!-- Node30 -->
<g id="Node000030" class="node">
<title>Node30</title>
<g id="a_Node000030"><a xlink:href="gnrc_2sixlowpan_2frag_8h.html" target="_top" xlink:title="6LoWPAN Fragmentation definitions">
<polygon fill="white" stroke="#666666" points="1333.25,-488.75 1219.75,-488.75 1219.75,-455.25 1333.25,-455.25 1333.25,-488.75"/>
<text text-anchor="start" x="1227.75" y="-475.25" font-family="Helvetica,sans-Serif" font-size="10.00">sys/include/net/gnrc</text>
<text text-anchor="middle" x="1276.5" y="-462.5" font-family="Helvetica,sans-Serif" font-size="10.00">/sixlowpan/frag.h</text>
</a>
</g>
</g>
<!-- Node1&#45;&gt;Node30 -->
<g id="edge43_Node000001_Node000030" class="edge">
<title>Node1&#45;&gt;Node30</title>
<g id="a_edge43_Node000001_Node000030"><a xlink:title=" ">
<path fill="none" stroke="#63b8ff" d="M991.76,-527.45C1057.99,-514.78 1157.34,-495.78 1219.47,-483.9"/>
<polygon fill="#63b8ff" stroke="#63b8ff" points="991.26,-523.98 982.09,-529.3 992.57,-530.86 991.26,-523.98"/>
</a>
</g>
</g>
<!-- Node33 -->
<g id="Node000033" class="node">
<title>Node33</title>
<g id="a_Node000033"><a xlink:href="rb_8h.html" target="_top" xlink:title="Reassembly buffer definitions.">
<polygon fill="white" stroke="#666666" points="1485.25,-488.75 1371.75,-488.75 1371.75,-455.25 1485.25,-455.25 1485.25,-488.75"/>
<text text-anchor="start" x="1379.75" y="-475.25" font-family="Helvetica,sans-Serif" font-size="10.00">sys/include/net/gnrc</text>
<text text-anchor="middle" x="1428.5" y="-462.5" font-family="Helvetica,sans-Serif" font-size="10.00">/sixlowpan/frag/rb.h</text>
</a>
</g>
</g>
<!-- Node1&#45;&gt;Node33 -->
<g id="edge46_Node000001_Node000033" class="edge">
<title>Node1&#45;&gt;Node33</title>
<g id="a_edge46_Node000001_Node000033"><a xlink:title=" ">
<path fill="none" stroke="#63b8ff" d="M991.88,-533.29C1074.97,-524.25 1219.33,-507.62 1342.5,-488.75 1351.95,-487.3 1361.96,-485.61 1371.68,-483.89"/>
<polygon fill="#63b8ff" stroke="#63b8ff" points="991.64,-529.8 982.08,-534.35 992.4,-536.76 991.64,-529.8"/>
</a>
</g>
</g>
<!-- Node4 -->
<g id="Node000004" class="node">
<title>Node4</title>
<g id="a_Node000004"><a xlink:href="rpl_8h.html" target="_top" xlink:title="RPL header.">
<polygon fill="white" stroke="#666666" points="441.25,-273.88 327.75,-273.88 327.75,-240.38 441.25,-240.38 441.25,-273.88"/>
<text text-anchor="start" x="335.75" y="-260.38" font-family="Helvetica,sans-Serif" font-size="10.00">sys/include/net/gnrc</text>
<text text-anchor="middle" x="384.5" y="-247.62" font-family="Helvetica,sans-Serif" font-size="10.00">/rpl.h</text>
</a>
</g>
</g>
<!-- Node3&#45;&gt;Node4 -->
<g id="edge3_Node000003_Node000004" class="edge">
<title>Node3&#45;&gt;Node4</title>
<g id="a_edge3_Node000003_Node000004"><a xlink:title=" ">
<path fill="none" stroke="#63b8ff" d="M432.84,-313.93C422.34,-301.8 408.63,-285.98 398.5,-274.28"/>
<polygon fill="#63b8ff" stroke="#63b8ff" points="429.95,-315.93 439.14,-321.2 435.24,-311.35 429.95,-315.93"/>
</a>
</g>
</g>
<!-- Node7 -->
<g id="Node000007" class="node">
<title>Node7</title>
<g id="a_Node000007"><a xlink:href="p2p_8h.html" target="_top" xlink:title="Definititions for P2P&#45;RPL.">
<polygon fill="white" stroke="#666666" points="309.25,-273.88 195.75,-273.88 195.75,-240.38 309.25,-240.38 309.25,-273.88"/>
<text text-anchor="start" x="203.75" y="-260.38" font-family="Helvetica,sans-Serif" font-size="10.00">sys/include/net/gnrc</text>
<text text-anchor="middle" x="252.5" y="-247.62" font-family="Helvetica,sans-Serif" font-size="10.00">/rpl/p2p.h</text>
</a>
</g>
</g>
<!-- Node3&#45;&gt;Node7 -->
<g id="edge7_Node000003_Node000007" class="edge">
<title>Node3&#45;&gt;Node7</title>
<g id="a_edge7_Node000003_Node000007"><a xlink:title=" ">
<path fill="none" stroke="#63b8ff" d="M411.92,-318.21C378.94,-305.78 330.39,-287.48 295.55,-274.35"/>
<polygon fill="#63b8ff" stroke="#63b8ff" points="410.46,-321.4 421.06,-321.66 412.93,-314.85 410.46,-321.4"/>
</a>
</g>
</g>
<!-- Node8 -->
<g id="Node000008" class="node">
<title>Node8</title>
<g id="a_Node000008"><a xlink:href="gnrc_2udp_8h.html" target="_top" xlink:title="UDP GNRC definition.">
<polygon fill="white" stroke="#666666" points="573.25,-273.88 459.75,-273.88 459.75,-240.38 573.25,-240.38 573.25,-273.88"/>
<text text-anchor="start" x="467.75" y="-260.38" font-family="Helvetica,sans-Serif" font-size="10.00">sys/include/net/gnrc</text>
<text text-anchor="middle" x="516.5" y="-247.62" font-family="Helvetica,sans-Serif" font-size="10.00">/udp.h</text>
</a>
</g>
</g>
<!-- Node3&#45;&gt;Node8 -->
<g id="edge8_Node000003_Node000008" class="edge">
<title>Node3&#45;&gt;Node8</title>
<g id="a_edge8_Node000003_Node000008"><a xlink:title=" ">
<path fill="none" stroke="#63b8ff" d="M465.14,-313.93C476.29,-301.8 490.86,-285.98 501.63,-274.28"/>
<polygon fill="#63b8ff" stroke="#63b8ff" points="462.61,-311.5 458.41,-321.23 467.76,-316.24 462.61,-311.5"/>
</a>
</g>
</g>
<!-- Node9 -->
<g id="Node000009" class="node">
<title>Node9</title>
<g id="a_Node000009"><a xlink:href="gnrc__sock__internal_8h.html" target="_top" xlink:title="Internal GNRC&#45;specific types and function definitions.">
<polygon fill="white" stroke="#666666" points="154,-191.62 15,-191.62 15,-158.12 154,-158.12 154,-191.62"/>
<text text-anchor="start" x="23" y="-178.12" font-family="Helvetica,sans-Serif" font-size="10.00">sys/net/gnrc/sock/include</text>
<text text-anchor="middle" x="84.5" y="-165.38" font-family="Helvetica,sans-Serif" font-size="10.00">/gnrc_sock_internal.h</text>
</a>
</g>
</g>
<!-- Node3&#45;&gt;Node9 -->
<g id="edge10_Node000003_Node000009" class="edge">
<title>Node3&#45;&gt;Node9</title>
<g id="a_edge10_Node000003_Node000009"><a xlink:title=" ">
<path fill="none" stroke="#63b8ff" d="M375.51,-330.46C320.22,-326.37 244.21,-314.26 186.5,-280.25 163.34,-266.6 166.08,-253.43 147.5,-234 133.31,-219.16 116.11,-203.43 103.27,-192.08"/>
<polygon fill="#63b8ff" stroke="#63b8ff" points="375.26,-333.95 385.46,-331.12 375.72,-326.97 375.26,-333.95"/>
</a>
</g>
</g>
<!-- Node10 -->
<g id="Node000010" class="node">
<title>Node10</title>
<g id="a_Node000010"><a xlink:href="sys_2net_2gnrc_2sock_2include_2sock__types_8h.html" target="_top" xlink:title="GNRC&#45;specific types and function definitions.">
<polygon fill="white" stroke="#666666" points="139,-273.88 0,-273.88 0,-240.38 139,-240.38 139,-273.88"/>
<text text-anchor="start" x="8" y="-260.38" font-family="Helvetica,sans-Serif" font-size="10.00">sys/net/gnrc/sock/include</text>
<text text-anchor="middle" x="69.5" y="-247.62" font-family="Helvetica,sans-Serif" font-size="10.00">/sock_types.h</text>
</a>
</g>
</g>
<!-- Node3&#45;&gt;Node10 -->
<g id="edge11_Node000003_Node000010" class="edge">
<title>Node3&#45;&gt;Node10</title>
<g id="a_edge11_Node000003_Node000010"><a xlink:title=" ">
<path fill="none" stroke="#63b8ff" d="M375.67,-320.97C315.76,-311.48 228.78,-296.74 153.5,-280.25 145.4,-278.48 136.9,-276.44 128.55,-274.34"/>
<polygon fill="#63b8ff" stroke="#63b8ff" points="374.99,-324.4 385.41,-322.5 376.07,-317.49 374.99,-324.4"/>
</a>
</g>
</g>
<!-- Node11 -->
<g id="Node000011" class="node">
<title>Node11</title>
<g id="a_Node000011"><a xlink:href="gnrc__tcp__fsm_8h.html" target="_top" xlink:title="TCP finite state maschine declarations.">
<polygon fill="white" stroke="#666666" points="596.62,-198 470.38,-198 470.38,-151.75 596.62,-151.75 596.62,-198"/>
<text text-anchor="start" x="478.38" y="-184.5" font-family="Helvetica,sans-Serif" font-size="10.00">sys/net/gnrc/transport</text>
<text text-anchor="start" x="478.38" y="-171.75" font-family="Helvetica,sans-Serif" font-size="10.00">_layer/tcp/include/gnrc</text>
<text text-anchor="middle" x="533.5" y="-159" font-family="Helvetica,sans-Serif" font-size="10.00">_tcp_fsm.h</text>
</a>
</g>
</g>
<!-- Node3&#45;&gt;Node11 -->
<g id="edge13_Node000003_Node000011" class="edge">
<title>Node3&#45;&gt;Node11</title>
<g id="a_edge13_Node000003_Node000011"><a xlink:title=" ">
<path fill="none" stroke="#63b8ff" d="M521,-320.81C544.58,-313.36 568.31,-300.94 582.5,-280.25 600.5,-254 577.24,-220.09 557.03,-198.17"/>
<polygon fill="#63b8ff" stroke="#63b8ff" points="520.32,-317.37 511.67,-323.49 522.25,-324.1 520.32,-317.37"/>
</a>
</g>
</g>
<!-- Node12 -->
<g id="Node000012" class="node">
<title>Node12</title>
<g id="a_Node000012"><a xlink:href="gnrc__tcp__pkt_8h.html" target="_top" xlink:title="TCP packet handling declarations.">
<polygon fill="white" stroke="#666666" points="740.62,-198 614.38,-198 614.38,-151.75 740.62,-151.75 740.62,-198"/>
<text text-anchor="start" x="622.38" y="-184.5" font-family="Helvetica,sans-Serif" font-size="10.00">sys/net/gnrc/transport</text>
<text text-anchor="start" x="622.38" y="-171.75" font-family="Helvetica,sans-Serif" font-size="10.00">_layer/tcp/include/gnrc</text>
<text text-anchor="middle" x="677.5" y="-159" font-family="Helvetica,sans-Serif" font-size="10.00">_tcp_pkt.h</text>
</a>
</g>
</g>
<!-- Node3&#45;&gt;Node12 -->
<g id="edge14_Node000003_Node000012" class="edge">
<title>Node3&#45;&gt;Node12</title>
<g id="a_edge14_Node000003_Node000012"><a xlink:title=" ">
<path fill="none" stroke="#63b8ff" d="M512.2,-319.23C540.79,-311.31 573.79,-298.98 599.5,-280.25 629.49,-258.41 653.06,-221.71 666.14,-198.16"/>
<polygon fill="#63b8ff" stroke="#63b8ff" points="511.32,-315.84 502.53,-321.76 513.09,-322.61 511.32,-315.84"/>
</a>
</g>
</g>
<!-- Node5 -->
<g id="Node000005" class="node">
<title>Node5</title>
<g id="a_Node000005"><a xlink:href="dodag_8h.html" target="_top" xlink:title="DODAG&#45;related functions for RPL.">
<polygon fill="white" stroke="#666666" points="300.25,-191.62 186.75,-191.62 186.75,-158.12 300.25,-158.12 300.25,-191.62"/>
<text text-anchor="start" x="194.75" y="-178.12" font-family="Helvetica,sans-Serif" font-size="10.00">sys/include/net/gnrc</text>
<text text-anchor="middle" x="243.5" y="-165.38" font-family="Helvetica,sans-Serif" font-size="10.00">/rpl/dodag.h</text>
</a>
</g>
</g>
<!-- Node4&#45;&gt;Node5 -->
<g id="edge4_Node000004_Node000005" class="edge">
<title>Node4&#45;&gt;Node5</title>
<g id="a_edge4_Node000004_Node000005"><a xlink:title=" ">
<path fill="none" stroke="#63b8ff" d="M340.59,-234.58C316.04,-221.22 286.52,-204.32 266.45,-192.09"/>
<polygon fill="#63b8ff" stroke="#63b8ff" points="338.62,-237.5 349.09,-239.17 341.95,-231.34 338.62,-237.5"/>
</a>
</g>
</g>
<!-- Node4&#45;&gt;Node6 -->
<g id="edge6_Node000004_Node000006" class="edge">
<title>Node4&#45;&gt;Node6</title>
<g id="a_edge6_Node000004_Node000006"><a xlink:title=" ">
<path fill="none" stroke="#63b8ff" d="M384.84,-228.64C384.97,-218.8 385.1,-207.85 385.22,-198.48"/>
<polygon fill="#63b8ff" stroke="#63b8ff" points="381.35,-228.33 384.72,-238.37 388.35,-228.42 381.35,-228.33"/>
</a>
</g>
</g>
<!-- Node5&#45;&gt;Node4 -->
<g id="edge5_Node000005_Node000004" class="edge">
<title>Node5&#45;&gt;Node4</title>
<g id="a_edge5_Node000005_Node000004"><a xlink:title=" ">
<path fill="none" stroke="#63b8ff" d="M287.36,-197.39C311.9,-210.75 341.42,-227.65 361.52,-239.89"/>
<polygon fill="#63b8ff" stroke="#63b8ff" points="289.33,-194.48 278.87,-192.81 286.01,-200.64 289.33,-194.48"/>
</a>
</g>
</g>
<!-- Node8&#45;&gt;Node6 -->
<g id="edge9_Node000008_Node000006" class="edge">
<title>Node8&#45;&gt;Node6</title>
<g id="a_edge9_Node000008_Node000006"><a xlink:title=" ">
<path fill="none" stroke="#63b8ff" d="M480.4,-234.01C462.35,-222.95 440.55,-209.6 422.39,-198.48"/>
<polygon fill="#63b8ff" stroke="#63b8ff" points="478.34,-236.86 488.7,-239.09 482,-230.89 478.34,-236.86"/>
</a>
</g>
</g>
<!-- Node10&#45;&gt;Node9 -->
<g id="edge12_Node000010_Node000009" class="edge">
<title>Node10&#45;&gt;Node9</title>
<g id="a_edge12_Node000010_Node000009"><a xlink:title=" ">
<path fill="none" stroke="#63b8ff" d="M74.59,-228.88C76.88,-216.65 79.5,-202.64 81.47,-192.09"/>
<polygon fill="#63b8ff" stroke="#63b8ff" points="71.21,-227.92 72.81,-238.4 78.09,-229.21 71.21,-227.92"/>
</a>
</g>
</g>
<!-- Node14 -->
<g id="Node000014" class="node">
<title>Node14</title>
<g id="a_Node000014"><a xlink:href="gnrc_2icmpv6_8h.html" target="_top" xlink:title="Definitions for GNRC&#39;s ICMPv6 implementation.">
<polygon fill="white" stroke="#666666" points="1436.25,-191.62 1322.75,-191.62 1322.75,-158.12 1436.25,-158.12 1436.25,-191.62"/>
<text text-anchor="start" x="1330.75" y="-178.12" font-family="Helvetica,sans-Serif" font-size="10.00">sys/include/net/gnrc</text>
<text text-anchor="middle" x="1379.5" y="-165.38" font-family="Helvetica,sans-Serif" font-size="10.00">/icmpv6.h</text>
</a>
</g>
</g>
<!-- Node13&#45;&gt;Node14 -->
<g id="edge16_Node000013_Node000014" class="edge">
<title>Node13&#45;&gt;Node14</title>
<g id="a_edge16_Node000013_Node000014"><a xlink:title=" ">
<path fill="none" stroke="#63b8ff" d="M1169.43,-377.56C1217.54,-331.38 1322.01,-231.07 1362.75,-191.95"/>
<polygon fill="#63b8ff" stroke="#63b8ff" points="1167.28,-374.77 1162.49,-384.23 1172.13,-379.82 1167.28,-374.77"/>
</a>
</g>
</g>
<!-- Node15 -->
<g id="Node000015" class="node">
<title>Node15</title>
<g id="a_Node000015"><a xlink:href="validation_8h.html" target="_top" xlink:title="RPL control message validation functions.">
<polygon fill="white" stroke="#666666" points="1437.75,-115.75 1321.25,-115.75 1321.25,-69.5 1437.75,-69.5 1437.75,-115.75"/>
<text text-anchor="start" x="1329.25" y="-102.25" font-family="Helvetica,sans-Serif" font-size="10.00">sys/net/gnrc/routing</text>
<text text-anchor="start" x="1329.25" y="-89.5" font-family="Helvetica,sans-Serif" font-size="10.00">/rpl/gnrc_rpl_internal</text>
<text text-anchor="middle" x="1379.5" y="-76.75" font-family="Helvetica,sans-Serif" font-size="10.00">/validation.h</text>
</a>
</g>
</g>
<!-- Node14&#45;&gt;Node15 -->
<g id="edge17_Node000014_Node000015" class="edge">
<title>Node14&#45;&gt;Node15</title>
<g id="a_edge17_Node000014_Node000015"><a xlink:title=" ">
<path fill="none" stroke="#63b8ff" d="M1379.5,-146.39C1379.5,-136.55 1379.5,-125.6 1379.5,-116.23"/>
<polygon fill="#63b8ff" stroke="#63b8ff" points="1376,-146.12 1379.5,-156.12 1383,-146.12 1376,-146.12"/>
</a>
</g>
</g>
<!-- Node17 -->
<g id="Node000017" class="node">
<title>Node17</title>
<g id="a_Node000017"><a xlink:href="nib_8h.html" target="_top" xlink:title="NIB definitions.">
<polygon fill="white" stroke="#666666" points="872.25,-419.25 758.75,-419.25 758.75,-385.75 872.25,-385.75 872.25,-419.25"/>
<text text-anchor="start" x="766.75" y="-405.75" font-family="Helvetica,sans-Serif" font-size="10.00">sys/include/net/gnrc</text>
<text text-anchor="middle" x="815.5" y="-393" font-family="Helvetica,sans-Serif" font-size="10.00">/ipv6/nib.h</text>
</a>
</g>
</g>
<!-- Node16&#45;&gt;Node17 -->
<g id="edge19_Node000016_Node000017" class="edge">
<title>Node16&#45;&gt;Node17</title>
<g id="a_edge19_Node000016_Node000017"><a xlink:title=" ">
<path fill="none" stroke="#63b8ff" d="M887.97,-448.79C872.68,-439.24 855.15,-428.28 841.16,-419.54"/>
<polygon fill="#63b8ff" stroke="#63b8ff" points="886.01,-451.7 896.35,-454.03 889.72,-445.76 886.01,-451.7"/>
</a>
</g>
</g>
<!-- Node25 -->
<g id="Node000025" class="node">
<title>Node25</title>
<g id="a_Node000025"><a xlink:href="__nib-internal_8h_source.html" target="_top" xlink:title=" ">
<polygon fill="white" stroke="#666666" points="1523.5,-280.25 1405.5,-280.25 1405.5,-234 1523.5,-234 1523.5,-280.25"/>
<text text-anchor="start" x="1413.5" y="-266.75" font-family="Helvetica,sans-Serif" font-size="10.00">sys/net/gnrc/network</text>
<text text-anchor="start" x="1413.5" y="-254" font-family="Helvetica,sans-Serif" font-size="10.00">_layer/ipv6/nib/_nib</text>
<text text-anchor="middle" x="1464.5" y="-241.25" font-family="Helvetica,sans-Serif" font-size="10.00">&#45;internal.h</text>
</a>
</g>
</g>
<!-- Node16&#45;&gt;Node25 -->
<g id="edge42_Node000016_Node000025" class="edge">
<title>Node16&#45;&gt;Node25</title>
<g id="a_edge42_Node000016_Node000025"><a xlink:title=" ">
<path fill="none" stroke="#63b8ff" d="M959.2,-448.9C990.01,-430.43 1036.13,-404.22 1078.5,-385.75 1190.76,-336.82 1328.15,-295.59 1405.05,-274.1"/>
<polygon fill="#63b8ff" stroke="#63b8ff" points="957.4,-445.9 950.65,-454.07 961.02,-451.89 957.4,-445.9"/>
</a>
</g>
</g>
<!-- Node17&#45;&gt;Node6 -->
<g id="edge41_Node000017_Node000006" class="edge">
<title>Node17&#45;&gt;Node6</title>
<g id="a_edge41_Node000017_Node000006"><a xlink:title=" ">
<path fill="none" stroke="#63b8ff" d="M785.4,-378.39C774.06,-369.55 761.09,-359.29 749.5,-349.75 688.74,-299.73 685.63,-269.71 615.5,-234 552.87,-202.1 529.49,-215.83 461.5,-198 458.71,-197.27 455.86,-196.51 452.99,-195.73"/>
<polygon fill="#63b8ff" stroke="#63b8ff" points="783.25,-381.14 793.3,-384.51 787.54,-375.61 783.25,-381.14"/>
</a>
</g>
</g>
<!-- Node18 -->
<g id="Node000018" class="node">
<title>Node18</title>
<g id="a_Node000018"><a xlink:href="gnrc_2ipv6_8h.html" target="_top" xlink:title="Definitions for GNRC&#39;s IPv6 implementation.">
<polygon fill="white" stroke="#666666" points="872.25,-349.75 758.75,-349.75 758.75,-316.25 872.25,-316.25 872.25,-349.75"/>
<text text-anchor="start" x="766.75" y="-336.25" font-family="Helvetica,sans-Serif" font-size="10.00">sys/include/net/gnrc</text>
<text text-anchor="middle" x="815.5" y="-323.5" font-family="Helvetica,sans-Serif" font-size="10.00">/ipv6.h</text>
</a>
</g>
</g>
<!-- Node17&#45;&gt;Node18 -->
<g id="edge20_Node000017_Node000018" class="edge">
<title>Node17&#45;&gt;Node18</title>
<g id="a_edge20_Node000017_Node000018"><a xlink:title=" ">
<path fill="none" stroke="#63b8ff" d="M815.5,-374.06C815.5,-365.84 815.5,-357.09 815.5,-349.88"/>
<polygon fill="#63b8ff" stroke="#63b8ff" points="812,-373.99 815.5,-383.99 819,-373.99 812,-373.99"/>
</a>
</g>
</g>
<!-- Node18&#45;&gt;Node4 -->
<g id="edge23_Node000018_Node000004" class="edge">
<title>Node18&#45;&gt;Node4</title>
<g id="a_edge23_Node000018_Node000004"><a xlink:title=" ">
<path fill="none" stroke="#63b8ff" d="M746.87,-326.04C672.98,-318.76 552.34,-304.33 450.5,-280.25 443.56,-278.61 436.31,-276.55 429.27,-274.35"/>
<polygon fill="#63b8ff" stroke="#63b8ff" points="746.52,-329.53 756.81,-327.01 747.19,-322.56 746.52,-329.53"/>
</a>
</g>
</g>
<!-- Node18&#45;&gt;Node6 -->
<g id="edge40_Node000018_Node000006" class="edge">
<title>Node18&#45;&gt;Node6</title>
<g id="a_edge40_Node000018_Node000006"><a xlink:title=" ">
<path fill="none" stroke="#63b8ff" d="M802.42,-306.11C789.32,-283.1 766.89,-250.6 737.5,-234 629.79,-173.16 582.58,-223.36 461.5,-198 458.68,-197.41 455.8,-196.76 452.91,-196.08"/>
<polygon fill="#63b8ff" stroke="#63b8ff" points="799.19,-307.5 807.05,-314.6 805.33,-304.15 799.19,-307.5"/>
</a>
</g>
</g>
<!-- Node19 -->
<g id="Node000019" class="node">
<title>Node19</title>
<g id="a_Node000019"><a xlink:href="net_2gnrc_2icmpv6_2error_8h.html" target="_top" xlink:title="ICMPv6 error message definitions.">
<polygon fill="white" stroke="#666666" points="1081.25,-273.88 967.75,-273.88 967.75,-240.38 1081.25,-240.38 1081.25,-273.88"/>
<text text-anchor="start" x="975.75" y="-260.38" font-family="Helvetica,sans-Serif" font-size="10.00">sys/include/net/gnrc</text>
<text text-anchor="middle" x="1024.5" y="-247.62" font-family="Helvetica,sans-Serif" font-size="10.00">/icmpv6/error.h</text>
</a>
</g>
</g>
<!-- Node18&#45;&gt;Node19 -->
<g id="edge21_Node000018_Node000019" class="edge">
<title>Node18&#45;&gt;Node19</title>
<g id="a_edge21_Node000018_Node000019"><a xlink:title=" ">
<path fill="none" stroke="#63b8ff" d="M871.92,-312.06C905.41,-300.22 947.32,-285.41 978.74,-274.3"/>
<polygon fill="#63b8ff" stroke="#63b8ff" points="871.05,-308.65 862.79,-315.28 873.39,-315.25 871.05,-308.65"/>
</a>
</g>
</g>
<!-- Node20 -->
<g id="Node000020" class="node">
<title>Node20</title>
<g id="a_Node000020"><a xlink:href="gnrc_2tcp_8h.html" target="_top" xlink:title="GNRC TCP API.">
<polygon fill="white" stroke="#666666" points="872.25,-191.62 758.75,-191.62 758.75,-158.12 872.25,-158.12 872.25,-191.62"/>
<text text-anchor="start" x="766.75" y="-178.12" font-family="Helvetica,sans-Serif" font-size="10.00">sys/include/net/gnrc</text>
<text text-anchor="middle" x="815.5" y="-165.38" font-family="Helvetica,sans-Serif" font-size="10.00">/tcp.h</text>
</a>
</g>
</g>
<!-- Node18&#45;&gt;Node20 -->
<g id="edge24_Node000018_Node000020" class="edge">
<title>Node18&#45;&gt;Node20</title>
<g id="a_edge24_Node000018_Node000020"><a xlink:title=" ">
<path fill="none" stroke="#63b8ff" d="M815.5,-304.44C815.5,-271.68 815.5,-218.12 815.5,-191.67"/>
<polygon fill="#63b8ff" stroke="#63b8ff" points="812,-304.37 815.5,-314.37 819,-304.37 812,-304.37"/>
</a>
</g>
</g>
<!-- Node21 -->
<g id="Node000021" class="node">
<title>Node21</title>
<g id="a_Node000021"><a xlink:href="tcb_8h.html" target="_top" xlink:title="GNRC TCP transmission control block (TCB)">
<polygon fill="white" stroke="#666666" points="949.25,-273.88 835.75,-273.88 835.75,-240.38 949.25,-240.38 949.25,-273.88"/>
<text text-anchor="start" x="843.75" y="-260.38" font-family="Helvetica,sans-Serif" font-size="10.00">sys/include/net/gnrc</text>
<text text-anchor="middle" x="892.5" y="-247.62" font-family="Helvetica,sans-Serif" font-size="10.00">/tcp/tcb.h</text>
</a>
</g>
</g>
<!-- Node18&#45;&gt;Node21 -->
<g id="edge25_Node000018_Node000021" class="edge">
<title>Node18&#45;&gt;Node21</title>
<g id="a_edge25_Node000018_Node000021"><a xlink:title=" ">
<path fill="none" stroke="#63b8ff" d="M840.26,-308.24C851.89,-297.09 865.44,-284.09 875.82,-274.12"/>
<polygon fill="#63b8ff" stroke="#63b8ff" points="838.09,-305.47 833.3,-314.92 842.94,-310.52 838.09,-305.47"/>
</a>
</g>
</g>
<!-- Node18&#45;&gt;Node25 -->
<g id="edge32_Node000018_Node000025" class="edge">
<title>Node18&#45;&gt;Node25</title>
<g id="a_edge32_Node000018_Node000025"><a xlink:title=" ">
<path fill="none" stroke="#63b8ff" d="M883.68,-324.24C1011.32,-309.71 1284.34,-278.63 1405.03,-264.89"/>
<polygon fill="#63b8ff" stroke="#63b8ff" points="883.57,-320.73 874.03,-325.34 884.36,-327.68 883.57,-320.73"/>
</a>
</g>
</g>
<!-- Node19&#45;&gt;Node14 -->
<g id="edge22_Node000019_Node000014" class="edge">
<title>Node19&#45;&gt;Node14</title>
<g id="a_edge22_Node000019_Node000014"><a xlink:title=" ">
<path fill="none" stroke="#63b8ff" d="M1084.57,-236.77C1088.26,-235.78 1091.92,-234.85 1095.5,-234 1191.05,-211.34 1218.2,-221.68 1313.5,-198 1320.3,-196.31 1327.41,-194.25 1334.34,-192.07"/>
<polygon fill="#63b8ff" stroke="#63b8ff" points="1083.66,-233.39 1074.98,-239.47 1085.56,-240.13 1083.66,-233.39"/>
</a>
</g>
</g>
<!-- Node21&#45;&gt;Node11 -->
<g id="edge28_Node000021_Node000011" class="edge">
<title>Node21&#45;&gt;Node11</title>
<g id="a_edge28_Node000021_Node000011"><a xlink:title=" ">
<path fill="none" stroke="#63b8ff" d="M824.37,-242.69C746.32,-227.25 626.46,-203.33 605.5,-198 602.71,-197.29 599.87,-196.54 597.01,-195.76"/>
<polygon fill="#63b8ff" stroke="#63b8ff" points="823.59,-246.11 834.08,-244.61 824.95,-239.24 823.59,-246.11"/>
</a>
</g>
</g>
<!-- Node21&#45;&gt;Node12 -->
<g id="edge30_Node000021_Node000012" class="edge">
<title>Node21&#45;&gt;Node12</title>
<g id="a_edge30_Node000021_Node000012"><a xlink:title=" ">
<path fill="none" stroke="#63b8ff" d="M838.53,-235.98C807.96,-224.57 769.64,-210.27 738.05,-198.48"/>
<polygon fill="#63b8ff" stroke="#63b8ff" points="836.98,-239.14 847.57,-239.36 839.43,-232.58 836.98,-239.14"/>
</a>
</g>
</g>
<!-- Node21&#45;&gt;Node20 -->
<g id="edge26_Node000021_Node000020" class="edge">
<title>Node21&#45;&gt;Node20</title>
<g id="a_edge26_Node000021_Node000020"><a xlink:title=" ">
<path fill="none" stroke="#63b8ff" d="M869.22,-231.87C856.86,-218.99 842.01,-203.51 831.06,-192.09"/>
<polygon fill="#63b8ff" stroke="#63b8ff" points="866.42,-234 875.87,-238.79 871.47,-229.15 866.42,-234"/>
</a>
</g>
</g>
<!-- Node22 -->
<g id="Node000022" class="node">
<title>Node22</title>
<g id="a_Node000022"><a xlink:href="gnrc__tcp__common_8h.html" target="_top" xlink:title="Internally used defines, macros and variable declarations.">
<polygon fill="white" stroke="#666666" points="1160.62,-198 1034.38,-198 1034.38,-151.75 1160.62,-151.75 1160.62,-198"/>
<text text-anchor="start" x="1042.38" y="-184.5" font-family="Helvetica,sans-Serif" font-size="10.00">sys/net/gnrc/transport</text>
<text text-anchor="start" x="1042.38" y="-171.75" font-family="Helvetica,sans-Serif" font-size="10.00">_layer/tcp/include/gnrc</text>
<text text-anchor="middle" x="1097.5" y="-159" font-family="Helvetica,sans-Serif" font-size="10.00">_tcp_common.h</text>
</a>
</g>
</g>
<!-- Node21&#45;&gt;Node22 -->
<g id="edge27_Node000021_Node000022" class="edge">
<title>Node21&#45;&gt;Node22</title>
<g id="a_edge27_Node000021_Node000022"><a xlink:title=" ">
<path fill="none" stroke="#63b8ff" d="M944.35,-235.83C973.43,-224.44 1009.78,-210.22 1039.77,-198.48"/>
<polygon fill="#63b8ff" stroke="#63b8ff" points="943.43,-232.43 935.39,-239.33 945.98,-238.95 943.43,-232.43"/>
</a>
</g>
</g>
<!-- Node23 -->
<g id="Node000023" class="node">
<title>Node23</title>
<g id="a_Node000023"><a xlink:href="gnrc__tcp__option_8h.html" target="_top" xlink:title="TCP option handling declarations.">
<polygon fill="white" stroke="#666666" points="1304.62,-198 1178.38,-198 1178.38,-151.75 1304.62,-151.75 1304.62,-198"/>
<text text-anchor="start" x="1186.38" y="-184.5" font-family="Helvetica,sans-Serif" font-size="10.00">sys/net/gnrc/transport</text>
<text text-anchor="start" x="1186.38" y="-171.75" font-family="Helvetica,sans-Serif" font-size="10.00">_layer/tcp/include/gnrc</text>
<text text-anchor="middle" x="1241.5" y="-159" font-family="Helvetica,sans-Serif" font-size="10.00">_tcp_option.h</text>
</a>
</g>
</g>
<!-- Node21&#45;&gt;Node23 -->
<g id="edge29_Node000021_Node000023" class="edge">
<title>Node21&#45;&gt;Node23</title>
<g id="a_edge29_Node000021_Node000023"><a xlink:title=" ">
<path fill="none" stroke="#63b8ff" d="M948.46,-236.71C951.84,-235.74 955.21,-234.83 958.5,-234 1050.76,-210.81 1076.95,-220.02 1169.5,-198 1172.3,-197.33 1175.15,-196.62 1178.02,-195.87"/>
<polygon fill="#63b8ff" stroke="#63b8ff" points="947.69,-233.29 939.12,-239.52 949.71,-239.99 947.69,-233.29"/>
</a>
</g>
</g>
<!-- Node24 -->
<g id="Node000024" class="node">
<title>Node24</title>
<g id="a_Node000024"><a xlink:href="gnrc__tcp__rcvbuf_8h.html" target="_top" xlink:title="Functions for allocating and freeing the receive buffer.">
<polygon fill="white" stroke="#666666" points="1016.62,-198 890.38,-198 890.38,-151.75 1016.62,-151.75 1016.62,-198"/>
<text text-anchor="start" x="898.38" y="-184.5" font-family="Helvetica,sans-Serif" font-size="10.00">sys/net/gnrc/transport</text>
<text text-anchor="start" x="898.38" y="-171.75" font-family="Helvetica,sans-Serif" font-size="10.00">_layer/tcp/include/gnrc</text>
<text text-anchor="middle" x="953.5" y="-159" font-family="Helvetica,sans-Serif" font-size="10.00">_tcp_rcvbuf.h</text>
</a>
</g>
</g>
<!-- Node21&#45;&gt;Node24 -->
<g id="edge31_Node000021_Node000024" class="edge">
<title>Node21&#45;&gt;Node24</title>
<g id="a_edge31_Node000021_Node000024"><a xlink:title=" ">
<path fill="none" stroke="#63b8ff" d="M911.69,-230.88C919.58,-220.5 928.65,-208.57 936.32,-198.48"/>
<polygon fill="#63b8ff" stroke="#63b8ff" points="909.03,-228.6 905.76,-238.68 914.6,-232.84 909.03,-228.6"/>
</a>
</g>
</g>
<!-- Node26 -->
<g id="Node000026" class="node">
<title>Node26</title>
<g id="a_Node000026"><a xlink:href="__nib-6ln_8h.html" target="_top" xlink:title="Definitions related to 6Lo node (6LN) functionality of the NIB.">
<polygon fill="white" stroke="#666666" points="1683,-109.38 1544,-109.38 1544,-75.88 1683,-75.88 1683,-109.38"/>
<text text-anchor="start" x="1552" y="-95.88" font-family="Helvetica,sans-Serif" font-size="10.00">sys/net/gnrc/network</text>
<text text-anchor="middle" x="1613.5" y="-83.12" font-family="Helvetica,sans-Serif" font-size="10.00">_layer/ipv6/nib/_nib&#45;6ln.h</text>
</a>
</g>
</g>
<!-- Node25&#45;&gt;Node26 -->
<g id="edge33_Node000025_Node000026" class="edge">
<title>Node25&#45;&gt;Node26</title>
<g id="a_edge33_Node000025_Node000026"><a xlink:title=" ">
<path fill="none" stroke="#63b8ff" d="M1462.9,-222.46C1463.56,-200.23 1467.89,-171.65 1483.5,-151.75 1499.14,-131.81 1523.1,-118.52 1546.2,-109.75"/>
<polygon fill="#63b8ff" stroke="#63b8ff" points="1459.4,-222.21 1462.86,-232.22 1466.4,-222.24 1459.4,-222.21"/>
</a>
</g>
</g>
<!-- Node27 -->
<g id="Node000027" class="node">
<title>Node27</title>
<g id="a_Node000027"><a xlink:href="__nib-6lr_8h.html" target="_top" xlink:title="Definitions related to 6Lo router (6LR) functionality of the NIB.">
<polygon fill="white" stroke="#666666" points="1779.88,-33.5 1643.12,-33.5 1643.12,0 1779.88,0 1779.88,-33.5"/>
<text text-anchor="start" x="1651.12" y="-20" font-family="Helvetica,sans-Serif" font-size="10.00">sys/net/gnrc/network</text>
<text text-anchor="middle" x="1711.5" y="-7.25" font-family="Helvetica,sans-Serif" font-size="10.00">_layer/ipv6/nib/_nib&#45;6lr.h</text>
</a>
</g>
</g>
<!-- Node25&#45;&gt;Node27 -->
<g id="edge35_Node000025_Node000027" class="edge">
<title>Node25&#45;&gt;Node27</title>
<g id="a_edge35_Node000025_Node000027"><a xlink:title=" ">
<path fill="none" stroke="#63b8ff" d="M1534.64,-234.07C1597.52,-223.66 1724.86,-233.98 1755.5,-198 1796.85,-149.44 1747.92,-68.17 1723.62,-33.84"/>
<polygon fill="#63b8ff" stroke="#63b8ff" points="1534.28,-230.57 1525.17,-235.97 1535.66,-237.44 1534.28,-230.57"/>
</a>
</g>
</g>
<!-- Node28 -->
<g id="Node000028" class="node">
<title>Node28</title>
<g id="a_Node000028"><a xlink:href="__nib-arsm_8h_source.html" target="_top" xlink:title=" ">
<polygon fill="white" stroke="#666666" points="1746.5,-198 1628.5,-198 1628.5,-151.75 1746.5,-151.75 1746.5,-198"/>
<text text-anchor="start" x="1636.5" y="-184.5" font-family="Helvetica,sans-Serif" font-size="10.00">sys/net/gnrc/network</text>
<text text-anchor="start" x="1636.5" y="-171.75" font-family="Helvetica,sans-Serif" font-size="10.00">_layer/ipv6/nib/_nib</text>
<text text-anchor="middle" x="1687.5" y="-159" font-family="Helvetica,sans-Serif" font-size="10.00">&#45;arsm.h</text>
</a>
</g>
</g>
<!-- Node25&#45;&gt;Node28 -->
<g id="edge36_Node000025_Node000028" class="edge">
<title>Node25&#45;&gt;Node28</title>
<g id="a_edge36_Node000025_Node000028"><a xlink:title=" ">
<path fill="none" stroke="#63b8ff" d="M1534.8,-230.83C1564.83,-220.02 1599.49,-207.55 1628.2,-197.22"/>
<polygon fill="#63b8ff" stroke="#63b8ff" points="1533.62,-227.53 1525.39,-234.21 1535.99,-234.12 1533.62,-227.53"/>
</a>
</g>
</g>
<!-- Node29 -->
<g id="Node000029" class="node">
<title>Node29</title>
<g id="a_Node000029"><a xlink:href="__nib-router_8h_source.html" target="_top" xlink:title=" ">
<polygon fill="white" stroke="#666666" points="1610.5,-198 1492.5,-198 1492.5,-151.75 1610.5,-151.75 1610.5,-198"/>
<text text-anchor="start" x="1500.5" y="-184.5" font-family="Helvetica,sans-Serif" font-size="10.00">sys/net/gnrc/network</text>
<text text-anchor="start" x="1500.5" y="-171.75" font-family="Helvetica,sans-Serif" font-size="10.00">_layer/ipv6/nib/_nib</text>
<text text-anchor="middle" x="1551.5" y="-159" font-family="Helvetica,sans-Serif" font-size="10.00">&#45;router.h</text>
</a>
</g>
</g>
<!-- Node25&#45;&gt;Node29 -->
<g id="edge39_Node000025_Node000029" class="edge">
<title>Node25&#45;&gt;Node29</title>
<g id="a_edge39_Node000025_Node000029"><a xlink:title=" ">
<path fill="none" stroke="#63b8ff" d="M1497.19,-225.97C1507.1,-216.83 1517.82,-206.94 1527.09,-198.39"/>
<polygon fill="#63b8ff" stroke="#63b8ff" points="1494.82,-223.39 1489.85,-232.74 1499.57,-228.54 1494.82,-223.39"/>
</a>
</g>
</g>
<!-- Node26&#45;&gt;Node27 -->
<g id="edge34_Node000026_Node000027" class="edge">
<title>Node26&#45;&gt;Node27</title>
<g id="a_edge34_Node000026_Node000027"><a xlink:title=" ">
<path fill="none" stroke="#63b8ff" d="M1643.73,-68.84C1658.8,-57.47 1676.67,-44 1690.28,-33.75"/>
<polygon fill="#63b8ff" stroke="#63b8ff" points="1641.85,-65.87 1635.97,-74.68 1646.07,-71.46 1641.85,-65.87"/>
</a>
</g>
</g>
<!-- Node28&#45;&gt;Node26 -->
<g id="edge37_Node000028_Node000026" class="edge">
<title>Node28&#45;&gt;Node26</title>
<g id="a_edge37_Node000028_Node000026"><a xlink:title=" ">
<path fill="none" stroke="#63b8ff" d="M1659.12,-143.1C1648.64,-131.74 1637.19,-119.31 1628.37,-109.75"/>
<polygon fill="#63b8ff" stroke="#63b8ff" points="1656.51,-145.43 1665.86,-150.41 1661.65,-140.68 1656.51,-145.43"/>
</a>
</g>
</g>
<!-- Node28&#45;&gt;Node27 -->
<g id="edge38_Node000028_Node000027" class="edge">
<title>Node28&#45;&gt;Node27</title>
<g id="a_edge38_Node000028_Node000027"><a xlink:title=" ">
<path fill="none" stroke="#63b8ff" d="M1692.68,-140.19C1697.72,-107.36 1705.18,-58.85 1709.02,-33.89"/>
<polygon fill="#63b8ff" stroke="#63b8ff" points="1689.23,-139.59 1691.17,-150.01 1696.15,-140.66 1689.23,-139.59"/>
</a>
</g>
</g>
<!-- Node31 -->
<g id="Node000031" class="node">
<title>Node31</title>
<g id="a_Node000031"><a xlink:href="gnrc_2sixlowpan_8h.html" target="_top" xlink:title="Definitions for 6LoWPAN.">
<polygon fill="white" stroke="#666666" points="1333.25,-419.25 1219.75,-419.25 1219.75,-385.75 1333.25,-385.75 1333.25,-419.25"/>
<text text-anchor="start" x="1227.75" y="-405.75" font-family="Helvetica,sans-Serif" font-size="10.00">sys/include/net/gnrc</text>
<text text-anchor="middle" x="1276.5" y="-393" font-family="Helvetica,sans-Serif" font-size="10.00">/sixlowpan.h</text>
</a>
</g>
</g>
<!-- Node30&#45;&gt;Node31 -->
<g id="edge44_Node000030_Node000031" class="edge">
<title>Node30&#45;&gt;Node31</title>
<g id="a_edge44_Node000030_Node000031"><a xlink:title=" ">
<path fill="none" stroke="#63b8ff" d="M1276.5,-443.56C1276.5,-435.34 1276.5,-426.59 1276.5,-419.38"/>
<polygon fill="#63b8ff" stroke="#63b8ff" points="1273,-443.49 1276.5,-453.49 1280,-443.49 1273,-443.49"/>
</a>
</g>
</g>
<!-- Node32 -->
<g id="Node000032" class="node">
<title>Node32</title>
<g id="a_Node000032"><a xlink:href="minfwd_8h.html" target="_top" xlink:title="Minimal fragment forwarding definitions.">
<polygon fill="white" stroke="#666666" points="1452.38,-349.75 1312.62,-349.75 1312.62,-316.25 1452.38,-316.25 1452.38,-349.75"/>
<text text-anchor="start" x="1320.62" y="-336.25" font-family="Helvetica,sans-Serif" font-size="10.00">sys/include/net/gnrc</text>
<text text-anchor="middle" x="1382.5" y="-323.5" font-family="Helvetica,sans-Serif" font-size="10.00">/sixlowpan/frag/minfwd.h</text>
</a>
</g>
</g>
<!-- Node30&#45;&gt;Node32 -->
<g id="edge45_Node000030_Node000032" class="edge">
<title>Node30&#45;&gt;Node32</title>
<g id="a_edge45_Node000030_Node000032"><a xlink:title=" ">
<path fill="none" stroke="#63b8ff" d="M1311.71,-448.22C1322.54,-440.02 1333.87,-430.09 1342.5,-419.25 1359.5,-397.89 1371.34,-368.12 1377.52,-350"/>
<polygon fill="#63b8ff" stroke="#63b8ff" points="1309.68,-445.37 1303.63,-454.07 1313.78,-451.04 1309.68,-445.37"/>
</a>
</g>
</g>
<!-- Node34 -->
<g id="Node000034" class="node">
<title>Node34</title>
<g id="a_Node000034"><a xlink:href="vrb_8h.html" target="_top" xlink:title="Virtual reassembly buffer definitions.">
<polygon fill="white" stroke="#666666" points="1507.88,-419.25 1389.12,-419.25 1389.12,-385.75 1507.88,-385.75 1507.88,-419.25"/>
<text text-anchor="start" x="1397.12" y="-405.75" font-family="Helvetica,sans-Serif" font-size="10.00">sys/include/net/gnrc</text>
<text text-anchor="middle" x="1448.5" y="-393" font-family="Helvetica,sans-Serif" font-size="10.00">/sixlowpan/frag/vrb.h</text>
</a>
</g>
</g>
<!-- Node33&#45;&gt;Node34 -->
<g id="edge47_Node000033_Node000034" class="edge">
<title>Node33&#45;&gt;Node34</title>
<g id="a_edge47_Node000033_Node000034"><a xlink:title=" ">
<path fill="none" stroke="#63b8ff" d="M1436.46,-444.14C1438.95,-435.75 1441.61,-426.76 1443.79,-419.38"/>
<polygon fill="#63b8ff" stroke="#63b8ff" points="1433.15,-442.97 1433.67,-453.55 1439.87,-444.96 1433.15,-442.97"/>
</a>
</g>
</g>
<!-- Node34&#45;&gt;Node32 -->
<g id="edge48_Node000034_Node000032" class="edge">
<title>Node34&#45;&gt;Node32</title>
<g id="a_edge48_Node000034_Node000032"><a xlink:title=" ">
<path fill="none" stroke="#63b8ff" d="M1425,-377.47C1416.05,-368.31 1406.07,-358.1 1398.03,-349.88"/>
<polygon fill="#63b8ff" stroke="#63b8ff" points="1422.31,-379.72 1431.8,-384.42 1427.31,-374.82 1422.31,-379.72"/>
</a>
</g>
</g>
<!-- Node35 -->
<g id="Node000035" class="node">
<title>Node35</title>
<g id="a_Node000035"><a xlink:href="gnrc_2sixlowpan_2frag_2sfr_8h.html" target="_top" xlink:title="6LoWPAN selective fragment recovery definitions for GNRC">
<polygon fill="white" stroke="#666666" points="1656.38,-349.75 1540.62,-349.75 1540.62,-316.25 1656.38,-316.25 1656.38,-349.75"/>
<text text-anchor="start" x="1548.62" y="-336.25" font-family="Helvetica,sans-Serif" font-size="10.00">sys/include/net/gnrc</text>
<text text-anchor="middle" x="1598.5" y="-323.5" font-family="Helvetica,sans-Serif" font-size="10.00">/sixlowpan/frag/sfr.h</text>
</a>
</g>
</g>
<!-- Node34&#45;&gt;Node35 -->
<g id="edge49_Node000034_Node000035" class="edge">
<title>Node34&#45;&gt;Node35</title>
<g id="a_edge49_Node000034_Node000035"><a xlink:title=" ">
<path fill="none" stroke="#63b8ff" d="M1494.8,-380.67C1516.63,-370.84 1542.28,-359.3 1562.6,-350.15"/>
<polygon fill="#63b8ff" stroke="#63b8ff" points="1493.49,-377.42 1485.81,-384.71 1496.36,-383.8 1493.49,-377.42"/>
</a>
</g>
</g>
<!-- Node36 -->
<g id="Node000036" class="node">
<title>Node36</title>
<g id="a_Node000036"><a xlink:href="net_2gnrc_2sixlowpan_2frag_2sfr_2congure_8h.html" target="_top" xlink:title="Congure definitions for 6LoWPAN selective fragment recovery.">
<polygon fill="white" stroke="#666666" points="1699.38,-273.88 1541.62,-273.88 1541.62,-240.38 1699.38,-240.38 1699.38,-273.88"/>
<text text-anchor="start" x="1549.62" y="-260.38" font-family="Helvetica,sans-Serif" font-size="10.00">sys/include/net/gnrc</text>
<text text-anchor="middle" x="1620.5" y="-247.62" font-family="Helvetica,sans-Serif" font-size="10.00">/sixlowpan/frag/sfr/congure.h</text>
</a>
</g>
</g>
<!-- Node35&#45;&gt;Node36 -->
<g id="edge50_Node000035_Node000036" class="edge">
<title>Node35&#45;&gt;Node36</title>
<g id="a_edge50_Node000035_Node000036"><a xlink:title=" ">
<path fill="none" stroke="#63b8ff" d="M1606.56,-304.95C1609.64,-294.59 1613.06,-283.12 1615.74,-274.12"/>
<polygon fill="#63b8ff" stroke="#63b8ff" points="1603.21,-303.94 1603.71,-314.52 1609.91,-305.93 1603.21,-303.94"/>
</a>
</g>
</g>
<!-- Node36&#45;&gt;Node36 -->
<g id="edge51_Node000036_Node000036" class="edge">
<title>Node36&#45;&gt;Node36</title>
<g id="a_edge51_Node000036_Node000036"><a xlink:title=" ">
<path fill="none" stroke="#63b8ff" d="M1710.25,-266.31C1714.73,-264.02 1717.38,-260.96 1717.38,-257.12 1717.38,-250.83 1710.26,-246.62 1699.56,-244.5"/>
<polygon fill="#63b8ff" stroke="#63b8ff" points="1709.45,-262.89 1701,-269.28 1711.59,-269.55 1709.45,-262.89"/>
</a>
</g>
</g>
</g>
</svg>
