<?xml version="1.0" encoding="UTF-8" standalone="no"?>
<!DOCTYPE svg PUBLIC "-//W3C//DTD SVG 1.1//EN"
 "http://www.w3.org/Graphics/SVG/1.1/DTD/svg11.dtd">
<!-- Generated by graphviz version 12.1.1 (0)
 -->
<!-- Title: sys/include/net/gnrc/gomach/hdr.h Pages: 1 -->
<svg width="350pt" height="325pt"
 viewBox="0.00 0.00 349.88 325.25" xmlns="http://www.w3.org/2000/svg" xmlns:xlink="http://www.w3.org/1999/xlink">
<g id="graph0" class="graph" transform="scale(1 1) rotate(0) translate(4 321.25)">
<title>sys/include/net/gnrc/gomach/hdr.h</title>
<!-- Node1 -->
<g id="Node000001" class="node">
<title>Node1</title>
<g id="a_Node000001"><a xlink:title="Header definition of GoMacH.">
<polygon fill="#999999" stroke="#666666" points="115.75,-317.25 2.25,-317.25 2.25,-283.75 115.75,-283.75 115.75,-317.25"/>
<text text-anchor="start" x="10.25" y="-303.75" font-family="Helvetica,sans-Serif" font-size="10.00">sys/include/net/gnrc</text>
<text text-anchor="middle" x="59" y="-291" font-family="Helvetica,sans-Serif" font-size="10.00">/gomach/hdr.h</text>
</a>
</g>
</g>
<!-- Node2 -->
<g id="Node000002" class="node">
<title>Node2</title>
<g id="a_Node000002"><a xlink:title=" ">
<polygon fill="#e0e0e0" stroke="#999999" points="165.38,-20.75 112.62,-20.75 112.62,0 165.38,0 165.38,-20.75"/>
<text text-anchor="middle" x="139" y="-7.25" font-family="Helvetica,sans-Serif" font-size="10.00">stdint.h</text>
</a>
</g>
</g>
<!-- Node1&#45;&gt;Node2 -->
<g id="edge1_Node000001_Node000002" class="edge">
<title>Node1&#45;&gt;Node2</title>
<g id="a_edge1_Node000001_Node000002"><a xlink:title=" ">
<path fill="none" stroke="#63b8ff" d="M43.93,-283.35C35.57,-273.65 25.57,-260.72 19,-247.75 5.18,-220.47 0,-212.2 0,-181.62 0,-181.62 0,-181.62 0,-122.88 0,-70.73 60.25,-38.92 101.42,-23.27"/>
<polygon fill="#63b8ff" stroke="#63b8ff" points="102.56,-26.57 110.78,-19.88 100.18,-19.99 102.56,-26.57"/>
</a>
</g>
</g>
<!-- Node3 -->
<g id="Node000003" class="node">
<title>Node3</title>
<g id="a_Node000003"><a xlink:title=" ">
<polygon fill="#e0e0e0" stroke="#999999" points="89.5,-247.75 28.5,-247.75 28.5,-227 89.5,-227 89.5,-247.75"/>
<text text-anchor="middle" x="59" y="-234.25" font-family="Helvetica,sans-Serif" font-size="10.00">stdbool.h</text>
</a>
</g>
</g>
<!-- Node1&#45;&gt;Node3 -->
<g id="edge2_Node000001_Node000003" class="edge">
<title>Node1&#45;&gt;Node3</title>
<g id="a_edge2_Node000001_Node000003"><a xlink:title=" ">
<path fill="none" stroke="#63b8ff" d="M59,-283.44C59,-276.1 59,-267.32 59,-259.46"/>
<polygon fill="#63b8ff" stroke="#63b8ff" points="62.5,-259.73 59,-249.73 55.5,-259.73 62.5,-259.73"/>
</a>
</g>
</g>
<!-- Node4 -->
<g id="Node000004" class="node">
<title>Node4</title>
<g id="a_Node000004"><a xlink:href="sys_2include_2net_2ieee802154_8h.html" target="_top" xlink:title="IEEE 802.15.4 header definitions.">
<polygon fill="white" stroke="#666666" points="208.38,-247.75 107.62,-247.75 107.62,-227 208.38,-227 208.38,-247.75"/>
<text text-anchor="middle" x="158" y="-234.25" font-family="Helvetica,sans-Serif" font-size="10.00">net/ieee802154.h</text>
</a>
</g>
</g>
<!-- Node1&#45;&gt;Node4 -->
<g id="edge3_Node000001_Node000004" class="edge">
<title>Node1&#45;&gt;Node4</title>
<g id="a_edge3_Node000001_Node000004"><a xlink:title=" ">
<path fill="none" stroke="#63b8ff" d="M85.27,-283.28C99.98,-274.2 118.22,-262.93 132.76,-253.96"/>
<polygon fill="#63b8ff" stroke="#63b8ff" points="134.19,-257.19 140.86,-248.96 130.51,-251.24 134.19,-257.19"/>
</a>
</g>
</g>
<!-- Node4&#45;&gt;Node2 -->
<g id="edge4_Node000004_Node000002" class="edge">
<title>Node4&#45;&gt;Node2</title>
<g id="a_edge4_Node000004_Node000002"><a xlink:title=" ">
<path fill="none" stroke="#63b8ff" d="M118.54,-226.59C100.11,-219.83 79.87,-208.75 69,-191 51.96,-163.19 20.36,-179.17 88,-56.75 94.34,-45.27 104.73,-35.24 114.48,-27.55"/>
<polygon fill="#63b8ff" stroke="#63b8ff" points="116.28,-30.57 122.26,-21.82 112.13,-24.93 116.28,-30.57"/>
</a>
</g>
</g>
<!-- Node5 -->
<g id="Node000005" class="node">
<title>Node5</title>
<g id="a_Node000005"><a xlink:title=" ">
<polygon fill="#e0e0e0" stroke="#999999" points="130,-191 78,-191 78,-170.25 130,-170.25 130,-191"/>
<text text-anchor="middle" x="104" y="-177.5" font-family="Helvetica,sans-Serif" font-size="10.00">stdlib.h</text>
</a>
</g>
</g>
<!-- Node4&#45;&gt;Node5 -->
<g id="edge5_Node000004_Node000005" class="edge">
<title>Node4&#45;&gt;Node5</title>
<g id="a_edge5_Node000004_Node000005"><a xlink:title=" ">
<path fill="none" stroke="#63b8ff" d="M148.35,-226.59C140.9,-219.03 130.39,-208.39 121.48,-199.35"/>
<polygon fill="#63b8ff" stroke="#63b8ff" points="124.15,-197.07 114.63,-192.41 119.16,-201.98 124.15,-197.07"/>
</a>
</g>
</g>
<!-- Node6 -->
<g id="Node000006" class="node">
<title>Node6</title>
<g id="a_Node000006"><a xlink:href="byteorder_8h.html" target="_top" xlink:title="Functions to work with different byte orders.">
<polygon fill="white" stroke="#666666" points="216.12,-134.25 143.88,-134.25 143.88,-113.5 216.12,-113.5 216.12,-134.25"/>
<text text-anchor="middle" x="180" y="-120.75" font-family="Helvetica,sans-Serif" font-size="10.00">byteorder.h</text>
</a>
</g>
</g>
<!-- Node4&#45;&gt;Node6 -->
<g id="edge6_Node000004_Node000006" class="edge">
<title>Node4&#45;&gt;Node6</title>
<g id="a_edge6_Node000004_Node000006"><a xlink:title=" ">
<path fill="none" stroke="#63b8ff" d="M159.88,-226.87C163.4,-209.02 171.07,-170.11 175.86,-145.84"/>
<polygon fill="#63b8ff" stroke="#63b8ff" points="179.27,-146.65 177.77,-136.16 172.4,-145.29 179.27,-146.65"/>
</a>
</g>
</g>
<!-- Node10 -->
<g id="Node000010" class="node">
<title>Node10</title>
<g id="a_Node000010"><a xlink:href="eui64_8h.html" target="_top" xlink:title="EUI&#45;64 data type definition.">
<polygon fill="white" stroke="#666666" points="256.38,-191 185.62,-191 185.62,-170.25 256.38,-170.25 256.38,-191"/>
<text text-anchor="middle" x="221" y="-177.5" font-family="Helvetica,sans-Serif" font-size="10.00">net/eui64.h</text>
</a>
</g>
</g>
<!-- Node4&#45;&gt;Node10 -->
<g id="edge13_Node000004_Node000010" class="edge">
<title>Node4&#45;&gt;Node10</title>
<g id="a_edge13_Node000004_Node000010"><a xlink:title=" ">
<path fill="none" stroke="#63b8ff" d="M169.26,-226.59C178.13,-218.88 190.71,-207.95 201.25,-198.79"/>
<polygon fill="#63b8ff" stroke="#63b8ff" points="203.44,-201.52 208.69,-192.32 198.85,-196.24 203.44,-201.52"/>
</a>
</g>
</g>
<!-- Node11 -->
<g id="Node000011" class="node">
<title>Node11</title>
<g id="a_Node000011"><a xlink:href="modules_8h.html" target="_top" xlink:title="Common macros and compiler attributes/pragmas configuration.">
<polygon fill="white" stroke="#666666" points="341.5,-191 274.5,-191 274.5,-170.25 341.5,-170.25 341.5,-191"/>
<text text-anchor="middle" x="308" y="-177.5" font-family="Helvetica,sans-Serif" font-size="10.00">modules.h</text>
</a>
</g>
</g>
<!-- Node4&#45;&gt;Node11 -->
<g id="edge16_Node000004_Node000011" class="edge">
<title>Node4&#45;&gt;Node11</title>
<g id="a_edge16_Node000004_Node000011"><a xlink:title=" ">
<path fill="none" stroke="#63b8ff" d="M184.82,-226.59C208.74,-217.86 244,-204.98 270.68,-195.25"/>
<polygon fill="#63b8ff" stroke="#63b8ff" points="271.55,-198.66 279.74,-191.94 269.15,-192.08 271.55,-198.66"/>
</a>
</g>
</g>
<!-- Node6&#45;&gt;Node2 -->
<g id="edge8_Node000006_Node000002" class="edge">
<title>Node6&#45;&gt;Node2</title>
<g id="a_edge8_Node000006_Node000002"><a xlink:title=" ">
<path fill="none" stroke="#63b8ff" d="M143.58,-113.15C125.62,-106.31 105.58,-95.15 95,-77.5 84.68,-60.3 100.29,-41.3 115.7,-28.09"/>
<polygon fill="#63b8ff" stroke="#63b8ff" points="117.72,-30.96 123.37,-21.99 113.36,-25.48 117.72,-30.96"/>
</a>
</g>
</g>
<!-- Node7 -->
<g id="Node000007" class="node">
<title>Node7</title>
<g id="a_Node000007"><a xlink:title=" ">
<polygon fill="#e0e0e0" stroke="#999999" points="156.38,-77.5 103.62,-77.5 103.62,-56.75 156.38,-56.75 156.38,-77.5"/>
<text text-anchor="middle" x="130" y="-64" font-family="Helvetica,sans-Serif" font-size="10.00">string.h</text>
</a>
</g>
</g>
<!-- Node6&#45;&gt;Node7 -->
<g id="edge7_Node000006_Node000007" class="edge">
<title>Node6&#45;&gt;Node7</title>
<g id="a_edge7_Node000006_Node000007"><a xlink:title=" ">
<path fill="none" stroke="#63b8ff" d="M171.06,-113.09C164.24,-105.61 154.64,-95.11 146.44,-86.13"/>
<polygon fill="#63b8ff" stroke="#63b8ff" points="149.21,-83.97 139.88,-78.95 144.04,-88.69 149.21,-83.97"/>
</a>
</g>
</g>
<!-- Node8 -->
<g id="Node000008" class="node">
<title>Node8</title>
<g id="a_Node000008"><a xlink:href="endian_8h.html" target="_top" xlink:title="libc header for endian conversion">
<polygon fill="white" stroke="#666666" points="232,-77.5 174,-77.5 174,-56.75 232,-56.75 232,-77.5"/>
<text text-anchor="middle" x="203" y="-64" font-family="Helvetica,sans-Serif" font-size="10.00">endian.h</text>
</a>
</g>
</g>
<!-- Node6&#45;&gt;Node8 -->
<g id="edge9_Node000006_Node000008" class="edge">
<title>Node6&#45;&gt;Node8</title>
<g id="a_edge9_Node000006_Node000008"><a xlink:title=" ">
<path fill="none" stroke="#63b8ff" d="M184.11,-113.09C186.99,-106.24 190.94,-96.84 194.48,-88.4"/>
<polygon fill="#63b8ff" stroke="#63b8ff" points="197.69,-89.8 198.34,-79.22 191.24,-87.09 197.69,-89.8"/>
</a>
</g>
</g>
<!-- Node9 -->
<g id="Node000009" class="node">
<title>Node9</title>
<g id="a_Node000009"><a xlink:href="unaligned_8h.html" target="_top" xlink:title="Unaligned but safe memory access functions.">
<polygon fill="white" stroke="#666666" points="323.5,-77.5 250.5,-77.5 250.5,-56.75 323.5,-56.75 323.5,-77.5"/>
<text text-anchor="middle" x="287" y="-64" font-family="Helvetica,sans-Serif" font-size="10.00">unaligned.h</text>
</a>
</g>
</g>
<!-- Node6&#45;&gt;Node9 -->
<g id="edge11_Node000006_Node000009" class="edge">
<title>Node6&#45;&gt;Node9</title>
<g id="a_edge11_Node000006_Node000009"><a xlink:title=" ">
<path fill="none" stroke="#63b8ff" d="M199.13,-113.09C215.49,-104.72 239.28,-92.54 257.98,-82.97"/>
<polygon fill="#63b8ff" stroke="#63b8ff" points="259.38,-86.19 266.69,-78.52 256.19,-79.96 259.38,-86.19"/>
</a>
</g>
</g>
<!-- Node8&#45;&gt;Node2 -->
<g id="edge10_Node000008_Node000002" class="edge">
<title>Node8&#45;&gt;Node2</title>
<g id="a_edge10_Node000008_Node000002"><a xlink:title=" ">
<path fill="none" stroke="#63b8ff" d="M191.56,-56.34C182.55,-48.63 169.77,-37.7 159.07,-28.54"/>
<polygon fill="#63b8ff" stroke="#63b8ff" points="161.37,-25.9 151.49,-22.06 156.82,-31.22 161.37,-25.9"/>
</a>
</g>
</g>
<!-- Node9&#45;&gt;Node2 -->
<g id="edge12_Node000009_Node000002" class="edge">
<title>Node9&#45;&gt;Node2</title>
<g id="a_edge12_Node000009_Node000002"><a xlink:title=" ">
<path fill="none" stroke="#63b8ff" d="M260.54,-56.34C236.97,-47.62 202.24,-34.77 175.93,-25.04"/>
<polygon fill="#63b8ff" stroke="#63b8ff" points="177.24,-21.79 166.65,-21.6 174.81,-28.36 177.24,-21.79"/>
</a>
</g>
</g>
<!-- Node10&#45;&gt;Node2 -->
<g id="edge14_Node000010_Node000002" class="edge">
<title>Node10&#45;&gt;Node2</title>
<g id="a_edge14_Node000010_Node000002"><a xlink:title=" ">
<path fill="none" stroke="#63b8ff" d="M242.37,-169.84C283.83,-149.55 368.15,-101.08 333,-56.75 313.91,-32.68 227.88,-20.16 177.02,-14.76"/>
<polygon fill="#63b8ff" stroke="#63b8ff" points="177.63,-11.3 167.33,-13.78 176.92,-18.27 177.63,-11.3"/>
</a>
</g>
</g>
<!-- Node10&#45;&gt;Node6 -->
<g id="edge15_Node000010_Node000006" class="edge">
<title>Node10&#45;&gt;Node6</title>
<g id="a_edge15_Node000010_Node000006"><a xlink:title=" ">
<path fill="none" stroke="#63b8ff" d="M213.67,-169.84C208.25,-162.6 200.69,-152.51 194.11,-143.72"/>
<polygon fill="#63b8ff" stroke="#63b8ff" points="196.97,-141.7 188.17,-135.79 191.37,-145.89 196.97,-141.7"/>
</a>
</g>
</g>
</g>
</svg>
