<?xml version="1.0" encoding="UTF-8" standalone="no"?>
<!DOCTYPE svg PUBLIC "-//W3C//DTD SVG 1.1//EN"
 "http://www.w3.org/Graphics/SVG/1.1/DTD/svg11.dtd">
<!-- Generated by graphviz version 12.1.1 (0)
 -->
<!-- Title: sys/include/net/ipv4/hdr.h Pages: 1 -->
<svg width="457pt" height="269pt"
 viewBox="0.00 0.00 456.88 268.50" xmlns="http://www.w3.org/2000/svg" xmlns:xlink="http://www.w3.org/1999/xlink">
<g id="graph0" class="graph" transform="scale(1 1) rotate(0) translate(4 264.5)">
<title>sys/include/net/ipv4/hdr.h</title>
<!-- Node1 -->
<g id="Node000001" class="node">
<title>Node1</title>
<g id="a_Node000001"><a xlink:title="IPv4 header type and helper function definitions.">
<polygon fill="#999999" stroke="#666666" points="268.12,-260.5 154.62,-260.5 154.62,-227 268.12,-227 268.12,-260.5"/>
<text text-anchor="start" x="162.62" y="-247" font-family="Helvetica,sans-Serif" font-size="10.00">sys/include/net/ipv4</text>
<text text-anchor="middle" x="211.38" y="-234.25" font-family="Helvetica,sans-Serif" font-size="10.00">/hdr.h</text>
</a>
</g>
</g>
<!-- Node2 -->
<g id="Node000002" class="node">
<title>Node2</title>
<g id="a_Node000002"><a xlink:href="byteorder_8h.html" target="_top" xlink:title="Functions to work with different byte orders.">
<polygon fill="white" stroke="#666666" points="192.5,-134.25 120.25,-134.25 120.25,-113.5 192.5,-113.5 192.5,-134.25"/>
<text text-anchor="middle" x="156.38" y="-120.75" font-family="Helvetica,sans-Serif" font-size="10.00">byteorder.h</text>
</a>
</g>
</g>
<!-- Node1&#45;&gt;Node2 -->
<g id="edge1_Node000001_Node000002" class="edge">
<title>Node1&#45;&gt;Node2</title>
<g id="a_edge1_Node000001_Node000002"><a xlink:title=" ">
<path fill="none" stroke="#63b8ff" d="M203.96,-226.85C194.07,-205.67 176.58,-168.18 165.78,-145.04"/>
<polygon fill="#63b8ff" stroke="#63b8ff" points="168.99,-143.64 161.59,-136.05 162.65,-146.6 168.99,-143.64"/>
</a>
</g>
</g>
<!-- Node7 -->
<g id="Node000007" class="node">
<title>Node7</title>
<g id="a_Node000007"><a xlink:href="ipv4_2addr_8h.html" target="_top" xlink:title="IPv4 address type and helper functions definitions.">
<polygon fill="white" stroke="#666666" points="331.12,-191 241.62,-191 241.62,-170.25 331.12,-170.25 331.12,-191"/>
<text text-anchor="middle" x="286.38" y="-177.5" font-family="Helvetica,sans-Serif" font-size="10.00">net/ipv4/addr.h</text>
</a>
</g>
</g>
<!-- Node1&#45;&gt;Node7 -->
<g id="edge8_Node000001_Node000007" class="edge">
<title>Node1&#45;&gt;Node7</title>
<g id="a_edge8_Node000001_Node000007"><a xlink:title=" ">
<path fill="none" stroke="#63b8ff" d="M231.08,-226.69C241.69,-218.05 254.77,-207.38 265.54,-198.6"/>
<polygon fill="#63b8ff" stroke="#63b8ff" points="267.59,-201.45 273.13,-192.42 263.16,-196.03 267.59,-201.45"/>
</a>
</g>
</g>
<!-- Node3 -->
<g id="Node000003" class="node">
<title>Node3</title>
<g id="a_Node000003"><a xlink:title=" ">
<polygon fill="#e0e0e0" stroke="#999999" points="52.75,-77.5 0,-77.5 0,-56.75 52.75,-56.75 52.75,-77.5"/>
<text text-anchor="middle" x="26.38" y="-64" font-family="Helvetica,sans-Serif" font-size="10.00">string.h</text>
</a>
</g>
</g>
<!-- Node2&#45;&gt;Node3 -->
<g id="edge2_Node000002_Node000003" class="edge">
<title>Node2&#45;&gt;Node3</title>
<g id="a_edge2_Node000002_Node000003"><a xlink:title=" ">
<path fill="none" stroke="#63b8ff" d="M133.13,-113.09C112.71,-104.48 82.74,-91.86 59.75,-82.18"/>
<polygon fill="#63b8ff" stroke="#63b8ff" points="61.38,-79.07 50.81,-78.42 58.67,-85.52 61.38,-79.07"/>
</a>
</g>
</g>
<!-- Node4 -->
<g id="Node000004" class="node">
<title>Node4</title>
<g id="a_Node000004"><a xlink:title=" ">
<polygon fill="#e0e0e0" stroke="#999999" points="205.75,-20.75 153,-20.75 153,0 205.75,0 205.75,-20.75"/>
<text text-anchor="middle" x="179.38" y="-7.25" font-family="Helvetica,sans-Serif" font-size="10.00">stdint.h</text>
</a>
</g>
</g>
<!-- Node2&#45;&gt;Node4 -->
<g id="edge3_Node000002_Node000004" class="edge">
<title>Node2&#45;&gt;Node4</title>
<g id="a_edge3_Node000002_Node000004"><a xlink:title=" ">
<path fill="none" stroke="#63b8ff" d="M137.01,-113.04C115.8,-100.87 86.41,-79.01 99.38,-56.75 108.74,-40.68 126.14,-29.84 142.33,-22.8"/>
<polygon fill="#63b8ff" stroke="#63b8ff" points="143.28,-26.19 151.29,-19.26 140.71,-19.67 143.28,-26.19"/>
</a>
</g>
</g>
<!-- Node5 -->
<g id="Node000005" class="node">
<title>Node5</title>
<g id="a_Node000005"><a xlink:href="endian_8h.html" target="_top" xlink:title="libc header for endian conversion">
<polygon fill="white" stroke="#666666" points="166.38,-77.5 108.38,-77.5 108.38,-56.75 166.38,-56.75 166.38,-77.5"/>
<text text-anchor="middle" x="137.38" y="-64" font-family="Helvetica,sans-Serif" font-size="10.00">endian.h</text>
</a>
</g>
</g>
<!-- Node2&#45;&gt;Node5 -->
<g id="edge4_Node000002_Node000005" class="edge">
<title>Node2&#45;&gt;Node5</title>
<g id="a_edge4_Node000002_Node000005"><a xlink:title=" ">
<path fill="none" stroke="#63b8ff" d="M152.98,-113.09C150.63,-106.31 147.41,-97.05 144.51,-88.69"/>
<polygon fill="#63b8ff" stroke="#63b8ff" points="147.82,-87.56 141.24,-79.26 141.21,-89.85 147.82,-87.56"/>
</a>
</g>
</g>
<!-- Node6 -->
<g id="Node000006" class="node">
<title>Node6</title>
<g id="a_Node000006"><a xlink:href="unaligned_8h.html" target="_top" xlink:title="Unaligned but safe memory access functions.">
<polygon fill="white" stroke="#666666" points="257.88,-77.5 184.88,-77.5 184.88,-56.75 257.88,-56.75 257.88,-77.5"/>
<text text-anchor="middle" x="221.38" y="-64" font-family="Helvetica,sans-Serif" font-size="10.00">unaligned.h</text>
</a>
</g>
</g>
<!-- Node2&#45;&gt;Node6 -->
<g id="edge6_Node000002_Node000006" class="edge">
<title>Node2&#45;&gt;Node6</title>
<g id="a_edge6_Node000002_Node000006"><a xlink:title=" ">
<path fill="none" stroke="#63b8ff" d="M168,-113.09C177.24,-105.3 190.39,-94.22 201.32,-85.01"/>
<polygon fill="#63b8ff" stroke="#63b8ff" points="203.3,-87.92 208.7,-78.8 198.79,-82.57 203.3,-87.92"/>
</a>
</g>
</g>
<!-- Node5&#45;&gt;Node4 -->
<g id="edge5_Node000005_Node000004" class="edge">
<title>Node5&#45;&gt;Node4</title>
<g id="a_edge5_Node000005_Node000004"><a xlink:title=" ">
<path fill="none" stroke="#63b8ff" d="M144.88,-56.34C150.5,-49.02 158.34,-38.79 165.13,-29.94"/>
<polygon fill="#63b8ff" stroke="#63b8ff" points="167.7,-32.34 171.01,-22.28 162.15,-28.08 167.7,-32.34"/>
</a>
</g>
</g>
<!-- Node6&#45;&gt;Node4 -->
<g id="edge7_Node000006_Node000004" class="edge">
<title>Node6&#45;&gt;Node4</title>
<g id="a_edge7_Node000006_Node000004"><a xlink:title=" ">
<path fill="none" stroke="#63b8ff" d="M213.87,-56.34C208.25,-49.02 200.41,-38.79 193.62,-29.94"/>
<polygon fill="#63b8ff" stroke="#63b8ff" points="196.6,-28.08 187.74,-22.28 191.05,-32.34 196.6,-28.08"/>
</a>
</g>
</g>
<!-- Node7&#45;&gt;Node2 -->
<g id="edge12_Node000007_Node000002" class="edge">
<title>Node7&#45;&gt;Node2</title>
<g id="a_edge12_Node000007_Node000002"><a xlink:title=" ">
<path fill="none" stroke="#63b8ff" d="M263.13,-169.84C242.71,-161.23 212.74,-148.61 189.75,-138.93"/>
<polygon fill="#63b8ff" stroke="#63b8ff" points="191.38,-135.82 180.81,-135.17 188.67,-142.27 191.38,-135.82"/>
</a>
</g>
</g>
<!-- Node7&#45;&gt;Node4 -->
<g id="edge10_Node000007_Node000004" class="edge">
<title>Node7&#45;&gt;Node4</title>
<g id="a_edge10_Node000007_Node000004"><a xlink:title=" ">
<path fill="none" stroke="#63b8ff" d="M287.63,-169.92C289.98,-147.63 292.73,-91.96 267.38,-56.75 255.23,-39.88 234.93,-28.83 216.88,-21.86"/>
<polygon fill="#63b8ff" stroke="#63b8ff" points="218.05,-18.56 207.46,-18.53 215.73,-25.16 218.05,-18.56"/>
</a>
</g>
</g>
<!-- Node8 -->
<g id="Node000008" class="node">
<title>Node8</title>
<g id="a_Node000008"><a xlink:title=" ">
<polygon fill="#e0e0e0" stroke="#999999" points="375.88,-134.25 314.88,-134.25 314.88,-113.5 375.88,-113.5 375.88,-134.25"/>
<text text-anchor="middle" x="345.38" y="-120.75" font-family="Helvetica,sans-Serif" font-size="10.00">stdbool.h</text>
</a>
</g>
</g>
<!-- Node7&#45;&gt;Node8 -->
<g id="edge9_Node000007_Node000008" class="edge">
<title>Node7&#45;&gt;Node8</title>
<g id="a_edge9_Node000007_Node000008"><a xlink:title=" ">
<path fill="none" stroke="#63b8ff" d="M296.92,-169.84C305.15,-162.21 316.77,-151.42 326.58,-142.32"/>
<polygon fill="#63b8ff" stroke="#63b8ff" points="328.86,-144.98 333.81,-135.61 324.1,-139.84 328.86,-144.98"/>
</a>
</g>
</g>
<!-- Node9 -->
<g id="Node000009" class="node">
<title>Node9</title>
<g id="a_Node000009"><a xlink:title=" ">
<polygon fill="#e0e0e0" stroke="#999999" points="448.88,-134.25 393.88,-134.25 393.88,-113.5 448.88,-113.5 448.88,-134.25"/>
<text text-anchor="middle" x="421.38" y="-120.75" font-family="Helvetica,sans-Serif" font-size="10.00">stddef.h</text>
</a>
</g>
</g>
<!-- Node7&#45;&gt;Node9 -->
<g id="edge11_Node000007_Node000009" class="edge">
<title>Node7&#45;&gt;Node9</title>
<g id="a_edge11_Node000007_Node000009"><a xlink:title=" ">
<path fill="none" stroke="#63b8ff" d="M310.51,-169.84C331.82,-161.19 363.13,-148.5 387.04,-138.8"/>
<polygon fill="#63b8ff" stroke="#63b8ff" points="388.09,-142.15 396.05,-135.15 385.46,-135.66 388.09,-142.15"/>
</a>
</g>
</g>
</g>
</svg>
