<?xml version="1.0" encoding="UTF-8" standalone="no"?>
<!DOCTYPE svg PUBLIC "-//W3C//DTD SVG 1.1//EN"
 "http://www.w3.org/Graphics/SVG/1.1/DTD/svg11.dtd">
<!-- Generated by graphviz version 12.1.1 (0)
 -->
<!-- Title: sys/include/net/gnrc/netapi.h Pages: 1 -->
<svg width="779pt" height="382pt"
 viewBox="0.00 0.00 779.12 382.00" xmlns="http://www.w3.org/2000/svg" xmlns:xlink="http://www.w3.org/1999/xlink">
<g id="graph0" class="graph" transform="scale(1 1) rotate(0) translate(4 378)">
<title>sys/include/net/gnrc/netapi.h</title>
<!-- Node1 -->
<g id="Node000001" class="node">
<title>Node1</title>
<g id="a_Node000001"><a xlink:title="Generic interface to communicate with GNRC modules.">
<polygon fill="#999999" stroke="#666666" points="421.25,-374 307.75,-374 307.75,-340.5 421.25,-340.5 421.25,-374"/>
<text text-anchor="start" x="315.75" y="-360.5" font-family="Helvetica,sans-Serif" font-size="10.00">sys/include/net/gnrc</text>
<text text-anchor="middle" x="364.5" y="-347.75" font-family="Helvetica,sans-Serif" font-size="10.00">/netapi.h</text>
</a>
</g>
</g>
<!-- Node2 -->
<g id="Node000002" class="node">
<title>Node2</title>
<g id="a_Node000002"><a xlink:title=" ">
<polygon fill="#e0e0e0" stroke="#999999" points="301.75,-304.5 245.25,-304.5 245.25,-283.75 301.75,-283.75 301.75,-304.5"/>
<text text-anchor="middle" x="273.5" y="-291" font-family="Helvetica,sans-Serif" font-size="10.00">thread.h</text>
</a>
</g>
</g>
<!-- Node1&#45;&gt;Node2 -->
<g id="edge1_Node000001_Node000002" class="edge">
<title>Node1&#45;&gt;Node2</title>
<g id="a_edge1_Node000001_Node000002"><a xlink:title=" ">
<path fill="none" stroke="#63b8ff" d="M340.59,-340.19C327.33,-331.28 310.89,-320.24 297.6,-311.31"/>
<polygon fill="#63b8ff" stroke="#63b8ff" points="299.66,-308.48 289.41,-305.81 295.76,-314.29 299.66,-308.48"/>
</a>
</g>
</g>
<!-- Node3 -->
<g id="Node000003" class="node">
<title>Node3</title>
<g id="a_Node000003"><a xlink:href="netopt_8h.html" target="_top" xlink:title="Definition of global configuration options.">
<polygon fill="white" stroke="#666666" points="771.12,-191 695.88,-191 695.88,-170.25 771.12,-170.25 771.12,-191"/>
<text text-anchor="middle" x="733.5" y="-177.5" font-family="Helvetica,sans-Serif" font-size="10.00">net/netopt.h</text>
</a>
</g>
</g>
<!-- Node1&#45;&gt;Node3 -->
<g id="edge2_Node000001_Node000003" class="edge">
<title>Node1&#45;&gt;Node3</title>
<g id="a_edge2_Node000001_Node000003"><a xlink:title=" ">
<path fill="none" stroke="#63b8ff" d="M398.55,-340.13C469.85,-306.39 633.9,-228.76 702.48,-196.31"/>
<polygon fill="#63b8ff" stroke="#63b8ff" points="703.73,-199.59 711.27,-192.15 700.73,-193.26 703.73,-199.59"/>
</a>
</g>
</g>
<!-- Node6 -->
<g id="Node000006" class="node">
<title>Node6</title>
<g id="a_Node000006"><a xlink:href="nettype_8h.html" target="_top" xlink:title="Protocol type definitions.">
<polygon fill="white" stroke="#666666" points="288.12,-247.75 182.88,-247.75 182.88,-227 288.12,-227 288.12,-247.75"/>
<text text-anchor="middle" x="235.5" y="-234.25" font-family="Helvetica,sans-Serif" font-size="10.00">net/gnrc/nettype.h</text>
</a>
</g>
</g>
<!-- Node1&#45;&gt;Node6 -->
<g id="edge5_Node000001_Node000006" class="edge">
<title>Node1&#45;&gt;Node6</title>
<g id="a_edge5_Node000001_Node000006"><a xlink:title=" ">
<path fill="none" stroke="#63b8ff" d="M355.07,-340.14C345.33,-324.43 328.97,-300.53 310.5,-283.75 297.36,-271.81 280.61,-261.33 266.28,-253.46"/>
<polygon fill="#63b8ff" stroke="#63b8ff" points="268.17,-250.5 257.7,-248.91 264.9,-256.68 268.17,-250.5"/>
</a>
</g>
</g>
<!-- Node11 -->
<g id="Node000011" class="node">
<title>Node11</title>
<g id="a_Node000011"><a xlink:href="net_2gnrc_2pkt_8h.html" target="_top" xlink:title="General definitions for network packets and their helper functions.">
<polygon fill="white" stroke="#666666" points="441.25,-304.5 357.75,-304.5 357.75,-283.75 441.25,-283.75 441.25,-304.5"/>
<text text-anchor="middle" x="399.5" y="-291" font-family="Helvetica,sans-Serif" font-size="10.00">net/gnrc/pkt.h</text>
</a>
</g>
</g>
<!-- Node1&#45;&gt;Node11 -->
<g id="edge10_Node000001_Node000011" class="edge">
<title>Node1&#45;&gt;Node11</title>
<g id="a_edge10_Node000001_Node000011"><a xlink:title=" ">
<path fill="none" stroke="#63b8ff" d="M373.7,-340.19C378.15,-332.42 383.53,-323.02 388.22,-314.82"/>
<polygon fill="#63b8ff" stroke="#63b8ff" points="391.18,-316.7 393.11,-306.28 385.11,-313.22 391.18,-316.7"/>
</a>
</g>
</g>
<!-- Node4 -->
<g id="Node000004" class="node">
<title>Node4</title>
<g id="a_Node000004"><a xlink:title=" ">
<polygon fill="#e0e0e0" stroke="#999999" points="463.88,-20.75 411.12,-20.75 411.12,0 463.88,0 463.88,-20.75"/>
<text text-anchor="middle" x="437.5" y="-7.25" font-family="Helvetica,sans-Serif" font-size="10.00">stdint.h</text>
</a>
</g>
</g>
<!-- Node3&#45;&gt;Node4 -->
<g id="edge3_Node000003_Node000004" class="edge">
<title>Node3&#45;&gt;Node4</title>
<g id="a_edge3_Node000003_Node000004"><a xlink:title=" ">
<path fill="none" stroke="#63b8ff" d="M743.27,-170C755.74,-156.53 774.27,-131.65 761.5,-113.5 728.02,-65.89 553.58,-30.99 475.43,-17.5"/>
<polygon fill="#63b8ff" stroke="#63b8ff" points="476.13,-14.07 465.68,-15.85 474.96,-20.97 476.13,-14.07"/>
</a>
</g>
</g>
<!-- Node5 -->
<g id="Node000005" class="node">
<title>Node5</title>
<g id="a_Node000005"><a xlink:title=" ">
<polygon fill="#e0e0e0" stroke="#999999" points="752,-134.25 691,-134.25 691,-113.5 752,-113.5 752,-134.25"/>
<text text-anchor="middle" x="721.5" y="-120.75" font-family="Helvetica,sans-Serif" font-size="10.00">stdbool.h</text>
</a>
</g>
</g>
<!-- Node3&#45;&gt;Node5 -->
<g id="edge4_Node000003_Node000005" class="edge">
<title>Node3&#45;&gt;Node5</title>
<g id="a_edge4_Node000003_Node000005"><a xlink:title=" ">
<path fill="none" stroke="#63b8ff" d="M731.35,-169.84C729.89,-163.14 727.89,-154.01 726.07,-145.73"/>
<polygon fill="#63b8ff" stroke="#63b8ff" points="729.51,-145.08 723.95,-136.06 722.67,-146.57 729.51,-145.08"/>
</a>
</g>
</g>
<!-- Node7 -->
<g id="Node000007" class="node">
<title>Node7</title>
<g id="a_Node000007"><a xlink:href="inttypes_8h.html" target="_top" xlink:title="Adds include for missing inttype definitions.">
<polygon fill="white" stroke="#666666" points="315.88,-191 251.12,-191 251.12,-170.25 315.88,-170.25 315.88,-191"/>
<text text-anchor="middle" x="283.5" y="-177.5" font-family="Helvetica,sans-Serif" font-size="10.00">inttypes.h</text>
</a>
</g>
</g>
<!-- Node6&#45;&gt;Node7 -->
<g id="edge6_Node000006_Node000007" class="edge">
<title>Node6&#45;&gt;Node7</title>
<g id="a_edge6_Node000006_Node000007"><a xlink:title=" ">
<path fill="none" stroke="#63b8ff" d="M244.08,-226.59C250.57,-219.19 259.65,-208.82 267.47,-199.91"/>
<polygon fill="#63b8ff" stroke="#63b8ff" points="270.03,-202.29 274,-192.47 264.77,-197.68 270.03,-202.29"/>
</a>
</g>
</g>
<!-- Node8 -->
<g id="Node000008" class="node">
<title>Node8</title>
<g id="a_Node000008"><a xlink:href="modules_8h.html" target="_top" xlink:title="Common macros and compiler attributes/pragmas configuration.">
<polygon fill="white" stroke="#666666" points="217,-134.25 150,-134.25 150,-113.5 217,-113.5 217,-134.25"/>
<text text-anchor="middle" x="183.5" y="-120.75" font-family="Helvetica,sans-Serif" font-size="10.00">modules.h</text>
</a>
</g>
</g>
<!-- Node6&#45;&gt;Node8 -->
<g id="edge7_Node000006_Node000008" class="edge">
<title>Node6&#45;&gt;Node8</title>
<g id="a_edge7_Node000006_Node000008"><a xlink:title=" ">
<path fill="none" stroke="#63b8ff" d="M184.67,-226.5C164.91,-219.91 144.24,-209 132.5,-191 120.83,-173.11 139.48,-153.91 157.42,-140.84"/>
<polygon fill="#63b8ff" stroke="#63b8ff" points="159.03,-143.97 165.32,-135.45 155.09,-138.19 159.03,-143.97"/>
</a>
</g>
</g>
<!-- Node9 -->
<g id="Node000009" class="node">
<title>Node9</title>
<g id="a_Node000009"><a xlink:href="ethertype_8h.html" target="_top" xlink:title="Ether type definitions.">
<polygon fill="white" stroke="#666666" points="233,-191 142,-191 142,-170.25 233,-170.25 233,-191"/>
<text text-anchor="middle" x="187.5" y="-177.5" font-family="Helvetica,sans-Serif" font-size="10.00">net/ethertype.h</text>
</a>
</g>
</g>
<!-- Node6&#45;&gt;Node9 -->
<g id="edge8_Node000006_Node000009" class="edge">
<title>Node6&#45;&gt;Node9</title>
<g id="a_edge8_Node000006_Node000009"><a xlink:title=" ">
<path fill="none" stroke="#63b8ff" d="M226.92,-226.59C220.43,-219.19 211.35,-208.82 203.53,-199.91"/>
<polygon fill="#63b8ff" stroke="#63b8ff" points="206.23,-197.68 197,-192.47 200.97,-202.29 206.23,-197.68"/>
</a>
</g>
</g>
<!-- Node10 -->
<g id="Node000010" class="node">
<title>Node10</title>
<g id="a_Node000010"><a xlink:href="protnum_8h.html" target="_top" xlink:title="Protocol number definitions.">
<polygon fill="white" stroke="#666666" points="85,-191 0,-191 0,-170.25 85,-170.25 85,-191"/>
<text text-anchor="middle" x="42.5" y="-177.5" font-family="Helvetica,sans-Serif" font-size="10.00">net/protnum.h</text>
</a>
</g>
</g>
<!-- Node6&#45;&gt;Node10 -->
<g id="edge9_Node000006_Node000010" class="edge">
<title>Node6&#45;&gt;Node10</title>
<g id="a_edge9_Node000006_Node000010"><a xlink:title=" ">
<path fill="none" stroke="#63b8ff" d="M201,-226.59C169.39,-217.62 122.41,-204.29 87.8,-194.48"/>
<polygon fill="#63b8ff" stroke="#63b8ff" points="89.06,-191.2 78.49,-191.83 87.15,-197.93 89.06,-191.2"/>
</a>
</g>
</g>
<!-- Node11&#45;&gt;Node6 -->
<g id="edge32_Node000011_Node000006" class="edge">
<title>Node11&#45;&gt;Node6</title>
<g id="a_edge32_Node000011_Node000006"><a xlink:title=" ">
<path fill="none" stroke="#63b8ff" d="M370.18,-283.34C343.79,-274.53 304.78,-261.5 275.53,-251.74"/>
<polygon fill="#63b8ff" stroke="#63b8ff" points="276.87,-248.5 266.28,-248.65 274.65,-255.14 276.87,-248.5"/>
</a>
</g>
</g>
<!-- Node11&#45;&gt;Node7 -->
<g id="edge11_Node000011_Node000007" class="edge">
<title>Node11&#45;&gt;Node7</title>
<g id="a_edge11_Node000011_Node000007"><a xlink:title=" ">
<path fill="none" stroke="#63b8ff" d="M399.16,-283.43C398.18,-269.4 394.46,-243.35 380.5,-227 366.68,-210.8 345.81,-200.02 326.97,-193.04"/>
<polygon fill="#63b8ff" stroke="#63b8ff" points="328.2,-189.77 317.61,-189.85 325.94,-196.39 328.2,-189.77"/>
</a>
</g>
</g>
<!-- Node12 -->
<g id="Node000012" class="node">
<title>Node12</title>
<g id="a_Node000012"><a xlink:title=" ">
<polygon fill="#e0e0e0" stroke="#999999" points="371.5,-247.75 319.5,-247.75 319.5,-227 371.5,-227 371.5,-247.75"/>
<text text-anchor="middle" x="345.5" y="-234.25" font-family="Helvetica,sans-Serif" font-size="10.00">stdlib.h</text>
</a>
</g>
</g>
<!-- Node11&#45;&gt;Node12 -->
<g id="edge12_Node000011_Node000012" class="edge">
<title>Node11&#45;&gt;Node12</title>
<g id="a_edge12_Node000011_Node000012"><a xlink:title=" ">
<path fill="none" stroke="#63b8ff" d="M389.85,-283.34C382.4,-275.78 371.89,-265.14 362.98,-256.1"/>
<polygon fill="#63b8ff" stroke="#63b8ff" points="365.65,-253.82 356.13,-249.16 360.66,-258.73 365.65,-253.82"/>
</a>
</g>
</g>
<!-- Node13 -->
<g id="Node000013" class="node">
<title>Node13</title>
<g id="a_Node000013"><a xlink:href="sched_8h.html" target="_top" xlink:title="Scheduler API definition.">
<polygon fill="white" stroke="#666666" points="494.25,-247.75 440.75,-247.75 440.75,-227 494.25,-227 494.25,-247.75"/>
<text text-anchor="middle" x="467.5" y="-234.25" font-family="Helvetica,sans-Serif" font-size="10.00">sched.h</text>
</a>
</g>
</g>
<!-- Node11&#45;&gt;Node13 -->
<g id="edge13_Node000011_Node000013" class="edge">
<title>Node11&#45;&gt;Node13</title>
<g id="a_edge13_Node000011_Node000013"><a xlink:title=" ">
<path fill="none" stroke="#63b8ff" d="M411.66,-283.34C421.33,-275.55 435.08,-264.47 446.52,-255.26"/>
<polygon fill="#63b8ff" stroke="#63b8ff" points="448.68,-258.03 454.27,-249.03 444.29,-252.57 448.68,-258.03"/>
</a>
</g>
</g>
<!-- Node22 -->
<g id="Node000022" class="node">
<title>Node22</title>
<g id="a_Node000022"><a xlink:href="list_8h.html" target="_top" xlink:title="Intrusive linked list.">
<polygon fill="white" stroke="#666666" points="634.5,-134.25 594.5,-134.25 594.5,-113.5 634.5,-113.5 634.5,-134.25"/>
<text text-anchor="middle" x="614.5" y="-120.75" font-family="Helvetica,sans-Serif" font-size="10.00">list.h</text>
</a>
</g>
</g>
<!-- Node11&#45;&gt;Node22 -->
<g id="edge33_Node000011_Node000022" class="edge">
<title>Node11&#45;&gt;Node22</title>
<g id="a_edge33_Node000011_Node000022"><a xlink:title=" ">
<path fill="none" stroke="#63b8ff" d="M428.56,-283.33C450.14,-275.38 479.82,-263.01 503.5,-247.75 535.18,-227.34 541.29,-219.01 566.5,-191 579.96,-176.04 593.24,-157.36 602.41,-143.67"/>
<polygon fill="#63b8ff" stroke="#63b8ff" points="605.15,-145.87 607.72,-135.59 599.3,-142.02 605.15,-145.87"/>
</a>
</g>
</g>
<!-- Node13&#45;&gt;Node7 -->
<g id="edge15_Node000013_Node000007" class="edge">
<title>Node13&#45;&gt;Node7</title>
<g id="a_edge15_Node000013_Node000007"><a xlink:title=" ">
<path fill="none" stroke="#63b8ff" d="M440.35,-228.3C410.58,-219.44 362.39,-205.1 327.27,-194.65"/>
<polygon fill="#63b8ff" stroke="#63b8ff" points="328.4,-191.33 317.81,-191.84 326.4,-198.04 328.4,-191.33"/>
</a>
</g>
</g>
<!-- Node14 -->
<g id="Node000014" class="node">
<title>Node14</title>
<g id="a_Node000014"><a xlink:title=" ">
<polygon fill="#e0e0e0" stroke="#999999" points="594,-77.5 539,-77.5 539,-56.75 594,-56.75 594,-77.5"/>
<text text-anchor="middle" x="566.5" y="-64" font-family="Helvetica,sans-Serif" font-size="10.00">stddef.h</text>
</a>
</g>
</g>
<!-- Node13&#45;&gt;Node14 -->
<g id="edge14_Node000013_Node000014" class="edge">
<title>Node13&#45;&gt;Node14</title>
<g id="a_edge14_Node000013_Node000014"><a xlink:title=" ">
<path fill="none" stroke="#63b8ff" d="M494.46,-228.05C512.39,-221.07 534.89,-209.27 547.5,-191 568.68,-160.31 569.93,-115.1 568.5,-88.93"/>
<polygon fill="#63b8ff" stroke="#63b8ff" points="572.01,-88.98 567.77,-79.27 565.03,-89.5 572.01,-88.98"/>
</a>
</g>
</g>
<!-- Node15 -->
<g id="Node000015" class="node">
<title>Node15</title>
<g id="a_Node000015"><a xlink:href="kernel__defines_8h.html" target="_top" xlink:title="Common macros and compiler attributes/pragmas configuration.">
<polygon fill="white" stroke="#666666" points="430.62,-191 334.38,-191 334.38,-170.25 430.62,-170.25 430.62,-191"/>
<text text-anchor="middle" x="382.5" y="-177.5" font-family="Helvetica,sans-Serif" font-size="10.00">kernel_defines.h</text>
</a>
</g>
</g>
<!-- Node13&#45;&gt;Node15 -->
<g id="edge16_Node000013_Node000015" class="edge">
<title>Node13&#45;&gt;Node15</title>
<g id="a_edge16_Node000013_Node000015"><a xlink:title=" ">
<path fill="none" stroke="#63b8ff" d="M452.3,-226.59C439.73,-218.49 421.64,-206.83 407.02,-197.42"/>
<polygon fill="#63b8ff" stroke="#63b8ff" points="409.14,-194.62 398.84,-192.15 405.35,-200.51 409.14,-194.62"/>
</a>
</g>
</g>
<!-- Node20 -->
<g id="Node000020" class="node">
<title>Node20</title>
<g id="a_Node000020"><a xlink:href="native__sched_8h.html" target="_top" xlink:title="Add definitions required on the native board.">
<polygon fill="white" stroke="#666666" points="538.25,-191 448.75,-191 448.75,-170.25 538.25,-170.25 538.25,-191"/>
<text text-anchor="middle" x="493.5" y="-177.5" font-family="Helvetica,sans-Serif" font-size="10.00">native_sched.h</text>
</a>
</g>
</g>
<!-- Node13&#45;&gt;Node20 -->
<g id="edge27_Node000013_Node000020" class="edge">
<title>Node13&#45;&gt;Node20</title>
<g id="a_edge27_Node000013_Node000020"><a xlink:title=" ">
<path fill="none" stroke="#63b8ff" d="M472.15,-226.59C475.44,-219.66 479.97,-210.12 484.01,-201.61"/>
<polygon fill="#63b8ff" stroke="#63b8ff" points="487.11,-203.23 488.24,-192.7 480.79,-200.23 487.11,-203.23"/>
</a>
</g>
</g>
<!-- Node21 -->
<g id="Node000021" class="node">
<title>Node21</title>
<g id="a_Node000021"><a xlink:href="clist_8h.html" target="_top" xlink:title="Circular linked list.">
<polygon fill="white" stroke="#666666" points="678.12,-191 632.88,-191 632.88,-170.25 678.12,-170.25 678.12,-191"/>
<text text-anchor="middle" x="655.5" y="-177.5" font-family="Helvetica,sans-Serif" font-size="10.00">clist.h</text>
</a>
</g>
</g>
<!-- Node13&#45;&gt;Node21 -->
<g id="edge28_Node000013_Node000021" class="edge">
<title>Node13&#45;&gt;Node21</title>
<g id="a_edge28_Node000013_Node000021"><a xlink:title=" ">
<path fill="none" stroke="#63b8ff" d="M494.44,-228.53C528.02,-218.75 585.44,-202.03 621.87,-191.42"/>
<polygon fill="#63b8ff" stroke="#63b8ff" points="622.38,-194.92 631,-188.76 620.42,-188.19 622.38,-194.92"/>
</a>
</g>
</g>
<!-- Node15&#45;&gt;Node8 -->
<g id="edge17_Node000015_Node000008" class="edge">
<title>Node15&#45;&gt;Node8</title>
<g id="a_edge17_Node000015_Node000008"><a xlink:title=" ">
<path fill="none" stroke="#63b8ff" d="M346.92,-169.84C313.69,-160.69 263.96,-147.01 228.09,-137.14"/>
<polygon fill="#63b8ff" stroke="#63b8ff" points="229.47,-133.89 218.9,-134.61 227.61,-140.64 229.47,-133.89"/>
</a>
</g>
</g>
<!-- Node16 -->
<g id="Node000016" class="node">
<title>Node16</title>
<g id="a_Node000016"><a xlink:href="riot__version_8h.html" target="_top" xlink:title="Common macros and compiler attributes/pragmas configuration.">
<polygon fill="white" stroke="#666666" points="478.88,-77.5 396.12,-77.5 396.12,-56.75 478.88,-56.75 478.88,-77.5"/>
<text text-anchor="middle" x="437.5" y="-64" font-family="Helvetica,sans-Serif" font-size="10.00">riot_version.h</text>
</a>
</g>
</g>
<!-- Node15&#45;&gt;Node16 -->
<g id="edge18_Node000015_Node000016" class="edge">
<title>Node15&#45;&gt;Node16</title>
<g id="a_edge18_Node000015_Node000016"><a xlink:title=" ">
<path fill="none" stroke="#63b8ff" d="M388.38,-170.05C393.87,-160.98 402.13,-146.9 408.5,-134.25 416.18,-119.01 423.89,-101.28 429.43,-88.02"/>
<polygon fill="#63b8ff" stroke="#63b8ff" points="432.54,-89.67 433.11,-79.09 426.06,-87 432.54,-89.67"/>
</a>
</g>
</g>
<!-- Node17 -->
<g id="Node000017" class="node">
<title>Node17</title>
<g id="a_Node000017"><a xlink:href="compiler__hints_8h.html" target="_top" xlink:title="Common macros and compiler attributes/pragmas configuration.">
<polygon fill="white" stroke="#666666" points="399,-134.25 302,-134.25 302,-113.5 399,-113.5 399,-134.25"/>
<text text-anchor="middle" x="350.5" y="-120.75" font-family="Helvetica,sans-Serif" font-size="10.00">compiler_hints.h</text>
</a>
</g>
</g>
<!-- Node15&#45;&gt;Node17 -->
<g id="edge20_Node000015_Node000017" class="edge">
<title>Node15&#45;&gt;Node17</title>
<g id="a_edge20_Node000015_Node000017"><a xlink:title=" ">
<path fill="none" stroke="#63b8ff" d="M376.78,-169.84C372.64,-162.75 366.9,-152.94 361.85,-144.29"/>
<polygon fill="#63b8ff" stroke="#63b8ff" points="365,-142.75 356.94,-135.89 358.96,-146.28 365,-142.75"/>
</a>
</g>
</g>
<!-- Node19 -->
<g id="Node000019" class="node">
<title>Node19</title>
<g id="a_Node000019"><a xlink:href="container_8h.html" target="_top" xlink:title="Common macros and compiler attributes/pragmas configuration.">
<polygon fill="white" stroke="#666666" points="538.88,-134.25 468.12,-134.25 468.12,-113.5 538.88,-113.5 538.88,-134.25"/>
<text text-anchor="middle" x="503.5" y="-120.75" font-family="Helvetica,sans-Serif" font-size="10.00">container.h</text>
</a>
</g>
</g>
<!-- Node15&#45;&gt;Node19 -->
<g id="edge24_Node000015_Node000019" class="edge">
<title>Node15&#45;&gt;Node19</title>
<g id="a_edge24_Node000015_Node000019"><a xlink:title=" ">
<path fill="none" stroke="#63b8ff" d="M404.13,-169.84C422.97,-161.31 450.54,-148.84 471.86,-139.19"/>
<polygon fill="#63b8ff" stroke="#63b8ff" points="473.01,-142.51 480.68,-135.2 470.12,-136.14 473.01,-142.51"/>
</a>
</g>
</g>
<!-- Node16&#45;&gt;Node4 -->
<g id="edge19_Node000016_Node000004" class="edge">
<title>Node16&#45;&gt;Node4</title>
<g id="a_edge19_Node000016_Node000004"><a xlink:title=" ">
<path fill="none" stroke="#63b8ff" d="M437.5,-56.34C437.5,-49.72 437.5,-40.72 437.5,-32.52"/>
<polygon fill="#63b8ff" stroke="#63b8ff" points="441,-32.59 437.5,-22.59 434,-32.59 441,-32.59"/>
</a>
</g>
</g>
<!-- Node17&#45;&gt;Node4 -->
<g id="edge23_Node000017_Node000004" class="edge">
<title>Node17&#45;&gt;Node4</title>
<g id="a_edge23_Node000017_Node000004"><a xlink:title=" ">
<path fill="none" stroke="#63b8ff" d="M338.3,-113.07C323.29,-99.8 301.35,-75.62 314.5,-56.75 333.55,-29.42 371.01,-18.51 399.61,-14.18"/>
<polygon fill="#63b8ff" stroke="#63b8ff" points="399.88,-17.67 409.35,-12.93 398.99,-10.73 399.88,-17.67"/>
</a>
</g>
</g>
<!-- Node18 -->
<g id="Node000018" class="node">
<title>Node18</title>
<g id="a_Node000018"><a xlink:href="assert_8h.html" target="_top" xlink:title="POSIX.1&#45;2008 compliant version of the assert macro.">
<polygon fill="white" stroke="#666666" points="378,-77.5 323,-77.5 323,-56.75 378,-56.75 378,-77.5"/>
<text text-anchor="middle" x="350.5" y="-64" font-family="Helvetica,sans-Serif" font-size="10.00">assert.h</text>
</a>
</g>
</g>
<!-- Node17&#45;&gt;Node18 -->
<g id="edge21_Node000017_Node000018" class="edge">
<title>Node17&#45;&gt;Node18</title>
<g id="a_edge21_Node000017_Node000018"><a xlink:title=" ">
<path fill="none" stroke="#63b8ff" d="M350.5,-113.09C350.5,-106.47 350.5,-97.47 350.5,-89.27"/>
<polygon fill="#63b8ff" stroke="#63b8ff" points="354,-89.34 350.5,-79.34 347,-89.34 354,-89.34"/>
</a>
</g>
</g>
<!-- Node18&#45;&gt;Node4 -->
<g id="edge22_Node000018_Node000004" class="edge">
<title>Node18&#45;&gt;Node4</title>
<g id="a_edge22_Node000018_Node000004"><a xlink:title=" ">
<path fill="none" stroke="#63b8ff" d="M366.05,-56.34C378.92,-48.24 397.44,-36.58 412.41,-27.17"/>
<polygon fill="#63b8ff" stroke="#63b8ff" points="414.2,-30.17 420.8,-21.88 410.47,-24.25 414.2,-30.17"/>
</a>
</g>
</g>
<!-- Node19&#45;&gt;Node4 -->
<g id="edge26_Node000019_Node000004" class="edge">
<title>Node19&#45;&gt;Node4</title>
<g id="a_edge26_Node000019_Node000004"><a xlink:title=" ">
<path fill="none" stroke="#63b8ff" d="M502.94,-113.23C501.77,-99.74 498.23,-74.83 487.5,-56.75 480.95,-45.71 470.85,-35.81 461.45,-28.1"/>
<polygon fill="#63b8ff" stroke="#63b8ff" points="463.68,-25.41 453.62,-22.08 459.41,-30.95 463.68,-25.41"/>
</a>
</g>
</g>
<!-- Node19&#45;&gt;Node14 -->
<g id="edge25_Node000019_Node000014" class="edge">
<title>Node19&#45;&gt;Node14</title>
<g id="a_edge25_Node000019_Node000014"><a xlink:title=" ">
<path fill="none" stroke="#63b8ff" d="M514.76,-113.09C523.63,-105.38 536.21,-94.45 546.75,-85.29"/>
<polygon fill="#63b8ff" stroke="#63b8ff" points="548.94,-88.02 554.19,-78.82 544.35,-82.74 548.94,-88.02"/>
</a>
</g>
</g>
<!-- Node21&#45;&gt;Node5 -->
<g id="edge29_Node000021_Node000005" class="edge">
<title>Node21&#45;&gt;Node5</title>
<g id="a_edge29_Node000021_Node000005"><a xlink:title=" ">
<path fill="none" stroke="#63b8ff" d="M667.3,-169.84C676.68,-162.05 690.04,-150.97 701.14,-141.76"/>
<polygon fill="#63b8ff" stroke="#63b8ff" points="703.18,-144.62 708.64,-135.54 698.71,-139.24 703.18,-144.62"/>
</a>
</g>
</g>
<!-- Node21&#45;&gt;Node14 -->
<g id="edge30_Node000021_Node000014" class="edge">
<title>Node21&#45;&gt;Node14</title>
<g id="a_edge30_Node000021_Node000014"><a xlink:title=" ">
<path fill="none" stroke="#63b8ff" d="M656.13,-170.16C656.56,-156.42 655.51,-130.73 643.5,-113.5 633.93,-99.78 618.76,-89.56 604.41,-82.34"/>
<polygon fill="#63b8ff" stroke="#63b8ff" points="606.11,-79.27 595.57,-78.24 603.16,-85.62 606.11,-79.27"/>
</a>
</g>
</g>
<!-- Node21&#45;&gt;Node22 -->
<g id="edge31_Node000021_Node000022" class="edge">
<title>Node21&#45;&gt;Node22</title>
<g id="a_edge31_Node000021_Node000022"><a xlink:title=" ">
<path fill="none" stroke="#63b8ff" d="M648.17,-169.84C642.75,-162.6 635.19,-152.51 628.61,-143.72"/>
<polygon fill="#63b8ff" stroke="#63b8ff" points="631.47,-141.7 622.67,-135.79 625.87,-145.89 631.47,-141.7"/>
</a>
</g>
</g>
</g>
</svg>
