<?xml version="1.0" encoding="UTF-8" standalone="no"?>
<!DOCTYPE svg PUBLIC "-//W3C//DTD SVG 1.1//EN"
 "http://www.w3.org/Graphics/SVG/1.1/DTD/svg11.dtd">
<!-- Generated by graphviz version 12.1.1 (0)
 -->
<!-- Title: sys/include/net/gnrc/neterr.h Pages: 1 -->
<svg width="785pt" height="382pt"
 viewBox="0.00 0.00 785.25 382.00" xmlns="http://www.w3.org/2000/svg" xmlns:xlink="http://www.w3.org/1999/xlink">
<g id="graph0" class="graph" transform="scale(1 1) rotate(0) translate(4 378)">
<title>sys/include/net/gnrc/neterr.h</title>
<!-- Node1 -->
<g id="Node000001" class="node">
<title>Node1</title>
<g id="a_Node000001"><a xlink:title="Error reporting definitions.">
<polygon fill="#999999" stroke="#666666" points="636.75,-374 523.25,-374 523.25,-340.5 636.75,-340.5 636.75,-374"/>
<text text-anchor="start" x="531.25" y="-360.5" font-family="Helvetica,sans-Serif" font-size="10.00">sys/include/net/gnrc</text>
<text text-anchor="middle" x="580" y="-347.75" font-family="Helvetica,sans-Serif" font-size="10.00">/neterr.h</text>
</a>
</g>
</g>
<!-- Node2 -->
<g id="Node000002" class="node">
<title>Node2</title>
<g id="a_Node000002"><a xlink:href="errno_8h.html" target="_top" xlink:title=" ">
<polygon fill="white" stroke="#666666" points="376.25,-304.5 325.75,-304.5 325.75,-283.75 376.25,-283.75 376.25,-304.5"/>
<text text-anchor="middle" x="351" y="-291" font-family="Helvetica,sans-Serif" font-size="10.00">errno.h</text>
</a>
</g>
</g>
<!-- Node1&#45;&gt;Node2 -->
<g id="edge1_Node000001_Node000002" class="edge">
<title>Node1&#45;&gt;Node2</title>
<g id="a_edge1_Node000001_Node000002"><a xlink:title=" ">
<path fill="none" stroke="#63b8ff" d="M522.79,-341.22C486.49,-331.65 438.24,-318.87 387.48,-305.15"/>
<polygon fill="#63b8ff" stroke="#63b8ff" points="388.64,-301.84 378.07,-302.61 386.81,-308.6 388.64,-301.84"/>
</a>
</g>
</g>
<!-- Node3 -->
<g id="Node000003" class="node">
<title>Node3</title>
<g id="a_Node000003"><a xlink:title=" ">
<polygon fill="#e0e0e0" stroke="#999999" points="434.38,-20.75 381.62,-20.75 381.62,0 434.38,0 434.38,-20.75"/>
<text text-anchor="middle" x="408" y="-7.25" font-family="Helvetica,sans-Serif" font-size="10.00">stdint.h</text>
</a>
</g>
</g>
<!-- Node1&#45;&gt;Node3 -->
<g id="edge2_Node000001_Node000003" class="edge">
<title>Node1&#45;&gt;Node3</title>
<g id="a_edge2_Node000001_Node000003"><a xlink:title=" ">
<path fill="none" stroke="#63b8ff" d="M612.38,-340.06C645.77,-320.81 693,-285.29 693,-238.38 693,-238.38 693,-238.38 693,-122.88 693,-70.44 523.6,-32.58 446,-17.99"/>
<polygon fill="#63b8ff" stroke="#63b8ff" points="446.77,-14.57 436.3,-16.2 445.5,-21.46 446.77,-14.57"/>
</a>
</g>
</g>
<!-- Node4 -->
<g id="Node000004" class="node">
<title>Node4</title>
<g id="a_Node000004"><a xlink:title=" ">
<polygon fill="#e0e0e0" stroke="#999999" points="603,-304.5 557,-304.5 557,-283.75 603,-283.75 603,-304.5"/>
<text text-anchor="middle" x="580" y="-291" font-family="Helvetica,sans-Serif" font-size="10.00">msg.h</text>
</a>
</g>
</g>
<!-- Node1&#45;&gt;Node4 -->
<g id="edge3_Node000001_Node000004" class="edge">
<title>Node1&#45;&gt;Node4</title>
<g id="a_edge3_Node000001_Node000004"><a xlink:title=" ">
<path fill="none" stroke="#63b8ff" d="M580,-340.19C580,-332.85 580,-324.07 580,-316.21"/>
<polygon fill="#63b8ff" stroke="#63b8ff" points="583.5,-316.48 580,-306.48 576.5,-316.48 583.5,-316.48"/>
</a>
</g>
</g>
<!-- Node5 -->
<g id="Node000005" class="node">
<title>Node5</title>
<g id="a_Node000005"><a xlink:href="net_2gnrc_2pkt_8h.html" target="_top" xlink:title="General definitions for network packets and their helper functions.">
<polygon fill="white" stroke="#666666" points="477.75,-304.5 394.25,-304.5 394.25,-283.75 477.75,-283.75 477.75,-304.5"/>
<text text-anchor="middle" x="436" y="-291" font-family="Helvetica,sans-Serif" font-size="10.00">net/gnrc/pkt.h</text>
</a>
</g>
</g>
<!-- Node1&#45;&gt;Node5 -->
<g id="edge4_Node000001_Node000005" class="edge">
<title>Node1&#45;&gt;Node5</title>
<g id="a_edge4_Node000001_Node000005"><a xlink:title=" ">
<path fill="none" stroke="#63b8ff" d="M541.79,-340.03C519.26,-330.47 491.03,-318.49 469.4,-309.3"/>
<polygon fill="#63b8ff" stroke="#63b8ff" points="471.03,-306.19 460.46,-305.51 468.29,-312.64 471.03,-306.19"/>
</a>
</g>
</g>
<!-- Node23 -->
<g id="Node000023" class="node">
<title>Node23</title>
<g id="a_Node000023"><a xlink:title=" ">
<polygon fill="#e0e0e0" stroke="#999999" points="777.25,-304.5 720.75,-304.5 720.75,-283.75 777.25,-283.75 777.25,-304.5"/>
<text text-anchor="middle" x="749" y="-291" font-family="Helvetica,sans-Serif" font-size="10.00">thread.h</text>
</a>
</g>
</g>
<!-- Node1&#45;&gt;Node23 -->
<g id="edge32_Node000001_Node000023" class="edge">
<title>Node1&#45;&gt;Node23</title>
<g id="a_edge32_Node000001_Node000023"><a xlink:title=" ">
<path fill="none" stroke="#63b8ff" d="M624.85,-340.03C651.76,-330.29 685.62,-318.05 711.18,-308.8"/>
<polygon fill="#63b8ff" stroke="#63b8ff" points="712.3,-312.12 720.51,-305.43 709.91,-305.54 712.3,-312.12"/>
</a>
</g>
</g>
<!-- Node6 -->
<g id="Node000006" class="node">
<title>Node6</title>
<g id="a_Node000006"><a xlink:href="inttypes_8h.html" target="_top" xlink:title="Adds include for missing inttype definitions.">
<polygon fill="white" stroke="#666666" points="414.38,-191 349.62,-191 349.62,-170.25 414.38,-170.25 414.38,-191"/>
<text text-anchor="middle" x="382" y="-177.5" font-family="Helvetica,sans-Serif" font-size="10.00">inttypes.h</text>
</a>
</g>
</g>
<!-- Node5&#45;&gt;Node6 -->
<g id="edge5_Node000005_Node000006" class="edge">
<title>Node5&#45;&gt;Node6</title>
<g id="a_edge5_Node000005_Node000006"><a xlink:title=" ">
<path fill="none" stroke="#63b8ff" d="M426.74,-283.42C418.89,-274.71 407.83,-261.24 401,-247.75 393.73,-233.39 388.85,-215.83 385.86,-202.41"/>
<polygon fill="#63b8ff" stroke="#63b8ff" points="389.36,-202.05 383.93,-192.95 382.5,-203.45 389.36,-202.05"/>
</a>
</g>
</g>
<!-- Node7 -->
<g id="Node000007" class="node">
<title>Node7</title>
<g id="a_Node000007"><a xlink:title=" ">
<polygon fill="#e0e0e0" stroke="#999999" points="462,-247.75 410,-247.75 410,-227 462,-227 462,-247.75"/>
<text text-anchor="middle" x="436" y="-234.25" font-family="Helvetica,sans-Serif" font-size="10.00">stdlib.h</text>
</a>
</g>
</g>
<!-- Node5&#45;&gt;Node7 -->
<g id="edge6_Node000005_Node000007" class="edge">
<title>Node5&#45;&gt;Node7</title>
<g id="a_edge6_Node000005_Node000007"><a xlink:title=" ">
<path fill="none" stroke="#63b8ff" d="M436,-283.34C436,-276.72 436,-267.72 436,-259.52"/>
<polygon fill="#63b8ff" stroke="#63b8ff" points="439.5,-259.59 436,-249.59 432.5,-259.59 439.5,-259.59"/>
</a>
</g>
</g>
<!-- Node8 -->
<g id="Node000008" class="node">
<title>Node8</title>
<g id="a_Node000008"><a xlink:href="sched_8h.html" target="_top" xlink:title="Scheduler API definition.">
<polygon fill="white" stroke="#666666" points="271.75,-247.75 218.25,-247.75 218.25,-227 271.75,-227 271.75,-247.75"/>
<text text-anchor="middle" x="245" y="-234.25" font-family="Helvetica,sans-Serif" font-size="10.00">sched.h</text>
</a>
</g>
</g>
<!-- Node5&#45;&gt;Node8 -->
<g id="edge7_Node000005_Node000008" class="edge">
<title>Node5&#45;&gt;Node8</title>
<g id="a_edge7_Node000005_Node000008"><a xlink:title=" ">
<path fill="none" stroke="#63b8ff" d="M401.85,-283.34C368.35,-273.73 317.38,-259.12 282.71,-249.18"/>
<polygon fill="#63b8ff" stroke="#63b8ff" points="284.1,-245.94 273.52,-246.55 282.17,-252.67 284.1,-245.94"/>
</a>
</g>
</g>
<!-- Node19 -->
<g id="Node000019" class="node">
<title>Node19</title>
<g id="a_Node000019"><a xlink:href="list_8h.html" target="_top" xlink:title="Intrusive linked list.">
<polygon fill="white" stroke="#666666" points="40,-134.25 0,-134.25 0,-113.5 40,-113.5 40,-134.25"/>
<text text-anchor="middle" x="20" y="-120.75" font-family="Helvetica,sans-Serif" font-size="10.00">list.h</text>
</a>
</g>
</g>
<!-- Node5&#45;&gt;Node19 -->
<g id="edge31_Node000005_Node000019" class="edge">
<title>Node5&#45;&gt;Node19</title>
<g id="a_edge31_Node000005_Node000019"><a xlink:title=" ">
<path fill="none" stroke="#63b8ff" d="M393.88,-285.18C338.29,-274.61 243.43,-256.26 209,-247.75 122.62,-226.4 70.26,-262.28 17,-191 7.33,-178.05 9.19,-159.38 12.83,-145.17"/>
<polygon fill="#63b8ff" stroke="#63b8ff" points="16.07,-146.55 15.65,-135.96 9.37,-144.5 16.07,-146.55"/>
</a>
</g>
</g>
<!-- Node20 -->
<g id="Node000020" class="node">
<title>Node20</title>
<g id="a_Node000020"><a xlink:href="nettype_8h.html" target="_top" xlink:title="Protocol type definitions.">
<polygon fill="white" stroke="#666666" points="585.62,-247.75 480.38,-247.75 480.38,-227 585.62,-227 585.62,-247.75"/>
<text text-anchor="middle" x="533" y="-234.25" font-family="Helvetica,sans-Serif" font-size="10.00">net/gnrc/nettype.h</text>
</a>
</g>
</g>
<!-- Node5&#45;&gt;Node20 -->
<g id="edge26_Node000005_Node000020" class="edge">
<title>Node5&#45;&gt;Node20</title>
<g id="a_edge26_Node000005_Node000020"><a xlink:title=" ">
<path fill="none" stroke="#63b8ff" d="M453.34,-283.34C467.96,-275.08 489.14,-263.13 505.98,-253.63"/>
<polygon fill="#63b8ff" stroke="#63b8ff" points="507.5,-256.79 514.49,-248.82 504.06,-250.69 507.5,-256.79"/>
</a>
</g>
</g>
<!-- Node8&#45;&gt;Node6 -->
<g id="edge9_Node000008_Node000006" class="edge">
<title>Node8&#45;&gt;Node6</title>
<g id="a_edge9_Node000008_Node000006"><a xlink:title=" ">
<path fill="none" stroke="#63b8ff" d="M269.49,-226.59C291.12,-217.94 322.89,-205.25 347.16,-195.55"/>
<polygon fill="#63b8ff" stroke="#63b8ff" points="348.33,-198.85 356.31,-191.89 345.73,-192.35 348.33,-198.85"/>
</a>
</g>
</g>
<!-- Node9 -->
<g id="Node000009" class="node">
<title>Node9</title>
<g id="a_Node000009"><a xlink:title=" ">
<polygon fill="#e0e0e0" stroke="#999999" points="234.5,-77.5 179.5,-77.5 179.5,-56.75 234.5,-56.75 234.5,-77.5"/>
<text text-anchor="middle" x="207" y="-64" font-family="Helvetica,sans-Serif" font-size="10.00">stddef.h</text>
</a>
</g>
</g>
<!-- Node8&#45;&gt;Node9 -->
<g id="edge8_Node000008_Node000009" class="edge">
<title>Node8&#45;&gt;Node9</title>
<g id="a_edge8_Node000008_Node000009"><a xlink:title=" ">
<path fill="none" stroke="#63b8ff" d="M240.06,-226.53C235.72,-217.51 229.57,-203.66 226,-191 216.12,-155.97 211.01,-113.78 208.68,-89.06"/>
<polygon fill="#63b8ff" stroke="#63b8ff" points="212.19,-89.02 207.83,-79.36 205.21,-89.63 212.19,-89.02"/>
</a>
</g>
</g>
<!-- Node10 -->
<g id="Node000010" class="node">
<title>Node10</title>
<g id="a_Node000010"><a xlink:href="kernel__defines_8h.html" target="_top" xlink:title="Common macros and compiler attributes/pragmas configuration.">
<polygon fill="white" stroke="#666666" points="331.12,-191 234.88,-191 234.88,-170.25 331.12,-170.25 331.12,-191"/>
<text text-anchor="middle" x="283" y="-177.5" font-family="Helvetica,sans-Serif" font-size="10.00">kernel_defines.h</text>
</a>
</g>
</g>
<!-- Node8&#45;&gt;Node10 -->
<g id="edge10_Node000008_Node000010" class="edge">
<title>Node8&#45;&gt;Node10</title>
<g id="a_edge10_Node000008_Node000010"><a xlink:title=" ">
<path fill="none" stroke="#63b8ff" d="M251.79,-226.59C256.77,-219.42 263.67,-209.48 269.72,-200.76"/>
<polygon fill="#63b8ff" stroke="#63b8ff" points="272.58,-202.78 275.4,-192.57 266.82,-198.79 272.58,-202.78"/>
</a>
</g>
</g>
<!-- Node16 -->
<g id="Node000016" class="node">
<title>Node16</title>
<g id="a_Node000016"><a xlink:href="native__sched_8h.html" target="_top" xlink:title="Add definitions required on the native board.">
<polygon fill="white" stroke="#666666" points="115.75,-191 26.25,-191 26.25,-170.25 115.75,-170.25 115.75,-191"/>
<text text-anchor="middle" x="71" y="-177.5" font-family="Helvetica,sans-Serif" font-size="10.00">native_sched.h</text>
</a>
</g>
</g>
<!-- Node8&#45;&gt;Node16 -->
<g id="edge21_Node000008_Node000016" class="edge">
<title>Node8&#45;&gt;Node16</title>
<g id="a_edge21_Node000008_Node000016"><a xlink:title=" ">
<path fill="none" stroke="#63b8ff" d="M217.81,-227.82C189.65,-218.96 145.27,-204.99 112.67,-194.74"/>
<polygon fill="#63b8ff" stroke="#63b8ff" points="114.14,-191.53 103.55,-191.87 112.04,-198.21 114.14,-191.53"/>
</a>
</g>
</g>
<!-- Node17 -->
<g id="Node000017" class="node">
<title>Node17</title>
<g id="a_Node000017"><a xlink:href="clist_8h.html" target="_top" xlink:title="Circular linked list.">
<polygon fill="white" stroke="#666666" points="178.62,-191 133.38,-191 133.38,-170.25 178.62,-170.25 178.62,-191"/>
<text text-anchor="middle" x="156" y="-177.5" font-family="Helvetica,sans-Serif" font-size="10.00">clist.h</text>
</a>
</g>
</g>
<!-- Node8&#45;&gt;Node17 -->
<g id="edge22_Node000008_Node000017" class="edge">
<title>Node8&#45;&gt;Node17</title>
<g id="a_edge22_Node000008_Node000017"><a xlink:title=" ">
<path fill="none" stroke="#63b8ff" d="M229.09,-226.59C215.8,-218.41 196.61,-206.61 181.23,-197.15"/>
<polygon fill="#63b8ff" stroke="#63b8ff" points="183.41,-194.38 173.06,-192.12 179.75,-200.34 183.41,-194.38"/>
</a>
</g>
</g>
<!-- Node11 -->
<g id="Node000011" class="node">
<title>Node11</title>
<g id="a_Node000011"><a xlink:href="modules_8h.html" target="_top" xlink:title="Common macros and compiler attributes/pragmas configuration.">
<polygon fill="white" stroke="#666666" points="604.5,-134.25 537.5,-134.25 537.5,-113.5 604.5,-113.5 604.5,-134.25"/>
<text text-anchor="middle" x="571" y="-120.75" font-family="Helvetica,sans-Serif" font-size="10.00">modules.h</text>
</a>
</g>
</g>
<!-- Node10&#45;&gt;Node11 -->
<g id="edge11_Node000010_Node000011" class="edge">
<title>Node10&#45;&gt;Node11</title>
<g id="a_edge11_Node000010_Node000011"><a xlink:title=" ">
<path fill="none" stroke="#63b8ff" d="M331.53,-170.4C385.89,-160.06 473.3,-143.45 526.12,-133.41"/>
<polygon fill="#63b8ff" stroke="#63b8ff" points="526.51,-136.9 535.68,-131.59 525.2,-130.02 526.51,-136.9"/>
</a>
</g>
</g>
<!-- Node12 -->
<g id="Node000012" class="node">
<title>Node12</title>
<g id="a_Node000012"><a xlink:href="riot__version_8h.html" target="_top" xlink:title="Common macros and compiler attributes/pragmas configuration.">
<polygon fill="white" stroke="#666666" points="380.38,-77.5 297.62,-77.5 297.62,-56.75 380.38,-56.75 380.38,-77.5"/>
<text text-anchor="middle" x="339" y="-64" font-family="Helvetica,sans-Serif" font-size="10.00">riot_version.h</text>
</a>
</g>
</g>
<!-- Node10&#45;&gt;Node12 -->
<g id="edge12_Node000010_Node000012" class="edge">
<title>Node10&#45;&gt;Node12</title>
<g id="a_edge12_Node000010_Node000012"><a xlink:title=" ">
<path fill="none" stroke="#63b8ff" d="M290.61,-169.96C297.37,-161.05 307.21,-147.28 314,-134.25 321.64,-119.58 328.17,-102.04 332.63,-88.7"/>
<polygon fill="#63b8ff" stroke="#63b8ff" points="335.93,-89.88 335.66,-79.29 329.27,-87.74 335.93,-89.88"/>
</a>
</g>
</g>
<!-- Node13 -->
<g id="Node000013" class="node">
<title>Node13</title>
<g id="a_Node000013"><a xlink:href="compiler__hints_8h.html" target="_top" xlink:title="Common macros and compiler attributes/pragmas configuration.">
<polygon fill="white" stroke="#666666" points="458.5,-134.25 361.5,-134.25 361.5,-113.5 458.5,-113.5 458.5,-134.25"/>
<text text-anchor="middle" x="410" y="-120.75" font-family="Helvetica,sans-Serif" font-size="10.00">compiler_hints.h</text>
</a>
</g>
</g>
<!-- Node10&#45;&gt;Node13 -->
<g id="edge14_Node000010_Node000013" class="edge">
<title>Node10&#45;&gt;Node13</title>
<g id="a_edge14_Node000010_Node000013"><a xlink:title=" ">
<path fill="none" stroke="#63b8ff" d="M305.71,-169.84C325.57,-161.27 354.67,-148.73 377.09,-139.06"/>
<polygon fill="#63b8ff" stroke="#63b8ff" points="378.3,-142.35 386.1,-135.18 375.53,-135.92 378.3,-142.35"/>
</a>
</g>
</g>
<!-- Node15 -->
<g id="Node000015" class="node">
<title>Node15</title>
<g id="a_Node000015"><a xlink:href="container_8h.html" target="_top" xlink:title="Common macros and compiler attributes/pragmas configuration.">
<polygon fill="white" stroke="#666666" points="305.38,-134.25 234.62,-134.25 234.62,-113.5 305.38,-113.5 305.38,-134.25"/>
<text text-anchor="middle" x="270" y="-120.75" font-family="Helvetica,sans-Serif" font-size="10.00">container.h</text>
</a>
</g>
</g>
<!-- Node10&#45;&gt;Node15 -->
<g id="edge18_Node000010_Node000015" class="edge">
<title>Node10&#45;&gt;Node15</title>
<g id="a_edge18_Node000010_Node000015"><a xlink:title=" ">
<path fill="none" stroke="#63b8ff" d="M280.68,-169.84C279.09,-163.14 276.92,-154.01 274.95,-145.73"/>
<polygon fill="#63b8ff" stroke="#63b8ff" points="278.37,-144.97 272.65,-136.05 271.56,-146.59 278.37,-144.97"/>
</a>
</g>
</g>
<!-- Node12&#45;&gt;Node3 -->
<g id="edge13_Node000012_Node000003" class="edge">
<title>Node12&#45;&gt;Node3</title>
<g id="a_edge13_Node000012_Node000003"><a xlink:title=" ">
<path fill="none" stroke="#63b8ff" d="M351.34,-56.34C361.25,-48.47 375.39,-37.25 387.06,-27.99"/>
<polygon fill="#63b8ff" stroke="#63b8ff" points="388.93,-30.98 394.59,-22.02 384.58,-25.49 388.93,-30.98"/>
</a>
</g>
</g>
<!-- Node13&#45;&gt;Node3 -->
<g id="edge17_Node000013_Node000003" class="edge">
<title>Node13&#45;&gt;Node3</title>
<g id="a_edge17_Node000013_Node000003"><a xlink:title=" ">
<path fill="none" stroke="#63b8ff" d="M409.83,-113.37C409.51,-95.6 408.82,-56.97 408.38,-32.68"/>
<polygon fill="#63b8ff" stroke="#63b8ff" points="411.88,-32.62 408.2,-22.69 404.88,-32.75 411.88,-32.62"/>
</a>
</g>
</g>
<!-- Node14 -->
<g id="Node000014" class="node">
<title>Node14</title>
<g id="a_Node000014"><a xlink:href="assert_8h.html" target="_top" xlink:title="POSIX.1&#45;2008 compliant version of the assert macro.">
<polygon fill="white" stroke="#666666" points="491.5,-77.5 436.5,-77.5 436.5,-56.75 491.5,-56.75 491.5,-77.5"/>
<text text-anchor="middle" x="464" y="-64" font-family="Helvetica,sans-Serif" font-size="10.00">assert.h</text>
</a>
</g>
</g>
<!-- Node13&#45;&gt;Node14 -->
<g id="edge15_Node000013_Node000014" class="edge">
<title>Node13&#45;&gt;Node14</title>
<g id="a_edge15_Node000013_Node000014"><a xlink:title=" ">
<path fill="none" stroke="#63b8ff" d="M419.65,-113.09C427.1,-105.53 437.61,-94.89 446.52,-85.85"/>
<polygon fill="#63b8ff" stroke="#63b8ff" points="448.84,-88.48 453.37,-78.91 443.85,-83.57 448.84,-88.48"/>
</a>
</g>
</g>
<!-- Node14&#45;&gt;Node3 -->
<g id="edge16_Node000014_Node000003" class="edge">
<title>Node14&#45;&gt;Node3</title>
<g id="a_edge16_Node000014_Node000003"><a xlink:title=" ">
<path fill="none" stroke="#63b8ff" d="M453.99,-56.34C446.26,-48.78 435.37,-38.14 426.13,-29.1"/>
<polygon fill="#63b8ff" stroke="#63b8ff" points="428.6,-26.62 419.01,-22.14 423.71,-31.63 428.6,-26.62"/>
</a>
</g>
</g>
<!-- Node15&#45;&gt;Node3 -->
<g id="edge20_Node000015_Node000003" class="edge">
<title>Node15&#45;&gt;Node3</title>
<g id="a_edge20_Node000015_Node000003"><a xlink:title=" ">
<path fill="none" stroke="#63b8ff" d="M270.18,-113.04C270.97,-98.84 274.45,-72.58 289,-56.75 310.05,-33.85 343.9,-22.41 370.13,-16.76"/>
<polygon fill="#63b8ff" stroke="#63b8ff" points="370.57,-20.24 379.72,-14.9 369.23,-13.37 370.57,-20.24"/>
</a>
</g>
</g>
<!-- Node15&#45;&gt;Node9 -->
<g id="edge19_Node000015_Node000009" class="edge">
<title>Node15&#45;&gt;Node9</title>
<g id="a_edge19_Node000015_Node000009"><a xlink:title=" ">
<path fill="none" stroke="#63b8ff" d="M258.74,-113.09C249.87,-105.38 237.29,-94.45 226.75,-85.29"/>
<polygon fill="#63b8ff" stroke="#63b8ff" points="229.15,-82.74 219.31,-78.82 224.56,-88.02 229.15,-82.74"/>
</a>
</g>
</g>
<!-- Node17&#45;&gt;Node9 -->
<g id="edge24_Node000017_Node000009" class="edge">
<title>Node17&#45;&gt;Node9</title>
<g id="a_edge24_Node000017_Node000009"><a xlink:title=" ">
<path fill="none" stroke="#63b8ff" d="M160.35,-170.12C168.62,-152.02 186.8,-112.28 197.86,-88.1"/>
<polygon fill="#63b8ff" stroke="#63b8ff" points="200.91,-89.85 201.89,-79.3 194.55,-86.94 200.91,-89.85"/>
</a>
</g>
</g>
<!-- Node18 -->
<g id="Node000018" class="node">
<title>Node18</title>
<g id="a_Node000018"><a xlink:title=" ">
<polygon fill="#e0e0e0" stroke="#999999" points="140.5,-134.25 79.5,-134.25 79.5,-113.5 140.5,-113.5 140.5,-134.25"/>
<text text-anchor="middle" x="110" y="-120.75" font-family="Helvetica,sans-Serif" font-size="10.00">stdbool.h</text>
</a>
</g>
</g>
<!-- Node17&#45;&gt;Node18 -->
<g id="edge23_Node000017_Node000018" class="edge">
<title>Node17&#45;&gt;Node18</title>
<g id="a_edge23_Node000017_Node000018"><a xlink:title=" ">
<path fill="none" stroke="#63b8ff" d="M147.78,-169.84C141.56,-162.44 132.85,-152.07 125.36,-143.16"/>
<polygon fill="#63b8ff" stroke="#63b8ff" points="128.24,-141.14 119.13,-135.74 122.88,-145.65 128.24,-141.14"/>
</a>
</g>
</g>
<!-- Node17&#45;&gt;Node19 -->
<g id="edge25_Node000017_Node000019" class="edge">
<title>Node17&#45;&gt;Node19</title>
<g id="a_edge25_Node000017_Node000019"><a xlink:title=" ">
<path fill="none" stroke="#63b8ff" d="M132.93,-170.34C110.22,-161.2 75.41,-147.18 50.44,-137.13"/>
<polygon fill="#63b8ff" stroke="#63b8ff" points="52.06,-134.01 41.48,-133.52 49.45,-140.5 52.06,-134.01"/>
</a>
</g>
</g>
<!-- Node20&#45;&gt;Node6 -->
<g id="edge27_Node000020_Node000006" class="edge">
<title>Node20&#45;&gt;Node6</title>
<g id="a_edge27_Node000020_Node000006"><a xlink:title=" ">
<path fill="none" stroke="#63b8ff" d="M506,-226.59C481.92,-217.86 446.42,-204.98 419.57,-195.25"/>
<polygon fill="#63b8ff" stroke="#63b8ff" points="421.03,-192.05 410.44,-191.94 418.65,-198.64 421.03,-192.05"/>
</a>
</g>
</g>
<!-- Node20&#45;&gt;Node11 -->
<g id="edge28_Node000020_Node000011" class="edge">
<title>Node20&#45;&gt;Node11</title>
<g id="a_edge28_Node000020_Node000011"><a xlink:title=" ">
<path fill="none" stroke="#63b8ff" d="M583.83,-226.5C603.59,-219.91 624.26,-209 636,-191 648.89,-171.24 625.72,-152.43 603.55,-139.96"/>
<polygon fill="#63b8ff" stroke="#63b8ff" points="605.38,-136.97 594.91,-135.41 602.12,-143.17 605.38,-136.97"/>
</a>
</g>
</g>
<!-- Node21 -->
<g id="Node000021" class="node">
<title>Node21</title>
<g id="a_Node000021"><a xlink:href="ethertype_8h.html" target="_top" xlink:title="Ether type definitions.">
<polygon fill="white" stroke="#666666" points="523.5,-191 432.5,-191 432.5,-170.25 523.5,-170.25 523.5,-191"/>
<text text-anchor="middle" x="478" y="-177.5" font-family="Helvetica,sans-Serif" font-size="10.00">net/ethertype.h</text>
</a>
</g>
</g>
<!-- Node20&#45;&gt;Node21 -->
<g id="edge29_Node000020_Node000021" class="edge">
<title>Node20&#45;&gt;Node21</title>
<g id="a_edge29_Node000020_Node000021"><a xlink:title=" ">
<path fill="none" stroke="#63b8ff" d="M523.17,-226.59C515.58,-219.03 504.88,-208.39 495.8,-199.35"/>
<polygon fill="#63b8ff" stroke="#63b8ff" points="498.38,-196.97 488.82,-192.4 493.44,-201.93 498.38,-196.97"/>
</a>
</g>
</g>
<!-- Node22 -->
<g id="Node000022" class="node">
<title>Node22</title>
<g id="a_Node000022"><a xlink:href="protnum_8h.html" target="_top" xlink:title="Protocol number definitions.">
<polygon fill="white" stroke="#666666" points="626.5,-191 541.5,-191 541.5,-170.25 626.5,-170.25 626.5,-191"/>
<text text-anchor="middle" x="584" y="-177.5" font-family="Helvetica,sans-Serif" font-size="10.00">net/protnum.h</text>
</a>
</g>
</g>
<!-- Node20&#45;&gt;Node22 -->
<g id="edge30_Node000020_Node000022" class="edge">
<title>Node20&#45;&gt;Node22</title>
<g id="a_edge30_Node000020_Node000022"><a xlink:title=" ">
<path fill="none" stroke="#63b8ff" d="M542.12,-226.59C549.08,-219.11 558.87,-208.61 567.23,-199.63"/>
<polygon fill="#63b8ff" stroke="#63b8ff" points="569.67,-202.14 573.93,-192.44 564.55,-197.37 569.67,-202.14"/>
</a>
</g>
</g>
</g>
</svg>
