<?xml version="1.0" encoding="UTF-8" standalone="no"?>
<!DOCTYPE svg PUBLIC "-//W3C//DTD SVG 1.1//EN"
 "http://www.w3.org/Graphics/SVG/1.1/DTD/svg11.dtd">
<!-- Generated by graphviz version 12.1.1 (0)
 -->
<!-- Title: sys/include/net/gnrc/netif/mac.h Pages: 1 -->
<svg width="1460pt" height="496pt"
 viewBox="0.00 0.00 1460.35 495.50" xmlns="http://www.w3.org/2000/svg" xmlns:xlink="http://www.w3.org/1999/xlink">
<g id="graph0" class="graph" transform="scale(1 1) rotate(0) translate(4 491.5)">
<title>sys/include/net/gnrc/netif/mac.h</title>
<!-- Node1 -->
<g id="Node000001" class="node">
<title>Node1</title>
<g id="a_Node000001"><a xlink:title="Common MAC module definitions for Network interface API">
<polygon fill="#999999" stroke="#666666" points="395.88,-487.5 282.38,-487.5 282.38,-454 395.88,-454 395.88,-487.5"/>
<text text-anchor="start" x="290.38" y="-474" font-family="Helvetica,sans-Serif" font-size="10.00">sys/include/net/gnrc</text>
<text text-anchor="middle" x="339.12" y="-461.25" font-family="Helvetica,sans-Serif" font-size="10.00">/netif/mac.h</text>
</a>
</g>
</g>
<!-- Node2 -->
<g id="Node000002" class="node">
<title>Node2</title>
<g id="a_Node000002"><a xlink:href="sys_2include_2net_2gnrc_2mac_2types_8h.html" target="_top" xlink:title="Internal data types used by GNRC_MAC.">
<polygon fill="white" stroke="#666666" points="688.5,-418 569.75,-418 569.75,-397.25 688.5,-397.25 688.5,-418"/>
<text text-anchor="middle" x="629.12" y="-404.5" font-family="Helvetica,sans-Serif" font-size="10.00">net/gnrc/mac/types.h</text>
</a>
</g>
</g>
<!-- Node1&#45;&gt;Node2 -->
<g id="edge1_Node000001_Node000002" class="edge">
<title>Node1&#45;&gt;Node2</title>
<g id="a_edge1_Node000001_Node000002"><a xlink:title=" ">
<path fill="none" stroke="#63b8ff" d="M396.07,-457.75C446.68,-447.08 520.32,-431.56 571.21,-420.83"/>
<polygon fill="#63b8ff" stroke="#63b8ff" points="571.81,-424.28 580.87,-418.8 570.36,-417.43 571.81,-424.28"/>
</a>
</g>
</g>
<!-- Node31 -->
<g id="Node000031" class="node">
<title>Node31</title>
<g id="a_Node000031"><a xlink:href="csma__sender_8h.html" target="_top" xlink:title="Interface definition for the CSMA/CA helper.">
<polygon fill="white" stroke="#666666" points="108.25,-304.5 0,-304.5 0,-283.75 108.25,-283.75 108.25,-304.5"/>
<text text-anchor="middle" x="54.12" y="-291" font-family="Helvetica,sans-Serif" font-size="10.00">net/csma_sender.h</text>
</a>
</g>
</g>
<!-- Node1&#45;&gt;Node31 -->
<g id="edge54_Node000001_Node000031" class="edge">
<title>Node1&#45;&gt;Node31</title>
<g id="a_edge54_Node000001_Node000031"><a xlink:title=" ">
<path fill="none" stroke="#63b8ff" d="M297.84,-453.62C252.56,-434.93 178.79,-401.49 122.12,-361.25 102.3,-347.17 82.72,-327.33 69.7,-313.07"/>
<polygon fill="#63b8ff" stroke="#63b8ff" points="72.43,-310.87 63.16,-305.74 67.21,-315.53 72.43,-310.87"/>
</a>
</g>
</g>
<!-- Node3 -->
<g id="Node000003" class="node">
<title>Node3</title>
<g id="a_Node000003"><a xlink:title=" ">
<polygon fill="#e0e0e0" stroke="#999999" points="586.5,-20.75 533.75,-20.75 533.75,0 586.5,0 586.5,-20.75"/>
<text text-anchor="middle" x="560.12" y="-7.25" font-family="Helvetica,sans-Serif" font-size="10.00">stdint.h</text>
</a>
</g>
</g>
<!-- Node2&#45;&gt;Node3 -->
<g id="edge2_Node000002_Node000003" class="edge">
<title>Node2&#45;&gt;Node3</title>
<g id="a_edge2_Node000002_Node000003"><a xlink:title=" ">
<path fill="none" stroke="#63b8ff" d="M569.64,-396.97C456.02,-374.67 216.26,-307.54 181.12,-134.25 174.17,-99.95 168.96,-80 195.12,-56.75 242.79,-14.41 438.16,-10.51 521.82,-10.85"/>
<polygon fill="#63b8ff" stroke="#63b8ff" points="521.79,-14.35 531.81,-10.92 521.83,-7.35 521.79,-14.35"/>
</a>
</g>
</g>
<!-- Node4 -->
<g id="Node000004" class="node">
<title>Node4</title>
<g id="a_Node000004"><a xlink:title=" ">
<polygon fill="#e0e0e0" stroke="#999999" points="1319.62,-134.25 1258.62,-134.25 1258.62,-113.5 1319.62,-113.5 1319.62,-134.25"/>
<text text-anchor="middle" x="1289.12" y="-120.75" font-family="Helvetica,sans-Serif" font-size="10.00">stdbool.h</text>
</a>
</g>
</g>
<!-- Node2&#45;&gt;Node4 -->
<g id="edge3_Node000002_Node000004" class="edge">
<title>Node2&#45;&gt;Node4</title>
<g id="a_edge3_Node000002_Node000004"><a xlink:title=" ">
<path fill="none" stroke="#63b8ff" d="M688.68,-404.6C874.31,-397.49 1430.12,-369.98 1430.12,-295.12 1430.12,-295.12 1430.12,-295.12 1430.12,-236.38 1430.12,-205.8 1431.91,-192.68 1411.12,-170.25 1390.39,-147.87 1357.59,-136.47 1331.22,-130.7"/>
<polygon fill="#63b8ff" stroke="#63b8ff" points="1331.97,-127.28 1321.48,-128.78 1330.61,-134.15 1331.97,-127.28"/>
</a>
</g>
</g>
<!-- Node5 -->
<g id="Node000005" class="node">
<title>Node5</title>
<g id="a_Node000005"><a xlink:href="net_2gnrc_2pkt_8h.html" target="_top" xlink:title="General definitions for network packets and their helper functions.">
<polygon fill="white" stroke="#666666" points="1080.88,-304.5 997.38,-304.5 997.38,-283.75 1080.88,-283.75 1080.88,-304.5"/>
<text text-anchor="middle" x="1039.12" y="-291" font-family="Helvetica,sans-Serif" font-size="10.00">net/gnrc/pkt.h</text>
</a>
</g>
</g>
<!-- Node2&#45;&gt;Node5 -->
<g id="edge4_Node000002_Node000005" class="edge">
<title>Node2&#45;&gt;Node5</title>
<g id="a_edge4_Node000002_Node000005"><a xlink:title=" ">
<path fill="none" stroke="#63b8ff" d="M688.97,-404.58C777.55,-400.63 938.44,-389.68 988.12,-361.25 1006.65,-350.65 1020.74,-330.36 1029.37,-315.04"/>
<polygon fill="#63b8ff" stroke="#63b8ff" points="1032.4,-316.79 1033.96,-306.31 1026.21,-313.53 1032.4,-316.79"/>
</a>
</g>
</g>
<!-- Node22 -->
<g id="Node000022" class="node">
<title>Node22</title>
<g id="a_Node000022"><a xlink:href="priority__pktqueue_8h.html" target="_top" xlink:title="gnrc priority packet queue API">
<polygon fill="white" stroke="#666666" points="979.12,-361.25 825.12,-361.25 825.12,-340.5 979.12,-340.5 979.12,-361.25"/>
<text text-anchor="middle" x="902.12" y="-347.75" font-family="Helvetica,sans-Serif" font-size="10.00">net/gnrc/priority_pktqueue.h</text>
</a>
</g>
</g>
<!-- Node2&#45;&gt;Node22 -->
<g id="edge32_Node000002_Node000022" class="edge">
<title>Node2&#45;&gt;Node22</title>
<g id="a_edge32_Node000002_Node000022"><a xlink:title=" ">
<path fill="none" stroke="#63b8ff" d="M678.25,-396.77C724.11,-387.58 792.66,-373.83 841.82,-363.97"/>
<polygon fill="#63b8ff" stroke="#63b8ff" points="842.34,-367.44 851.45,-362.04 840.96,-360.57 842.34,-367.44"/>
</a>
</g>
</g>
<!-- Node24 -->
<g id="Node000024" class="node">
<title>Node24</title>
<g id="a_Node000024"><a xlink:href="sys_2include_2net_2ieee802154_8h.html" target="_top" xlink:title="IEEE 802.15.4 header definitions.">
<polygon fill="white" stroke="#666666" points="389.5,-247.75 288.75,-247.75 288.75,-227 389.5,-227 389.5,-247.75"/>
<text text-anchor="middle" x="339.12" y="-234.25" font-family="Helvetica,sans-Serif" font-size="10.00">net/ieee802154.h</text>
</a>
</g>
</g>
<!-- Node2&#45;&gt;Node24 -->
<g id="edge38_Node000002_Node000024" class="edge">
<title>Node2&#45;&gt;Node24</title>
<g id="a_edge38_Node000002_Node000024"><a xlink:title=" ">
<path fill="none" stroke="#63b8ff" d="M612.28,-396.85C563.93,-368.8 424.42,-287.86 365.68,-253.78"/>
<polygon fill="#63b8ff" stroke="#63b8ff" points="367.73,-250.93 357.33,-248.93 364.22,-256.98 367.73,-250.93"/>
</a>
</g>
</g>
<!-- Node30 -->
<g id="Node000030" class="node">
<title>Node30</title>
<g id="a_Node000030"><a xlink:href="mac_2mac_8h.html" target="_top" xlink:title="Definitions of GNRC_MAC.">
<polygon fill="white" stroke="#666666" points="685.5,-361.25 572.75,-361.25 572.75,-340.5 685.5,-340.5 685.5,-361.25"/>
<text text-anchor="middle" x="629.12" y="-347.75" font-family="Helvetica,sans-Serif" font-size="10.00">net/gnrc/mac/mac.h</text>
</a>
</g>
</g>
<!-- Node2&#45;&gt;Node30 -->
<g id="edge52_Node000002_Node000030" class="edge">
<title>Node2&#45;&gt;Node30</title>
<g id="a_edge52_Node000002_Node000030"><a xlink:title=" ">
<path fill="none" stroke="#63b8ff" d="M629.12,-396.84C629.12,-390.22 629.12,-381.22 629.12,-373.02"/>
<polygon fill="#63b8ff" stroke="#63b8ff" points="632.63,-373.09 629.13,-363.09 625.63,-373.09 632.63,-373.09"/>
</a>
</g>
</g>
<!-- Node6 -->
<g id="Node000006" class="node">
<title>Node6</title>
<g id="a_Node000006"><a xlink:href="inttypes_8h.html" target="_top" xlink:title="Adds include for missing inttype definitions.">
<polygon fill="white" stroke="#666666" points="1192.5,-191 1127.75,-191 1127.75,-170.25 1192.5,-170.25 1192.5,-191"/>
<text text-anchor="middle" x="1160.12" y="-177.5" font-family="Helvetica,sans-Serif" font-size="10.00">inttypes.h</text>
</a>
</g>
</g>
<!-- Node5&#45;&gt;Node6 -->
<g id="edge5_Node000005_Node000006" class="edge">
<title>Node5&#45;&gt;Node6</title>
<g id="a_edge5_Node000005_Node000006"><a xlink:title=" ">
<path fill="none" stroke="#63b8ff" d="M1054.33,-283.32C1067.32,-274.64 1086.21,-261.29 1101.12,-247.75 1117.6,-232.8 1134.29,-213.63 1145.7,-199.79"/>
<polygon fill="#63b8ff" stroke="#63b8ff" points="1148.15,-202.32 1151.73,-192.35 1142.71,-197.92 1148.15,-202.32"/>
</a>
</g>
</g>
<!-- Node7 -->
<g id="Node000007" class="node">
<title>Node7</title>
<g id="a_Node000007"><a xlink:title=" ">
<polygon fill="#e0e0e0" stroke="#999999" points="439.12,-191 387.12,-191 387.12,-170.25 439.12,-170.25 439.12,-191"/>
<text text-anchor="middle" x="413.12" y="-177.5" font-family="Helvetica,sans-Serif" font-size="10.00">stdlib.h</text>
</a>
</g>
</g>
<!-- Node5&#45;&gt;Node7 -->
<g id="edge6_Node000005_Node000007" class="edge">
<title>Node5&#45;&gt;Node7</title>
<g id="a_edge6_Node000005_Node000007"><a xlink:title=" ">
<path fill="none" stroke="#63b8ff" d="M996.88,-293.57C882.31,-294.17 568.18,-291.65 476.12,-247.75 454.52,-237.45 436.49,-216.31 425.33,-200.69"/>
<polygon fill="#63b8ff" stroke="#63b8ff" points="428.39,-198.95 419.87,-192.65 422.59,-202.89 428.39,-198.95"/>
</a>
</g>
</g>
<!-- Node8 -->
<g id="Node000008" class="node">
<title>Node8</title>
<g id="a_Node000008"><a xlink:href="sched_8h.html" target="_top" xlink:title="Scheduler API definition.">
<polygon fill="white" stroke="#666666" points="1213.88,-247.75 1160.38,-247.75 1160.38,-227 1213.88,-227 1213.88,-247.75"/>
<text text-anchor="middle" x="1187.12" y="-234.25" font-family="Helvetica,sans-Serif" font-size="10.00">sched.h</text>
</a>
</g>
</g>
<!-- Node5&#45;&gt;Node8 -->
<g id="edge7_Node000005_Node000008" class="edge">
<title>Node5&#45;&gt;Node8</title>
<g id="a_edge7_Node000005_Node000008"><a xlink:title=" ">
<path fill="none" stroke="#63b8ff" d="M1065.58,-283.34C1089.16,-274.62 1123.89,-261.77 1150.19,-252.04"/>
<polygon fill="#63b8ff" stroke="#63b8ff" points="1151.31,-255.36 1159.48,-248.6 1148.88,-248.79 1151.31,-255.36"/>
</a>
</g>
</g>
<!-- Node18 -->
<g id="Node000018" class="node">
<title>Node18</title>
<g id="a_Node000018"><a xlink:href="list_8h.html" target="_top" xlink:title="Intrusive linked list.">
<polygon fill="white" stroke="#666666" points="1240.12,-134.25 1200.12,-134.25 1200.12,-113.5 1240.12,-113.5 1240.12,-134.25"/>
<text text-anchor="middle" x="1220.12" y="-120.75" font-family="Helvetica,sans-Serif" font-size="10.00">list.h</text>
</a>
</g>
</g>
<!-- Node5&#45;&gt;Node18 -->
<g id="edge31_Node000005_Node000018" class="edge">
<title>Node5&#45;&gt;Node18</title>
<g id="a_edge31_Node000005_Node000018"><a xlink:title=" ">
<path fill="none" stroke="#63b8ff" d="M1081.34,-292.68C1145.71,-289.34 1265.54,-271.98 1309.12,-191 1313.5,-182.88 1313.94,-178.11 1309.12,-170.25 1302.44,-159.33 1273.87,-145.92 1250.88,-136.52"/>
<polygon fill="#63b8ff" stroke="#63b8ff" points="1252.47,-133.39 1241.89,-132.94 1249.88,-139.89 1252.47,-133.39"/>
</a>
</g>
</g>
<!-- Node19 -->
<g id="Node000019" class="node">
<title>Node19</title>
<g id="a_Node000019"><a xlink:href="nettype_8h.html" target="_top" xlink:title="Protocol type definitions.">
<polygon fill="white" stroke="#666666" points="1091.75,-247.75 986.5,-247.75 986.5,-227 1091.75,-227 1091.75,-247.75"/>
<text text-anchor="middle" x="1039.12" y="-234.25" font-family="Helvetica,sans-Serif" font-size="10.00">net/gnrc/nettype.h</text>
</a>
</g>
</g>
<!-- Node5&#45;&gt;Node19 -->
<g id="edge26_Node000005_Node000019" class="edge">
<title>Node5&#45;&gt;Node19</title>
<g id="a_edge26_Node000005_Node000019"><a xlink:title=" ">
<path fill="none" stroke="#63b8ff" d="M1039.12,-283.34C1039.12,-276.72 1039.12,-267.72 1039.12,-259.52"/>
<polygon fill="#63b8ff" stroke="#63b8ff" points="1042.63,-259.59 1039.13,-249.59 1035.63,-259.59 1042.63,-259.59"/>
</a>
</g>
</g>
<!-- Node8&#45;&gt;Node6 -->
<g id="edge9_Node000008_Node000006" class="edge">
<title>Node8&#45;&gt;Node6</title>
<g id="a_edge9_Node000008_Node000006"><a xlink:title=" ">
<path fill="none" stroke="#63b8ff" d="M1182.3,-226.59C1178.88,-219.66 1174.18,-210.12 1169.98,-201.61"/>
<polygon fill="#63b8ff" stroke="#63b8ff" points="1173.14,-200.11 1165.58,-192.69 1166.86,-203.2 1173.14,-200.11"/>
</a>
</g>
</g>
<!-- Node9 -->
<g id="Node000009" class="node">
<title>Node9</title>
<g id="a_Node000009"><a xlink:title=" ">
<polygon fill="#e0e0e0" stroke="#999999" points="1289.62,-20.75 1234.62,-20.75 1234.62,0 1289.62,0 1289.62,-20.75"/>
<text text-anchor="middle" x="1262.12" y="-7.25" font-family="Helvetica,sans-Serif" font-size="10.00">stddef.h</text>
</a>
</g>
</g>
<!-- Node8&#45;&gt;Node9 -->
<g id="edge8_Node000008_Node000009" class="edge">
<title>Node8&#45;&gt;Node9</title>
<g id="a_edge8_Node000008_Node000009"><a xlink:title=" ">
<path fill="none" stroke="#63b8ff" d="M1214.28,-234.24C1267.34,-229.54 1382.14,-216.62 1411.12,-191 1450.99,-155.77 1440.57,-130 1449.12,-77.5 1450.61,-68.4 1454.83,-64 1449.12,-56.75 1431.06,-33.78 1350.33,-21.01 1301.04,-15.23"/>
<polygon fill="#63b8ff" stroke="#63b8ff" points="1301.67,-11.78 1291.34,-14.14 1300.89,-18.74 1301.67,-11.78"/>
</a>
</g>
</g>
<!-- Node10 -->
<g id="Node000010" class="node">
<title>Node10</title>
<g id="a_Node000010"><a xlink:href="kernel__defines_8h.html" target="_top" xlink:title="Common macros and compiler attributes/pragmas configuration.">
<polygon fill="white" stroke="#666666" points="791.25,-191 695,-191 695,-170.25 791.25,-170.25 791.25,-191"/>
<text text-anchor="middle" x="743.12" y="-177.5" font-family="Helvetica,sans-Serif" font-size="10.00">kernel_defines.h</text>
</a>
</g>
</g>
<!-- Node8&#45;&gt;Node10 -->
<g id="edge10_Node000008_Node000010" class="edge">
<title>Node8&#45;&gt;Node10</title>
<g id="a_edge10_Node000008_Node000010"><a xlink:title=" ">
<path fill="none" stroke="#63b8ff" d="M1159.93,-233.33C1087.38,-225.2 889.42,-202.83 802.75,-191.15"/>
<polygon fill="#63b8ff" stroke="#63b8ff" points="803.4,-187.71 793.02,-189.81 802.45,-194.64 803.4,-187.71"/>
</a>
</g>
</g>
<!-- Node16 -->
<g id="Node000016" class="node">
<title>Node16</title>
<g id="a_Node000016"><a xlink:href="native__sched_8h.html" target="_top" xlink:title="Add definitions required on the native board.">
<polygon fill="white" stroke="#666666" points="1299.88,-191 1210.38,-191 1210.38,-170.25 1299.88,-170.25 1299.88,-191"/>
<text text-anchor="middle" x="1255.12" y="-177.5" font-family="Helvetica,sans-Serif" font-size="10.00">native_sched.h</text>
</a>
</g>
</g>
<!-- Node8&#45;&gt;Node16 -->
<g id="edge21_Node000008_Node000016" class="edge">
<title>Node8&#45;&gt;Node16</title>
<g id="a_edge21_Node000008_Node000016"><a xlink:title=" ">
<path fill="none" stroke="#63b8ff" d="M1199.28,-226.59C1208.95,-218.8 1222.71,-207.72 1234.15,-198.51"/>
<polygon fill="#63b8ff" stroke="#63b8ff" points="1236.3,-201.28 1241.89,-192.28 1231.91,-195.82 1236.3,-201.28"/>
</a>
</g>
</g>
<!-- Node17 -->
<g id="Node000017" class="node">
<title>Node17</title>
<g id="a_Node000017"><a xlink:href="clist_8h.html" target="_top" xlink:title="Circular linked list.">
<polygon fill="white" stroke="#666666" points="1401.75,-191 1356.5,-191 1356.5,-170.25 1401.75,-170.25 1401.75,-191"/>
<text text-anchor="middle" x="1379.12" y="-177.5" font-family="Helvetica,sans-Serif" font-size="10.00">clist.h</text>
</a>
</g>
</g>
<!-- Node8&#45;&gt;Node17 -->
<g id="edge22_Node000008_Node000017" class="edge">
<title>Node8&#45;&gt;Node17</title>
<g id="a_edge22_Node000008_Node000017"><a xlink:title=" ">
<path fill="none" stroke="#63b8ff" d="M1214.23,-228.65C1248.61,-218.84 1307.9,-201.93 1345.24,-191.29"/>
<polygon fill="#63b8ff" stroke="#63b8ff" points="1345.96,-194.72 1354.61,-188.62 1344.04,-187.99 1345.96,-194.72"/>
</a>
</g>
</g>
<!-- Node11 -->
<g id="Node000011" class="node">
<title>Node11</title>
<g id="a_Node000011"><a xlink:href="modules_8h.html" target="_top" xlink:title="Common macros and compiler attributes/pragmas configuration.">
<polygon fill="white" stroke="#666666" points="605.62,-134.25 538.62,-134.25 538.62,-113.5 605.62,-113.5 605.62,-134.25"/>
<text text-anchor="middle" x="572.12" y="-120.75" font-family="Helvetica,sans-Serif" font-size="10.00">modules.h</text>
</a>
</g>
</g>
<!-- Node10&#45;&gt;Node11 -->
<g id="edge11_Node000010_Node000011" class="edge">
<title>Node10&#45;&gt;Node11</title>
<g id="a_edge11_Node000010_Node000011"><a xlink:title=" ">
<path fill="none" stroke="#63b8ff" d="M712.55,-169.84C684.92,-160.99 644.01,-147.89 613.46,-138.11"/>
<polygon fill="#63b8ff" stroke="#63b8ff" points="614.75,-134.85 604.16,-135.13 612.62,-141.51 614.75,-134.85"/>
</a>
</g>
</g>
<!-- Node12 -->
<g id="Node000012" class="node">
<title>Node12</title>
<g id="a_Node000012"><a xlink:href="riot__version_8h.html" target="_top" xlink:title="Common macros and compiler attributes/pragmas configuration.">
<polygon fill="white" stroke="#666666" points="821.5,-134.25 738.75,-134.25 738.75,-113.5 821.5,-113.5 821.5,-134.25"/>
<text text-anchor="middle" x="780.12" y="-120.75" font-family="Helvetica,sans-Serif" font-size="10.00">riot_version.h</text>
</a>
</g>
</g>
<!-- Node10&#45;&gt;Node12 -->
<g id="edge12_Node000010_Node000012" class="edge">
<title>Node10&#45;&gt;Node12</title>
<g id="a_edge12_Node000010_Node000012"><a xlink:title=" ">
<path fill="none" stroke="#63b8ff" d="M749.74,-169.84C754.58,-162.67 761.3,-152.73 767.2,-144.01"/>
<polygon fill="#63b8ff" stroke="#63b8ff" points="770.02,-146.08 772.72,-135.83 764.22,-142.16 770.02,-146.08"/>
</a>
</g>
</g>
<!-- Node13 -->
<g id="Node000013" class="node">
<title>Node13</title>
<g id="a_Node000013"><a xlink:href="compiler__hints_8h.html" target="_top" xlink:title="Common macros and compiler attributes/pragmas configuration.">
<polygon fill="white" stroke="#666666" points="720.62,-134.25 623.62,-134.25 623.62,-113.5 720.62,-113.5 720.62,-134.25"/>
<text text-anchor="middle" x="672.12" y="-120.75" font-family="Helvetica,sans-Serif" font-size="10.00">compiler_hints.h</text>
</a>
</g>
</g>
<!-- Node10&#45;&gt;Node13 -->
<g id="edge14_Node000010_Node000013" class="edge">
<title>Node10&#45;&gt;Node13</title>
<g id="a_edge14_Node000010_Node000013"><a xlink:title=" ">
<path fill="none" stroke="#63b8ff" d="M730.43,-169.84C720.23,-161.97 705.68,-150.75 693.67,-141.49"/>
<polygon fill="#63b8ff" stroke="#63b8ff" points="695.96,-138.84 685.91,-135.5 691.69,-144.38 695.96,-138.84"/>
</a>
</g>
</g>
<!-- Node15 -->
<g id="Node000015" class="node">
<title>Node15</title>
<g id="a_Node000015"><a xlink:href="container_8h.html" target="_top" xlink:title="Common macros and compiler attributes/pragmas configuration.">
<polygon fill="white" stroke="#666666" points="985.5,-77.5 914.75,-77.5 914.75,-56.75 985.5,-56.75 985.5,-77.5"/>
<text text-anchor="middle" x="950.12" y="-64" font-family="Helvetica,sans-Serif" font-size="10.00">container.h</text>
</a>
</g>
</g>
<!-- Node10&#45;&gt;Node15 -->
<g id="edge18_Node000010_Node000015" class="edge">
<title>Node10&#45;&gt;Node15</title>
<g id="a_edge18_Node000010_Node000015"><a xlink:title=" ">
<path fill="none" stroke="#63b8ff" d="M762.2,-169.84C779.87,-160.73 806.85,-146.73 830.12,-134.25 862.08,-117.11 898.53,-96.94 922.79,-83.42"/>
<polygon fill="#63b8ff" stroke="#63b8ff" points="924.36,-86.55 931.38,-78.63 920.95,-80.44 924.36,-86.55"/>
</a>
</g>
</g>
<!-- Node12&#45;&gt;Node3 -->
<g id="edge13_Node000012_Node000003" class="edge">
<title>Node12&#45;&gt;Node3</title>
<g id="a_edge13_Node000012_Node000003"><a xlink:title=" ">
<path fill="none" stroke="#63b8ff" d="M765.89,-113.11C745.63,-99.46 707.07,-74.37 672.12,-56.75 647.93,-44.55 619.63,-33.1 597.54,-24.76"/>
<polygon fill="#63b8ff" stroke="#63b8ff" points="598.93,-21.55 588.34,-21.34 596.49,-28.11 598.93,-21.55"/>
</a>
</g>
</g>
<!-- Node13&#45;&gt;Node3 -->
<g id="edge17_Node000013_Node000003" class="edge">
<title>Node13&#45;&gt;Node3</title>
<g id="a_edge17_Node000013_Node000003"><a xlink:title=" ">
<path fill="none" stroke="#63b8ff" d="M671.75,-113.21C670.73,-99.22 666.95,-73.22 653.12,-56.75 638.83,-39.73 616.64,-28.56 597.51,-21.56"/>
<polygon fill="#63b8ff" stroke="#63b8ff" points="598.72,-18.28 588.12,-18.4 596.48,-24.91 598.72,-18.28"/>
</a>
</g>
</g>
<!-- Node14 -->
<g id="Node000014" class="node">
<title>Node14</title>
<g id="a_Node000014"><a xlink:href="assert_8h.html" target="_top" xlink:title="POSIX.1&#45;2008 compliant version of the assert macro.">
<polygon fill="white" stroke="#666666" points="643.62,-77.5 588.62,-77.5 588.62,-56.75 643.62,-56.75 643.62,-77.5"/>
<text text-anchor="middle" x="616.12" y="-64" font-family="Helvetica,sans-Serif" font-size="10.00">assert.h</text>
</a>
</g>
</g>
<!-- Node13&#45;&gt;Node14 -->
<g id="edge15_Node000013_Node000014" class="edge">
<title>Node13&#45;&gt;Node14</title>
<g id="a_edge15_Node000013_Node000014"><a xlink:title=" ">
<path fill="none" stroke="#63b8ff" d="M662.11,-113.09C654.39,-105.53 643.5,-94.89 634.25,-85.85"/>
<polygon fill="#63b8ff" stroke="#63b8ff" points="636.73,-83.37 627.13,-78.89 631.84,-88.38 636.73,-83.37"/>
</a>
</g>
</g>
<!-- Node14&#45;&gt;Node3 -->
<g id="edge16_Node000014_Node000003" class="edge">
<title>Node14&#45;&gt;Node3</title>
<g id="a_edge16_Node000014_Node000003"><a xlink:title=" ">
<path fill="none" stroke="#63b8ff" d="M606.11,-56.34C598.39,-48.78 587.5,-38.14 578.25,-29.1"/>
<polygon fill="#63b8ff" stroke="#63b8ff" points="580.73,-26.62 571.13,-22.14 575.84,-31.63 580.73,-26.62"/>
</a>
</g>
</g>
<!-- Node15&#45;&gt;Node3 -->
<g id="edge20_Node000015_Node000003" class="edge">
<title>Node15&#45;&gt;Node3</title>
<g id="a_edge20_Node000015_Node000003"><a xlink:title=" ">
<path fill="none" stroke="#63b8ff" d="M914.31,-59.03C909.87,-58.22 905.4,-57.44 901.12,-56.75 791.46,-38.98 661.13,-23.08 598.06,-15.71"/>
<polygon fill="#63b8ff" stroke="#63b8ff" points="598.57,-12.25 588.23,-14.57 597.76,-19.2 598.57,-12.25"/>
</a>
</g>
</g>
<!-- Node15&#45;&gt;Node9 -->
<g id="edge19_Node000015_Node000009" class="edge">
<title>Node15&#45;&gt;Node9</title>
<g id="a_edge19_Node000015_Node000009"><a xlink:title=" ">
<path fill="none" stroke="#63b8ff" d="M985.92,-59.84C1045.01,-49.47 1162.51,-28.86 1223.45,-18.16"/>
<polygon fill="#63b8ff" stroke="#63b8ff" points="1223.76,-21.66 1233,-16.49 1222.55,-14.77 1223.76,-21.66"/>
</a>
</g>
</g>
<!-- Node17&#45;&gt;Node4 -->
<g id="edge23_Node000017_Node000004" class="edge">
<title>Node17&#45;&gt;Node4</title>
<g id="a_edge23_Node000017_Node000004"><a xlink:title=" ">
<path fill="none" stroke="#63b8ff" d="M1363.03,-169.84C1349.6,-161.66 1330.19,-149.86 1314.64,-140.4"/>
<polygon fill="#63b8ff" stroke="#63b8ff" points="1316.73,-137.57 1306.37,-135.37 1313.09,-143.55 1316.73,-137.57"/>
</a>
</g>
</g>
<!-- Node17&#45;&gt;Node9 -->
<g id="edge24_Node000017_Node000009" class="edge">
<title>Node17&#45;&gt;Node9</title>
<g id="a_edge24_Node000017_Node000009"><a xlink:title=" ">
<path fill="none" stroke="#63b8ff" d="M1372.5,-170.1C1353.84,-143.27 1300.61,-66.71 1275.52,-30.63"/>
<polygon fill="#63b8ff" stroke="#63b8ff" points="1278.42,-28.67 1269.83,-22.46 1272.67,-32.67 1278.42,-28.67"/>
</a>
</g>
</g>
<!-- Node17&#45;&gt;Node18 -->
<g id="edge25_Node000017_Node000018" class="edge">
<title>Node17&#45;&gt;Node18</title>
<g id="a_edge25_Node000017_Node000018"><a xlink:title=" ">
<path fill="none" stroke="#63b8ff" d="M1356.01,-171.66C1328.24,-162.1 1281.56,-146.03 1250.8,-135.44"/>
<polygon fill="#63b8ff" stroke="#63b8ff" points="1252.28,-132.24 1241.68,-132.3 1250,-138.86 1252.28,-132.24"/>
</a>
</g>
</g>
<!-- Node19&#45;&gt;Node6 -->
<g id="edge27_Node000019_Node000006" class="edge">
<title>Node19&#45;&gt;Node6</title>
<g id="a_edge27_Node000019_Node000006"><a xlink:title=" ">
<path fill="none" stroke="#63b8ff" d="M1060.76,-226.59C1079.6,-218.06 1107.16,-205.59 1128.48,-195.94"/>
<polygon fill="#63b8ff" stroke="#63b8ff" points="1129.63,-199.26 1137.3,-191.95 1126.75,-192.89 1129.63,-199.26"/>
</a>
</g>
</g>
<!-- Node19&#45;&gt;Node11 -->
<g id="edge28_Node000019_Node000011" class="edge">
<title>Node19&#45;&gt;Node11</title>
<g id="a_edge28_Node000019_Node000011"><a xlink:title=" ">
<path fill="none" stroke="#63b8ff" d="M986.23,-236.04C915.89,-234.16 788.54,-225.7 686.12,-191 667.89,-184.82 624.35,-158.18 596.66,-140.65"/>
<polygon fill="#63b8ff" stroke="#63b8ff" points="598.85,-137.9 588.53,-135.48 595.09,-143.8 598.85,-137.9"/>
</a>
</g>
</g>
<!-- Node20 -->
<g id="Node000020" class="node">
<title>Node20</title>
<g id="a_Node000020"><a xlink:href="ethertype_8h.html" target="_top" xlink:title="Ether type definitions.">
<polygon fill="white" stroke="#666666" points="1006.62,-191 915.62,-191 915.62,-170.25 1006.62,-170.25 1006.62,-191"/>
<text text-anchor="middle" x="961.12" y="-177.5" font-family="Helvetica,sans-Serif" font-size="10.00">net/ethertype.h</text>
</a>
</g>
</g>
<!-- Node19&#45;&gt;Node20 -->
<g id="edge29_Node000019_Node000020" class="edge">
<title>Node19&#45;&gt;Node20</title>
<g id="a_edge29_Node000019_Node000020"><a xlink:title=" ">
<path fill="none" stroke="#63b8ff" d="M1025.18,-226.59C1013.76,-218.57 997.36,-207.06 984.01,-197.69"/>
<polygon fill="#63b8ff" stroke="#63b8ff" points="986.38,-195.08 976.19,-192.2 982.36,-200.81 986.38,-195.08"/>
</a>
</g>
</g>
<!-- Node21 -->
<g id="Node000021" class="node">
<title>Node21</title>
<g id="a_Node000021"><a xlink:href="protnum_8h.html" target="_top" xlink:title="Protocol number definitions.">
<polygon fill="white" stroke="#666666" points="1109.62,-191 1024.62,-191 1024.62,-170.25 1109.62,-170.25 1109.62,-191"/>
<text text-anchor="middle" x="1067.12" y="-177.5" font-family="Helvetica,sans-Serif" font-size="10.00">net/protnum.h</text>
</a>
</g>
</g>
<!-- Node19&#45;&gt;Node21 -->
<g id="edge30_Node000019_Node000021" class="edge">
<title>Node19&#45;&gt;Node21</title>
<g id="a_edge30_Node000019_Node000021"><a xlink:title=" ">
<path fill="none" stroke="#63b8ff" d="M1044.13,-226.59C1047.71,-219.58 1052.66,-209.91 1057.05,-201.33"/>
<polygon fill="#63b8ff" stroke="#63b8ff" points="1060.04,-203.17 1061.47,-192.68 1053.8,-199.99 1060.04,-203.17"/>
</a>
</g>
</g>
<!-- Node22&#45;&gt;Node3 -->
<g id="edge33_Node000022_Node000003" class="edge">
<title>Node22&#45;&gt;Node3</title>
<g id="a_edge33_Node000022_Node000003"><a xlink:title=" ">
<path fill="none" stroke="#63b8ff" d="M899.91,-340.09C895.74,-320.76 887.12,-276.27 887.12,-238.38 887.12,-238.38 887.12,-238.38 887.12,-122.88 887.12,-62.44 684.49,-28.06 598.25,-16.16"/>
<polygon fill="#63b8ff" stroke="#63b8ff" points="598.76,-12.7 588.38,-14.84 597.83,-19.64 598.76,-12.7"/>
</a>
</g>
</g>
<!-- Node22&#45;&gt;Node5 -->
<g id="edge37_Node000022_Node000005" class="edge">
<title>Node22&#45;&gt;Node5</title>
<g id="a_edge37_Node000022_Node000005"><a xlink:title=" ">
<path fill="none" stroke="#63b8ff" d="M926.62,-340.09C948.24,-331.44 980.01,-318.75 1004.28,-309.05"/>
<polygon fill="#63b8ff" stroke="#63b8ff" points="1005.45,-312.35 1013.44,-305.39 1002.85,-305.85 1005.45,-312.35"/>
</a>
</g>
</g>
<!-- Node23 -->
<g id="Node000023" class="node">
<title>Node23</title>
<g id="a_Node000023"><a xlink:href="priority__queue_8h.html" target="_top" xlink:title="A simple priority queue.">
<polygon fill="white" stroke="#666666" points="1439.88,-77.5 1344.38,-77.5 1344.38,-56.75 1439.88,-56.75 1439.88,-77.5"/>
<text text-anchor="middle" x="1392.12" y="-64" font-family="Helvetica,sans-Serif" font-size="10.00">priority_queue.h</text>
</a>
</g>
</g>
<!-- Node22&#45;&gt;Node23 -->
<g id="edge34_Node000022_Node000023" class="edge">
<title>Node22&#45;&gt;Node23</title>
<g id="a_edge34_Node000022_Node000023"><a xlink:title=" ">
<path fill="none" stroke="#63b8ff" d="M966.17,-340.07C1091.6,-319.34 1361.74,-266.68 1411.12,-191 1431.78,-159.35 1415.29,-113.51 1402.81,-87.7"/>
<polygon fill="#63b8ff" stroke="#63b8ff" points="1406.03,-86.32 1398.35,-79.02 1399.8,-89.51 1406.03,-86.32"/>
</a>
</g>
</g>
<!-- Node23&#45;&gt;Node3 -->
<g id="edge36_Node000023_Node000003" class="edge">
<title>Node23&#45;&gt;Node3</title>
<g id="a_edge36_Node000023_Node000003"><a xlink:title=" ">
<path fill="none" stroke="#63b8ff" d="M1344.1,-62.96C1193.78,-53.07 734.21,-22.83 598.34,-13.89"/>
<polygon fill="#63b8ff" stroke="#63b8ff" points="598.66,-10.4 588.45,-13.24 598.2,-17.39 598.66,-10.4"/>
</a>
</g>
</g>
<!-- Node23&#45;&gt;Node9 -->
<g id="edge35_Node000023_Node000009" class="edge">
<title>Node23&#45;&gt;Node9</title>
<g id="a_edge35_Node000023_Node000009"><a xlink:title=" ">
<path fill="none" stroke="#63b8ff" d="M1368.88,-56.34C1348.46,-47.73 1318.49,-35.11 1295.5,-25.43"/>
<polygon fill="#63b8ff" stroke="#63b8ff" points="1297.13,-22.32 1286.56,-21.67 1294.42,-28.77 1297.13,-22.32"/>
</a>
</g>
</g>
<!-- Node24&#45;&gt;Node3 -->
<g id="edge39_Node000024_Node000003" class="edge">
<title>Node24&#45;&gt;Node3</title>
<g id="a_edge39_Node000024_Node000003"><a xlink:title=" ">
<path fill="none" stroke="#63b8ff" d="M339.12,-226.68C339.61,-212.67 342.46,-186.64 356.12,-170.25 380.58,-140.93 400.4,-152.14 434.12,-134.25 477.23,-111.38 495.25,-113.57 528.12,-77.5 540.21,-64.25 548.67,-45.6 553.85,-31.49"/>
<polygon fill="#63b8ff" stroke="#63b8ff" points="557.05,-32.94 556.94,-22.35 550.42,-30.69 557.05,-32.94"/>
</a>
</g>
</g>
<!-- Node24&#45;&gt;Node7 -->
<g id="edge40_Node000024_Node000007" class="edge">
<title>Node24&#45;&gt;Node7</title>
<g id="a_edge40_Node000024_Node000007"><a xlink:title=" ">
<path fill="none" stroke="#63b8ff" d="M352.35,-226.59C363.09,-218.65 378.45,-207.28 391.04,-197.96"/>
<polygon fill="#63b8ff" stroke="#63b8ff" points="392.84,-200.99 398.79,-192.23 388.67,-195.36 392.84,-200.99"/>
</a>
</g>
</g>
<!-- Node24&#45;&gt;Node11 -->
<g id="edge51_Node000024_Node000011" class="edge">
<title>Node24&#45;&gt;Node11</title>
<g id="a_edge51_Node000024_Node000011"><a xlink:title=" ">
<path fill="none" stroke="#63b8ff" d="M342.12,-226.59C347.11,-211.98 358.58,-184.62 378.12,-170.25 384.2,-165.78 472.11,-146.33 527.49,-134.39"/>
<polygon fill="#63b8ff" stroke="#63b8ff" points="527.91,-137.88 536.95,-132.35 526.44,-131.03 527.91,-137.88"/>
</a>
</g>
</g>
<!-- Node25 -->
<g id="Node000025" class="node">
<title>Node25</title>
<g id="a_Node000025"><a xlink:href="byteorder_8h.html" target="_top" xlink:title="Functions to work with different byte orders.">
<polygon fill="white" stroke="#666666" points="347.25,-134.25 275,-134.25 275,-113.5 347.25,-113.5 347.25,-134.25"/>
<text text-anchor="middle" x="311.12" y="-120.75" font-family="Helvetica,sans-Serif" font-size="10.00">byteorder.h</text>
</a>
</g>
</g>
<!-- Node24&#45;&gt;Node25 -->
<g id="edge41_Node000024_Node000025" class="edge">
<title>Node24&#45;&gt;Node25</title>
<g id="a_edge41_Node000024_Node000025"><a xlink:title=" ">
<path fill="none" stroke="#63b8ff" d="M288.39,-231.65C261.6,-226.28 230.89,-214.92 214.12,-191 196.94,-166.48 231.42,-148.33 263.92,-137.31"/>
<polygon fill="#63b8ff" stroke="#63b8ff" points="264.89,-140.68 273.35,-134.31 262.76,-134.01 264.89,-140.68"/>
</a>
</g>
</g>
<!-- Node29 -->
<g id="Node000029" class="node">
<title>Node29</title>
<g id="a_Node000029"><a xlink:href="eui64_8h.html" target="_top" xlink:title="EUI&#45;64 data type definition.">
<polygon fill="white" stroke="#666666" points="293.5,-191 222.75,-191 222.75,-170.25 293.5,-170.25 293.5,-191"/>
<text text-anchor="middle" x="258.12" y="-177.5" font-family="Helvetica,sans-Serif" font-size="10.00">net/eui64.h</text>
</a>
</g>
</g>
<!-- Node24&#45;&gt;Node29 -->
<g id="edge48_Node000024_Node000029" class="edge">
<title>Node24&#45;&gt;Node29</title>
<g id="a_edge48_Node000024_Node000029"><a xlink:title=" ">
<path fill="none" stroke="#63b8ff" d="M324.64,-226.59C312.78,-218.57 295.75,-207.06 281.89,-197.69"/>
<polygon fill="#63b8ff" stroke="#63b8ff" points="283.98,-194.88 273.73,-192.18 280.06,-200.68 283.98,-194.88"/>
</a>
</g>
</g>
<!-- Node25&#45;&gt;Node3 -->
<g id="edge43_Node000025_Node000003" class="edge">
<title>Node25&#45;&gt;Node3</title>
<g id="a_edge43_Node000025_Node000003"><a xlink:title=" ">
<path fill="none" stroke="#63b8ff" d="M328.94,-113.12C361.52,-95.31 427.83,-59.11 433.12,-56.75 462.55,-43.61 497.04,-31.49 522.65,-23.08"/>
<polygon fill="#63b8ff" stroke="#63b8ff" points="523.52,-26.48 531.95,-20.07 521.36,-19.82 523.52,-26.48"/>
</a>
</g>
</g>
<!-- Node26 -->
<g id="Node000026" class="node">
<title>Node26</title>
<g id="a_Node000026"><a xlink:title=" ">
<polygon fill="#e0e0e0" stroke="#999999" points="494.5,-77.5 441.75,-77.5 441.75,-56.75 494.5,-56.75 494.5,-77.5"/>
<text text-anchor="middle" x="468.12" y="-64" font-family="Helvetica,sans-Serif" font-size="10.00">string.h</text>
</a>
</g>
</g>
<!-- Node25&#45;&gt;Node26 -->
<g id="edge42_Node000025_Node000026" class="edge">
<title>Node25&#45;&gt;Node26</title>
<g id="a_edge42_Node000025_Node000026"><a xlink:title=" ">
<path fill="none" stroke="#63b8ff" d="M339.19,-113.09C364.73,-104.18 402.62,-90.97 430.73,-81.17"/>
<polygon fill="#63b8ff" stroke="#63b8ff" points="431.63,-84.56 439.92,-77.96 429.32,-77.95 431.63,-84.56"/>
</a>
</g>
</g>
<!-- Node27 -->
<g id="Node000027" class="node">
<title>Node27</title>
<g id="a_Node000027"><a xlink:href="endian_8h.html" target="_top" xlink:title="libc header for endian conversion">
<polygon fill="white" stroke="#666666" points="294.12,-77.5 236.12,-77.5 236.12,-56.75 294.12,-56.75 294.12,-77.5"/>
<text text-anchor="middle" x="265.12" y="-64" font-family="Helvetica,sans-Serif" font-size="10.00">endian.h</text>
</a>
</g>
</g>
<!-- Node25&#45;&gt;Node27 -->
<g id="edge44_Node000025_Node000027" class="edge">
<title>Node25&#45;&gt;Node27</title>
<g id="a_edge44_Node000025_Node000027"><a xlink:title=" ">
<path fill="none" stroke="#63b8ff" d="M302.9,-113.09C296.69,-105.69 287.98,-95.32 280.49,-86.41"/>
<polygon fill="#63b8ff" stroke="#63b8ff" points="283.36,-84.39 274.25,-78.99 278,-88.9 283.36,-84.39"/>
</a>
</g>
</g>
<!-- Node28 -->
<g id="Node000028" class="node">
<title>Node28</title>
<g id="a_Node000028"><a xlink:href="unaligned_8h.html" target="_top" xlink:title="Unaligned but safe memory access functions.">
<polygon fill="white" stroke="#666666" points="385.62,-77.5 312.62,-77.5 312.62,-56.75 385.62,-56.75 385.62,-77.5"/>
<text text-anchor="middle" x="349.12" y="-64" font-family="Helvetica,sans-Serif" font-size="10.00">unaligned.h</text>
</a>
</g>
</g>
<!-- Node25&#45;&gt;Node28 -->
<g id="edge46_Node000025_Node000028" class="edge">
<title>Node25&#45;&gt;Node28</title>
<g id="a_edge46_Node000025_Node000028"><a xlink:title=" ">
<path fill="none" stroke="#63b8ff" d="M317.92,-113.09C322.89,-105.92 329.79,-95.98 335.85,-87.26"/>
<polygon fill="#63b8ff" stroke="#63b8ff" points="338.7,-89.28 341.53,-79.07 332.95,-85.29 338.7,-89.28"/>
</a>
</g>
</g>
<!-- Node27&#45;&gt;Node3 -->
<g id="edge45_Node000027_Node000003" class="edge">
<title>Node27&#45;&gt;Node3</title>
<g id="a_edge45_Node000027_Node000003"><a xlink:title=" ">
<path fill="none" stroke="#63b8ff" d="M294.54,-58.66C297.43,-57.99 300.33,-57.34 303.12,-56.75 380.48,-40.4 471.8,-25.25 522.1,-17.27"/>
<polygon fill="#63b8ff" stroke="#63b8ff" points="522.55,-20.74 531.88,-15.73 521.45,-13.83 522.55,-20.74"/>
</a>
</g>
</g>
<!-- Node28&#45;&gt;Node3 -->
<g id="edge47_Node000028_Node000003" class="edge">
<title>Node28&#45;&gt;Node3</title>
<g id="a_edge47_Node000028_Node000003"><a xlink:title=" ">
<path fill="none" stroke="#63b8ff" d="M385.88,-56.59C424.24,-46.63 484.09,-31.1 522.7,-21.09"/>
<polygon fill="#63b8ff" stroke="#63b8ff" points="523.21,-24.57 532.01,-18.67 521.45,-17.79 523.21,-24.57"/>
</a>
</g>
</g>
<!-- Node29&#45;&gt;Node3 -->
<g id="edge49_Node000029_Node000003" class="edge">
<title>Node29&#45;&gt;Node3</title>
<g id="a_edge49_Node000029_Node000003"><a xlink:title=" ">
<path fill="none" stroke="#63b8ff" d="M293.58,-170.49C343.68,-156.38 436.52,-125.77 503.12,-77.5 521.07,-64.49 537.12,-44.77 547.58,-30.24"/>
<polygon fill="#63b8ff" stroke="#63b8ff" points="550.19,-32.62 553.01,-22.41 544.44,-28.63 550.19,-32.62"/>
</a>
</g>
</g>
<!-- Node29&#45;&gt;Node25 -->
<g id="edge50_Node000029_Node000025" class="edge">
<title>Node29&#45;&gt;Node25</title>
<g id="a_edge50_Node000029_Node000025"><a xlink:title=" ">
<path fill="none" stroke="#63b8ff" d="M267.6,-169.84C274.91,-162.28 285.22,-151.64 293.97,-142.6"/>
<polygon fill="#63b8ff" stroke="#63b8ff" points="296.24,-145.29 300.68,-135.67 291.21,-140.42 296.24,-145.29"/>
</a>
</g>
</g>
<!-- Node30&#45;&gt;Node11 -->
<g id="edge53_Node000030_Node000011" class="edge">
<title>Node30&#45;&gt;Node11</title>
<g id="a_edge53_Node000030_Node000011"><a xlink:title=" ">
<path fill="none" stroke="#63b8ff" d="M630.03,-340.04C632.19,-312.13 635.72,-230.58 610.12,-170.25 605.8,-160.05 598.38,-150.4 591.23,-142.63"/>
<polygon fill="#63b8ff" stroke="#63b8ff" points="593.76,-140.21 584.24,-135.55 588.78,-145.13 593.76,-140.21"/>
</a>
</g>
</g>
<!-- Node31&#45;&gt;Node3 -->
<g id="edge55_Node000031_Node000003" class="edge">
<title>Node31&#45;&gt;Node3</title>
<g id="a_edge55_Node000031_Node000003"><a xlink:title=" ">
<path fill="none" stroke="#63b8ff" d="M57.37,-283.41C63.49,-264.2 76.12,-219.9 76.12,-181.62 76.12,-181.62 76.12,-181.62 76.12,-122.88 76.12,-90.78 79.17,-75.62 105.12,-56.75 138.56,-32.45 418.7,-17.66 522.04,-12.99"/>
<polygon fill="#63b8ff" stroke="#63b8ff" points="522.11,-16.49 531.94,-12.55 521.8,-9.49 522.11,-16.49"/>
</a>
</g>
</g>
<!-- Node32 -->
<g id="Node000032" class="node">
<title>Node32</title>
<g id="a_Node000032"><a xlink:href="drivers_2include_2net_2netdev_8h.html" target="_top" xlink:title="Definitions low&#45;level network driver interface.">
<polygon fill="white" stroke="#666666" points="561.5,-247.75 484.75,-247.75 484.75,-227 561.5,-227 561.5,-247.75"/>
<text text-anchor="middle" x="523.12" y="-234.25" font-family="Helvetica,sans-Serif" font-size="10.00">net/netdev.h</text>
</a>
</g>
</g>
<!-- Node31&#45;&gt;Node32 -->
<g id="edge56_Node000031_Node000032" class="edge">
<title>Node31&#45;&gt;Node32</title>
<g id="a_edge56_Node000031_Node000032"><a xlink:title=" ">
<path fill="none" stroke="#63b8ff" d="M108.38,-286.79C200.11,-276.08 384.49,-254.56 473.2,-244.2"/>
<polygon fill="#63b8ff" stroke="#63b8ff" points="473.53,-247.69 483.05,-243.05 472.72,-240.74 473.53,-247.69"/>
</a>
</g>
</g>
<!-- Node32&#45;&gt;Node3 -->
<g id="edge57_Node000032_Node000003" class="edge">
<title>Node32&#45;&gt;Node3</title>
<g id="a_edge57_Node000032_Node000003"><a xlink:title=" ">
<path fill="none" stroke="#63b8ff" d="M484.53,-233.5C405.6,-227.23 231.6,-211.23 214.12,-191 175.12,-145.85 174.77,-101.6 214.12,-56.75 234.23,-33.83 436.62,-18.9 522.22,-13.57"/>
<polygon fill="#63b8ff" stroke="#63b8ff" points="522.21,-17.07 531.98,-12.97 521.78,-10.09 522.21,-17.07"/>
</a>
</g>
</g>
<!-- Node32&#45;&gt;Node10 -->
<g id="edge69_Node000032_Node000010" class="edge">
<title>Node32&#45;&gt;Node10</title>
<g id="a_edge69_Node000032_Node000010"><a xlink:title=" ">
<path fill="none" stroke="#63b8ff" d="M561.95,-226.71C598.29,-217.67 652.8,-204.1 692.53,-194.22"/>
<polygon fill="#63b8ff" stroke="#63b8ff" points="693.25,-197.64 702.11,-191.83 691.56,-190.85 693.25,-197.64"/>
</a>
</g>
</g>
<!-- Node33 -->
<g id="Node000033" class="node">
<title>Node33</title>
<g id="a_Node000033"><a xlink:href="errno_8h.html" target="_top" xlink:title=" ">
<polygon fill="white" stroke="#666666" points="507.38,-191 456.88,-191 456.88,-170.25 507.38,-170.25 507.38,-191"/>
<text text-anchor="middle" x="482.12" y="-177.5" font-family="Helvetica,sans-Serif" font-size="10.00">errno.h</text>
</a>
</g>
</g>
<!-- Node32&#45;&gt;Node33 -->
<g id="edge58_Node000032_Node000033" class="edge">
<title>Node32&#45;&gt;Node33</title>
<g id="a_edge58_Node000032_Node000033"><a xlink:title=" ">
<path fill="none" stroke="#63b8ff" d="M515.8,-226.59C510.37,-219.35 502.82,-209.26 496.24,-200.47"/>
<polygon fill="#63b8ff" stroke="#63b8ff" points="499.09,-198.45 490.3,-192.54 493.49,-202.64 499.09,-198.45"/>
</a>
</g>
</g>
<!-- Node34 -->
<g id="Node000034" class="node">
<title>Node34</title>
<g id="a_Node000034"><a xlink:href="iolist_8h.html" target="_top" xlink:title="iolist scatter / gather IO">
<polygon fill="white" stroke="#666666" points="858.62,-191 809.62,-191 809.62,-170.25 858.62,-170.25 858.62,-191"/>
<text text-anchor="middle" x="834.12" y="-177.5" font-family="Helvetica,sans-Serif" font-size="10.00">iolist.h</text>
</a>
</g>
</g>
<!-- Node32&#45;&gt;Node34 -->
<g id="edge59_Node000032_Node000034" class="edge">
<title>Node32&#45;&gt;Node34</title>
<g id="a_edge59_Node000032_Node000034"><a xlink:title=" ">
<path fill="none" stroke="#63b8ff" d="M561.91,-231.35C613.6,-224.37 708.12,-210.59 798.34,-191.19"/>
<polygon fill="#63b8ff" stroke="#63b8ff" points="798.82,-194.67 807.84,-189.12 797.32,-187.83 798.82,-194.67"/>
</a>
</g>
</g>
<!-- Node37 -->
<g id="Node000037" class="node">
<title>Node37</title>
<g id="a_Node000037"><a xlink:href="netopt_8h.html" target="_top" xlink:title="Definition of global configuration options.">
<polygon fill="white" stroke="#666666" points="600.75,-191 525.5,-191 525.5,-170.25 600.75,-170.25 600.75,-191"/>
<text text-anchor="middle" x="563.12" y="-177.5" font-family="Helvetica,sans-Serif" font-size="10.00">net/netopt.h</text>
</a>
</g>
</g>
<!-- Node32&#45;&gt;Node37 -->
<g id="edge66_Node000032_Node000037" class="edge">
<title>Node32&#45;&gt;Node37</title>
<g id="a_edge66_Node000032_Node000037"><a xlink:title=" ">
<path fill="none" stroke="#63b8ff" d="M530.28,-226.59C535.57,-219.35 542.94,-209.26 549.35,-200.47"/>
<polygon fill="#63b8ff" stroke="#63b8ff" points="552.07,-202.69 555.14,-192.55 546.42,-198.56 552.07,-202.69"/>
</a>
</g>
</g>
<!-- Node35 -->
<g id="Node000035" class="node">
<title>Node35</title>
<g id="a_Node000035"><a xlink:href="unistd_8h_source.html" target="_top" xlink:title=" ">
<polygon fill="white" stroke="#666666" points="1072.62,-134.25 1017.62,-134.25 1017.62,-113.5 1072.62,-113.5 1072.62,-134.25"/>
<text text-anchor="middle" x="1045.12" y="-120.75" font-family="Helvetica,sans-Serif" font-size="10.00">unistd.h</text>
</a>
</g>
</g>
<!-- Node34&#45;&gt;Node35 -->
<g id="edge60_Node000034_Node000035" class="edge">
<title>Node34&#45;&gt;Node35</title>
<g id="a_edge60_Node000034_Node000035"><a xlink:title=" ">
<path fill="none" stroke="#63b8ff" d="M858.74,-173.24C895.07,-163.81 963.36,-146.09 1006.43,-134.92"/>
<polygon fill="#63b8ff" stroke="#63b8ff" points="1007.06,-138.37 1015.86,-132.47 1005.3,-131.59 1007.06,-138.37"/>
</a>
</g>
</g>
<!-- Node35&#45;&gt;Node3 -->
<g id="edge62_Node000035_Node000003" class="edge">
<title>Node35&#45;&gt;Node3</title>
<g id="a_edge62_Node000035_Node000003"><a xlink:title=" ">
<path fill="none" stroke="#63b8ff" d="M1040.82,-113.21C1033.57,-98.22 1017.42,-69.75 994.12,-56.75 926.63,-19.08 690.99,-12.64 598.14,-11.57"/>
<polygon fill="#63b8ff" stroke="#63b8ff" points="598.33,-8.07 588.3,-11.47 598.26,-15.07 598.33,-8.07"/>
</a>
</g>
</g>
<!-- Node35&#45;&gt;Node9 -->
<g id="edge61_Node000035_Node000009" class="edge">
<title>Node35&#45;&gt;Node9</title>
<g id="a_edge61_Node000035_Node000009"><a xlink:title=" ">
<path fill="none" stroke="#63b8ff" d="M1064,-113.18C1102,-93.65 1187.91,-49.51 1233.1,-26.29"/>
<polygon fill="#63b8ff" stroke="#63b8ff" points="1234.5,-29.51 1241.79,-21.82 1231.3,-23.28 1234.5,-29.51"/>
</a>
</g>
</g>
<!-- Node36 -->
<g id="Node000036" class="node">
<title>Node36</title>
<g id="a_Node000036"><a xlink:href="cpu_2avr8__common_2avr__libc__extra_2include_2sys_2types_8h_source.html" target="_top" xlink:title=" ">
<polygon fill="white" stroke="#666666" points="1112.88,-77.5 1041.38,-77.5 1041.38,-56.75 1112.88,-56.75 1112.88,-77.5"/>
<text text-anchor="middle" x="1077.12" y="-64" font-family="Helvetica,sans-Serif" font-size="10.00">sys/types.h</text>
</a>
</g>
</g>
<!-- Node35&#45;&gt;Node36 -->
<g id="edge63_Node000035_Node000036" class="edge">
<title>Node35&#45;&gt;Node36</title>
<g id="a_edge63_Node000035_Node000036"><a xlink:title=" ">
<path fill="none" stroke="#63b8ff" d="M1050.85,-113.09C1054.99,-106 1060.72,-96.19 1065.78,-87.54"/>
<polygon fill="#63b8ff" stroke="#63b8ff" points="1068.67,-89.53 1070.69,-79.14 1062.62,-86 1068.67,-89.53"/>
</a>
</g>
</g>
<!-- Node36&#45;&gt;Node3 -->
<g id="edge64_Node000036_Node000003" class="edge">
<title>Node36&#45;&gt;Node3</title>
<g id="a_edge64_Node000036_Node000003"><a xlink:title=" ">
<path fill="none" stroke="#63b8ff" d="M1041.14,-58.98C1036.43,-58.17 1031.67,-57.4 1027.12,-56.75 868.53,-34.22 678.01,-19.53 598.21,-13.93"/>
<polygon fill="#63b8ff" stroke="#63b8ff" points="598.54,-10.44 588.32,-13.24 598.06,-17.43 598.54,-10.44"/>
</a>
</g>
</g>
<!-- Node36&#45;&gt;Node9 -->
<g id="edge65_Node000036_Node000009" class="edge">
<title>Node36&#45;&gt;Node9</title>
<g id="a_edge65_Node000036_Node000009"><a xlink:title=" ">
<path fill="none" stroke="#63b8ff" d="M1110.2,-56.34C1141.95,-46.94 1189.89,-32.75 1223.4,-22.83"/>
<polygon fill="#63b8ff" stroke="#63b8ff" points="1224.12,-26.27 1232.72,-20.08 1222.14,-19.56 1224.12,-26.27"/>
</a>
</g>
</g>
<!-- Node37&#45;&gt;Node3 -->
<g id="edge67_Node000037_Node000003" class="edge">
<title>Node37&#45;&gt;Node3</title>
<g id="a_edge67_Node000037_Node000003"><a xlink:title=" ">
<path fill="none" stroke="#63b8ff" d="M525.19,-171.88C522.13,-171.31 519.08,-170.76 516.12,-170.25 405.49,-151.26 361.48,-193.48 266.12,-134.25 233.37,-113.9 201.77,-85.8 227.12,-56.75 265.04,-13.32 442.83,-9.9 521.97,-10.6"/>
<polygon fill="#63b8ff" stroke="#63b8ff" points="521.79,-14.1 531.83,-10.72 521.87,-7.1 521.79,-14.1"/>
</a>
</g>
</g>
<!-- Node37&#45;&gt;Node4 -->
<g id="edge68_Node000037_Node000004" class="edge">
<title>Node37&#45;&gt;Node4</title>
<g id="a_edge68_Node000037_Node000004"><a xlink:title=" ">
<path fill="none" stroke="#63b8ff" d="M601.07,-176.61C625.38,-174.71 657.6,-172.25 686.12,-170.25 932.58,-152.98 999.16,-170.46 1247.04,-134.3"/>
<polygon fill="#63b8ff" stroke="#63b8ff" points="1247.33,-137.8 1256.72,-132.88 1246.31,-130.87 1247.33,-137.8"/>
</a>
</g>
</g>
</g>
</svg>
