<?xml version="1.0" encoding="UTF-8" standalone="no"?>
<!DOCTYPE svg PUBLIC "-//W3C//DTD SVG 1.1//EN"
 "http://www.w3.org/Graphics/SVG/1.1/DTD/svg11.dtd">
<!-- Generated by graphviz version 12.1.1 (0)
 -->
<!-- Title: sys/include/net/gnrc/netif/conf.h Pages: 1 -->
<svg width="706pt" height="382pt"
 viewBox="0.00 0.00 706.00 382.00" xmlns="http://www.w3.org/2000/svg" xmlns:xlink="http://www.w3.org/1999/xlink">
<g id="graph0" class="graph" transform="scale(1 1) rotate(0) translate(4 378)">
<title>sys/include/net/gnrc/netif/conf.h</title>
<!-- Node1 -->
<g id="Node000001" class="node">
<title>Node1</title>
<g id="a_Node000001"><a xlink:title="Configuration macros for Network interface API.">
<polygon fill="#999999" stroke="#666666" points="496.25,-374 382.75,-374 382.75,-340.5 496.25,-340.5 496.25,-374"/>
<text text-anchor="start" x="390.75" y="-360.5" font-family="Helvetica,sans-Serif" font-size="10.00">sys/include/net/gnrc</text>
<text text-anchor="middle" x="439.5" y="-347.75" font-family="Helvetica,sans-Serif" font-size="10.00">/netif/conf.h</text>
</a>
</g>
</g>
<!-- Node2 -->
<g id="Node000002" class="node">
<title>Node2</title>
<g id="a_Node000002"><a xlink:href="modules_8h.html" target="_top" xlink:title="Common macros and compiler attributes/pragmas configuration.">
<polygon fill="white" stroke="#666666" points="698,-191 631,-191 631,-170.25 698,-170.25 698,-191"/>
<text text-anchor="middle" x="664.5" y="-177.5" font-family="Helvetica,sans-Serif" font-size="10.00">modules.h</text>
</a>
</g>
</g>
<!-- Node1&#45;&gt;Node2 -->
<g id="edge1_Node000001_Node000002" class="edge">
<title>Node1&#45;&gt;Node2</title>
<g id="a_edge1_Node000001_Node000002"><a xlink:title=" ">
<path fill="none" stroke="#63b8ff" d="M496.61,-349.15C550.73,-341.19 626.61,-326.47 646.5,-304.5 671.73,-276.63 670.94,-229.71 667.87,-202.63"/>
<polygon fill="#63b8ff" stroke="#63b8ff" points="671.36,-202.34 666.54,-192.91 664.43,-203.29 671.36,-202.34"/>
</a>
</g>
</g>
<!-- Node3 -->
<g id="Node000003" class="node">
<title>Node3</title>
<g id="a_Node000003"><a xlink:href="client_8h.html" target="_top" xlink:title="DHCPv6 client definitions.">
<polygon fill="white" stroke="#666666" points="291,-304.5 182,-304.5 182,-283.75 291,-283.75 291,-304.5"/>
<text text-anchor="middle" x="236.5" y="-291" font-family="Helvetica,sans-Serif" font-size="10.00">net/dhcpv6/client.h</text>
</a>
</g>
</g>
<!-- Node1&#45;&gt;Node3 -->
<g id="edge2_Node000001_Node000003" class="edge">
<title>Node1&#45;&gt;Node3</title>
<g id="a_edge2_Node000001_Node000003"><a xlink:title=" ">
<path fill="none" stroke="#63b8ff" d="M385.63,-340.03C352.57,-330.08 310.8,-317.5 279.88,-308.19"/>
<polygon fill="#63b8ff" stroke="#63b8ff" points="281.05,-304.88 270.46,-305.35 279.03,-311.59 281.05,-304.88"/>
</a>
</g>
</g>
<!-- Node14 -->
<g id="Node000014" class="node">
<title>Node14</title>
<g id="a_Node000014"><a xlink:title=" ">
<polygon fill="#e0e0e0" stroke="#999999" points="345.75,-247.75 289.25,-247.75 289.25,-227 345.75,-227 345.75,-247.75"/>
<text text-anchor="middle" x="317.5" y="-234.25" font-family="Helvetica,sans-Serif" font-size="10.00">thread.h</text>
</a>
</g>
</g>
<!-- Node1&#45;&gt;Node14 -->
<g id="edge34_Node000001_Node000014" class="edge">
<title>Node1&#45;&gt;Node14</title>
<g id="a_edge34_Node000001_Node000014"><a xlink:title=" ">
<path fill="none" stroke="#63b8ff" d="M389.75,-340.07C371.44,-331.94 351.93,-320.37 338.5,-304.5 327.67,-291.7 322.41,-273.27 319.86,-259.11"/>
<polygon fill="#63b8ff" stroke="#63b8ff" points="323.37,-258.91 318.47,-249.52 316.44,-259.92 323.37,-258.91"/>
</a>
</g>
</g>
<!-- Node15 -->
<g id="Node000015" class="node">
<title>Node15</title>
<g id="a_Node000015"><a xlink:href="sys_2include_2net_2ieee802154_8h.html" target="_top" xlink:title="IEEE 802.15.4 header definitions.">
<polygon fill="white" stroke="#666666" points="584.88,-247.75 484.12,-247.75 484.12,-227 584.88,-227 584.88,-247.75"/>
<text text-anchor="middle" x="534.5" y="-234.25" font-family="Helvetica,sans-Serif" font-size="10.00">net/ieee802154.h</text>
</a>
</g>
</g>
<!-- Node1&#45;&gt;Node15 -->
<g id="edge21_Node000001_Node000015" class="edge">
<title>Node1&#45;&gt;Node15</title>
<g id="a_edge21_Node000001_Node000015"><a xlink:title=" ">
<path fill="none" stroke="#63b8ff" d="M452.31,-340.35C469.77,-318.69 500.98,-279.96 519.51,-256.98"/>
<polygon fill="#63b8ff" stroke="#63b8ff" points="522.1,-259.34 525.65,-249.36 516.65,-254.95 522.1,-259.34"/>
</a>
</g>
</g>
<!-- Node18 -->
<g id="Node000018" class="node">
<title>Node18</title>
<g id="a_Node000018"><a xlink:href="net_2ethernet_2hdr_8h.html" target="_top" xlink:title="Ethernet header definitions.">
<polygon fill="white" stroke="#666666" points="451.38,-304.5 347.62,-304.5 347.62,-283.75 451.38,-283.75 451.38,-304.5"/>
<text text-anchor="middle" x="399.5" y="-291" font-family="Helvetica,sans-Serif" font-size="10.00">net/ethernet/hdr.h</text>
</a>
</g>
</g>
<!-- Node1&#45;&gt;Node18 -->
<g id="edge29_Node000001_Node000018" class="edge">
<title>Node1&#45;&gt;Node18</title>
<g id="a_edge29_Node000001_Node000018"><a xlink:title=" ">
<path fill="none" stroke="#63b8ff" d="M428.99,-340.19C423.85,-332.33 417.61,-322.81 412.21,-314.54"/>
<polygon fill="#63b8ff" stroke="#63b8ff" points="415.17,-312.68 406.77,-306.23 409.32,-316.52 415.17,-312.68"/>
</a>
</g>
</g>
<!-- Node20 -->
<g id="Node000020" class="node">
<title>Node20</title>
<g id="a_Node000020"><a xlink:href="ipv6_2nib_2conf_8h.html" target="_top" xlink:title="Configuration macro definitions for neighbor information base.">
<polygon fill="white" stroke="#666666" points="637.5,-304.5 507.5,-304.5 507.5,-283.75 637.5,-283.75 637.5,-304.5"/>
<text text-anchor="middle" x="572.5" y="-291" font-family="Helvetica,sans-Serif" font-size="10.00">net/gnrc/ipv6/nib/conf.h</text>
</a>
</g>
</g>
<!-- Node1&#45;&gt;Node20 -->
<g id="edge32_Node000001_Node000020" class="edge">
<title>Node1&#45;&gt;Node20</title>
<g id="a_edge32_Node000001_Node000020"><a xlink:title=" ">
<path fill="none" stroke="#63b8ff" d="M474.79,-340.03C495.31,-330.6 520.96,-318.81 540.82,-309.68"/>
<polygon fill="#63b8ff" stroke="#63b8ff" points="542.2,-312.9 549.82,-305.55 539.27,-306.54 542.2,-312.9"/>
</a>
</g>
</g>
<!-- Node4 -->
<g id="Node000004" class="node">
<title>Node4</title>
<g id="a_Node000004"><a xlink:href="byteorder_8h.html" target="_top" xlink:title="Functions to work with different byte orders.">
<polygon fill="white" stroke="#666666" points="329.62,-134.25 257.38,-134.25 257.38,-113.5 329.62,-113.5 329.62,-134.25"/>
<text text-anchor="middle" x="293.5" y="-120.75" font-family="Helvetica,sans-Serif" font-size="10.00">byteorder.h</text>
</a>
</g>
</g>
<!-- Node3&#45;&gt;Node4 -->
<g id="edge3_Node000003_Node000004" class="edge">
<title>Node3&#45;&gt;Node4</title>
<g id="a_edge3_Node000003_Node000004"><a xlink:title=" ">
<path fill="none" stroke="#63b8ff" d="M227.72,-283.37C217.31,-270.56 202.22,-247.31 209.5,-227 213.03,-217.14 254.21,-169.45 277.57,-142.86"/>
<polygon fill="#63b8ff" stroke="#63b8ff" points="280.01,-145.39 284,-135.58 274.76,-140.76 280.01,-145.39"/>
</a>
</g>
</g>
<!-- Node9 -->
<g id="Node000009" class="node">
<title>Node9</title>
<g id="a_Node000009"><a xlink:title=" ">
<polygon fill="#e0e0e0" stroke="#999999" points="270.88,-247.75 218.12,-247.75 218.12,-227 270.88,-227 270.88,-247.75"/>
<text text-anchor="middle" x="244.5" y="-234.25" font-family="Helvetica,sans-Serif" font-size="10.00">event.h</text>
</a>
</g>
</g>
<!-- Node3&#45;&gt;Node9 -->
<g id="edge10_Node000003_Node000009" class="edge">
<title>Node3&#45;&gt;Node9</title>
<g id="a_edge10_Node000003_Node000009"><a xlink:title=" ">
<path fill="none" stroke="#63b8ff" d="M237.93,-283.34C238.91,-276.64 240.24,-267.51 241.45,-259.23"/>
<polygon fill="#63b8ff" stroke="#63b8ff" points="244.88,-259.98 242.86,-249.58 237.95,-258.96 244.88,-259.98"/>
</a>
</g>
</g>
<!-- Node10 -->
<g id="Node000010" class="node">
<title>Node10</title>
<g id="a_Node000010"><a xlink:href="ipv6_2addr_8h.html" target="_top" xlink:title="Definitions for IPv6 addresses.">
<polygon fill="white" stroke="#666666" points="162.25,-247.75 72.75,-247.75 72.75,-227 162.25,-227 162.25,-247.75"/>
<text text-anchor="middle" x="117.5" y="-234.25" font-family="Helvetica,sans-Serif" font-size="10.00">net/ipv6/addr.h</text>
</a>
</g>
</g>
<!-- Node3&#45;&gt;Node10 -->
<g id="edge11_Node000003_Node000010" class="edge">
<title>Node3&#45;&gt;Node10</title>
<g id="a_edge11_Node000003_Node000010"><a xlink:title=" ">
<path fill="none" stroke="#63b8ff" d="M215.23,-283.34C196.78,-274.85 169.84,-262.45 148.91,-252.83"/>
<polygon fill="#63b8ff" stroke="#63b8ff" points="150.51,-249.71 139.97,-248.71 147.59,-256.07 150.51,-249.71"/>
</a>
</g>
</g>
<!-- Node3&#45;&gt;Node14 -->
<g id="edge20_Node000003_Node000014" class="edge">
<title>Node3&#45;&gt;Node14</title>
<g id="a_edge20_Node000003_Node000014"><a xlink:title=" ">
<path fill="none" stroke="#63b8ff" d="M250.98,-283.34C262.85,-275.32 279.87,-263.81 293.73,-254.44"/>
<polygon fill="#63b8ff" stroke="#63b8ff" points="295.57,-257.43 301.89,-248.93 291.65,-251.63 295.57,-257.43"/>
</a>
</g>
</g>
<!-- Node5 -->
<g id="Node000005" class="node">
<title>Node5</title>
<g id="a_Node000005"><a xlink:title=" ">
<polygon fill="#e0e0e0" stroke="#999999" points="228.88,-77.5 176.12,-77.5 176.12,-56.75 228.88,-56.75 228.88,-77.5"/>
<text text-anchor="middle" x="202.5" y="-64" font-family="Helvetica,sans-Serif" font-size="10.00">string.h</text>
</a>
</g>
</g>
<!-- Node4&#45;&gt;Node5 -->
<g id="edge4_Node000004_Node000005" class="edge">
<title>Node4&#45;&gt;Node5</title>
<g id="a_edge4_Node000004_Node000005"><a xlink:title=" ">
<path fill="none" stroke="#63b8ff" d="M277.23,-113.09C263.64,-104.91 244.03,-93.11 228.3,-83.65"/>
<polygon fill="#63b8ff" stroke="#63b8ff" points="230.3,-80.77 219.93,-78.61 226.69,-86.76 230.3,-80.77"/>
</a>
</g>
</g>
<!-- Node6 -->
<g id="Node000006" class="node">
<title>Node6</title>
<g id="a_Node000006"><a xlink:title=" ">
<polygon fill="#e0e0e0" stroke="#999999" points="385.88,-20.75 333.12,-20.75 333.12,0 385.88,0 385.88,-20.75"/>
<text text-anchor="middle" x="359.5" y="-7.25" font-family="Helvetica,sans-Serif" font-size="10.00">stdint.h</text>
</a>
</g>
</g>
<!-- Node4&#45;&gt;Node6 -->
<g id="edge5_Node000004_Node000006" class="edge">
<title>Node4&#45;&gt;Node6</title>
<g id="a_edge5_Node000004_Node000006"><a xlink:title=" ">
<path fill="none" stroke="#63b8ff" d="M287.47,-113.23C279.86,-99.72 268.99,-74.8 279.5,-56.75 288.86,-40.68 306.27,-29.84 322.46,-22.8"/>
<polygon fill="#63b8ff" stroke="#63b8ff" points="323.4,-26.19 331.42,-19.26 320.83,-19.67 323.4,-26.19"/>
</a>
</g>
</g>
<!-- Node7 -->
<g id="Node000007" class="node">
<title>Node7</title>
<g id="a_Node000007"><a xlink:href="endian_8h.html" target="_top" xlink:title="libc header for endian conversion">
<polygon fill="white" stroke="#666666" points="346.5,-77.5 288.5,-77.5 288.5,-56.75 346.5,-56.75 346.5,-77.5"/>
<text text-anchor="middle" x="317.5" y="-64" font-family="Helvetica,sans-Serif" font-size="10.00">endian.h</text>
</a>
</g>
</g>
<!-- Node4&#45;&gt;Node7 -->
<g id="edge6_Node000004_Node000007" class="edge">
<title>Node4&#45;&gt;Node7</title>
<g id="a_edge6_Node000004_Node000007"><a xlink:title=" ">
<path fill="none" stroke="#63b8ff" d="M297.79,-113.09C300.83,-106.16 305.01,-96.62 308.74,-88.11"/>
<polygon fill="#63b8ff" stroke="#63b8ff" points="311.83,-89.78 312.64,-79.21 305.42,-86.97 311.83,-89.78"/>
</a>
</g>
</g>
<!-- Node8 -->
<g id="Node000008" class="node">
<title>Node8</title>
<g id="a_Node000008"><a xlink:href="unaligned_8h.html" target="_top" xlink:title="Unaligned but safe memory access functions.">
<polygon fill="white" stroke="#666666" points="438,-77.5 365,-77.5 365,-56.75 438,-56.75 438,-77.5"/>
<text text-anchor="middle" x="401.5" y="-64" font-family="Helvetica,sans-Serif" font-size="10.00">unaligned.h</text>
</a>
</g>
</g>
<!-- Node4&#45;&gt;Node8 -->
<g id="edge8_Node000004_Node000008" class="edge">
<title>Node4&#45;&gt;Node8</title>
<g id="a_edge8_Node000004_Node000008"><a xlink:title=" ">
<path fill="none" stroke="#63b8ff" d="M312.81,-113.09C329.32,-104.72 353.33,-92.54 372.21,-82.97"/>
<polygon fill="#63b8ff" stroke="#63b8ff" points="373.67,-86.16 381.01,-78.51 370.51,-79.91 373.67,-86.16"/>
</a>
</g>
</g>
<!-- Node7&#45;&gt;Node6 -->
<g id="edge7_Node000007_Node000006" class="edge">
<title>Node7&#45;&gt;Node6</title>
<g id="a_edge7_Node000007_Node000006"><a xlink:title=" ">
<path fill="none" stroke="#63b8ff" d="M325.01,-56.34C330.62,-49.02 338.47,-38.79 345.26,-29.94"/>
<polygon fill="#63b8ff" stroke="#63b8ff" points="347.83,-32.34 351.14,-22.28 342.27,-28.08 347.83,-32.34"/>
</a>
</g>
</g>
<!-- Node8&#45;&gt;Node6 -->
<g id="edge9_Node000008_Node000006" class="edge">
<title>Node8&#45;&gt;Node6</title>
<g id="a_edge9_Node000008_Node000006"><a xlink:title=" ">
<path fill="none" stroke="#63b8ff" d="M393.99,-56.34C388.38,-49.02 380.53,-38.79 373.74,-29.94"/>
<polygon fill="#63b8ff" stroke="#63b8ff" points="376.73,-28.08 367.86,-22.28 371.17,-32.34 376.73,-28.08"/>
</a>
</g>
</g>
<!-- Node10&#45;&gt;Node4 -->
<g id="edge14_Node000010_Node000004" class="edge">
<title>Node10&#45;&gt;Node4</title>
<g id="a_edge14_Node000010_Node000004"><a xlink:title=" ">
<path fill="none" stroke="#63b8ff" d="M139.31,-226.59C157.7,-218.03 184.47,-204.83 206.5,-191 230.63,-175.85 256.39,-155.72 273.56,-141.66"/>
<polygon fill="#63b8ff" stroke="#63b8ff" points="275.52,-144.59 280.99,-135.51 271.06,-139.19 275.52,-144.59"/>
</a>
</g>
</g>
<!-- Node10&#45;&gt;Node5 -->
<g id="edge13_Node000010_Node000005" class="edge">
<title>Node10&#45;&gt;Node5</title>
<g id="a_edge13_Node000010_Node000005"><a xlink:title=" ">
<path fill="none" stroke="#63b8ff" d="M134.09,-226.5C146.22,-218.43 162.14,-205.94 171.5,-191 191.48,-159.1 198.6,-114.95 201.13,-89.18"/>
<polygon fill="#63b8ff" stroke="#63b8ff" points="204.6,-89.6 201.93,-79.35 197.63,-89.03 204.6,-89.6"/>
</a>
</g>
</g>
<!-- Node11 -->
<g id="Node000011" class="node">
<title>Node11</title>
<g id="a_Node000011"><a xlink:title=" ">
<polygon fill="#e0e0e0" stroke="#999999" points="61,-134.25 0,-134.25 0,-113.5 61,-113.5 61,-134.25"/>
<text text-anchor="middle" x="30.5" y="-120.75" font-family="Helvetica,sans-Serif" font-size="10.00">stdbool.h</text>
</a>
</g>
</g>
<!-- Node10&#45;&gt;Node11 -->
<g id="edge12_Node000010_Node000011" class="edge">
<title>Node10&#45;&gt;Node11</title>
<g id="a_edge12_Node000010_Node000011"><a xlink:title=" ">
<path fill="none" stroke="#63b8ff" d="M102.77,-226.56C91.01,-218.18 74.72,-205.23 63.5,-191 52.46,-176.99 43.67,-158.69 37.95,-144.89"/>
<polygon fill="#63b8ff" stroke="#63b8ff" points="41.36,-143.99 34.44,-135.96 34.85,-146.55 41.36,-143.99"/>
</a>
</g>
</g>
<!-- Node12 -->
<g id="Node000012" class="node">
<title>Node12</title>
<g id="a_Node000012"><a xlink:href="ipv4_2addr_8h.html" target="_top" xlink:title="IPv4 address type and helper functions definitions.">
<polygon fill="white" stroke="#666666" points="162.25,-191 72.75,-191 72.75,-170.25 162.25,-170.25 162.25,-191"/>
<text text-anchor="middle" x="117.5" y="-177.5" font-family="Helvetica,sans-Serif" font-size="10.00">net/ipv4/addr.h</text>
</a>
</g>
</g>
<!-- Node10&#45;&gt;Node12 -->
<g id="edge15_Node000010_Node000012" class="edge">
<title>Node10&#45;&gt;Node12</title>
<g id="a_edge15_Node000010_Node000012"><a xlink:title=" ">
<path fill="none" stroke="#63b8ff" d="M117.5,-226.59C117.5,-219.97 117.5,-210.97 117.5,-202.77"/>
<polygon fill="#63b8ff" stroke="#63b8ff" points="121,-202.84 117.5,-192.84 114,-202.84 121,-202.84"/>
</a>
</g>
</g>
<!-- Node12&#45;&gt;Node4 -->
<g id="edge19_Node000012_Node000004" class="edge">
<title>Node12&#45;&gt;Node4</title>
<g id="a_edge19_Node000012_Node000004"><a xlink:title=" ">
<path fill="none" stroke="#63b8ff" d="M148.97,-169.84C177.53,-160.95 219.89,-147.77 251.37,-137.98"/>
<polygon fill="#63b8ff" stroke="#63b8ff" points="252.06,-141.43 260.57,-135.12 249.98,-134.75 252.06,-141.43"/>
</a>
</g>
</g>
<!-- Node12&#45;&gt;Node6 -->
<g id="edge17_Node000012_Node000006" class="edge">
<title>Node12&#45;&gt;Node6</title>
<g id="a_edge17_Node000012_Node000006"><a xlink:title=" ">
<path fill="none" stroke="#63b8ff" d="M113.07,-169.79C107.76,-156.48 100.51,-132.26 108.5,-113.5 122.75,-80.02 135.55,-74.16 167.5,-56.75 216.63,-29.97 281.25,-18.89 321.58,-14.38"/>
<polygon fill="#63b8ff" stroke="#63b8ff" points="321.68,-17.89 331.27,-13.38 320.96,-10.92 321.68,-17.89"/>
</a>
</g>
</g>
<!-- Node12&#45;&gt;Node11 -->
<g id="edge16_Node000012_Node000011" class="edge">
<title>Node12&#45;&gt;Node11</title>
<g id="a_edge16_Node000012_Node000011"><a xlink:title=" ">
<path fill="none" stroke="#63b8ff" d="M101.95,-169.84C89.08,-161.74 70.56,-150.08 55.59,-140.67"/>
<polygon fill="#63b8ff" stroke="#63b8ff" points="57.53,-137.75 47.2,-135.38 53.8,-143.67 57.53,-137.75"/>
</a>
</g>
</g>
<!-- Node13 -->
<g id="Node000013" class="node">
<title>Node13</title>
<g id="a_Node000013"><a xlink:title=" ">
<polygon fill="#e0e0e0" stroke="#999999" points="173,-134.25 118,-134.25 118,-113.5 173,-113.5 173,-134.25"/>
<text text-anchor="middle" x="145.5" y="-120.75" font-family="Helvetica,sans-Serif" font-size="10.00">stddef.h</text>
</a>
</g>
</g>
<!-- Node12&#45;&gt;Node13 -->
<g id="edge18_Node000012_Node000013" class="edge">
<title>Node12&#45;&gt;Node13</title>
<g id="a_edge18_Node000012_Node000013"><a xlink:title=" ">
<path fill="none" stroke="#63b8ff" d="M122.51,-169.84C126.09,-162.83 131.04,-153.16 135.42,-144.58"/>
<polygon fill="#63b8ff" stroke="#63b8ff" points="138.41,-146.42 139.85,-135.93 132.18,-143.24 138.41,-146.42"/>
</a>
</g>
</g>
<!-- Node15&#45;&gt;Node2 -->
<g id="edge28_Node000015_Node000002" class="edge">
<title>Node15&#45;&gt;Node2</title>
<g id="a_edge28_Node000015_Node000002"><a xlink:title=" ">
<path fill="none" stroke="#63b8ff" d="M557.74,-226.59C578.17,-217.98 608.14,-205.36 631.13,-195.68"/>
<polygon fill="#63b8ff" stroke="#63b8ff" points="632.21,-199.02 640.06,-191.92 629.49,-192.57 632.21,-199.02"/>
</a>
</g>
</g>
<!-- Node15&#45;&gt;Node4 -->
<g id="edge24_Node000015_Node000004" class="edge">
<title>Node15&#45;&gt;Node4</title>
<g id="a_edge24_Node000015_Node000004"><a xlink:title=" ">
<path fill="none" stroke="#63b8ff" d="M509.61,-226.59C487.38,-217.71 454.01,-204.06 425.5,-191 405.84,-182 354.75,-156.13 322.2,-139.55"/>
<polygon fill="#63b8ff" stroke="#63b8ff" points="324.2,-136.64 313.7,-135.21 321.02,-142.87 324.2,-136.64"/>
</a>
</g>
</g>
<!-- Node15&#45;&gt;Node6 -->
<g id="edge22_Node000015_Node000006" class="edge">
<title>Node15&#45;&gt;Node6</title>
<g id="a_edge22_Node000015_Node000006"><a xlink:title=" ">
<path fill="none" stroke="#63b8ff" d="M533.58,-226.73C530.24,-197.19 516.27,-106.95 466.5,-56.75 447.66,-37.75 419.63,-26.26 396.99,-19.6"/>
<polygon fill="#63b8ff" stroke="#63b8ff" points="398.07,-16.26 387.5,-17.02 396.23,-23.02 398.07,-16.26"/>
</a>
</g>
</g>
<!-- Node16 -->
<g id="Node000016" class="node">
<title>Node16</title>
<g id="a_Node000016"><a xlink:title=" ">
<polygon fill="#e0e0e0" stroke="#999999" points="612.5,-191 560.5,-191 560.5,-170.25 612.5,-170.25 612.5,-191"/>
<text text-anchor="middle" x="586.5" y="-177.5" font-family="Helvetica,sans-Serif" font-size="10.00">stdlib.h</text>
</a>
</g>
</g>
<!-- Node15&#45;&gt;Node16 -->
<g id="edge23_Node000015_Node000016" class="edge">
<title>Node15&#45;&gt;Node16</title>
<g id="a_edge23_Node000015_Node000016"><a xlink:title=" ">
<path fill="none" stroke="#63b8ff" d="M543.8,-226.59C550.9,-219.11 560.87,-208.61 569.4,-199.63"/>
<polygon fill="#63b8ff" stroke="#63b8ff" points="571.89,-202.09 576.24,-192.43 566.82,-197.27 571.89,-202.09"/>
</a>
</g>
</g>
<!-- Node17 -->
<g id="Node000017" class="node">
<title>Node17</title>
<g id="a_Node000017"><a xlink:href="eui64_8h.html" target="_top" xlink:title="EUI&#45;64 data type definition.">
<polygon fill="white" stroke="#666666" points="504.88,-191 434.12,-191 434.12,-170.25 504.88,-170.25 504.88,-191"/>
<text text-anchor="middle" x="469.5" y="-177.5" font-family="Helvetica,sans-Serif" font-size="10.00">net/eui64.h</text>
</a>
</g>
</g>
<!-- Node15&#45;&gt;Node17 -->
<g id="edge25_Node000015_Node000017" class="edge">
<title>Node15&#45;&gt;Node17</title>
<g id="a_edge25_Node000015_Node000017"><a xlink:title=" ">
<path fill="none" stroke="#63b8ff" d="M522.88,-226.59C513.64,-218.8 500.49,-207.72 489.55,-198.51"/>
<polygon fill="#63b8ff" stroke="#63b8ff" points="492.08,-196.07 482.18,-192.3 487.57,-201.42 492.08,-196.07"/>
</a>
</g>
</g>
<!-- Node17&#45;&gt;Node4 -->
<g id="edge27_Node000017_Node000004" class="edge">
<title>Node17&#45;&gt;Node4</title>
<g id="a_edge27_Node000017_Node000004"><a xlink:title=" ">
<path fill="none" stroke="#63b8ff" d="M438.03,-169.84C409.47,-160.95 367.11,-147.77 335.63,-137.98"/>
<polygon fill="#63b8ff" stroke="#63b8ff" points="337.02,-134.75 326.43,-135.12 334.94,-141.43 337.02,-134.75"/>
</a>
</g>
</g>
<!-- Node17&#45;&gt;Node6 -->
<g id="edge26_Node000017_Node000006" class="edge">
<title>Node17&#45;&gt;Node6</title>
<g id="a_edge26_Node000017_Node000006"><a xlink:title=" ">
<path fill="none" stroke="#63b8ff" d="M470.47,-169.9C472.18,-147.56 473.37,-91.79 447.5,-56.75 435.16,-40.03 414.84,-28.98 396.84,-21.98"/>
<polygon fill="#63b8ff" stroke="#63b8ff" points="398.04,-18.69 387.45,-18.63 395.7,-25.29 398.04,-18.69"/>
</a>
</g>
</g>
<!-- Node18&#45;&gt;Node4 -->
<g id="edge31_Node000018_Node000004" class="edge">
<title>Node18&#45;&gt;Node4</title>
<g id="a_edge31_Node000018_Node000004"><a xlink:title=" ">
<path fill="none" stroke="#63b8ff" d="M393.5,-283.6C376.6,-256.77 328.36,-180.21 305.63,-144.13"/>
<polygon fill="#63b8ff" stroke="#63b8ff" points="308.8,-142.59 300.51,-136 302.88,-146.32 308.8,-142.59"/>
</a>
</g>
</g>
<!-- Node19 -->
<g id="Node000019" class="node">
<title>Node19</title>
<g id="a_Node000019"><a xlink:href="inttypes_8h.html" target="_top" xlink:title="Adds include for missing inttype definitions.">
<polygon fill="white" stroke="#666666" points="465.88,-247.75 401.12,-247.75 401.12,-227 465.88,-227 465.88,-247.75"/>
<text text-anchor="middle" x="433.5" y="-234.25" font-family="Helvetica,sans-Serif" font-size="10.00">inttypes.h</text>
</a>
</g>
</g>
<!-- Node18&#45;&gt;Node19 -->
<g id="edge30_Node000018_Node000019" class="edge">
<title>Node18&#45;&gt;Node19</title>
<g id="a_edge30_Node000018_Node000019"><a xlink:title=" ">
<path fill="none" stroke="#63b8ff" d="M405.58,-283.34C409.98,-276.25 416.07,-266.44 421.44,-257.79"/>
<polygon fill="#63b8ff" stroke="#63b8ff" points="424.37,-259.71 426.68,-249.36 418.43,-256.01 424.37,-259.71"/>
</a>
</g>
</g>
<!-- Node20&#45;&gt;Node2 -->
<g id="edge33_Node000020_Node000002" class="edge">
<title>Node20&#45;&gt;Node2</title>
<g id="a_edge33_Node000020_Node000002"><a xlink:title=" ">
<path fill="none" stroke="#63b8ff" d="M580.34,-283.62C595.54,-265.2 629.26,-224.34 649.09,-200.3"/>
<polygon fill="#63b8ff" stroke="#63b8ff" points="651.79,-202.53 655.45,-192.59 646.39,-198.08 651.79,-202.53"/>
</a>
</g>
</g>
</g>
</svg>
