<?xml version="1.0" encoding="UTF-8" standalone="no"?>
<!DOCTYPE svg PUBLIC "-//W3C//DTD SVG 1.1//EN"
 "http://www.w3.org/Graphics/SVG/1.1/DTD/svg11.dtd">
<!-- Generated by graphviz version 12.1.1 (0)
 -->
<!-- Title: sys/include/net/gnrc/netreg.h Pages: 1 -->
<svg width="710pt" height="382pt"
 viewBox="0.00 0.00 709.82 382.00" xmlns="http://www.w3.org/2000/svg" xmlns:xlink="http://www.w3.org/1999/xlink">
<g id="graph0" class="graph" transform="scale(1 1) rotate(0) translate(4 378)">
<title>sys/include/net/gnrc/netreg.h</title>
<!-- Node1 -->
<g id="Node000001" class="node">
<title>Node1</title>
<g id="a_Node000001"><a xlink:title="Definitions to register network protocol PIDs to use with GNRC communication interface.">
<polygon fill="#999999" stroke="#666666" points="420.07,-374 306.57,-374 306.57,-340.5 420.07,-340.5 420.07,-374"/>
<text text-anchor="start" x="314.57" y="-360.5" font-family="Helvetica,sans-Serif" font-size="10.00">sys/include/net/gnrc</text>
<text text-anchor="middle" x="363.32" y="-347.75" font-family="Helvetica,sans-Serif" font-size="10.00">/netreg.h</text>
</a>
</g>
</g>
<!-- Node2 -->
<g id="Node000002" class="node">
<title>Node2</title>
<g id="a_Node000002"><a xlink:href="inttypes_8h.html" target="_top" xlink:title="Adds include for missing inttype definitions.">
<polygon fill="white" stroke="#666666" points="451.69,-191 386.94,-191 386.94,-170.25 451.69,-170.25 451.69,-191"/>
<text text-anchor="middle" x="419.32" y="-177.5" font-family="Helvetica,sans-Serif" font-size="10.00">inttypes.h</text>
</a>
</g>
</g>
<!-- Node1&#45;&gt;Node2 -->
<g id="edge1_Node000001_Node000002" class="edge">
<title>Node1&#45;&gt;Node2</title>
<g id="a_edge1_Node000001_Node000002"><a xlink:title=" ">
<path fill="none" stroke="#63b8ff" d="M368.48,-340.13C378.7,-308.26 401.49,-237.22 412.75,-202.1"/>
<polygon fill="#63b8ff" stroke="#63b8ff" points="416.03,-203.33 415.75,-192.73 409.37,-201.19 416.03,-203.33"/>
</a>
</g>
</g>
<!-- Node3 -->
<g id="Node000003" class="node">
<title>Node3</title>
<g id="a_Node000003"><a xlink:href="sched_8h.html" target="_top" xlink:title="Scheduler API definition.">
<polygon fill="white" stroke="#666666" points="216.07,-247.75 162.57,-247.75 162.57,-227 216.07,-227 216.07,-247.75"/>
<text text-anchor="middle" x="189.32" y="-234.25" font-family="Helvetica,sans-Serif" font-size="10.00">sched.h</text>
</a>
</g>
</g>
<!-- Node1&#45;&gt;Node3 -->
<g id="edge2_Node000001_Node000003" class="edge">
<title>Node1&#45;&gt;Node3</title>
<g id="a_edge2_Node000001_Node000003"><a xlink:title=" ">
<path fill="none" stroke="#63b8ff" d="M328.58,-340.05C309.6,-330.62 286.01,-317.97 266.32,-304.5 244.67,-289.7 222.18,-269.76 207.13,-255.66"/>
<polygon fill="#63b8ff" stroke="#63b8ff" points="209.95,-253.52 200.29,-249.16 205.13,-258.59 209.95,-253.52"/>
</a>
</g>
</g>
<!-- Node16 -->
<g id="Node000016" class="node">
<title>Node16</title>
<g id="a_Node000016"><a xlink:href="nettype_8h.html" target="_top" xlink:title="Protocol type definitions.">
<polygon fill="white" stroke="#666666" points="531.94,-247.75 426.69,-247.75 426.69,-227 531.94,-227 531.94,-247.75"/>
<text text-anchor="middle" x="479.32" y="-234.25" font-family="Helvetica,sans-Serif" font-size="10.00">net/gnrc/nettype.h</text>
</a>
</g>
</g>
<!-- Node1&#45;&gt;Node16 -->
<g id="edge21_Node000001_Node000016" class="edge">
<title>Node1&#45;&gt;Node16</title>
<g id="a_edge21_Node000001_Node000016"><a xlink:title=" ">
<path fill="none" stroke="#63b8ff" d="M378.96,-340.35C400.47,-318.49 439.07,-279.27 461.61,-256.36"/>
<polygon fill="#63b8ff" stroke="#63b8ff" points="464.08,-258.84 468.6,-249.26 459.09,-253.93 464.08,-258.84"/>
</a>
</g>
</g>
<!-- Node19 -->
<g id="Node000019" class="node">
<title>Node19</title>
<g id="a_Node000019"><a xlink:href="net_2gnrc_2pkt_8h.html" target="_top" xlink:title="General definitions for network packets and their helper functions.">
<polygon fill="white" stroke="#666666" points="359.07,-304.5 275.57,-304.5 275.57,-283.75 359.07,-283.75 359.07,-304.5"/>
<text text-anchor="middle" x="317.32" y="-291" font-family="Helvetica,sans-Serif" font-size="10.00">net/gnrc/pkt.h</text>
</a>
</g>
</g>
<!-- Node1&#45;&gt;Node19 -->
<g id="edge26_Node000001_Node000019" class="edge">
<title>Node1&#45;&gt;Node19</title>
<g id="a_edge26_Node000001_Node000019"><a xlink:title=" ">
<path fill="none" stroke="#63b8ff" d="M351.23,-340.19C345.18,-332.16 337.83,-322.38 331.51,-313.99"/>
<polygon fill="#63b8ff" stroke="#63b8ff" points="334.44,-312.06 325.63,-306.18 328.85,-316.27 334.44,-312.06"/>
</a>
</g>
</g>
<!-- Node3&#45;&gt;Node2 -->
<g id="edge4_Node000003_Node000002" class="edge">
<title>Node3&#45;&gt;Node2</title>
<g id="a_edge4_Node000003_Node000002"><a xlink:title=" ">
<path fill="none" stroke="#63b8ff" d="M216.15,-229.99C255.34,-220.66 328.67,-203.2 375.69,-192.01"/>
<polygon fill="#63b8ff" stroke="#63b8ff" points="376.36,-195.45 385.27,-189.73 374.73,-188.64 376.36,-195.45"/>
</a>
</g>
</g>
<!-- Node4 -->
<g id="Node000004" class="node">
<title>Node4</title>
<g id="a_Node000004"><a xlink:title=" ">
<polygon fill="#e0e0e0" stroke="#999999" points="129.82,-77.5 74.82,-77.5 74.82,-56.75 129.82,-56.75 129.82,-77.5"/>
<text text-anchor="middle" x="102.32" y="-64" font-family="Helvetica,sans-Serif" font-size="10.00">stddef.h</text>
</a>
</g>
</g>
<!-- Node3&#45;&gt;Node4 -->
<g id="edge3_Node000003_Node000004" class="edge">
<title>Node3&#45;&gt;Node4</title>
<g id="a_edge3_Node000003_Node000004"><a xlink:title=" ">
<path fill="none" stroke="#63b8ff" d="M162.16,-232.27C116.8,-223.68 28.1,-198.92 3.32,-134.25 0.01,-125.64 -1.67,-121.26 3.32,-113.5 16.62,-92.77 42.02,-81.39 63.77,-75.21"/>
<polygon fill="#63b8ff" stroke="#63b8ff" points="64.42,-78.65 73.25,-72.8 62.7,-71.87 64.42,-78.65"/>
</a>
</g>
</g>
<!-- Node5 -->
<g id="Node000005" class="node">
<title>Node5</title>
<g id="a_Node000005"><a xlink:href="kernel__defines_8h.html" target="_top" xlink:title="Common macros and compiler attributes/pragmas configuration.">
<polygon fill="white" stroke="#666666" points="368.44,-191 272.19,-191 272.19,-170.25 368.44,-170.25 368.44,-191"/>
<text text-anchor="middle" x="320.32" y="-177.5" font-family="Helvetica,sans-Serif" font-size="10.00">kernel_defines.h</text>
</a>
</g>
</g>
<!-- Node3&#45;&gt;Node5 -->
<g id="edge5_Node000003_Node000005" class="edge">
<title>Node3&#45;&gt;Node5</title>
<g id="a_edge5_Node000003_Node000005"><a xlink:title=" ">
<path fill="none" stroke="#63b8ff" d="M212.74,-226.59C233.32,-217.98 263.52,-205.36 286.69,-195.68"/>
<polygon fill="#63b8ff" stroke="#63b8ff" points="287.82,-199 295.7,-191.91 285.13,-192.54 287.82,-199"/>
</a>
</g>
</g>
<!-- Node12 -->
<g id="Node000012" class="node">
<title>Node12</title>
<g id="a_Node000012"><a xlink:href="native__sched_8h.html" target="_top" xlink:title="Add definitions required on the native board.">
<polygon fill="white" stroke="#666666" points="216.07,-191 126.57,-191 126.57,-170.25 216.07,-170.25 216.07,-191"/>
<text text-anchor="middle" x="171.32" y="-177.5" font-family="Helvetica,sans-Serif" font-size="10.00">native_sched.h</text>
</a>
</g>
</g>
<!-- Node3&#45;&gt;Node12 -->
<g id="edge16_Node000003_Node000012" class="edge">
<title>Node3&#45;&gt;Node12</title>
<g id="a_edge16_Node000003_Node000012"><a xlink:title=" ">
<path fill="none" stroke="#63b8ff" d="M186.1,-226.59C183.87,-219.81 180.82,-210.55 178.08,-202.19"/>
<polygon fill="#63b8ff" stroke="#63b8ff" points="181.43,-201.17 174.98,-192.77 174.78,-203.36 181.43,-201.17"/>
</a>
</g>
</g>
<!-- Node13 -->
<g id="Node000013" class="node">
<title>Node13</title>
<g id="a_Node000013"><a xlink:href="clist_8h.html" target="_top" xlink:title="Circular linked list.">
<polygon fill="white" stroke="#666666" points="108.94,-191 63.69,-191 63.69,-170.25 108.94,-170.25 108.94,-191"/>
<text text-anchor="middle" x="86.32" y="-177.5" font-family="Helvetica,sans-Serif" font-size="10.00">clist.h</text>
</a>
</g>
</g>
<!-- Node3&#45;&gt;Node13 -->
<g id="edge17_Node000003_Node000013" class="edge">
<title>Node3&#45;&gt;Node13</title>
<g id="a_edge17_Node000003_Node000013"><a xlink:title=" ">
<path fill="none" stroke="#63b8ff" d="M170.9,-226.59C155.23,-218.26 132.47,-206.16 114.5,-196.61"/>
<polygon fill="#63b8ff" stroke="#63b8ff" points="116.38,-193.64 105.91,-192.04 113.09,-199.82 116.38,-193.64"/>
</a>
</g>
</g>
<!-- Node6 -->
<g id="Node000006" class="node">
<title>Node6</title>
<g id="a_Node000006"><a xlink:href="modules_8h.html" target="_top" xlink:title="Common macros and compiler attributes/pragmas configuration.">
<polygon fill="white" stroke="#666666" points="508.82,-134.25 441.82,-134.25 441.82,-113.5 508.82,-113.5 508.82,-134.25"/>
<text text-anchor="middle" x="475.32" y="-120.75" font-family="Helvetica,sans-Serif" font-size="10.00">modules.h</text>
</a>
</g>
</g>
<!-- Node5&#45;&gt;Node6 -->
<g id="edge6_Node000005_Node000006" class="edge">
<title>Node5&#45;&gt;Node6</title>
<g id="a_edge6_Node000005_Node000006"><a xlink:title=" ">
<path fill="none" stroke="#63b8ff" d="M348.03,-169.84C372.75,-161.11 409.19,-148.23 436.75,-138.5"/>
<polygon fill="#63b8ff" stroke="#63b8ff" points="437.89,-141.81 446.16,-135.17 435.56,-135.21 437.89,-141.81"/>
</a>
</g>
</g>
<!-- Node7 -->
<g id="Node000007" class="node">
<title>Node7</title>
<g id="a_Node000007"><a xlink:href="riot__version_8h.html" target="_top" xlink:title="Common macros and compiler attributes/pragmas configuration.">
<polygon fill="white" stroke="#666666" points="451.69,-77.5 368.94,-77.5 368.94,-56.75 451.69,-56.75 451.69,-77.5"/>
<text text-anchor="middle" x="410.32" y="-64" font-family="Helvetica,sans-Serif" font-size="10.00">riot_version.h</text>
</a>
</g>
</g>
<!-- Node5&#45;&gt;Node7 -->
<g id="edge7_Node000005_Node000007" class="edge">
<title>Node5&#45;&gt;Node7</title>
<g id="a_edge7_Node000005_Node000007"><a xlink:title=" ">
<path fill="none" stroke="#63b8ff" d="M339.33,-169.76C353.13,-161.78 371.39,-149.39 383.32,-134.25 393.88,-120.84 400.89,-102.73 405.11,-88.85"/>
<polygon fill="#63b8ff" stroke="#63b8ff" points="408.43,-90 407.72,-79.43 401.68,-88.13 408.43,-90"/>
</a>
</g>
</g>
<!-- Node9 -->
<g id="Node000009" class="node">
<title>Node9</title>
<g id="a_Node000009"><a xlink:href="compiler__hints_8h.html" target="_top" xlink:title="Common macros and compiler attributes/pragmas configuration.">
<polygon fill="white" stroke="#666666" points="373.82,-134.25 276.82,-134.25 276.82,-113.5 373.82,-113.5 373.82,-134.25"/>
<text text-anchor="middle" x="325.32" y="-120.75" font-family="Helvetica,sans-Serif" font-size="10.00">compiler_hints.h</text>
</a>
</g>
</g>
<!-- Node5&#45;&gt;Node9 -->
<g id="edge9_Node000005_Node000009" class="edge">
<title>Node5&#45;&gt;Node9</title>
<g id="a_edge9_Node000005_Node000009"><a xlink:title=" ">
<path fill="none" stroke="#63b8ff" d="M321.21,-169.84C321.81,-163.22 322.64,-154.22 323.38,-146.02"/>
<polygon fill="#63b8ff" stroke="#63b8ff" points="326.87,-146.36 324.29,-136.09 319.9,-145.73 326.87,-146.36"/>
</a>
</g>
</g>
<!-- Node11 -->
<g id="Node000011" class="node">
<title>Node11</title>
<g id="a_Node000011"><a xlink:href="container_8h.html" target="_top" xlink:title="Common macros and compiler attributes/pragmas configuration.">
<polygon fill="white" stroke="#666666" points="258.69,-134.25 187.94,-134.25 187.94,-113.5 258.69,-113.5 258.69,-134.25"/>
<text text-anchor="middle" x="223.32" y="-120.75" font-family="Helvetica,sans-Serif" font-size="10.00">container.h</text>
</a>
</g>
</g>
<!-- Node5&#45;&gt;Node11 -->
<g id="edge13_Node000005_Node000011" class="edge">
<title>Node5&#45;&gt;Node11</title>
<g id="a_edge13_Node000005_Node000011"><a xlink:title=" ">
<path fill="none" stroke="#63b8ff" d="M302.97,-169.84C288.35,-161.58 267.18,-149.63 250.34,-140.13"/>
<polygon fill="#63b8ff" stroke="#63b8ff" points="252.25,-137.19 241.83,-135.32 248.81,-143.29 252.25,-137.19"/>
</a>
</g>
</g>
<!-- Node8 -->
<g id="Node000008" class="node">
<title>Node8</title>
<g id="a_Node000008"><a xlink:title=" ">
<polygon fill="#e0e0e0" stroke="#999999" points="321.69,-20.75 268.94,-20.75 268.94,0 321.69,0 321.69,-20.75"/>
<text text-anchor="middle" x="295.32" y="-7.25" font-family="Helvetica,sans-Serif" font-size="10.00">stdint.h</text>
</a>
</g>
</g>
<!-- Node7&#45;&gt;Node8 -->
<g id="edge8_Node000007_Node000008" class="edge">
<title>Node7&#45;&gt;Node8</title>
<g id="a_edge8_Node000007_Node000008"><a xlink:title=" ">
<path fill="none" stroke="#63b8ff" d="M389.76,-56.34C372.01,-47.89 346.13,-35.57 325.95,-25.96"/>
<polygon fill="#63b8ff" stroke="#63b8ff" points="327.6,-22.87 317.06,-21.73 324.59,-29.19 327.6,-22.87"/>
</a>
</g>
</g>
<!-- Node9&#45;&gt;Node8 -->
<g id="edge12_Node000009_Node000008" class="edge">
<title>Node9&#45;&gt;Node8</title>
<g id="a_edge12_Node000009_Node000008"><a xlink:title=" ">
<path fill="none" stroke="#63b8ff" d="M313.51,-113.09C304.4,-104.73 292.51,-91.79 287.32,-77.5 281.99,-62.86 284.49,-45.31 288.05,-31.97"/>
<polygon fill="#63b8ff" stroke="#63b8ff" points="291.35,-33.14 290.97,-22.55 284.67,-31.06 291.35,-33.14"/>
</a>
</g>
</g>
<!-- Node10 -->
<g id="Node000010" class="node">
<title>Node10</title>
<g id="a_Node000010"><a xlink:href="assert_8h.html" target="_top" xlink:title="POSIX.1&#45;2008 compliant version of the assert macro.">
<polygon fill="white" stroke="#666666" points="350.82,-77.5 295.82,-77.5 295.82,-56.75 350.82,-56.75 350.82,-77.5"/>
<text text-anchor="middle" x="323.32" y="-64" font-family="Helvetica,sans-Serif" font-size="10.00">assert.h</text>
</a>
</g>
</g>
<!-- Node9&#45;&gt;Node10 -->
<g id="edge10_Node000009_Node000010" class="edge">
<title>Node9&#45;&gt;Node10</title>
<g id="a_edge10_Node000009_Node000010"><a xlink:title=" ">
<path fill="none" stroke="#63b8ff" d="M324.96,-113.09C324.72,-106.47 324.39,-97.47 324.09,-89.27"/>
<polygon fill="#63b8ff" stroke="#63b8ff" points="327.59,-89.21 323.73,-79.34 320.59,-89.46 327.59,-89.21"/>
</a>
</g>
</g>
<!-- Node10&#45;&gt;Node8 -->
<g id="edge11_Node000010_Node000008" class="edge">
<title>Node10&#45;&gt;Node8</title>
<g id="a_edge11_Node000010_Node000008"><a xlink:title=" ">
<path fill="none" stroke="#63b8ff" d="M318.31,-56.34C314.73,-49.33 309.78,-39.66 305.39,-31.08"/>
<polygon fill="#63b8ff" stroke="#63b8ff" points="308.64,-29.74 300.97,-22.43 302.4,-32.92 308.64,-29.74"/>
</a>
</g>
</g>
<!-- Node11&#45;&gt;Node4 -->
<g id="edge14_Node000011_Node000004" class="edge">
<title>Node11&#45;&gt;Node4</title>
<g id="a_edge14_Node000011_Node000004"><a xlink:title=" ">
<path fill="none" stroke="#63b8ff" d="M201.68,-113.09C182.84,-104.56 155.28,-92.09 133.96,-82.44"/>
<polygon fill="#63b8ff" stroke="#63b8ff" points="135.69,-79.39 125.14,-78.45 132.81,-85.76 135.69,-79.39"/>
</a>
</g>
</g>
<!-- Node11&#45;&gt;Node8 -->
<g id="edge15_Node000011_Node000008" class="edge">
<title>Node11&#45;&gt;Node8</title>
<g id="a_edge15_Node000011_Node000008"><a xlink:title=" ">
<path fill="none" stroke="#63b8ff" d="M229.45,-113.37C241.24,-95.11 267.27,-54.81 282.84,-30.7"/>
<polygon fill="#63b8ff" stroke="#63b8ff" points="285.68,-32.75 288.17,-22.45 279.8,-28.95 285.68,-32.75"/>
</a>
</g>
</g>
<!-- Node13&#45;&gt;Node4 -->
<g id="edge19_Node000013_Node000004" class="edge">
<title>Node13&#45;&gt;Node4</title>
<g id="a_edge19_Node000013_Node000004"><a xlink:title=" ">
<path fill="none" stroke="#63b8ff" d="M87.68,-170.12C90.24,-152.27 95.82,-113.36 99.31,-89.09"/>
<polygon fill="#63b8ff" stroke="#63b8ff" points="102.74,-89.82 100.69,-79.42 95.81,-88.82 102.74,-89.82"/>
</a>
</g>
</g>
<!-- Node14 -->
<g id="Node000014" class="node">
<title>Node14</title>
<g id="a_Node000014"><a xlink:title=" ">
<polygon fill="#e0e0e0" stroke="#999999" points="73.82,-134.25 12.82,-134.25 12.82,-113.5 73.82,-113.5 73.82,-134.25"/>
<text text-anchor="middle" x="43.32" y="-120.75" font-family="Helvetica,sans-Serif" font-size="10.00">stdbool.h</text>
</a>
</g>
</g>
<!-- Node13&#45;&gt;Node14 -->
<g id="edge18_Node000013_Node000014" class="edge">
<title>Node13&#45;&gt;Node14</title>
<g id="a_edge18_Node000013_Node000014"><a xlink:title=" ">
<path fill="none" stroke="#63b8ff" d="M78.63,-169.84C72.88,-162.52 64.85,-152.29 57.9,-143.44"/>
<polygon fill="#63b8ff" stroke="#63b8ff" points="60.8,-141.47 51.87,-135.77 55.3,-145.8 60.8,-141.47"/>
</a>
</g>
</g>
<!-- Node15 -->
<g id="Node000015" class="node">
<title>Node15</title>
<g id="a_Node000015"><a xlink:href="list_8h.html" target="_top" xlink:title="Intrusive linked list.">
<polygon fill="white" stroke="#666666" points="170.32,-134.25 130.32,-134.25 130.32,-113.5 170.32,-113.5 170.32,-134.25"/>
<text text-anchor="middle" x="150.32" y="-120.75" font-family="Helvetica,sans-Serif" font-size="10.00">list.h</text>
</a>
</g>
</g>
<!-- Node13&#45;&gt;Node15 -->
<g id="edge20_Node000013_Node000015" class="edge">
<title>Node13&#45;&gt;Node15</title>
<g id="a_edge20_Node000013_Node000015"><a xlink:title=" ">
<path fill="none" stroke="#63b8ff" d="M97.76,-169.84C106.77,-162.13 119.55,-151.2 130.25,-142.04"/>
<polygon fill="#63b8ff" stroke="#63b8ff" points="132.5,-144.72 137.82,-135.56 127.95,-139.4 132.5,-144.72"/>
</a>
</g>
</g>
<!-- Node16&#45;&gt;Node2 -->
<g id="edge22_Node000016_Node000002" class="edge">
<title>Node16&#45;&gt;Node2</title>
<g id="a_edge22_Node000016_Node000002"><a xlink:title=" ">
<path fill="none" stroke="#63b8ff" d="M468.59,-226.59C460.23,-218.96 448.4,-208.17 438.43,-199.07"/>
<polygon fill="#63b8ff" stroke="#63b8ff" points="440.81,-196.5 431.07,-192.35 436.1,-201.67 440.81,-196.5"/>
</a>
</g>
</g>
<!-- Node16&#45;&gt;Node6 -->
<g id="edge23_Node000016_Node000006" class="edge">
<title>Node16&#45;&gt;Node6</title>
<g id="a_edge23_Node000016_Node000006"><a xlink:title=" ">
<path fill="none" stroke="#63b8ff" d="M478.97,-226.87C478.34,-209.1 476.95,-170.47 476.08,-146.18"/>
<polygon fill="#63b8ff" stroke="#63b8ff" points="479.58,-146.06 475.72,-136.19 472.58,-146.31 479.58,-146.06"/>
</a>
</g>
</g>
<!-- Node17 -->
<g id="Node000017" class="node">
<title>Node17</title>
<g id="a_Node000017"><a xlink:href="ethertype_8h.html" target="_top" xlink:title="Ether type definitions.">
<polygon fill="white" stroke="#666666" points="598.82,-191 507.82,-191 507.82,-170.25 598.82,-170.25 598.82,-191"/>
<text text-anchor="middle" x="553.32" y="-177.5" font-family="Helvetica,sans-Serif" font-size="10.00">net/ethertype.h</text>
</a>
</g>
</g>
<!-- Node16&#45;&gt;Node17 -->
<g id="edge24_Node000016_Node000017" class="edge">
<title>Node16&#45;&gt;Node17</title>
<g id="a_edge24_Node000016_Node000017"><a xlink:title=" ">
<path fill="none" stroke="#63b8ff" d="M492.55,-226.59C503.28,-218.65 518.64,-207.28 531.23,-197.96"/>
<polygon fill="#63b8ff" stroke="#63b8ff" points="533.03,-200.99 538.98,-192.23 528.86,-195.36 533.03,-200.99"/>
</a>
</g>
</g>
<!-- Node18 -->
<g id="Node000018" class="node">
<title>Node18</title>
<g id="a_Node000018"><a xlink:href="protnum_8h.html" target="_top" xlink:title="Protocol number definitions.">
<polygon fill="white" stroke="#666666" points="701.82,-191 616.82,-191 616.82,-170.25 701.82,-170.25 701.82,-191"/>
<text text-anchor="middle" x="659.32" y="-177.5" font-family="Helvetica,sans-Serif" font-size="10.00">net/protnum.h</text>
</a>
</g>
</g>
<!-- Node16&#45;&gt;Node18 -->
<g id="edge25_Node000016_Node000018" class="edge">
<title>Node16&#45;&gt;Node18</title>
<g id="a_edge25_Node000016_Node000018"><a xlink:title=" ">
<path fill="none" stroke="#63b8ff" d="M511.5,-226.59C540.71,-217.7 584.03,-204.52 616.23,-194.73"/>
<polygon fill="#63b8ff" stroke="#63b8ff" points="617.11,-198.12 625.66,-191.86 615.08,-191.42 617.11,-198.12"/>
</a>
</g>
</g>
<!-- Node19&#45;&gt;Node2 -->
<g id="edge27_Node000019_Node000002" class="edge">
<title>Node19&#45;&gt;Node2</title>
<g id="a_edge27_Node000019_Node000002"><a xlink:title=" ">
<path fill="none" stroke="#63b8ff" d="M326.01,-283.62C343.01,-265.03 380.91,-223.61 402.81,-199.66"/>
<polygon fill="#63b8ff" stroke="#63b8ff" points="405.16,-202.28 409.33,-192.54 400,-197.56 405.16,-202.28"/>
</a>
</g>
</g>
<!-- Node19&#45;&gt;Node3 -->
<g id="edge29_Node000019_Node000003" class="edge">
<title>Node19&#45;&gt;Node3</title>
<g id="a_edge29_Node000019_Node000003"><a xlink:title=" ">
<path fill="none" stroke="#63b8ff" d="M294.43,-283.34C274.41,-274.77 245.08,-262.23 222.48,-252.56"/>
<polygon fill="#63b8ff" stroke="#63b8ff" points="223.96,-249.39 213.39,-248.67 221.21,-255.82 223.96,-249.39"/>
</a>
</g>
</g>
<!-- Node19&#45;&gt;Node15 -->
<g id="edge31_Node000019_Node000015" class="edge">
<title>Node19&#45;&gt;Node15</title>
<g id="a_edge31_Node000019_Node000015"><a xlink:title=" ">
<path fill="none" stroke="#63b8ff" d="M305.91,-283.39C296.07,-274.66 281.82,-261.18 271.32,-247.75 246.63,-216.2 253.52,-198.69 225.32,-170.25 212.55,-157.38 195.43,-146.66 180.77,-138.88"/>
<polygon fill="#63b8ff" stroke="#63b8ff" points="182.48,-135.83 171.98,-134.43 179.32,-142.07 182.48,-135.83"/>
</a>
</g>
</g>
<!-- Node19&#45;&gt;Node16 -->
<g id="edge30_Node000019_Node000016" class="edge">
<title>Node19&#45;&gt;Node16</title>
<g id="a_edge30_Node000019_Node000016"><a xlink:title=" ">
<path fill="none" stroke="#63b8ff" d="M346.28,-283.34C372.34,-274.53 410.88,-261.5 439.77,-251.74"/>
<polygon fill="#63b8ff" stroke="#63b8ff" points="440.54,-255.17 448.9,-248.66 438.3,-248.54 440.54,-255.17"/>
</a>
</g>
</g>
<!-- Node20 -->
<g id="Node000020" class="node">
<title>Node20</title>
<g id="a_Node000020"><a xlink:title=" ">
<polygon fill="#e0e0e0" stroke="#999999" points="332.32,-247.75 280.32,-247.75 280.32,-227 332.32,-227 332.32,-247.75"/>
<text text-anchor="middle" x="306.32" y="-234.25" font-family="Helvetica,sans-Serif" font-size="10.00">stdlib.h</text>
</a>
</g>
</g>
<!-- Node19&#45;&gt;Node20 -->
<g id="edge28_Node000019_Node000020" class="edge">
<title>Node19&#45;&gt;Node20</title>
<g id="a_edge28_Node000019_Node000020"><a xlink:title=" ">
<path fill="none" stroke="#63b8ff" d="M315.35,-283.34C314,-276.64 312.17,-267.51 310.51,-259.23"/>
<polygon fill="#63b8ff" stroke="#63b8ff" points="313.96,-258.68 308.56,-249.56 307.1,-260.06 313.96,-258.68"/>
</a>
</g>
</g>
</g>
</svg>
