<?xml version="1.0" encoding="UTF-8" standalone="no"?>
<!DOCTYPE svg PUBLIC "-//W3C//DTD SVG 1.1//EN"
 "http://www.w3.org/Graphics/SVG/1.1/DTD/svg11.dtd">
<!-- Generated by graphviz version 12.1.1 (0)
 -->
<!-- Title: pkg/nimble/contrib/include/nimble_riot.h Pages: 1 -->
<svg width="370pt" height="269pt"
 viewBox="0.00 0.00 370.38 268.50" xmlns="http://www.w3.org/2000/svg" xmlns:xlink="http://www.w3.org/1999/xlink">
<g id="graph0" class="graph" transform="scale(1 1) rotate(0) translate(4 264.5)">
<title>pkg/nimble/contrib/include/nimble_riot.h</title>
<!-- Node1 -->
<g id="Node000001" class="node">
<title>Node1</title>
<g id="a_Node000001"><a xlink:title="RIOT specific glue functions for integrating NimBLE.">
<polygon fill="#999999" stroke="#666666" points="121.75,-260.5 0,-260.5 0,-227 121.75,-227 121.75,-260.5"/>
<text text-anchor="start" x="8" y="-247" font-family="Helvetica,sans-Serif" font-size="10.00">pkg/nimble/contrib</text>
<text text-anchor="middle" x="60.88" y="-234.25" font-family="Helvetica,sans-Serif" font-size="10.00">/include/nimble_riot.h</text>
</a>
</g>
</g>
<!-- Node2 -->
<g id="Node000002" class="node">
<title>Node2</title>
<g id="a_Node000002"><a xlink:title=" ">
<polygon fill="#e0e0e0" stroke="#999999" points="193.25,-20.75 140.5,-20.75 140.5,0 193.25,0 193.25,-20.75"/>
<text text-anchor="middle" x="166.88" y="-7.25" font-family="Helvetica,sans-Serif" font-size="10.00">stdint.h</text>
</a>
</g>
</g>
<!-- Node1&#45;&gt;Node2 -->
<g id="edge1_Node000001_Node000002" class="edge">
<title>Node1&#45;&gt;Node2</title>
<g id="a_edge1_Node000001_Node000002"><a xlink:title=" ">
<path fill="none" stroke="#63b8ff" d="M49.31,-226.67C33.33,-202.45 7.57,-155.04 17.88,-113.5 24.74,-85.81 26.51,-75.66 47.88,-56.75 70.85,-36.42 103.88,-24.8 129.31,-18.42"/>
<polygon fill="#63b8ff" stroke="#63b8ff" points="129.98,-21.86 138.93,-16.18 128.39,-15.04 129.98,-21.86"/>
</a>
</g>
</g>
<!-- Node3 -->
<g id="Node000003" class="node">
<title>Node3</title>
<g id="a_Node000003"><a xlink:href="kernel__defines_8h.html" target="_top" xlink:title="Common macros and compiler attributes/pragmas configuration.">
<polygon fill="white" stroke="#666666" points="171,-191 74.75,-191 74.75,-170.25 171,-170.25 171,-191"/>
<text text-anchor="middle" x="122.88" y="-177.5" font-family="Helvetica,sans-Serif" font-size="10.00">kernel_defines.h</text>
</a>
</g>
</g>
<!-- Node1&#45;&gt;Node3 -->
<g id="edge2_Node000001_Node000003" class="edge">
<title>Node1&#45;&gt;Node3</title>
<g id="a_edge2_Node000001_Node000003"><a xlink:title=" ">
<path fill="none" stroke="#63b8ff" d="M77.16,-226.69C85.67,-218.31 96.09,-208.03 104.84,-199.41"/>
<polygon fill="#63b8ff" stroke="#63b8ff" points="107.15,-202.04 111.81,-192.53 102.24,-197.06 107.15,-202.04"/>
</a>
</g>
</g>
<!-- Node4 -->
<g id="Node000004" class="node">
<title>Node4</title>
<g id="a_Node000004"><a xlink:href="modules_8h.html" target="_top" xlink:title="Common macros and compiler attributes/pragmas configuration.">
<polygon fill="white" stroke="#666666" points="94.38,-134.25 27.38,-134.25 27.38,-113.5 94.38,-113.5 94.38,-134.25"/>
<text text-anchor="middle" x="60.88" y="-120.75" font-family="Helvetica,sans-Serif" font-size="10.00">modules.h</text>
</a>
</g>
</g>
<!-- Node3&#45;&gt;Node4 -->
<g id="edge3_Node000003_Node000004" class="edge">
<title>Node3&#45;&gt;Node4</title>
<g id="a_edge3_Node000003_Node000004"><a xlink:title=" ">
<path fill="none" stroke="#63b8ff" d="M111.79,-169.84C103.06,-162.13 90.68,-151.2 80.31,-142.04"/>
<polygon fill="#63b8ff" stroke="#63b8ff" points="82.81,-139.58 73,-135.58 78.18,-144.82 82.81,-139.58"/>
</a>
</g>
</g>
<!-- Node5 -->
<g id="Node000005" class="node">
<title>Node5</title>
<g id="a_Node000005"><a xlink:href="riot__version_8h.html" target="_top" xlink:title="Common macros and compiler attributes/pragmas configuration.">
<polygon fill="white" stroke="#666666" points="139.25,-77.5 56.5,-77.5 56.5,-56.75 139.25,-56.75 139.25,-77.5"/>
<text text-anchor="middle" x="97.88" y="-64" font-family="Helvetica,sans-Serif" font-size="10.00">riot_version.h</text>
</a>
</g>
</g>
<!-- Node3&#45;&gt;Node5 -->
<g id="edge4_Node000003_Node000005" class="edge">
<title>Node3&#45;&gt;Node5</title>
<g id="a_edge4_Node000003_Node000005"><a xlink:title=" ">
<path fill="none" stroke="#63b8ff" d="M120.74,-170.12C116.74,-152.27 108.02,-113.36 102.58,-89.09"/>
<polygon fill="#63b8ff" stroke="#63b8ff" points="106.01,-88.39 100.4,-79.4 99.18,-89.93 106.01,-88.39"/>
</a>
</g>
</g>
<!-- Node6 -->
<g id="Node000006" class="node">
<title>Node6</title>
<g id="a_Node000006"><a xlink:href="compiler__hints_8h.html" target="_top" xlink:title="Common macros and compiler attributes/pragmas configuration.">
<polygon fill="white" stroke="#666666" points="248.38,-134.25 151.38,-134.25 151.38,-113.5 248.38,-113.5 248.38,-134.25"/>
<text text-anchor="middle" x="199.88" y="-120.75" font-family="Helvetica,sans-Serif" font-size="10.00">compiler_hints.h</text>
</a>
</g>
</g>
<!-- Node3&#45;&gt;Node6 -->
<g id="edge6_Node000003_Node000006" class="edge">
<title>Node3&#45;&gt;Node6</title>
<g id="a_edge6_Node000003_Node000006"><a xlink:title=" ">
<path fill="none" stroke="#63b8ff" d="M136.64,-169.84C147.81,-161.9 163.79,-150.53 176.9,-141.21"/>
<polygon fill="#63b8ff" stroke="#63b8ff" points="178.87,-144.1 184.99,-135.46 174.82,-138.4 178.87,-144.1"/>
</a>
</g>
</g>
<!-- Node8 -->
<g id="Node000008" class="node">
<title>Node8</title>
<g id="a_Node000008"><a xlink:href="container_8h.html" target="_top" xlink:title="Common macros and compiler attributes/pragmas configuration.">
<polygon fill="white" stroke="#666666" points="337.25,-134.25 266.5,-134.25 266.5,-113.5 337.25,-113.5 337.25,-134.25"/>
<text text-anchor="middle" x="301.88" y="-120.75" font-family="Helvetica,sans-Serif" font-size="10.00">container.h</text>
</a>
</g>
</g>
<!-- Node3&#45;&gt;Node8 -->
<g id="edge10_Node000003_Node000008" class="edge">
<title>Node3&#45;&gt;Node8</title>
<g id="a_edge10_Node000003_Node000008"><a xlink:title=" ">
<path fill="none" stroke="#63b8ff" d="M154.88,-169.84C183.93,-160.95 227.01,-147.77 259.03,-137.98"/>
<polygon fill="#63b8ff" stroke="#63b8ff" points="259.86,-141.39 268.4,-135.11 257.82,-134.69 259.86,-141.39"/>
</a>
</g>
</g>
<!-- Node5&#45;&gt;Node2 -->
<g id="edge5_Node000005_Node000002" class="edge">
<title>Node5&#45;&gt;Node2</title>
<g id="a_edge5_Node000005_Node000002"><a xlink:title=" ">
<path fill="none" stroke="#63b8ff" d="M110.21,-56.34C120.12,-48.47 134.26,-37.25 145.94,-27.99"/>
<polygon fill="#63b8ff" stroke="#63b8ff" points="147.8,-30.98 153.46,-22.02 143.45,-25.49 147.8,-30.98"/>
</a>
</g>
</g>
<!-- Node6&#45;&gt;Node2 -->
<g id="edge9_Node000006_Node000002" class="edge">
<title>Node6&#45;&gt;Node2</title>
<g id="a_edge9_Node000006_Node000002"><a xlink:title=" ">
<path fill="none" stroke="#63b8ff" d="M197.06,-113.37C191.75,-95.44 180.16,-56.25 172.98,-32.01"/>
<polygon fill="#63b8ff" stroke="#63b8ff" points="176.4,-31.22 170.21,-22.63 169.69,-33.21 176.4,-31.22"/>
</a>
</g>
</g>
<!-- Node7 -->
<g id="Node000007" class="node">
<title>Node7</title>
<g id="a_Node000007"><a xlink:href="assert_8h.html" target="_top" xlink:title="POSIX.1&#45;2008 compliant version of the assert macro.">
<polygon fill="white" stroke="#666666" points="250.38,-77.5 195.38,-77.5 195.38,-56.75 250.38,-56.75 250.38,-77.5"/>
<text text-anchor="middle" x="222.88" y="-64" font-family="Helvetica,sans-Serif" font-size="10.00">assert.h</text>
</a>
</g>
</g>
<!-- Node6&#45;&gt;Node7 -->
<g id="edge7_Node000006_Node000007" class="edge">
<title>Node6&#45;&gt;Node7</title>
<g id="a_edge7_Node000006_Node000007"><a xlink:title=" ">
<path fill="none" stroke="#63b8ff" d="M203.99,-113.09C206.87,-106.24 210.81,-96.84 214.36,-88.4"/>
<polygon fill="#63b8ff" stroke="#63b8ff" points="217.57,-89.8 218.21,-79.22 211.11,-87.09 217.57,-89.8"/>
</a>
</g>
</g>
<!-- Node7&#45;&gt;Node2 -->
<g id="edge8_Node000007_Node000002" class="edge">
<title>Node7&#45;&gt;Node2</title>
<g id="a_edge8_Node000007_Node000002"><a xlink:title=" ">
<path fill="none" stroke="#63b8ff" d="M212.86,-56.34C205.14,-48.78 194.25,-38.14 185,-29.1"/>
<polygon fill="#63b8ff" stroke="#63b8ff" points="187.48,-26.62 177.88,-22.14 182.59,-31.63 187.48,-26.62"/>
</a>
</g>
</g>
<!-- Node8&#45;&gt;Node2 -->
<g id="edge12_Node000008_Node000002" class="edge">
<title>Node8&#45;&gt;Node2</title>
<g id="a_edge12_Node000008_Node000002"><a xlink:title=" ">
<path fill="none" stroke="#63b8ff" d="M297.79,-113.17C291.48,-99.13 278.13,-73.06 259.88,-56.75 243.83,-42.41 222.43,-31.55 204.21,-24.06"/>
<polygon fill="#63b8ff" stroke="#63b8ff" points="205.62,-20.85 195.04,-20.48 203.08,-27.38 205.62,-20.85"/>
</a>
</g>
</g>
<!-- Node9 -->
<g id="Node000009" class="node">
<title>Node9</title>
<g id="a_Node000009"><a xlink:title=" ">
<polygon fill="#e0e0e0" stroke="#999999" points="362.38,-77.5 307.38,-77.5 307.38,-56.75 362.38,-56.75 362.38,-77.5"/>
<text text-anchor="middle" x="334.88" y="-64" font-family="Helvetica,sans-Serif" font-size="10.00">stddef.h</text>
</a>
</g>
</g>
<!-- Node8&#45;&gt;Node9 -->
<g id="edge11_Node000008_Node000009" class="edge">
<title>Node8&#45;&gt;Node9</title>
<g id="a_edge11_Node000008_Node000009"><a xlink:title=" ">
<path fill="none" stroke="#63b8ff" d="M307.77,-113.09C312.05,-106 317.96,-96.19 323.17,-87.54"/>
<polygon fill="#63b8ff" stroke="#63b8ff" points="326.08,-89.5 328.25,-79.12 320.09,-85.88 326.08,-89.5"/>
</a>
</g>
</g>
</g>
</svg>
