<?xml version="1.0" encoding="UTF-8" standalone="no"?>
<!DOCTYPE svg PUBLIC "-//W3C//DTD SVG 1.1//EN"
 "http://www.w3.org/Graphics/SVG/1.1/DTD/svg11.dtd">
<!-- Generated by graphviz version 12.1.1 (0)
 -->
<!-- Title: pkg/nimble/rpble/include/nimble_rpble.h Pages: 1 -->
<svg width="413pt" height="382pt"
 viewBox="0.00 0.00 412.82 382.00" xmlns="http://www.w3.org/2000/svg" xmlns:xlink="http://www.w3.org/1999/xlink">
<g id="graph0" class="graph" transform="scale(1 1) rotate(0) translate(4 378)">
<title>pkg/nimble/rpble/include/nimble_rpble.h</title>
<!-- Node1 -->
<g id="Node000001" class="node">
<title>Node1</title>
<g id="a_Node000001"><a xlink:title="Interface for the nimble_rpble module.">
<polygon fill="#999999" stroke="#666666" points="194.69,-374 57.94,-374 57.94,-340.5 194.69,-340.5 194.69,-374"/>
<text text-anchor="start" x="65.94" y="-360.5" font-family="Helvetica,sans-Serif" font-size="10.00">pkg/nimble/rpble/include</text>
<text text-anchor="middle" x="126.32" y="-347.75" font-family="Helvetica,sans-Serif" font-size="10.00">/nimble_rpble.h</text>
</a>
</g>
</g>
<!-- Node2 -->
<g id="Node000002" class="node">
<title>Node2</title>
<g id="a_Node000002"><a xlink:href="nimble__netif_8h.html" target="_top" xlink:title="GNRC netif implementation for NimBLE.">
<polygon fill="white" stroke="#666666" points="169.19,-304.5 83.44,-304.5 83.44,-283.75 169.19,-283.75 169.19,-304.5"/>
<text text-anchor="middle" x="126.32" y="-291" font-family="Helvetica,sans-Serif" font-size="10.00">nimble_netif.h</text>
</a>
</g>
</g>
<!-- Node1&#45;&gt;Node2 -->
<g id="edge1_Node000001_Node000002" class="edge">
<title>Node1&#45;&gt;Node2</title>
<g id="a_edge1_Node000001_Node000002"><a xlink:title=" ">
<path fill="none" stroke="#63b8ff" d="M126.32,-340.19C126.32,-332.85 126.32,-324.07 126.32,-316.21"/>
<polygon fill="#63b8ff" stroke="#63b8ff" points="129.82,-316.48 126.32,-306.48 122.82,-316.48 129.82,-316.48"/>
</a>
</g>
</g>
<!-- Node3 -->
<g id="Node000003" class="node">
<title>Node3</title>
<g id="a_Node000003"><a xlink:title=" ">
<polygon fill="#e0e0e0" stroke="#999999" points="200.69,-20.75 147.94,-20.75 147.94,0 200.69,0 200.69,-20.75"/>
<text text-anchor="middle" x="174.32" y="-7.25" font-family="Helvetica,sans-Serif" font-size="10.00">stdint.h</text>
</a>
</g>
</g>
<!-- Node2&#45;&gt;Node3 -->
<g id="edge2_Node000002_Node000003" class="edge">
<title>Node2&#45;&gt;Node3</title>
<g id="a_edge2_Node000002_Node000003"><a xlink:title=" ">
<path fill="none" stroke="#63b8ff" d="M83.01,-284.15C61.12,-277.53 35.77,-266.33 19.32,-247.75 -0.95,-224.86 0.32,-212.2 0.32,-181.62 0.32,-181.62 0.32,-181.62 0.32,-122.88 0.32,-58.67 85.35,-29.74 136.53,-18.15"/>
<polygon fill="#63b8ff" stroke="#63b8ff" points="136.98,-21.63 146.03,-16.12 135.52,-14.78 136.98,-21.63"/>
</a>
</g>
</g>
<!-- Node4 -->
<g id="Node000004" class="node">
<title>Node4</title>
<g id="a_Node000004"><a xlink:href="errno_8h.html" target="_top" xlink:title=" ">
<polygon fill="white" stroke="#666666" points="78.57,-247.75 28.07,-247.75 28.07,-227 78.57,-227 78.57,-247.75"/>
<text text-anchor="middle" x="53.32" y="-234.25" font-family="Helvetica,sans-Serif" font-size="10.00">errno.h</text>
</a>
</g>
</g>
<!-- Node2&#45;&gt;Node4 -->
<g id="edge3_Node000002_Node000004" class="edge">
<title>Node2&#45;&gt;Node4</title>
<g id="a_edge3_Node000002_Node000004"><a xlink:title=" ">
<path fill="none" stroke="#63b8ff" d="M113.27,-283.34C102.68,-275.4 87.52,-264.03 75.1,-254.71"/>
<polygon fill="#63b8ff" stroke="#63b8ff" points="77.57,-252.19 67.47,-248.99 73.37,-257.79 77.57,-252.19"/>
</a>
</g>
</g>
<!-- Node5 -->
<g id="Node000005" class="node">
<title>Node5</title>
<g id="a_Node000005"><a xlink:href="sys_2include_2net_2ble_8h.html" target="_top" xlink:title="General BLE values as defined by the BT standard.">
<polygon fill="white" stroke="#666666" points="155.69,-247.75 96.94,-247.75 96.94,-227 155.69,-227 155.69,-247.75"/>
<text text-anchor="middle" x="126.32" y="-234.25" font-family="Helvetica,sans-Serif" font-size="10.00">net/ble.h</text>
</a>
</g>
</g>
<!-- Node2&#45;&gt;Node5 -->
<g id="edge4_Node000002_Node000005" class="edge">
<title>Node2&#45;&gt;Node5</title>
<g id="a_edge4_Node000002_Node000005"><a xlink:title=" ">
<path fill="none" stroke="#63b8ff" d="M126.32,-283.34C126.32,-276.72 126.32,-267.72 126.32,-259.52"/>
<polygon fill="#63b8ff" stroke="#63b8ff" points="129.82,-259.59 126.32,-249.59 122.82,-259.59 129.82,-259.59"/>
</a>
</g>
</g>
<!-- Node6 -->
<g id="Node000006" class="node">
<title>Node6</title>
<g id="a_Node000006"><a xlink:href="nimble__riot_8h.html" target="_top" xlink:title="RIOT specific glue functions for integrating NimBLE.">
<polygon fill="white" stroke="#666666" points="254.57,-247.75 174.07,-247.75 174.07,-227 254.57,-227 254.57,-247.75"/>
<text text-anchor="middle" x="214.32" y="-234.25" font-family="Helvetica,sans-Serif" font-size="10.00">nimble_riot.h</text>
</a>
</g>
</g>
<!-- Node2&#45;&gt;Node6 -->
<g id="edge5_Node000002_Node000006" class="edge">
<title>Node2&#45;&gt;Node6</title>
<g id="a_edge5_Node000002_Node000006"><a xlink:title=" ">
<path fill="none" stroke="#63b8ff" d="M142.05,-283.34C155.19,-275.16 174.16,-263.36 189.37,-253.9"/>
<polygon fill="#63b8ff" stroke="#63b8ff" points="190.79,-257.13 197.44,-248.88 187.1,-251.19 190.79,-257.13"/>
</a>
</g>
</g>
<!-- Node14 -->
<g id="Node000014" class="node">
<title>Node14</title>
<g id="a_Node000014"><a xlink:title=" ">
<polygon fill="#e0e0e0" stroke="#999999" points="353.57,-247.75 273.07,-247.75 273.07,-227 353.57,-227 353.57,-247.75"/>
<text text-anchor="middle" x="313.32" y="-234.25" font-family="Helvetica,sans-Serif" font-size="10.00">host/ble_hs.h</text>
</a>
</g>
</g>
<!-- Node2&#45;&gt;Node14 -->
<g id="edge18_Node000002_Node000014" class="edge">
<title>Node2&#45;&gt;Node14</title>
<g id="a_edge18_Node000002_Node000014"><a xlink:title=" ">
<path fill="none" stroke="#63b8ff" d="M159.75,-283.34C190.24,-274.41 235.5,-261.16 268.99,-251.35"/>
<polygon fill="#63b8ff" stroke="#63b8ff" points="269.79,-254.76 278.41,-248.6 267.83,-248.05 269.79,-254.76"/>
</a>
</g>
</g>
<!-- Node6&#45;&gt;Node3 -->
<g id="edge6_Node000006_Node000003" class="edge">
<title>Node6&#45;&gt;Node3</title>
<g id="a_edge6_Node000006_Node000003"><a xlink:title=" ">
<path fill="none" stroke="#63b8ff" d="M191.52,-226.56C160.38,-211.73 105.84,-180.37 83.32,-134.25 75.39,-118.01 78.92,-73.44 90.32,-56.75 101.39,-40.54 120.19,-29.62 137.2,-22.56"/>
<polygon fill="#63b8ff" stroke="#63b8ff" points="137.96,-26.02 146.07,-19.19 135.47,-19.47 137.96,-26.02"/>
</a>
</g>
</g>
<!-- Node7 -->
<g id="Node000007" class="node">
<title>Node7</title>
<g id="a_Node000007"><a xlink:href="kernel__defines_8h.html" target="_top" xlink:title="Common macros and compiler attributes/pragmas configuration.">
<polygon fill="white" stroke="#666666" points="262.44,-191 166.19,-191 166.19,-170.25 262.44,-170.25 262.44,-191"/>
<text text-anchor="middle" x="214.32" y="-177.5" font-family="Helvetica,sans-Serif" font-size="10.00">kernel_defines.h</text>
</a>
</g>
</g>
<!-- Node6&#45;&gt;Node7 -->
<g id="edge7_Node000006_Node000007" class="edge">
<title>Node6&#45;&gt;Node7</title>
<g id="a_edge7_Node000006_Node000007"><a xlink:title=" ">
<path fill="none" stroke="#63b8ff" d="M214.32,-226.59C214.32,-219.97 214.32,-210.97 214.32,-202.77"/>
<polygon fill="#63b8ff" stroke="#63b8ff" points="217.82,-202.84 214.32,-192.84 210.82,-202.84 217.82,-202.84"/>
</a>
</g>
</g>
<!-- Node8 -->
<g id="Node000008" class="node">
<title>Node8</title>
<g id="a_Node000008"><a xlink:href="modules_8h.html" target="_top" xlink:title="Common macros and compiler attributes/pragmas configuration.">
<polygon fill="white" stroke="#666666" points="159.82,-134.25 92.82,-134.25 92.82,-113.5 159.82,-113.5 159.82,-134.25"/>
<text text-anchor="middle" x="126.32" y="-120.75" font-family="Helvetica,sans-Serif" font-size="10.00">modules.h</text>
</a>
</g>
</g>
<!-- Node7&#45;&gt;Node8 -->
<g id="edge8_Node000007_Node000008" class="edge">
<title>Node7&#45;&gt;Node8</title>
<g id="a_edge8_Node000007_Node000008"><a xlink:title=" ">
<path fill="none" stroke="#63b8ff" d="M198.59,-169.84C185.45,-161.66 166.47,-149.86 151.27,-140.4"/>
<polygon fill="#63b8ff" stroke="#63b8ff" points="153.54,-137.69 143.2,-135.38 149.84,-143.63 153.54,-137.69"/>
</a>
</g>
</g>
<!-- Node9 -->
<g id="Node000009" class="node">
<title>Node9</title>
<g id="a_Node000009"><a xlink:href="riot__version_8h.html" target="_top" xlink:title="Common macros and compiler attributes/pragmas configuration.">
<polygon fill="white" stroke="#666666" points="181.69,-77.5 98.94,-77.5 98.94,-56.75 181.69,-56.75 181.69,-77.5"/>
<text text-anchor="middle" x="140.32" y="-64" font-family="Helvetica,sans-Serif" font-size="10.00">riot_version.h</text>
</a>
</g>
</g>
<!-- Node7&#45;&gt;Node9 -->
<g id="edge9_Node000007_Node000009" class="edge">
<title>Node7&#45;&gt;Node9</title>
<g id="a_edge9_Node000007_Node000009"><a xlink:title=" ">
<path fill="none" stroke="#63b8ff" d="M208.01,-170.12C195.89,-151.86 169.15,-111.56 153.14,-87.45"/>
<polygon fill="#63b8ff" stroke="#63b8ff" points="156.11,-85.58 147.66,-79.19 150.27,-89.45 156.11,-85.58"/>
</a>
</g>
</g>
<!-- Node10 -->
<g id="Node000010" class="node">
<title>Node10</title>
<g id="a_Node000010"><a xlink:href="compiler__hints_8h.html" target="_top" xlink:title="Common macros and compiler attributes/pragmas configuration.">
<polygon fill="white" stroke="#666666" points="313.82,-134.25 216.82,-134.25 216.82,-113.5 313.82,-113.5 313.82,-134.25"/>
<text text-anchor="middle" x="265.32" y="-120.75" font-family="Helvetica,sans-Serif" font-size="10.00">compiler_hints.h</text>
</a>
</g>
</g>
<!-- Node7&#45;&gt;Node10 -->
<g id="edge11_Node000007_Node000010" class="edge">
<title>Node7&#45;&gt;Node10</title>
<g id="a_edge11_Node000007_Node000010"><a xlink:title=" ">
<path fill="none" stroke="#63b8ff" d="M223.44,-169.84C230.4,-162.36 240.19,-151.86 248.55,-142.88"/>
<polygon fill="#63b8ff" stroke="#63b8ff" points="250.99,-145.39 255.25,-135.69 245.87,-140.62 250.99,-145.39"/>
</a>
</g>
</g>
<!-- Node12 -->
<g id="Node000012" class="node">
<title>Node12</title>
<g id="a_Node000012"><a xlink:href="container_8h.html" target="_top" xlink:title="Common macros and compiler attributes/pragmas configuration.">
<polygon fill="white" stroke="#666666" points="402.69,-134.25 331.94,-134.25 331.94,-113.5 402.69,-113.5 402.69,-134.25"/>
<text text-anchor="middle" x="367.32" y="-120.75" font-family="Helvetica,sans-Serif" font-size="10.00">container.h</text>
</a>
</g>
</g>
<!-- Node7&#45;&gt;Node12 -->
<g id="edge15_Node000007_Node000012" class="edge">
<title>Node7&#45;&gt;Node12</title>
<g id="a_edge15_Node000007_Node000012"><a xlink:title=" ">
<path fill="none" stroke="#63b8ff" d="M241.67,-169.84C266.07,-161.11 302.04,-148.23 329.25,-138.5"/>
<polygon fill="#63b8ff" stroke="#63b8ff" points="330.28,-141.85 338.52,-135.18 327.92,-135.25 330.28,-141.85"/>
</a>
</g>
</g>
<!-- Node9&#45;&gt;Node3 -->
<g id="edge10_Node000009_Node000003" class="edge">
<title>Node9&#45;&gt;Node3</title>
<g id="a_edge10_Node000009_Node000003"><a xlink:title=" ">
<path fill="none" stroke="#63b8ff" d="M146.4,-56.34C150.8,-49.25 156.89,-39.44 162.26,-30.79"/>
<polygon fill="#63b8ff" stroke="#63b8ff" points="165.19,-32.71 167.49,-22.36 159.24,-29.01 165.19,-32.71"/>
</a>
</g>
</g>
<!-- Node10&#45;&gt;Node3 -->
<g id="edge14_Node000010_Node000003" class="edge">
<title>Node10&#45;&gt;Node3</title>
<g id="a_edge14_Node000010_Node000003"><a xlink:title=" ">
<path fill="none" stroke="#63b8ff" d="M257.56,-113.37C242.52,-94.95 209.18,-54.09 189.56,-30.05"/>
<polygon fill="#63b8ff" stroke="#63b8ff" points="192.31,-27.88 183.27,-22.35 186.88,-32.31 192.31,-27.88"/>
</a>
</g>
</g>
<!-- Node11 -->
<g id="Node000011" class="node">
<title>Node11</title>
<g id="a_Node000011"><a xlink:href="assert_8h.html" target="_top" xlink:title="POSIX.1&#45;2008 compliant version of the assert macro.">
<polygon fill="white" stroke="#666666" points="292.82,-77.5 237.82,-77.5 237.82,-56.75 292.82,-56.75 292.82,-77.5"/>
<text text-anchor="middle" x="265.32" y="-64" font-family="Helvetica,sans-Serif" font-size="10.00">assert.h</text>
</a>
</g>
</g>
<!-- Node10&#45;&gt;Node11 -->
<g id="edge12_Node000010_Node000011" class="edge">
<title>Node10&#45;&gt;Node11</title>
<g id="a_edge12_Node000010_Node000011"><a xlink:title=" ">
<path fill="none" stroke="#63b8ff" d="M265.32,-113.09C265.32,-106.47 265.32,-97.47 265.32,-89.27"/>
<polygon fill="#63b8ff" stroke="#63b8ff" points="268.82,-89.34 265.32,-79.34 261.82,-89.34 268.82,-89.34"/>
</a>
</g>
</g>
<!-- Node11&#45;&gt;Node3 -->
<g id="edge13_Node000011_Node000003" class="edge">
<title>Node11&#45;&gt;Node3</title>
<g id="a_edge13_Node000011_Node000003"><a xlink:title=" ">
<path fill="none" stroke="#63b8ff" d="M249.05,-56.34C235.46,-48.16 215.84,-36.36 200.12,-26.9"/>
<polygon fill="#63b8ff" stroke="#63b8ff" points="202.12,-24.02 191.74,-21.86 198.51,-30.01 202.12,-24.02"/>
</a>
</g>
</g>
<!-- Node12&#45;&gt;Node3 -->
<g id="edge17_Node000012_Node000003" class="edge">
<title>Node12&#45;&gt;Node3</title>
<g id="a_edge17_Node000012_Node000003"><a xlink:title=" ">
<path fill="none" stroke="#63b8ff" d="M360.36,-113.44C349.46,-99.27 327.03,-72.49 302.32,-56.75 274.39,-38.96 238.59,-27.03 211.95,-19.89"/>
<polygon fill="#63b8ff" stroke="#63b8ff" points="213.17,-16.59 202.61,-17.49 211.43,-23.37 213.17,-16.59"/>
</a>
</g>
</g>
<!-- Node13 -->
<g id="Node000013" class="node">
<title>Node13</title>
<g id="a_Node000013"><a xlink:title=" ">
<polygon fill="#e0e0e0" stroke="#999999" points="404.82,-77.5 349.82,-77.5 349.82,-56.75 404.82,-56.75 404.82,-77.5"/>
<text text-anchor="middle" x="377.32" y="-64" font-family="Helvetica,sans-Serif" font-size="10.00">stddef.h</text>
</a>
</g>
</g>
<!-- Node12&#45;&gt;Node13 -->
<g id="edge16_Node000012_Node000013" class="edge">
<title>Node12&#45;&gt;Node13</title>
<g id="a_edge16_Node000012_Node000013"><a xlink:title=" ">
<path fill="none" stroke="#63b8ff" d="M369.11,-113.09C370.33,-106.39 372,-97.26 373.51,-88.98"/>
<polygon fill="#63b8ff" stroke="#63b8ff" points="376.92,-89.78 375.27,-79.32 370.03,-88.53 376.92,-89.78"/>
</a>
</g>
</g>
</g>
</svg>
