<?xml version="1.0" encoding="UTF-8" standalone="no"?>
<!DOCTYPE svg PUBLIC "-//W3C//DTD SVG 1.1//EN"
 "http://www.w3.org/Graphics/SVG/1.1/DTD/svg11.dtd">
<!-- Generated by graphviz version 12.1.1 (0)
 -->
<!-- Title: drivers/include/nrf24l01p.h Pages: 1 -->
<svg width="892pt" height="369pt"
 viewBox="0.00 0.00 892.38 369.25" xmlns="http://www.w3.org/2000/svg" xmlns:xlink="http://www.w3.org/1999/xlink">
<g id="graph0" class="graph" transform="scale(1 1) rotate(0) translate(4 365.25)">
<title>drivers/include/nrf24l01p.h</title>
<!-- Node1 -->
<g id="Node000001" class="node">
<title>Node1</title>
<g id="a_Node000001"><a xlink:title=" ">
<polygon fill="#999999" stroke="#666666" points="564.25,-361.25 417.75,-361.25 417.75,-340.5 564.25,-340.5 564.25,-361.25"/>
<text text-anchor="middle" x="491" y="-347.75" font-family="Helvetica,sans-Serif" font-size="10.00">drivers/include/nrf24l01p.h</text>
</a>
</g>
</g>
<!-- Node2 -->
<g id="Node000002" class="node">
<title>Node2</title>
<g id="a_Node000002"><a xlink:title=" ">
<polygon fill="#e0e0e0" stroke="#999999" points="271.38,-20.75 218.62,-20.75 218.62,0 271.38,0 271.38,-20.75"/>
<text text-anchor="middle" x="245" y="-7.25" font-family="Helvetica,sans-Serif" font-size="10.00">stdint.h</text>
</a>
</g>
</g>
<!-- Node1&#45;&gt;Node2 -->
<g id="edge1_Node000001_Node000002" class="edge">
<title>Node1&#45;&gt;Node2</title>
<g id="a_edge1_Node000001_Node000002"><a xlink:title=" ">
<path fill="none" stroke="#63b8ff" d="M417.49,-348.31C280.52,-343.37 0,-322.95 0,-238.38 0,-238.38 0,-238.38 0,-122.88 0,-32.98 138.35,-15.22 207.12,-11.95"/>
<polygon fill="#63b8ff" stroke="#63b8ff" points="206.94,-15.46 216.8,-11.58 206.67,-8.47 206.94,-15.46"/>
</a>
</g>
</g>
<!-- Node3 -->
<g id="Node000003" class="node">
<title>Node3</title>
<g id="a_Node000003"><a xlink:href="stdio_8h.html" target="_top" xlink:title="stdio wrapper to extend the C libs stdio">
<polygon fill="white" stroke="#666666" points="445.5,-304.5 396.5,-304.5 396.5,-283.75 445.5,-283.75 445.5,-304.5"/>
<text text-anchor="middle" x="421" y="-291" font-family="Helvetica,sans-Serif" font-size="10.00">stdio.h</text>
</a>
</g>
</g>
<!-- Node1&#45;&gt;Node3 -->
<g id="edge2_Node000001_Node000003" class="edge">
<title>Node1&#45;&gt;Node3</title>
<g id="a_edge2_Node000001_Node000003"><a xlink:title=" ">
<path fill="none" stroke="#63b8ff" d="M478.49,-340.09C468.43,-332.22 454.09,-321 442.24,-311.74"/>
<polygon fill="#63b8ff" stroke="#63b8ff" points="444.63,-309.16 434.6,-305.76 440.32,-314.68 444.63,-309.16"/>
</a>
</g>
</g>
<!-- Node14 -->
<g id="Node000014" class="node">
<title>Node14</title>
<g id="a_Node000014"><a xlink:href="drivers_2include_2periph_2gpio_8h.html" target="_top" xlink:title="Low&#45;level GPIO peripheral driver interface definitions.">
<polygon fill="white" stroke="#666666" points="820.88,-77.5 741.12,-77.5 741.12,-56.75 820.88,-56.75 820.88,-77.5"/>
<text text-anchor="middle" x="781" y="-64" font-family="Helvetica,sans-Serif" font-size="10.00">periph/gpio.h</text>
</a>
</g>
</g>
<!-- Node1&#45;&gt;Node14 -->
<g id="edge18_Node000001_Node000014" class="edge">
<title>Node1&#45;&gt;Node14</title>
<g id="a_edge18_Node000001_Node000014"><a xlink:title=" ">
<path fill="none" stroke="#63b8ff" d="M563.71,-340C621.96,-327.52 694,-299.69 694,-238.38 694,-238.38 694,-238.38 694,-179.62 694,-138.69 730.89,-103.79 756.63,-84.42"/>
<polygon fill="#63b8ff" stroke="#63b8ff" points="758.55,-87.35 764.62,-78.66 754.46,-81.67 758.55,-87.35"/>
</a>
</g>
</g>
<!-- Node18 -->
<g id="Node000018" class="node">
<title>Node18</title>
<g id="a_Node000018"><a xlink:href="spi_8h.html" target="_top" xlink:title="Low&#45;level SPI peripheral driver interface definition.">
<polygon fill="white" stroke="#666666" points="578.5,-134.25 505.5,-134.25 505.5,-113.5 578.5,-113.5 578.5,-134.25"/>
<text text-anchor="middle" x="542" y="-120.75" font-family="Helvetica,sans-Serif" font-size="10.00">periph/spi.h</text>
</a>
</g>
</g>
<!-- Node1&#45;&gt;Node18 -->
<g id="edge22_Node000001_Node000018" class="edge">
<title>Node1&#45;&gt;Node18</title>
<g id="a_edge22_Node000001_Node000018"><a xlink:title=" ">
<path fill="none" stroke="#63b8ff" d="M493.19,-340.21C500.86,-306.38 526.59,-192.86 537.28,-145.69"/>
<polygon fill="#63b8ff" stroke="#63b8ff" points="540.68,-146.51 539.48,-135.98 533.86,-144.96 540.68,-146.51"/>
</a>
</g>
</g>
<!-- Node4 -->
<g id="Node000004" class="node">
<title>Node4</title>
<g id="a_Node000004"><a xlink:href="flash__utils_8h.html" target="_top" xlink:title="Utility functions, macros, and types for read&#45;only memory.">
<polygon fill="white" stroke="#666666" points="458.62,-247.75 383.38,-247.75 383.38,-227 458.62,-227 458.62,-247.75"/>
<text text-anchor="middle" x="421" y="-234.25" font-family="Helvetica,sans-Serif" font-size="10.00">flash_utils.h</text>
</a>
</g>
</g>
<!-- Node3&#45;&gt;Node4 -->
<g id="edge3_Node000003_Node000004" class="edge">
<title>Node3&#45;&gt;Node4</title>
<g id="a_edge3_Node000003_Node000004"><a xlink:title=" ">
<path fill="none" stroke="#63b8ff" d="M415.68,-283.34C414.41,-276.72 413.99,-267.72 414.41,-259.52"/>
<polygon fill="#63b8ff" stroke="#63b8ff" points="417.89,-259.91 415.53,-249.58 410.93,-259.13 417.89,-259.91"/>
</a>
</g>
</g>
<!-- Node4&#45;&gt;Node3 -->
<g id="edge4_Node000004_Node000003" class="edge">
<title>Node4&#45;&gt;Node3</title>
<g id="a_edge4_Node000004_Node000003"><a xlink:title=" ">
<path fill="none" stroke="#63b8ff" d="M426.3,-248.08C427.6,-254.75 428.02,-263.88 427.58,-272.17"/>
<polygon fill="#63b8ff" stroke="#63b8ff" points="424.14,-271.5 426.49,-281.83 431.09,-272.29 424.14,-271.5"/>
</a>
</g>
</g>
<!-- Node5 -->
<g id="Node000005" class="node">
<title>Node5</title>
<g id="a_Node000005"><a xlink:title=" ">
<polygon fill="#e0e0e0" stroke="#999999" points="408.38,-191 355.62,-191 355.62,-170.25 408.38,-170.25 408.38,-191"/>
<text text-anchor="middle" x="382" y="-177.5" font-family="Helvetica,sans-Serif" font-size="10.00">string.h</text>
</a>
</g>
</g>
<!-- Node4&#45;&gt;Node5 -->
<g id="edge5_Node000004_Node000005" class="edge">
<title>Node4&#45;&gt;Node5</title>
<g id="a_edge5_Node000004_Node000005"><a xlink:title=" ">
<path fill="none" stroke="#63b8ff" d="M414.03,-226.59C408.87,-219.35 401.68,-209.26 395.43,-200.47"/>
<polygon fill="#63b8ff" stroke="#63b8ff" points="398.44,-198.68 389.79,-192.56 392.74,-202.74 398.44,-198.68"/>
</a>
</g>
</g>
<!-- Node6 -->
<g id="Node000006" class="node">
<title>Node6</title>
<g id="a_Node000006"><a xlink:title=" ">
<polygon fill="#e0e0e0" stroke="#999999" points="493.88,-191 426.12,-191 426.12,-170.25 493.88,-170.25 493.88,-191"/>
<text text-anchor="middle" x="460" y="-177.5" font-family="Helvetica,sans-Serif" font-size="10.00">cpu_conf.h</text>
</a>
</g>
</g>
<!-- Node4&#45;&gt;Node6 -->
<g id="edge6_Node000004_Node000006" class="edge">
<title>Node4&#45;&gt;Node6</title>
<g id="a_edge6_Node000004_Node000006"><a xlink:title=" ">
<path fill="none" stroke="#63b8ff" d="M427.97,-226.59C433.13,-219.35 440.32,-209.26 446.57,-200.47"/>
<polygon fill="#63b8ff" stroke="#63b8ff" points="449.26,-202.74 452.21,-192.56 443.56,-198.68 449.26,-202.74"/>
</a>
</g>
</g>
<!-- Node7 -->
<g id="Node000007" class="node">
<title>Node7</title>
<g id="a_Node000007"><a xlink:href="kernel__defines_8h.html" target="_top" xlink:title="Common macros and compiler attributes/pragmas configuration.">
<polygon fill="white" stroke="#666666" points="310.12,-191 213.88,-191 213.88,-170.25 310.12,-170.25 310.12,-191"/>
<text text-anchor="middle" x="262" y="-177.5" font-family="Helvetica,sans-Serif" font-size="10.00">kernel_defines.h</text>
</a>
</g>
</g>
<!-- Node4&#45;&gt;Node7 -->
<g id="edge7_Node000004_Node000007" class="edge">
<title>Node4&#45;&gt;Node7</title>
<g id="a_edge7_Node000004_Node000007"><a xlink:title=" ">
<path fill="none" stroke="#63b8ff" d="M392.57,-226.59C367.1,-217.82 329.5,-204.87 301.18,-195.12"/>
<polygon fill="#63b8ff" stroke="#63b8ff" points="302.47,-191.86 291.88,-191.91 300.19,-198.48 302.47,-191.86"/>
</a>
</g>
</g>
<!-- Node8 -->
<g id="Node000008" class="node">
<title>Node8</title>
<g id="a_Node000008"><a xlink:href="modules_8h.html" target="_top" xlink:title="Common macros and compiler attributes/pragmas configuration.">
<polygon fill="white" stroke="#666666" points="195.5,-134.25 128.5,-134.25 128.5,-113.5 195.5,-113.5 195.5,-134.25"/>
<text text-anchor="middle" x="162" y="-120.75" font-family="Helvetica,sans-Serif" font-size="10.00">modules.h</text>
</a>
</g>
</g>
<!-- Node7&#45;&gt;Node8 -->
<g id="edge8_Node000007_Node000008" class="edge">
<title>Node7&#45;&gt;Node8</title>
<g id="a_edge8_Node000007_Node000008"><a xlink:title=" ">
<path fill="none" stroke="#63b8ff" d="M244.12,-169.84C228.91,-161.51 206.81,-149.41 189.37,-139.86"/>
<polygon fill="#63b8ff" stroke="#63b8ff" points="191.5,-137.04 181.05,-135.31 188.14,-143.18 191.5,-137.04"/>
</a>
</g>
</g>
<!-- Node9 -->
<g id="Node000009" class="node">
<title>Node9</title>
<g id="a_Node000009"><a xlink:href="riot__version_8h.html" target="_top" xlink:title="Common macros and compiler attributes/pragmas configuration.">
<polygon fill="white" stroke="#666666" points="110.38,-134.25 27.62,-134.25 27.62,-113.5 110.38,-113.5 110.38,-134.25"/>
<text text-anchor="middle" x="69" y="-120.75" font-family="Helvetica,sans-Serif" font-size="10.00">riot_version.h</text>
</a>
</g>
</g>
<!-- Node7&#45;&gt;Node9 -->
<g id="edge9_Node000007_Node000009" class="edge">
<title>Node7&#45;&gt;Node9</title>
<g id="a_edge9_Node000007_Node000009"><a xlink:title=" ">
<path fill="none" stroke="#63b8ff" d="M227.5,-169.84C195.89,-160.87 148.91,-147.54 114.3,-137.73"/>
<polygon fill="#63b8ff" stroke="#63b8ff" points="115.56,-134.45 104.99,-135.08 113.65,-141.18 115.56,-134.45"/>
</a>
</g>
</g>
<!-- Node10 -->
<g id="Node000010" class="node">
<title>Node10</title>
<g id="a_Node000010"><a xlink:href="compiler__hints_8h.html" target="_top" xlink:title="Common macros and compiler attributes/pragmas configuration.">
<polygon fill="white" stroke="#666666" points="310.5,-134.25 213.5,-134.25 213.5,-113.5 310.5,-113.5 310.5,-134.25"/>
<text text-anchor="middle" x="262" y="-120.75" font-family="Helvetica,sans-Serif" font-size="10.00">compiler_hints.h</text>
</a>
</g>
</g>
<!-- Node7&#45;&gt;Node10 -->
<g id="edge11_Node000007_Node000010" class="edge">
<title>Node7&#45;&gt;Node10</title>
<g id="a_edge11_Node000007_Node000010"><a xlink:title=" ">
<path fill="none" stroke="#63b8ff" d="M262,-169.84C262,-163.22 262,-154.22 262,-146.02"/>
<polygon fill="#63b8ff" stroke="#63b8ff" points="265.5,-146.09 262,-136.09 258.5,-146.09 265.5,-146.09"/>
</a>
</g>
</g>
<!-- Node12 -->
<g id="Node000012" class="node">
<title>Node12</title>
<g id="a_Node000012"><a xlink:href="container_8h.html" target="_top" xlink:title="Common macros and compiler attributes/pragmas configuration.">
<polygon fill="white" stroke="#666666" points="399.38,-134.25 328.62,-134.25 328.62,-113.5 399.38,-113.5 399.38,-134.25"/>
<text text-anchor="middle" x="364" y="-120.75" font-family="Helvetica,sans-Serif" font-size="10.00">container.h</text>
</a>
</g>
</g>
<!-- Node7&#45;&gt;Node12 -->
<g id="edge15_Node000007_Node000012" class="edge">
<title>Node7&#45;&gt;Node12</title>
<g id="a_edge15_Node000007_Node000012"><a xlink:title=" ">
<path fill="none" stroke="#63b8ff" d="M280.24,-169.84C295.68,-161.55 318.09,-149.52 335.84,-139.99"/>
<polygon fill="#63b8ff" stroke="#63b8ff" points="337.43,-143.11 344.59,-135.29 334.12,-136.94 337.43,-143.11"/>
</a>
</g>
</g>
<!-- Node9&#45;&gt;Node2 -->
<g id="edge10_Node000009_Node000002" class="edge">
<title>Node9&#45;&gt;Node2</title>
<g id="a_edge10_Node000009_Node000002"><a xlink:title=" ">
<path fill="none" stroke="#63b8ff" d="M84.31,-113.18C114.74,-93.9 183.05,-50.62 220.05,-27.18"/>
<polygon fill="#63b8ff" stroke="#63b8ff" points="221.75,-30.25 228.32,-21.94 218,-24.34 221.75,-30.25"/>
</a>
</g>
</g>
<!-- Node10&#45;&gt;Node2 -->
<g id="edge14_Node000010_Node000002" class="edge">
<title>Node10&#45;&gt;Node2</title>
<g id="a_edge14_Node000010_Node000002"><a xlink:title=" ">
<path fill="none" stroke="#63b8ff" d="M243.51,-113.11C230.93,-105.33 215.29,-93.15 208,-77.5 200.07,-60.48 212.49,-41.88 225.02,-28.76"/>
<polygon fill="#63b8ff" stroke="#63b8ff" points="227.21,-31.51 231.98,-22.05 222.35,-26.47 227.21,-31.51"/>
</a>
</g>
</g>
<!-- Node11 -->
<g id="Node000011" class="node">
<title>Node11</title>
<g id="a_Node000011"><a xlink:href="assert_8h.html" target="_top" xlink:title="POSIX.1&#45;2008 compliant version of the assert macro.">
<polygon fill="white" stroke="#666666" points="272.5,-77.5 217.5,-77.5 217.5,-56.75 272.5,-56.75 272.5,-77.5"/>
<text text-anchor="middle" x="245" y="-64" font-family="Helvetica,sans-Serif" font-size="10.00">assert.h</text>
</a>
</g>
</g>
<!-- Node10&#45;&gt;Node11 -->
<g id="edge12_Node000010_Node000011" class="edge">
<title>Node10&#45;&gt;Node11</title>
<g id="a_edge12_Node000010_Node000011"><a xlink:title=" ">
<path fill="none" stroke="#63b8ff" d="M258.96,-113.09C256.86,-106.31 253.98,-97.05 251.39,-88.69"/>
<polygon fill="#63b8ff" stroke="#63b8ff" points="254.77,-87.79 248.46,-79.27 248.08,-89.86 254.77,-87.79"/>
</a>
</g>
</g>
<!-- Node11&#45;&gt;Node2 -->
<g id="edge13_Node000011_Node000002" class="edge">
<title>Node11&#45;&gt;Node2</title>
<g id="a_edge13_Node000011_Node000002"><a xlink:title=" ">
<path fill="none" stroke="#63b8ff" d="M245,-56.34C245,-49.72 245,-40.72 245,-32.52"/>
<polygon fill="#63b8ff" stroke="#63b8ff" points="248.5,-32.59 245,-22.59 241.5,-32.59 248.5,-32.59"/>
</a>
</g>
</g>
<!-- Node12&#45;&gt;Node2 -->
<g id="edge17_Node000012_Node000002" class="edge">
<title>Node12&#45;&gt;Node2</title>
<g id="a_edge17_Node000012_Node000002"><a xlink:title=" ">
<path fill="none" stroke="#63b8ff" d="M353.85,-113.37C333.84,-94.62 289.03,-52.63 263.58,-28.78"/>
<polygon fill="#63b8ff" stroke="#63b8ff" points="266.25,-26.49 256.56,-22.21 261.47,-31.6 266.25,-26.49"/>
</a>
</g>
</g>
<!-- Node13 -->
<g id="Node000013" class="node">
<title>Node13</title>
<g id="a_Node000013"><a xlink:title=" ">
<polygon fill="#e0e0e0" stroke="#999999" points="384.5,-77.5 329.5,-77.5 329.5,-56.75 384.5,-56.75 384.5,-77.5"/>
<text text-anchor="middle" x="357" y="-64" font-family="Helvetica,sans-Serif" font-size="10.00">stddef.h</text>
</a>
</g>
</g>
<!-- Node12&#45;&gt;Node13 -->
<g id="edge16_Node000012_Node000013" class="edge">
<title>Node12&#45;&gt;Node13</title>
<g id="a_edge16_Node000012_Node000013"><a xlink:title=" ">
<path fill="none" stroke="#63b8ff" d="M362.75,-113.09C361.89,-106.39 360.73,-97.26 359.67,-88.98"/>
<polygon fill="#63b8ff" stroke="#63b8ff" points="363.17,-88.81 358.43,-79.33 356.23,-89.69 363.17,-88.81"/>
</a>
</g>
</g>
<!-- Node15 -->
<g id="Node000015" class="node">
<title>Node15</title>
<g id="a_Node000015"><a xlink:title=" ">
<polygon fill="#e0e0e0" stroke="#999999" points="884.38,-20.75 831.62,-20.75 831.62,0 884.38,0 884.38,-20.75"/>
<text text-anchor="middle" x="858" y="-7.25" font-family="Helvetica,sans-Serif" font-size="10.00">limits.h</text>
</a>
</g>
</g>
<!-- Node14&#45;&gt;Node15 -->
<g id="edge19_Node000014_Node000015" class="edge">
<title>Node14&#45;&gt;Node15</title>
<g id="a_edge19_Node000014_Node000015"><a xlink:title=" ">
<path fill="none" stroke="#63b8ff" d="M794.77,-56.34C805.93,-48.4 821.92,-37.03 835.02,-27.71"/>
<polygon fill="#63b8ff" stroke="#63b8ff" points="837,-30.6 843.12,-21.96 832.94,-24.9 837,-30.6"/>
</a>
</g>
</g>
<!-- Node16 -->
<g id="Node000016" class="node">
<title>Node16</title>
<g id="a_Node000016"><a xlink:title=" ">
<polygon fill="#e0e0e0" stroke="#999999" points="714.12,-20.75 635.88,-20.75 635.88,0 714.12,0 714.12,-20.75"/>
<text text-anchor="middle" x="675" y="-7.25" font-family="Helvetica,sans-Serif" font-size="10.00">periph_cpu.h</text>
</a>
</g>
</g>
<!-- Node14&#45;&gt;Node16 -->
<g id="edge20_Node000014_Node000016" class="edge">
<title>Node14&#45;&gt;Node16</title>
<g id="a_edge20_Node000014_Node000016"><a xlink:title=" ">
<path fill="none" stroke="#63b8ff" d="M762.05,-56.34C745.92,-48.01 722.5,-35.91 704.01,-26.36"/>
<polygon fill="#63b8ff" stroke="#63b8ff" points="705.62,-23.25 695.13,-21.77 702.41,-29.47 705.62,-23.25"/>
</a>
</g>
</g>
<!-- Node17 -->
<g id="Node000017" class="node">
<title>Node17</title>
<g id="a_Node000017"><a xlink:title=" ">
<polygon fill="#e0e0e0" stroke="#999999" points="813.62,-20.75 732.38,-20.75 732.38,0 813.62,0 813.62,-20.75"/>
<text text-anchor="middle" x="773" y="-7.25" font-family="Helvetica,sans-Serif" font-size="10.00">periph_conf.h</text>
</a>
</g>
</g>
<!-- Node14&#45;&gt;Node17 -->
<g id="edge21_Node000014_Node000017" class="edge">
<title>Node14&#45;&gt;Node17</title>
<g id="a_edge21_Node000014_Node000017"><a xlink:title=" ">
<path fill="none" stroke="#63b8ff" d="M779.57,-56.34C778.59,-49.64 777.26,-40.51 776.05,-32.23"/>
<polygon fill="#63b8ff" stroke="#63b8ff" points="779.55,-31.96 774.64,-22.58 772.62,-32.98 779.55,-31.96"/>
</a>
</g>
</g>
<!-- Node18&#45;&gt;Node2 -->
<g id="edge28_Node000018_Node000002" class="edge">
<title>Node18&#45;&gt;Node2</title>
<g id="a_edge28_Node000018_Node000002"><a xlink:title=" ">
<path fill="none" stroke="#63b8ff" d="M515.87,-113.02C493.36,-104.31 460.15,-90.94 432,-77.5 414.64,-69.21 411.74,-64.2 394,-56.75 357.19,-41.29 313.28,-28.57 282.7,-20.57"/>
<polygon fill="#63b8ff" stroke="#63b8ff" points="283.7,-17.21 273.15,-18.12 281.96,-23.99 283.7,-17.21"/>
</a>
</g>
</g>
<!-- Node18&#45;&gt;Node13 -->
<g id="edge27_Node000018_Node000013" class="edge">
<title>Node18&#45;&gt;Node13</title>
<g id="a_edge27_Node000018_Node000013"><a xlink:title=" ">
<path fill="none" stroke="#63b8ff" d="M508.93,-113.09C477.18,-103.69 429.23,-89.5 395.72,-79.58"/>
<polygon fill="#63b8ff" stroke="#63b8ff" points="396.99,-76.31 386.4,-76.83 395,-83.02 396.99,-76.31"/>
</a>
</g>
</g>
<!-- Node18&#45;&gt;Node14 -->
<g id="edge31_Node000018_Node000014" class="edge">
<title>Node18&#45;&gt;Node14</title>
<g id="a_edge31_Node000018_Node000014"><a xlink:title=" ">
<path fill="none" stroke="#63b8ff" d="M578.82,-114.44C619.26,-105.18 684.47,-90.24 729.86,-79.84"/>
<polygon fill="#63b8ff" stroke="#63b8ff" points="730.5,-83.28 739.47,-77.64 728.94,-76.46 730.5,-83.28"/>
</a>
</g>
</g>
<!-- Node18&#45;&gt;Node16 -->
<g id="edge29_Node000018_Node000016" class="edge">
<title>Node18&#45;&gt;Node16</title>
<g id="a_edge29_Node000018_Node000016"><a xlink:title=" ">
<path fill="none" stroke="#63b8ff" d="M578.95,-116.92C603.99,-111.02 636.05,-99.53 656,-77.5 667.16,-65.17 671.8,-46.7 673.71,-32.41"/>
<polygon fill="#63b8ff" stroke="#63b8ff" points="677.18,-32.98 674.64,-22.69 670.21,-32.31 677.18,-32.98"/>
</a>
</g>
</g>
<!-- Node18&#45;&gt;Node17 -->
<g id="edge30_Node000018_Node000017" class="edge">
<title>Node18&#45;&gt;Node17</title>
<g id="a_edge30_Node000018_Node000017"><a xlink:title=" ">
<path fill="none" stroke="#63b8ff" d="M578.9,-113.32C606.44,-105.49 644.57,-93.17 676,-77.5 703.96,-63.56 733.21,-42.61 752.19,-28.04"/>
<polygon fill="#63b8ff" stroke="#63b8ff" points="754.19,-30.92 759.92,-22 749.88,-25.4 754.19,-30.92"/>
</a>
</g>
</g>
<!-- Node19 -->
<g id="Node000019" class="node">
<title>Node19</title>
<g id="a_Node000019"><a xlink:href="endian_8h.html" target="_top" xlink:title="libc header for endian conversion">
<polygon fill="white" stroke="#666666" points="499,-77.5 441,-77.5 441,-56.75 499,-56.75 499,-77.5"/>
<text text-anchor="middle" x="470" y="-64" font-family="Helvetica,sans-Serif" font-size="10.00">endian.h</text>
</a>
</g>
</g>
<!-- Node18&#45;&gt;Node19 -->
<g id="edge23_Node000018_Node000019" class="edge">
<title>Node18&#45;&gt;Node19</title>
<g id="a_edge23_Node000018_Node000019"><a xlink:title=" ">
<path fill="none" stroke="#63b8ff" d="M529.13,-113.09C518.79,-105.22 504.03,-94 491.85,-84.74"/>
<polygon fill="#63b8ff" stroke="#63b8ff" points="494.04,-82.01 483.97,-78.74 489.81,-87.58 494.04,-82.01"/>
</a>
</g>
</g>
<!-- Node20 -->
<g id="Node000020" class="node">
<title>Node20</title>
<g id="a_Node000020"><a xlink:href="errno_8h.html" target="_top" xlink:title=" ">
<polygon fill="white" stroke="#666666" points="567.25,-77.5 516.75,-77.5 516.75,-56.75 567.25,-56.75 567.25,-77.5"/>
<text text-anchor="middle" x="542" y="-64" font-family="Helvetica,sans-Serif" font-size="10.00">errno.h</text>
</a>
</g>
</g>
<!-- Node18&#45;&gt;Node20 -->
<g id="edge25_Node000018_Node000020" class="edge">
<title>Node18&#45;&gt;Node20</title>
<g id="a_edge25_Node000018_Node000020"><a xlink:title=" ">
<path fill="none" stroke="#63b8ff" d="M542,-113.09C542,-106.47 542,-97.47 542,-89.27"/>
<polygon fill="#63b8ff" stroke="#63b8ff" points="545.5,-89.34 542,-79.34 538.5,-89.34 545.5,-89.34"/>
</a>
</g>
</g>
<!-- Node21 -->
<g id="Node000021" class="node">
<title>Node21</title>
<g id="a_Node000021"><a xlink:title=" ">
<polygon fill="#e0e0e0" stroke="#999999" points="646.5,-77.5 585.5,-77.5 585.5,-56.75 646.5,-56.75 646.5,-77.5"/>
<text text-anchor="middle" x="616" y="-64" font-family="Helvetica,sans-Serif" font-size="10.00">stdbool.h</text>
</a>
</g>
</g>
<!-- Node18&#45;&gt;Node21 -->
<g id="edge26_Node000018_Node000021" class="edge">
<title>Node18&#45;&gt;Node21</title>
<g id="a_edge26_Node000018_Node000021"><a xlink:title=" ">
<path fill="none" stroke="#63b8ff" d="M555.23,-113.09C565.96,-105.15 581.32,-93.78 593.92,-84.46"/>
<polygon fill="#63b8ff" stroke="#63b8ff" points="595.71,-87.49 601.67,-78.73 591.55,-81.86 595.71,-87.49"/>
</a>
</g>
</g>
<!-- Node19&#45;&gt;Node2 -->
<g id="edge24_Node000019_Node000002" class="edge">
<title>Node19&#45;&gt;Node2</title>
<g id="a_edge24_Node000019_Node000002"><a xlink:title=" ">
<path fill="none" stroke="#63b8ff" d="M440.59,-58.97C400.04,-49.1 326.97,-31.32 282.53,-20.51"/>
<polygon fill="#63b8ff" stroke="#63b8ff" points="283.63,-17.17 273.09,-18.21 281.98,-23.97 283.63,-17.17"/>
</a>
</g>
</g>
</g>
</svg>
