<?xml version="1.0" encoding="UTF-8" standalone="no"?>
<!DOCTYPE svg PUBLIC "-//W3C//DTD SVG 1.1//EN"
 "http://www.w3.org/Graphics/SVG/1.1/DTD/svg11.dtd">
<!-- Generated by graphviz version 12.1.1 (0)
 -->
<!-- Title: drivers/nrf24l01p_ng/include/nrf24l01p_ng_registers.h Pages: 1 -->
<svg width="1096pt" height="452pt"
 viewBox="0.00 0.00 1096.03 451.50" xmlns="http://www.w3.org/2000/svg" xmlns:xlink="http://www.w3.org/1999/xlink">
<g id="graph0" class="graph" transform="scale(1 1) rotate(0) translate(4 447.5)">
<title>drivers/nrf24l01p_ng/include/nrf24l01p_ng_registers.h</title>
<!-- Node1 -->
<g id="Node000001" class="node">
<title>Node1</title>
<g id="a_Node000001"><a xlink:title="Register map of NRF24L01+ (NG) devices.">
<polygon fill="#999999" stroke="#666666" points="394.5,-443.5 273.5,-443.5 273.5,-397.25 394.5,-397.25 394.5,-443.5"/>
<text text-anchor="start" x="281.5" y="-430" font-family="Helvetica,sans-Serif" font-size="10.00">drivers/nrf24l01p_ng</text>
<text text-anchor="start" x="281.5" y="-417.25" font-family="Helvetica,sans-Serif" font-size="10.00">/include/nrf24l01p_ng</text>
<text text-anchor="middle" x="334" y="-404.5" font-family="Helvetica,sans-Serif" font-size="10.00">_registers.h</text>
</a>
</g>
</g>
<!-- Node2 -->
<g id="Node000002" class="node">
<title>Node2</title>
<g id="a_Node000002"><a xlink:title=" ">
<polygon fill="#e0e0e0" stroke="#999999" points="352.38,-20.75 299.62,-20.75 299.62,0 352.38,0 352.38,-20.75"/>
<text text-anchor="middle" x="326" y="-7.25" font-family="Helvetica,sans-Serif" font-size="10.00">stdint.h</text>
</a>
</g>
</g>
<!-- Node1&#45;&gt;Node2 -->
<g id="edge1_Node000001_Node000002" class="edge">
<title>Node1&#45;&gt;Node2</title>
<g id="a_edge1_Node000001_Node000002"><a xlink:title=" ">
<path fill="none" stroke="#63b8ff" d="M273.13,-409.56C176.79,-392.29 0,-352.74 0,-295.12 0,-295.12 0,-295.12 0,-122.88 0,-88.06 12.91,-75.88 42,-56.75 81.85,-30.55 220.37,-18.18 288.11,-13.6"/>
<polygon fill="#63b8ff" stroke="#63b8ff" points="288.25,-17.09 298,-12.95 287.79,-10.11 288.25,-17.09"/>
</a>
</g>
</g>
<!-- Node3 -->
<g id="Node000003" class="node">
<title>Node3</title>
<g id="a_Node000003"><a xlink:href="nrf24l01p__ng_8h.html" target="_top" xlink:title="Public interface for NRF24L01+ (NG) devices.">
<polygon fill="white" stroke="#666666" points="491.38,-304.5 402.62,-304.5 402.62,-283.75 491.38,-283.75 491.38,-304.5"/>
<text text-anchor="middle" x="447" y="-291" font-family="Helvetica,sans-Serif" font-size="10.00">nrf24l01p_ng.h</text>
</a>
</g>
</g>
<!-- Node1&#45;&gt;Node3 -->
<g id="edge2_Node000001_Node000003" class="edge">
<title>Node1&#45;&gt;Node3</title>
<g id="a_edge2_Node000001_Node000003"><a xlink:title=" ">
<path fill="none" stroke="#63b8ff" d="M385.22,-396.85C400.88,-387.78 416.88,-375.93 428,-361.25 437.94,-348.13 442.69,-329.97 444.95,-316"/>
<polygon fill="#63b8ff" stroke="#63b8ff" points="448.41,-316.48 446.21,-306.12 441.47,-315.59 448.41,-316.48"/>
</a>
</g>
</g>
<!-- Node30 -->
<g id="Node000030" class="node">
<title>Node30</title>
<g id="a_Node000030"><a xlink:href="nrf24l01p__ng__communication_8h.html" target="_top" xlink:title="Functions to communicate with the NRF24L01+ (NG) transceiver via SPI.">
<polygon fill="white" stroke="#666666" points="418.88,-361.25 249.12,-361.25 249.12,-340.5 418.88,-340.5 418.88,-361.25"/>
<text text-anchor="middle" x="334" y="-347.75" font-family="Helvetica,sans-Serif" font-size="10.00">nrf24l01p_ng_communication.h</text>
</a>
</g>
</g>
<!-- Node1&#45;&gt;Node30 -->
<g id="edge51_Node000001_Node000030" class="edge">
<title>Node1&#45;&gt;Node30</title>
<g id="a_edge51_Node000001_Node000030"><a xlink:title=" ">
<path fill="none" stroke="#63b8ff" d="M334,-396.9C334,-389.23 334,-380.69 334,-373.13"/>
<polygon fill="#63b8ff" stroke="#63b8ff" points="337.5,-373.15 334,-363.15 330.5,-373.15 337.5,-373.15"/>
</a>
</g>
</g>
<!-- Node3&#45;&gt;Node2 -->
<g id="edge3_Node000003_Node000002" class="edge">
<title>Node3&#45;&gt;Node2</title>
<g id="a_edge3_Node000003_Node000002"><a xlink:title=" ">
<path fill="none" stroke="#63b8ff" d="M412.89,-283.29C373.06,-269.77 309.06,-241.21 281,-191 251.15,-137.59 290.55,-64.32 312.74,-30.24"/>
<polygon fill="#63b8ff" stroke="#63b8ff" points="315.44,-32.49 318.13,-22.24 309.64,-28.57 315.44,-32.49"/>
</a>
</g>
</g>
<!-- Node4 -->
<g id="Node000004" class="node">
<title>Node4</title>
<g id="a_Node000004"><a xlink:title=" ">
<polygon fill="#e0e0e0" stroke="#999999" points="556.38,-247.75 503.62,-247.75 503.62,-227 556.38,-227 556.38,-247.75"/>
<text text-anchor="middle" x="530" y="-234.25" font-family="Helvetica,sans-Serif" font-size="10.00">board.h</text>
</a>
</g>
</g>
<!-- Node3&#45;&gt;Node4 -->
<g id="edge4_Node000003_Node000004" class="edge">
<title>Node3&#45;&gt;Node4</title>
<g id="a_edge4_Node000003_Node000004"><a xlink:title=" ">
<path fill="none" stroke="#63b8ff" d="M461.84,-283.34C474.11,-275.24 491.79,-263.58 506.06,-254.17"/>
<polygon fill="#63b8ff" stroke="#63b8ff" points="507.61,-257.34 514.03,-248.91 503.75,-251.5 507.61,-257.34"/>
</a>
</g>
</g>
<!-- Node5 -->
<g id="Node000005" class="node">
<title>Node5</title>
<g id="a_Node000005"><a xlink:href="kernel__defines_8h.html" target="_top" xlink:title="Common macros and compiler attributes/pragmas configuration.">
<polygon fill="white" stroke="#666666" points="386.12,-191 289.88,-191 289.88,-170.25 386.12,-170.25 386.12,-191"/>
<text text-anchor="middle" x="338" y="-177.5" font-family="Helvetica,sans-Serif" font-size="10.00">kernel_defines.h</text>
</a>
</g>
</g>
<!-- Node3&#45;&gt;Node5 -->
<g id="edge5_Node000003_Node000005" class="edge">
<title>Node3&#45;&gt;Node5</title>
<g id="a_edge5_Node000003_Node000005"><a xlink:title=" ">
<path fill="none" stroke="#63b8ff" d="M436.77,-283.53C427.16,-274.44 412.42,-260.35 400,-247.75 384.2,-231.72 366.71,-212.97 354.34,-199.53"/>
<polygon fill="#63b8ff" stroke="#63b8ff" points="357.05,-197.3 347.71,-192.3 351.89,-202.03 357.05,-197.3"/>
</a>
</g>
</g>
<!-- Node12 -->
<g id="Node000012" class="node">
<title>Node12</title>
<g id="a_Node000012"><a xlink:href="nettype_8h.html" target="_top" xlink:title="Protocol type definitions.">
<polygon fill="white" stroke="#666666" points="856.62,-247.75 751.38,-247.75 751.38,-227 856.62,-227 856.62,-247.75"/>
<text text-anchor="middle" x="804" y="-234.25" font-family="Helvetica,sans-Serif" font-size="10.00">net/gnrc/nettype.h</text>
</a>
</g>
</g>
<!-- Node3&#45;&gt;Node12 -->
<g id="edge16_Node000003_Node000012" class="edge">
<title>Node3&#45;&gt;Node12</title>
<g id="a_edge16_Node000003_Node000012"><a xlink:title=" ">
<path fill="none" stroke="#63b8ff" d="M491.85,-286.25C554.42,-276.65 668.26,-259.19 739.81,-248.22"/>
<polygon fill="#63b8ff" stroke="#63b8ff" points="740.07,-251.72 749.42,-246.75 739,-244.8 740.07,-251.72"/>
</a>
</g>
</g>
<!-- Node16 -->
<g id="Node000016" class="node">
<title>Node16</title>
<g id="a_Node000016"><a xlink:href="drivers_2include_2net_2netdev_8h.html" target="_top" xlink:title="Definitions low&#45;level network driver interface.">
<polygon fill="white" stroke="#666666" points="485.38,-247.75 408.62,-247.75 408.62,-227 485.38,-227 485.38,-247.75"/>
<text text-anchor="middle" x="447" y="-234.25" font-family="Helvetica,sans-Serif" font-size="10.00">net/netdev.h</text>
</a>
</g>
</g>
<!-- Node3&#45;&gt;Node16 -->
<g id="edge21_Node000003_Node000016" class="edge">
<title>Node3&#45;&gt;Node16</title>
<g id="a_edge21_Node000003_Node000016"><a xlink:title=" ">
<path fill="none" stroke="#63b8ff" d="M447,-283.34C447,-276.72 447,-267.72 447,-259.52"/>
<polygon fill="#63b8ff" stroke="#63b8ff" points="450.5,-259.59 447,-249.59 443.5,-259.59 450.5,-259.59"/>
</a>
</g>
</g>
<!-- Node23 -->
<g id="Node000023" class="node">
<title>Node23</title>
<g id="a_Node000023"><a xlink:href="drivers_2include_2periph_2gpio_8h.html" target="_top" xlink:title="Low&#45;level GPIO peripheral driver interface definitions.">
<polygon fill="white" stroke="#666666" points="1003.88,-134.25 924.12,-134.25 924.12,-113.5 1003.88,-113.5 1003.88,-134.25"/>
<text text-anchor="middle" x="964" y="-120.75" font-family="Helvetica,sans-Serif" font-size="10.00">periph/gpio.h</text>
</a>
</g>
</g>
<!-- Node3&#45;&gt;Node23 -->
<g id="edge35_Node000003_Node000023" class="edge">
<title>Node3&#45;&gt;Node23</title>
<g id="a_edge35_Node000003_Node000023"><a xlink:title=" ">
<path fill="none" stroke="#63b8ff" d="M491.62,-293.19C620.81,-292.28 990.25,-281.68 1058,-191 1075.33,-167.81 1042.82,-149.66 1011.4,-138.29"/>
<polygon fill="#63b8ff" stroke="#63b8ff" points="1012.88,-135.1 1002.29,-135.19 1010.62,-141.73 1012.88,-135.1"/>
</a>
</g>
</g>
<!-- Node27 -->
<g id="Node000027" class="node">
<title>Node27</title>
<g id="a_Node000027"><a xlink:href="spi_8h.html" target="_top" xlink:title="Low&#45;level SPI peripheral driver interface definition.">
<polygon fill="white" stroke="#666666" points="753.5,-191 680.5,-191 680.5,-170.25 753.5,-170.25 753.5,-191"/>
<text text-anchor="middle" x="717" y="-177.5" font-family="Helvetica,sans-Serif" font-size="10.00">periph/spi.h</text>
</a>
</g>
</g>
<!-- Node3&#45;&gt;Node27 -->
<g id="edge39_Node000003_Node000027" class="edge">
<title>Node3&#45;&gt;Node27</title>
<g id="a_edge39_Node000003_Node000027"><a xlink:title=" ">
<path fill="none" stroke="#63b8ff" d="M473.37,-283.36C497.37,-274.38 533.72,-260.56 565,-247.75 606.63,-230.7 654.08,-209.82 684.74,-196.14"/>
<polygon fill="#63b8ff" stroke="#63b8ff" points="686.15,-199.35 693.85,-192.07 683.29,-192.96 686.15,-199.35"/>
</a>
</g>
</g>
<!-- Node29 -->
<g id="Node000029" class="node">
<title>Node29</title>
<g id="a_Node000029"><a xlink:href="nrf24l01p__ng__types_8h.html" target="_top" xlink:title="Definitions of user visible types for the NRF24L01+ (NG) device driver.">
<polygon fill="white" stroke="#666666" points="186.5,-247.75 65.5,-247.75 65.5,-227 186.5,-227 186.5,-247.75"/>
<text text-anchor="middle" x="126" y="-234.25" font-family="Helvetica,sans-Serif" font-size="10.00">nrf24l01p_ng_types.h</text>
</a>
</g>
</g>
<!-- Node3&#45;&gt;Node29 -->
<g id="edge49_Node000003_Node000029" class="edge">
<title>Node3&#45;&gt;Node29</title>
<g id="a_edge49_Node000003_Node000029"><a xlink:title=" ">
<path fill="none" stroke="#63b8ff" d="M402.37,-285.51C348.57,-276.34 257.6,-260.82 194.81,-250.11"/>
<polygon fill="#63b8ff" stroke="#63b8ff" points="195.76,-246.72 185.31,-248.49 194.58,-253.62 195.76,-246.72"/>
</a>
</g>
</g>
<!-- Node6 -->
<g id="Node000006" class="node">
<title>Node6</title>
<g id="a_Node000006"><a xlink:href="modules_8h.html" target="_top" xlink:title="Common macros and compiler attributes/pragmas configuration.">
<polygon fill="white" stroke="#666666" points="442.5,-134.25 375.5,-134.25 375.5,-113.5 442.5,-113.5 442.5,-134.25"/>
<text text-anchor="middle" x="409" y="-120.75" font-family="Helvetica,sans-Serif" font-size="10.00">modules.h</text>
</a>
</g>
</g>
<!-- Node5&#45;&gt;Node6 -->
<g id="edge6_Node000005_Node000006" class="edge">
<title>Node5&#45;&gt;Node6</title>
<g id="a_edge6_Node000005_Node000006"><a xlink:title=" ">
<path fill="none" stroke="#63b8ff" d="M350.69,-169.84C360.89,-161.97 375.44,-150.75 387.46,-141.49"/>
<polygon fill="#63b8ff" stroke="#63b8ff" points="389.44,-144.38 395.22,-135.5 385.16,-138.84 389.44,-144.38"/>
</a>
</g>
</g>
<!-- Node7 -->
<g id="Node000007" class="node">
<title>Node7</title>
<g id="a_Node000007"><a xlink:href="riot__version_8h.html" target="_top" xlink:title="Common macros and compiler attributes/pragmas configuration.">
<polygon fill="white" stroke="#666666" points="148.38,-77.5 65.62,-77.5 65.62,-56.75 148.38,-56.75 148.38,-77.5"/>
<text text-anchor="middle" x="107" y="-64" font-family="Helvetica,sans-Serif" font-size="10.00">riot_version.h</text>
</a>
</g>
</g>
<!-- Node5&#45;&gt;Node7 -->
<g id="edge7_Node000005_Node000007" class="edge">
<title>Node5&#45;&gt;Node7</title>
<g id="a_edge7_Node000005_Node000007"><a xlink:title=" ">
<path fill="none" stroke="#63b8ff" d="M289.66,-173.84C237.59,-166.75 159.09,-153.28 136,-134.25 122.24,-122.92 114.82,-103.77 110.94,-88.99"/>
<polygon fill="#63b8ff" stroke="#63b8ff" points="114.38,-88.34 108.79,-79.35 107.55,-89.87 114.38,-88.34"/>
</a>
</g>
</g>
<!-- Node8 -->
<g id="Node000008" class="node">
<title>Node8</title>
<g id="a_Node000008"><a xlink:href="compiler__hints_8h.html" target="_top" xlink:title="Common macros and compiler attributes/pragmas configuration.">
<polygon fill="white" stroke="#666666" points="242.5,-134.25 145.5,-134.25 145.5,-113.5 242.5,-113.5 242.5,-134.25"/>
<text text-anchor="middle" x="194" y="-120.75" font-family="Helvetica,sans-Serif" font-size="10.00">compiler_hints.h</text>
</a>
</g>
</g>
<!-- Node5&#45;&gt;Node8 -->
<g id="edge9_Node000005_Node000008" class="edge">
<title>Node5&#45;&gt;Node8</title>
<g id="a_edge9_Node000005_Node000008"><a xlink:title=" ">
<path fill="none" stroke="#63b8ff" d="M312.26,-169.84C289.42,-161.16 255.83,-148.38 230.28,-138.67"/>
<polygon fill="#63b8ff" stroke="#63b8ff" points="231.53,-135.4 220.94,-135.12 229.04,-141.94 231.53,-135.4"/>
</a>
</g>
</g>
<!-- Node10 -->
<g id="Node000010" class="node">
<title>Node10</title>
<g id="a_Node000010"><a xlink:href="container_8h.html" target="_top" xlink:title="Common macros and compiler attributes/pragmas configuration.">
<polygon fill="white" stroke="#666666" points="605.38,-77.5 534.62,-77.5 534.62,-56.75 605.38,-56.75 605.38,-77.5"/>
<text text-anchor="middle" x="570" y="-64" font-family="Helvetica,sans-Serif" font-size="10.00">container.h</text>
</a>
</g>
</g>
<!-- Node5&#45;&gt;Node10 -->
<g id="edge13_Node000005_Node000010" class="edge">
<title>Node5&#45;&gt;Node10</title>
<g id="a_edge13_Node000005_Node000010"><a xlink:title=" ">
<path fill="none" stroke="#63b8ff" d="M339.45,-169.88C342.16,-155.3 349.39,-128 367,-113.5 390.46,-94.19 470.79,-80.66 523.09,-73.66"/>
<polygon fill="#63b8ff" stroke="#63b8ff" points="523.47,-77.14 532.93,-72.37 522.57,-70.19 523.47,-77.14"/>
</a>
</g>
</g>
<!-- Node7&#45;&gt;Node2 -->
<g id="edge8_Node000007_Node000002" class="edge">
<title>Node7&#45;&gt;Node2</title>
<g id="a_edge8_Node000007_Node000002"><a xlink:title=" ">
<path fill="none" stroke="#63b8ff" d="M146.41,-56.27C186.64,-46.21 248.67,-30.71 288.28,-20.8"/>
<polygon fill="#63b8ff" stroke="#63b8ff" points="289,-24.23 297.85,-18.41 287.3,-17.44 289,-24.23"/>
</a>
</g>
</g>
<!-- Node8&#45;&gt;Node2 -->
<g id="edge12_Node000008_Node000002" class="edge">
<title>Node8&#45;&gt;Node2</title>
<g id="a_edge12_Node000008_Node000002"><a xlink:title=" ">
<path fill="none" stroke="#63b8ff" d="M205.25,-113.37C227.55,-94.54 277.6,-52.26 305.76,-28.47"/>
<polygon fill="#63b8ff" stroke="#63b8ff" points="307.86,-31.28 313.24,-22.15 303.34,-25.93 307.86,-31.28"/>
</a>
</g>
</g>
<!-- Node9 -->
<g id="Node000009" class="node">
<title>Node9</title>
<g id="a_Node000009"><a xlink:href="assert_8h.html" target="_top" xlink:title="POSIX.1&#45;2008 compliant version of the assert macro.">
<polygon fill="white" stroke="#666666" points="221.5,-77.5 166.5,-77.5 166.5,-56.75 221.5,-56.75 221.5,-77.5"/>
<text text-anchor="middle" x="194" y="-64" font-family="Helvetica,sans-Serif" font-size="10.00">assert.h</text>
</a>
</g>
</g>
<!-- Node8&#45;&gt;Node9 -->
<g id="edge10_Node000008_Node000009" class="edge">
<title>Node8&#45;&gt;Node9</title>
<g id="a_edge10_Node000008_Node000009"><a xlink:title=" ">
<path fill="none" stroke="#63b8ff" d="M194,-113.09C194,-106.47 194,-97.47 194,-89.27"/>
<polygon fill="#63b8ff" stroke="#63b8ff" points="197.5,-89.34 194,-79.34 190.5,-89.34 197.5,-89.34"/>
</a>
</g>
</g>
<!-- Node9&#45;&gt;Node2 -->
<g id="edge11_Node000009_Node000002" class="edge">
<title>Node9&#45;&gt;Node2</title>
<g id="a_edge11_Node000009_Node000002"><a xlink:title=" ">
<path fill="none" stroke="#63b8ff" d="M217.6,-56.34C238.34,-47.73 268.77,-35.11 292.11,-25.43"/>
<polygon fill="#63b8ff" stroke="#63b8ff" points="293.31,-28.72 301.21,-21.66 290.63,-22.26 293.31,-28.72"/>
</a>
</g>
</g>
<!-- Node10&#45;&gt;Node2 -->
<g id="edge15_Node000010_Node000002" class="edge">
<title>Node10&#45;&gt;Node2</title>
<g id="a_edge15_Node000010_Node000002"><a xlink:title=" ">
<path fill="none" stroke="#63b8ff" d="M534.26,-58.11C488.74,-47.89 410.43,-30.32 363.9,-19.88"/>
<polygon fill="#63b8ff" stroke="#63b8ff" points="364.8,-16.49 354.27,-17.72 363.26,-23.32 364.8,-16.49"/>
</a>
</g>
</g>
<!-- Node11 -->
<g id="Node000011" class="node">
<title>Node11</title>
<g id="a_Node000011"><a xlink:title=" ">
<polygon fill="#e0e0e0" stroke="#999999" points="775.5,-20.75 720.5,-20.75 720.5,0 775.5,0 775.5,-20.75"/>
<text text-anchor="middle" x="748" y="-7.25" font-family="Helvetica,sans-Serif" font-size="10.00">stddef.h</text>
</a>
</g>
</g>
<!-- Node10&#45;&gt;Node11 -->
<g id="edge14_Node000010_Node000011" class="edge">
<title>Node10&#45;&gt;Node11</title>
<g id="a_edge14_Node000010_Node000011"><a xlink:title=" ">
<path fill="none" stroke="#63b8ff" d="M601.82,-56.34C631.97,-47.06 677.29,-33.12 709.47,-23.23"/>
<polygon fill="#63b8ff" stroke="#63b8ff" points="710.28,-26.64 718.81,-20.35 708.22,-19.95 710.28,-26.64"/>
</a>
</g>
</g>
<!-- Node12&#45;&gt;Node6 -->
<g id="edge18_Node000012_Node000006" class="edge">
<title>Node12&#45;&gt;Node6</title>
<g id="a_edge18_Node000012_Node000006"><a xlink:title=" ">
<path fill="none" stroke="#63b8ff" d="M770.63,-226.51C743.61,-218.14 704.78,-205.25 672,-191 653.99,-183.17 651.48,-176.88 633,-170.25 573.05,-148.74 500.2,-136.37 454.21,-130.13"/>
<polygon fill="#63b8ff" stroke="#63b8ff" points="454.71,-126.66 444.34,-128.83 453.8,-133.6 454.71,-126.66"/>
</a>
</g>
</g>
<!-- Node13 -->
<g id="Node000013" class="node">
<title>Node13</title>
<g id="a_Node000013"><a xlink:href="inttypes_8h.html" target="_top" xlink:title="Adds include for missing inttype definitions.">
<polygon fill="white" stroke="#666666" points="836.38,-191 771.62,-191 771.62,-170.25 836.38,-170.25 836.38,-191"/>
<text text-anchor="middle" x="804" y="-177.5" font-family="Helvetica,sans-Serif" font-size="10.00">inttypes.h</text>
</a>
</g>
</g>
<!-- Node12&#45;&gt;Node13 -->
<g id="edge17_Node000012_Node000013" class="edge">
<title>Node12&#45;&gt;Node13</title>
<g id="a_edge17_Node000012_Node000013"><a xlink:title=" ">
<path fill="none" stroke="#63b8ff" d="M804,-226.59C804,-219.97 804,-210.97 804,-202.77"/>
<polygon fill="#63b8ff" stroke="#63b8ff" points="807.5,-202.84 804,-192.84 800.5,-202.84 807.5,-202.84"/>
</a>
</g>
</g>
<!-- Node14 -->
<g id="Node000014" class="node">
<title>Node14</title>
<g id="a_Node000014"><a xlink:href="ethertype_8h.html" target="_top" xlink:title="Ether type definitions.">
<polygon fill="white" stroke="#666666" points="945.5,-191 854.5,-191 854.5,-170.25 945.5,-170.25 945.5,-191"/>
<text text-anchor="middle" x="900" y="-177.5" font-family="Helvetica,sans-Serif" font-size="10.00">net/ethertype.h</text>
</a>
</g>
</g>
<!-- Node12&#45;&gt;Node14 -->
<g id="edge19_Node000012_Node000014" class="edge">
<title>Node12&#45;&gt;Node14</title>
<g id="a_edge19_Node000012_Node000014"><a xlink:title=" ">
<path fill="none" stroke="#63b8ff" d="M821.16,-226.59C835.63,-218.33 856.59,-206.38 873.26,-196.88"/>
<polygon fill="#63b8ff" stroke="#63b8ff" points="874.72,-200.07 881.67,-192.08 871.25,-193.99 874.72,-200.07"/>
</a>
</g>
</g>
<!-- Node15 -->
<g id="Node000015" class="node">
<title>Node15</title>
<g id="a_Node000015"><a xlink:href="protnum_8h.html" target="_top" xlink:title="Protocol number definitions.">
<polygon fill="white" stroke="#666666" points="1048.5,-191 963.5,-191 963.5,-170.25 1048.5,-170.25 1048.5,-191"/>
<text text-anchor="middle" x="1006" y="-177.5" font-family="Helvetica,sans-Serif" font-size="10.00">net/protnum.h</text>
</a>
</g>
</g>
<!-- Node12&#45;&gt;Node15 -->
<g id="edge20_Node000012_Node000015" class="edge">
<title>Node12&#45;&gt;Node15</title>
<g id="a_edge20_Node000012_Node000015"><a xlink:title=" ">
<path fill="none" stroke="#63b8ff" d="M840.11,-226.59C873.33,-217.58 922.79,-204.18 959.06,-194.35"/>
<polygon fill="#63b8ff" stroke="#63b8ff" points="959.66,-197.81 968.4,-191.82 957.83,-191.05 959.66,-197.81"/>
</a>
</g>
</g>
<!-- Node16&#45;&gt;Node2 -->
<g id="edge22_Node000016_Node000002" class="edge">
<title>Node16&#45;&gt;Node2</title>
<g id="a_edge22_Node000016_Node000002"><a xlink:title=" ">
<path fill="none" stroke="#63b8ff" d="M439.41,-226.72C419.57,-201.51 367.69,-135.53 367,-134.25 348.87,-100.53 336.72,-57.32 330.62,-32.15"/>
<polygon fill="#63b8ff" stroke="#63b8ff" points="334.06,-31.5 328.38,-22.55 327.24,-33.08 334.06,-31.5"/>
</a>
</g>
</g>
<!-- Node16&#45;&gt;Node5 -->
<g id="edge34_Node000016_Node000005" class="edge">
<title>Node16&#45;&gt;Node5</title>
<g id="a_edge34_Node000016_Node000005"><a xlink:title=" ">
<path fill="none" stroke="#63b8ff" d="M427.51,-226.59C410.85,-218.22 386.62,-206.04 367.56,-196.47"/>
<polygon fill="#63b8ff" stroke="#63b8ff" points="369.18,-193.37 358.67,-192.01 366.04,-199.62 369.18,-193.37"/>
</a>
</g>
</g>
<!-- Node17 -->
<g id="Node000017" class="node">
<title>Node17</title>
<g id="a_Node000017"><a xlink:href="errno_8h.html" target="_top" xlink:title=" ">
<polygon fill="white" stroke="#666666" points="629.25,-134.25 578.75,-134.25 578.75,-113.5 629.25,-113.5 629.25,-134.25"/>
<text text-anchor="middle" x="604" y="-120.75" font-family="Helvetica,sans-Serif" font-size="10.00">errno.h</text>
</a>
</g>
</g>
<!-- Node16&#45;&gt;Node17 -->
<g id="edge23_Node000016_Node000017" class="edge">
<title>Node16&#45;&gt;Node17</title>
<g id="a_edge23_Node000016_Node000017"><a xlink:title=" ">
<path fill="none" stroke="#63b8ff" d="M466.71,-226.56C483.31,-217.99 507.41,-204.77 527,-191 548.45,-175.92 570.98,-156.03 586.08,-142.02"/>
<polygon fill="#63b8ff" stroke="#63b8ff" points="588.06,-144.96 592.95,-135.56 583.27,-139.86 588.06,-144.96"/>
</a>
</g>
</g>
<!-- Node18 -->
<g id="Node000018" class="node">
<title>Node18</title>
<g id="a_Node000018"><a xlink:href="iolist_8h.html" target="_top" xlink:title="iolist scatter / gather IO">
<polygon fill="white" stroke="#666666" points="623.5,-191 574.5,-191 574.5,-170.25 623.5,-170.25 623.5,-191"/>
<text text-anchor="middle" x="599" y="-177.5" font-family="Helvetica,sans-Serif" font-size="10.00">iolist.h</text>
</a>
</g>
</g>
<!-- Node16&#45;&gt;Node18 -->
<g id="edge24_Node000016_Node000018" class="edge">
<title>Node16&#45;&gt;Node18</title>
<g id="a_edge24_Node000016_Node000018"><a xlink:title=" ">
<path fill="none" stroke="#63b8ff" d="M474.17,-226.59C499.09,-217.61 536.15,-204.26 563.42,-194.44"/>
<polygon fill="#63b8ff" stroke="#63b8ff" points="564.43,-197.8 572.65,-191.12 562.06,-191.21 564.43,-197.8"/>
</a>
</g>
</g>
<!-- Node21 -->
<g id="Node000021" class="node">
<title>Node21</title>
<g id="a_Node000021"><a xlink:href="netopt_8h.html" target="_top" xlink:title="Definition of global configuration options.">
<polygon fill="white" stroke="#666666" points="517.62,-191 442.38,-191 442.38,-170.25 517.62,-170.25 517.62,-191"/>
<text text-anchor="middle" x="480" y="-177.5" font-family="Helvetica,sans-Serif" font-size="10.00">net/netopt.h</text>
</a>
</g>
</g>
<!-- Node16&#45;&gt;Node21 -->
<g id="edge31_Node000016_Node000021" class="edge">
<title>Node16&#45;&gt;Node21</title>
<g id="a_edge31_Node000016_Node000021"><a xlink:title=" ">
<path fill="none" stroke="#63b8ff" d="M452.9,-226.59C457.17,-219.5 463.08,-209.69 468.3,-201.04"/>
<polygon fill="#63b8ff" stroke="#63b8ff" points="471.21,-203 473.37,-192.62 465.21,-199.38 471.21,-203"/>
</a>
</g>
</g>
<!-- Node19 -->
<g id="Node000019" class="node">
<title>Node19</title>
<g id="a_Node000019"><a xlink:href="unistd_8h_source.html" target="_top" xlink:title=" ">
<polygon fill="white" stroke="#666666" points="740.5,-134.25 685.5,-134.25 685.5,-113.5 740.5,-113.5 740.5,-134.25"/>
<text text-anchor="middle" x="713" y="-120.75" font-family="Helvetica,sans-Serif" font-size="10.00">unistd.h</text>
</a>
</g>
</g>
<!-- Node18&#45;&gt;Node19 -->
<g id="edge25_Node000018_Node000019" class="edge">
<title>Node18&#45;&gt;Node19</title>
<g id="a_edge25_Node000018_Node000019"><a xlink:title=" ">
<path fill="none" stroke="#63b8ff" d="M619.38,-169.84C636.97,-161.39 662.63,-149.07 682.63,-139.46"/>
<polygon fill="#63b8ff" stroke="#63b8ff" points="683.93,-142.72 691.43,-135.23 680.9,-136.41 683.93,-142.72"/>
</a>
</g>
</g>
<!-- Node19&#45;&gt;Node2 -->
<g id="edge27_Node000019_Node000002" class="edge">
<title>Node19&#45;&gt;Node2</title>
<g id="a_edge27_Node000019_Node000002"><a xlink:title=" ">
<path fill="none" stroke="#63b8ff" d="M699.94,-113.12C677.48,-96.51 632.19,-63.86 614,-56.75 528.83,-23.46 420.45,-14.56 364.03,-12.2"/>
<polygon fill="#63b8ff" stroke="#63b8ff" points="364.44,-8.72 354.32,-11.85 364.18,-15.71 364.44,-8.72"/>
</a>
</g>
</g>
<!-- Node19&#45;&gt;Node11 -->
<g id="edge26_Node000019_Node000011" class="edge">
<title>Node19&#45;&gt;Node11</title>
<g id="a_edge26_Node000019_Node000011"><a xlink:title=" ">
<path fill="none" stroke="#63b8ff" d="M721.19,-113.15C728.04,-104.42 737.4,-90.95 742,-77.5 746.98,-62.95 748.4,-45.62 748.61,-32.34"/>
<polygon fill="#63b8ff" stroke="#63b8ff" points="752.12,-32.58 748.54,-22.6 745.12,-32.63 752.12,-32.58"/>
</a>
</g>
</g>
<!-- Node20 -->
<g id="Node000020" class="node">
<title>Node20</title>
<g id="a_Node000020"><a xlink:href="cpu_2avr8__common_2avr__libc__extra_2include_2sys_2types_8h_source.html" target="_top" xlink:title=" ">
<polygon fill="white" stroke="#666666" points="732.75,-77.5 661.25,-77.5 661.25,-56.75 732.75,-56.75 732.75,-77.5"/>
<text text-anchor="middle" x="697" y="-64" font-family="Helvetica,sans-Serif" font-size="10.00">sys/types.h</text>
</a>
</g>
</g>
<!-- Node19&#45;&gt;Node20 -->
<g id="edge28_Node000019_Node000020" class="edge">
<title>Node19&#45;&gt;Node20</title>
<g id="a_edge28_Node000019_Node000020"><a xlink:title=" ">
<path fill="none" stroke="#63b8ff" d="M710.14,-113.09C708.16,-106.31 705.45,-97.05 703.01,-88.69"/>
<polygon fill="#63b8ff" stroke="#63b8ff" points="706.42,-87.9 700.26,-79.28 699.71,-89.86 706.42,-87.9"/>
</a>
</g>
</g>
<!-- Node20&#45;&gt;Node2 -->
<g id="edge29_Node000020_Node000002" class="edge">
<title>Node20&#45;&gt;Node2</title>
<g id="a_edge29_Node000020_Node000002"><a xlink:title=" ">
<path fill="none" stroke="#63b8ff" d="M660.98,-59.17C656.29,-58.32 651.53,-57.49 647,-56.75 544.95,-39.98 424.02,-23.91 363.89,-16.17"/>
<polygon fill="#63b8ff" stroke="#63b8ff" points="364.56,-12.73 354.2,-14.93 363.67,-19.67 364.56,-12.73"/>
</a>
</g>
</g>
<!-- Node20&#45;&gt;Node11 -->
<g id="edge30_Node000020_Node000011" class="edge">
<title>Node20&#45;&gt;Node11</title>
<g id="a_edge30_Node000020_Node000011"><a xlink:title=" ">
<path fill="none" stroke="#63b8ff" d="M706.12,-56.34C713.08,-48.86 722.87,-38.36 731.23,-29.38"/>
<polygon fill="#63b8ff" stroke="#63b8ff" points="733.67,-31.89 737.93,-22.19 728.55,-27.12 733.67,-31.89"/>
</a>
</g>
</g>
<!-- Node21&#45;&gt;Node2 -->
<g id="edge32_Node000021_Node000002" class="edge">
<title>Node21&#45;&gt;Node2</title>
<g id="a_edge32_Node000021_Node000002"><a xlink:title=" ">
<path fill="none" stroke="#63b8ff" d="M477.5,-169.89C473.67,-156.27 465.34,-131.23 452,-113.5 424.25,-76.63 380.4,-45.12 352.43,-27.21"/>
<polygon fill="#63b8ff" stroke="#63b8ff" points="354.52,-24.39 344.18,-22.05 350.8,-30.32 354.52,-24.39"/>
</a>
</g>
</g>
<!-- Node22 -->
<g id="Node000022" class="node">
<title>Node22</title>
<g id="a_Node000022"><a xlink:title=" ">
<polygon fill="#e0e0e0" stroke="#999999" points="560.5,-134.25 499.5,-134.25 499.5,-113.5 560.5,-113.5 560.5,-134.25"/>
<text text-anchor="middle" x="530" y="-120.75" font-family="Helvetica,sans-Serif" font-size="10.00">stdbool.h</text>
</a>
</g>
</g>
<!-- Node21&#45;&gt;Node22 -->
<g id="edge33_Node000021_Node000022" class="edge">
<title>Node21&#45;&gt;Node22</title>
<g id="a_edge33_Node000021_Node000022"><a xlink:title=" ">
<path fill="none" stroke="#63b8ff" d="M488.94,-169.84C495.76,-162.36 505.36,-151.86 513.56,-142.88"/>
<polygon fill="#63b8ff" stroke="#63b8ff" points="515.96,-145.44 520.12,-135.7 510.79,-140.72 515.96,-145.44"/>
</a>
</g>
</g>
<!-- Node24 -->
<g id="Node000024" class="node">
<title>Node24</title>
<g id="a_Node000024"><a xlink:title=" ">
<polygon fill="#e0e0e0" stroke="#999999" points="1075.38,-77.5 1022.62,-77.5 1022.62,-56.75 1075.38,-56.75 1075.38,-77.5"/>
<text text-anchor="middle" x="1049" y="-64" font-family="Helvetica,sans-Serif" font-size="10.00">limits.h</text>
</a>
</g>
</g>
<!-- Node23&#45;&gt;Node24 -->
<g id="edge36_Node000023_Node000024" class="edge">
<title>Node23&#45;&gt;Node24</title>
<g id="a_edge36_Node000023_Node000024"><a xlink:title=" ">
<path fill="none" stroke="#63b8ff" d="M979.2,-113.09C991.77,-104.99 1009.86,-93.33 1024.48,-83.92"/>
<polygon fill="#63b8ff" stroke="#63b8ff" points="1026.15,-87.01 1032.66,-78.65 1022.36,-81.12 1026.15,-87.01"/>
</a>
</g>
</g>
<!-- Node25 -->
<g id="Node000025" class="node">
<title>Node25</title>
<g id="a_Node000025"><a xlink:title=" ">
<polygon fill="#e0e0e0" stroke="#999999" points="905.12,-77.5 826.88,-77.5 826.88,-56.75 905.12,-56.75 905.12,-77.5"/>
<text text-anchor="middle" x="866" y="-64" font-family="Helvetica,sans-Serif" font-size="10.00">periph_cpu.h</text>
</a>
</g>
</g>
<!-- Node23&#45;&gt;Node25 -->
<g id="edge37_Node000023_Node000025" class="edge">
<title>Node23&#45;&gt;Node25</title>
<g id="a_edge37_Node000023_Node000025"><a xlink:title=" ">
<path fill="none" stroke="#63b8ff" d="M946.48,-113.09C931.71,-104.83 910.32,-92.88 893.3,-83.38"/>
<polygon fill="#63b8ff" stroke="#63b8ff" points="895.13,-80.39 884.69,-78.57 891.71,-86.5 895.13,-80.39"/>
</a>
</g>
</g>
<!-- Node26 -->
<g id="Node000026" class="node">
<title>Node26</title>
<g id="a_Node000026"><a xlink:title=" ">
<polygon fill="#e0e0e0" stroke="#999999" points="1004.62,-77.5 923.38,-77.5 923.38,-56.75 1004.62,-56.75 1004.62,-77.5"/>
<text text-anchor="middle" x="964" y="-64" font-family="Helvetica,sans-Serif" font-size="10.00">periph_conf.h</text>
</a>
</g>
</g>
<!-- Node23&#45;&gt;Node26 -->
<g id="edge38_Node000023_Node000026" class="edge">
<title>Node23&#45;&gt;Node26</title>
<g id="a_edge38_Node000023_Node000026"><a xlink:title=" ">
<path fill="none" stroke="#63b8ff" d="M964,-113.09C964,-106.47 964,-97.47 964,-89.27"/>
<polygon fill="#63b8ff" stroke="#63b8ff" points="967.5,-89.34 964,-79.34 960.5,-89.34 967.5,-89.34"/>
</a>
</g>
</g>
<!-- Node27&#45;&gt;Node2 -->
<g id="edge45_Node000027_Node000002" class="edge">
<title>Node27&#45;&gt;Node2</title>
<g id="a_edge45_Node000027_Node000002"><a xlink:title=" ">
<path fill="none" stroke="#63b8ff" d="M708.16,-170.18C694.41,-156.01 666.51,-129.22 638,-113.5 592.21,-88.25 575.71,-93.71 526,-77.5 469.39,-59.04 403.89,-37.32 363.71,-23.95"/>
<polygon fill="#63b8ff" stroke="#63b8ff" points="364.86,-20.64 354.26,-20.8 362.65,-27.28 364.86,-20.64"/>
</a>
</g>
</g>
<!-- Node27&#45;&gt;Node11 -->
<g id="edge44_Node000027_Node000011" class="edge">
<title>Node27&#45;&gt;Node11</title>
<g id="a_edge44_Node000027_Node000011"><a xlink:title=" ">
<path fill="none" stroke="#63b8ff" d="M753.87,-171.91C756.96,-171.33 760.03,-170.77 763,-170.25 909.31,-144.83 1019.64,-211.33 1084,-77.5 1088,-69.19 1090.07,-63.69 1084,-56.75 1045.79,-13.03 866.9,-9.75 786.87,-10.54"/>
<polygon fill="#63b8ff" stroke="#63b8ff" points="787.28,-7.04 777.32,-10.66 787.37,-14.04 787.28,-7.04"/>
</a>
</g>
</g>
<!-- Node27&#45;&gt;Node17 -->
<g id="edge42_Node000027_Node000017" class="edge">
<title>Node27&#45;&gt;Node17</title>
<g id="a_edge42_Node000027_Node000017"><a xlink:title=" ">
<path fill="none" stroke="#63b8ff" d="M696.8,-169.84C679.44,-161.43 654.17,-149.18 634.37,-139.59"/>
<polygon fill="#63b8ff" stroke="#63b8ff" points="635.91,-136.45 625.39,-135.24 632.86,-142.75 635.91,-136.45"/>
</a>
</g>
</g>
<!-- Node27&#45;&gt;Node22 -->
<g id="edge43_Node000027_Node000022" class="edge">
<title>Node27&#45;&gt;Node22</title>
<g id="a_edge43_Node000027_Node000022"><a xlink:title=" ">
<path fill="none" stroke="#63b8ff" d="M683.57,-169.84C652.33,-160.69 605.57,-147 571.86,-137.13"/>
<polygon fill="#63b8ff" stroke="#63b8ff" points="573,-133.82 562.42,-134.37 571.04,-140.54 573,-133.82"/>
</a>
</g>
</g>
<!-- Node27&#45;&gt;Node23 -->
<g id="edge48_Node000027_Node000023" class="edge">
<title>Node27&#45;&gt;Node23</title>
<g id="a_edge48_Node000027_Node000023"><a xlink:title=" ">
<path fill="none" stroke="#63b8ff" d="M753.98,-171.43C796.21,-162.07 865.58,-146.69 912.95,-136.19"/>
<polygon fill="#63b8ff" stroke="#63b8ff" points="913.41,-139.67 922.42,-134.09 911.9,-132.84 913.41,-139.67"/>
</a>
</g>
</g>
<!-- Node27&#45;&gt;Node25 -->
<g id="edge46_Node000027_Node000025" class="edge">
<title>Node27&#45;&gt;Node25</title>
<g id="a_edge46_Node000027_Node000025"><a xlink:title=" ">
<path fill="none" stroke="#63b8ff" d="M754,-170.58C776.72,-163.59 805.34,-152.03 826,-134.25 840.44,-121.82 851.17,-102.83 857.86,-88.38"/>
<polygon fill="#63b8ff" stroke="#63b8ff" points="861,-89.94 861.76,-79.37 854.58,-87.16 861,-89.94"/>
</a>
</g>
</g>
<!-- Node27&#45;&gt;Node26 -->
<g id="edge47_Node000027_Node000026" class="edge">
<title>Node27&#45;&gt;Node26</title>
<g id="a_edge47_Node000027_Node000026"><a xlink:title=" ">
<path fill="none" stroke="#63b8ff" d="M751.33,-169.8C778.38,-161.59 816.79,-148.89 849,-134.25 881.55,-119.46 916.91,-98.3 939.7,-83.92"/>
<polygon fill="#63b8ff" stroke="#63b8ff" points="941.41,-86.99 947.96,-78.66 937.64,-81.08 941.41,-86.99"/>
</a>
</g>
</g>
<!-- Node28 -->
<g id="Node000028" class="node">
<title>Node28</title>
<g id="a_Node000028"><a xlink:href="endian_8h.html" target="_top" xlink:title="libc header for endian conversion">
<polygon fill="white" stroke="#666666" points="817,-134.25 759,-134.25 759,-113.5 817,-113.5 817,-134.25"/>
<text text-anchor="middle" x="788" y="-120.75" font-family="Helvetica,sans-Serif" font-size="10.00">endian.h</text>
</a>
</g>
</g>
<!-- Node27&#45;&gt;Node28 -->
<g id="edge40_Node000027_Node000028" class="edge">
<title>Node27&#45;&gt;Node28</title>
<g id="a_edge40_Node000027_Node000028"><a xlink:title=" ">
<path fill="none" stroke="#63b8ff" d="M729.69,-169.84C739.89,-161.97 754.44,-150.75 766.46,-141.49"/>
<polygon fill="#63b8ff" stroke="#63b8ff" points="768.44,-144.38 774.22,-135.5 764.16,-138.84 768.44,-144.38"/>
</a>
</g>
</g>
<!-- Node28&#45;&gt;Node2 -->
<g id="edge41_Node000028_Node000002" class="edge">
<title>Node28&#45;&gt;Node2</title>
<g id="a_edge41_Node000028_Node000002"><a xlink:title=" ">
<path fill="none" stroke="#63b8ff" d="M784.38,-113.24C778.21,-98.3 764.13,-69.89 742,-56.75 678.63,-19.12 454.41,-12.64 364.1,-11.57"/>
<polygon fill="#63b8ff" stroke="#63b8ff" points="364.32,-8.07 354.29,-11.47 364.25,-15.07 364.32,-8.07"/>
</a>
</g>
</g>
<!-- Node29&#45;&gt;Node2 -->
<g id="edge50_Node000029_Node000002" class="edge">
<title>Node29&#45;&gt;Node2</title>
<g id="a_edge50_Node000029_Node000002"><a xlink:title=" ">
<path fill="none" stroke="#63b8ff" d="M116.13,-226.67C87.88,-197.7 11.49,-110.58 57,-56.75 86.13,-22.29 220.94,-13.99 287.96,-12"/>
<polygon fill="#63b8ff" stroke="#63b8ff" points="287.85,-15.5 297.75,-11.74 287.66,-8.51 287.85,-15.5"/>
</a>
</g>
</g>
<!-- Node30&#45;&gt;Node3 -->
<g id="edge52_Node000030_Node000003" class="edge">
<title>Node30&#45;&gt;Node3</title>
<g id="a_edge52_Node000030_Node000003"><a xlink:title=" ">
<path fill="none" stroke="#63b8ff" d="M354.2,-340.09C371.56,-331.68 396.83,-319.43 416.63,-309.84"/>
<polygon fill="#63b8ff" stroke="#63b8ff" points="418.14,-313 425.61,-305.49 415.09,-306.7 418.14,-313"/>
</a>
</g>
</g>
</g>
</svg>
