<?xml version="1.0" encoding="UTF-8" standalone="no"?>
<!DOCTYPE svg PUBLIC "-//W3C//DTD SVG 1.1//EN"
 "http://www.w3.org/Graphics/SVG/1.1/DTD/svg11.dtd">
<!-- Generated by graphviz version 12.1.1 (0)
 -->
<!-- Title: boards/common/nrf52xxxdk/include/periph_conf_common.h Pages: 1 -->
<svg width="636pt" height="98pt"
 viewBox="0.00 0.00 635.50 98.25" xmlns="http://www.w3.org/2000/svg" xmlns:xlink="http://www.w3.org/1999/xlink">
<g id="graph0" class="graph" transform="scale(1 1) rotate(0) translate(4 94.25)">
<title>boards/common/nrf52xxxdk/include/periph_conf_common.h</title>
<!-- Node1 -->
<g id="Node000001" class="node">
<title>Node1</title>
<g id="a_Node000001"><a xlink:title="Peripheral configuration for the nRF52 DK.">
<polygon fill="#999999" stroke="#666666" points="406.75,-90.25 235.5,-90.25 235.5,-56.75 406.75,-56.75 406.75,-90.25"/>
<text text-anchor="start" x="243.5" y="-76.75" font-family="Helvetica,sans-Serif" font-size="10.00">boards/common/nrf52xxxdk</text>
<text text-anchor="middle" x="321.12" y="-64" font-family="Helvetica,sans-Serif" font-size="10.00">/include/periph_conf_common.h</text>
</a>
</g>
</g>
<!-- Node2 -->
<g id="Node000002" class="node">
<title>Node2</title>
<g id="a_Node000002"><a xlink:title=" ">
<polygon fill="#e0e0e0" stroke="#999999" points="78.25,-20.75 0,-20.75 0,0 78.25,0 78.25,-20.75"/>
<text text-anchor="middle" x="39.12" y="-7.25" font-family="Helvetica,sans-Serif" font-size="10.00">periph_cpu.h</text>
</a>
</g>
</g>
<!-- Node1&#45;&gt;Node2 -->
<g id="edge1_Node000001_Node000002" class="edge">
<title>Node1&#45;&gt;Node2</title>
<g id="a_edge1_Node000001_Node000002"><a xlink:title=" ">
<path fill="none" stroke="#63b8ff" d="M246.29,-56.28C196.87,-45.57 133.4,-31.81 89.82,-22.36"/>
<polygon fill="#63b8ff" stroke="#63b8ff" points="90.63,-18.96 80.11,-20.26 89.15,-25.8 90.63,-18.96"/>
</a>
</g>
</g>
<!-- Node3 -->
<g id="Node000003" class="node">
<title>Node3</title>
<g id="a_Node000003"><a xlink:href="cfg__clock__32__1_8h.html" target="_top" xlink:title="Common clock configuration for the nRF52 based boards.">
<polygon fill="white" stroke="#666666" points="195.75,-20.75 96.5,-20.75 96.5,0 195.75,0 195.75,-20.75"/>
<text text-anchor="middle" x="146.12" y="-7.25" font-family="Helvetica,sans-Serif" font-size="10.00">cfg_clock_32_1.h</text>
</a>
</g>
</g>
<!-- Node1&#45;&gt;Node3 -->
<g id="edge2_Node000001_Node000003" class="edge">
<title>Node1&#45;&gt;Node3</title>
<g id="a_edge2_Node000001_Node000003"><a xlink:title=" ">
<path fill="none" stroke="#63b8ff" d="M274.69,-56.28C246.69,-46.5 211.44,-34.19 184.93,-24.93"/>
<polygon fill="#63b8ff" stroke="#63b8ff" points="186.18,-21.66 175.58,-21.66 183.87,-28.27 186.18,-21.66"/>
</a>
</g>
</g>
<!-- Node4 -->
<g id="Node000004" class="node">
<title>Node4</title>
<g id="a_Node000004"><a xlink:title=" ">
<polygon fill="#e0e0e0" stroke="#999999" points="312.75,-20.75 213.5,-20.75 213.5,0 312.75,0 312.75,-20.75"/>
<text text-anchor="middle" x="263.12" y="-7.25" font-family="Helvetica,sans-Serif" font-size="10.00">cfg_i2c_default.h</text>
</a>
</g>
</g>
<!-- Node1&#45;&gt;Node4 -->
<g id="edge3_Node000001_Node000004" class="edge">
<title>Node1&#45;&gt;Node4</title>
<g id="a_edge3_Node000001_Node000004"><a xlink:title=" ">
<path fill="none" stroke="#63b8ff" d="M305.89,-56.44C298.01,-48.14 288.38,-37.99 280.25,-29.43"/>
<polygon fill="#63b8ff" stroke="#63b8ff" points="282.93,-27.16 273.51,-22.31 277.85,-31.98 282.93,-27.16"/>
</a>
</g>
</g>
<!-- Node5 -->
<g id="Node000005" class="node">
<title>Node5</title>
<g id="a_Node000005"><a xlink:title=" ">
<polygon fill="#e0e0e0" stroke="#999999" points="427.25,-20.75 331,-20.75 331,0 427.25,0 427.25,-20.75"/>
<text text-anchor="middle" x="379.12" y="-7.25" font-family="Helvetica,sans-Serif" font-size="10.00">cfg_rtt_default.h</text>
</a>
</g>
</g>
<!-- Node1&#45;&gt;Node5 -->
<g id="edge4_Node000001_Node000005" class="edge">
<title>Node1&#45;&gt;Node5</title>
<g id="a_edge4_Node000001_Node000005"><a xlink:title=" ">
<path fill="none" stroke="#63b8ff" d="M336.36,-56.44C344.24,-48.14 353.87,-37.99 362,-29.43"/>
<polygon fill="#63b8ff" stroke="#63b8ff" points="364.4,-31.98 368.74,-22.31 359.32,-27.16 364.4,-31.98"/>
</a>
</g>
</g>
<!-- Node6 -->
<g id="Node000006" class="node">
<title>Node6</title>
<g id="a_Node000006"><a xlink:title=" ">
<polygon fill="#e0e0e0" stroke="#999999" points="556.75,-20.75 445.5,-20.75 445.5,0 556.75,0 556.75,-20.75"/>
<text text-anchor="middle" x="501.12" y="-7.25" font-family="Helvetica,sans-Serif" font-size="10.00">cfg_timer_default.h</text>
</a>
</g>
</g>
<!-- Node1&#45;&gt;Node6 -->
<g id="edge5_Node000001_Node000006" class="edge">
<title>Node1&#45;&gt;Node6</title>
<g id="a_edge5_Node000001_Node000006"><a xlink:title=" ">
<path fill="none" stroke="#63b8ff" d="M368.89,-56.28C397.82,-46.46 434.27,-34.08 461.57,-24.81"/>
<polygon fill="#63b8ff" stroke="#63b8ff" points="462.52,-28.18 470.86,-21.65 460.27,-21.55 462.52,-28.18"/>
</a>
</g>
</g>
<!-- Node7 -->
<g id="Node000007" class="node">
<title>Node7</title>
<g id="a_Node000007"><a xlink:title=" ">
<polygon fill="#e0e0e0" stroke="#999999" points="627.5,-20.75 574.75,-20.75 574.75,0 627.5,0 627.5,-20.75"/>
<text text-anchor="middle" x="601.12" y="-7.25" font-family="Helvetica,sans-Serif" font-size="10.00">board.h</text>
</a>
</g>
</g>
<!-- Node1&#45;&gt;Node7 -->
<g id="edge6_Node000001_Node000007" class="edge">
<title>Node1&#45;&gt;Node7</title>
<g id="a_edge6_Node000001_Node000007"><a xlink:title=" ">
<path fill="none" stroke="#63b8ff" d="M403.32,-56.28C448.2,-47.16 505,-35.18 563.47,-21.3"/>
<polygon fill="#63b8ff" stroke="#63b8ff" points="564.02,-24.77 572.94,-19.04 562.4,-17.96 564.02,-24.77"/>
</a>
</g>
</g>
</g>
</svg>
