<?xml version="1.0" encoding="UTF-8" standalone="no"?>
<!DOCTYPE svg PUBLIC "-//W3C//DTD SVG 1.1//EN"
 "http://www.w3.org/Graphics/SVG/1.1/DTD/svg11.dtd">
<!-- Generated by graphviz version 12.1.1 (0)
 -->
<!-- Title: sys/include/net/ntp_packet.h Pages: 1 -->
<svg width="270pt" height="237pt"
 viewBox="0.00 0.00 270.25 237.25" xmlns="http://www.w3.org/2000/svg" xmlns:xlink="http://www.w3.org/1999/xlink">
<g id="graph0" class="graph" transform="scale(1 1) rotate(0) translate(4 233.25)">
<title>sys/include/net/ntp_packet.h</title>
<!-- Node1 -->
<g id="Node000001" class="node">
<title>Node1</title>
<g id="a_Node000001"><a xlink:title="NTP packet definitions.">
<polygon fill="#999999" stroke="#666666" points="184.38,-229.25 76.12,-229.25 76.12,-195.75 184.38,-195.75 184.38,-229.25"/>
<text text-anchor="start" x="84.12" y="-215.75" font-family="Helvetica,sans-Serif" font-size="10.00">sys/include/net/ntp</text>
<text text-anchor="middle" x="130.25" y="-203" font-family="Helvetica,sans-Serif" font-size="10.00">_packet.h</text>
</a>
</g>
</g>
<!-- Node2 -->
<g id="Node000002" class="node">
<title>Node2</title>
<g id="a_Node000002"><a xlink:href="sntp_8h.html" target="_top" xlink:title="SNTP definitions.">
<polygon fill="white" stroke="#666666" points="122.5,-159.75 0,-159.75 0,-139 122.5,-139 122.5,-159.75"/>
<text text-anchor="middle" x="61.25" y="-146.25" font-family="Helvetica,sans-Serif" font-size="10.00">sys/include/net/sntp.h</text>
</a>
</g>
</g>
<!-- Node1&#45;&gt;Node2 -->
<g id="edge1_Node000001_Node000002" class="edge">
<title>Node1&#45;&gt;Node2</title>
<g id="a_edge1_Node000001_Node000002"><a xlink:title=" ">
<path fill="none" stroke="#63b8ff" d="M103.72,-188C92.83,-178.35 80.82,-167.71 72.36,-160.22"/>
<polygon fill="#63b8ff" stroke="#63b8ff" points="101.18,-190.43 110.99,-194.44 105.82,-185.19 101.18,-190.43"/>
</a>
</g>
</g>
<!-- Node3 -->
<g id="Node000003" class="node">
<title>Node3</title>
<g id="a_Node000003"><a xlink:href="zep_8h.html" target="_top" xlink:title="Definitions for the ZigBee Encapsulation Protocol.">
<polygon fill="white" stroke="#666666" points="259.62,-159.75 140.88,-159.75 140.88,-139 259.62,-139 259.62,-159.75"/>
<text text-anchor="middle" x="200.25" y="-146.25" font-family="Helvetica,sans-Serif" font-size="10.00">sys/include/net/zep.h</text>
</a>
</g>
</g>
<!-- Node1&#45;&gt;Node3 -->
<g id="edge2_Node000001_Node000003" class="edge">
<title>Node1&#45;&gt;Node3</title>
<g id="a_edge2_Node000001_Node000003"><a xlink:title=" ">
<path fill="none" stroke="#63b8ff" d="M157.17,-188C168.21,-178.35 180.4,-167.71 188.98,-160.22"/>
<polygon fill="#63b8ff" stroke="#63b8ff" points="155.01,-185.23 149.78,-194.44 159.62,-190.5 155.01,-185.23"/>
</a>
</g>
</g>
<!-- Node4 -->
<g id="Node000004" class="node">
<title>Node4</title>
<g id="a_Node000004"><a xlink:href="socket__zep_8h.html" target="_top" xlink:title="Socket ZEP definitions.">
<polygon fill="white" stroke="#666666" points="252.88,-103 147.62,-103 147.62,-69.5 252.88,-69.5 252.88,-103"/>
<text text-anchor="start" x="155.62" y="-89.5" font-family="Helvetica,sans-Serif" font-size="10.00">cpu/native/include</text>
<text text-anchor="middle" x="200.25" y="-76.75" font-family="Helvetica,sans-Serif" font-size="10.00">/socket_zep.h</text>
</a>
</g>
</g>
<!-- Node3&#45;&gt;Node4 -->
<g id="edge3_Node000003_Node000004" class="edge">
<title>Node3&#45;&gt;Node4</title>
<g id="a_edge3_Node000003_Node000004"><a xlink:title=" ">
<path fill="none" stroke="#63b8ff" d="M200.25,-127.09C200.25,-119.35 200.25,-110.72 200.25,-103.48"/>
<polygon fill="#63b8ff" stroke="#63b8ff" points="196.75,-127.04 200.25,-137.04 203.75,-127.04 196.75,-127.04"/>
</a>
</g>
</g>
<!-- Node5 -->
<g id="Node000005" class="node">
<title>Node5</title>
<g id="a_Node000005"><a xlink:href="socket__zep__params_8h.html" target="_top" xlink:title="Configuration parameters for the Socket&#45;based ZEP driver.">
<polygon fill="white" stroke="#666666" points="262.25,-33.5 138.25,-33.5 138.25,0 262.25,0 262.25,-33.5"/>
<text text-anchor="start" x="146.25" y="-20" font-family="Helvetica,sans-Serif" font-size="10.00">cpu/native/include</text>
<text text-anchor="middle" x="200.25" y="-7.25" font-family="Helvetica,sans-Serif" font-size="10.00">/socket_zep_params.h</text>
</a>
</g>
</g>
<!-- Node4&#45;&gt;Node5 -->
<g id="edge4_Node000004_Node000005" class="edge">
<title>Node4&#45;&gt;Node5</title>
<g id="a_edge4_Node000004_Node000005"><a xlink:title=" ">
<path fill="none" stroke="#63b8ff" d="M200.25,-57.81C200.25,-49.59 200.25,-40.84 200.25,-33.63"/>
<polygon fill="#63b8ff" stroke="#63b8ff" points="196.75,-57.74 200.25,-67.74 203.75,-57.74 196.75,-57.74"/>
</a>
</g>
</g>
</g>
</svg>
