<?xml version="1.0" encoding="UTF-8" standalone="no"?>
<!DOCTYPE svg PUBLIC "-//W3C//DTD SVG 1.1//EN"
 "http://www.w3.org/Graphics/SVG/1.1/DTD/svg11.dtd">
<!-- Generated by graphviz version 12.1.1 (0)
 -->
<!-- Title: boards/nucleo&#45;wl55jc/include/board.h Pages: 1 -->
<svg width="911pt" height="325pt"
 viewBox="0.00 0.00 910.50 325.25" xmlns="http://www.w3.org/2000/svg" xmlns:xlink="http://www.w3.org/1999/xlink">
<g id="graph0" class="graph" transform="scale(1 1) rotate(0) translate(4 321.25)">
<title>boards/nucleo&#45;wl55jc/include/board.h</title>
<!-- Node1 -->
<g id="Node000001" class="node">
<title>Node1</title>
<g id="a_Node000001"><a xlink:title="Pin definitions and board configuration options.">
<polygon fill="#999999" stroke="#666666" points="271.88,-317.25 152.38,-317.25 152.38,-283.75 271.88,-283.75 271.88,-317.25"/>
<text text-anchor="start" x="160.38" y="-303.75" font-family="Helvetica,sans-Serif" font-size="10.00">boards/nucleo&#45;wl55jc</text>
<text text-anchor="middle" x="212.12" y="-291" font-family="Helvetica,sans-Serif" font-size="10.00">/include/board.h</text>
</a>
</g>
</g>
<!-- Node2 -->
<g id="Node000002" class="node">
<title>Node2</title>
<g id="a_Node000002"><a xlink:href="board__nucleo_8h.html" target="_top" xlink:title="Global common Nucleo board configuration.">
<polygon fill="white" stroke="#666666" points="115.25,-247.75 25,-247.75 25,-227 115.25,-227 115.25,-247.75"/>
<text text-anchor="middle" x="70.12" y="-234.25" font-family="Helvetica,sans-Serif" font-size="10.00">board_nucleo.h</text>
</a>
</g>
</g>
<!-- Node1&#45;&gt;Node2 -->
<g id="edge1_Node000001_Node000002" class="edge">
<title>Node1&#45;&gt;Node2</title>
<g id="a_edge1_Node000001_Node000002"><a xlink:title=" ">
<path fill="none" stroke="#63b8ff" d="M174.44,-283.28C152.33,-273.76 124.65,-261.85 103.36,-252.68"/>
<polygon fill="#63b8ff" stroke="#63b8ff" points="104.83,-249.5 94.26,-248.76 102.06,-255.93 104.83,-249.5"/>
</a>
</g>
</g>
<!-- Node5 -->
<g id="Node000005" class="node">
<title>Node5</title>
<g id="a_Node000005"><a xlink:href="stm32__leds_8h.html" target="_top" xlink:title="Common LED macros.">
<polygon fill="white" stroke="#666666" points="395.75,-247.75 314.5,-247.75 314.5,-227 395.75,-227 395.75,-247.75"/>
<text text-anchor="middle" x="355.12" y="-234.25" font-family="Helvetica,sans-Serif" font-size="10.00">stm32_leds.h</text>
</a>
</g>
</g>
<!-- Node1&#45;&gt;Node5 -->
<g id="edge4_Node000001_Node000005" class="edge">
<title>Node1&#45;&gt;Node5</title>
<g id="a_edge4_Node000001_Node000005"><a xlink:title=" ">
<path fill="none" stroke="#63b8ff" d="M250.07,-283.28C272.34,-273.76 300.22,-261.85 321.66,-252.68"/>
<polygon fill="#63b8ff" stroke="#63b8ff" points="323.01,-255.91 330.83,-248.76 320.26,-249.47 323.01,-255.91"/>
</a>
</g>
</g>
<!-- Node3 -->
<g id="Node000003" class="node">
<title>Node3</title>
<g id="a_Node000003"><a xlink:title=" ">
<polygon fill="#e0e0e0" stroke="#999999" points="42.25,-191 0,-191 0,-170.25 42.25,-170.25 42.25,-191"/>
<text text-anchor="middle" x="21.12" y="-177.5" font-family="Helvetica,sans-Serif" font-size="10.00">cpu.h</text>
</a>
</g>
</g>
<!-- Node2&#45;&gt;Node3 -->
<g id="edge2_Node000002_Node000003" class="edge">
<title>Node2&#45;&gt;Node3</title>
<g id="a_edge2_Node000002_Node000003"><a xlink:title=" ">
<path fill="none" stroke="#63b8ff" d="M61.36,-226.59C54.68,-219.11 45.27,-208.61 37.24,-199.63"/>
<polygon fill="#63b8ff" stroke="#63b8ff" points="40.1,-197.57 30.82,-192.46 34.88,-202.24 40.1,-197.57"/>
</a>
</g>
</g>
<!-- Node4 -->
<g id="Node000004" class="node">
<title>Node4</title>
<g id="a_Node000004"><a xlink:title=" ">
<polygon fill="#e0e0e0" stroke="#999999" points="112.75,-20.75 31.5,-20.75 31.5,0 112.75,0 112.75,-20.75"/>
<text text-anchor="middle" x="72.12" y="-7.25" font-family="Helvetica,sans-Serif" font-size="10.00">periph_conf.h</text>
</a>
</g>
</g>
<!-- Node2&#45;&gt;Node4 -->
<g id="edge3_Node000002_Node000004" class="edge">
<title>Node2&#45;&gt;Node4</title>
<g id="a_edge3_Node000002_Node000004"><a xlink:title=" ">
<path fill="none" stroke="#63b8ff" d="M70.21,-226.71C70.51,-192.95 71.52,-79.84 71.94,-32.5"/>
<polygon fill="#63b8ff" stroke="#63b8ff" points="75.44,-32.55 72.03,-22.52 68.44,-32.49 75.44,-32.55"/>
</a>
</g>
</g>
<!-- Node6 -->
<g id="Node000006" class="node">
<title>Node6</title>
<g id="a_Node000006"><a xlink:href="gpio__ll_8h.html" target="_top" xlink:title="Peripheral GPIO Low&#45;Level API.">
<polygon fill="white" stroke="#666666" points="400.62,-134.25 309.62,-134.25 309.62,-113.5 400.62,-113.5 400.62,-134.25"/>
<text text-anchor="middle" x="355.12" y="-120.75" font-family="Helvetica,sans-Serif" font-size="10.00">periph/gpio_ll.h</text>
</a>
</g>
</g>
<!-- Node5&#45;&gt;Node6 -->
<g id="edge5_Node000005_Node000006" class="edge">
<title>Node5&#45;&gt;Node6</title>
<g id="a_edge5_Node000005_Node000006"><a xlink:title=" ">
<path fill="none" stroke="#63b8ff" d="M355.12,-226.87C355.12,-209.1 355.12,-170.47 355.12,-146.18"/>
<polygon fill="#63b8ff" stroke="#63b8ff" points="358.63,-146.19 355.13,-136.19 351.63,-146.19 358.63,-146.19"/>
</a>
</g>
</g>
<!-- Node17 -->
<g id="Node000017" class="node">
<title>Node17</title>
<g id="a_Node000017"><a xlink:href="kernel__defines_8h.html" target="_top" xlink:title="Common macros and compiler attributes/pragmas configuration.">
<polygon fill="white" stroke="#666666" points="729.25,-191 633,-191 633,-170.25 729.25,-170.25 729.25,-191"/>
<text text-anchor="middle" x="681.12" y="-177.5" font-family="Helvetica,sans-Serif" font-size="10.00">kernel_defines.h</text>
</a>
</g>
</g>
<!-- Node5&#45;&gt;Node17 -->
<g id="edge21_Node000005_Node000017" class="edge">
<title>Node5&#45;&gt;Node17</title>
<g id="a_edge21_Node000005_Node000017"><a xlink:title=" ">
<path fill="none" stroke="#63b8ff" d="M396.08,-229.5C452.99,-219.94 556.32,-202.59 621.7,-191.61"/>
<polygon fill="#63b8ff" stroke="#63b8ff" points="621.87,-195.12 631.16,-190.02 620.72,-188.22 621.87,-195.12"/>
</a>
</g>
</g>
<!-- Node7 -->
<g id="Node000007" class="node">
<title>Node7</title>
<g id="a_Node000007"><a xlink:href="assert_8h.html" target="_top" xlink:title="POSIX.1&#45;2008 compliant version of the assert macro.">
<polygon fill="white" stroke="#666666" points="610.62,-77.5 555.62,-77.5 555.62,-56.75 610.62,-56.75 610.62,-77.5"/>
<text text-anchor="middle" x="583.12" y="-64" font-family="Helvetica,sans-Serif" font-size="10.00">assert.h</text>
</a>
</g>
</g>
<!-- Node6&#45;&gt;Node7 -->
<g id="edge6_Node000006_Node000007" class="edge">
<title>Node6&#45;&gt;Node7</title>
<g id="a_edge6_Node000006_Node000007"><a xlink:title=" ">
<path fill="none" stroke="#63b8ff" d="M396.15,-113.02C438.22,-102.92 503.17,-87.33 544.39,-77.43"/>
<polygon fill="#63b8ff" stroke="#63b8ff" points="544.97,-80.89 553.87,-75.15 543.33,-74.08 544.97,-80.89"/>
</a>
</g>
</g>
<!-- Node8 -->
<g id="Node000008" class="node">
<title>Node8</title>
<g id="a_Node000008"><a xlink:title=" ">
<polygon fill="#e0e0e0" stroke="#999999" points="637.5,-20.75 584.75,-20.75 584.75,0 637.5,0 637.5,-20.75"/>
<text text-anchor="middle" x="611.12" y="-7.25" font-family="Helvetica,sans-Serif" font-size="10.00">stdint.h</text>
</a>
</g>
</g>
<!-- Node6&#45;&gt;Node8 -->
<g id="edge9_Node000006_Node000008" class="edge">
<title>Node6&#45;&gt;Node8</title>
<g id="a_edge9_Node000006_Node000008"><a xlink:title=" ">
<path fill="none" stroke="#63b8ff" d="M400.18,-113.07C431.32,-105.45 473.24,-93.48 508.12,-77.5 537.87,-63.87 569.1,-42.72 589.26,-28.02"/>
<polygon fill="#63b8ff" stroke="#63b8ff" points="591.31,-30.86 597.26,-22.09 587.14,-25.23 591.31,-30.86"/>
</a>
</g>
</g>
<!-- Node9 -->
<g id="Node000009" class="node">
<title>Node9</title>
<g id="a_Node000009"><a xlink:title=" ">
<polygon fill="#e0e0e0" stroke="#999999" points="256.62,-77.5 195.62,-77.5 195.62,-56.75 256.62,-56.75 256.62,-77.5"/>
<text text-anchor="middle" x="226.12" y="-64" font-family="Helvetica,sans-Serif" font-size="10.00">stdbool.h</text>
</a>
</g>
</g>
<!-- Node6&#45;&gt;Node9 -->
<g id="edge8_Node000006_Node000009" class="edge">
<title>Node6&#45;&gt;Node9</title>
<g id="a_edge8_Node000006_Node000009"><a xlink:title=" ">
<path fill="none" stroke="#63b8ff" d="M332.06,-113.09C311.88,-104.52 282.32,-91.98 259.55,-82.31"/>
<polygon fill="#63b8ff" stroke="#63b8ff" points="260.95,-79.1 250.38,-78.42 258.22,-85.55 260.95,-79.1"/>
</a>
</g>
</g>
<!-- Node10 -->
<g id="Node000010" class="node">
<title>Node10</title>
<g id="a_Node000010"><a xlink:href="architecture_8h.html" target="_top" xlink:title="Platform&#45;independent access to architecture details.">
<polygon fill="white" stroke="#666666" points="396.88,-77.5 313.38,-77.5 313.38,-56.75 396.88,-56.75 396.88,-77.5"/>
<text text-anchor="middle" x="355.12" y="-64" font-family="Helvetica,sans-Serif" font-size="10.00">architecture.h</text>
</a>
</g>
</g>
<!-- Node6&#45;&gt;Node10 -->
<g id="edge10_Node000006_Node000010" class="edge">
<title>Node6&#45;&gt;Node10</title>
<g id="a_edge10_Node000006_Node000010"><a xlink:title=" ">
<path fill="none" stroke="#63b8ff" d="M355.12,-113.09C355.12,-106.47 355.12,-97.47 355.12,-89.27"/>
<polygon fill="#63b8ff" stroke="#63b8ff" points="358.63,-89.34 355.13,-79.34 351.63,-89.34 358.63,-89.34"/>
</a>
</g>
</g>
<!-- Node14 -->
<g id="Node000014" class="node">
<title>Node14</title>
<g id="a_Node000014"><a xlink:href="drivers_2include_2periph_2gpio_8h.html" target="_top" xlink:title="Low&#45;level GPIO peripheral driver interface definitions.">
<polygon fill="white" stroke="#666666" points="178,-77.5 98.25,-77.5 98.25,-56.75 178,-56.75 178,-77.5"/>
<text text-anchor="middle" x="138.12" y="-64" font-family="Helvetica,sans-Serif" font-size="10.00">periph/gpio.h</text>
</a>
</g>
</g>
<!-- Node6&#45;&gt;Node14 -->
<g id="edge15_Node000006_Node000014" class="edge">
<title>Node6&#45;&gt;Node14</title>
<g id="a_edge15_Node000006_Node000014"><a xlink:title=" ">
<path fill="none" stroke="#63b8ff" d="M316.08,-113.02C280.32,-104 227.19,-90.6 188.29,-80.78"/>
<polygon fill="#63b8ff" stroke="#63b8ff" points="189.24,-77.41 178.69,-78.36 187.53,-84.2 189.24,-77.41"/>
</a>
</g>
</g>
<!-- Node15 -->
<g id="Node000015" class="node">
<title>Node15</title>
<g id="a_Node000015"><a xlink:title=" ">
<polygon fill="#e0e0e0" stroke="#999999" points="215.25,-20.75 137,-20.75 137,0 215.25,0 215.25,-20.75"/>
<text text-anchor="middle" x="176.12" y="-7.25" font-family="Helvetica,sans-Serif" font-size="10.00">periph_cpu.h</text>
</a>
</g>
</g>
<!-- Node6&#45;&gt;Node15 -->
<g id="edge19_Node000006_Node000015" class="edge">
<title>Node6&#45;&gt;Node15</title>
<g id="a_edge19_Node000006_Node000015"><a xlink:title=" ">
<path fill="none" stroke="#63b8ff" d="M343.49,-113.21C326.92,-99.69 295.28,-74.75 266.12,-56.75 247.63,-45.33 225.89,-34.31 208.41,-25.99"/>
<polygon fill="#63b8ff" stroke="#63b8ff" points="210.06,-22.9 199.52,-21.82 207.09,-29.24 210.06,-22.9"/>
</a>
</g>
</g>
<!-- Node16 -->
<g id="Node000016" class="node">
<title>Node16</title>
<g id="a_Node000016"><a xlink:title=" ">
<polygon fill="#e0e0e0" stroke="#999999" points="498.88,-77.5 415.38,-77.5 415.38,-56.75 498.88,-56.75 498.88,-77.5"/>
<text text-anchor="middle" x="457.12" y="-64" font-family="Helvetica,sans-Serif" font-size="10.00">gpio_ll_arch.h</text>
</a>
</g>
</g>
<!-- Node6&#45;&gt;Node16 -->
<g id="edge20_Node000006_Node000016" class="edge">
<title>Node6&#45;&gt;Node16</title>
<g id="a_edge20_Node000006_Node000016"><a xlink:title=" ">
<path fill="none" stroke="#63b8ff" d="M373.36,-113.09C388.81,-104.8 411.21,-92.77 428.96,-83.24"/>
<polygon fill="#63b8ff" stroke="#63b8ff" points="430.56,-86.36 437.71,-78.54 427.25,-80.19 430.56,-86.36"/>
</a>
</g>
</g>
<!-- Node7&#45;&gt;Node8 -->
<g id="edge7_Node000007_Node000008" class="edge">
<title>Node7&#45;&gt;Node8</title>
<g id="a_edge7_Node000007_Node000008"><a xlink:title=" ">
<path fill="none" stroke="#63b8ff" d="M588.13,-56.34C591.71,-49.33 596.66,-39.66 601.05,-31.08"/>
<polygon fill="#63b8ff" stroke="#63b8ff" points="604.04,-32.92 605.47,-22.43 597.8,-29.74 604.04,-32.92"/>
</a>
</g>
</g>
<!-- Node10&#45;&gt;Node8 -->
<g id="edge11_Node000010_Node000008" class="edge">
<title>Node10&#45;&gt;Node8</title>
<g id="a_edge11_Node000010_Node000008"><a xlink:title=" ">
<path fill="none" stroke="#63b8ff" d="M397.11,-57.15C446.02,-46.69 526.11,-29.56 573.2,-19.49"/>
<polygon fill="#63b8ff" stroke="#63b8ff" points="573.9,-22.92 582.95,-17.4 572.43,-16.07 573.9,-22.92"/>
</a>
</g>
</g>
<!-- Node11 -->
<g id="Node000011" class="node">
<title>Node11</title>
<g id="a_Node000011"><a xlink:href="inttypes_8h.html" target="_top" xlink:title="Adds include for missing inttype definitions.">
<polygon fill="white" stroke="#666666" points="374.5,-20.75 309.75,-20.75 309.75,0 374.5,0 374.5,-20.75"/>
<text text-anchor="middle" x="342.12" y="-7.25" font-family="Helvetica,sans-Serif" font-size="10.00">inttypes.h</text>
</a>
</g>
</g>
<!-- Node10&#45;&gt;Node11 -->
<g id="edge12_Node000010_Node000011" class="edge">
<title>Node10&#45;&gt;Node11</title>
<g id="a_edge12_Node000010_Node000011"><a xlink:title=" ">
<path fill="none" stroke="#63b8ff" d="M352.8,-56.34C351.21,-49.64 349.04,-40.51 347.08,-32.23"/>
<polygon fill="#63b8ff" stroke="#63b8ff" points="350.49,-31.47 344.78,-22.55 343.68,-33.09 350.49,-31.47"/>
</a>
</g>
</g>
<!-- Node12 -->
<g id="Node000012" class="node">
<title>Node12</title>
<g id="a_Node000012"><a xlink:title=" ">
<polygon fill="#e0e0e0" stroke="#999999" points="289.5,-20.75 236.75,-20.75 236.75,0 289.5,0 289.5,-20.75"/>
<text text-anchor="middle" x="263.12" y="-7.25" font-family="Helvetica,sans-Serif" font-size="10.00">limits.h</text>
</a>
</g>
</g>
<!-- Node10&#45;&gt;Node12 -->
<g id="edge13_Node000010_Node000012" class="edge">
<title>Node10&#45;&gt;Node12</title>
<g id="a_edge13_Node000010_Node000012"><a xlink:title=" ">
<path fill="none" stroke="#63b8ff" d="M338.68,-56.34C324.94,-48.16 305.11,-36.36 289.21,-26.9"/>
<polygon fill="#63b8ff" stroke="#63b8ff" points="291.11,-23.96 280.73,-21.85 287.53,-29.97 291.11,-23.96"/>
</a>
</g>
</g>
<!-- Node13 -->
<g id="Node000013" class="node">
<title>Node13</title>
<g id="a_Node000013"><a xlink:title=" ">
<polygon fill="#e0e0e0" stroke="#999999" points="502,-20.75 392.25,-20.75 392.25,0 502,0 502,-20.75"/>
<text text-anchor="middle" x="447.12" y="-7.25" font-family="Helvetica,sans-Serif" font-size="10.00">architecture_arch.h</text>
</a>
</g>
</g>
<!-- Node10&#45;&gt;Node13 -->
<g id="edge14_Node000010_Node000013" class="edge">
<title>Node10&#45;&gt;Node13</title>
<g id="a_edge14_Node000010_Node000013"><a xlink:title=" ">
<path fill="none" stroke="#63b8ff" d="M371.57,-56.34C385.31,-48.16 405.14,-36.36 421.04,-26.9"/>
<polygon fill="#63b8ff" stroke="#63b8ff" points="422.72,-29.97 429.52,-21.85 419.14,-23.96 422.72,-29.97"/>
</a>
</g>
</g>
<!-- Node14&#45;&gt;Node4 -->
<g id="edge18_Node000014_Node000004" class="edge">
<title>Node14&#45;&gt;Node4</title>
<g id="a_edge18_Node000014_Node000004"><a xlink:title=" ">
<path fill="none" stroke="#63b8ff" d="M126.33,-56.34C116.94,-48.55 103.59,-37.47 92.48,-28.26"/>
<polygon fill="#63b8ff" stroke="#63b8ff" points="94.92,-25.74 84.99,-22.04 90.45,-31.12 94.92,-25.74"/>
</a>
</g>
</g>
<!-- Node14&#45;&gt;Node12 -->
<g id="edge16_Node000014_Node000012" class="edge">
<title>Node14&#45;&gt;Node12</title>
<g id="a_edge16_Node000014_Node000012"><a xlink:title=" ">
<path fill="none" stroke="#63b8ff" d="M160.47,-56.34C179.94,-47.81 208.41,-35.34 230.43,-25.69"/>
<polygon fill="#63b8ff" stroke="#63b8ff" points="231.83,-28.9 239.58,-21.69 229.02,-22.49 231.83,-28.9"/>
</a>
</g>
</g>
<!-- Node14&#45;&gt;Node15 -->
<g id="edge17_Node000014_Node000015" class="edge">
<title>Node14&#45;&gt;Node15</title>
<g id="a_edge17_Node000014_Node000015"><a xlink:title=" ">
<path fill="none" stroke="#63b8ff" d="M144.92,-56.34C149.89,-49.17 156.79,-39.23 162.85,-30.51"/>
<polygon fill="#63b8ff" stroke="#63b8ff" points="165.7,-32.53 168.53,-22.32 159.95,-28.54 165.7,-32.53"/>
</a>
</g>
</g>
<!-- Node18 -->
<g id="Node000018" class="node">
<title>Node18</title>
<g id="a_Node000018"><a xlink:href="modules_8h.html" target="_top" xlink:title="Common macros and compiler attributes/pragmas configuration.">
<polygon fill="white" stroke="#666666" points="801.62,-134.25 734.62,-134.25 734.62,-113.5 801.62,-113.5 801.62,-134.25"/>
<text text-anchor="middle" x="768.12" y="-120.75" font-family="Helvetica,sans-Serif" font-size="10.00">modules.h</text>
</a>
</g>
</g>
<!-- Node17&#45;&gt;Node18 -->
<g id="edge22_Node000017_Node000018" class="edge">
<title>Node17&#45;&gt;Node18</title>
<g id="a_edge22_Node000017_Node000018"><a xlink:title=" ">
<path fill="none" stroke="#63b8ff" d="M696.68,-169.84C709.55,-161.74 728.07,-150.08 743.03,-140.67"/>
<polygon fill="#63b8ff" stroke="#63b8ff" points="744.83,-143.67 751.42,-135.38 741.1,-137.75 744.83,-143.67"/>
</a>
</g>
</g>
<!-- Node19 -->
<g id="Node000019" class="node">
<title>Node19</title>
<g id="a_Node000019"><a xlink:href="riot__version_8h.html" target="_top" xlink:title="Common macros and compiler attributes/pragmas configuration.">
<polygon fill="white" stroke="#666666" points="902.5,-134.25 819.75,-134.25 819.75,-113.5 902.5,-113.5 902.5,-134.25"/>
<text text-anchor="middle" x="861.12" y="-120.75" font-family="Helvetica,sans-Serif" font-size="10.00">riot_version.h</text>
</a>
</g>
</g>
<!-- Node17&#45;&gt;Node19 -->
<g id="edge23_Node000017_Node000019" class="edge">
<title>Node17&#45;&gt;Node19</title>
<g id="a_edge23_Node000017_Node000019"><a xlink:title=" ">
<path fill="none" stroke="#63b8ff" d="M713.31,-169.84C742.52,-160.95 785.84,-147.77 818.04,-137.98"/>
<polygon fill="#63b8ff" stroke="#63b8ff" points="818.92,-141.37 827.47,-135.11 816.89,-134.67 818.92,-141.37"/>
</a>
</g>
</g>
<!-- Node20 -->
<g id="Node000020" class="node">
<title>Node20</title>
<g id="a_Node000020"><a xlink:href="compiler__hints_8h.html" target="_top" xlink:title="Common macros and compiler attributes/pragmas configuration.">
<polygon fill="white" stroke="#666666" points="627.62,-134.25 530.62,-134.25 530.62,-113.5 627.62,-113.5 627.62,-134.25"/>
<text text-anchor="middle" x="579.12" y="-120.75" font-family="Helvetica,sans-Serif" font-size="10.00">compiler_hints.h</text>
</a>
</g>
</g>
<!-- Node17&#45;&gt;Node20 -->
<g id="edge25_Node000017_Node000020" class="edge">
<title>Node17&#45;&gt;Node20</title>
<g id="a_edge25_Node000017_Node000020"><a xlink:title=" ">
<path fill="none" stroke="#63b8ff" d="M662.89,-169.84C647.44,-161.55 625.04,-149.52 607.29,-139.99"/>
<polygon fill="#63b8ff" stroke="#63b8ff" points="609,-136.94 598.54,-135.29 605.69,-143.11 609,-136.94"/>
</a>
</g>
</g>
<!-- Node21 -->
<g id="Node000021" class="node">
<title>Node21</title>
<g id="a_Node000021"><a xlink:href="container_8h.html" target="_top" xlink:title="Common macros and compiler attributes/pragmas configuration.">
<polygon fill="white" stroke="#666666" points="716.5,-134.25 645.75,-134.25 645.75,-113.5 716.5,-113.5 716.5,-134.25"/>
<text text-anchor="middle" x="681.12" y="-120.75" font-family="Helvetica,sans-Serif" font-size="10.00">container.h</text>
</a>
</g>
</g>
<!-- Node17&#45;&gt;Node21 -->
<g id="edge28_Node000017_Node000021" class="edge">
<title>Node17&#45;&gt;Node21</title>
<g id="a_edge28_Node000017_Node000021"><a xlink:title=" ">
<path fill="none" stroke="#63b8ff" d="M681.12,-169.84C681.12,-163.22 681.12,-154.22 681.12,-146.02"/>
<polygon fill="#63b8ff" stroke="#63b8ff" points="684.63,-146.09 681.13,-136.09 677.63,-146.09 684.63,-146.09"/>
</a>
</g>
</g>
<!-- Node19&#45;&gt;Node8 -->
<g id="edge24_Node000019_Node000008" class="edge">
<title>Node19&#45;&gt;Node8</title>
<g id="a_edge24_Node000019_Node000008"><a xlink:title=" ">
<path fill="none" stroke="#63b8ff" d="M850.45,-113.16C834.24,-98.87 801.9,-72.23 770.12,-56.75 730.76,-37.58 681.87,-25.15 648.77,-18.23"/>
<polygon fill="#63b8ff" stroke="#63b8ff" points="649.74,-14.85 639.24,-16.31 648.35,-21.71 649.74,-14.85"/>
</a>
</g>
</g>
<!-- Node20&#45;&gt;Node7 -->
<g id="edge26_Node000020_Node000007" class="edge">
<title>Node20&#45;&gt;Node7</title>
<g id="a_edge26_Node000020_Node000007"><a xlink:title=" ">
<path fill="none" stroke="#63b8ff" d="M579.84,-113.09C580.32,-106.47 580.98,-97.47 581.58,-89.27"/>
<polygon fill="#63b8ff" stroke="#63b8ff" points="585.07,-89.57 582.31,-79.34 578.09,-89.06 585.07,-89.57"/>
</a>
</g>
</g>
<!-- Node20&#45;&gt;Node8 -->
<g id="edge27_Node000020_Node000008" class="edge">
<title>Node20&#45;&gt;Node8</title>
<g id="a_edge27_Node000020_Node000008"><a xlink:title=" ">
<path fill="none" stroke="#63b8ff" d="M591.85,-113.29C601.66,-105.04 614.48,-92.16 620.12,-77.5 625.73,-62.93 622.94,-45.38 619.04,-32.02"/>
<polygon fill="#63b8ff" stroke="#63b8ff" points="622.37,-30.92 615.84,-22.57 615.74,-33.16 622.37,-30.92"/>
</a>
</g>
</g>
<!-- Node21&#45;&gt;Node8 -->
<g id="edge30_Node000021_Node000008" class="edge">
<title>Node21&#45;&gt;Node8</title>
<g id="a_edge30_Node000021_Node000008"><a xlink:title=" ">
<path fill="none" stroke="#63b8ff" d="M675.16,-113.37C663.69,-95.11 638.4,-54.81 623.25,-30.7"/>
<polygon fill="#63b8ff" stroke="#63b8ff" points="626.36,-29.07 618.08,-22.46 620.44,-32.79 626.36,-29.07"/>
</a>
</g>
</g>
<!-- Node22 -->
<g id="Node000022" class="node">
<title>Node22</title>
<g id="a_Node000022"><a xlink:title=" ">
<polygon fill="#e0e0e0" stroke="#999999" points="760.62,-77.5 705.62,-77.5 705.62,-56.75 760.62,-56.75 760.62,-77.5"/>
<text text-anchor="middle" x="733.12" y="-64" font-family="Helvetica,sans-Serif" font-size="10.00">stddef.h</text>
</a>
</g>
</g>
<!-- Node21&#45;&gt;Node22 -->
<g id="edge29_Node000021_Node000022" class="edge">
<title>Node21&#45;&gt;Node22</title>
<g id="a_edge29_Node000021_Node000022"><a xlink:title=" ">
<path fill="none" stroke="#63b8ff" d="M690.42,-113.09C697.52,-105.61 707.5,-95.11 716.03,-86.13"/>
<polygon fill="#63b8ff" stroke="#63b8ff" points="718.52,-88.59 722.87,-78.93 713.44,-83.77 718.52,-88.59"/>
</a>
</g>
</g>
</g>
</svg>
