<?xml version="1.0" encoding="UTF-8" standalone="no"?>
<!DOCTYPE svg PUBLIC "-//W3C//DTD SVG 1.1//EN"
 "http://www.w3.org/Graphics/SVG/1.1/DTD/svg11.dtd">
<!-- Generated by graphviz version 12.1.1 (0)
 -->
<!-- Title: boards/nucleo&#45;wl55jc/include/gpio_params.h Pages: 1 -->
<svg width="1025pt" height="382pt"
 viewBox="0.00 0.00 1025.00 382.00" xmlns="http://www.w3.org/2000/svg" xmlns:xlink="http://www.w3.org/1999/xlink">
<g id="graph0" class="graph" transform="scale(1 1) rotate(0) translate(4 378)">
<title>boards/nucleo&#45;wl55jc/include/gpio_params.h</title>
<!-- Node1 -->
<g id="Node000001" class="node">
<title>Node1</title>
<g id="a_Node000001"><a xlink:title="Board specific configuration of direct mapped GPIOs.">
<polygon fill="#999999" stroke="#666666" points="1017,-374 887.75,-374 887.75,-340.5 1017,-340.5 1017,-374"/>
<text text-anchor="start" x="895.75" y="-360.5" font-family="Helvetica,sans-Serif" font-size="10.00">boards/nucleo&#45;wl55jc</text>
<text text-anchor="middle" x="952.38" y="-347.75" font-family="Helvetica,sans-Serif" font-size="10.00">/include/gpio_params.h</text>
</a>
</g>
</g>
<!-- Node2 -->
<g id="Node000002" class="node">
<title>Node2</title>
<g id="a_Node000002"><a xlink:href="nucleo-wl55jc_2include_2board_8h.html" target="_top" xlink:title="Pin definitions and board configuration options.">
<polygon fill="white" stroke="#666666" points="935.75,-304.5 883,-304.5 883,-283.75 935.75,-283.75 935.75,-304.5"/>
<text text-anchor="middle" x="909.38" y="-291" font-family="Helvetica,sans-Serif" font-size="10.00">board.h</text>
</a>
</g>
</g>
<!-- Node1&#45;&gt;Node2 -->
<g id="edge1_Node000001_Node000002" class="edge">
<title>Node1&#45;&gt;Node2</title>
<g id="a_edge1_Node000001_Node000002"><a xlink:title=" ">
<path fill="none" stroke="#63b8ff" d="M941.08,-340.19C935.49,-332.24 928.7,-322.59 922.84,-314.27"/>
<polygon fill="#63b8ff" stroke="#63b8ff" points="925.79,-312.37 917.17,-306.2 920.06,-316.4 925.79,-312.37"/>
</a>
</g>
</g>
<!-- Node24 -->
<g id="Node000024" class="node">
<title>Node24</title>
<g id="a_Node000024"><a xlink:href="periph_8h.html" target="_top" xlink:title="Parameter definitions for mapping peripherals directly to SAUL.">
<polygon fill="white" stroke="#666666" points="873.88,-134.25 794.88,-134.25 794.88,-113.5 873.88,-113.5 873.88,-134.25"/>
<text text-anchor="middle" x="834.38" y="-120.75" font-family="Helvetica,sans-Serif" font-size="10.00">saul/periph.h</text>
</a>
</g>
</g>
<!-- Node1&#45;&gt;Node24 -->
<g id="edge32_Node000001_Node000024" class="edge">
<title>Node1&#45;&gt;Node24</title>
<g id="a_edge32_Node000001_Node000024"><a xlink:title=" ">
<path fill="none" stroke="#63b8ff" d="M957.14,-340.05C963.68,-315.29 973.51,-266.71 963.38,-227 956.27,-199.15 953.36,-189.89 932.38,-170.25 917.34,-156.18 897.17,-145.83 879.03,-138.6"/>
<polygon fill="#63b8ff" stroke="#63b8ff" points="880.37,-135.36 869.78,-135.13 877.91,-141.92 880.37,-135.36"/>
</a>
</g>
</g>
<!-- Node3 -->
<g id="Node000003" class="node">
<title>Node3</title>
<g id="a_Node000003"><a xlink:href="board__nucleo_8h.html" target="_top" xlink:title="Global common Nucleo board configuration.">
<polygon fill="white" stroke="#666666" points="954.5,-247.75 864.25,-247.75 864.25,-227 954.5,-227 954.5,-247.75"/>
<text text-anchor="middle" x="909.38" y="-234.25" font-family="Helvetica,sans-Serif" font-size="10.00">board_nucleo.h</text>
</a>
</g>
</g>
<!-- Node2&#45;&gt;Node3 -->
<g id="edge2_Node000002_Node000003" class="edge">
<title>Node2&#45;&gt;Node3</title>
<g id="a_edge2_Node000002_Node000003"><a xlink:title=" ">
<path fill="none" stroke="#63b8ff" d="M909.38,-283.34C909.38,-276.72 909.38,-267.72 909.38,-259.52"/>
<polygon fill="#63b8ff" stroke="#63b8ff" points="912.88,-259.59 909.38,-249.59 905.88,-259.59 912.88,-259.59"/>
</a>
</g>
</g>
<!-- Node6 -->
<g id="Node000006" class="node">
<title>Node6</title>
<g id="a_Node000006"><a xlink:href="stm32__leds_8h.html" target="_top" xlink:title="Common LED macros.">
<polygon fill="white" stroke="#666666" points="513,-247.75 431.75,-247.75 431.75,-227 513,-227 513,-247.75"/>
<text text-anchor="middle" x="472.38" y="-234.25" font-family="Helvetica,sans-Serif" font-size="10.00">stm32_leds.h</text>
</a>
</g>
</g>
<!-- Node2&#45;&gt;Node6 -->
<g id="edge5_Node000002_Node000006" class="edge">
<title>Node2&#45;&gt;Node6</title>
<g id="a_edge5_Node000002_Node000006"><a xlink:title=" ">
<path fill="none" stroke="#63b8ff" d="M882.7,-289.78C811.9,-280.91 618.28,-256.65 524.56,-244.91"/>
<polygon fill="#63b8ff" stroke="#63b8ff" points="525.23,-241.47 514.88,-243.7 524.36,-248.42 525.23,-241.47"/>
</a>
</g>
</g>
<!-- Node4 -->
<g id="Node000004" class="node">
<title>Node4</title>
<g id="a_Node000004"><a xlink:title=" ">
<polygon fill="#e0e0e0" stroke="#999999" points="923.5,-191 881.25,-191 881.25,-170.25 923.5,-170.25 923.5,-191"/>
<text text-anchor="middle" x="902.38" y="-177.5" font-family="Helvetica,sans-Serif" font-size="10.00">cpu.h</text>
</a>
</g>
</g>
<!-- Node3&#45;&gt;Node4 -->
<g id="edge3_Node000003_Node000004" class="edge">
<title>Node3&#45;&gt;Node4</title>
<g id="a_edge3_Node000003_Node000004"><a xlink:title=" ">
<path fill="none" stroke="#63b8ff" d="M908.12,-226.59C907.27,-219.89 906.1,-210.76 905.04,-202.48"/>
<polygon fill="#63b8ff" stroke="#63b8ff" points="908.55,-202.31 903.81,-192.83 901.6,-203.19 908.55,-202.31"/>
</a>
</g>
</g>
<!-- Node5 -->
<g id="Node000005" class="node">
<title>Node5</title>
<g id="a_Node000005"><a xlink:title=" ">
<polygon fill="#e0e0e0" stroke="#999999" points="917,-20.75 835.75,-20.75 835.75,0 917,0 917,-20.75"/>
<text text-anchor="middle" x="876.38" y="-7.25" font-family="Helvetica,sans-Serif" font-size="10.00">periph_conf.h</text>
</a>
</g>
</g>
<!-- Node3&#45;&gt;Node5 -->
<g id="edge4_Node000003_Node000005" class="edge">
<title>Node3&#45;&gt;Node5</title>
<g id="a_edge4_Node000003_Node000005"><a xlink:title=" ">
<path fill="none" stroke="#63b8ff" d="M915.91,-226.81C921.53,-217.96 929.21,-204.23 932.38,-191 946.24,-132.97 958.05,-110.61 932.38,-56.75 926.6,-44.64 915.85,-34.72 905.29,-27.27"/>
<polygon fill="#63b8ff" stroke="#63b8ff" points="907.37,-24.45 897.08,-21.96 903.57,-30.33 907.37,-24.45"/>
</a>
</g>
</g>
<!-- Node7 -->
<g id="Node000007" class="node">
<title>Node7</title>
<g id="a_Node000007"><a xlink:href="gpio__ll_8h.html" target="_top" xlink:title="Peripheral GPIO Low&#45;Level API.">
<polygon fill="white" stroke="#666666" points="517.88,-134.25 426.88,-134.25 426.88,-113.5 517.88,-113.5 517.88,-134.25"/>
<text text-anchor="middle" x="472.38" y="-120.75" font-family="Helvetica,sans-Serif" font-size="10.00">periph/gpio_ll.h</text>
</a>
</g>
</g>
<!-- Node6&#45;&gt;Node7 -->
<g id="edge6_Node000006_Node000007" class="edge">
<title>Node6&#45;&gt;Node7</title>
<g id="a_edge6_Node000006_Node000007"><a xlink:title=" ">
<path fill="none" stroke="#63b8ff" d="M472.38,-226.87C472.38,-209.1 472.38,-170.47 472.38,-146.18"/>
<polygon fill="#63b8ff" stroke="#63b8ff" points="475.88,-146.19 472.38,-136.19 468.88,-146.19 475.88,-146.19"/>
</a>
</g>
</g>
<!-- Node18 -->
<g id="Node000018" class="node">
<title>Node18</title>
<g id="a_Node000018"><a xlink:href="kernel__defines_8h.html" target="_top" xlink:title="Common macros and compiler attributes/pragmas configuration.">
<polygon fill="white" stroke="#666666" points="288.5,-191 192.25,-191 192.25,-170.25 288.5,-170.25 288.5,-191"/>
<text text-anchor="middle" x="240.38" y="-177.5" font-family="Helvetica,sans-Serif" font-size="10.00">kernel_defines.h</text>
</a>
</g>
</g>
<!-- Node6&#45;&gt;Node18 -->
<g id="edge22_Node000006_Node000018" class="edge">
<title>Node6&#45;&gt;Node18</title>
<g id="a_edge22_Node000006_Node000018"><a xlink:title=" ">
<path fill="none" stroke="#63b8ff" d="M431.43,-226.71C392.94,-217.63 335.14,-203.99 293.19,-194.09"/>
<polygon fill="#63b8ff" stroke="#63b8ff" points="294.09,-190.71 283.55,-191.81 292.48,-197.52 294.09,-190.71"/>
</a>
</g>
</g>
<!-- Node8 -->
<g id="Node000008" class="node">
<title>Node8</title>
<g id="a_Node000008"><a xlink:href="assert_8h.html" target="_top" xlink:title="POSIX.1&#45;2008 compliant version of the assert macro.">
<polygon fill="white" stroke="#666666" points="271.88,-77.5 216.88,-77.5 216.88,-56.75 271.88,-56.75 271.88,-77.5"/>
<text text-anchor="middle" x="244.38" y="-64" font-family="Helvetica,sans-Serif" font-size="10.00">assert.h</text>
</a>
</g>
</g>
<!-- Node7&#45;&gt;Node8 -->
<g id="edge7_Node000007_Node000008" class="edge">
<title>Node7&#45;&gt;Node8</title>
<g id="a_edge7_Node000007_Node000008"><a xlink:title=" ">
<path fill="none" stroke="#63b8ff" d="M431.35,-113.02C389.28,-102.92 324.33,-87.33 283.11,-77.43"/>
<polygon fill="#63b8ff" stroke="#63b8ff" points="284.17,-74.08 273.63,-75.15 282.53,-80.89 284.17,-74.08"/>
</a>
</g>
</g>
<!-- Node9 -->
<g id="Node000009" class="node">
<title>Node9</title>
<g id="a_Node000009"><a xlink:title=" ">
<polygon fill="#e0e0e0" stroke="#999999" points="283.75,-20.75 231,-20.75 231,0 283.75,0 283.75,-20.75"/>
<text text-anchor="middle" x="257.38" y="-7.25" font-family="Helvetica,sans-Serif" font-size="10.00">stdint.h</text>
</a>
</g>
</g>
<!-- Node7&#45;&gt;Node9 -->
<g id="edge10_Node000007_Node000009" class="edge">
<title>Node7&#45;&gt;Node9</title>
<g id="a_edge10_Node000007_Node000009"><a xlink:title=" ">
<path fill="none" stroke="#63b8ff" d="M426.59,-115.85C394.74,-109.45 352.27,-97.8 319.38,-77.5 299.57,-65.28 281.96,-45.11 270.61,-30.26"/>
<polygon fill="#63b8ff" stroke="#63b8ff" points="273.44,-28.2 264.71,-22.21 267.8,-32.34 273.44,-28.2"/>
</a>
</g>
</g>
<!-- Node10 -->
<g id="Node000010" class="node">
<title>Node10</title>
<g id="a_Node000010"><a xlink:title=" ">
<polygon fill="#e0e0e0" stroke="#999999" points="592.88,-77.5 531.88,-77.5 531.88,-56.75 592.88,-56.75 592.88,-77.5"/>
<text text-anchor="middle" x="562.38" y="-64" font-family="Helvetica,sans-Serif" font-size="10.00">stdbool.h</text>
</a>
</g>
</g>
<!-- Node7&#45;&gt;Node10 -->
<g id="edge9_Node000007_Node000010" class="edge">
<title>Node7&#45;&gt;Node10</title>
<g id="a_edge9_Node000007_Node000010"><a xlink:title=" ">
<path fill="none" stroke="#63b8ff" d="M488.47,-113.09C501.9,-104.91 521.31,-93.11 536.86,-83.65"/>
<polygon fill="#63b8ff" stroke="#63b8ff" points="538.41,-86.8 545.13,-78.62 534.77,-80.82 538.41,-86.8"/>
</a>
</g>
</g>
<!-- Node11 -->
<g id="Node000011" class="node">
<title>Node11</title>
<g id="a_Node000011"><a xlink:href="architecture_8h.html" target="_top" xlink:title="Platform&#45;independent access to architecture details.">
<polygon fill="white" stroke="#666666" points="412.12,-77.5 328.62,-77.5 328.62,-56.75 412.12,-56.75 412.12,-77.5"/>
<text text-anchor="middle" x="370.38" y="-64" font-family="Helvetica,sans-Serif" font-size="10.00">architecture.h</text>
</a>
</g>
</g>
<!-- Node7&#45;&gt;Node11 -->
<g id="edge11_Node000007_Node000011" class="edge">
<title>Node7&#45;&gt;Node11</title>
<g id="a_edge11_Node000007_Node000011"><a xlink:title=" ">
<path fill="none" stroke="#63b8ff" d="M454.14,-113.09C438.69,-104.8 416.29,-92.77 398.54,-83.24"/>
<polygon fill="#63b8ff" stroke="#63b8ff" points="400.25,-80.19 389.79,-78.54 396.94,-86.36 400.25,-80.19"/>
</a>
</g>
</g>
<!-- Node15 -->
<g id="Node000015" class="node">
<title>Node15</title>
<g id="a_Node000015"><a xlink:href="drivers_2include_2periph_2gpio_8h.html" target="_top" xlink:title="Low&#45;level GPIO peripheral driver interface definitions.">
<polygon fill="white" stroke="#666666" points="923.25,-77.5 843.5,-77.5 843.5,-56.75 923.25,-56.75 923.25,-77.5"/>
<text text-anchor="middle" x="883.38" y="-64" font-family="Helvetica,sans-Serif" font-size="10.00">periph/gpio.h</text>
</a>
</g>
</g>
<!-- Node7&#45;&gt;Node15 -->
<g id="edge16_Node000007_Node000015" class="edge">
<title>Node7&#45;&gt;Node15</title>
<g id="a_edge16_Node000007_Node000015"><a xlink:title=" ">
<path fill="none" stroke="#63b8ff" d="M518.22,-118.09C584.98,-110.9 713.08,-96.33 831.93,-77.8"/>
<polygon fill="#63b8ff" stroke="#63b8ff" points="832.2,-81.3 841.54,-76.29 831.12,-74.39 832.2,-81.3"/>
</a>
</g>
</g>
<!-- Node16 -->
<g id="Node000016" class="node">
<title>Node16</title>
<g id="a_Node000016"><a xlink:title=" ">
<polygon fill="#e0e0e0" stroke="#999999" points="804.5,-20.75 726.25,-20.75 726.25,0 804.5,0 804.5,-20.75"/>
<text text-anchor="middle" x="765.38" y="-7.25" font-family="Helvetica,sans-Serif" font-size="10.00">periph_cpu.h</text>
</a>
</g>
</g>
<!-- Node7&#45;&gt;Node16 -->
<g id="edge20_Node000007_Node000016" class="edge">
<title>Node7&#45;&gt;Node16</title>
<g id="a_edge20_Node000007_Node000016"><a xlink:title=" ">
<path fill="none" stroke="#63b8ff" d="M518.2,-121.03C565.31,-117.49 639.59,-107.2 696.38,-77.5 718.53,-65.91 738.52,-45.05 751.21,-29.85"/>
<polygon fill="#63b8ff" stroke="#63b8ff" points="753.63,-32.41 757.17,-22.43 748.18,-28.03 753.63,-32.41"/>
</a>
</g>
</g>
<!-- Node17 -->
<g id="Node000017" class="node">
<title>Node17</title>
<g id="a_Node000017"><a xlink:title=" ">
<polygon fill="#e0e0e0" stroke="#999999" points="514.12,-77.5 430.62,-77.5 430.62,-56.75 514.12,-56.75 514.12,-77.5"/>
<text text-anchor="middle" x="472.38" y="-64" font-family="Helvetica,sans-Serif" font-size="10.00">gpio_ll_arch.h</text>
</a>
</g>
</g>
<!-- Node7&#45;&gt;Node17 -->
<g id="edge21_Node000007_Node000017" class="edge">
<title>Node7&#45;&gt;Node17</title>
<g id="a_edge21_Node000007_Node000017"><a xlink:title=" ">
<path fill="none" stroke="#63b8ff" d="M472.38,-113.09C472.38,-106.47 472.38,-97.47 472.38,-89.27"/>
<polygon fill="#63b8ff" stroke="#63b8ff" points="475.88,-89.34 472.38,-79.34 468.88,-89.34 475.88,-89.34"/>
</a>
</g>
</g>
<!-- Node8&#45;&gt;Node9 -->
<g id="edge8_Node000008_Node000009" class="edge">
<title>Node8&#45;&gt;Node9</title>
<g id="a_edge8_Node000008_Node000009"><a xlink:title=" ">
<path fill="none" stroke="#63b8ff" d="M246.7,-56.34C248.29,-49.64 250.46,-40.51 252.42,-32.23"/>
<polygon fill="#63b8ff" stroke="#63b8ff" points="255.82,-33.09 254.72,-22.55 249.01,-31.47 255.82,-33.09"/>
</a>
</g>
</g>
<!-- Node11&#45;&gt;Node9 -->
<g id="edge12_Node000011_Node000009" class="edge">
<title>Node11&#45;&gt;Node9</title>
<g id="a_edge12_Node000011_Node000009"><a xlink:title=" ">
<path fill="none" stroke="#63b8ff" d="M350.17,-56.34C332.82,-47.93 307.54,-35.68 287.75,-26.09"/>
<polygon fill="#63b8ff" stroke="#63b8ff" points="289.29,-22.95 278.76,-21.74 286.24,-29.25 289.29,-22.95"/>
</a>
</g>
</g>
<!-- Node12 -->
<g id="Node000012" class="node">
<title>Node12</title>
<g id="a_Node000012"><a xlink:href="inttypes_8h.html" target="_top" xlink:title="Adds include for missing inttype definitions.">
<polygon fill="white" stroke="#666666" points="390.75,-20.75 326,-20.75 326,0 390.75,0 390.75,-20.75"/>
<text text-anchor="middle" x="358.38" y="-7.25" font-family="Helvetica,sans-Serif" font-size="10.00">inttypes.h</text>
</a>
</g>
</g>
<!-- Node11&#45;&gt;Node12 -->
<g id="edge13_Node000011_Node000012" class="edge">
<title>Node11&#45;&gt;Node12</title>
<g id="a_edge13_Node000011_Node000012"><a xlink:title=" ">
<path fill="none" stroke="#63b8ff" d="M368.23,-56.34C366.76,-49.64 364.76,-40.51 362.95,-32.23"/>
<polygon fill="#63b8ff" stroke="#63b8ff" points="366.39,-31.58 360.83,-22.56 359.55,-33.07 366.39,-31.58"/>
</a>
</g>
</g>
<!-- Node13 -->
<g id="Node000013" class="node">
<title>Node13</title>
<g id="a_Node000013"><a xlink:title=" ">
<polygon fill="#e0e0e0" stroke="#999999" points="682.75,-20.75 630,-20.75 630,0 682.75,0 682.75,-20.75"/>
<text text-anchor="middle" x="656.38" y="-7.25" font-family="Helvetica,sans-Serif" font-size="10.00">limits.h</text>
</a>
</g>
</g>
<!-- Node11&#45;&gt;Node13 -->
<g id="edge14_Node000011_Node000013" class="edge">
<title>Node11&#45;&gt;Node13</title>
<g id="a_edge14_Node000011_Node000013"><a xlink:title=" ">
<path fill="none" stroke="#63b8ff" d="M412.58,-58.05C468.31,-47.38 565.6,-28.75 618.88,-18.55"/>
<polygon fill="#63b8ff" stroke="#63b8ff" points="619.21,-22.05 628.37,-16.74 617.89,-15.18 619.21,-22.05"/>
</a>
</g>
</g>
<!-- Node14 -->
<g id="Node000014" class="node">
<title>Node14</title>
<g id="a_Node000014"><a xlink:title=" ">
<polygon fill="#e0e0e0" stroke="#999999" points="518.25,-20.75 408.5,-20.75 408.5,0 518.25,0 518.25,-20.75"/>
<text text-anchor="middle" x="463.38" y="-7.25" font-family="Helvetica,sans-Serif" font-size="10.00">architecture_arch.h</text>
</a>
</g>
</g>
<!-- Node11&#45;&gt;Node14 -->
<g id="edge15_Node000011_Node000014" class="edge">
<title>Node11&#45;&gt;Node14</title>
<g id="a_edge15_Node000011_Node000014"><a xlink:title=" ">
<path fill="none" stroke="#63b8ff" d="M387,-56.34C400.89,-48.16 420.94,-36.36 437.01,-26.9"/>
<polygon fill="#63b8ff" stroke="#63b8ff" points="438.75,-29.94 445.59,-21.85 435.19,-23.9 438.75,-29.94"/>
</a>
</g>
</g>
<!-- Node15&#45;&gt;Node5 -->
<g id="edge19_Node000015_Node000005" class="edge">
<title>Node15&#45;&gt;Node5</title>
<g id="a_edge19_Node000015_Node000005"><a xlink:title=" ">
<path fill="none" stroke="#63b8ff" d="M882.12,-56.34C881.27,-49.64 880.1,-40.51 879.04,-32.23"/>
<polygon fill="#63b8ff" stroke="#63b8ff" points="882.55,-32.06 877.81,-22.58 875.6,-32.94 882.55,-32.06"/>
</a>
</g>
</g>
<!-- Node15&#45;&gt;Node13 -->
<g id="edge17_Node000015_Node000013" class="edge">
<title>Node15&#45;&gt;Node13</title>
<g id="a_edge17_Node000015_Node000013"><a xlink:title=" ">
<path fill="none" stroke="#63b8ff" d="M843.05,-56.4C800.99,-46.25 735.54,-30.47 694.36,-20.54"/>
<polygon fill="#63b8ff" stroke="#63b8ff" points="695.19,-17.14 684.65,-18.19 693.55,-23.94 695.19,-17.14"/>
</a>
</g>
</g>
<!-- Node15&#45;&gt;Node16 -->
<g id="edge18_Node000015_Node000016" class="edge">
<title>Node15&#45;&gt;Node16</title>
<g id="a_edge18_Node000015_Node000016"><a xlink:title=" ">
<path fill="none" stroke="#63b8ff" d="M862.28,-56.34C843.99,-47.85 817.27,-35.45 796.52,-25.83"/>
<polygon fill="#63b8ff" stroke="#63b8ff" points="798.21,-22.75 787.66,-21.72 795.26,-29.1 798.21,-22.75"/>
</a>
</g>
</g>
<!-- Node19 -->
<g id="Node000019" class="node">
<title>Node19</title>
<g id="a_Node000019"><a xlink:href="modules_8h.html" target="_top" xlink:title="Common macros and compiler attributes/pragmas configuration.">
<polygon fill="white" stroke="#666666" points="373.88,-134.25 306.88,-134.25 306.88,-113.5 373.88,-113.5 373.88,-134.25"/>
<text text-anchor="middle" x="340.38" y="-120.75" font-family="Helvetica,sans-Serif" font-size="10.00">modules.h</text>
</a>
</g>
</g>
<!-- Node18&#45;&gt;Node19 -->
<g id="edge23_Node000018_Node000019" class="edge">
<title>Node18&#45;&gt;Node19</title>
<g id="a_edge23_Node000018_Node000019"><a xlink:title=" ">
<path fill="none" stroke="#63b8ff" d="M258.25,-169.84C273.47,-161.51 295.57,-149.41 313.01,-139.86"/>
<polygon fill="#63b8ff" stroke="#63b8ff" points="314.23,-143.18 321.32,-135.31 310.87,-137.04 314.23,-143.18"/>
</a>
</g>
</g>
<!-- Node20 -->
<g id="Node000020" class="node">
<title>Node20</title>
<g id="a_Node000020"><a xlink:href="riot__version_8h.html" target="_top" xlink:title="Common macros and compiler attributes/pragmas configuration.">
<polygon fill="white" stroke="#666666" points="82.75,-134.25 0,-134.25 0,-113.5 82.75,-113.5 82.75,-134.25"/>
<text text-anchor="middle" x="41.38" y="-120.75" font-family="Helvetica,sans-Serif" font-size="10.00">riot_version.h</text>
</a>
</g>
</g>
<!-- Node18&#45;&gt;Node20 -->
<g id="edge24_Node000018_Node000020" class="edge">
<title>Node18&#45;&gt;Node20</title>
<g id="a_edge24_Node000018_Node000020"><a xlink:title=" ">
<path fill="none" stroke="#63b8ff" d="M204.8,-169.84C172.07,-160.83 123.35,-147.43 87.62,-137.6"/>
<polygon fill="#63b8ff" stroke="#63b8ff" points="89.01,-134.35 78.44,-135.07 87.15,-141.1 89.01,-134.35"/>
</a>
</g>
</g>
<!-- Node21 -->
<g id="Node000021" class="node">
<title>Node21</title>
<g id="a_Node000021"><a xlink:href="compiler__hints_8h.html" target="_top" xlink:title="Common macros and compiler attributes/pragmas configuration.">
<polygon fill="white" stroke="#666666" points="288.88,-134.25 191.88,-134.25 191.88,-113.5 288.88,-113.5 288.88,-134.25"/>
<text text-anchor="middle" x="240.38" y="-120.75" font-family="Helvetica,sans-Serif" font-size="10.00">compiler_hints.h</text>
</a>
</g>
</g>
<!-- Node18&#45;&gt;Node21 -->
<g id="edge26_Node000018_Node000021" class="edge">
<title>Node18&#45;&gt;Node21</title>
<g id="a_edge26_Node000018_Node000021"><a xlink:title=" ">
<path fill="none" stroke="#63b8ff" d="M240.38,-169.84C240.38,-163.22 240.38,-154.22 240.38,-146.02"/>
<polygon fill="#63b8ff" stroke="#63b8ff" points="243.88,-146.09 240.38,-136.09 236.88,-146.09 243.88,-146.09"/>
</a>
</g>
</g>
<!-- Node22 -->
<g id="Node000022" class="node">
<title>Node22</title>
<g id="a_Node000022"><a xlink:href="container_8h.html" target="_top" xlink:title="Common macros and compiler attributes/pragmas configuration.">
<polygon fill="white" stroke="#666666" points="173.75,-134.25 103,-134.25 103,-113.5 173.75,-113.5 173.75,-134.25"/>
<text text-anchor="middle" x="138.38" y="-120.75" font-family="Helvetica,sans-Serif" font-size="10.00">container.h</text>
</a>
</g>
</g>
<!-- Node18&#45;&gt;Node22 -->
<g id="edge29_Node000018_Node000022" class="edge">
<title>Node18&#45;&gt;Node22</title>
<g id="a_edge29_Node000018_Node000022"><a xlink:title=" ">
<path fill="none" stroke="#63b8ff" d="M222.14,-169.84C206.69,-161.55 184.29,-149.52 166.54,-139.99"/>
<polygon fill="#63b8ff" stroke="#63b8ff" points="168.25,-136.94 157.79,-135.29 164.94,-143.11 168.25,-136.94"/>
</a>
</g>
</g>
<!-- Node20&#45;&gt;Node9 -->
<g id="edge25_Node000020_Node000009" class="edge">
<title>Node20&#45;&gt;Node9</title>
<g id="a_edge25_Node000020_Node000009"><a xlink:title=" ">
<path fill="none" stroke="#63b8ff" d="M40.78,-113.28C40.44,-98.9 42.07,-71.84 57.38,-56.75 79.96,-34.49 167.94,-21.24 219.38,-15.24"/>
<polygon fill="#63b8ff" stroke="#63b8ff" points="219.64,-18.73 229.18,-14.13 218.86,-11.77 219.64,-18.73"/>
</a>
</g>
</g>
<!-- Node21&#45;&gt;Node8 -->
<g id="edge27_Node000021_Node000008" class="edge">
<title>Node21&#45;&gt;Node8</title>
<g id="a_edge27_Node000021_Node000008"><a xlink:title=" ">
<path fill="none" stroke="#63b8ff" d="M241.09,-113.09C241.57,-106.47 242.23,-97.47 242.83,-89.27"/>
<polygon fill="#63b8ff" stroke="#63b8ff" points="246.32,-89.57 243.56,-79.34 239.34,-89.06 246.32,-89.57"/>
</a>
</g>
</g>
<!-- Node21&#45;&gt;Node9 -->
<g id="edge28_Node000021_Node000009" class="edge">
<title>Node21&#45;&gt;Node9</title>
<g id="a_edge28_Node000021_Node000009"><a xlink:title=" ">
<path fill="none" stroke="#63b8ff" d="M229.6,-113.15C216.83,-100.37 198.33,-77.16 207.38,-56.75 212.5,-45.17 222.2,-35.29 231.7,-27.73"/>
<polygon fill="#63b8ff" stroke="#63b8ff" points="233.73,-30.58 239.74,-21.86 229.6,-24.93 233.73,-30.58"/>
</a>
</g>
</g>
<!-- Node22&#45;&gt;Node9 -->
<g id="edge31_Node000022_Node000009" class="edge">
<title>Node22&#45;&gt;Node9</title>
<g id="a_edge31_Node000022_Node000009"><a xlink:title=" ">
<path fill="none" stroke="#63b8ff" d="M146.98,-113.08C158.78,-99.83 180.87,-75.68 201.38,-56.75 212.22,-46.74 224.95,-36.33 235.53,-28.01"/>
<polygon fill="#63b8ff" stroke="#63b8ff" points="237.58,-30.85 243.34,-21.95 233.29,-25.32 237.58,-30.85"/>
</a>
</g>
</g>
<!-- Node23 -->
<g id="Node000023" class="node">
<title>Node23</title>
<g id="a_Node000023"><a xlink:title=" ">
<polygon fill="#e0e0e0" stroke="#999999" points="121.88,-77.5 66.88,-77.5 66.88,-56.75 121.88,-56.75 121.88,-77.5"/>
<text text-anchor="middle" x="94.38" y="-64" font-family="Helvetica,sans-Serif" font-size="10.00">stddef.h</text>
</a>
</g>
</g>
<!-- Node22&#45;&gt;Node23 -->
<g id="edge30_Node000022_Node000023" class="edge">
<title>Node22&#45;&gt;Node23</title>
<g id="a_edge30_Node000022_Node000023"><a xlink:title=" ">
<path fill="none" stroke="#63b8ff" d="M130.51,-113.09C124.63,-105.77 116.41,-95.54 109.3,-86.69"/>
<polygon fill="#63b8ff" stroke="#63b8ff" points="112.11,-84.61 103.12,-79.01 106.66,-89 112.11,-84.61"/>
</a>
</g>
</g>
<!-- Node24&#45;&gt;Node15 -->
<g id="edge33_Node000024_Node000015" class="edge">
<title>Node24&#45;&gt;Node15</title>
<g id="a_edge33_Node000024_Node000015"><a xlink:title=" ">
<path fill="none" stroke="#63b8ff" d="M843.14,-113.09C849.82,-105.61 859.23,-95.11 867.26,-86.13"/>
<polygon fill="#63b8ff" stroke="#63b8ff" points="869.62,-88.74 873.68,-78.96 864.4,-84.07 869.62,-88.74"/>
</a>
</g>
</g>
<!-- Node25 -->
<g id="Node000025" class="node">
<title>Node25</title>
<g id="a_Node000025"><a xlink:href="adc_8h.html" target="_top" xlink:title="Low&#45;level ADC peripheral driver interface definitions.">
<polygon fill="white" stroke="#666666" points="687.38,-77.5 611.38,-77.5 611.38,-56.75 687.38,-56.75 687.38,-77.5"/>
<text text-anchor="middle" x="649.38" y="-64" font-family="Helvetica,sans-Serif" font-size="10.00">periph/adc.h</text>
</a>
</g>
</g>
<!-- Node24&#45;&gt;Node25 -->
<g id="edge34_Node000024_Node000025" class="edge">
<title>Node24&#45;&gt;Node25</title>
<g id="a_edge34_Node000024_Node000025"><a xlink:title=" ">
<path fill="none" stroke="#63b8ff" d="M801.3,-113.09C771.14,-104.16 726.36,-90.91 693.23,-81.1"/>
<polygon fill="#63b8ff" stroke="#63b8ff" points="694.51,-77.83 683.93,-78.35 692.52,-84.54 694.51,-77.83"/>
</a>
</g>
</g>
<!-- Node26 -->
<g id="Node000026" class="node">
<title>Node26</title>
<g id="a_Node000026"><a xlink:href="pwm_8h.html" target="_top" xlink:title="Low&#45;level PWM peripheral driver interface definitions.">
<polygon fill="white" stroke="#666666" points="825.75,-77.5 743,-77.5 743,-56.75 825.75,-56.75 825.75,-77.5"/>
<text text-anchor="middle" x="784.38" y="-64" font-family="Helvetica,sans-Serif" font-size="10.00">periph/pwm.h</text>
</a>
</g>
</g>
<!-- Node24&#45;&gt;Node26 -->
<g id="edge39_Node000024_Node000026" class="edge">
<title>Node24&#45;&gt;Node26</title>
<g id="a_edge39_Node000024_Node000026"><a xlink:title=" ">
<path fill="none" stroke="#63b8ff" d="M825.44,-113.09C818.61,-105.61 809.01,-95.11 800.82,-86.13"/>
<polygon fill="#63b8ff" stroke="#63b8ff" points="803.59,-83.97 794.26,-78.95 798.42,-88.69 803.59,-83.97"/>
</a>
</g>
</g>
<!-- Node25&#45;&gt;Node5 -->
<g id="edge38_Node000025_Node000005" class="edge">
<title>Node25&#45;&gt;Node5</title>
<g id="a_edge38_Node000025_Node000005"><a xlink:title=" ">
<path fill="none" stroke="#63b8ff" d="M687.63,-56.9C725.24,-47.83 782.93,-33.91 824.63,-23.86"/>
<polygon fill="#63b8ff" stroke="#63b8ff" points="825.29,-27.3 834.19,-21.55 823.65,-20.49 825.29,-27.3"/>
</a>
</g>
</g>
<!-- Node25&#45;&gt;Node9 -->
<g id="edge36_Node000025_Node000009" class="edge">
<title>Node25&#45;&gt;Node9</title>
<g id="a_edge36_Node000025_Node000009"><a xlink:title=" ">
<path fill="none" stroke="#63b8ff" d="M610.9,-58.38C607.68,-57.8 604.48,-57.25 601.38,-56.75 475.76,-36.54 443.35,-38.57 317.38,-20.75 310.25,-19.74 302.66,-18.61 295.36,-17.48"/>
<polygon fill="#63b8ff" stroke="#63b8ff" points="296.15,-14.06 285.73,-15.97 295.07,-20.98 296.15,-14.06"/>
</a>
</g>
</g>
<!-- Node25&#45;&gt;Node13 -->
<g id="edge35_Node000025_Node000013" class="edge">
<title>Node25&#45;&gt;Node13</title>
<g id="a_edge35_Node000025_Node000013"><a xlink:title=" ">
<path fill="none" stroke="#63b8ff" d="M650.63,-56.34C651.48,-49.64 652.65,-40.51 653.71,-32.23"/>
<polygon fill="#63b8ff" stroke="#63b8ff" points="657.15,-32.94 654.94,-22.58 650.2,-32.06 657.15,-32.94"/>
</a>
</g>
</g>
<!-- Node25&#45;&gt;Node16 -->
<g id="edge37_Node000025_Node000016" class="edge">
<title>Node25&#45;&gt;Node16</title>
<g id="a_edge37_Node000025_Node000016"><a xlink:title=" ">
<path fill="none" stroke="#63b8ff" d="M670.11,-56.34C688.01,-47.89 714.12,-35.57 734.48,-25.96"/>
<polygon fill="#63b8ff" stroke="#63b8ff" points="735.9,-29.16 743.45,-21.72 732.91,-22.83 735.9,-29.16"/>
</a>
</g>
</g>
<!-- Node26&#45;&gt;Node5 -->
<g id="edge43_Node000026_Node000005" class="edge">
<title>Node26&#45;&gt;Node5</title>
<g id="a_edge43_Node000026_Node000005"><a xlink:title=" ">
<path fill="none" stroke="#63b8ff" d="M800.82,-56.34C814.56,-48.16 834.39,-36.36 850.29,-26.9"/>
<polygon fill="#63b8ff" stroke="#63b8ff" points="851.97,-29.97 858.77,-21.85 848.39,-23.96 851.97,-29.97"/>
</a>
</g>
</g>
<!-- Node26&#45;&gt;Node9 -->
<g id="edge40_Node000026_Node000009" class="edge">
<title>Node26&#45;&gt;Node9</title>
<g id="a_edge40_Node000026_Node000009"><a xlink:title=" ">
<path fill="none" stroke="#63b8ff" d="M742.75,-61.59C728.1,-60.02 711.51,-58.27 696.38,-56.75 528.02,-39.79 485.26,-41.82 317.38,-20.75 310.24,-19.85 302.64,-18.77 295.33,-17.66"/>
<polygon fill="#63b8ff" stroke="#63b8ff" points="296.12,-14.24 285.7,-16.16 295.04,-21.16 296.12,-14.24"/>
</a>
</g>
</g>
<!-- Node26&#45;&gt;Node13 -->
<g id="edge41_Node000026_Node000013" class="edge">
<title>Node26&#45;&gt;Node13</title>
<g id="a_edge41_Node000026_Node000013"><a xlink:title=" ">
<path fill="none" stroke="#63b8ff" d="M761.49,-56.34C741.47,-47.77 712.14,-35.23 689.54,-25.56"/>
<polygon fill="#63b8ff" stroke="#63b8ff" points="691.02,-22.39 680.45,-21.67 688.27,-28.82 691.02,-22.39"/>
</a>
</g>
</g>
<!-- Node26&#45;&gt;Node16 -->
<g id="edge42_Node000026_Node000016" class="edge">
<title>Node26&#45;&gt;Node16</title>
<g id="a_edge42_Node000026_Node000016"><a xlink:title=" ">
<path fill="none" stroke="#63b8ff" d="M780.98,-56.34C778.63,-49.56 775.41,-40.3 772.51,-31.94"/>
<polygon fill="#63b8ff" stroke="#63b8ff" points="775.82,-30.81 769.24,-22.51 769.21,-33.1 775.82,-30.81"/>
</a>
</g>
</g>
</g>
</svg>
