<?xml version="1.0" encoding="UTF-8" standalone="no"?>
<!DOCTYPE svg PUBLIC "-//W3C//DTD SVG 1.1//EN"
 "http://www.w3.org/Graphics/SVG/1.1/DTD/svg11.dtd">
<!-- Generated by graphviz version 12.1.1 (0)
 -->
<!-- Title: boards/nz32&#45;sc151/include/board.h Pages: 1 -->
<svg width="973pt" height="325pt"
 viewBox="0.00 0.00 972.89 325.25" xmlns="http://www.w3.org/2000/svg" xmlns:xlink="http://www.w3.org/1999/xlink">
<g id="graph0" class="graph" transform="scale(1 1) rotate(0) translate(4 321.25)">
<title>boards/nz32&#45;sc151/include/board.h</title>
<!-- Node1 -->
<g id="Node000001" class="node">
<title>Node1</title>
<g id="a_Node000001"><a xlink:title="Board specific definitions for the nz32&#45;sc151 board.">
<polygon fill="#999999" stroke="#666666" points="700.77,-317.25 555.02,-317.25 555.02,-283.75 700.77,-283.75 700.77,-317.25"/>
<text text-anchor="start" x="563.02" y="-303.75" font-family="Helvetica,sans-Serif" font-size="10.00">boards/nz32&#45;sc151/include</text>
<text text-anchor="middle" x="627.89" y="-291" font-family="Helvetica,sans-Serif" font-size="10.00">/board.h</text>
</a>
</g>
</g>
<!-- Node2 -->
<g id="Node000002" class="node">
<title>Node2</title>
<g id="a_Node000002"><a xlink:title=" ">
<polygon fill="#e0e0e0" stroke="#999999" points="781.27,-20.75 728.52,-20.75 728.52,0 781.27,0 781.27,-20.75"/>
<text text-anchor="middle" x="754.89" y="-7.25" font-family="Helvetica,sans-Serif" font-size="10.00">stdint.h</text>
</a>
</g>
</g>
<!-- Node1&#45;&gt;Node2 -->
<g id="edge1_Node000001_Node000002" class="edge">
<title>Node1&#45;&gt;Node2</title>
<g id="a_edge1_Node000001_Node000002"><a xlink:title=" ">
<path fill="none" stroke="#63b8ff" d="M701.02,-288.98C800.13,-272.63 964.89,-237.1 964.89,-181.62 964.89,-181.62 964.89,-181.62 964.89,-122.88 964.89,-45.86 853.37,-21.88 792.86,-14.54"/>
<polygon fill="#63b8ff" stroke="#63b8ff" points="793.32,-11.07 783,-13.45 792.55,-18.02 793.32,-11.07"/>
</a>
</g>
</g>
<!-- Node3 -->
<g id="Node000003" class="node">
<title>Node3</title>
<g id="a_Node000003"><a xlink:title=" ">
<polygon fill="#e0e0e0" stroke="#999999" points="609.02,-247.75 566.77,-247.75 566.77,-227 609.02,-227 609.02,-247.75"/>
<text text-anchor="middle" x="587.89" y="-234.25" font-family="Helvetica,sans-Serif" font-size="10.00">cpu.h</text>
</a>
</g>
</g>
<!-- Node1&#45;&gt;Node3 -->
<g id="edge2_Node000001_Node000003" class="edge">
<title>Node1&#45;&gt;Node3</title>
<g id="a_edge2_Node000001_Node000003"><a xlink:title=" ">
<path fill="none" stroke="#63b8ff" d="M617.38,-283.44C612.24,-275.58 606.01,-266.06 600.6,-257.79"/>
<polygon fill="#63b8ff" stroke="#63b8ff" points="603.57,-255.93 595.16,-249.48 597.71,-259.77 603.57,-255.93"/>
</a>
</g>
</g>
<!-- Node4 -->
<g id="Node000004" class="node">
<title>Node4</title>
<g id="a_Node000004"><a xlink:href="boards_2nz32-sc151_2include_2periph__conf_8h.html" target="_top" xlink:title="Peripheral MCU configuration for the limifrog&#45;v1 board.">
<polygon fill="white" stroke="#666666" points="136.52,-134.25 55.27,-134.25 55.27,-113.5 136.52,-113.5 136.52,-134.25"/>
<text text-anchor="middle" x="95.89" y="-120.75" font-family="Helvetica,sans-Serif" font-size="10.00">periph_conf.h</text>
</a>
</g>
</g>
<!-- Node1&#45;&gt;Node4 -->
<g id="edge3_Node000001_Node000004" class="edge">
<title>Node1&#45;&gt;Node4</title>
<g id="a_edge3_Node000001_Node000004"><a xlink:title=" ">
<path fill="none" stroke="#63b8ff" d="M578.8,-283.38C474.63,-249.19 233.14,-169.92 136.73,-138.28"/>
<polygon fill="#63b8ff" stroke="#63b8ff" points="138,-135.01 127.41,-135.22 135.82,-141.66 138,-135.01"/>
</a>
</g>
</g>
<!-- Node8 -->
<g id="Node000008" class="node">
<title>Node8</title>
<g id="a_Node000008"><a xlink:href="stm32__leds_8h.html" target="_top" xlink:title="Common LED macros.">
<polygon fill="white" stroke="#666666" points="708.52,-247.75 627.27,-247.75 627.27,-227 708.52,-227 708.52,-247.75"/>
<text text-anchor="middle" x="667.89" y="-234.25" font-family="Helvetica,sans-Serif" font-size="10.00">stm32_leds.h</text>
</a>
</g>
</g>
<!-- Node1&#45;&gt;Node8 -->
<g id="edge8_Node000001_Node000008" class="edge">
<title>Node1&#45;&gt;Node8</title>
<g id="a_edge8_Node000001_Node000008"><a xlink:title=" ">
<path fill="none" stroke="#63b8ff" d="M638.4,-283.44C643.55,-275.58 649.78,-266.06 655.19,-257.79"/>
<polygon fill="#63b8ff" stroke="#63b8ff" points="658.08,-259.77 660.62,-249.48 652.22,-255.93 658.08,-259.77"/>
</a>
</g>
</g>
<!-- Node5 -->
<g id="Node000005" class="node">
<title>Node5</title>
<g id="a_Node000005"><a xlink:title=" ">
<polygon fill="#e0e0e0" stroke="#999999" points="185.02,-20.75 106.77,-20.75 106.77,0 185.02,0 185.02,-20.75"/>
<text text-anchor="middle" x="145.89" y="-7.25" font-family="Helvetica,sans-Serif" font-size="10.00">periph_cpu.h</text>
</a>
</g>
</g>
<!-- Node4&#45;&gt;Node5 -->
<g id="edge4_Node000004_Node000005" class="edge">
<title>Node4&#45;&gt;Node5</title>
<g id="a_edge4_Node000004_Node000005"><a xlink:title=" ">
<path fill="none" stroke="#63b8ff" d="M60.56,-113.02C27.65,-102.01 -13.74,-82.32 4.89,-56.75 25.4,-28.62 63.64,-17.55 95.14,-13.36"/>
<polygon fill="#63b8ff" stroke="#63b8ff" points="95.33,-16.86 104.88,-12.28 94.56,-9.91 95.33,-16.86"/>
</a>
</g>
</g>
<!-- Node6 -->
<g id="Node000006" class="node">
<title>Node6</title>
<g id="a_Node000006"><a xlink:title=" ">
<polygon fill="#e0e0e0" stroke="#999999" points="78.27,-77.5 13.52,-77.5 13.52,-56.75 78.27,-56.75 78.27,-77.5"/>
<text text-anchor="middle" x="45.89" y="-64" font-family="Helvetica,sans-Serif" font-size="10.00">clk_conf.h</text>
</a>
</g>
</g>
<!-- Node4&#45;&gt;Node6 -->
<g id="edge5_Node000004_Node000006" class="edge">
<title>Node4&#45;&gt;Node6</title>
<g id="a_edge5_Node000004_Node000006"><a xlink:title=" ">
<path fill="none" stroke="#63b8ff" d="M86.96,-113.09C80.13,-105.61 70.53,-95.11 62.33,-86.13"/>
<polygon fill="#63b8ff" stroke="#63b8ff" points="65.1,-83.97 55.78,-78.95 59.94,-88.69 65.1,-83.97"/>
</a>
</g>
</g>
<!-- Node7 -->
<g id="Node000007" class="node">
<title>Node7</title>
<g id="a_Node000007"><a xlink:href="cfg__timer__tim5_8h.html" target="_top" xlink:title="Common configuration for STM32 Timer peripheral based on TIM5.">
<polygon fill="white" stroke="#666666" points="195.52,-77.5 96.27,-77.5 96.27,-56.75 195.52,-56.75 195.52,-77.5"/>
<text text-anchor="middle" x="145.89" y="-64" font-family="Helvetica,sans-Serif" font-size="10.00">cfg_timer_tim5.h</text>
</a>
</g>
</g>
<!-- Node4&#45;&gt;Node7 -->
<g id="edge6_Node000004_Node000007" class="edge">
<title>Node4&#45;&gt;Node7</title>
<g id="a_edge6_Node000004_Node000007"><a xlink:title=" ">
<path fill="none" stroke="#63b8ff" d="M104.83,-113.09C111.66,-105.61 121.25,-95.11 129.45,-86.13"/>
<polygon fill="#63b8ff" stroke="#63b8ff" points="131.85,-88.69 136.01,-78.95 126.68,-83.97 131.85,-88.69"/>
</a>
</g>
</g>
<!-- Node7&#45;&gt;Node5 -->
<g id="edge7_Node000007_Node000005" class="edge">
<title>Node7&#45;&gt;Node5</title>
<g id="a_edge7_Node000007_Node000005"><a xlink:title=" ">
<path fill="none" stroke="#63b8ff" d="M145.89,-56.34C145.89,-49.72 145.89,-40.72 145.89,-32.52"/>
<polygon fill="#63b8ff" stroke="#63b8ff" points="149.39,-32.59 145.89,-22.59 142.39,-32.59 149.39,-32.59"/>
</a>
</g>
</g>
<!-- Node9 -->
<g id="Node000009" class="node">
<title>Node9</title>
<g id="a_Node000009"><a xlink:href="gpio__ll_8h.html" target="_top" xlink:title="Peripheral GPIO Low&#45;Level API.">
<polygon fill="white" stroke="#666666" points="542.39,-134.25 451.39,-134.25 451.39,-113.5 542.39,-113.5 542.39,-134.25"/>
<text text-anchor="middle" x="496.89" y="-120.75" font-family="Helvetica,sans-Serif" font-size="10.00">periph/gpio_ll.h</text>
</a>
</g>
</g>
<!-- Node8&#45;&gt;Node9 -->
<g id="edge9_Node000008_Node000009" class="edge">
<title>Node8&#45;&gt;Node9</title>
<g id="a_edge9_Node000008_Node000009"><a xlink:title=" ">
<path fill="none" stroke="#63b8ff" d="M653.02,-226.68C623.46,-207.4 557.08,-164.12 521.13,-140.68"/>
<polygon fill="#63b8ff" stroke="#63b8ff" points="523.41,-137.99 513.13,-135.46 519.59,-143.85 523.41,-137.99"/>
</a>
</g>
</g>
<!-- Node19 -->
<g id="Node000019" class="node">
<title>Node19</title>
<g id="a_Node000019"><a xlink:href="kernel__defines_8h.html" target="_top" xlink:title="Common macros and compiler attributes/pragmas configuration.">
<polygon fill="white" stroke="#666666" points="770.02,-191 673.77,-191 673.77,-170.25 770.02,-170.25 770.02,-191"/>
<text text-anchor="middle" x="721.89" y="-177.5" font-family="Helvetica,sans-Serif" font-size="10.00">kernel_defines.h</text>
</a>
</g>
</g>
<!-- Node8&#45;&gt;Node19 -->
<g id="edge25_Node000008_Node000019" class="edge">
<title>Node8&#45;&gt;Node19</title>
<g id="a_edge25_Node000008_Node000019"><a xlink:title=" ">
<path fill="none" stroke="#63b8ff" d="M677.55,-226.59C685,-219.03 695.5,-208.39 704.41,-199.35"/>
<polygon fill="#63b8ff" stroke="#63b8ff" points="706.73,-201.98 711.26,-192.41 701.75,-197.07 706.73,-201.98"/>
</a>
</g>
</g>
<!-- Node9&#45;&gt;Node2 -->
<g id="edge13_Node000009_Node000002" class="edge">
<title>Node9&#45;&gt;Node2</title>
<g id="a_edge13_Node000009_Node000002"><a xlink:title=" ">
<path fill="none" stroke="#63b8ff" d="M528.45,-113.02C554.45,-104.57 592.09,-91.55 623.89,-77.5 641.85,-69.56 645.42,-65.7 662.89,-56.75 683.33,-46.28 706.53,-34.84 724.51,-26.07"/>
<polygon fill="#63b8ff" stroke="#63b8ff" points="725.88,-29.29 733.34,-21.77 722.82,-23 725.88,-29.29"/>
</a>
</g>
</g>
<!-- Node9&#45;&gt;Node5 -->
<g id="edge23_Node000009_Node000005" class="edge">
<title>Node9&#45;&gt;Node5</title>
<g id="a_edge23_Node000009_Node000005"><a xlink:title=" ">
<path fill="none" stroke="#63b8ff" d="M451.25,-120.49C399.14,-116.47 312.15,-105.77 242.89,-77.5 227.29,-71.13 191.37,-45.4 167.89,-27.97"/>
<polygon fill="#63b8ff" stroke="#63b8ff" points="170,-25.18 159.9,-22 165.81,-30.79 170,-25.18"/>
</a>
</g>
</g>
<!-- Node10 -->
<g id="Node000010" class="node">
<title>Node10</title>
<g id="a_Node000010"><a xlink:href="assert_8h.html" target="_top" xlink:title="POSIX.1&#45;2008 compliant version of the assert macro.">
<polygon fill="white" stroke="#666666" points="726.39,-77.5 671.39,-77.5 671.39,-56.75 726.39,-56.75 726.39,-77.5"/>
<text text-anchor="middle" x="698.89" y="-64" font-family="Helvetica,sans-Serif" font-size="10.00">assert.h</text>
</a>
</g>
</g>
<!-- Node9&#45;&gt;Node10 -->
<g id="edge10_Node000009_Node000010" class="edge">
<title>Node9&#45;&gt;Node10</title>
<g id="a_edge10_Node000009_Node000010"><a xlink:title=" ">
<path fill="none" stroke="#63b8ff" d="M533.01,-113.09C568.9,-103.36 623.75,-88.49 660.44,-78.55"/>
<polygon fill="#63b8ff" stroke="#63b8ff" points="661.01,-82.02 669.74,-76.03 659.17,-75.26 661.01,-82.02"/>
</a>
</g>
</g>
<!-- Node11 -->
<g id="Node000011" class="node">
<title>Node11</title>
<g id="a_Node000011"><a xlink:title=" ">
<polygon fill="#e0e0e0" stroke="#999999" points="614.39,-77.5 553.39,-77.5 553.39,-56.75 614.39,-56.75 614.39,-77.5"/>
<text text-anchor="middle" x="583.89" y="-64" font-family="Helvetica,sans-Serif" font-size="10.00">stdbool.h</text>
</a>
</g>
</g>
<!-- Node9&#45;&gt;Node11 -->
<g id="edge12_Node000009_Node000011" class="edge">
<title>Node9&#45;&gt;Node11</title>
<g id="a_edge12_Node000009_Node000011"><a xlink:title=" ">
<path fill="none" stroke="#63b8ff" d="M512.45,-113.09C525.31,-104.99 543.84,-93.33 558.8,-83.92"/>
<polygon fill="#63b8ff" stroke="#63b8ff" points="560.59,-86.92 567.19,-78.63 556.87,-81 560.59,-86.92"/>
</a>
</g>
</g>
<!-- Node12 -->
<g id="Node000012" class="node">
<title>Node12</title>
<g id="a_Node000012"><a xlink:href="architecture_8h.html" target="_top" xlink:title="Platform&#45;independent access to architecture details.">
<polygon fill="white" stroke="#666666" points="433.64,-77.5 350.14,-77.5 350.14,-56.75 433.64,-56.75 433.64,-77.5"/>
<text text-anchor="middle" x="391.89" y="-64" font-family="Helvetica,sans-Serif" font-size="10.00">architecture.h</text>
</a>
</g>
</g>
<!-- Node9&#45;&gt;Node12 -->
<g id="edge14_Node000009_Node000012" class="edge">
<title>Node9&#45;&gt;Node12</title>
<g id="a_edge14_Node000009_Node000012"><a xlink:title=" ">
<path fill="none" stroke="#63b8ff" d="M478.12,-113.09C462.15,-104.76 438.94,-92.66 420.63,-83.11"/>
<polygon fill="#63b8ff" stroke="#63b8ff" points="422.33,-80.05 411.85,-78.53 419.09,-86.26 422.33,-80.05"/>
</a>
</g>
</g>
<!-- Node16 -->
<g id="Node000016" class="node">
<title>Node16</title>
<g id="a_Node000016"><a xlink:href="drivers_2include_2periph_2gpio_8h.html" target="_top" xlink:title="Low&#45;level GPIO peripheral driver interface definitions.">
<polygon fill="white" stroke="#666666" points="331.77,-77.5 252.02,-77.5 252.02,-56.75 331.77,-56.75 331.77,-77.5"/>
<text text-anchor="middle" x="291.89" y="-64" font-family="Helvetica,sans-Serif" font-size="10.00">periph/gpio.h</text>
</a>
</g>
</g>
<!-- Node9&#45;&gt;Node16 -->
<g id="edge19_Node000009_Node000016" class="edge">
<title>Node9&#45;&gt;Node16</title>
<g id="a_edge19_Node000009_Node000016"><a xlink:title=" ">
<path fill="none" stroke="#63b8ff" d="M460.24,-113.09C426.53,-104.08 376.34,-90.68 339.53,-80.85"/>
<polygon fill="#63b8ff" stroke="#63b8ff" points="340.6,-77.51 330.03,-78.31 338.79,-84.27 340.6,-77.51"/>
</a>
</g>
</g>
<!-- Node18 -->
<g id="Node000018" class="node">
<title>Node18</title>
<g id="a_Node000018"><a xlink:title=" ">
<polygon fill="#e0e0e0" stroke="#999999" points="535.64,-77.5 452.14,-77.5 452.14,-56.75 535.64,-56.75 535.64,-77.5"/>
<text text-anchor="middle" x="493.89" y="-64" font-family="Helvetica,sans-Serif" font-size="10.00">gpio_ll_arch.h</text>
</a>
</g>
</g>
<!-- Node9&#45;&gt;Node18 -->
<g id="edge24_Node000009_Node000018" class="edge">
<title>Node9&#45;&gt;Node18</title>
<g id="a_edge24_Node000009_Node000018"><a xlink:title=" ">
<path fill="none" stroke="#63b8ff" d="M496.36,-113.09C496,-106.47 495.5,-97.47 495.05,-89.27"/>
<polygon fill="#63b8ff" stroke="#63b8ff" points="498.55,-89.13 494.51,-79.34 491.56,-89.52 498.55,-89.13"/>
</a>
</g>
</g>
<!-- Node10&#45;&gt;Node2 -->
<g id="edge11_Node000010_Node000002" class="edge">
<title>Node10&#45;&gt;Node2</title>
<g id="a_edge11_Node000010_Node000002"><a xlink:title=" ">
<path fill="none" stroke="#63b8ff" d="M708.91,-56.34C716.63,-48.78 727.52,-38.14 736.77,-29.1"/>
<polygon fill="#63b8ff" stroke="#63b8ff" points="739.18,-31.63 743.89,-22.14 734.29,-26.62 739.18,-31.63"/>
</a>
</g>
</g>
<!-- Node12&#45;&gt;Node2 -->
<g id="edge15_Node000012_Node000002" class="edge">
<title>Node12&#45;&gt;Node2</title>
<g id="a_edge15_Node000012_Node000002"><a xlink:title=" ">
<path fill="none" stroke="#63b8ff" d="M433.9,-58.28C436.94,-57.75 439.96,-57.23 442.89,-56.75 541.43,-40.53 657.97,-24.39 716.82,-16.45"/>
<polygon fill="#63b8ff" stroke="#63b8ff" points="717.19,-19.93 726.63,-15.13 716.25,-12.99 717.19,-19.93"/>
</a>
</g>
</g>
<!-- Node13 -->
<g id="Node000013" class="node">
<title>Node13</title>
<g id="a_Node000013"><a xlink:href="inttypes_8h.html" target="_top" xlink:title="Adds include for missing inttype definitions.">
<polygon fill="white" stroke="#666666" points="565.27,-20.75 500.52,-20.75 500.52,0 565.27,0 565.27,-20.75"/>
<text text-anchor="middle" x="532.89" y="-7.25" font-family="Helvetica,sans-Serif" font-size="10.00">inttypes.h</text>
</a>
</g>
</g>
<!-- Node12&#45;&gt;Node13 -->
<g id="edge16_Node000012_Node000013" class="edge">
<title>Node12&#45;&gt;Node13</title>
<g id="a_edge16_Node000012_Node000013"><a xlink:title=" ">
<path fill="none" stroke="#63b8ff" d="M417.1,-56.34C439.46,-47.66 472.35,-34.88 497.37,-25.17"/>
<polygon fill="#63b8ff" stroke="#63b8ff" points="498.44,-28.51 506.49,-21.63 495.9,-21.98 498.44,-28.51"/>
</a>
</g>
</g>
<!-- Node14 -->
<g id="Node000014" class="node">
<title>Node14</title>
<g id="a_Node000014"><a xlink:title=" ">
<polygon fill="#e0e0e0" stroke="#999999" points="355.27,-20.75 302.52,-20.75 302.52,0 355.27,0 355.27,-20.75"/>
<text text-anchor="middle" x="328.89" y="-7.25" font-family="Helvetica,sans-Serif" font-size="10.00">limits.h</text>
</a>
</g>
</g>
<!-- Node12&#45;&gt;Node14 -->
<g id="edge17_Node000012_Node000014" class="edge">
<title>Node12&#45;&gt;Node14</title>
<g id="a_edge17_Node000012_Node000014"><a xlink:title=" ">
<path fill="none" stroke="#63b8ff" d="M380.63,-56.34C371.76,-48.63 359.18,-37.7 348.65,-28.54"/>
<polygon fill="#63b8ff" stroke="#63b8ff" points="351.05,-25.99 341.2,-22.07 346.45,-31.27 351.05,-25.99"/>
</a>
</g>
</g>
<!-- Node15 -->
<g id="Node000015" class="node">
<title>Node15</title>
<g id="a_Node000015"><a xlink:title=" ">
<polygon fill="#e0e0e0" stroke="#999999" points="482.77,-20.75 373.02,-20.75 373.02,0 482.77,0 482.77,-20.75"/>
<text text-anchor="middle" x="427.89" y="-7.25" font-family="Helvetica,sans-Serif" font-size="10.00">architecture_arch.h</text>
</a>
</g>
</g>
<!-- Node12&#45;&gt;Node15 -->
<g id="edge18_Node000012_Node000015" class="edge">
<title>Node12&#45;&gt;Node15</title>
<g id="a_edge18_Node000012_Node000015"><a xlink:title=" ">
<path fill="none" stroke="#63b8ff" d="M398.33,-56.34C403.04,-49.17 409.58,-39.23 415.31,-30.51"/>
<polygon fill="#63b8ff" stroke="#63b8ff" points="418.11,-32.62 420.68,-22.34 412.26,-28.78 418.11,-32.62"/>
</a>
</g>
</g>
<!-- Node16&#45;&gt;Node5 -->
<g id="edge21_Node000016_Node000005" class="edge">
<title>Node16&#45;&gt;Node5</title>
<g id="a_edge21_Node000016_Node000005"><a xlink:title=" ">
<path fill="none" stroke="#63b8ff" d="M265.79,-56.34C242.54,-47.62 208.28,-34.77 182.33,-25.04"/>
<polygon fill="#63b8ff" stroke="#63b8ff" points="183.78,-21.84 173.19,-21.61 181.32,-28.4 183.78,-21.84"/>
</a>
</g>
</g>
<!-- Node16&#45;&gt;Node14 -->
<g id="edge20_Node000016_Node000014" class="edge">
<title>Node16&#45;&gt;Node14</title>
<g id="a_edge20_Node000016_Node000014"><a xlink:title=" ">
<path fill="none" stroke="#63b8ff" d="M298.51,-56.34C303.35,-49.17 310.07,-39.23 315.96,-30.51"/>
<polygon fill="#63b8ff" stroke="#63b8ff" points="318.79,-32.58 321.49,-22.33 312.99,-28.66 318.79,-32.58"/>
</a>
</g>
</g>
<!-- Node17 -->
<g id="Node000017" class="node">
<title>Node17</title>
<g id="a_Node000017"><a xlink:title=" ">
<polygon fill="#e0e0e0" stroke="#999999" points="284.52,-20.75 203.27,-20.75 203.27,0 284.52,0 284.52,-20.75"/>
<text text-anchor="middle" x="243.89" y="-7.25" font-family="Helvetica,sans-Serif" font-size="10.00">periph_conf.h</text>
</a>
</g>
</g>
<!-- Node16&#45;&gt;Node17 -->
<g id="edge22_Node000016_Node000017" class="edge">
<title>Node16&#45;&gt;Node17</title>
<g id="a_edge22_Node000016_Node000017"><a xlink:title=" ">
<path fill="none" stroke="#63b8ff" d="M283.31,-56.34C276.83,-48.94 267.74,-38.57 259.92,-29.66"/>
<polygon fill="#63b8ff" stroke="#63b8ff" points="262.62,-27.43 253.4,-22.22 257.36,-32.04 262.62,-27.43"/>
</a>
</g>
</g>
<!-- Node20 -->
<g id="Node000020" class="node">
<title>Node20</title>
<g id="a_Node000020"><a xlink:href="modules_8h.html" target="_top" xlink:title="Common macros and compiler attributes/pragmas configuration.">
<polygon fill="white" stroke="#666666" points="848.39,-134.25 781.39,-134.25 781.39,-113.5 848.39,-113.5 848.39,-134.25"/>
<text text-anchor="middle" x="814.89" y="-120.75" font-family="Helvetica,sans-Serif" font-size="10.00">modules.h</text>
</a>
</g>
</g>
<!-- Node19&#45;&gt;Node20 -->
<g id="edge26_Node000019_Node000020" class="edge">
<title>Node19&#45;&gt;Node20</title>
<g id="a_edge26_Node000019_Node000020"><a xlink:title=" ">
<path fill="none" stroke="#63b8ff" d="M738.52,-169.84C752.41,-161.66 772.46,-149.86 788.53,-140.4"/>
<polygon fill="#63b8ff" stroke="#63b8ff" points="790.27,-143.44 797.11,-135.35 786.71,-137.4 790.27,-143.44"/>
</a>
</g>
</g>
<!-- Node21 -->
<g id="Node000021" class="node">
<title>Node21</title>
<g id="a_Node000021"><a xlink:href="riot__version_8h.html" target="_top" xlink:title="Common macros and compiler attributes/pragmas configuration.">
<polygon fill="white" stroke="#666666" points="763.27,-134.25 680.52,-134.25 680.52,-113.5 763.27,-113.5 763.27,-134.25"/>
<text text-anchor="middle" x="721.89" y="-120.75" font-family="Helvetica,sans-Serif" font-size="10.00">riot_version.h</text>
</a>
</g>
</g>
<!-- Node19&#45;&gt;Node21 -->
<g id="edge27_Node000019_Node000021" class="edge">
<title>Node19&#45;&gt;Node21</title>
<g id="a_edge27_Node000019_Node000021"><a xlink:title=" ">
<path fill="none" stroke="#63b8ff" d="M721.89,-169.84C721.89,-163.22 721.89,-154.22 721.89,-146.02"/>
<polygon fill="#63b8ff" stroke="#63b8ff" points="725.39,-146.09 721.89,-136.09 718.39,-146.09 725.39,-146.09"/>
</a>
</g>
</g>
<!-- Node22 -->
<g id="Node000022" class="node">
<title>Node22</title>
<g id="a_Node000022"><a xlink:href="compiler__hints_8h.html" target="_top" xlink:title="Common macros and compiler attributes/pragmas configuration.">
<polygon fill="white" stroke="#666666" points="662.39,-134.25 565.39,-134.25 565.39,-113.5 662.39,-113.5 662.39,-134.25"/>
<text text-anchor="middle" x="613.89" y="-120.75" font-family="Helvetica,sans-Serif" font-size="10.00">compiler_hints.h</text>
</a>
</g>
</g>
<!-- Node19&#45;&gt;Node22 -->
<g id="edge29_Node000019_Node000022" class="edge">
<title>Node19&#45;&gt;Node22</title>
<g id="a_edge29_Node000019_Node000022"><a xlink:title=" ">
<path fill="none" stroke="#63b8ff" d="M702.59,-169.84C686.08,-161.47 662.06,-149.29 643.19,-139.72"/>
<polygon fill="#63b8ff" stroke="#63b8ff" points="644.89,-136.66 634.39,-135.26 641.72,-142.91 644.89,-136.66"/>
</a>
</g>
</g>
<!-- Node23 -->
<g id="Node000023" class="node">
<title>Node23</title>
<g id="a_Node000023"><a xlink:href="container_8h.html" target="_top" xlink:title="Common macros and compiler attributes/pragmas configuration.">
<polygon fill="white" stroke="#666666" points="937.27,-134.25 866.52,-134.25 866.52,-113.5 937.27,-113.5 937.27,-134.25"/>
<text text-anchor="middle" x="901.89" y="-120.75" font-family="Helvetica,sans-Serif" font-size="10.00">container.h</text>
</a>
</g>
</g>
<!-- Node19&#45;&gt;Node23 -->
<g id="edge32_Node000019_Node000023" class="edge">
<title>Node19&#45;&gt;Node23</title>
<g id="a_edge32_Node000019_Node000023"><a xlink:title=" ">
<path fill="none" stroke="#63b8ff" d="M754.07,-169.84C783.29,-160.95 826.61,-147.77 858.81,-137.98"/>
<polygon fill="#63b8ff" stroke="#63b8ff" points="859.69,-141.37 868.24,-135.11 857.66,-134.67 859.69,-141.37"/>
</a>
</g>
</g>
<!-- Node21&#45;&gt;Node2 -->
<g id="edge28_Node000021_Node000002" class="edge">
<title>Node21&#45;&gt;Node2</title>
<g id="a_edge28_Node000021_Node000002"><a xlink:title=" ">
<path fill="none" stroke="#63b8ff" d="M737.35,-113.05C748.44,-105.01 762.51,-92.53 768.89,-77.5 775.2,-62.65 770.69,-44.67 765.17,-31.22"/>
<polygon fill="#63b8ff" stroke="#63b8ff" points="768.52,-30.12 761.14,-22.52 762.17,-33.06 768.52,-30.12"/>
</a>
</g>
</g>
<!-- Node22&#45;&gt;Node2 -->
<g id="edge31_Node000022_Node000002" class="edge">
<title>Node22&#45;&gt;Node2</title>
<g id="a_edge31_Node000022_Node000002"><a xlink:title=" ">
<path fill="none" stroke="#63b8ff" d="M662.87,-115.44C687.87,-109.25 716.93,-97.97 735.89,-77.5 747.2,-65.3 751.82,-46.81 753.7,-32.49"/>
<polygon fill="#63b8ff" stroke="#63b8ff" points="757.16,-33.01 754.59,-22.74 750.19,-32.37 757.16,-33.01"/>
</a>
</g>
</g>
<!-- Node22&#45;&gt;Node10 -->
<g id="edge30_Node000022_Node000010" class="edge">
<title>Node22&#45;&gt;Node10</title>
<g id="a_edge30_Node000022_Node000010"><a xlink:title=" ">
<path fill="none" stroke="#63b8ff" d="M629.09,-113.09C641.66,-104.99 659.76,-93.33 674.38,-83.92"/>
<polygon fill="#63b8ff" stroke="#63b8ff" points="676.05,-87.01 682.56,-78.65 672.25,-81.12 676.05,-87.01"/>
</a>
</g>
</g>
<!-- Node23&#45;&gt;Node2 -->
<g id="edge34_Node000023_Node000002" class="edge">
<title>Node23&#45;&gt;Node2</title>
<g id="a_edge34_Node000023_Node000002"><a xlink:title=" ">
<path fill="none" stroke="#63b8ff" d="M902.28,-113.01C902.29,-98.79 900.19,-72.49 885.89,-56.75 862.04,-30.48 822.21,-19.42 792.72,-14.76"/>
<polygon fill="#63b8ff" stroke="#63b8ff" points="793.47,-11.33 783.09,-13.43 792.51,-18.27 793.47,-11.33"/>
</a>
</g>
</g>
<!-- Node24 -->
<g id="Node000024" class="node">
<title>Node24</title>
<g id="a_Node000024"><a xlink:title=" ">
<polygon fill="#e0e0e0" stroke="#999999" points="876.39,-77.5 821.39,-77.5 821.39,-56.75 876.39,-56.75 876.39,-77.5"/>
<text text-anchor="middle" x="848.89" y="-64" font-family="Helvetica,sans-Serif" font-size="10.00">stddef.h</text>
</a>
</g>
</g>
<!-- Node23&#45;&gt;Node24 -->
<g id="edge33_Node000023_Node000024" class="edge">
<title>Node23&#45;&gt;Node24</title>
<g id="a_edge33_Node000023_Node000024"><a xlink:title=" ">
<path fill="none" stroke="#63b8ff" d="M892.42,-113.09C885.11,-105.53 874.8,-94.89 866.05,-85.85"/>
<polygon fill="#63b8ff" stroke="#63b8ff" points="868.81,-83.67 859.34,-78.92 863.78,-88.54 868.81,-83.67"/>
</a>
</g>
</g>
</g>
</svg>
