<?xml version="1.0" encoding="UTF-8" standalone="no"?>
<!DOCTYPE svg PUBLIC "-//W3C//DTD SVG 1.1//EN"
 "http://www.w3.org/Graphics/SVG/1.1/DTD/svg11.dtd">
<!-- Generated by graphviz version 12.1.1 (0)
 -->
<!-- Title: boards/omote/include/gpio_params.h Pages: 1 -->
<svg width="931pt" height="382pt"
 viewBox="0.00 0.00 931.25 382.00" xmlns="http://www.w3.org/2000/svg" xmlns:xlink="http://www.w3.org/1999/xlink">
<g id="graph0" class="graph" transform="scale(1 1) rotate(0) translate(4 378)">
<title>boards/omote/include/gpio_params.h</title>
<!-- Node1 -->
<g id="Node000001" class="node">
<title>Node1</title>
<g id="a_Node000001"><a xlink:title="Board specific configuration of direct mapped GPIOs.">
<polygon fill="#999999" stroke="#666666" points="266.75,-374 145,-374 145,-340.5 266.75,-340.5 266.75,-374"/>
<text text-anchor="start" x="153" y="-360.5" font-family="Helvetica,sans-Serif" font-size="10.00">boards/omote/include</text>
<text text-anchor="middle" x="205.88" y="-347.75" font-family="Helvetica,sans-Serif" font-size="10.00">/gpio_params.h</text>
</a>
</g>
</g>
<!-- Node2 -->
<g id="Node000002" class="node">
<title>Node2</title>
<g id="a_Node000002"><a xlink:href="omote_2include_2board_8h.html" target="_top" xlink:title="Board specific definitions for the omote board.">
<polygon fill="white" stroke="#666666" points="303.25,-304.5 250.5,-304.5 250.5,-283.75 303.25,-283.75 303.25,-304.5"/>
<text text-anchor="middle" x="276.88" y="-291" font-family="Helvetica,sans-Serif" font-size="10.00">board.h</text>
</a>
</g>
</g>
<!-- Node1&#45;&gt;Node2 -->
<g id="edge1_Node000001_Node000002" class="edge">
<title>Node1&#45;&gt;Node2</title>
<g id="a_edge1_Node000001_Node000002"><a xlink:title=" ">
<path fill="none" stroke="#63b8ff" d="M224.53,-340.19C234.47,-331.63 246.7,-321.1 256.84,-312.37"/>
<polygon fill="#63b8ff" stroke="#63b8ff" points="259,-315.13 264.3,-305.95 254.43,-309.83 259,-315.13"/>
</a>
</g>
</g>
<!-- Node19 -->
<g id="Node000019" class="node">
<title>Node19</title>
<g id="a_Node000019"><a xlink:href="periph_8h.html" target="_top" xlink:title="Parameter definitions for mapping peripherals directly to SAUL.">
<polygon fill="white" stroke="#666666" points="262.38,-134.25 183.38,-134.25 183.38,-113.5 262.38,-113.5 262.38,-134.25"/>
<text text-anchor="middle" x="222.88" y="-120.75" font-family="Helvetica,sans-Serif" font-size="10.00">saul/periph.h</text>
</a>
</g>
</g>
<!-- Node1&#45;&gt;Node19 -->
<g id="edge26_Node000001_Node000019" class="edge">
<title>Node1&#45;&gt;Node19</title>
<g id="a_edge26_Node000001_Node000019"><a xlink:title=" ">
<path fill="none" stroke="#63b8ff" d="M207.04,-340.35C210.04,-299.56 218,-191.24 221.35,-145.6"/>
<polygon fill="#63b8ff" stroke="#63b8ff" points="224.83,-146.01 222.07,-135.78 217.85,-145.5 224.83,-146.01"/>
</a>
</g>
</g>
<!-- Node3 -->
<g id="Node000003" class="node">
<title>Node3</title>
<g id="a_Node000003"><a xlink:title=" ">
<polygon fill="#e0e0e0" stroke="#999999" points="298,-247.75 255.75,-247.75 255.75,-227 298,-227 298,-247.75"/>
<text text-anchor="middle" x="276.88" y="-234.25" font-family="Helvetica,sans-Serif" font-size="10.00">cpu.h</text>
</a>
</g>
</g>
<!-- Node2&#45;&gt;Node3 -->
<g id="edge2_Node000002_Node000003" class="edge">
<title>Node2&#45;&gt;Node3</title>
<g id="a_edge2_Node000002_Node000003"><a xlink:title=" ">
<path fill="none" stroke="#63b8ff" d="M276.88,-283.34C276.88,-276.72 276.88,-267.72 276.88,-259.52"/>
<polygon fill="#63b8ff" stroke="#63b8ff" points="280.38,-259.59 276.88,-249.59 273.38,-259.59 280.38,-259.59"/>
</a>
</g>
</g>
<!-- Node4 -->
<g id="Node000004" class="node">
<title>Node4</title>
<g id="a_Node000004"><a xlink:href="drivers_2include_2periph_2gpio_8h.html" target="_top" xlink:title="Low&#45;level GPIO peripheral driver interface definitions.">
<polygon fill="white" stroke="#666666" points="79.75,-77.5 0,-77.5 0,-56.75 79.75,-56.75 79.75,-77.5"/>
<text text-anchor="middle" x="39.88" y="-64" font-family="Helvetica,sans-Serif" font-size="10.00">periph/gpio.h</text>
</a>
</g>
</g>
<!-- Node2&#45;&gt;Node4 -->
<g id="edge3_Node000002_Node000004" class="edge">
<title>Node2&#45;&gt;Node4</title>
<g id="a_edge3_Node000002_Node000004"><a xlink:title=" ">
<path fill="none" stroke="#63b8ff" d="M266.69,-283.46C230.15,-248.77 105.31,-130.25 58.13,-85.46"/>
<polygon fill="#63b8ff" stroke="#63b8ff" points="60.78,-83.15 51.12,-78.8 55.96,-88.22 60.78,-83.15"/>
</a>
</g>
</g>
<!-- Node8 -->
<g id="Node000008" class="node">
<title>Node8</title>
<g id="a_Node000008"><a xlink:href="spi_8h.html" target="_top" xlink:title="Low&#45;level SPI peripheral driver interface definition.">
<polygon fill="white" stroke="#666666" points="429.38,-134.25 356.38,-134.25 356.38,-113.5 429.38,-113.5 429.38,-134.25"/>
<text text-anchor="middle" x="392.88" y="-120.75" font-family="Helvetica,sans-Serif" font-size="10.00">periph/spi.h</text>
</a>
</g>
</g>
<!-- Node2&#45;&gt;Node8 -->
<g id="edge7_Node000002_Node000008" class="edge">
<title>Node2&#45;&gt;Node8</title>
<g id="a_edge7_Node000002_Node000008"><a xlink:title=" ">
<path fill="none" stroke="#63b8ff" d="M283.44,-283.6C301.94,-256.77 354.72,-180.21 379.6,-144.13"/>
<polygon fill="#63b8ff" stroke="#63b8ff" points="382.44,-146.18 385.23,-135.96 376.67,-142.21 382.44,-146.18"/>
</a>
</g>
</g>
<!-- Node14 -->
<g id="Node000014" class="node">
<title>Node14</title>
<g id="a_Node000014"><a xlink:href="cc2538__eui__primary_8h.html" target="_top" xlink:title="CC2538 EUI&#45;64 provider.">
<polygon fill="white" stroke="#666666" points="635.75,-247.75 514,-247.75 514,-227 635.75,-227 635.75,-247.75"/>
<text text-anchor="middle" x="574.88" y="-234.25" font-family="Helvetica,sans-Serif" font-size="10.00">cc2538_eui_primary.h</text>
</a>
</g>
</g>
<!-- Node2&#45;&gt;Node14 -->
<g id="edge17_Node000002_Node000014" class="edge">
<title>Node2&#45;&gt;Node14</title>
<g id="a_edge17_Node000002_Node000014"><a xlink:title=" ">
<path fill="none" stroke="#63b8ff" d="M303.58,-288.22C349.67,-279.75 445.4,-262.16 509.91,-250.31"/>
<polygon fill="#63b8ff" stroke="#63b8ff" points="510.48,-253.76 519.68,-248.52 509.21,-246.88 510.48,-253.76"/>
</a>
</g>
</g>
<!-- Node5 -->
<g id="Node000005" class="node">
<title>Node5</title>
<g id="a_Node000005"><a xlink:title=" ">
<polygon fill="#e0e0e0" stroke="#999999" points="213.25,-20.75 160.5,-20.75 160.5,0 213.25,0 213.25,-20.75"/>
<text text-anchor="middle" x="186.88" y="-7.25" font-family="Helvetica,sans-Serif" font-size="10.00">limits.h</text>
</a>
</g>
</g>
<!-- Node4&#45;&gt;Node5 -->
<g id="edge4_Node000004_Node000005" class="edge">
<title>Node4&#45;&gt;Node5</title>
<g id="a_edge4_Node000004_Node000005"><a xlink:title=" ">
<path fill="none" stroke="#63b8ff" d="M66.16,-56.34C89.57,-47.62 124.06,-34.77 150.19,-25.04"/>
<polygon fill="#63b8ff" stroke="#63b8ff" points="151.25,-28.38 159.4,-21.61 148.81,-21.82 151.25,-28.38"/>
</a>
</g>
</g>
<!-- Node6 -->
<g id="Node000006" class="node">
<title>Node6</title>
<g id="a_Node000006"><a xlink:title=" ">
<polygon fill="#e0e0e0" stroke="#999999" points="310,-20.75 231.75,-20.75 231.75,0 310,0 310,-20.75"/>
<text text-anchor="middle" x="270.88" y="-7.25" font-family="Helvetica,sans-Serif" font-size="10.00">periph_cpu.h</text>
</a>
</g>
</g>
<!-- Node4&#45;&gt;Node6 -->
<g id="edge5_Node000004_Node000006" class="edge">
<title>Node4&#45;&gt;Node6</title>
<g id="a_edge5_Node000004_Node000006"><a xlink:title=" ">
<path fill="none" stroke="#63b8ff" d="M80.11,-56.59C119.07,-47.36 178.26,-33.33 220.36,-23.35"/>
<polygon fill="#63b8ff" stroke="#63b8ff" points="221.09,-26.77 230.01,-21.06 219.47,-19.96 221.09,-26.77"/>
</a>
</g>
</g>
<!-- Node7 -->
<g id="Node000007" class="node">
<title>Node7</title>
<g id="a_Node000007"><a xlink:title=" ">
<polygon fill="#e0e0e0" stroke="#999999" points="142.5,-20.75 61.25,-20.75 61.25,0 142.5,0 142.5,-20.75"/>
<text text-anchor="middle" x="101.88" y="-7.25" font-family="Helvetica,sans-Serif" font-size="10.00">periph_conf.h</text>
</a>
</g>
</g>
<!-- Node4&#45;&gt;Node7 -->
<g id="edge6_Node000004_Node000007" class="edge">
<title>Node4&#45;&gt;Node7</title>
<g id="a_edge6_Node000004_Node000007"><a xlink:title=" ">
<path fill="none" stroke="#63b8ff" d="M50.96,-56.34C59.69,-48.63 72.07,-37.7 82.44,-28.54"/>
<polygon fill="#63b8ff" stroke="#63b8ff" points="84.57,-31.32 89.75,-22.08 79.94,-26.08 84.57,-31.32"/>
</a>
</g>
</g>
<!-- Node8&#45;&gt;Node4 -->
<g id="edge16_Node000008_Node000004" class="edge">
<title>Node8&#45;&gt;Node4</title>
<g id="a_edge16_Node000008_Node000004"><a xlink:title=" ">
<path fill="none" stroke="#63b8ff" d="M356.01,-117.54C299.53,-109.3 188.19,-92.84 93.88,-77.5 93.03,-77.36 92.18,-77.22 91.32,-77.08"/>
<polygon fill="#63b8ff" stroke="#63b8ff" points="91.9,-73.63 81.46,-75.43 90.74,-80.53 91.9,-73.63"/>
</a>
</g>
</g>
<!-- Node8&#45;&gt;Node6 -->
<g id="edge14_Node000008_Node000006" class="edge">
<title>Node8&#45;&gt;Node6</title>
<g id="a_edge14_Node000008_Node000006"><a xlink:title=" ">
<path fill="none" stroke="#63b8ff" d="M382.64,-113.44C368.69,-100.59 342.93,-76.89 320.88,-56.75 310.75,-47.5 299.43,-37.23 290.13,-28.8"/>
<polygon fill="#63b8ff" stroke="#63b8ff" points="292.5,-26.23 282.74,-22.11 287.8,-31.42 292.5,-26.23"/>
</a>
</g>
</g>
<!-- Node8&#45;&gt;Node7 -->
<g id="edge15_Node000008_Node000007" class="edge">
<title>Node8&#45;&gt;Node7</title>
<g id="a_edge15_Node000008_Node000007"><a xlink:title=" ">
<path fill="none" stroke="#63b8ff" d="M355.91,-118.63C287.02,-110.41 144.34,-91.89 126.88,-77.5 113.41,-66.4 107.19,-47.23 104.32,-32.38"/>
<polygon fill="#63b8ff" stroke="#63b8ff" points="107.81,-32.05 102.84,-22.69 100.89,-33.11 107.81,-32.05"/>
</a>
</g>
</g>
<!-- Node9 -->
<g id="Node000009" class="node">
<title>Node9</title>
<g id="a_Node000009"><a xlink:href="endian_8h.html" target="_top" xlink:title="libc header for endian conversion">
<polygon fill="white" stroke="#666666" points="684.88,-77.5 626.88,-77.5 626.88,-56.75 684.88,-56.75 684.88,-77.5"/>
<text text-anchor="middle" x="655.88" y="-64" font-family="Helvetica,sans-Serif" font-size="10.00">endian.h</text>
</a>
</g>
</g>
<!-- Node8&#45;&gt;Node9 -->
<g id="edge8_Node000008_Node000009" class="edge">
<title>Node8&#45;&gt;Node9</title>
<g id="a_edge8_Node000008_Node000009"><a xlink:title=" ">
<path fill="none" stroke="#63b8ff" d="M429.49,-115.45C473.18,-106.57 548.4,-91.18 612.88,-77.5 613.86,-77.29 614.85,-77.08 615.85,-76.87"/>
<polygon fill="#63b8ff" stroke="#63b8ff" points="616.22,-80.37 625.26,-74.84 614.75,-73.52 616.22,-80.37"/>
</a>
</g>
</g>
<!-- Node10 -->
<g id="Node000010" class="node">
<title>Node10</title>
<g id="a_Node000010"><a xlink:title=" ">
<polygon fill="#e0e0e0" stroke="#999999" points="682.25,-20.75 629.5,-20.75 629.5,0 682.25,0 682.25,-20.75"/>
<text text-anchor="middle" x="655.88" y="-7.25" font-family="Helvetica,sans-Serif" font-size="10.00">stdint.h</text>
</a>
</g>
</g>
<!-- Node8&#45;&gt;Node10 -->
<g id="edge13_Node000008_Node000010" class="edge">
<title>Node8&#45;&gt;Node10</title>
<g id="a_edge13_Node000008_Node000010"><a xlink:title=" ">
<path fill="none" stroke="#63b8ff" d="M429.83,-119.16C468.92,-114.06 531.5,-102.5 579.88,-77.5 603.51,-65.28 625.9,-44.23 640.17,-29.16"/>
<polygon fill="#63b8ff" stroke="#63b8ff" points="642.37,-31.94 646.56,-22.21 637.22,-27.2 642.37,-31.94"/>
</a>
</g>
</g>
<!-- Node11 -->
<g id="Node000011" class="node">
<title>Node11</title>
<g id="a_Node000011"><a xlink:href="errno_8h.html" target="_top" xlink:title=" ">
<polygon fill="white" stroke="#666666" points="418.12,-77.5 367.62,-77.5 367.62,-56.75 418.12,-56.75 418.12,-77.5"/>
<text text-anchor="middle" x="392.88" y="-64" font-family="Helvetica,sans-Serif" font-size="10.00">errno.h</text>
</a>
</g>
</g>
<!-- Node8&#45;&gt;Node11 -->
<g id="edge10_Node000008_Node000011" class="edge">
<title>Node8&#45;&gt;Node11</title>
<g id="a_edge10_Node000008_Node000011"><a xlink:title=" ">
<path fill="none" stroke="#63b8ff" d="M392.88,-113.09C392.88,-106.47 392.88,-97.47 392.88,-89.27"/>
<polygon fill="#63b8ff" stroke="#63b8ff" points="396.38,-89.34 392.88,-79.34 389.38,-89.34 396.38,-89.34"/>
</a>
</g>
</g>
<!-- Node12 -->
<g id="Node000012" class="node">
<title>Node12</title>
<g id="a_Node000012"><a xlink:title=" ">
<polygon fill="#e0e0e0" stroke="#999999" points="497.38,-77.5 436.38,-77.5 436.38,-56.75 497.38,-56.75 497.38,-77.5"/>
<text text-anchor="middle" x="466.88" y="-64" font-family="Helvetica,sans-Serif" font-size="10.00">stdbool.h</text>
</a>
</g>
</g>
<!-- Node8&#45;&gt;Node12 -->
<g id="edge11_Node000008_Node000012" class="edge">
<title>Node8&#45;&gt;Node12</title>
<g id="a_edge11_Node000008_Node000012"><a xlink:title=" ">
<path fill="none" stroke="#63b8ff" d="M406.1,-113.09C416.84,-105.15 432.2,-93.78 444.79,-84.46"/>
<polygon fill="#63b8ff" stroke="#63b8ff" points="446.59,-87.49 452.54,-78.73 442.42,-81.86 446.59,-87.49"/>
</a>
</g>
</g>
<!-- Node13 -->
<g id="Node000013" class="node">
<title>Node13</title>
<g id="a_Node000013"><a xlink:title=" ">
<polygon fill="#e0e0e0" stroke="#999999" points="570.38,-77.5 515.38,-77.5 515.38,-56.75 570.38,-56.75 570.38,-77.5"/>
<text text-anchor="middle" x="542.88" y="-64" font-family="Helvetica,sans-Serif" font-size="10.00">stddef.h</text>
</a>
</g>
</g>
<!-- Node8&#45;&gt;Node13 -->
<g id="edge12_Node000008_Node000013" class="edge">
<title>Node8&#45;&gt;Node13</title>
<g id="a_edge12_Node000008_Node000013"><a xlink:title=" ">
<path fill="none" stroke="#63b8ff" d="M419.69,-113.09C443.61,-104.36 478.88,-91.48 505.55,-81.75"/>
<polygon fill="#63b8ff" stroke="#63b8ff" points="506.42,-85.16 514.62,-78.44 504.02,-78.58 506.42,-85.16"/>
</a>
</g>
</g>
<!-- Node9&#45;&gt;Node10 -->
<g id="edge9_Node000009_Node000010" class="edge">
<title>Node9&#45;&gt;Node10</title>
<g id="a_edge9_Node000009_Node000010"><a xlink:title=" ">
<path fill="none" stroke="#63b8ff" d="M655.88,-56.34C655.88,-49.72 655.88,-40.72 655.88,-32.52"/>
<polygon fill="#63b8ff" stroke="#63b8ff" points="659.38,-32.59 655.88,-22.59 652.38,-32.59 659.38,-32.59"/>
</a>
</g>
</g>
<!-- Node15 -->
<g id="Node000015" class="node">
<title>Node15</title>
<g id="a_Node000015"><a xlink:href="eui64_8h.html" target="_top" xlink:title="EUI&#45;64 data type definition.">
<polygon fill="white" stroke="#666666" points="748.25,-191 677.5,-191 677.5,-170.25 748.25,-170.25 748.25,-191"/>
<text text-anchor="middle" x="712.88" y="-177.5" font-family="Helvetica,sans-Serif" font-size="10.00">net/eui64.h</text>
</a>
</g>
</g>
<!-- Node14&#45;&gt;Node15 -->
<g id="edge18_Node000014_Node000015" class="edge">
<title>Node14&#45;&gt;Node15</title>
<g id="a_edge18_Node000014_Node000015"><a xlink:title=" ">
<path fill="none" stroke="#63b8ff" d="M599.55,-226.59C621.33,-217.94 653.33,-205.25 677.78,-195.55"/>
<polygon fill="#63b8ff" stroke="#63b8ff" points="679.01,-198.83 687.01,-191.89 676.42,-192.32 679.01,-198.83"/>
</a>
</g>
</g>
<!-- Node15&#45;&gt;Node10 -->
<g id="edge19_Node000015_Node000010" class="edge">
<title>Node15&#45;&gt;Node10</title>
<g id="a_edge19_Node000015_Node000010"><a xlink:title=" ">
<path fill="none" stroke="#63b8ff" d="M713.1,-169.88C713.25,-148.42 711.6,-95.88 693.88,-56.75 689.3,-46.66 681.84,-37.02 674.74,-29.24"/>
<polygon fill="#63b8ff" stroke="#63b8ff" points="677.3,-26.85 667.81,-22.13 672.28,-31.74 677.3,-26.85"/>
</a>
</g>
</g>
<!-- Node16 -->
<g id="Node000016" class="node">
<title>Node16</title>
<g id="a_Node000016"><a xlink:href="byteorder_8h.html" target="_top" xlink:title="Functions to work with different byte orders.">
<polygon fill="white" stroke="#666666" points="814,-134.25 741.75,-134.25 741.75,-113.5 814,-113.5 814,-134.25"/>
<text text-anchor="middle" x="777.88" y="-120.75" font-family="Helvetica,sans-Serif" font-size="10.00">byteorder.h</text>
</a>
</g>
</g>
<!-- Node15&#45;&gt;Node16 -->
<g id="edge20_Node000015_Node000016" class="edge">
<title>Node15&#45;&gt;Node16</title>
<g id="a_edge20_Node000015_Node000016"><a xlink:title=" ">
<path fill="none" stroke="#63b8ff" d="M724.5,-169.84C733.74,-162.05 746.89,-150.97 757.82,-141.76"/>
<polygon fill="#63b8ff" stroke="#63b8ff" points="759.8,-144.67 765.2,-135.55 755.29,-139.32 759.8,-144.67"/>
</a>
</g>
</g>
<!-- Node16&#45;&gt;Node9 -->
<g id="edge23_Node000016_Node000009" class="edge">
<title>Node16&#45;&gt;Node9</title>
<g id="a_edge23_Node000016_Node000009"><a xlink:title=" ">
<path fill="none" stroke="#63b8ff" d="M756.06,-113.09C737.07,-104.56 709.28,-92.09 687.78,-82.44"/>
<polygon fill="#63b8ff" stroke="#63b8ff" points="689.43,-79.35 678.88,-78.45 686.57,-85.74 689.43,-79.35"/>
</a>
</g>
</g>
<!-- Node16&#45;&gt;Node10 -->
<g id="edge22_Node000016_Node000010" class="edge">
<title>Node16&#45;&gt;Node10</title>
<g id="a_edge22_Node000016_Node000010"><a xlink:title=" ">
<path fill="none" stroke="#63b8ff" d="M793.25,-113.04C811.79,-99.95 838.75,-76.18 823.88,-56.75 808.15,-36.22 738.32,-22.85 693.79,-16.25"/>
<polygon fill="#63b8ff" stroke="#63b8ff" points="694.4,-12.81 684.01,-14.86 693.42,-19.74 694.4,-12.81"/>
</a>
</g>
</g>
<!-- Node17 -->
<g id="Node000017" class="node">
<title>Node17</title>
<g id="a_Node000017"><a xlink:title=" ">
<polygon fill="#e0e0e0" stroke="#999999" points="923.25,-77.5 870.5,-77.5 870.5,-56.75 923.25,-56.75 923.25,-77.5"/>
<text text-anchor="middle" x="896.88" y="-64" font-family="Helvetica,sans-Serif" font-size="10.00">string.h</text>
</a>
</g>
</g>
<!-- Node16&#45;&gt;Node17 -->
<g id="edge21_Node000016_Node000017" class="edge">
<title>Node16&#45;&gt;Node17</title>
<g id="a_edge21_Node000016_Node000017"><a xlink:title=" ">
<path fill="none" stroke="#63b8ff" d="M799.15,-113.09C817.59,-104.6 844.54,-92.2 865.47,-82.58"/>
<polygon fill="#63b8ff" stroke="#63b8ff" points="866.79,-85.82 874.41,-78.46 863.86,-79.46 866.79,-85.82"/>
</a>
</g>
</g>
<!-- Node18 -->
<g id="Node000018" class="node">
<title>Node18</title>
<g id="a_Node000018"><a xlink:href="unaligned_8h.html" target="_top" xlink:title="Unaligned but safe memory access functions.">
<polygon fill="white" stroke="#666666" points="814.38,-77.5 741.38,-77.5 741.38,-56.75 814.38,-56.75 814.38,-77.5"/>
<text text-anchor="middle" x="777.88" y="-64" font-family="Helvetica,sans-Serif" font-size="10.00">unaligned.h</text>
</a>
</g>
</g>
<!-- Node16&#45;&gt;Node18 -->
<g id="edge24_Node000016_Node000018" class="edge">
<title>Node16&#45;&gt;Node18</title>
<g id="a_edge24_Node000016_Node000018"><a xlink:title=" ">
<path fill="none" stroke="#63b8ff" d="M777.88,-113.09C777.88,-106.47 777.88,-97.47 777.88,-89.27"/>
<polygon fill="#63b8ff" stroke="#63b8ff" points="781.38,-89.34 777.88,-79.34 774.38,-89.34 781.38,-89.34"/>
</a>
</g>
</g>
<!-- Node18&#45;&gt;Node10 -->
<g id="edge25_Node000018_Node000010" class="edge">
<title>Node18&#45;&gt;Node10</title>
<g id="a_edge25_Node000018_Node000010"><a xlink:title=" ">
<path fill="none" stroke="#63b8ff" d="M756.06,-56.34C737.07,-47.81 709.28,-35.34 687.78,-25.69"/>
<polygon fill="#63b8ff" stroke="#63b8ff" points="689.43,-22.6 678.88,-21.7 686.57,-28.99 689.43,-22.6"/>
</a>
</g>
</g>
<!-- Node19&#45;&gt;Node4 -->
<g id="edge27_Node000019_Node000004" class="edge">
<title>Node19&#45;&gt;Node4</title>
<g id="a_edge27_Node000019_Node000004"><a xlink:title=" ">
<path fill="none" stroke="#63b8ff" d="M190.16,-113.09C160.32,-104.16 116.03,-90.91 83.25,-81.1"/>
<polygon fill="#63b8ff" stroke="#63b8ff" points="84.65,-77.87 74.07,-78.35 82.64,-84.57 84.65,-77.87"/>
</a>
</g>
</g>
<!-- Node20 -->
<g id="Node000020" class="node">
<title>Node20</title>
<g id="a_Node000020"><a xlink:href="adc_8h.html" target="_top" xlink:title="Low&#45;level ADC peripheral driver interface definitions.">
<polygon fill="white" stroke="#666666" points="211.88,-77.5 135.88,-77.5 135.88,-56.75 211.88,-56.75 211.88,-77.5"/>
<text text-anchor="middle" x="173.88" y="-64" font-family="Helvetica,sans-Serif" font-size="10.00">periph/adc.h</text>
</a>
</g>
</g>
<!-- Node19&#45;&gt;Node20 -->
<g id="edge28_Node000019_Node000020" class="edge">
<title>Node19&#45;&gt;Node20</title>
<g id="a_edge28_Node000019_Node000020"><a xlink:title=" ">
<path fill="none" stroke="#63b8ff" d="M214.11,-113.09C207.43,-105.61 198.02,-95.11 189.99,-86.13"/>
<polygon fill="#63b8ff" stroke="#63b8ff" points="192.85,-84.07 183.57,-78.96 187.63,-88.74 192.85,-84.07"/>
</a>
</g>
</g>
<!-- Node21 -->
<g id="Node000021" class="node">
<title>Node21</title>
<g id="a_Node000021"><a xlink:href="pwm_8h.html" target="_top" xlink:title="Low&#45;level PWM peripheral driver interface definitions.">
<polygon fill="white" stroke="#666666" points="312.25,-77.5 229.5,-77.5 229.5,-56.75 312.25,-56.75 312.25,-77.5"/>
<text text-anchor="middle" x="270.88" y="-64" font-family="Helvetica,sans-Serif" font-size="10.00">periph/pwm.h</text>
</a>
</g>
</g>
<!-- Node19&#45;&gt;Node21 -->
<g id="edge33_Node000019_Node000021" class="edge">
<title>Node19&#45;&gt;Node21</title>
<g id="a_edge33_Node000019_Node000021"><a xlink:title=" ">
<path fill="none" stroke="#63b8ff" d="M231.46,-113.09C237.94,-105.69 247.03,-95.32 254.85,-86.41"/>
<polygon fill="#63b8ff" stroke="#63b8ff" points="257.41,-88.79 261.37,-78.97 252.15,-84.18 257.41,-88.79"/>
</a>
</g>
</g>
<!-- Node20&#45;&gt;Node5 -->
<g id="edge29_Node000020_Node000005" class="edge">
<title>Node20&#45;&gt;Node5</title>
<g id="a_edge29_Node000020_Node000005"><a xlink:title=" ">
<path fill="none" stroke="#63b8ff" d="M176.2,-56.34C177.79,-49.64 179.96,-40.51 181.92,-32.23"/>
<polygon fill="#63b8ff" stroke="#63b8ff" points="185.32,-33.09 184.22,-22.55 178.51,-31.47 185.32,-33.09"/>
</a>
</g>
</g>
<!-- Node20&#45;&gt;Node6 -->
<g id="edge31_Node000020_Node000006" class="edge">
<title>Node20&#45;&gt;Node6</title>
<g id="a_edge31_Node000020_Node000006"><a xlink:title=" ">
<path fill="none" stroke="#63b8ff" d="M191.22,-56.34C205.84,-48.08 227.01,-36.13 243.85,-26.63"/>
<polygon fill="#63b8ff" stroke="#63b8ff" points="245.38,-29.79 252.37,-21.82 241.94,-23.69 245.38,-29.79"/>
</a>
</g>
</g>
<!-- Node20&#45;&gt;Node7 -->
<g id="edge32_Node000020_Node000007" class="edge">
<title>Node20&#45;&gt;Node7</title>
<g id="a_edge32_Node000020_Node000007"><a xlink:title=" ">
<path fill="none" stroke="#63b8ff" d="M161,-56.34C150.66,-48.47 135.91,-37.25 123.72,-27.99"/>
<polygon fill="#63b8ff" stroke="#63b8ff" points="125.92,-25.26 115.84,-21.99 121.68,-30.83 125.92,-25.26"/>
</a>
</g>
</g>
<!-- Node20&#45;&gt;Node10 -->
<g id="edge30_Node000020_Node000010" class="edge">
<title>Node20&#45;&gt;Node10</title>
<g id="a_edge30_Node000020_Node000010"><a xlink:title=" ">
<path fill="none" stroke="#63b8ff" d="M212.3,-58.16C215.19,-57.65 218.08,-57.17 220.88,-56.75 366.78,-34.64 541.87,-19.95 617.73,-14.15"/>
<polygon fill="#63b8ff" stroke="#63b8ff" points="617.82,-17.66 627.53,-13.42 617.29,-10.68 617.82,-17.66"/>
</a>
</g>
</g>
<!-- Node21&#45;&gt;Node5 -->
<g id="edge35_Node000021_Node000005" class="edge">
<title>Node21&#45;&gt;Node5</title>
<g id="a_edge35_Node000021_Node000005"><a xlink:title=" ">
<path fill="none" stroke="#63b8ff" d="M255.86,-56.34C243.43,-48.24 225.55,-36.58 211.1,-27.17"/>
<polygon fill="#63b8ff" stroke="#63b8ff" points="213.32,-24.43 203.03,-21.9 209.5,-30.3 213.32,-24.43"/>
</a>
</g>
</g>
<!-- Node21&#45;&gt;Node6 -->
<g id="edge36_Node000021_Node000006" class="edge">
<title>Node21&#45;&gt;Node6</title>
<g id="a_edge36_Node000021_Node000006"><a xlink:title=" ">
<path fill="none" stroke="#63b8ff" d="M270.88,-56.34C270.88,-49.72 270.88,-40.72 270.88,-32.52"/>
<polygon fill="#63b8ff" stroke="#63b8ff" points="274.38,-32.59 270.88,-22.59 267.38,-32.59 274.38,-32.59"/>
</a>
</g>
</g>
<!-- Node21&#45;&gt;Node7 -->
<g id="edge37_Node000021_Node000007" class="edge">
<title>Node21&#45;&gt;Node7</title>
<g id="a_edge37_Node000021_Node000007"><a xlink:title=" ">
<path fill="none" stroke="#63b8ff" d="M240.66,-56.34C213.35,-47.49 172.92,-34.39 142.73,-24.61"/>
<polygon fill="#63b8ff" stroke="#63b8ff" points="144.14,-21.39 133.55,-21.64 141.99,-28.05 144.14,-21.39"/>
</a>
</g>
</g>
<!-- Node21&#45;&gt;Node10 -->
<g id="edge34_Node000021_Node000010" class="edge">
<title>Node21&#45;&gt;Node10</title>
<g id="a_edge34_Node000021_Node000010"><a xlink:title=" ">
<path fill="none" stroke="#63b8ff" d="M312.44,-60.21C387.77,-49.5 545.75,-27.04 618.16,-16.74"/>
<polygon fill="#63b8ff" stroke="#63b8ff" points="618.52,-20.22 627.93,-15.35 617.53,-13.29 618.52,-20.22"/>
</a>
</g>
</g>
</g>
</svg>
