<?xml version="1.0" encoding="UTF-8" standalone="no"?>
<!DOCTYPE svg PUBLIC "-//W3C//DTD SVG 1.1//EN"
 "http://www.w3.org/Graphics/SVG/1.1/DTD/svg11.dtd">
<!-- Generated by graphviz version 12.1.1 (0)
 -->
<!-- Title: pkg/openwsn/include/openwsn_radio.h Pages: 1 -->
<svg width="932pt" height="382pt"
 viewBox="0.00 0.00 932.40 382.00" xmlns="http://www.w3.org/2000/svg" xmlns:xlink="http://www.w3.org/1999/xlink">
<g id="graph0" class="graph" transform="scale(1 1) rotate(0) translate(4 378)">
<title>pkg/openwsn/include/openwsn_radio.h</title>
<!-- Node1 -->
<g id="Node000001" class="node">
<title>Node1</title>
<g id="a_Node000001"><a xlink:title="RIOT adaption of the &quot;radio&quot; bsp module definitions.">
<polygon fill="#999999" stroke="#666666" points="394.62,-374 275.88,-374 275.88,-340.5 394.62,-340.5 394.62,-374"/>
<text text-anchor="start" x="283.88" y="-360.5" font-family="Helvetica,sans-Serif" font-size="10.00">pkg/openwsn/include</text>
<text text-anchor="middle" x="335.25" y="-347.75" font-family="Helvetica,sans-Serif" font-size="10.00">/openwsn_radio.h</text>
</a>
</g>
</g>
<!-- Node2 -->
<g id="Node000002" class="node">
<title>Node2</title>
<g id="a_Node000002"><a xlink:href="drivers_2include_2net_2netdev_8h.html" target="_top" xlink:title="Definitions low&#45;level network driver interface.">
<polygon fill="white" stroke="#666666" points="193.62,-247.75 116.88,-247.75 116.88,-227 193.62,-227 193.62,-247.75"/>
<text text-anchor="middle" x="155.25" y="-234.25" font-family="Helvetica,sans-Serif" font-size="10.00">net/netdev.h</text>
</a>
</g>
</g>
<!-- Node1&#45;&gt;Node2 -->
<g id="edge1_Node000001_Node000002" class="edge">
<title>Node1&#45;&gt;Node2</title>
<g id="a_edge1_Node000001_Node000002"><a xlink:title=" ">
<path fill="none" stroke="#63b8ff" d="M310.6,-340.11C276.07,-317.5 213.7,-276.65 179.43,-254.21"/>
<polygon fill="#63b8ff" stroke="#63b8ff" points="181.71,-251.52 171.42,-248.97 177.87,-257.37 181.71,-251.52"/>
</a>
</g>
</g>
<!-- Node17 -->
<g id="Node000017" class="node">
<title>Node17</title>
<g id="a_Node000017"><a xlink:href="radio_8h_source.html" target="_top" xlink:title=" ">
<polygon fill="white" stroke="#666666" points="568.5,-304.5 440,-304.5 440,-283.75 568.5,-283.75 568.5,-304.5"/>
<text text-anchor="middle" x="504.25" y="-291" font-family="Helvetica,sans-Serif" font-size="10.00">net/ieee802154/radio.h</text>
</a>
</g>
</g>
<!-- Node1&#45;&gt;Node17 -->
<g id="edge25_Node000001_Node000017" class="edge">
<title>Node1&#45;&gt;Node17</title>
<g id="a_edge25_Node000001_Node000017"><a xlink:title=" ">
<path fill="none" stroke="#63b8ff" d="M380.1,-340.03C407.01,-330.29 440.87,-318.05 466.43,-308.8"/>
<polygon fill="#63b8ff" stroke="#63b8ff" points="467.55,-312.12 475.76,-305.43 465.16,-305.54 467.55,-312.12"/>
</a>
</g>
</g>
<!-- Node3 -->
<g id="Node000003" class="node">
<title>Node3</title>
<g id="a_Node000003"><a xlink:title=" ">
<polygon fill="#e0e0e0" stroke="#999999" points="509.62,-20.75 456.88,-20.75 456.88,0 509.62,0 509.62,-20.75"/>
<text text-anchor="middle" x="483.25" y="-7.25" font-family="Helvetica,sans-Serif" font-size="10.00">stdint.h</text>
</a>
</g>
</g>
<!-- Node2&#45;&gt;Node3 -->
<g id="edge2_Node000002_Node000003" class="edge">
<title>Node2&#45;&gt;Node3</title>
<g id="a_edge2_Node000002_Node000003"><a xlink:title=" ">
<path fill="none" stroke="#63b8ff" d="M140.3,-226.71C129.04,-218.59 114.22,-205.93 106.25,-191 77.49,-137.16 83.38,-88.93 135.25,-56.75 186.41,-25.02 365.94,-15.24 445.18,-12.43"/>
<polygon fill="#63b8ff" stroke="#63b8ff" points="445.16,-15.93 455.04,-12.1 444.93,-8.93 445.16,-15.93"/>
</a>
</g>
</g>
<!-- Node4 -->
<g id="Node000004" class="node">
<title>Node4</title>
<g id="a_Node000004"><a xlink:href="errno_8h.html" target="_top" xlink:title=" ">
<polygon fill="white" stroke="#666666" points="50.5,-191 0,-191 0,-170.25 50.5,-170.25 50.5,-191"/>
<text text-anchor="middle" x="25.25" y="-177.5" font-family="Helvetica,sans-Serif" font-size="10.00">errno.h</text>
</a>
</g>
</g>
<!-- Node2&#45;&gt;Node4 -->
<g id="edge3_Node000002_Node000004" class="edge">
<title>Node2&#45;&gt;Node4</title>
<g id="a_edge3_Node000002_Node000004"><a xlink:title=" ">
<path fill="none" stroke="#63b8ff" d="M132.01,-226.59C111.58,-217.98 81.61,-205.36 58.62,-195.68"/>
<polygon fill="#63b8ff" stroke="#63b8ff" points="60.26,-192.57 49.69,-191.92 57.54,-199.02 60.26,-192.57"/>
</a>
</g>
</g>
<!-- Node5 -->
<g id="Node000005" class="node">
<title>Node5</title>
<g id="a_Node000005"><a xlink:href="iolist_8h.html" target="_top" xlink:title="iolist scatter / gather IO">
<polygon fill="white" stroke="#666666" points="164.75,-191 115.75,-191 115.75,-170.25 164.75,-170.25 164.75,-191"/>
<text text-anchor="middle" x="140.25" y="-177.5" font-family="Helvetica,sans-Serif" font-size="10.00">iolist.h</text>
</a>
</g>
</g>
<!-- Node2&#45;&gt;Node5 -->
<g id="edge4_Node000002_Node000005" class="edge">
<title>Node2&#45;&gt;Node5</title>
<g id="a_edge4_Node000002_Node000005"><a xlink:title=" ">
<path fill="none" stroke="#63b8ff" d="M152.57,-226.59C150.71,-219.81 148.17,-210.55 145.88,-202.19"/>
<polygon fill="#63b8ff" stroke="#63b8ff" points="149.33,-201.51 143.31,-192.79 142.58,-203.36 149.33,-201.51"/>
</a>
</g>
</g>
<!-- Node9 -->
<g id="Node000009" class="node">
<title>Node9</title>
<g id="a_Node000009"><a xlink:href="netopt_8h.html" target="_top" xlink:title="Definition of global configuration options.">
<polygon fill="white" stroke="#666666" points="257.88,-191 182.62,-191 182.62,-170.25 257.88,-170.25 257.88,-191"/>
<text text-anchor="middle" x="220.25" y="-177.5" font-family="Helvetica,sans-Serif" font-size="10.00">net/netopt.h</text>
</a>
</g>
</g>
<!-- Node2&#45;&gt;Node9 -->
<g id="edge11_Node000002_Node000009" class="edge">
<title>Node2&#45;&gt;Node9</title>
<g id="a_edge11_Node000002_Node000009"><a xlink:title=" ">
<path fill="none" stroke="#63b8ff" d="M166.87,-226.59C176.11,-218.8 189.26,-207.72 200.2,-198.51"/>
<polygon fill="#63b8ff" stroke="#63b8ff" points="202.18,-201.42 207.57,-192.3 197.67,-196.07 202.18,-201.42"/>
</a>
</g>
</g>
<!-- Node11 -->
<g id="Node000011" class="node">
<title>Node11</title>
<g id="a_Node000011"><a xlink:href="kernel__defines_8h.html" target="_top" xlink:title="Common macros and compiler attributes/pragmas configuration.">
<polygon fill="white" stroke="#666666" points="425.38,-191 329.12,-191 329.12,-170.25 425.38,-170.25 425.38,-191"/>
<text text-anchor="middle" x="377.25" y="-177.5" font-family="Helvetica,sans-Serif" font-size="10.00">kernel_defines.h</text>
</a>
</g>
</g>
<!-- Node2&#45;&gt;Node11 -->
<g id="edge14_Node000002_Node000011" class="edge">
<title>Node2&#45;&gt;Node11</title>
<g id="a_edge14_Node000002_Node000011"><a xlink:title=" ">
<path fill="none" stroke="#63b8ff" d="M193.92,-226.84C230.71,-217.76 286.28,-204.06 326.59,-194.12"/>
<polygon fill="#63b8ff" stroke="#63b8ff" points="327.19,-197.58 336.06,-191.78 325.51,-190.78 327.19,-197.58"/>
</a>
</g>
</g>
<!-- Node6 -->
<g id="Node000006" class="node">
<title>Node6</title>
<g id="a_Node000006"><a xlink:href="unistd_8h_source.html" target="_top" xlink:title=" ">
<polygon fill="white" stroke="#666666" points="161.75,-134.25 106.75,-134.25 106.75,-113.5 161.75,-113.5 161.75,-134.25"/>
<text text-anchor="middle" x="134.25" y="-120.75" font-family="Helvetica,sans-Serif" font-size="10.00">unistd.h</text>
</a>
</g>
</g>
<!-- Node5&#45;&gt;Node6 -->
<g id="edge5_Node000005_Node000006" class="edge">
<title>Node5&#45;&gt;Node6</title>
<g id="a_edge5_Node000005_Node000006"><a xlink:title=" ">
<path fill="none" stroke="#63b8ff" d="M139.18,-169.84C138.45,-163.22 137.47,-154.22 136.57,-146.02"/>
<polygon fill="#63b8ff" stroke="#63b8ff" points="140.05,-145.64 135.48,-136.08 133.09,-146.4 140.05,-145.64"/>
</a>
</g>
</g>
<!-- Node6&#45;&gt;Node3 -->
<g id="edge7_Node000006_Node000003" class="edge">
<title>Node6&#45;&gt;Node3</title>
<g id="a_edge7_Node000006_Node000003"><a xlink:title=" ">
<path fill="none" stroke="#63b8ff" d="M154.06,-113.02C190.63,-94.84 265.29,-57.77 268.25,-56.75 328.52,-35.89 401.76,-22.93 445.33,-16.44"/>
<polygon fill="#63b8ff" stroke="#63b8ff" points="445.64,-19.93 455.03,-15.03 444.63,-13 445.64,-19.93"/>
</a>
</g>
</g>
<!-- Node7 -->
<g id="Node000007" class="node">
<title>Node7</title>
<g id="a_Node000007"><a xlink:title=" ">
<polygon fill="#e0e0e0" stroke="#999999" points="207.75,-20.75 152.75,-20.75 152.75,0 207.75,0 207.75,-20.75"/>
<text text-anchor="middle" x="180.25" y="-7.25" font-family="Helvetica,sans-Serif" font-size="10.00">stddef.h</text>
</a>
</g>
</g>
<!-- Node6&#45;&gt;Node7 -->
<g id="edge6_Node000006_Node000007" class="edge">
<title>Node6&#45;&gt;Node7</title>
<g id="a_edge6_Node000006_Node000007"><a xlink:title=" ">
<path fill="none" stroke="#63b8ff" d="M132.26,-113.45C129.94,-100.2 127.33,-75.59 135.25,-56.75 139.91,-45.67 148.69,-35.84 157.26,-28.19"/>
<polygon fill="#63b8ff" stroke="#63b8ff" points="159.28,-31.06 164.78,-22 154.83,-25.66 159.28,-31.06"/>
</a>
</g>
</g>
<!-- Node8 -->
<g id="Node000008" class="node">
<title>Node8</title>
<g id="a_Node000008"><a xlink:href="cpu_2avr8__common_2avr__libc__extra_2include_2sys_2types_8h_source.html" target="_top" xlink:title=" ">
<polygon fill="white" stroke="#666666" points="216,-77.5 144.5,-77.5 144.5,-56.75 216,-56.75 216,-77.5"/>
<text text-anchor="middle" x="180.25" y="-64" font-family="Helvetica,sans-Serif" font-size="10.00">sys/types.h</text>
</a>
</g>
</g>
<!-- Node6&#45;&gt;Node8 -->
<g id="edge8_Node000006_Node000008" class="edge">
<title>Node6&#45;&gt;Node8</title>
<g id="a_edge8_Node000006_Node000008"><a xlink:title=" ">
<path fill="none" stroke="#63b8ff" d="M142.47,-113.09C148.69,-105.69 157.4,-95.32 164.89,-86.41"/>
<polygon fill="#63b8ff" stroke="#63b8ff" points="167.37,-88.9 171.12,-78.99 162.01,-84.39 167.37,-88.9"/>
</a>
</g>
</g>
<!-- Node8&#45;&gt;Node3 -->
<g id="edge9_Node000008_Node000003" class="edge">
<title>Node8&#45;&gt;Node3</title>
<g id="a_edge9_Node000008_Node000003"><a xlink:title=" ">
<path fill="none" stroke="#63b8ff" d="M216.29,-59.33C220.99,-58.46 225.73,-57.58 230.25,-56.75 306.64,-42.74 396.1,-26.81 445.55,-18.04"/>
<polygon fill="#63b8ff" stroke="#63b8ff" points="445.92,-21.53 455.16,-16.34 444.7,-14.64 445.92,-21.53"/>
</a>
</g>
</g>
<!-- Node8&#45;&gt;Node7 -->
<g id="edge10_Node000008_Node000007" class="edge">
<title>Node8&#45;&gt;Node7</title>
<g id="a_edge10_Node000008_Node000007"><a xlink:title=" ">
<path fill="none" stroke="#63b8ff" d="M180.25,-56.34C180.25,-49.72 180.25,-40.72 180.25,-32.52"/>
<polygon fill="#63b8ff" stroke="#63b8ff" points="183.75,-32.59 180.25,-22.59 176.75,-32.59 183.75,-32.59"/>
</a>
</g>
</g>
<!-- Node9&#45;&gt;Node3 -->
<g id="edge12_Node000009_Node000003" class="edge">
<title>Node9&#45;&gt;Node3</title>
<g id="a_edge12_Node000009_Node000003"><a xlink:title=" ">
<path fill="none" stroke="#63b8ff" d="M214.76,-170.15C207.59,-156.41 197.3,-130.71 209.25,-113.5 237.03,-73.49 377.13,-36.08 445.54,-19.85"/>
<polygon fill="#63b8ff" stroke="#63b8ff" points="446.25,-23.28 455.19,-17.6 444.65,-16.47 446.25,-23.28"/>
</a>
</g>
</g>
<!-- Node10 -->
<g id="Node000010" class="node">
<title>Node10</title>
<g id="a_Node000010"><a xlink:title=" ">
<polygon fill="#e0e0e0" stroke="#999999" points="279.75,-134.25 218.75,-134.25 218.75,-113.5 279.75,-113.5 279.75,-134.25"/>
<text text-anchor="middle" x="249.25" y="-120.75" font-family="Helvetica,sans-Serif" font-size="10.00">stdbool.h</text>
</a>
</g>
</g>
<!-- Node9&#45;&gt;Node10 -->
<g id="edge13_Node000009_Node000010" class="edge">
<title>Node9&#45;&gt;Node10</title>
<g id="a_edge13_Node000009_Node000010"><a xlink:title=" ">
<path fill="none" stroke="#63b8ff" d="M225.43,-169.84C229.15,-162.83 234.27,-153.16 238.81,-144.58"/>
<polygon fill="#63b8ff" stroke="#63b8ff" points="241.81,-146.39 243.4,-135.92 235.63,-143.11 241.81,-146.39"/>
</a>
</g>
</g>
<!-- Node12 -->
<g id="Node000012" class="node">
<title>Node12</title>
<g id="a_Node000012"><a xlink:href="modules_8h.html" target="_top" xlink:title="Common macros and compiler attributes/pragmas configuration.">
<polygon fill="white" stroke="#666666" points="619.75,-134.25 552.75,-134.25 552.75,-113.5 619.75,-113.5 619.75,-134.25"/>
<text text-anchor="middle" x="586.25" y="-120.75" font-family="Helvetica,sans-Serif" font-size="10.00">modules.h</text>
</a>
</g>
</g>
<!-- Node11&#45;&gt;Node12 -->
<g id="edge15_Node000011_Node000012" class="edge">
<title>Node11&#45;&gt;Node12</title>
<g id="a_edge15_Node000011_Node000012"><a xlink:title=" ">
<path fill="none" stroke="#63b8ff" d="M414.62,-169.84C450.2,-160.51 503.8,-146.47 541.62,-136.57"/>
<polygon fill="#63b8ff" stroke="#63b8ff" points="542.07,-140.07 550.86,-134.15 540.3,-133.3 542.07,-140.07"/>
</a>
</g>
</g>
<!-- Node13 -->
<g id="Node000013" class="node">
<title>Node13</title>
<g id="a_Node000013"><a xlink:href="riot__version_8h.html" target="_top" xlink:title="Common macros and compiler attributes/pragmas configuration.">
<polygon fill="white" stroke="#666666" points="380.62,-134.25 297.88,-134.25 297.88,-113.5 380.62,-113.5 380.62,-134.25"/>
<text text-anchor="middle" x="339.25" y="-120.75" font-family="Helvetica,sans-Serif" font-size="10.00">riot_version.h</text>
</a>
</g>
</g>
<!-- Node11&#45;&gt;Node13 -->
<g id="edge16_Node000011_Node000013" class="edge">
<title>Node11&#45;&gt;Node13</title>
<g id="a_edge16_Node000011_Node000013"><a xlink:title=" ">
<path fill="none" stroke="#63b8ff" d="M370.46,-169.84C365.48,-162.67 358.58,-152.73 352.53,-144.01"/>
<polygon fill="#63b8ff" stroke="#63b8ff" points="355.43,-142.04 346.85,-135.82 349.67,-146.03 355.43,-142.04"/>
</a>
</g>
</g>
<!-- Node14 -->
<g id="Node000014" class="node">
<title>Node14</title>
<g id="a_Node000014"><a xlink:href="compiler__hints_8h.html" target="_top" xlink:title="Common macros and compiler attributes/pragmas configuration.">
<polygon fill="white" stroke="#666666" points="495.75,-134.25 398.75,-134.25 398.75,-113.5 495.75,-113.5 495.75,-134.25"/>
<text text-anchor="middle" x="447.25" y="-120.75" font-family="Helvetica,sans-Serif" font-size="10.00">compiler_hints.h</text>
</a>
</g>
</g>
<!-- Node11&#45;&gt;Node14 -->
<g id="edge18_Node000011_Node000014" class="edge">
<title>Node11&#45;&gt;Node14</title>
<g id="a_edge18_Node000011_Node000014"><a xlink:title=" ">
<path fill="none" stroke="#63b8ff" d="M389.76,-169.84C399.82,-161.97 414.16,-150.75 426.01,-141.49"/>
<polygon fill="#63b8ff" stroke="#63b8ff" points="427.93,-144.43 433.65,-135.51 423.62,-138.91 427.93,-144.43"/>
</a>
</g>
</g>
<!-- Node16 -->
<g id="Node000016" class="node">
<title>Node16</title>
<g id="a_Node000016"><a xlink:href="container_8h.html" target="_top" xlink:title="Common macros and compiler attributes/pragmas configuration.">
<polygon fill="white" stroke="#666666" points="559.62,-77.5 488.88,-77.5 488.88,-56.75 559.62,-56.75 559.62,-77.5"/>
<text text-anchor="middle" x="524.25" y="-64" font-family="Helvetica,sans-Serif" font-size="10.00">container.h</text>
</a>
</g>
</g>
<!-- Node11&#45;&gt;Node16 -->
<g id="edge22_Node000011_Node000016" class="edge">
<title>Node11&#45;&gt;Node16</title>
<g id="a_edge22_Node000011_Node000016"><a xlink:title=" ">
<path fill="none" stroke="#63b8ff" d="M417.06,-169.79C449.87,-160.94 492.93,-147.34 505.25,-134.25 516.77,-122 521.37,-103.23 523.17,-88.81"/>
<polygon fill="#63b8ff" stroke="#63b8ff" points="526.64,-89.31 524.01,-79.05 519.67,-88.71 526.64,-89.31"/>
</a>
</g>
</g>
<!-- Node13&#45;&gt;Node3 -->
<g id="edge17_Node000013_Node000003" class="edge">
<title>Node13&#45;&gt;Node3</title>
<g id="a_edge17_Node000013_Node000003"><a xlink:title=" ">
<path fill="none" stroke="#63b8ff" d="M346.33,-113.43C356.94,-99.72 378.09,-74.05 400.25,-56.75 415.75,-44.64 434.92,-33.93 450.92,-25.96"/>
<polygon fill="#63b8ff" stroke="#63b8ff" points="452.07,-29.3 459.55,-21.79 449.02,-22.99 452.07,-29.3"/>
</a>
</g>
</g>
<!-- Node14&#45;&gt;Node3 -->
<g id="edge21_Node000014_Node000003" class="edge">
<title>Node14&#45;&gt;Node3</title>
<g id="a_edge21_Node000014_Node000003"><a xlink:title=" ">
<path fill="none" stroke="#63b8ff" d="M434.02,-113.12C418.35,-100.3 395.73,-77.05 407.25,-56.75 415.82,-41.66 431.62,-31.05 446.6,-23.91"/>
<polygon fill="#63b8ff" stroke="#63b8ff" points="447.58,-27.3 455.36,-20.11 444.79,-20.88 447.58,-27.3"/>
</a>
</g>
</g>
<!-- Node15 -->
<g id="Node000015" class="node">
<title>Node15</title>
<g id="a_Node000015"><a xlink:href="assert_8h.html" target="_top" xlink:title="POSIX.1&#45;2008 compliant version of the assert macro.">
<polygon fill="white" stroke="#666666" points="470.75,-77.5 415.75,-77.5 415.75,-56.75 470.75,-56.75 470.75,-77.5"/>
<text text-anchor="middle" x="443.25" y="-64" font-family="Helvetica,sans-Serif" font-size="10.00">assert.h</text>
</a>
</g>
</g>
<!-- Node14&#45;&gt;Node15 -->
<g id="edge19_Node000014_Node000015" class="edge">
<title>Node14&#45;&gt;Node15</title>
<g id="a_edge19_Node000014_Node000015"><a xlink:title=" ">
<path fill="none" stroke="#63b8ff" d="M446.53,-113.09C446.05,-106.47 445.39,-97.47 444.79,-89.27"/>
<polygon fill="#63b8ff" stroke="#63b8ff" points="448.29,-89.06 444.07,-79.34 441.31,-89.57 448.29,-89.06"/>
</a>
</g>
</g>
<!-- Node15&#45;&gt;Node3 -->
<g id="edge20_Node000015_Node000003" class="edge">
<title>Node15&#45;&gt;Node3</title>
<g id="a_edge20_Node000015_Node000003"><a xlink:title=" ">
<path fill="none" stroke="#63b8ff" d="M450.4,-56.34C455.69,-49.1 463.06,-39.01 469.48,-30.22"/>
<polygon fill="#63b8ff" stroke="#63b8ff" points="472.19,-32.44 475.27,-22.3 466.54,-28.31 472.19,-32.44"/>
</a>
</g>
</g>
<!-- Node16&#45;&gt;Node3 -->
<g id="edge24_Node000016_Node000003" class="edge">
<title>Node16&#45;&gt;Node3</title>
<g id="a_edge24_Node000016_Node000003"><a xlink:title=" ">
<path fill="none" stroke="#63b8ff" d="M516.92,-56.34C511.5,-49.1 503.94,-39.01 497.36,-30.22"/>
<polygon fill="#63b8ff" stroke="#63b8ff" points="500.22,-28.2 491.42,-22.29 494.62,-32.39 500.22,-28.2"/>
</a>
</g>
</g>
<!-- Node16&#45;&gt;Node7 -->
<g id="edge23_Node000016_Node000007" class="edge">
<title>Node16&#45;&gt;Node7</title>
<g id="a_edge23_Node000016_Node000007"><a xlink:title=" ">
<path fill="none" stroke="#63b8ff" d="M488.74,-58.37C485.87,-57.8 483.02,-57.25 480.25,-56.75 386.92,-39.76 276.43,-24.22 219.12,-16.5"/>
<polygon fill="#63b8ff" stroke="#63b8ff" points="219.93,-13.07 209.55,-15.22 219,-20.01 219.93,-13.07"/>
</a>
</g>
</g>
<!-- Node17&#45;&gt;Node4 -->
<g id="edge50_Node000017_Node000004" class="edge">
<title>Node17&#45;&gt;Node4</title>
<g id="a_edge50_Node000017_Node000004"><a xlink:title=" ">
<path fill="none" stroke="#63b8ff" d="M439.88,-290.06C343.48,-284.74 166.65,-271.99 108.25,-247.75 81.83,-236.79 56.93,-214.8 41.42,-199.19"/>
<polygon fill="#63b8ff" stroke="#63b8ff" points="44.33,-197.16 34.87,-192.38 39.28,-202.02 44.33,-197.16"/>
</a>
</g>
</g>
<!-- Node17&#45;&gt;Node5 -->
<g id="edge27_Node000017_Node000005" class="edge">
<title>Node17&#45;&gt;Node5</title>
<g id="a_edge27_Node000017_Node000005"><a xlink:title=" ">
<path fill="none" stroke="#63b8ff" d="M439.58,-284.01C394.72,-276.7 333.99,-264.82 282.25,-247.75 240.8,-234.07 195.51,-211.56 167.49,-196.66"/>
<polygon fill="#63b8ff" stroke="#63b8ff" points="169.43,-193.73 158.97,-192.07 166.12,-199.89 169.43,-193.73"/>
</a>
</g>
</g>
<!-- Node17&#45;&gt;Node10 -->
<g id="edge26_Node000017_Node000010" class="edge">
<title>Node17&#45;&gt;Node10</title>
<g id="a_edge26_Node000017_Node000010"><a xlink:title=" ">
<path fill="none" stroke="#63b8ff" d="M482.83,-283.35C447.45,-266.75 375.23,-230.94 320.25,-191 300.16,-176.41 279.67,-156.7 265.89,-142.6"/>
<polygon fill="#63b8ff" stroke="#63b8ff" points="268.75,-140.52 259.3,-135.73 263.7,-145.37 268.75,-140.52"/>
</a>
</g>
</g>
<!-- Node18 -->
<g id="Node000018" class="node">
<title>Node18</title>
<g id="a_Node000018"><a xlink:href="uio_8h.html" target="_top" xlink:title="libc header for scatter/gather I/O">
<polygon fill="white" stroke="#666666" points="534,-247.75 474.5,-247.75 474.5,-227 534,-227 534,-247.75"/>
<text text-anchor="middle" x="504.25" y="-234.25" font-family="Helvetica,sans-Serif" font-size="10.00">sys/uio.h</text>
</a>
</g>
</g>
<!-- Node17&#45;&gt;Node18 -->
<g id="edge28_Node000017_Node000018" class="edge">
<title>Node17&#45;&gt;Node18</title>
<g id="a_edge28_Node000017_Node000018"><a xlink:title=" ">
<path fill="none" stroke="#63b8ff" d="M504.25,-283.34C504.25,-276.72 504.25,-267.72 504.25,-259.52"/>
<polygon fill="#63b8ff" stroke="#63b8ff" points="507.75,-259.59 504.25,-249.59 500.75,-259.59 507.75,-259.59"/>
</a>
</g>
</g>
<!-- Node21 -->
<g id="Node000021" class="node">
<title>Node21</title>
<g id="a_Node000021"><a xlink:href="bitarithm_8h.html" target="_top" xlink:title="Helper functions for bit arithmetic.">
<polygon fill="white" stroke="#666666" points="648.25,-247.75 578.25,-247.75 578.25,-227 648.25,-227 648.25,-247.75"/>
<text text-anchor="middle" x="613.25" y="-234.25" font-family="Helvetica,sans-Serif" font-size="10.00">bitarithm.h</text>
</a>
</g>
</g>
<!-- Node17&#45;&gt;Node21 -->
<g id="edge31_Node000017_Node000021" class="edge">
<title>Node17&#45;&gt;Node21</title>
<g id="a_edge31_Node000017_Node000021"><a xlink:title=" ">
<path fill="none" stroke="#63b8ff" d="M523.74,-283.34C540.4,-274.97 564.63,-262.79 583.69,-253.22"/>
<polygon fill="#63b8ff" stroke="#63b8ff" points="585.21,-256.37 592.58,-248.76 582.07,-250.12 585.21,-256.37"/>
</a>
</g>
</g>
<!-- Node23 -->
<g id="Node000023" class="node">
<title>Node23</title>
<g id="a_Node000023"><a xlink:href="byteorder_8h.html" target="_top" xlink:title="Functions to work with different byte orders.">
<polygon fill="white" stroke="#666666" points="788.38,-134.25 716.12,-134.25 716.12,-113.5 788.38,-113.5 788.38,-134.25"/>
<text text-anchor="middle" x="752.25" y="-120.75" font-family="Helvetica,sans-Serif" font-size="10.00">byteorder.h</text>
</a>
</g>
</g>
<!-- Node17&#45;&gt;Node23 -->
<g id="edge34_Node000017_Node000023" class="edge">
<title>Node17&#45;&gt;Node23</title>
<g id="a_edge34_Node000017_Node000023"><a xlink:title=" ">
<path fill="none" stroke="#63b8ff" d="M559.09,-283.3C589.4,-276.32 626.93,-265.06 657.25,-247.75 689.41,-229.39 695.89,-220.52 718.25,-191 729.09,-176.69 738.18,-158.41 744.23,-144.7"/>
<polygon fill="#63b8ff" stroke="#63b8ff" points="747.31,-146.42 747.98,-135.84 740.86,-143.69 747.31,-146.42"/>
</a>
</g>
</g>
<!-- Node27 -->
<g id="Node000027" class="node">
<title>Node27</title>
<g id="a_Node000027"><a xlink:href="eui64_8h.html" target="_top" xlink:title="EUI&#45;64 data type definition.">
<polygon fill="white" stroke="#666666" points="873.62,-191 802.88,-191 802.88,-170.25 873.62,-170.25 873.62,-191"/>
<text text-anchor="middle" x="838.25" y="-177.5" font-family="Helvetica,sans-Serif" font-size="10.00">net/eui64.h</text>
</a>
</g>
</g>
<!-- Node17&#45;&gt;Node27 -->
<g id="edge41_Node000017_Node000027" class="edge">
<title>Node17&#45;&gt;Node27</title>
<g id="a_edge41_Node000017_Node000027"><a xlink:title=" ">
<path fill="none" stroke="#63b8ff" d="M568.83,-289.51C620.13,-284.72 692.72,-273.59 751.25,-247.75 778.05,-235.92 804.17,-214.3 820.68,-199.01"/>
<polygon fill="#63b8ff" stroke="#63b8ff" points="822.89,-201.74 827.71,-192.31 818.06,-196.68 822.89,-201.74"/>
</a>
</g>
</g>
<!-- Node28 -->
<g id="Node000028" class="node">
<title>Node28</title>
<g id="a_Node000028"><a xlink:href="sys_2include_2net_2ieee802154_8h.html" target="_top" xlink:title="IEEE 802.15.4 header definitions.">
<polygon fill="white" stroke="#666666" points="903.62,-247.75 802.88,-247.75 802.88,-227 903.62,-227 903.62,-247.75"/>
<text text-anchor="middle" x="853.25" y="-234.25" font-family="Helvetica,sans-Serif" font-size="10.00">net/ieee802154.h</text>
</a>
</g>
</g>
<!-- Node17&#45;&gt;Node28 -->
<g id="edge44_Node000017_Node000028" class="edge">
<title>Node17&#45;&gt;Node28</title>
<g id="a_edge44_Node000017_Node000028"><a xlink:title=" ">
<path fill="none" stroke="#63b8ff" d="M567.05,-283.27C630.64,-273.3 728.38,-257.96 791.57,-248.05"/>
<polygon fill="#63b8ff" stroke="#63b8ff" points="791.73,-251.57 801.07,-246.56 790.65,-244.65 791.73,-251.57"/>
</a>
</g>
</g>
<!-- Node19 -->
<g id="Node000019" class="node">
<title>Node19</title>
<g id="a_Node000019"><a xlink:title=" ">
<polygon fill="#e0e0e0" stroke="#999999" points="585.25,-191 533.25,-191 533.25,-170.25 585.25,-170.25 585.25,-191"/>
<text text-anchor="middle" x="559.25" y="-177.5" font-family="Helvetica,sans-Serif" font-size="10.00">stdlib.h</text>
</a>
</g>
</g>
<!-- Node18&#45;&gt;Node19 -->
<g id="edge29_Node000018_Node000019" class="edge">
<title>Node18&#45;&gt;Node19</title>
<g id="a_edge29_Node000018_Node000019"><a xlink:title=" ">
<path fill="none" stroke="#63b8ff" d="M514.08,-226.59C521.67,-219.03 532.37,-208.39 541.45,-199.35"/>
<polygon fill="#63b8ff" stroke="#63b8ff" points="543.81,-201.93 548.43,-192.4 538.87,-196.97 543.81,-201.93"/>
</a>
</g>
</g>
<!-- Node20 -->
<g id="Node000020" class="node">
<title>Node20</title>
<g id="a_Node000020"><a xlink:title=" ">
<polygon fill="#e0e0e0" stroke="#999999" points="515,-191 443.5,-191 443.5,-170.25 515,-170.25 515,-191"/>
<text text-anchor="middle" x="479.25" y="-177.5" font-family="Helvetica,sans-Serif" font-size="10.00">sys/types.h</text>
</a>
</g>
</g>
<!-- Node18&#45;&gt;Node20 -->
<g id="edge30_Node000018_Node000020" class="edge">
<title>Node18&#45;&gt;Node20</title>
<g id="a_edge30_Node000018_Node000020"><a xlink:title=" ">
<path fill="none" stroke="#63b8ff" d="M499.78,-226.59C496.62,-219.66 492.26,-210.12 488.38,-201.61"/>
<polygon fill="#63b8ff" stroke="#63b8ff" points="491.65,-200.35 484.31,-192.71 485.28,-203.26 491.65,-200.35"/>
</a>
</g>
</g>
<!-- Node21&#45;&gt;Node3 -->
<g id="edge32_Node000021_Node000003" class="edge">
<title>Node21&#45;&gt;Node3</title>
<g id="a_edge32_Node000021_Node000003"><a xlink:title=" ">
<path fill="none" stroke="#63b8ff" d="M615.76,-226.84C622.19,-201.65 638.14,-133.91 629.25,-113.5 614.46,-79.55 598.39,-78.26 568.25,-56.75 551.72,-44.95 531.75,-34.14 515.32,-26.03"/>
<polygon fill="#63b8ff" stroke="#63b8ff" points="517,-22.95 506.47,-21.77 513.96,-29.26 517,-22.95"/>
</a>
</g>
</g>
<!-- Node22 -->
<g id="Node000022" class="node">
<title>Node22</title>
<g id="a_Node000022"><a xlink:title=" ">
<polygon fill="#e0e0e0" stroke="#999999" points="709.12,-191 641.38,-191 641.38,-170.25 709.12,-170.25 709.12,-191"/>
<text text-anchor="middle" x="675.25" y="-177.5" font-family="Helvetica,sans-Serif" font-size="10.00">cpu_conf.h</text>
</a>
</g>
</g>
<!-- Node21&#45;&gt;Node22 -->
<g id="edge33_Node000021_Node000022" class="edge">
<title>Node21&#45;&gt;Node22</title>
<g id="a_edge33_Node000021_Node000022"><a xlink:title=" ">
<path fill="none" stroke="#63b8ff" d="M624.33,-226.59C633.06,-218.88 645.44,-207.95 655.81,-198.79"/>
<polygon fill="#63b8ff" stroke="#63b8ff" points="657.95,-201.57 663.13,-192.33 653.31,-196.33 657.95,-201.57"/>
</a>
</g>
</g>
<!-- Node23&#45;&gt;Node3 -->
<g id="edge36_Node000023_Node000003" class="edge">
<title>Node23&#45;&gt;Node3</title>
<g id="a_edge36_Node000023_Node000003"><a xlink:title=" ">
<path fill="none" stroke="#63b8ff" d="M728.07,-113.14C706.08,-104.18 672.8,-90.38 644.25,-77.5 624.91,-68.78 620.73,-65.18 601.25,-56.75 574.47,-45.16 543.68,-33.37 520.27,-24.72"/>
<polygon fill="#63b8ff" stroke="#63b8ff" points="521.76,-21.54 511.17,-21.37 519.35,-28.11 521.76,-21.54"/>
</a>
</g>
</g>
<!-- Node24 -->
<g id="Node000024" class="node">
<title>Node24</title>
<g id="a_Node000024"><a xlink:title=" ">
<polygon fill="#e0e0e0" stroke="#999999" points="705.62,-77.5 652.88,-77.5 652.88,-56.75 705.62,-56.75 705.62,-77.5"/>
<text text-anchor="middle" x="679.25" y="-64" font-family="Helvetica,sans-Serif" font-size="10.00">string.h</text>
</a>
</g>
</g>
<!-- Node23&#45;&gt;Node24 -->
<g id="edge35_Node000023_Node000024" class="edge">
<title>Node23&#45;&gt;Node24</title>
<g id="a_edge35_Node000023_Node000024"><a xlink:title=" ">
<path fill="none" stroke="#63b8ff" d="M739.2,-113.09C728.61,-105.15 713.46,-93.78 701.03,-84.46"/>
<polygon fill="#63b8ff" stroke="#63b8ff" points="703.5,-81.94 693.4,-78.74 699.3,-87.54 703.5,-81.94"/>
</a>
</g>
</g>
<!-- Node25 -->
<g id="Node000025" class="node">
<title>Node25</title>
<g id="a_Node000025"><a xlink:href="endian_8h.html" target="_top" xlink:title="libc header for endian conversion">
<polygon fill="white" stroke="#666666" points="781.25,-77.5 723.25,-77.5 723.25,-56.75 781.25,-56.75 781.25,-77.5"/>
<text text-anchor="middle" x="752.25" y="-64" font-family="Helvetica,sans-Serif" font-size="10.00">endian.h</text>
</a>
</g>
</g>
<!-- Node23&#45;&gt;Node25 -->
<g id="edge37_Node000023_Node000025" class="edge">
<title>Node23&#45;&gt;Node25</title>
<g id="a_edge37_Node000023_Node000025"><a xlink:title=" ">
<path fill="none" stroke="#63b8ff" d="M752.25,-113.09C752.25,-106.47 752.25,-97.47 752.25,-89.27"/>
<polygon fill="#63b8ff" stroke="#63b8ff" points="755.75,-89.34 752.25,-79.34 748.75,-89.34 755.75,-89.34"/>
</a>
</g>
</g>
<!-- Node26 -->
<g id="Node000026" class="node">
<title>Node26</title>
<g id="a_Node000026"><a xlink:href="unaligned_8h.html" target="_top" xlink:title="Unaligned but safe memory access functions.">
<polygon fill="white" stroke="#666666" points="872.75,-77.5 799.75,-77.5 799.75,-56.75 872.75,-56.75 872.75,-77.5"/>
<text text-anchor="middle" x="836.25" y="-64" font-family="Helvetica,sans-Serif" font-size="10.00">unaligned.h</text>
</a>
</g>
</g>
<!-- Node23&#45;&gt;Node26 -->
<g id="edge39_Node000023_Node000026" class="edge">
<title>Node23&#45;&gt;Node26</title>
<g id="a_edge39_Node000023_Node000026"><a xlink:title=" ">
<path fill="none" stroke="#63b8ff" d="M767.27,-113.09C779.69,-104.99 797.57,-93.33 812.02,-83.92"/>
<polygon fill="#63b8ff" stroke="#63b8ff" points="813.63,-87.05 820.09,-78.65 809.81,-81.18 813.63,-87.05"/>
</a>
</g>
</g>
<!-- Node25&#45;&gt;Node3 -->
<g id="edge38_Node000025_Node000003" class="edge">
<title>Node25&#45;&gt;Node3</title>
<g id="a_edge38_Node000025_Node000003"><a xlink:title=" ">
<path fill="none" stroke="#63b8ff" d="M722.82,-58.72C719.93,-58.03 717.04,-57.37 714.25,-56.75 646.52,-41.75 567.06,-26.7 521.2,-18.25"/>
<polygon fill="#63b8ff" stroke="#63b8ff" points="521.97,-14.84 511.5,-16.47 520.71,-21.72 521.97,-14.84"/>
</a>
</g>
</g>
<!-- Node26&#45;&gt;Node3 -->
<g id="edge40_Node000026_Node000003" class="edge">
<title>Node26&#45;&gt;Node3</title>
<g id="a_edge40_Node000026_Node000003"><a xlink:title=" ">
<path fill="none" stroke="#63b8ff" d="M799.63,-58.47C796.46,-57.87 793.3,-57.29 790.25,-56.75 693.69,-39.79 579.29,-24.01 521.2,-16.31"/>
<polygon fill="#63b8ff" stroke="#63b8ff" points="521.89,-12.87 511.52,-15.03 520.98,-19.81 521.89,-12.87"/>
</a>
</g>
</g>
<!-- Node27&#45;&gt;Node3 -->
<g id="edge42_Node000027_Node000003" class="edge">
<title>Node27&#45;&gt;Node3</title>
<g id="a_edge42_Node000027_Node000003"><a xlink:title=" ">
<path fill="none" stroke="#63b8ff" d="M847.67,-169.75C868.16,-147.1 912.58,-90.73 882.25,-56.75 858.43,-30.07 616.39,-17 521.3,-12.87"/>
<polygon fill="#63b8ff" stroke="#63b8ff" points="521.59,-9.38 511.45,-12.46 521.29,-16.38 521.59,-9.38"/>
</a>
</g>
</g>
<!-- Node27&#45;&gt;Node23 -->
<g id="edge43_Node000027_Node000023" class="edge">
<title>Node27&#45;&gt;Node23</title>
<g id="a_edge43_Node000027_Node000023"><a xlink:title=" ">
<path fill="none" stroke="#63b8ff" d="M822.87,-169.84C810.16,-161.74 791.85,-150.08 777.06,-140.67"/>
<polygon fill="#63b8ff" stroke="#63b8ff" points="779.08,-137.81 768.77,-135.39 775.32,-143.71 779.08,-137.81"/>
</a>
</g>
</g>
<!-- Node28&#45;&gt;Node3 -->
<g id="edge45_Node000028_Node000003" class="edge">
<title>Node28&#45;&gt;Node3</title>
<g id="a_edge45_Node000028_Node000003"><a xlink:title=" ">
<path fill="none" stroke="#63b8ff" d="M867.51,-226.69C878.14,-218.56 891.88,-205.9 898.25,-191 921.7,-136.12 941.11,-101.17 901.25,-56.75 876.1,-28.72 619.81,-16.39 521.42,-12.67"/>
<polygon fill="#63b8ff" stroke="#63b8ff" points="521.6,-9.17 511.48,-12.3 521.34,-16.17 521.6,-9.17"/>
</a>
</g>
</g>
<!-- Node28&#45;&gt;Node12 -->
<g id="edge49_Node000028_Node000012" class="edge">
<title>Node28&#45;&gt;Node12</title>
<g id="a_edge49_Node000028_Node000012"><a xlink:title=" ">
<path fill="none" stroke="#63b8ff" d="M835.24,-226.66C809.66,-213.07 761.16,-188.05 718.25,-170.25 688.97,-158.1 655.15,-146.52 629.07,-138.1"/>
<polygon fill="#63b8ff" stroke="#63b8ff" points="630.44,-134.86 619.85,-135.15 628.31,-141.53 630.44,-134.86"/>
</a>
</g>
</g>
<!-- Node28&#45;&gt;Node19 -->
<g id="edge46_Node000028_Node000019" class="edge">
<title>Node28&#45;&gt;Node19</title>
<g id="a_edge46_Node000028_Node000019"><a xlink:title=" ">
<path fill="none" stroke="#63b8ff" d="M802.71,-226.96C744.1,-216.05 648.86,-198.31 596.56,-188.57"/>
<polygon fill="#63b8ff" stroke="#63b8ff" points="597.43,-185.17 586.96,-186.78 596.15,-192.06 597.43,-185.17"/>
</a>
</g>
</g>
<!-- Node28&#45;&gt;Node23 -->
<g id="edge47_Node000028_Node000023" class="edge">
<title>Node28&#45;&gt;Node23</title>
<g id="a_edge47_Node000028_Node000023"><a xlink:title=" ">
<path fill="none" stroke="#63b8ff" d="M863.28,-226.77C876.1,-213.3 895.17,-188.44 882.25,-170.25 863.68,-144.1 828.86,-132.89 799.93,-128.15"/>
<polygon fill="#63b8ff" stroke="#63b8ff" points="800.66,-124.72 790.27,-126.8 799.68,-131.65 800.66,-124.72"/>
</a>
</g>
</g>
<!-- Node28&#45;&gt;Node27 -->
<g id="edge48_Node000028_Node000027" class="edge">
<title>Node28&#45;&gt;Node27</title>
<g id="a_edge48_Node000028_Node000027"><a xlink:title=" ">
<path fill="none" stroke="#63b8ff" d="M850.57,-226.59C848.71,-219.81 846.17,-210.55 843.88,-202.19"/>
<polygon fill="#63b8ff" stroke="#63b8ff" points="847.33,-201.51 841.31,-192.79 840.58,-203.36 847.33,-201.51"/>
</a>
</g>
</g>
</g>
</svg>
