<?xml version="1.0" encoding="UTF-8" standalone="no"?>
<!DOCTYPE svg PUBLIC "-//W3C//DTD SVG 1.1//EN"
 "http://www.w3.org/Graphics/SVG/1.1/DTD/svg11.dtd">
<!-- Generated by graphviz version 12.1.1 (0)
 -->
<!-- Title: pkg/mynewt&#45;core/include/os/os_time.h Pages: 1 -->
<svg width="506pt" height="250pt"
 viewBox="0.00 0.00 506.00 250.00" xmlns="http://www.w3.org/2000/svg" xmlns:xlink="http://www.w3.org/1999/xlink">
<g id="graph0" class="graph" transform="scale(1 1) rotate(0) translate(4 246)">
<title>pkg/mynewt&#45;core/include/os/os_time.h</title>
<!-- Node1 -->
<g id="Node000001" class="node">
<title>Node1</title>
<g id="a_Node000001"><a xlink:title="mynewt&#45;core time abstraction">
<polygon fill="#999999" stroke="#666666" points="412.75,-242 273,-242 273,-208.5 412.75,-208.5 412.75,-242"/>
<text text-anchor="start" x="281" y="-228.5" font-family="Helvetica,sans-Serif" font-size="10.00">pkg/mynewt&#45;core/include</text>
<text text-anchor="middle" x="342.88" y="-215.75" font-family="Helvetica,sans-Serif" font-size="10.00">/os/os_time.h</text>
</a>
</g>
</g>
<!-- Node2 -->
<g id="Node000002" class="node">
<title>Node2</title>
<g id="a_Node000002"><a xlink:href="os_8h.html" target="_top" xlink:title="Apache Mynewt Copyright 2015&#45;2021 The Apache Software Foundation.">
<polygon fill="white" stroke="#666666" points="338.75,-172.5 199,-172.5 199,-139 338.75,-139 338.75,-172.5"/>
<text text-anchor="start" x="207" y="-159" font-family="Helvetica,sans-Serif" font-size="10.00">pkg/mynewt&#45;core/include</text>
<text text-anchor="middle" x="268.88" y="-146.25" font-family="Helvetica,sans-Serif" font-size="10.00">/os/os.h</text>
</a>
</g>
</g>
<!-- Node1&#45;&gt;Node2 -->
<g id="edge1_Node000001_Node000002" class="edge">
<title>Node1&#45;&gt;Node2</title>
<g id="a_edge1_Node000001_Node000002"><a xlink:title=" ">
<path fill="none" stroke="#63b8ff" d="M316.9,-200.56C306.86,-191.4 295.62,-181.15 286.54,-172.87"/>
<polygon fill="#63b8ff" stroke="#63b8ff" points="314.47,-203.08 324.22,-207.23 319.19,-197.91 314.47,-203.08"/>
</a>
</g>
</g>
<!-- Node7 -->
<g id="Node000007" class="node">
<title>Node7</title>
<g id="a_Node000007"><a xlink:href="dpl__time_8h.html" target="_top" xlink:title="uwb&#45;core DPL (Decawave Porting Layer) time abstraction">
<polygon fill="white" stroke="#666666" points="498,-172.5 377.75,-172.5 377.75,-139 498,-139 498,-172.5"/>
<text text-anchor="start" x="385.75" y="-159" font-family="Helvetica,sans-Serif" font-size="10.00">pkg/uwb&#45;core/include</text>
<text text-anchor="middle" x="437.88" y="-146.25" font-family="Helvetica,sans-Serif" font-size="10.00">/dpl/dpl_time.h</text>
</a>
</g>
</g>
<!-- Node1&#45;&gt;Node7 -->
<g id="edge6_Node000001_Node000007" class="edge">
<title>Node1&#45;&gt;Node7</title>
<g id="a_edge6_Node000001_Node000007"><a xlink:title=" ">
<path fill="none" stroke="#63b8ff" d="M374.66,-201.66C387.94,-192.23 403.07,-181.48 415.19,-172.87"/>
<polygon fill="#63b8ff" stroke="#63b8ff" points="372.75,-198.73 366.62,-207.38 376.8,-204.44 372.75,-198.73"/>
</a>
</g>
</g>
<!-- Node3 -->
<g id="Node000003" class="node">
<title>Node3</title>
<g id="a_Node000003"><a xlink:href="mynewt_8h.html" target="_top" xlink:title="mynewt&#45;core header">
<polygon fill="white" stroke="#666666" points="139.75,-103 0,-103 0,-69.5 139.75,-69.5 139.75,-103"/>
<text text-anchor="start" x="8" y="-89.5" font-family="Helvetica,sans-Serif" font-size="10.00">pkg/mynewt&#45;core/include</text>
<text text-anchor="middle" x="69.88" y="-76.75" font-family="Helvetica,sans-Serif" font-size="10.00">/os/mynewt.h</text>
</a>
</g>
</g>
<!-- Node2&#45;&gt;Node3 -->
<g id="edge2_Node000002_Node000003" class="edge">
<title>Node2&#45;&gt;Node3</title>
<g id="a_edge2_Node000002_Node000003"><a xlink:title=" ">
<path fill="none" stroke="#63b8ff" d="M210.59,-134.98C180.98,-124.94 145.45,-112.88 117.5,-103.4"/>
<polygon fill="#63b8ff" stroke="#63b8ff" points="209.18,-138.2 219.78,-138.1 211.43,-131.57 209.18,-138.2"/>
</a>
</g>
</g>
<!-- Node4 -->
<g id="Node000004" class="node">
<title>Node4</title>
<g id="a_Node000004"><a xlink:href="nimble__npl__os_8h.html" target="_top" xlink:title="Mynewt&#45;Nimble Porting layer wrappers.">
<polygon fill="white" stroke="#666666" points="293.5,-103 158.25,-103 158.25,-69.5 293.5,-69.5 293.5,-103"/>
<text text-anchor="start" x="166.25" y="-89.5" font-family="Helvetica,sans-Serif" font-size="10.00">pkg/nimble/npl/include</text>
<text text-anchor="middle" x="225.88" y="-76.75" font-family="Helvetica,sans-Serif" font-size="10.00">/nimble/nimble_npl_os.h</text>
</a>
</g>
</g>
<!-- Node2&#45;&gt;Node4 -->
<g id="edge3_Node000002_Node000004" class="edge">
<title>Node2&#45;&gt;Node4</title>
<g id="a_edge3_Node000002_Node000004"><a xlink:title=" ">
<path fill="none" stroke="#63b8ff" d="M252.67,-129.31C247.07,-120.52 240.96,-110.93 235.99,-103.13"/>
<polygon fill="#63b8ff" stroke="#63b8ff" points="249.55,-130.92 257.87,-137.48 255.45,-127.16 249.55,-130.92"/>
</a>
</g>
</g>
<!-- Node5 -->
<g id="Node000005" class="node">
<title>Node5</title>
<g id="a_Node000005"><a xlink:href="dpl__os_8h.html" target="_top" xlink:title="uwb&#45;core DPL (Decawave Porting Layer) os abstraction layer">
<polygon fill="white" stroke="#666666" points="432,-103 311.75,-103 311.75,-69.5 432,-69.5 432,-103"/>
<text text-anchor="start" x="319.75" y="-89.5" font-family="Helvetica,sans-Serif" font-size="10.00">pkg/uwb&#45;core/include</text>
<text text-anchor="middle" x="371.88" y="-76.75" font-family="Helvetica,sans-Serif" font-size="10.00">/dpl/dpl_os.h</text>
</a>
</g>
</g>
<!-- Node2&#45;&gt;Node5 -->
<g id="edge4_Node000002_Node000005" class="edge">
<title>Node2&#45;&gt;Node5</title>
<g id="a_edge4_Node000002_Node000005"><a xlink:title=" ">
<path fill="none" stroke="#63b8ff" d="M302.76,-132.54C317.34,-122.99 334.06,-112.03 347.41,-103.29"/>
<polygon fill="#63b8ff" stroke="#63b8ff" points="301.26,-129.34 294.81,-137.75 305.09,-135.2 301.26,-129.34"/>
</a>
</g>
</g>
<!-- Node6 -->
<g id="Node000006" class="node">
<title>Node6</title>
<g id="a_Node000006"><a xlink:href="dpl_8h.html" target="_top" xlink:title="Abstraction layer for RIOT adaption.">
<polygon fill="white" stroke="#666666" points="476,-33.5 355.75,-33.5 355.75,0 476,0 476,-33.5"/>
<text text-anchor="start" x="363.75" y="-20" font-family="Helvetica,sans-Serif" font-size="10.00">pkg/uwb&#45;core/include</text>
<text text-anchor="middle" x="415.88" y="-7.25" font-family="Helvetica,sans-Serif" font-size="10.00">/dpl/dpl.h</text>
</a>
</g>
</g>
<!-- Node5&#45;&gt;Node6 -->
<g id="edge5_Node000005_Node000006" class="edge">
<title>Node5&#45;&gt;Node6</title>
<g id="a_edge5_Node000005_Node000006"><a xlink:title=" ">
<path fill="none" stroke="#63b8ff" d="M388.46,-59.81C394.19,-51.02 400.44,-41.43 405.52,-33.63"/>
<polygon fill="#63b8ff" stroke="#63b8ff" points="385.66,-57.7 383.13,-67.99 391.52,-61.52 385.66,-57.7"/>
</a>
</g>
</g>
<!-- Node7&#45;&gt;Node6 -->
<g id="edge7_Node000007_Node000006" class="edge">
<title>Node7&#45;&gt;Node6</title>
<g id="a_edge7_Node000007_Node000006"><a xlink:title=" ">
<path fill="none" stroke="#63b8ff" d="M442.38,-127.52C444.3,-110.62 445.24,-88.55 440.88,-69.5 437.98,-56.86 431.58,-43.71 425.98,-33.83"/>
<polygon fill="#63b8ff" stroke="#63b8ff" points="438.92,-126.93 441.06,-137.31 445.86,-127.86 438.92,-126.93"/>
</a>
</g>
</g>
</g>
</svg>
