<?xml version="1.0" encoding="UTF-8" standalone="no"?>
<!DOCTYPE svg PUBLIC "-//W3C//DTD SVG 1.1//EN"
 "http://www.w3.org/Graphics/SVG/1.1/DTD/svg11.dtd">
<!-- Generated by graphviz version 12.1.1 (0)
 -->
<!-- Title: sys/include/net/gnrc/rpl/p2p_structs.h Pages: 1 -->
<svg width="254pt" height="111pt"
 viewBox="0.00 0.00 253.50 111.00" xmlns="http://www.w3.org/2000/svg" xmlns:xlink="http://www.w3.org/1999/xlink">
<g id="graph0" class="graph" transform="scale(1 1) rotate(0) translate(4 107)">
<title>sys/include/net/gnrc/rpl/p2p_structs.h</title>
<!-- Node1 -->
<g id="Node000001" class="node">
<title>Node1</title>
<g id="a_Node000001"><a xlink:title="P2P&#45;RPL data structs.">
<polygon fill="#999999" stroke="#666666" points="179.5,-103 66,-103 66,-69.5 179.5,-69.5 179.5,-103"/>
<text text-anchor="start" x="74" y="-89.5" font-family="Helvetica,sans-Serif" font-size="10.00">sys/include/net/gnrc</text>
<text text-anchor="middle" x="122.75" y="-76.75" font-family="Helvetica,sans-Serif" font-size="10.00">/rpl/p2p_structs.h</text>
</a>
</g>
</g>
<!-- Node2 -->
<g id="Node000002" class="node">
<title>Node2</title>
<g id="a_Node000002"><a xlink:href="p2p_8h.html" target="_top" xlink:title="Definititions for P2P&#45;RPL.">
<polygon fill="white" stroke="#666666" points="113.5,-33.5 0,-33.5 0,0 113.5,0 113.5,-33.5"/>
<text text-anchor="start" x="8" y="-20" font-family="Helvetica,sans-Serif" font-size="10.00">sys/include/net/gnrc</text>
<text text-anchor="middle" x="56.75" y="-7.25" font-family="Helvetica,sans-Serif" font-size="10.00">/rpl/p2p.h</text>
</a>
</g>
</g>
<!-- Node1&#45;&gt;Node2 -->
<g id="edge1_Node000001_Node000002" class="edge">
<title>Node1&#45;&gt;Node2</title>
<g id="a_edge1_Node000001_Node000002"><a xlink:title=" ">
<path fill="none" stroke="#63b8ff" d="M99.25,-61.22C90.3,-52.06 80.32,-41.85 72.28,-33.63"/>
<polygon fill="#63b8ff" stroke="#63b8ff" points="96.56,-63.47 106.05,-68.17 101.56,-58.57 96.56,-63.47"/>
</a>
</g>
</g>
<!-- Node3 -->
<g id="Node000003" class="node">
<title>Node3</title>
<g id="a_Node000003"><a xlink:href="p2p__dodag_8h.html" target="_top" xlink:title="DODAG&#45;related functions for P2P&#45;RPL.">
<polygon fill="white" stroke="#666666" points="245.5,-33.5 132,-33.5 132,0 245.5,0 245.5,-33.5"/>
<text text-anchor="start" x="140" y="-20" font-family="Helvetica,sans-Serif" font-size="10.00">sys/include/net/gnrc</text>
<text text-anchor="middle" x="188.75" y="-7.25" font-family="Helvetica,sans-Serif" font-size="10.00">/rpl/p2p_dodag.h</text>
</a>
</g>
</g>
<!-- Node1&#45;&gt;Node3 -->
<g id="edge2_Node000001_Node000003" class="edge">
<title>Node1&#45;&gt;Node3</title>
<g id="a_edge2_Node000001_Node000003"><a xlink:title=" ">
<path fill="none" stroke="#63b8ff" d="M146.25,-61.22C155.2,-52.06 165.18,-41.85 173.22,-33.63"/>
<polygon fill="#63b8ff" stroke="#63b8ff" points="143.94,-58.57 139.45,-68.17 148.94,-63.47 143.94,-58.57"/>
</a>
</g>
</g>
</g>
</svg>
