<?xml version="1.0" encoding="UTF-8" standalone="no"?>
<!DOCTYPE svg PUBLIC "-//W3C//DTD SVG 1.1//EN"
 "http://www.w3.org/Graphics/SVG/1.1/DTD/svg11.dtd">
<!-- Generated by graphviz version 12.1.1 (0)
 -->
<!-- Title: boards/common/particle&#45;mesh/include/periph_conf_common.h Pages: 1 -->
<svg width="705pt" height="168pt"
 viewBox="0.00 0.00 704.50 167.75" xmlns="http://www.w3.org/2000/svg" xmlns:xlink="http://www.w3.org/1999/xlink">
<g id="graph0" class="graph" transform="scale(1 1) rotate(0) translate(4 163.75)">
<title>boards/common/particle&#45;mesh/include/periph_conf_common.h</title>
<!-- Node1 -->
<g id="Node000001" class="node">
<title>Node1</title>
<g id="a_Node000001"><a xlink:title="Common peripheral configuration for the Particle Mesh.">
<polygon fill="#999999" stroke="#666666" points="393.62,-159.75 248.62,-159.75 248.62,-113.5 393.62,-113.5 393.62,-159.75"/>
<text text-anchor="start" x="256.62" y="-146.25" font-family="Helvetica,sans-Serif" font-size="10.00">boards/common/particle</text>
<text text-anchor="start" x="256.62" y="-133.5" font-family="Helvetica,sans-Serif" font-size="10.00">&#45;mesh/include/periph_conf</text>
<text text-anchor="middle" x="321.12" y="-120.75" font-family="Helvetica,sans-Serif" font-size="10.00">_common.h</text>
</a>
</g>
</g>
<!-- Node2 -->
<g id="Node000002" class="node">
<title>Node2</title>
<g id="a_Node000002"><a xlink:title=" ">
<polygon fill="#e0e0e0" stroke="#999999" points="78.25,-77.5 0,-77.5 0,-56.75 78.25,-56.75 78.25,-77.5"/>
<text text-anchor="middle" x="39.12" y="-64" font-family="Helvetica,sans-Serif" font-size="10.00">periph_cpu.h</text>
</a>
</g>
</g>
<!-- Node1&#45;&gt;Node2 -->
<g id="edge1_Node000001_Node000002" class="edge">
<title>Node1&#45;&gt;Node2</title>
<g id="a_edge1_Node000001_Node000002"><a xlink:title=" ">
<path fill="none" stroke="#63b8ff" d="M248.14,-118.15C198.29,-106.22 133.54,-90.73 89.41,-80.16"/>
<polygon fill="#63b8ff" stroke="#63b8ff" points="90.38,-76.8 79.84,-77.87 88.75,-83.6 90.38,-76.8"/>
</a>
</g>
</g>
<!-- Node3 -->
<g id="Node000003" class="node">
<title>Node3</title>
<g id="a_Node000003"><a xlink:href="cfg__clock__32__1_8h.html" target="_top" xlink:title="Common clock configuration for the nRF52 based boards.">
<polygon fill="white" stroke="#666666" points="195.75,-77.5 96.5,-77.5 96.5,-56.75 195.75,-56.75 195.75,-77.5"/>
<text text-anchor="middle" x="146.12" y="-64" font-family="Helvetica,sans-Serif" font-size="10.00">cfg_clock_32_1.h</text>
</a>
</g>
</g>
<!-- Node1&#45;&gt;Node3 -->
<g id="edge2_Node000001_Node000003" class="edge">
<title>Node1&#45;&gt;Node3</title>
<g id="a_edge2_Node000001_Node000003"><a xlink:title=" ">
<path fill="none" stroke="#63b8ff" d="M262.85,-113.15C236.07,-102.82 205.16,-90.9 181.88,-81.92"/>
<polygon fill="#63b8ff" stroke="#63b8ff" points="183.44,-78.77 172.86,-78.44 180.93,-85.3 183.44,-78.77"/>
</a>
</g>
</g>
<!-- Node4 -->
<g id="Node000004" class="node">
<title>Node4</title>
<g id="a_Node000004"><a xlink:title=" ">
<polygon fill="#e0e0e0" stroke="#999999" points="312.75,-77.5 213.5,-77.5 213.5,-56.75 312.75,-56.75 312.75,-77.5"/>
<text text-anchor="middle" x="263.12" y="-64" font-family="Helvetica,sans-Serif" font-size="10.00">cfg_i2c_default.h</text>
</a>
</g>
</g>
<!-- Node1&#45;&gt;Node4 -->
<g id="edge3_Node000001_Node000004" class="edge">
<title>Node1&#45;&gt;Node4</title>
<g id="a_edge3_Node000001_Node000004"><a xlink:title=" ">
<path fill="none" stroke="#63b8ff" d="M301.81,-113.15C294.34,-104.45 285.9,-94.63 278.82,-86.39"/>
<polygon fill="#63b8ff" stroke="#63b8ff" points="281.67,-84.34 272.5,-79.04 276.37,-88.9 281.67,-84.34"/>
</a>
</g>
</g>
<!-- Node5 -->
<g id="Node000005" class="node">
<title>Node5</title>
<g id="a_Node000005"><a xlink:title=" ">
<polygon fill="#e0e0e0" stroke="#999999" points="427.25,-77.5 331,-77.5 331,-56.75 427.25,-56.75 427.25,-77.5"/>
<text text-anchor="middle" x="379.12" y="-64" font-family="Helvetica,sans-Serif" font-size="10.00">cfg_rtt_default.h</text>
</a>
</g>
</g>
<!-- Node1&#45;&gt;Node5 -->
<g id="edge4_Node000001_Node000005" class="edge">
<title>Node1&#45;&gt;Node5</title>
<g id="a_edge4_Node000001_Node000005"><a xlink:title=" ">
<path fill="none" stroke="#63b8ff" d="M340.44,-113.15C347.91,-104.45 356.35,-94.63 363.43,-86.39"/>
<polygon fill="#63b8ff" stroke="#63b8ff" points="365.88,-88.9 369.75,-79.04 360.58,-84.34 365.88,-88.9"/>
</a>
</g>
</g>
<!-- Node6 -->
<g id="Node000006" class="node">
<title>Node6</title>
<g id="a_Node000006"><a xlink:title=" ">
<polygon fill="#e0e0e0" stroke="#999999" points="556.75,-77.5 445.5,-77.5 445.5,-56.75 556.75,-56.75 556.75,-77.5"/>
<text text-anchor="middle" x="501.12" y="-64" font-family="Helvetica,sans-Serif" font-size="10.00">cfg_timer_default.h</text>
</a>
</g>
</g>
<!-- Node1&#45;&gt;Node6 -->
<g id="edge5_Node000001_Node000006" class="edge">
<title>Node1&#45;&gt;Node6</title>
<g id="a_edge5_Node000001_Node000006"><a xlink:title=" ">
<path fill="none" stroke="#63b8ff" d="M381.31,-113.05C408.84,-102.73 440.56,-90.84 464.45,-81.88"/>
<polygon fill="#63b8ff" stroke="#63b8ff" points="465.61,-85.18 473.74,-78.39 463.15,-78.63 465.61,-85.18"/>
</a>
</g>
</g>
<!-- Node7 -->
<g id="Node000007" class="node">
<title>Node7</title>
<g id="a_Node000007"><a xlink:href="common_2particle-mesh_2include_2board_8h.html" target="_top" xlink:title="Common board specific configuration for the Particle Mesh.">
<polygon fill="white" stroke="#666666" points="627.5,-77.5 574.75,-77.5 574.75,-56.75 627.5,-56.75 627.5,-77.5"/>
<text text-anchor="middle" x="601.12" y="-64" font-family="Helvetica,sans-Serif" font-size="10.00">board.h</text>
</a>
</g>
</g>
<!-- Node1&#45;&gt;Node7 -->
<g id="edge6_Node000001_Node000007" class="edge">
<title>Node1&#45;&gt;Node7</title>
<g id="a_edge6_Node000001_Node000007"><a xlink:title=" ">
<path fill="none" stroke="#63b8ff" d="M393.89,-118.94C440.03,-108.23 501.24,-93.77 563.57,-78.1"/>
<polygon fill="#63b8ff" stroke="#63b8ff" points="564.08,-81.58 572.93,-75.74 562.37,-74.79 564.08,-81.58"/>
</a>
</g>
</g>
<!-- Node8 -->
<g id="Node000008" class="node">
<title>Node8</title>
<g id="a_Node000008"><a xlink:title=" ">
<polygon fill="#e0e0e0" stroke="#999999" points="577.25,-20.75 535,-20.75 535,0 577.25,0 577.25,-20.75"/>
<text text-anchor="middle" x="556.12" y="-7.25" font-family="Helvetica,sans-Serif" font-size="10.00">cpu.h</text>
</a>
</g>
</g>
<!-- Node7&#45;&gt;Node8 -->
<g id="edge7_Node000007_Node000008" class="edge">
<title>Node7&#45;&gt;Node8</title>
<g id="a_edge7_Node000007_Node000008"><a xlink:title=" ">
<path fill="none" stroke="#63b8ff" d="M593.08,-56.34C587.06,-49.02 578.66,-38.79 571.38,-29.94"/>
<polygon fill="#63b8ff" stroke="#63b8ff" points="574.12,-27.75 565.06,-22.25 568.71,-32.2 574.12,-27.75"/>
</a>
</g>
</g>
<!-- Node9 -->
<g id="Node000009" class="node">
<title>Node9</title>
<g id="a_Node000009"><a xlink:title=" ">
<polygon fill="#e0e0e0" stroke="#999999" points="696.5,-20.75 595.75,-20.75 595.75,0 696.5,0 696.5,-20.75"/>
<text text-anchor="middle" x="646.12" y="-7.25" font-family="Helvetica,sans-Serif" font-size="10.00">board_common.h</text>
</a>
</g>
</g>
<!-- Node7&#45;&gt;Node9 -->
<g id="edge8_Node000007_Node000009" class="edge">
<title>Node7&#45;&gt;Node9</title>
<g id="a_edge8_Node000007_Node000009"><a xlink:title=" ">
<path fill="none" stroke="#63b8ff" d="M609.17,-56.34C615.19,-49.02 623.59,-38.79 630.87,-29.94"/>
<polygon fill="#63b8ff" stroke="#63b8ff" points="633.54,-32.2 637.19,-22.25 628.13,-27.75 633.54,-32.2"/>
</a>
</g>
</g>
</g>
</svg>
