<?xml version="1.0" encoding="UTF-8" standalone="no"?>
<!DOCTYPE svg PUBLIC "-//W3C//DTD SVG 1.1//EN"
 "http://www.w3.org/Graphics/SVG/1.1/DTD/svg11.dtd">
<!-- Generated by graphviz version 12.1.1 (0)
 -->
<!-- Title: boards/pba&#45;d&#45;01&#45;kw2x/include/board.h Pages: 1 -->
<svg width="151pt" height="155pt"
 viewBox="0.00 0.00 151.38 155.00" xmlns="http://www.w3.org/2000/svg" xmlns:xlink="http://www.w3.org/1999/xlink">
<g id="graph0" class="graph" transform="scale(1 1) rotate(0) translate(4 151)">
<title>boards/pba&#45;d&#45;01&#45;kw2x/include/board.h</title>
<!-- Node1 -->
<g id="Node000001" class="node">
<title>Node1</title>
<g id="a_Node000001"><a xlink:title="Board specific definitions for the phyWAVE evaluation board.">
<polygon fill="#999999" stroke="#666666" points="125.5,-147 0,-147 0,-113.5 125.5,-113.5 125.5,-147"/>
<text text-anchor="start" x="8" y="-133.5" font-family="Helvetica,sans-Serif" font-size="10.00">boards/pba&#45;d&#45;01&#45;kw2x</text>
<text text-anchor="middle" x="62.75" y="-120.75" font-family="Helvetica,sans-Serif" font-size="10.00">/include/board.h</text>
</a>
</g>
</g>
<!-- Node2 -->
<g id="Node000002" class="node">
<title>Node2</title>
<g id="a_Node000002"><a xlink:title=" ">
<polygon fill="#e0e0e0" stroke="#999999" points="43.88,-77.5 1.62,-77.5 1.62,-56.75 43.88,-56.75 43.88,-77.5"/>
<text text-anchor="middle" x="22.75" y="-64" font-family="Helvetica,sans-Serif" font-size="10.00">cpu.h</text>
</a>
</g>
</g>
<!-- Node1&#45;&gt;Node2 -->
<g id="edge1_Node000001_Node000002" class="edge">
<title>Node1&#45;&gt;Node2</title>
<g id="a_edge1_Node000001_Node000002"><a xlink:title=" ">
<path fill="none" stroke="#63b8ff" d="M52.24,-113.19C47.1,-105.33 40.86,-95.81 35.46,-87.54"/>
<polygon fill="#63b8ff" stroke="#63b8ff" points="38.42,-85.68 30.02,-79.23 32.57,-89.52 38.42,-85.68"/>
</a>
</g>
</g>
<!-- Node3 -->
<g id="Node000003" class="node">
<title>Node3</title>
<g id="a_Node000003"><a xlink:href="boards_2pba-d-01-kw2x_2include_2periph__conf_8h.html" target="_top" xlink:title=" ">
<polygon fill="white" stroke="#666666" points="143.38,-77.5 62.12,-77.5 62.12,-56.75 143.38,-56.75 143.38,-77.5"/>
<text text-anchor="middle" x="102.75" y="-64" font-family="Helvetica,sans-Serif" font-size="10.00">periph_conf.h</text>
</a>
</g>
</g>
<!-- Node1&#45;&gt;Node3 -->
<g id="edge2_Node000001_Node000003" class="edge">
<title>Node1&#45;&gt;Node3</title>
<g id="a_edge2_Node000001_Node000003"><a xlink:title=" ">
<path fill="none" stroke="#63b8ff" d="M73.26,-113.19C78.4,-105.33 84.64,-95.81 90.04,-87.54"/>
<polygon fill="#63b8ff" stroke="#63b8ff" points="92.93,-89.52 95.48,-79.23 87.08,-85.68 92.93,-89.52"/>
</a>
</g>
</g>
<!-- Node4 -->
<g id="Node000004" class="node">
<title>Node4</title>
<g id="a_Node000004"><a xlink:title=" ">
<polygon fill="#e0e0e0" stroke="#999999" points="141.88,-20.75 63.62,-20.75 63.62,0 141.88,0 141.88,-20.75"/>
<text text-anchor="middle" x="102.75" y="-7.25" font-family="Helvetica,sans-Serif" font-size="10.00">periph_cpu.h</text>
</a>
</g>
</g>
<!-- Node3&#45;&gt;Node4 -->
<g id="edge3_Node000003_Node000004" class="edge">
<title>Node3&#45;&gt;Node4</title>
<g id="a_edge3_Node000003_Node000004"><a xlink:title=" ">
<path fill="none" stroke="#63b8ff" d="M102.75,-56.34C102.75,-49.72 102.75,-40.72 102.75,-32.52"/>
<polygon fill="#63b8ff" stroke="#63b8ff" points="106.25,-32.59 102.75,-22.59 99.25,-32.59 106.25,-32.59"/>
</a>
</g>
</g>
</g>
</svg>
