<?xml version="1.0" encoding="UTF-8" standalone="no"?>
<!DOCTYPE svg PUBLIC "-//W3C//DTD SVG 1.1//EN"
 "http://www.w3.org/Graphics/SVG/1.1/DTD/svg11.dtd">
<!-- Generated by graphviz version 12.1.1 (0)
 -->
<!-- Title: sys/include/hashes/pbkdf2.h Pages: 1 -->
<svg width="309pt" height="212pt"
 viewBox="0.00 0.00 309.25 211.75" xmlns="http://www.w3.org/2000/svg" xmlns:xlink="http://www.w3.org/1999/xlink">
<g id="graph0" class="graph" transform="scale(1 1) rotate(0) translate(4 207.75)">
<title>sys/include/hashes/pbkdf2.h</title>
<!-- Node1 -->
<g id="Node000001" class="node">
<title>Node1</title>
<g id="a_Node000001"><a xlink:title="PBKDF2 key derivation implementation.">
<polygon fill="#999999" stroke="#666666" points="164.5,-203.75 56.25,-203.75 56.25,-170.25 164.5,-170.25 164.5,-203.75"/>
<text text-anchor="start" x="64.25" y="-190.25" font-family="Helvetica,sans-Serif" font-size="10.00">sys/include/hashes</text>
<text text-anchor="middle" x="110.38" y="-177.5" font-family="Helvetica,sans-Serif" font-size="10.00">/pbkdf2.h</text>
</a>
</g>
</g>
<!-- Node2 -->
<g id="Node000002" class="node">
<title>Node2</title>
<g id="a_Node000002"><a xlink:href="sha256_8h.html" target="_top" xlink:title="Header definitions for the SHA256 hash function.">
<polygon fill="white" stroke="#666666" points="159.25,-134.25 61.5,-134.25 61.5,-113.5 159.25,-113.5 159.25,-134.25"/>
<text text-anchor="middle" x="110.38" y="-120.75" font-family="Helvetica,sans-Serif" font-size="10.00">hashes/sha256.h</text>
</a>
</g>
</g>
<!-- Node1&#45;&gt;Node2 -->
<g id="edge1_Node000001_Node000002" class="edge">
<title>Node1&#45;&gt;Node2</title>
<g id="a_edge1_Node000001_Node000002"><a xlink:title=" ">
<path fill="none" stroke="#63b8ff" d="M110.38,-169.94C110.38,-162.6 110.38,-153.82 110.38,-145.96"/>
<polygon fill="#63b8ff" stroke="#63b8ff" points="113.88,-146.23 110.38,-136.23 106.88,-146.23 113.88,-146.23"/>
</a>
</g>
</g>
<!-- Node3 -->
<g id="Node000003" class="node">
<title>Node3</title>
<g id="a_Node000003"><a xlink:href="inttypes_8h.html" target="_top" xlink:title="Adds include for missing inttype definitions.">
<polygon fill="white" stroke="#666666" points="64.75,-77.5 0,-77.5 0,-56.75 64.75,-56.75 64.75,-77.5"/>
<text text-anchor="middle" x="32.38" y="-64" font-family="Helvetica,sans-Serif" font-size="10.00">inttypes.h</text>
</a>
</g>
</g>
<!-- Node2&#45;&gt;Node3 -->
<g id="edge2_Node000002_Node000003" class="edge">
<title>Node2&#45;&gt;Node3</title>
<g id="a_edge2_Node000002_Node000003"><a xlink:title=" ">
<path fill="none" stroke="#63b8ff" d="M96.43,-113.09C85.01,-105.07 68.61,-93.56 55.26,-84.19"/>
<polygon fill="#63b8ff" stroke="#63b8ff" points="57.63,-81.58 47.44,-78.7 53.61,-87.31 57.63,-81.58"/>
</a>
</g>
</g>
<!-- Node4 -->
<g id="Node000004" class="node">
<title>Node4</title>
<g id="a_Node000004"><a xlink:title=" ">
<polygon fill="#e0e0e0" stroke="#999999" points="137.88,-77.5 82.88,-77.5 82.88,-56.75 137.88,-56.75 137.88,-77.5"/>
<text text-anchor="middle" x="110.38" y="-64" font-family="Helvetica,sans-Serif" font-size="10.00">stddef.h</text>
</a>
</g>
</g>
<!-- Node2&#45;&gt;Node4 -->
<g id="edge3_Node000002_Node000004" class="edge">
<title>Node2&#45;&gt;Node4</title>
<g id="a_edge3_Node000002_Node000004"><a xlink:title=" ">
<path fill="none" stroke="#63b8ff" d="M110.38,-113.09C110.38,-106.47 110.38,-97.47 110.38,-89.27"/>
<polygon fill="#63b8ff" stroke="#63b8ff" points="113.88,-89.34 110.38,-79.34 106.88,-89.34 113.88,-89.34"/>
</a>
</g>
</g>
<!-- Node5 -->
<g id="Node000005" class="node">
<title>Node5</title>
<g id="a_Node000005"><a xlink:href="sha2xx__common_8h.html" target="_top" xlink:title="Common definitions for the SHA&#45;224/256 hash functions.">
<polygon fill="white" stroke="#666666" points="301.25,-77.5 155.5,-77.5 155.5,-56.75 301.25,-56.75 301.25,-77.5"/>
<text text-anchor="middle" x="228.38" y="-64" font-family="Helvetica,sans-Serif" font-size="10.00">hashes/sha2xx_common.h</text>
</a>
</g>
</g>
<!-- Node2&#45;&gt;Node5 -->
<g id="edge4_Node000002_Node000005" class="edge">
<title>Node2&#45;&gt;Node5</title>
<g id="a_edge4_Node000002_Node000005"><a xlink:title=" ">
<path fill="none" stroke="#63b8ff" d="M131.47,-113.09C149.76,-104.6 176.48,-92.2 197.23,-82.58"/>
<polygon fill="#63b8ff" stroke="#63b8ff" points="198.49,-85.85 206.09,-78.47 195.54,-79.5 198.49,-85.85"/>
</a>
</g>
</g>
<!-- Node6 -->
<g id="Node000006" class="node">
<title>Node6</title>
<g id="a_Node000006"><a xlink:title=" ">
<polygon fill="#e0e0e0" stroke="#999999" points="218.75,-20.75 166,-20.75 166,0 218.75,0 218.75,-20.75"/>
<text text-anchor="middle" x="192.38" y="-7.25" font-family="Helvetica,sans-Serif" font-size="10.00">string.h</text>
</a>
</g>
</g>
<!-- Node5&#45;&gt;Node6 -->
<g id="edge5_Node000005_Node000006" class="edge">
<title>Node5&#45;&gt;Node6</title>
<g id="a_edge5_Node000005_Node000006"><a xlink:title=" ">
<path fill="none" stroke="#63b8ff" d="M221.94,-56.34C217.23,-49.17 210.69,-39.23 204.96,-30.51"/>
<polygon fill="#63b8ff" stroke="#63b8ff" points="208.01,-28.78 199.59,-22.34 202.16,-32.62 208.01,-28.78"/>
</a>
</g>
</g>
<!-- Node7 -->
<g id="Node000007" class="node">
<title>Node7</title>
<g id="a_Node000007"><a xlink:title=" ">
<polygon fill="#e0e0e0" stroke="#999999" points="289.75,-20.75 237,-20.75 237,0 289.75,0 289.75,-20.75"/>
<text text-anchor="middle" x="263.38" y="-7.25" font-family="Helvetica,sans-Serif" font-size="10.00">stdint.h</text>
</a>
</g>
</g>
<!-- Node5&#45;&gt;Node7 -->
<g id="edge6_Node000005_Node000007" class="edge">
<title>Node5&#45;&gt;Node7</title>
<g id="a_edge6_Node000005_Node000007"><a xlink:title=" ">
<path fill="none" stroke="#63b8ff" d="M234.63,-56.34C239.21,-49.17 245.57,-39.23 251.14,-30.51"/>
<polygon fill="#63b8ff" stroke="#63b8ff" points="253.92,-32.66 256.36,-22.35 248.02,-28.89 253.92,-32.66"/>
</a>
</g>
</g>
</g>
</svg>
