<?xml version="1.0" encoding="UTF-8" standalone="no"?>
<!DOCTYPE svg PUBLIC "-//W3C//DTD SVG 1.1//EN"
 "http://www.w3.org/Graphics/SVG/1.1/DTD/svg11.dtd">
<!-- Generated by graphviz version 12.1.1 (0)
 -->
<!-- Title: drivers/include/pca9685.h Pages: 1 -->
<svg width="401pt" height="142pt"
 viewBox="0.00 0.00 401.12 142.25" xmlns="http://www.w3.org/2000/svg" xmlns:xlink="http://www.w3.org/1999/xlink">
<g id="graph0" class="graph" transform="scale(1 1) rotate(0) translate(4 138.25)">
<title>drivers/include/pca9685.h</title>
<!-- Node1 -->
<g id="Node000001" class="node">
<title>Node1</title>
<g id="a_Node000001"><a xlink:title=" ">
<polygon fill="#999999" stroke="#666666" points="228.12,-134.25 86.88,-134.25 86.88,-113.5 228.12,-113.5 228.12,-134.25"/>
<text text-anchor="middle" x="157.5" y="-120.75" font-family="Helvetica,sans-Serif" font-size="10.00">drivers/include/pca9685.h</text>
</a>
</g>
</g>
<!-- Node2 -->
<g id="Node000002" class="node">
<title>Node2</title>
<g id="a_Node000002"><a xlink:title=" ">
<polygon fill="#e0e0e0" stroke="#999999" points="64,-77.5 3,-77.5 3,-56.75 64,-56.75 64,-77.5"/>
<text text-anchor="middle" x="33.5" y="-64" font-family="Helvetica,sans-Serif" font-size="10.00">stdbool.h</text>
</a>
</g>
</g>
<!-- Node1&#45;&gt;Node2 -->
<g id="edge1_Node000001_Node000002" class="edge">
<title>Node1&#45;&gt;Node2</title>
<g id="a_edge1_Node000001_Node000002"><a xlink:title=" ">
<path fill="none" stroke="#63b8ff" d="M135.33,-113.09C116.02,-104.56 87.78,-92.09 65.93,-82.44"/>
<polygon fill="#63b8ff" stroke="#63b8ff" points="67.42,-79.28 56.86,-78.44 64.6,-85.68 67.42,-79.28"/>
</a>
</g>
</g>
<!-- Node3 -->
<g id="Node000003" class="node">
<title>Node3</title>
<g id="a_Node000003"><a xlink:title=" ">
<polygon fill="#e0e0e0" stroke="#999999" points="125.88,-20.75 73.12,-20.75 73.12,0 125.88,0 125.88,-20.75"/>
<text text-anchor="middle" x="99.5" y="-7.25" font-family="Helvetica,sans-Serif" font-size="10.00">stdint.h</text>
</a>
</g>
</g>
<!-- Node1&#45;&gt;Node3 -->
<g id="edge2_Node000001_Node000003" class="edge">
<title>Node1&#45;&gt;Node3</title>
<g id="a_edge2_Node000001_Node000003"><a xlink:title=" ">
<path fill="none" stroke="#63b8ff" d="M144.34,-113.21C134.03,-104.9 120.19,-92.01 112.5,-77.5 105.03,-63.41 101.83,-45.59 100.47,-31.99"/>
<polygon fill="#63b8ff" stroke="#63b8ff" points="103.99,-32.16 99.78,-22.44 97.01,-32.66 103.99,-32.16"/>
</a>
</g>
</g>
<!-- Node4 -->
<g id="Node000004" class="node">
<title>Node4</title>
<g id="a_Node000004"><a xlink:href="drivers_2include_2periph_2gpio_8h.html" target="_top" xlink:title="Low&#45;level GPIO peripheral driver interface definitions.">
<polygon fill="white" stroke="#666666" points="392.38,-77.5 312.62,-77.5 312.62,-56.75 392.38,-56.75 392.38,-77.5"/>
<text text-anchor="middle" x="352.5" y="-64" font-family="Helvetica,sans-Serif" font-size="10.00">periph/gpio.h</text>
</a>
</g>
</g>
<!-- Node1&#45;&gt;Node4 -->
<g id="edge3_Node000001_Node000004" class="edge">
<title>Node1&#45;&gt;Node4</title>
<g id="a_edge3_Node000001_Node000004"><a xlink:title=" ">
<path fill="none" stroke="#63b8ff" d="M192.36,-113.09C224.29,-104.12 271.76,-90.79 306.73,-80.98"/>
<polygon fill="#63b8ff" stroke="#63b8ff" points="307.47,-84.4 316.15,-78.33 305.58,-77.66 307.47,-84.4"/>
</a>
</g>
</g>
<!-- Node8 -->
<g id="Node000008" class="node">
<title>Node8</title>
<g id="a_Node000008"><a xlink:href="i2c_8h.html" target="_top" xlink:title="Low&#45;level I2C peripheral driver interface definition.">
<polygon fill="white" stroke="#666666" points="194,-77.5 121,-77.5 121,-56.75 194,-56.75 194,-77.5"/>
<text text-anchor="middle" x="157.5" y="-64" font-family="Helvetica,sans-Serif" font-size="10.00">periph/i2c.h</text>
</a>
</g>
</g>
<!-- Node1&#45;&gt;Node8 -->
<g id="edge7_Node000001_Node000008" class="edge">
<title>Node1&#45;&gt;Node8</title>
<g id="a_edge7_Node000001_Node000008"><a xlink:title=" ">
<path fill="none" stroke="#63b8ff" d="M157.5,-113.09C157.5,-106.47 157.5,-97.47 157.5,-89.27"/>
<polygon fill="#63b8ff" stroke="#63b8ff" points="161,-89.34 157.5,-79.34 154,-89.34 161,-89.34"/>
</a>
</g>
</g>
<!-- Node10 -->
<g id="Node000010" class="node">
<title>Node10</title>
<g id="a_Node000010"><a xlink:href="pwm_8h.html" target="_top" xlink:title="Low&#45;level PWM peripheral driver interface definitions.">
<polygon fill="white" stroke="#666666" points="294.88,-77.5 212.12,-77.5 212.12,-56.75 294.88,-56.75 294.88,-77.5"/>
<text text-anchor="middle" x="253.5" y="-64" font-family="Helvetica,sans-Serif" font-size="10.00">periph/pwm.h</text>
</a>
</g>
</g>
<!-- Node1&#45;&gt;Node10 -->
<g id="edge13_Node000001_Node000010" class="edge">
<title>Node1&#45;&gt;Node10</title>
<g id="a_edge13_Node000001_Node000010"><a xlink:title=" ">
<path fill="none" stroke="#63b8ff" d="M174.66,-113.09C189.13,-104.83 210.09,-92.88 226.76,-83.38"/>
<polygon fill="#63b8ff" stroke="#63b8ff" points="228.22,-86.57 235.17,-78.58 224.75,-80.49 228.22,-86.57"/>
</a>
</g>
</g>
<!-- Node5 -->
<g id="Node000005" class="node">
<title>Node5</title>
<g id="a_Node000005"><a xlink:title=" ">
<polygon fill="#e0e0e0" stroke="#999999" points="196.88,-20.75 144.12,-20.75 144.12,0 196.88,0 196.88,-20.75"/>
<text text-anchor="middle" x="170.5" y="-7.25" font-family="Helvetica,sans-Serif" font-size="10.00">limits.h</text>
</a>
</g>
</g>
<!-- Node4&#45;&gt;Node5 -->
<g id="edge4_Node000004_Node000005" class="edge">
<title>Node4&#45;&gt;Node5</title>
<g id="a_edge4_Node000004_Node000005"><a xlink:title=" ">
<path fill="none" stroke="#63b8ff" d="M319.96,-56.34C288.59,-46.9 241.14,-32.63 208.16,-22.7"/>
<polygon fill="#63b8ff" stroke="#63b8ff" points="209.17,-19.35 198.59,-19.82 207.16,-26.06 209.17,-19.35"/>
</a>
</g>
</g>
<!-- Node6 -->
<g id="Node000006" class="node">
<title>Node6</title>
<g id="a_Node000006"><a xlink:title=" ">
<polygon fill="#e0e0e0" stroke="#999999" points="293.62,-20.75 215.38,-20.75 215.38,0 293.62,0 293.62,-20.75"/>
<text text-anchor="middle" x="254.5" y="-7.25" font-family="Helvetica,sans-Serif" font-size="10.00">periph_cpu.h</text>
</a>
</g>
</g>
<!-- Node4&#45;&gt;Node6 -->
<g id="edge5_Node000004_Node000006" class="edge">
<title>Node4&#45;&gt;Node6</title>
<g id="a_edge5_Node000004_Node000006"><a xlink:title=" ">
<path fill="none" stroke="#63b8ff" d="M334.98,-56.34C320.21,-48.08 298.82,-36.13 281.8,-26.63"/>
<polygon fill="#63b8ff" stroke="#63b8ff" points="283.63,-23.64 273.19,-21.82 280.21,-29.75 283.63,-23.64"/>
</a>
</g>
</g>
<!-- Node7 -->
<g id="Node000007" class="node">
<title>Node7</title>
<g id="a_Node000007"><a xlink:title=" ">
<polygon fill="#e0e0e0" stroke="#999999" points="393.12,-20.75 311.88,-20.75 311.88,0 393.12,0 393.12,-20.75"/>
<text text-anchor="middle" x="352.5" y="-7.25" font-family="Helvetica,sans-Serif" font-size="10.00">periph_conf.h</text>
</a>
</g>
</g>
<!-- Node4&#45;&gt;Node7 -->
<g id="edge6_Node000004_Node000007" class="edge">
<title>Node4&#45;&gt;Node7</title>
<g id="a_edge6_Node000004_Node000007"><a xlink:title=" ">
<path fill="none" stroke="#63b8ff" d="M352.5,-56.34C352.5,-49.72 352.5,-40.72 352.5,-32.52"/>
<polygon fill="#63b8ff" stroke="#63b8ff" points="356,-32.59 352.5,-22.59 349,-32.59 356,-32.59"/>
</a>
</g>
</g>
<!-- Node8&#45;&gt;Node3 -->
<g id="edge8_Node000008_Node000003" class="edge">
<title>Node8&#45;&gt;Node3</title>
<g id="a_edge8_Node000008_Node000003"><a xlink:title=" ">
<path fill="none" stroke="#63b8ff" d="M147.13,-56.34C139.05,-48.71 127.62,-37.92 117.98,-28.82"/>
<polygon fill="#63b8ff" stroke="#63b8ff" points="120.55,-26.44 110.88,-22.12 115.75,-31.53 120.55,-26.44"/>
</a>
</g>
</g>
<!-- Node8&#45;&gt;Node5 -->
<g id="edge10_Node000008_Node000005" class="edge">
<title>Node8&#45;&gt;Node5</title>
<g id="a_edge10_Node000008_Node000005"><a xlink:title=" ">
<path fill="none" stroke="#63b8ff" d="M159.82,-56.34C161.41,-49.64 163.58,-40.51 165.55,-32.23"/>
<polygon fill="#63b8ff" stroke="#63b8ff" points="168.94,-33.09 167.85,-22.55 162.13,-31.47 168.94,-33.09"/>
</a>
</g>
</g>
<!-- Node8&#45;&gt;Node6 -->
<g id="edge12_Node000008_Node000006" class="edge">
<title>Node8&#45;&gt;Node6</title>
<g id="a_edge12_Node000008_Node000006"><a xlink:title=" ">
<path fill="none" stroke="#63b8ff" d="M174.84,-56.34C189.46,-48.08 210.64,-36.13 227.48,-26.63"/>
<polygon fill="#63b8ff" stroke="#63b8ff" points="229,-29.79 235.99,-21.82 225.56,-23.69 229,-29.79"/>
</a>
</g>
</g>
<!-- Node8&#45;&gt;Node7 -->
<g id="edge11_Node000008_Node000007" class="edge">
<title>Node8&#45;&gt;Node7</title>
<g id="a_edge11_Node000008_Node000007"><a xlink:title=" ">
<path fill="none" stroke="#63b8ff" d="M192.36,-56.34C224.29,-47.37 271.76,-34.04 306.73,-24.23"/>
<polygon fill="#63b8ff" stroke="#63b8ff" points="307.47,-27.65 316.15,-21.58 305.58,-20.91 307.47,-27.65"/>
</a>
</g>
</g>
<!-- Node9 -->
<g id="Node000009" class="node">
<title>Node9</title>
<g id="a_Node000009"><a xlink:title=" ">
<polygon fill="#e0e0e0" stroke="#999999" points="55,-20.75 0,-20.75 0,0 55,0 55,-20.75"/>
<text text-anchor="middle" x="27.5" y="-7.25" font-family="Helvetica,sans-Serif" font-size="10.00">stddef.h</text>
</a>
</g>
</g>
<!-- Node8&#45;&gt;Node9 -->
<g id="edge9_Node000008_Node000009" class="edge">
<title>Node8&#45;&gt;Node9</title>
<g id="a_edge9_Node000008_Node000009"><a xlink:title=" ">
<path fill="none" stroke="#63b8ff" d="M134.26,-56.34C113.83,-47.73 83.86,-35.11 60.87,-25.43"/>
<polygon fill="#63b8ff" stroke="#63b8ff" points="62.51,-22.32 51.94,-21.67 59.79,-28.77 62.51,-22.32"/>
</a>
</g>
</g>
<!-- Node10&#45;&gt;Node3 -->
<g id="edge14_Node000010_Node000003" class="edge">
<title>Node10&#45;&gt;Node3</title>
<g id="a_edge14_Node000010_Node000003"><a xlink:title=" ">
<path fill="none" stroke="#63b8ff" d="M225.97,-56.34C201.18,-47.52 164.53,-34.49 137.06,-24.73"/>
<polygon fill="#63b8ff" stroke="#63b8ff" points="138.3,-21.45 127.7,-21.4 135.95,-28.05 138.3,-21.45"/>
</a>
</g>
</g>
<!-- Node10&#45;&gt;Node5 -->
<g id="edge15_Node000010_Node000005" class="edge">
<title>Node10&#45;&gt;Node5</title>
<g id="a_edge15_Node000010_Node000005"><a xlink:title=" ">
<path fill="none" stroke="#63b8ff" d="M238.66,-56.34C226.39,-48.24 208.71,-36.58 194.44,-27.17"/>
<polygon fill="#63b8ff" stroke="#63b8ff" points="196.75,-24.5 186.47,-21.91 192.89,-30.34 196.75,-24.5"/>
</a>
</g>
</g>
<!-- Node10&#45;&gt;Node6 -->
<g id="edge16_Node000010_Node000006" class="edge">
<title>Node10&#45;&gt;Node6</title>
<g id="a_edge16_Node000010_Node000006"><a xlink:title=" ">
<path fill="none" stroke="#63b8ff" d="M253.68,-56.34C253.8,-49.72 253.96,-40.72 254.11,-32.52"/>
<polygon fill="#63b8ff" stroke="#63b8ff" points="257.61,-32.65 254.3,-22.59 250.61,-32.53 257.61,-32.65"/>
</a>
</g>
</g>
<!-- Node10&#45;&gt;Node7 -->
<g id="edge17_Node000010_Node000007" class="edge">
<title>Node10&#45;&gt;Node7</title>
<g id="a_edge17_Node000010_Node000007"><a xlink:title=" ">
<path fill="none" stroke="#63b8ff" d="M271.2,-56.34C286.12,-48.08 307.73,-36.13 324.92,-26.63"/>
<polygon fill="#63b8ff" stroke="#63b8ff" points="326.57,-29.71 333.63,-21.81 323.18,-23.59 326.57,-29.71"/>
</a>
</g>
</g>
</g>
</svg>
