<?xml version="1.0" encoding="UTF-8" standalone="no"?>
<!DOCTYPE svg PUBLIC "-//W3C//DTD SVG 1.1//EN"
 "http://www.w3.org/Graphics/SVG/1.1/DTD/svg11.dtd">
<!-- Generated by graphviz version 12.1.1 (0)
 -->
<!-- Title: drivers/pca9685/include/pca9685_params.h Pages: 1 -->
<svg width="651pt" height="212pt"
 viewBox="0.00 0.00 650.62 211.75" xmlns="http://www.w3.org/2000/svg" xmlns:xlink="http://www.w3.org/1999/xlink">
<g id="graph0" class="graph" transform="scale(1 1) rotate(0) translate(4 207.75)">
<title>drivers/pca9685/include/pca9685_params.h</title>
<!-- Node1 -->
<g id="Node000001" class="node">
<title>Node1</title>
<g id="a_Node000001"><a xlink:title="Default configuration for the PCA9685 I2C PWM controller.">
<polygon fill="#999999" stroke="#666666" points="253.88,-203.75 121.62,-203.75 121.62,-170.25 253.88,-170.25 253.88,-203.75"/>
<text text-anchor="start" x="129.62" y="-190.25" font-family="Helvetica,sans-Serif" font-size="10.00">drivers/pca9685/include</text>
<text text-anchor="middle" x="187.75" y="-177.5" font-family="Helvetica,sans-Serif" font-size="10.00">/pca9685_params.h</text>
</a>
</g>
</g>
<!-- Node2 -->
<g id="Node000002" class="node">
<title>Node2</title>
<g id="a_Node000002"><a xlink:title=" ">
<polygon fill="#e0e0e0" stroke="#999999" points="136.12,-134.25 83.38,-134.25 83.38,-113.5 136.12,-113.5 136.12,-134.25"/>
<text text-anchor="middle" x="109.75" y="-120.75" font-family="Helvetica,sans-Serif" font-size="10.00">board.h</text>
</a>
</g>
</g>
<!-- Node1&#45;&gt;Node2 -->
<g id="edge1_Node000001_Node000002" class="edge">
<title>Node1&#45;&gt;Node2</title>
<g id="a_edge1_Node000001_Node000002"><a xlink:title=" ">
<path fill="none" stroke="#63b8ff" d="M167.26,-169.94C156.11,-161.21 142.35,-150.42 131.08,-141.59"/>
<polygon fill="#63b8ff" stroke="#63b8ff" points="133.53,-139.06 123.5,-135.65 129.21,-144.57 133.53,-139.06"/>
</a>
</g>
</g>
<!-- Node3 -->
<g id="Node000003" class="node">
<title>Node3</title>
<g id="a_Node000003"><a xlink:href="saul__reg_8h.html" target="_top" xlink:title="SAUL registry interface definition.">
<polygon fill="white" stroke="#666666" points="220.88,-134.25 154.62,-134.25 154.62,-113.5 220.88,-113.5 220.88,-134.25"/>
<text text-anchor="middle" x="187.75" y="-120.75" font-family="Helvetica,sans-Serif" font-size="10.00">saul_reg.h</text>
</a>
</g>
</g>
<!-- Node1&#45;&gt;Node3 -->
<g id="edge2_Node000001_Node000003" class="edge">
<title>Node1&#45;&gt;Node3</title>
<g id="a_edge2_Node000001_Node000003"><a xlink:title=" ">
<path fill="none" stroke="#63b8ff" d="M187.75,-169.94C187.75,-162.6 187.75,-153.82 187.75,-145.96"/>
<polygon fill="#63b8ff" stroke="#63b8ff" points="191.25,-146.23 187.75,-136.23 184.25,-146.23 191.25,-146.23"/>
</a>
</g>
</g>
<!-- Node10 -->
<g id="Node000010" class="node">
<title>Node10</title>
<g id="a_Node000010"><a xlink:href="pca9685_8h.html" target="_top" xlink:title=" ">
<polygon fill="white" stroke="#666666" points="407.88,-134.25 341.62,-134.25 341.62,-113.5 407.88,-113.5 407.88,-134.25"/>
<text text-anchor="middle" x="374.75" y="-120.75" font-family="Helvetica,sans-Serif" font-size="10.00">pca9685.h</text>
</a>
</g>
</g>
<!-- Node1&#45;&gt;Node10 -->
<g id="edge10_Node000001_Node000010" class="edge">
<title>Node1&#45;&gt;Node10</title>
<g id="a_edge10_Node000001_Node000010"><a xlink:title=" ">
<path fill="none" stroke="#63b8ff" d="M237.37,-169.78C267.56,-159.91 305.63,-147.47 334.04,-138.18"/>
<polygon fill="#63b8ff" stroke="#63b8ff" points="334.94,-141.57 343.36,-135.14 332.77,-134.92 334.94,-141.57"/>
</a>
</g>
</g>
<!-- Node4 -->
<g id="Node000004" class="node">
<title>Node4</title>
<g id="a_Node000004"><a xlink:title=" ">
<polygon fill="#e0e0e0" stroke="#999999" points="365.12,-20.75 312.38,-20.75 312.38,0 365.12,0 365.12,-20.75"/>
<text text-anchor="middle" x="338.75" y="-7.25" font-family="Helvetica,sans-Serif" font-size="10.00">stdint.h</text>
</a>
</g>
</g>
<!-- Node3&#45;&gt;Node4 -->
<g id="edge3_Node000003_Node000004" class="edge">
<title>Node3&#45;&gt;Node4</title>
<g id="a_edge3_Node000003_Node000004"><a xlink:title=" ">
<path fill="none" stroke="#63b8ff" d="M182.96,-113.24C176.79,-99.3 168.25,-73.35 180.75,-56.75 188.11,-46.97 256.57,-29.92 300.93,-19.74"/>
<polygon fill="#63b8ff" stroke="#63b8ff" points="301.46,-23.21 310.43,-17.58 299.9,-16.38 301.46,-23.21"/>
</a>
</g>
</g>
<!-- Node5 -->
<g id="Node000005" class="node">
<title>Node5</title>
<g id="a_Node000005"><a xlink:title=" ">
<polygon fill="#e0e0e0" stroke="#999999" points="235.38,-77.5 190.12,-77.5 190.12,-56.75 235.38,-56.75 235.38,-77.5"/>
<text text-anchor="middle" x="212.75" y="-64" font-family="Helvetica,sans-Serif" font-size="10.00">saul.h</text>
</a>
</g>
</g>
<!-- Node3&#45;&gt;Node5 -->
<g id="edge4_Node000003_Node000005" class="edge">
<title>Node3&#45;&gt;Node5</title>
<g id="a_edge4_Node000003_Node000005"><a xlink:title=" ">
<path fill="none" stroke="#63b8ff" d="M192.22,-113.09C195.38,-106.16 199.74,-96.62 203.62,-88.11"/>
<polygon fill="#63b8ff" stroke="#63b8ff" points="206.72,-89.76 207.69,-79.21 200.35,-86.85 206.72,-89.76"/>
</a>
</g>
</g>
<!-- Node6 -->
<g id="Node000006" class="node">
<title>Node6</title>
<g id="a_Node000006"><a xlink:href="phydat_8h.html" target="_top" xlink:title="Generic data container for physical data interface.">
<polygon fill="white" stroke="#666666" points="134.12,-77.5 75.38,-77.5 75.38,-56.75 134.12,-56.75 134.12,-77.5"/>
<text text-anchor="middle" x="104.75" y="-64" font-family="Helvetica,sans-Serif" font-size="10.00">phydat.h</text>
</a>
</g>
</g>
<!-- Node3&#45;&gt;Node6 -->
<g id="edge5_Node000003_Node000006" class="edge">
<title>Node3&#45;&gt;Node6</title>
<g id="a_edge5_Node000003_Node000006"><a xlink:title=" ">
<path fill="none" stroke="#63b8ff" d="M172.91,-113.09C160.64,-104.99 142.96,-93.33 128.69,-83.92"/>
<polygon fill="#63b8ff" stroke="#63b8ff" points="131,-81.25 120.72,-78.66 127.14,-87.09 131,-81.25"/>
</a>
</g>
</g>
<!-- Node6&#45;&gt;Node4 -->
<g id="edge7_Node000006_Node000004" class="edge">
<title>Node6&#45;&gt;Node4</title>
<g id="a_edge7_Node000006_Node000004"><a xlink:title=" ">
<path fill="none" stroke="#63b8ff" d="M134.39,-59.19C176.67,-49.3 254.34,-31.13 300.79,-20.26"/>
<polygon fill="#63b8ff" stroke="#63b8ff" points="301.47,-23.69 310.41,-18.01 299.88,-16.88 301.47,-23.69"/>
</a>
</g>
</g>
<!-- Node7 -->
<g id="Node000007" class="node">
<title>Node7</title>
<g id="a_Node000007"><a xlink:title=" ">
<polygon fill="#e0e0e0" stroke="#999999" points="272.25,-20.75 217.25,-20.75 217.25,0 272.25,0 272.25,-20.75"/>
<text text-anchor="middle" x="244.75" y="-7.25" font-family="Helvetica,sans-Serif" font-size="10.00">stddef.h</text>
</a>
</g>
</g>
<!-- Node6&#45;&gt;Node7 -->
<g id="edge6_Node000006_Node000007" class="edge">
<title>Node6&#45;&gt;Node7</title>
<g id="a_edge6_Node000006_Node000007"><a xlink:title=" ">
<path fill="none" stroke="#63b8ff" d="M129.78,-56.34C151.98,-47.66 184.64,-34.88 209.48,-25.17"/>
<polygon fill="#63b8ff" stroke="#63b8ff" points="210.49,-28.53 218.53,-21.63 207.94,-22.01 210.49,-28.53"/>
</a>
</g>
</g>
<!-- Node8 -->
<g id="Node000008" class="node">
<title>Node8</title>
<g id="a_Node000008"><a xlink:title=" ">
<polygon fill="#e0e0e0" stroke="#999999" points="71.5,-20.75 0,-20.75 0,0 71.5,0 71.5,-20.75"/>
<text text-anchor="middle" x="35.75" y="-7.25" font-family="Helvetica,sans-Serif" font-size="10.00">sys/types.h</text>
</a>
</g>
</g>
<!-- Node6&#45;&gt;Node8 -->
<g id="edge8_Node000006_Node000008" class="edge">
<title>Node6&#45;&gt;Node8</title>
<g id="a_edge8_Node000006_Node000008"><a xlink:title=" ">
<path fill="none" stroke="#63b8ff" d="M92.41,-56.34C82.5,-48.47 68.36,-37.25 56.69,-27.99"/>
<polygon fill="#63b8ff" stroke="#63b8ff" points="59.17,-25.49 49.16,-22.02 54.82,-30.98 59.17,-25.49"/>
</a>
</g>
</g>
<!-- Node9 -->
<g id="Node000009" class="node">
<title>Node9</title>
<g id="a_Node000009"><a xlink:href="modules_8h.html" target="_top" xlink:title="Common macros and compiler attributes/pragmas configuration.">
<polygon fill="white" stroke="#666666" points="156.25,-20.75 89.25,-20.75 89.25,0 156.25,0 156.25,-20.75"/>
<text text-anchor="middle" x="122.75" y="-7.25" font-family="Helvetica,sans-Serif" font-size="10.00">modules.h</text>
</a>
</g>
</g>
<!-- Node6&#45;&gt;Node9 -->
<g id="edge9_Node000006_Node000009" class="edge">
<title>Node6&#45;&gt;Node9</title>
<g id="a_edge9_Node000006_Node000009"><a xlink:title=" ">
<path fill="none" stroke="#63b8ff" d="M107.97,-56.34C110.19,-49.56 113.24,-40.3 115.99,-31.94"/>
<polygon fill="#63b8ff" stroke="#63b8ff" points="119.29,-33.11 119.09,-22.52 112.64,-30.92 119.29,-33.11"/>
</a>
</g>
</g>
<!-- Node10&#45;&gt;Node4 -->
<g id="edge12_Node000010_Node000004" class="edge">
<title>Node10&#45;&gt;Node4</title>
<g id="a_edge12_Node000010_Node000004"><a xlink:title=" ">
<path fill="none" stroke="#63b8ff" d="M371.68,-113.37C365.89,-95.44 353.24,-56.25 345.41,-32.01"/>
<polygon fill="#63b8ff" stroke="#63b8ff" points="348.78,-31.06 342.38,-22.62 342.12,-33.21 348.78,-31.06"/>
</a>
</g>
</g>
<!-- Node11 -->
<g id="Node000011" class="node">
<title>Node11</title>
<g id="a_Node000011"><a xlink:title=" ">
<polygon fill="#e0e0e0" stroke="#999999" points="314.25,-77.5 253.25,-77.5 253.25,-56.75 314.25,-56.75 314.25,-77.5"/>
<text text-anchor="middle" x="283.75" y="-64" font-family="Helvetica,sans-Serif" font-size="10.00">stdbool.h</text>
</a>
</g>
</g>
<!-- Node10&#45;&gt;Node11 -->
<g id="edge11_Node000010_Node000011" class="edge">
<title>Node10&#45;&gt;Node11</title>
<g id="a_edge11_Node000010_Node000011"><a xlink:title=" ">
<path fill="none" stroke="#63b8ff" d="M358.48,-113.09C344.89,-104.91 325.28,-93.11 309.55,-83.65"/>
<polygon fill="#63b8ff" stroke="#63b8ff" points="311.55,-80.77 301.18,-78.61 307.94,-86.76 311.55,-80.77"/>
</a>
</g>
</g>
<!-- Node12 -->
<g id="Node000012" class="node">
<title>Node12</title>
<g id="a_Node000012"><a xlink:href="drivers_2include_2periph_2gpio_8h.html" target="_top" xlink:title="Low&#45;level GPIO peripheral driver interface definitions.">
<polygon fill="white" stroke="#666666" points="642.62,-77.5 562.88,-77.5 562.88,-56.75 642.62,-56.75 642.62,-77.5"/>
<text text-anchor="middle" x="602.75" y="-64" font-family="Helvetica,sans-Serif" font-size="10.00">periph/gpio.h</text>
</a>
</g>
</g>
<!-- Node10&#45;&gt;Node12 -->
<g id="edge13_Node000010_Node000012" class="edge">
<title>Node10&#45;&gt;Node12</title>
<g id="a_edge13_Node000010_Node000012"><a xlink:title=" ">
<path fill="none" stroke="#63b8ff" d="M407.9,-114.91C445.62,-105.86 507.67,-90.96 551.61,-80.41"/>
<polygon fill="#63b8ff" stroke="#63b8ff" points="552.26,-83.85 561.17,-78.11 550.63,-77.04 552.26,-83.85"/>
</a>
</g>
</g>
<!-- Node16 -->
<g id="Node000016" class="node">
<title>Node16</title>
<g id="a_Node000016"><a xlink:href="i2c_8h.html" target="_top" xlink:title="Low&#45;level I2C peripheral driver interface definition.">
<polygon fill="white" stroke="#666666" points="444.25,-77.5 371.25,-77.5 371.25,-56.75 444.25,-56.75 444.25,-77.5"/>
<text text-anchor="middle" x="407.75" y="-64" font-family="Helvetica,sans-Serif" font-size="10.00">periph/i2c.h</text>
</a>
</g>
</g>
<!-- Node10&#45;&gt;Node16 -->
<g id="edge17_Node000010_Node000016" class="edge">
<title>Node10&#45;&gt;Node16</title>
<g id="a_edge17_Node000010_Node000016"><a xlink:title=" ">
<path fill="none" stroke="#63b8ff" d="M380.65,-113.09C384.92,-106 390.83,-96.19 396.05,-87.54"/>
<polygon fill="#63b8ff" stroke="#63b8ff" points="398.96,-89.5 401.12,-79.12 392.96,-85.88 398.96,-89.5"/>
</a>
</g>
</g>
<!-- Node17 -->
<g id="Node000017" class="node">
<title>Node17</title>
<g id="a_Node000017"><a xlink:href="pwm_8h.html" target="_top" xlink:title="Low&#45;level PWM peripheral driver interface definitions.">
<polygon fill="white" stroke="#666666" points="545.12,-77.5 462.38,-77.5 462.38,-56.75 545.12,-56.75 545.12,-77.5"/>
<text text-anchor="middle" x="503.75" y="-64" font-family="Helvetica,sans-Serif" font-size="10.00">periph/pwm.h</text>
</a>
</g>
</g>
<!-- Node10&#45;&gt;Node17 -->
<g id="edge23_Node000010_Node000017" class="edge">
<title>Node10&#45;&gt;Node17</title>
<g id="a_edge23_Node000010_Node000017"><a xlink:title=" ">
<path fill="none" stroke="#63b8ff" d="M397.81,-113.09C417.99,-104.52 447.55,-91.98 470.32,-82.31"/>
<polygon fill="#63b8ff" stroke="#63b8ff" points="471.66,-85.55 479.49,-78.42 468.92,-79.1 471.66,-85.55"/>
</a>
</g>
</g>
<!-- Node13 -->
<g id="Node000013" class="node">
<title>Node13</title>
<g id="a_Node000013"><a xlink:title=" ">
<polygon fill="#e0e0e0" stroke="#999999" points="535.12,-20.75 482.38,-20.75 482.38,0 535.12,0 535.12,-20.75"/>
<text text-anchor="middle" x="508.75" y="-7.25" font-family="Helvetica,sans-Serif" font-size="10.00">limits.h</text>
</a>
</g>
</g>
<!-- Node12&#45;&gt;Node13 -->
<g id="edge14_Node000012_Node000013" class="edge">
<title>Node12&#45;&gt;Node13</title>
<g id="a_edge14_Node000012_Node000013"><a xlink:title=" ">
<path fill="none" stroke="#63b8ff" d="M585.94,-56.34C571.78,-48.08 551.26,-36.13 534.94,-26.63"/>
<polygon fill="#63b8ff" stroke="#63b8ff" points="537.12,-23.85 526.72,-21.84 533.6,-29.9 537.12,-23.85"/>
</a>
</g>
</g>
<!-- Node14 -->
<g id="Node000014" class="node">
<title>Node14</title>
<g id="a_Node000014"><a xlink:title=" ">
<polygon fill="#e0e0e0" stroke="#999999" points="631.88,-20.75 553.62,-20.75 553.62,0 631.88,0 631.88,-20.75"/>
<text text-anchor="middle" x="592.75" y="-7.25" font-family="Helvetica,sans-Serif" font-size="10.00">periph_cpu.h</text>
</a>
</g>
</g>
<!-- Node12&#45;&gt;Node14 -->
<g id="edge15_Node000012_Node000014" class="edge">
<title>Node12&#45;&gt;Node14</title>
<g id="a_edge15_Node000012_Node000014"><a xlink:title=" ">
<path fill="none" stroke="#63b8ff" d="M600.96,-56.34C599.74,-49.64 598.07,-40.51 596.56,-32.23"/>
<polygon fill="#63b8ff" stroke="#63b8ff" points="600.03,-31.78 594.79,-22.57 593.15,-33.03 600.03,-31.78"/>
</a>
</g>
</g>
<!-- Node15 -->
<g id="Node000015" class="node">
<title>Node15</title>
<g id="a_Node000015"><a xlink:title=" ">
<polygon fill="#e0e0e0" stroke="#999999" points="464.38,-20.75 383.12,-20.75 383.12,0 464.38,0 464.38,-20.75"/>
<text text-anchor="middle" x="423.75" y="-7.25" font-family="Helvetica,sans-Serif" font-size="10.00">periph_conf.h</text>
</a>
</g>
</g>
<!-- Node12&#45;&gt;Node15 -->
<g id="edge16_Node000012_Node000015" class="edge">
<title>Node12&#45;&gt;Node15</title>
<g id="a_edge16_Node000012_Node000015"><a xlink:title=" ">
<path fill="none" stroke="#63b8ff" d="M570.75,-56.34C541.69,-47.45 498.62,-34.27 466.6,-24.48"/>
<polygon fill="#63b8ff" stroke="#63b8ff" points="467.81,-21.19 457.22,-21.61 465.76,-27.89 467.81,-21.19"/>
</a>
</g>
</g>
<!-- Node16&#45;&gt;Node4 -->
<g id="edge18_Node000016_Node000004" class="edge">
<title>Node16&#45;&gt;Node4</title>
<g id="a_edge18_Node000016_Node000004"><a xlink:title=" ">
<path fill="none" stroke="#63b8ff" d="M395.41,-56.34C385.5,-48.47 371.36,-37.25 359.69,-27.99"/>
<polygon fill="#63b8ff" stroke="#63b8ff" points="362.17,-25.49 352.16,-22.02 357.82,-30.98 362.17,-25.49"/>
</a>
</g>
</g>
<!-- Node16&#45;&gt;Node7 -->
<g id="edge19_Node000016_Node000007" class="edge">
<title>Node16&#45;&gt;Node7</title>
<g id="a_edge19_Node000016_Node000007"><a xlink:title=" ">
<path fill="none" stroke="#63b8ff" d="M378.61,-56.34C351.98,-47.39 312.41,-34.1 283.19,-24.29"/>
<polygon fill="#63b8ff" stroke="#63b8ff" points="284.58,-21.06 273.99,-21.19 282.35,-27.7 284.58,-21.06"/>
</a>
</g>
</g>
<!-- Node16&#45;&gt;Node13 -->
<g id="edge20_Node000016_Node000013" class="edge">
<title>Node16&#45;&gt;Node13</title>
<g id="a_edge20_Node000016_Node000013"><a xlink:title=" ">
<path fill="none" stroke="#63b8ff" d="M425.81,-56.34C441.17,-48.01 463.49,-35.91 481.11,-26.36"/>
<polygon fill="#63b8ff" stroke="#63b8ff" points="482.4,-29.64 489.52,-21.8 479.06,-23.49 482.4,-29.64"/>
</a>
</g>
</g>
<!-- Node16&#45;&gt;Node14 -->
<g id="edge22_Node000016_Node000014" class="edge">
<title>Node16&#45;&gt;Node14</title>
<g id="a_edge22_Node000016_Node000014"><a xlink:title=" ">
<path fill="none" stroke="#63b8ff" d="M440.82,-56.34C470.98,-47.41 515.76,-34.16 548.9,-24.35"/>
<polygon fill="#63b8ff" stroke="#63b8ff" points="549.6,-27.79 558.2,-21.6 547.62,-21.08 549.6,-27.79"/>
</a>
</g>
</g>
<!-- Node16&#45;&gt;Node15 -->
<g id="edge21_Node000016_Node000015" class="edge">
<title>Node16&#45;&gt;Node15</title>
<g id="a_edge21_Node000016_Node000015"><a xlink:title=" ">
<path fill="none" stroke="#63b8ff" d="M410.61,-56.34C412.59,-49.56 415.3,-40.3 417.74,-31.94"/>
<polygon fill="#63b8ff" stroke="#63b8ff" points="421.04,-33.11 420.49,-22.53 414.33,-31.15 421.04,-33.11"/>
</a>
</g>
</g>
<!-- Node17&#45;&gt;Node4 -->
<g id="edge24_Node000017_Node000004" class="edge">
<title>Node17&#45;&gt;Node4</title>
<g id="a_edge24_Node000017_Node000004"><a xlink:title=" ">
<path fill="none" stroke="#63b8ff" d="M474.25,-56.34C446.88,-47.25 406.01,-33.69 376.32,-23.84"/>
<polygon fill="#63b8ff" stroke="#63b8ff" points="377.57,-20.57 366.97,-20.74 375.36,-27.21 377.57,-20.57"/>
</a>
</g>
</g>
<!-- Node17&#45;&gt;Node13 -->
<g id="edge25_Node000017_Node000013" class="edge">
<title>Node17&#45;&gt;Node13</title>
<g id="a_edge25_Node000017_Node000013"><a xlink:title=" ">
<path fill="none" stroke="#63b8ff" d="M504.64,-56.34C505.25,-49.72 506.07,-40.72 506.82,-32.52"/>
<polygon fill="#63b8ff" stroke="#63b8ff" points="510.3,-32.86 507.73,-22.59 503.33,-32.23 510.3,-32.86"/>
</a>
</g>
</g>
<!-- Node17&#45;&gt;Node14 -->
<g id="edge26_Node000017_Node000014" class="edge">
<title>Node17&#45;&gt;Node14</title>
<g id="a_edge26_Node000017_Node000014"><a xlink:title=" ">
<path fill="none" stroke="#63b8ff" d="M519.66,-56.34C532.95,-48.16 552.14,-36.36 567.52,-26.9"/>
<polygon fill="#63b8ff" stroke="#63b8ff" points="569,-30.09 575.69,-21.87 565.34,-24.13 569,-30.09"/>
</a>
</g>
</g>
<!-- Node17&#45;&gt;Node15 -->
<g id="edge27_Node000017_Node000015" class="edge">
<title>Node17&#45;&gt;Node15</title>
<g id="a_edge27_Node000017_Node000015"><a xlink:title=" ">
<path fill="none" stroke="#63b8ff" d="M489.45,-56.34C477.73,-48.32 460.91,-36.81 447.22,-27.44"/>
<polygon fill="#63b8ff" stroke="#63b8ff" points="449.41,-24.69 439.18,-21.93 445.45,-30.47 449.41,-24.69"/>
</a>
</g>
</g>
</g>
</svg>
