<?xml version="1.0" encoding="UTF-8" standalone="no"?>
<!DOCTYPE svg PUBLIC "-//W3C//DTD SVG 1.1//EN"
 "http://www.w3.org/Graphics/SVG/1.1/DTD/svg11.dtd">
<!-- Generated by graphviz version 12.1.1 (0)
 -->
<!-- Title: drivers/include/pcd8544.h Pages: 1 -->
<svg width="542pt" height="199pt"
 viewBox="0.00 0.00 542.37 199.00" xmlns="http://www.w3.org/2000/svg" xmlns:xlink="http://www.w3.org/1999/xlink">
<g id="graph0" class="graph" transform="scale(1 1) rotate(0) translate(4 195)">
<title>drivers/include/pcd8544.h</title>
<!-- Node1 -->
<g id="Node000001" class="node">
<title>Node1</title>
<g id="a_Node000001"><a xlink:title="Interface definition for the PCD8544 LCD driver.">
<polygon fill="#999999" stroke="#666666" points="337.75,-191 196.5,-191 196.5,-170.25 337.75,-170.25 337.75,-191"/>
<text text-anchor="middle" x="267.12" y="-177.5" font-family="Helvetica,sans-Serif" font-size="10.00">drivers/include/pcd8544.h</text>
</a>
</g>
</g>
<!-- Node2 -->
<g id="Node000002" class="node">
<title>Node2</title>
<g id="a_Node000002"><a xlink:title=" ">
<polygon fill="#e0e0e0" stroke="#999999" points="437.5,-20.75 384.75,-20.75 384.75,0 437.5,0 437.5,-20.75"/>
<text text-anchor="middle" x="411.12" y="-7.25" font-family="Helvetica,sans-Serif" font-size="10.00">stdint.h</text>
</a>
</g>
</g>
<!-- Node1&#45;&gt;Node2 -->
<g id="edge1_Node000001_Node000002" class="edge">
<title>Node1&#45;&gt;Node2</title>
<g id="a_edge1_Node000001_Node000002"><a xlink:title=" ">
<path fill="none" stroke="#63b8ff" d="M337.95,-173.56C399.95,-164.08 486.56,-139.77 529.12,-77.5 551.76,-44.38 491.64,-26.02 449.13,-17.46"/>
<polygon fill="#63b8ff" stroke="#63b8ff" points="449.92,-14.05 439.45,-15.64 448.62,-20.93 449.92,-14.05"/>
</a>
</g>
</g>
<!-- Node3 -->
<g id="Node000003" class="node">
<title>Node3</title>
<g id="a_Node000003"><a xlink:href="drivers_2include_2periph_2gpio_8h.html" target="_top" xlink:title="Low&#45;level GPIO peripheral driver interface definitions.">
<polygon fill="white" stroke="#666666" points="147,-77.5 67.25,-77.5 67.25,-56.75 147,-56.75 147,-77.5"/>
<text text-anchor="middle" x="107.12" y="-64" font-family="Helvetica,sans-Serif" font-size="10.00">periph/gpio.h</text>
</a>
</g>
</g>
<!-- Node1&#45;&gt;Node3 -->
<g id="edge2_Node000001_Node000003" class="edge">
<title>Node1&#45;&gt;Node3</title>
<g id="a_edge2_Node000001_Node000003"><a xlink:title=" ">
<path fill="none" stroke="#63b8ff" d="M253.21,-169.93C225.66,-150.73 163.97,-107.74 130.24,-84.23"/>
<polygon fill="#63b8ff" stroke="#63b8ff" points="132.57,-81.59 122.37,-78.75 128.57,-87.34 132.57,-81.59"/>
</a>
</g>
</g>
<!-- Node7 -->
<g id="Node000007" class="node">
<title>Node7</title>
<g id="a_Node000007"><a xlink:href="spi_8h.html" target="_top" xlink:title="Low&#45;level SPI peripheral driver interface definition.">
<polygon fill="white" stroke="#666666" points="303.62,-134.25 230.62,-134.25 230.62,-113.5 303.62,-113.5 303.62,-134.25"/>
<text text-anchor="middle" x="267.12" y="-120.75" font-family="Helvetica,sans-Serif" font-size="10.00">periph/spi.h</text>
</a>
</g>
</g>
<!-- Node1&#45;&gt;Node7 -->
<g id="edge6_Node000001_Node000007" class="edge">
<title>Node1&#45;&gt;Node7</title>
<g id="a_edge6_Node000001_Node000007"><a xlink:title=" ">
<path fill="none" stroke="#63b8ff" d="M267.12,-169.84C267.12,-163.22 267.12,-154.22 267.12,-146.02"/>
<polygon fill="#63b8ff" stroke="#63b8ff" points="270.63,-146.09 267.13,-136.09 263.63,-146.09 270.63,-146.09"/>
</a>
</g>
</g>
<!-- Node4 -->
<g id="Node000004" class="node">
<title>Node4</title>
<g id="a_Node000004"><a xlink:title=" ">
<polygon fill="#e0e0e0" stroke="#999999" points="149.5,-20.75 96.75,-20.75 96.75,0 149.5,0 149.5,-20.75"/>
<text text-anchor="middle" x="123.12" y="-7.25" font-family="Helvetica,sans-Serif" font-size="10.00">limits.h</text>
</a>
</g>
</g>
<!-- Node3&#45;&gt;Node4 -->
<g id="edge3_Node000003_Node000004" class="edge">
<title>Node3&#45;&gt;Node4</title>
<g id="a_edge3_Node000003_Node000004"><a xlink:title=" ">
<path fill="none" stroke="#63b8ff" d="M109.99,-56.34C111.96,-49.56 114.67,-40.3 117.12,-31.94"/>
<polygon fill="#63b8ff" stroke="#63b8ff" points="120.42,-33.11 119.86,-22.53 113.7,-31.15 120.42,-33.11"/>
</a>
</g>
</g>
<!-- Node5 -->
<g id="Node000005" class="node">
<title>Node5</title>
<g id="a_Node000005"><a xlink:title=" ">
<polygon fill="#e0e0e0" stroke="#999999" points="78.25,-20.75 0,-20.75 0,0 78.25,0 78.25,-20.75"/>
<text text-anchor="middle" x="39.12" y="-7.25" font-family="Helvetica,sans-Serif" font-size="10.00">periph_cpu.h</text>
</a>
</g>
</g>
<!-- Node3&#45;&gt;Node5 -->
<g id="edge4_Node000003_Node000005" class="edge">
<title>Node3&#45;&gt;Node5</title>
<g id="a_edge4_Node000003_Node000005"><a xlink:title=" ">
<path fill="none" stroke="#63b8ff" d="M94.97,-56.34C85.3,-48.55 71.54,-37.47 60.1,-28.26"/>
<polygon fill="#63b8ff" stroke="#63b8ff" points="62.34,-25.57 52.36,-22.03 57.95,-31.03 62.34,-25.57"/>
</a>
</g>
</g>
<!-- Node6 -->
<g id="Node000006" class="node">
<title>Node6</title>
<g id="a_Node000006"><a xlink:title=" ">
<polygon fill="#e0e0e0" stroke="#999999" points="268.75,-20.75 187.5,-20.75 187.5,0 268.75,0 268.75,-20.75"/>
<text text-anchor="middle" x="228.12" y="-7.25" font-family="Helvetica,sans-Serif" font-size="10.00">periph_conf.h</text>
</a>
</g>
</g>
<!-- Node3&#45;&gt;Node6 -->
<g id="edge5_Node000003_Node000006" class="edge">
<title>Node3&#45;&gt;Node6</title>
<g id="a_edge5_Node000003_Node000006"><a xlink:title=" ">
<path fill="none" stroke="#63b8ff" d="M128.76,-56.34C147.6,-47.81 175.16,-35.34 196.48,-25.69"/>
<polygon fill="#63b8ff" stroke="#63b8ff" points="197.63,-29.01 205.3,-21.7 194.75,-22.64 197.63,-29.01"/>
</a>
</g>
</g>
<!-- Node7&#45;&gt;Node2 -->
<g id="edge12_Node000007_Node000002" class="edge">
<title>Node7&#45;&gt;Node2</title>
<g id="a_edge12_Node000007_Node000002"><a xlink:title=" ">
<path fill="none" stroke="#63b8ff" d="M270.47,-113.04C275.76,-98.84 287.31,-72.59 305.12,-56.75 324.61,-39.42 351.72,-27.98 373.65,-20.92"/>
<polygon fill="#63b8ff" stroke="#63b8ff" points="374.56,-24.3 383.12,-18.05 372.54,-17.6 374.56,-24.3"/>
</a>
</g>
</g>
<!-- Node7&#45;&gt;Node3 -->
<g id="edge15_Node000007_Node000003" class="edge">
<title>Node7&#45;&gt;Node3</title>
<g id="a_edge15_Node000007_Node000003"><a xlink:title=" ">
<path fill="none" stroke="#63b8ff" d="M238.52,-113.09C212.89,-104.32 175.05,-91.37 146.56,-81.62"/>
<polygon fill="#63b8ff" stroke="#63b8ff" points="147.78,-78.34 137.18,-78.41 145.51,-84.96 147.78,-78.34"/>
</a>
</g>
</g>
<!-- Node7&#45;&gt;Node5 -->
<g id="edge13_Node000007_Node000005" class="edge">
<title>Node7&#45;&gt;Node5</title>
<g id="a_edge13_Node000007_Node000005"><a xlink:title=" ">
<path fill="none" stroke="#63b8ff" d="M230.14,-119.39C176.98,-113.64 82.66,-100.46 58.12,-77.5 45.73,-65.89 41.24,-46.78 39.7,-32.08"/>
<polygon fill="#63b8ff" stroke="#63b8ff" points="43.22,-32.3 39.09,-22.54 36.24,-32.75 43.22,-32.3"/>
</a>
</g>
</g>
<!-- Node7&#45;&gt;Node6 -->
<g id="edge14_Node000007_Node000006" class="edge">
<title>Node7&#45;&gt;Node6</title>
<g id="a_edge14_Node000007_Node000006"><a xlink:title=" ">
<path fill="none" stroke="#63b8ff" d="M263.8,-113.37C257.53,-95.44 243.82,-56.25 235.34,-32.01"/>
<polygon fill="#63b8ff" stroke="#63b8ff" points="238.66,-30.89 232.05,-22.6 232.05,-33.2 238.66,-30.89"/>
</a>
</g>
</g>
<!-- Node8 -->
<g id="Node000008" class="node">
<title>Node8</title>
<g id="a_Node000008"><a xlink:href="endian_8h.html" target="_top" xlink:title="libc header for endian conversion">
<polygon fill="white" stroke="#666666" points="440.12,-77.5 382.12,-77.5 382.12,-56.75 440.12,-56.75 440.12,-77.5"/>
<text text-anchor="middle" x="411.12" y="-64" font-family="Helvetica,sans-Serif" font-size="10.00">endian.h</text>
</a>
</g>
</g>
<!-- Node7&#45;&gt;Node8 -->
<g id="edge7_Node000007_Node000008" class="edge">
<title>Node7&#45;&gt;Node8</title>
<g id="a_edge7_Node000007_Node000008"><a xlink:title=" ">
<path fill="none" stroke="#63b8ff" d="M292.87,-113.09C315.7,-104.41 349.3,-91.63 374.85,-81.92"/>
<polygon fill="#63b8ff" stroke="#63b8ff" points="376.09,-85.19 384.19,-78.37 373.6,-78.65 376.09,-85.19"/>
</a>
</g>
</g>
<!-- Node9 -->
<g id="Node000009" class="node">
<title>Node9</title>
<g id="a_Node000009"><a xlink:href="errno_8h.html" target="_top" xlink:title=" ">
<polygon fill="white" stroke="#666666" points="364.38,-77.5 313.88,-77.5 313.88,-56.75 364.38,-56.75 364.38,-77.5"/>
<text text-anchor="middle" x="339.12" y="-64" font-family="Helvetica,sans-Serif" font-size="10.00">errno.h</text>
</a>
</g>
</g>
<!-- Node7&#45;&gt;Node9 -->
<g id="edge9_Node000007_Node000009" class="edge">
<title>Node7&#45;&gt;Node9</title>
<g id="a_edge9_Node000007_Node000009"><a xlink:title=" ">
<path fill="none" stroke="#63b8ff" d="M280,-113.09C290.34,-105.22 305.09,-94 317.28,-84.74"/>
<polygon fill="#63b8ff" stroke="#63b8ff" points="319.32,-87.58 325.16,-78.74 315.08,-82.01 319.32,-87.58"/>
</a>
</g>
</g>
<!-- Node10 -->
<g id="Node000010" class="node">
<title>Node10</title>
<g id="a_Node000010"><a xlink:title=" ">
<polygon fill="#e0e0e0" stroke="#999999" points="519.62,-77.5 458.62,-77.5 458.62,-56.75 519.62,-56.75 519.62,-77.5"/>
<text text-anchor="middle" x="489.12" y="-64" font-family="Helvetica,sans-Serif" font-size="10.00">stdbool.h</text>
</a>
</g>
</g>
<!-- Node7&#45;&gt;Node10 -->
<g id="edge10_Node000007_Node000010" class="edge">
<title>Node7&#45;&gt;Node10</title>
<g id="a_edge10_Node000007_Node000010"><a xlink:title=" ">
<path fill="none" stroke="#63b8ff" d="M304.03,-113.77C343.48,-104.04 405.89,-88.65 447.18,-78.47"/>
<polygon fill="#63b8ff" stroke="#63b8ff" points="447.88,-81.9 456.75,-76.11 446.2,-75.11 447.88,-81.9"/>
</a>
</g>
</g>
<!-- Node11 -->
<g id="Node000011" class="node">
<title>Node11</title>
<g id="a_Node000011"><a xlink:title=" ">
<polygon fill="#e0e0e0" stroke="#999999" points="219.62,-77.5 164.62,-77.5 164.62,-56.75 219.62,-56.75 219.62,-77.5"/>
<text text-anchor="middle" x="192.12" y="-64" font-family="Helvetica,sans-Serif" font-size="10.00">stddef.h</text>
</a>
</g>
</g>
<!-- Node7&#45;&gt;Node11 -->
<g id="edge11_Node000007_Node000011" class="edge">
<title>Node7&#45;&gt;Node11</title>
<g id="a_edge11_Node000007_Node000011"><a xlink:title=" ">
<path fill="none" stroke="#63b8ff" d="M253.72,-113.09C242.84,-105.15 227.27,-93.78 214.51,-84.46"/>
<polygon fill="#63b8ff" stroke="#63b8ff" points="216.78,-81.79 206.64,-78.72 212.65,-87.44 216.78,-81.79"/>
</a>
</g>
</g>
<!-- Node8&#45;&gt;Node2 -->
<g id="edge8_Node000008_Node000002" class="edge">
<title>Node8&#45;&gt;Node2</title>
<g id="a_edge8_Node000008_Node000002"><a xlink:title=" ">
<path fill="none" stroke="#63b8ff" d="M411.12,-56.34C411.12,-49.72 411.12,-40.72 411.12,-32.52"/>
<polygon fill="#63b8ff" stroke="#63b8ff" points="414.63,-32.59 411.13,-22.59 407.63,-32.59 414.63,-32.59"/>
</a>
</g>
</g>
</g>
</svg>
