<?xml version="1.0" encoding="UTF-8" standalone="no"?>
<!DOCTYPE svg PUBLIC "-//W3C//DTD SVG 1.1//EN"
 "http://www.w3.org/Graphics/SVG/1.1/DTD/svg11.dtd">
<!-- Generated by graphviz version 12.1.1 (0)
 -->
<!-- Title: cpu/esp32/include/periph_cpu_esp32c3.h Pages: 1 -->
<svg width="266pt" height="155pt"
 viewBox="0.00 0.00 265.62 155.00" xmlns="http://www.w3.org/2000/svg" xmlns:xlink="http://www.w3.org/1999/xlink">
<g id="graph0" class="graph" transform="scale(1 1) rotate(0) translate(4 151)">
<title>cpu/esp32/include/periph_cpu_esp32c3.h</title>
<!-- Node1 -->
<g id="Node000001" class="node">
<title>Node1</title>
<g id="a_Node000001"><a xlink:title="ESP32&#45;C3 specific peripheral configuration.">
<polygon fill="#999999" stroke="#666666" points="182.75,-147 45.25,-147 45.25,-113.5 182.75,-113.5 182.75,-147"/>
<text text-anchor="start" x="53.25" y="-133.5" font-family="Helvetica,sans-Serif" font-size="10.00">cpu/esp32/include/periph</text>
<text text-anchor="middle" x="114" y="-120.75" font-family="Helvetica,sans-Serif" font-size="10.00">_cpu_esp32c3.h</text>
</a>
</g>
</g>
<!-- Node2 -->
<g id="Node000002" class="node">
<title>Node2</title>
<g id="a_Node000002"><a xlink:href="cpu_2esp32_2include_2sdkconfig_8h.html" target="_top" xlink:title="SDK configuration used by ESP&#45;IDF for all ESP32x SoC variants (families)">
<polygon fill="white" stroke="#666666" points="150.12,-77.5 77.88,-77.5 77.88,-56.75 150.12,-56.75 150.12,-77.5"/>
<text text-anchor="middle" x="114" y="-64" font-family="Helvetica,sans-Serif" font-size="10.00">sdkconfig.h</text>
</a>
</g>
</g>
<!-- Node1&#45;&gt;Node2 -->
<g id="edge1_Node000001_Node000002" class="edge">
<title>Node1&#45;&gt;Node2</title>
<g id="a_edge1_Node000001_Node000002"><a xlink:title=" ">
<path fill="none" stroke="#63b8ff" d="M114,-113.19C114,-105.85 114,-97.07 114,-89.21"/>
<polygon fill="#63b8ff" stroke="#63b8ff" points="117.5,-89.48 114,-79.48 110.5,-89.48 117.5,-89.48"/>
</a>
</g>
</g>
<!-- Node3 -->
<g id="Node000003" class="node">
<title>Node3</title>
<g id="a_Node000003"><a xlink:title=" ">
<polygon fill="#e0e0e0" stroke="#999999" points="52,-20.75 0,-20.75 0,0 52,0 52,-20.75"/>
<text text-anchor="middle" x="26" y="-7.25" font-family="Helvetica,sans-Serif" font-size="10.00">stdlib.h</text>
</a>
</g>
</g>
<!-- Node2&#45;&gt;Node3 -->
<g id="edge2_Node000002_Node000003" class="edge">
<title>Node2&#45;&gt;Node3</title>
<g id="a_edge2_Node000002_Node000003"><a xlink:title=" ">
<path fill="none" stroke="#63b8ff" d="M98.27,-56.34C85.13,-48.16 66.16,-36.36 50.95,-26.9"/>
<polygon fill="#63b8ff" stroke="#63b8ff" points="53.22,-24.19 42.88,-21.88 49.52,-30.13 53.22,-24.19"/>
</a>
</g>
</g>
<!-- Node4 -->
<g id="Node000004" class="node">
<title>Node4</title>
<g id="a_Node000004"><a xlink:title=" ">
<polygon fill="#e0e0e0" stroke="#999999" points="158.38,-20.75 69.62,-20.75 69.62,0 158.38,0 158.38,-20.75"/>
<text text-anchor="middle" x="114" y="-7.25" font-family="Helvetica,sans-Serif" font-size="10.00">soc/soc_caps.h</text>
</a>
</g>
</g>
<!-- Node2&#45;&gt;Node4 -->
<g id="edge3_Node000002_Node000004" class="edge">
<title>Node2&#45;&gt;Node4</title>
<g id="a_edge3_Node000002_Node000004"><a xlink:title=" ">
<path fill="none" stroke="#63b8ff" d="M114,-56.34C114,-49.72 114,-40.72 114,-32.52"/>
<polygon fill="#63b8ff" stroke="#63b8ff" points="117.5,-32.59 114,-22.59 110.5,-32.59 117.5,-32.59"/>
</a>
</g>
</g>
<!-- Node5 -->
<g id="Node000005" class="node">
<title>Node5</title>
<g id="a_Node000005"><a xlink:title=" ">
<polygon fill="#e0e0e0" stroke="#999999" points="257.62,-20.75 176.38,-20.75 176.38,0 257.62,0 257.62,-20.75"/>
<text text-anchor="middle" x="217" y="-7.25" font-family="Helvetica,sans-Serif" font-size="10.00">esp_idf_ver.h</text>
</a>
</g>
</g>
<!-- Node2&#45;&gt;Node5 -->
<g id="edge4_Node000002_Node000005" class="edge">
<title>Node2&#45;&gt;Node5</title>
<g id="a_edge4_Node000002_Node000005"><a xlink:title=" ">
<path fill="none" stroke="#63b8ff" d="M132.41,-56.34C148.09,-48.01 170.85,-35.91 188.81,-26.36"/>
<polygon fill="#63b8ff" stroke="#63b8ff" points="190.22,-29.57 197.41,-21.79 186.94,-23.39 190.22,-29.57"/>
</a>
</g>
</g>
</g>
</svg>
