<?xml version="1.0" encoding="UTF-8" standalone="no"?>
<!DOCTYPE svg PUBLIC "-//W3C//DTD SVG 1.1//EN"
 "http://www.w3.org/Graphics/SVG/1.1/DTD/svg11.dtd">
<!-- Generated by graphviz version 12.1.1 (0)
 -->
<!-- Title: sys/net/gnrc/pktbuf/include/pktbuf_internal.h Pages: 1 -->
<svg width="1064pt" height="496pt"
 viewBox="0.00 0.00 1063.87 495.50" xmlns="http://www.w3.org/2000/svg" xmlns:xlink="http://www.w3.org/1999/xlink">
<g id="graph0" class="graph" transform="scale(1 1) rotate(0) translate(4 491.5)">
<title>sys/net/gnrc/pktbuf/include/pktbuf_internal.h</title>
<!-- Node1 -->
<g id="Node000001" class="node">
<title>Node1</title>
<g id="a_Node000001"><a xlink:title="Internal stuff for gnrc_pktbuf.">
<polygon fill="#999999" stroke="#666666" points="290.25,-487.5 149.75,-487.5 149.75,-454 290.25,-454 290.25,-487.5"/>
<text text-anchor="start" x="157.75" y="-474" font-family="Helvetica,sans-Serif" font-size="10.00">sys/net/gnrc/pktbuf</text>
<text text-anchor="middle" x="220" y="-461.25" font-family="Helvetica,sans-Serif" font-size="10.00">/include/pktbuf_internal.h</text>
</a>
</g>
</g>
<!-- Node2 -->
<g id="Node000002" class="node">
<title>Node2</title>
<g id="a_Node000002"><a xlink:title=" ">
<polygon fill="#e0e0e0" stroke="#999999" points="116.5,-134.25 55.5,-134.25 55.5,-113.5 116.5,-113.5 116.5,-134.25"/>
<text text-anchor="middle" x="86" y="-120.75" font-family="Helvetica,sans-Serif" font-size="10.00">stdbool.h</text>
</a>
</g>
</g>
<!-- Node1&#45;&gt;Node2 -->
<g id="edge1_Node000001_Node000002" class="edge">
<title>Node1&#45;&gt;Node2</title>
<g id="a_edge1_Node000001_Node000002"><a xlink:title=" ">
<path fill="none" stroke="#63b8ff" d="M192.65,-453.63C163.23,-434.95 117.04,-401.52 90,-361.25 42.52,-290.52 54.29,-253.13 74,-170.25 75.93,-162.13 78.24,-153.25 80.31,-145.52"/>
<polygon fill="#63b8ff" stroke="#63b8ff" points="83.64,-146.6 82.89,-136.04 76.88,-144.77 83.64,-146.6"/>
</a>
</g>
</g>
<!-- Node3 -->
<g id="Node000003" class="node">
<title>Node3</title>
<g id="a_Node000003"><a xlink:title=" ">
<polygon fill="#e0e0e0" stroke="#999999" points="318,-418 266,-418 266,-397.25 318,-397.25 318,-418"/>
<text text-anchor="middle" x="292" y="-404.5" font-family="Helvetica,sans-Serif" font-size="10.00">stdlib.h</text>
</a>
</g>
</g>
<!-- Node1&#45;&gt;Node3 -->
<g id="edge2_Node000001_Node000003" class="edge">
<title>Node1&#45;&gt;Node3</title>
<g id="a_edge2_Node000001_Node000003"><a xlink:title=" ">
<path fill="none" stroke="#63b8ff" d="M238.92,-453.69C249,-445.13 261.4,-434.6 271.69,-425.87"/>
<polygon fill="#63b8ff" stroke="#63b8ff" points="273.89,-428.59 279.25,-419.45 269.36,-423.25 273.89,-428.59"/>
</a>
</g>
</g>
<!-- Node4 -->
<g id="Node000004" class="node">
<title>Node4</title>
<g id="a_Node000004"><a xlink:href="mutex_8h.html" target="_top" xlink:title="Mutex for thread synchronization.">
<polygon fill="white" stroke="#666666" points="248.25,-418 191.75,-418 191.75,-397.25 248.25,-397.25 248.25,-418"/>
<text text-anchor="middle" x="220" y="-404.5" font-family="Helvetica,sans-Serif" font-size="10.00">mutex.h</text>
</a>
</g>
</g>
<!-- Node1&#45;&gt;Node4 -->
<g id="edge3_Node000001_Node000004" class="edge">
<title>Node1&#45;&gt;Node4</title>
<g id="a_edge3_Node000001_Node000004"><a xlink:title=" ">
<path fill="none" stroke="#63b8ff" d="M220,-453.69C220,-446.35 220,-437.57 220,-429.71"/>
<polygon fill="#63b8ff" stroke="#63b8ff" points="223.5,-429.98 220,-419.98 216.5,-429.98 223.5,-429.98"/>
</a>
</g>
</g>
<!-- Node4&#45;&gt;Node2 -->
<g id="edge6_Node000004_Node000002" class="edge">
<title>Node4&#45;&gt;Node2</title>
<g id="a_edge6_Node000004_Node000002"><a xlink:title=" ">
<path fill="none" stroke="#63b8ff" d="M191.55,-398.71C149.58,-385.1 76,-352.99 76,-295.12 76,-295.12 76,-295.12 76,-236.38 76,-204.71 80.05,-168.19 83,-145.82"/>
<polygon fill="#63b8ff" stroke="#63b8ff" points="86.42,-146.58 84.32,-136.19 79.49,-145.62 86.42,-146.58"/>
</a>
</g>
</g>
<!-- Node5 -->
<g id="Node000005" class="node">
<title>Node5</title>
<g id="a_Node000005"><a xlink:title=" ">
<polygon fill="#e0e0e0" stroke="#999999" points="332.5,-77.5 277.5,-77.5 277.5,-56.75 332.5,-56.75 332.5,-77.5"/>
<text text-anchor="middle" x="305" y="-64" font-family="Helvetica,sans-Serif" font-size="10.00">stddef.h</text>
</a>
</g>
</g>
<!-- Node4&#45;&gt;Node5 -->
<g id="edge4_Node000004_Node000005" class="edge">
<title>Node4&#45;&gt;Node5</title>
<g id="a_edge4_Node000004_Node000005"><a xlink:title=" ">
<path fill="none" stroke="#63b8ff" d="M191.31,-401.76C163.3,-395.89 120.55,-383.86 90,-361.25 35.59,-320.98 0,-306.07 0,-238.38 0,-238.38 0,-238.38 0,-179.62 0,-143.82 15.82,-132.77 46,-113.5 81.86,-90.61 202.81,-76.99 265.93,-71.29"/>
<polygon fill="#63b8ff" stroke="#63b8ff" points="265.84,-74.81 275.5,-70.44 265.23,-67.83 265.84,-74.81"/>
</a>
</g>
</g>
<!-- Node6 -->
<g id="Node000006" class="node">
<title>Node6</title>
<g id="a_Node000006"><a xlink:title=" ">
<polygon fill="#e0e0e0" stroke="#999999" points="717.38,-20.75 664.62,-20.75 664.62,0 717.38,0 717.38,-20.75"/>
<text text-anchor="middle" x="691" y="-7.25" font-family="Helvetica,sans-Serif" font-size="10.00">stdint.h</text>
</a>
</g>
</g>
<!-- Node4&#45;&gt;Node6 -->
<g id="edge5_Node000004_Node000006" class="edge">
<title>Node4&#45;&gt;Node6</title>
<g id="a_edge5_Node000004_Node000006"><a xlink:title=" ">
<path fill="none" stroke="#63b8ff" d="M248.63,-399.15C251.45,-398.48 254.28,-397.83 257,-397.25 384.31,-369.89 834,-425.34 834,-295.12 834,-295.12 834,-295.12 834,-122.88 834,-69.27 770.73,-37.64 728.36,-22.48"/>
<polygon fill="#63b8ff" stroke="#63b8ff" points="729.59,-19.2 718.99,-19.29 727.33,-25.82 729.59,-19.2"/>
</a>
</g>
</g>
<!-- Node7 -->
<g id="Node000007" class="node">
<title>Node7</title>
<g id="a_Node000007"><a xlink:href="architecture_8h.html" target="_top" xlink:title="Platform&#45;independent access to architecture details.">
<polygon fill="white" stroke="#666666" points="945.75,-247.75 862.25,-247.75 862.25,-227 945.75,-227 945.75,-247.75"/>
<text text-anchor="middle" x="904" y="-234.25" font-family="Helvetica,sans-Serif" font-size="10.00">architecture.h</text>
</a>
</g>
</g>
<!-- Node4&#45;&gt;Node7 -->
<g id="edge7_Node000004_Node000007" class="edge">
<title>Node4&#45;&gt;Node7</title>
<g id="a_edge7_Node000004_Node000007"><a xlink:title=" ">
<path fill="none" stroke="#63b8ff" d="M248.57,-398.82C251.41,-398.22 254.25,-397.68 257,-397.25 322,-387.13 793.78,-398.51 848,-361.25 882.34,-337.66 895.99,-287.61 901.12,-259.21"/>
<polygon fill="#63b8ff" stroke="#63b8ff" points="904.53,-260.09 902.65,-249.67 897.61,-258.99 904.53,-260.09"/>
</a>
</g>
</g>
<!-- Node11 -->
<g id="Node000011" class="node">
<title>Node11</title>
<g id="a_Node000011"><a xlink:href="kernel__defines_8h.html" target="_top" xlink:title="Common macros and compiler attributes/pragmas configuration.">
<polygon fill="white" stroke="#666666" points="604.12,-191 507.88,-191 507.88,-170.25 604.12,-170.25 604.12,-191"/>
<text text-anchor="middle" x="556" y="-177.5" font-family="Helvetica,sans-Serif" font-size="10.00">kernel_defines.h</text>
</a>
</g>
</g>
<!-- Node4&#45;&gt;Node11 -->
<g id="edge12_Node000004_Node000011" class="edge">
<title>Node4&#45;&gt;Node11</title>
<g id="a_edge12_Node000004_Node000011"><a xlink:title=" ">
<path fill="none" stroke="#63b8ff" d="M248.69,-399.19C312.67,-382.16 464.51,-339.14 504,-304.5 534.52,-277.73 547.62,-230.03 552.85,-202.6"/>
<polygon fill="#63b8ff" stroke="#63b8ff" points="556.3,-203.19 554.53,-192.75 549.4,-202.02 556.3,-203.19"/>
</a>
</g>
</g>
<!-- Node17 -->
<g id="Node000017" class="node">
<title>Node17</title>
<g id="a_Node000017"><a xlink:href="list_8h.html" target="_top" xlink:title="Intrusive linked list.">
<polygon fill="white" stroke="#666666" points="221,-134.25 181,-134.25 181,-113.5 221,-113.5 221,-134.25"/>
<text text-anchor="middle" x="201" y="-120.75" font-family="Helvetica,sans-Serif" font-size="10.00">list.h</text>
</a>
</g>
</g>
<!-- Node4&#45;&gt;Node17 -->
<g id="edge23_Node000004_Node000017" class="edge">
<title>Node4&#45;&gt;Node17</title>
<g id="a_edge23_Node000004_Node000017"><a xlink:title=" ">
<path fill="none" stroke="#63b8ff" d="M199.56,-396.79C168.76,-380.37 114,-344.27 114,-295.12 114,-295.12 114,-295.12 114,-236.38 114,-195.44 150.89,-160.54 176.63,-141.17"/>
<polygon fill="#63b8ff" stroke="#63b8ff" points="178.55,-144.1 184.62,-135.41 174.46,-138.42 178.55,-144.1"/>
</a>
</g>
</g>
<!-- Node18 -->
<g id="Node000018" class="node">
<title>Node18</title>
<g id="a_Node000018"><a xlink:href="core_2include_2thread_8h.html" target="_top" xlink:title="Threading API.">
<polygon fill="white" stroke="#666666" points="354.25,-361.25 297.75,-361.25 297.75,-340.5 354.25,-340.5 354.25,-361.25"/>
<text text-anchor="middle" x="326" y="-347.75" font-family="Helvetica,sans-Serif" font-size="10.00">thread.h</text>
</a>
</g>
</g>
<!-- Node4&#45;&gt;Node18 -->
<g id="edge24_Node000004_Node000018" class="edge">
<title>Node4&#45;&gt;Node18</title>
<g id="a_edge24_Node000004_Node000018"><a xlink:title=" ">
<path fill="none" stroke="#63b8ff" d="M238.95,-396.84C255.08,-388.51 278.5,-376.41 296.99,-366.86"/>
<polygon fill="#63b8ff" stroke="#63b8ff" points="298.59,-369.97 305.87,-362.27 295.38,-363.75 298.59,-369.97"/>
</a>
</g>
</g>
<!-- Node7&#45;&gt;Node6 -->
<g id="edge8_Node000007_Node000006" class="edge">
<title>Node7&#45;&gt;Node6</title>
<g id="a_edge8_Node000007_Node000006"><a xlink:title=" ">
<path fill="none" stroke="#63b8ff" d="M945.84,-233.44C997.54,-227.97 1075.85,-212.61 1051,-170.25 982.94,-54.23 806.62,-22.69 728.83,-14.32"/>
<polygon fill="#63b8ff" stroke="#63b8ff" points="729.46,-10.86 719.16,-13.35 728.76,-17.83 729.46,-10.86"/>
</a>
</g>
</g>
<!-- Node8 -->
<g id="Node000008" class="node">
<title>Node8</title>
<g id="a_Node000008"><a xlink:href="inttypes_8h.html" target="_top" xlink:title="Adds include for missing inttype definitions.">
<polygon fill="white" stroke="#666666" points="728.38,-191 663.62,-191 663.62,-170.25 728.38,-170.25 728.38,-191"/>
<text text-anchor="middle" x="696" y="-177.5" font-family="Helvetica,sans-Serif" font-size="10.00">inttypes.h</text>
</a>
</g>
</g>
<!-- Node7&#45;&gt;Node8 -->
<g id="edge9_Node000007_Node000008" class="edge">
<title>Node7&#45;&gt;Node8</title>
<g id="a_edge9_Node000007_Node000008"><a xlink:title=" ">
<path fill="none" stroke="#63b8ff" d="M866.81,-226.59C831.08,-217.18 777.09,-202.97 739.41,-193.05"/>
<polygon fill="#63b8ff" stroke="#63b8ff" points="740.78,-189.79 730.22,-190.63 739,-196.56 740.78,-189.79"/>
</a>
</g>
</g>
<!-- Node9 -->
<g id="Node000009" class="node">
<title>Node9</title>
<g id="a_Node000009"><a xlink:title=" ">
<polygon fill="#e0e0e0" stroke="#999999" points="914.38,-191 861.62,-191 861.62,-170.25 914.38,-170.25 914.38,-191"/>
<text text-anchor="middle" x="888" y="-177.5" font-family="Helvetica,sans-Serif" font-size="10.00">limits.h</text>
</a>
</g>
</g>
<!-- Node7&#45;&gt;Node9 -->
<g id="edge10_Node000007_Node000009" class="edge">
<title>Node7&#45;&gt;Node9</title>
<g id="a_edge10_Node000007_Node000009"><a xlink:title=" ">
<path fill="none" stroke="#63b8ff" d="M901.14,-226.59C899.16,-219.81 896.45,-210.55 894.01,-202.19"/>
<polygon fill="#63b8ff" stroke="#63b8ff" points="897.42,-201.4 891.26,-192.78 890.71,-203.36 897.42,-201.4"/>
</a>
</g>
</g>
<!-- Node10 -->
<g id="Node000010" class="node">
<title>Node10</title>
<g id="a_Node000010"><a xlink:title=" ">
<polygon fill="#e0e0e0" stroke="#999999" points="1041.88,-191 932.12,-191 932.12,-170.25 1041.88,-170.25 1041.88,-191"/>
<text text-anchor="middle" x="987" y="-177.5" font-family="Helvetica,sans-Serif" font-size="10.00">architecture_arch.h</text>
</a>
</g>
</g>
<!-- Node7&#45;&gt;Node10 -->
<g id="edge11_Node000007_Node000010" class="edge">
<title>Node7&#45;&gt;Node10</title>
<g id="a_edge11_Node000007_Node000010"><a xlink:title=" ">
<path fill="none" stroke="#63b8ff" d="M918.84,-226.59C931.11,-218.49 948.79,-206.83 963.06,-197.42"/>
<polygon fill="#63b8ff" stroke="#63b8ff" points="964.61,-200.59 971.03,-192.16 960.75,-194.75 964.61,-200.59"/>
</a>
</g>
</g>
<!-- Node12 -->
<g id="Node000012" class="node">
<title>Node12</title>
<g id="a_Node000012"><a xlink:href="modules_8h.html" target="_top" xlink:title="Common macros and compiler attributes/pragmas configuration.">
<polygon fill="white" stroke="#666666" points="652.5,-134.25 585.5,-134.25 585.5,-113.5 652.5,-113.5 652.5,-134.25"/>
<text text-anchor="middle" x="619" y="-120.75" font-family="Helvetica,sans-Serif" font-size="10.00">modules.h</text>
</a>
</g>
</g>
<!-- Node11&#45;&gt;Node12 -->
<g id="edge13_Node000011_Node000012" class="edge">
<title>Node11&#45;&gt;Node12</title>
<g id="a_edge13_Node000011_Node000012"><a xlink:title=" ">
<path fill="none" stroke="#63b8ff" d="M567.26,-169.84C576.13,-162.13 588.71,-151.2 599.25,-142.04"/>
<polygon fill="#63b8ff" stroke="#63b8ff" points="601.44,-144.77 606.69,-135.57 596.85,-139.49 601.44,-144.77"/>
</a>
</g>
</g>
<!-- Node13 -->
<g id="Node000013" class="node">
<title>Node13</title>
<g id="a_Node000013"><a xlink:href="riot__version_8h.html" target="_top" xlink:title="Common macros and compiler attributes/pragmas configuration.">
<polygon fill="white" stroke="#666666" points="648.38,-77.5 565.62,-77.5 565.62,-56.75 648.38,-56.75 648.38,-77.5"/>
<text text-anchor="middle" x="607" y="-64" font-family="Helvetica,sans-Serif" font-size="10.00">riot_version.h</text>
</a>
</g>
</g>
<!-- Node11&#45;&gt;Node13 -->
<g id="edge14_Node000011_Node000013" class="edge">
<title>Node11&#45;&gt;Node13</title>
<g id="a_edge14_Node000011_Node000013"><a xlink:title=" ">
<path fill="none" stroke="#63b8ff" d="M557.97,-169.87C560.85,-156.65 566.88,-132.54 576,-113.5 580.46,-104.18 586.69,-94.63 592.4,-86.71"/>
<polygon fill="#63b8ff" stroke="#63b8ff" points="595.06,-88.99 598.27,-78.89 589.47,-84.79 595.06,-88.99"/>
</a>
</g>
</g>
<!-- Node14 -->
<g id="Node000014" class="node">
<title>Node14</title>
<g id="a_Node000014"><a xlink:href="compiler__hints_8h.html" target="_top" xlink:title="Common macros and compiler attributes/pragmas configuration.">
<polygon fill="white" stroke="#666666" points="767.5,-134.25 670.5,-134.25 670.5,-113.5 767.5,-113.5 767.5,-134.25"/>
<text text-anchor="middle" x="719" y="-120.75" font-family="Helvetica,sans-Serif" font-size="10.00">compiler_hints.h</text>
</a>
</g>
</g>
<!-- Node11&#45;&gt;Node14 -->
<g id="edge16_Node000011_Node000014" class="edge">
<title>Node11&#45;&gt;Node14</title>
<g id="a_edge16_Node000011_Node000014"><a xlink:title=" ">
<path fill="none" stroke="#63b8ff" d="M585.14,-169.84C611.37,-161.03 650.14,-148 679.21,-138.24"/>
<polygon fill="#63b8ff" stroke="#63b8ff" points="680.04,-141.65 688.4,-135.15 677.81,-135.02 680.04,-141.65"/>
</a>
</g>
</g>
<!-- Node16 -->
<g id="Node000016" class="node">
<title>Node16</title>
<g id="a_Node000016"><a xlink:href="container_8h.html" target="_top" xlink:title="Common macros and compiler attributes/pragmas configuration.">
<polygon fill="white" stroke="#666666" points="529.38,-134.25 458.62,-134.25 458.62,-113.5 529.38,-113.5 529.38,-134.25"/>
<text text-anchor="middle" x="494" y="-120.75" font-family="Helvetica,sans-Serif" font-size="10.00">container.h</text>
</a>
</g>
</g>
<!-- Node11&#45;&gt;Node16 -->
<g id="edge20_Node000011_Node000016" class="edge">
<title>Node11&#45;&gt;Node16</title>
<g id="a_edge20_Node000011_Node000016"><a xlink:title=" ">
<path fill="none" stroke="#63b8ff" d="M544.92,-169.84C536.19,-162.13 523.81,-151.2 513.44,-142.04"/>
<polygon fill="#63b8ff" stroke="#63b8ff" points="515.94,-139.58 506.12,-135.58 511.3,-144.82 515.94,-139.58"/>
</a>
</g>
</g>
<!-- Node13&#45;&gt;Node6 -->
<g id="edge15_Node000013_Node000006" class="edge">
<title>Node13&#45;&gt;Node6</title>
<g id="a_edge15_Node000013_Node000006"><a xlink:title=" ">
<path fill="none" stroke="#63b8ff" d="M622.02,-56.34C634.44,-48.24 652.32,-36.58 666.77,-27.17"/>
<polygon fill="#63b8ff" stroke="#63b8ff" points="668.38,-30.3 674.84,-21.9 664.56,-24.43 668.38,-30.3"/>
</a>
</g>
</g>
<!-- Node14&#45;&gt;Node6 -->
<g id="edge19_Node000014_Node000006" class="edge">
<title>Node14&#45;&gt;Node6</title>
<g id="a_edge19_Node000014_Node000006"><a xlink:title=" ">
<path fill="none" stroke="#63b8ff" d="M716.61,-113.37C712.13,-95.52 702.36,-56.61 696.27,-32.34"/>
<polygon fill="#63b8ff" stroke="#63b8ff" points="699.66,-31.49 693.83,-22.64 692.87,-33.19 699.66,-31.49"/>
</a>
</g>
</g>
<!-- Node15 -->
<g id="Node000015" class="node">
<title>Node15</title>
<g id="a_Node000015"><a xlink:href="assert_8h.html" target="_top" xlink:title="POSIX.1&#45;2008 compliant version of the assert macro.">
<polygon fill="white" stroke="#666666" points="774.5,-77.5 719.5,-77.5 719.5,-56.75 774.5,-56.75 774.5,-77.5"/>
<text text-anchor="middle" x="747" y="-64" font-family="Helvetica,sans-Serif" font-size="10.00">assert.h</text>
</a>
</g>
</g>
<!-- Node14&#45;&gt;Node15 -->
<g id="edge17_Node000014_Node000015" class="edge">
<title>Node14&#45;&gt;Node15</title>
<g id="a_edge17_Node000014_Node000015"><a xlink:title=" ">
<path fill="none" stroke="#63b8ff" d="M724.01,-113.09C727.59,-106.08 732.54,-96.41 736.92,-87.83"/>
<polygon fill="#63b8ff" stroke="#63b8ff" points="739.91,-89.67 741.35,-79.18 733.68,-86.49 739.91,-89.67"/>
</a>
</g>
</g>
<!-- Node15&#45;&gt;Node6 -->
<g id="edge18_Node000015_Node000006" class="edge">
<title>Node15&#45;&gt;Node6</title>
<g id="a_edge18_Node000015_Node000006"><a xlink:title=" ">
<path fill="none" stroke="#63b8ff" d="M736.99,-56.34C729.26,-48.78 718.37,-38.14 709.13,-29.1"/>
<polygon fill="#63b8ff" stroke="#63b8ff" points="711.6,-26.62 702.01,-22.14 706.71,-31.63 711.6,-26.62"/>
</a>
</g>
</g>
<!-- Node16&#45;&gt;Node5 -->
<g id="edge21_Node000016_Node000005" class="edge">
<title>Node16&#45;&gt;Node5</title>
<g id="a_edge21_Node000016_Node000005"><a xlink:title=" ">
<path fill="none" stroke="#63b8ff" d="M460.21,-113.09C427.59,-103.64 378.22,-89.34 343.96,-79.41"/>
<polygon fill="#63b8ff" stroke="#63b8ff" points="344.99,-76.07 334.41,-76.65 343.05,-82.79 344.99,-76.07"/>
</a>
</g>
</g>
<!-- Node16&#45;&gt;Node6 -->
<g id="edge22_Node000016_Node000006" class="edge">
<title>Node16&#45;&gt;Node6</title>
<g id="a_edge22_Node000016_Node000006"><a xlink:title=" ">
<path fill="none" stroke="#63b8ff" d="M500.65,-113.39C511.09,-99.15 532.67,-72.28 557,-56.75 586.66,-37.82 625.09,-25.87 653.18,-19.01"/>
<polygon fill="#63b8ff" stroke="#63b8ff" points="653.73,-22.48 662.68,-16.8 652.15,-15.66 653.73,-22.48"/>
</a>
</g>
</g>
<!-- Node19 -->
<g id="Node000019" class="node">
<title>Node19</title>
<g id="a_Node000019"><a xlink:href="clist_8h.html" target="_top" xlink:title="Circular linked list.">
<polygon fill="white" stroke="#666666" points="257.62,-191 212.38,-191 212.38,-170.25 257.62,-170.25 257.62,-191"/>
<text text-anchor="middle" x="235" y="-177.5" font-family="Helvetica,sans-Serif" font-size="10.00">clist.h</text>
</a>
</g>
</g>
<!-- Node18&#45;&gt;Node19 -->
<g id="edge25_Node000018_Node000019" class="edge">
<title>Node18&#45;&gt;Node19</title>
<g id="a_edge25_Node000018_Node000019"><a xlink:title=" ">
<path fill="none" stroke="#63b8ff" d="M311.23,-340.17C288.56,-324.18 246.51,-289.84 234,-247.75 229.64,-233.07 230.09,-215.74 231.53,-202.5"/>
<polygon fill="#63b8ff" stroke="#63b8ff" points="234.97,-203.17 232.87,-192.79 228.04,-202.21 234.97,-203.17"/>
</a>
</g>
</g>
<!-- Node20 -->
<g id="Node000020" class="node">
<title>Node20</title>
<g id="a_Node000020"><a xlink:href="cib_8h.html" target="_top" xlink:title="Circular integer buffer interface.">
<polygon fill="white" stroke="#666666" points="526.62,-247.75 487.38,-247.75 487.38,-227 526.62,-227 526.62,-247.75"/>
<text text-anchor="middle" x="507" y="-234.25" font-family="Helvetica,sans-Serif" font-size="10.00">cib.h</text>
</a>
</g>
</g>
<!-- Node18&#45;&gt;Node20 -->
<g id="edge29_Node000018_Node000020" class="edge">
<title>Node18&#45;&gt;Node20</title>
<g id="a_edge29_Node000018_Node000020"><a xlink:title=" ">
<path fill="none" stroke="#63b8ff" d="M354.71,-349.15C389.42,-346.75 447.57,-337.64 483,-304.5 495.68,-292.64 501.68,-273.55 504.51,-258.93"/>
<polygon fill="#63b8ff" stroke="#63b8ff" points="507.9,-259.86 505.98,-249.45 500.99,-258.79 507.9,-259.86"/>
</a>
</g>
</g>
<!-- Node21 -->
<g id="Node000021" class="node">
<title>Node21</title>
<g id="a_Node000021"><a xlink:href="core_2include_2msg_8h.html" target="_top" xlink:title="Messaging API for inter process communication.">
<polygon fill="white" stroke="#666666" points="474,-304.5 428,-304.5 428,-283.75 474,-283.75 474,-304.5"/>
<text text-anchor="middle" x="451" y="-291" font-family="Helvetica,sans-Serif" font-size="10.00">msg.h</text>
</a>
</g>
</g>
<!-- Node18&#45;&gt;Node21 -->
<g id="edge31_Node000018_Node000021" class="edge">
<title>Node18&#45;&gt;Node21</title>
<g id="a_edge31_Node000018_Node000021"><a xlink:title=" ">
<path fill="none" stroke="#63b8ff" d="M348.35,-340.09C367.81,-331.56 396.29,-319.09 418.31,-309.44"/>
<polygon fill="#63b8ff" stroke="#63b8ff" points="419.7,-312.65 427.46,-305.44 416.9,-306.24 419.7,-312.65"/>
</a>
</g>
</g>
<!-- Node22 -->
<g id="Node000022" class="node">
<title>Node22</title>
<g id="a_Node000022"><a xlink:href="sched_8h.html" target="_top" xlink:title="Scheduler API definition.">
<polygon fill="white" stroke="#666666" points="420.75,-247.75 367.25,-247.75 367.25,-227 420.75,-227 420.75,-247.75"/>
<text text-anchor="middle" x="394" y="-234.25" font-family="Helvetica,sans-Serif" font-size="10.00">sched.h</text>
</a>
</g>
</g>
<!-- Node18&#45;&gt;Node22 -->
<g id="edge40_Node000018_Node000022" class="edge">
<title>Node18&#45;&gt;Node22</title>
<g id="a_edge40_Node000018_Node000022"><a xlink:title=" ">
<path fill="none" stroke="#63b8ff" d="M343.39,-340.04C355.84,-332.08 371.94,-319.7 381,-304.5 389.16,-290.8 392.32,-272.95 393.49,-259.25"/>
<polygon fill="#63b8ff" stroke="#63b8ff" points="396.96,-259.75 394,-249.58 389.97,-259.38 396.96,-259.75"/>
</a>
</g>
</g>
<!-- Node24 -->
<g id="Node000024" class="node">
<title>Node24</title>
<g id="a_Node000024"><a xlink:href="thread__config_8h.html" target="_top" xlink:title="Thread configuration defines.">
<polygon fill="white" stroke="#666666" points="371.88,-304.5 280.12,-304.5 280.12,-283.75 371.88,-283.75 371.88,-304.5"/>
<text text-anchor="middle" x="326" y="-291" font-family="Helvetica,sans-Serif" font-size="10.00">thread_config.h</text>
</a>
</g>
</g>
<!-- Node18&#45;&gt;Node24 -->
<g id="edge41_Node000018_Node000024" class="edge">
<title>Node18&#45;&gt;Node24</title>
<g id="a_edge41_Node000018_Node000024"><a xlink:title=" ">
<path fill="none" stroke="#63b8ff" d="M326,-340.09C326,-333.47 326,-324.47 326,-316.27"/>
<polygon fill="#63b8ff" stroke="#63b8ff" points="329.5,-316.34 326,-306.34 322.5,-316.34 329.5,-316.34"/>
</a>
</g>
</g>
<!-- Node26 -->
<g id="Node000026" class="node">
<title>Node26</title>
<g id="a_Node000026"><a xlink:title=" ">
<polygon fill="#e0e0e0" stroke="#999999" points="224.38,-304.5 141.62,-304.5 141.62,-283.75 224.38,-283.75 224.38,-304.5"/>
<text text-anchor="middle" x="183" y="-291" font-family="Helvetica,sans-Serif" font-size="10.00">thread_arch.h</text>
</a>
</g>
</g>
<!-- Node18&#45;&gt;Node26 -->
<g id="edge44_Node000018_Node000026" class="edge">
<title>Node18&#45;&gt;Node26</title>
<g id="a_edge44_Node000018_Node000026"><a xlink:title=" ">
<path fill="none" stroke="#63b8ff" d="M300.43,-340.09C277.76,-331.41 244.4,-318.63 219.02,-308.92"/>
<polygon fill="#63b8ff" stroke="#63b8ff" points="220.35,-305.68 209.76,-305.37 217.85,-312.21 220.35,-305.68"/>
</a>
</g>
</g>
<!-- Node19&#45;&gt;Node2 -->
<g id="edge26_Node000019_Node000002" class="edge">
<title>Node19&#45;&gt;Node2</title>
<g id="a_edge26_Node000019_Node000002"><a xlink:title=" ">
<path fill="none" stroke="#63b8ff" d="M212.05,-171.19C188.41,-162.5 151.19,-148.83 123.32,-138.59"/>
<polygon fill="#63b8ff" stroke="#63b8ff" points="124.78,-135.39 114.18,-135.23 122.36,-141.96 124.78,-135.39"/>
</a>
</g>
</g>
<!-- Node19&#45;&gt;Node5 -->
<g id="edge27_Node000019_Node000005" class="edge">
<title>Node19&#45;&gt;Node5</title>
<g id="a_edge27_Node000019_Node000005"><a xlink:title=" ">
<path fill="none" stroke="#63b8ff" d="M240.97,-170.12C252.43,-151.86 277.73,-111.56 292.87,-87.45"/>
<polygon fill="#63b8ff" stroke="#63b8ff" points="295.69,-89.54 298.04,-79.21 289.76,-85.82 295.69,-89.54"/>
</a>
</g>
</g>
<!-- Node19&#45;&gt;Node17 -->
<g id="edge28_Node000019_Node000017" class="edge">
<title>Node19&#45;&gt;Node17</title>
<g id="a_edge28_Node000019_Node000017"><a xlink:title=" ">
<path fill="none" stroke="#63b8ff" d="M228.92,-169.84C224.52,-162.75 218.43,-152.94 213.06,-144.29"/>
<polygon fill="#63b8ff" stroke="#63b8ff" points="216.07,-142.51 207.82,-135.86 210.13,-146.21 216.07,-142.51"/>
</a>
</g>
</g>
<!-- Node20&#45;&gt;Node15 -->
<g id="edge30_Node000020_Node000015" class="edge">
<title>Node20&#45;&gt;Node15</title>
<g id="a_edge30_Node000020_Node000015"><a xlink:title=" ">
<path fill="none" stroke="#63b8ff" d="M526.98,-237.21C569.29,-238.01 669.58,-234.77 737,-191 769.51,-169.89 788.16,-150.62 777,-113.5 774.09,-103.83 768.39,-94.33 762.72,-86.54"/>
<polygon fill="#63b8ff" stroke="#63b8ff" points="765.65,-84.6 756.72,-78.89 760.14,-88.92 765.65,-84.6"/>
</a>
</g>
</g>
<!-- Node21&#45;&gt;Node2 -->
<g id="edge33_Node000021_Node000002" class="edge">
<title>Node21&#45;&gt;Node2</title>
<g id="a_edge33_Node000021_Node000002"><a xlink:title=" ">
<path fill="none" stroke="#63b8ff" d="M430.18,-283.3C411.24,-274.29 382.58,-260.45 358,-247.75 340.9,-238.92 337.73,-234.48 320,-227 269.87,-205.86 252.97,-212.51 203,-191 169.73,-176.68 133.79,-155.41 110.65,-140.89"/>
<polygon fill="#63b8ff" stroke="#63b8ff" points="112.57,-137.96 102.25,-135.55 108.82,-143.87 112.57,-137.96"/>
</a>
</g>
</g>
<!-- Node21&#45;&gt;Node6 -->
<g id="edge32_Node000021_Node000006" class="edge">
<title>Node21&#45;&gt;Node6</title>
<g id="a_edge32_Node000021_Node000006"><a xlink:title=" ">
<path fill="none" stroke="#63b8ff" d="M448.04,-283.46C440,-255.35 420.29,-171.86 450,-113.5 487.8,-39.24 595.1,-18.97 652.94,-13.44"/>
<polygon fill="#63b8ff" stroke="#63b8ff" points="652.97,-16.95 662.64,-12.62 652.38,-9.97 652.97,-16.95"/>
</a>
</g>
</g>
<!-- Node21&#45;&gt;Node22 -->
<g id="edge34_Node000021_Node000022" class="edge">
<title>Node21&#45;&gt;Node22</title>
<g id="a_edge34_Node000021_Node000022"><a xlink:title=" ">
<path fill="none" stroke="#63b8ff" d="M440.81,-283.34C432.87,-275.71 421.63,-264.92 412.16,-255.82"/>
<polygon fill="#63b8ff" stroke="#63b8ff" points="414.83,-253.53 405.19,-249.13 409.98,-258.58 414.83,-253.53"/>
</a>
</g>
</g>
<!-- Node22&#45;&gt;Node5 -->
<g id="edge35_Node000022_Node000005" class="edge">
<title>Node22&#45;&gt;Node5</title>
<g id="a_edge35_Node000022_Node000005"><a xlink:title=" ">
<path fill="none" stroke="#63b8ff" d="M392.02,-226.62C389.12,-213.42 383.07,-189.31 374,-170.25 359.14,-139.01 335.53,-106.49 320.15,-86.77"/>
<polygon fill="#63b8ff" stroke="#63b8ff" points="323.04,-84.79 314.08,-79.13 317.55,-89.14 323.04,-84.79"/>
</a>
</g>
</g>
<!-- Node22&#45;&gt;Node8 -->
<g id="edge36_Node000022_Node000008" class="edge">
<title>Node22&#45;&gt;Node8</title>
<g id="a_edge36_Node000022_Node000008"><a xlink:title=" ">
<path fill="none" stroke="#63b8ff" d="M421.07,-231.47C473.4,-221.98 588.89,-201.04 652.27,-189.55"/>
<polygon fill="#63b8ff" stroke="#63b8ff" points="652.76,-193.02 661.98,-187.79 651.51,-186.13 652.76,-193.02"/>
</a>
</g>
</g>
<!-- Node22&#45;&gt;Node11 -->
<g id="edge37_Node000022_Node000011" class="edge">
<title>Node22&#45;&gt;Node11</title>
<g id="a_edge37_Node000022_Node000011"><a xlink:title=" ">
<path fill="none" stroke="#63b8ff" d="M421.12,-227.21C447.07,-218.44 486.54,-205.1 516.09,-195.11"/>
<polygon fill="#63b8ff" stroke="#63b8ff" points="517.09,-198.47 525.45,-191.95 514.85,-191.84 517.09,-198.47"/>
</a>
</g>
</g>
<!-- Node22&#45;&gt;Node19 -->
<g id="edge39_Node000022_Node000019" class="edge">
<title>Node22&#45;&gt;Node19</title>
<g id="a_edge39_Node000022_Node000019"><a xlink:title=" ">
<path fill="none" stroke="#63b8ff" d="M367.03,-227.09C339.84,-217.73 297.83,-203.26 268.52,-193.17"/>
<polygon fill="#63b8ff" stroke="#63b8ff" points="269.99,-189.97 259.4,-190.03 267.72,-196.59 269.99,-189.97"/>
</a>
</g>
</g>
<!-- Node23 -->
<g id="Node000023" class="node">
<title>Node23</title>
<g id="a_Node000023"><a xlink:href="native__sched_8h.html" target="_top" xlink:title="Add definitions required on the native board.">
<polygon fill="white" stroke="#666666" points="364.75,-191 275.25,-191 275.25,-170.25 364.75,-170.25 364.75,-191"/>
<text text-anchor="middle" x="320" y="-177.5" font-family="Helvetica,sans-Serif" font-size="10.00">native_sched.h</text>
</a>
</g>
</g>
<!-- Node22&#45;&gt;Node23 -->
<g id="edge38_Node000022_Node000023" class="edge">
<title>Node22&#45;&gt;Node23</title>
<g id="a_edge38_Node000022_Node000023"><a xlink:title=" ">
<path fill="none" stroke="#63b8ff" d="M380.77,-226.59C370.04,-218.65 354.68,-207.28 342.08,-197.96"/>
<polygon fill="#63b8ff" stroke="#63b8ff" points="344.45,-195.36 334.33,-192.23 340.29,-200.99 344.45,-195.36"/>
</a>
</g>
</g>
<!-- Node24&#45;&gt;Node22 -->
<g id="edge43_Node000024_Node000022" class="edge">
<title>Node24&#45;&gt;Node22</title>
<g id="a_edge43_Node000024_Node000022"><a xlink:title=" ">
<path fill="none" stroke="#63b8ff" d="M338.16,-283.34C347.83,-275.55 361.58,-264.47 373.02,-255.26"/>
<polygon fill="#63b8ff" stroke="#63b8ff" points="375.18,-258.03 380.77,-249.03 370.79,-252.57 375.18,-258.03"/>
</a>
</g>
</g>
<!-- Node25 -->
<g id="Node000025" class="node">
<title>Node25</title>
<g id="a_Node000025"><a xlink:title=" ">
<polygon fill="#e0e0e0" stroke="#999999" points="310.88,-247.75 243.12,-247.75 243.12,-227 310.88,-227 310.88,-247.75"/>
<text text-anchor="middle" x="277" y="-234.25" font-family="Helvetica,sans-Serif" font-size="10.00">cpu_conf.h</text>
</a>
</g>
</g>
<!-- Node24&#45;&gt;Node25 -->
<g id="edge42_Node000024_Node000025" class="edge">
<title>Node24&#45;&gt;Node25</title>
<g id="a_edge42_Node000024_Node000025"><a xlink:title=" ">
<path fill="none" stroke="#63b8ff" d="M317.24,-283.34C310.55,-275.86 301.15,-265.36 293.11,-256.38"/>
<polygon fill="#63b8ff" stroke="#63b8ff" points="295.97,-254.32 286.69,-249.21 290.75,-258.99 295.97,-254.32"/>
</a>
</g>
</g>
</g>
</svg>
