<?xml version="1.0" encoding="UTF-8" standalone="no"?>
<!DOCTYPE svg PUBLIC "-//W3C//DTD SVG 1.1//EN"
 "http://www.w3.org/Graphics/SVG/1.1/DTD/svg11.dtd">
<!-- Generated by graphviz version 12.1.1 (0)
 -->
<!-- Title: sys/include/net/gnrc/ipv6/nib/pl.h Pages: 1 -->
<svg width="412pt" height="325pt"
 viewBox="0.00 0.00 412.10 325.25" xmlns="http://www.w3.org/2000/svg" xmlns:xlink="http://www.w3.org/1999/xlink">
<g id="graph0" class="graph" transform="scale(1 1) rotate(0) translate(4 321.25)">
<title>sys/include/net/gnrc/ipv6/nib/pl.h</title>
<!-- Node1 -->
<g id="Node000001" class="node">
<title>Node1</title>
<g id="a_Node000001"><a xlink:title="Prefix list definitions.">
<polygon fill="#999999" stroke="#666666" points="122.35,-317.25 8.85,-317.25 8.85,-283.75 122.35,-283.75 122.35,-317.25"/>
<text text-anchor="start" x="16.85" y="-303.75" font-family="Helvetica,sans-Serif" font-size="10.00">sys/include/net/gnrc</text>
<text text-anchor="middle" x="65.6" y="-291" font-family="Helvetica,sans-Serif" font-size="10.00">/ipv6/nib/pl.h</text>
</a>
</g>
</g>
<!-- Node2 -->
<g id="Node000002" class="node">
<title>Node2</title>
<g id="a_Node000002"><a xlink:title=" ">
<polygon fill="#e0e0e0" stroke="#999999" points="191.97,-20.75 139.22,-20.75 139.22,0 191.97,0 191.97,-20.75"/>
<text text-anchor="middle" x="165.6" y="-7.25" font-family="Helvetica,sans-Serif" font-size="10.00">stdint.h</text>
</a>
</g>
</g>
<!-- Node1&#45;&gt;Node2 -->
<g id="edge1_Node000001_Node000002" class="edge">
<title>Node1&#45;&gt;Node2</title>
<g id="a_edge1_Node000001_Node000002"><a xlink:title=" ">
<path fill="none" stroke="#63b8ff" d="M49.54,-283.43C40.61,-273.76 29.86,-260.82 22.6,-247.75 7.55,-220.68 0.6,-212.6 0.6,-181.62 0.6,-181.62 0.6,-181.62 0.6,-122.88 0.6,-92.3 -1.79,-78.6 19.6,-56.75 47.95,-27.78 94.45,-17.22 127.34,-13.42"/>
<polygon fill="#63b8ff" stroke="#63b8ff" points="127.66,-16.91 137.28,-12.46 126.99,-9.94 127.66,-16.91"/>
</a>
</g>
</g>
<!-- Node3 -->
<g id="Node000003" class="node">
<title>Node3</title>
<g id="a_Node000003"><a xlink:href="modules_8h.html" target="_top" xlink:title="Common macros and compiler attributes/pragmas configuration.">
<polygon fill="white" stroke="#666666" points="99.1,-247.75 32.1,-247.75 32.1,-227 99.1,-227 99.1,-247.75"/>
<text text-anchor="middle" x="65.6" y="-234.25" font-family="Helvetica,sans-Serif" font-size="10.00">modules.h</text>
</a>
</g>
</g>
<!-- Node1&#45;&gt;Node3 -->
<g id="edge2_Node000001_Node000003" class="edge">
<title>Node1&#45;&gt;Node3</title>
<g id="a_edge2_Node000001_Node000003"><a xlink:title=" ">
<path fill="none" stroke="#63b8ff" d="M65.6,-283.44C65.6,-276.1 65.6,-267.32 65.6,-259.46"/>
<polygon fill="#63b8ff" stroke="#63b8ff" points="69.1,-259.73 65.6,-249.73 62.1,-259.73 69.1,-259.73"/>
</a>
</g>
</g>
<!-- Node4 -->
<g id="Node000004" class="node">
<title>Node4</title>
<g id="a_Node000004"><a xlink:href="ipv6_2addr_8h.html" target="_top" xlink:title="Definitions for IPv6 addresses.">
<polygon fill="white" stroke="#666666" points="210.35,-247.75 120.85,-247.75 120.85,-227 210.35,-227 210.35,-247.75"/>
<text text-anchor="middle" x="165.6" y="-234.25" font-family="Helvetica,sans-Serif" font-size="10.00">net/ipv6/addr.h</text>
</a>
</g>
</g>
<!-- Node1&#45;&gt;Node4 -->
<g id="edge3_Node000001_Node000004" class="edge">
<title>Node1&#45;&gt;Node4</title>
<g id="a_edge3_Node000001_Node000004"><a xlink:title=" ">
<path fill="none" stroke="#63b8ff" d="M92.13,-283.28C106.99,-274.2 125.42,-262.93 140.1,-253.96"/>
<polygon fill="#63b8ff" stroke="#63b8ff" points="141.58,-257.16 148.29,-248.95 137.93,-251.18 141.58,-257.16"/>
</a>
</g>
</g>
<!-- Node5 -->
<g id="Node000005" class="node">
<title>Node5</title>
<g id="a_Node000005"><a xlink:title=" ">
<polygon fill="#e0e0e0" stroke="#999999" points="404.1,-134.25 343.1,-134.25 343.1,-113.5 404.1,-113.5 404.1,-134.25"/>
<text text-anchor="middle" x="373.6" y="-120.75" font-family="Helvetica,sans-Serif" font-size="10.00">stdbool.h</text>
</a>
</g>
</g>
<!-- Node4&#45;&gt;Node5 -->
<g id="edge4_Node000004_Node000005" class="edge">
<title>Node4&#45;&gt;Node5</title>
<g id="a_edge4_Node000004_Node000005"><a xlink:title=" ">
<path fill="none" stroke="#63b8ff" d="M210.79,-227.74C239.91,-220.82 277.77,-209.2 307.6,-191 328.27,-178.39 347.28,-158 359.53,-143.19"/>
<polygon fill="#63b8ff" stroke="#63b8ff" points="362.1,-145.58 365.61,-135.58 356.63,-141.21 362.1,-145.58"/>
</a>
</g>
</g>
<!-- Node6 -->
<g id="Node000006" class="node">
<title>Node6</title>
<g id="a_Node000006"><a xlink:title=" ">
<polygon fill="#e0e0e0" stroke="#999999" points="80.97,-77.5 28.22,-77.5 28.22,-56.75 80.97,-56.75 80.97,-77.5"/>
<text text-anchor="middle" x="54.6" y="-64" font-family="Helvetica,sans-Serif" font-size="10.00">string.h</text>
</a>
</g>
</g>
<!-- Node4&#45;&gt;Node6 -->
<g id="edge5_Node000004_Node000006" class="edge">
<title>Node4&#45;&gt;Node6</title>
<g id="a_edge5_Node000004_Node000006"><a xlink:title=" ">
<path fill="none" stroke="#63b8ff" d="M159.31,-226.85C141.61,-200.02 91.11,-123.46 67.3,-87.38"/>
<polygon fill="#63b8ff" stroke="#63b8ff" points="70.35,-85.65 61.92,-79.23 64.51,-89.51 70.35,-85.65"/>
</a>
</g>
</g>
<!-- Node7 -->
<g id="Node000007" class="node">
<title>Node7</title>
<g id="a_Node000007"><a xlink:href="byteorder_8h.html" target="_top" xlink:title="Functions to work with different byte orders.">
<polygon fill="white" stroke="#666666" points="201.72,-134.25 129.47,-134.25 129.47,-113.5 201.72,-113.5 201.72,-134.25"/>
<text text-anchor="middle" x="165.6" y="-120.75" font-family="Helvetica,sans-Serif" font-size="10.00">byteorder.h</text>
</a>
</g>
</g>
<!-- Node4&#45;&gt;Node7 -->
<g id="edge6_Node000004_Node000007" class="edge">
<title>Node4&#45;&gt;Node7</title>
<g id="a_edge6_Node000004_Node000007"><a xlink:title=" ">
<path fill="none" stroke="#63b8ff" d="M165.6,-226.87C165.6,-209.1 165.6,-170.47 165.6,-146.18"/>
<polygon fill="#63b8ff" stroke="#63b8ff" points="169.1,-146.19 165.6,-136.19 162.1,-146.19 169.1,-146.19"/>
</a>
</g>
</g>
<!-- Node10 -->
<g id="Node000010" class="node">
<title>Node10</title>
<g id="a_Node000010"><a xlink:href="ipv4_2addr_8h.html" target="_top" xlink:title="IPv4 address type and helper functions definitions.">
<polygon fill="white" stroke="#666666" points="298.35,-191 208.85,-191 208.85,-170.25 298.35,-170.25 298.35,-191"/>
<text text-anchor="middle" x="253.6" y="-177.5" font-family="Helvetica,sans-Serif" font-size="10.00">net/ipv4/addr.h</text>
</a>
</g>
</g>
<!-- Node4&#45;&gt;Node10 -->
<g id="edge13_Node000004_Node000010" class="edge">
<title>Node4&#45;&gt;Node10</title>
<g id="a_edge13_Node000004_Node000010"><a xlink:title=" ">
<path fill="none" stroke="#63b8ff" d="M181.33,-226.59C194.47,-218.41 213.44,-206.61 228.65,-197.15"/>
<polygon fill="#63b8ff" stroke="#63b8ff" points="230.07,-200.38 236.72,-192.13 226.38,-194.44 230.07,-200.38"/>
</a>
</g>
</g>
<!-- Node7&#45;&gt;Node2 -->
<g id="edge8_Node000007_Node000002" class="edge">
<title>Node7&#45;&gt;Node2</title>
<g id="a_edge8_Node000007_Node000002"><a xlink:title=" ">
<path fill="none" stroke="#63b8ff" d="M153.79,-113.09C144.68,-104.73 132.79,-91.79 127.6,-77.5 121.28,-60.11 133.18,-42 145.3,-29.14"/>
<polygon fill="#63b8ff" stroke="#63b8ff" points="147.69,-31.69 152.41,-22.2 142.81,-26.68 147.69,-31.69"/>
</a>
</g>
</g>
<!-- Node7&#45;&gt;Node6 -->
<g id="edge7_Node000007_Node000006" class="edge">
<title>Node7&#45;&gt;Node6</title>
<g id="a_edge7_Node000007_Node000006"><a xlink:title=" ">
<path fill="none" stroke="#63b8ff" d="M145.75,-113.09C128.71,-104.68 103.87,-92.43 84.43,-82.84"/>
<polygon fill="#63b8ff" stroke="#63b8ff" points="86.14,-79.78 75.63,-78.5 83.05,-86.06 86.14,-79.78"/>
</a>
</g>
</g>
<!-- Node8 -->
<g id="Node000008" class="node">
<title>Node8</title>
<g id="a_Node000008"><a xlink:href="endian_8h.html" target="_top" xlink:title="libc header for endian conversion">
<polygon fill="white" stroke="#666666" points="194.6,-77.5 136.6,-77.5 136.6,-56.75 194.6,-56.75 194.6,-77.5"/>
<text text-anchor="middle" x="165.6" y="-64" font-family="Helvetica,sans-Serif" font-size="10.00">endian.h</text>
</a>
</g>
</g>
<!-- Node7&#45;&gt;Node8 -->
<g id="edge9_Node000007_Node000008" class="edge">
<title>Node7&#45;&gt;Node8</title>
<g id="a_edge9_Node000007_Node000008"><a xlink:title=" ">
<path fill="none" stroke="#63b8ff" d="M165.6,-113.09C165.6,-106.47 165.6,-97.47 165.6,-89.27"/>
<polygon fill="#63b8ff" stroke="#63b8ff" points="169.1,-89.34 165.6,-79.34 162.1,-89.34 169.1,-89.34"/>
</a>
</g>
</g>
<!-- Node9 -->
<g id="Node000009" class="node">
<title>Node9</title>
<g id="a_Node000009"><a xlink:href="unaligned_8h.html" target="_top" xlink:title="Unaligned but safe memory access functions.">
<polygon fill="white" stroke="#666666" points="286.1,-77.5 213.1,-77.5 213.1,-56.75 286.1,-56.75 286.1,-77.5"/>
<text text-anchor="middle" x="249.6" y="-64" font-family="Helvetica,sans-Serif" font-size="10.00">unaligned.h</text>
</a>
</g>
</g>
<!-- Node7&#45;&gt;Node9 -->
<g id="edge11_Node000007_Node000009" class="edge">
<title>Node7&#45;&gt;Node9</title>
<g id="a_edge11_Node000007_Node000009"><a xlink:title=" ">
<path fill="none" stroke="#63b8ff" d="M180.61,-113.09C193.04,-104.99 210.92,-93.33 225.37,-83.92"/>
<polygon fill="#63b8ff" stroke="#63b8ff" points="226.98,-87.05 233.44,-78.65 223.15,-81.18 226.98,-87.05"/>
</a>
</g>
</g>
<!-- Node8&#45;&gt;Node2 -->
<g id="edge10_Node000008_Node000002" class="edge">
<title>Node8&#45;&gt;Node2</title>
<g id="a_edge10_Node000008_Node000002"><a xlink:title=" ">
<path fill="none" stroke="#63b8ff" d="M165.6,-56.34C165.6,-49.72 165.6,-40.72 165.6,-32.52"/>
<polygon fill="#63b8ff" stroke="#63b8ff" points="169.1,-32.59 165.6,-22.59 162.1,-32.59 169.1,-32.59"/>
</a>
</g>
</g>
<!-- Node9&#45;&gt;Node2 -->
<g id="edge12_Node000009_Node000002" class="edge">
<title>Node9&#45;&gt;Node2</title>
<g id="a_edge12_Node000009_Node000002"><a xlink:title=" ">
<path fill="none" stroke="#63b8ff" d="M234.58,-56.34C222.16,-48.24 204.27,-36.58 189.83,-27.17"/>
<polygon fill="#63b8ff" stroke="#63b8ff" points="192.04,-24.43 181.75,-21.9 188.22,-30.3 192.04,-24.43"/>
</a>
</g>
</g>
<!-- Node10&#45;&gt;Node2 -->
<g id="edge15_Node000010_Node000002" class="edge">
<title>Node10&#45;&gt;Node2</title>
<g id="a_edge15_Node000010_Node000002"><a xlink:title=" ">
<path fill="none" stroke="#63b8ff" d="M264.42,-169.99C273.14,-161.53 284.86,-148.38 290.6,-134.25 303.59,-102.27 315.58,-84.89 295.6,-56.75 274.86,-27.54 233.85,-16.98 203.41,-13.24"/>
<polygon fill="#63b8ff" stroke="#63b8ff" points="204.14,-9.8 193.84,-12.27 203.43,-16.76 204.14,-9.8"/>
</a>
</g>
</g>
<!-- Node10&#45;&gt;Node5 -->
<g id="edge14_Node000010_Node000005" class="edge">
<title>Node10&#45;&gt;Node5</title>
<g id="a_edge14_Node000010_Node000005"><a xlink:title=" ">
<path fill="none" stroke="#63b8ff" d="M275.05,-169.84C293.65,-161.35 320.82,-148.95 341.92,-139.33"/>
<polygon fill="#63b8ff" stroke="#63b8ff" points="343.31,-142.54 350.95,-135.21 340.4,-136.17 343.31,-142.54"/>
</a>
</g>
</g>
<!-- Node10&#45;&gt;Node7 -->
<g id="edge17_Node000010_Node000007" class="edge">
<title>Node10&#45;&gt;Node7</title>
<g id="a_edge17_Node000010_Node000007"><a xlink:title=" ">
<path fill="none" stroke="#63b8ff" d="M237.86,-169.84C224.72,-161.66 205.75,-149.86 190.54,-140.4"/>
<polygon fill="#63b8ff" stroke="#63b8ff" points="192.82,-137.69 182.48,-135.38 189.12,-143.63 192.82,-137.69"/>
</a>
</g>
</g>
<!-- Node11 -->
<g id="Node000011" class="node">
<title>Node11</title>
<g id="a_Node000011"><a xlink:title=" ">
<polygon fill="#e0e0e0" stroke="#999999" points="281.1,-134.25 226.1,-134.25 226.1,-113.5 281.1,-113.5 281.1,-134.25"/>
<text text-anchor="middle" x="253.6" y="-120.75" font-family="Helvetica,sans-Serif" font-size="10.00">stddef.h</text>
</a>
</g>
</g>
<!-- Node10&#45;&gt;Node11 -->
<g id="edge16_Node000010_Node000011" class="edge">
<title>Node10&#45;&gt;Node11</title>
<g id="a_edge16_Node000010_Node000011"><a xlink:title=" ">
<path fill="none" stroke="#63b8ff" d="M253.6,-169.84C253.6,-163.22 253.6,-154.22 253.6,-146.02"/>
<polygon fill="#63b8ff" stroke="#63b8ff" points="257.1,-146.09 253.6,-136.09 250.1,-146.09 257.1,-146.09"/>
</a>
</g>
</g>
</g>
</svg>
