<?xml version="1.0" encoding="UTF-8" standalone="no"?>
<!DOCTYPE svg PUBLIC "-//W3C//DTD SVG 1.1//EN"
 "http://www.w3.org/Graphics/SVG/1.1/DTD/svg11.dtd">
<!-- Generated by graphviz version 12.1.1 (0)
 -->
<!-- Title: sys/psa_crypto/include/psa_crypto_operation_encoder.h Pages: 1 -->
<svg width="756pt" height="622pt"
 viewBox="0.00 0.00 756.00 621.75" xmlns="http://www.w3.org/2000/svg" xmlns:xlink="http://www.w3.org/1999/xlink">
<g id="graph0" class="graph" transform="scale(1 1) rotate(0) translate(4 617.75)">
<title>sys/psa_crypto/include/psa_crypto_operation_encoder.h</title>
<!-- Node1 -->
<g id="Node000001" class="node">
<title>Node1</title>
<g id="a_Node000001"><a xlink:title="Macros used to map PSA algorithms, key types and key sizes to specific key types and operations to ca...">
<polygon fill="#999999" stroke="#666666" points="414.5,-613.75 287.5,-613.75 287.5,-567.5 414.5,-567.5 414.5,-613.75"/>
<text text-anchor="start" x="295.5" y="-600.25" font-family="Helvetica,sans-Serif" font-size="10.00">sys/psa_crypto/include</text>
<text text-anchor="start" x="295.5" y="-587.5" font-family="Helvetica,sans-Serif" font-size="10.00">/psa_crypto_operation</text>
<text text-anchor="middle" x="351" y="-574.75" font-family="Helvetica,sans-Serif" font-size="10.00">_encoder.h</text>
</a>
</g>
</g>
<!-- Node2 -->
<g id="Node000002" class="node">
<title>Node2</title>
<g id="a_Node000002"><a xlink:href="crypto_8h.html" target="_top" xlink:title="Function declarations for PSA Crypto.">
<polygon fill="white" stroke="#666666" points="332,-418 256,-418 256,-397.25 332,-397.25 332,-418"/>
<text text-anchor="middle" x="294" y="-404.5" font-family="Helvetica,sans-Serif" font-size="10.00">psa/crypto.h</text>
</a>
</g>
</g>
<!-- Node1&#45;&gt;Node2 -->
<g id="edge1_Node000001_Node000002" class="edge">
<title>Node1&#45;&gt;Node2</title>
<g id="a_edge1_Node000001_Node000002"><a xlink:title=" ">
<path fill="none" stroke="#63b8ff" d="M333.05,-567.11C325.71,-556.81 317.84,-544.11 313,-531.5 299.9,-497.35 295.82,-454.57 294.56,-429.55"/>
<polygon fill="#63b8ff" stroke="#63b8ff" points="298.06,-429.59 294.18,-419.73 291.06,-429.86 298.06,-429.59"/>
</a>
</g>
</g>
<!-- Node20 -->
<g id="Node000020" class="node">
<title>Node20</title>
<g id="a_Node000020"><a xlink:href="psa__crypto__slot__management_8h.html" target="_top" xlink:title="PSA key slot management function declarations.">
<polygon fill="white" stroke="#666666" points="494,-531.5 322,-531.5 322,-510.75 494,-510.75 494,-531.5"/>
<text text-anchor="middle" x="408" y="-518" font-family="Helvetica,sans-Serif" font-size="10.00">psa_crypto_slot_management.h</text>
</a>
</g>
</g>
<!-- Node1&#45;&gt;Node20 -->
<g id="edge31_Node000001_Node000020" class="edge">
<title>Node1&#45;&gt;Node20</title>
<g id="a_edge31_Node000001_Node000020"><a xlink:title=" ">
<path fill="none" stroke="#63b8ff" d="M369.98,-567.15C377.24,-558.55 385.44,-548.84 392.35,-540.65"/>
<polygon fill="#63b8ff" stroke="#63b8ff" points="395,-542.95 398.78,-533.05 389.65,-538.43 395,-542.95"/>
</a>
</g>
</g>
<!-- Node3 -->
<g id="Node000003" class="node">
<title>Node3</title>
<g id="a_Node000003"><a xlink:title=" ">
<polygon fill="#e0e0e0" stroke="#999999" points="118,-247.75 66,-247.75 66,-227 118,-227 118,-247.75"/>
<text text-anchor="middle" x="92" y="-234.25" font-family="Helvetica,sans-Serif" font-size="10.00">stdlib.h</text>
</a>
</g>
</g>
<!-- Node2&#45;&gt;Node3 -->
<g id="edge2_Node000002_Node000003" class="edge">
<title>Node2&#45;&gt;Node3</title>
<g id="a_edge2_Node000002_Node000003"><a xlink:title=" ">
<path fill="none" stroke="#63b8ff" d="M270.46,-396.83C252.76,-388.81 228.5,-376.33 210,-361.25 175.16,-332.84 176.63,-315.7 145,-283.75 135.06,-273.7 123.16,-263.39 113.17,-255.13"/>
<polygon fill="#63b8ff" stroke="#63b8ff" points="115.43,-252.47 105.46,-248.88 111.02,-257.9 115.43,-252.47"/>
</a>
</g>
</g>
<!-- Node4 -->
<g id="Node000004" class="node">
<title>Node4</title>
<g id="a_Node000004"><a xlink:title=" ">
<polygon fill="#e0e0e0" stroke="#999999" points="320.38,-361.25 267.62,-361.25 267.62,-340.5 320.38,-340.5 320.38,-361.25"/>
<text text-anchor="middle" x="294" y="-347.75" font-family="Helvetica,sans-Serif" font-size="10.00">string.h</text>
</a>
</g>
</g>
<!-- Node2&#45;&gt;Node4 -->
<g id="edge3_Node000002_Node000004" class="edge">
<title>Node2&#45;&gt;Node4</title>
<g id="a_edge3_Node000002_Node000004"><a xlink:title=" ">
<path fill="none" stroke="#63b8ff" d="M294,-396.84C294,-390.22 294,-381.22 294,-373.02"/>
<polygon fill="#63b8ff" stroke="#63b8ff" points="297.5,-373.09 294,-363.09 290.5,-373.09 297.5,-373.09"/>
</a>
</g>
</g>
<!-- Node5 -->
<g id="Node000005" class="node">
<title>Node5</title>
<g id="a_Node000005"><a xlink:href="kernel__defines_8h.html" target="_top" xlink:title="Common macros and compiler attributes/pragmas configuration.">
<polygon fill="white" stroke="#666666" points="491.12,-191 394.88,-191 394.88,-170.25 491.12,-170.25 491.12,-191"/>
<text text-anchor="middle" x="443" y="-177.5" font-family="Helvetica,sans-Serif" font-size="10.00">kernel_defines.h</text>
</a>
</g>
</g>
<!-- Node2&#45;&gt;Node5 -->
<g id="edge4_Node000002_Node000005" class="edge">
<title>Node2&#45;&gt;Node5</title>
<g id="a_edge4_Node000002_Node000005"><a xlink:title=" ">
<path fill="none" stroke="#63b8ff" d="M332.38,-404.63C389.93,-399.19 494.85,-379.02 523,-304.5 528.73,-289.32 531.22,-245.48 520,-227 511.64,-213.23 497.4,-203.17 483.42,-196.07"/>
<polygon fill="#63b8ff" stroke="#63b8ff" points="485.3,-193.08 474.75,-192.05 482.35,-199.43 485.3,-193.08"/>
</a>
</g>
</g>
<!-- Node13 -->
<g id="Node000013" class="node">
<title>Node13</title>
<g id="a_Node000013"><a xlink:href="crypto__sizes_8h.html" target="_top" xlink:title="Size definitions for PSA Crypto.">
<polygon fill="white" stroke="#666666" points="353.88,-304.5 268.12,-304.5 268.12,-283.75 353.88,-283.75 353.88,-304.5"/>
<text text-anchor="middle" x="311" y="-291" font-family="Helvetica,sans-Serif" font-size="10.00">crypto_sizes.h</text>
</a>
</g>
</g>
<!-- Node2&#45;&gt;Node13 -->
<g id="edge15_Node000002_Node000013" class="edge">
<title>Node2&#45;&gt;Node13</title>
<g id="a_edge15_Node000002_Node000013"><a xlink:title=" ">
<path fill="none" stroke="#63b8ff" d="M304.56,-396.99C313,-388.53 324.19,-375.38 329,-361.25 334.28,-345.77 328.69,-327.84 322.39,-314.56"/>
<polygon fill="#63b8ff" stroke="#63b8ff" points="325.63,-313.2 317.86,-305.99 319.44,-316.47 325.63,-313.2"/>
</a>
</g>
</g>
<!-- Node14 -->
<g id="Node000014" class="node">
<title>Node14</title>
<g id="a_Node000014"><a xlink:href="crypto__values_8h.html" target="_top" xlink:title="Value definitions for PSA Crypto.">
<polygon fill="white" stroke="#666666" points="229.62,-247.75 136.38,-247.75 136.38,-227 229.62,-227 229.62,-247.75"/>
<text text-anchor="middle" x="183" y="-234.25" font-family="Helvetica,sans-Serif" font-size="10.00">crypto_values.h</text>
</a>
</g>
</g>
<!-- Node2&#45;&gt;Node14 -->
<g id="edge29_Node000002_Node000014" class="edge">
<title>Node2&#45;&gt;Node14</title>
<g id="a_edge29_Node000002_Node000014"><a xlink:title=" ">
<path fill="none" stroke="#63b8ff" d="M272.27,-396.79C257.37,-389.05 238.17,-376.95 226,-361.25 202.08,-330.4 190.86,-285.24 186.1,-259.12"/>
<polygon fill="#63b8ff" stroke="#63b8ff" points="189.58,-258.77 184.49,-249.47 182.68,-259.91 189.58,-258.77"/>
</a>
</g>
</g>
<!-- Node15 -->
<g id="Node000015" class="node">
<title>Node15</title>
<g id="a_Node000015"><a xlink:href="crypto__types_8h.html" target="_top" xlink:title="Type definitions for PSA Crypto.">
<polygon fill="white" stroke="#666666" points="227,-191 139,-191 139,-170.25 227,-170.25 227,-191"/>
<text text-anchor="middle" x="183" y="-177.5" font-family="Helvetica,sans-Serif" font-size="10.00">crypto_types.h</text>
</a>
</g>
</g>
<!-- Node2&#45;&gt;Node15 -->
<g id="edge30_Node000002_Node000015" class="edge">
<title>Node2&#45;&gt;Node15</title>
<g id="a_edge30_Node000002_Node000015"><a xlink:title=" ">
<path fill="none" stroke="#63b8ff" d="M283.97,-396.79C275.86,-388.2 264.85,-374.98 259,-361.25 235.37,-305.74 268.91,-279.39 239,-227 232.25,-215.19 221.14,-205.22 210.58,-197.67"/>
<polygon fill="#63b8ff" stroke="#63b8ff" points="212.71,-194.88 202.44,-192.26 208.84,-200.71 212.71,-194.88"/>
</a>
</g>
</g>
<!-- Node17 -->
<g id="Node000017" class="node">
<title>Node17</title>
<g id="a_Node000017"><a xlink:href="crypto__struct_8h.html" target="_top" xlink:title="Structure definitions for PSA Crypto.">
<polygon fill="white" stroke="#666666" points="464.38,-361.25 375.62,-361.25 375.62,-340.5 464.38,-340.5 464.38,-361.25"/>
<text text-anchor="middle" x="420" y="-347.75" font-family="Helvetica,sans-Serif" font-size="10.00">crypto_struct.h</text>
</a>
</g>
</g>
<!-- Node2&#45;&gt;Node17 -->
<g id="edge22_Node000002_Node000017" class="edge">
<title>Node2&#45;&gt;Node17</title>
<g id="a_edge22_Node000002_Node000017"><a xlink:title=" ">
<path fill="none" stroke="#63b8ff" d="M316.53,-396.84C336.24,-388.27 365.11,-375.73 387.35,-366.06"/>
<polygon fill="#63b8ff" stroke="#63b8ff" points="388.5,-369.38 396.28,-362.18 385.71,-362.96 388.5,-369.38"/>
</a>
</g>
</g>
<!-- Node6 -->
<g id="Node000006" class="node">
<title>Node6</title>
<g id="a_Node000006"><a xlink:href="modules_8h.html" target="_top" xlink:title="Common macros and compiler attributes/pragmas configuration.">
<polygon fill="white" stroke="#666666" points="571.5,-134.25 504.5,-134.25 504.5,-113.5 571.5,-113.5 571.5,-134.25"/>
<text text-anchor="middle" x="538" y="-120.75" font-family="Helvetica,sans-Serif" font-size="10.00">modules.h</text>
</a>
</g>
</g>
<!-- Node5&#45;&gt;Node6 -->
<g id="edge5_Node000005_Node000006" class="edge">
<title>Node5&#45;&gt;Node6</title>
<g id="a_edge5_Node000005_Node000006"><a xlink:title=" ">
<path fill="none" stroke="#63b8ff" d="M459.98,-169.84C474.3,-161.58 495.04,-149.63 511.54,-140.13"/>
<polygon fill="#63b8ff" stroke="#63b8ff" points="512.94,-143.36 519.85,-135.33 509.44,-137.3 512.94,-143.36"/>
</a>
</g>
</g>
<!-- Node7 -->
<g id="Node000007" class="node">
<title>Node7</title>
<g id="a_Node000007"><a xlink:href="riot__version_8h.html" target="_top" xlink:title="Common macros and compiler attributes/pragmas configuration.">
<polygon fill="white" stroke="#666666" points="429.38,-77.5 346.62,-77.5 346.62,-56.75 429.38,-56.75 429.38,-77.5"/>
<text text-anchor="middle" x="388" y="-64" font-family="Helvetica,sans-Serif" font-size="10.00">riot_version.h</text>
</a>
</g>
</g>
<!-- Node5&#45;&gt;Node7 -->
<g id="edge6_Node000005_Node000007" class="edge">
<title>Node5&#45;&gt;Node7</title>
<g id="a_edge6_Node000005_Node000007"><a xlink:title=" ">
<path fill="none" stroke="#63b8ff" d="M433.47,-169.97C425.37,-161.29 413.99,-147.84 407,-134.25 399.64,-119.94 394.76,-102.37 391.79,-88.94"/>
<polygon fill="#63b8ff" stroke="#63b8ff" points="395.29,-88.58 389.89,-79.47 388.43,-89.96 395.29,-88.58"/>
</a>
</g>
</g>
<!-- Node9 -->
<g id="Node000009" class="node">
<title>Node9</title>
<g id="a_Node000009"><a xlink:href="compiler__hints_8h.html" target="_top" xlink:title="Common macros and compiler attributes/pragmas configuration.">
<polygon fill="white" stroke="#666666" points="349.5,-134.25 252.5,-134.25 252.5,-113.5 349.5,-113.5 349.5,-134.25"/>
<text text-anchor="middle" x="301" y="-120.75" font-family="Helvetica,sans-Serif" font-size="10.00">compiler_hints.h</text>
</a>
</g>
</g>
<!-- Node5&#45;&gt;Node9 -->
<g id="edge8_Node000005_Node000009" class="edge">
<title>Node5&#45;&gt;Node9</title>
<g id="a_edge8_Node000005_Node000009"><a xlink:title=" ">
<path fill="none" stroke="#63b8ff" d="M417.61,-169.84C395.1,-161.16 361.97,-148.38 336.77,-138.67"/>
<polygon fill="#63b8ff" stroke="#63b8ff" points="338.17,-135.45 327.58,-135.12 335.65,-141.99 338.17,-135.45"/>
</a>
</g>
</g>
<!-- Node11 -->
<g id="Node000011" class="node">
<title>Node11</title>
<g id="a_Node000011"><a xlink:href="container_8h.html" target="_top" xlink:title="Common macros and compiler attributes/pragmas configuration.">
<polygon fill="white" stroke="#666666" points="486.38,-134.25 415.62,-134.25 415.62,-113.5 486.38,-113.5 486.38,-134.25"/>
<text text-anchor="middle" x="451" y="-120.75" font-family="Helvetica,sans-Serif" font-size="10.00">container.h</text>
</a>
</g>
</g>
<!-- Node5&#45;&gt;Node11 -->
<g id="edge12_Node000005_Node000011" class="edge">
<title>Node5&#45;&gt;Node11</title>
<g id="a_edge12_Node000005_Node000011"><a xlink:title=" ">
<path fill="none" stroke="#63b8ff" d="M444.43,-169.84C445.41,-163.14 446.74,-154.01 447.95,-145.73"/>
<polygon fill="#63b8ff" stroke="#63b8ff" points="451.38,-146.48 449.36,-136.08 444.45,-145.46 451.38,-146.48"/>
</a>
</g>
</g>
<!-- Node8 -->
<g id="Node000008" class="node">
<title>Node8</title>
<g id="a_Node000008"><a xlink:title=" ">
<polygon fill="#e0e0e0" stroke="#999999" points="271.38,-20.75 218.62,-20.75 218.62,0 271.38,0 271.38,-20.75"/>
<text text-anchor="middle" x="245" y="-7.25" font-family="Helvetica,sans-Serif" font-size="10.00">stdint.h</text>
</a>
</g>
</g>
<!-- Node7&#45;&gt;Node8 -->
<g id="edge7_Node000007_Node000008" class="edge">
<title>Node7&#45;&gt;Node8</title>
<g id="a_edge7_Node000007_Node000008"><a xlink:title=" ">
<path fill="none" stroke="#63b8ff" d="M362.43,-56.34C339.76,-47.66 306.4,-34.88 281.02,-25.17"/>
<polygon fill="#63b8ff" stroke="#63b8ff" points="282.35,-21.93 271.76,-21.62 279.85,-28.46 282.35,-21.93"/>
</a>
</g>
</g>
<!-- Node9&#45;&gt;Node8 -->
<g id="edge11_Node000009_Node000008" class="edge">
<title>Node9&#45;&gt;Node8</title>
<g id="a_edge11_Node000009_Node000008"><a xlink:title=" ">
<path fill="none" stroke="#63b8ff" d="M291.51,-113.2C283.45,-104.5 272.09,-91.04 265,-77.5 257.51,-63.18 252.36,-45.62 249.17,-32.19"/>
<polygon fill="#63b8ff" stroke="#63b8ff" points="252.65,-31.73 247.09,-22.71 245.81,-33.23 252.65,-31.73"/>
</a>
</g>
</g>
<!-- Node10 -->
<g id="Node000010" class="node">
<title>Node10</title>
<g id="a_Node000010"><a xlink:href="assert_8h.html" target="_top" xlink:title="POSIX.1&#45;2008 compliant version of the assert macro.">
<polygon fill="white" stroke="#666666" points="328.5,-77.5 273.5,-77.5 273.5,-56.75 328.5,-56.75 328.5,-77.5"/>
<text text-anchor="middle" x="301" y="-64" font-family="Helvetica,sans-Serif" font-size="10.00">assert.h</text>
</a>
</g>
</g>
<!-- Node9&#45;&gt;Node10 -->
<g id="edge9_Node000009_Node000010" class="edge">
<title>Node9&#45;&gt;Node10</title>
<g id="a_edge9_Node000009_Node000010"><a xlink:title=" ">
<path fill="none" stroke="#63b8ff" d="M301,-113.09C301,-106.47 301,-97.47 301,-89.27"/>
<polygon fill="#63b8ff" stroke="#63b8ff" points="304.5,-89.34 301,-79.34 297.5,-89.34 304.5,-89.34"/>
</a>
</g>
</g>
<!-- Node10&#45;&gt;Node8 -->
<g id="edge10_Node000010_Node000008" class="edge">
<title>Node10&#45;&gt;Node8</title>
<g id="a_edge10_Node000010_Node000008"><a xlink:title=" ">
<path fill="none" stroke="#63b8ff" d="M290.99,-56.34C283.26,-48.78 272.37,-38.14 263.13,-29.1"/>
<polygon fill="#63b8ff" stroke="#63b8ff" points="265.6,-26.62 256.01,-22.14 260.71,-31.63 265.6,-26.62"/>
</a>
</g>
</g>
<!-- Node11&#45;&gt;Node8 -->
<g id="edge14_Node000011_Node000008" class="edge">
<title>Node11&#45;&gt;Node8</title>
<g id="a_edge14_Node000011_Node000008"><a xlink:title=" ">
<path fill="none" stroke="#63b8ff" d="M452.07,-113.34C453.11,-99.04 452.78,-72.08 438,-56.75 416.88,-34.84 332.86,-21.55 282.9,-15.42"/>
<polygon fill="#63b8ff" stroke="#63b8ff" points="283.44,-11.96 273.1,-14.27 282.62,-18.91 283.44,-11.96"/>
</a>
</g>
</g>
<!-- Node12 -->
<g id="Node000012" class="node">
<title>Node12</title>
<g id="a_Node000012"><a xlink:title=" ">
<polygon fill="#e0e0e0" stroke="#999999" points="583.5,-77.5 528.5,-77.5 528.5,-56.75 583.5,-56.75 583.5,-77.5"/>
<text text-anchor="middle" x="556" y="-64" font-family="Helvetica,sans-Serif" font-size="10.00">stddef.h</text>
</a>
</g>
</g>
<!-- Node11&#45;&gt;Node12 -->
<g id="edge13_Node000011_Node000012" class="edge">
<title>Node11&#45;&gt;Node12</title>
<g id="a_edge13_Node000011_Node000012"><a xlink:title=" ">
<path fill="none" stroke="#63b8ff" d="M469.77,-113.09C485.75,-104.76 508.95,-92.66 527.26,-83.11"/>
<polygon fill="#63b8ff" stroke="#63b8ff" points="528.8,-86.26 536.05,-78.53 525.56,-80.05 528.8,-86.26"/>
</a>
</g>
</g>
<!-- Node13&#45;&gt;Node5 -->
<g id="edge16_Node000013_Node000005" class="edge">
<title>Node13&#45;&gt;Node5</title>
<g id="a_edge16_Node000013_Node000005"><a xlink:title=" ">
<path fill="none" stroke="#63b8ff" d="M317.09,-283.68C326.25,-269.97 344.71,-244.32 365,-227 379.14,-214.94 396.92,-204.31 411.94,-196.38"/>
<polygon fill="#63b8ff" stroke="#63b8ff" points="413.15,-199.69 420.46,-192.02 409.96,-193.46 413.15,-199.69"/>
</a>
</g>
</g>
<!-- Node13&#45;&gt;Node14 -->
<g id="edge17_Node000013_Node000014" class="edge">
<title>Node13&#45;&gt;Node14</title>
<g id="a_edge17_Node000013_Node000014"><a xlink:title=" ">
<path fill="none" stroke="#63b8ff" d="M288.12,-283.34C268.09,-274.77 238.76,-262.23 216.17,-252.56"/>
<polygon fill="#63b8ff" stroke="#63b8ff" points="217.65,-249.39 207.08,-248.67 214.9,-255.82 217.65,-249.39"/>
</a>
</g>
</g>
<!-- Node14&#45;&gt;Node15 -->
<g id="edge18_Node000014_Node000015" class="edge">
<title>Node14&#45;&gt;Node15</title>
<g id="a_edge18_Node000014_Node000015"><a xlink:title=" ">
<path fill="none" stroke="#63b8ff" d="M183,-226.59C183,-219.97 183,-210.97 183,-202.77"/>
<polygon fill="#63b8ff" stroke="#63b8ff" points="186.5,-202.84 183,-192.84 179.5,-202.84 186.5,-202.84"/>
</a>
</g>
</g>
<!-- Node15&#45;&gt;Node8 -->
<g id="edge19_Node000015_Node000008" class="edge">
<title>Node15&#45;&gt;Node8</title>
<g id="a_edge19_Node000015_Node000008"><a xlink:title=" ">
<path fill="none" stroke="#63b8ff" d="M174.16,-169.98C155.38,-148.27 115.17,-94.52 140,-56.75 154.81,-34.22 183.45,-22.82 207.08,-17.09"/>
<polygon fill="#63b8ff" stroke="#63b8ff" points="207.67,-20.54 216.72,-15.02 206.2,-13.7 207.67,-20.54"/>
</a>
</g>
</g>
<!-- Node16 -->
<g id="Node000016" class="node">
<title>Node16</title>
<g id="a_Node000016"><a xlink:href="psa__crypto_2psa_2error_8h.html" target="_top" xlink:title="Error definitions for the PSA Crypto API.">
<polygon fill="white" stroke="#666666" points="217.25,-77.5 148.75,-77.5 148.75,-56.75 217.25,-56.75 217.25,-77.5"/>
<text text-anchor="middle" x="183" y="-64" font-family="Helvetica,sans-Serif" font-size="10.00">psa/error.h</text>
</a>
</g>
</g>
<!-- Node15&#45;&gt;Node16 -->
<g id="edge20_Node000015_Node000016" class="edge">
<title>Node15&#45;&gt;Node16</title>
<g id="a_edge20_Node000015_Node000016"><a xlink:title=" ">
<path fill="none" stroke="#63b8ff" d="M183,-170.12C183,-152.35 183,-113.72 183,-89.43"/>
<polygon fill="#63b8ff" stroke="#63b8ff" points="186.5,-89.44 183,-79.44 179.5,-89.44 186.5,-89.44"/>
</a>
</g>
</g>
<!-- Node16&#45;&gt;Node8 -->
<g id="edge21_Node000016_Node000008" class="edge">
<title>Node16&#45;&gt;Node8</title>
<g id="a_edge21_Node000016_Node000008"><a xlink:title=" ">
<path fill="none" stroke="#63b8ff" d="M194.08,-56.34C202.81,-48.63 215.19,-37.7 225.56,-28.54"/>
<polygon fill="#63b8ff" stroke="#63b8ff" points="227.7,-31.32 232.88,-22.08 223.06,-26.08 227.7,-31.32"/>
</a>
</g>
</g>
<!-- Node17&#45;&gt;Node13 -->
<g id="edge24_Node000017_Node000013" class="edge">
<title>Node17&#45;&gt;Node13</title>
<g id="a_edge24_Node000017_Node000013"><a xlink:title=" ">
<path fill="none" stroke="#63b8ff" d="M400.51,-340.09C383.85,-331.72 359.62,-319.54 340.56,-309.97"/>
<polygon fill="#63b8ff" stroke="#63b8ff" points="342.18,-306.87 331.67,-305.51 339.04,-313.12 342.18,-306.87"/>
</a>
</g>
</g>
<!-- Node17&#45;&gt;Node15 -->
<g id="edge23_Node000017_Node000015" class="edge">
<title>Node17&#45;&gt;Node15</title>
<g id="a_edge23_Node000017_Node000015"><a xlink:title=" ">
<path fill="none" stroke="#63b8ff" d="M413.06,-340.09C403.04,-326.42 383.49,-301.3 363,-283.75 317.49,-244.75 254.86,-213.21 216.75,-195.97"/>
<polygon fill="#63b8ff" stroke="#63b8ff" points="218.62,-192.98 208.06,-192.11 215.78,-199.37 218.62,-192.98"/>
</a>
</g>
</g>
<!-- Node18 -->
<g id="Node000018" class="node">
<title>Node18</title>
<g id="a_Node000018"><a xlink:href="crypto__contexts_8h.html" target="_top" xlink:title="Context definitions for PSA Crypto.">
<polygon fill="white" stroke="#666666" points="513.5,-304.5 410.5,-304.5 410.5,-283.75 513.5,-283.75 513.5,-304.5"/>
<text text-anchor="middle" x="462" y="-291" font-family="Helvetica,sans-Serif" font-size="10.00">crypto_contexts.h</text>
</a>
</g>
</g>
<!-- Node17&#45;&gt;Node18 -->
<g id="edge25_Node000017_Node000018" class="edge">
<title>Node17&#45;&gt;Node18</title>
<g id="a_edge25_Node000017_Node000018"><a xlink:title=" ">
<path fill="none" stroke="#63b8ff" d="M427.51,-340.09C433.12,-332.77 440.97,-322.54 447.76,-313.69"/>
<polygon fill="#63b8ff" stroke="#63b8ff" points="450.33,-316.09 453.64,-306.03 444.77,-311.83 450.33,-316.09"/>
</a>
</g>
</g>
<!-- Node18&#45;&gt;Node5 -->
<g id="edge26_Node000018_Node000005" class="edge">
<title>Node18&#45;&gt;Node5</title>
<g id="a_edge26_Node000018_Node000005"><a xlink:title=" ">
<path fill="none" stroke="#63b8ff" d="M476.01,-283.44C492.31,-270.9 515.72,-248.13 505,-227 498.61,-214.4 486.88,-204.45 475.34,-197.13"/>
<polygon fill="#63b8ff" stroke="#63b8ff" points="477.09,-194.1 466.69,-192.12 473.59,-200.16 477.09,-194.1"/>
</a>
</g>
</g>
<!-- Node19 -->
<g id="Node000019" class="node">
<title>Node19</title>
<g id="a_Node000019"><a xlink:href="crypto__includes_8h_source.html" target="_top" xlink:title=" ">
<polygon fill="white" stroke="#666666" points="495.88,-247.75 374.12,-247.75 374.12,-227 495.88,-227 495.88,-247.75"/>
<text text-anchor="middle" x="435" y="-234.25" font-family="Helvetica,sans-Serif" font-size="10.00">psa/crypto_includes.h</text>
</a>
</g>
</g>
<!-- Node18&#45;&gt;Node19 -->
<g id="edge27_Node000018_Node000019" class="edge">
<title>Node18&#45;&gt;Node19</title>
<g id="a_edge27_Node000018_Node000019"><a xlink:title=" ">
<path fill="none" stroke="#63b8ff" d="M457.17,-283.34C453.76,-276.41 449.05,-266.87 444.86,-258.36"/>
<polygon fill="#63b8ff" stroke="#63b8ff" points="448.02,-256.86 440.45,-249.44 441.74,-259.95 448.02,-256.86"/>
</a>
</g>
</g>
<!-- Node19&#45;&gt;Node5 -->
<g id="edge28_Node000019_Node000005" class="edge">
<title>Node19&#45;&gt;Node5</title>
<g id="a_edge28_Node000019_Node000005"><a xlink:title=" ">
<path fill="none" stroke="#63b8ff" d="M436.43,-226.59C437.41,-219.89 438.74,-210.76 439.95,-202.48"/>
<polygon fill="#63b8ff" stroke="#63b8ff" points="443.38,-203.23 441.36,-192.83 436.45,-202.21 443.38,-203.23"/>
</a>
</g>
</g>
<!-- Node20&#45;&gt;Node2 -->
<g id="edge36_Node000020_Node000002" class="edge">
<title>Node20&#45;&gt;Node2</title>
<g id="a_edge36_Node000020_Node000002"><a xlink:title=" ">
<path fill="none" stroke="#63b8ff" d="M398.28,-510.62C379.19,-491.95 336.55,-450.24 312.12,-426.35"/>
<polygon fill="#63b8ff" stroke="#63b8ff" points="314.7,-423.97 305.1,-419.48 309.8,-428.98 314.7,-423.97"/>
</a>
</g>
</g>
<!-- Node21 -->
<g id="Node000021" class="node">
<title>Node21</title>
<g id="a_Node000021"><a xlink:href="clist_8h.html" target="_top" xlink:title="Circular linked list.">
<polygon fill="white" stroke="#666666" points="652.62,-474.75 607.38,-474.75 607.38,-454 652.62,-454 652.62,-474.75"/>
<text text-anchor="middle" x="630" y="-461.25" font-family="Helvetica,sans-Serif" font-size="10.00">clist.h</text>
</a>
</g>
</g>
<!-- Node20&#45;&gt;Node21 -->
<g id="edge32_Node000020_Node000021" class="edge">
<title>Node20&#45;&gt;Node21</title>
<g id="a_edge32_Node000020_Node000021"><a xlink:title=" ">
<path fill="none" stroke="#63b8ff" d="M447.95,-510.27C490.21,-499.85 556.19,-483.58 596.04,-473.75"/>
<polygon fill="#63b8ff" stroke="#63b8ff" points="596.68,-477.2 605.56,-471.4 595.01,-470.4 596.68,-477.2"/>
</a>
</g>
</g>
<!-- Node24 -->
<g id="Node000024" class="node">
<title>Node24</title>
<g id="a_Node000024"><a xlink:href="psa__crypto__se__management_8h.html" target="_top" xlink:title="PSA Secure Element management function declarations.">
<polygon fill="white" stroke="#666666" points="265.62,-474.75 100.38,-474.75 100.38,-454 265.62,-454 265.62,-474.75"/>
<text text-anchor="middle" x="183" y="-461.25" font-family="Helvetica,sans-Serif" font-size="10.00">psa_crypto_se_management.h</text>
</a>
</g>
</g>
<!-- Node20&#45;&gt;Node24 -->
<g id="edge37_Node000020_Node000024" class="edge">
<title>Node20&#45;&gt;Node24</title>
<g id="a_edge37_Node000020_Node000024"><a xlink:title=" ">
<path fill="none" stroke="#63b8ff" d="M367.51,-510.27C330.28,-501.21 274.88,-487.73 234.5,-477.91"/>
<polygon fill="#63b8ff" stroke="#63b8ff" points="235.55,-474.56 225.01,-475.6 233.9,-481.36 235.55,-474.56"/>
</a>
</g>
</g>
<!-- Node21&#45;&gt;Node12 -->
<g id="edge34_Node000021_Node000012" class="edge">
<title>Node21&#45;&gt;Node12</title>
<g id="a_edge34_Node000021_Node000012"><a xlink:title=" ">
<path fill="none" stroke="#63b8ff" d="M625.57,-453.77C617.23,-434.74 600,-390.76 600,-351.88 600,-351.88 600,-351.88 600,-179.62 600,-145.27 581.7,-108.85 568.7,-87.32"/>
<polygon fill="#63b8ff" stroke="#63b8ff" points="571.78,-85.64 563.49,-79.04 565.86,-89.37 571.78,-85.64"/>
</a>
</g>
</g>
<!-- Node22 -->
<g id="Node000022" class="node">
<title>Node22</title>
<g id="a_Node000022"><a xlink:title=" ">
<polygon fill="#e0e0e0" stroke="#999999" points="689.5,-418 628.5,-418 628.5,-397.25 689.5,-397.25 689.5,-418"/>
<text text-anchor="middle" x="659" y="-404.5" font-family="Helvetica,sans-Serif" font-size="10.00">stdbool.h</text>
</a>
</g>
</g>
<!-- Node21&#45;&gt;Node22 -->
<g id="edge33_Node000021_Node000022" class="edge">
<title>Node21&#45;&gt;Node22</title>
<g id="a_edge33_Node000021_Node000022"><a xlink:title=" ">
<path fill="none" stroke="#63b8ff" d="M635.18,-453.59C638.9,-446.58 644.02,-436.91 648.56,-428.33"/>
<polygon fill="#63b8ff" stroke="#63b8ff" points="651.56,-430.14 653.15,-419.67 645.38,-426.86 651.56,-430.14"/>
</a>
</g>
</g>
<!-- Node23 -->
<g id="Node000023" class="node">
<title>Node23</title>
<g id="a_Node000023"><a xlink:href="list_8h.html" target="_top" xlink:title="Intrusive linked list.">
<polygon fill="white" stroke="#666666" points="748,-418 708,-418 708,-397.25 748,-397.25 748,-418"/>
<text text-anchor="middle" x="728" y="-404.5" font-family="Helvetica,sans-Serif" font-size="10.00">list.h</text>
</a>
</g>
</g>
<!-- Node21&#45;&gt;Node23 -->
<g id="edge35_Node000021_Node000023" class="edge">
<title>Node21&#45;&gt;Node23</title>
<g id="a_edge35_Node000021_Node000023"><a xlink:title=" ">
<path fill="none" stroke="#63b8ff" d="M647.52,-453.59C662.29,-445.33 683.68,-433.38 700.7,-423.88"/>
<polygon fill="#63b8ff" stroke="#63b8ff" points="702.29,-427 709.31,-419.07 698.87,-420.89 702.29,-427"/>
</a>
</g>
</g>
<!-- Node24&#45;&gt;Node2 -->
<g id="edge38_Node000024_Node000002" class="edge">
<title>Node24&#45;&gt;Node2</title>
<g id="a_edge38_Node000024_Node000002"><a xlink:title=" ">
<path fill="none" stroke="#63b8ff" d="M202.84,-453.59C219.89,-445.18 244.72,-432.93 264.16,-423.34"/>
<polygon fill="#63b8ff" stroke="#63b8ff" points="265.55,-426.56 272.97,-419 262.45,-420.28 265.55,-426.56"/>
</a>
</g>
</g>
<!-- Node25 -->
<g id="Node000025" class="node">
<title>Node25</title>
<g id="a_Node000025"><a xlink:href="psa__crypto__se__driver_8h.html" target="_top" xlink:title="PSA external cryptoprocessor driver module.">
<polygon fill="white" stroke="#666666" points="136.25,-304.5 7.75,-304.5 7.75,-283.75 136.25,-283.75 136.25,-304.5"/>
<text text-anchor="middle" x="72" y="-291" font-family="Helvetica,sans-Serif" font-size="10.00">psa_crypto_se_driver.h</text>
</a>
</g>
</g>
<!-- Node24&#45;&gt;Node25 -->
<g id="edge39_Node000024_Node000025" class="edge">
<title>Node24&#45;&gt;Node25</title>
<g id="a_edge39_Node000024_Node000025"><a xlink:title=" ">
<path fill="none" stroke="#63b8ff" d="M176.71,-453.85C159.02,-427.02 108.51,-350.46 84.7,-314.38"/>
<polygon fill="#63b8ff" stroke="#63b8ff" points="87.76,-312.65 79.33,-306.23 81.91,-316.51 87.76,-312.65"/>
</a>
</g>
</g>
<!-- Node25&#45;&gt;Node3 -->
<g id="edge41_Node000025_Node000003" class="edge">
<title>Node25&#45;&gt;Node3</title>
<g id="a_edge41_Node000025_Node000003"><a xlink:title=" ">
<path fill="none" stroke="#63b8ff" d="M75.58,-283.34C78.08,-276.49 81.51,-267.09 84.59,-258.65"/>
<polygon fill="#63b8ff" stroke="#63b8ff" points="87.79,-260.09 87.94,-249.5 81.22,-257.69 87.79,-260.09"/>
</a>
</g>
</g>
<!-- Node25&#45;&gt;Node8 -->
<g id="edge40_Node000025_Node000008" class="edge">
<title>Node25&#45;&gt;Node8</title>
<g id="a_edge40_Node000025_Node000008"><a xlink:title=" ">
<path fill="none" stroke="#63b8ff" d="M60.11,-283.44C39.66,-265.62 0,-225.41 0,-181.62 0,-181.62 0,-181.62 0,-122.88 0,-32.98 138.35,-15.22 207.12,-11.95"/>
<polygon fill="#63b8ff" stroke="#63b8ff" points="206.94,-15.46 216.8,-11.58 206.67,-8.47 206.94,-15.46"/>
</a>
</g>
</g>
<!-- Node25&#45;&gt;Node14 -->
<g id="edge42_Node000025_Node000014" class="edge">
<title>Node25&#45;&gt;Node14</title>
<g id="a_edge42_Node000025_Node000014"><a xlink:title=" ">
<path fill="none" stroke="#63b8ff" d="M91.84,-283.34C108.89,-274.93 133.72,-262.68 153.16,-253.09"/>
<polygon fill="#63b8ff" stroke="#63b8ff" points="154.55,-256.31 161.97,-248.75 151.45,-250.03 154.55,-256.31"/>
</a>
</g>
</g>
<!-- Node25&#45;&gt;Node15 -->
<g id="edge43_Node000025_Node000015" class="edge">
<title>Node25&#45;&gt;Node15</title>
<g id="a_edge43_Node000025_Node000015"><a xlink:title=" ">
<path fill="none" stroke="#63b8ff" d="M65.6,-283.69C57.18,-269.98 44.82,-244.34 57,-227 72.95,-204.3 101.41,-192.9 127.26,-187.2"/>
<polygon fill="#63b8ff" stroke="#63b8ff" points="127.87,-190.65 137.02,-185.32 126.54,-183.78 127.87,-190.65"/>
</a>
</g>
</g>
</g>
</svg>
