<?xml version="1.0" encoding="UTF-8" standalone="no"?>
<!DOCTYPE svg PUBLIC "-//W3C//DTD SVG 1.1//EN"
 "http://www.w3.org/Graphics/SVG/1.1/DTD/svg11.dtd">
<!-- Generated by graphviz version 12.1.1 (0)
 -->
<!-- Title: pkg/driver_cryptocell_310/include/psa_periph_aes_ctx.h Pages: 1 -->
<svg width="367pt" height="281pt"
 viewBox="0.00 0.00 367.00 281.25" xmlns="http://www.w3.org/2000/svg" xmlns:xlink="http://www.w3.org/1999/xlink">
<g id="graph0" class="graph" transform="scale(1 1) rotate(0) translate(4 277.25)">
<title>pkg/driver_cryptocell_310/include/psa_periph_aes_ctx.h</title>
<!-- Node1 -->
<g id="Node000001" class="node">
<title>Node1</title>
<g id="a_Node000001"><a xlink:title="CryptoCell 310 driver specific AES contexts.">
<polygon fill="#999999" stroke="#666666" points="152.38,-273.25 18.62,-273.25 18.62,-227 152.38,-227 152.38,-273.25"/>
<text text-anchor="start" x="26.62" y="-259.75" font-family="Helvetica,sans-Serif" font-size="10.00">pkg/driver_cryptocell</text>
<text text-anchor="start" x="26.62" y="-247" font-family="Helvetica,sans-Serif" font-size="10.00">_310/include/psa_periph</text>
<text text-anchor="middle" x="85.5" y="-234.25" font-family="Helvetica,sans-Serif" font-size="10.00">_aes_ctx.h</text>
</a>
</g>
</g>
<!-- Node2 -->
<g id="Node000002" class="node">
<title>Node2</title>
<g id="a_Node000002"><a xlink:title=" ">
<polygon fill="#e0e0e0" stroke="#999999" points="68,-191 7,-191 7,-170.25 68,-170.25 68,-191"/>
<text text-anchor="middle" x="37.5" y="-177.5" font-family="Helvetica,sans-Serif" font-size="10.00">ssi_aes.h</text>
</a>
</g>
</g>
<!-- Node1&#45;&gt;Node2 -->
<g id="edge1_Node000001_Node000002" class="edge">
<title>Node1&#45;&gt;Node2</title>
<g id="a_edge1_Node000001_Node000002"><a xlink:title=" ">
<path fill="none" stroke="#63b8ff" d="M69.52,-226.65C63.53,-218.24 56.8,-208.77 51.06,-200.69"/>
<polygon fill="#63b8ff" stroke="#63b8ff" points="53.97,-198.75 45.32,-192.62 48.26,-202.8 53.97,-198.75"/>
</a>
</g>
</g>
<!-- Node3 -->
<g id="Node000003" class="node">
<title>Node3</title>
<g id="a_Node000003"><a xlink:href="kernel__defines_8h.html" target="_top" xlink:title="Common macros and compiler attributes/pragmas configuration.">
<polygon fill="white" stroke="#666666" points="182.62,-191 86.38,-191 86.38,-170.25 182.62,-170.25 182.62,-191"/>
<text text-anchor="middle" x="134.5" y="-177.5" font-family="Helvetica,sans-Serif" font-size="10.00">kernel_defines.h</text>
</a>
</g>
</g>
<!-- Node1&#45;&gt;Node3 -->
<g id="edge2_Node000001_Node000003" class="edge">
<title>Node1&#45;&gt;Node3</title>
<g id="a_edge2_Node000001_Node000003"><a xlink:title=" ">
<path fill="none" stroke="#63b8ff" d="M101.82,-226.65C107.92,-218.24 114.8,-208.77 120.66,-200.69"/>
<polygon fill="#63b8ff" stroke="#63b8ff" points="123.48,-202.76 126.52,-192.62 117.81,-198.65 123.48,-202.76"/>
</a>
</g>
</g>
<!-- Node4 -->
<g id="Node000004" class="node">
<title>Node4</title>
<g id="a_Node000004"><a xlink:href="modules_8h.html" target="_top" xlink:title="Common macros and compiler attributes/pragmas configuration.">
<polygon fill="white" stroke="#666666" points="67,-134.25 0,-134.25 0,-113.5 67,-113.5 67,-134.25"/>
<text text-anchor="middle" x="33.5" y="-120.75" font-family="Helvetica,sans-Serif" font-size="10.00">modules.h</text>
</a>
</g>
</g>
<!-- Node3&#45;&gt;Node4 -->
<g id="edge3_Node000003_Node000004" class="edge">
<title>Node3&#45;&gt;Node4</title>
<g id="a_edge3_Node000003_Node000004"><a xlink:title=" ">
<path fill="none" stroke="#63b8ff" d="M116.44,-169.84C101.08,-161.51 78.76,-149.41 61.14,-139.86"/>
<polygon fill="#63b8ff" stroke="#63b8ff" points="63.19,-136.99 52.73,-135.3 59.85,-143.14 63.19,-136.99"/>
</a>
</g>
</g>
<!-- Node5 -->
<g id="Node000005" class="node">
<title>Node5</title>
<g id="a_Node000005"><a xlink:href="riot__version_8h.html" target="_top" xlink:title="Common macros and compiler attributes/pragmas configuration.">
<polygon fill="white" stroke="#666666" points="135.88,-77.5 53.12,-77.5 53.12,-56.75 135.88,-56.75 135.88,-77.5"/>
<text text-anchor="middle" x="94.5" y="-64" font-family="Helvetica,sans-Serif" font-size="10.00">riot_version.h</text>
</a>
</g>
</g>
<!-- Node3&#45;&gt;Node5 -->
<g id="edge4_Node000003_Node000005" class="edge">
<title>Node3&#45;&gt;Node5</title>
<g id="a_edge4_Node000003_Node000005"><a xlink:title=" ">
<path fill="none" stroke="#63b8ff" d="M130.17,-169.99C126.14,-160.87 120.09,-146.76 115.5,-134.25 109.9,-119.01 104.38,-101.5 100.4,-88.32"/>
<polygon fill="#63b8ff" stroke="#63b8ff" points="103.86,-87.67 97.66,-79.08 97.15,-89.67 103.86,-87.67"/>
</a>
</g>
</g>
<!-- Node7 -->
<g id="Node000007" class="node">
<title>Node7</title>
<g id="a_Node000007"><a xlink:href="compiler__hints_8h.html" target="_top" xlink:title="Common macros and compiler attributes/pragmas configuration.">
<polygon fill="white" stroke="#666666" points="221,-134.25 124,-134.25 124,-113.5 221,-113.5 221,-134.25"/>
<text text-anchor="middle" x="172.5" y="-120.75" font-family="Helvetica,sans-Serif" font-size="10.00">compiler_hints.h</text>
</a>
</g>
</g>
<!-- Node3&#45;&gt;Node7 -->
<g id="edge6_Node000003_Node000007" class="edge">
<title>Node3&#45;&gt;Node7</title>
<g id="a_edge6_Node000003_Node000007"><a xlink:title=" ">
<path fill="none" stroke="#63b8ff" d="M141.29,-169.84C146.27,-162.67 153.17,-152.73 159.22,-144.01"/>
<polygon fill="#63b8ff" stroke="#63b8ff" points="162.08,-146.03 164.9,-135.82 156.32,-142.04 162.08,-146.03"/>
</a>
</g>
</g>
<!-- Node9 -->
<g id="Node000009" class="node">
<title>Node9</title>
<g id="a_Node000009"><a xlink:href="container_8h.html" target="_top" xlink:title="Common macros and compiler attributes/pragmas configuration.">
<polygon fill="white" stroke="#666666" points="310.88,-134.25 240.12,-134.25 240.12,-113.5 310.88,-113.5 310.88,-134.25"/>
<text text-anchor="middle" x="275.5" y="-120.75" font-family="Helvetica,sans-Serif" font-size="10.00">container.h</text>
</a>
</g>
</g>
<!-- Node3&#45;&gt;Node9 -->
<g id="edge10_Node000003_Node000009" class="edge">
<title>Node3&#45;&gt;Node9</title>
<g id="a_edge10_Node000003_Node000009"><a xlink:title=" ">
<path fill="none" stroke="#63b8ff" d="M159.71,-169.84C182.06,-161.16 214.96,-148.38 239.98,-138.67"/>
<polygon fill="#63b8ff" stroke="#63b8ff" points="241.04,-142.01 249.1,-135.13 238.51,-135.48 241.04,-142.01"/>
</a>
</g>
</g>
<!-- Node6 -->
<g id="Node000006" class="node">
<title>Node6</title>
<g id="a_Node000006"><a xlink:title=" ">
<polygon fill="#e0e0e0" stroke="#999999" points="217.88,-20.75 165.12,-20.75 165.12,0 217.88,0 217.88,-20.75"/>
<text text-anchor="middle" x="191.5" y="-7.25" font-family="Helvetica,sans-Serif" font-size="10.00">stdint.h</text>
</a>
</g>
</g>
<!-- Node5&#45;&gt;Node6 -->
<g id="edge5_Node000005_Node000006" class="edge">
<title>Node5&#45;&gt;Node6</title>
<g id="a_edge5_Node000005_Node000006"><a xlink:title=" ">
<path fill="none" stroke="#63b8ff" d="M111.84,-56.34C126.46,-48.08 147.64,-36.13 164.48,-26.63"/>
<polygon fill="#63b8ff" stroke="#63b8ff" points="166,-29.79 172.99,-21.82 162.56,-23.69 166,-29.79"/>
</a>
</g>
</g>
<!-- Node7&#45;&gt;Node6 -->
<g id="edge9_Node000007_Node000006" class="edge">
<title>Node7&#45;&gt;Node6</title>
<g id="a_edge9_Node000007_Node000006"><a xlink:title=" ">
<path fill="none" stroke="#63b8ff" d="M174.11,-113.01C176.23,-100.08 180.08,-76.71 183.5,-56.75 184.87,-48.77 186.4,-40.02 187.76,-32.34"/>
<polygon fill="#63b8ff" stroke="#63b8ff" points="191.19,-33.06 189.49,-22.6 184.3,-31.83 191.19,-33.06"/>
</a>
</g>
</g>
<!-- Node8 -->
<g id="Node000008" class="node">
<title>Node8</title>
<g id="a_Node000008"><a xlink:href="assert_8h.html" target="_top" xlink:title="POSIX.1&#45;2008 compliant version of the assert macro.">
<polygon fill="white" stroke="#666666" points="247,-77.5 192,-77.5 192,-56.75 247,-56.75 247,-77.5"/>
<text text-anchor="middle" x="219.5" y="-64" font-family="Helvetica,sans-Serif" font-size="10.00">assert.h</text>
</a>
</g>
</g>
<!-- Node7&#45;&gt;Node8 -->
<g id="edge7_Node000007_Node000008" class="edge">
<title>Node7&#45;&gt;Node8</title>
<g id="a_edge7_Node000007_Node000008"><a xlink:title=" ">
<path fill="none" stroke="#63b8ff" d="M180.9,-113.09C187.25,-105.69 196.15,-95.32 203.8,-86.41"/>
<polygon fill="#63b8ff" stroke="#63b8ff" points="206.33,-88.84 210.18,-78.98 201.01,-84.28 206.33,-88.84"/>
</a>
</g>
</g>
<!-- Node8&#45;&gt;Node6 -->
<g id="edge8_Node000008_Node000006" class="edge">
<title>Node8&#45;&gt;Node6</title>
<g id="a_edge8_Node000008_Node000006"><a xlink:title=" ">
<path fill="none" stroke="#63b8ff" d="M214.49,-56.34C210.91,-49.33 205.96,-39.66 201.58,-31.08"/>
<polygon fill="#63b8ff" stroke="#63b8ff" points="204.82,-29.74 197.15,-22.43 198.59,-32.92 204.82,-29.74"/>
</a>
</g>
</g>
<!-- Node9&#45;&gt;Node6 -->
<g id="edge12_Node000009_Node000006" class="edge">
<title>Node9&#45;&gt;Node6</title>
<g id="a_edge12_Node000009_Node000006"><a xlink:title=" ">
<path fill="none" stroke="#63b8ff" d="M274.73,-113.02C273.22,-99.26 268.86,-74.05 256.5,-56.75 247.75,-44.5 234.61,-34.44 222.43,-26.93"/>
<polygon fill="#63b8ff" stroke="#63b8ff" points="224.26,-23.95 213.85,-21.98 220.77,-30.01 224.26,-23.95"/>
</a>
</g>
</g>
<!-- Node10 -->
<g id="Node000010" class="node">
<title>Node10</title>
<g id="a_Node000010"><a xlink:title=" ">
<polygon fill="#e0e0e0" stroke="#999999" points="359,-77.5 304,-77.5 304,-56.75 359,-56.75 359,-77.5"/>
<text text-anchor="middle" x="331.5" y="-64" font-family="Helvetica,sans-Serif" font-size="10.00">stddef.h</text>
</a>
</g>
</g>
<!-- Node9&#45;&gt;Node10 -->
<g id="edge11_Node000009_Node000010" class="edge">
<title>Node9&#45;&gt;Node10</title>
<g id="a_edge11_Node000009_Node000010"><a xlink:title=" ">
<path fill="none" stroke="#63b8ff" d="M285.51,-113.09C293.24,-105.53 304.13,-94.89 313.37,-85.85"/>
<polygon fill="#63b8ff" stroke="#63b8ff" points="315.79,-88.38 320.49,-78.89 310.9,-83.37 315.79,-88.38"/>
</a>
</g>
</g>
</g>
</svg>
