<?xml version="1.0" encoding="UTF-8" standalone="no"?>
<!DOCTYPE svg PUBLIC "-//W3C//DTD SVG 1.1//EN"
 "http://www.w3.org/Graphics/SVG/1.1/DTD/svg11.dtd">
<!-- Generated by graphviz version 12.1.1 (0)
 -->
<!-- Title: sys/posix/pthread/include/pthread_rwlock.h Pages: 1 -->
<svg width="342pt" height="155pt"
 viewBox="0.00 0.00 342.00 155.00" xmlns="http://www.w3.org/2000/svg" xmlns:xlink="http://www.w3.org/1999/xlink">
<g id="graph0" class="graph" transform="scale(1 1) rotate(0) translate(4 151)">
<title>sys/posix/pthread/include/pthread_rwlock.h</title>
<!-- Node1 -->
<g id="Node000001" class="node">
<title>Node1</title>
<g id="a_Node000001"><a xlink:title="Implementation of a fair, POSIX conforming reader/writer lock.">
<polygon fill="#999999" stroke="#666666" points="263.75,-147 123.25,-147 123.25,-113.5 263.75,-113.5 263.75,-147"/>
<text text-anchor="start" x="131.25" y="-133.5" font-family="Helvetica,sans-Serif" font-size="10.00">sys/posix/pthread/include</text>
<text text-anchor="middle" x="193.5" y="-120.75" font-family="Helvetica,sans-Serif" font-size="10.00">/pthread_rwlock.h</text>
</a>
</g>
</g>
<!-- Node2 -->
<g id="Node000002" class="node">
<title>Node2</title>
<g id="a_Node000002"><a xlink:href="priority__queue_8h.html" target="_top" xlink:title="A simple priority queue.">
<polygon fill="white" stroke="#666666" points="111.25,-77.5 15.75,-77.5 15.75,-56.75 111.25,-56.75 111.25,-77.5"/>
<text text-anchor="middle" x="63.5" y="-64" font-family="Helvetica,sans-Serif" font-size="10.00">priority_queue.h</text>
</a>
</g>
</g>
<!-- Node1&#45;&gt;Node2 -->
<g id="edge1_Node000001_Node000002" class="edge">
<title>Node1&#45;&gt;Node2</title>
<g id="a_edge1_Node000001_Node000002"><a xlink:title=" ">
<path fill="none" stroke="#63b8ff" d="M159,-113.03C139.04,-103.64 114.11,-91.92 94.73,-82.81"/>
<polygon fill="#63b8ff" stroke="#63b8ff" points="96.23,-79.65 85.69,-78.56 93.25,-85.98 96.23,-79.65"/>
</a>
</g>
</g>
<!-- Node5 -->
<g id="Node000005" class="node">
<title>Node5</title>
<g id="a_Node000005"><a xlink:title=" ">
<polygon fill="#e0e0e0" stroke="#999999" points="185.75,-77.5 129.25,-77.5 129.25,-56.75 185.75,-56.75 185.75,-77.5"/>
<text text-anchor="middle" x="157.5" y="-64" font-family="Helvetica,sans-Serif" font-size="10.00">thread.h</text>
</a>
</g>
</g>
<!-- Node1&#45;&gt;Node5 -->
<g id="edge4_Node000001_Node000005" class="edge">
<title>Node1&#45;&gt;Node5</title>
<g id="a_edge4_Node000001_Node000005"><a xlink:title=" ">
<path fill="none" stroke="#63b8ff" d="M184.04,-113.19C179.46,-105.42 173.93,-96.02 169.1,-87.82"/>
<polygon fill="#63b8ff" stroke="#63b8ff" points="172.16,-86.11 164.06,-79.27 166.12,-89.66 172.16,-86.11"/>
</a>
</g>
</g>
<!-- Node6 -->
<g id="Node000006" class="node">
<title>Node6</title>
<g id="a_Node000006"><a xlink:href="errno_8h.html" target="_top" xlink:title=" ">
<polygon fill="white" stroke="#666666" points="254.75,-77.5 204.25,-77.5 204.25,-56.75 254.75,-56.75 254.75,-77.5"/>
<text text-anchor="middle" x="229.5" y="-64" font-family="Helvetica,sans-Serif" font-size="10.00">errno.h</text>
</a>
</g>
</g>
<!-- Node1&#45;&gt;Node6 -->
<g id="edge5_Node000001_Node000006" class="edge">
<title>Node1&#45;&gt;Node6</title>
<g id="a_edge5_Node000001_Node000006"><a xlink:title=" ">
<path fill="none" stroke="#63b8ff" d="M202.96,-113.19C207.54,-105.42 213.07,-96.02 217.9,-87.82"/>
<polygon fill="#63b8ff" stroke="#63b8ff" points="220.88,-89.66 222.94,-79.27 214.84,-86.11 220.88,-89.66"/>
</a>
</g>
</g>
<!-- Node7 -->
<g id="Node000007" class="node">
<title>Node7</title>
<g id="a_Node000007"><a xlink:title=" ">
<polygon fill="#e0e0e0" stroke="#999999" points="334,-77.5 273,-77.5 273,-56.75 334,-56.75 334,-77.5"/>
<text text-anchor="middle" x="303.5" y="-64" font-family="Helvetica,sans-Serif" font-size="10.00">stdbool.h</text>
</a>
</g>
</g>
<!-- Node1&#45;&gt;Node7 -->
<g id="edge6_Node000001_Node000007" class="edge">
<title>Node1&#45;&gt;Node7</title>
<g id="a_edge6_Node000001_Node000007"><a xlink:title=" ">
<path fill="none" stroke="#63b8ff" d="M222.69,-113.03C239.19,-103.86 259.69,-92.47 275.92,-83.45"/>
<polygon fill="#63b8ff" stroke="#63b8ff" points="277.52,-86.57 284.56,-78.65 274.12,-80.45 277.52,-86.57"/>
</a>
</g>
</g>
<!-- Node3 -->
<g id="Node000003" class="node">
<title>Node3</title>
<g id="a_Node000003"><a xlink:title=" ">
<polygon fill="#e0e0e0" stroke="#999999" points="55,-20.75 0,-20.75 0,0 55,0 55,-20.75"/>
<text text-anchor="middle" x="27.5" y="-7.25" font-family="Helvetica,sans-Serif" font-size="10.00">stddef.h</text>
</a>
</g>
</g>
<!-- Node2&#45;&gt;Node3 -->
<g id="edge2_Node000002_Node000003" class="edge">
<title>Node2&#45;&gt;Node3</title>
<g id="a_edge2_Node000002_Node000003"><a xlink:title=" ">
<path fill="none" stroke="#63b8ff" d="M57.06,-56.34C52.35,-49.17 45.81,-39.23 40.08,-30.51"/>
<polygon fill="#63b8ff" stroke="#63b8ff" points="43.13,-28.78 34.71,-22.34 37.28,-32.62 43.13,-28.78"/>
</a>
</g>
</g>
<!-- Node4 -->
<g id="Node000004" class="node">
<title>Node4</title>
<g id="a_Node000004"><a xlink:title=" ">
<polygon fill="#e0e0e0" stroke="#999999" points="125.88,-20.75 73.12,-20.75 73.12,0 125.88,0 125.88,-20.75"/>
<text text-anchor="middle" x="99.5" y="-7.25" font-family="Helvetica,sans-Serif" font-size="10.00">stdint.h</text>
</a>
</g>
</g>
<!-- Node2&#45;&gt;Node4 -->
<g id="edge3_Node000002_Node000004" class="edge">
<title>Node2&#45;&gt;Node4</title>
<g id="a_edge3_Node000002_Node000004"><a xlink:title=" ">
<path fill="none" stroke="#63b8ff" d="M69.94,-56.34C74.65,-49.17 81.19,-39.23 86.92,-30.51"/>
<polygon fill="#63b8ff" stroke="#63b8ff" points="89.72,-32.62 92.29,-22.34 83.87,-28.78 89.72,-32.62"/>
</a>
</g>
</g>
</g>
</svg>
