<?xml version="1.0" encoding="UTF-8" standalone="no"?>
<!DOCTYPE svg PUBLIC "-//W3C//DTD SVG 1.1//EN"
 "http://www.w3.org/Graphics/SVG/1.1/DTD/svg11.dtd">
<!-- Generated by graphviz version 12.1.1 (0)
 -->
<!-- Title: sys/posix/pthread/include/pthread_mutex.h Pages: 1 -->
<svg width="1191pt" height="496pt"
 viewBox="0.00 0.00 1190.75 495.50" xmlns="http://www.w3.org/2000/svg" xmlns:xlink="http://www.w3.org/1999/xlink">
<g id="graph0" class="graph" transform="scale(1 1) rotate(0) translate(4 491.5)">
<title>sys/posix/pthread/include/pthread_mutex.h</title>
<!-- Node1 -->
<g id="Node000001" class="node">
<title>Node1</title>
<g id="a_Node000001"><a xlink:title="Mutual exclusion.">
<polygon fill="#999999" stroke="#666666" points="382,-487.5 241.5,-487.5 241.5,-454 382,-454 382,-487.5"/>
<text text-anchor="start" x="249.5" y="-474" font-family="Helvetica,sans-Serif" font-size="10.00">sys/posix/pthread/include</text>
<text text-anchor="middle" x="311.75" y="-461.25" font-family="Helvetica,sans-Serif" font-size="10.00">/pthread_mutex.h</text>
</a>
</g>
</g>
<!-- Node2 -->
<g id="Node000002" class="node">
<title>Node2</title>
<g id="a_Node000002"><a xlink:href="time_8h_source.html" target="_top" xlink:title=" ">
<polygon fill="white" stroke="#666666" points="291.5,-418 244,-418 244,-397.25 291.5,-397.25 291.5,-418"/>
<text text-anchor="middle" x="267.75" y="-404.5" font-family="Helvetica,sans-Serif" font-size="10.00">time.h</text>
</a>
</g>
</g>
<!-- Node1&#45;&gt;Node2 -->
<g id="edge1_Node000001_Node000002" class="edge">
<title>Node1&#45;&gt;Node2</title>
<g id="a_edge1_Node000001_Node000002"><a xlink:title=" ">
<path fill="none" stroke="#63b8ff" d="M300.19,-453.69C294.47,-445.74 287.52,-436.09 281.53,-427.77"/>
<polygon fill="#63b8ff" stroke="#63b8ff" points="284.4,-425.77 275.72,-419.7 278.72,-429.86 284.4,-425.77"/>
</a>
</g>
</g>
<!-- Node4 -->
<g id="Node000004" class="node">
<title>Node4</title>
<g id="a_Node000004"><a xlink:href="mutex_8h.html" target="_top" xlink:title="Mutex for thread synchronization.">
<polygon fill="white" stroke="#666666" points="529,-418 472.5,-418 472.5,-397.25 529,-397.25 529,-418"/>
<text text-anchor="middle" x="500.75" y="-404.5" font-family="Helvetica,sans-Serif" font-size="10.00">mutex.h</text>
</a>
</g>
</g>
<!-- Node1&#45;&gt;Node4 -->
<g id="edge4_Node000001_Node000004" class="edge">
<title>Node1&#45;&gt;Node4</title>
<g id="a_edge4_Node000001_Node000004"><a xlink:title=" ">
<path fill="none" stroke="#63b8ff" d="M361.9,-453.53C392.99,-443.48 432.36,-430.74 461.23,-421.41"/>
<polygon fill="#63b8ff" stroke="#63b8ff" points="462.25,-424.76 470.69,-418.35 460.09,-418.09 462.25,-424.76"/>
</a>
</g>
</g>
<!-- Node2&#45;&gt;Node2 -->
<g id="edge3_Node000002_Node000002" class="edge">
<title>Node2&#45;&gt;Node2</title>
<g id="a_edge3_Node000002_Node000002"><a xlink:title=" ">
<path fill="none" stroke="#63b8ff" d="M291.78,-418.2C301.41,-418.8 309.5,-415.27 309.5,-407.62 309.5,-403.32 306.94,-400.33 302.99,-398.63"/>
<polygon fill="#63b8ff" stroke="#63b8ff" points="303.67,-395.19 293.27,-397.26 302.69,-402.12 303.67,-395.19"/>
</a>
</g>
</g>
<!-- Node3 -->
<g id="Node000003" class="node">
<title>Node3</title>
<g id="a_Node000003"><a xlink:title=" ">
<polygon fill="#e0e0e0" stroke="#999999" points="71.5,-361.25 0,-361.25 0,-340.5 71.5,-340.5 71.5,-361.25"/>
<text text-anchor="middle" x="35.75" y="-347.75" font-family="Helvetica,sans-Serif" font-size="10.00">sys/types.h</text>
</a>
</g>
</g>
<!-- Node2&#45;&gt;Node3 -->
<g id="edge2_Node000002_Node000003" class="edge">
<title>Node2&#45;&gt;Node3</title>
<g id="a_edge2_Node000002_Node000003"><a xlink:title=" ">
<path fill="none" stroke="#63b8ff" d="M243.8,-400.97C205.88,-392.02 131.35,-374.44 82.56,-362.92"/>
<polygon fill="#63b8ff" stroke="#63b8ff" points="83.67,-359.59 73.13,-360.7 82.06,-366.4 83.67,-359.59"/>
</a>
</g>
</g>
<!-- Node5 -->
<g id="Node000005" class="node">
<title>Node5</title>
<g id="a_Node000005"><a xlink:title=" ">
<polygon fill="#e0e0e0" stroke="#999999" points="550.25,-77.5 495.25,-77.5 495.25,-56.75 550.25,-56.75 550.25,-77.5"/>
<text text-anchor="middle" x="522.75" y="-64" font-family="Helvetica,sans-Serif" font-size="10.00">stddef.h</text>
</a>
</g>
</g>
<!-- Node4&#45;&gt;Node5 -->
<g id="edge5_Node000004_Node000005" class="edge">
<title>Node4&#45;&gt;Node5</title>
<g id="a_edge5_Node000004_Node000005"><a xlink:title=" ">
<path fill="none" stroke="#63b8ff" d="M489.42,-396.96C467.75,-377.26 423.41,-330.37 432.75,-283.75 447.99,-207.69 490.67,-124.95 511.3,-87.95"/>
<polygon fill="#63b8ff" stroke="#63b8ff" points="514.32,-89.73 516.2,-79.31 508.22,-86.28 514.32,-89.73"/>
</a>
</g>
</g>
<!-- Node6 -->
<g id="Node000006" class="node">
<title>Node6</title>
<g id="a_Node000006"><a xlink:title=" ">
<polygon fill="#e0e0e0" stroke="#999999" points="315.12,-20.75 262.38,-20.75 262.38,0 315.12,0 315.12,-20.75"/>
<text text-anchor="middle" x="288.75" y="-7.25" font-family="Helvetica,sans-Serif" font-size="10.00">stdint.h</text>
</a>
</g>
</g>
<!-- Node4&#45;&gt;Node6 -->
<g id="edge6_Node000004_Node000006" class="edge">
<title>Node4&#45;&gt;Node6</title>
<g id="a_edge6_Node000004_Node000006"><a xlink:title=" ">
<path fill="none" stroke="#63b8ff" d="M472.23,-404.87C380.62,-398.47 99.75,-372.53 99.75,-295.12 99.75,-295.12 99.75,-295.12 99.75,-122.88 99.75,-91.13 103.06,-77.87 126.75,-56.75 161.27,-25.97 215.08,-15.91 251.1,-12.71"/>
<polygon fill="#63b8ff" stroke="#63b8ff" points="250.89,-16.23 260.61,-12.01 250.38,-9.25 250.89,-16.23"/>
</a>
</g>
</g>
<!-- Node7 -->
<g id="Node000007" class="node">
<title>Node7</title>
<g id="a_Node000007"><a xlink:title=" ">
<polygon fill="#e0e0e0" stroke="#999999" points="781.25,-134.25 720.25,-134.25 720.25,-113.5 781.25,-113.5 781.25,-134.25"/>
<text text-anchor="middle" x="750.75" y="-120.75" font-family="Helvetica,sans-Serif" font-size="10.00">stdbool.h</text>
</a>
</g>
</g>
<!-- Node4&#45;&gt;Node7 -->
<g id="edge7_Node000004_Node000007" class="edge">
<title>Node4&#45;&gt;Node7</title>
<g id="a_edge7_Node000004_Node000007"><a xlink:title=" ">
<path fill="none" stroke="#63b8ff" d="M529.4,-406.23C588.6,-403.69 723.85,-388.48 782.75,-304.5 817.53,-254.91 782.5,-179.18 762.54,-144.03"/>
<polygon fill="#63b8ff" stroke="#63b8ff" points="765.79,-142.65 757.69,-135.81 759.76,-146.2 765.79,-142.65"/>
</a>
</g>
</g>
<!-- Node8 -->
<g id="Node000008" class="node">
<title>Node8</title>
<g id="a_Node000008"><a xlink:href="architecture_8h.html" target="_top" xlink:title="Platform&#45;independent access to architecture details.">
<polygon fill="white" stroke="#666666" points="1033.5,-247.75 950,-247.75 950,-227 1033.5,-227 1033.5,-247.75"/>
<text text-anchor="middle" x="991.75" y="-234.25" font-family="Helvetica,sans-Serif" font-size="10.00">architecture.h</text>
</a>
</g>
</g>
<!-- Node4&#45;&gt;Node8 -->
<g id="edge8_Node000004_Node000008" class="edge">
<title>Node4&#45;&gt;Node8</title>
<g id="a_edge8_Node000004_Node000008"><a xlink:title=" ">
<path fill="none" stroke="#63b8ff" d="M529.27,-406.88C613.26,-407.12 857.86,-404.06 922.75,-361.25 959.04,-337.31 978.2,-287.4 986.52,-259.11"/>
<polygon fill="#63b8ff" stroke="#63b8ff" points="989.86,-260.15 989.12,-249.58 983.11,-258.31 989.86,-260.15"/>
</a>
</g>
</g>
<!-- Node12 -->
<g id="Node000012" class="node">
<title>Node12</title>
<g id="a_Node000012"><a xlink:href="kernel__defines_8h.html" target="_top" xlink:title="Common macros and compiler attributes/pragmas configuration.">
<polygon fill="white" stroke="#666666" points="393.88,-191 297.62,-191 297.62,-170.25 393.88,-170.25 393.88,-191"/>
<text text-anchor="middle" x="345.75" y="-177.5" font-family="Helvetica,sans-Serif" font-size="10.00">kernel_defines.h</text>
</a>
</g>
</g>
<!-- Node4&#45;&gt;Node12 -->
<g id="edge13_Node000004_Node000012" class="edge">
<title>Node4&#45;&gt;Node12</title>
<g id="a_edge13_Node000004_Node000012"><a xlink:title=" ">
<path fill="none" stroke="#63b8ff" d="M472.01,-400.63C449.34,-394.46 418.52,-382.63 399.75,-361.25 359.02,-314.84 349,-238.62 346.54,-202.22"/>
<polygon fill="#63b8ff" stroke="#63b8ff" points="350.06,-202.43 346.03,-192.63 343.07,-202.8 350.06,-202.43"/>
</a>
</g>
</g>
<!-- Node18 -->
<g id="Node000018" class="node">
<title>Node18</title>
<g id="a_Node000018"><a xlink:href="list_8h.html" target="_top" xlink:title="Intrusive linked list.">
<polygon fill="white" stroke="#666666" points="884.75,-134.25 844.75,-134.25 844.75,-113.5 884.75,-113.5 884.75,-134.25"/>
<text text-anchor="middle" x="864.75" y="-120.75" font-family="Helvetica,sans-Serif" font-size="10.00">list.h</text>
</a>
</g>
</g>
<!-- Node4&#45;&gt;Node18 -->
<g id="edge24_Node000004_Node000018" class="edge">
<title>Node4&#45;&gt;Node18</title>
<g id="a_edge24_Node000004_Node000018"><a xlink:title=" ">
<path fill="none" stroke="#63b8ff" d="M529.44,-404.99C622.31,-398.94 908.75,-373.88 908.75,-295.12 908.75,-295.12 908.75,-295.12 908.75,-236.38 908.75,-202.02 890.45,-165.6 877.45,-144.07"/>
<polygon fill="#63b8ff" stroke="#63b8ff" points="880.53,-142.39 872.24,-135.79 874.61,-146.12 880.53,-142.39"/>
</a>
</g>
</g>
<!-- Node19 -->
<g id="Node000019" class="node">
<title>Node19</title>
<g id="a_Node000019"><a xlink:href="core_2include_2thread_8h.html" target="_top" xlink:title="Threading API.">
<polygon fill="white" stroke="#666666" points="616,-361.25 559.5,-361.25 559.5,-340.5 616,-340.5 616,-361.25"/>
<text text-anchor="middle" x="587.75" y="-347.75" font-family="Helvetica,sans-Serif" font-size="10.00">thread.h</text>
</a>
</g>
</g>
<!-- Node4&#45;&gt;Node19 -->
<g id="edge25_Node000004_Node000019" class="edge">
<title>Node4&#45;&gt;Node19</title>
<g id="a_edge25_Node000004_Node000019"><a xlink:title=" ">
<path fill="none" stroke="#63b8ff" d="M516.3,-396.84C529.17,-388.74 547.69,-377.08 562.66,-367.67"/>
<polygon fill="#63b8ff" stroke="#63b8ff" points="564.45,-370.67 571.05,-362.38 560.72,-364.75 564.45,-370.67"/>
</a>
</g>
</g>
<!-- Node8&#45;&gt;Node6 -->
<g id="edge9_Node000008_Node000006" class="edge">
<title>Node8&#45;&gt;Node6</title>
<g id="a_edge9_Node000008_Node000006"><a xlink:title=" ">
<path fill="none" stroke="#63b8ff" d="M1033.61,-231.16C1082.52,-223.34 1153.46,-205.55 1125.75,-170.25 1025.06,-41.96 476.73,-16.8 326.71,-12.29"/>
<polygon fill="#63b8ff" stroke="#63b8ff" points="327.02,-8.8 316.92,-12.01 326.82,-15.8 327.02,-8.8"/>
</a>
</g>
</g>
<!-- Node9 -->
<g id="Node000009" class="node">
<title>Node9</title>
<g id="a_Node000009"><a xlink:href="inttypes_8h.html" target="_top" xlink:title="Adds include for missing inttype definitions.">
<polygon fill="white" stroke="#666666" points="881.12,-191 816.38,-191 816.38,-170.25 881.12,-170.25 881.12,-191"/>
<text text-anchor="middle" x="848.75" y="-177.5" font-family="Helvetica,sans-Serif" font-size="10.00">inttypes.h</text>
</a>
</g>
</g>
<!-- Node8&#45;&gt;Node9 -->
<g id="edge10_Node000008_Node000009" class="edge">
<title>Node8&#45;&gt;Node9</title>
<g id="a_edge10_Node000008_Node000009"><a xlink:title=" ">
<path fill="none" stroke="#63b8ff" d="M966.18,-226.59C943.51,-217.91 910.15,-205.13 884.77,-195.42"/>
<polygon fill="#63b8ff" stroke="#63b8ff" points="886.1,-192.18 875.51,-191.87 883.6,-198.71 886.1,-192.18"/>
</a>
</g>
</g>
<!-- Node10 -->
<g id="Node000010" class="node">
<title>Node10</title>
<g id="a_Node000010"><a xlink:title=" ">
<polygon fill="#e0e0e0" stroke="#999999" points="1117.12,-191 1064.38,-191 1064.38,-170.25 1117.12,-170.25 1117.12,-191"/>
<text text-anchor="middle" x="1090.75" y="-177.5" font-family="Helvetica,sans-Serif" font-size="10.00">limits.h</text>
</a>
</g>
</g>
<!-- Node8&#45;&gt;Node10 -->
<g id="edge11_Node000008_Node000010" class="edge">
<title>Node8&#45;&gt;Node10</title>
<g id="a_edge11_Node000008_Node000010"><a xlink:title=" ">
<path fill="none" stroke="#63b8ff" d="M1009.45,-226.59C1024.37,-218.33 1045.98,-206.38 1063.17,-196.88"/>
<polygon fill="#63b8ff" stroke="#63b8ff" points="1064.82,-199.96 1071.88,-192.06 1061.43,-193.84 1064.82,-199.96"/>
</a>
</g>
</g>
<!-- Node11 -->
<g id="Node000011" class="node">
<title>Node11</title>
<g id="a_Node000011"><a xlink:title=" ">
<polygon fill="#e0e0e0" stroke="#999999" points="1046.62,-191 936.88,-191 936.88,-170.25 1046.62,-170.25 1046.62,-191"/>
<text text-anchor="middle" x="991.75" y="-177.5" font-family="Helvetica,sans-Serif" font-size="10.00">architecture_arch.h</text>
</a>
</g>
</g>
<!-- Node8&#45;&gt;Node11 -->
<g id="edge12_Node000008_Node000011" class="edge">
<title>Node8&#45;&gt;Node11</title>
<g id="a_edge12_Node000008_Node000011"><a xlink:title=" ">
<path fill="none" stroke="#63b8ff" d="M991.75,-226.59C991.75,-219.97 991.75,-210.97 991.75,-202.77"/>
<polygon fill="#63b8ff" stroke="#63b8ff" points="995.25,-202.84 991.75,-192.84 988.25,-202.84 995.25,-202.84"/>
</a>
</g>
</g>
<!-- Node13 -->
<g id="Node000013" class="node">
<title>Node13</title>
<g id="a_Node000013"><a xlink:href="modules_8h.html" target="_top" xlink:title="Common macros and compiler attributes/pragmas configuration.">
<polygon fill="white" stroke="#666666" points="475.25,-134.25 408.25,-134.25 408.25,-113.5 475.25,-113.5 475.25,-134.25"/>
<text text-anchor="middle" x="441.75" y="-120.75" font-family="Helvetica,sans-Serif" font-size="10.00">modules.h</text>
</a>
</g>
</g>
<!-- Node12&#45;&gt;Node13 -->
<g id="edge14_Node000012_Node000013" class="edge">
<title>Node12&#45;&gt;Node13</title>
<g id="a_edge14_Node000012_Node000013"><a xlink:title=" ">
<path fill="none" stroke="#63b8ff" d="M362.91,-169.84C377.38,-161.58 398.34,-149.63 415.01,-140.13"/>
<polygon fill="#63b8ff" stroke="#63b8ff" points="416.47,-143.32 423.42,-135.33 413,-137.24 416.47,-143.32"/>
</a>
</g>
</g>
<!-- Node14 -->
<g id="Node000014" class="node">
<title>Node14</title>
<g id="a_Node000014"><a xlink:href="riot__version_8h.html" target="_top" xlink:title="Common macros and compiler attributes/pragmas configuration.">
<polygon fill="white" stroke="#666666" points="330.12,-77.5 247.38,-77.5 247.38,-56.75 330.12,-56.75 330.12,-77.5"/>
<text text-anchor="middle" x="288.75" y="-64" font-family="Helvetica,sans-Serif" font-size="10.00">riot_version.h</text>
</a>
</g>
</g>
<!-- Node12&#45;&gt;Node14 -->
<g id="edge15_Node000012_Node000014" class="edge">
<title>Node12&#45;&gt;Node14</title>
<g id="a_edge15_Node000012_Node000014"><a xlink:title=" ">
<path fill="none" stroke="#63b8ff" d="M336.63,-169.85C328.86,-161.09 317.85,-147.6 310.75,-134.25 303.09,-119.86 297.4,-102.3 293.73,-88.89"/>
<polygon fill="#63b8ff" stroke="#63b8ff" points="297.17,-88.24 291.3,-79.42 290.39,-89.98 297.17,-88.24"/>
</a>
</g>
</g>
<!-- Node15 -->
<g id="Node000015" class="node">
<title>Node15</title>
<g id="a_Node000015"><a xlink:href="compiler__hints_8h.html" target="_top" xlink:title="Common macros and compiler attributes/pragmas configuration.">
<polygon fill="white" stroke="#666666" points="263.25,-134.25 166.25,-134.25 166.25,-113.5 263.25,-113.5 263.25,-134.25"/>
<text text-anchor="middle" x="214.75" y="-120.75" font-family="Helvetica,sans-Serif" font-size="10.00">compiler_hints.h</text>
</a>
</g>
</g>
<!-- Node12&#45;&gt;Node15 -->
<g id="edge17_Node000012_Node000015" class="edge">
<title>Node12&#45;&gt;Node15</title>
<g id="a_edge17_Node000012_Node000015"><a xlink:title=" ">
<path fill="none" stroke="#63b8ff" d="M322.33,-169.84C301.75,-161.23 271.55,-148.61 248.38,-138.93"/>
<polygon fill="#63b8ff" stroke="#63b8ff" points="249.94,-135.79 239.36,-135.16 247.24,-142.25 249.94,-135.79"/>
</a>
</g>
</g>
<!-- Node17 -->
<g id="Node000017" class="node">
<title>Node17</title>
<g id="a_Node000017"><a xlink:href="container_8h.html" target="_top" xlink:title="Common macros and compiler attributes/pragmas configuration.">
<polygon fill="white" stroke="#666666" points="390.12,-134.25 319.38,-134.25 319.38,-113.5 390.12,-113.5 390.12,-134.25"/>
<text text-anchor="middle" x="354.75" y="-120.75" font-family="Helvetica,sans-Serif" font-size="10.00">container.h</text>
</a>
</g>
</g>
<!-- Node12&#45;&gt;Node17 -->
<g id="edge21_Node000012_Node000017" class="edge">
<title>Node12&#45;&gt;Node17</title>
<g id="a_edge21_Node000012_Node000017"><a xlink:title=" ">
<path fill="none" stroke="#63b8ff" d="M347.36,-169.84C348.46,-163.14 349.96,-154.01 351.32,-145.73"/>
<polygon fill="#63b8ff" stroke="#63b8ff" points="354.74,-146.51 352.91,-136.07 347.83,-145.37 354.74,-146.51"/>
</a>
</g>
</g>
<!-- Node14&#45;&gt;Node6 -->
<g id="edge16_Node000014_Node000006" class="edge">
<title>Node14&#45;&gt;Node6</title>
<g id="a_edge16_Node000014_Node000006"><a xlink:title=" ">
<path fill="none" stroke="#63b8ff" d="M288.75,-56.34C288.75,-49.72 288.75,-40.72 288.75,-32.52"/>
<polygon fill="#63b8ff" stroke="#63b8ff" points="292.25,-32.59 288.75,-22.59 285.25,-32.59 292.25,-32.59"/>
</a>
</g>
</g>
<!-- Node15&#45;&gt;Node6 -->
<g id="edge20_Node000015_Node000006" class="edge">
<title>Node15&#45;&gt;Node6</title>
<g id="a_edge20_Node000015_Node000006"><a xlink:title=" ">
<path fill="none" stroke="#63b8ff" d="M216.7,-113.23C219.77,-99.72 226.64,-74.8 238.75,-56.75 246,-45.95 256.36,-35.98 265.78,-28.16"/>
<polygon fill="#63b8ff" stroke="#63b8ff" points="267.85,-30.98 273.53,-22.03 263.52,-25.48 267.85,-30.98"/>
</a>
</g>
</g>
<!-- Node16 -->
<g id="Node000016" class="node">
<title>Node16</title>
<g id="a_Node000016"><a xlink:href="assert_8h.html" target="_top" xlink:title="POSIX.1&#45;2008 compliant version of the assert macro.">
<polygon fill="white" stroke="#666666" points="191.25,-77.5 136.25,-77.5 136.25,-56.75 191.25,-56.75 191.25,-77.5"/>
<text text-anchor="middle" x="163.75" y="-64" font-family="Helvetica,sans-Serif" font-size="10.00">assert.h</text>
</a>
</g>
</g>
<!-- Node15&#45;&gt;Node16 -->
<g id="edge18_Node000015_Node000016" class="edge">
<title>Node15&#45;&gt;Node16</title>
<g id="a_edge18_Node000015_Node000016"><a xlink:title=" ">
<path fill="none" stroke="#63b8ff" d="M205.63,-113.09C198.67,-105.61 188.88,-95.11 180.52,-86.13"/>
<polygon fill="#63b8ff" stroke="#63b8ff" points="183.2,-83.87 173.82,-78.94 178.08,-88.64 183.2,-83.87"/>
</a>
</g>
</g>
<!-- Node16&#45;&gt;Node6 -->
<g id="edge19_Node000016_Node000006" class="edge">
<title>Node16&#45;&gt;Node6</title>
<g id="a_edge19_Node000016_Node000006"><a xlink:title=" ">
<path fill="none" stroke="#63b8ff" d="M186.1,-56.34C205.56,-47.81 234.04,-35.34 256.06,-25.69"/>
<polygon fill="#63b8ff" stroke="#63b8ff" points="257.45,-28.9 265.21,-21.69 254.65,-22.49 257.45,-28.9"/>
</a>
</g>
</g>
<!-- Node17&#45;&gt;Node5 -->
<g id="edge22_Node000017_Node000005" class="edge">
<title>Node17&#45;&gt;Node5</title>
<g id="a_edge22_Node000017_Node000005"><a xlink:title=" ">
<path fill="none" stroke="#63b8ff" d="M384.79,-113.09C412.61,-104.02 454.13,-90.49 484.35,-80.64"/>
<polygon fill="#63b8ff" stroke="#63b8ff" points="485.06,-84.09 493.49,-77.66 482.9,-77.43 485.06,-84.09"/>
</a>
</g>
</g>
<!-- Node17&#45;&gt;Node6 -->
<g id="edge23_Node000017_Node000006" class="edge">
<title>Node17&#45;&gt;Node6</title>
<g id="a_edge23_Node000017_Node000006"><a xlink:title=" ">
<path fill="none" stroke="#63b8ff" d="M354.19,-113.23C353.02,-99.74 349.48,-74.83 338.75,-56.75 332.2,-45.71 322.1,-35.81 312.7,-28.1"/>
<polygon fill="#63b8ff" stroke="#63b8ff" points="314.93,-25.41 304.87,-22.08 310.66,-30.95 314.93,-25.41"/>
</a>
</g>
</g>
<!-- Node20 -->
<g id="Node000020" class="node">
<title>Node20</title>
<g id="a_Node000020"><a xlink:href="clist_8h.html" target="_top" xlink:title="Circular linked list.">
<polygon fill="white" stroke="#666666" points="722.38,-191 677.12,-191 677.12,-170.25 722.38,-170.25 722.38,-191"/>
<text text-anchor="middle" x="699.75" y="-177.5" font-family="Helvetica,sans-Serif" font-size="10.00">clist.h</text>
</a>
</g>
</g>
<!-- Node19&#45;&gt;Node20 -->
<g id="edge26_Node000019_Node000020" class="edge">
<title>Node19&#45;&gt;Node20</title>
<g id="a_edge26_Node000019_Node000020"><a xlink:title=" ">
<path fill="none" stroke="#63b8ff" d="M611.01,-340.1C626.7,-332.46 646.81,-320.45 659.75,-304.5 684.16,-274.4 693.84,-228.98 697.55,-202.61"/>
<polygon fill="#63b8ff" stroke="#63b8ff" points="701.01,-203.21 698.75,-192.86 694.06,-202.35 701.01,-203.21"/>
</a>
</g>
</g>
<!-- Node21 -->
<g id="Node000021" class="node">
<title>Node21</title>
<g id="a_Node000021"><a xlink:href="cib_8h.html" target="_top" xlink:title="Circular integer buffer interface.">
<polygon fill="white" stroke="#666666" points="238.38,-247.75 199.12,-247.75 199.12,-227 238.38,-227 238.38,-247.75"/>
<text text-anchor="middle" x="218.75" y="-234.25" font-family="Helvetica,sans-Serif" font-size="10.00">cib.h</text>
</a>
</g>
</g>
<!-- Node19&#45;&gt;Node21 -->
<g id="edge30_Node000019_Node000021" class="edge">
<title>Node19&#45;&gt;Node21</title>
<g id="a_edge30_Node000019_Node000021"><a xlink:title=" ">
<path fill="none" stroke="#63b8ff" d="M559.14,-341.64C528.01,-332.64 476.78,-317.75 432.75,-304.5 367.4,-284.84 291.08,-261.06 249.54,-248.05"/>
<polygon fill="#63b8ff" stroke="#63b8ff" points="250.82,-244.78 240.23,-245.13 248.72,-251.46 250.82,-244.78"/>
</a>
</g>
</g>
<!-- Node22 -->
<g id="Node000022" class="node">
<title>Node22</title>
<g id="a_Node000022"><a xlink:href="core_2include_2msg_8h.html" target="_top" xlink:title="Messaging API for inter process communication.">
<polygon fill="white" stroke="#666666" points="773.75,-304.5 727.75,-304.5 727.75,-283.75 773.75,-283.75 773.75,-304.5"/>
<text text-anchor="middle" x="750.75" y="-291" font-family="Helvetica,sans-Serif" font-size="10.00">msg.h</text>
</a>
</g>
</g>
<!-- Node19&#45;&gt;Node22 -->
<g id="edge32_Node000019_Node000022" class="edge">
<title>Node19&#45;&gt;Node22</title>
<g id="a_edge32_Node000019_Node000022"><a xlink:title=" ">
<path fill="none" stroke="#63b8ff" d="M616.14,-340.34C644.13,-330.94 686.91,-316.57 716.7,-306.56"/>
<polygon fill="#63b8ff" stroke="#63b8ff" points="717.63,-309.94 725.99,-303.44 715.4,-303.31 717.63,-309.94"/>
</a>
</g>
</g>
<!-- Node23 -->
<g id="Node000023" class="node">
<title>Node23</title>
<g id="a_Node000023"><a xlink:href="sched_8h.html" target="_top" xlink:title="Scheduler API definition.">
<polygon fill="white" stroke="#666666" points="671.5,-247.75 618,-247.75 618,-227 671.5,-227 671.5,-247.75"/>
<text text-anchor="middle" x="644.75" y="-234.25" font-family="Helvetica,sans-Serif" font-size="10.00">sched.h</text>
</a>
</g>
</g>
<!-- Node19&#45;&gt;Node23 -->
<g id="edge41_Node000019_Node000023" class="edge">
<title>Node19&#45;&gt;Node23</title>
<g id="a_edge41_Node000019_Node000023"><a xlink:title=" ">
<path fill="none" stroke="#63b8ff" d="M606.43,-340.12C619.17,-332.35 635.07,-320.17 642.75,-304.5 649.64,-290.44 649.76,-272.61 648.37,-259.01"/>
<polygon fill="#63b8ff" stroke="#63b8ff" points="651.88,-258.85 647.02,-249.44 644.95,-259.83 651.88,-258.85"/>
</a>
</g>
</g>
<!-- Node25 -->
<g id="Node000025" class="node">
<title>Node25</title>
<g id="a_Node000025"><a xlink:href="thread__config_8h.html" target="_top" xlink:title="Thread configuration defines.">
<polygon fill="white" stroke="#666666" points="633.62,-304.5 541.88,-304.5 541.88,-283.75 633.62,-283.75 633.62,-304.5"/>
<text text-anchor="middle" x="587.75" y="-291" font-family="Helvetica,sans-Serif" font-size="10.00">thread_config.h</text>
</a>
</g>
</g>
<!-- Node19&#45;&gt;Node25 -->
<g id="edge42_Node000019_Node000025" class="edge">
<title>Node19&#45;&gt;Node25</title>
<g id="a_edge42_Node000019_Node000025"><a xlink:title=" ">
<path fill="none" stroke="#63b8ff" d="M587.75,-340.09C587.75,-333.47 587.75,-324.47 587.75,-316.27"/>
<polygon fill="#63b8ff" stroke="#63b8ff" points="591.25,-316.34 587.75,-306.34 584.25,-316.34 591.25,-316.34"/>
</a>
</g>
</g>
<!-- Node27 -->
<g id="Node000027" class="node">
<title>Node27</title>
<g id="a_Node000027"><a xlink:title=" ">
<polygon fill="#e0e0e0" stroke="#999999" points="524.12,-304.5 441.38,-304.5 441.38,-283.75 524.12,-283.75 524.12,-304.5"/>
<text text-anchor="middle" x="482.75" y="-291" font-family="Helvetica,sans-Serif" font-size="10.00">thread_arch.h</text>
</a>
</g>
</g>
<!-- Node19&#45;&gt;Node27 -->
<g id="edge45_Node000019_Node000027" class="edge">
<title>Node19&#45;&gt;Node27</title>
<g id="a_edge45_Node000019_Node000027"><a xlink:title=" ">
<path fill="none" stroke="#63b8ff" d="M568.98,-340.09C553,-331.76 529.8,-319.66 511.49,-310.11"/>
<polygon fill="#63b8ff" stroke="#63b8ff" points="513.19,-307.05 502.7,-305.53 509.95,-313.26 513.19,-307.05"/>
</a>
</g>
</g>
<!-- Node20&#45;&gt;Node5 -->
<g id="edge28_Node000020_Node000005" class="edge">
<title>Node20&#45;&gt;Node5</title>
<g id="a_edge28_Node000020_Node000005"><a xlink:title=" ">
<path fill="none" stroke="#63b8ff" d="M684.35,-169.93C653.75,-150.65 585.05,-107.37 547.84,-83.93"/>
<polygon fill="#63b8ff" stroke="#63b8ff" points="549.85,-81.06 539.52,-78.69 546.11,-86.98 549.85,-81.06"/>
</a>
</g>
</g>
<!-- Node20&#45;&gt;Node7 -->
<g id="edge27_Node000020_Node000007" class="edge">
<title>Node20&#45;&gt;Node7</title>
<g id="a_edge27_Node000020_Node000007"><a xlink:title=" ">
<path fill="none" stroke="#63b8ff" d="M708.87,-169.84C715.83,-162.36 725.62,-151.86 733.98,-142.88"/>
<polygon fill="#63b8ff" stroke="#63b8ff" points="736.42,-145.39 740.68,-135.69 731.3,-140.62 736.42,-145.39"/>
</a>
</g>
</g>
<!-- Node20&#45;&gt;Node18 -->
<g id="edge29_Node000020_Node000018" class="edge">
<title>Node20&#45;&gt;Node18</title>
<g id="a_edge29_Node000020_Node000018"><a xlink:title=" ">
<path fill="none" stroke="#63b8ff" d="M722.69,-172.01C751.6,-162.42 801.41,-145.89 833.71,-135.18"/>
<polygon fill="#63b8ff" stroke="#63b8ff" points="834.51,-138.6 842.9,-132.13 832.31,-131.95 834.51,-138.6"/>
</a>
</g>
</g>
<!-- Node21&#45;&gt;Node16 -->
<g id="edge31_Node000021_Node000016" class="edge">
<title>Node21&#45;&gt;Node16</title>
<g id="a_edge31_Node000021_Node000016"><a xlink:title=" ">
<path fill="none" stroke="#63b8ff" d="M210.17,-226.53C195.77,-209.28 167.26,-171.8 156.75,-134.25 152.56,-119.27 154.72,-101.74 157.71,-88.49"/>
<polygon fill="#63b8ff" stroke="#63b8ff" points="160.99,-89.75 160.14,-79.19 154.22,-87.98 160.99,-89.75"/>
</a>
</g>
</g>
<!-- Node22&#45;&gt;Node6 -->
<g id="edge33_Node000022_Node000006" class="edge">
<title>Node22&#45;&gt;Node6</title>
<g id="a_edge33_Node000022_Node000006"><a xlink:title=" ">
<path fill="none" stroke="#63b8ff" d="M773.98,-292.19C863.71,-287.93 1182.75,-266.83 1182.75,-181.62 1182.75,-181.62 1182.75,-181.62 1182.75,-122.88 1182.75,-35.24 497.54,-15.59 326.89,-12.05"/>
<polygon fill="#63b8ff" stroke="#63b8ff" points="327.09,-8.56 317.02,-11.86 326.95,-15.56 327.09,-8.56"/>
</a>
</g>
</g>
<!-- Node22&#45;&gt;Node7 -->
<g id="edge34_Node000022_Node000007" class="edge">
<title>Node22&#45;&gt;Node7</title>
<g id="a_edge34_Node000022_Node000007"><a xlink:title=" ">
<path fill="none" stroke="#63b8ff" d="M750.75,-283.6C750.75,-257.23 750.75,-182.83 750.75,-146.03"/>
<polygon fill="#63b8ff" stroke="#63b8ff" points="754.25,-146.23 750.75,-136.23 747.25,-146.23 754.25,-146.23"/>
</a>
</g>
</g>
<!-- Node22&#45;&gt;Node23 -->
<g id="edge35_Node000022_Node000023" class="edge">
<title>Node22&#45;&gt;Node23</title>
<g id="a_edge35_Node000022_Node000023"><a xlink:title=" ">
<path fill="none" stroke="#63b8ff" d="M731.8,-283.34C715.67,-275.01 692.25,-262.91 673.76,-253.36"/>
<polygon fill="#63b8ff" stroke="#63b8ff" points="675.37,-250.25 664.88,-248.77 672.16,-256.47 675.37,-250.25"/>
</a>
</g>
</g>
<!-- Node23&#45;&gt;Node5 -->
<g id="edge36_Node000023_Node000005" class="edge">
<title>Node23&#45;&gt;Node5</title>
<g id="a_edge36_Node000023_Node000005"><a xlink:title=" ">
<path fill="none" stroke="#63b8ff" d="M617.71,-227.91C599.22,-220.82 575.48,-208.93 560.75,-191 536.27,-161.2 527.52,-115.67 524.42,-89.21"/>
<polygon fill="#63b8ff" stroke="#63b8ff" points="527.92,-89.02 523.46,-79.41 520.96,-89.7 527.92,-89.02"/>
</a>
</g>
</g>
<!-- Node23&#45;&gt;Node9 -->
<g id="edge37_Node000023_Node000009" class="edge">
<title>Node23&#45;&gt;Node9</title>
<g id="a_edge37_Node000023_Node000009"><a xlink:title=" ">
<path fill="none" stroke="#63b8ff" d="M671.84,-229.1C705.92,-219.96 764.86,-204.14 805.28,-193.29"/>
<polygon fill="#63b8ff" stroke="#63b8ff" points="805.94,-196.74 814.69,-190.77 804.12,-189.98 805.94,-196.74"/>
</a>
</g>
</g>
<!-- Node23&#45;&gt;Node12 -->
<g id="edge38_Node000023_Node000012" class="edge">
<title>Node23&#45;&gt;Node12</title>
<g id="a_edge38_Node000023_Node000012"><a xlink:title=" ">
<path fill="none" stroke="#63b8ff" d="M617.68,-229.07C614.68,-228.33 611.65,-227.63 608.75,-227 539.34,-212 458.78,-198.7 405.3,-190.44"/>
<polygon fill="#63b8ff" stroke="#63b8ff" points="405.89,-186.99 395.47,-188.93 404.83,-193.91 405.89,-186.99"/>
</a>
</g>
</g>
<!-- Node23&#45;&gt;Node20 -->
<g id="edge40_Node000023_Node000020" class="edge">
<title>Node23&#45;&gt;Node20</title>
<g id="a_edge40_Node000023_Node000020"><a xlink:title=" ">
<path fill="none" stroke="#63b8ff" d="M654.58,-226.59C662.17,-219.03 672.87,-208.39 681.95,-199.35"/>
<polygon fill="#63b8ff" stroke="#63b8ff" points="684.31,-201.93 688.93,-192.4 679.37,-196.97 684.31,-201.93"/>
</a>
</g>
</g>
<!-- Node24 -->
<g id="Node000024" class="node">
<title>Node24</title>
<g id="a_Node000024"><a xlink:href="native__sched_8h.html" target="_top" xlink:title="Add definitions required on the native board.">
<polygon fill="white" stroke="#666666" points="659.5,-191 570,-191 570,-170.25 659.5,-170.25 659.5,-191"/>
<text text-anchor="middle" x="614.75" y="-177.5" font-family="Helvetica,sans-Serif" font-size="10.00">native_sched.h</text>
</a>
</g>
</g>
<!-- Node23&#45;&gt;Node24 -->
<g id="edge39_Node000023_Node000024" class="edge">
<title>Node23&#45;&gt;Node24</title>
<g id="a_edge39_Node000023_Node000024"><a xlink:title=" ">
<path fill="none" stroke="#63b8ff" d="M639.39,-226.59C635.55,-219.58 630.25,-209.91 625.55,-201.33"/>
<polygon fill="#63b8ff" stroke="#63b8ff" points="628.67,-199.74 620.79,-192.66 622.53,-203.11 628.67,-199.74"/>
</a>
</g>
</g>
<!-- Node25&#45;&gt;Node23 -->
<g id="edge44_Node000025_Node000023" class="edge">
<title>Node25&#45;&gt;Node23</title>
<g id="a_edge44_Node000025_Node000023"><a xlink:title=" ">
<path fill="none" stroke="#63b8ff" d="M597.94,-283.34C605.88,-275.71 617.12,-264.92 626.59,-255.82"/>
<polygon fill="#63b8ff" stroke="#63b8ff" points="628.77,-258.58 633.56,-249.13 623.92,-253.53 628.77,-258.58"/>
</a>
</g>
</g>
<!-- Node26 -->
<g id="Node000026" class="node">
<title>Node26</title>
<g id="a_Node000026"><a xlink:title=" ">
<polygon fill="#e0e0e0" stroke="#999999" points="599.62,-247.75 531.88,-247.75 531.88,-227 599.62,-227 599.62,-247.75"/>
<text text-anchor="middle" x="565.75" y="-234.25" font-family="Helvetica,sans-Serif" font-size="10.00">cpu_conf.h</text>
</a>
</g>
</g>
<!-- Node25&#45;&gt;Node26 -->
<g id="edge43_Node000025_Node000026" class="edge">
<title>Node25&#45;&gt;Node26</title>
<g id="a_edge43_Node000025_Node000026"><a xlink:title=" ">
<path fill="none" stroke="#63b8ff" d="M583.82,-283.34C581.06,-276.49 577.29,-267.09 573.9,-258.65"/>
<polygon fill="#63b8ff" stroke="#63b8ff" points="577.19,-257.46 570.21,-249.48 570.69,-260.07 577.19,-257.46"/>
</a>
</g>
</g>
</g>
</svg>
