<?xml version="1.0" encoding="UTF-8" standalone="no"?>
<!DOCTYPE svg PUBLIC "-//W3C//DTD SVG 1.1//EN"
 "http://www.w3.org/Graphics/SVG/1.1/DTD/svg11.dtd">
<!-- Generated by graphviz version 12.1.1 (0)
 -->
<!-- Title: sys/posix/pthread/include/pthread_cond.h Pages: 1 -->
<svg width="1266pt" height="496pt"
 viewBox="0.00 0.00 1265.50 495.50" xmlns="http://www.w3.org/2000/svg" xmlns:xlink="http://www.w3.org/1999/xlink">
<g id="graph0" class="graph" transform="scale(1 1) rotate(0) translate(4 491.5)">
<title>sys/posix/pthread/include/pthread_cond.h</title>
<!-- Node1 -->
<g id="Node000001" class="node">
<title>Node1</title>
<g id="a_Node000001"><a xlink:title="RIOT POSIX condition variable API.">
<polygon fill="#999999" stroke="#666666" points="820,-487.5 679.5,-487.5 679.5,-454 820,-454 820,-487.5"/>
<text text-anchor="start" x="687.5" y="-474" font-family="Helvetica,sans-Serif" font-size="10.00">sys/posix/pthread/include</text>
<text text-anchor="middle" x="749.75" y="-461.25" font-family="Helvetica,sans-Serif" font-size="10.00">/pthread_cond.h</text>
</a>
</g>
</g>
<!-- Node2 -->
<g id="Node000002" class="node">
<title>Node2</title>
<g id="a_Node000002"><a xlink:href="time_8h_source.html" target="_top" xlink:title=" ">
<polygon fill="white" stroke="#666666" points="372.5,-418 325,-418 325,-397.25 372.5,-397.25 372.5,-418"/>
<text text-anchor="middle" x="348.75" y="-404.5" font-family="Helvetica,sans-Serif" font-size="10.00">time.h</text>
</a>
</g>
</g>
<!-- Node1&#45;&gt;Node2 -->
<g id="edge1_Node000001_Node000002" class="edge">
<title>Node1&#45;&gt;Node2</title>
<g id="a_edge1_Node000001_Node000002"><a xlink:title=" ">
<path fill="none" stroke="#63b8ff" d="M679.44,-459.03C592.99,-445.85 449.64,-424 383.79,-413.97"/>
<polygon fill="#63b8ff" stroke="#63b8ff" points="384.71,-410.57 374.29,-412.52 383.65,-417.49 384.71,-410.57"/>
</a>
</g>
</g>
<!-- Node4 -->
<g id="Node000004" class="node">
<title>Node4</title>
<g id="a_Node000004"><a xlink:href="mutex_8h.html" target="_top" xlink:title="Mutex for thread synchronization.">
<polygon fill="white" stroke="#666666" points="778,-418 721.5,-418 721.5,-397.25 778,-397.25 778,-418"/>
<text text-anchor="middle" x="749.75" y="-404.5" font-family="Helvetica,sans-Serif" font-size="10.00">mutex.h</text>
</a>
</g>
</g>
<!-- Node1&#45;&gt;Node4 -->
<g id="edge4_Node000001_Node000004" class="edge">
<title>Node1&#45;&gt;Node4</title>
<g id="a_edge4_Node000001_Node000004"><a xlink:title=" ">
<path fill="none" stroke="#63b8ff" d="M749.75,-453.69C749.75,-446.35 749.75,-437.57 749.75,-429.71"/>
<polygon fill="#63b8ff" stroke="#63b8ff" points="753.25,-429.98 749.75,-419.98 746.25,-429.98 753.25,-429.98"/>
</a>
</g>
</g>
<!-- Node28 -->
<g id="Node000028" class="node">
<title>Node28</title>
<g id="a_Node000028"><a xlink:href="priority__queue_8h.html" target="_top" xlink:title="A simple priority queue.">
<polygon fill="white" stroke="#666666" points="1257.5,-134.25 1162,-134.25 1162,-113.5 1257.5,-113.5 1257.5,-134.25"/>
<text text-anchor="middle" x="1209.75" y="-120.75" font-family="Helvetica,sans-Serif" font-size="10.00">priority_queue.h</text>
</a>
</g>
</g>
<!-- Node1&#45;&gt;Node28 -->
<g id="edge46_Node000001_Node000028" class="edge">
<title>Node1&#45;&gt;Node28</title>
<g id="a_edge46_Node000001_Node000028"><a xlink:title=" ">
<path fill="none" stroke="#63b8ff" d="M820.22,-465.9C947.06,-457.03 1200.75,-429.57 1200.75,-351.88 1200.75,-351.88 1200.75,-351.88 1200.75,-236.38 1200.75,-204.73 1204.4,-168.2 1207.05,-145.82"/>
<polygon fill="#63b8ff" stroke="#63b8ff" points="1210.48,-146.55 1208.24,-136.2 1203.54,-145.69 1210.48,-146.55"/>
</a>
</g>
</g>
<!-- Node2&#45;&gt;Node2 -->
<g id="edge3_Node000002_Node000002" class="edge">
<title>Node2&#45;&gt;Node2</title>
<g id="a_edge3_Node000002_Node000002"><a xlink:title=" ">
<path fill="none" stroke="#63b8ff" d="M372.78,-418.2C382.41,-418.8 390.5,-415.27 390.5,-407.62 390.5,-403.32 387.94,-400.33 383.99,-398.63"/>
<polygon fill="#63b8ff" stroke="#63b8ff" points="384.67,-395.19 374.27,-397.26 383.69,-402.12 384.67,-395.19"/>
</a>
</g>
</g>
<!-- Node3 -->
<g id="Node000003" class="node">
<title>Node3</title>
<g id="a_Node000003"><a xlink:title=" ">
<polygon fill="#e0e0e0" stroke="#999999" points="71.5,-361.25 0,-361.25 0,-340.5 71.5,-340.5 71.5,-361.25"/>
<text text-anchor="middle" x="35.75" y="-347.75" font-family="Helvetica,sans-Serif" font-size="10.00">sys/types.h</text>
</a>
</g>
</g>
<!-- Node2&#45;&gt;Node3 -->
<g id="edge2_Node000002_Node000003" class="edge">
<title>Node2&#45;&gt;Node3</title>
<g id="a_edge2_Node000002_Node000003"><a xlink:title=" ">
<path fill="none" stroke="#63b8ff" d="M324.8,-402.61C278.55,-394.84 173.76,-377.09 85.75,-361.25 84.76,-361.07 83.76,-360.89 82.75,-360.71"/>
<polygon fill="#63b8ff" stroke="#63b8ff" points="83.74,-357.33 73.28,-358.97 82.48,-364.22 83.74,-357.33"/>
</a>
</g>
</g>
<!-- Node5 -->
<g id="Node000005" class="node">
<title>Node5</title>
<g id="a_Node000005"><a xlink:title=" ">
<polygon fill="#e0e0e0" stroke="#999999" points="639.25,-77.5 584.25,-77.5 584.25,-56.75 639.25,-56.75 639.25,-77.5"/>
<text text-anchor="middle" x="611.75" y="-64" font-family="Helvetica,sans-Serif" font-size="10.00">stddef.h</text>
</a>
</g>
</g>
<!-- Node4&#45;&gt;Node5 -->
<g id="edge5_Node000004_Node000005" class="edge">
<title>Node4&#45;&gt;Node5</title>
<g id="a_edge5_Node000004_Node000005"><a xlink:title=" ">
<path fill="none" stroke="#63b8ff" d="M755.52,-396.86C766.15,-377.93 787.75,-334.6 787.75,-295.12 787.75,-295.12 787.75,-295.12 787.75,-179.62 787.75,-149.05 790.36,-135.14 768.75,-113.5 737.59,-82.29 686.39,-72.25 650.98,-69.18"/>
<polygon fill="#63b8ff" stroke="#63b8ff" points="651.35,-65.7 641.13,-68.49 650.86,-72.68 651.35,-65.7"/>
</a>
</g>
</g>
<!-- Node6 -->
<g id="Node000006" class="node">
<title>Node6</title>
<g id="a_Node000006"><a xlink:title=" ">
<polygon fill="#e0e0e0" stroke="#999999" points="447.12,-20.75 394.38,-20.75 394.38,0 447.12,0 447.12,-20.75"/>
<text text-anchor="middle" x="420.75" y="-7.25" font-family="Helvetica,sans-Serif" font-size="10.00">stdint.h</text>
</a>
</g>
</g>
<!-- Node4&#45;&gt;Node6 -->
<g id="edge6_Node000004_Node000006" class="edge">
<title>Node4&#45;&gt;Node6</title>
<g id="a_edge6_Node000004_Node000006"><a xlink:title=" ">
<path fill="none" stroke="#63b8ff" d="M721.4,-404.81C596.3,-396.44 99.75,-359.17 99.75,-295.12 99.75,-295.12 99.75,-295.12 99.75,-122.88 99.75,-63.57 297.72,-28.65 382.72,-16.39"/>
<polygon fill="#63b8ff" stroke="#63b8ff" points="383.02,-19.88 392.44,-15.02 382.04,-12.95 383.02,-19.88"/>
</a>
</g>
</g>
<!-- Node7 -->
<g id="Node000007" class="node">
<title>Node7</title>
<g id="a_Node000007"><a xlink:title=" ">
<polygon fill="#e0e0e0" stroke="#999999" points="701.25,-134.25 640.25,-134.25 640.25,-113.5 701.25,-113.5 701.25,-134.25"/>
<text text-anchor="middle" x="670.75" y="-120.75" font-family="Helvetica,sans-Serif" font-size="10.00">stdbool.h</text>
</a>
</g>
</g>
<!-- Node4&#45;&gt;Node7 -->
<g id="edge7_Node000004_Node000007" class="edge">
<title>Node4&#45;&gt;Node7</title>
<g id="a_edge7_Node000004_Node000007"><a xlink:title=" ">
<path fill="none" stroke="#63b8ff" d="M749.75,-396.78C749.75,-377.35 749.75,-332.68 749.75,-295.12 749.75,-295.12 749.75,-295.12 749.75,-236.38 749.75,-205.8 748.05,-195.46 730.75,-170.25 722.58,-158.34 710.26,-148.25 698.92,-140.63"/>
<polygon fill="#63b8ff" stroke="#63b8ff" points="700.93,-137.77 690.6,-135.4 697.2,-143.69 700.93,-137.77"/>
</a>
</g>
</g>
<!-- Node8 -->
<g id="Node000008" class="node">
<title>Node8</title>
<g id="a_Node000008"><a xlink:href="architecture_8h.html" target="_top" xlink:title="Platform&#45;independent access to architecture details.">
<polygon fill="white" stroke="#666666" points="1019.5,-247.75 936,-247.75 936,-227 1019.5,-227 1019.5,-247.75"/>
<text text-anchor="middle" x="977.75" y="-234.25" font-family="Helvetica,sans-Serif" font-size="10.00">architecture.h</text>
</a>
</g>
</g>
<!-- Node4&#45;&gt;Node8 -->
<g id="edge8_Node000004_Node000008" class="edge">
<title>Node4&#45;&gt;Node8</title>
<g id="a_edge8_Node000004_Node000008"><a xlink:title=" ">
<path fill="none" stroke="#63b8ff" d="M778.42,-406.32C815.6,-404.45 880.55,-395.99 921.75,-361.25 953.3,-334.65 967.94,-286.53 974.01,-259.06"/>
<polygon fill="#63b8ff" stroke="#63b8ff" points="977.38,-260.03 975.92,-249.53 970.52,-258.65 977.38,-260.03"/>
</a>
</g>
</g>
<!-- Node12 -->
<g id="Node000012" class="node">
<title>Node12</title>
<g id="a_Node000012"><a xlink:href="kernel__defines_8h.html" target="_top" xlink:title="Common macros and compiler attributes/pragmas configuration.">
<polygon fill="white" stroke="#666666" points="376.88,-191 280.62,-191 280.62,-170.25 376.88,-170.25 376.88,-191"/>
<text text-anchor="middle" x="328.75" y="-177.5" font-family="Helvetica,sans-Serif" font-size="10.00">kernel_defines.h</text>
</a>
</g>
</g>
<!-- Node4&#45;&gt;Node12 -->
<g id="edge13_Node000004_Node000012" class="edge">
<title>Node4&#45;&gt;Node12</title>
<g id="a_edge13_Node000004_Node000012"><a xlink:title=" ">
<path fill="none" stroke="#63b8ff" d="M721.17,-407.26C651.47,-407.24 470.76,-397.66 365.75,-304.5 336.54,-278.59 329.99,-230.57 328.75,-202.86"/>
<polygon fill="#63b8ff" stroke="#63b8ff" points="332.25,-202.82 328.53,-192.9 325.26,-202.97 332.25,-202.82"/>
</a>
</g>
</g>
<!-- Node18 -->
<g id="Node000018" class="node">
<title>Node18</title>
<g id="a_Node000018"><a xlink:href="list_8h.html" target="_top" xlink:title="Intrusive linked list.">
<polygon fill="white" stroke="#666666" points="759.75,-134.25 719.75,-134.25 719.75,-113.5 759.75,-113.5 759.75,-134.25"/>
<text text-anchor="middle" x="739.75" y="-120.75" font-family="Helvetica,sans-Serif" font-size="10.00">list.h</text>
</a>
</g>
</g>
<!-- Node4&#45;&gt;Node18 -->
<g id="edge24_Node000004_Node000018" class="edge">
<title>Node4&#45;&gt;Node18</title>
<g id="a_edge24_Node000004_Node000018"><a xlink:title=" ">
<path fill="none" stroke="#63b8ff" d="M778.36,-400.28C823.89,-388.3 907.75,-357.74 907.75,-295.12 907.75,-295.12 907.75,-295.12 907.75,-236.38 907.75,-205.8 910.2,-192.04 888.75,-170.25 857.66,-138.67 805.32,-128.93 771.67,-126"/>
<polygon fill="#63b8ff" stroke="#63b8ff" points="771.92,-122.51 761.71,-125.31 771.44,-129.5 771.92,-122.51"/>
</a>
</g>
</g>
<!-- Node19 -->
<g id="Node000019" class="node">
<title>Node19</title>
<g id="a_Node000019"><a xlink:href="core_2include_2thread_8h.html" target="_top" xlink:title="Threading API.">
<polygon fill="white" stroke="#666666" points="592,-361.25 535.5,-361.25 535.5,-340.5 592,-340.5 592,-361.25"/>
<text text-anchor="middle" x="563.75" y="-347.75" font-family="Helvetica,sans-Serif" font-size="10.00">thread.h</text>
</a>
</g>
</g>
<!-- Node4&#45;&gt;Node19 -->
<g id="edge25_Node000004_Node000019" class="edge">
<title>Node4&#45;&gt;Node19</title>
<g id="a_edge25_Node000004_Node000019"><a xlink:title=" ">
<path fill="none" stroke="#63b8ff" d="M721.1,-398.19C689.56,-388.91 638.65,-373.92 603.32,-363.52"/>
<polygon fill="#63b8ff" stroke="#63b8ff" points="604.47,-360.21 593.89,-360.75 602.49,-366.93 604.47,-360.21"/>
</a>
</g>
</g>
<!-- Node8&#45;&gt;Node6 -->
<g id="edge9_Node000008_Node000006" class="edge">
<title>Node8&#45;&gt;Node6</title>
<g id="a_edge9_Node000008_Node000006"><a xlink:title=" ">
<path fill="none" stroke="#63b8ff" d="M1019.88,-232.47C1073.43,-225.85 1155.45,-209.12 1124.75,-170.25 1040.4,-63.48 592.43,-23.52 458.56,-13.86"/>
<polygon fill="#63b8ff" stroke="#63b8ff" points="459.05,-10.39 448.83,-13.17 458.55,-17.37 459.05,-10.39"/>
</a>
</g>
</g>
<!-- Node9 -->
<g id="Node000009" class="node">
<title>Node9</title>
<g id="a_Node000009"><a xlink:href="inttypes_8h.html" target="_top" xlink:title="Adds include for missing inttype definitions.">
<polygon fill="white" stroke="#666666" points="880.12,-191 815.38,-191 815.38,-170.25 880.12,-170.25 880.12,-191"/>
<text text-anchor="middle" x="847.75" y="-177.5" font-family="Helvetica,sans-Serif" font-size="10.00">inttypes.h</text>
</a>
</g>
</g>
<!-- Node8&#45;&gt;Node9 -->
<g id="edge10_Node000008_Node000009" class="edge">
<title>Node8&#45;&gt;Node9</title>
<g id="a_edge10_Node000008_Node000009"><a xlink:title=" ">
<path fill="none" stroke="#63b8ff" d="M954.51,-226.59C934.08,-217.98 904.11,-205.36 881.12,-195.68"/>
<polygon fill="#63b8ff" stroke="#63b8ff" points="882.76,-192.57 872.19,-191.92 880.04,-199.02 882.76,-192.57"/>
</a>
</g>
</g>
<!-- Node10 -->
<g id="Node000010" class="node">
<title>Node10</title>
<g id="a_Node000010"><a xlink:title=" ">
<polygon fill="#e0e0e0" stroke="#999999" points="988.12,-191 935.38,-191 935.38,-170.25 988.12,-170.25 988.12,-191"/>
<text text-anchor="middle" x="961.75" y="-177.5" font-family="Helvetica,sans-Serif" font-size="10.00">limits.h</text>
</a>
</g>
</g>
<!-- Node8&#45;&gt;Node10 -->
<g id="edge11_Node000008_Node000010" class="edge">
<title>Node8&#45;&gt;Node10</title>
<g id="a_edge11_Node000008_Node000010"><a xlink:title=" ">
<path fill="none" stroke="#63b8ff" d="M974.89,-226.59C972.91,-219.81 970.2,-210.55 967.76,-202.19"/>
<polygon fill="#63b8ff" stroke="#63b8ff" points="971.17,-201.4 965.01,-192.78 964.46,-203.36 971.17,-201.4"/>
</a>
</g>
</g>
<!-- Node11 -->
<g id="Node000011" class="node">
<title>Node11</title>
<g id="a_Node000011"><a xlink:title=" ">
<polygon fill="#e0e0e0" stroke="#999999" points="1115.62,-191 1005.88,-191 1005.88,-170.25 1115.62,-170.25 1115.62,-191"/>
<text text-anchor="middle" x="1060.75" y="-177.5" font-family="Helvetica,sans-Serif" font-size="10.00">architecture_arch.h</text>
</a>
</g>
</g>
<!-- Node8&#45;&gt;Node11 -->
<g id="edge12_Node000008_Node000011" class="edge">
<title>Node8&#45;&gt;Node11</title>
<g id="a_edge12_Node000008_Node000011"><a xlink:title=" ">
<path fill="none" stroke="#63b8ff" d="M992.59,-226.59C1004.86,-218.49 1022.54,-206.83 1036.81,-197.42"/>
<polygon fill="#63b8ff" stroke="#63b8ff" points="1038.36,-200.59 1044.78,-192.16 1034.5,-194.75 1038.36,-200.59"/>
</a>
</g>
</g>
<!-- Node13 -->
<g id="Node000013" class="node">
<title>Node13</title>
<g id="a_Node000013"><a xlink:href="modules_8h.html" target="_top" xlink:title="Common macros and compiler attributes/pragmas configuration.">
<polygon fill="white" stroke="#666666" points="271.25,-134.25 204.25,-134.25 204.25,-113.5 271.25,-113.5 271.25,-134.25"/>
<text text-anchor="middle" x="237.75" y="-120.75" font-family="Helvetica,sans-Serif" font-size="10.00">modules.h</text>
</a>
</g>
</g>
<!-- Node12&#45;&gt;Node13 -->
<g id="edge14_Node000012_Node000013" class="edge">
<title>Node12&#45;&gt;Node13</title>
<g id="a_edge14_Node000012_Node000013"><a xlink:title=" ">
<path fill="none" stroke="#63b8ff" d="M312.48,-169.84C298.89,-161.66 279.28,-149.86 263.55,-140.4"/>
<polygon fill="#63b8ff" stroke="#63b8ff" points="265.55,-137.52 255.18,-135.36 261.94,-143.51 265.55,-137.52"/>
</a>
</g>
</g>
<!-- Node14 -->
<g id="Node000014" class="node">
<title>Node14</title>
<g id="a_Node000014"><a xlink:href="riot__version_8h.html" target="_top" xlink:title="Common macros and compiler attributes/pragmas configuration.">
<polygon fill="white" stroke="#666666" points="374.12,-77.5 291.38,-77.5 291.38,-56.75 374.12,-56.75 374.12,-77.5"/>
<text text-anchor="middle" x="332.75" y="-64" font-family="Helvetica,sans-Serif" font-size="10.00">riot_version.h</text>
</a>
</g>
</g>
<!-- Node12&#45;&gt;Node14 -->
<g id="edge15_Node000012_Node000014" class="edge">
<title>Node12&#45;&gt;Node14</title>
<g id="a_edge15_Node000012_Node000014"><a xlink:title=" ">
<path fill="none" stroke="#63b8ff" d="M280.48,-173.64C232.57,-165.62 169.65,-148.17 194.75,-113.5 205.13,-99.17 245.58,-86.91 280.03,-78.77"/>
<polygon fill="#63b8ff" stroke="#63b8ff" points="280.52,-82.25 289.48,-76.61 278.96,-75.42 280.52,-82.25"/>
</a>
</g>
</g>
<!-- Node15 -->
<g id="Node000015" class="node">
<title>Node15</title>
<g id="a_Node000015"><a xlink:href="compiler__hints_8h.html" target="_top" xlink:title="Common macros and compiler attributes/pragmas configuration.">
<polygon fill="white" stroke="#666666" points="386.25,-134.25 289.25,-134.25 289.25,-113.5 386.25,-113.5 386.25,-134.25"/>
<text text-anchor="middle" x="337.75" y="-120.75" font-family="Helvetica,sans-Serif" font-size="10.00">compiler_hints.h</text>
</a>
</g>
</g>
<!-- Node12&#45;&gt;Node15 -->
<g id="edge17_Node000012_Node000015" class="edge">
<title>Node12&#45;&gt;Node15</title>
<g id="a_edge17_Node000012_Node000015"><a xlink:title=" ">
<path fill="none" stroke="#63b8ff" d="M330.36,-169.84C331.46,-163.14 332.96,-154.01 334.32,-145.73"/>
<polygon fill="#63b8ff" stroke="#63b8ff" points="337.74,-146.51 335.91,-136.07 330.83,-145.37 337.74,-146.51"/>
</a>
</g>
</g>
<!-- Node17 -->
<g id="Node000017" class="node">
<title>Node17</title>
<g id="a_Node000017"><a xlink:href="container_8h.html" target="_top" xlink:title="Common macros and compiler attributes/pragmas configuration.">
<polygon fill="white" stroke="#666666" points="475.12,-134.25 404.38,-134.25 404.38,-113.5 475.12,-113.5 475.12,-134.25"/>
<text text-anchor="middle" x="439.75" y="-120.75" font-family="Helvetica,sans-Serif" font-size="10.00">container.h</text>
</a>
</g>
</g>
<!-- Node12&#45;&gt;Node17 -->
<g id="edge21_Node000012_Node000017" class="edge">
<title>Node12&#45;&gt;Node17</title>
<g id="a_edge21_Node000012_Node000017"><a xlink:title=" ">
<path fill="none" stroke="#63b8ff" d="M348.59,-169.84C365.64,-161.43 390.47,-149.18 409.91,-139.59"/>
<polygon fill="#63b8ff" stroke="#63b8ff" points="411.3,-142.81 418.72,-135.25 408.2,-136.53 411.3,-142.81"/>
</a>
</g>
</g>
<!-- Node14&#45;&gt;Node6 -->
<g id="edge16_Node000014_Node000006" class="edge">
<title>Node14&#45;&gt;Node6</title>
<g id="a_edge16_Node000014_Node000006"><a xlink:title=" ">
<path fill="none" stroke="#63b8ff" d="M348.48,-56.34C361.62,-48.16 380.59,-36.36 395.8,-26.9"/>
<polygon fill="#63b8ff" stroke="#63b8ff" points="397.23,-30.13 403.87,-21.88 393.53,-24.19 397.23,-30.13"/>
</a>
</g>
</g>
<!-- Node15&#45;&gt;Node6 -->
<g id="edge20_Node000015_Node000006" class="edge">
<title>Node15&#45;&gt;Node6</title>
<g id="a_edge20_Node000015_Node000006"><a xlink:title=" ">
<path fill="none" stroke="#63b8ff" d="M348.93,-113.13C358.58,-104.39 372.53,-90.91 382.75,-77.5 393.91,-62.86 404.16,-44.61 411.2,-31"/>
<polygon fill="#63b8ff" stroke="#63b8ff" points="414.26,-32.69 415.62,-22.18 408,-29.55 414.26,-32.69"/>
</a>
</g>
</g>
<!-- Node16 -->
<g id="Node000016" class="node">
<title>Node16</title>
<g id="a_Node000016"><a xlink:href="assert_8h.html" target="_top" xlink:title="POSIX.1&#45;2008 compliant version of the assert macro.">
<polygon fill="white" stroke="#666666" points="273.25,-77.5 218.25,-77.5 218.25,-56.75 273.25,-56.75 273.25,-77.5"/>
<text text-anchor="middle" x="245.75" y="-64" font-family="Helvetica,sans-Serif" font-size="10.00">assert.h</text>
</a>
</g>
</g>
<!-- Node15&#45;&gt;Node16 -->
<g id="edge18_Node000015_Node000016" class="edge">
<title>Node15&#45;&gt;Node16</title>
<g id="a_edge18_Node000015_Node000016"><a xlink:title=" ">
<path fill="none" stroke="#63b8ff" d="M321.3,-113.09C307.57,-104.91 287.73,-93.11 271.83,-83.65"/>
<polygon fill="#63b8ff" stroke="#63b8ff" points="273.74,-80.71 263.36,-78.6 270.16,-86.72 273.74,-80.71"/>
</a>
</g>
</g>
<!-- Node16&#45;&gt;Node6 -->
<g id="edge19_Node000016_Node000006" class="edge">
<title>Node16&#45;&gt;Node6</title>
<g id="a_edge19_Node000016_Node000006"><a xlink:title=" ">
<path fill="none" stroke="#63b8ff" d="M273.48,-57.45C303.18,-48.16 350.48,-33.36 383.43,-23.05"/>
<polygon fill="#63b8ff" stroke="#63b8ff" points="384.07,-26.52 392.57,-20.19 381.98,-19.84 384.07,-26.52"/>
</a>
</g>
</g>
<!-- Node17&#45;&gt;Node5 -->
<g id="edge22_Node000017_Node000005" class="edge">
<title>Node17&#45;&gt;Node5</title>
<g id="a_edge22_Node000017_Node000005"><a xlink:title=" ">
<path fill="none" stroke="#63b8ff" d="M470.5,-113.09C499.16,-103.96 542.01,-90.32 573,-80.46"/>
<polygon fill="#63b8ff" stroke="#63b8ff" points="573.92,-83.84 582.38,-77.47 571.79,-77.17 573.92,-83.84"/>
</a>
</g>
</g>
<!-- Node17&#45;&gt;Node6 -->
<g id="edge23_Node000017_Node000006" class="edge">
<title>Node17&#45;&gt;Node6</title>
<g id="a_edge23_Node000017_Node000006"><a xlink:title=" ">
<path fill="none" stroke="#63b8ff" d="M438.13,-113.37C435.09,-95.52 428.46,-56.61 424.32,-32.34"/>
<polygon fill="#63b8ff" stroke="#63b8ff" points="427.8,-31.94 422.67,-22.67 420.9,-33.11 427.8,-31.94"/>
</a>
</g>
</g>
<!-- Node20 -->
<g id="Node000020" class="node">
<title>Node20</title>
<g id="a_Node000020"><a xlink:href="clist_8h.html" target="_top" xlink:title="Circular linked list.">
<polygon fill="white" stroke="#666666" points="721.38,-191 676.12,-191 676.12,-170.25 721.38,-170.25 721.38,-191"/>
<text text-anchor="middle" x="698.75" y="-177.5" font-family="Helvetica,sans-Serif" font-size="10.00">clist.h</text>
</a>
</g>
</g>
<!-- Node19&#45;&gt;Node20 -->
<g id="edge26_Node000019_Node000020" class="edge">
<title>Node19&#45;&gt;Node20</title>
<g id="a_edge26_Node000019_Node000020"><a xlink:title=" ">
<path fill="none" stroke="#63b8ff" d="M592.46,-348.63C622.8,-345.62 669.41,-335.81 692.75,-304.5 714.9,-274.79 709.78,-228.9 704.18,-202.42"/>
<polygon fill="#63b8ff" stroke="#63b8ff" points="707.64,-201.84 701.94,-192.91 700.83,-203.45 707.64,-201.84"/>
</a>
</g>
</g>
<!-- Node21 -->
<g id="Node000021" class="node">
<title>Node21</title>
<g id="a_Node000021"><a xlink:href="cib_8h.html" target="_top" xlink:title="Circular integer buffer interface.">
<polygon fill="white" stroke="#666666" points="386.38,-247.75 347.12,-247.75 347.12,-227 386.38,-227 386.38,-247.75"/>
<text text-anchor="middle" x="366.75" y="-234.25" font-family="Helvetica,sans-Serif" font-size="10.00">cib.h</text>
</a>
</g>
</g>
<!-- Node19&#45;&gt;Node21 -->
<g id="edge30_Node000019_Node000021" class="edge">
<title>Node19&#45;&gt;Node21</title>
<g id="a_edge30_Node000019_Node000021"><a xlink:title=" ">
<path fill="none" stroke="#63b8ff" d="M535.3,-346.51C489.39,-340.5 401.96,-326.45 380.75,-304.5 369.27,-292.62 366.18,-273.81 365.73,-259.29"/>
<polygon fill="#63b8ff" stroke="#63b8ff" points="369.23,-259.46 365.85,-249.42 362.23,-259.38 369.23,-259.46"/>
</a>
</g>
</g>
<!-- Node22 -->
<g id="Node000022" class="node">
<title>Node22</title>
<g id="a_Node000022"><a xlink:href="core_2include_2msg_8h.html" target="_top" xlink:title="Messaging API for inter process communication.">
<polygon fill="white" stroke="#666666" points="435.75,-304.5 389.75,-304.5 389.75,-283.75 435.75,-283.75 435.75,-304.5"/>
<text text-anchor="middle" x="412.75" y="-291" font-family="Helvetica,sans-Serif" font-size="10.00">msg.h</text>
</a>
</g>
</g>
<!-- Node19&#45;&gt;Node22 -->
<g id="edge32_Node000019_Node000022" class="edge">
<title>Node19&#45;&gt;Node22</title>
<g id="a_edge32_Node000019_Node000022"><a xlink:title=" ">
<path fill="none" stroke="#63b8ff" d="M536.75,-340.09C511.55,-330.95 473.85,-317.28 446.64,-307.41"/>
<polygon fill="#63b8ff" stroke="#63b8ff" points="448.06,-304.21 437.47,-304.09 445.68,-310.79 448.06,-304.21"/>
</a>
</g>
</g>
<!-- Node23 -->
<g id="Node000023" class="node">
<title>Node23</title>
<g id="a_Node000023"><a xlink:href="sched_8h.html" target="_top" xlink:title="Scheduler API definition.">
<polygon fill="white" stroke="#666666" points="590.5,-247.75 537,-247.75 537,-227 590.5,-227 590.5,-247.75"/>
<text text-anchor="middle" x="563.75" y="-234.25" font-family="Helvetica,sans-Serif" font-size="10.00">sched.h</text>
</a>
</g>
</g>
<!-- Node19&#45;&gt;Node23 -->
<g id="edge41_Node000019_Node000023" class="edge">
<title>Node19&#45;&gt;Node23</title>
<g id="a_edge41_Node000019_Node000023"><a xlink:title=" ">
<path fill="none" stroke="#63b8ff" d="M563.75,-340.37C563.75,-322.6 563.75,-283.97 563.75,-259.68"/>
<polygon fill="#63b8ff" stroke="#63b8ff" points="567.25,-259.69 563.75,-249.69 560.25,-259.69 567.25,-259.69"/>
</a>
</g>
</g>
<!-- Node25 -->
<g id="Node000025" class="node">
<title>Node25</title>
<g id="a_Node000025"><a xlink:href="thread__config_8h.html" target="_top" xlink:title="Thread configuration defines.">
<polygon fill="white" stroke="#666666" points="683.62,-304.5 591.88,-304.5 591.88,-283.75 683.62,-283.75 683.62,-304.5"/>
<text text-anchor="middle" x="637.75" y="-291" font-family="Helvetica,sans-Serif" font-size="10.00">thread_config.h</text>
</a>
</g>
</g>
<!-- Node19&#45;&gt;Node25 -->
<g id="edge42_Node000019_Node000025" class="edge">
<title>Node19&#45;&gt;Node25</title>
<g id="a_edge42_Node000019_Node000025"><a xlink:title=" ">
<path fill="none" stroke="#63b8ff" d="M576.98,-340.09C587.71,-332.15 603.07,-320.78 615.67,-311.46"/>
<polygon fill="#63b8ff" stroke="#63b8ff" points="617.46,-314.49 623.42,-305.73 613.3,-308.86 617.46,-314.49"/>
</a>
</g>
</g>
<!-- Node27 -->
<g id="Node000027" class="node">
<title>Node27</title>
<g id="a_Node000027"><a xlink:title=" ">
<polygon fill="#e0e0e0" stroke="#999999" points="536.12,-304.5 453.38,-304.5 453.38,-283.75 536.12,-283.75 536.12,-304.5"/>
<text text-anchor="middle" x="494.75" y="-291" font-family="Helvetica,sans-Serif" font-size="10.00">thread_arch.h</text>
</a>
</g>
</g>
<!-- Node19&#45;&gt;Node27 -->
<g id="edge45_Node000019_Node000027" class="edge">
<title>Node19&#45;&gt;Node27</title>
<g id="a_edge45_Node000019_Node000027"><a xlink:title=" ">
<path fill="none" stroke="#63b8ff" d="M551.41,-340.09C541.5,-332.22 527.36,-321 515.69,-311.74"/>
<polygon fill="#63b8ff" stroke="#63b8ff" points="518.17,-309.24 508.16,-305.77 513.82,-314.73 518.17,-309.24"/>
</a>
</g>
</g>
<!-- Node20&#45;&gt;Node5 -->
<g id="edge28_Node000020_Node000005" class="edge">
<title>Node20&#45;&gt;Node5</title>
<g id="a_edge28_Node000020_Node000005"><a xlink:title=" ">
<path fill="none" stroke="#63b8ff" d="M676.42,-169.84C661.44,-162.19 642.39,-150.18 630.75,-134.25 621.04,-120.96 616.28,-102.82 613.95,-88.89"/>
<polygon fill="#63b8ff" stroke="#63b8ff" points="617.43,-88.5 612.63,-79.06 610.49,-89.44 617.43,-88.5"/>
</a>
</g>
</g>
<!-- Node20&#45;&gt;Node7 -->
<g id="edge27_Node000020_Node000007" class="edge">
<title>Node20&#45;&gt;Node7</title>
<g id="a_edge27_Node000020_Node000007"><a xlink:title=" ">
<path fill="none" stroke="#63b8ff" d="M693.74,-169.84C690.16,-162.83 685.21,-153.16 680.83,-144.58"/>
<polygon fill="#63b8ff" stroke="#63b8ff" points="684.07,-143.24 676.4,-135.93 677.84,-146.42 684.07,-143.24"/>
</a>
</g>
</g>
<!-- Node20&#45;&gt;Node18 -->
<g id="edge29_Node000020_Node000018" class="edge">
<title>Node20&#45;&gt;Node18</title>
<g id="a_edge29_Node000020_Node000018"><a xlink:title=" ">
<path fill="none" stroke="#63b8ff" d="M706.08,-169.84C711.5,-162.6 719.06,-152.51 725.64,-143.72"/>
<polygon fill="#63b8ff" stroke="#63b8ff" points="728.38,-145.89 731.58,-135.79 722.78,-141.7 728.38,-145.89"/>
</a>
</g>
</g>
<!-- Node21&#45;&gt;Node16 -->
<g id="edge31_Node000021_Node000016" class="edge">
<title>Node21&#45;&gt;Node16</title>
<g id="a_edge31_Node000021_Node000016"><a xlink:title=" ">
<path fill="none" stroke="#63b8ff" d="M346.71,-232.4C306.84,-223.25 218.49,-196.53 184.75,-134.25 173.95,-114.3 195.03,-95.71 215.31,-83.35"/>
<polygon fill="#63b8ff" stroke="#63b8ff" points="216.77,-86.54 223.73,-78.55 213.31,-80.46 216.77,-86.54"/>
</a>
</g>
</g>
<!-- Node22&#45;&gt;Node6 -->
<g id="edge33_Node000022_Node000006" class="edge">
<title>Node22&#45;&gt;Node6</title>
<g id="a_edge33_Node000022_Node000006"><a xlink:title=" ">
<path fill="none" stroke="#63b8ff" d="M418.76,-283.58C433.44,-259.62 470.89,-194.53 483.75,-134.25 492.36,-93.89 460.9,-52.25 439.37,-29.3"/>
<polygon fill="#63b8ff" stroke="#63b8ff" points="441.99,-26.97 432.5,-22.27 436.99,-31.87 441.99,-26.97"/>
</a>
</g>
</g>
<!-- Node22&#45;&gt;Node7 -->
<g id="edge34_Node000022_Node000007" class="edge">
<title>Node22&#45;&gt;Node7</title>
<g id="a_edge34_Node000022_Node000007"><a xlink:title=" ">
<path fill="none" stroke="#63b8ff" d="M428.46,-283.35C442.16,-274.58 462.35,-261.09 478.75,-247.75 517.4,-216.31 517.96,-197.37 559.75,-170.25 581.16,-156.35 607.53,-145.36 629.19,-137.67"/>
<polygon fill="#63b8ff" stroke="#63b8ff" points="630.28,-141 638.61,-134.45 628.02,-134.38 630.28,-141"/>
</a>
</g>
</g>
<!-- Node22&#45;&gt;Node23 -->
<g id="edge35_Node000022_Node000023" class="edge">
<title>Node22&#45;&gt;Node23</title>
<g id="a_edge35_Node000022_Node000023"><a xlink:title=" ">
<path fill="none" stroke="#63b8ff" d="M436.01,-284.69C459.97,-276 497.68,-262.33 525.93,-252.09"/>
<polygon fill="#63b8ff" stroke="#63b8ff" points="527,-255.42 535.21,-248.72 524.61,-248.84 527,-255.42"/>
</a>
</g>
</g>
<!-- Node23&#45;&gt;Node5 -->
<g id="edge36_Node000023_Node000005" class="edge">
<title>Node23&#45;&gt;Node5</title>
<g id="a_edge36_Node000023_Node000005"><a xlink:title=" ">
<path fill="none" stroke="#63b8ff" d="M561.44,-226.8C558.69,-213.81 555.03,-189.93 559.75,-170.25 567.19,-139.25 585.68,-107.06 598.48,-87.3"/>
<polygon fill="#63b8ff" stroke="#63b8ff" points="601.25,-89.45 603.89,-79.19 595.43,-85.57 601.25,-89.45"/>
</a>
</g>
</g>
<!-- Node23&#45;&gt;Node9 -->
<g id="edge37_Node000023_Node000009" class="edge">
<title>Node23&#45;&gt;Node9</title>
<g id="a_edge37_Node000023_Node000009"><a xlink:title=" ">
<path fill="none" stroke="#63b8ff" d="M590.82,-229.1C593.83,-228.36 596.85,-227.64 599.75,-227 670.77,-211.28 754.09,-196.85 803.81,-188.66"/>
<polygon fill="#63b8ff" stroke="#63b8ff" points="804.3,-192.12 813.6,-187.05 803.17,-185.22 804.3,-192.12"/>
</a>
</g>
</g>
<!-- Node23&#45;&gt;Node12 -->
<g id="edge38_Node000023_Node000012" class="edge">
<title>Node23&#45;&gt;Node12</title>
<g id="a_edge38_Node000023_Node000012"><a xlink:title=" ">
<path fill="none" stroke="#63b8ff" d="M536.79,-230.09C499.18,-221.33 430.16,-205.25 381.97,-194.02"/>
<polygon fill="#63b8ff" stroke="#63b8ff" points="382.82,-190.63 372.28,-191.77 381.23,-197.45 382.82,-190.63"/>
</a>
</g>
</g>
<!-- Node23&#45;&gt;Node20 -->
<g id="edge40_Node000023_Node000020" class="edge">
<title>Node23&#45;&gt;Node20</title>
<g id="a_edge40_Node000023_Node000020"><a xlink:title=" ">
<path fill="none" stroke="#63b8ff" d="M587.89,-226.59C609.46,-217.84 641.28,-204.93 665.3,-195.19"/>
<polygon fill="#63b8ff" stroke="#63b8ff" points="666.37,-198.53 674.32,-191.53 663.74,-192.05 666.37,-198.53"/>
</a>
</g>
</g>
<!-- Node24 -->
<g id="Node000024" class="node">
<title>Node24</title>
<g id="a_Node000024"><a xlink:href="native__sched_8h.html" target="_top" xlink:title="Add definitions required on the native board.">
<polygon fill="white" stroke="#666666" points="658.5,-191 569,-191 569,-170.25 658.5,-170.25 658.5,-191"/>
<text text-anchor="middle" x="613.75" y="-177.5" font-family="Helvetica,sans-Serif" font-size="10.00">native_sched.h</text>
</a>
</g>
</g>
<!-- Node23&#45;&gt;Node24 -->
<g id="edge39_Node000023_Node000024" class="edge">
<title>Node23&#45;&gt;Node24</title>
<g id="a_edge39_Node000023_Node000024"><a xlink:title=" ">
<path fill="none" stroke="#63b8ff" d="M572.69,-226.59C579.51,-219.11 589.11,-208.61 597.31,-199.63"/>
<polygon fill="#63b8ff" stroke="#63b8ff" points="599.71,-202.19 603.87,-192.45 594.54,-197.47 599.71,-202.19"/>
</a>
</g>
</g>
<!-- Node25&#45;&gt;Node23 -->
<g id="edge44_Node000025_Node000023" class="edge">
<title>Node25&#45;&gt;Node23</title>
<g id="a_edge44_Node000025_Node000023"><a xlink:title=" ">
<path fill="none" stroke="#63b8ff" d="M624.52,-283.34C613.79,-275.4 598.43,-264.03 585.83,-254.71"/>
<polygon fill="#63b8ff" stroke="#63b8ff" points="588.2,-252.11 578.08,-248.98 584.04,-257.74 588.2,-252.11"/>
</a>
</g>
</g>
<!-- Node26 -->
<g id="Node000026" class="node">
<title>Node26</title>
<g id="a_Node000026"><a xlink:title=" ">
<polygon fill="#e0e0e0" stroke="#999999" points="676.62,-247.75 608.88,-247.75 608.88,-227 676.62,-227 676.62,-247.75"/>
<text text-anchor="middle" x="642.75" y="-234.25" font-family="Helvetica,sans-Serif" font-size="10.00">cpu_conf.h</text>
</a>
</g>
</g>
<!-- Node25&#45;&gt;Node26 -->
<g id="edge43_Node000025_Node000026" class="edge">
<title>Node25&#45;&gt;Node26</title>
<g id="a_edge43_Node000025_Node000026"><a xlink:title=" ">
<path fill="none" stroke="#63b8ff" d="M638.64,-283.34C639.25,-276.72 640.07,-267.72 640.82,-259.52"/>
<polygon fill="#63b8ff" stroke="#63b8ff" points="644.3,-259.86 641.73,-249.59 637.33,-259.23 644.3,-259.86"/>
</a>
</g>
</g>
<!-- Node28&#45;&gt;Node5 -->
<g id="edge47_Node000028_Node000005" class="edge">
<title>Node28&#45;&gt;Node5</title>
<g id="a_edge47_Node000028_Node000005"><a xlink:title=" ">
<path fill="none" stroke="#63b8ff" d="M1161.57,-118.46C1046.36,-107.92 756.69,-81.39 651.07,-71.72"/>
<polygon fill="#63b8ff" stroke="#63b8ff" points="651.48,-68.25 641.2,-70.82 650.84,-75.22 651.48,-68.25"/>
</a>
</g>
</g>
<!-- Node28&#45;&gt;Node6 -->
<g id="edge48_Node000028_Node000006" class="edge">
<title>Node28&#45;&gt;Node6</title>
<g id="a_edge48_Node000028_Node000006"><a xlink:title=" ">
<path fill="none" stroke="#63b8ff" d="M1204.01,-113.05C1194.52,-97.85 1173.95,-69.08 1147.75,-56.75 1085.21,-27.31 599.26,-15.06 458.71,-12.11"/>
<polygon fill="#63b8ff" stroke="#63b8ff" points="458.9,-8.61 448.83,-11.91 458.76,-15.61 458.9,-8.61"/>
</a>
</g>
</g>
</g>
</svg>
