<?xml version="1.0" encoding="UTF-8" standalone="no"?>
<!DOCTYPE svg PUBLIC "-//W3C//DTD SVG 1.1//EN"
 "http://www.w3.org/Graphics/SVG/1.1/DTD/svg11.dtd">
<!-- Generated by graphviz version 12.1.1 (0)
 -->
<!-- Title: boards/qn9080dk/include/gpio_params.h Pages: 1 -->
<svg width="494pt" height="212pt"
 viewBox="0.00 0.00 493.75 211.75" xmlns="http://www.w3.org/2000/svg" xmlns:xlink="http://www.w3.org/1999/xlink">
<g id="graph0" class="graph" transform="scale(1 1) rotate(0) translate(4 207.75)">
<title>boards/qn9080dk/include/gpio_params.h</title>
<!-- Node1 -->
<g id="Node000001" class="node">
<title>Node1</title>
<g id="a_Node000001"><a xlink:title="Board specific configuration of direct mapped GPIOs.">
<polygon fill="#999999" stroke="#666666" points="272.25,-203.75 134,-203.75 134,-170.25 272.25,-170.25 272.25,-203.75"/>
<text text-anchor="start" x="142" y="-190.25" font-family="Helvetica,sans-Serif" font-size="10.00">boards/qn9080dk/include</text>
<text text-anchor="middle" x="203.12" y="-177.5" font-family="Helvetica,sans-Serif" font-size="10.00">/gpio_params.h</text>
</a>
</g>
</g>
<!-- Node2 -->
<g id="Node000002" class="node">
<title>Node2</title>
<g id="a_Node000002"><a xlink:href="qn9080dk_2include_2board_8h.html" target="_top" xlink:title="Board specific definitions for the QN9080DK base board.">
<polygon fill="white" stroke="#666666" points="187.5,-134.25 134.75,-134.25 134.75,-113.5 187.5,-113.5 187.5,-134.25"/>
<text text-anchor="middle" x="161.12" y="-120.75" font-family="Helvetica,sans-Serif" font-size="10.00">board.h</text>
</a>
</g>
</g>
<!-- Node1&#45;&gt;Node2 -->
<g id="edge1_Node000001_Node000002" class="edge">
<title>Node1&#45;&gt;Node2</title>
<g id="a_edge1_Node000001_Node000002"><a xlink:title=" ">
<path fill="none" stroke="#63b8ff" d="M192.09,-169.94C186.63,-161.99 180,-152.34 174.28,-144.02"/>
<polygon fill="#63b8ff" stroke="#63b8ff" points="177.29,-142.22 168.74,-135.96 171.52,-146.19 177.29,-142.22"/>
</a>
</g>
</g>
<!-- Node8 -->
<g id="Node000008" class="node">
<title>Node8</title>
<g id="a_Node000008"><a xlink:href="periph_8h.html" target="_top" xlink:title="Parameter definitions for mapping peripherals directly to SAUL.">
<polygon fill="white" stroke="#666666" points="309.62,-134.25 230.62,-134.25 230.62,-113.5 309.62,-113.5 309.62,-134.25"/>
<text text-anchor="middle" x="270.12" y="-120.75" font-family="Helvetica,sans-Serif" font-size="10.00">saul/periph.h</text>
</a>
</g>
</g>
<!-- Node1&#45;&gt;Node8 -->
<g id="edge9_Node000001_Node000008" class="edge">
<title>Node1&#45;&gt;Node8</title>
<g id="a_edge9_Node000001_Node000008"><a xlink:title=" ">
<path fill="none" stroke="#63b8ff" d="M220.73,-169.94C230.01,-161.47 241.42,-151.06 250.93,-142.39"/>
<polygon fill="#63b8ff" stroke="#63b8ff" points="253.19,-145.06 258.22,-135.74 248.47,-139.89 253.19,-145.06"/>
</a>
</g>
</g>
<!-- Node3 -->
<g id="Node000003" class="node">
<title>Node3</title>
<g id="a_Node000003"><a xlink:title=" ">
<polygon fill="#e0e0e0" stroke="#999999" points="42.25,-20.75 0,-20.75 0,0 42.25,0 42.25,-20.75"/>
<text text-anchor="middle" x="21.12" y="-7.25" font-family="Helvetica,sans-Serif" font-size="10.00">cpu.h</text>
</a>
</g>
</g>
<!-- Node2&#45;&gt;Node3 -->
<g id="edge2_Node000002_Node000003" class="edge">
<title>Node2&#45;&gt;Node3</title>
<g id="a_edge2_Node000002_Node000003"><a xlink:title=" ">
<path fill="none" stroke="#63b8ff" d="M134.56,-114.96C113.67,-107.74 84.75,-95.44 64.12,-77.5 49.45,-64.74 37.82,-45.78 30.38,-31.43"/>
<polygon fill="#63b8ff" stroke="#63b8ff" points="33.54,-29.92 25.99,-22.48 27.25,-33 33.54,-29.92"/>
</a>
</g>
</g>
<!-- Node4 -->
<g id="Node000004" class="node">
<title>Node4</title>
<g id="a_Node000004"><a xlink:href="boards_2qn9080dk_2include_2periph__conf_8h.html" target="_top" xlink:title="Configuration of CPU peripherals for QN9080DK base board board.">
<polygon fill="white" stroke="#666666" points="154.75,-77.5 73.5,-77.5 73.5,-56.75 154.75,-56.75 154.75,-77.5"/>
<text text-anchor="middle" x="114.12" y="-64" font-family="Helvetica,sans-Serif" font-size="10.00">periph_conf.h</text>
</a>
</g>
</g>
<!-- Node2&#45;&gt;Node4 -->
<g id="edge3_Node000002_Node000004" class="edge">
<title>Node2&#45;&gt;Node4</title>
<g id="a_edge3_Node000002_Node000004"><a xlink:title=" ">
<path fill="none" stroke="#63b8ff" d="M152.72,-113.09C146.37,-105.69 137.47,-95.32 129.82,-86.41"/>
<polygon fill="#63b8ff" stroke="#63b8ff" points="132.61,-84.28 123.44,-78.98 127.3,-88.84 132.61,-84.28"/>
</a>
</g>
</g>
<!-- Node7 -->
<g id="Node000007" class="node">
<title>Node7</title>
<g id="a_Node000007"><a xlink:title=" ">
<polygon fill="#e0e0e0" stroke="#999999" points="315.25,-20.75 237,-20.75 237,0 315.25,0 315.25,-20.75"/>
<text text-anchor="middle" x="276.12" y="-7.25" font-family="Helvetica,sans-Serif" font-size="10.00">periph_cpu.h</text>
</a>
</g>
</g>
<!-- Node2&#45;&gt;Node7 -->
<g id="edge8_Node000002_Node000007" class="edge">
<title>Node2&#45;&gt;Node7</title>
<g id="a_edge8_Node000002_Node000007"><a xlink:title=" ">
<path fill="none" stroke="#63b8ff" d="M165.26,-113.39C171.62,-99.62 184.89,-73.9 202.12,-56.75 214.42,-44.52 230.61,-34.12 244.71,-26.37"/>
<polygon fill="#63b8ff" stroke="#63b8ff" points="245.97,-29.66 253.19,-21.91 242.71,-23.47 245.97,-29.66"/>
</a>
</g>
</g>
<!-- Node4&#45;&gt;Node3 -->
<g id="edge6_Node000004_Node000003" class="edge">
<title>Node4&#45;&gt;Node3</title>
<g id="a_edge6_Node000004_Node000003"><a xlink:title=" ">
<path fill="none" stroke="#63b8ff" d="M97.5,-56.34C83.61,-48.16 63.56,-36.36 47.49,-26.9"/>
<polygon fill="#63b8ff" stroke="#63b8ff" points="49.31,-23.9 38.91,-21.85 45.75,-29.94 49.31,-23.9"/>
</a>
</g>
</g>
<!-- Node5 -->
<g id="Node000005" class="node">
<title>Node5</title>
<g id="a_Node000005"><a xlink:title=" ">
<polygon fill="#e0e0e0" stroke="#999999" points="218.5,-20.75 165.75,-20.75 165.75,0 218.5,0 218.5,-20.75"/>
<text text-anchor="middle" x="192.12" y="-7.25" font-family="Helvetica,sans-Serif" font-size="10.00">stdint.h</text>
</a>
</g>
</g>
<!-- Node4&#45;&gt;Node5 -->
<g id="edge4_Node000004_Node000005" class="edge">
<title>Node4&#45;&gt;Node5</title>
<g id="a_edge4_Node000004_Node000005"><a xlink:title=" ">
<path fill="none" stroke="#63b8ff" d="M128.07,-56.34C139.49,-48.32 155.89,-36.81 169.24,-27.44"/>
<polygon fill="#63b8ff" stroke="#63b8ff" points="170.89,-30.56 177.06,-21.95 166.87,-24.83 170.89,-30.56"/>
</a>
</g>
</g>
<!-- Node6 -->
<g id="Node000006" class="node">
<title>Node6</title>
<g id="a_Node000006"><a xlink:href="units_8h.html" target="_top" xlink:title="Unit helper macros.">
<polygon fill="white" stroke="#666666" points="148.12,-20.75 60.12,-20.75 60.12,0 148.12,0 148.12,-20.75"/>
<text text-anchor="middle" x="104.12" y="-7.25" font-family="Helvetica,sans-Serif" font-size="10.00">macros/units.h</text>
</a>
</g>
</g>
<!-- Node4&#45;&gt;Node6 -->
<g id="edge5_Node000004_Node000006" class="edge">
<title>Node4&#45;&gt;Node6</title>
<g id="a_edge5_Node000004_Node000006"><a xlink:title=" ">
<path fill="none" stroke="#63b8ff" d="M112.34,-56.34C111.11,-49.64 109.45,-40.51 107.93,-32.23"/>
<polygon fill="#63b8ff" stroke="#63b8ff" points="111.41,-31.78 106.17,-22.57 104.52,-33.03 111.41,-31.78"/>
</a>
</g>
</g>
<!-- Node4&#45;&gt;Node7 -->
<g id="edge7_Node000004_Node000007" class="edge">
<title>Node4&#45;&gt;Node7</title>
<g id="a_edge7_Node000004_Node000007"><a xlink:title=" ">
<path fill="none" stroke="#63b8ff" d="M143.09,-56.34C169.15,-47.53 207.69,-34.5 236.58,-24.74"/>
<polygon fill="#63b8ff" stroke="#63b8ff" points="237.35,-28.17 245.71,-21.66 235.11,-21.54 237.35,-28.17"/>
</a>
</g>
</g>
<!-- Node9 -->
<g id="Node000009" class="node">
<title>Node9</title>
<g id="a_Node000009"><a xlink:href="drivers_2include_2periph_2gpio_8h.html" target="_top" xlink:title="Low&#45;level GPIO peripheral driver interface definitions.">
<polygon fill="white" stroke="#666666" points="485,-77.5 405.25,-77.5 405.25,-56.75 485,-56.75 485,-77.5"/>
<text text-anchor="middle" x="445.12" y="-64" font-family="Helvetica,sans-Serif" font-size="10.00">periph/gpio.h</text>
</a>
</g>
</g>
<!-- Node8&#45;&gt;Node9 -->
<g id="edge10_Node000008_Node000009" class="edge">
<title>Node8&#45;&gt;Node9</title>
<g id="a_edge10_Node000008_Node000009"><a xlink:title=" ">
<path fill="none" stroke="#63b8ff" d="M301.41,-113.09C329.82,-104.2 371.93,-91.02 403.23,-81.23"/>
<polygon fill="#63b8ff" stroke="#63b8ff" points="403.87,-84.7 412.37,-78.37 401.78,-78.02 403.87,-84.7"/>
</a>
</g>
</g>
<!-- Node12 -->
<g id="Node000012" class="node">
<title>Node12</title>
<g id="a_Node000012"><a xlink:href="adc_8h.html" target="_top" xlink:title="Low&#45;level ADC peripheral driver interface definitions.">
<polygon fill="white" stroke="#666666" points="287.12,-77.5 211.12,-77.5 211.12,-56.75 287.12,-56.75 287.12,-77.5"/>
<text text-anchor="middle" x="249.12" y="-64" font-family="Helvetica,sans-Serif" font-size="10.00">periph/adc.h</text>
</a>
</g>
</g>
<!-- Node8&#45;&gt;Node12 -->
<g id="edge14_Node000008_Node000012" class="edge">
<title>Node8&#45;&gt;Node12</title>
<g id="a_edge14_Node000008_Node000012"><a xlink:title=" ">
<path fill="none" stroke="#63b8ff" d="M266.37,-113.09C263.74,-106.24 260.14,-96.84 256.9,-88.4"/>
<polygon fill="#63b8ff" stroke="#63b8ff" points="260.24,-87.32 253.39,-79.24 253.7,-89.83 260.24,-87.32"/>
</a>
</g>
</g>
<!-- Node13 -->
<g id="Node000013" class="node">
<title>Node13</title>
<g id="a_Node000013"><a xlink:href="pwm_8h.html" target="_top" xlink:title="Low&#45;level PWM peripheral driver interface definitions.">
<polygon fill="white" stroke="#666666" points="387.5,-77.5 304.75,-77.5 304.75,-56.75 387.5,-56.75 387.5,-77.5"/>
<text text-anchor="middle" x="346.12" y="-64" font-family="Helvetica,sans-Serif" font-size="10.00">periph/pwm.h</text>
</a>
</g>
</g>
<!-- Node8&#45;&gt;Node13 -->
<g id="edge19_Node000008_Node000013" class="edge">
<title>Node8&#45;&gt;Node13</title>
<g id="a_edge19_Node000008_Node000013"><a xlink:title=" ">
<path fill="none" stroke="#63b8ff" d="M283.71,-113.09C294.74,-105.15 310.51,-93.78 323.45,-84.46"/>
<polygon fill="#63b8ff" stroke="#63b8ff" points="325.36,-87.4 331.43,-78.71 321.27,-81.72 325.36,-87.4"/>
</a>
</g>
</g>
<!-- Node9&#45;&gt;Node7 -->
<g id="edge12_Node000009_Node000007" class="edge">
<title>Node9&#45;&gt;Node7</title>
<g id="a_edge12_Node000009_Node000007"><a xlink:title=" ">
<path fill="none" stroke="#63b8ff" d="M414.91,-56.34C387.6,-47.49 347.17,-34.39 316.98,-24.61"/>
<polygon fill="#63b8ff" stroke="#63b8ff" points="318.39,-21.39 307.8,-21.64 316.24,-28.05 318.39,-21.39"/>
</a>
</g>
</g>
<!-- Node10 -->
<g id="Node000010" class="node">
<title>Node10</title>
<g id="a_Node000010"><a xlink:title=" ">
<polygon fill="#e0e0e0" stroke="#999999" points="386.5,-20.75 333.75,-20.75 333.75,0 386.5,0 386.5,-20.75"/>
<text text-anchor="middle" x="360.12" y="-7.25" font-family="Helvetica,sans-Serif" font-size="10.00">limits.h</text>
</a>
</g>
</g>
<!-- Node9&#45;&gt;Node10 -->
<g id="edge11_Node000009_Node000010" class="edge">
<title>Node9&#45;&gt;Node10</title>
<g id="a_edge11_Node000009_Node000010"><a xlink:title=" ">
<path fill="none" stroke="#63b8ff" d="M429.93,-56.34C417.36,-48.24 399.26,-36.58 384.64,-27.17"/>
<polygon fill="#63b8ff" stroke="#63b8ff" points="386.76,-24.37 376.46,-21.9 382.97,-30.26 386.76,-24.37"/>
</a>
</g>
</g>
<!-- Node11 -->
<g id="Node000011" class="node">
<title>Node11</title>
<g id="a_Node000011"><a xlink:title=" ">
<polygon fill="#e0e0e0" stroke="#999999" points="485.75,-20.75 404.5,-20.75 404.5,0 485.75,0 485.75,-20.75"/>
<text text-anchor="middle" x="445.12" y="-7.25" font-family="Helvetica,sans-Serif" font-size="10.00">periph_conf.h</text>
</a>
</g>
</g>
<!-- Node9&#45;&gt;Node11 -->
<g id="edge13_Node000009_Node000011" class="edge">
<title>Node9&#45;&gt;Node11</title>
<g id="a_edge13_Node000009_Node000011"><a xlink:title=" ">
<path fill="none" stroke="#63b8ff" d="M445.12,-56.34C445.12,-49.72 445.12,-40.72 445.12,-32.52"/>
<polygon fill="#63b8ff" stroke="#63b8ff" points="448.63,-32.59 445.13,-22.59 441.63,-32.59 448.63,-32.59"/>
</a>
</g>
</g>
<!-- Node12&#45;&gt;Node5 -->
<g id="edge16_Node000012_Node000005" class="edge">
<title>Node12&#45;&gt;Node5</title>
<g id="a_edge16_Node000012_Node000005"><a xlink:title=" ">
<path fill="none" stroke="#63b8ff" d="M238.93,-56.34C230.99,-48.71 219.76,-37.92 210.29,-28.82"/>
<polygon fill="#63b8ff" stroke="#63b8ff" points="212.96,-26.53 203.32,-22.13 208.11,-31.58 212.96,-26.53"/>
</a>
</g>
</g>
<!-- Node12&#45;&gt;Node7 -->
<g id="edge17_Node000012_Node000007" class="edge">
<title>Node12&#45;&gt;Node7</title>
<g id="a_edge17_Node000012_Node000007"><a xlink:title=" ">
<path fill="none" stroke="#63b8ff" d="M253.95,-56.34C257.37,-49.41 262.07,-39.87 266.27,-31.36"/>
<polygon fill="#63b8ff" stroke="#63b8ff" points="269.39,-32.95 270.67,-22.44 263.11,-29.86 269.39,-32.95"/>
</a>
</g>
</g>
<!-- Node12&#45;&gt;Node10 -->
<g id="edge15_Node000012_Node000010" class="edge">
<title>Node12&#45;&gt;Node10</title>
<g id="a_edge15_Node000012_Node000010"><a xlink:title=" ">
<path fill="none" stroke="#63b8ff" d="M268.97,-56.34C286.02,-47.93 310.85,-35.68 330.29,-26.09"/>
<polygon fill="#63b8ff" stroke="#63b8ff" points="331.67,-29.31 339.09,-21.75 328.58,-23.03 331.67,-29.31"/>
</a>
</g>
</g>
<!-- Node12&#45;&gt;Node11 -->
<g id="edge18_Node000012_Node000011" class="edge">
<title>Node12&#45;&gt;Node11</title>
<g id="a_edge18_Node000012_Node000011"><a xlink:title=" ">
<path fill="none" stroke="#63b8ff" d="M284.17,-56.34C316.26,-47.37 363.97,-34.04 399.12,-24.23"/>
<polygon fill="#63b8ff" stroke="#63b8ff" points="399.91,-27.64 408.6,-21.58 398.03,-20.9 399.91,-27.64"/>
</a>
</g>
</g>
<!-- Node13&#45;&gt;Node5 -->
<g id="edge20_Node000013_Node000005" class="edge">
<title>Node13&#45;&gt;Node5</title>
<g id="a_edge20_Node000013_Node000005"><a xlink:title=" ">
<path fill="none" stroke="#63b8ff" d="M318.59,-56.34C293.8,-47.52 257.15,-34.49 229.68,-24.73"/>
<polygon fill="#63b8ff" stroke="#63b8ff" points="230.92,-21.45 220.33,-21.4 228.58,-28.05 230.92,-21.45"/>
</a>
</g>
</g>
<!-- Node13&#45;&gt;Node7 -->
<g id="edge22_Node000013_Node000007" class="edge">
<title>Node13&#45;&gt;Node7</title>
<g id="a_edge22_Node000013_Node000007"><a xlink:title=" ">
<path fill="none" stroke="#63b8ff" d="M333.61,-56.34C323.56,-48.47 309.21,-37.25 297.37,-27.99"/>
<polygon fill="#63b8ff" stroke="#63b8ff" points="299.76,-25.41 289.72,-22.01 295.44,-30.93 299.76,-25.41"/>
</a>
</g>
</g>
<!-- Node13&#45;&gt;Node10 -->
<g id="edge21_Node000013_Node000010" class="edge">
<title>Node13&#45;&gt;Node10</title>
<g id="a_edge21_Node000013_Node000010"><a xlink:title=" ">
<path fill="none" stroke="#63b8ff" d="M348.63,-56.34C350.34,-49.64 352.67,-40.51 354.79,-32.23"/>
<polygon fill="#63b8ff" stroke="#63b8ff" points="358.18,-33.1 357.27,-22.54 351.4,-31.37 358.18,-33.1"/>
</a>
</g>
</g>
<!-- Node13&#45;&gt;Node11 -->
<g id="edge23_Node000013_Node000011" class="edge">
<title>Node13&#45;&gt;Node11</title>
<g id="a_edge23_Node000013_Node000011"><a xlink:title=" ">
<path fill="none" stroke="#63b8ff" d="M363.82,-56.34C378.75,-48.08 400.36,-36.13 417.55,-26.63"/>
<polygon fill="#63b8ff" stroke="#63b8ff" points="419.2,-29.71 426.25,-21.81 415.81,-23.59 419.2,-29.71"/>
</a>
</g>
</g>
</g>
</svg>
