<?xml version="1.0" encoding="UTF-8" standalone="no"?>
<!DOCTYPE svg PUBLIC "-//W3C//DTD SVG 1.1//EN"
 "http://www.w3.org/Graphics/SVG/1.1/DTD/svg11.dtd">
<!-- Generated by graphviz version 12.1.1 (0)
 -->
<!-- Title: sys/include/random.h Pages: 1 -->
<svg width="942pt" height="332pt"
 viewBox="0.00 0.00 941.75 332.25" xmlns="http://www.w3.org/2000/svg" xmlns:xlink="http://www.w3.org/1999/xlink">
<g id="graph0" class="graph" transform="scale(1 1) rotate(0) translate(4 328.25)">
<title>sys/include/random.h</title>
<!-- Node1 -->
<g id="Node000001" class="node">
<title>Node1</title>
<g id="a_Node000001"><a xlink:title="Common interface to the software PRNG.">
<polygon fill="#999999" stroke="#666666" points="493.88,-324.25 373.62,-324.25 373.62,-303.5 493.88,-303.5 493.88,-324.25"/>
<text text-anchor="middle" x="433.75" y="-310.75" font-family="Helvetica,sans-Serif" font-size="10.00">sys/include/random.h</text>
</a>
</g>
</g>
<!-- Node2 -->
<g id="Node000002" class="node">
<title>Node2</title>
<g id="a_Node000002"><a xlink:href="sys__arch_8h.html" target="_top" xlink:title="OS abstraction layer.">
<polygon fill="white" stroke="#666666" points="119.5,-261.12 0,-261.12 0,-227.62 119.5,-227.62 119.5,-261.12"/>
<text text-anchor="start" x="8" y="-247.62" font-family="Helvetica,sans-Serif" font-size="10.00">pkg/lwip/include/arch</text>
<text text-anchor="middle" x="59.75" y="-234.88" font-family="Helvetica,sans-Serif" font-size="10.00">/sys_arch.h</text>
</a>
</g>
</g>
<!-- Node1&#45;&gt;Node2 -->
<g id="edge1_Node000001_Node000002" class="edge">
<title>Node1&#45;&gt;Node2</title>
<g id="a_edge1_Node000001_Node000002"><a xlink:title=" ">
<path fill="none" stroke="#63b8ff" d="M362.05,-305.54C299.85,-298.39 207.65,-285.89 128.75,-267.5 121.52,-265.82 113.96,-263.73 106.6,-261.52"/>
<polygon fill="#63b8ff" stroke="#63b8ff" points="361.47,-309 371.8,-306.65 362.26,-302.05 361.47,-309"/>
</a>
</g>
</g>
<!-- Node3 -->
<g id="Node000003" class="node">
<title>Node3</title>
<g id="a_Node000003"><a xlink:href="DSMEPlatform_8h.html" target="_top" xlink:title="DSME Platform interface implementation.">
<polygon fill="white" stroke="#666666" points="290,-261.12 137.5,-261.12 137.5,-227.62 290,-227.62 290,-261.12"/>
<text text-anchor="start" x="145.5" y="-247.62" font-family="Helvetica,sans-Serif" font-size="10.00">pkg/opendsme/include</text>
<text text-anchor="middle" x="213.75" y="-234.88" font-family="Helvetica,sans-Serif" font-size="10.00">/opendsme/DSMEPlatform.h</text>
</a>
</g>
</g>
<!-- Node1&#45;&gt;Node3 -->
<g id="edge2_Node000001_Node000003" class="edge">
<title>Node1&#45;&gt;Node3</title>
<g id="a_edge2_Node000001_Node000003"><a xlink:title=" ">
<path fill="none" stroke="#63b8ff" d="M390.79,-299.69C355.26,-288.79 304.66,-273.27 266.64,-261.6"/>
<polygon fill="#63b8ff" stroke="#63b8ff" points="389.73,-303.03 400.31,-302.62 391.78,-296.34 389.73,-303.03"/>
</a>
</g>
</g>
<!-- Node4 -->
<g id="Node000004" class="node">
<title>Node4</title>
<g id="a_Node000004"><a xlink:href="user__settings_8h_source.html" target="_top" xlink:title=" ">
<polygon fill="white" stroke="#666666" points="417.62,-261.12 307.88,-261.12 307.88,-227.62 417.62,-227.62 417.62,-261.12"/>
<text text-anchor="start" x="315.88" y="-247.62" font-family="Helvetica,sans-Serif" font-size="10.00">pkg/wolfssl/include</text>
<text text-anchor="middle" x="362.75" y="-234.88" font-family="Helvetica,sans-Serif" font-size="10.00">/user_settings.h</text>
</a>
</g>
</g>
<!-- Node1&#45;&gt;Node4 -->
<g id="edge3_Node000001_Node000004" class="edge">
<title>Node1&#45;&gt;Node4</title>
<g id="a_edge3_Node000001_Node000004"><a xlink:title=" ">
<path fill="none" stroke="#63b8ff" d="M415.49,-295.51C404.47,-285.04 390.54,-271.79 379.76,-261.54"/>
<polygon fill="#63b8ff" stroke="#63b8ff" points="412.82,-297.81 422.48,-302.16 417.64,-292.73 412.82,-297.81"/>
</a>
</g>
</g>
<!-- Node5 -->
<g id="Node000005" class="node">
<title>Node5</title>
<g id="a_Node000005"><a xlink:href="nanocoap__sock_8h.html" target="_top" xlink:title="nanocoap high&#45;level API">
<polygon fill="white" stroke="#666666" points="575.62,-261.12 435.88,-261.12 435.88,-227.62 575.62,-227.62 575.62,-261.12"/>
<text text-anchor="start" x="443.88" y="-247.62" font-family="Helvetica,sans-Serif" font-size="10.00">sys/include/net/nanocoap</text>
<text text-anchor="middle" x="505.75" y="-234.88" font-family="Helvetica,sans-Serif" font-size="10.00">_sock.h</text>
</a>
</g>
</g>
<!-- Node1&#45;&gt;Node5 -->
<g id="edge4_Node000001_Node000005" class="edge">
<title>Node1&#45;&gt;Node5</title>
<g id="a_edge4_Node000001_Node000005"><a xlink:title=" ">
<path fill="none" stroke="#63b8ff" d="M452.27,-295.51C463.44,-285.04 477.57,-271.79 488.5,-261.54"/>
<polygon fill="#63b8ff" stroke="#63b8ff" points="450.07,-292.78 445.17,-302.17 454.86,-297.88 450.07,-292.78"/>
</a>
</g>
</g>
<!-- Node9 -->
<g id="Node000009" class="node">
<title>Node9</title>
<g id="a_Node000009"><a xlink:href="__nib-internal_8h_source.html" target="_top" xlink:title=" ">
<polygon fill="white" stroke="#666666" points="765.75,-267.5 647.75,-267.5 647.75,-221.25 765.75,-221.25 765.75,-267.5"/>
<text text-anchor="start" x="655.75" y="-254" font-family="Helvetica,sans-Serif" font-size="10.00">sys/net/gnrc/network</text>
<text text-anchor="start" x="655.75" y="-241.25" font-family="Helvetica,sans-Serif" font-size="10.00">_layer/ipv6/nib/_nib</text>
<text text-anchor="middle" x="706.75" y="-228.5" font-family="Helvetica,sans-Serif" font-size="10.00">&#45;internal.h</text>
</a>
</g>
</g>
<!-- Node1&#45;&gt;Node9 -->
<g id="edge8_Node000001_Node000009" class="edge">
<title>Node1&#45;&gt;Node9</title>
<g id="a_edge8_Node000001_Node000009"><a xlink:title=" ">
<path fill="none" stroke="#63b8ff" d="M484.38,-300.36C530.51,-288.95 598.67,-272.1 647.36,-260.06"/>
<polygon fill="#63b8ff" stroke="#63b8ff" points="483.78,-296.9 474.92,-302.7 485.46,-303.69 483.78,-296.9"/>
</a>
</g>
</g>
<!-- Node14 -->
<g id="Node000014" class="node">
<title>Node14</title>
<g id="a_Node000014"><a xlink:href="gnrc__ipv6__auto__subnets_8c.html" target="_top" xlink:title=" ">
<polygon fill="white" stroke="#666666" points="918,-267.5 783.5,-267.5 783.5,-221.25 918,-221.25 918,-267.5"/>
<text text-anchor="start" x="791.5" y="-254" font-family="Helvetica,sans-Serif" font-size="10.00">sys/net/gnrc/routing</text>
<text text-anchor="start" x="791.5" y="-241.25" font-family="Helvetica,sans-Serif" font-size="10.00">/ipv6_auto_subnets/gnrc</text>
<text text-anchor="middle" x="850.75" y="-228.5" font-family="Helvetica,sans-Serif" font-size="10.00">_ipv6_auto_subnets.c</text>
</a>
</g>
</g>
<!-- Node1&#45;&gt;Node14 -->
<g id="edge16_Node000001_Node000014" class="edge">
<title>Node1&#45;&gt;Node14</title>
<g id="a_edge16_Node000001_Node000014"><a xlink:title=" ">
<path fill="none" stroke="#63b8ff" d="M505.5,-306.51C574.87,-299.61 682.72,-286.9 774.75,-267.5 777.57,-266.9 780.45,-266.26 783.34,-265.57"/>
<polygon fill="#63b8ff" stroke="#63b8ff" points="505.39,-303 495.78,-307.46 506.08,-309.97 505.39,-303"/>
</a>
</g>
</g>
<!-- Node6 -->
<g id="Node000006" class="node">
<title>Node6</title>
<g id="a_Node000006"><a xlink:href="fs_8h.html" target="_top" xlink:title="nanoCoAP virtual file system">
<polygon fill="white" stroke="#666666" points="586.12,-172.5 425.38,-172.5 425.38,-151.75 586.12,-151.75 586.12,-172.5"/>
<text text-anchor="middle" x="505.75" y="-159" font-family="Helvetica,sans-Serif" font-size="10.00">sys/include/net/nanocoap/fs.h</text>
</a>
</g>
</g>
<!-- Node5&#45;&gt;Node6 -->
<g id="edge5_Node000005_Node000006" class="edge">
<title>Node5&#45;&gt;Node6</title>
<g id="a_edge5_Node000005_Node000006"><a xlink:title=" ">
<path fill="none" stroke="#63b8ff" d="M505.75,-215.9C505.75,-200.96 505.75,-183.41 505.75,-172.79"/>
<polygon fill="#63b8ff" stroke="#63b8ff" points="502.25,-215.62 505.75,-225.62 509.25,-215.62 502.25,-215.62"/>
</a>
</g>
</g>
<!-- Node7 -->
<g id="Node000007" class="node">
<title>Node7</title>
<g id="a_Node000007"><a xlink:href="link__format_8h.html" target="_top" xlink:title="NanoCoAP Link Format helper functions.">
<polygon fill="white" stroke="#666666" points="249.62,-178.88 109.88,-178.88 109.88,-145.38 249.62,-145.38 249.62,-178.88"/>
<text text-anchor="start" x="117.88" y="-165.38" font-family="Helvetica,sans-Serif" font-size="10.00">sys/include/net/nanocoap</text>
<text text-anchor="middle" x="179.75" y="-152.62" font-family="Helvetica,sans-Serif" font-size="10.00">/link_format.h</text>
</a>
</g>
</g>
<!-- Node5&#45;&gt;Node7 -->
<g id="edge6_Node000005_Node000007" class="edge">
<title>Node5&#45;&gt;Node7</title>
<g id="a_edge6_Node000005_Node000007"><a xlink:title=" ">
<path fill="none" stroke="#63b8ff" d="M438.89,-224.34C434.79,-223.27 430.72,-222.23 426.75,-221.25 352.61,-202.94 332.89,-203.56 258.75,-185.25 251.28,-183.41 243.45,-181.36 235.74,-179.27"/>
<polygon fill="#63b8ff" stroke="#63b8ff" points="437.73,-227.65 448.3,-226.84 439.53,-220.89 437.73,-227.65"/>
</a>
</g>
</g>
<!-- Node8 -->
<g id="Node000008" class="node">
<title>Node8</title>
<g id="a_Node000008"><a xlink:href="nanocoap__vfs_8h.html" target="_top" xlink:title="VFS NanoCoAP helper functions.">
<polygon fill="white" stroke="#666666" points="407.62,-178.88 267.88,-178.88 267.88,-145.38 407.62,-145.38 407.62,-178.88"/>
<text text-anchor="start" x="275.88" y="-165.38" font-family="Helvetica,sans-Serif" font-size="10.00">sys/include/net/nanocoap</text>
<text text-anchor="middle" x="337.75" y="-152.62" font-family="Helvetica,sans-Serif" font-size="10.00">_vfs.h</text>
</a>
</g>
</g>
<!-- Node5&#45;&gt;Node8 -->
<g id="edge7_Node000005_Node000008" class="edge">
<title>Node5&#45;&gt;Node8</title>
<g id="a_edge7_Node000005_Node000008"><a xlink:title=" ">
<path fill="none" stroke="#63b8ff" d="M461.4,-222.19C433.3,-208.77 397.53,-191.68 371.7,-179.34"/>
<polygon fill="#63b8ff" stroke="#63b8ff" points="459.85,-225.33 470.39,-226.48 462.87,-219.01 459.85,-225.33"/>
</a>
</g>
</g>
<!-- Node10 -->
<g id="Node000010" class="node">
<title>Node10</title>
<g id="a_Node000010"><a xlink:href="__nib-6ln_8h.html" target="_top" xlink:title="Definitions related to 6Lo node (6LN) functionality of the NIB.">
<polygon fill="white" stroke="#666666" points="917.25,-103 778.25,-103 778.25,-69.5 917.25,-69.5 917.25,-103"/>
<text text-anchor="start" x="786.25" y="-89.5" font-family="Helvetica,sans-Serif" font-size="10.00">sys/net/gnrc/network</text>
<text text-anchor="middle" x="847.75" y="-76.75" font-family="Helvetica,sans-Serif" font-size="10.00">_layer/ipv6/nib/_nib&#45;6ln.h</text>
</a>
</g>
</g>
<!-- Node9&#45;&gt;Node10 -->
<g id="edge9_Node000009_Node000010" class="edge">
<title>Node9&#45;&gt;Node10</title>
<g id="a_edge9_Node000009_Node000010"><a xlink:title=" ">
<path fill="none" stroke="#63b8ff" d="M737.57,-212.72C746.16,-203.96 755.43,-194.33 763.75,-185.25 789.5,-157.17 818.09,-123.17 834.4,-103.49"/>
<polygon fill="#63b8ff" stroke="#63b8ff" points="735.18,-210.15 730.64,-219.73 740.16,-215.07 735.18,-210.15"/>
</a>
</g>
</g>
<!-- Node11 -->
<g id="Node000011" class="node">
<title>Node11</title>
<g id="a_Node000011"><a xlink:href="__nib-6lr_8h.html" target="_top" xlink:title="Definitions related to 6Lo router (6LR) functionality of the NIB.">
<polygon fill="white" stroke="#666666" points="916.12,-33.5 779.38,-33.5 779.38,0 916.12,0 916.12,-33.5"/>
<text text-anchor="start" x="787.38" y="-20" font-family="Helvetica,sans-Serif" font-size="10.00">sys/net/gnrc/network</text>
<text text-anchor="middle" x="847.75" y="-7.25" font-family="Helvetica,sans-Serif" font-size="10.00">_layer/ipv6/nib/_nib&#45;6lr.h</text>
</a>
</g>
</g>
<!-- Node9&#45;&gt;Node11 -->
<g id="edge11_Node000009_Node000011" class="edge">
<title>Node9&#45;&gt;Node11</title>
<g id="a_edge11_Node000009_Node000011"><a xlink:title=" ">
<path fill="none" stroke="#63b8ff" d="M720.87,-210.25C724.22,-202.12 727.7,-193.4 730.75,-185.25 749.79,-134.41 736.68,-112.55 769.75,-69.5 781.23,-54.55 798.33,-42.52 813.58,-33.84"/>
<polygon fill="#63b8ff" stroke="#63b8ff" points="717.64,-208.9 717.03,-219.48 724.1,-211.59 717.64,-208.9"/>
</a>
</g>
</g>
<!-- Node12 -->
<g id="Node000012" class="node">
<title>Node12</title>
<g id="a_Node000012"><a xlink:href="__nib-arsm_8h_source.html" target="_top" xlink:title=" ">
<polygon fill="white" stroke="#666666" points="933.75,-185.25 815.75,-185.25 815.75,-139 933.75,-139 933.75,-185.25"/>
<text text-anchor="start" x="823.75" y="-171.75" font-family="Helvetica,sans-Serif" font-size="10.00">sys/net/gnrc/network</text>
<text text-anchor="start" x="823.75" y="-159" font-family="Helvetica,sans-Serif" font-size="10.00">_layer/ipv6/nib/_nib</text>
<text text-anchor="middle" x="874.75" y="-146.25" font-family="Helvetica,sans-Serif" font-size="10.00">&#45;arsm.h</text>
</a>
</g>
</g>
<!-- Node9&#45;&gt;Node12 -->
<g id="edge12_Node000009_Node000012" class="edge">
<title>Node9&#45;&gt;Node12</title>
<g id="a_edge12_Node000009_Node000012"><a xlink:title=" ">
<path fill="none" stroke="#63b8ff" d="M764.23,-215.92C784.87,-206.06 807.9,-195.06 827.57,-185.66"/>
<polygon fill="#63b8ff" stroke="#63b8ff" points="762.87,-212.69 755.36,-220.15 765.89,-219 762.87,-212.69"/>
</a>
</g>
</g>
<!-- Node13 -->
<g id="Node000013" class="node">
<title>Node13</title>
<g id="a_Node000013"><a xlink:href="__nib-router_8h_source.html" target="_top" xlink:title=" ">
<polygon fill="white" stroke="#666666" points="721.75,-185.25 603.75,-185.25 603.75,-139 721.75,-139 721.75,-185.25"/>
<text text-anchor="start" x="611.75" y="-171.75" font-family="Helvetica,sans-Serif" font-size="10.00">sys/net/gnrc/network</text>
<text text-anchor="start" x="611.75" y="-159" font-family="Helvetica,sans-Serif" font-size="10.00">_layer/ipv6/nib/_nib</text>
<text text-anchor="middle" x="662.75" y="-146.25" font-family="Helvetica,sans-Serif" font-size="10.00">&#45;router.h</text>
</a>
</g>
</g>
<!-- Node9&#45;&gt;Node13 -->
<g id="edge15_Node000009_Node000013" class="edge">
<title>Node9&#45;&gt;Node13</title>
<g id="a_edge15_Node000009_Node000013"><a xlink:title=" ">
<path fill="none" stroke="#63b8ff" d="M689,-210.99C684.33,-202.49 679.4,-193.5 675.09,-185.64"/>
<polygon fill="#63b8ff" stroke="#63b8ff" points="685.89,-212.61 693.77,-219.69 692.03,-209.24 685.89,-212.61"/>
</a>
</g>
</g>
<!-- Node10&#45;&gt;Node11 -->
<g id="edge10_Node000010_Node000011" class="edge">
<title>Node10&#45;&gt;Node11</title>
<g id="a_edge10_Node000010_Node000011"><a xlink:title=" ">
<path fill="none" stroke="#63b8ff" d="M847.75,-57.81C847.75,-49.59 847.75,-40.84 847.75,-33.63"/>
<polygon fill="#63b8ff" stroke="#63b8ff" points="844.25,-57.74 847.75,-67.74 851.25,-57.74 844.25,-57.74"/>
</a>
</g>
</g>
<!-- Node12&#45;&gt;Node10 -->
<g id="edge13_Node000012_Node000010" class="edge">
<title>Node12&#45;&gt;Node10</title>
<g id="a_edge13_Node000012_Node000010"><a xlink:title=" ">
<path fill="none" stroke="#63b8ff" d="M862.64,-128C859.51,-119.44 856.28,-110.6 853.64,-103.35"/>
<polygon fill="#63b8ff" stroke="#63b8ff" points="859.26,-128.95 865.98,-137.14 865.84,-126.54 859.26,-128.95"/>
</a>
</g>
</g>
<!-- Node12&#45;&gt;Node11 -->
<g id="edge14_Node000012_Node000011" class="edge">
<title>Node12&#45;&gt;Node11</title>
<g id="a_edge14_Node000012_Node000011"><a xlink:title=" ">
<path fill="none" stroke="#63b8ff" d="M909.4,-130.42C925.04,-112.71 937.81,-89.97 926.75,-69.5 918.25,-53.78 902.67,-42.06 887.58,-33.79"/>
<polygon fill="#63b8ff" stroke="#63b8ff" points="906.95,-127.91 902.62,-137.58 912.04,-132.73 906.95,-127.91"/>
</a>
</g>
</g>
</g>
</svg>
