<?xml version="1.0" encoding="UTF-8" standalone="no"?>
<!DOCTYPE svg PUBLIC "-//W3C//DTD SVG 1.1//EN"
 "http://www.w3.org/Graphics/SVG/1.1/DTD/svg11.dtd">
<!-- Generated by graphviz version 12.1.1 (0)
 -->
<!-- Title: sys/include/net/gnrc/sixlowpan/frag/rb.h Pages: 1 -->
<svg width="321pt" height="250pt"
 viewBox="0.00 0.00 320.75 250.00" xmlns="http://www.w3.org/2000/svg" xmlns:xlink="http://www.w3.org/1999/xlink">
<g id="graph0" class="graph" transform="scale(1 1) rotate(0) translate(4 246)">
<title>sys/include/net/gnrc/sixlowpan/frag/rb.h</title>
<!-- Node1 -->
<g id="Node000001" class="node">
<title>Node1</title>
<g id="a_Node000001"><a xlink:title="Reassembly buffer definitions.">
<polygon fill="#999999" stroke="#666666" points="199.62,-242 86.12,-242 86.12,-208.5 199.62,-208.5 199.62,-242"/>
<text text-anchor="start" x="94.12" y="-228.5" font-family="Helvetica,sans-Serif" font-size="10.00">sys/include/net/gnrc</text>
<text text-anchor="middle" x="142.88" y="-215.75" font-family="Helvetica,sans-Serif" font-size="10.00">/sixlowpan/frag/rb.h</text>
</a>
</g>
</g>
<!-- Node2 -->
<g id="Node000002" class="node">
<title>Node2</title>
<g id="a_Node000002"><a xlink:href="vrb_8h.html" target="_top" xlink:title="Virtual reassembly buffer definitions.">
<polygon fill="white" stroke="#666666" points="202.25,-172.5 83.5,-172.5 83.5,-139 202.25,-139 202.25,-172.5"/>
<text text-anchor="start" x="91.5" y="-159" font-family="Helvetica,sans-Serif" font-size="10.00">sys/include/net/gnrc</text>
<text text-anchor="middle" x="142.88" y="-146.25" font-family="Helvetica,sans-Serif" font-size="10.00">/sixlowpan/frag/vrb.h</text>
</a>
</g>
</g>
<!-- Node1&#45;&gt;Node2 -->
<g id="edge1_Node000001_Node000002" class="edge">
<title>Node1&#45;&gt;Node2</title>
<g id="a_edge1_Node000001_Node000002"><a xlink:title=" ">
<path fill="none" stroke="#63b8ff" d="M142.88,-196.81C142.88,-188.59 142.88,-179.84 142.88,-172.63"/>
<polygon fill="#63b8ff" stroke="#63b8ff" points="139.38,-196.74 142.88,-206.74 146.38,-196.74 139.38,-196.74"/>
</a>
</g>
</g>
<!-- Node3 -->
<g id="Node000003" class="node">
<title>Node3</title>
<g id="a_Node000003"><a xlink:href="minfwd_8h.html" target="_top" xlink:title="Minimal fragment forwarding definitions.">
<polygon fill="white" stroke="#666666" points="139.75,-103 0,-103 0,-69.5 139.75,-69.5 139.75,-103"/>
<text text-anchor="start" x="8" y="-89.5" font-family="Helvetica,sans-Serif" font-size="10.00">sys/include/net/gnrc</text>
<text text-anchor="middle" x="69.88" y="-76.75" font-family="Helvetica,sans-Serif" font-size="10.00">/sixlowpan/frag/minfwd.h</text>
</a>
</g>
</g>
<!-- Node2&#45;&gt;Node3 -->
<g id="edge2_Node000002_Node000003" class="edge">
<title>Node2&#45;&gt;Node3</title>
<g id="a_edge2_Node000002_Node000003"><a xlink:title=" ">
<path fill="none" stroke="#63b8ff" d="M117.25,-131.06C107.35,-121.9 96.26,-111.65 87.3,-103.37"/>
<polygon fill="#63b8ff" stroke="#63b8ff" points="114.75,-133.51 124.46,-137.73 119.5,-128.37 114.75,-133.51"/>
</a>
</g>
</g>
<!-- Node4 -->
<g id="Node000004" class="node">
<title>Node4</title>
<g id="a_Node000004"><a xlink:href="gnrc_2sixlowpan_2frag_2sfr_8h.html" target="_top" xlink:title="6LoWPAN selective fragment recovery definitions for GNRC">
<polygon fill="white" stroke="#666666" points="273.75,-103 158,-103 158,-69.5 273.75,-69.5 273.75,-103"/>
<text text-anchor="start" x="166" y="-89.5" font-family="Helvetica,sans-Serif" font-size="10.00">sys/include/net/gnrc</text>
<text text-anchor="middle" x="215.88" y="-76.75" font-family="Helvetica,sans-Serif" font-size="10.00">/sixlowpan/frag/sfr.h</text>
</a>
</g>
</g>
<!-- Node2&#45;&gt;Node4 -->
<g id="edge3_Node000002_Node000004" class="edge">
<title>Node2&#45;&gt;Node4</title>
<g id="a_edge3_Node000002_Node000004"><a xlink:title=" ">
<path fill="none" stroke="#63b8ff" d="M168.5,-131.06C178.4,-121.9 189.49,-111.65 198.45,-103.37"/>
<polygon fill="#63b8ff" stroke="#63b8ff" points="166.25,-128.37 161.29,-137.73 171,-133.51 166.25,-128.37"/>
</a>
</g>
</g>
<!-- Node5 -->
<g id="Node000005" class="node">
<title>Node5</title>
<g id="a_Node000005"><a xlink:href="net_2gnrc_2sixlowpan_2frag_2sfr_2congure_8h.html" target="_top" xlink:title="Congure definitions for 6LoWPAN selective fragment recovery.">
<polygon fill="white" stroke="#666666" points="294.75,-33.5 137,-33.5 137,0 294.75,0 294.75,-33.5"/>
<text text-anchor="start" x="145" y="-20" font-family="Helvetica,sans-Serif" font-size="10.00">sys/include/net/gnrc</text>
<text text-anchor="middle" x="215.88" y="-7.25" font-family="Helvetica,sans-Serif" font-size="10.00">/sixlowpan/frag/sfr/congure.h</text>
</a>
</g>
</g>
<!-- Node4&#45;&gt;Node5 -->
<g id="edge4_Node000004_Node000005" class="edge">
<title>Node4&#45;&gt;Node5</title>
<g id="a_edge4_Node000004_Node000005"><a xlink:title=" ">
<path fill="none" stroke="#63b8ff" d="M215.88,-57.81C215.88,-49.59 215.88,-40.84 215.88,-33.63"/>
<polygon fill="#63b8ff" stroke="#63b8ff" points="212.38,-57.74 215.88,-67.74 219.38,-57.74 212.38,-57.74"/>
</a>
</g>
</g>
<!-- Node5&#45;&gt;Node5 -->
<g id="edge5_Node000005_Node000005" class="edge">
<title>Node5&#45;&gt;Node5</title>
<g id="a_edge5_Node000005_Node000005"><a xlink:title=" ">
<path fill="none" stroke="#63b8ff" d="M305.96,-25C310.24,-22.93 312.75,-20.18 312.75,-16.75 312.75,-10.98 305.63,-7.13 294.94,-5.19"/>
<polygon fill="#63b8ff" stroke="#63b8ff" points="304.96,-21.65 296.39,-27.88 306.97,-28.35 304.96,-21.65"/>
</a>
</g>
</g>
</g>
</svg>
