<?xml version="1.0" encoding="UTF-8" standalone="no"?>
<!DOCTYPE svg PUBLIC "-//W3C//DTD SVG 1.1//EN"
 "http://www.w3.org/Graphics/SVG/1.1/DTD/svg11.dtd">
<!-- Generated by graphviz version 12.1.1 (0)
 -->
<!-- Title: boards/remote&#45;pa/include/adc_params.h Pages: 1 -->
<svg width="521pt" height="212pt"
 viewBox="0.00 0.00 520.75 211.75" xmlns="http://www.w3.org/2000/svg" xmlns:xlink="http://www.w3.org/1999/xlink">
<g id="graph0" class="graph" transform="scale(1 1) rotate(0) translate(4 207.75)">
<title>boards/remote&#45;pa/include/adc_params.h</title>
<!-- Node1 -->
<g id="Node000001" class="node">
<title>Node1</title>
<g id="a_Node000001"><a xlink:title="Board specific configuration of direct mapped ADC.">
<polygon fill="#999999" stroke="#666666" points="389,-203.75 247.75,-203.75 247.75,-170.25 389,-170.25 389,-203.75"/>
<text text-anchor="start" x="255.75" y="-190.25" font-family="Helvetica,sans-Serif" font-size="10.00">boards/remote&#45;pa/include</text>
<text text-anchor="middle" x="318.38" y="-177.5" font-family="Helvetica,sans-Serif" font-size="10.00">/adc_params.h</text>
</a>
</g>
</g>
<!-- Node2 -->
<g id="Node000002" class="node">
<title>Node2</title>
<g id="a_Node000002"><a xlink:href="remote-pa_2include_2board_8h.html" target="_top" xlink:title="Board specific definitions for the Re&#45;Mote board prototype A.">
<polygon fill="white" stroke="#666666" points="166.75,-134.25 114,-134.25 114,-113.5 166.75,-113.5 166.75,-134.25"/>
<text text-anchor="middle" x="140.38" y="-120.75" font-family="Helvetica,sans-Serif" font-size="10.00">board.h</text>
</a>
</g>
</g>
<!-- Node1&#45;&gt;Node2 -->
<g id="edge1_Node000001_Node000002" class="edge">
<title>Node1&#45;&gt;Node2</title>
<g id="a_edge1_Node000001_Node000002"><a xlink:title=" ">
<path fill="none" stroke="#63b8ff" d="M271.14,-169.78C241.9,-159.74 204.89,-147.03 177.71,-137.69"/>
<polygon fill="#63b8ff" stroke="#63b8ff" points="179.1,-134.47 168.51,-134.54 176.83,-141.09 179.1,-134.47"/>
</a>
</g>
</g>
<!-- Node5 -->
<g id="Node000005" class="node">
<title>Node5</title>
<g id="a_Node000005"><a xlink:href="periph_8h.html" target="_top" xlink:title="Parameter definitions for mapping peripherals directly to SAUL.">
<polygon fill="white" stroke="#666666" points="357.88,-134.25 278.88,-134.25 278.88,-113.5 357.88,-113.5 357.88,-134.25"/>
<text text-anchor="middle" x="318.38" y="-120.75" font-family="Helvetica,sans-Serif" font-size="10.00">saul/periph.h</text>
</a>
</g>
</g>
<!-- Node1&#45;&gt;Node5 -->
<g id="edge4_Node000001_Node000005" class="edge">
<title>Node1&#45;&gt;Node5</title>
<g id="a_edge4_Node000001_Node000005"><a xlink:title=" ">
<path fill="none" stroke="#63b8ff" d="M318.38,-169.94C318.38,-162.6 318.38,-153.82 318.38,-145.96"/>
<polygon fill="#63b8ff" stroke="#63b8ff" points="321.88,-146.23 318.38,-136.23 314.88,-146.23 321.88,-146.23"/>
</a>
</g>
</g>
<!-- Node10 -->
<g id="Node000010" class="node">
<title>Node10</title>
<g id="a_Node000010"><a xlink:href="adc_8h.html" target="_top" xlink:title="Low&#45;level ADC peripheral driver interface definitions.">
<polygon fill="white" stroke="#666666" points="453.38,-77.5 377.38,-77.5 377.38,-56.75 453.38,-56.75 453.38,-77.5"/>
<text text-anchor="middle" x="415.38" y="-64" font-family="Helvetica,sans-Serif" font-size="10.00">periph/adc.h</text>
</a>
</g>
</g>
<!-- Node1&#45;&gt;Node10 -->
<g id="edge19_Node000001_Node000010" class="edge">
<title>Node1&#45;&gt;Node10</title>
<g id="a_edge19_Node000001_Node000010"><a xlink:title=" ">
<path fill="none" stroke="#63b8ff" d="M334.38,-170.18C344.24,-160.18 356.94,-146.81 367.38,-134.25 380.09,-118.94 393.28,-100.56 402.61,-87.07"/>
<polygon fill="#63b8ff" stroke="#63b8ff" points="405.31,-89.32 408.06,-79.08 399.53,-85.37 405.31,-89.32"/>
</a>
</g>
</g>
<!-- Node3 -->
<g id="Node000003" class="node">
<title>Node3</title>
<g id="a_Node000003"><a xlink:title=" ">
<polygon fill="#e0e0e0" stroke="#999999" points="161.5,-77.5 119.25,-77.5 119.25,-56.75 161.5,-56.75 161.5,-77.5"/>
<text text-anchor="middle" x="140.38" y="-64" font-family="Helvetica,sans-Serif" font-size="10.00">cpu.h</text>
</a>
</g>
</g>
<!-- Node2&#45;&gt;Node3 -->
<g id="edge2_Node000002_Node000003" class="edge">
<title>Node2&#45;&gt;Node3</title>
<g id="a_edge2_Node000002_Node000003"><a xlink:title=" ">
<path fill="none" stroke="#63b8ff" d="M140.38,-113.09C140.38,-106.47 140.38,-97.47 140.38,-89.27"/>
<polygon fill="#63b8ff" stroke="#63b8ff" points="143.88,-89.34 140.38,-79.34 136.88,-89.34 143.88,-89.34"/>
</a>
</g>
</g>
<!-- Node4 -->
<g id="Node000004" class="node">
<title>Node4</title>
<g id="a_Node000004"><a xlink:title=" ">
<polygon fill="#e0e0e0" stroke="#999999" points="100.75,-77.5 0,-77.5 0,-56.75 100.75,-56.75 100.75,-77.5"/>
<text text-anchor="middle" x="50.38" y="-64" font-family="Helvetica,sans-Serif" font-size="10.00">board_common.h</text>
</a>
</g>
</g>
<!-- Node2&#45;&gt;Node4 -->
<g id="edge3_Node000002_Node000004" class="edge">
<title>Node2&#45;&gt;Node4</title>
<g id="a_edge3_Node000002_Node000004"><a xlink:title=" ">
<path fill="none" stroke="#63b8ff" d="M124.28,-113.09C110.85,-104.91 91.44,-93.11 75.89,-83.65"/>
<polygon fill="#63b8ff" stroke="#63b8ff" points="77.98,-80.82 67.62,-78.62 74.34,-86.8 77.98,-80.82"/>
</a>
</g>
</g>
<!-- Node6 -->
<g id="Node000006" class="node">
<title>Node6</title>
<g id="a_Node000006"><a xlink:href="drivers_2include_2periph_2gpio_8h.html" target="_top" xlink:title="Low&#45;level GPIO peripheral driver interface definitions.">
<polygon fill="white" stroke="#666666" points="259.25,-77.5 179.5,-77.5 179.5,-56.75 259.25,-56.75 259.25,-77.5"/>
<text text-anchor="middle" x="219.38" y="-64" font-family="Helvetica,sans-Serif" font-size="10.00">periph/gpio.h</text>
</a>
</g>
</g>
<!-- Node5&#45;&gt;Node6 -->
<g id="edge5_Node000005_Node000006" class="edge">
<title>Node5&#45;&gt;Node6</title>
<g id="a_edge5_Node000005_Node000006"><a xlink:title=" ">
<path fill="none" stroke="#63b8ff" d="M300.68,-113.09C285.75,-104.83 264.14,-92.88 246.95,-83.38"/>
<polygon fill="#63b8ff" stroke="#63b8ff" points="248.69,-80.34 238.25,-78.56 245.3,-86.46 248.69,-80.34"/>
</a>
</g>
</g>
<!-- Node5&#45;&gt;Node10 -->
<g id="edge9_Node000005_Node000010" class="edge">
<title>Node5&#45;&gt;Node10</title>
<g id="a_edge9_Node000005_Node000010"><a xlink:title=" ">
<path fill="none" stroke="#63b8ff" d="M335.72,-113.09C350.34,-104.83 371.51,-92.88 388.35,-83.38"/>
<polygon fill="#63b8ff" stroke="#63b8ff" points="389.88,-86.54 396.87,-78.57 386.44,-80.44 389.88,-86.54"/>
</a>
</g>
</g>
<!-- Node12 -->
<g id="Node000012" class="node">
<title>Node12</title>
<g id="a_Node000012"><a xlink:href="pwm_8h.html" target="_top" xlink:title="Low&#45;level PWM peripheral driver interface definitions.">
<polygon fill="white" stroke="#666666" points="359.75,-77.5 277,-77.5 277,-56.75 359.75,-56.75 359.75,-77.5"/>
<text text-anchor="middle" x="318.38" y="-64" font-family="Helvetica,sans-Serif" font-size="10.00">periph/pwm.h</text>
</a>
</g>
</g>
<!-- Node5&#45;&gt;Node12 -->
<g id="edge14_Node000005_Node000012" class="edge">
<title>Node5&#45;&gt;Node12</title>
<g id="a_edge14_Node000005_Node000012"><a xlink:title=" ">
<path fill="none" stroke="#63b8ff" d="M318.38,-113.09C318.38,-106.47 318.38,-97.47 318.38,-89.27"/>
<polygon fill="#63b8ff" stroke="#63b8ff" points="321.88,-89.34 318.38,-79.34 314.88,-89.34 321.88,-89.34"/>
</a>
</g>
</g>
<!-- Node7 -->
<g id="Node000007" class="node">
<title>Node7</title>
<g id="a_Node000007"><a xlink:title=" ">
<polygon fill="#e0e0e0" stroke="#999999" points="245.75,-20.75 193,-20.75 193,0 245.75,0 245.75,-20.75"/>
<text text-anchor="middle" x="219.38" y="-7.25" font-family="Helvetica,sans-Serif" font-size="10.00">limits.h</text>
</a>
</g>
</g>
<!-- Node6&#45;&gt;Node7 -->
<g id="edge6_Node000006_Node000007" class="edge">
<title>Node6&#45;&gt;Node7</title>
<g id="a_edge6_Node000006_Node000007"><a xlink:title=" ">
<path fill="none" stroke="#63b8ff" d="M219.38,-56.34C219.38,-49.72 219.38,-40.72 219.38,-32.52"/>
<polygon fill="#63b8ff" stroke="#63b8ff" points="222.88,-32.59 219.38,-22.59 215.88,-32.59 222.88,-32.59"/>
</a>
</g>
</g>
<!-- Node8 -->
<g id="Node000008" class="node">
<title>Node8</title>
<g id="a_Node000008"><a xlink:title=" ">
<polygon fill="#e0e0e0" stroke="#999999" points="342.5,-20.75 264.25,-20.75 264.25,0 342.5,0 342.5,-20.75"/>
<text text-anchor="middle" x="303.38" y="-7.25" font-family="Helvetica,sans-Serif" font-size="10.00">periph_cpu.h</text>
</a>
</g>
</g>
<!-- Node6&#45;&gt;Node8 -->
<g id="edge7_Node000006_Node000008" class="edge">
<title>Node6&#45;&gt;Node8</title>
<g id="a_edge7_Node000006_Node000008"><a xlink:title=" ">
<path fill="none" stroke="#63b8ff" d="M234.39,-56.34C246.82,-48.24 264.7,-36.58 279.15,-27.17"/>
<polygon fill="#63b8ff" stroke="#63b8ff" points="280.75,-30.3 287.22,-21.9 276.93,-24.43 280.75,-30.3"/>
</a>
</g>
</g>
<!-- Node9 -->
<g id="Node000009" class="node">
<title>Node9</title>
<g id="a_Node000009"><a xlink:title=" ">
<polygon fill="#e0e0e0" stroke="#999999" points="442,-20.75 360.75,-20.75 360.75,0 442,0 442,-20.75"/>
<text text-anchor="middle" x="401.38" y="-7.25" font-family="Helvetica,sans-Serif" font-size="10.00">periph_conf.h</text>
</a>
</g>
</g>
<!-- Node6&#45;&gt;Node9 -->
<g id="edge8_Node000006_Node000009" class="edge">
<title>Node6&#45;&gt;Node9</title>
<g id="a_edge8_Node000006_Node000009"><a xlink:title=" ">
<path fill="none" stroke="#63b8ff" d="M251.91,-56.34C281.46,-47.45 325.25,-34.27 357.81,-24.48"/>
<polygon fill="#63b8ff" stroke="#63b8ff" points="358.8,-27.84 367.36,-21.61 356.78,-21.14 358.8,-27.84"/>
</a>
</g>
</g>
<!-- Node10&#45;&gt;Node7 -->
<g id="edge10_Node000010_Node000007" class="edge">
<title>Node10&#45;&gt;Node7</title>
<g id="a_edge10_Node000010_Node000007"><a xlink:title=" ">
<path fill="none" stroke="#63b8ff" d="M380.33,-56.34C345.66,-46.65 292.75,-31.87 257.15,-21.93"/>
<polygon fill="#63b8ff" stroke="#63b8ff" points="258.27,-18.61 247.7,-19.29 256.39,-25.35 258.27,-18.61"/>
</a>
</g>
</g>
<!-- Node10&#45;&gt;Node8 -->
<g id="edge12_Node000010_Node000008" class="edge">
<title>Node10&#45;&gt;Node8</title>
<g id="a_edge12_Node000010_Node000008"><a xlink:title=" ">
<path fill="none" stroke="#63b8ff" d="M395.35,-56.34C378.15,-47.93 353.1,-35.68 333.48,-26.09"/>
<polygon fill="#63b8ff" stroke="#63b8ff" points="335.11,-22.99 324.58,-21.74 332.03,-29.28 335.11,-22.99"/>
</a>
</g>
</g>
<!-- Node10&#45;&gt;Node9 -->
<g id="edge13_Node000010_Node000009" class="edge">
<title>Node10&#45;&gt;Node9</title>
<g id="a_edge13_Node000010_Node000009"><a xlink:title=" ">
<path fill="none" stroke="#63b8ff" d="M412.87,-56.34C411.16,-49.64 408.83,-40.51 406.71,-32.23"/>
<polygon fill="#63b8ff" stroke="#63b8ff" points="410.1,-31.37 404.23,-22.54 403.32,-33.1 410.1,-31.37"/>
</a>
</g>
</g>
<!-- Node11 -->
<g id="Node000011" class="node">
<title>Node11</title>
<g id="a_Node000011"><a xlink:title=" ">
<polygon fill="#e0e0e0" stroke="#999999" points="512.75,-20.75 460,-20.75 460,0 512.75,0 512.75,-20.75"/>
<text text-anchor="middle" x="486.38" y="-7.25" font-family="Helvetica,sans-Serif" font-size="10.00">stdint.h</text>
</a>
</g>
</g>
<!-- Node10&#45;&gt;Node11 -->
<g id="edge11_Node000010_Node000011" class="edge">
<title>Node10&#45;&gt;Node11</title>
<g id="a_edge11_Node000010_Node000011"><a xlink:title=" ">
<path fill="none" stroke="#63b8ff" d="M428.07,-56.34C438.27,-48.47 452.82,-37.25 464.83,-27.99"/>
<polygon fill="#63b8ff" stroke="#63b8ff" points="466.81,-30.88 472.59,-22 462.54,-25.34 466.81,-30.88"/>
</a>
</g>
</g>
<!-- Node12&#45;&gt;Node7 -->
<g id="edge16_Node000012_Node000007" class="edge">
<title>Node12&#45;&gt;Node7</title>
<g id="a_edge16_Node000012_Node000007"><a xlink:title=" ">
<path fill="none" stroke="#63b8ff" d="M300.68,-56.34C285.75,-48.08 264.14,-36.13 246.95,-26.63"/>
<polygon fill="#63b8ff" stroke="#63b8ff" points="248.69,-23.59 238.25,-21.81 245.3,-29.71 248.69,-23.59"/>
</a>
</g>
</g>
<!-- Node12&#45;&gt;Node8 -->
<g id="edge17_Node000012_Node000008" class="edge">
<title>Node12&#45;&gt;Node8</title>
<g id="a_edge17_Node000012_Node000008"><a xlink:title=" ">
<path fill="none" stroke="#63b8ff" d="M315.69,-56.34C313.84,-49.56 311.3,-40.3 309.01,-31.94"/>
<polygon fill="#63b8ff" stroke="#63b8ff" points="312.45,-31.26 306.43,-22.54 305.7,-33.11 312.45,-31.26"/>
</a>
</g>
</g>
<!-- Node12&#45;&gt;Node9 -->
<g id="edge18_Node000012_Node000009" class="edge">
<title>Node12&#45;&gt;Node9</title>
<g id="a_edge18_Node000012_Node000009"><a xlink:title=" ">
<path fill="none" stroke="#63b8ff" d="M333.21,-56.34C345.49,-48.24 363.16,-36.58 377.43,-27.17"/>
<polygon fill="#63b8ff" stroke="#63b8ff" points="378.98,-30.34 385.4,-21.91 375.13,-24.5 378.98,-30.34"/>
</a>
</g>
</g>
<!-- Node12&#45;&gt;Node11 -->
<g id="edge15_Node000012_Node000011" class="edge">
<title>Node12&#45;&gt;Node11</title>
<g id="a_edge15_Node000012_Node000011"><a xlink:title=" ">
<path fill="none" stroke="#63b8ff" d="M348.41,-56.34C376.57,-47.16 418.76,-33.41 449.07,-23.53"/>
<polygon fill="#63b8ff" stroke="#63b8ff" points="449.78,-26.98 458.21,-20.55 447.61,-20.33 449.78,-26.98"/>
</a>
</g>
</g>
</g>
</svg>
