<?xml version="1.0" encoding="UTF-8" standalone="no"?>
<!DOCTYPE svg PUBLIC "-//W3C//DTD SVG 1.1//EN"
 "http://www.w3.org/Graphics/SVG/1.1/DTD/svg11.dtd">
<!-- Generated by graphviz version 12.1.1 (0)
 -->
<!-- Title: core/lib/include/ringbuffer.h Pages: 1 -->
<svg width="1138pt" height="181pt"
 viewBox="0.00 0.00 1138.38 180.50" xmlns="http://www.w3.org/2000/svg" xmlns:xlink="http://www.w3.org/1999/xlink">
<g id="graph0" class="graph" transform="scale(1 1) rotate(0) translate(4 176.5)">
<title>core/lib/include/ringbuffer.h</title>
<!-- Node1 -->
<g id="Node000001" class="node">
<title>Node1</title>
<g id="a_Node000001"><a xlink:title="A utility for storing and retrieving byte data using a ring buffer.">
<polygon fill="#999999" stroke="#666666" points="450.38,-172.5 300.12,-172.5 300.12,-151.75 450.38,-151.75 450.38,-172.5"/>
<text text-anchor="middle" x="375.25" y="-159" font-family="Helvetica,sans-Serif" font-size="10.00">core/lib/include/ringbuffer.h</text>
</a>
</g>
</g>
<!-- Node2 -->
<g id="Node000002" class="node">
<title>Node2</title>
<g id="a_Node000002"><a xlink:href="esp__wifi__netdev_8h.html" target="_top" xlink:title="Network device driver for the ESP SoCs WiFi interface.">
<polygon fill="white" stroke="#666666" points="128.5,-115.75 0,-115.75 0,-82.25 128.5,-82.25 128.5,-115.75"/>
<text text-anchor="start" x="8" y="-102.25" font-family="Helvetica,sans-Serif" font-size="10.00">cpu/esp_common/esp</text>
<text text-anchor="middle" x="64.25" y="-89.5" font-family="Helvetica,sans-Serif" font-size="10.00">&#45;wifi/esp_wifi_netdev.h</text>
</a>
</g>
</g>
<!-- Node1&#45;&gt;Node2 -->
<g id="edge1_Node000001_Node000002" class="edge">
<title>Node1&#45;&gt;Node2</title>
<g id="a_edge1_Node000001_Node000002"><a xlink:title=" ">
<path fill="none" stroke="#63b8ff" d="M310.63,-149.24C262.71,-140.32 195.83,-127.65 137.25,-115.75 134.45,-115.18 131.6,-114.6 128.72,-114"/>
<polygon fill="#63b8ff" stroke="#63b8ff" points="309.81,-152.65 320.28,-151.03 311.09,-145.77 309.81,-152.65"/>
</a>
</g>
</g>
<!-- Node3 -->
<g id="Node000003" class="node">
<title>Node3</title>
<g id="a_Node000003"><a xlink:href="atwinc15x0_8h.html" target="_top" xlink:title="Netdev Driver for the Microchip ATWINC15x0 WiFi Module.">
<polygon fill="white" stroke="#666666" points="302.38,-109.38 146.12,-109.38 146.12,-88.62 302.38,-88.62 302.38,-109.38"/>
<text text-anchor="middle" x="224.25" y="-95.88" font-family="Helvetica,sans-Serif" font-size="10.00">drivers/include/atwinc15x0.h</text>
</a>
</g>
</g>
<!-- Node1&#45;&gt;Node3 -->
<g id="edge2_Node000001_Node000003" class="edge">
<title>Node1&#45;&gt;Node3</title>
<g id="a_edge2_Node000001_Node000003"><a xlink:title=" ">
<path fill="none" stroke="#63b8ff" d="M340.4,-147.02C312.23,-135.61 273.3,-119.86 248.45,-109.8"/>
<polygon fill="#63b8ff" stroke="#63b8ff" points="339,-150.23 349.59,-150.74 341.63,-143.74 339,-150.23"/>
</a>
</g>
</g>
<!-- Node5 -->
<g id="Node000005" class="node">
<title>Node5</title>
<g id="a_Node000005"><a xlink:href="serialport_8hpp.html" target="_top" xlink:title="Definition of the Arduino &#39;Serial&#39; interface.">
<polygon fill="white" stroke="#666666" points="430.5,-115.75 320,-115.75 320,-82.25 430.5,-82.25 430.5,-115.75"/>
<text text-anchor="start" x="328" y="-102.25" font-family="Helvetica,sans-Serif" font-size="10.00">sys/arduino/include</text>
<text text-anchor="middle" x="375.25" y="-89.5" font-family="Helvetica,sans-Serif" font-size="10.00">/serialport.hpp</text>
</a>
</g>
</g>
<!-- Node1&#45;&gt;Node5 -->
<g id="edge4_Node000001_Node000005" class="edge">
<title>Node1&#45;&gt;Node5</title>
<g id="a_edge4_Node000001_Node000005"><a xlink:title=" ">
<path fill="none" stroke="#63b8ff" d="M375.25,-139.84C375.25,-132.1 375.25,-123.47 375.25,-116.23"/>
<polygon fill="#63b8ff" stroke="#63b8ff" points="371.75,-139.79 375.25,-149.79 378.75,-139.79 371.75,-139.79"/>
</a>
</g>
</g>
<!-- Node7 -->
<g id="Node000007" class="node">
<title>Node7</title>
<g id="a_Node000007"><a xlink:href="tcb_8h.html" target="_top" xlink:title="GNRC TCP transmission control block (TCB)">
<polygon fill="white" stroke="#666666" points="620,-115.75 506.5,-115.75 506.5,-82.25 620,-82.25 620,-115.75"/>
<text text-anchor="start" x="514.5" y="-102.25" font-family="Helvetica,sans-Serif" font-size="10.00">sys/include/net/gnrc</text>
<text text-anchor="middle" x="563.25" y="-89.5" font-family="Helvetica,sans-Serif" font-size="10.00">/tcp/tcb.h</text>
</a>
</g>
</g>
<!-- Node1&#45;&gt;Node7 -->
<g id="edge6_Node000001_Node000007" class="edge">
<title>Node1&#45;&gt;Node7</title>
<g id="a_edge6_Node000001_Node000007"><a xlink:title=" ">
<path fill="none" stroke="#63b8ff" d="M416.27,-147.79C444.8,-138.51 483.01,-126.09 513.32,-116.23"/>
<polygon fill="#63b8ff" stroke="#63b8ff" points="415.32,-144.42 406.89,-150.84 417.49,-151.07 415.32,-144.42"/>
</a>
</g>
</g>
<!-- Node14 -->
<g id="Node000014" class="node">
<title>Node14</title>
<g id="a_Node000014"><a xlink:href="pipe_8h.html" target="_top" xlink:title=" ">
<polygon fill="white" stroke="#666666" points="742.12,-109.38 638.38,-109.38 638.38,-88.62 742.12,-88.62 742.12,-109.38"/>
<text text-anchor="middle" x="690.25" y="-95.88" font-family="Helvetica,sans-Serif" font-size="10.00">sys/include/pipe.h</text>
</a>
</g>
</g>
<!-- Node1&#45;&gt;Node14 -->
<g id="edge13_Node000001_Node000014" class="edge">
<title>Node1&#45;&gt;Node14</title>
<g id="a_edge13_Node000001_Node000014"><a xlink:title=" ">
<path fill="none" stroke="#63b8ff" d="M449.35,-149.41C500.17,-141.01 569.03,-128.88 629.25,-115.75 637.26,-114 645.82,-111.93 653.91,-109.87"/>
<polygon fill="#63b8ff" stroke="#63b8ff" points="448.93,-145.93 439.63,-151.01 450.07,-152.84 448.93,-145.93"/>
</a>
</g>
</g>
<!-- Node4 -->
<g id="Node000004" class="node">
<title>Node4</title>
<g id="a_Node000004"><a xlink:href="atwinc15x0__internal_8h.html" target="_top" xlink:title="Internal definitions for the ATWINC15x0 WiFi netdev driver.">
<polygon fill="white" stroke="#666666" points="150,-46.25 36.5,-46.25 36.5,0 150,0 150,-46.25"/>
<text text-anchor="start" x="44.5" y="-32.75" font-family="Helvetica,sans-Serif" font-size="10.00">drivers/atwinc15x0</text>
<text text-anchor="start" x="44.5" y="-20" font-family="Helvetica,sans-Serif" font-size="10.00">/include/atwinc15x0</text>
<text text-anchor="middle" x="93.25" y="-7.25" font-family="Helvetica,sans-Serif" font-size="10.00">_internal.h</text>
</a>
</g>
</g>
<!-- Node3&#45;&gt;Node4 -->
<g id="edge3_Node000003_Node000004" class="edge">
<title>Node3&#45;&gt;Node4</title>
<g id="a_edge3_Node000003_Node000004"><a xlink:title=" ">
<path fill="none" stroke="#63b8ff" d="M197.07,-82.67C178.66,-72.29 154.01,-58.39 133.35,-46.74"/>
<polygon fill="#63b8ff" stroke="#63b8ff" points="195.11,-85.58 205.54,-87.45 198.54,-79.49 195.11,-85.58"/>
</a>
</g>
</g>
<!-- Node6 -->
<g id="Node000006" class="node">
<title>Node6</title>
<g id="a_Node000006"><a xlink:href="arduino_8hpp.html" target="_top" xlink:title="Main interface definition of the Arduino API.">
<polygon fill="white" stroke="#666666" points="278.5,-39.88 168,-39.88 168,-6.38 278.5,-6.38 278.5,-39.88"/>
<text text-anchor="start" x="176" y="-26.38" font-family="Helvetica,sans-Serif" font-size="10.00">sys/arduino/include</text>
<text text-anchor="middle" x="223.25" y="-13.62" font-family="Helvetica,sans-Serif" font-size="10.00">/arduino.hpp</text>
</a>
</g>
</g>
<!-- Node5&#45;&gt;Node6 -->
<g id="edge5_Node000005_Node000006" class="edge">
<title>Node5&#45;&gt;Node6</title>
<g id="a_edge5_Node000005_Node000006"><a xlink:title=" ">
<path fill="none" stroke="#63b8ff" d="M331.67,-76.82C307.76,-65.2 278.59,-51.02 256.53,-40.3"/>
<polygon fill="#63b8ff" stroke="#63b8ff" points="330.01,-79.9 340.53,-81.13 333.07,-73.61 330.01,-79.9"/>
</a>
</g>
</g>
<!-- Node8 -->
<g id="Node000008" class="node">
<title>Node8</title>
<g id="a_Node000008"><a xlink:href="gnrc_2tcp_8h.html" target="_top" xlink:title="GNRC TCP API.">
<polygon fill="white" stroke="#666666" points="410,-39.88 296.5,-39.88 296.5,-6.38 410,-6.38 410,-39.88"/>
<text text-anchor="start" x="304.5" y="-26.38" font-family="Helvetica,sans-Serif" font-size="10.00">sys/include/net/gnrc</text>
<text text-anchor="middle" x="353.25" y="-13.62" font-family="Helvetica,sans-Serif" font-size="10.00">/tcp.h</text>
</a>
</g>
</g>
<!-- Node7&#45;&gt;Node8 -->
<g id="edge7_Node000007_Node000008" class="edge">
<title>Node7&#45;&gt;Node8</title>
<g id="a_edge7_Node000007_Node000008"><a xlink:title=" ">
<path fill="none" stroke="#63b8ff" d="M506.56,-78.06C472.91,-66.22 430.8,-51.41 399.23,-40.3"/>
<polygon fill="#63b8ff" stroke="#63b8ff" points="505.14,-81.27 515.74,-81.29 507.47,-74.67 505.14,-81.27"/>
</a>
</g>
</g>
<!-- Node9 -->
<g id="Node000009" class="node">
<title>Node9</title>
<g id="a_Node000009"><a xlink:href="gnrc__tcp__common_8h.html" target="_top" xlink:title="Internally used defines, macros and variable declarations.">
<polygon fill="white" stroke="#666666" points="554.38,-46.25 428.12,-46.25 428.12,0 554.38,0 554.38,-46.25"/>
<text text-anchor="start" x="436.12" y="-32.75" font-family="Helvetica,sans-Serif" font-size="10.00">sys/net/gnrc/transport</text>
<text text-anchor="start" x="436.12" y="-20" font-family="Helvetica,sans-Serif" font-size="10.00">_layer/tcp/include/gnrc</text>
<text text-anchor="middle" x="491.25" y="-7.25" font-family="Helvetica,sans-Serif" font-size="10.00">_tcp_common.h</text>
</a>
</g>
</g>
<!-- Node7&#45;&gt;Node9 -->
<g id="edge8_Node000007_Node000009" class="edge">
<title>Node7&#45;&gt;Node9</title>
<g id="a_edge8_Node000007_Node000009"><a xlink:title=" ">
<path fill="none" stroke="#63b8ff" d="M539.81,-73.95C531.23,-65.15 521.56,-55.23 513.12,-46.57"/>
<polygon fill="#63b8ff" stroke="#63b8ff" points="537.08,-76.17 546.57,-80.89 542.1,-71.28 537.08,-76.17"/>
</a>
</g>
</g>
<!-- Node10 -->
<g id="Node000010" class="node">
<title>Node10</title>
<g id="a_Node000010"><a xlink:href="gnrc__tcp__fsm_8h.html" target="_top" xlink:title="TCP finite state maschine declarations.">
<polygon fill="white" stroke="#666666" points="698.38,-46.25 572.12,-46.25 572.12,0 698.38,0 698.38,-46.25"/>
<text text-anchor="start" x="580.12" y="-32.75" font-family="Helvetica,sans-Serif" font-size="10.00">sys/net/gnrc/transport</text>
<text text-anchor="start" x="580.12" y="-20" font-family="Helvetica,sans-Serif" font-size="10.00">_layer/tcp/include/gnrc</text>
<text text-anchor="middle" x="635.25" y="-7.25" font-family="Helvetica,sans-Serif" font-size="10.00">_tcp_fsm.h</text>
</a>
</g>
</g>
<!-- Node7&#45;&gt;Node10 -->
<g id="edge9_Node000007_Node000010" class="edge">
<title>Node7&#45;&gt;Node10</title>
<g id="a_edge9_Node000007_Node000010"><a xlink:title=" ">
<path fill="none" stroke="#63b8ff" d="M586.69,-73.95C595.27,-65.15 604.94,-55.23 613.38,-46.57"/>
<polygon fill="#63b8ff" stroke="#63b8ff" points="584.4,-71.28 579.93,-80.89 589.42,-76.17 584.4,-71.28"/>
</a>
</g>
</g>
<!-- Node11 -->
<g id="Node000011" class="node">
<title>Node11</title>
<g id="a_Node000011"><a xlink:href="gnrc__tcp__option_8h.html" target="_top" xlink:title="TCP option handling declarations.">
<polygon fill="white" stroke="#666666" points="842.38,-46.25 716.12,-46.25 716.12,0 842.38,0 842.38,-46.25"/>
<text text-anchor="start" x="724.12" y="-32.75" font-family="Helvetica,sans-Serif" font-size="10.00">sys/net/gnrc/transport</text>
<text text-anchor="start" x="724.12" y="-20" font-family="Helvetica,sans-Serif" font-size="10.00">_layer/tcp/include/gnrc</text>
<text text-anchor="middle" x="779.25" y="-7.25" font-family="Helvetica,sans-Serif" font-size="10.00">_tcp_option.h</text>
</a>
</g>
</g>
<!-- Node7&#45;&gt;Node11 -->
<g id="edge10_Node000007_Node000011" class="edge">
<title>Node7&#45;&gt;Node11</title>
<g id="a_edge10_Node000007_Node000011"><a xlink:title=" ">
<path fill="none" stroke="#63b8ff" d="M621.51,-78.07C650.71,-68.09 686.11,-55.98 715.97,-45.77"/>
<polygon fill="#63b8ff" stroke="#63b8ff" points="620.41,-74.75 612.08,-81.3 622.68,-81.37 620.41,-74.75"/>
</a>
</g>
</g>
<!-- Node12 -->
<g id="Node000012" class="node">
<title>Node12</title>
<g id="a_Node000012"><a xlink:href="gnrc__tcp__pkt_8h.html" target="_top" xlink:title="TCP packet handling declarations.">
<polygon fill="white" stroke="#666666" points="986.38,-46.25 860.12,-46.25 860.12,0 986.38,0 986.38,-46.25"/>
<text text-anchor="start" x="868.12" y="-32.75" font-family="Helvetica,sans-Serif" font-size="10.00">sys/net/gnrc/transport</text>
<text text-anchor="start" x="868.12" y="-20" font-family="Helvetica,sans-Serif" font-size="10.00">_layer/tcp/include/gnrc</text>
<text text-anchor="middle" x="923.25" y="-7.25" font-family="Helvetica,sans-Serif" font-size="10.00">_tcp_pkt.h</text>
</a>
</g>
</g>
<!-- Node7&#45;&gt;Node12 -->
<g id="edge11_Node000007_Node000012" class="edge">
<title>Node7&#45;&gt;Node12</title>
<g id="a_edge11_Node000007_Node000012"><a xlink:title=" ">
<path fill="none" stroke="#63b8ff" d="M631.7,-81.86C729.28,-63.06 757.43,-68.16 851.25,-46.25 854.05,-45.6 856.9,-44.89 859.78,-44.15"/>
<polygon fill="#63b8ff" stroke="#63b8ff" points="631.05,-78.43 621.92,-83.79 632.4,-85.29 631.05,-78.43"/>
</a>
</g>
</g>
<!-- Node13 -->
<g id="Node000013" class="node">
<title>Node13</title>
<g id="a_Node000013"><a xlink:href="gnrc__tcp__rcvbuf_8h.html" target="_top" xlink:title="Functions for allocating and freeing the receive buffer.">
<polygon fill="white" stroke="#666666" points="1130.38,-46.25 1004.12,-46.25 1004.12,0 1130.38,0 1130.38,-46.25"/>
<text text-anchor="start" x="1012.12" y="-32.75" font-family="Helvetica,sans-Serif" font-size="10.00">sys/net/gnrc/transport</text>
<text text-anchor="start" x="1012.12" y="-20" font-family="Helvetica,sans-Serif" font-size="10.00">_layer/tcp/include/gnrc</text>
<text text-anchor="middle" x="1067.25" y="-7.25" font-family="Helvetica,sans-Serif" font-size="10.00">_tcp_rcvbuf.h</text>
</a>
</g>
</g>
<!-- Node7&#45;&gt;Node13 -->
<g id="edge12_Node000007_Node000013" class="edge">
<title>Node7&#45;&gt;Node13</title>
<g id="a_edge12_Node000007_Node000013"><a xlink:title=" ">
<path fill="none" stroke="#63b8ff" d="M631.66,-82.01C792.51,-56.23 838.59,-77.69 995.25,-46.25 998.07,-45.68 1000.94,-45.05 1003.82,-44.37"/>
<polygon fill="#63b8ff" stroke="#63b8ff" points="631.18,-78.54 621.88,-83.62 632.32,-85.45 631.18,-78.54"/>
</a>
</g>
</g>
</g>
</svg>
