<?xml version="1.0" encoding="UTF-8" standalone="no"?>
<!DOCTYPE svg PUBLIC "-//W3C//DTD SVG 1.1//EN"
 "http://www.w3.org/Graphics/SVG/1.1/DTD/svg11.dtd">
<!-- Generated by graphviz version 12.1.1 (0)
 -->
<!-- Title: sys/include/riotboot/flashwrite.h Pages: 1 -->
<svg width="384pt" height="212pt"
 viewBox="0.00 0.00 384.12 211.75" xmlns="http://www.w3.org/2000/svg" xmlns:xlink="http://www.w3.org/1999/xlink">
<g id="graph0" class="graph" transform="scale(1 1) rotate(0) translate(4 207.75)">
<title>sys/include/riotboot/flashwrite.h</title>
<!-- Node1 -->
<g id="Node000001" class="node">
<title>Node1</title>
<g id="a_Node000001"><a xlink:title="riotboot flash writing module">
<polygon fill="#999999" stroke="#666666" points="212,-203.75 100,-203.75 100,-170.25 212,-170.25 212,-203.75"/>
<text text-anchor="start" x="108" y="-190.25" font-family="Helvetica,sans-Serif" font-size="10.00">sys/include/riotboot</text>
<text text-anchor="middle" x="156" y="-177.5" font-family="Helvetica,sans-Serif" font-size="10.00">/flashwrite.h</text>
</a>
</g>
</g>
<!-- Node2 -->
<g id="Node000002" class="node">
<title>Node2</title>
<g id="a_Node000002"><a xlink:href="slot_8h.html" target="_top" xlink:title="Slot management tools.">
<polygon fill="white" stroke="#666666" points="141.12,-134.25 56.88,-134.25 56.88,-113.5 141.12,-113.5 141.12,-134.25"/>
<text text-anchor="middle" x="99" y="-120.75" font-family="Helvetica,sans-Serif" font-size="10.00">riotboot/slot.h</text>
</a>
</g>
</g>
<!-- Node1&#45;&gt;Node2 -->
<g id="edge1_Node000001_Node000002" class="edge">
<title>Node1&#45;&gt;Node2</title>
<g id="a_edge1_Node000001_Node000002"><a xlink:title=" ">
<path fill="none" stroke="#63b8ff" d="M141.02,-169.94C133.29,-161.64 123.82,-151.49 115.83,-142.93"/>
<polygon fill="#63b8ff" stroke="#63b8ff" points="118.59,-140.75 109.21,-135.82 113.47,-145.52 118.59,-140.75"/>
</a>
</g>
</g>
<!-- Node6 -->
<g id="Node000006" class="node">
<title>Node6</title>
<g id="a_Node000006"><a xlink:href="flashpage_8h.html" target="_top" xlink:title="Low&#45;level flash page peripheral driver interface.">
<polygon fill="white" stroke="#666666" points="266.38,-134.25 159.62,-134.25 159.62,-113.5 266.38,-113.5 266.38,-134.25"/>
<text text-anchor="middle" x="213" y="-120.75" font-family="Helvetica,sans-Serif" font-size="10.00">periph/flashpage.h</text>
</a>
</g>
</g>
<!-- Node1&#45;&gt;Node6 -->
<g id="edge5_Node000001_Node000006" class="edge">
<title>Node1&#45;&gt;Node6</title>
<g id="a_edge5_Node000001_Node000006"><a xlink:title=" ">
<path fill="none" stroke="#63b8ff" d="M170.98,-169.94C178.71,-161.64 188.18,-151.49 196.17,-142.93"/>
<polygon fill="#63b8ff" stroke="#63b8ff" points="198.53,-145.52 202.79,-135.82 193.41,-140.75 198.53,-145.52"/>
</a>
</g>
</g>
<!-- Node3 -->
<g id="Node000003" class="node">
<title>Node3</title>
<g id="a_Node000003"><a xlink:title=" ">
<polygon fill="#e0e0e0" stroke="#999999" points="155.5,-77.5 100.5,-77.5 100.5,-56.75 155.5,-56.75 155.5,-77.5"/>
<text text-anchor="middle" x="128" y="-64" font-family="Helvetica,sans-Serif" font-size="10.00">stddef.h</text>
</a>
</g>
</g>
<!-- Node2&#45;&gt;Node3 -->
<g id="edge2_Node000002_Node000003" class="edge">
<title>Node2&#45;&gt;Node3</title>
<g id="a_edge2_Node000002_Node000003"><a xlink:title=" ">
<path fill="none" stroke="#63b8ff" d="M104.18,-113.09C107.9,-106.08 113.02,-96.41 117.56,-87.83"/>
<polygon fill="#63b8ff" stroke="#63b8ff" points="120.56,-89.64 122.15,-79.17 114.38,-86.36 120.56,-89.64"/>
</a>
</g>
</g>
<!-- Node4 -->
<g id="Node000004" class="node">
<title>Node4</title>
<g id="a_Node000004"><a xlink:href="riotboot_2hdr_8h.html" target="_top" xlink:title="RIOT &quot;partition&quot; header and tools.">
<polygon fill="white" stroke="#666666" points="82,-77.5 0,-77.5 0,-56.75 82,-56.75 82,-77.5"/>
<text text-anchor="middle" x="41" y="-64" font-family="Helvetica,sans-Serif" font-size="10.00">riotboot/hdr.h</text>
</a>
</g>
</g>
<!-- Node2&#45;&gt;Node4 -->
<g id="edge3_Node000002_Node000004" class="edge">
<title>Node2&#45;&gt;Node4</title>
<g id="a_edge3_Node000002_Node000004"><a xlink:title=" ">
<path fill="none" stroke="#63b8ff" d="M88.63,-113.09C80.55,-105.46 69.12,-94.67 59.48,-85.57"/>
<polygon fill="#63b8ff" stroke="#63b8ff" points="62.05,-83.19 52.38,-78.87 57.25,-88.28 62.05,-83.19"/>
</a>
</g>
</g>
<!-- Node5 -->
<g id="Node000005" class="node">
<title>Node5</title>
<g id="a_Node000005"><a xlink:title=" ">
<polygon fill="#e0e0e0" stroke="#999999" points="138.38,-20.75 85.62,-20.75 85.62,0 138.38,0 138.38,-20.75"/>
<text text-anchor="middle" x="112" y="-7.25" font-family="Helvetica,sans-Serif" font-size="10.00">stdint.h</text>
</a>
</g>
</g>
<!-- Node4&#45;&gt;Node5 -->
<g id="edge4_Node000004_Node000005" class="edge">
<title>Node4&#45;&gt;Node5</title>
<g id="a_edge4_Node000004_Node000005"><a xlink:title=" ">
<path fill="none" stroke="#63b8ff" d="M53.69,-56.34C63.89,-48.47 78.44,-37.25 90.46,-27.99"/>
<polygon fill="#63b8ff" stroke="#63b8ff" points="92.44,-30.88 98.22,-22 88.16,-25.34 92.44,-30.88"/>
</a>
</g>
</g>
<!-- Node6&#45;&gt;Node3 -->
<g id="edge6_Node000006_Node000003" class="edge">
<title>Node6&#45;&gt;Node3</title>
<g id="a_edge6_Node000006_Node000003"><a xlink:title=" ">
<path fill="none" stroke="#63b8ff" d="M197.8,-113.09C185.23,-104.99 167.14,-93.33 152.52,-83.92"/>
<polygon fill="#63b8ff" stroke="#63b8ff" points="154.64,-81.12 144.34,-78.65 150.85,-87.01 154.64,-81.12"/>
</a>
</g>
</g>
<!-- Node6&#45;&gt;Node5 -->
<g id="edge7_Node000006_Node000005" class="edge">
<title>Node6&#45;&gt;Node5</title>
<g id="a_edge7_Node000006_Node000005"><a xlink:title=" ">
<path fill="none" stroke="#63b8ff" d="M207.12,-113.37C198.64,-100.03 182.13,-75.31 165,-56.75 155.54,-46.5 143.86,-36.28 133.88,-28.15"/>
<polygon fill="#63b8ff" stroke="#63b8ff" points="136.14,-25.48 126.14,-22 131.79,-30.96 136.14,-25.48"/>
</a>
</g>
</g>
<!-- Node7 -->
<g id="Node000007" class="node">
<title>Node7</title>
<g id="a_Node000007"><a xlink:title=" ">
<polygon fill="#e0e0e0" stroke="#999999" points="279.88,-77.5 212.12,-77.5 212.12,-56.75 279.88,-56.75 279.88,-77.5"/>
<text text-anchor="middle" x="246" y="-64" font-family="Helvetica,sans-Serif" font-size="10.00">cpu_conf.h</text>
</a>
</g>
</g>
<!-- Node6&#45;&gt;Node7 -->
<g id="edge8_Node000006_Node000007" class="edge">
<title>Node6&#45;&gt;Node7</title>
<g id="a_edge8_Node000006_Node000007"><a xlink:title=" ">
<path fill="none" stroke="#63b8ff" d="M218.9,-113.09C223.17,-106 229.08,-96.19 234.3,-87.54"/>
<polygon fill="#63b8ff" stroke="#63b8ff" points="237.21,-89.5 239.37,-79.12 231.21,-85.88 237.21,-89.5"/>
</a>
</g>
</g>
<!-- Node8 -->
<g id="Node000008" class="node">
<title>Node8</title>
<g id="a_Node000008"><a xlink:title=" ">
<polygon fill="#e0e0e0" stroke="#999999" points="376.12,-77.5 297.88,-77.5 297.88,-56.75 376.12,-56.75 376.12,-77.5"/>
<text text-anchor="middle" x="337" y="-64" font-family="Helvetica,sans-Serif" font-size="10.00">periph_cpu.h</text>
</a>
</g>
</g>
<!-- Node6&#45;&gt;Node8 -->
<g id="edge9_Node000006_Node000008" class="edge">
<title>Node6&#45;&gt;Node8</title>
<g id="a_edge9_Node000006_Node000008"><a xlink:title=" ">
<path fill="none" stroke="#63b8ff" d="M235.17,-113.09C254.48,-104.56 282.72,-92.09 304.57,-82.44"/>
<polygon fill="#63b8ff" stroke="#63b8ff" points="305.9,-85.68 313.64,-78.44 303.08,-79.28 305.9,-85.68"/>
</a>
</g>
</g>
</g>
</svg>
