<?xml version="1.0" encoding="UTF-8" standalone="no"?>
<!DOCTYPE svg PUBLIC "-//W3C//DTD SVG 1.1//EN"
 "http://www.w3.org/Graphics/SVG/1.1/DTD/svg11.dtd">
<!-- Generated by graphviz version 12.1.1 (0)
 -->
<!-- Title: sys/include/riotboot/hdr.h Pages: 1 -->
<svg width="428pt" height="250pt"
 viewBox="0.00 0.00 428.25 250.00" xmlns="http://www.w3.org/2000/svg" xmlns:xlink="http://www.w3.org/1999/xlink">
<g id="graph0" class="graph" transform="scale(1 1) rotate(0) translate(4 246)">
<title>sys/include/riotboot/hdr.h</title>
<!-- Node1 -->
<g id="Node000001" class="node">
<title>Node1</title>
<g id="a_Node000001"><a xlink:title="RIOT &quot;partition&quot; header and tools.">
<polygon fill="#999999" stroke="#666666" points="270,-242 158,-242 158,-208.5 270,-208.5 270,-242"/>
<text text-anchor="start" x="166" y="-228.5" font-family="Helvetica,sans-Serif" font-size="10.00">sys/include/riotboot</text>
<text text-anchor="middle" x="214" y="-215.75" font-family="Helvetica,sans-Serif" font-size="10.00">/hdr.h</text>
</a>
</g>
</g>
<!-- Node2 -->
<g id="Node000002" class="node">
<title>Node2</title>
<g id="a_Node000002"><a xlink:href="magic_8h.html" target="_top" xlink:title="USB DFU/serial initialization constants for riotboot.">
<polygon fill="white" stroke="#666666" points="140,-172.5 28,-172.5 28,-139 140,-139 140,-172.5"/>
<text text-anchor="start" x="36" y="-159" font-family="Helvetica,sans-Serif" font-size="10.00">sys/include/riotboot</text>
<text text-anchor="middle" x="84" y="-146.25" font-family="Helvetica,sans-Serif" font-size="10.00">/magic.h</text>
</a>
</g>
</g>
<!-- Node1&#45;&gt;Node2 -->
<g id="edge1_Node000001_Node000002" class="edge">
<title>Node1&#45;&gt;Node2</title>
<g id="a_edge1_Node000001_Node000002"><a xlink:title=" ">
<path fill="none" stroke="#63b8ff" d="M172.8,-202.86C154.04,-193.12 132.21,-181.78 114.88,-172.79"/>
<polygon fill="#63b8ff" stroke="#63b8ff" points="171.03,-205.88 181.52,-207.38 174.26,-199.67 171.03,-205.88"/>
</a>
</g>
</g>
<!-- Node3 -->
<g id="Node000003" class="node">
<title>Node3</title>
<g id="a_Node000003"><a xlink:href="slot_8h.html" target="_top" xlink:title="Slot management tools.">
<polygon fill="white" stroke="#666666" points="270,-172.5 158,-172.5 158,-139 270,-139 270,-172.5"/>
<text text-anchor="start" x="166" y="-159" font-family="Helvetica,sans-Serif" font-size="10.00">sys/include/riotboot</text>
<text text-anchor="middle" x="214" y="-146.25" font-family="Helvetica,sans-Serif" font-size="10.00">/slot.h</text>
</a>
</g>
</g>
<!-- Node1&#45;&gt;Node3 -->
<g id="edge2_Node000001_Node000003" class="edge">
<title>Node1&#45;&gt;Node3</title>
<g id="a_edge2_Node000001_Node000003"><a xlink:title=" ">
<path fill="none" stroke="#63b8ff" d="M214,-196.81C214,-188.59 214,-179.84 214,-172.63"/>
<polygon fill="#63b8ff" stroke="#63b8ff" points="210.5,-196.74 214,-206.74 217.5,-196.74 210.5,-196.74"/>
</a>
</g>
</g>
<!-- Node8 -->
<g id="Node000008" class="node">
<title>Node8</title>
<g id="a_Node000008"><a xlink:href="usb__dfu_8h.html" target="_top" xlink:title="USB DFU initialization for riotboot.">
<polygon fill="white" stroke="#666666" points="400,-172.5 288,-172.5 288,-139 400,-139 400,-172.5"/>
<text text-anchor="start" x="296" y="-159" font-family="Helvetica,sans-Serif" font-size="10.00">sys/include/riotboot</text>
<text text-anchor="middle" x="344" y="-146.25" font-family="Helvetica,sans-Serif" font-size="10.00">/usb_dfu.h</text>
</a>
</g>
</g>
<!-- Node1&#45;&gt;Node8 -->
<g id="edge7_Node000001_Node000008" class="edge">
<title>Node1&#45;&gt;Node8</title>
<g id="a_edge7_Node000001_Node000008"><a xlink:title=" ">
<path fill="none" stroke="#63b8ff" d="M255.2,-202.86C273.96,-193.12 295.79,-181.78 313.12,-172.79"/>
<polygon fill="#63b8ff" stroke="#63b8ff" points="253.74,-199.67 246.48,-207.38 256.97,-205.88 253.74,-199.67"/>
</a>
</g>
</g>
<!-- Node4 -->
<g id="Node000004" class="node">
<title>Node4</title>
<g id="a_Node000004"><a xlink:href="riotboot_2flashwrite_8h.html" target="_top" xlink:title="riotboot flash writing module">
<polygon fill="white" stroke="#666666" points="270,-103 158,-103 158,-69.5 270,-69.5 270,-103"/>
<text text-anchor="start" x="166" y="-89.5" font-family="Helvetica,sans-Serif" font-size="10.00">sys/include/riotboot</text>
<text text-anchor="middle" x="214" y="-76.75" font-family="Helvetica,sans-Serif" font-size="10.00">/flashwrite.h</text>
</a>
</g>
</g>
<!-- Node3&#45;&gt;Node4 -->
<g id="edge3_Node000003_Node000004" class="edge">
<title>Node3&#45;&gt;Node4</title>
<g id="a_edge3_Node000003_Node000004"><a xlink:title=" ">
<path fill="none" stroke="#63b8ff" d="M214,-127.31C214,-119.09 214,-110.34 214,-103.13"/>
<polygon fill="#63b8ff" stroke="#63b8ff" points="210.5,-127.24 214,-137.24 217.5,-127.24 210.5,-127.24"/>
</a>
</g>
</g>
<!-- Node5 -->
<g id="Node000005" class="node">
<title>Node5</title>
<g id="a_Node000005"><a xlink:href="tinyusb__dfu_8h.html" target="_top" xlink:title="TinyUSB specific DFU definitions.">
<polygon fill="white" stroke="#666666" points="130,-33.5 0,-33.5 0,0 130,0 130,-33.5"/>
<text text-anchor="start" x="8" y="-20" font-family="Helvetica,sans-Serif" font-size="10.00">pkg/tinyusb/dfu/include</text>
<text text-anchor="middle" x="65" y="-7.25" font-family="Helvetica,sans-Serif" font-size="10.00">/tinyusb_dfu.h</text>
</a>
</g>
</g>
<!-- Node4&#45;&gt;Node5 -->
<g id="edge4_Node000004_Node000005" class="edge">
<title>Node4&#45;&gt;Node5</title>
<g id="a_edge4_Node000004_Node000005"><a xlink:title=" ">
<path fill="none" stroke="#63b8ff" d="M168.01,-64.42C146.33,-54.59 120.85,-43.05 100.66,-33.9"/>
<polygon fill="#63b8ff" stroke="#63b8ff" points="166.38,-67.52 176.93,-68.46 169.27,-61.14 166.38,-67.52"/>
</a>
</g>
</g>
<!-- Node6 -->
<g id="Node000006" class="node">
<title>Node6</title>
<g id="a_Node000006"><a xlink:href="suit_2storage_2flashwrite_8h_source.html" target="_top" xlink:title=" ">
<polygon fill="white" stroke="#666666" points="279.75,-33.5 148.25,-33.5 148.25,0 279.75,0 279.75,-33.5"/>
<text text-anchor="start" x="156.25" y="-20" font-family="Helvetica,sans-Serif" font-size="10.00">sys/include/suit/storage</text>
<text text-anchor="middle" x="214" y="-7.25" font-family="Helvetica,sans-Serif" font-size="10.00">/flashwrite.h</text>
</a>
</g>
</g>
<!-- Node4&#45;&gt;Node6 -->
<g id="edge5_Node000004_Node000006" class="edge">
<title>Node4&#45;&gt;Node6</title>
<g id="a_edge5_Node000004_Node000006"><a xlink:title=" ">
<path fill="none" stroke="#63b8ff" d="M214,-57.81C214,-49.59 214,-40.84 214,-33.63"/>
<polygon fill="#63b8ff" stroke="#63b8ff" points="210.5,-57.74 214,-67.74 217.5,-57.74 210.5,-57.74"/>
</a>
</g>
</g>
<!-- Node7 -->
<g id="Node000007" class="node">
<title>Node7</title>
<g id="a_Node000007"><a xlink:href="usbus_2dfu_8h_source.html" target="_top" xlink:title=" ">
<polygon fill="white" stroke="#666666" points="420.25,-33.5 297.75,-33.5 297.75,0 420.25,0 420.25,-33.5"/>
<text text-anchor="start" x="305.75" y="-20" font-family="Helvetica,sans-Serif" font-size="10.00">sys/include/usb/usbus</text>
<text text-anchor="middle" x="359" y="-7.25" font-family="Helvetica,sans-Serif" font-size="10.00">/dfu.h</text>
</a>
</g>
</g>
<!-- Node4&#45;&gt;Node7 -->
<g id="edge6_Node000004_Node000007" class="edge">
<title>Node4&#45;&gt;Node7</title>
<g id="a_edge6_Node000004_Node000007"><a xlink:title=" ">
<path fill="none" stroke="#63b8ff" d="M259.04,-64.28C280.08,-54.49 304.74,-43.01 324.3,-33.9"/>
<polygon fill="#63b8ff" stroke="#63b8ff" points="257.69,-61.05 250.1,-68.44 260.65,-67.4 257.69,-61.05"/>
</a>
</g>
</g>
</g>
</svg>
