<?xml version="1.0" encoding="UTF-8" standalone="no"?>
<!DOCTYPE svg PUBLIC "-//W3C//DTD SVG 1.1//EN"
 "http://www.w3.org/Graphics/SVG/1.1/DTD/svg11.dtd">
<!-- Generated by graphviz version 12.1.1 (0)
 -->
<!-- Title: drivers/include/rn2xx3.h Pages: 1 -->
<svg width="276pt" height="98pt"
 viewBox="0.00 0.00 275.75 98.25" xmlns="http://www.w3.org/2000/svg" xmlns:xlink="http://www.w3.org/1999/xlink">
<g id="graph0" class="graph" transform="scale(1 1) rotate(0) translate(4 94.25)">
<title>drivers/include/rn2xx3.h</title>
<!-- Node1 -->
<g id="Node000001" class="node">
<title>Node1</title>
<g id="a_Node000001"><a xlink:title="High&#45;level driver for the RN2483/RN2903 LoRa modules.">
<polygon fill="#999999" stroke="#666666" points="200.25,-90.25 66.5,-90.25 66.5,-69.5 200.25,-69.5 200.25,-90.25"/>
<text text-anchor="middle" x="133.38" y="-76.75" font-family="Helvetica,sans-Serif" font-size="10.00">drivers/include/rn2xx3.h</text>
</a>
</g>
</g>
<!-- Node2 -->
<g id="Node000002" class="node">
<title>Node2</title>
<g id="a_Node000002"><a xlink:href="rn2xx3__internal_8h.html" target="_top" xlink:title="Internal driver definitions for the RN2483/RN2903 LoRa modules.">
<polygon fill="white" stroke="#666666" points="124.75,-33.5 0,-33.5 0,0 124.75,0 124.75,-33.5"/>
<text text-anchor="start" x="8" y="-20" font-family="Helvetica,sans-Serif" font-size="10.00">drivers/rn2xx3/include</text>
<text text-anchor="middle" x="62.38" y="-7.25" font-family="Helvetica,sans-Serif" font-size="10.00">/rn2xx3_internal.h</text>
</a>
</g>
</g>
<!-- Node1&#45;&gt;Node2 -->
<g id="edge1_Node000001_Node000002" class="edge">
<title>Node1&#45;&gt;Node2</title>
<g id="a_edge1_Node000001_Node000002"><a xlink:title=" ">
<path fill="none" stroke="#63b8ff" d="M113.42,-61.69C103.33,-53.01 91.16,-42.53 81.23,-33.98"/>
<polygon fill="#63b8ff" stroke="#63b8ff" points="110.96,-64.19 120.82,-68.07 115.53,-58.89 110.96,-64.19"/>
</a>
</g>
</g>
<!-- Node3 -->
<g id="Node000003" class="node">
<title>Node3</title>
<g id="a_Node000003"><a xlink:href="rn2xx3__params_8h.html" target="_top" xlink:title="Default configuration for RN2483/RN2903 devices.">
<polygon fill="white" stroke="#666666" points="267.75,-33.5 143,-33.5 143,0 267.75,0 267.75,-33.5"/>
<text text-anchor="start" x="151" y="-20" font-family="Helvetica,sans-Serif" font-size="10.00">drivers/rn2xx3/include</text>
<text text-anchor="middle" x="205.38" y="-7.25" font-family="Helvetica,sans-Serif" font-size="10.00">/rn2xx3_params.h</text>
</a>
</g>
</g>
<!-- Node1&#45;&gt;Node3 -->
<g id="edge2_Node000001_Node000003" class="edge">
<title>Node1&#45;&gt;Node3</title>
<g id="a_edge2_Node000001_Node000003"><a xlink:title=" ">
<path fill="none" stroke="#63b8ff" d="M153.62,-61.69C163.84,-53.01 176.19,-42.53 186.25,-33.98"/>
<polygon fill="#63b8ff" stroke="#63b8ff" points="151.46,-58.93 146.1,-68.07 155.99,-64.27 151.46,-58.93"/>
</a>
</g>
</g>
</g>
</svg>
