<?xml version="1.0" encoding="UTF-8" standalone="no"?>
<!DOCTYPE svg PUBLIC "-//W3C//DTD SVG 1.1//EN"
 "http://www.w3.org/Graphics/SVG/1.1/DTD/svg11.dtd">
<!-- Generated by graphviz version 12.1.1 (0)
 -->
<!-- Title: sys/include/can/router.h Pages: 1 -->
<svg width="422pt" height="256pt"
 viewBox="0.00 0.00 422.25 255.75" xmlns="http://www.w3.org/2000/svg" xmlns:xlink="http://www.w3.org/1999/xlink">
<g id="graph0" class="graph" transform="scale(1 1) rotate(0) translate(4 251.75)">
<title>sys/include/can/router.h</title>
<!-- Node1 -->
<g id="Node000001" class="node">
<title>Node1</title>
<g id="a_Node000001"><a xlink:title="Functions for routing RX can frames.">
<polygon fill="#999999" stroke="#666666" points="133.38,-247.75 1.12,-247.75 1.12,-227 133.38,-227 133.38,-247.75"/>
<text text-anchor="middle" x="67.25" y="-234.25" font-family="Helvetica,sans-Serif" font-size="10.00">sys/include/can/router.h</text>
</a>
</g>
</g>
<!-- Node2 -->
<g id="Node000002" class="node">
<title>Node2</title>
<g id="a_Node000002"><a xlink:href="sys_2include_2can_2can_8h.html" target="_top" xlink:title="Definitions high&#45;level CAN interface.">
<polygon fill="white" stroke="#666666" points="62.5,-134.25 0,-134.25 0,-113.5 62.5,-113.5 62.5,-134.25"/>
<text text-anchor="middle" x="31.25" y="-120.75" font-family="Helvetica,sans-Serif" font-size="10.00">can/can.h</text>
</a>
</g>
</g>
<!-- Node1&#45;&gt;Node2 -->
<g id="edge1_Node000001_Node000002" class="edge">
<title>Node1&#45;&gt;Node2</title>
<g id="a_edge1_Node000001_Node000002"><a xlink:title=" ">
<path fill="none" stroke="#63b8ff" d="M64.18,-226.87C58.39,-208.94 45.74,-169.75 37.91,-145.51"/>
<polygon fill="#63b8ff" stroke="#63b8ff" points="41.28,-144.56 34.88,-136.12 34.62,-146.71 41.28,-144.56"/>
</a>
</g>
</g>
<!-- Node4 -->
<g id="Node000004" class="node">
<title>Node4</title>
<g id="a_Node000004"><a xlink:href="can_2pkt_8h.html" target="_top" xlink:title="CAN memory allocation module.">
<polygon fill="white" stroke="#666666" points="133.75,-191 72.75,-191 72.75,-170.25 133.75,-170.25 133.75,-191"/>
<text text-anchor="middle" x="103.25" y="-177.5" font-family="Helvetica,sans-Serif" font-size="10.00">can/pkt.h</text>
</a>
</g>
</g>
<!-- Node1&#45;&gt;Node4 -->
<g id="edge3_Node000001_Node000004" class="edge">
<title>Node1&#45;&gt;Node4</title>
<g id="a_edge3_Node000001_Node000004"><a xlink:title=" ">
<path fill="none" stroke="#63b8ff" d="M73.69,-226.59C78.4,-219.42 84.94,-209.48 90.67,-200.76"/>
<polygon fill="#63b8ff" stroke="#63b8ff" points="93.47,-202.87 96.04,-192.59 87.62,-199.03 93.47,-202.87"/>
</a>
</g>
</g>
<!-- Node3 -->
<g id="Node000003" class="node">
<title>Node3</title>
<g id="a_Node000003"><a xlink:title=" ">
<polygon fill="#e0e0e0" stroke="#999999" points="76.62,-20.75 23.88,-20.75 23.88,0 76.62,0 76.62,-20.75"/>
<text text-anchor="middle" x="50.25" y="-7.25" font-family="Helvetica,sans-Serif" font-size="10.00">stdint.h</text>
</a>
</g>
</g>
<!-- Node2&#45;&gt;Node3 -->
<g id="edge2_Node000002_Node000003" class="edge">
<title>Node2&#45;&gt;Node3</title>
<g id="a_edge2_Node000002_Node000003"><a xlink:title=" ">
<path fill="none" stroke="#63b8ff" d="M32.87,-113.37C35.91,-95.52 42.54,-56.61 46.68,-32.34"/>
<polygon fill="#63b8ff" stroke="#63b8ff" points="50.1,-33.11 48.33,-22.67 43.2,-31.94 50.1,-33.11"/>
</a>
</g>
</g>
<!-- Node4&#45;&gt;Node2 -->
<g id="edge15_Node000004_Node000002" class="edge">
<title>Node4&#45;&gt;Node2</title>
<g id="a_edge15_Node000004_Node000002"><a xlink:title=" ">
<path fill="none" stroke="#63b8ff" d="M90.38,-169.84C80.04,-161.97 65.28,-150.75 53.1,-141.49"/>
<polygon fill="#63b8ff" stroke="#63b8ff" points="55.29,-138.76 45.22,-135.49 51.06,-144.33 55.29,-138.76"/>
</a>
</g>
</g>
<!-- Node5 -->
<g id="Node000005" class="node">
<title>Node5</title>
<g id="a_Node000005"><a xlink:title=" ">
<polygon fill="#e0e0e0" stroke="#999999" points="324.12,-134.25 250.38,-134.25 250.38,-113.5 324.12,-113.5 324.12,-134.25"/>
<text text-anchor="middle" x="287.25" y="-120.75" font-family="Helvetica,sans-Serif" font-size="10.00">stdatomic.h</text>
</a>
</g>
</g>
<!-- Node4&#45;&gt;Node5 -->
<g id="edge4_Node000004_Node000005" class="edge">
<title>Node4&#45;&gt;Node5</title>
<g id="a_edge4_Node000004_Node000005"><a xlink:title=" ">
<path fill="none" stroke="#63b8ff" d="M134.05,-170.46C163.92,-161.57 209.55,-148 243.24,-137.97"/>
<polygon fill="#63b8ff" stroke="#63b8ff" points="244.14,-141.36 252.72,-135.15 242.14,-134.65 244.14,-141.36"/>
</a>
</g>
</g>
<!-- Node6 -->
<g id="Node000006" class="node">
<title>Node6</title>
<g id="a_Node000006"><a xlink:href="sys_2include_2can_2common_8h.html" target="_top" xlink:title="Definitions of high&#45;level CAN interface.">
<polygon fill="white" stroke="#666666" points="232.25,-134.25 144.25,-134.25 144.25,-113.5 232.25,-113.5 232.25,-134.25"/>
<text text-anchor="middle" x="188.25" y="-120.75" font-family="Helvetica,sans-Serif" font-size="10.00">can/common.h</text>
</a>
</g>
</g>
<!-- Node4&#45;&gt;Node6 -->
<g id="edge5_Node000004_Node000006" class="edge">
<title>Node4&#45;&gt;Node6</title>
<g id="a_edge5_Node000004_Node000006"><a xlink:title=" ">
<path fill="none" stroke="#63b8ff" d="M118.45,-169.84C131.02,-161.74 149.11,-150.08 163.73,-140.67"/>
<polygon fill="#63b8ff" stroke="#63b8ff" points="165.4,-143.76 171.91,-135.4 161.61,-137.87 165.4,-143.76"/>
</a>
</g>
</g>
<!-- Node14 -->
<g id="Node000014" class="node">
<title>Node14</title>
<g id="a_Node000014"><a xlink:title=" ">
<polygon fill="#e0e0e0" stroke="#999999" points="126.25,-134.25 80.25,-134.25 80.25,-113.5 126.25,-113.5 126.25,-134.25"/>
<text text-anchor="middle" x="103.25" y="-120.75" font-family="Helvetica,sans-Serif" font-size="10.00">msg.h</text>
</a>
</g>
</g>
<!-- Node4&#45;&gt;Node14 -->
<g id="edge16_Node000004_Node000014" class="edge">
<title>Node4&#45;&gt;Node14</title>
<g id="a_edge16_Node000004_Node000014"><a xlink:title=" ">
<path fill="none" stroke="#63b8ff" d="M103.25,-169.84C103.25,-163.22 103.25,-154.22 103.25,-146.02"/>
<polygon fill="#63b8ff" stroke="#63b8ff" points="106.75,-146.09 103.25,-136.09 99.75,-146.09 106.75,-146.09"/>
</a>
</g>
</g>
<!-- Node6&#45;&gt;Node3 -->
<g id="edge6_Node000006_Node000003" class="edge">
<title>Node6&#45;&gt;Node3</title>
<g id="a_edge6_Node000006_Node000003"><a xlink:title=" ">
<path fill="none" stroke="#63b8ff" d="M153.7,-113.16C132.88,-105.96 106.87,-94.42 88.25,-77.5 74.33,-64.85 64.16,-45.89 57.86,-31.5"/>
<polygon fill="#63b8ff" stroke="#63b8ff" points="61.23,-30.5 54.22,-22.56 54.75,-33.14 61.23,-30.5"/>
</a>
</g>
</g>
<!-- Node7 -->
<g id="Node000007" class="node">
<title>Node7</title>
<g id="a_Node000007"><a xlink:href="uio_8h.html" target="_top" xlink:title="libc header for scatter/gather I/O">
<polygon fill="white" stroke="#666666" points="338,-77.5 278.5,-77.5 278.5,-56.75 338,-56.75 338,-77.5"/>
<text text-anchor="middle" x="308.25" y="-64" font-family="Helvetica,sans-Serif" font-size="10.00">sys/uio.h</text>
</a>
</g>
</g>
<!-- Node6&#45;&gt;Node7 -->
<g id="edge7_Node000006_Node000007" class="edge">
<title>Node6&#45;&gt;Node7</title>
<g id="a_edge7_Node000006_Node000007"><a xlink:title=" ">
<path fill="none" stroke="#63b8ff" d="M209.7,-113.09C228.3,-104.6 255.47,-92.2 276.58,-82.58"/>
<polygon fill="#63b8ff" stroke="#63b8ff" points="277.96,-85.79 285.61,-78.46 275.05,-79.42 277.96,-85.79"/>
</a>
</g>
</g>
<!-- Node10 -->
<g id="Node000010" class="node">
<title>Node10</title>
<g id="a_Node000010"><a xlink:href="timex_8h.html" target="_top" xlink:title="Utility library for comparing and computing timestamps.">
<polygon fill="white" stroke="#666666" points="225,-77.5 171.5,-77.5 171.5,-56.75 225,-56.75 225,-77.5"/>
<text text-anchor="middle" x="198.25" y="-64" font-family="Helvetica,sans-Serif" font-size="10.00">timex.h</text>
</a>
</g>
</g>
<!-- Node6&#45;&gt;Node10 -->
<g id="edge10_Node000006_Node000010" class="edge">
<title>Node6&#45;&gt;Node10</title>
<g id="a_edge10_Node000006_Node000010"><a xlink:title=" ">
<path fill="none" stroke="#63b8ff" d="M190.04,-113.09C191.26,-106.39 192.93,-97.26 194.44,-88.98"/>
<polygon fill="#63b8ff" stroke="#63b8ff" points="197.85,-89.78 196.21,-79.32 190.97,-88.53 197.85,-89.78"/>
</a>
</g>
</g>
<!-- Node13 -->
<g id="Node000013" class="node">
<title>Node13</title>
<g id="a_Node000013"><a xlink:title=" ">
<polygon fill="#e0e0e0" stroke="#999999" points="153.5,-77.5 97,-77.5 97,-56.75 153.5,-56.75 153.5,-77.5"/>
<text text-anchor="middle" x="125.25" y="-64" font-family="Helvetica,sans-Serif" font-size="10.00">thread.h</text>
</a>
</g>
</g>
<!-- Node6&#45;&gt;Node13 -->
<g id="edge14_Node000006_Node000013" class="edge">
<title>Node6&#45;&gt;Node13</title>
<g id="a_edge14_Node000006_Node000013"><a xlink:title=" ">
<path fill="none" stroke="#63b8ff" d="M176.99,-113.09C168.12,-105.38 155.54,-94.45 145,-85.29"/>
<polygon fill="#63b8ff" stroke="#63b8ff" points="147.4,-82.74 137.56,-78.82 142.81,-88.02 147.4,-82.74"/>
</a>
</g>
</g>
<!-- Node8 -->
<g id="Node000008" class="node">
<title>Node8</title>
<g id="a_Node000008"><a xlink:title=" ">
<polygon fill="#e0e0e0" stroke="#999999" points="414.25,-20.75 362.25,-20.75 362.25,0 414.25,0 414.25,-20.75"/>
<text text-anchor="middle" x="388.25" y="-7.25" font-family="Helvetica,sans-Serif" font-size="10.00">stdlib.h</text>
</a>
</g>
</g>
<!-- Node7&#45;&gt;Node8 -->
<g id="edge8_Node000007_Node000008" class="edge">
<title>Node7&#45;&gt;Node8</title>
<g id="a_edge8_Node000007_Node000008"><a xlink:title=" ">
<path fill="none" stroke="#63b8ff" d="M322.55,-56.34C334.27,-48.32 351.09,-36.81 364.78,-27.44"/>
<polygon fill="#63b8ff" stroke="#63b8ff" points="366.55,-30.47 372.82,-21.93 362.59,-24.69 366.55,-30.47"/>
</a>
</g>
</g>
<!-- Node9 -->
<g id="Node000009" class="node">
<title>Node9</title>
<g id="a_Node000009"><a xlink:title=" ">
<polygon fill="#e0e0e0" stroke="#999999" points="344,-20.75 272.5,-20.75 272.5,0 344,0 344,-20.75"/>
<text text-anchor="middle" x="308.25" y="-7.25" font-family="Helvetica,sans-Serif" font-size="10.00">sys/types.h</text>
</a>
</g>
</g>
<!-- Node7&#45;&gt;Node9 -->
<g id="edge9_Node000007_Node000009" class="edge">
<title>Node7&#45;&gt;Node9</title>
<g id="a_edge9_Node000007_Node000009"><a xlink:title=" ">
<path fill="none" stroke="#63b8ff" d="M308.25,-56.34C308.25,-49.72 308.25,-40.72 308.25,-32.52"/>
<polygon fill="#63b8ff" stroke="#63b8ff" points="311.75,-32.59 308.25,-22.59 304.75,-32.59 311.75,-32.59"/>
</a>
</g>
</g>
<!-- Node10&#45;&gt;Node3 -->
<g id="edge11_Node000010_Node000003" class="edge">
<title>Node10&#45;&gt;Node3</title>
<g id="a_edge11_Node000010_Node000003"><a xlink:title=" ">
<path fill="none" stroke="#63b8ff" d="M171.79,-56.34C148.22,-47.62 113.49,-34.77 87.18,-25.04"/>
<polygon fill="#63b8ff" stroke="#63b8ff" points="88.49,-21.79 77.9,-21.6 86.06,-28.36 88.49,-21.79"/>
</a>
</g>
</g>
<!-- Node11 -->
<g id="Node000011" class="node">
<title>Node11</title>
<g id="a_Node000011"><a xlink:href="inttypes_8h.html" target="_top" xlink:title="Adds include for missing inttype definitions.">
<polygon fill="white" stroke="#666666" points="159.62,-20.75 94.88,-20.75 94.88,0 159.62,0 159.62,-20.75"/>
<text text-anchor="middle" x="127.25" y="-7.25" font-family="Helvetica,sans-Serif" font-size="10.00">inttypes.h</text>
</a>
</g>
</g>
<!-- Node10&#45;&gt;Node11 -->
<g id="edge12_Node000010_Node000011" class="edge">
<title>Node10&#45;&gt;Node11</title>
<g id="a_edge12_Node000010_Node000011"><a xlink:title=" ">
<path fill="none" stroke="#63b8ff" d="M185.56,-56.34C175.36,-48.47 160.81,-37.25 148.79,-27.99"/>
<polygon fill="#63b8ff" stroke="#63b8ff" points="151.09,-25.34 141.03,-22 146.81,-30.88 151.09,-25.34"/>
</a>
</g>
</g>
<!-- Node12 -->
<g id="Node000012" class="node">
<title>Node12</title>
<g id="a_Node000012"><a xlink:href="time__units_8h.html" target="_top" xlink:title="Utility header providing time unit defines.">
<polygon fill="white" stroke="#666666" points="254.62,-20.75 177.88,-20.75 177.88,0 254.62,0 254.62,-20.75"/>
<text text-anchor="middle" x="216.25" y="-7.25" font-family="Helvetica,sans-Serif" font-size="10.00">time_units.h</text>
</a>
</g>
</g>
<!-- Node10&#45;&gt;Node12 -->
<g id="edge13_Node000010_Node000012" class="edge">
<title>Node10&#45;&gt;Node12</title>
<g id="a_edge13_Node000010_Node000012"><a xlink:title=" ">
<path fill="none" stroke="#63b8ff" d="M201.47,-56.34C203.69,-49.56 206.74,-40.3 209.49,-31.94"/>
<polygon fill="#63b8ff" stroke="#63b8ff" points="212.79,-33.11 212.59,-22.52 206.14,-30.92 212.79,-33.11"/>
</a>
</g>
</g>
</g>
</svg>
