<?xml version="1.0" encoding="UTF-8" standalone="no"?>
<!DOCTYPE svg PUBLIC "-//W3C//DTD SVG 1.1//EN"
 "http://www.w3.org/Graphics/SVG/1.1/DTD/svg11.dtd">
<!-- Generated by graphviz version 12.1.1 (0)
 -->
<!-- Title: drivers/include/periph/rtt.h Pages: 1 -->
<svg width="608pt" height="124pt"
 viewBox="0.00 0.00 608.25 123.75" xmlns="http://www.w3.org/2000/svg" xmlns:xlink="http://www.w3.org/1999/xlink">
<g id="graph0" class="graph" transform="scale(1 1) rotate(0) translate(4 119.75)">
<title>drivers/include/periph/rtt.h</title>
<!-- Node1 -->
<g id="Node000001" class="node">
<title>Node1</title>
<g id="a_Node000001"><a xlink:title="Low&#45;level RTT (Real Time Timer) peripheral driver interface definitions.">
<polygon fill="#999999" stroke="#666666" points="325.88,-115.75 204.12,-115.75 204.12,-82.25 325.88,-82.25 325.88,-115.75"/>
<text text-anchor="start" x="212.12" y="-102.25" font-family="Helvetica,sans-Serif" font-size="10.00">drivers/include/periph</text>
<text text-anchor="middle" x="265" y="-89.5" font-family="Helvetica,sans-Serif" font-size="10.00">/rtt.h</text>
</a>
</g>
</g>
<!-- Node2 -->
<g id="Node000002" class="node">
<title>Node2</title>
<g id="a_Node000002"><a xlink:href="rtt__arch_8h.html" target="_top" xlink:title="Architecture specific RTT functions for ESP32.">
<polygon fill="white" stroke="#666666" points="118,-39.88 0,-39.88 0,-6.38 118,-6.38 118,-39.88"/>
<text text-anchor="start" x="8" y="-26.38" font-family="Helvetica,sans-Serif" font-size="10.00">cpu/esp32/include/rtt</text>
<text text-anchor="middle" x="59" y="-13.62" font-family="Helvetica,sans-Serif" font-size="10.00">_arch.h</text>
</a>
</g>
</g>
<!-- Node1&#45;&gt;Node2 -->
<g id="edge1_Node000001_Node000002" class="edge">
<title>Node1&#45;&gt;Node2</title>
<g id="a_edge1_Node000001_Node000002"><a xlink:title=" ">
<path fill="none" stroke="#63b8ff" d="M208.96,-77.9C176.03,-66.09 134.94,-51.36 104.1,-40.3"/>
<polygon fill="#63b8ff" stroke="#63b8ff" points="207.77,-81.2 218.37,-81.28 210.14,-74.61 207.77,-81.2"/>
</a>
</g>
</g>
<!-- Node3 -->
<g id="Node000003" class="node">
<title>Node3</title>
<g id="a_Node000003"><a xlink:href="gomach_8h.html" target="_top" xlink:title="Implementation of GoMacH protocol.">
<polygon fill="white" stroke="#666666" points="249.75,-39.88 136.25,-39.88 136.25,-6.38 249.75,-6.38 249.75,-39.88"/>
<text text-anchor="start" x="144.25" y="-26.38" font-family="Helvetica,sans-Serif" font-size="10.00">sys/include/net/gnrc</text>
<text text-anchor="middle" x="193" y="-13.62" font-family="Helvetica,sans-Serif" font-size="10.00">/gomach/gomach.h</text>
</a>
</g>
</g>
<!-- Node1&#45;&gt;Node3 -->
<g id="edge2_Node000001_Node000003" class="edge">
<title>Node1&#45;&gt;Node3</title>
<g id="a_edge2_Node000001_Node000003"><a xlink:title=" ">
<path fill="none" stroke="#63b8ff" d="M241.53,-73.92C230.73,-62.84 218.21,-49.99 208.59,-40.12"/>
<polygon fill="#63b8ff" stroke="#63b8ff" points="238.83,-76.17 248.32,-80.89 243.85,-71.28 238.83,-76.17"/>
</a>
</g>
</g>
<!-- Node4 -->
<g id="Node000004" class="node">
<title>Node4</title>
<g id="a_Node000004"><a xlink:href="gomach__internal_8h.html" target="_top" xlink:title="GoMacH&#39;s internal functions.">
<polygon fill="white" stroke="#666666" points="406.12,-46.25 267.88,-46.25 267.88,0 406.12,0 406.12,-46.25"/>
<text text-anchor="start" x="275.88" y="-32.75" font-family="Helvetica,sans-Serif" font-size="10.00">sys/net/gnrc/link_layer</text>
<text text-anchor="start" x="275.88" y="-20" font-family="Helvetica,sans-Serif" font-size="10.00">/gomach/include/gomach</text>
<text text-anchor="middle" x="337" y="-7.25" font-family="Helvetica,sans-Serif" font-size="10.00">_internal.h</text>
</a>
</g>
</g>
<!-- Node1&#45;&gt;Node4 -->
<g id="edge3_Node000001_Node000004" class="edge">
<title>Node1&#45;&gt;Node4</title>
<g id="a_edge3_Node000001_Node000004"><a xlink:title=" ">
<path fill="none" stroke="#63b8ff" d="M288.44,-73.95C297.02,-65.15 306.69,-55.23 315.13,-46.57"/>
<polygon fill="#63b8ff" stroke="#63b8ff" points="286.15,-71.28 281.68,-80.89 291.17,-76.17 286.15,-71.28"/>
</a>
</g>
</g>
<!-- Node5 -->
<g id="Node000005" class="node">
<title>Node5</title>
<g id="a_Node000005"><a xlink:href="lwmac__internal_8h.html" target="_top" xlink:title="Interface definition for internal functions of LWMAC protocol.">
<polygon fill="white" stroke="#666666" points="600.25,-39.88 423.75,-39.88 423.75,-6.38 600.25,-6.38 600.25,-39.88"/>
<text text-anchor="start" x="431.75" y="-26.38" font-family="Helvetica,sans-Serif" font-size="10.00">sys/net/gnrc/link_layer</text>
<text text-anchor="middle" x="512" y="-13.62" font-family="Helvetica,sans-Serif" font-size="10.00">/lwmac/include/lwmac_internal.h</text>
</a>
</g>
</g>
<!-- Node1&#45;&gt;Node5 -->
<g id="edge4_Node000001_Node000005" class="edge">
<title>Node1&#45;&gt;Node5</title>
<g id="a_edge4_Node000001_Node000005"><a xlink:title=" ">
<path fill="none" stroke="#63b8ff" d="M330.14,-78.52C369.97,-66.61 420.31,-51.55 457.92,-40.3"/>
<polygon fill="#63b8ff" stroke="#63b8ff" points="329.23,-75.14 320.66,-81.35 331.24,-81.84 329.23,-75.14"/>
</a>
</g>
</g>
</g>
</svg>
