<?xml version="1.0" encoding="UTF-8" standalone="no"?>
<!DOCTYPE svg PUBLIC "-//W3C//DTD SVG 1.1//EN"
 "http://www.w3.org/Graphics/SVG/1.1/DTD/svg11.dtd">
<!-- Generated by graphviz version 12.1.1 (0)
 -->
<!-- Title: cpu/samd21/include/periph_cpu.h Pages: 1 -->
<svg width="206pt" height="98pt"
 viewBox="0.00 0.00 205.50 98.25" xmlns="http://www.w3.org/2000/svg" xmlns:xlink="http://www.w3.org/1999/xlink">
<g id="graph0" class="graph" transform="scale(1 1) rotate(0) translate(4 94.25)">
<title>cpu/samd21/include/periph_cpu.h</title>
<!-- Node1 -->
<g id="Node000001" class="node">
<title>Node1</title>
<g id="a_Node000001"><a xlink:title="CPU specific definitions for internal peripheral handling.">
<polygon fill="#999999" stroke="#666666" points="137.12,-90.25 23.62,-90.25 23.62,-56.75 137.12,-56.75 137.12,-90.25"/>
<text text-anchor="start" x="31.62" y="-76.75" font-family="Helvetica,sans-Serif" font-size="10.00">cpu/samd21/include</text>
<text text-anchor="middle" x="80.38" y="-64" font-family="Helvetica,sans-Serif" font-size="10.00">/periph_cpu.h</text>
</a>
</g>
</g>
<!-- Node2 -->
<g id="Node000002" class="node">
<title>Node2</title>
<g id="a_Node000002"><a xlink:title=" ">
<polygon fill="#e0e0e0" stroke="#999999" points="52.75,-20.75 0,-20.75 0,0 52.75,0 52.75,-20.75"/>
<text text-anchor="middle" x="26.38" y="-7.25" font-family="Helvetica,sans-Serif" font-size="10.00">limits.h</text>
</a>
</g>
</g>
<!-- Node1&#45;&gt;Node2 -->
<g id="edge1_Node000001_Node000002" class="edge">
<title>Node1&#45;&gt;Node2</title>
<g id="a_edge1_Node000001_Node000002"><a xlink:title=" ">
<path fill="none" stroke="#63b8ff" d="M66.19,-56.44C58.94,-48.23 50.08,-38.21 42.56,-29.7"/>
<polygon fill="#63b8ff" stroke="#63b8ff" points="45.32,-27.53 36.07,-22.35 40.07,-32.16 45.32,-27.53"/>
</a>
</g>
</g>
<!-- Node3 -->
<g id="Node000003" class="node">
<title>Node3</title>
<g id="a_Node000003"><a xlink:title=" ">
<polygon fill="#e0e0e0" stroke="#999999" points="197.5,-20.75 71.25,-20.75 71.25,0 197.5,0 197.5,-20.75"/>
<text text-anchor="middle" x="134.38" y="-7.25" font-family="Helvetica,sans-Serif" font-size="10.00">periph_cpu_common.h</text>
</a>
</g>
</g>
<!-- Node1&#45;&gt;Node3 -->
<g id="edge2_Node000001_Node000003" class="edge">
<title>Node1&#45;&gt;Node3</title>
<g id="a_edge2_Node000001_Node000003"><a xlink:title=" ">
<path fill="none" stroke="#63b8ff" d="M94.56,-56.44C101.81,-48.23 110.67,-38.21 118.19,-29.7"/>
<polygon fill="#63b8ff" stroke="#63b8ff" points="120.68,-32.16 124.68,-22.35 115.43,-27.53 120.68,-32.16"/>
</a>
</g>
</g>
</g>
</svg>
