<?xml version="1.0" encoding="UTF-8" standalone="no"?>
<!DOCTYPE svg PUBLIC "-//W3C//DTD SVG 1.1//EN"
 "http://www.w3.org/Graphics/SVG/1.1/DTD/svg11.dtd">
<!-- Generated by graphviz version 12.1.1 (0)
 -->
<!-- Title: sys/include/hashes/sha2xx_common.h Pages: 1 -->
<svg width="852pt" height="389pt"
 viewBox="0.00 0.00 851.88 389.00" xmlns="http://www.w3.org/2000/svg" xmlns:xlink="http://www.w3.org/1999/xlink">
<g id="graph0" class="graph" transform="scale(1 1) rotate(0) translate(4 385)">
<title>sys/include/hashes/sha2xx_common.h</title>
<!-- Node1 -->
<g id="Node000001" class="node">
<title>Node1</title>
<g id="a_Node000001"><a xlink:title="Common definitions for the SHA&#45;224/256 hash functions.">
<polygon fill="#999999" stroke="#666666" points="367.88,-381 256.62,-381 256.62,-347.5 367.88,-347.5 367.88,-381"/>
<text text-anchor="start" x="264.62" y="-367.5" font-family="Helvetica,sans-Serif" font-size="10.00">sys/include/hashes</text>
<text text-anchor="middle" x="312.25" y="-354.75" font-family="Helvetica,sans-Serif" font-size="10.00">/sha2xx_common.h</text>
</a>
</g>
</g>
<!-- Node2 -->
<g id="Node000002" class="node">
<title>Node2</title>
<g id="a_Node000002"><a xlink:href="sha224_8h.html" target="_top" xlink:title="Header definitions for the SHA224 hash function.">
<polygon fill="white" stroke="#666666" points="303.38,-311.5 195.12,-311.5 195.12,-278 303.38,-278 303.38,-311.5"/>
<text text-anchor="start" x="203.12" y="-298" font-family="Helvetica,sans-Serif" font-size="10.00">sys/include/hashes</text>
<text text-anchor="middle" x="249.25" y="-285.25" font-family="Helvetica,sans-Serif" font-size="10.00">/sha224.h</text>
</a>
</g>
</g>
<!-- Node1&#45;&gt;Node2 -->
<g id="edge1_Node000001_Node000002" class="edge">
<title>Node1&#45;&gt;Node2</title>
<g id="a_edge1_Node000001_Node000002"><a xlink:title=" ">
<path fill="none" stroke="#63b8ff" d="M289.56,-338.94C281.08,-329.85 271.67,-319.77 264.07,-311.63"/>
<polygon fill="#63b8ff" stroke="#63b8ff" points="286.91,-341.22 296.29,-346.15 292.02,-336.45 286.91,-341.22"/>
</a>
</g>
</g>
<!-- Node3 -->
<g id="Node000003" class="node">
<title>Node3</title>
<g id="a_Node000003"><a xlink:href="sha256_8h.html" target="_top" xlink:title="Header definitions for the SHA256 hash function.">
<polygon fill="white" stroke="#666666" points="429.38,-311.5 321.12,-311.5 321.12,-278 429.38,-278 429.38,-311.5"/>
<text text-anchor="start" x="329.12" y="-298" font-family="Helvetica,sans-Serif" font-size="10.00">sys/include/hashes</text>
<text text-anchor="middle" x="375.25" y="-285.25" font-family="Helvetica,sans-Serif" font-size="10.00">/sha256.h</text>
</a>
</g>
</g>
<!-- Node1&#45;&gt;Node3 -->
<g id="edge2_Node000001_Node000003" class="edge">
<title>Node1&#45;&gt;Node3</title>
<g id="a_edge2_Node000001_Node000003"><a xlink:title=" ">
<path fill="none" stroke="#63b8ff" d="M334.94,-338.94C343.42,-329.85 352.83,-319.77 360.43,-311.63"/>
<polygon fill="#63b8ff" stroke="#63b8ff" points="332.48,-336.45 328.21,-346.15 337.59,-341.22 332.48,-336.45"/>
</a>
</g>
</g>
<!-- Node4 -->
<g id="Node000004" class="node">
<title>Node4</title>
<g id="a_Node000004"><a xlink:href="ctap__crypto_8h.html" target="_top" xlink:title="FIDO2 CTAP crypto helper defines, structures and function declarations.">
<polygon fill="white" stroke="#666666" points="300.5,-242 178,-242 178,-208.5 300.5,-208.5 300.5,-242"/>
<text text-anchor="start" x="186" y="-228.5" font-family="Helvetica,sans-Serif" font-size="10.00">sys/include/fido2/ctap</text>
<text text-anchor="middle" x="239.25" y="-215.75" font-family="Helvetica,sans-Serif" font-size="10.00">/ctap_crypto.h</text>
</a>
</g>
</g>
<!-- Node3&#45;&gt;Node4 -->
<g id="edge3_Node000003_Node000004" class="edge">
<title>Node3&#45;&gt;Node4</title>
<g id="a_edge3_Node000003_Node000004"><a xlink:title=" ">
<path fill="none" stroke="#63b8ff" d="M332.42,-272.49C312.73,-262.72 289.76,-251.32 271.56,-242.29"/>
<polygon fill="#63b8ff" stroke="#63b8ff" points="330.81,-275.6 341.32,-276.91 333.92,-269.33 330.81,-275.6"/>
</a>
</g>
</g>
<!-- Node9 -->
<g id="Node000009" class="node">
<title>Node9</title>
<g id="a_Node000009"><a xlink:href="pbkdf2_8h.html" target="_top" xlink:title="PBKDF2 key derivation implementation.">
<polygon fill="white" stroke="#666666" points="429.38,-242 321.12,-242 321.12,-208.5 429.38,-208.5 429.38,-242"/>
<text text-anchor="start" x="329.12" y="-228.5" font-family="Helvetica,sans-Serif" font-size="10.00">sys/include/hashes</text>
<text text-anchor="middle" x="375.25" y="-215.75" font-family="Helvetica,sans-Serif" font-size="10.00">/pbkdf2.h</text>
</a>
</g>
</g>
<!-- Node3&#45;&gt;Node9 -->
<g id="edge8_Node000003_Node000009" class="edge">
<title>Node3&#45;&gt;Node9</title>
<g id="a_edge8_Node000003_Node000009"><a xlink:title=" ">
<path fill="none" stroke="#63b8ff" d="M375.25,-266.31C375.25,-258.09 375.25,-249.34 375.25,-242.13"/>
<polygon fill="#63b8ff" stroke="#63b8ff" points="371.75,-266.24 375.25,-276.24 378.75,-266.24 371.75,-266.24"/>
</a>
</g>
</g>
<!-- Node10 -->
<g id="Node000010" class="node">
<title>Node10</title>
<g id="a_Node000010"><a xlink:href="nanocoap_2cache_8h.html" target="_top" xlink:title="nanocoap&#45;cache API">
<polygon fill="white" stroke="#666666" points="588.12,-242 448.38,-242 448.38,-208.5 588.12,-208.5 588.12,-242"/>
<text text-anchor="start" x="456.38" y="-228.5" font-family="Helvetica,sans-Serif" font-size="10.00">sys/include/net/nanocoap</text>
<text text-anchor="middle" x="518.25" y="-215.75" font-family="Helvetica,sans-Serif" font-size="10.00">/cache.h</text>
</a>
</g>
</g>
<!-- Node3&#45;&gt;Node10 -->
<g id="edge9_Node000003_Node000010" class="edge">
<title>Node3&#45;&gt;Node10</title>
<g id="a_edge9_Node000003_Node000010"><a xlink:title=" ">
<path fill="none" stroke="#63b8ff" d="M419.71,-272.76C440.54,-262.93 464.96,-251.41 484.28,-242.29"/>
<polygon fill="#63b8ff" stroke="#63b8ff" points="418.42,-269.5 410.87,-276.94 421.41,-275.83 418.42,-269.5"/>
</a>
</g>
</g>
<!-- Node5 -->
<g id="Node000005" class="node">
<title>Node5</title>
<g id="a_Node000005"><a xlink:href="ctap_2ctap_8h.html" target="_top" xlink:title="Internal FIDO2 CTAP defines, structures and function declarations.">
<polygon fill="white" stroke="#666666" points="264.5,-172.5 142,-172.5 142,-139 264.5,-139 264.5,-172.5"/>
<text text-anchor="start" x="150" y="-159" font-family="Helvetica,sans-Serif" font-size="10.00">sys/include/fido2/ctap</text>
<text text-anchor="middle" x="203.25" y="-146.25" font-family="Helvetica,sans-Serif" font-size="10.00">/ctap.h</text>
</a>
</g>
</g>
<!-- Node4&#45;&gt;Node5 -->
<g id="edge4_Node000004_Node000005" class="edge">
<title>Node4&#45;&gt;Node5</title>
<g id="a_edge4_Node000004_Node000005"><a xlink:title=" ">
<path fill="none" stroke="#63b8ff" d="M225.38,-198.24C220.78,-189.61 215.79,-180.26 211.72,-172.63"/>
<polygon fill="#63b8ff" stroke="#63b8ff" points="222.21,-199.74 230.01,-206.92 228.39,-196.45 222.21,-199.74"/>
</a>
</g>
</g>
<!-- Node6 -->
<g id="Node000006" class="node">
<title>Node6</title>
<g id="a_Node000006"><a xlink:href="ctap__cbor_8h.html" target="_top" xlink:title="CTAP CBOR helper function declarations.">
<polygon fill="white" stroke="#666666" points="122.5,-96.62 0,-96.62 0,-63.12 122.5,-63.12 122.5,-96.62"/>
<text text-anchor="start" x="8" y="-83.12" font-family="Helvetica,sans-Serif" font-size="10.00">sys/include/fido2/ctap</text>
<text text-anchor="middle" x="61.25" y="-70.38" font-family="Helvetica,sans-Serif" font-size="10.00">/ctap_cbor.h</text>
</a>
</g>
</g>
<!-- Node5&#45;&gt;Node6 -->
<g id="edge5_Node000005_Node000006" class="edge">
<title>Node5&#45;&gt;Node6</title>
<g id="a_edge5_Node000005_Node000006"><a xlink:title=" ">
<path fill="none" stroke="#63b8ff" d="M161.93,-133.25C139.71,-121.69 112.76,-107.67 92.34,-97.05"/>
<polygon fill="#63b8ff" stroke="#63b8ff" points="160.26,-136.33 170.74,-137.84 163.49,-130.12 160.26,-136.33"/>
</a>
</g>
</g>
<!-- Node7 -->
<g id="Node000007" class="node">
<title>Node7</title>
<g id="a_Node000007"><a xlink:href="ctap__mem_8h.html" target="_top" xlink:title="Definitions for CTAP flash memory helper functions.">
<polygon fill="white" stroke="#666666" points="263.5,-96.62 141,-96.62 141,-63.12 263.5,-63.12 263.5,-96.62"/>
<text text-anchor="start" x="149" y="-83.12" font-family="Helvetica,sans-Serif" font-size="10.00">sys/include/fido2/ctap</text>
<text text-anchor="middle" x="202.25" y="-70.38" font-family="Helvetica,sans-Serif" font-size="10.00">/ctap_mem.h</text>
</a>
</g>
</g>
<!-- Node5&#45;&gt;Node7 -->
<g id="edge6_Node000005_Node000007" class="edge">
<title>Node5&#45;&gt;Node7</title>
<g id="a_edge6_Node000005_Node000007"><a xlink:title=" ">
<path fill="none" stroke="#63b8ff" d="M202.88,-127.36C202.74,-117.1 202.59,-105.77 202.47,-96.87"/>
<polygon fill="#63b8ff" stroke="#63b8ff" points="199.38,-127.26 203.01,-137.21 206.38,-127.16 199.38,-127.26"/>
</a>
</g>
</g>
<!-- Node8 -->
<g id="Node000008" class="node">
<title>Node8</title>
<g id="a_Node000008"><a xlink:href="ctap__utils_8h.html" target="_top" xlink:title="Definition for CTAP utility functions.">
<polygon fill="white" stroke="#666666" points="404.5,-96.62 282,-96.62 282,-63.12 404.5,-63.12 404.5,-96.62"/>
<text text-anchor="start" x="290" y="-83.12" font-family="Helvetica,sans-Serif" font-size="10.00">sys/include/fido2/ctap</text>
<text text-anchor="middle" x="343.25" y="-70.38" font-family="Helvetica,sans-Serif" font-size="10.00">/ctap_utils.h</text>
</a>
</g>
</g>
<!-- Node5&#45;&gt;Node8 -->
<g id="edge7_Node000005_Node000008" class="edge">
<title>Node5&#45;&gt;Node8</title>
<g id="a_edge7_Node000005_Node000008"><a xlink:title=" ">
<path fill="none" stroke="#63b8ff" d="M243.99,-133.25C265.89,-121.69 292.46,-107.67 312.6,-97.05"/>
<polygon fill="#63b8ff" stroke="#63b8ff" points="242.52,-130.07 235.31,-137.83 245.79,-136.26 242.52,-130.07"/>
</a>
</g>
</g>
<!-- Node11 -->
<g id="Node000011" class="node">
<title>Node11</title>
<g id="a_Node000011"><a xlink:href="gcoap_8h.html" target="_top" xlink:title="gcoap definition">
<polygon fill="white" stroke="#666666" points="618.62,-166.12 487.88,-166.12 487.88,-145.38 618.62,-145.38 618.62,-166.12"/>
<text text-anchor="middle" x="553.25" y="-152.62" font-family="Helvetica,sans-Serif" font-size="10.00">sys/include/net/gcoap.h</text>
</a>
</g>
</g>
<!-- Node10&#45;&gt;Node11 -->
<g id="edge10_Node000010_Node000011" class="edge">
<title>Node10&#45;&gt;Node11</title>
<g id="a_edge10_Node000010_Node000011"><a xlink:title=" ">
<path fill="none" stroke="#63b8ff" d="M531.78,-198.16C537.52,-187.09 543.86,-174.85 548.16,-166.57"/>
<polygon fill="#63b8ff" stroke="#63b8ff" points="528.74,-196.42 527.24,-206.91 534.95,-199.64 528.74,-196.42"/>
</a>
</g>
</g>
<!-- Node12 -->
<g id="Node000012" class="node">
<title>Node12</title>
<g id="a_Node000012"><a xlink:href="gcoap_2dns_8h.html" target="_top" xlink:title="gcoap_dns definitions">
<polygon fill="white" stroke="#666666" points="544.12,-96.62 422.38,-96.62 422.38,-63.12 544.12,-63.12 544.12,-96.62"/>
<text text-anchor="start" x="430.38" y="-83.12" font-family="Helvetica,sans-Serif" font-size="10.00">sys/include/net/gcoap</text>
<text text-anchor="middle" x="483.25" y="-70.38" font-family="Helvetica,sans-Serif" font-size="10.00">/dns.h</text>
</a>
</g>
</g>
<!-- Node11&#45;&gt;Node12 -->
<g id="edge11_Node000011_Node000012" class="edge">
<title>Node11&#45;&gt;Node12</title>
<g id="a_edge11_Node000011_Node000012"><a xlink:title=" ">
<path fill="none" stroke="#63b8ff" d="M536.46,-137.03C524.93,-124.87 509.75,-108.84 498.56,-97.03"/>
<polygon fill="#63b8ff" stroke="#63b8ff" points="533.64,-139.14 543.06,-143.99 538.72,-134.33 533.64,-139.14"/>
</a>
</g>
</g>
<!-- Node14 -->
<g id="Node000014" class="node">
<title>Node14</title>
<g id="a_Node000014"><a xlink:href="forward__proxy_8h.html" target="_top" xlink:title="Definitions for the GCoAP forward proxy.">
<polygon fill="white" stroke="#666666" points="684.12,-96.62 562.38,-96.62 562.38,-63.12 684.12,-63.12 684.12,-96.62"/>
<text text-anchor="start" x="570.38" y="-83.12" font-family="Helvetica,sans-Serif" font-size="10.00">sys/include/net/gcoap</text>
<text text-anchor="middle" x="623.25" y="-70.38" font-family="Helvetica,sans-Serif" font-size="10.00">/forward_proxy.h</text>
</a>
</g>
</g>
<!-- Node11&#45;&gt;Node14 -->
<g id="edge13_Node000011_Node000014" class="edge">
<title>Node11&#45;&gt;Node14</title>
<g id="a_edge13_Node000011_Node000014"><a xlink:title=" ">
<path fill="none" stroke="#63b8ff" d="M570.04,-137.03C581.57,-124.87 596.75,-108.84 607.94,-97.03"/>
<polygon fill="#63b8ff" stroke="#63b8ff" points="567.78,-134.33 563.44,-143.99 572.86,-139.14 567.78,-134.33"/>
</a>
</g>
</g>
<!-- Node15 -->
<g id="Node000015" class="node">
<title>Node15</title>
<g id="a_Node000015"><a xlink:href="forward__proxy__internal_8h.html" target="_top" xlink:title="Definitions for the GCoAP forward proxy internal communication.">
<polygon fill="white" stroke="#666666" points="843.88,-103 702.62,-103 702.62,-56.75 843.88,-56.75 843.88,-103"/>
<text text-anchor="start" x="710.62" y="-89.5" font-family="Helvetica,sans-Serif" font-size="10.00">sys/net/application</text>
<text text-anchor="start" x="710.62" y="-76.75" font-family="Helvetica,sans-Serif" font-size="10.00">_layer/gcoap/include</text>
<text text-anchor="middle" x="773.25" y="-64" font-family="Helvetica,sans-Serif" font-size="10.00">/forward_proxy_internal.h</text>
</a>
</g>
</g>
<!-- Node11&#45;&gt;Node15 -->
<g id="edge14_Node000011_Node000015" class="edge">
<title>Node11&#45;&gt;Node15</title>
<g id="a_edge14_Node000011_Node000015"><a xlink:title=" ">
<path fill="none" stroke="#63b8ff" d="M592.99,-141.4C624.4,-130.86 668.95,-115.9 705.9,-103.49"/>
<polygon fill="#63b8ff" stroke="#63b8ff" points="592.26,-137.96 583.9,-144.46 594.49,-144.59 592.26,-137.96"/>
</a>
</g>
</g>
<!-- Node13 -->
<g id="Node000013" class="node">
<title>Node13</title>
<g id="a_Node000013"><a xlink:href="dns_8h.html" target="_top" xlink:title="Generic DNS values.">
<polygon fill="white" stroke="#666666" points="542.62,-20.75 423.88,-20.75 423.88,0 542.62,0 542.62,-20.75"/>
<text text-anchor="middle" x="483.25" y="-7.25" font-family="Helvetica,sans-Serif" font-size="10.00">sys/include/net/dns.h</text>
</a>
</g>
</g>
<!-- Node12&#45;&gt;Node13 -->
<g id="edge12_Node000012_Node000013" class="edge">
<title>Node12&#45;&gt;Node13</title>
<g id="a_edge12_Node000012_Node000013"><a xlink:title=" ">
<path fill="none" stroke="#63b8ff" d="M483.25,-51.41C483.25,-40.71 483.25,-29.13 483.25,-21.2"/>
<polygon fill="#63b8ff" stroke="#63b8ff" points="479.75,-51.36 483.25,-61.36 486.75,-51.36 479.75,-51.36"/>
</a>
</g>
</g>
</g>
</svg>
