<?xml version="1.0" encoding="UTF-8" standalone="no"?>
<!DOCTYPE svg PUBLIC "-//W3C//DTD SVG 1.1//EN"
 "http://www.w3.org/Graphics/SVG/1.1/DTD/svg11.dtd">
<!-- Generated by graphviz version 12.1.1 (0)
 -->
<!-- Title: sys/include/hashes/sha512_common.h Pages: 1 -->
<svg width="494pt" height="111pt"
 viewBox="0.00 0.00 494.25 111.00" xmlns="http://www.w3.org/2000/svg" xmlns:xlink="http://www.w3.org/1999/xlink">
<g id="graph0" class="graph" transform="scale(1 1) rotate(0) translate(4 107)">
<title>sys/include/hashes/sha512_common.h</title>
<!-- Node1 -->
<g id="Node000001" class="node">
<title>Node1</title>
<g id="a_Node000001"><a xlink:title="Common definitions for the SHA&#45;512 hash function.">
<polygon fill="#999999" stroke="#666666" points="298.75,-103 187.5,-103 187.5,-69.5 298.75,-69.5 298.75,-103"/>
<text text-anchor="start" x="195.5" y="-89.5" font-family="Helvetica,sans-Serif" font-size="10.00">sys/include/hashes</text>
<text text-anchor="middle" x="243.12" y="-76.75" font-family="Helvetica,sans-Serif" font-size="10.00">/sha512_common.h</text>
</a>
</g>
</g>
<!-- Node2 -->
<g id="Node000002" class="node">
<title>Node2</title>
<g id="a_Node000002"><a xlink:href="sha384_8h.html" target="_top" xlink:title="Header definitions for the SHA384 hash function.">
<polygon fill="white" stroke="#666666" points="108.25,-33.5 0,-33.5 0,0 108.25,0 108.25,-33.5"/>
<text text-anchor="start" x="8" y="-20" font-family="Helvetica,sans-Serif" font-size="10.00">sys/include/hashes</text>
<text text-anchor="middle" x="54.12" y="-7.25" font-family="Helvetica,sans-Serif" font-size="10.00">/sha384.h</text>
</a>
</g>
</g>
<!-- Node1&#45;&gt;Node2 -->
<g id="edge1_Node000001_Node000002" class="edge">
<title>Node1&#45;&gt;Node2</title>
<g id="a_edge1_Node000001_Node000002"><a xlink:title=" ">
<path fill="none" stroke="#63b8ff" d="M187.03,-65.22C159.05,-55.22 125.67,-43.3 99.35,-33.9"/>
<polygon fill="#63b8ff" stroke="#63b8ff" points="185.83,-68.51 196.43,-68.57 188.19,-61.91 185.83,-68.51"/>
</a>
</g>
</g>
<!-- Node3 -->
<g id="Node000003" class="node">
<title>Node3</title>
<g id="a_Node000003"><a xlink:href="sha512_8h.html" target="_top" xlink:title="Header definitions for the SHA512 hash function.">
<polygon fill="white" stroke="#666666" points="234.25,-33.5 126,-33.5 126,0 234.25,0 234.25,-33.5"/>
<text text-anchor="start" x="134" y="-20" font-family="Helvetica,sans-Serif" font-size="10.00">sys/include/hashes</text>
<text text-anchor="middle" x="180.12" y="-7.25" font-family="Helvetica,sans-Serif" font-size="10.00">/sha512.h</text>
</a>
</g>
</g>
<!-- Node1&#45;&gt;Node3 -->
<g id="edge2_Node000001_Node000003" class="edge">
<title>Node1&#45;&gt;Node3</title>
<g id="a_edge2_Node000001_Node000003"><a xlink:title=" ">
<path fill="none" stroke="#63b8ff" d="M220.44,-60.94C211.95,-51.85 202.54,-41.77 194.95,-33.63"/>
<polygon fill="#63b8ff" stroke="#63b8ff" points="217.78,-63.22 227.16,-68.15 222.9,-58.45 217.78,-63.22"/>
</a>
</g>
</g>
<!-- Node4 -->
<g id="Node000004" class="node">
<title>Node4</title>
<g id="a_Node000004"><a xlink:href="sha512__224_8h.html" target="_top" xlink:title="Header definitions for the SHA512/224 hash function.">
<polygon fill="white" stroke="#666666" points="360.25,-33.5 252,-33.5 252,0 360.25,0 360.25,-33.5"/>
<text text-anchor="start" x="260" y="-20" font-family="Helvetica,sans-Serif" font-size="10.00">sys/include/hashes</text>
<text text-anchor="middle" x="306.12" y="-7.25" font-family="Helvetica,sans-Serif" font-size="10.00">/sha512_224.h</text>
</a>
</g>
</g>
<!-- Node1&#45;&gt;Node4 -->
<g id="edge3_Node000001_Node000004" class="edge">
<title>Node1&#45;&gt;Node4</title>
<g id="a_edge3_Node000001_Node000004"><a xlink:title=" ">
<path fill="none" stroke="#63b8ff" d="M265.81,-60.94C274.3,-51.85 283.71,-41.77 291.3,-33.63"/>
<polygon fill="#63b8ff" stroke="#63b8ff" points="263.35,-58.45 259.09,-68.15 268.47,-63.22 263.35,-58.45"/>
</a>
</g>
</g>
<!-- Node5 -->
<g id="Node000005" class="node">
<title>Node5</title>
<g id="a_Node000005"><a xlink:href="sha512__256_8h.html" target="_top" xlink:title="Header definitions for the SHA512/256 hash function.">
<polygon fill="white" stroke="#666666" points="486.25,-33.5 378,-33.5 378,0 486.25,0 486.25,-33.5"/>
<text text-anchor="start" x="386" y="-20" font-family="Helvetica,sans-Serif" font-size="10.00">sys/include/hashes</text>
<text text-anchor="middle" x="432.12" y="-7.25" font-family="Helvetica,sans-Serif" font-size="10.00">/sha512_256.h</text>
</a>
</g>
</g>
<!-- Node1&#45;&gt;Node5 -->
<g id="edge4_Node000001_Node000005" class="edge">
<title>Node1&#45;&gt;Node5</title>
<g id="a_edge4_Node000001_Node000005"><a xlink:title=" ">
<path fill="none" stroke="#63b8ff" d="M299.22,-65.22C327.2,-55.22 360.58,-43.3 386.9,-33.9"/>
<polygon fill="#63b8ff" stroke="#63b8ff" points="298.06,-61.91 289.82,-68.57 300.42,-68.51 298.06,-61.91"/>
</a>
</g>
</g>
</g>
</svg>
