<?xml version="1.0" encoding="UTF-8" standalone="no"?>
<!DOCTYPE svg PUBLIC "-//W3C//DTD SVG 1.1//EN"
 "http://www.w3.org/Graphics/SVG/1.1/DTD/svg11.dtd">
<!-- Generated by graphviz version 12.1.1 (0)
 -->
<!-- Title: drivers/sht2x/include/sht2x_params.h Pages: 1 -->
<svg width="575pt" height="212pt"
 viewBox="0.00 0.00 574.88 211.75" xmlns="http://www.w3.org/2000/svg" xmlns:xlink="http://www.w3.org/1999/xlink">
<g id="graph0" class="graph" transform="scale(1 1) rotate(0) translate(4 207.75)">
<title>drivers/sht2x/include/sht2x_params.h</title>
<!-- Node1 -->
<g id="Node000001" class="node">
<title>Node1</title>
<g id="a_Node000001"><a xlink:title="Default configuration for SHT2x humidity and temperature sensor.">
<polygon fill="#999999" stroke="#666666" points="421.12,-203.75 303.12,-203.75 303.12,-170.25 421.12,-170.25 421.12,-203.75"/>
<text text-anchor="start" x="311.12" y="-190.25" font-family="Helvetica,sans-Serif" font-size="10.00">drivers/sht2x/include</text>
<text text-anchor="middle" x="362.12" y="-177.5" font-family="Helvetica,sans-Serif" font-size="10.00">/sht2x_params.h</text>
</a>
</g>
</g>
<!-- Node2 -->
<g id="Node000002" class="node">
<title>Node2</title>
<g id="a_Node000002"><a xlink:href="sht2x_8h.html" target="_top" xlink:title="Device driver implementation for the SHT2x humidity and temperature humidity sensor.">
<polygon fill="white" stroke="#666666" points="350.12,-134.25 298.12,-134.25 298.12,-113.5 350.12,-113.5 350.12,-134.25"/>
<text text-anchor="middle" x="324.12" y="-120.75" font-family="Helvetica,sans-Serif" font-size="10.00">sht2x.h</text>
</a>
</g>
</g>
<!-- Node1&#45;&gt;Node2 -->
<g id="edge1_Node000001_Node000002" class="edge">
<title>Node1&#45;&gt;Node2</title>
<g id="a_edge1_Node000001_Node000002"><a xlink:title=" ">
<path fill="none" stroke="#63b8ff" d="M352.14,-169.94C347.26,-162.08 341.33,-152.56 336.2,-144.29"/>
<polygon fill="#63b8ff" stroke="#63b8ff" points="339.29,-142.65 331.04,-136 333.35,-146.34 339.29,-142.65"/>
</a>
</g>
</g>
<!-- Node10 -->
<g id="Node000010" class="node">
<title>Node10</title>
<g id="a_Node000010"><a xlink:href="saul__reg_8h.html" target="_top" xlink:title="SAUL registry interface definition.">
<polygon fill="white" stroke="#666666" points="444.25,-134.25 378,-134.25 378,-113.5 444.25,-113.5 444.25,-134.25"/>
<text text-anchor="middle" x="411.12" y="-120.75" font-family="Helvetica,sans-Serif" font-size="10.00">saul_reg.h</text>
</a>
</g>
</g>
<!-- Node1&#45;&gt;Node10 -->
<g id="edge10_Node000001_Node000010" class="edge">
<title>Node1&#45;&gt;Node10</title>
<g id="a_edge10_Node000001_Node000010"><a xlink:title=" ">
<path fill="none" stroke="#63b8ff" d="M375,-169.94C381.51,-161.82 389.45,-151.92 396.22,-143.47"/>
<polygon fill="#63b8ff" stroke="#63b8ff" points="398.76,-145.89 402.29,-135.9 393.3,-141.51 398.76,-145.89"/>
</a>
</g>
</g>
<!-- Node3 -->
<g id="Node000003" class="node">
<title>Node3</title>
<g id="a_Node000003"><a xlink:title=" ">
<polygon fill="#e0e0e0" stroke="#999999" points="392.5,-20.75 339.75,-20.75 339.75,0 392.5,0 392.5,-20.75"/>
<text text-anchor="middle" x="366.12" y="-7.25" font-family="Helvetica,sans-Serif" font-size="10.00">stdint.h</text>
</a>
</g>
</g>
<!-- Node2&#45;&gt;Node3 -->
<g id="edge2_Node000002_Node000003" class="edge">
<title>Node2&#45;&gt;Node3</title>
<g id="a_edge2_Node000002_Node000003"><a xlink:title=" ">
<path fill="none" stroke="#63b8ff" d="M327.71,-113.37C334.49,-95.36 349.36,-55.89 358.48,-31.68"/>
<polygon fill="#63b8ff" stroke="#63b8ff" points="361.65,-33.18 361.9,-22.59 355.1,-30.72 361.65,-33.18"/>
</a>
</g>
</g>
<!-- Node4 -->
<g id="Node000004" class="node">
<title>Node4</title>
<g id="a_Node000004"><a xlink:title=" ">
<polygon fill="#e0e0e0" stroke="#999999" points="320.62,-77.5 259.62,-77.5 259.62,-56.75 320.62,-56.75 320.62,-77.5"/>
<text text-anchor="middle" x="290.12" y="-64" font-family="Helvetica,sans-Serif" font-size="10.00">stdbool.h</text>
</a>
</g>
</g>
<!-- Node2&#45;&gt;Node4 -->
<g id="edge3_Node000002_Node000004" class="edge">
<title>Node2&#45;&gt;Node4</title>
<g id="a_edge3_Node000002_Node000004"><a xlink:title=" ">
<path fill="none" stroke="#63b8ff" d="M318.05,-113.09C313.65,-106 307.55,-96.19 302.18,-87.54"/>
<polygon fill="#63b8ff" stroke="#63b8ff" points="305.2,-85.76 296.95,-79.11 299.25,-89.46 305.2,-85.76"/>
</a>
</g>
</g>
<!-- Node5 -->
<g id="Node000005" class="node">
<title>Node5</title>
<g id="a_Node000005"><a xlink:href="i2c_8h.html" target="_top" xlink:title="Low&#45;level I2C peripheral driver interface definition.">
<polygon fill="white" stroke="#666666" points="241.62,-77.5 168.62,-77.5 168.62,-56.75 241.62,-56.75 241.62,-77.5"/>
<text text-anchor="middle" x="205.12" y="-64" font-family="Helvetica,sans-Serif" font-size="10.00">periph/i2c.h</text>
</a>
</g>
</g>
<!-- Node2&#45;&gt;Node5 -->
<g id="edge4_Node000002_Node000005" class="edge">
<title>Node2&#45;&gt;Node5</title>
<g id="a_edge4_Node000002_Node000005"><a xlink:title=" ">
<path fill="none" stroke="#63b8ff" d="M302.85,-113.09C284.41,-104.6 257.46,-92.2 236.53,-82.58"/>
<polygon fill="#63b8ff" stroke="#63b8ff" points="238.14,-79.46 227.59,-78.46 235.21,-85.82 238.14,-79.46"/>
</a>
</g>
</g>
<!-- Node5&#45;&gt;Node3 -->
<g id="edge5_Node000005_Node000003" class="edge">
<title>Node5&#45;&gt;Node3</title>
<g id="a_edge5_Node000005_Node000003"><a xlink:title=" ">
<path fill="none" stroke="#63b8ff" d="M233.91,-56.34C260.46,-47.31 300.01,-33.86 328.94,-24.02"/>
<polygon fill="#63b8ff" stroke="#63b8ff" points="329.69,-27.46 338.03,-20.93 327.43,-20.84 329.69,-27.46"/>
</a>
</g>
</g>
<!-- Node6 -->
<g id="Node000006" class="node">
<title>Node6</title>
<g id="a_Node000006"><a xlink:title=" ">
<polygon fill="#e0e0e0" stroke="#999999" points="321.62,-20.75 266.62,-20.75 266.62,0 321.62,0 321.62,-20.75"/>
<text text-anchor="middle" x="294.12" y="-7.25" font-family="Helvetica,sans-Serif" font-size="10.00">stddef.h</text>
</a>
</g>
</g>
<!-- Node5&#45;&gt;Node6 -->
<g id="edge6_Node000005_Node000006" class="edge">
<title>Node5&#45;&gt;Node6</title>
<g id="a_edge6_Node000005_Node000006"><a xlink:title=" ">
<path fill="none" stroke="#63b8ff" d="M221.04,-56.34C234.33,-48.16 253.51,-36.36 268.89,-26.9"/>
<polygon fill="#63b8ff" stroke="#63b8ff" points="270.38,-30.09 277.06,-21.87 266.71,-24.13 270.38,-30.09"/>
</a>
</g>
</g>
<!-- Node7 -->
<g id="Node000007" class="node">
<title>Node7</title>
<g id="a_Node000007"><a xlink:title=" ">
<polygon fill="#e0e0e0" stroke="#999999" points="149.5,-20.75 96.75,-20.75 96.75,0 149.5,0 149.5,-20.75"/>
<text text-anchor="middle" x="123.12" y="-7.25" font-family="Helvetica,sans-Serif" font-size="10.00">limits.h</text>
</a>
</g>
</g>
<!-- Node5&#45;&gt;Node7 -->
<g id="edge7_Node000005_Node000007" class="edge">
<title>Node5&#45;&gt;Node7</title>
<g id="a_edge7_Node000005_Node000007"><a xlink:title=" ">
<path fill="none" stroke="#63b8ff" d="M190.47,-56.34C178.45,-48.32 161.21,-36.81 147.19,-27.44"/>
<polygon fill="#63b8ff" stroke="#63b8ff" points="149.18,-24.56 138.92,-21.92 145.29,-30.38 149.18,-24.56"/>
</a>
</g>
</g>
<!-- Node8 -->
<g id="Node000008" class="node">
<title>Node8</title>
<g id="a_Node000008"><a xlink:title=" ">
<polygon fill="#e0e0e0" stroke="#999999" points="248.75,-20.75 167.5,-20.75 167.5,0 248.75,0 248.75,-20.75"/>
<text text-anchor="middle" x="208.12" y="-7.25" font-family="Helvetica,sans-Serif" font-size="10.00">periph_conf.h</text>
</a>
</g>
</g>
<!-- Node5&#45;&gt;Node8 -->
<g id="edge8_Node000005_Node000008" class="edge">
<title>Node5&#45;&gt;Node8</title>
<g id="a_edge8_Node000005_Node000008"><a xlink:title=" ">
<path fill="none" stroke="#63b8ff" d="M205.66,-56.34C206.02,-49.72 206.52,-40.72 206.97,-32.52"/>
<polygon fill="#63b8ff" stroke="#63b8ff" points="210.46,-32.77 207.51,-22.59 203.47,-32.38 210.46,-32.77"/>
</a>
</g>
</g>
<!-- Node9 -->
<g id="Node000009" class="node">
<title>Node9</title>
<g id="a_Node000009"><a xlink:title=" ">
<polygon fill="#e0e0e0" stroke="#999999" points="78.25,-20.75 0,-20.75 0,0 78.25,0 78.25,-20.75"/>
<text text-anchor="middle" x="39.12" y="-7.25" font-family="Helvetica,sans-Serif" font-size="10.00">periph_cpu.h</text>
</a>
</g>
</g>
<!-- Node5&#45;&gt;Node9 -->
<g id="edge9_Node000005_Node000009" class="edge">
<title>Node5&#45;&gt;Node9</title>
<g id="a_edge9_Node000005_Node000009"><a xlink:title=" ">
<path fill="none" stroke="#63b8ff" d="M175.45,-56.34C148.74,-47.53 109.25,-34.5 79.64,-24.74"/>
<polygon fill="#63b8ff" stroke="#63b8ff" points="80.86,-21.45 70.26,-21.64 78.66,-28.1 80.86,-21.45"/>
</a>
</g>
</g>
<!-- Node10&#45;&gt;Node3 -->
<g id="edge11_Node000010_Node000003" class="edge">
<title>Node10&#45;&gt;Node3</title>
<g id="a_edge11_Node000010_Node000003"><a xlink:title=" ">
<path fill="none" stroke="#63b8ff" d="M407.29,-113.37C400.02,-95.36 384.09,-55.89 374.32,-31.68"/>
<polygon fill="#63b8ff" stroke="#63b8ff" points="377.63,-30.54 370.65,-22.58 371.14,-33.16 377.63,-30.54"/>
</a>
</g>
</g>
<!-- Node11 -->
<g id="Node000011" class="node">
<title>Node11</title>
<g id="a_Node000011"><a xlink:title=" ">
<polygon fill="#e0e0e0" stroke="#999999" points="536.75,-77.5 491.5,-77.5 491.5,-56.75 536.75,-56.75 536.75,-77.5"/>
<text text-anchor="middle" x="514.12" y="-64" font-family="Helvetica,sans-Serif" font-size="10.00">saul.h</text>
</a>
</g>
</g>
<!-- Node10&#45;&gt;Node11 -->
<g id="edge12_Node000010_Node000011" class="edge">
<title>Node10&#45;&gt;Node11</title>
<g id="a_edge12_Node000010_Node000011"><a xlink:title=" ">
<path fill="none" stroke="#63b8ff" d="M429.54,-113.09C445.21,-104.76 467.97,-92.66 485.94,-83.11"/>
<polygon fill="#63b8ff" stroke="#63b8ff" points="487.35,-86.32 494.53,-78.54 484.06,-80.14 487.35,-86.32"/>
</a>
</g>
</g>
<!-- Node12 -->
<g id="Node000012" class="node">
<title>Node12</title>
<g id="a_Node000012"><a xlink:href="phydat_8h.html" target="_top" xlink:title="Generic data container for physical data interface.">
<polygon fill="white" stroke="#666666" points="473.5,-77.5 414.75,-77.5 414.75,-56.75 473.5,-56.75 473.5,-77.5"/>
<text text-anchor="middle" x="444.12" y="-64" font-family="Helvetica,sans-Serif" font-size="10.00">phydat.h</text>
</a>
</g>
</g>
<!-- Node10&#45;&gt;Node12 -->
<g id="edge13_Node000010_Node000012" class="edge">
<title>Node10&#45;&gt;Node12</title>
<g id="a_edge13_Node000010_Node000012"><a xlink:title=" ">
<path fill="none" stroke="#63b8ff" d="M417.02,-113.09C421.3,-106 427.21,-96.19 432.42,-87.54"/>
<polygon fill="#63b8ff" stroke="#63b8ff" points="435.33,-89.5 437.5,-79.12 429.34,-85.88 435.33,-89.5"/>
</a>
</g>
</g>
<!-- Node12&#45;&gt;Node3 -->
<g id="edge15_Node000012_Node000003" class="edge">
<title>Node12&#45;&gt;Node3</title>
<g id="a_edge15_Node000012_Node000003"><a xlink:title=" ">
<path fill="none" stroke="#63b8ff" d="M430.18,-56.34C418.76,-48.32 402.36,-36.81 389.01,-27.44"/>
<polygon fill="#63b8ff" stroke="#63b8ff" points="391.38,-24.83 381.19,-21.95 387.36,-30.56 391.38,-24.83"/>
</a>
</g>
</g>
<!-- Node12&#45;&gt;Node6 -->
<g id="edge14_Node000012_Node000006" class="edge">
<title>Node12&#45;&gt;Node6</title>
<g id="a_edge14_Node000012_Node000006"><a xlink:title=" ">
<path fill="none" stroke="#63b8ff" d="M417.31,-56.34C393.39,-47.61 358.12,-34.73 331.45,-25"/>
<polygon fill="#63b8ff" stroke="#63b8ff" points="332.98,-21.83 322.38,-21.69 330.58,-28.41 332.98,-21.83"/>
</a>
</g>
</g>
<!-- Node13 -->
<g id="Node000013" class="node">
<title>Node13</title>
<g id="a_Node000013"><a xlink:title=" ">
<polygon fill="#e0e0e0" stroke="#999999" points="566.88,-20.75 495.38,-20.75 495.38,0 566.88,0 566.88,-20.75"/>
<text text-anchor="middle" x="531.12" y="-7.25" font-family="Helvetica,sans-Serif" font-size="10.00">sys/types.h</text>
</a>
</g>
</g>
<!-- Node12&#45;&gt;Node13 -->
<g id="edge16_Node000012_Node000013" class="edge">
<title>Node12&#45;&gt;Node13</title>
<g id="a_edge16_Node000012_Node000013"><a xlink:title=" ">
<path fill="none" stroke="#63b8ff" d="M459.68,-56.34C472.55,-48.24 491.07,-36.58 506.03,-27.17"/>
<polygon fill="#63b8ff" stroke="#63b8ff" points="507.83,-30.17 514.42,-21.88 504.1,-24.25 507.83,-30.17"/>
</a>
</g>
</g>
<!-- Node14 -->
<g id="Node000014" class="node">
<title>Node14</title>
<g id="a_Node000014"><a xlink:href="modules_8h.html" target="_top" xlink:title="Common macros and compiler attributes/pragmas configuration.">
<polygon fill="white" stroke="#666666" points="477.62,-20.75 410.62,-20.75 410.62,0 477.62,0 477.62,-20.75"/>
<text text-anchor="middle" x="444.12" y="-7.25" font-family="Helvetica,sans-Serif" font-size="10.00">modules.h</text>
</a>
</g>
</g>
<!-- Node12&#45;&gt;Node14 -->
<g id="edge17_Node000012_Node000014" class="edge">
<title>Node12&#45;&gt;Node14</title>
<g id="a_edge17_Node000012_Node000014"><a xlink:title=" ">
<path fill="none" stroke="#63b8ff" d="M444.12,-56.34C444.12,-49.72 444.12,-40.72 444.12,-32.52"/>
<polygon fill="#63b8ff" stroke="#63b8ff" points="447.63,-32.59 444.13,-22.59 440.63,-32.59 447.63,-32.59"/>
</a>
</g>
</g>
</g>
</svg>
