<?xml version="1.0" encoding="UTF-8" standalone="no"?>
<!DOCTYPE svg PUBLIC "-//W3C//DTD SVG 1.1//EN"
 "http://www.w3.org/Graphics/SVG/1.1/DTD/svg11.dtd">
<!-- Generated by graphviz version 12.1.1 (0)
 -->
<!-- Title: drivers/si1133/include/si1133_params.h Pages: 1 -->
<svg width="601pt" height="212pt"
 viewBox="0.00 0.00 600.75 211.75" xmlns="http://www.w3.org/2000/svg" xmlns:xlink="http://www.w3.org/1999/xlink">
<g id="graph0" class="graph" transform="scale(1 1) rotate(0) translate(4 207.75)">
<title>drivers/si1133/include/si1133_params.h</title>
<!-- Node1 -->
<g id="Node000001" class="node">
<title>Node1</title>
<g id="a_Node000001"><a xlink:title="Default configuration for SI1133.">
<polygon fill="#999999" stroke="#666666" points="221.25,-203.75 98,-203.75 98,-170.25 221.25,-170.25 221.25,-203.75"/>
<text text-anchor="start" x="106" y="-190.25" font-family="Helvetica,sans-Serif" font-size="10.00">drivers/si1133/include</text>
<text text-anchor="middle" x="159.62" y="-177.5" font-family="Helvetica,sans-Serif" font-size="10.00">/si1133_params.h</text>
</a>
</g>
</g>
<!-- Node2 -->
<g id="Node000002" class="node">
<title>Node2</title>
<g id="a_Node000002"><a xlink:title=" ">
<polygon fill="#e0e0e0" stroke="#999999" points="102,-134.25 49.25,-134.25 49.25,-113.5 102,-113.5 102,-134.25"/>
<text text-anchor="middle" x="75.62" y="-120.75" font-family="Helvetica,sans-Serif" font-size="10.00">board.h</text>
</a>
</g>
</g>
<!-- Node1&#45;&gt;Node2 -->
<g id="edge1_Node000001_Node000002" class="edge">
<title>Node1&#45;&gt;Node2</title>
<g id="a_edge1_Node000001_Node000002"><a xlink:title=" ">
<path fill="none" stroke="#63b8ff" d="M137.55,-169.94C125.43,-161.12 110.43,-150.2 98.23,-141.32"/>
<polygon fill="#63b8ff" stroke="#63b8ff" points="100.52,-138.66 90.37,-135.61 96.4,-144.32 100.52,-138.66"/>
</a>
</g>
</g>
<!-- Node3 -->
<g id="Node000003" class="node">
<title>Node3</title>
<g id="a_Node000003"><a xlink:href="si1133_8h.html" target="_top" xlink:title="Device driver interface for the Si1133 sensor.">
<polygon fill="white" stroke="#666666" points="340.25,-134.25 283,-134.25 283,-113.5 340.25,-113.5 340.25,-134.25"/>
<text text-anchor="middle" x="311.62" y="-120.75" font-family="Helvetica,sans-Serif" font-size="10.00">si1133.h</text>
</a>
</g>
</g>
<!-- Node1&#45;&gt;Node3 -->
<g id="edge2_Node000001_Node000003" class="edge">
<title>Node1&#45;&gt;Node3</title>
<g id="a_edge2_Node000001_Node000003"><a xlink:title=" ">
<path fill="none" stroke="#63b8ff" d="M199.96,-169.78C223.84,-160.18 253.81,-148.13 276.68,-138.93"/>
<polygon fill="#63b8ff" stroke="#63b8ff" points="277.9,-142.21 285.88,-135.23 275.29,-135.71 277.9,-142.21"/>
</a>
</g>
</g>
<!-- Node10 -->
<g id="Node000010" class="node">
<title>Node10</title>
<g id="a_Node000010"><a xlink:href="saul__reg_8h.html" target="_top" xlink:title="SAUL registry interface definition.">
<polygon fill="white" stroke="#666666" points="223.75,-134.25 157.5,-134.25 157.5,-113.5 223.75,-113.5 223.75,-134.25"/>
<text text-anchor="middle" x="190.62" y="-120.75" font-family="Helvetica,sans-Serif" font-size="10.00">saul_reg.h</text>
</a>
</g>
</g>
<!-- Node1&#45;&gt;Node10 -->
<g id="edge9_Node000001_Node000010" class="edge">
<title>Node1&#45;&gt;Node10</title>
<g id="a_edge9_Node000001_Node000010"><a xlink:title=" ">
<path fill="none" stroke="#63b8ff" d="M167.77,-169.94C171.67,-162.26 176.37,-152.98 180.5,-144.84"/>
<polygon fill="#63b8ff" stroke="#63b8ff" points="183.55,-146.57 184.95,-136.07 177.3,-143.4 183.55,-146.57"/>
</a>
</g>
</g>
<!-- Node15 -->
<g id="Node000015" class="node">
<title>Node15</title>
<g id="a_Node000015"><a xlink:href="si1133__internals_8h.html" target="_top" xlink:title="Internal addresses, registers, constants for the Si1133 sensors family.">
<polygon fill="white" stroke="#666666" points="105.25,-77.5 0,-77.5 0,-56.75 105.25,-56.75 105.25,-77.5"/>
<text text-anchor="middle" x="52.62" y="-64" font-family="Helvetica,sans-Serif" font-size="10.00">si1133_internals.h</text>
</a>
</g>
</g>
<!-- Node1&#45;&gt;Node15 -->
<g id="edge17_Node000001_Node000015" class="edge">
<title>Node1&#45;&gt;Node15</title>
<g id="a_edge17_Node000001_Node000015"><a xlink:title=" ">
<path fill="none" stroke="#63b8ff" d="M150.78,-169.98C141.83,-154.56 127,-131.05 110.62,-113.5 100.51,-102.65 87.65,-92.32 76.61,-84.26"/>
<polygon fill="#63b8ff" stroke="#63b8ff" points="78.91,-81.6 68.73,-78.68 74.87,-87.32 78.91,-81.6"/>
</a>
</g>
</g>
<!-- Node4 -->
<g id="Node000004" class="node">
<title>Node4</title>
<g id="a_Node000004"><a xlink:href="i2c_8h.html" target="_top" xlink:title="Low&#45;level I2C peripheral driver interface definition.">
<polygon fill="white" stroke="#666666" points="390.12,-77.5 317.12,-77.5 317.12,-56.75 390.12,-56.75 390.12,-77.5"/>
<text text-anchor="middle" x="353.62" y="-64" font-family="Helvetica,sans-Serif" font-size="10.00">periph/i2c.h</text>
</a>
</g>
</g>
<!-- Node3&#45;&gt;Node4 -->
<g id="edge3_Node000003_Node000004" class="edge">
<title>Node3&#45;&gt;Node4</title>
<g id="a_edge3_Node000003_Node000004"><a xlink:title=" ">
<path fill="none" stroke="#63b8ff" d="M319.13,-113.09C324.75,-105.77 332.59,-95.54 339.38,-86.69"/>
<polygon fill="#63b8ff" stroke="#63b8ff" points="341.95,-89.09 345.26,-79.03 336.4,-84.83 341.95,-89.09"/>
</a>
</g>
</g>
<!-- Node5 -->
<g id="Node000005" class="node">
<title>Node5</title>
<g id="a_Node000005"><a xlink:title=" ">
<polygon fill="#e0e0e0" stroke="#999999" points="79,-20.75 26.25,-20.75 26.25,0 79,0 79,-20.75"/>
<text text-anchor="middle" x="52.62" y="-7.25" font-family="Helvetica,sans-Serif" font-size="10.00">stdint.h</text>
</a>
</g>
</g>
<!-- Node4&#45;&gt;Node5 -->
<g id="edge4_Node000004_Node000005" class="edge">
<title>Node4&#45;&gt;Node5</title>
<g id="a_edge4_Node000004_Node000005"><a xlink:title=" ">
<path fill="none" stroke="#63b8ff" d="M317.04,-60.26C258.98,-50.88 147.28,-32.58 90.27,-20.91"/>
<polygon fill="#63b8ff" stroke="#63b8ff" points="91.29,-17.54 80.78,-18.9 89.84,-24.39 91.29,-17.54"/>
</a>
</g>
</g>
<!-- Node6 -->
<g id="Node000006" class="node">
<title>Node6</title>
<g id="a_Node000006"><a xlink:title=" ">
<polygon fill="#e0e0e0" stroke="#999999" points="326.12,-20.75 271.12,-20.75 271.12,0 326.12,0 326.12,-20.75"/>
<text text-anchor="middle" x="298.62" y="-7.25" font-family="Helvetica,sans-Serif" font-size="10.00">stddef.h</text>
</a>
</g>
</g>
<!-- Node4&#45;&gt;Node6 -->
<g id="edge5_Node000004_Node000006" class="edge">
<title>Node4&#45;&gt;Node6</title>
<g id="a_edge5_Node000004_Node000006"><a xlink:title=" ">
<path fill="none" stroke="#63b8ff" d="M343.79,-56.34C336.21,-48.78 325.51,-38.14 316.43,-29.1"/>
<polygon fill="#63b8ff" stroke="#63b8ff" points="319,-26.72 309.45,-22.15 314.06,-31.68 319,-26.72"/>
</a>
</g>
</g>
<!-- Node7 -->
<g id="Node000007" class="node">
<title>Node7</title>
<g id="a_Node000007"><a xlink:title=" ">
<polygon fill="#e0e0e0" stroke="#999999" points="397,-20.75 344.25,-20.75 344.25,0 397,0 397,-20.75"/>
<text text-anchor="middle" x="370.62" y="-7.25" font-family="Helvetica,sans-Serif" font-size="10.00">limits.h</text>
</a>
</g>
</g>
<!-- Node4&#45;&gt;Node7 -->
<g id="edge6_Node000004_Node000007" class="edge">
<title>Node4&#45;&gt;Node7</title>
<g id="a_edge6_Node000004_Node000007"><a xlink:title=" ">
<path fill="none" stroke="#63b8ff" d="M356.66,-56.34C358.77,-49.56 361.64,-40.3 364.24,-31.94"/>
<polygon fill="#63b8ff" stroke="#63b8ff" points="367.54,-33.11 367.16,-22.52 360.86,-31.04 367.54,-33.11"/>
</a>
</g>
</g>
<!-- Node8 -->
<g id="Node000008" class="node">
<title>Node8</title>
<g id="a_Node000008"><a xlink:title=" ">
<polygon fill="#e0e0e0" stroke="#999999" points="496.25,-20.75 415,-20.75 415,0 496.25,0 496.25,-20.75"/>
<text text-anchor="middle" x="455.62" y="-7.25" font-family="Helvetica,sans-Serif" font-size="10.00">periph_conf.h</text>
</a>
</g>
</g>
<!-- Node4&#45;&gt;Node8 -->
<g id="edge7_Node000004_Node000008" class="edge">
<title>Node4&#45;&gt;Node8</title>
<g id="a_edge7_Node000004_Node000008"><a xlink:title=" ">
<path fill="none" stroke="#63b8ff" d="M371.86,-56.34C387.31,-48.05 409.71,-36.02 427.46,-26.49"/>
<polygon fill="#63b8ff" stroke="#63b8ff" points="429.06,-29.61 436.21,-21.79 425.75,-23.44 429.06,-29.61"/>
</a>
</g>
</g>
<!-- Node9 -->
<g id="Node000009" class="node">
<title>Node9</title>
<g id="a_Node000009"><a xlink:title=" ">
<polygon fill="#e0e0e0" stroke="#999999" points="592.75,-20.75 514.5,-20.75 514.5,0 592.75,0 592.75,-20.75"/>
<text text-anchor="middle" x="553.62" y="-7.25" font-family="Helvetica,sans-Serif" font-size="10.00">periph_cpu.h</text>
</a>
</g>
</g>
<!-- Node4&#45;&gt;Node9 -->
<g id="edge8_Node000004_Node000009" class="edge">
<title>Node4&#45;&gt;Node9</title>
<g id="a_edge8_Node000004_Node000009"><a xlink:title=" ">
<path fill="none" stroke="#63b8ff" d="M389.38,-56.34C422.27,-47.33 471.24,-33.93 507.15,-24.1"/>
<polygon fill="#63b8ff" stroke="#63b8ff" points="507.66,-27.59 516.38,-21.57 505.81,-20.83 507.66,-27.59"/>
</a>
</g>
</g>
<!-- Node10&#45;&gt;Node5 -->
<g id="edge10_Node000010_Node000005" class="edge">
<title>Node10&#45;&gt;Node5</title>
<g id="a_edge10_Node000010_Node000005"><a xlink:title=" ">
<path fill="none" stroke="#63b8ff" d="M180.04,-113.17C165.58,-100.01 138.68,-75.96 114.62,-56.75 102.09,-46.74 87.64,-36.11 75.85,-27.66"/>
<polygon fill="#63b8ff" stroke="#63b8ff" points="78.08,-24.96 67.9,-22.02 74.02,-30.66 78.08,-24.96"/>
</a>
</g>
</g>
<!-- Node11 -->
<g id="Node000011" class="node">
<title>Node11</title>
<g id="a_Node000011"><a xlink:title=" ">
<polygon fill="#e0e0e0" stroke="#999999" points="283.25,-77.5 238,-77.5 238,-56.75 283.25,-56.75 283.25,-77.5"/>
<text text-anchor="middle" x="260.62" y="-64" font-family="Helvetica,sans-Serif" font-size="10.00">saul.h</text>
</a>
</g>
</g>
<!-- Node10&#45;&gt;Node11 -->
<g id="edge11_Node000010_Node000011" class="edge">
<title>Node10&#45;&gt;Node11</title>
<g id="a_edge11_Node000010_Node000011"><a xlink:title=" ">
<path fill="none" stroke="#63b8ff" d="M203.14,-113.09C213.19,-105.22 227.54,-94 239.38,-84.74"/>
<polygon fill="#63b8ff" stroke="#63b8ff" points="241.31,-87.68 247.03,-78.76 236.99,-82.16 241.31,-87.68"/>
</a>
</g>
</g>
<!-- Node12 -->
<g id="Node000012" class="node">
<title>Node12</title>
<g id="a_Node000012"><a xlink:href="phydat_8h.html" target="_top" xlink:title="Generic data container for physical data interface.">
<polygon fill="white" stroke="#666666" points="220,-77.5 161.25,-77.5 161.25,-56.75 220,-56.75 220,-77.5"/>
<text text-anchor="middle" x="190.62" y="-64" font-family="Helvetica,sans-Serif" font-size="10.00">phydat.h</text>
</a>
</g>
</g>
<!-- Node10&#45;&gt;Node12 -->
<g id="edge12_Node000010_Node000012" class="edge">
<title>Node10&#45;&gt;Node12</title>
<g id="a_edge12_Node000010_Node000012"><a xlink:title=" ">
<path fill="none" stroke="#63b8ff" d="M190.62,-113.09C190.62,-106.47 190.62,-97.47 190.62,-89.27"/>
<polygon fill="#63b8ff" stroke="#63b8ff" points="194.13,-89.34 190.63,-79.34 187.13,-89.34 194.13,-89.34"/>
</a>
</g>
</g>
<!-- Node12&#45;&gt;Node5 -->
<g id="edge14_Node000012_Node000005" class="edge">
<title>Node12&#45;&gt;Node5</title>
<g id="a_edge14_Node000012_Node000005"><a xlink:title=" ">
<path fill="none" stroke="#63b8ff" d="M165.95,-56.34C144.17,-47.69 112.17,-35 87.72,-25.3"/>
<polygon fill="#63b8ff" stroke="#63b8ff" points="89.08,-22.07 78.49,-21.64 86.49,-28.58 89.08,-22.07"/>
</a>
</g>
</g>
<!-- Node12&#45;&gt;Node6 -->
<g id="edge13_Node000012_Node000006" class="edge">
<title>Node12&#45;&gt;Node6</title>
<g id="a_edge13_Node000012_Node000006"><a xlink:title=" ">
<path fill="none" stroke="#63b8ff" d="M209.93,-56.34C226.44,-47.97 250.46,-35.79 269.33,-26.22"/>
<polygon fill="#63b8ff" stroke="#63b8ff" points="270.8,-29.41 278.13,-21.76 267.63,-23.16 270.8,-29.41"/>
</a>
</g>
</g>
<!-- Node13 -->
<g id="Node000013" class="node">
<title>Node13</title>
<g id="a_Node000013"><a xlink:title=" ">
<polygon fill="#e0e0e0" stroke="#999999" points="253.38,-20.75 181.88,-20.75 181.88,0 253.38,0 253.38,-20.75"/>
<text text-anchor="middle" x="217.62" y="-7.25" font-family="Helvetica,sans-Serif" font-size="10.00">sys/types.h</text>
</a>
</g>
</g>
<!-- Node12&#45;&gt;Node13 -->
<g id="edge15_Node000012_Node000013" class="edge">
<title>Node12&#45;&gt;Node13</title>
<g id="a_edge15_Node000012_Node000013"><a xlink:title=" ">
<path fill="none" stroke="#63b8ff" d="M195.45,-56.34C198.87,-49.41 203.57,-39.87 207.77,-31.36"/>
<polygon fill="#63b8ff" stroke="#63b8ff" points="210.89,-32.95 212.17,-22.44 204.61,-29.86 210.89,-32.95"/>
</a>
</g>
</g>
<!-- Node14 -->
<g id="Node000014" class="node">
<title>Node14</title>
<g id="a_Node000014"><a xlink:href="modules_8h.html" target="_top" xlink:title="Common macros and compiler attributes/pragmas configuration.">
<polygon fill="white" stroke="#666666" points="164.12,-20.75 97.12,-20.75 97.12,0 164.12,0 164.12,-20.75"/>
<text text-anchor="middle" x="130.62" y="-7.25" font-family="Helvetica,sans-Serif" font-size="10.00">modules.h</text>
</a>
</g>
</g>
<!-- Node12&#45;&gt;Node14 -->
<g id="edge16_Node000012_Node000014" class="edge">
<title>Node12&#45;&gt;Node14</title>
<g id="a_edge16_Node000012_Node000014"><a xlink:title=" ">
<path fill="none" stroke="#63b8ff" d="M179.9,-56.34C171.54,-48.71 159.71,-37.92 149.74,-28.82"/>
<polygon fill="#63b8ff" stroke="#63b8ff" points="152.12,-26.25 142.38,-22.1 147.4,-31.42 152.12,-26.25"/>
</a>
</g>
</g>
<!-- Node15&#45;&gt;Node5 -->
<g id="edge18_Node000015_Node000005" class="edge">
<title>Node15&#45;&gt;Node5</title>
<g id="a_edge18_Node000015_Node000005"><a xlink:title=" ">
<path fill="none" stroke="#63b8ff" d="M52.62,-56.34C52.62,-49.72 52.62,-40.72 52.62,-32.52"/>
<polygon fill="#63b8ff" stroke="#63b8ff" points="56.13,-32.59 52.63,-22.59 49.13,-32.59 56.13,-32.59"/>
</a>
</g>
</g>
</g>
</svg>
