<?xml version="1.0" encoding="UTF-8" standalone="no"?>
<!DOCTYPE svg PUBLIC "-//W3C//DTD SVG 1.1//EN"
 "http://www.w3.org/Graphics/SVG/1.1/DTD/svg11.dtd">
<!-- Generated by graphviz version 12.1.1 (0)
 -->
<!-- Title: drivers/si70xx/include/si70xx_params.h Pages: 1 -->
<svg width="575pt" height="212pt"
 viewBox="0.00 0.00 574.88 211.75" xmlns="http://www.w3.org/2000/svg" xmlns:xlink="http://www.w3.org/1999/xlink">
<g id="graph0" class="graph" transform="scale(1 1) rotate(0) translate(4 207.75)">
<title>drivers/si70xx/include/si70xx_params.h</title>
<!-- Node1 -->
<g id="Node000001" class="node">
<title>Node1</title>
<g id="a_Node000001"><a xlink:title="Default configuration for Si7006/13/20/21.">
<polygon fill="#999999" stroke="#666666" points="331.38,-203.75 208.12,-203.75 208.12,-170.25 331.38,-170.25 331.38,-203.75"/>
<text text-anchor="start" x="216.12" y="-190.25" font-family="Helvetica,sans-Serif" font-size="10.00">drivers/si70xx/include</text>
<text text-anchor="middle" x="269.75" y="-177.5" font-family="Helvetica,sans-Serif" font-size="10.00">/si70xx_params.h</text>
</a>
</g>
</g>
<!-- Node2 -->
<g id="Node000002" class="node">
<title>Node2</title>
<g id="a_Node000002"><a xlink:title=" ">
<polygon fill="#e0e0e0" stroke="#999999" points="178.12,-134.25 125.38,-134.25 125.38,-113.5 178.12,-113.5 178.12,-134.25"/>
<text text-anchor="middle" x="151.75" y="-120.75" font-family="Helvetica,sans-Serif" font-size="10.00">board.h</text>
</a>
</g>
</g>
<!-- Node1&#45;&gt;Node2 -->
<g id="edge1_Node000001_Node000002" class="edge">
<title>Node1&#45;&gt;Node2</title>
<g id="a_edge1_Node000001_Node000002"><a xlink:title=" ">
<path fill="none" stroke="#63b8ff" d="M238.44,-169.78C220.57,-160.52 198.32,-149 180.84,-139.94"/>
<polygon fill="#63b8ff" stroke="#63b8ff" points="182.48,-136.85 171.99,-135.36 179.26,-143.07 182.48,-136.85"/>
</a>
</g>
</g>
<!-- Node3 -->
<g id="Node000003" class="node">
<title>Node3</title>
<g id="a_Node000003"><a xlink:href="si70xx_8h.html" target="_top" xlink:title="Interface definition of the Si70xx driver.">
<polygon fill="white" stroke="#666666" points="338.38,-134.25 281.12,-134.25 281.12,-113.5 338.38,-113.5 338.38,-134.25"/>
<text text-anchor="middle" x="309.75" y="-120.75" font-family="Helvetica,sans-Serif" font-size="10.00">si70xx.h</text>
</a>
</g>
</g>
<!-- Node1&#45;&gt;Node3 -->
<g id="edge2_Node000001_Node000003" class="edge">
<title>Node1&#45;&gt;Node3</title>
<g id="a_edge2_Node000001_Node000003"><a xlink:title=" ">
<path fill="none" stroke="#63b8ff" d="M280.26,-169.94C285.4,-162.08 291.64,-152.56 297.04,-144.29"/>
<polygon fill="#63b8ff" stroke="#63b8ff" points="299.93,-146.27 302.48,-135.98 294.08,-142.43 299.93,-146.27"/>
</a>
</g>
</g>
<!-- Node10 -->
<g id="Node000010" class="node">
<title>Node10</title>
<g id="a_Node000010"><a xlink:href="saul__reg_8h.html" target="_top" xlink:title="SAUL registry interface definition.">
<polygon fill="white" stroke="#666666" points="262.88,-134.25 196.62,-134.25 196.62,-113.5 262.88,-113.5 262.88,-134.25"/>
<text text-anchor="middle" x="229.75" y="-120.75" font-family="Helvetica,sans-Serif" font-size="10.00">saul_reg.h</text>
</a>
</g>
</g>
<!-- Node1&#45;&gt;Node10 -->
<g id="edge9_Node000001_Node000010" class="edge">
<title>Node1&#45;&gt;Node10</title>
<g id="a_edge9_Node000001_Node000010"><a xlink:title=" ">
<path fill="none" stroke="#63b8ff" d="M259.24,-169.94C254.1,-162.08 247.86,-152.56 242.46,-144.29"/>
<polygon fill="#63b8ff" stroke="#63b8ff" points="245.42,-142.43 237.02,-135.98 239.57,-146.27 245.42,-142.43"/>
</a>
</g>
</g>
<!-- Node15 -->
<g id="Node000015" class="node">
<title>Node15</title>
<g id="a_Node000015"><a xlink:href="si70xx__internals_8h.html" target="_top" xlink:title="Internal definitions for Si7006/13/20/21.">
<polygon fill="white" stroke="#666666" points="461.38,-134.25 356.12,-134.25 356.12,-113.5 461.38,-113.5 461.38,-134.25"/>
<text text-anchor="middle" x="408.75" y="-120.75" font-family="Helvetica,sans-Serif" font-size="10.00">si70xx_internals.h</text>
</a>
</g>
</g>
<!-- Node1&#45;&gt;Node15 -->
<g id="edge17_Node000001_Node000015" class="edge">
<title>Node1&#45;&gt;Node15</title>
<g id="a_edge17_Node000001_Node000015"><a xlink:title=" ">
<path fill="none" stroke="#63b8ff" d="M306.63,-169.78C328.28,-160.26 355.38,-148.35 376.22,-139.18"/>
<polygon fill="#63b8ff" stroke="#63b8ff" points="377.36,-142.5 385.1,-135.27 374.54,-136.1 377.36,-142.5"/>
</a>
</g>
</g>
<!-- Node4 -->
<g id="Node000004" class="node">
<title>Node4</title>
<g id="a_Node000004"><a xlink:href="i2c_8h.html" target="_top" xlink:title="Low&#45;level I2C peripheral driver interface definition.">
<polygon fill="white" stroke="#666666" points="377.25,-77.5 304.25,-77.5 304.25,-56.75 377.25,-56.75 377.25,-77.5"/>
<text text-anchor="middle" x="340.75" y="-64" font-family="Helvetica,sans-Serif" font-size="10.00">periph/i2c.h</text>
</a>
</g>
</g>
<!-- Node3&#45;&gt;Node4 -->
<g id="edge3_Node000003_Node000004" class="edge">
<title>Node3&#45;&gt;Node4</title>
<g id="a_edge3_Node000003_Node000004"><a xlink:title=" ">
<path fill="none" stroke="#63b8ff" d="M315.29,-113.09C319.26,-106.08 324.74,-96.41 329.59,-87.83"/>
<polygon fill="#63b8ff" stroke="#63b8ff" points="332.63,-89.57 334.51,-79.15 326.54,-86.12 332.63,-89.57"/>
</a>
</g>
</g>
<!-- Node5 -->
<g id="Node000005" class="node">
<title>Node5</title>
<g id="a_Node000005"><a xlink:title=" ">
<polygon fill="#e0e0e0" stroke="#999999" points="227.12,-20.75 174.38,-20.75 174.38,0 227.12,0 227.12,-20.75"/>
<text text-anchor="middle" x="200.75" y="-7.25" font-family="Helvetica,sans-Serif" font-size="10.00">stdint.h</text>
</a>
</g>
</g>
<!-- Node4&#45;&gt;Node5 -->
<g id="edge4_Node000004_Node000005" class="edge">
<title>Node4&#45;&gt;Node5</title>
<g id="a_edge4_Node000004_Node000005"><a xlink:title=" ">
<path fill="none" stroke="#63b8ff" d="M315.72,-56.34C293.52,-47.66 260.86,-34.88 236.02,-25.17"/>
<polygon fill="#63b8ff" stroke="#63b8ff" points="237.56,-22.01 226.97,-21.63 235.01,-28.53 237.56,-22.01"/>
</a>
</g>
</g>
<!-- Node6 -->
<g id="Node000006" class="node">
<title>Node6</title>
<g id="a_Node000006"><a xlink:title=" ">
<polygon fill="#e0e0e0" stroke="#999999" points="300.25,-20.75 245.25,-20.75 245.25,0 300.25,0 300.25,-20.75"/>
<text text-anchor="middle" x="272.75" y="-7.25" font-family="Helvetica,sans-Serif" font-size="10.00">stddef.h</text>
</a>
</g>
</g>
<!-- Node4&#45;&gt;Node6 -->
<g id="edge5_Node000004_Node000006" class="edge">
<title>Node4&#45;&gt;Node6</title>
<g id="a_edge5_Node000004_Node000006"><a xlink:title=" ">
<path fill="none" stroke="#63b8ff" d="M328.59,-56.34C318.92,-48.55 305.17,-37.47 293.73,-28.26"/>
<polygon fill="#63b8ff" stroke="#63b8ff" points="295.96,-25.57 285.98,-22.03 291.57,-31.03 295.96,-25.57"/>
</a>
</g>
</g>
<!-- Node7 -->
<g id="Node000007" class="node">
<title>Node7</title>
<g id="a_Node000007"><a xlink:title=" ">
<polygon fill="#e0e0e0" stroke="#999999" points="371.12,-20.75 318.38,-20.75 318.38,0 371.12,0 371.12,-20.75"/>
<text text-anchor="middle" x="344.75" y="-7.25" font-family="Helvetica,sans-Serif" font-size="10.00">limits.h</text>
</a>
</g>
</g>
<!-- Node4&#45;&gt;Node7 -->
<g id="edge6_Node000004_Node000007" class="edge">
<title>Node4&#45;&gt;Node7</title>
<g id="a_edge6_Node000004_Node000007"><a xlink:title=" ">
<path fill="none" stroke="#63b8ff" d="M341.47,-56.34C341.95,-49.72 342.61,-40.72 343.21,-32.52"/>
<polygon fill="#63b8ff" stroke="#63b8ff" points="346.69,-32.82 343.93,-22.59 339.71,-32.31 346.69,-32.82"/>
</a>
</g>
</g>
<!-- Node8 -->
<g id="Node000008" class="node">
<title>Node8</title>
<g id="a_Node000008"><a xlink:title=" ">
<polygon fill="#e0e0e0" stroke="#999999" points="470.38,-20.75 389.12,-20.75 389.12,0 470.38,0 470.38,-20.75"/>
<text text-anchor="middle" x="429.75" y="-7.25" font-family="Helvetica,sans-Serif" font-size="10.00">periph_conf.h</text>
</a>
</g>
</g>
<!-- Node4&#45;&gt;Node8 -->
<g id="edge7_Node000004_Node000008" class="edge">
<title>Node4&#45;&gt;Node8</title>
<g id="a_edge7_Node000004_Node000008"><a xlink:title=" ">
<path fill="none" stroke="#63b8ff" d="M356.66,-56.34C369.95,-48.16 389.14,-36.36 404.52,-26.9"/>
<polygon fill="#63b8ff" stroke="#63b8ff" points="406,-30.09 412.69,-21.87 402.34,-24.13 406,-30.09"/>
</a>
</g>
</g>
<!-- Node9 -->
<g id="Node000009" class="node">
<title>Node9</title>
<g id="a_Node000009"><a xlink:title=" ">
<polygon fill="#e0e0e0" stroke="#999999" points="566.88,-20.75 488.62,-20.75 488.62,0 566.88,0 566.88,-20.75"/>
<text text-anchor="middle" x="527.75" y="-7.25" font-family="Helvetica,sans-Serif" font-size="10.00">periph_cpu.h</text>
</a>
</g>
</g>
<!-- Node4&#45;&gt;Node9 -->
<g id="edge8_Node000004_Node000009" class="edge">
<title>Node4&#45;&gt;Node9</title>
<g id="a_edge8_Node000004_Node000009"><a xlink:title=" ">
<path fill="none" stroke="#63b8ff" d="M374.18,-56.34C404.67,-47.41 449.93,-34.16 483.42,-24.35"/>
<polygon fill="#63b8ff" stroke="#63b8ff" points="484.23,-27.76 492.84,-21.6 482.26,-21.05 484.23,-27.76"/>
</a>
</g>
</g>
<!-- Node10&#45;&gt;Node5 -->
<g id="edge10_Node000010_Node000005" class="edge">
<title>Node10&#45;&gt;Node5</title>
<g id="a_edge10_Node000010_Node000005"><a xlink:title=" ">
<path fill="none" stroke="#63b8ff" d="M227.28,-113.37C222.61,-95.44 212.42,-56.25 206.12,-32.01"/>
<polygon fill="#63b8ff" stroke="#63b8ff" points="209.58,-31.44 203.68,-22.64 202.81,-33.2 209.58,-31.44"/>
</a>
</g>
</g>
<!-- Node11 -->
<g id="Node000011" class="node">
<title>Node11</title>
<g id="a_Node000011"><a xlink:title=" ">
<polygon fill="#e0e0e0" stroke="#999999" points="278.38,-77.5 233.12,-77.5 233.12,-56.75 278.38,-56.75 278.38,-77.5"/>
<text text-anchor="middle" x="255.75" y="-64" font-family="Helvetica,sans-Serif" font-size="10.00">saul.h</text>
</a>
</g>
</g>
<!-- Node10&#45;&gt;Node11 -->
<g id="edge11_Node000010_Node000011" class="edge">
<title>Node10&#45;&gt;Node11</title>
<g id="a_edge11_Node000010_Node000011"><a xlink:title=" ">
<path fill="none" stroke="#63b8ff" d="M234.4,-113.09C237.69,-106.16 242.22,-96.62 246.26,-88.11"/>
<polygon fill="#63b8ff" stroke="#63b8ff" points="249.36,-89.73 250.49,-79.2 243.04,-86.73 249.36,-89.73"/>
</a>
</g>
</g>
<!-- Node12 -->
<g id="Node000012" class="node">
<title>Node12</title>
<g id="a_Node000012"><a xlink:href="phydat_8h.html" target="_top" xlink:title="Generic data container for physical data interface.">
<polygon fill="white" stroke="#666666" points="177.12,-77.5 118.38,-77.5 118.38,-56.75 177.12,-56.75 177.12,-77.5"/>
<text text-anchor="middle" x="147.75" y="-64" font-family="Helvetica,sans-Serif" font-size="10.00">phydat.h</text>
</a>
</g>
</g>
<!-- Node10&#45;&gt;Node12 -->
<g id="edge12_Node000010_Node000012" class="edge">
<title>Node10&#45;&gt;Node12</title>
<g id="a_edge12_Node000010_Node000012"><a xlink:title=" ">
<path fill="none" stroke="#63b8ff" d="M215.09,-113.09C203.08,-105.07 185.84,-93.56 171.81,-84.19"/>
<polygon fill="#63b8ff" stroke="#63b8ff" points="173.8,-81.31 163.54,-78.67 169.91,-87.13 173.8,-81.31"/>
</a>
</g>
</g>
<!-- Node12&#45;&gt;Node5 -->
<g id="edge14_Node000012_Node000005" class="edge">
<title>Node12&#45;&gt;Node5</title>
<g id="a_edge14_Node000012_Node000005"><a xlink:title=" ">
<path fill="none" stroke="#63b8ff" d="M157.23,-56.34C164.54,-48.78 174.84,-38.14 183.59,-29.1"/>
<polygon fill="#63b8ff" stroke="#63b8ff" points="185.86,-31.79 190.3,-22.17 180.83,-26.92 185.86,-31.79"/>
</a>
</g>
</g>
<!-- Node12&#45;&gt;Node6 -->
<g id="edge13_Node000012_Node000006" class="edge">
<title>Node12&#45;&gt;Node6</title>
<g id="a_edge13_Node000012_Node000006"><a xlink:title=" ">
<path fill="none" stroke="#63b8ff" d="M170.1,-56.34C189.56,-47.81 218.04,-35.34 240.06,-25.69"/>
<polygon fill="#63b8ff" stroke="#63b8ff" points="241.45,-28.9 249.21,-21.69 238.65,-22.49 241.45,-28.9"/>
</a>
</g>
</g>
<!-- Node13 -->
<g id="Node000013" class="node">
<title>Node13</title>
<g id="a_Node000013"><a xlink:title=" ">
<polygon fill="#e0e0e0" stroke="#999999" points="71.5,-20.75 0,-20.75 0,0 71.5,0 71.5,-20.75"/>
<text text-anchor="middle" x="35.75" y="-7.25" font-family="Helvetica,sans-Serif" font-size="10.00">sys/types.h</text>
</a>
</g>
</g>
<!-- Node12&#45;&gt;Node13 -->
<g id="edge15_Node000012_Node000013" class="edge">
<title>Node12&#45;&gt;Node13</title>
<g id="a_edge15_Node000012_Node000013"><a xlink:title=" ">
<path fill="none" stroke="#63b8ff" d="M127.73,-56.34C110.53,-47.93 85.47,-35.68 65.85,-26.09"/>
<polygon fill="#63b8ff" stroke="#63b8ff" points="67.48,-22.99 56.96,-21.74 64.41,-29.28 67.48,-22.99"/>
</a>
</g>
</g>
<!-- Node14 -->
<g id="Node000014" class="node">
<title>Node14</title>
<g id="a_Node000014"><a xlink:href="modules_8h.html" target="_top" xlink:title="Common macros and compiler attributes/pragmas configuration.">
<polygon fill="white" stroke="#666666" points="156.25,-20.75 89.25,-20.75 89.25,0 156.25,0 156.25,-20.75"/>
<text text-anchor="middle" x="122.75" y="-7.25" font-family="Helvetica,sans-Serif" font-size="10.00">modules.h</text>
</a>
</g>
</g>
<!-- Node12&#45;&gt;Node14 -->
<g id="edge16_Node000012_Node000014" class="edge">
<title>Node12&#45;&gt;Node14</title>
<g id="a_edge16_Node000012_Node000014"><a xlink:title=" ">
<path fill="none" stroke="#63b8ff" d="M143.28,-56.34C140.12,-49.41 135.76,-39.87 131.88,-31.36"/>
<polygon fill="#63b8ff" stroke="#63b8ff" points="135.15,-30.1 127.81,-22.46 128.78,-33.01 135.15,-30.1"/>
</a>
</g>
</g>
</g>
</svg>
