<?xml version="1.0" encoding="UTF-8" standalone="no"?>
<!DOCTYPE svg PUBLIC "-//W3C//DTD SVG 1.1//EN"
 "http://www.w3.org/Graphics/SVG/1.1/DTD/svg11.dtd">
<!-- Generated by graphviz version 12.1.1 (0)
 -->
<!-- Title: sys/include/net/sixlowpan/nd.h Pages: 1 -->
<svg width="431pt" height="313pt"
 viewBox="0.00 0.00 430.98 312.50" xmlns="http://www.w3.org/2000/svg" xmlns:xlink="http://www.w3.org/1999/xlink">
<g id="graph0" class="graph" transform="scale(1 1) rotate(0) translate(4 308.5)">
<title>sys/include/net/sixlowpan/nd.h</title>
<!-- Node1 -->
<g id="Node000001" class="node">
<title>Node1</title>
<g id="a_Node000001"><a xlink:title="Message type and helper function definitions for 6LoWPAN&#45;ND.">
<polygon fill="#999999" stroke="#666666" points="237.98,-304.5 71.98,-304.5 71.98,-283.75 237.98,-283.75 237.98,-304.5"/>
<text text-anchor="middle" x="154.98" y="-291" font-family="Helvetica,sans-Serif" font-size="10.00">sys/include/net/sixlowpan/nd.h</text>
</a>
</g>
</g>
<!-- Node2 -->
<g id="Node000002" class="node">
<title>Node2</title>
<g id="a_Node000002"><a xlink:title=" ">
<polygon fill="#e0e0e0" stroke="#999999" points="189.36,-20.75 136.61,-20.75 136.61,0 189.36,0 189.36,-20.75"/>
<text text-anchor="middle" x="162.98" y="-7.25" font-family="Helvetica,sans-Serif" font-size="10.00">stdint.h</text>
</a>
</g>
</g>
<!-- Node1&#45;&gt;Node2 -->
<g id="edge1_Node000001_Node000002" class="edge">
<title>Node1&#45;&gt;Node2</title>
<g id="a_edge1_Node000001_Node000002"><a xlink:title=" ">
<path fill="none" stroke="#63b8ff" d="M238.31,-291.98C316.98,-285.94 422.98,-262.76 422.98,-181.62 422.98,-181.62 422.98,-181.62 422.98,-122.88 422.98,-27.5 273.38,-12.66 201.14,-11.06"/>
<polygon fill="#63b8ff" stroke="#63b8ff" points="201.39,-7.56 191.34,-10.92 201.29,-14.56 201.39,-7.56"/>
</a>
</g>
</g>
<!-- Node3 -->
<g id="Node000003" class="node">
<title>Node3</title>
<g id="a_Node000003"><a xlink:href="byteorder_8h.html" target="_top" xlink:title="Functions to work with different byte orders.">
<polygon fill="white" stroke="#666666" points="165.11,-134.25 92.86,-134.25 92.86,-113.5 165.11,-113.5 165.11,-134.25"/>
<text text-anchor="middle" x="128.98" y="-120.75" font-family="Helvetica,sans-Serif" font-size="10.00">byteorder.h</text>
</a>
</g>
</g>
<!-- Node1&#45;&gt;Node3 -->
<g id="edge2_Node000001_Node000003" class="edge">
<title>Node1&#45;&gt;Node3</title>
<g id="a_edge2_Node000001_Node000003"><a xlink:title=" ">
<path fill="none" stroke="#63b8ff" d="M150.81,-283.6C147.05,-274.56 141.7,-260.49 138.98,-247.75 131.49,-212.62 129.53,-170.74 129.06,-146.06"/>
<polygon fill="#63b8ff" stroke="#63b8ff" points="132.56,-146.03 128.95,-136.07 125.56,-146.11 132.56,-146.03"/>
</a>
</g>
</g>
<!-- Node7 -->
<g id="Node000007" class="node">
<title>Node7</title>
<g id="a_Node000007"><a xlink:href="eui64_8h.html" target="_top" xlink:title="EUI&#45;64 data type definition.">
<polygon fill="white" stroke="#666666" points="89.36,-191 18.61,-191 18.61,-170.25 89.36,-170.25 89.36,-191"/>
<text text-anchor="middle" x="53.98" y="-177.5" font-family="Helvetica,sans-Serif" font-size="10.00">net/eui64.h</text>
</a>
</g>
</g>
<!-- Node1&#45;&gt;Node7 -->
<g id="edge9_Node000001_Node000007" class="edge">
<title>Node1&#45;&gt;Node7</title>
<g id="a_edge9_Node000001_Node000007"><a xlink:title=" ">
<path fill="none" stroke="#63b8ff" d="M142.33,-283.37C131.35,-274.62 115.34,-261.13 102.98,-247.75 89.24,-232.86 75.68,-214.17 66.32,-200.46"/>
<polygon fill="#63b8ff" stroke="#63b8ff" points="69.37,-198.72 60.9,-192.35 63.55,-202.61 69.37,-198.72"/>
</a>
</g>
</g>
<!-- Node8 -->
<g id="Node000008" class="node">
<title>Node8</title>
<g id="a_Node000008"><a xlink:href="ipv6_2addr_8h.html" target="_top" xlink:title="Definitions for IPv6 addresses.">
<polygon fill="white" stroke="#666666" points="237.73,-247.75 148.23,-247.75 148.23,-227 237.73,-227 237.73,-247.75"/>
<text text-anchor="middle" x="192.98" y="-234.25" font-family="Helvetica,sans-Serif" font-size="10.00">net/ipv6/addr.h</text>
</a>
</g>
</g>
<!-- Node1&#45;&gt;Node8 -->
<g id="edge12_Node000001_Node000008" class="edge">
<title>Node1&#45;&gt;Node8</title>
<g id="a_edge12_Node000001_Node000008"><a xlink:title=" ">
<path fill="none" stroke="#63b8ff" d="M161.78,-283.34C166.75,-276.17 173.65,-266.23 179.7,-257.51"/>
<polygon fill="#63b8ff" stroke="#63b8ff" points="182.56,-259.53 185.39,-249.32 176.81,-255.54 182.56,-259.53"/>
</a>
</g>
</g>
<!-- Node3&#45;&gt;Node2 -->
<g id="edge4_Node000003_Node000002" class="edge">
<title>Node3&#45;&gt;Node2</title>
<g id="a_edge4_Node000003_Node000002"><a xlink:title=" ">
<path fill="none" stroke="#63b8ff" d="M144.76,-113.13C156.08,-105.13 170.45,-92.67 176.98,-77.5 183.37,-62.68 178.85,-44.71 173.31,-31.24"/>
<polygon fill="#63b8ff" stroke="#63b8ff" points="176.65,-30.12 169.26,-22.53 170.3,-33.07 176.65,-30.12"/>
</a>
</g>
</g>
<!-- Node4 -->
<g id="Node000004" class="node">
<title>Node4</title>
<g id="a_Node000004"><a xlink:title=" ">
<polygon fill="#e0e0e0" stroke="#999999" points="276.36,-77.5 223.61,-77.5 223.61,-56.75 276.36,-56.75 276.36,-77.5"/>
<text text-anchor="middle" x="249.98" y="-64" font-family="Helvetica,sans-Serif" font-size="10.00">string.h</text>
</a>
</g>
</g>
<!-- Node3&#45;&gt;Node4 -->
<g id="edge3_Node000003_Node000004" class="edge">
<title>Node3&#45;&gt;Node4</title>
<g id="a_edge3_Node000003_Node000004"><a xlink:title=" ">
<path fill="none" stroke="#63b8ff" d="M150.62,-113.09C169.46,-104.56 197.02,-92.09 218.34,-82.44"/>
<polygon fill="#63b8ff" stroke="#63b8ff" points="219.49,-85.76 227.16,-78.45 216.61,-79.39 219.49,-85.76"/>
</a>
</g>
</g>
<!-- Node5 -->
<g id="Node000005" class="node">
<title>Node5</title>
<g id="a_Node000005"><a xlink:href="endian_8h.html" target="_top" xlink:title="libc header for endian conversion">
<polygon fill="white" stroke="#666666" points="75.98,-77.5 17.98,-77.5 17.98,-56.75 75.98,-56.75 75.98,-77.5"/>
<text text-anchor="middle" x="46.98" y="-64" font-family="Helvetica,sans-Serif" font-size="10.00">endian.h</text>
</a>
</g>
</g>
<!-- Node3&#45;&gt;Node5 -->
<g id="edge5_Node000003_Node000005" class="edge">
<title>Node3&#45;&gt;Node5</title>
<g id="a_edge5_Node000003_Node000005"><a xlink:title=" ">
<path fill="none" stroke="#63b8ff" d="M114.32,-113.09C102.31,-105.07 85.07,-93.56 71.04,-84.19"/>
<polygon fill="#63b8ff" stroke="#63b8ff" points="73.04,-81.31 62.78,-78.67 69.15,-87.13 73.04,-81.31"/>
</a>
</g>
</g>
<!-- Node6 -->
<g id="Node000006" class="node">
<title>Node6</title>
<g id="a_Node000006"><a xlink:href="unaligned_8h.html" target="_top" xlink:title="Unaligned but safe memory access functions.">
<polygon fill="white" stroke="#666666" points="167.48,-77.5 94.48,-77.5 94.48,-56.75 167.48,-56.75 167.48,-77.5"/>
<text text-anchor="middle" x="130.98" y="-64" font-family="Helvetica,sans-Serif" font-size="10.00">unaligned.h</text>
</a>
</g>
</g>
<!-- Node3&#45;&gt;Node6 -->
<g id="edge7_Node000003_Node000006" class="edge">
<title>Node3&#45;&gt;Node6</title>
<g id="a_edge7_Node000003_Node000006"><a xlink:title=" ">
<path fill="none" stroke="#63b8ff" d="M129.34,-113.09C129.58,-106.47 129.91,-97.47 130.21,-89.27"/>
<polygon fill="#63b8ff" stroke="#63b8ff" points="133.71,-89.46 130.57,-79.34 126.71,-89.21 133.71,-89.46"/>
</a>
</g>
</g>
<!-- Node5&#45;&gt;Node2 -->
<g id="edge6_Node000005_Node000002" class="edge">
<title>Node5&#45;&gt;Node2</title>
<g id="a_edge6_Node000005_Node000002"><a xlink:title=" ">
<path fill="none" stroke="#63b8ff" d="M67.72,-56.34C85.62,-47.89 111.73,-35.57 132.09,-25.96"/>
<polygon fill="#63b8ff" stroke="#63b8ff" points="133.51,-29.16 141.06,-21.72 130.52,-22.83 133.51,-29.16"/>
</a>
</g>
</g>
<!-- Node6&#45;&gt;Node2 -->
<g id="edge8_Node000006_Node000002" class="edge">
<title>Node6&#45;&gt;Node2</title>
<g id="a_edge8_Node000006_Node000002"><a xlink:title=" ">
<path fill="none" stroke="#63b8ff" d="M136.7,-56.34C140.85,-49.25 146.58,-39.44 151.64,-30.79"/>
<polygon fill="#63b8ff" stroke="#63b8ff" points="154.52,-32.78 156.55,-22.39 148.48,-29.25 154.52,-32.78"/>
</a>
</g>
</g>
<!-- Node7&#45;&gt;Node2 -->
<g id="edge10_Node000007_Node000002" class="edge">
<title>Node7&#45;&gt;Node2</title>
<g id="a_edge10_Node000007_Node000002"><a xlink:title=" ">
<path fill="none" stroke="#63b8ff" d="M44.56,-169.78C24.54,-147.67 -18.23,-93.14 8.98,-56.75 22.92,-38.12 84.15,-24.5 125.08,-17.27"/>
<polygon fill="#63b8ff" stroke="#63b8ff" points="125.52,-20.74 134.79,-15.61 124.35,-13.84 125.52,-20.74"/>
</a>
</g>
</g>
<!-- Node7&#45;&gt;Node3 -->
<g id="edge11_Node000007_Node000003" class="edge">
<title>Node7&#45;&gt;Node3</title>
<g id="a_edge11_Node000007_Node000003"><a xlink:title=" ">
<path fill="none" stroke="#63b8ff" d="M67.39,-169.84C78.27,-161.9 93.84,-150.53 106.6,-141.21"/>
<polygon fill="#63b8ff" stroke="#63b8ff" points="108.46,-144.19 114.47,-135.47 104.33,-138.54 108.46,-144.19"/>
</a>
</g>
</g>
<!-- Node8&#45;&gt;Node3 -->
<g id="edge15_Node000008_Node000003" class="edge">
<title>Node8&#45;&gt;Node3</title>
<g id="a_edge15_Node000008_Node000003"><a xlink:title=" ">
<path fill="none" stroke="#63b8ff" d="M187.53,-226.87C177.09,-208.69 154.12,-168.67 140.26,-144.52"/>
<polygon fill="#63b8ff" stroke="#63b8ff" points="143.38,-142.92 135.36,-135.99 137.31,-146.4 143.38,-142.92"/>
</a>
</g>
</g>
<!-- Node8&#45;&gt;Node4 -->
<g id="edge14_Node000008_Node000004" class="edge">
<title>Node8&#45;&gt;Node4</title>
<g id="a_edge14_Node000008_Node000004"><a xlink:title=" ">
<path fill="none" stroke="#63b8ff" d="M192.89,-226.65C193.04,-205.22 195.34,-152.72 212.98,-113.5 217.48,-103.51 224.75,-93.88 231.66,-86.09"/>
<polygon fill="#63b8ff" stroke="#63b8ff" points="234.06,-88.64 238.38,-78.97 228.97,-83.84 234.06,-88.64"/>
</a>
</g>
</g>
<!-- Node9 -->
<g id="Node000009" class="node">
<title>Node9</title>
<g id="a_Node000009"><a xlink:title=" ">
<polygon fill="#e0e0e0" stroke="#999999" points="394.48,-134.25 333.48,-134.25 333.48,-113.5 394.48,-113.5 394.48,-134.25"/>
<text text-anchor="middle" x="363.98" y="-120.75" font-family="Helvetica,sans-Serif" font-size="10.00">stdbool.h</text>
</a>
</g>
</g>
<!-- Node8&#45;&gt;Node9 -->
<g id="edge13_Node000008_Node000009" class="edge">
<title>Node8&#45;&gt;Node9</title>
<g id="a_edge13_Node000008_Node000009"><a xlink:title=" ">
<path fill="none" stroke="#63b8ff" d="M238.17,-227.69C264.12,-220.98 296.19,-209.6 319.98,-191 335.74,-178.68 347.77,-159.1 355.23,-144.44"/>
<polygon fill="#63b8ff" stroke="#63b8ff" points="358.23,-146.28 359.38,-135.75 351.91,-143.26 358.23,-146.28"/>
</a>
</g>
</g>
<!-- Node10 -->
<g id="Node000010" class="node">
<title>Node10</title>
<g id="a_Node000010"><a xlink:href="ipv4_2addr_8h.html" target="_top" xlink:title="IPv4 address type and helper functions definitions.">
<polygon fill="white" stroke="#666666" points="310.73,-191 221.23,-191 221.23,-170.25 310.73,-170.25 310.73,-191"/>
<text text-anchor="middle" x="265.98" y="-177.5" font-family="Helvetica,sans-Serif" font-size="10.00">net/ipv4/addr.h</text>
</a>
</g>
</g>
<!-- Node8&#45;&gt;Node10 -->
<g id="edge16_Node000008_Node000010" class="edge">
<title>Node8&#45;&gt;Node10</title>
<g id="a_edge16_Node000008_Node000010"><a xlink:title=" ">
<path fill="none" stroke="#63b8ff" d="M206.03,-226.59C216.62,-218.65 231.78,-207.28 244.2,-197.96"/>
<polygon fill="#63b8ff" stroke="#63b8ff" points="245.94,-201.04 251.84,-192.24 241.74,-195.44 245.94,-201.04"/>
</a>
</g>
</g>
<!-- Node10&#45;&gt;Node2 -->
<g id="edge18_Node000010_Node000002" class="edge">
<title>Node10&#45;&gt;Node2</title>
<g id="a_edge18_Node000010_Node000002"><a xlink:title=" ">
<path fill="none" stroke="#63b8ff" d="M271.71,-169.95C284.05,-147.71 310.06,-92.16 284.98,-56.75 265.99,-29.92 229.19,-18.93 200.95,-14.44"/>
<polygon fill="#63b8ff" stroke="#63b8ff" points="201.72,-11.02 191.34,-13.14 200.78,-17.95 201.72,-11.02"/>
</a>
</g>
</g>
<!-- Node10&#45;&gt;Node3 -->
<g id="edge20_Node000010_Node000003" class="edge">
<title>Node10&#45;&gt;Node3</title>
<g id="a_edge20_Node000010_Node000003"><a xlink:title=" ">
<path fill="none" stroke="#63b8ff" d="M241.49,-169.84C219.87,-161.19 188.09,-148.5 163.82,-138.8"/>
<polygon fill="#63b8ff" stroke="#63b8ff" points="165.25,-135.6 154.67,-135.14 162.66,-142.1 165.25,-135.6"/>
</a>
</g>
</g>
<!-- Node10&#45;&gt;Node9 -->
<g id="edge17_Node000010_Node000009" class="edge">
<title>Node10&#45;&gt;Node9</title>
<g id="a_edge17_Node000010_Node000009"><a xlink:title=" ">
<path fill="none" stroke="#63b8ff" d="M283.5,-169.84C298.28,-161.58 319.67,-149.63 336.68,-140.13"/>
<polygon fill="#63b8ff" stroke="#63b8ff" points="338.27,-143.25 345.29,-135.32 334.86,-137.14 338.27,-143.25"/>
</a>
</g>
</g>
<!-- Node11 -->
<g id="Node000011" class="node">
<title>Node11</title>
<g id="a_Node000011"><a xlink:title=" ">
<polygon fill="#e0e0e0" stroke="#999999" points="276.48,-134.25 221.48,-134.25 221.48,-113.5 276.48,-113.5 276.48,-134.25"/>
<text text-anchor="middle" x="248.98" y="-120.75" font-family="Helvetica,sans-Serif" font-size="10.00">stddef.h</text>
</a>
</g>
</g>
<!-- Node10&#45;&gt;Node11 -->
<g id="edge19_Node000010_Node000011" class="edge">
<title>Node10&#45;&gt;Node11</title>
<g id="a_edge19_Node000010_Node000011"><a xlink:title=" ">
<path fill="none" stroke="#63b8ff" d="M262.94,-169.84C260.84,-163.06 257.96,-153.8 255.37,-145.44"/>
<polygon fill="#63b8ff" stroke="#63b8ff" points="258.75,-144.54 252.45,-136.02 252.07,-146.61 258.75,-144.54"/>
</a>
</g>
</g>
</g>
</svg>
