<?xml version="1.0" encoding="UTF-8" standalone="no"?>
<!DOCTYPE svg PUBLIC "-//W3C//DTD SVG 1.1//EN"
 "http://www.w3.org/Graphics/SVG/1.1/DTD/svg11.dtd">
<!-- Generated by graphviz version 12.1.1 (0)
 -->
<!-- Title: sys/include/net/skald.h Pages: 1 -->
<svg width="264pt" height="98pt"
 viewBox="0.00 0.00 263.75 98.25" xmlns="http://www.w3.org/2000/svg" xmlns:xlink="http://www.w3.org/1999/xlink">
<g id="graph0" class="graph" transform="scale(1 1) rotate(0) translate(4 94.25)">
<title>sys/include/net/skald.h</title>
<!-- Node1 -->
<g id="Node000001" class="node">
<title>Node1</title>
<g id="a_Node000001"><a xlink:title="Skald&#39;s basic interface.">
<polygon fill="#999999" stroke="#666666" points="191.25,-90.25 63.5,-90.25 63.5,-69.5 191.25,-69.5 191.25,-90.25"/>
<text text-anchor="middle" x="127.38" y="-76.75" font-family="Helvetica,sans-Serif" font-size="10.00">sys/include/net/skald.h</text>
</a>
</g>
</g>
<!-- Node2 -->
<g id="Node000002" class="node">
<title>Node2</title>
<g id="a_Node000002"><a xlink:href="skald_2eddystone_8h.html" target="_top" xlink:title="Skald&#39;s basic interface.">
<polygon fill="white" stroke="#666666" points="118.75,-33.5 0,-33.5 0,0 118.75,0 118.75,-33.5"/>
<text text-anchor="start" x="8" y="-20" font-family="Helvetica,sans-Serif" font-size="10.00">sys/include/net/skald</text>
<text text-anchor="middle" x="59.38" y="-7.25" font-family="Helvetica,sans-Serif" font-size="10.00">/eddystone.h</text>
</a>
</g>
</g>
<!-- Node1&#45;&gt;Node2 -->
<g id="edge1_Node000001_Node000002" class="edge">
<title>Node1&#45;&gt;Node2</title>
<g id="a_edge1_Node000001_Node000002"><a xlink:title=" ">
<path fill="none" stroke="#63b8ff" d="M107.96,-61.43C98.36,-52.8 86.85,-42.44 77.44,-33.98"/>
<polygon fill="#63b8ff" stroke="#63b8ff" points="105.55,-63.96 115.32,-68.04 110.23,-58.75 105.55,-63.96"/>
</a>
</g>
</g>
<!-- Node3 -->
<g id="Node000003" class="node">
<title>Node3</title>
<g id="a_Node000003"><a xlink:href="ibeacon_8h.html" target="_top" xlink:title="Skald&#39;s basic interface.">
<polygon fill="white" stroke="#666666" points="255.75,-33.5 137,-33.5 137,0 255.75,0 255.75,-33.5"/>
<text text-anchor="start" x="145" y="-20" font-family="Helvetica,sans-Serif" font-size="10.00">sys/include/net/skald</text>
<text text-anchor="middle" x="196.38" y="-7.25" font-family="Helvetica,sans-Serif" font-size="10.00">/ibeacon.h</text>
</a>
</g>
</g>
<!-- Node1&#45;&gt;Node3 -->
<g id="edge2_Node000001_Node000003" class="edge">
<title>Node1&#45;&gt;Node3</title>
<g id="a_edge2_Node000001_Node000003"><a xlink:title=" ">
<path fill="none" stroke="#63b8ff" d="M147.07,-61.43C156.81,-52.8 168.5,-42.44 178.05,-33.98"/>
<polygon fill="#63b8ff" stroke="#63b8ff" points="144.76,-58.8 139.59,-68.05 149.4,-64.04 144.76,-58.8"/>
</a>
</g>
</g>
</g>
</svg>
