<?xml version="1.0" encoding="UTF-8" standalone="no"?>
<!DOCTYPE svg PUBLIC "-//W3C//DTD SVG 1.1//EN"
 "http://www.w3.org/Graphics/SVG/1.1/DTD/svg11.dtd">
<!-- Generated by graphviz version 12.1.1 (0)
 -->
<!-- Title: drivers/sm_pwm_01c/include/sm_pwm_01c_params.h Pages: 1 -->
<svg width="1324pt" height="679pt"
 viewBox="0.00 0.00 1324.45 678.50" xmlns="http://www.w3.org/2000/svg" xmlns:xlink="http://www.w3.org/1999/xlink">
<g id="graph0" class="graph" transform="scale(1 1) rotate(0) translate(4 674.5)">
<title>drivers/sm_pwm_01c/include/sm_pwm_01c_params.h</title>
<!-- Node1 -->
<g id="Node000001" class="node">
<title>Node1</title>
<g id="a_Node000001"><a xlink:title="Default configuration for SM_PWM_01C driver.">
<polygon fill="#999999" stroke="#666666" points="274.38,-670.5 150.38,-670.5 150.38,-624.25 274.38,-624.25 274.38,-670.5"/>
<text text-anchor="start" x="158.38" y="-657" font-family="Helvetica,sans-Serif" font-size="10.00">drivers/sm_pwm_01c</text>
<text text-anchor="start" x="158.38" y="-644.25" font-family="Helvetica,sans-Serif" font-size="10.00">/include/sm_pwm_01c</text>
<text text-anchor="middle" x="212.38" y="-631.5" font-family="Helvetica,sans-Serif" font-size="10.00">_params.h</text>
</a>
</g>
</g>
<!-- Node2 -->
<g id="Node000002" class="node">
<title>Node2</title>
<g id="a_Node000002"><a xlink:title=" ">
<polygon fill="#e0e0e0" stroke="#999999" points="148.75,-588.25 96,-588.25 96,-567.5 148.75,-567.5 148.75,-588.25"/>
<text text-anchor="middle" x="122.38" y="-574.75" font-family="Helvetica,sans-Serif" font-size="10.00">board.h</text>
</a>
</g>
</g>
<!-- Node1&#45;&gt;Node2 -->
<g id="edge1_Node000001_Node000002" class="edge">
<title>Node1&#45;&gt;Node2</title>
<g id="a_edge1_Node000001_Node000002"><a xlink:title=" ">
<path fill="none" stroke="#63b8ff" d="M182.41,-623.9C169.94,-614.55 155.74,-603.9 144.28,-595.3"/>
<polygon fill="#63b8ff" stroke="#63b8ff" points="146.71,-592.75 136.61,-589.55 142.51,-598.35 146.71,-592.75"/>
</a>
</g>
</g>
<!-- Node3 -->
<g id="Node000003" class="node">
<title>Node3</title>
<g id="a_Node000003"><a xlink:href="saul__reg_8h.html" target="_top" xlink:title="SAUL registry interface definition.">
<polygon fill="white" stroke="#666666" points="1239.5,-191 1173.25,-191 1173.25,-170.25 1239.5,-170.25 1239.5,-191"/>
<text text-anchor="middle" x="1206.38" y="-177.5" font-family="Helvetica,sans-Serif" font-size="10.00">saul_reg.h</text>
</a>
</g>
</g>
<!-- Node1&#45;&gt;Node3 -->
<g id="edge2_Node000001_Node000003" class="edge">
<title>Node1&#45;&gt;Node3</title>
<g id="a_edge2_Node000001_Node000003"><a xlink:title=" ">
<path fill="none" stroke="#63b8ff" d="M274.84,-644.96C489.13,-639.29 1181.38,-613.87 1181.38,-522.12 1181.38,-522.12 1181.38,-522.12 1181.38,-293.12 1181.38,-260.65 1191.6,-224.12 1198.97,-202"/>
<polygon fill="#63b8ff" stroke="#63b8ff" points="1202.21,-203.33 1202.19,-192.73 1195.6,-201.03 1202.21,-203.33"/>
</a>
</g>
</g>
<!-- Node10 -->
<g id="Node000010" class="node">
<title>Node10</title>
<g id="a_Node000010"><a xlink:href="sm__pwm__01c_8h.html" target="_top" xlink:title="SM_PWM_01C Device Driver.">
<polygon fill="white" stroke="#666666" points="258.25,-588.25 166.5,-588.25 166.5,-567.5 258.25,-567.5 258.25,-588.25"/>
<text text-anchor="middle" x="212.38" y="-574.75" font-family="Helvetica,sans-Serif" font-size="10.00">sm_pwm_01c.h</text>
</a>
</g>
</g>
<!-- Node1&#45;&gt;Node10 -->
<g id="edge10_Node000001_Node000010" class="edge">
<title>Node1&#45;&gt;Node10</title>
<g id="a_edge10_Node000001_Node000010"><a xlink:title=" ">
<path fill="none" stroke="#63b8ff" d="M212.38,-623.9C212.38,-616.23 212.38,-607.69 212.38,-600.13"/>
<polygon fill="#63b8ff" stroke="#63b8ff" points="215.88,-600.15 212.38,-590.15 208.88,-600.15 215.88,-600.15"/>
</a>
</g>
</g>
<!-- Node4 -->
<g id="Node000004" class="node">
<title>Node4</title>
<g id="a_Node000004"><a xlink:title=" ">
<polygon fill="#e0e0e0" stroke="#999999" points="625.75,-20.75 573,-20.75 573,0 625.75,0 625.75,-20.75"/>
<text text-anchor="middle" x="599.38" y="-7.25" font-family="Helvetica,sans-Serif" font-size="10.00">stdint.h</text>
</a>
</g>
</g>
<!-- Node3&#45;&gt;Node4 -->
<g id="edge3_Node000003_Node000004" class="edge">
<title>Node3&#45;&gt;Node4</title>
<g id="a_edge3_Node000003_Node000004"><a xlink:title=" ">
<path fill="none" stroke="#63b8ff" d="M1224.9,-169.84C1263.03,-148.52 1343.72,-96.57 1306.38,-56.75 1283.31,-32.15 780.79,-16.4 637.31,-12.39"/>
<polygon fill="#63b8ff" stroke="#63b8ff" points="637.69,-8.9 627.59,-12.12 637.49,-15.89 637.69,-8.9"/>
</a>
</g>
</g>
<!-- Node5 -->
<g id="Node000005" class="node">
<title>Node5</title>
<g id="a_Node000005"><a xlink:title=" ">
<polygon fill="#e0e0e0" stroke="#999999" points="1183,-134.25 1137.75,-134.25 1137.75,-113.5 1183,-113.5 1183,-134.25"/>
<text text-anchor="middle" x="1160.38" y="-120.75" font-family="Helvetica,sans-Serif" font-size="10.00">saul.h</text>
</a>
</g>
</g>
<!-- Node3&#45;&gt;Node5 -->
<g id="edge4_Node000003_Node000005" class="edge">
<title>Node3&#45;&gt;Node5</title>
<g id="a_edge4_Node000003_Node000005"><a xlink:title=" ">
<path fill="none" stroke="#63b8ff" d="M1198.15,-169.84C1191.94,-162.44 1183.23,-152.07 1175.74,-143.16"/>
<polygon fill="#63b8ff" stroke="#63b8ff" points="1178.61,-141.14 1169.5,-135.74 1173.25,-145.65 1178.61,-141.14"/>
</a>
</g>
</g>
<!-- Node6 -->
<g id="Node000006" class="node">
<title>Node6</title>
<g id="a_Node000006"><a xlink:href="phydat_8h.html" target="_top" xlink:title="Generic data container for physical data interface.">
<polygon fill="white" stroke="#666666" points="1259.75,-134.25 1201,-134.25 1201,-113.5 1259.75,-113.5 1259.75,-134.25"/>
<text text-anchor="middle" x="1230.38" y="-120.75" font-family="Helvetica,sans-Serif" font-size="10.00">phydat.h</text>
</a>
</g>
</g>
<!-- Node3&#45;&gt;Node6 -->
<g id="edge5_Node000003_Node000006" class="edge">
<title>Node3&#45;&gt;Node6</title>
<g id="a_edge5_Node000003_Node000006"><a xlink:title=" ">
<path fill="none" stroke="#63b8ff" d="M1210.67,-169.84C1213.7,-162.91 1217.88,-153.37 1221.61,-144.86"/>
<polygon fill="#63b8ff" stroke="#63b8ff" points="1224.7,-146.53 1225.51,-135.96 1218.29,-143.72 1224.7,-146.53"/>
</a>
</g>
</g>
<!-- Node6&#45;&gt;Node4 -->
<g id="edge7_Node000006_Node000004" class="edge">
<title>Node6&#45;&gt;Node4</title>
<g id="a_edge7_Node000006_Node000004"><a xlink:title=" ">
<path fill="none" stroke="#63b8ff" d="M1249.88,-113.11C1273.45,-100.09 1307.78,-76.4 1289.38,-56.75 1244.63,-8.96 775.13,-9.67 637.25,-10.92"/>
<polygon fill="#63b8ff" stroke="#63b8ff" points="637.53,-7.42 627.57,-11.02 637.6,-14.42 637.53,-7.42"/>
</a>
</g>
</g>
<!-- Node7 -->
<g id="Node000007" class="node">
<title>Node7</title>
<g id="a_Node000007"><a xlink:title=" ">
<polygon fill="#e0e0e0" stroke="#999999" points="970.88,-77.5 915.88,-77.5 915.88,-56.75 970.88,-56.75 970.88,-77.5"/>
<text text-anchor="middle" x="943.38" y="-64" font-family="Helvetica,sans-Serif" font-size="10.00">stddef.h</text>
</a>
</g>
</g>
<!-- Node6&#45;&gt;Node7 -->
<g id="edge6_Node000006_Node000007" class="edge">
<title>Node6&#45;&gt;Node7</title>
<g id="a_edge6_Node000006_Node000007"><a xlink:title=" ">
<path fill="none" stroke="#63b8ff" d="M1200.54,-115.33C1197.79,-114.69 1195.03,-114.07 1192.38,-113.5 1118.39,-97.65 1031.28,-82.59 982.17,-74.43"/>
<polygon fill="#63b8ff" stroke="#63b8ff" points="983.05,-71.03 972.61,-72.85 981.91,-77.94 983.05,-71.03"/>
</a>
</g>
</g>
<!-- Node8 -->
<g id="Node000008" class="node">
<title>Node8</title>
<g id="a_Node000008"><a xlink:title=" ">
<polygon fill="#e0e0e0" stroke="#999999" points="1280.12,-77.5 1208.62,-77.5 1208.62,-56.75 1280.12,-56.75 1280.12,-77.5"/>
<text text-anchor="middle" x="1244.38" y="-64" font-family="Helvetica,sans-Serif" font-size="10.00">sys/types.h</text>
</a>
</g>
</g>
<!-- Node6&#45;&gt;Node8 -->
<g id="edge8_Node000006_Node000008" class="edge">
<title>Node6&#45;&gt;Node8</title>
<g id="a_edge8_Node000006_Node000008"><a xlink:title=" ">
<path fill="none" stroke="#63b8ff" d="M1232.88,-113.09C1234.59,-106.39 1236.92,-97.26 1239.04,-88.98"/>
<polygon fill="#63b8ff" stroke="#63b8ff" points="1242.43,-89.85 1241.52,-79.29 1235.65,-88.12 1242.43,-89.85"/>
</a>
</g>
</g>
<!-- Node9 -->
<g id="Node000009" class="node">
<title>Node9</title>
<g id="a_Node000009"><a xlink:href="modules_8h.html" target="_top" xlink:title="Common macros and compiler attributes/pragmas configuration.">
<polygon fill="white" stroke="#666666" points="1190.88,-77.5 1123.88,-77.5 1123.88,-56.75 1190.88,-56.75 1190.88,-77.5"/>
<text text-anchor="middle" x="1157.38" y="-64" font-family="Helvetica,sans-Serif" font-size="10.00">modules.h</text>
</a>
</g>
</g>
<!-- Node6&#45;&gt;Node9 -->
<g id="edge9_Node000006_Node000009" class="edge">
<title>Node6&#45;&gt;Node9</title>
<g id="a_edge9_Node000006_Node000009"><a xlink:title=" ">
<path fill="none" stroke="#63b8ff" d="M1217.32,-113.09C1206.74,-105.15 1191.58,-93.78 1179.16,-84.46"/>
<polygon fill="#63b8ff" stroke="#63b8ff" points="1181.62,-81.94 1171.52,-78.74 1177.42,-87.54 1181.62,-81.94"/>
</a>
</g>
</g>
<!-- Node11 -->
<g id="Node000011" class="node">
<title>Node11</title>
<g id="a_Node000011"><a xlink:href="inttypes_8h.html" target="_top" xlink:title="Adds include for missing inttype definitions.">
<polygon fill="white" stroke="#666666" points="207.75,-191 143,-191 143,-170.25 207.75,-170.25 207.75,-191"/>
<text text-anchor="middle" x="175.38" y="-177.5" font-family="Helvetica,sans-Serif" font-size="10.00">inttypes.h</text>
</a>
</g>
</g>
<!-- Node10&#45;&gt;Node11 -->
<g id="edge11_Node000010_Node000011" class="edge">
<title>Node10&#45;&gt;Node11</title>
<g id="a_edge11_Node000010_Node000011"><a xlink:title=" ">
<path fill="none" stroke="#63b8ff" d="M187.3,-567.09C151.86,-551.41 91.38,-517.08 91.38,-465.38 91.38,-465.38 91.38,-465.38 91.38,-349.88 91.38,-289.78 134.81,-229.11 159.21,-199.77"/>
<polygon fill="#63b8ff" stroke="#63b8ff" points="161.56,-202.41 165.4,-192.54 156.24,-197.86 161.56,-202.41"/>
</a>
</g>
</g>
<!-- Node12 -->
<g id="Node000012" class="node">
<title>Node12</title>
<g id="a_Node000012"><a xlink:href="timex_8h.html" target="_top" xlink:title="Utility library for comparing and computing timestamps.">
<polygon fill="white" stroke="#666666" points="65.12,-247.75 11.62,-247.75 11.62,-227 65.12,-227 65.12,-247.75"/>
<text text-anchor="middle" x="38.38" y="-234.25" font-family="Helvetica,sans-Serif" font-size="10.00">timex.h</text>
</a>
</g>
</g>
<!-- Node10&#45;&gt;Node12 -->
<g id="edge12_Node000010_Node000012" class="edge">
<title>Node10&#45;&gt;Node12</title>
<g id="a_edge12_Node000010_Node000012"><a xlink:title=" ">
<path fill="none" stroke="#63b8ff" d="M170.68,-567.04C136.26,-558.18 90.95,-544.58 77.38,-531.5 54.75,-509.7 52.38,-496.79 52.38,-465.38 52.38,-465.38 52.38,-465.38 52.38,-349.88 52.38,-318.09 46.7,-281.6 42.58,-259.27"/>
<polygon fill="#63b8ff" stroke="#63b8ff" points="46.06,-258.81 40.73,-249.65 39.18,-260.14 46.06,-258.81"/>
</a>
</g>
</g>
<!-- Node14 -->
<g id="Node000014" class="node">
<title>Node14</title>
<g id="a_Node000014"><a xlink:href="ztimer_8h.html" target="_top" xlink:title="ztimer API">
<polygon fill="white" stroke="#666666" points="954.62,-531.5 898.12,-531.5 898.12,-510.75 954.62,-510.75 954.62,-531.5"/>
<text text-anchor="middle" x="926.38" y="-518" font-family="Helvetica,sans-Serif" font-size="10.00">ztimer.h</text>
</a>
</g>
</g>
<!-- Node10&#45;&gt;Node14 -->
<g id="edge16_Node000010_Node000014" class="edge">
<title>Node10&#45;&gt;Node14</title>
<g id="a_edge16_Node000010_Node000014"><a xlink:title=" ">
<path fill="none" stroke="#63b8ff" d="M258.67,-573.32C389.96,-563.26 763.11,-534.64 886.34,-525.2"/>
<polygon fill="#63b8ff" stroke="#63b8ff" points="886.59,-528.69 896.29,-524.43 886.05,-521.71 886.59,-528.69"/>
</a>
</g>
</g>
<!-- Node37 -->
<g id="Node000037" class="node">
<title>Node37</title>
<g id="a_Node000037"><a xlink:href="drivers_2include_2periph_2gpio_8h.html" target="_top" xlink:title="Low&#45;level GPIO peripheral driver interface definitions.">
<polygon fill="white" stroke="#666666" points="252.25,-531.5 172.5,-531.5 172.5,-510.75 252.25,-510.75 252.25,-531.5"/>
<text text-anchor="middle" x="212.38" y="-518" font-family="Helvetica,sans-Serif" font-size="10.00">periph/gpio.h</text>
</a>
</g>
</g>
<!-- Node10&#45;&gt;Node37 -->
<g id="edge66_Node000010_Node000037" class="edge">
<title>Node10&#45;&gt;Node37</title>
<g id="a_edge66_Node000010_Node000037"><a xlink:title=" ">
<path fill="none" stroke="#63b8ff" d="M212.38,-567.09C212.38,-560.47 212.38,-551.47 212.38,-543.27"/>
<polygon fill="#63b8ff" stroke="#63b8ff" points="215.88,-543.34 212.38,-533.34 208.88,-543.34 215.88,-543.34"/>
</a>
</g>
</g>
<!-- Node12&#45;&gt;Node4 -->
<g id="edge13_Node000012_Node000004" class="edge">
<title>Node12&#45;&gt;Node4</title>
<g id="a_edge13_Node000012_Node000004"><a xlink:title=" ">
<path fill="none" stroke="#63b8ff" d="M48.47,-226.65C58,-217.47 72.67,-203.31 85.38,-191 146.82,-131.45 146.17,-93.65 223.38,-56.75 282.53,-28.47 477.73,-16.72 561.09,-12.9"/>
<polygon fill="#63b8ff" stroke="#63b8ff" points="561.2,-16.4 571.03,-12.46 560.89,-9.41 561.2,-16.4"/>
</a>
</g>
</g>
<!-- Node12&#45;&gt;Node11 -->
<g id="edge14_Node000012_Node000011" class="edge">
<title>Node12&#45;&gt;Node11</title>
<g id="a_edge14_Node000012_Node000011"><a xlink:title=" ">
<path fill="none" stroke="#63b8ff" d="M62.87,-226.59C84.49,-217.94 116.26,-205.25 140.53,-195.55"/>
<polygon fill="#63b8ff" stroke="#63b8ff" points="141.7,-198.85 149.69,-191.89 139.1,-192.35 141.7,-198.85"/>
</a>
</g>
</g>
<!-- Node13 -->
<g id="Node000013" class="node">
<title>Node13</title>
<g id="a_Node000013"><a xlink:href="time__units_8h.html" target="_top" xlink:title="Utility header providing time unit defines.">
<polygon fill="white" stroke="#666666" points="76.75,-191 0,-191 0,-170.25 76.75,-170.25 76.75,-191"/>
<text text-anchor="middle" x="38.38" y="-177.5" font-family="Helvetica,sans-Serif" font-size="10.00">time_units.h</text>
</a>
</g>
</g>
<!-- Node12&#45;&gt;Node13 -->
<g id="edge15_Node000012_Node000013" class="edge">
<title>Node12&#45;&gt;Node13</title>
<g id="a_edge15_Node000012_Node000013"><a xlink:title=" ">
<path fill="none" stroke="#63b8ff" d="M38.38,-226.59C38.38,-219.97 38.38,-210.97 38.38,-202.77"/>
<polygon fill="#63b8ff" stroke="#63b8ff" points="41.88,-202.84 38.38,-192.84 34.88,-202.84 41.88,-202.84"/>
</a>
</g>
</g>
<!-- Node14&#45;&gt;Node4 -->
<g id="edge17_Node000014_Node000004" class="edge">
<title>Node14&#45;&gt;Node4</title>
<g id="a_edge17_Node000014_Node000004"><a xlink:title=" ">
<path fill="none" stroke="#63b8ff" d="M932.24,-510.6C940.69,-497.24 957.18,-472.5 974.38,-454 1022.28,-402.45 1095.38,-422.25 1095.38,-351.88 1095.38,-351.88 1095.38,-351.88 1095.38,-122.88 1095.38,-77.77 1059.77,-74.68 1018.38,-56.75 950.34,-27.29 727.46,-16.04 637.52,-12.63"/>
<polygon fill="#63b8ff" stroke="#63b8ff" points="637.87,-9.14 627.74,-12.27 637.61,-16.13 637.87,-9.14"/>
</a>
</g>
</g>
<!-- Node15 -->
<g id="Node000015" class="node">
<title>Node15</title>
<g id="a_Node000015"><a xlink:href="sched_8h.html" target="_top" xlink:title="Scheduler API definition.">
<polygon fill="white" stroke="#666666" points="897.12,-247.75 843.62,-247.75 843.62,-227 897.12,-227 897.12,-247.75"/>
<text text-anchor="middle" x="870.38" y="-234.25" font-family="Helvetica,sans-Serif" font-size="10.00">sched.h</text>
</a>
</g>
</g>
<!-- Node14&#45;&gt;Node15 -->
<g id="edge18_Node000014_Node000015" class="edge">
<title>Node14&#45;&gt;Node15</title>
<g id="a_edge18_Node000014_Node000015"><a xlink:title=" ">
<path fill="none" stroke="#63b8ff" d="M954.9,-517.35C981.53,-513.08 1019.85,-502.24 1038.38,-474.75 1043.53,-467.1 1041.37,-462.72 1038.38,-454 1008.66,-367.53 928.51,-289.08 890.68,-255.56"/>
<polygon fill="#63b8ff" stroke="#63b8ff" points="893.01,-252.95 883.17,-249.02 888.41,-258.22 893.01,-252.95"/>
</a>
</g>
</g>
<!-- Node25 -->
<g id="Node000025" class="node">
<title>Node25</title>
<g id="a_Node000025"><a xlink:title=" ">
<polygon fill="#e0e0e0" stroke="#999999" points="1029.38,-474.75 983.38,-474.75 983.38,-454 1029.38,-454 1029.38,-474.75"/>
<text text-anchor="middle" x="1006.38" y="-461.25" font-family="Helvetica,sans-Serif" font-size="10.00">msg.h</text>
</a>
</g>
</g>
<!-- Node14&#45;&gt;Node25 -->
<g id="edge37_Node000014_Node000025" class="edge">
<title>Node14&#45;&gt;Node25</title>
<g id="a_edge37_Node000014_Node000025"><a xlink:title=" ">
<path fill="none" stroke="#63b8ff" d="M940.68,-510.34C952.39,-502.32 969.21,-490.81 982.9,-481.44"/>
<polygon fill="#63b8ff" stroke="#63b8ff" points="984.67,-484.47 990.95,-475.93 980.72,-478.69 984.67,-484.47"/>
</a>
</g>
</g>
<!-- Node26 -->
<g id="Node000026" class="node">
<title>Node26</title>
<g id="a_Node000026"><a xlink:href="mutex_8h.html" target="_top" xlink:title="Mutex for thread synchronization.">
<polygon fill="white" stroke="#666666" points="583.62,-418 527.12,-418 527.12,-397.25 583.62,-397.25 583.62,-418"/>
<text text-anchor="middle" x="555.38" y="-404.5" font-family="Helvetica,sans-Serif" font-size="10.00">mutex.h</text>
</a>
</g>
</g>
<!-- Node14&#45;&gt;Node26 -->
<g id="edge38_Node000014_Node000026" class="edge">
<title>Node14&#45;&gt;Node26</title>
<g id="a_edge38_Node000014_Node000026"><a xlink:title=" ">
<path fill="none" stroke="#63b8ff" d="M897.88,-511.56C832.19,-491.82 670.03,-443.08 594.84,-420.48"/>
<polygon fill="#63b8ff" stroke="#63b8ff" points="596,-417.18 585.42,-417.65 593.99,-423.88 596,-417.18"/>
</a>
</g>
</g>
<!-- Node36 -->
<g id="Node000036" class="node">
<title>Node36</title>
<g id="a_Node000036"><a xlink:href="rmutex_8h.html" target="_top" xlink:title="Recursive Mutex for thread synchronization.">
<polygon fill="white" stroke="#666666" points="927.5,-474.75 867.25,-474.75 867.25,-454 927.5,-454 927.5,-474.75"/>
<text text-anchor="middle" x="897.38" y="-461.25" font-family="Helvetica,sans-Serif" font-size="10.00">rmutex.h</text>
</a>
</g>
</g>
<!-- Node14&#45;&gt;Node36 -->
<g id="edge62_Node000014_Node000036" class="edge">
<title>Node14&#45;&gt;Node36</title>
<g id="a_edge62_Node000014_Node000036"><a xlink:title=" ">
<path fill="none" stroke="#63b8ff" d="M921.19,-510.34C917.48,-503.33 912.36,-493.66 907.81,-485.08"/>
<polygon fill="#63b8ff" stroke="#63b8ff" points="911,-483.61 903.22,-476.42 904.81,-486.89 911,-483.61"/>
</a>
</g>
</g>
<!-- Node15&#45;&gt;Node7 -->
<g id="edge19_Node000015_Node000007" class="edge">
<title>Node15&#45;&gt;Node7</title>
<g id="a_edge19_Node000015_Node000007"><a xlink:title=" ">
<path fill="none" stroke="#63b8ff" d="M886.68,-226.56C898.53,-218.52 913.93,-206.05 922.38,-191 940.49,-158.71 943.77,-114.69 943.96,-89.05"/>
<polygon fill="#63b8ff" stroke="#63b8ff" points="947.46,-89.25 943.86,-79.29 940.46,-89.32 947.46,-89.25"/>
</a>
</g>
</g>
<!-- Node15&#45;&gt;Node11 -->
<g id="edge20_Node000015_Node000011" class="edge">
<title>Node15&#45;&gt;Node11</title>
<g id="a_edge20_Node000015_Node000011"><a xlink:title=" ">
<path fill="none" stroke="#63b8ff" d="M843.36,-228.77C840.35,-228.09 837.31,-227.48 834.38,-227 715.29,-207.57 346.71,-189.42 219.26,-183.58"/>
<polygon fill="#63b8ff" stroke="#63b8ff" points="219.71,-180.1 209.56,-183.14 219.39,-187.09 219.71,-180.1"/>
</a>
</g>
</g>
<!-- Node16 -->
<g id="Node000016" class="node">
<title>Node16</title>
<g id="a_Node000016"><a xlink:href="kernel__defines_8h.html" target="_top" xlink:title="Common macros and compiler attributes/pragmas configuration.">
<polygon fill="white" stroke="#666666" points="587.5,-191 491.25,-191 491.25,-170.25 587.5,-170.25 587.5,-191"/>
<text text-anchor="middle" x="539.38" y="-177.5" font-family="Helvetica,sans-Serif" font-size="10.00">kernel_defines.h</text>
</a>
</g>
</g>
<!-- Node15&#45;&gt;Node16 -->
<g id="edge21_Node000015_Node000016" class="edge">
<title>Node15&#45;&gt;Node16</title>
<g id="a_edge21_Node000015_Node000016"><a xlink:title=" ">
<path fill="none" stroke="#63b8ff" d="M843.32,-229.01C840.31,-228.29 837.28,-227.6 834.38,-227 753.45,-210.28 658.87,-196.79 599.05,-188.98"/>
<polygon fill="#63b8ff" stroke="#63b8ff" points="599.8,-185.55 589.44,-187.74 598.9,-192.49 599.8,-185.55"/>
</a>
</g>
</g>
<!-- Node21 -->
<g id="Node000021" class="node">
<title>Node21</title>
<g id="a_Node000021"><a xlink:href="native__sched_8h.html" target="_top" xlink:title="Add definitions required on the native board.">
<polygon fill="white" stroke="#666666" points="850.12,-191 760.62,-191 760.62,-170.25 850.12,-170.25 850.12,-191"/>
<text text-anchor="middle" x="805.38" y="-177.5" font-family="Helvetica,sans-Serif" font-size="10.00">native_sched.h</text>
</a>
</g>
</g>
<!-- Node15&#45;&gt;Node21 -->
<g id="edge32_Node000015_Node000021" class="edge">
<title>Node15&#45;&gt;Node21</title>
<g id="a_edge32_Node000015_Node000021"><a xlink:title=" ">
<path fill="none" stroke="#63b8ff" d="M858.75,-226.59C849.51,-218.8 836.36,-207.72 825.43,-198.51"/>
<polygon fill="#63b8ff" stroke="#63b8ff" points="827.96,-196.07 818.05,-192.3 823.45,-201.42 827.96,-196.07"/>
</a>
</g>
</g>
<!-- Node22 -->
<g id="Node000022" class="node">
<title>Node22</title>
<g id="a_Node000022"><a xlink:href="clist_8h.html" target="_top" xlink:title="Circular linked list.">
<polygon fill="white" stroke="#666666" points="913,-191 867.75,-191 867.75,-170.25 913,-170.25 913,-191"/>
<text text-anchor="middle" x="890.38" y="-177.5" font-family="Helvetica,sans-Serif" font-size="10.00">clist.h</text>
</a>
</g>
</g>
<!-- Node15&#45;&gt;Node22 -->
<g id="edge33_Node000015_Node000022" class="edge">
<title>Node15&#45;&gt;Node22</title>
<g id="a_edge33_Node000015_Node000022"><a xlink:title=" ">
<path fill="none" stroke="#63b8ff" d="M873.95,-226.59C876.45,-219.74 879.89,-210.34 882.97,-201.9"/>
<polygon fill="#63b8ff" stroke="#63b8ff" points="886.17,-203.34 886.31,-192.75 879.59,-200.94 886.17,-203.34"/>
</a>
</g>
</g>
<!-- Node16&#45;&gt;Node9 -->
<g id="edge22_Node000016_Node000009" class="edge">
<title>Node16&#45;&gt;Node9</title>
<g id="a_edge22_Node000016_Node000009"><a xlink:title=" ">
<path fill="none" stroke="#63b8ff" d="M567.98,-169.81C616.55,-153.27 713.28,-120.92 748.38,-113.5 878.75,-85.92 1036.26,-74.44 1112.16,-70.24"/>
<polygon fill="#63b8ff" stroke="#63b8ff" points="1112.31,-73.74 1122.11,-69.71 1111.94,-66.75 1112.31,-73.74"/>
</a>
</g>
</g>
<!-- Node17 -->
<g id="Node000017" class="node">
<title>Node17</title>
<g id="a_Node000017"><a xlink:href="riot__version_8h.html" target="_top" xlink:title="Common macros and compiler attributes/pragmas configuration.">
<polygon fill="white" stroke="#666666" points="606.75,-77.5 524,-77.5 524,-56.75 606.75,-56.75 606.75,-77.5"/>
<text text-anchor="middle" x="565.38" y="-64" font-family="Helvetica,sans-Serif" font-size="10.00">riot_version.h</text>
</a>
</g>
</g>
<!-- Node16&#45;&gt;Node17 -->
<g id="edge23_Node000016_Node000017" class="edge">
<title>Node16&#45;&gt;Node17</title>
<g id="a_edge23_Node000016_Node000017"><a xlink:title=" ">
<path fill="none" stroke="#63b8ff" d="M541.59,-170.12C545.75,-152.27 554.83,-113.36 560.49,-89.09"/>
<polygon fill="#63b8ff" stroke="#63b8ff" points="563.88,-89.93 562.75,-79.4 557.07,-88.34 563.88,-89.93"/>
</a>
</g>
</g>
<!-- Node18 -->
<g id="Node000018" class="node">
<title>Node18</title>
<g id="a_Node000018"><a xlink:href="compiler__hints_8h.html" target="_top" xlink:title="Common macros and compiler attributes/pragmas configuration.">
<polygon fill="white" stroke="#666666" points="536.88,-134.25 439.88,-134.25 439.88,-113.5 536.88,-113.5 536.88,-134.25"/>
<text text-anchor="middle" x="488.38" y="-120.75" font-family="Helvetica,sans-Serif" font-size="10.00">compiler_hints.h</text>
</a>
</g>
</g>
<!-- Node16&#45;&gt;Node18 -->
<g id="edge25_Node000016_Node000018" class="edge">
<title>Node16&#45;&gt;Node18</title>
<g id="a_edge25_Node000016_Node000018"><a xlink:title=" ">
<path fill="none" stroke="#63b8ff" d="M530.26,-169.84C523.29,-162.36 513.51,-151.86 505.14,-142.88"/>
<polygon fill="#63b8ff" stroke="#63b8ff" points="507.82,-140.62 498.45,-135.69 502.7,-145.39 507.82,-140.62"/>
</a>
</g>
</g>
<!-- Node20 -->
<g id="Node000020" class="node">
<title>Node20</title>
<g id="a_Node000020"><a xlink:href="container_8h.html" target="_top" xlink:title="Common macros and compiler attributes/pragmas configuration.">
<polygon fill="white" stroke="#666666" points="663.75,-134.25 593,-134.25 593,-113.5 663.75,-113.5 663.75,-134.25"/>
<text text-anchor="middle" x="628.38" y="-120.75" font-family="Helvetica,sans-Serif" font-size="10.00">container.h</text>
</a>
</g>
</g>
<!-- Node16&#45;&gt;Node20 -->
<g id="edge29_Node000016_Node000020" class="edge">
<title>Node16&#45;&gt;Node20</title>
<g id="a_edge29_Node000016_Node000020"><a xlink:title=" ">
<path fill="none" stroke="#63b8ff" d="M555.29,-169.84C568.58,-161.66 587.76,-149.86 603.14,-140.4"/>
<polygon fill="#63b8ff" stroke="#63b8ff" points="604.63,-143.59 611.31,-135.37 600.96,-137.63 604.63,-143.59"/>
</a>
</g>
</g>
<!-- Node17&#45;&gt;Node4 -->
<g id="edge24_Node000017_Node000004" class="edge">
<title>Node17&#45;&gt;Node4</title>
<g id="a_edge24_Node000017_Node000004"><a xlink:title=" ">
<path fill="none" stroke="#63b8ff" d="M571.45,-56.34C575.85,-49.25 581.95,-39.44 587.32,-30.79"/>
<polygon fill="#63b8ff" stroke="#63b8ff" points="590.25,-32.71 592.55,-22.36 584.3,-29.01 590.25,-32.71"/>
</a>
</g>
</g>
<!-- Node18&#45;&gt;Node4 -->
<g id="edge28_Node000018_Node000004" class="edge">
<title>Node18&#45;&gt;Node4</title>
<g id="a_edge28_Node000018_Node000004"><a xlink:title=" ">
<path fill="none" stroke="#63b8ff" d="M490.16,-113.24C493.17,-99.3 500.46,-73.36 515.38,-56.75 528.09,-42.59 546.3,-32 562.52,-24.63"/>
<polygon fill="#63b8ff" stroke="#63b8ff" points="563.59,-27.98 571.42,-20.84 560.85,-21.54 563.59,-27.98"/>
</a>
</g>
</g>
<!-- Node19 -->
<g id="Node000019" class="node">
<title>Node19</title>
<g id="a_Node000019"><a xlink:href="assert_8h.html" target="_top" xlink:title="POSIX.1&#45;2008 compliant version of the assert macro.">
<polygon fill="white" stroke="#666666" points="467.88,-77.5 412.88,-77.5 412.88,-56.75 467.88,-56.75 467.88,-77.5"/>
<text text-anchor="middle" x="440.38" y="-64" font-family="Helvetica,sans-Serif" font-size="10.00">assert.h</text>
</a>
</g>
</g>
<!-- Node18&#45;&gt;Node19 -->
<g id="edge26_Node000018_Node000019" class="edge">
<title>Node18&#45;&gt;Node19</title>
<g id="a_edge26_Node000018_Node000019"><a xlink:title=" ">
<path fill="none" stroke="#63b8ff" d="M479.79,-113.09C473.31,-105.69 464.22,-95.32 456.4,-86.41"/>
<polygon fill="#63b8ff" stroke="#63b8ff" points="459.1,-84.18 449.88,-78.97 453.84,-88.79 459.1,-84.18"/>
</a>
</g>
</g>
<!-- Node19&#45;&gt;Node4 -->
<g id="edge27_Node000019_Node000004" class="edge">
<title>Node19&#45;&gt;Node4</title>
<g id="a_edge27_Node000019_Node000004"><a xlink:title=" ">
<path fill="none" stroke="#63b8ff" d="M468.07,-56.59C493.99,-47.66 532.93,-34.26 561.67,-24.36"/>
<polygon fill="#63b8ff" stroke="#63b8ff" points="562.78,-27.68 571.1,-21.11 560.5,-21.06 562.78,-27.68"/>
</a>
</g>
</g>
<!-- Node20&#45;&gt;Node4 -->
<g id="edge31_Node000020_Node000004" class="edge">
<title>Node20&#45;&gt;Node4</title>
<g id="a_edge31_Node000020_Node000004"><a xlink:title=" ">
<path fill="none" stroke="#63b8ff" d="M626.95,-113.36C624.91,-100.42 620.8,-76.61 615.38,-56.75 613.1,-48.4 610.04,-39.38 607.21,-31.6"/>
<polygon fill="#63b8ff" stroke="#63b8ff" points="610.55,-30.53 603.75,-22.4 604,-32.99 610.55,-30.53"/>
</a>
</g>
</g>
<!-- Node20&#45;&gt;Node7 -->
<g id="edge30_Node000020_Node000007" class="edge">
<title>Node20&#45;&gt;Node7</title>
<g id="a_edge30_Node000020_Node000007"><a xlink:title=" ">
<path fill="none" stroke="#63b8ff" d="M664.2,-116.65C723.74,-106.3 842.58,-85.64 904.24,-74.93"/>
<polygon fill="#63b8ff" stroke="#63b8ff" points="904.67,-78.41 913.92,-73.24 903.47,-71.51 904.67,-78.41"/>
</a>
</g>
</g>
<!-- Node22&#45;&gt;Node7 -->
<g id="edge35_Node000022_Node000007" class="edge">
<title>Node22&#45;&gt;Node7</title>
<g id="a_edge35_Node000022_Node000007"><a xlink:title=" ">
<path fill="none" stroke="#63b8ff" d="M894.89,-170.12C903.49,-152.02 922.38,-112.28 933.88,-88.1"/>
<polygon fill="#63b8ff" stroke="#63b8ff" points="936.93,-89.83 938.07,-79.29 930.61,-86.82 936.93,-89.83"/>
</a>
</g>
</g>
<!-- Node23 -->
<g id="Node000023" class="node">
<title>Node23</title>
<g id="a_Node000023"><a xlink:title=" ">
<polygon fill="#e0e0e0" stroke="#999999" points="876.88,-134.25 815.88,-134.25 815.88,-113.5 876.88,-113.5 876.88,-134.25"/>
<text text-anchor="middle" x="846.38" y="-120.75" font-family="Helvetica,sans-Serif" font-size="10.00">stdbool.h</text>
</a>
</g>
</g>
<!-- Node22&#45;&gt;Node23 -->
<g id="edge34_Node000022_Node000023" class="edge">
<title>Node22&#45;&gt;Node23</title>
<g id="a_edge34_Node000022_Node000023"><a xlink:title=" ">
<path fill="none" stroke="#63b8ff" d="M882.51,-169.84C876.63,-162.52 868.41,-152.29 861.3,-143.44"/>
<polygon fill="#63b8ff" stroke="#63b8ff" points="864.11,-141.36 855.12,-135.76 858.66,-145.75 864.11,-141.36"/>
</a>
</g>
</g>
<!-- Node24 -->
<g id="Node000024" class="node">
<title>Node24</title>
<g id="a_Node000024"><a xlink:href="list_8h.html" target="_top" xlink:title="Intrusive linked list.">
<polygon fill="white" stroke="#666666" points="797.38,-134.25 757.38,-134.25 757.38,-113.5 797.38,-113.5 797.38,-134.25"/>
<text text-anchor="middle" x="777.38" y="-120.75" font-family="Helvetica,sans-Serif" font-size="10.00">list.h</text>
</a>
</g>
</g>
<!-- Node22&#45;&gt;Node24 -->
<g id="edge36_Node000022_Node000024" class="edge">
<title>Node22&#45;&gt;Node24</title>
<g id="a_edge36_Node000022_Node000024"><a xlink:title=" ">
<path fill="none" stroke="#63b8ff" d="M870.17,-169.84C852.82,-161.43 827.54,-149.18 807.75,-139.59"/>
<polygon fill="#63b8ff" stroke="#63b8ff" points="809.29,-136.45 798.76,-135.24 806.24,-142.75 809.29,-136.45"/>
</a>
</g>
</g>
<!-- Node26&#45;&gt;Node4 -->
<g id="edge40_Node000026_Node000004" class="edge">
<title>Node26&#45;&gt;Node4</title>
<g id="a_edge40_Node000026_Node000004"><a xlink:title=" ">
<path fill="none" stroke="#63b8ff" d="M526.65,-401.54C502.8,-395.81 469.75,-384.14 450.38,-361.25 361.95,-256.78 319.26,-163.94 404.38,-56.75 423.63,-32.51 510.49,-20.03 561.56,-14.69"/>
<polygon fill="#63b8ff" stroke="#63b8ff" points="561.69,-18.19 571.29,-13.72 560.99,-11.23 561.69,-18.19"/>
</a>
</g>
</g>
<!-- Node26&#45;&gt;Node7 -->
<g id="edge39_Node000026_Node000007" class="edge">
<title>Node26&#45;&gt;Node7</title>
<g id="a_edge39_Node000026_Node000007"><a xlink:title=" ">
<path fill="none" stroke="#63b8ff" d="M583.99,-405.32C679.5,-400.2 981.38,-377.5 981.38,-295.12 981.38,-295.12 981.38,-295.12 981.38,-179.62 981.38,-146.01 965.71,-109.6 954.5,-87.84"/>
<polygon fill="#63b8ff" stroke="#63b8ff" points="957.68,-86.37 949.86,-79.22 951.52,-89.69 957.68,-86.37"/>
</a>
</g>
</g>
<!-- Node26&#45;&gt;Node16 -->
<g id="edge47_Node000026_Node000016" class="edge">
<title>Node26&#45;&gt;Node16</title>
<g id="a_edge47_Node000026_Node000016"><a xlink:title=" ">
<path fill="none" stroke="#63b8ff" d="M527,-400.48C506.11,-394.34 479.06,-382.62 465.38,-361.25 433.19,-310.98 431.61,-278.74 461.38,-227 469.36,-213.12 483.4,-203.09 497.39,-196.05"/>
<polygon fill="#63b8ff" stroke="#63b8ff" points="498.46,-199.41 506.1,-192.07 495.55,-193.04 498.46,-199.41"/>
</a>
</g>
</g>
<!-- Node26&#45;&gt;Node23 -->
<g id="edge41_Node000026_Node000023" class="edge">
<title>Node26&#45;&gt;Node23</title>
<g id="a_edge41_Node000026_Node000023"><a xlink:title=" ">
<path fill="none" stroke="#63b8ff" d="M554.46,-396.84C552.9,-374.84 551.79,-320.54 574.38,-283.75 626.5,-198.85 742.17,-154.33 804.55,-135.71"/>
<polygon fill="#63b8ff" stroke="#63b8ff" points="805.47,-139.09 814.1,-132.96 803.52,-132.37 805.47,-139.09"/>
</a>
</g>
</g>
<!-- Node26&#45;&gt;Node24 -->
<g id="edge48_Node000026_Node000024" class="edge">
<title>Node26&#45;&gt;Node24</title>
<g id="a_edge48_Node000026_Node000024"><a xlink:title=" ">
<path fill="none" stroke="#63b8ff" d="M551.51,-397.08C548.07,-388.03 543.29,-373.97 541.38,-361.25 532.36,-301.46 522.63,-271.68 563.38,-227 613.52,-172.02 699.55,-143.76 745.78,-131.91"/>
<polygon fill="#63b8ff" stroke="#63b8ff" points="746.55,-135.32 755.43,-129.54 744.89,-128.52 746.55,-135.32"/>
</a>
</g>
</g>
<!-- Node27 -->
<g id="Node000027" class="node">
<title>Node27</title>
<g id="a_Node000027"><a xlink:href="architecture_8h.html" target="_top" xlink:title="Platform&#45;independent access to architecture details.">
<polygon fill="white" stroke="#666666" points="279.12,-361.25 195.62,-361.25 195.62,-340.5 279.12,-340.5 279.12,-361.25"/>
<text text-anchor="middle" x="237.38" y="-347.75" font-family="Helvetica,sans-Serif" font-size="10.00">architecture.h</text>
</a>
</g>
</g>
<!-- Node26&#45;&gt;Node27 -->
<g id="edge42_Node000026_Node000027" class="edge">
<title>Node26&#45;&gt;Node27</title>
<g id="a_edge42_Node000026_Node000027"><a xlink:title=" ">
<path fill="none" stroke="#63b8ff" d="M526.87,-401.72C473.77,-392.58 358.92,-372.8 290.92,-361.09"/>
<polygon fill="#63b8ff" stroke="#63b8ff" points="291.55,-357.65 281.1,-359.4 290.36,-364.55 291.55,-357.65"/>
</a>
</g>
</g>
<!-- Node30 -->
<g id="Node000030" class="node">
<title>Node30</title>
<g id="a_Node000030"><a xlink:href="core_2include_2thread_8h.html" target="_top" xlink:title="Threading API.">
<polygon fill="white" stroke="#666666" points="734.62,-361.25 678.12,-361.25 678.12,-340.5 734.62,-340.5 734.62,-361.25"/>
<text text-anchor="middle" x="706.38" y="-347.75" font-family="Helvetica,sans-Serif" font-size="10.00">thread.h</text>
</a>
</g>
</g>
<!-- Node26&#45;&gt;Node30 -->
<g id="edge49_Node000026_Node000030" class="edge">
<title>Node26&#45;&gt;Node30</title>
<g id="a_edge49_Node000026_Node000030"><a xlink:title=" ">
<path fill="none" stroke="#63b8ff" d="M582.37,-396.84C606.45,-388.11 641.95,-375.23 668.8,-365.5"/>
<polygon fill="#63b8ff" stroke="#63b8ff" points="669.73,-368.89 677.94,-362.19 667.34,-362.3 669.73,-368.89"/>
</a>
</g>
</g>
<!-- Node27&#45;&gt;Node4 -->
<g id="edge43_Node000027_Node000004" class="edge">
<title>Node27&#45;&gt;Node4</title>
<g id="a_edge43_Node000027_Node000004"><a xlink:title=" ">
<path fill="none" stroke="#63b8ff" d="M237.38,-340.03C237.38,-320.6 237.38,-275.93 237.38,-238.38 237.38,-238.38 237.38,-238.38 237.38,-122.88 237.38,-55.62 468.46,-24.66 561.37,-14.93"/>
<polygon fill="#63b8ff" stroke="#63b8ff" points="561.66,-18.42 571.25,-13.92 560.95,-11.45 561.66,-18.42"/>
</a>
</g>
</g>
<!-- Node27&#45;&gt;Node11 -->
<g id="edge44_Node000027_Node000011" class="edge">
<title>Node27&#45;&gt;Node11</title>
<g id="a_edge44_Node000027_Node000011"><a xlink:title=" ">
<path fill="none" stroke="#63b8ff" d="M233.86,-340.35C224.06,-313.75 196.25,-238.27 182.82,-201.82"/>
<polygon fill="#63b8ff" stroke="#63b8ff" points="186.27,-201.06 179.53,-192.89 179.7,-203.48 186.27,-201.06"/>
</a>
</g>
</g>
<!-- Node28 -->
<g id="Node000028" class="node">
<title>Node28</title>
<g id="a_Node000028"><a xlink:title=" ">
<polygon fill="#e0e0e0" stroke="#999999" points="171.75,-304.5 119,-304.5 119,-283.75 171.75,-283.75 171.75,-304.5"/>
<text text-anchor="middle" x="145.38" y="-291" font-family="Helvetica,sans-Serif" font-size="10.00">limits.h</text>
</a>
</g>
</g>
<!-- Node27&#45;&gt;Node28 -->
<g id="edge45_Node000027_Node000028" class="edge">
<title>Node27&#45;&gt;Node28</title>
<g id="a_edge45_Node000027_Node000028"><a xlink:title=" ">
<path fill="none" stroke="#63b8ff" d="M220.93,-340.09C207.19,-331.91 187.36,-320.11 171.46,-310.65"/>
<polygon fill="#63b8ff" stroke="#63b8ff" points="173.36,-307.71 162.98,-305.6 169.78,-313.72 173.36,-307.71"/>
</a>
</g>
</g>
<!-- Node29 -->
<g id="Node000029" class="node">
<title>Node29</title>
<g id="a_Node000029"><a xlink:title=" ">
<polygon fill="#e0e0e0" stroke="#999999" points="375.25,-304.5 265.5,-304.5 265.5,-283.75 375.25,-283.75 375.25,-304.5"/>
<text text-anchor="middle" x="320.38" y="-291" font-family="Helvetica,sans-Serif" font-size="10.00">architecture_arch.h</text>
</a>
</g>
</g>
<!-- Node27&#45;&gt;Node29 -->
<g id="edge46_Node000027_Node000029" class="edge">
<title>Node27&#45;&gt;Node29</title>
<g id="a_edge46_Node000027_Node000029"><a xlink:title=" ">
<path fill="none" stroke="#63b8ff" d="M252.21,-340.09C264.49,-331.99 282.16,-320.33 296.43,-310.92"/>
<polygon fill="#63b8ff" stroke="#63b8ff" points="297.98,-314.09 304.4,-305.66 294.13,-308.25 297.98,-314.09"/>
</a>
</g>
</g>
<!-- Node30&#45;&gt;Node15 -->
<g id="edge57_Node000030_Node000015" class="edge">
<title>Node30&#45;&gt;Node15</title>
<g id="a_edge57_Node000030_Node000015"><a xlink:title=" ">
<path fill="none" stroke="#63b8ff" d="M735.07,-348.22C766.88,-344.87 817.72,-334.79 848.38,-304.5 860.49,-292.53 865.93,-273.73 868.38,-259.23"/>
<polygon fill="#63b8ff" stroke="#63b8ff" points="871.84,-259.74 869.65,-249.38 864.9,-258.85 871.84,-259.74"/>
</a>
</g>
</g>
<!-- Node30&#45;&gt;Node22 -->
<g id="edge50_Node000030_Node000022" class="edge">
<title>Node30&#45;&gt;Node22</title>
<g id="a_edge50_Node000030_Node000022"><a xlink:title=" ">
<path fill="none" stroke="#63b8ff" d="M734.95,-348.01C769.74,-344.46 828.85,-334.18 869.38,-304.5 893.66,-286.71 897.8,-276.61 906.38,-247.75 910.96,-232.34 906.14,-214.62 900.63,-201.41"/>
<polygon fill="#63b8ff" stroke="#63b8ff" points="903.87,-200.07 896.46,-192.49 897.53,-203.04 903.87,-200.07"/>
</a>
</g>
</g>
<!-- Node31 -->
<g id="Node000031" class="node">
<title>Node31</title>
<g id="a_Node000031"><a xlink:href="cib_8h.html" target="_top" xlink:title="Circular integer buffer interface.">
<polygon fill="white" stroke="#666666" points="510,-247.75 470.75,-247.75 470.75,-227 510,-227 510,-247.75"/>
<text text-anchor="middle" x="490.38" y="-234.25" font-family="Helvetica,sans-Serif" font-size="10.00">cib.h</text>
</a>
</g>
</g>
<!-- Node30&#45;&gt;Node31 -->
<g id="edge51_Node000030_Node000031" class="edge">
<title>Node30&#45;&gt;Node31</title>
<g id="a_edge51_Node000030_Node000031"><a xlink:title=" ">
<path fill="none" stroke="#63b8ff" d="M677.67,-343C650.13,-335.73 607.89,-322.76 574.38,-304.5 549.62,-291.01 524.68,-270.25 508.48,-255.6"/>
<polygon fill="#63b8ff" stroke="#63b8ff" points="511.27,-253.41 501.55,-249.2 506.52,-258.55 511.27,-253.41"/>
</a>
</g>
</g>
<!-- Node32 -->
<g id="Node000032" class="node">
<title>Node32</title>
<g id="a_Node000032"><a xlink:href="core_2include_2msg_8h.html" target="_top" xlink:title="Messaging API for inter process communication.">
<polygon fill="white" stroke="#666666" points="729.38,-304.5 683.38,-304.5 683.38,-283.75 729.38,-283.75 729.38,-304.5"/>
<text text-anchor="middle" x="706.38" y="-291" font-family="Helvetica,sans-Serif" font-size="10.00">msg.h</text>
</a>
</g>
</g>
<!-- Node30&#45;&gt;Node32 -->
<g id="edge53_Node000030_Node000032" class="edge">
<title>Node30&#45;&gt;Node32</title>
<g id="a_edge53_Node000030_Node000032"><a xlink:title=" ">
<path fill="none" stroke="#63b8ff" d="M706.38,-340.09C706.38,-333.47 706.38,-324.47 706.38,-316.27"/>
<polygon fill="#63b8ff" stroke="#63b8ff" points="709.88,-316.34 706.38,-306.34 702.88,-316.34 709.88,-316.34"/>
</a>
</g>
</g>
<!-- Node33 -->
<g id="Node000033" class="node">
<title>Node33</title>
<g id="a_Node000033"><a xlink:href="thread__config_8h.html" target="_top" xlink:title="Thread configuration defines.">
<polygon fill="white" stroke="#666666" points="839.25,-304.5 747.5,-304.5 747.5,-283.75 839.25,-283.75 839.25,-304.5"/>
<text text-anchor="middle" x="793.38" y="-291" font-family="Helvetica,sans-Serif" font-size="10.00">thread_config.h</text>
</a>
</g>
</g>
<!-- Node30&#45;&gt;Node33 -->
<g id="edge58_Node000030_Node000033" class="edge">
<title>Node30&#45;&gt;Node33</title>
<g id="a_edge58_Node000030_Node000033"><a xlink:title=" ">
<path fill="none" stroke="#63b8ff" d="M721.93,-340.09C734.8,-331.99 753.32,-320.33 768.28,-310.92"/>
<polygon fill="#63b8ff" stroke="#63b8ff" points="770.08,-313.92 776.67,-305.63 766.35,-308 770.08,-313.92"/>
</a>
</g>
</g>
<!-- Node35 -->
<g id="Node000035" class="node">
<title>Node35</title>
<g id="a_Node000035"><a xlink:title=" ">
<polygon fill="#e0e0e0" stroke="#999999" points="665.75,-304.5 583,-304.5 583,-283.75 665.75,-283.75 665.75,-304.5"/>
<text text-anchor="middle" x="624.38" y="-291" font-family="Helvetica,sans-Serif" font-size="10.00">thread_arch.h</text>
</a>
</g>
</g>
<!-- Node30&#45;&gt;Node35 -->
<g id="edge61_Node000030_Node000035" class="edge">
<title>Node30&#45;&gt;Node35</title>
<g id="a_edge61_Node000030_Node000035"><a xlink:title=" ">
<path fill="none" stroke="#63b8ff" d="M691.72,-340.09C679.7,-332.07 662.46,-320.56 648.44,-311.19"/>
<polygon fill="#63b8ff" stroke="#63b8ff" points="650.43,-308.31 640.17,-305.67 646.54,-314.13 650.43,-308.31"/>
</a>
</g>
</g>
<!-- Node31&#45;&gt;Node19 -->
<g id="edge52_Node000031_Node000019" class="edge">
<title>Node31&#45;&gt;Node19</title>
<g id="a_edge52_Node000031_Node000019"><a xlink:title=" ">
<path fill="none" stroke="#63b8ff" d="M482.43,-226.73C468.78,-209.48 441.4,-171.63 431.38,-134.25 427.33,-119.17 430.04,-101.65 433.51,-88.43"/>
<polygon fill="#63b8ff" stroke="#63b8ff" points="436.77,-89.73 436.3,-79.14 430.07,-87.71 436.77,-89.73"/>
</a>
</g>
</g>
<!-- Node32&#45;&gt;Node4 -->
<g id="edge54_Node000032_Node000004" class="edge">
<title>Node32&#45;&gt;Node4</title>
<g id="a_edge54_Node000032_Node000004"><a xlink:title=" ">
<path fill="none" stroke="#63b8ff" d="M705.99,-283.35C704.61,-255.62 698.44,-174.5 672.38,-113.5 658.54,-81.12 633.09,-48.94 616.2,-29.6"/>
<polygon fill="#63b8ff" stroke="#63b8ff" points="618.97,-27.44 609.69,-22.32 613.75,-32.1 618.97,-27.44"/>
</a>
</g>
</g>
<!-- Node32&#45;&gt;Node15 -->
<g id="edge56_Node000032_Node000015" class="edge">
<title>Node32&#45;&gt;Node15</title>
<g id="a_edge56_Node000032_Node000015"><a xlink:title=" ">
<path fill="none" stroke="#63b8ff" d="M729.87,-285.28C756.73,-276.31 801.06,-261.51 832.75,-250.94"/>
<polygon fill="#63b8ff" stroke="#63b8ff" points="833.56,-254.35 841.94,-247.87 831.35,-247.71 833.56,-254.35"/>
</a>
</g>
</g>
<!-- Node32&#45;&gt;Node23 -->
<g id="edge55_Node000032_Node000023" class="edge">
<title>Node32&#45;&gt;Node23</title>
<g id="a_edge55_Node000032_Node000023"><a xlink:title=" ">
<path fill="none" stroke="#63b8ff" d="M707.42,-283.56C710.33,-261.08 720.5,-204.2 751.38,-170.25 765.67,-154.54 786.56,-143.74 805.11,-136.64"/>
<polygon fill="#63b8ff" stroke="#63b8ff" points="806.02,-140.03 814.27,-133.38 803.68,-133.43 806.02,-140.03"/>
</a>
</g>
</g>
<!-- Node33&#45;&gt;Node15 -->
<g id="edge60_Node000033_Node000015" class="edge">
<title>Node33&#45;&gt;Node15</title>
<g id="a_edge60_Node000033_Node000015"><a xlink:title=" ">
<path fill="none" stroke="#63b8ff" d="M807.14,-283.34C818.31,-275.4 834.29,-264.03 847.4,-254.71"/>
<polygon fill="#63b8ff" stroke="#63b8ff" points="849.37,-257.6 855.49,-248.96 845.32,-251.9 849.37,-257.6"/>
</a>
</g>
</g>
<!-- Node34 -->
<g id="Node000034" class="node">
<title>Node34</title>
<g id="a_Node000034"><a xlink:title=" ">
<polygon fill="#e0e0e0" stroke="#999999" points="825.25,-247.75 757.5,-247.75 757.5,-227 825.25,-227 825.25,-247.75"/>
<text text-anchor="middle" x="791.38" y="-234.25" font-family="Helvetica,sans-Serif" font-size="10.00">cpu_conf.h</text>
</a>
</g>
</g>
<!-- Node33&#45;&gt;Node34 -->
<g id="edge59_Node000033_Node000034" class="edge">
<title>Node33&#45;&gt;Node34</title>
<g id="a_edge59_Node000033_Node000034"><a xlink:title=" ">
<path fill="none" stroke="#63b8ff" d="M793.02,-283.34C792.78,-276.72 792.45,-267.72 792.15,-259.52"/>
<polygon fill="#63b8ff" stroke="#63b8ff" points="795.65,-259.46 791.78,-249.59 788.65,-259.71 795.65,-259.46"/>
</a>
</g>
</g>
<!-- Node36&#45;&gt;Node4 -->
<g id="edge63_Node000036_Node000004" class="edge">
<title>Node36&#45;&gt;Node4</title>
<g id="a_edge63_Node000036_Node000004"><a xlink:title=" ">
<path fill="none" stroke="#63b8ff" d="M911.57,-453.54C950.73,-425.13 1057.38,-338.55 1057.38,-238.38 1057.38,-238.38 1057.38,-238.38 1057.38,-122.88 1057.38,-77.77 1021.67,-74.9 980.38,-56.75 919.43,-29.97 721.38,-17.34 637.48,-13.1"/>
<polygon fill="#63b8ff" stroke="#63b8ff" points="637.87,-9.61 627.71,-12.62 637.52,-16.61 637.87,-9.61"/>
</a>
</g>
</g>
<!-- Node36&#45;&gt;Node15 -->
<g id="edge65_Node000036_Node000015" class="edge">
<title>Node36&#45;&gt;Node15</title>
<g id="a_edge65_Node000036_Node000015"><a xlink:title=" ">
<path fill="none" stroke="#63b8ff" d="M896.21,-453.71C892.16,-419.88 878.53,-306.36 872.87,-259.19"/>
<polygon fill="#63b8ff" stroke="#63b8ff" points="876.38,-259.02 871.71,-249.51 869.43,-259.86 876.38,-259.02"/>
</a>
</g>
</g>
<!-- Node36&#45;&gt;Node26 -->
<g id="edge64_Node000036_Node000026" class="edge">
<title>Node36&#45;&gt;Node26</title>
<g id="a_edge64_Node000036_Node000026"><a xlink:title=" ">
<path fill="none" stroke="#63b8ff" d="M867.02,-458.52C805.06,-448.6 664.02,-426.02 594.96,-414.96"/>
<polygon fill="#63b8ff" stroke="#63b8ff" points="595.65,-411.53 585.22,-413.4 594.54,-418.44 595.65,-411.53"/>
</a>
</g>
</g>
<!-- Node37&#45;&gt;Node28 -->
<g id="edge67_Node000037_Node000028" class="edge">
<title>Node37&#45;&gt;Node28</title>
<g id="a_edge67_Node000037_Node000028"><a xlink:title=" ">
<path fill="none" stroke="#63b8ff" d="M197.52,-510.5C186.37,-502.4 171.8,-489.76 164.38,-474.75 138.37,-422.18 140.22,-350.55 143.11,-315.77"/>
<polygon fill="#63b8ff" stroke="#63b8ff" points="146.55,-316.52 144.02,-306.23 139.58,-315.85 146.55,-316.52"/>
</a>
</g>
</g>
<!-- Node38 -->
<g id="Node000038" class="node">
<title>Node38</title>
<g id="a_Node000038"><a xlink:title=" ">
<polygon fill="#e0e0e0" stroke="#999999" points="251.5,-474.75 173.25,-474.75 173.25,-454 251.5,-454 251.5,-474.75"/>
<text text-anchor="middle" x="212.38" y="-461.25" font-family="Helvetica,sans-Serif" font-size="10.00">periph_cpu.h</text>
</a>
</g>
</g>
<!-- Node37&#45;&gt;Node38 -->
<g id="edge68_Node000037_Node000038" class="edge">
<title>Node37&#45;&gt;Node38</title>
<g id="a_edge68_Node000037_Node000038"><a xlink:title=" ">
<path fill="none" stroke="#63b8ff" d="M212.38,-510.34C212.38,-503.72 212.38,-494.72 212.38,-486.52"/>
<polygon fill="#63b8ff" stroke="#63b8ff" points="215.88,-486.59 212.38,-476.59 208.88,-486.59 215.88,-486.59"/>
</a>
</g>
</g>
<!-- Node39 -->
<g id="Node000039" class="node">
<title>Node39</title>
<g id="a_Node000039"><a xlink:title=" ">
<polygon fill="#e0e0e0" stroke="#999999" points="351,-474.75 269.75,-474.75 269.75,-454 351,-454 351,-474.75"/>
<text text-anchor="middle" x="310.38" y="-461.25" font-family="Helvetica,sans-Serif" font-size="10.00">periph_conf.h</text>
</a>
</g>
</g>
<!-- Node37&#45;&gt;Node39 -->
<g id="edge69_Node000037_Node000039" class="edge">
<title>Node37&#45;&gt;Node39</title>
<g id="a_edge69_Node000037_Node000039"><a xlink:title=" ">
<path fill="none" stroke="#63b8ff" d="M229.9,-510.34C244.67,-502.08 266.06,-490.13 283.07,-480.63"/>
<polygon fill="#63b8ff" stroke="#63b8ff" points="284.66,-483.75 291.68,-475.82 281.25,-477.64 284.66,-483.75"/>
</a>
</g>
</g>
</g>
</svg>
