<?xml version="1.0" encoding="UTF-8" standalone="no"?>
<!DOCTYPE svg PUBLIC "-//W3C//DTD SVG 1.1//EN"
 "http://www.w3.org/Graphics/SVG/1.1/DTD/svg11.dtd">
<!-- Generated by graphviz version 12.1.1 (0)
 -->
<!-- Title: cpu/native/include/socket_zep.h Pages: 1 -->
<svg width="1487pt" height="439pt"
 viewBox="0.00 0.00 1487.39 438.75" xmlns="http://www.w3.org/2000/svg" xmlns:xlink="http://www.w3.org/1999/xlink">
<g id="graph0" class="graph" transform="scale(1 1) rotate(0) translate(4 434.75)">
<title>cpu/native/include/socket_zep.h</title>
<!-- Node1 -->
<g id="Node000001" class="node">
<title>Node1</title>
<g id="a_Node000001"><a xlink:title="Socket ZEP definitions.">
<polygon fill="#999999" stroke="#666666" points="790.12,-430.75 684.88,-430.75 684.88,-397.25 790.12,-397.25 790.12,-430.75"/>
<text text-anchor="start" x="692.88" y="-417.25" font-family="Helvetica,sans-Serif" font-size="10.00">cpu/native/include</text>
<text text-anchor="middle" x="737.5" y="-404.5" font-family="Helvetica,sans-Serif" font-size="10.00">/socket_zep.h</text>
</a>
</g>
</g>
<!-- Node2 -->
<g id="Node000002" class="node">
<title>Node2</title>
<g id="a_Node000002"><a xlink:href="drivers_2include_2net_2netdev_8h.html" target="_top" xlink:title="Definitions low&#45;level network driver interface.">
<polygon fill="white" stroke="#666666" points="557.88,-247.75 481.12,-247.75 481.12,-227 557.88,-227 557.88,-247.75"/>
<text text-anchor="middle" x="519.5" y="-234.25" font-family="Helvetica,sans-Serif" font-size="10.00">net/netdev.h</text>
</a>
</g>
</g>
<!-- Node1&#45;&gt;Node2 -->
<g id="edge1_Node000001_Node000002" class="edge">
<title>Node1&#45;&gt;Node2</title>
<g id="a_edge1_Node000001_Node000002"><a xlink:title=" ">
<path fill="none" stroke="#63b8ff" d="M717.38,-396.88C676.21,-363.91 582.7,-289 540.66,-255.33"/>
<polygon fill="#63b8ff" stroke="#63b8ff" points="543,-252.71 533.01,-249.19 538.62,-258.18 543,-252.71"/>
</a>
</g>
</g>
<!-- Node17 -->
<g id="Node000017" class="node">
<title>Node17</title>
<g id="a_Node000017"><a xlink:href="drivers_2include_2net_2netdev_2ieee802154_8h.html" target="_top" xlink:title="Definitions for netdev common IEEE 802.15.4 code.">
<polygon fill="white" stroke="#666666" points="583.25,-361.25 445.75,-361.25 445.75,-340.5 583.25,-340.5 583.25,-361.25"/>
<text text-anchor="middle" x="514.5" y="-347.75" font-family="Helvetica,sans-Serif" font-size="10.00">net/netdev/ieee802154.h</text>
</a>
</g>
</g>
<!-- Node1&#45;&gt;Node17 -->
<g id="edge25_Node000001_Node000017" class="edge">
<title>Node1&#45;&gt;Node17</title>
<g id="a_edge25_Node000001_Node000017"><a xlink:title=" ">
<path fill="none" stroke="#63b8ff" d="M684.65,-398.51C647.07,-388.21 597.05,-374.5 560.99,-364.62"/>
<polygon fill="#63b8ff" stroke="#63b8ff" points="562.3,-361.35 551.73,-362.08 560.45,-368.1 562.3,-361.35"/>
</a>
</g>
</g>
<!-- Node31 -->
<g id="Node000031" class="node">
<title>Node31</title>
<g id="a_Node000031"><a xlink:href="radio_8h_source.html" target="_top" xlink:title=" ">
<polygon fill="white" stroke="#666666" points="927.75,-304.5 799.25,-304.5 799.25,-283.75 927.75,-283.75 927.75,-304.5"/>
<text text-anchor="middle" x="863.5" y="-291" font-family="Helvetica,sans-Serif" font-size="10.00">net/ieee802154/radio.h</text>
</a>
</g>
</g>
<!-- Node1&#45;&gt;Node31 -->
<g id="edge53_Node000001_Node000031" class="edge">
<title>Node1&#45;&gt;Node31</title>
<g id="a_edge53_Node000001_Node000031"><a xlink:title=" ">
<path fill="none" stroke="#63b8ff" d="M754.76,-396.86C778.3,-374.83 820.35,-335.5 844.68,-312.73"/>
<polygon fill="#63b8ff" stroke="#63b8ff" points="847.05,-315.31 851.96,-305.92 842.27,-310.2 847.05,-315.31"/>
</a>
</g>
</g>
<!-- Node36 -->
<g id="Node000036" class="node">
<title>Node36</title>
<g id="a_Node000036"><a xlink:href="zep_8h.html" target="_top" xlink:title="Definitions for the ZigBee Encapsulation Protocol.">
<polygon fill="white" stroke="#666666" points="1404,-247.75 1343,-247.75 1343,-227 1404,-227 1404,-247.75"/>
<text text-anchor="middle" x="1373.5" y="-234.25" font-family="Helvetica,sans-Serif" font-size="10.00">net/zep.h</text>
</a>
</g>
</g>
<!-- Node1&#45;&gt;Node36 -->
<g id="edge66_Node000001_Node000036" class="edge">
<title>Node1&#45;&gt;Node36</title>
<g id="a_edge66_Node000001_Node000036"><a xlink:title=" ">
<path fill="none" stroke="#63b8ff" d="M790.36,-398.49C913.99,-364.54 1219.99,-280.52 1331.76,-249.83"/>
<polygon fill="#63b8ff" stroke="#63b8ff" points="1332.4,-253.29 1341.12,-247.27 1330.55,-246.54 1332.4,-253.29"/>
</a>
</g>
</g>
<!-- Node3 -->
<g id="Node000003" class="node">
<title>Node3</title>
<g id="a_Node000003"><a xlink:title=" ">
<polygon fill="#e0e0e0" stroke="#999999" points="982.88,-20.75 930.12,-20.75 930.12,0 982.88,0 982.88,-20.75"/>
<text text-anchor="middle" x="956.5" y="-7.25" font-family="Helvetica,sans-Serif" font-size="10.00">stdint.h</text>
</a>
</g>
</g>
<!-- Node2&#45;&gt;Node3 -->
<g id="edge2_Node000002_Node000003" class="edge">
<title>Node2&#45;&gt;Node3</title>
<g id="a_edge2_Node000002_Node000003"><a xlink:title=" ">
<path fill="none" stroke="#63b8ff" d="M558.1,-232.13C603.52,-226.32 680.69,-213.92 743.5,-191 761.58,-184.4 763.37,-176.7 781.5,-170.25 864.13,-140.87 919.43,-201.68 975.5,-134.25 999.89,-104.91 981.55,-57.51 967.85,-30.98"/>
<polygon fill="#63b8ff" stroke="#63b8ff" points="970.99,-29.42 963.13,-22.32 964.84,-32.78 970.99,-29.42"/>
</a>
</g>
</g>
<!-- Node4 -->
<g id="Node000004" class="node">
<title>Node4</title>
<g id="a_Node000004"><a xlink:href="errno_8h.html" target="_top" xlink:title=" ">
<polygon fill="white" stroke="#666666" points="544.75,-191 494.25,-191 494.25,-170.25 544.75,-170.25 544.75,-191"/>
<text text-anchor="middle" x="519.5" y="-177.5" font-family="Helvetica,sans-Serif" font-size="10.00">errno.h</text>
</a>
</g>
</g>
<!-- Node2&#45;&gt;Node4 -->
<g id="edge3_Node000002_Node000004" class="edge">
<title>Node2&#45;&gt;Node4</title>
<g id="a_edge3_Node000002_Node000004"><a xlink:title=" ">
<path fill="none" stroke="#63b8ff" d="M519.5,-226.59C519.5,-219.97 519.5,-210.97 519.5,-202.77"/>
<polygon fill="#63b8ff" stroke="#63b8ff" points="523,-202.84 519.5,-192.84 516,-202.84 523,-202.84"/>
</a>
</g>
</g>
<!-- Node5 -->
<g id="Node000005" class="node">
<title>Node5</title>
<g id="a_Node000005"><a xlink:href="iolist_8h.html" target="_top" xlink:title="iolist scatter / gather IO">
<polygon fill="white" stroke="#666666" points="383,-191 334,-191 334,-170.25 383,-170.25 383,-191"/>
<text text-anchor="middle" x="358.5" y="-177.5" font-family="Helvetica,sans-Serif" font-size="10.00">iolist.h</text>
</a>
</g>
</g>
<!-- Node2&#45;&gt;Node5 -->
<g id="edge4_Node000002_Node000005" class="edge">
<title>Node2&#45;&gt;Node5</title>
<g id="a_edge4_Node000002_Node000005"><a xlink:title=" ">
<path fill="none" stroke="#63b8ff" d="M490.72,-226.59C463.61,-217.37 422.93,-203.54 393.86,-193.65"/>
<polygon fill="#63b8ff" stroke="#63b8ff" points="395.37,-190.47 384.77,-190.56 393.11,-197.09 395.37,-190.47"/>
</a>
</g>
</g>
<!-- Node9 -->
<g id="Node000009" class="node">
<title>Node9</title>
<g id="a_Node000009"><a xlink:href="netopt_8h.html" target="_top" xlink:title="Definition of global configuration options.">
<polygon fill="white" stroke="#666666" points="476.12,-191 400.88,-191 400.88,-170.25 476.12,-170.25 476.12,-191"/>
<text text-anchor="middle" x="438.5" y="-177.5" font-family="Helvetica,sans-Serif" font-size="10.00">net/netopt.h</text>
</a>
</g>
</g>
<!-- Node2&#45;&gt;Node9 -->
<g id="edge11_Node000002_Node000009" class="edge">
<title>Node2&#45;&gt;Node9</title>
<g id="a_edge11_Node000002_Node000009"><a xlink:title=" ">
<path fill="none" stroke="#63b8ff" d="M505.02,-226.59C493.15,-218.57 476.13,-207.06 462.27,-197.69"/>
<polygon fill="#63b8ff" stroke="#63b8ff" points="464.35,-194.88 454.11,-192.18 460.43,-200.68 464.35,-194.88"/>
</a>
</g>
</g>
<!-- Node11 -->
<g id="Node000011" class="node">
<title>Node11</title>
<g id="a_Node000011"><a xlink:href="kernel__defines_8h.html" target="_top" xlink:title="Common macros and compiler attributes/pragmas configuration.">
<polygon fill="white" stroke="#666666" points="734.62,-191 638.38,-191 638.38,-170.25 734.62,-170.25 734.62,-191"/>
<text text-anchor="middle" x="686.5" y="-177.5" font-family="Helvetica,sans-Serif" font-size="10.00">kernel_defines.h</text>
</a>
</g>
</g>
<!-- Node2&#45;&gt;Node11 -->
<g id="edge14_Node000002_Node000011" class="edge">
<title>Node2&#45;&gt;Node11</title>
<g id="a_edge14_Node000002_Node000011"><a xlink:title=" ">
<path fill="none" stroke="#63b8ff" d="M549.36,-226.59C576.23,-217.78 615.95,-204.75 645.74,-194.99"/>
<polygon fill="#63b8ff" stroke="#63b8ff" points="646.77,-198.33 655.18,-191.89 644.59,-191.68 646.77,-198.33"/>
</a>
</g>
</g>
<!-- Node6 -->
<g id="Node000006" class="node">
<title>Node6</title>
<g id="a_Node000006"><a xlink:href="unistd_8h_source.html" target="_top" xlink:title=" ">
<polygon fill="white" stroke="#666666" points="386,-134.25 331,-134.25 331,-113.5 386,-113.5 386,-134.25"/>
<text text-anchor="middle" x="358.5" y="-120.75" font-family="Helvetica,sans-Serif" font-size="10.00">unistd.h</text>
</a>
</g>
</g>
<!-- Node5&#45;&gt;Node6 -->
<g id="edge5_Node000005_Node000006" class="edge">
<title>Node5&#45;&gt;Node6</title>
<g id="a_edge5_Node000005_Node000006"><a xlink:title=" ">
<path fill="none" stroke="#63b8ff" d="M358.5,-169.84C358.5,-163.22 358.5,-154.22 358.5,-146.02"/>
<polygon fill="#63b8ff" stroke="#63b8ff" points="362,-146.09 358.5,-136.09 355,-146.09 362,-146.09"/>
</a>
</g>
</g>
<!-- Node6&#45;&gt;Node3 -->
<g id="edge7_Node000006_Node000003" class="edge">
<title>Node6&#45;&gt;Node3</title>
<g id="a_edge7_Node000006_Node000003"><a xlink:title=" ">
<path fill="none" stroke="#63b8ff" d="M367.68,-113.12C382.57,-98 413.67,-69.35 446.5,-56.75 532.81,-23.61 815.58,-14.37 918.56,-12.07"/>
<polygon fill="#63b8ff" stroke="#63b8ff" points="918.48,-15.57 928.41,-11.86 918.34,-8.57 918.48,-15.57"/>
</a>
</g>
</g>
<!-- Node7 -->
<g id="Node000007" class="node">
<title>Node7</title>
<g id="a_Node000007"><a xlink:title=" ">
<polygon fill="#e0e0e0" stroke="#999999" points="386,-20.75 331,-20.75 331,0 386,0 386,-20.75"/>
<text text-anchor="middle" x="358.5" y="-7.25" font-family="Helvetica,sans-Serif" font-size="10.00">stddef.h</text>
</a>
</g>
</g>
<!-- Node6&#45;&gt;Node7 -->
<g id="edge6_Node000006_Node000007" class="edge">
<title>Node6&#45;&gt;Node7</title>
<g id="a_edge6_Node000006_Node000007"><a xlink:title=" ">
<path fill="none" stroke="#63b8ff" d="M344.13,-113.24C333.44,-105.13 319.67,-92.48 313.5,-77.5 306.01,-59.32 320.58,-41.02 335.09,-28.29"/>
<polygon fill="#63b8ff" stroke="#63b8ff" points="337.18,-31.11 342.74,-22.09 332.77,-25.67 337.18,-31.11"/>
</a>
</g>
</g>
<!-- Node8 -->
<g id="Node000008" class="node">
<title>Node8</title>
<g id="a_Node000008"><a xlink:href="cpu_2avr8__common_2avr__libc__extra_2include_2sys_2types_8h_source.html" target="_top" xlink:title=" ">
<polygon fill="white" stroke="#666666" points="394.25,-77.5 322.75,-77.5 322.75,-56.75 394.25,-56.75 394.25,-77.5"/>
<text text-anchor="middle" x="358.5" y="-64" font-family="Helvetica,sans-Serif" font-size="10.00">sys/types.h</text>
</a>
</g>
</g>
<!-- Node6&#45;&gt;Node8 -->
<g id="edge8_Node000006_Node000008" class="edge">
<title>Node6&#45;&gt;Node8</title>
<g id="a_edge8_Node000006_Node000008"><a xlink:title=" ">
<path fill="none" stroke="#63b8ff" d="M358.5,-113.09C358.5,-106.47 358.5,-97.47 358.5,-89.27"/>
<polygon fill="#63b8ff" stroke="#63b8ff" points="362,-89.34 358.5,-79.34 355,-89.34 362,-89.34"/>
</a>
</g>
</g>
<!-- Node8&#45;&gt;Node3 -->
<g id="edge9_Node000008_Node000003" class="edge">
<title>Node8&#45;&gt;Node3</title>
<g id="a_edge9_Node000008_Node000003"><a xlink:title=" ">
<path fill="none" stroke="#63b8ff" d="M394.48,-58.92C399.18,-58.11 403.95,-57.36 408.5,-56.75 599.13,-31.06 829.15,-17.7 918.47,-13.18"/>
<polygon fill="#63b8ff" stroke="#63b8ff" points="918.55,-16.68 928.37,-12.68 918.2,-9.68 918.55,-16.68"/>
</a>
</g>
</g>
<!-- Node8&#45;&gt;Node7 -->
<g id="edge10_Node000008_Node000007" class="edge">
<title>Node8&#45;&gt;Node7</title>
<g id="a_edge10_Node000008_Node000007"><a xlink:title=" ">
<path fill="none" stroke="#63b8ff" d="M358.5,-56.34C358.5,-49.72 358.5,-40.72 358.5,-32.52"/>
<polygon fill="#63b8ff" stroke="#63b8ff" points="362,-32.59 358.5,-22.59 355,-32.59 362,-32.59"/>
</a>
</g>
</g>
<!-- Node9&#45;&gt;Node3 -->
<g id="edge12_Node000009_Node000003" class="edge">
<title>Node9&#45;&gt;Node3</title>
<g id="a_edge12_Node000009_Node000003"><a xlink:title=" ">
<path fill="none" stroke="#63b8ff" d="M438.44,-170.01C438.88,-146.38 443.59,-85.3 479.5,-56.75 513.62,-29.61 811.74,-16.49 918.6,-12.63"/>
<polygon fill="#63b8ff" stroke="#63b8ff" points="918.4,-16.14 928.27,-12.29 918.15,-9.14 918.4,-16.14"/>
</a>
</g>
</g>
<!-- Node10 -->
<g id="Node000010" class="node">
<title>Node10</title>
<g id="a_Node000010"><a xlink:title=" ">
<polygon fill="#e0e0e0" stroke="#999999" points="550,-134.25 489,-134.25 489,-113.5 550,-113.5 550,-134.25"/>
<text text-anchor="middle" x="519.5" y="-120.75" font-family="Helvetica,sans-Serif" font-size="10.00">stdbool.h</text>
</a>
</g>
</g>
<!-- Node9&#45;&gt;Node10 -->
<g id="edge13_Node000009_Node000010" class="edge">
<title>Node9&#45;&gt;Node10</title>
<g id="a_edge13_Node000009_Node000010"><a xlink:title=" ">
<path fill="none" stroke="#63b8ff" d="M452.98,-169.84C464.85,-161.82 481.87,-150.31 495.73,-140.94"/>
<polygon fill="#63b8ff" stroke="#63b8ff" points="497.57,-143.93 503.89,-135.43 493.65,-138.13 497.57,-143.93"/>
</a>
</g>
</g>
<!-- Node12 -->
<g id="Node000012" class="node">
<title>Node12</title>
<g id="a_Node000012"><a xlink:href="modules_8h.html" target="_top" xlink:title="Common macros and compiler attributes/pragmas configuration.">
<polygon fill="white" stroke="#666666" points="812,-134.25 745,-134.25 745,-113.5 812,-113.5 812,-134.25"/>
<text text-anchor="middle" x="778.5" y="-120.75" font-family="Helvetica,sans-Serif" font-size="10.00">modules.h</text>
</a>
</g>
</g>
<!-- Node11&#45;&gt;Node12 -->
<g id="edge15_Node000011_Node000012" class="edge">
<title>Node11&#45;&gt;Node12</title>
<g id="a_edge15_Node000011_Node000012"><a xlink:title=" ">
<path fill="none" stroke="#63b8ff" d="M702.95,-169.84C716.68,-161.66 736.52,-149.86 752.42,-140.4"/>
<polygon fill="#63b8ff" stroke="#63b8ff" points="754.09,-143.47 760.89,-135.35 750.51,-137.46 754.09,-143.47"/>
</a>
</g>
</g>
<!-- Node13 -->
<g id="Node000013" class="node">
<title>Node13</title>
<g id="a_Node000013"><a xlink:href="riot__version_8h.html" target="_top" xlink:title="Common macros and compiler attributes/pragmas configuration.">
<polygon fill="white" stroke="#666666" points="726.88,-134.25 644.12,-134.25 644.12,-113.5 726.88,-113.5 726.88,-134.25"/>
<text text-anchor="middle" x="685.5" y="-120.75" font-family="Helvetica,sans-Serif" font-size="10.00">riot_version.h</text>
</a>
</g>
</g>
<!-- Node11&#45;&gt;Node13 -->
<g id="edge16_Node000011_Node000013" class="edge">
<title>Node11&#45;&gt;Node13</title>
<g id="a_edge16_Node000011_Node000013"><a xlink:title=" ">
<path fill="none" stroke="#63b8ff" d="M686.32,-169.84C686.2,-163.22 686.04,-154.22 685.89,-146.02"/>
<polygon fill="#63b8ff" stroke="#63b8ff" points="689.39,-146.03 685.7,-136.09 682.39,-146.15 689.39,-146.03"/>
</a>
</g>
</g>
<!-- Node14 -->
<g id="Node000014" class="node">
<title>Node14</title>
<g id="a_Node000014"><a xlink:href="compiler__hints_8h.html" target="_top" xlink:title="Common macros and compiler attributes/pragmas configuration.">
<polygon fill="white" stroke="#666666" points="966,-134.25 869,-134.25 869,-113.5 966,-113.5 966,-134.25"/>
<text text-anchor="middle" x="917.5" y="-120.75" font-family="Helvetica,sans-Serif" font-size="10.00">compiler_hints.h</text>
</a>
</g>
</g>
<!-- Node11&#45;&gt;Node14 -->
<g id="edge18_Node000011_Node000014" class="edge">
<title>Node11&#45;&gt;Node14</title>
<g id="a_edge18_Node000011_Node000014"><a xlink:title=" ">
<path fill="none" stroke="#63b8ff" d="M728.06,-169.77C766.38,-160.69 823.42,-147.17 864.89,-137.34"/>
<polygon fill="#63b8ff" stroke="#63b8ff" points="865.48,-140.8 874.41,-135.09 863.87,-133.99 865.48,-140.8"/>
</a>
</g>
</g>
<!-- Node16 -->
<g id="Node000016" class="node">
<title>Node16</title>
<g id="a_Node000016"><a xlink:href="container_8h.html" target="_top" xlink:title="Common macros and compiler attributes/pragmas configuration.">
<polygon fill="white" stroke="#666666" points="558.88,-77.5 488.12,-77.5 488.12,-56.75 558.88,-56.75 558.88,-77.5"/>
<text text-anchor="middle" x="523.5" y="-64" font-family="Helvetica,sans-Serif" font-size="10.00">container.h</text>
</a>
</g>
</g>
<!-- Node11&#45;&gt;Node16 -->
<g id="edge22_Node000011_Node000016" class="edge">
<title>Node11&#45;&gt;Node16</title>
<g id="a_edge22_Node000011_Node000016"><a xlink:title=" ">
<path fill="none" stroke="#63b8ff" d="M672.32,-169.93C644.26,-150.73 581.41,-107.74 547.05,-84.23"/>
<polygon fill="#63b8ff" stroke="#63b8ff" points="549.24,-81.49 539.01,-78.74 545.29,-87.27 549.24,-81.49"/>
</a>
</g>
</g>
<!-- Node13&#45;&gt;Node3 -->
<g id="edge17_Node000013_Node000003" class="edge">
<title>Node13&#45;&gt;Node3</title>
<g id="a_edge17_Node000013_Node000003"><a xlink:title=" ">
<path fill="none" stroke="#63b8ff" d="M704.84,-113.03C731.75,-99.51 782.19,-74.82 826.5,-56.75 857.3,-44.19 893.01,-31.88 919.21,-23.26"/>
<polygon fill="#63b8ff" stroke="#63b8ff" points="919.95,-26.7 928.37,-20.27 917.78,-20.05 919.95,-26.7"/>
</a>
</g>
</g>
<!-- Node14&#45;&gt;Node3 -->
<g id="edge21_Node000014_Node000003" class="edge">
<title>Node14&#45;&gt;Node3</title>
<g id="a_edge21_Node000014_Node000003"><a xlink:title=" ">
<path fill="none" stroke="#63b8ff" d="M922.18,-113.29C926.5,-104.21 932.93,-90.13 937.5,-77.5 942.92,-62.52 947.85,-45.2 951.33,-32.05"/>
<polygon fill="#63b8ff" stroke="#63b8ff" points="954.72,-32.94 953.81,-22.39 947.94,-31.2 954.72,-32.94"/>
</a>
</g>
</g>
<!-- Node15 -->
<g id="Node000015" class="node">
<title>Node15</title>
<g id="a_Node000015"><a xlink:href="assert_8h.html" target="_top" xlink:title="POSIX.1&#45;2008 compliant version of the assert macro.">
<polygon fill="white" stroke="#666666" points="928,-77.5 873,-77.5 873,-56.75 928,-56.75 928,-77.5"/>
<text text-anchor="middle" x="900.5" y="-64" font-family="Helvetica,sans-Serif" font-size="10.00">assert.h</text>
</a>
</g>
</g>
<!-- Node14&#45;&gt;Node15 -->
<g id="edge19_Node000014_Node000015" class="edge">
<title>Node14&#45;&gt;Node15</title>
<g id="a_edge19_Node000014_Node000015"><a xlink:title=" ">
<path fill="none" stroke="#63b8ff" d="M914.46,-113.09C912.36,-106.31 909.48,-97.05 906.89,-88.69"/>
<polygon fill="#63b8ff" stroke="#63b8ff" points="910.27,-87.79 903.96,-79.27 903.58,-89.86 910.27,-87.79"/>
</a>
</g>
</g>
<!-- Node15&#45;&gt;Node3 -->
<g id="edge20_Node000015_Node000003" class="edge">
<title>Node15&#45;&gt;Node3</title>
<g id="a_edge20_Node000015_Node000003"><a xlink:title=" ">
<path fill="none" stroke="#63b8ff" d="M910.51,-56.34C918.24,-48.78 929.13,-38.14 938.37,-29.1"/>
<polygon fill="#63b8ff" stroke="#63b8ff" points="940.79,-31.63 945.49,-22.14 935.9,-26.62 940.79,-31.63"/>
</a>
</g>
</g>
<!-- Node16&#45;&gt;Node3 -->
<g id="edge24_Node000016_Node000003" class="edge">
<title>Node16&#45;&gt;Node3</title>
<g id="a_edge24_Node000016_Node000003"><a xlink:title=" ">
<path fill="none" stroke="#63b8ff" d="M559.31,-58.97C563.74,-58.17 568.22,-57.41 572.5,-56.75 698.87,-37.22 849.78,-21.63 918.75,-14.93"/>
<polygon fill="#63b8ff" stroke="#63b8ff" points="918.75,-18.45 928.37,-14.01 918.08,-11.48 918.75,-18.45"/>
</a>
</g>
</g>
<!-- Node16&#45;&gt;Node7 -->
<g id="edge23_Node000016_Node000007" class="edge">
<title>Node16&#45;&gt;Node7</title>
<g id="a_edge23_Node000016_Node000007"><a xlink:title=" ">
<path fill="none" stroke="#63b8ff" d="M494,-56.34C466.96,-47.36 426.74,-34.02 397.14,-24.2"/>
<polygon fill="#63b8ff" stroke="#63b8ff" points="398.4,-20.93 387.81,-21.1 396.19,-27.57 398.4,-20.93"/>
</a>
</g>
</g>
<!-- Node17&#45;&gt;Node2 -->
<g id="edge52_Node000017_Node000002" class="edge">
<title>Node17&#45;&gt;Node2</title>
<g id="a_edge52_Node000017_Node000002"><a xlink:title=" ">
<path fill="none" stroke="#63b8ff" d="M514.93,-340.37C515.72,-322.6 517.46,-283.97 518.54,-259.68"/>
<polygon fill="#63b8ff" stroke="#63b8ff" points="522.04,-259.83 518.99,-249.69 515.05,-259.52 522.04,-259.83"/>
</a>
</g>
</g>
<!-- Node17&#45;&gt;Node9 -->
<g id="edge51_Node000017_Node000009" class="edge">
<title>Node17&#45;&gt;Node9</title>
<g id="a_edge51_Node000017_Node000009"><a xlink:title=" ">
<path fill="none" stroke="#63b8ff" d="M510.2,-340.35C498.18,-313.75 464.09,-238.27 447.62,-201.82"/>
<polygon fill="#63b8ff" stroke="#63b8ff" points="450.88,-200.52 443.57,-192.85 444.5,-203.4 450.88,-200.52"/>
</a>
</g>
</g>
<!-- Node18 -->
<g id="Node000018" class="node">
<title>Node18</title>
<g id="a_Node000018"><a xlink:href="eui__provider_8h.html" target="_top" xlink:title="EUI&#45;48 and EUI&#45;64 address provider.">
<polygon fill="white" stroke="#666666" points="743.75,-304.5 639.25,-304.5 639.25,-283.75 743.75,-283.75 743.75,-304.5"/>
<text text-anchor="middle" x="691.5" y="-291" font-family="Helvetica,sans-Serif" font-size="10.00">net/eui_provider.h</text>
</a>
</g>
</g>
<!-- Node17&#45;&gt;Node18 -->
<g id="edge26_Node000017_Node000018" class="edge">
<title>Node17&#45;&gt;Node18</title>
<g id="a_edge26_Node000017_Node000018"><a xlink:title=" ">
<path fill="none" stroke="#63b8ff" d="M546.14,-340.09C574.87,-331.2 617.47,-318.02 649.13,-308.23"/>
<polygon fill="#63b8ff" stroke="#63b8ff" points="649.87,-311.67 658.39,-305.37 647.8,-304.98 649.87,-311.67"/>
</a>
</g>
</g>
<!-- Node25 -->
<g id="Node000025" class="node">
<title>Node25</title>
<g id="a_Node000025"><a xlink:href="sys_2include_2net_2ieee802154_8h.html" target="_top" xlink:title="IEEE 802.15.4 header definitions.">
<polygon fill="white" stroke="#666666" points="953.88,-247.75 853.12,-247.75 853.12,-227 953.88,-227 953.88,-247.75"/>
<text text-anchor="middle" x="903.5" y="-234.25" font-family="Helvetica,sans-Serif" font-size="10.00">net/ieee802154.h</text>
</a>
</g>
</g>
<!-- Node17&#45;&gt;Node25 -->
<g id="edge40_Node000017_Node000025" class="edge">
<title>Node17&#45;&gt;Node25</title>
<g id="a_edge40_Node000017_Node000025"><a xlink:title=" ">
<path fill="none" stroke="#63b8ff" d="M583.71,-342.46C632.02,-335.91 697.46,-324.22 752.5,-304.5 770.61,-298.01 773.1,-291.96 790.5,-283.75 815.2,-272.1 843.74,-260.65 865.96,-252.17"/>
<polygon fill="#63b8ff" stroke="#63b8ff" points="867.1,-255.48 875.22,-248.67 864.63,-248.93 867.1,-255.48"/>
</a>
</g>
</g>
<!-- Node27 -->
<g id="Node000027" class="node">
<title>Node27</title>
<g id="a_Node000027"><a xlink:href="nettype_8h.html" target="_top" xlink:title="Protocol type definitions.">
<polygon fill="white" stroke="#666666" points="284.12,-304.5 178.88,-304.5 178.88,-283.75 284.12,-283.75 284.12,-304.5"/>
<text text-anchor="middle" x="231.5" y="-291" font-family="Helvetica,sans-Serif" font-size="10.00">net/gnrc/nettype.h</text>
</a>
</g>
</g>
<!-- Node17&#45;&gt;Node27 -->
<g id="edge46_Node000017_Node000027" class="edge">
<title>Node17&#45;&gt;Node27</title>
<g id="a_edge46_Node000017_Node000027"><a xlink:title=" ">
<path fill="none" stroke="#63b8ff" d="M463.58,-340.02C415.94,-330.81 344.67,-317.02 293.69,-307.16"/>
<polygon fill="#63b8ff" stroke="#63b8ff" points="294.46,-303.74 283.98,-305.28 293.13,-310.61 294.46,-303.74"/>
</a>
</g>
</g>
<!-- Node18&#45;&gt;Node2 -->
<g id="edge39_Node000018_Node000002" class="edge">
<title>Node18&#45;&gt;Node2</title>
<g id="a_edge39_Node000018_Node000002"><a xlink:title=" ">
<path fill="none" stroke="#63b8ff" d="M660.75,-283.34C632.95,-274.49 591.8,-261.39 561.08,-251.61"/>
<polygon fill="#63b8ff" stroke="#63b8ff" points="562.31,-248.33 551.72,-248.63 560.18,-255 562.31,-248.33"/>
</a>
</g>
</g>
<!-- Node19 -->
<g id="Node000019" class="node">
<title>Node19</title>
<g id="a_Node000019"><a xlink:href="eui48_8h.html" target="_top" xlink:title="Definition and IPv6 IID conversion for IEEE EUI&#45;48 identifiers.">
<polygon fill="white" stroke="#666666" points="726.88,-247.75 656.12,-247.75 656.12,-227 726.88,-227 726.88,-247.75"/>
<text text-anchor="middle" x="691.5" y="-234.25" font-family="Helvetica,sans-Serif" font-size="10.00">net/eui48.h</text>
</a>
</g>
</g>
<!-- Node18&#45;&gt;Node19 -->
<g id="edge27_Node000018_Node000019" class="edge">
<title>Node18&#45;&gt;Node19</title>
<g id="a_edge27_Node000018_Node000019"><a xlink:title=" ">
<path fill="none" stroke="#63b8ff" d="M691.5,-283.34C691.5,-276.72 691.5,-267.72 691.5,-259.52"/>
<polygon fill="#63b8ff" stroke="#63b8ff" points="695,-259.59 691.5,-249.59 688,-259.59 695,-259.59"/>
</a>
</g>
</g>
<!-- Node20 -->
<g id="Node000020" class="node">
<title>Node20</title>
<g id="a_Node000020"><a xlink:href="eui64_8h.html" target="_top" xlink:title="EUI&#45;64 data type definition.">
<polygon fill="white" stroke="#666666" points="860.88,-191 790.12,-191 790.12,-170.25 860.88,-170.25 860.88,-191"/>
<text text-anchor="middle" x="825.5" y="-177.5" font-family="Helvetica,sans-Serif" font-size="10.00">net/eui64.h</text>
</a>
</g>
</g>
<!-- Node18&#45;&gt;Node20 -->
<g id="edge38_Node000018_Node000020" class="edge">
<title>Node18&#45;&gt;Node20</title>
<g id="a_edge38_Node000018_Node000020"><a xlink:title=" ">
<path fill="none" stroke="#63b8ff" d="M702.92,-283.62C725.56,-264.79 776.36,-222.51 804.95,-198.72"/>
<polygon fill="#63b8ff" stroke="#63b8ff" points="807.11,-201.48 812.56,-192.39 802.63,-196.1 807.11,-201.48"/>
</a>
</g>
</g>
<!-- Node19&#45;&gt;Node3 -->
<g id="edge28_Node000019_Node000003" class="edge">
<title>Node19&#45;&gt;Node3</title>
<g id="a_edge28_Node000019_Node000003"><a xlink:title=" ">
<path fill="none" stroke="#63b8ff" d="M669.12,-226.64C654.94,-219.15 637.77,-207.3 629.5,-191 621.46,-175.16 622.37,-130.94 635.5,-113.5 702.85,-24.08 848.96,-11.28 918.39,-10.52"/>
<polygon fill="#63b8ff" stroke="#63b8ff" points="918.13,-14.02 928.12,-10.5 918.11,-7.02 918.13,-14.02"/>
</a>
</g>
</g>
<!-- Node19&#45;&gt;Node20 -->
<g id="edge29_Node000019_Node000020" class="edge">
<title>Node19&#45;&gt;Node20</title>
<g id="a_edge29_Node000019_Node000020"><a xlink:title=" ">
<path fill="none" stroke="#63b8ff" d="M715.46,-226.59C736.51,-217.98 767.4,-205.36 791.1,-195.68"/>
<polygon fill="#63b8ff" stroke="#63b8ff" points="792.42,-198.92 800.35,-191.9 789.77,-192.44 792.42,-198.92"/>
</a>
</g>
</g>
<!-- Node20&#45;&gt;Node3 -->
<g id="edge30_Node000020_Node000003" class="edge">
<title>Node20&#45;&gt;Node3</title>
<g id="a_edge30_Node000020_Node000003"><a xlink:title=" ">
<path fill="none" stroke="#63b8ff" d="M826.07,-169.77C827.86,-147.16 835.18,-90.87 864.5,-56.75 878.76,-40.15 900.53,-29.03 919.31,-21.96"/>
<polygon fill="#63b8ff" stroke="#63b8ff" points="920.23,-25.35 928.52,-18.75 917.92,-18.74 920.23,-25.35"/>
</a>
</g>
</g>
<!-- Node21 -->
<g id="Node000021" class="node">
<title>Node21</title>
<g id="a_Node000021"><a xlink:href="byteorder_8h.html" target="_top" xlink:title="Functions to work with different byte orders.">
<polygon fill="white" stroke="#666666" points="1302.62,-134.25 1230.38,-134.25 1230.38,-113.5 1302.62,-113.5 1302.62,-134.25"/>
<text text-anchor="middle" x="1266.5" y="-120.75" font-family="Helvetica,sans-Serif" font-size="10.00">byteorder.h</text>
</a>
</g>
</g>
<!-- Node20&#45;&gt;Node21 -->
<g id="edge31_Node000020_Node000021" class="edge">
<title>Node20&#45;&gt;Node21</title>
<g id="a_edge31_Node000020_Node000021"><a xlink:title=" ">
<path fill="none" stroke="#63b8ff" d="M861.22,-175.19C940.2,-165.38 1129.74,-141.85 1218.78,-130.8"/>
<polygon fill="#63b8ff" stroke="#63b8ff" points="1219.15,-134.28 1228.64,-129.58 1218.28,-127.33 1219.15,-134.28"/>
</a>
</g>
</g>
<!-- Node21&#45;&gt;Node3 -->
<g id="edge33_Node000021_Node000003" class="edge">
<title>Node21&#45;&gt;Node3</title>
<g id="a_edge33_Node000021_Node000003"><a xlink:title=" ">
<path fill="none" stroke="#63b8ff" d="M1238.1,-113.16C1213.18,-104.44 1176.1,-90.97 1144.5,-77.5 1124.98,-69.18 1121.23,-64.55 1101.5,-56.75 1065.88,-42.67 1024.01,-29.96 994.44,-21.6"/>
<polygon fill="#63b8ff" stroke="#63b8ff" points="995.4,-18.23 984.82,-18.92 993.51,-24.97 995.4,-18.23"/>
</a>
</g>
</g>
<!-- Node22 -->
<g id="Node000022" class="node">
<title>Node22</title>
<g id="a_Node000022"><a xlink:title=" ">
<polygon fill="#e0e0e0" stroke="#999999" points="1373.88,-77.5 1321.12,-77.5 1321.12,-56.75 1373.88,-56.75 1373.88,-77.5"/>
<text text-anchor="middle" x="1347.5" y="-64" font-family="Helvetica,sans-Serif" font-size="10.00">string.h</text>
</a>
</g>
</g>
<!-- Node21&#45;&gt;Node22 -->
<g id="edge32_Node000021_Node000022" class="edge">
<title>Node21&#45;&gt;Node22</title>
<g id="a_edge32_Node000021_Node000022"><a xlink:title=" ">
<path fill="none" stroke="#63b8ff" d="M1280.98,-113.09C1292.85,-105.07 1309.87,-93.56 1323.73,-84.19"/>
<polygon fill="#63b8ff" stroke="#63b8ff" points="1325.57,-87.18 1331.89,-78.68 1321.65,-81.38 1325.57,-87.18"/>
</a>
</g>
</g>
<!-- Node23 -->
<g id="Node000023" class="node">
<title>Node23</title>
<g id="a_Node000023"><a xlink:href="endian_8h.html" target="_top" xlink:title="libc header for endian conversion">
<polygon fill="white" stroke="#666666" points="1211.5,-77.5 1153.5,-77.5 1153.5,-56.75 1211.5,-56.75 1211.5,-77.5"/>
<text text-anchor="middle" x="1182.5" y="-64" font-family="Helvetica,sans-Serif" font-size="10.00">endian.h</text>
</a>
</g>
</g>
<!-- Node21&#45;&gt;Node23 -->
<g id="edge34_Node000021_Node000023" class="edge">
<title>Node21&#45;&gt;Node23</title>
<g id="a_edge34_Node000021_Node000023"><a xlink:title=" ">
<path fill="none" stroke="#63b8ff" d="M1251.48,-113.09C1239.06,-104.99 1221.18,-93.33 1206.73,-83.92"/>
<polygon fill="#63b8ff" stroke="#63b8ff" points="1208.94,-81.18 1198.66,-78.65 1205.12,-87.05 1208.94,-81.18"/>
</a>
</g>
</g>
<!-- Node24 -->
<g id="Node000024" class="node">
<title>Node24</title>
<g id="a_Node000024"><a xlink:href="unaligned_8h.html" target="_top" xlink:title="Unaligned but safe memory access functions.">
<polygon fill="white" stroke="#666666" points="1303,-77.5 1230,-77.5 1230,-56.75 1303,-56.75 1303,-77.5"/>
<text text-anchor="middle" x="1266.5" y="-64" font-family="Helvetica,sans-Serif" font-size="10.00">unaligned.h</text>
</a>
</g>
</g>
<!-- Node21&#45;&gt;Node24 -->
<g id="edge36_Node000021_Node000024" class="edge">
<title>Node21&#45;&gt;Node24</title>
<g id="a_edge36_Node000021_Node000024"><a xlink:title=" ">
<path fill="none" stroke="#63b8ff" d="M1266.5,-113.09C1266.5,-106.47 1266.5,-97.47 1266.5,-89.27"/>
<polygon fill="#63b8ff" stroke="#63b8ff" points="1270,-89.34 1266.5,-79.34 1263,-89.34 1270,-89.34"/>
</a>
</g>
</g>
<!-- Node23&#45;&gt;Node3 -->
<g id="edge35_Node000023_Node000003" class="edge">
<title>Node23&#45;&gt;Node3</title>
<g id="a_edge35_Node000023_Node000003"><a xlink:title=" ">
<path fill="none" stroke="#63b8ff" d="M1153.42,-59.08C1112.84,-49.25 1039.19,-31.41 994.37,-20.55"/>
<polygon fill="#63b8ff" stroke="#63b8ff" points="995.37,-17.19 984.83,-18.24 993.73,-23.99 995.37,-17.19"/>
</a>
</g>
</g>
<!-- Node24&#45;&gt;Node3 -->
<g id="edge37_Node000024_Node000003" class="edge">
<title>Node24&#45;&gt;Node3</title>
<g id="a_edge37_Node000024_Node000003"><a xlink:title=" ">
<path fill="none" stroke="#63b8ff" d="M1229.86,-58.55C1226.7,-57.93 1223.54,-57.32 1220.5,-56.75 1140.15,-41.66 1045.65,-25.9 994.33,-17.5"/>
<polygon fill="#63b8ff" stroke="#63b8ff" points="995.08,-14.08 984.65,-15.92 993.95,-20.99 995.08,-14.08"/>
</a>
</g>
</g>
<!-- Node25&#45;&gt;Node3 -->
<g id="edge41_Node000025_Node000003" class="edge">
<title>Node25&#45;&gt;Node3</title>
<g id="a_edge41_Node000025_Node000003"><a xlink:title=" ">
<path fill="none" stroke="#63b8ff" d="M908.24,-226.89C915.46,-213.13 930.33,-187.41 948.5,-170.25 971.11,-148.9 993.18,-161.31 1008.5,-134.25 1025.47,-104.28 1022.75,-88.11 1008.5,-56.75 1003.16,-45.01 993.13,-35.13 983.28,-27.61"/>
<polygon fill="#63b8ff" stroke="#63b8ff" points="985.5,-24.89 975.3,-22.01 981.48,-30.62 985.5,-24.89"/>
</a>
</g>
</g>
<!-- Node25&#45;&gt;Node12 -->
<g id="edge45_Node000025_Node000012" class="edge">
<title>Node25&#45;&gt;Node12</title>
<g id="a_edge45_Node000025_Node000012"><a xlink:title=" ">
<path fill="none" stroke="#63b8ff" d="M900.66,-226.67C896.12,-212.64 886.03,-186.58 869.5,-170.25 855.56,-156.48 836.61,-146.13 819.61,-138.81"/>
<polygon fill="#63b8ff" stroke="#63b8ff" points="821.32,-135.73 810.74,-135.21 818.69,-142.21 821.32,-135.73"/>
</a>
</g>
</g>
<!-- Node25&#45;&gt;Node20 -->
<g id="edge44_Node000025_Node000020" class="edge">
<title>Node25&#45;&gt;Node20</title>
<g id="a_edge44_Node000025_Node000020"><a xlink:title=" ">
<path fill="none" stroke="#63b8ff" d="M889.56,-226.59C878.13,-218.57 861.73,-207.06 848.39,-197.69"/>
<polygon fill="#63b8ff" stroke="#63b8ff" points="850.76,-195.08 840.56,-192.2 846.74,-200.81 850.76,-195.08"/>
</a>
</g>
</g>
<!-- Node25&#45;&gt;Node21 -->
<g id="edge43_Node000025_Node000021" class="edge">
<title>Node25&#45;&gt;Node21</title>
<g id="a_edge43_Node000025_Node000021"><a xlink:title=" ">
<path fill="none" stroke="#63b8ff" d="M911.76,-226.87C925.18,-212.1 953.29,-183.92 983.5,-170.25 1060.69,-135.33 1160.39,-126.79 1218.51,-124.98"/>
<polygon fill="#63b8ff" stroke="#63b8ff" points="1218.49,-128.49 1228.4,-124.74 1218.32,-121.49 1218.49,-128.49"/>
</a>
</g>
</g>
<!-- Node26 -->
<g id="Node000026" class="node">
<title>Node26</title>
<g id="a_Node000026"><a xlink:title=" ">
<polygon fill="#e0e0e0" stroke="#999999" points="1044.5,-191 992.5,-191 992.5,-170.25 1044.5,-170.25 1044.5,-191"/>
<text text-anchor="middle" x="1018.5" y="-177.5" font-family="Helvetica,sans-Serif" font-size="10.00">stdlib.h</text>
</a>
</g>
</g>
<!-- Node25&#45;&gt;Node26 -->
<g id="edge42_Node000025_Node000026" class="edge">
<title>Node25&#45;&gt;Node26</title>
<g id="a_edge42_Node000025_Node000026"><a xlink:title=" ">
<path fill="none" stroke="#63b8ff" d="M924.06,-226.59C941.8,-218.14 967.68,-205.82 987.87,-196.21"/>
<polygon fill="#63b8ff" stroke="#63b8ff" points="989.23,-199.44 996.75,-191.98 986.22,-193.12 989.23,-199.44"/>
</a>
</g>
</g>
<!-- Node27&#45;&gt;Node12 -->
<g id="edge48_Node000027_Node000012" class="edge">
<title>Node27&#45;&gt;Node12</title>
<g id="a_edge48_Node000027_Node000012"><a xlink:title=" ">
<path fill="none" stroke="#63b8ff" d="M246.22,-283.3C257.97,-274.91 274.26,-261.97 285.5,-247.75 309.42,-217.5 292.59,-191.89 324.5,-170.25 397.64,-120.65 627.41,-146.03 733.39,-134.15"/>
<polygon fill="#63b8ff" stroke="#63b8ff" points="733.82,-137.63 743.27,-132.85 732.9,-130.69 733.82,-137.63"/>
</a>
</g>
</g>
<!-- Node28 -->
<g id="Node000028" class="node">
<title>Node28</title>
<g id="a_Node000028"><a xlink:href="inttypes_8h.html" target="_top" xlink:title="Adds include for missing inttype definitions.">
<polygon fill="white" stroke="#666666" points="167.88,-247.75 103.12,-247.75 103.12,-227 167.88,-227 167.88,-247.75"/>
<text text-anchor="middle" x="135.5" y="-234.25" font-family="Helvetica,sans-Serif" font-size="10.00">inttypes.h</text>
</a>
</g>
</g>
<!-- Node27&#45;&gt;Node28 -->
<g id="edge47_Node000027_Node000028" class="edge">
<title>Node27&#45;&gt;Node28</title>
<g id="a_edge47_Node000027_Node000028"><a xlink:title=" ">
<path fill="none" stroke="#63b8ff" d="M214.34,-283.34C199.87,-275.08 178.91,-263.13 162.24,-253.63"/>
<polygon fill="#63b8ff" stroke="#63b8ff" points="164.25,-250.74 153.83,-248.83 160.78,-256.82 164.25,-250.74"/>
</a>
</g>
</g>
<!-- Node29 -->
<g id="Node000029" class="node">
<title>Node29</title>
<g id="a_Node000029"><a xlink:href="ethertype_8h.html" target="_top" xlink:title="Ether type definitions.">
<polygon fill="white" stroke="#666666" points="277,-247.75 186,-247.75 186,-227 277,-227 277,-247.75"/>
<text text-anchor="middle" x="231.5" y="-234.25" font-family="Helvetica,sans-Serif" font-size="10.00">net/ethertype.h</text>
</a>
</g>
</g>
<!-- Node27&#45;&gt;Node29 -->
<g id="edge49_Node000027_Node000029" class="edge">
<title>Node27&#45;&gt;Node29</title>
<g id="a_edge49_Node000027_Node000029"><a xlink:title=" ">
<path fill="none" stroke="#63b8ff" d="M231.5,-283.34C231.5,-276.72 231.5,-267.72 231.5,-259.52"/>
<polygon fill="#63b8ff" stroke="#63b8ff" points="235,-259.59 231.5,-249.59 228,-259.59 235,-259.59"/>
</a>
</g>
</g>
<!-- Node30 -->
<g id="Node000030" class="node">
<title>Node30</title>
<g id="a_Node000030"><a xlink:href="protnum_8h.html" target="_top" xlink:title="Protocol number definitions.">
<polygon fill="white" stroke="#666666" points="85,-247.75 0,-247.75 0,-227 85,-227 85,-247.75"/>
<text text-anchor="middle" x="42.5" y="-234.25" font-family="Helvetica,sans-Serif" font-size="10.00">net/protnum.h</text>
</a>
</g>
</g>
<!-- Node27&#45;&gt;Node30 -->
<g id="edge50_Node000027_Node000030" class="edge">
<title>Node27&#45;&gt;Node30</title>
<g id="a_edge50_Node000027_Node000030"><a xlink:title=" ">
<path fill="none" stroke="#63b8ff" d="M197.71,-283.34C166.9,-274.41 121.15,-261.16 87.3,-251.35"/>
<polygon fill="#63b8ff" stroke="#63b8ff" points="88.35,-248.01 77.77,-248.59 86.4,-254.74 88.35,-248.01"/>
</a>
</g>
</g>
<!-- Node31&#45;&gt;Node4 -->
<g id="edge65_Node000031_Node000004" class="edge">
<title>Node31&#45;&gt;Node4</title>
<g id="a_edge65_Node000031_Node000004"><a xlink:title=" ">
<path fill="none" stroke="#63b8ff" d="M798.81,-284.97C735.13,-276.34 642.74,-262.01 609.5,-247.75 581.99,-235.95 554.92,-214.33 537.77,-199.03"/>
<polygon fill="#63b8ff" stroke="#63b8ff" points="540.18,-196.48 530.44,-192.3 535.44,-201.64 540.18,-196.48"/>
</a>
</g>
</g>
<!-- Node31&#45;&gt;Node5 -->
<g id="edge55_Node000031_Node000005" class="edge">
<title>Node31&#45;&gt;Node5</title>
<g id="a_edge55_Node000031_Node000005"><a xlink:title=" ">
<path fill="none" stroke="#63b8ff" d="M798.96,-287.09C695.92,-277.23 502.7,-257.78 472.5,-247.75 438.04,-236.31 402.5,-213.64 380.45,-198.06"/>
<polygon fill="#63b8ff" stroke="#63b8ff" points="382.71,-195.38 372.56,-192.36 378.61,-201.05 382.71,-195.38"/>
</a>
</g>
</g>
<!-- Node31&#45;&gt;Node10 -->
<g id="edge54_Node000031_Node000010" class="edge">
<title>Node31&#45;&gt;Node10</title>
<g id="a_edge54_Node000031_Node000010"><a xlink:title=" ">
<path fill="none" stroke="#63b8ff" d="M798.9,-288.95C754.23,-283.87 694.59,-272.63 647.5,-247.75 598.26,-221.74 554.73,-171.18 533.4,-143.72"/>
<polygon fill="#63b8ff" stroke="#63b8ff" points="536.33,-141.79 527.49,-135.94 530.75,-146.02 536.33,-141.79"/>
</a>
</g>
</g>
<!-- Node31&#45;&gt;Node20 -->
<g id="edge63_Node000031_Node000020" class="edge">
<title>Node31&#45;&gt;Node20</title>
<g id="a_edge63_Node000031_Node000020"><a xlink:title=" ">
<path fill="none" stroke="#63b8ff" d="M859.09,-283.52C855.01,-274.42 848.92,-260.32 844.5,-247.75 839.21,-232.72 834.28,-215.4 830.76,-202.26"/>
<polygon fill="#63b8ff" stroke="#63b8ff" points="834.16,-201.41 828.25,-192.62 827.39,-203.18 834.16,-201.41"/>
</a>
</g>
</g>
<!-- Node31&#45;&gt;Node21 -->
<g id="edge62_Node000031_Node000021" class="edge">
<title>Node31&#45;&gt;Node21</title>
<g id="a_edge62_Node000031_Node000021"><a xlink:title=" ">
<path fill="none" stroke="#63b8ff" d="M927.96,-289.28C1013.26,-283.39 1158.48,-270.38 1206.5,-247.75 1240,-231.96 1252.71,-224.95 1267.5,-191 1273.75,-176.65 1273.06,-158.84 1271.05,-145.32"/>
<polygon fill="#63b8ff" stroke="#63b8ff" points="1274.55,-145.01 1269.27,-135.82 1267.67,-146.29 1274.55,-145.01"/>
</a>
</g>
</g>
<!-- Node31&#45;&gt;Node25 -->
<g id="edge64_Node000031_Node000025" class="edge">
<title>Node31&#45;&gt;Node25</title>
<g id="a_edge64_Node000031_Node000025"><a xlink:title=" ">
<path fill="none" stroke="#63b8ff" d="M870.65,-283.34C875.94,-276.1 883.31,-266.01 889.73,-257.22"/>
<polygon fill="#63b8ff" stroke="#63b8ff" points="892.44,-259.44 895.52,-249.3 886.79,-255.31 892.44,-259.44"/>
</a>
</g>
</g>
<!-- Node32 -->
<g id="Node000032" class="node">
<title>Node32</title>
<g id="a_Node000032"><a xlink:href="uio_8h.html" target="_top" xlink:title="libc header for scatter/gather I/O">
<polygon fill="white" stroke="#666666" points="1048.25,-247.75 988.75,-247.75 988.75,-227 1048.25,-227 1048.25,-247.75"/>
<text text-anchor="middle" x="1018.5" y="-234.25" font-family="Helvetica,sans-Serif" font-size="10.00">sys/uio.h</text>
</a>
</g>
</g>
<!-- Node31&#45;&gt;Node32 -->
<g id="edge56_Node000031_Node000032" class="edge">
<title>Node31&#45;&gt;Node32</title>
<g id="a_edge56_Node000031_Node000032"><a xlink:title=" ">
<path fill="none" stroke="#63b8ff" d="M891.21,-283.34C915.93,-274.61 952.37,-261.73 979.93,-252"/>
<polygon fill="#63b8ff" stroke="#63b8ff" points="981.08,-255.31 989.34,-248.67 978.75,-248.71 981.08,-255.31"/>
</a>
</g>
</g>
<!-- Node34 -->
<g id="Node000034" class="node">
<title>Node34</title>
<g id="a_Node000034"><a xlink:href="bitarithm_8h.html" target="_top" xlink:title="Helper functions for bit arithmetic.">
<polygon fill="white" stroke="#666666" points="1197.5,-247.75 1127.5,-247.75 1127.5,-227 1197.5,-227 1197.5,-247.75"/>
<text text-anchor="middle" x="1162.5" y="-234.25" font-family="Helvetica,sans-Serif" font-size="10.00">bitarithm.h</text>
</a>
</g>
</g>
<!-- Node31&#45;&gt;Node34 -->
<g id="edge59_Node000031_Node000034" class="edge">
<title>Node31&#45;&gt;Node34</title>
<g id="a_edge59_Node000031_Node000034"><a xlink:title=" ">
<path fill="none" stroke="#63b8ff" d="M917.3,-283.27C974,-272.89 1062.39,-256.71 1116.13,-246.87"/>
<polygon fill="#63b8ff" stroke="#63b8ff" points="1116.67,-250.32 1125.88,-245.08 1115.41,-243.44 1116.67,-250.32"/>
</a>
</g>
</g>
<!-- Node32&#45;&gt;Node26 -->
<g id="edge57_Node000032_Node000026" class="edge">
<title>Node32&#45;&gt;Node26</title>
<g id="a_edge57_Node000032_Node000026"><a xlink:title=" ">
<path fill="none" stroke="#63b8ff" d="M1018.5,-226.59C1018.5,-219.97 1018.5,-210.97 1018.5,-202.77"/>
<polygon fill="#63b8ff" stroke="#63b8ff" points="1022,-202.84 1018.5,-192.84 1015,-202.84 1022,-202.84"/>
</a>
</g>
</g>
<!-- Node33 -->
<g id="Node000033" class="node">
<title>Node33</title>
<g id="a_Node000033"><a xlink:title=" ">
<polygon fill="#e0e0e0" stroke="#999999" points="1134.25,-191 1062.75,-191 1062.75,-170.25 1134.25,-170.25 1134.25,-191"/>
<text text-anchor="middle" x="1098.5" y="-177.5" font-family="Helvetica,sans-Serif" font-size="10.00">sys/types.h</text>
</a>
</g>
</g>
<!-- Node32&#45;&gt;Node33 -->
<g id="edge58_Node000032_Node000033" class="edge">
<title>Node32&#45;&gt;Node33</title>
<g id="a_edge58_Node000032_Node000033"><a xlink:title=" ">
<path fill="none" stroke="#63b8ff" d="M1032.8,-226.59C1044.52,-218.57 1061.34,-207.06 1075.03,-197.69"/>
<polygon fill="#63b8ff" stroke="#63b8ff" points="1076.8,-200.72 1083.07,-192.18 1072.84,-194.94 1076.8,-200.72"/>
</a>
</g>
</g>
<!-- Node34&#45;&gt;Node3 -->
<g id="edge60_Node000034_Node000003" class="edge">
<title>Node34&#45;&gt;Node3</title>
<g id="a_edge60_Node000034_Node000003"><a xlink:title=" ">
<path fill="none" stroke="#63b8ff" d="M1161.33,-226.78C1159.35,-213.33 1154.43,-188.48 1143.5,-170.25 1103.61,-103.73 1025.87,-51.47 984.3,-26.83"/>
<polygon fill="#63b8ff" stroke="#63b8ff" points="986.27,-23.93 975.86,-21.93 982.75,-29.98 986.27,-23.93"/>
</a>
</g>
</g>
<!-- Node35 -->
<g id="Node000035" class="node">
<title>Node35</title>
<g id="a_Node000035"><a xlink:title=" ">
<polygon fill="#e0e0e0" stroke="#999999" points="1258.38,-191 1190.62,-191 1190.62,-170.25 1258.38,-170.25 1258.38,-191"/>
<text text-anchor="middle" x="1224.5" y="-177.5" font-family="Helvetica,sans-Serif" font-size="10.00">cpu_conf.h</text>
</a>
</g>
</g>
<!-- Node34&#45;&gt;Node35 -->
<g id="edge61_Node000034_Node000035" class="edge">
<title>Node34&#45;&gt;Node35</title>
<g id="a_edge61_Node000034_Node000035"><a xlink:title=" ">
<path fill="none" stroke="#63b8ff" d="M1173.58,-226.59C1182.31,-218.88 1194.69,-207.95 1205.06,-198.79"/>
<polygon fill="#63b8ff" stroke="#63b8ff" points="1207.2,-201.57 1212.38,-192.33 1202.56,-196.33 1207.2,-201.57"/>
</a>
</g>
</g>
<!-- Node36&#45;&gt;Node3 -->
<g id="edge67_Node000036_Node000003" class="edge">
<title>Node36&#45;&gt;Node3</title>
<g id="a_edge67_Node000036_Node000003"><a xlink:title=" ">
<path fill="none" stroke="#63b8ff" d="M1404.23,-228.91C1423.77,-222.41 1447.56,-210.8 1459.5,-191 1487.86,-143.97 1497.72,-122.16 1403.5,-56.75 1337.75,-11.11 1090.15,-9.48 994.52,-10.64"/>
<polygon fill="#63b8ff" stroke="#63b8ff" points="994.57,-7.13 984.62,-10.77 994.67,-14.13 994.57,-7.13"/>
</a>
</g>
</g>
<!-- Node36&#45;&gt;Node21 -->
<g id="edge68_Node000036_Node000021" class="edge">
<title>Node36&#45;&gt;Node21</title>
<g id="a_edge68_Node000036_Node000021"><a xlink:title=" ">
<path fill="none" stroke="#63b8ff" d="M1364.38,-226.87C1346.54,-208.28 1306.79,-166.86 1283.81,-142.91"/>
<polygon fill="#63b8ff" stroke="#63b8ff" points="1286.4,-140.56 1276.95,-135.77 1281.35,-145.41 1286.4,-140.56"/>
</a>
</g>
</g>
<!-- Node37 -->
<g id="Node000037" class="node">
<title>Node37</title>
<g id="a_Node000037"><a xlink:href="ntp__packet_8h.html" target="_top" xlink:title="NTP packet definitions.">
<polygon fill="white" stroke="#666666" points="1450,-191 1353,-191 1353,-170.25 1450,-170.25 1450,-191"/>
<text text-anchor="middle" x="1401.5" y="-177.5" font-family="Helvetica,sans-Serif" font-size="10.00">net/ntp_packet.h</text>
</a>
</g>
</g>
<!-- Node36&#45;&gt;Node37 -->
<g id="edge69_Node000036_Node000037" class="edge">
<title>Node36&#45;&gt;Node37</title>
<g id="a_edge69_Node000036_Node000037"><a xlink:title=" ">
<path fill="none" stroke="#63b8ff" d="M1378.51,-226.59C1382.09,-219.58 1387.04,-209.91 1391.42,-201.33"/>
<polygon fill="#63b8ff" stroke="#63b8ff" points="1394.41,-203.17 1395.85,-192.68 1388.18,-199.99 1394.41,-203.17"/>
</a>
</g>
</g>
<!-- Node37&#45;&gt;Node3 -->
<g id="edge70_Node000037_Node000003" class="edge">
<title>Node37&#45;&gt;Node3</title>
<g id="a_edge70_Node000037_Node000003"><a xlink:title=" ">
<path fill="none" stroke="#63b8ff" d="M1403.47,-169.89C1407.58,-146.54 1414.21,-86.99 1382.5,-56.75 1354.67,-30.21 1093.71,-16.93 994.51,-12.82"/>
<polygon fill="#63b8ff" stroke="#63b8ff" points="994.89,-9.33 984.76,-12.42 994.61,-16.32 994.89,-9.33"/>
</a>
</g>
</g>
<!-- Node37&#45;&gt;Node21 -->
<g id="edge71_Node000037_Node000021" class="edge">
<title>Node37&#45;&gt;Node21</title>
<g id="a_edge71_Node000037_Node000021"><a xlink:title=" ">
<path fill="none" stroke="#63b8ff" d="M1377.36,-169.84C1356.06,-161.19 1324.75,-148.5 1300.83,-138.8"/>
<polygon fill="#63b8ff" stroke="#63b8ff" points="1302.41,-135.66 1291.83,-135.15 1299.78,-142.15 1302.41,-135.66"/>
</a>
</g>
</g>
</g>
</svg>
