<?xml version="1.0" encoding="UTF-8" standalone="no"?>
<!DOCTYPE svg PUBLIC "-//W3C//DTD SVG 1.1//EN"
 "http://www.w3.org/Graphics/SVG/1.1/DTD/svg11.dtd">
<!-- Generated by graphviz version 12.1.1 (0)
 -->
<!-- Title: sys/include/net/sock/dtls.h Pages: 1 -->
<svg width="974pt" height="382pt"
 viewBox="0.00 0.00 973.62 382.00" xmlns="http://www.w3.org/2000/svg" xmlns:xlink="http://www.w3.org/1999/xlink">
<g id="graph0" class="graph" transform="scale(1 1) rotate(0) translate(4 378)">
<title>sys/include/net/sock/dtls.h</title>
<!-- Node1 -->
<g id="Node000001" class="node">
<title>Node1</title>
<g id="a_Node000001"><a xlink:title="DTLS sock definitions.">
<polygon fill="#999999" stroke="#666666" points="566.37,-374 451.37,-374 451.37,-340.5 566.37,-340.5 566.37,-374"/>
<text text-anchor="start" x="459.37" y="-360.5" font-family="Helvetica,sans-Serif" font-size="10.00">sys/include/net/sock</text>
<text text-anchor="middle" x="508.87" y="-347.75" font-family="Helvetica,sans-Serif" font-size="10.00">/dtls.h</text>
</a>
</g>
</g>
<!-- Node2 -->
<g id="Node000002" class="node">
<title>Node2</title>
<g id="a_Node000002"><a xlink:href="assert_8h.html" target="_top" xlink:title="POSIX.1&#45;2008 compliant version of the assert macro.">
<polygon fill="white" stroke="#666666" points="385.37,-247.75 330.37,-247.75 330.37,-227 385.37,-227 385.37,-247.75"/>
<text text-anchor="middle" x="357.87" y="-234.25" font-family="Helvetica,sans-Serif" font-size="10.00">assert.h</text>
</a>
</g>
</g>
<!-- Node1&#45;&gt;Node2 -->
<g id="edge1_Node000001_Node000002" class="edge">
<title>Node1&#45;&gt;Node2</title>
<g id="a_edge1_Node000001_Node000002"><a xlink:title=" ">
<path fill="none" stroke="#63b8ff" d="M488.19,-340.11C459.6,-317.79 408.25,-277.7 379.28,-255.09"/>
<polygon fill="#63b8ff" stroke="#63b8ff" points="381.6,-252.46 371.57,-249.07 377.3,-257.98 381.6,-252.46"/>
</a>
</g>
</g>
<!-- Node3 -->
<g id="Node000003" class="node">
<title>Node3</title>
<g id="a_Node000003"><a xlink:title=" ">
<polygon fill="#e0e0e0" stroke="#999999" points="362.24,-20.75 309.49,-20.75 309.49,0 362.24,0 362.24,-20.75"/>
<text text-anchor="middle" x="335.87" y="-7.25" font-family="Helvetica,sans-Serif" font-size="10.00">stdint.h</text>
</a>
</g>
</g>
<!-- Node1&#45;&gt;Node3 -->
<g id="edge4_Node000001_Node000003" class="edge">
<title>Node1&#45;&gt;Node3</title>
<g id="a_edge4_Node000001_Node000003"><a xlink:title=" ">
<path fill="none" stroke="#63b8ff" d="M450.93,-348.98C388.47,-337.52 297.87,-308.76 297.87,-238.38 297.87,-238.38 297.87,-238.38 297.87,-122.88 297.87,-89.26 313.53,-52.85 324.75,-31.09"/>
<polygon fill="#63b8ff" stroke="#63b8ff" points="327.73,-32.94 329.38,-22.47 321.56,-29.62 327.73,-32.94"/>
</a>
</g>
</g>
<!-- Node4 -->
<g id="Node000004" class="node">
<title>Node4</title>
<g id="a_Node000004"><a xlink:href="errno_8h.html" target="_top" xlink:title=" ">
<polygon fill="white" stroke="#666666" points="806.12,-247.75 755.62,-247.75 755.62,-227 806.12,-227 806.12,-247.75"/>
<text text-anchor="middle" x="780.87" y="-234.25" font-family="Helvetica,sans-Serif" font-size="10.00">errno.h</text>
</a>
</g>
</g>
<!-- Node1&#45;&gt;Node4 -->
<g id="edge3_Node000001_Node000004" class="edge">
<title>Node1&#45;&gt;Node4</title>
<g id="a_edge3_Node000001_Node000004"><a xlink:title=" ">
<path fill="none" stroke="#63b8ff" d="M546.12,-340.11C599.53,-316.96 697.01,-274.72 747.93,-252.65"/>
<polygon fill="#63b8ff" stroke="#63b8ff" points="749.17,-255.93 756.96,-248.74 746.39,-249.5 749.17,-255.93"/>
</a>
</g>
</g>
<!-- Node5 -->
<g id="Node000005" class="node">
<title>Node5</title>
<g id="a_Node000005"><a xlink:title=" ">
<polygon fill="#e0e0e0" stroke="#999999" points="875.87,-247.75 823.87,-247.75 823.87,-227 875.87,-227 875.87,-247.75"/>
<text text-anchor="middle" x="849.87" y="-234.25" font-family="Helvetica,sans-Serif" font-size="10.00">stdlib.h</text>
</a>
</g>
</g>
<!-- Node1&#45;&gt;Node5 -->
<g id="edge5_Node000001_Node000005" class="edge">
<title>Node1&#45;&gt;Node5</title>
<g id="a_edge5_Node000001_Node000005"><a xlink:title=" ">
<path fill="none" stroke="#63b8ff" d="M557.83,-340.01C588.13,-329.91 627.8,-316.59 662.87,-304.5 715.17,-286.47 775.46,-265.03 813.13,-251.56"/>
<polygon fill="#63b8ff" stroke="#63b8ff" points="813.93,-254.99 822.17,-248.32 811.57,-248.4 813.93,-254.99"/>
</a>
</g>
</g>
<!-- Node6 -->
<g id="Node000006" class="node">
<title>Node6</title>
<g id="a_Node000006"><a xlink:title=" ">
<polygon fill="#e0e0e0" stroke="#999999" points="965.62,-247.75 894.12,-247.75 894.12,-227 965.62,-227 965.62,-247.75"/>
<text text-anchor="middle" x="929.87" y="-234.25" font-family="Helvetica,sans-Serif" font-size="10.00">sys/types.h</text>
</a>
</g>
</g>
<!-- Node1&#45;&gt;Node6 -->
<g id="edge6_Node000001_Node000006" class="edge">
<title>Node1&#45;&gt;Node6</title>
<g id="a_edge6_Node000001_Node000006"><a xlink:title=" ">
<path fill="none" stroke="#63b8ff" d="M566.44,-341.5C605.56,-331.36 658.43,-317.45 704.87,-304.5 768.32,-286.8 841.44,-265.06 886.66,-251.46"/>
<polygon fill="#63b8ff" stroke="#63b8ff" points="887.52,-254.86 896.08,-248.62 885.5,-248.15 887.52,-254.86"/>
</a>
</g>
</g>
<!-- Node7 -->
<g id="Node000007" class="node">
<title>Node7</title>
<g id="a_Node000007"><a xlink:href="sock_8h.html" target="_top" xlink:title="Common sock API definitions.">
<polygon fill="white" stroke="#666666" points="254.99,-247.75 188.74,-247.75 188.74,-227 254.99,-227 254.99,-247.75"/>
<text text-anchor="middle" x="221.87" y="-234.25" font-family="Helvetica,sans-Serif" font-size="10.00">net/sock.h</text>
</a>
</g>
</g>
<!-- Node1&#45;&gt;Node7 -->
<g id="edge7_Node000001_Node000007" class="edge">
<title>Node1&#45;&gt;Node7</title>
<g id="a_edge7_Node000001_Node000007"><a xlink:title=" ">
<path fill="none" stroke="#63b8ff" d="M450.94,-352.29C403.37,-346.92 335.64,-334.27 283.87,-304.5 263.5,-292.79 245.8,-272.25 234.59,-257.16"/>
<polygon fill="#63b8ff" stroke="#63b8ff" points="237.72,-255.53 229.07,-249.41 232.02,-259.59 237.72,-255.53"/>
</a>
</g>
</g>
<!-- Node12 -->
<g id="Node000012" class="node">
<title>Node12</title>
<g id="a_Node000012"><a xlink:href="sock_2udp_8h.html" target="_top" xlink:title="UDP sock definitions.">
<polygon fill="white" stroke="#666666" points="603.49,-304.5 516.24,-304.5 516.24,-283.75 603.49,-283.75 603.49,-304.5"/>
<text text-anchor="middle" x="559.87" y="-291" font-family="Helvetica,sans-Serif" font-size="10.00">net/sock/udp.h</text>
</a>
</g>
</g>
<!-- Node1&#45;&gt;Node12 -->
<g id="edge17_Node000001_Node000012" class="edge">
<title>Node1&#45;&gt;Node12</title>
<g id="a_edge17_Node000001_Node000012"><a xlink:title=" ">
<path fill="none" stroke="#63b8ff" d="M522.27,-340.19C529.04,-332.07 537.3,-322.17 544.35,-313.72"/>
<polygon fill="#63b8ff" stroke="#63b8ff" points="546.97,-316.05 550.69,-306.13 541.59,-311.57 546.97,-316.05"/>
</a>
</g>
</g>
<!-- Node22 -->
<g id="Node000022" class="node">
<title>Node22</title>
<g id="a_Node000022"><a xlink:href="credman_8h.html" target="_top" xlink:title="(D)TLS credentials management module definitions">
<polygon fill="white" stroke="#666666" points="126.12,-191 39.62,-191 39.62,-170.25 126.12,-170.25 126.12,-191"/>
<text text-anchor="middle" x="82.87" y="-177.5" font-family="Helvetica,sans-Serif" font-size="10.00">net/credman.h</text>
</a>
</g>
</g>
<!-- Node1&#45;&gt;Node22 -->
<g id="edge42_Node000001_Node000022" class="edge">
<title>Node1&#45;&gt;Node22</title>
<g id="a_edge42_Node000001_Node000022"><a xlink:title=" ">
<path fill="none" stroke="#63b8ff" d="M451.07,-351.41C398.19,-345.4 318.72,-332.3 254.87,-304.5 192.97,-277.55 131.21,-225.88 101.36,-198.93"/>
<polygon fill="#63b8ff" stroke="#63b8ff" points="104.01,-196.61 94.27,-192.44 99.28,-201.78 104.01,-196.61"/>
</a>
</g>
</g>
<!-- Node2&#45;&gt;Node3 -->
<g id="edge2_Node000002_Node000003" class="edge">
<title>Node2&#45;&gt;Node3</title>
<g id="a_edge2_Node000002_Node000003"><a xlink:title=" ">
<path fill="none" stroke="#63b8ff" d="M356.92,-226.71C353.62,-192.88 342.52,-79.36 337.9,-32.19"/>
<polygon fill="#63b8ff" stroke="#63b8ff" points="341.41,-32.13 336.96,-22.51 334.45,-32.81 341.41,-32.13"/>
</a>
</g>
</g>
<!-- Node7&#45;&gt;Node3 -->
<g id="edge8_Node000007_Node000003" class="edge">
<title>Node7&#45;&gt;Node3</title>
<g id="a_edge8_Node000007_Node000003"><a xlink:title=" ">
<path fill="none" stroke="#63b8ff" d="M223.41,-226.63C228.24,-198.27 245.16,-114.21 283.87,-56.75 291.38,-45.61 302.29,-35.52 312.18,-27.7"/>
<polygon fill="#63b8ff" stroke="#63b8ff" points="314.09,-30.64 319.99,-21.84 309.89,-25.04 314.09,-30.64"/>
</a>
</g>
</g>
<!-- Node8 -->
<g id="Node000008" class="node">
<title>Node8</title>
<g id="a_Node000008"><a xlink:title=" ">
<polygon fill="#e0e0e0" stroke="#999999" points="77.37,-20.75 22.37,-20.75 22.37,0 77.37,0 77.37,-20.75"/>
<text text-anchor="middle" x="49.87" y="-7.25" font-family="Helvetica,sans-Serif" font-size="10.00">stddef.h</text>
</a>
</g>
</g>
<!-- Node7&#45;&gt;Node8 -->
<g id="edge9_Node000007_Node000008" class="edge">
<title>Node7&#45;&gt;Node8</title>
<g id="a_edge9_Node000007_Node000008"><a xlink:title=" ">
<path fill="none" stroke="#63b8ff" d="M188.48,-236.73C147.18,-235.46 76.71,-227.53 30.87,-191 2.23,-168.18 -4.67,-149.34 2.87,-113.5 9.31,-82.88 26.12,-50.56 37.78,-30.68"/>
<polygon fill="#63b8ff" stroke="#63b8ff" points="40.67,-32.67 42.85,-22.3 34.68,-29.04 40.67,-32.67"/>
</a>
</g>
</g>
<!-- Node9 -->
<g id="Node000009" class="node">
<title>Node9</title>
<g id="a_Node000009"><a xlink:href="iolist_8h.html" target="_top" xlink:title="iolist scatter / gather IO">
<polygon fill="white" stroke="#666666" points="193.37,-191 144.37,-191 144.37,-170.25 193.37,-170.25 193.37,-191"/>
<text text-anchor="middle" x="168.87" y="-177.5" font-family="Helvetica,sans-Serif" font-size="10.00">iolist.h</text>
</a>
</g>
</g>
<!-- Node7&#45;&gt;Node9 -->
<g id="edge10_Node000007_Node000009" class="edge">
<title>Node7&#45;&gt;Node9</title>
<g id="a_edge10_Node000007_Node000009"><a xlink:title=" ">
<path fill="none" stroke="#63b8ff" d="M212.39,-226.59C205.08,-219.03 194.77,-208.39 186.03,-199.35"/>
<polygon fill="#63b8ff" stroke="#63b8ff" points="188.79,-197.17 179.32,-192.42 183.76,-202.04 188.79,-197.17"/>
</a>
</g>
</g>
<!-- Node10 -->
<g id="Node000010" class="node">
<title>Node10</title>
<g id="a_Node000010"><a xlink:href="unistd_8h_source.html" target="_top" xlink:title=" ">
<polygon fill="white" stroke="#666666" points="152.37,-134.25 97.37,-134.25 97.37,-113.5 152.37,-113.5 152.37,-134.25"/>
<text text-anchor="middle" x="124.87" y="-120.75" font-family="Helvetica,sans-Serif" font-size="10.00">unistd.h</text>
</a>
</g>
</g>
<!-- Node9&#45;&gt;Node10 -->
<g id="edge11_Node000009_Node000010" class="edge">
<title>Node9&#45;&gt;Node10</title>
<g id="a_edge11_Node000009_Node000010"><a xlink:title=" ">
<path fill="none" stroke="#63b8ff" d="M161,-169.84C155.12,-162.52 146.9,-152.29 139.79,-143.44"/>
<polygon fill="#63b8ff" stroke="#63b8ff" points="142.61,-141.36 133.62,-135.76 137.15,-145.75 142.61,-141.36"/>
</a>
</g>
</g>
<!-- Node10&#45;&gt;Node3 -->
<g id="edge13_Node000010_Node000003" class="edge">
<title>Node10&#45;&gt;Node3</title>
<g id="a_edge13_Node000010_Node000003"><a xlink:title=" ">
<path fill="none" stroke="#63b8ff" d="M128.82,-113.17C135.23,-98.66 149.3,-71.44 169.87,-56.75 207.99,-29.53 261.68,-18.63 297.57,-14.27"/>
<polygon fill="#63b8ff" stroke="#63b8ff" points="297.94,-17.75 307.5,-13.2 297.19,-10.8 297.94,-17.75"/>
</a>
</g>
</g>
<!-- Node10&#45;&gt;Node8 -->
<g id="edge12_Node000010_Node000008" class="edge">
<title>Node10&#45;&gt;Node8</title>
<g id="a_edge12_Node000010_Node000008"><a xlink:title=" ">
<path fill="none" stroke="#63b8ff" d="M99.16,-113.12C75.8,-103.66 43.94,-89.1 36.87,-77.5 28.32,-63.47 33.06,-44.93 39.09,-31.05"/>
<polygon fill="#63b8ff" stroke="#63b8ff" points="42.04,-32.98 43.3,-22.46 35.76,-29.9 42.04,-32.98"/>
</a>
</g>
</g>
<!-- Node11 -->
<g id="Node000011" class="node">
<title>Node11</title>
<g id="a_Node000011"><a xlink:href="cpu_2avr8__common_2avr__libc__extra_2include_2sys_2types_8h_source.html" target="_top" xlink:title=" ">
<polygon fill="white" stroke="#666666" points="117.62,-77.5 46.12,-77.5 46.12,-56.75 117.62,-56.75 117.62,-77.5"/>
<text text-anchor="middle" x="81.87" y="-64" font-family="Helvetica,sans-Serif" font-size="10.00">sys/types.h</text>
</a>
</g>
</g>
<!-- Node10&#45;&gt;Node11 -->
<g id="edge14_Node000010_Node000011" class="edge">
<title>Node10&#45;&gt;Node11</title>
<g id="a_edge14_Node000010_Node000011"><a xlink:title=" ">
<path fill="none" stroke="#63b8ff" d="M117.18,-113.09C111.43,-105.77 103.4,-95.54 96.45,-86.69"/>
<polygon fill="#63b8ff" stroke="#63b8ff" points="99.35,-84.72 90.42,-79.02 93.85,-89.05 99.35,-84.72"/>
</a>
</g>
</g>
<!-- Node11&#45;&gt;Node3 -->
<g id="edge15_Node000011_Node000003" class="edge">
<title>Node11&#45;&gt;Node3</title>
<g id="a_edge15_Node000011_Node000003"><a xlink:title=" ">
<path fill="none" stroke="#63b8ff" d="M117.99,-58.34C165.79,-48.03 249.67,-29.96 298.22,-19.49"/>
<polygon fill="#63b8ff" stroke="#63b8ff" points="298.67,-22.97 307.7,-17.45 297.19,-16.13 298.67,-22.97"/>
</a>
</g>
</g>
<!-- Node11&#45;&gt;Node8 -->
<g id="edge16_Node000011_Node000008" class="edge">
<title>Node11&#45;&gt;Node8</title>
<g id="a_edge16_Node000011_Node000008"><a xlink:title=" ">
<path fill="none" stroke="#63b8ff" d="M76.15,-56.34C72.01,-49.25 66.27,-39.44 61.22,-30.79"/>
<polygon fill="#63b8ff" stroke="#63b8ff" points="64.37,-29.25 56.3,-22.39 58.33,-32.78 64.37,-29.25"/>
</a>
</g>
</g>
<!-- Node12&#45;&gt;Node2 -->
<g id="edge18_Node000012_Node000002" class="edge">
<title>Node12&#45;&gt;Node2</title>
<g id="a_edge18_Node000012_Node000002"><a xlink:title=" ">
<path fill="none" stroke="#63b8ff" d="M523.76,-283.34C487.86,-273.61 433.01,-258.74 396.32,-248.8"/>
<polygon fill="#63b8ff" stroke="#63b8ff" points="397.59,-245.51 387.02,-246.28 395.76,-252.27 397.59,-245.51"/>
</a>
</g>
</g>
<!-- Node12&#45;&gt;Node3 -->
<g id="edge20_Node000012_Node000003" class="edge">
<title>Node12&#45;&gt;Node3</title>
<g id="a_edge20_Node000012_Node000003"><a xlink:title=" ">
<path fill="none" stroke="#63b8ff" d="M561.82,-283.43C564.64,-270.3 570.47,-246.27 578.87,-227 613.05,-148.53 725.16,-121.23 668.87,-56.75 630.96,-13.32 453.16,-9.9 374.03,-10.6"/>
<polygon fill="#63b8ff" stroke="#63b8ff" points="374.12,-7.1 364.16,-10.72 374.2,-14.1 374.12,-7.1"/>
</a>
</g>
</g>
<!-- Node12&#45;&gt;Node4 -->
<g id="edge19_Node000012_Node000004" class="edge">
<title>Node12&#45;&gt;Node4</title>
<g id="a_edge19_Node000012_Node000004"><a xlink:title=" ">
<path fill="none" stroke="#63b8ff" d="M601.92,-283.31C637.51,-274.92 690.14,-262.31 744.4,-248.34"/>
<polygon fill="#63b8ff" stroke="#63b8ff" points="745,-251.8 753.81,-245.9 743.25,-245.02 745,-251.8"/>
</a>
</g>
</g>
<!-- Node12&#45;&gt;Node5 -->
<g id="edge21_Node000012_Node000005" class="edge">
<title>Node12&#45;&gt;Node5</title>
<g id="a_edge21_Node000012_Node000005"><a xlink:title=" ">
<path fill="none" stroke="#63b8ff" d="M603.86,-286.47C652.58,-278.84 733.65,-265.39 812.45,-248.14"/>
<polygon fill="#63b8ff" stroke="#63b8ff" points="813.07,-251.59 822.08,-246.01 811.56,-244.75 813.07,-251.59"/>
</a>
</g>
</g>
<!-- Node12&#45;&gt;Node6 -->
<g id="edge22_Node000012_Node000006" class="edge">
<title>Node12&#45;&gt;Node6</title>
<g id="a_edge22_Node000012_Node000006"><a xlink:title=" ">
<path fill="none" stroke="#63b8ff" d="M603.91,-287.92C664.39,-280.57 776.8,-266.16 882.82,-248"/>
<polygon fill="#63b8ff" stroke="#63b8ff" points="883.3,-251.47 892.56,-246.32 882.11,-244.58 883.3,-251.47"/>
</a>
</g>
</g>
<!-- Node12&#45;&gt;Node7 -->
<g id="edge24_Node000012_Node000007" class="edge">
<title>Node12&#45;&gt;Node7</title>
<g id="a_edge24_Node000012_Node000007"><a xlink:title=" ">
<path fill="none" stroke="#63b8ff" d="M516.03,-286.02C451.49,-275.57 331.55,-256.14 266.54,-245.61"/>
<polygon fill="#63b8ff" stroke="#63b8ff" points="267.38,-242.2 256.95,-244.06 266.26,-249.11 267.38,-242.2"/>
</a>
</g>
</g>
<!-- Node13 -->
<g id="Node000013" class="node">
<title>Node13</title>
<g id="a_Node000013"><a xlink:href="af_8h.html" target="_top" xlink:title="Global UNIX address family definitions.">
<polygon fill="white" stroke="#666666" points="640.24,-247.75 587.49,-247.75 587.49,-227 640.24,-227 640.24,-247.75"/>
<text text-anchor="middle" x="613.87" y="-234.25" font-family="Helvetica,sans-Serif" font-size="10.00">net/af.h</text>
</a>
</g>
</g>
<!-- Node12&#45;&gt;Node13 -->
<g id="edge23_Node000012_Node000013" class="edge">
<title>Node12&#45;&gt;Node13</title>
<g id="a_edge23_Node000012_Node000013"><a xlink:title=" ">
<path fill="none" stroke="#63b8ff" d="M569.52,-283.34C576.97,-275.78 587.47,-265.14 596.39,-256.1"/>
<polygon fill="#63b8ff" stroke="#63b8ff" points="598.71,-258.73 603.24,-249.16 593.72,-253.82 598.71,-258.73"/>
</a>
</g>
</g>
<!-- Node14 -->
<g id="Node000014" class="node">
<title>Node14</title>
<g id="a_Node000014"><a xlink:href="ipv4_2addr_8h.html" target="_top" xlink:title="IPv4 address type and helper functions definitions.">
<polygon fill="white" stroke="#666666" points="458.62,-191 369.12,-191 369.12,-170.25 458.62,-170.25 458.62,-191"/>
<text text-anchor="middle" x="413.87" y="-177.5" font-family="Helvetica,sans-Serif" font-size="10.00">net/ipv4/addr.h</text>
</a>
</g>
</g>
<!-- Node12&#45;&gt;Node14 -->
<g id="edge25_Node000012_Node000014" class="edge">
<title>Node12&#45;&gt;Node14</title>
<g id="a_edge25_Node000012_Node000014"><a xlink:title=" ">
<path fill="none" stroke="#63b8ff" d="M515.77,-287.68C488.38,-282.07 454.42,-270.71 432.87,-247.75 421.36,-235.49 416.77,-216.72 414.96,-202.31"/>
<polygon fill="#63b8ff" stroke="#63b8ff" points="418.46,-202.2 414.11,-192.54 411.49,-202.81 418.46,-202.2"/>
</a>
</g>
</g>
<!-- Node20 -->
<g id="Node000020" class="node">
<title>Node20</title>
<g id="a_Node000020"><a xlink:href="ipv6_2addr_8h.html" target="_top" xlink:title="Definitions for IPv6 addresses.">
<polygon fill="white" stroke="#666666" points="531.62,-247.75 442.12,-247.75 442.12,-227 531.62,-227 531.62,-247.75"/>
<text text-anchor="middle" x="486.87" y="-234.25" font-family="Helvetica,sans-Serif" font-size="10.00">net/ipv6/addr.h</text>
</a>
</g>
</g>
<!-- Node12&#45;&gt;Node20 -->
<g id="edge36_Node000012_Node000020" class="edge">
<title>Node12&#45;&gt;Node20</title>
<g id="a_edge36_Node000012_Node000020"><a xlink:title=" ">
<path fill="none" stroke="#63b8ff" d="M546.82,-283.34C536.23,-275.4 521.08,-264.03 508.65,-254.71"/>
<polygon fill="#63b8ff" stroke="#63b8ff" points="511.12,-252.19 501.02,-248.99 506.92,-257.79 511.12,-252.19"/>
</a>
</g>
</g>
<!-- Node21 -->
<g id="Node000021" class="node">
<title>Node21</title>
<g id="a_Node000021"><a xlink:title=" ">
<polygon fill="#e0e0e0" stroke="#999999" points="737.74,-247.75 657.99,-247.75 657.99,-227 737.74,-227 737.74,-247.75"/>
<text text-anchor="middle" x="697.87" y="-234.25" font-family="Helvetica,sans-Serif" font-size="10.00">sock_types.h</text>
</a>
</g>
</g>
<!-- Node12&#45;&gt;Node21 -->
<g id="edge41_Node000012_Node000021" class="edge">
<title>Node12&#45;&gt;Node21</title>
<g id="a_edge41_Node000012_Node000021"><a xlink:title=" ">
<path fill="none" stroke="#63b8ff" d="M584.54,-283.34C606.32,-274.69 638.33,-262 662.77,-252.3"/>
<polygon fill="#63b8ff" stroke="#63b8ff" points="664,-255.58 672,-248.64 661.42,-249.07 664,-255.58"/>
</a>
</g>
</g>
<!-- Node14&#45;&gt;Node3 -->
<g id="edge27_Node000014_Node000003" class="edge">
<title>Node14&#45;&gt;Node3</title>
<g id="a_edge27_Node000014_Node000003"><a xlink:title=" ">
<path fill="none" stroke="#63b8ff" d="M409.45,-170.1C397.12,-143.5 362.13,-68.02 345.23,-31.57"/>
<polygon fill="#63b8ff" stroke="#63b8ff" points="348.45,-30.19 341.07,-22.59 342.1,-33.14 348.45,-30.19"/>
</a>
</g>
</g>
<!-- Node14&#45;&gt;Node8 -->
<g id="edge28_Node000014_Node000008" class="edge">
<title>Node14&#45;&gt;Node8</title>
<g id="a_edge28_Node000014_Node000008"><a xlink:title=" ">
<path fill="none" stroke="#63b8ff" d="M392.73,-169.85C331.53,-141.57 154.02,-59.51 81.4,-25.95"/>
<polygon fill="#63b8ff" stroke="#63b8ff" points="82.99,-22.83 72.44,-21.81 80.05,-29.18 82.99,-22.83"/>
</a>
</g>
</g>
<!-- Node15 -->
<g id="Node000015" class="node">
<title>Node15</title>
<g id="a_Node000015"><a xlink:title=" ">
<polygon fill="#e0e0e0" stroke="#999999" points="561.37,-134.25 500.37,-134.25 500.37,-113.5 561.37,-113.5 561.37,-134.25"/>
<text text-anchor="middle" x="530.87" y="-120.75" font-family="Helvetica,sans-Serif" font-size="10.00">stdbool.h</text>
</a>
</g>
</g>
<!-- Node14&#45;&gt;Node15 -->
<g id="edge26_Node000014_Node000015" class="edge">
<title>Node14&#45;&gt;Node15</title>
<g id="a_edge26_Node000014_Node000015"><a xlink:title=" ">
<path fill="none" stroke="#63b8ff" d="M434.79,-169.84C452.84,-161.39 479.17,-149.07 499.7,-139.46"/>
<polygon fill="#63b8ff" stroke="#63b8ff" points="501.19,-142.63 508.76,-135.22 498.22,-136.29 501.19,-142.63"/>
</a>
</g>
</g>
<!-- Node16 -->
<g id="Node000016" class="node">
<title>Node16</title>
<g id="a_Node000016"><a xlink:href="byteorder_8h.html" target="_top" xlink:title="Functions to work with different byte orders.">
<polygon fill="white" stroke="#666666" points="481.99,-134.25 409.74,-134.25 409.74,-113.5 481.99,-113.5 481.99,-134.25"/>
<text text-anchor="middle" x="445.87" y="-120.75" font-family="Helvetica,sans-Serif" font-size="10.00">byteorder.h</text>
</a>
</g>
</g>
<!-- Node14&#45;&gt;Node16 -->
<g id="edge29_Node000014_Node000016" class="edge">
<title>Node14&#45;&gt;Node16</title>
<g id="a_edge29_Node000014_Node000016"><a xlink:title=" ">
<path fill="none" stroke="#63b8ff" d="M419.59,-169.84C423.73,-162.75 429.46,-152.94 434.52,-144.29"/>
<polygon fill="#63b8ff" stroke="#63b8ff" points="437.41,-146.28 439.43,-135.89 431.37,-142.75 437.41,-146.28"/>
</a>
</g>
</g>
<!-- Node16&#45;&gt;Node3 -->
<g id="edge31_Node000016_Node000003" class="edge">
<title>Node16&#45;&gt;Node3</title>
<g id="a_edge31_Node000016_Node000003"><a xlink:title=" ">
<path fill="none" stroke="#63b8ff" d="M482.25,-113.34C512.36,-104.63 551.63,-91.07 560.87,-77.5 566.06,-69.88 566.71,-63.89 560.87,-56.75 537.67,-28.41 431.76,-17.37 373.9,-13.4"/>
<polygon fill="#63b8ff" stroke="#63b8ff" points="374.38,-9.93 364.17,-12.78 373.93,-16.91 374.38,-9.93"/>
</a>
</g>
</g>
<!-- Node17 -->
<g id="Node000017" class="node">
<title>Node17</title>
<g id="a_Node000017"><a xlink:title=" ">
<polygon fill="#e0e0e0" stroke="#999999" points="660.24,-77.5 607.49,-77.5 607.49,-56.75 660.24,-56.75 660.24,-77.5"/>
<text text-anchor="middle" x="633.87" y="-64" font-family="Helvetica,sans-Serif" font-size="10.00">string.h</text>
</a>
</g>
</g>
<!-- Node16&#45;&gt;Node17 -->
<g id="edge30_Node000016_Node000017" class="edge">
<title>Node16&#45;&gt;Node17</title>
<g id="a_edge30_Node000016_Node000017"><a xlink:title=" ">
<path fill="none" stroke="#63b8ff" d="M479.48,-113.09C512.31,-103.53 562.19,-89 596.31,-79.06"/>
<polygon fill="#63b8ff" stroke="#63b8ff" points="597.15,-82.46 605.78,-76.31 595.2,-75.74 597.15,-82.46"/>
</a>
</g>
</g>
<!-- Node18 -->
<g id="Node000018" class="node">
<title>Node18</title>
<g id="a_Node000018"><a xlink:href="endian_8h.html" target="_top" xlink:title="libc header for endian conversion">
<polygon fill="white" stroke="#666666" points="459.87,-77.5 401.87,-77.5 401.87,-56.75 459.87,-56.75 459.87,-77.5"/>
<text text-anchor="middle" x="430.87" y="-64" font-family="Helvetica,sans-Serif" font-size="10.00">endian.h</text>
</a>
</g>
</g>
<!-- Node16&#45;&gt;Node18 -->
<g id="edge32_Node000016_Node000018" class="edge">
<title>Node16&#45;&gt;Node18</title>
<g id="a_edge32_Node000016_Node000018"><a xlink:title=" ">
<path fill="none" stroke="#63b8ff" d="M443.19,-113.09C441.33,-106.31 438.79,-97.05 436.5,-88.69"/>
<polygon fill="#63b8ff" stroke="#63b8ff" points="439.95,-88.01 433.93,-79.29 433.19,-89.86 439.95,-88.01"/>
</a>
</g>
</g>
<!-- Node19 -->
<g id="Node000019" class="node">
<title>Node19</title>
<g id="a_Node000019"><a xlink:href="unaligned_8h.html" target="_top" xlink:title="Unaligned but safe memory access functions.">
<polygon fill="white" stroke="#666666" points="551.37,-77.5 478.37,-77.5 478.37,-56.75 551.37,-56.75 551.37,-77.5"/>
<text text-anchor="middle" x="514.87" y="-64" font-family="Helvetica,sans-Serif" font-size="10.00">unaligned.h</text>
</a>
</g>
</g>
<!-- Node16&#45;&gt;Node19 -->
<g id="edge34_Node000016_Node000019" class="edge">
<title>Node16&#45;&gt;Node19</title>
<g id="a_edge34_Node000016_Node000019"><a xlink:title=" ">
<path fill="none" stroke="#63b8ff" d="M458.2,-113.09C468.12,-105.22 482.26,-94 493.93,-84.74"/>
<polygon fill="#63b8ff" stroke="#63b8ff" points="495.8,-87.73 501.45,-78.77 491.45,-82.24 495.8,-87.73"/>
</a>
</g>
</g>
<!-- Node18&#45;&gt;Node3 -->
<g id="edge33_Node000018_Node000003" class="edge">
<title>Node18&#45;&gt;Node3</title>
<g id="a_edge33_Node000018_Node000003"><a xlink:title=" ">
<path fill="none" stroke="#63b8ff" d="M413.89,-56.34C399.57,-48.08 378.83,-36.13 362.33,-26.63"/>
<polygon fill="#63b8ff" stroke="#63b8ff" points="364.43,-23.8 354.02,-21.83 360.93,-29.86 364.43,-23.8"/>
</a>
</g>
</g>
<!-- Node19&#45;&gt;Node3 -->
<g id="edge35_Node000019_Node000003" class="edge">
<title>Node19&#45;&gt;Node3</title>
<g id="a_edge35_Node000019_Node000003"><a xlink:title=" ">
<path fill="none" stroke="#63b8ff" d="M482.87,-56.34C452.19,-46.95 405.89,-32.79 373.47,-22.88"/>
<polygon fill="#63b8ff" stroke="#63b8ff" points="374.67,-19.58 364.08,-20 372.62,-26.28 374.67,-19.58"/>
</a>
</g>
</g>
<!-- Node20&#45;&gt;Node14 -->
<g id="edge40_Node000020_Node000014" class="edge">
<title>Node20&#45;&gt;Node14</title>
<g id="a_edge40_Node000020_Node000014"><a xlink:title=" ">
<path fill="none" stroke="#63b8ff" d="M473.82,-226.59C463.23,-218.65 448.08,-207.28 435.65,-197.96"/>
<polygon fill="#63b8ff" stroke="#63b8ff" points="438.12,-195.44 428.02,-192.24 433.92,-201.04 438.12,-195.44"/>
</a>
</g>
</g>
<!-- Node20&#45;&gt;Node15 -->
<g id="edge37_Node000020_Node000015" class="edge">
<title>Node20&#45;&gt;Node15</title>
<g id="a_edge37_Node000020_Node000015"><a xlink:title=" ">
<path fill="none" stroke="#63b8ff" d="M490.62,-226.87C497.73,-208.86 513.3,-169.39 522.86,-145.18"/>
<polygon fill="#63b8ff" stroke="#63b8ff" points="526.03,-146.67 526.45,-136.08 519.52,-144.1 526.03,-146.67"/>
</a>
</g>
</g>
<!-- Node20&#45;&gt;Node16 -->
<g id="edge39_Node000020_Node000016" class="edge">
<title>Node20&#45;&gt;Node16</title>
<g id="a_edge39_Node000020_Node000016"><a xlink:title=" ">
<path fill="none" stroke="#63b8ff" d="M484.66,-226.79C481.55,-213.77 475.39,-189.88 467.87,-170.25 464.59,-161.69 460.32,-152.55 456.41,-144.72"/>
<polygon fill="#63b8ff" stroke="#63b8ff" points="459.65,-143.38 451.96,-136.09 453.43,-146.59 459.65,-143.38"/>
</a>
</g>
</g>
<!-- Node20&#45;&gt;Node17 -->
<g id="edge38_Node000020_Node000017" class="edge">
<title>Node20&#45;&gt;Node17</title>
<g id="a_edge38_Node000020_Node000017"><a xlink:title=" ">
<path fill="none" stroke="#63b8ff" d="M495.19,-226.85C518.83,-199.79 586.67,-122.15 617.85,-86.46"/>
<polygon fill="#63b8ff" stroke="#63b8ff" points="620.33,-88.94 624.27,-79.11 615.06,-84.34 620.33,-88.94"/>
</a>
</g>
</g>
<!-- Node22&#45;&gt;Node3 -->
<g id="edge44_Node000022_Node000003" class="edge">
<title>Node22&#45;&gt;Node3</title>
<g id="a_edge44_Node000022_Node000003"><a xlink:title=" ">
<path fill="none" stroke="#63b8ff" d="M102.78,-169.78C119.23,-161.28 142.87,-148.2 161.87,-134.25 202.82,-104.19 204.12,-85.69 245.87,-56.75 263.26,-44.7 284.3,-33.91 301.66,-25.88"/>
<polygon fill="#63b8ff" stroke="#63b8ff" points="302.87,-29.17 310.55,-21.87 299.99,-22.79 302.87,-29.17"/>
</a>
</g>
</g>
<!-- Node22&#45;&gt;Node10 -->
<g id="edge43_Node000022_Node000010" class="edge">
<title>Node22&#45;&gt;Node10</title>
<g id="a_edge43_Node000022_Node000010"><a xlink:title=" ">
<path fill="none" stroke="#63b8ff" d="M90.38,-169.84C95.99,-162.52 103.84,-152.29 110.63,-143.44"/>
<polygon fill="#63b8ff" stroke="#63b8ff" points="113.19,-145.84 116.5,-135.78 107.64,-141.58 113.19,-145.84"/>
</a>
</g>
</g>
<!-- Node23 -->
<g id="Node000023" class="node">
<title>Node23</title>
<g id="a_Node000023"><a xlink:href="modules_8h.html" target="_top" xlink:title="Common macros and compiler attributes/pragmas configuration.">
<polygon fill="white" stroke="#666666" points="79.37,-134.25 12.37,-134.25 12.37,-113.5 79.37,-113.5 79.37,-134.25"/>
<text text-anchor="middle" x="45.87" y="-120.75" font-family="Helvetica,sans-Serif" font-size="10.00">modules.h</text>
</a>
</g>
</g>
<!-- Node22&#45;&gt;Node23 -->
<g id="edge45_Node000022_Node000023" class="edge">
<title>Node22&#45;&gt;Node23</title>
<g id="a_edge45_Node000022_Node000023"><a xlink:title=" ">
<path fill="none" stroke="#63b8ff" d="M76.25,-169.84C71.41,-162.67 64.69,-152.73 58.8,-144.01"/>
<polygon fill="#63b8ff" stroke="#63b8ff" points="61.77,-142.16 53.27,-135.83 55.97,-146.08 61.77,-142.16"/>
</a>
</g>
</g>
</g>
</svg>
