<?xml version="1.0" encoding="UTF-8" standalone="no"?>
<!DOCTYPE svg PUBLIC "-//W3C//DTD SVG 1.1//EN"
 "http://www.w3.org/Graphics/SVG/1.1/DTD/svg11.dtd">
<!-- Generated by graphviz version 12.1.1 (0)
 -->
<!-- Title: sys/include/fs/spiffs_fs.h Pages: 1 -->
<svg width="1275pt" height="483pt"
 viewBox="0.00 0.00 1275.00 482.75" xmlns="http://www.w3.org/2000/svg" xmlns:xlink="http://www.w3.org/1999/xlink">
<g id="graph0" class="graph" transform="scale(1 1) rotate(0) translate(4 478.75)">
<title>sys/include/fs/spiffs_fs.h</title>
<!-- Node1 -->
<g id="Node000001" class="node">
<title>Node1</title>
<g id="a_Node000001"><a xlink:title="SPIFFS integration with vfs.">
<polygon fill="#999999" stroke="#666666" points="846,-474.75 710,-474.75 710,-454 846,-454 846,-474.75"/>
<text text-anchor="middle" x="778" y="-461.25" font-family="Helvetica,sans-Serif" font-size="10.00">sys/include/fs/spiffs_fs.h</text>
</a>
</g>
</g>
<!-- Node2 -->
<g id="Node000002" class="node">
<title>Node2</title>
<g id="a_Node000002"><a xlink:title=" ">
<polygon fill="#e0e0e0" stroke="#999999" points="694,-418 642,-418 642,-397.25 694,-397.25 694,-418"/>
<text text-anchor="middle" x="668" y="-404.5" font-family="Helvetica,sans-Serif" font-size="10.00">spiffs.h</text>
</a>
</g>
</g>
<!-- Node1&#45;&gt;Node2 -->
<g id="edge1_Node000001_Node000002" class="edge">
<title>Node1&#45;&gt;Node2</title>
<g id="a_edge1_Node000001_Node000002"><a xlink:title=" ">
<path fill="none" stroke="#63b8ff" d="M758.33,-453.59C741.44,-445.18 716.83,-432.93 697.57,-423.34"/>
<polygon fill="#63b8ff" stroke="#63b8ff" points="699.36,-420.33 688.85,-419 696.24,-426.59 699.36,-420.33"/>
</a>
</g>
</g>
<!-- Node3 -->
<g id="Node000003" class="node">
<title>Node3</title>
<g id="a_Node000003"><a xlink:href="spiffs__config_8h_source.html" target="_top" xlink:title=" ">
<polygon fill="white" stroke="#666666" points="220.62,-361.25 133.38,-361.25 133.38,-340.5 220.62,-340.5 220.62,-361.25"/>
<text text-anchor="middle" x="177" y="-347.75" font-family="Helvetica,sans-Serif" font-size="10.00">spiffs_config.h</text>
</a>
</g>
</g>
<!-- Node1&#45;&gt;Node3 -->
<g id="edge2_Node000001_Node000003" class="edge">
<title>Node1&#45;&gt;Node3</title>
<g id="a_edge2_Node000001_Node000003"><a xlink:title=" ">
<path fill="none" stroke="#63b8ff" d="M770.51,-453.61C758.26,-438.48 732.37,-409.82 703,-397.25 692.25,-392.65 364.45,-366.56 231.86,-356.15"/>
<polygon fill="#63b8ff" stroke="#63b8ff" points="232.53,-352.7 222.28,-355.4 231.98,-359.67 232.53,-352.7"/>
</a>
</g>
</g>
<!-- Node20 -->
<g id="Node000020" class="node">
<title>Node20</title>
<g id="a_Node000020"><a xlink:title=" ">
<polygon fill="#e0e0e0" stroke="#999999" points="864,-418 824,-418 824,-397.25 864,-397.25 864,-418"/>
<text text-anchor="middle" x="844" y="-404.5" font-family="Helvetica,sans-Serif" font-size="10.00">vfs.h</text>
</a>
</g>
</g>
<!-- Node1&#45;&gt;Node20 -->
<g id="edge30_Node000001_Node000020" class="edge">
<title>Node1&#45;&gt;Node20</title>
<g id="a_edge30_Node000001_Node000020"><a xlink:title=" ">
<path fill="none" stroke="#63b8ff" d="M789.8,-453.59C799.18,-445.8 812.54,-434.72 823.64,-425.51"/>
<polygon fill="#63b8ff" stroke="#63b8ff" points="825.68,-428.37 831.14,-419.29 821.21,-422.99 825.68,-428.37"/>
</a>
</g>
</g>
<!-- Node21 -->
<g id="Node000021" class="node">
<title>Node21</title>
<g id="a_Node000021"><a xlink:title=" ">
<polygon fill="#e0e0e0" stroke="#999999" points="926.25,-418 881.75,-418 881.75,-397.25 926.25,-397.25 926.25,-418"/>
<text text-anchor="middle" x="904" y="-404.5" font-family="Helvetica,sans-Serif" font-size="10.00">mtd.h</text>
</a>
</g>
</g>
<!-- Node1&#45;&gt;Node21 -->
<g id="edge31_Node000001_Node000021" class="edge">
<title>Node1&#45;&gt;Node21</title>
<g id="a_edge31_Node000001_Node000021"><a xlink:title=" ">
<path fill="none" stroke="#63b8ff" d="M800.53,-453.59C820.24,-445.02 849.11,-432.48 871.35,-422.81"/>
<polygon fill="#63b8ff" stroke="#63b8ff" points="872.5,-426.13 880.28,-418.93 869.71,-419.71 872.5,-426.13"/>
</a>
</g>
</g>
<!-- Node22 -->
<g id="Node000022" class="node">
<title>Node22</title>
<g id="a_Node000022"><a xlink:href="mutex_8h.html" target="_top" xlink:title="Mutex for thread synchronization.">
<polygon fill="white" stroke="#666666" points="806.25,-418 749.75,-418 749.75,-397.25 806.25,-397.25 806.25,-418"/>
<text text-anchor="middle" x="778" y="-404.5" font-family="Helvetica,sans-Serif" font-size="10.00">mutex.h</text>
</a>
</g>
</g>
<!-- Node1&#45;&gt;Node22 -->
<g id="edge32_Node000001_Node000022" class="edge">
<title>Node1&#45;&gt;Node22</title>
<g id="a_edge32_Node000001_Node000022"><a xlink:title=" ">
<path fill="none" stroke="#63b8ff" d="M778,-453.59C778,-446.97 778,-437.97 778,-429.77"/>
<polygon fill="#63b8ff" stroke="#63b8ff" points="781.5,-429.84 778,-419.84 774.5,-429.84 781.5,-429.84"/>
</a>
</g>
</g>
<!-- Node4 -->
<g id="Node000004" class="node">
<title>Node4</title>
<g id="a_Node000004"><a xlink:title=" ">
<polygon fill="#e0e0e0" stroke="#999999" points="284.38,-304.5 231.62,-304.5 231.62,-283.75 284.38,-283.75 284.38,-304.5"/>
<text text-anchor="middle" x="258" y="-291" font-family="Helvetica,sans-Serif" font-size="10.00">board.h</text>
</a>
</g>
</g>
<!-- Node3&#45;&gt;Node4 -->
<g id="edge3_Node000003_Node000004" class="edge">
<title>Node3&#45;&gt;Node4</title>
<g id="a_edge3_Node000003_Node000004"><a xlink:title=" ">
<path fill="none" stroke="#63b8ff" d="M191.48,-340.09C203.35,-332.07 220.37,-320.56 234.23,-311.19"/>
<polygon fill="#63b8ff" stroke="#63b8ff" points="236.07,-314.18 242.39,-305.68 232.15,-308.38 236.07,-314.18"/>
</a>
</g>
</g>
<!-- Node5 -->
<g id="Node000005" class="node">
<title>Node5</title>
<g id="a_Node000005"><a xlink:href="stdio_8h.html" target="_top" xlink:title="stdio wrapper to extend the C libs stdio">
<polygon fill="white" stroke="#666666" points="389.5,-304.5 340.5,-304.5 340.5,-283.75 389.5,-283.75 389.5,-304.5"/>
<text text-anchor="middle" x="365" y="-291" font-family="Helvetica,sans-Serif" font-size="10.00">stdio.h</text>
</a>
</g>
</g>
<!-- Node3&#45;&gt;Node5 -->
<g id="edge4_Node000003_Node000005" class="edge">
<title>Node3&#45;&gt;Node5</title>
<g id="a_edge4_Node000003_Node000005"><a xlink:title=" ">
<path fill="none" stroke="#63b8ff" d="M210.61,-340.09C244.01,-330.36 295.05,-315.49 329.2,-305.55"/>
<polygon fill="#63b8ff" stroke="#63b8ff" points="330.01,-308.96 338.63,-302.8 328.05,-302.24 330.01,-308.96"/>
</a>
</g>
</g>
<!-- Node7 -->
<g id="Node000007" class="node">
<title>Node7</title>
<g id="a_Node000007"><a xlink:title=" ">
<polygon fill="#e0e0e0" stroke="#999999" points="322.38,-191 269.62,-191 269.62,-170.25 322.38,-170.25 322.38,-191"/>
<text text-anchor="middle" x="296" y="-177.5" font-family="Helvetica,sans-Serif" font-size="10.00">string.h</text>
</a>
</g>
</g>
<!-- Node3&#45;&gt;Node7 -->
<g id="edge21_Node000003_Node000007" class="edge">
<title>Node3&#45;&gt;Node7</title>
<g id="a_edge21_Node000003_Node000007"><a xlink:title=" ">
<path fill="none" stroke="#63b8ff" d="M155.74,-340.11C132.9,-328.18 101.59,-306.72 115,-283.75 145.82,-230.98 215.08,-203.33 258.43,-190.67"/>
<polygon fill="#63b8ff" stroke="#63b8ff" points="259.23,-194.08 267.93,-188.03 257.35,-187.33 259.23,-194.08"/>
</a>
</g>
</g>
<!-- Node12 -->
<g id="Node000012" class="node">
<title>Node12</title>
<g id="a_Node000012"><a xlink:title=" ">
<polygon fill="#e0e0e0" stroke="#999999" points="568.38,-20.75 515.62,-20.75 515.62,0 568.38,0 568.38,-20.75"/>
<text text-anchor="middle" x="542" y="-7.25" font-family="Helvetica,sans-Serif" font-size="10.00">stdint.h</text>
</a>
</g>
</g>
<!-- Node3&#45;&gt;Node12 -->
<g id="edge29_Node000003_Node000012" class="edge">
<title>Node3&#45;&gt;Node12</title>
<g id="a_edge29_Node000003_Node000012"><a xlink:title=" ">
<path fill="none" stroke="#63b8ff" d="M133.25,-342.13C80.83,-330.04 0,-301.21 0,-238.38 0,-238.38 0,-238.38 0,-122.88 0,-19.79 380.89,-11.18 504.07,-11.09"/>
<polygon fill="#63b8ff" stroke="#63b8ff" points="503.97,-14.59 513.98,-11.11 503.98,-7.59 503.97,-14.59"/>
</a>
</g>
</g>
<!-- Node16 -->
<g id="Node000016" class="node">
<title>Node16</title>
<g id="a_Node000016"><a xlink:title=" ">
<polygon fill="#e0e0e0" stroke="#999999" points="269.5,-77.5 214.5,-77.5 214.5,-56.75 269.5,-56.75 269.5,-77.5"/>
<text text-anchor="middle" x="242" y="-64" font-family="Helvetica,sans-Serif" font-size="10.00">stddef.h</text>
</a>
</g>
</g>
<!-- Node3&#45;&gt;Node16 -->
<g id="edge22_Node000003_Node000016" class="edge">
<title>Node3&#45;&gt;Node16</title>
<g id="a_edge22_Node000003_Node000016"><a xlink:title=" ">
<path fill="none" stroke="#63b8ff" d="M180.98,-340.22C188.49,-321.12 204,-277.01 204,-238.38 204,-238.38 204,-238.38 204,-179.62 204,-146.01 219.66,-109.6 230.88,-87.84"/>
<polygon fill="#63b8ff" stroke="#63b8ff" points="233.86,-89.69 235.51,-79.22 227.69,-86.37 233.86,-89.69"/>
</a>
</g>
</g>
<!-- Node17 -->
<g id="Node000017" class="node">
<title>Node17</title>
<g id="a_Node000017"><a xlink:title=" ">
<polygon fill="#e0e0e0" stroke="#999999" points="176,-304.5 124,-304.5 124,-283.75 176,-283.75 176,-304.5"/>
<text text-anchor="middle" x="150" y="-291" font-family="Helvetica,sans-Serif" font-size="10.00">stdlib.h</text>
</a>
</g>
</g>
<!-- Node3&#45;&gt;Node17 -->
<g id="edge20_Node000003_Node000017" class="edge">
<title>Node3&#45;&gt;Node17</title>
<g id="a_edge20_Node000003_Node000017"><a xlink:title=" ">
<path fill="none" stroke="#63b8ff" d="M172.17,-340.09C168.76,-333.16 164.05,-323.62 159.86,-315.11"/>
<polygon fill="#63b8ff" stroke="#63b8ff" points="163.02,-313.61 155.45,-306.19 156.74,-316.7 163.02,-313.61"/>
</a>
</g>
</g>
<!-- Node18 -->
<g id="Node000018" class="node">
<title>Node18</title>
<g id="a_Node000018"><a xlink:href="unistd_8h_source.html" target="_top" xlink:title=" ">
<polygon fill="white" stroke="#666666" points="107.5,-191 52.5,-191 52.5,-170.25 107.5,-170.25 107.5,-191"/>
<text text-anchor="middle" x="80" y="-177.5" font-family="Helvetica,sans-Serif" font-size="10.00">unistd.h</text>
</a>
</g>
</g>
<!-- Node3&#45;&gt;Node18 -->
<g id="edge23_Node000003_Node000018" class="edge">
<title>Node3&#45;&gt;Node18</title>
<g id="a_edge23_Node000003_Node000018"><a xlink:title=" ">
<path fill="none" stroke="#63b8ff" d="M133.12,-340.01C114.03,-333.33 93.45,-322.34 82,-304.5 62.09,-273.49 68.14,-228.38 74.18,-202.32"/>
<polygon fill="#63b8ff" stroke="#63b8ff" points="77.56,-203.23 76.65,-192.67 70.78,-201.49 77.56,-203.23"/>
</a>
</g>
</g>
<!-- Node6 -->
<g id="Node000006" class="node">
<title>Node6</title>
<g id="a_Node000006"><a xlink:href="flash__utils_8h.html" target="_top" xlink:title="Utility functions, macros, and types for read&#45;only memory.">
<polygon fill="white" stroke="#666666" points="397.62,-247.75 322.38,-247.75 322.38,-227 397.62,-227 397.62,-247.75"/>
<text text-anchor="middle" x="360" y="-234.25" font-family="Helvetica,sans-Serif" font-size="10.00">flash_utils.h</text>
</a>
</g>
</g>
<!-- Node5&#45;&gt;Node6 -->
<g id="edge5_Node000005_Node000006" class="edge">
<title>Node5&#45;&gt;Node6</title>
<g id="a_edge5_Node000005_Node000006"><a xlink:title=" ">
<path fill="none" stroke="#63b8ff" d="M358.79,-283.34C356.91,-276.72 355.67,-267.72 355.34,-259.52"/>
<polygon fill="#63b8ff" stroke="#63b8ff" points="358.84,-259.67 355.55,-249.59 351.84,-259.51 358.84,-259.67"/>
</a>
</g>
</g>
<!-- Node6&#45;&gt;Node5 -->
<g id="edge6_Node000006_Node000005" class="edge">
<title>Node6&#45;&gt;Node5</title>
<g id="a_edge6_Node000006_Node000005"><a xlink:title=" ">
<path fill="none" stroke="#63b8ff" d="M366.19,-248.08C368.07,-254.68 369.32,-263.66 369.66,-271.88"/>
<polygon fill="#63b8ff" stroke="#63b8ff" points="366.16,-271.75 369.45,-281.82 373.16,-271.9 366.16,-271.75"/>
</a>
</g>
</g>
<!-- Node6&#45;&gt;Node7 -->
<g id="edge7_Node000006_Node000007" class="edge">
<title>Node6&#45;&gt;Node7</title>
<g id="a_edge7_Node000006_Node000007"><a xlink:title=" ">
<path fill="none" stroke="#63b8ff" d="M348.56,-226.59C339.55,-218.88 326.77,-207.95 316.07,-198.79"/>
<polygon fill="#63b8ff" stroke="#63b8ff" points="318.37,-196.15 308.49,-192.31 313.82,-201.47 318.37,-196.15"/>
</a>
</g>
</g>
<!-- Node8 -->
<g id="Node000008" class="node">
<title>Node8</title>
<g id="a_Node000008"><a xlink:title=" ">
<polygon fill="#e0e0e0" stroke="#999999" points="407.88,-191 340.12,-191 340.12,-170.25 407.88,-170.25 407.88,-191"/>
<text text-anchor="middle" x="374" y="-177.5" font-family="Helvetica,sans-Serif" font-size="10.00">cpu_conf.h</text>
</a>
</g>
</g>
<!-- Node6&#45;&gt;Node8 -->
<g id="edge8_Node000006_Node000008" class="edge">
<title>Node6&#45;&gt;Node8</title>
<g id="a_edge8_Node000006_Node000008"><a xlink:title=" ">
<path fill="none" stroke="#63b8ff" d="M362.5,-226.59C364.22,-219.89 366.55,-210.76 368.67,-202.48"/>
<polygon fill="#63b8ff" stroke="#63b8ff" points="372.06,-203.35 371.14,-192.79 365.28,-201.62 372.06,-203.35"/>
</a>
</g>
</g>
<!-- Node9 -->
<g id="Node000009" class="node">
<title>Node9</title>
<g id="a_Node000009"><a xlink:href="kernel__defines_8h.html" target="_top" xlink:title="Common macros and compiler attributes/pragmas configuration.">
<polygon fill="white" stroke="#666666" points="560.12,-191 463.88,-191 463.88,-170.25 560.12,-170.25 560.12,-191"/>
<text text-anchor="middle" x="512" y="-177.5" font-family="Helvetica,sans-Serif" font-size="10.00">kernel_defines.h</text>
</a>
</g>
</g>
<!-- Node6&#45;&gt;Node9 -->
<g id="edge9_Node000006_Node000009" class="edge">
<title>Node6&#45;&gt;Node9</title>
<g id="a_edge9_Node000006_Node000009"><a xlink:title=" ">
<path fill="none" stroke="#63b8ff" d="M387.17,-226.59C411.42,-217.86 447.15,-204.98 474.18,-195.25"/>
<polygon fill="#63b8ff" stroke="#63b8ff" points="475.16,-198.62 483.38,-191.93 472.79,-192.03 475.16,-198.62"/>
</a>
</g>
</g>
<!-- Node10 -->
<g id="Node000010" class="node">
<title>Node10</title>
<g id="a_Node000010"><a xlink:href="modules_8h.html" target="_top" xlink:title="Common macros and compiler attributes/pragmas configuration.">
<polygon fill="white" stroke="#666666" points="385.5,-134.25 318.5,-134.25 318.5,-113.5 385.5,-113.5 385.5,-134.25"/>
<text text-anchor="middle" x="352" y="-120.75" font-family="Helvetica,sans-Serif" font-size="10.00">modules.h</text>
</a>
</g>
</g>
<!-- Node9&#45;&gt;Node10 -->
<g id="edge10_Node000009_Node000010" class="edge">
<title>Node9&#45;&gt;Node10</title>
<g id="a_edge10_Node000009_Node000010"><a xlink:title=" ">
<path fill="none" stroke="#63b8ff" d="M483.4,-169.84C457.76,-161.07 419.93,-148.12 391.43,-138.37"/>
<polygon fill="#63b8ff" stroke="#63b8ff" points="392.65,-135.09 382.06,-135.16 390.39,-141.71 392.65,-135.09"/>
</a>
</g>
</g>
<!-- Node11 -->
<g id="Node000011" class="node">
<title>Node11</title>
<g id="a_Node000011"><a xlink:href="riot__version_8h.html" target="_top" xlink:title="Common macros and compiler attributes/pragmas configuration.">
<polygon fill="white" stroke="#666666" points="549.38,-77.5 466.62,-77.5 466.62,-56.75 549.38,-56.75 549.38,-77.5"/>
<text text-anchor="middle" x="508" y="-64" font-family="Helvetica,sans-Serif" font-size="10.00">riot_version.h</text>
</a>
</g>
</g>
<!-- Node9&#45;&gt;Node11 -->
<g id="edge11_Node000009_Node000011" class="edge">
<title>Node9&#45;&gt;Node11</title>
<g id="a_edge11_Node000009_Node000011"><a xlink:title=" ">
<path fill="none" stroke="#63b8ff" d="M511.66,-170.12C511.02,-152.35 509.64,-113.72 508.76,-89.43"/>
<polygon fill="#63b8ff" stroke="#63b8ff" points="512.26,-89.31 508.41,-79.44 505.27,-89.56 512.26,-89.31"/>
</a>
</g>
</g>
<!-- Node13 -->
<g id="Node000013" class="node">
<title>Node13</title>
<g id="a_Node000013"><a xlink:href="compiler__hints_8h.html" target="_top" xlink:title="Common macros and compiler attributes/pragmas configuration.">
<polygon fill="white" stroke="#666666" points="665.5,-134.25 568.5,-134.25 568.5,-113.5 665.5,-113.5 665.5,-134.25"/>
<text text-anchor="middle" x="617" y="-120.75" font-family="Helvetica,sans-Serif" font-size="10.00">compiler_hints.h</text>
</a>
</g>
</g>
<!-- Node9&#45;&gt;Node13 -->
<g id="edge13_Node000009_Node000013" class="edge">
<title>Node9&#45;&gt;Node13</title>
<g id="a_edge13_Node000009_Node000013"><a xlink:title=" ">
<path fill="none" stroke="#63b8ff" d="M530.77,-169.84C546.75,-161.51 569.95,-149.41 588.26,-139.86"/>
<polygon fill="#63b8ff" stroke="#63b8ff" points="589.8,-143.01 597.05,-135.28 586.56,-136.8 589.8,-143.01"/>
</a>
</g>
</g>
<!-- Node15 -->
<g id="Node000015" class="node">
<title>Node15</title>
<g id="a_Node000015"><a xlink:href="container_8h.html" target="_top" xlink:title="Common macros and compiler attributes/pragmas configuration.">
<polygon fill="white" stroke="#666666" points="474.38,-134.25 403.62,-134.25 403.62,-113.5 474.38,-113.5 474.38,-134.25"/>
<text text-anchor="middle" x="439" y="-120.75" font-family="Helvetica,sans-Serif" font-size="10.00">container.h</text>
</a>
</g>
</g>
<!-- Node9&#45;&gt;Node15 -->
<g id="edge17_Node000009_Node000015" class="edge">
<title>Node9&#45;&gt;Node15</title>
<g id="a_edge17_Node000009_Node000015"><a xlink:title=" ">
<path fill="none" stroke="#63b8ff" d="M498.95,-169.84C488.36,-161.9 473.21,-150.53 460.78,-141.21"/>
<polygon fill="#63b8ff" stroke="#63b8ff" points="463.25,-138.69 453.15,-135.49 459.05,-144.29 463.25,-138.69"/>
</a>
</g>
</g>
<!-- Node11&#45;&gt;Node12 -->
<g id="edge12_Node000011_Node000012" class="edge">
<title>Node11&#45;&gt;Node12</title>
<g id="a_edge12_Node000011_Node000012"><a xlink:title=" ">
<path fill="none" stroke="#63b8ff" d="M514.08,-56.34C518.48,-49.25 524.57,-39.44 529.94,-30.79"/>
<polygon fill="#63b8ff" stroke="#63b8ff" points="532.87,-32.71 535.18,-22.36 526.93,-29.01 532.87,-32.71"/>
</a>
</g>
</g>
<!-- Node13&#45;&gt;Node12 -->
<g id="edge16_Node000013_Node000012" class="edge">
<title>Node13&#45;&gt;Node12</title>
<g id="a_edge16_Node000013_Node000012"><a xlink:title=" ">
<path fill="none" stroke="#63b8ff" d="M610.61,-113.37C598.32,-95.11 571.22,-54.81 555,-30.7"/>
<polygon fill="#63b8ff" stroke="#63b8ff" points="557.92,-28.78 549.44,-22.43 552.11,-32.68 557.92,-28.78"/>
</a>
</g>
</g>
<!-- Node14 -->
<g id="Node000014" class="node">
<title>Node14</title>
<g id="a_Node000014"><a xlink:href="assert_8h.html" target="_top" xlink:title="POSIX.1&#45;2008 compliant version of the assert macro.">
<polygon fill="white" stroke="#666666" points="660.5,-77.5 605.5,-77.5 605.5,-56.75 660.5,-56.75 660.5,-77.5"/>
<text text-anchor="middle" x="633" y="-64" font-family="Helvetica,sans-Serif" font-size="10.00">assert.h</text>
</a>
</g>
</g>
<!-- Node13&#45;&gt;Node14 -->
<g id="edge14_Node000013_Node000014" class="edge">
<title>Node13&#45;&gt;Node14</title>
<g id="a_edge14_Node000013_Node000014"><a xlink:title=" ">
<path fill="none" stroke="#63b8ff" d="M619.86,-113.09C621.84,-106.31 624.55,-97.05 626.99,-88.69"/>
<polygon fill="#63b8ff" stroke="#63b8ff" points="630.29,-89.86 629.74,-79.28 623.58,-87.9 630.29,-89.86"/>
</a>
</g>
</g>
<!-- Node14&#45;&gt;Node12 -->
<g id="edge15_Node000014_Node000012" class="edge">
<title>Node14&#45;&gt;Node12</title>
<g id="a_edge15_Node000014_Node000012"><a xlink:title=" ">
<path fill="none" stroke="#63b8ff" d="M616.73,-56.34C603.14,-48.16 583.53,-36.36 567.8,-26.9"/>
<polygon fill="#63b8ff" stroke="#63b8ff" points="569.8,-24.02 559.43,-21.86 566.19,-30.01 569.8,-24.02"/>
</a>
</g>
</g>
<!-- Node15&#45;&gt;Node12 -->
<g id="edge19_Node000015_Node000012" class="edge">
<title>Node15&#45;&gt;Node12</title>
<g id="a_edge19_Node000015_Node000012"><a xlink:title=" ">
<path fill="none" stroke="#63b8ff" d="M439.47,-113.28C440.6,-99.39 444.52,-73.5 458,-56.75 470.02,-41.81 488.33,-31.11 504.78,-23.87"/>
<polygon fill="#63b8ff" stroke="#63b8ff" points="505.91,-27.19 513.85,-20.17 503.26,-20.71 505.91,-27.19"/>
</a>
</g>
</g>
<!-- Node15&#45;&gt;Node16 -->
<g id="edge18_Node000015_Node000016" class="edge">
<title>Node15&#45;&gt;Node16</title>
<g id="a_edge18_Node000015_Node000016"><a xlink:title=" ">
<path fill="none" stroke="#63b8ff" d="M403.78,-113.09C369.23,-103.48 316.66,-88.87 280.89,-78.93"/>
<polygon fill="#63b8ff" stroke="#63b8ff" points="281.95,-75.59 271.37,-76.29 280.07,-82.34 281.95,-75.59"/>
</a>
</g>
</g>
<!-- Node18&#45;&gt;Node12 -->
<g id="edge25_Node000018_Node000012" class="edge">
<title>Node18&#45;&gt;Node12</title>
<g id="a_edge25_Node000018_Node000012"><a xlink:title=" ">
<path fill="none" stroke="#63b8ff" d="M71.81,-170.13C61.37,-156.79 45.92,-132.08 57,-113.5 84.17,-67.94 111.44,-72.79 162,-56.75 282.93,-18.39 434.88,-12.01 504.29,-11.24"/>
<polygon fill="#63b8ff" stroke="#63b8ff" points="504,-14.75 513.97,-11.17 503.95,-7.75 504,-14.75"/>
</a>
</g>
</g>
<!-- Node18&#45;&gt;Node16 -->
<g id="edge24_Node000018_Node000016" class="edge">
<title>Node18&#45;&gt;Node16</title>
<g id="a_edge24_Node000018_Node000016"><a xlink:title=" ">
<path fill="none" stroke="#63b8ff" d="M94.68,-169.76C108.27,-160.61 129.05,-146.58 147,-134.25 171.57,-117.38 199.57,-97.86 218.77,-84.42"/>
<polygon fill="#63b8ff" stroke="#63b8ff" points="220.77,-87.29 226.95,-78.69 216.75,-81.56 220.77,-87.29"/>
</a>
</g>
</g>
<!-- Node19 -->
<g id="Node000019" class="node">
<title>Node19</title>
<g id="a_Node000019"><a xlink:href="cpu_2avr8__common_2avr__libc__extra_2include_2sys_2types_8h_source.html" target="_top" xlink:title=" ">
<polygon fill="white" stroke="#666666" points="137.75,-134.25 66.25,-134.25 66.25,-113.5 137.75,-113.5 137.75,-134.25"/>
<text text-anchor="middle" x="102" y="-120.75" font-family="Helvetica,sans-Serif" font-size="10.00">sys/types.h</text>
</a>
</g>
</g>
<!-- Node18&#45;&gt;Node19 -->
<g id="edge26_Node000018_Node000019" class="edge">
<title>Node18&#45;&gt;Node19</title>
<g id="a_edge26_Node000018_Node000019"><a xlink:title=" ">
<path fill="none" stroke="#63b8ff" d="M83.93,-169.84C86.69,-162.99 90.46,-153.59 93.85,-145.15"/>
<polygon fill="#63b8ff" stroke="#63b8ff" points="97.06,-146.57 97.54,-135.98 90.56,-143.96 97.06,-146.57"/>
</a>
</g>
</g>
<!-- Node19&#45;&gt;Node12 -->
<g id="edge27_Node000019_Node000012" class="edge">
<title>Node19&#45;&gt;Node12</title>
<g id="a_edge27_Node000019_Node000012"><a xlink:title=" ">
<path fill="none" stroke="#63b8ff" d="M113.45,-113.08C131.55,-98.19 168.5,-70.17 205,-56.75 308.33,-18.76 439.94,-12.04 503.8,-11.19"/>
<polygon fill="#63b8ff" stroke="#63b8ff" points="503.8,-14.69 513.77,-11.11 503.74,-7.69 503.8,-14.69"/>
</a>
</g>
</g>
<!-- Node19&#45;&gt;Node16 -->
<g id="edge28_Node000019_Node000016" class="edge">
<title>Node19&#45;&gt;Node16</title>
<g id="a_edge28_Node000019_Node000016"><a xlink:title=" ">
<path fill="none" stroke="#63b8ff" d="M127.03,-113.09C149.23,-104.41 181.89,-91.63 206.73,-81.92"/>
<polygon fill="#63b8ff" stroke="#63b8ff" points="207.74,-85.28 215.78,-78.38 205.19,-78.76 207.74,-85.28"/>
</a>
</g>
</g>
<!-- Node22&#45;&gt;Node9 -->
<g id="edge41_Node000022_Node000009" class="edge">
<title>Node22&#45;&gt;Node9</title>
<g id="a_edge41_Node000022_Node000009"><a xlink:title=" ">
<path fill="none" stroke="#63b8ff" d="M749.46,-400.03C671.59,-381.74 459.99,-330.09 441,-304.5 414.64,-268.97 460.19,-222.83 489.74,-198.44"/>
<polygon fill="#63b8ff" stroke="#63b8ff" points="491.84,-201.24 497.48,-192.27 487.48,-195.77 491.84,-201.24"/>
</a>
</g>
</g>
<!-- Node22&#45;&gt;Node12 -->
<g id="edge34_Node000022_Node000012" class="edge">
<title>Node22&#45;&gt;Node12</title>
<g id="a_edge34_Node000022_Node000012"><a xlink:title=" ">
<path fill="none" stroke="#63b8ff" d="M806.63,-399.12C809.45,-398.46 812.28,-397.82 815,-397.25 915.79,-376.12 1267,-398.1 1267,-295.12 1267,-295.12 1267,-295.12 1267,-122.88 1267,-52.67 729,-20.68 579.9,-13.16"/>
<polygon fill="#63b8ff" stroke="#63b8ff" points="580.34,-9.68 570.17,-12.68 579.99,-16.67 580.34,-9.68"/>
</a>
</g>
</g>
<!-- Node22&#45;&gt;Node16 -->
<g id="edge33_Node000022_Node000016" class="edge">
<title>Node22&#45;&gt;Node16</title>
<g id="a_edge33_Node000022_Node000016"><a xlink:title=" ">
<path fill="none" stroke="#63b8ff" d="M749.46,-400.53C744,-399.4 738.33,-398.27 733,-397.25 553.31,-362.99 477.75,-415.04 332,-304.5 284.59,-268.54 281.75,-246.77 261,-191 248.24,-156.72 244.05,-113.98 242.67,-89"/>
<polygon fill="#63b8ff" stroke="#63b8ff" points="246.18,-89.05 242.24,-79.21 239.18,-89.35 246.18,-89.05"/>
</a>
</g>
</g>
<!-- Node23 -->
<g id="Node000023" class="node">
<title>Node23</title>
<g id="a_Node000023"><a xlink:title=" ">
<polygon fill="#e0e0e0" stroke="#999999" points="827.5,-134.25 766.5,-134.25 766.5,-113.5 827.5,-113.5 827.5,-134.25"/>
<text text-anchor="middle" x="797" y="-120.75" font-family="Helvetica,sans-Serif" font-size="10.00">stdbool.h</text>
</a>
</g>
</g>
<!-- Node22&#45;&gt;Node23 -->
<g id="edge35_Node000022_Node000023" class="edge">
<title>Node22&#45;&gt;Node23</title>
<g id="a_edge35_Node000022_Node000023"><a xlink:title=" ">
<path fill="none" stroke="#63b8ff" d="M784.88,-396.79C796.7,-379.25 820.4,-340.96 829,-304.5 842.53,-247.14 819.49,-178.27 805.89,-144.92"/>
<polygon fill="#63b8ff" stroke="#63b8ff" points="809.27,-143.92 802.14,-136.08 802.82,-146.65 809.27,-143.92"/>
</a>
</g>
</g>
<!-- Node24 -->
<g id="Node000024" class="node">
<title>Node24</title>
<g id="a_Node000024"><a xlink:href="architecture_8h.html" target="_top" xlink:title="Platform&#45;independent access to architecture details.">
<polygon fill="white" stroke="#666666" points="1104.75,-247.75 1021.25,-247.75 1021.25,-227 1104.75,-227 1104.75,-247.75"/>
<text text-anchor="middle" x="1063" y="-234.25" font-family="Helvetica,sans-Serif" font-size="10.00">architecture.h</text>
</a>
</g>
</g>
<!-- Node22&#45;&gt;Node24 -->
<g id="edge36_Node000022_Node000024" class="edge">
<title>Node22&#45;&gt;Node24</title>
<g id="a_edge36_Node000022_Node000024"><a xlink:title=" ">
<path fill="none" stroke="#63b8ff" d="M806.64,-399.18C809.46,-398.5 812.28,-397.85 815,-397.25 899.79,-378.58 938.64,-414.77 1007,-361.25 1039.49,-335.81 1053.78,-287.25 1059.53,-259.4"/>
<polygon fill="#63b8ff" stroke="#63b8ff" points="1062.95,-260.18 1061.33,-249.71 1056.07,-258.9 1062.95,-260.18"/>
</a>
</g>
</g>
<!-- Node28 -->
<g id="Node000028" class="node">
<title>Node28</title>
<g id="a_Node000028"><a xlink:href="list_8h.html" target="_top" xlink:title="Intrusive linked list.">
<polygon fill="white" stroke="#666666" points="1023,-134.25 983,-134.25 983,-113.5 1023,-113.5 1023,-134.25"/>
<text text-anchor="middle" x="1003" y="-120.75" font-family="Helvetica,sans-Serif" font-size="10.00">list.h</text>
</a>
</g>
</g>
<!-- Node22&#45;&gt;Node28 -->
<g id="edge42_Node000022_Node000028" class="edge">
<title>Node22&#45;&gt;Node28</title>
<g id="a_edge42_Node000022_Node000028"><a xlink:title=" ">
<path fill="none" stroke="#63b8ff" d="M806.55,-398.32C865.03,-380.47 993,-336.65 993,-295.12 993,-295.12 993,-295.12 993,-236.38 993,-204.71 997.05,-168.19 1000,-145.82"/>
<polygon fill="#63b8ff" stroke="#63b8ff" points="1003.42,-146.58 1001.32,-136.19 996.49,-145.62 1003.42,-146.58"/>
</a>
</g>
</g>
<!-- Node29 -->
<g id="Node000029" class="node">
<title>Node29</title>
<g id="a_Node000029"><a xlink:href="core_2include_2thread_8h.html" target="_top" xlink:title="Threading API.">
<polygon fill="white" stroke="#666666" points="736.25,-361.25 679.75,-361.25 679.75,-340.5 736.25,-340.5 736.25,-361.25"/>
<text text-anchor="middle" x="708" y="-347.75" font-family="Helvetica,sans-Serif" font-size="10.00">thread.h</text>
</a>
</g>
</g>
<!-- Node22&#45;&gt;Node29 -->
<g id="edge43_Node000022_Node000029" class="edge">
<title>Node22&#45;&gt;Node29</title>
<g id="a_edge43_Node000022_Node000029"><a xlink:title=" ">
<path fill="none" stroke="#63b8ff" d="M765.49,-396.84C755.43,-388.97 741.09,-377.75 729.24,-368.49"/>
<polygon fill="#63b8ff" stroke="#63b8ff" points="731.63,-365.91 721.6,-362.51 727.32,-371.43 731.63,-365.91"/>
</a>
</g>
</g>
<!-- Node24&#45;&gt;Node12 -->
<g id="edge37_Node000024_Node000012" class="edge">
<title>Node24&#45;&gt;Node12</title>
<g id="a_edge37_Node000024_Node000012"><a xlink:title=" ">
<path fill="none" stroke="#63b8ff" d="M1104.82,-233.22C1157.01,-227.5 1236.38,-211.84 1210,-170.25 1146.58,-70.28 1083.01,-88.67 969,-56.75 829.31,-17.64 655.27,-11.77 579.81,-11.2"/>
<polygon fill="#63b8ff" stroke="#63b8ff" points="580.09,-7.7 570.08,-11.16 580.06,-14.7 580.09,-7.7"/>
</a>
</g>
</g>
<!-- Node25 -->
<g id="Node000025" class="node">
<title>Node25</title>
<g id="a_Node000025"><a xlink:href="inttypes_8h.html" target="_top" xlink:title="Adds include for missing inttype definitions.">
<polygon fill="white" stroke="#666666" points="927.38,-191 862.62,-191 862.62,-170.25 927.38,-170.25 927.38,-191"/>
<text text-anchor="middle" x="895" y="-177.5" font-family="Helvetica,sans-Serif" font-size="10.00">inttypes.h</text>
</a>
</g>
</g>
<!-- Node24&#45;&gt;Node25 -->
<g id="edge38_Node000024_Node000025" class="edge">
<title>Node24&#45;&gt;Node25</title>
<g id="a_edge38_Node000024_Node000025"><a xlink:title=" ">
<path fill="none" stroke="#63b8ff" d="M1032.96,-226.59C1005.81,-217.74 965.62,-204.64 935.61,-194.86"/>
<polygon fill="#63b8ff" stroke="#63b8ff" points="937.09,-191.66 926.5,-191.89 934.92,-198.32 937.09,-191.66"/>
</a>
</g>
</g>
<!-- Node26 -->
<g id="Node000026" class="node">
<title>Node26</title>
<g id="a_Node000026"><a xlink:title=" ">
<polygon fill="#e0e0e0" stroke="#999999" points="1073.38,-191 1020.62,-191 1020.62,-170.25 1073.38,-170.25 1073.38,-191"/>
<text text-anchor="middle" x="1047" y="-177.5" font-family="Helvetica,sans-Serif" font-size="10.00">limits.h</text>
</a>
</g>
</g>
<!-- Node24&#45;&gt;Node26 -->
<g id="edge39_Node000024_Node000026" class="edge">
<title>Node24&#45;&gt;Node26</title>
<g id="a_edge39_Node000024_Node000026"><a xlink:title=" ">
<path fill="none" stroke="#63b8ff" d="M1060.14,-226.59C1058.16,-219.81 1055.45,-210.55 1053.01,-202.19"/>
<polygon fill="#63b8ff" stroke="#63b8ff" points="1056.42,-201.4 1050.26,-192.78 1049.71,-203.36 1056.42,-201.4"/>
</a>
</g>
</g>
<!-- Node27 -->
<g id="Node000027" class="node">
<title>Node27</title>
<g id="a_Node000027"><a xlink:title=" ">
<polygon fill="#e0e0e0" stroke="#999999" points="1200.88,-191 1091.12,-191 1091.12,-170.25 1200.88,-170.25 1200.88,-191"/>
<text text-anchor="middle" x="1146" y="-177.5" font-family="Helvetica,sans-Serif" font-size="10.00">architecture_arch.h</text>
</a>
</g>
</g>
<!-- Node24&#45;&gt;Node27 -->
<g id="edge40_Node000024_Node000027" class="edge">
<title>Node24&#45;&gt;Node27</title>
<g id="a_edge40_Node000024_Node000027"><a xlink:title=" ">
<path fill="none" stroke="#63b8ff" d="M1077.84,-226.59C1090.11,-218.49 1107.79,-206.83 1122.06,-197.42"/>
<polygon fill="#63b8ff" stroke="#63b8ff" points="1123.61,-200.59 1130.03,-192.16 1119.75,-194.75 1123.61,-200.59"/>
</a>
</g>
</g>
<!-- Node30 -->
<g id="Node000030" class="node">
<title>Node30</title>
<g id="a_Node000030"><a xlink:href="clist_8h.html" target="_top" xlink:title="Circular linked list.">
<polygon fill="white" stroke="#666666" points="768.62,-191 723.38,-191 723.38,-170.25 768.62,-170.25 768.62,-191"/>
<text text-anchor="middle" x="746" y="-177.5" font-family="Helvetica,sans-Serif" font-size="10.00">clist.h</text>
</a>
</g>
</g>
<!-- Node29&#45;&gt;Node30 -->
<g id="edge44_Node000029_Node000030" class="edge">
<title>Node29&#45;&gt;Node30</title>
<g id="a_edge44_Node000029_Node000030"><a xlink:title=" ">
<path fill="none" stroke="#63b8ff" d="M710.15,-340.35C716.13,-313.87 733.06,-238.93 741.33,-202.3"/>
<polygon fill="#63b8ff" stroke="#63b8ff" points="744.65,-203.47 743.44,-192.94 737.83,-201.93 744.65,-203.47"/>
</a>
</g>
</g>
<!-- Node31 -->
<g id="Node000031" class="node">
<title>Node31</title>
<g id="a_Node000031"><a xlink:href="cib_8h.html" target="_top" xlink:title="Circular integer buffer interface.">
<polygon fill="white" stroke="#666666" points="627.62,-247.75 588.38,-247.75 588.38,-227 627.62,-227 627.62,-247.75"/>
<text text-anchor="middle" x="608" y="-234.25" font-family="Helvetica,sans-Serif" font-size="10.00">cib.h</text>
</a>
</g>
</g>
<!-- Node29&#45;&gt;Node31 -->
<g id="edge48_Node000029_Node000031" class="edge">
<title>Node29&#45;&gt;Node31</title>
<g id="a_edge48_Node000029_Node000031"><a xlink:title=" ">
<path fill="none" stroke="#63b8ff" d="M700.02,-340.34C689.12,-327.37 668.89,-303.54 651,-283.75 642.66,-274.53 633.18,-264.47 625.24,-256.18"/>
<polygon fill="#63b8ff" stroke="#63b8ff" points="627.87,-253.86 618.41,-249.08 622.82,-258.71 627.87,-253.86"/>
</a>
</g>
</g>
<!-- Node32 -->
<g id="Node000032" class="node">
<title>Node32</title>
<g id="a_Node000032"><a xlink:href="core_2include_2msg_8h.html" target="_top" xlink:title="Messaging API for inter process communication.">
<polygon fill="white" stroke="#666666" points="820,-304.5 774,-304.5 774,-283.75 820,-283.75 820,-304.5"/>
<text text-anchor="middle" x="797" y="-291" font-family="Helvetica,sans-Serif" font-size="10.00">msg.h</text>
</a>
</g>
</g>
<!-- Node29&#45;&gt;Node32 -->
<g id="edge50_Node000029_Node000032" class="edge">
<title>Node29&#45;&gt;Node32</title>
<g id="a_edge50_Node000029_Node000032"><a xlink:title=" ">
<path fill="none" stroke="#63b8ff" d="M723.91,-340.09C737.2,-331.91 756.39,-320.11 771.77,-310.65"/>
<polygon fill="#63b8ff" stroke="#63b8ff" points="773.25,-313.84 779.94,-305.62 769.59,-307.88 773.25,-313.84"/>
</a>
</g>
</g>
<!-- Node33 -->
<g id="Node000033" class="node">
<title>Node33</title>
<g id="a_Node000033"><a xlink:href="sched_8h.html" target="_top" xlink:title="Scheduler API definition.">
<polygon fill="white" stroke="#666666" points="702.75,-247.75 649.25,-247.75 649.25,-227 702.75,-227 702.75,-247.75"/>
<text text-anchor="middle" x="676" y="-234.25" font-family="Helvetica,sans-Serif" font-size="10.00">sched.h</text>
</a>
</g>
</g>
<!-- Node29&#45;&gt;Node33 -->
<g id="edge59_Node000029_Node000033" class="edge">
<title>Node29&#45;&gt;Node33</title>
<g id="a_edge59_Node000029_Node000033"><a xlink:title=" ">
<path fill="none" stroke="#63b8ff" d="M705.27,-340.37C700.13,-322.44 688.88,-283.25 681.92,-259.01"/>
<polygon fill="#63b8ff" stroke="#63b8ff" points="685.35,-258.28 679.23,-249.63 678.62,-260.21 685.35,-258.28"/>
</a>
</g>
</g>
<!-- Node35 -->
<g id="Node000035" class="node">
<title>Node35</title>
<g id="a_Node000035"><a xlink:href="thread__config_8h.html" target="_top" xlink:title="Thread configuration defines.">
<polygon fill="white" stroke="#666666" points="541.88,-304.5 450.12,-304.5 450.12,-283.75 541.88,-283.75 541.88,-304.5"/>
<text text-anchor="middle" x="496" y="-291" font-family="Helvetica,sans-Serif" font-size="10.00">thread_config.h</text>
</a>
</g>
</g>
<!-- Node29&#45;&gt;Node35 -->
<g id="edge60_Node000029_Node000035" class="edge">
<title>Node29&#45;&gt;Node35</title>
<g id="a_edge60_Node000029_Node000035"><a xlink:title=" ">
<path fill="none" stroke="#63b8ff" d="M679.41,-342.49C645.04,-333.61 586.79,-318.57 545.16,-307.82"/>
<polygon fill="#63b8ff" stroke="#63b8ff" points="546.18,-304.47 535.62,-305.36 544.43,-311.25 546.18,-304.47"/>
</a>
</g>
</g>
<!-- Node36 -->
<g id="Node000036" class="node">
<title>Node36</title>
<g id="a_Node000036"><a xlink:title=" ">
<polygon fill="#e0e0e0" stroke="#999999" points="642.38,-304.5 559.62,-304.5 559.62,-283.75 642.38,-283.75 642.38,-304.5"/>
<text text-anchor="middle" x="601" y="-291" font-family="Helvetica,sans-Serif" font-size="10.00">thread_arch.h</text>
</a>
</g>
</g>
<!-- Node29&#45;&gt;Node36 -->
<g id="edge63_Node000029_Node000036" class="edge">
<title>Node29&#45;&gt;Node36</title>
<g id="a_edge63_Node000029_Node000036"><a xlink:title=" ">
<path fill="none" stroke="#63b8ff" d="M688.87,-340.09C672.51,-331.72 648.72,-319.54 630.02,-309.97"/>
<polygon fill="#63b8ff" stroke="#63b8ff" points="631.81,-306.96 621.31,-305.52 628.62,-313.19 631.81,-306.96"/>
</a>
</g>
</g>
<!-- Node30&#45;&gt;Node16 -->
<g id="edge46_Node000030_Node000016" class="edge">
<title>Node30&#45;&gt;Node16</title>
<g id="a_edge46_Node000030_Node000016"><a xlink:title=" ">
<path fill="none" stroke="#63b8ff" d="M723.02,-172.49C720.33,-171.71 717.61,-170.95 715,-170.25 646.67,-152 628.6,-151.45 560,-134.25 525.62,-125.63 517.55,-121.4 483,-113.5 412.26,-97.33 328.88,-82.58 281.05,-74.52"/>
<polygon fill="#63b8ff" stroke="#63b8ff" points="281.91,-71.12 271.47,-72.92 280.76,-78.02 281.91,-71.12"/>
</a>
</g>
</g>
<!-- Node30&#45;&gt;Node23 -->
<g id="edge45_Node000030_Node000023" class="edge">
<title>Node30&#45;&gt;Node23</title>
<g id="a_edge45_Node000030_Node000023"><a xlink:title=" ">
<path fill="none" stroke="#63b8ff" d="M755.12,-169.84C762.08,-162.36 771.87,-151.86 780.23,-142.88"/>
<polygon fill="#63b8ff" stroke="#63b8ff" points="782.67,-145.39 786.93,-135.69 777.55,-140.62 782.67,-145.39"/>
</a>
</g>
</g>
<!-- Node30&#45;&gt;Node28 -->
<g id="edge47_Node000030_Node000028" class="edge">
<title>Node30&#45;&gt;Node28</title>
<g id="a_edge47_Node000030_Node000028"><a xlink:title=" ">
<path fill="none" stroke="#63b8ff" d="M768.81,-174.77C814.95,-164.94 919.42,-142.68 971.81,-131.52"/>
<polygon fill="#63b8ff" stroke="#63b8ff" points="972.23,-135.01 981.28,-129.5 970.77,-128.16 972.23,-135.01"/>
</a>
</g>
</g>
<!-- Node31&#45;&gt;Node14 -->
<g id="edge49_Node000031_Node000014" class="edge">
<title>Node31&#45;&gt;Node14</title>
<g id="a_edge49_Node000031_Node000014"><a xlink:title=" ">
<path fill="none" stroke="#63b8ff" d="M604.84,-226.58C601.06,-212.89 596.46,-187.76 607,-170.25 624.64,-140.95 657.36,-163.55 675,-134.25 685.2,-117.3 670.25,-98.27 655.44,-84.99"/>
<polygon fill="#63b8ff" stroke="#63b8ff" points="658.01,-82.57 648.09,-78.86 653.53,-87.95 658.01,-82.57"/>
</a>
</g>
</g>
<!-- Node32&#45;&gt;Node12 -->
<g id="edge51_Node000032_Node000012" class="edge">
<title>Node32&#45;&gt;Node12</title>
<g id="a_edge51_Node000032_Node000012"><a xlink:title=" ">
<path fill="none" stroke="#63b8ff" d="M820.31,-288.13C864.26,-277.21 955,-246.76 955,-181.62 955,-181.62 955,-181.62 955,-122.88 955,-45.63 682.32,-20.3 580.09,-13.52"/>
<polygon fill="#63b8ff" stroke="#63b8ff" points="580.49,-10.04 570.29,-12.89 580.05,-17.02 580.49,-10.04"/>
</a>
</g>
</g>
<!-- Node32&#45;&gt;Node23 -->
<g id="edge52_Node000032_Node000023" class="edge">
<title>Node32&#45;&gt;Node23</title>
<g id="a_edge52_Node000032_Node000023"><a xlink:title=" ">
<path fill="none" stroke="#63b8ff" d="M797,-283.6C797,-257.23 797,-182.83 797,-146.03"/>
<polygon fill="#63b8ff" stroke="#63b8ff" points="800.5,-146.23 797,-136.23 793.5,-146.23 800.5,-146.23"/>
</a>
</g>
</g>
<!-- Node32&#45;&gt;Node33 -->
<g id="edge53_Node000032_Node000033" class="edge">
<title>Node32&#45;&gt;Node33</title>
<g id="a_edge53_Node000032_Node000033"><a xlink:title=" ">
<path fill="none" stroke="#63b8ff" d="M775.37,-283.34C756.53,-274.81 728.96,-262.34 707.64,-252.69"/>
<polygon fill="#63b8ff" stroke="#63b8ff" points="709.38,-249.64 698.82,-248.7 706.49,-256.01 709.38,-249.64"/>
</a>
</g>
</g>
<!-- Node33&#45;&gt;Node9 -->
<g id="edge56_Node000033_Node000009" class="edge">
<title>Node33&#45;&gt;Node9</title>
<g id="a_edge56_Node000033_Node000009"><a xlink:title=" ">
<path fill="none" stroke="#63b8ff" d="M648.92,-227.33C622.5,-218.52 582.02,-205 551.91,-194.95"/>
<polygon fill="#63b8ff" stroke="#63b8ff" points="553.37,-191.75 542.77,-191.9 551.15,-198.38 553.37,-191.75"/>
</a>
</g>
</g>
<!-- Node33&#45;&gt;Node16 -->
<g id="edge54_Node000033_Node000016" class="edge">
<title>Node33&#45;&gt;Node16</title>
<g id="a_edge54_Node000033_Node000016"><a xlink:title=" ">
<path fill="none" stroke="#63b8ff" d="M648.76,-229.68C644.82,-228.75 640.81,-227.83 637,-227 556.45,-209.36 532.53,-219.08 455,-191 436.91,-184.45 434.63,-177.96 417,-170.25 371.03,-150.15 352.83,-160.39 310,-134.25 289.02,-121.44 269.38,-101.08 256.66,-86.34"/>
<polygon fill="#63b8ff" stroke="#63b8ff" points="259.42,-84.18 250.32,-78.75 254.05,-88.67 259.42,-84.18"/>
</a>
</g>
</g>
<!-- Node33&#45;&gt;Node25 -->
<g id="edge55_Node000033_Node000025" class="edge">
<title>Node33&#45;&gt;Node25</title>
<g id="a_edge55_Node000033_Node000025"><a xlink:title=" ">
<path fill="none" stroke="#63b8ff" d="M702.85,-229.66C739.84,-220.42 806.9,-203.65 851.2,-192.58"/>
<polygon fill="#63b8ff" stroke="#63b8ff" points="851.89,-196.01 860.75,-190.19 850.19,-189.22 851.89,-196.01"/>
</a>
</g>
</g>
<!-- Node33&#45;&gt;Node30 -->
<g id="edge58_Node000033_Node000030" class="edge">
<title>Node33&#45;&gt;Node30</title>
<g id="a_edge58_Node000033_Node000030"><a xlink:title=" ">
<path fill="none" stroke="#63b8ff" d="M688.51,-226.59C698.57,-218.72 712.91,-207.5 724.76,-198.24"/>
<polygon fill="#63b8ff" stroke="#63b8ff" points="726.68,-201.18 732.4,-192.26 722.37,-195.66 726.68,-201.18"/>
</a>
</g>
</g>
<!-- Node34 -->
<g id="Node000034" class="node">
<title>Node34</title>
<g id="a_Node000034"><a xlink:href="native__sched_8h.html" target="_top" xlink:title="Add definitions required on the native board.">
<polygon fill="white" stroke="#666666" points="705.75,-191 616.25,-191 616.25,-170.25 705.75,-170.25 705.75,-191"/>
<text text-anchor="middle" x="661" y="-177.5" font-family="Helvetica,sans-Serif" font-size="10.00">native_sched.h</text>
</a>
</g>
</g>
<!-- Node33&#45;&gt;Node34 -->
<g id="edge57_Node000033_Node000034" class="edge">
<title>Node33&#45;&gt;Node34</title>
<g id="a_edge57_Node000033_Node000034"><a xlink:title=" ">
<path fill="none" stroke="#63b8ff" d="M673.32,-226.59C671.46,-219.81 668.92,-210.55 666.63,-202.19"/>
<polygon fill="#63b8ff" stroke="#63b8ff" points="670.08,-201.51 664.06,-192.79 663.33,-203.36 670.08,-201.51"/>
</a>
</g>
</g>
<!-- Node35&#45;&gt;Node8 -->
<g id="edge61_Node000035_Node000008" class="edge">
<title>Node35&#45;&gt;Node8</title>
<g id="a_edge61_Node000035_Node000008"><a xlink:title=" ">
<path fill="none" stroke="#63b8ff" d="M485.6,-283.62C465.08,-264.87 419.14,-222.88 393.05,-199.03"/>
<polygon fill="#63b8ff" stroke="#63b8ff" points="395.58,-196.61 385.84,-192.45 390.86,-201.78 395.58,-196.61"/>
</a>
</g>
</g>
<!-- Node35&#45;&gt;Node33 -->
<g id="edge62_Node000035_Node000033" class="edge">
<title>Node35&#45;&gt;Node33</title>
<g id="a_edge62_Node000035_Node000033"><a xlink:title=" ">
<path fill="none" stroke="#63b8ff" d="M528.18,-283.34C558.94,-273.98 605.31,-259.88 637.9,-249.96"/>
<polygon fill="#63b8ff" stroke="#63b8ff" points="638.81,-253.35 647.35,-247.09 636.77,-246.65 638.81,-253.35"/>
</a>
</g>
</g>
</g>
</svg>
