<?xml version="1.0" encoding="UTF-8" standalone="no"?>
<!DOCTYPE svg PUBLIC "-//W3C//DTD SVG 1.1//EN"
 "http://www.w3.org/Graphics/SVG/1.1/DTD/svg11.dtd">
<!-- Generated by graphviz version 12.1.1 (0)
 -->
<!-- Title: drivers/include/srf08.h Pages: 1 -->
<svg width="401pt" height="142pt"
 viewBox="0.00 0.00 400.50 142.25" xmlns="http://www.w3.org/2000/svg" xmlns:xlink="http://www.w3.org/1999/xlink">
<g id="graph0" class="graph" transform="scale(1 1) rotate(0) translate(4 138.25)">
<title>drivers/include/srf08.h</title>
<!-- Node1 -->
<g id="Node000001" class="node">
<title>Node1</title>
<g id="a_Node000001"><a xlink:title="Driver definitions for the SRF02 ultrasonic ranger.">
<polygon fill="#999999" stroke="#666666" points="160.75,-134.25 36,-134.25 36,-113.5 160.75,-113.5 160.75,-134.25"/>
<text text-anchor="middle" x="98.38" y="-120.75" font-family="Helvetica,sans-Serif" font-size="10.00">drivers/include/srf08.h</text>
</a>
</g>
</g>
<!-- Node2 -->
<g id="Node000002" class="node">
<title>Node2</title>
<g id="a_Node000002"><a xlink:title=" ">
<polygon fill="#e0e0e0" stroke="#999999" points="52.75,-20.75 0,-20.75 0,0 52.75,0 52.75,-20.75"/>
<text text-anchor="middle" x="26.38" y="-7.25" font-family="Helvetica,sans-Serif" font-size="10.00">stdint.h</text>
</a>
</g>
</g>
<!-- Node1&#45;&gt;Node2 -->
<g id="edge1_Node000001_Node000002" class="edge">
<title>Node1&#45;&gt;Node2</title>
<g id="a_edge1_Node000001_Node000002"><a xlink:title=" ">
<path fill="none" stroke="#63b8ff" d="M92.24,-113.37C80.45,-95.11 54.42,-54.81 38.85,-30.7"/>
<polygon fill="#63b8ff" stroke="#63b8ff" points="41.89,-28.95 33.52,-22.45 36.01,-32.75 41.89,-28.95"/>
</a>
</g>
</g>
<!-- Node3 -->
<g id="Node000003" class="node">
<title>Node3</title>
<g id="a_Node000003"><a xlink:href="i2c_8h.html" target="_top" xlink:title="Low&#45;level I2C peripheral driver interface definition.">
<polygon fill="white" stroke="#666666" points="170.88,-77.5 97.88,-77.5 97.88,-56.75 170.88,-56.75 170.88,-77.5"/>
<text text-anchor="middle" x="134.38" y="-64" font-family="Helvetica,sans-Serif" font-size="10.00">periph/i2c.h</text>
</a>
</g>
</g>
<!-- Node1&#45;&gt;Node3 -->
<g id="edge2_Node000001_Node000003" class="edge">
<title>Node1&#45;&gt;Node3</title>
<g id="a_edge2_Node000001_Node000003"><a xlink:title=" ">
<path fill="none" stroke="#63b8ff" d="M104.81,-113.09C109.52,-105.92 116.06,-95.98 121.79,-87.26"/>
<polygon fill="#63b8ff" stroke="#63b8ff" points="124.59,-89.37 127.16,-79.09 118.74,-85.53 124.59,-89.37"/>
</a>
</g>
</g>
<!-- Node3&#45;&gt;Node2 -->
<g id="edge3_Node000003_Node000002" class="edge">
<title>Node3&#45;&gt;Node2</title>
<g id="a_edge3_Node000003_Node000002"><a xlink:title=" ">
<path fill="none" stroke="#63b8ff" d="M115.07,-56.34C98.56,-47.97 74.54,-35.79 55.67,-26.22"/>
<polygon fill="#63b8ff" stroke="#63b8ff" points="57.37,-23.16 46.87,-21.76 54.2,-29.41 57.37,-23.16"/>
</a>
</g>
</g>
<!-- Node4 -->
<g id="Node000004" class="node">
<title>Node4</title>
<g id="a_Node000004"><a xlink:title=" ">
<polygon fill="#e0e0e0" stroke="#999999" points="125.88,-20.75 70.88,-20.75 70.88,0 125.88,0 125.88,-20.75"/>
<text text-anchor="middle" x="98.38" y="-7.25" font-family="Helvetica,sans-Serif" font-size="10.00">stddef.h</text>
</a>
</g>
</g>
<!-- Node3&#45;&gt;Node4 -->
<g id="edge4_Node000003_Node000004" class="edge">
<title>Node3&#45;&gt;Node4</title>
<g id="a_edge4_Node000003_Node000004"><a xlink:title=" ">
<path fill="none" stroke="#63b8ff" d="M127.94,-56.34C123.23,-49.17 116.69,-39.23 110.96,-30.51"/>
<polygon fill="#63b8ff" stroke="#63b8ff" points="114.01,-28.78 105.59,-22.34 108.16,-32.62 114.01,-28.78"/>
</a>
</g>
</g>
<!-- Node5 -->
<g id="Node000005" class="node">
<title>Node5</title>
<g id="a_Node000005"><a xlink:title=" ">
<polygon fill="#e0e0e0" stroke="#999999" points="196.75,-20.75 144,-20.75 144,0 196.75,0 196.75,-20.75"/>
<text text-anchor="middle" x="170.38" y="-7.25" font-family="Helvetica,sans-Serif" font-size="10.00">limits.h</text>
</a>
</g>
</g>
<!-- Node3&#45;&gt;Node5 -->
<g id="edge5_Node000003_Node000005" class="edge">
<title>Node3&#45;&gt;Node5</title>
<g id="a_edge5_Node000003_Node000005"><a xlink:title=" ">
<path fill="none" stroke="#63b8ff" d="M140.81,-56.34C145.52,-49.17 152.06,-39.23 157.79,-30.51"/>
<polygon fill="#63b8ff" stroke="#63b8ff" points="160.59,-32.62 163.16,-22.34 154.74,-28.78 160.59,-32.62"/>
</a>
</g>
</g>
<!-- Node6 -->
<g id="Node000006" class="node">
<title>Node6</title>
<g id="a_Node000006"><a xlink:title=" ">
<polygon fill="#e0e0e0" stroke="#999999" points="296,-20.75 214.75,-20.75 214.75,0 296,0 296,-20.75"/>
<text text-anchor="middle" x="255.38" y="-7.25" font-family="Helvetica,sans-Serif" font-size="10.00">periph_conf.h</text>
</a>
</g>
</g>
<!-- Node3&#45;&gt;Node6 -->
<g id="edge6_Node000003_Node000006" class="edge">
<title>Node3&#45;&gt;Node6</title>
<g id="a_edge6_Node000003_Node000006"><a xlink:title=" ">
<path fill="none" stroke="#63b8ff" d="M156.01,-56.34C174.85,-47.81 202.41,-35.34 223.73,-25.69"/>
<polygon fill="#63b8ff" stroke="#63b8ff" points="224.88,-29.01 232.55,-21.7 222,-22.64 224.88,-29.01"/>
</a>
</g>
</g>
<!-- Node7 -->
<g id="Node000007" class="node">
<title>Node7</title>
<g id="a_Node000007"><a xlink:title=" ">
<polygon fill="#e0e0e0" stroke="#999999" points="392.5,-20.75 314.25,-20.75 314.25,0 392.5,0 392.5,-20.75"/>
<text text-anchor="middle" x="353.38" y="-7.25" font-family="Helvetica,sans-Serif" font-size="10.00">periph_cpu.h</text>
</a>
</g>
</g>
<!-- Node3&#45;&gt;Node7 -->
<g id="edge7_Node000003_Node000007" class="edge">
<title>Node3&#45;&gt;Node7</title>
<g id="a_edge7_Node000003_Node000007"><a xlink:title=" ">
<path fill="none" stroke="#63b8ff" d="M171.03,-56.96C207.2,-47.92 262.79,-34.02 303.08,-23.95"/>
<polygon fill="#63b8ff" stroke="#63b8ff" points="303.69,-27.4 312.54,-21.58 301.99,-20.61 303.69,-27.4"/>
</a>
</g>
</g>
</g>
</svg>
