<?xml version="1.0" encoding="UTF-8" standalone="no"?>
<!DOCTYPE svg PUBLIC "-//W3C//DTD SVG 1.1//EN"
 "http://www.w3.org/Graphics/SVG/1.1/DTD/svg11.dtd">
<!-- Generated by graphviz version 12.1.1 (0)
 -->
<!-- Title: drivers/st77xx/include/st7789_internal.h Pages: 1 -->
<svg width="132pt" height="155pt"
 viewBox="0.00 0.00 132.00 155.00" xmlns="http://www.w3.org/2000/svg" xmlns:xlink="http://www.w3.org/1999/xlink">
<g id="graph0" class="graph" transform="scale(1 1) rotate(0) translate(4 151)">
<title>drivers/st77xx/include/st7789_internal.h</title>
<!-- Node1 -->
<g id="Node000001" class="node">
<title>Node1</title>
<g id="a_Node000001"><a xlink:title="Specific internal definitions for the ST7789 controller variant.">
<polygon fill="#999999" stroke="#666666" points="124,-147 0,-147 0,-113.5 124,-113.5 124,-147"/>
<text text-anchor="start" x="8" y="-133.5" font-family="Helvetica,sans-Serif" font-size="10.00">drivers/st77xx/include</text>
<text text-anchor="middle" x="62" y="-120.75" font-family="Helvetica,sans-Serif" font-size="10.00">/st7789_internal.h</text>
</a>
</g>
</g>
<!-- Node2 -->
<g id="Node000002" class="node">
<title>Node2</title>
<g id="a_Node000002"><a xlink:href="st77xx__internal_8h.html" target="_top" xlink:title="Internal definitions that are common for all ST77xx controllers.">
<polygon fill="white" stroke="#666666" points="112.38,-77.5 11.62,-77.5 11.62,-56.75 112.38,-56.75 112.38,-77.5"/>
<text text-anchor="middle" x="62" y="-64" font-family="Helvetica,sans-Serif" font-size="10.00">st77xx_internal.h</text>
</a>
</g>
</g>
<!-- Node1&#45;&gt;Node2 -->
<g id="edge1_Node000001_Node000002" class="edge">
<title>Node1&#45;&gt;Node2</title>
<g id="a_edge1_Node000001_Node000002"><a xlink:title=" ">
<path fill="none" stroke="#63b8ff" d="M62,-113.19C62,-105.85 62,-97.07 62,-89.21"/>
<polygon fill="#63b8ff" stroke="#63b8ff" points="65.5,-89.48 62,-79.48 58.5,-89.48 65.5,-89.48"/>
</a>
</g>
</g>
<!-- Node3 -->
<g id="Node000003" class="node">
<title>Node3</title>
<g id="a_Node000003"><a xlink:href="lcd__internal_8h.html" target="_top" xlink:title="Device driver implementation for the lcd display controller.">
<polygon fill="white" stroke="#666666" points="103,-20.75 21,-20.75 21,0 103,0 103,-20.75"/>
<text text-anchor="middle" x="62" y="-7.25" font-family="Helvetica,sans-Serif" font-size="10.00">lcd_internal.h</text>
</a>
</g>
</g>
<!-- Node2&#45;&gt;Node3 -->
<g id="edge2_Node000002_Node000003" class="edge">
<title>Node2&#45;&gt;Node3</title>
<g id="a_edge2_Node000002_Node000003"><a xlink:title=" ">
<path fill="none" stroke="#63b8ff" d="M62,-56.34C62,-49.72 62,-40.72 62,-32.52"/>
<polygon fill="#63b8ff" stroke="#63b8ff" points="65.5,-32.59 62,-22.59 58.5,-32.59 65.5,-32.59"/>
</a>
</g>
</g>
</g>
</svg>
