<?xml version="1.0" encoding="UTF-8" standalone="no"?>
<!DOCTYPE svg PUBLIC "-//W3C//DTD SVG 1.1//EN"
 "http://www.w3.org/Graphics/SVG/1.1/DTD/svg11.dtd">
<!-- Generated by graphviz version 12.1.1 (0)
 -->
<!-- Title: sys/include/stdio_base.h Pages: 1 -->
<svg width="636pt" height="212pt"
 viewBox="0.00 0.00 635.62 211.75" xmlns="http://www.w3.org/2000/svg" xmlns:xlink="http://www.w3.org/1999/xlink">
<g id="graph0" class="graph" transform="scale(1 1) rotate(0) translate(4 207.75)">
<title>sys/include/stdio_base.h</title>
<!-- Node1 -->
<g id="Node000001" class="node">
<title>Node1</title>
<g id="a_Node000001"><a xlink:title=" ">
<polygon fill="#999999" stroke="#666666" points="376.5,-203.75 241.25,-203.75 241.25,-183 376.5,-183 376.5,-203.75"/>
<text text-anchor="middle" x="308.88" y="-190.25" font-family="Helvetica,sans-Serif" font-size="10.00">sys/include/stdio_base.h</text>
</a>
</g>
</g>
<!-- Node2 -->
<g id="Node000002" class="node">
<title>Node2</title>
<g id="a_Node000002"><a xlink:href="stdio__nimble_8h.html" target="_top" xlink:title=" ">
<polygon fill="white" stroke="#666666" points="145.75,-147 0,-147 0,-126.25 145.75,-126.25 145.75,-147"/>
<text text-anchor="middle" x="72.88" y="-133.5" font-family="Helvetica,sans-Serif" font-size="10.00">sys/include/stdio_nimble.h</text>
</a>
</g>
</g>
<!-- Node1&#45;&gt;Node2 -->
<g id="edge1_Node000001_Node000002" class="edge">
<title>Node1&#45;&gt;Node2</title>
<g id="a_edge1_Node000001_Node000002"><a xlink:title=" ">
<path fill="none" stroke="#63b8ff" d="M255.46,-179.98C213.08,-170.15 154.64,-156.59 115.4,-147.49"/>
<polygon fill="#63b8ff" stroke="#63b8ff" points="254.4,-183.33 264.94,-182.18 255.99,-176.51 254.4,-183.33"/>
</a>
</g>
</g>
<!-- Node3 -->
<g id="Node000003" class="node">
<title>Node3</title>
<g id="a_Node000003"><a xlink:href="stdio__rtt_8h.html" target="_top" xlink:title=" ">
<polygon fill="white" stroke="#666666" points="287.5,-147 164.25,-147 164.25,-126.25 287.5,-126.25 287.5,-147"/>
<text text-anchor="middle" x="225.88" y="-133.5" font-family="Helvetica,sans-Serif" font-size="10.00">sys/include/stdio_rtt.h</text>
</a>
</g>
</g>
<!-- Node1&#45;&gt;Node3 -->
<g id="edge2_Node000001_Node000003" class="edge">
<title>Node1&#45;&gt;Node3</title>
<g id="a_edge2_Node000001_Node000003"><a xlink:title=" ">
<path fill="none" stroke="#63b8ff" d="M284.78,-176.48C270.49,-167.05 252.82,-155.4 240.59,-147.33"/>
<polygon fill="#63b8ff" stroke="#63b8ff" points="282.5,-179.17 292.77,-181.75 286.35,-173.33 282.5,-179.17"/>
</a>
</g>
</g>
<!-- Node4 -->
<g id="Node000004" class="node">
<title>Node4</title>
<g id="a_Node000004"><a xlink:href="stdio__semihosting_8h.html" target="_top" xlink:title=" ">
<polygon fill="white" stroke="#666666" points="477.88,-147 305.88,-147 305.88,-126.25 477.88,-126.25 477.88,-147"/>
<text text-anchor="middle" x="391.88" y="-133.5" font-family="Helvetica,sans-Serif" font-size="10.00">sys/include/stdio_semihosting.h</text>
</a>
</g>
</g>
<!-- Node1&#45;&gt;Node4 -->
<g id="edge3_Node000001_Node000004" class="edge">
<title>Node1&#45;&gt;Node4</title>
<g id="a_edge3_Node000001_Node000004"><a xlink:title=" ">
<path fill="none" stroke="#63b8ff" d="M332.97,-176.48C347.26,-167.05 364.93,-155.4 377.16,-147.33"/>
<polygon fill="#63b8ff" stroke="#63b8ff" points="331.4,-173.33 324.98,-181.75 335.25,-179.17 331.4,-173.33"/>
</a>
</g>
</g>
<!-- Node5 -->
<g id="Node000005" class="node">
<title>Node5</title>
<g id="a_Node000005"><a xlink:href="stdio__uart_8h.html" target="_top" xlink:title=" ">
<polygon fill="white" stroke="#666666" points="627.62,-147 496.12,-147 496.12,-126.25 627.62,-126.25 627.62,-147"/>
<text text-anchor="middle" x="561.88" y="-133.5" font-family="Helvetica,sans-Serif" font-size="10.00">sys/include/stdio_uart.h</text>
</a>
</g>
</g>
<!-- Node1&#45;&gt;Node5 -->
<g id="edge4_Node000001_Node000005" class="edge">
<title>Node1&#45;&gt;Node5</title>
<g id="a_edge4_Node000001_Node000005"><a xlink:title=" ">
<path fill="none" stroke="#63b8ff" d="M365.56,-180.11C411.04,-170.27 474.04,-156.63 516.29,-147.49"/>
<polygon fill="#63b8ff" stroke="#63b8ff" points="364.91,-176.67 355.88,-182.2 366.39,-183.51 364.91,-176.67"/>
</a>
</g>
</g>
<!-- Node6 -->
<g id="Node000006" class="node">
<title>Node6</title>
<g id="a_Node000006"><a xlink:href="ethos_8h.html" target="_top" xlink:title="Interface definition for the ethernet&#45;over&#45;serial module.">
<polygon fill="white" stroke="#666666" points="625.38,-90.25 498.38,-90.25 498.38,-69.5 625.38,-69.5 625.38,-90.25"/>
<text text-anchor="middle" x="561.88" y="-76.75" font-family="Helvetica,sans-Serif" font-size="10.00">drivers/include/ethos.h</text>
</a>
</g>
</g>
<!-- Node5&#45;&gt;Node6 -->
<g id="edge5_Node000005_Node000006" class="edge">
<title>Node5&#45;&gt;Node6</title>
<g id="a_edge5_Node000005_Node000006"><a xlink:title=" ">
<path fill="none" stroke="#63b8ff" d="M561.88,-114.38C561.88,-106.16 561.88,-97.18 561.88,-90.58"/>
<polygon fill="#63b8ff" stroke="#63b8ff" points="558.38,-114.32 561.88,-124.32 565.38,-114.32 558.38,-114.32"/>
</a>
</g>
</g>
<!-- Node7 -->
<g id="Node000007" class="node">
<title>Node7</title>
<g id="a_Node000007"><a xlink:href="ethos__params_8h.html" target="_top" xlink:title="Default configuration for the ethos device driver.">
<polygon fill="white" stroke="#666666" points="620.88,-33.5 502.88,-33.5 502.88,0 620.88,0 620.88,-33.5"/>
<text text-anchor="start" x="510.88" y="-20" font-family="Helvetica,sans-Serif" font-size="10.00">drivers/ethos/include</text>
<text text-anchor="middle" x="561.88" y="-7.25" font-family="Helvetica,sans-Serif" font-size="10.00">/ethos_params.h</text>
</a>
</g>
</g>
<!-- Node6&#45;&gt;Node7 -->
<g id="edge6_Node000006_Node000007" class="edge">
<title>Node6&#45;&gt;Node7</title>
<g id="a_edge6_Node000006_Node000007"><a xlink:title=" ">
<path fill="none" stroke="#63b8ff" d="M561.88,-57.59C561.88,-49.85 561.88,-41.22 561.88,-33.98"/>
<polygon fill="#63b8ff" stroke="#63b8ff" points="558.38,-57.54 561.88,-67.54 565.38,-57.54 558.38,-57.54"/>
</a>
</g>
</g>
</g>
</svg>
