<?xml version="1.0" encoding="UTF-8" standalone="no"?>
<!DOCTYPE svg PUBLIC "-//W3C//DTD SVG 1.1//EN"
 "http://www.w3.org/Graphics/SVG/1.1/DTD/svg11.dtd">
<!-- Generated by graphviz version 12.1.1 (0)
 -->
<!-- Title: boards/stm32f769i&#45;disco/include/board.h Pages: 1 -->
<svg width="1282pt" height="325pt"
 viewBox="0.00 0.00 1281.75 325.25" xmlns="http://www.w3.org/2000/svg" xmlns:xlink="http://www.w3.org/1999/xlink">
<g id="graph0" class="graph" transform="scale(1 1) rotate(0) translate(4 321.25)">
<title>boards/stm32f769i&#45;disco/include/board.h</title>
<!-- Node1 -->
<g id="Node000001" class="node">
<title>Node1</title>
<g id="a_Node000001"><a xlink:title="Board specific definitions for the STM32F769I&#45;DISCO board.">
<polygon fill="#999999" stroke="#666666" points="535.75,-317.25 399,-317.25 399,-283.75 535.75,-283.75 535.75,-317.25"/>
<text text-anchor="start" x="407" y="-303.75" font-family="Helvetica,sans-Serif" font-size="10.00">boards/stm32f769i&#45;disco</text>
<text text-anchor="middle" x="467.38" y="-291" font-family="Helvetica,sans-Serif" font-size="10.00">/include/board.h</text>
</a>
</g>
</g>
<!-- Node2 -->
<g id="Node000002" class="node">
<title>Node2</title>
<g id="a_Node000002"><a xlink:title=" ">
<polygon fill="#e0e0e0" stroke="#999999" points="439.5,-247.75 397.25,-247.75 397.25,-227 439.5,-227 439.5,-247.75"/>
<text text-anchor="middle" x="418.38" y="-234.25" font-family="Helvetica,sans-Serif" font-size="10.00">cpu.h</text>
</a>
</g>
</g>
<!-- Node1&#45;&gt;Node2 -->
<g id="edge1_Node000001_Node000002" class="edge">
<title>Node1&#45;&gt;Node2</title>
<g id="a_edge1_Node000001_Node000002"><a xlink:title=" ">
<path fill="none" stroke="#63b8ff" d="M454.5,-283.44C447.99,-275.32 440.05,-265.42 433.28,-256.97"/>
<polygon fill="#63b8ff" stroke="#63b8ff" points="436.2,-255.01 427.21,-249.4 430.74,-259.39 436.2,-255.01"/>
</a>
</g>
</g>
<!-- Node3 -->
<g id="Node000003" class="node">
<title>Node3</title>
<g id="a_Node000003"><a xlink:href="boards_2stm32f769i-disco_2include_2periph__conf_8h.html" target="_top" xlink:title="Peripheral MCU configuration for the STM32F769I&#45;DISCO board.">
<polygon fill="white" stroke="#666666" points="326,-191 244.75,-191 244.75,-170.25 326,-170.25 326,-191"/>
<text text-anchor="middle" x="285.38" y="-177.5" font-family="Helvetica,sans-Serif" font-size="10.00">periph_conf.h</text>
</a>
</g>
</g>
<!-- Node1&#45;&gt;Node3 -->
<g id="edge2_Node000001_Node000003" class="edge">
<title>Node1&#45;&gt;Node3</title>
<g id="a_edge2_Node000001_Node000003"><a xlink:title=" ">
<path fill="none" stroke="#63b8ff" d="M467.55,-283.43C466.85,-267.06 463.17,-242.02 448.38,-227 419.45,-197.63 373.27,-186.83 337.43,-183.06"/>
<polygon fill="#63b8ff" stroke="#63b8ff" points="337.97,-179.59 327.7,-182.2 337.36,-186.57 337.97,-179.59"/>
</a>
</g>
</g>
<!-- Node11 -->
<g id="Node000011" class="node">
<title>Node11</title>
<g id="a_Node000011"><a xlink:href="stm32__leds_8h.html" target="_top" xlink:title="Common LED macros.">
<polygon fill="white" stroke="#666666" points="758,-247.75 676.75,-247.75 676.75,-227 758,-227 758,-247.75"/>
<text text-anchor="middle" x="717.38" y="-234.25" font-family="Helvetica,sans-Serif" font-size="10.00">stm32_leds.h</text>
</a>
</g>
</g>
<!-- Node1&#45;&gt;Node11 -->
<g id="edge12_Node000001_Node000011" class="edge">
<title>Node1&#45;&gt;Node11</title>
<g id="a_edge12_Node000001_Node000011"><a xlink:title=" ">
<path fill="none" stroke="#63b8ff" d="M533.71,-283.28C575.32,-273.11 628.14,-260.19 666.44,-250.83"/>
<polygon fill="#63b8ff" stroke="#63b8ff" points="666.98,-254.3 675.86,-248.52 665.32,-247.5 666.98,-254.3"/>
</a>
</g>
</g>
<!-- Node4 -->
<g id="Node000004" class="node">
<title>Node4</title>
<g id="a_Node000004"><a xlink:title=" ">
<polygon fill="#e0e0e0" stroke="#999999" points="404.5,-77.5 326.25,-77.5 326.25,-56.75 404.5,-56.75 404.5,-77.5"/>
<text text-anchor="middle" x="365.38" y="-64" font-family="Helvetica,sans-Serif" font-size="10.00">periph_cpu.h</text>
</a>
</g>
</g>
<!-- Node3&#45;&gt;Node4 -->
<g id="edge3_Node000003_Node000004" class="edge">
<title>Node3&#45;&gt;Node4</title>
<g id="a_edge3_Node000003_Node000004"><a xlink:title=" ">
<path fill="none" stroke="#63b8ff" d="M292.2,-170.12C305.35,-151.78 334.47,-111.2 351.74,-87.12"/>
<polygon fill="#63b8ff" stroke="#63b8ff" points="354.48,-89.32 357.46,-79.15 348.79,-85.24 354.48,-89.32"/>
</a>
</g>
</g>
<!-- Node5 -->
<g id="Node000005" class="node">
<title>Node5</title>
<g id="a_Node000005"><a xlink:title=" ">
<polygon fill="#e0e0e0" stroke="#999999" points="64.75,-134.25 0,-134.25 0,-113.5 64.75,-113.5 64.75,-134.25"/>
<text text-anchor="middle" x="32.38" y="-120.75" font-family="Helvetica,sans-Serif" font-size="10.00">clk_conf.h</text>
</a>
</g>
</g>
<!-- Node3&#45;&gt;Node5 -->
<g id="edge4_Node000003_Node000005" class="edge">
<title>Node3&#45;&gt;Node5</title>
<g id="a_edge4_Node000003_Node000005"><a xlink:title=" ">
<path fill="none" stroke="#63b8ff" d="M244.51,-170.94C204.32,-162.37 140.9,-148.79 76.17,-134.63"/>
<polygon fill="#63b8ff" stroke="#63b8ff" points="76.92,-131.21 66.41,-132.49 75.43,-138.05 76.92,-131.21"/>
</a>
</g>
</g>
<!-- Node6 -->
<g id="Node000006" class="node">
<title>Node6</title>
<g id="a_Node000006"><a xlink:title=" ">
<polygon fill="#e0e0e0" stroke="#999999" points="179.5,-134.25 83.25,-134.25 83.25,-113.5 179.5,-113.5 179.5,-134.25"/>
<text text-anchor="middle" x="131.38" y="-120.75" font-family="Helvetica,sans-Serif" font-size="10.00">cfg_rtt_default.h</text>
</a>
</g>
</g>
<!-- Node3&#45;&gt;Node6 -->
<g id="edge5_Node000003_Node000006" class="edge">
<title>Node3&#45;&gt;Node6</title>
<g id="a_edge5_Node000003_Node000006"><a xlink:title=" ">
<path fill="none" stroke="#63b8ff" d="M257.84,-169.84C233.28,-161.11 197.08,-148.23 169.69,-138.5"/>
<polygon fill="#63b8ff" stroke="#63b8ff" points="170.95,-135.23 160.35,-135.18 168.6,-141.83 170.95,-135.23"/>
</a>
</g>
</g>
<!-- Node7 -->
<g id="Node000007" class="node">
<title>Node7</title>
<g id="a_Node000007"><a xlink:href="cfg__timer__tim2_8h.html" target="_top" xlink:title="Common configuration for STM32 Timer peripheral based on TIM2.">
<polygon fill="white" stroke="#666666" points="451,-134.25 351.75,-134.25 351.75,-113.5 451,-113.5 451,-134.25"/>
<text text-anchor="middle" x="401.38" y="-120.75" font-family="Helvetica,sans-Serif" font-size="10.00">cfg_timer_tim2.h</text>
</a>
</g>
</g>
<!-- Node3&#45;&gt;Node7 -->
<g id="edge6_Node000003_Node000007" class="edge">
<title>Node3&#45;&gt;Node7</title>
<g id="a_edge6_Node000003_Node000007"><a xlink:title=" ">
<path fill="none" stroke="#63b8ff" d="M306.11,-169.84C324.01,-161.39 350.12,-149.07 370.48,-139.46"/>
<polygon fill="#63b8ff" stroke="#63b8ff" points="371.9,-142.66 379.45,-135.22 368.91,-136.33 371.9,-142.66"/>
</a>
</g>
</g>
<!-- Node8 -->
<g id="Node000008" class="node">
<title>Node8</title>
<g id="a_Node000008"><a xlink:href="cfg__usb__otg__fs_8h.html" target="_top" xlink:title="Common configuration for STM32 OTG FS peripheral.">
<polygon fill="white" stroke="#666666" points="295.25,-134.25 197.5,-134.25 197.5,-113.5 295.25,-113.5 295.25,-134.25"/>
<text text-anchor="middle" x="246.38" y="-120.75" font-family="Helvetica,sans-Serif" font-size="10.00">cfg_usb_otg_fs.h</text>
</a>
</g>
</g>
<!-- Node3&#45;&gt;Node8 -->
<g id="edge8_Node000003_Node000008" class="edge">
<title>Node3&#45;&gt;Node8</title>
<g id="a_edge8_Node000003_Node000008"><a xlink:title=" ">
<path fill="none" stroke="#63b8ff" d="M278.4,-169.84C273.24,-162.6 266.06,-152.51 259.8,-143.72"/>
<polygon fill="#63b8ff" stroke="#63b8ff" points="262.82,-141.93 254.17,-135.81 257.12,-145.99 262.82,-141.93"/>
</a>
</g>
</g>
<!-- Node7&#45;&gt;Node4 -->
<g id="edge7_Node000007_Node000004" class="edge">
<title>Node7&#45;&gt;Node4</title>
<g id="a_edge7_Node000007_Node000004"><a xlink:title=" ">
<path fill="none" stroke="#63b8ff" d="M394.94,-113.09C390.23,-105.92 383.69,-95.98 377.96,-87.26"/>
<polygon fill="#63b8ff" stroke="#63b8ff" points="381.01,-85.53 372.59,-79.09 375.16,-89.37 381.01,-85.53"/>
</a>
</g>
</g>
<!-- Node8&#45;&gt;Node4 -->
<g id="edge9_Node000008_Node000004" class="edge">
<title>Node8&#45;&gt;Node4</title>
<g id="a_edge9_Node000008_Node000004"><a xlink:title=" ">
<path fill="none" stroke="#63b8ff" d="M267.65,-113.09C286.09,-104.6 313.04,-92.2 333.97,-82.58"/>
<polygon fill="#63b8ff" stroke="#63b8ff" points="335.29,-85.82 342.91,-78.46 332.36,-79.46 335.29,-85.82"/>
</a>
</g>
</g>
<!-- Node9 -->
<g id="Node000009" class="node">
<title>Node9</title>
<g id="a_Node000009"><a xlink:href="usbdev__synopsys__dwc2_8h.html" target="_top" xlink:title="Low level USB FS/HS driver definitions for MCUs with Synopsys DWC2 IP core.">
<polygon fill="white" stroke="#666666" points="308.38,-77.5 166.38,-77.5 166.38,-56.75 308.38,-56.75 308.38,-77.5"/>
<text text-anchor="middle" x="237.38" y="-64" font-family="Helvetica,sans-Serif" font-size="10.00">usbdev_synopsys_dwc2.h</text>
</a>
</g>
</g>
<!-- Node8&#45;&gt;Node9 -->
<g id="edge10_Node000008_Node000009" class="edge">
<title>Node8&#45;&gt;Node9</title>
<g id="a_edge10_Node000008_Node000009"><a xlink:title=" ">
<path fill="none" stroke="#63b8ff" d="M244.77,-113.09C243.67,-106.39 242.16,-97.26 240.8,-88.98"/>
<polygon fill="#63b8ff" stroke="#63b8ff" points="244.29,-88.62 239.22,-79.32 237.38,-89.76 244.29,-88.62"/>
</a>
</g>
</g>
<!-- Node10 -->
<g id="Node000010" class="node">
<title>Node10</title>
<g id="a_Node000010"><a xlink:title=" ">
<polygon fill="#e0e0e0" stroke="#999999" points="967.75,-20.75 915,-20.75 915,0 967.75,0 967.75,-20.75"/>
<text text-anchor="middle" x="941.38" y="-7.25" font-family="Helvetica,sans-Serif" font-size="10.00">stdint.h</text>
</a>
</g>
</g>
<!-- Node9&#45;&gt;Node10 -->
<g id="edge11_Node000009_Node000010" class="edge">
<title>Node9&#45;&gt;Node10</title>
<g id="a_edge11_Node000009_Node000010"><a xlink:title=" ">
<path fill="none" stroke="#63b8ff" d="M308.46,-57.63C311.47,-57.32 314.45,-57.03 317.38,-56.75 539,-35.72 805.71,-19.28 903.27,-13.56"/>
<polygon fill="#63b8ff" stroke="#63b8ff" points="903.29,-17.06 913.07,-12.99 902.88,-10.08 903.29,-17.06"/>
</a>
</g>
</g>
<!-- Node12 -->
<g id="Node000012" class="node">
<title>Node12</title>
<g id="a_Node000012"><a xlink:href="gpio__ll_8h.html" target="_top" xlink:title="Peripheral GPIO Low&#45;Level API.">
<polygon fill="white" stroke="#666666" points="762.88,-191 671.88,-191 671.88,-170.25 762.88,-170.25 762.88,-191"/>
<text text-anchor="middle" x="717.38" y="-177.5" font-family="Helvetica,sans-Serif" font-size="10.00">periph/gpio_ll.h</text>
</a>
</g>
</g>
<!-- Node11&#45;&gt;Node12 -->
<g id="edge13_Node000011_Node000012" class="edge">
<title>Node11&#45;&gt;Node12</title>
<g id="a_edge13_Node000011_Node000012"><a xlink:title=" ">
<path fill="none" stroke="#63b8ff" d="M717.38,-226.59C717.38,-219.97 717.38,-210.97 717.38,-202.77"/>
<polygon fill="#63b8ff" stroke="#63b8ff" points="720.88,-202.84 717.38,-192.84 713.88,-202.84 720.88,-202.84"/>
</a>
</g>
</g>
<!-- Node22 -->
<g id="Node000022" class="node">
<title>Node22</title>
<g id="a_Node000022"><a xlink:href="kernel__defines_8h.html" target="_top" xlink:title="Common macros and compiler attributes/pragmas configuration.">
<polygon fill="white" stroke="#666666" points="1161.5,-191 1065.25,-191 1065.25,-170.25 1161.5,-170.25 1161.5,-191"/>
<text text-anchor="middle" x="1113.38" y="-177.5" font-family="Helvetica,sans-Serif" font-size="10.00">kernel_defines.h</text>
</a>
</g>
</g>
<!-- Node11&#45;&gt;Node22 -->
<g id="edge29_Node000011_Node000022" class="edge">
<title>Node11&#45;&gt;Node22</title>
<g id="a_edge29_Node000011_Node000022"><a xlink:title=" ">
<path fill="none" stroke="#63b8ff" d="M758.26,-230.72C828.57,-221 972.63,-201.08 1054,-189.83"/>
<polygon fill="#63b8ff" stroke="#63b8ff" points="1054.12,-193.35 1063.55,-188.51 1053.16,-186.42 1054.12,-193.35"/>
</a>
</g>
</g>
<!-- Node12&#45;&gt;Node4 -->
<g id="edge27_Node000012_Node000004" class="edge">
<title>Node12&#45;&gt;Node4</title>
<g id="a_edge27_Node000012_Node000004"><a xlink:title=" ">
<path fill="none" stroke="#63b8ff" d="M671.41,-174.13C626.33,-167.81 556.14,-155.47 498.38,-134.25 480.31,-127.61 477.51,-122.26 460.38,-113.5 439.43,-102.79 415.52,-91.37 396.93,-82.67"/>
<polygon fill="#63b8ff" stroke="#63b8ff" points="398.58,-79.58 388.04,-78.53 395.62,-85.93 398.58,-79.58"/>
</a>
</g>
</g>
<!-- Node12&#45;&gt;Node10 -->
<g id="edge17_Node000012_Node000010" class="edge">
<title>Node12&#45;&gt;Node10</title>
<g id="a_edge17_Node000012_Node000010"><a xlink:title=" ">
<path fill="none" stroke="#63b8ff" d="M717.74,-169.79C718.79,-155.61 722.73,-129.36 737.38,-113.5 767.17,-81.25 789.9,-96.72 829.38,-77.5 860.57,-62.31 894.67,-41.53 916.95,-27.34"/>
<polygon fill="#63b8ff" stroke="#63b8ff" points="918.79,-30.32 925.31,-21.97 915.01,-24.43 918.79,-30.32"/>
</a>
</g>
</g>
<!-- Node13 -->
<g id="Node000013" class="node">
<title>Node13</title>
<g id="a_Node000013"><a xlink:href="assert_8h.html" target="_top" xlink:title="POSIX.1&#45;2008 compliant version of the assert macro.">
<polygon fill="white" stroke="#666666" points="968.88,-77.5 913.88,-77.5 913.88,-56.75 968.88,-56.75 968.88,-77.5"/>
<text text-anchor="middle" x="941.38" y="-64" font-family="Helvetica,sans-Serif" font-size="10.00">assert.h</text>
</a>
</g>
</g>
<!-- Node12&#45;&gt;Node13 -->
<g id="edge14_Node000012_Node000013" class="edge">
<title>Node12&#45;&gt;Node13</title>
<g id="a_edge14_Node000012_Node000013"><a xlink:title=" ">
<path fill="none" stroke="#63b8ff" d="M763.15,-174.36C814.88,-167.55 894.81,-154.15 917.38,-134.25 930.4,-122.76 936.36,-103.64 939.08,-88.9"/>
<polygon fill="#63b8ff" stroke="#63b8ff" points="942.5,-89.72 940.48,-79.32 935.57,-88.71 942.5,-89.72"/>
</a>
</g>
</g>
<!-- Node14 -->
<g id="Node000014" class="node">
<title>Node14</title>
<g id="a_Node000014"><a xlink:title=" ">
<polygon fill="#e0e0e0" stroke="#999999" points="806.88,-134.25 745.88,-134.25 745.88,-113.5 806.88,-113.5 806.88,-134.25"/>
<text text-anchor="middle" x="776.38" y="-120.75" font-family="Helvetica,sans-Serif" font-size="10.00">stdbool.h</text>
</a>
</g>
</g>
<!-- Node12&#45;&gt;Node14 -->
<g id="edge16_Node000012_Node000014" class="edge">
<title>Node12&#45;&gt;Node14</title>
<g id="a_edge16_Node000012_Node000014"><a xlink:title=" ">
<path fill="none" stroke="#63b8ff" d="M727.92,-169.84C736.15,-162.21 747.77,-151.42 757.58,-142.32"/>
<polygon fill="#63b8ff" stroke="#63b8ff" points="759.86,-144.98 764.81,-135.61 755.1,-139.84 759.86,-144.98"/>
</a>
</g>
</g>
<!-- Node15 -->
<g id="Node000015" class="node">
<title>Node15</title>
<g id="a_Node000015"><a xlink:href="architecture_8h.html" target="_top" xlink:title="Platform&#45;independent access to architecture details.">
<polygon fill="white" stroke="#666666" points="689.12,-134.25 605.62,-134.25 605.62,-113.5 689.12,-113.5 689.12,-134.25"/>
<text text-anchor="middle" x="647.38" y="-120.75" font-family="Helvetica,sans-Serif" font-size="10.00">architecture.h</text>
</a>
</g>
</g>
<!-- Node12&#45;&gt;Node15 -->
<g id="edge18_Node000012_Node000015" class="edge">
<title>Node12&#45;&gt;Node15</title>
<g id="a_edge18_Node000012_Node000015"><a xlink:title=" ">
<path fill="none" stroke="#63b8ff" d="M704.86,-169.84C694.81,-161.97 680.46,-150.75 668.62,-141.49"/>
<polygon fill="#63b8ff" stroke="#63b8ff" points="671.01,-138.91 660.97,-135.51 666.69,-144.43 671.01,-138.91"/>
</a>
</g>
</g>
<!-- Node19 -->
<g id="Node000019" class="node">
<title>Node19</title>
<g id="a_Node000019"><a xlink:href="drivers_2include_2periph_2gpio_8h.html" target="_top" xlink:title="Low&#45;level GPIO peripheral driver interface definitions.">
<polygon fill="white" stroke="#666666" points="587.25,-134.25 507.5,-134.25 507.5,-113.5 587.25,-113.5 587.25,-134.25"/>
<text text-anchor="middle" x="547.38" y="-120.75" font-family="Helvetica,sans-Serif" font-size="10.00">periph/gpio.h</text>
</a>
</g>
</g>
<!-- Node12&#45;&gt;Node19 -->
<g id="edge23_Node000012_Node000019" class="edge">
<title>Node12&#45;&gt;Node19</title>
<g id="a_edge23_Node000012_Node000019"><a xlink:title=" ">
<path fill="none" stroke="#63b8ff" d="M686.98,-169.84C659.51,-160.99 618.84,-147.89 588.47,-138.11"/>
<polygon fill="#63b8ff" stroke="#63b8ff" points="589.82,-134.87 579.23,-135.13 587.68,-141.53 589.82,-134.87"/>
</a>
</g>
</g>
<!-- Node21 -->
<g id="Node000021" class="node">
<title>Node21</title>
<g id="a_Node000021"><a xlink:title=" ">
<polygon fill="#e0e0e0" stroke="#999999" points="908.12,-134.25 824.62,-134.25 824.62,-113.5 908.12,-113.5 908.12,-134.25"/>
<text text-anchor="middle" x="866.38" y="-120.75" font-family="Helvetica,sans-Serif" font-size="10.00">gpio_ll_arch.h</text>
</a>
</g>
</g>
<!-- Node12&#45;&gt;Node21 -->
<g id="edge28_Node000012_Node000021" class="edge">
<title>Node12&#45;&gt;Node21</title>
<g id="a_edge28_Node000012_Node000021"><a xlink:title=" ">
<path fill="none" stroke="#63b8ff" d="M744.01,-169.84C767.67,-161.14 802.49,-148.35 828.95,-138.63"/>
<polygon fill="#63b8ff" stroke="#63b8ff" points="830.12,-141.93 838.3,-135.19 827.7,-135.36 830.12,-141.93"/>
</a>
</g>
</g>
<!-- Node13&#45;&gt;Node10 -->
<g id="edge15_Node000013_Node000010" class="edge">
<title>Node13&#45;&gt;Node10</title>
<g id="a_edge15_Node000013_Node000010"><a xlink:title=" ">
<path fill="none" stroke="#63b8ff" d="M941.38,-56.34C941.38,-49.72 941.38,-40.72 941.38,-32.52"/>
<polygon fill="#63b8ff" stroke="#63b8ff" points="944.88,-32.59 941.38,-22.59 937.88,-32.59 944.88,-32.59"/>
</a>
</g>
</g>
<!-- Node15&#45;&gt;Node10 -->
<g id="edge19_Node000015_Node000010" class="edge">
<title>Node15&#45;&gt;Node10</title>
<g id="a_edge19_Node000015_Node000010"><a xlink:title=" ">
<path fill="none" stroke="#63b8ff" d="M684.19,-113.07C714.03,-104.73 756.95,-91.86 793.38,-77.5 813.12,-69.72 817.08,-65.57 836.38,-56.75 859.95,-45.97 886.79,-34.39 907.42,-25.62"/>
<polygon fill="#63b8ff" stroke="#63b8ff" points="908.66,-28.9 916.5,-21.78 905.93,-22.45 908.66,-28.9"/>
</a>
</g>
</g>
<!-- Node16 -->
<g id="Node000016" class="node">
<title>Node16</title>
<g id="a_Node000016"><a xlink:href="inttypes_8h.html" target="_top" xlink:title="Adds include for missing inttype definitions.">
<polygon fill="white" stroke="#666666" points="784.75,-77.5 720,-77.5 720,-56.75 784.75,-56.75 784.75,-77.5"/>
<text text-anchor="middle" x="752.38" y="-64" font-family="Helvetica,sans-Serif" font-size="10.00">inttypes.h</text>
</a>
</g>
</g>
<!-- Node15&#45;&gt;Node16 -->
<g id="edge20_Node000015_Node000016" class="edge">
<title>Node15&#45;&gt;Node16</title>
<g id="a_edge20_Node000015_Node000016"><a xlink:title=" ">
<path fill="none" stroke="#63b8ff" d="M666.15,-113.09C682.12,-104.76 705.33,-92.66 723.64,-83.11"/>
<polygon fill="#63b8ff" stroke="#63b8ff" points="725.17,-86.26 732.42,-78.53 721.94,-80.05 725.17,-86.26"/>
</a>
</g>
</g>
<!-- Node17 -->
<g id="Node000017" class="node">
<title>Node17</title>
<g id="a_Node000017"><a xlink:title=" ">
<polygon fill="#e0e0e0" stroke="#999999" points="574.75,-77.5 522,-77.5 522,-56.75 574.75,-56.75 574.75,-77.5"/>
<text text-anchor="middle" x="548.38" y="-64" font-family="Helvetica,sans-Serif" font-size="10.00">limits.h</text>
</a>
</g>
</g>
<!-- Node15&#45;&gt;Node17 -->
<g id="edge21_Node000015_Node000017" class="edge">
<title>Node15&#45;&gt;Node17</title>
<g id="a_edge21_Node000015_Node000017"><a xlink:title=" ">
<path fill="none" stroke="#63b8ff" d="M629.68,-113.09C614.75,-104.83 593.14,-92.88 575.95,-83.38"/>
<polygon fill="#63b8ff" stroke="#63b8ff" points="577.69,-80.34 567.25,-78.56 574.3,-86.46 577.69,-80.34"/>
</a>
</g>
</g>
<!-- Node18 -->
<g id="Node000018" class="node">
<title>Node18</title>
<g id="a_Node000018"><a xlink:title=" ">
<polygon fill="#e0e0e0" stroke="#999999" points="702.25,-77.5 592.5,-77.5 592.5,-56.75 702.25,-56.75 702.25,-77.5"/>
<text text-anchor="middle" x="647.38" y="-64" font-family="Helvetica,sans-Serif" font-size="10.00">architecture_arch.h</text>
</a>
</g>
</g>
<!-- Node15&#45;&gt;Node18 -->
<g id="edge22_Node000015_Node000018" class="edge">
<title>Node15&#45;&gt;Node18</title>
<g id="a_edge22_Node000015_Node000018"><a xlink:title=" ">
<path fill="none" stroke="#63b8ff" d="M647.38,-113.09C647.38,-106.47 647.38,-97.47 647.38,-89.27"/>
<polygon fill="#63b8ff" stroke="#63b8ff" points="650.88,-89.34 647.38,-79.34 643.88,-89.34 650.88,-89.34"/>
</a>
</g>
</g>
<!-- Node19&#45;&gt;Node4 -->
<g id="edge25_Node000019_Node000004" class="edge">
<title>Node19&#45;&gt;Node4</title>
<g id="a_edge25_Node000019_Node000004"><a xlink:title=" ">
<path fill="none" stroke="#63b8ff" d="M514.84,-113.09C485.29,-104.2 441.5,-91.02 408.94,-81.23"/>
<polygon fill="#63b8ff" stroke="#63b8ff" points="409.97,-77.89 399.39,-78.36 407.95,-84.59 409.97,-77.89"/>
</a>
</g>
</g>
<!-- Node19&#45;&gt;Node17 -->
<g id="edge24_Node000019_Node000017" class="edge">
<title>Node19&#45;&gt;Node17</title>
<g id="a_edge24_Node000019_Node000017"><a xlink:title=" ">
<path fill="none" stroke="#63b8ff" d="M547.55,-113.09C547.67,-106.47 547.84,-97.47 547.99,-89.27"/>
<polygon fill="#63b8ff" stroke="#63b8ff" points="551.49,-89.4 548.17,-79.34 544.49,-89.28 551.49,-89.4"/>
</a>
</g>
</g>
<!-- Node20 -->
<g id="Node000020" class="node">
<title>Node20</title>
<g id="a_Node000020"><a xlink:title=" ">
<polygon fill="#e0e0e0" stroke="#999999" points="504,-77.5 422.75,-77.5 422.75,-56.75 504,-56.75 504,-77.5"/>
<text text-anchor="middle" x="463.38" y="-64" font-family="Helvetica,sans-Serif" font-size="10.00">periph_conf.h</text>
</a>
</g>
</g>
<!-- Node19&#45;&gt;Node20 -->
<g id="edge26_Node000019_Node000020" class="edge">
<title>Node19&#45;&gt;Node20</title>
<g id="a_edge26_Node000019_Node000020"><a xlink:title=" ">
<path fill="none" stroke="#63b8ff" d="M532.36,-113.09C519.93,-104.99 502.05,-93.33 487.6,-83.92"/>
<polygon fill="#63b8ff" stroke="#63b8ff" points="489.82,-81.18 479.53,-78.65 486,-87.05 489.82,-81.18"/>
</a>
</g>
</g>
<!-- Node23 -->
<g id="Node000023" class="node">
<title>Node23</title>
<g id="a_Node000023"><a xlink:href="modules_8h.html" target="_top" xlink:title="Common macros and compiler attributes/pragmas configuration.">
<polygon fill="white" stroke="#666666" points="1146.88,-134.25 1079.88,-134.25 1079.88,-113.5 1146.88,-113.5 1146.88,-134.25"/>
<text text-anchor="middle" x="1113.38" y="-120.75" font-family="Helvetica,sans-Serif" font-size="10.00">modules.h</text>
</a>
</g>
</g>
<!-- Node22&#45;&gt;Node23 -->
<g id="edge30_Node000022_Node000023" class="edge">
<title>Node22&#45;&gt;Node23</title>
<g id="a_edge30_Node000022_Node000023"><a xlink:title=" ">
<path fill="none" stroke="#63b8ff" d="M1113.38,-169.84C1113.38,-163.22 1113.38,-154.22 1113.38,-146.02"/>
<polygon fill="#63b8ff" stroke="#63b8ff" points="1116.88,-146.09 1113.38,-136.09 1109.88,-146.09 1116.88,-146.09"/>
</a>
</g>
</g>
<!-- Node24 -->
<g id="Node000024" class="node">
<title>Node24</title>
<g id="a_Node000024"><a xlink:href="riot__version_8h.html" target="_top" xlink:title="Common macros and compiler attributes/pragmas configuration.">
<polygon fill="white" stroke="#666666" points="1125.75,-77.5 1043,-77.5 1043,-56.75 1125.75,-56.75 1125.75,-77.5"/>
<text text-anchor="middle" x="1084.38" y="-64" font-family="Helvetica,sans-Serif" font-size="10.00">riot_version.h</text>
</a>
</g>
</g>
<!-- Node22&#45;&gt;Node24 -->
<g id="edge31_Node000022_Node000024" class="edge">
<title>Node22&#45;&gt;Node24</title>
<g id="a_edge31_Node000022_Node000024"><a xlink:title=" ">
<path fill="none" stroke="#63b8ff" d="M1127.61,-169.82C1144.16,-157.15 1167.82,-134.24 1156.38,-113.5 1148.92,-100 1135.58,-89.96 1122.38,-82.81"/>
<polygon fill="#63b8ff" stroke="#63b8ff" points="1124.29,-79.85 1113.78,-78.56 1121.2,-86.13 1124.29,-79.85"/>
</a>
</g>
</g>
<!-- Node25 -->
<g id="Node000025" class="node">
<title>Node25</title>
<g id="a_Node000025"><a xlink:href="compiler__hints_8h.html" target="_top" xlink:title="Common macros and compiler attributes/pragmas configuration.">
<polygon fill="white" stroke="#666666" points="1061.88,-134.25 964.88,-134.25 964.88,-113.5 1061.88,-113.5 1061.88,-134.25"/>
<text text-anchor="middle" x="1013.38" y="-120.75" font-family="Helvetica,sans-Serif" font-size="10.00">compiler_hints.h</text>
</a>
</g>
</g>
<!-- Node22&#45;&gt;Node25 -->
<g id="edge33_Node000022_Node000025" class="edge">
<title>Node22&#45;&gt;Node25</title>
<g id="a_edge33_Node000022_Node000025"><a xlink:title=" ">
<path fill="none" stroke="#63b8ff" d="M1095.5,-169.84C1080.28,-161.51 1058.18,-149.41 1040.74,-139.86"/>
<polygon fill="#63b8ff" stroke="#63b8ff" points="1042.88,-137.04 1032.43,-135.31 1039.52,-143.18 1042.88,-137.04"/>
</a>
</g>
</g>
<!-- Node26 -->
<g id="Node000026" class="node">
<title>Node26</title>
<g id="a_Node000026"><a xlink:href="container_8h.html" target="_top" xlink:title="Common macros and compiler attributes/pragmas configuration.">
<polygon fill="white" stroke="#666666" points="1273.75,-134.25 1203,-134.25 1203,-113.5 1273.75,-113.5 1273.75,-134.25"/>
<text text-anchor="middle" x="1238.38" y="-120.75" font-family="Helvetica,sans-Serif" font-size="10.00">container.h</text>
</a>
</g>
</g>
<!-- Node22&#45;&gt;Node26 -->
<g id="edge36_Node000022_Node000026" class="edge">
<title>Node22&#45;&gt;Node26</title>
<g id="a_edge36_Node000022_Node000026"><a xlink:title=" ">
<path fill="none" stroke="#63b8ff" d="M1135.72,-169.84C1155.19,-161.31 1183.66,-148.84 1205.68,-139.19"/>
<polygon fill="#63b8ff" stroke="#63b8ff" points="1207.08,-142.4 1214.83,-135.19 1204.27,-135.99 1207.08,-142.4"/>
</a>
</g>
</g>
<!-- Node24&#45;&gt;Node10 -->
<g id="edge32_Node000024_Node000010" class="edge">
<title>Node24&#45;&gt;Node10</title>
<g id="a_edge32_Node000024_Node000010"><a xlink:title=" ">
<path fill="none" stroke="#63b8ff" d="M1058.81,-56.34C1036.14,-47.66 1002.78,-34.88 977.4,-25.17"/>
<polygon fill="#63b8ff" stroke="#63b8ff" points="978.72,-21.93 968.13,-21.62 976.22,-28.46 978.72,-21.93"/>
</a>
</g>
</g>
<!-- Node25&#45;&gt;Node10 -->
<g id="edge35_Node000025_Node000010" class="edge">
<title>Node25&#45;&gt;Node10</title>
<g id="a_edge35_Node000025_Node000010"><a xlink:title=" ">
<path fill="none" stroke="#63b8ff" d="M1008.96,-113.12C1002.81,-99.91 991.01,-75.8 978.38,-56.75 972.16,-47.37 964.4,-37.62 957.6,-29.57"/>
<polygon fill="#63b8ff" stroke="#63b8ff" points="960.38,-27.44 951.19,-22.18 955.09,-32.03 960.38,-27.44"/>
</a>
</g>
</g>
<!-- Node25&#45;&gt;Node13 -->
<g id="edge34_Node000025_Node000013" class="edge">
<title>Node25&#45;&gt;Node13</title>
<g id="a_edge34_Node000025_Node000013"><a xlink:title=" ">
<path fill="none" stroke="#63b8ff" d="M1000.5,-113.09C990.16,-105.22 975.41,-94 963.22,-84.74"/>
<polygon fill="#63b8ff" stroke="#63b8ff" points="965.42,-82.01 955.34,-78.74 961.18,-87.58 965.42,-82.01"/>
</a>
</g>
</g>
<!-- Node26&#45;&gt;Node10 -->
<g id="edge38_Node000026_Node000010" class="edge">
<title>Node26&#45;&gt;Node10</title>
<g id="a_edge38_Node000026_Node000010"><a xlink:title=" ">
<path fill="none" stroke="#63b8ff" d="M1238.6,-113.11C1238.37,-98.52 1235.63,-71.19 1219.38,-56.75 1184.46,-25.73 1046.85,-15.74 979.26,-12.66"/>
<polygon fill="#63b8ff" stroke="#63b8ff" points="979.53,-9.17 969.39,-12.25 979.23,-16.17 979.53,-9.17"/>
</a>
</g>
</g>
<!-- Node27 -->
<g id="Node000027" class="node">
<title>Node27</title>
<g id="a_Node000027"><a xlink:title=" ">
<polygon fill="#e0e0e0" stroke="#999999" points="1209.88,-77.5 1154.88,-77.5 1154.88,-56.75 1209.88,-56.75 1209.88,-77.5"/>
<text text-anchor="middle" x="1182.38" y="-64" font-family="Helvetica,sans-Serif" font-size="10.00">stddef.h</text>
</a>
</g>
</g>
<!-- Node26&#45;&gt;Node27 -->
<g id="edge37_Node000026_Node000027" class="edge">
<title>Node26&#45;&gt;Node27</title>
<g id="a_edge37_Node000026_Node000027"><a xlink:title=" ">
<path fill="none" stroke="#63b8ff" d="M1228.36,-113.09C1220.64,-105.53 1209.75,-94.89 1200.5,-85.85"/>
<polygon fill="#63b8ff" stroke="#63b8ff" points="1202.98,-83.37 1193.38,-78.89 1198.09,-88.38 1202.98,-83.37"/>
</a>
</g>
</g>
</g>
</svg>
