<?xml version="1.0" encoding="UTF-8" standalone="no"?>
<!DOCTYPE svg PUBLIC "-//W3C//DTD SVG 1.1//EN"
 "http://www.w3.org/Graphics/SVG/1.1/DTD/svg11.dtd">
<!-- Generated by graphviz version 12.1.1 (0)
 -->
<!-- Title: boards/stm32l476g&#45;disco/include/gpio_params.h Pages: 1 -->
<svg width="907pt" height="382pt"
 viewBox="0.00 0.00 907.07 382.00" xmlns="http://www.w3.org/2000/svg" xmlns:xlink="http://www.w3.org/1999/xlink">
<g id="graph0" class="graph" transform="scale(1 1) rotate(0) translate(4 378)">
<title>boards/stm32l476g&#45;disco/include/gpio_params.h</title>
<!-- Node1 -->
<g id="Node000001" class="node">
<title>Node1</title>
<g id="a_Node000001"><a xlink:title="Board specific configuration of direct mapped GPIOs.">
<polygon fill="#999999" stroke="#666666" points="438.5,-374 299.5,-374 299.5,-340.5 438.5,-340.5 438.5,-374"/>
<text text-anchor="start" x="307.5" y="-360.5" font-family="Helvetica,sans-Serif" font-size="10.00">boards/stm32l476g&#45;disco</text>
<text text-anchor="middle" x="369" y="-347.75" font-family="Helvetica,sans-Serif" font-size="10.00">/include/gpio_params.h</text>
</a>
</g>
</g>
<!-- Node2 -->
<g id="Node000002" class="node">
<title>Node2</title>
<g id="a_Node000002"><a xlink:href="stm32l476g-disco_2include_2board_8h.html" target="_top" xlink:title="Support for the STM32L476G&#45;DISCO board.">
<polygon fill="white" stroke="#666666" points="361.38,-304.5 308.62,-304.5 308.62,-283.75 361.38,-283.75 361.38,-304.5"/>
<text text-anchor="middle" x="335" y="-291" font-family="Helvetica,sans-Serif" font-size="10.00">board.h</text>
</a>
</g>
</g>
<!-- Node1&#45;&gt;Node2 -->
<g id="edge1_Node000001_Node000002" class="edge">
<title>Node1&#45;&gt;Node2</title>
<g id="a_edge1_Node000001_Node000002"><a xlink:title=" ">
<path fill="none" stroke="#63b8ff" d="M360.07,-340.19C355.74,-332.42 350.51,-323.02 345.95,-314.82"/>
<polygon fill="#63b8ff" stroke="#63b8ff" points="349.13,-313.33 341.21,-306.29 343.01,-316.73 349.13,-313.33"/>
</a>
</g>
</g>
<!-- Node23 -->
<g id="Node000023" class="node">
<title>Node23</title>
<g id="a_Node000023"><a xlink:href="periph_8h.html" target="_top" xlink:title="Parameter definitions for mapping peripherals directly to SAUL.">
<polygon fill="white" stroke="#666666" points="739.5,-134.25 660.5,-134.25 660.5,-113.5 739.5,-113.5 739.5,-134.25"/>
<text text-anchor="middle" x="700" y="-120.75" font-family="Helvetica,sans-Serif" font-size="10.00">saul/periph.h</text>
</a>
</g>
</g>
<!-- Node1&#45;&gt;Node23 -->
<g id="edge31_Node000001_Node000023" class="edge">
<title>Node1&#45;&gt;Node23</title>
<g id="a_edge31_Node000001_Node000023"><a xlink:title=" ">
<path fill="none" stroke="#63b8ff" d="M392.01,-340.16C452.56,-297.84 615.83,-183.71 676.7,-141.16"/>
<polygon fill="#63b8ff" stroke="#63b8ff" points="678.45,-144.21 684.64,-135.61 674.44,-138.47 678.45,-144.21"/>
</a>
</g>
</g>
<!-- Node3 -->
<g id="Node000003" class="node">
<title>Node3</title>
<g id="a_Node000003"><a xlink:title=" ">
<polygon fill="#e0e0e0" stroke="#999999" points="271.38,-20.75 218.62,-20.75 218.62,0 271.38,0 271.38,-20.75"/>
<text text-anchor="middle" x="245" y="-7.25" font-family="Helvetica,sans-Serif" font-size="10.00">stdint.h</text>
</a>
</g>
</g>
<!-- Node2&#45;&gt;Node3 -->
<g id="edge2_Node000002_Node000003" class="edge">
<title>Node2&#45;&gt;Node3</title>
<g id="a_edge2_Node000002_Node000003"><a xlink:title=" ">
<path fill="none" stroke="#63b8ff" d="M308.15,-290.06C228.66,-280.27 0,-246.45 0,-181.62 0,-181.62 0,-181.62 0,-122.88 0,-32.98 138.35,-15.22 207.12,-11.95"/>
<polygon fill="#63b8ff" stroke="#63b8ff" points="206.94,-15.46 216.8,-11.58 206.67,-8.47 206.94,-15.46"/>
</a>
</g>
</g>
<!-- Node4 -->
<g id="Node000004" class="node">
<title>Node4</title>
<g id="a_Node000004"><a xlink:title=" ">
<polygon fill="#e0e0e0" stroke="#999999" points="316.12,-247.75 273.88,-247.75 273.88,-227 316.12,-227 316.12,-247.75"/>
<text text-anchor="middle" x="295" y="-234.25" font-family="Helvetica,sans-Serif" font-size="10.00">cpu.h</text>
</a>
</g>
</g>
<!-- Node2&#45;&gt;Node4 -->
<g id="edge3_Node000002_Node000004" class="edge">
<title>Node2&#45;&gt;Node4</title>
<g id="a_edge3_Node000002_Node000004"><a xlink:title=" ">
<path fill="none" stroke="#63b8ff" d="M327.85,-283.34C322.56,-276.1 315.19,-266.01 308.77,-257.22"/>
<polygon fill="#63b8ff" stroke="#63b8ff" points="311.71,-255.31 302.98,-249.3 306.06,-259.44 311.71,-255.31"/>
</a>
</g>
</g>
<!-- Node5 -->
<g id="Node000005" class="node">
<title>Node5</title>
<g id="a_Node000005"><a xlink:href="stm32__leds_8h.html" target="_top" xlink:title="Common LED macros.">
<polygon fill="white" stroke="#666666" points="415.62,-247.75 334.38,-247.75 334.38,-227 415.62,-227 415.62,-247.75"/>
<text text-anchor="middle" x="375" y="-234.25" font-family="Helvetica,sans-Serif" font-size="10.00">stm32_leds.h</text>
</a>
</g>
</g>
<!-- Node2&#45;&gt;Node5 -->
<g id="edge4_Node000002_Node000005" class="edge">
<title>Node2&#45;&gt;Node5</title>
<g id="a_edge4_Node000002_Node000005"><a xlink:title=" ">
<path fill="none" stroke="#63b8ff" d="M342.15,-283.34C347.44,-276.1 354.81,-266.01 361.23,-257.22"/>
<polygon fill="#63b8ff" stroke="#63b8ff" points="363.94,-259.44 367.02,-249.3 358.29,-255.31 363.94,-259.44"/>
</a>
</g>
</g>
<!-- Node6 -->
<g id="Node000006" class="node">
<title>Node6</title>
<g id="a_Node000006"><a xlink:href="gpio__ll_8h.html" target="_top" xlink:title="Peripheral GPIO Low&#45;Level API.">
<polygon fill="white" stroke="#666666" points="508.5,-134.25 417.5,-134.25 417.5,-113.5 508.5,-113.5 508.5,-134.25"/>
<text text-anchor="middle" x="463" y="-120.75" font-family="Helvetica,sans-Serif" font-size="10.00">periph/gpio_ll.h</text>
</a>
</g>
</g>
<!-- Node5&#45;&gt;Node6 -->
<g id="edge5_Node000005_Node000006" class="edge">
<title>Node5&#45;&gt;Node6</title>
<g id="a_edge5_Node000005_Node000006"><a xlink:title=" ">
<path fill="none" stroke="#63b8ff" d="M382.5,-226.87C397.04,-208.45 429.29,-167.59 448.26,-143.55"/>
<polygon fill="#63b8ff" stroke="#63b8ff" points="450.88,-145.88 454.33,-135.86 445.38,-141.54 450.88,-145.88"/>
</a>
</g>
</g>
<!-- Node17 -->
<g id="Node000017" class="node">
<title>Node17</title>
<g id="a_Node000017"><a xlink:href="kernel__defines_8h.html" target="_top" xlink:title="Common macros and compiler attributes/pragmas configuration.">
<polygon fill="white" stroke="#666666" points="313.12,-191 216.88,-191 216.88,-170.25 313.12,-170.25 313.12,-191"/>
<text text-anchor="middle" x="265" y="-177.5" font-family="Helvetica,sans-Serif" font-size="10.00">kernel_defines.h</text>
</a>
</g>
</g>
<!-- Node5&#45;&gt;Node17 -->
<g id="edge21_Node000005_Node000017" class="edge">
<title>Node5&#45;&gt;Node17</title>
<g id="a_edge21_Node000005_Node000017"><a xlink:title=" ">
<path fill="none" stroke="#63b8ff" d="M355.33,-226.59C338.44,-218.18 313.83,-205.93 294.57,-196.34"/>
<polygon fill="#63b8ff" stroke="#63b8ff" points="296.36,-193.33 285.85,-192 293.24,-199.59 296.36,-193.33"/>
</a>
</g>
</g>
<!-- Node6&#45;&gt;Node3 -->
<g id="edge9_Node000006_Node000003" class="edge">
<title>Node6&#45;&gt;Node3</title>
<g id="a_edge9_Node000006_Node000003"><a xlink:title=" ">
<path fill="none" stroke="#63b8ff" d="M417.22,-113.49C388.13,-106.31 350.38,-94.69 320,-77.5 297.23,-64.62 275.27,-43.98 261.07,-29.19"/>
<polygon fill="#63b8ff" stroke="#63b8ff" points="263.7,-26.88 254.32,-21.96 258.59,-31.66 263.7,-26.88"/>
</a>
</g>
</g>
<!-- Node7 -->
<g id="Node000007" class="node">
<title>Node7</title>
<g id="a_Node000007"><a xlink:href="assert_8h.html" target="_top" xlink:title="POSIX.1&#45;2008 compliant version of the assert macro.">
<polygon fill="white" stroke="#666666" points="272.5,-77.5 217.5,-77.5 217.5,-56.75 272.5,-56.75 272.5,-77.5"/>
<text text-anchor="middle" x="245" y="-64" font-family="Helvetica,sans-Serif" font-size="10.00">assert.h</text>
</a>
</g>
</g>
<!-- Node6&#45;&gt;Node7 -->
<g id="edge6_Node000006_Node000007" class="edge">
<title>Node6&#45;&gt;Node7</title>
<g id="a_edge6_Node000006_Node000007"><a xlink:title=" ">
<path fill="none" stroke="#63b8ff" d="M423.77,-113.02C384.17,-103.08 323.35,-87.8 283.87,-77.89"/>
<polygon fill="#63b8ff" stroke="#63b8ff" points="284.86,-74.53 274.31,-75.49 283.16,-81.32 284.86,-74.53"/>
</a>
</g>
</g>
<!-- Node8 -->
<g id="Node000008" class="node">
<title>Node8</title>
<g id="a_Node000008"><a xlink:title=" ">
<polygon fill="#e0e0e0" stroke="#999999" points="491.5,-77.5 430.5,-77.5 430.5,-56.75 491.5,-56.75 491.5,-77.5"/>
<text text-anchor="middle" x="461" y="-64" font-family="Helvetica,sans-Serif" font-size="10.00">stdbool.h</text>
</a>
</g>
</g>
<!-- Node6&#45;&gt;Node8 -->
<g id="edge8_Node000006_Node000008" class="edge">
<title>Node6&#45;&gt;Node8</title>
<g id="a_edge8_Node000006_Node000008"><a xlink:title=" ">
<path fill="none" stroke="#63b8ff" d="M462.64,-113.09C462.4,-106.47 462.07,-97.47 461.77,-89.27"/>
<polygon fill="#63b8ff" stroke="#63b8ff" points="465.27,-89.21 461.41,-79.34 458.28,-89.46 465.27,-89.21"/>
</a>
</g>
</g>
<!-- Node9 -->
<g id="Node000009" class="node">
<title>Node9</title>
<g id="a_Node000009"><a xlink:href="architecture_8h.html" target="_top" xlink:title="Platform&#45;independent access to architecture details.">
<polygon fill="white" stroke="#666666" points="592.75,-77.5 509.25,-77.5 509.25,-56.75 592.75,-56.75 592.75,-77.5"/>
<text text-anchor="middle" x="551" y="-64" font-family="Helvetica,sans-Serif" font-size="10.00">architecture.h</text>
</a>
</g>
</g>
<!-- Node6&#45;&gt;Node9 -->
<g id="edge10_Node000006_Node000009" class="edge">
<title>Node6&#45;&gt;Node9</title>
<g id="a_edge10_Node000006_Node000009"><a xlink:title=" ">
<path fill="none" stroke="#63b8ff" d="M478.73,-113.09C491.87,-104.91 510.84,-93.11 526.05,-83.65"/>
<polygon fill="#63b8ff" stroke="#63b8ff" points="527.48,-86.88 534.12,-78.63 523.78,-80.94 527.48,-86.88"/>
</a>
</g>
</g>
<!-- Node13 -->
<g id="Node000013" class="node">
<title>Node13</title>
<g id="a_Node000013"><a xlink:href="drivers_2include_2periph_2gpio_8h.html" target="_top" xlink:title="Low&#45;level GPIO peripheral driver interface definitions.">
<polygon fill="white" stroke="#666666" points="884.88,-77.5 805.12,-77.5 805.12,-56.75 884.88,-56.75 884.88,-77.5"/>
<text text-anchor="middle" x="845" y="-64" font-family="Helvetica,sans-Serif" font-size="10.00">periph/gpio.h</text>
</a>
</g>
</g>
<!-- Node6&#45;&gt;Node13 -->
<g id="edge15_Node000006_Node000013" class="edge">
<title>Node6&#45;&gt;Node13</title>
<g id="a_edge15_Node000006_Node000013"><a xlink:title=" ">
<path fill="none" stroke="#63b8ff" d="M508.9,-117.41C571.09,-109.83 685.85,-95.24 793.58,-77.83"/>
<polygon fill="#63b8ff" stroke="#63b8ff" points="793.85,-81.33 803.16,-76.27 792.73,-74.42 793.85,-81.33"/>
</a>
</g>
</g>
<!-- Node14 -->
<g id="Node000014" class="node">
<title>Node14</title>
<g id="a_Node000014"><a xlink:title=" ">
<polygon fill="#e0e0e0" stroke="#999999" points="884.12,-20.75 805.88,-20.75 805.88,0 884.12,0 884.12,-20.75"/>
<text text-anchor="middle" x="845" y="-7.25" font-family="Helvetica,sans-Serif" font-size="10.00">periph_cpu.h</text>
</a>
</g>
</g>
<!-- Node6&#45;&gt;Node14 -->
<g id="edge19_Node000006_Node000014" class="edge">
<title>Node6&#45;&gt;Node14</title>
<g id="a_edge19_Node000006_Node000014"><a xlink:title=" ">
<path fill="none" stroke="#63b8ff" d="M508.73,-119.7C617.05,-111.96 881.21,-91.71 894,-77.5 908.33,-61.58 889.08,-41.64 870.67,-27.84"/>
<polygon fill="#63b8ff" stroke="#63b8ff" points="872.72,-25.01 862.53,-22.11 868.69,-30.73 872.72,-25.01"/>
</a>
</g>
</g>
<!-- Node16 -->
<g id="Node000016" class="node">
<title>Node16</title>
<g id="a_Node000016"><a xlink:title=" ">
<polygon fill="#e0e0e0" stroke="#999999" points="412.75,-77.5 329.25,-77.5 329.25,-56.75 412.75,-56.75 412.75,-77.5"/>
<text text-anchor="middle" x="371" y="-64" font-family="Helvetica,sans-Serif" font-size="10.00">gpio_ll_arch.h</text>
</a>
</g>
</g>
<!-- Node6&#45;&gt;Node16 -->
<g id="edge20_Node000006_Node000016" class="edge">
<title>Node6&#45;&gt;Node16</title>
<g id="a_edge20_Node000006_Node000016"><a xlink:title=" ">
<path fill="none" stroke="#63b8ff" d="M446.55,-113.09C432.82,-104.91 412.98,-93.11 397.08,-83.65"/>
<polygon fill="#63b8ff" stroke="#63b8ff" points="398.99,-80.71 388.61,-78.6 395.41,-86.72 398.99,-80.71"/>
</a>
</g>
</g>
<!-- Node7&#45;&gt;Node3 -->
<g id="edge7_Node000007_Node000003" class="edge">
<title>Node7&#45;&gt;Node3</title>
<g id="a_edge7_Node000007_Node000003"><a xlink:title=" ">
<path fill="none" stroke="#63b8ff" d="M245,-56.34C245,-49.72 245,-40.72 245,-32.52"/>
<polygon fill="#63b8ff" stroke="#63b8ff" points="248.5,-32.59 245,-22.59 241.5,-32.59 248.5,-32.59"/>
</a>
</g>
</g>
<!-- Node9&#45;&gt;Node3 -->
<g id="edge11_Node000009_Node000003" class="edge">
<title>Node9&#45;&gt;Node3</title>
<g id="a_edge11_Node000009_Node000003"><a xlink:title=" ">
<path fill="none" stroke="#63b8ff" d="M508.99,-58.22C506.29,-57.72 503.61,-57.23 501,-56.75 423.51,-42.62 332.71,-26.67 282.75,-17.95"/>
<polygon fill="#63b8ff" stroke="#63b8ff" points="283.49,-14.52 273.04,-16.25 282.29,-21.42 283.49,-14.52"/>
</a>
</g>
</g>
<!-- Node10 -->
<g id="Node000010" class="node">
<title>Node10</title>
<g id="a_Node000010"><a xlink:href="inttypes_8h.html" target="_top" xlink:title="Adds include for missing inttype definitions.">
<polygon fill="white" stroke="#666666" points="479.38,-20.75 414.62,-20.75 414.62,0 479.38,0 479.38,-20.75"/>
<text text-anchor="middle" x="447" y="-7.25" font-family="Helvetica,sans-Serif" font-size="10.00">inttypes.h</text>
</a>
</g>
</g>
<!-- Node9&#45;&gt;Node10 -->
<g id="edge12_Node000009_Node000010" class="edge">
<title>Node9&#45;&gt;Node10</title>
<g id="a_edge12_Node000009_Node000010"><a xlink:title=" ">
<path fill="none" stroke="#63b8ff" d="M532.41,-56.34C516.58,-48.01 493.6,-35.91 475.46,-26.36"/>
<polygon fill="#63b8ff" stroke="#63b8ff" points="477.25,-23.34 466.77,-21.78 473.99,-29.54 477.25,-23.34"/>
</a>
</g>
</g>
<!-- Node11 -->
<g id="Node000011" class="node">
<title>Node11</title>
<g id="a_Node000011"><a xlink:title=" ">
<polygon fill="#e0e0e0" stroke="#999999" points="683.38,-20.75 630.62,-20.75 630.62,0 683.38,0 683.38,-20.75"/>
<text text-anchor="middle" x="657" y="-7.25" font-family="Helvetica,sans-Serif" font-size="10.00">limits.h</text>
</a>
</g>
</g>
<!-- Node9&#45;&gt;Node11 -->
<g id="edge13_Node000009_Node000011" class="edge">
<title>Node9&#45;&gt;Node11</title>
<g id="a_edge13_Node000009_Node000011"><a xlink:title=" ">
<path fill="none" stroke="#63b8ff" d="M569.95,-56.34C586.08,-48.01 609.5,-35.91 627.99,-26.36"/>
<polygon fill="#63b8ff" stroke="#63b8ff" points="629.59,-29.47 636.87,-21.77 626.38,-23.25 629.59,-29.47"/>
</a>
</g>
</g>
<!-- Node12 -->
<g id="Node000012" class="node">
<title>Node12</title>
<g id="a_Node000012"><a xlink:title=" ">
<polygon fill="#e0e0e0" stroke="#999999" points="606.88,-20.75 497.12,-20.75 497.12,0 606.88,0 606.88,-20.75"/>
<text text-anchor="middle" x="552" y="-7.25" font-family="Helvetica,sans-Serif" font-size="10.00">architecture_arch.h</text>
</a>
</g>
</g>
<!-- Node9&#45;&gt;Node12 -->
<g id="edge14_Node000009_Node000012" class="edge">
<title>Node9&#45;&gt;Node12</title>
<g id="a_edge14_Node000009_Node000012"><a xlink:title=" ">
<path fill="none" stroke="#63b8ff" d="M551.18,-56.34C551.3,-49.72 551.46,-40.72 551.61,-32.52"/>
<polygon fill="#63b8ff" stroke="#63b8ff" points="555.11,-32.65 551.8,-22.59 548.11,-32.53 555.11,-32.65"/>
</a>
</g>
</g>
<!-- Node13&#45;&gt;Node11 -->
<g id="edge16_Node000013_Node000011" class="edge">
<title>Node13&#45;&gt;Node11</title>
<g id="a_edge16_Node000013_Node000011"><a xlink:title=" ">
<path fill="none" stroke="#63b8ff" d="M811.39,-56.34C778.56,-46.78 728.68,-32.25 694.56,-22.31"/>
<polygon fill="#63b8ff" stroke="#63b8ff" points="695.67,-18.99 685.09,-19.56 693.72,-25.71 695.67,-18.99"/>
</a>
</g>
</g>
<!-- Node13&#45;&gt;Node14 -->
<g id="edge17_Node000013_Node000014" class="edge">
<title>Node13&#45;&gt;Node14</title>
<g id="a_edge17_Node000013_Node000014"><a xlink:title=" ">
<path fill="none" stroke="#63b8ff" d="M845,-56.34C845,-49.72 845,-40.72 845,-32.52"/>
<polygon fill="#63b8ff" stroke="#63b8ff" points="848.5,-32.59 845,-22.59 841.5,-32.59 848.5,-32.59"/>
</a>
</g>
</g>
<!-- Node15 -->
<g id="Node000015" class="node">
<title>Node15</title>
<g id="a_Node000015"><a xlink:title=" ">
<polygon fill="#e0e0e0" stroke="#999999" points="787.62,-20.75 706.38,-20.75 706.38,0 787.62,0 787.62,-20.75"/>
<text text-anchor="middle" x="747" y="-7.25" font-family="Helvetica,sans-Serif" font-size="10.00">periph_conf.h</text>
</a>
</g>
</g>
<!-- Node13&#45;&gt;Node15 -->
<g id="edge18_Node000013_Node000015" class="edge">
<title>Node13&#45;&gt;Node15</title>
<g id="a_edge18_Node000013_Node000015"><a xlink:title=" ">
<path fill="none" stroke="#63b8ff" d="M827.48,-56.34C812.71,-48.08 791.32,-36.13 774.3,-26.63"/>
<polygon fill="#63b8ff" stroke="#63b8ff" points="776.13,-23.64 765.69,-21.82 772.71,-29.75 776.13,-23.64"/>
</a>
</g>
</g>
<!-- Node18 -->
<g id="Node000018" class="node">
<title>Node18</title>
<g id="a_Node000018"><a xlink:href="modules_8h.html" target="_top" xlink:title="Common macros and compiler attributes/pragmas configuration.">
<polygon fill="white" stroke="#666666" points="298.5,-134.25 231.5,-134.25 231.5,-113.5 298.5,-113.5 298.5,-134.25"/>
<text text-anchor="middle" x="265" y="-120.75" font-family="Helvetica,sans-Serif" font-size="10.00">modules.h</text>
</a>
</g>
</g>
<!-- Node17&#45;&gt;Node18 -->
<g id="edge22_Node000017_Node000018" class="edge">
<title>Node17&#45;&gt;Node18</title>
<g id="a_edge22_Node000017_Node000018"><a xlink:title=" ">
<path fill="none" stroke="#63b8ff" d="M265,-169.84C265,-163.22 265,-154.22 265,-146.02"/>
<polygon fill="#63b8ff" stroke="#63b8ff" points="268.5,-146.09 265,-136.09 261.5,-146.09 268.5,-146.09"/>
</a>
</g>
</g>
<!-- Node19 -->
<g id="Node000019" class="node">
<title>Node19</title>
<g id="a_Node000019"><a xlink:href="riot__version_8h.html" target="_top" xlink:title="Common macros and compiler attributes/pragmas configuration.">
<polygon fill="white" stroke="#666666" points="399.38,-134.25 316.62,-134.25 316.62,-113.5 399.38,-113.5 399.38,-134.25"/>
<text text-anchor="middle" x="358" y="-120.75" font-family="Helvetica,sans-Serif" font-size="10.00">riot_version.h</text>
</a>
</g>
</g>
<!-- Node17&#45;&gt;Node19 -->
<g id="edge23_Node000017_Node000019" class="edge">
<title>Node17&#45;&gt;Node19</title>
<g id="a_edge23_Node000017_Node000019"><a xlink:title=" ">
<path fill="none" stroke="#63b8ff" d="M281.63,-169.84C295.51,-161.66 315.56,-149.86 331.63,-140.4"/>
<polygon fill="#63b8ff" stroke="#63b8ff" points="333.37,-143.44 340.21,-135.35 329.82,-137.4 333.37,-143.44"/>
</a>
</g>
</g>
<!-- Node20 -->
<g id="Node000020" class="node">
<title>Node20</title>
<g id="a_Node000020"><a xlink:href="compiler__hints_8h.html" target="_top" xlink:title="Common macros and compiler attributes/pragmas configuration.">
<polygon fill="white" stroke="#666666" points="213.5,-134.25 116.5,-134.25 116.5,-113.5 213.5,-113.5 213.5,-134.25"/>
<text text-anchor="middle" x="165" y="-120.75" font-family="Helvetica,sans-Serif" font-size="10.00">compiler_hints.h</text>
</a>
</g>
</g>
<!-- Node17&#45;&gt;Node20 -->
<g id="edge25_Node000017_Node000020" class="edge">
<title>Node17&#45;&gt;Node20</title>
<g id="a_edge25_Node000017_Node000020"><a xlink:title=" ">
<path fill="none" stroke="#63b8ff" d="M247.12,-169.84C231.91,-161.51 209.81,-149.41 192.37,-139.86"/>
<polygon fill="#63b8ff" stroke="#63b8ff" points="194.5,-137.04 184.05,-135.31 191.14,-143.18 194.5,-137.04"/>
</a>
</g>
</g>
<!-- Node21 -->
<g id="Node000021" class="node">
<title>Node21</title>
<g id="a_Node000021"><a xlink:href="container_8h.html" target="_top" xlink:title="Common macros and compiler attributes/pragmas configuration.">
<polygon fill="white" stroke="#666666" points="98.38,-134.25 27.62,-134.25 27.62,-113.5 98.38,-113.5 98.38,-134.25"/>
<text text-anchor="middle" x="63" y="-120.75" font-family="Helvetica,sans-Serif" font-size="10.00">container.h</text>
</a>
</g>
</g>
<!-- Node17&#45;&gt;Node21 -->
<g id="edge28_Node000017_Node000021" class="edge">
<title>Node17&#45;&gt;Node21</title>
<g id="a_edge28_Node000017_Node000021"><a xlink:title=" ">
<path fill="none" stroke="#63b8ff" d="M228.89,-169.84C195.57,-160.81 145.9,-147.35 109.6,-137.51"/>
<polygon fill="#63b8ff" stroke="#63b8ff" points="110.83,-134.21 100.26,-134.97 109,-140.97 110.83,-134.21"/>
</a>
</g>
</g>
<!-- Node19&#45;&gt;Node3 -->
<g id="edge24_Node000019_Node000003" class="edge">
<title>Node19&#45;&gt;Node3</title>
<g id="a_edge24_Node000019_Node000003"><a xlink:title=" ">
<path fill="none" stroke="#63b8ff" d="M316.77,-113.07C274.7,-102.66 214.67,-86.48 208,-77.5 196.51,-62.02 210.31,-42.59 224.2,-28.8"/>
<polygon fill="#63b8ff" stroke="#63b8ff" points="226.54,-31.41 231.53,-22.06 221.8,-26.26 226.54,-31.41"/>
</a>
</g>
</g>
<!-- Node20&#45;&gt;Node3 -->
<g id="edge27_Node000020_Node000003" class="edge">
<title>Node20&#45;&gt;Node3</title>
<g id="a_edge27_Node000020_Node000003"><a xlink:title=" ">
<path fill="none" stroke="#63b8ff" d="M164.1,-113.04C163.34,-99.3 163.8,-74.12 175,-56.75 183.36,-43.79 196.89,-33.75 209.83,-26.46"/>
<polygon fill="#63b8ff" stroke="#63b8ff" points="211.37,-29.6 218.63,-21.89 208.14,-23.39 211.37,-29.6"/>
</a>
</g>
</g>
<!-- Node20&#45;&gt;Node7 -->
<g id="edge26_Node000020_Node000007" class="edge">
<title>Node20&#45;&gt;Node7</title>
<g id="a_edge26_Node000020_Node000007"><a xlink:title=" ">
<path fill="none" stroke="#63b8ff" d="M179.3,-113.09C191.02,-105.07 207.84,-93.56 221.53,-84.19"/>
<polygon fill="#63b8ff" stroke="#63b8ff" points="223.3,-87.22 229.57,-78.68 219.34,-81.44 223.3,-87.22"/>
</a>
</g>
</g>
<!-- Node21&#45;&gt;Node3 -->
<g id="edge30_Node000021_Node000003" class="edge">
<title>Node21&#45;&gt;Node3</title>
<g id="a_edge30_Node000021_Node000003"><a xlink:title=" ">
<path fill="none" stroke="#63b8ff" d="M58.55,-113.16C52.87,-99.11 45.19,-73.04 58,-56.75 76.21,-33.59 158.08,-20.81 207.26,-15.09"/>
<polygon fill="#63b8ff" stroke="#63b8ff" points="207.35,-18.61 216.9,-14.02 206.57,-11.65 207.35,-18.61"/>
</a>
</g>
</g>
<!-- Node22 -->
<g id="Node000022" class="node">
<title>Node22</title>
<g id="a_Node000022"><a xlink:title=" ">
<polygon fill="#e0e0e0" stroke="#999999" points="122.5,-77.5 67.5,-77.5 67.5,-56.75 122.5,-56.75 122.5,-77.5"/>
<text text-anchor="middle" x="95" y="-64" font-family="Helvetica,sans-Serif" font-size="10.00">stddef.h</text>
</a>
</g>
</g>
<!-- Node21&#45;&gt;Node22 -->
<g id="edge29_Node000021_Node000022" class="edge">
<title>Node21&#45;&gt;Node22</title>
<g id="a_edge29_Node000021_Node000022"><a xlink:title=" ">
<path fill="none" stroke="#63b8ff" d="M68.72,-113.09C72.86,-106 78.6,-96.19 83.65,-87.54"/>
<polygon fill="#63b8ff" stroke="#63b8ff" points="86.54,-89.53 88.56,-79.14 80.5,-86 86.54,-89.53"/>
</a>
</g>
</g>
<!-- Node23&#45;&gt;Node13 -->
<g id="edge32_Node000023_Node000013" class="edge">
<title>Node23&#45;&gt;Node13</title>
<g id="a_edge32_Node000023_Node000013"><a xlink:title=" ">
<path fill="none" stroke="#63b8ff" d="M725.92,-113.09C749.02,-104.37 783.04,-91.52 808.82,-81.79"/>
<polygon fill="#63b8ff" stroke="#63b8ff" points="809.77,-85.17 817.89,-78.36 807.29,-78.62 809.77,-85.17"/>
</a>
</g>
</g>
<!-- Node24 -->
<g id="Node000024" class="node">
<title>Node24</title>
<g id="a_Node000024"><a xlink:href="adc_8h.html" target="_top" xlink:title="Low&#45;level ADC peripheral driver interface definitions.">
<polygon fill="white" stroke="#666666" points="787,-77.5 711,-77.5 711,-56.75 787,-56.75 787,-77.5"/>
<text text-anchor="middle" x="749" y="-64" font-family="Helvetica,sans-Serif" font-size="10.00">periph/adc.h</text>
</a>
</g>
</g>
<!-- Node23&#45;&gt;Node24 -->
<g id="edge33_Node000023_Node000024" class="edge">
<title>Node23&#45;&gt;Node24</title>
<g id="a_edge33_Node000023_Node000024"><a xlink:title=" ">
<path fill="none" stroke="#63b8ff" d="M708.76,-113.09C715.45,-105.61 724.85,-95.11 732.89,-86.13"/>
<polygon fill="#63b8ff" stroke="#63b8ff" points="735.25,-88.74 739.31,-78.96 730.03,-84.07 735.25,-88.74"/>
</a>
</g>
</g>
<!-- Node25 -->
<g id="Node000025" class="node">
<title>Node25</title>
<g id="a_Node000025"><a xlink:href="pwm_8h.html" target="_top" xlink:title="Low&#45;level PWM peripheral driver interface definitions.">
<polygon fill="white" stroke="#666666" points="693.38,-77.5 610.62,-77.5 610.62,-56.75 693.38,-56.75 693.38,-77.5"/>
<text text-anchor="middle" x="652" y="-64" font-family="Helvetica,sans-Serif" font-size="10.00">periph/pwm.h</text>
</a>
</g>
</g>
<!-- Node23&#45;&gt;Node25 -->
<g id="edge38_Node000023_Node000025" class="edge">
<title>Node23&#45;&gt;Node25</title>
<g id="a_edge38_Node000023_Node000025"><a xlink:title=" ">
<path fill="none" stroke="#63b8ff" d="M691.42,-113.09C684.93,-105.69 675.85,-95.32 668.03,-86.41"/>
<polygon fill="#63b8ff" stroke="#63b8ff" points="670.73,-84.18 661.5,-78.97 665.47,-88.79 670.73,-84.18"/>
</a>
</g>
</g>
<!-- Node24&#45;&gt;Node3 -->
<g id="edge35_Node000024_Node000003" class="edge">
<title>Node24&#45;&gt;Node3</title>
<g id="a_edge35_Node000024_Node000003"><a xlink:title=" ">
<path fill="none" stroke="#63b8ff" d="M710.58,-58.14C707.68,-57.64 704.8,-57.17 702,-56.75 547.29,-33.7 361.32,-19.33 282.86,-13.87"/>
<polygon fill="#63b8ff" stroke="#63b8ff" points="283.37,-10.4 273.15,-13.21 282.89,-17.38 283.37,-10.4"/>
</a>
</g>
</g>
<!-- Node24&#45;&gt;Node11 -->
<g id="edge34_Node000024_Node000011" class="edge">
<title>Node24&#45;&gt;Node11</title>
<g id="a_edge34_Node000024_Node000011"><a xlink:title=" ">
<path fill="none" stroke="#63b8ff" d="M732.55,-56.34C718.82,-48.16 698.98,-36.36 683.08,-26.9"/>
<polygon fill="#63b8ff" stroke="#63b8ff" points="684.99,-23.96 674.61,-21.85 681.41,-29.97 684.99,-23.96"/>
</a>
</g>
</g>
<!-- Node24&#45;&gt;Node14 -->
<g id="edge36_Node000024_Node000014" class="edge">
<title>Node24&#45;&gt;Node14</title>
<g id="a_edge36_Node000024_Node000014"><a xlink:title=" ">
<path fill="none" stroke="#63b8ff" d="M766.16,-56.34C780.63,-48.08 801.59,-36.13 818.26,-26.63"/>
<polygon fill="#63b8ff" stroke="#63b8ff" points="819.72,-29.82 826.67,-21.83 816.25,-23.74 819.72,-29.82"/>
</a>
</g>
</g>
<!-- Node24&#45;&gt;Node15 -->
<g id="edge37_Node000024_Node000015" class="edge">
<title>Node24&#45;&gt;Node15</title>
<g id="a_edge37_Node000024_Node000015"><a xlink:title=" ">
<path fill="none" stroke="#63b8ff" d="M748.64,-56.34C748.4,-49.72 748.07,-40.72 747.77,-32.52"/>
<polygon fill="#63b8ff" stroke="#63b8ff" points="751.27,-32.46 747.41,-22.59 744.28,-32.71 751.27,-32.46"/>
</a>
</g>
</g>
<!-- Node25&#45;&gt;Node3 -->
<g id="edge39_Node000025_Node000003" class="edge">
<title>Node25&#45;&gt;Node3</title>
<g id="a_edge39_Node000025_Node000003"><a xlink:title=" ">
<path fill="none" stroke="#63b8ff" d="M610.29,-58.11C607.49,-57.63 604.7,-57.18 602,-56.75 486.08,-38.53 348.1,-22.62 282.82,-15.44"/>
<polygon fill="#63b8ff" stroke="#63b8ff" points="283.33,-11.97 273,-14.37 282.56,-18.93 283.33,-11.97"/>
</a>
</g>
</g>
<!-- Node25&#45;&gt;Node11 -->
<g id="edge40_Node000025_Node000011" class="edge">
<title>Node25&#45;&gt;Node11</title>
<g id="a_edge40_Node000025_Node000011"><a xlink:title=" ">
<path fill="none" stroke="#63b8ff" d="M652.89,-56.34C653.5,-49.72 654.32,-40.72 655.07,-32.52"/>
<polygon fill="#63b8ff" stroke="#63b8ff" points="658.55,-32.86 655.98,-22.59 651.58,-32.23 658.55,-32.86"/>
</a>
</g>
</g>
<!-- Node25&#45;&gt;Node14 -->
<g id="edge41_Node000025_Node000014" class="edge">
<title>Node25&#45;&gt;Node14</title>
<g id="a_edge41_Node000025_Node000014"><a xlink:title=" ">
<path fill="none" stroke="#63b8ff" d="M686.5,-56.34C718.11,-47.37 765.09,-34.04 799.7,-24.23"/>
<polygon fill="#63b8ff" stroke="#63b8ff" points="800.35,-27.68 809.01,-21.58 798.44,-20.95 800.35,-27.68"/>
</a>
</g>
</g>
<!-- Node25&#45;&gt;Node15 -->
<g id="edge42_Node000025_Node000015" class="edge">
<title>Node25&#45;&gt;Node15</title>
<g id="a_edge42_Node000025_Node000015"><a xlink:title=" ">
<path fill="none" stroke="#63b8ff" d="M668.98,-56.34C683.3,-48.08 704.04,-36.13 720.54,-26.63"/>
<polygon fill="#63b8ff" stroke="#63b8ff" points="721.94,-29.86 728.85,-21.83 718.44,-23.8 721.94,-29.86"/>
</a>
</g>
</g>
</g>
</svg>
