<?xml version="1.0" encoding="UTF-8" standalone="no"?>
<!DOCTYPE svg PUBLIC "-//W3C//DTD SVG 1.1//EN"
 "http://www.w3.org/Graphics/SVG/1.1/DTD/svg11.dtd">
<!-- Generated by graphviz version 12.1.1 (0)
 -->
<!-- Title: boards/stm32g0316&#45;disco/include/board.h Pages: 1 -->
<svg width="1155pt" height="325pt"
 viewBox="0.00 0.00 1155.47 325.25" xmlns="http://www.w3.org/2000/svg" xmlns:xlink="http://www.w3.org/1999/xlink">
<g id="graph0" class="graph" transform="scale(1 1) rotate(0) translate(4 321.25)">
<title>boards/stm32g0316&#45;disco/include/board.h</title>
<!-- Node1 -->
<g id="Node000001" class="node">
<title>Node1</title>
<g id="a_Node000001"><a xlink:title="Board specific definitions for the STM32G0316&#45;DISCO.">
<polygon fill="#999999" stroke="#666666" points="917.38,-317.25 775.38,-317.25 775.38,-283.75 917.38,-283.75 917.38,-317.25"/>
<text text-anchor="start" x="783.38" y="-303.75" font-family="Helvetica,sans-Serif" font-size="10.00">boards/stm32g0316&#45;disco</text>
<text text-anchor="middle" x="846.38" y="-291" font-family="Helvetica,sans-Serif" font-size="10.00">/include/board.h</text>
</a>
</g>
</g>
<!-- Node2 -->
<g id="Node000002" class="node">
<title>Node2</title>
<g id="a_Node000002"><a xlink:title=" ">
<polygon fill="#e0e0e0" stroke="#999999" points="897.5,-191 855.25,-191 855.25,-170.25 897.5,-170.25 897.5,-191"/>
<text text-anchor="middle" x="876.38" y="-177.5" font-family="Helvetica,sans-Serif" font-size="10.00">cpu.h</text>
</a>
</g>
</g>
<!-- Node1&#45;&gt;Node2 -->
<g id="edge1_Node000001_Node000002" class="edge">
<title>Node1&#45;&gt;Node2</title>
<g id="a_edge1_Node000001_Node000002"><a xlink:title=" ">
<path fill="none" stroke="#63b8ff" d="M850.42,-283.6C855.76,-262.62 865.18,-225.62 871.08,-202.43"/>
<polygon fill="#63b8ff" stroke="#63b8ff" points="874.43,-203.45 873.51,-192.9 867.65,-201.73 874.43,-203.45"/>
</a>
</g>
</g>
<!-- Node3 -->
<g id="Node000003" class="node">
<title>Node3</title>
<g id="a_Node000003"><a xlink:href="boards_2stm32g0316-disco_2include_2periph__conf_8h.html" target="_top" xlink:title="Configuration of CPU peripherals for STM32G0316&#45;DISCO board.">
<polygon fill="white" stroke="#666666" points="1003,-247.75 921.75,-247.75 921.75,-227 1003,-227 1003,-247.75"/>
<text text-anchor="middle" x="962.38" y="-234.25" font-family="Helvetica,sans-Serif" font-size="10.00">periph_conf.h</text>
</a>
</g>
</g>
<!-- Node1&#45;&gt;Node3 -->
<g id="edge2_Node000001_Node000003" class="edge">
<title>Node1&#45;&gt;Node3</title>
<g id="a_edge2_Node000001_Node000003"><a xlink:title=" ">
<path fill="none" stroke="#63b8ff" d="M877.16,-283.28C894.72,-274.02 916.59,-262.5 933.78,-253.44"/>
<polygon fill="#63b8ff" stroke="#63b8ff" points="935.24,-256.63 942.46,-248.87 931.98,-250.44 935.24,-256.63"/>
</a>
</g>
</g>
<!-- Node5 -->
<g id="Node000005" class="node">
<title>Node5</title>
<g id="a_Node000005"><a xlink:title=" ">
<polygon fill="#e0e0e0" stroke="#999999" points="893.5,-77.5 815.25,-77.5 815.25,-56.75 893.5,-56.75 893.5,-77.5"/>
<text text-anchor="middle" x="854.38" y="-64" font-family="Helvetica,sans-Serif" font-size="10.00">periph_cpu.h</text>
</a>
</g>
</g>
<!-- Node1&#45;&gt;Node5 -->
<g id="edge8_Node000001_Node000005" class="edge">
<title>Node1&#45;&gt;Node5</title>
<g id="a_edge8_Node000001_Node000005"><a xlink:title=" ">
<path fill="none" stroke="#63b8ff" d="M845.97,-283.57C845.45,-259.17 844.78,-211.06 846.38,-170.25 847.47,-142.14 850.27,-109.78 852.24,-89.15"/>
<polygon fill="#63b8ff" stroke="#63b8ff" points="855.7,-89.77 853.2,-79.47 848.73,-89.08 855.7,-89.77"/>
</a>
</g>
</g>
<!-- Node8 -->
<g id="Node000008" class="node">
<title>Node8</title>
<g id="a_Node000008"><a xlink:href="stm32__leds_8h.html" target="_top" xlink:title="Common LED macros.">
<polygon fill="white" stroke="#666666" points="584,-247.75 502.75,-247.75 502.75,-227 584,-227 584,-247.75"/>
<text text-anchor="middle" x="543.38" y="-234.25" font-family="Helvetica,sans-Serif" font-size="10.00">stm32_leds.h</text>
</a>
</g>
</g>
<!-- Node1&#45;&gt;Node8 -->
<g id="edge9_Node000001_Node000008" class="edge">
<title>Node1&#45;&gt;Node8</title>
<g id="a_edge9_Node000001_Node000008"><a xlink:title=" ">
<path fill="none" stroke="#63b8ff" d="M774.95,-285.09C719.76,-273.96 644.68,-258.81 595.16,-248.82"/>
<polygon fill="#63b8ff" stroke="#63b8ff" points="596.06,-245.43 585.56,-246.89 594.67,-252.29 596.06,-245.43"/>
</a>
</g>
</g>
<!-- Node3&#45;&gt;Node2 -->
<g id="edge4_Node000003_Node000002" class="edge">
<title>Node3&#45;&gt;Node2</title>
<g id="a_edge4_Node000003_Node000002"><a xlink:title=" ">
<path fill="none" stroke="#63b8ff" d="M947,-226.59C934.28,-218.49 915.97,-206.83 901.18,-197.42"/>
<polygon fill="#63b8ff" stroke="#63b8ff" points="903.21,-194.56 892.89,-192.14 899.45,-200.46 903.21,-194.56"/>
</a>
</g>
</g>
<!-- Node4 -->
<g id="Node000004" class="node">
<title>Node4</title>
<g id="a_Node000004"><a xlink:title=" ">
<polygon fill="#e0e0e0" stroke="#999999" points="339.75,-20.75 287,-20.75 287,0 339.75,0 339.75,-20.75"/>
<text text-anchor="middle" x="313.38" y="-7.25" font-family="Helvetica,sans-Serif" font-size="10.00">stdint.h</text>
</a>
</g>
</g>
<!-- Node3&#45;&gt;Node4 -->
<g id="edge3_Node000003_Node000004" class="edge">
<title>Node3&#45;&gt;Node4</title>
<g id="a_edge3_Node000003_Node000004"><a xlink:title=" ">
<path fill="none" stroke="#63b8ff" d="M1003.35,-235.9C1065.77,-233.55 1174.17,-222.13 1141.38,-170.25 1078.54,-70.85 1016.01,-86.99 902.38,-56.75 797.67,-28.88 464.54,-16.1 351.4,-12.49"/>
<polygon fill="#63b8ff" stroke="#63b8ff" points="351.55,-9 341.44,-12.18 351.33,-15.99 351.55,-9"/>
</a>
</g>
</g>
<!-- Node3&#45;&gt;Node5 -->
<g id="edge5_Node000003_Node000005" class="edge">
<title>Node3&#45;&gt;Node5</title>
<g id="a_edge5_Node000003_Node000005"><a xlink:title=" ">
<path fill="none" stroke="#63b8ff" d="M956.26,-226.85C939.04,-200.02 889.9,-123.46 866.74,-87.38"/>
<polygon fill="#63b8ff" stroke="#63b8ff" points="869.86,-85.77 861.51,-79.24 863.97,-89.55 869.86,-85.77"/>
</a>
</g>
</g>
<!-- Node6 -->
<g id="Node000006" class="node">
<title>Node6</title>
<g id="a_Node000006"><a xlink:title=" ">
<polygon fill="#e0e0e0" stroke="#999999" points="1017.75,-191 953,-191 953,-170.25 1017.75,-170.25 1017.75,-191"/>
<text text-anchor="middle" x="985.38" y="-177.5" font-family="Helvetica,sans-Serif" font-size="10.00">clk_conf.h</text>
</a>
</g>
</g>
<!-- Node3&#45;&gt;Node6 -->
<g id="edge6_Node000003_Node000006" class="edge">
<title>Node3&#45;&gt;Node6</title>
<g id="a_edge6_Node000003_Node000006"><a xlink:title=" ">
<path fill="none" stroke="#63b8ff" d="M966.49,-226.59C969.37,-219.74 973.31,-210.34 976.86,-201.9"/>
<polygon fill="#63b8ff" stroke="#63b8ff" points="980.07,-203.3 980.71,-192.72 973.61,-200.59 980.07,-203.3"/>
</a>
</g>
</g>
<!-- Node7 -->
<g id="Node000007" class="node">
<title>Node7</title>
<g id="a_Node000007"><a xlink:title=" ">
<polygon fill="#e0e0e0" stroke="#999999" points="1132.5,-191 1036.25,-191 1036.25,-170.25 1132.5,-170.25 1132.5,-191"/>
<text text-anchor="middle" x="1084.38" y="-177.5" font-family="Helvetica,sans-Serif" font-size="10.00">cfg_rtt_default.h</text>
</a>
</g>
</g>
<!-- Node3&#45;&gt;Node7 -->
<g id="edge7_Node000003_Node000007" class="edge">
<title>Node3&#45;&gt;Node7</title>
<g id="a_edge7_Node000003_Node000007"><a xlink:title=" ">
<path fill="none" stroke="#63b8ff" d="M984.19,-226.59C1003.18,-218.06 1030.97,-205.59 1052.47,-195.94"/>
<polygon fill="#63b8ff" stroke="#63b8ff" points="1053.68,-199.24 1061.37,-191.95 1050.82,-192.85 1053.68,-199.24"/>
</a>
</g>
</g>
<!-- Node9 -->
<g id="Node000009" class="node">
<title>Node9</title>
<g id="a_Node000009"><a xlink:href="gpio__ll_8h.html" target="_top" xlink:title="Peripheral GPIO Low&#45;Level API.">
<polygon fill="white" stroke="#666666" points="588.88,-191 497.88,-191 497.88,-170.25 588.88,-170.25 588.88,-191"/>
<text text-anchor="middle" x="543.38" y="-177.5" font-family="Helvetica,sans-Serif" font-size="10.00">periph/gpio_ll.h</text>
</a>
</g>
</g>
<!-- Node8&#45;&gt;Node9 -->
<g id="edge10_Node000008_Node000009" class="edge">
<title>Node8&#45;&gt;Node9</title>
<g id="a_edge10_Node000008_Node000009"><a xlink:title=" ">
<path fill="none" stroke="#63b8ff" d="M543.38,-226.59C543.38,-219.97 543.38,-210.97 543.38,-202.77"/>
<polygon fill="#63b8ff" stroke="#63b8ff" points="546.88,-202.84 543.38,-192.84 539.88,-202.84 546.88,-202.84"/>
</a>
</g>
</g>
<!-- Node19 -->
<g id="Node000019" class="node">
<title>Node19</title>
<g id="a_Node000019"><a xlink:href="kernel__defines_8h.html" target="_top" xlink:title="Common macros and compiler attributes/pragmas configuration.">
<polygon fill="white" stroke="#666666" points="203.5,-191 107.25,-191 107.25,-170.25 203.5,-170.25 203.5,-191"/>
<text text-anchor="middle" x="155.38" y="-177.5" font-family="Helvetica,sans-Serif" font-size="10.00">kernel_defines.h</text>
</a>
</g>
</g>
<!-- Node8&#45;&gt;Node19 -->
<g id="edge26_Node000008_Node000019" class="edge">
<title>Node8&#45;&gt;Node19</title>
<g id="a_edge26_Node000008_Node000019"><a xlink:title=" ">
<path fill="none" stroke="#63b8ff" d="M502.59,-230.62C433.88,-220.92 294.78,-201.3 215.07,-190.05"/>
<polygon fill="#63b8ff" stroke="#63b8ff" points="215.65,-186.6 205.26,-188.66 214.67,-193.53 215.65,-186.6"/>
</a>
</g>
</g>
<!-- Node9&#45;&gt;Node4 -->
<g id="edge14_Node000009_Node000004" class="edge">
<title>Node9&#45;&gt;Node4</title>
<g id="a_edge14_Node000009_Node000004"><a xlink:title=" ">
<path fill="none" stroke="#63b8ff" d="M530.22,-169.87C512.25,-156.66 478.88,-132.54 449.38,-113.5 422.92,-96.43 413.85,-95.99 388.38,-77.5 367.67,-62.47 345.94,-42.82 331.23,-28.86"/>
<polygon fill="#63b8ff" stroke="#63b8ff" points="333.78,-26.45 324.15,-22.04 328.93,-31.5 333.78,-26.45"/>
</a>
</g>
</g>
<!-- Node9&#45;&gt;Node5 -->
<g id="edge24_Node000009_Node000005" class="edge">
<title>Node9&#45;&gt;Node5</title>
<g id="a_edge24_Node000009_Node000005"><a xlink:title=" ">
<path fill="none" stroke="#63b8ff" d="M589.24,-176.75C636.52,-172.38 711.43,-161.43 770.38,-134.25 796.26,-122.31 821.31,-100.9 837.22,-85.68"/>
<polygon fill="#63b8ff" stroke="#63b8ff" points="839.32,-88.53 843.99,-79.02 834.4,-83.54 839.32,-88.53"/>
</a>
</g>
</g>
<!-- Node10 -->
<g id="Node000010" class="node">
<title>Node10</title>
<g id="a_Node000010"><a xlink:href="assert_8h.html" target="_top" xlink:title="POSIX.1&#45;2008 compliant version of the assert macro.">
<polygon fill="white" stroke="#666666" points="340.88,-77.5 285.88,-77.5 285.88,-56.75 340.88,-56.75 340.88,-77.5"/>
<text text-anchor="middle" x="313.38" y="-64" font-family="Helvetica,sans-Serif" font-size="10.00">assert.h</text>
</a>
</g>
</g>
<!-- Node9&#45;&gt;Node10 -->
<g id="edge11_Node000009_Node000010" class="edge">
<title>Node9&#45;&gt;Node10</title>
<g id="a_edge11_Node000009_Node000010"><a xlink:title=" ">
<path fill="none" stroke="#63b8ff" d="M525.47,-169.83C501.05,-156.59 455.82,-132.43 416.38,-113.5 393.63,-102.58 367.64,-91.14 347.45,-82.47"/>
<polygon fill="#63b8ff" stroke="#63b8ff" points="348.85,-79.27 338.28,-78.56 346.11,-85.71 348.85,-79.27"/>
</a>
</g>
</g>
<!-- Node11 -->
<g id="Node000011" class="node">
<title>Node11</title>
<g id="a_Node000011"><a xlink:title=" ">
<polygon fill="#e0e0e0" stroke="#999999" points="663.88,-134.25 602.88,-134.25 602.88,-113.5 663.88,-113.5 663.88,-134.25"/>
<text text-anchor="middle" x="633.38" y="-120.75" font-family="Helvetica,sans-Serif" font-size="10.00">stdbool.h</text>
</a>
</g>
</g>
<!-- Node9&#45;&gt;Node11 -->
<g id="edge13_Node000009_Node000011" class="edge">
<title>Node9&#45;&gt;Node11</title>
<g id="a_edge13_Node000009_Node000011"><a xlink:title=" ">
<path fill="none" stroke="#63b8ff" d="M559.47,-169.84C572.9,-161.66 592.31,-149.86 607.86,-140.4"/>
<polygon fill="#63b8ff" stroke="#63b8ff" points="609.41,-143.55 616.13,-135.37 605.77,-137.57 609.41,-143.55"/>
</a>
</g>
</g>
<!-- Node12 -->
<g id="Node000012" class="node">
<title>Node12</title>
<g id="a_Node000012"><a xlink:href="architecture_8h.html" target="_top" xlink:title="Platform&#45;independent access to architecture details.">
<polygon fill="white" stroke="#666666" points="585.12,-134.25 501.62,-134.25 501.62,-113.5 585.12,-113.5 585.12,-134.25"/>
<text text-anchor="middle" x="543.38" y="-120.75" font-family="Helvetica,sans-Serif" font-size="10.00">architecture.h</text>
</a>
</g>
</g>
<!-- Node9&#45;&gt;Node12 -->
<g id="edge15_Node000009_Node000012" class="edge">
<title>Node9&#45;&gt;Node12</title>
<g id="a_edge15_Node000009_Node000012"><a xlink:title=" ">
<path fill="none" stroke="#63b8ff" d="M543.38,-169.84C543.38,-163.22 543.38,-154.22 543.38,-146.02"/>
<polygon fill="#63b8ff" stroke="#63b8ff" points="546.88,-146.09 543.38,-136.09 539.88,-146.09 546.88,-146.09"/>
</a>
</g>
</g>
<!-- Node16 -->
<g id="Node000016" class="node">
<title>Node16</title>
<g id="a_Node000016"><a xlink:href="drivers_2include_2periph_2gpio_8h.html" target="_top" xlink:title="Low&#45;level GPIO peripheral driver interface definitions.">
<polygon fill="white" stroke="#666666" points="761.25,-134.25 681.5,-134.25 681.5,-113.5 761.25,-113.5 761.25,-134.25"/>
<text text-anchor="middle" x="721.38" y="-120.75" font-family="Helvetica,sans-Serif" font-size="10.00">periph/gpio.h</text>
</a>
</g>
</g>
<!-- Node9&#45;&gt;Node16 -->
<g id="edge20_Node000009_Node000016" class="edge">
<title>Node9&#45;&gt;Node16</title>
<g id="a_edge20_Node000009_Node000016"><a xlink:title=" ">
<path fill="none" stroke="#63b8ff" d="M575.2,-169.84C604.09,-160.95 646.93,-147.77 678.77,-137.98"/>
<polygon fill="#63b8ff" stroke="#63b8ff" points="679.55,-141.4 688.08,-135.12 677.49,-134.71 679.55,-141.4"/>
</a>
</g>
</g>
<!-- Node18 -->
<g id="Node000018" class="node">
<title>Node18</title>
<g id="a_Node000018"><a xlink:title=" ">
<polygon fill="#e0e0e0" stroke="#999999" points="407.12,-134.25 323.62,-134.25 323.62,-113.5 407.12,-113.5 407.12,-134.25"/>
<text text-anchor="middle" x="365.38" y="-120.75" font-family="Helvetica,sans-Serif" font-size="10.00">gpio_ll_arch.h</text>
</a>
</g>
</g>
<!-- Node9&#45;&gt;Node18 -->
<g id="edge25_Node000009_Node000018" class="edge">
<title>Node9&#45;&gt;Node18</title>
<g id="a_edge25_Node000009_Node000018"><a xlink:title=" ">
<path fill="none" stroke="#63b8ff" d="M511.55,-169.84C482.66,-160.95 439.82,-147.77 407.98,-137.98"/>
<polygon fill="#63b8ff" stroke="#63b8ff" points="409.26,-134.71 398.67,-135.12 407.2,-141.4 409.26,-134.71"/>
</a>
</g>
</g>
<!-- Node10&#45;&gt;Node4 -->
<g id="edge12_Node000010_Node000004" class="edge">
<title>Node10&#45;&gt;Node4</title>
<g id="a_edge12_Node000010_Node000004"><a xlink:title=" ">
<path fill="none" stroke="#63b8ff" d="M313.38,-56.34C313.38,-49.72 313.38,-40.72 313.38,-32.52"/>
<polygon fill="#63b8ff" stroke="#63b8ff" points="316.88,-32.59 313.38,-22.59 309.88,-32.59 316.88,-32.59"/>
</a>
</g>
</g>
<!-- Node12&#45;&gt;Node4 -->
<g id="edge16_Node000012_Node000004" class="edge">
<title>Node12&#45;&gt;Node4</title>
<g id="a_edge16_Node000012_Node000004"><a xlink:title=" ">
<path fill="none" stroke="#63b8ff" d="M561.5,-113.17C583.41,-100.23 615.34,-76.63 598.38,-56.75 567.09,-20.09 421.89,-12.91 351.64,-11.6"/>
<polygon fill="#63b8ff" stroke="#63b8ff" points="351.81,-8.1 341.76,-11.45 351.7,-15.1 351.81,-8.1"/>
</a>
</g>
</g>
<!-- Node13 -->
<g id="Node000013" class="node">
<title>Node13</title>
<g id="a_Node000013"><a xlink:href="inttypes_8h.html" target="_top" xlink:title="Adds include for missing inttype definitions.">
<polygon fill="white" stroke="#666666" points="589.75,-77.5 525,-77.5 525,-56.75 589.75,-56.75 589.75,-77.5"/>
<text text-anchor="middle" x="557.38" y="-64" font-family="Helvetica,sans-Serif" font-size="10.00">inttypes.h</text>
</a>
</g>
</g>
<!-- Node12&#45;&gt;Node13 -->
<g id="edge17_Node000012_Node000013" class="edge">
<title>Node12&#45;&gt;Node13</title>
<g id="a_edge17_Node000012_Node000013"><a xlink:title=" ">
<path fill="none" stroke="#63b8ff" d="M545.88,-113.09C547.59,-106.39 549.92,-97.26 552.04,-88.98"/>
<polygon fill="#63b8ff" stroke="#63b8ff" points="555.43,-89.85 554.52,-79.29 548.65,-88.12 555.43,-89.85"/>
</a>
</g>
</g>
<!-- Node14 -->
<g id="Node000014" class="node">
<title>Node14</title>
<g id="a_Node000014"><a xlink:title=" ">
<polygon fill="#e0e0e0" stroke="#999999" points="697.75,-77.5 645,-77.5 645,-56.75 697.75,-56.75 697.75,-77.5"/>
<text text-anchor="middle" x="671.38" y="-64" font-family="Helvetica,sans-Serif" font-size="10.00">limits.h</text>
</a>
</g>
</g>
<!-- Node12&#45;&gt;Node14 -->
<g id="edge18_Node000012_Node000014" class="edge">
<title>Node12&#45;&gt;Node14</title>
<g id="a_edge18_Node000012_Node000014"><a xlink:title=" ">
<path fill="none" stroke="#63b8ff" d="M566.26,-113.09C586.28,-104.52 615.61,-91.98 638.21,-82.31"/>
<polygon fill="#63b8ff" stroke="#63b8ff" points="639.48,-85.57 647.3,-78.42 636.73,-79.14 639.48,-85.57"/>
</a>
</g>
</g>
<!-- Node15 -->
<g id="Node000015" class="node">
<title>Node15</title>
<g id="a_Node000015"><a xlink:title=" ">
<polygon fill="#e0e0e0" stroke="#999999" points="507.25,-77.5 397.5,-77.5 397.5,-56.75 507.25,-56.75 507.25,-77.5"/>
<text text-anchor="middle" x="452.38" y="-64" font-family="Helvetica,sans-Serif" font-size="10.00">architecture_arch.h</text>
</a>
</g>
</g>
<!-- Node12&#45;&gt;Node15 -->
<g id="edge19_Node000012_Node000015" class="edge">
<title>Node12&#45;&gt;Node15</title>
<g id="a_edge19_Node000012_Node000015"><a xlink:title=" ">
<path fill="none" stroke="#63b8ff" d="M527.11,-113.09C513.52,-104.91 493.9,-93.11 478.17,-83.65"/>
<polygon fill="#63b8ff" stroke="#63b8ff" points="480.17,-80.77 469.8,-78.61 476.56,-86.76 480.17,-80.77"/>
</a>
</g>
</g>
<!-- Node16&#45;&gt;Node5 -->
<g id="edge22_Node000016_Node000005" class="edge">
<title>Node16&#45;&gt;Node5</title>
<g id="a_edge22_Node000016_Node000005"><a xlink:title=" ">
<path fill="none" stroke="#63b8ff" d="M745.15,-113.09C766.05,-104.48 796.71,-91.86 820.23,-82.18"/>
<polygon fill="#63b8ff" stroke="#63b8ff" points="821.49,-85.45 829.4,-78.4 818.82,-78.97 821.49,-85.45"/>
</a>
</g>
</g>
<!-- Node16&#45;&gt;Node14 -->
<g id="edge21_Node000016_Node000014" class="edge">
<title>Node16&#45;&gt;Node14</title>
<g id="a_edge21_Node000016_Node000014"><a xlink:title=" ">
<path fill="none" stroke="#63b8ff" d="M712.44,-113.09C705.61,-105.61 696.01,-95.11 687.82,-86.13"/>
<polygon fill="#63b8ff" stroke="#63b8ff" points="690.59,-83.97 681.26,-78.95 685.42,-88.69 690.59,-83.97"/>
</a>
</g>
</g>
<!-- Node17 -->
<g id="Node000017" class="node">
<title>Node17</title>
<g id="a_Node000017"><a xlink:title=" ">
<polygon fill="#e0e0e0" stroke="#999999" points="797,-77.5 715.75,-77.5 715.75,-56.75 797,-56.75 797,-77.5"/>
<text text-anchor="middle" x="756.38" y="-64" font-family="Helvetica,sans-Serif" font-size="10.00">periph_conf.h</text>
</a>
</g>
</g>
<!-- Node16&#45;&gt;Node17 -->
<g id="edge23_Node000016_Node000017" class="edge">
<title>Node16&#45;&gt;Node17</title>
<g id="a_edge23_Node000016_Node000017"><a xlink:title=" ">
<path fill="none" stroke="#63b8ff" d="M727.63,-113.09C732.21,-105.92 738.57,-95.98 744.14,-87.26"/>
<polygon fill="#63b8ff" stroke="#63b8ff" points="746.92,-89.41 749.36,-79.1 741.02,-85.64 746.92,-89.41"/>
</a>
</g>
</g>
<!-- Node20 -->
<g id="Node000020" class="node">
<title>Node20</title>
<g id="a_Node000020"><a xlink:href="modules_8h.html" target="_top" xlink:title="Common macros and compiler attributes/pragmas configuration.">
<polygon fill="white" stroke="#666666" points="101.88,-134.25 34.88,-134.25 34.88,-113.5 101.88,-113.5 101.88,-134.25"/>
<text text-anchor="middle" x="68.38" y="-120.75" font-family="Helvetica,sans-Serif" font-size="10.00">modules.h</text>
</a>
</g>
</g>
<!-- Node19&#45;&gt;Node20 -->
<g id="edge27_Node000019_Node000020" class="edge">
<title>Node19&#45;&gt;Node20</title>
<g id="a_edge27_Node000019_Node000020"><a xlink:title=" ">
<path fill="none" stroke="#63b8ff" d="M139.82,-169.84C126.95,-161.74 108.43,-150.08 93.47,-140.67"/>
<polygon fill="#63b8ff" stroke="#63b8ff" points="95.4,-137.75 85.08,-135.38 91.67,-143.67 95.4,-137.75"/>
</a>
</g>
</g>
<!-- Node21 -->
<g id="Node000021" class="node">
<title>Node21</title>
<g id="a_Node000021"><a xlink:href="riot__version_8h.html" target="_top" xlink:title="Common macros and compiler attributes/pragmas configuration.">
<polygon fill="white" stroke="#666666" points="82.75,-77.5 0,-77.5 0,-56.75 82.75,-56.75 82.75,-77.5"/>
<text text-anchor="middle" x="41.38" y="-64" font-family="Helvetica,sans-Serif" font-size="10.00">riot_version.h</text>
</a>
</g>
</g>
<!-- Node19&#45;&gt;Node21 -->
<g id="edge28_Node000019_Node000021" class="edge">
<title>Node19&#45;&gt;Node21</title>
<g id="a_edge28_Node000019_Node000021"><a xlink:title=" ">
<path fill="none" stroke="#63b8ff" d="M106.93,-176.22C78.15,-171.41 43.78,-160.17 25.38,-134.25 15.57,-120.44 21.77,-101.34 29.13,-87.22"/>
<polygon fill="#63b8ff" stroke="#63b8ff" points="31.98,-89.28 33.97,-78.87 25.92,-85.77 31.98,-89.28"/>
</a>
</g>
</g>
<!-- Node22 -->
<g id="Node000022" class="node">
<title>Node22</title>
<g id="a_Node000022"><a xlink:href="compiler__hints_8h.html" target="_top" xlink:title="Common macros and compiler attributes/pragmas configuration.">
<polygon fill="white" stroke="#666666" points="305.88,-134.25 208.88,-134.25 208.88,-113.5 305.88,-113.5 305.88,-134.25"/>
<text text-anchor="middle" x="257.38" y="-120.75" font-family="Helvetica,sans-Serif" font-size="10.00">compiler_hints.h</text>
</a>
</g>
</g>
<!-- Node19&#45;&gt;Node22 -->
<g id="edge30_Node000019_Node000022" class="edge">
<title>Node19&#45;&gt;Node22</title>
<g id="a_edge30_Node000019_Node000022"><a xlink:title=" ">
<path fill="none" stroke="#63b8ff" d="M173.61,-169.84C189.06,-161.55 211.46,-149.52 229.21,-139.99"/>
<polygon fill="#63b8ff" stroke="#63b8ff" points="230.81,-143.11 237.96,-135.29 227.5,-136.94 230.81,-143.11"/>
</a>
</g>
</g>
<!-- Node23 -->
<g id="Node000023" class="node">
<title>Node23</title>
<g id="a_Node000023"><a xlink:href="container_8h.html" target="_top" xlink:title="Common macros and compiler attributes/pragmas configuration.">
<polygon fill="white" stroke="#666666" points="190.75,-134.25 120,-134.25 120,-113.5 190.75,-113.5 190.75,-134.25"/>
<text text-anchor="middle" x="155.38" y="-120.75" font-family="Helvetica,sans-Serif" font-size="10.00">container.h</text>
</a>
</g>
</g>
<!-- Node19&#45;&gt;Node23 -->
<g id="edge33_Node000019_Node000023" class="edge">
<title>Node19&#45;&gt;Node23</title>
<g id="a_edge33_Node000019_Node000023"><a xlink:title=" ">
<path fill="none" stroke="#63b8ff" d="M155.38,-169.84C155.38,-163.22 155.38,-154.22 155.38,-146.02"/>
<polygon fill="#63b8ff" stroke="#63b8ff" points="158.88,-146.09 155.38,-136.09 151.88,-146.09 158.88,-146.09"/>
</a>
</g>
</g>
<!-- Node21&#45;&gt;Node4 -->
<g id="edge29_Node000021_Node000004" class="edge">
<title>Node21&#45;&gt;Node4</title>
<g id="a_edge29_Node000021_Node000004"><a xlink:title=" ">
<path fill="none" stroke="#63b8ff" d="M82.98,-57.75C135.45,-47.19 224.89,-29.19 275.52,-18.99"/>
<polygon fill="#63b8ff" stroke="#63b8ff" points="276.01,-22.47 285.12,-17.06 274.63,-15.6 276.01,-22.47"/>
</a>
</g>
</g>
<!-- Node22&#45;&gt;Node4 -->
<g id="edge32_Node000022_Node000004" class="edge">
<title>Node22&#45;&gt;Node4</title>
<g id="a_edge32_Node000022_Node000004"><a xlink:title=" ">
<path fill="none" stroke="#63b8ff" d="M259.15,-113.02C261.8,-99.69 267.59,-75.45 277.38,-56.75 282.47,-47.02 289.77,-37.33 296.47,-29.42"/>
<polygon fill="#63b8ff" stroke="#63b8ff" points="298.87,-31.99 302.88,-22.18 293.63,-27.34 298.87,-31.99"/>
</a>
</g>
</g>
<!-- Node22&#45;&gt;Node10 -->
<g id="edge31_Node000022_Node000010" class="edge">
<title>Node22&#45;&gt;Node10</title>
<g id="a_edge31_Node000022_Node000010"><a xlink:title=" ">
<path fill="none" stroke="#63b8ff" d="M267.39,-113.09C275.11,-105.53 286,-94.89 295.25,-85.85"/>
<polygon fill="#63b8ff" stroke="#63b8ff" points="297.66,-88.38 302.37,-78.89 292.77,-83.37 297.66,-88.38"/>
</a>
</g>
</g>
<!-- Node23&#45;&gt;Node4 -->
<g id="edge35_Node000023_Node000004" class="edge">
<title>Node23&#45;&gt;Node4</title>
<g id="a_edge35_Node000023_Node000004"><a xlink:title=" ">
<path fill="none" stroke="#63b8ff" d="M153.89,-113.04C152.33,-98.84 151.73,-72.58 165.38,-56.75 192.62,-25.16 241.22,-15.2 275.28,-12.25"/>
<polygon fill="#63b8ff" stroke="#63b8ff" points="275.41,-15.75 285.15,-11.58 274.93,-8.76 275.41,-15.75"/>
</a>
</g>
</g>
<!-- Node24 -->
<g id="Node000024" class="node">
<title>Node24</title>
<g id="a_Node000024"><a xlink:title=" ">
<polygon fill="#e0e0e0" stroke="#999999" points="228.88,-77.5 173.88,-77.5 173.88,-56.75 228.88,-56.75 228.88,-77.5"/>
<text text-anchor="middle" x="201.38" y="-64" font-family="Helvetica,sans-Serif" font-size="10.00">stddef.h</text>
</a>
</g>
</g>
<!-- Node23&#45;&gt;Node24 -->
<g id="edge34_Node000023_Node000024" class="edge">
<title>Node23&#45;&gt;Node24</title>
<g id="a_edge34_Node000023_Node000024"><a xlink:title=" ">
<path fill="none" stroke="#63b8ff" d="M163.6,-113.09C169.81,-105.69 178.52,-95.32 186.01,-86.41"/>
<polygon fill="#63b8ff" stroke="#63b8ff" points="188.5,-88.9 192.25,-78.99 183.14,-84.39 188.5,-88.9"/>
</a>
</g>
</g>
</g>
</svg>
