<?xml version="1.0" encoding="UTF-8" standalone="no"?>
<!DOCTYPE svg PUBLIC "-//W3C//DTD SVG 1.1//EN"
 "http://www.w3.org/Graphics/SVG/1.1/DTD/svg11.dtd">
<!-- Generated by graphviz version 12.1.1 (0)
 -->
<!-- Title: boards/stm32f723e&#45;disco/include/board.h Pages: 1 -->
<svg width="1295pt" height="325pt"
 viewBox="0.00 0.00 1295.00 325.25" xmlns="http://www.w3.org/2000/svg" xmlns:xlink="http://www.w3.org/1999/xlink">
<g id="graph0" class="graph" transform="scale(1 1) rotate(0) translate(4 321.25)">
<title>boards/stm32f723e&#45;disco/include/board.h</title>
<!-- Node1 -->
<g id="Node000001" class="node">
<title>Node1</title>
<g id="a_Node000001"><a xlink:title="Board specific definitions for the STM32F723E&#45;DISCO board.">
<polygon fill="#999999" stroke="#666666" points="706.25,-317.25 566.5,-317.25 566.5,-283.75 706.25,-283.75 706.25,-317.25"/>
<text text-anchor="start" x="574.5" y="-303.75" font-family="Helvetica,sans-Serif" font-size="10.00">boards/stm32f723e&#45;disco</text>
<text text-anchor="middle" x="636.38" y="-291" font-family="Helvetica,sans-Serif" font-size="10.00">/include/board.h</text>
</a>
</g>
</g>
<!-- Node2 -->
<g id="Node000002" class="node">
<title>Node2</title>
<g id="a_Node000002"><a xlink:title=" ">
<polygon fill="#e0e0e0" stroke="#999999" points="577.5,-247.75 535.25,-247.75 535.25,-227 577.5,-227 577.5,-247.75"/>
<text text-anchor="middle" x="556.38" y="-234.25" font-family="Helvetica,sans-Serif" font-size="10.00">cpu.h</text>
</a>
</g>
</g>
<!-- Node1&#45;&gt;Node2 -->
<g id="edge1_Node000001_Node000002" class="edge">
<title>Node1&#45;&gt;Node2</title>
<g id="a_edge1_Node000001_Node000002"><a xlink:title=" ">
<path fill="none" stroke="#63b8ff" d="M615.36,-283.44C603.93,-274.71 589.81,-263.92 578.25,-255.09"/>
<polygon fill="#63b8ff" stroke="#63b8ff" points="580.53,-252.43 570.46,-249.14 576.28,-257.99 580.53,-252.43"/>
</a>
</g>
</g>
<!-- Node3 -->
<g id="Node000003" class="node">
<title>Node3</title>
<g id="a_Node000003"><a xlink:href="boards_2stm32f723e-disco_2include_2periph__conf_8h.html" target="_top" xlink:title="Peripheral MCU configuration for the STM32F723E&#45;DISCO board.">
<polygon fill="white" stroke="#666666" points="1049,-191 967.75,-191 967.75,-170.25 1049,-170.25 1049,-191"/>
<text text-anchor="middle" x="1008.38" y="-177.5" font-family="Helvetica,sans-Serif" font-size="10.00">periph_conf.h</text>
</a>
</g>
</g>
<!-- Node1&#45;&gt;Node3 -->
<g id="edge2_Node000001_Node000003" class="edge">
<title>Node1&#45;&gt;Node3</title>
<g id="a_edge2_Node000001_Node000003"><a xlink:title=" ">
<path fill="none" stroke="#63b8ff" d="M687.32,-283.36C761.59,-259.82 898.18,-216.54 966.77,-194.81"/>
<polygon fill="#63b8ff" stroke="#63b8ff" points="967.65,-198.2 976.13,-191.84 965.54,-191.53 967.65,-198.2"/>
</a>
</g>
</g>
<!-- Node11 -->
<g id="Node000011" class="node">
<title>Node11</title>
<g id="a_Node000011"><a xlink:href="stm32__leds_8h.html" target="_top" xlink:title="Common LED macros.">
<polygon fill="white" stroke="#666666" points="677,-247.75 595.75,-247.75 595.75,-227 677,-227 677,-247.75"/>
<text text-anchor="middle" x="636.38" y="-234.25" font-family="Helvetica,sans-Serif" font-size="10.00">stm32_leds.h</text>
</a>
</g>
</g>
<!-- Node1&#45;&gt;Node11 -->
<g id="edge11_Node000001_Node000011" class="edge">
<title>Node1&#45;&gt;Node11</title>
<g id="a_edge11_Node000001_Node000011"><a xlink:title=" ">
<path fill="none" stroke="#63b8ff" d="M636.38,-283.44C636.38,-276.1 636.38,-267.32 636.38,-259.46"/>
<polygon fill="#63b8ff" stroke="#63b8ff" points="639.88,-259.73 636.38,-249.73 632.88,-259.73 639.88,-259.73"/>
</a>
</g>
</g>
<!-- Node4 -->
<g id="Node000004" class="node">
<title>Node4</title>
<g id="a_Node000004"><a xlink:title=" ">
<polygon fill="#e0e0e0" stroke="#999999" points="912.5,-77.5 834.25,-77.5 834.25,-56.75 912.5,-56.75 912.5,-77.5"/>
<text text-anchor="middle" x="873.38" y="-64" font-family="Helvetica,sans-Serif" font-size="10.00">periph_cpu.h</text>
</a>
</g>
</g>
<!-- Node3&#45;&gt;Node4 -->
<g id="edge3_Node000003_Node000004" class="edge">
<title>Node3&#45;&gt;Node4</title>
<g id="a_edge3_Node000003_Node000004"><a xlink:title=" ">
<path fill="none" stroke="#63b8ff" d="M967.26,-170.24C945.34,-163.42 919.28,-152.16 901.38,-134.25 888.98,-121.85 881.76,-103.12 877.76,-88.76"/>
<polygon fill="#63b8ff" stroke="#63b8ff" points="881.25,-88.31 875.48,-79.42 874.45,-89.97 881.25,-88.31"/>
</a>
</g>
</g>
<!-- Node5 -->
<g id="Node000005" class="node">
<title>Node5</title>
<g id="a_Node000005"><a xlink:title=" ">
<polygon fill="#e0e0e0" stroke="#999999" points="1090.75,-134.25 1026,-134.25 1026,-113.5 1090.75,-113.5 1090.75,-134.25"/>
<text text-anchor="middle" x="1058.38" y="-120.75" font-family="Helvetica,sans-Serif" font-size="10.00">clk_conf.h</text>
</a>
</g>
</g>
<!-- Node3&#45;&gt;Node5 -->
<g id="edge4_Node000003_Node000005" class="edge">
<title>Node3&#45;&gt;Node5</title>
<g id="a_edge4_Node000003_Node000005"><a xlink:title=" ">
<path fill="none" stroke="#63b8ff" d="M1017.31,-169.84C1024.14,-162.36 1033.74,-151.86 1041.93,-142.88"/>
<polygon fill="#63b8ff" stroke="#63b8ff" points="1044.33,-145.44 1048.49,-135.7 1039.16,-140.72 1044.33,-145.44"/>
</a>
</g>
</g>
<!-- Node6 -->
<g id="Node000006" class="node">
<title>Node6</title>
<g id="a_Node000006"><a xlink:title=" ">
<polygon fill="#e0e0e0" stroke="#999999" points="1205.5,-134.25 1109.25,-134.25 1109.25,-113.5 1205.5,-113.5 1205.5,-134.25"/>
<text text-anchor="middle" x="1157.38" y="-120.75" font-family="Helvetica,sans-Serif" font-size="10.00">cfg_rtt_default.h</text>
</a>
</g>
</g>
<!-- Node3&#45;&gt;Node6 -->
<g id="edge5_Node000003_Node000006" class="edge">
<title>Node3&#45;&gt;Node6</title>
<g id="a_edge5_Node000003_Node000006"><a xlink:title=" ">
<path fill="none" stroke="#63b8ff" d="M1035.01,-169.84C1058.67,-161.14 1093.49,-148.35 1119.95,-138.63"/>
<polygon fill="#63b8ff" stroke="#63b8ff" points="1121.12,-141.93 1129.3,-135.19 1118.7,-135.36 1121.12,-141.93"/>
</a>
</g>
</g>
<!-- Node7 -->
<g id="Node000007" class="node">
<title>Node7</title>
<g id="a_Node000007"><a xlink:href="cfg__usb__otg__fs_8h.html" target="_top" xlink:title="Common configuration for STM32 OTG FS peripheral.">
<polygon fill="white" stroke="#666666" points="1008.25,-134.25 910.5,-134.25 910.5,-113.5 1008.25,-113.5 1008.25,-134.25"/>
<text text-anchor="middle" x="959.38" y="-120.75" font-family="Helvetica,sans-Serif" font-size="10.00">cfg_usb_otg_fs.h</text>
</a>
</g>
</g>
<!-- Node3&#45;&gt;Node7 -->
<g id="edge6_Node000003_Node000007" class="edge">
<title>Node3&#45;&gt;Node7</title>
<g id="a_edge6_Node000003_Node000007"><a xlink:title=" ">
<path fill="none" stroke="#63b8ff" d="M999.61,-169.84C992.93,-162.36 983.52,-151.86 975.49,-142.88"/>
<polygon fill="#63b8ff" stroke="#63b8ff" points="978.35,-140.82 969.07,-135.71 973.13,-145.49 978.35,-140.82"/>
</a>
</g>
</g>
<!-- Node10 -->
<g id="Node000010" class="node">
<title>Node10</title>
<g id="a_Node000010"><a xlink:href="lcd__fmc_8h_source.html" target="_top" xlink:title=" ">
<polygon fill="white" stroke="#666666" points="1287,-134.25 1223.75,-134.25 1223.75,-113.5 1287,-113.5 1287,-134.25"/>
<text text-anchor="middle" x="1255.38" y="-120.75" font-family="Helvetica,sans-Serif" font-size="10.00">lcd_fmc.h</text>
</a>
</g>
</g>
<!-- Node3&#45;&gt;Node10 -->
<g id="edge10_Node000003_Node000010" class="edge">
<title>Node3&#45;&gt;Node10</title>
<g id="a_edge10_Node000003_Node000010"><a xlink:title=" ">
<path fill="none" stroke="#63b8ff" d="M1049.44,-170.68C1088.75,-162.1 1150.04,-148.65 1212.71,-134.61"/>
<polygon fill="#63b8ff" stroke="#63b8ff" points="1213.13,-138.1 1222.12,-132.5 1211.6,-131.27 1213.13,-138.1"/>
</a>
</g>
</g>
<!-- Node7&#45;&gt;Node4 -->
<g id="edge7_Node000007_Node000004" class="edge">
<title>Node7&#45;&gt;Node4</title>
<g id="a_edge7_Node000007_Node000004"><a xlink:title=" ">
<path fill="none" stroke="#63b8ff" d="M944,-113.09C931.28,-104.99 912.97,-93.33 898.18,-83.92"/>
<polygon fill="#63b8ff" stroke="#63b8ff" points="900.21,-81.06 889.89,-78.64 896.45,-86.96 900.21,-81.06"/>
</a>
</g>
</g>
<!-- Node8 -->
<g id="Node000008" class="node">
<title>Node8</title>
<g id="a_Node000008"><a xlink:href="usbdev__synopsys__dwc2_8h.html" target="_top" xlink:title="Low level USB FS/HS driver definitions for MCUs with Synopsys DWC2 IP core.">
<polygon fill="white" stroke="#666666" points="1072.38,-77.5 930.38,-77.5 930.38,-56.75 1072.38,-56.75 1072.38,-77.5"/>
<text text-anchor="middle" x="1001.38" y="-64" font-family="Helvetica,sans-Serif" font-size="10.00">usbdev_synopsys_dwc2.h</text>
</a>
</g>
</g>
<!-- Node7&#45;&gt;Node8 -->
<g id="edge8_Node000007_Node000008" class="edge">
<title>Node7&#45;&gt;Node8</title>
<g id="a_edge8_Node000007_Node000008"><a xlink:title=" ">
<path fill="none" stroke="#63b8ff" d="M966.88,-113.09C972.5,-105.77 980.34,-95.54 987.13,-86.69"/>
<polygon fill="#63b8ff" stroke="#63b8ff" points="989.7,-89.09 993.01,-79.03 984.15,-84.83 989.7,-89.09"/>
</a>
</g>
</g>
<!-- Node9 -->
<g id="Node000009" class="node">
<title>Node9</title>
<g id="a_Node000009"><a xlink:title=" ">
<polygon fill="#e0e0e0" stroke="#999999" points="304.75,-20.75 252,-20.75 252,0 304.75,0 304.75,-20.75"/>
<text text-anchor="middle" x="278.38" y="-7.25" font-family="Helvetica,sans-Serif" font-size="10.00">stdint.h</text>
</a>
</g>
</g>
<!-- Node8&#45;&gt;Node9 -->
<g id="edge9_Node000008_Node000009" class="edge">
<title>Node8&#45;&gt;Node9</title>
<g id="a_edge9_Node000008_Node000009"><a xlink:title=" ">
<path fill="none" stroke="#63b8ff" d="M930.29,-57.62C927.28,-57.32 924.3,-57.02 921.38,-56.75 691.98,-35.23 415.68,-18.98 316.28,-13.44"/>
<polygon fill="#63b8ff" stroke="#63b8ff" points="316.74,-9.96 306.57,-12.9 316.36,-16.95 316.74,-9.96"/>
</a>
</g>
</g>
<!-- Node12 -->
<g id="Node000012" class="node">
<title>Node12</title>
<g id="a_Node000012"><a xlink:href="gpio__ll_8h.html" target="_top" xlink:title="Peripheral GPIO Low&#45;Level API.">
<polygon fill="white" stroke="#666666" points="681.88,-191 590.88,-191 590.88,-170.25 681.88,-170.25 681.88,-191"/>
<text text-anchor="middle" x="636.38" y="-177.5" font-family="Helvetica,sans-Serif" font-size="10.00">periph/gpio_ll.h</text>
</a>
</g>
</g>
<!-- Node11&#45;&gt;Node12 -->
<g id="edge12_Node000011_Node000012" class="edge">
<title>Node11&#45;&gt;Node12</title>
<g id="a_edge12_Node000011_Node000012"><a xlink:title=" ">
<path fill="none" stroke="#63b8ff" d="M636.38,-226.59C636.38,-219.97 636.38,-210.97 636.38,-202.77"/>
<polygon fill="#63b8ff" stroke="#63b8ff" points="639.88,-202.84 636.38,-192.84 632.88,-202.84 639.88,-202.84"/>
</a>
</g>
</g>
<!-- Node22 -->
<g id="Node000022" class="node">
<title>Node22</title>
<g id="a_Node000022"><a xlink:href="kernel__defines_8h.html" target="_top" xlink:title="Common macros and compiler attributes/pragmas configuration.">
<polygon fill="white" stroke="#666666" points="274.5,-191 178.25,-191 178.25,-170.25 274.5,-170.25 274.5,-191"/>
<text text-anchor="middle" x="226.38" y="-177.5" font-family="Helvetica,sans-Serif" font-size="10.00">kernel_defines.h</text>
</a>
</g>
</g>
<!-- Node11&#45;&gt;Node22 -->
<g id="edge28_Node000011_Node000022" class="edge">
<title>Node11&#45;&gt;Node22</title>
<g id="a_edge28_Node000011_Node000022"><a xlink:title=" ">
<path fill="none" stroke="#63b8ff" d="M595.48,-228.5C592.4,-227.97 589.34,-227.46 586.38,-227 480.93,-210.48 357.36,-195.95 285.85,-188.02"/>
<polygon fill="#63b8ff" stroke="#63b8ff" points="286.66,-184.58 276.34,-186.96 285.89,-191.54 286.66,-184.58"/>
</a>
</g>
</g>
<!-- Node12&#45;&gt;Node4 -->
<g id="edge26_Node000012_Node000004" class="edge">
<title>Node12&#45;&gt;Node4</title>
<g id="a_edge26_Node000012_Node000004"><a xlink:title=" ">
<path fill="none" stroke="#63b8ff" d="M682.33,-176.53C721.64,-172.05 778.37,-161.08 820.38,-134.25 838.53,-122.65 853.26,-102.68 862.54,-87.72"/>
<polygon fill="#63b8ff" stroke="#63b8ff" points="865.5,-89.59 867.54,-79.2 859.46,-86.05 865.5,-89.59"/>
</a>
</g>
</g>
<!-- Node12&#45;&gt;Node9 -->
<g id="edge16_Node000012_Node000009" class="edge">
<title>Node12&#45;&gt;Node9</title>
<g id="a_edge16_Node000012_Node000009"><a xlink:title=" ">
<path fill="none" stroke="#63b8ff" d="M682.13,-179.51C717.14,-176.71 763.36,-166.54 787.38,-134.25 815.44,-96.51 759.52,-69.87 732.38,-56.75 659.28,-21.41 412.16,-13.57 316.57,-11.85"/>
<polygon fill="#63b8ff" stroke="#63b8ff" points="316.73,-8.35 306.68,-11.69 316.62,-15.35 316.73,-8.35"/>
</a>
</g>
</g>
<!-- Node13 -->
<g id="Node000013" class="node">
<title>Node13</title>
<g id="a_Node000013"><a xlink:href="assert_8h.html" target="_top" xlink:title="POSIX.1&#45;2008 compliant version of the assert macro.">
<polygon fill="white" stroke="#666666" points="305.88,-77.5 250.88,-77.5 250.88,-56.75 305.88,-56.75 305.88,-77.5"/>
<text text-anchor="middle" x="278.38" y="-64" font-family="Helvetica,sans-Serif" font-size="10.00">assert.h</text>
</a>
</g>
</g>
<!-- Node12&#45;&gt;Node13 -->
<g id="edge13_Node000012_Node000013" class="edge">
<title>Node12&#45;&gt;Node13</title>
<g id="a_edge13_Node000012_Node000013"><a xlink:title=" ">
<path fill="none" stroke="#63b8ff" d="M590.52,-174.7C543.48,-168.7 468.72,-156.48 407.38,-134.25 389.28,-127.69 386.43,-122.41 369.38,-113.5 349.29,-103.01 326.47,-91.63 308.7,-82.9"/>
<polygon fill="#63b8ff" stroke="#63b8ff" points="310.24,-79.75 299.72,-78.49 307.16,-86.04 310.24,-79.75"/>
</a>
</g>
</g>
<!-- Node14 -->
<g id="Node000014" class="node">
<title>Node14</title>
<g id="a_Node000014"><a xlink:title=" ">
<polygon fill="#e0e0e0" stroke="#999999" points="578.88,-134.25 517.88,-134.25 517.88,-113.5 578.88,-113.5 578.88,-134.25"/>
<text text-anchor="middle" x="548.38" y="-120.75" font-family="Helvetica,sans-Serif" font-size="10.00">stdbool.h</text>
</a>
</g>
</g>
<!-- Node12&#45;&gt;Node14 -->
<g id="edge15_Node000012_Node000014" class="edge">
<title>Node12&#45;&gt;Node14</title>
<g id="a_edge15_Node000012_Node000014"><a xlink:title=" ">
<path fill="none" stroke="#63b8ff" d="M620.64,-169.84C607.5,-161.66 588.53,-149.86 573.32,-140.4"/>
<polygon fill="#63b8ff" stroke="#63b8ff" points="575.6,-137.69 565.26,-135.38 571.9,-143.63 575.6,-137.69"/>
</a>
</g>
</g>
<!-- Node15 -->
<g id="Node000015" class="node">
<title>Node15</title>
<g id="a_Node000015"><a xlink:href="architecture_8h.html" target="_top" xlink:title="Platform&#45;independent access to architecture details.">
<polygon fill="white" stroke="#666666" points="500.12,-134.25 416.62,-134.25 416.62,-113.5 500.12,-113.5 500.12,-134.25"/>
<text text-anchor="middle" x="458.38" y="-120.75" font-family="Helvetica,sans-Serif" font-size="10.00">architecture.h</text>
</a>
</g>
</g>
<!-- Node12&#45;&gt;Node15 -->
<g id="edge17_Node000012_Node000015" class="edge">
<title>Node12&#45;&gt;Node15</title>
<g id="a_edge17_Node000012_Node000015"><a xlink:title=" ">
<path fill="none" stroke="#63b8ff" d="M604.55,-169.84C575.66,-160.95 532.82,-147.77 500.98,-137.98"/>
<polygon fill="#63b8ff" stroke="#63b8ff" points="502.26,-134.71 491.67,-135.12 500.2,-141.4 502.26,-134.71"/>
</a>
</g>
</g>
<!-- Node19 -->
<g id="Node000019" class="node">
<title>Node19</title>
<g id="a_Node000019"><a xlink:href="drivers_2include_2periph_2gpio_8h.html" target="_top" xlink:title="Low&#45;level GPIO peripheral driver interface definitions.">
<polygon fill="white" stroke="#666666" points="676.25,-134.25 596.5,-134.25 596.5,-113.5 676.25,-113.5 676.25,-134.25"/>
<text text-anchor="middle" x="636.38" y="-120.75" font-family="Helvetica,sans-Serif" font-size="10.00">periph/gpio.h</text>
</a>
</g>
</g>
<!-- Node12&#45;&gt;Node19 -->
<g id="edge22_Node000012_Node000019" class="edge">
<title>Node12&#45;&gt;Node19</title>
<g id="a_edge22_Node000012_Node000019"><a xlink:title=" ">
<path fill="none" stroke="#63b8ff" d="M636.38,-169.84C636.38,-163.22 636.38,-154.22 636.38,-146.02"/>
<polygon fill="#63b8ff" stroke="#63b8ff" points="639.88,-146.09 636.38,-136.09 632.88,-146.09 639.88,-146.09"/>
</a>
</g>
</g>
<!-- Node21 -->
<g id="Node000021" class="node">
<title>Node21</title>
<g id="a_Node000021"><a xlink:title=" ">
<polygon fill="#e0e0e0" stroke="#999999" points="778.12,-134.25 694.62,-134.25 694.62,-113.5 778.12,-113.5 778.12,-134.25"/>
<text text-anchor="middle" x="736.38" y="-120.75" font-family="Helvetica,sans-Serif" font-size="10.00">gpio_ll_arch.h</text>
</a>
</g>
</g>
<!-- Node12&#45;&gt;Node21 -->
<g id="edge27_Node000012_Node000021" class="edge">
<title>Node12&#45;&gt;Node21</title>
<g id="a_edge27_Node000012_Node000021"><a xlink:title=" ">
<path fill="none" stroke="#63b8ff" d="M654.25,-169.84C669.47,-161.51 691.57,-149.41 709.01,-139.86"/>
<polygon fill="#63b8ff" stroke="#63b8ff" points="710.23,-143.18 717.32,-135.31 706.87,-137.04 710.23,-143.18"/>
</a>
</g>
</g>
<!-- Node13&#45;&gt;Node9 -->
<g id="edge14_Node000013_Node000009" class="edge">
<title>Node13&#45;&gt;Node9</title>
<g id="a_edge14_Node000013_Node000009"><a xlink:title=" ">
<path fill="none" stroke="#63b8ff" d="M278.38,-56.34C278.38,-49.72 278.38,-40.72 278.38,-32.52"/>
<polygon fill="#63b8ff" stroke="#63b8ff" points="281.88,-32.59 278.38,-22.59 274.88,-32.59 281.88,-32.59"/>
</a>
</g>
</g>
<!-- Node15&#45;&gt;Node9 -->
<g id="edge18_Node000015_Node000009" class="edge">
<title>Node15&#45;&gt;Node9</title>
<g id="a_edge18_Node000015_Node000009"><a xlink:title=" ">
<path fill="none" stroke="#63b8ff" d="M480.79,-113.11C506.29,-100.67 542.22,-78.19 524.38,-56.75 498.34,-25.47 378.57,-15.67 316.27,-12.67"/>
<polygon fill="#63b8ff" stroke="#63b8ff" points="316.64,-9.18 306.5,-12.23 316.33,-16.17 316.64,-9.18"/>
</a>
</g>
</g>
<!-- Node16 -->
<g id="Node000016" class="node">
<title>Node16</title>
<g id="a_Node000016"><a xlink:href="inttypes_8h.html" target="_top" xlink:title="Adds include for missing inttype definitions.">
<polygon fill="white" stroke="#666666" points="515.75,-77.5 451,-77.5 451,-56.75 515.75,-56.75 515.75,-77.5"/>
<text text-anchor="middle" x="483.38" y="-64" font-family="Helvetica,sans-Serif" font-size="10.00">inttypes.h</text>
</a>
</g>
</g>
<!-- Node15&#45;&gt;Node16 -->
<g id="edge19_Node000015_Node000016" class="edge">
<title>Node15&#45;&gt;Node16</title>
<g id="a_edge19_Node000015_Node000016"><a xlink:title=" ">
<path fill="none" stroke="#63b8ff" d="M462.84,-113.09C466.01,-106.16 470.36,-96.62 474.25,-88.11"/>
<polygon fill="#63b8ff" stroke="#63b8ff" points="477.35,-89.76 478.32,-79.21 470.98,-86.85 477.35,-89.76"/>
</a>
</g>
</g>
<!-- Node17 -->
<g id="Node000017" class="node">
<title>Node17</title>
<g id="a_Node000017"><a xlink:title=" ">
<polygon fill="#e0e0e0" stroke="#999999" points="623.75,-77.5 571,-77.5 571,-56.75 623.75,-56.75 623.75,-77.5"/>
<text text-anchor="middle" x="597.38" y="-64" font-family="Helvetica,sans-Serif" font-size="10.00">limits.h</text>
</a>
</g>
</g>
<!-- Node15&#45;&gt;Node17 -->
<g id="edge20_Node000015_Node000017" class="edge">
<title>Node15&#45;&gt;Node17</title>
<g id="a_edge20_Node000015_Node000017"><a xlink:title=" ">
<path fill="none" stroke="#63b8ff" d="M483.23,-113.09C505.26,-104.41 537.69,-91.63 562.36,-81.92"/>
<polygon fill="#63b8ff" stroke="#63b8ff" points="563.31,-85.3 571.33,-78.38 560.74,-78.79 563.31,-85.3"/>
</a>
</g>
</g>
<!-- Node18 -->
<g id="Node000018" class="node">
<title>Node18</title>
<g id="a_Node000018"><a xlink:title=" ">
<polygon fill="#e0e0e0" stroke="#999999" points="433.25,-77.5 323.5,-77.5 323.5,-56.75 433.25,-56.75 433.25,-77.5"/>
<text text-anchor="middle" x="378.38" y="-64" font-family="Helvetica,sans-Serif" font-size="10.00">architecture_arch.h</text>
</a>
</g>
</g>
<!-- Node15&#45;&gt;Node18 -->
<g id="edge21_Node000015_Node000018" class="edge">
<title>Node15&#45;&gt;Node18</title>
<g id="a_edge21_Node000015_Node000018"><a xlink:title=" ">
<path fill="none" stroke="#63b8ff" d="M444.07,-113.09C432.36,-105.07 415.54,-93.56 401.85,-84.19"/>
<polygon fill="#63b8ff" stroke="#63b8ff" points="404.03,-81.44 393.8,-78.68 400.08,-87.22 404.03,-81.44"/>
</a>
</g>
</g>
<!-- Node19&#45;&gt;Node4 -->
<g id="edge24_Node000019_Node000004" class="edge">
<title>Node19&#45;&gt;Node4</title>
<g id="a_edge24_Node000019_Node000004"><a xlink:title=" ">
<path fill="none" stroke="#63b8ff" d="M676.58,-113.59C716.91,-104.27 779.15,-89.89 822.81,-79.81"/>
<polygon fill="#63b8ff" stroke="#63b8ff" points="823.33,-83.28 832.29,-77.62 821.76,-76.46 823.33,-83.28"/>
</a>
</g>
</g>
<!-- Node19&#45;&gt;Node17 -->
<g id="edge23_Node000019_Node000017" class="edge">
<title>Node19&#45;&gt;Node17</title>
<g id="a_edge23_Node000019_Node000017"><a xlink:title=" ">
<path fill="none" stroke="#63b8ff" d="M629.4,-113.09C624.24,-105.85 617.06,-95.76 610.8,-86.97"/>
<polygon fill="#63b8ff" stroke="#63b8ff" points="613.82,-85.18 605.17,-79.06 608.12,-89.24 613.82,-85.18"/>
</a>
</g>
</g>
<!-- Node20 -->
<g id="Node000020" class="node">
<title>Node20</title>
<g id="a_Node000020"><a xlink:title=" ">
<polygon fill="#e0e0e0" stroke="#999999" points="723,-77.5 641.75,-77.5 641.75,-56.75 723,-56.75 723,-77.5"/>
<text text-anchor="middle" x="682.38" y="-64" font-family="Helvetica,sans-Serif" font-size="10.00">periph_conf.h</text>
</a>
</g>
</g>
<!-- Node19&#45;&gt;Node20 -->
<g id="edge25_Node000019_Node000020" class="edge">
<title>Node19&#45;&gt;Node20</title>
<g id="a_edge25_Node000019_Node000020"><a xlink:title=" ">
<path fill="none" stroke="#63b8ff" d="M644.6,-113.09C650.81,-105.69 659.52,-95.32 667.01,-86.41"/>
<polygon fill="#63b8ff" stroke="#63b8ff" points="669.5,-88.9 673.25,-78.99 664.14,-84.39 669.5,-88.9"/>
</a>
</g>
</g>
<!-- Node23 -->
<g id="Node000023" class="node">
<title>Node23</title>
<g id="a_Node000023"><a xlink:href="modules_8h.html" target="_top" xlink:title="Common macros and compiler attributes/pragmas configuration.">
<polygon fill="white" stroke="#666666" points="359.88,-134.25 292.88,-134.25 292.88,-113.5 359.88,-113.5 359.88,-134.25"/>
<text text-anchor="middle" x="326.38" y="-120.75" font-family="Helvetica,sans-Serif" font-size="10.00">modules.h</text>
</a>
</g>
</g>
<!-- Node22&#45;&gt;Node23 -->
<g id="edge29_Node000022_Node000023" class="edge">
<title>Node22&#45;&gt;Node23</title>
<g id="a_edge29_Node000022_Node000023"><a xlink:title=" ">
<path fill="none" stroke="#63b8ff" d="M244.25,-169.84C259.47,-161.51 281.57,-149.41 299.01,-139.86"/>
<polygon fill="#63b8ff" stroke="#63b8ff" points="300.23,-143.18 307.32,-135.31 296.87,-137.04 300.23,-143.18"/>
</a>
</g>
</g>
<!-- Node24 -->
<g id="Node000024" class="node">
<title>Node24</title>
<g id="a_Node000024"><a xlink:href="riot__version_8h.html" target="_top" xlink:title="Common macros and compiler attributes/pragmas configuration.">
<polygon fill="white" stroke="#666666" points="82.75,-77.5 0,-77.5 0,-56.75 82.75,-56.75 82.75,-77.5"/>
<text text-anchor="middle" x="41.38" y="-64" font-family="Helvetica,sans-Serif" font-size="10.00">riot_version.h</text>
</a>
</g>
</g>
<!-- Node22&#45;&gt;Node24 -->
<g id="edge30_Node000022_Node000024" class="edge">
<title>Node22&#45;&gt;Node24</title>
<g id="a_edge30_Node000022_Node000024"><a xlink:title=" ">
<path fill="none" stroke="#63b8ff" d="M177.85,-173.64C147.25,-167.81 108.37,-156.41 80.38,-134.25 65.37,-122.37 54.93,-103.01 48.65,-88.3"/>
<polygon fill="#63b8ff" stroke="#63b8ff" points="51.96,-87.17 45.05,-79.14 45.45,-89.73 51.96,-87.17"/>
</a>
</g>
</g>
<!-- Node25 -->
<g id="Node000025" class="node">
<title>Node25</title>
<g id="a_Node000025"><a xlink:href="compiler__hints_8h.html" target="_top" xlink:title="Common macros and compiler attributes/pragmas configuration.">
<polygon fill="white" stroke="#666666" points="274.88,-134.25 177.88,-134.25 177.88,-113.5 274.88,-113.5 274.88,-134.25"/>
<text text-anchor="middle" x="226.38" y="-120.75" font-family="Helvetica,sans-Serif" font-size="10.00">compiler_hints.h</text>
</a>
</g>
</g>
<!-- Node22&#45;&gt;Node25 -->
<g id="edge32_Node000022_Node000025" class="edge">
<title>Node22&#45;&gt;Node25</title>
<g id="a_edge32_Node000022_Node000025"><a xlink:title=" ">
<path fill="none" stroke="#63b8ff" d="M226.38,-169.84C226.38,-163.22 226.38,-154.22 226.38,-146.02"/>
<polygon fill="#63b8ff" stroke="#63b8ff" points="229.88,-146.09 226.38,-136.09 222.88,-146.09 229.88,-146.09"/>
</a>
</g>
</g>
<!-- Node26 -->
<g id="Node000026" class="node">
<title>Node26</title>
<g id="a_Node000026"><a xlink:href="container_8h.html" target="_top" xlink:title="Common macros and compiler attributes/pragmas configuration.">
<polygon fill="white" stroke="#666666" points="159.75,-134.25 89,-134.25 89,-113.5 159.75,-113.5 159.75,-134.25"/>
<text text-anchor="middle" x="124.38" y="-120.75" font-family="Helvetica,sans-Serif" font-size="10.00">container.h</text>
</a>
</g>
</g>
<!-- Node22&#45;&gt;Node26 -->
<g id="edge35_Node000022_Node000026" class="edge">
<title>Node22&#45;&gt;Node26</title>
<g id="a_edge35_Node000022_Node000026"><a xlink:title=" ">
<path fill="none" stroke="#63b8ff" d="M208.14,-169.84C192.69,-161.55 170.29,-149.52 152.54,-139.99"/>
<polygon fill="#63b8ff" stroke="#63b8ff" points="154.25,-136.94 143.79,-135.29 150.94,-143.11 154.25,-136.94"/>
</a>
</g>
</g>
<!-- Node24&#45;&gt;Node9 -->
<g id="edge31_Node000024_Node000009" class="edge">
<title>Node24&#45;&gt;Node9</title>
<g id="a_edge31_Node000024_Node000009"><a xlink:title=" ">
<path fill="none" stroke="#63b8ff" d="M83.2,-56.46C127.75,-46.17 197.64,-30.02 240.59,-20.1"/>
<polygon fill="#63b8ff" stroke="#63b8ff" points="241.25,-23.54 250.2,-17.88 239.67,-16.72 241.25,-23.54"/>
</a>
</g>
</g>
<!-- Node25&#45;&gt;Node9 -->
<g id="edge34_Node000025_Node000009" class="edge">
<title>Node25&#45;&gt;Node9</title>
<g id="a_edge34_Node000025_Node000009"><a xlink:title=" ">
<path fill="none" stroke="#63b8ff" d="M227.41,-113.01C229.11,-99.68 233.26,-75.43 242.38,-56.75 247.19,-46.88 254.46,-37.17 261.2,-29.28"/>
<polygon fill="#63b8ff" stroke="#63b8ff" points="263.59,-31.85 267.68,-22.08 258.39,-27.17 263.59,-31.85"/>
</a>
</g>
</g>
<!-- Node25&#45;&gt;Node13 -->
<g id="edge33_Node000025_Node000013" class="edge">
<title>Node25&#45;&gt;Node13</title>
<g id="a_edge33_Node000025_Node000013"><a xlink:title=" ">
<path fill="none" stroke="#63b8ff" d="M235.67,-113.09C242.77,-105.61 252.75,-95.11 261.28,-86.13"/>
<polygon fill="#63b8ff" stroke="#63b8ff" points="263.77,-88.59 268.12,-78.93 258.69,-83.77 263.77,-88.59"/>
</a>
</g>
</g>
<!-- Node26&#45;&gt;Node9 -->
<g id="edge37_Node000026_Node000009" class="edge">
<title>Node26&#45;&gt;Node9</title>
<g id="a_edge37_Node000026_Node000009"><a xlink:title=" ">
<path fill="none" stroke="#63b8ff" d="M137.77,-113.18C164.17,-94.06 223.15,-51.36 255.71,-27.79"/>
<polygon fill="#63b8ff" stroke="#63b8ff" points="257.63,-30.72 263.67,-22.02 253.52,-25.05 257.63,-30.72"/>
</a>
</g>
</g>
<!-- Node27 -->
<g id="Node000027" class="node">
<title>Node27</title>
<g id="a_Node000027"><a xlink:title=" ">
<polygon fill="#e0e0e0" stroke="#999999" points="155.88,-77.5 100.88,-77.5 100.88,-56.75 155.88,-56.75 155.88,-77.5"/>
<text text-anchor="middle" x="128.38" y="-64" font-family="Helvetica,sans-Serif" font-size="10.00">stddef.h</text>
</a>
</g>
</g>
<!-- Node26&#45;&gt;Node27 -->
<g id="edge36_Node000026_Node000027" class="edge">
<title>Node26&#45;&gt;Node27</title>
<g id="a_edge36_Node000026_Node000027"><a xlink:title=" ">
<path fill="none" stroke="#63b8ff" d="M125.09,-113.09C125.57,-106.47 126.23,-97.47 126.83,-89.27"/>
<polygon fill="#63b8ff" stroke="#63b8ff" points="130.32,-89.57 127.56,-79.34 123.34,-89.06 130.32,-89.57"/>
</a>
</g>
</g>
</g>
</svg>
