<?xml version="1.0" encoding="UTF-8" standalone="no"?>
<!DOCTYPE svg PUBLIC "-//W3C//DTD SVG 1.1//EN"
 "http://www.w3.org/Graphics/SVG/1.1/DTD/svg11.dtd">
<!-- Generated by graphviz version 12.1.1 (0)
 -->
<!-- Title: drivers/include/stmpe811.h Pages: 1 -->
<svg width="636pt" height="142pt"
 viewBox="0.00 0.00 636.38 142.25" xmlns="http://www.w3.org/2000/svg" xmlns:xlink="http://www.w3.org/1999/xlink">
<g id="graph0" class="graph" transform="scale(1 1) rotate(0) translate(4 138.25)">
<title>drivers/include/stmpe811.h</title>
<!-- Node1 -->
<g id="Node000001" class="node">
<title>Node1</title>
<g id="a_Node000001"><a xlink:title=" ">
<polygon fill="#999999" stroke="#666666" points="294,-134.25 145.25,-134.25 145.25,-113.5 294,-113.5 294,-134.25"/>
<text text-anchor="middle" x="219.62" y="-120.75" font-family="Helvetica,sans-Serif" font-size="10.00">drivers/include/stmpe811.h</text>
</a>
</g>
</g>
<!-- Node2 -->
<g id="Node000002" class="node">
<title>Node2</title>
<g id="a_Node000002"><a xlink:href="drivers_2include_2saul_8h.html" target="_top" xlink:title="Definition of the generic [S]ensor [A]ctuator [U]ber [L]ayer.">
<polygon fill="white" stroke="#666666" points="463.25,-77.5 418,-77.5 418,-56.75 463.25,-56.75 463.25,-77.5"/>
<text text-anchor="middle" x="440.62" y="-64" font-family="Helvetica,sans-Serif" font-size="10.00">saul.h</text>
</a>
</g>
</g>
<!-- Node1&#45;&gt;Node2 -->
<g id="edge1_Node000001_Node000002" class="edge">
<title>Node1&#45;&gt;Node2</title>
<g id="a_edge1_Node000001_Node000002"><a xlink:title=" ">
<path fill="none" stroke="#63b8ff" d="M259.39,-113.02C301.47,-102.6 367.15,-86.33 406.81,-76.5"/>
<polygon fill="#63b8ff" stroke="#63b8ff" points="407.42,-79.96 416.28,-74.16 405.74,-73.16 407.42,-79.96"/>
</a>
</g>
</g>
<!-- Node7 -->
<g id="Node000007" class="node">
<title>Node7</title>
<g id="a_Node000007"><a xlink:href="drivers_2include_2periph_2gpio_8h.html" target="_top" xlink:title="Low&#45;level GPIO peripheral driver interface definitions.">
<polygon fill="white" stroke="#666666" points="165.5,-77.5 85.75,-77.5 85.75,-56.75 165.5,-56.75 165.5,-77.5"/>
<text text-anchor="middle" x="125.62" y="-64" font-family="Helvetica,sans-Serif" font-size="10.00">periph/gpio.h</text>
</a>
</g>
</g>
<!-- Node1&#45;&gt;Node7 -->
<g id="edge6_Node000001_Node000007" class="edge">
<title>Node1&#45;&gt;Node7</title>
<g id="a_edge6_Node000001_Node000007"><a xlink:title=" ">
<path fill="none" stroke="#63b8ff" d="M202.82,-113.09C188.65,-104.83 168.13,-92.88 151.81,-83.38"/>
<polygon fill="#63b8ff" stroke="#63b8ff" points="154,-80.6 143.59,-78.59 150.47,-86.65 154,-80.6"/>
</a>
</g>
</g>
<!-- Node11 -->
<g id="Node000011" class="node">
<title>Node11</title>
<g id="a_Node000011"><a xlink:href="i2c_8h.html" target="_top" xlink:title="Low&#45;level I2C peripheral driver interface definition.">
<polygon fill="white" stroke="#666666" points="256.12,-77.5 183.12,-77.5 183.12,-56.75 256.12,-56.75 256.12,-77.5"/>
<text text-anchor="middle" x="219.62" y="-64" font-family="Helvetica,sans-Serif" font-size="10.00">periph/i2c.h</text>
</a>
</g>
</g>
<!-- Node1&#45;&gt;Node11 -->
<g id="edge10_Node000001_Node000011" class="edge">
<title>Node1&#45;&gt;Node11</title>
<g id="a_edge10_Node000001_Node000011"><a xlink:title=" ">
<path fill="none" stroke="#63b8ff" d="M219.62,-113.09C219.62,-106.47 219.62,-97.47 219.62,-89.27"/>
<polygon fill="#63b8ff" stroke="#63b8ff" points="223.13,-89.34 219.63,-79.34 216.13,-89.34 223.13,-89.34"/>
</a>
</g>
</g>
<!-- Node3 -->
<g id="Node000003" class="node">
<title>Node3</title>
<g id="a_Node000003"><a xlink:href="errno_8h.html" target="_top" xlink:title=" ">
<polygon fill="white" stroke="#666666" points="538.88,-20.75 488.38,-20.75 488.38,0 538.88,0 538.88,-20.75"/>
<text text-anchor="middle" x="513.62" y="-7.25" font-family="Helvetica,sans-Serif" font-size="10.00">errno.h</text>
</a>
</g>
</g>
<!-- Node2&#45;&gt;Node3 -->
<g id="edge2_Node000002_Node000003" class="edge">
<title>Node2&#45;&gt;Node3</title>
<g id="a_edge2_Node000002_Node000003"><a xlink:title=" ">
<path fill="none" stroke="#63b8ff" d="M453.68,-56.34C464.26,-48.4 479.42,-37.03 491.84,-27.71"/>
<polygon fill="#63b8ff" stroke="#63b8ff" points="493.58,-30.79 499.48,-21.99 489.38,-25.19 493.58,-30.79"/>
</a>
</g>
</g>
<!-- Node4 -->
<g id="Node000004" class="node">
<title>Node4</title>
<g id="a_Node000004"><a xlink:title=" ">
<polygon fill="#e0e0e0" stroke="#999999" points="393,-20.75 340.25,-20.75 340.25,0 393,0 393,-20.75"/>
<text text-anchor="middle" x="366.62" y="-7.25" font-family="Helvetica,sans-Serif" font-size="10.00">stdint.h</text>
</a>
</g>
</g>
<!-- Node2&#45;&gt;Node4 -->
<g id="edge3_Node000002_Node000004" class="edge">
<title>Node2&#45;&gt;Node4</title>
<g id="a_edge3_Node000002_Node000004"><a xlink:title=" ">
<path fill="none" stroke="#63b8ff" d="M427.4,-56.34C416.66,-48.4 401.3,-37.03 388.71,-27.71"/>
<polygon fill="#63b8ff" stroke="#63b8ff" points="391.08,-25.11 380.96,-21.98 386.91,-30.74 391.08,-25.11"/>
</a>
</g>
</g>
<!-- Node5 -->
<g id="Node000005" class="node">
<title>Node5</title>
<g id="a_Node000005"><a xlink:title=" ">
<polygon fill="#e0e0e0" stroke="#999999" points="628.38,-20.75 556.88,-20.75 556.88,0 628.38,0 628.38,-20.75"/>
<text text-anchor="middle" x="592.62" y="-7.25" font-family="Helvetica,sans-Serif" font-size="10.00">sys/types.h</text>
</a>
</g>
</g>
<!-- Node2&#45;&gt;Node5 -->
<g id="edge4_Node000002_Node000005" class="edge">
<title>Node2&#45;&gt;Node5</title>
<g id="a_edge4_Node000002_Node000005"><a xlink:title=" ">
<path fill="none" stroke="#63b8ff" d="M463.71,-57.81C487.83,-49.12 526.07,-35.35 554.65,-25.05"/>
<polygon fill="#63b8ff" stroke="#63b8ff" points="555.82,-28.35 564.04,-21.67 553.44,-21.77 555.82,-28.35"/>
</a>
</g>
</g>
<!-- Node6 -->
<g id="Node000006" class="node">
<title>Node6</title>
<g id="a_Node000006"><a xlink:title=" ">
<polygon fill="#e0e0e0" stroke="#999999" points="470,-20.75 411.25,-20.75 411.25,0 470,0 470,-20.75"/>
<text text-anchor="middle" x="440.62" y="-7.25" font-family="Helvetica,sans-Serif" font-size="10.00">phydat.h</text>
</a>
</g>
</g>
<!-- Node2&#45;&gt;Node6 -->
<g id="edge5_Node000002_Node000006" class="edge">
<title>Node2&#45;&gt;Node6</title>
<g id="a_edge5_Node000002_Node000006"><a xlink:title=" ">
<path fill="none" stroke="#63b8ff" d="M440.62,-56.34C440.62,-49.72 440.62,-40.72 440.62,-32.52"/>
<polygon fill="#63b8ff" stroke="#63b8ff" points="444.13,-32.59 440.63,-22.59 437.13,-32.59 444.13,-32.59"/>
</a>
</g>
</g>
<!-- Node8 -->
<g id="Node000008" class="node">
<title>Node8</title>
<g id="a_Node000008"><a xlink:title=" ">
<polygon fill="#e0e0e0" stroke="#999999" points="152,-20.75 99.25,-20.75 99.25,0 152,0 152,-20.75"/>
<text text-anchor="middle" x="125.62" y="-7.25" font-family="Helvetica,sans-Serif" font-size="10.00">limits.h</text>
</a>
</g>
</g>
<!-- Node7&#45;&gt;Node8 -->
<g id="edge7_Node000007_Node000008" class="edge">
<title>Node7&#45;&gt;Node8</title>
<g id="a_edge7_Node000007_Node000008"><a xlink:title=" ">
<path fill="none" stroke="#63b8ff" d="M125.62,-56.34C125.62,-49.72 125.62,-40.72 125.62,-32.52"/>
<polygon fill="#63b8ff" stroke="#63b8ff" points="129.13,-32.59 125.63,-22.59 122.13,-32.59 129.13,-32.59"/>
</a>
</g>
</g>
<!-- Node9 -->
<g id="Node000009" class="node">
<title>Node9</title>
<g id="a_Node000009"><a xlink:title=" ">
<polygon fill="#e0e0e0" stroke="#999999" points="248.75,-20.75 170.5,-20.75 170.5,0 248.75,0 248.75,-20.75"/>
<text text-anchor="middle" x="209.62" y="-7.25" font-family="Helvetica,sans-Serif" font-size="10.00">periph_cpu.h</text>
</a>
</g>
</g>
<!-- Node7&#45;&gt;Node9 -->
<g id="edge8_Node000007_Node000009" class="edge">
<title>Node7&#45;&gt;Node9</title>
<g id="a_edge8_Node000007_Node000009"><a xlink:title=" ">
<path fill="none" stroke="#63b8ff" d="M140.64,-56.34C153.07,-48.24 170.95,-36.58 185.4,-27.17"/>
<polygon fill="#63b8ff" stroke="#63b8ff" points="187,-30.3 193.47,-21.9 183.18,-24.43 187,-30.3"/>
</a>
</g>
</g>
<!-- Node10 -->
<g id="Node000010" class="node">
<title>Node10</title>
<g id="a_Node000010"><a xlink:title=" ">
<polygon fill="#e0e0e0" stroke="#999999" points="81.25,-20.75 0,-20.75 0,0 81.25,0 81.25,-20.75"/>
<text text-anchor="middle" x="40.62" y="-7.25" font-family="Helvetica,sans-Serif" font-size="10.00">periph_conf.h</text>
</a>
</g>
</g>
<!-- Node7&#45;&gt;Node10 -->
<g id="edge9_Node000007_Node000010" class="edge">
<title>Node7&#45;&gt;Node10</title>
<g id="a_edge9_Node000007_Node000010"><a xlink:title=" ">
<path fill="none" stroke="#63b8ff" d="M110.43,-56.34C97.86,-48.24 79.76,-36.58 65.14,-27.17"/>
<polygon fill="#63b8ff" stroke="#63b8ff" points="67.26,-24.37 56.96,-21.9 63.47,-30.26 67.26,-24.37"/>
</a>
</g>
</g>
<!-- Node11&#45;&gt;Node4 -->
<g id="edge11_Node000011_Node000004" class="edge">
<title>Node11&#45;&gt;Node4</title>
<g id="a_edge11_Node000011_Node000004"><a xlink:title=" ">
<path fill="none" stroke="#63b8ff" d="M245.91,-56.34C269.32,-47.62 303.81,-34.77 329.94,-25.04"/>
<polygon fill="#63b8ff" stroke="#63b8ff" points="331,-28.38 339.15,-21.61 328.56,-21.82 331,-28.38"/>
</a>
</g>
</g>
<!-- Node11&#45;&gt;Node8 -->
<g id="edge13_Node000011_Node000008" class="edge">
<title>Node11&#45;&gt;Node8</title>
<g id="a_edge13_Node000011_Node000008"><a xlink:title=" ">
<path fill="none" stroke="#63b8ff" d="M202.82,-56.34C188.65,-48.08 168.13,-36.13 151.81,-26.63"/>
<polygon fill="#63b8ff" stroke="#63b8ff" points="154,-23.85 143.59,-21.84 150.47,-29.9 154,-23.85"/>
</a>
</g>
</g>
<!-- Node11&#45;&gt;Node9 -->
<g id="edge15_Node000011_Node000009" class="edge">
<title>Node11&#45;&gt;Node9</title>
<g id="a_edge15_Node000011_Node000009"><a xlink:title=" ">
<path fill="none" stroke="#63b8ff" d="M217.84,-56.34C216.61,-49.64 214.95,-40.51 213.43,-32.23"/>
<polygon fill="#63b8ff" stroke="#63b8ff" points="216.91,-31.78 211.67,-22.57 210.02,-33.03 216.91,-31.78"/>
</a>
</g>
</g>
<!-- Node11&#45;&gt;Node10 -->
<g id="edge14_Node000011_Node000010" class="edge">
<title>Node11&#45;&gt;Node10</title>
<g id="a_edge14_Node000011_Node000010"><a xlink:title=" ">
<path fill="none" stroke="#63b8ff" d="M187.62,-56.34C158.57,-47.45 115.49,-34.27 83.47,-24.48"/>
<polygon fill="#63b8ff" stroke="#63b8ff" points="84.68,-21.19 74.1,-21.61 82.64,-27.89 84.68,-21.19"/>
</a>
</g>
</g>
<!-- Node12 -->
<g id="Node000012" class="node">
<title>Node12</title>
<g id="a_Node000012"><a xlink:title=" ">
<polygon fill="#e0e0e0" stroke="#999999" points="322.12,-20.75 267.12,-20.75 267.12,0 322.12,0 322.12,-20.75"/>
<text text-anchor="middle" x="294.62" y="-7.25" font-family="Helvetica,sans-Serif" font-size="10.00">stddef.h</text>
</a>
</g>
</g>
<!-- Node11&#45;&gt;Node12 -->
<g id="edge12_Node000011_Node000012" class="edge">
<title>Node11&#45;&gt;Node12</title>
<g id="a_edge12_Node000011_Node000012"><a xlink:title=" ">
<path fill="none" stroke="#63b8ff" d="M233.03,-56.34C243.91,-48.4 259.48,-37.03 272.24,-27.71"/>
<polygon fill="#63b8ff" stroke="#63b8ff" points="274.1,-30.69 280.11,-21.97 269.97,-25.04 274.1,-30.69"/>
</a>
</g>
</g>
</g>
</svg>
