<?xml version="1.0" encoding="UTF-8" standalone="no"?>
<!DOCTYPE svg PUBLIC "-//W3C//DTD SVG 1.1//EN"
 "http://www.w3.org/Graphics/SVG/1.1/DTD/svg11.dtd">
<!-- Generated by graphviz version 12.1.1 (0)
 -->
<!-- Title: drivers/stmpe811/include/stmpe811_params.h Pages: 1 -->
<svg width="714pt" height="269pt"
 viewBox="0.00 0.00 714.12 268.50" xmlns="http://www.w3.org/2000/svg" xmlns:xlink="http://www.w3.org/1999/xlink">
<g id="graph0" class="graph" transform="scale(1 1) rotate(0) translate(4 264.5)">
<title>drivers/stmpe811/include/stmpe811_params.h</title>
<!-- Node1 -->
<g id="Node000001" class="node">
<title>Node1</title>
<g id="a_Node000001"><a xlink:title="Default configuration for STMPE811.">
<polygon fill="#999999" stroke="#666666" points="456.38,-260.5 316.62,-260.5 316.62,-227 456.38,-227 456.38,-260.5"/>
<text text-anchor="start" x="324.62" y="-247" font-family="Helvetica,sans-Serif" font-size="10.00">drivers/stmpe811/include</text>
<text text-anchor="middle" x="386.5" y="-234.25" font-family="Helvetica,sans-Serif" font-size="10.00">/stmpe811_params.h</text>
</a>
</g>
</g>
<!-- Node2 -->
<g id="Node000002" class="node">
<title>Node2</title>
<g id="a_Node000002"><a xlink:href="kernel__defines_8h.html" target="_top" xlink:title="Common macros and compiler attributes/pragmas configuration.">
<polygon fill="white" stroke="#666666" points="289.62,-191 193.38,-191 193.38,-170.25 289.62,-170.25 289.62,-191"/>
<text text-anchor="middle" x="241.5" y="-177.5" font-family="Helvetica,sans-Serif" font-size="10.00">kernel_defines.h</text>
</a>
</g>
</g>
<!-- Node1&#45;&gt;Node2 -->
<g id="edge1_Node000001_Node000002" class="edge">
<title>Node1&#45;&gt;Node2</title>
<g id="a_edge1_Node000001_Node000002"><a xlink:title=" ">
<path fill="none" stroke="#63b8ff" d="M348.02,-226.53C325.34,-216.97 296.92,-204.99 275.14,-195.8"/>
<polygon fill="#63b8ff" stroke="#63b8ff" points="276.69,-192.66 266.12,-192 273.97,-199.11 276.69,-192.66"/>
</a>
</g>
</g>
<!-- Node10 -->
<g id="Node000010" class="node">
<title>Node10</title>
<g id="a_Node000010"><a xlink:title=" ">
<polygon fill="#e0e0e0" stroke="#999999" points="566.88,-191 514.12,-191 514.12,-170.25 566.88,-170.25 566.88,-191"/>
<text text-anchor="middle" x="540.5" y="-177.5" font-family="Helvetica,sans-Serif" font-size="10.00">board.h</text>
</a>
</g>
</g>
<!-- Node1&#45;&gt;Node10 -->
<g id="edge12_Node000001_Node000010" class="edge">
<title>Node1&#45;&gt;Node10</title>
<g id="a_edge12_Node000001_Node000010"><a xlink:title=" ">
<path fill="none" stroke="#63b8ff" d="M427.36,-226.53C451.67,-216.88 482.2,-204.77 505.41,-195.55"/>
<polygon fill="#63b8ff" stroke="#63b8ff" points="506.42,-198.92 514.43,-191.97 503.84,-192.41 506.42,-198.92"/>
</a>
</g>
</g>
<!-- Node11 -->
<g id="Node000011" class="node">
<title>Node11</title>
<g id="a_Node000011"><a xlink:href="stmpe811_8h.html" target="_top" xlink:title=" ">
<polygon fill="white" stroke="#666666" points="469.38,-134.25 395.62,-134.25 395.62,-113.5 469.38,-113.5 469.38,-134.25"/>
<text text-anchor="middle" x="432.5" y="-120.75" font-family="Helvetica,sans-Serif" font-size="10.00">stmpe811.h</text>
</a>
</g>
</g>
<!-- Node1&#45;&gt;Node11 -->
<g id="edge13_Node000001_Node000011" class="edge">
<title>Node1&#45;&gt;Node11</title>
<g id="a_edge13_Node000001_Node000011"><a xlink:title=" ">
<path fill="none" stroke="#63b8ff" d="M373.08,-226.57C362.28,-211.44 350.42,-188.51 360.5,-170.25 367.95,-156.75 381.3,-146.71 394.49,-139.56"/>
<polygon fill="#63b8ff" stroke="#63b8ff" points="395.68,-142.88 403.1,-135.31 392.58,-136.6 395.68,-142.88"/>
</a>
</g>
</g>
<!-- Node21 -->
<g id="Node000021" class="node">
<title>Node21</title>
<g id="a_Node000021"><a xlink:href="stmpe811__constants_8h.html" target="_top" xlink:title="Constants for STMPE811.">
<polygon fill="white" stroke="#666666" points="495.62,-191 369.38,-191 369.38,-170.25 495.62,-170.25 495.62,-191"/>
<text text-anchor="middle" x="432.5" y="-177.5" font-family="Helvetica,sans-Serif" font-size="10.00">stmpe811_constants.h</text>
</a>
</g>
</g>
<!-- Node1&#45;&gt;Node21 -->
<g id="edge29_Node000001_Node000021" class="edge">
<title>Node1&#45;&gt;Node21</title>
<g id="a_edge29_Node000001_Node000021"><a xlink:title=" ">
<path fill="none" stroke="#63b8ff" d="M398.59,-226.69C404.63,-218.66 411.99,-208.88 418.3,-200.49"/>
<polygon fill="#63b8ff" stroke="#63b8ff" points="420.97,-202.77 424.18,-192.68 415.37,-198.56 420.97,-202.77"/>
</a>
</g>
</g>
<!-- Node3 -->
<g id="Node000003" class="node">
<title>Node3</title>
<g id="a_Node000003"><a xlink:href="modules_8h.html" target="_top" xlink:title="Common macros and compiler attributes/pragmas configuration.">
<polygon fill="white" stroke="#666666" points="182,-134.25 115,-134.25 115,-113.5 182,-113.5 182,-134.25"/>
<text text-anchor="middle" x="148.5" y="-120.75" font-family="Helvetica,sans-Serif" font-size="10.00">modules.h</text>
</a>
</g>
</g>
<!-- Node2&#45;&gt;Node3 -->
<g id="edge2_Node000002_Node000003" class="edge">
<title>Node2&#45;&gt;Node3</title>
<g id="a_edge2_Node000002_Node000003"><a xlink:title=" ">
<path fill="none" stroke="#63b8ff" d="M224.87,-169.84C210.99,-161.66 190.94,-149.86 174.87,-140.4"/>
<polygon fill="#63b8ff" stroke="#63b8ff" points="176.68,-137.4 166.29,-135.35 173.13,-143.44 176.68,-137.4"/>
</a>
</g>
</g>
<!-- Node4 -->
<g id="Node000004" class="node">
<title>Node4</title>
<g id="a_Node000004"><a xlink:href="riot__version_8h.html" target="_top" xlink:title="Common macros and compiler attributes/pragmas configuration.">
<polygon fill="white" stroke="#666666" points="282.88,-134.25 200.12,-134.25 200.12,-113.5 282.88,-113.5 282.88,-134.25"/>
<text text-anchor="middle" x="241.5" y="-120.75" font-family="Helvetica,sans-Serif" font-size="10.00">riot_version.h</text>
</a>
</g>
</g>
<!-- Node2&#45;&gt;Node4 -->
<g id="edge3_Node000002_Node000004" class="edge">
<title>Node2&#45;&gt;Node4</title>
<g id="a_edge3_Node000002_Node000004"><a xlink:title=" ">
<path fill="none" stroke="#63b8ff" d="M241.5,-169.84C241.5,-163.22 241.5,-154.22 241.5,-146.02"/>
<polygon fill="#63b8ff" stroke="#63b8ff" points="245,-146.09 241.5,-136.09 238,-146.09 245,-146.09"/>
</a>
</g>
</g>
<!-- Node6 -->
<g id="Node000006" class="node">
<title>Node6</title>
<g id="a_Node000006"><a xlink:href="compiler__hints_8h.html" target="_top" xlink:title="Common macros and compiler attributes/pragmas configuration.">
<polygon fill="white" stroke="#666666" points="97,-134.25 0,-134.25 0,-113.5 97,-113.5 97,-134.25"/>
<text text-anchor="middle" x="48.5" y="-120.75" font-family="Helvetica,sans-Serif" font-size="10.00">compiler_hints.h</text>
</a>
</g>
</g>
<!-- Node2&#45;&gt;Node6 -->
<g id="edge5_Node000002_Node000006" class="edge">
<title>Node2&#45;&gt;Node6</title>
<g id="a_edge5_Node000002_Node000006"><a xlink:title=" ">
<path fill="none" stroke="#63b8ff" d="M207,-169.84C175.39,-160.87 128.41,-147.54 93.8,-137.73"/>
<polygon fill="#63b8ff" stroke="#63b8ff" points="95.06,-134.45 84.49,-135.08 93.15,-141.18 95.06,-134.45"/>
</a>
</g>
</g>
<!-- Node8 -->
<g id="Node000008" class="node">
<title>Node8</title>
<g id="a_Node000008"><a xlink:href="container_8h.html" target="_top" xlink:title="Common macros and compiler attributes/pragmas configuration.">
<polygon fill="white" stroke="#666666" points="306.88,-77.5 236.12,-77.5 236.12,-56.75 306.88,-56.75 306.88,-77.5"/>
<text text-anchor="middle" x="271.5" y="-64" font-family="Helvetica,sans-Serif" font-size="10.00">container.h</text>
</a>
</g>
</g>
<!-- Node2&#45;&gt;Node8 -->
<g id="edge9_Node000002_Node000008" class="edge">
<title>Node2&#45;&gt;Node8</title>
<g id="a_edge9_Node000002_Node000008"><a xlink:title=" ">
<path fill="none" stroke="#63b8ff" d="M257.91,-170.03C269.7,-162.11 284.66,-149.68 291.5,-134.25 298.24,-119.02 291.79,-100.85 284.46,-87.42"/>
<polygon fill="#63b8ff" stroke="#63b8ff" points="287.6,-85.84 279.43,-79.1 281.61,-89.47 287.6,-85.84"/>
</a>
</g>
</g>
<!-- Node5 -->
<g id="Node000005" class="node">
<title>Node5</title>
<g id="a_Node000005"><a xlink:title=" ">
<polygon fill="#e0e0e0" stroke="#999999" points="130.88,-20.75 78.12,-20.75 78.12,0 130.88,0 130.88,-20.75"/>
<text text-anchor="middle" x="104.5" y="-7.25" font-family="Helvetica,sans-Serif" font-size="10.00">stdint.h</text>
</a>
</g>
</g>
<!-- Node4&#45;&gt;Node5 -->
<g id="edge4_Node000004_Node000005" class="edge">
<title>Node4&#45;&gt;Node5</title>
<g id="a_edge4_Node000004_Node000005"><a xlink:title=" ">
<path fill="none" stroke="#63b8ff" d="M229.82,-113.37C206.58,-94.46 154.28,-51.89 125.13,-28.16"/>
<polygon fill="#63b8ff" stroke="#63b8ff" points="127.68,-25.73 117.72,-22.13 123.26,-31.16 127.68,-25.73"/>
</a>
</g>
</g>
<!-- Node6&#45;&gt;Node5 -->
<g id="edge8_Node000006_Node000005" class="edge">
<title>Node6&#45;&gt;Node5</title>
<g id="a_edge8_Node000006_Node000005"><a xlink:title=" ">
<path fill="none" stroke="#63b8ff" d="M57.99,-113.2C66.05,-104.5 77.41,-91.04 84.5,-77.5 91.99,-63.18 97.14,-45.62 100.33,-32.19"/>
<polygon fill="#63b8ff" stroke="#63b8ff" points="103.69,-33.23 102.41,-22.71 96.85,-31.73 103.69,-33.23"/>
</a>
</g>
</g>
<!-- Node7 -->
<g id="Node000007" class="node">
<title>Node7</title>
<g id="a_Node000007"><a xlink:href="assert_8h.html" target="_top" xlink:title="POSIX.1&#45;2008 compliant version of the assert macro.">
<polygon fill="white" stroke="#666666" points="76,-77.5 21,-77.5 21,-56.75 76,-56.75 76,-77.5"/>
<text text-anchor="middle" x="48.5" y="-64" font-family="Helvetica,sans-Serif" font-size="10.00">assert.h</text>
</a>
</g>
</g>
<!-- Node6&#45;&gt;Node7 -->
<g id="edge6_Node000006_Node000007" class="edge">
<title>Node6&#45;&gt;Node7</title>
<g id="a_edge6_Node000006_Node000007"><a xlink:title=" ">
<path fill="none" stroke="#63b8ff" d="M48.5,-113.09C48.5,-106.47 48.5,-97.47 48.5,-89.27"/>
<polygon fill="#63b8ff" stroke="#63b8ff" points="52,-89.34 48.5,-79.34 45,-89.34 52,-89.34"/>
</a>
</g>
</g>
<!-- Node7&#45;&gt;Node5 -->
<g id="edge7_Node000007_Node000005" class="edge">
<title>Node7&#45;&gt;Node5</title>
<g id="a_edge7_Node000007_Node000005"><a xlink:title=" ">
<path fill="none" stroke="#63b8ff" d="M58.51,-56.34C66.24,-48.78 77.13,-38.14 86.37,-29.1"/>
<polygon fill="#63b8ff" stroke="#63b8ff" points="88.79,-31.63 93.49,-22.14 83.9,-26.62 88.79,-31.63"/>
</a>
</g>
</g>
<!-- Node8&#45;&gt;Node5 -->
<g id="edge11_Node000008_Node000005" class="edge">
<title>Node8&#45;&gt;Node5</title>
<g id="a_edge11_Node000008_Node000005"><a xlink:title=" ">
<path fill="none" stroke="#63b8ff" d="M241.64,-56.34C213.86,-47.23 172.33,-33.61 142.25,-23.75"/>
<polygon fill="#63b8ff" stroke="#63b8ff" points="143.37,-20.44 132.78,-20.65 141.19,-27.09 143.37,-20.44"/>
</a>
</g>
</g>
<!-- Node9 -->
<g id="Node000009" class="node">
<title>Node9</title>
<g id="a_Node000009"><a xlink:title=" ">
<polygon fill="#e0e0e0" stroke="#999999" points="350,-20.75 295,-20.75 295,0 350,0 350,-20.75"/>
<text text-anchor="middle" x="322.5" y="-7.25" font-family="Helvetica,sans-Serif" font-size="10.00">stddef.h</text>
</a>
</g>
</g>
<!-- Node8&#45;&gt;Node9 -->
<g id="edge10_Node000008_Node000009" class="edge">
<title>Node8&#45;&gt;Node9</title>
<g id="a_edge10_Node000008_Node000009"><a xlink:title=" ">
<path fill="none" stroke="#63b8ff" d="M280.62,-56.34C287.58,-48.86 297.37,-38.36 305.73,-29.38"/>
<polygon fill="#63b8ff" stroke="#63b8ff" points="308.17,-31.89 312.43,-22.19 303.05,-27.12 308.17,-31.89"/>
</a>
</g>
</g>
<!-- Node12 -->
<g id="Node000012" class="node">
<title>Node12</title>
<g id="a_Node000012"><a xlink:href="drivers_2include_2saul_8h.html" target="_top" xlink:title="Definition of the generic [S]ensor [A]ctuator [U]ber [L]ayer.">
<polygon fill="white" stroke="#666666" points="370.12,-77.5 324.88,-77.5 324.88,-56.75 370.12,-56.75 370.12,-77.5"/>
<text text-anchor="middle" x="347.5" y="-64" font-family="Helvetica,sans-Serif" font-size="10.00">saul.h</text>
</a>
</g>
</g>
<!-- Node11&#45;&gt;Node12 -->
<g id="edge14_Node000011_Node000012" class="edge">
<title>Node11&#45;&gt;Node12</title>
<g id="a_edge14_Node000011_Node000012"><a xlink:title=" ">
<path fill="none" stroke="#63b8ff" d="M417.3,-113.09C404.73,-104.99 386.64,-93.33 372.02,-83.92"/>
<polygon fill="#63b8ff" stroke="#63b8ff" points="374.14,-81.12 363.84,-78.65 370.35,-87.01 374.14,-81.12"/>
</a>
</g>
</g>
<!-- Node16 -->
<g id="Node000016" class="node">
<title>Node16</title>
<g id="a_Node000016"><a xlink:href="drivers_2include_2periph_2gpio_8h.html" target="_top" xlink:title="Low&#45;level GPIO peripheral driver interface definitions.">
<polygon fill="white" stroke="#666666" points="596.38,-77.5 516.62,-77.5 516.62,-56.75 596.38,-56.75 596.38,-77.5"/>
<text text-anchor="middle" x="556.5" y="-64" font-family="Helvetica,sans-Serif" font-size="10.00">periph/gpio.h</text>
</a>
</g>
</g>
<!-- Node11&#45;&gt;Node16 -->
<g id="edge19_Node000011_Node000016" class="edge">
<title>Node11&#45;&gt;Node16</title>
<g id="a_edge19_Node000011_Node000016"><a xlink:title=" ">
<path fill="none" stroke="#63b8ff" d="M454.67,-113.09C473.98,-104.56 502.22,-92.09 524.07,-82.44"/>
<polygon fill="#63b8ff" stroke="#63b8ff" points="525.4,-85.68 533.14,-78.44 522.58,-79.28 525.4,-85.68"/>
</a>
</g>
</g>
<!-- Node20 -->
<g id="Node000020" class="node">
<title>Node20</title>
<g id="a_Node000020"><a xlink:href="i2c_8h.html" target="_top" xlink:title="Low&#45;level I2C peripheral driver interface definition.">
<polygon fill="white" stroke="#666666" points="479,-77.5 406,-77.5 406,-56.75 479,-56.75 479,-77.5"/>
<text text-anchor="middle" x="442.5" y="-64" font-family="Helvetica,sans-Serif" font-size="10.00">periph/i2c.h</text>
</a>
</g>
</g>
<!-- Node11&#45;&gt;Node20 -->
<g id="edge23_Node000011_Node000020" class="edge">
<title>Node11&#45;&gt;Node20</title>
<g id="a_edge23_Node000011_Node000020"><a xlink:title=" ">
<path fill="none" stroke="#63b8ff" d="M434.29,-113.09C435.51,-106.39 437.18,-97.26 438.69,-88.98"/>
<polygon fill="#63b8ff" stroke="#63b8ff" points="442.1,-89.78 440.46,-79.32 435.22,-88.53 442.1,-89.78"/>
</a>
</g>
</g>
<!-- Node12&#45;&gt;Node5 -->
<g id="edge16_Node000012_Node000005" class="edge">
<title>Node12&#45;&gt;Node5</title>
<g id="a_edge16_Node000012_Node000005"><a xlink:title=" ">
<path fill="none" stroke="#63b8ff" d="M324.49,-59.14C321.48,-58.3 318.42,-57.48 315.5,-56.75 241.76,-38.4 219.71,-38.7 142.01,-20.99"/>
<polygon fill="#63b8ff" stroke="#63b8ff" points="143.2,-17.67 132.67,-18.83 141.63,-24.49 143.2,-17.67"/>
</a>
</g>
</g>
<!-- Node13 -->
<g id="Node000013" class="node">
<title>Node13</title>
<g id="a_Node000013"><a xlink:href="errno_8h.html" target="_top" xlink:title=" ">
<polygon fill="white" stroke="#666666" points="276.75,-20.75 226.25,-20.75 226.25,0 276.75,0 276.75,-20.75"/>
<text text-anchor="middle" x="251.5" y="-7.25" font-family="Helvetica,sans-Serif" font-size="10.00">errno.h</text>
</a>
</g>
</g>
<!-- Node12&#45;&gt;Node13 -->
<g id="edge15_Node000012_Node000013" class="edge">
<title>Node12&#45;&gt;Node13</title>
<g id="a_edge15_Node000012_Node000013"><a xlink:title=" ">
<path fill="none" stroke="#63b8ff" d="M330.34,-56.34C315.87,-48.08 294.91,-36.13 278.24,-26.63"/>
<polygon fill="#63b8ff" stroke="#63b8ff" points="280.25,-23.74 269.83,-21.83 276.78,-29.82 280.25,-23.74"/>
</a>
</g>
</g>
<!-- Node14 -->
<g id="Node000014" class="node">
<title>Node14</title>
<g id="a_Node000014"><a xlink:title=" ">
<polygon fill="#e0e0e0" stroke="#999999" points="439.25,-20.75 367.75,-20.75 367.75,0 439.25,0 439.25,-20.75"/>
<text text-anchor="middle" x="403.5" y="-7.25" font-family="Helvetica,sans-Serif" font-size="10.00">sys/types.h</text>
</a>
</g>
</g>
<!-- Node12&#45;&gt;Node14 -->
<g id="edge17_Node000012_Node000014" class="edge">
<title>Node12&#45;&gt;Node14</title>
<g id="a_edge17_Node000012_Node000014"><a xlink:title=" ">
<path fill="none" stroke="#63b8ff" d="M357.51,-56.34C365.24,-48.78 376.13,-38.14 385.37,-29.1"/>
<polygon fill="#63b8ff" stroke="#63b8ff" points="387.79,-31.63 392.49,-22.14 382.9,-26.62 387.79,-31.63"/>
</a>
</g>
</g>
<!-- Node15 -->
<g id="Node000015" class="node">
<title>Node15</title>
<g id="a_Node000015"><a xlink:title=" ">
<polygon fill="#e0e0e0" stroke="#999999" points="207.88,-20.75 149.12,-20.75 149.12,0 207.88,0 207.88,-20.75"/>
<text text-anchor="middle" x="178.5" y="-7.25" font-family="Helvetica,sans-Serif" font-size="10.00">phydat.h</text>
</a>
</g>
</g>
<!-- Node12&#45;&gt;Node15 -->
<g id="edge18_Node000012_Node000015" class="edge">
<title>Node12&#45;&gt;Node15</title>
<g id="a_edge18_Node000012_Node000015"><a xlink:title=" ">
<path fill="none" stroke="#63b8ff" d="M324.71,-58.74C297.67,-49.98 252.1,-35.22 219.01,-24.5"/>
<polygon fill="#63b8ff" stroke="#63b8ff" points="220.35,-21.25 209.76,-21.5 218.19,-27.91 220.35,-21.25"/>
</a>
</g>
</g>
<!-- Node17 -->
<g id="Node000017" class="node">
<title>Node17</title>
<g id="a_Node000017"><a xlink:title=" ">
<polygon fill="#e0e0e0" stroke="#999999" points="509.88,-20.75 457.12,-20.75 457.12,0 509.88,0 509.88,-20.75"/>
<text text-anchor="middle" x="483.5" y="-7.25" font-family="Helvetica,sans-Serif" font-size="10.00">limits.h</text>
</a>
</g>
</g>
<!-- Node16&#45;&gt;Node17 -->
<g id="edge20_Node000016_Node000017" class="edge">
<title>Node16&#45;&gt;Node17</title>
<g id="a_edge20_Node000016_Node000017"><a xlink:title=" ">
<path fill="none" stroke="#63b8ff" d="M543.45,-56.34C532.86,-48.4 517.71,-37.03 505.28,-27.71"/>
<polygon fill="#63b8ff" stroke="#63b8ff" points="507.75,-25.19 497.65,-21.99 503.55,-30.79 507.75,-25.19"/>
</a>
</g>
</g>
<!-- Node18 -->
<g id="Node000018" class="node">
<title>Node18</title>
<g id="a_Node000018"><a xlink:title=" ">
<polygon fill="#e0e0e0" stroke="#999999" points="606.62,-20.75 528.38,-20.75 528.38,0 606.62,0 606.62,-20.75"/>
<text text-anchor="middle" x="567.5" y="-7.25" font-family="Helvetica,sans-Serif" font-size="10.00">periph_cpu.h</text>
</a>
</g>
</g>
<!-- Node16&#45;&gt;Node18 -->
<g id="edge21_Node000016_Node000018" class="edge">
<title>Node16&#45;&gt;Node18</title>
<g id="a_edge21_Node000016_Node000018"><a xlink:title=" ">
<path fill="none" stroke="#63b8ff" d="M558.47,-56.34C559.81,-49.64 561.65,-40.51 563.31,-32.23"/>
<polygon fill="#63b8ff" stroke="#63b8ff" points="566.71,-33.06 565.25,-22.56 559.85,-31.68 566.71,-33.06"/>
</a>
</g>
</g>
<!-- Node19 -->
<g id="Node000019" class="node">
<title>Node19</title>
<g id="a_Node000019"><a xlink:title=" ">
<polygon fill="#e0e0e0" stroke="#999999" points="706.12,-20.75 624.88,-20.75 624.88,0 706.12,0 706.12,-20.75"/>
<text text-anchor="middle" x="665.5" y="-7.25" font-family="Helvetica,sans-Serif" font-size="10.00">periph_conf.h</text>
</a>
</g>
</g>
<!-- Node16&#45;&gt;Node19 -->
<g id="edge22_Node000016_Node000019" class="edge">
<title>Node16&#45;&gt;Node19</title>
<g id="a_edge22_Node000016_Node000019"><a xlink:title=" ">
<path fill="none" stroke="#63b8ff" d="M575.99,-56.34C592.65,-47.97 616.88,-35.79 635.94,-26.22"/>
<polygon fill="#63b8ff" stroke="#63b8ff" points="637.46,-29.37 644.83,-21.76 634.32,-23.12 637.46,-29.37"/>
</a>
</g>
</g>
<!-- Node20&#45;&gt;Node5 -->
<g id="edge24_Node000020_Node000005" class="edge">
<title>Node20&#45;&gt;Node5</title>
<g id="a_edge24_Node000020_Node000005"><a xlink:title=" ">
<path fill="none" stroke="#63b8ff" d="M405.51,-60.62C335.29,-50.16 186.32,-27.94 142.45,-20.66"/>
<polygon fill="#63b8ff" stroke="#63b8ff" points="143.11,-17.22 132.65,-18.92 141.89,-24.11 143.11,-17.22"/>
</a>
</g>
</g>
<!-- Node20&#45;&gt;Node9 -->
<g id="edge25_Node000020_Node000009" class="edge">
<title>Node20&#45;&gt;Node9</title>
<g id="a_edge25_Node000020_Node000009"><a xlink:title=" ">
<path fill="none" stroke="#63b8ff" d="M421.05,-56.34C402.45,-47.85 375.28,-35.45 354.17,-25.83"/>
<polygon fill="#63b8ff" stroke="#63b8ff" points="355.7,-22.67 345.14,-21.71 352.79,-29.04 355.7,-22.67"/>
</a>
</g>
</g>
<!-- Node20&#45;&gt;Node17 -->
<g id="edge26_Node000020_Node000017" class="edge">
<title>Node20&#45;&gt;Node17</title>
<g id="a_edge26_Node000020_Node000017"><a xlink:title=" ">
<path fill="none" stroke="#63b8ff" d="M449.83,-56.34C455.25,-49.1 462.81,-39.01 469.39,-30.22"/>
<polygon fill="#63b8ff" stroke="#63b8ff" points="472.13,-32.39 475.33,-22.29 466.53,-28.2 472.13,-32.39"/>
</a>
</g>
</g>
<!-- Node20&#45;&gt;Node18 -->
<g id="edge28_Node000020_Node000018" class="edge">
<title>Node20&#45;&gt;Node18</title>
<g id="a_edge28_Node000020_Node000018"><a xlink:title=" ">
<path fill="none" stroke="#63b8ff" d="M464.85,-56.34C484.31,-47.81 512.79,-35.34 534.81,-25.69"/>
<polygon fill="#63b8ff" stroke="#63b8ff" points="536.2,-28.9 543.96,-21.69 533.4,-22.49 536.2,-28.9"/>
</a>
</g>
</g>
<!-- Node20&#45;&gt;Node19 -->
<g id="edge27_Node000020_Node000019" class="edge">
<title>Node20&#45;&gt;Node19</title>
<g id="a_edge27_Node000020_Node000019"><a xlink:title=" ">
<path fill="none" stroke="#63b8ff" d="M479.32,-57.08C516.19,-48.03 573.2,-34.04 614.43,-23.91"/>
<polygon fill="#63b8ff" stroke="#63b8ff" points="615.26,-27.31 624.14,-21.53 613.59,-20.52 615.26,-27.31"/>
</a>
</g>
</g>
<!-- Node21&#45;&gt;Node11 -->
<g id="edge30_Node000021_Node000011" class="edge">
<title>Node21&#45;&gt;Node11</title>
<g id="a_edge30_Node000021_Node000011"><a xlink:title=" ">
<path fill="none" stroke="#63b8ff" d="M432.5,-169.84C432.5,-163.22 432.5,-154.22 432.5,-146.02"/>
<polygon fill="#63b8ff" stroke="#63b8ff" points="436,-146.09 432.5,-136.09 429,-146.09 436,-146.09"/>
</a>
</g>
</g>
</g>
</svg>
