<?xml version="1.0" encoding="UTF-8" standalone="no"?>
<!DOCTYPE svg PUBLIC "-//W3C//DTD SVG 1.1//EN"
 "http://www.w3.org/Graphics/SVG/1.1/DTD/svg11.dtd">
<!-- Generated by graphviz version 12.1.1 (0)
 -->
<!-- Title: drivers/include/sx126x.h Pages: 1 -->
<svg width="278pt" height="98pt"
 viewBox="0.00 0.00 278.25 98.25" xmlns="http://www.w3.org/2000/svg" xmlns:xlink="http://www.w3.org/1999/xlink">
<g id="graph0" class="graph" transform="scale(1 1) rotate(0) translate(4 94.25)">
<title>drivers/include/sx126x.h</title>
<!-- Node1 -->
<g id="Node000001" class="node">
<title>Node1</title>
<g id="a_Node000001"><a xlink:title=" ">
<polygon fill="#999999" stroke="#666666" points="202.75,-90.25 67.5,-90.25 67.5,-69.5 202.75,-69.5 202.75,-90.25"/>
<text text-anchor="middle" x="135.12" y="-76.75" font-family="Helvetica,sans-Serif" font-size="10.00">drivers/include/sx126x.h</text>
</a>
</g>
</g>
<!-- Node2 -->
<g id="Node000002" class="node">
<title>Node2</title>
<g id="a_Node000002"><a xlink:href="sx126x__internal_8h.html" target="_top" xlink:title=" ">
<polygon fill="white" stroke="#666666" points="126.25,-33.5 0,-33.5 0,0 126.25,0 126.25,-33.5"/>
<text text-anchor="start" x="8" y="-20" font-family="Helvetica,sans-Serif" font-size="10.00">drivers/sx126x/include</text>
<text text-anchor="middle" x="63.12" y="-7.25" font-family="Helvetica,sans-Serif" font-size="10.00">/sx126x_internal.h</text>
</a>
</g>
</g>
<!-- Node1&#45;&gt;Node2 -->
<g id="edge1_Node000001_Node000002" class="edge">
<title>Node1&#45;&gt;Node2</title>
<g id="a_edge1_Node000001_Node000002"><a xlink:title=" ">
<path fill="none" stroke="#63b8ff" d="M114.88,-61.69C104.66,-53.01 92.31,-42.53 82.25,-33.98"/>
<polygon fill="#63b8ff" stroke="#63b8ff" points="112.51,-64.27 122.4,-68.07 117.04,-58.93 112.51,-64.27"/>
</a>
</g>
</g>
<!-- Node3 -->
<g id="Node000003" class="node">
<title>Node3</title>
<g id="a_Node000003"><a xlink:href="sx126x__params_8h.html" target="_top" xlink:title="Default configuration.">
<polygon fill="white" stroke="#666666" points="270.25,-33.5 144,-33.5 144,0 270.25,0 270.25,-33.5"/>
<text text-anchor="start" x="152" y="-20" font-family="Helvetica,sans-Serif" font-size="10.00">drivers/sx126x/include</text>
<text text-anchor="middle" x="207.12" y="-7.25" font-family="Helvetica,sans-Serif" font-size="10.00">/sx126x_params.h</text>
</a>
</g>
</g>
<!-- Node1&#45;&gt;Node3 -->
<g id="edge2_Node000001_Node000003" class="edge">
<title>Node1&#45;&gt;Node3</title>
<g id="a_edge2_Node000001_Node000003"><a xlink:title=" ">
<path fill="none" stroke="#63b8ff" d="M155.37,-61.69C165.59,-53.01 177.94,-42.53 188,-33.98"/>
<polygon fill="#63b8ff" stroke="#63b8ff" points="153.21,-58.93 147.85,-68.07 157.74,-64.27 153.21,-58.93"/>
</a>
</g>
</g>
</g>
</svg>
