<?xml version="1.0" encoding="UTF-8" standalone="no"?>
<!DOCTYPE svg PUBLIC "-//W3C//DTD SVG 1.1//EN"
 "http://www.w3.org/Graphics/SVG/1.1/DTD/svg11.dtd">
<!-- Generated by graphviz version 12.1.1 (0)
 -->
<!-- Title: sys/include/can/device.h Pages: 1 -->
<svg width="995pt" height="168pt"
 viewBox="0.00 0.00 995.12 167.75" xmlns="http://www.w3.org/2000/svg" xmlns:xlink="http://www.w3.org/1999/xlink">
<g id="graph0" class="graph" transform="scale(1 1) rotate(0) translate(4 163.75)">
<title>sys/include/can/device.h</title>
<!-- Node1 -->
<g id="Node000001" class="node">
<title>Node1</title>
<g id="a_Node000001"><a xlink:title="Definitions of CAN device interface.">
<polygon fill="#999999" stroke="#666666" points="496.62,-159.75 361.38,-159.75 361.38,-139 496.62,-139 496.62,-159.75"/>
<text text-anchor="middle" x="429" y="-146.25" font-family="Helvetica,sans-Serif" font-size="10.00">sys/include/can/device.h</text>
</a>
</g>
</g>
<!-- Node2 -->
<g id="Node000002" class="node">
<title>Node2</title>
<g id="a_Node000002"><a xlink:href="esp32_2include_2can__params_8h.html" target="_top" xlink:title="ESP32 CAN controller driver (esp_can) default parameters.">
<polygon fill="white" stroke="#666666" points="124,-103 0,-103 0,-69.5 124,-69.5 124,-103"/>
<text text-anchor="start" x="8" y="-89.5" font-family="Helvetica,sans-Serif" font-size="10.00">cpu/esp32/include/can</text>
<text text-anchor="middle" x="62" y="-76.75" font-family="Helvetica,sans-Serif" font-size="10.00">_params.h</text>
</a>
</g>
</g>
<!-- Node1&#45;&gt;Node2 -->
<g id="edge1_Node000001_Node000002" class="edge">
<title>Node1&#45;&gt;Node2</title>
<g id="a_edge1_Node000001_Node000002"><a xlink:title=" ">
<path fill="none" stroke="#63b8ff" d="M349.89,-137.12C291.27,-128.52 209.49,-115.97 138,-103 133.49,-102.18 128.84,-101.3 124.16,-100.39"/>
<polygon fill="#63b8ff" stroke="#63b8ff" points="349.03,-140.54 359.43,-138.52 350.04,-133.61 349.03,-140.54"/>
</a>
</g>
</g>
<!-- Node3 -->
<g id="Node000003" class="node">
<title>Node3</title>
<g id="a_Node000003"><a xlink:href="native_2include_2can__params_8h.html" target="_top" xlink:title="Default linux can config.">
<polygon fill="white" stroke="#666666" points="245.62,-33.5 140.38,-33.5 140.38,0 245.62,0 245.62,-33.5"/>
<text text-anchor="start" x="148.38" y="-20" font-family="Helvetica,sans-Serif" font-size="10.00">cpu/native/include</text>
<text text-anchor="middle" x="193" y="-7.25" font-family="Helvetica,sans-Serif" font-size="10.00">/can_params.h</text>
</a>
</g>
</g>
<!-- Node1&#45;&gt;Node3 -->
<g id="edge2_Node000001_Node000003" class="edge">
<title>Node1&#45;&gt;Node3</title>
<g id="a_edge2_Node000001_Node000003"><a xlink:title=" ">
<path fill="none" stroke="#63b8ff" d="M349.6,-145.29C282.41,-140.81 193.53,-129.84 171,-103 154.39,-83.22 169.3,-52.4 181.35,-33.74"/>
<polygon fill="#63b8ff" stroke="#63b8ff" points="349.32,-148.78 359.52,-145.91 349.75,-141.79 349.32,-148.78"/>
</a>
</g>
</g>
<!-- Node4 -->
<g id="Node000004" class="node">
<title>Node4</title>
<g id="a_Node000004"><a xlink:href="candev__linux_8h.html" target="_top" xlink:title="Implementation of simulated CAN controller driver using SocketCAN on Linux.">
<polygon fill="white" stroke="#666666" points="285.62,-103 180.38,-103 180.38,-69.5 285.62,-69.5 285.62,-103"/>
<text text-anchor="start" x="188.38" y="-89.5" font-family="Helvetica,sans-Serif" font-size="10.00">cpu/native/include</text>
<text text-anchor="middle" x="233" y="-76.75" font-family="Helvetica,sans-Serif" font-size="10.00">/candev_linux.h</text>
</a>
</g>
</g>
<!-- Node1&#45;&gt;Node4 -->
<g id="edge3_Node000001_Node000004" class="edge">
<title>Node1&#45;&gt;Node4</title>
<g id="a_edge3_Node000001_Node000004"><a xlink:title=" ">
<path fill="none" stroke="#63b8ff" d="M386.63,-135.16C356.84,-125.87 316.8,-113.38 285.06,-103.48"/>
<polygon fill="#63b8ff" stroke="#63b8ff" points="385.48,-138.47 396.06,-138.1 387.56,-131.79 385.48,-138.47"/>
</a>
</g>
</g>
<!-- Node5 -->
<g id="Node000005" class="node">
<title>Node5</title>
<g id="a_Node000005"><a xlink:href="samd5x_2include_2can__params_8h.html" target="_top" xlink:title="CPU specific definitions for CAN controllers.">
<polygon fill="white" stroke="#666666" points="416.75,-103 303.25,-103 303.25,-69.5 416.75,-69.5 416.75,-103"/>
<text text-anchor="start" x="311.25" y="-89.5" font-family="Helvetica,sans-Serif" font-size="10.00">cpu/samd5x/include</text>
<text text-anchor="middle" x="360" y="-76.75" font-family="Helvetica,sans-Serif" font-size="10.00">/can_params.h</text>
</a>
</g>
</g>
<!-- Node1&#45;&gt;Node5 -->
<g id="edge5_Node000001_Node000005" class="edge">
<title>Node1&#45;&gt;Node5</title>
<g id="a_edge5_Node000001_Node000005"><a xlink:title=" ">
<path fill="none" stroke="#63b8ff" d="M409.3,-130.93C399.56,-122.3 387.88,-111.94 378.33,-103.48"/>
<polygon fill="#63b8ff" stroke="#63b8ff" points="406.97,-133.54 416.78,-137.55 411.62,-128.3 406.97,-133.54"/>
</a>
</g>
</g>
<!-- Node6 -->
<g id="Node000006" class="node">
<title>Node6</title>
<g id="a_Node000006"><a xlink:href="stm32_2include_2can__params_8h.html" target="_top" xlink:title="STM32 CAN controller driver (bxCAN) default parameters.">
<polygon fill="white" stroke="#666666" points="560.75,-103 435.25,-103 435.25,-69.5 560.75,-69.5 560.75,-103"/>
<text text-anchor="start" x="443.25" y="-89.5" font-family="Helvetica,sans-Serif" font-size="10.00">cpu/stm32/include/can</text>
<text text-anchor="middle" x="498" y="-76.75" font-family="Helvetica,sans-Serif" font-size="10.00">_params.h</text>
</a>
</g>
</g>
<!-- Node1&#45;&gt;Node6 -->
<g id="edge6_Node000001_Node000006" class="edge">
<title>Node1&#45;&gt;Node6</title>
<g id="a_edge6_Node000001_Node000006"><a xlink:title=" ">
<path fill="none" stroke="#63b8ff" d="M448.7,-130.93C458.44,-122.3 470.12,-111.94 479.67,-103.48"/>
<polygon fill="#63b8ff" stroke="#63b8ff" points="446.38,-128.3 441.22,-137.55 451.03,-133.54 446.38,-128.3"/>
</a>
</g>
</g>
<!-- Node7 -->
<g id="Node000007" class="node">
<title>Node7</title>
<g id="a_Node000007"><a xlink:href="mcp2515__params_8h.html" target="_top" xlink:title="Parameters for the CAN driver implementation.">
<polygon fill="white" stroke="#666666" points="715,-103 579,-103 579,-69.5 715,-69.5 715,-103"/>
<text text-anchor="start" x="587" y="-89.5" font-family="Helvetica,sans-Serif" font-size="10.00">drivers/mcp2515/include</text>
<text text-anchor="middle" x="647" y="-76.75" font-family="Helvetica,sans-Serif" font-size="10.00">/mcp2515_params.h</text>
</a>
</g>
</g>
<!-- Node1&#45;&gt;Node7 -->
<g id="edge7_Node000001_Node000007" class="edge">
<title>Node1&#45;&gt;Node7</title>
<g id="a_edge7_Node000001_Node000007"><a xlink:title=" ">
<path fill="none" stroke="#63b8ff" d="M474.82,-135.53C508.08,-126.2 553.33,-113.51 589.1,-103.48"/>
<polygon fill="#63b8ff" stroke="#63b8ff" points="474.17,-132.08 465.48,-138.15 476.06,-138.82 474.17,-132.08"/>
</a>
</g>
</g>
<!-- Node8 -->
<g id="Node000008" class="node">
<title>Node8</title>
<g id="a_Node000008"><a xlink:href="dll_8h.html" target="_top" xlink:title="Definitions of low&#45;level CAN DLL interface.">
<polygon fill="white" stroke="#666666" points="848.5,-96.62 733.5,-96.62 733.5,-75.88 848.5,-75.88 848.5,-96.62"/>
<text text-anchor="middle" x="791" y="-83.12" font-family="Helvetica,sans-Serif" font-size="10.00">sys/include/can/dll.h</text>
</a>
</g>
</g>
<!-- Node1&#45;&gt;Node8 -->
<g id="edge8_Node000001_Node000008" class="edge">
<title>Node1&#45;&gt;Node8</title>
<g id="a_edge8_Node000001_Node000008"><a xlink:title=" ">
<path fill="none" stroke="#63b8ff" d="M508.13,-137.92C567.7,-129.63 651.24,-117.12 724,-103 732.91,-101.27 742.44,-99.18 751.43,-97.09"/>
<polygon fill="#63b8ff" stroke="#63b8ff" points="507.85,-134.42 498.42,-139.26 508.81,-141.36 507.85,-134.42"/>
</a>
</g>
</g>
<!-- Node9 -->
<g id="Node000009" class="node">
<title>Node9</title>
<g id="a_Node000009"><a xlink:href="can_2raw_8h.html" target="_top" xlink:title="Definitions high&#45;level RAW CAN interface.">
<polygon fill="white" stroke="#666666" points="987.12,-96.62 866.88,-96.62 866.88,-75.88 987.12,-75.88 987.12,-96.62"/>
<text text-anchor="middle" x="927" y="-83.12" font-family="Helvetica,sans-Serif" font-size="10.00">sys/include/can/raw.h</text>
</a>
</g>
</g>
<!-- Node1&#45;&gt;Node9 -->
<g id="edge9_Node000001_Node000009" class="edge">
<title>Node1&#45;&gt;Node9</title>
<g id="a_edge9_Node000001_Node000009"><a xlink:title=" ">
<path fill="none" stroke="#63b8ff" d="M508.24,-142.83C594.63,-136.13 736.74,-123.18 858,-103 867.7,-101.39 878.07,-99.24 887.75,-97.06"/>
<polygon fill="#63b8ff" stroke="#63b8ff" points="508.16,-139.33 498.46,-143.58 508.7,-146.31 508.16,-139.33"/>
</a>
</g>
</g>
<!-- Node4&#45;&gt;Node3 -->
<g id="edge4_Node000004_Node000003" class="edge">
<title>Node4&#45;&gt;Node3</title>
<g id="a_edge4_Node000004_Node000003"><a xlink:title=" ">
<path fill="none" stroke="#63b8ff" d="M217.76,-59.53C212.59,-50.82 206.98,-41.35 202.41,-33.63"/>
<polygon fill="#63b8ff" stroke="#63b8ff" points="214.64,-61.13 222.75,-67.95 220.66,-57.56 214.64,-61.13"/>
</a>
</g>
</g>
<!-- Node10 -->
<g id="Node000010" class="node">
<title>Node10</title>
<g id="a_Node000010"><a xlink:href="can_2conn_2raw_8h.html" target="_top" xlink:title="Definitions of generic CAN interface.">
<polygon fill="white" stroke="#666666" points="985.62,-33.5 868.38,-33.5 868.38,0 985.62,0 985.62,-33.5"/>
<text text-anchor="start" x="876.38" y="-20" font-family="Helvetica,sans-Serif" font-size="10.00">sys/include/can/conn</text>
<text text-anchor="middle" x="927" y="-7.25" font-family="Helvetica,sans-Serif" font-size="10.00">/raw.h</text>
</a>
</g>
</g>
<!-- Node9&#45;&gt;Node10 -->
<g id="edge10_Node000009_Node000010" class="edge">
<title>Node9&#45;&gt;Node10</title>
<g id="a_edge10_Node000009_Node000010"><a xlink:title=" ">
<path fill="none" stroke="#63b8ff" d="M927,-64.38C927,-54.57 927,-43.05 927,-33.92"/>
<polygon fill="#63b8ff" stroke="#63b8ff" points="923.5,-64.07 927,-74.07 930.5,-64.07 923.5,-64.07"/>
</a>
</g>
</g>
</g>
</svg>
