<?xml version="1.0" encoding="UTF-8" standalone="no"?>
<!DOCTYPE svg PUBLIC "-//W3C//DTD SVG 1.1//EN"
 "http://www.w3.org/Graphics/SVG/1.1/DTD/svg11.dtd">
<!-- Generated by graphviz version 12.1.1 (0)
 -->
<!-- Title: pkg/lwip/include/arch/sys_arch.h Pages: 1 -->
<svg width="1093pt" height="666pt"
 viewBox="0.00 0.00 1093.13 665.75" xmlns="http://www.w3.org/2000/svg" xmlns:xlink="http://www.w3.org/1999/xlink">
<g id="graph0" class="graph" transform="scale(1 1) rotate(0) translate(4 661.75)">
<title>pkg/lwip/include/arch/sys_arch.h</title>
<!-- Node1 -->
<g id="Node000001" class="node">
<title>Node1</title>
<g id="a_Node000001"><a xlink:title="OS abstraction layer.">
<polygon fill="#999999" stroke="#666666" points="483.88,-657.75 364.38,-657.75 364.38,-624.25 483.88,-624.25 483.88,-657.75"/>
<text text-anchor="start" x="372.38" y="-644.25" font-family="Helvetica,sans-Serif" font-size="10.00">pkg/lwip/include/arch</text>
<text text-anchor="middle" x="424.13" y="-631.5" font-family="Helvetica,sans-Serif" font-size="10.00">/sys_arch.h</text>
</a>
</g>
</g>
<!-- Node2 -->
<g id="Node000002" class="node">
<title>Node2</title>
<g id="a_Node000002"><a xlink:title=" ">
<polygon fill="#e0e0e0" stroke="#999999" points="72.63,-134.25 11.63,-134.25 11.63,-113.5 72.63,-113.5 72.63,-134.25"/>
<text text-anchor="middle" x="42.13" y="-120.75" font-family="Helvetica,sans-Serif" font-size="10.00">stdbool.h</text>
</a>
</g>
</g>
<!-- Node1&#45;&gt;Node2 -->
<g id="edge1_Node000001_Node000002" class="edge">
<title>Node1&#45;&gt;Node2</title>
<g id="a_edge1_Node000001_Node000002"><a xlink:title=" ">
<path fill="none" stroke="#63b8ff" d="M363.91,-633.08C301.12,-624.86 207.92,-609.54 179.13,-588.25 63.25,-502.55 66.65,-441.58 22.13,-304.5 3.69,-247.74 3.22,-227.77 19.13,-170.25 21.59,-161.34 25.89,-152.13 30.1,-144.36"/>
<polygon fill="#63b8ff" stroke="#63b8ff" points="33.07,-146.22 35.05,-135.81 27.01,-142.71 33.07,-146.22"/>
</a>
</g>
</g>
<!-- Node3 -->
<g id="Node000003" class="node">
<title>Node3</title>
<g id="a_Node000003"><a xlink:title=" ">
<polygon fill="#e0e0e0" stroke="#999999" points="921.5,-20.75 868.75,-20.75 868.75,0 921.5,0 921.5,-20.75"/>
<text text-anchor="middle" x="895.13" y="-7.25" font-family="Helvetica,sans-Serif" font-size="10.00">stdint.h</text>
</a>
</g>
</g>
<!-- Node1&#45;&gt;Node3 -->
<g id="edge2_Node000001_Node000003" class="edge">
<title>Node1&#45;&gt;Node3</title>
<g id="a_edge2_Node000001_Node000003"><a xlink:title=" ">
<path fill="none" stroke="#63b8ff" d="M484.25,-635.58C647.19,-622.82 1085.13,-582.85 1085.13,-522.12 1085.13,-522.12 1085.13,-522.12 1085.13,-122.88 1085.13,-53.07 988.55,-26.12 933.1,-16.41"/>
<polygon fill="#63b8ff" stroke="#63b8ff" points="933.87,-12.99 923.44,-14.83 932.75,-19.89 933.87,-12.99"/>
</a>
</g>
</g>
<!-- Node4 -->
<g id="Node000004" class="node">
<title>Node4</title>
<g id="a_Node000004"><a xlink:href="cib_8h.html" target="_top" xlink:title="Circular integer buffer interface.">
<polygon fill="white" stroke="#666666" points="82.75,-304.5 43.5,-304.5 43.5,-283.75 82.75,-283.75 82.75,-304.5"/>
<text text-anchor="middle" x="63.13" y="-291" font-family="Helvetica,sans-Serif" font-size="10.00">cib.h</text>
</a>
</g>
</g>
<!-- Node1&#45;&gt;Node4 -->
<g id="edge3_Node000001_Node000004" class="edge">
<title>Node1&#45;&gt;Node4</title>
<g id="a_edge3_Node000001_Node000004"><a xlink:title=" ">
<path fill="none" stroke="#63b8ff" d="M363.94,-638.29C276.46,-634.63 119.92,-623.24 77.13,-588.25 52.92,-568.46 53.13,-553.39 53.13,-522.12 53.13,-522.12 53.13,-522.12 53.13,-406.62 53.13,-374.96 57.18,-338.44 60.12,-316.07"/>
<polygon fill="#63b8ff" stroke="#63b8ff" points="63.55,-316.83 61.45,-306.44 56.62,-315.87 63.55,-316.83"/>
</a>
</g>
</g>
<!-- Node6 -->
<g id="Node000006" class="node">
<title>Node6</title>
<g id="a_Node000006"><a xlink:href="sched_8h.html" target="_top" xlink:title="Scheduler API definition.">
<polygon fill="white" stroke="#666666" points="570.88,-247.75 517.38,-247.75 517.38,-227 570.88,-227 570.88,-247.75"/>
<text text-anchor="middle" x="544.13" y="-234.25" font-family="Helvetica,sans-Serif" font-size="10.00">sched.h</text>
</a>
</g>
</g>
<!-- Node1&#45;&gt;Node6 -->
<g id="edge6_Node000001_Node000006" class="edge">
<title>Node1&#45;&gt;Node6</title>
<g id="a_edge6_Node000001_Node000006"><a xlink:title=" ">
<path fill="none" stroke="#63b8ff" d="M454.07,-623.9C508.42,-592.69 621.52,-518.15 663.13,-418 690.5,-352.12 611.05,-284.71 568.74,-254.61"/>
<polygon fill="#63b8ff" stroke="#63b8ff" points="570.81,-251.79 560.6,-248.97 566.83,-257.54 570.81,-251.79"/>
</a>
</g>
</g>
<!-- Node17 -->
<g id="Node000017" class="node">
<title>Node17</title>
<g id="a_Node000017"><a xlink:href="mbox_8h.html" target="_top" xlink:title="Mailbox API.">
<polygon fill="white" stroke="#666666" points="184.5,-361.25 131.75,-361.25 131.75,-340.5 184.5,-340.5 184.5,-361.25"/>
<text text-anchor="middle" x="158.13" y="-347.75" font-family="Helvetica,sans-Serif" font-size="10.00">mbox.h</text>
</a>
</g>
</g>
<!-- Node1&#45;&gt;Node17 -->
<g id="edge24_Node000001_Node000017" class="edge">
<title>Node1&#45;&gt;Node17</title>
<g id="a_edge24_Node000001_Node000017"><a xlink:title=" ">
<path fill="none" stroke="#63b8ff" d="M363.89,-639.53C315.89,-636.19 249.44,-624.56 204.13,-588.25 178.65,-567.83 172.13,-554.77 172.13,-522.12 172.13,-522.12 172.13,-522.12 172.13,-463.38 172.13,-431.59 166.46,-395.1 162.33,-372.77"/>
<polygon fill="#63b8ff" stroke="#63b8ff" points="165.81,-372.31 160.48,-363.15 158.94,-373.64 165.81,-372.31"/>
</a>
</g>
</g>
<!-- Node19 -->
<g id="Node000019" class="node">
<title>Node19</title>
<g id="a_Node000019"><a xlink:href="mutex_8h.html" target="_top" xlink:title="Mutex for thread synchronization.">
<polygon fill="white" stroke="#666666" points="654.38,-418 597.88,-418 597.88,-397.25 654.38,-397.25 654.38,-418"/>
<text text-anchor="middle" x="626.13" y="-404.5" font-family="Helvetica,sans-Serif" font-size="10.00">mutex.h</text>
</a>
</g>
</g>
<!-- Node1&#45;&gt;Node19 -->
<g id="edge31_Node000001_Node000019" class="edge">
<title>Node1&#45;&gt;Node19</title>
<g id="a_edge31_Node000001_Node000019"><a xlink:title=" ">
<path fill="none" stroke="#63b8ff" d="M438.01,-624.1C474.38,-582.43 572.27,-470.32 610.51,-426.51"/>
<polygon fill="#63b8ff" stroke="#63b8ff" points="612.99,-429 616.93,-419.16 607.71,-424.4 612.99,-429"/>
</a>
</g>
</g>
<!-- Node27 -->
<g id="Node000027" class="node">
<title>Node27</title>
<g id="a_Node000027"><a xlink:href="random_8h.html" target="_top" xlink:title="Common interface to the software PRNG.">
<polygon fill="white" stroke="#666666" points="236.38,-247.75 173.88,-247.75 173.88,-227 236.38,-227 236.38,-247.75"/>
<text text-anchor="middle" x="205.13" y="-234.25" font-family="Helvetica,sans-Serif" font-size="10.00">random.h</text>
</a>
</g>
</g>
<!-- Node1&#45;&gt;Node27 -->
<g id="edge51_Node000001_Node000027" class="edge">
<title>Node1&#45;&gt;Node27</title>
<g id="a_edge51_Node000001_Node000027"><a xlink:title=" ">
<path fill="none" stroke="#63b8ff" d="M363.99,-631.57C303.19,-619.25 218.13,-589.91 218.13,-522.12 218.13,-522.12 218.13,-522.12 218.13,-349.88 218.13,-318.12 212.86,-281.62 209.03,-259.28"/>
<polygon fill="#63b8ff" stroke="#63b8ff" points="212.52,-258.89 207.31,-249.66 205.63,-260.12 212.52,-258.89"/>
</a>
</g>
</g>
<!-- Node28 -->
<g id="Node000028" class="node">
<title>Node28</title>
<g id="a_Node000028"><a xlink:href="sema_8h.html" target="_top" xlink:title="Semaphore definitions.">
<polygon fill="white" stroke="#666666" points="791.13,-588.25 739.13,-588.25 739.13,-567.5 791.13,-567.5 791.13,-588.25"/>
<text text-anchor="middle" x="765.13" y="-574.75" font-family="Helvetica,sans-Serif" font-size="10.00">sema.h</text>
</a>
</g>
</g>
<!-- Node1&#45;&gt;Node28 -->
<g id="edge54_Node000001_Node000028" class="edge">
<title>Node1&#45;&gt;Node28</title>
<g id="a_edge54_Node000001_Node000028"><a xlink:title=" ">
<path fill="none" stroke="#63b8ff" d="M484.31,-629.21C554.6,-616.61 668.75,-596.15 727.52,-585.62"/>
<polygon fill="#63b8ff" stroke="#63b8ff" points="728.13,-589.06 737.36,-583.85 726.9,-582.17 728.13,-589.06"/>
</a>
</g>
</g>
<!-- Node5 -->
<g id="Node000005" class="node">
<title>Node5</title>
<g id="a_Node000005"><a xlink:href="assert_8h.html" target="_top" xlink:title="POSIX.1&#45;2008 compliant version of the assert macro.">
<polygon fill="white" stroke="#666666" points="72.63,-77.5 17.63,-77.5 17.63,-56.75 72.63,-56.75 72.63,-77.5"/>
<text text-anchor="middle" x="45.13" y="-64" font-family="Helvetica,sans-Serif" font-size="10.00">assert.h</text>
</a>
</g>
</g>
<!-- Node4&#45;&gt;Node5 -->
<g id="edge4_Node000004_Node000005" class="edge">
<title>Node4&#45;&gt;Node5</title>
<g id="a_edge4_Node000004_Node000005"><a xlink:title=" ">
<path fill="none" stroke="#63b8ff" d="M57.96,-283.46C45.33,-259.21 13.11,-193.51 2.13,-134.25 0.45,-125.18 -1.29,-122.07 2.13,-113.5 6.44,-102.69 14.68,-92.98 22.8,-85.34"/>
<polygon fill="#63b8ff" stroke="#63b8ff" points="24.97,-88.09 30.24,-78.9 20.39,-82.8 24.97,-88.09"/>
</a>
</g>
</g>
<!-- Node5&#45;&gt;Node3 -->
<g id="edge5_Node000005_Node000003" class="edge">
<title>Node5&#45;&gt;Node3</title>
<g id="a_edge5_Node000005_Node000003"><a xlink:title=" ">
<path fill="none" stroke="#63b8ff" d="M73.03,-59.23C77.71,-58.26 82.54,-57.39 87.13,-56.75 381.48,-15.91 741.01,-11.58 857.08,-11.31"/>
<polygon fill="#63b8ff" stroke="#63b8ff" points="856.96,-14.81 866.96,-11.3 856.95,-7.81 856.96,-14.81"/>
</a>
</g>
</g>
<!-- Node7 -->
<g id="Node000007" class="node">
<title>Node7</title>
<g id="a_Node000007"><a xlink:title=" ">
<polygon fill="#e0e0e0" stroke="#999999" points="331.63,-77.5 276.63,-77.5 276.63,-56.75 331.63,-56.75 331.63,-77.5"/>
<text text-anchor="middle" x="304.13" y="-64" font-family="Helvetica,sans-Serif" font-size="10.00">stddef.h</text>
</a>
</g>
</g>
<!-- Node6&#45;&gt;Node7 -->
<g id="edge7_Node000006_Node000007" class="edge">
<title>Node6&#45;&gt;Node7</title>
<g id="a_edge7_Node000006_Node000007"><a xlink:title=" ">
<path fill="none" stroke="#63b8ff" d="M543.8,-226.67C542.83,-212.63 539.12,-186.57 525.13,-170.25 477.37,-114.56 392.77,-87.44 343.24,-75.75"/>
<polygon fill="#63b8ff" stroke="#63b8ff" points="344.05,-72.34 333.52,-73.56 342.51,-79.17 344.05,-72.34"/>
</a>
</g>
</g>
<!-- Node8 -->
<g id="Node000008" class="node">
<title>Node8</title>
<g id="a_Node000008"><a xlink:href="inttypes_8h.html" target="_top" xlink:title="Adds include for missing inttype definitions.">
<polygon fill="white" stroke="#666666" points="516.5,-191 451.75,-191 451.75,-170.25 516.5,-170.25 516.5,-191"/>
<text text-anchor="middle" x="484.13" y="-177.5" font-family="Helvetica,sans-Serif" font-size="10.00">inttypes.h</text>
</a>
</g>
</g>
<!-- Node6&#45;&gt;Node8 -->
<g id="edge8_Node000006_Node000008" class="edge">
<title>Node6&#45;&gt;Node8</title>
<g id="a_edge8_Node000006_Node000008"><a xlink:title=" ">
<path fill="none" stroke="#63b8ff" d="M533.4,-226.59C525.04,-218.96 513.21,-208.17 503.24,-199.07"/>
<polygon fill="#63b8ff" stroke="#63b8ff" points="505.63,-196.5 495.88,-192.35 500.91,-201.67 505.63,-196.5"/>
</a>
</g>
</g>
<!-- Node9 -->
<g id="Node000009" class="node">
<title>Node9</title>
<g id="a_Node000009"><a xlink:href="kernel__defines_8h.html" target="_top" xlink:title="Common macros and compiler attributes/pragmas configuration.">
<polygon fill="white" stroke="#666666" points="668.25,-191 572,-191 572,-170.25 668.25,-170.25 668.25,-191"/>
<text text-anchor="middle" x="620.13" y="-177.5" font-family="Helvetica,sans-Serif" font-size="10.00">kernel_defines.h</text>
</a>
</g>
</g>
<!-- Node6&#45;&gt;Node9 -->
<g id="edge9_Node000006_Node000009" class="edge">
<title>Node6&#45;&gt;Node9</title>
<g id="a_edge9_Node000006_Node000009"><a xlink:title=" ">
<path fill="none" stroke="#63b8ff" d="M557.71,-226.59C568.74,-218.65 584.52,-207.28 597.45,-197.96"/>
<polygon fill="#63b8ff" stroke="#63b8ff" points="599.36,-200.9 605.43,-192.21 595.27,-195.22 599.36,-200.9"/>
</a>
</g>
</g>
<!-- Node14 -->
<g id="Node000014" class="node">
<title>Node14</title>
<g id="a_Node000014"><a xlink:href="native__sched_8h.html" target="_top" xlink:title="Add definitions required on the native board.">
<polygon fill="white" stroke="#666666" points="433.88,-191 344.38,-191 344.38,-170.25 433.88,-170.25 433.88,-191"/>
<text text-anchor="middle" x="389.13" y="-177.5" font-family="Helvetica,sans-Serif" font-size="10.00">native_sched.h</text>
</a>
</g>
</g>
<!-- Node6&#45;&gt;Node14 -->
<g id="edge19_Node000006_Node000014" class="edge">
<title>Node6&#45;&gt;Node14</title>
<g id="a_edge19_Node000006_Node000014"><a xlink:title=" ">
<path fill="none" stroke="#63b8ff" d="M517.13,-226.84C492.32,-218.08 455.28,-204.99 427.42,-195.15"/>
<polygon fill="#63b8ff" stroke="#63b8ff" points="428.88,-191.96 418.29,-191.93 426.55,-198.56 428.88,-191.96"/>
</a>
</g>
</g>
<!-- Node15 -->
<g id="Node000015" class="node">
<title>Node15</title>
<g id="a_Node000015"><a xlink:href="clist_8h.html" target="_top" xlink:title="Circular linked list.">
<polygon fill="white" stroke="#666666" points="326.75,-191 281.5,-191 281.5,-170.25 326.75,-170.25 326.75,-191"/>
<text text-anchor="middle" x="304.13" y="-177.5" font-family="Helvetica,sans-Serif" font-size="10.00">clist.h</text>
</a>
</g>
</g>
<!-- Node6&#45;&gt;Node15 -->
<g id="edge20_Node000006_Node000015" class="edge">
<title>Node6&#45;&gt;Node15</title>
<g id="a_edge20_Node000006_Node000015"><a xlink:title=" ">
<path fill="none" stroke="#63b8ff" d="M516.91,-231.19C478.9,-223.79 407.55,-209.34 338.2,-191.66"/>
<polygon fill="#63b8ff" stroke="#63b8ff" points="339.12,-188.28 328.56,-189.17 337.37,-195.06 339.12,-188.28"/>
</a>
</g>
</g>
<!-- Node10 -->
<g id="Node000010" class="node">
<title>Node10</title>
<g id="a_Node000010"><a xlink:href="modules_8h.html" target="_top" xlink:title="Common macros and compiler attributes/pragmas configuration.">
<polygon fill="white" stroke="#666666" points="866.63,-134.25 799.63,-134.25 799.63,-113.5 866.63,-113.5 866.63,-134.25"/>
<text text-anchor="middle" x="833.13" y="-120.75" font-family="Helvetica,sans-Serif" font-size="10.00">modules.h</text>
</a>
</g>
</g>
<!-- Node9&#45;&gt;Node10 -->
<g id="edge10_Node000009_Node000010" class="edge">
<title>Node9&#45;&gt;Node10</title>
<g id="a_edge10_Node000009_Node000010"><a xlink:title=" ">
<path fill="none" stroke="#63b8ff" d="M658.21,-169.84C694.69,-160.46 749.76,-146.31 788.33,-136.39"/>
<polygon fill="#63b8ff" stroke="#63b8ff" points="788.96,-139.84 797.77,-133.96 787.22,-133.06 788.96,-139.84"/>
</a>
</g>
</g>
<!-- Node11 -->
<g id="Node000011" class="node">
<title>Node11</title>
<g id="a_Node000011"><a xlink:href="riot__version_8h.html" target="_top" xlink:title="Common macros and compiler attributes/pragmas configuration.">
<polygon fill="white" stroke="#666666" points="855.5,-77.5 772.75,-77.5 772.75,-56.75 855.5,-56.75 855.5,-77.5"/>
<text text-anchor="middle" x="814.13" y="-64" font-family="Helvetica,sans-Serif" font-size="10.00">riot_version.h</text>
</a>
</g>
</g>
<!-- Node9&#45;&gt;Node11 -->
<g id="edge11_Node000009_Node000011" class="edge">
<title>Node9&#45;&gt;Node11</title>
<g id="a_edge11_Node000009_Node000011"><a xlink:title=" ">
<path fill="none" stroke="#63b8ff" d="M665.67,-169.83C692.31,-162.71 725.78,-151.3 752.13,-134.25 771.66,-121.61 789.32,-101.51 800.75,-86.78"/>
<polygon fill="#63b8ff" stroke="#63b8ff" points="803.52,-88.92 806.7,-78.82 797.91,-84.73 803.52,-88.92"/>
</a>
</g>
</g>
<!-- Node12 -->
<g id="Node000012" class="node">
<title>Node12</title>
<g id="a_Node000012"><a xlink:href="compiler__hints_8h.html" target="_top" xlink:title="Common macros and compiler attributes/pragmas configuration.">
<polygon fill="white" stroke="#666666" points="654.63,-134.25 557.63,-134.25 557.63,-113.5 654.63,-113.5 654.63,-134.25"/>
<text text-anchor="middle" x="606.13" y="-120.75" font-family="Helvetica,sans-Serif" font-size="10.00">compiler_hints.h</text>
</a>
</g>
</g>
<!-- Node9&#45;&gt;Node12 -->
<g id="edge13_Node000009_Node000012" class="edge">
<title>Node9&#45;&gt;Node12</title>
<g id="a_edge13_Node000009_Node000012"><a xlink:title=" ">
<path fill="none" stroke="#63b8ff" d="M617.62,-169.84C615.91,-163.14 613.58,-154.01 611.46,-145.73"/>
<polygon fill="#63b8ff" stroke="#63b8ff" points="614.85,-144.87 608.98,-136.04 608.07,-146.6 614.85,-144.87"/>
</a>
</g>
</g>
<!-- Node13 -->
<g id="Node000013" class="node">
<title>Node13</title>
<g id="a_Node000013"><a xlink:href="container_8h.html" target="_top" xlink:title="Common macros and compiler attributes/pragmas configuration.">
<polygon fill="white" stroke="#666666" points="743.5,-134.25 672.75,-134.25 672.75,-113.5 743.5,-113.5 743.5,-134.25"/>
<text text-anchor="middle" x="708.13" y="-120.75" font-family="Helvetica,sans-Serif" font-size="10.00">container.h</text>
</a>
</g>
</g>
<!-- Node9&#45;&gt;Node13 -->
<g id="edge16_Node000009_Node000013" class="edge">
<title>Node9&#45;&gt;Node13</title>
<g id="a_edge16_Node000009_Node000013"><a xlink:title=" ">
<path fill="none" stroke="#63b8ff" d="M635.86,-169.84C649,-161.66 667.97,-149.86 683.18,-140.4"/>
<polygon fill="#63b8ff" stroke="#63b8ff" points="684.6,-143.63 691.25,-135.38 680.91,-137.69 684.6,-143.63"/>
</a>
</g>
</g>
<!-- Node11&#45;&gt;Node3 -->
<g id="edge12_Node000011_Node000003" class="edge">
<title>Node11&#45;&gt;Node3</title>
<g id="a_edge12_Node000011_Node000003"><a xlink:title=" ">
<path fill="none" stroke="#63b8ff" d="M828.61,-56.34C840.47,-48.32 857.5,-36.81 871.36,-27.44"/>
<polygon fill="#63b8ff" stroke="#63b8ff" points="873.19,-30.43 879.52,-21.93 869.27,-24.63 873.19,-30.43"/>
</a>
</g>
</g>
<!-- Node12&#45;&gt;Node3 -->
<g id="edge15_Node000012_Node000003" class="edge">
<title>Node12&#45;&gt;Node3</title>
<g id="a_edge15_Node000012_Node000003"><a xlink:title=" ">
<path fill="none" stroke="#63b8ff" d="M623.03,-113.04C647.54,-99.09 694.67,-73.39 737.13,-56.75 777.3,-41.01 825.12,-28.03 857.55,-20.05"/>
<polygon fill="#63b8ff" stroke="#63b8ff" points="857.98,-23.55 866.87,-17.79 856.33,-16.74 857.98,-23.55"/>
</a>
</g>
</g>
<!-- Node12&#45;&gt;Node5 -->
<g id="edge14_Node000012_Node000005" class="edge">
<title>Node12&#45;&gt;Node5</title>
<g id="a_edge14_Node000012_Node000005"><a xlink:title=" ">
<path fill="none" stroke="#63b8ff" d="M557.32,-118.11C447.81,-107.42 184.3,-81.71 84.41,-71.96"/>
<polygon fill="#63b8ff" stroke="#63b8ff" points="84.86,-68.49 74.57,-71 84.18,-75.45 84.86,-68.49"/>
</a>
</g>
</g>
<!-- Node13&#45;&gt;Node3 -->
<g id="edge18_Node000013_Node000003" class="edge">
<title>Node13&#45;&gt;Node3</title>
<g id="a_edge18_Node000013_Node000003"><a xlink:title=" ">
<path fill="none" stroke="#63b8ff" d="M713.8,-113.37C722.77,-99.12 741.54,-72.23 764.13,-56.75 792.36,-37.4 829.64,-25.55 857.21,-18.83"/>
<polygon fill="#63b8ff" stroke="#63b8ff" points="857.94,-22.26 866.9,-16.6 856.37,-15.44 857.94,-22.26"/>
</a>
</g>
</g>
<!-- Node13&#45;&gt;Node7 -->
<g id="edge17_Node000013_Node000007" class="edge">
<title>Node13&#45;&gt;Node7</title>
<g id="a_edge17_Node000013_Node000007"><a xlink:title=" ">
<path fill="none" stroke="#63b8ff" d="M672.64,-115.04C669.76,-114.49 666.9,-113.97 664.13,-113.5 547.82,-93.82 409.05,-78.65 342.9,-71.93"/>
<polygon fill="#63b8ff" stroke="#63b8ff" points="343.6,-68.48 333.3,-70.96 342.9,-75.44 343.6,-68.48"/>
</a>
</g>
</g>
<!-- Node15&#45;&gt;Node2 -->
<g id="edge21_Node000015_Node000002" class="edge">
<title>Node15&#45;&gt;Node2</title>
<g id="a_edge21_Node000015_Node000002"><a xlink:title=" ">
<path fill="none" stroke="#63b8ff" d="M281.33,-174.86C237.31,-165.66 139.98,-145.32 83.99,-133.62"/>
<polygon fill="#63b8ff" stroke="#63b8ff" points="85.02,-130.26 74.52,-131.64 83.59,-137.11 85.02,-130.26"/>
</a>
</g>
</g>
<!-- Node15&#45;&gt;Node7 -->
<g id="edge22_Node000015_Node000007" class="edge">
<title>Node15&#45;&gt;Node7</title>
<g id="a_edge22_Node000015_Node000007"><a xlink:title=" ">
<path fill="none" stroke="#63b8ff" d="M304.13,-170.12C304.13,-152.35 304.13,-113.72 304.13,-89.43"/>
<polygon fill="#63b8ff" stroke="#63b8ff" points="307.63,-89.44 304.13,-79.44 300.63,-89.44 307.63,-89.44"/>
</a>
</g>
</g>
<!-- Node16 -->
<g id="Node000016" class="node">
<title>Node16</title>
<g id="a_Node000016"><a xlink:href="list_8h.html" target="_top" xlink:title="Intrusive linked list.">
<polygon fill="white" stroke="#666666" points="273.13,-134.25 233.13,-134.25 233.13,-113.5 273.13,-113.5 273.13,-134.25"/>
<text text-anchor="middle" x="253.13" y="-120.75" font-family="Helvetica,sans-Serif" font-size="10.00">list.h</text>
</a>
</g>
</g>
<!-- Node15&#45;&gt;Node16 -->
<g id="edge23_Node000015_Node000016" class="edge">
<title>Node15&#45;&gt;Node16</title>
<g id="a_edge23_Node000015_Node000016"><a xlink:title=" ">
<path fill="none" stroke="#63b8ff" d="M295.01,-169.84C288.05,-162.36 278.26,-151.86 269.9,-142.88"/>
<polygon fill="#63b8ff" stroke="#63b8ff" points="272.58,-140.62 263.2,-135.69 267.45,-145.39 272.58,-140.62"/>
</a>
</g>
</g>
<!-- Node17&#45;&gt;Node4 -->
<g id="edge26_Node000017_Node000004" class="edge">
<title>Node17&#45;&gt;Node4</title>
<g id="a_edge26_Node000017_Node000004"><a xlink:title=" ">
<path fill="none" stroke="#63b8ff" d="M141.14,-340.09C126.82,-331.83 106.09,-319.88 89.59,-310.38"/>
<polygon fill="#63b8ff" stroke="#63b8ff" points="91.69,-307.55 81.28,-305.58 88.19,-313.61 91.69,-307.55"/>
</a>
</g>
</g>
<!-- Node17&#45;&gt;Node16 -->
<g id="edge25_Node000017_Node000016" class="edge">
<title>Node17&#45;&gt;Node16</title>
<g id="a_edge25_Node000017_Node000016"><a xlink:title=" ">
<path fill="none" stroke="#63b8ff" d="M149.92,-340.2C143.12,-331.49 133.97,-318.04 130.13,-304.5 127.61,-295.63 127.61,-292.62 130.13,-283.75 147.38,-222.92 201.86,-168.59 232.2,-142.04"/>
<polygon fill="#63b8ff" stroke="#63b8ff" points="234.29,-144.86 239.63,-135.7 229.75,-139.54 234.29,-144.86"/>
</a>
</g>
</g>
<!-- Node18 -->
<g id="Node000018" class="node">
<title>Node18</title>
<g id="a_Node000018"><a xlink:href="core_2include_2msg_8h.html" target="_top" xlink:title="Messaging API for inter process communication.">
<polygon fill="white" stroke="#666666" points="185.13,-304.5 139.13,-304.5 139.13,-283.75 185.13,-283.75 185.13,-304.5"/>
<text text-anchor="middle" x="162.13" y="-291" font-family="Helvetica,sans-Serif" font-size="10.00">msg.h</text>
</a>
</g>
</g>
<!-- Node17&#45;&gt;Node18 -->
<g id="edge27_Node000017_Node000018" class="edge">
<title>Node17&#45;&gt;Node18</title>
<g id="a_edge27_Node000017_Node000018"><a xlink:title=" ">
<path fill="none" stroke="#63b8ff" d="M158.84,-340.09C159.33,-333.47 159.98,-324.47 160.58,-316.27"/>
<polygon fill="#63b8ff" stroke="#63b8ff" points="164.07,-316.57 161.31,-306.34 157.09,-316.06 164.07,-316.57"/>
</a>
</g>
</g>
<!-- Node18&#45;&gt;Node2 -->
<g id="edge29_Node000018_Node000002" class="edge">
<title>Node18&#45;&gt;Node2</title>
<g id="a_edge29_Node000018_Node000002"><a xlink:title=" ">
<path fill="none" stroke="#63b8ff" d="M155.33,-283.6C136.12,-256.66 81.13,-179.56 55.53,-143.67"/>
<polygon fill="#63b8ff" stroke="#63b8ff" points="58.68,-142.06 50.03,-135.95 52.98,-146.12 58.68,-142.06"/>
</a>
</g>
</g>
<!-- Node18&#45;&gt;Node3 -->
<g id="edge28_Node000018_Node000003" class="edge">
<title>Node18&#45;&gt;Node3</title>
<g id="a_edge28_Node000018_Node000003"><a xlink:title=" ">
<path fill="none" stroke="#63b8ff" d="M157.81,-283.6C145.61,-255.16 114.01,-169.35 149.13,-113.5 180.1,-64.23 210.89,-71.72 267.13,-56.75 379.46,-26.84 738.64,-15.31 856.94,-12.26"/>
<polygon fill="#63b8ff" stroke="#63b8ff" points="856.83,-15.77 866.74,-12.02 856.66,-8.77 856.83,-15.77"/>
</a>
</g>
</g>
<!-- Node18&#45;&gt;Node6 -->
<g id="edge30_Node000018_Node000006" class="edge">
<title>Node18&#45;&gt;Node6</title>
<g id="a_edge30_Node000018_Node000006"><a xlink:title=" ">
<path fill="none" stroke="#63b8ff" d="M185.45,-289.78C249.24,-280.64 427.07,-255.15 505.8,-243.87"/>
<polygon fill="#63b8ff" stroke="#63b8ff" points="506.21,-247.35 515.61,-242.46 505.21,-240.42 506.21,-247.35"/>
</a>
</g>
</g>
<!-- Node19&#45;&gt;Node2 -->
<g id="edge34_Node000019_Node000002" class="edge">
<title>Node19&#45;&gt;Node2</title>
<g id="a_edge34_Node000019_Node000002"><a xlink:title=" ">
<path fill="none" stroke="#63b8ff" d="M597.45,-405.82C504.44,-402.92 212.02,-391.58 123.13,-361.25 78.73,-346.1 56.68,-345.63 34.13,-304.5 5.93,-253.08 23.42,-180.41 34.73,-145.35"/>
<polygon fill="#63b8ff" stroke="#63b8ff" points="37.99,-146.65 37.9,-136.05 31.37,-144.39 37.99,-146.65"/>
</a>
</g>
</g>
<!-- Node19&#45;&gt;Node3 -->
<g id="edge33_Node000019_Node000003" class="edge">
<title>Node19&#45;&gt;Node3</title>
<g id="a_edge33_Node000019_Node000003"><a xlink:title=" ">
<path fill="none" stroke="#63b8ff" d="M644.53,-396.9C692.95,-370.41 825.11,-292.14 897.13,-191 932.16,-141.8 932.16,-115.49 918.13,-56.75 915.98,-47.76 911.74,-38.53 907.48,-30.77"/>
<polygon fill="#63b8ff" stroke="#63b8ff" points="910.54,-29.07 902.44,-22.25 904.52,-32.64 910.54,-29.07"/>
</a>
</g>
</g>
<!-- Node19&#45;&gt;Node7 -->
<g id="edge32_Node000019_Node000007" class="edge">
<title>Node19&#45;&gt;Node7</title>
<g id="a_edge32_Node000019_Node000007"><a xlink:title=" ">
<path fill="none" stroke="#63b8ff" d="M597.57,-404.68C535.34,-400.02 389.77,-386.65 348.13,-361.25 291.07,-326.44 232.07,-169.04 224.13,-134.25 222.08,-125.26 219.49,-121.47 224.13,-113.5 233.2,-97.92 249.84,-87.25 265.6,-80.2"/>
<polygon fill="#63b8ff" stroke="#63b8ff" points="266.91,-83.44 274.87,-76.45 264.29,-76.96 266.91,-83.44"/>
</a>
</g>
</g>
<!-- Node19&#45;&gt;Node9 -->
<g id="edge40_Node000019_Node000009" class="edge">
<title>Node19&#45;&gt;Node9</title>
<g id="a_edge40_Node000019_Node000009"><a xlink:title=" ">
<path fill="none" stroke="#63b8ff" d="M625.87,-396.96C624.97,-363.2 621.95,-250.09 620.69,-202.75"/>
<polygon fill="#63b8ff" stroke="#63b8ff" points="624.19,-202.67 620.42,-192.77 617.19,-202.86 624.19,-202.67"/>
</a>
</g>
</g>
<!-- Node19&#45;&gt;Node16 -->
<g id="edge41_Node000019_Node000016" class="edge">
<title>Node19&#45;&gt;Node16</title>
<g id="a_edge41_Node000019_Node000016"><a xlink:title=" ">
<path fill="none" stroke="#63b8ff" d="M597.8,-404.36C540.4,-399.3 412.78,-385.6 377.13,-361.25 300.36,-308.82 267.76,-193.41 257.25,-145.92"/>
<polygon fill="#63b8ff" stroke="#63b8ff" points="260.68,-145.23 255.21,-136.16 253.83,-146.66 260.68,-145.23"/>
</a>
</g>
</g>
<!-- Node20 -->
<g id="Node000020" class="node">
<title>Node20</title>
<g id="a_Node000020"><a xlink:href="architecture_8h.html" target="_top" xlink:title="Platform&#45;independent access to architecture details.">
<polygon fill="white" stroke="#666666" points="754.88,-247.75 671.38,-247.75 671.38,-227 754.88,-227 754.88,-247.75"/>
<text text-anchor="middle" x="713.13" y="-234.25" font-family="Helvetica,sans-Serif" font-size="10.00">architecture.h</text>
</a>
</g>
</g>
<!-- Node19&#45;&gt;Node20 -->
<g id="edge35_Node000019_Node000020" class="edge">
<title>Node19&#45;&gt;Node20</title>
<g id="a_edge35_Node000019_Node000020"><a xlink:title=" ">
<path fill="none" stroke="#63b8ff" d="M630.83,-397C641.04,-376.22 666.05,-325.59 688.13,-283.75 692.63,-275.22 697.75,-265.87 702.17,-257.89"/>
<polygon fill="#63b8ff" stroke="#63b8ff" points="705.11,-259.82 706.92,-249.38 698.99,-256.4 705.11,-259.82"/>
</a>
</g>
</g>
<!-- Node23 -->
<g id="Node000023" class="node">
<title>Node23</title>
<g id="a_Node000023"><a xlink:href="core_2include_2thread_8h.html" target="_top" xlink:title="Threading API.">
<polygon fill="white" stroke="#666666" points="442.38,-361.25 385.88,-361.25 385.88,-340.5 442.38,-340.5 442.38,-361.25"/>
<text text-anchor="middle" x="414.13" y="-347.75" font-family="Helvetica,sans-Serif" font-size="10.00">thread.h</text>
</a>
</g>
</g>
<!-- Node19&#45;&gt;Node23 -->
<g id="edge42_Node000019_Node000023" class="edge">
<title>Node19&#45;&gt;Node23</title>
<g id="a_edge42_Node000019_Node000023"><a xlink:title=" ">
<path fill="none" stroke="#63b8ff" d="M597.54,-399.24C560.45,-389.66 495.56,-372.91 453.74,-362.11"/>
<polygon fill="#63b8ff" stroke="#63b8ff" points="454.63,-358.72 444.07,-359.61 452.88,-365.5 454.63,-358.72"/>
</a>
</g>
</g>
<!-- Node20&#45;&gt;Node3 -->
<g id="edge36_Node000020_Node000003" class="edge">
<title>Node20&#45;&gt;Node3</title>
<g id="a_edge36_Node000020_Node000003"><a xlink:title=" ">
<path fill="none" stroke="#63b8ff" d="M755.12,-230.13C798.05,-222.84 860.57,-209.39 876.13,-191 914.54,-145.61 906.47,-68.89 899.7,-32.18"/>
<polygon fill="#63b8ff" stroke="#63b8ff" points="903.15,-31.57 897.74,-22.46 896.29,-32.95 903.15,-31.57"/>
</a>
</g>
</g>
<!-- Node20&#45;&gt;Node8 -->
<g id="edge37_Node000020_Node000008" class="edge">
<title>Node20&#45;&gt;Node8</title>
<g id="a_edge37_Node000020_Node000008"><a xlink:title=" ">
<path fill="none" stroke="#63b8ff" d="M671.92,-226.52C631.31,-216.81 569.49,-202.03 527.98,-192.11"/>
<polygon fill="#63b8ff" stroke="#63b8ff" points="528.86,-188.72 518.32,-189.8 527.24,-195.53 528.86,-188.72"/>
</a>
</g>
</g>
<!-- Node21 -->
<g id="Node000021" class="node">
<title>Node21</title>
<g id="a_Node000021"><a xlink:title=" ">
<polygon fill="#e0e0e0" stroke="#999999" points="739.5,-191 686.75,-191 686.75,-170.25 739.5,-170.25 739.5,-191"/>
<text text-anchor="middle" x="713.13" y="-177.5" font-family="Helvetica,sans-Serif" font-size="10.00">limits.h</text>
</a>
</g>
</g>
<!-- Node20&#45;&gt;Node21 -->
<g id="edge38_Node000020_Node000021" class="edge">
<title>Node20&#45;&gt;Node21</title>
<g id="a_edge38_Node000020_Node000021"><a xlink:title=" ">
<path fill="none" stroke="#63b8ff" d="M713.13,-226.59C713.13,-219.97 713.13,-210.97 713.13,-202.77"/>
<polygon fill="#63b8ff" stroke="#63b8ff" points="716.63,-202.84 713.13,-192.84 709.63,-202.84 716.63,-202.84"/>
</a>
</g>
</g>
<!-- Node22 -->
<g id="Node000022" class="node">
<title>Node22</title>
<g id="a_Node000022"><a xlink:title=" ">
<polygon fill="#e0e0e0" stroke="#999999" points="867,-191 757.25,-191 757.25,-170.25 867,-170.25 867,-191"/>
<text text-anchor="middle" x="812.13" y="-177.5" font-family="Helvetica,sans-Serif" font-size="10.00">architecture_arch.h</text>
</a>
</g>
</g>
<!-- Node20&#45;&gt;Node22 -->
<g id="edge39_Node000020_Node000022" class="edge">
<title>Node20&#45;&gt;Node22</title>
<g id="a_edge39_Node000020_Node000022"><a xlink:title=" ">
<path fill="none" stroke="#63b8ff" d="M730.83,-226.59C745.75,-218.33 767.36,-206.38 784.55,-196.88"/>
<polygon fill="#63b8ff" stroke="#63b8ff" points="786.2,-199.96 793.26,-192.06 782.81,-193.84 786.2,-199.96"/>
</a>
</g>
</g>
<!-- Node23&#45;&gt;Node4 -->
<g id="edge44_Node000023_Node000004" class="edge">
<title>Node23&#45;&gt;Node4</title>
<g id="a_edge44_Node000023_Node000004"><a xlink:title=" ">
<path fill="none" stroke="#63b8ff" d="M385.4,-345.39C320.22,-335.23 161.57,-310.48 94.2,-299.97"/>
<polygon fill="#63b8ff" stroke="#63b8ff" points="95.01,-296.56 84.59,-298.47 93.93,-303.47 95.01,-296.56"/>
</a>
</g>
</g>
<!-- Node23&#45;&gt;Node6 -->
<g id="edge46_Node000023_Node000006" class="edge">
<title>Node23&#45;&gt;Node6</title>
<g id="a_edge46_Node000023_Node000006"><a xlink:title=" ">
<path fill="none" stroke="#63b8ff" d="M442.66,-345.65C483.12,-339 553.95,-324.75 569.13,-304.5 579.77,-290.29 570.41,-271.04 560.25,-256.97"/>
<polygon fill="#63b8ff" stroke="#63b8ff" points="563.2,-255.06 554.26,-249.37 557.7,-259.39 563.2,-255.06"/>
</a>
</g>
</g>
<!-- Node23&#45;&gt;Node15 -->
<g id="edge43_Node000023_Node000015" class="edge">
<title>Node23&#45;&gt;Node15</title>
<g id="a_edge43_Node000023_Node000015"><a xlink:title=" ">
<path fill="none" stroke="#63b8ff" d="M398.95,-340.24C386.88,-331.96 370.23,-319.07 359.13,-304.5 334.79,-272.54 318.34,-228.11 310.16,-202.36"/>
<polygon fill="#63b8ff" stroke="#63b8ff" points="313.51,-201.35 307.25,-192.8 306.81,-203.39 313.51,-201.35"/>
</a>
</g>
</g>
<!-- Node23&#45;&gt;Node18 -->
<g id="edge45_Node000023_Node000018" class="edge">
<title>Node23&#45;&gt;Node18</title>
<g id="a_edge45_Node000023_Node000018"><a xlink:title=" ">
<path fill="none" stroke="#63b8ff" d="M385.71,-343.7C339.23,-333.6 247.12,-313.59 196.85,-302.67"/>
<polygon fill="#63b8ff" stroke="#63b8ff" points="197.6,-299.25 187.09,-300.55 196.12,-306.09 197.6,-299.25"/>
</a>
</g>
</g>
<!-- Node24 -->
<g id="Node000024" class="node">
<title>Node24</title>
<g id="a_Node000024"><a xlink:href="thread__config_8h.html" target="_top" xlink:title="Thread configuration defines.">
<polygon fill="white" stroke="#666666" points="460,-304.5 368.25,-304.5 368.25,-283.75 460,-283.75 460,-304.5"/>
<text text-anchor="middle" x="414.13" y="-291" font-family="Helvetica,sans-Serif" font-size="10.00">thread_config.h</text>
</a>
</g>
</g>
<!-- Node23&#45;&gt;Node24 -->
<g id="edge47_Node000023_Node000024" class="edge">
<title>Node23&#45;&gt;Node24</title>
<g id="a_edge47_Node000023_Node000024"><a xlink:title=" ">
<path fill="none" stroke="#63b8ff" d="M414.13,-340.09C414.13,-333.47 414.13,-324.47 414.13,-316.27"/>
<polygon fill="#63b8ff" stroke="#63b8ff" points="417.63,-316.34 414.13,-306.34 410.63,-316.34 417.63,-316.34"/>
</a>
</g>
</g>
<!-- Node26 -->
<g id="Node000026" class="node">
<title>Node26</title>
<g id="a_Node000026"><a xlink:title=" ">
<polygon fill="#e0e0e0" stroke="#999999" points="560.5,-304.5 477.75,-304.5 477.75,-283.75 560.5,-283.75 560.5,-304.5"/>
<text text-anchor="middle" x="519.13" y="-291" font-family="Helvetica,sans-Serif" font-size="10.00">thread_arch.h</text>
</a>
</g>
</g>
<!-- Node23&#45;&gt;Node26 -->
<g id="edge50_Node000023_Node000026" class="edge">
<title>Node23&#45;&gt;Node26</title>
<g id="a_edge50_Node000023_Node000026"><a xlink:title=" ">
<path fill="none" stroke="#63b8ff" d="M432.9,-340.09C448.88,-331.76 472.08,-319.66 490.39,-310.11"/>
<polygon fill="#63b8ff" stroke="#63b8ff" points="491.93,-313.26 499.18,-305.53 488.69,-307.05 491.93,-313.26"/>
</a>
</g>
</g>
<!-- Node24&#45;&gt;Node6 -->
<g id="edge49_Node000024_Node000006" class="edge">
<title>Node24&#45;&gt;Node6</title>
<g id="a_edge49_Node000024_Node000006"><a xlink:title=" ">
<path fill="none" stroke="#63b8ff" d="M437.37,-283.34C457.8,-274.73 487.77,-262.11 510.76,-252.43"/>
<polygon fill="#63b8ff" stroke="#63b8ff" points="511.83,-255.77 519.69,-248.67 509.12,-249.32 511.83,-255.77"/>
</a>
</g>
</g>
<!-- Node25 -->
<g id="Node000025" class="node">
<title>Node25</title>
<g id="a_Node000025"><a xlink:title=" ">
<polygon fill="#e0e0e0" stroke="#999999" points="448,-247.75 380.25,-247.75 380.25,-227 448,-227 448,-247.75"/>
<text text-anchor="middle" x="414.13" y="-234.25" font-family="Helvetica,sans-Serif" font-size="10.00">cpu_conf.h</text>
</a>
</g>
</g>
<!-- Node24&#45;&gt;Node25 -->
<g id="edge48_Node000024_Node000025" class="edge">
<title>Node24&#45;&gt;Node25</title>
<g id="a_edge48_Node000024_Node000025"><a xlink:title=" ">
<path fill="none" stroke="#63b8ff" d="M414.13,-283.34C414.13,-276.72 414.13,-267.72 414.13,-259.52"/>
<polygon fill="#63b8ff" stroke="#63b8ff" points="417.63,-259.59 414.13,-249.59 410.63,-259.59 417.63,-259.59"/>
</a>
</g>
</g>
<!-- Node27&#45;&gt;Node7 -->
<g id="edge53_Node000027_Node000007" class="edge">
<title>Node27&#45;&gt;Node7</title>
<g id="a_edge53_Node000027_Node000007"><a xlink:title=" ">
<path fill="none" stroke="#63b8ff" d="M191.69,-226.52C181.7,-218.3 168.84,-205.59 163.13,-191 150.56,-158.93 142.84,-141.34 163.13,-113.5 186.29,-81.71 232.12,-71.71 265.25,-68.81"/>
<polygon fill="#63b8ff" stroke="#63b8ff" points="265.13,-72.33 274.87,-68.16 264.66,-65.34 265.13,-72.33"/>
</a>
</g>
</g>
<!-- Node27&#45;&gt;Node8 -->
<g id="edge52_Node000027_Node000008" class="edge">
<title>Node27&#45;&gt;Node8</title>
<g id="a_edge52_Node000027_Node000008"><a xlink:title=" ">
<path fill="none" stroke="#63b8ff" d="M236.77,-230.72C280.39,-222.85 361.7,-207.87 440.39,-191.52"/>
<polygon fill="#63b8ff" stroke="#63b8ff" points="440.92,-194.98 450,-189.51 439.49,-188.13 440.92,-194.98"/>
</a>
</g>
</g>
<!-- Node28&#45;&gt;Node3 -->
<g id="edge55_Node000028_Node000003" class="edge">
<title>Node28&#45;&gt;Node3</title>
<g id="a_edge55_Node000028_Node000003"><a xlink:title=" ">
<path fill="none" stroke="#63b8ff" d="M791.4,-572.31C861.41,-559.42 1047.13,-520.06 1047.13,-465.38 1047.13,-465.38 1047.13,-465.38 1047.13,-122.88 1047.13,-66.3 977.83,-35.29 932.82,-21.12"/>
<polygon fill="#63b8ff" stroke="#63b8ff" points="933.99,-17.81 923.4,-18.31 931.98,-24.52 933.99,-17.81"/>
</a>
</g>
</g>
<!-- Node28&#45;&gt;Node19 -->
<g id="edge56_Node000028_Node000019" class="edge">
<title>Node28&#45;&gt;Node19</title>
<g id="a_edge56_Node000028_Node000019"><a xlink:title=" ">
<path fill="none" stroke="#63b8ff" d="M757.26,-567.35C734.9,-540.29 670.76,-462.65 641.28,-426.96"/>
<polygon fill="#63b8ff" stroke="#63b8ff" points="644.29,-425.11 635.22,-419.63 638.89,-429.57 644.29,-425.11"/>
</a>
</g>
</g>
<!-- Node29 -->
<g id="Node000029" class="node">
<title>Node29</title>
<g id="a_Node000029"><a xlink:href="ztimer_8h.html" target="_top" xlink:title="ztimer API">
<polygon fill="white" stroke="#666666" points="887.38,-531.5 830.88,-531.5 830.88,-510.75 887.38,-510.75 887.38,-531.5"/>
<text text-anchor="middle" x="859.13" y="-518" font-family="Helvetica,sans-Serif" font-size="10.00">ztimer.h</text>
</a>
</g>
</g>
<!-- Node28&#45;&gt;Node29 -->
<g id="edge57_Node000028_Node000029" class="edge">
<title>Node28&#45;&gt;Node29</title>
<g id="a_edge57_Node000028_Node000029"><a xlink:title=" ">
<path fill="none" stroke="#63b8ff" d="M781.93,-567.09C796.1,-558.83 816.62,-546.88 832.94,-537.38"/>
<polygon fill="#63b8ff" stroke="#63b8ff" points="834.28,-540.65 841.16,-532.59 830.76,-534.6 834.28,-540.65"/>
</a>
</g>
</g>
<!-- Node29&#45;&gt;Node3 -->
<g id="edge58_Node000029_Node000003" class="edge">
<title>Node29&#45;&gt;Node3</title>
<g id="a_edge58_Node000029_Node000003"><a xlink:title=" ">
<path fill="none" stroke="#63b8ff" d="M887.69,-512.9C931.22,-499.98 1009.13,-468.49 1009.13,-408.62 1009.13,-408.62 1009.13,-408.62 1009.13,-122.88 1009.13,-77.09 961.55,-43.92 927.86,-26.18"/>
<polygon fill="#63b8ff" stroke="#63b8ff" points="929.78,-23.23 919.27,-21.86 926.63,-29.48 929.78,-23.23"/>
</a>
</g>
</g>
<!-- Node29&#45;&gt;Node6 -->
<g id="edge59_Node000029_Node000006" class="edge">
<title>Node29&#45;&gt;Node6</title>
<g id="a_edge59_Node000029_Node000006"><a xlink:title=" ">
<path fill="none" stroke="#63b8ff" d="M880.5,-510.38C894.29,-502.81 911.1,-490.89 919.13,-474.75 923.24,-466.49 922.27,-462.67 919.13,-454 885.56,-361.36 861.94,-333.9 777.13,-283.75 744.69,-264.57 639.67,-249.63 582.34,-242.67"/>
<polygon fill="#63b8ff" stroke="#63b8ff" points="583.05,-239.23 572.71,-241.52 582.23,-246.18 583.05,-239.23"/>
</a>
</g>
</g>
<!-- Node29&#45;&gt;Node19 -->
<g id="edge61_Node000029_Node000019" class="edge">
<title>Node29&#45;&gt;Node19</title>
<g id="a_edge61_Node000029_Node000019"><a xlink:title=" ">
<path fill="none" stroke="#63b8ff" d="M838.86,-510.43C797.89,-490.82 705.03,-446.38 656.68,-423.25"/>
<polygon fill="#63b8ff" stroke="#63b8ff" points="658.41,-420.19 647.88,-419.04 655.39,-426.51 658.41,-420.19"/>
</a>
</g>
</g>
<!-- Node30 -->
<g id="Node000030" class="node">
<title>Node30</title>
<g id="a_Node000030"><a xlink:title=" ">
<polygon fill="#e0e0e0" stroke="#999999" points="910.13,-474.75 864.13,-474.75 864.13,-454 910.13,-454 910.13,-474.75"/>
<text text-anchor="middle" x="887.13" y="-461.25" font-family="Helvetica,sans-Serif" font-size="10.00">msg.h</text>
</a>
</g>
</g>
<!-- Node29&#45;&gt;Node30 -->
<g id="edge60_Node000029_Node000030" class="edge">
<title>Node29&#45;&gt;Node30</title>
<g id="a_edge60_Node000029_Node000030"><a xlink:title=" ">
<path fill="none" stroke="#63b8ff" d="M864.13,-510.34C867.72,-503.33 872.66,-493.66 877.05,-485.08"/>
<polygon fill="#63b8ff" stroke="#63b8ff" points="880.04,-486.92 881.48,-476.43 873.81,-483.74 880.04,-486.92"/>
</a>
</g>
</g>
<!-- Node31 -->
<g id="Node000031" class="node">
<title>Node31</title>
<g id="a_Node000031"><a xlink:href="rmutex_8h.html" target="_top" xlink:title="Recursive Mutex for thread synchronization.">
<polygon fill="white" stroke="#666666" points="846.25,-474.75 786,-474.75 786,-454 846.25,-454 846.25,-474.75"/>
<text text-anchor="middle" x="816.13" y="-461.25" font-family="Helvetica,sans-Serif" font-size="10.00">rmutex.h</text>
</a>
</g>
</g>
<!-- Node29&#45;&gt;Node31 -->
<g id="edge62_Node000029_Node000031" class="edge">
<title>Node29&#45;&gt;Node31</title>
<g id="a_edge62_Node000029_Node000031"><a xlink:title=" ">
<path fill="none" stroke="#63b8ff" d="M851.44,-510.34C845.69,-503.02 837.66,-492.79 830.71,-483.94"/>
<polygon fill="#63b8ff" stroke="#63b8ff" points="833.61,-481.97 824.68,-476.27 828.11,-486.3 833.61,-481.97"/>
</a>
</g>
</g>
<!-- Node31&#45;&gt;Node3 -->
<g id="edge63_Node000031_Node000003" class="edge">
<title>Node31&#45;&gt;Node3</title>
<g id="a_edge63_Node000031_Node000003"><a xlink:title=" ">
<path fill="none" stroke="#63b8ff" d="M836.07,-453.66C877.94,-431.7 971.13,-373.96 971.13,-295.12 971.13,-295.12 971.13,-295.12 971.13,-122.88 971.13,-83.96 939.13,-48.6 916.66,-28.57"/>
<polygon fill="#63b8ff" stroke="#63b8ff" points="919.05,-26.01 909.17,-22.17 914.5,-31.33 919.05,-26.01"/>
</a>
</g>
</g>
<!-- Node31&#45;&gt;Node6 -->
<g id="edge65_Node000031_Node000006" class="edge">
<title>Node31&#45;&gt;Node6</title>
<g id="a_edge65_Node000031_Node000006"><a xlink:title=" ">
<path fill="none" stroke="#63b8ff" d="M815.92,-453.82C814.71,-423.77 806.7,-330.38 754.13,-283.75 729.09,-261.54 635.99,-248.18 582.53,-242.16"/>
<polygon fill="#63b8ff" stroke="#63b8ff" points="582.95,-238.69 572.63,-241.09 582.2,-245.65 582.95,-238.69"/>
</a>
</g>
</g>
<!-- Node31&#45;&gt;Node19 -->
<g id="edge64_Node000031_Node000019" class="edge">
<title>Node31&#45;&gt;Node19</title>
<g id="a_edge64_Node000031_Node000019"><a xlink:title=" ">
<path fill="none" stroke="#63b8ff" d="M785.6,-454.58C753.04,-445.2 701.34,-430.3 665.68,-420.02"/>
<polygon fill="#63b8ff" stroke="#63b8ff" points="666.75,-416.69 656.17,-417.28 664.81,-423.41 666.75,-416.69"/>
</a>
</g>
</g>
</g>
</svg>
