<?xml version="1.0" encoding="UTF-8" standalone="no"?>
<!DOCTYPE svg PUBLIC "-//W3C//DTD SVG 1.1//EN"
 "http://www.w3.org/Graphics/SVG/1.1/DTD/svg11.dtd">
<!-- Generated by graphviz version 12.1.1 (0)
 -->
<!-- Title: sys/include/net/ble.h Pages: 1 -->
<svg width="1066pt" height="237pt"
 viewBox="0.00 0.00 1065.50 237.25" xmlns="http://www.w3.org/2000/svg" xmlns:xlink="http://www.w3.org/1999/xlink">
<g id="graph0" class="graph" transform="scale(1 1) rotate(0) translate(4 233.25)">
<title>sys/include/net/ble.h</title>
<!-- Node1 -->
<g id="Node000001" class="node">
<title>Node1</title>
<g id="a_Node000001"><a xlink:title="General BLE values as defined by the BT standard.">
<polygon fill="#999999" stroke="#666666" points="690.38,-229.25 573.88,-229.25 573.88,-208.5 690.38,-208.5 690.38,-229.25"/>
<text text-anchor="middle" x="632.12" y="-215.75" font-family="Helvetica,sans-Serif" font-size="10.00">sys/include/net/ble.h</text>
</a>
</g>
</g>
<!-- Node2 -->
<g id="Node000002" class="node">
<title>Node2</title>
<g id="a_Node000002"><a xlink:href="nimble__netif_8h.html" target="_top" xlink:title="GNRC netif implementation for NimBLE.">
<polygon fill="white" stroke="#666666" points="379.38,-172.5 244.88,-172.5 244.88,-139 379.38,-139 379.38,-172.5"/>
<text text-anchor="start" x="252.88" y="-159" font-family="Helvetica,sans-Serif" font-size="10.00">pkg/nimble/netif/include</text>
<text text-anchor="middle" x="312.12" y="-146.25" font-family="Helvetica,sans-Serif" font-size="10.00">/nimble_netif.h</text>
</a>
</g>
</g>
<!-- Node1&#45;&gt;Node2 -->
<g id="edge1_Node000001_Node000002" class="edge">
<title>Node1&#45;&gt;Node2</title>
<g id="a_edge1_Node000001_Node000002"><a xlink:title=" ">
<path fill="none" stroke="#63b8ff" d="M566.96,-206.02C517.99,-197.04 449.3,-184.27 389.12,-172.5 386.05,-171.9 382.9,-171.28 379.72,-170.64"/>
<polygon fill="#63b8ff" stroke="#63b8ff" points="566.07,-209.42 576.54,-207.78 567.33,-202.53 566.07,-209.42"/>
</a>
</g>
</g>
<!-- Node8 -->
<g id="Node000008" class="node">
<title>Node8</title>
<g id="a_Node000008"><a xlink:href="nimble__scanlist_8h.html" target="_top" xlink:title="List for keeping scanned BLE devices.">
<polygon fill="white" stroke="#666666" points="540.5,-172.5 397.75,-172.5 397.75,-139 540.5,-139 540.5,-172.5"/>
<text text-anchor="start" x="405.75" y="-159" font-family="Helvetica,sans-Serif" font-size="10.00">pkg/nimble/scanlist</text>
<text text-anchor="middle" x="469.12" y="-146.25" font-family="Helvetica,sans-Serif" font-size="10.00">/include/nimble_scanlist.h</text>
</a>
</g>
</g>
<!-- Node1&#45;&gt;Node8 -->
<g id="edge7_Node000001_Node000008" class="edge">
<title>Node1&#45;&gt;Node8</title>
<g id="a_edge7_Node000001_Node000008"><a xlink:title=" ">
<path fill="none" stroke="#63b8ff" d="M595.24,-204.04C570.65,-194.82 538.23,-182.66 512.42,-172.98"/>
<polygon fill="#63b8ff" stroke="#63b8ff" points="593.93,-207.29 604.52,-207.52 596.38,-200.73 593.93,-207.29"/>
</a>
</g>
</g>
<!-- Node9 -->
<g id="Node000009" class="node">
<title>Node9</title>
<g id="a_Node000009"><a xlink:href="ad_8h.html" target="_top" xlink:title="Interface for the generic BLE advertising data processing module.">
<polygon fill="white" stroke="#666666" points="705.75,-166.12 558.5,-166.12 558.5,-145.38 705.75,-145.38 705.75,-166.12"/>
<text text-anchor="middle" x="632.12" y="-152.62" font-family="Helvetica,sans-Serif" font-size="10.00">sys/include/net/bluetil/ad.h</text>
</a>
</g>
</g>
<!-- Node1&#45;&gt;Node9 -->
<g id="edge8_Node000001_Node000009" class="edge">
<title>Node1&#45;&gt;Node9</title>
<g id="a_edge8_Node000001_Node000009"><a xlink:title=" ">
<path fill="none" stroke="#63b8ff" d="M632.12,-196.61C632.12,-186.3 632.12,-174.43 632.12,-166.34"/>
<polygon fill="#63b8ff" stroke="#63b8ff" points="628.63,-196.54 632.13,-206.54 635.63,-196.54 628.63,-196.54"/>
</a>
</g>
</g>
<!-- Node10 -->
<g id="Node000010" class="node">
<title>Node10</title>
<g id="a_Node000010"><a xlink:href="bluetil_2addr_8h.html" target="_top" xlink:title="Interface for the generic BLE address helper functions.">
<polygon fill="white" stroke="#666666" points="846.75,-172.5 723.5,-172.5 723.5,-139 846.75,-139 846.75,-172.5"/>
<text text-anchor="start" x="731.5" y="-159" font-family="Helvetica,sans-Serif" font-size="10.00">sys/include/net/bluetil</text>
<text text-anchor="middle" x="785.12" y="-146.25" font-family="Helvetica,sans-Serif" font-size="10.00">/addr.h</text>
</a>
</g>
</g>
<!-- Node1&#45;&gt;Node10 -->
<g id="edge9_Node000001_Node000010" class="edge">
<title>Node1&#45;&gt;Node10</title>
<g id="a_edge9_Node000001_Node000010"><a xlink:title=" ">
<path fill="none" stroke="#63b8ff" d="M667.37,-203.79C690.37,-194.6 720.48,-182.58 744.49,-172.98"/>
<polygon fill="#63b8ff" stroke="#63b8ff" points="666.1,-200.53 658.11,-207.49 668.7,-207.03 666.1,-200.53"/>
</a>
</g>
</g>
<!-- Node11 -->
<g id="Node000011" class="node">
<title>Node11</title>
<g id="a_Node000011"><a xlink:href="skald_8h.html" target="_top" xlink:title="Skald&#39;s basic interface.">
<polygon fill="white" stroke="#666666" points="993,-166.12 865.25,-166.12 865.25,-145.38 993,-145.38 993,-166.12"/>
<text text-anchor="middle" x="929.12" y="-152.62" font-family="Helvetica,sans-Serif" font-size="10.00">sys/include/net/skald.h</text>
</a>
</g>
</g>
<!-- Node1&#45;&gt;Node11 -->
<g id="edge10_Node000001_Node000011" class="edge">
<title>Node1&#45;&gt;Node11</title>
<g id="a_edge10_Node000001_Node000011"><a xlink:title=" ">
<path fill="none" stroke="#63b8ff" d="M692.61,-205.84C737.71,-196.81 800.81,-184.07 856.12,-172.5 865.14,-170.62 874.76,-168.56 883.97,-166.59"/>
<polygon fill="#63b8ff" stroke="#63b8ff" points="692.15,-202.36 683.03,-207.75 693.52,-209.23 692.15,-202.36"/>
</a>
</g>
</g>
<!-- Node3 -->
<g id="Node000003" class="node">
<title>Node3</title>
<g id="a_Node000003"><a xlink:href="nimble__autoconn_8h.html" target="_top" xlink:title="Simple automated connection manager for NimBLE netif.">
<polygon fill="white" stroke="#666666" points="150.25,-103 0,-103 0,-69.5 150.25,-69.5 150.25,-103"/>
<text text-anchor="start" x="8" y="-89.5" font-family="Helvetica,sans-Serif" font-size="10.00">pkg/nimble/autoconn</text>
<text text-anchor="middle" x="75.12" y="-76.75" font-family="Helvetica,sans-Serif" font-size="10.00">/include/nimble_autoconn.h</text>
</a>
</g>
</g>
<!-- Node2&#45;&gt;Node3 -->
<g id="edge2_Node000002_Node000003" class="edge">
<title>Node2&#45;&gt;Node3</title>
<g id="a_edge2_Node000002_Node000003"><a xlink:title=" ">
<path fill="none" stroke="#63b8ff" d="M244.56,-135.51C208.93,-125.36 165.71,-113.05 131.84,-103.4"/>
<polygon fill="#63b8ff" stroke="#63b8ff" points="243.33,-138.79 253.9,-138.17 245.24,-132.06 243.33,-138.79"/>
</a>
</g>
</g>
<!-- Node4 -->
<g id="Node000004" class="node">
<title>Node4</title>
<g id="a_Node000004"><a xlink:href="nimble__netif__conn_8h.html" target="_top" xlink:title="Connection allocation and maintenance for NimBLE netif.">
<polygon fill="white" stroke="#666666" points="302.38,-103 167.88,-103 167.88,-69.5 302.38,-69.5 302.38,-103"/>
<text text-anchor="start" x="175.88" y="-89.5" font-family="Helvetica,sans-Serif" font-size="10.00">pkg/nimble/netif/include</text>
<text text-anchor="middle" x="235.12" y="-76.75" font-family="Helvetica,sans-Serif" font-size="10.00">/nimble_netif_conn.h</text>
</a>
</g>
</g>
<!-- Node2&#45;&gt;Node4 -->
<g id="edge3_Node000002_Node000004" class="edge">
<title>Node2&#45;&gt;Node4</title>
<g id="a_edge3_Node000002_Node000004"><a xlink:title=" ">
<path fill="none" stroke="#63b8ff" d="M285.42,-131.34C274.88,-122.1 263.05,-111.73 253.51,-103.37"/>
<polygon fill="#63b8ff" stroke="#63b8ff" points="282.91,-133.8 292.74,-137.76 287.53,-128.53 282.91,-133.8"/>
</a>
</g>
</g>
<!-- Node5 -->
<g id="Node000005" class="node">
<title>Node5</title>
<g id="a_Node000005"><a xlink:href="nimble__rpble_8h.html" target="_top" xlink:title="Interface for the nimble_rpble module.">
<polygon fill="white" stroke="#666666" points="457.5,-103 320.75,-103 320.75,-69.5 457.5,-69.5 457.5,-103"/>
<text text-anchor="start" x="328.75" y="-89.5" font-family="Helvetica,sans-Serif" font-size="10.00">pkg/nimble/rpble/include</text>
<text text-anchor="middle" x="389.12" y="-76.75" font-family="Helvetica,sans-Serif" font-size="10.00">/nimble_rpble.h</text>
</a>
</g>
</g>
<!-- Node2&#45;&gt;Node5 -->
<g id="edge4_Node000002_Node000005" class="edge">
<title>Node2&#45;&gt;Node5</title>
<g id="a_edge4_Node000002_Node000005"><a xlink:title=" ">
<path fill="none" stroke="#63b8ff" d="M338.83,-131.34C349.37,-122.1 361.2,-111.73 370.74,-103.37"/>
<polygon fill="#63b8ff" stroke="#63b8ff" points="336.72,-128.53 331.51,-137.76 341.34,-133.8 336.72,-128.53"/>
</a>
</g>
</g>
<!-- Node7 -->
<g id="Node000007" class="node">
<title>Node7</title>
<g id="a_Node000007"><a xlink:href="nimble__statconn_8h.html" target="_top" xlink:title="Simple static connection manager for NimBLE netif.">
<polygon fill="white" stroke="#666666" points="622.75,-103 475.5,-103 475.5,-69.5 622.75,-69.5 622.75,-103"/>
<text text-anchor="start" x="483.5" y="-89.5" font-family="Helvetica,sans-Serif" font-size="10.00">pkg/nimble/statconn</text>
<text text-anchor="middle" x="549.12" y="-76.75" font-family="Helvetica,sans-Serif" font-size="10.00">/include/nimble_statconn.h</text>
</a>
</g>
</g>
<!-- Node2&#45;&gt;Node7 -->
<g id="edge6_Node000002_Node000007" class="edge">
<title>Node2&#45;&gt;Node7</title>
<g id="a_edge6_Node000002_Node000007"><a xlink:title=" ">
<path fill="none" stroke="#63b8ff" d="M379.69,-135.51C415.32,-125.36 458.54,-113.05 492.41,-103.4"/>
<polygon fill="#63b8ff" stroke="#63b8ff" points="379.01,-132.06 370.35,-138.17 380.92,-138.79 379.01,-132.06"/>
</a>
</g>
</g>
<!-- Node6 -->
<g id="Node000006" class="node">
<title>Node6</title>
<g id="a_Node000006"><a xlink:href="nimble__rpble__params_8h.html" target="_top" xlink:title="Default configuration for the nimble_netif_rpble module.">
<polygon fill="white" stroke="#666666" points="457.5,-33.5 320.75,-33.5 320.75,0 457.5,0 457.5,-33.5"/>
<text text-anchor="start" x="328.75" y="-20" font-family="Helvetica,sans-Serif" font-size="10.00">pkg/nimble/rpble/include</text>
<text text-anchor="middle" x="389.12" y="-7.25" font-family="Helvetica,sans-Serif" font-size="10.00">/nimble_rpble_params.h</text>
</a>
</g>
</g>
<!-- Node5&#45;&gt;Node6 -->
<g id="edge5_Node000005_Node000006" class="edge">
<title>Node5&#45;&gt;Node6</title>
<g id="a_edge5_Node000005_Node000006"><a xlink:title=" ">
<path fill="none" stroke="#63b8ff" d="M389.12,-57.81C389.12,-49.59 389.12,-40.84 389.12,-33.63"/>
<polygon fill="#63b8ff" stroke="#63b8ff" points="385.63,-57.74 389.13,-67.74 392.63,-57.74 385.63,-57.74"/>
</a>
</g>
</g>
<!-- Node12 -->
<g id="Node000012" class="node">
<title>Node12</title>
<g id="a_Node000012"><a xlink:href="skald_2eddystone_8h.html" target="_top" xlink:title="Skald&#39;s basic interface.">
<polygon fill="white" stroke="#666666" points="920.5,-103 801.75,-103 801.75,-69.5 920.5,-69.5 920.5,-103"/>
<text text-anchor="start" x="809.75" y="-89.5" font-family="Helvetica,sans-Serif" font-size="10.00">sys/include/net/skald</text>
<text text-anchor="middle" x="861.12" y="-76.75" font-family="Helvetica,sans-Serif" font-size="10.00">/eddystone.h</text>
</a>
</g>
</g>
<!-- Node11&#45;&gt;Node12 -->
<g id="edge11_Node000011_Node000012" class="edge">
<title>Node11&#45;&gt;Node12</title>
<g id="a_edge11_Node000011_Node000012"><a xlink:title=" ">
<path fill="none" stroke="#63b8ff" d="M911.32,-137.08C900.82,-126.66 887.64,-113.57 877.41,-103.42"/>
<polygon fill="#63b8ff" stroke="#63b8ff" points="908.75,-139.45 918.31,-144.01 913.68,-134.48 908.75,-139.45"/>
</a>
</g>
</g>
<!-- Node13 -->
<g id="Node000013" class="node">
<title>Node13</title>
<g id="a_Node000013"><a xlink:href="ibeacon_8h.html" target="_top" xlink:title="Skald&#39;s basic interface.">
<polygon fill="white" stroke="#666666" points="1057.5,-103 938.75,-103 938.75,-69.5 1057.5,-69.5 1057.5,-103"/>
<text text-anchor="start" x="946.75" y="-89.5" font-family="Helvetica,sans-Serif" font-size="10.00">sys/include/net/skald</text>
<text text-anchor="middle" x="998.12" y="-76.75" font-family="Helvetica,sans-Serif" font-size="10.00">/ibeacon.h</text>
</a>
</g>
</g>
<!-- Node11&#45;&gt;Node13 -->
<g id="edge12_Node000011_Node000013" class="edge">
<title>Node11&#45;&gt;Node13</title>
<g id="a_edge12_Node000011_Node000013"><a xlink:title=" ">
<path fill="none" stroke="#63b8ff" d="M947.19,-137.08C957.84,-126.66 971.22,-113.57 981.6,-103.42"/>
<polygon fill="#63b8ff" stroke="#63b8ff" points="944.79,-134.53 940.09,-144.02 949.69,-139.53 944.79,-134.53"/>
</a>
</g>
</g>
</g>
</svg>
