<?xml version="1.0" encoding="UTF-8" standalone="no"?>
<!DOCTYPE svg PUBLIC "-//W3C//DTD SVG 1.1//EN"
 "http://www.w3.org/Graphics/SVG/1.1/DTD/svg11.dtd">
<!-- Generated by graphviz version 12.1.1 (0)
 -->
<!-- Title: sys/include/net/sock/async/types.h Pages: 1 -->
<svg width="141pt" height="181pt"
 viewBox="0.00 0.00 141.00 180.50" xmlns="http://www.w3.org/2000/svg" xmlns:xlink="http://www.w3.org/1999/xlink">
<g id="graph0" class="graph" transform="scale(1 1) rotate(0) translate(4 176.5)">
<title>sys/include/net/sock/async/types.h</title>
<!-- Node1 -->
<g id="Node000001" class="node">
<title>Node1</title>
<g id="a_Node000001"><a xlink:title="Definitions for sock extension for asynchronous access.">
<polygon fill="#999999" stroke="#666666" points="115,-172.5 0,-172.5 0,-139 115,-139 115,-172.5"/>
<text text-anchor="start" x="8" y="-159" font-family="Helvetica,sans-Serif" font-size="10.00">sys/include/net/sock</text>
<text text-anchor="middle" x="57.5" y="-146.25" font-family="Helvetica,sans-Serif" font-size="10.00">/async/types.h</text>
</a>
</g>
</g>
<!-- Node2 -->
<g id="Node000002" class="node">
<title>Node2</title>
<g id="a_Node000002"><a xlink:href="async_8h.html" target="_top" xlink:title="Definitions for sock extension for asynchronous access.">
<polygon fill="white" stroke="#666666" points="115,-103 0,-103 0,-69.5 115,-69.5 115,-103"/>
<text text-anchor="start" x="8" y="-89.5" font-family="Helvetica,sans-Serif" font-size="10.00">sys/include/net/sock</text>
<text text-anchor="middle" x="57.5" y="-76.75" font-family="Helvetica,sans-Serif" font-size="10.00">/async.h</text>
</a>
</g>
</g>
<!-- Node1&#45;&gt;Node2 -->
<g id="edge1_Node000001_Node000002" class="edge">
<title>Node1&#45;&gt;Node2</title>
<g id="a_edge1_Node000001_Node000002"><a xlink:title=" ">
<path fill="none" stroke="#63b8ff" d="M57.5,-127.31C57.5,-119.09 57.5,-110.34 57.5,-103.13"/>
<polygon fill="#63b8ff" stroke="#63b8ff" points="54,-127.24 57.5,-137.24 61,-127.24 54,-127.24"/>
</a>
</g>
</g>
<!-- Node3 -->
<g id="Node000003" class="node">
<title>Node3</title>
<g id="a_Node000003"><a xlink:href="net_2sock_2async_2event_8h.html" target="_top" xlink:title="Asynchronous sock using Event Queue definitions.">
<polygon fill="white" stroke="#666666" points="115,-33.5 0,-33.5 0,0 115,0 115,-33.5"/>
<text text-anchor="start" x="8" y="-20" font-family="Helvetica,sans-Serif" font-size="10.00">sys/include/net/sock</text>
<text text-anchor="middle" x="57.5" y="-7.25" font-family="Helvetica,sans-Serif" font-size="10.00">/async/event.h</text>
</a>
</g>
</g>
<!-- Node2&#45;&gt;Node3 -->
<g id="edge2_Node000002_Node000003" class="edge">
<title>Node2&#45;&gt;Node3</title>
<g id="a_edge2_Node000002_Node000003"><a xlink:title=" ">
<path fill="none" stroke="#63b8ff" d="M57.5,-57.81C57.5,-49.59 57.5,-40.84 57.5,-33.63"/>
<polygon fill="#63b8ff" stroke="#63b8ff" points="54,-57.74 57.5,-67.74 61,-57.74 54,-57.74"/>
</a>
</g>
</g>
<!-- Node3&#45;&gt;Node3 -->
<g id="edge3_Node000003_Node000003" class="edge">
<title>Node3&#45;&gt;Node3</title>
<g id="a_edge3_Node000003_Node000003"><a xlink:title=" ">
<path fill="none" stroke="#63b8ff" d="M126.22,-25.84C130.45,-23.69 133,-20.66 133,-16.75 133,-10.17 125.77,-6.08 115.43,-4.48"/>
<polygon fill="#63b8ff" stroke="#63b8ff" points="125.48,-22.41 116.88,-28.59 127.46,-29.12 125.48,-22.41"/>
</a>
</g>
</g>
</g>
</svg>
