<?xml version="1.0" encoding="UTF-8" standalone="no"?>
<!DOCTYPE svg PUBLIC "-//W3C//DTD SVG 1.1//EN"
 "http://www.w3.org/Graphics/SVG/1.1/DTD/svg11.dtd">
<!-- Generated by graphviz version 12.1.1 (0)
 -->
<!-- Title: sys/include/can/common.h Pages: 1 -->
<svg width="1469pt" height="307pt"
 viewBox="0.00 0.00 1468.88 306.75" xmlns="http://www.w3.org/2000/svg" xmlns:xlink="http://www.w3.org/1999/xlink">
<g id="graph0" class="graph" transform="scale(1 1) rotate(0) translate(4 302.75)">
<title>sys/include/can/common.h</title>
<!-- Node1 -->
<g id="Node000001" class="node">
<title>Node1</title>
<g id="a_Node000001"><a xlink:title="Definitions of high&#45;level CAN interface.">
<polygon fill="#999999" stroke="#666666" points="1244.25,-298.75 1098.5,-298.75 1098.5,-278 1244.25,-278 1244.25,-298.75"/>
<text text-anchor="middle" x="1171.38" y="-285.25" font-family="Helvetica,sans-Serif" font-size="10.00">sys/include/can/common.h</text>
</a>
</g>
</g>
<!-- Node2 -->
<g id="Node000002" class="node">
<title>Node2</title>
<g id="a_Node000002"><a xlink:href="candev_8h.html" target="_top" xlink:title="Definitions for low&#45;level CAN driver interface.">
<polygon fill="white" stroke="#666666" points="755.5,-242 647.25,-242 647.25,-208.5 755.5,-208.5 755.5,-242"/>
<text text-anchor="start" x="655.25" y="-228.5" font-family="Helvetica,sans-Serif" font-size="10.00">drivers/include/can</text>
<text text-anchor="middle" x="701.38" y="-215.75" font-family="Helvetica,sans-Serif" font-size="10.00">/candev.h</text>
</a>
</g>
</g>
<!-- Node1&#45;&gt;Node2 -->
<g id="edge1_Node000001_Node000002" class="edge">
<title>Node1&#45;&gt;Node2</title>
<g id="a_edge1_Node000001_Node000002"><a xlink:title=" ">
<path fill="none" stroke="#63b8ff" d="M1086.78,-276.37C990.75,-263.88 836.93,-243.88 755.7,-233.32"/>
<polygon fill="#63b8ff" stroke="#63b8ff" points="1086.33,-279.84 1096.69,-277.66 1087.23,-272.9 1086.33,-279.84"/>
</a>
</g>
</g>
<!-- Node16 -->
<g id="Node000016" class="node">
<title>Node16</title>
<g id="a_Node000016"><a xlink:href="dll_8h.html" target="_top" xlink:title="Definitions of low&#45;level CAN DLL interface.">
<polygon fill="white" stroke="#666666" points="1460.88,-96.62 1345.88,-96.62 1345.88,-75.88 1460.88,-75.88 1460.88,-96.62"/>
<text text-anchor="middle" x="1403.38" y="-83.12" font-family="Helvetica,sans-Serif" font-size="10.00">sys/include/can/dll.h</text>
</a>
</g>
</g>
<!-- Node1&#45;&gt;Node16 -->
<g id="edge24_Node000001_Node000016" class="edge">
<title>Node1&#45;&gt;Node16</title>
<g id="a_edge24_Node000001_Node000016"><a xlink:title=" ">
<path fill="none" stroke="#63b8ff" d="M1255.67,-277.47C1305.19,-270.08 1361.65,-258.41 1380.38,-242 1423.27,-204.4 1411.27,-124.36 1405.57,-96.8"/>
<polygon fill="#63b8ff" stroke="#63b8ff" points="1255.46,-273.96 1246.07,-278.86 1256.46,-280.89 1255.46,-273.96"/>
</a>
</g>
</g>
<!-- Node17 -->
<g id="Node000017" class="node">
<title>Node17</title>
<g id="a_Node000017"><a xlink:href="can_2raw_8h.html" target="_top" xlink:title="Definitions high&#45;level RAW CAN interface.">
<polygon fill="white" stroke="#666666" points="1190.5,-96.62 1070.25,-96.62 1070.25,-75.88 1190.5,-75.88 1190.5,-96.62"/>
<text text-anchor="middle" x="1130.38" y="-83.12" font-family="Helvetica,sans-Serif" font-size="10.00">sys/include/can/raw.h</text>
</a>
</g>
</g>
<!-- Node1&#45;&gt;Node17 -->
<g id="edge30_Node000001_Node000017" class="edge">
<title>Node1&#45;&gt;Node17</title>
<g id="a_edge30_Node000001_Node000017"><a xlink:title=" ">
<path fill="none" stroke="#63b8ff" d="M1133.47,-272.63C1120.29,-265.48 1106.92,-255.45 1099.38,-242 1076.97,-202.08 1085.86,-183.04 1098.38,-139 1103,-122.74 1114.34,-106.59 1122.2,-96.77"/>
<polygon fill="#63b8ff" stroke="#63b8ff" points="1131.54,-275.59 1142.06,-276.89 1134.65,-269.31 1131.54,-275.59"/>
</a>
</g>
</g>
<!-- Node19 -->
<g id="Node000019" class="node">
<title>Node19</title>
<g id="a_Node000019"><a xlink:href="isotp_8h.html" target="_top" xlink:title="ISO TP high level interface.">
<polygon fill="white" stroke="#666666" points="1234.88,-235.62 1107.88,-235.62 1107.88,-214.88 1234.88,-214.88 1234.88,-235.62"/>
<text text-anchor="middle" x="1171.38" y="-222.12" font-family="Helvetica,sans-Serif" font-size="10.00">sys/include/can/isotp.h</text>
</a>
</g>
</g>
<!-- Node1&#45;&gt;Node19 -->
<g id="edge25_Node000001_Node000019" class="edge">
<title>Node1&#45;&gt;Node19</title>
<g id="a_edge25_Node000001_Node000019"><a xlink:title=" ">
<path fill="none" stroke="#63b8ff" d="M1171.38,-266.11C1171.38,-255.8 1171.38,-243.93 1171.38,-235.84"/>
<polygon fill="#63b8ff" stroke="#63b8ff" points="1167.88,-266.04 1171.38,-276.04 1174.88,-266.04 1167.88,-266.04"/>
</a>
</g>
</g>
<!-- Node21 -->
<g id="Node000021" class="node">
<title>Node21</title>
<g id="a_Node000021"><a xlink:href="can_2pkt_8h.html" target="_top" xlink:title="CAN memory allocation module.">
<polygon fill="white" stroke="#666666" points="1371.75,-235.62 1253,-235.62 1253,-214.88 1371.75,-214.88 1371.75,-235.62"/>
<text text-anchor="middle" x="1312.38" y="-222.12" font-family="Helvetica,sans-Serif" font-size="10.00">sys/include/can/pkt.h</text>
</a>
</g>
</g>
<!-- Node1&#45;&gt;Node21 -->
<g id="edge27_Node000001_Node000021" class="edge">
<title>Node1&#45;&gt;Node21</title>
<g id="a_edge27_Node000001_Node000021"><a xlink:title=" ">
<path fill="none" stroke="#63b8ff" d="M1204.27,-273.12C1230.54,-261.72 1266.67,-246.06 1289.78,-236.05"/>
<polygon fill="#63b8ff" stroke="#63b8ff" points="1203.2,-269.76 1195.42,-276.95 1205.98,-276.19 1203.2,-269.76"/>
</a>
</g>
</g>
<!-- Node3 -->
<g id="Node000003" class="node">
<title>Node3</title>
<g id="a_Node000003"><a xlink:href="can__esp_8h.html" target="_top" xlink:title=" ">
<polygon fill="white" stroke="#666666" points="1051.38,-172.5 927.38,-172.5 927.38,-139 1051.38,-139 1051.38,-172.5"/>
<text text-anchor="start" x="935.38" y="-159" font-family="Helvetica,sans-Serif" font-size="10.00">cpu/esp32/include/can</text>
<text text-anchor="middle" x="989.38" y="-146.25" font-family="Helvetica,sans-Serif" font-size="10.00">_esp.h</text>
</a>
</g>
</g>
<!-- Node2&#45;&gt;Node3 -->
<g id="edge2_Node000002_Node000003" class="edge">
<title>Node2&#45;&gt;Node3</title>
<g id="a_edge2_Node000002_Node000003"><a xlink:title=" ">
<path fill="none" stroke="#63b8ff" d="M766.79,-208.92C814.86,-197.65 879.77,-182.44 927.08,-171.35"/>
<polygon fill="#63b8ff" stroke="#63b8ff" points="766.3,-205.44 757.36,-211.13 767.89,-212.25 766.3,-205.44"/>
</a>
</g>
</g>
<!-- Node5 -->
<g id="Node000005" class="node">
<title>Node5</title>
<g id="a_Node000005"><a xlink:href="candev__linux_8h.html" target="_top" xlink:title="Implementation of simulated CAN controller driver using SocketCAN on Linux.">
<polygon fill="white" stroke="#666666" points="596,-103 490.75,-103 490.75,-69.5 596,-69.5 596,-103"/>
<text text-anchor="start" x="498.75" y="-89.5" font-family="Helvetica,sans-Serif" font-size="10.00">cpu/native/include</text>
<text text-anchor="middle" x="543.38" y="-76.75" font-family="Helvetica,sans-Serif" font-size="10.00">/candev_linux.h</text>
</a>
</g>
</g>
<!-- Node2&#45;&gt;Node5 -->
<g id="edge4_Node000002_Node000005" class="edge">
<title>Node2&#45;&gt;Node5</title>
<g id="a_edge4_Node000002_Node000005"><a xlink:title=" ">
<path fill="none" stroke="#63b8ff" d="M665.01,-202.16C651.76,-193.51 636.95,-183.12 624.38,-172.5 598.48,-150.63 572.11,-121.28 556.77,-103.34"/>
<polygon fill="#63b8ff" stroke="#63b8ff" points="662.74,-204.86 673.05,-207.31 666.52,-198.97 662.74,-204.86"/>
</a>
</g>
</g>
<!-- Node7 -->
<g id="Node000007" class="node">
<title>Node7</title>
<g id="a_Node000007"><a xlink:href="candev__stm32_8h.html" target="_top" xlink:title="bxCAN specific definitions">
<polygon fill="white" stroke="#666666" points="323.12,-172.5 179.62,-172.5 179.62,-139 323.12,-139 323.12,-172.5"/>
<text text-anchor="start" x="187.62" y="-159" font-family="Helvetica,sans-Serif" font-size="10.00">cpu/stm32/include/candev</text>
<text text-anchor="middle" x="251.38" y="-146.25" font-family="Helvetica,sans-Serif" font-size="10.00">_stm32.h</text>
</a>
</g>
</g>
<!-- Node2&#45;&gt;Node7 -->
<g id="edge6_Node000002_Node000007" class="edge">
<title>Node2&#45;&gt;Node7</title>
<g id="a_edge6_Node000002_Node000007"><a xlink:title=" ">
<path fill="none" stroke="#63b8ff" d="M635.87,-216.12C561.97,-206.71 438.28,-190.21 332.38,-172.5 329.41,-172 326.38,-171.48 323.33,-170.95"/>
<polygon fill="#63b8ff" stroke="#63b8ff" points="634.98,-219.54 645.34,-217.33 635.86,-212.59 634.98,-219.54"/>
</a>
</g>
</g>
<!-- Node8 -->
<g id="Node000008" class="node">
<title>Node8</title>
<g id="a_Node000008"><a xlink:href="candev__mcp2515_8h.html" target="_top" xlink:title="Definition of the implementation of the CAN controller driver.">
<polygon fill="white" stroke="#666666" points="467.5,-172.5 341.25,-172.5 341.25,-139 467.5,-139 467.5,-172.5"/>
<text text-anchor="start" x="349.25" y="-159" font-family="Helvetica,sans-Serif" font-size="10.00">drivers/include/candev</text>
<text text-anchor="middle" x="404.38" y="-146.25" font-family="Helvetica,sans-Serif" font-size="10.00">_mcp2515.h</text>
</a>
</g>
</g>
<!-- Node2&#45;&gt;Node8 -->
<g id="edge7_Node000002_Node000008" class="edge">
<title>Node2&#45;&gt;Node8</title>
<g id="a_edge7_Node000002_Node000008"><a xlink:title=" ">
<path fill="none" stroke="#63b8ff" d="M635.88,-209.37C585.85,-197.99 517.29,-182.41 467.78,-171.16"/>
<polygon fill="#63b8ff" stroke="#63b8ff" points="634.9,-212.73 645.42,-211.53 636.45,-205.9 634.9,-212.73"/>
</a>
</g>
</g>
<!-- Node12 -->
<g id="Node000012" class="node">
<title>Node12</title>
<g id="a_Node000012"><a xlink:href="drivers_2include_2periph_2can_8h.html" target="_top" xlink:title="Low&#45;level CAN peripheral driver interface definitions.">
<polygon fill="white" stroke="#666666" points="909.25,-172.5 787.5,-172.5 787.5,-139 909.25,-139 909.25,-172.5"/>
<text text-anchor="start" x="795.5" y="-159" font-family="Helvetica,sans-Serif" font-size="10.00">drivers/include/periph</text>
<text text-anchor="middle" x="848.38" y="-146.25" font-family="Helvetica,sans-Serif" font-size="10.00">/can.h</text>
</a>
</g>
</g>
<!-- Node2&#45;&gt;Node12 -->
<g id="edge11_Node000002_Node000012" class="edge">
<title>Node2&#45;&gt;Node12</title>
<g id="a_edge11_Node000002_Node000012"><a xlink:title=" ">
<path fill="none" stroke="#63b8ff" d="M747.04,-203.28C768.37,-193.49 793.37,-182.01 813.2,-172.9"/>
<polygon fill="#63b8ff" stroke="#63b8ff" points="745.59,-200.1 737.96,-207.45 748.51,-206.46 745.59,-200.1"/>
</a>
</g>
</g>
<!-- Node14 -->
<g id="Node000014" class="node">
<title>Node14</title>
<g id="a_Node000014"><a xlink:href="sys_2include_2can_2device_8h.html" target="_top" xlink:title="Definitions of CAN device interface.">
<polygon fill="white" stroke="#666666" points="769,-166.12 633.75,-166.12 633.75,-145.38 769,-145.38 769,-166.12"/>
<text text-anchor="middle" x="701.38" y="-152.62" font-family="Helvetica,sans-Serif" font-size="10.00">sys/include/can/device.h</text>
</a>
</g>
</g>
<!-- Node2&#45;&gt;Node14 -->
<g id="edge14_Node000002_Node000014" class="edge">
<title>Node2&#45;&gt;Node14</title>
<g id="a_edge14_Node000002_Node000014"><a xlink:title=" ">
<path fill="none" stroke="#63b8ff" d="M701.38,-196.78C701.38,-186.08 701.38,-174.51 701.38,-166.57"/>
<polygon fill="#63b8ff" stroke="#63b8ff" points="697.88,-196.74 701.38,-206.74 704.88,-196.74 697.88,-196.74"/>
</a>
</g>
</g>
<!-- Node4 -->
<g id="Node000004" class="node">
<title>Node4</title>
<g id="a_Node000004"><a xlink:href="esp32_2include_2can__params_8h.html" target="_top" xlink:title="ESP32 CAN controller driver (esp_can) default parameters.">
<polygon fill="white" stroke="#666666" points="1052.38,-103 928.38,-103 928.38,-69.5 1052.38,-69.5 1052.38,-103"/>
<text text-anchor="start" x="936.38" y="-89.5" font-family="Helvetica,sans-Serif" font-size="10.00">cpu/esp32/include/can</text>
<text text-anchor="middle" x="990.38" y="-76.75" font-family="Helvetica,sans-Serif" font-size="10.00">_params.h</text>
</a>
</g>
</g>
<!-- Node3&#45;&gt;Node4 -->
<g id="edge3_Node000003_Node000004" class="edge">
<title>Node3&#45;&gt;Node4</title>
<g id="a_edge3_Node000003_Node000004"><a xlink:title=" ">
<path fill="none" stroke="#63b8ff" d="M989.78,-127.31C989.9,-119.09 990.03,-110.34 990.14,-103.13"/>
<polygon fill="#63b8ff" stroke="#63b8ff" points="986.28,-127.19 989.63,-137.24 993.28,-127.29 986.28,-127.19"/>
</a>
</g>
</g>
<!-- Node6 -->
<g id="Node000006" class="node">
<title>Node6</title>
<g id="a_Node000006"><a xlink:href="native_2include_2can__params_8h.html" target="_top" xlink:title="Default linux can config.">
<polygon fill="white" stroke="#666666" points="637,-33.5 531.75,-33.5 531.75,0 637,0 637,-33.5"/>
<text text-anchor="start" x="539.75" y="-20" font-family="Helvetica,sans-Serif" font-size="10.00">cpu/native/include</text>
<text text-anchor="middle" x="584.38" y="-7.25" font-family="Helvetica,sans-Serif" font-size="10.00">/can_params.h</text>
</a>
</g>
</g>
<!-- Node5&#45;&gt;Node6 -->
<g id="edge5_Node000005_Node000006" class="edge">
<title>Node5&#45;&gt;Node6</title>
<g id="a_edge5_Node000005_Node000006"><a xlink:title=" ">
<path fill="none" stroke="#63b8ff" d="M559,-59.53C564.29,-50.82 570.04,-41.35 574.73,-33.63"/>
<polygon fill="#63b8ff" stroke="#63b8ff" points="556.08,-57.6 553.88,-67.96 562.06,-61.23 556.08,-57.6"/>
</a>
</g>
</g>
<!-- Node9 -->
<g id="Node000009" class="node">
<title>Node9</title>
<g id="a_Node000009"><a xlink:href="mcp2515__params_8h.html" target="_top" xlink:title="Parameters for the CAN driver implementation.">
<polygon fill="white" stroke="#666666" points="472.38,-103 336.38,-103 336.38,-69.5 472.38,-69.5 472.38,-103"/>
<text text-anchor="start" x="344.38" y="-89.5" font-family="Helvetica,sans-Serif" font-size="10.00">drivers/mcp2515/include</text>
<text text-anchor="middle" x="404.38" y="-76.75" font-family="Helvetica,sans-Serif" font-size="10.00">/mcp2515_params.h</text>
</a>
</g>
</g>
<!-- Node8&#45;&gt;Node9 -->
<g id="edge8_Node000008_Node000009" class="edge">
<title>Node8&#45;&gt;Node9</title>
<g id="a_edge8_Node000008_Node000009"><a xlink:title=" ">
<path fill="none" stroke="#63b8ff" d="M404.38,-127.31C404.38,-119.09 404.38,-110.34 404.38,-103.13"/>
<polygon fill="#63b8ff" stroke="#63b8ff" points="400.88,-127.24 404.38,-137.24 407.88,-127.24 400.88,-127.24"/>
</a>
</g>
</g>
<!-- Node10 -->
<g id="Node000010" class="node">
<title>Node10</title>
<g id="a_Node000010"><a xlink:href="mcp2515_8h.html" target="_top" xlink:title="Driver for the Microchip MCP2515 can controller.">
<polygon fill="white" stroke="#666666" points="154.75,-96.62 0,-96.62 0,-75.88 154.75,-75.88 154.75,-96.62"/>
<text text-anchor="middle" x="77.38" y="-83.12" font-family="Helvetica,sans-Serif" font-size="10.00">drivers/mcp2515/mcp2515.h</text>
</a>
</g>
</g>
<!-- Node8&#45;&gt;Node10 -->
<g id="edge9_Node000008_Node000010" class="edge">
<title>Node8&#45;&gt;Node10</title>
<g id="a_edge9_Node000008_Node000010"><a xlink:title=" ">
<path fill="none" stroke="#63b8ff" d="M329.55,-138.42C253.3,-122.4 175.78,-106.81 126.78,-97.05"/>
<polygon fill="#63b8ff" stroke="#63b8ff" points="328.8,-141.84 339.3,-140.47 330.24,-134.99 328.8,-141.84"/>
</a>
</g>
</g>
<!-- Node11 -->
<g id="Node000011" class="node">
<title>Node11</title>
<g id="a_Node000011"><a xlink:href="mcp2515__spi_8h.html" target="_top" xlink:title="Driver for the Microchip MCP2515 can controller.">
<polygon fill="white" stroke="#666666" points="318.25,-103 172.5,-103 172.5,-69.5 318.25,-69.5 318.25,-103"/>
<text text-anchor="start" x="180.5" y="-89.5" font-family="Helvetica,sans-Serif" font-size="10.00">drivers/mcp2515/mcp2515</text>
<text text-anchor="middle" x="245.38" y="-76.75" font-family="Helvetica,sans-Serif" font-size="10.00">_spi.h</text>
</a>
</g>
</g>
<!-- Node8&#45;&gt;Node11 -->
<g id="edge10_Node000008_Node000011" class="edge">
<title>Node8&#45;&gt;Node11</title>
<g id="a_edge10_Node000008_Node000011"><a xlink:title=" ">
<path fill="none" stroke="#63b8ff" d="M355.93,-134.18C332.66,-124.3 305.17,-112.63 283.42,-103.4"/>
<polygon fill="#63b8ff" stroke="#63b8ff" points="354.32,-137.3 364.9,-137.99 357.06,-130.86 354.32,-137.3"/>
</a>
</g>
</g>
<!-- Node12&#45;&gt;Node4 -->
<g id="edge12_Node000012_Node000004" class="edge">
<title>Node12&#45;&gt;Node4</title>
<g id="a_edge12_Node000012_Node000004"><a xlink:title=" ">
<path fill="none" stroke="#63b8ff" d="M892.52,-133.76C913.21,-123.93 937.46,-112.41 956.64,-103.29"/>
<polygon fill="#63b8ff" stroke="#63b8ff" points="891.28,-130.48 883.75,-137.93 894.29,-136.8 891.28,-130.48"/>
</a>
</g>
</g>
<!-- Node13 -->
<g id="Node000013" class="node">
<title>Node13</title>
<g id="a_Node000013"><a xlink:href="stm32_2include_2can__params_8h.html" target="_top" xlink:title="STM32 CAN controller driver (bxCAN) default parameters.">
<polygon fill="white" stroke="#666666" points="910.12,-103 784.62,-103 784.62,-69.5 910.12,-69.5 910.12,-103"/>
<text text-anchor="start" x="792.62" y="-89.5" font-family="Helvetica,sans-Serif" font-size="10.00">cpu/stm32/include/can</text>
<text text-anchor="middle" x="847.38" y="-76.75" font-family="Helvetica,sans-Serif" font-size="10.00">_params.h</text>
</a>
</g>
</g>
<!-- Node12&#45;&gt;Node13 -->
<g id="edge13_Node000012_Node000013" class="edge">
<title>Node12&#45;&gt;Node13</title>
<g id="a_edge13_Node000012_Node000013"><a xlink:title=" ">
<path fill="none" stroke="#63b8ff" d="M847.97,-127.31C847.85,-119.09 847.72,-110.34 847.61,-103.13"/>
<polygon fill="#63b8ff" stroke="#63b8ff" points="844.47,-127.29 848.12,-137.24 851.47,-127.19 844.47,-127.29"/>
</a>
</g>
</g>
<!-- Node14&#45;&gt;Node4 -->
<g id="edge15_Node000014_Node000004" class="edge">
<title>Node14&#45;&gt;Node4</title>
<g id="a_edge15_Node000014_Node000004"><a xlink:title=" ">
<path fill="none" stroke="#63b8ff" d="M754.4,-142.37C803.41,-130.92 876.26,-113.9 928.04,-101.81"/>
<polygon fill="#63b8ff" stroke="#63b8ff" points="753.81,-138.91 744.87,-144.59 755.41,-145.72 753.81,-138.91"/>
</a>
</g>
</g>
<!-- Node14&#45;&gt;Node5 -->
<g id="edge17_Node000014_Node000005" class="edge">
<title>Node14&#45;&gt;Node5</title>
<g id="a_edge17_Node000014_Node000005"><a xlink:title=" ">
<path fill="none" stroke="#63b8ff" d="M667.83,-140.42C642.5,-129.6 607.72,-114.74 581.36,-103.48"/>
<polygon fill="#63b8ff" stroke="#63b8ff" points="666.44,-143.63 677.01,-144.34 669.19,-137.19 666.44,-143.63"/>
</a>
</g>
</g>
<!-- Node14&#45;&gt;Node6 -->
<g id="edge16_Node000014_Node000006" class="edge">
<title>Node14&#45;&gt;Node6</title>
<g id="a_edge16_Node000014_Node000006"><a xlink:title=" ">
<path fill="none" stroke="#63b8ff" d="M680.48,-138.18C668.92,-128.53 654.66,-115.77 643.38,-103 623.71,-80.75 604.88,-51.77 593.98,-33.97"/>
<polygon fill="#63b8ff" stroke="#63b8ff" points="677.93,-140.62 687.88,-144.24 682.36,-135.2 677.93,-140.62"/>
</a>
</g>
</g>
<!-- Node14&#45;&gt;Node9 -->
<g id="edge20_Node000014_Node000009" class="edge">
<title>Node14&#45;&gt;Node9</title>
<g id="a_edge20_Node000014_Node000009"><a xlink:title=" ">
<path fill="none" stroke="#63b8ff" d="M647.17,-142.43C598.11,-131.28 525.63,-114.81 472.64,-102.76"/>
<polygon fill="#63b8ff" stroke="#63b8ff" points="646.19,-145.8 656.71,-144.6 647.74,-138.97 646.19,-145.8"/>
</a>
</g>
</g>
<!-- Node14&#45;&gt;Node13 -->
<g id="edge19_Node000014_Node000013" class="edge">
<title>Node14&#45;&gt;Node13</title>
<g id="a_edge19_Node000014_Node000013"><a xlink:title=" ">
<path fill="none" stroke="#63b8ff" d="M733,-140.13C756.35,-129.33 788.14,-114.64 812.27,-103.48"/>
<polygon fill="#63b8ff" stroke="#63b8ff" points="731.59,-136.93 723.98,-144.3 734.52,-143.28 731.59,-136.93"/>
</a>
</g>
</g>
<!-- Node15 -->
<g id="Node000015" class="node">
<title>Node15</title>
<g id="a_Node000015"><a xlink:href="samd5x_2include_2can__params_8h.html" target="_top" xlink:title="CPU specific definitions for CAN controllers.">
<polygon fill="white" stroke="#666666" points="766.12,-103 652.62,-103 652.62,-69.5 766.12,-69.5 766.12,-103"/>
<text text-anchor="start" x="660.62" y="-89.5" font-family="Helvetica,sans-Serif" font-size="10.00">cpu/samd5x/include</text>
<text text-anchor="middle" x="709.38" y="-76.75" font-family="Helvetica,sans-Serif" font-size="10.00">/can_params.h</text>
</a>
</g>
</g>
<!-- Node14&#45;&gt;Node15 -->
<g id="edge18_Node000014_Node000015" class="edge">
<title>Node14&#45;&gt;Node15</title>
<g id="a_edge18_Node000014_Node000015"><a xlink:title=" ">
<path fill="none" stroke="#63b8ff" d="M703.85,-133.88C705.01,-124.07 706.38,-112.55 707.46,-103.42"/>
<polygon fill="#63b8ff" stroke="#63b8ff" points="700.4,-133.23 702.7,-143.58 707.35,-134.06 700.4,-133.23"/>
</a>
</g>
</g>
<!-- Node14&#45;&gt;Node16 -->
<g id="edge21_Node000014_Node000016" class="edge">
<title>Node14&#45;&gt;Node16</title>
<g id="a_edge21_Node000014_Node000016"><a xlink:title=" ">
<path fill="none" stroke="#63b8ff" d="M756.01,-142.74C763.5,-141.34 771.11,-140.04 778.38,-139 806.2,-135.02 1195.8,-103.79 1345.43,-91.86"/>
<polygon fill="#63b8ff" stroke="#63b8ff" points="755.42,-139.29 746.27,-144.64 756.76,-146.16 755.42,-139.29"/>
</a>
</g>
</g>
<!-- Node14&#45;&gt;Node17 -->
<g id="edge22_Node000014_Node000017" class="edge">
<title>Node14&#45;&gt;Node17</title>
<g id="a_edge22_Node000014_Node000017"><a xlink:title=" ">
<path fill="none" stroke="#63b8ff" d="M757.66,-142.73C764.63,-141.39 771.65,-140.11 778.38,-139 903.46,-118.28 936.53,-125.13 1061.38,-103 1070.81,-101.33 1080.9,-99.21 1090.38,-97.08"/>
<polygon fill="#63b8ff" stroke="#63b8ff" points="757.08,-139.27 747.95,-144.64 758.44,-146.14 757.08,-139.27"/>
</a>
</g>
</g>
<!-- Node18 -->
<g id="Node000018" class="node">
<title>Node18</title>
<g id="a_Node000018"><a xlink:href="can_2conn_2raw_8h.html" target="_top" xlink:title="Definitions of generic CAN interface.">
<polygon fill="white" stroke="#666666" points="1189,-33.5 1071.75,-33.5 1071.75,0 1189,0 1189,-33.5"/>
<text text-anchor="start" x="1079.75" y="-20" font-family="Helvetica,sans-Serif" font-size="10.00">sys/include/can/conn</text>
<text text-anchor="middle" x="1130.38" y="-7.25" font-family="Helvetica,sans-Serif" font-size="10.00">/raw.h</text>
</a>
</g>
</g>
<!-- Node17&#45;&gt;Node18 -->
<g id="edge23_Node000017_Node000018" class="edge">
<title>Node17&#45;&gt;Node18</title>
<g id="a_edge23_Node000017_Node000018"><a xlink:title=" ">
<path fill="none" stroke="#63b8ff" d="M1130.38,-64.38C1130.38,-54.57 1130.38,-43.05 1130.38,-33.92"/>
<polygon fill="#63b8ff" stroke="#63b8ff" points="1126.88,-64.07 1130.38,-74.07 1133.88,-64.07 1126.88,-64.07"/>
</a>
</g>
</g>
<!-- Node20 -->
<g id="Node000020" class="node">
<title>Node20</title>
<g id="a_Node000020"><a xlink:href="conn_2isotp_8h.html" target="_top" xlink:title="Definitions of generic CAN interface.">
<polygon fill="white" stroke="#666666" points="1225,-172.5 1107.75,-172.5 1107.75,-139 1225,-139 1225,-172.5"/>
<text text-anchor="start" x="1115.75" y="-159" font-family="Helvetica,sans-Serif" font-size="10.00">sys/include/can/conn</text>
<text text-anchor="middle" x="1166.38" y="-146.25" font-family="Helvetica,sans-Serif" font-size="10.00">/isotp.h</text>
</a>
</g>
</g>
<!-- Node19&#45;&gt;Node20 -->
<g id="edge26_Node000019_Node000020" class="edge">
<title>Node19&#45;&gt;Node20</title>
<g id="a_edge26_Node000019_Node000020"><a xlink:title=" ">
<path fill="none" stroke="#63b8ff" d="M1169.83,-203.38C1169.1,-193.57 1168.25,-182.05 1167.57,-172.92"/>
<polygon fill="#63b8ff" stroke="#63b8ff" points="1166.32,-203.36 1170.55,-213.07 1173.3,-202.84 1166.32,-203.36"/>
</a>
</g>
</g>
<!-- Node21&#45;&gt;Node16 -->
<g id="edge28_Node000021_Node000016" class="edge">
<title>Node21&#45;&gt;Node16</title>
<g id="a_edge28_Node000021_Node000016"><a xlink:title=" ">
<path fill="none" stroke="#63b8ff" d="M1343.04,-209.06C1357.67,-200.3 1374.18,-187.95 1384.38,-172.5 1400.08,-148.71 1402.96,-113.88 1403.39,-97.06"/>
<polygon fill="#63b8ff" stroke="#63b8ff" points="1341.62,-205.84 1334.62,-213.8 1345.05,-211.94 1341.62,-205.84"/>
</a>
</g>
</g>
<!-- Node22 -->
<g id="Node000022" class="node">
<title>Node22</title>
<g id="a_Node000022"><a xlink:href="router_8h.html" target="_top" xlink:title="Functions for routing RX can frames.">
<polygon fill="white" stroke="#666666" points="1375.5,-166.12 1243.25,-166.12 1243.25,-145.38 1375.5,-145.38 1375.5,-166.12"/>
<text text-anchor="middle" x="1309.38" y="-152.62" font-family="Helvetica,sans-Serif" font-size="10.00">sys/include/can/router.h</text>
</a>
</g>
</g>
<!-- Node21&#45;&gt;Node22 -->
<g id="edge29_Node000021_Node000022" class="edge">
<title>Node21&#45;&gt;Node22</title>
<g id="a_edge29_Node000021_Node000022"><a xlink:title=" ">
<path fill="none" stroke="#63b8ff" d="M1311.45,-203.44C1310.9,-191.09 1310.23,-176.02 1309.8,-166.4"/>
<polygon fill="#63b8ff" stroke="#63b8ff" points="1307.94,-203.23 1311.88,-213.07 1314.93,-202.92 1307.94,-203.23"/>
</a>
</g>
</g>
</g>
</svg>
