<?xml version="1.0" encoding="UTF-8" standalone="no"?>
<!DOCTYPE svg PUBLIC "-//W3C//DTD SVG 1.1//EN"
 "http://www.w3.org/Graphics/SVG/1.1/DTD/svg11.dtd">
<!-- Generated by graphviz version 12.1.1 (0)
 -->
<!-- Title: boards/teensy31/include/board.h Pages: 1 -->
<svg width="156pt" height="155pt"
 viewBox="0.00 0.00 156.25 155.00" xmlns="http://www.w3.org/2000/svg" xmlns:xlink="http://www.w3.org/1999/xlink">
<g id="graph0" class="graph" transform="scale(1 1) rotate(0) translate(4 151)">
<title>boards/teensy31/include/board.h</title>
<!-- Node1 -->
<g id="Node000001" class="node">
<title>Node1</title>
<g id="a_Node000001"><a xlink:title="Board specific definitions for the Teensy3.1 &amp; 3.2 board.">
<polygon fill="#999999" stroke="#666666" points="135.25,-147 0,-147 0,-113.5 135.25,-113.5 135.25,-147"/>
<text text-anchor="start" x="8" y="-133.5" font-family="Helvetica,sans-Serif" font-size="10.00">boards/teensy31/include</text>
<text text-anchor="middle" x="67.62" y="-120.75" font-family="Helvetica,sans-Serif" font-size="10.00">/board.h</text>
</a>
</g>
</g>
<!-- Node2 -->
<g id="Node000002" class="node">
<title>Node2</title>
<g id="a_Node000002"><a xlink:title=" ">
<polygon fill="#e0e0e0" stroke="#999999" points="48.75,-77.5 6.5,-77.5 6.5,-56.75 48.75,-56.75 48.75,-77.5"/>
<text text-anchor="middle" x="27.62" y="-64" font-family="Helvetica,sans-Serif" font-size="10.00">cpu.h</text>
</a>
</g>
</g>
<!-- Node1&#45;&gt;Node2 -->
<g id="edge1_Node000001_Node000002" class="edge">
<title>Node1&#45;&gt;Node2</title>
<g id="a_edge1_Node000001_Node000002"><a xlink:title=" ">
<path fill="none" stroke="#63b8ff" d="M57.12,-113.19C51.97,-105.33 45.74,-95.81 40.33,-87.54"/>
<polygon fill="#63b8ff" stroke="#63b8ff" points="43.3,-85.68 34.89,-79.23 37.44,-89.52 43.3,-85.68"/>
</a>
</g>
</g>
<!-- Node3 -->
<g id="Node000003" class="node">
<title>Node3</title>
<g id="a_Node000003"><a xlink:href="boards_2teensy31_2include_2periph__conf_8h.html" target="_top" xlink:title=" ">
<polygon fill="white" stroke="#666666" points="148.25,-77.5 67,-77.5 67,-56.75 148.25,-56.75 148.25,-77.5"/>
<text text-anchor="middle" x="107.62" y="-64" font-family="Helvetica,sans-Serif" font-size="10.00">periph_conf.h</text>
</a>
</g>
</g>
<!-- Node1&#45;&gt;Node3 -->
<g id="edge2_Node000001_Node000003" class="edge">
<title>Node1&#45;&gt;Node3</title>
<g id="a_edge2_Node000001_Node000003"><a xlink:title=" ">
<path fill="none" stroke="#63b8ff" d="M78.13,-113.19C83.28,-105.33 89.51,-95.81 94.92,-87.54"/>
<polygon fill="#63b8ff" stroke="#63b8ff" points="97.81,-89.52 100.36,-79.23 91.95,-85.68 97.81,-89.52"/>
</a>
</g>
</g>
<!-- Node4 -->
<g id="Node000004" class="node">
<title>Node4</title>
<g id="a_Node000004"><a xlink:title=" ">
<polygon fill="#e0e0e0" stroke="#999999" points="146.75,-20.75 68.5,-20.75 68.5,0 146.75,0 146.75,-20.75"/>
<text text-anchor="middle" x="107.62" y="-7.25" font-family="Helvetica,sans-Serif" font-size="10.00">periph_cpu.h</text>
</a>
</g>
</g>
<!-- Node3&#45;&gt;Node4 -->
<g id="edge3_Node000003_Node000004" class="edge">
<title>Node3&#45;&gt;Node4</title>
<g id="a_edge3_Node000003_Node000004"><a xlink:title=" ">
<path fill="none" stroke="#63b8ff" d="M107.62,-56.34C107.62,-49.72 107.62,-40.72 107.62,-32.52"/>
<polygon fill="#63b8ff" stroke="#63b8ff" points="111.13,-32.59 107.63,-22.59 104.13,-32.59 111.13,-32.59"/>
</a>
</g>
</g>
</g>
</svg>
