<?xml version="1.0" encoding="UTF-8" standalone="no"?>
<!DOCTYPE svg PUBLIC "-//W3C//DTD SVG 1.1//EN"
 "http://www.w3.org/Graphics/SVG/1.1/DTD/svg11.dtd">
<!-- Generated by graphviz version 12.1.1 (0)
 -->
<!-- Title: sys/include/tiny_strerror.h Pages: 1 -->
<svg width="151pt" height="86pt"
 viewBox="0.00 0.00 150.75 85.50" xmlns="http://www.w3.org/2000/svg" xmlns:xlink="http://www.w3.org/1999/xlink">
<g id="graph0" class="graph" transform="scale(1 1) rotate(0) translate(4 81.5)">
<title>sys/include/tiny_strerror.h</title>
<!-- Node1 -->
<g id="Node000001" class="node">
<title>Node1</title>
<g id="a_Node000001"><a xlink:title="Tiny strerror() implementation.">
<polygon fill="#999999" stroke="#666666" points="142.75,-77.5 0,-77.5 0,-56.75 142.75,-56.75 142.75,-77.5"/>
<text text-anchor="middle" x="71.38" y="-64" font-family="Helvetica,sans-Serif" font-size="10.00">sys/include/tiny_strerror.h</text>
</a>
</g>
</g>
<!-- Node2 -->
<g id="Node000002" class="node">
<title>Node2</title>
<g id="a_Node000002"><a xlink:href="errno_8h.html" target="_top" xlink:title=" ">
<polygon fill="white" stroke="#666666" points="61.62,-20.75 11.12,-20.75 11.12,0 61.62,0 61.62,-20.75"/>
<text text-anchor="middle" x="36.38" y="-7.25" font-family="Helvetica,sans-Serif" font-size="10.00">errno.h</text>
</a>
</g>
</g>
<!-- Node1&#45;&gt;Node2 -->
<g id="edge1_Node000001_Node000002" class="edge">
<title>Node1&#45;&gt;Node2</title>
<g id="a_edge1_Node000001_Node000002"><a xlink:title=" ">
<path fill="none" stroke="#63b8ff" d="M65.12,-56.34C60.54,-49.17 54.18,-39.23 48.61,-30.51"/>
<polygon fill="#63b8ff" stroke="#63b8ff" points="51.73,-28.89 43.39,-22.35 45.83,-32.66 51.73,-28.89"/>
</a>
</g>
</g>
<!-- Node3 -->
<g id="Node000003" class="node">
<title>Node3</title>
<g id="a_Node000003"><a xlink:title=" ">
<polygon fill="#e0e0e0" stroke="#999999" points="132.75,-20.75 80,-20.75 80,0 132.75,0 132.75,-20.75"/>
<text text-anchor="middle" x="106.38" y="-7.25" font-family="Helvetica,sans-Serif" font-size="10.00">string.h</text>
</a>
</g>
</g>
<!-- Node1&#45;&gt;Node3 -->
<g id="edge2_Node000001_Node000003" class="edge">
<title>Node1&#45;&gt;Node3</title>
<g id="a_edge2_Node000001_Node000003"><a xlink:title=" ">
<path fill="none" stroke="#63b8ff" d="M77.63,-56.34C82.21,-49.17 88.57,-39.23 94.14,-30.51"/>
<polygon fill="#63b8ff" stroke="#63b8ff" points="96.92,-32.66 99.36,-22.35 91.02,-28.89 96.92,-32.66"/>
</a>
</g>
</g>
</g>
</svg>
