<?xml version="1.0" encoding="UTF-8" standalone="no"?>
<!DOCTYPE svg PUBLIC "-//W3C//DTD SVG 1.1//EN"
 "http://www.w3.org/Graphics/SVG/1.1/DTD/svg11.dtd">
<!-- Generated by graphviz version 12.1.1 (0)
 -->
<!-- Title: pkg/tlsf/contrib/include/tlsf&#45;malloc.h Pages: 1 -->
<svg width="136pt" height="98pt"
 viewBox="0.00 0.00 135.75 98.25" xmlns="http://www.w3.org/2000/svg" xmlns:xlink="http://www.w3.org/1999/xlink">
<g id="graph0" class="graph" transform="scale(1 1) rotate(0) translate(4 94.25)">
<title>pkg/tlsf/contrib/include/tlsf&#45;malloc.h</title>
<!-- Node1 -->
<g id="Node000001" class="node">
<title>Node1</title>
<g id="a_Node000001"><a xlink:title="TLSF&#45;based global memory allocator.">
<polygon fill="#999999" stroke="#666666" points="127.75,-90.25 0,-90.25 0,-56.75 127.75,-56.75 127.75,-90.25"/>
<text text-anchor="start" x="8" y="-76.75" font-family="Helvetica,sans-Serif" font-size="10.00">pkg/tlsf/contrib/include</text>
<text text-anchor="middle" x="63.88" y="-64" font-family="Helvetica,sans-Serif" font-size="10.00">/tlsf&#45;malloc.h</text>
</a>
</g>
</g>
<!-- Node2 -->
<g id="Node000002" class="node">
<title>Node2</title>
<g id="a_Node000002"><a xlink:title=" ">
<polygon fill="#e0e0e0" stroke="#999999" points="58.38,-20.75 3.38,-20.75 3.38,0 58.38,0 58.38,-20.75"/>
<text text-anchor="middle" x="30.88" y="-7.25" font-family="Helvetica,sans-Serif" font-size="10.00">stddef.h</text>
</a>
</g>
</g>
<!-- Node1&#45;&gt;Node2 -->
<g id="edge1_Node000001_Node000002" class="edge">
<title>Node1&#45;&gt;Node2</title>
<g id="a_edge1_Node000001_Node000002"><a xlink:title=" ">
<path fill="none" stroke="#63b8ff" d="M55.2,-56.44C51.06,-48.76 46.05,-39.48 41.66,-31.34"/>
<polygon fill="#63b8ff" stroke="#63b8ff" points="44.74,-29.69 36.91,-22.55 38.58,-33.01 44.74,-29.69"/>
</a>
</g>
</g>
<!-- Node3 -->
<g id="Node000003" class="node">
<title>Node3</title>
<g id="a_Node000003"><a xlink:title=" ">
<polygon fill="#e0e0e0" stroke="#999999" points="116.88,-20.75 76.88,-20.75 76.88,0 116.88,0 116.88,-20.75"/>
<text text-anchor="middle" x="96.88" y="-7.25" font-family="Helvetica,sans-Serif" font-size="10.00">tlsf.h</text>
</a>
</g>
</g>
<!-- Node1&#45;&gt;Node3 -->
<g id="edge2_Node000001_Node000003" class="edge">
<title>Node1&#45;&gt;Node3</title>
<g id="a_edge2_Node000001_Node000003"><a xlink:title=" ">
<path fill="none" stroke="#63b8ff" d="M72.55,-56.44C76.69,-48.76 81.7,-39.48 86.09,-31.34"/>
<polygon fill="#63b8ff" stroke="#63b8ff" points="89.17,-33.01 90.84,-22.55 83.01,-29.69 89.17,-33.01"/>
</a>
</g>
</g>
</g>
</svg>
