<?xml version="1.0" encoding="UTF-8" standalone="no"?>
<!DOCTYPE svg PUBLIC "-//W3C//DTD SVG 1.1//EN"
 "http://www.w3.org/Graphics/SVG/1.1/DTD/svg11.dtd">
<!-- Generated by graphviz version 12.1.1 (0)
 -->
<!-- Title: drivers/tps6274x/include/tps6274x_params.h Pages: 1 -->
<svg width="300pt" height="212pt"
 viewBox="0.00 0.00 299.62 211.75" xmlns="http://www.w3.org/2000/svg" xmlns:xlink="http://www.w3.org/1999/xlink">
<g id="graph0" class="graph" transform="scale(1 1) rotate(0) translate(4 207.75)">
<title>drivers/tps6274x/include/tps6274x_params.h</title>
<!-- Node1 -->
<g id="Node000001" class="node">
<title>Node1</title>
<g id="a_Node000001"><a xlink:title="Default configuration for TPS6274x DC&#45;DC Converter.">
<polygon fill="#999999" stroke="#666666" points="136,-203.75 0,-203.75 0,-170.25 136,-170.25 136,-203.75"/>
<text text-anchor="start" x="8" y="-190.25" font-family="Helvetica,sans-Serif" font-size="10.00">drivers/tps6274x/include</text>
<text text-anchor="middle" x="68" y="-177.5" font-family="Helvetica,sans-Serif" font-size="10.00">/tps6274x_params.h</text>
</a>
</g>
</g>
<!-- Node2 -->
<g id="Node000002" class="node">
<title>Node2</title>
<g id="a_Node000002"><a xlink:title=" ">
<polygon fill="#e0e0e0" stroke="#999999" points="55.38,-134.25 2.62,-134.25 2.62,-113.5 55.38,-113.5 55.38,-134.25"/>
<text text-anchor="middle" x="29" y="-120.75" font-family="Helvetica,sans-Serif" font-size="10.00">board.h</text>
</a>
</g>
</g>
<!-- Node1&#45;&gt;Node2 -->
<g id="edge1_Node000001_Node000002" class="edge">
<title>Node1&#45;&gt;Node2</title>
<g id="a_edge1_Node000001_Node000002"><a xlink:title=" ">
<path fill="none" stroke="#63b8ff" d="M57.75,-169.94C52.74,-162.08 46.66,-152.56 41.39,-144.29"/>
<polygon fill="#63b8ff" stroke="#63b8ff" points="44.42,-142.54 36.09,-135.99 38.52,-146.31 44.42,-142.54"/>
</a>
</g>
</g>
<!-- Node3 -->
<g id="Node000003" class="node">
<title>Node3</title>
<g id="a_Node000003"><a xlink:href="tps6274x_8h.html" target="_top" xlink:title="Device driver interface for the TPS6274x DC&#45;DC Converter.">
<polygon fill="white" stroke="#666666" points="143,-134.25 73,-134.25 73,-113.5 143,-113.5 143,-134.25"/>
<text text-anchor="middle" x="108" y="-120.75" font-family="Helvetica,sans-Serif" font-size="10.00">tps6274x.h</text>
</a>
</g>
</g>
<!-- Node1&#45;&gt;Node3 -->
<g id="edge2_Node000001_Node000003" class="edge">
<title>Node1&#45;&gt;Node3</title>
<g id="a_edge2_Node000001_Node000003"><a xlink:title=" ">
<path fill="none" stroke="#63b8ff" d="M78.51,-169.94C83.65,-162.08 89.89,-152.56 95.29,-144.29"/>
<polygon fill="#63b8ff" stroke="#63b8ff" points="98.18,-146.27 100.73,-135.98 92.33,-142.43 98.18,-146.27"/>
</a>
</g>
</g>
<!-- Node4 -->
<g id="Node000004" class="node">
<title>Node4</title>
<g id="a_Node000004"><a xlink:href="inttypes_8h.html" target="_top" xlink:title="Adds include for missing inttype definitions.">
<polygon fill="white" stroke="#666666" points="95.38,-77.5 30.62,-77.5 30.62,-56.75 95.38,-56.75 95.38,-77.5"/>
<text text-anchor="middle" x="63" y="-64" font-family="Helvetica,sans-Serif" font-size="10.00">inttypes.h</text>
</a>
</g>
</g>
<!-- Node3&#45;&gt;Node4 -->
<g id="edge3_Node000003_Node000004" class="edge">
<title>Node3&#45;&gt;Node4</title>
<g id="a_edge3_Node000003_Node000004"><a xlink:title=" ">
<path fill="none" stroke="#63b8ff" d="M99.95,-113.09C93.94,-105.77 85.53,-95.54 78.26,-86.69"/>
<polygon fill="#63b8ff" stroke="#63b8ff" points="80.99,-84.5 71.94,-79 75.58,-88.95 80.99,-84.5"/>
</a>
</g>
</g>
<!-- Node5 -->
<g id="Node000005" class="node">
<title>Node5</title>
<g id="a_Node000005"><a xlink:href="drivers_2include_2periph_2gpio_8h.html" target="_top" xlink:title="Low&#45;level GPIO peripheral driver interface definitions.">
<polygon fill="white" stroke="#666666" points="192.88,-77.5 113.12,-77.5 113.12,-56.75 192.88,-56.75 192.88,-77.5"/>
<text text-anchor="middle" x="153" y="-64" font-family="Helvetica,sans-Serif" font-size="10.00">periph/gpio.h</text>
</a>
</g>
</g>
<!-- Node3&#45;&gt;Node5 -->
<g id="edge4_Node000003_Node000005" class="edge">
<title>Node3&#45;&gt;Node5</title>
<g id="a_edge4_Node000003_Node000005"><a xlink:title=" ">
<path fill="none" stroke="#63b8ff" d="M116.05,-113.09C122.06,-105.77 130.47,-95.54 137.74,-86.69"/>
<polygon fill="#63b8ff" stroke="#63b8ff" points="140.42,-88.95 144.06,-79 135.01,-84.5 140.42,-88.95"/>
</a>
</g>
</g>
<!-- Node6 -->
<g id="Node000006" class="node">
<title>Node6</title>
<g id="a_Node000006"><a xlink:title=" ">
<polygon fill="#e0e0e0" stroke="#999999" points="95.38,-20.75 42.62,-20.75 42.62,0 95.38,0 95.38,-20.75"/>
<text text-anchor="middle" x="69" y="-7.25" font-family="Helvetica,sans-Serif" font-size="10.00">limits.h</text>
</a>
</g>
</g>
<!-- Node5&#45;&gt;Node6 -->
<g id="edge5_Node000005_Node000006" class="edge">
<title>Node5&#45;&gt;Node6</title>
<g id="a_edge5_Node000005_Node000006"><a xlink:title=" ">
<path fill="none" stroke="#63b8ff" d="M137.98,-56.34C125.56,-48.24 107.68,-36.58 93.23,-27.17"/>
<polygon fill="#63b8ff" stroke="#63b8ff" points="95.44,-24.43 85.16,-21.9 91.62,-30.3 95.44,-24.43"/>
</a>
</g>
</g>
<!-- Node7 -->
<g id="Node000007" class="node">
<title>Node7</title>
<g id="a_Node000007"><a xlink:title=" ">
<polygon fill="#e0e0e0" stroke="#999999" points="192.12,-20.75 113.88,-20.75 113.88,0 192.12,0 192.12,-20.75"/>
<text text-anchor="middle" x="153" y="-7.25" font-family="Helvetica,sans-Serif" font-size="10.00">periph_cpu.h</text>
</a>
</g>
</g>
<!-- Node5&#45;&gt;Node7 -->
<g id="edge6_Node000005_Node000007" class="edge">
<title>Node5&#45;&gt;Node7</title>
<g id="a_edge6_Node000005_Node000007"><a xlink:title=" ">
<path fill="none" stroke="#63b8ff" d="M153,-56.34C153,-49.72 153,-40.72 153,-32.52"/>
<polygon fill="#63b8ff" stroke="#63b8ff" points="156.5,-32.59 153,-22.59 149.5,-32.59 156.5,-32.59"/>
</a>
</g>
</g>
<!-- Node8 -->
<g id="Node000008" class="node">
<title>Node8</title>
<g id="a_Node000008"><a xlink:title=" ">
<polygon fill="#e0e0e0" stroke="#999999" points="291.62,-20.75 210.38,-20.75 210.38,0 291.62,0 291.62,-20.75"/>
<text text-anchor="middle" x="251" y="-7.25" font-family="Helvetica,sans-Serif" font-size="10.00">periph_conf.h</text>
</a>
</g>
</g>
<!-- Node5&#45;&gt;Node8 -->
<g id="edge7_Node000005_Node000008" class="edge">
<title>Node5&#45;&gt;Node8</title>
<g id="a_edge7_Node000005_Node000008"><a xlink:title=" ">
<path fill="none" stroke="#63b8ff" d="M170.52,-56.34C185.29,-48.08 206.68,-36.13 223.7,-26.63"/>
<polygon fill="#63b8ff" stroke="#63b8ff" points="225.29,-29.75 232.31,-21.82 221.87,-23.64 225.29,-29.75"/>
</a>
</g>
</g>
</g>
</svg>
