<?xml version="1.0" encoding="UTF-8" standalone="no"?>
<!DOCTYPE svg PUBLIC "-//W3C//DTD SVG 1.1//EN"
 "http://www.w3.org/Graphics/SVG/1.1/DTD/svg11.dtd">
<!-- Generated by graphviz version 12.1.1 (0)
 -->
<!-- Title: sys/include/trickle.h Pages: 1 -->
<svg width="696pt" height="332pt"
 viewBox="0.00 0.00 695.55 332.25" xmlns="http://www.w3.org/2000/svg" xmlns:xlink="http://www.w3.org/1999/xlink">
<g id="graph0" class="graph" transform="scale(1 1) rotate(0) translate(4 328.25)">
<title>sys/include/trickle.h</title>
<!-- Node1 -->
<g id="Node000001" class="node">
<title>Node1</title>
<g id="a_Node000001"><a xlink:title="Trickle timer interface definition.">
<polygon fill="#999999" stroke="#666666" points="451.05,-324.25 337.55,-324.25 337.55,-303.5 451.05,-303.5 451.05,-324.25"/>
<text text-anchor="middle" x="394.3" y="-310.75" font-family="Helvetica,sans-Serif" font-size="10.00">sys/include/trickle.h</text>
</a>
</g>
</g>
<!-- Node2 -->
<g id="Node000002" class="node">
<title>Node2</title>
<g id="a_Node000002"><a xlink:href="rpl_8h.html" target="_top" xlink:title="RPL header.">
<polygon fill="white" stroke="#666666" points="639.05,-115.75 525.55,-115.75 525.55,-82.25 639.05,-82.25 639.05,-115.75"/>
<text text-anchor="start" x="533.55" y="-102.25" font-family="Helvetica,sans-Serif" font-size="10.00">sys/include/net/gnrc</text>
<text text-anchor="middle" x="582.3" y="-89.5" font-family="Helvetica,sans-Serif" font-size="10.00">/rpl.h</text>
</a>
</g>
</g>
<!-- Node1&#45;&gt;Node2 -->
<g id="edge1_Node000001_Node000002" class="edge">
<title>Node1&#45;&gt;Node2</title>
<g id="a_edge1_Node000001_Node000002"><a xlink:title=" ">
<path fill="none" stroke="#63b8ff" d="M462.35,-305.29C527.37,-294.03 621.98,-266.23 667.3,-198 678.67,-180.88 677.37,-169.67 667.3,-151.75 658.32,-135.78 642.21,-124.17 626.4,-116.04"/>
<polygon fill="#63b8ff" stroke="#63b8ff" points="462.17,-301.77 452.87,-306.84 463.3,-308.68 462.17,-301.77"/>
</a>
</g>
</g>
<!-- Node3 -->
<g id="Node000003" class="node">
<title>Node3</title>
<g id="a_Node000003"><a xlink:href="dodag_8h.html" target="_top" xlink:title="DODAG&#45;related functions for RPL.">
<polygon fill="white" stroke="#666666" points="535.05,-39.88 421.55,-39.88 421.55,-6.38 535.05,-6.38 535.05,-39.88"/>
<text text-anchor="start" x="429.55" y="-26.38" font-family="Helvetica,sans-Serif" font-size="10.00">sys/include/net/gnrc</text>
<text text-anchor="middle" x="478.3" y="-13.62" font-family="Helvetica,sans-Serif" font-size="10.00">/rpl/dodag.h</text>
</a>
</g>
</g>
<!-- Node1&#45;&gt;Node3 -->
<g id="edge5_Node000001_Node000003" class="edge">
<title>Node1&#45;&gt;Node3</title>
<g id="a_edge5_Node000001_Node000003"><a xlink:title=" ">
<path fill="none" stroke="#63b8ff" d="M326.29,-301.58C229.66,-283.98 60.32,-246.9 24.3,-198 -6.21,-156.58 -9.69,-120.87 24.3,-82.25 50.15,-52.87 305.06,-34.29 421.19,-27.28"/>
<polygon fill="#63b8ff" stroke="#63b8ff" points="325.46,-304.98 335.92,-303.31 326.7,-298.09 325.46,-304.98"/>
</a>
</g>
</g>
<!-- Node5 -->
<g id="Node000005" class="node">
<title>Node5</title>
<g id="a_Node000005"><a xlink:href="structs_8h.html" target="_top" xlink:title="RPL data structs.">
<polygon fill="white" stroke="#666666" points="451.05,-267.5 337.55,-267.5 337.55,-234 451.05,-234 451.05,-267.5"/>
<text text-anchor="start" x="345.55" y="-254" font-family="Helvetica,sans-Serif" font-size="10.00">sys/include/net/gnrc</text>
<text text-anchor="middle" x="394.3" y="-241.25" font-family="Helvetica,sans-Serif" font-size="10.00">/rpl/structs.h</text>
</a>
</g>
</g>
<!-- Node1&#45;&gt;Node5 -->
<g id="edge6_Node000001_Node000005" class="edge">
<title>Node1&#45;&gt;Node5</title>
<g id="a_edge6_Node000001_Node000005"><a xlink:title=" ">
<path fill="none" stroke="#63b8ff" d="M394.3,-291.59C394.3,-283.85 394.3,-275.22 394.3,-267.98"/>
<polygon fill="#63b8ff" stroke="#63b8ff" points="390.8,-291.54 394.3,-301.54 397.8,-291.54 390.8,-291.54"/>
</a>
</g>
</g>
<!-- Node2&#45;&gt;Node3 -->
<g id="edge2_Node000002_Node000003" class="edge">
<title>Node2&#45;&gt;Node3</title>
<g id="a_edge2_Node000002_Node000003"><a xlink:title=" ">
<path fill="none" stroke="#63b8ff" d="M544.2,-75.4C527.45,-64.06 508.68,-50.59 495.37,-40.3"/>
<polygon fill="#63b8ff" stroke="#63b8ff" points="542.25,-78.31 552.51,-80.95 546.14,-72.48 542.25,-78.31"/>
</a>
</g>
</g>
<!-- Node4 -->
<g id="Node000004" class="node">
<title>Node4</title>
<g id="a_Node000004"><a xlink:href="gnrc__ipv6__auto__subnets_8c.html" target="_top" xlink:title=" ">
<polygon fill="white" stroke="#666666" points="687.55,-46.25 553.05,-46.25 553.05,0 687.55,0 687.55,-46.25"/>
<text text-anchor="start" x="561.05" y="-32.75" font-family="Helvetica,sans-Serif" font-size="10.00">sys/net/gnrc/routing</text>
<text text-anchor="start" x="561.05" y="-20" font-family="Helvetica,sans-Serif" font-size="10.00">/ipv6_auto_subnets/gnrc</text>
<text text-anchor="middle" x="620.3" y="-7.25" font-family="Helvetica,sans-Serif" font-size="10.00">_ipv6_auto_subnets.c</text>
</a>
</g>
</g>
<!-- Node2&#45;&gt;Node4 -->
<g id="edge4_Node000002_Node000004" class="edge">
<title>Node2&#45;&gt;Node4</title>
<g id="a_edge4_Node000002_Node000004"><a xlink:title=" ">
<path fill="none" stroke="#63b8ff" d="M595.8,-71.75C600.03,-63.52 604.67,-54.51 608.75,-46.57"/>
<polygon fill="#63b8ff" stroke="#63b8ff" points="592.7,-70.13 591.23,-80.62 598.92,-73.33 592.7,-70.13"/>
</a>
</g>
</g>
<!-- Node3&#45;&gt;Node2 -->
<g id="edge3_Node000003_Node000002" class="edge">
<title>Node3&#45;&gt;Node2</title>
<g id="a_edge3_Node000003_Node000002"><a xlink:title=" ">
<path fill="none" stroke="#63b8ff" d="M515.66,-46.24C532.67,-57.73 551.9,-71.52 565.41,-81.97"/>
<polygon fill="#63b8ff" stroke="#63b8ff" points="518.01,-43.6 507.75,-40.96 514.13,-49.42 518.01,-43.6"/>
</a>
</g>
</g>
<!-- Node5&#45;&gt;Node2 -->
<g id="edge7_Node000005_Node000002" class="edge">
<title>Node5&#45;&gt;Node2</title>
<g id="a_edge7_Node000005_Node000002"><a xlink:title=" ">
<path fill="none" stroke="#63b8ff" d="M442.04,-228.66C458.7,-220.26 477.03,-209.77 492.3,-198 494.47,-196.32 542.99,-143.15 567.87,-115.85"/>
<polygon fill="#63b8ff" stroke="#63b8ff" points="440.73,-225.41 433.29,-232.95 443.81,-231.69 440.73,-225.41"/>
</a>
</g>
</g>
<!-- Node5&#45;&gt;Node3 -->
<g id="edge8_Node000005_Node000003" class="edge">
<title>Node5&#45;&gt;Node3</title>
<g id="a_edge8_Node000005_Node000003"><a xlink:title=" ">
<path fill="none" stroke="#63b8ff" d="M433.08,-226.92C443.23,-219.05 453.06,-209.32 459.3,-198 487.87,-146.14 483.94,-72.4 480.44,-40.2"/>
<polygon fill="#63b8ff" stroke="#63b8ff" points="431.07,-224.06 425,-232.74 435.16,-229.74 431.07,-224.06"/>
</a>
</g>
</g>
<!-- Node6 -->
<g id="Node000006" class="node">
<title>Node6</title>
<g id="a_Node000006"><a xlink:href="of__manager_8h.html" target="_top" xlink:title="RPL Objective functions manager header.">
<polygon fill="white" stroke="#666666" points="658.05,-191.62 544.55,-191.62 544.55,-158.12 658.05,-158.12 658.05,-191.62"/>
<text text-anchor="start" x="552.55" y="-178.12" font-family="Helvetica,sans-Serif" font-size="10.00">sys/include/net/gnrc</text>
<text text-anchor="middle" x="601.3" y="-165.38" font-family="Helvetica,sans-Serif" font-size="10.00">/rpl/of_manager.h</text>
</a>
</g>
</g>
<!-- Node5&#45;&gt;Node6 -->
<g id="edge9_Node000005_Node000006" class="edge">
<title>Node5&#45;&gt;Node6</title>
<g id="a_edge9_Node000005_Node000006"><a xlink:title=" ">
<path fill="none" stroke="#63b8ff" d="M450.17,-229.81C483.34,-217.97 524.86,-203.16 555.97,-192.05"/>
<polygon fill="#63b8ff" stroke="#63b8ff" points="449.39,-226.37 441.15,-233.03 451.74,-232.96 449.39,-226.37"/>
</a>
</g>
</g>
<!-- Node7 -->
<g id="Node000007" class="node">
<title>Node7</title>
<g id="a_Node000007"><a xlink:href="p2p_8h.html" target="_top" xlink:title="Definititions for P2P&#45;RPL.">
<polygon fill="white" stroke="#666666" points="279.05,-115.75 165.55,-115.75 165.55,-82.25 279.05,-82.25 279.05,-115.75"/>
<text text-anchor="start" x="173.55" y="-102.25" font-family="Helvetica,sans-Serif" font-size="10.00">sys/include/net/gnrc</text>
<text text-anchor="middle" x="222.3" y="-89.5" font-family="Helvetica,sans-Serif" font-size="10.00">/rpl/p2p.h</text>
</a>
</g>
</g>
<!-- Node5&#45;&gt;Node7 -->
<g id="edge11_Node000005_Node000007" class="edge">
<title>Node5&#45;&gt;Node7</title>
<g id="a_edge11_Node000005_Node000007"><a xlink:title=" ">
<path fill="none" stroke="#63b8ff" d="M326.35,-241.12C274.96,-233.03 210.56,-219 194.3,-198 175.45,-173.65 195.16,-137.13 209.72,-116.23"/>
<polygon fill="#63b8ff" stroke="#63b8ff" points="325.52,-244.53 335.94,-242.57 326.58,-237.61 325.52,-244.53"/>
</a>
</g>
</g>
<!-- Node8 -->
<g id="Node000008" class="node">
<title>Node8</title>
<g id="a_Node000008"><a xlink:href="p2p__structs_8h.html" target="_top" xlink:title="P2P&#45;RPL data structs.">
<polygon fill="white" stroke="#666666" points="147.05,-191.62 33.55,-191.62 33.55,-158.12 147.05,-158.12 147.05,-191.62"/>
<text text-anchor="start" x="41.55" y="-178.12" font-family="Helvetica,sans-Serif" font-size="10.00">sys/include/net/gnrc</text>
<text text-anchor="middle" x="90.3" y="-165.38" font-family="Helvetica,sans-Serif" font-size="10.00">/rpl/p2p_structs.h</text>
</a>
</g>
</g>
<!-- Node5&#45;&gt;Node8 -->
<g id="edge12_Node000005_Node000008" class="edge">
<title>Node5&#45;&gt;Node8</title>
<g id="a_edge12_Node000005_Node000008"><a xlink:title=" ">
<path fill="none" stroke="#63b8ff" d="M326.29,-236.21C279.62,-226.54 216.41,-212.68 161.3,-198 154.56,-196.21 147.5,-194.18 140.57,-192.11"/>
<polygon fill="#63b8ff" stroke="#63b8ff" points="325.49,-239.62 335.99,-238.21 326.91,-232.76 325.49,-239.62"/>
</a>
</g>
</g>
<!-- Node10 -->
<g id="Node000010" class="node">
<title>Node10</title>
<g id="a_Node000010"><a xlink:href="validation_8h.html" target="_top" xlink:title="RPL control message validation functions.">
<polygon fill="white" stroke="#666666" points="319.55,-198 203.05,-198 203.05,-151.75 319.55,-151.75 319.55,-198"/>
<text text-anchor="start" x="211.05" y="-184.5" font-family="Helvetica,sans-Serif" font-size="10.00">sys/net/gnrc/routing</text>
<text text-anchor="start" x="211.05" y="-171.75" font-family="Helvetica,sans-Serif" font-size="10.00">/rpl/gnrc_rpl_internal</text>
<text text-anchor="middle" x="261.3" y="-159" font-family="Helvetica,sans-Serif" font-size="10.00">/validation.h</text>
</a>
</g>
</g>
<!-- Node5&#45;&gt;Node10 -->
<g id="edge15_Node000005_Node000010" class="edge">
<title>Node5&#45;&gt;Node10</title>
<g id="a_edge15_Node000005_Node000010"><a xlink:title=" ">
<path fill="none" stroke="#63b8ff" d="M355.11,-227.98C338.4,-218.7 318.9,-207.87 302.02,-198.49"/>
<polygon fill="#63b8ff" stroke="#63b8ff" points="353.34,-231.01 363.79,-232.8 356.74,-224.89 353.34,-231.01"/>
</a>
</g>
</g>
<!-- Node11 -->
<g id="Node000011" class="node">
<title>Node11</title>
<g id="a_Node000011"><a xlink:href="of0_8h.html" target="_top" xlink:title="Objective Function Zero.">
<polygon fill="white" stroke="#666666" points="450.67,-191.62 337.92,-191.62 337.92,-158.12 450.67,-158.12 450.67,-191.62"/>
<text text-anchor="start" x="345.92" y="-178.12" font-family="Helvetica,sans-Serif" font-size="10.00">sys/net/gnrc/routing</text>
<text text-anchor="middle" x="394.3" y="-165.38" font-family="Helvetica,sans-Serif" font-size="10.00">/rpl/of0.h</text>
</a>
</g>
</g>
<!-- Node5&#45;&gt;Node11 -->
<g id="edge16_Node000005_Node000011" class="edge">
<title>Node5&#45;&gt;Node11</title>
<g id="a_edge16_Node000005_Node000011"><a xlink:title=" ">
<path fill="none" stroke="#63b8ff" d="M394.3,-222.36C394.3,-212.1 394.3,-200.77 394.3,-191.87"/>
<polygon fill="#63b8ff" stroke="#63b8ff" points="390.8,-222.21 394.3,-232.21 397.8,-222.21 390.8,-222.21"/>
</a>
</g>
</g>
<!-- Node6&#45;&gt;Node2 -->
<g id="edge10_Node000006_Node000002" class="edge">
<title>Node6&#45;&gt;Node2</title>
<g id="a_edge10_Node000006_Node000002"><a xlink:title=" ">
<path fill="none" stroke="#63b8ff" d="M594.34,-146.82C591.68,-136.47 588.72,-125 586.41,-116"/>
<polygon fill="#63b8ff" stroke="#63b8ff" points="590.92,-147.57 596.8,-156.38 597.69,-145.82 590.92,-147.57"/>
</a>
</g>
</g>
<!-- Node8&#45;&gt;Node7 -->
<g id="edge13_Node000008_Node000007" class="edge">
<title>Node8&#45;&gt;Node7</title>
<g id="a_edge13_Node000008_Node000007"><a xlink:title=" ">
<path fill="none" stroke="#63b8ff" d="M129.27,-152.06C149.81,-140.57 174.58,-126.7 193.4,-116.17"/>
<polygon fill="#63b8ff" stroke="#63b8ff" points="127.6,-148.99 120.58,-156.92 131.02,-155.09 127.6,-148.99"/>
</a>
</g>
</g>
<!-- Node9 -->
<g id="Node000009" class="node">
<title>Node9</title>
<g id="a_Node000009"><a xlink:href="p2p__dodag_8h.html" target="_top" xlink:title="DODAG&#45;related functions for P2P&#45;RPL.">
<polygon fill="white" stroke="#666666" points="147.05,-115.75 33.55,-115.75 33.55,-82.25 147.05,-82.25 147.05,-115.75"/>
<text text-anchor="start" x="41.55" y="-102.25" font-family="Helvetica,sans-Serif" font-size="10.00">sys/include/net/gnrc</text>
<text text-anchor="middle" x="90.3" y="-89.5" font-family="Helvetica,sans-Serif" font-size="10.00">/rpl/p2p_dodag.h</text>
</a>
</g>
</g>
<!-- Node8&#45;&gt;Node9 -->
<g id="edge14_Node000008_Node000009" class="edge">
<title>Node8&#45;&gt;Node9</title>
<g id="a_edge14_Node000008_Node000009"><a xlink:title=" ">
<path fill="none" stroke="#63b8ff" d="M90.3,-146.49C90.3,-136.22 90.3,-124.9 90.3,-116"/>
<polygon fill="#63b8ff" stroke="#63b8ff" points="86.8,-146.33 90.3,-156.33 93.8,-146.33 86.8,-146.33"/>
</a>
</g>
</g>
</g>
</svg>
