<?xml version="1.0" encoding="UTF-8" standalone="no"?>
<!DOCTYPE svg PUBLIC "-//W3C//DTD SVG 1.1//EN"
 "http://www.w3.org/Graphics/SVG/1.1/DTD/svg11.dtd">
<!-- Generated by graphviz version 12.1.1 (0)
 -->
<!-- Title: drivers/tsl2561/include/tsl2561_params.h Pages: 1 -->
<svg width="721pt" height="212pt"
 viewBox="0.00 0.00 720.75 211.75" xmlns="http://www.w3.org/2000/svg" xmlns:xlink="http://www.w3.org/1999/xlink">
<g id="graph0" class="graph" transform="scale(1 1) rotate(0) translate(4 207.75)">
<title>drivers/tsl2561/include/tsl2561_params.h</title>
<!-- Node1 -->
<g id="Node000001" class="node">
<title>Node1</title>
<g id="a_Node000001"><a xlink:title="Default configuration for TSL2561.">
<polygon fill="#999999" stroke="#666666" points="473.88,-203.75 346.88,-203.75 346.88,-170.25 473.88,-170.25 473.88,-203.75"/>
<text text-anchor="start" x="354.88" y="-190.25" font-family="Helvetica,sans-Serif" font-size="10.00">drivers/tsl2561/include</text>
<text text-anchor="middle" x="410.38" y="-177.5" font-family="Helvetica,sans-Serif" font-size="10.00">/tsl2561_params.h</text>
</a>
</g>
</g>
<!-- Node2 -->
<g id="Node000002" class="node">
<title>Node2</title>
<g id="a_Node000002"><a xlink:title=" ">
<polygon fill="#e0e0e0" stroke="#999999" points="358.75,-134.25 306,-134.25 306,-113.5 358.75,-113.5 358.75,-134.25"/>
<text text-anchor="middle" x="332.38" y="-120.75" font-family="Helvetica,sans-Serif" font-size="10.00">board.h</text>
</a>
</g>
</g>
<!-- Node1&#45;&gt;Node2 -->
<g id="edge1_Node000001_Node000002" class="edge">
<title>Node1&#45;&gt;Node2</title>
<g id="a_edge1_Node000001_Node000002"><a xlink:title=" ">
<path fill="none" stroke="#63b8ff" d="M389.88,-169.94C378.74,-161.21 364.97,-150.42 353.7,-141.59"/>
<polygon fill="#63b8ff" stroke="#63b8ff" points="356.16,-139.06 346.13,-135.65 351.84,-144.57 356.16,-139.06"/>
</a>
</g>
</g>
<!-- Node3 -->
<g id="Node000003" class="node">
<title>Node3</title>
<g id="a_Node000003"><a xlink:href="saul__reg_8h.html" target="_top" xlink:title="SAUL registry interface definition.">
<polygon fill="white" stroke="#666666" points="443.5,-134.25 377.25,-134.25 377.25,-113.5 443.5,-113.5 443.5,-134.25"/>
<text text-anchor="middle" x="410.38" y="-120.75" font-family="Helvetica,sans-Serif" font-size="10.00">saul_reg.h</text>
</a>
</g>
</g>
<!-- Node1&#45;&gt;Node3 -->
<g id="edge2_Node000001_Node000003" class="edge">
<title>Node1&#45;&gt;Node3</title>
<g id="a_edge2_Node000001_Node000003"><a xlink:title=" ">
<path fill="none" stroke="#63b8ff" d="M410.38,-169.94C410.38,-162.6 410.38,-153.82 410.38,-145.96"/>
<polygon fill="#63b8ff" stroke="#63b8ff" points="413.88,-146.23 410.38,-136.23 406.88,-146.23 413.88,-146.23"/>
</a>
</g>
</g>
<!-- Node10 -->
<g id="Node000010" class="node">
<title>Node10</title>
<g id="a_Node000010"><a xlink:href="tsl2561_8h.html" target="_top" xlink:title="Device driver interface for the illuminance TSL2561 sensor.">
<polygon fill="white" stroke="#666666" points="522.88,-134.25 461.88,-134.25 461.88,-113.5 522.88,-113.5 522.88,-134.25"/>
<text text-anchor="middle" x="492.38" y="-120.75" font-family="Helvetica,sans-Serif" font-size="10.00">tsl2561.h</text>
</a>
</g>
</g>
<!-- Node1&#45;&gt;Node10 -->
<g id="edge10_Node000001_Node000010" class="edge">
<title>Node1&#45;&gt;Node10</title>
<g id="a_edge10_Node000001_Node000010"><a xlink:title=" ">
<path fill="none" stroke="#63b8ff" d="M431.92,-169.94C443.63,-161.21 458.11,-150.42 469.96,-141.59"/>
<polygon fill="#63b8ff" stroke="#63b8ff" points="472.03,-144.4 477.96,-135.62 467.85,-138.79 472.03,-144.4"/>
</a>
</g>
</g>
<!-- Node4 -->
<g id="Node000004" class="node">
<title>Node4</title>
<g id="a_Node000004"><a xlink:title=" ">
<polygon fill="#e0e0e0" stroke="#999999" points="392.75,-20.75 340,-20.75 340,0 392.75,0 392.75,-20.75"/>
<text text-anchor="middle" x="366.38" y="-7.25" font-family="Helvetica,sans-Serif" font-size="10.00">stdint.h</text>
</a>
</g>
</g>
<!-- Node3&#45;&gt;Node4 -->
<g id="edge3_Node000003_Node000004" class="edge">
<title>Node3&#45;&gt;Node4</title>
<g id="a_edge3_Node000003_Node000004"><a xlink:title=" ">
<path fill="none" stroke="#63b8ff" d="M399.27,-113.3C390.32,-104.86 378.29,-91.73 372.38,-77.5 366.48,-63.3 365.09,-45.95 365.13,-32.58"/>
<polygon fill="#63b8ff" stroke="#63b8ff" points="368.62,-32.84 365.44,-22.74 361.62,-32.62 368.62,-32.84"/>
</a>
</g>
</g>
<!-- Node5 -->
<g id="Node000005" class="node">
<title>Node5</title>
<g id="a_Node000005"><a xlink:title=" ">
<polygon fill="#e0e0e0" stroke="#999999" points="503,-77.5 457.75,-77.5 457.75,-56.75 503,-56.75 503,-77.5"/>
<text text-anchor="middle" x="480.38" y="-64" font-family="Helvetica,sans-Serif" font-size="10.00">saul.h</text>
</a>
</g>
</g>
<!-- Node3&#45;&gt;Node5 -->
<g id="edge4_Node000003_Node000005" class="edge">
<title>Node3&#45;&gt;Node5</title>
<g id="a_edge4_Node000003_Node000005"><a xlink:title=" ">
<path fill="none" stroke="#63b8ff" d="M422.89,-113.09C432.94,-105.22 447.29,-94 459.13,-84.74"/>
<polygon fill="#63b8ff" stroke="#63b8ff" points="461.06,-87.68 466.78,-78.76 456.74,-82.16 461.06,-87.68"/>
</a>
</g>
</g>
<!-- Node6 -->
<g id="Node000006" class="node">
<title>Node6</title>
<g id="a_Node000006"><a xlink:href="phydat_8h.html" target="_top" xlink:title="Generic data container for physical data interface.">
<polygon fill="white" stroke="#666666" points="439.75,-77.5 381,-77.5 381,-56.75 439.75,-56.75 439.75,-77.5"/>
<text text-anchor="middle" x="410.38" y="-64" font-family="Helvetica,sans-Serif" font-size="10.00">phydat.h</text>
</a>
</g>
</g>
<!-- Node3&#45;&gt;Node6 -->
<g id="edge5_Node000003_Node000006" class="edge">
<title>Node3&#45;&gt;Node6</title>
<g id="a_edge5_Node000003_Node000006"><a xlink:title=" ">
<path fill="none" stroke="#63b8ff" d="M410.38,-113.09C410.38,-106.47 410.38,-97.47 410.38,-89.27"/>
<polygon fill="#63b8ff" stroke="#63b8ff" points="413.88,-89.34 410.38,-79.34 406.88,-89.34 413.88,-89.34"/>
</a>
</g>
</g>
<!-- Node6&#45;&gt;Node4 -->
<g id="edge7_Node000006_Node000004" class="edge">
<title>Node6&#45;&gt;Node4</title>
<g id="a_edge7_Node000006_Node000004"><a xlink:title=" ">
<path fill="none" stroke="#63b8ff" d="M402.51,-56.34C396.63,-49.02 388.41,-38.79 381.3,-29.94"/>
<polygon fill="#63b8ff" stroke="#63b8ff" points="384.11,-27.86 375.12,-22.26 378.66,-32.25 384.11,-27.86"/>
</a>
</g>
</g>
<!-- Node7 -->
<g id="Node000007" class="node">
<title>Node7</title>
<g id="a_Node000007"><a xlink:title=" ">
<polygon fill="#e0e0e0" stroke="#999999" points="321.88,-20.75 266.88,-20.75 266.88,0 321.88,0 321.88,-20.75"/>
<text text-anchor="middle" x="294.38" y="-7.25" font-family="Helvetica,sans-Serif" font-size="10.00">stddef.h</text>
</a>
</g>
</g>
<!-- Node6&#45;&gt;Node7 -->
<g id="edge6_Node000006_Node000007" class="edge">
<title>Node6&#45;&gt;Node7</title>
<g id="a_edge6_Node000006_Node000007"><a xlink:title=" ">
<path fill="none" stroke="#63b8ff" d="M389.64,-56.34C371.74,-47.89 345.63,-35.57 325.27,-25.96"/>
<polygon fill="#63b8ff" stroke="#63b8ff" points="326.84,-22.83 316.3,-21.72 323.85,-29.16 326.84,-22.83"/>
</a>
</g>
</g>
<!-- Node8 -->
<g id="Node000008" class="node">
<title>Node8</title>
<g id="a_Node000008"><a xlink:title=" ">
<polygon fill="#e0e0e0" stroke="#999999" points="567.12,-20.75 495.62,-20.75 495.62,0 567.12,0 567.12,-20.75"/>
<text text-anchor="middle" x="531.38" y="-7.25" font-family="Helvetica,sans-Serif" font-size="10.00">sys/types.h</text>
</a>
</g>
</g>
<!-- Node6&#45;&gt;Node8 -->
<g id="edge8_Node000006_Node000008" class="edge">
<title>Node6&#45;&gt;Node8</title>
<g id="a_edge8_Node000006_Node000008"><a xlink:title=" ">
<path fill="none" stroke="#63b8ff" d="M432.01,-56.34C450.85,-47.81 478.41,-35.34 499.73,-25.69"/>
<polygon fill="#63b8ff" stroke="#63b8ff" points="500.88,-29.01 508.55,-21.7 498,-22.64 500.88,-29.01"/>
</a>
</g>
</g>
<!-- Node9 -->
<g id="Node000009" class="node">
<title>Node9</title>
<g id="a_Node000009"><a xlink:href="modules_8h.html" target="_top" xlink:title="Common macros and compiler attributes/pragmas configuration.">
<polygon fill="white" stroke="#666666" points="477.88,-20.75 410.88,-20.75 410.88,0 477.88,0 477.88,-20.75"/>
<text text-anchor="middle" x="444.38" y="-7.25" font-family="Helvetica,sans-Serif" font-size="10.00">modules.h</text>
</a>
</g>
</g>
<!-- Node6&#45;&gt;Node9 -->
<g id="edge9_Node000006_Node000009" class="edge">
<title>Node6&#45;&gt;Node9</title>
<g id="a_edge9_Node000006_Node000009"><a xlink:title=" ">
<path fill="none" stroke="#63b8ff" d="M416.45,-56.34C420.85,-49.25 426.95,-39.44 432.32,-30.79"/>
<polygon fill="#63b8ff" stroke="#63b8ff" points="435.25,-32.71 437.55,-22.36 429.3,-29.01 435.25,-32.71"/>
</a>
</g>
</g>
<!-- Node11 -->
<g id="Node000011" class="node">
<title>Node11</title>
<g id="a_Node000011"><a xlink:href="drivers_2include_2saul_8h.html" target="_top" xlink:title="Definition of the generic [S]ensor [A]ctuator [U]ber [L]ayer.">
<polygon fill="white" stroke="#666666" points="566,-77.5 520.75,-77.5 520.75,-56.75 566,-56.75 566,-77.5"/>
<text text-anchor="middle" x="543.38" y="-64" font-family="Helvetica,sans-Serif" font-size="10.00">saul.h</text>
</a>
</g>
</g>
<!-- Node10&#45;&gt;Node11 -->
<g id="edge11_Node000010_Node000011" class="edge">
<title>Node10&#45;&gt;Node11</title>
<g id="a_edge11_Node000010_Node000011"><a xlink:title=" ">
<path fill="none" stroke="#63b8ff" d="M501.49,-113.09C508.46,-105.61 518.24,-95.11 526.61,-86.13"/>
<polygon fill="#63b8ff" stroke="#63b8ff" points="529.05,-88.64 533.3,-78.94 523.93,-83.87 529.05,-88.64"/>
</a>
</g>
</g>
<!-- Node14 -->
<g id="Node000014" class="node">
<title>Node14</title>
<g id="a_Node000014"><a xlink:href="i2c_8h.html" target="_top" xlink:title="Low&#45;level I2C peripheral driver interface definition.">
<polygon fill="white" stroke="#666666" points="291.88,-77.5 218.88,-77.5 218.88,-56.75 291.88,-56.75 291.88,-77.5"/>
<text text-anchor="middle" x="255.38" y="-64" font-family="Helvetica,sans-Serif" font-size="10.00">periph/i2c.h</text>
</a>
</g>
</g>
<!-- Node10&#45;&gt;Node14 -->
<g id="edge16_Node000010_Node000014" class="edge">
<title>Node10&#45;&gt;Node14</title>
<g id="a_edge16_Node000010_Node000014"><a xlink:title=" ">
<path fill="none" stroke="#63b8ff" d="M461.8,-115.7C458.62,-114.95 455.43,-114.21 452.38,-113.5 401.39,-101.65 342.96,-88.21 303.05,-79.05"/>
<polygon fill="#63b8ff" stroke="#63b8ff" points="304.06,-75.69 293.53,-76.87 302.49,-82.52 304.06,-75.69"/>
</a>
</g>
</g>
<!-- Node11&#45;&gt;Node4 -->
<g id="edge13_Node000011_Node000004" class="edge">
<title>Node11&#45;&gt;Node4</title>
<g id="a_edge13_Node000011_Node000004"><a xlink:title=" ">
<path fill="none" stroke="#63b8ff" d="M520.6,-59.08C491.11,-49.96 439.32,-33.94 403.96,-23"/>
<polygon fill="#63b8ff" stroke="#63b8ff" points="405.14,-19.7 394.55,-20.09 403.07,-26.39 405.14,-19.7"/>
</a>
</g>
</g>
<!-- Node11&#45;&gt;Node8 -->
<g id="edge14_Node000011_Node000008" class="edge">
<title>Node11&#45;&gt;Node8</title>
<g id="a_edge14_Node000011_Node000008"><a xlink:title=" ">
<path fill="none" stroke="#63b8ff" d="M541.23,-56.34C539.76,-49.64 537.76,-40.51 535.95,-32.23"/>
<polygon fill="#63b8ff" stroke="#63b8ff" points="539.39,-31.58 533.83,-22.56 532.55,-33.07 539.39,-31.58"/>
</a>
</g>
</g>
<!-- Node12 -->
<g id="Node000012" class="node">
<title>Node12</title>
<g id="a_Node000012"><a xlink:href="errno_8h.html" target="_top" xlink:title=" ">
<polygon fill="white" stroke="#666666" points="635.62,-20.75 585.12,-20.75 585.12,0 635.62,0 635.62,-20.75"/>
<text text-anchor="middle" x="610.38" y="-7.25" font-family="Helvetica,sans-Serif" font-size="10.00">errno.h</text>
</a>
</g>
</g>
<!-- Node11&#45;&gt;Node12 -->
<g id="edge12_Node000011_Node000012" class="edge">
<title>Node11&#45;&gt;Node12</title>
<g id="a_edge12_Node000011_Node000012"><a xlink:title=" ">
<path fill="none" stroke="#63b8ff" d="M555.35,-56.34C564.88,-48.55 578.44,-37.47 589.71,-28.26"/>
<polygon fill="#63b8ff" stroke="#63b8ff" points="591.8,-31.07 597.33,-22.04 587.37,-25.65 591.8,-31.07"/>
</a>
</g>
</g>
<!-- Node13 -->
<g id="Node000013" class="node">
<title>Node13</title>
<g id="a_Node000013"><a xlink:title=" ">
<polygon fill="#e0e0e0" stroke="#999999" points="712.75,-20.75 654,-20.75 654,0 712.75,0 712.75,-20.75"/>
<text text-anchor="middle" x="683.38" y="-7.25" font-family="Helvetica,sans-Serif" font-size="10.00">phydat.h</text>
</a>
</g>
</g>
<!-- Node11&#45;&gt;Node13 -->
<g id="edge15_Node000011_Node000013" class="edge">
<title>Node11&#45;&gt;Node13</title>
<g id="a_edge15_Node000011_Node000013"><a xlink:title=" ">
<path fill="none" stroke="#63b8ff" d="M566.49,-57.08C588.65,-48.42 622.39,-35.22 647.94,-25.23"/>
<polygon fill="#63b8ff" stroke="#63b8ff" points="648.88,-28.62 656.92,-21.72 646.33,-22.1 648.88,-28.62"/>
</a>
</g>
</g>
<!-- Node14&#45;&gt;Node4 -->
<g id="edge17_Node000014_Node000004" class="edge">
<title>Node14&#45;&gt;Node4</title>
<g id="a_edge17_Node000014_Node000004"><a xlink:title=" ">
<path fill="none" stroke="#63b8ff" d="M275.22,-56.34C292.27,-47.93 317.1,-35.68 336.54,-26.09"/>
<polygon fill="#63b8ff" stroke="#63b8ff" points="337.92,-29.31 345.34,-21.75 334.83,-23.03 337.92,-29.31"/>
</a>
</g>
</g>
<!-- Node14&#45;&gt;Node7 -->
<g id="edge18_Node000014_Node000007" class="edge">
<title>Node14&#45;&gt;Node7</title>
<g id="a_edge18_Node000014_Node000007"><a xlink:title=" ">
<path fill="none" stroke="#63b8ff" d="M262.35,-56.34C267.51,-49.1 274.69,-39.01 280.95,-30.22"/>
<polygon fill="#63b8ff" stroke="#63b8ff" points="283.63,-32.49 286.58,-22.31 277.93,-28.43 283.63,-32.49"/>
</a>
</g>
</g>
<!-- Node15 -->
<g id="Node000015" class="node">
<title>Node15</title>
<g id="a_Node000015"><a xlink:title=" ">
<polygon fill="#e0e0e0" stroke="#999999" points="52.75,-20.75 0,-20.75 0,0 52.75,0 52.75,-20.75"/>
<text text-anchor="middle" x="26.38" y="-7.25" font-family="Helvetica,sans-Serif" font-size="10.00">limits.h</text>
</a>
</g>
</g>
<!-- Node14&#45;&gt;Node15 -->
<g id="edge19_Node000014_Node000015" class="edge">
<title>Node14&#45;&gt;Node15</title>
<g id="a_edge19_Node000014_Node000015"><a xlink:title=" ">
<path fill="none" stroke="#63b8ff" d="M218.46,-57.86C181.66,-49.54 123.25,-36.11 64.14,-21.39"/>
<polygon fill="#63b8ff" stroke="#63b8ff" points="65.12,-18.03 54.57,-19 63.42,-24.82 65.12,-18.03"/>
</a>
</g>
</g>
<!-- Node16 -->
<g id="Node000016" class="node">
<title>Node16</title>
<g id="a_Node000016"><a xlink:title=" ">
<polygon fill="#e0e0e0" stroke="#999999" points="152,-20.75 70.75,-20.75 70.75,0 152,0 152,-20.75"/>
<text text-anchor="middle" x="111.38" y="-7.25" font-family="Helvetica,sans-Serif" font-size="10.00">periph_conf.h</text>
</a>
</g>
</g>
<!-- Node14&#45;&gt;Node16 -->
<g id="edge20_Node000014_Node000016" class="edge">
<title>Node14&#45;&gt;Node16</title>
<g id="a_edge20_Node000014_Node000016"><a xlink:title=" ">
<path fill="none" stroke="#63b8ff" d="M229.63,-56.34C206.8,-47.66 173.2,-34.88 147.65,-25.17"/>
<polygon fill="#63b8ff" stroke="#63b8ff" points="148.9,-21.9 138.31,-21.62 146.41,-28.44 148.9,-21.9"/>
</a>
</g>
</g>
<!-- Node17 -->
<g id="Node000017" class="node">
<title>Node17</title>
<g id="a_Node000017"><a xlink:title=" ">
<polygon fill="#e0e0e0" stroke="#999999" points="248.5,-20.75 170.25,-20.75 170.25,0 248.5,0 248.5,-20.75"/>
<text text-anchor="middle" x="209.38" y="-7.25" font-family="Helvetica,sans-Serif" font-size="10.00">periph_cpu.h</text>
</a>
</g>
</g>
<!-- Node14&#45;&gt;Node17 -->
<g id="edge21_Node000014_Node000017" class="edge">
<title>Node14&#45;&gt;Node17</title>
<g id="a_edge21_Node000014_Node000017"><a xlink:title=" ">
<path fill="none" stroke="#63b8ff" d="M247.15,-56.34C240.94,-48.94 232.23,-38.57 224.74,-29.66"/>
<polygon fill="#63b8ff" stroke="#63b8ff" points="227.61,-27.64 218.5,-22.24 222.25,-32.15 227.61,-27.64"/>
</a>
</g>
</g>
</g>
</svg>
