<?xml version="1.0" encoding="UTF-8" standalone="no"?>
<!DOCTYPE svg PUBLIC "-//W3C//DTD SVG 1.1//EN"
 "http://www.w3.org/Graphics/SVG/1.1/DTD/svg11.dtd">
<!-- Generated by graphviz version 12.1.1 (0)
 -->
<!-- Title: sys/include/tsrb.h Pages: 1 -->
<svg width="875pt" height="364pt"
 viewBox="0.00 0.00 874.69 363.50" xmlns="http://www.w3.org/2000/svg" xmlns:xlink="http://www.w3.org/1999/xlink">
<g id="graph0" class="graph" transform="scale(1 1) rotate(0) translate(4 359.5)">
<title>sys/include/tsrb.h</title>
<!-- Node1 -->
<g id="Node000001" class="node">
<title>Node1</title>
<g id="a_Node000001"><a xlink:title="Thread&#45;safe ringbuffer interface definition.">
<polygon fill="#999999" stroke="#666666" points="374.69,-355.5 273.19,-355.5 273.19,-334.75 374.69,-334.75 374.69,-355.5"/>
<text text-anchor="middle" x="323.94" y="-342" font-family="Helvetica,sans-Serif" font-size="10.00">sys/include/tsrb.h</text>
</a>
</g>
</g>
<!-- Node2 -->
<g id="Node000002" class="node">
<title>Node2</title>
<g id="a_Node000002"><a xlink:href="ethos_8h.html" target="_top" xlink:title="Interface definition for the ethernet&#45;over&#45;serial module.">
<polygon fill="white" stroke="#666666" points="441.44,-90.25 314.44,-90.25 314.44,-69.5 441.44,-69.5 441.44,-90.25"/>
<text text-anchor="middle" x="377.94" y="-76.75" font-family="Helvetica,sans-Serif" font-size="10.00">drivers/include/ethos.h</text>
</a>
</g>
</g>
<!-- Node1&#45;&gt;Node2 -->
<g id="edge1_Node000001_Node000002" class="edge">
<title>Node1&#45;&gt;Node2</title>
<g id="a_edge1_Node000001_Node000002"><a xlink:title=" ">
<path fill="none" stroke="#63b8ff" d="M261.38,-340.35C155.98,-331.09 -41,-299.75 7.94,-195.75 28.57,-151.91 47.78,-146.2 91.94,-126.25 163.52,-93.91 254.27,-84.15 314.12,-81.44"/>
<polygon fill="#63b8ff" stroke="#63b8ff" points="261.07,-343.83 271.32,-341.17 261.65,-336.86 261.07,-343.83"/>
</a>
</g>
</g>
<!-- Node4 -->
<g id="Node000004" class="node">
<title>Node4</title>
<g id="a_Node000004"><a xlink:href="isrpipe_8h.html" target="_top" xlink:title="isrpipe Interface">
<polygon fill="white" stroke="#666666" points="381.81,-292.38 266.06,-292.38 266.06,-271.62 381.81,-271.62 381.81,-292.38"/>
<text text-anchor="middle" x="323.94" y="-278.88" font-family="Helvetica,sans-Serif" font-size="10.00">sys/include/isrpipe.h</text>
</a>
</g>
</g>
<!-- Node1&#45;&gt;Node4 -->
<g id="edge3_Node000001_Node000004" class="edge">
<title>Node1&#45;&gt;Node4</title>
<g id="a_edge3_Node000001_Node000004"><a xlink:title=" ">
<path fill="none" stroke="#63b8ff" d="M323.94,-322.86C323.94,-312.55 323.94,-300.68 323.94,-292.59"/>
<polygon fill="#63b8ff" stroke="#63b8ff" points="320.44,-322.79 323.94,-332.79 327.44,-322.79 320.44,-322.79"/>
</a>
</g>
</g>
<!-- Node15 -->
<g id="Node000015" class="node">
<title>Node15</title>
<g id="a_Node000015"><a xlink:href="acm_8h.html" target="_top" xlink:title="Interface and definitions for USB CDC ACM type interfaces in USBUS.">
<polygon fill="white" stroke="#666666" points="664.19,-298.75 541.69,-298.75 541.69,-265.25 664.19,-265.25 664.19,-298.75"/>
<text text-anchor="start" x="549.69" y="-285.25" font-family="Helvetica,sans-Serif" font-size="10.00">sys/include/usb/usbus</text>
<text text-anchor="middle" x="602.94" y="-272.5" font-family="Helvetica,sans-Serif" font-size="10.00">/cdc/acm.h</text>
</a>
</g>
</g>
<!-- Node1&#45;&gt;Node15 -->
<g id="edge15_Node000001_Node000015" class="edge">
<title>Node1&#45;&gt;Node15</title>
<g id="a_edge15_Node000001_Node000015"><a xlink:title=" ">
<path fill="none" stroke="#63b8ff" d="M379.89,-331.87C426.6,-321.63 493.1,-307.06 541.32,-296.5"/>
<polygon fill="#63b8ff" stroke="#63b8ff" points="379.26,-328.42 370.24,-333.98 380.76,-335.26 379.26,-328.42"/>
</a>
</g>
</g>
<!-- Node3 -->
<g id="Node000003" class="node">
<title>Node3</title>
<g id="a_Node000003"><a xlink:href="ethos__params_8h.html" target="_top" xlink:title="Default configuration for the ethos device driver.">
<polygon fill="white" stroke="#666666" points="436.94,-33.5 318.94,-33.5 318.94,0 436.94,0 436.94,-33.5"/>
<text text-anchor="start" x="326.94" y="-20" font-family="Helvetica,sans-Serif" font-size="10.00">drivers/ethos/include</text>
<text text-anchor="middle" x="377.94" y="-7.25" font-family="Helvetica,sans-Serif" font-size="10.00">/ethos_params.h</text>
</a>
</g>
</g>
<!-- Node2&#45;&gt;Node3 -->
<g id="edge2_Node000002_Node000003" class="edge">
<title>Node2&#45;&gt;Node3</title>
<g id="a_edge2_Node000002_Node000003"><a xlink:title=" ">
<path fill="none" stroke="#63b8ff" d="M377.94,-57.59C377.94,-49.85 377.94,-41.22 377.94,-33.98"/>
<polygon fill="#63b8ff" stroke="#63b8ff" points="374.44,-57.54 377.94,-67.54 381.44,-57.54 374.44,-57.54"/>
</a>
</g>
</g>
<!-- Node5 -->
<g id="Node000005" class="node">
<title>Node5</title>
<g id="a_Node000005"><a xlink:href="at_8h.html" target="_top" xlink:title="AT (Hayes) library interface.">
<polygon fill="white" stroke="#666666" points="126.81,-222.88 17.06,-222.88 17.06,-202.12 126.81,-202.12 126.81,-222.88"/>
<text text-anchor="middle" x="71.94" y="-209.38" font-family="Helvetica,sans-Serif" font-size="10.00">drivers/include/at.h</text>
</a>
</g>
</g>
<!-- Node4&#45;&gt;Node5 -->
<g id="edge4_Node000004_Node000005" class="edge">
<title>Node4&#45;&gt;Node5</title>
<g id="a_edge4_Node000004_Node000005"><a xlink:title=" ">
<path fill="none" stroke="#63b8ff" d="M276.41,-268.27C227.69,-255.22 152.97,-235.21 108.62,-223.33"/>
<polygon fill="#63b8ff" stroke="#63b8ff" points="275.27,-271.59 285.83,-270.79 277.08,-264.83 275.27,-271.59"/>
</a>
</g>
</g>
<!-- Node6 -->
<g id="Node000006" class="node">
<title>Node6</title>
<g id="a_Node000006"><a xlink:href="ir__nec_8h.html" target="_top" xlink:title=" ">
<polygon fill="white" stroke="#666666" points="242.81,-229.25 145.06,-229.25 145.06,-195.75 242.81,-195.75 242.81,-229.25"/>
<text text-anchor="start" x="153.06" y="-215.75" font-family="Helvetica,sans-Serif" font-size="10.00">drivers/include/ir</text>
<text text-anchor="middle" x="193.94" y="-203" font-family="Helvetica,sans-Serif" font-size="10.00">_nec.h</text>
</a>
</g>
</g>
<!-- Node4&#45;&gt;Node6 -->
<g id="edge5_Node000004_Node000006" class="edge">
<title>Node4&#45;&gt;Node6</title>
<g id="a_edge5_Node000004_Node000006"><a xlink:title=" ">
<path fill="none" stroke="#63b8ff" d="M294.93,-265.94C274.22,-255.18 246.39,-240.74 225.19,-229.73"/>
<polygon fill="#63b8ff" stroke="#63b8ff" points="293.2,-268.99 303.69,-270.49 296.43,-262.77 293.2,-268.99"/>
</a>
</g>
</g>
<!-- Node8 -->
<g id="Node000008" class="node">
<title>Node8</title>
<g id="a_Node000008"><a xlink:href="slipdev__internal_8h.html" target="_top" xlink:title=" ">
<polygon fill="white" stroke="#666666" points="387.06,-229.25 260.81,-229.25 260.81,-195.75 387.06,-195.75 387.06,-229.25"/>
<text text-anchor="start" x="268.81" y="-215.75" font-family="Helvetica,sans-Serif" font-size="10.00">drivers/slipdev/include</text>
<text text-anchor="middle" x="323.94" y="-203" font-family="Helvetica,sans-Serif" font-size="10.00">/slipdev_internal.h</text>
</a>
</g>
</g>
<!-- Node4&#45;&gt;Node8 -->
<g id="edge7_Node000004_Node000008" class="edge">
<title>Node4&#45;&gt;Node8</title>
<g id="a_edge7_Node000004_Node000008"><a xlink:title=" ">
<path fill="none" stroke="#63b8ff" d="M323.94,-260.13C323.94,-250.32 323.94,-238.8 323.94,-229.67"/>
<polygon fill="#63b8ff" stroke="#63b8ff" points="320.44,-259.82 323.94,-269.82 327.44,-259.82 320.44,-259.82"/>
</a>
</g>
</g>
<!-- Node9 -->
<g id="Node000009" class="node">
<title>Node9</title>
<g id="a_Node000009"><a xlink:href="read__timeout_8h.html" target="_top" xlink:title="isrpipe read timeout Interface">
<polygon fill="white" stroke="#666666" points="512.31,-229.25 405.56,-229.25 405.56,-195.75 512.31,-195.75 512.31,-229.25"/>
<text text-anchor="start" x="413.56" y="-215.75" font-family="Helvetica,sans-Serif" font-size="10.00">sys/include/isrpipe</text>
<text text-anchor="middle" x="458.94" y="-203" font-family="Helvetica,sans-Serif" font-size="10.00">/read_timeout.h</text>
</a>
</g>
</g>
<!-- Node4&#45;&gt;Node9 -->
<g id="edge8_Node000004_Node000009" class="edge">
<title>Node4&#45;&gt;Node9</title>
<g id="a_edge8_Node000004_Node000009"><a xlink:title=" ">
<path fill="none" stroke="#63b8ff" d="M353.77,-266.08C375.3,-255.32 404.37,-240.79 426.48,-229.73"/>
<polygon fill="#63b8ff" stroke="#63b8ff" points="352.3,-262.91 344.92,-270.51 355.43,-269.17 352.3,-262.91"/>
</a>
</g>
</g>
<!-- Node10 -->
<g id="Node000010" class="node">
<title>Node10</title>
<g id="a_Node000010"><a xlink:href="stdio__base_8h.html" target="_top" xlink:title=" ">
<polygon fill="white" stroke="#666666" points="665.56,-222.88 530.31,-222.88 530.31,-202.12 665.56,-202.12 665.56,-222.88"/>
<text text-anchor="middle" x="597.94" y="-209.38" font-family="Helvetica,sans-Serif" font-size="10.00">sys/include/stdio_base.h</text>
</a>
</g>
</g>
<!-- Node4&#45;&gt;Node10 -->
<g id="edge9_Node000004_Node000010" class="edge">
<title>Node4&#45;&gt;Node10</title>
<g id="a_edge9_Node000004_Node000010"><a xlink:title=" ">
<path fill="none" stroke="#63b8ff" d="M374.95,-268.43C427.9,-255.39 509.63,-235.26 558.05,-223.33"/>
<polygon fill="#63b8ff" stroke="#63b8ff" points="374.12,-265.03 365.25,-270.82 375.8,-271.83 374.12,-265.03"/>
</a>
</g>
</g>
<!-- Node7 -->
<g id="Node000007" class="node">
<title>Node7</title>
<g id="a_Node000007"><a xlink:href="ir__nec__params_8h.html" target="_top" xlink:title="Default configuration.">
<polygon fill="white" stroke="#666666" points="221.06,-159.75 100.81,-159.75 100.81,-126.25 221.06,-126.25 221.06,-159.75"/>
<text text-anchor="start" x="108.81" y="-146.25" font-family="Helvetica,sans-Serif" font-size="10.00">drivers/ir_nec/include</text>
<text text-anchor="middle" x="160.94" y="-133.5" font-family="Helvetica,sans-Serif" font-size="10.00">/ir_nec_params.h</text>
</a>
</g>
</g>
<!-- Node6&#45;&gt;Node7 -->
<g id="edge6_Node000006_Node000007" class="edge">
<title>Node6&#45;&gt;Node7</title>
<g id="a_edge6_Node000006_Node000007"><a xlink:title=" ">
<path fill="none" stroke="#63b8ff" d="M181.08,-185.21C176.9,-176.66 172.39,-167.43 168.7,-159.88"/>
<polygon fill="#63b8ff" stroke="#63b8ff" points="177.92,-186.7 185.45,-194.14 184.2,-183.62 177.92,-186.7"/>
</a>
</g>
</g>
<!-- Node11 -->
<g id="Node000011" class="node">
<title>Node11</title>
<g id="a_Node000011"><a xlink:href="stdio__nimble_8h.html" target="_top" xlink:title=" ">
<polygon fill="white" stroke="#666666" points="384.81,-153.38 239.06,-153.38 239.06,-132.62 384.81,-132.62 384.81,-153.38"/>
<text text-anchor="middle" x="311.94" y="-139.88" font-family="Helvetica,sans-Serif" font-size="10.00">sys/include/stdio_nimble.h</text>
</a>
</g>
</g>
<!-- Node10&#45;&gt;Node11 -->
<g id="edge10_Node000010_Node000011" class="edge">
<title>Node10&#45;&gt;Node11</title>
<g id="a_edge10_Node000010_Node000011"><a xlink:title=" ">
<path fill="none" stroke="#63b8ff" d="M545.39,-199.1C490.14,-186.06 404.33,-165.81 353.57,-153.83"/>
<polygon fill="#63b8ff" stroke="#63b8ff" points="544.34,-202.45 554.88,-201.34 545.95,-195.63 544.34,-202.45"/>
</a>
</g>
</g>
<!-- Node12 -->
<g id="Node000012" class="node">
<title>Node12</title>
<g id="a_Node000012"><a xlink:href="stdio__rtt_8h.html" target="_top" xlink:title=" ">
<polygon fill="white" stroke="#666666" points="526.56,-153.38 403.31,-153.38 403.31,-132.62 526.56,-132.62 526.56,-153.38"/>
<text text-anchor="middle" x="464.94" y="-139.88" font-family="Helvetica,sans-Serif" font-size="10.00">sys/include/stdio_rtt.h</text>
</a>
</g>
</g>
<!-- Node10&#45;&gt;Node12 -->
<g id="edge11_Node000010_Node000012" class="edge">
<title>Node10&#45;&gt;Node12</title>
<g id="a_edge11_Node000010_Node000012"><a xlink:title=" ">
<path fill="none" stroke="#63b8ff" d="M568.34,-196.48C542.71,-183.47 506.37,-165.03 484.3,-153.83"/>
<polygon fill="#63b8ff" stroke="#63b8ff" points="566.75,-199.6 577.25,-201 569.91,-193.35 566.75,-199.6"/>
</a>
</g>
</g>
<!-- Node13 -->
<g id="Node000013" class="node">
<title>Node13</title>
<g id="a_Node000013"><a xlink:href="stdio__semihosting_8h.html" target="_top" xlink:title=" ">
<polygon fill="white" stroke="#666666" points="716.94,-153.38 544.94,-153.38 544.94,-132.62 716.94,-132.62 716.94,-153.38"/>
<text text-anchor="middle" x="630.94" y="-139.88" font-family="Helvetica,sans-Serif" font-size="10.00">sys/include/stdio_semihosting.h</text>
</a>
</g>
</g>
<!-- Node10&#45;&gt;Node13 -->
<g id="edge12_Node000010_Node000013" class="edge">
<title>Node10&#45;&gt;Node13</title>
<g id="a_edge12_Node000010_Node000013"><a xlink:title=" ">
<path fill="none" stroke="#63b8ff" d="M607.55,-191.84C613.68,-179.29 621.37,-163.57 626.22,-153.65"/>
<polygon fill="#63b8ff" stroke="#63b8ff" points="604.58,-189.95 603.33,-200.47 610.87,-193.02 604.58,-189.95"/>
</a>
</g>
</g>
<!-- Node14 -->
<g id="Node000014" class="node">
<title>Node14</title>
<g id="a_Node000014"><a xlink:href="stdio__uart_8h.html" target="_top" xlink:title=" ">
<polygon fill="white" stroke="#666666" points="866.69,-153.38 735.19,-153.38 735.19,-132.62 866.69,-132.62 866.69,-153.38"/>
<text text-anchor="middle" x="800.94" y="-139.88" font-family="Helvetica,sans-Serif" font-size="10.00">sys/include/stdio_uart.h</text>
</a>
</g>
</g>
<!-- Node10&#45;&gt;Node14 -->
<g id="edge13_Node000010_Node000014" class="edge">
<title>Node10&#45;&gt;Node14</title>
<g id="a_edge13_Node000010_Node000014"><a xlink:title=" ">
<path fill="none" stroke="#63b8ff" d="M638.22,-198.1C677.49,-185.05 736.26,-165.5 771.38,-153.83"/>
<polygon fill="#63b8ff" stroke="#63b8ff" points="637.28,-194.73 628.89,-201.21 639.48,-201.37 637.28,-194.73"/>
</a>
</g>
</g>
<!-- Node14&#45;&gt;Node2 -->
<g id="edge14_Node000014_Node000002" class="edge">
<title>Node14&#45;&gt;Node2</title>
<g id="a_edge14_Node000014_Node000002"><a xlink:title=" ">
<path fill="none" stroke="#63b8ff" d="M745.87,-129.93C739.17,-128.61 732.41,-127.35 725.94,-126.25 627.13,-109.46 511.61,-95.51 441.66,-87.69"/>
<polygon fill="#63b8ff" stroke="#63b8ff" points="745.05,-133.33 755.54,-131.88 746.43,-126.47 745.05,-133.33"/>
</a>
</g>
</g>
<!-- Node16 -->
<g id="Node000016" class="node">
<title>Node16</title>
<g id="a_Node000016"><a xlink:href="usb__board__reset__internal_8h.html" target="_top" xlink:title=" ">
<polygon fill="white" stroke="#666666" points="807.94,-229.25 683.94,-229.25 683.94,-195.75 807.94,-195.75 807.94,-229.25"/>
<text text-anchor="start" x="691.94" y="-215.75" font-family="Helvetica,sans-Serif" font-size="10.00">sys/include/usb_board</text>
<text text-anchor="middle" x="745.94" y="-203" font-family="Helvetica,sans-Serif" font-size="10.00">_reset_internal.h</text>
</a>
</g>
</g>
<!-- Node15&#45;&gt;Node16 -->
<g id="edge16_Node000015_Node000016" class="edge">
<title>Node15&#45;&gt;Node16</title>
<g id="a_edge16_Node000015_Node000016"><a xlink:title=" ">
<path fill="none" stroke="#63b8ff" d="M647.4,-260.01C668.23,-250.18 692.65,-238.66 711.96,-229.54"/>
<polygon fill="#63b8ff" stroke="#63b8ff" points="646.11,-256.75 638.56,-264.19 649.09,-263.08 646.11,-256.75"/>
</a>
</g>
</g>
</g>
</svg>
