<?xml version="1.0" encoding="UTF-8" standalone="no"?>
<!DOCTYPE svg PUBLIC "-//W3C//DTD SVG 1.1//EN"
 "http://www.w3.org/Graphics/SVG/1.1/DTD/svg11.dtd">
<!-- Generated by graphviz version 12.1.1 (0)
 -->
<!-- Title: sys/include/net/udp.h Pages: 1 -->
<svg width="143pt" height="181pt"
 viewBox="0.00 0.00 142.50 180.50" xmlns="http://www.w3.org/2000/svg" xmlns:xlink="http://www.w3.org/1999/xlink">
<g id="graph0" class="graph" transform="scale(1 1) rotate(0) translate(4 176.5)">
<title>sys/include/net/udp.h</title>
<!-- Node1 -->
<g id="Node000001" class="node">
<title>Node1</title>
<g id="a_Node000001"><a xlink:title="UDP header and helper functions definition.">
<polygon fill="#999999" stroke="#666666" points="127,-172.5 7.5,-172.5 7.5,-151.75 127,-151.75 127,-172.5"/>
<text text-anchor="middle" x="67.25" y="-159" font-family="Helvetica,sans-Serif" font-size="10.00">sys/include/net/udp.h</text>
</a>
</g>
</g>
<!-- Node2 -->
<g id="Node000002" class="node">
<title>Node2</title>
<g id="a_Node000002"><a xlink:href="gnrc_2udp_8h.html" target="_top" xlink:title="UDP GNRC definition.">
<polygon fill="white" stroke="#666666" points="124,-115.75 10.5,-115.75 10.5,-82.25 124,-82.25 124,-115.75"/>
<text text-anchor="start" x="18.5" y="-102.25" font-family="Helvetica,sans-Serif" font-size="10.00">sys/include/net/gnrc</text>
<text text-anchor="middle" x="67.25" y="-89.5" font-family="Helvetica,sans-Serif" font-size="10.00">/udp.h</text>
</a>
</g>
</g>
<!-- Node1&#45;&gt;Node2 -->
<g id="edge1_Node000001_Node000002" class="edge">
<title>Node1&#45;&gt;Node2</title>
<g id="a_edge1_Node000001_Node000002"><a xlink:title=" ">
<path fill="none" stroke="#63b8ff" d="M67.25,-139.84C67.25,-132.1 67.25,-123.47 67.25,-116.23"/>
<polygon fill="#63b8ff" stroke="#63b8ff" points="63.75,-139.79 67.25,-149.79 70.75,-139.79 63.75,-139.79"/>
</a>
</g>
</g>
<!-- Node3 -->
<g id="Node000003" class="node">
<title>Node3</title>
<g id="a_Node000003"><a xlink:href="gnrc__ipv6__auto__subnets_8c.html" target="_top" xlink:title=" ">
<polygon fill="white" stroke="#666666" points="134.5,-46.25 0,-46.25 0,0 134.5,0 134.5,-46.25"/>
<text text-anchor="start" x="8" y="-32.75" font-family="Helvetica,sans-Serif" font-size="10.00">sys/net/gnrc/routing</text>
<text text-anchor="start" x="8" y="-20" font-family="Helvetica,sans-Serif" font-size="10.00">/ipv6_auto_subnets/gnrc</text>
<text text-anchor="middle" x="67.25" y="-7.25" font-family="Helvetica,sans-Serif" font-size="10.00">_ipv6_auto_subnets.c</text>
</a>
</g>
</g>
<!-- Node2&#45;&gt;Node3 -->
<g id="edge2_Node000002_Node000003" class="edge">
<title>Node2&#45;&gt;Node3</title>
<g id="a_edge2_Node000002_Node000003"><a xlink:title=" ">
<path fill="none" stroke="#63b8ff" d="M67.25,-70.64C67.25,-62.71 67.25,-54.16 67.25,-46.57"/>
<polygon fill="#63b8ff" stroke="#63b8ff" points="63.75,-70.46 67.25,-80.46 70.75,-70.46 63.75,-70.46"/>
</a>
</g>
</g>
</g>
</svg>
