<?xml version="1.0" encoding="UTF-8" standalone="no"?>
<!DOCTYPE svg PUBLIC "-//W3C//DTD SVG 1.1//EN"
 "http://www.w3.org/Graphics/SVG/1.1/DTD/svg11.dtd">
<!-- Generated by graphviz version 12.1.1 (0)
 -->
<!-- Title: sys/include/universal_address.h Pages: 1 -->
<svg width="277pt" height="320pt"
 viewBox="0.00 0.00 276.62 319.50" xmlns="http://www.w3.org/2000/svg" xmlns:xlink="http://www.w3.org/1999/xlink">
<g id="graph0" class="graph" transform="scale(1 1) rotate(0) translate(4 315.5)">
<title>sys/include/universal_address.h</title>
<!-- Node1 -->
<g id="Node000001" class="node">
<title>Node1</title>
<g id="a_Node000001"><a xlink:title="Types and functions for operating universal addresses.">
<polygon fill="#999999" stroke="#666666" points="118.75,-311.5 0,-311.5 0,-278 118.75,-278 118.75,-311.5"/>
<text text-anchor="start" x="8" y="-298" font-family="Helvetica,sans-Serif" font-size="10.00">sys/include/universal</text>
<text text-anchor="middle" x="59.38" y="-285.25" font-family="Helvetica,sans-Serif" font-size="10.00">_address.h</text>
</a>
</g>
</g>
<!-- Node2 -->
<g id="Node000002" class="node">
<title>Node2</title>
<g id="a_Node000002"><a xlink:href="table_8h.html" target="_top" xlink:title="Types and functions for operating fib tables.">
<polygon fill="white" stroke="#666666" points="112,-242 6.75,-242 6.75,-208.5 112,-208.5 112,-242"/>
<text text-anchor="start" x="14.75" y="-228.5" font-family="Helvetica,sans-Serif" font-size="10.00">sys/include/net/fib</text>
<text text-anchor="middle" x="59.38" y="-215.75" font-family="Helvetica,sans-Serif" font-size="10.00">/table.h</text>
</a>
</g>
</g>
<!-- Node1&#45;&gt;Node2 -->
<g id="edge1_Node000001_Node000002" class="edge">
<title>Node1&#45;&gt;Node2</title>
<g id="a_edge1_Node000001_Node000002"><a xlink:title=" ">
<path fill="none" stroke="#63b8ff" d="M59.38,-266.31C59.38,-258.09 59.38,-249.34 59.38,-242.13"/>
<polygon fill="#63b8ff" stroke="#63b8ff" points="55.88,-266.24 59.38,-276.24 62.88,-266.24 55.88,-266.24"/>
</a>
</g>
</g>
<!-- Node3 -->
<g id="Node000003" class="node">
<title>Node3</title>
<g id="a_Node000003"><a xlink:href="fib_8h.html" target="_top" xlink:title="Types and functions for FIB.">
<polygon fill="white" stroke="#666666" points="116.5,-172.5 2.25,-172.5 2.25,-151.75 116.5,-151.75 116.5,-172.5"/>
<text text-anchor="middle" x="59.38" y="-159" font-family="Helvetica,sans-Serif" font-size="10.00">sys/include/net/fib.h</text>
</a>
</g>
</g>
<!-- Node2&#45;&gt;Node3 -->
<g id="edge2_Node000002_Node000003" class="edge">
<title>Node2&#45;&gt;Node3</title>
<g id="a_edge2_Node000002_Node000003"><a xlink:title=" ">
<path fill="none" stroke="#63b8ff" d="M59.38,-196.69C59.38,-188.21 59.38,-179.42 59.38,-172.97"/>
<polygon fill="#63b8ff" stroke="#63b8ff" points="55.88,-196.68 59.38,-206.68 62.88,-196.68 55.88,-196.68"/>
</a>
</g>
</g>
<!-- Node4 -->
<g id="Node000004" class="node">
<title>Node4</title>
<g id="a_Node000004"><a xlink:href="rpl_8h.html" target="_top" xlink:title="RPL header.">
<polygon fill="white" stroke="#666666" points="116.12,-115.75 2.62,-115.75 2.62,-82.25 116.12,-82.25 116.12,-115.75"/>
<text text-anchor="start" x="10.62" y="-102.25" font-family="Helvetica,sans-Serif" font-size="10.00">sys/include/net/gnrc</text>
<text text-anchor="middle" x="59.38" y="-89.5" font-family="Helvetica,sans-Serif" font-size="10.00">/rpl.h</text>
</a>
</g>
</g>
<!-- Node3&#45;&gt;Node4 -->
<g id="edge3_Node000003_Node000004" class="edge">
<title>Node3&#45;&gt;Node4</title>
<g id="a_edge3_Node000003_Node000004"><a xlink:title=" ">
<path fill="none" stroke="#63b8ff" d="M59.38,-139.84C59.38,-132.1 59.38,-123.47 59.38,-116.23"/>
<polygon fill="#63b8ff" stroke="#63b8ff" points="55.88,-139.79 59.38,-149.79 62.88,-139.79 55.88,-139.79"/>
</a>
</g>
</g>
<!-- Node5 -->
<g id="Node000005" class="node">
<title>Node5</title>
<g id="a_Node000005"><a xlink:href="dodag_8h.html" target="_top" xlink:title="DODAG&#45;related functions for RPL.">
<polygon fill="white" stroke="#666666" points="116.12,-39.88 2.62,-39.88 2.62,-6.38 116.12,-6.38 116.12,-39.88"/>
<text text-anchor="start" x="10.62" y="-26.38" font-family="Helvetica,sans-Serif" font-size="10.00">sys/include/net/gnrc</text>
<text text-anchor="middle" x="59.38" y="-13.62" font-family="Helvetica,sans-Serif" font-size="10.00">/rpl/dodag.h</text>
</a>
</g>
</g>
<!-- Node4&#45;&gt;Node5 -->
<g id="edge4_Node000004_Node000005" class="edge">
<title>Node4&#45;&gt;Node5</title>
<g id="a_edge4_Node000004_Node000005"><a xlink:title=" ">
<path fill="none" stroke="#63b8ff" d="M52.83,-70.61C52.38,-60.35 52.67,-49.02 53.7,-40.12"/>
<polygon fill="#63b8ff" stroke="#63b8ff" points="49.33,-70.76 53.58,-80.46 56.31,-70.22 49.33,-70.76"/>
</a>
</g>
</g>
<!-- Node6 -->
<g id="Node000006" class="node">
<title>Node6</title>
<g id="a_Node000006"><a xlink:href="gnrc__ipv6__auto__subnets_8c.html" target="_top" xlink:title=" ">
<polygon fill="white" stroke="#666666" points="268.62,-46.25 134.12,-46.25 134.12,0 268.62,0 268.62,-46.25"/>
<text text-anchor="start" x="142.12" y="-32.75" font-family="Helvetica,sans-Serif" font-size="10.00">sys/net/gnrc/routing</text>
<text text-anchor="start" x="142.12" y="-20" font-family="Helvetica,sans-Serif" font-size="10.00">/ipv6_auto_subnets/gnrc</text>
<text text-anchor="middle" x="201.38" y="-7.25" font-family="Helvetica,sans-Serif" font-size="10.00">_ipv6_auto_subnets.c</text>
</a>
</g>
</g>
<!-- Node4&#45;&gt;Node6 -->
<g id="edge6_Node000004_Node000006" class="edge">
<title>Node4&#45;&gt;Node6</title>
<g id="a_edge6_Node000004_Node000006"><a xlink:title=" ">
<path fill="none" stroke="#63b8ff" d="M100.71,-76.5C118.66,-67.16 139.71,-56.21 157.9,-46.74"/>
<polygon fill="#63b8ff" stroke="#63b8ff" points="99.14,-73.37 91.88,-81.09 102.37,-79.58 99.14,-73.37"/>
</a>
</g>
</g>
<!-- Node5&#45;&gt;Node4 -->
<g id="edge5_Node000005_Node000004" class="edge">
<title>Node5&#45;&gt;Node4</title>
<g id="a_edge5_Node000005_Node000004"><a xlink:title=" ">
<path fill="none" stroke="#63b8ff" d="M65.92,-51.48C66.37,-61.74 66.08,-73.06 65.05,-81.97"/>
<polygon fill="#63b8ff" stroke="#63b8ff" points="69.42,-51.34 65.17,-41.63 62.44,-51.87 69.42,-51.34"/>
</a>
</g>
</g>
</g>
</svg>
