<?xml version="1.0" encoding="UTF-8" standalone="no"?>
<!DOCTYPE svg PUBLIC "-//W3C//DTD SVG 1.1//EN"
 "http://www.w3.org/Graphics/SVG/1.1/DTD/svg11.dtd">
<!-- Generated by graphviz version 12.1.1 (0)
 -->
<!-- Title: sys/include/usb/usbus/msc.h Pages: 1 -->
<svg width="1201pt" height="382pt"
 viewBox="0.00 0.00 1201.38 382.00" xmlns="http://www.w3.org/2000/svg" xmlns:xlink="http://www.w3.org/1999/xlink">
<g id="graph0" class="graph" transform="scale(1 1) rotate(0) translate(4 378)">
<title>sys/include/usb/usbus/msc.h</title>
<!-- Node1 -->
<g id="Node000001" class="node">
<title>Node1</title>
<g id="a_Node000001"><a xlink:title="USBUS Mass Storage Class functions definitions.">
<polygon fill="#999999" stroke="#666666" points="657.25,-374 534.75,-374 534.75,-340.5 657.25,-340.5 657.25,-374"/>
<text text-anchor="start" x="542.75" y="-360.5" font-family="Helvetica,sans-Serif" font-size="10.00">sys/include/usb/usbus</text>
<text text-anchor="middle" x="596" y="-347.75" font-family="Helvetica,sans-Serif" font-size="10.00">/msc.h</text>
</a>
</g>
</g>
<!-- Node2 -->
<g id="Node000002" class="node">
<title>Node2</title>
<g id="a_Node000002"><a xlink:title=" ">
<polygon fill="#e0e0e0" stroke="#999999" points="568.38,-20.75 515.62,-20.75 515.62,0 568.38,0 568.38,-20.75"/>
<text text-anchor="middle" x="542" y="-7.25" font-family="Helvetica,sans-Serif" font-size="10.00">stdint.h</text>
</a>
</g>
</g>
<!-- Node1&#45;&gt;Node2 -->
<g id="edge1_Node000001_Node000002" class="edge">
<title>Node1&#45;&gt;Node2</title>
<g id="a_edge1_Node000001_Node000002"><a xlink:title=" ">
<path fill="none" stroke="#63b8ff" d="M534.46,-356.95C382.19,-357.04 0,-346.49 0,-238.38 0,-238.38 0,-238.38 0,-122.88 0,-80.4 30.39,-74.45 69,-56.75 146.3,-21.31 405.83,-13.52 503.97,-11.84"/>
<polygon fill="#63b8ff" stroke="#63b8ff" points="503.93,-15.34 513.87,-11.68 503.82,-8.34 503.93,-15.34"/>
</a>
</g>
</g>
<!-- Node3 -->
<g id="Node000003" class="node">
<title>Node3</title>
<g id="a_Node000003"><a xlink:href="usbus_8h.html" target="_top" xlink:title="USBUS basic interface.">
<polygon fill="white" stroke="#666666" points="575.88,-304.5 502.12,-304.5 502.12,-283.75 575.88,-283.75 575.88,-304.5"/>
<text text-anchor="middle" x="539" y="-291" font-family="Helvetica,sans-Serif" font-size="10.00">usb/usbus.h</text>
</a>
</g>
</g>
<!-- Node1&#45;&gt;Node3 -->
<g id="edge2_Node000001_Node000003" class="edge">
<title>Node1&#45;&gt;Node3</title>
<g id="a_edge2_Node000001_Node000003"><a xlink:title=" ">
<path fill="none" stroke="#63b8ff" d="M581.02,-340.19C573.29,-331.89 563.82,-321.74 555.83,-313.18"/>
<polygon fill="#63b8ff" stroke="#63b8ff" points="558.59,-311 549.21,-306.07 553.47,-315.77 558.59,-311"/>
</a>
</g>
</g>
<!-- Node27 -->
<g id="Node000027" class="node">
<title>Node27</title>
<g id="a_Node000027"><a xlink:href="scsi_8h.html" target="_top" xlink:title="SCSI protocol definitions for USBUS.">
<polygon fill="white" stroke="#666666" points="712.38,-304.5 593.62,-304.5 593.62,-283.75 712.38,-283.75 712.38,-304.5"/>
<text text-anchor="middle" x="653" y="-291" font-family="Helvetica,sans-Serif" font-size="10.00">usb/usbus/msc/scsi.h</text>
</a>
</g>
</g>
<!-- Node1&#45;&gt;Node27 -->
<g id="edge43_Node000001_Node000027" class="edge">
<title>Node1&#45;&gt;Node27</title>
<g id="a_edge43_Node000001_Node000027"><a xlink:title=" ">
<path fill="none" stroke="#63b8ff" d="M610.98,-340.19C618.71,-331.89 628.18,-321.74 636.17,-313.18"/>
<polygon fill="#63b8ff" stroke="#63b8ff" points="638.53,-315.77 642.79,-306.07 633.41,-311 638.53,-315.77"/>
</a>
</g>
</g>
<!-- Node32 -->
<g id="Node000032" class="node">
<title>Node32</title>
<g id="a_Node000032"><a xlink:title=" ">
<polygon fill="#e0e0e0" stroke="#999999" points="775.25,-304.5 730.75,-304.5 730.75,-283.75 775.25,-283.75 775.25,-304.5"/>
<text text-anchor="middle" x="753" y="-291" font-family="Helvetica,sans-Serif" font-size="10.00">mtd.h</text>
</a>
</g>
</g>
<!-- Node1&#45;&gt;Node32 -->
<g id="edge51_Node000001_Node000032" class="edge">
<title>Node1&#45;&gt;Node32</title>
<g id="a_edge51_Node000001_Node000032"><a xlink:title=" ">
<path fill="none" stroke="#63b8ff" d="M637.66,-340.03C663.38,-330.02 695.93,-317.34 719.89,-308.02"/>
<polygon fill="#63b8ff" stroke="#63b8ff" points="721.1,-311.3 729.15,-304.41 718.56,-304.78 721.1,-311.3"/>
</a>
</g>
</g>
<!-- Node3&#45;&gt;Node2 -->
<g id="edge3_Node000003_Node000002" class="edge">
<title>Node3&#45;&gt;Node2</title>
<g id="a_edge3_Node000003_Node000002"><a xlink:title=" ">
<path fill="none" stroke="#63b8ff" d="M501.75,-292.78C385.64,-290.73 38,-276.64 38,-181.62 38,-181.62 38,-181.62 38,-122.88 38,-27.46 386.7,-13.63 504.01,-11.68"/>
<polygon fill="#63b8ff" stroke="#63b8ff" points="503.8,-15.18 513.75,-11.54 503.7,-8.18 503.8,-15.18"/>
</a>
</g>
</g>
<!-- Node4 -->
<g id="Node000004" class="node">
<title>Node4</title>
<g id="a_Node000004"><a xlink:title=" ">
<polygon fill="#e0e0e0" stroke="#999999" points="385,-247.75 333,-247.75 333,-227 385,-227 385,-247.75"/>
<text text-anchor="middle" x="359" y="-234.25" font-family="Helvetica,sans-Serif" font-size="10.00">stdlib.h</text>
</a>
</g>
</g>
<!-- Node3&#45;&gt;Node4 -->
<g id="edge4_Node000003_Node000004" class="edge">
<title>Node3&#45;&gt;Node4</title>
<g id="a_edge4_Node000003_Node000004"><a xlink:title=" ">
<path fill="none" stroke="#63b8ff" d="M506.82,-283.34C475.79,-273.9 428.87,-259.63 396.24,-249.7"/>
<polygon fill="#63b8ff" stroke="#63b8ff" points="397.38,-246.39 386.79,-246.83 395.34,-253.09 397.38,-246.39"/>
</a>
</g>
</g>
<!-- Node5 -->
<g id="Node000005" class="node">
<title>Node5</title>
<g id="a_Node000005"><a xlink:href="clist_8h.html" target="_top" xlink:title="Circular linked list.">
<polygon fill="white" stroke="#666666" points="540.62,-134.25 495.38,-134.25 495.38,-113.5 540.62,-113.5 540.62,-134.25"/>
<text text-anchor="middle" x="518" y="-120.75" font-family="Helvetica,sans-Serif" font-size="10.00">clist.h</text>
</a>
</g>
</g>
<!-- Node3&#45;&gt;Node5 -->
<g id="edge5_Node000003_Node000005" class="edge">
<title>Node3&#45;&gt;Node5</title>
<g id="a_edge5_Node000003_Node000005"><a xlink:title=" ">
<path fill="none" stroke="#63b8ff" d="M528.44,-283.49C520,-275.03 508.81,-261.88 504,-247.75 497.76,-229.43 507.25,-175.99 513.41,-145.97"/>
<polygon fill="#63b8ff" stroke="#63b8ff" points="516.83,-146.7 515.48,-136.19 509.98,-145.25 516.83,-146.7"/>
</a>
</g>
</g>
<!-- Node9 -->
<g id="Node000009" class="node">
<title>Node9</title>
<g id="a_Node000009"><a xlink:title=" ">
<polygon fill="#e0e0e0" stroke="#999999" points="565.38,-247.75 512.62,-247.75 512.62,-227 565.38,-227 565.38,-247.75"/>
<text text-anchor="middle" x="539" y="-234.25" font-family="Helvetica,sans-Serif" font-size="10.00">event.h</text>
</a>
</g>
</g>
<!-- Node3&#45;&gt;Node9 -->
<g id="edge9_Node000003_Node000009" class="edge">
<title>Node3&#45;&gt;Node9</title>
<g id="a_edge9_Node000003_Node000009"><a xlink:title=" ">
<path fill="none" stroke="#63b8ff" d="M539,-283.34C539,-276.72 539,-267.72 539,-259.52"/>
<polygon fill="#63b8ff" stroke="#63b8ff" points="542.5,-259.59 539,-249.59 535.5,-259.59 542.5,-259.59"/>
</a>
</g>
</g>
<!-- Node10 -->
<g id="Node000010" class="node">
<title>Node10</title>
<g id="a_Node000010"><a xlink:href="sched_8h.html" target="_top" xlink:title="Scheduler API definition.">
<polygon fill="white" stroke="#666666" points="456.75,-247.75 403.25,-247.75 403.25,-227 456.75,-227 456.75,-247.75"/>
<text text-anchor="middle" x="430" y="-234.25" font-family="Helvetica,sans-Serif" font-size="10.00">sched.h</text>
</a>
</g>
</g>
<!-- Node3&#45;&gt;Node10 -->
<g id="edge10_Node000003_Node000010" class="edge">
<title>Node3&#45;&gt;Node10</title>
<g id="a_edge10_Node000003_Node000010"><a xlink:title=" ">
<path fill="none" stroke="#63b8ff" d="M519.51,-283.34C502.85,-274.97 478.62,-262.79 459.56,-253.22"/>
<polygon fill="#63b8ff" stroke="#63b8ff" points="461.18,-250.12 450.67,-248.76 458.04,-256.37 461.18,-250.12"/>
</a>
</g>
</g>
<!-- Node13 -->
<g id="Node000013" class="node">
<title>Node13</title>
<g id="a_Node000013"><a xlink:href="modules_8h.html" target="_top" xlink:title="Common macros and compiler attributes/pragmas configuration.">
<polygon fill="white" stroke="#666666" points="133.5,-134.25 66.5,-134.25 66.5,-113.5 133.5,-113.5 133.5,-134.25"/>
<text text-anchor="middle" x="100" y="-120.75" font-family="Helvetica,sans-Serif" font-size="10.00">modules.h</text>
</a>
</g>
</g>
<!-- Node3&#45;&gt;Node13 -->
<g id="edge26_Node000003_Node000013" class="edge">
<title>Node3&#45;&gt;Node13</title>
<g id="a_edge26_Node000003_Node000013"><a xlink:title=" ">
<path fill="none" stroke="#63b8ff" d="M501.63,-292.77C426.21,-290.21 253.58,-274.89 143,-191 127.18,-179 115.48,-159.37 108.32,-144.61"/>
<polygon fill="#63b8ff" stroke="#63b8ff" points="111.66,-143.52 104.35,-135.86 105.29,-146.41 111.66,-143.52"/>
</a>
</g>
</g>
<!-- Node19 -->
<g id="Node000019" class="node">
<title>Node19</title>
<g id="a_Node000019"><a xlink:title=" ">
<polygon fill="#e0e0e0" stroke="#999999" points="629,-247.75 583,-247.75 583,-227 629,-227 629,-247.75"/>
<text text-anchor="middle" x="606" y="-234.25" font-family="Helvetica,sans-Serif" font-size="10.00">msg.h</text>
</a>
</g>
</g>
<!-- Node3&#45;&gt;Node19 -->
<g id="edge27_Node000003_Node000019" class="edge">
<title>Node3&#45;&gt;Node19</title>
<g id="a_edge27_Node000003_Node000019"><a xlink:title=" ">
<path fill="none" stroke="#63b8ff" d="M550.98,-283.34C560.51,-275.55 574.06,-264.47 585.33,-255.26"/>
<polygon fill="#63b8ff" stroke="#63b8ff" points="587.42,-258.07 592.95,-249.04 583,-252.65 587.42,-258.07"/>
</a>
</g>
</g>
<!-- Node20 -->
<g id="Node000020" class="node">
<title>Node20</title>
<g id="a_Node000020"><a xlink:title=" ">
<polygon fill="#e0e0e0" stroke="#999999" points="703.25,-247.75 646.75,-247.75 646.75,-227 703.25,-227 703.25,-247.75"/>
<text text-anchor="middle" x="675" y="-234.25" font-family="Helvetica,sans-Serif" font-size="10.00">thread.h</text>
</a>
</g>
</g>
<!-- Node3&#45;&gt;Node20 -->
<g id="edge28_Node000003_Node000020" class="edge">
<title>Node3&#45;&gt;Node20</title>
<g id="a_edge28_Node000003_Node000020"><a xlink:title=" ">
<path fill="none" stroke="#63b8ff" d="M563.31,-283.34C584.78,-274.69 616.32,-262 640.41,-252.3"/>
<polygon fill="#63b8ff" stroke="#63b8ff" points="641.52,-255.63 649.49,-248.64 638.91,-249.13 641.52,-255.63"/>
</a>
</g>
</g>
<!-- Node21 -->
<g id="Node000021" class="node">
<title>Node21</title>
<g id="a_Node000021"><a xlink:href="usb_8h.html" target="_top" xlink:title="Definition of global compile time configuration options.">
<polygon fill="white" stroke="#666666" points="1188.12,-77.5 1145.88,-77.5 1145.88,-56.75 1188.12,-56.75 1188.12,-77.5"/>
<text text-anchor="middle" x="1167" y="-64" font-family="Helvetica,sans-Serif" font-size="10.00">usb.h</text>
</a>
</g>
</g>
<!-- Node3&#45;&gt;Node21 -->
<g id="edge29_Node000003_Node000021" class="edge">
<title>Node3&#45;&gt;Node21</title>
<g id="a_edge29_Node000003_Node000021"><a xlink:title=" ">
<path fill="none" stroke="#63b8ff" d="M576.05,-285.47C631.83,-273.9 732.64,-252.75 749,-247.75 879,-208.03 908.85,-189.59 1033,-134.25 1070.03,-117.75 1111.78,-96.75 1138.69,-82.9"/>
<polygon fill="#63b8ff" stroke="#63b8ff" points="1139.96,-86.19 1147.23,-78.48 1136.74,-79.97 1139.96,-86.19"/>
</a>
</g>
</g>
<!-- Node23 -->
<g id="Node000023" class="node">
<title>Node23</title>
<g id="a_Node000023"><a xlink:href="usbdev_8h.html" target="_top" xlink:title="Definitions low&#45;level USB driver interface.">
<polygon fill="white" stroke="#666666" points="764.62,-134.25 671.38,-134.25 671.38,-113.5 764.62,-113.5 764.62,-134.25"/>
<text text-anchor="middle" x="718" y="-120.75" font-family="Helvetica,sans-Serif" font-size="10.00">periph/usbdev.h</text>
</a>
</g>
</g>
<!-- Node3&#45;&gt;Node23 -->
<g id="edge31_Node000003_Node000023" class="edge">
<title>Node3&#45;&gt;Node23</title>
<g id="a_edge31_Node000003_Node000023"><a xlink:title=" ">
<path fill="none" stroke="#63b8ff" d="M576,-285.56C630.16,-274.31 725.18,-253.85 730,-247.75 753.38,-218.16 738.95,-171.19 727.64,-144.72"/>
<polygon fill="#63b8ff" stroke="#63b8ff" points="730.92,-143.46 723.59,-135.81 724.55,-146.36 730.92,-143.46"/>
</a>
</g>
</g>
<!-- Node26 -->
<g id="Node000026" class="node">
<title>Node26</title>
<g id="a_Node000026"><a xlink:href="descriptor_8h.html" target="_top" xlink:title="Definitions for USB protocol messages.">
<polygon fill="white" stroke="#666666" points="653,-134.25 559,-134.25 559,-113.5 653,-113.5 653,-134.25"/>
<text text-anchor="middle" x="606" y="-120.75" font-family="Helvetica,sans-Serif" font-size="10.00">usb/descriptor.h</text>
</a>
</g>
</g>
<!-- Node3&#45;&gt;Node26 -->
<g id="edge40_Node000003_Node000026" class="edge">
<title>Node3&#45;&gt;Node26</title>
<g id="a_edge40_Node000003_Node000026"><a xlink:title=" ">
<path fill="none" stroke="#63b8ff" d="M576.22,-284.58C625.79,-273.02 707.78,-253.22 712,-247.75 743.11,-207.43 677.43,-162.79 636.15,-140.03"/>
<polygon fill="#63b8ff" stroke="#63b8ff" points="637.8,-136.94 627.33,-135.31 634.5,-143.12 637.8,-136.94"/>
</a>
</g>
</g>
<!-- Node6 -->
<g id="Node000006" class="node">
<title>Node6</title>
<g id="a_Node000006"><a xlink:title=" ">
<polygon fill="#e0e0e0" stroke="#999999" points="580.5,-77.5 519.5,-77.5 519.5,-56.75 580.5,-56.75 580.5,-77.5"/>
<text text-anchor="middle" x="550" y="-64" font-family="Helvetica,sans-Serif" font-size="10.00">stdbool.h</text>
</a>
</g>
</g>
<!-- Node5&#45;&gt;Node6 -->
<g id="edge6_Node000005_Node000006" class="edge">
<title>Node5&#45;&gt;Node6</title>
<g id="a_edge6_Node000005_Node000006"><a xlink:title=" ">
<path fill="none" stroke="#63b8ff" d="M523.72,-113.09C527.86,-106 533.6,-96.19 538.65,-87.54"/>
<polygon fill="#63b8ff" stroke="#63b8ff" points="541.54,-89.53 543.56,-79.14 535.5,-86 541.54,-89.53"/>
</a>
</g>
</g>
<!-- Node7 -->
<g id="Node000007" class="node">
<title>Node7</title>
<g id="a_Node000007"><a xlink:title=" ">
<polygon fill="#e0e0e0" stroke="#999999" points="369.5,-77.5 314.5,-77.5 314.5,-56.75 369.5,-56.75 369.5,-77.5"/>
<text text-anchor="middle" x="342" y="-64" font-family="Helvetica,sans-Serif" font-size="10.00">stddef.h</text>
</a>
</g>
</g>
<!-- Node5&#45;&gt;Node7 -->
<g id="edge7_Node000005_Node000007" class="edge">
<title>Node5&#45;&gt;Node7</title>
<g id="a_edge7_Node000005_Node000007"><a xlink:title=" ">
<path fill="none" stroke="#63b8ff" d="M494.99,-115.72C465.98,-106.69 415.69,-91.05 380.72,-80.17"/>
<polygon fill="#63b8ff" stroke="#63b8ff" points="381.99,-76.9 371.4,-77.27 379.91,-83.58 381.99,-76.9"/>
</a>
</g>
</g>
<!-- Node8 -->
<g id="Node000008" class="node">
<title>Node8</title>
<g id="a_Node000008"><a xlink:href="list_8h.html" target="_top" xlink:title="Intrusive linked list.">
<polygon fill="white" stroke="#666666" points="428,-77.5 388,-77.5 388,-56.75 428,-56.75 428,-77.5"/>
<text text-anchor="middle" x="408" y="-64" font-family="Helvetica,sans-Serif" font-size="10.00">list.h</text>
</a>
</g>
</g>
<!-- Node5&#45;&gt;Node8 -->
<g id="edge8_Node000005_Node000008" class="edge">
<title>Node5&#45;&gt;Node8</title>
<g id="a_edge8_Node000005_Node000008"><a xlink:title=" ">
<path fill="none" stroke="#63b8ff" d="M498.33,-113.09C481.44,-104.68 456.83,-92.43 437.57,-82.84"/>
<polygon fill="#63b8ff" stroke="#63b8ff" points="439.36,-79.83 428.85,-78.5 436.24,-86.09 439.36,-79.83"/>
</a>
</g>
</g>
<!-- Node10&#45;&gt;Node5 -->
<g id="edge25_Node000010_Node000005" class="edge">
<title>Node10&#45;&gt;Node5</title>
<g id="a_edge25_Node000010_Node000005"><a xlink:title=" ">
<path fill="none" stroke="#63b8ff" d="M443.26,-226.61C454.27,-218.05 469.86,-204.86 481,-191 492.46,-176.74 502.39,-158.46 509.07,-144.74"/>
<polygon fill="#63b8ff" stroke="#63b8ff" points="512.16,-146.38 513.23,-135.84 505.82,-143.41 512.16,-146.38"/>
</a>
</g>
</g>
<!-- Node10&#45;&gt;Node7 -->
<g id="edge11_Node000010_Node000007" class="edge">
<title>Node10&#45;&gt;Node7</title>
<g id="a_edge11_Node000010_Node000007"><a xlink:title=" ">
<path fill="none" stroke="#63b8ff" d="M435.35,-226.78C446.87,-204.7 471.09,-149.46 447,-113.5 439.08,-101.68 407.14,-88.88 380.55,-79.9"/>
<polygon fill="#63b8ff" stroke="#63b8ff" points="381.97,-76.68 371.38,-76.89 379.78,-83.33 381.97,-76.68"/>
</a>
</g>
</g>
<!-- Node11 -->
<g id="Node000011" class="node">
<title>Node11</title>
<g id="a_Node000011"><a xlink:href="inttypes_8h.html" target="_top" xlink:title="Adds include for missing inttype definitions.">
<polygon fill="white" stroke="#666666" points="331.38,-191 266.62,-191 266.62,-170.25 331.38,-170.25 331.38,-191"/>
<text text-anchor="middle" x="299" y="-177.5" font-family="Helvetica,sans-Serif" font-size="10.00">inttypes.h</text>
</a>
</g>
</g>
<!-- Node10&#45;&gt;Node11 -->
<g id="edge12_Node000010_Node000011" class="edge">
<title>Node10&#45;&gt;Node11</title>
<g id="a_edge12_Node000010_Node000011"><a xlink:title=" ">
<path fill="none" stroke="#63b8ff" d="M406.58,-226.59C386,-217.98 355.8,-205.36 332.63,-195.68"/>
<polygon fill="#63b8ff" stroke="#63b8ff" points="334.19,-192.54 323.61,-191.91 331.49,-199 334.19,-192.54"/>
</a>
</g>
</g>
<!-- Node12 -->
<g id="Node000012" class="node">
<title>Node12</title>
<g id="a_Node000012"><a xlink:href="kernel__defines_8h.html" target="_top" xlink:title="Common macros and compiler attributes/pragmas configuration.">
<polygon fill="white" stroke="#666666" points="248.12,-191 151.88,-191 151.88,-170.25 248.12,-170.25 248.12,-191"/>
<text text-anchor="middle" x="200" y="-177.5" font-family="Helvetica,sans-Serif" font-size="10.00">kernel_defines.h</text>
</a>
</g>
</g>
<!-- Node10&#45;&gt;Node12 -->
<g id="edge13_Node000010_Node000012" class="edge">
<title>Node10&#45;&gt;Node12</title>
<g id="a_edge13_Node000010_Node000012"><a xlink:title=" ">
<path fill="none" stroke="#63b8ff" d="M402.89,-229.24C399.89,-228.47 396.88,-227.71 394,-227 347.09,-215.41 293.6,-202.95 254.68,-194.03"/>
<polygon fill="#63b8ff" stroke="#63b8ff" points="255.61,-190.65 245.08,-191.83 254.05,-197.48 255.61,-190.65"/>
</a>
</g>
</g>
<!-- Node18 -->
<g id="Node000018" class="node">
<title>Node18</title>
<g id="a_Node000018"><a xlink:href="native__sched_8h.html" target="_top" xlink:title="Add definitions required on the native board.">
<polygon fill="white" stroke="#666666" points="438.75,-191 349.25,-191 349.25,-170.25 438.75,-170.25 438.75,-191"/>
<text text-anchor="middle" x="394" y="-177.5" font-family="Helvetica,sans-Serif" font-size="10.00">native_sched.h</text>
</a>
</g>
</g>
<!-- Node10&#45;&gt;Node18 -->
<g id="edge24_Node000010_Node000018" class="edge">
<title>Node10&#45;&gt;Node18</title>
<g id="a_edge24_Node000010_Node000018"><a xlink:title=" ">
<path fill="none" stroke="#63b8ff" d="M423.56,-226.59C418.85,-219.42 412.31,-209.48 406.58,-200.76"/>
<polygon fill="#63b8ff" stroke="#63b8ff" points="409.63,-199.03 401.21,-192.59 403.78,-202.87 409.63,-199.03"/>
</a>
</g>
</g>
<!-- Node12&#45;&gt;Node13 -->
<g id="edge14_Node000012_Node000013" class="edge">
<title>Node12&#45;&gt;Node13</title>
<g id="a_edge14_Node000012_Node000013"><a xlink:title=" ">
<path fill="none" stroke="#63b8ff" d="M182.12,-169.84C166.91,-161.51 144.81,-149.41 127.37,-139.86"/>
<polygon fill="#63b8ff" stroke="#63b8ff" points="129.5,-137.04 119.05,-135.31 126.14,-143.18 129.5,-137.04"/>
</a>
</g>
</g>
<!-- Node14 -->
<g id="Node000014" class="node">
<title>Node14</title>
<g id="a_Node000014"><a xlink:href="riot__version_8h.html" target="_top" xlink:title="Common macros and compiler attributes/pragmas configuration.">
<polygon fill="white" stroke="#666666" points="234.38,-134.25 151.62,-134.25 151.62,-113.5 234.38,-113.5 234.38,-134.25"/>
<text text-anchor="middle" x="193" y="-120.75" font-family="Helvetica,sans-Serif" font-size="10.00">riot_version.h</text>
</a>
</g>
</g>
<!-- Node12&#45;&gt;Node14 -->
<g id="edge15_Node000012_Node000014" class="edge">
<title>Node12&#45;&gt;Node14</title>
<g id="a_edge15_Node000012_Node000014"><a xlink:title=" ">
<path fill="none" stroke="#63b8ff" d="M198.75,-169.84C197.89,-163.14 196.73,-154.01 195.67,-145.73"/>
<polygon fill="#63b8ff" stroke="#63b8ff" points="199.17,-145.56 194.43,-136.08 192.23,-146.44 199.17,-145.56"/>
</a>
</g>
</g>
<!-- Node15 -->
<g id="Node000015" class="node">
<title>Node15</title>
<g id="a_Node000015"><a xlink:href="compiler__hints_8h.html" target="_top" xlink:title="Common macros and compiler attributes/pragmas configuration.">
<polygon fill="white" stroke="#666666" points="438.5,-134.25 341.5,-134.25 341.5,-113.5 438.5,-113.5 438.5,-134.25"/>
<text text-anchor="middle" x="390" y="-120.75" font-family="Helvetica,sans-Serif" font-size="10.00">compiler_hints.h</text>
</a>
</g>
</g>
<!-- Node12&#45;&gt;Node15 -->
<g id="edge17_Node000012_Node000015" class="edge">
<title>Node12&#45;&gt;Node15</title>
<g id="a_edge17_Node000012_Node000015"><a xlink:title=" ">
<path fill="none" stroke="#63b8ff" d="M233.97,-169.84C264.94,-160.91 310.93,-147.66 344.96,-137.85"/>
<polygon fill="#63b8ff" stroke="#63b8ff" points="345.91,-141.22 354.55,-135.09 343.97,-134.5 345.91,-141.22"/>
</a>
</g>
</g>
<!-- Node17 -->
<g id="Node000017" class="node">
<title>Node17</title>
<g id="a_Node000017"><a xlink:href="container_8h.html" target="_top" xlink:title="Common macros and compiler attributes/pragmas configuration.">
<polygon fill="white" stroke="#666666" points="323.38,-134.25 252.62,-134.25 252.62,-113.5 323.38,-113.5 323.38,-134.25"/>
<text text-anchor="middle" x="288" y="-120.75" font-family="Helvetica,sans-Serif" font-size="10.00">container.h</text>
</a>
</g>
</g>
<!-- Node12&#45;&gt;Node17 -->
<g id="edge21_Node000012_Node000017" class="edge">
<title>Node12&#45;&gt;Node17</title>
<g id="a_edge21_Node000012_Node000017"><a xlink:title=" ">
<path fill="none" stroke="#63b8ff" d="M215.73,-169.84C228.87,-161.66 247.84,-149.86 263.05,-140.4"/>
<polygon fill="#63b8ff" stroke="#63b8ff" points="264.48,-143.63 271.12,-135.38 260.78,-137.69 264.48,-143.63"/>
</a>
</g>
</g>
<!-- Node14&#45;&gt;Node2 -->
<g id="edge16_Node000014_Node000002" class="edge">
<title>Node14&#45;&gt;Node2</title>
<g id="a_edge16_Node000014_Node000002"><a xlink:title=" ">
<path fill="none" stroke="#63b8ff" d="M202.69,-113.2C218.06,-98.47 249.64,-70.66 282,-56.75 356.4,-24.78 451.99,-15.32 504.05,-12.54"/>
<polygon fill="#63b8ff" stroke="#63b8ff" points="504.06,-16.04 513.89,-12.07 503.73,-9.05 504.06,-16.04"/>
</a>
</g>
</g>
<!-- Node15&#45;&gt;Node2 -->
<g id="edge20_Node000015_Node000002" class="edge">
<title>Node15&#45;&gt;Node2</title>
<g id="a_edge20_Node000015_Node000002"><a xlink:title=" ">
<path fill="none" stroke="#63b8ff" d="M358.82,-113.08C327.09,-101.5 285.17,-80.74 305,-56.75 329.84,-26.71 443.8,-16.36 504.19,-12.96"/>
<polygon fill="#63b8ff" stroke="#63b8ff" points="504.2,-16.46 514,-12.44 503.83,-9.47 504.2,-16.46"/>
</a>
</g>
</g>
<!-- Node16 -->
<g id="Node000016" class="node">
<title>Node16</title>
<g id="a_Node000016"><a xlink:href="assert_8h.html" target="_top" xlink:title="POSIX.1&#45;2008 compliant version of the assert macro.">
<polygon fill="white" stroke="#666666" points="501.5,-77.5 446.5,-77.5 446.5,-56.75 501.5,-56.75 501.5,-77.5"/>
<text text-anchor="middle" x="474" y="-64" font-family="Helvetica,sans-Serif" font-size="10.00">assert.h</text>
</a>
</g>
</g>
<!-- Node15&#45;&gt;Node16 -->
<g id="edge18_Node000015_Node000016" class="edge">
<title>Node15&#45;&gt;Node16</title>
<g id="a_edge18_Node000015_Node000016"><a xlink:title=" ">
<path fill="none" stroke="#63b8ff" d="M405.02,-113.09C417.44,-104.99 435.32,-93.33 449.77,-83.92"/>
<polygon fill="#63b8ff" stroke="#63b8ff" points="451.38,-87.05 457.84,-78.65 447.56,-81.18 451.38,-87.05"/>
</a>
</g>
</g>
<!-- Node16&#45;&gt;Node2 -->
<g id="edge19_Node000016_Node000002" class="edge">
<title>Node16&#45;&gt;Node2</title>
<g id="a_edge19_Node000016_Node000002"><a xlink:title=" ">
<path fill="none" stroke="#63b8ff" d="M486.16,-56.34C495.83,-48.55 509.58,-37.47 521.02,-28.26"/>
<polygon fill="#63b8ff" stroke="#63b8ff" points="523.18,-31.03 528.77,-22.03 518.79,-25.57 523.18,-31.03"/>
</a>
</g>
</g>
<!-- Node17&#45;&gt;Node2 -->
<g id="edge23_Node000017_Node000002" class="edge">
<title>Node17&#45;&gt;Node2</title>
<g id="a_edge23_Node000017_Node000002"><a xlink:title=" ">
<path fill="none" stroke="#63b8ff" d="M286.01,-113.34C283.62,-99.04 281.59,-72.09 296,-56.75 323.8,-27.17 442.19,-16.59 504.03,-13.04"/>
<polygon fill="#63b8ff" stroke="#63b8ff" points="503.94,-16.55 513.73,-12.52 503.56,-9.56 503.94,-16.55"/>
</a>
</g>
</g>
<!-- Node17&#45;&gt;Node7 -->
<g id="edge22_Node000017_Node000007" class="edge">
<title>Node17&#45;&gt;Node7</title>
<g id="a_edge22_Node000017_Node000007"><a xlink:title=" ">
<path fill="none" stroke="#63b8ff" d="M297.65,-113.09C305.1,-105.53 315.61,-94.89 324.52,-85.85"/>
<polygon fill="#63b8ff" stroke="#63b8ff" points="326.84,-88.48 331.37,-78.91 321.85,-83.57 326.84,-88.48"/>
</a>
</g>
</g>
<!-- Node22 -->
<g id="Node000022" class="node">
<title>Node22</title>
<g id="a_Node000022"><a xlink:title=" ">
<polygon fill="#e0e0e0" stroke="#999999" points="1193.38,-20.75 1140.62,-20.75 1140.62,0 1193.38,0 1193.38,-20.75"/>
<text text-anchor="middle" x="1167" y="-7.25" font-family="Helvetica,sans-Serif" font-size="10.00">board.h</text>
</a>
</g>
</g>
<!-- Node21&#45;&gt;Node22 -->
<g id="edge30_Node000021_Node000022" class="edge">
<title>Node21&#45;&gt;Node22</title>
<g id="a_edge30_Node000021_Node000022"><a xlink:title=" ">
<path fill="none" stroke="#63b8ff" d="M1167,-56.34C1167,-49.72 1167,-40.72 1167,-32.52"/>
<polygon fill="#63b8ff" stroke="#63b8ff" points="1170.5,-32.59 1167,-22.59 1163.5,-32.59 1170.5,-32.59"/>
</a>
</g>
</g>
<!-- Node23&#45;&gt;Node2 -->
<g id="edge33_Node000023_Node000002" class="edge">
<title>Node23&#45;&gt;Node2</title>
<g id="a_edge33_Node000023_Node000002"><a xlink:title=" ">
<path fill="none" stroke="#63b8ff" d="M702.69,-113.18C672.26,-93.9 603.95,-50.62 566.95,-27.18"/>
<polygon fill="#63b8ff" stroke="#63b8ff" points="569,-24.34 558.68,-21.94 565.25,-30.25 569,-24.34"/>
</a>
</g>
</g>
<!-- Node23&#45;&gt;Node6 -->
<g id="edge32_Node000023_Node000006" class="edge">
<title>Node23&#45;&gt;Node6</title>
<g id="a_edge32_Node000023_Node000006"><a xlink:title=" ">
<path fill="none" stroke="#63b8ff" d="M687.96,-113.09C660.81,-104.24 620.62,-91.14 590.61,-81.36"/>
<polygon fill="#63b8ff" stroke="#63b8ff" points="592.09,-78.16 581.5,-78.39 589.92,-84.82 592.09,-78.16"/>
</a>
</g>
</g>
<!-- Node23&#45;&gt;Node7 -->
<g id="edge34_Node000023_Node000007" class="edge">
<title>Node23&#45;&gt;Node7</title>
<g id="a_edge34_Node000023_Node000007"><a xlink:title=" ">
<path fill="none" stroke="#63b8ff" d="M670.97,-114.86C667.93,-114.39 664.93,-113.93 662,-113.5 540.11,-95.55 505.52,-100.79 380.93,-77.65"/>
<polygon fill="#63b8ff" stroke="#63b8ff" points="381.76,-74.25 371.29,-75.83 380.47,-81.13 381.76,-74.25"/>
</a>
</g>
</g>
<!-- Node23&#45;&gt;Node16 -->
<g id="edge35_Node000023_Node000016" class="edge">
<title>Node23&#45;&gt;Node16</title>
<g id="a_edge35_Node000023_Node000016"><a xlink:title=" ">
<path fill="none" stroke="#63b8ff" d="M671.04,-113.03C631.4,-104.63 572.88,-91.98 512.71,-77.85"/>
<polygon fill="#63b8ff" stroke="#63b8ff" points="513.87,-74.52 503.33,-75.63 512.26,-81.34 513.87,-74.52"/>
</a>
</g>
</g>
<!-- Node23&#45;&gt;Node21 -->
<g id="edge37_Node000023_Node000021" class="edge">
<title>Node23&#45;&gt;Node21</title>
<g id="a_edge37_Node000023_Node000021"><a xlink:title=" ">
<path fill="none" stroke="#63b8ff" d="M764.97,-120.78C840.89,-116.74 995.34,-105.85 1134.25,-77.72"/>
<polygon fill="#63b8ff" stroke="#63b8ff" points="1134.93,-81.15 1144.02,-75.7 1133.52,-74.3 1134.93,-81.15"/>
</a>
</g>
</g>
<!-- Node24 -->
<g id="Node000024" class="node">
<title>Node24</title>
<g id="a_Node000024"><a xlink:title=" ">
<polygon fill="#e0e0e0" stroke="#999999" points="852.62,-77.5 771.38,-77.5 771.38,-56.75 852.62,-56.75 852.62,-77.5"/>
<text text-anchor="middle" x="812" y="-64" font-family="Helvetica,sans-Serif" font-size="10.00">periph_conf.h</text>
</a>
</g>
</g>
<!-- Node23&#45;&gt;Node24 -->
<g id="edge36_Node000023_Node000024" class="edge">
<title>Node23&#45;&gt;Node24</title>
<g id="a_edge36_Node000023_Node000024"><a xlink:title=" ">
<path fill="none" stroke="#63b8ff" d="M734.81,-113.09C748.97,-104.83 769.49,-92.88 785.81,-83.38"/>
<polygon fill="#63b8ff" stroke="#63b8ff" points="787.15,-86.65 794.03,-78.59 783.63,-80.6 787.15,-86.65"/>
</a>
</g>
</g>
<!-- Node25 -->
<g id="Node000025" class="node">
<title>Node25</title>
<g id="a_Node000025"><a xlink:href="usbopt_8h.html" target="_top" xlink:title="Definition of global USB peripheral and USB peripheral endpoint configuration options.">
<polygon fill="white" stroke="#666666" points="753.12,-77.5 674.88,-77.5 674.88,-56.75 753.12,-56.75 753.12,-77.5"/>
<text text-anchor="middle" x="714" y="-64" font-family="Helvetica,sans-Serif" font-size="10.00">usb/usbopt.h</text>
</a>
</g>
</g>
<!-- Node23&#45;&gt;Node25 -->
<g id="edge38_Node000023_Node000025" class="edge">
<title>Node23&#45;&gt;Node25</title>
<g id="a_edge38_Node000023_Node000025"><a xlink:title=" ">
<path fill="none" stroke="#63b8ff" d="M717.28,-113.09C716.8,-106.47 716.14,-97.47 715.54,-89.27"/>
<polygon fill="#63b8ff" stroke="#63b8ff" points="719.04,-89.06 714.82,-79.34 712.06,-89.57 719.04,-89.06"/>
</a>
</g>
</g>
<!-- Node25&#45;&gt;Node2 -->
<g id="edge39_Node000025_Node000002" class="edge">
<title>Node25&#45;&gt;Node2</title>
<g id="a_edge39_Node000025_Node000002"><a xlink:title=" ">
<path fill="none" stroke="#63b8ff" d="M683.25,-56.34C654.25,-47.11 610.71,-33.25 579.64,-23.36"/>
<polygon fill="#63b8ff" stroke="#63b8ff" points="580.84,-20.07 570.25,-20.37 578.72,-26.74 580.84,-20.07"/>
</a>
</g>
</g>
<!-- Node26&#45;&gt;Node2 -->
<g id="edge41_Node000026_Node000002" class="edge">
<title>Node26&#45;&gt;Node2</title>
<g id="a_edge41_Node000026_Node000002"><a xlink:title=" ">
<path fill="none" stroke="#63b8ff" d="M605.39,-113.27C604.16,-99.8 600.55,-74.94 590,-56.75 583.62,-45.74 573.74,-35.75 564.61,-27.96"/>
<polygon fill="#63b8ff" stroke="#63b8ff" points="567.05,-25.43 557.06,-21.9 562.66,-30.89 567.05,-25.43"/>
</a>
</g>
</g>
<!-- Node26&#45;&gt;Node6 -->
<g id="edge42_Node000026_Node000006" class="edge">
<title>Node26&#45;&gt;Node6</title>
<g id="a_edge42_Node000026_Node000006"><a xlink:title=" ">
<path fill="none" stroke="#63b8ff" d="M595.99,-113.09C588.26,-105.53 577.37,-94.89 568.13,-85.85"/>
<polygon fill="#63b8ff" stroke="#63b8ff" points="570.6,-83.37 561.01,-78.89 565.71,-88.38 570.6,-83.37"/>
</a>
</g>
</g>
<!-- Node28 -->
<g id="Node000028" class="node">
<title>Node28</title>
<g id="a_Node000028"><a xlink:href="byteorder_8h.html" target="_top" xlink:title="Functions to work with different byte orders.">
<polygon fill="white" stroke="#666666" points="1024.12,-134.25 951.88,-134.25 951.88,-113.5 1024.12,-113.5 1024.12,-134.25"/>
<text text-anchor="middle" x="988" y="-120.75" font-family="Helvetica,sans-Serif" font-size="10.00">byteorder.h</text>
</a>
</g>
</g>
<!-- Node27&#45;&gt;Node28 -->
<g id="edge44_Node000027_Node000028" class="edge">
<title>Node27&#45;&gt;Node28</title>
<g id="a_edge44_Node000027_Node000028"><a xlink:title=" ">
<path fill="none" stroke="#63b8ff" d="M674.07,-283.41C693.59,-274.36 723.37,-260.39 749,-247.75 825.54,-210 914.72,-163.46 959.4,-139.97"/>
<polygon fill="#63b8ff" stroke="#63b8ff" points="960.96,-143.11 968.17,-135.35 957.69,-136.91 960.96,-143.11"/>
</a>
</g>
</g>
<!-- Node28&#45;&gt;Node2 -->
<g id="edge46_Node000028_Node000002" class="edge">
<title>Node28&#45;&gt;Node2</title>
<g id="a_edge46_Node000028_Node000002"><a xlink:title=" ">
<path fill="none" stroke="#63b8ff" d="M999.84,-113.19C1015.3,-99.42 1038.65,-73.95 1023,-56.75 993.34,-24.16 688.32,-14.5 579.95,-12.08"/>
<polygon fill="#63b8ff" stroke="#63b8ff" points="580.2,-8.59 570.13,-11.88 580.05,-15.59 580.2,-8.59"/>
</a>
</g>
</g>
<!-- Node29 -->
<g id="Node000029" class="node">
<title>Node29</title>
<g id="a_Node000029"><a xlink:title=" ">
<polygon fill="#e0e0e0" stroke="#999999" points="1014.38,-77.5 961.62,-77.5 961.62,-56.75 1014.38,-56.75 1014.38,-77.5"/>
<text text-anchor="middle" x="988" y="-64" font-family="Helvetica,sans-Serif" font-size="10.00">string.h</text>
</a>
</g>
</g>
<!-- Node28&#45;&gt;Node29 -->
<g id="edge45_Node000028_Node000029" class="edge">
<title>Node28&#45;&gt;Node29</title>
<g id="a_edge45_Node000028_Node000029"><a xlink:title=" ">
<path fill="none" stroke="#63b8ff" d="M988,-113.09C988,-106.47 988,-97.47 988,-89.27"/>
<polygon fill="#63b8ff" stroke="#63b8ff" points="991.5,-89.34 988,-79.34 984.5,-89.34 991.5,-89.34"/>
</a>
</g>
</g>
<!-- Node30 -->
<g id="Node000030" class="node">
<title>Node30</title>
<g id="a_Node000030"><a xlink:href="endian_8h.html" target="_top" xlink:title="libc header for endian conversion">
<polygon fill="white" stroke="#666666" points="1128,-77.5 1070,-77.5 1070,-56.75 1128,-56.75 1128,-77.5"/>
<text text-anchor="middle" x="1099" y="-64" font-family="Helvetica,sans-Serif" font-size="10.00">endian.h</text>
</a>
</g>
</g>
<!-- Node28&#45;&gt;Node30 -->
<g id="edge47_Node000028_Node000030" class="edge">
<title>Node28&#45;&gt;Node30</title>
<g id="a_edge47_Node000028_Node000030"><a xlink:title=" ">
<path fill="none" stroke="#63b8ff" d="M1007.84,-113.09C1024.89,-104.68 1049.72,-92.43 1069.16,-82.84"/>
<polygon fill="#63b8ff" stroke="#63b8ff" points="1070.55,-86.06 1077.97,-78.5 1067.45,-79.78 1070.55,-86.06"/>
</a>
</g>
</g>
<!-- Node31 -->
<g id="Node000031" class="node">
<title>Node31</title>
<g id="a_Node000031"><a xlink:href="unaligned_8h.html" target="_top" xlink:title="Unaligned but safe memory access functions.">
<polygon fill="white" stroke="#666666" points="943.5,-77.5 870.5,-77.5 870.5,-56.75 943.5,-56.75 943.5,-77.5"/>
<text text-anchor="middle" x="907" y="-64" font-family="Helvetica,sans-Serif" font-size="10.00">unaligned.h</text>
</a>
</g>
</g>
<!-- Node28&#45;&gt;Node31 -->
<g id="edge49_Node000028_Node000031" class="edge">
<title>Node28&#45;&gt;Node31</title>
<g id="a_edge49_Node000028_Node000031"><a xlink:title=" ">
<path fill="none" stroke="#63b8ff" d="M973.52,-113.09C961.65,-105.07 944.63,-93.56 930.77,-84.19"/>
<polygon fill="#63b8ff" stroke="#63b8ff" points="932.85,-81.38 922.61,-78.68 928.93,-87.18 932.85,-81.38"/>
</a>
</g>
</g>
<!-- Node30&#45;&gt;Node2 -->
<g id="edge48_Node000030_Node000002" class="edge">
<title>Node30&#45;&gt;Node2</title>
<g id="a_edge48_Node000030_Node000002"><a xlink:title=" ">
<path fill="none" stroke="#63b8ff" d="M1069.95,-59.27C1065.3,-58.32 1060.53,-57.44 1056,-56.75 879.2,-29.78 665.55,-17.28 580.05,-13.08"/>
<polygon fill="#63b8ff" stroke="#63b8ff" points="580.29,-9.59 570.14,-12.61 579.96,-16.58 580.29,-9.59"/>
</a>
</g>
</g>
<!-- Node31&#45;&gt;Node2 -->
<g id="edge50_Node000031_Node000002" class="edge">
<title>Node31&#45;&gt;Node2</title>
<g id="a_edge50_Node000031_Node000002"><a xlink:title=" ">
<path fill="none" stroke="#63b8ff" d="M870.2,-58.26C867.43,-57.73 864.67,-57.22 862,-56.75 760.44,-38.99 639.81,-23.35 579.81,-15.93"/>
<polygon fill="#63b8ff" stroke="#63b8ff" points="580.5,-12.49 570.14,-14.75 579.64,-19.44 580.5,-12.49"/>
</a>
</g>
</g>
</g>
</svg>
