<?xml version="1.0" encoding="UTF-8" standalone="no"?>
<!DOCTYPE svg PUBLIC "-//W3C//DTD SVG 1.1//EN"
 "http://www.w3.org/Graphics/SVG/1.1/DTD/svg11.dtd">
<!-- Generated by graphviz version 12.1.1 (0)
 -->
<!-- Title: sys/include/usb/usbus/hid.h Pages: 1 -->
<svg width="1546pt" height="496pt"
 viewBox="0.00 0.00 1546.38 495.50" xmlns="http://www.w3.org/2000/svg" xmlns:xlink="http://www.w3.org/1999/xlink">
<g id="graph0" class="graph" transform="scale(1 1) rotate(0) translate(4 491.5)">
<title>sys/include/usb/usbus/hid.h</title>
<!-- Node1 -->
<g id="Node000001" class="node">
<title>Node1</title>
<g id="a_Node000001"><a xlink:title="Interface and definitions for USB HID type interfaces in USBUS.">
<polygon fill="#999999" stroke="#666666" points="1363.62,-487.5 1241.12,-487.5 1241.12,-454 1363.62,-454 1363.62,-487.5"/>
<text text-anchor="start" x="1249.12" y="-474" font-family="Helvetica,sans-Serif" font-size="10.00">sys/include/usb/usbus</text>
<text text-anchor="middle" x="1302.38" y="-461.25" font-family="Helvetica,sans-Serif" font-size="10.00">/hid.h</text>
</a>
</g>
</g>
<!-- Node2 -->
<g id="Node000002" class="node">
<title>Node2</title>
<g id="a_Node000002"><a xlink:title=" ">
<polygon fill="#e0e0e0" stroke="#999999" points="838.75,-20.75 786,-20.75 786,0 838.75,0 838.75,-20.75"/>
<text text-anchor="middle" x="812.38" y="-7.25" font-family="Helvetica,sans-Serif" font-size="10.00">stdint.h</text>
</a>
</g>
</g>
<!-- Node1&#45;&gt;Node2 -->
<g id="edge1_Node000001_Node000002" class="edge">
<title>Node1&#45;&gt;Node2</title>
<g id="a_edge1_Node000001_Node000002"><a xlink:title=" ">
<path fill="none" stroke="#63b8ff" d="M1364.07,-465.18C1434,-456.24 1538.38,-429.85 1538.38,-351.88 1538.38,-351.88 1538.38,-351.88 1538.38,-122.88 1538.38,-43.46 1449.7,-74.85 1372.38,-56.75 1180.14,-11.75 941.8,-9.54 850.45,-10.59"/>
<polygon fill="#63b8ff" stroke="#63b8ff" points="850.51,-7.09 840.56,-10.73 850.61,-14.09 850.51,-7.09"/>
</a>
</g>
</g>
<!-- Node3 -->
<g id="Node000003" class="node">
<title>Node3</title>
<g id="a_Node000003"><a xlink:href="usbus_8h.html" target="_top" xlink:title="USBUS basic interface.">
<polygon fill="white" stroke="#666666" points="396.25,-304.5 322.5,-304.5 322.5,-283.75 396.25,-283.75 396.25,-304.5"/>
<text text-anchor="middle" x="359.38" y="-291" font-family="Helvetica,sans-Serif" font-size="10.00">usb/usbus.h</text>
</a>
</g>
</g>
<!-- Node1&#45;&gt;Node3 -->
<g id="edge2_Node000001_Node000003" class="edge">
<title>Node1&#45;&gt;Node3</title>
<g id="a_edge2_Node000001_Node000003"><a xlink:title=" ">
<path fill="none" stroke="#63b8ff" d="M1240.83,-468.87C1102.49,-465.34 757.77,-447.8 485.38,-361.25 447.67,-349.27 407.84,-326.41 383.29,-310.96"/>
<polygon fill="#63b8ff" stroke="#63b8ff" points="385.34,-308.12 375.03,-305.67 381.56,-314.01 385.34,-308.12"/>
</a>
</g>
</g>
<!-- Node27 -->
<g id="Node000027" class="node">
<title>Node27</title>
<g id="a_Node000027"><a xlink:href="hid_8h.html" target="_top" xlink:title="Definition for USB HID interfaces.">
<polygon fill="white" stroke="#666666" points="1446.5,-418 1386.25,-418 1386.25,-397.25 1446.5,-397.25 1446.5,-418"/>
<text text-anchor="middle" x="1416.38" y="-404.5" font-family="Helvetica,sans-Serif" font-size="10.00">usb/hid.h</text>
</a>
</g>
</g>
<!-- Node1&#45;&gt;Node27 -->
<g id="edge43_Node000001_Node000027" class="edge">
<title>Node1&#45;&gt;Node27</title>
<g id="a_edge43_Node000001_Node000027"><a xlink:title=" ">
<path fill="none" stroke="#63b8ff" d="M1332.63,-453.53C1349.89,-444.27 1371.38,-432.75 1388.27,-423.69"/>
<polygon fill="#63b8ff" stroke="#63b8ff" points="1389.62,-426.94 1396.78,-419.13 1386.32,-420.77 1389.62,-426.94"/>
</a>
</g>
</g>
<!-- Node29 -->
<g id="Node000029" class="node">
<title>Node29</title>
<g id="a_Node000029"><a xlink:href="mutex_8h.html" target="_top" xlink:title="Mutex for thread synchronization.">
<polygon fill="white" stroke="#666666" points="1156.62,-418 1100.12,-418 1100.12,-397.25 1156.62,-397.25 1156.62,-418"/>
<text text-anchor="middle" x="1128.38" y="-404.5" font-family="Helvetica,sans-Serif" font-size="10.00">mutex.h</text>
</a>
</g>
</g>
<!-- Node1&#45;&gt;Node29 -->
<g id="edge46_Node000001_Node000029" class="edge">
<title>Node1&#45;&gt;Node29</title>
<g id="a_edge46_Node000001_Node000029"><a xlink:title=" ">
<path fill="none" stroke="#63b8ff" d="M1256.2,-453.53C1228.36,-443.75 1193.31,-431.44 1166.96,-422.18"/>
<polygon fill="#63b8ff" stroke="#63b8ff" points="1168.27,-418.93 1157.67,-418.92 1165.95,-425.53 1168.27,-418.93"/>
</a>
</g>
</g>
<!-- Node3&#45;&gt;Node2 -->
<g id="edge3_Node000003_Node000002" class="edge">
<title>Node3&#45;&gt;Node2</title>
<g id="a_edge3_Node000003_Node000002"><a xlink:title=" ">
<path fill="none" stroke="#63b8ff" d="M378.56,-283.35C408.11,-266.78 461.38,-230.16 461.38,-181.62 461.38,-181.62 461.38,-181.62 461.38,-122.88 461.38,-57.78 683.41,-25.7 774.29,-15.29"/>
<polygon fill="#63b8ff" stroke="#63b8ff" points="774.65,-18.78 784.2,-14.19 773.87,-11.82 774.65,-18.78"/>
</a>
</g>
</g>
<!-- Node4 -->
<g id="Node000004" class="node">
<title>Node4</title>
<g id="a_Node000004"><a xlink:title=" ">
<polygon fill="#e0e0e0" stroke="#999999" points="358.38,-247.75 306.38,-247.75 306.38,-227 358.38,-227 358.38,-247.75"/>
<text text-anchor="middle" x="332.38" y="-234.25" font-family="Helvetica,sans-Serif" font-size="10.00">stdlib.h</text>
</a>
</g>
</g>
<!-- Node3&#45;&gt;Node4 -->
<g id="edge4_Node000003_Node000004" class="edge">
<title>Node3&#45;&gt;Node4</title>
<g id="a_edge4_Node000003_Node000004"><a xlink:title=" ">
<path fill="none" stroke="#63b8ff" d="M354.55,-283.34C351.13,-276.41 346.43,-266.87 342.23,-258.36"/>
<polygon fill="#63b8ff" stroke="#63b8ff" points="345.39,-256.86 337.83,-249.44 339.11,-259.95 345.39,-256.86"/>
</a>
</g>
</g>
<!-- Node5 -->
<g id="Node000005" class="node">
<title>Node5</title>
<g id="a_Node000005"><a xlink:href="clist_8h.html" target="_top" xlink:title="Circular linked list.">
<polygon fill="white" stroke="#666666" points="933,-191 887.75,-191 887.75,-170.25 933,-170.25 933,-191"/>
<text text-anchor="middle" x="910.38" y="-177.5" font-family="Helvetica,sans-Serif" font-size="10.00">clist.h</text>
</a>
</g>
</g>
<!-- Node3&#45;&gt;Node5 -->
<g id="edge5_Node000003_Node000005" class="edge">
<title>Node3&#45;&gt;Node5</title>
<g id="a_edge5_Node000003_Node000005"><a xlink:title=" ">
<path fill="none" stroke="#63b8ff" d="M396.38,-285.64C497.71,-265.13 778.58,-208.29 876.32,-188.52"/>
<polygon fill="#63b8ff" stroke="#63b8ff" points="876.72,-192.01 885.82,-186.59 875.33,-185.15 876.72,-192.01"/>
</a>
</g>
</g>
<!-- Node9 -->
<g id="Node000009" class="node">
<title>Node9</title>
<g id="a_Node000009"><a xlink:title=" ">
<polygon fill="#e0e0e0" stroke="#999999" points="52.75,-247.75 0,-247.75 0,-227 52.75,-227 52.75,-247.75"/>
<text text-anchor="middle" x="26.38" y="-234.25" font-family="Helvetica,sans-Serif" font-size="10.00">event.h</text>
</a>
</g>
</g>
<!-- Node3&#45;&gt;Node9 -->
<g id="edge9_Node000003_Node000009" class="edge">
<title>Node3&#45;&gt;Node9</title>
<g id="a_edge9_Node000003_Node000009"><a xlink:title=" ">
<path fill="none" stroke="#63b8ff" d="M322.44,-288.84C267.93,-282.22 162.57,-268.32 64.1,-248.14"/>
<polygon fill="#63b8ff" stroke="#63b8ff" points="65.04,-244.76 54.54,-246.16 63.61,-251.62 65.04,-244.76"/>
</a>
</g>
</g>
<!-- Node10 -->
<g id="Node000010" class="node">
<title>Node10</title>
<g id="a_Node000010"><a xlink:href="sched_8h.html" target="_top" xlink:title="Scheduler API definition.">
<polygon fill="white" stroke="#666666" points="903.12,-247.75 849.62,-247.75 849.62,-227 903.12,-227 903.12,-247.75"/>
<text text-anchor="middle" x="876.38" y="-234.25" font-family="Helvetica,sans-Serif" font-size="10.00">sched.h</text>
</a>
</g>
</g>
<!-- Node3&#45;&gt;Node10 -->
<g id="edge10_Node000003_Node000010" class="edge">
<title>Node3&#45;&gt;Node10</title>
<g id="a_edge10_Node000003_Node000010"><a xlink:title=" ">
<path fill="none" stroke="#63b8ff" d="M396.56,-289.19C491.46,-279.14 741.94,-252.61 838.07,-242.43"/>
<polygon fill="#63b8ff" stroke="#63b8ff" points="838.19,-245.94 847.76,-241.41 837.45,-238.98 838.19,-245.94"/>
</a>
</g>
</g>
<!-- Node13 -->
<g id="Node000013" class="node">
<title>Node13</title>
<g id="a_Node000013"><a xlink:href="modules_8h.html" target="_top" xlink:title="Common macros and compiler attributes/pragmas configuration.">
<polygon fill="white" stroke="#666666" points="674.88,-134.25 607.88,-134.25 607.88,-113.5 674.88,-113.5 674.88,-134.25"/>
<text text-anchor="middle" x="641.38" y="-120.75" font-family="Helvetica,sans-Serif" font-size="10.00">modules.h</text>
</a>
</g>
</g>
<!-- Node3&#45;&gt;Node13 -->
<g id="edge26_Node000003_Node000013" class="edge">
<title>Node3&#45;&gt;Node13</title>
<g id="a_edge26_Node000003_Node000013"><a xlink:title=" ">
<path fill="none" stroke="#63b8ff" d="M390.91,-283.32C414.83,-275.29 448.12,-262.82 475.38,-247.75 532.29,-216.28 591.88,-167.73 621.79,-142.09"/>
<polygon fill="#63b8ff" stroke="#63b8ff" points="624,-144.81 629.27,-135.61 619.42,-139.51 624,-144.81"/>
</a>
</g>
</g>
<!-- Node19 -->
<g id="Node000019" class="node">
<title>Node19</title>
<g id="a_Node000019"><a xlink:title=" ">
<polygon fill="#e0e0e0" stroke="#999999" points="116.38,-247.75 70.38,-247.75 70.38,-227 116.38,-227 116.38,-247.75"/>
<text text-anchor="middle" x="93.38" y="-234.25" font-family="Helvetica,sans-Serif" font-size="10.00">msg.h</text>
</a>
</g>
</g>
<!-- Node3&#45;&gt;Node19 -->
<g id="edge27_Node000003_Node000019" class="edge">
<title>Node3&#45;&gt;Node19</title>
<g id="a_edge27_Node000003_Node000019"><a xlink:title=" ">
<path fill="none" stroke="#63b8ff" d="M322.26,-287.03C278.09,-279.54 201.91,-265.86 127.66,-248.13"/>
<polygon fill="#63b8ff" stroke="#63b8ff" points="128.74,-244.79 118.2,-245.85 127.09,-251.6 128.74,-244.79"/>
</a>
</g>
</g>
<!-- Node20 -->
<g id="Node000020" class="node">
<title>Node20</title>
<g id="a_Node000020"><a xlink:title=" ">
<polygon fill="#e0e0e0" stroke="#999999" points="190.62,-247.75 134.12,-247.75 134.12,-227 190.62,-227 190.62,-247.75"/>
<text text-anchor="middle" x="162.38" y="-234.25" font-family="Helvetica,sans-Serif" font-size="10.00">thread.h</text>
</a>
</g>
</g>
<!-- Node3&#45;&gt;Node20 -->
<g id="edge28_Node000003_Node000020" class="edge">
<title>Node3&#45;&gt;Node20</title>
<g id="a_edge28_Node000003_Node000020"><a xlink:title=" ">
<path fill="none" stroke="#63b8ff" d="M324.16,-283.34C289.8,-273.79 237.64,-259.29 201.89,-249.36"/>
<polygon fill="#63b8ff" stroke="#63b8ff" points="202.93,-246.01 192.36,-246.71 201.06,-252.76 202.93,-246.01"/>
</a>
</g>
</g>
<!-- Node21 -->
<g id="Node000021" class="node">
<title>Node21</title>
<g id="a_Node000021"><a xlink:href="usb_8h.html" target="_top" xlink:title="Definition of global compile time configuration options.">
<polygon fill="white" stroke="#666666" points="143.5,-134.25 101.25,-134.25 101.25,-113.5 143.5,-113.5 143.5,-134.25"/>
<text text-anchor="middle" x="122.38" y="-120.75" font-family="Helvetica,sans-Serif" font-size="10.00">usb.h</text>
</a>
</g>
</g>
<!-- Node3&#45;&gt;Node21 -->
<g id="edge29_Node000003_Node000021" class="edge">
<title>Node3&#45;&gt;Node21</title>
<g id="a_edge29_Node000003_Node000021"><a xlink:title=" ">
<path fill="none" stroke="#63b8ff" d="M341.26,-283.28C325.4,-274.47 301.92,-260.94 282.38,-247.75 230.25,-212.57 172.53,-166.29 142.71,-141.79"/>
<polygon fill="#63b8ff" stroke="#63b8ff" points="145.15,-139.27 135.21,-135.6 140.7,-144.67 145.15,-139.27"/>
</a>
</g>
</g>
<!-- Node23 -->
<g id="Node000023" class="node">
<title>Node23</title>
<g id="a_Node000023"><a xlink:href="usbdev_8h.html" target="_top" xlink:title="Definitions low&#45;level USB driver interface.">
<polygon fill="white" stroke="#666666" points="321,-191 227.75,-191 227.75,-170.25 321,-170.25 321,-191"/>
<text text-anchor="middle" x="274.38" y="-177.5" font-family="Helvetica,sans-Serif" font-size="10.00">periph/usbdev.h</text>
</a>
</g>
</g>
<!-- Node3&#45;&gt;Node23 -->
<g id="edge31_Node000003_Node000023" class="edge">
<title>Node3&#45;&gt;Node23</title>
<g id="a_edge31_Node000003_Node000023"><a xlink:title=" ">
<path fill="none" stroke="#63b8ff" d="M340.43,-283.37C326.73,-275.45 308.72,-263.08 297.38,-247.75 287.42,-234.3 281.52,-216.19 278.2,-202.32"/>
<polygon fill="#63b8ff" stroke="#63b8ff" points="281.7,-202 276.21,-192.94 274.86,-203.44 281.7,-202"/>
</a>
</g>
</g>
<!-- Node26 -->
<g id="Node000026" class="node">
<title>Node26</title>
<g id="a_Node000026"><a xlink:href="descriptor_8h.html" target="_top" xlink:title="Definitions for USB protocol messages.">
<polygon fill="white" stroke="#666666" points="433.38,-191 339.38,-191 339.38,-170.25 433.38,-170.25 433.38,-191"/>
<text text-anchor="middle" x="386.38" y="-177.5" font-family="Helvetica,sans-Serif" font-size="10.00">usb/descriptor.h</text>
</a>
</g>
</g>
<!-- Node3&#45;&gt;Node26 -->
<g id="edge40_Node000003_Node000026" class="edge">
<title>Node3&#45;&gt;Node26</title>
<g id="a_edge40_Node000003_Node000026"><a xlink:title=" ">
<path fill="none" stroke="#63b8ff" d="M361.68,-283.62C366,-265.77 375.42,-226.86 381.3,-202.59"/>
<polygon fill="#63b8ff" stroke="#63b8ff" points="384.69,-203.44 383.65,-192.9 377.89,-201.79 384.69,-203.44"/>
</a>
</g>
</g>
<!-- Node6 -->
<g id="Node000006" class="node">
<title>Node6</title>
<g id="a_Node000006"><a xlink:title=" ">
<polygon fill="#e0e0e0" stroke="#999999" points="550.88,-134.25 489.88,-134.25 489.88,-113.5 550.88,-113.5 550.88,-134.25"/>
<text text-anchor="middle" x="520.38" y="-120.75" font-family="Helvetica,sans-Serif" font-size="10.00">stdbool.h</text>
</a>
</g>
</g>
<!-- Node5&#45;&gt;Node6 -->
<g id="edge6_Node000005_Node000006" class="edge">
<title>Node5&#45;&gt;Node6</title>
<g id="a_edge6_Node000005_Node000006"><a xlink:title=" ">
<path fill="none" stroke="#63b8ff" d="M887.43,-176.4C823.86,-167.48 644.71,-142.33 562.53,-130.79"/>
<polygon fill="#63b8ff" stroke="#63b8ff" points="563.02,-127.33 552.63,-129.4 562.05,-134.26 563.02,-127.33"/>
</a>
</g>
</g>
<!-- Node7 -->
<g id="Node000007" class="node">
<title>Node7</title>
<g id="a_Node000007"><a xlink:title=" ">
<polygon fill="#e0e0e0" stroke="#999999" points="1027.88,-77.5 972.88,-77.5 972.88,-56.75 1027.88,-56.75 1027.88,-77.5"/>
<text text-anchor="middle" x="1000.38" y="-64" font-family="Helvetica,sans-Serif" font-size="10.00">stddef.h</text>
</a>
</g>
</g>
<!-- Node5&#45;&gt;Node7 -->
<g id="edge7_Node000005_Node000007" class="edge">
<title>Node5&#45;&gt;Node7</title>
<g id="a_edge7_Node000005_Node000007"><a xlink:title=" ">
<path fill="none" stroke="#63b8ff" d="M933.23,-170.59C956.09,-161.05 988.92,-145.81 996.38,-134.25 1004.97,-120.93 1005.47,-102.79 1004.1,-88.88"/>
<polygon fill="#63b8ff" stroke="#63b8ff" points="1007.57,-88.46 1002.71,-79.05 1000.64,-89.44 1007.57,-88.46"/>
</a>
</g>
</g>
<!-- Node8 -->
<g id="Node000008" class="node">
<title>Node8</title>
<g id="a_Node000008"><a xlink:href="list_8h.html" target="_top" xlink:title="Intrusive linked list.">
<polygon fill="white" stroke="#666666" points="1088.38,-134.25 1048.38,-134.25 1048.38,-113.5 1088.38,-113.5 1088.38,-134.25"/>
<text text-anchor="middle" x="1068.38" y="-120.75" font-family="Helvetica,sans-Serif" font-size="10.00">list.h</text>
</a>
</g>
</g>
<!-- Node5&#45;&gt;Node8 -->
<g id="edge8_Node000005_Node000008" class="edge">
<title>Node5&#45;&gt;Node8</title>
<g id="a_edge8_Node000005_Node000008"><a xlink:title=" ">
<path fill="none" stroke="#63b8ff" d="M933.35,-171.66C960.79,-162.15 1006.81,-146.21 1037.39,-135.61"/>
<polygon fill="#63b8ff" stroke="#63b8ff" points="1038.15,-139.05 1046.46,-132.47 1035.86,-132.44 1038.15,-139.05"/>
</a>
</g>
</g>
<!-- Node10&#45;&gt;Node5 -->
<g id="edge25_Node000010_Node000005" class="edge">
<title>Node10&#45;&gt;Node5</title>
<g id="a_edge25_Node000010_Node000005"><a xlink:title=" ">
<path fill="none" stroke="#63b8ff" d="M882.45,-226.59C886.85,-219.5 892.95,-209.69 898.32,-201.04"/>
<polygon fill="#63b8ff" stroke="#63b8ff" points="901.25,-202.96 903.55,-192.61 895.3,-199.26 901.25,-202.96"/>
</a>
</g>
</g>
<!-- Node10&#45;&gt;Node7 -->
<g id="edge11_Node000010_Node000007" class="edge">
<title>Node10&#45;&gt;Node7</title>
<g id="a_edge11_Node000010_Node000007"><a xlink:title=" ">
<path fill="none" stroke="#63b8ff" d="M873.76,-226.9C870.57,-213.15 866.89,-187.44 878.38,-170.25 900.04,-137.83 928.91,-159.78 958.38,-134.25 972.97,-121.6 984.3,-102.63 991.49,-88.25"/>
<polygon fill="#63b8ff" stroke="#63b8ff" points="994.63,-89.82 995.72,-79.28 988.29,-86.84 994.63,-89.82"/>
</a>
</g>
</g>
<!-- Node11 -->
<g id="Node000011" class="node">
<title>Node11</title>
<g id="a_Node000011"><a xlink:href="inttypes_8h.html" target="_top" xlink:title="Adds include for missing inttype definitions.">
<polygon fill="white" stroke="#666666" points="1160.75,-191 1096,-191 1096,-170.25 1160.75,-170.25 1160.75,-191"/>
<text text-anchor="middle" x="1128.38" y="-177.5" font-family="Helvetica,sans-Serif" font-size="10.00">inttypes.h</text>
</a>
</g>
</g>
<!-- Node10&#45;&gt;Node11 -->
<g id="edge12_Node000010_Node000011" class="edge">
<title>Node10&#45;&gt;Node11</title>
<g id="a_edge12_Node000010_Node000011"><a xlink:title=" ">
<path fill="none" stroke="#63b8ff" d="M903.47,-229.17C906.47,-228.42 909.48,-227.68 912.38,-227 971.78,-213.03 1040.88,-198.88 1084.61,-190.18"/>
<polygon fill="#63b8ff" stroke="#63b8ff" points="1085.09,-193.66 1094.21,-188.28 1083.73,-186.79 1085.09,-193.66"/>
</a>
</g>
</g>
<!-- Node12 -->
<g id="Node000012" class="node">
<title>Node12</title>
<g id="a_Node000012"><a xlink:href="kernel__defines_8h.html" target="_top" xlink:title="Common macros and compiler attributes/pragmas configuration.">
<polygon fill="white" stroke="#666666" points="793.5,-191 697.25,-191 697.25,-170.25 793.5,-170.25 793.5,-191"/>
<text text-anchor="middle" x="745.38" y="-177.5" font-family="Helvetica,sans-Serif" font-size="10.00">kernel_defines.h</text>
</a>
</g>
</g>
<!-- Node10&#45;&gt;Node12 -->
<g id="edge13_Node000010_Node000012" class="edge">
<title>Node10&#45;&gt;Node12</title>
<g id="a_edge13_Node000010_Node000012"><a xlink:title=" ">
<path fill="none" stroke="#63b8ff" d="M852.95,-226.59C832.37,-217.98 802.17,-205.36 779,-195.68"/>
<polygon fill="#63b8ff" stroke="#63b8ff" points="780.57,-192.54 769.99,-191.91 777.87,-199 780.57,-192.54"/>
</a>
</g>
</g>
<!-- Node18 -->
<g id="Node000018" class="node">
<title>Node18</title>
<g id="a_Node000018"><a xlink:href="native__sched_8h.html" target="_top" xlink:title="Add definitions required on the native board.">
<polygon fill="white" stroke="#666666" points="1040.12,-191 950.62,-191 950.62,-170.25 1040.12,-170.25 1040.12,-191"/>
<text text-anchor="middle" x="995.38" y="-177.5" font-family="Helvetica,sans-Serif" font-size="10.00">native_sched.h</text>
</a>
</g>
</g>
<!-- Node10&#45;&gt;Node18 -->
<g id="edge24_Node000010_Node000018" class="edge">
<title>Node10&#45;&gt;Node18</title>
<g id="a_edge24_Node000010_Node000018"><a xlink:title=" ">
<path fill="none" stroke="#63b8ff" d="M897.65,-226.59C916.09,-218.1 943.04,-205.7 963.97,-196.08"/>
<polygon fill="#63b8ff" stroke="#63b8ff" points="965.29,-199.32 972.91,-191.96 962.36,-192.96 965.29,-199.32"/>
</a>
</g>
</g>
<!-- Node12&#45;&gt;Node13 -->
<g id="edge14_Node000012_Node000013" class="edge">
<title>Node12&#45;&gt;Node13</title>
<g id="a_edge14_Node000012_Node000013"><a xlink:title=" ">
<path fill="none" stroke="#63b8ff" d="M726.78,-169.84C710.96,-161.51 687.98,-149.41 669.84,-139.86"/>
<polygon fill="#63b8ff" stroke="#63b8ff" points="671.63,-136.84 661.15,-135.28 668.36,-143.04 671.63,-136.84"/>
</a>
</g>
</g>
<!-- Node14 -->
<g id="Node000014" class="node">
<title>Node14</title>
<g id="a_Node000014"><a xlink:href="riot__version_8h.html" target="_top" xlink:title="Common macros and compiler attributes/pragmas configuration.">
<polygon fill="white" stroke="#666666" points="853.75,-77.5 771,-77.5 771,-56.75 853.75,-56.75 853.75,-77.5"/>
<text text-anchor="middle" x="812.38" y="-64" font-family="Helvetica,sans-Serif" font-size="10.00">riot_version.h</text>
</a>
</g>
</g>
<!-- Node12&#45;&gt;Node14 -->
<g id="edge15_Node000012_Node000014" class="edge">
<title>Node12&#45;&gt;Node14</title>
<g id="a_edge15_Node000012_Node000014"><a xlink:title=" ">
<path fill="none" stroke="#63b8ff" d="M761.82,-169.78C773.82,-161.73 789.47,-149.25 798.38,-134.25 806.54,-120.5 809.98,-102.65 811.41,-88.96"/>
<polygon fill="#63b8ff" stroke="#63b8ff" points="814.88,-89.54 812.13,-79.31 807.89,-89.02 814.88,-89.54"/>
</a>
</g>
</g>
<!-- Node15 -->
<g id="Node000015" class="node">
<title>Node15</title>
<g id="a_Node000015"><a xlink:href="compiler__hints_8h.html" target="_top" xlink:title="Common macros and compiler attributes/pragmas configuration.">
<polygon fill="white" stroke="#666666" points="789.88,-134.25 692.88,-134.25 692.88,-113.5 789.88,-113.5 789.88,-134.25"/>
<text text-anchor="middle" x="741.38" y="-120.75" font-family="Helvetica,sans-Serif" font-size="10.00">compiler_hints.h</text>
</a>
</g>
</g>
<!-- Node12&#45;&gt;Node15 -->
<g id="edge17_Node000012_Node000015" class="edge">
<title>Node12&#45;&gt;Node15</title>
<g id="a_edge17_Node000012_Node000015"><a xlink:title=" ">
<path fill="none" stroke="#63b8ff" d="M744.66,-169.84C744.18,-163.22 743.52,-154.22 742.92,-146.02"/>
<polygon fill="#63b8ff" stroke="#63b8ff" points="746.41,-145.81 742.19,-136.09 739.43,-146.32 746.41,-145.81"/>
</a>
</g>
</g>
<!-- Node17 -->
<g id="Node000017" class="node">
<title>Node17</title>
<g id="a_Node000017"><a xlink:href="container_8h.html" target="_top" xlink:title="Common macros and compiler attributes/pragmas configuration.">
<polygon fill="white" stroke="#666666" points="916.75,-134.25 846,-134.25 846,-113.5 916.75,-113.5 916.75,-134.25"/>
<text text-anchor="middle" x="881.38" y="-120.75" font-family="Helvetica,sans-Serif" font-size="10.00">container.h</text>
</a>
</g>
</g>
<!-- Node12&#45;&gt;Node17 -->
<g id="edge21_Node000012_Node000017" class="edge">
<title>Node12&#45;&gt;Node17</title>
<g id="a_edge21_Node000012_Node000017"><a xlink:title=" ">
<path fill="none" stroke="#63b8ff" d="M769.69,-169.84C791.16,-161.19 822.7,-148.5 846.79,-138.8"/>
<polygon fill="#63b8ff" stroke="#63b8ff" points="847.9,-142.13 855.87,-135.14 845.28,-135.63 847.9,-142.13"/>
</a>
</g>
</g>
<!-- Node14&#45;&gt;Node2 -->
<g id="edge16_Node000014_Node000002" class="edge">
<title>Node14&#45;&gt;Node2</title>
<g id="a_edge16_Node000014_Node000002"><a xlink:title=" ">
<path fill="none" stroke="#63b8ff" d="M812.38,-56.34C812.38,-49.72 812.38,-40.72 812.38,-32.52"/>
<polygon fill="#63b8ff" stroke="#63b8ff" points="815.88,-32.59 812.38,-22.59 808.88,-32.59 815.88,-32.59"/>
</a>
</g>
</g>
<!-- Node15&#45;&gt;Node2 -->
<g id="edge20_Node000015_Node000002" class="edge">
<title>Node15&#45;&gt;Node2</title>
<g id="a_edge20_Node000015_Node000002"><a xlink:title=" ">
<path fill="none" stroke="#63b8ff" d="M742.81,-113.22C745.16,-99.71 750.79,-74.79 762.38,-56.75 769.4,-45.8 779.74,-35.82 789.19,-28.02"/>
<polygon fill="#63b8ff" stroke="#63b8ff" points="791.27,-30.84 797,-21.92 786.96,-25.32 791.27,-30.84"/>
</a>
</g>
</g>
<!-- Node16 -->
<g id="Node000016" class="node">
<title>Node16</title>
<g id="a_Node000016"><a xlink:href="assert_8h.html" target="_top" xlink:title="POSIX.1&#45;2008 compliant version of the assert macro.">
<polygon fill="white" stroke="#666666" points="660.88,-77.5 605.88,-77.5 605.88,-56.75 660.88,-56.75 660.88,-77.5"/>
<text text-anchor="middle" x="633.38" y="-64" font-family="Helvetica,sans-Serif" font-size="10.00">assert.h</text>
</a>
</g>
</g>
<!-- Node15&#45;&gt;Node16 -->
<g id="edge18_Node000015_Node000016" class="edge">
<title>Node15&#45;&gt;Node16</title>
<g id="a_edge18_Node000015_Node000016"><a xlink:title=" ">
<path fill="none" stroke="#63b8ff" d="M722.07,-113.09C705.56,-104.72 681.54,-92.54 662.67,-82.97"/>
<polygon fill="#63b8ff" stroke="#63b8ff" points="664.37,-79.91 653.87,-78.51 661.2,-86.16 664.37,-79.91"/>
</a>
</g>
</g>
<!-- Node16&#45;&gt;Node2 -->
<g id="edge19_Node000016_Node000002" class="edge">
<title>Node16&#45;&gt;Node2</title>
<g id="a_edge19_Node000016_Node000002"><a xlink:title=" ">
<path fill="none" stroke="#63b8ff" d="M661.34,-57.57C691.91,-48.22 741.03,-33.2 774.91,-22.83"/>
<polygon fill="#63b8ff" stroke="#63b8ff" points="775.78,-26.23 784.32,-19.96 773.74,-19.53 775.78,-26.23"/>
</a>
</g>
</g>
<!-- Node17&#45;&gt;Node2 -->
<g id="edge23_Node000017_Node000002" class="edge">
<title>Node17&#45;&gt;Node2</title>
<g id="a_edge23_Node000017_Node000002"><a xlink:title=" ">
<path fill="none" stroke="#63b8ff" d="M880.29,-113.23C878.41,-99.72 873.61,-74.8 862.38,-56.75 855.5,-45.7 845.18,-35.71 835.71,-27.92"/>
<polygon fill="#63b8ff" stroke="#63b8ff" points="837.91,-25.21 827.86,-21.85 833.63,-30.74 837.91,-25.21"/>
</a>
</g>
</g>
<!-- Node17&#45;&gt;Node7 -->
<g id="edge22_Node000017_Node000007" class="edge">
<title>Node17&#45;&gt;Node7</title>
<g id="a_edge22_Node000017_Node000007"><a xlink:title=" ">
<path fill="none" stroke="#63b8ff" d="M902.65,-113.09C921.09,-104.6 948.04,-92.2 968.97,-82.58"/>
<polygon fill="#63b8ff" stroke="#63b8ff" points="970.29,-85.82 977.91,-78.46 967.36,-79.46 970.29,-85.82"/>
</a>
</g>
</g>
<!-- Node22 -->
<g id="Node000022" class="node">
<title>Node22</title>
<g id="a_Node000022"><a xlink:title=" ">
<polygon fill="#e0e0e0" stroke="#999999" points="99.75,-77.5 47,-77.5 47,-56.75 99.75,-56.75 99.75,-77.5"/>
<text text-anchor="middle" x="73.38" y="-64" font-family="Helvetica,sans-Serif" font-size="10.00">board.h</text>
</a>
</g>
</g>
<!-- Node21&#45;&gt;Node22 -->
<g id="edge30_Node000021_Node000022" class="edge">
<title>Node21&#45;&gt;Node22</title>
<g id="a_edge30_Node000021_Node000022"><a xlink:title=" ">
<path fill="none" stroke="#63b8ff" d="M113.61,-113.09C106.93,-105.61 97.52,-95.11 89.49,-86.13"/>
<polygon fill="#63b8ff" stroke="#63b8ff" points="92.35,-84.07 83.07,-78.96 87.13,-88.74 92.35,-84.07"/>
</a>
</g>
</g>
<!-- Node23&#45;&gt;Node2 -->
<g id="edge33_Node000023_Node000002" class="edge">
<title>Node23&#45;&gt;Node2</title>
<g id="a_edge33_Node000023_Node000002"><a xlink:title=" ">
<path fill="none" stroke="#63b8ff" d="M266.71,-169.76C257.02,-156 242.99,-130.78 255.38,-113.5 301.03,-49.77 345.9,-73.99 422.38,-56.75 549.35,-28.13 703.89,-16.96 774.23,-13.13"/>
<polygon fill="#63b8ff" stroke="#63b8ff" points="774.25,-16.63 784.06,-12.62 773.89,-9.64 774.25,-16.63"/>
</a>
</g>
</g>
<!-- Node23&#45;&gt;Node6 -->
<g id="edge32_Node000023_Node000006" class="edge">
<title>Node23&#45;&gt;Node6</title>
<g id="a_edge32_Node000023_Node000006"><a xlink:title=" ">
<path fill="none" stroke="#63b8ff" d="M318.64,-169.77C364.07,-159.66 434.22,-144.05 478.69,-134.15"/>
<polygon fill="#63b8ff" stroke="#63b8ff" points="479.2,-137.62 488.2,-132.04 477.68,-130.79 479.2,-137.62"/>
</a>
</g>
</g>
<!-- Node23&#45;&gt;Node7 -->
<g id="edge34_Node000023_Node000007" class="edge">
<title>Node23&#45;&gt;Node7</title>
<g id="a_edge34_Node000023_Node000007"><a xlink:title=" ">
<path fill="none" stroke="#63b8ff" d="M298.95,-169.75C337.1,-154.88 413.18,-127.04 480.38,-113.5 527.14,-104.08 848.73,-79.46 961.44,-71.02"/>
<polygon fill="#63b8ff" stroke="#63b8ff" points="961.38,-74.53 971.09,-70.3 960.86,-67.55 961.38,-74.53"/>
</a>
</g>
</g>
<!-- Node23&#45;&gt;Node16 -->
<g id="edge35_Node000023_Node000016" class="edge">
<title>Node23&#45;&gt;Node16</title>
<g id="a_edge35_Node000023_Node000016"><a xlink:title=" ">
<path fill="none" stroke="#63b8ff" d="M269.26,-170.2C262.36,-156.04 252.44,-129.27 266.38,-113.5 287.84,-89.22 503.79,-75.01 594.05,-70.09"/>
<polygon fill="#63b8ff" stroke="#63b8ff" points="594.11,-73.59 603.91,-69.57 593.74,-66.6 594.11,-73.59"/>
</a>
</g>
</g>
<!-- Node23&#45;&gt;Node21 -->
<g id="edge37_Node000023_Node000021" class="edge">
<title>Node23&#45;&gt;Node21</title>
<g id="a_edge37_Node000023_Node000021"><a xlink:title=" ">
<path fill="none" stroke="#63b8ff" d="M247.2,-169.84C221.23,-160.48 182.08,-146.38 154.56,-136.47"/>
<polygon fill="#63b8ff" stroke="#63b8ff" points="155.93,-133.24 145.34,-133.15 153.56,-139.83 155.93,-133.24"/>
</a>
</g>
</g>
<!-- Node24 -->
<g id="Node000024" class="node">
<title>Node24</title>
<g id="a_Node000024"><a xlink:title=" ">
<polygon fill="#e0e0e0" stroke="#999999" points="357,-134.25 275.75,-134.25 275.75,-113.5 357,-113.5 357,-134.25"/>
<text text-anchor="middle" x="316.38" y="-120.75" font-family="Helvetica,sans-Serif" font-size="10.00">periph_conf.h</text>
</a>
</g>
</g>
<!-- Node23&#45;&gt;Node24 -->
<g id="edge36_Node000023_Node000024" class="edge">
<title>Node23&#45;&gt;Node24</title>
<g id="a_edge36_Node000023_Node000024"><a xlink:title=" ">
<path fill="none" stroke="#63b8ff" d="M281.88,-169.84C287.5,-162.52 295.34,-152.29 302.13,-143.44"/>
<polygon fill="#63b8ff" stroke="#63b8ff" points="304.7,-145.84 308.01,-135.78 299.15,-141.58 304.7,-145.84"/>
</a>
</g>
</g>
<!-- Node25 -->
<g id="Node000025" class="node">
<title>Node25</title>
<g id="a_Node000025"><a xlink:href="usbopt_8h.html" target="_top" xlink:title="Definition of global USB peripheral and USB peripheral endpoint configuration options.">
<polygon fill="white" stroke="#666666" points="196.5,-77.5 118.25,-77.5 118.25,-56.75 196.5,-56.75 196.5,-77.5"/>
<text text-anchor="middle" x="157.38" y="-64" font-family="Helvetica,sans-Serif" font-size="10.00">usb/usbopt.h</text>
</a>
</g>
</g>
<!-- Node23&#45;&gt;Node25 -->
<g id="edge38_Node000023_Node000025" class="edge">
<title>Node23&#45;&gt;Node25</title>
<g id="a_edge38_Node000023_Node000025"><a xlink:title=" ">
<path fill="none" stroke="#63b8ff" d="M250.06,-169.76C233.19,-162.01 211.03,-149.91 195.38,-134.25 182.08,-120.95 171.84,-102.06 165.36,-87.87"/>
<polygon fill="#63b8ff" stroke="#63b8ff" points="168.74,-86.89 161.58,-79.08 162.31,-89.65 168.74,-86.89"/>
</a>
</g>
</g>
<!-- Node25&#45;&gt;Node2 -->
<g id="edge39_Node000025_Node000002" class="edge">
<title>Node25&#45;&gt;Node2</title>
<g id="a_edge39_Node000025_Node000002"><a xlink:title=" ">
<path fill="none" stroke="#63b8ff" d="M196.96,-58.68C201.47,-57.96 206.02,-57.3 210.38,-56.75 422.54,-30.06 678.89,-17.09 774.24,-12.93"/>
<polygon fill="#63b8ff" stroke="#63b8ff" points="774.22,-16.43 784.07,-12.5 773.92,-9.44 774.22,-16.43"/>
</a>
</g>
</g>
<!-- Node26&#45;&gt;Node2 -->
<g id="edge41_Node000026_Node000002" class="edge">
<title>Node26&#45;&gt;Node2</title>
<g id="a_edge41_Node000026_Node000002"><a xlink:title=" ">
<path fill="none" stroke="#63b8ff" d="M388,-169.95C392.54,-146.19 407.74,-84.85 447.38,-56.75 499.32,-19.92 691.86,-12.93 774.41,-11.65"/>
<polygon fill="#63b8ff" stroke="#63b8ff" points="774.29,-15.15 784.24,-11.52 774.2,-8.15 774.29,-15.15"/>
</a>
</g>
</g>
<!-- Node26&#45;&gt;Node6 -->
<g id="edge42_Node000026_Node000006" class="edge">
<title>Node26&#45;&gt;Node6</title>
<g id="a_edge42_Node000026_Node000006"><a xlink:title=" ">
<path fill="none" stroke="#63b8ff" d="M410.33,-169.84C431.39,-161.23 462.28,-148.61 485.98,-138.93"/>
<polygon fill="#63b8ff" stroke="#63b8ff" points="487.29,-142.17 495.22,-135.15 484.64,-135.69 487.29,-142.17"/>
</a>
</g>
</g>
<!-- Node27&#45;&gt;Node2 -->
<g id="edge44_Node000027_Node000002" class="edge">
<title>Node27&#45;&gt;Node2</title>
<g id="a_edge44_Node000027_Node000002"><a xlink:title=" ">
<path fill="none" stroke="#63b8ff" d="M1437.42,-396.77C1451.78,-389.03 1470.17,-376.92 1481.38,-361.25 1499.16,-336.37 1500.38,-325.7 1500.38,-295.12 1500.38,-295.12 1500.38,-295.12 1500.38,-122.88 1500.38,-56.45 994.22,-21.94 850.19,-13.47"/>
<polygon fill="#63b8ff" stroke="#63b8ff" points="850.62,-9.99 840.43,-12.9 850.22,-16.98 850.62,-9.99"/>
</a>
</g>
</g>
<!-- Node28 -->
<g id="Node000028" class="node">
<title>Node28</title>
<g id="a_Node000028"><a xlink:href="hid__usage_8h.html" target="_top" xlink:title="Definition for USB HID usage tables.">
<polygon fill="white" stroke="#666666" points="1472.75,-361.25 1360,-361.25 1360,-340.5 1472.75,-340.5 1472.75,-361.25"/>
<text text-anchor="middle" x="1416.38" y="-347.75" font-family="Helvetica,sans-Serif" font-size="10.00">usb/hid/hid_usage.h</text>
</a>
</g>
</g>
<!-- Node27&#45;&gt;Node28 -->
<g id="edge45_Node000027_Node000028" class="edge">
<title>Node27&#45;&gt;Node28</title>
<g id="a_edge45_Node000027_Node000028"><a xlink:title=" ">
<path fill="none" stroke="#63b8ff" d="M1416.38,-396.84C1416.38,-390.22 1416.38,-381.22 1416.38,-373.02"/>
<polygon fill="#63b8ff" stroke="#63b8ff" points="1419.88,-373.09 1416.38,-363.09 1412.88,-373.09 1419.88,-373.09"/>
</a>
</g>
</g>
<!-- Node29&#45;&gt;Node2 -->
<g id="edge48_Node000029_Node000002" class="edge">
<title>Node29&#45;&gt;Node2</title>
<g id="a_edge48_Node000029_Node000002"><a xlink:title=" ">
<path fill="none" stroke="#63b8ff" d="M1157.04,-399.1C1241.86,-375.25 1482.04,-295.44 1422.38,-170.25 1405.14,-134.1 1387.68,-132.41 1352.38,-113.5 1181.93,-22.2 942.95,-11.45 850.75,-10.94"/>
<polygon fill="#63b8ff" stroke="#63b8ff" points="850.75,-7.44 840.75,-10.93 850.75,-14.44 850.75,-7.44"/>
</a>
</g>
</g>
<!-- Node29&#45;&gt;Node6 -->
<g id="edge49_Node000029_Node000006" class="edge">
<title>Node29&#45;&gt;Node6</title>
<g id="a_edge49_Node000029_Node000006"><a xlink:title=" ">
<path fill="none" stroke="#63b8ff" d="M1099.87,-406.11C1028.72,-404.32 837.86,-396.33 683.38,-361.25 598.63,-342.01 499.38,-382.02 499.38,-295.12 499.38,-295.12 499.38,-295.12 499.38,-236.38 499.38,-204.28 507.88,-167.87 514.07,-145.65"/>
<polygon fill="#63b8ff" stroke="#63b8ff" points="517.42,-146.64 516.85,-136.06 510.7,-144.68 517.42,-146.64"/>
</a>
</g>
</g>
<!-- Node29&#45;&gt;Node7 -->
<g id="edge47_Node000029_Node000007" class="edge">
<title>Node29&#45;&gt;Node7</title>
<g id="a_edge47_Node000029_Node000007"><a xlink:title=" ">
<path fill="none" stroke="#63b8ff" d="M1138.02,-396.83C1154.98,-378.51 1188.38,-337.11 1188.38,-295.12 1188.38,-295.12 1188.38,-295.12 1188.38,-179.62 1188.38,-110.9 1094.27,-83.61 1039.22,-73.52"/>
<polygon fill="#63b8ff" stroke="#63b8ff" points="1040.05,-70.11 1029.61,-71.88 1038.87,-77.01 1040.05,-70.11"/>
</a>
</g>
</g>
<!-- Node29&#45;&gt;Node8 -->
<g id="edge56_Node000029_Node000008" class="edge">
<title>Node29&#45;&gt;Node8</title>
<g id="a_edge56_Node000029_Node000008"><a xlink:title=" ">
<path fill="none" stroke="#63b8ff" d="M1118.73,-396.83C1101.77,-378.51 1068.38,-337.11 1068.38,-295.12 1068.38,-295.12 1068.38,-295.12 1068.38,-236.38 1068.38,-204.98 1068.38,-168.62 1068.38,-146.18"/>
<polygon fill="#63b8ff" stroke="#63b8ff" points="1071.88,-146.23 1068.38,-136.23 1064.88,-146.23 1071.88,-146.23"/>
</a>
</g>
</g>
<!-- Node29&#45;&gt;Node12 -->
<g id="edge55_Node000029_Node000012" class="edge">
<title>Node29&#45;&gt;Node12</title>
<g id="a_edge55_Node000029_Node000012"><a xlink:title=" ">
<path fill="none" stroke="#63b8ff" d="M1099.7,-405.45C1002.71,-400.78 689.75,-380.02 632.38,-304.5 600.71,-262.82 669.97,-218.79 713.51,-196.47"/>
<polygon fill="#63b8ff" stroke="#63b8ff" points="714.93,-199.67 722.33,-192.08 711.81,-193.41 714.93,-199.67"/>
</a>
</g>
</g>
<!-- Node30 -->
<g id="Node000030" class="node">
<title>Node30</title>
<g id="a_Node000030"><a xlink:href="architecture_8h.html" target="_top" xlink:title="Platform&#45;independent access to architecture details.">
<polygon fill="white" stroke="#666666" points="1313.12,-247.75 1229.62,-247.75 1229.62,-227 1313.12,-227 1313.12,-247.75"/>
<text text-anchor="middle" x="1271.38" y="-234.25" font-family="Helvetica,sans-Serif" font-size="10.00">architecture.h</text>
</a>
</g>
</g>
<!-- Node29&#45;&gt;Node30 -->
<g id="edge50_Node000029_Node000030" class="edge">
<title>Node29&#45;&gt;Node30</title>
<g id="a_edge50_Node000029_Node000030"><a xlink:title=" ">
<path fill="none" stroke="#63b8ff" d="M1150.5,-396.82C1166.39,-388.94 1187.54,-376.67 1202.38,-361.25 1231.95,-330.52 1253.24,-284.67 1263.81,-258.54"/>
<polygon fill="#63b8ff" stroke="#63b8ff" points="1266.98,-260.04 1267.36,-249.46 1260.46,-257.5 1266.98,-260.04"/>
</a>
</g>
</g>
<!-- Node33 -->
<g id="Node000033" class="node">
<title>Node33</title>
<g id="a_Node000033"><a xlink:href="core_2include_2thread_8h.html" target="_top" xlink:title="Threading API.">
<polygon fill="white" stroke="#666666" points="901.62,-361.25 845.12,-361.25 845.12,-340.5 901.62,-340.5 901.62,-361.25"/>
<text text-anchor="middle" x="873.38" y="-347.75" font-family="Helvetica,sans-Serif" font-size="10.00">thread.h</text>
</a>
</g>
</g>
<!-- Node29&#45;&gt;Node33 -->
<g id="edge57_Node000029_Node000033" class="edge">
<title>Node29&#45;&gt;Node33</title>
<g id="a_edge57_Node000029_Node000033"><a xlink:title=" ">
<path fill="none" stroke="#63b8ff" d="M1100.11,-400.56C1054.54,-390.77 964.71,-371.49 912.85,-360.35"/>
<polygon fill="#63b8ff" stroke="#63b8ff" points="913.76,-356.97 903.25,-358.29 912.29,-363.81 913.76,-356.97"/>
</a>
</g>
</g>
<!-- Node30&#45;&gt;Node2 -->
<g id="edge51_Node000030_Node000002" class="edge">
<title>Node30&#45;&gt;Node2</title>
<g id="a_edge51_Node000030_Node000002"><a xlink:title=" ">
<path fill="none" stroke="#63b8ff" d="M1313.33,-231.35C1361.88,-223.76 1431.96,-206.25 1405.38,-170.25 1337.73,-78.67 970.01,-29.3 850.16,-15.46"/>
<polygon fill="#63b8ff" stroke="#63b8ff" points="850.87,-12.02 840.54,-14.37 850.08,-18.98 850.87,-12.02"/>
</a>
</g>
</g>
<!-- Node30&#45;&gt;Node11 -->
<g id="edge52_Node000030_Node000011" class="edge">
<title>Node30&#45;&gt;Node11</title>
<g id="a_edge52_Node000030_Node000011"><a xlink:title=" ">
<path fill="none" stroke="#63b8ff" d="M1245.81,-226.59C1223.14,-217.91 1189.78,-205.13 1164.4,-195.42"/>
<polygon fill="#63b8ff" stroke="#63b8ff" points="1165.72,-192.18 1155.13,-191.87 1163.22,-198.71 1165.72,-192.18"/>
</a>
</g>
</g>
<!-- Node31 -->
<g id="Node000031" class="node">
<title>Node31</title>
<g id="a_Node000031"><a xlink:title=" ">
<polygon fill="#e0e0e0" stroke="#999999" points="1396.75,-191 1344,-191 1344,-170.25 1396.75,-170.25 1396.75,-191"/>
<text text-anchor="middle" x="1370.38" y="-177.5" font-family="Helvetica,sans-Serif" font-size="10.00">limits.h</text>
</a>
</g>
</g>
<!-- Node30&#45;&gt;Node31 -->
<g id="edge53_Node000030_Node000031" class="edge">
<title>Node30&#45;&gt;Node31</title>
<g id="a_edge53_Node000030_Node000031"><a xlink:title=" ">
<path fill="none" stroke="#63b8ff" d="M1289.07,-226.59C1304,-218.33 1325.61,-206.38 1342.8,-196.88"/>
<polygon fill="#63b8ff" stroke="#63b8ff" points="1344.45,-199.96 1351.5,-192.06 1341.06,-193.84 1344.45,-199.96"/>
</a>
</g>
</g>
<!-- Node32 -->
<g id="Node000032" class="node">
<title>Node32</title>
<g id="a_Node000032"><a xlink:title=" ">
<polygon fill="#e0e0e0" stroke="#999999" points="1326.25,-191 1216.5,-191 1216.5,-170.25 1326.25,-170.25 1326.25,-191"/>
<text text-anchor="middle" x="1271.38" y="-177.5" font-family="Helvetica,sans-Serif" font-size="10.00">architecture_arch.h</text>
</a>
</g>
</g>
<!-- Node30&#45;&gt;Node32 -->
<g id="edge54_Node000030_Node000032" class="edge">
<title>Node30&#45;&gt;Node32</title>
<g id="a_edge54_Node000030_Node000032"><a xlink:title=" ">
<path fill="none" stroke="#63b8ff" d="M1271.38,-226.59C1271.38,-219.97 1271.38,-210.97 1271.38,-202.77"/>
<polygon fill="#63b8ff" stroke="#63b8ff" points="1274.88,-202.84 1271.38,-192.84 1267.88,-202.84 1274.88,-202.84"/>
</a>
</g>
</g>
<!-- Node33&#45;&gt;Node5 -->
<g id="edge58_Node000033_Node000005" class="edge">
<title>Node33&#45;&gt;Node5</title>
<g id="a_edge58_Node000033_Node000005"><a xlink:title=" ">
<path fill="none" stroke="#63b8ff" d="M902.1,-348.87C932.69,-346.08 979.73,-336.47 1002.38,-304.5 1011.01,-292.3 1016.08,-253.87 998.38,-227 991.71,-216.88 965.71,-204.15 943.69,-194.75"/>
<polygon fill="#63b8ff" stroke="#63b8ff" points="945.27,-191.62 934.69,-191.01 942.58,-198.09 945.27,-191.62"/>
</a>
</g>
</g>
<!-- Node33&#45;&gt;Node10 -->
<g id="edge65_Node000033_Node000010" class="edge">
<title>Node33&#45;&gt;Node10</title>
<g id="a_edge65_Node000033_Node000010"><a xlink:title=" ">
<path fill="none" stroke="#63b8ff" d="M873.63,-340.37C874.11,-322.6 875.15,-283.97 875.8,-259.68"/>
<polygon fill="#63b8ff" stroke="#63b8ff" points="879.3,-259.78 876.07,-249.69 872.3,-259.59 879.3,-259.78"/>
</a>
</g>
</g>
<!-- Node34 -->
<g id="Node000034" class="node">
<title>Node34</title>
<g id="a_Node000034"><a xlink:href="cib_8h.html" target="_top" xlink:title="Circular integer buffer interface.">
<polygon fill="white" stroke="#666666" points="681,-304.5 641.75,-304.5 641.75,-283.75 681,-283.75 681,-304.5"/>
<text text-anchor="middle" x="661.38" y="-291" font-family="Helvetica,sans-Serif" font-size="10.00">cib.h</text>
</a>
</g>
</g>
<!-- Node33&#45;&gt;Node34 -->
<g id="edge59_Node000033_Node000034" class="edge">
<title>Node33&#45;&gt;Node34</title>
<g id="a_edge59_Node000033_Node000034"><a xlink:title=" ">
<path fill="none" stroke="#63b8ff" d="M844.68,-343.41C810.56,-335.59 751.68,-321.64 692.03,-304.82"/>
<polygon fill="#63b8ff" stroke="#63b8ff" points="693.32,-301.55 682.74,-302.18 691.4,-308.28 693.32,-301.55"/>
</a>
</g>
</g>
<!-- Node35 -->
<g id="Node000035" class="node">
<title>Node35</title>
<g id="a_Node000035"><a xlink:href="core_2include_2msg_8h.html" target="_top" xlink:title="Messaging API for inter process communication.">
<polygon fill="white" stroke="#666666" points="845.38,-304.5 799.38,-304.5 799.38,-283.75 845.38,-283.75 845.38,-304.5"/>
<text text-anchor="middle" x="822.38" y="-291" font-family="Helvetica,sans-Serif" font-size="10.00">msg.h</text>
</a>
</g>
</g>
<!-- Node33&#45;&gt;Node35 -->
<g id="edge61_Node000033_Node000035" class="edge">
<title>Node33&#45;&gt;Node35</title>
<g id="a_edge61_Node000033_Node000035"><a xlink:title=" ">
<path fill="none" stroke="#63b8ff" d="M864.26,-340.09C857.29,-332.61 847.51,-322.11 839.14,-313.13"/>
<polygon fill="#63b8ff" stroke="#63b8ff" points="841.82,-310.87 832.45,-305.94 836.7,-315.64 841.82,-310.87"/>
</a>
</g>
</g>
<!-- Node36 -->
<g id="Node000036" class="node">
<title>Node36</title>
<g id="a_Node000036"><a xlink:href="thread__config_8h.html" target="_top" xlink:title="Thread configuration defines.">
<polygon fill="white" stroke="#666666" points="993.25,-304.5 901.5,-304.5 901.5,-283.75 993.25,-283.75 993.25,-304.5"/>
<text text-anchor="middle" x="947.38" y="-291" font-family="Helvetica,sans-Serif" font-size="10.00">thread_config.h</text>
</a>
</g>
</g>
<!-- Node33&#45;&gt;Node36 -->
<g id="edge66_Node000033_Node000036" class="edge">
<title>Node33&#45;&gt;Node36</title>
<g id="a_edge66_Node000033_Node000036"><a xlink:title=" ">
<path fill="none" stroke="#63b8ff" d="M886.6,-340.09C897.34,-332.15 912.7,-320.78 925.29,-311.46"/>
<polygon fill="#63b8ff" stroke="#63b8ff" points="927.09,-314.49 933.04,-305.73 922.92,-308.86 927.09,-314.49"/>
</a>
</g>
</g>
<!-- Node38 -->
<g id="Node000038" class="node">
<title>Node38</title>
<g id="a_Node000038"><a xlink:title=" ">
<polygon fill="#e0e0e0" stroke="#999999" points="781.75,-304.5 699,-304.5 699,-283.75 781.75,-283.75 781.75,-304.5"/>
<text text-anchor="middle" x="740.38" y="-291" font-family="Helvetica,sans-Serif" font-size="10.00">thread_arch.h</text>
</a>
</g>
</g>
<!-- Node33&#45;&gt;Node38 -->
<g id="edge69_Node000033_Node000038" class="edge">
<title>Node33&#45;&gt;Node38</title>
<g id="a_edge69_Node000033_Node000038"><a xlink:title=" ">
<path fill="none" stroke="#63b8ff" d="M849.6,-340.09C828.7,-331.48 798.04,-318.86 774.52,-309.18"/>
<polygon fill="#63b8ff" stroke="#63b8ff" points="775.93,-305.97 765.35,-305.4 773.26,-312.45 775.93,-305.97"/>
</a>
</g>
</g>
<!-- Node34&#45;&gt;Node16 -->
<g id="edge60_Node000034_Node000016" class="edge">
<title>Node34&#45;&gt;Node16</title>
<g id="a_edge60_Node000034_Node000016"><a xlink:title=" ">
<path fill="none" stroke="#63b8ff" d="M656.04,-283.48C642.99,-259.29 609.73,-193.71 598.38,-134.25 596.64,-125.19 595.4,-122.23 598.38,-113.5 601.8,-103.46 608.44,-93.91 615.03,-86.18"/>
<polygon fill="#63b8ff" stroke="#63b8ff" points="617.58,-88.59 621.79,-78.87 612.43,-83.84 617.58,-88.59"/>
</a>
</g>
</g>
<!-- Node35&#45;&gt;Node2 -->
<g id="edge62_Node000035_Node000002" class="edge">
<title>Node35&#45;&gt;Node2</title>
<g id="a_edge62_Node000035_Node000002"><a xlink:title=" ">
<path fill="none" stroke="#63b8ff" d="M824.42,-283.54C827.32,-270.53 833.1,-246.63 840.38,-227 850.08,-200.81 848.75,-191.07 867.38,-170.25 887.6,-147.64 910.63,-160.76 925.38,-134.25 929.86,-126.19 928.36,-122.23 925.38,-113.5 911.65,-73.39 870.8,-43.47 842.18,-26.7"/>
<polygon fill="#63b8ff" stroke="#63b8ff" points="844.02,-23.72 833.58,-21.87 840.58,-29.82 844.02,-23.72"/>
</a>
</g>
</g>
<!-- Node35&#45;&gt;Node6 -->
<g id="edge63_Node000035_Node000006" class="edge">
<title>Node35&#45;&gt;Node6</title>
<g id="a_edge63_Node000035_Node000006"><a xlink:title=" ">
<path fill="none" stroke="#63b8ff" d="M804.83,-283.35C754.38,-255.24 608.59,-174.02 547.65,-140.07"/>
<polygon fill="#63b8ff" stroke="#63b8ff" points="549.73,-137.22 539.29,-135.41 546.32,-143.34 549.73,-137.22"/>
</a>
</g>
</g>
<!-- Node35&#45;&gt;Node10 -->
<g id="edge64_Node000035_Node000010" class="edge">
<title>Node35&#45;&gt;Node10</title>
<g id="a_edge64_Node000035_Node000010"><a xlink:title=" ">
<path fill="none" stroke="#63b8ff" d="M832.03,-283.34C839.48,-275.78 849.98,-265.14 858.9,-256.1"/>
<polygon fill="#63b8ff" stroke="#63b8ff" points="861.21,-258.73 865.74,-249.16 856.23,-253.82 861.21,-258.73"/>
</a>
</g>
</g>
<!-- Node36&#45;&gt;Node10 -->
<g id="edge68_Node000036_Node000010" class="edge">
<title>Node36&#45;&gt;Node10</title>
<g id="a_edge68_Node000036_Node000010"><a xlink:title=" ">
<path fill="none" stroke="#63b8ff" d="M934.68,-283.34C924.48,-275.47 909.93,-264.25 897.92,-254.99"/>
<polygon fill="#63b8ff" stroke="#63b8ff" points="900.21,-252.34 890.16,-249 895.94,-257.88 900.21,-252.34"/>
</a>
</g>
</g>
<!-- Node37 -->
<g id="Node000037" class="node">
<title>Node37</title>
<g id="a_Node000037"><a xlink:title=" ">
<polygon fill="#e0e0e0" stroke="#999999" points="989.25,-247.75 921.5,-247.75 921.5,-227 989.25,-227 989.25,-247.75"/>
<text text-anchor="middle" x="955.38" y="-234.25" font-family="Helvetica,sans-Serif" font-size="10.00">cpu_conf.h</text>
</a>
</g>
</g>
<!-- Node36&#45;&gt;Node37 -->
<g id="edge67_Node000036_Node000037" class="edge">
<title>Node36&#45;&gt;Node37</title>
<g id="a_edge67_Node000036_Node000037"><a xlink:title=" ">
<path fill="none" stroke="#63b8ff" d="M948.81,-283.34C949.78,-276.64 951.12,-267.51 952.33,-259.23"/>
<polygon fill="#63b8ff" stroke="#63b8ff" points="955.76,-259.98 953.74,-249.58 948.83,-258.96 955.76,-259.98"/>
</a>
</g>
</g>
</g>
</svg>
