<?xml version="1.0" encoding="UTF-8" standalone="no"?>
<!DOCTYPE svg PUBLIC "-//W3C//DTD SVG 1.1//EN"
 "http://www.w3.org/Graphics/SVG/1.1/DTD/svg11.dtd">
<!-- Generated by graphviz version 12.1.1 (0)
 -->
<!-- Title: sys/include/net/sock/util.h Pages: 1 -->
<svg width="484pt" height="181pt"
 viewBox="0.00 0.00 484.25 180.50" xmlns="http://www.w3.org/2000/svg" xmlns:xlink="http://www.w3.org/1999/xlink">
<g id="graph0" class="graph" transform="scale(1 1) rotate(0) translate(4 176.5)">
<title>sys/include/net/sock/util.h</title>
<!-- Node1 -->
<g id="Node000001" class="node">
<title>Node1</title>
<g id="a_Node000001"><a xlink:title="sock utility function definitions">
<polygon fill="#999999" stroke="#666666" points="223.88,-172.5 108.88,-172.5 108.88,-139 223.88,-139 223.88,-172.5"/>
<text text-anchor="start" x="116.88" y="-159" font-family="Helvetica,sans-Serif" font-size="10.00">sys/include/net/sock</text>
<text text-anchor="middle" x="166.38" y="-146.25" font-family="Helvetica,sans-Serif" font-size="10.00">/util.h</text>
</a>
</g>
</g>
<!-- Node2 -->
<g id="Node000002" class="node">
<title>Node2</title>
<g id="a_Node000002"><a xlink:href="asymcute_8h.html" target="_top" xlink:title="Asymcute MQTT&#45;SN interface definition.">
<polygon fill="white" stroke="#666666" points="160.12,-96.62 10.62,-96.62 10.62,-75.88 160.12,-75.88 160.12,-96.62"/>
<text text-anchor="middle" x="85.38" y="-83.12" font-family="Helvetica,sans-Serif" font-size="10.00">sys/include/net/asymcute.h</text>
</a>
</g>
</g>
<!-- Node1&#45;&gt;Node2 -->
<g id="edge1_Node000001_Node000002" class="edge">
<title>Node1&#45;&gt;Node2</title>
<g id="a_edge1_Node000001_Node000002"><a xlink:title=" ">
<path fill="none" stroke="#63b8ff" d="M138.72,-131.71C124.54,-119.89 108.02,-106.12 97.16,-97.07"/>
<polygon fill="#63b8ff" stroke="#63b8ff" points="136.09,-134.07 146.02,-137.78 140.57,-128.69 136.09,-134.07"/>
</a>
</g>
</g>
<!-- Node3 -->
<g id="Node000003" class="node">
<title>Node3</title>
<g id="a_Node000003"><a xlink:href="nanocoap__sock_8h.html" target="_top" xlink:title="nanocoap high&#45;level API">
<polygon fill="white" stroke="#666666" points="318.25,-103 178.5,-103 178.5,-69.5 318.25,-69.5 318.25,-103"/>
<text text-anchor="start" x="186.5" y="-89.5" font-family="Helvetica,sans-Serif" font-size="10.00">sys/include/net/nanocoap</text>
<text text-anchor="middle" x="248.38" y="-76.75" font-family="Helvetica,sans-Serif" font-size="10.00">_sock.h</text>
</a>
</g>
</g>
<!-- Node1&#45;&gt;Node3 -->
<g id="edge2_Node000001_Node000003" class="edge">
<title>Node1&#45;&gt;Node3</title>
<g id="a_edge2_Node000001_Node000003"><a xlink:title=" ">
<path fill="none" stroke="#63b8ff" d="M194.48,-131.61C205.78,-122.31 218.53,-111.81 228.8,-103.37"/>
<polygon fill="#63b8ff" stroke="#63b8ff" points="192.47,-128.73 186.98,-137.79 196.92,-134.14 192.47,-128.73"/>
</a>
</g>
</g>
<!-- Node4 -->
<g id="Node000004" class="node">
<title>Node4</title>
<g id="a_Node000004"><a xlink:href="fs_8h.html" target="_top" xlink:title="nanoCoAP virtual file system">
<polygon fill="white" stroke="#666666" points="160.75,-27.12 0,-27.12 0,-6.38 160.75,-6.38 160.75,-27.12"/>
<text text-anchor="middle" x="80.38" y="-13.62" font-family="Helvetica,sans-Serif" font-size="10.00">sys/include/net/nanocoap/fs.h</text>
</a>
</g>
</g>
<!-- Node3&#45;&gt;Node4 -->
<g id="edge3_Node000003_Node000004" class="edge">
<title>Node3&#45;&gt;Node4</title>
<g id="a_edge3_Node000003_Node000004"><a xlink:title=" ">
<path fill="none" stroke="#63b8ff" d="M197.57,-64.84C166.78,-52.47 128.9,-37.25 104.69,-27.52"/>
<polygon fill="#63b8ff" stroke="#63b8ff" points="196.15,-68.04 206.73,-68.52 198.76,-61.54 196.15,-68.04"/>
</a>
</g>
</g>
<!-- Node5 -->
<g id="Node000005" class="node">
<title>Node5</title>
<g id="a_Node000005"><a xlink:href="link__format_8h.html" target="_top" xlink:title="NanoCoAP Link Format helper functions.">
<polygon fill="white" stroke="#666666" points="318.25,-33.5 178.5,-33.5 178.5,0 318.25,0 318.25,-33.5"/>
<text text-anchor="start" x="186.5" y="-20" font-family="Helvetica,sans-Serif" font-size="10.00">sys/include/net/nanocoap</text>
<text text-anchor="middle" x="248.38" y="-7.25" font-family="Helvetica,sans-Serif" font-size="10.00">/link_format.h</text>
</a>
</g>
</g>
<!-- Node3&#45;&gt;Node5 -->
<g id="edge4_Node000003_Node000005" class="edge">
<title>Node3&#45;&gt;Node5</title>
<g id="a_edge4_Node000003_Node000005"><a xlink:title=" ">
<path fill="none" stroke="#63b8ff" d="M248.38,-57.81C248.38,-49.59 248.38,-40.84 248.38,-33.63"/>
<polygon fill="#63b8ff" stroke="#63b8ff" points="244.88,-57.74 248.38,-67.74 251.88,-57.74 244.88,-57.74"/>
</a>
</g>
</g>
<!-- Node6 -->
<g id="Node000006" class="node">
<title>Node6</title>
<g id="a_Node000006"><a xlink:href="nanocoap__vfs_8h.html" target="_top" xlink:title="VFS NanoCoAP helper functions.">
<polygon fill="white" stroke="#666666" points="476.25,-33.5 336.5,-33.5 336.5,0 476.25,0 476.25,-33.5"/>
<text text-anchor="start" x="344.5" y="-20" font-family="Helvetica,sans-Serif" font-size="10.00">sys/include/net/nanocoap</text>
<text text-anchor="middle" x="406.38" y="-7.25" font-family="Helvetica,sans-Serif" font-size="10.00">_vfs.h</text>
</a>
</g>
</g>
<!-- Node3&#45;&gt;Node6 -->
<g id="edge5_Node000003_Node000006" class="edge">
<title>Node3&#45;&gt;Node6</title>
<g id="a_edge5_Node000003_Node000006"><a xlink:title=" ">
<path fill="none" stroke="#63b8ff" d="M296.52,-64.68C319.64,-54.8 346.96,-43.13 368.57,-33.9"/>
<polygon fill="#63b8ff" stroke="#63b8ff" points="295.43,-61.34 287.61,-68.49 298.18,-67.78 295.43,-61.34"/>
</a>
</g>
</g>
</g>
</svg>
