<?xml version="1.0" encoding="UTF-8" standalone="no"?>
<!DOCTYPE svg PUBLIC "-//W3C//DTD SVG 1.1//EN"
 "http://www.w3.org/Graphics/SVG/1.1/DTD/svg11.dtd">
<!-- Generated by graphviz version 12.1.1 (0)
 -->
<!-- Title: sys/include/uuid.h Pages: 1 -->
<svg width="413pt" height="199pt"
 viewBox="0.00 0.00 413.00 199.00" xmlns="http://www.w3.org/2000/svg" xmlns:xlink="http://www.w3.org/1999/xlink">
<g id="graph0" class="graph" transform="scale(1 1) rotate(0) translate(4 195)">
<title>sys/include/uuid.h</title>
<!-- Node1 -->
<g id="Node000001" class="node">
<title>Node1</title>
<g id="a_Node000001"><a xlink:title="RFC 4122 UUID functions">
<polygon fill="#999999" stroke="#666666" points="195.38,-191 91.62,-191 91.62,-170.25 195.38,-170.25 195.38,-191"/>
<text text-anchor="middle" x="143.5" y="-177.5" font-family="Helvetica,sans-Serif" font-size="10.00">sys/include/uuid.h</text>
</a>
</g>
</g>
<!-- Node2 -->
<g id="Node000002" class="node">
<title>Node2</title>
<g id="a_Node000002"><a xlink:title=" ">
<polygon fill="#e0e0e0" stroke="#999999" points="61,-134.25 0,-134.25 0,-113.5 61,-113.5 61,-134.25"/>
<text text-anchor="middle" x="30.5" y="-120.75" font-family="Helvetica,sans-Serif" font-size="10.00">stdbool.h</text>
</a>
</g>
</g>
<!-- Node1&#45;&gt;Node2 -->
<g id="edge1_Node000001_Node000002" class="edge">
<title>Node1&#45;&gt;Node2</title>
<g id="a_edge1_Node000001_Node000002"><a xlink:title=" ">
<path fill="none" stroke="#63b8ff" d="M123.3,-169.84C105.94,-161.43 80.67,-149.18 60.87,-139.59"/>
<polygon fill="#63b8ff" stroke="#63b8ff" points="62.41,-136.45 51.89,-135.24 59.36,-142.75 62.41,-136.45"/>
</a>
</g>
</g>
<!-- Node3 -->
<g id="Node000003" class="node">
<title>Node3</title>
<g id="a_Node000003"><a xlink:title=" ">
<polygon fill="#e0e0e0" stroke="#999999" points="281.88,-20.75 229.12,-20.75 229.12,0 281.88,0 281.88,-20.75"/>
<text text-anchor="middle" x="255.5" y="-7.25" font-family="Helvetica,sans-Serif" font-size="10.00">stdint.h</text>
</a>
</g>
</g>
<!-- Node1&#45;&gt;Node3 -->
<g id="edge2_Node000001_Node000003" class="edge">
<title>Node1&#45;&gt;Node3</title>
<g id="a_edge2_Node000001_Node000003"><a xlink:title=" ">
<path fill="none" stroke="#63b8ff" d="M132.94,-169.99C124.5,-161.53 113.31,-148.38 108.5,-134.25 96.58,-99.29 110.91,-81.3 138.5,-56.75 160.94,-36.78 193.15,-25.16 218.09,-18.69"/>
<polygon fill="#63b8ff" stroke="#63b8ff" points="218.61,-22.16 227.51,-16.42 216.97,-15.36 218.61,-22.16"/>
</a>
</g>
</g>
<!-- Node4 -->
<g id="Node000004" class="node">
<title>Node4</title>
<g id="a_Node000004"><a xlink:title=" ">
<polygon fill="#e0e0e0" stroke="#999999" points="169.5,-134.25 117.5,-134.25 117.5,-113.5 169.5,-113.5 169.5,-134.25"/>
<text text-anchor="middle" x="143.5" y="-120.75" font-family="Helvetica,sans-Serif" font-size="10.00">stdlib.h</text>
</a>
</g>
</g>
<!-- Node1&#45;&gt;Node4 -->
<g id="edge3_Node000001_Node000004" class="edge">
<title>Node1&#45;&gt;Node4</title>
<g id="a_edge3_Node000001_Node000004"><a xlink:title=" ">
<path fill="none" stroke="#63b8ff" d="M143.5,-169.84C143.5,-163.22 143.5,-154.22 143.5,-146.02"/>
<polygon fill="#63b8ff" stroke="#63b8ff" points="147,-146.09 143.5,-136.09 140,-146.09 147,-146.09"/>
</a>
</g>
</g>
<!-- Node5 -->
<g id="Node000005" class="node">
<title>Node5</title>
<g id="a_Node000005"><a xlink:title=" ">
<polygon fill="#e0e0e0" stroke="#999999" points="199.88,-77.5 147.12,-77.5 147.12,-56.75 199.88,-56.75 199.88,-77.5"/>
<text text-anchor="middle" x="173.5" y="-64" font-family="Helvetica,sans-Serif" font-size="10.00">string.h</text>
</a>
</g>
</g>
<!-- Node1&#45;&gt;Node5 -->
<g id="edge4_Node000001_Node000005" class="edge">
<title>Node1&#45;&gt;Node5</title>
<g id="a_edge4_Node000001_Node000005"><a xlink:title=" ">
<path fill="none" stroke="#63b8ff" d="M154.06,-169.99C162.5,-161.53 173.69,-148.38 178.5,-134.25 183.51,-119.57 181.86,-102.02 179.17,-88.69"/>
<polygon fill="#63b8ff" stroke="#63b8ff" points="182.66,-88.23 176.93,-79.31 175.85,-89.85 182.66,-88.23"/>
</a>
</g>
</g>
<!-- Node6 -->
<g id="Node000006" class="node">
<title>Node6</title>
<g id="a_Node000006"><a xlink:href="byteorder_8h.html" target="_top" xlink:title="Functions to work with different byte orders.">
<polygon fill="white" stroke="#666666" points="297.62,-134.25 225.38,-134.25 225.38,-113.5 297.62,-113.5 297.62,-134.25"/>
<text text-anchor="middle" x="261.5" y="-120.75" font-family="Helvetica,sans-Serif" font-size="10.00">byteorder.h</text>
</a>
</g>
</g>
<!-- Node1&#45;&gt;Node6 -->
<g id="edge5_Node000001_Node000006" class="edge">
<title>Node1&#45;&gt;Node6</title>
<g id="a_edge5_Node000001_Node000006"><a xlink:title=" ">
<path fill="none" stroke="#63b8ff" d="M164.6,-169.84C182.89,-161.35 209.6,-148.95 230.36,-139.33"/>
<polygon fill="#63b8ff" stroke="#63b8ff" points="231.62,-142.6 239.21,-135.22 228.67,-136.25 231.62,-142.6"/>
</a>
</g>
</g>
<!-- Node6&#45;&gt;Node3 -->
<g id="edge7_Node000006_Node000003" class="edge">
<title>Node6&#45;&gt;Node3</title>
<g id="a_edge7_Node000006_Node000003"><a xlink:title=" ">
<path fill="none" stroke="#63b8ff" d="M257.22,-113.01C253.55,-103.97 248.53,-90.11 246.5,-77.5 244.04,-62.24 246.59,-44.94 249.59,-31.85"/>
<polygon fill="#63b8ff" stroke="#63b8ff" points="252.95,-32.84 252.08,-22.28 246.18,-31.08 252.95,-32.84"/>
</a>
</g>
</g>
<!-- Node6&#45;&gt;Node5 -->
<g id="edge6_Node000006_Node000005" class="edge">
<title>Node6&#45;&gt;Node5</title>
<g id="a_edge6_Node000006_Node000005"><a xlink:title=" ">
<path fill="none" stroke="#63b8ff" d="M245.77,-113.09C232.63,-104.91 213.66,-93.11 198.45,-83.65"/>
<polygon fill="#63b8ff" stroke="#63b8ff" points="200.72,-80.94 190.38,-78.63 197.02,-86.88 200.72,-80.94"/>
</a>
</g>
</g>
<!-- Node7 -->
<g id="Node000007" class="node">
<title>Node7</title>
<g id="a_Node000007"><a xlink:href="endian_8h.html" target="_top" xlink:title="libc header for endian conversion">
<polygon fill="white" stroke="#666666" points="313.5,-77.5 255.5,-77.5 255.5,-56.75 313.5,-56.75 313.5,-77.5"/>
<text text-anchor="middle" x="284.5" y="-64" font-family="Helvetica,sans-Serif" font-size="10.00">endian.h</text>
</a>
</g>
</g>
<!-- Node6&#45;&gt;Node7 -->
<g id="edge8_Node000006_Node000007" class="edge">
<title>Node6&#45;&gt;Node7</title>
<g id="a_edge8_Node000006_Node000007"><a xlink:title=" ">
<path fill="none" stroke="#63b8ff" d="M265.61,-113.09C268.49,-106.24 272.44,-96.84 275.98,-88.4"/>
<polygon fill="#63b8ff" stroke="#63b8ff" points="279.19,-89.8 279.84,-79.22 272.74,-87.09 279.19,-89.8"/>
</a>
</g>
</g>
<!-- Node8 -->
<g id="Node000008" class="node">
<title>Node8</title>
<g id="a_Node000008"><a xlink:href="unaligned_8h.html" target="_top" xlink:title="Unaligned but safe memory access functions.">
<polygon fill="white" stroke="#666666" points="405,-77.5 332,-77.5 332,-56.75 405,-56.75 405,-77.5"/>
<text text-anchor="middle" x="368.5" y="-64" font-family="Helvetica,sans-Serif" font-size="10.00">unaligned.h</text>
</a>
</g>
</g>
<!-- Node6&#45;&gt;Node8 -->
<g id="edge10_Node000006_Node000008" class="edge">
<title>Node6&#45;&gt;Node8</title>
<g id="a_edge10_Node000006_Node000008"><a xlink:title=" ">
<path fill="none" stroke="#63b8ff" d="M280.63,-113.09C296.99,-104.72 320.78,-92.54 339.48,-82.97"/>
<polygon fill="#63b8ff" stroke="#63b8ff" points="340.88,-86.19 348.19,-78.52 337.69,-79.96 340.88,-86.19"/>
</a>
</g>
</g>
<!-- Node7&#45;&gt;Node3 -->
<g id="edge9_Node000007_Node000003" class="edge">
<title>Node7&#45;&gt;Node3</title>
<g id="a_edge9_Node000007_Node000003"><a xlink:title=" ">
<path fill="none" stroke="#63b8ff" d="M279.32,-56.34C275.6,-49.33 270.48,-39.66 265.94,-31.08"/>
<polygon fill="#63b8ff" stroke="#63b8ff" points="269.12,-29.61 261.35,-22.42 262.94,-32.89 269.12,-29.61"/>
</a>
</g>
</g>
<!-- Node8&#45;&gt;Node3 -->
<g id="edge11_Node000008_Node000003" class="edge">
<title>Node8&#45;&gt;Node3</title>
<g id="a_edge11_Node000008_Node000003"><a xlink:title=" ">
<path fill="none" stroke="#63b8ff" d="M348.3,-56.34C330.94,-47.93 305.67,-35.68 285.87,-26.09"/>
<polygon fill="#63b8ff" stroke="#63b8ff" points="287.41,-22.95 276.89,-21.74 284.36,-29.25 287.41,-22.95"/>
</a>
</g>
</g>
</g>
</svg>
