<?xml version="1.0" encoding="UTF-8" standalone="no"?>
<!DOCTYPE svg PUBLIC "-//W3C//DTD SVG 1.1//EN"
 "http://www.w3.org/Graphics/SVG/1.1/DTD/svg11.dtd">
<!-- Generated by graphviz version 12.1.1 (0)
 -->
<!-- Title: pkg/uwb&#45;dw1000/include/uwb_dw1000.h Pages: 1 -->
<svg width="349pt" height="98pt"
 viewBox="0.00 0.00 348.75 98.25" xmlns="http://www.w3.org/2000/svg" xmlns:xlink="http://www.w3.org/1999/xlink">
<g id="graph0" class="graph" transform="scale(1 1) rotate(0) translate(4 94.25)">
<title>pkg/uwb&#45;dw1000/include/uwb_dw1000.h</title>
<!-- Node1 -->
<g id="Node000001" class="node">
<title>Node1</title>
<g id="a_Node000001"><a xlink:title="Abstraction layer for RIOT adaption.">
<polygon fill="#999999" stroke="#666666" points="203.12,-90.25 65.62,-90.25 65.62,-56.75 203.12,-56.75 203.12,-90.25"/>
<text text-anchor="start" x="73.62" y="-76.75" font-family="Helvetica,sans-Serif" font-size="10.00">pkg/uwb&#45;dw1000/include</text>
<text text-anchor="middle" x="134.38" y="-64" font-family="Helvetica,sans-Serif" font-size="10.00">/uwb_dw1000.h</text>
</a>
</g>
</g>
<!-- Node2 -->
<g id="Node000002" class="node">
<title>Node2</title>
<g id="a_Node000002"><a xlink:title=" ">
<polygon fill="#e0e0e0" stroke="#999999" points="52.75,-20.75 0,-20.75 0,0 52.75,0 52.75,-20.75"/>
<text text-anchor="middle" x="26.38" y="-7.25" font-family="Helvetica,sans-Serif" font-size="10.00">stdint.h</text>
</a>
</g>
</g>
<!-- Node1&#45;&gt;Node2 -->
<g id="edge1_Node000001_Node000002" class="edge">
<title>Node1&#45;&gt;Node2</title>
<g id="a_edge1_Node000001_Node000002"><a xlink:title=" ">
<path fill="none" stroke="#63b8ff" d="M105.72,-56.28C89.52,-47.11 69.38,-35.72 53.45,-26.7"/>
<polygon fill="#63b8ff" stroke="#63b8ff" points="55.42,-23.79 44.99,-21.91 51.97,-29.88 55.42,-23.79"/>
</a>
</g>
</g>
<!-- Node3 -->
<g id="Node000003" class="node">
<title>Node3</title>
<g id="a_Node000003"><a xlink:title=" ">
<polygon fill="#e0e0e0" stroke="#999999" points="197.88,-20.75 70.88,-20.75 70.88,0 197.88,0 197.88,-20.75"/>
<text text-anchor="middle" x="134.38" y="-7.25" font-family="Helvetica,sans-Serif" font-size="10.00">dw1000/dw1000_dev.h</text>
</a>
</g>
</g>
<!-- Node1&#45;&gt;Node3 -->
<g id="edge2_Node000001_Node000003" class="edge">
<title>Node1&#45;&gt;Node3</title>
<g id="a_edge2_Node000001_Node000003"><a xlink:title=" ">
<path fill="none" stroke="#63b8ff" d="M134.38,-56.44C134.38,-49.1 134.38,-40.32 134.38,-32.46"/>
<polygon fill="#63b8ff" stroke="#63b8ff" points="137.88,-32.73 134.38,-22.73 130.88,-32.73 137.88,-32.73"/>
</a>
</g>
</g>
<!-- Node4 -->
<g id="Node000004" class="node">
<title>Node4</title>
<g id="a_Node000004"><a xlink:title=" ">
<polygon fill="#e0e0e0" stroke="#999999" points="340.75,-20.75 216,-20.75 216,0 340.75,0 340.75,-20.75"/>
<text text-anchor="middle" x="278.38" y="-7.25" font-family="Helvetica,sans-Serif" font-size="10.00">dw1000/dw1000_hal.h</text>
</a>
</g>
</g>
<!-- Node1&#45;&gt;Node4 -->
<g id="edge3_Node000001_Node000004" class="edge">
<title>Node1&#45;&gt;Node4</title>
<g id="a_edge3_Node000001_Node000004"><a xlink:title=" ">
<path fill="none" stroke="#63b8ff" d="M172.59,-56.28C195.11,-46.72 223.34,-34.74 244.97,-25.55"/>
<polygon fill="#63b8ff" stroke="#63b8ff" points="246.08,-28.89 253.92,-21.76 243.35,-22.44 246.08,-28.89"/>
</a>
</g>
</g>
</g>
</svg>
