<?xml version="1.0" encoding="UTF-8" standalone="no"?>
<!DOCTYPE svg PUBLIC "-//W3C//DTD SVG 1.1//EN"
 "http://www.w3.org/Graphics/SVG/1.1/DTD/svg11.dtd">
<!-- Generated by graphviz version 12.1.1 (0)
 -->
<!-- Title: drivers/include/periph/vbat.h Pages: 1 -->
<svg width="140pt" height="98pt"
 viewBox="0.00 0.00 139.88 98.25" xmlns="http://www.w3.org/2000/svg" xmlns:xlink="http://www.w3.org/1999/xlink">
<g id="graph0" class="graph" transform="scale(1 1) rotate(0) translate(4 94.25)">
<title>drivers/include/periph/vbat.h</title>
<!-- Node1 -->
<g id="Node000001" class="node">
<title>Node1</title>
<g id="a_Node000001"><a xlink:title="Interface of backup battery (VBAT) monitoring.">
<polygon fill="#999999" stroke="#666666" points="128.38,-90.25 6.62,-90.25 6.62,-56.75 128.38,-56.75 128.38,-90.25"/>
<text text-anchor="start" x="14.62" y="-76.75" font-family="Helvetica,sans-Serif" font-size="10.00">drivers/include/periph</text>
<text text-anchor="middle" x="67.5" y="-64" font-family="Helvetica,sans-Serif" font-size="10.00">/vbat.h</text>
</a>
</g>
</g>
<!-- Node2 -->
<g id="Node000002" class="node">
<title>Node2</title>
<g id="a_Node000002"><a xlink:title=" ">
<polygon fill="#e0e0e0" stroke="#999999" points="61,-20.75 0,-20.75 0,0 61,0 61,-20.75"/>
<text text-anchor="middle" x="30.5" y="-7.25" font-family="Helvetica,sans-Serif" font-size="10.00">stdbool.h</text>
</a>
</g>
</g>
<!-- Node1&#45;&gt;Node2 -->
<g id="edge1_Node000001_Node000002" class="edge">
<title>Node1&#45;&gt;Node2</title>
<g id="a_edge1_Node000001_Node000002"><a xlink:title=" ">
<path fill="none" stroke="#63b8ff" d="M57.78,-56.44C53.02,-48.58 47.26,-39.06 42.25,-30.79"/>
<polygon fill="#63b8ff" stroke="#63b8ff" points="45.41,-29.25 37.24,-22.51 39.43,-32.88 45.41,-29.25"/>
</a>
</g>
</g>
<!-- Node3 -->
<g id="Node000003" class="node">
<title>Node3</title>
<g id="a_Node000003"><a xlink:title=" ">
<polygon fill="#e0e0e0" stroke="#999999" points="131.88,-20.75 79.12,-20.75 79.12,0 131.88,0 131.88,-20.75"/>
<text text-anchor="middle" x="105.5" y="-7.25" font-family="Helvetica,sans-Serif" font-size="10.00">stdint.h</text>
</a>
</g>
</g>
<!-- Node1&#45;&gt;Node3 -->
<g id="edge2_Node000001_Node000003" class="edge">
<title>Node1&#45;&gt;Node3</title>
<g id="a_edge2_Node000001_Node000003"><a xlink:title=" ">
<path fill="none" stroke="#63b8ff" d="M77.48,-56.44C82.37,-48.58 88.29,-39.06 93.43,-30.79"/>
<polygon fill="#63b8ff" stroke="#63b8ff" points="96.28,-32.84 98.58,-22.5 90.33,-29.15 96.28,-32.84"/>
</a>
</g>
</g>
</g>
</svg>
