<?xml version="1.0" encoding="UTF-8" standalone="no"?>
<!DOCTYPE svg PUBLIC "-//W3C//DTD SVG 1.1//EN"
 "http://www.w3.org/Graphics/SVG/1.1/DTD/svg11.dtd">
<!-- Generated by graphviz version 12.1.1 (0)
 -->
<!-- Title: drivers/include/vl6180x.h Pages: 1 -->
<svg width="411pt" height="142pt"
 viewBox="0.00 0.00 410.50 142.25" xmlns="http://www.w3.org/2000/svg" xmlns:xlink="http://www.w3.org/1999/xlink">
<g id="graph0" class="graph" transform="scale(1 1) rotate(0) translate(4 138.25)">
<title>drivers/include/vl6180x.h</title>
<!-- Node1 -->
<g id="Node000001" class="node">
<title>Node1</title>
<g id="a_Node000001"><a xlink:title=" ">
<polygon fill="#999999" stroke="#666666" points="229.88,-134.25 90.88,-134.25 90.88,-113.5 229.88,-113.5 229.88,-134.25"/>
<text text-anchor="middle" x="160.38" y="-120.75" font-family="Helvetica,sans-Serif" font-size="10.00">drivers/include/vl6180x.h</text>
</a>
</g>
</g>
<!-- Node2 -->
<g id="Node000002" class="node">
<title>Node2</title>
<g id="a_Node000002"><a xlink:title=" ">
<polygon fill="#e0e0e0" stroke="#999999" points="66.88,-77.5 5.87,-77.5 5.87,-56.75 66.88,-56.75 66.88,-77.5"/>
<text text-anchor="middle" x="36.38" y="-64" font-family="Helvetica,sans-Serif" font-size="10.00">stdbool.h</text>
</a>
</g>
</g>
<!-- Node1&#45;&gt;Node2 -->
<g id="edge1_Node000001_Node000002" class="edge">
<title>Node1&#45;&gt;Node2</title>
<g id="a_edge1_Node000001_Node000002"><a xlink:title=" ">
<path fill="none" stroke="#63b8ff" d="M138.21,-113.09C118.9,-104.56 90.65,-92.09 68.8,-82.44"/>
<polygon fill="#63b8ff" stroke="#63b8ff" points="70.3,-79.28 59.74,-78.44 67.47,-85.68 70.3,-79.28"/>
</a>
</g>
</g>
<!-- Node3 -->
<g id="Node000003" class="node">
<title>Node3</title>
<g id="a_Node000003"><a xlink:title=" ">
<polygon fill="#e0e0e0" stroke="#999999" points="52.75,-20.75 0,-20.75 0,0 52.75,0 52.75,-20.75"/>
<text text-anchor="middle" x="26.38" y="-7.25" font-family="Helvetica,sans-Serif" font-size="10.00">stdint.h</text>
</a>
</g>
</g>
<!-- Node1&#45;&gt;Node3 -->
<g id="edge2_Node000001_Node000003" class="edge">
<title>Node1&#45;&gt;Node3</title>
<g id="a_edge2_Node000001_Node000003"><a xlink:title=" ">
<path fill="none" stroke="#63b8ff" d="M148.95,-113.37C126.32,-94.54 75.51,-52.26 46.92,-28.47"/>
<polygon fill="#63b8ff" stroke="#63b8ff" points="49.24,-25.85 39.32,-22.14 44.76,-31.23 49.24,-25.85"/>
</a>
</g>
</g>
<!-- Node4 -->
<g id="Node000004" class="node">
<title>Node4</title>
<g id="a_Node000004"><a xlink:href="drivers_2include_2periph_2gpio_8h.html" target="_top" xlink:title="Low&#45;level GPIO peripheral driver interface definitions.">
<polygon fill="white" stroke="#666666" points="294.25,-77.5 214.5,-77.5 214.5,-56.75 294.25,-56.75 294.25,-77.5"/>
<text text-anchor="middle" x="254.38" y="-64" font-family="Helvetica,sans-Serif" font-size="10.00">periph/gpio.h</text>
</a>
</g>
</g>
<!-- Node1&#45;&gt;Node4 -->
<g id="edge3_Node000001_Node000004" class="edge">
<title>Node1&#45;&gt;Node4</title>
<g id="a_edge3_Node000001_Node000004"><a xlink:title=" ">
<path fill="none" stroke="#63b8ff" d="M177.18,-113.09C191.35,-104.83 211.87,-92.88 228.19,-83.38"/>
<polygon fill="#63b8ff" stroke="#63b8ff" points="229.53,-86.65 236.41,-78.59 226,-80.6 229.53,-86.65"/>
</a>
</g>
</g>
<!-- Node8 -->
<g id="Node000008" class="node">
<title>Node8</title>
<g id="a_Node000008"><a xlink:href="i2c_8h.html" target="_top" xlink:title="Low&#45;level I2C peripheral driver interface definition.">
<polygon fill="white" stroke="#666666" points="196.88,-77.5 123.88,-77.5 123.88,-56.75 196.88,-56.75 196.88,-77.5"/>
<text text-anchor="middle" x="160.38" y="-64" font-family="Helvetica,sans-Serif" font-size="10.00">periph/i2c.h</text>
</a>
</g>
</g>
<!-- Node1&#45;&gt;Node8 -->
<g id="edge7_Node000001_Node000008" class="edge">
<title>Node1&#45;&gt;Node8</title>
<g id="a_edge7_Node000001_Node000008"><a xlink:title=" ">
<path fill="none" stroke="#63b8ff" d="M160.38,-113.09C160.38,-106.47 160.38,-97.47 160.38,-89.27"/>
<polygon fill="#63b8ff" stroke="#63b8ff" points="163.88,-89.34 160.38,-79.34 156.88,-89.34 163.88,-89.34"/>
</a>
</g>
</g>
<!-- Node10 -->
<g id="Node000010" class="node">
<title>Node10</title>
<g id="a_Node000010"><a xlink:href="vl6180x__regs_8h.html" target="_top" xlink:title="Register definitions for ST VL6180X Ranging and Ambient Light Sensing (ALS) module.">
<polygon fill="white" stroke="#666666" points="402.5,-77.5 312.25,-77.5 312.25,-56.75 402.5,-56.75 402.5,-77.5"/>
<text text-anchor="middle" x="357.38" y="-64" font-family="Helvetica,sans-Serif" font-size="10.00">vl6180x_regs.h</text>
</a>
</g>
</g>
<!-- Node1&#45;&gt;Node10 -->
<g id="edge13_Node000001_Node000010" class="edge">
<title>Node1&#45;&gt;Node10</title>
<g id="a_edge13_Node000001_Node000010"><a xlink:title=" ">
<path fill="none" stroke="#63b8ff" d="M195.59,-113.09C227.85,-104.12 275.81,-90.79 311.14,-80.98"/>
<polygon fill="#63b8ff" stroke="#63b8ff" points="311.97,-84.38 320.67,-78.33 310.1,-77.63 311.97,-84.38"/>
</a>
</g>
</g>
<!-- Node5 -->
<g id="Node000005" class="node">
<title>Node5</title>
<g id="a_Node000005"><a xlink:title=" ">
<polygon fill="#e0e0e0" stroke="#999999" points="196.75,-20.75 144,-20.75 144,0 196.75,0 196.75,-20.75"/>
<text text-anchor="middle" x="170.38" y="-7.25" font-family="Helvetica,sans-Serif" font-size="10.00">limits.h</text>
</a>
</g>
</g>
<!-- Node4&#45;&gt;Node5 -->
<g id="edge4_Node000004_Node000005" class="edge">
<title>Node4&#45;&gt;Node5</title>
<g id="a_edge4_Node000004_Node000005"><a xlink:title=" ">
<path fill="none" stroke="#63b8ff" d="M239.36,-56.34C226.93,-48.24 209.05,-36.58 194.6,-27.17"/>
<polygon fill="#63b8ff" stroke="#63b8ff" points="196.82,-24.43 186.53,-21.9 193,-30.3 196.82,-24.43"/>
</a>
</g>
</g>
<!-- Node6 -->
<g id="Node000006" class="node">
<title>Node6</title>
<g id="a_Node000006"><a xlink:title=" ">
<polygon fill="#e0e0e0" stroke="#999999" points="293.5,-20.75 215.25,-20.75 215.25,0 293.5,0 293.5,-20.75"/>
<text text-anchor="middle" x="254.38" y="-7.25" font-family="Helvetica,sans-Serif" font-size="10.00">periph_cpu.h</text>
</a>
</g>
</g>
<!-- Node4&#45;&gt;Node6 -->
<g id="edge5_Node000004_Node000006" class="edge">
<title>Node4&#45;&gt;Node6</title>
<g id="a_edge5_Node000004_Node000006"><a xlink:title=" ">
<path fill="none" stroke="#63b8ff" d="M254.38,-56.34C254.38,-49.72 254.38,-40.72 254.38,-32.52"/>
<polygon fill="#63b8ff" stroke="#63b8ff" points="257.88,-32.59 254.38,-22.59 250.88,-32.59 257.88,-32.59"/>
</a>
</g>
</g>
<!-- Node7 -->
<g id="Node000007" class="node">
<title>Node7</title>
<g id="a_Node000007"><a xlink:title=" ">
<polygon fill="#e0e0e0" stroke="#999999" points="393,-20.75 311.75,-20.75 311.75,0 393,0 393,-20.75"/>
<text text-anchor="middle" x="352.38" y="-7.25" font-family="Helvetica,sans-Serif" font-size="10.00">periph_conf.h</text>
</a>
</g>
</g>
<!-- Node4&#45;&gt;Node7 -->
<g id="edge6_Node000004_Node000007" class="edge">
<title>Node4&#45;&gt;Node7</title>
<g id="a_edge6_Node000004_Node000007"><a xlink:title=" ">
<path fill="none" stroke="#63b8ff" d="M271.9,-56.34C286.67,-48.08 308.06,-36.13 325.07,-26.63"/>
<polygon fill="#63b8ff" stroke="#63b8ff" points="326.66,-29.75 333.68,-21.82 323.25,-23.64 326.66,-29.75"/>
</a>
</g>
</g>
<!-- Node8&#45;&gt;Node3 -->
<g id="edge8_Node000008_Node000003" class="edge">
<title>Node8&#45;&gt;Node3</title>
<g id="a_edge8_Node000008_Node000003"><a xlink:title=" ">
<path fill="none" stroke="#63b8ff" d="M136.42,-56.34C115.36,-47.73 84.47,-35.11 60.77,-25.43"/>
<polygon fill="#63b8ff" stroke="#63b8ff" points="62.11,-22.19 51.53,-21.65 59.46,-28.67 62.11,-22.19"/>
</a>
</g>
</g>
<!-- Node8&#45;&gt;Node5 -->
<g id="edge10_Node000008_Node000005" class="edge">
<title>Node8&#45;&gt;Node5</title>
<g id="a_edge10_Node000008_Node000005"><a xlink:title=" ">
<path fill="none" stroke="#63b8ff" d="M162.16,-56.34C163.39,-49.64 165.05,-40.51 166.57,-32.23"/>
<polygon fill="#63b8ff" stroke="#63b8ff" points="169.98,-33.03 168.33,-22.57 163.09,-31.78 169.98,-33.03"/>
</a>
</g>
</g>
<!-- Node8&#45;&gt;Node6 -->
<g id="edge12_Node000008_Node000006" class="edge">
<title>Node8&#45;&gt;Node6</title>
<g id="a_edge12_Node000008_Node000006"><a xlink:title=" ">
<path fill="none" stroke="#63b8ff" d="M177.18,-56.34C191.35,-48.08 211.87,-36.13 228.19,-26.63"/>
<polygon fill="#63b8ff" stroke="#63b8ff" points="229.53,-29.9 236.41,-21.84 226,-23.85 229.53,-29.9"/>
</a>
</g>
</g>
<!-- Node8&#45;&gt;Node7 -->
<g id="edge11_Node000008_Node000007" class="edge">
<title>Node8&#45;&gt;Node7</title>
<g id="a_edge11_Node000008_Node000007"><a xlink:title=" ">
<path fill="none" stroke="#63b8ff" d="M194.7,-56.34C226.14,-47.37 272.88,-34.04 307.31,-24.23"/>
<polygon fill="#63b8ff" stroke="#63b8ff" points="307.91,-27.69 316.57,-21.59 305.99,-20.96 307.91,-27.69"/>
</a>
</g>
</g>
<!-- Node9 -->
<g id="Node000009" class="node">
<title>Node9</title>
<g id="a_Node000009"><a xlink:title=" ">
<polygon fill="#e0e0e0" stroke="#999999" points="125.88,-20.75 70.88,-20.75 70.88,0 125.88,0 125.88,-20.75"/>
<text text-anchor="middle" x="98.38" y="-7.25" font-family="Helvetica,sans-Serif" font-size="10.00">stddef.h</text>
</a>
</g>
</g>
<!-- Node8&#45;&gt;Node9 -->
<g id="edge9_Node000008_Node000009" class="edge">
<title>Node8&#45;&gt;Node9</title>
<g id="a_edge9_Node000008_Node000009"><a xlink:title=" ">
<path fill="none" stroke="#63b8ff" d="M149.29,-56.34C140.56,-48.63 128.18,-37.7 117.81,-28.54"/>
<polygon fill="#63b8ff" stroke="#63b8ff" points="120.31,-26.08 110.5,-22.08 115.68,-31.32 120.31,-26.08"/>
</a>
</g>
</g>
</g>
</svg>
