<?xml version="1.0" encoding="UTF-8" standalone="no"?>
<!DOCTYPE svg PUBLIC "-//W3C//DTD SVG 1.1//EN"
 "http://www.w3.org/Graphics/SVG/1.1/DTD/svg11.dtd">
<!-- Generated by graphviz version 12.1.1 (0)
 -->
<!-- Title: boards/waspmote&#45;pro/include/board.h Pages: 1 -->
<svg width="186pt" height="98pt"
 viewBox="0.00 0.00 186.12 98.25" xmlns="http://www.w3.org/2000/svg" xmlns:xlink="http://www.w3.org/1999/xlink">
<g id="graph0" class="graph" transform="scale(1 1) rotate(0) translate(4 94.25)">
<title>boards/waspmote&#45;pro/include/board.h</title>
<!-- Node1 -->
<g id="Node000001" class="node">
<title>Node1</title>
<g id="a_Node000001"><a xlink:title="Board specific definitions for the Waspmote PRO v1.2 board.">
<polygon fill="#999999" stroke="#666666" points="131.38,-90.25 8.88,-90.25 8.88,-56.75 131.38,-56.75 131.38,-90.25"/>
<text text-anchor="start" x="16.88" y="-76.75" font-family="Helvetica,sans-Serif" font-size="10.00">boards/waspmote&#45;pro</text>
<text text-anchor="middle" x="70.12" y="-64" font-family="Helvetica,sans-Serif" font-size="10.00">/include/board.h</text>
</a>
</g>
</g>
<!-- Node2 -->
<g id="Node000002" class="node">
<title>Node2</title>
<g id="a_Node000002"><a xlink:title=" ">
<polygon fill="#e0e0e0" stroke="#999999" points="42.25,-20.75 0,-20.75 0,0 42.25,0 42.25,-20.75"/>
<text text-anchor="middle" x="21.12" y="-7.25" font-family="Helvetica,sans-Serif" font-size="10.00">cpu.h</text>
</a>
</g>
</g>
<!-- Node1&#45;&gt;Node2 -->
<g id="edge1_Node000001_Node000002" class="edge">
<title>Node1&#45;&gt;Node2</title>
<g id="a_edge1_Node000001_Node000002"><a xlink:title=" ">
<path fill="none" stroke="#63b8ff" d="M57.25,-56.44C50.74,-48.32 42.8,-38.42 36.03,-29.97"/>
<polygon fill="#63b8ff" stroke="#63b8ff" points="38.95,-28.01 29.96,-22.4 33.49,-32.39 38.95,-28.01"/>
</a>
</g>
</g>
<!-- Node3 -->
<g id="Node000003" class="node">
<title>Node3</title>
<g id="a_Node000003"><a xlink:href="waspmote__pinmap_8h.html" target="_top" xlink:title="Mapping from MCU pins to Waspmote pins.">
<polygon fill="white" stroke="#666666" points="178.12,-20.75 60.12,-20.75 60.12,0 178.12,0 178.12,-20.75"/>
<text text-anchor="middle" x="119.12" y="-7.25" font-family="Helvetica,sans-Serif" font-size="10.00">waspmote_pinmap.h</text>
</a>
</g>
</g>
<!-- Node1&#45;&gt;Node3 -->
<g id="edge2_Node000001_Node000003" class="edge">
<title>Node1&#45;&gt;Node3</title>
<g id="a_edge2_Node000001_Node000003"><a xlink:title=" ">
<path fill="none" stroke="#63b8ff" d="M83,-56.44C89.51,-48.32 97.45,-38.42 104.22,-29.97"/>
<polygon fill="#63b8ff" stroke="#63b8ff" points="106.76,-32.39 110.29,-22.4 101.3,-28.01 106.76,-32.39"/>
</a>
</g>
</g>
</g>
</svg>
