<?xml version="1.0" encoding="UTF-8" standalone="no"?>
<!DOCTYPE svg PUBLIC "-//W3C//DTD SVG 1.1//EN"
 "http://www.w3.org/Graphics/SVG/1.1/DTD/svg11.dtd">
<!-- Generated by graphviz version 12.1.1 (0)
 -->
<!-- Title: drivers/ws281x/include/ws281x_constants.h Pages: 1 -->
<svg width="146pt" height="168pt"
 viewBox="0.00 0.00 145.50 167.75" xmlns="http://www.w3.org/2000/svg" xmlns:xlink="http://www.w3.org/1999/xlink">
<g id="graph0" class="graph" transform="scale(1 1) rotate(0) translate(4 163.75)">
<title>drivers/ws281x/include/ws281x_constants.h</title>
<!-- Node1 -->
<g id="Node000001" class="node">
<title>Node1</title>
<g id="a_Node000001"><a xlink:title="Constants for WS2812/SK6812 RGB LEDs.">
<polygon fill="#999999" stroke="#666666" points="133,-159.75 4.5,-159.75 4.5,-126.25 133,-126.25 133,-159.75"/>
<text text-anchor="start" x="12.5" y="-146.25" font-family="Helvetica,sans-Serif" font-size="10.00">drivers/ws281x/include</text>
<text text-anchor="middle" x="68.75" y="-133.5" font-family="Helvetica,sans-Serif" font-size="10.00">/ws281x_constants.h</text>
</a>
</g>
</g>
<!-- Node2 -->
<g id="Node000002" class="node">
<title>Node2</title>
<g id="a_Node000002"><a xlink:href="ws281x_8h.html" target="_top" xlink:title="WS2812/SK6812 RGB LED Driver.">
<polygon fill="white" stroke="#666666" points="137.5,-90.25 0,-90.25 0,-69.5 137.5,-69.5 137.5,-90.25"/>
<text text-anchor="middle" x="68.75" y="-76.75" font-family="Helvetica,sans-Serif" font-size="10.00">drivers/include/ws281x.h</text>
</a>
</g>
</g>
<!-- Node1&#45;&gt;Node2 -->
<g id="edge1_Node000001_Node000002" class="edge">
<title>Node1&#45;&gt;Node2</title>
<g id="a_edge1_Node000001_Node000002"><a xlink:title=" ">
<path fill="none" stroke="#63b8ff" d="M68.75,-114.44C68.75,-105.96 68.75,-97.17 68.75,-90.72"/>
<polygon fill="#63b8ff" stroke="#63b8ff" points="65.25,-114.43 68.75,-124.43 72.25,-114.43 65.25,-114.43"/>
</a>
</g>
</g>
<!-- Node3 -->
<g id="Node000003" class="node">
<title>Node3</title>
<g id="a_Node000003"><a xlink:href="ws281x__params_8h.html" target="_top" xlink:title="Default configuration for WS2812/SK6812 RGB LEDs.">
<polygon fill="white" stroke="#666666" points="133,-33.5 4.5,-33.5 4.5,0 133,0 133,-33.5"/>
<text text-anchor="start" x="12.5" y="-20" font-family="Helvetica,sans-Serif" font-size="10.00">drivers/ws281x/include</text>
<text text-anchor="middle" x="68.75" y="-7.25" font-family="Helvetica,sans-Serif" font-size="10.00">/ws281x_params.h</text>
</a>
</g>
</g>
<!-- Node2&#45;&gt;Node3 -->
<g id="edge2_Node000002_Node000003" class="edge">
<title>Node2&#45;&gt;Node3</title>
<g id="a_edge2_Node000002_Node000003"><a xlink:title=" ">
<path fill="none" stroke="#63b8ff" d="M68.75,-57.59C68.75,-49.85 68.75,-41.22 68.75,-33.98"/>
<polygon fill="#63b8ff" stroke="#63b8ff" points="65.25,-57.54 68.75,-67.54 72.25,-57.54 65.25,-57.54"/>
</a>
</g>
</g>
</g>
</svg>
