<?xml version="1.0" encoding="UTF-8" standalone="no"?>
<!DOCTYPE svg PUBLIC "-//W3C//DTD SVG 1.1//EN"
 "http://www.w3.org/Graphics/SVG/1.1/DTD/svg11.dtd">
<!-- Generated by graphviz version 12.1.1 (0)
 -->
<!-- Title: cpu/esp_common/include/xtensa_conf.h Pages: 1 -->
<svg width="148pt" height="181pt"
 viewBox="0.00 0.00 147.75 180.50" xmlns="http://www.w3.org/2000/svg" xmlns:xlink="http://www.w3.org/1999/xlink">
<g id="graph0" class="graph" transform="scale(1 1) rotate(0) translate(4 176.5)">
<title>cpu/esp_common/include/xtensa_conf.h</title>
<!-- Node1 -->
<g id="Node000001" class="node">
<title>Node1</title>
<g id="a_Node000001"><a xlink:title="Xtensa ASM code specific configuration options for ESP SoCs.">
<polygon fill="#999999" stroke="#666666" points="139.75,-172.5 0,-172.5 0,-139 139.75,-139 139.75,-172.5"/>
<text text-anchor="start" x="8" y="-159" font-family="Helvetica,sans-Serif" font-size="10.00">cpu/esp_common/include</text>
<text text-anchor="middle" x="69.88" y="-146.25" font-family="Helvetica,sans-Serif" font-size="10.00">/xtensa_conf.h</text>
</a>
</g>
</g>
<!-- Node2 -->
<g id="Node000002" class="node">
<title>Node2</title>
<g id="a_Node000002"><a xlink:href="esp8266_2include_2cpu__conf_8h.html" target="_top" xlink:title="CPU specific configuration options.">
<polygon fill="white" stroke="#666666" points="127.75,-103 12,-103 12,-69.5 127.75,-69.5 127.75,-103"/>
<text text-anchor="start" x="20" y="-89.5" font-family="Helvetica,sans-Serif" font-size="10.00">cpu/esp8266/include</text>
<text text-anchor="middle" x="69.88" y="-76.75" font-family="Helvetica,sans-Serif" font-size="10.00">/cpu_conf.h</text>
</a>
</g>
</g>
<!-- Node1&#45;&gt;Node2 -->
<g id="edge1_Node000001_Node000002" class="edge">
<title>Node1&#45;&gt;Node2</title>
<g id="a_edge1_Node000001_Node000002"><a xlink:title=" ">
<path fill="none" stroke="#63b8ff" d="M69.88,-127.31C69.88,-119.09 69.88,-110.34 69.88,-103.13"/>
<polygon fill="#63b8ff" stroke="#63b8ff" points="66.38,-127.24 69.88,-137.24 73.38,-127.24 66.38,-127.24"/>
</a>
</g>
</g>
<!-- Node3 -->
<g id="Node000003" class="node">
<title>Node3</title>
<g id="a_Node000003"><a xlink:href="esp8266_2include_2periph__cpu_8h.html" target="_top" xlink:title="CPU specific definitions and functions for peripheral handling.">
<polygon fill="white" stroke="#666666" points="127.75,-33.5 12,-33.5 12,0 127.75,0 127.75,-33.5"/>
<text text-anchor="start" x="20" y="-20" font-family="Helvetica,sans-Serif" font-size="10.00">cpu/esp8266/include</text>
<text text-anchor="middle" x="69.88" y="-7.25" font-family="Helvetica,sans-Serif" font-size="10.00">/periph_cpu.h</text>
</a>
</g>
</g>
<!-- Node2&#45;&gt;Node3 -->
<g id="edge2_Node000002_Node000003" class="edge">
<title>Node2&#45;&gt;Node3</title>
<g id="a_edge2_Node000002_Node000003"><a xlink:title=" ">
<path fill="none" stroke="#63b8ff" d="M69.88,-57.81C69.88,-49.59 69.88,-40.84 69.88,-33.63"/>
<polygon fill="#63b8ff" stroke="#63b8ff" points="66.38,-57.74 69.88,-67.74 73.38,-57.74 66.38,-57.74"/>
</a>
</g>
</g>
</g>
</svg>
