<?xml version="1.0" encoding="UTF-8" standalone="no"?>
<!DOCTYPE svg PUBLIC "-//W3C//DTD SVG 1.1//EN"
 "http://www.w3.org/Graphics/SVG/1.1/DTD/svg11.dtd">
<!-- Generated by graphviz version 12.1.1 (0)
 -->
<!-- Title: boards/z1/include/board.h Pages: 1 -->
<svg width="149pt" height="86pt"
 viewBox="0.00 0.00 149.25 85.50" xmlns="http://www.w3.org/2000/svg" xmlns:xlink="http://www.w3.org/1999/xlink">
<g id="graph0" class="graph" transform="scale(1 1) rotate(0) translate(4 81.5)">
<title>boards/z1/include/board.h</title>
<!-- Node1 -->
<g id="Node000001" class="node">
<title>Node1</title>
<g id="a_Node000001"><a xlink:title="Zolertia Z1 board configuration.">
<polygon fill="#999999" stroke="#666666" points="141.25,-77.5 0,-77.5 0,-56.75 141.25,-56.75 141.25,-77.5"/>
<text text-anchor="middle" x="70.62" y="-64" font-family="Helvetica,sans-Serif" font-size="10.00">boards/z1/include/board.h</text>
</a>
</g>
</g>
<!-- Node2 -->
<g id="Node000002" class="node">
<title>Node2</title>
<g id="a_Node000002"><a xlink:title=" ">
<polygon fill="#e0e0e0" stroke="#999999" points="64,-20.75 11.25,-20.75 11.25,0 64,0 64,-20.75"/>
<text text-anchor="middle" x="37.62" y="-7.25" font-family="Helvetica,sans-Serif" font-size="10.00">stdint.h</text>
</a>
</g>
</g>
<!-- Node1&#45;&gt;Node2 -->
<g id="edge1_Node000001_Node000002" class="edge">
<title>Node1&#45;&gt;Node2</title>
<g id="a_edge1_Node000001_Node000002"><a xlink:title=" ">
<path fill="none" stroke="#63b8ff" d="M64.73,-56.34C60.45,-49.25 54.54,-39.44 49.33,-30.79"/>
<polygon fill="#63b8ff" stroke="#63b8ff" points="52.41,-29.13 44.25,-22.37 46.42,-32.75 52.41,-29.13"/>
</a>
</g>
</g>
<!-- Node3 -->
<g id="Node000003" class="node">
<title>Node3</title>
<g id="a_Node000003"><a xlink:title=" ">
<polygon fill="#e0e0e0" stroke="#999999" points="124.75,-20.75 82.5,-20.75 82.5,0 124.75,0 124.75,-20.75"/>
<text text-anchor="middle" x="103.62" y="-7.25" font-family="Helvetica,sans-Serif" font-size="10.00">cpu.h</text>
</a>
</g>
</g>
<!-- Node1&#45;&gt;Node3 -->
<g id="edge2_Node000001_Node000003" class="edge">
<title>Node1&#45;&gt;Node3</title>
<g id="a_edge2_Node000001_Node000003"><a xlink:title=" ">
<path fill="none" stroke="#63b8ff" d="M76.52,-56.34C80.8,-49.25 86.71,-39.44 91.92,-30.79"/>
<polygon fill="#63b8ff" stroke="#63b8ff" points="94.83,-32.75 97,-22.37 88.84,-29.13 94.83,-32.75"/>
</a>
</g>
</g>
</g>
</svg>
