<?xml version="1.0" encoding="UTF-8" standalone="no"?>
<!DOCTYPE svg PUBLIC "-//W3C//DTD SVG 1.1//EN"
 "http://www.w3.org/Graphics/SVG/1.1/DTD/svg11.dtd">
<!-- Generated by graphviz version 12.1.1 (0)
 -->
<!-- Title: sys/include/ztimer64/xtimer_compat.h Pages: 1 -->
<svg width="1488pt" height="666pt"
 viewBox="0.00 0.00 1487.75 665.75" xmlns="http://www.w3.org/2000/svg" xmlns:xlink="http://www.w3.org/1999/xlink">
<g id="graph0" class="graph" transform="scale(1 1) rotate(0) translate(4 661.75)">
<title>sys/include/ztimer64/xtimer_compat.h</title>
<!-- Node1 -->
<g id="Node000001" class="node">
<title>Node1</title>
<g id="a_Node000001"><a xlink:title="ztimer64 xtimer wrapper interface">
<polygon fill="#999999" stroke="#666666" points="1225,-657.75 1107.75,-657.75 1107.75,-624.25 1225,-624.25 1225,-657.75"/>
<text text-anchor="start" x="1115.75" y="-644.25" font-family="Helvetica,sans-Serif" font-size="10.00">sys/include/ztimer64</text>
<text text-anchor="middle" x="1166.38" y="-631.5" font-family="Helvetica,sans-Serif" font-size="10.00">/xtimer_compat.h</text>
</a>
</g>
</g>
<!-- Node2 -->
<g id="Node000002" class="node">
<title>Node2</title>
<g id="a_Node000002"><a xlink:href="assert_8h.html" target="_top" xlink:title="POSIX.1&#45;2008 compliant version of the assert macro.">
<polygon fill="white" stroke="#666666" points="1002.88,-77.5 947.88,-77.5 947.88,-56.75 1002.88,-56.75 1002.88,-77.5"/>
<text text-anchor="middle" x="975.38" y="-64" font-family="Helvetica,sans-Serif" font-size="10.00">assert.h</text>
</a>
</g>
</g>
<!-- Node1&#45;&gt;Node2 -->
<g id="edge1_Node000001_Node000002" class="edge">
<title>Node1&#45;&gt;Node2</title>
<g id="a_edge1_Node000001_Node000002"><a xlink:title=" ">
<path fill="none" stroke="#63b8ff" d="M1221.29,-623.77C1266.56,-606.61 1323.38,-574.61 1323.38,-522.12 1323.38,-522.12 1323.38,-522.12 1323.38,-293.12 1323.38,-147.35 1105.37,-91.38 1014.46,-74.38"/>
<polygon fill="#63b8ff" stroke="#63b8ff" points="1015.22,-70.96 1004.75,-72.63 1013.98,-77.85 1015.22,-70.96"/>
</a>
</g>
</g>
<!-- Node3 -->
<g id="Node000003" class="node">
<title>Node3</title>
<g id="a_Node000003"><a xlink:title=" ">
<polygon fill="#e0e0e0" stroke="#999999" points="604.75,-20.75 552,-20.75 552,0 604.75,0 604.75,-20.75"/>
<text text-anchor="middle" x="578.38" y="-7.25" font-family="Helvetica,sans-Serif" font-size="10.00">stdint.h</text>
</a>
</g>
</g>
<!-- Node1&#45;&gt;Node3 -->
<g id="edge4_Node000001_Node000003" class="edge">
<title>Node1&#45;&gt;Node3</title>
<g id="a_edge4_Node000001_Node000003"><a xlink:title=" ">
<path fill="none" stroke="#63b8ff" d="M1225.47,-635.4C1294.5,-626.43 1399.38,-599.98 1399.38,-522.12 1399.38,-522.12 1399.38,-522.12 1399.38,-122.88 1399.38,-83.49 1375.83,-73.91 1340.38,-56.75 1274.9,-25.05 761.15,-14.35 616.28,-11.94"/>
<polygon fill="#63b8ff" stroke="#63b8ff" points="616.53,-8.45 606.47,-11.79 616.41,-15.45 616.53,-8.45"/>
</a>
</g>
</g>
<!-- Node4 -->
<g id="Node000004" class="node">
<title>Node4</title>
<g id="a_Node000004"><a xlink:title=" ">
<polygon fill="#e0e0e0" stroke="#999999" points="1143.88,-134.25 1082.88,-134.25 1082.88,-113.5 1143.88,-113.5 1143.88,-134.25"/>
<text text-anchor="middle" x="1113.38" y="-120.75" font-family="Helvetica,sans-Serif" font-size="10.00">stdbool.h</text>
</a>
</g>
</g>
<!-- Node1&#45;&gt;Node4 -->
<g id="edge3_Node000001_Node000004" class="edge">
<title>Node1&#45;&gt;Node4</title>
<g id="a_edge3_Node000001_Node000004"><a xlink:title=" ">
<path fill="none" stroke="#63b8ff" d="M1186.81,-624.05C1210.81,-603.36 1247.38,-564.83 1247.38,-522.12 1247.38,-522.12 1247.38,-522.12 1247.38,-293.12 1247.38,-224.1 1177.52,-167.04 1138.68,-140.65"/>
<polygon fill="#63b8ff" stroke="#63b8ff" points="1141.08,-138.04 1130.8,-135.45 1137.22,-143.88 1141.08,-138.04"/>
</a>
</g>
</g>
<!-- Node5 -->
<g id="Node000005" class="node">
<title>Node5</title>
<g id="a_Node000005"><a xlink:title=" ">
<polygon fill="#e0e0e0" stroke="#999999" points="1479.75,-588.25 1427,-588.25 1427,-567.5 1479.75,-567.5 1479.75,-588.25"/>
<text text-anchor="middle" x="1453.38" y="-574.75" font-family="Helvetica,sans-Serif" font-size="10.00">board.h</text>
</a>
</g>
</g>
<!-- Node1&#45;&gt;Node5 -->
<g id="edge5_Node000001_Node000005" class="edge">
<title>Node1&#45;&gt;Node5</title>
<g id="a_edge5_Node000001_Node000005"><a xlink:title=" ">
<path fill="none" stroke="#63b8ff" d="M1225.35,-628.05C1275.44,-617.81 1349.22,-602.49 1413.38,-588.25 1414.18,-588.07 1415,-587.89 1415.83,-587.7"/>
<polygon fill="#63b8ff" stroke="#63b8ff" points="1416.27,-591.19 1425.24,-585.55 1414.71,-584.37 1416.27,-591.19"/>
</a>
</g>
</g>
<!-- Node6 -->
<g id="Node000006" class="node">
<title>Node6</title>
<g id="a_Node000006"><a xlink:href="div_8h.html" target="_top" xlink:title=" ">
<polygon fill="white" stroke="#666666" points="1371,-134.25 1331.75,-134.25 1331.75,-113.5 1371,-113.5 1371,-134.25"/>
<text text-anchor="middle" x="1351.38" y="-120.75" font-family="Helvetica,sans-Serif" font-size="10.00">div.h</text>
</a>
</g>
</g>
<!-- Node1&#45;&gt;Node6 -->
<g id="edge6_Node000001_Node000006" class="edge">
<title>Node1&#45;&gt;Node6</title>
<g id="a_edge6_Node000001_Node000006"><a xlink:title=" ">
<path fill="none" stroke="#63b8ff" d="M1225.31,-635.42C1261.76,-629.67 1307.2,-616.83 1337.38,-588.25 1360.07,-566.75 1361.38,-553.39 1361.38,-522.12 1361.38,-522.12 1361.38,-522.12 1361.38,-236.38 1361.38,-204.71 1357.32,-168.19 1354.38,-145.82"/>
<polygon fill="#63b8ff" stroke="#63b8ff" points="1357.89,-145.62 1353.06,-136.19 1350.95,-146.58 1357.89,-145.62"/>
</a>
</g>
</g>
<!-- Node7 -->
<g id="Node000007" class="node">
<title>Node7</title>
<g id="a_Node000007"><a xlink:href="timex_8h.html" target="_top" xlink:title="Utility library for comparing and computing timestamps.">
<polygon fill="white" stroke="#666666" points="114.12,-247.75 60.62,-247.75 60.62,-227 114.12,-227 114.12,-247.75"/>
<text text-anchor="middle" x="87.38" y="-234.25" font-family="Helvetica,sans-Serif" font-size="10.00">timex.h</text>
</a>
</g>
</g>
<!-- Node1&#45;&gt;Node7 -->
<g id="edge9_Node000001_Node000007" class="edge">
<title>Node1&#45;&gt;Node7</title>
<g id="a_edge9_Node000001_Node000007"><a xlink:title=" ">
<path fill="none" stroke="#63b8ff" d="M1107.32,-639.75C883.01,-638.03 96.38,-624.68 96.38,-522.12 96.38,-522.12 96.38,-522.12 96.38,-349.88 96.38,-318.23 92.73,-281.7 90.08,-259.32"/>
<polygon fill="#63b8ff" stroke="#63b8ff" points="93.59,-259.19 88.89,-249.7 86.64,-260.05 93.59,-259.19"/>
</a>
</g>
</g>
<!-- Node10 -->
<g id="Node000010" class="node">
<title>Node10</title>
<g id="a_Node000010"><a xlink:href="mutex_8h.html" target="_top" xlink:title="Mutex for thread synchronization.">
<polygon fill="white" stroke="#666666" points="623.62,-418 567.12,-418 567.12,-397.25 623.62,-397.25 623.62,-418"/>
<text text-anchor="middle" x="595.38" y="-404.5" font-family="Helvetica,sans-Serif" font-size="10.00">mutex.h</text>
</a>
</g>
</g>
<!-- Node1&#45;&gt;Node10 -->
<g id="edge13_Node000001_Node000010" class="edge">
<title>Node1&#45;&gt;Node10</title>
<g id="a_edge13_Node000001_Node000010"><a xlink:title=" ">
<path fill="none" stroke="#63b8ff" d="M1107.26,-636.92C978.85,-628.92 680.63,-602.93 614.38,-531.5 588.78,-503.9 589.24,-456.89 592.13,-429.71"/>
<polygon fill="#63b8ff" stroke="#63b8ff" points="595.58,-430.32 593.4,-419.95 588.64,-429.42 595.58,-430.32"/>
</a>
</g>
</g>
<!-- Node25 -->
<g id="Node000025" class="node">
<title>Node25</title>
<g id="a_Node000025"><a xlink:href="sched_8h.html" target="_top" xlink:title="Scheduler API definition.">
<polygon fill="white" stroke="#666666" points="754.12,-247.75 700.62,-247.75 700.62,-227 754.12,-227 754.12,-247.75"/>
<text text-anchor="middle" x="727.38" y="-234.25" font-family="Helvetica,sans-Serif" font-size="10.00">sched.h</text>
</a>
</g>
</g>
<!-- Node1&#45;&gt;Node25 -->
<g id="edge54_Node000001_Node000025" class="edge">
<title>Node1&#45;&gt;Node25</title>
<g id="a_edge54_Node000001_Node000025"><a xlink:title=" ">
<path fill="none" stroke="#63b8ff" d="M1157.75,-624.13C1146.54,-601.96 1128.38,-560.18 1128.38,-522.12 1128.38,-522.12 1128.38,-522.12 1128.38,-463.38 1128.38,-327.98 965.69,-414.88 841.38,-361.25 790.5,-339.3 760.36,-351.09 730.38,-304.5 721.81,-291.18 721.59,-273.04 723.22,-259.13"/>
<polygon fill="#63b8ff" stroke="#63b8ff" points="726.67,-259.72 724.81,-249.29 719.76,-258.61 726.67,-259.72"/>
</a>
</g>
</g>
<!-- Node30 -->
<g id="Node000030" class="node">
<title>Node30</title>
<g id="a_Node000030"><a xlink:href="ztimer_8h.html" target="_top" xlink:title="ztimer API">
<polygon fill="white" stroke="#666666" points="679.62,-531.5 623.12,-531.5 623.12,-510.75 679.62,-510.75 679.62,-531.5"/>
<text text-anchor="middle" x="651.38" y="-518" font-family="Helvetica,sans-Serif" font-size="10.00">ztimer.h</text>
</a>
</g>
</g>
<!-- Node1&#45;&gt;Node30 -->
<g id="edge55_Node000001_Node000030" class="edge">
<title>Node1&#45;&gt;Node30</title>
<g id="a_edge55_Node000001_Node000030"><a xlink:title=" ">
<path fill="none" stroke="#63b8ff" d="M1107.3,-626.48C1001.24,-602.2 781.25,-551.85 691.16,-531.23"/>
<polygon fill="#63b8ff" stroke="#63b8ff" points="692.08,-527.85 681.56,-529.03 690.52,-534.68 692.08,-527.85"/>
</a>
</g>
</g>
<!-- Node33 -->
<g id="Node000033" class="node">
<title>Node33</title>
<g id="a_Node000033"><a xlink:href="ztimer64_8h.html" target="_top" xlink:title="ztimer 64bit API">
<polygon fill="white" stroke="#666666" points="1072.62,-588.25 1004.12,-588.25 1004.12,-567.5 1072.62,-567.5 1072.62,-588.25"/>
<text text-anchor="middle" x="1038.38" y="-574.75" font-family="Helvetica,sans-Serif" font-size="10.00">ztimer64.h</text>
</a>
</g>
</g>
<!-- Node1&#45;&gt;Node33 -->
<g id="edge64_Node000001_Node000033" class="edge">
<title>Node1&#45;&gt;Node33</title>
<g id="a_edge64_Node000001_Node000033"><a xlink:title=" ">
<path fill="none" stroke="#63b8ff" d="M1132.41,-623.78C1112.75,-614.39 1088.21,-602.67 1069.13,-593.56"/>
<polygon fill="#63b8ff" stroke="#63b8ff" points="1070.77,-590.47 1060.24,-589.32 1067.76,-596.78 1070.77,-590.47"/>
</a>
</g>
</g>
<!-- Node2&#45;&gt;Node3 -->
<g id="edge2_Node000002_Node000003" class="edge">
<title>Node2&#45;&gt;Node3</title>
<g id="a_edge2_Node000002_Node000003"><a xlink:title=" ">
<path fill="none" stroke="#63b8ff" d="M947.43,-59.51C942.75,-58.51 937.94,-57.55 933.38,-56.75 818.72,-36.67 681.76,-21.68 616.54,-15.08"/>
<polygon fill="#63b8ff" stroke="#63b8ff" points="617.03,-11.61 606.73,-14.1 616.33,-18.58 617.03,-11.61"/>
</a>
</g>
</g>
<!-- Node6&#45;&gt;Node2 -->
<g id="edge7_Node000006_Node000002" class="edge">
<title>Node6&#45;&gt;Node2</title>
<g id="a_edge7_Node000006_Node000002"><a xlink:title=" ">
<path fill="none" stroke="#63b8ff" d="M1331.43,-119.97C1271.66,-111.27 1093.33,-85.3 1014.08,-73.76"/>
<polygon fill="#63b8ff" stroke="#63b8ff" points="1015.03,-70.36 1004.63,-72.38 1014.02,-77.29 1015.03,-70.36"/>
</a>
</g>
</g>
<!-- Node6&#45;&gt;Node3 -->
<g id="edge8_Node000006_Node000003" class="edge">
<title>Node6&#45;&gt;Node3</title>
<g id="a_edge8_Node000006_Node000003"><a xlink:title=" ">
<path fill="none" stroke="#63b8ff" d="M1349.54,-113.21C1346.13,-98.22 1337.26,-69.74 1317.38,-56.75 1258.43,-18.25 759.11,-12.41 616.35,-11.53"/>
<polygon fill="#63b8ff" stroke="#63b8ff" points="616.71,-8.03 606.69,-11.48 616.67,-15.03 616.71,-8.03"/>
</a>
</g>
</g>
<!-- Node7&#45;&gt;Node3 -->
<g id="edge10_Node000007_Node000003" class="edge">
<title>Node7&#45;&gt;Node3</title>
<g id="a_edge10_Node000007_Node000003"><a xlink:title=" ">
<path fill="none" stroke="#63b8ff" d="M88.13,-226.74C90.99,-192.81 102.36,-79.72 128.38,-56.75 159.02,-29.69 437.6,-16.63 540.45,-12.7"/>
<polygon fill="#63b8ff" stroke="#63b8ff" points="540.44,-16.2 550.3,-12.33 540.18,-9.21 540.44,-16.2"/>
</a>
</g>
</g>
<!-- Node8 -->
<g id="Node000008" class="node">
<title>Node8</title>
<g id="a_Node000008"><a xlink:href="inttypes_8h.html" target="_top" xlink:title="Adds include for missing inttype definitions.">
<polygon fill="white" stroke="#666666" points="348.75,-191 284,-191 284,-170.25 348.75,-170.25 348.75,-191"/>
<text text-anchor="middle" x="316.38" y="-177.5" font-family="Helvetica,sans-Serif" font-size="10.00">inttypes.h</text>
</a>
</g>
</g>
<!-- Node7&#45;&gt;Node8 -->
<g id="edge11_Node000007_Node000008" class="edge">
<title>Node7&#45;&gt;Node8</title>
<g id="a_edge11_Node000007_Node000008"><a xlink:title=" ">
<path fill="none" stroke="#63b8ff" d="M114.54,-229.88C153.62,-220.54 226.1,-203.21 272.74,-192.06"/>
<polygon fill="#63b8ff" stroke="#63b8ff" points="273.33,-195.52 282.24,-189.79 271.7,-188.71 273.33,-195.52"/>
</a>
</g>
</g>
<!-- Node9 -->
<g id="Node000009" class="node">
<title>Node9</title>
<g id="a_Node000009"><a xlink:href="time__units_8h.html" target="_top" xlink:title="Utility header providing time unit defines.">
<polygon fill="white" stroke="#666666" points="76.75,-191 0,-191 0,-170.25 76.75,-170.25 76.75,-191"/>
<text text-anchor="middle" x="38.38" y="-177.5" font-family="Helvetica,sans-Serif" font-size="10.00">time_units.h</text>
</a>
</g>
</g>
<!-- Node7&#45;&gt;Node9 -->
<g id="edge12_Node000007_Node000009" class="edge">
<title>Node7&#45;&gt;Node9</title>
<g id="a_edge12_Node000007_Node000009"><a xlink:title=" ">
<path fill="none" stroke="#63b8ff" d="M78.61,-226.59C71.93,-219.11 62.52,-208.61 54.49,-199.63"/>
<polygon fill="#63b8ff" stroke="#63b8ff" points="57.35,-197.57 48.07,-192.46 52.13,-202.24 57.35,-197.57"/>
</a>
</g>
</g>
<!-- Node10&#45;&gt;Node3 -->
<g id="edge15_Node000010_Node000003" class="edge">
<title>Node10&#45;&gt;Node3</title>
<g id="a_edge15_Node000010_Node000003"><a xlink:title=" ">
<path fill="none" stroke="#63b8ff" d="M566.73,-404.37C478.75,-396.67 218.38,-367.73 218.38,-295.12 218.38,-295.12 218.38,-295.12 218.38,-122.88 218.38,-56.04 447.64,-24.87 540.25,-15"/>
<polygon fill="#63b8ff" stroke="#63b8ff" points="540.52,-18.49 550.11,-13.98 539.8,-11.53 540.52,-18.49"/>
</a>
</g>
</g>
<!-- Node10&#45;&gt;Node4 -->
<g id="edge16_Node000010_Node000004" class="edge">
<title>Node10&#45;&gt;Node4</title>
<g id="a_edge16_Node000010_Node000004"><a xlink:title=" ">
<path fill="none" stroke="#63b8ff" d="M623.93,-404.96C718.37,-398.83 1018.03,-374.13 1078.38,-304.5 1117.84,-258.97 1118.04,-182.32 1115.49,-145.65"/>
<polygon fill="#63b8ff" stroke="#63b8ff" points="1119,-145.63 1114.67,-135.97 1112.03,-146.23 1119,-145.63"/>
</a>
</g>
</g>
<!-- Node11 -->
<g id="Node000011" class="node">
<title>Node11</title>
<g id="a_Node000011"><a xlink:title=" ">
<polygon fill="#e0e0e0" stroke="#999999" points="707.88,-77.5 652.88,-77.5 652.88,-56.75 707.88,-56.75 707.88,-77.5"/>
<text text-anchor="middle" x="680.38" y="-64" font-family="Helvetica,sans-Serif" font-size="10.00">stddef.h</text>
</a>
</g>
</g>
<!-- Node10&#45;&gt;Node11 -->
<g id="edge14_Node000010_Node000011" class="edge">
<title>Node10&#45;&gt;Node11</title>
<g id="a_edge14_Node000010_Node000011"><a xlink:title=" ">
<path fill="none" stroke="#63b8ff" d="M592.42,-396.89C586.86,-377.64 575.38,-333.28 575.38,-295.12 575.38,-295.12 575.38,-295.12 575.38,-236.38 575.38,-205.8 568.68,-198.24 556.38,-170.25 548.83,-153.08 539.45,-152.3 534.38,-134.25 531.88,-125.37 528.91,-120.93 534.38,-113.5 558.77,-80.38 607.14,-70.73 641.51,-68.27"/>
<polygon fill="#63b8ff" stroke="#63b8ff" points="641.26,-71.79 651.06,-67.77 640.89,-64.8 641.26,-71.79"/>
</a>
</g>
</g>
<!-- Node12 -->
<g id="Node000012" class="node">
<title>Node12</title>
<g id="a_Node000012"><a xlink:href="architecture_8h.html" target="_top" xlink:title="Platform&#45;independent access to architecture details.">
<polygon fill="white" stroke="#666666" points="435.12,-247.75 351.62,-247.75 351.62,-227 435.12,-227 435.12,-247.75"/>
<text text-anchor="middle" x="393.38" y="-234.25" font-family="Helvetica,sans-Serif" font-size="10.00">architecture.h</text>
</a>
</g>
</g>
<!-- Node10&#45;&gt;Node12 -->
<g id="edge17_Node000010_Node000012" class="edge">
<title>Node10&#45;&gt;Node12</title>
<g id="a_edge17_Node000010_Node000012"><a xlink:title=" ">
<path fill="none" stroke="#63b8ff" d="M583.64,-396.85C550.52,-369.26 455.99,-290.52 413.95,-255.52"/>
<polygon fill="#63b8ff" stroke="#63b8ff" points="416.23,-252.85 406.3,-249.14 411.75,-258.23 416.23,-252.85"/>
</a>
</g>
</g>
<!-- Node15 -->
<g id="Node000015" class="node">
<title>Node15</title>
<g id="a_Node000015"><a xlink:href="kernel__defines_8h.html" target="_top" xlink:title="Common macros and compiler attributes/pragmas configuration.">
<polygon fill="white" stroke="#666666" points="699.5,-191 603.25,-191 603.25,-170.25 699.5,-170.25 699.5,-191"/>
<text text-anchor="middle" x="651.38" y="-177.5" font-family="Helvetica,sans-Serif" font-size="10.00">kernel_defines.h</text>
</a>
</g>
</g>
<!-- Node10&#45;&gt;Node15 -->
<g id="edge22_Node000010_Node000015" class="edge">
<title>Node10&#45;&gt;Node15</title>
<g id="a_edge22_Node000010_Node000015"><a xlink:title=" ">
<path fill="none" stroke="#63b8ff" d="M597.78,-396.96C606.22,-363.06 634.58,-249.12 646.27,-202.14"/>
<polygon fill="#63b8ff" stroke="#63b8ff" points="649.59,-203.27 648.61,-192.73 642.8,-201.58 649.59,-203.27"/>
</a>
</g>
</g>
<!-- Node20 -->
<g id="Node000020" class="node">
<title>Node20</title>
<g id="a_Node000020"><a xlink:href="list_8h.html" target="_top" xlink:title="Intrusive linked list.">
<polygon fill="white" stroke="#666666" points="1046.38,-134.25 1006.38,-134.25 1006.38,-113.5 1046.38,-113.5 1046.38,-134.25"/>
<text text-anchor="middle" x="1026.38" y="-120.75" font-family="Helvetica,sans-Serif" font-size="10.00">list.h</text>
</a>
</g>
</g>
<!-- Node10&#45;&gt;Node20 -->
<g id="edge32_Node000010_Node000020" class="edge">
<title>Node10&#45;&gt;Node20</title>
<g id="a_edge32_Node000010_Node000020"><a xlink:title=" ">
<path fill="none" stroke="#63b8ff" d="M624.07,-406.04C718.55,-403.8 1019,-394.2 1109.38,-361.25 1150.67,-346.19 1170.08,-343.49 1190.38,-304.5 1228.28,-231.65 1113.96,-165.83 1056.82,-138.39"/>
<polygon fill="#63b8ff" stroke="#63b8ff" points="1058.45,-135.29 1047.91,-134.22 1055.48,-141.63 1058.45,-135.29"/>
</a>
</g>
</g>
<!-- Node21 -->
<g id="Node000021" class="node">
<title>Node21</title>
<g id="a_Node000021"><a xlink:href="core_2include_2thread_8h.html" target="_top" xlink:title="Threading API.">
<polygon fill="white" stroke="#666666" points="906.62,-361.25 850.12,-361.25 850.12,-340.5 906.62,-340.5 906.62,-361.25"/>
<text text-anchor="middle" x="878.38" y="-347.75" font-family="Helvetica,sans-Serif" font-size="10.00">thread.h</text>
</a>
</g>
</g>
<!-- Node10&#45;&gt;Node21 -->
<g id="edge33_Node000010_Node000021" class="edge">
<title>Node10&#45;&gt;Node21</title>
<g id="a_edge33_Node000010_Node000021"><a xlink:title=" ">
<path fill="none" stroke="#63b8ff" d="M624.07,-401.07C674.94,-391.23 781.03,-370.71 838.81,-359.53"/>
<polygon fill="#63b8ff" stroke="#63b8ff" points="839.39,-362.98 848.54,-357.65 838.06,-356.11 839.39,-362.98"/>
</a>
</g>
</g>
<!-- Node12&#45;&gt;Node3 -->
<g id="edge18_Node000012_Node000003" class="edge">
<title>Node12&#45;&gt;Node3</title>
<g id="a_edge18_Node000012_Node000003"><a xlink:title=" ">
<path fill="none" stroke="#63b8ff" d="M351.24,-230C310.49,-221.73 257.36,-204.16 275.38,-170.25 328.72,-69.84 471.7,-30.76 540.45,-17.43"/>
<polygon fill="#63b8ff" stroke="#63b8ff" points="540.91,-20.91 550.11,-15.65 539.64,-14.02 540.91,-20.91"/>
</a>
</g>
</g>
<!-- Node12&#45;&gt;Node8 -->
<g id="edge19_Node000012_Node000008" class="edge">
<title>Node12&#45;&gt;Node8</title>
<g id="a_edge19_Node000012_Node000008"><a xlink:title=" ">
<path fill="none" stroke="#63b8ff" d="M379.61,-226.59C368.44,-218.65 352.46,-207.28 339.35,-197.96"/>
<polygon fill="#63b8ff" stroke="#63b8ff" points="341.43,-195.15 331.26,-192.21 337.38,-200.85 341.43,-195.15"/>
</a>
</g>
</g>
<!-- Node13 -->
<g id="Node000013" class="node">
<title>Node13</title>
<g id="a_Node000013"><a xlink:title=" ">
<polygon fill="#e0e0e0" stroke="#999999" points="419.75,-191 367,-191 367,-170.25 419.75,-170.25 419.75,-191"/>
<text text-anchor="middle" x="393.38" y="-177.5" font-family="Helvetica,sans-Serif" font-size="10.00">limits.h</text>
</a>
</g>
</g>
<!-- Node12&#45;&gt;Node13 -->
<g id="edge20_Node000012_Node000013" class="edge">
<title>Node12&#45;&gt;Node13</title>
<g id="a_edge20_Node000012_Node000013"><a xlink:title=" ">
<path fill="none" stroke="#63b8ff" d="M393.38,-226.59C393.38,-219.97 393.38,-210.97 393.38,-202.77"/>
<polygon fill="#63b8ff" stroke="#63b8ff" points="396.88,-202.84 393.38,-192.84 389.88,-202.84 396.88,-202.84"/>
</a>
</g>
</g>
<!-- Node14 -->
<g id="Node000014" class="node">
<title>Node14</title>
<g id="a_Node000014"><a xlink:title=" ">
<polygon fill="#e0e0e0" stroke="#999999" points="547.25,-191 437.5,-191 437.5,-170.25 547.25,-170.25 547.25,-191"/>
<text text-anchor="middle" x="492.38" y="-177.5" font-family="Helvetica,sans-Serif" font-size="10.00">architecture_arch.h</text>
</a>
</g>
</g>
<!-- Node12&#45;&gt;Node14 -->
<g id="edge21_Node000012_Node000014" class="edge">
<title>Node12&#45;&gt;Node14</title>
<g id="a_edge21_Node000012_Node000014"><a xlink:title=" ">
<path fill="none" stroke="#63b8ff" d="M411.07,-226.59C426,-218.33 447.61,-206.38 464.8,-196.88"/>
<polygon fill="#63b8ff" stroke="#63b8ff" points="466.45,-199.96 473.5,-192.06 463.06,-193.84 466.45,-199.96"/>
</a>
</g>
</g>
<!-- Node16 -->
<g id="Node000016" class="node">
<title>Node16</title>
<g id="a_Node000016"><a xlink:href="modules_8h.html" target="_top" xlink:title="Common macros and compiler attributes/pragmas configuration.">
<polygon fill="white" stroke="#666666" points="698.88,-134.25 631.88,-134.25 631.88,-113.5 698.88,-113.5 698.88,-134.25"/>
<text text-anchor="middle" x="665.38" y="-120.75" font-family="Helvetica,sans-Serif" font-size="10.00">modules.h</text>
</a>
</g>
</g>
<!-- Node15&#45;&gt;Node16 -->
<g id="edge23_Node000015_Node000016" class="edge">
<title>Node15&#45;&gt;Node16</title>
<g id="a_edge23_Node000015_Node000016"><a xlink:title=" ">
<path fill="none" stroke="#63b8ff" d="M653.88,-169.84C655.59,-163.14 657.92,-154.01 660.04,-145.73"/>
<polygon fill="#63b8ff" stroke="#63b8ff" points="663.43,-146.6 662.52,-136.04 656.65,-144.87 663.43,-146.6"/>
</a>
</g>
</g>
<!-- Node17 -->
<g id="Node000017" class="node">
<title>Node17</title>
<g id="a_Node000017"><a xlink:href="riot__version_8h.html" target="_top" xlink:title="Common macros and compiler attributes/pragmas configuration.">
<polygon fill="white" stroke="#666666" points="534.75,-77.5 452,-77.5 452,-56.75 534.75,-56.75 534.75,-77.5"/>
<text text-anchor="middle" x="493.38" y="-64" font-family="Helvetica,sans-Serif" font-size="10.00">riot_version.h</text>
</a>
</g>
</g>
<!-- Node15&#45;&gt;Node17 -->
<g id="edge24_Node000015_Node000017" class="edge">
<title>Node15&#45;&gt;Node17</title>
<g id="a_edge24_Node000015_Node000017"><a xlink:title=" ">
<path fill="none" stroke="#63b8ff" d="M607.28,-169.81C583.71,-162.87 555.33,-151.65 534.38,-134.25 519.45,-121.86 508.37,-102.56 501.51,-88"/>
<polygon fill="#63b8ff" stroke="#63b8ff" points="504.76,-86.7 497.54,-78.96 498.36,-89.52 504.76,-86.7"/>
</a>
</g>
</g>
<!-- Node18 -->
<g id="Node000018" class="node">
<title>Node18</title>
<g id="a_Node000018"><a xlink:href="compiler__hints_8h.html" target="_top" xlink:title="Common macros and compiler attributes/pragmas configuration.">
<polygon fill="white" stroke="#666666" points="890.88,-134.25 793.88,-134.25 793.88,-113.5 890.88,-113.5 890.88,-134.25"/>
<text text-anchor="middle" x="842.38" y="-120.75" font-family="Helvetica,sans-Serif" font-size="10.00">compiler_hints.h</text>
</a>
</g>
</g>
<!-- Node15&#45;&gt;Node18 -->
<g id="edge26_Node000015_Node000018" class="edge">
<title>Node15&#45;&gt;Node18</title>
<g id="a_edge26_Node000015_Node000018"><a xlink:title=" ">
<path fill="none" stroke="#63b8ff" d="M685.52,-169.84C716.8,-160.87 763.29,-147.54 797.55,-137.73"/>
<polygon fill="#63b8ff" stroke="#63b8ff" points="798.1,-141.21 806.75,-135.09 796.17,-134.48 798.1,-141.21"/>
</a>
</g>
</g>
<!-- Node19 -->
<g id="Node000019" class="node">
<title>Node19</title>
<g id="a_Node000019"><a xlink:href="container_8h.html" target="_top" xlink:title="Common macros and compiler attributes/pragmas configuration.">
<polygon fill="white" stroke="#666666" points="613.75,-134.25 543,-134.25 543,-113.5 613.75,-113.5 613.75,-134.25"/>
<text text-anchor="middle" x="578.38" y="-120.75" font-family="Helvetica,sans-Serif" font-size="10.00">container.h</text>
</a>
</g>
</g>
<!-- Node15&#45;&gt;Node19 -->
<g id="edge29_Node000015_Node000019" class="edge">
<title>Node15&#45;&gt;Node19</title>
<g id="a_edge29_Node000015_Node000019"><a xlink:title=" ">
<path fill="none" stroke="#63b8ff" d="M638.32,-169.84C627.74,-161.9 612.58,-150.53 600.16,-141.21"/>
<polygon fill="#63b8ff" stroke="#63b8ff" points="602.62,-138.69 592.52,-135.49 598.42,-144.29 602.62,-138.69"/>
</a>
</g>
</g>
<!-- Node17&#45;&gt;Node3 -->
<g id="edge25_Node000017_Node000003" class="edge">
<title>Node17&#45;&gt;Node3</title>
<g id="a_edge25_Node000017_Node000003"><a xlink:title=" ">
<path fill="none" stroke="#63b8ff" d="M508.57,-56.34C521.14,-48.24 539.24,-36.58 553.86,-27.17"/>
<polygon fill="#63b8ff" stroke="#63b8ff" points="555.53,-30.26 562.04,-21.9 551.74,-24.37 555.53,-30.26"/>
</a>
</g>
</g>
<!-- Node18&#45;&gt;Node2 -->
<g id="edge27_Node000018_Node000002" class="edge">
<title>Node18&#45;&gt;Node2</title>
<g id="a_edge27_Node000018_Node000002"><a xlink:title=" ">
<path fill="none" stroke="#63b8ff" d="M866.15,-113.09C887.05,-104.48 917.71,-91.86 941.23,-82.18"/>
<polygon fill="#63b8ff" stroke="#63b8ff" points="942.49,-85.45 950.4,-78.4 939.82,-78.97 942.49,-85.45"/>
</a>
</g>
</g>
<!-- Node18&#45;&gt;Node3 -->
<g id="edge28_Node000018_Node000003" class="edge">
<title>Node18&#45;&gt;Node3</title>
<g id="a_edge28_Node000018_Node000003"><a xlink:title=" ">
<path fill="none" stroke="#63b8ff" d="M826.23,-113.18C802.83,-99.4 757.83,-73.91 717.38,-56.75 683.89,-42.55 644.35,-30.04 616.02,-21.76"/>
<polygon fill="#63b8ff" stroke="#63b8ff" points="617.03,-18.41 606.45,-19.01 615.1,-25.14 617.03,-18.41"/>
</a>
</g>
</g>
<!-- Node19&#45;&gt;Node3 -->
<g id="edge31_Node000019_Node000003" class="edge">
<title>Node19&#45;&gt;Node3</title>
<g id="a_edge31_Node000019_Node000003"><a xlink:title=" ">
<path fill="none" stroke="#63b8ff" d="M578.38,-113.37C578.38,-95.6 578.38,-56.97 578.38,-32.68"/>
<polygon fill="#63b8ff" stroke="#63b8ff" points="581.88,-32.69 578.38,-22.69 574.88,-32.69 581.88,-32.69"/>
</a>
</g>
</g>
<!-- Node19&#45;&gt;Node11 -->
<g id="edge30_Node000019_Node000011" class="edge">
<title>Node19&#45;&gt;Node11</title>
<g id="a_edge30_Node000019_Node000011"><a xlink:title=" ">
<path fill="none" stroke="#63b8ff" d="M596.61,-113.09C612.06,-104.8 634.46,-92.77 652.21,-83.24"/>
<polygon fill="#63b8ff" stroke="#63b8ff" points="653.81,-86.36 660.96,-78.54 650.5,-80.19 653.81,-86.36"/>
</a>
</g>
</g>
<!-- Node22 -->
<g id="Node000022" class="node">
<title>Node22</title>
<g id="a_Node000022"><a xlink:href="clist_8h.html" target="_top" xlink:title="Circular linked list.">
<polygon fill="white" stroke="#666666" points="1031,-191 985.75,-191 985.75,-170.25 1031,-170.25 1031,-191"/>
<text text-anchor="middle" x="1008.38" y="-177.5" font-family="Helvetica,sans-Serif" font-size="10.00">clist.h</text>
</a>
</g>
</g>
<!-- Node21&#45;&gt;Node22 -->
<g id="edge34_Node000021_Node000022" class="edge">
<title>Node21&#45;&gt;Node22</title>
<g id="a_edge34_Node000021_Node000022"><a xlink:title=" ">
<path fill="none" stroke="#63b8ff" d="M906.89,-346.9C952.81,-341.45 1039.9,-328.21 1058.38,-304.5 1079.55,-277.33 1072.32,-258.49 1058.38,-227 1053.25,-215.42 1043.55,-205.54 1034.05,-197.98"/>
<polygon fill="#63b8ff" stroke="#63b8ff" points="1036.15,-195.18 1026.01,-192.11 1032.02,-200.83 1036.15,-195.18"/>
</a>
</g>
</g>
<!-- Node23 -->
<g id="Node000023" class="node">
<title>Node23</title>
<g id="a_Node000023"><a xlink:href="cib_8h.html" target="_top" xlink:title="Circular integer buffer interface.">
<polygon fill="white" stroke="#666666" points="925,-247.75 885.75,-247.75 885.75,-227 925,-227 925,-247.75"/>
<text text-anchor="middle" x="905.38" y="-234.25" font-family="Helvetica,sans-Serif" font-size="10.00">cib.h</text>
</a>
</g>
</g>
<!-- Node21&#45;&gt;Node23 -->
<g id="edge38_Node000021_Node000023" class="edge">
<title>Node21&#45;&gt;Node23</title>
<g id="a_edge38_Node000021_Node000023"><a xlink:title=" ">
<path fill="none" stroke="#63b8ff" d="M888.04,-340.07C895.77,-331.49 906,-318.28 910.38,-304.5 915.06,-289.71 913.43,-272.17 910.83,-258.87"/>
<polygon fill="#63b8ff" stroke="#63b8ff" points="914.34,-258.48 908.67,-249.53 907.52,-260.06 914.34,-258.48"/>
</a>
</g>
</g>
<!-- Node24 -->
<g id="Node000024" class="node">
<title>Node24</title>
<g id="a_Node000024"><a xlink:href="core_2include_2msg_8h.html" target="_top" xlink:title="Messaging API for inter process communication.">
<polygon fill="white" stroke="#666666" points="901.38,-304.5 855.38,-304.5 855.38,-283.75 901.38,-283.75 901.38,-304.5"/>
<text text-anchor="middle" x="878.38" y="-291" font-family="Helvetica,sans-Serif" font-size="10.00">msg.h</text>
</a>
</g>
</g>
<!-- Node21&#45;&gt;Node24 -->
<g id="edge40_Node000021_Node000024" class="edge">
<title>Node21&#45;&gt;Node24</title>
<g id="a_edge40_Node000021_Node000024"><a xlink:title=" ">
<path fill="none" stroke="#63b8ff" d="M878.38,-340.09C878.38,-333.47 878.38,-324.47 878.38,-316.27"/>
<polygon fill="#63b8ff" stroke="#63b8ff" points="881.88,-316.34 878.38,-306.34 874.88,-316.34 881.88,-316.34"/>
</a>
</g>
</g>
<!-- Node21&#45;&gt;Node25 -->
<g id="edge49_Node000021_Node000025" class="edge">
<title>Node21&#45;&gt;Node25</title>
<g id="a_edge49_Node000021_Node000025"><a xlink:title=" ">
<path fill="none" stroke="#63b8ff" d="M849.82,-347.63C819.94,-343.77 773.66,-333.23 746.38,-304.5 734.79,-292.31 730.2,-273.53 728.42,-259.1"/>
<polygon fill="#63b8ff" stroke="#63b8ff" points="731.92,-258.98 727.59,-249.31 724.95,-259.57 731.92,-258.98"/>
</a>
</g>
</g>
<!-- Node27 -->
<g id="Node000027" class="node">
<title>Node27</title>
<g id="a_Node000027"><a xlink:href="thread__config_8h.html" target="_top" xlink:title="Thread configuration defines.">
<polygon fill="white" stroke="#666666" points="1049.25,-304.5 957.5,-304.5 957.5,-283.75 1049.25,-283.75 1049.25,-304.5"/>
<text text-anchor="middle" x="1003.38" y="-291" font-family="Helvetica,sans-Serif" font-size="10.00">thread_config.h</text>
</a>
</g>
</g>
<!-- Node21&#45;&gt;Node27 -->
<g id="edge50_Node000021_Node000027" class="edge">
<title>Node21&#45;&gt;Node27</title>
<g id="a_edge50_Node000021_Node000027"><a xlink:title=" ">
<path fill="none" stroke="#63b8ff" d="M900.72,-340.09C920.19,-331.56 948.66,-319.09 970.68,-309.44"/>
<polygon fill="#63b8ff" stroke="#63b8ff" points="972.08,-312.65 979.83,-305.44 969.27,-306.24 972.08,-312.65"/>
</a>
</g>
</g>
<!-- Node29 -->
<g id="Node000029" class="node">
<title>Node29</title>
<g id="a_Node000029"><a xlink:title=" ">
<polygon fill="#e0e0e0" stroke="#999999" points="837.75,-304.5 755,-304.5 755,-283.75 837.75,-283.75 837.75,-304.5"/>
<text text-anchor="middle" x="796.38" y="-291" font-family="Helvetica,sans-Serif" font-size="10.00">thread_arch.h</text>
</a>
</g>
</g>
<!-- Node21&#45;&gt;Node29 -->
<g id="edge53_Node000021_Node000029" class="edge">
<title>Node21&#45;&gt;Node29</title>
<g id="a_edge53_Node000021_Node000029"><a xlink:title=" ">
<path fill="none" stroke="#63b8ff" d="M863.72,-340.09C851.7,-332.07 834.46,-320.56 820.44,-311.19"/>
<polygon fill="#63b8ff" stroke="#63b8ff" points="822.43,-308.31 812.17,-305.67 818.54,-314.13 822.43,-308.31"/>
</a>
</g>
</g>
<!-- Node22&#45;&gt;Node4 -->
<g id="edge35_Node000022_Node000004" class="edge">
<title>Node22&#45;&gt;Node4</title>
<g id="a_edge35_Node000022_Node000004"><a xlink:title=" ">
<path fill="none" stroke="#63b8ff" d="M1027.15,-169.84C1043.12,-161.51 1066.33,-149.41 1084.64,-139.86"/>
<polygon fill="#63b8ff" stroke="#63b8ff" points="1086.17,-143.01 1093.42,-135.28 1082.94,-136.8 1086.17,-143.01"/>
</a>
</g>
</g>
<!-- Node22&#45;&gt;Node11 -->
<g id="edge36_Node000022_Node000011" class="edge">
<title>Node22&#45;&gt;Node11</title>
<g id="a_edge36_Node000022_Node000011"><a xlink:title=" ">
<path fill="none" stroke="#63b8ff" d="M985.44,-177.7C944.14,-173.65 855.05,-162.19 785.38,-134.25 754.1,-121.71 721.85,-99.81 701.49,-84.67"/>
<polygon fill="#63b8ff" stroke="#63b8ff" points="703.79,-82.02 693.71,-78.76 699.56,-87.6 703.79,-82.02"/>
</a>
</g>
</g>
<!-- Node22&#45;&gt;Node20 -->
<g id="edge37_Node000022_Node000020" class="edge">
<title>Node22&#45;&gt;Node20</title>
<g id="a_edge37_Node000022_Node000020"><a xlink:title=" ">
<path fill="none" stroke="#63b8ff" d="M1011.59,-169.84C1013.82,-163.06 1016.87,-153.8 1019.61,-145.44"/>
<polygon fill="#63b8ff" stroke="#63b8ff" points="1022.91,-146.61 1022.71,-136.02 1016.26,-144.42 1022.91,-146.61"/>
</a>
</g>
</g>
<!-- Node23&#45;&gt;Node2 -->
<g id="edge39_Node000023_Node000002" class="edge">
<title>Node23&#45;&gt;Node2</title>
<g id="a_edge39_Node000023_Node000002"><a xlink:title=" ">
<path fill="none" stroke="#63b8ff" d="M909.34,-226.85C920.4,-200.25 951.81,-124.77 966.97,-88.32"/>
<polygon fill="#63b8ff" stroke="#63b8ff" points="970.09,-89.94 970.7,-79.36 963.63,-87.25 970.09,-89.94"/>
</a>
</g>
</g>
<!-- Node24&#45;&gt;Node3 -->
<g id="edge41_Node000024_Node000003" class="edge">
<title>Node24&#45;&gt;Node3</title>
<g id="a_edge41_Node000024_Node000003"><a xlink:title=" ">
<path fill="none" stroke="#63b8ff" d="M877.82,-283.39C877.33,-274.21 876.65,-260.05 876.38,-247.75 876.17,-238.53 875.21,-236.15 876.38,-227 881.75,-184.76 895,-176.49 900.38,-134.25 901.54,-125.1 905.6,-121.1 900.38,-113.5 867.62,-65.87 694.38,-31.04 616.43,-17.54"/>
<polygon fill="#63b8ff" stroke="#63b8ff" points="617.15,-14.11 606.7,-15.88 615.98,-21.01 617.15,-14.11"/>
</a>
</g>
</g>
<!-- Node24&#45;&gt;Node4 -->
<g id="edge42_Node000024_Node000004" class="edge">
<title>Node24&#45;&gt;Node4</title>
<g id="a_edge42_Node000024_Node000004"><a xlink:title=" ">
<path fill="none" stroke="#63b8ff" d="M891.1,-283.39C908.86,-270 942.27,-245.46 972.38,-227 1001.53,-209.13 1012.37,-210.63 1040.38,-191 1061.01,-176.53 1082.09,-156.8 1096.25,-142.66"/>
<polygon fill="#63b8ff" stroke="#63b8ff" points="1098.53,-145.34 1103.05,-135.76 1093.54,-140.43 1098.53,-145.34"/>
</a>
</g>
</g>
<!-- Node24&#45;&gt;Node25 -->
<g id="edge43_Node000024_Node000025" class="edge">
<title>Node24&#45;&gt;Node25</title>
<g id="a_edge43_Node000024_Node000025"><a xlink:title=" ">
<path fill="none" stroke="#63b8ff" d="M855.11,-284.69C831.16,-276 793.44,-262.33 765.19,-252.09"/>
<polygon fill="#63b8ff" stroke="#63b8ff" points="766.51,-248.84 755.92,-248.72 764.13,-255.42 766.51,-248.84"/>
</a>
</g>
</g>
<!-- Node25&#45;&gt;Node8 -->
<g id="edge45_Node000025_Node000008" class="edge">
<title>Node25&#45;&gt;Node8</title>
<g id="a_edge45_Node000025_Node000008"><a xlink:title=" ">
<path fill="none" stroke="#63b8ff" d="M700.39,-233.96C640.92,-228.46 493.92,-213.8 360.12,-191.14"/>
<polygon fill="#63b8ff" stroke="#63b8ff" points="360.81,-187.7 350.36,-189.46 359.63,-194.6 360.81,-187.7"/>
</a>
</g>
</g>
<!-- Node25&#45;&gt;Node11 -->
<g id="edge44_Node000025_Node000011" class="edge">
<title>Node25&#45;&gt;Node11</title>
<g id="a_edge44_Node000025_Node000011"><a xlink:title=" ">
<path fill="none" stroke="#63b8ff" d="M727.18,-226.81C726.47,-205.7 723.23,-153.81 708.38,-113.5 704.99,-104.32 699.63,-94.99 694.5,-87.19"/>
<polygon fill="#63b8ff" stroke="#63b8ff" points="697.53,-85.42 688.94,-79.21 691.78,-89.42 697.53,-85.42"/>
</a>
</g>
</g>
<!-- Node25&#45;&gt;Node15 -->
<g id="edge46_Node000025_Node000015" class="edge">
<title>Node25&#45;&gt;Node15</title>
<g id="a_edge46_Node000025_Node000015"><a xlink:title=" ">
<path fill="none" stroke="#63b8ff" d="M713.79,-226.59C702.76,-218.65 686.99,-207.28 674.05,-197.96"/>
<polygon fill="#63b8ff" stroke="#63b8ff" points="676.23,-195.22 666.07,-192.21 672.14,-200.9 676.23,-195.22"/>
</a>
</g>
</g>
<!-- Node25&#45;&gt;Node22 -->
<g id="edge48_Node000025_Node000022" class="edge">
<title>Node25&#45;&gt;Node22</title>
<g id="a_edge48_Node000025_Node000022"><a xlink:title=" ">
<path fill="none" stroke="#63b8ff" d="M754.57,-231.08C806.14,-221.03 917.99,-199.24 974.4,-188.25"/>
<polygon fill="#63b8ff" stroke="#63b8ff" points="974.92,-191.71 984.06,-186.36 973.58,-184.84 974.92,-191.71"/>
</a>
</g>
</g>
<!-- Node26 -->
<g id="Node000026" class="node">
<title>Node26</title>
<g id="a_Node000026"><a xlink:href="native__sched_8h.html" target="_top" xlink:title="Add definitions required on the native board.">
<polygon fill="white" stroke="#666666" points="845.12,-191 755.62,-191 755.62,-170.25 845.12,-170.25 845.12,-191"/>
<text text-anchor="middle" x="800.38" y="-177.5" font-family="Helvetica,sans-Serif" font-size="10.00">native_sched.h</text>
</a>
</g>
</g>
<!-- Node25&#45;&gt;Node26 -->
<g id="edge47_Node000025_Node000026" class="edge">
<title>Node25&#45;&gt;Node26</title>
<g id="a_edge47_Node000025_Node000026"><a xlink:title=" ">
<path fill="none" stroke="#63b8ff" d="M740.43,-226.59C751.01,-218.65 766.17,-207.28 778.59,-197.96"/>
<polygon fill="#63b8ff" stroke="#63b8ff" points="780.33,-201.04 786.23,-192.24 776.13,-195.44 780.33,-201.04"/>
</a>
</g>
</g>
<!-- Node27&#45;&gt;Node25 -->
<g id="edge52_Node000027_Node000025" class="edge">
<title>Node27&#45;&gt;Node25</title>
<g id="a_edge52_Node000027_Node000025"><a xlink:title=" ">
<path fill="none" stroke="#63b8ff" d="M957.18,-283.96C903.48,-273.31 815.83,-255.92 765.73,-245.98"/>
<polygon fill="#63b8ff" stroke="#63b8ff" points="766.41,-242.55 755.92,-244.04 765.05,-249.42 766.41,-242.55"/>
</a>
</g>
</g>
<!-- Node28 -->
<g id="Node000028" class="node">
<title>Node28</title>
<g id="a_Node000028"><a xlink:title=" ">
<polygon fill="#e0e0e0" stroke="#999999" points="1049.25,-247.75 981.5,-247.75 981.5,-227 1049.25,-227 1049.25,-247.75"/>
<text text-anchor="middle" x="1015.38" y="-234.25" font-family="Helvetica,sans-Serif" font-size="10.00">cpu_conf.h</text>
</a>
</g>
</g>
<!-- Node27&#45;&gt;Node28 -->
<g id="edge51_Node000027_Node000028" class="edge">
<title>Node27&#45;&gt;Node28</title>
<g id="a_edge51_Node000027_Node000028"><a xlink:title=" ">
<path fill="none" stroke="#63b8ff" d="M1005.52,-283.34C1006.99,-276.64 1008.99,-267.51 1010.8,-259.23"/>
<polygon fill="#63b8ff" stroke="#63b8ff" points="1014.2,-260.07 1012.92,-249.56 1007.36,-258.58 1014.2,-260.07"/>
</a>
</g>
</g>
<!-- Node30&#45;&gt;Node3 -->
<g id="edge56_Node000030_Node000003" class="edge">
<title>Node30&#45;&gt;Node3</title>
<g id="a_edge56_Node000030_Node000003"><a xlink:title=" ">
<path fill="none" stroke="#63b8ff" d="M622.92,-520.02C515.73,-518.88 142.38,-507.8 142.38,-408.62 142.38,-408.62 142.38,-408.62 142.38,-122.88 142.38,-82.28 169.1,-74.96 205.38,-56.75 263.51,-27.56 457.45,-16.31 540.31,-12.77"/>
<polygon fill="#63b8ff" stroke="#63b8ff" points="540.34,-16.27 550.19,-12.36 540.06,-9.27 540.34,-16.27"/>
</a>
</g>
</g>
<!-- Node30&#45;&gt;Node10 -->
<g id="edge59_Node000030_Node000010" class="edge">
<title>Node30&#45;&gt;Node10</title>
<g id="a_edge59_Node000030_Node000010"><a xlink:title=" ">
<path fill="none" stroke="#63b8ff" d="M646.6,-510.62C637.51,-492.52 617.55,-452.78 605.41,-428.6"/>
<polygon fill="#63b8ff" stroke="#63b8ff" points="608.59,-427.14 600.98,-419.78 602.34,-430.28 608.59,-427.14"/>
</a>
</g>
</g>
<!-- Node30&#45;&gt;Node25 -->
<g id="edge57_Node000030_Node000025" class="edge">
<title>Node30&#45;&gt;Node25</title>
<g id="a_edge57_Node000030_Node000025"><a xlink:title=" ">
<path fill="none" stroke="#63b8ff" d="M651.38,-510.28C651.38,-490.85 651.38,-446.18 651.38,-408.62 651.38,-408.62 651.38,-408.62 651.38,-349.88 651.38,-318.61 657.7,-309.54 675.38,-283.75 682.97,-272.66 693.89,-262.58 703.77,-254.75"/>
<polygon fill="#63b8ff" stroke="#63b8ff" points="705.68,-257.7 711.56,-248.89 701.47,-252.1 705.68,-257.7"/>
</a>
</g>
</g>
<!-- Node31 -->
<g id="Node000031" class="node">
<title>Node31</title>
<g id="a_Node000031"><a xlink:title=" ">
<polygon fill="#e0e0e0" stroke="#999999" points="896.38,-474.75 850.38,-474.75 850.38,-454 896.38,-454 896.38,-474.75"/>
<text text-anchor="middle" x="873.38" y="-461.25" font-family="Helvetica,sans-Serif" font-size="10.00">msg.h</text>
</a>
</g>
</g>
<!-- Node30&#45;&gt;Node31 -->
<g id="edge58_Node000030_Node000031" class="edge">
<title>Node30&#45;&gt;Node31</title>
<g id="a_edge58_Node000030_Node000031"><a xlink:title=" ">
<path fill="none" stroke="#63b8ff" d="M679.94,-513.08C720.69,-503.03 795.37,-484.61 839.06,-473.84"/>
<polygon fill="#63b8ff" stroke="#63b8ff" points="839.64,-477.3 848.51,-471.51 837.97,-470.5 839.64,-477.3"/>
</a>
</g>
</g>
<!-- Node32 -->
<g id="Node000032" class="node">
<title>Node32</title>
<g id="a_Node000032"><a xlink:href="rmutex_8h.html" target="_top" xlink:title="Recursive Mutex for thread synchronization.">
<polygon fill="white" stroke="#666666" points="538.5,-474.75 478.25,-474.75 478.25,-454 538.5,-454 538.5,-474.75"/>
<text text-anchor="middle" x="508.38" y="-461.25" font-family="Helvetica,sans-Serif" font-size="10.00">rmutex.h</text>
</a>
</g>
</g>
<!-- Node30&#45;&gt;Node32 -->
<g id="edge60_Node000030_Node000032" class="edge">
<title>Node30&#45;&gt;Node32</title>
<g id="a_edge60_Node000030_Node000032"><a xlink:title=" ">
<path fill="none" stroke="#63b8ff" d="M625.81,-510.34C603.14,-501.66 569.78,-488.88 544.4,-479.17"/>
<polygon fill="#63b8ff" stroke="#63b8ff" points="545.72,-475.93 535.13,-475.62 543.22,-482.46 545.72,-475.93"/>
</a>
</g>
</g>
<!-- Node32&#45;&gt;Node3 -->
<g id="edge61_Node000032_Node000003" class="edge">
<title>Node32&#45;&gt;Node3</title>
<g id="a_edge61_Node000032_Node000003"><a xlink:title=" ">
<path fill="none" stroke="#63b8ff" d="M477.81,-459.64C396.39,-448.86 180.38,-414.35 180.38,-351.88 180.38,-351.88 180.38,-351.88 180.38,-122.88 180.38,-77.09 217.55,-75.38 259.38,-56.75 308.99,-34.65 466.89,-19.97 540.24,-14.17"/>
<polygon fill="#63b8ff" stroke="#63b8ff" points="540.47,-17.66 550.16,-13.4 539.92,-10.68 540.47,-17.66"/>
</a>
</g>
</g>
<!-- Node32&#45;&gt;Node10 -->
<g id="edge62_Node000032_Node000010" class="edge">
<title>Node32&#45;&gt;Node10</title>
<g id="a_edge62_Node000032_Node000010"><a xlink:title=" ">
<path fill="none" stroke="#63b8ff" d="M523.93,-453.59C536.8,-445.49 555.32,-433.83 570.28,-424.42"/>
<polygon fill="#63b8ff" stroke="#63b8ff" points="572.08,-427.42 578.67,-419.13 568.35,-421.5 572.08,-427.42"/>
</a>
</g>
</g>
<!-- Node32&#45;&gt;Node25 -->
<g id="edge63_Node000032_Node000025" class="edge">
<title>Node32&#45;&gt;Node25</title>
<g id="a_edge63_Node000032_Node000025"><a xlink:title=" ">
<path fill="none" stroke="#63b8ff" d="M513.22,-453.56C528.1,-424.29 575.81,-336.4 637.38,-283.75 652.79,-270.56 672.71,-260.02 689.88,-252.42"/>
<polygon fill="#63b8ff" stroke="#63b8ff" points="690.91,-255.78 698.76,-248.66 688.19,-249.34 690.91,-255.78"/>
</a>
</g>
</g>
<!-- Node33&#45;&gt;Node3 -->
<g id="edge65_Node000033_Node000003" class="edge">
<title>Node33&#45;&gt;Node3</title>
<g id="a_edge65_Node000033_Node000003"><a xlink:title=" ">
<path fill="none" stroke="#63b8ff" d="M1072.98,-570.48C1122.95,-559.02 1209.38,-529.88 1209.38,-465.38 1209.38,-465.38 1209.38,-465.38 1209.38,-406.62 1209.38,-273.99 1260.88,-191.18 1153.38,-113.5 1098.62,-73.94 1077.94,-73.03 1012.38,-56.75 869.3,-21.22 692.98,-13.49 616.62,-11.82"/>
<polygon fill="#63b8ff" stroke="#63b8ff" points="616.82,-8.33 606.75,-11.63 616.68,-15.32 616.82,-8.33"/>
</a>
</g>
</g>
<!-- Node33&#45;&gt;Node10 -->
<g id="edge69_Node000033_Node000010" class="edge">
<title>Node33&#45;&gt;Node10</title>
<g id="a_edge69_Node000033_Node000010"><a xlink:title=" ">
<path fill="none" stroke="#63b8ff" d="M1031.35,-567.05C1013.5,-542.92 963.63,-480.82 905.38,-454 857.99,-432.18 707.57,-417.58 635.12,-411.64"/>
<polygon fill="#63b8ff" stroke="#63b8ff" points="635.54,-408.16 625.29,-410.85 634.97,-415.14 635.54,-408.16"/>
</a>
</g>
</g>
<!-- Node33&#45;&gt;Node30 -->
<g id="edge71_Node000033_Node000030" class="edge">
<title>Node33&#45;&gt;Node30</title>
<g id="a_edge71_Node000033_Node000030"><a xlink:title=" ">
<path fill="none" stroke="#63b8ff" d="M1003.69,-571.97C931.78,-561.79 766.83,-538.46 690.93,-527.72"/>
<polygon fill="#63b8ff" stroke="#63b8ff" points="691.86,-524.32 681.46,-526.38 690.88,-531.25 691.86,-524.32"/>
</a>
</g>
</g>
<!-- Node33&#45;&gt;Node31 -->
<g id="edge70_Node000033_Node000031" class="edge">
<title>Node33&#45;&gt;Node31</title>
<g id="a_edge70_Node000033_Node000031"><a xlink:title=" ">
<path fill="none" stroke="#63b8ff" d="M1024.02,-567.18C995.62,-547.98 932,-504.99 897.21,-481.48"/>
<polygon fill="#63b8ff" stroke="#63b8ff" points="899.31,-478.68 889.07,-475.98 895.39,-484.48 899.31,-478.68"/>
</a>
</g>
</g>
<!-- Node34 -->
<g id="Node000034" class="node">
<title>Node34</title>
<g id="a_Node000034"><a xlink:href="irq_8h.html" target="_top" xlink:title="IRQ driver interface.">
<polygon fill="white" stroke="#666666" points="1181.25,-304.5 1143.5,-304.5 1143.5,-283.75 1181.25,-283.75 1181.25,-304.5"/>
<text text-anchor="middle" x="1162.38" y="-291" font-family="Helvetica,sans-Serif" font-size="10.00">irq.h</text>
</a>
</g>
</g>
<!-- Node33&#45;&gt;Node34 -->
<g id="edge66_Node000033_Node000034" class="edge">
<title>Node33&#45;&gt;Node34</title>
<g id="a_edge66_Node000033_Node000034"><a xlink:title=" ">
<path fill="none" stroke="#63b8ff" d="M1042.64,-567.18C1060.46,-526.71 1129.07,-370.81 1153.59,-315.08"/>
<polygon fill="#63b8ff" stroke="#63b8ff" points="1156.69,-316.73 1157.51,-306.17 1150.28,-313.91 1156.69,-316.73"/>
</a>
</g>
</g>
<!-- Node34&#45;&gt;Node4 -->
<g id="edge67_Node000034_Node000004" class="edge">
<title>Node34&#45;&gt;Node4</title>
<g id="a_edge67_Node000034_Node000004"><a xlink:title=" ">
<path fill="none" stroke="#63b8ff" d="M1159.72,-283.55C1153.97,-262.83 1139.87,-212.35 1127.38,-170.25 1124.97,-162.16 1122.26,-153.28 1119.86,-145.54"/>
<polygon fill="#63b8ff" stroke="#63b8ff" points="1123.21,-144.54 1116.89,-136.04 1116.53,-146.63 1123.21,-144.54"/>
</a>
</g>
</g>
<!-- Node34&#45;&gt;Node28 -->
<g id="edge68_Node000034_Node000028" class="edge">
<title>Node34&#45;&gt;Node28</title>
<g id="a_edge68_Node000034_Node000028"><a xlink:title=" ">
<path fill="none" stroke="#63b8ff" d="M1143.16,-285.97C1120.18,-277.41 1081.2,-262.89 1052.33,-252.14"/>
<polygon fill="#63b8ff" stroke="#63b8ff" points="1053.82,-248.96 1043.23,-248.75 1051.37,-255.52 1053.82,-248.96"/>
</a>
</g>
</g>
</g>
</svg>
