<?xml version="1.0" encoding="UTF-8" standalone="no"?>
<!DOCTYPE svg PUBLIC "-//W3C//DTD SVG 1.1//EN"
 "http://www.w3.org/Graphics/SVG/1.1/DTD/svg11.dtd">
<!-- Generated by graphviz version 12.1.1 (0)
 -->
<!-- Title: sys/include/ztimer/periodic.h Pages: 1 -->
<svg width="1098pt" height="609pt"
 viewBox="0.00 0.00 1098.00 609.00" xmlns="http://www.w3.org/2000/svg" xmlns:xlink="http://www.w3.org/1999/xlink">
<g id="graph0" class="graph" transform="scale(1 1) rotate(0) translate(4 605)">
<title>sys/include/ztimer/periodic.h</title>
<!-- Node1 -->
<g id="Node000001" class="node">
<title>Node1</title>
<g id="a_Node000001"><a xlink:title="Periodic ztimer API.">
<polygon fill="#999999" stroke="#666666" points="1066.62,-601 961.38,-601 961.38,-567.5 1066.62,-567.5 1066.62,-601"/>
<text text-anchor="start" x="969.38" y="-587.5" font-family="Helvetica,sans-Serif" font-size="10.00">sys/include/ztimer</text>
<text text-anchor="middle" x="1014" y="-574.75" font-family="Helvetica,sans-Serif" font-size="10.00">/periodic.h</text>
</a>
</g>
</g>
<!-- Node2 -->
<g id="Node000002" class="node">
<title>Node2</title>
<g id="a_Node000002"><a xlink:title=" ">
<polygon fill="#e0e0e0" stroke="#999999" points="998.5,-134.25 937.5,-134.25 937.5,-113.5 998.5,-113.5 998.5,-134.25"/>
<text text-anchor="middle" x="968" y="-120.75" font-family="Helvetica,sans-Serif" font-size="10.00">stdbool.h</text>
</a>
</g>
</g>
<!-- Node1&#45;&gt;Node2 -->
<g id="edge1_Node000001_Node000002" class="edge">
<title>Node1&#45;&gt;Node2</title>
<g id="a_edge1_Node000001_Node000002"><a xlink:title=" ">
<path fill="none" stroke="#63b8ff" d="M1014,-567.23C1014,-544.56 1014,-501.8 1014,-465.38 1014,-465.38 1014,-465.38 1014,-236.38 1014,-201.8 994.87,-165.45 981.28,-143.99"/>
<polygon fill="#63b8ff" stroke="#63b8ff" points="984.26,-142.14 975.82,-135.73 978.42,-146 984.26,-142.14"/>
</a>
</g>
</g>
<!-- Node3 -->
<g id="Node000003" class="node">
<title>Node3</title>
<g id="a_Node000003"><a xlink:title=" ">
<polygon fill="#e0e0e0" stroke="#999999" points="393.38,-20.75 340.62,-20.75 340.62,0 393.38,0 393.38,-20.75"/>
<text text-anchor="middle" x="367" y="-7.25" font-family="Helvetica,sans-Serif" font-size="10.00">stdint.h</text>
</a>
</g>
</g>
<!-- Node1&#45;&gt;Node3 -->
<g id="edge2_Node000001_Node000003" class="edge">
<title>Node1&#45;&gt;Node3</title>
<g id="a_edge2_Node000001_Node000003"><a xlink:title=" ">
<path fill="none" stroke="#63b8ff" d="M1033.18,-567.03C1055.69,-546.07 1090,-507.26 1090,-465.38 1090,-465.38 1090,-465.38 1090,-122.88 1090,-58.84 1023.6,-74.23 962,-56.75 856.6,-26.84 519.19,-15.38 405.11,-12.3"/>
<polygon fill="#63b8ff" stroke="#63b8ff" points="405.46,-8.81 395.37,-12.04 405.27,-15.81 405.46,-8.81"/>
</a>
</g>
</g>
<!-- Node4 -->
<g id="Node000004" class="node">
<title>Node4</title>
<g id="a_Node000004"><a xlink:href="ztimer_8h.html" target="_top" xlink:title="ztimer API">
<polygon fill="white" stroke="#666666" points="839.25,-531.5 782.75,-531.5 782.75,-510.75 839.25,-510.75 839.25,-531.5"/>
<text text-anchor="middle" x="811" y="-518" font-family="Helvetica,sans-Serif" font-size="10.00">ztimer.h</text>
</a>
</g>
</g>
<!-- Node1&#45;&gt;Node4 -->
<g id="edge3_Node000001_Node000004" class="edge">
<title>Node1&#45;&gt;Node4</title>
<g id="a_edge3_Node000001_Node000004"><a xlink:title=" ">
<path fill="none" stroke="#63b8ff" d="M960.93,-567.27C926.4,-556.87 882.11,-543.54 850.64,-534.06"/>
<polygon fill="#63b8ff" stroke="#63b8ff" points="851.7,-530.73 841.12,-531.19 849.69,-537.43 851.7,-530.73"/>
</a>
</g>
</g>
<!-- Node4&#45;&gt;Node3 -->
<g id="edge4_Node000004_Node000003" class="edge">
<title>Node4&#45;&gt;Node3</title>
<g id="a_edge4_Node000004_Node000003"><a xlink:title=" ">
<path fill="none" stroke="#63b8ff" d="M782.61,-519.28C639.07,-514.62 0,-489.37 0,-408.62 0,-408.62 0,-408.62 0,-122.88 0,-76.06 39.22,-75.77 82,-56.75 164.71,-19.99 272.61,-12.51 328.96,-11.3"/>
<polygon fill="#63b8ff" stroke="#63b8ff" points="328.72,-14.8 338.66,-11.15 328.61,-7.8 328.72,-14.8"/>
</a>
</g>
</g>
<!-- Node5 -->
<g id="Node000005" class="node">
<title>Node5</title>
<g id="a_Node000005"><a xlink:href="sched_8h.html" target="_top" xlink:title="Scheduler API definition.">
<polygon fill="white" stroke="#666666" points="788.75,-247.75 735.25,-247.75 735.25,-227 788.75,-227 788.75,-247.75"/>
<text text-anchor="middle" x="762" y="-234.25" font-family="Helvetica,sans-Serif" font-size="10.00">sched.h</text>
</a>
</g>
</g>
<!-- Node4&#45;&gt;Node5 -->
<g id="edge5_Node000004_Node000005" class="edge">
<title>Node4&#45;&gt;Node5</title>
<g id="a_edge5_Node000004_Node000005"><a xlink:title=" ">
<path fill="none" stroke="#63b8ff" d="M814.69,-510.44C821.64,-491.3 836,-447.11 836,-408.62 836,-408.62 836,-408.62 836,-349.88 836,-319.3 833.77,-309.32 817,-283.75 809.46,-272.26 798.12,-262.2 787.69,-254.49"/>
<polygon fill="#63b8ff" stroke="#63b8ff" points="789.95,-251.8 779.74,-248.97 785.96,-257.55 789.95,-251.8"/>
</a>
</g>
</g>
<!-- Node17 -->
<g id="Node000017" class="node">
<title>Node17</title>
<g id="a_Node000017"><a xlink:title=" ">
<polygon fill="#e0e0e0" stroke="#999999" points="808,-474.75 762,-474.75 762,-454 808,-454 808,-474.75"/>
<text text-anchor="middle" x="785" y="-461.25" font-family="Helvetica,sans-Serif" font-size="10.00">msg.h</text>
</a>
</g>
</g>
<!-- Node4&#45;&gt;Node17 -->
<g id="edge24_Node000004_Node000017" class="edge">
<title>Node4&#45;&gt;Node17</title>
<g id="a_edge24_Node000004_Node000017"><a xlink:title=" ">
<path fill="none" stroke="#63b8ff" d="M806.35,-510.34C803.06,-503.41 798.53,-493.87 794.49,-485.36"/>
<polygon fill="#63b8ff" stroke="#63b8ff" points="797.71,-483.98 790.26,-476.45 791.39,-486.98 797.71,-483.98"/>
</a>
</g>
</g>
<!-- Node18 -->
<g id="Node000018" class="node">
<title>Node18</title>
<g id="a_Node000018"><a xlink:href="mutex_8h.html" target="_top" xlink:title="Mutex for thread synchronization.">
<polygon fill="white" stroke="#666666" points="540.25,-418 483.75,-418 483.75,-397.25 540.25,-397.25 540.25,-418"/>
<text text-anchor="middle" x="512" y="-404.5" font-family="Helvetica,sans-Serif" font-size="10.00">mutex.h</text>
</a>
</g>
</g>
<!-- Node4&#45;&gt;Node18 -->
<g id="edge25_Node000004_Node000018" class="edge">
<title>Node4&#45;&gt;Node18</title>
<g id="a_edge25_Node000004_Node000018"><a xlink:title=" ">
<path fill="none" stroke="#63b8ff" d="M784.73,-510.33C731.33,-490.42 610.03,-445.18 548.81,-422.35"/>
<polygon fill="#63b8ff" stroke="#63b8ff" points="550.12,-419.1 539.52,-418.89 547.67,-425.66 550.12,-419.1"/>
</a>
</g>
</g>
<!-- Node28 -->
<g id="Node000028" class="node">
<title>Node28</title>
<g id="a_Node000028"><a xlink:href="rmutex_8h.html" target="_top" xlink:title="Recursive Mutex for thread synchronization.">
<polygon fill="white" stroke="#666666" points="924.12,-474.75 863.88,-474.75 863.88,-454 924.12,-454 924.12,-474.75"/>
<text text-anchor="middle" x="894" y="-461.25" font-family="Helvetica,sans-Serif" font-size="10.00">rmutex.h</text>
</a>
</g>
</g>
<!-- Node4&#45;&gt;Node28 -->
<g id="edge49_Node000004_Node000028" class="edge">
<title>Node4&#45;&gt;Node28</title>
<g id="a_edge49_Node000004_Node000028"><a xlink:title=" ">
<path fill="none" stroke="#63b8ff" d="M825.84,-510.34C838.11,-502.24 855.79,-490.58 870.06,-481.17"/>
<polygon fill="#63b8ff" stroke="#63b8ff" points="871.61,-484.34 878.03,-475.91 867.75,-478.5 871.61,-484.34"/>
</a>
</g>
</g>
<!-- Node6 -->
<g id="Node000006" class="node">
<title>Node6</title>
<g id="a_Node000006"><a xlink:title=" ">
<polygon fill="#e0e0e0" stroke="#999999" points="695.5,-77.5 640.5,-77.5 640.5,-56.75 695.5,-56.75 695.5,-77.5"/>
<text text-anchor="middle" x="668" y="-64" font-family="Helvetica,sans-Serif" font-size="10.00">stddef.h</text>
</a>
</g>
</g>
<!-- Node5&#45;&gt;Node6 -->
<g id="edge6_Node000005_Node000006" class="edge">
<title>Node5&#45;&gt;Node6</title>
<g id="a_edge6_Node000005_Node000006"><a xlink:title=" ">
<path fill="none" stroke="#63b8ff" d="M759.61,-226.82C753.93,-205.3 738.19,-151.91 713,-113.5 706.23,-103.17 696.84,-93.24 688.38,-85.32"/>
<polygon fill="#63b8ff" stroke="#63b8ff" points="690.97,-82.94 681.19,-78.87 686.3,-88.16 690.97,-82.94"/>
</a>
</g>
</g>
<!-- Node7 -->
<g id="Node000007" class="node">
<title>Node7</title>
<g id="a_Node000007"><a xlink:href="inttypes_8h.html" target="_top" xlink:title="Adds include for missing inttype definitions.">
<polygon fill="white" stroke="#666666" points="404.38,-191 339.62,-191 339.62,-170.25 404.38,-170.25 404.38,-191"/>
<text text-anchor="middle" x="372" y="-177.5" font-family="Helvetica,sans-Serif" font-size="10.00">inttypes.h</text>
</a>
</g>
</g>
<!-- Node5&#45;&gt;Node7 -->
<g id="edge7_Node000005_Node000007" class="edge">
<title>Node5&#45;&gt;Node7</title>
<g id="a_edge7_Node000005_Node000007"><a xlink:title=" ">
<path fill="none" stroke="#63b8ff" d="M734.96,-228.9C731.95,-228.2 728.92,-227.55 726,-227 592.27,-202 553.59,-213.61 415.49,-191.06"/>
<polygon fill="#63b8ff" stroke="#63b8ff" points="416.43,-187.67 405.99,-189.48 415.27,-194.58 416.43,-187.67"/>
</a>
</g>
</g>
<!-- Node8 -->
<g id="Node000008" class="node">
<title>Node8</title>
<g id="a_Node000008"><a xlink:href="kernel__defines_8h.html" target="_top" xlink:title="Common macros and compiler attributes/pragmas configuration.">
<polygon fill="white" stroke="#666666" points="519.12,-191 422.88,-191 422.88,-170.25 519.12,-170.25 519.12,-191"/>
<text text-anchor="middle" x="471" y="-177.5" font-family="Helvetica,sans-Serif" font-size="10.00">kernel_defines.h</text>
</a>
</g>
</g>
<!-- Node5&#45;&gt;Node8 -->
<g id="edge8_Node000005_Node000008" class="edge">
<title>Node5&#45;&gt;Node8</title>
<g id="a_edge8_Node000005_Node000008"><a xlink:title=" ">
<path fill="none" stroke="#63b8ff" d="M734.93,-229.08C731.92,-228.34 728.9,-227.64 726,-227 659.43,-212.43 582.32,-199.21 530.47,-190.85"/>
<polygon fill="#63b8ff" stroke="#63b8ff" points="531.08,-187.4 520.65,-189.28 529.98,-194.31 531.08,-187.4"/>
</a>
</g>
</g>
<!-- Node14 -->
<g id="Node000014" class="node">
<title>Node14</title>
<g id="a_Node000014"><a xlink:href="native__sched_8h.html" target="_top" xlink:title="Add definitions required on the native board.">
<polygon fill="white" stroke="#666666" points="871.75,-191 782.25,-191 782.25,-170.25 871.75,-170.25 871.75,-191"/>
<text text-anchor="middle" x="827" y="-177.5" font-family="Helvetica,sans-Serif" font-size="10.00">native_sched.h</text>
</a>
</g>
</g>
<!-- Node5&#45;&gt;Node14 -->
<g id="edge19_Node000005_Node000014" class="edge">
<title>Node5&#45;&gt;Node14</title>
<g id="a_edge19_Node000005_Node000014"><a xlink:title=" ">
<path fill="none" stroke="#63b8ff" d="M773.62,-226.59C782.86,-218.8 796.01,-207.72 806.95,-198.51"/>
<polygon fill="#63b8ff" stroke="#63b8ff" points="808.93,-201.42 814.32,-192.3 804.42,-196.07 808.93,-201.42"/>
</a>
</g>
</g>
<!-- Node15 -->
<g id="Node000015" class="node">
<title>Node15</title>
<g id="a_Node000015"><a xlink:href="clist_8h.html" target="_top" xlink:title="Circular linked list.">
<polygon fill="white" stroke="#666666" points="725.62,-191 680.38,-191 680.38,-170.25 725.62,-170.25 725.62,-191"/>
<text text-anchor="middle" x="703" y="-177.5" font-family="Helvetica,sans-Serif" font-size="10.00">clist.h</text>
</a>
</g>
</g>
<!-- Node5&#45;&gt;Node15 -->
<g id="edge20_Node000005_Node000015" class="edge">
<title>Node5&#45;&gt;Node15</title>
<g id="a_edge20_Node000005_Node000015"><a xlink:title=" ">
<path fill="none" stroke="#63b8ff" d="M751.45,-226.59C743.23,-218.96 731.6,-208.17 721.8,-199.07"/>
<polygon fill="#63b8ff" stroke="#63b8ff" points="724.28,-196.59 714.57,-192.36 719.52,-201.73 724.28,-196.59"/>
</a>
</g>
</g>
<!-- Node9 -->
<g id="Node000009" class="node">
<title>Node9</title>
<g id="a_Node000009"><a xlink:href="modules_8h.html" target="_top" xlink:title="Common macros and compiler attributes/pragmas configuration.">
<polygon fill="white" stroke="#666666" points="591.5,-134.25 524.5,-134.25 524.5,-113.5 591.5,-113.5 591.5,-134.25"/>
<text text-anchor="middle" x="558" y="-120.75" font-family="Helvetica,sans-Serif" font-size="10.00">modules.h</text>
</a>
</g>
</g>
<!-- Node8&#45;&gt;Node9 -->
<g id="edge9_Node000008_Node000009" class="edge">
<title>Node8&#45;&gt;Node9</title>
<g id="a_edge9_Node000008_Node000009"><a xlink:title=" ">
<path fill="none" stroke="#63b8ff" d="M486.55,-169.84C499.42,-161.74 517.94,-150.08 532.91,-140.67"/>
<polygon fill="#63b8ff" stroke="#63b8ff" points="534.7,-143.67 541.3,-135.38 530.97,-137.75 534.7,-143.67"/>
</a>
</g>
</g>
<!-- Node10 -->
<g id="Node000010" class="node">
<title>Node10</title>
<g id="a_Node000010"><a xlink:href="riot__version_8h.html" target="_top" xlink:title="Common macros and compiler attributes/pragmas configuration.">
<polygon fill="white" stroke="#666666" points="443.38,-77.5 360.62,-77.5 360.62,-56.75 443.38,-56.75 443.38,-77.5"/>
<text text-anchor="middle" x="402" y="-64" font-family="Helvetica,sans-Serif" font-size="10.00">riot_version.h</text>
</a>
</g>
</g>
<!-- Node8&#45;&gt;Node10 -->
<g id="edge10_Node000008_Node000010" class="edge">
<title>Node8&#45;&gt;Node10</title>
<g id="a_edge10_Node000008_Node000010"><a xlink:title=" ">
<path fill="none" stroke="#63b8ff" d="M459.15,-169.88C449.41,-161.34 435.82,-148.15 427,-134.25 418.03,-120.13 411.53,-102.3 407.41,-88.72"/>
<polygon fill="#63b8ff" stroke="#63b8ff" points="410.78,-87.79 404.7,-79.12 404.05,-89.7 410.78,-87.79"/>
</a>
</g>
</g>
<!-- Node11 -->
<g id="Node000011" class="node">
<title>Node11</title>
<g id="a_Node000011"><a xlink:href="compiler__hints_8h.html" target="_top" xlink:title="Common macros and compiler attributes/pragmas configuration.">
<polygon fill="white" stroke="#666666" points="379.5,-134.25 282.5,-134.25 282.5,-113.5 379.5,-113.5 379.5,-134.25"/>
<text text-anchor="middle" x="331" y="-120.75" font-family="Helvetica,sans-Serif" font-size="10.00">compiler_hints.h</text>
</a>
</g>
</g>
<!-- Node8&#45;&gt;Node11 -->
<g id="edge12_Node000008_Node000011" class="edge">
<title>Node8&#45;&gt;Node11</title>
<g id="a_edge12_Node000008_Node000011"><a xlink:title=" ">
<path fill="none" stroke="#63b8ff" d="M445.97,-169.84C423.77,-161.16 391.11,-148.38 366.27,-138.67"/>
<polygon fill="#63b8ff" stroke="#63b8ff" points="367.81,-135.51 357.22,-135.13 365.26,-142.03 367.81,-135.51"/>
</a>
</g>
</g>
<!-- Node13 -->
<g id="Node000013" class="node">
<title>Node13</title>
<g id="a_Node000013"><a xlink:href="container_8h.html" target="_top" xlink:title="Common macros and compiler attributes/pragmas configuration.">
<polygon fill="white" stroke="#666666" points="506.38,-134.25 435.62,-134.25 435.62,-113.5 506.38,-113.5 506.38,-134.25"/>
<text text-anchor="middle" x="471" y="-120.75" font-family="Helvetica,sans-Serif" font-size="10.00">container.h</text>
</a>
</g>
</g>
<!-- Node8&#45;&gt;Node13 -->
<g id="edge16_Node000008_Node000013" class="edge">
<title>Node8&#45;&gt;Node13</title>
<g id="a_edge16_Node000008_Node000013"><a xlink:title=" ">
<path fill="none" stroke="#63b8ff" d="M471,-169.84C471,-163.22 471,-154.22 471,-146.02"/>
<polygon fill="#63b8ff" stroke="#63b8ff" points="474.5,-146.09 471,-136.09 467.5,-146.09 474.5,-146.09"/>
</a>
</g>
</g>
<!-- Node10&#45;&gt;Node3 -->
<g id="edge11_Node000010_Node000003" class="edge">
<title>Node10&#45;&gt;Node3</title>
<g id="a_edge11_Node000010_Node000003"><a xlink:title=" ">
<path fill="none" stroke="#63b8ff" d="M395.74,-56.34C391.16,-49.17 384.8,-39.23 379.23,-30.51"/>
<polygon fill="#63b8ff" stroke="#63b8ff" points="382.35,-28.89 374.02,-22.35 376.46,-32.66 382.35,-28.89"/>
</a>
</g>
</g>
<!-- Node11&#45;&gt;Node3 -->
<g id="edge15_Node000011_Node000003" class="edge">
<title>Node11&#45;&gt;Node3</title>
<g id="a_edge15_Node000011_Node000003"><a xlink:title=" ">
<path fill="none" stroke="#63b8ff" d="M334.09,-113C338.16,-100.07 345.54,-76.69 352,-56.75 354.65,-48.57 357.61,-39.58 360.2,-31.78"/>
<polygon fill="#63b8ff" stroke="#63b8ff" points="363.44,-33.13 363.27,-22.54 356.79,-30.92 363.44,-33.13"/>
</a>
</g>
</g>
<!-- Node12 -->
<g id="Node000012" class="node">
<title>Node12</title>
<g id="a_Node000012"><a xlink:href="assert_8h.html" target="_top" xlink:title="POSIX.1&#45;2008 compliant version of the assert macro.">
<polygon fill="white" stroke="#666666" points="304.5,-77.5 249.5,-77.5 249.5,-56.75 304.5,-56.75 304.5,-77.5"/>
<text text-anchor="middle" x="277" y="-64" font-family="Helvetica,sans-Serif" font-size="10.00">assert.h</text>
</a>
</g>
</g>
<!-- Node11&#45;&gt;Node12 -->
<g id="edge13_Node000011_Node000012" class="edge">
<title>Node11&#45;&gt;Node12</title>
<g id="a_edge13_Node000011_Node000012"><a xlink:title=" ">
<path fill="none" stroke="#63b8ff" d="M321.35,-113.09C313.9,-105.53 303.39,-94.89 294.48,-85.85"/>
<polygon fill="#63b8ff" stroke="#63b8ff" points="297.15,-83.57 287.63,-78.91 292.16,-88.48 297.15,-83.57"/>
</a>
</g>
</g>
<!-- Node12&#45;&gt;Node3 -->
<g id="edge14_Node000012_Node000003" class="edge">
<title>Node12&#45;&gt;Node3</title>
<g id="a_edge14_Node000012_Node000003"><a xlink:title=" ">
<path fill="none" stroke="#63b8ff" d="M293.09,-56.34C306.53,-48.16 325.93,-36.36 341.49,-26.9"/>
<polygon fill="#63b8ff" stroke="#63b8ff" points="343.03,-30.05 349.76,-21.87 339.39,-24.07 343.03,-30.05"/>
</a>
</g>
</g>
<!-- Node13&#45;&gt;Node3 -->
<g id="edge18_Node000013_Node000003" class="edge">
<title>Node13&#45;&gt;Node3</title>
<g id="a_edge18_Node000013_Node000003"><a xlink:title=" ">
<path fill="none" stroke="#63b8ff" d="M470.55,-113.27C469.42,-99.37 465.52,-73.47 452,-56.75 439.75,-41.6 421.04,-30.84 404.3,-23.62"/>
<polygon fill="#63b8ff" stroke="#63b8ff" points="405.66,-20.39 395.07,-19.93 403.06,-26.89 405.66,-20.39"/>
</a>
</g>
</g>
<!-- Node13&#45;&gt;Node6 -->
<g id="edge17_Node000013_Node000006" class="edge">
<title>Node13&#45;&gt;Node6</title>
<g id="a_edge17_Node000013_Node000006"><a xlink:title=" ">
<path fill="none" stroke="#63b8ff" d="M506.22,-113.09C540.77,-103.48 593.34,-88.87 629.11,-78.93"/>
<polygon fill="#63b8ff" stroke="#63b8ff" points="629.93,-82.34 638.63,-76.29 628.05,-75.59 629.93,-82.34"/>
</a>
</g>
</g>
<!-- Node15&#45;&gt;Node2 -->
<g id="edge21_Node000015_Node000002" class="edge">
<title>Node15&#45;&gt;Node2</title>
<g id="a_edge21_Node000015_Node000002"><a xlink:title=" ">
<path fill="none" stroke="#63b8ff" d="M726.05,-174.86C770.7,-165.64 869.55,-145.22 926.11,-133.53"/>
<polygon fill="#63b8ff" stroke="#63b8ff" points="926.6,-137 935.68,-131.55 925.18,-130.15 926.6,-137"/>
</a>
</g>
</g>
<!-- Node15&#45;&gt;Node6 -->
<g id="edge22_Node000015_Node000006" class="edge">
<title>Node15&#45;&gt;Node6</title>
<g id="a_edge22_Node000015_Node000006"><a xlink:title=" ">
<path fill="none" stroke="#63b8ff" d="M703.53,-169.91C703.94,-156.75 703.57,-132.7 697,-113.5 693.8,-104.15 688.3,-94.79 682.95,-87.02"/>
<polygon fill="#63b8ff" stroke="#63b8ff" points="685.84,-85.04 677.09,-79.07 680.2,-89.19 685.84,-85.04"/>
</a>
</g>
</g>
<!-- Node16 -->
<g id="Node000016" class="node">
<title>Node16</title>
<g id="a_Node000016"><a xlink:href="list_8h.html" target="_top" xlink:title="Intrusive linked list.">
<polygon fill="white" stroke="#666666" points="688,-134.25 648,-134.25 648,-113.5 688,-113.5 688,-134.25"/>
<text text-anchor="middle" x="668" y="-120.75" font-family="Helvetica,sans-Serif" font-size="10.00">list.h</text>
</a>
</g>
</g>
<!-- Node15&#45;&gt;Node16 -->
<g id="edge23_Node000015_Node000016" class="edge">
<title>Node15&#45;&gt;Node16</title>
<g id="a_edge23_Node000015_Node000016"><a xlink:title=" ">
<path fill="none" stroke="#63b8ff" d="M696.74,-169.84C692.16,-162.67 685.8,-152.73 680.23,-144.01"/>
<polygon fill="#63b8ff" stroke="#63b8ff" points="683.35,-142.39 675.02,-135.85 677.46,-146.16 683.35,-142.39"/>
</a>
</g>
</g>
<!-- Node18&#45;&gt;Node2 -->
<g id="edge28_Node000018_Node000002" class="edge">
<title>Node18&#45;&gt;Node2</title>
<g id="a_edge28_Node000018_Node000002"><a xlink:title=" ">
<path fill="none" stroke="#63b8ff" d="M540.51,-404.43C629.96,-396.9 902.35,-368.97 957,-304.5 995.48,-259.11 982.79,-181.83 973.77,-145.24"/>
<polygon fill="#63b8ff" stroke="#63b8ff" points="977.26,-144.73 971.32,-135.96 970.49,-146.52 977.26,-144.73"/>
</a>
</g>
</g>
<!-- Node18&#45;&gt;Node3 -->
<g id="edge27_Node000018_Node000003" class="edge">
<title>Node18&#45;&gt;Node3</title>
<g id="a_edge27_Node000018_Node000003"><a xlink:title=" ">
<path fill="none" stroke="#63b8ff" d="M483.42,-406.07C380.94,-403.3 38,-387.17 38,-295.12 38,-295.12 38,-295.12 38,-122.88 38,-62.04 242.36,-27.84 328.95,-16.08"/>
<polygon fill="#63b8ff" stroke="#63b8ff" points="329.4,-19.55 338.85,-14.76 328.48,-12.61 329.4,-19.55"/>
</a>
</g>
</g>
<!-- Node18&#45;&gt;Node6 -->
<g id="edge26_Node000018_Node000006" class="edge">
<title>Node18&#45;&gt;Node6</title>
<g id="a_edge26_Node000018_Node000006"><a xlink:title=" ">
<path fill="none" stroke="#63b8ff" d="M514.61,-397.07C518.26,-384.1 525.29,-360.25 533,-340.5 573.49,-236.78 585.35,-211.07 639,-113.5 643.82,-104.73 649.69,-95.36 654.87,-87.42"/>
<polygon fill="#63b8ff" stroke="#63b8ff" points="657.69,-89.51 660.32,-79.25 651.86,-85.63 657.69,-89.51"/>
</a>
</g>
</g>
<!-- Node18&#45;&gt;Node8 -->
<g id="edge34_Node000018_Node000008" class="edge">
<title>Node18&#45;&gt;Node8</title>
<g id="a_edge34_Node000018_Node000008"><a xlink:title=" ">
<path fill="none" stroke="#63b8ff" d="M494.44,-396.86C482.27,-389.01 467.04,-376.74 460,-361.25 435.71,-307.82 452.99,-236.08 463.91,-201.68"/>
<polygon fill="#63b8ff" stroke="#63b8ff" points="467.1,-203.18 466.95,-192.59 460.46,-200.96 467.1,-203.18"/>
</a>
</g>
</g>
<!-- Node18&#45;&gt;Node16 -->
<g id="edge35_Node000018_Node000016" class="edge">
<title>Node18&#45;&gt;Node16</title>
<g id="a_edge35_Node000018_Node000016"><a xlink:title=" ">
<path fill="none" stroke="#63b8ff" d="M517.25,-396.86C531.83,-369.79 574.06,-291.56 610,-227 626.06,-198.16 645,-164.95 656.76,-144.43"/>
<polygon fill="#63b8ff" stroke="#63b8ff" points="659.65,-146.43 661.59,-136.01 653.58,-142.95 659.65,-146.43"/>
</a>
</g>
</g>
<!-- Node19 -->
<g id="Node000019" class="node">
<title>Node19</title>
<g id="a_Node000019"><a xlink:href="architecture_8h.html" target="_top" xlink:title="Platform&#45;independent access to architecture details.">
<polygon fill="white" stroke="#666666" points="299.75,-247.75 216.25,-247.75 216.25,-227 299.75,-227 299.75,-247.75"/>
<text text-anchor="middle" x="258" y="-234.25" font-family="Helvetica,sans-Serif" font-size="10.00">architecture.h</text>
</a>
</g>
</g>
<!-- Node18&#45;&gt;Node19 -->
<g id="edge29_Node000018_Node000019" class="edge">
<title>Node18&#45;&gt;Node19</title>
<g id="a_edge29_Node000018_Node000019"><a xlink:title=" ">
<path fill="none" stroke="#63b8ff" d="M489.96,-396.84C471.37,-388.28 444.31,-375.08 422,-361.25 367.43,-327.42 308.3,-280.22 278.15,-255.32"/>
<polygon fill="#63b8ff" stroke="#63b8ff" points="280.52,-252.73 270.59,-249.03 276.04,-258.11 280.52,-252.73"/>
</a>
</g>
</g>
<!-- Node22 -->
<g id="Node000022" class="node">
<title>Node22</title>
<g id="a_Node000022"><a xlink:href="core_2include_2thread_8h.html" target="_top" xlink:title="Threading API.">
<polygon fill="white" stroke="#666666" points="616.25,-361.25 559.75,-361.25 559.75,-340.5 616.25,-340.5 616.25,-361.25"/>
<text text-anchor="middle" x="588" y="-347.75" font-family="Helvetica,sans-Serif" font-size="10.00">thread.h</text>
</a>
</g>
</g>
<!-- Node18&#45;&gt;Node22 -->
<g id="edge36_Node000018_Node000022" class="edge">
<title>Node18&#45;&gt;Node22</title>
<g id="a_edge36_Node000018_Node000022"><a xlink:title=" ">
<path fill="none" stroke="#63b8ff" d="M525.59,-396.84C536.61,-388.9 552.39,-377.53 565.32,-368.21"/>
<polygon fill="#63b8ff" stroke="#63b8ff" points="567.23,-371.15 573.3,-362.46 563.14,-365.47 567.23,-371.15"/>
</a>
</g>
</g>
<!-- Node19&#45;&gt;Node3 -->
<g id="edge30_Node000019_Node000003" class="edge">
<title>Node19&#45;&gt;Node3</title>
<g id="a_edge30_Node000019_Node000003"><a xlink:title=" ">
<path fill="none" stroke="#63b8ff" d="M216.13,-235.36C160.29,-232.14 71.06,-219.39 95,-170.25 140.1,-77.68 265.99,-35.34 329.44,-19.41"/>
<polygon fill="#63b8ff" stroke="#63b8ff" points="330.15,-22.84 339.05,-17.1 328.51,-16.04 330.15,-22.84"/>
</a>
</g>
</g>
<!-- Node19&#45;&gt;Node7 -->
<g id="edge31_Node000019_Node000007" class="edge">
<title>Node19&#45;&gt;Node7</title>
<g id="a_edge31_Node000019_Node000007"><a xlink:title=" ">
<path fill="none" stroke="#63b8ff" d="M278.38,-226.59C295.97,-218.14 321.63,-205.82 341.63,-196.21"/>
<polygon fill="#63b8ff" stroke="#63b8ff" points="342.93,-199.47 350.43,-191.98 339.9,-193.16 342.93,-199.47"/>
</a>
</g>
</g>
<!-- Node20 -->
<g id="Node000020" class="node">
<title>Node20</title>
<g id="a_Node000020"><a xlink:title=" ">
<polygon fill="#e0e0e0" stroke="#999999" points="284.38,-191 231.62,-191 231.62,-170.25 284.38,-170.25 284.38,-191"/>
<text text-anchor="middle" x="258" y="-177.5" font-family="Helvetica,sans-Serif" font-size="10.00">limits.h</text>
</a>
</g>
</g>
<!-- Node19&#45;&gt;Node20 -->
<g id="edge32_Node000019_Node000020" class="edge">
<title>Node19&#45;&gt;Node20</title>
<g id="a_edge32_Node000019_Node000020"><a xlink:title=" ">
<path fill="none" stroke="#63b8ff" d="M258,-226.59C258,-219.97 258,-210.97 258,-202.77"/>
<polygon fill="#63b8ff" stroke="#63b8ff" points="261.5,-202.84 258,-192.84 254.5,-202.84 261.5,-202.84"/>
</a>
</g>
</g>
<!-- Node21 -->
<g id="Node000021" class="node">
<title>Node21</title>
<g id="a_Node000021"><a xlink:title=" ">
<polygon fill="#e0e0e0" stroke="#999999" points="213.88,-191 104.12,-191 104.12,-170.25 213.88,-170.25 213.88,-191"/>
<text text-anchor="middle" x="159" y="-177.5" font-family="Helvetica,sans-Serif" font-size="10.00">architecture_arch.h</text>
</a>
</g>
</g>
<!-- Node19&#45;&gt;Node21 -->
<g id="edge33_Node000019_Node000021" class="edge">
<title>Node19&#45;&gt;Node21</title>
<g id="a_edge33_Node000019_Node000021"><a xlink:title=" ">
<path fill="none" stroke="#63b8ff" d="M240.3,-226.59C225.38,-218.33 203.77,-206.38 186.58,-196.88"/>
<polygon fill="#63b8ff" stroke="#63b8ff" points="188.32,-193.84 177.87,-192.06 184.93,-199.96 188.32,-193.84"/>
</a>
</g>
</g>
<!-- Node22&#45;&gt;Node5 -->
<g id="edge44_Node000022_Node000005" class="edge">
<title>Node22&#45;&gt;Node5</title>
<g id="a_edge44_Node000022_Node000005"><a xlink:title=" ">
<path fill="none" stroke="#63b8ff" d="M588,-340.36C588.53,-326.08 591.67,-299.16 607,-283.75 611.24,-279.49 679.41,-260.56 723.92,-248.54"/>
<polygon fill="#63b8ff" stroke="#63b8ff" points="724.74,-251.94 733.49,-245.96 722.92,-245.18 724.74,-251.94"/>
</a>
</g>
</g>
<!-- Node22&#45;&gt;Node15 -->
<g id="edge37_Node000022_Node000015" class="edge">
<title>Node22&#45;&gt;Node15</title>
<g id="a_edge37_Node000022_Node000015"><a xlink:title=" ">
<path fill="none" stroke="#63b8ff" d="M586.5,-340.04C584.91,-326.75 583.52,-302.54 591,-283.75 606.69,-244.34 647.03,-214.07 674.75,-197.05"/>
<polygon fill="#63b8ff" stroke="#63b8ff" points="676.2,-200.26 683.03,-192.16 672.64,-194.24 676.2,-200.26"/>
</a>
</g>
</g>
<!-- Node23 -->
<g id="Node000023" class="node">
<title>Node23</title>
<g id="a_Node000023"><a xlink:href="cib_8h.html" target="_top" xlink:title="Circular integer buffer interface.">
<polygon fill="white" stroke="#666666" points="384.62,-247.75 345.38,-247.75 345.38,-227 384.62,-227 384.62,-247.75"/>
<text text-anchor="middle" x="365" y="-234.25" font-family="Helvetica,sans-Serif" font-size="10.00">cib.h</text>
</a>
</g>
</g>
<!-- Node22&#45;&gt;Node23 -->
<g id="edge38_Node000022_Node000023" class="edge">
<title>Node22&#45;&gt;Node23</title>
<g id="a_edge38_Node000022_Node000023"><a xlink:title=" ">
<path fill="none" stroke="#63b8ff" d="M568.6,-340.18C529.47,-320.61 440.89,-276.32 394.53,-253.14"/>
<polygon fill="#63b8ff" stroke="#63b8ff" points="396.38,-250.15 385.87,-248.81 393.25,-256.41 396.38,-250.15"/>
</a>
</g>
</g>
<!-- Node24 -->
<g id="Node000024" class="node">
<title>Node24</title>
<g id="a_Node000024"><a xlink:href="core_2include_2msg_8h.html" target="_top" xlink:title="Messaging API for inter process communication.">
<polygon fill="white" stroke="#666666" points="948,-304.5 902,-304.5 902,-283.75 948,-283.75 948,-304.5"/>
<text text-anchor="middle" x="925" y="-291" font-family="Helvetica,sans-Serif" font-size="10.00">msg.h</text>
</a>
</g>
</g>
<!-- Node22&#45;&gt;Node24 -->
<g id="edge40_Node000022_Node000024" class="edge">
<title>Node22&#45;&gt;Node24</title>
<g id="a_edge40_Node000022_Node000024"><a xlink:title=" ">
<path fill="none" stroke="#63b8ff" d="M616.73,-345.21C678.6,-335.16 824.18,-311.51 890.72,-300.69"/>
<polygon fill="#63b8ff" stroke="#63b8ff" points="891.02,-304.19 900.33,-299.13 889.89,-297.28 891.02,-304.19"/>
</a>
</g>
</g>
<!-- Node25 -->
<g id="Node000025" class="node">
<title>Node25</title>
<g id="a_Node000025"><a xlink:href="thread__config_8h.html" target="_top" xlink:title="Thread configuration defines.">
<polygon fill="white" stroke="#666666" points="807.88,-304.5 716.12,-304.5 716.12,-283.75 807.88,-283.75 807.88,-304.5"/>
<text text-anchor="middle" x="762" y="-291" font-family="Helvetica,sans-Serif" font-size="10.00">thread_config.h</text>
</a>
</g>
</g>
<!-- Node22&#45;&gt;Node25 -->
<g id="edge45_Node000022_Node000025" class="edge">
<title>Node22&#45;&gt;Node25</title>
<g id="a_edge45_Node000022_Node000025"><a xlink:title=" ">
<path fill="none" stroke="#63b8ff" d="M616.73,-340.83C644.88,-331.98 688.09,-318.38 720.07,-308.32"/>
<polygon fill="#63b8ff" stroke="#63b8ff" points="720.94,-311.71 729.43,-305.37 718.84,-305.04 720.94,-311.71"/>
</a>
</g>
</g>
<!-- Node27 -->
<g id="Node000027" class="node">
<title>Node27</title>
<g id="a_Node000027"><a xlink:title=" ">
<polygon fill="#e0e0e0" stroke="#999999" points="698.38,-304.5 615.62,-304.5 615.62,-283.75 698.38,-283.75 698.38,-304.5"/>
<text text-anchor="middle" x="657" y="-291" font-family="Helvetica,sans-Serif" font-size="10.00">thread_arch.h</text>
</a>
</g>
</g>
<!-- Node22&#45;&gt;Node27 -->
<g id="edge48_Node000022_Node000027" class="edge">
<title>Node22&#45;&gt;Node27</title>
<g id="a_edge48_Node000022_Node000027"><a xlink:title=" ">
<path fill="none" stroke="#63b8ff" d="M600.34,-340.09C610.25,-332.22 624.39,-321 636.06,-311.74"/>
<polygon fill="#63b8ff" stroke="#63b8ff" points="637.93,-314.73 643.59,-305.77 633.58,-309.24 637.93,-314.73"/>
</a>
</g>
</g>
<!-- Node23&#45;&gt;Node12 -->
<g id="edge39_Node000023_Node000012" class="edge">
<title>Node23&#45;&gt;Node12</title>
<g id="a_edge39_Node000023_Node000012"><a xlink:title=" ">
<path fill="none" stroke="#63b8ff" d="M351.49,-226.64C330.2,-210.36 289.64,-175.31 274,-134.25 268.49,-119.78 269.61,-102.22 271.91,-88.84"/>
<polygon fill="#63b8ff" stroke="#63b8ff" points="275.26,-89.91 273.88,-79.41 268.41,-88.48 275.26,-89.91"/>
</a>
</g>
</g>
<!-- Node24&#45;&gt;Node2 -->
<g id="edge42_Node000024_Node000002" class="edge">
<title>Node24&#45;&gt;Node2</title>
<g id="a_edge42_Node000024_Node000002"><a xlink:title=" ">
<path fill="none" stroke="#63b8ff" d="M927.44,-283.6C934.2,-257.12 953.36,-182.18 962.72,-145.55"/>
<polygon fill="#63b8ff" stroke="#63b8ff" points="966.02,-146.74 965.11,-136.18 959.24,-145.01 966.02,-146.74"/>
</a>
</g>
</g>
<!-- Node24&#45;&gt;Node3 -->
<g id="edge41_Node000024_Node000003" class="edge">
<title>Node24&#45;&gt;Node3</title>
<g id="a_edge41_Node000024_Node000003"><a xlink:title=" ">
<path fill="none" stroke="#63b8ff" d="M921.31,-283.44C914.36,-264.3 900,-220.11 900,-181.62 900,-181.62 900,-181.62 900,-122.88 900,-21.66 527.13,-11.76 405.13,-11.22"/>
<polygon fill="#63b8ff" stroke="#63b8ff" points="405.32,-7.73 395.31,-11.2 405.3,-14.73 405.32,-7.73"/>
</a>
</g>
</g>
<!-- Node24&#45;&gt;Node5 -->
<g id="edge43_Node000024_Node000005" class="edge">
<title>Node24&#45;&gt;Node5</title>
<g id="a_edge43_Node000024_Node000005"><a xlink:title=" ">
<path fill="none" stroke="#63b8ff" d="M901.65,-285.28C875.03,-276.34 831.15,-261.6 799.68,-251.03"/>
<polygon fill="#63b8ff" stroke="#63b8ff" points="801.14,-247.83 790.55,-247.96 798.91,-254.47 801.14,-247.83"/>
</a>
</g>
</g>
<!-- Node25&#45;&gt;Node5 -->
<g id="edge47_Node000025_Node000005" class="edge">
<title>Node25&#45;&gt;Node5</title>
<g id="a_edge47_Node000025_Node000005"><a xlink:title=" ">
<path fill="none" stroke="#63b8ff" d="M762,-283.34C762,-276.72 762,-267.72 762,-259.52"/>
<polygon fill="#63b8ff" stroke="#63b8ff" points="765.5,-259.59 762,-249.59 758.5,-259.59 765.5,-259.59"/>
</a>
</g>
</g>
<!-- Node26 -->
<g id="Node000026" class="node">
<title>Node26</title>
<g id="a_Node000026"><a xlink:title=" ">
<polygon fill="#e0e0e0" stroke="#999999" points="716.88,-247.75 649.12,-247.75 649.12,-227 716.88,-227 716.88,-247.75"/>
<text text-anchor="middle" x="683" y="-234.25" font-family="Helvetica,sans-Serif" font-size="10.00">cpu_conf.h</text>
</a>
</g>
</g>
<!-- Node25&#45;&gt;Node26 -->
<g id="edge46_Node000025_Node000026" class="edge">
<title>Node25&#45;&gt;Node26</title>
<g id="a_edge46_Node000025_Node000026"><a xlink:title=" ">
<path fill="none" stroke="#63b8ff" d="M747.88,-283.34C736.31,-275.32 719.7,-263.81 706.18,-254.44"/>
<polygon fill="#63b8ff" stroke="#63b8ff" points="708.46,-251.76 698.25,-248.94 704.47,-257.51 708.46,-251.76"/>
</a>
</g>
</g>
<!-- Node28&#45;&gt;Node3 -->
<g id="edge50_Node000028_Node000003" class="edge">
<title>Node28&#45;&gt;Node3</title>
<g id="a_edge50_Node000028_Node000003"><a xlink:title=" ">
<path fill="none" stroke="#63b8ff" d="M914.66,-453.6C957.48,-431.72 1052,-374.47 1052,-295.12 1052,-295.12 1052,-295.12 1052,-122.88 1052,-33.88 949.96,-75.64 863,-56.75 695.08,-20.27 488.97,-13.09 405.15,-11.7"/>
<polygon fill="#63b8ff" stroke="#63b8ff" points="405.26,-8.2 395.21,-11.55 405.16,-15.2 405.26,-8.2"/>
</a>
</g>
</g>
<!-- Node28&#45;&gt;Node5 -->
<g id="edge52_Node000028_Node000005" class="edge">
<title>Node28&#45;&gt;Node5</title>
<g id="a_edge52_Node000028_Node000005"><a xlink:title=" ">
<path fill="none" stroke="#63b8ff" d="M894.29,-453.61C894.63,-424.48 891.93,-336.96 850,-283.75 837.31,-267.65 817.35,-256.7 799.64,-249.6"/>
<polygon fill="#63b8ff" stroke="#63b8ff" points="801.01,-246.38 790.41,-246.19 798.58,-252.94 801.01,-246.38"/>
</a>
</g>
</g>
<!-- Node28&#45;&gt;Node18 -->
<g id="edge51_Node000028_Node000018" class="edge">
<title>Node28&#45;&gt;Node18</title>
<g id="a_edge51_Node000028_Node000018"><a xlink:title=" ">
<path fill="none" stroke="#63b8ff" d="M863.39,-458.99C794.68,-449.14 628.25,-425.29 551.71,-414.32"/>
<polygon fill="#63b8ff" stroke="#63b8ff" points="552.56,-410.9 542.16,-412.95 551.56,-417.83 552.56,-410.9"/>
</a>
</g>
</g>
</g>
</svg>
