<?xml version="1.0" encoding="UTF-8" standalone="no"?>
<!DOCTYPE svg PUBLIC "-//W3C//DTD SVG 1.1//EN"
 "http://www.w3.org/Graphics/SVG/1.1/DTD/svg11.dtd">
<!-- Generated by graphviz version 12.1.1 (0)
 -->
<!-- Title: sys/include/ztimer/xtimer_compat.h Pages: 1 -->
<svg width="1228pt" height="609pt"
 viewBox="0.00 0.00 1227.74 609.00" xmlns="http://www.w3.org/2000/svg" xmlns:xlink="http://www.w3.org/1999/xlink">
<g id="graph0" class="graph" transform="scale(1 1) rotate(0) translate(4 605)">
<title>sys/include/ztimer/xtimer_compat.h</title>
<!-- Node1 -->
<g id="Node000001" class="node">
<title>Node1</title>
<g id="a_Node000001"><a xlink:title="ztimer xtimer wrapper interface">
<polygon fill="#999999" stroke="#666666" points="675.36,-601 570.11,-601 570.11,-567.5 675.36,-567.5 675.36,-601"/>
<text text-anchor="start" x="578.11" y="-587.5" font-family="Helvetica,sans-Serif" font-size="10.00">sys/include/ztimer</text>
<text text-anchor="middle" x="622.74" y="-574.75" font-family="Helvetica,sans-Serif" font-size="10.00">/xtimer_compat.h</text>
</a>
</g>
</g>
<!-- Node2 -->
<g id="Node000002" class="node">
<title>Node2</title>
<g id="a_Node000002"><a xlink:href="assert_8h.html" target="_top" xlink:title="POSIX.1&#45;2008 compliant version of the assert macro.">
<polygon fill="white" stroke="#666666" points="576.24,-77.5 521.24,-77.5 521.24,-56.75 576.24,-56.75 576.24,-77.5"/>
<text text-anchor="middle" x="548.74" y="-64" font-family="Helvetica,sans-Serif" font-size="10.00">assert.h</text>
</a>
</g>
</g>
<!-- Node1&#45;&gt;Node2 -->
<g id="edge1_Node000001_Node000002" class="edge">
<title>Node1&#45;&gt;Node2</title>
<g id="a_edge1_Node000001_Node000002"><a xlink:title=" ">
<path fill="none" stroke="#63b8ff" d="M569.62,-578.97C501.98,-570.28 393.74,-544.07 393.74,-465.38 393.74,-465.38 393.74,-465.38 393.74,-349.88 393.74,-266.91 469.1,-270.82 491.74,-191 494.25,-182.13 495.86,-178.5 491.74,-170.25 479.81,-146.4 455.66,-158.1 443.74,-134.25 439.61,-126 438.67,-121.21 443.74,-113.5 458.36,-91.25 486.46,-79.86 509.92,-74.06"/>
<polygon fill="#63b8ff" stroke="#63b8ff" points="510.48,-77.52 519.5,-71.96 508.98,-70.68 510.48,-77.52"/>
</a>
</g>
</g>
<!-- Node3 -->
<g id="Node000003" class="node">
<title>Node3</title>
<g id="a_Node000003"><a xlink:title=" ">
<polygon fill="#e0e0e0" stroke="#999999" points="519.11,-20.75 466.36,-20.75 466.36,0 519.11,0 519.11,-20.75"/>
<text text-anchor="middle" x="492.74" y="-7.25" font-family="Helvetica,sans-Serif" font-size="10.00">stdint.h</text>
</a>
</g>
</g>
<!-- Node1&#45;&gt;Node3 -->
<g id="edge4_Node000001_Node000003" class="edge">
<title>Node1&#45;&gt;Node3</title>
<g id="a_edge4_Node000001_Node000003"><a xlink:title=" ">
<path fill="none" stroke="#63b8ff" d="M675.72,-583.95C821.83,-584.48 1219.74,-575.78 1219.74,-465.38 1219.74,-465.38 1219.74,-465.38 1219.74,-122.88 1219.74,-43.46 1131.06,-74.85 1053.74,-56.75 861.16,-11.68 622.4,-9.51 530.88,-10.58"/>
<polygon fill="#63b8ff" stroke="#63b8ff" points="530.92,-7.08 520.97,-10.72 531.02,-14.08 530.92,-7.08"/>
</a>
</g>
</g>
<!-- Node4 -->
<g id="Node000004" class="node">
<title>Node4</title>
<g id="a_Node000004"><a xlink:title=" ">
<polygon fill="#e0e0e0" stroke="#999999" points="1125.24,-134.25 1064.24,-134.25 1064.24,-113.5 1125.24,-113.5 1125.24,-134.25"/>
<text text-anchor="middle" x="1094.74" y="-120.75" font-family="Helvetica,sans-Serif" font-size="10.00">stdbool.h</text>
</a>
</g>
</g>
<!-- Node1&#45;&gt;Node4 -->
<g id="edge3_Node000001_Node000004" class="edge">
<title>Node1&#45;&gt;Node4</title>
<g id="a_edge3_Node000001_Node000004"><a xlink:title=" ">
<path fill="none" stroke="#63b8ff" d="M675.56,-582.42C808.01,-578.93 1143.74,-560.66 1143.74,-465.38 1143.74,-465.38 1143.74,-465.38 1143.74,-236.38 1143.74,-201.49 1123.38,-165.25 1108.91,-143.9"/>
<polygon fill="#63b8ff" stroke="#63b8ff" points="1111.9,-142.06 1103.27,-135.92 1106.18,-146.11 1111.9,-142.06"/>
</a>
</g>
</g>
<!-- Node5 -->
<g id="Node000005" class="node">
<title>Node5</title>
<g id="a_Node000005"><a xlink:title=" ">
<polygon fill="#e0e0e0" stroke="#999999" points="622.11,-531.5 569.36,-531.5 569.36,-510.75 622.11,-510.75 622.11,-531.5"/>
<text text-anchor="middle" x="595.74" y="-518" font-family="Helvetica,sans-Serif" font-size="10.00">board.h</text>
</a>
</g>
</g>
<!-- Node1&#45;&gt;Node5 -->
<g id="edge5_Node000001_Node000005" class="edge">
<title>Node1&#45;&gt;Node5</title>
<g id="a_edge5_Node000001_Node000005"><a xlink:title=" ">
<path fill="none" stroke="#63b8ff" d="M615.64,-567.19C612.29,-559.59 608.24,-550.44 604.68,-542.37"/>
<polygon fill="#63b8ff" stroke="#63b8ff" points="607.94,-541.08 600.7,-533.35 601.54,-543.91 607.94,-541.08"/>
</a>
</g>
</g>
<!-- Node6 -->
<g id="Node000006" class="node">
<title>Node6</title>
<g id="a_Node000006"><a xlink:href="timex_8h.html" target="_top" xlink:title="Utility library for comparing and computing timestamps.">
<polygon fill="white" stroke="#666666" points="82.49,-247.75 28.99,-247.75 28.99,-227 82.49,-227 82.49,-247.75"/>
<text text-anchor="middle" x="55.74" y="-234.25" font-family="Helvetica,sans-Serif" font-size="10.00">timex.h</text>
</a>
</g>
</g>
<!-- Node1&#45;&gt;Node6 -->
<g id="edge6_Node000001_Node000006" class="edge">
<title>Node1&#45;&gt;Node6</title>
<g id="a_edge6_Node000001_Node000006"><a xlink:title=" ">
<path fill="none" stroke="#63b8ff" d="M569.68,-583.18C430.7,-581.56 66.74,-567.56 66.74,-465.38 66.74,-465.38 66.74,-465.38 66.74,-349.88 66.74,-318.18 62.28,-281.67 59.04,-259.3"/>
<polygon fill="#63b8ff" stroke="#63b8ff" points="62.54,-259.05 57.59,-249.68 55.62,-260.09 62.54,-259.05"/>
</a>
</g>
</g>
<!-- Node9 -->
<g id="Node000009" class="node">
<title>Node9</title>
<g id="a_Node000009"><a xlink:href="mutex_8h.html" target="_top" xlink:title="Mutex for thread synchronization.">
<polygon fill="white" stroke="#666666" points="659.99,-418 603.49,-418 603.49,-397.25 659.99,-397.25 659.99,-418"/>
<text text-anchor="middle" x="631.74" y="-404.5" font-family="Helvetica,sans-Serif" font-size="10.00">mutex.h</text>
</a>
</g>
</g>
<!-- Node1&#45;&gt;Node9 -->
<g id="edge10_Node000001_Node000009" class="edge">
<title>Node1&#45;&gt;Node9</title>
<g id="a_edge10_Node000001_Node000009"><a xlink:title=" ">
<path fill="none" stroke="#63b8ff" d="M625.87,-567.01C627.67,-556.85 629.77,-543.46 630.74,-531.5 633.63,-495.81 633.16,-454.1 632.49,-429.61"/>
<polygon fill="#63b8ff" stroke="#63b8ff" points="635.99,-429.6 632.18,-419.72 629,-429.82 635.99,-429.6"/>
</a>
</g>
</g>
<!-- Node24 -->
<g id="Node000024" class="node">
<title>Node24</title>
<g id="a_Node000024"><a xlink:href="sched_8h.html" target="_top" xlink:title="Scheduler API definition.">
<polygon fill="white" stroke="#666666" points="744.49,-247.75 690.99,-247.75 690.99,-227 744.49,-227 744.49,-247.75"/>
<text text-anchor="middle" x="717.74" y="-234.25" font-family="Helvetica,sans-Serif" font-size="10.00">sched.h</text>
</a>
</g>
</g>
<!-- Node1&#45;&gt;Node24 -->
<g id="edge51_Node000001_Node000024" class="edge">
<title>Node1&#45;&gt;Node24</title>
<g id="a_edge51_Node000001_Node000024"><a xlink:title=" ">
<path fill="none" stroke="#63b8ff" d="M630.92,-567.29C635.8,-557.24 641.79,-543.86 645.74,-531.5 661.39,-482.47 663.6,-469.21 668.74,-418 673.92,-366.3 648.33,-355.9 640.74,-304.5 639.39,-295.38 636.16,-291.76 640.74,-283.75 649.37,-268.64 665.21,-258.07 680.29,-250.95"/>
<polygon fill="#63b8ff" stroke="#63b8ff" points="681.31,-254.32 689.12,-247.16 678.55,-247.89 681.31,-254.32"/>
</a>
</g>
</g>
<!-- Node29 -->
<g id="Node000029" class="node">
<title>Node29</title>
<g id="a_Node000029"><a xlink:href="ztimer_8h.html" target="_top" xlink:title="ztimer API">
<polygon fill="white" stroke="#666666" points="534.99,-531.5 478.49,-531.5 478.49,-510.75 534.99,-510.75 534.99,-531.5"/>
<text text-anchor="middle" x="506.74" y="-518" font-family="Helvetica,sans-Serif" font-size="10.00">ztimer.h</text>
</a>
</g>
</g>
<!-- Node1&#45;&gt;Node29 -->
<g id="edge52_Node000001_Node000029" class="edge">
<title>Node1&#45;&gt;Node29</title>
<g id="a_edge52_Node000001_Node000029"><a xlink:title=" ">
<path fill="none" stroke="#63b8ff" d="M591.96,-567.03C574.39,-557.77 552.52,-546.25 535.33,-537.19"/>
<polygon fill="#63b8ff" stroke="#63b8ff" points="537.13,-534.19 526.66,-532.62 533.87,-540.38 537.13,-534.19"/>
</a>
</g>
</g>
<!-- Node2&#45;&gt;Node3 -->
<g id="edge2_Node000002_Node000003" class="edge">
<title>Node2&#45;&gt;Node3</title>
<g id="a_edge2_Node000002_Node000003"><a xlink:title=" ">
<path fill="none" stroke="#63b8ff" d="M538.73,-56.34C531,-48.78 520.11,-38.14 510.86,-29.1"/>
<polygon fill="#63b8ff" stroke="#63b8ff" points="513.34,-26.62 503.74,-22.14 508.45,-31.63 513.34,-26.62"/>
</a>
</g>
</g>
<!-- Node6&#45;&gt;Node3 -->
<g id="edge7_Node000006_Node000003" class="edge">
<title>Node6&#45;&gt;Node3</title>
<g id="a_edge7_Node000006_Node000003"><a xlink:title=" ">
<path fill="none" stroke="#63b8ff" d="M37.58,-226.52C25.23,-218.7 9.88,-206.51 2.74,-191 -1.12,-182.62 -0.5,-178.89 2.74,-170.25 26.23,-107.57 42.5,-87.93 101.74,-56.75 162.52,-24.75 368.98,-15.03 454.82,-12.33"/>
<polygon fill="#63b8ff" stroke="#63b8ff" points="454.7,-15.83 464.59,-12.04 454.49,-8.84 454.7,-15.83"/>
</a>
</g>
</g>
<!-- Node7 -->
<g id="Node000007" class="node">
<title>Node7</title>
<g id="a_Node000007"><a xlink:href="inttypes_8h.html" target="_top" xlink:title="Adds include for missing inttype definitions.">
<polygon fill="white" stroke="#666666" points="355.11,-191 290.36,-191 290.36,-170.25 355.11,-170.25 355.11,-191"/>
<text text-anchor="middle" x="322.74" y="-177.5" font-family="Helvetica,sans-Serif" font-size="10.00">inttypes.h</text>
</a>
</g>
</g>
<!-- Node6&#45;&gt;Node7 -->
<g id="edge8_Node000006_Node000007" class="edge">
<title>Node6&#45;&gt;Node7</title>
<g id="a_edge8_Node000006_Node000007"><a xlink:title=" ">
<path fill="none" stroke="#63b8ff" d="M82.79,-231.11C123.18,-223.2 201.91,-207.63 279.29,-191.27"/>
<polygon fill="#63b8ff" stroke="#63b8ff" points="279.66,-194.77 288.71,-189.27 278.2,-187.92 279.66,-194.77"/>
</a>
</g>
</g>
<!-- Node8 -->
<g id="Node000008" class="node">
<title>Node8</title>
<g id="a_Node000008"><a xlink:href="time__units_8h.html" target="_top" xlink:title="Utility header providing time unit defines.">
<polygon fill="white" stroke="#666666" points="88.11,-191 11.36,-191 11.36,-170.25 88.11,-170.25 88.11,-191"/>
<text text-anchor="middle" x="49.74" y="-177.5" font-family="Helvetica,sans-Serif" font-size="10.00">time_units.h</text>
</a>
</g>
</g>
<!-- Node6&#45;&gt;Node8 -->
<g id="edge9_Node000006_Node000008" class="edge">
<title>Node6&#45;&gt;Node8</title>
<g id="a_edge9_Node000006_Node000008"><a xlink:title=" ">
<path fill="none" stroke="#63b8ff" d="M54.66,-226.59C53.94,-219.97 52.95,-210.97 52.05,-202.77"/>
<polygon fill="#63b8ff" stroke="#63b8ff" points="55.53,-202.39 50.97,-192.83 48.58,-203.15 55.53,-202.39"/>
</a>
</g>
</g>
<!-- Node9&#45;&gt;Node3 -->
<g id="edge12_Node000009_Node000003" class="edge">
<title>Node9&#45;&gt;Node3</title>
<g id="a_edge12_Node000009_Node000003"><a xlink:title=" ">
<path fill="none" stroke="#63b8ff" d="M660.15,-406.98C772.77,-407.65 1181.74,-402.66 1181.74,-295.12 1181.74,-295.12 1181.74,-295.12 1181.74,-122.88 1181.74,-56.36 674.85,-21.92 530.61,-13.46"/>
<polygon fill="#63b8ff" stroke="#63b8ff" points="531.02,-9.98 520.84,-12.9 530.62,-16.97 531.02,-9.98"/>
</a>
</g>
</g>
<!-- Node9&#45;&gt;Node4 -->
<g id="edge13_Node000009_Node000004" class="edge">
<title>Node9&#45;&gt;Node4</title>
<g id="a_edge13_Node000009_Node000004"><a xlink:title=" ">
<path fill="none" stroke="#63b8ff" d="M660.32,-406.07C762.8,-403.3 1105.74,-387.17 1105.74,-295.12 1105.74,-295.12 1105.74,-295.12 1105.74,-236.38 1105.74,-204.68 1101.28,-168.17 1098.04,-145.8"/>
<polygon fill="#63b8ff" stroke="#63b8ff" points="1101.54,-145.55 1096.59,-136.18 1094.62,-146.59 1101.54,-145.55"/>
</a>
</g>
</g>
<!-- Node10 -->
<g id="Node000010" class="node">
<title>Node10</title>
<g id="a_Node000010"><a xlink:title=" ">
<polygon fill="#e0e0e0" stroke="#999999" points="836.24,-77.5 781.24,-77.5 781.24,-56.75 836.24,-56.75 836.24,-77.5"/>
<text text-anchor="middle" x="808.74" y="-64" font-family="Helvetica,sans-Serif" font-size="10.00">stddef.h</text>
</a>
</g>
</g>
<!-- Node9&#45;&gt;Node10 -->
<g id="edge11_Node000009_Node000010" class="edge">
<title>Node9&#45;&gt;Node10</title>
<g id="a_edge11_Node000009_Node000010"><a xlink:title=" ">
<path fill="none" stroke="#63b8ff" d="M630.05,-397.03C626.73,-375.87 620.83,-323.87 634.74,-283.75 655.37,-224.2 674.76,-214.39 719.74,-170.25 739.28,-151.07 751.28,-154.47 769.74,-134.25 782.36,-120.42 792.87,-101.86 799.79,-87.93"/>
<polygon fill="#63b8ff" stroke="#63b8ff" points="802.76,-89.82 803.89,-79.29 796.44,-86.82 802.76,-89.82"/>
</a>
</g>
</g>
<!-- Node11 -->
<g id="Node000011" class="node">
<title>Node11</title>
<g id="a_Node000011"><a xlink:href="architecture_8h.html" target="_top" xlink:title="Platform&#45;independent access to architecture details.">
<polygon fill="white" stroke="#666666" points="364.49,-247.75 280.99,-247.75 280.99,-227 364.49,-227 364.49,-247.75"/>
<text text-anchor="middle" x="322.74" y="-234.25" font-family="Helvetica,sans-Serif" font-size="10.00">architecture.h</text>
</a>
</g>
</g>
<!-- Node9&#45;&gt;Node11 -->
<g id="edge14_Node000009_Node000011" class="edge">
<title>Node9&#45;&gt;Node11</title>
<g id="a_edge14_Node000009_Node000011"><a xlink:title=" ">
<path fill="none" stroke="#63b8ff" d="M603.25,-399.98C574.62,-392.69 529.71,-379.54 493.74,-361.25 434.08,-330.92 372.3,-281.13 341.94,-255.23"/>
<polygon fill="#63b8ff" stroke="#63b8ff" points="344.57,-252.87 334.71,-248.99 340,-258.17 344.57,-252.87"/>
</a>
</g>
</g>
<!-- Node14 -->
<g id="Node000014" class="node">
<title>Node14</title>
<g id="a_Node000014"><a xlink:href="kernel__defines_8h.html" target="_top" xlink:title="Common macros and compiler attributes/pragmas configuration.">
<polygon fill="white" stroke="#666666" points="634.86,-191 538.61,-191 538.61,-170.25 634.86,-170.25 634.86,-191"/>
<text text-anchor="middle" x="586.74" y="-177.5" font-family="Helvetica,sans-Serif" font-size="10.00">kernel_defines.h</text>
</a>
</g>
</g>
<!-- Node9&#45;&gt;Node14 -->
<g id="edge19_Node000009_Node000014" class="edge">
<title>Node9&#45;&gt;Node14</title>
<g id="a_edge19_Node000009_Node000014"><a xlink:title=" ">
<path fill="none" stroke="#63b8ff" d="M603.41,-402.3C579.74,-397.04 547.43,-385.61 531.74,-361.25 497.97,-308.85 545.28,-234.57 571.43,-200.29"/>
<polygon fill="#63b8ff" stroke="#63b8ff" points="574.08,-202.57 577.52,-192.55 568.58,-198.24 574.08,-202.57"/>
</a>
</g>
</g>
<!-- Node19 -->
<g id="Node000019" class="node">
<title>Node19</title>
<g id="a_Node000019"><a xlink:href="list_8h.html" target="_top" xlink:title="Intrusive linked list.">
<polygon fill="white" stroke="#666666" points="1034.74,-134.25 994.74,-134.25 994.74,-113.5 1034.74,-113.5 1034.74,-134.25"/>
<text text-anchor="middle" x="1014.74" y="-120.75" font-family="Helvetica,sans-Serif" font-size="10.00">list.h</text>
</a>
</g>
</g>
<!-- Node9&#45;&gt;Node19 -->
<g id="edge29_Node000009_Node000019" class="edge">
<title>Node9&#45;&gt;Node19</title>
<g id="a_edge29_Node000009_Node000019"><a xlink:title=" ">
<path fill="none" stroke="#63b8ff" d="M660.39,-403.8C743.97,-394.9 984.38,-364.44 1029.74,-304.5 1065.69,-256.99 1039.87,-180.79 1024.27,-144.86"/>
<polygon fill="#63b8ff" stroke="#63b8ff" points="1027.6,-143.73 1020.28,-136.07 1021.23,-146.62 1027.6,-143.73"/>
</a>
</g>
</g>
<!-- Node20 -->
<g id="Node000020" class="node">
<title>Node20</title>
<g id="a_Node000020"><a xlink:href="core_2include_2thread_8h.html" target="_top" xlink:title="Threading API.">
<polygon fill="white" stroke="#666666" points="819.99,-361.25 763.49,-361.25 763.49,-340.5 819.99,-340.5 819.99,-361.25"/>
<text text-anchor="middle" x="791.74" y="-347.75" font-family="Helvetica,sans-Serif" font-size="10.00">thread.h</text>
</a>
</g>
</g>
<!-- Node9&#45;&gt;Node20 -->
<g id="edge30_Node000009_Node000020" class="edge">
<title>Node9&#45;&gt;Node20</title>
<g id="a_edge30_Node000009_Node000020"><a xlink:title=" ">
<path fill="none" stroke="#63b8ff" d="M660.34,-396.84C685.97,-388.07 723.81,-375.12 752.31,-365.37"/>
<polygon fill="#63b8ff" stroke="#63b8ff" points="753.35,-368.71 761.68,-362.16 751.08,-362.09 753.35,-368.71"/>
</a>
</g>
</g>
<!-- Node11&#45;&gt;Node3 -->
<g id="edge15_Node000011_Node000003" class="edge">
<title>Node11&#45;&gt;Node3</title>
<g id="a_edge15_Node000011_Node000003"><a xlink:title=" ">
<path fill="none" stroke="#63b8ff" d="M280.6,-229.05C242.24,-220.21 193.96,-202.37 210.74,-170.25 259.94,-76.04 390.38,-34.31 455.15,-18.95"/>
<polygon fill="#63b8ff" stroke="#63b8ff" points="455.63,-22.43 464.6,-16.79 454.07,-15.6 455.63,-22.43"/>
</a>
</g>
</g>
<!-- Node11&#45;&gt;Node7 -->
<g id="edge16_Node000011_Node000007" class="edge">
<title>Node11&#45;&gt;Node7</title>
<g id="a_edge16_Node000011_Node000007"><a xlink:title=" ">
<path fill="none" stroke="#63b8ff" d="M322.74,-226.59C322.74,-219.97 322.74,-210.97 322.74,-202.77"/>
<polygon fill="#63b8ff" stroke="#63b8ff" points="326.24,-202.84 322.74,-192.84 319.24,-202.84 326.24,-202.84"/>
</a>
</g>
</g>
<!-- Node12 -->
<g id="Node000012" class="node">
<title>Node12</title>
<g id="a_Node000012"><a xlink:title=" ">
<polygon fill="#e0e0e0" stroke="#999999" points="272.11,-191 219.36,-191 219.36,-170.25 272.11,-170.25 272.11,-191"/>
<text text-anchor="middle" x="245.74" y="-177.5" font-family="Helvetica,sans-Serif" font-size="10.00">limits.h</text>
</a>
</g>
</g>
<!-- Node11&#45;&gt;Node12 -->
<g id="edge17_Node000011_Node000012" class="edge">
<title>Node11&#45;&gt;Node12</title>
<g id="a_edge17_Node000011_Node000012"><a xlink:title=" ">
<path fill="none" stroke="#63b8ff" d="M308.97,-226.59C297.8,-218.65 281.82,-207.28 268.72,-197.96"/>
<polygon fill="#63b8ff" stroke="#63b8ff" points="270.8,-195.15 260.62,-192.21 266.74,-200.85 270.8,-195.15"/>
</a>
</g>
</g>
<!-- Node13 -->
<g id="Node000013" class="node">
<title>Node13</title>
<g id="a_Node000013"><a xlink:title=" ">
<polygon fill="#e0e0e0" stroke="#999999" points="482.61,-191 372.86,-191 372.86,-170.25 482.61,-170.25 482.61,-191"/>
<text text-anchor="middle" x="427.74" y="-177.5" font-family="Helvetica,sans-Serif" font-size="10.00">architecture_arch.h</text>
</a>
</g>
</g>
<!-- Node11&#45;&gt;Node13 -->
<g id="edge18_Node000011_Node000013" class="edge">
<title>Node11&#45;&gt;Node13</title>
<g id="a_edge18_Node000011_Node000013"><a xlink:title=" ">
<path fill="none" stroke="#63b8ff" d="M341.51,-226.59C357.49,-218.26 380.69,-206.16 399,-196.61"/>
<polygon fill="#63b8ff" stroke="#63b8ff" points="400.54,-199.76 407.79,-192.03 397.3,-193.55 400.54,-199.76"/>
</a>
</g>
</g>
<!-- Node15 -->
<g id="Node000015" class="node">
<title>Node15</title>
<g id="a_Node000015"><a xlink:href="modules_8h.html" target="_top" xlink:title="Common macros and compiler attributes/pragmas configuration.">
<polygon fill="white" stroke="#666666" points="634.24,-134.25 567.24,-134.25 567.24,-113.5 634.24,-113.5 634.24,-134.25"/>
<text text-anchor="middle" x="600.74" y="-120.75" font-family="Helvetica,sans-Serif" font-size="10.00">modules.h</text>
</a>
</g>
</g>
<!-- Node14&#45;&gt;Node15 -->
<g id="edge20_Node000014_Node000015" class="edge">
<title>Node14&#45;&gt;Node15</title>
<g id="a_edge20_Node000014_Node000015"><a xlink:title=" ">
<path fill="none" stroke="#63b8ff" d="M589.24,-169.84C590.95,-163.14 593.29,-154.01 595.41,-145.73"/>
<polygon fill="#63b8ff" stroke="#63b8ff" points="598.79,-146.6 597.88,-136.04 592.01,-144.87 598.79,-146.6"/>
</a>
</g>
</g>
<!-- Node16 -->
<g id="Node000016" class="node">
<title>Node16</title>
<g id="a_Node000016"><a xlink:href="riot__version_8h.html" target="_top" xlink:title="Common macros and compiler attributes/pragmas configuration.">
<polygon fill="white" stroke="#666666" points="465.11,-77.5 382.36,-77.5 382.36,-56.75 465.11,-56.75 465.11,-77.5"/>
<text text-anchor="middle" x="423.74" y="-64" font-family="Helvetica,sans-Serif" font-size="10.00">riot_version.h</text>
</a>
</g>
</g>
<!-- Node14&#45;&gt;Node16 -->
<g id="edge21_Node000014_Node000016" class="edge">
<title>Node14&#45;&gt;Node16</title>
<g id="a_edge21_Node000014_Node000016"><a xlink:title=" ">
<path fill="none" stroke="#63b8ff" d="M538.33,-175.68C507.42,-170.7 468.61,-159.47 443.74,-134.25 431.88,-122.23 427.02,-103.44 425.04,-88.95"/>
<polygon fill="#63b8ff" stroke="#63b8ff" points="428.53,-88.73 424.09,-79.12 421.57,-89.41 428.53,-88.73"/>
</a>
</g>
</g>
<!-- Node17 -->
<g id="Node000017" class="node">
<title>Node17</title>
<g id="a_Node000017"><a xlink:href="compiler__hints_8h.html" target="_top" xlink:title="Common macros and compiler attributes/pragmas configuration.">
<polygon fill="white" stroke="#666666" points="549.24,-134.25 452.24,-134.25 452.24,-113.5 549.24,-113.5 549.24,-134.25"/>
<text text-anchor="middle" x="500.74" y="-120.75" font-family="Helvetica,sans-Serif" font-size="10.00">compiler_hints.h</text>
</a>
</g>
</g>
<!-- Node14&#45;&gt;Node17 -->
<g id="edge23_Node000014_Node000017" class="edge">
<title>Node14&#45;&gt;Node17</title>
<g id="a_edge23_Node000014_Node000017"><a xlink:title=" ">
<path fill="none" stroke="#63b8ff" d="M571.36,-169.84C558.64,-161.74 540.33,-150.08 525.54,-140.67"/>
<polygon fill="#63b8ff" stroke="#63b8ff" points="527.57,-137.81 517.26,-135.39 523.81,-143.71 527.57,-137.81"/>
</a>
</g>
</g>
<!-- Node18 -->
<g id="Node000018" class="node">
<title>Node18</title>
<g id="a_Node000018"><a xlink:href="container_8h.html" target="_top" xlink:title="Common macros and compiler attributes/pragmas configuration.">
<polygon fill="white" stroke="#666666" points="761.11,-134.25 690.36,-134.25 690.36,-113.5 761.11,-113.5 761.11,-134.25"/>
<text text-anchor="middle" x="725.74" y="-120.75" font-family="Helvetica,sans-Serif" font-size="10.00">container.h</text>
</a>
</g>
</g>
<!-- Node14&#45;&gt;Node18 -->
<g id="edge26_Node000014_Node000018" class="edge">
<title>Node14&#45;&gt;Node18</title>
<g id="a_edge26_Node000014_Node000018"><a xlink:title=" ">
<path fill="none" stroke="#63b8ff" d="M611.59,-169.84C633.63,-161.16 666.05,-148.38 690.72,-138.67"/>
<polygon fill="#63b8ff" stroke="#63b8ff" points="691.67,-142.05 699.69,-135.13 689.11,-135.54 691.67,-142.05"/>
</a>
</g>
</g>
<!-- Node16&#45;&gt;Node3 -->
<g id="edge22_Node000016_Node000003" class="edge">
<title>Node16&#45;&gt;Node3</title>
<g id="a_edge22_Node000016_Node000003"><a xlink:title=" ">
<path fill="none" stroke="#63b8ff" d="M436.07,-56.34C445.98,-48.47 460.12,-37.25 471.8,-27.99"/>
<polygon fill="#63b8ff" stroke="#63b8ff" points="473.66,-30.98 479.32,-22.02 469.31,-25.49 473.66,-30.98"/>
</a>
</g>
</g>
<!-- Node17&#45;&gt;Node2 -->
<g id="edge24_Node000017_Node000002" class="edge">
<title>Node17&#45;&gt;Node2</title>
<g id="a_edge24_Node000017_Node000002"><a xlink:title=" ">
<path fill="none" stroke="#63b8ff" d="M509.32,-113.09C515.8,-105.69 524.89,-95.32 532.71,-86.41"/>
<polygon fill="#63b8ff" stroke="#63b8ff" points="535.27,-88.79 539.23,-78.97 530.01,-84.18 535.27,-88.79"/>
</a>
</g>
</g>
<!-- Node17&#45;&gt;Node3 -->
<g id="edge25_Node000017_Node000003" class="edge">
<title>Node17&#45;&gt;Node3</title>
<g id="a_edge25_Node000017_Node000003"><a xlink:title=" ">
<path fill="none" stroke="#63b8ff" d="M500.06,-113.37C498.77,-95.52 495.98,-56.61 494.24,-32.34"/>
<polygon fill="#63b8ff" stroke="#63b8ff" points="497.76,-32.41 493.55,-22.68 490.77,-32.91 497.76,-32.41"/>
</a>
</g>
</g>
<!-- Node18&#45;&gt;Node3 -->
<g id="edge28_Node000018_Node000003" class="edge">
<title>Node18&#45;&gt;Node3</title>
<g id="a_edge28_Node000018_Node000003"><a xlink:title=" ">
<path fill="none" stroke="#63b8ff" d="M705.47,-113.18C664.5,-93.57 571.64,-49.13 523.29,-26"/>
<polygon fill="#63b8ff" stroke="#63b8ff" points="525.02,-22.94 514.49,-21.79 522,-29.26 525.02,-22.94"/>
</a>
</g>
</g>
<!-- Node18&#45;&gt;Node10 -->
<g id="edge27_Node000018_Node000010" class="edge">
<title>Node18&#45;&gt;Node10</title>
<g id="a_edge27_Node000018_Node000010"><a xlink:title=" ">
<path fill="none" stroke="#63b8ff" d="M740.58,-113.09C752.85,-104.99 770.52,-93.33 784.8,-83.92"/>
<polygon fill="#63b8ff" stroke="#63b8ff" points="786.34,-87.09 792.76,-78.66 782.49,-81.25 786.34,-87.09"/>
</a>
</g>
</g>
<!-- Node21 -->
<g id="Node000021" class="node">
<title>Node21</title>
<g id="a_Node000021"><a xlink:href="clist_8h.html" target="_top" xlink:title="Circular linked list.">
<polygon fill="white" stroke="#666666" points="1001.36,-191 956.11,-191 956.11,-170.25 1001.36,-170.25 1001.36,-191"/>
<text text-anchor="middle" x="978.74" y="-177.5" font-family="Helvetica,sans-Serif" font-size="10.00">clist.h</text>
</a>
</g>
</g>
<!-- Node20&#45;&gt;Node21 -->
<g id="edge31_Node000020_Node000021" class="edge">
<title>Node20&#45;&gt;Node21</title>
<g id="a_edge31_Node000020_Node000021"><a xlink:title=" ">
<path fill="none" stroke="#63b8ff" d="M820.28,-348.29C874.04,-344.65 987.02,-333.63 1010.74,-304.5 1035.43,-274.16 1010.52,-226.85 992.9,-200.66"/>
<polygon fill="#63b8ff" stroke="#63b8ff" points="995.9,-198.84 987.28,-192.68 990.18,-202.87 995.9,-198.84"/>
</a>
</g>
</g>
<!-- Node22 -->
<g id="Node000022" class="node">
<title>Node22</title>
<g id="a_Node000022"><a xlink:href="cib_8h.html" target="_top" xlink:title="Circular integer buffer interface.">
<polygon fill="white" stroke="#666666" points="689.36,-304.5 650.11,-304.5 650.11,-283.75 689.36,-283.75 689.36,-304.5"/>
<text text-anchor="middle" x="669.74" y="-291" font-family="Helvetica,sans-Serif" font-size="10.00">cib.h</text>
</a>
</g>
</g>
<!-- Node20&#45;&gt;Node22 -->
<g id="edge35_Node000020_Node000022" class="edge">
<title>Node20&#45;&gt;Node22</title>
<g id="a_edge35_Node000020_Node000022"><a xlink:title=" ">
<path fill="none" stroke="#63b8ff" d="M769.93,-340.09C750.46,-331.35 721.76,-318.47 700.06,-308.73"/>
<polygon fill="#63b8ff" stroke="#63b8ff" points="701.68,-305.62 691.12,-304.72 698.81,-312.01 701.68,-305.62"/>
</a>
</g>
</g>
<!-- Node23 -->
<g id="Node000023" class="node">
<title>Node23</title>
<g id="a_Node000023"><a xlink:href="core_2include_2msg_8h.html" target="_top" xlink:title="Messaging API for inter process communication.">
<polygon fill="white" stroke="#666666" points="901.74,-304.5 855.74,-304.5 855.74,-283.75 901.74,-283.75 901.74,-304.5"/>
<text text-anchor="middle" x="878.74" y="-291" font-family="Helvetica,sans-Serif" font-size="10.00">msg.h</text>
</a>
</g>
</g>
<!-- Node20&#45;&gt;Node23 -->
<g id="edge37_Node000020_Node000023" class="edge">
<title>Node20&#45;&gt;Node23</title>
<g id="a_edge37_Node000020_Node000023"><a xlink:title=" ">
<path fill="none" stroke="#63b8ff" d="M807.29,-340.09C820.16,-331.99 838.68,-320.33 853.64,-310.92"/>
<polygon fill="#63b8ff" stroke="#63b8ff" points="855.44,-313.92 862.04,-305.63 851.71,-308 855.44,-313.92"/>
</a>
</g>
</g>
<!-- Node20&#45;&gt;Node24 -->
<g id="edge46_Node000020_Node000024" class="edge">
<title>Node20&#45;&gt;Node24</title>
<g id="a_edge46_Node000020_Node000024"><a xlink:title=" ">
<path fill="none" stroke="#63b8ff" d="M775.23,-340.15C762.92,-332.07 746.58,-319.51 736.74,-304.5 727.81,-290.89 723,-273.03 720.46,-259.3"/>
<polygon fill="#63b8ff" stroke="#63b8ff" points="723.94,-258.93 718.94,-249.59 717.03,-260.01 723.94,-258.93"/>
</a>
</g>
</g>
<!-- Node26 -->
<g id="Node000026" class="node">
<title>Node26</title>
<g id="a_Node000026"><a xlink:href="thread__config_8h.html" target="_top" xlink:title="Thread configuration defines.">
<polygon fill="white" stroke="#666666" points="837.61,-304.5 745.86,-304.5 745.86,-283.75 837.61,-283.75 837.61,-304.5"/>
<text text-anchor="middle" x="791.74" y="-291" font-family="Helvetica,sans-Serif" font-size="10.00">thread_config.h</text>
</a>
</g>
</g>
<!-- Node20&#45;&gt;Node26 -->
<g id="edge47_Node000020_Node000026" class="edge">
<title>Node20&#45;&gt;Node26</title>
<g id="a_edge47_Node000020_Node000026"><a xlink:title=" ">
<path fill="none" stroke="#63b8ff" d="M791.74,-340.09C791.74,-333.47 791.74,-324.47 791.74,-316.27"/>
<polygon fill="#63b8ff" stroke="#63b8ff" points="795.24,-316.34 791.74,-306.34 788.24,-316.34 795.24,-316.34"/>
</a>
</g>
</g>
<!-- Node28 -->
<g id="Node000028" class="node">
<title>Node28</title>
<g id="a_Node000028"><a xlink:title=" ">
<polygon fill="#e0e0e0" stroke="#999999" points="1002.11,-304.5 919.36,-304.5 919.36,-283.75 1002.11,-283.75 1002.11,-304.5"/>
<text text-anchor="middle" x="960.74" y="-291" font-family="Helvetica,sans-Serif" font-size="10.00">thread_arch.h</text>
</a>
</g>
</g>
<!-- Node20&#45;&gt;Node28 -->
<g id="edge50_Node000020_Node000028" class="edge">
<title>Node20&#45;&gt;Node28</title>
<g id="a_edge50_Node000020_Node000028"><a xlink:title=" ">
<path fill="none" stroke="#63b8ff" d="M820.41,-340.59C847.66,-331.76 888.95,-318.38 919.7,-308.42"/>
<polygon fill="#63b8ff" stroke="#63b8ff" points="920.63,-311.8 929.06,-305.39 918.47,-305.14 920.63,-311.8"/>
</a>
</g>
</g>
<!-- Node21&#45;&gt;Node4 -->
<g id="edge32_Node000021_Node000004" class="edge">
<title>Node21&#45;&gt;Node4</title>
<g id="a_edge32_Node000021_Node000004"><a xlink:title=" ">
<path fill="none" stroke="#63b8ff" d="M999.48,-169.84C1017.37,-161.39 1043.48,-149.07 1063.84,-139.46"/>
<polygon fill="#63b8ff" stroke="#63b8ff" points="1065.26,-142.66 1072.81,-135.22 1062.27,-136.33 1065.26,-142.66"/>
</a>
</g>
</g>
<!-- Node21&#45;&gt;Node10 -->
<g id="edge33_Node000021_Node000010" class="edge">
<title>Node21&#45;&gt;Node10</title>
<g id="a_edge33_Node000021_Node000010"><a xlink:title=" ">
<path fill="none" stroke="#63b8ff" d="M963.95,-169.93C934.56,-150.65 868.57,-107.37 832.84,-83.93"/>
<polygon fill="#63b8ff" stroke="#63b8ff" points="835.16,-81.27 824.88,-78.71 831.32,-87.12 835.16,-81.27"/>
</a>
</g>
</g>
<!-- Node21&#45;&gt;Node19 -->
<g id="edge34_Node000021_Node000019" class="edge">
<title>Node21&#45;&gt;Node19</title>
<g id="a_edge34_Node000021_Node000019"><a xlink:title=" ">
<path fill="none" stroke="#63b8ff" d="M985.17,-169.84C989.88,-162.67 996.42,-152.73 1002.16,-144.01"/>
<polygon fill="#63b8ff" stroke="#63b8ff" points="1004.96,-146.12 1007.53,-135.84 999.11,-142.28 1004.96,-146.12"/>
</a>
</g>
</g>
<!-- Node22&#45;&gt;Node2 -->
<g id="edge36_Node000022_Node000002" class="edge">
<title>Node22&#45;&gt;Node2</title>
<g id="a_edge36_Node000022_Node000002"><a xlink:title=" ">
<path fill="none" stroke="#63b8ff" d="M671.26,-283.39C675.26,-254.35 683.15,-167.05 643.74,-113.5 636.35,-103.46 609.86,-91.24 586.73,-82.01"/>
<polygon fill="#63b8ff" stroke="#63b8ff" points="588.08,-78.78 577.49,-78.42 585.54,-85.3 588.08,-78.78"/>
</a>
</g>
</g>
<!-- Node23&#45;&gt;Node3 -->
<g id="edge38_Node000023_Node000003" class="edge">
<title>Node23&#45;&gt;Node3</title>
<g id="a_edge38_Node000023_Node000003"><a xlink:title=" ">
<path fill="none" stroke="#63b8ff" d="M879.62,-283.29C881.29,-263.87 884.74,-219.23 884.74,-181.62 884.74,-181.62 884.74,-181.62 884.74,-122.88 884.74,-88.76 874.22,-75.53 845.74,-56.75 794.54,-23 610.52,-14.31 530.43,-12.11"/>
<polygon fill="#63b8ff" stroke="#63b8ff" points="530.99,-8.62 520.91,-11.86 530.81,-15.62 530.99,-8.62"/>
</a>
</g>
</g>
<!-- Node23&#45;&gt;Node4 -->
<g id="edge39_Node000023_Node000004" class="edge">
<title>Node23&#45;&gt;Node4</title>
<g id="a_edge39_Node000023_Node000004"><a xlink:title=" ">
<path fill="none" stroke="#63b8ff" d="M891.51,-283.3C915.1,-265.14 967.11,-225.05 1010.74,-191 1032.34,-174.14 1056.97,-154.73 1073.94,-141.32"/>
<polygon fill="#63b8ff" stroke="#63b8ff" points="1075.66,-144.43 1081.33,-135.48 1071.32,-138.94 1075.66,-144.43"/>
</a>
</g>
</g>
<!-- Node23&#45;&gt;Node24 -->
<g id="edge40_Node000023_Node000024" class="edge">
<title>Node23&#45;&gt;Node24</title>
<g id="a_edge40_Node000023_Node000024"><a xlink:title=" ">
<path fill="none" stroke="#63b8ff" d="M855.33,-285.16C829.23,-276.29 786.64,-261.8 755.75,-251.3"/>
<polygon fill="#63b8ff" stroke="#63b8ff" points="756.97,-248.02 746.38,-248.12 754.72,-254.65 756.97,-248.02"/>
</a>
</g>
</g>
<!-- Node24&#45;&gt;Node7 -->
<g id="edge42_Node000024_Node000007" class="edge">
<title>Node24&#45;&gt;Node7</title>
<g id="a_edge42_Node000024_Node000007"><a xlink:title=" ">
<path fill="none" stroke="#63b8ff" d="M690.51,-233.8C632.65,-228.13 493.04,-213.42 366.39,-191.33"/>
<polygon fill="#63b8ff" stroke="#63b8ff" points="367.3,-187.94 356.84,-189.65 366.08,-194.83 367.3,-187.94"/>
</a>
</g>
</g>
<!-- Node24&#45;&gt;Node10 -->
<g id="edge41_Node000024_Node000010" class="edge">
<title>Node24&#45;&gt;Node10</title>
<g id="a_edge41_Node000024_Node000010"><a xlink:title=" ">
<path fill="none" stroke="#63b8ff" d="M744.9,-228.93C774.26,-220.28 818.14,-205.34 827.74,-191 848.76,-159.59 832.14,-113.67 819.53,-87.78"/>
<polygon fill="#63b8ff" stroke="#63b8ff" points="822.73,-86.33 815.03,-79.05 816.51,-89.55 822.73,-86.33"/>
</a>
</g>
</g>
<!-- Node24&#45;&gt;Node14 -->
<g id="edge43_Node000024_Node000014" class="edge">
<title>Node24&#45;&gt;Node14</title>
<g id="a_edge43_Node000024_Node000014"><a xlink:title=" ">
<path fill="none" stroke="#63b8ff" d="M694.32,-226.59C673.73,-217.98 643.53,-205.36 620.37,-195.68"/>
<polygon fill="#63b8ff" stroke="#63b8ff" points="621.93,-192.54 611.35,-191.91 619.23,-199 621.93,-192.54"/>
</a>
</g>
</g>
<!-- Node24&#45;&gt;Node21 -->
<g id="edge45_Node000024_Node000021" class="edge">
<title>Node24&#45;&gt;Node21</title>
<g id="a_edge45_Node000024_Node000021"><a xlink:title=" ">
<path fill="none" stroke="#63b8ff" d="M744.82,-229.15C747.83,-228.4 750.84,-227.67 753.74,-227 820.96,-211.48 900.16,-196.2 944.4,-187.93"/>
<polygon fill="#63b8ff" stroke="#63b8ff" points="944.97,-191.39 954.16,-186.12 943.69,-184.51 944.97,-191.39"/>
</a>
</g>
</g>
<!-- Node25 -->
<g id="Node000025" class="node">
<title>Node25</title>
<g id="a_Node000025"><a xlink:href="native__sched_8h.html" target="_top" xlink:title="Add definitions required on the native board.">
<polygon fill="white" stroke="#666666" points="818.49,-191 728.99,-191 728.99,-170.25 818.49,-170.25 818.49,-191"/>
<text text-anchor="middle" x="773.74" y="-177.5" font-family="Helvetica,sans-Serif" font-size="10.00">native_sched.h</text>
</a>
</g>
</g>
<!-- Node24&#45;&gt;Node25 -->
<g id="edge44_Node000024_Node000025" class="edge">
<title>Node24&#45;&gt;Node25</title>
<g id="a_edge44_Node000024_Node000025"><a xlink:title=" ">
<path fill="none" stroke="#63b8ff" d="M727.75,-226.59C735.47,-219.03 746.37,-208.39 755.61,-199.35"/>
<polygon fill="#63b8ff" stroke="#63b8ff" points="758.03,-201.88 762.73,-192.39 753.13,-196.87 758.03,-201.88"/>
</a>
</g>
</g>
<!-- Node26&#45;&gt;Node24 -->
<g id="edge49_Node000026_Node000024" class="edge">
<title>Node26&#45;&gt;Node24</title>
<g id="a_edge49_Node000026_Node000024"><a xlink:title=" ">
<path fill="none" stroke="#63b8ff" d="M778.51,-283.34C767.77,-275.4 752.41,-264.03 739.82,-254.71"/>
<polygon fill="#63b8ff" stroke="#63b8ff" points="742.19,-252.11 732.07,-248.98 738.03,-257.74 742.19,-252.11"/>
</a>
</g>
</g>
<!-- Node27 -->
<g id="Node000027" class="node">
<title>Node27</title>
<g id="a_Node000027"><a xlink:title=" ">
<polygon fill="#e0e0e0" stroke="#999999" points="830.61,-247.75 762.86,-247.75 762.86,-227 830.61,-227 830.61,-247.75"/>
<text text-anchor="middle" x="796.74" y="-234.25" font-family="Helvetica,sans-Serif" font-size="10.00">cpu_conf.h</text>
</a>
</g>
</g>
<!-- Node26&#45;&gt;Node27 -->
<g id="edge48_Node000026_Node000027" class="edge">
<title>Node26&#45;&gt;Node27</title>
<g id="a_edge48_Node000026_Node000027"><a xlink:title=" ">
<path fill="none" stroke="#63b8ff" d="M792.63,-283.34C793.24,-276.72 794.06,-267.72 794.81,-259.52"/>
<polygon fill="#63b8ff" stroke="#63b8ff" points="798.29,-259.86 795.71,-249.59 791.32,-259.23 798.29,-259.86"/>
</a>
</g>
</g>
<!-- Node29&#45;&gt;Node3 -->
<g id="edge53_Node000029_Node000003" class="edge">
<title>Node29&#45;&gt;Node3</title>
<g id="a_edge53_Node000029_Node000003"><a xlink:title=" ">
<path fill="none" stroke="#63b8ff" d="M478.3,-518.18C388.33,-511.26 115.74,-484.07 115.74,-408.62 115.74,-408.62 115.74,-408.62 115.74,-122.88 115.74,-52.76 358.58,-23.37 454.46,-14.5"/>
<polygon fill="#63b8ff" stroke="#63b8ff" points="454.77,-17.98 464.42,-13.61 454.15,-11.01 454.77,-17.98"/>
</a>
</g>
</g>
<!-- Node29&#45;&gt;Node9 -->
<g id="edge56_Node000029_Node000009" class="edge">
<title>Node29&#45;&gt;Node9</title>
<g id="a_edge56_Node000029_Node000009"><a xlink:title=" ">
<path fill="none" stroke="#63b8ff" d="M533.96,-510.34C552.21,-502.76 575.88,-490.83 592.74,-474.75 606.44,-461.69 616.94,-442.76 623.58,-428.5"/>
<polygon fill="#63b8ff" stroke="#63b8ff" points="626.65,-430.22 627.45,-419.66 620.23,-427.41 626.65,-430.22"/>
</a>
</g>
</g>
<!-- Node29&#45;&gt;Node24 -->
<g id="edge54_Node000029_Node000024" class="edge">
<title>Node29&#45;&gt;Node24</title>
<g id="a_edge54_Node000029_Node000024"><a xlink:title=" ">
<path fill="none" stroke="#63b8ff" d="M489.67,-510.3C477.16,-502.25 460.68,-489.77 450.74,-474.75 433.86,-449.25 431.74,-439.2 431.74,-408.62 431.74,-408.62 431.74,-408.62 431.74,-349.88 431.74,-297.35 601.32,-259.6 679.32,-245.02"/>
<polygon fill="#63b8ff" stroke="#63b8ff" points="679.88,-248.47 689.08,-243.23 678.62,-241.59 679.88,-248.47"/>
</a>
</g>
</g>
<!-- Node30 -->
<g id="Node000030" class="node">
<title>Node30</title>
<g id="a_Node000030"><a xlink:title=" ">
<polygon fill="#e0e0e0" stroke="#999999" points="583.74,-474.75 537.74,-474.75 537.74,-454 583.74,-454 583.74,-474.75"/>
<text text-anchor="middle" x="560.74" y="-461.25" font-family="Helvetica,sans-Serif" font-size="10.00">msg.h</text>
</a>
</g>
</g>
<!-- Node29&#45;&gt;Node30 -->
<g id="edge55_Node000029_Node000030" class="edge">
<title>Node29&#45;&gt;Node30</title>
<g id="a_edge55_Node000029_Node000030"><a xlink:title=" ">
<path fill="none" stroke="#63b8ff" d="M516.39,-510.34C523.84,-502.78 534.34,-492.14 543.26,-483.1"/>
<polygon fill="#63b8ff" stroke="#63b8ff" points="545.57,-485.73 550.1,-476.16 540.59,-480.82 545.57,-485.73"/>
</a>
</g>
</g>
<!-- Node31 -->
<g id="Node000031" class="node">
<title>Node31</title>
<g id="a_Node000031"><a xlink:href="rmutex_8h.html" target="_top" xlink:title="Recursive Mutex for thread synchronization.">
<polygon fill="white" stroke="#666666" points="519.86,-474.75 459.61,-474.75 459.61,-454 519.86,-454 519.86,-474.75"/>
<text text-anchor="middle" x="489.74" y="-461.25" font-family="Helvetica,sans-Serif" font-size="10.00">rmutex.h</text>
</a>
</g>
</g>
<!-- Node29&#45;&gt;Node31 -->
<g id="edge57_Node000029_Node000031" class="edge">
<title>Node29&#45;&gt;Node31</title>
<g id="a_edge57_Node000029_Node000031"><a xlink:title=" ">
<path fill="none" stroke="#63b8ff" d="M503.7,-510.34C501.59,-503.56 498.72,-494.3 496.12,-485.94"/>
<polygon fill="#63b8ff" stroke="#63b8ff" points="499.51,-485.04 493.2,-476.52 492.82,-487.11 499.51,-485.04"/>
</a>
</g>
</g>
<!-- Node31&#45;&gt;Node3 -->
<g id="edge58_Node000031_Node000003" class="edge">
<title>Node31&#45;&gt;Node3</title>
<g id="a_edge58_Node000031_Node000003"><a xlink:title=" ">
<path fill="none" stroke="#63b8ff" d="M464.62,-453.56C388.44,-422.06 167.36,-316.89 203.74,-170.25 219.71,-105.85 241.5,-86.65 300.74,-56.75 350.45,-31.66 414.45,-20.14 454.55,-15.07"/>
<polygon fill="#63b8ff" stroke="#63b8ff" points="454.91,-18.55 464.43,-13.9 454.09,-11.6 454.91,-18.55"/>
</a>
</g>
</g>
<!-- Node31&#45;&gt;Node9 -->
<g id="edge59_Node000031_Node000009" class="edge">
<title>Node31&#45;&gt;Node9</title>
<g id="a_edge59_Node000031_Node000009"><a xlink:title=" ">
<path fill="none" stroke="#63b8ff" d="M515.12,-453.59C537.64,-444.91 570.77,-432.13 595.96,-422.42"/>
<polygon fill="#63b8ff" stroke="#63b8ff" points="597.09,-425.74 605.16,-418.87 594.57,-419.2 597.09,-425.74"/>
</a>
</g>
</g>
<!-- Node31&#45;&gt;Node24 -->
<g id="edge60_Node000031_Node000024" class="edge">
<title>Node31&#45;&gt;Node24</title>
<g id="a_edge60_Node000031_Node000024"><a xlink:title=" ">
<path fill="none" stroke="#63b8ff" d="M493.59,-453.74C505.85,-424.25 546.75,-334.13 607.74,-283.75 628.72,-266.42 657.24,-254.91 679.98,-247.82"/>
<polygon fill="#63b8ff" stroke="#63b8ff" points="680.89,-251.2 689.49,-245.02 678.91,-244.48 680.89,-251.2"/>
</a>
</g>
</g>
</g>
</svg>
